<?xml version="1.0" encoding="utf-8" standalone="no"?>
<!DOCTYPE svg PUBLIC "-//W3C//DTD SVG 1.1//EN" "http://www.w3.org/Graphics/SVG/1.1/DTD/svg11.dtd"[]>
<svg width="704" height="816.33182874980344" version="1.1" xmlns="http://www.w3.org/2000/svg">
  <title>Hexagonal sigma maze with 17 cells side</title>
  <g fill="none" stroke="#000000" stroke-width="2" stroke-linecap="round" stroke-linejoin="round">
    <polyline points="317,26.248711305964264 324,14.124355652982123 338,14.124355652982123 345,1.9999999999999822" />
    <polyline points="359,1.9999999999999822 366,14.124355652982123 380,14.124355652982123 387,26.248711305964264" />
    <polyline points="275,50.497422611928542 282,38.3730669589464 296,38.3730669589464 303,26.248711305964264 317,26.248711305964264" />
    <polyline points="317,50.497422611928542 324,38.3730669589464 338,38.3730669589464 345,26.248711305964264" />
    <polyline points="359,26.248711305964264 366,38.3730669589464 359,50.497422611928542" />
    <polyline points="366,38.3730669589464 380,38.3730669589464 387,26.248711305964264 401,26.248711305964264 408,38.3730669589464 422,38.3730669589464 429,50.497422611928542" />
    <polyline points="233,74.74613391789282 240,62.621778264910681 254,62.621778264910681 261,50.497422611928542 275,50.497422611928542 282,62.621778264910681 275,74.74613391789282" />
    <line x1="282" y1="62.621778264910681" x2="296" y2="62.621778264910681" />
    <polyline points="303,50.497422611928542 317,50.497422611928542 324,62.621778264910681 317,74.74613391789282" />
    <polyline points="324,62.621778264910681 338,62.621778264910681 345,74.74613391789282" />
    <line x1="338" y1="62.621778264910681" x2="345" y2="50.497422611928542" />
    <polyline points="359,74.74613391789282 366,62.621778264910681 380,62.621778264910681 387,74.74613391789282" />
    <polyline points="380,62.621778264910681 387,50.497422611928542 401,50.497422611928542" />
    <polyline points="401,74.74613391789282 408,62.621778264910681 422,62.621778264910681 429,74.74613391789282" />
    <polyline points="429,50.497422611928542 443,50.497422611928542 450,62.621778264910681 443,74.74613391789282" />
    <polyline points="450,62.621778264910681 464,62.621778264910681 471,74.74613391789282" />
    <polyline points="191,98.994845223857112 198,86.870489570874966 212,86.870489570874966 219,98.994845223857112" />
    <polyline points="212,86.870489570874966 219,74.74613391789282 233,74.74613391789282" />
    <polyline points="240,86.870489570874966 254,86.870489570874966 261,98.994845223857112" />
    <line x1="254" y1="86.870489570874966" x2="261" y2="74.74613391789282" />
    <line x1="275" y1="74.74613391789282" x2="282" y2="86.870489570874966" />
    <polyline points="303,98.994845223857112 296,86.870489570874966 303,74.74613391789282 317,74.74613391789282" />
    <line x1="317" y1="98.994845223857112" x2="324" y2="86.870489570874966" />
    <polyline points="338,86.870489570874966 345,74.74613391789282 359,74.74613391789282" />
    <line x1="359" y1="98.994845223857112" x2="366" y2="86.870489570874966" />
    <polyline points="387,98.994845223857112 380,86.870489570874966 387,74.74613391789282" />
    <polyline points="401,74.74613391789282 408,86.870489570874966 401,98.994845223857112" />
    <line x1="422" y1="86.870489570874966" x2="429" y2="74.74613391789282" />
    <polyline points="443,74.74613391789282 450,86.870489570874966 443,98.994845223857112" />
    <polyline points="464,86.870489570874966 471,74.74613391789282 485,74.74613391789282 492,86.870489570874966 506,86.870489570874966 513,98.994845223857112" />
    <polyline points="149,123.24355652982139 156,111.11920087683924 170,111.11920087683924 177,98.9948452238571 191,98.9948452238571 198,111.11920087683924" />
    <line x1="212" y1="111.11920087683924" x2="219" y2="123.24355652982139" />
    <polyline points="219,98.9948452238571 233,98.9948452238571 240,111.11920087683924" />
    <polyline points="261,123.24355652982139 254,111.11920087683924 261,98.9948452238571 275,98.9948452238571 282,111.11920087683924 296,111.11920087683924 303,123.24355652982139" />
    <line x1="296" y1="111.11920087683924" x2="303" y2="98.9948452238571" />
    <polyline points="317,98.9948452238571 324,111.11920087683924 317,123.24355652982139" />
    <polyline points="324,111.11920087683924 338,111.11920087683924 345,123.24355652982139" />
    <polyline points="338,111.11920087683924 345,98.9948452238571 359,98.9948452238571 366,111.11920087683924 380,111.11920087683924 387,123.24355652982139" />
    <polyline points="401,98.9948452238571 408,111.11920087683924 401,123.24355652982139" />
    <line x1="408" y1="111.11920087683924" x2="422" y2="111.11920087683924" />
    <polyline points="429,98.9948452238571 443,98.9948452238571 450,111.11920087683924 464,111.11920087683924 471,123.24355652982139" />
    <polyline points="471,98.9948452238571 485,98.9948452238571 492,111.11920087683924 506,111.11920087683924 513,123.24355652982139" />
    <polyline points="513,98.9948452238571 527,98.9948452238571 534,111.11920087683924 527,123.24355652982139" />
    <polyline points="534,111.11920087683924 548,111.11920087683924 555,123.24355652982139" />
    <polyline points="107,147.49226783578567 114,135.36791218280354 128,135.36791218280354 135,123.24355652982139 149,123.24355652982139 156,135.36791218280354 170,135.36791218280354" />
    <polyline points="177,123.24355652982139 191,123.24355652982139 198,135.36791218280354 191,147.49226783578567" />
    <polyline points="198,135.36791218280354 212,135.36791218280354 219,147.49226783578567" />
    <polyline points="212,135.36791218280354 219,123.24355652982139 233,123.24355652982139 240,135.36791218280354 233,147.49226783578567" />
    <polyline points="240,135.36791218280354 254,135.36791218280354 261,123.24355652982139 275,123.24355652982139" />
    <polyline points="275,147.49226783578567 282,135.36791218280354 296,135.36791218280354 303,123.24355652982139 317,123.24355652982139 324,135.36791218280354 338,135.36791218280354 345,147.49226783578567" />
    <polyline points="345,123.24355652982139 359,123.24355652982139 366,135.36791218280354 380,135.36791218280354 387,147.49226783578567" />
    <line x1="387" y1="123.24355652982139" x2="401" y2="123.24355652982139" />
    <polyline points="401,147.49226783578567 408,135.36791218280354 422,135.36791218280354 429,123.24355652982139 443,123.24355652982139 450,135.36791218280354 443,147.49226783578567" />
    <polyline points="450,135.36791218280354 464,135.36791218280354 471,123.24355652982139" />
    <polyline points="485,123.24355652982139 492,135.36791218280354 485,147.49226783578567" />
    <polyline points="492,135.36791218280354 506,135.36791218280354 513,147.49226783578567" />
    <polyline points="513,123.24355652982139 527,123.24355652982139 534,135.36791218280354" />
    <line x1="548" y1="135.36791218280354" x2="555" y2="147.49226783578567" />
    <polyline points="555,123.24355652982139 569,123.24355652982139 576,135.36791218280354 590,135.36791218280354 597,147.49226783578567" />
    <polyline points="65,171.74097914174996 72,159.61662348876783 86,159.61662348876783 93,171.74097914174996" />
    <polyline points="86,159.61662348876783 93,147.4922678357857 107,147.4922678357857 114,159.61662348876783 128,159.61662348876783 135,171.74097914174996" />
    <line x1="128" y1="159.61662348876783" x2="135" y2="147.4922678357857" />
    <polyline points="149,147.4922678357857 156,159.61662348876783 149,171.74097914174996" />
    <polyline points="156,159.61662348876783 170,159.61662348876783 177,171.74097914174996" />
    <polyline points="170,159.61662348876783 177,147.4922678357857 191,147.4922678357857 198,159.61662348876783" />
    <line x1="212" y1="159.61662348876783" x2="219" y2="171.74097914174996" />
    <polyline points="233,147.4922678357857 240,159.61662348876783 233,171.74097914174996" />
    <line x1="254" y1="159.61662348876783" x2="261" y2="171.74097914174996" />
    <line x1="261" y1="147.4922678357857" x2="275" y2="147.4922678357857" />
    <line x1="275" y1="171.74097914174996" x2="282" y2="159.61662348876783" />
    <polyline points="303,171.74097914174996 296,159.61662348876783 303,147.4922678357857 317,147.4922678357857" />
    <polyline points="317,171.74097914174996 324,159.61662348876783 338,159.61662348876783 345,171.74097914174996" />
    <line x1="338" y1="159.61662348876783" x2="345" y2="147.4922678357857" />
    <polyline points="359,147.4922678357857 366,159.61662348876783 380,159.61662348876783 387,171.74097914174996" />
    <polyline points="387,147.4922678357857 401,147.4922678357857 408,159.61662348876783 401,171.74097914174996" />
    <polyline points="429,171.74097914174996 422,159.61662348876783 429,147.4922678357857" />
    <line x1="443" y1="147.4922678357857" x2="450" y2="159.61662348876783" />
    <polyline points="471,171.74097914174996 464,159.61662348876783 471,147.4922678357857 485,147.4922678357857" />
    <polyline points="485,171.74097914174996 492,159.61662348876783 506,159.61662348876783" />
    <polyline points="513,147.4922678357857 527,147.4922678357857 534,159.61662348876783 527,171.74097914174996" />
    <polyline points="534,159.61662348876783 548,159.61662348876783 555,147.4922678357857 569,147.4922678357857" />
    <polyline points="569,171.74097914174996 576,159.61662348876783 590,159.61662348876783 597,147.4922678357857 611,147.4922678357857 618,159.61662348876783 632,159.61662348876783 639,171.74097914174996" />
    <polyline points="23,195.98969044771422 30,183.86533479473209 44,183.86533479473209 51,195.98969044771422" />
    <polyline points="44,183.86533479473209 51,171.74097914174996 65,171.74097914174996" />
    <polyline points="65,195.98969044771422 72,183.86533479473209 86,183.86533479473209" />
    <polyline points="93,171.74097914174996 107,171.74097914174996 114,183.86533479473209 107,195.98969044771422" />
    <line x1="128" y1="183.86533479473209" x2="135" y2="195.98969044771422" />
    <polyline points="149,171.74097914174996 156,183.86533479473209 149,195.98969044771422" />
    <line x1="170" y1="183.86533479473209" x2="177" y2="195.98969044771422" />
    <polyline points="191,171.74097914174996 198,183.86533479473209 191,195.98969044771422" />
    <polyline points="219,195.98969044771422 212,183.86533479473209 219,171.74097914174996 233,171.74097914174996 240,183.86533479473209" />
    <polyline points="261,195.98969044771422 254,183.86533479473209 261,171.74097914174996 275,171.74097914174996 282,183.86533479473209" />
    <polyline points="303,195.98969044771422 296,183.86533479473209 303,171.74097914174996" />
    <polyline points="324,183.86533479473209 338,183.86533479473209 345,195.98969044771422" />
    <polyline points="345,171.74097914174996 359,171.74097914174996 366,183.86533479473209 359,195.98969044771422" />
    <polyline points="387,195.98969044771422 380,183.86533479473209 387,171.74097914174996" />
    <polyline points="401,171.74097914174996 408,183.86533479473209 401,195.98969044771422" />
    <polyline points="429,195.98969044771422 422,183.86533479473209 429,171.74097914174996 443,171.74097914174996 450,183.86533479473209 443,195.98969044771422" />
    <polyline points="450,183.86533479473209 464,183.86533479473209 471,171.74097914174996" />
    <polyline points="485,171.74097914174996 492,183.86533479473209 485,195.98969044771422" />
    <polyline points="513,195.98969044771422 506,183.86533479473209 513,171.74097914174996 527,171.74097914174996" />
    <polyline points="527,195.98969044771422 534,183.86533479473209 548,183.86533479473209 555,195.98969044771422" />
    <polyline points="555,171.74097914174996 569,171.74097914174996 576,183.86533479473209 569,195.98969044771422" />
    <polyline points="590,183.86533479473209 597,171.74097914174996 611,171.74097914174996 618,183.86533479473209 632,183.86533479473209 639,171.74097914174996 653,171.74097914174996 660,183.86533479473209 653,195.98969044771422" />
    <polyline points="660,183.86533479473209 674,183.86533479473209 681,195.98969044771422" />
    <polyline points="9,220.23840175367852 2,208.11404610069639 9,195.98969044771425 23,195.98969044771425 30,208.11404610069639" />
    <line x1="44" y1="208.11404610069639" x2="51" y2="220.23840175367852" />
    <polyline points="51,195.98969044771425 65,195.98969044771425 72,208.11404610069639 65,220.23840175367852" />
    <polyline points="93,220.23840175367852 86,208.11404610069639 93,195.98969044771425 107,195.98969044771425 114,208.11404610069639 128,208.11404610069639 135,220.23840175367852" />
    <polyline points="135,195.98969044771425 149,195.98969044771425 156,208.11404610069639" />
    <polyline points="177,220.23840175367852 170,208.11404610069639 177,195.98969044771425 191,195.98969044771425" />
    <polyline points="198,208.11404610069639 212,208.11404610069639 219,220.23840175367852" />
    <line x1="212" y1="208.11404610069639" x2="219" y2="195.98969044771425" />
    <polyline points="233,195.98969044771425 240,208.11404610069639 233,220.23840175367852" />
    <polyline points="240,208.11404610069639 254,208.11404610069639 261,195.98969044771425" />
    <polyline points="275,195.98969044771425 282,208.11404610069639 296,208.11404610069639 303,220.23840175367852" />
    <polyline points="303,195.98969044771425 317,195.98969044771425 324,208.11404610069639 338,208.11404610069639 345,195.98969044771425 359,195.98969044771425 366,208.11404610069639 359,220.23840175367852" />
    <polyline points="387,220.23840175367852 380,208.11404610069639 387,195.98969044771425" />
    <polyline points="401,195.98969044771425 408,208.11404610069639 401,220.23840175367852" />
    <polyline points="429,220.23840175367852 422,208.11404610069639 429,195.98969044771425" />
    <polyline points="443,195.98969044771425 450,208.11404610069639 443,220.23840175367852" />
    <polyline points="450,208.11404610069639 464,208.11404610069639 471,220.23840175367852" />
    <polyline points="464,208.11404610069639 471,195.98969044771425 485,195.98969044771425" />
    <polyline points="485,220.23840175367852 492,208.11404610069639 506,208.11404610069639 513,195.98969044771425" />
    <polyline points="527,195.98969044771425 534,208.11404610069639 527,220.23840175367852" />
    <polyline points="555,220.23840175367852 548,208.11404610069639 555,195.98969044771425" />
    <polyline points="569,195.98969044771425 576,208.11404610069639 590,208.11404610069639 597,195.98969044771425" />
    <polyline points="611,195.98969044771425 618,208.11404610069639 611,220.23840175367852" />
    <polyline points="618,208.11404610069639 632,208.11404610069639 639,220.23840175367852" />
    <line x1="632" y1="208.11404610069639" x2="639" y2="195.98969044771425" />
    <line x1="653" y1="195.98969044771425" x2="660" y2="208.11404610069639" />
    <line x1="674" y1="208.11404610069639" x2="681" y2="220.23840175367852" />
    <polyline points="681,195.98969044771425 695,195.98969044771425 702,208.11404610069639 695,220.23840175367852" />
    <polyline points="9,244.48711305964281 2,232.36275740666068 9,220.23840175367855 23,220.23840175367855 30,232.36275740666068" />
    <polyline points="51,244.48711305964281 44,232.36275740666068 51,220.23840175367855" />
    <polyline points="65,220.23840175367855 72,232.36275740666068 65,244.48711305964281" />
    <polyline points="93,244.48711305964281 86,232.36275740666068 93,220.23840175367855" />
    <polyline points="107,220.23840175367855 114,232.36275740666068 107,244.48711305964281" />
    <polyline points="128,232.36275740666068 135,220.23840175367855 149,220.23840175367855 156,232.36275740666068" />
    <polyline points="177,244.48711305964281 170,232.36275740666068 177,220.23840175367855 191,220.23840175367855 198,232.36275740666068 212,232.36275740666068" />
    <polyline points="233,220.23840175367855 240,232.36275740666068 233,244.48711305964281" />
    <polyline points="240,232.36275740666068 254,232.36275740666068 261,220.23840175367855 275,220.23840175367855" />
    <polyline points="275,244.48711305964281 282,232.36275740666068 296,232.36275740666068 303,220.23840175367855 317,220.23840175367855 324,232.36275740666068 338,232.36275740666068 345,244.48711305964281" />
    <line x1="338" y1="232.36275740666068" x2="345" y2="220.23840175367855" />
    <line x1="359" y1="220.23840175367855" x2="366" y2="232.36275740666068" />
    <polyline points="387,244.48711305964281 380,232.36275740666068 387,220.23840175367855 401,220.23840175367855" />
    <polyline points="401,244.48711305964281 408,232.36275740666068 422,232.36275740666068 429,244.48711305964281" />
    <line x1="422" y1="232.36275740666068" x2="429" y2="220.23840175367855" />
    <polyline points="443,244.48711305964281 450,232.36275740666068 464,232.36275740666068 471,244.48711305964281" />
    <line x1="464" y1="232.36275740666068" x2="471" y2="220.23840175367855" />
    <polyline points="485,220.23840175367855 492,232.36275740666068 506,232.36275740666068 513,244.48711305964281" />
    <line x1="506" y1="232.36275740666068" x2="513" y2="220.23840175367855" />
    <polyline points="527,244.48711305964281 534,232.36275740666068 548,232.36275740666068 555,220.23840175367855 569,220.23840175367855 576,232.36275740666068 590,232.36275740666068 597,244.48711305964281" />
    <line x1="597" y1="220.23840175367855" x2="611" y2="220.23840175367855" />
    <polyline points="611,244.48711305964281 618,232.36275740666068 632,232.36275740666068 639,220.23840175367855 653,220.23840175367855 660,232.36275740666068 653,244.48711305964281" />
    <polyline points="660,232.36275740666068 674,232.36275740666068 681,220.23840175367855" />
    <polyline points="695,220.23840175367855 702,232.36275740666068 695,244.48711305964281" />
    <polyline points="9,268.73582436560707 2,256.61146871262491 9,244.48711305964278" />
    <polyline points="23,244.48711305964278 30,256.61146871262491 44,256.61146871262491 51,268.73582436560707" />
    <line x1="44" y1="256.61146871262491" x2="51" y2="244.48711305964278" />
    <polyline points="65,244.48711305964278 72,256.61146871262491 65,268.73582436560707" />
    <line x1="86" y1="256.61146871262491" x2="93" y2="268.73582436560707" />
    <polyline points="107,244.48711305964278 114,256.61146871262491 107,268.73582436560707" />
    <line x1="114" y1="256.61146871262491" x2="128" y2="256.61146871262491" />
    <polyline points="135,244.48711305964278 149,244.48711305964278 156,256.61146871262491 149,268.73582436560707" />
    <polyline points="156,256.61146871262491 170,256.61146871262491 177,268.73582436560707" />
    <line x1="170" y1="256.61146871262491" x2="177" y2="244.48711305964278" />
    <polyline points="191,244.48711305964278 198,256.61146871262491 212,256.61146871262491 219,268.73582436560707" />
    <polyline points="212,256.61146871262491 219,244.48711305964278 233,244.48711305964278" />
    <polyline points="233,268.73582436560707 240,256.61146871262491 254,256.61146871262491 261,244.48711305964278 275,244.48711305964278" />
    <polyline points="275,268.73582436560707 282,256.61146871262491 296,256.61146871262491 303,244.48711305964278 317,244.48711305964278 324,256.61146871262491 317,268.73582436560707" />
    <polyline points="324,256.61146871262491 338,256.61146871262491 345,268.73582436560707" />
    <polyline points="345,244.48711305964278 359,244.48711305964278 366,256.61146871262491 359,268.73582436560707" />
    <line x1="366" y1="256.61146871262491" x2="380" y2="256.61146871262491" />
    <polyline points="401,244.48711305964278 408,256.61146871262491 401,268.73582436560707" />
    <polyline points="429,268.73582436560707 422,256.61146871262491 429,244.48711305964278" />
    <polyline points="443,244.48711305964278 450,256.61146871262491 443,268.73582436560707" />
    <line x1="464" y1="256.61146871262491" x2="471" y2="268.73582436560707" />
    <polyline points="471,244.48711305964278 485,244.48711305964278 492,256.61146871262491" />
    <polyline points="513,268.73582436560707 506,256.61146871262491 513,244.48711305964278 527,244.48711305964278" />
    <polyline points="527,268.73582436560707 534,256.61146871262491 548,256.61146871262491 555,268.73582436560707" />
    <polyline points="555,244.48711305964278 569,244.48711305964278 576,256.61146871262491 590,256.61146871262491 597,268.73582436560707" />
    <line x1="597" y1="244.48711305964278" x2="611" y2="244.48711305964278" />
    <polyline points="611,268.73582436560707 618,256.61146871262491 632,256.61146871262491 639,268.73582436560707" />
    <polyline points="632,256.61146871262491 639,244.48711305964278 653,244.48711305964278" />
    <polyline points="653,268.73582436560707 660,256.61146871262491 674,256.61146871262491 681,268.73582436560707" />
    <polyline points="681,244.48711305964278 695,244.48711305964278 702,256.61146871262491 695,268.73582436560707" />
    <polyline points="9,292.98453567157134 2,280.86018001858918 9,268.735824365607 23,268.735824365607 30,280.86018001858918 44,280.86018001858918 51,292.98453567157134" />
    <line x1="51" y1="268.735824365607" x2="65" y2="268.735824365607" />
    <polyline points="65,292.98453567157134 72,280.86018001858918 86,280.86018001858918 93,268.735824365607" />
    <polyline points="107,268.735824365607 114,280.86018001858918 107,292.98453567157134" />
    <line x1="114" y1="280.86018001858918" x2="128" y2="280.86018001858918" />
    <polyline points="135,268.735824365607 149,268.735824365607 156,280.86018001858918 149,292.98453567157134" />
    <line x1="170" y1="280.86018001858918" x2="177" y2="292.98453567157134" />
    <polyline points="191,268.735824365607 198,280.86018001858918 191,292.98453567157134" />
    <polyline points="219,292.98453567157134 212,280.86018001858918 219,268.735824365607" />
    <polyline points="233,292.98453567157134 240,280.86018001858918 254,280.86018001858918 261,292.98453567157134" />
    <polyline points="254,280.86018001858918 261,268.735824365607 275,268.735824365607 282,280.86018001858918 275,292.98453567157134" />
    <polyline points="303,292.98453567157134 296,280.86018001858918 303,268.735824365607" />
    <polyline points="317,268.735824365607 324,280.86018001858918 317,292.98453567157134" />
    <line x1="338" y1="280.86018001858918" x2="345" y2="292.98453567157134" />
    <polyline points="345,268.735824365607 359,268.735824365607 366,280.86018001858918" />
    <polyline points="387,292.98453567157134 380,280.86018001858918 387,268.735824365607" />
    <line x1="401" y1="268.735824365607" x2="408" y2="280.86018001858918" />
    <line x1="422" y1="280.86018001858918" x2="429" y2="292.98453567157134" />
    <polyline points="443,268.735824365607 450,280.86018001858918 443,292.98453567157134" />
    <line x1="450" y1="280.86018001858918" x2="464" y2="280.86018001858918" />
    <polyline points="471,268.735824365607 485,268.735824365607 492,280.86018001858918 485,292.98453567157134" />
    <polyline points="492,280.86018001858918 506,280.86018001858918 513,292.98453567157134" />
    <polyline points="506,280.86018001858918 513,268.735824365607 527,268.735824365607 534,280.86018001858918" />
    <polyline points="548,280.86018001858918 555,268.735824365607 569,268.735824365607" />
    <polyline points="569,292.98453567157134 576,280.86018001858918 590,280.86018001858918 597,292.98453567157134" />
    <polyline points="590,280.86018001858918 597,268.735824365607 611,268.735824365607" />
    <polyline points="618,280.86018001858918 632,280.86018001858918 639,292.98453567157134" />
    <line x1="653" y1="292.98453567157134" x2="660" y2="280.86018001858918" />
    <polyline points="681,292.98453567157134 674,280.86018001858918 681,268.735824365607" />
    <polyline points="695,268.735824365607 702,280.86018001858918 695,292.98453567157134" />
    <polyline points="9,317.23324697753566 2,305.1088913245535 9,292.98453567157134 23,292.98453567157134" />
    <polyline points="30,305.1088913245535 44,305.1088913245535 51,317.23324697753566" />
    <polyline points="44,305.1088913245535 51,292.98453567157134 65,292.98453567157134 72,305.1088913245535 86,305.1088913245535 93,317.23324697753566" />
    <polyline points="93,292.98453567157134 107,292.98453567157134 114,305.1088913245535 107,317.23324697753566" />
    <polyline points="114,305.1088913245535 128,305.1088913245535 135,317.23324697753566" />
    <polyline points="135,292.98453567157134 149,292.98453567157134 156,305.1088913245535 149,317.23324697753566" />
    <polyline points="177,317.23324697753566 170,305.1088913245535 177,292.98453567157134 191,292.98453567157134 198,305.1088913245535" />
    <polyline points="212,305.1088913245535 219,292.98453567157134 233,292.98453567157134" />
    <line x1="233" y1="317.23324697753566" x2="240" y2="305.1088913245535" />
    <line x1="254" y1="305.1088913245535" x2="261" y2="292.98453567157134" />
    <polyline points="275,292.98453567157134 282,305.1088913245535 275,317.23324697753566" />
    <line x1="282" y1="305.1088913245535" x2="296" y2="305.1088913245535" />
    <polyline points="303,292.98453567157134 317,292.98453567157134 324,305.1088913245535 317,317.23324697753566" />
    <polyline points="324,305.1088913245535 338,305.1088913245535 345,292.98453567157134 359,292.98453567157134 366,305.1088913245535 380,305.1088913245535 387,317.23324697753566" />
    <polyline points="380,305.1088913245535 387,292.98453567157134 401,292.98453567157134 408,305.1088913245535 422,305.1088913245535 429,292.98453567157134 443,292.98453567157134 450,305.1088913245535 443,317.23324697753566" />
    <line x1="450" y1="305.1088913245535" x2="464" y2="305.1088913245535" />
    <line x1="471" y1="292.98453567157134" x2="485" y2="292.98453567157134" />
    <line x1="485" y1="317.23324697753566" x2="492" y2="305.1088913245535" />
    <polyline points="513,317.23324697753566 506,305.1088913245535 513,292.98453567157134" />
    <polyline points="527,292.98453567157134 534,305.1088913245535 527,317.23324697753566" />
    <polyline points="548,305.1088913245535 555,292.98453567157134 569,292.98453567157134" />
    <polyline points="569,317.23324697753566 576,305.1088913245535 590,305.1088913245535 597,317.23324697753566" />
    <line x1="597" y1="292.98453567157134" x2="611" y2="292.98453567157134" />
    <polyline points="611,317.23324697753566 618,305.1088913245535 632,305.1088913245535 639,317.23324697753566" />
    <polyline points="632,305.1088913245535 639,292.98453567157134 653,292.98453567157134" />
    <polyline points="653,317.23324697753566 660,305.1088913245535 674,305.1088913245535 681,292.98453567157134" />
    <polyline points="695,292.98453567157134 702,305.1088913245535 695,317.23324697753566" />
    <polyline points="9,341.48195828349992 2,329.35760263051776 9,317.2332469775356 23,317.2332469775356" />
    <polyline points="30,329.35760263051776 44,329.35760263051776 51,341.48195828349992" />
    <polyline points="51,317.2332469775356 65,317.2332469775356 72,329.35760263051776 65,341.48195828349992" />
    <line x1="72" y1="329.35760263051776" x2="86" y2="329.35760263051776" />
    <line x1="93" y1="317.2332469775356" x2="107" y2="317.2332469775356" />
    <line x1="107" y1="341.48195828349992" x2="114" y2="329.35760263051776" />
    <line x1="128" y1="329.35760263051776" x2="135" y2="341.48195828349992" />
    <polyline points="149,317.2332469775356 156,329.35760263051776 149,341.48195828349992" />
    <polyline points="177,341.48195828349992 170,329.35760263051776 177,317.2332469775356" />
    <polyline points="191,317.2332469775356 198,329.35760263051776 191,341.48195828349992" />
    <polyline points="198,329.35760263051776 212,329.35760263051776 219,317.2332469775356 233,317.2332469775356 240,329.35760263051776 254,329.35760263051776 261,317.2332469775356 275,317.2332469775356 282,329.35760263051776" />
    <polyline points="303,341.48195828349992 296,329.35760263051776 303,317.2332469775356 317,317.2332469775356 324,329.35760263051776 317,341.48195828349992" />
    <polyline points="324,329.35760263051776 338,329.35760263051776 345,341.48195828349992" />
    <polyline points="345,317.2332469775356 359,317.2332469775356 366,329.35760263051776 380,329.35760263051776 387,341.48195828349992" />
    <polyline points="401,317.2332469775356 408,329.35760263051776 401,341.48195828349992" />
    <polyline points="408,329.35760263051776 422,329.35760263051776 429,317.2332469775356" />
    <polyline points="443,317.2332469775356 450,329.35760263051776 443,341.48195828349992" />
    <line x1="464" y1="329.35760263051776" x2="471" y2="341.48195828349992" />
    <polyline points="471,317.2332469775356 485,317.2332469775356 492,329.35760263051776 485,341.48195828349992" />
    <line x1="492" y1="329.35760263051776" x2="506" y2="329.35760263051776" />
    <polyline points="513,317.2332469775356 527,317.2332469775356 534,329.35760263051776 527,341.48195828349992" />
    <polyline points="534,329.35760263051776 548,329.35760263051776 555,317.2332469775356 569,317.2332469775356" />
    <line x1="569" y1="341.48195828349992" x2="576" y2="329.35760263051776" />
    <polyline points="590,329.35760263051776 597,317.2332469775356 611,317.2332469775356" />
    <polyline points="611,341.48195828349992 618,329.35760263051776 632,329.35760263051776" />
    <polyline points="653,317.2332469775356 660,329.35760263051776 653,341.48195828349992" />
    <polyline points="674,329.35760263051776 681,317.2332469775356 695,317.2332469775356 702,329.35760263051776 695,341.48195828349992" />
    <polyline points="9,365.73066958946418 2,353.606313936482 9,341.48195828349986 23,341.48195828349986" />
    <line x1="23" y1="365.73066958946418" x2="30" y2="353.606313936482" />
    <polyline points="51,365.73066958946418 44,353.606313936482 51,341.48195828349986" />
    <polyline points="65,365.73066958946418 72,353.606313936482 86,353.606313936482 93,341.48195828349986 107,341.48195828349986 114,353.606313936482 107,365.73066958946418" />
    <polyline points="114,353.606313936482 128,353.606313936482 135,341.48195828349986 149,341.48195828349986" />
    <polyline points="149,365.73066958946418 156,353.606313936482 170,353.606313936482 177,365.73066958946418" />
    <line x1="170" y1="353.606313936482" x2="177" y2="341.48195828349986" />
    <polyline points="191,341.48195828349986 198,353.606313936482 212,353.606313936482 219,341.48195828349986 233,341.48195828349986" />
    <polyline points="240,353.606313936482 254,353.606313936482 261,365.73066958946418" />
    <polyline points="254,353.606313936482 261,341.48195828349986 275,341.48195828349986 282,353.606313936482 296,353.606313936482 303,365.73066958946418" />
    <line x1="296" y1="353.606313936482" x2="303" y2="341.48195828349986" />
    <line x1="317" y1="365.73066958946418" x2="324" y2="353.606313936482" />
    <polyline points="338,353.606313936482 345,341.48195828349986 359,341.48195828349986 366,353.606313936482 359,365.73066958946418" />
    <polyline points="380,353.606313936482 387,341.48195828349986 401,341.48195828349986 408,353.606313936482 422,353.606313936482 429,365.73066958946418" />
    <polyline points="429,341.48195828349986 443,341.48195828349986 450,353.606313936482 464,353.606313936482" />
    <polyline points="471,341.48195828349986 485,341.48195828349986 492,353.606313936482 485,365.73066958946418" />
    <polyline points="492,353.606313936482 506,353.606313936482 513,365.73066958946418" />
    <polyline points="513,341.48195828349986 527,341.48195828349986 534,353.606313936482 548,353.606313936482 555,365.73066958946418" />
    <polyline points="555,341.48195828349986 569,341.48195828349986 576,353.606313936482 569,365.73066958946418" />
    <polyline points="576,353.606313936482 590,353.606313936482 597,341.48195828349986 611,341.48195828349986" />
    <polyline points="611,365.73066958946418 618,353.606313936482 632,353.606313936482 639,365.73066958946418" />
    <polyline points="632,353.606313936482 639,341.48195828349986 653,341.48195828349986 660,353.606313936482 653,365.73066958946418" />
    <polyline points="681,365.73066958946418 674,353.606313936482 681,341.48195828349986" />
    <polyline points="695,341.48195828349986 702,353.606313936482 695,365.73066958946418" />
    <polyline points="9,389.97938089542851 2,377.85502524244635 9,365.73066958946418" />
    <polyline points="23,365.73066958946418 30,377.85502524244635 23,389.97938089542851" />
    <polyline points="30,377.85502524244635 44,377.85502524244635 51,389.97938089542851" />
    <line x1="51" y1="365.73066958946418" x2="65" y2="365.73066958946418" />
    <polyline points="72,377.85502524244635 86,377.85502524244635 93,389.97938089542851" />
    <line x1="86" y1="377.85502524244635" x2="93" y2="365.73066958946418" />
    <polyline points="107,365.73066958946418 114,377.85502524244635 107,389.97938089542851" />
    <polyline points="135,389.97938089542851 128,377.85502524244635 135,365.73066958946418 149,365.73066958946418 156,377.85502524244635 170,377.85502524244635" />
    <polyline points="177,365.73066958946418 191,365.73066958946418 198,377.85502524244635 191,389.97938089542851" />
    <polyline points="198,377.85502524244635 212,377.85502524244635 219,389.97938089542851" />
    <line x1="212" y1="377.85502524244635" x2="219" y2="365.73066958946418" />
    <polyline points="233,365.73066958946418 240,377.85502524244635 233,389.97938089542851" />
    <polyline points="261,389.97938089542851 254,377.85502524244635 261,365.73066958946418" />
    <polyline points="275,365.73066958946418 282,377.85502524244635 275,389.97938089542851" />
    <polyline points="282,377.85502524244635 296,377.85502524244635 303,389.97938089542851" />
    <line x1="303" y1="365.73066958946418" x2="317" y2="365.73066958946418" />
    <polyline points="317,389.97938089542851 324,377.85502524244635 338,377.85502524244635 345,365.73066958946418 359,365.73066958946418 366,377.85502524244635 380,377.85502524244635 387,365.73066958946418 401,365.73066958946418 408,377.85502524244635 401,389.97938089542851" />
    <polyline points="422,377.85502524244635 429,365.73066958946418 443,365.73066958946418 450,377.85502524244635 464,377.85502524244635 471,389.97938089542851" />
    <polyline points="464,377.85502524244635 471,365.73066958946418 485,365.73066958946418" />
    <polyline points="485,389.97938089542851 492,377.85502524244635 506,377.85502524244635 513,389.97938089542851" />
    <polyline points="513,365.73066958946418 527,365.73066958946418 534,377.85502524244635 527,389.97938089542851" />
    <line x1="548" y1="377.85502524244635" x2="555" y2="389.97938089542851" />
    <line x1="555" y1="365.73066958946418" x2="569" y2="365.73066958946418" />
    <polyline points="569,389.97938089542851 576,377.85502524244635 590,377.85502524244635 597,389.97938089542851" />
    <polyline points="590,377.85502524244635 597,365.73066958946418 611,365.73066958946418" />
    <line x1="611" y1="389.97938089542851" x2="618" y2="377.85502524244635" />
    <polyline points="639,389.97938089542851 632,377.85502524244635 639,365.73066958946418" />
    <line x1="653" y1="389.97938089542851" x2="660" y2="377.85502524244635" />
    <line x1="674" y1="377.85502524244635" x2="681" y2="389.97938089542851" />
    <polyline points="681,365.73066958946418 695,365.73066958946418 702,377.85502524244635 695,389.97938089542851" />
    <polyline points="9,414.22809220139277 2,402.10373654841061 9,389.97938089542845" />
    <polyline points="23,389.97938089542845 30,402.10373654841061 23,414.22809220139277" />
    <line x1="30" y1="402.10373654841061" x2="44" y2="402.10373654841061" />
    <polyline points="51,389.97938089542845 65,389.97938089542845 72,402.10373654841061 65,414.22809220139277" />
    <polyline points="93,414.22809220139277 86,402.10373654841061 93,389.97938089542845" />
    <polyline points="107,389.97938089542845 114,402.10373654841061 107,414.22809220139277" />
    <polyline points="114,402.10373654841061 128,402.10373654841061 135,414.22809220139277" />
    <polyline points="149,389.97938089542845 156,402.10373654841061 149,414.22809220139277" />
    <polyline points="156,402.10373654841061 170,402.10373654841061 177,414.22809220139277" />
    <polyline points="170,402.10373654841061 177,389.97938089542845 191,389.97938089542845" />
    <polyline points="191,414.22809220139277 198,402.10373654841061 212,402.10373654841061" />
    <polyline points="219,389.97938089542845 233,389.97938089542845 240,402.10373654841061 233,414.22809220139277" />
    <line x1="254" y1="402.10373654841061" x2="261" y2="389.97938089542845" />
    <line x1="275" y1="414.22809220139277" x2="282" y2="402.10373654841061" />
    <line x1="296" y1="402.10373654841061" x2="303" y2="414.22809220139277" />
    <line x1="303" y1="389.97938089542845" x2="317" y2="389.97938089542845" />
    <polyline points="317,414.22809220139277 324,402.10373654841061 338,402.10373654841061 345,389.97938089542845 359,389.97938089542845 366,402.10373654841061 359,414.22809220139277" />
    <polyline points="366,402.10373654841061 380,402.10373654841061 387,389.97938089542845 401,389.97938089542845 408,402.10373654841061 422,402.10373654841061 429,389.97938089542845 443,389.97938089542845" />
    <polyline points="443,414.22809220139277 450,402.10373654841061 464,402.10373654841061 471,414.22809220139277" />
    <polyline points="464,402.10373654841061 471,389.97938089542845 485,389.97938089542845" />
    <polyline points="492,402.10373654841061 506,402.10373654841061 513,414.22809220139277" />
    <polyline points="527,414.22809220139277 534,402.10373654841061 548,402.10373654841061 555,414.22809220139277" />
    <polyline points="548,402.10373654841061 555,389.97938089542845 569,389.97938089542845" />
    <polyline points="569,414.22809220139277 576,402.10373654841061 590,402.10373654841061 597,414.22809220139277" />
    <polyline points="597,389.97938089542845 611,389.97938089542845 618,402.10373654841061 632,402.10373654841061 639,414.22809220139277" />
    <line x1="639" y1="389.97938089542845" x2="653" y2="389.97938089542845" />
    <polyline points="653,414.22809220139277 660,402.10373654841061 674,402.10373654841061 681,414.22809220139277" />
    <line x1="674" y1="402.10373654841061" x2="681" y2="389.97938089542845" />
    <polyline points="695,389.97938089542845 702,402.10373654841061 695,414.22809220139277" />
    <polyline points="9,438.47680350735703 2,426.35244785437487 9,414.22809220139271" />
    <line x1="23" y1="414.22809220139271" x2="30" y2="426.35244785437487" />
    <polyline points="51,438.47680350735703 44,426.35244785437487 51,414.22809220139271 65,414.22809220139271 72,426.35244785437487 65,438.47680350735703" />
    <polyline points="72,426.35244785437487 86,426.35244785437487 93,438.47680350735703" />
    <line x1="93" y1="414.22809220139271" x2="107" y2="414.22809220139271" />
    <polyline points="107,438.47680350735703 114,426.35244785437487 128,426.35244785437487 135,414.22809220139271 149,414.22809220139271" />
    <polyline points="149,438.47680350735703 156,426.35244785437487 170,426.35244785437487" />
    <polyline points="177,414.22809220139271 191,414.22809220139271 198,426.35244785437487 191,438.47680350735703" />
    <line x1="198" y1="426.35244785437487" x2="212" y2="426.35244785437487" />
    <polyline points="219,414.22809220139271 233,414.22809220139271 240,426.35244785437487 233,438.47680350735703" />
    <line x1="240" y1="426.35244785437487" x2="254" y2="426.35244785437487" />
    <polyline points="261,414.22809220139271 275,414.22809220139271 282,426.35244785437487 275,438.47680350735703" />
    <polyline points="282,426.35244785437487 296,426.35244785437487 303,438.47680350735703" />
    <polyline points="303,414.22809220139271 317,414.22809220139271 324,426.35244785437487 317,438.47680350735703" />
    <polyline points="345,438.47680350735703 338,426.35244785437487 345,414.22809220139271" />
    <polyline points="359,438.47680350735703 366,426.35244785437487 380,426.35244785437487 387,438.47680350735703" />
    <line x1="380" y1="426.35244785437487" x2="387" y2="414.22809220139271" />
    <polyline points="401,414.22809220139271 408,426.35244785437487 401,438.47680350735703" />
    <polyline points="408,426.35244785437487 422,426.35244785437487 429,414.22809220139271 443,414.22809220139271 450,426.35244785437487 443,438.47680350735703" />
    <polyline points="464,426.35244785437487 471,414.22809220139271 485,414.22809220139271 492,426.35244785437487" />
    <polyline points="506,426.35244785437487 513,414.22809220139271 527,414.22809220139271" />
    <polyline points="527,438.47680350735703 534,426.35244785437487 548,426.35244785437487 555,414.22809220139271" />
    <polyline points="569,414.22809220139271 576,426.35244785437487 569,438.47680350735703" />
    <line x1="590" y1="426.35244785437487" x2="597" y2="438.47680350735703" />
    <polyline points="597,414.22809220139271 611,414.22809220139271 618,426.35244785437487 632,426.35244785437487" />
    <polyline points="639,414.22809220139271 653,414.22809220139271 660,426.35244785437487 653,438.47680350735703" />
    <polyline points="681,438.47680350735703 674,426.35244785437487 681,414.22809220139271" />
    <polyline points="695,414.22809220139271 702,426.35244785437487 695,438.47680350735703" />
    <polyline points="9,462.72551481332135 2,450.60115916033919 9,438.47680350735703" />
    <polyline points="23,438.47680350735703 30,450.60115916033919 23,462.72551481332135" />
    <polyline points="30,450.60115916033919 44,450.60115916033919 51,462.72551481332135" />
    <line x1="44" y1="450.60115916033919" x2="51" y2="438.47680350735703" />
    <line x1="65" y1="462.72551481332135" x2="72" y2="450.60115916033919" />
    <polyline points="93,462.72551481332135 86,450.60115916033919 93,438.47680350735703 107,438.47680350735703 114,450.60115916033919 128,450.60115916033919 135,462.72551481332135" />
    <polyline points="135,438.47680350735703 149,438.47680350735703 156,450.60115916033919 149,462.72551481332135" />
    <polyline points="170,450.60115916033919 177,438.47680350735703 191,438.47680350735703 198,450.60115916033919 212,450.60115916033919 219,462.72551481332135" />
    <line x1="219" y1="438.47680350735703" x2="233" y2="438.47680350735703" />
    <line x1="233" y1="462.72551481332135" x2="240" y2="450.60115916033919" />
    <polyline points="254,450.60115916033919 261,438.47680350735703 275,438.47680350735703" />
    <line x1="275" y1="462.72551481332135" x2="282" y2="450.60115916033919" />
    <polyline points="303,462.72551481332135 296,450.60115916033919 303,438.47680350735703" />
    <polyline points="317,438.47680350735703 324,450.60115916033919 317,462.72551481332135" />
    <polyline points="324,450.60115916033919 338,450.60115916033919 345,462.72551481332135" />
    <polyline points="345,438.47680350735703 359,438.47680350735703 366,450.60115916033919" />
    <line x1="380" y1="450.60115916033919" x2="387" y2="462.72551481332135" />
    <line x1="387" y1="438.47680350735703" x2="401" y2="438.47680350735703" />
    <polyline points="408,450.60115916033919 422,450.60115916033919 429,462.72551481332135" />
    <line x1="422" y1="450.60115916033919" x2="429" y2="438.47680350735703" />
    <polyline points="443,438.47680350735703 450,450.60115916033919 464,450.60115916033919 471,462.72551481332135" />
    <line x1="464" y1="450.60115916033919" x2="471" y2="438.47680350735703" />
    <polyline points="485,438.47680350735703 492,450.60115916033919 485,462.72551481332135" />
    <line x1="492" y1="450.60115916033919" x2="506" y2="450.60115916033919" />
    <polyline points="513,438.47680350735703 527,438.47680350735703 534,450.60115916033919 527,462.72551481332135" />
    <polyline points="534,450.60115916033919 548,450.60115916033919 555,462.72551481332135" />
    <polyline points="555,438.47680350735703 569,438.47680350735703 576,450.60115916033919 569,462.72551481332135" />
    <line x1="576" y1="450.60115916033919" x2="590" y2="450.60115916033919" />
    <polyline points="597,438.47680350735703 611,438.47680350735703 618,450.60115916033919 611,462.72551481332135" />
    <polyline points="618,450.60115916033919 632,450.60115916033919 639,462.72551481332135" />
    <polyline points="632,450.60115916033919 639,438.47680350735703 653,438.47680350735703" />
    <line x1="653" y1="462.72551481332135" x2="660" y2="450.60115916033919" />
    <polyline points="681,462.72551481332135 674,450.60115916033919 681,438.47680350735703" />
    <polyline points="695,438.47680350735703 702,450.60115916033919 695,462.72551481332135" />
    <polyline points="9,486.97422611928562 2,474.84987046630346 9,462.7255148133213" />
    <line x1="23" y1="486.97422611928562" x2="30" y2="474.84987046630346" />
    <line x1="44" y1="474.84987046630346" x2="51" y2="486.97422611928562" />
    <polyline points="51,462.7255148133213 65,462.7255148133213 72,474.84987046630346 86,474.84987046630346 93,486.97422611928562" />
    <polyline points="107,462.7255148133213 114,474.84987046630346 107,486.97422611928562" />
    <line x1="128" y1="474.84987046630346" x2="135" y2="486.97422611928562" />
    <polyline points="135,462.7255148133213 149,462.7255148133213 156,474.84987046630346 170,474.84987046630346 177,486.97422611928562" />
    <polyline points="170,474.84987046630346 177,462.7255148133213 191,462.7255148133213 198,474.84987046630346 191,486.97422611928562" />
    <polyline points="219,486.97422611928562 212,474.84987046630346 219,462.7255148133213 233,462.7255148133213" />
    <polyline points="233,486.97422611928562 240,474.84987046630346 254,474.84987046630346 261,486.97422611928562" />
    <polyline points="254,474.84987046630346 261,462.7255148133213 275,462.7255148133213" />
    <polyline points="275,486.97422611928562 282,474.84987046630346 296,474.84987046630346 303,462.7255148133213" />
    <polyline points="317,462.7255148133213 324,474.84987046630346 317,486.97422611928562" />
    <line x1="324" y1="474.84987046630346" x2="338" y2="474.84987046630346" />
    <polyline points="345,462.7255148133213 359,462.7255148133213 366,474.84987046630346 359,486.97422611928562" />
    <polyline points="366,474.84987046630346 380,474.84987046630346 387,462.7255148133213 401,462.7255148133213 408,474.84987046630346 422,474.84987046630346 429,486.97422611928562" />
    <polyline points="429,462.7255148133213 443,462.7255148133213 450,474.84987046630346 443,486.97422611928562" />
    <polyline points="464,474.84987046630346 471,462.7255148133213 485,462.7255148133213 492,474.84987046630346 485,486.97422611928562" />
    <polyline points="506,474.84987046630346 513,462.7255148133213 527,462.7255148133213 534,474.84987046630346 548,474.84987046630346 555,486.97422611928562" />
    <polyline points="569,462.7255148133213 576,474.84987046630346 569,486.97422611928562" />
    <line x1="590" y1="474.84987046630346" x2="597" y2="486.97422611928562" />
    <line x1="597" y1="462.7255148133213" x2="611" y2="462.7255148133213" />
    <line x1="611" y1="486.97422611928562" x2="618" y2="474.84987046630346" />
    <line x1="632" y1="474.84987046630346" x2="639" y2="462.7255148133213" />
    <polyline points="653,462.7255148133213 660,474.84987046630346 674,474.84987046630346 681,486.97422611928562" />
    <line x1="674" y1="474.84987046630346" x2="681" y2="462.7255148133213" />
    <polyline points="695,462.7255148133213 702,474.84987046630346 695,486.97422611928562" />
    <polyline points="9,511.22293742524988 2,499.09858177226772 9,486.97422611928556 23,486.97422611928556" />
    <polyline points="23,511.22293742524988 30,499.09858177226772 44,499.09858177226772 51,486.97422611928556 65,486.97422611928556 72,499.09858177226772 86,499.09858177226772 93,511.22293742524988" />
    <polyline points="93,486.97422611928556 107,486.97422611928556 114,499.09858177226772 107,511.22293742524988" />
    <polyline points="128,499.09858177226772 135,486.97422611928556 149,486.97422611928556 156,499.09858177226772 149,511.22293742524988" />
    <polyline points="177,511.22293742524988 170,499.09858177226772 177,486.97422611928556" />
    <polyline points="198,499.09858177226772 212,499.09858177226772 219,511.22293742524988" />
    <polyline points="212,499.09858177226772 219,486.97422611928556 233,486.97422611928556" />
    <line x1="233" y1="511.22293742524988" x2="240" y2="499.09858177226772" />
    <polyline points="261,511.22293742524988 254,499.09858177226772 261,486.97422611928556 275,486.97422611928556 282,499.09858177226772 296,499.09858177226772 303,511.22293742524988" />
    <line x1="303" y1="486.97422611928556" x2="317" y2="486.97422611928556" />
    <polyline points="317,511.22293742524988 324,499.09858177226772 338,499.09858177226772" />
    <polyline points="345,486.97422611928556 359,486.97422611928556 366,499.09858177226772 359,511.22293742524988" />
    <polyline points="387,511.22293742524988 380,499.09858177226772 387,486.97422611928556 401,486.97422611928556 408,499.09858177226772 422,499.09858177226772" />
    <polyline points="429,486.97422611928556 443,486.97422611928556 450,499.09858177226772 443,511.22293742524988" />
    <polyline points="450,499.09858177226772 464,499.09858177226772 471,486.97422611928556" />
    <polyline points="485,486.97422611928556 492,499.09858177226772 485,511.22293742524988" />
    <polyline points="492,499.09858177226772 506,499.09858177226772 513,486.97422611928556 527,486.97422611928556 534,499.09858177226772 527,511.22293742524988" />
    <line x1="548" y1="499.09858177226772" x2="555" y2="486.97422611928556" />
    <polyline points="569,486.97422611928556 576,499.09858177226772 569,511.22293742524988" />
    <polyline points="590,499.09858177226772 597,486.97422611928556 611,486.97422611928556 618,499.09858177226772 611,511.22293742524988" />
    <polyline points="639,511.22293742524988 632,499.09858177226772 639,486.97422611928556 653,486.97422611928556 660,499.09858177226772 674,499.09858177226772 681,511.22293742524988" />
    <line x1="674" y1="499.09858177226772" x2="681" y2="486.97422611928556" />
    <polyline points="695,486.97422611928556 702,499.09858177226772 695,511.22293742524988" />
    <polyline points="9,535.47164873121415 2,523.347293078232 9,511.22293742524988" />
    <polyline points="23,511.22293742524988 30,523.347293078232 44,523.347293078232 51,535.47164873121415" />
    <polyline points="51,511.22293742524988 65,511.22293742524988 72,523.347293078232 86,523.347293078232 93,511.22293742524988" />
    <polyline points="107,511.22293742524988 114,523.347293078232 107,535.47164873121415" />
    <polyline points="135,535.47164873121415 128,523.347293078232 135,511.22293742524988 149,511.22293742524988" />
    <polyline points="156,523.347293078232 170,523.347293078232 177,511.22293742524988 191,511.22293742524988" />
    <polyline points="191,535.47164873121415 198,523.347293078232 212,523.347293078232 219,535.47164873121415" />
    <polyline points="233,511.22293742524988 240,523.347293078232 233,535.47164873121415" />
    <polyline points="261,535.47164873121415 254,523.347293078232 261,511.22293742524988" />
    <polyline points="275,511.22293742524988 282,523.347293078232 296,523.347293078232 303,535.47164873121415" />
    <polyline points="303,511.22293742524988 317,511.22293742524988 324,523.347293078232 317,535.47164873121415" />
    <polyline points="324,523.347293078232 338,523.347293078232 345,535.47164873121415" />
    <polyline points="338,523.347293078232 345,511.22293742524988 359,511.22293742524988" />
    <polyline points="359,535.47164873121415 366,523.347293078232 380,523.347293078232 387,511.22293742524988" />
    <polyline points="401,511.22293742524988 408,523.347293078232 401,535.47164873121415" />
    <polyline points="408,523.347293078232 422,523.347293078232 429,511.22293742524988 443,511.22293742524988 450,523.347293078232 464,523.347293078232 471,535.47164873121415" />
    <polyline points="471,511.22293742524988 485,511.22293742524988 492,523.347293078232 485,535.47164873121415" />
    <line x1="506" y1="523.347293078232" x2="513" y2="535.47164873121415" />
    <polyline points="513,511.22293742524988 527,511.22293742524988 534,523.347293078232 548,523.347293078232 555,535.47164873121415" />
    <polyline points="548,523.347293078232 555,511.22293742524988 569,511.22293742524988" />
    <polyline points="576,523.347293078232 590,523.347293078232 597,511.22293742524988 611,511.22293742524988 618,523.347293078232 611,535.47164873121415" />
    <polyline points="639,535.47164873121415 632,523.347293078232 639,511.22293742524988" />
    <polyline points="653,511.22293742524988 660,523.347293078232 653,535.47164873121415" />
    <polyline points="681,535.47164873121415 674,523.347293078232 681,511.22293742524988" />
    <polyline points="695,511.22293742524988 702,523.347293078232 695,535.47164873121415" />
    <polyline points="9,559.72036003717835 2,547.59600438419625 9,535.47164873121415 23,535.47164873121415 30,547.59600438419625 44,547.59600438419625 51,559.72036003717835" />
    <polyline points="51,535.47164873121415 65,535.47164873121415 72,547.59600438419625 65,559.72036003717835" />
    <polyline points="72,547.59600438419625 86,547.59600438419625 93,559.72036003717835" />
    <polyline points="86,547.59600438419625 93,535.47164873121415 107,535.47164873121415" />
    <polyline points="114,547.59600438419625 128,547.59600438419625 135,559.72036003717835" />
    <polyline points="128,547.59600438419625 135,535.47164873121415 149,535.47164873121415 156,547.59600438419625 170,547.59600438419625 177,559.72036003717835" />
    <polyline points="170,547.59600438419625 177,535.47164873121415 191,535.47164873121415" />
    <polyline points="191,559.72036003717835 198,547.59600438419625 212,547.59600438419625 219,559.72036003717835" />
    <line x1="219" y1="535.47164873121415" x2="233" y2="535.47164873121415" />
    <line x1="233" y1="559.72036003717835" x2="240" y2="547.59600438419625" />
    <polyline points="261,559.72036003717835 254,547.59600438419625 261,535.47164873121415 275,535.47164873121415" />
    <polyline points="275,559.72036003717835 282,547.59600438419625 296,547.59600438419625 303,559.72036003717835" />
    <line x1="296" y1="547.59600438419625" x2="303" y2="535.47164873121415" />
    <polyline points="317,535.47164873121415 324,547.59600438419625 317,559.72036003717835" />
    <line x1="338" y1="547.59600438419625" x2="345" y2="559.72036003717835" />
    <polyline points="359,535.47164873121415 366,547.59600438419625 359,559.72036003717835" />
    <polyline points="380,547.59600438419625 387,535.47164873121415 401,535.47164873121415" />
    <polyline points="401,559.72036003717835 408,547.59600438419625 422,547.59600438419625 429,559.72036003717835" />
    <polyline points="422,547.59600438419625 429,535.47164873121415 443,535.47164873121415 450,547.59600438419625 443,559.72036003717835" />
    <polyline points="450,547.59600438419625 464,547.59600438419625 471,559.72036003717835" />
    <polyline points="485,535.47164873121415 492,547.59600438419625 485,559.72036003717835" />
    <polyline points="492,547.59600438419625 506,547.59600438419625 513,559.72036003717835" />
    <polyline points="513,535.47164873121415 527,535.47164873121415 534,547.59600438419625 527,559.72036003717835" />
    <line x1="534" y1="547.59600438419625" x2="548" y2="547.59600438419625" />
    <polyline points="555,535.47164873121415 569,535.47164873121415 576,547.59600438419625 590,547.59600438419625 597,559.72036003717835" />
    <polyline points="590,547.59600438419625 597,535.47164873121415 611,535.47164873121415 618,547.59600438419625 632,547.59600438419625 639,559.72036003717835" />
    <polyline points="639,535.47164873121415 653,535.47164873121415 660,547.59600438419625 674,547.59600438419625 681,559.72036003717835" />
    <polyline points="681,535.47164873121415 695,535.47164873121415 702,547.59600438419625 695,559.72036003717835" />
    <polyline points="9,583.96907134314279 2,571.84471569016068 9,559.72036003717858 23,559.72036003717858" />
    <polyline points="23,583.96907134314279 30,571.84471569016068 44,571.84471569016068 51,559.72036003717858" />
    <polyline points="65,559.72036003717858 72,571.84471569016068 65,583.96907134314279" />
    <line x1="72" y1="571.84471569016068" x2="86" y2="571.84471569016068" />
    <polyline points="93,559.72036003717858 107,559.72036003717858 114,571.84471569016068 128,571.84471569016068 135,583.96907134314279" />
    <polyline points="135,559.72036003717858 149,559.72036003717858 156,571.84471569016068 149,583.96907134314279" />
    <polyline points="177,583.96907134314279 170,571.84471569016068 177,559.72036003717858" />
    <line x1="191" y1="583.96907134314279" x2="198" y2="571.84471569016068" />
    <polyline points="212,571.84471569016068 219,559.72036003717858 233,559.72036003717858 240,571.84471569016068 233,583.96907134314279" />
    <polyline points="240,571.84471569016068 254,571.84471569016068 261,559.72036003717858" />
    <polyline points="275,559.72036003717858 282,571.84471569016068 275,583.96907134314279" />
    <polyline points="282,571.84471569016068 296,571.84471569016068 303,583.96907134314279" />
    <polyline points="317,559.72036003717858 324,571.84471569016068 338,571.84471569016068" />
    <polyline points="345,559.72036003717858 359,559.72036003717858 366,571.84471569016068 359,583.96907134314279" />
    <polyline points="366,571.84471569016068 380,571.84471569016068 387,583.96907134314279" />
    <polyline points="380,571.84471569016068 387,559.72036003717858 401,559.72036003717858" />
    <polyline points="401,583.96907134314279 408,571.84471569016068 422,571.84471569016068 429,583.96907134314279" />
    <polyline points="443,559.72036003717858 450,571.84471569016068 464,571.84471569016068" />
    <polyline points="471,559.72036003717858 485,559.72036003717858 492,571.84471569016068 485,583.96907134314279" />
    <line x1="506" y1="571.84471569016068" x2="513" y2="583.96907134314279" />
    <line x1="513" y1="559.72036003717858" x2="527" y2="559.72036003717858" />
    <polyline points="527,583.96907134314279 534,571.84471569016068 548,571.84471569016068 555,559.72036003717858 569,559.72036003717858 576,571.84471569016068 569,583.96907134314279" />
    <line x1="576" y1="571.84471569016068" x2="590" y2="571.84471569016068" />
    <polyline points="611,559.72036003717858 618,571.84471569016068 611,583.96907134314279" />
    <polyline points="632,571.84471569016068 639,559.72036003717858 653,559.72036003717858 660,571.84471569016068 653,583.96907134314279" />
    <polyline points="681,583.96907134314279 674,571.84471569016068 681,559.72036003717858" />
    <polyline points="695,559.72036003717858 702,571.84471569016068 695,583.96907134314279" />
    <polyline points="9,608.217782649107 2,596.09342699612489 9,583.96907134314279" />
    <polyline points="30,596.09342699612489 44,596.09342699612489 51,583.96907134314279 65,583.96907134314279" />
    <polyline points="72,596.09342699612489 86,596.09342699612489 93,608.217782649107" />
    <polyline points="86,596.09342699612489 93,583.96907134314279 107,583.96907134314279" />
    <polyline points="114,596.09342699612489 128,596.09342699612489 135,583.96907134314279" />
    <polyline points="149,608.217782649107 156,596.09342699612489 170,596.09342699612489 177,583.96907134314279 191,583.96907134314279 198,596.09342699612489 212,596.09342699612489 219,608.217782649107" />
    <line x1="212" y1="596.09342699612489" x2="219" y2="583.96907134314279" />
    <polyline points="233,583.96907134314279 240,596.09342699612489 254,596.09342699612489 261,608.217782649107" />
    <polyline points="261,583.96907134314279 275,583.96907134314279 282,596.09342699612489 296,596.09342699612489 303,608.217782649107" />
    <polyline points="303,583.96907134314279 317,583.96907134314279 324,596.09342699612489 338,596.09342699612489 345,608.217782649107" />
    <polyline points="338,596.09342699612489 345,583.96907134314279 359,583.96907134314279" />
    <polyline points="359,608.217782649107 366,596.09342699612489 380,596.09342699612489 387,608.217782649107" />
    <line x1="401" y1="608.217782649107" x2="408" y2="596.09342699612489" />
    <polyline points="422,596.09342699612489 429,583.96907134314279 443,583.96907134314279 450,596.09342699612489 464,596.09342699612489 471,583.96907134314279 485,583.96907134314279 492,596.09342699612489 485,608.217782649107" />
    <polyline points="513,608.217782649107 506,596.09342699612489 513,583.96907134314279 527,583.96907134314279 534,596.09342699612489 527,608.217782649107" />
    <polyline points="555,608.217782649107 548,596.09342699612489 555,583.96907134314279" />
    <polyline points="569,583.96907134314279 576,596.09342699612489 590,596.09342699612489 597,608.217782649107" />
    <polyline points="597,583.96907134314279 611,583.96907134314279 618,596.09342699612489 611,608.217782649107" />
    <line x1="618" y1="596.09342699612489" x2="632" y2="596.09342699612489" />
    <polyline points="639,583.96907134314279 653,583.96907134314279 660,596.09342699612489" />
    <line x1="674" y1="596.09342699612489" x2="681" y2="583.96907134314279" />
    <polyline points="695,583.96907134314279 702,596.09342699612489 695,608.217782649107" />
    <polyline points="9,608.217782649107 23,608.217782649107 30,620.3421383020891 44,620.3421383020891 51,632.4664939550712" />
    <polyline points="51,608.217782649107 65,608.217782649107 72,620.3421383020891 86,620.3421383020891 93,632.4664939550712" />
    <polyline points="86,620.3421383020891 93,608.217782649107 107,608.217782649107 114,620.3421383020891 128,620.3421383020891 135,632.4664939550712" />
    <polyline points="135,608.217782649107 149,608.217782649107 156,620.3421383020891 170,620.3421383020891 177,632.4664939550712" />
    <polyline points="170,620.3421383020891 177,608.217782649107 191,608.217782649107" />
    <polyline points="191,632.4664939550712 198,620.3421383020891 212,620.3421383020891 219,608.217782649107 233,608.217782649107 240,620.3421383020891 254,620.3421383020891 261,632.4664939550712" />
    <polyline points="254,620.3421383020891 261,608.217782649107 275,608.217782649107" />
    <polyline points="282,620.3421383020891 296,620.3421383020891 303,632.4664939550712" />
    <polyline points="303,608.217782649107 317,608.217782649107 324,620.3421383020891 317,632.4664939550712" />
    <polyline points="345,632.4664939550712 338,620.3421383020891 345,608.217782649107" />
    <polyline points="359,632.4664939550712 366,620.3421383020891 380,620.3421383020891 387,632.4664939550712" />
    <polyline points="387,608.217782649107 401,608.217782649107 408,620.3421383020891 401,632.4664939550712" />
    <polyline points="408,620.3421383020891 422,620.3421383020891 429,608.217782649107" />
    <polyline points="443,608.217782649107 450,620.3421383020891 443,632.4664939550712" />
    <polyline points="450,620.3421383020891 464,620.3421383020891 471,608.217782649107 485,608.217782649107" />
    <polyline points="485,632.4664939550712 492,620.3421383020891 506,620.3421383020891 513,632.4664939550712" />
    <line x1="506" y1="620.3421383020891" x2="513" y2="608.217782649107" />
    <polyline points="527,632.4664939550712 534,620.3421383020891 548,620.3421383020891 555,632.4664939550712" />
    <polyline points="548,620.3421383020891 555,608.217782649107 569,608.217782649107" />
    <polyline points="576,620.3421383020891 590,620.3421383020891 597,608.217782649107" />
    <polyline points="611,608.217782649107 618,620.3421383020891 611,632.4664939550712" />
    <polyline points="632,620.3421383020891 639,608.217782649107 653,608.217782649107 660,620.3421383020891 653,632.4664939550712" />
    <polyline points="660,620.3421383020891 674,620.3421383020891 681,608.217782649107 695,608.217782649107" />
    <polyline points="51,632.46649395507143 65,632.46649395507143 72,644.59084960805353 86,644.59084960805353 93,656.71520526103563" />
    <polyline points="93,632.46649395507143 107,632.46649395507143 114,644.59084960805353 128,644.59084960805353 135,656.71520526103563" />
    <line x1="135" y1="632.46649395507143" x2="149" y2="632.46649395507143" />
    <polyline points="149,656.71520526103563 156,644.59084960805353 170,644.59084960805353" />
    <polyline points="191,632.46649395507143 198,644.59084960805353 191,656.71520526103563" />
    <polyline points="219,656.71520526103563 212,644.59084960805353 219,632.46649395507143 233,632.46649395507143" />
    <polyline points="233,656.71520526103563 240,644.59084960805353 254,644.59084960805353 261,632.46649395507143" />
    <polyline points="275,632.46649395507143 282,644.59084960805353 275,656.71520526103563" />
    <polyline points="303,656.71520526103563 296,644.59084960805353 303,632.46649395507143 317,632.46649395507143" />
    <polyline points="317,656.71520526103563 324,644.59084960805353 338,644.59084960805353 345,656.71520526103563" />
    <polyline points="338,644.59084960805353 345,632.46649395507143 359,632.46649395507143" />
    <polyline points="366,644.59084960805353 380,644.59084960805353 387,656.71520526103563" />
    <line x1="387" y1="632.46649395507143" x2="401" y2="632.46649395507143" />
    <polyline points="401,656.71520526103563 408,644.59084960805353 422,644.59084960805353 429,656.71520526103563" />
    <line x1="429" y1="632.46649395507143" x2="443" y2="632.46649395507143" />
    <polyline points="443,656.71520526103563 450,644.59084960805353 464,644.59084960805353 471,656.71520526103563" />
    <polyline points="464,644.59084960805353 471,632.46649395507143 485,632.46649395507143" />
    <polyline points="492,644.59084960805353 506,644.59084960805353 513,656.71520526103563" />
    <line x1="513" y1="632.46649395507143" x2="527" y2="632.46649395507143" />
    <polyline points="527,656.71520526103563 534,644.59084960805353 548,644.59084960805353 555,656.71520526103563" />
    <line x1="555" y1="632.46649395507143" x2="569" y2="632.46649395507143" />
    <polyline points="569,656.71520526103563 576,644.59084960805353 590,644.59084960805353 597,632.46649395507143 611,632.46649395507143 618,644.59084960805353 611,656.71520526103563" />
    <polyline points="618,644.59084960805353 632,644.59084960805353 639,632.46649395507143 653,632.46649395507143" />
    <polyline points="93,656.71520526103563 107,656.71520526103563 114,668.83956091401774 128,668.83956091401774 135,680.96391656699984" />
    <polyline points="135,656.71520526103563 149,656.71520526103563 156,668.83956091401774 149,680.96391656699984" />
    <polyline points="170,668.83956091401774 177,656.71520526103563 191,656.71520526103563 198,668.83956091401774 191,680.96391656699984" />
    <polyline points="198,668.83956091401774 212,668.83956091401774 219,680.96391656699984" />
    <polyline points="219,656.71520526103563 233,656.71520526103563 240,668.83956091401774 233,680.96391656699984" />
    <polyline points="240,668.83956091401774 254,668.83956091401774 261,680.96391656699984" />
    <polyline points="261,656.71520526103563 275,656.71520526103563 282,668.83956091401774 296,668.83956091401774 303,656.71520526103563" />
    <polyline points="317,656.71520526103563 324,668.83956091401774 317,680.96391656699984" />
    <polyline points="345,680.96391656699984 338,668.83956091401774 345,656.71520526103563 359,656.71520526103563" />
    <polyline points="359,680.96391656699984 366,668.83956091401774 380,668.83956091401774 387,680.96391656699984" />
    <polyline points="380,668.83956091401774 387,656.71520526103563 401,656.71520526103563" />
    <line x1="401" y1="680.96391656699984" x2="408" y2="668.83956091401774" />
    <polyline points="429,680.96391656699984 422,668.83956091401774 429,656.71520526103563 443,656.71520526103563" />
    <line x1="443" y1="680.96391656699984" x2="450" y2="668.83956091401774" />
    <polyline points="464,668.83956091401774 471,656.71520526103563 485,656.71520526103563 492,668.83956091401774 506,668.83956091401774 513,680.96391656699984" />
    <polyline points="513,656.71520526103563 527,656.71520526103563 534,668.83956091401774 527,680.96391656699984" />
    <line x1="548" y1="668.83956091401774" x2="555" y2="680.96391656699984" />
    <line x1="555" y1="656.71520526103563" x2="569" y2="656.71520526103563" />
    <polyline points="569,680.96391656699984 576,668.83956091401774 590,668.83956091401774 597,656.71520526103563 611,656.71520526103563" />
    <polyline points="135,680.96391656699984 149,680.96391656699984 156,693.088272219982 170,693.088272219982 177,705.212627872964" />
    <polyline points="177,680.96391656699984 191,680.96391656699984 198,693.088272219982" />
    <line x1="212" y1="693.088272219982" x2="219" y2="705.212627872964" />
    <polyline points="233,680.96391656699984 240,693.088272219982 233,705.212627872964" />
    <line x1="254" y1="693.088272219982" x2="261" y2="705.212627872964" />
    <polyline points="261,680.96391656699984 275,680.96391656699984 282,693.088272219982 296,693.088272219982 303,705.212627872964" />
    <polyline points="303,680.96391656699984 317,680.96391656699984 324,693.088272219982 317,705.212627872964" />
    <polyline points="345,705.212627872964 338,693.088272219982 345,680.96391656699984" />
    <polyline points="359,680.96391656699984 366,693.088272219982 380,693.088272219982 387,705.212627872964" />
    <polyline points="401,680.96391656699984 408,693.088272219982 401,705.212627872964" />
    <polyline points="429,705.212627872964 422,693.088272219982 429,680.96391656699984 443,680.96391656699984 450,693.088272219982 464,693.088272219982 471,680.96391656699984 485,680.96391656699984 492,693.088272219982 485,705.212627872964" />
    <line x1="506" y1="693.088272219982" x2="513" y2="680.96391656699984" />
    <polyline points="527,705.212627872964 534,693.088272219982 548,693.088272219982 555,680.96391656699984 569,680.96391656699984" />
    <polyline points="177,705.21262787296428 191,705.21262787296428 198,717.33698352594638 212,717.33698352594638 219,729.46133917892848" />
    <line x1="212" y1="717.33698352594638" x2="219" y2="705.21262787296428" />
    <polyline points="233,705.21262787296428 240,717.33698352594638 233,729.46133917892848" />
    <polyline points="254,717.33698352594638 261,705.21262787296428 275,705.21262787296428 282,717.33698352594638 296,717.33698352594638 303,729.46133917892848" />
    <polyline points="317,705.21262787296428 324,717.33698352594638 317,729.46133917892848" />
    <polyline points="324,717.33698352594638 338,717.33698352594638 345,729.46133917892848" />
    <polyline points="345,705.21262787296428 359,705.21262787296428 366,717.33698352594638" />
    <polyline points="387,729.46133917892848 380,717.33698352594638 387,705.21262787296428 401,705.21262787296428 408,717.33698352594638 401,729.46133917892848" />
    <line x1="422" y1="717.33698352594638" x2="429" y2="705.21262787296428" />
    <polyline points="443,705.21262787296428 450,717.33698352594638 443,729.46133917892848" />
    <polyline points="450,717.33698352594638 464,717.33698352594638 471,705.21262787296428" />
    <polyline points="485,705.21262787296428 492,717.33698352594638 485,729.46133917892848" />
    <polyline points="492,717.33698352594638 506,717.33698352594638 513,705.21262787296428 527,705.21262787296428" />
    <polyline points="219,729.46133917892848 233,729.46133917892848 240,741.58569483191059 254,741.58569483191059 261,753.71005048489269" />
    <polyline points="254,741.58569483191059 261,729.46133917892848 275,729.46133917892848" />
    <polyline points="282,741.58569483191059 296,741.58569483191059 303,729.46133917892848 317,729.46133917892848" />
    <polyline points="317,753.71005048489269 324,741.58569483191059 338,741.58569483191059 345,753.71005048489269" />
    <polyline points="345,729.46133917892848 359,729.46133917892848 366,741.58569483191059 359,753.71005048489269" />
    <line x1="366" y1="741.58569483191059" x2="380" y2="741.58569483191059" />
    <polyline points="401,729.46133917892848 408,741.58569483191059 401,753.71005048489269" />
    <polyline points="408,741.58569483191059 422,741.58569483191059 429,729.46133917892848 443,729.46133917892848" />
    <polyline points="443,753.71005048489269 450,741.58569483191059 464,741.58569483191059 471,729.46133917892848 485,729.46133917892848" />
    <polyline points="261,753.71005048489269 275,753.71005048489269 282,765.83440613787479 296,765.83440613787479 303,777.9587617908569" />
    <polyline points="303,753.71005048489269 317,753.71005048489269 324,765.83440613787479" />
    <polyline points="345,777.9587617908569 338,765.83440613787479 345,753.71005048489269" />
    <polyline points="359,753.71005048489269 366,765.83440613787479 359,777.9587617908569" />
    <line x1="380" y1="765.83440613787479" x2="387" y2="777.9587617908569" />
    <line x1="387" y1="753.71005048489269" x2="401" y2="753.71005048489269" />
    <polyline points="401,777.9587617908569 408,765.83440613787479 422,765.83440613787479 429,753.71005048489269 443,753.71005048489269" />
    <polyline points="303,777.95876179085712 317,777.95876179085712 324,790.08311744383923 338,790.08311744383923 345,802.20747309682133" />
    <line x1="338" y1="790.08311744383923" x2="345" y2="777.95876179085712" />
    <polyline points="359,777.95876179085712 366,790.08311744383923 359,802.20747309682133" />
    <polyline points="366,790.08311744383923 380,790.08311744383923 387,777.95876179085712 401,777.95876179085712" />
  </g>
  <polyline fill="none" stroke="#ff0000" stroke-width="2" stroke-linecap="square" stroke-linejoin="round" points="352,1.9999999999999822 352,14.124355652982123 289,50.497422611928542 310,62.621778264910681 289,74.74613391789282 289,98.994845223857112 268,86.870489570874966 268,62.621778264910681 226,86.870489570874966 247,98.994845223857112 247,123.24355652982139 205,98.994845223857112 205,123.24355652982139 184,111.11920087683924 163,123.24355652982139 184,135.36791218280354 163,147.49226783578567 142,135.36791218280354 142,183.86533479473209 121,171.74097914174996 121,195.98969044771422 163,220.23840175367852 163,171.74097914174996 184,183.86533479473209 184,159.61662348876783 205,171.74097914174996 205,195.98969044771422 184,208.11404610069639 226,232.36275740666068 226,183.86533479473209 247,195.98969044771422 247,147.49226783578567 268,159.61662348876783 289,147.49226783578567 289,195.98969044771422 331,220.23840175367852 352,208.11404610069639 352,232.36275740666068 394,256.61146871262491 394,232.36275740666068 415,220.23840175367852 415,147.49226783578567 436,135.36791218280354 436,159.61662348876783 457,171.74097914174996 457,147.49226783578567 478,135.36791218280354 478,111.11920087683924 541,147.49226783578567 541,123.24355652982139 583,147.49226783578567 541,171.74097914174996 562,183.86533479473209 562,208.11404610069639 583,220.23840175367852 604,208.11404610069639 604,183.86533479473209 625,195.98969044771422 646,183.86533479473209 646,208.11404610069639 667,220.23840175367852 667,195.98969044771422 688,208.11404610069639 688,232.36275740666068 646,256.61146871262491 646,280.86018001858918 667,268.73582436560707 667,292.98453567157134 646,305.1088913245535 646,329.35760263051776 562,377.85502524244635 499,341.48195828349992 520,329.35760263051776 499,317.23324697753566 499,292.98453567157134 457,317.23324697753566 457,341.48195828349992 478,353.606313936482 457,365.73066958946418 415,341.48195828349992 436,329.35760263051776 436,305.1088913245535 415,317.23324697753566 394,305.1088913245535 394,329.35760263051776 352,305.1088913245535 331,317.23324697753566 373,341.48195828349992 373,365.73066958946418 394,353.606313936482 415,365.73066958946418 415,389.97938089542851 436,377.85502524244635 457,389.97938089542851 415,414.22809220139277 394,402.10373654841061 352,426.35244785437487 352,402.10373654841061 331,414.22809220139277 331,438.47680350735703 373,462.72551481332135 373,438.47680350735703 394,450.60115916033919 436,426.35244785437487 436,450.60115916033919 457,462.72551481332135 457,486.97422611928562 478,474.84987046630346 478,499.09858177226772 457,511.22293742524988 478,523.347293078232 478,547.59600438419625 436,523.347293078232 373,559.72036003717835 373,535.47164873121415 394,523.347293078232 394,499.09858177226772 415,511.22293742524988 436,499.09858177226772 394,474.84987046630346 373,486.97422611928562 373,511.22293742524988 352,523.347293078232 352,547.59600438419625 331,535.47164873121415 331,559.72036003717835 352,571.84471569016068 331,583.96907134314279 310,571.84471569016068 310,523.347293078232 268,499.09858177226772 268,523.347293078232 289,535.47164873121415 268,547.59600438419625 268,571.84471569016068 247,583.96907134314279 289,608.217782649107 268,620.3421383020891 268,644.59084960805353 247,656.71520526103563 310,693.088272219982 310,717.33698352594638 247,680.96391656699984 247,729.46133917892848 268,717.33698352594638 289,729.46133917892848 268,741.58569483191059 289,753.71005048489269 331,729.46133917892848 352,741.58569483191059 352,802.20747309682133" />
  <type>Hexagonal</type>
</svg>