<?xml version="1.0" encoding="utf-8" standalone="no"?>
<!DOCTYPE svg PUBLIC "-//W3C//DTD SVG 1.1//EN" "http://www.w3.org/Graphics/SVG/1.1/DTD/svg11.dtd"[]>
<svg width="452" height="670.83956091401774" version="1.1" xmlns="http://www.w3.org/2000/svg">
  <title>21 by 27 sigma maze</title>
  <g fill="none" stroke="#000000" stroke-width="2" stroke-linecap="round" stroke-linejoin="round">
    <polyline points="9,38.3730669589464 2,26.248711305964264 9,14.124355652982123 23,14.124355652982123 30,1.9999999999999822 44,1.9999999999999822 51,14.124355652982123 44,26.248711305964264" />
    <polyline points="51,14.124355652982123 65,14.124355652982123 72,26.248711305964264" />
    <polyline points="65,14.124355652982123 72,1.9999999999999822 86,1.9999999999999822 93,14.124355652982123 86,26.248711305964264" />
    <polyline points="93,14.124355652982123 107,14.124355652982123 114,26.248711305964264" />
    <polyline points="107,14.124355652982123 114,1.9999999999999822 128,1.9999999999999822 135,14.124355652982123 149,14.124355652982123 156,1.9999999999999822 170,1.9999999999999822 177,14.124355652982123 170,26.248711305964264" />
    <polyline points="177,14.124355652982123 191,14.124355652982123 198,1.9999999999999822 212,1.9999999999999822 219,14.124355652982123 212,26.248711305964264" />
    <polyline points="233,14.124355652982123 240,1.9999999999999822 254,1.9999999999999822 261,14.124355652982123 254,26.248711305964264" />
    <polyline points="261,14.124355652982123 275,14.124355652982123 282,26.248711305964264" />
    <polyline points="275,14.124355652982123 282,1.9999999999999822 296,1.9999999999999822 303,14.124355652982123 317,14.124355652982123 324,1.9999999999999822 338,1.9999999999999822 345,14.124355652982123 338,26.248711305964264" />
    <polyline points="345,14.124355652982123 359,14.124355652982123 366,1.9999999999999822 380,1.9999999999999822 387,14.124355652982123 380,26.248711305964264" />
    <polyline points="387,14.124355652982123 401,14.124355652982123 408,26.248711305964264" />
    <polyline points="401,14.124355652982123 408,1.9999999999999822 422,1.9999999999999822 429,14.124355652982123 443,14.124355652982123 450,26.248711305964264 443,38.3730669589464" />
    <polyline points="9,62.621778264910681 2,50.497422611928542 9,38.3730669589464 23,38.3730669589464 30,50.497422611928542" />
    <polyline points="30,26.248711305964264 44,26.248711305964264 51,38.3730669589464" />
    <line x1="65" y1="38.3730669589464" x2="72" y2="50.497422611928542" />
    <polyline points="86,26.248711305964264 93,38.3730669589464 86,50.497422611928542" />
    <polyline points="114,50.497422611928542 107,38.3730669589464 114,26.248711305964264 128,26.248711305964264" />
    <polyline points="135,38.3730669589464 149,38.3730669589464 156,26.248711305964264 170,26.248711305964264" />
    <line x1="170" y1="50.497422611928542" x2="177" y2="38.3730669589464" />
    <polyline points="198,50.497422611928542 191,38.3730669589464 198,26.248711305964264" />
    <polyline points="212,50.497422611928542 219,38.3730669589464 233,38.3730669589464 240,26.248711305964264 254,26.248711305964264 261,38.3730669589464 254,50.497422611928542" />
    <line x1="275" y1="38.3730669589464" x2="282" y2="50.497422611928542" />
    <polyline points="296,26.248711305964264 303,38.3730669589464 296,50.497422611928542" />
    <polyline points="317,38.3730669589464 324,26.248711305964264 338,26.248711305964264 345,38.3730669589464 338,50.497422611928542" />
    <polyline points="366,50.497422611928542 359,38.3730669589464 366,26.248711305964264 380,26.248711305964264" />
    <line x1="380" y1="50.497422611928542" x2="387" y2="38.3730669589464" />
    <polyline points="408,50.497422611928542 401,38.3730669589464 408,26.248711305964264 422,26.248711305964264" />
    <line x1="422" y1="50.497422611928542" x2="429" y2="38.3730669589464" />
    <polyline points="443,38.3730669589464 450,50.497422611928542 443,62.621778264910681" />
    <polyline points="9,86.870489570874966 2,74.74613391789282 9,62.621778264910681 23,62.621778264910681" />
    <polyline points="30,50.497422611928542 44,50.497422611928542 51,62.621778264910681 44,74.74613391789282" />
    <polyline points="72,74.74613391789282 65,62.621778264910681 72,50.497422611928542 86,50.497422611928542" />
    <polyline points="86,74.74613391789282 93,62.621778264910681 107,62.621778264910681 114,74.74613391789282" />
    <polyline points="107,62.621778264910681 114,50.497422611928542 128,50.497422611928542 135,62.621778264910681 149,62.621778264910681 156,74.74613391789282" />
    <line x1="149" y1="62.621778264910681" x2="156" y2="50.497422611928542" />
    <polyline points="170,50.497422611928542 177,62.621778264910681 170,74.74613391789282" />
    <polyline points="177,62.621778264910681 191,62.621778264910681 198,50.497422611928542 212,50.497422611928542" />
    <polyline points="212,74.74613391789282 219,62.621778264910681 233,62.621778264910681 240,74.74613391789282" />
    <line x1="233" y1="62.621778264910681" x2="240" y2="50.497422611928542" />
    <polyline points="254,50.497422611928542 261,62.621778264910681 254,74.74613391789282" />
    <polyline points="282,74.74613391789282 275,62.621778264910681 282,50.497422611928542 296,50.497422611928542 303,62.621778264910681 296,74.74613391789282" />
    <polyline points="303,62.621778264910681 317,62.621778264910681 324,50.497422611928542" />
    <polyline points="338,50.497422611928542 345,62.621778264910681 338,74.74613391789282" />
    <polyline points="366,74.74613391789282 359,62.621778264910681 366,50.497422611928542" />
    <polyline points="380,50.497422611928542 387,62.621778264910681 380,74.74613391789282" />
    <line x1="387" y1="62.621778264910681" x2="401" y2="62.621778264910681" />
    <polyline points="408,50.497422611928542 422,50.497422611928542 429,62.621778264910681 422,74.74613391789282" />
    <polyline points="443,62.621778264910681 450,74.74613391789282 443,86.870489570874966" />
    <polyline points="9,111.11920087683926 2,98.994845223857112 9,86.870489570874966 23,86.870489570874966 30,98.994845223857112" />
    <line x1="30" y1="74.74613391789282" x2="44" y2="74.74613391789282" />
    <polyline points="44,98.994845223857112 51,86.870489570874966 65,86.870489570874966 72,98.994845223857112" />
    <polyline points="86,98.994845223857112 93,86.870489570874966 107,86.870489570874966 114,98.994845223857112" />
    <polyline points="128,74.74613391789282 135,86.870489570874966 128,98.994845223857112" />
    <polyline points="156,98.994845223857112 149,86.870489570874966 156,74.74613391789282" />
    <polyline points="170,98.994845223857112 177,86.870489570874966 191,86.870489570874966 198,74.74613391789282 212,74.74613391789282 219,86.870489570874966 212,98.994845223857112" />
    <polyline points="240,98.994845223857112 233,86.870489570874966 240,74.74613391789282" />
    <polyline points="254,98.994845223857112 261,86.870489570874966 275,86.870489570874966 282,74.74613391789282" />
    <polyline points="296,74.74613391789282 303,86.870489570874966 296,98.994845223857112" />
    <line x1="303" y1="86.870489570874966" x2="317" y2="86.870489570874966" />
    <polyline points="324,74.74613391789282 338,74.74613391789282 345,86.870489570874966 338,98.994845223857112" />
    <polyline points="359,86.870489570874966 366,74.74613391789282 380,74.74613391789282 387,86.870489570874966 380,98.994845223857112" />
    <polyline points="401,86.870489570874966 408,74.74613391789282 422,74.74613391789282 429,86.870489570874966 422,98.994845223857112" />
    <polyline points="443,86.870489570874966 450,98.994845223857112 443,111.11920087683926" />
    <polyline points="9,135.36791218280354 2,123.24355652982139 9,111.11920087683924" />
    <line x1="23" y1="111.11920087683924" x2="30" y2="98.9948452238571" />
    <polyline points="44,98.9948452238571 51,111.11920087683924 44,123.24355652982139" />
    <line x1="65" y1="111.11920087683924" x2="72" y2="123.24355652982139" />
    <line x1="72" y1="98.9948452238571" x2="86" y2="98.9948452238571" />
    <line x1="86" y1="123.24355652982139" x2="93" y2="111.11920087683924" />
    <polyline points="114,123.24355652982139 107,111.11920087683924 114,98.9948452238571 128,98.9948452238571" />
    <line x1="128" y1="123.24355652982139" x2="135" y2="111.11920087683924" />
    <polyline points="149,111.11920087683924 156,98.9948452238571 170,98.9948452238571 177,111.11920087683924 170,123.24355652982139" />
    <polyline points="198,123.24355652982139 191,111.11920087683924 198,98.9948452238571" />
    <polyline points="212,98.9948452238571 219,111.11920087683924 233,111.11920087683924 240,123.24355652982139" />
    <polyline points="254,98.9948452238571 261,111.11920087683924 275,111.11920087683924 282,123.24355652982139" />
    <polyline points="282,98.9948452238571 296,98.9948452238571 303,111.11920087683924 296,123.24355652982139" />
    <polyline points="324,123.24355652982139 317,111.11920087683924 324,98.9948452238571 338,98.9948452238571 345,111.11920087683924 359,111.11920087683924 366,98.9948452238571" />
    <line x1="380" y1="123.24355652982139" x2="387" y2="111.11920087683924" />
    <polyline points="408,123.24355652982139 401,111.11920087683924 408,98.9948452238571" />
    <line x1="422" y1="98.9948452238571" x2="429" y2="111.11920087683924" />
    <polyline points="443,111.11920087683924 450,123.24355652982139 443,135.36791218280354" />
    <polyline points="9,159.6166234887678 2,147.49226783578567 9,135.36791218280354" />
    <polyline points="23,135.36791218280354 30,123.24355652982139 44,123.24355652982139 51,135.36791218280354 65,135.36791218280354 72,147.49226783578567" />
    <polyline points="65,135.36791218280354 72,123.24355652982139 86,123.24355652982139 93,135.36791218280354 107,135.36791218280354 114,147.49226783578567" />
    <polyline points="114,123.24355652982139 128,123.24355652982139 135,135.36791218280354 128,147.49226783578567" />
    <polyline points="156,147.49226783578567 149,135.36791218280354 156,123.24355652982139" />
    <polyline points="170,123.24355652982139 177,135.36791218280354 170,147.49226783578567" />
    <polyline points="177,135.36791218280354 191,135.36791218280354 198,147.49226783578567" />
    <polyline points="198,123.24355652982139 212,123.24355652982139 219,135.36791218280354 212,147.49226783578567" />
    <polyline points="240,147.49226783578567 233,135.36791218280354 240,123.24355652982139 254,123.24355652982139" />
    <polyline points="261,135.36791218280354 275,135.36791218280354 282,147.49226783578567" />
    <line x1="275" y1="135.36791218280354" x2="282" y2="123.24355652982139" />
    <polyline points="296,147.49226783578567 303,135.36791218280354 317,135.36791218280354 324,147.49226783578567" />
    <polyline points="317,135.36791218280354 324,123.24355652982139 338,123.24355652982139 345,135.36791218280354 359,135.36791218280354 366,123.24355652982139 380,123.24355652982139" />
    <polyline points="387,135.36791218280354 401,135.36791218280354 408,147.49226783578567" />
    <line x1="401" y1="135.36791218280354" x2="408" y2="123.24355652982139" />
    <polyline points="422,123.24355652982139 429,135.36791218280354 422,147.49226783578567" />
    <polyline points="429,135.36791218280354 443,135.36791218280354 450,147.49226783578567 443,159.6166234887678" />
    <polyline points="9,183.86533479473209 2,171.74097914174996 9,159.61662348876783 23,159.61662348876783 30,171.74097914174996" />
    <polyline points="23,159.61662348876783 30,147.4922678357857 44,147.4922678357857" />
    <line x1="44" y1="171.74097914174996" x2="51" y2="159.61662348876783" />
    <polyline points="72,171.74097914174996 65,159.61662348876783 72,147.4922678357857 86,147.4922678357857" />
    <line x1="86" y1="171.74097914174996" x2="93" y2="159.61662348876783" />
    <polyline points="114,171.74097914174996 107,159.61662348876783 114,147.4922678357857" />
    <line x1="128" y1="147.4922678357857" x2="135" y2="159.61662348876783" />
    <polyline points="156,171.74097914174996 149,159.61662348876783 156,147.4922678357857" />
    <line x1="170" y1="171.74097914174996" x2="177" y2="159.61662348876783" />
    <polyline points="198,171.74097914174996 191,159.61662348876783 198,147.4922678357857 212,147.4922678357857 219,159.61662348876783 233,159.61662348876783 240,171.74097914174996" />
    <polyline points="240,147.4922678357857 254,147.4922678357857 261,159.61662348876783 254,171.74097914174996" />
    <polyline points="275,159.61662348876783 282,147.4922678357857 296,147.4922678357857" />
    <line x1="296" y1="171.74097914174996" x2="303" y2="159.61662348876783" />
    <line x1="317" y1="159.61662348876783" x2="324" y2="147.4922678357857" />
    <polyline points="338,147.4922678357857 345,159.61662348876783 338,171.74097914174996" />
    <polyline points="345,159.61662348876783 359,159.61662348876783 366,171.74097914174996" />
    <polyline points="366,147.4922678357857 380,147.4922678357857 387,159.61662348876783 380,171.74097914174996" />
    <polyline points="408,171.74097914174996 401,159.61662348876783 408,147.4922678357857" />
    <line x1="422" y1="147.4922678357857" x2="429" y2="159.61662348876783" />
    <polyline points="443,159.61662348876783 450,171.74097914174996 443,183.86533479473209" />
    <polyline points="9,208.11404610069636 2,195.98969044771422 9,183.86533479473209 23,183.86533479473209" />
    <polyline points="30,171.74097914174996 44,171.74097914174996 51,183.86533479473209" />
    <polyline points="72,195.98969044771422 65,183.86533479473209 72,171.74097914174996" />
    <polyline points="86,171.74097914174996 93,183.86533479473209 86,195.98969044771422" />
    <polyline points="93,183.86533479473209 107,183.86533479473209 114,171.74097914174996 128,171.74097914174996 135,183.86533479473209 149,183.86533479473209 156,195.98969044771422" />
    <polyline points="149,183.86533479473209 156,171.74097914174996 170,171.74097914174996 177,183.86533479473209" />
    <polyline points="198,195.98969044771422 191,183.86533479473209 198,171.74097914174996" />
    <polyline points="212,171.74097914174996 219,183.86533479473209 212,195.98969044771422" />
    <polyline points="240,195.98969044771422 233,183.86533479473209 240,171.74097914174996" />
    <line x1="254" y1="171.74097914174996" x2="261" y2="183.86533479473209" />
    <polyline points="275,183.86533479473209 282,171.74097914174996 296,171.74097914174996 303,183.86533479473209 317,183.86533479473209 324,195.98969044771422" />
    <line x1="317" y1="183.86533479473209" x2="324" y2="171.74097914174996" />
    <polyline points="338,195.98969044771422 345,183.86533479473209 359,183.86533479473209" />
    <polyline points="366,171.74097914174996 380,171.74097914174996 387,183.86533479473209 380,195.98969044771422" />
    <polyline points="387,183.86533479473209 401,183.86533479473209 408,195.98969044771422" />
    <polyline points="408,171.74097914174996 422,171.74097914174996 429,183.86533479473209 443,183.86533479473209 450,195.98969044771422 443,208.11404610069636" />
    <polyline points="9,232.36275740666065 2,220.23840175367852 9,208.11404610069639 23,208.11404610069639" />
    <polyline points="30,195.98969044771425 44,195.98969044771425 51,208.11404610069639 65,208.11404610069639 72,195.98969044771425" />
    <polyline points="86,195.98969044771425 93,208.11404610069639 86,220.23840175367852" />
    <line x1="93" y1="208.11404610069639" x2="107" y2="208.11404610069639" />
    <polyline points="114,195.98969044771425 128,195.98969044771425 135,208.11404610069639 128,220.23840175367852" />
    <polyline points="156,220.23840175367852 149,208.11404610069639 156,195.98969044771425" />
    <polyline points="170,195.98969044771425 177,208.11404610069639 191,208.11404610069639 198,220.23840175367852" />
    <line x1="191" y1="208.11404610069639" x2="198" y2="195.98969044771425" />
    <polyline points="212,195.98969044771425 219,208.11404610069639 212,220.23840175367852" />
    <polyline points="219,208.11404610069639 233,208.11404610069639 240,220.23840175367852" />
    <line x1="240" y1="195.98969044771425" x2="254" y2="195.98969044771425" />
    <line x1="254" y1="220.23840175367852" x2="261" y2="208.11404610069639" />
    <polyline points="282,220.23840175367852 275,208.11404610069639 282,195.98969044771425 296,195.98969044771425 303,208.11404610069639 296,220.23840175367852" />
    <polyline points="324,220.23840175367852 317,208.11404610069639 324,195.98969044771425 338,195.98969044771425 345,208.11404610069639 359,208.11404610069639 366,220.23840175367852" />
    <polyline points="366,195.98969044771425 380,195.98969044771425 387,208.11404610069639 401,208.11404610069639" />
    <polyline points="408,195.98969044771425 422,195.98969044771425 429,208.11404610069639 422,220.23840175367852" />
    <polyline points="443,208.11404610069639 450,220.23840175367852 443,232.36275740666065" />
    <polyline points="9,256.61146871262497 2,244.48711305964281 9,232.36275740666068 23,232.36275740666068 30,220.23840175367855" />
    <polyline points="44,220.23840175367855 51,232.36275740666068 44,244.48711305964281" />
    <polyline points="51,232.36275740666068 65,232.36275740666068 72,244.48711305964281" />
    <polyline points="65,232.36275740666068 72,220.23840175367855 86,220.23840175367855" />
    <polyline points="86,244.48711305964281 93,232.36275740666068 107,232.36275740666068 114,244.48711305964281" />
    <line x1="107" y1="232.36275740666068" x2="114" y2="220.23840175367855" />
    <polyline points="128,220.23840175367855 135,232.36275740666068 128,244.48711305964281" />
    <polyline points="156,244.48711305964281 149,232.36275740666068 156,220.23840175367855 170,220.23840175367855" />
    <polyline points="170,244.48711305964281 177,232.36275740666068 191,232.36275740666068 198,220.23840175367855" />
    <polyline points="212,220.23840175367855 219,232.36275740666068 212,244.48711305964281" />
    <polyline points="240,244.48711305964281 233,232.36275740666068 240,220.23840175367855 254,220.23840175367855 261,232.36275740666068 275,232.36275740666068 282,244.48711305964281" />
    <line x1="275" y1="232.36275740666068" x2="282" y2="220.23840175367855" />
    <polyline points="296,220.23840175367855 303,232.36275740666068 317,232.36275740666068 324,220.23840175367855" />
    <polyline points="338,220.23840175367855 345,232.36275740666068 338,244.48711305964281" />
    <polyline points="345,232.36275740666068 359,232.36275740666068 366,244.48711305964281" />
    <polyline points="366,220.23840175367855 380,220.23840175367855 387,232.36275740666068 401,232.36275740666068 408,244.48711305964281" />
    <polyline points="408,220.23840175367855 422,220.23840175367855 429,232.36275740666068 422,244.48711305964281" />
    <polyline points="429,232.36275740666068 443,232.36275740666068 450,244.48711305964281 443,256.61146871262497" />
    <polyline points="9,280.86018001858923 2,268.73582436560707 9,256.61146871262491" />
    <polyline points="30,268.73582436560707 23,256.61146871262491 30,244.48711305964278" />
    <line x1="44" y1="244.48711305964278" x2="51" y2="256.61146871262491" />
    <polyline points="72,268.73582436560707 65,256.61146871262491 72,244.48711305964278" />
    <polyline points="86,244.48711305964278 93,256.61146871262491 86,268.73582436560707" />
    <line x1="107" y1="256.61146871262491" x2="114" y2="268.73582436560707" />
    <line x1="114" y1="244.48711305964278" x2="128" y2="244.48711305964278" />
    <polyline points="128,268.73582436560707 135,256.61146871262491 149,256.61146871262491 156,268.73582436560707" />
    <line x1="149" y1="256.61146871262491" x2="156" y2="244.48711305964278" />
    <polyline points="170,244.48711305964278 177,256.61146871262491 170,268.73582436560707" />
    <polyline points="177,256.61146871262491 191,256.61146871262491 198,268.73582436560707" />
    <polyline points="198,244.48711305964278 212,244.48711305964278 219,256.61146871262491 233,256.61146871262491 240,268.73582436560707" />
    <polyline points="254,244.48711305964278 261,256.61146871262491 254,268.73582436560707" />
    <polyline points="282,268.73582436560707 275,256.61146871262491 282,244.48711305964278 296,244.48711305964278" />
    <line x1="296" y1="268.73582436560707" x2="303" y2="256.61146871262491" />
    <polyline points="324,268.73582436560707 317,256.61146871262491 324,244.48711305964278 338,244.48711305964278 345,256.61146871262491 359,256.61146871262491" />
    <polyline points="366,244.48711305964278 380,244.48711305964278 387,256.61146871262491 380,268.73582436560707" />
    <polyline points="408,268.73582436560707 401,256.61146871262491 408,244.48711305964278 422,244.48711305964278" />
    <polyline points="422,268.73582436560707 429,256.61146871262491 443,256.61146871262491 450,268.73582436560707 443,280.86018001858923" />
    <polyline points="9,305.1088913245535 2,292.98453567157134 9,280.86018001858918" />
    <polyline points="30,292.98453567157134 23,280.86018001858918 30,268.735824365607 44,268.735824365607 51,280.86018001858918 65,280.86018001858918 72,268.735824365607 86,268.735824365607 93,280.86018001858918 86,292.98453567157134" />
    <polyline points="114,292.98453567157134 107,280.86018001858918 114,268.735824365607" />
    <polyline points="128,292.98453567157134 135,280.86018001858918 149,280.86018001858918 156,292.98453567157134" />
    <polyline points="170,268.735824365607 177,280.86018001858918 170,292.98453567157134" />
    <line x1="191" y1="280.86018001858918" x2="198" y2="292.98453567157134" />
    <line x1="198" y1="268.735824365607" x2="212" y2="268.735824365607" />
    <line x1="212" y1="292.98453567157134" x2="219" y2="280.86018001858918" />
    <polyline points="240,292.98453567157134 233,280.86018001858918 240,268.735824365607 254,268.735824365607 261,280.86018001858918 275,280.86018001858918 282,292.98453567157134" />
    <polyline points="296,268.735824365607 303,280.86018001858918 296,292.98453567157134" />
    <line x1="303" y1="280.86018001858918" x2="317" y2="280.86018001858918" />
    <polyline points="324,268.735824365607 338,268.735824365607 345,280.86018001858918 338,292.98453567157134" />
    <polyline points="366,292.98453567157134 359,280.86018001858918 366,268.735824365607" />
    <polyline points="380,292.98453567157134 387,280.86018001858918 401,280.86018001858918 408,292.98453567157134" />
    <line x1="422" y1="292.98453567157134" x2="429" y2="280.86018001858918" />
    <polyline points="443,280.86018001858918 450,292.98453567157134 443,305.1088913245535" />
    <polyline points="9,329.35760263051782 2,317.23324697753566 9,305.1088913245535" />
    <polyline points="30,317.23324697753566 23,305.1088913245535 30,292.98453567157134" />
    <polyline points="44,292.98453567157134 51,305.1088913245535 44,317.23324697753566" />
    <polyline points="51,305.1088913245535 65,305.1088913245535 72,292.98453567157134" />
    <polyline points="86,317.23324697753566 93,305.1088913245535 107,305.1088913245535 114,317.23324697753566" />
    <line x1="114" y1="292.98453567157134" x2="128" y2="292.98453567157134" />
    <line x1="128" y1="317.23324697753566" x2="135" y2="305.1088913245535" />
    <polyline points="156,317.23324697753566 149,305.1088913245535 156,292.98453567157134 170,292.98453567157134 177,305.1088913245535 170,317.23324697753566" />
    <line x1="191" y1="305.1088913245535" x2="198" y2="317.23324697753566" />
    <polyline points="198,292.98453567157134 212,292.98453567157134 219,305.1088913245535 233,305.1088913245535 240,317.23324697753566" />
    <line x1="233" y1="305.1088913245535" x2="240" y2="292.98453567157134" />
    <polyline points="254,292.98453567157134 261,305.1088913245535 254,317.23324697753566" />
    <polyline points="261,305.1088913245535 275,305.1088913245535 282,317.23324697753566" />
    <polyline points="296,292.98453567157134 303,305.1088913245535 317,305.1088913245535 324,317.23324697753566" />
    <polyline points="324,292.98453567157134 338,292.98453567157134 345,305.1088913245535 338,317.23324697753566" />
    <polyline points="345,305.1088913245535 359,305.1088913245535 366,292.98453567157134 380,292.98453567157134 387,305.1088913245535 380,317.23324697753566" />
    <polyline points="387,305.1088913245535 401,305.1088913245535 408,317.23324697753566" />
    <polyline points="408,292.98453567157134 422,292.98453567157134 429,305.1088913245535 443,305.1088913245535 450,317.23324697753566 443,329.35760263051782" />
    <polyline points="9,353.60631393648208 2,341.48195828349992 9,329.35760263051776" />
    <polyline points="30,341.48195828349992 23,329.35760263051776 30,317.2332469775356" />
    <polyline points="44,317.2332469775356 51,329.35760263051776 44,341.48195828349992" />
    <polyline points="72,341.48195828349992 65,329.35760263051776 72,317.2332469775356 86,317.2332469775356" />
    <polyline points="93,329.35760263051776 107,329.35760263051776 114,317.2332469775356 128,317.2332469775356 135,329.35760263051776 149,329.35760263051776 156,341.48195828349992" />
    <polyline points="170,317.2332469775356 177,329.35760263051776 170,341.48195828349992" />
    <polyline points="177,329.35760263051776 191,329.35760263051776 198,317.2332469775356 212,317.2332469775356 219,329.35760263051776 233,329.35760263051776 240,341.48195828349992" />
    <polyline points="254,317.2332469775356 261,329.35760263051776 275,329.35760263051776 282,341.48195828349992" />
    <polyline points="296,317.2332469775356 303,329.35760263051776 317,329.35760263051776 324,341.48195828349992" />
    <line x1="317" y1="329.35760263051776" x2="324" y2="317.2332469775356" />
    <polyline points="338,341.48195828349992 345,329.35760263051776 359,329.35760263051776 366,317.2332469775356 380,317.2332469775356" />
    <polyline points="380,341.48195828349992 387,329.35760263051776 401,329.35760263051776 408,317.2332469775356 422,317.2332469775356 429,329.35760263051776" />
    <polyline points="443,329.35760263051776 450,341.48195828349992 443,353.60631393648208" />
    <polyline points="9,377.85502524244635 2,365.73066958946418 9,353.606313936482" />
    <polyline points="30,365.73066958946418 23,353.606313936482 30,341.48195828349986" />
    <polyline points="44,341.48195828349986 51,353.606313936482 44,365.73066958946418" />
    <line x1="51" y1="353.606313936482" x2="65" y2="353.606313936482" />
    <polyline points="72,341.48195828349986 86,341.48195828349986 93,353.606313936482 86,365.73066958946418" />
    <polyline points="93,353.606313936482 107,353.606313936482 114,341.48195828349986" />
    <polyline points="128,341.48195828349986 135,353.606313936482 128,365.73066958946418" />
    <polyline points="135,353.606313936482 149,353.606313936482 156,341.48195828349986" />
    <polyline points="170,341.48195828349986 177,353.606313936482 191,353.606313936482" />
    <polyline points="198,341.48195828349986 212,341.48195828349986 219,353.606313936482 212,365.73066958946418" />
    <polyline points="240,365.73066958946418 233,353.606313936482 240,341.48195828349986 254,341.48195828349986 261,353.606313936482 275,353.606313936482 282,341.48195828349986 296,341.48195828349986" />
    <polyline points="296,365.73066958946418 303,353.606313936482 317,353.606313936482 324,341.48195828349986" />
    <polyline points="338,341.48195828349986 345,353.606313936482 338,365.73066958946418" />
    <polyline points="345,353.606313936482 359,353.606313936482 366,365.73066958946418" />
    <line x1="366" y1="341.48195828349986" x2="380" y2="341.48195828349986" />
    <polyline points="380,365.73066958946418 387,353.606313936482 401,353.606313936482 408,341.48195828349986" />
    <polyline points="422,341.48195828349986 429,353.606313936482 422,365.73066958946418" />
    <polyline points="429,353.606313936482 443,353.606313936482 450,365.73066958946418 443,377.85502524244635" />
    <polyline points="9,402.10373654841067 2,389.97938089542851 9,377.85502524244635 23,377.85502524244635" />
    <polyline points="30,365.73066958946418 44,365.73066958946418 51,377.85502524244635 44,389.97938089542851" />
    <line x1="65" y1="377.85502524244635" x2="72" y2="389.97938089542851" />
    <polyline points="72,365.73066958946418 86,365.73066958946418 93,377.85502524244635 86,389.97938089542851" />
    <polyline points="93,377.85502524244635 107,377.85502524244635 114,389.97938089542851" />
    <line x1="114" y1="365.73066958946418" x2="128" y2="365.73066958946418" />
    <polyline points="128,389.97938089542851 135,377.85502524244635 149,377.85502524244635 156,389.97938089542851" />
    <polyline points="149,377.85502524244635 156,365.73066958946418 170,365.73066958946418 177,377.85502524244635 170,389.97938089542851" />
    <polyline points="177,377.85502524244635 191,377.85502524244635 198,365.73066958946418 212,365.73066958946418 219,377.85502524244635 233,377.85502524244635 240,389.97938089542851" />
    <polyline points="254,365.73066958946418 261,377.85502524244635 254,389.97938089542851" />
    <polyline points="275,377.85502524244635 282,365.73066958946418 296,365.73066958946418 303,377.85502524244635 296,389.97938089542851" />
    <line x1="317" y1="377.85502524244635" x2="324" y2="389.97938089542851" />
    <line x1="324" y1="365.73066958946418" x2="338" y2="365.73066958946418" />
    <line x1="338" y1="389.97938089542851" x2="345" y2="377.85502524244635" />
    <polyline points="359,377.85502524244635 366,365.73066958946418 380,365.73066958946418" />
    <polyline points="380,389.97938089542851 387,377.85502524244635 401,377.85502524244635 408,389.97938089542851" />
    <polyline points="401,377.85502524244635 408,365.73066958946418 422,365.73066958946418 429,377.85502524244635" />
    <polyline points="443,377.85502524244635 450,389.97938089542851 443,402.10373654841067" />
    <polyline points="9,426.35244785437493 2,414.22809220139277 9,402.10373654841061 23,402.10373654841061 30,414.22809220139277" />
    <polyline points="30,389.97938089542845 44,389.97938089542845 51,402.10373654841061 44,414.22809220139277" />
    <polyline points="51,402.10373654841061 65,402.10373654841061 72,389.97938089542845 86,389.97938089542845" />
    <line x1="86" y1="414.22809220139277" x2="93" y2="402.10373654841061" />
    <polyline points="114,414.22809220139277 107,402.10373654841061 114,389.97938089542845 128,389.97938089542845" />
    <line x1="128" y1="414.22809220139277" x2="135" y2="402.10373654841061" />
    <polyline points="156,414.22809220139277 149,402.10373654841061 156,389.97938089542845" />
    <polyline points="170,389.97938089542845 177,402.10373654841061 191,402.10373654841061 198,414.22809220139277" />
    <polyline points="191,402.10373654841061 198,389.97938089542845 212,389.97938089542845" />
    <polyline points="219,402.10373654841061 233,402.10373654841061 240,414.22809220139277" />
    <polyline points="240,389.97938089542845 254,389.97938089542845 261,402.10373654841061 254,414.22809220139277" />
    <polyline points="282,414.22809220139277 275,402.10373654841061 282,389.97938089542845 296,389.97938089542845" />
    <polyline points="303,402.10373654841061 317,402.10373654841061 324,414.22809220139277" />
    <polyline points="324,389.97938089542845 338,389.97938089542845 345,402.10373654841061 338,414.22809220139277" />
    <polyline points="345,402.10373654841061 359,402.10373654841061 366,389.97938089542845 380,389.97938089542845" />
    <polyline points="387,402.10373654841061 401,402.10373654841061 408,389.97938089542845 422,389.97938089542845 429,402.10373654841061 422,414.22809220139277" />
    <polyline points="443,402.10373654841061 450,414.22809220139277 443,426.35244785437493" />
    <polyline points="9,450.60115916033919 2,438.47680350735703 9,426.35244785437487" />
    <polyline points="30,438.47680350735703 23,426.35244785437487 30,414.22809220139271" />
    <polyline points="44,414.22809220139271 51,426.35244785437487 44,438.47680350735703" />
    <polyline points="51,426.35244785437487 65,426.35244785437487 72,438.47680350735703" />
    <polyline points="65,426.35244785437487 72,414.22809220139271 86,414.22809220139271" />
    <polyline points="93,426.35244785437487 107,426.35244785437487 114,438.47680350735703" />
    <polyline points="107,426.35244785437487 114,414.22809220139271 128,414.22809220139271" />
    <polyline points="135,426.35244785437487 149,426.35244785437487 156,414.22809220139271 170,414.22809220139271 177,426.35244785437487 170,438.47680350735703" />
    <polyline points="198,438.47680350735703 191,426.35244785437487 198,414.22809220139271 212,414.22809220139271" />
    <polyline points="212,438.47680350735703 219,426.35244785437487 233,426.35244785437487 240,414.22809220139271" />
    <polyline points="254,414.22809220139271 261,426.35244785437487 254,438.47680350735703" />
    <polyline points="261,426.35244785437487 275,426.35244785437487 282,438.47680350735703" />
    <line x1="275" y1="426.35244785437487" x2="282" y2="414.22809220139271" />
    <polyline points="296,414.22809220139271 303,426.35244785437487 296,438.47680350735703" />
    <line x1="303" y1="426.35244785437487" x2="317" y2="426.35244785437487" />
    <line x1="324" y1="414.22809220139271" x2="338" y2="414.22809220139271" />
    <line x1="338" y1="438.47680350735703" x2="345" y2="426.35244785437487" />
    <polyline points="359,426.35244785437487 366,414.22809220139271 380,414.22809220139271 387,426.35244785437487 380,438.47680350735703" />
    <polyline points="387,426.35244785437487 401,426.35244785437487 408,438.47680350735703" />
    <line x1="401" y1="426.35244785437487" x2="408" y2="414.22809220139271" />
    <line x1="422" y1="438.47680350735703" x2="429" y2="426.35244785437487" />
    <polyline points="443,426.35244785437487 450,438.47680350735703 443,450.60115916033919" />
    <polyline points="9,474.84987046630351 2,462.72551481332135 9,450.60115916033919 23,450.60115916033919 30,462.72551481332135" />
    <polyline points="44,462.72551481332135 51,450.60115916033919 65,450.60115916033919 72,462.72551481332135" />
    <line x1="72" y1="438.47680350735703" x2="86" y2="438.47680350735703" />
    <line x1="86" y1="462.72551481332135" x2="93" y2="450.60115916033919" />
    <polyline points="114,462.72551481332135 107,450.60115916033919 114,438.47680350735703 128,438.47680350735703 135,450.60115916033919 149,450.60115916033919 156,438.47680350735703" />
    <polyline points="170,438.47680350735703 177,450.60115916033919 191,450.60115916033919" />
    <polyline points="212,438.47680350735703 219,450.60115916033919 212,462.72551481332135" />
    <polyline points="240,462.72551481332135 233,450.60115916033919 240,438.47680350735703 254,438.47680350735703" />
    <polyline points="261,450.60115916033919 275,450.60115916033919 282,462.72551481332135" />
    <polyline points="296,438.47680350735703 303,450.60115916033919 296,462.72551481332135" />
    <polyline points="324,462.72551481332135 317,450.60115916033919 324,438.47680350735703" />
    <polyline points="338,438.47680350735703 345,450.60115916033919 338,462.72551481332135" />
    <polyline points="345,450.60115916033919 359,450.60115916033919 366,438.47680350735703" />
    <polyline points="380,438.47680350735703 387,450.60115916033919 380,462.72551481332135" />
    <polyline points="387,450.60115916033919 401,450.60115916033919 408,462.72551481332135" />
    <polyline points="408,438.47680350735703 422,438.47680350735703 429,450.60115916033919 422,462.72551481332135" />
    <polyline points="429,450.60115916033919 443,450.60115916033919 450,462.72551481332135 443,474.84987046630351" />
    <polyline points="9,499.09858177226778 2,486.97422611928562 9,474.84987046630346" />
    <line x1="23" y1="474.84987046630346" x2="30" y2="486.97422611928562" />
    <line x1="30" y1="462.7255148133213" x2="44" y2="462.7255148133213" />
    <polyline points="44,486.97422611928562 51,474.84987046630346 65,474.84987046630346 72,486.97422611928562" />
    <line x1="72" y1="462.7255148133213" x2="86" y2="462.7255148133213" />
    <polyline points="86,486.97422611928562 93,474.84987046630346 107,474.84987046630346 114,486.97422611928562" />
    <polyline points="107,474.84987046630346 114,462.7255148133213 128,462.7255148133213" />
    <polyline points="128,486.97422611928562 135,474.84987046630346 149,474.84987046630346 156,462.7255148133213 170,462.7255148133213" />
    <polyline points="177,474.84987046630346 191,474.84987046630346 198,486.97422611928562" />
    <line x1="191" y1="474.84987046630346" x2="198" y2="462.7255148133213" />
    <polyline points="212,462.7255148133213 219,474.84987046630346 212,486.97422611928562" />
    <polyline points="219,474.84987046630346 233,474.84987046630346 240,486.97422611928562" />
    <line x1="240" y1="462.7255148133213" x2="254" y2="462.7255148133213" />
    <polyline points="254,486.97422611928562 261,474.84987046630346 275,474.84987046630346 282,462.7255148133213 296,462.7255148133213 303,474.84987046630346 296,486.97422611928562" />
    <polyline points="303,474.84987046630346 317,474.84987046630346 324,486.97422611928562" />
    <polyline points="324,462.7255148133213 338,462.7255148133213 345,474.84987046630346 338,486.97422611928562" />
    <polyline points="366,486.97422611928562 359,474.84987046630346 366,462.7255148133213" />
    <line x1="380" y1="486.97422611928562" x2="387" y2="474.84987046630346" />
    <polyline points="408,486.97422611928562 401,474.84987046630346 408,462.7255148133213" />
    <polyline points="422,486.97422611928562 429,474.84987046630346 443,474.84987046630346 450,486.97422611928562 443,499.09858177226778" />
    <polyline points="9,523.347293078232 2,511.22293742524988 9,499.09858177226772" />
    <polyline points="23,499.09858177226772 30,486.97422611928556 44,486.97422611928556 51,499.09858177226772" />
    <line x1="65" y1="499.09858177226772" x2="72" y2="511.22293742524988" />
    <line x1="72" y1="486.97422611928556" x2="86" y2="486.97422611928556" />
    <polyline points="93,499.09858177226772 107,499.09858177226772 114,511.22293742524988" />
    <line x1="107" y1="499.09858177226772" x2="114" y2="486.97422611928556" />
    <polyline points="128,486.97422611928556 135,499.09858177226772 128,511.22293742524988" />
    <polyline points="135,499.09858177226772 149,499.09858177226772 156,486.97422611928556 170,486.97422611928556" />
    <polyline points="170,511.22293742524988 177,499.09858177226772 191,499.09858177226772 198,511.22293742524988" />
    <polyline points="191,499.09858177226772 198,486.97422611928556 212,486.97422611928556" />
    <polyline points="212,511.22293742524988 219,499.09858177226772 233,499.09858177226772 240,511.22293742524988" />
    <polyline points="233,499.09858177226772 240,486.97422611928556 254,486.97422611928556 261,499.09858177226772 254,511.22293742524988" />
    <polyline points="282,511.22293742524988 275,499.09858177226772 282,486.97422611928556" />
    <polyline points="296,486.97422611928556 303,499.09858177226772 296,511.22293742524988" />
    <line x1="317" y1="499.09858177226772" x2="324" y2="511.22293742524988" />
    <polyline points="324,486.97422611928556 338,486.97422611928556 345,499.09858177226772 338,511.22293742524988" />
    <polyline points="366,511.22293742524988 359,499.09858177226772 366,486.97422611928556 380,486.97422611928556" />
    <line x1="380" y1="511.22293742524988" x2="387" y2="499.09858177226772" />
    <line x1="401" y1="499.09858177226772" x2="408" y2="486.97422611928556" />
    <polyline points="422,486.97422611928556 429,499.09858177226772 422,511.22293742524988" />
    <polyline points="443,499.09858177226772 450,511.22293742524988 443,523.347293078232" />
    <polyline points="9,547.59600438419625 2,535.47164873121415 9,523.347293078232 23,523.347293078232 30,511.22293742524988 44,511.22293742524988" />
    <polyline points="44,535.47164873121415 51,523.347293078232 65,523.347293078232 72,511.22293742524988" />
    <polyline points="86,511.22293742524988 93,523.347293078232 86,535.47164873121415" />
    <polyline points="114,535.47164873121415 107,523.347293078232 114,511.22293742524988" />
    <polyline points="128,511.22293742524988 135,523.347293078232 149,523.347293078232 156,511.22293742524988 170,511.22293742524988 177,523.347293078232 170,535.47164873121415" />
    <line x1="191" y1="523.347293078232" x2="198" y2="535.47164873121415" />
    <polyline points="212,511.22293742524988 219,523.347293078232 212,535.47164873121415" />
    <polyline points="240,535.47164873121415 233,523.347293078232 240,511.22293742524988" />
    <polyline points="254,511.22293742524988 261,523.347293078232 275,523.347293078232 282,535.47164873121415" />
    <line x1="282" y1="511.22293742524988" x2="296" y2="511.22293742524988" />
    <polyline points="303,523.347293078232 317,523.347293078232 324,535.47164873121415" />
    <polyline points="317,523.347293078232 324,511.22293742524988 338,511.22293742524988" />
    <polyline points="345,523.347293078232 359,523.347293078232 366,535.47164873121415" />
    <line x1="359" y1="523.347293078232" x2="366" y2="511.22293742524988" />
    <polyline points="380,511.22293742524988 387,523.347293078232 401,523.347293078232 408,511.22293742524988 422,511.22293742524988" />
    <polyline points="422,535.47164873121415 429,523.347293078232 443,523.347293078232 450,535.47164873121415 443,547.59600438419625" />
    <polyline points="9,571.84471569016046 2,559.72036003717835 9,547.59600438419625 23,547.59600438419625 30,559.72036003717835" />
    <polyline points="23,547.59600438419625 30,535.47164873121415 44,535.47164873121415 51,547.59600438419625" />
    <polyline points="72,559.72036003717835 65,547.59600438419625 72,535.47164873121415 86,535.47164873121415 93,547.59600438419625 86,559.72036003717835" />
    <polyline points="114,559.72036003717835 107,547.59600438419625 114,535.47164873121415 128,535.47164873121415" />
    <polyline points="135,547.59600438419625 149,547.59600438419625 156,559.72036003717835" />
    <polyline points="156,535.47164873121415 170,535.47164873121415 177,547.59600438419625 170,559.72036003717835" />
    <polyline points="191,547.59600438419625 198,535.47164873121415 212,535.47164873121415" />
    <line x1="212" y1="559.72036003717835" x2="219" y2="547.59600438419625" />
    <polyline points="233,547.59600438419625 240,535.47164873121415 254,535.47164873121415 261,547.59600438419625 275,547.59600438419625" />
    <line x1="282" y1="535.47164873121415" x2="296" y2="535.47164873121415" />
    <polyline points="303,547.59600438419625 317,547.59600438419625 324,559.72036003717835" />
    <polyline points="317,547.59600438419625 324,535.47164873121415 338,535.47164873121415" />
    <polyline points="345,547.59600438419625 359,547.59600438419625 366,559.72036003717835" />
    <polyline points="359,547.59600438419625 366,535.47164873121415 380,535.47164873121415 387,547.59600438419625" />
    <polyline points="401,547.59600438419625 408,535.47164873121415 422,535.47164873121415" />
    <line x1="422" y1="559.72036003717835" x2="429" y2="547.59600438419625" />
    <polyline points="443,547.59600438419625 450,559.72036003717835 443,571.84471569016046" />
    <polyline points="9,596.09342699612489 2,583.96907134314279 9,571.84471569016068" />
    <line x1="23" y1="571.84471569016068" x2="30" y2="583.96907134314279" />
    <polyline points="30,559.72036003717858 44,559.72036003717858 51,571.84471569016068 44,583.96907134314279" />
    <polyline points="51,571.84471569016068 65,571.84471569016068 72,559.72036003717858" />
    <polyline points="86,559.72036003717858 93,571.84471569016068 86,583.96907134314279" />
    <polyline points="93,571.84471569016068 107,571.84471569016068 114,583.96907134314279" />
    <polyline points="107,571.84471569016068 114,559.72036003717858 128,559.72036003717858" />
    <polyline points="128,583.96907134314279 135,571.84471569016068 149,571.84471569016068 156,583.96907134314279" />
    <polyline points="156,559.72036003717858 170,559.72036003717858 177,571.84471569016068 170,583.96907134314279" />
    <polyline points="177,571.84471569016068 191,571.84471569016068 198,559.72036003717858 212,559.72036003717858" />
    <polyline points="212,583.96907134314279 219,571.84471569016068 233,571.84471569016068 240,583.96907134314279" />
    <polyline points="240,559.72036003717858 254,559.72036003717858 261,571.84471569016068 254,583.96907134314279" />
    <polyline points="261,571.84471569016068 275,571.84471569016068 282,583.96907134314279" />
    <polyline points="275,571.84471569016068 282,559.72036003717858 296,559.72036003717858" />
    <polyline points="303,571.84471569016068 317,571.84471569016068 324,559.72036003717858" />
    <polyline points="338,559.72036003717858 345,571.84471569016068 359,571.84471569016068 366,583.96907134314279" />
    <line x1="359" y1="571.84471569016068" x2="366" y2="559.72036003717858" />
    <polyline points="380,559.72036003717858 387,571.84471569016068 380,583.96907134314279" />
    <polyline points="408,583.96907134314279 401,571.84471569016068 408,559.72036003717858 422,559.72036003717858 429,571.84471569016068" />
    <polyline points="443,571.84471569016068 450,583.96907134314279 443,596.09342699612489" />
    <polyline points="9,620.3421383020891 2,608.217782649107 9,596.09342699612489 23,596.09342699612489" />
    <polyline points="30,583.96907134314279 44,583.96907134314279 51,596.09342699612489 44,608.217782649107" />
    <polyline points="72,608.217782649107 65,596.09342699612489 72,583.96907134314279" />
    <line x1="86" y1="608.217782649107" x2="93" y2="596.09342699612489" />
    <line x1="107" y1="596.09342699612489" x2="114" y2="583.96907134314279" />
    <line x1="128" y1="608.217782649107" x2="135" y2="596.09342699612489" />
    <polyline points="156,608.217782649107 149,596.09342699612489 156,583.96907134314279" />
    <polyline points="170,583.96907134314279 177,596.09342699612489 170,608.217782649107" />
    <polyline points="198,608.217782649107 191,596.09342699612489 198,583.96907134314279 212,583.96907134314279" />
    <polyline points="212,608.217782649107 219,596.09342699612489 233,596.09342699612489" />
    <line x1="240" y1="583.96907134314279" x2="254" y2="583.96907134314279" />
    <polyline points="254,608.217782649107 261,596.09342699612489 275,596.09342699612489 282,608.217782649107" />
    <polyline points="282,583.96907134314279 296,583.96907134314279 303,596.09342699612489 317,596.09342699612489 324,608.217782649107" />
    <polyline points="317,596.09342699612489 324,583.96907134314279 338,583.96907134314279 345,596.09342699612489 338,608.217782649107" />
    <polyline points="345,596.09342699612489 359,596.09342699612489 366,608.217782649107" />
    <line x1="359" y1="596.09342699612489" x2="366" y2="583.96907134314279" />
    <polyline points="380,583.96907134314279 387,596.09342699612489 380,608.217782649107" />
    <polyline points="387,596.09342699612489 401,596.09342699612489 408,583.96907134314279" />
    <polyline points="422,583.96907134314279 429,596.09342699612489 422,608.217782649107" />
    <polyline points="429,596.09342699612489 443,596.09342699612489 450,608.217782649107 443,620.3421383020891" />
    <polyline points="9,644.5908496080533 2,632.4664939550712 9,620.3421383020891" />
    <polyline points="30,632.4664939550712 23,620.3421383020891 30,608.217782649107 44,608.217782649107" />
    <polyline points="44,632.4664939550712 51,620.3421383020891 65,620.3421383020891 72,608.217782649107 86,608.217782649107 93,620.3421383020891 107,620.3421383020891 114,608.217782649107 128,608.217782649107" />
    <polyline points="128,632.4664939550712 135,620.3421383020891 149,620.3421383020891 156,608.217782649107 170,608.217782649107" />
    <polyline points="170,632.4664939550712 177,620.3421383020891 191,620.3421383020891 198,632.4664939550712" />
    <line x1="198" y1="608.217782649107" x2="212" y2="608.217782649107" />
    <polyline points="212,632.4664939550712 219,620.3421383020891 233,620.3421383020891 240,608.217782649107 254,608.217782649107 261,620.3421383020891" />
    <line x1="275" y1="620.3421383020891" x2="282" y2="632.4664939550712" />
    <line x1="282" y1="608.217782649107" x2="296" y2="608.217782649107" />
    <line x1="296" y1="632.4664939550712" x2="303" y2="620.3421383020891" />
    <line x1="317" y1="620.3421383020891" x2="324" y2="608.217782649107" />
    <polyline points="338,608.217782649107 345,620.3421383020891 338,632.4664939550712" />
    <polyline points="366,632.4664939550712 359,620.3421383020891 366,608.217782649107" />
    <polyline points="380,608.217782649107 387,620.3421383020891 380,632.4664939550712" />
    <line x1="387" y1="620.3421383020891" x2="401" y2="620.3421383020891" />
    <polyline points="408,608.217782649107 422,608.217782649107 429,620.3421383020891" />
    <polyline points="443,620.3421383020891 450,632.4664939550712 443,644.5908496080533" />
    <polyline points="9,668.83956091401774 2,656.71520526103563 9,644.59084960805353" />
    <line x1="23" y1="644.59084960805353" x2="30" y2="632.46649395507143" />
    <polyline points="44,632.46649395507143 51,644.59084960805353 44,656.71520526103563" />
    <polyline points="65,644.59084960805353 72,632.46649395507143 86,632.46649395507143 93,644.59084960805353 107,644.59084960805353 114,632.46649395507143 128,632.46649395507143 135,644.59084960805353 128,656.71520526103563" />
    <polyline points="149,644.59084960805353 156,632.46649395507143 170,632.46649395507143" />
    <line x1="170" y1="656.71520526103563" x2="177" y2="644.59084960805353" />
    <polyline points="191,644.59084960805353 198,632.46649395507143 212,632.46649395507143 219,644.59084960805353 212,656.71520526103563" />
    <polyline points="240,656.71520526103563 233,644.59084960805353 240,632.46649395507143 254,632.46649395507143 261,644.59084960805353 275,644.59084960805353" />
    <polyline points="282,632.46649395507143 296,632.46649395507143 303,644.59084960805353 296,656.71520526103563" />
    <polyline points="303,644.59084960805353 317,644.59084960805353 324,632.46649395507143 338,632.46649395507143 345,644.59084960805353" />
    <line x1="359" y1="644.59084960805353" x2="366" y2="632.46649395507143" />
    <polyline points="380,632.46649395507143 387,644.59084960805353 380,656.71520526103563" />
    <polyline points="408,656.71520526103563 401,644.59084960805353 408,632.46649395507143 422,632.46649395507143" />
    <polyline points="429,644.59084960805353 443,644.59084960805353 450,656.71520526103563 443,668.83956091401774" />
    <polyline points="30,656.71520526103563 23,668.83956091401774 9,668.83956091401774" />
    <line x1="44" y1="656.71520526103563" x2="30" y2="656.71520526103563" />
    <polyline points="72,656.71520526103563 65,668.83956091401774 51,668.83956091401774 44,656.71520526103563" />
    <line x1="86" y1="656.71520526103563" x2="72" y2="656.71520526103563" />
    <polyline points="114,656.71520526103563 107,668.83956091401774 93,668.83956091401774 86,656.71520526103563" />
    <line x1="128" y1="656.71520526103563" x2="114" y2="656.71520526103563" />
    <polyline points="156,656.71520526103563 149,668.83956091401774 135,668.83956091401774 128,656.71520526103563" />
    <line x1="170" y1="656.71520526103563" x2="156" y2="656.71520526103563" />
    <polyline points="198,656.71520526103563 191,668.83956091401774 177,668.83956091401774 170,656.71520526103563" />
    <line x1="212" y1="656.71520526103563" x2="198" y2="656.71520526103563" />
    <line x1="240" y1="656.71520526103563" x2="233" y2="668.83956091401774" />
    <line x1="219" y1="668.83956091401774" x2="212" y2="656.71520526103563" />
    <line x1="254" y1="656.71520526103563" x2="240" y2="656.71520526103563" />
    <polyline points="282,656.71520526103563 275,668.83956091401774 261,668.83956091401774 254,656.71520526103563" />
    <line x1="296" y1="656.71520526103563" x2="282" y2="656.71520526103563" />
    <polyline points="324,656.71520526103563 317,668.83956091401774 303,668.83956091401774 296,656.71520526103563" />
    <line x1="338" y1="656.71520526103563" x2="324" y2="656.71520526103563" />
    <polyline points="366,656.71520526103563 359,668.83956091401774 345,668.83956091401774 338,656.71520526103563" />
    <line x1="380" y1="656.71520526103563" x2="366" y2="656.71520526103563" />
    <polyline points="408,656.71520526103563 401,668.83956091401774 387,668.83956091401774 380,656.71520526103563" />
    <line x1="422" y1="656.71520526103563" x2="408" y2="656.71520526103563" />
    <polyline points="443,668.83956091401774 429,668.83956091401774 422,656.71520526103563" />
  </g>
  <polyline fill="none" stroke="#ff0000" stroke-width="2" stroke-linecap="square" stroke-linejoin="round" points="226,14.124355652982123 226,26.248711305964264 205,38.3730669589464 205,14.124355652982123 163,38.3730669589464 163,86.870489570874966 247,38.3730669589464 247,111.11920087683924 268,123.24355652982139 247,135.36791218280354 268,147.49226783578567 268,195.98969044771422 247,208.11404610069639 226,195.98969044771422 226,171.74097914174996 205,159.61662348876783 205,232.36275740666068 184,244.48711305964281 226,268.73582436560707 205,280.86018001858918 184,268.73582436560707 184,292.98453567157134 247,329.35760263051776 247,280.86018001858918 289,305.1088913245535 289,256.61146871262491 310,244.48711305964281 310,268.73582436560707 331,280.86018001858918 310,292.98453567157134 331,305.1088913245535 331,353.606313936482 310,365.73066958946418 310,389.97938089542851 289,402.10373654841061 331,426.35244785437487 352,414.22809220139277 352,438.47680350735703 373,426.35244785437487 373,450.60115916033919 352,462.72551481332135 352,511.22293742524988 331,523.347293078232 352,535.47164873121415 331,547.59600438419625 331,571.84471569016068 310,583.96907134314279 289,571.84471569016068 310,559.72036003717835 289,547.59600438419625 268,559.72036003717835 247,547.59600438419625 184,583.96907134314279 184,608.217782649107 205,620.3421383020891 268,583.96907134314279 310,608.217782649107 289,620.3421383020891 268,608.217782649107 268,632.4664939550712 247,620.3421383020891 226,632.4664939550712 226,668.83956091401774" />
  <type>Rectangular</type>
</svg>