<?xml version="1.0" encoding="utf-8" standalone="no"?>
<!DOCTYPE svg PUBLIC "-//W3C//DTD SVG 1.1//EN" "http://www.w3.org/Graphics/SVG/1.1/DTD/svg11.dtd"[]>
<svg width="746" height="864.829251361732" version="1.1" xmlns="http://www.w3.org/2000/svg">
  <title>Hexagonal sigma maze with 18 cells side</title>
  <g fill="none" stroke="#000000" stroke-width="2" stroke-linecap="round" stroke-linejoin="round">
    <polyline points="338,26.248711305964264 345,14.124355652982123 359,14.124355652982123 366,1.9999999999999822" />
    <polyline points="380,1.9999999999999822 387,14.124355652982123 401,14.124355652982123 408,26.248711305964264" />
    <polyline points="296,50.497422611928542 303,38.3730669589464 317,38.3730669589464 324,50.497422611928542" />
    <polyline points="317,38.3730669589464 324,26.248711305964264 338,26.248711305964264" />
    <polyline points="338,50.497422611928542 345,38.3730669589464 359,38.3730669589464 366,50.497422611928542" />
    <polyline points="366,26.248711305964264 380,26.248711305964264 387,38.3730669589464 401,38.3730669589464 408,50.497422611928542" />
    <polyline points="401,38.3730669589464 408,26.248711305964264 422,26.248711305964264 429,38.3730669589464 443,38.3730669589464 450,50.497422611928542" />
    <polyline points="254,74.74613391789282 261,62.621778264910681 275,62.621778264910681 282,74.74613391789282" />
    <polyline points="275,62.621778264910681 282,50.497422611928542 296,50.497422611928542" />
    <polyline points="296,74.74613391789282 303,62.621778264910681 317,62.621778264910681" />
    <polyline points="324,50.497422611928542 338,50.497422611928542 345,62.621778264910681" />
    <line x1="359" y1="62.621778264910681" x2="366" y2="74.74613391789282" />
    <polyline points="380,50.497422611928542 387,62.621778264910681 380,74.74613391789282" />
    <polyline points="387,62.621778264910681 401,62.621778264910681 408,74.74613391789282" />
    <line x1="401" y1="62.621778264910681" x2="408" y2="50.497422611928542" />
    <polyline points="422,50.497422611928542 429,62.621778264910681 422,74.74613391789282" />
    <polyline points="429,62.621778264910681 443,62.621778264910681 450,74.74613391789282" />
    <polyline points="450,50.497422611928542 464,50.497422611928542 471,62.621778264910681 485,62.621778264910681 492,74.74613391789282" />
    <polyline points="212,98.994845223857112 219,86.870489570874966 233,86.870489570874966 240,74.74613391789282 254,74.74613391789282 261,86.870489570874966 254,98.994845223857112" />
    <line x1="275" y1="86.870489570874966" x2="282" y2="98.994845223857112" />
    <line x1="282" y1="74.74613391789282" x2="296" y2="74.74613391789282" />
    <polyline points="296,98.994845223857112 303,86.870489570874966 317,86.870489570874966 324,74.74613391789282 338,74.74613391789282" />
    <polyline points="345,86.870489570874966 359,86.870489570874966 366,98.994845223857112" />
    <polyline points="366,74.74613391789282 380,74.74613391789282 387,86.870489570874966 380,98.994845223857112" />
    <line x1="401" y1="86.870489570874966" x2="408" y2="98.994845223857112" />
    <polyline points="422,74.74613391789282 429,86.870489570874966 422,98.994845223857112" />
    <line x1="443" y1="86.870489570874966" x2="450" y2="98.994845223857112" />
    <polyline points="450,74.74613391789282 464,74.74613391789282 471,86.870489570874966 464,98.994845223857112" />
    <polyline points="492,98.994845223857112 485,86.870489570874966 492,74.74613391789282 506,74.74613391789282 513,86.870489570874966 527,86.870489570874966 534,98.994845223857112" />
    <polyline points="170,123.24355652982139 177,111.11920087683924 191,111.11920087683924 198,123.24355652982139" />
    <polyline points="191,111.11920087683924 198,98.9948452238571 212,98.9948452238571" />
    <line x1="212" y1="123.24355652982139" x2="219" y2="111.11920087683924" />
    <line x1="233" y1="111.11920087683924" x2="240" y2="123.24355652982139" />
    <polyline points="240,98.9948452238571 254,98.9948452238571 261,111.11920087683924" />
    <polyline points="282,123.24355652982139 275,111.11920087683924 282,98.9948452238571 296,98.9948452238571 303,111.11920087683924 317,111.11920087683924 324,123.24355652982139" />
    <polyline points="324,98.9948452238571 338,98.9948452238571 345,111.11920087683924 338,123.24355652982139" />
    <polyline points="366,123.24355652982139 359,111.11920087683924 366,98.9948452238571 380,98.9948452238571 387,111.11920087683924 380,123.24355652982139" />
    <polyline points="387,111.11920087683924 401,111.11920087683924 408,98.9948452238571 422,98.9948452238571" />
    <polyline points="422,123.24355652982139 429,111.11920087683924 443,111.11920087683924 450,123.24355652982139" />
    <line x1="443" y1="111.11920087683924" x2="450" y2="98.9948452238571" />
    <polyline points="464,123.24355652982139 471,111.11920087683924 485,111.11920087683924 492,123.24355652982139" />
    <polyline points="506,98.9948452238571 513,111.11920087683924 506,123.24355652982139" />
    <line x1="513" y1="111.11920087683924" x2="527" y2="111.11920087683924" />
    <polyline points="534,98.9948452238571 548,98.9948452238571 555,111.11920087683924 569,111.11920087683924 576,123.24355652982139" />
    <polyline points="128,147.49226783578567 135,135.36791218280354 149,135.36791218280354 156,123.24355652982139 170,123.24355652982139" />
    <polyline points="170,147.49226783578567 177,135.36791218280354 191,135.36791218280354 198,123.24355652982139 212,123.24355652982139" />
    <polyline points="219,135.36791218280354 233,135.36791218280354 240,123.24355652982139 254,123.24355652982139 261,135.36791218280354 254,147.49226783578567" />
    <line x1="275" y1="135.36791218280354" x2="282" y2="147.49226783578567" />
    <polyline points="296,123.24355652982139 303,135.36791218280354 296,147.49226783578567" />
    <polyline points="303,135.36791218280354 317,135.36791218280354 324,123.24355652982139" />
    <polyline points="338,123.24355652982139 345,135.36791218280354 338,147.49226783578567" />
    <polyline points="366,147.49226783578567 359,135.36791218280354 366,123.24355652982139" />
    <line x1="380" y1="123.24355652982139" x2="387" y2="135.36791218280354" />
    <line x1="401" y1="135.36791218280354" x2="408" y2="147.49226783578567" />
    <line x1="408" y1="123.24355652982139" x2="422" y2="123.24355652982139" />
    <line x1="422" y1="147.49226783578567" x2="429" y2="135.36791218280354" />
    <polyline points="443,135.36791218280354 450,123.24355652982139 464,123.24355652982139 471,135.36791218280354 464,147.49226783578567" />
    <line x1="471" y1="135.36791218280354" x2="485" y2="135.36791218280354" />
    <polyline points="492,123.24355652982139 506,123.24355652982139 513,135.36791218280354 506,147.49226783578567" />
    <polyline points="513,135.36791218280354 527,135.36791218280354 534,123.24355652982139 548,123.24355652982139 555,135.36791218280354 548,147.49226783578567" />
    <polyline points="555,135.36791218280354 569,135.36791218280354 576,147.49226783578567" />
    <polyline points="576,123.24355652982139 590,123.24355652982139 597,135.36791218280354 590,147.49226783578567" />
    <polyline points="597,135.36791218280354 611,135.36791218280354 618,147.49226783578567" />
    <polyline points="86,171.74097914174996 93,159.61662348876783 107,159.61662348876783 114,171.74097914174996" />
    <polyline points="107,159.61662348876783 114,147.4922678357857 128,147.4922678357857 135,159.61662348876783 149,159.61662348876783" />
    <polyline points="156,147.4922678357857 170,147.4922678357857 177,159.61662348876783 170,171.74097914174996" />
    <polyline points="198,171.74097914174996 191,159.61662348876783 198,147.4922678357857" />
    <polyline points="212,147.4922678357857 219,159.61662348876783 212,171.74097914174996" />
    <polyline points="219,159.61662348876783 233,159.61662348876783 240,171.74097914174996" />
    <line x1="233" y1="159.61662348876783" x2="240" y2="147.4922678357857" />
    <polyline points="254,147.4922678357857 261,159.61662348876783 254,171.74097914174996" />
    <polyline points="282,171.74097914174996 275,159.61662348876783 282,147.4922678357857" />
    <polyline points="296,147.4922678357857 303,159.61662348876783 296,171.74097914174996" />
    <polyline points="324,171.74097914174996 317,159.61662348876783 324,147.4922678357857 338,147.4922678357857" />
    <polyline points="338,171.74097914174996 345,159.61662348876783 359,159.61662348876783 366,147.4922678357857 380,147.4922678357857" />
    <polyline points="380,171.74097914174996 387,159.61662348876783 401,159.61662348876783 408,171.74097914174996" />
    <line x1="401" y1="159.61662348876783" x2="408" y2="147.4922678357857" />
    <polyline points="422,147.4922678357857 429,159.61662348876783 443,159.61662348876783 450,171.74097914174996" />
    <polyline points="443,159.61662348876783 450,147.4922678357857 464,147.4922678357857" />
    <polyline points="464,171.74097914174996 471,159.61662348876783 485,159.61662348876783 492,171.74097914174996" />
    <polyline points="492,147.4922678357857 506,147.4922678357857 513,159.61662348876783 506,171.74097914174996" />
    <line x1="513" y1="159.61662348876783" x2="527" y2="159.61662348876783" />
    <polyline points="534,147.4922678357857 548,147.4922678357857 555,159.61662348876783 548,171.74097914174996" />
    <polyline points="576,171.74097914174996 569,159.61662348876783 576,147.4922678357857 590,147.4922678357857" />
    <polyline points="590,171.74097914174996 597,159.61662348876783 611,159.61662348876783" />
    <polyline points="618,147.4922678357857 632,147.4922678357857 639,159.61662348876783 653,159.61662348876783 660,171.74097914174996" />
    <polyline points="44,195.98969044771422 51,183.86533479473209 65,183.86533479473209 72,171.74097914174996 86,171.74097914174996" />
    <polyline points="86,195.98969044771422 93,183.86533479473209 107,183.86533479473209" />
    <polyline points="114,171.74097914174996 128,171.74097914174996 135,183.86533479473209 128,195.98969044771422" />
    <polyline points="156,195.98969044771422 149,183.86533479473209 156,171.74097914174996" />
    <polyline points="170,195.98969044771422 177,183.86533479473209 191,183.86533479473209 198,171.74097914174996" />
    <polyline points="212,195.98969044771422 219,183.86533479473209 233,183.86533479473209 240,171.74097914174996" />
    <polyline points="254,171.74097914174996 261,183.86533479473209 254,195.98969044771422" />
    <polyline points="261,183.86533479473209 275,183.86533479473209 282,195.98969044771422" />
    <polyline points="275,183.86533479473209 282,171.74097914174996 296,171.74097914174996" />
    <line x1="296" y1="195.98969044771422" x2="303" y2="183.86533479473209" />
    <line x1="317" y1="183.86533479473209" x2="324" y2="195.98969044771422" />
    <line x1="324" y1="171.74097914174996" x2="338" y2="171.74097914174996" />
    <polyline points="345,183.86533479473209 359,183.86533479473209 366,195.98969044771422" />
    <line x1="366" y1="171.74097914174996" x2="380" y2="171.74097914174996" />
    <polyline points="380,195.98969044771422 387,183.86533479473209 401,183.86533479473209 408,195.98969044771422" />
    <polyline points="401,183.86533479473209 408,171.74097914174996 422,171.74097914174996" />
    <line x1="422" y1="195.98969044771422" x2="429" y2="183.86533479473209" />
    <line x1="443" y1="183.86533479473209" x2="450" y2="195.98969044771422" />
    <polyline points="471,183.86533479473209 485,183.86533479473209 492,195.98969044771422" />
    <line x1="492" y1="171.74097914174996" x2="506" y2="171.74097914174996" />
    <polyline points="506,195.98969044771422 513,183.86533479473209 527,183.86533479473209 534,171.74097914174996 548,171.74097914174996" />
    <polyline points="548,195.98969044771422 555,183.86533479473209 569,183.86533479473209 576,171.74097914174996 590,171.74097914174996 597,183.86533479473209 590,195.98969044771422" />
    <line x1="611" y1="183.86533479473209" x2="618" y2="195.98969044771422" />
    <polyline points="618,171.74097914174996 632,171.74097914174996 639,183.86533479473209 632,195.98969044771422" />
    <polyline points="639,183.86533479473209 653,183.86533479473209 660,171.74097914174996 674,171.74097914174996 681,183.86533479473209 695,183.86533479473209 702,195.98969044771422" />
    <polyline points="9,232.36275740666065 2,220.23840175367852 9,208.11404610069639 23,208.11404610069639 30,195.98969044771425 44,195.98969044771425 51,208.11404610069639 65,208.11404610069639 72,195.98969044771425 86,195.98969044771425" />
    <polyline points="86,220.23840175367852 93,208.11404610069639 107,208.11404610069639 114,195.98969044771425 128,195.98969044771425" />
    <line x1="128" y1="220.23840175367852" x2="135" y2="208.11404610069639" />
    <polyline points="156,220.23840175367852 149,208.11404610069639 156,195.98969044771425 170,195.98969044771425" />
    <polyline points="170,220.23840175367852 177,208.11404610069639 191,208.11404610069639 198,220.23840175367852" />
    <polyline points="198,195.98969044771425 212,195.98969044771425 219,208.11404610069639 233,208.11404610069639 240,195.98969044771425 254,195.98969044771425 261,208.11404610069639 254,220.23840175367852" />
    <polyline points="275,208.11404610069639 282,195.98969044771425 296,195.98969044771425" />
    <polyline points="296,220.23840175367852 303,208.11404610069639 317,208.11404610069639 324,220.23840175367852" />
    <polyline points="317,208.11404610069639 324,195.98969044771425 338,195.98969044771425" />
    <line x1="338" y1="220.23840175367852" x2="345" y2="208.11404610069639" />
    <polyline points="366,220.23840175367852 359,208.11404610069639 366,195.98969044771425 380,195.98969044771425" />
    <polyline points="380,220.23840175367852 387,208.11404610069639 401,208.11404610069639 408,220.23840175367852" />
    <line x1="401" y1="208.11404610069639" x2="408" y2="195.98969044771425" />
    <polyline points="422,195.98969044771425 429,208.11404610069639 422,220.23840175367852" />
    <polyline points="450,220.23840175367852 443,208.11404610069639 450,195.98969044771425 464,195.98969044771425 471,208.11404610069639 485,208.11404610069639 492,195.98969044771425 506,195.98969044771425" />
    <polyline points="506,220.23840175367852 513,208.11404610069639 527,208.11404610069639 534,220.23840175367852" />
    <polyline points="527,208.11404610069639 534,195.98969044771425 548,195.98969044771425" />
    <polyline points="548,220.23840175367852 555,208.11404610069639 569,208.11404610069639 576,220.23840175367852" />
    <line x1="569" y1="208.11404610069639" x2="576" y2="195.98969044771425" />
    <polyline points="590,220.23840175367852 597,208.11404610069639 611,208.11404610069639 618,195.98969044771425 632,195.98969044771425" />
    <polyline points="632,220.23840175367852 639,208.11404610069639 653,208.11404610069639 660,220.23840175367852" />
    <polyline points="653,208.11404610069639 660,195.98969044771425 674,195.98969044771425 681,208.11404610069639 695,208.11404610069639" />
    <polyline points="702,195.98969044771425 716,195.98969044771425 723,208.11404610069639 737,208.11404610069639 744,220.23840175367852 737,232.36275740666065" />
    <polyline points="9,256.61146871262497 2,244.48711305964281 9,232.36275740666068 23,232.36275740666068 30,244.48711305964281" />
    <polyline points="30,220.23840175367855 44,220.23840175367855 51,232.36275740666068 65,232.36275740666068 72,244.48711305964281" />
    <line x1="65" y1="232.36275740666068" x2="72" y2="220.23840175367855" />
    <line x1="86" y1="244.48711305964281" x2="93" y2="232.36275740666068" />
    <polyline points="114,244.48711305964281 107,232.36275740666068 114,220.23840175367855" />
    <polyline points="128,220.23840175367855 135,232.36275740666068 149,232.36275740666068 156,244.48711305964281" />
    <line x1="156" y1="220.23840175367855" x2="170" y2="220.23840175367855" />
    <line x1="170" y1="244.48711305964281" x2="177" y2="232.36275740666068" />
    <polyline points="198,244.48711305964281 191,232.36275740666068 198,220.23840175367855 212,220.23840175367855 219,232.36275740666068 233,232.36275740666068 240,220.23840175367855" />
    <polyline points="254,220.23840175367855 261,232.36275740666068 275,232.36275740666068 282,244.48711305964281" />
    <polyline points="275,232.36275740666068 282,220.23840175367855 296,220.23840175367855 303,232.36275740666068" />
    <line x1="317" y1="232.36275740666068" x2="324" y2="244.48711305964281" />
    <polyline points="338,220.23840175367855 345,232.36275740666068 338,244.48711305964281" />
    <polyline points="345,232.36275740666068 359,232.36275740666068 366,244.48711305964281" />
    <polyline points="380,220.23840175367855 387,232.36275740666068 380,244.48711305964281" />
    <line x1="387" y1="232.36275740666068" x2="401" y2="232.36275740666068" />
    <line x1="408" y1="220.23840175367855" x2="422" y2="220.23840175367855" />
    <polyline points="422,244.48711305964281 429,232.36275740666068 443,232.36275740666068 450,220.23840175367855" />
    <polyline points="464,220.23840175367855 471,232.36275740666068 464,244.48711305964281" />
    <polyline points="492,244.48711305964281 485,232.36275740666068 492,220.23840175367855" />
    <polyline points="513,232.36275740666068 527,232.36275740666068 534,244.48711305964281" />
    <polyline points="548,244.48711305964281 555,232.36275740666068 569,232.36275740666068 576,244.48711305964281" />
    <line x1="569" y1="232.36275740666068" x2="576" y2="220.23840175367855" />
    <polyline points="590,244.48711305964281 597,232.36275740666068 611,232.36275740666068 618,220.23840175367855 632,220.23840175367855 639,232.36275740666068 632,244.48711305964281" />
    <line x1="653" y1="232.36275740666068" x2="660" y2="244.48711305964281" />
    <polyline points="660,220.23840175367855 674,220.23840175367855 681,232.36275740666068" />
    <polyline points="702,244.48711305964281 695,232.36275740666068 702,220.23840175367855 716,220.23840175367855" />
    <line x1="716" y1="244.48711305964281" x2="723" y2="232.36275740666068" />
    <polyline points="737,232.36275740666068 744,244.48711305964281 737,256.61146871262497" />
    <polyline points="9,280.86018001858923 2,268.73582436560707 9,256.61146871262491" />
    <polyline points="23,256.61146871262491 30,244.48711305964278 44,244.48711305964278" />
    <polyline points="44,268.73582436560707 51,256.61146871262491 65,256.61146871262491 72,244.48711305964278" />
    <polyline points="86,244.48711305964278 93,256.61146871262491 86,268.73582436560707" />
    <polyline points="114,268.73582436560707 107,256.61146871262491 114,244.48711305964278 128,244.48711305964278 135,256.61146871262491 149,256.61146871262491 156,268.73582436560707" />
    <polyline points="149,256.61146871262491 156,244.48711305964278 170,244.48711305964278" />
    <line x1="170" y1="268.73582436560707" x2="177" y2="256.61146871262491" />
    <line x1="191" y1="256.61146871262491" x2="198" y2="268.73582436560707" />
    <polyline points="198,244.48711305964278 212,244.48711305964278 219,256.61146871262491 212,268.73582436560707" />
    <polyline points="240,268.73582436560707 233,256.61146871262491 240,244.48711305964278 254,244.48711305964278" />
    <line x1="254" y1="268.73582436560707" x2="261" y2="256.61146871262491" />
    <polyline points="282,268.73582436560707 275,256.61146871262491 282,244.48711305964278 296,244.48711305964278" />
    <polyline points="303,256.61146871262491 317,256.61146871262491 324,268.73582436560707" />
    <line x1="317" y1="256.61146871262491" x2="324" y2="244.48711305964278" />
    <polyline points="338,268.73582436560707 345,256.61146871262491 359,256.61146871262491 366,268.73582436560707" />
    <polyline points="366,244.48711305964278 380,244.48711305964278 387,256.61146871262491 380,268.73582436560707" />
    <polyline points="387,256.61146871262491 401,256.61146871262491 408,268.73582436560707" />
    <line x1="408" y1="244.48711305964278" x2="422" y2="244.48711305964278" />
    <line x1="422" y1="268.73582436560707" x2="429" y2="256.61146871262491" />
    <polyline points="450,268.73582436560707 443,256.61146871262491 450,244.48711305964278 464,244.48711305964278" />
    <polyline points="471,256.61146871262491 485,256.61146871262491 492,244.48711305964278 506,244.48711305964278 513,256.61146871262491 506,268.73582436560707" />
    <line x1="527" y1="256.61146871262491" x2="534" y2="268.73582436560707" />
    <line x1="534" y1="244.48711305964278" x2="548" y2="244.48711305964278" />
    <polyline points="548,268.73582436560707 555,256.61146871262491 569,256.61146871262491 576,268.73582436560707" />
    <polyline points="576,244.48711305964278 590,244.48711305964278 597,256.61146871262491" />
    <polyline points="618,268.73582436560707 611,256.61146871262491 618,244.48711305964278 632,244.48711305964278" />
    <polyline points="639,256.61146871262491 653,256.61146871262491 660,268.73582436560707" />
    <line x1="653" y1="256.61146871262491" x2="660" y2="244.48711305964278" />
    <polyline points="674,244.48711305964278 681,256.61146871262491 674,268.73582436560707" />
    <polyline points="681,256.61146871262491 695,256.61146871262491 702,244.48711305964278 716,244.48711305964278 723,256.61146871262491 716,268.73582436560707" />
    <polyline points="737,256.61146871262491 744,268.73582436560707 737,280.86018001858923" />
    <polyline points="9,305.1088913245535 2,292.98453567157134 9,280.86018001858918 23,280.86018001858918 30,268.735824365607 44,268.735824365607" />
    <polyline points="44,292.98453567157134 51,280.86018001858918 65,280.86018001858918 72,292.98453567157134" />
    <polyline points="65,280.86018001858918 72,268.735824365607 86,268.735824365607" />
    <line x1="86" y1="292.98453567157134" x2="93" y2="280.86018001858918" />
    <polyline points="114,292.98453567157134 107,280.86018001858918 114,268.735824365607" />
    <polyline points="128,268.735824365607 135,280.86018001858918 128,292.98453567157134" />
    <polyline points="135,280.86018001858918 149,280.86018001858918 156,292.98453567157134" />
    <polyline points="156,268.735824365607 170,268.735824365607 177,280.86018001858918 191,280.86018001858918" />
    <polyline points="198,268.735824365607 212,268.735824365607 219,280.86018001858918 212,292.98453567157134" />
    <polyline points="240,292.98453567157134 233,280.86018001858918 240,268.735824365607 254,268.735824365607" />
    <polyline points="254,292.98453567157134 261,280.86018001858918 275,280.86018001858918 282,292.98453567157134" />
    <polyline points="275,280.86018001858918 282,268.735824365607 296,268.735824365607" />
    <polyline points="296,292.98453567157134 303,280.86018001858918 317,280.86018001858918 324,268.735824365607 338,268.735824365607 345,280.86018001858918 338,292.98453567157134" />
    <polyline points="366,292.98453567157134 359,280.86018001858918 366,268.735824365607" />
    <polyline points="380,268.735824365607 387,280.86018001858918 380,292.98453567157134" />
    <polyline points="387,280.86018001858918 401,280.86018001858918 408,292.98453567157134" />
    <line x1="408" y1="268.735824365607" x2="422" y2="268.735824365607" />
    <polyline points="429,280.86018001858918 443,280.86018001858918 450,292.98453567157134" />
    <polyline points="443,280.86018001858918 450,268.735824365607 464,268.735824365607 471,280.86018001858918 485,280.86018001858918 492,292.98453567157134" />
    <polyline points="492,268.735824365607 506,268.735824365607 513,280.86018001858918 506,292.98453567157134" />
    <polyline points="513,280.86018001858918 527,280.86018001858918 534,292.98453567157134" />
    <line x1="527" y1="280.86018001858918" x2="534" y2="268.735824365607" />
    <line x1="548" y1="292.98453567157134" x2="555" y2="280.86018001858918" />
    <polyline points="576,292.98453567157134 569,280.86018001858918 576,268.735824365607" />
    <polyline points="590,268.735824365607 597,280.86018001858918 590,292.98453567157134" />
    <polyline points="597,280.86018001858918 611,280.86018001858918 618,292.98453567157134" />
    <polyline points="618,268.735824365607 632,268.735824365607 639,280.86018001858918 632,292.98453567157134" />
    <polyline points="660,292.98453567157134 653,280.86018001858918 660,268.735824365607" />
    <polyline points="674,268.735824365607 681,280.86018001858918 674,292.98453567157134" />
    <polyline points="681,280.86018001858918 695,280.86018001858918 702,292.98453567157134" />
    <line x1="695" y1="280.86018001858918" x2="702" y2="268.735824365607" />
    <polyline points="716,268.735824365607 723,280.86018001858918 716,292.98453567157134" />
    <polyline points="737,280.86018001858918 744,292.98453567157134 737,305.1088913245535" />
    <polyline points="9,329.35760263051782 2,317.23324697753566 9,305.1088913245535" />
    <polyline points="30,317.23324697753566 23,305.1088913245535 30,292.98453567157134 44,292.98453567157134" />
    <polyline points="44,317.23324697753566 51,305.1088913245535 65,305.1088913245535" />
    <line x1="72" y1="292.98453567157134" x2="86" y2="292.98453567157134" />
    <polyline points="86,317.23324697753566 93,305.1088913245535 107,305.1088913245535 114,317.23324697753566" />
    <line x1="114" y1="292.98453567157134" x2="128" y2="292.98453567157134" />
    <line x1="128" y1="317.23324697753566" x2="135" y2="305.1088913245535" />
    <polyline points="149,305.1088913245535 156,292.98453567157134 170,292.98453567157134 177,305.1088913245535 170,317.23324697753566" />
    <polyline points="177,305.1088913245535 191,305.1088913245535 198,317.23324697753566" />
    <polyline points="191,305.1088913245535 198,292.98453567157134 212,292.98453567157134" />
    <polyline points="219,305.1088913245535 233,305.1088913245535 240,317.23324697753566" />
    <line x1="233" y1="305.1088913245535" x2="240" y2="292.98453567157134" />
    <polyline points="254,292.98453567157134 261,305.1088913245535 254,317.23324697753566" />
    <line x1="261" y1="305.1088913245535" x2="275" y2="305.1088913245535" />
    <line x1="282" y1="292.98453567157134" x2="296" y2="292.98453567157134" />
    <polyline points="296,317.23324697753566 303,305.1088913245535 317,305.1088913245535 324,292.98453567157134" />
    <polyline points="338,292.98453567157134 345,305.1088913245535 338,317.23324697753566" />
    <line x1="359" y1="305.1088913245535" x2="366" y2="292.98453567157134" />
    <polyline points="387,305.1088913245535 401,305.1088913245535 408,317.23324697753566" />
    <polyline points="401,305.1088913245535 408,292.98453567157134 422,292.98453567157134" />
    <polyline points="429,305.1088913245535 443,305.1088913245535 450,292.98453567157134 464,292.98453567157134 471,305.1088913245535 464,317.23324697753566" />
    <polyline points="492,317.23324697753566 485,305.1088913245535 492,292.98453567157134" />
    <polyline points="506,292.98453567157134 513,305.1088913245535 527,305.1088913245535 534,317.23324697753566" />
    <polyline points="534,292.98453567157134 548,292.98453567157134 555,305.1088913245535 548,317.23324697753566" />
    <polyline points="555,305.1088913245535 569,305.1088913245535 576,292.98453567157134" />
    <polyline points="590,317.23324697753566 597,305.1088913245535 611,305.1088913245535 618,292.98453567157134 632,292.98453567157134 639,305.1088913245535 632,317.23324697753566" />
    <polyline points="653,305.1088913245535 660,292.98453567157134 674,292.98453567157134" />
    <line x1="674" y1="317.23324697753566" x2="681" y2="305.1088913245535" />
    <polyline points="702,317.23324697753566 695,305.1088913245535 702,292.98453567157134" />
    <line x1="716" y1="292.98453567157134" x2="723" y2="305.1088913245535" />
    <polyline points="737,305.1088913245535 744,317.23324697753566 737,329.35760263051782" />
    <polyline points="9,353.60631393648208 2,341.48195828349992 9,329.35760263051776" />
    <polyline points="23,329.35760263051776 30,317.2332469775356 44,317.2332469775356 51,329.35760263051776 65,329.35760263051776 72,341.48195828349992" />
    <line x1="65" y1="329.35760263051776" x2="72" y2="317.2332469775356" />
    <polyline points="86,317.2332469775356 93,329.35760263051776 86,341.48195828349992" />
    <line x1="107" y1="329.35760263051776" x2="114" y2="341.48195828349992" />
    <polyline points="128,317.2332469775356 135,329.35760263051776 149,329.35760263051776 156,317.2332469775356 170,317.2332469775356" />
    <polyline points="177,329.35760263051776 191,329.35760263051776 198,317.2332469775356 212,317.2332469775356 219,329.35760263051776 212,341.48195828349992" />
    <line x1="233" y1="329.35760263051776" x2="240" y2="341.48195828349992" />
    <line x1="240" y1="317.2332469775356" x2="254" y2="317.2332469775356" />
    <polyline points="254,341.48195828349992 261,329.35760263051776 275,329.35760263051776 282,341.48195828349992" />
    <polyline points="275,329.35760263051776 282,317.2332469775356 296,317.2332469775356 303,329.35760263051776 317,329.35760263051776 324,317.2332469775356 338,317.2332469775356 345,329.35760263051776 338,341.48195828349992" />
    <polyline points="345,329.35760263051776 359,329.35760263051776 366,317.2332469775356 380,317.2332469775356" />
    <line x1="380" y1="341.48195828349992" x2="387" y2="329.35760263051776" />
    <polyline points="408,341.48195828349992 401,329.35760263051776 408,317.2332469775356" />
    <polyline points="422,317.2332469775356 429,329.35760263051776 422,341.48195828349992" />
    <polyline points="429,329.35760263051776 443,329.35760263051776 450,341.48195828349992" />
    <line x1="443" y1="329.35760263051776" x2="450" y2="317.2332469775356" />
    <polyline points="464,317.2332469775356 471,329.35760263051776 464,341.48195828349992" />
    <polyline points="471,329.35760263051776 485,329.35760263051776 492,341.48195828349992" />
    <line x1="492" y1="317.2332469775356" x2="506" y2="317.2332469775356" />
    <polyline points="513,329.35760263051776 527,329.35760263051776 534,317.2332469775356" />
    <polyline points="548,317.2332469775356 555,329.35760263051776 569,329.35760263051776 576,317.2332469775356 590,317.2332469775356" />
    <polyline points="590,341.48195828349992 597,329.35760263051776 611,329.35760263051776 618,341.48195828349992" />
    <polyline points="611,329.35760263051776 618,317.2332469775356 632,317.2332469775356 639,329.35760263051776 653,329.35760263051776 660,341.48195828349992" />
    <polyline points="653,329.35760263051776 660,317.2332469775356 674,317.2332469775356" />
    <polyline points="674,341.48195828349992 681,329.35760263051776 695,329.35760263051776 702,317.2332469775356 716,317.2332469775356 723,329.35760263051776 716,341.48195828349992" />
    <polyline points="737,329.35760263051776 744,341.48195828349992 737,353.60631393648208" />
    <polyline points="9,377.85502524244635 2,365.73066958946418 9,353.606313936482 23,353.606313936482 30,341.48195828349986 44,341.48195828349986 51,353.606313936482 44,365.73066958946418" />
    <polyline points="72,365.73066958946418 65,353.606313936482 72,341.48195828349986" />
    <polyline points="86,341.48195828349986 93,353.606313936482 107,353.606313936482 114,341.48195828349986 128,341.48195828349986 135,353.606313936482 128,365.73066958946418" />
    <polyline points="135,353.606313936482 149,353.606313936482 156,365.73066958946418" />
    <polyline points="149,353.606313936482 156,341.48195828349986 170,341.48195828349986 177,353.606313936482" />
    <line x1="191" y1="353.606313936482" x2="198" y2="365.73066958946418" />
    <polyline points="198,341.48195828349986 212,341.48195828349986 219,353.606313936482 212,365.73066958946418" />
    <polyline points="219,353.606313936482 233,353.606313936482 240,341.48195828349986" />
    <polyline points="254,341.48195828349986 261,353.606313936482 254,365.73066958946418" />
    <polyline points="261,353.606313936482 275,353.606313936482 282,365.73066958946418" />
    <polyline points="296,341.48195828349986 303,353.606313936482 296,365.73066958946418" />
    <polyline points="303,353.606313936482 317,353.606313936482 324,365.73066958946418" />
    <line x1="317" y1="353.606313936482" x2="324" y2="341.48195828349986" />
    <line x1="338" y1="341.48195828349986" x2="345" y2="353.606313936482" />
    <line x1="359" y1="353.606313936482" x2="366" y2="365.73066958946418" />
    <polyline points="366,341.48195828349986 380,341.48195828349986 387,353.606313936482 380,365.73066958946418" />
    <polyline points="401,353.606313936482 408,341.48195828349986 422,341.48195828349986 429,353.606313936482 443,353.606313936482" />
    <polyline points="450,341.48195828349986 464,341.48195828349986 471,353.606313936482 464,365.73066958946418" />
    <polyline points="492,365.73066958946418 485,353.606313936482 492,341.48195828349986 506,341.48195828349986" />
    <polyline points="506,365.73066958946418 513,353.606313936482 527,353.606313936482 534,341.48195828349986 548,341.48195828349986" />
    <polyline points="555,353.606313936482 569,353.606313936482 576,365.73066958946418" />
    <line x1="576" y1="341.48195828349986" x2="590" y2="341.48195828349986" />
    <polyline points="590,365.73066958946418 597,353.606313936482 611,353.606313936482 618,341.48195828349986" />
    <polyline points="632,341.48195828349986 639,353.606313936482 632,365.73066958946418" />
    <polyline points="639,353.606313936482 653,353.606313936482 660,365.73066958946418" />
    <line x1="660" y1="341.48195828349986" x2="674" y2="341.48195828349986" />
    <line x1="674" y1="365.73066958946418" x2="681" y2="353.606313936482" />
    <polyline points="702,365.73066958946418 695,353.606313936482 702,341.48195828349986" />
    <polyline points="723,353.606313936482 737,353.606313936482 744,365.73066958946418 737,377.85502524244635" />
    <polyline points="9,402.10373654841067 2,389.97938089542851 9,377.85502524244635 23,377.85502524244635 30,389.97938089542851" />
    <line x1="30" y1="365.73066958946418" x2="44" y2="365.73066958946418" />
    <polyline points="44,389.97938089542851 51,377.85502524244635 65,377.85502524244635 72,389.97938089542851" />
    <polyline points="65,377.85502524244635 72,365.73066958946418 86,365.73066958946418" />
    <line x1="86" y1="389.97938089542851" x2="93" y2="377.85502524244635" />
    <polyline points="114,389.97938089542851 107,377.85502524244635 114,365.73066958946418" />
    <polyline points="128,365.73066958946418 135,377.85502524244635 128,389.97938089542851" />
    <line x1="149" y1="377.85502524244635" x2="156" y2="389.97938089542851" />
    <polyline points="156,365.73066958946418 170,365.73066958946418 177,377.85502524244635" />
    <polyline points="198,389.97938089542851 191,377.85502524244635 198,365.73066958946418 212,365.73066958946418 219,377.85502524244635 233,377.85502524244635 240,389.97938089542851" />
    <polyline points="240,365.73066958946418 254,365.73066958946418 261,377.85502524244635 254,389.97938089542851" />
    <polyline points="261,377.85502524244635 275,377.85502524244635 282,389.97938089542851" />
    <polyline points="296,365.73066958946418 303,377.85502524244635 296,389.97938089542851" />
    <polyline points="324,389.97938089542851 317,377.85502524244635 324,365.73066958946418" />
    <polyline points="338,365.73066958946418 345,377.85502524244635 359,377.85502524244635 366,389.97938089542851" />
    <polyline points="359,377.85502524244635 366,365.73066958946418 380,365.73066958946418 387,377.85502524244635 401,377.85502524244635 408,365.73066958946418 422,365.73066958946418 429,377.85502524244635 443,377.85502524244635 450,365.73066958946418 464,365.73066958946418 471,377.85502524244635 485,377.85502524244635 492,389.97938089542851" />
    <line x1="492" y1="365.73066958946418" x2="506" y2="365.73066958946418" />
    <polyline points="506,389.97938089542851 513,377.85502524244635 527,377.85502524244635 534,389.97938089542851" />
    <polyline points="534,365.73066958946418 548,365.73066958946418 555,377.85502524244635 569,377.85502524244635 576,389.97938089542851" />
    <polyline points="576,365.73066958946418 590,365.73066958946418 597,377.85502524244635 611,377.85502524244635 618,365.73066958946418 632,365.73066958946418 639,377.85502524244635 632,389.97938089542851" />
    <polyline points="660,389.97938089542851 653,377.85502524244635 660,365.73066958946418 674,365.73066958946418" />
    <polyline points="681,377.85502524244635 695,377.85502524244635 702,389.97938089542851" />
    <polyline points="695,377.85502524244635 702,365.73066958946418 716,365.73066958946418 723,377.85502524244635" />
    <polyline points="737,377.85502524244635 744,389.97938089542851 737,402.10373654841067" />
    <polyline points="9,426.35244785437493 2,414.22809220139277 9,402.10373654841061" />
    <line x1="23" y1="402.10373654841061" x2="30" y2="414.22809220139277" />
    <polyline points="44,389.97938089542845 51,402.10373654841061 44,414.22809220139277" />
    <polyline points="51,402.10373654841061 65,402.10373654841061 72,414.22809220139277" />
    <polyline points="86,389.97938089542845 93,402.10373654841061 86,414.22809220139277" />
    <line x1="107" y1="402.10373654841061" x2="114" y2="414.22809220139277" />
    <polyline points="114,389.97938089542845 128,389.97938089542845 135,402.10373654841061 128,414.22809220139277" />
    <line x1="149" y1="402.10373654841061" x2="156" y2="414.22809220139277" />
    <polyline points="156,389.97938089542845 170,389.97938089542845 177,402.10373654841061 170,414.22809220139277" />
    <polyline points="198,414.22809220139277 191,402.10373654841061 198,389.97938089542845 212,389.97938089542845" />
    <polyline points="219,402.10373654841061 233,402.10373654841061 240,414.22809220139277" />
    <line x1="233" y1="402.10373654841061" x2="240" y2="389.97938089542845" />
    <line x1="254" y1="389.97938089542845" x2="261" y2="402.10373654841061" />
    <polyline points="282,414.22809220139277 275,402.10373654841061 282,389.97938089542845 296,389.97938089542845" />
    <polyline points="296,414.22809220139277 303,402.10373654841061 317,402.10373654841061 324,414.22809220139277" />
    <polyline points="317,402.10373654841061 324,389.97938089542845 338,389.97938089542845" />
    <polyline points="338,414.22809220139277 345,402.10373654841061 359,402.10373654841061 366,414.22809220139277" />
    <polyline points="380,389.97938089542845 387,402.10373654841061 401,402.10373654841061 408,414.22809220139277" />
    <polyline points="401,402.10373654841061 408,389.97938089542845 422,389.97938089542845 429,402.10373654841061 443,402.10373654841061 450,389.97938089542845 464,389.97938089542845 471,402.10373654841061 485,402.10373654841061 492,414.22809220139277" />
    <polyline points="492,389.97938089542845 506,389.97938089542845 513,402.10373654841061" />
    <polyline points="534,414.22809220139277 527,402.10373654841061 534,389.97938089542845 548,389.97938089542845" />
    <polyline points="548,414.22809220139277 555,402.10373654841061 569,402.10373654841061 576,414.22809220139277" />
    <polyline points="576,389.97938089542845 590,389.97938089542845 597,402.10373654841061 590,414.22809220139277" />
    <polyline points="597,402.10373654841061 611,402.10373654841061 618,389.97938089542845" />
    <polyline points="632,389.97938089542845 639,402.10373654841061 632,414.22809220139277" />
    <polyline points="660,414.22809220139277 653,402.10373654841061 660,389.97938089542845 674,389.97938089542845 681,402.10373654841061 695,402.10373654841061" />
    <polyline points="702,389.97938089542845 716,389.97938089542845 723,402.10373654841061 737,402.10373654841061 744,414.22809220139277 737,426.35244785437493" />
    <polyline points="9,450.60115916033919 2,438.47680350735703 9,426.35244785437487" />
    <polyline points="30,438.47680350735703 23,426.35244785437487 30,414.22809220139271 44,414.22809220139271" />
    <line x1="44" y1="438.47680350735703" x2="51" y2="426.35244785437487" />
    <line x1="65" y1="426.35244785437487" x2="72" y2="438.47680350735703" />
    <polyline points="86,414.22809220139271 93,426.35244785437487 86,438.47680350735703" />
    <polyline points="114,438.47680350735703 107,426.35244785437487 114,414.22809220139271 128,414.22809220139271" />
    <polyline points="128,438.47680350735703 135,426.35244785437487 149,426.35244785437487 156,414.22809220139271 170,414.22809220139271" />
    <line x1="170" y1="438.47680350735703" x2="177" y2="426.35244785437487" />
    <polyline points="191,426.35244785437487 198,414.22809220139271 212,414.22809220139271 219,426.35244785437487 212,438.47680350735703" />
    <line x1="233" y1="426.35244785437487" x2="240" y2="414.22809220139271" />
    <polyline points="254,414.22809220139271 261,426.35244785437487 254,438.47680350735703" />
    <polyline points="261,426.35244785437487 275,426.35244785437487 282,414.22809220139271" />
    <line x1="296" y1="414.22809220139271" x2="303" y2="426.35244785437487" />
    <polyline points="324,438.47680350735703 317,426.35244785437487 324,414.22809220139271 338,414.22809220139271" />
    <polyline points="338,438.47680350735703 345,426.35244785437487 359,426.35244785437487" />
    <polyline points="366,414.22809220139271 380,414.22809220139271 387,426.35244785437487 401,426.35244785437487" />
    <polyline points="408,414.22809220139271 422,414.22809220139271 429,426.35244785437487 422,438.47680350735703" />
    <polyline points="443,426.35244785437487 450,414.22809220139271 464,414.22809220139271 471,426.35244785437487 464,438.47680350735703" />
    <polyline points="492,438.47680350735703 485,426.35244785437487 492,414.22809220139271 506,414.22809220139271 513,426.35244785437487 527,426.35244785437487 534,414.22809220139271" />
    <line x1="548" y1="438.47680350735703" x2="555" y2="426.35244785437487" />
    <line x1="569" y1="426.35244785437487" x2="576" y2="438.47680350735703" />
    <polyline points="576,414.22809220139271 590,414.22809220139271 597,426.35244785437487 590,438.47680350735703" />
    <line x1="597" y1="426.35244785437487" x2="611" y2="426.35244785437487" />
    <polyline points="618,414.22809220139271 632,414.22809220139271 639,426.35244785437487 632,438.47680350735703" />
    <line x1="653" y1="426.35244785437487" x2="660" y2="414.22809220139271" />
    <polyline points="674,414.22809220139271 681,426.35244785437487 674,438.47680350735703" />
    <polyline points="702,438.47680350735703 695,426.35244785437487 702,414.22809220139271" />
    <polyline points="716,414.22809220139271 723,426.35244785437487 716,438.47680350735703" />
    <polyline points="723,426.35244785437487 737,426.35244785437487 744,438.47680350735703 737,450.60115916033919" />
    <polyline points="9,474.84987046630351 2,462.72551481332135 9,450.60115916033919 23,450.60115916033919 30,462.72551481332135" />
    <polyline points="30,438.47680350735703 44,438.47680350735703 51,450.60115916033919 44,462.72551481332135" />
    <polyline points="51,450.60115916033919 65,450.60115916033919 72,462.72551481332135" />
    <line x1="65" y1="450.60115916033919" x2="72" y2="438.47680350735703" />
    <polyline points="86,438.47680350735703 93,450.60115916033919 86,462.72551481332135" />
    <polyline points="93,450.60115916033919 107,450.60115916033919 114,462.72551481332135" />
    <polyline points="114,438.47680350735703 128,438.47680350735703 135,450.60115916033919 128,462.72551481332135" />
    <polyline points="156,462.72551481332135 149,450.60115916033919 156,438.47680350735703" />
    <polyline points="170,438.47680350735703 177,450.60115916033919 170,462.72551481332135" />
    <polyline points="198,462.72551481332135 191,450.60115916033919 198,438.47680350735703" />
    <polyline points="212,438.47680350735703 219,450.60115916033919 233,450.60115916033919 240,462.72551481332135" />
    <polyline points="233,450.60115916033919 240,438.47680350735703 254,438.47680350735703 261,450.60115916033919 275,450.60115916033919 282,462.72551481332135" />
    <polyline points="275,450.60115916033919 282,438.47680350735703 296,438.47680350735703 303,450.60115916033919 296,462.72551481332135" />
    <line x1="317" y1="450.60115916033919" x2="324" y2="438.47680350735703" />
    <polyline points="338,438.47680350735703 345,450.60115916033919 338,462.72551481332135" />
    <polyline points="366,462.72551481332135 359,450.60115916033919 366,438.47680350735703 380,438.47680350735703 387,450.60115916033919" />
    <polyline points="408,462.72551481332135 401,450.60115916033919 408,438.47680350735703 422,438.47680350735703" />
    <polyline points="422,462.72551481332135 429,450.60115916033919 443,450.60115916033919 450,438.47680350735703 464,438.47680350735703 471,450.60115916033919 464,462.72551481332135" />
    <polyline points="471,450.60115916033919 485,450.60115916033919 492,462.72551481332135" />
    <polyline points="506,438.47680350735703 513,450.60115916033919 506,462.72551481332135" />
    <polyline points="513,450.60115916033919 527,450.60115916033919 534,462.72551481332135" />
    <polyline points="527,450.60115916033919 534,438.47680350735703 548,438.47680350735703 555,450.60115916033919" />
    <polyline points="576,462.72551481332135 569,450.60115916033919 576,438.47680350735703" />
    <polyline points="590,438.47680350735703 597,450.60115916033919 611,450.60115916033919 618,438.47680350735703 632,438.47680350735703 639,450.60115916033919 632,462.72551481332135" />
    <polyline points="639,450.60115916033919 653,450.60115916033919 660,438.47680350735703 674,438.47680350735703 681,450.60115916033919 674,462.72551481332135" />
    <polyline points="681,450.60115916033919 695,450.60115916033919 702,438.47680350735703 716,438.47680350735703" />
    <line x1="716" y1="462.72551481332135" x2="723" y2="450.60115916033919" />
    <polyline points="737,450.60115916033919 744,462.72551481332135 737,474.84987046630351" />
    <polyline points="9,499.09858177226778 2,486.97422611928562 9,474.84987046630346" />
    <line x1="23" y1="474.84987046630346" x2="30" y2="486.97422611928562" />
    <line x1="30" y1="462.7255148133213" x2="44" y2="462.7255148133213" />
    <line x1="44" y1="486.97422611928562" x2="51" y2="474.84987046630346" />
    <line x1="65" y1="474.84987046630346" x2="72" y2="462.7255148133213" />
    <line x1="86" y1="486.97422611928562" x2="93" y2="474.84987046630346" />
    <polyline points="114,486.97422611928562 107,474.84987046630346 114,462.7255148133213 128,462.7255148133213 135,474.84987046630346 149,474.84987046630346" />
    <polyline points="156,462.7255148133213 170,462.7255148133213 177,474.84987046630346 170,486.97422611928562" />
    <line x1="177" y1="474.84987046630346" x2="191" y2="474.84987046630346" />
    <polyline points="198,462.7255148133213 212,462.7255148133213 219,474.84987046630346 212,486.97422611928562" />
    <polyline points="233,474.84987046630346 240,462.7255148133213 254,462.7255148133213 261,474.84987046630346" />
    <polyline points="282,486.97422611928562 275,474.84987046630346 282,462.7255148133213" />
    <polyline points="296,462.7255148133213 303,474.84987046630346 317,474.84987046630346 324,462.7255148133213 338,462.7255148133213 345,474.84987046630346 338,486.97422611928562" />
    <polyline points="366,486.97422611928562 359,474.84987046630346 366,462.7255148133213 380,462.7255148133213" />
    <line x1="380" y1="486.97422611928562" x2="387" y2="474.84987046630346" />
    <polyline points="408,486.97422611928562 401,474.84987046630346 408,462.7255148133213 422,462.7255148133213 429,474.84987046630346" />
    <polyline points="450,486.97422611928562 443,474.84987046630346 450,462.7255148133213 464,462.7255148133213" />
    <polyline points="471,474.84987046630346 485,474.84987046630346 492,486.97422611928562" />
    <line x1="492" y1="462.7255148133213" x2="506" y2="462.7255148133213" />
    <polyline points="506,486.97422611928562 513,474.84987046630346 527,474.84987046630346 534,486.97422611928562" />
    <line x1="534" y1="462.7255148133213" x2="548" y2="462.7255148133213" />
    <polyline points="548,486.97422611928562 555,474.84987046630346 569,474.84987046630346 576,462.7255148133213 590,462.7255148133213" />
    <line x1="590" y1="486.97422611928562" x2="597" y2="474.84987046630346" />
    <line x1="611" y1="474.84987046630346" x2="618" y2="486.97422611928562" />
    <line x1="618" y1="462.7255148133213" x2="632" y2="462.7255148133213" />
    <polyline points="632,486.97422611928562 639,474.84987046630346 653,474.84987046630346 660,486.97422611928562" />
    <polyline points="653,474.84987046630346 660,462.7255148133213 674,462.7255148133213" />
    <polyline points="674,486.97422611928562 681,474.84987046630346 695,474.84987046630346 702,462.7255148133213 716,462.7255148133213" />
    <polyline points="723,474.84987046630346 737,474.84987046630346 744,486.97422611928562 737,499.09858177226778" />
    <polyline points="9,523.347293078232 2,511.22293742524988 9,499.09858177226772" />
    <polyline points="30,511.22293742524988 23,499.09858177226772 30,486.97422611928556 44,486.97422611928556 51,499.09858177226772 65,499.09858177226772 72,511.22293742524988" />
    <polyline points="65,499.09858177226772 72,486.97422611928556 86,486.97422611928556" />
    <polyline points="86,511.22293742524988 93,499.09858177226772 107,499.09858177226772 114,486.97422611928556 128,486.97422611928556 135,499.09858177226772" />
    <polyline points="149,499.09858177226772 156,486.97422611928556 170,486.97422611928556 177,499.09858177226772 170,511.22293742524988" />
    <polyline points="198,511.22293742524988 191,499.09858177226772 198,486.97422611928556" />
    <polyline points="212,486.97422611928556 219,499.09858177226772 212,511.22293742524988" />
    <polyline points="240,511.22293742524988 233,499.09858177226772 240,486.97422611928556 254,486.97422611928556 261,499.09858177226772 254,511.22293742524988" />
    <polyline points="261,499.09858177226772 275,499.09858177226772 282,511.22293742524988" />
    <line x1="275" y1="499.09858177226772" x2="282" y2="486.97422611928556" />
    <polyline points="296,486.97422611928556 303,499.09858177226772 317,499.09858177226772 324,511.22293742524988" />
    <polyline points="324,486.97422611928556 338,486.97422611928556 345,499.09858177226772 359,499.09858177226772 366,511.22293742524988" />
    <polyline points="366,486.97422611928556 380,486.97422611928556 387,499.09858177226772 380,511.22293742524988" />
    <polyline points="408,511.22293742524988 401,499.09858177226772 408,486.97422611928556" />
    <polyline points="422,486.97422611928556 429,499.09858177226772 422,511.22293742524988" />
    <polyline points="429,499.09858177226772 443,499.09858177226772 450,511.22293742524988" />
    <polyline points="443,499.09858177226772 450,486.97422611928556 464,486.97422611928556 471,499.09858177226772" />
    <polyline points="492,511.22293742524988 485,499.09858177226772 492,486.97422611928556 506,486.97422611928556" />
    <polyline points="513,499.09858177226772 527,499.09858177226772 534,511.22293742524988" />
    <line x1="534" y1="486.97422611928556" x2="548" y2="486.97422611928556" />
    <polyline points="548,511.22293742524988 555,499.09858177226772 569,499.09858177226772 576,511.22293742524988" />
    <line x1="569" y1="499.09858177226772" x2="576" y2="486.97422611928556" />
    <polyline points="590,486.97422611928556 597,499.09858177226772 590,511.22293742524988" />
    <polyline points="597,499.09858177226772 611,499.09858177226772 618,511.22293742524988" />
    <polyline points="611,499.09858177226772 618,486.97422611928556 632,486.97422611928556 639,499.09858177226772 632,511.22293742524988" />
    <line x1="653" y1="499.09858177226772" x2="660" y2="511.22293742524988" />
    <polyline points="674,486.97422611928556 681,499.09858177226772 674,511.22293742524988" />
    <polyline points="681,499.09858177226772 695,499.09858177226772 702,511.22293742524988" />
    <polyline points="702,486.97422611928556 716,486.97422611928556 723,499.09858177226772 737,499.09858177226772 744,511.22293742524988 737,523.347293078232" />
    <polyline points="9,547.59600438419625 2,535.47164873121415 9,523.347293078232" />
    <line x1="23" y1="523.347293078232" x2="30" y2="535.47164873121415" />
    <line x1="30" y1="511.22293742524988" x2="44" y2="511.22293742524988" />
    <polyline points="51,523.347293078232 65,523.347293078232 72,535.47164873121415" />
    <polyline points="65,523.347293078232 72,511.22293742524988 86,511.22293742524988 93,523.347293078232 86,535.47164873121415" />
    <polyline points="114,535.47164873121415 107,523.347293078232 114,511.22293742524988" />
    <polyline points="128,511.22293742524988 135,523.347293078232 128,535.47164873121415" />
    <polyline points="149,523.347293078232 156,511.22293742524988 170,511.22293742524988 177,523.347293078232 170,535.47164873121415" />
    <polyline points="177,523.347293078232 191,523.347293078232 198,535.47164873121415" />
    <polyline points="191,523.347293078232 198,511.22293742524988 212,511.22293742524988 219,523.347293078232 233,523.347293078232 240,535.47164873121415" />
    <line x1="233" y1="523.347293078232" x2="240" y2="511.22293742524988" />
    <polyline points="254,535.47164873121415 261,523.347293078232 275,523.347293078232" />
    <polyline points="282,511.22293742524988 296,511.22293742524988 303,523.347293078232 296,535.47164873121415" />
    <polyline points="324,535.47164873121415 317,523.347293078232 324,511.22293742524988 338,511.22293742524988" />
    <polyline points="345,523.347293078232 359,523.347293078232 366,511.22293742524988 380,511.22293742524988 387,523.347293078232 380,535.47164873121415" />
    <polyline points="387,523.347293078232 401,523.347293078232 408,535.47164873121415" />
    <polyline points="422,535.47164873121415 429,523.347293078232 443,523.347293078232 450,535.47164873121415" />
    <polyline points="450,511.22293742524988 464,511.22293742524988 471,523.347293078232 464,535.47164873121415" />
    <polyline points="471,523.347293078232 485,523.347293078232 492,511.22293742524988" />
    <polyline points="506,511.22293742524988 513,523.347293078232 527,523.347293078232 534,511.22293742524988 548,511.22293742524988" />
    <line x1="548" y1="535.47164873121415" x2="555" y2="523.347293078232" />
    <polyline points="576,535.47164873121415 569,523.347293078232 576,511.22293742524988" />
    <polyline points="597,523.347293078232 611,523.347293078232 618,535.47164873121415" />
    <line x1="611" y1="523.347293078232" x2="618" y2="511.22293742524988" />
    <polyline points="632,511.22293742524988 639,523.347293078232 632,535.47164873121415" />
    <line x1="653" y1="523.347293078232" x2="660" y2="535.47164873121415" />
    <polyline points="660,511.22293742524988 674,511.22293742524988 681,523.347293078232 674,535.47164873121415" />
    <line x1="695" y1="523.347293078232" x2="702" y2="535.47164873121415" />
    <line x1="702" y1="511.22293742524988" x2="716" y2="511.22293742524988" />
    <polyline points="716,535.47164873121415 723,523.347293078232 737,523.347293078232 744,535.47164873121415 737,547.59600438419625" />
    <polyline points="9,571.84471569016046 2,559.72036003717835 9,547.59600438419625" />
    <polyline points="23,547.59600438419625 30,535.47164873121415 44,535.47164873121415 51,547.59600438419625 44,559.72036003717835" />
    <polyline points="51,547.59600438419625 65,547.59600438419625 72,559.72036003717835" />
    <line x1="65" y1="547.59600438419625" x2="72" y2="535.47164873121415" />
    <polyline points="86,535.47164873121415 93,547.59600438419625 86,559.72036003717835" />
    <polyline points="114,559.72036003717835 107,547.59600438419625 114,535.47164873121415 128,535.47164873121415 135,547.59600438419625 128,559.72036003717835" />
    <polyline points="135,547.59600438419625 149,547.59600438419625 156,535.47164873121415" />
    <polyline points="170,535.47164873121415 177,547.59600438419625 170,559.72036003717835" />
    <polyline points="198,559.72036003717835 191,547.59600438419625 198,535.47164873121415" />
    <polyline points="212,535.47164873121415 219,547.59600438419625 233,547.59600438419625 240,535.47164873121415 254,535.47164873121415" />
    <line x1="254" y1="559.72036003717835" x2="261" y2="547.59600438419625" />
    <polyline points="282,559.72036003717835 275,547.59600438419625 282,535.47164873121415 296,535.47164873121415 303,547.59600438419625 296,559.72036003717835" />
    <polyline points="324,559.72036003717835 317,547.59600438419625 324,535.47164873121415" />
    <polyline points="338,535.47164873121415 345,547.59600438419625 338,559.72036003717835" />
    <polyline points="345,547.59600438419625 359,547.59600438419625 366,559.72036003717835" />
    <line x1="359" y1="547.59600438419625" x2="366" y2="535.47164873121415" />
    <polyline points="380,559.72036003717835 387,547.59600438419625 401,547.59600438419625 408,559.72036003717835" />
    <line x1="408" y1="535.47164873121415" x2="422" y2="535.47164873121415" />
    <polyline points="429,547.59600438419625 443,547.59600438419625 450,559.72036003717835" />
    <line x1="443" y1="547.59600438419625" x2="450" y2="535.47164873121415" />
    <polyline points="464,535.47164873121415 471,547.59600438419625 464,559.72036003717835" />
    <line x1="485" y1="547.59600438419625" x2="492" y2="559.72036003717835" />
    <polyline points="492,535.47164873121415 506,535.47164873121415 513,547.59600438419625 527,547.59600438419625 534,559.72036003717835" />
    <polyline points="534,535.47164873121415 548,535.47164873121415 555,547.59600438419625 548,559.72036003717835" />
    <polyline points="555,547.59600438419625 569,547.59600438419625 576,559.72036003717835" />
    <polyline points="569,547.59600438419625 576,535.47164873121415 590,535.47164873121415" />
    <line x1="590" y1="559.72036003717835" x2="597" y2="547.59600438419625" />
    <line x1="611" y1="547.59600438419625" x2="618" y2="559.72036003717835" />
    <polyline points="632,559.72036003717835 639,547.59600438419625 653,547.59600438419625" />
    <polyline points="660,535.47164873121415 674,535.47164873121415 681,547.59600438419625 674,559.72036003717835" />
    <polyline points="681,547.59600438419625 695,547.59600438419625 702,559.72036003717835" />
    <polyline points="695,547.59600438419625 702,535.47164873121415 716,535.47164873121415" />
    <line x1="716" y1="559.72036003717835" x2="723" y2="547.59600438419625" />
    <polyline points="737,547.59600438419625 744,559.72036003717835 737,571.84471569016046" />
    <polyline points="9,596.09342699612489 2,583.96907134314279 9,571.84471569016068 23,571.84471569016068 30,559.72036003717858" />
    <polyline points="51,571.84471569016068 65,571.84471569016068 72,559.72036003717858" />
    <polyline points="86,559.72036003717858 93,571.84471569016068 86,583.96907134314279" />
    <polyline points="93,571.84471569016068 107,571.84471569016068 114,583.96907134314279" />
    <polyline points="128,559.72036003717858 135,571.84471569016068 128,583.96907134314279" />
    <polyline points="135,571.84471569016068 149,571.84471569016068 156,583.96907134314279" />
    <polyline points="156,559.72036003717858 170,559.72036003717858 177,571.84471569016068 191,571.84471569016068" />
    <polyline points="212,559.72036003717858 219,571.84471569016068 212,583.96907134314279" />
    <polyline points="219,571.84471569016068 233,571.84471569016068 240,583.96907134314279" />
    <polyline points="240,559.72036003717858 254,559.72036003717858 261,571.84471569016068 275,571.84471569016068 282,559.72036003717858" />
    <line x1="296" y1="559.72036003717858" x2="303" y2="571.84471569016068" />
    <polyline points="324,583.96907134314279 317,571.84471569016068 324,559.72036003717858" />
    <polyline points="338,583.96907134314279 345,571.84471569016068 359,571.84471569016068 366,559.72036003717858 380,559.72036003717858 387,571.84471569016068 401,571.84471569016068 408,583.96907134314279" />
    <line x1="408" y1="559.72036003717858" x2="422" y2="559.72036003717858" />
    <line x1="422" y1="583.96907134314279" x2="429" y2="571.84471569016068" />
    <polyline points="450,583.96907134314279 443,571.84471569016068 450,559.72036003717858" />
    <polyline points="464,559.72036003717858 471,571.84471569016068 485,571.84471569016068 492,583.96907134314279" />
    <line x1="485" y1="571.84471569016068" x2="492" y2="559.72036003717858" />
    <polyline points="506,559.72036003717858 513,571.84471569016068 506,583.96907134314279" />
    <polyline points="534,583.96907134314279 527,571.84471569016068 534,559.72036003717858" />
    <line x1="548" y1="583.96907134314279" x2="555" y2="571.84471569016068" />
    <polyline points="576,583.96907134314279 569,571.84471569016068 576,559.72036003717858 590,559.72036003717858 597,571.84471569016068" />
    <line x1="611" y1="571.84471569016068" x2="618" y2="583.96907134314279" />
    <polyline points="618,559.72036003717858 632,559.72036003717858 639,571.84471569016068 632,583.96907134314279" />
    <line x1="653" y1="571.84471569016068" x2="660" y2="583.96907134314279" />
    <line x1="660" y1="559.72036003717858" x2="674" y2="559.72036003717858" />
    <polyline points="674,583.96907134314279 681,571.84471569016068 695,571.84471569016068" />
    <polyline points="702,559.72036003717858 716,559.72036003717858 723,571.84471569016068 716,583.96907134314279" />
    <polyline points="737,571.84471569016068 744,583.96907134314279 737,596.09342699612489" />
    <polyline points="9,620.3421383020891 2,608.217782649107 9,596.09342699612489" />
    <polyline points="30,608.217782649107 23,596.09342699612489 30,583.96907134314279 44,583.96907134314279 51,596.09342699612489 65,596.09342699612489 72,608.217782649107" />
    <polyline points="65,596.09342699612489 72,583.96907134314279 86,583.96907134314279" />
    <polyline points="93,596.09342699612489 107,596.09342699612489 114,583.96907134314279 128,583.96907134314279 135,596.09342699612489" />
    <line x1="149" y1="596.09342699612489" x2="156" y2="608.217782649107" />
    <line x1="156" y1="583.96907134314279" x2="170" y2="583.96907134314279" />
    <polyline points="177,596.09342699612489 191,596.09342699612489 198,583.96907134314279 212,583.96907134314279" />
    <line x1="212" y1="608.217782649107" x2="219" y2="596.09342699612489" />
    <polyline points="240,608.217782649107 233,596.09342699612489 240,583.96907134314279 254,583.96907134314279" />
    <polyline points="254,608.217782649107 261,596.09342699612489 275,596.09342699612489 282,583.96907134314279" />
    <polyline points="296,583.96907134314279 303,596.09342699612489 296,608.217782649107" />
    <line x1="317" y1="596.09342699612489" x2="324" y2="608.217782649107" />
    <polyline points="324,583.96907134314279 338,583.96907134314279 345,596.09342699612489" />
    <polyline points="366,608.217782649107 359,596.09342699612489 366,583.96907134314279" />
    <polyline points="380,583.96907134314279 387,596.09342699612489 380,608.217782649107" />
    <line x1="401" y1="596.09342699612489" x2="408" y2="608.217782649107" />
    <polyline points="408,583.96907134314279 422,583.96907134314279 429,596.09342699612489 443,596.09342699612489 450,608.217782649107" />
    <polyline points="443,596.09342699612489 450,583.96907134314279 464,583.96907134314279 471,596.09342699612489 485,596.09342699612489 492,608.217782649107" />
    <polyline points="492,583.96907134314279 506,583.96907134314279 513,596.09342699612489 506,608.217782649107" />
    <polyline points="527,596.09342699612489 534,583.96907134314279 548,583.96907134314279 555,596.09342699612489 548,608.217782649107" />
    <polyline points="555,596.09342699612489 569,596.09342699612489 576,608.217782649107" />
    <line x1="569" y1="596.09342699612489" x2="576" y2="583.96907134314279" />
    <polyline points="590,583.96907134314279 597,596.09342699612489 590,608.217782649107" />
    <polyline points="618,608.217782649107 611,596.09342699612489 618,583.96907134314279 632,583.96907134314279" />
    <line x1="632" y1="608.217782649107" x2="639" y2="596.09342699612489" />
    <polyline points="660,608.217782649107 653,596.09342699612489 660,583.96907134314279" />
    <polyline points="674,583.96907134314279 681,596.09342699612489 695,596.09342699612489 702,608.217782649107" />
    <line x1="702" y1="583.96907134314279" x2="716" y2="583.96907134314279" />
    <polyline points="723,596.09342699612489 737,596.09342699612489 744,608.217782649107 737,620.3421383020891" />
    <polyline points="9,644.5908496080533 2,632.4664939550712 9,620.3421383020891" />
    <polyline points="30,632.4664939550712 23,620.3421383020891 30,608.217782649107" />
    <polyline points="44,608.217782649107 51,620.3421383020891 44,632.4664939550712" />
    <line x1="51" y1="620.3421383020891" x2="65" y2="620.3421383020891" />
    <line x1="72" y1="608.217782649107" x2="86" y2="608.217782649107" />
    <polyline points="86,632.4664939550712 93,620.3421383020891 107,620.3421383020891 114,608.217782649107" />
    <polyline points="128,608.217782649107 135,620.3421383020891 128,632.4664939550712" />
    <polyline points="156,632.4664939550712 149,620.3421383020891 156,608.217782649107 170,608.217782649107" />
    <polyline points="177,620.3421383020891 191,620.3421383020891 198,608.217782649107 212,608.217782649107 219,620.3421383020891 212,632.4664939550712" />
    <polyline points="240,632.4664939550712 233,620.3421383020891 240,608.217782649107" />
    <polyline points="254,608.217782649107 261,620.3421383020891 254,632.4664939550712" />
    <polyline points="261,620.3421383020891 275,620.3421383020891 282,608.217782649107" />
    <polyline points="296,608.217782649107 303,620.3421383020891 317,620.3421383020891 324,608.217782649107 338,608.217782649107 345,620.3421383020891 359,620.3421383020891 366,632.4664939550712" />
    <line x1="359" y1="620.3421383020891" x2="366" y2="608.217782649107" />
    <polyline points="380,608.217782649107 387,620.3421383020891 380,632.4664939550712" />
    <polyline points="387,620.3421383020891 401,620.3421383020891 408,632.4664939550712" />
    <polyline points="408,608.217782649107 422,608.217782649107 429,620.3421383020891 443,620.3421383020891 450,632.4664939550712" />
    <polyline points="464,608.217782649107 471,620.3421383020891 464,632.4664939550712" />
    <polyline points="471,620.3421383020891 485,620.3421383020891 492,632.4664939550712" />
    <line x1="485" y1="620.3421383020891" x2="492" y2="608.217782649107" />
    <polyline points="506,608.217782649107 513,620.3421383020891 506,632.4664939550712" />
    <line x1="527" y1="620.3421383020891" x2="534" y2="632.4664939550712" />
    <polyline points="534,608.217782649107 548,608.217782649107 555,620.3421383020891 548,632.4664939550712" />
    <line x1="569" y1="620.3421383020891" x2="576" y2="632.4664939550712" />
    <polyline points="576,608.217782649107 590,608.217782649107 597,620.3421383020891 590,632.4664939550712" />
    <polyline points="597,620.3421383020891 611,620.3421383020891 618,632.4664939550712" />
    <line x1="611" y1="620.3421383020891" x2="618" y2="608.217782649107" />
    <polyline points="632,608.217782649107 639,620.3421383020891 632,632.4664939550712" />
    <polyline points="639,620.3421383020891 653,620.3421383020891 660,608.217782649107 674,608.217782649107 681,620.3421383020891 674,632.4664939550712" />
    <line x1="681" y1="620.3421383020891" x2="695" y2="620.3421383020891" />
    <polyline points="702,608.217782649107 716,608.217782649107 723,620.3421383020891 716,632.4664939550712" />
    <polyline points="737,620.3421383020891 744,632.4664939550712 737,644.5908496080533" />
    <polyline points="9,644.59084960805353 23,644.59084960805353 30,656.71520526103563" />
    <line x1="23" y1="644.59084960805353" x2="30" y2="632.46649395507143" />
    <polyline points="44,632.46649395507143 51,644.59084960805353 44,656.71520526103563" />
    <polyline points="65,644.59084960805353 72,632.46649395507143 86,632.46649395507143 93,644.59084960805353 107,644.59084960805353 114,656.71520526103563" />
    <polyline points="107,644.59084960805353 114,632.46649395507143 128,632.46649395507143 135,644.59084960805353 128,656.71520526103563" />
    <polyline points="135,644.59084960805353 149,644.59084960805353 156,632.46649395507143" />
    <polyline points="170,632.46649395507143 177,644.59084960805353 170,656.71520526103563" />
    <polyline points="177,644.59084960805353 191,644.59084960805353 198,656.71520526103563" />
    <polyline points="198,632.46649395507143 212,632.46649395507143 219,644.59084960805353 212,656.71520526103563" />
    <line x1="233" y1="644.59084960805353" x2="240" y2="656.71520526103563" />
    <polyline points="240,632.46649395507143 254,632.46649395507143 261,644.59084960805353 275,644.59084960805353 282,656.71520526103563" />
    <polyline points="275,644.59084960805353 282,632.46649395507143 296,632.46649395507143" />
    <polyline points="296,656.71520526103563 303,644.59084960805353 317,644.59084960805353 324,656.71520526103563" />
    <polyline points="317,644.59084960805353 324,632.46649395507143 338,632.46649395507143 345,644.59084960805353 359,644.59084960805353 366,656.71520526103563" />
    <line x1="359" y1="644.59084960805353" x2="366" y2="632.46649395507143" />
    <polyline points="380,632.46649395507143 387,644.59084960805353 380,656.71520526103563" />
    <line x1="401" y1="644.59084960805353" x2="408" y2="656.71520526103563" />
    <line x1="408" y1="632.46649395507143" x2="422" y2="632.46649395507143" />
    <polyline points="422,656.71520526103563 429,644.59084960805353 443,644.59084960805353 450,632.46649395507143 464,632.46649395507143 471,644.59084960805353 464,656.71520526103563" />
    <line x1="485" y1="644.59084960805353" x2="492" y2="632.46649395507143" />
    <polyline points="506,632.46649395507143 513,644.59084960805353 506,656.71520526103563" />
    <line x1="513" y1="644.59084960805353" x2="527" y2="644.59084960805353" />
    <polyline points="534,632.46649395507143 548,632.46649395507143 555,644.59084960805353 548,656.71520526103563" />
    <polyline points="555,644.59084960805353 569,644.59084960805353 576,632.46649395507143" />
    <polyline points="590,656.71520526103563 597,644.59084960805353 611,644.59084960805353 618,656.71520526103563" />
    <polyline points="632,632.46649395507143 639,644.59084960805353 632,656.71520526103563" />
    <polyline points="660,656.71520526103563 653,644.59084960805353 660,632.46649395507143" />
    <polyline points="674,632.46649395507143 681,644.59084960805353 674,656.71520526103563" />
    <polyline points="681,644.59084960805353 695,644.59084960805353 702,632.46649395507143 716,632.46649395507143" />
    <polyline points="716,656.71520526103563 723,644.59084960805353 737,644.59084960805353" />
    <polyline points="30,656.71520526103563 44,656.71520526103563 51,668.83956091401774 65,668.83956091401774 72,680.96391656699984" />
    <line x1="65" y1="668.83956091401774" x2="72" y2="656.71520526103563" />
    <polyline points="86,656.71520526103563 93,668.83956091401774 107,668.83956091401774 114,680.96391656699984" />
    <polyline points="128,656.71520526103563 135,668.83956091401774 149,668.83956091401774 156,680.96391656699984" />
    <polyline points="149,668.83956091401774 156,656.71520526103563 170,656.71520526103563" />
    <polyline points="170,680.96391656699984 177,668.83956091401774 191,668.83956091401774 198,656.71520526103563 212,656.71520526103563 219,668.83956091401774 233,668.83956091401774 240,656.71520526103563" />
    <polyline points="254,656.71520526103563 261,668.83956091401774 254,680.96391656699984" />
    <polyline points="275,668.83956091401774 282,656.71520526103563 296,656.71520526103563" />
    <line x1="296" y1="680.96391656699984" x2="303" y2="668.83956091401774" />
    <polyline points="324,680.96391656699984 317,668.83956091401774 324,656.71520526103563 338,656.71520526103563 345,668.83956091401774 338,680.96391656699984" />
    <polyline points="359,668.83956091401774 366,656.71520526103563 380,656.71520526103563 387,668.83956091401774 380,680.96391656699984" />
    <polyline points="387,668.83956091401774 401,668.83956091401774 408,680.96391656699984" />
    <polyline points="408,656.71520526103563 422,656.71520526103563 429,668.83956091401774 443,668.83956091401774 450,680.96391656699984" />
    <line x1="443" y1="668.83956091401774" x2="450" y2="656.71520526103563" />
    <polyline points="464,680.96391656699984 471,668.83956091401774 485,668.83956091401774 492,656.71520526103563 506,656.71520526103563 513,668.83956091401774 527,668.83956091401774 534,656.71520526103563 548,656.71520526103563 555,668.83956091401774 569,668.83956091401774 576,680.96391656699984" />
    <polyline points="569,668.83956091401774 576,656.71520526103563 590,656.71520526103563" />
    <polyline points="590,680.96391656699984 597,668.83956091401774 611,668.83956091401774 618,680.96391656699984" />
    <line x1="618" y1="656.71520526103563" x2="632" y2="656.71520526103563" />
    <polyline points="632,680.96391656699984 639,668.83956091401774 653,668.83956091401774 660,656.71520526103563" />
    <polyline points="674,680.96391656699984 681,668.83956091401774 695,668.83956091401774 702,656.71520526103563 716,656.71520526103563" />
    <polyline points="72,680.96391656699984 86,680.96391656699984 93,693.088272219982 107,693.088272219982 114,705.212627872964" />
    <polyline points="114,680.96391656699984 128,680.96391656699984 135,693.088272219982 128,705.212627872964" />
    <polyline points="156,705.212627872964 149,693.088272219982 156,680.96391656699984" />
    <polyline points="170,680.96391656699984 177,693.088272219982 170,705.212627872964" />
    <polyline points="177,693.088272219982 191,693.088272219982 198,680.96391656699984" />
    <polyline points="212,680.96391656699984 219,693.088272219982 212,705.212627872964" />
    <polyline points="219,693.088272219982 233,693.088272219982 240,680.96391656699984" />
    <polyline points="254,680.96391656699984 261,693.088272219982 254,705.212627872964" />
    <polyline points="261,693.088272219982 275,693.088272219982 282,680.96391656699984 296,680.96391656699984 303,693.088272219982 296,705.212627872964" />
    <line x1="317" y1="693.088272219982" x2="324" y2="680.96391656699984" />
    <polyline points="338,680.96391656699984 345,693.088272219982 359,693.088272219982 366,705.212627872964" />
    <line x1="359" y1="693.088272219982" x2="366" y2="680.96391656699984" />
    <polyline points="380,705.212627872964 387,693.088272219982 401,693.088272219982 408,705.212627872964" />
    <line x1="408" y1="680.96391656699984" x2="422" y2="680.96391656699984" />
    <line x1="422" y1="705.212627872964" x2="429" y2="693.088272219982" />
    <polyline points="450,705.212627872964 443,693.088272219982 450,680.96391656699984" />
    <polyline points="464,680.96391656699984 471,693.088272219982 485,693.088272219982 492,705.212627872964" />
    <polyline points="485,693.088272219982 492,680.96391656699984 506,680.96391656699984 513,693.088272219982 527,693.088272219982 534,705.212627872964" />
    <line x1="527" y1="693.088272219982" x2="534" y2="680.96391656699984" />
    <polyline points="548,680.96391656699984 555,693.088272219982 569,693.088272219982 576,705.212627872964" />
    <line x1="576" y1="680.96391656699984" x2="590" y2="680.96391656699984" />
    <polyline points="590,705.212627872964 597,693.088272219982 611,693.088272219982" />
    <line x1="618" y1="680.96391656699984" x2="632" y2="680.96391656699984" />
    <polyline points="632,705.212627872964 639,693.088272219982 653,693.088272219982 660,680.96391656699984 674,680.96391656699984" />
    <polyline points="114,705.21262787296428 128,705.21262787296428 135,717.33698352594638 149,717.33698352594638 156,729.46133917892848" />
    <polyline points="170,705.21262787296428 177,717.33698352594638 170,729.46133917892848" />
    <polyline points="198,729.46133917892848 191,717.33698352594638 198,705.21262787296428 212,705.21262787296428 219,717.33698352594638 233,717.33698352594638 240,705.21262787296428 254,705.21262787296428" />
    <polyline points="254,729.46133917892848 261,717.33698352594638 275,717.33698352594638 282,729.46133917892848" />
    <polyline points="275,717.33698352594638 282,705.21262787296428 296,705.21262787296428 303,717.33698352594638 317,717.33698352594638 324,729.46133917892848" />
    <line x1="317" y1="717.33698352594638" x2="324" y2="705.21262787296428" />
    <polyline points="338,705.21262787296428 345,717.33698352594638 359,717.33698352594638 366,729.46133917892848" />
    <polyline points="359,717.33698352594638 366,705.21262787296428 380,705.21262787296428" />
    <polyline points="380,729.46133917892848 387,717.33698352594638 401,717.33698352594638 408,729.46133917892848" />
    <polyline points="408,705.21262787296428 422,705.21262787296428 429,717.33698352594638 443,717.33698352594638 450,705.21262787296428 464,705.21262787296428 471,717.33698352594638 464,729.46133917892848" />
    <polyline points="471,717.33698352594638 485,717.33698352594638 492,729.46133917892848" />
    <polyline points="492,705.21262787296428 506,705.21262787296428 513,717.33698352594638 506,729.46133917892848" />
    <line x1="513" y1="717.33698352594638" x2="527" y2="717.33698352594638" />
    <polyline points="534,705.21262787296428 548,705.21262787296428 555,717.33698352594638 548,729.46133917892848" />
    <polyline points="576,729.46133917892848 569,717.33698352594638 576,705.21262787296428 590,705.21262787296428" />
    <polyline points="590,729.46133917892848 597,717.33698352594638 611,717.33698352594638 618,705.21262787296428 632,705.21262787296428" />
    <polyline points="156,729.46133917892848 170,729.46133917892848 177,741.58569483191059 191,741.58569483191059 198,753.71005048489269" />
    <polyline points="212,729.46133917892848 219,741.58569483191059 212,753.71005048489269" />
    <polyline points="233,741.58569483191059 240,729.46133917892848 254,729.46133917892848" />
    <polyline points="254,753.71005048489269 261,741.58569483191059 275,741.58569483191059 282,753.71005048489269" />
    <polyline points="296,729.46133917892848 303,741.58569483191059 296,753.71005048489269" />
    <polyline points="303,741.58569483191059 317,741.58569483191059 324,753.71005048489269" />
    <polyline points="317,741.58569483191059 324,729.46133917892848 338,729.46133917892848" />
    <polyline points="345,741.58569483191059 359,741.58569483191059 366,753.71005048489269" />
    <polyline points="359,741.58569483191059 366,729.46133917892848 380,729.46133917892848" />
    <line x1="380" y1="753.71005048489269" x2="387" y2="741.58569483191059" />
    <polyline points="408,753.71005048489269 401,741.58569483191059 408,729.46133917892848 422,729.46133917892848" />
    <polyline points="429,741.58569483191059 443,741.58569483191059 450,753.71005048489269" />
    <line x1="443" y1="741.58569483191059" x2="450" y2="729.46133917892848" />
    <polyline points="464,753.71005048489269 471,741.58569483191059 485,741.58569483191059 492,753.71005048489269" />
    <polyline points="506,729.46133917892848 513,741.58569483191059 506,753.71005048489269" />
    <polyline points="534,753.71005048489269 527,741.58569483191059 534,729.46133917892848 548,729.46133917892848" />
    <polyline points="548,753.71005048489269 555,741.58569483191059 569,741.58569483191059 576,729.46133917892848 590,729.46133917892848" />
    <polyline points="198,753.71005048489269 212,753.71005048489269 219,765.83440613787479 233,765.83440613787479 240,777.9587617908569" />
    <line x1="240" y1="753.71005048489269" x2="254" y2="753.71005048489269" />
    <polyline points="254,777.9587617908569 261,765.83440613787479 275,765.83440613787479 282,777.9587617908569" />
    <line x1="282" y1="753.71005048489269" x2="296" y2="753.71005048489269" />
    <line x1="296" y1="777.9587617908569" x2="303" y2="765.83440613787479" />
    <polyline points="317,765.83440613787479 324,753.71005048489269 338,753.71005048489269 345,765.83440613787479 359,765.83440613787479 366,753.71005048489269 380,753.71005048489269" />
    <polyline points="380,777.9587617908569 387,765.83440613787479 401,765.83440613787479 408,777.9587617908569" />
    <polyline points="401,765.83440613787479 408,753.71005048489269 422,753.71005048489269" />
    <polyline points="429,765.83440613787479 443,765.83440613787479 450,753.71005048489269 464,753.71005048489269" />
    <polyline points="464,777.9587617908569 471,765.83440613787479 485,765.83440613787479 492,753.71005048489269" />
    <polyline points="506,777.9587617908569 513,765.83440613787479 527,765.83440613787479 534,753.71005048489269 548,753.71005048489269" />
    <polyline points="240,777.95876179085712 254,777.95876179085712 261,790.08311744383923 275,790.08311744383923 282,802.20747309682133" />
    <polyline points="282,777.95876179085712 296,777.95876179085712 303,790.08311744383923" />
    <polyline points="324,802.20747309682133 317,790.08311744383923 324,777.95876179085712 338,777.95876179085712 345,790.08311744383923 359,790.08311744383923 366,802.20747309682133" />
    <polyline points="359,790.08311744383923 366,777.95876179085712 380,777.95876179085712 387,790.08311744383923" />
    <polyline points="401,790.08311744383923 408,777.95876179085712 422,777.95876179085712" />
    <polyline points="422,802.20747309682133 429,790.08311744383923 443,790.08311744383923 450,777.95876179085712 464,777.95876179085712" />
    <polyline points="464,802.20747309682133 471,790.08311744383923 485,790.08311744383923 492,777.95876179085712 506,777.95876179085712" />
    <polyline points="282,802.20747309682133 296,802.20747309682133 303,814.33182874980344 317,814.33182874980344 324,826.45618440278554" />
    <line x1="317" y1="814.33182874980344" x2="324" y2="802.20747309682133" />
    <polyline points="338,802.20747309682133 345,814.33182874980344 359,814.33182874980344 366,826.45618440278554" />
    <line x1="366" y1="802.20747309682133" x2="380" y2="802.20747309682133" />
    <line x1="380" y1="826.45618440278554" x2="387" y2="814.33182874980344" />
    <line x1="401" y1="814.33182874980344" x2="408" y2="826.45618440278554" />
    <polyline points="408,802.20747309682133 422,802.20747309682133 429,814.33182874980344 422,826.45618440278554" />
    <polyline points="429,814.33182874980344 443,814.33182874980344 450,802.20747309682133 464,802.20747309682133" />
    <polyline points="324,826.45618440278554 338,826.45618440278554 345,838.58054005576764 359,838.58054005576764 366,850.70489570874975" />
    <polyline points="366,826.45618440278554 380,826.45618440278554 387,838.58054005576764 380,850.70489570874975" />
    <polyline points="387,838.58054005576764 401,838.58054005576764 408,826.45618440278554 422,826.45618440278554" />
  </g>
  <polyline fill="none" stroke="#ff0000" stroke-width="2" stroke-linecap="square" stroke-linejoin="round" points="373,1.9999999999999822 373,14.124355652982123 352,26.248711305964264 373,38.3730669589464 373,62.621778264910681 352,50.497422611928542 352,74.74613391789282 310,98.994845223857112 331,111.11920087683924 331,135.36791218280354 310,147.49226783578567 310,171.74097914174996 352,195.98969044771422 331,208.11404610069639 331,256.61146871262491 352,244.48711305964281 373,256.61146871262491 373,305.1088913245535 394,317.23324697753566 352,341.48195828349992 352,365.73066958946418 331,353.606313936482 331,377.85502524244635 415,426.35244785437487 394,438.47680350735703 394,511.22293742524988 415,523.347293078232 436,511.22293742524988 457,523.347293078232 457,571.84471569016068 499,596.09342699612489 499,644.59084960805353 457,668.83956091401774 457,693.088272219982 499,717.33698352594638 499,741.58569483191059 478,729.46133917892848 457,741.58569483191059 457,717.33698352594638 415,741.58569483191059 436,753.71005048489269 415,765.83440613787479 436,777.9587617908569 373,814.33182874980344 331,790.08311744383923 331,814.33182874980344 373,838.58054005576764 373,850.70489570874975" />
  <type>Hexagonal</type>
</svg>