<?xml version="1.0" encoding="utf-8" standalone="no"?>
<!DOCTYPE svg PUBLIC "-//W3C//DTD SVG 1.1//EN" "http://www.w3.org/Graphics/SVG/1.1/DTD/svg11.dtd"[]>
<svg width="340" height="340" version="1.1" xmlns="http://www.w3.org/2000/svg">
  <title>21 cells diameter theta maze</title>
  <g fill="none" stroke="#000000" stroke-width="2" stroke-linecap="square">
    <path d="M 154.02943725152286,187.97056274847714 A 24,24 0 1,1 171,195" />
    <path d="M 186.3073372946036,134.04481869954853 A 40,40 0 0,1 211,171" />
    <path d="M 207.95518130045147,186.3073372946036 A 40,40 0 0,1 186.3073372946036,207.95518130045147" />
    <path d="M 171,211 A 40,40 0 0,1 142.7157287525381,199.2842712474619" />
    <path d="M 134.04481869954853,186.3073372946036 A 40,40 0 0,1 155.69266270539637,134.04481869954856" />
    <path d="M 131.40202025355333,131.40202025355336 A 56,56 0 0,1 171,115" />
    <path d="M 192.43027221244503,119.26274617936795 A 56,56 0 0,1 222.73725382063205,149.56972778755497" />
    <path d="M 227,171 A 56,56 0 0,1 222.73725382063208,192.43027221244503" />
    <path d="M 210.59797974644667,210.59797974644664 A 56,56 0 0,1 171,227" />
    <path d="M 149.569727787555,222.73725382063208 A 56,56 0 0,1 131.40202025355336,210.59797974644667" />
    <path d="M 119.26274617936795,192.43027221244506 A 56,56 0 0,1 115,171" />
    <path d="M 171,99 A 72,72 0 0,1 185.04650318516124,100.38345981096741" />
    <path d="M 211.00105677741135,111.13418791421674 A 72,72 0 0,1 221.91168824543144,120.08831175456858" />
    <path d="M 230.86581208578326,130.99894322258865 A 72,72 0 0,1 243,171" />
    <path d="M 241.61654018903261,185.04650318516124 A 72,72 0 0,1 211.00105677741135,230.86581208578326" />
    <path d="M 198.55320713028647,237.51932634081265 A 72,72 0 0,1 185.04650318516127,241.61654018903261" />
    <path d="M 171,243 A 72,72 0 0,1 143.44679286971353,237.51932634081265" />
    <path d="M 130.99894322258865,230.86581208578326 A 72,72 0 0,1 100.38345981096741,185.04650318516127" />
    <path d="M 99,171 A 72,72 0 0,1 120.08831175456857,120.08831175456859" />
    <path d="M 143.44679286971348,104.48067365918737 A 72,72 0 0,1 156.95349681483873,100.38345981096741" />
    <path d="M 153.83205166258068,84.690895324515722 A 88,88 0 0,1 171,83" />
    <path d="M 233.22539674441617,108.77460325558381 A 88,88 0 0,1 244.16932588262398,122.109819494275" />
    <path d="M 259,171 A 88,88 0 0,1 257.30910467548426,188.16794833741929" />
    <path d="M 171,259 A 88,88 0 0,1 122.10981949427503,244.16932588262398" />
    <path d="M 108.77460325558383,233.2253967444162 A 88,88 0 0,1 83,171.00000000000003" />
    <path d="M 84.690895324515722,153.83205166258071 A 88,88 0 0,1 137.32385795187204,89.698601139006783" />
    <path d="M 171,67 A 104,104 0 0,1 210.79907696596933,74.916528618826177" />
    <path d="M 228.77930423403862,84.527160320535288 A 104,104 0 0,1 273.001669161936,150.71060651032266" />
    <path d="M 273.001669161936,191.28939348967734 A 104,104 0 0,1 267.08347138117381,210.79907696596933" />
    <path d="M 244.53910524340097,244.53910524340094 A 104,104 0 0,1 228.77930423403862,257.4728396794647" />
    <path d="M 191.28939348967737,273.001669161936 A 104,104 0 0,1 84.527160320535288,228.77930423403862" />
    <path d="M 74.916528618826192,131.20092303403064 A 104,104 0 0,1 84.527160320535273,113.22069576596141" />
    <path d="M 97.460894756599046,97.460894756599075 A 104,104 0 0,1 131.20092303403061,74.9165286188262" />
    <path d="M 147.58916135806456,53.305766351612363 A 120,120 0 0,1 194.41083864193539,53.305766351612348" />
    <path d="M 216.92201188381077,60.134456098645586 A 120,120 0 0,1 237.66842796235227,71.223646523694569" />
    <path d="M 255.85281374238571,86.1471862576143 A 120,120 0 0,1 270.77635347630542,104.33157203764773" />
    <path d="M 281.86554390135439,125.07798811618923 A 120,120 0 0,1 288.69423364838764,194.41083864193539" />
    <path d="M 281.86554390135439,216.92201188381077 A 120,120 0 0,1 255.85281374238571,255.85281374238571" />
    <path d="M 237.66842796235227,270.77635347630542 A 120,120 0 0,1 194.41083864193544,288.69423364838764" />
    <path d="M 104.33157203764777,270.77635347630547 A 120,120 0 0,1 71.223646523694569,237.66842796235227" />
    <path d="M 60.134456098645614,216.92201188381085 A 120,120 0 0,1 53.305766351612348,147.58916135806462" />
    <path d="M 60.1344560986456,125.0779881161892 A 120,120 0 0,1 104.33157203764773,71.223646523694569" />
    <path d="M 84.722513353744148,65.870578342667827 A 136,136 0 0,1 184.33033108482024,35.654877172581223" />
    <path d="M 197.53228379419343,37.613201865160647 A 136,136 0 0,1 235.10995620833569,51.058708048623714" />
    <path d="M 246.55755169066589,57.920132726853851 A 136,136 0 0,1 267.16652224137044,74.833477758629527" />
    <path d="M 284.07986727314614,95.4424483093341 A 136,136 0 0,1 306.34512282741878,157.66966891517973" />
    <path d="M 306.34512282741878,184.33033108482024 A 136,136 0 0,1 276.12942165733227,257.27748664625574" />
    <path d="M 267.16652224137044,267.16652224137044 A 136,136 0 0,1 235.10995620833569,290.94129195137629" />
    <path d="M 210.4787161066069,301.14388565958041 A 136,136 0 0,1 171.00000000000003,307" />
    <path d="M 157.66966891517976,306.34512282741878 A 136,136 0 0,1 144.46771620580654,304.38679813483935" />
    <path d="M 131.52128389339316,301.14388565958041 A 136,136 0 0,1 57.920132726853836,246.55755169066589" />
    <path d="M 40.856114340419595,210.4787161066069 A 136,136 0 0,1 35.654877172581223,184.33033108482022" />
    <path d="M 35,171.00000000000003 A 136,136 0 0,1 40.856114340419595,131.52128389339316" />
    <path d="M 45.352383578465009,118.95505319834777 A 136,136 0 0,1 57.920132726853822,95.442448309334139" />
    <path d="M 65.870578342667784,84.7225133537442 A 136,136 0 0,1 74.833477758629513,74.833477758629556" />
    <path d="M 185.8986053300932,19.731921545826083 A 152,152 0 0,1 215.12327094267829,25.545068968704243" />
    <path d="M 242.65230399755166,36.947967819050035 A 152,152 0 0,1 267.42777919287414,53.50241108886398" />
    <path d="M 297.38338106998685,86.553324581020462 A 152,152 0 0,1 305.05203218094994,99.34769600244833" />
    <path d="M 311.4296889417156,112.83211828050635 A 152,152 0 0,1 320.079362621291,141.34627105354849" />
    <path d="M 288.49758891113606,267.42777919287408 A 152,152 0 0,1 267.42777919287414,288.497588911136" />
    <path d="M 255.44667541897951,297.38338106998685 A 152,152 0 0,1 242.65230399755166,305.05203218094994" />
    <path d="M 200.65372894645154,320.079362621291 A 152,152 0 0,1 185.89860533009323,322.26807845417392" />
    <path d="M 171.00000000000003,323 A 152,152 0 0,1 156.1013946699068,322.26807845417392" />
    <path d="M 112.83211828050636,311.4296889417156 A 152,152 0 0,1 99.347696002448359,305.05203218094994" />
    <path d="M 86.5533245810205,297.38338106998691 A 152,152 0 0,1 53.502411088864022,267.42777919287414" />
    <path d="M 36.947967819050064,242.65230399755168 A 152,152 0 0,1 25.545068968704243,215.12327094267829" />
    <path d="M 19.731921545826083,185.89860533009318 A 152,152 0 0,1 21.92063737870896,141.34627105354849" />
    <path d="M 25.545068968704243,126.87672905732177 A 152,152 0 0,1 30.570311058284432,112.83211828050632" />
    <path d="M 44.61661893001309,86.553324581020519 A 152,152 0 0,1 53.502411088863994,74.572220807125873" />
    <path d="M 86.553324581020462,44.616618930013118 A 152,152 0 0,1 112.83211828050625,30.57031105828446" />
    <path d="M 141.34627105354844,21.920637378708989 A 152,152 0 0,1 156.1013946699068,19.731921545826083" />
    <path d="M 187.46687957536619,3.8089659190709142 A 168,168 0 1,1 171,3" />
  </g>
  <g fill="none" stroke="#000000" stroke-width="2" stroke-linecap="butt">
    <line x1="171" y1="19" x2="171" y2="35" />
    <line x1="171" y1="99" x2="171" y2="147" />
    <line x1="197.53228379419343" y1="37.613201865160647" x2="194.41083864193539" y2="53.305766351612348" />
    <line x1="188.16794833741929" y1="84.690895324515722" x2="185.04650318516124" y2="100.38345981096741" />
    <line x1="215.12327094267829" y1="25.545068968704271" x2="210.47871610660687" y2="40.856114340419595" />
    <line x1="235.29081663733507" y1="15.788238538103826" x2="229.16788171949366" y2="30.570311058284403" />
    <line x1="216.92201188381077" y1="60.134456098645586" x2="192.43027221244503" y2="119.26274617936795" />
    <line x1="242.65230399755166" y1="36.947967819050035" x2="235.10995620833569" y2="51.058708048623714" />
    <line x1="264.33579914729319" y1="31.3131051331724" x2="255.44667541897954" y2="44.616618930013118" />
    <line x1="246.55755169066589" y1="57.920132726853851" x2="228.77930423403862" y2="84.5271603205353" />
    <line x1="219.890180505725" y1="97.83067411737602" x2="211.00105677741135" y2="111.13418791421674" />
    <line x1="289.79393923934" y1="52.206060760660009" x2="278.48023074035518" y2="63.519769259644775" />
    <line x1="233.22539674441617" y1="108.77460325558381" x2="221.91168824543144" y2="120.08831175456857" />
    <line x1="300.86575616493985" y1="64.421928260507556" x2="276.12942165733222" y2="84.722513353744219" />
    <line x1="284.07986727314614" y1="95.442448309334083" x2="270.77635347630542" y2="104.33157203764773" />
    <line x1="257.4728396794647" y1="113.22069576596135" x2="244.16932588262398" y2="122.109819494275" />
    <line x1="305.05203218094994" y1="99.34769600244833" x2="290.94129195137629" y2="106.8900437916643" />
    <line x1="326.21176146189617" y1="106.7091833626649" x2="311.4296889417156" y2="112.83211828050634" />
    <line x1="252.30139886099323" y1="137.3238579518721" x2="222.73725382063205" y2="149.56972778755497" />
    <line x1="273.001669161936" y1="150.71060651032266" x2="257.30910467548426" y2="153.83205166258071" />
    <line x1="338.19103408092906" y1="154.53312042463378" x2="306.34512282741878" y2="157.66966891517973" />
    <line x1="339" y1="171" x2="323" y2="171" />
    <line x1="307" y1="171" x2="211" y2="171" />
    <line x1="322.268078454174" y1="185.89860533009323" x2="306.34512282741878" y2="184.33033108482024" />
    <line x1="335.77192710774273" y1="203.77517409870953" x2="320.079362621291" y2="200.65372894645148" />
    <line x1="304.38679813483935" y1="197.53228379419343" x2="288.69423364838764" y2="194.41083864193539" />
    <line x1="331.76597640301111" y1="219.76782577874965" x2="316.45493103129576" y2="215.12327094267823" />
    <line x1="311.4296889417156" y1="229.16788171949364" x2="296.64761642153496" y2="223.0449468016522" />
    <line x1="281.86554390135439" y1="216.92201188381077" x2="237.51932634081265" y2="198.55320713028647" />
    <line x1="222.73725382063205" y1="192.43027221244503" x2="207.95518130045147" y2="186.3073372946036" />
    <line x1="305.05203218094994" y1="242.65230399755166" x2="290.94129195137629" y2="235.10995620833569" />
    <line x1="297.38338106998691" y1="255.44667541897951" x2="284.07986727314619" y2="246.55755169066586" />
    <line x1="270.77635347630547" y1="237.66842796235224" x2="244.16932588262398" y2="219.89018050572497" />
    <line x1="288.49758891113606" y1="267.42777919287408" x2="276.12942165733227" y2="257.27748664625574" />
    <line x1="267.16652224137044" y1="267.16652224137044" x2="233.22539674441617" y2="233.22539674441617" />
    <line x1="221.91168824543144" y1="221.91168824543144" x2="210.59797974644667" y2="210.59797974644664" />
    <line x1="199.2842712474619" y1="199.2842712474619" x2="187.97056274847714" y2="187.97056274847714" />
    <line x1="264.33579914729319" y1="310.68689486682763" x2="255.44667541897954" y2="297.38338106998691" />
    <line x1="219.890180505725" y1="244.16932588262398" x2="211.00105677741135" y2="230.86581208578326" />
    <line x1="242.65230399755166" y1="305.05203218094994" x2="235.10995620833569" y2="290.94129195137629" />
    <line x1="229.16788171949366" y1="311.4296889417156" x2="198.55320713028647" y2="237.51932634081265" />
    <line x1="219.76782577874968" y1="331.76597640301111" x2="210.4787161066069" y2="301.14388565958041" />
    <line x1="191.28939348967737" y1="273.001669161936" x2="185.04650318516127" y2="241.61654018903261" />
    <line x1="187.46687957536622" y1="338.19103408092906" x2="185.89860533009323" y2="322.26807845417392" />
    <line x1="171.00000000000003" y1="323" x2="171.00000000000003" y2="291" />
    <line x1="171" y1="227" x2="171" y2="211" />
    <line x1="138.22482590129044" y1="335.77192710774273" x2="147.58916135806459" y2="288.69423364838764" />
    <line x1="126.87672905732177" y1="316.45493103129576" x2="131.52128389339316" y2="301.14388565958041" />
    <line x1="118.9550531983478" y1="296.647616421535" x2="137.3238579518721" y2="252.30139886099323" />
    <line x1="143.44679286971353" y1="237.51932634081265" x2="149.56972778755497" y2="222.73725382063208" />
    <line x1="99.347696002448359" y1="305.05203218094994" x2="106.89004379166433" y2="290.94129195137629" />
    <line x1="122.10981949427503" y1="244.16932588262398" x2="130.99894322258865" y2="230.86581208578326" />
    <line x1="97.46089475659906" y1="244.53910524340097" x2="108.77460325558383" y2="233.2253967444162" />
    <line x1="131.40202025355336" y1="210.59797974644667" x2="154.02943725152286" y2="187.97056274847714" />
    <line x1="53.502411088864022" y1="267.4277791928742" x2="65.870578342667812" y2="257.27748664625585" />
    <line x1="31.3131051331724" y1="264.33579914729319" x2="57.920132726853851" y2="246.55755169066589" />
    <line x1="71.223646523694569" y1="237.66842796235227" x2="84.5271603205353" y2="228.77930423403862" />
    <line x1="36.947967819050064" y1="242.65230399755166" x2="51.058708048623728" y2="235.10995620833569" />
    <line x1="30.57031105828446" y1="229.16788171949372" x2="74.9165286188262" y2="210.79907696596939" />
    <line x1="104.48067365918737" y1="198.5532071302865" x2="119.26274617936795" y2="192.43027221244506" />
    <line x1="6.2280728922573019" y1="203.77517409870961" x2="37.613201865160676" y2="197.53228379419349" />
    <line x1="53.305766351612363" y1="194.41083864193544" x2="68.998330838064049" y2="191.28939348967737" />
    <line x1="19" y1="171.00000000000003" x2="35" y2="171.00000000000003" />
    <line x1="67" y1="171.00000000000003" x2="99" y2="171" />
    <line x1="53.305766351612348" y1="147.58916135806462" x2="84.690895324515722" y2="153.83205166258071" />
    <line x1="10.234023596988891" y1="122.23217422125038" x2="40.856114340419595" y2="131.52128389339316" />
    <line x1="30.570311058284432" y1="112.83211828050632" x2="45.352383578465023" y2="118.95505319834777" />
    <line x1="89.698601139006783" y1="137.32385795187207" x2="119.26274617936795" y2="149.56972778755497" />
    <line x1="22.837227589476356" y1="91.8053482132324" x2="36.947967819050035" y2="99.347696002448373" />
    <line x1="71.223646523694541" y1="104.33157203764777" x2="84.527160320535273" y2="113.22069576596141" />
    <line x1="53.502411088863994" y1="74.572220807125873" x2="65.870578342667784" y2="84.7225133537442" />
    <line x1="52.206060760659994" y1="52.206060760660051" x2="63.519769259644747" y2="63.519769259644804" />
    <line x1="74.833477758629513" y1="74.833477758629556" x2="97.460894756599046" y2="97.460894756599075" />
    <line x1="131.40202025355333" y1="131.40202025355336" x2="142.7157287525381" y2="142.7157287525381" />
    <line x1="74.572220807125817" y1="53.502411088864022" x2="84.722513353744148" y2="65.870578342667812" />
    <line x1="77.664200852706841" y1="31.3131051331724" x2="86.553324581020462" y2="44.616618930013118" />
    <line x1="95.442448309334111" y1="57.920132726853851" x2="104.33157203764773" y2="71.223646523694569" />
    <line x1="122.109819494275" y1="97.83067411737602" x2="130.99894322258865" y2="111.13418791421674" />
    <line x1="125.07798811618915" y1="60.134456098645614" x2="131.20092303403061" y2="74.9165286188262" />
    <line x1="137.32385795187204" y1="89.698601139006783" x2="143.44679286971348" y2="104.48067365918737" />
    <line x1="122.2321742212503" y1="10.234023596988919" x2="131.5212838933931" y2="40.856114340419595" />
    <line x1="147.58916135806456" y1="53.305766351612363" x2="153.83205166258068" y2="84.690895324515736" />
    <line x1="154.53312042463384" y1="3.8089659190709142" x2="156.1013946699068" y2="19.731921545826054" />
  </g>
  <path fill="none" stroke="#ff0000" stroke-width="2" stroke-linecap="square" stroke-linejoin="round" d="M 179.24336928700623,3.2023633575310271 L 178.0657451031482,27.17345430645517 A 144,144 0 0,1 192.12918832157209,28.558582565071532 L 189.7815007302863,44.38540672450803 A 128,128 0 0,0 133.8435613114288,48.51163702627727 L 147.777225819643,94.4447731414233 A 80,80 0 0,1 178.84137122636486,91.385221866224242 L 180.40964547163782,75.4622662394691 A 96,96 0 0,0 161.59035452836218,75.4622662394691 L 160.02208028308922,59.539310612713948 A 112,112 0 0,1 203.51188385249978,63.822682397992608 L 208.15643868857117,48.51163702627727 A 128,128 0 0,1 236.80515125673236,61.210737919965169 L 245.03079516382394,47.487080159960811 A 144,144 0 0,1 277.6969620511141,74.295510502029359 L 265.84174404543478,85.040453779581654 A 128,128 0 0,0 252.20234037294662,72.054661969569665 L 242.05204782632831,84.422829223373455 A 112,112 0 0,1 269.77518160701572,118.20356547548825 L 283.88592183658943,110.66121768627228 A 128,128 0 0,1 298.8458183942621,164.71933768609048 L 314.82654569354486,163.9342548968518 A 144,144 0 0,1 314.82654569354486,178.0657451031482 L 330.80727299282762,178.85082789238689 A 160,160 0 0,1 329.26824159436495,194.47687591285785 L 313.44141743492844,192.12918832157209 A 144,144 0 0,1 306.582345386355,219.51213888847968 L 321.64705042928335,224.90237654275518 A 160,160 0 0,1 266.31188871878936,299.51320503690317 L 256.78069984691041,286.66188453321286 A 144,144 0 0,0 277.6969620511141,267.70448949797066 L 265.84174404543478,256.95954622041836 A 128,128 0 0,0 293.48836297372276,208.15643868857114 L 278.17731760200741,203.51188385249975 A 112,112 0 0,0 282.46068938728604,181.9779197169108 L 266.5377337605309,180.40964547163782 A 96,96 0 0,1 262.86627223029205,198.86732901642836 L 247.5552268585767,194.22277418035696 A 80,80 0 0,0 250.61477813377576,178.84137122636486 L 234.69182250702062,177.27309698109187 A 64,64 0 0,1 224.2140551873629,206.55649491325454 L 210.91054139052218,197.66737118494089 A 48,48 0 0,1 180.36433545677417,218.07769345935506 L 177.24289030451612,202.38512897290337 A 32,32 0 0,1 158.75413016431713,200.56414504036118 L 161.81559762323786,193.17310878027089" />
  <type>Circular</type>
</svg>