<?xml version="1.0" encoding="utf-8" standalone="no"?>
<!DOCTYPE svg PUBLIC "-//W3C//DTD SVG 1.1//EN" "http://www.w3.org/Graphics/SVG/1.1/DTD/svg11.dtd"[]>
<svg width="340" height="340" version="1.1" xmlns="http://www.w3.org/2000/svg">
  <title>21 cells diameter theta maze</title>
  <g fill="none" stroke="#000000" stroke-width="2" stroke-linecap="square">
    <path d="M 154.02943725152286,187.97056274847714 A 24,24 0 1,1 171,195" />
    <path d="M 186.3073372946036,134.04481869954853 A 40,40 0 0,1 207.95518130045147,186.3073372946036" />
    <path d="M 199.2842712474619,199.2842712474619 A 40,40 0 0,1 171,211" />
    <path d="M 155.6926627053964,207.95518130045147 A 40,40 0 0,1 134.04481869954853,186.3073372946036" />
    <path d="M 131,171 A 40,40 0 0,1 155.69266270539637,134.04481869954856" />
    <path d="M 131.40202025355333,131.40202025355336 A 56,56 0 0,1 192.43027221244503,119.26274617936795" />
    <path d="M 222.73725382063205,149.56972778755497 A 56,56 0 0,1 227,171" />
    <path d="M 222.73725382063208,192.43027221244503 A 56,56 0 0,1 192.43027221244503,222.73725382063205" />
    <path d="M 171,227 A 56,56 0 0,1 149.569727787555,222.73725382063208" />
    <path d="M 131.40202025355336,210.59797974644667 A 56,56 0 0,1 115,171" />
    <path d="M 171,99 A 72,72 0 0,1 221.91168824543144,120.08831175456858" />
    <path d="M 230.86581208578326,130.99894322258865 A 72,72 0 0,1 241.61654018903261,156.95349681483876" />
    <path d="M 243,171 A 72,72 0 0,1 211.00105677741135,230.86581208578326" />
    <path d="M 198.55320713028647,237.51932634081265 A 72,72 0 0,1 100.38345981096741,185.04650318516127" />
    <path d="M 99,171 A 72,72 0 0,1 111.13418791421672,130.99894322258865" />
    <path d="M 130.99894322258865,111.13418791421674 A 72,72 0 0,1 156.95349681483873,100.38345981096741" />
    <path d="M 188.16794833741929,84.690895324515722 A 88,88 0 0,1 219.890180505725,97.83067411737602" />
    <path d="M 233.22539674441617,108.77460325558381 A 88,88 0 0,1 244.16932588262398,122.109819494275" />
    <path d="M 252.30139886099323,137.3238579518721 A 88,88 0 0,1 257.30910467548426,188.16794833741929" />
    <path d="M 252.30139886099323,204.6761420481279 A 88,88 0 0,1 244.16932588262398,219.89018050572497" />
    <path d="M 219.89018050572497,244.16932588262398 A 88,88 0 0,1 204.6761420481279,252.30139886099323" />
    <path d="M 171,259 A 88,88 0 0,1 108.77460325558383,233.2253967444162" />
    <path d="M 97.83067411737602,219.890180505725 A 88,88 0 0,1 89.698601139006783,204.67614204812796" />
    <path d="M 84.690895324515722,188.16794833741932 A 88,88 0 0,1 84.690895324515722,153.83205166258071" />
    <path d="M 97.830674117375992,122.10981949427503 A 88,88 0 0,1 153.83205166258068,84.690895324515722" />
    <path d="M 244.53910524340094,97.46089475659906 A 104,104 0 0,1 273.001669161936,150.71060651032266" />
    <path d="M 273.001669161936,191.28939348967734 A 104,104 0 0,1 267.08347138117381,210.79907696596933" />
    <path d="M 257.47283967946476,228.77930423403859 A 104,104 0 0,1 244.53910524340097,244.53910524340094" />
    <path d="M 228.77930423403862,257.4728396794647 A 104,104 0 0,1 210.79907696596933,267.08347138117381" />
    <path d="M 191.28939348967737,273.001669161936 A 104,104 0 0,1 131.20092303403067,267.08347138117381" />
    <path d="M 113.22069576596141,257.47283967946476 A 104,104 0 0,1 84.527160320535288,228.77930423403862" />
    <path d="M 74.9165286188262,210.79907696596939 A 104,104 0 0,1 67,171.00000000000003" />
    <path d="M 68.998330838064035,150.71060651032266 A 104,104 0 0,1 113.22069576596137,84.5271603205353" />
    <path d="M 125.07798811618915,60.134456098645614 A 120,120 0 0,1 194.41083864193539,53.305766351612348" />
    <path d="M 237.66842796235227,71.223646523694569 A 120,120 0 0,1 270.77635347630542,104.33157203764773" />
    <path d="M 281.86554390135439,125.07798811618923 A 120,120 0 0,1 288.69423364838764,147.58916135806459" />
    <path d="M 291,171 A 120,120 0 0,1 270.77635347630542,237.66842796235224" />
    <path d="M 255.85281374238571,255.85281374238571 A 120,120 0 0,1 237.66842796235227,270.77635347630542" />
    <path d="M 216.9220118838108,281.86554390135439 A 120,120 0 0,1 171.00000000000003,291" />
    <path d="M 147.58916135806459,288.69423364838764 A 120,120 0 0,1 104.33157203764777,270.77635347630547" />
    <path d="M 86.147186257614308,255.85281374238571 A 120,120 0 0,1 60.134456098645614,216.92201188381085" />
    <path d="M 51,171.00000000000003 A 120,120 0 0,1 71.223646523694541,104.33157203764777" />
    <path d="M 86.14718625761428,86.147186257614322 A 120,120 0 0,1 104.33157203764773,71.223646523694569" />
    <path d="M 157.66966891517978,35.654877172581223 A 136,136 0 0,1 223.0449468016522,45.352383578464995" />
    <path d="M 246.55755169066589,57.920132726853851 A 136,136 0 0,1 257.2774866462558,65.87057834266777" />
    <path d="M 276.12942165733222,84.7225133537442 A 136,136 0 0,1 301.14388565958041,131.52128389339313" />
    <path d="M 306.34512282741878,157.66966891517973 A 136,136 0 0,1 301.14388565958041,210.47871610660687" />
    <path d="M 296.647616421535,223.0449468016522 A 136,136 0 0,1 290.94129195137629,235.10995620833569" />
    <path d="M 284.07986727314619,246.55755169066589 A 136,136 0 0,1 257.2774866462558,276.12942165733222" />
    <path d="M 246.55755169066589,284.07986727314619 A 136,136 0 0,1 235.10995620833569,290.94129195137629" />
    <path d="M 223.04494680165223,296.64761642153496 A 136,136 0 0,1 144.46771620580654,304.38679813483935" />
    <path d="M 131.52128389339316,301.14388565958041 A 136,136 0 0,1 118.9550531983478,296.647616421535" />
    <path d="M 106.89004379166433,290.94129195137629 A 136,136 0 0,1 84.722513353744233,276.12942165733227" />
    <path d="M 74.833477758629556,267.16652224137044 A 136,136 0 0,1 65.870578342667812,257.27748664625585" />
    <path d="M 51.058708048623728,235.10995620833572 A 136,136 0 0,1 37.613201865160647,144.46771620580654" />
    <path d="M 40.856114340419595,131.52128389339316 A 136,136 0 0,1 45.352383578465009,118.95505319834777" />
    <path d="M 51.058708048623714,106.89004379166433 A 136,136 0 0,1 74.833477758629513,74.833477758629556" />
    <path d="M 84.722513353744148,65.870578342667827 A 136,136 0 0,1 106.89004379166428,51.058708048623743" />
    <path d="M 131.5212838933931,40.856114340419595 A 136,136 0 0,1 144.46771620580648,37.613201865160676" />
    <path d="M 229.16788171949364,30.570311058284403 A 152,152 0 0,1 242.65230399755166,36.947967819050035" />
    <path d="M 255.44667541897954,44.616618930013118 A 152,152 0 0,1 267.42777919287414,53.50241108886398" />
    <path d="M 278.48023074035524,63.519769259644775 A 152,152 0 0,1 288.497588911136,74.572220807125873" />
    <path d="M 297.38338106998685,86.553324581020462 A 152,152 0 0,1 311.4296889417156,112.83211828050635" />
    <path d="M 320.079362621291,141.34627105354849 A 152,152 0 0,1 323,171" />
    <path d="M 322.26807845417392,185.89860533009323 A 152,152 0 0,1 320.079362621291,200.65372894645148" />
    <path d="M 316.45493103129576,215.12327094267826 A 152,152 0 0,1 305.05203218094994,242.65230399755166" />
    <path d="M 288.49758891113606,267.42777919287408 A 152,152 0 0,1 267.42777919287414,288.497588911136" />
    <path d="M 242.65230399755166,305.05203218094994 A 152,152 0 0,1 215.12327094267829,316.45493103129576" />
    <path d="M 185.89860533009323,322.26807845417392 A 152,152 0 0,1 141.34627105354849,320.079362621291" />
    <path d="M 86.5533245810205,297.38338106998691 A 152,152 0 0,1 74.572220807125916,288.49758891113606" />
    <path d="M 44.616618930013118,255.44667541897951 A 152,152 0 0,1 30.57031105828446,229.16788171949372" />
    <path d="M 21.920637378708989,200.65372894645157 A 152,152 0 0,1 19,171.00000000000003" />
    <path d="M 25.545068968704243,126.87672905732177 A 152,152 0 0,1 30.570311058284432,112.83211828050632" />
    <path d="M 36.947967819050035,99.347696002448373 A 152,152 0 0,1 44.61661893001309,86.553324581020519" />
    <path d="M 53.502411088863994,74.572220807125873 A 152,152 0 0,1 63.519769259644747,63.519769259644804" />
    <path d="M 74.572220807125817,53.502411088864037 A 152,152 0 0,1 86.553324581020462,44.616618930013118" />
    <path d="M 99.347696002448316,36.947967819050064 A 152,152 0 0,1 112.83211828050625,30.57031105828446" />
    <path d="M 141.34627105354844,21.920637378708989 A 152,152 0 0,1 156.1013946699068,19.731921545826083" />
    <path d="M 187.46687957536619,3.8089659190709142 A 168,168 0 1,1 171,3" />
  </g>
  <g fill="none" stroke="#000000" stroke-width="2" stroke-linecap="butt">
    <line x1="171" y1="3" x2="171" y2="35" />
    <line x1="171" y1="67" x2="171" y2="99" />
    <line x1="171" y1="115" x2="171" y2="131" />
    <line x1="185.8986053300932" y1="19.731921545826054" x2="184.33033108482024" y2="35.654877172581223" />
    <line x1="203.77517409870956" y1="6.2280728922572735" x2="200.65372894645151" y2="21.920637378708989" />
    <line x1="191.28939348967734" y1="68.998330838064035" x2="185.04650318516124" y2="100.38345981096741" />
    <line x1="215.12327094267829" y1="25.545068968704271" x2="210.47871610660687" y2="40.856114340419595" />
    <line x1="223.0449468016522" y1="45.352383578465009" x2="210.79907696596933" y2="74.916528618826177" />
    <line x1="192.43027221244503" y1="119.26274617936795" x2="186.3073372946036" y2="134.04481869954853" />
    <line x1="250.19465178676762" y1="22.837227589476356" x2="235.10995620833569" y2="51.058708048623714" />
    <line x1="246.55755169066589" y1="57.920132726853851" x2="219.890180505725" y2="97.83067411737602" />
    <line x1="277.57807173949243" y1="41.134243835060175" x2="257.2774866462558" y2="65.87057834266777" />
    <line x1="289.79393923934" y1="52.206060760660009" x2="267.16652224137044" y2="74.833477758629527" />
    <line x1="244.53910524340094" y1="97.460894756599046" x2="233.22539674441617" y2="108.77460325558381" />
    <line x1="221.91168824543144" y1="120.08831175456857" x2="210.59797974644664" y2="131.40202025355333" />
    <line x1="199.2842712474619" y1="142.7157287525381" x2="187.97056274847714" y2="154.02943725152286" />
    <line x1="284.07986727314614" y1="95.442448309334083" x2="270.77635347630542" y2="104.33157203764773" />
    <line x1="244.16932588262398" y1="122.109819494275" x2="230.86581208578326" y2="130.99894322258865" />
    <line x1="305.05203218094994" y1="99.34769600244833" x2="290.94129195137629" y2="106.8900437916643" />
    <line x1="281.86554390135439" y1="125.07798811618922" x2="267.08347138117381" y2="131.20092303403067" />
    <line x1="237.51932634081265" y1="143.44679286971353" x2="222.73725382063205" y2="149.56972778755497" />
    <line x1="316.45493103129576" y1="126.87672905732173" x2="301.14388565958041" y2="131.52128389339313" />
    <line x1="320.079362621291" y1="141.34627105354849" x2="288.69423364838764" y2="147.58916135806459" />
    <line x1="257.30910467548426" y1="153.83205166258071" x2="241.61654018903261" y2="156.95349681483876" />
    <line x1="275" y1="171" x2="259" y2="171" />
    <line x1="227" y1="171" x2="211" y2="171" />
    <line x1="322.268078454174" y1="185.89860533009323" x2="306.34512282741878" y2="184.33033108482024" />
    <line x1="304.38679813483935" y1="197.53228379419343" x2="288.69423364838764" y2="194.41083864193539" />
    <line x1="257.30910467548426" y1="188.16794833741929" x2="241.61654018903261" y2="185.04650318516124" />
    <line x1="331.76597640301111" y1="219.76782577874965" x2="316.45493103129576" y2="215.12327094267823" />
    <line x1="311.4296889417156" y1="229.16788171949364" x2="296.64761642153496" y2="223.0449468016522" />
    <line x1="267.08347138117381" y1="210.79907696596933" x2="252.30139886099323" y2="204.6761420481279" />
    <line x1="310.68689486682763" y1="264.33579914729313" x2="270.77635347630547" y2="237.66842796235224" />
    <line x1="244.16932588262398" y1="219.89018050572497" x2="230.86581208578326" y2="211.00105677741135" />
    <line x1="255.85281374238571" y1="255.85281374238571" x2="221.91168824543144" y2="221.91168824543144" />
    <line x1="210.59797974644667" y1="210.59797974644664" x2="199.2842712474619" y2="199.2842712474619" />
    <line x1="267.42777919287414" y1="288.497588911136" x2="257.2774866462558" y2="276.12942165733222" />
    <line x1="255.44667541897954" y1="297.38338106998691" x2="228.77930423403862" y2="257.4728396794647" />
    <line x1="216.9220118838108" y1="281.86554390135439" x2="204.6761420481279" y2="252.30139886099323" />
    <line x1="198.55320713028647" y1="237.51932634081265" x2="192.43027221244503" y2="222.73725382063205" />
    <line x1="219.76782577874968" y1="331.76597640301111" x2="215.12327094267829" y2="316.4549310312957" />
    <line x1="203.77517409870961" y1="335.77192710774273" x2="197.53228379419349" y2="304.38679813483935" />
    <line x1="191.28939348967737" y1="273.001669161936" x2="185.04650318516127" y2="241.61654018903261" />
    <line x1="171" y1="211" x2="171" y2="195" />
    <line x1="141.34627105354849" y1="320.079362621291" x2="144.46771620580654" y2="304.38679813483935" />
    <line x1="122.23217422125038" y1="331.76597640301111" x2="131.52128389339316" y2="301.14388565958041" />
    <line x1="106.70918336266493" y1="326.21176146189623" x2="112.83211828050636" y2="311.4296889417156" />
    <line x1="149.56972778755497" y1="222.73725382063208" x2="155.6926627053964" y2="207.95518130045147" />
    <line x1="99.347696002448359" y1="305.05203218094994" x2="106.89004379166433" y2="290.94129195137629" />
    <line x1="104.33157203764776" y1="270.77635347630547" x2="113.2206957659614" y2="257.47283967946476" />
    <line x1="64.4219282605076" y1="300.86575616493985" x2="84.722513353744247" y2="276.12942165733227" />
    <line x1="63.519769259644789" y1="278.48023074035524" x2="86.147186257614308" y2="255.85281374238571" />
    <line x1="97.46089475659906" y1="244.53910524340097" x2="108.77460325558383" y2="233.2253967444162" />
    <line x1="120.08831175456858" y1="221.91168824543144" x2="131.40202025355336" y2="210.59797974644667" />
    <line x1="142.7157287525381" y1="199.2842712474619" x2="154.02943725152286" y2="187.97056274847714" />
    <line x1="41.134243835060232" y1="277.57807173949254" x2="53.502411088864022" y2="267.4277791928742" />
    <line x1="44.616618930013118" y1="255.44667541897954" x2="84.5271603205353" y2="228.77930423403862" />
    <line x1="30.57031105828446" y1="229.16788171949372" x2="45.352383578465037" y2="223.04494680165229" />
    <line x1="74.9165286188262" y1="210.79907696596939" x2="89.698601139006783" y2="204.67614204812796" />
    <line x1="10.234023596988919" y1="219.76782577874968" x2="25.545068968704271" y2="215.12327094267829" />
    <line x1="37.613201865160676" y1="197.53228379419349" x2="53.305766351612363" y2="194.41083864193544" />
    <line x1="84.690895324515736" y1="188.16794833741932" x2="100.38345981096742" y2="185.04650318516127" />
    <line x1="3" y1="171.00000000000003" x2="19" y2="171.00000000000003" />
    <line x1="67" y1="171.00000000000003" x2="83" y2="171.00000000000003" />
    <line x1="99" y1="171" x2="115" y2="171" />
    <line x1="3.8089659190709142" y1="154.53312042463389" x2="35.654877172581223" y2="157.66966891517984" />
    <line x1="6.2280728922572735" y1="138.22482590129044" x2="21.920637378708989" y2="141.34627105354849" />
    <line x1="53.305766351612348" y1="147.58916135806462" x2="68.998330838064035" y2="150.71060651032266" />
    <line x1="30.570311058284432" y1="112.83211828050632" x2="60.1344560986456" y2="125.0779881161892" />
    <line x1="74.916528618826192" y1="131.20092303403064" x2="104.48067365918736" y2="143.44679286971353" />
    <line x1="119.26274617936795" y1="149.56972778755497" x2="134.04481869954853" y2="155.6926627053964" />
    <line x1="31.313105133172371" y1="77.664200852706884" x2="57.920132726853822" y2="95.442448309334154" />
    <line x1="63.519769259644747" y1="63.519769259644804" x2="86.14718625761428" y2="86.147186257614322" />
    <line x1="120.08831175456857" y1="120.08831175456859" x2="131.40202025355333" y2="131.40202025355336" />
    <line x1="86.553324581020462" y1="44.616618930013118" x2="113.22069576596138" y2="84.5271603205353" />
    <line x1="122.109819494275" y1="97.83067411737602" x2="130.99894322258865" y2="111.13418791421674" />
    <line x1="99.347696002448316" y1="36.947967819050064" x2="106.89004379166428" y2="51.058708048623743" />
    <line x1="112.83211828050625" y1="30.57031105828446" x2="118.95505319834771" y2="45.352383578465037" />
    <line x1="125.07798811618915" y1="60.134456098645614" x2="137.32385795187204" y2="89.698601139006783" />
    <line x1="143.44679286971348" y1="104.48067365918737" x2="155.69266270539637" y2="134.04481869954856" />
    <line x1="126.8767290573217" y1="25.545068968704271" x2="131.5212838933931" y2="40.856114340419595" />
    <line x1="141.34627105354844" y1="21.920637378708989" x2="150.71060651032261" y2="68.998330838064049" />
  </g>
  <path fill="none" stroke="#ff0000" stroke-width="2" stroke-linecap="square" stroke-linejoin="round" d="M 179.24336928700623,3.2023633575310271 L 178.85082789238689,11.192727007172408 A 160,160 0 0,1 194.47687591285788,12.731758405635048 L 192.12918832157209,28.558582565071532 A 144,144 0 0,1 205.98914590607,31.315499539985666 L 209.87682878452222,15.794999488872975 A 160,160 0 0,1 224.90237654275521,20.352949570716675 L 219.51213888847968,35.417654613645 A 144,144 0 0,1 232.56793345396062,40.82554179022415 L 225.72705195907611,55.289370480199253 A 128,128 0 0,1 231.33878231372771,58.114078163410554 L 216.25408673529577,86.335558622557912 A 96,96 0 0,0 198.86732901642839,79.133727769707946 L 208.15643868857117,48.51163702627727 A 128,128 0 0,0 152.21849926971362,44.385406724508044 L 149.87081167842783,28.558582565071561 A 144,144 0 0,1 163.9342548968518,27.17345430645517 L 163.14917210761311,11.192727007172408 A 160,160 0 0,0 117.09762345724479,20.352949570716675 L 127.87809876579584,50.482359656573337 A 128,128 0 0,0 110.66121768627227,58.114078163410582 L 125.7459132647042,86.335558622557926 A 96,96 0 0,0 86.335558622557912,125.74591326470423 L 100.44629885213159,133.2882610539202 A 80,80 0 0,1 109.15916373098105,120.24853726690836 L 121.52733098478484,130.39882981352668 A 64,64 0 0,0 108.22974205419325,158.51421939096778 L 123.92230654064494,161.63566454322583 A 48,48 0 0,0 144.33262881505911,210.91054139052218 L 135.44350508674546,224.2140551873629 A 64,64 0 0,0 183.48578060903222,233.77025794580675 L 180.36433545677417,218.07769345935506 A 48,48 0 0,1 161.63566454322583,218.07769345935506 L 164.75710969548391,202.38512897290337 A 32,32 0 0,1 158.75413016431713,200.56414504036118 L 161.81559762323786,193.17310878027089" />
  <type>Circular</type>
</svg>