<?xml version="1.0" encoding="utf-8" standalone="no"?>
<!DOCTYPE svg PUBLIC "-//W3C//DTD SVG 1.1//EN" "http://www.w3.org/Graphics/SVG/1.1/DTD/svg11.dtd"[]>
<svg width="340" height="340" version="1.1" xmlns="http://www.w3.org/2000/svg">
  <title>21 cells diameter theta maze</title>
  <g fill="none" stroke="#000000" stroke-width="2" stroke-linecap="square">
    <path d="M 154.02943725152286,187.97056274847714 A 24,24 0 1,1 171,195" />
    <path d="M 134.04481869954853,155.6926627053964 A 40,40 0 0,1 199.2842712474619,142.7157287525381" />
    <path d="M 207.95518130045147,155.6926627053964 A 40,40 0 0,1 211,171" />
    <path d="M 207.95518130045147,186.3073372946036 A 40,40 0 0,1 186.3073372946036,207.95518130045147" />
    <path d="M 171,211 A 40,40 0 0,1 155.6926627053964,207.95518130045147" />
    <path d="M 142.7157287525381,199.2842712474619 A 40,40 0 0,1 134.04481869954853,186.3073372946036" />
    <path d="M 222.73725382063205,149.56972778755497 A 56,56 0 0,1 210.59797974644667,210.59797974644664" />
    <path d="M 171,227 A 56,56 0 0,1 149.569727787555,222.73725382063208" />
    <path d="M 131.40202025355336,210.59797974644667 A 56,56 0 0,1 119.26274617936795,192.43027221244506" />
    <path d="M 115,171 A 56,56 0 0,1 149.56972778755494,119.26274617936795" />
    <path d="M 185.04650318516124,100.38345981096741 A 72,72 0 0,1 243,171" />
    <path d="M 241.61654018903261,185.04650318516124 A 72,72 0 0,1 237.51932634081265,198.55320713028647" />
    <path d="M 230.86581208578326,211.00105677741135 A 72,72 0 0,1 156.95349681483876,241.61654018903261" />
    <path d="M 143.44679286971353,237.51932634081265 A 72,72 0 0,1 130.99894322258865,230.86581208578326" />
    <path d="M 111.13418791421674,211.00105677741135 A 72,72 0 0,1 100.38345981096741,156.95349681483876" />
    <path d="M 104.48067365918736,143.44679286971353 A 72,72 0 0,1 130.99894322258865,111.13418791421674" />
    <path d="M 143.44679286971348,104.48067365918737 A 72,72 0 0,1 156.95349681483873,100.38345981096741" />
    <path d="M 153.83205166258068,84.690895324515722 A 88,88 0 0,1 171,83" />
    <path d="M 188.16794833741929,84.690895324515722 A 88,88 0 0,1 204.6761420481279,89.698601139006769" />
    <path d="M 233.22539674441617,108.77460325558381 A 88,88 0 0,1 233.22539674441617,233.22539674441617" />
    <path d="M 219.89018050572497,244.16932588262398 A 88,88 0 0,1 153.83205166258071,257.30910467548426" />
    <path d="M 122.10981949427503,244.16932588262398 A 88,88 0 0,1 89.698601139006783,204.67614204812796" />
    <path d="M 84.690895324515722,188.16794833741932 A 88,88 0 0,1 83,171.00000000000003" />
    <path d="M 84.690895324515722,153.83205166258071 A 88,88 0 0,1 89.698601139006769,137.32385795187207" />
    <path d="M 108.7746032555838,108.77460325558383 A 88,88 0 0,1 122.109819494275,97.83067411737602" />
    <path d="M 171,67 A 104,104 0 0,1 191.28939348967734,68.998330838064035" />
    <path d="M 210.79907696596933,74.916528618826177 A 104,104 0 0,1 244.53910524340094,97.46089475659906" />
    <path d="M 275,171 A 104,104 0 0,1 228.77930423403862,257.4728396794647" />
    <path d="M 210.79907696596933,267.08347138117381 A 104,104 0 0,1 150.71060651032266,273.001669161936" />
    <path d="M 131.20092303403067,267.08347138117381 A 104,104 0 0,1 84.527160320535288,228.77930423403862" />
    <path d="M 74.9165286188262,210.79907696596939 A 104,104 0 0,1 68.998330838064035,191.28939348967737" />
    <path d="M 67,171.00000000000003 A 104,104 0 0,1 74.916528618826192,131.20092303403064" />
    <path d="M 113.22069576596137,84.5271603205353 A 104,104 0 0,1 131.20092303403061,74.9165286188262" />
    <path d="M 194.41083864193539,53.305766351612348 A 120,120 0 0,1 216.92201188381077,60.134456098645586" />
    <path d="M 255.85281374238571,86.1471862576143 A 120,120 0 0,1 270.77635347630542,104.33157203764773" />
    <path d="M 281.86554390135439,125.07798811618923 A 120,120 0 0,1 291,171" />
    <path d="M 281.86554390135439,216.92201188381077 A 120,120 0 0,1 270.77635347630542,237.66842796235224" />
    <path d="M 237.66842796235227,270.77635347630542 A 120,120 0 0,1 216.9220118838108,281.86554390135439" />
    <path d="M 194.41083864193544,288.69423364838764 A 120,120 0 0,1 171.00000000000003,291" />
    <path d="M 125.07798811618925,281.86554390135439 A 120,120 0 0,1 104.33157203764777,270.77635347630547" />
    <path d="M 86.147186257614308,255.85281374238571 A 120,120 0 0,1 71.223646523694569,237.66842796235227" />
    <path d="M 53.305766351612348,194.41083864193544 A 120,120 0 0,1 51,171.00000000000003" />
    <path d="M 71.223646523694541,104.33157203764777 A 120,120 0 0,1 104.33157203764773,71.223646523694569" />
    <path d="M 184.33033108482024,35.654877172581223 A 136,136 0 0,1 197.53228379419343,37.613201865160647" />
    <path d="M 210.4787161066069,40.856114340419595 A 136,136 0 0,1 246.55755169066589,57.920132726853851" />
    <path d="M 267.16652224137044,74.833477758629527 A 136,136 0 0,1 276.12942165733222,84.7225133537442" />
    <path d="M 284.07986727314614,95.4424483093341 A 136,136 0 0,1 290.94129195137629,106.8900437916643" />
    <path d="M 304.38679813483935,144.46771620580654 A 136,136 0 0,1 306.34512282741878,157.66966891517973" />
    <path d="M 307,171 A 136,136 0 0,1 306.34512282741878,184.33033108482024" />
    <path d="M 301.14388565958041,210.47871610660687 A 136,136 0 0,1 246.55755169066589,284.07986727314619" />
    <path d="M 223.04494680165223,296.64761642153496 A 136,136 0 0,1 210.4787161066069,301.14388565958041" />
    <path d="M 197.53228379419349,304.3867981348393 A 136,136 0 0,1 184.33033108482027,306.34512282741878" />
    <path d="M 157.66966891517976,306.34512282741878 A 136,136 0 0,1 144.46771620580654,304.38679813483935" />
    <path d="M 131.52128389339316,301.14388565958041 A 136,136 0 0,1 118.9550531983478,296.647616421535" />
    <path d="M 95.442448309334139,284.07986727314619 A 136,136 0 0,1 57.920132726853836,246.55755169066589" />
    <path d="M 40.856114340419595,210.4787161066069 A 136,136 0 0,1 37.613201865160676,197.53228379419349" />
    <path d="M 35.654877172581223,184.33033108482022 A 136,136 0 0,1 35.654877172581223,157.66966891517984" />
    <path d="M 40.856114340419595,131.52128389339316 A 136,136 0 0,1 74.833477758629513,74.833477758629556" />
    <path d="M 84.722513353744148,65.870578342667827 A 136,136 0 0,1 95.4424483093341,57.920132726853851" />
    <path d="M 106.89004379166428,51.058708048623743 A 136,136 0 0,1 144.46771620580648,37.613201865160676" />
    <path d="M 200.65372894645151,21.92063737870896 A 152,152 0 0,1 242.65230399755166,36.947967819050035" />
    <path d="M 255.44667541897954,44.616618930013118 A 152,152 0 0,1 267.42777919287414,53.50241108886398" />
    <path d="M 305.05203218094994,99.34769600244833 A 152,152 0 0,1 311.4296889417156,112.83211828050635" />
    <path d="M 316.45493103129576,126.87672905732174 A 152,152 0 0,1 320.079362621291,200.65372894645148" />
    <path d="M 311.4296889417156,229.16788171949364 A 152,152 0 0,1 288.49758891113606,267.42777919287408" />
    <path d="M 278.48023074035524,278.48023074035518 A 152,152 0 0,1 171.00000000000003,323" />
    <path d="M 156.1013946699068,322.26807845417392 A 152,152 0 0,1 126.87672905732175,316.45493103129576" />
    <path d="M 112.83211828050636,311.4296889417156 A 152,152 0 0,1 86.5533245810205,297.38338106998691" />
    <path d="M 74.572220807125916,288.49758891113606 A 152,152 0 0,1 36.947967819050064,242.65230399755168" />
    <path d="M 30.57031105828446,229.16788171949372 A 152,152 0 0,1 25.545068968704243,215.12327094267829" />
    <path d="M 21.920637378708989,200.65372894645157 A 152,152 0 0,1 21.92063737870896,141.34627105354849" />
    <path d="M 36.947967819050035,99.347696002448373 A 152,152 0 0,1 53.502411088863994,74.572220807125873" />
    <path d="M 63.519769259644747,63.519769259644804 A 152,152 0 0,1 74.572220807125817,53.502411088864037" />
    <path d="M 86.553324581020462,44.616618930013118 A 152,152 0 0,1 112.83211828050625,30.57031105828446" />
    <path d="M 141.34627105354844,21.920637378708989 A 152,152 0 0,1 156.1013946699068,19.731921545826083" />
    <path d="M 187.46687957536619,3.8089659190709142 A 168,168 0 1,1 171,3" />
  </g>
  <g fill="none" stroke="#000000" stroke-width="2" stroke-linecap="butt">
    <line x1="171" y1="3" x2="171" y2="67" />
    <line x1="171" y1="83" x2="171" y2="131" />
    <line x1="185.8986053300932" y1="19.731921545826054" x2="184.33033108482024" y2="35.654877172581223" />
    <line x1="197.53228379419343" y1="37.613201865160647" x2="188.16794833741929" y2="84.690895324515722" />
    <line x1="223.0449468016522" y1="45.352383578465009" x2="210.79907696596933" y2="74.916528618826177" />
    <line x1="198.55320713028647" y1="104.48067365918736" x2="192.43027221244503" y2="119.26274617936795" />
    <line x1="250.19465178676762" y1="22.837227589476356" x2="242.65230399755166" y2="36.947967819050035" />
    <line x1="255.44667541897954" y1="44.616618930013118" x2="246.55755169066589" y2="57.920132726853851" />
    <line x1="237.66842796235227" y1="71.223646523694569" x2="219.890180505725" y2="97.83067411737602" />
    <line x1="267.42777919287414" y1="53.50241108886398" x2="257.2774866462558" y2="65.87057834266777" />
    <line x1="289.79393923934" y1="52.206060760660009" x2="255.85281374238571" y2="86.1471862576143" />
    <line x1="210.59797974644664" y1="131.40202025355333" x2="199.2842712474619" y2="142.7157287525381" />
    <line x1="288.497588911136" y1="74.572220807125888" x2="276.12942165733222" y2="84.722513353744219" />
    <line x1="297.38338106998685" y1="86.553324581020448" x2="284.07986727314614" y2="95.442448309334083" />
    <line x1="270.77635347630542" y1="104.33157203764773" x2="244.16932588262398" y2="122.109819494275" />
    <line x1="319.16277241052364" y1="91.805348213232364" x2="290.94129195137629" y2="106.8900437916643" />
    <line x1="296.64761642153496" y1="118.95505319834778" x2="267.08347138117381" y2="131.20092303403067" />
    <line x1="237.51932634081265" y1="143.44679286971353" x2="207.95518130045147" y2="155.6926627053964" />
    <line x1="316.45493103129576" y1="126.87672905732173" x2="301.14388565958041" y2="131.52128389339313" />
    <line x1="304.38679813483935" y1="144.46771620580654" x2="257.30910467548426" y2="153.83205166258071" />
    <line x1="322.26807845417392" y1="156.10139466990677" x2="306.34512282741878" y2="157.66966891517973" />
    <line x1="307" y1="171" x2="275" y2="171" />
    <line x1="320.079362621291" y1="200.65372894645148" x2="288.69423364838764" y2="194.41083864193539" />
    <line x1="316.45493103129576" y1="215.12327094267823" x2="301.14388565958041" y2="210.47871610660684" />
    <line x1="296.64761642153496" y1="223.0449468016522" x2="281.86554390135439" y2="216.92201188381077" />
    <line x1="252.30139886099323" y1="204.6761420481279" x2="207.95518130045147" y2="186.3073372946036" />
    <line x1="310.68689486682763" y1="264.33579914729313" x2="284.07986727314619" y2="246.55755169066586" />
    <line x1="278.48023074035524" y1="278.48023074035518" x2="255.85281374238571" y2="255.85281374238571" />
    <line x1="221.91168824543144" y1="221.91168824543144" x2="210.59797974644667" y2="210.59797974644664" />
    <line x1="199.2842712474619" y1="199.2842712474619" x2="187.97056274847714" y2="187.97056274847714" />
    <line x1="246.55755169066589" y1="284.07986727314619" x2="237.66842796235227" y2="270.77635347630542" />
    <line x1="228.77930423403862" y1="257.4728396794647" x2="219.890180505725" y2="244.16932588262398" />
    <line x1="242.65230399755166" y1="305.05203218094994" x2="235.10995620833569" y2="290.94129195137629" />
    <line x1="223.04494680165223" y1="296.64761642153496" x2="210.79907696596933" y2="267.08347138117381" />
    <line x1="192.43027221244503" y1="222.73725382063205" x2="186.3073372946036" y2="207.95518130045147" />
    <line x1="197.53228379419349" y1="304.38679813483935" x2="194.41083864193544" y2="288.69423364838764" />
    <line x1="171.00000000000003" y1="307" x2="171" y2="275" />
    <line x1="171" y1="227" x2="171" y2="195" />
    <line x1="156.1013946699068" y1="322.268078454174" x2="157.66966891517976" y2="306.34512282741878" />
    <line x1="144.46771620580654" y1="304.38679813483935" x2="147.58916135806459" y2="288.69423364838764" />
    <line x1="126.87672905732177" y1="316.45493103129576" x2="131.52128389339316" y2="301.14388565958041" />
    <line x1="118.9550531983478" y1="296.647616421535" x2="125.07798811618923" y2="281.86554390135444" />
    <line x1="131.20092303403067" y1="267.08347138117381" x2="137.3238579518721" y2="252.30139886099323" />
    <line x1="143.44679286971353" y1="237.51932634081265" x2="149.56972778755497" y2="222.73725382063208" />
    <line x1="99.347696002448359" y1="305.05203218094994" x2="106.89004379166433" y2="290.94129195137629" />
    <line x1="77.66420085270687" y1="310.68689486682763" x2="104.33157203764776" y2="270.77635347630547" />
    <line x1="86.147186257614308" y1="255.85281374238571" x2="97.46089475659906" y2="244.53910524340097" />
    <line x1="120.08831175456858" y1="221.91168824543144" x2="131.40202025355336" y2="210.59797974644667" />
    <line x1="142.7157287525381" y1="199.2842712474619" x2="154.02943725152286" y2="187.97056274847714" />
    <line x1="44.616618930013118" y1="255.44667541897954" x2="71.223646523694569" y2="237.66842796235227" />
    <line x1="36.947967819050064" y1="242.65230399755166" x2="51.058708048623728" y2="235.10995620833569" />
    <line x1="30.57031105828446" y1="229.16788171949372" x2="89.698601139006783" y2="204.67614204812796" />
    <line x1="119.26274617936795" y1="192.43027221244506" x2="134.04481869954856" y2="186.3073372946036" />
    <line x1="25.545068968704271" y1="215.12327094267829" x2="40.856114340419595" y2="210.4787161066069" />
    <line x1="37.613201865160676" y1="197.53228379419349" x2="53.305766351612363" y2="194.41083864193544" />
    <line x1="35" y1="171.00000000000003" x2="83" y2="171.00000000000003" />
    <line x1="99" y1="171" x2="131" y2="171" />
    <line x1="6.2280728922572735" y1="138.22482590129044" x2="53.305766351612348" y2="147.58916135806462" />
    <line x1="84.690895324515722" y1="153.83205166258071" x2="100.38345981096741" y2="156.95349681483876" />
    <line x1="10.234023596988891" y1="122.23217422125038" x2="25.545068968704243" y2="126.87672905732177" />
    <line x1="30.570311058284432" y1="112.83211828050632" x2="74.916528618826192" y2="131.20092303403064" />
    <line x1="22.837227589476356" y1="91.8053482132324" x2="36.947967819050035" y2="99.347696002448373" />
    <line x1="44.61661893001309" y1="86.553324581020519" x2="57.920132726853822" y2="95.442448309334154" />
    <line x1="84.527160320535273" y1="113.22069576596141" x2="111.13418791421672" y2="130.99894322258865" />
    <line x1="63.519769259644747" y1="63.519769259644804" x2="74.833477758629513" y2="74.833477758629556" />
    <line x1="86.14718625761428" y1="86.147186257614322" x2="108.7746032555838" y2="108.77460325558383" />
    <line x1="120.08831175456857" y1="120.08831175456859" x2="131.40202025355333" y2="131.40202025355336" />
    <line x1="77.664200852706841" y1="31.3131051331724" x2="104.33157203764773" y2="71.223646523694569" />
    <line x1="122.109819494275" y1="97.83067411737602" x2="130.99894322258865" y2="111.13418791421674" />
    <line x1="99.347696002448316" y1="36.947967819050064" x2="106.89004379166428" y2="51.058708048623743" />
    <line x1="118.95505319834771" y1="45.352383578465037" x2="137.32385795187204" y2="89.698601139006783" />
    <line x1="143.44679286971348" y1="104.48067365918737" x2="149.56972778755494" y2="119.26274617936795" />
    <line x1="126.8767290573217" y1="25.545068968704271" x2="131.5212838933931" y2="40.856114340419595" />
    <line x1="141.34627105354844" y1="21.920637378708989" x2="153.83205166258068" y2="84.690895324515736" />
    <line x1="156.1013946699068" y1="19.731921545826054" x2="157.66966891517978" y2="35.654877172581223" />
  </g>
  <path fill="none" stroke="#ff0000" stroke-width="2" stroke-linecap="square" stroke-linejoin="round" d="M 179.24336928700623,3.2023633575310271 L 178.85082789238689,11.192727007172408 A 160,160 0 0,1 194.47687591285788,12.731758405635048 L 192.12918832157209,28.558582565071532 A 144,144 0 0,1 245.03079516382394,47.487080159960811 L 253.25643907091546,33.763422399956454 A 160,160 0 0,1 278.44943277552295,52.44781994320654 L 256.95954622041836,76.158255954565234 A 128,128 0 0,0 252.20234037294662,72.054661969569665 L 242.05204782632831,84.422829223373455 A 112,112 0 0,1 257.57717077662653,99.9479521736717 L 245.20900352282274,110.09824472029003 A 96,96 0 0,0 231.90175527970996,96.790996477177245 L 221.75146273309164,109.15916373098105 A 80,80 0 0,0 178.84137122636486,91.385221866224242 L 177.27309698109187,107.3081774929794 A 64,64 0 0,1 183.48578060903222,108.22974205419325 L 180.36433545677414,123.92230654064494 A 48,48 0 0,1 197.66737118494092,131.08945860947785 L 206.55649491325454,117.7859448126371 A 64,64 0 0,1 224.2140551873629,135.44350508674546 L 197.60702759368144,153.22175254337273 A 32,32 0 0,0 139.61487102709663,177.24289030451612 L 108.22974205419325,183.48578060903225 A 64,64 0 0,0 121.52733098478485,211.60117018647333 L 109.15916373098108,221.75146273309167 A 80,80 0 0,0 120.24853726690839,232.84083626901898 L 130.3988298135267,220.47266901521516 A 64,64 0 0,0 135.44350508674546,224.2140551873629 L 153.22175254337273,197.60702759368147 A 32,32 0 0,0 158.75413016431713,200.56414504036118 L 161.81559762323786,193.17310878027089" />
  <type>Circular</type>
</svg>