<?xml version="1.0" encoding="utf-8" standalone="no"?>
<!DOCTYPE svg PUBLIC "-//W3C//DTD SVG 1.1//EN" "http://www.w3.org/Graphics/SVG/1.1/DTD/svg11.dtd"[]>
<svg width="340" height="340" version="1.1" xmlns="http://www.w3.org/2000/svg">
  <title>21 cells diameter theta maze</title>
  <g fill="none" stroke="#000000" stroke-width="2" stroke-linecap="square">
    <path d="M 154.02943725152286,187.97056274847714 A 24,24 0 1,1 171,195" />
    <path d="M 186.3073372946036,207.95518130045147 A 40,40 0 1,1 186.3073372946036,134.04481869954853" />
    <path d="M 207.95518130045147,155.6926627053964 A 40,40 0 0,1 207.95518130045147,186.3073372946036" />
    <path d="M 210.59797974644667,131.40202025355333 A 56,56 0 0,1 222.73725382063205,149.56972778755497" />
    <path d="M 222.73725382063208,192.43027221244503 A 56,56 0 0,1 210.59797974644667,210.59797974644664" />
    <path d="M 171,227 A 56,56 0 0,1 119.26274617936795,149.56972778755497" />
    <path d="M 185.04650318516124,100.38345981096741 A 72,72 0 0,1 221.91168824543144,120.08831175456858" />
    <path d="M 230.86581208578326,130.99894322258865 A 72,72 0 0,1 237.51932634081265,143.44679286971353" />
    <path d="M 241.61654018903261,156.95349681483876 A 72,72 0 0,1 241.61654018903261,185.04650318516124" />
    <path d="M 237.51932634081265,198.55320713028647 A 72,72 0 0,1 198.55320713028647,237.51932634081265" />
    <path d="M 185.04650318516127,241.61654018903261 A 72,72 0 0,1 156.95349681483876,241.61654018903261" />
    <path d="M 100.38345981096741,185.04650318516127 A 72,72 0 0,1 104.48067365918736,143.44679286971353" />
    <path d="M 111.13418791421672,130.99894322258865 A 72,72 0 0,1 120.08831175456857,120.08831175456859" />
    <path d="M 130.99894322258865,111.13418791421674 A 72,72 0 0,1 143.44679286971348,104.48067365918737" />
    <path d="M 171,83 A 88,88 0 0,1 188.16794833741929,84.690895324515722" />
    <path d="M 204.6761420481279,89.698601139006769 A 88,88 0 0,1 244.16932588262398,122.109819494275" />
    <path d="M 252.30139886099323,137.3238579518721 A 88,88 0 0,1 257.30910467548426,153.83205166258071" />
    <path d="M 259,171 A 88,88 0 0,1 252.30139886099323,204.6761420481279" />
    <path d="M 233.22539674441617,233.22539674441617 A 88,88 0 0,1 219.89018050572497,244.16932588262398" />
    <path d="M 204.6761420481279,252.30139886099323 A 88,88 0 0,1 188.16794833741932,257.30910467548426" />
    <path d="M 171,259 A 88,88 0 0,1 153.83205166258071,257.30910467548426" />
    <path d="M 137.32385795187213,252.30139886099323 A 88,88 0 0,1 122.10981949427503,244.16932588262398" />
    <path d="M 108.77460325558383,233.2253967444162 A 88,88 0 0,1 84.690895324515722,188.16794833741932" />
    <path d="M 84.690895324515722,153.83205166258071 A 88,88 0 0,1 108.7746032555838,108.77460325558383" />
    <path d="M 171,67 A 104,104 0 0,1 191.28939348967734,68.998330838064035" />
    <path d="M 210.79907696596933,74.916528618826177 A 104,104 0 0,1 228.77930423403862,84.527160320535288" />
    <path d="M 244.53910524340094,97.46089475659906 A 104,104 0 0,1 275,171" />
    <path d="M 273.001669161936,191.28939348967734 A 104,104 0 0,1 257.47283967946476,228.77930423403859" />
    <path d="M 228.77930423403862,257.4728396794647 A 104,104 0 0,1 210.79907696596933,267.08347138117381" />
    <path d="M 150.71060651032266,273.001669161936 A 104,104 0 0,1 131.20092303403067,267.08347138117381" />
    <path d="M 113.22069576596141,257.47283967946476 A 104,104 0 0,1 97.460894756599075,244.53910524340097" />
    <path d="M 84.527160320535288,228.77930423403862 A 104,104 0 0,1 74.916528618826192,131.20092303403064" />
    <path d="M 84.527160320535273,113.22069576596141 A 104,104 0 0,1 150.71060651032261,68.998330838064049" />
    <path d="M 194.41083864193539,53.305766351612348 A 120,120 0 0,1 237.66842796235227,71.223646523694569" />
    <path d="M 270.77635347630542,104.33157203764773 A 120,120 0 0,1 288.69423364838764,194.41083864193539" />
    <path d="M 255.85281374238571,255.85281374238571 A 120,120 0 0,1 216.9220118838108,281.86554390135439" />
    <path d="M 194.41083864193544,288.69423364838764 A 120,120 0 0,1 147.58916135806459,288.69423364838764" />
    <path d="M 125.07798811618925,281.86554390135439 A 120,120 0 0,1 104.33157203764777,270.77635347630547" />
    <path d="M 86.147186257614308,255.85281374238571 A 120,120 0 0,1 71.223646523694569,237.66842796235227" />
    <path d="M 51,171.00000000000003 A 120,120 0 0,1 60.1344560986456,125.0779881161892" />
    <path d="M 86.14718625761428,86.147186257614322 A 120,120 0 0,1 125.07798811618915,60.134456098645614" />
    <path d="M 171,35 A 136,136 0 0,1 235.10995620833569,51.058708048623714" />
    <path d="M 246.55755169066589,57.920132726853851 A 136,136 0 0,1 267.16652224137044,74.833477758629527" />
    <path d="M 276.12942165733222,84.7225133537442 A 136,136 0 0,1 301.14388565958041,210.47871610660687" />
    <path d="M 296.647616421535,223.0449468016522 A 136,136 0 0,1 257.2774866462558,276.12942165733222" />
    <path d="M 246.55755169066589,284.07986727314619 A 136,136 0 0,1 223.04494680165223,296.64761642153496" />
    <path d="M 210.4787161066069,301.14388565958041 A 136,136 0 0,1 184.33033108482027,306.34512282741878" />
    <path d="M 171.00000000000003,307 A 136,136 0 0,1 157.66966891517976,306.34512282741878" />
    <path d="M 144.46771620580654,304.38679813483935 A 136,136 0 0,1 106.89004379166433,290.94129195137629" />
    <path d="M 95.442448309334139,284.07986727314619 A 136,136 0 0,1 74.833477758629556,267.16652224137044" />
    <path d="M 65.870578342667812,257.27748664625585 A 136,136 0 0,1 35.654877172581223,184.33033108482022" />
    <path d="M 35.654877172581223,157.66966891517984 A 136,136 0 0,1 40.856114340419595,131.52128389339316" />
    <path d="M 45.352383578465009,118.95505319834777 A 136,136 0 0,1 51.058708048623714,106.89004379166433" />
    <path d="M 57.920132726853822,95.442448309334139 A 136,136 0 0,1 74.833477758629513,74.833477758629556" />
    <path d="M 84.722513353744148,65.870578342667827 A 136,136 0 0,1 95.4424483093341,57.920132726853851" />
    <path d="M 106.89004379166428,51.058708048623743 A 136,136 0 0,1 118.95505319834771,45.352383578465037" />
    <path d="M 144.46771620580648,37.613201865160676 A 136,136 0 0,1 157.66966891517978,35.654877172581223" />
    <path d="M 156.1013946699068,19.731921545826083 A 152,152 0 0,1 185.8986053300932,19.731921545826083" />
    <path d="M 229.16788171949364,30.570311058284403 A 152,152 0 0,1 255.44667541897954,44.616618930013118" />
    <path d="M 267.42777919287414,53.50241108886398 A 152,152 0 0,1 288.497588911136,74.572220807125873" />
    <path d="M 305.05203218094994,99.34769600244833 A 152,152 0 0,1 323,171" />
    <path d="M 322.26807845417392,185.89860533009323 A 152,152 0 0,1 320.079362621291,200.65372894645148" />
    <path d="M 305.05203218094994,242.65230399755166 A 152,152 0 0,1 278.48023074035524,278.48023074035518" />
    <path d="M 267.42777919287414,288.497588911136 A 152,152 0 0,1 215.12327094267829,316.45493103129576" />
    <path d="M 200.65372894645154,320.079362621291 A 152,152 0 0,1 171.00000000000003,323" />
    <path d="M 156.1013946699068,322.26807845417392 A 152,152 0 0,1 141.34627105354849,320.079362621291" />
    <path d="M 112.83211828050636,311.4296889417156 A 152,152 0 0,1 74.572220807125916,288.49758891113606" />
    <path d="M 63.519769259644789,278.48023074035524 A 152,152 0 0,1 53.502411088864022,267.42777919287414" />
    <path d="M 36.947967819050064,242.65230399755168 A 152,152 0 0,1 30.57031105828446,229.16788171949372" />
    <path d="M 19.731921545826083,185.89860533009318 A 152,152 0 0,1 25.545068968704243,126.87672905732177" />
    <path d="M 30.570311058284432,112.83211828050632 A 152,152 0 0,1 44.61661893001309,86.553324581020519" />
    <path d="M 86.553324581020462,44.616618930013118 A 152,152 0 0,1 99.347696002448316,36.947967819050064" />
    <path d="M 112.83211828050625,30.57031105828446 A 152,152 0 0,1 141.34627105354844,21.920637378708989" />
    <path d="M 187.46687957536619,3.8089659190709142 A 168,168 0 1,1 171,3" />
  </g>
  <g fill="none" stroke="#000000" stroke-width="2" stroke-linecap="butt">
    <line x1="171" y1="35" x2="171" y2="51" />
    <line x1="171" y1="83" x2="171" y2="131" />
    <line x1="187.46687957536619" y1="3.8089659190709142" x2="185.8986053300932" y2="19.731921545826054" />
    <line x1="203.77517409870956" y1="6.2280728922572735" x2="200.65372894645151" y2="21.920637378708989" />
    <line x1="191.28939348967734" y1="68.998330838064035" x2="188.16794833741929" y2="84.690895324515722" />
    <line x1="215.12327094267829" y1="25.545068968704271" x2="210.47871610660687" y2="40.856114340419595" />
    <line x1="235.29081663733507" y1="15.788238538103826" x2="229.16788171949366" y2="30.570311058284403" />
    <line x1="223.0449468016522" y1="45.352383578465009" x2="216.92201188381077" y2="60.134456098645586" />
    <line x1="198.55320713028647" y1="104.48067365918736" x2="186.3073372946036" y2="134.04481869954853" />
    <line x1="242.65230399755166" y1="36.947967819050035" x2="235.10995620833569" y2="51.058708048623714" />
    <line x1="237.66842796235227" y1="71.223646523694569" x2="219.890180505725" y2="97.83067411737602" />
    <line x1="277.57807173949243" y1="41.134243835060175" x2="267.42777919287414" y2="53.50241108886398" />
    <line x1="267.16652224137044" y1="74.833477758629527" x2="244.53910524340094" y2="97.460894756599046" />
    <line x1="233.22539674441617" y1="108.77460325558381" x2="221.91168824543144" y2="120.08831175456857" />
    <line x1="210.59797974644664" y1="131.40202025355333" x2="187.97056274847714" y2="154.02943725152286" />
    <line x1="288.497588911136" y1="74.572220807125888" x2="276.12942165733222" y2="84.722513353744219" />
    <line x1="310.68689486682763" y1="77.664200852706813" x2="297.38338106998685" y2="86.553324581020448" />
    <line x1="267.08347138117381" y1="131.20092303403067" x2="222.73725382063205" y2="149.56972778755497" />
    <line x1="323" y1="171" x2="307" y2="171" />
    <line x1="275" y1="171" x2="259" y2="171" />
    <line x1="243" y1="171" x2="195" y2="171" />
    <line x1="335.77192710774273" y1="203.77517409870953" x2="320.079362621291" y2="200.65372894645148" />
    <line x1="304.38679813483935" y1="197.53228379419343" x2="273.001669161936" y2="191.28939348967734" />
    <line x1="316.45493103129576" y1="215.12327094267823" x2="301.14388565958041" y2="210.47871610660684" />
    <line x1="326.21176146189617" y1="235.29081663733507" x2="311.4296889417156" y2="229.16788171949364" />
    <line x1="296.64761642153496" y1="223.0449468016522" x2="281.86554390135439" y2="216.92201188381077" />
    <line x1="252.30139886099323" y1="204.6761420481279" x2="237.51932634081265" y2="198.55320713028647" />
    <line x1="222.73725382063205" y1="192.43027221244503" x2="207.95518130045147" y2="186.3073372946036" />
    <line x1="270.77635347630547" y1="237.66842796235224" x2="244.16932588262398" y2="219.89018050572497" />
    <line x1="288.49758891113606" y1="267.42777919287408" x2="276.12942165733227" y2="257.27748664625574" />
    <line x1="267.16652224137044" y1="267.16652224137044" x2="221.91168824543144" y2="221.91168824543144" />
    <line x1="210.59797974644667" y1="210.59797974644664" x2="199.2842712474619" y2="199.2842712474619" />
    <line x1="267.42777919287414" y1="288.497588911136" x2="257.2774866462558" y2="276.12942165733222" />
    <line x1="246.55755169066589" y1="284.07986727314619" x2="237.66842796235227" y2="270.77635347630542" />
    <line x1="210.79907696596933" y1="267.08347138117381" x2="204.6761420481279" y2="252.30139886099323" />
    <line x1="192.43027221244503" y1="222.73725382063205" x2="186.3073372946036" y2="207.95518130045147" />
    <line x1="215.12327094267829" y1="316.4549310312957" x2="210.4787161066069" y2="301.14388565958041" />
    <line x1="197.53228379419349" y1="304.38679813483935" x2="191.28939348967737" y2="273.001669161936" />
    <line x1="188.16794833741932" y1="257.30910467548426" x2="185.04650318516127" y2="241.61654018903261" />
    <line x1="187.46687957536622" y1="338.19103408092906" x2="185.89860533009323" y2="322.26807845417392" />
    <line x1="171.00000000000003" y1="307" x2="171" y2="259" />
    <line x1="171" y1="243" x2="171" y2="227" />
    <line x1="171" y1="211" x2="171" y2="195" />
    <line x1="156.1013946699068" y1="322.268078454174" x2="157.66966891517976" y2="306.34512282741878" />
    <line x1="141.34627105354849" y1="320.079362621291" x2="144.46771620580654" y2="304.38679813483935" />
    <line x1="122.23217422125038" y1="331.76597640301111" x2="126.87672905732177" y2="316.45493103129576" />
    <line x1="112.83211828050636" y1="311.4296889417156" x2="137.3238579518721" y2="252.30139886099323" />
    <line x1="143.44679286971353" y1="237.51932634081265" x2="149.56972778755497" y2="222.73725382063208" />
    <line x1="122.10981949427503" y1="244.16932588262398" x2="130.99894322258865" y2="230.86581208578326" />
    <line x1="52.206060760660023" y1="289.79393923934003" x2="97.46089475659906" y2="244.53910524340097" />
    <line x1="120.08831175456858" y1="221.91168824543144" x2="131.40202025355336" y2="210.59797974644667" />
    <line x1="53.502411088864022" y1="267.4277791928742" x2="65.870578342667812" y2="257.27748664625585" />
    <line x1="31.3131051331724" y1="264.33579914729319" x2="44.616618930013118" y2="255.44667541897954" />
    <line x1="84.5271603205353" y1="228.77930423403862" x2="111.13418791421674" y2="211.00105677741135" />
    <line x1="15.788238538103855" y1="235.29081663733518" x2="30.57031105828446" y2="229.16788171949372" />
    <line x1="60.134456098645614" y1="216.92201188381085" x2="74.9165286188262" y2="210.79907696596939" />
    <line x1="89.698601139006783" y1="204.67614204812796" x2="104.48067365918737" y2="198.5532071302865" />
    <line x1="25.545068968704271" y1="215.12327094267829" x2="40.856114340419595" y2="210.4787161066069" />
    <line x1="6.2280728922573019" y1="203.77517409870961" x2="21.920637378708989" y2="200.65372894645157" />
    <line x1="37.613201865160676" y1="197.53228379419349" x2="53.305766351612363" y2="194.41083864193544" />
    <line x1="19.731921545826054" y1="185.89860533009318" x2="35.654877172581223" y2="184.33033108482022" />
    <line x1="19" y1="171.00000000000003" x2="51" y2="171.00000000000003" />
    <line x1="83" y1="171.00000000000003" x2="115" y2="171" />
    <line x1="19.731921545826054" y1="156.10139466990688" x2="35.654877172581223" y2="157.66966891517984" />
    <line x1="45.352383578465023" y1="118.95505319834777" x2="60.1344560986456" y2="125.0779881161892" />
    <line x1="74.916528618826192" y1="131.20092303403064" x2="104.48067365918736" y2="143.44679286971353" />
    <line x1="31.313105133172371" y1="77.664200852706884" x2="44.61661893001309" y2="86.553324581020519" />
    <line x1="57.920132726853822" y1="95.442448309334154" x2="71.223646523694541" y2="104.33157203764777" />
    <line x1="97.830674117376" y1="122.10981949427503" x2="111.13418791421672" y2="130.99894322258865" />
    <line x1="53.502411088863994" y1="74.572220807125873" x2="65.870578342667784" y2="84.7225133537442" />
    <line x1="52.206060760659994" y1="52.206060760660051" x2="74.833477758629513" y2="74.833477758629556" />
    <line x1="86.14718625761428" y1="86.147186257614322" x2="108.7746032555838" y2="108.77460325558383" />
    <line x1="120.08831175456857" y1="120.08831175456859" x2="131.40202025355333" y2="131.40202025355336" />
    <line x1="64.421928260507485" y1="41.134243835060232" x2="84.722513353744148" y2="65.870578342667812" />
    <line x1="86.553324581020462" y1="44.616618930013118" x2="104.33157203764773" y2="71.223646523694569" />
    <line x1="113.22069576596138" y1="84.5271603205353" x2="122.109819494275" y2="97.83067411737602" />
    <line x1="99.347696002448316" y1="36.947967819050064" x2="106.89004379166428" y2="51.058708048623743" />
    <line x1="131.20092303403061" y1="74.9165286188262" x2="149.56972778755494" y2="119.26274617936795" />
    <line x1="122.2321742212503" y1="10.234023596988919" x2="131.5212838933931" y2="40.856114340419595" />
    <line x1="141.34627105354844" y1="21.920637378708989" x2="147.58916135806456" y2="53.305766351612363" />
    <line x1="150.71060651032261" y1="68.998330838064049" x2="156.95349681483873" y2="100.38345981096742" />
  </g>
  <path fill="none" stroke="#ff0000" stroke-width="2" stroke-linecap="square" stroke-linejoin="round" d="M 179.24336928700623,3.2023633575310271 L 178.85082789238689,11.192727007172408 A 160,160 0 0,0 147.523124087142,12.731758405635048 L 149.87081167842783,28.558582565071561 A 144,144 0 0,1 163.9342548968518,27.17345430645517 L 164.71933768609048,43.154181605737932 A 128,128 0 0,0 158.45380603781626,43.616354985958793 L 164.72690301890813,107.3081774929794 A 64,64 0 0,0 158.51421939096775,108.22974205419325 L 161.63566454322583,123.92230654064494 A 48,48 0 0,0 180.36433545677417,218.07769345935506 L 183.48578060903222,233.77025794580675 A 64,64 0 0,0 189.5782193442856,232.24418148686135 L 194.222774180357,247.5552268585767 A 80,80 0 0,0 208.71173894607983,241.5537011478684 L 216.2540867352958,255.66444137744207 A 96,96 0 0,0 231.90175527970996,245.20900352282274 L 242.05204782632831,257.57717077662653 A 112,112 0 0,1 203.51188385249978,278.17731760200741 L 198.86732901642839,262.86627223029205 A 96,96 0 0,1 180.40964547163785,266.5377337605309 L 178.84137122636486,250.61477813377576 A 80,80 0 0,1 133.2882610539202,241.55370114786842 L 140.83060884313616,227.44296091829472 A 64,64 0 0,1 130.3988298135267,220.47266901521516 L 110.09824472029005,245.20900352282277 A 96,96 0 0,0 125.74591326470423,255.66444137744207 L 118.20356547548826,269.77518160701578 A 112,112 0 0,1 99.947952173671723,257.57717077662653 L 89.7976596270534,269.94533803043032 A 128,128 0 0,0 105.19484874326764,280.78926208003486 L 96.96920483617609,294.51291984003922 A 144,144 0 0,1 74.295510502029344,277.6969620511141 L 63.550567224477049,289.55218005679342 A 160,160 0 0,0 117.09762345724479,321.64705042928335 L 122.48786111152032,306.582345386355 A 144,144 0 0,0 136.01085409393,310.68450046001431 L 132.12317121547778,326.20500051112708 A 160,160 0 0,0 163.14917210761317,330.80727299282762 L 163.93425489685185,314.82654569354486 A 144,144 0 0,0 205.98914590607,310.68450046001431 L 209.87682878452225,326.205000511127 A 160,160 0 0,0 315.63828689975094,239.40881494884511 L 301.17445820977582,232.56793345396059 A 144,144 0 0,0 306.582345386355,219.51213888847968 L 291.51764034342665,214.12190123420416 A 128,128 0 0,0 293.48836297372276,208.15643868857114 L 278.17731760200741,203.51188385249975 A 112,112 0 0,1 269.77518160701578,223.79643452451174 L 283.88592183658943,231.33878231372771 A 128,128 0 0,1 269.94533803043032,252.20234037294659 L 232.84083626901895,221.75146273309161 A 80,80 0 0,0 241.5537011478684,208.71173894607981 L 255.66444137744207,216.25408673529577 A 96,96 0 0,0 266.5377337605309,180.40964547163782 L 282.46068938728604,181.9779197169108 A 112,112 0 0,0 257.57717077662653,99.9479521736717 L 269.94533803043032,89.797659627053378 A 128,128 0 0,0 265.84174404543478,85.040453779581654 L 277.6969620511141,74.295510502029359 A 144,144 0 0,0 245.03079516382394,47.487080159960811 L 236.80515125673236,61.210737919965169 A 128,128 0 0,1 252.20234037294662,72.054661969569665 L 231.90175527970996,96.790996477177245 A 96,96 0 0,1 255.66444137744207,125.74591326470421 L 241.5537011478684,133.28826105392017 A 80,80 0 0,0 232.84083626901895,120.24853726690836 L 220.47266901521516,130.39882981352668 A 64,64 0 0,0 206.55649491325454,117.7859448126371 L 188.77824745662727,144.39297240631856 A 32,32 0 1,0 158.75413016431713,200.56414504036118 L 161.81559762323786,193.17310878027089" />
  <type>Circular</type>
</svg>