<?xml version="1.0" encoding="utf-8" standalone="no"?>
<!DOCTYPE svg PUBLIC "-//W3C//DTD SVG 1.1//EN" "http://www.w3.org/Graphics/SVG/1.1/DTD/svg11.dtd"[]>
<svg width="340" height="340" version="1.1" xmlns="http://www.w3.org/2000/svg">
  <title>21 cells diameter theta maze</title>
  <g fill="none" stroke="#000000" stroke-width="2" stroke-linecap="square">
    <path d="M 154.02943725152286,187.97056274847714 A 24,24 0 1,1 171,195" />
    <path d="M 142.7157287525381,142.7157287525381 A 40,40 0 1,1 186.3073372946036,207.95518130045147" />
    <path d="M 171,211 A 40,40 0 0,1 134.04481869954853,155.6926627053964" />
    <path d="M 115,171 A 56,56 0 0,1 171,115" />
    <path d="M 210.59797974644667,131.40202025355333 A 56,56 0 0,1 222.73725382063205,149.56972778755497" />
    <path d="M 227,171 A 56,56 0 0,1 222.73725382063208,192.43027221244503" />
    <path d="M 210.59797974644667,210.59797974644664 A 56,56 0 0,1 171,227" />
    <path d="M 120.08831175456857,120.08831175456859 A 72,72 0 0,1 221.91168824543144,120.08831175456858" />
    <path d="M 230.86581208578326,130.99894322258865 A 72,72 0 0,1 241.61654018903261,156.95349681483876" />
    <path d="M 237.51932634081265,198.55320713028647 A 72,72 0 0,1 221.91168824543144,221.91168824543141" />
    <path d="M 185.04650318516127,241.61654018903261 A 72,72 0 0,1 143.44679286971353,237.51932634081265" />
    <path d="M 130.99894322258865,230.86581208578326 A 72,72 0 0,1 111.13418791421674,211.00105677741135" />
    <path d="M 104.48067365918737,198.5532071302865 A 72,72 0 0,1 99,171" />
    <path d="M 100.38345981096741,156.95349681483876 A 72,72 0 0,1 111.13418791421672,130.99894322258865" />
    <path d="M 171,83 A 88,88 0 0,1 204.6761420481279,89.698601139006769" />
    <path d="M 252.30139886099323,137.3238579518721 A 88,88 0 0,1 259,171" />
    <path d="M 257.30910467548426,188.16794833741929 A 88,88 0 0,1 244.16932588262398,219.89018050572497" />
    <path d="M 219.89018050572497,244.16932588262398 A 88,88 0 0,1 204.6761420481279,252.30139886099323" />
    <path d="M 153.83205166258071,257.30910467548426 A 88,88 0 0,1 137.32385795187213,252.30139886099323" />
    <path d="M 122.10981949427503,244.16932588262398 A 88,88 0 0,1 108.77460325558383,233.2253967444162" />
    <path d="M 97.83067411737602,219.890180505725 A 88,88 0 0,1 84.690895324515722,188.16794833741932" />
    <path d="M 83,171.00000000000003 A 88,88 0 0,1 84.690895324515722,153.83205166258071" />
    <path d="M 89.698601139006769,137.32385795187207 A 88,88 0 0,1 137.32385795187204,89.698601139006783" />
    <path d="M 131.20092303403061,74.9165286188262 A 104,104 0 0,1 210.79907696596933,74.916528618826177" />
    <path d="M 228.77930423403862,84.527160320535288 A 104,104 0 0,1 257.4728396794647,113.22069576596137" />
    <path d="M 267.08347138117381,131.20092303403067 A 104,104 0 0,1 273.001669161936,150.71060651032266" />
    <path d="M 275,171 A 104,104 0 0,1 244.53910524340097,244.53910524340094" />
    <path d="M 210.79907696596933,267.08347138117381 A 104,104 0 0,1 191.28939348967737,273.001669161936" />
    <path d="M 171,275 A 104,104 0 0,1 113.22069576596141,257.47283967946476" />
    <path d="M 97.460894756599075,244.53910524340097 A 104,104 0 0,1 84.527160320535288,228.77930423403862" />
    <path d="M 67,171.00000000000003 A 104,104 0 0,1 74.916528618826192,131.20092303403064" />
    <path d="M 84.527160320535273,113.22069576596141 A 104,104 0 0,1 97.460894756599046,97.460894756599075" />
    <path d="M 125.07798811618915,60.134456098645614 A 120,120 0 0,1 194.41083864193539,53.305766351612348" />
    <path d="M 288.69423364838764,147.58916135806459 A 120,120 0 0,1 291,171" />
    <path d="M 281.86554390135439,216.92201188381077 A 120,120 0 0,1 270.77635347630542,237.66842796235224" />
    <path d="M 237.66842796235227,270.77635347630542 A 120,120 0 0,1 216.9220118838108,281.86554390135439" />
    <path d="M 171.00000000000003,291 A 120,120 0 0,1 147.58916135806459,288.69423364838764" />
    <path d="M 125.07798811618925,281.86554390135439 A 120,120 0 0,1 86.147186257614308,255.85281374238571" />
    <path d="M 60.134456098645614,216.92201188381085 A 120,120 0 0,1 53.305766351612348,194.41083864193544" />
    <path d="M 53.305766351612348,147.58916135806462 A 120,120 0 0,1 60.1344560986456,125.0779881161892" />
    <path d="M 157.66966891517978,35.654877172581223 A 136,136 0 0,1 184.33033108482024,35.654877172581223" />
    <path d="M 197.53228379419343,37.613201865160647 A 136,136 0 0,1 235.10995620833569,51.058708048623714" />
    <path d="M 246.55755169066589,57.920132726853851 A 136,136 0 0,1 284.07986727314614,95.4424483093341" />
    <path d="M 290.94129195137629,106.8900437916643 A 136,136 0 0,1 301.14388565958041,131.52128389339313" />
    <path d="M 307,171 A 136,136 0 0,1 296.647616421535,223.0449468016522" />
    <path d="M 290.94129195137629,235.10995620833569 A 136,136 0 0,1 257.2774866462558,276.12942165733222" />
    <path d="M 246.55755169066589,284.07986727314619 A 136,136 0 0,1 235.10995620833569,290.94129195137629" />
    <path d="M 223.04494680165223,296.64761642153496 A 136,136 0 0,1 197.53228379419349,304.3867981348393" />
    <path d="M 184.33033108482027,306.34512282741878 A 136,136 0 0,1 171.00000000000003,307" />
    <path d="M 144.46771620580654,304.38679813483935 A 136,136 0 0,1 118.9550531983478,296.647616421535" />
    <path d="M 106.89004379166433,290.94129195137629 A 136,136 0 0,1 65.870578342667812,257.27748664625585" />
    <path d="M 57.920132726853836,246.55755169066589 A 136,136 0 0,1 40.856114340419595,210.4787161066069" />
    <path d="M 37.613201865160676,197.53228379419349 A 136,136 0 0,1 37.613201865160647,144.46771620580654" />
    <path d="M 40.856114340419595,131.52128389339316 A 136,136 0 0,1 45.352383578465009,118.95505319834777" />
    <path d="M 51.058708048623714,106.89004379166433 A 136,136 0 0,1 65.870578342667784,84.7225133537442" />
    <path d="M 74.833477758629513,74.833477758629556 A 136,136 0 0,1 118.95505319834771,45.352383578465037" />
    <path d="M 131.5212838933931,40.856114340419595 A 136,136 0 0,1 144.46771620580648,37.613201865160676" />
    <path d="M 185.8986053300932,19.731921545826083 A 152,152 0 0,1 215.12327094267829,25.545068968704243" />
    <path d="M 229.16788171949364,30.570311058284403 A 152,152 0 0,1 255.44667541897954,44.616618930013118" />
    <path d="M 267.42777919287414,53.50241108886398 A 152,152 0 0,1 316.45493103129576,126.87672905732174" />
    <path d="M 320.079362621291,141.34627105354849 A 152,152 0 0,1 316.45493103129576,215.12327094267826" />
    <path d="M 311.4296889417156,229.16788171949364 A 152,152 0 0,1 305.05203218094994,242.65230399755166" />
    <path d="M 278.48023074035524,278.48023074035518 A 152,152 0 0,1 171.00000000000003,323" />
    <path d="M 156.1013946699068,322.26807845417392 A 152,152 0 0,1 63.519769259644789,278.48023074035524" />
    <path d="M 53.502411088864022,267.42777919287414 A 152,152 0 0,1 44.616618930013118,255.44667541897951" />
    <path d="M 36.947967819050064,242.65230399755168 A 152,152 0 0,1 53.502411088863994,74.572220807125873" />
    <path d="M 74.572220807125817,53.502411088864037 A 152,152 0 0,1 99.347696002448316,36.947967819050064" />
    <path d="M 187.46687957536619,3.8089659190709142 A 168,168 0 1,1 171,3" />
  </g>
  <g fill="none" stroke="#000000" stroke-width="2" stroke-linecap="butt">
    <line x1="171" y1="3" x2="171" y2="19" />
    <line x1="171" y1="35" x2="171" y2="51" />
    <line x1="171" y1="99" x2="171" y2="115" />
    <line x1="185.8986053300932" y1="19.731921545826054" x2="184.33033108482024" y2="35.654877172581223" />
    <line x1="223.0449468016522" y1="45.352383578465009" x2="204.6761420481279" y2="89.698601139006769" />
    <line x1="192.43027221244503" y1="119.26274617936795" x2="186.3073372946036" y2="134.04481869954853" />
    <line x1="255.44667541897954" y1="44.616618930013118" x2="246.55755169066589" y2="57.920132726853851" />
    <line x1="237.66842796235227" y1="71.223646523694569" x2="219.890180505725" y2="97.83067411737602" />
    <line x1="267.16652224137044" y1="74.833477758629527" x2="255.85281374238571" y2="86.1471862576143" />
    <line x1="233.22539674441617" y1="108.77460325558381" x2="210.59797974644664" y2="131.40202025355333" />
    <line x1="284.07986727314614" y1="95.442448309334083" x2="230.86581208578326" y2="130.99894322258865" />
    <line x1="305.05203218094994" y1="99.34769600244833" x2="290.94129195137629" y2="106.8900437916643" />
    <line x1="296.64761642153496" y1="118.95505319834778" x2="252.30139886099323" y2="137.3238579518721" />
    <line x1="237.51932634081265" y1="143.44679286971353" x2="222.73725382063205" y2="149.56972778755497" />
    <line x1="331.76597640301111" y1="122.23217422125032" x2="316.45493103129576" y2="126.87672905732173" />
    <line x1="320.079362621291" y1="141.34627105354849" x2="288.69423364838764" y2="147.58916135806459" />
    <line x1="322.26807845417392" y1="156.10139466990677" x2="306.34512282741878" y2="157.66966891517973" />
    <line x1="307" y1="171" x2="291" y2="171" />
    <line x1="275" y1="171" x2="211" y2="171" />
    <line x1="288.69423364838764" y1="194.41083864193539" x2="273.001669161936" y2="191.28939348967734" />
    <line x1="257.30910467548426" y1="188.16794833741929" x2="241.61654018903261" y2="185.04650318516124" />
    <line x1="331.76597640301111" y1="219.76782577874965" x2="316.45493103129576" y2="215.12327094267823" />
    <line x1="311.4296889417156" y1="229.16788171949364" x2="281.86554390135439" y2="216.92201188381077" />
    <line x1="237.51932634081265" y1="198.55320713028647" x2="222.73725382063205" y2="192.43027221244503" />
    <line x1="310.68689486682763" y1="264.33579914729313" x2="297.38338106998691" y2="255.44667541897951" />
    <line x1="257.47283967946476" y1="228.77930423403859" x2="244.16932588262398" y2="219.89018050572497" />
    <line x1="300.86575616493985" y1="277.57807173949243" x2="288.49758891113606" y2="267.42777919287408" />
    <line x1="278.48023074035524" y1="278.48023074035518" x2="255.85281374238571" y2="255.85281374238571" />
    <line x1="233.22539674441617" y1="233.22539674441617" x2="221.91168824543144" y2="221.91168824543144" />
    <line x1="246.55755169066589" y1="284.07986727314619" x2="211.00105677741135" y2="230.86581208578326" />
    <line x1="229.16788171949366" y1="311.4296889417156" x2="223.04494680165223" y2="296.64761642153496" />
    <line x1="216.9220118838108" y1="281.86554390135439" x2="210.79907696596933" y2="267.08347138117381" />
    <line x1="204.6761420481279" y1="252.30139886099323" x2="186.3073372946036" y2="207.95518130045147" />
    <line x1="197.53228379419349" y1="304.38679813483935" x2="194.41083864193544" y2="288.69423364838764" />
    <line x1="191.28939348967737" y1="273.001669161936" x2="185.04650318516127" y2="241.61654018903261" />
    <line x1="171.00000000000003" y1="339" x2="171.00000000000003" y2="323" />
    <line x1="171.00000000000003" y1="307" x2="171.00000000000003" y2="291" />
    <line x1="171" y1="275" x2="171" y2="243" />
    <line x1="171" y1="211" x2="171" y2="195" />
    <line x1="156.1013946699068" y1="322.268078454174" x2="157.66966891517976" y2="306.34512282741878" />
    <line x1="144.46771620580654" y1="304.38679813483935" x2="150.71060651032266" y2="273.001669161936" />
    <line x1="131.20092303403067" y1="267.08347138117381" x2="137.3238579518721" y2="252.30139886099323" />
    <line x1="143.44679286971353" y1="237.51932634081265" x2="149.56972778755497" y2="222.73725382063208" />
    <line x1="99.347696002448359" y1="305.05203218094994" x2="106.89004379166433" y2="290.94129195137629" />
    <line x1="74.833477758629542" y1="267.1665222413705" x2="108.77460325558383" y2="233.2253967444162" />
    <line x1="120.08831175456858" y1="221.91168824543144" x2="131.40202025355336" y2="210.59797974644667" />
    <line x1="31.3131051331724" y1="264.33579914729319" x2="84.5271603205353" y2="228.77930423403862" />
    <line x1="97.83067411737602" y1="219.890180505725" x2="111.13418791421674" y2="211.00105677741135" />
    <line x1="60.134456098645614" y1="216.92201188381085" x2="74.9165286188262" y2="210.79907696596939" />
    <line x1="104.48067365918737" y1="198.5532071302865" x2="134.04481869954856" y2="186.3073372946036" />
    <line x1="21.920637378708989" y1="200.65372894645157" x2="37.613201865160676" y2="197.53228379419349" />
    <line x1="53.305766351612363" y1="194.41083864193544" x2="100.38345981096742" y2="185.04650318516127" />
    <line x1="35" y1="171.00000000000003" x2="67" y2="171.00000000000003" />
    <line x1="83" y1="171.00000000000003" x2="99" y2="171" />
    <line x1="25.545068968704243" y1="126.87672905732177" x2="40.856114340419595" y2="131.52128389339316" />
    <line x1="60.1344560986456" y1="125.0779881161892" x2="89.698601139006783" y2="137.32385795187207" />
    <line x1="104.48067365918736" y1="143.44679286971353" x2="134.04481869954853" y2="155.6926627053964" />
    <line x1="57.920132726853822" y1="95.442448309334154" x2="71.223646523694541" y2="104.33157203764777" />
    <line x1="53.502411088863994" y1="74.572220807125873" x2="65.870578342667784" y2="84.7225133537442" />
    <line x1="63.519769259644747" y1="63.519769259644804" x2="108.7746032555838" y2="108.77460325558383" />
    <line x1="142.7157287525381" y1="142.7157287525381" x2="154.02943725152286" y2="154.02943725152286" />
    <line x1="74.572220807125817" y1="53.502411088864022" x2="84.722513353744148" y2="65.870578342667812" />
    <line x1="95.442448309334111" y1="57.920132726853851" x2="113.22069576596138" y2="84.5271603205353" />
    <line x1="106.70918336266482" y1="15.788238538103855" x2="125.07798811618915" y2="60.134456098645614" />
    <line x1="131.20092303403061" y1="74.9165286188262" x2="137.32385795187204" y2="89.698601139006783" />
    <line x1="126.8767290573217" y1="25.545068968704271" x2="131.5212838933931" y2="40.856114340419595" />
    <line x1="138.22482590129039" y1="6.2280728922573019" x2="144.46771620580648" y2="37.613201865160676" />
    <line x1="153.83205166258068" y1="84.690895324515736" x2="156.95349681483873" y2="100.38345981096742" />
    <line x1="156.1013946699068" y1="19.731921545826054" x2="157.66966891517978" y2="35.654877172581223" />
  </g>
  <path fill="none" stroke="#ff0000" stroke-width="2" stroke-linecap="square" stroke-linejoin="round" d="M 179.24336928700623,3.2023633575310271 L 178.85082789238689,11.192727007172408 A 160,160 0 0,1 266.31188871878931,42.486794963096827 L 256.78069984691041,55.33811546678713 A 144,144 0 0,1 294.51291984003916,96.969204836176075 L 280.78926208003486,105.19484874326763 A 128,128 0 0,1 283.88592183658943,110.66121768627228 L 241.5537011478684,133.28826105392017 A 80,80 0 0,1 250.61477813377576,163.15862877363514 L 234.69182250702059,164.7269030189081 A 64,64 0 0,0 233.77025794580675,158.51421939096778 L 218.07769345935506,161.63566454322583 A 48,48 0 0,0 197.66737118494092,131.08945860947785 L 206.55649491325454,117.7859448126371 A 64,64 0 0,0 183.48578060903222,108.22974205419325 L 180.36433545677414,123.92230654064494 A 48,48 0 0,0 131.08945860947782,144.33262881505911 L 144.39297240631854,153.22175254337273 A 32,32 0 0,0 158.75413016431713,200.56414504036118 L 161.81559762323786,193.17310878027089" />
  <type>Circular</type>
</svg>