<?xml version="1.0" encoding="utf-8" standalone="no"?>
<!DOCTYPE svg PUBLIC "-//W3C//DTD SVG 1.1//EN" "http://www.w3.org/Graphics/SVG/1.1/DTD/svg11.dtd"[]>
<svg width="340" height="340" version="1.1" xmlns="http://www.w3.org/2000/svg">
  <title>21 cells diameter theta maze</title>
  <g fill="none" stroke="#000000" stroke-width="2" stroke-linecap="square">
    <path d="M 154.02943725152286,187.97056274847714 A 24,24 0 1,1 171,195" />
    <path d="M 155.69266270539637,134.04481869954856 A 40,40 0 0,1 207.95518130045147,155.6926627053964" />
    <path d="M 207.95518130045147,186.3073372946036 A 40,40 0 0,1 134.04481869954853,186.3073372946036" />
    <path d="M 149.56972778755494,119.26274617936795 A 56,56 0 0,1 210.59797974644667,131.40202025355333" />
    <path d="M 222.73725382063205,149.56972778755497 A 56,56 0 0,1 227,171" />
    <path d="M 222.73725382063208,192.43027221244503 A 56,56 0 0,1 210.59797974644667,210.59797974644664" />
    <path d="M 171,227 A 56,56 0 0,1 149.569727787555,222.73725382063208" />
    <path d="M 131.40202025355336,210.59797974644667 A 56,56 0 0,1 119.26274617936795,192.43027221244506" />
    <path d="M 115,171 A 56,56 0 0,1 131.40202025355333,131.40202025355336" />
    <path d="M 171,99 A 72,72 0 0,1 185.04650318516124,100.38345981096741" />
    <path d="M 198.55320713028647,104.48067365918736 A 72,72 0 0,1 241.61654018903261,156.95349681483876" />
    <path d="M 243,171 A 72,72 0 0,1 237.51932634081265,198.55320713028647" />
    <path d="M 230.86581208578326,211.00105677741135 A 72,72 0 0,1 171,243" />
    <path d="M 156.95349681483876,241.61654018903261 A 72,72 0 0,1 99,171" />
    <path d="M 100.38345981096741,156.95349681483876 A 72,72 0 0,1 111.13418791421672,130.99894322258865" />
    <path d="M 120.08831175456857,120.08831175456859 A 72,72 0 0,1 143.44679286971348,104.48067365918737" />
    <path d="M 171,83 A 88,88 0 0,1 204.6761420481279,89.698601139006769" />
    <path d="M 219.890180505725,97.83067411737602 A 88,88 0 0,1 233.22539674441617,108.77460325558381" />
    <path d="M 244.16932588262398,122.109819494275 A 88,88 0 0,1 257.30910467548426,153.83205166258071" />
    <path d="M 259,171 A 88,88 0 0,1 257.30910467548426,188.16794833741929" />
    <path d="M 252.30139886099323,204.6761420481279 A 88,88 0 0,1 244.16932588262398,219.89018050572497" />
    <path d="M 204.6761420481279,252.30139886099323 A 88,88 0 0,1 188.16794833741932,257.30910467548426" />
    <path d="M 171,259 A 88,88 0 0,1 153.83205166258071,257.30910467548426" />
    <path d="M 122.10981949427503,244.16932588262398 A 88,88 0 0,1 84.690895324515722,153.83205166258071" />
    <path d="M 97.830674117375992,122.10981949427503 A 88,88 0 0,1 137.32385795187204,89.698601139006783" />
    <path d="M 150.71060651032261,68.998330838064049 A 104,104 0 0,1 228.77930423403862,84.527160320535288" />
    <path d="M 244.53910524340094,97.46089475659906 A 104,104 0 0,1 257.4728396794647,113.22069576596137" />
    <path d="M 267.08347138117381,131.20092303403067 A 104,104 0 0,1 273.001669161936,150.71060651032266" />
    <path d="M 267.08347138117381,210.79907696596933 A 104,104 0 0,1 257.47283967946476,228.77930423403859" />
    <path d="M 244.53910524340097,244.53910524340094 A 104,104 0 0,1 228.77930423403862,257.4728396794647" />
    <path d="M 113.22069576596141,257.47283967946476 A 104,104 0 0,1 84.527160320535288,228.77930423403862" />
    <path d="M 74.9165286188262,210.79907696596939 A 104,104 0 0,1 84.527160320535273,113.22069576596141" />
    <path d="M 97.460894756599046,97.460894756599075 A 104,104 0 0,1 113.22069576596137,84.5271603205353" />
    <path d="M 194.41083864193539,53.305766351612348 A 120,120 0 0,1 270.77635347630542,104.33157203764773" />
    <path d="M 281.86554390135439,125.07798811618923 A 120,120 0 0,1 291,171" />
    <path d="M 288.69423364838764,194.41083864193539 A 120,120 0 0,1 270.77635347630542,237.66842796235224" />
    <path d="M 255.85281374238571,255.85281374238571 A 120,120 0 0,1 237.66842796235227,270.77635347630542" />
    <path d="M 147.58916135806459,288.69423364838764 A 120,120 0 0,1 125.07798811618925,281.86554390135439" />
    <path d="M 86.147186257614308,255.85281374238571 A 120,120 0 0,1 53.305766351612348,194.41083864193544" />
    <path d="M 60.1344560986456,125.0779881161892 A 120,120 0 0,1 86.14718625761428,86.147186257614322" />
    <path d="M 157.66966891517978,35.654877172581223 A 136,136 0 0,1 210.4787161066069,40.856114340419595" />
    <path d="M 223.0449468016522,45.352383578464995 A 136,136 0 0,1 235.10995620833569,51.058708048623714" />
    <path d="M 257.2774866462558,65.87057834266777 A 136,136 0 0,1 296.64761642153496,118.95505319834778" />
    <path d="M 304.38679813483935,144.46771620580654 A 136,136 0 0,1 306.34512282741878,157.66966891517973" />
    <path d="M 307,171 A 136,136 0 0,1 306.34512282741878,184.33033108482024" />
    <path d="M 301.14388565958041,210.47871610660687 A 136,136 0 0,1 290.94129195137629,235.10995620833569" />
    <path d="M 284.07986727314619,246.55755169066589 A 136,136 0 0,1 223.04494680165223,296.64761642153496" />
    <path d="M 197.53228379419349,304.3867981348393 A 136,136 0 0,1 157.66966891517976,306.34512282741878" />
    <path d="M 144.46771620580654,304.38679813483935 A 136,136 0 0,1 106.89004379166433,290.94129195137629" />
    <path d="M 84.722513353744233,276.12942165733227 A 136,136 0 0,1 65.870578342667812,257.27748664625585" />
    <path d="M 57.920132726853836,246.55755169066589 A 136,136 0 0,1 45.352383578465037,223.04494680165229" />
    <path d="M 40.856114340419595,210.4787161066069 A 136,136 0 0,1 35,171.00000000000003" />
    <path d="M 37.613201865160647,144.46771620580654 A 136,136 0 0,1 65.870578342667784,84.7225133537442" />
    <path d="M 74.833477758629513,74.833477758629556 A 136,136 0 0,1 95.4424483093341,57.920132726853851" />
    <path d="M 106.89004379166428,51.058708048623743 A 136,136 0 0,1 118.95505319834771,45.352383578465037" />
    <path d="M 131.5212838933931,40.856114340419595 A 136,136 0 0,1 144.46771620580648,37.613201865160676" />
    <path d="M 141.34627105354844,21.920637378708989 A 152,152 0 0,1 171,19" />
    <path d="M 200.65372894645151,21.92063737870896 A 152,152 0 0,1 215.12327094267829,25.545068968704243" />
    <path d="M 229.16788171949364,30.570311058284403 A 152,152 0 0,1 267.42777919287414,53.50241108886398" />
    <path d="M 278.48023074035524,63.519769259644775 A 152,152 0 0,1 288.497588911136,74.572220807125873" />
    <path d="M 297.38338106998685,86.553324581020462 A 152,152 0 0,1 311.4296889417156,112.83211828050635" />
    <path d="M 316.45493103129576,126.87672905732174 A 152,152 0 0,1 320.079362621291,141.34627105354849" />
    <path d="M 322.26807845417392,156.10139466990677 A 152,152 0 0,1 323,171" />
    <path d="M 322.26807845417392,185.89860533009323 A 152,152 0 0,1 311.4296889417156,229.16788171949364" />
    <path d="M 297.38338106998691,255.44667541897951 A 152,152 0 0,1 288.49758891113606,267.42777919287408" />
    <path d="M 267.42777919287414,288.497588911136 A 152,152 0 0,1 255.44667541897951,297.38338106998685" />
    <path d="M 229.16788171949366,311.42968894171554 A 152,152 0 0,1 200.65372894645154,320.079362621291" />
    <path d="M 185.89860533009323,322.26807845417392 A 152,152 0 0,1 156.1013946699068,322.26807845417392" />
    <path d="M 141.34627105354849,320.079362621291 A 152,152 0 0,1 126.87672905732175,316.45493103129576" />
    <path d="M 99.347696002448359,305.05203218094994 A 152,152 0 0,1 74.572220807125916,288.49758891113606" />
    <path d="M 53.502411088864022,267.42777919287414 A 152,152 0 0,1 36.947967819050064,242.65230399755168" />
    <path d="M 19.731921545826083,185.89860533009318 A 152,152 0 0,1 19.731921545826054,156.10139466990688" />
    <path d="M 21.92063737870896,141.34627105354849 A 152,152 0 0,1 30.570311058284432,112.83211828050632" />
    <path d="M 44.61661893001309,86.553324581020519 A 152,152 0 0,1 86.553324581020462,44.616618930013118" />
    <path d="M 99.347696002448316,36.947967819050064 A 152,152 0 0,1 126.87672905732171,25.545068968704271" />
    <path d="M 187.46687957536619,3.8089659190709142 A 168,168 0 1,1 171,3" />
  </g>
  <g fill="none" stroke="#000000" stroke-width="2" stroke-linecap="butt">
    <line x1="171" y1="19" x2="171" y2="35" />
    <line x1="171" y1="51" x2="171" y2="67" />
    <line x1="171" y1="99" x2="171" y2="115" />
    <line x1="171" y1="131" x2="171" y2="147" />
    <line x1="187.46687957536619" y1="3.8089659190709142" x2="185.8986053300932" y2="19.731921545826054" />
    <line x1="197.53228379419343" y1="37.613201865160647" x2="194.41083864193539" y2="53.305766351612348" />
    <line x1="188.16794833741929" y1="84.690895324515722" x2="185.04650318516124" y2="100.38345981096741" />
    <line x1="215.12327094267829" y1="25.545068968704271" x2="210.47871610660687" y2="40.856114340419595" />
    <line x1="235.29081663733507" y1="15.788238538103826" x2="229.16788171949366" y2="30.570311058284403" />
    <line x1="242.65230399755166" y1="36.947967819050035" x2="235.10995620833569" y2="51.058708048623714" />
    <line x1="255.44667541897954" y1="44.616618930013118" x2="246.55755169066589" y2="57.920132726853851" />
    <line x1="228.77930423403862" y1="84.5271603205353" x2="211.00105677741135" y2="111.13418791421674" />
    <line x1="278.48023074035518" y1="63.519769259644775" x2="267.16652224137044" y2="74.833477758629527" />
    <line x1="284.07986727314614" y1="95.442448309334083" x2="270.77635347630542" y2="104.33157203764773" />
    <line x1="257.4728396794647" y1="113.22069576596135" x2="244.16932588262398" y2="122.109819494275" />
    <line x1="311.4296889417156" y1="112.83211828050634" x2="281.86554390135439" y2="125.07798811618922" />
    <line x1="237.51932634081265" y1="143.44679286971353" x2="222.73725382063205" y2="149.56972778755497" />
    <line x1="316.45493103129576" y1="126.87672905732173" x2="301.14388565958041" y2="131.52128389339313" />
    <line x1="335.77192710774273" y1="138.22482590129044" x2="320.079362621291" y2="141.34627105354849" />
    <line x1="304.38679813483935" y1="144.46771620580654" x2="288.69423364838764" y2="147.58916135806459" />
    <line x1="273.001669161936" y1="150.71060651032266" x2="241.61654018903261" y2="156.95349681483876" />
    <line x1="322.26807845417392" y1="156.10139466990677" x2="306.34512282741878" y2="157.66966891517973" />
    <line x1="307" y1="171" x2="243" y2="171" />
    <line x1="227" y1="171" x2="211" y2="171" />
    <line x1="338.19103408092906" y1="187.46687957536619" x2="322.268078454174" y2="185.89860533009323" />
    <line x1="320.079362621291" y1="200.65372894645148" x2="288.69423364838764" y2="194.41083864193539" />
    <line x1="273.001669161936" y1="191.28939348967734" x2="257.30910467548426" y2="188.16794833741929" />
    <line x1="316.45493103129576" y1="215.12327094267823" x2="301.14388565958041" y2="210.47871610660684" />
    <line x1="267.08347138117381" y1="210.79907696596933" x2="252.30139886099323" y2="204.6761420481279" />
    <line x1="237.51932634081265" y1="198.55320713028647" x2="207.95518130045147" y2="186.3073372946036" />
    <line x1="305.05203218094994" y1="242.65230399755166" x2="290.94129195137629" y2="235.10995620833569" />
    <line x1="310.68689486682763" y1="264.33579914729313" x2="297.38338106998691" y2="255.44667541897951" />
    <line x1="284.07986727314619" y1="246.55755169066586" x2="257.47283967946476" y2="228.77930423403859" />
    <line x1="289.79393923934" y1="289.79393923934" x2="278.48023074035524" y2="278.48023074035518" />
    <line x1="244.53910524340097" y1="244.53910524340094" x2="233.22539674441617" y2="233.22539674441617" />
    <line x1="221.91168824543144" y1="221.91168824543144" x2="210.59797974644667" y2="210.59797974644664" />
    <line x1="264.33579914729319" y1="310.68689486682763" x2="255.44667541897954" y2="297.38338106998691" />
    <line x1="246.55755169066589" y1="284.07986727314619" x2="237.66842796235227" y2="270.77635347630542" />
    <line x1="228.77930423403862" y1="257.4728396794647" x2="211.00105677741135" y2="230.86581208578326" />
    <line x1="242.65230399755166" y1="305.05203218094994" x2="235.10995620833569" y2="290.94129195137629" />
    <line x1="223.04494680165223" y1="296.64761642153496" x2="216.9220118838108" y2="281.86554390135439" />
    <line x1="210.79907696596933" y1="267.08347138117381" x2="204.6761420481279" y2="252.30139886099323" />
    <line x1="198.55320713028647" y1="237.51932634081265" x2="192.43027221244503" y2="222.73725382063205" />
    <line x1="215.12327094267829" y1="316.4549310312957" x2="210.4787161066069" y2="301.14388565958041" />
    <line x1="203.77517409870961" y1="335.77192710774273" x2="200.65372894645154" y2="320.079362621291" />
    <line x1="197.53228379419349" y1="304.38679813483935" x2="185.04650318516127" y2="241.61654018903261" />
    <line x1="171.00000000000003" y1="323" x2="171.00000000000003" y2="291" />
    <line x1="171" y1="275" x2="171" y2="243" />
    <line x1="171" y1="211" x2="171" y2="195" />
    <line x1="141.34627105354849" y1="320.079362621291" x2="144.46771620580654" y2="304.38679813483935" />
    <line x1="150.71060651032266" y1="273.001669161936" x2="153.83205166258071" y2="257.30910467548426" />
    <line x1="106.70918336266493" y1="326.21176146189623" x2="149.56972778755497" y2="222.73725382063208" />
    <line x1="86.5533245810205" y1="297.38338106998691" x2="122.10981949427503" y2="244.16932588262398" />
    <line x1="74.572220807125916" y1="288.49758891113606" x2="84.722513353744247" y2="276.12942165733227" />
    <line x1="52.206060760660023" y1="289.79393923934003" x2="63.519769259644789" y2="278.48023074035524" />
    <line x1="53.502411088864022" y1="267.4277791928742" x2="65.870578342667812" y2="257.27748664625585" />
    <line x1="57.920132726853851" y1="246.55755169066589" x2="71.223646523694569" y2="237.66842796235227" />
    <line x1="15.788238538103855" y1="235.29081663733518" x2="45.352383578465037" y2="223.04494680165229" />
    <line x1="60.134456098645614" y1="216.92201188381085" x2="74.9165286188262" y2="210.79907696596939" />
    <line x1="104.48067365918737" y1="198.5532071302865" x2="134.04481869954856" y2="186.3073372946036" />
    <line x1="25.545068968704271" y1="215.12327094267829" x2="40.856114340419595" y2="210.4787161066069" />
    <line x1="21.920637378708989" y1="200.65372894645157" x2="53.305766351612363" y2="194.41083864193544" />
    <line x1="19" y1="171.00000000000003" x2="35" y2="171.00000000000003" />
    <line x1="51" y1="171.00000000000003" x2="67" y2="171.00000000000003" />
    <line x1="115" y1="171" x2="147" y2="171" />
    <line x1="19.731921545826054" y1="156.10139466990688" x2="35.654877172581223" y2="157.66966891517984" />
    <line x1="21.920637378708989" y1="141.34627105354849" x2="53.305766351612348" y2="147.58916135806462" />
    <line x1="84.690895324515722" y1="153.83205166258071" x2="100.38345981096741" y2="156.95349681483876" />
    <line x1="74.916528618826192" y1="131.20092303403064" x2="89.698601139006783" y2="137.32385795187207" />
    <line x1="104.48067365918736" y1="143.44679286971353" x2="134.04481869954853" y2="155.6926627053964" />
    <line x1="22.837227589476356" y1="91.8053482132324" x2="51.058708048623714" y2="106.89004379166433" />
    <line x1="71.223646523694541" y1="104.33157203764777" x2="84.527160320535273" y2="113.22069576596141" />
    <line x1="97.830674117376" y1="122.10981949427503" x2="111.13418791421672" y2="130.99894322258865" />
    <line x1="74.833477758629513" y1="74.833477758629556" x2="97.460894756599046" y2="97.460894756599075" />
    <line x1="142.7157287525381" y1="142.7157287525381" x2="154.02943725152286" y2="154.02943725152286" />
    <line x1="74.572220807125817" y1="53.502411088864022" x2="84.722513353744148" y2="65.870578342667812" />
    <line x1="104.33157203764773" y1="71.223646523694569" x2="113.22069576596138" y2="84.5271603205353" />
    <line x1="106.70918336266482" y1="15.788238538103855" x2="112.83211828050625" y2="30.57031105828446" />
    <line x1="118.95505319834771" y1="45.352383578465037" x2="149.56972778755494" y2="119.26274617936795" />
    <line x1="126.8767290573217" y1="25.545068968704271" x2="131.5212838933931" y2="40.856114340419595" />
    <line x1="144.46771620580648" y1="37.613201865160676" x2="156.95349681483873" y2="100.38345981096742" />
  </g>
  <path fill="none" stroke="#ff0000" stroke-width="2" stroke-linecap="square" stroke-linejoin="round" d="M 179.24336928700623,3.2023633575310271 L 178.85082789238689,11.192727007172408 A 160,160 0 0,0 132.12317121547773,15.794999488872975 L 136.01085409392996,31.315499539985666 A 144,144 0 0,1 149.87081167842783,28.558582565071561 L 152.21849926971362,44.385406724508044 A 128,128 0 0,1 183.54619396218376,43.616354985958793 L 181.97791971691078,59.539310612713948 A 112,112 0 0,1 282.46068938728604,160.0220802830892 L 234.69182250702059,164.7269030189081 A 64,64 0 0,1 233.77025794580675,183.48578060903219 L 202.38512897290337,177.2428903045161 A 32,32 0 0,0 202.38512897290337,164.75710969548391 L 218.07769345935506,161.63566454322583 A 48,48 0 0,0 210.91054139052216,144.33262881505908 L 224.2140551873629,135.44350508674546 A 64,64 0 0,0 189.5782193442856,109.75581851313864 L 194.222774180357,94.4447731414233 A 80,80 0 0,1 208.71173894607981,100.44629885213159 L 216.25408673529577,86.335558622557912 A 96,96 0 0,0 161.59035452836218,75.4622662394691 L 164.72690301890813,107.3081774929794 A 64,64 0 0,0 152.4217806557144,109.75581851313864 L 133.8435613114288,48.51163702627727 A 128,128 0 0,0 127.87809876579584,50.482359656573337 L 122.48786111152032,35.417654613645 A 144,144 0 0,0 96.969204836176047,47.48708015996084 L 105.1948487432676,61.210737919965183 A 128,128 0 0,1 110.66121768627227,58.114078163410582 L 125.7459132647042,86.335558622557926 A 96,96 0 0,0 86.335558622557912,125.74591326470423 L 100.44629885213159,133.2882610539202 A 80,80 0 0,0 94.444773141423283,147.77722581964304 L 79.133727769707946,143.13267098357164 A 96,96 0 0,0 86.335558622557926,216.2540867352958 L 72.224818392984247,223.79643452451177 A 112,112 0 0,0 99.947952173671723,257.57717077662653 L 89.7976596270534,269.94533803043032 A 128,128 0 0,1 68.189435970477433,247.24951097503146 L 55.338115466787116,256.78069984691035 A 144,144 0 0,1 40.825541790224179,232.56793345396068 L 26.361713100249091,239.40881494884519 A 160,160 0 0,0 52.447819943206582,278.44943277552295 L 64.303037948885915,267.70448949797071 A 144,144 0 0,0 74.295510502029344,277.6969620511141 L 63.550567224477049,289.55218005679342 A 160,160 0 0,0 102.59118505115491,315.63828689975094 L 109.43206654603941,301.17445820977582 A 144,144 0 0,1 96.96920483617609,294.51291984003922 L 105.19484874326764,280.78926208003486 A 128,128 0 0,0 110.6612176862723,283.88592183658943 L 133.2882610539202,241.55370114786842 A 80,80 0 0,1 91.385221866224242,163.1586287736352 L 107.3081774929794,164.72690301890816 A 64,64 0 0,0 108.22974205419325,183.48578060903225 L 139.61487102709663,177.24289030451612 A 32,32 0 0,0 158.75413016431713,200.56414504036118 L 161.81559762323786,193.17310878027089" />
  <type>Circular</type>
</svg>