<?xml version="1.0" encoding="utf-8" standalone="no"?>
<!DOCTYPE svg PUBLIC "-//W3C//DTD SVG 1.1//EN" "http://www.w3.org/Graphics/SVG/1.1/DTD/svg11.dtd"[]>
<svg width="340" height="340" version="1.1" xmlns="http://www.w3.org/2000/svg">
  <title>21 cells diameter theta maze</title>
  <g fill="none" stroke="#000000" stroke-width="2" stroke-linecap="square">
    <path d="M 154.02943725152286,187.97056274847714 A 24,24 0 1,1 171,195" />
    <path d="M 155.69266270539637,134.04481869954856 A 40,40 0 0,1 171,131" />
    <path d="M 186.3073372946036,134.04481869954853 A 40,40 0 0,1 199.2842712474619,199.2842712474619" />
    <path d="M 186.3073372946036,207.95518130045147 A 40,40 0 0,1 171,211" />
    <path d="M 155.6926627053964,207.95518130045147 A 40,40 0 0,1 134.04481869954853,186.3073372946036" />
    <path d="M 131,171 A 40,40 0 0,1 142.7157287525381,142.7157287525381" />
    <path d="M 149.56972778755494,119.26274617936795 A 56,56 0 0,1 171,115" />
    <path d="M 192.43027221244503,119.26274617936795 A 56,56 0 0,1 210.59797974644667,131.40202025355333" />
    <path d="M 227,171 A 56,56 0 0,1 192.43027221244503,222.73725382063205" />
    <path d="M 171,227 A 56,56 0 0,1 131.40202025355336,210.59797974644667" />
    <path d="M 115,171 A 56,56 0 0,1 119.26274617936795,149.56972778755497" />
    <path d="M 171,99 A 72,72 0 0,1 198.55320713028647,104.48067365918736" />
    <path d="M 211.00105677741135,111.13418791421674 A 72,72 0 0,1 230.86581208578326,130.99894322258865" />
    <path d="M 237.51932634081265,143.44679286971353 A 72,72 0 0,1 241.61654018903261,156.95349681483876" />
    <path d="M 243,171 A 72,72 0 0,1 241.61654018903261,185.04650318516124" />
    <path d="M 237.51932634081265,198.55320713028647 A 72,72 0 0,1 230.86581208578326,211.00105677741135" />
    <path d="M 221.91168824543144,221.91168824543141 A 72,72 0 0,1 211.00105677741135,230.86581208578326" />
    <path d="M 198.55320713028647,237.51932634081265 A 72,72 0 0,1 156.95349681483876,241.61654018903261" />
    <path d="M 111.13418791421674,211.00105677741135 A 72,72 0 0,1 104.48067365918737,198.5532071302865" />
    <path d="M 100.38345981096741,185.04650318516127 A 72,72 0 0,1 111.13418791421672,130.99894322258865" />
    <path d="M 120.08831175456857,120.08831175456859 A 72,72 0 0,1 156.95349681483873,100.38345981096741" />
    <path d="M 153.83205166258068,84.690895324515722 A 88,88 0 0,1 188.16794833741929,84.690895324515722" />
    <path d="M 204.6761420481279,89.698601139006769 A 88,88 0 0,1 233.22539674441617,108.77460325558381" />
    <path d="M 252.30139886099323,137.3238579518721 A 88,88 0 0,1 257.30910467548426,188.16794833741929" />
    <path d="M 252.30139886099323,204.6761420481279 A 88,88 0 0,1 244.16932588262398,219.89018050572497" />
    <path d="M 204.6761420481279,252.30139886099323 A 88,88 0 0,1 171,259" />
    <path d="M 137.32385795187213,252.30139886099323 A 88,88 0 0,1 122.10981949427503,244.16932588262398" />
    <path d="M 97.83067411737602,219.890180505725 A 88,88 0 0,1 84.690895324515722,188.16794833741932" />
    <path d="M 83,171.00000000000003 A 88,88 0 0,1 84.690895324515722,153.83205166258071" />
    <path d="M 89.698601139006769,137.32385795187207 A 88,88 0 0,1 137.32385795187204,89.698601139006783" />
    <path d="M 131.20092303403061,74.9165286188262 A 104,104 0 0,1 171,67" />
    <path d="M 191.28939348967734,68.998330838064035 A 104,104 0 0,1 210.79907696596933,74.916528618826177" />
    <path d="M 228.77930423403862,84.527160320535288 A 104,104 0 0,1 257.4728396794647,113.22069576596137" />
    <path d="M 273.001669161936,150.71060651032266 A 104,104 0 0,1 275,171" />
    <path d="M 273.001669161936,191.28939348967734 A 104,104 0 0,1 267.08347138117381,210.79907696596933" />
    <path d="M 257.47283967946476,228.77930423403859 A 104,104 0 0,1 244.53910524340097,244.53910524340094" />
    <path d="M 191.28939348967737,273.001669161936 A 104,104 0 0,1 131.20092303403067,267.08347138117381" />
    <path d="M 84.527160320535288,228.77930423403862 A 104,104 0 0,1 68.998330838064035,150.71060651032266" />
    <path d="M 97.460894756599046,97.460894756599075 A 104,104 0 0,1 113.22069576596137,84.5271603205353" />
    <path d="M 104.33157203764773,71.223646523694569 A 120,120 0 0,1 171,51" />
    <path d="M 194.41083864193539,53.305766351612348 A 120,120 0 0,1 255.85281374238571,86.1471862576143" />
    <path d="M 288.69423364838764,147.58916135806459 A 120,120 0 0,1 288.69423364838764,194.41083864193539" />
    <path d="M 255.85281374238571,255.85281374238571 A 120,120 0 0,1 237.66842796235227,270.77635347630542" />
    <path d="M 194.41083864193544,288.69423364838764 A 120,120 0 0,1 171.00000000000003,291" />
    <path d="M 104.33157203764777,270.77635347630547 A 120,120 0 0,1 60.134456098645614,216.92201188381085" />
    <path d="M 53.305766351612348,194.41083864193544 A 120,120 0 0,1 86.14718625761428,86.147186257614322" />
    <path d="M 74.833477758629513,74.833477758629556 A 136,136 0 0,1 171,35" />
    <path d="M 184.33033108482024,35.654877172581223 A 136,136 0 0,1 210.4787161066069,40.856114340419595" />
    <path d="M 223.0449468016522,45.352383578464995 A 136,136 0 0,1 235.10995620833569,51.058708048623714" />
    <path d="M 246.55755169066589,57.920132726853851 A 136,136 0 0,1 267.16652224137044,74.833477758629527" />
    <path d="M 276.12942165733222,84.7225133537442 A 136,136 0 0,1 284.07986727314614,95.4424483093341" />
    <path d="M 290.94129195137629,106.8900437916643 A 136,136 0 0,1 301.14388565958041,131.52128389339313" />
    <path d="M 306.34512282741878,157.66966891517973 A 136,136 0 0,1 307,171" />
    <path d="M 306.34512282741878,184.33033108482024 A 136,136 0 0,1 301.14388565958041,210.47871610660687" />
    <path d="M 296.647616421535,223.0449468016522 A 136,136 0 0,1 284.07986727314619,246.55755169066589" />
    <path d="M 276.12942165733227,257.27748664625574 A 136,136 0 0,1 267.16652224137044,267.16652224137044" />
    <path d="M 246.55755169066589,284.07986727314619 A 136,136 0 0,1 235.10995620833569,290.94129195137629" />
    <path d="M 223.04494680165223,296.64761642153496 A 136,136 0 0,1 157.66966891517976,306.34512282741878" />
    <path d="M 144.46771620580654,304.38679813483935 A 136,136 0 0,1 131.52128389339316,301.14388565958041" />
    <path d="M 118.9550531983478,296.647616421535 A 136,136 0 0,1 95.442448309334139,284.07986727314619" />
    <path d="M 84.722513353744233,276.12942165733227 A 136,136 0 0,1 65.870578342667812,257.27748664625585" />
    <path d="M 57.920132726853836,246.55755169066589 A 136,136 0 0,1 51.058708048623728,235.10995620833572" />
    <path d="M 45.352383578465037,223.04494680165229 A 136,136 0 0,1 35,171.00000000000003" />
    <path d="M 35.654877172581223,157.66966891517984 A 136,136 0 0,1 51.058708048623714,106.89004379166433" />
    <path d="M 57.920132726853822,95.442448309334139 A 136,136 0 0,1 65.870578342667784,84.7225133537442" />
    <path d="M 171,19 A 152,152 0 0,1 185.8986053300932,19.731921545826083" />
    <path d="M 242.65230399755166,36.947967819050035 A 152,152 0 0,1 255.44667541897954,44.616618930013118" />
    <path d="M 267.42777919287414,53.50241108886398 A 152,152 0 0,1 297.38338106998685,86.553324581020462" />
    <path d="M 311.4296889417156,112.83211828050635 A 152,152 0 0,1 320.079362621291,141.34627105354849" />
    <path d="M 322.26807845417392,156.10139466990677 A 152,152 0 0,1 322.26807845417392,185.89860533009323" />
    <path d="M 311.4296889417156,229.16788171949364 A 152,152 0 0,1 305.05203218094994,242.65230399755166" />
    <path d="M 288.49758891113606,267.42777919287408 A 152,152 0 0,1 278.48023074035524,278.48023074035518" />
    <path d="M 242.65230399755166,305.05203218094994 A 152,152 0 0,1 229.16788171949366,311.42968894171554" />
    <path d="M 200.65372894645154,320.079362621291 A 152,152 0 0,1 171.00000000000003,323" />
    <path d="M 156.1013946699068,322.26807845417392 A 152,152 0 0,1 126.87672905732175,316.45493103129576" />
    <path d="M 112.83211828050636,311.4296889417156 A 152,152 0 0,1 74.572220807125916,288.49758891113606" />
    <path d="M 63.519769259644789,278.48023074035524 A 152,152 0 0,1 30.57031105828446,229.16788171949372" />
    <path d="M 19.731921545826083,185.89860533009318 A 152,152 0 0,1 19.731921545826054,156.10139466990688" />
    <path d="M 36.947967819050035,99.347696002448373 A 152,152 0 0,1 44.61661893001309,86.553324581020519" />
    <path d="M 74.572220807125817,53.502411088864037 A 152,152 0 0,1 112.83211828050625,30.57031105828446" />
    <path d="M 141.34627105354844,21.920637378708989 A 152,152 0 0,1 156.1013946699068,19.731921545826083" />
    <path d="M 187.46687957536619,3.8089659190709142 A 168,168 0 1,1 171,3" />
  </g>
  <g fill="none" stroke="#000000" stroke-width="2" stroke-linecap="butt">
    <line x1="171" y1="51" x2="171" y2="67" />
    <line x1="171" y1="99" x2="171" y2="147" />
    <line x1="185.8986053300932" y1="19.731921545826054" x2="184.33033108482024" y2="35.654877172581223" />
    <line x1="200.65372894645151" y1="21.920637378708989" x2="188.16794833741929" y2="84.690895324515722" />
    <line x1="219.76782577874968" y1="10.234023596988919" x2="215.12327094267829" y2="25.545068968704271" />
    <line x1="235.29081663733507" y1="15.788238538103826" x2="223.0449468016522" y2="45.352383578465009" />
    <line x1="204.6761420481279" y1="89.698601139006769" x2="198.55320713028647" y2="104.48067365918736" />
    <line x1="264.33579914729319" y1="31.3131051331724" x2="237.66842796235227" y2="71.223646523694569" />
    <line x1="228.77930423403862" y1="84.5271603205353" x2="219.890180505725" y2="97.83067411737602" />
    <line x1="277.57807173949243" y1="41.134243835060175" x2="267.42777919287414" y2="53.50241108886398" />
    <line x1="233.22539674441617" y1="108.77460325558381" x2="210.59797974644664" y2="131.40202025355333" />
    <line x1="288.497588911136" y1="74.572220807125888" x2="276.12942165733222" y2="84.722513353744219" />
    <line x1="284.07986727314614" y1="95.442448309334083" x2="244.16932588262398" y2="122.109819494275" />
    <line x1="319.16277241052364" y1="91.805348213232364" x2="290.94129195137629" y2="106.8900437916643" />
    <line x1="296.64761642153496" y1="118.95505319834778" x2="222.73725382063205" y2="149.56972778755497" />
    <line x1="335.77192710774273" y1="138.22482590129044" x2="304.38679813483935" y2="144.46771620580654" />
    <line x1="288.69423364838764" y1="147.58916135806459" x2="273.001669161936" y2="150.71060651032266" />
    <line x1="339" y1="171" x2="323" y2="171" />
    <line x1="307" y1="171" x2="291" y2="171" />
    <line x1="227" y1="171" x2="211" y2="171" />
    <line x1="335.77192710774273" y1="203.77517409870953" x2="288.69423364838764" y2="194.41083864193539" />
    <line x1="257.30910467548426" y1="188.16794833741929" x2="241.61654018903261" y2="185.04650318516124" />
    <line x1="316.45493103129576" y1="215.12327094267823" x2="301.14388565958041" y2="210.47871610660684" />
    <line x1="296.64761642153496" y1="223.0449468016522" x2="267.08347138117381" y2="210.79907696596933" />
    <line x1="237.51932634081265" y1="198.55320713028647" x2="222.73725382063205" y2="192.43027221244503" />
    <line x1="305.05203218094994" y1="242.65230399755166" x2="290.94129195137629" y2="235.10995620833569" />
    <line x1="310.68689486682763" y1="264.33579914729313" x2="257.47283967946476" y2="228.77930423403859" />
    <line x1="244.16932588262398" y1="219.89018050572497" x2="230.86581208578326" y2="211.00105677741135" />
    <line x1="278.48023074035524" y1="278.48023074035518" x2="255.85281374238571" y2="255.85281374238571" />
    <line x1="244.53910524340097" y1="244.53910524340094" x2="233.22539674441617" y2="233.22539674441617" />
    <line x1="277.57807173949243" y1="300.86575616493985" x2="257.2774866462558" y2="276.12942165733222" />
    <line x1="264.33579914729319" y1="310.68689486682763" x2="211.00105677741135" y2="230.86581208578326" />
    <line x1="235.2908166373351" y1="326.21176146189617" x2="204.6761420481279" y2="252.30139886099323" />
    <line x1="198.55320713028647" y1="237.51932634081265" x2="192.43027221244503" y2="222.73725382063205" />
    <line x1="215.12327094267829" y1="316.4549310312957" x2="210.4787161066069" y2="301.14388565958041" />
    <line x1="171.00000000000003" y1="339" x2="171.00000000000003" y2="323" />
    <line x1="171.00000000000003" y1="307" x2="171.00000000000003" y2="291" />
    <line x1="171" y1="243" x2="171" y2="195" />
    <line x1="156.1013946699068" y1="322.268078454174" x2="157.66966891517976" y2="306.34512282741878" />
    <line x1="144.46771620580654" y1="304.38679813483935" x2="156.95349681483876" y2="241.61654018903261" />
    <line x1="106.70918336266493" y1="326.21176146189623" x2="112.83211828050636" y2="311.4296889417156" />
    <line x1="118.9550531983478" y1="296.647616421535" x2="125.07798811618923" y2="281.86554390135444" />
    <line x1="137.3238579518721" y1="252.30139886099323" x2="143.44679286971353" y2="237.51932634081265" />
    <line x1="95.442448309334139" y1="284.07986727314619" x2="130.99894322258865" y2="230.86581208578326" />
    <line x1="74.572220807125916" y1="288.49758891113606" x2="84.722513353744247" y2="276.12942165733227" />
    <line x1="97.46089475659906" y1="244.53910524340097" x2="131.40202025355336" y2="210.59797974644667" />
    <line x1="142.7157287525381" y1="199.2842712474619" x2="154.02943725152286" y2="187.97056274847714" />
    <line x1="53.502411088864022" y1="267.4277791928742" x2="65.870578342667812" y2="257.27748664625585" />
    <line x1="57.920132726853851" y1="246.55755169066589" x2="84.5271603205353" y2="228.77930423403862" />
    <line x1="97.83067411737602" y1="219.890180505725" x2="111.13418791421674" y2="211.00105677741135" />
    <line x1="30.57031105828446" y1="229.16788171949372" x2="45.352383578465037" y2="223.04494680165229" />
    <line x1="104.48067365918737" y1="198.5532071302865" x2="134.04481869954856" y2="186.3073372946036" />
    <line x1="10.234023596988919" y1="219.76782577874968" x2="25.545068968704271" y2="215.12327094267829" />
    <line x1="6.2280728922573019" y1="203.77517409870961" x2="21.920637378708989" y2="200.65372894645157" />
    <line x1="84.690895324515736" y1="188.16794833741932" x2="100.38345981096742" y2="185.04650318516127" />
    <line x1="67" y1="171.00000000000003" x2="83" y2="171.00000000000003" />
    <line x1="99" y1="171" x2="131" y2="171" />
    <line x1="3.8089659190709142" y1="154.53312042463389" x2="19.731921545826054" y2="156.10139466990688" />
    <line x1="6.2280728922572735" y1="138.22482590129044" x2="37.613201865160647" y2="144.46771620580654" />
    <line x1="84.690895324515722" y1="153.83205166258071" x2="100.38345981096741" y2="156.95349681483876" />
    <line x1="10.234023596988891" y1="122.23217422125038" x2="25.545068968704243" y2="126.87672905732177" />
    <line x1="15.788238538103855" y1="106.70918336266487" x2="30.570311058284432" y2="112.83211828050632" />
    <line x1="60.1344560986456" y1="125.0779881161892" x2="74.916528618826192" y2="131.20092303403064" />
    <line x1="44.61661893001309" y1="86.553324581020519" x2="57.920132726853822" y2="95.442448309334154" />
    <line x1="84.527160320535273" y1="113.22069576596141" x2="97.830674117376" y2="122.10981949427503" />
    <line x1="41.134243835060204" y1="64.421928260507542" x2="65.870578342667784" y2="84.7225133537442" />
    <line x1="52.206060760659994" y1="52.206060760660051" x2="86.14718625761428" y2="86.147186257614322" />
    <line x1="131.40202025355333" y1="131.40202025355336" x2="142.7157287525381" y2="142.7157287525381" />
    <line x1="104.33157203764773" y1="71.223646523694569" x2="113.22069576596138" y2="84.5271603205353" />
    <line x1="112.83211828050625" y1="30.57031105828446" x2="118.95505319834771" y2="45.352383578465037" />
    <line x1="131.20092303403061" y1="74.9165286188262" x2="143.44679286971348" y2="104.48067365918737" />
    <line x1="122.2321742212503" y1="10.234023596988919" x2="126.8767290573217" y2="25.545068968704271" />
    <line x1="153.83205166258068" y1="84.690895324515736" x2="156.95349681483873" y2="100.38345981096742" />
    <line x1="156.1013946699068" y1="19.731921545826054" x2="157.66966891517978" y2="35.654877172581223" />
  </g>
  <path fill="none" stroke="#ff0000" stroke-width="2" stroke-linecap="square" stroke-linejoin="round" d="M 179.24336928700623,3.2023633575310271 L 178.85082789238689,11.192727007172408 A 160,160 0 0,0 163.14917210761311,11.192727007172408 L 163.9342548968518,27.17345430645517 A 144,144 0 0,1 178.0657451031482,27.17345430645517 L 177.28066231390952,43.154181605737932 A 128,128 0 0,0 89.797659627053321,72.054661969569707 L 99.947952173671652,84.4228292233735 A 112,112 0 0,0 72.224818392984233,118.20356547548828 L 86.335558622557912,125.74591326470423 A 96,96 0 0,0 79.133727769707946,143.13267098357164 L 63.822682397992594,138.48811614750025 A 112,112 0 0,0 63.822682397992608,203.51188385249981 L 48.51163702627727,208.1564386885712 A 128,128 0 0,0 55.289370480199281,225.72705195907616 L 40.825541790224179,232.56793345396068 A 144,144 0 0,0 55.338115466787116,256.78069984691035 L 68.189435970477433,247.24951097503146 A 128,128 0 0,0 94.750489024968545,273.81056402952254 L 85.2193001530896,286.66188453321286 A 144,144 0 0,0 122.48786111152032,306.582345386355 L 127.87809876579583,291.51764034342665 A 128,128 0 0,0 133.84356131142886,293.48836297372276 L 138.48811614750025,278.17731760200741 A 112,112 0 0,1 118.20356547548826,269.77518160701578 L 125.74591326470423,255.66444137744207 A 96,96 0 0,0 143.13267098357164,262.86627223029205 L 152.42178065571443,232.24418148686138 A 64,64 0 0,1 130.3988298135267,220.47266901521516 L 99.947952173671723,257.57717077662653 A 112,112 0 0,1 84.4228292233735,242.05204782632833 L 121.52733098478485,211.60117018647333 A 64,64 0 0,1 117.7859448126371,206.55649491325454 L 131.08945860947785,197.66737118494092 A 48,48 0 0,0 161.63566454322583,218.07769345935506 L 164.75710969548391,202.38512897290337 A 32,32 0 0,1 158.75413016431713,200.56414504036118 L 161.81559762323786,193.17310878027089" />
  <type>Circular</type>
</svg>