<?xml version="1.0" encoding="utf-8" standalone="no"?>
<!DOCTYPE svg PUBLIC "-//W3C//DTD SVG 1.1//EN" "http://www.w3.org/Graphics/SVG/1.1/DTD/svg11.dtd"[]>
<svg width="340" height="340" version="1.1" xmlns="http://www.w3.org/2000/svg">
  <title>21 cells diameter theta maze</title>
  <g fill="none" stroke="#000000" stroke-width="2" stroke-linecap="square">
    <path d="M 154.02943725152286,187.97056274847714 A 24,24 0 1,1 171,195" />
    <path d="M 186.3073372946036,134.04481869954853 A 40,40 0 0,1 199.2842712474619,142.7157287525381" />
    <path d="M 207.95518130045147,186.3073372946036 A 40,40 0 0,1 199.2842712474619,199.2842712474619" />
    <path d="M 186.3073372946036,207.95518130045147 A 40,40 0 0,1 134.04481869954853,186.3073372946036" />
    <path d="M 131,171 A 40,40 0 0,1 134.04481869954853,155.6926627053964" />
    <path d="M 142.7157287525381,142.7157287525381 A 40,40 0 0,1 155.69266270539637,134.04481869954856" />
    <path d="M 149.56972778755494,119.26274617936795 A 56,56 0 0,1 192.43027221244503,119.26274617936795" />
    <path d="M 210.59797974644667,131.40202025355333 A 56,56 0 0,1 222.73725382063205,149.56972778755497" />
    <path d="M 227,171 A 56,56 0 0,1 192.43027221244503,222.73725382063205" />
    <path d="M 131.40202025355336,210.59797974644667 A 56,56 0 0,1 131.40202025355333,131.40202025355336" />
    <path d="M 185.04650318516124,100.38345981096741 A 72,72 0 0,1 221.91168824543144,120.08831175456858" />
    <path d="M 230.86581208578326,130.99894322258865 A 72,72 0 0,1 237.51932634081265,143.44679286971353" />
    <path d="M 243,171 A 72,72 0 0,1 241.61654018903261,185.04650318516124" />
    <path d="M 237.51932634081265,198.55320713028647 A 72,72 0 0,1 211.00105677741135,230.86581208578326" />
    <path d="M 185.04650318516127,241.61654018903261 A 72,72 0 0,1 171,243" />
    <path d="M 156.95349681483876,241.61654018903261 A 72,72 0 0,1 143.44679286971353,237.51932634081265" />
    <path d="M 120.08831175456859,221.91168824543144 A 72,72 0 0,1 100.38345981096741,185.04650318516127" />
    <path d="M 99,171 A 72,72 0 0,1 100.38345981096741,156.95349681483876" />
    <path d="M 111.13418791421672,130.99894322258865 A 72,72 0 0,1 120.08831175456857,120.08831175456859" />
    <path d="M 130.99894322258865,111.13418791421674 A 72,72 0 0,1 156.95349681483873,100.38345981096741" />
    <path d="M 188.16794833741929,84.690895324515722 A 88,88 0 0,1 219.890180505725,97.83067411737602" />
    <path d="M 244.16932588262398,122.109819494275 A 88,88 0 0,1 252.30139886099323,137.3238579518721" />
    <path d="M 257.30910467548426,153.83205166258071 A 88,88 0 0,1 259,171" />
    <path d="M 257.30910467548426,188.16794833741929 A 88,88 0 0,1 188.16794833741932,257.30910467548426" />
    <path d="M 171,259 A 88,88 0 0,1 153.83205166258071,257.30910467548426" />
    <path d="M 122.10981949427503,244.16932588262398 A 88,88 0 0,1 97.83067411737602,219.890180505725" />
    <path d="M 84.690895324515722,188.16794833741932 A 88,88 0 0,1 84.690895324515722,153.83205166258071" />
    <path d="M 97.830674117375992,122.10981949427503 A 88,88 0 0,1 153.83205166258068,84.690895324515722" />
    <path d="M 150.71060651032261,68.998330838064049 A 104,104 0 0,1 171,67" />
    <path d="M 191.28939348967734,68.998330838064035 A 104,104 0 0,1 228.77930423403862,84.527160320535288" />
    <path d="M 244.53910524340094,97.46089475659906 A 104,104 0 0,1 273.001669161936,191.28939348967734" />
    <path d="M 257.47283967946476,228.77930423403859 A 104,104 0 0,1 228.77930423403862,257.4728396794647" />
    <path d="M 171,275 A 104,104 0 0,1 131.20092303403067,267.08347138117381" />
    <path d="M 113.22069576596141,257.47283967946476 A 104,104 0 0,1 68.998330838064035,150.71060651032266" />
    <path d="M 84.527160320535273,113.22069576596141 A 104,104 0 0,1 97.460894756599046,97.460894756599075" />
    <path d="M 113.22069576596137,84.5271603205353 A 104,104 0 0,1 131.20092303403061,74.9165286188262" />
    <path d="M 125.07798811618915,60.134456098645614 A 120,120 0 0,1 194.41083864193539,53.305766351612348" />
    <path d="M 291,171 A 120,120 0 0,1 281.86554390135439,216.92201188381077" />
    <path d="M 125.07798811618925,281.86554390135439 A 120,120 0 0,1 71.223646523694569,237.66842796235227" />
    <path d="M 60.134456098645614,216.92201188381085 A 120,120 0 0,1 53.305766351612348,194.41083864193544" />
    <path d="M 53.305766351612348,147.58916135806462 A 120,120 0 0,1 71.223646523694541,104.33157203764777" />
    <path d="M 86.14718625761428,86.147186257614322 A 120,120 0 0,1 104.33157203764773,71.223646523694569" />
    <path d="M 144.46771620580648,37.613201865160676 A 136,136 0 0,1 246.55755169066589,57.920132726853851" />
    <path d="M 257.2774866462558,65.87057834266777 A 136,136 0 0,1 267.16652224137044,74.833477758629527" />
    <path d="M 276.12942165733222,84.7225133537442 A 136,136 0 0,1 304.38679813483935,197.53228379419343" />
    <path d="M 296.647616421535,223.0449468016522 A 136,136 0 0,1 197.53228379419349,304.3867981348393" />
    <path d="M 171.00000000000003,307 A 136,136 0 0,1 157.66966891517976,306.34512282741878" />
    <path d="M 131.52128389339316,301.14388565958041 A 136,136 0 0,1 95.442448309334139,284.07986727314619" />
    <path d="M 84.722513353744233,276.12942165733227 A 136,136 0 0,1 51.058708048623728,235.10995620833572" />
    <path d="M 40.856114340419595,210.4787161066069 A 136,136 0 0,1 37.613201865160676,197.53228379419349" />
    <path d="M 35.654877172581223,184.33033108482022 A 136,136 0 0,1 35.654877172581223,157.66966891517984" />
    <path d="M 37.613201865160647,144.46771620580654 A 136,136 0 0,1 45.352383578465009,118.95505319834777" />
    <path d="M 51.058708048623714,106.89004379166433 A 136,136 0 0,1 74.833477758629513,74.833477758629556" />
    <path d="M 84.722513353744148,65.870578342667827 A 136,136 0 0,1 131.5212838933931,40.856114340419595" />
    <path d="M 141.34627105354844,21.920637378708989 A 152,152 0 0,1 171,19" />
    <path d="M 215.12327094267829,25.545068968704243 A 152,152 0 0,1 242.65230399755166,36.947967819050035" />
    <path d="M 255.44667541897954,44.616618930013118 A 152,152 0 0,1 297.38338106998685,86.553324581020462" />
    <path d="M 305.05203218094994,99.34769600244833 A 152,152 0 0,1 311.4296889417156,112.83211828050635" />
    <path d="M 316.45493103129576,126.87672905732174 A 152,152 0 0,1 322.26807845417392,156.10139466990677" />
    <path d="M 322.26807845417392,185.89860533009323 A 152,152 0 0,1 320.079362621291,200.65372894645148" />
    <path d="M 311.4296889417156,229.16788171949364 A 152,152 0 0,1 305.05203218094994,242.65230399755166" />
    <path d="M 288.49758891113606,267.42777919287408 A 152,152 0 0,1 278.48023074035524,278.48023074035518" />
    <path d="M 255.44667541897951,297.38338106998685 A 152,152 0 0,1 242.65230399755166,305.05203218094994" />
    <path d="M 229.16788171949366,311.42968894171554 A 152,152 0 0,1 215.12327094267829,316.45493103129576" />
    <path d="M 156.1013946699068,322.26807845417392 A 152,152 0 0,1 112.83211828050636,311.4296889417156" />
    <path d="M 86.5533245810205,297.38338106998691 A 152,152 0 0,1 74.572220807125916,288.49758891113606" />
    <path d="M 53.502411088864022,267.42777919287414 A 152,152 0 0,1 21.920637378708989,200.65372894645157" />
    <path d="M 19,171.00000000000003 A 152,152 0 0,1 36.947967819050035,99.347696002448373" />
    <path d="M 44.61661893001309,86.553324581020519 A 152,152 0 0,1 74.572220807125817,53.502411088864037" />
    <path d="M 99.347696002448316,36.947967819050064 A 152,152 0 0,1 112.83211828050625,30.57031105828446" />
    <path d="M 187.46687957536619,3.8089659190709142 A 168,168 0 1,1 171,3" />
  </g>
  <g fill="none" stroke="#000000" stroke-width="2" stroke-linecap="butt">
    <line x1="171" y1="35" x2="171" y2="51" />
    <line x1="171" y1="67" x2="171" y2="147" />
    <line x1="187.46687957536619" y1="3.8089659190709142" x2="185.8986053300932" y2="19.731921545826054" />
    <line x1="203.77517409870956" y1="6.2280728922572735" x2="200.65372894645151" y2="21.920637378708989" />
    <line x1="188.16794833741929" y1="84.690895324515722" x2="185.04650318516124" y2="100.38345981096741" />
    <line x1="235.29081663733507" y1="15.788238538103826" x2="210.79907696596933" y2="74.916528618826177" />
    <line x1="255.44667541897954" y1="44.616618930013118" x2="237.66842796235227" y2="71.223646523694569" />
    <line x1="267.42777919287414" y1="53.50241108886398" x2="257.2774866462558" y2="65.87057834266777" />
    <line x1="255.85281374238571" y1="86.1471862576143" x2="199.2842712474619" y2="142.7157287525381" />
    <line x1="288.497588911136" y1="74.572220807125888" x2="276.12942165733222" y2="84.722513353744219" />
    <line x1="284.07986727314614" y1="95.442448309334083" x2="270.77635347630542" y2="104.33157203764773" />
    <line x1="319.16277241052364" y1="91.805348213232364" x2="305.05203218094994" y2="99.34769600244833" />
    <line x1="281.86554390135439" y1="125.07798811618922" x2="252.30139886099323" y2="137.3238579518721" />
    <line x1="237.51932634081265" y1="143.44679286971353" x2="207.95518130045147" y2="155.6926627053964" />
    <line x1="320.079362621291" y1="141.34627105354849" x2="288.69423364838764" y2="147.58916135806459" />
    <line x1="273.001669161936" y1="150.71060651032266" x2="241.61654018903261" y2="156.95349681483876" />
    <line x1="339" y1="171" x2="323" y2="171" />
    <line x1="259" y1="171" x2="211" y2="171" />
    <line x1="320.079362621291" y1="200.65372894645148" x2="304.38679813483935" y2="197.53228379419343" />
    <line x1="331.76597640301111" y1="219.76782577874965" x2="301.14388565958041" y2="210.47871610660684" />
    <line x1="311.4296889417156" y1="229.16788171949364" x2="296.64761642153496" y2="223.0449468016522" />
    <line x1="281.86554390135439" y1="216.92201188381077" x2="252.30139886099323" y2="204.6761420481279" />
    <line x1="297.38338106998691" y1="255.44667541897951" x2="284.07986727314619" y2="246.55755169066586" />
    <line x1="270.77635347630547" y1="237.66842796235224" x2="257.47283967946476" y2="228.77930423403859" />
    <line x1="300.86575616493985" y1="277.57807173949243" x2="288.49758891113606" y2="267.42777919287408" />
    <line x1="255.85281374238571" y1="255.85281374238571" x2="244.53910524340097" y2="244.53910524340094" />
    <line x1="199.2842712474619" y1="199.2842712474619" x2="187.97056274847714" y2="187.97056274847714" />
    <line x1="277.57807173949243" y1="300.86575616493985" x2="257.2774866462558" y2="276.12942165733222" />
    <line x1="246.55755169066589" y1="284.07986727314619" x2="228.77930423403862" y2="257.4728396794647" />
    <line x1="219.890180505725" y1="244.16932588262398" x2="211.00105677741135" y2="230.86581208578326" />
    <line x1="250.19465178676762" y1="319.16277241052364" x2="242.65230399755166" y2="305.05203218094994" />
    <line x1="229.16788171949366" y1="311.4296889417156" x2="223.04494680165223" y2="296.64761642153496" />
    <line x1="216.9220118838108" y1="281.86554390135439" x2="204.6761420481279" y2="252.30139886099323" />
    <line x1="198.55320713028647" y1="237.51932634081265" x2="186.3073372946036" y2="207.95518130045147" />
    <line x1="203.77517409870961" y1="335.77192710774273" x2="200.65372894645154" y2="320.079362621291" />
    <line x1="197.53228379419349" y1="304.38679813483935" x2="188.16794833741932" y2="257.30910467548426" />
    <line x1="187.46687957536622" y1="338.19103408092906" x2="184.33033108482027" y2="306.34512282741878" />
    <line x1="171.00000000000003" y1="323" x2="171.00000000000003" y2="291" />
    <line x1="171" y1="275" x2="171" y2="227" />
    <line x1="156.1013946699068" y1="322.268078454174" x2="157.66966891517976" y2="306.34512282741878" />
    <line x1="144.46771620580654" y1="304.38679813483935" x2="150.71060651032266" y2="273.001669161936" />
    <line x1="153.83205166258071" y1="257.30910467548426" x2="156.95349681483876" y2="241.61654018903261" />
    <line x1="122.23217422125038" y1="331.76597640301111" x2="126.87672905732177" y2="316.45493103129576" />
    <line x1="112.83211828050636" y1="311.4296889417156" x2="118.9550531983478" y2="296.647616421535" />
    <line x1="125.07798811618923" y1="281.86554390135444" x2="137.3238579518721" y2="252.30139886099323" />
    <line x1="143.44679286971353" y1="237.51932634081265" x2="149.56972778755497" y2="222.73725382063208" />
    <line x1="99.347696002448359" y1="305.05203218094994" x2="106.89004379166433" y2="290.94129195137629" />
    <line x1="122.10981949427503" y1="244.16932588262398" x2="130.99894322258865" y2="230.86581208578326" />
    <line x1="74.572220807125916" y1="288.49758891113606" x2="84.722513353744247" y2="276.12942165733227" />
    <line x1="52.206060760660023" y1="289.79393923934003" x2="63.519769259644789" y2="278.48023074035524" />
    <line x1="142.7157287525381" y1="199.2842712474619" x2="154.02943725152286" y2="187.97056274847714" />
    <line x1="41.134243835060232" y1="277.57807173949254" x2="53.502411088864022" y2="267.4277791928742" />
    <line x1="44.616618930013118" y1="255.44667541897954" x2="97.83067411737602" y2="219.890180505725" />
    <line x1="30.57031105828446" y1="229.16788171949372" x2="60.134456098645614" y2="216.92201188381085" />
    <line x1="89.698601139006783" y1="204.67614204812796" x2="104.48067365918737" y2="198.5532071302865" />
    <line x1="21.920637378708989" y1="200.65372894645157" x2="37.613201865160676" y2="197.53228379419349" />
    <line x1="68.998330838064049" y1="191.28939348967737" x2="100.38345981096742" y2="185.04650318516127" />
    <line x1="3.8089659190709142" y1="187.46687957536616" x2="19.731921545826054" y2="185.89860533009318" />
    <line x1="3" y1="171.00000000000003" x2="51" y2="171.00000000000003" />
    <line x1="99" y1="171" x2="115" y2="171" />
    <line x1="131" y1="171" x2="147" y2="171" />
    <line x1="21.920637378708989" y1="141.34627105354849" x2="37.613201865160647" y2="144.46771620580654" />
    <line x1="84.690895324515722" y1="153.83205166258071" x2="100.38345981096741" y2="156.95349681483876" />
    <line x1="45.352383578465023" y1="118.95505319834777" x2="104.48067365918736" y2="143.44679286971353" />
    <line x1="57.920132726853822" y1="95.442448309334154" x2="84.527160320535273" y2="113.22069576596141" />
    <line x1="97.830674117376" y1="122.10981949427503" x2="111.13418791421672" y2="130.99894322258865" />
    <line x1="41.134243835060204" y1="64.421928260507542" x2="53.502411088863994" y2="74.572220807125873" />
    <line x1="74.833477758629513" y1="74.833477758629556" x2="86.14718625761428" y2="86.147186257614322" />
    <line x1="77.664200852706841" y1="31.3131051331724" x2="86.553324581020462" y2="44.616618930013118" />
    <line x1="122.109819494275" y1="97.83067411737602" x2="130.99894322258865" y2="111.13418791421674" />
    <line x1="99.347696002448316" y1="36.947967819050064" x2="106.89004379166428" y2="51.058708048623743" />
    <line x1="125.07798811618915" y1="60.134456098645614" x2="137.32385795187204" y2="89.698601139006783" />
    <line x1="143.44679286971348" y1="104.48067365918737" x2="155.69266270539637" y2="134.04481869954856" />
    <line x1="122.2321742212503" y1="10.234023596988919" x2="131.5212838933931" y2="40.856114340419595" />
    <line x1="154.53312042463384" y1="3.8089659190709142" x2="156.1013946699068" y2="19.731921545826054" />
  </g>
  <path fill="none" stroke="#ff0000" stroke-width="2" stroke-linecap="square" stroke-linejoin="round" d="M 179.24336928700623,3.2023633575310271 L 178.0657451031482,27.17345430645517 A 144,144 0 0,0 136.01085409392996,31.315499539985666 L 139.89853697238218,46.835999591098371 A 128,128 0 0,0 110.66121768627227,58.114078163410582 L 118.20356547548823,72.224818392984261 A 112,112 0 0,0 99.947952173671652,84.4228292233735 L 110.09824472028998,96.790996477177288 A 96,96 0 0,0 86.335558622557912,125.74591326470423 L 114.55703908170528,140.83060884313616 A 64,64 0 0,1 135.44350508674546,117.7859448126371 L 144.33262881505908,131.08945860947785 A 48,48 0 0,0 180.36433545677417,218.07769345935506 L 183.48578060903222,233.77025794580675 A 64,64 0 0,0 189.5782193442856,232.24418148686135 L 194.222774180357,247.5552268585767 A 80,80 0 0,0 208.71173894607983,241.5537011478684 L 201.16939115686387,227.44296091829472 A 64,64 0 0,0 232.24418148686138,189.57821934428557 L 247.5552268585767,194.22277418035696 A 80,80 0 0,0 250.61477813377576,178.84137122636486 L 266.5377337605309,180.40964547163782 A 96,96 0 0,1 262.86627223029205,198.86732901642836 L 278.17731760200741,203.51188385249975 A 112,112 0 0,0 278.17731760200741,138.48811614750022 L 293.48836297372276,133.84356131142883 A 128,128 0 0,0 283.88592183658943,110.66121768627228 L 269.77518160701572,118.20356547548825 A 112,112 0 0,0 257.57717077662653,99.9479521736717 L 269.94533803043032,89.797659627053378 A 128,128 0 0,0 252.20234037294662,72.054661969569665 L 231.90175527970996,96.790996477177245 A 96,96 0 0,0 180.40964547163782,75.4622662394691 L 177.27309698109187,107.3081774929794 A 64,64 0 0,1 206.55649491325454,117.7859448126371 L 197.66737118494092,131.08945860947785 A 48,48 0 0,0 180.36433545677414,123.92230654064494 L 177.2428903045161,139.61487102709663 A 32,32 0 0,1 202.38512897290337,177.2428903045161 L 218.07769345935506,180.36433545677414 A 48,48 0 0,1 197.66737118494089,210.91054139052218 L 188.77824745662727,197.60702759368144 A 32,32 0 0,1 158.75413016431713,200.56414504036118 L 161.81559762323786,193.17310878027089" />
  <type>Circular</type>
</svg>