<?xml version="1.0" encoding="utf-8" standalone="no"?>
<!DOCTYPE svg PUBLIC "-//W3C//DTD SVG 1.1//EN" "http://www.w3.org/Graphics/SVG/1.1/DTD/svg11.dtd"[]>
<svg width="340" height="340" version="1.1" xmlns="http://www.w3.org/2000/svg">
  <title>21 cells diameter theta maze</title>
  <g fill="none" stroke="#000000" stroke-width="2" stroke-linecap="square">
    <path d="M 154.02943725152286,187.97056274847714 A 24,24 0 1,1 171,195" />
    <path d="M 171,131 A 40,40 0 0,1 199.2842712474619,142.7157287525381" />
    <path d="M 211,171 A 40,40 0 0,1 199.2842712474619,199.2842712474619" />
    <path d="M 186.3073372946036,207.95518130045147 A 40,40 0 0,1 171,211" />
    <path d="M 155.6926627053964,207.95518130045147 A 40,40 0 0,1 142.7157287525381,199.2842712474619" />
    <path d="M 134.04481869954853,186.3073372946036 A 40,40 0 0,1 131,171" />
    <path d="M 134.04481869954853,155.6926627053964 A 40,40 0 0,1 155.69266270539637,134.04481869954856" />
    <path d="M 192.43027221244503,119.26274617936795 A 56,56 0 0,1 227,171" />
    <path d="M 210.59797974644667,210.59797974644664 A 56,56 0 0,1 192.43027221244503,222.73725382063205" />
    <path d="M 149.569727787555,222.73725382063208 A 56,56 0 0,1 119.26274617936795,149.56972778755497" />
    <path d="M 131.40202025355333,131.40202025355336 A 56,56 0 0,1 149.56972778755494,119.26274617936795" />
    <path d="M 130.99894322258865,111.13418791421674 A 72,72 0 0,1 211.00105677741135,111.13418791421674" />
    <path d="M 221.91168824543144,120.08831175456858 A 72,72 0 0,1 241.61654018903261,156.95349681483876" />
    <path d="M 241.61654018903261,185.04650318516124 A 72,72 0 0,1 230.86581208578326,211.00105677741135" />
    <path d="M 221.91168824543144,221.91168824543141 A 72,72 0 0,1 99,171" />
    <path d="M 100.38345981096741,156.95349681483876 A 72,72 0 0,1 111.13418791421672,130.99894322258865" />
    <path d="M 219.890180505725,97.83067411737602 A 88,88 0 0,1 252.30139886099323,137.3238579518721" />
    <path d="M 257.30910467548426,153.83205166258071 A 88,88 0 0,1 153.83205166258071,257.30910467548426" />
    <path d="M 108.77460325558383,233.2253967444162 A 88,88 0 0,1 97.83067411737602,219.890180505725" />
    <path d="M 84.690895324515722,188.16794833741932 A 88,88 0 0,1 89.698601139006769,137.32385795187207" />
    <path d="M 97.830674117375992,122.10981949427503 A 88,88 0 0,1 153.83205166258068,84.690895324515722" />
    <path d="M 191.28939348967734,68.998330838064035 A 104,104 0 0,1 228.77930423403862,84.527160320535288" />
    <path d="M 267.08347138117381,131.20092303403067 A 104,104 0 0,1 273.001669161936,150.71060651032266" />
    <path d="M 275,171 A 104,104 0 0,1 267.08347138117381,210.79907696596933" />
    <path d="M 257.47283967946476,228.77930423403859 A 104,104 0 0,1 244.53910524340097,244.53910524340094" />
    <path d="M 210.79907696596933,267.08347138117381 A 104,104 0 0,1 171,275" />
    <path d="M 150.71060651032266,273.001669161936 A 104,104 0 0,1 131.20092303403067,267.08347138117381" />
    <path d="M 84.527160320535288,228.77930423403862 A 104,104 0 0,1 68.998330838064035,191.28939348967737" />
    <path d="M 74.916528618826192,131.20092303403064 A 104,104 0 0,1 84.527160320535273,113.22069576596141" />
    <path d="M 131.20092303403061,74.9165286188262 A 104,104 0 0,1 150.71060651032261,68.998330838064049" />
    <path d="M 125.07798811618915,60.134456098645614 A 120,120 0 0,1 171,51" />
    <path d="M 194.41083864193539,53.305766351612348 A 120,120 0 0,1 216.92201188381077,60.134456098645586" />
    <path d="M 237.66842796235227,71.223646523694569 A 120,120 0 0,1 255.85281374238571,86.1471862576143" />
    <path d="M 270.77635347630542,104.33157203764773 A 120,120 0 0,1 291,171" />
    <path d="M 288.69423364838764,194.41083864193539 A 120,120 0 0,1 270.77635347630542,237.66842796235224" />
    <path d="M 237.66842796235227,270.77635347630542 A 120,120 0 0,1 216.9220118838108,281.86554390135439" />
    <path d="M 194.41083864193544,288.69423364838764 A 120,120 0 0,1 147.58916135806459,288.69423364838764" />
    <path d="M 125.07798811618925,281.86554390135439 A 120,120 0 0,1 71.223646523694569,237.66842796235227" />
    <path d="M 51,171.00000000000003 A 120,120 0 0,1 53.305766351612348,147.58916135806462" />
    <path d="M 171,35 A 136,136 0 0,1 210.4787161066069,40.856114340419595" />
    <path d="M 223.0449468016522,45.352383578464995 A 136,136 0 0,1 246.55755169066589,57.920132726853851" />
    <path d="M 257.2774866462558,65.87057834266777 A 136,136 0 0,1 290.94129195137629,106.8900437916643" />
    <path d="M 301.14388565958041,131.52128389339313 A 136,136 0 0,1 306.34512282741878,157.66966891517973" />
    <path d="M 306.34512282741878,184.33033108482024 A 136,136 0 0,1 304.38679813483935,197.53228379419343" />
    <path d="M 301.14388565958041,210.47871610660687 A 136,136 0 0,1 296.647616421535,223.0449468016522" />
    <path d="M 290.94129195137629,235.10995620833569 A 136,136 0 0,1 267.16652224137044,267.16652224137044" />
    <path d="M 257.2774866462558,276.12942165733222 A 136,136 0 0,1 235.10995620833569,290.94129195137629" />
    <path d="M 223.04494680165223,296.64761642153496 A 136,136 0 0,1 184.33033108482027,306.34512282741878" />
    <path d="M 157.66966891517976,306.34512282741878 A 136,136 0 0,1 106.89004379166433,290.94129195137629" />
    <path d="M 95.442448309334139,284.07986727314619 A 136,136 0 0,1 84.722513353744233,276.12942165733227" />
    <path d="M 65.870578342667812,257.27748664625585 A 136,136 0 0,1 40.856114340419595,210.4787161066069" />
    <path d="M 35.654877172581223,184.33033108482022 A 136,136 0 0,1 35,171.00000000000003" />
    <path d="M 35.654877172581223,157.66966891517984 A 136,136 0 0,1 51.058708048623714,106.89004379166433" />
    <path d="M 57.920132726853822,95.442448309334139 A 136,136 0 0,1 74.833477758629513,74.833477758629556" />
    <path d="M 84.722513353744148,65.870578342667827 A 136,136 0 0,1 131.5212838933931,40.856114340419595" />
    <path d="M 144.46771620580648,37.613201865160676 A 136,136 0 0,1 157.66966891517978,35.654877172581223" />
    <path d="M 99.347696002448316,36.947967819050064 A 152,152 0 0,1 200.65372894645151,21.92063737870896" />
    <path d="M 229.16788171949364,30.570311058284403 A 152,152 0 0,1 267.42777919287414,53.50241108886398" />
    <path d="M 288.497588911136,74.572220807125873 A 152,152 0 0,1 297.38338106998685,86.553324581020462" />
    <path d="M 305.05203218094994,99.34769600244833 A 152,152 0 0,1 316.45493103129576,126.87672905732174" />
    <path d="M 320.079362621291,141.34627105354849 A 152,152 0 0,1 320.079362621291,200.65372894645148" />
    <path d="M 311.4296889417156,229.16788171949364 A 152,152 0 0,1 305.05203218094994,242.65230399755166" />
    <path d="M 267.42777919287414,288.497588911136 A 152,152 0 0,1 255.44667541897951,297.38338106998685" />
    <path d="M 215.12327094267829,316.45493103129576 A 152,152 0 0,1 200.65372894645154,320.079362621291" />
    <path d="M 185.89860533009323,322.26807845417392 A 152,152 0 0,1 171.00000000000003,323" />
    <path d="M 156.1013946699068,322.26807845417392 A 152,152 0 0,1 141.34627105354849,320.079362621291" />
    <path d="M 74.572220807125916,288.49758891113606 A 152,152 0 0,1 36.947967819050064,242.65230399755168" />
    <path d="M 21.920637378708989,200.65372894645157 A 152,152 0 0,1 19.731921545826054,156.10139466990688" />
    <path d="M 21.92063737870896,141.34627105354849 A 152,152 0 0,1 44.61661893001309,86.553324581020519" />
    <path d="M 63.519769259644747,63.519769259644804 A 152,152 0 0,1 86.553324581020462,44.616618930013118" />
    <path d="M 187.46687957536619,3.8089659190709142 A 168,168 0 1,1 171,3" />
  </g>
  <g fill="none" stroke="#000000" stroke-width="2" stroke-linecap="butt">
    <line x1="171" y1="35" x2="171" y2="131" />
    <line x1="194.41083864193539" y1="53.305766351612348" x2="188.16794833741929" y2="84.690895324515722" />
    <line x1="219.76782577874968" y1="10.234023596988919" x2="210.47871610660687" y2="40.856114340419595" />
    <line x1="223.0449468016522" y1="45.352383578465009" x2="216.92201188381077" y2="60.134456098645586" />
    <line x1="204.6761420481279" y1="89.698601139006769" x2="198.55320713028647" y2="104.48067365918736" />
    <line x1="242.65230399755166" y1="36.947967819050035" x2="235.10995620833569" y2="51.058708048623714" />
    <line x1="228.77930423403862" y1="84.5271603205353" x2="219.890180505725" y2="97.83067411737602" />
    <line x1="278.48023074035518" y1="63.519769259644775" x2="255.85281374238571" y2="86.1471862576143" />
    <line x1="244.53910524340094" y1="97.460894756599046" x2="221.91168824543144" y2="120.08831175456857" />
    <line x1="210.59797974644664" y1="131.40202025355333" x2="199.2842712474619" y2="142.7157287525381" />
    <line x1="300.86575616493985" y1="64.421928260507556" x2="288.497588911136" y2="74.572220807125888" />
    <line x1="270.77635347630542" y1="104.33157203764773" x2="257.4728396794647" y2="113.22069576596135" />
    <line x1="305.05203218094994" y1="99.34769600244833" x2="290.94129195137629" y2="106.8900437916643" />
    <line x1="311.4296889417156" y1="112.83211828050634" x2="296.64761642153496" y2="118.95505319834778" />
    <line x1="222.73725382063205" y1="149.56972778755497" x2="207.95518130045147" y2="155.6926627053964" />
    <line x1="331.76597640301111" y1="122.23217422125032" x2="301.14388565958041" y2="131.52128389339313" />
    <line x1="273.001669161936" y1="150.71060651032266" x2="241.61654018903261" y2="156.95349681483876" />
    <line x1="322.26807845417392" y1="156.10139466990677" x2="306.34512282741878" y2="157.66966891517973" />
    <line x1="307" y1="171" x2="275" y2="171" />
    <line x1="243" y1="171" x2="227" y2="171" />
    <line x1="304.38679813483935" y1="197.53228379419343" x2="288.69423364838764" y2="194.41083864193539" />
    <line x1="257.30910467548426" y1="188.16794833741929" x2="241.61654018903261" y2="185.04650318516124" />
    <line x1="331.76597640301111" y1="219.76782577874965" x2="301.14388565958041" y2="210.47871610660684" />
    <line x1="311.4296889417156" y1="229.16788171949364" x2="296.64761642153496" y2="223.0449468016522" />
    <line x1="267.08347138117381" y1="210.79907696596933" x2="252.30139886099323" y2="204.6761420481279" />
    <line x1="237.51932634081265" y1="198.55320713028647" x2="207.95518130045147" y2="186.3073372946036" />
    <line x1="310.68689486682763" y1="264.33579914729313" x2="297.38338106998691" y2="255.44667541897951" />
    <line x1="284.07986727314619" y1="246.55755169066586" x2="257.47283967946476" y2="228.77930423403859" />
    <line x1="288.49758891113606" y1="267.42777919287408" x2="276.12942165733227" y2="257.27748664625574" />
    <line x1="289.79393923934" y1="289.79393923934" x2="267.16652224137044" y2="267.16652224137044" />
    <line x1="255.85281374238571" y1="255.85281374238571" x2="233.22539674441617" y2="233.22539674441617" />
    <line x1="221.91168824543144" y1="221.91168824543144" x2="210.59797974644667" y2="210.59797974644664" />
    <line x1="267.42777919287414" y1="288.497588911136" x2="257.2774866462558" y2="276.12942165733222" />
    <line x1="237.66842796235227" y1="270.77635347630542" x2="228.77930423403862" y2="257.4728396794647" />
    <line x1="250.19465178676762" y1="319.16277241052364" x2="235.10995620833569" y2="290.94129195137629" />
    <line x1="229.16788171949366" y1="311.4296889417156" x2="216.9220118838108" y2="281.86554390135439" />
    <line x1="210.79907696596933" y1="267.08347138117381" x2="204.6761420481279" y2="252.30139886099323" />
    <line x1="203.77517409870961" y1="335.77192710774273" x2="200.65372894645154" y2="320.079362621291" />
    <line x1="197.53228379419349" y1="304.38679813483935" x2="194.41083864193544" y2="288.69423364838764" />
    <line x1="171.00000000000003" y1="339" x2="171.00000000000003" y2="307" />
    <line x1="171" y1="243" x2="171" y2="195" />
    <line x1="138.22482590129044" y1="335.77192710774273" x2="141.34627105354849" y2="320.079362621291" />
    <line x1="144.46771620580654" y1="304.38679813483935" x2="147.58916135806459" y2="288.69423364838764" />
    <line x1="126.87672905732177" y1="316.45493103129576" x2="131.52128389339316" y2="301.14388565958041" />
    <line x1="106.70918336266493" y1="326.21176146189623" x2="112.83211828050636" y2="311.4296889417156" />
    <line x1="118.9550531983478" y1="296.647616421535" x2="125.07798811618923" y2="281.86554390135444" />
    <line x1="131.20092303403067" y1="267.08347138117381" x2="143.44679286971353" y2="237.51932634081265" />
    <line x1="149.56972778755497" y1="222.73725382063208" x2="155.6926627053964" y2="207.95518130045147" />
    <line x1="99.347696002448359" y1="305.05203218094994" x2="106.89004379166433" y2="290.94129195137629" />
    <line x1="77.66420085270687" y1="310.68689486682763" x2="86.5533245810205" y2="297.38338106998691" />
    <line x1="104.33157203764776" y1="270.77635347630547" x2="122.10981949427503" y2="244.16932588262398" />
    <line x1="74.572220807125916" y1="288.49758891113606" x2="84.722513353744247" y2="276.12942165733227" />
    <line x1="74.833477758629542" y1="267.1665222413705" x2="86.147186257614308" y2="255.85281374238571" />
    <line x1="97.46089475659906" y1="244.53910524340097" x2="120.08831175456858" y2="221.91168824543144" />
    <line x1="142.7157287525381" y1="199.2842712474619" x2="154.02943725152286" y2="187.97056274847714" />
    <line x1="53.502411088864022" y1="267.4277791928742" x2="65.870578342667812" y2="257.27748664625585" />
    <line x1="71.223646523694569" y1="237.66842796235227" x2="84.5271603205353" y2="228.77930423403862" />
    <line x1="30.57031105828446" y1="229.16788171949372" x2="60.134456098645614" y2="216.92201188381085" />
    <line x1="74.9165286188262" y1="210.79907696596939" x2="104.48067365918737" y2="198.5532071302865" />
    <line x1="10.234023596988919" y1="219.76782577874968" x2="40.856114340419595" y2="210.4787161066069" />
    <line x1="21.920637378708989" y1="200.65372894645157" x2="68.998330838064049" y2="191.28939348967737" />
    <line x1="35" y1="171.00000000000003" x2="83" y2="171.00000000000003" />
    <line x1="131" y1="171" x2="147" y2="171" />
    <line x1="19.731921545826054" y1="156.10139466990688" x2="35.654877172581223" y2="157.66966891517984" />
    <line x1="53.305766351612348" y1="147.58916135806462" x2="68.998330838064035" y2="150.71060651032266" />
    <line x1="84.690895324515722" y1="153.83205166258071" x2="100.38345981096741" y2="156.95349681483876" />
    <line x1="45.352383578465023" y1="118.95505319834777" x2="74.916528618826192" y2="131.20092303403064" />
    <line x1="104.48067365918736" y1="143.44679286971353" x2="134.04481869954853" y2="155.6926627053964" />
    <line x1="36.947967819050035" y1="99.347696002448373" x2="51.058708048623714" y2="106.89004379166433" />
    <line x1="71.223646523694541" y1="104.33157203764777" x2="84.527160320535273" y2="113.22069576596141" />
    <line x1="97.830674117376" y1="122.10981949427503" x2="111.13418791421672" y2="130.99894322258865" />
    <line x1="41.134243835060204" y1="64.421928260507542" x2="65.870578342667784" y2="84.7225133537442" />
    <line x1="63.519769259644747" y1="63.519769259644804" x2="108.7746032555838" y2="108.77460325558383" />
    <line x1="120.08831175456857" y1="120.08831175456859" x2="131.40202025355333" y2="131.40202025355336" />
    <line x1="95.442448309334111" y1="57.920132726853851" x2="113.22069576596138" y2="84.5271603205353" />
    <line x1="99.347696002448316" y1="36.947967819050064" x2="106.89004379166428" y2="51.058708048623743" />
    <line x1="118.95505319834771" y1="45.352383578465037" x2="125.07798811618915" y2="60.134456098645614" />
    <line x1="149.56972778755494" y1="119.26274617936795" x2="155.69266270539637" y2="134.04481869954856" />
    <line x1="150.71060651032261" y1="68.998330838064049" x2="153.83205166258068" y2="84.690895324515736" />
    <line x1="156.1013946699068" y1="19.731921545826054" x2="157.66966891517978" y2="35.654877172581223" />
  </g>
  <path fill="none" stroke="#ff0000" stroke-width="2" stroke-linecap="square" stroke-linejoin="round" d="M 179.24336928700623,3.2023633575310271 L 178.85082789238689,11.192727007172408 A 160,160 0 0,0 88.7435609290845,33.763422399956482 L 96.969204836176047,47.48708015996084 A 144,144 0 0,0 74.295510502029316,64.30303794888593 L 85.040453779581611,76.158255954565263 A 128,128 0 0,1 89.797659627053321,72.054661969569707 L 110.09824472028998,96.790996477177288 A 96,96 0 0,1 125.7459132647042,86.335558622557926 L 118.20356547548823,72.224818392984261 A 112,112 0 0,1 160.02208028308922,59.539310612713948 L 163.15862877363517,91.385221866224242 A 80,80 0 0,0 120.24853726690833,109.15916373098108 L 130.39882981352668,121.52733098478485 A 64,64 0 0,1 158.51421939096775,108.22974205419325 L 164.75710969548388,139.61487102709663 A 32,32 0 0,1 188.77824745662727,197.60702759368144 L 197.66737118494089,210.91054139052218 A 48,48 0 0,0 210.91054139052218,197.66737118494089 L 224.2140551873629,206.55649491325454 A 64,64 0 0,1 220.47266901521516,211.6011701864733 L 232.84083626901895,221.75146273309161 A 80,80 0 0,1 147.77722581964304,247.5552268585767 L 143.13267098357164,262.86627223029205 A 96,96 0 0,0 161.59035452836218,266.5377337605309 L 160.02208028308922,282.46068938728604 A 112,112 0 0,0 223.79643452451177,269.77518160701572 L 216.2540867352958,255.66444137744207 A 96,96 0 0,0 231.90175527970996,245.20900352282274 L 252.20234037294662,269.94533803043032 A 128,128 0 0,1 225.72705195907611,286.71062951980076 L 239.40881494884513,315.63828689975094 A 160,160 0 0,1 224.90237654275524,321.6470504292833 L 219.51213888847974,306.582345386355 A 144,144 0 0,1 178.06574510314817,314.82654569354486 L 177.28066231390949,298.8458183942621 A 128,128 0 0,1 164.71933768609054,298.8458183942621 L 163.93425489685185,314.82654569354486 A 144,144 0 0,1 136.01085409393,310.68450046001431 L 132.12317121547778,326.20500051112708 A 160,160 0 0,1 117.09762345724479,321.64705042928335 L 122.48786111152032,306.582345386355 A 144,144 0 0,1 109.43206654603941,301.17445820977582 L 102.59118505115491,315.63828689975094 A 160,160 0 0,1 88.743560929084552,308.23657760004357 L 105.19484874326764,280.78926208003486 A 128,128 0 0,1 85.04045377958164,265.84174404543478 L 74.295510502029344,277.6969620511141 A 144,144 0 0,1 64.303037948885915,267.70448949797071 L 76.158255954565263,256.95954622041836 A 128,128 0 0,1 58.114078163410568,231.33878231372773 L 72.224818392984247,223.79643452451177 A 112,112 0 0,1 63.822682397992608,203.51188385249981 L 48.51163702627727,208.1564386885712 A 128,128 0 0,1 46.835999591098371,202.1014630276178 L 15.794999488872975,209.87682878452227 A 160,160 0 0,1 42.48679496309677,75.688111281210738 L 55.338115466787087,85.219300153089662 A 144,144 0 0,0 47.4870801599608,96.9692048361761 L 61.210737919965155,105.19484874326764 A 128,128 0 0,1 72.054661969569679,89.797659627053363 L 96.790996477177259,110.09824472029003 A 96,96 0 0,0 79.133727769707946,143.13267098357164 L 48.511637026277256,133.84356131142886 A 128,128 0 0,0 43.154181605737932,164.71933768609054 L 27.17345430645517,163.93425489685185 A 144,144 0 0,0 28.558582565071561,192.12918832157217 L 44.385406724508044,189.78150073028638 A 128,128 0 0,1 43.616354985958793,183.54619396218374 L 75.4622662394691,180.40964547163782 A 96,96 0 0,0 79.133727769707946,198.86732901642839 L 94.4447731414233,194.222774180357 A 80,80 0 0,1 91.385221866224242,163.1586287736352 L 107.3081774929794,164.72690301890816 A 64,64 0 0,0 158.51421939096778,233.77025794580675 L 164.75710969548391,202.38512897290337 A 32,32 0 0,1 158.75413016431713,200.56414504036118 L 161.81559762323786,193.17310878027089" />
  <type>Circular</type>
</svg>