<?xml version="1.0" encoding="utf-8" standalone="no"?>
<!DOCTYPE svg PUBLIC "-//W3C//DTD SVG 1.1//EN" "http://www.w3.org/Graphics/SVG/1.1/DTD/svg11.dtd"[]>
<svg width="340" height="340" version="1.1" xmlns="http://www.w3.org/2000/svg">
  <title>21 cells diameter theta maze</title>
  <g fill="none" stroke="#000000" stroke-width="2" stroke-linecap="square">
    <path d="M 154.02943725152286,187.97056274847714 A 24,24 0 1,1 171,195" />
    <path d="M 134.04481869954853,186.3073372946036 A 40,40 0 0,1 171,131" />
    <path d="M 186.3073372946036,134.04481869954853 A 40,40 0 0,1 207.95518130045147,155.6926627053964" />
    <path d="M 211,171 A 40,40 0 0,1 199.2842712474619,199.2842712474619" />
    <path d="M 186.3073372946036,207.95518130045147 A 40,40 0 0,1 155.6926627053964,207.95518130045147" />
    <path d="M 149.56972778755494,119.26274617936795 A 56,56 0 0,1 222.73725382063205,149.56972778755497" />
    <path d="M 227,171 A 56,56 0 0,1 222.73725382063208,192.43027221244503" />
    <path d="M 210.59797974644667,210.59797974644664 A 56,56 0 0,1 192.43027221244503,222.73725382063205" />
    <path d="M 149.569727787555,222.73725382063208 A 56,56 0 0,1 131.40202025355336,210.59797974644667" />
    <path d="M 119.26274617936795,149.56972778755497 A 56,56 0 0,1 131.40202025355333,131.40202025355336" />
    <path d="M 111.13418791421672,130.99894322258865 A 72,72 0 0,1 185.04650318516124,100.38345981096741" />
    <path d="M 198.55320713028647,104.48067365918736 A 72,72 0 0,1 211.00105677741135,111.13418791421674" />
    <path d="M 221.91168824543144,120.08831175456858 A 72,72 0 0,1 243,171" />
    <path d="M 241.61654018903261,185.04650318516124 A 72,72 0 0,1 221.91168824543144,221.91168824543141" />
    <path d="M 211.00105677741135,230.86581208578326 A 72,72 0 0,1 185.04650318516127,241.61654018903261" />
    <path d="M 171,243 A 72,72 0 0,1 143.44679286971353,237.51932634081265" />
    <path d="M 130.99894322258865,230.86581208578326 A 72,72 0 0,1 104.48067365918736,143.44679286971353" />
    <path d="M 153.83205166258068,84.690895324515722 A 88,88 0 0,1 171,83" />
    <path d="M 188.16794833741929,84.690895324515722 A 88,88 0 0,1 204.6761420481279,89.698601139006769" />
    <path d="M 219.890180505725,97.83067411737602 A 88,88 0 0,1 233.22539674441617,108.77460325558381" />
    <path d="M 252.30139886099323,137.3238579518721 A 88,88 0 0,1 257.30910467548426,153.83205166258071" />
    <path d="M 259,171 A 88,88 0 0,1 257.30910467548426,188.16794833741929" />
    <path d="M 252.30139886099323,204.6761420481279 A 88,88 0 0,1 244.16932588262398,219.89018050572497" />
    <path d="M 233.22539674441617,233.22539674441617 A 88,88 0 0,1 204.6761420481279,252.30139886099323" />
    <path d="M 188.16794833741932,257.30910467548426 A 88,88 0 0,1 97.83067411737602,219.890180505725" />
    <path d="M 84.690895324515722,188.16794833741932 A 88,88 0 0,1 84.690895324515722,153.83205166258071" />
    <path d="M 108.7746032555838,108.77460325558383 A 88,88 0 0,1 137.32385795187204,89.698601139006783" />
    <path d="M 171,67 A 104,104 0 0,1 228.77930423403862,84.527160320535288" />
    <path d="M 244.53910524340094,97.46089475659906 A 104,104 0 0,1 273.001669161936,191.28939348967734" />
    <path d="M 257.47283967946476,228.77930423403859 A 104,104 0 0,1 244.53910524340097,244.53910524340094" />
    <path d="M 210.79907696596933,267.08347138117381 A 104,104 0 0,1 191.28939348967737,273.001669161936" />
    <path d="M 150.71060651032266,273.001669161936 A 104,104 0 0,1 97.460894756599075,244.53910524340097" />
    <path d="M 84.527160320535288,228.77930423403862 A 104,104 0 0,1 67,171.00000000000003" />
    <path d="M 68.998330838064035,150.71060651032266 A 104,104 0 0,1 74.916528618826192,131.20092303403064" />
    <path d="M 84.527160320535273,113.22069576596141 A 104,104 0 0,1 113.22069576596137,84.5271603205353" />
    <path d="M 131.20092303403061,74.9165286188262 A 104,104 0 0,1 150.71060651032261,68.998330838064049" />
    <path d="M 147.58916135806456,53.305766351612363 A 120,120 0 0,1 171,51" />
    <path d="M 216.92201188381077,60.134456098645586 A 120,120 0 0,1 255.85281374238571,86.1471862576143" />
    <path d="M 281.86554390135439,125.07798811618923 A 120,120 0 0,1 270.77635347630542,237.66842796235224" />
    <path d="M 216.9220118838108,281.86554390135439 A 120,120 0 0,1 104.33157203764777,270.77635347630547" />
    <path d="M 86.147186257614308,255.85281374238571 A 120,120 0 0,1 53.305766351612348,194.41083864193544" />
    <path d="M 51,171.00000000000003 A 120,120 0 0,1 53.305766351612348,147.58916135806462" />
    <path d="M 60.1344560986456,125.0779881161892 A 120,120 0 0,1 125.07798811618915,60.134456098645614" />
    <path d="M 157.66966891517978,35.654877172581223 A 136,136 0 0,1 246.55755169066589,57.920132726853851" />
    <path d="M 257.2774866462558,65.87057834266777 A 136,136 0 0,1 290.94129195137629,106.8900437916643" />
    <path d="M 296.64761642153496,118.95505319834778 A 136,136 0 0,1 301.14388565958041,131.52128389339313" />
    <path d="M 306.34512282741878,157.66966891517973 A 136,136 0 0,1 306.34512282741878,184.33033108482024" />
    <path d="M 304.38679813483935,197.53228379419343 A 136,136 0 0,1 301.14388565958041,210.47871610660687" />
    <path d="M 296.647616421535,223.0449468016522 A 136,136 0 0,1 276.12942165733227,257.27748664625574" />
    <path d="M 235.10995620833569,290.94129195137629 A 136,136 0 0,1 197.53228379419349,304.3867981348393" />
    <path d="M 184.33033108482027,306.34512282741878 A 136,136 0 0,1 144.46771620580654,304.38679813483935" />
    <path d="M 131.52128389339316,301.14388565958041 A 136,136 0 0,1 118.9550531983478,296.647616421535" />
    <path d="M 106.89004379166433,290.94129195137629 A 136,136 0 0,1 74.833477758629556,267.16652224137044" />
    <path d="M 65.870578342667812,257.27748664625585 A 136,136 0 0,1 57.920132726853836,246.55755169066589" />
    <path d="M 51.058708048623728,235.10995620833572 A 136,136 0 0,1 40.856114340419595,210.4787161066069" />
    <path d="M 37.613201865160676,197.53228379419349 A 136,136 0 0,1 35,171.00000000000003" />
    <path d="M 35.654877172581223,157.66966891517984 A 136,136 0 0,1 37.613201865160647,144.46771620580654" />
    <path d="M 40.856114340419595,131.52128389339316 A 136,136 0 0,1 45.352383578465009,118.95505319834777" />
    <path d="M 51.058708048623714,106.89004379166433 A 136,136 0 0,1 106.89004379166428,51.058708048623743" />
    <path d="M 118.95505319834771,45.352383578465037 A 136,136 0 0,1 144.46771620580648,37.613201865160676" />
    <path d="M 171,19 A 152,152 0 0,1 242.65230399755166,36.947967819050035" />
    <path d="M 255.44667541897954,44.616618930013118 A 152,152 0 0,1 267.42777919287414,53.50241108886398" />
    <path d="M 278.48023074035524,63.519769259644775 A 152,152 0 0,1 320.079362621291,141.34627105354849" />
    <path d="M 322.26807845417392,185.89860533009323 A 152,152 0 0,1 320.079362621291,200.65372894645148" />
    <path d="M 316.45493103129576,215.12327094267826 A 152,152 0 0,1 311.4296889417156,229.16788171949364" />
    <path d="M 297.38338106998691,255.44667541897951 A 152,152 0 0,1 242.65230399755166,305.05203218094994" />
    <path d="M 229.16788171949366,311.42968894171554 A 152,152 0 0,1 185.89860533009323,322.26807845417392" />
    <path d="M 141.34627105354849,320.079362621291 A 152,152 0 0,1 99.347696002448359,305.05203218094994" />
    <path d="M 63.519769259644789,278.48023074035524 A 152,152 0 0,1 53.502411088864022,267.42777919287414" />
    <path d="M 44.616618930013118,255.44667541897951 A 152,152 0 0,1 36.947967819050064,242.65230399755168" />
    <path d="M 25.545068968704243,215.12327094267829 A 152,152 0 0,1 19.731921545826083,185.89860533009318" />
    <path d="M 19,171.00000000000003 A 152,152 0 0,1 19.731921545826054,156.10139466990688" />
    <path d="M 21.92063737870896,141.34627105354849 A 152,152 0 0,1 25.545068968704243,126.87672905732177" />
    <path d="M 36.947967819050035,99.347696002448373 A 152,152 0 0,1 44.61661893001309,86.553324581020519" />
    <path d="M 63.519769259644747,63.519769259644804 A 152,152 0 0,1 156.1013946699068,19.731921545826083" />
    <path d="M 187.46687957536619,3.8089659190709142 A 168,168 0 1,1 171,3" />
  </g>
  <g fill="none" stroke="#000000" stroke-width="2" stroke-linecap="butt">
    <line x1="171" y1="35" x2="171" y2="67" />
    <line x1="197.53228379419343" y1="37.613201865160647" x2="194.41083864193539" y2="53.305766351612348" />
    <line x1="191.28939348967734" y1="68.998330838064035" x2="185.04650318516124" y2="100.38345981096741" />
    <line x1="198.55320713028647" y1="104.48067365918736" x2="186.3073372946036" y2="134.04481869954853" />
    <line x1="250.19465178676762" y1="22.837227589476356" x2="242.65230399755166" y2="36.947967819050035" />
    <line x1="255.44667541897954" y1="44.616618930013118" x2="246.55755169066589" y2="57.920132726853851" />
    <line x1="228.77930423403862" y1="84.5271603205353" x2="219.890180505725" y2="97.83067411737602" />
    <line x1="267.42777919287414" y1="53.50241108886398" x2="257.2774866462558" y2="65.87057834266777" />
    <line x1="289.79393923934" y1="52.206060760660009" x2="278.48023074035518" y2="63.519769259644775" />
    <line x1="255.85281374238571" y1="86.1471862576143" x2="244.53910524340094" y2="97.460894756599046" />
    <line x1="233.22539674441617" y1="108.77460325558381" x2="221.91168824543144" y2="120.08831175456857" />
    <line x1="199.2842712474619" y1="142.7157287525381" x2="187.97056274847714" y2="154.02943725152286" />
    <line x1="284.07986727314614" y1="95.442448309334083" x2="257.4728396794647" y2="113.22069576596135" />
    <line x1="244.16932588262398" y1="122.109819494275" x2="230.86581208578326" y2="130.99894322258865" />
    <line x1="296.64761642153496" y1="118.95505319834778" x2="281.86554390135439" y2="125.07798811618922" />
    <line x1="267.08347138117381" y1="131.20092303403067" x2="252.30139886099323" y2="137.3238579518721" />
    <line x1="320.079362621291" y1="141.34627105354849" x2="288.69423364838764" y2="147.58916135806459" />
    <line x1="338.19103408092906" y1="154.53312042463378" x2="306.34512282741878" y2="157.66966891517973" />
    <line x1="339" y1="171" x2="323" y2="171" />
    <line x1="335.77192710774273" y1="203.77517409870953" x2="320.079362621291" y2="200.65372894645148" />
    <line x1="304.38679813483935" y1="197.53228379419343" x2="288.69423364838764" y2="194.41083864193539" />
    <line x1="273.001669161936" y1="191.28939348967734" x2="241.61654018903261" y2="185.04650318516124" />
    <line x1="316.45493103129576" y1="215.12327094267823" x2="301.14388565958041" y2="210.47871610660684" />
    <line x1="281.86554390135439" y1="216.92201188381077" x2="252.30139886099323" y2="204.6761420481279" />
    <line x1="237.51932634081265" y1="198.55320713028647" x2="207.95518130045147" y2="186.3073372946036" />
    <line x1="319.16277241052364" y1="250.19465178676762" x2="290.94129195137629" y2="235.10995620833569" />
    <line x1="278.48023074035524" y1="278.48023074035518" x2="221.91168824543144" y2="221.91168824543144" />
    <line x1="267.42777919287414" y1="288.497588911136" x2="257.2774866462558" y2="276.12942165733222" />
    <line x1="246.55755169066589" y1="284.07986727314619" x2="219.890180505725" y2="244.16932588262398" />
    <line x1="242.65230399755166" y1="305.05203218094994" x2="235.10995620833569" y2="290.94129195137629" />
    <line x1="204.6761420481279" y1="252.30139886099323" x2="198.55320713028647" y2="237.51932634081265" />
    <line x1="192.43027221244503" y1="222.73725382063205" x2="186.3073372946036" y2="207.95518130045147" />
    <line x1="200.65372894645154" y1="320.079362621291" x2="197.53228379419349" y2="304.38679813483935" />
    <line x1="191.28939348967737" y1="273.001669161936" x2="188.16794833741932" y2="257.30910467548426" />
    <line x1="185.89860533009323" y1="322.26807845417392" x2="184.33033108482027" y2="306.34512282741878" />
    <line x1="171.00000000000003" y1="339" x2="171.00000000000003" y2="323" />
    <line x1="171.00000000000003" y1="291" x2="171" y2="259" />
    <line x1="171" y1="243" x2="171" y2="195" />
    <line x1="154.53312042463381" y1="338.19103408092906" x2="156.1013946699068" y2="322.268078454174" />
    <line x1="141.34627105354849" y1="320.079362621291" x2="147.58916135806459" y2="288.69423364838764" />
    <line x1="112.83211828050636" y1="311.4296889417156" x2="118.9550531983478" y2="296.647616421535" />
    <line x1="137.3238579518721" y1="252.30139886099323" x2="143.44679286971353" y2="237.51932634081265" />
    <line x1="86.5533245810205" y1="297.38338106998691" x2="95.442448309334139" y2="284.07986727314619" />
    <line x1="64.4219282605076" y1="300.86575616493985" x2="74.572220807125916" y2="288.49758891113606" />
    <line x1="63.519769259644789" y1="278.48023074035524" x2="74.833477758629542" y2="267.1665222413705" />
    <line x1="86.147186257614308" y1="255.85281374238571" x2="108.77460325558383" y2="233.2253967444162" />
    <line x1="120.08831175456858" y1="221.91168824543144" x2="154.02943725152286" y2="187.97056274847714" />
    <line x1="53.502411088864022" y1="267.4277791928742" x2="65.870578342667812" y2="257.27748664625585" />
    <line x1="57.920132726853851" y1="246.55755169066589" x2="71.223646523694569" y2="237.66842796235227" />
    <line x1="36.947967819050064" y1="242.65230399755166" x2="51.058708048623728" y2="235.10995620833569" />
    <line x1="30.57031105828446" y1="229.16788171949372" x2="60.134456098645614" y2="216.92201188381085" />
    <line x1="74.9165286188262" y1="210.79907696596939" x2="119.26274617936795" y2="192.43027221244506" />
    <line x1="37.613201865160676" y1="197.53228379419349" x2="53.305766351612363" y2="194.41083864193544" />
    <line x1="19.731921545826054" y1="185.89860533009318" x2="35.654877172581223" y2="184.33033108482022" />
    <line x1="3" y1="171.00000000000003" x2="19" y2="171.00000000000003" />
    <line x1="51" y1="171.00000000000003" x2="67" y2="171.00000000000003" />
    <line x1="115" y1="171" x2="131" y2="171" />
    <line x1="19.731921545826054" y1="156.10139466990688" x2="35.654877172581223" y2="157.66966891517984" />
    <line x1="21.920637378708989" y1="141.34627105354849" x2="53.305766351612348" y2="147.58916135806462" />
    <line x1="68.998330838064035" y1="150.71060651032266" x2="100.38345981096741" y2="156.95349681483876" />
    <line x1="15.788238538103855" y1="106.70918336266487" x2="60.1344560986456" y2="125.0779881161892" />
    <line x1="74.916528618826192" y1="131.20092303403064" x2="89.698601139006783" y2="137.32385795187207" />
    <line x1="104.48067365918736" y1="143.44679286971353" x2="119.26274617936795" y2="149.56972778755497" />
    <line x1="36.947967819050035" y1="99.347696002448373" x2="51.058708048623714" y2="106.89004379166433" />
    <line x1="84.527160320535273" y1="113.22069576596141" x2="111.13418791421672" y2="130.99894322258865" />
    <line x1="41.134243835060204" y1="64.421928260507542" x2="65.870578342667784" y2="84.7225133537442" />
    <line x1="131.40202025355333" y1="131.40202025355336" x2="142.7157287525381" y2="142.7157287525381" />
    <line x1="113.22069576596138" y1="84.5271603205353" x2="122.109819494275" y2="97.83067411737602" />
    <line x1="99.347696002448316" y1="36.947967819050064" x2="106.89004379166428" y2="51.058708048623743" />
    <line x1="118.95505319834771" y1="45.352383578465037" x2="131.20092303403061" y2="74.9165286188262" />
    <line x1="150.71060651032261" y1="68.998330838064049" x2="153.83205166258068" y2="84.690895324515736" />
  </g>
  <path fill="none" stroke="#ff0000" stroke-width="2" stroke-linecap="square" stroke-linejoin="round" d="M 179.24336928700623,3.2023633575310271 L 178.85082789238689,11.192727007172408 A 160,160 0 0,0 163.14917210761311,11.192727007172408 L 163.9342548968518,27.17345430645517 A 144,144 0 0,1 245.03079516382394,47.487080159960811 L 253.25643907091546,33.763422399956454 A 160,160 0 0,1 278.44943277552295,52.44781994320654 L 267.70448949797066,64.303037948885887 A 144,144 0 0,1 301.17445820977582,109.43206654603937 L 286.71062951980076,116.27294804092388 A 128,128 0 0,0 283.88592183658943,110.66121768627228 L 269.77518160701572,118.20356547548825 A 112,112 0 0,1 278.17731760200741,203.51188385249975 L 247.5552268585767,194.22277418035696 A 80,80 0 0,1 232.84083626901895,221.75146273309161 L 245.20900352282274,231.90175527970996 A 96,96 0 0,0 255.66444137744207,216.25408673529577 L 269.77518160701578,223.79643452451174 A 112,112 0 0,1 257.57717077662653,242.05204782632828 L 269.94533803043032,252.20234037294659 A 128,128 0 0,1 265.84174404543478,256.95954622041836 L 277.6969620511141,267.70448949797066 A 144,144 0 0,0 294.51291984003922,245.03079516382391 L 308.23657760004357,253.25643907091546 A 160,160 0 0,1 178.85082789238689,330.80727299282762 L 178.06574510314817,314.82654569354486 A 144,144 0 0,1 149.87081167842794,313.44141743492844 L 147.52312408714215,329.26824159436495 A 160,160 0 0,1 75.688111281210681,299.51320503690317 L 85.2193001530896,286.66188453321286 A 144,144 0 0,1 74.295510502029344,277.6969620511141 L 63.550567224477049,289.55218005679342 A 160,160 0 0,1 11.192727007172408,178.85082789238689 L 27.17345430645517,178.0657451031482 A 144,144 0 0,1 27.17345430645517,163.93425489685185 L 43.154181605737932,164.71933768609054 A 128,128 0 0,0 43.616354985958793,183.54619396218374 L 59.539310612713948,181.97791971691078 A 112,112 0 0,0 84.4228292233735,242.05204782632833 L 96.790996477177288,231.90175527971002 A 96,96 0 0,1 86.335558622557926,216.2540867352958 L 100.44629885213161,208.71173894607983 A 80,80 0 0,0 133.2882610539202,241.55370114786842 L 140.83060884313616,227.44296091829472 A 64,64 0 0,0 158.51421939096778,233.77025794580675 L 161.63566454322583,218.07769345935506 A 48,48 0 0,1 144.33262881505911,210.91054139052218 L 153.22175254337273,197.60702759368147 A 32,32 0 0,0 158.75413016431713,200.56414504036118 L 161.81559762323786,193.17310878027089" />
  <type>Circular</type>
</svg>