<?xml version="1.0" encoding="utf-8" standalone="no"?>
<!DOCTYPE svg PUBLIC "-//W3C//DTD SVG 1.1//EN" "http://www.w3.org/Graphics/SVG/1.1/DTD/svg11.dtd"[]>
<svg width="200" height="282.86018001858923" version="1.1" xmlns="http://www.w3.org/2000/svg">
  <title>9 by 11 sigma maze</title>
  <g fill="none" stroke="#000000" stroke-width="2" stroke-linecap="round" stroke-linejoin="round">
    <polyline points="9,38.373066958946417 2,26.248711305964278 9,14.124355652982137 23,14.124355652982137 30,1.9999999999999965 44,1.9999999999999965 51,14.124355652982137 65,14.124355652982137 72,26.248711305964278" />
    <polyline points="65,14.124355652982137 72,1.9999999999999965 86,1.9999999999999965 93,14.124355652982137" />
    <polyline points="114,26.248711305964278 107,14.124355652982137 114,1.9999999999999965 128,1.9999999999999965 135,14.124355652982137 149,14.124355652982137 156,26.248711305964278" />
    <polyline points="149,14.124355652982137 156,1.9999999999999965 170,1.9999999999999965 177,14.124355652982137 191,14.124355652982137 198,26.248711305964278 191,38.373066958946417" />
    <polyline points="9,62.621778264910695 2,50.497422611928556 9,38.373066958946417" />
    <polyline points="30,50.497422611928556 23,38.373066958946417 30,26.248711305964278 44,26.248711305964278 51,38.373066958946417 44,50.497422611928556" />
    <polyline points="65,38.373066958946417 72,26.248711305964278 86,26.248711305964278 93,38.373066958946417 86,50.497422611928556" />
    <polyline points="93,38.373066958946417 107,38.373066958946417 114,50.497422611928556" />
    <polyline points="128,26.248711305964278 135,38.373066958946417 128,50.497422611928556" />
    <polyline points="149,38.373066958946417 156,26.248711305964278 170,26.248711305964278 177,38.373066958946417 170,50.497422611928556" />
    <polyline points="191,38.373066958946417 198,50.497422611928556 191,62.621778264910695" />
    <polyline points="9,86.870489570875 2,74.746133917892848 9,62.621778264910709 23,62.621778264910709 30,50.49742261192857" />
    <line x1="44" y1="74.746133917892848" x2="51" y2="62.621778264910709" />
    <line x1="65" y1="62.621778264910709" x2="72" y2="74.746133917892848" />
    <polyline points="72,50.49742261192857 86,50.49742261192857 93,62.621778264910709" />
    <polyline points="114,74.746133917892848 107,62.621778264910709 114,50.49742261192857 128,50.49742261192857" />
    <polyline points="135,62.621778264910709 149,62.621778264910709 156,74.746133917892848" />
    <line x1="149" y1="62.621778264910709" x2="156" y2="50.49742261192857" />
    <polyline points="177,62.621778264910709 191,62.621778264910709 198,74.746133917892848 191,86.870489570875" />
    <polyline points="9,111.11920087683927 2,98.994845223857126 9,86.87048957087498 23,86.87048957087498 30,74.746133917892834 44,74.746133917892834" />
    <polyline points="44,98.994845223857126 51,86.87048957087498 65,86.87048957087498 72,98.994845223857126" />
    <line x1="65" y1="86.87048957087498" x2="72" y2="74.746133917892834" />
    <polyline points="86,74.746133917892834 93,86.87048957087498 107,86.87048957087498 114,74.746133917892834 128,74.746133917892834" />
    <polyline points="128,98.994845223857126 135,86.87048957087498 149,86.87048957087498 156,74.746133917892834 170,74.746133917892834 177,86.87048957087498 170,98.994845223857126" />
    <polyline points="191,86.87048957087498 198,98.994845223857126 191,111.11920087683927" />
    <polyline points="9,135.36791218280354 2,123.2435565298214 9,111.11920087683926" />
    <polyline points="30,123.2435565298214 23,111.11920087683926 30,98.994845223857112 44,98.994845223857112" />
    <polyline points="51,111.11920087683926 65,111.11920087683926 72,123.2435565298214" />
    <polyline points="72,98.994845223857112 86,98.994845223857112 93,111.11920087683926 107,111.11920087683926 114,123.2435565298214" />
    <polyline points="107,111.11920087683926 114,98.994845223857112 128,98.994845223857112" />
    <polyline points="135,111.11920087683926 149,111.11920087683926 156,123.2435565298214" />
    <line x1="149" y1="111.11920087683926" x2="156" y2="98.994845223857112" />
    <line x1="170" y1="98.994845223857112" x2="177" y2="111.11920087683926" />
    <polyline points="191,111.11920087683926 198,123.2435565298214 191,135.36791218280354" />
    <polyline points="9,159.61662348876783 2,147.4922678357857 9,135.36791218280357" />
    <polyline points="23,135.36791218280357 30,123.24355652982142 44,123.24355652982142" />
    <polyline points="44,147.4922678357857 51,135.36791218280357 65,135.36791218280357 72,123.24355652982142 86,123.24355652982142" />
    <polyline points="86,147.4922678357857 93,135.36791218280357 107,135.36791218280357 114,147.4922678357857" />
    <polyline points="114,123.24355652982142 128,123.24355652982142 135,135.36791218280357 128,147.4922678357857" />
    <polyline points="149,135.36791218280357 156,123.24355652982142 170,123.24355652982142 177,135.36791218280357 170,147.4922678357857" />
    <polyline points="177,135.36791218280357 191,135.36791218280357 198,147.4922678357857 191,159.61662348876783" />
    <polyline points="9,183.86533479473209 2,171.74097914174996 9,159.61662348876783 23,159.61662348876783 30,171.74097914174996" />
    <polyline points="23,159.61662348876783 30,147.4922678357857 44,147.4922678357857" />
    <polyline points="44,171.74097914174996 51,159.61662348876783 65,159.61662348876783 72,147.4922678357857 86,147.4922678357857 93,159.61662348876783 86,171.74097914174996" />
    <line x1="107" y1="159.61662348876783" x2="114" y2="171.74097914174996" />
    <polyline points="114,147.4922678357857 128,147.4922678357857 135,159.61662348876783 128,171.74097914174996" />
    <polyline points="135,159.61662348876783 149,159.61662348876783 156,147.4922678357857" />
    <polyline points="170,147.4922678357857 177,159.61662348876783 170,171.74097914174996" />
    <polyline points="191,159.61662348876783 198,171.74097914174996 191,183.86533479473209" />
    <polyline points="9,208.11404610069636 2,195.98969044771422 9,183.86533479473209" />
    <line x1="23" y1="183.86533479473209" x2="30" y2="171.74097914174996" />
    <polyline points="44,171.74097914174996 51,183.86533479473209 44,195.98969044771422" />
    <line x1="51" y1="183.86533479473209" x2="65" y2="183.86533479473209" />
    <polyline points="72,171.74097914174996 86,171.74097914174996 93,183.86533479473209 86,195.98969044771422" />
    <line x1="107" y1="183.86533479473209" x2="114" y2="195.98969044771422" />
    <polyline points="114,171.74097914174996 128,171.74097914174996 135,183.86533479473209" />
    <polyline points="156,195.98969044771422 149,183.86533479473209 156,171.74097914174996" />
    <polyline points="170,195.98969044771422 177,183.86533479473209 191,183.86533479473209 198,195.98969044771422 191,208.11404610069636" />
    <polyline points="9,232.36275740666068 2,220.23840175367855 9,208.11404610069641" />
    <polyline points="30,220.23840175367855 23,208.11404610069641 30,195.98969044771428 44,195.98969044771428" />
    <polyline points="44,220.23840175367855 51,208.11404610069641 65,208.11404610069641 72,220.23840175367855" />
    <line x1="65" y1="208.11404610069641" x2="72" y2="195.98969044771428" />
    <line x1="86" y1="220.23840175367855" x2="93" y2="208.11404610069641" />
    <polyline points="114,220.23840175367855 107,208.11404610069641 114,195.98969044771428 128,195.98969044771428" />
    <polyline points="135,208.11404610069641 149,208.11404610069641 156,195.98969044771428 170,195.98969044771428 177,208.11404610069641" />
    <polyline points="191,208.11404610069641 198,220.23840175367855 191,232.36275740666068" />
    <polyline points="9,256.61146871262497 2,244.48711305964281 9,232.36275740666068" />
    <polyline points="30,244.48711305964281 23,232.36275740666068 30,220.23840175367855 44,220.23840175367855" />
    <polyline points="51,232.36275740666068 65,232.36275740666068 72,244.48711305964281" />
    <polyline points="72,220.23840175367855 86,220.23840175367855 93,232.36275740666068 107,232.36275740666068 114,244.48711305964281" />
    <polyline points="114,220.23840175367855 128,220.23840175367855 135,232.36275740666068 149,232.36275740666068 156,244.48711305964281" />
    <line x1="149" y1="232.36275740666068" x2="156" y2="220.23840175367855" />
    <polyline points="170,220.23840175367855 177,232.36275740666068 191,232.36275740666068 198,244.48711305964281 191,256.61146871262497" />
    <polyline points="9,280.86018001858923 2,268.73582436560707 9,256.61146871262491" />
    <polyline points="23,256.61146871262491 30,244.48711305964278 44,244.48711305964278 51,256.61146871262491 65,256.61146871262491" />
    <polyline points="72,244.48711305964278 86,244.48711305964278 93,256.61146871262491 86,268.73582436560707" />
    <line x1="93" y1="256.61146871262491" x2="107" y2="256.61146871262491" />
    <polyline points="114,244.48711305964278 128,244.48711305964278 135,256.61146871262491 128,268.73582436560707" />
    <line x1="135" y1="256.61146871262491" x2="149" y2="256.61146871262491" />
    <polyline points="156,244.48711305964278 170,244.48711305964278 177,256.61146871262491 170,268.73582436560707" />
    <polyline points="191,256.61146871262491 198,268.73582436560707 191,280.86018001858923" />
    <polyline points="30,268.73582436560707 23,280.86018001858923 9,280.86018001858923" />
    <line x1="44" y1="268.73582436560707" x2="30" y2="268.73582436560707" />
    <polyline points="72,268.73582436560707 65,280.86018001858923 51,280.86018001858923 44,268.73582436560707" />
    <line x1="86" y1="268.73582436560707" x2="72" y2="268.73582436560707" />
    <line x1="114" y1="268.73582436560707" x2="107" y2="280.86018001858923" />
    <line x1="93" y1="280.86018001858923" x2="86" y2="268.73582436560707" />
    <line x1="128" y1="268.73582436560707" x2="114" y2="268.73582436560707" />
    <polyline points="156,268.73582436560707 149,280.86018001858923 135,280.86018001858923 128,268.73582436560707" />
    <line x1="170" y1="268.73582436560707" x2="156" y2="268.73582436560707" />
    <polyline points="191,280.86018001858923 177,280.86018001858923 170,268.73582436560707" />
  </g>
  <polyline fill="none" stroke="#ff0000" stroke-width="2" stroke-linecap="square" stroke-linejoin="round" points="100,14.124355652982137 100,26.248711305964278 121,38.373066958946417 121,14.124355652982137 142,26.248711305964278 142,50.497422611928556 121,62.621778264910709 142,74.746133917892848 100,98.994845223857126 79,86.87048957087498 79,62.621778264910709 58,50.497422611928556 58,74.746133917892848 16,98.994845223857126 16,147.4922678357857 58,123.2435565298214 37,111.11920087683926 58,98.994845223857126 100,123.2435565298214 37,159.61662348876783 37,183.86533479473209 16,195.98969044771422 16,268.73582436560707 37,256.61146871262491 58,268.73582436560707 79,256.61146871262491 37,232.36275740666068 58,220.23840175367855 121,256.61146871262491 100,268.73582436560707 100,280.86018001858923" />
  <type>Rectangular</type>
</svg>