<?xml version="1.0" encoding="utf-8" standalone="no"?>
<!DOCTYPE svg PUBLIC "-//W3C//DTD SVG 1.1//EN" "http://www.w3.org/Graphics/SVG/1.1/DTD/svg11.dtd"[]>
<svg width="345" height="365.99861878189535" version="1.1" xmlns="http://www.w3.org/2000/svg">
  <title>30 by 19 delta maze</title>
  <g fill="none" stroke="#000000" stroke-width="2" stroke-linecap="round" stroke-linejoin="round">
    <line x1="13" y1="1.9999999999999911" x2="167" y2="1.9999999999999911" />
    <line x1="189" y1="1.9999999999999911" x2="343" y2="1.9999999999999911" />
    <line x1="24" y1="21.052558883257639" x2="46" y2="21.052558883257639" />
    <line x1="90" y1="21.052558883257639" x2="112" y2="21.052558883257639" />
    <line x1="134" y1="21.052558883257639" x2="156" y2="21.052558883257639" />
    <line x1="178" y1="21.052558883257639" x2="222" y2="21.052558883257639" />
    <line x1="288" y1="21.052558883257639" x2="332" y2="21.052558883257639" />
    <line x1="35" y1="40.105117766515292" x2="57" y2="40.105117766515292" />
    <line x1="123" y1="40.105117766515292" x2="145" y2="40.105117766515292" />
    <line x1="189" y1="40.105117766515292" x2="233" y2="40.105117766515292" />
    <line x1="255" y1="40.105117766515292" x2="277" y2="40.105117766515292" />
    <line x1="46" y1="59.157676649772938" x2="68" y2="59.157676649772938" />
    <line x1="156" y1="59.157676649772938" x2="244" y2="59.157676649772938" />
    <line x1="310" y1="59.157676649772938" x2="332" y2="59.157676649772938" />
    <line x1="35" y1="78.210235533030584" x2="57" y2="78.210235533030584" />
    <line x1="101" y1="78.210235533030584" x2="123" y2="78.210235533030584" />
    <line x1="167" y1="78.210235533030584" x2="255" y2="78.210235533030584" />
    <line x1="24" y1="97.262794416288244" x2="46" y2="97.262794416288244" />
    <line x1="68" y1="97.262794416288244" x2="112" y2="97.262794416288244" />
    <line x1="266" y1="97.262794416288244" x2="288" y2="97.262794416288244" />
    <line x1="13" y1="116.31535329954589" x2="35" y2="116.31535329954589" />
    <line x1="211" y1="116.31535329954589" x2="233" y2="116.31535329954589" />
    <line x1="255" y1="116.31535329954589" x2="277" y2="116.31535329954589" />
    <line x1="2" y1="135.36791218280354" x2="24" y2="135.36791218280354" />
    <line x1="68" y1="135.36791218280354" x2="90" y2="135.36791218280354" />
    <line x1="112" y1="135.36791218280354" x2="134" y2="135.36791218280354" />
    <line x1="156" y1="135.36791218280354" x2="178" y2="135.36791218280354" />
    <line x1="200" y1="135.36791218280354" x2="222" y2="135.36791218280354" />
    <line x1="244" y1="135.36791218280354" x2="266" y2="135.36791218280354" />
    <line x1="13" y1="154.4204710660612" x2="57" y2="154.4204710660612" />
    <line x1="255" y1="154.4204710660612" x2="277" y2="154.4204710660612" />
    <line x1="68" y1="173.47302994931883" x2="90" y2="173.47302994931883" />
    <line x1="112" y1="173.47302994931883" x2="134" y2="173.47302994931883" />
    <line x1="178" y1="173.47302994931883" x2="200" y2="173.47302994931883" />
    <line x1="288" y1="173.47302994931883" x2="310" y2="173.47302994931883" />
    <line x1="57" y1="192.52558883257649" x2="79" y2="192.52558883257649" />
    <line x1="145" y1="192.52558883257649" x2="167" y2="192.52558883257649" />
    <line x1="211" y1="192.52558883257649" x2="233" y2="192.52558883257649" />
    <line x1="266" y1="211.57814771583415" x2="310" y2="211.57814771583415" />
    <line x1="255" y1="230.63070659909178" x2="277" y2="230.63070659909178" />
    <line x1="156" y1="249.68326548234944" x2="178" y2="249.68326548234944" />
    <line x1="288" y1="249.68326548234944" x2="332" y2="249.68326548234944" />
    <line x1="35" y1="268.73582436560707" x2="57" y2="268.73582436560707" />
    <line x1="101" y1="268.73582436560707" x2="167" y2="268.73582436560707" />
    <line x1="189" y1="268.73582436560707" x2="211" y2="268.73582436560707" />
    <line x1="233" y1="268.73582436560707" x2="255" y2="268.73582436560707" />
    <line x1="299" y1="268.73582436560707" x2="321" y2="268.73582436560707" />
    <line x1="24" y1="287.78838324886476" x2="46" y2="287.78838324886476" />
    <line x1="90" y1="287.78838324886476" x2="112" y2="287.78838324886476" />
    <line x1="244" y1="287.78838324886476" x2="288" y2="287.78838324886476" />
    <line x1="310" y1="287.78838324886476" x2="332" y2="287.78838324886476" />
    <line x1="79" y1="306.84094213212234" x2="123" y2="306.84094213212234" />
    <line x1="167" y1="306.84094213212234" x2="189" y2="306.84094213212234" />
    <line x1="233" y1="306.84094213212234" x2="277" y2="306.84094213212234" />
    <line x1="68" y1="325.89350101538" x2="112" y2="325.89350101538" />
    <line x1="244" y1="325.89350101538" x2="266" y2="325.89350101538" />
    <line x1="288" y1="325.89350101538" x2="310" y2="325.89350101538" />
    <line x1="79" y1="344.94605989863771" x2="123" y2="344.94605989863771" />
    <line x1="299" y1="344.94605989863771" x2="321" y2="344.94605989863771" />
    <line x1="2" y1="363.99861878189529" x2="156" y2="363.99861878189529" />
    <line x1="178" y1="363.99861878189529" x2="332" y2="363.99861878189529" />
    <polyline points="13,1.9999999999999911 2,21.052558883257639 13,40.105117766515292 2,59.157676649772938" />
    <line x1="2" y1="59.157676649772945" x2="13" y2="78.2102355330306" />
    <line x1="13" y1="78.210235533030584" x2="2" y2="97.262794416288244" />
    <polyline points="2,97.26279441628823 13,116.31535329954589 2,135.36791218280354 13,154.42047106606117" />
    <line x1="13" y1="154.4204710660612" x2="2" y2="173.47302994931883" />
    <polyline points="2,173.47302994931886 13,192.52558883257649 2,211.57814771583412" />
    <line x1="2" y1="211.57814771583415" x2="13" y2="230.63070659909178" />
    <line x1="13" y1="230.63070659909181" x2="2" y2="249.68326548234944" />
    <polyline points="2,249.68326548234941 13,268.73582436560707 2,287.78838324886476 13,306.84094213212245" />
    <polyline points="13,306.84094213212234 2,325.89350101538 13,344.94605989863771 2,363.9986187818954" />
    <line x1="13" y1="1.9999999999999911" x2="24" y2="21.052558883257639" />
    <line x1="24" y1="59.157676649772945" x2="13" y2="78.2102355330306" />
    <line x1="13" y1="154.4204710660612" x2="24" y2="173.47302994931883" />
    <line x1="13" y1="230.63070659909181" x2="24" y2="249.68326548234944" />
    <line x1="24" y1="287.78838324886476" x2="13" y2="306.84094213212245" />
    <line x1="35" y1="40.105117766515292" x2="24" y2="59.157676649772938" />
    <line x1="35" y1="78.210235533030584" x2="24" y2="97.262794416288244" />
    <polyline points="24,173.47302994931886 35,192.52558883257649 24,211.57814771583412" />
    <line x1="24" y1="211.57814771583415" x2="35" y2="230.63070659909178" />
    <line x1="24" y1="287.78838324886476" x2="35" y2="306.84094213212245" />
    <line x1="35" y1="306.84094213212234" x2="24" y2="325.89350101538" />
    <line x1="35" y1="116.31535329954589" x2="46" y2="135.36791218280354" />
    <line x1="46" y1="173.47302994931886" x2="35" y2="192.52558883257649" />
    <line x1="46" y1="211.57814771583415" x2="35" y2="230.63070659909178" />
    <line x1="35" y1="230.63070659909181" x2="46" y2="249.68326548234944" />
    <polyline points="46,325.89350101538 35,344.94605989863771 46,363.9986187818954" />
    <line x1="46" y1="97.26279441628823" x2="57" y2="116.31535329954589" />
    <line x1="57" y1="268.73582436560707" x2="46" y2="287.78838324886476" />
    <line x1="57" y1="306.84094213212234" x2="46" y2="325.89350101538" />
    <line x1="68" y1="21.052558883257639" x2="57" y2="40.105117766515292" />
    <polyline points="68,97.26279441628823 57,116.31535329954589 68,135.36791218280354" />
    <line x1="57" y1="154.4204710660612" x2="68" y2="173.47302994931883" />
    <line x1="68" y1="173.47302994931886" x2="57" y2="192.52558883257649" />
    <line x1="68" y1="211.57814771583415" x2="57" y2="230.63070659909178" />
    <line x1="57" y1="230.63070659909181" x2="68" y2="249.68326548234944" />
    <line x1="68" y1="325.89350101538" x2="57" y2="344.94605989863771" />
    <line x1="68" y1="59.157676649772945" x2="79" y2="78.2102355330306" />
    <line x1="68" y1="249.68326548234941" x2="79" y2="268.73582436560707" />
    <line x1="68" y1="287.78838324886476" x2="79" y2="306.84094213212245" />
    <line x1="90" y1="21.052558883257639" x2="79" y2="40.105117766515292" />
    <line x1="90" y1="59.157676649772945" x2="79" y2="78.2102355330306" />
    <line x1="90" y1="97.26279441628823" x2="79" y2="116.31535329954589" />
    <line x1="79" y1="154.4204710660612" x2="90" y2="173.47302994931883" />
    <line x1="79" y1="230.63070659909181" x2="90" y2="249.68326548234944" />
    <line x1="90" y1="249.68326548234941" x2="79" y2="268.73582436560707" />
    <polyline points="90,21.052558883257639 101,40.105117766515292 90,59.157676649772938" />
    <line x1="90" y1="135.36791218280354" x2="101" y2="154.42047106606117" />
    <line x1="101" y1="192.52558883257649" x2="90" y2="211.57814771583412" />
    <polyline points="90,249.68326548234941 101,268.73582436560707 90,287.78838324886476" />
    <line x1="101" y1="40.105117766515292" x2="112" y2="59.157676649772938" />
    <line x1="112" y1="59.157676649772945" x2="101" y2="78.2102355330306" />
    <polyline points="101,116.31535329954589 112,135.36791218280354 101,154.42047106606117" />
    <line x1="101" y1="154.4204710660612" x2="112" y2="173.47302994931883" />
    <line x1="112" y1="173.47302994931886" x2="101" y2="192.52558883257649" />
    <line x1="112" y1="211.57814771583415" x2="101" y2="230.63070659909178" />
    <line x1="112" y1="21.052558883257639" x2="123" y2="40.105117766515292" />
    <line x1="123" y1="78.210235533030584" x2="112" y2="97.262794416288244" />
    <line x1="123" y1="192.52558883257649" x2="112" y2="211.57814771583412" />
    <line x1="123" y1="230.63070659909181" x2="112" y2="249.68326548234944" />
    <line x1="112" y1="287.78838324886476" x2="123" y2="306.84094213212245" />
    <line x1="112" y1="325.89350101538" x2="123" y2="344.94605989863771" />
    <line x1="123" y1="1.9999999999999911" x2="134" y2="21.052558883257639" />
    <line x1="134" y1="97.26279441628823" x2="123" y2="116.31535329954589" />
    <line x1="134" y1="135.36791218280354" x2="123" y2="154.42047106606117" />
    <line x1="134" y1="173.47302994931886" x2="123" y2="192.52558883257649" />
    <line x1="134" y1="211.57814771583415" x2="123" y2="230.63070659909178" />
    <line x1="123" y1="306.84094213212234" x2="134" y2="325.89350101538" />
    <line x1="123" y1="344.94605989863771" x2="134" y2="363.9986187818954" />
    <line x1="134" y1="59.157676649772945" x2="145" y2="78.2102355330306" />
    <line x1="145" y1="78.210235533030584" x2="134" y2="97.262794416288244" />
    <line x1="145" y1="192.52558883257649" x2="134" y2="211.57814771583412" />
    <line x1="134" y1="249.68326548234941" x2="145" y2="268.73582436560707" />
    <line x1="134" y1="287.78838324886476" x2="145" y2="306.84094213212245" />
    <line x1="134" y1="325.89350101538" x2="145" y2="344.94605989863771" />
    <polyline points="156,21.052558883257639 145,40.105117766515292 156,59.157676649772938" />
    <line x1="156" y1="59.157676649772945" x2="145" y2="78.2102355330306" />
    <line x1="145" y1="78.210235533030584" x2="156" y2="97.262794416288244" />
    <line x1="145" y1="116.31535329954589" x2="156" y2="135.36791218280354" />
    <line x1="145" y1="154.4204710660612" x2="156" y2="173.47302994931883" />
    <line x1="156" y1="173.47302994931886" x2="145" y2="192.52558883257649" />
    <line x1="156" y1="211.57814771583415" x2="145" y2="230.63070659909178" />
    <line x1="145" y1="230.63070659909181" x2="156" y2="249.68326548234944" />
    <line x1="145" y1="268.73582436560707" x2="156" y2="287.78838324886476" />
    <line x1="145" y1="306.84094213212234" x2="156" y2="325.89350101538" />
    <line x1="145" y1="344.94605989863771" x2="156" y2="363.9986187818954" />
    <line x1="156" y1="21.052558883257639" x2="167" y2="40.105117766515292" />
    <line x1="156" y1="97.26279441628823" x2="167" y2="116.31535329954589" />
    <line x1="156" y1="135.36791218280354" x2="167" y2="154.42047106606117" />
    <line x1="167" y1="154.4204710660612" x2="156" y2="173.47302994931883" />
    <line x1="167" y1="192.52558883257649" x2="156" y2="211.57814771583412" />
    <line x1="167" y1="230.63070659909181" x2="156" y2="249.68326548234944" />
    <line x1="156" y1="287.78838324886476" x2="167" y2="306.84094213212245" />
    <line x1="156" y1="325.89350101538" x2="167" y2="344.94605989863771" />
    <line x1="167" y1="78.210235533030584" x2="178" y2="97.262794416288244" />
    <line x1="167" y1="116.31535329954589" x2="178" y2="135.36791218280354" />
    <line x1="178" y1="173.47302994931886" x2="167" y2="192.52558883257649" />
    <line x1="178" y1="211.57814771583415" x2="167" y2="230.63070659909178" />
    <line x1="167" y1="268.73582436560707" x2="178" y2="287.78838324886476" />
    <polyline points="178,325.89350101538 167,344.94605989863771 178,363.9986187818954" />
    <polyline points="178,21.052558883257639 189,40.105117766515292 178,59.157676649772938" />
    <line x1="178" y1="97.26279441628823" x2="189" y2="116.31535329954589" />
    <line x1="178" y1="135.36791218280354" x2="189" y2="154.42047106606117" />
    <line x1="189" y1="192.52558883257649" x2="178" y2="211.57814771583412" />
    <line x1="189" y1="230.63070659909181" x2="178" y2="249.68326548234944" />
    <line x1="189" y1="268.73582436560707" x2="178" y2="287.78838324886476" />
    <line x1="178" y1="325.89350101538" x2="189" y2="344.94605989863771" />
    <line x1="200" y1="97.26279441628823" x2="189" y2="116.31535329954589" />
    <line x1="200" y1="135.36791218280354" x2="189" y2="154.42047106606117" />
    <line x1="189" y1="230.63070659909181" x2="200" y2="249.68326548234944" />
    <line x1="200" y1="59.157676649772945" x2="211" y2="78.2102355330306" />
    <line x1="200" y1="211.57814771583415" x2="211" y2="230.63070659909178" />
    <line x1="200" y1="287.78838324886476" x2="211" y2="306.84094213212245" />
    <polyline points="200,325.89350101538 211,344.94605989863771 200,363.9986187818954" />
    <line x1="222" y1="135.36791218280354" x2="211" y2="154.42047106606117" />
    <line x1="211" y1="154.4204710660612" x2="222" y2="173.47302994931883" />
    <line x1="222" y1="173.47302994931886" x2="211" y2="192.52558883257649" />
    <line x1="222" y1="211.57814771583415" x2="211" y2="230.63070659909178" />
    <line x1="211" y1="230.63070659909181" x2="222" y2="249.68326548234944" />
    <line x1="222" y1="287.78838324886476" x2="211" y2="306.84094213212245" />
    <line x1="211" y1="306.84094213212234" x2="222" y2="325.89350101538" />
    <line x1="222" y1="97.26279441628823" x2="233" y2="116.31535329954589" />
    <line x1="233" y1="154.4204710660612" x2="222" y2="173.47302994931883" />
    <line x1="222" y1="249.68326548234941" x2="233" y2="268.73582436560707" />
    <line x1="222" y1="287.78838324886476" x2="233" y2="306.84094213212245" />
    <line x1="222" y1="325.89350101538" x2="233" y2="344.94605989863771" />
    <line x1="244" y1="21.052558883257639" x2="233" y2="40.105117766515292" />
    <polyline points="244,97.26279441628823 233,116.31535329954589 244,135.36791218280354" />
    <line x1="244" y1="173.47302994931886" x2="233" y2="192.52558883257649" />
    <line x1="244" y1="211.57814771583415" x2="233" y2="230.63070659909178" />
    <line x1="233" y1="344.94605989863771" x2="244" y2="363.9986187818954" />
    <line x1="255" y1="78.210235533030584" x2="244" y2="97.262794416288244" />
    <line x1="244" y1="97.26279441628823" x2="255" y2="116.31535329954589" />
    <line x1="255" y1="192.52558883257649" x2="244" y2="211.57814771583412" />
    <line x1="244" y1="211.57814771583415" x2="255" y2="230.63070659909178" />
    <line x1="255" y1="230.63070659909181" x2="244" y2="249.68326548234944" />
    <line x1="244" y1="325.89350101538" x2="255" y2="344.94605989863771" />
    <line x1="255" y1="1.9999999999999911" x2="266" y2="21.052558883257639" />
    <line x1="266" y1="97.26279441628823" x2="255" y2="116.31535329954589" />
    <line x1="266" y1="173.47302994931886" x2="255" y2="192.52558883257649" />
    <line x1="266" y1="249.68326548234941" x2="255" y2="268.73582436560707" />
    <line x1="255" y1="344.94605989863771" x2="266" y2="363.9986187818954" />
    <line x1="266" y1="59.157676649772945" x2="277" y2="78.2102355330306" />
    <line x1="266" y1="173.47302994931886" x2="277" y2="192.52558883257649" />
    <line x1="277" y1="230.63070659909181" x2="266" y2="249.68326548234944" />
    <line x1="266" y1="249.68326548234941" x2="277" y2="268.73582436560707" />
    <polyline points="288,21.052558883257639 277,40.105117766515292 288,59.157676649772938" />
    <line x1="288" y1="59.157676649772945" x2="277" y2="78.2102355330306" />
    <line x1="277" y1="116.31535329954589" x2="288" y2="135.36791218280354" />
    <line x1="277" y1="154.4204710660612" x2="288" y2="173.47302994931883" />
    <line x1="288" y1="173.47302994931886" x2="277" y2="192.52558883257649" />
    <polyline points="277,306.84094213212234 288,325.89350101538 277,344.94605989863771" />
    <line x1="288" y1="135.36791218280354" x2="299" y2="154.42047106606117" />
    <line x1="288" y1="211.57814771583415" x2="299" y2="230.63070659909178" />
    <polyline points="299,268.73582436560707 288,287.78838324886476 299,306.84094213212245" />
    <line x1="299" y1="344.94605989863771" x2="288" y2="363.9986187818954" />
    <line x1="310" y1="21.052558883257639" x2="299" y2="40.105117766515292" />
    <line x1="299" y1="78.210235533030584" x2="310" y2="97.262794416288244" />
    <line x1="310" y1="97.26279441628823" x2="299" y2="116.31535329954589" />
    <line x1="310" y1="173.47302994931886" x2="299" y2="192.52558883257649" />
    <line x1="310" y1="287.78838324886476" x2="299" y2="306.84094213212245" />
    <line x1="310" y1="21.052558883257639" x2="321" y2="40.105117766515292" />
    <line x1="310" y1="59.157676649772945" x2="321" y2="78.2102355330306" />
    <line x1="310" y1="97.26279441628823" x2="321" y2="116.31535329954589" />
    <line x1="310" y1="135.36791218280354" x2="321" y2="154.42047106606117" />
    <polyline points="310,173.47302994931886 321,192.52558883257649 310,211.57814771583412" />
    <line x1="310" y1="211.57814771583415" x2="321" y2="230.63070659909178" />
    <line x1="321" y1="230.63070659909181" x2="310" y2="249.68326548234944" />
    <line x1="321" y1="116.31535329954589" x2="332" y2="135.36791218280354" />
    <line x1="321" y1="154.4204710660612" x2="332" y2="173.47302994931883" />
    <line x1="332" y1="287.78838324886476" x2="321" y2="306.84094213212245" />
    <polyline points="343,1.9999999999999911 332,21.052558883257639 343,40.105117766515292 332,59.157676649772938" />
    <line x1="332" y1="59.157676649772945" x2="343" y2="78.2102355330306" />
    <line x1="343" y1="78.210235533030584" x2="332" y2="97.262794416288244" />
    <polyline points="332,97.26279441628823 343,116.31535329954589 332,135.36791218280354 343,154.42047106606117" />
    <line x1="343" y1="154.4204710660612" x2="332" y2="173.47302994931883" />
    <polyline points="332,173.47302994931886 343,192.52558883257649 332,211.57814771583412" />
    <line x1="332" y1="211.57814771583415" x2="343" y2="230.63070659909178" />
    <line x1="343" y1="230.63070659909181" x2="332" y2="249.68326548234944" />
    <polyline points="332,249.68326548234941 343,268.73582436560707 332,287.78838324886476 343,306.84094213212245" />
    <polyline points="343,306.84094213212234 332,325.89350101538 343,344.94605989863771 332,363.9986187818954" />
  </g>
  <polyline fill="none" stroke="#ff0000" stroke-width="2" stroke-linecap="square" stroke-linejoin="round" points="178,1.9999999999999911 183.5,11.526279441628816 249.5,11.526279441628816 255,21.052558883257639 244,40.105117766515292 271.5,87.736514974659414 293.5,87.736514974659414 299,97.262794416288244 288,116.31535329954589 310,154.4204710660612 304.5,163.94675050769 293.5,163.94675050769 282.5,144.89419162443235 249.5,144.89419162443235 244,154.4204710660612 255,173.47302994931883 238.5,202.0518682742053 194.5,202.0518682742053 189,211.57814771583415 222,268.73582436560707 216.5,278.26210380723592 194.5,278.26210380723592 189,287.78838324886476 200,306.84094213212234 194.5,316.36722157375118 161.5,316.36722157375118 139.5,278.26210380723592 128.5,278.26210380723592 123,287.78838324886476 167,363.99861878189529" />
  <type>Rectangular</type>
</svg>