<?xml version="1.0" encoding="utf-8" standalone="no"?>
<!DOCTYPE svg PUBLIC "-//W3C//DTD SVG 1.1//EN" "http://www.w3.org/Graphics/SVG/1.1/DTD/svg11.dtd"[]>
<svg width="404" height="404" version="1.1" xmlns="http://www.w3.org/2000/svg">
  <title>25 cells diameter theta maze</title>
  <g fill="none" stroke="#000000" stroke-width="2" stroke-linecap="square">
    <path d="M 186.02943725152286,219.97056274847714 A 24,24 0 1,1 203,227" />
    <path d="M 187.69266270539637,166.04481869954856 A 40,40 0 0,1 239.95518130045147,187.6926627053964" />
    <path d="M 243,203 A 40,40 0 0,1 239.95518130045147,218.3073372946036" />
    <path d="M 231.2842712474619,231.2842712474619 A 40,40 0 0,1 166.04481869954853,218.3073372946036" />
    <path d="M 203,147 A 56,56 0 0,1 224.43027221244503,151.26274617936795" />
    <path d="M 242.59797974644667,163.40202025355333 A 56,56 0 0,1 254.73725382063205,181.56972778755497" />
    <path d="M 259,203 A 56,56 0 0,1 242.59797974644667,242.59797974644664" />
    <path d="M 224.43027221244503,254.73725382063205 A 56,56 0 0,1 181.56972778755494,151.26274617936795" />
    <path d="M 188.95349681483873,132.3834598109674 A 72,72 0 0,1 203,131" />
    <path d="M 217.04650318516124,132.3834598109674 A 72,72 0 0,1 253.91168824543144,152.08831175456857" />
    <path d="M 262.86581208578326,162.99894322258865 A 72,72 0 0,1 275,203" />
    <path d="M 273.61654018903261,217.04650318516124 A 72,72 0 0,1 262.86581208578326,243.00105677741135" />
    <path d="M 253.91168824543144,253.91168824543141 A 72,72 0 0,1 217.04650318516127,273.61654018903261" />
    <path d="M 188.95349681483876,273.61654018903261 A 72,72 0 0,1 175.44679286971353,269.51932634081265" />
    <path d="M 162.99894322258865,262.86581208578326 A 72,72 0 0,1 143.13418791421674,243.00105677741135" />
    <path d="M 132.3834598109674,217.04650318516127 A 72,72 0 0,1 131,203" />
    <path d="M 143.13418791421674,162.99894322258865 A 72,72 0 0,1 175.44679286971348,136.48067365918737" />
    <path d="M 203,115 A 88,88 0 0,1 220.16794833741929,116.69089532451572" />
    <path d="M 236.6761420481279,121.69860113900677 A 88,88 0 0,1 251.890180505725,129.83067411737602" />
    <path d="M 265.22539674441617,140.77460325558383 A 88,88 0 0,1 284.30139886099323,169.3238579518721" />
    <path d="M 291,203 A 88,88 0 0,1 289.30910467548426,220.16794833741929" />
    <path d="M 251.89018050572497,276.169325882624 A 88,88 0 0,1 185.83205166258071,289.30910467548426" />
    <path d="M 169.32385795187213,284.30139886099323 A 88,88 0 0,1 154.10981949427503,276.169325882624" />
    <path d="M 140.77460325558383,265.22539674441617 A 88,88 0 0,1 129.83067411737602,251.890180505725" />
    <path d="M 121.69860113900678,236.67614204812796 A 88,88 0 0,1 116.69089532451572,220.16794833741932" />
    <path d="M 115,203.00000000000003 A 88,88 0 0,1 121.69860113900677,169.32385795187207" />
    <path d="M 140.7746032555838,140.77460325558383 A 88,88 0 0,1 185.83205166258068,116.69089532451572" />
    <path d="M 182.71060651032261,100.99833083806405 A 104,104 0 0,1 203,99" />
    <path d="M 223.28939348967734,100.99833083806404 A 104,104 0 0,1 242.79907696596933,106.91652861882618" />
    <path d="M 260.77930423403865,116.52716032053529 A 104,104 0 0,1 289.4728396794647,145.22069576596135" />
    <path d="M 305.001669161936,182.71060651032266 A 104,104 0 0,1 307,203" />
    <path d="M 305.001669161936,223.28939348967734 A 104,104 0 0,1 289.47283967946476,260.77930423403859" />
    <path d="M 276.53910524340097,276.53910524340097 A 104,104 0 0,1 260.77930423403859,289.4728396794647" />
    <path d="M 242.79907696596933,299.08347138117381 A 104,104 0 0,1 223.28939348967737,305.001669161936" />
    <path d="M 203,307 A 104,104 0 0,1 163.20092303403067,299.08347138117381" />
    <path d="M 145.22069576596141,289.47283967946476 A 104,104 0 0,1 116.52716032053529,260.77930423403865" />
    <path d="M 100.99833083806404,223.28939348967737 A 104,104 0 0,1 99,203.00000000000003" />
    <path d="M 100.99833083806404,182.71060651032266 A 104,104 0 0,1 116.52716032053527,145.22069576596141" />
    <path d="M 129.46089475659903,129.46089475659909 A 104,104 0 0,1 163.20092303403061,106.91652861882621" />
    <path d="M 203,83 A 120,120 0 0,1 302.77635347630542,136.33157203764773" />
    <path d="M 313.86554390135439,157.07798811618923 A 120,120 0 0,1 323,203" />
    <path d="M 320.69423364838764,226.41083864193539 A 120,120 0 0,1 287.85281374238571,287.85281374238571" />
    <path d="M 269.66842796235227,302.77635347630542 A 120,120 0 0,1 248.9220118838108,313.86554390135439" />
    <path d="M 226.41083864193544,320.69423364838764 A 120,120 0 0,1 203.00000000000003,323" />
    <path d="M 179.58916135806459,320.69423364838764 A 120,120 0 0,1 118.14718625761431,287.85281374238571" />
    <path d="M 103.22364652369457,269.66842796235227 A 120,120 0 0,1 85.305766351612348,226.41083864193544" />
    <path d="M 92.1344560986456,157.0779881161892 A 120,120 0 0,1 118.14718625761428,118.14718625761432" />
    <path d="M 157.07798811618915,92.134456098645614 A 120,120 0 0,1 179.58916135806456,85.305766351612363" />
    <path d="M 176.46771620580648,69.613201865160676 A 136,136 0 0,1 216.33033108482024,67.654877172581223" />
    <path d="M 229.53228379419343,69.613201865160647 A 136,136 0 0,1 242.4787161066069,72.8561143404196" />
    <path d="M 255.0449468016522,77.352383578465 A 136,136 0 0,1 267.10995620833569,83.058708048623714" />
    <path d="M 278.55755169066589,89.920132726853851 A 136,136 0 0,1 289.2774866462558,97.87057834266777" />
    <path d="M 299.16652224137044,106.83347775862953 A 136,136 0 0,1 308.12942165733222,116.72251335374421" />
    <path d="M 316.07986727314614,127.4424483093341 A 136,136 0 0,1 328.64761642153496,150.9550531983478" />
    <path d="M 333.14388565958041,163.52128389339313 A 136,136 0 0,1 338.34512282741878,189.66966891517973" />
    <path d="M 339,203 A 136,136 0 0,1 336.38679813483935,229.53228379419343" />
    <path d="M 333.14388565958041,242.47871610660687 A 136,136 0 0,1 328.647616421535,255.0449468016522" />
    <path d="M 322.94129195137629,267.10995620833569 A 136,136 0 0,1 267.10995620833569,322.94129195137629" />
    <path d="M 255.04494680165223,328.64761642153496 A 136,136 0 0,1 163.52128389339316,333.14388565958041" />
    <path d="M 138.89004379166431,322.94129195137629 A 136,136 0 0,1 116.72251335374423,308.12942165733227" />
    <path d="M 97.870578342667812,289.27748664625585 A 136,136 0 0,1 77.352383578465037,255.04494680165229" />
    <path d="M 72.8561143404196,242.4787161066069 A 136,136 0 0,1 67.654877172581223,216.33033108482022" />
    <path d="M 67.654877172581223,189.66966891517984 A 136,136 0 0,1 83.058708048623714,138.89004379166431" />
    <path d="M 89.920132726853822,127.44244830933414 A 136,136 0 0,1 97.870578342667784,116.72251335374421" />
    <path d="M 116.72251335374415,97.870578342667827 A 136,136 0 0,1 127.4424483093341,89.920132726853851" />
    <path d="M 138.89004379166428,83.058708048623743 A 136,136 0 0,1 150.95505319834771,77.352383578465037" />
    <path d="M 188.1013946699068,51.731921545826083 A 152,152 0 0,1 203,51" />
    <path d="M 217.8986053300932,51.731921545826083 A 152,152 0 0,1 261.16788171949366,62.5703110582844" />
    <path d="M 299.42777919287414,85.50241108886398 A 152,152 0 0,1 310.48023074035524,95.519769259644775" />
    <path d="M 320.497588911136,106.57222080712587 A 152,152 0 0,1 337.05203218094994,131.34769600244835" />
    <path d="M 343.4296889417156,144.83211828050634 A 152,152 0 0,1 352.079362621291,173.34627105354849" />
    <path d="M 348.45493103129576,247.12327094267826 A 152,152 0 0,1 343.4296889417156,261.16788171949361" />
    <path d="M 310.48023074035524,310.48023074035518 A 152,152 0 0,1 299.42777919287414,320.497588911136" />
    <path d="M 287.44667541897951,329.38338106998685 A 152,152 0 0,1 247.12327094267829,348.45493103129576" />
    <path d="M 188.1013946699068,354.26807845417392 A 152,152 0 0,1 173.34627105354849,352.079362621291" />
    <path d="M 158.87672905732177,348.45493103129576 A 152,152 0 0,1 144.83211828050636,343.4296889417156" />
    <path d="M 106.57222080712592,320.49758891113606 A 152,152 0 0,1 85.502411088864022,299.42777919287414" />
    <path d="M 76.616618930013118,287.44667541897951 A 152,152 0 0,1 68.947967819050064,274.65230399755171" />
    <path d="M 57.545068968704243,247.12327094267829 A 152,152 0 0,1 51.731921545826083,217.89860533009318" />
    <path d="M 51,203.00000000000003 A 152,152 0 0,1 51.731921545826054,188.10139466990688" />
    <path d="M 53.92063737870896,173.34627105354849 A 152,152 0 0,1 62.570311058284432,144.83211828050634" />
    <path d="M 68.947967819050035,131.34769600244837 A 152,152 0 0,1 76.61661893001309,118.55332458102052" />
    <path d="M 85.502411088864,106.57222080712587 A 152,152 0 0,1 106.57222080712582,85.502411088864037" />
    <path d="M 118.55332458102046,76.616618930013118 A 152,152 0 0,1 173.34627105354844,53.920637378708989" />
    <path d="M 203,35 A 168,168 0 0,1 235.77517409870956,38.228072892257273" />
    <path d="M 267.29081663733507,47.788238538103826 A 168,168 0 0,1 309.57807173949243,73.134243835060175" />
    <path d="M 321.79393923934,84.206060760660009 A 168,168 0 0,1 342.68689486682763,109.66420085270683" />
    <path d="M 351.16277241052364,123.80534821323238 A 168,168 0 0,1 358.21176146189617,138.70918336266493" />
    <path d="M 370.19103408092906,219.46687957536619 A 168,168 0 0,1 342.68689486682763,296.33579914729313" />
    <path d="M 309.57807173949243,332.86575616493985 A 168,168 0 0,1 282.19465178676762,351.16277241052364" />
    <path d="M 267.29081663733507,358.21176146189617 A 168,168 0 0,1 235.77517409870961,367.77192710774273" />
    <path d="M 203.00000000000003,371 A 168,168 0 0,1 154.23217422125038,363.76597640301111" />
    <path d="M 123.80534821323241,351.16277241052364 A 168,168 0 0,1 63.3131051331724,296.33579914729319" />
    <path d="M 47.788238538103855,267.29081663733518 A 168,168 0 0,1 38.2280728922573,235.77517409870961" />
    <path d="M 35.808965919070914,219.46687957536616 A 168,168 0 0,1 38.228072892257273,170.22482590129044" />
    <path d="M 47.788238538103855,138.70918336266487 A 168,168 0 0,1 54.837227589476356,123.80534821323241" />
    <path d="M 73.1342438350602,96.421928260507542 A 168,168 0 0,1 84.20606076066,84.206060760660037" />
    <path d="M 109.66420085270683,63.3131051331724 A 168,168 0 0,1 123.80534821323235,54.837227589476385" />
    <path d="M 138.70918336266482,47.788238538103855 A 168,168 0 0,1 170.22482590129039,38.2280728922573" />
    <path d="M 184.96484617936088,19.886010292315774 A 184,184 0 0,1 203,19" />
    <path d="M 221.03515382063915,19.886010292315774 A 184,184 0 0,1 289.73699957598353,40.726487359902677" />
    <path d="M 305.22492287560681,50.009591336331681 A 184,184 0 0,1 365.27351264009735,116.26300042401641" />
    <path d="M 379.0770217747264,149.58761938517893 A 184,184 0 0,1 383.46449159419444,167.1033807490324" />
    <path d="M 386.11398970768425,221.03515382063915 A 184,184 0 0,1 379.0770217747264,256.412380614821" />
    <path d="M 372.99383398207681,273.41375155517653 A 184,184 0 0,1 345.23392341874364,319.72836428611072" />
    <path d="M 333.10764773832477,333.10764773832477 A 184,184 0 0,1 319.72836428611078,345.23392341874364" />
    <path d="M 305.22492287560681,355.99040866366835 A 184,184 0 0,1 273.41375155517653,372.99383398207675" />
    <path d="M 256.41238061482107,379.0770217747264 A 184,184 0 0,1 203.00000000000003,387" />
    <path d="M 184.96484617936085,386.11398970768425 A 184,184 0 0,1 167.1033807490324,383.46449159419444" />
    <path d="M 149.58761938517898,379.0770217747264 A 184,184 0 0,1 60.76607658125647,319.72836428611083" />
    <path d="M 33.006166017923277,273.41375155517665 A 184,184 0 0,1 50.009591336331624,100.77507712439326" />
    <path d="M 86.271635713889154,60.76607658125647 A 184,184 0 0,1 116.26300042401638,40.726487359902706" />
    <path d="M 132.58624844482335,33.006166017923277 A 184,184 0 0,1 167.10338074903231,22.535508405805615" />
    <path d="M 222.60342806591211,3.9630546655606338 A 200,200 0 1,1 203,3" />
  </g>
  <g fill="none" stroke="#000000" stroke-width="2" stroke-linecap="butt">
    <line x1="203" y1="35" x2="203" y2="51" />
    <line x1="203" y1="99" x2="203" y2="115" />
    <line x1="203" y1="131" x2="203" y2="163" />
    <line x1="221.03515382063915" y1="19.886010292315774" x2="219.46687957536619" y2="35.808965919070914" />
    <line x1="235.77517409870956" y1="38.228072892257273" x2="232.65372894645151" y2="53.920637378708989" />
    <line x1="229.53228379419343" y1="69.613201865160647" x2="223.28939348967734" y2="100.99833083806404" />
    <line x1="220.16794833741929" y1="116.69089532451572" x2="217.04650318516124" y2="132.3834598109674" />
    <line x1="256.41238061482107" y1="26.922978225273567" x2="251.76782577874968" y2="42.234023596988919" />
    <line x1="267.29081663733507" y1="47.788238538103826" x2="255.0449468016522" y2="77.352383578465009" />
    <line x1="274.65230399755166" y1="68.947967819050035" x2="267.10995620833569" y2="83.058708048623714" />
    <line x1="305.22492287560681" y1="50.009591336331681" x2="278.55755169066589" y2="89.920132726853851" />
    <line x1="260.77930423403865" y1="116.5271603205353" x2="251.890180505725" y2="129.83067411737602" />
    <line x1="309.57807173949243" y1="73.134243835060175" x2="299.42777919287414" y2="85.50241108886398" />
    <line x1="310.48023074035518" y1="95.519769259644775" x2="287.85281374238571" y2="118.14718625761429" />
    <line x1="265.22539674441617" y1="140.77460325558383" x2="242.59797974644664" y2="163.40202025355333" />
    <line x1="357.60209067254743" y1="76.121343167270908" x2="345.23392341874364" y2="86.271635713889225" />
    <line x1="355.99040866366829" y1="100.77507712439318" x2="342.68689486682763" y2="109.66420085270681" />
    <line x1="329.38338106998685" y1="118.55332458102045" x2="316.07986727314614" y2="127.44244830933408" />
    <line x1="289.4728396794647" y1="145.22069576596135" x2="276.169325882624" y2="154.109819494275" />
    <line x1="372.99383398207675" y1="132.58624844482347" x2="328.64761642153496" y2="150.9550531983478" />
    <line x1="299.08347138117381" y1="163.20092303403067" x2="284.30139886099323" y2="169.3238579518721" />
    <line x1="269.51932634081265" y1="175.44679286971353" x2="254.73725382063205" y2="181.56972778755497" />
    <line x1="394.38806714644181" y1="144.94306454910753" x2="363.76597640301111" y2="154.23217422125032" />
    <line x1="348.45493103129576" y1="158.87672905732171" x2="333.14388565958041" y2="163.52128389339313" />
    <line x1="367.77192710774273" y1="170.22482590129044" x2="352.079362621291" y2="173.34627105354849" />
    <line x1="336.38679813483935" y1="176.46771620580654" x2="320.69423364838764" y2="179.58916135806459" />
    <line x1="305.001669161936" y1="182.71060651032266" x2="273.61654018903261" y2="188.95349681483876" />
    <line x1="402.03694533443934" y1="183.39657193408783" x2="370.19103408092906" y2="186.53312042463378" />
    <line x1="354.26807845417392" y1="188.10139466990677" x2="338.34512282741878" y2="189.66966891517973" />
    <line x1="387" y1="203" x2="291" y2="203" />
    <line x1="259" y1="203" x2="227" y2="203" />
    <line x1="386.11398970768425" y1="221.03515382063915" x2="354.268078454174" y2="217.89860533009323" />
    <line x1="367.77192710774273" y1="235.77517409870953" x2="352.079362621291" y2="232.65372894645148" />
    <line x1="289.30910467548426" y1="220.16794833741929" x2="273.61654018903261" y2="217.04650318516124" />
    <line x1="394.38806714644181" y1="261.05693545089241" x2="379.0770217747264" y2="256.412380614821" />
    <line x1="343.4296889417156" y1="261.16788171949361" x2="313.86554390135439" y2="248.92201188381077" />
    <line x1="299.08347138117381" y1="242.79907696596933" x2="284.30139886099323" y2="236.6761420481279" />
    <line x1="269.51932634081265" y1="230.55320713028647" x2="254.73725382063205" y2="224.43027221244503" />
    <line x1="365.27351264009735" y1="289.73699957598359" x2="337.05203218094994" y2="274.65230399755166" />
    <line x1="342.68689486682763" y1="296.33579914729313" x2="329.38338106998691" y2="287.44667541897951" />
    <line x1="289.47283967946476" y1="260.77930423403859" x2="262.86581208578326" y2="243.00105677741135" />
    <line x1="345.23392341874364" y1="319.72836428611072" x2="332.86575616493985" y2="309.57807173949243" />
    <line x1="320.49758891113606" y1="299.42777919287408" x2="308.12942165733227" y2="289.27748664625574" />
    <line x1="344.42135623730951" y1="344.42135623730951" x2="321.79393923934" y2="321.79393923934" />
    <line x1="310.48023074035524" y1="310.48023074035518" x2="287.85281374238571" y2="287.85281374238571" />
    <line x1="276.53910524340097" y1="276.53910524340097" x2="253.91168824543144" y2="253.91168824543144" />
    <line x1="309.57807173949243" y1="332.86575616493985" x2="299.42777919287414" y2="320.497588911136" />
    <line x1="314.11404660392043" y1="369.29392246050907" x2="305.22492287560681" y2="355.99040866366835" />
    <line x1="269.66842796235227" y1="302.77635347630542" x2="260.77930423403865" y2="289.4728396794647" />
    <line x1="282.19465178676762" y1="351.16277241052364" x2="274.65230399755166" y2="337.05203218094994" />
    <line x1="248.9220118838108" y1="313.86554390135439" x2="236.6761420481279" y2="284.30139886099323" />
    <line x1="230.55320713028647" y1="269.51932634081265" x2="224.43027221244503" y2="254.73725382063205" />
    <line x1="251.76782577874968" y1="363.76597640301111" x2="247.12327094267829" y2="348.4549310312957" />
    <line x1="235.77517409870961" y1="367.77192710774273" x2="229.53228379419349" y2="336.38679813483935" />
    <line x1="221.03515382063918" y1="386.11398970768425" x2="217.89860533009323" y2="354.26807845417392" />
    <line x1="203.00000000000003" y1="387" x2="203.00000000000003" y2="339" />
    <line x1="203.00000000000003" y1="323" x2="203" y2="307" />
    <line x1="203" y1="291" x2="203" y2="275" />
    <line x1="203" y1="243" x2="203" y2="227" />
    <line x1="186.53312042463381" y1="370.19103408092906" x2="188.1013946699068" y2="354.268078454174" />
    <line x1="163.98193559677432" y1="399.1570560806461" x2="167.1033807490324" y2="383.46449159419438" />
    <line x1="176.46771620580654" y1="336.38679813483935" x2="182.71060651032266" y2="305.001669161936" />
    <line x1="154.23217422125038" y1="363.76597640301111" x2="158.87672905732177" y2="348.45493103129576" />
    <line x1="132.5862484448235" y1="372.99383398207681" x2="138.70918336266493" y2="358.21176146189623" />
    <line x1="144.83211828050636" y1="343.4296889417156" x2="150.9550531983478" y2="328.647616421535" />
    <line x1="163.20092303403067" y1="299.08347138117381" x2="169.3238579518721" y2="284.30139886099323" />
    <line x1="175.44679286971353" y1="269.51932634081265" x2="181.56972778755497" y2="254.73725382063208" />
    <line x1="108.72065263480047" y1="379.384252869671" x2="116.26300042401644" y2="365.27351264009735" />
    <line x1="123.80534821323239" y1="351.16277241052364" x2="138.89004379166431" y2="322.94129195137629" />
    <line x1="109.66420085270687" y1="342.68689486682763" x2="118.55332458102051" y2="329.38338106998691" />
    <line x1="136.33157203764776" y1="302.77635347630547" x2="145.22069576596141" y2="289.47283967946476" />
    <line x1="154.10981949427503" y1="276.169325882624" x2="162.99894322258865" y2="262.86581208578326" />
    <line x1="86.271635713889268" y1="345.23392341874364" x2="96.4219282605076" y2="332.86575616493985" />
    <line x1="106.57222080712592" y1="320.49758891113606" x2="116.72251335374425" y2="308.12942165733227" />
    <line x1="106.83347775862954" y1="299.1665222413705" x2="118.14718625761431" y2="287.85281374238571" />
    <line x1="85.502411088864022" y1="299.4277791928742" x2="97.870578342667812" y2="289.27748664625585" />
    <line x1="50.009591336331681" y1="305.22492287560681" x2="76.616618930013118" y2="287.44667541897957" />
    <line x1="103.22364652369457" y1="269.66842796235227" x2="116.5271603205353" y2="260.77930423403865" />
    <line x1="129.83067411737602" y1="251.890180505725" x2="143.13418791421674" y2="243.00105677741135" />
    <line x1="40.726487359902706" y1="289.73699957598359" x2="68.947967819050064" y2="274.65230399755166" />
    <line x1="47.788238538103855" y1="267.29081663733518" x2="77.352383578465037" y2="255.04494680165229" />
    <line x1="92.134456098645614" y1="248.92201188381085" x2="121.69860113900678" y2="236.67614204812796" />
    <line x1="136.48067365918737" y1="230.5532071302865" x2="166.04481869954856" y2="218.3073372946036" />
    <line x1="22.535508405805615" y1="238.89661925096766" x2="53.920637378708989" y2="232.65372894645157" />
    <line x1="69.613201865160676" y1="229.53228379419349" x2="85.305766351612363" y2="226.41083864193544" />
    <line x1="51.731921545826054" y1="217.89860533009318" x2="67.654877172581223" y2="216.33033108482022" />
    <line x1="67" y1="203.00000000000003" x2="147" y2="203" />
    <line x1="163" y1="203" x2="179" y2="203" />
    <line x1="51.731921545826054" y1="188.10139466990688" x2="67.654877172581223" y2="189.66966891517984" />
    <line x1="38.228072892257273" y1="170.22482590129044" x2="53.920637378708989" y2="173.34627105354849" />
    <line x1="85.305766351612348" y1="179.58916135806462" x2="100.99833083806404" y2="182.71060651032266" />
    <line x1="116.69089532451572" y1="185.83205166258071" x2="132.3834598109674" y2="188.95349681483876" />
    <line x1="26.922978225273567" y1="149.58761938517898" x2="57.545068968704243" y2="158.87672905732177" />
    <line x1="77.352383578465023" y1="150.95505319834777" x2="92.1344560986456" y2="157.0779881161892" />
    <line x1="106.91652861882619" y1="163.20092303403064" x2="121.69860113900678" y2="169.32385795187207" />
    <line x1="136.48067365918735" y1="175.44679286971353" x2="166.04481869954853" y2="187.6926627053964" />
    <line x1="54.837227589476356" y1="123.80534821323241" x2="68.947967819050035" y2="131.34769600244837" />
    <line x1="50.009591336331624" y1="100.77507712439326" x2="89.920132726853822" y2="127.44244830933415" />
    <line x1="129.83067411737602" y1="154.10981949427503" x2="143.13418791421674" y2="162.99894322258865" />
    <line x1="48.397909327452624" y1="76.121343167270879" x2="73.1342438350602" y2="96.421928260507542" />
    <line x1="72.892352261675228" y1="72.892352261675285" x2="84.20606076066" y2="84.206060760660051" />
    <line x1="95.519769259644747" y1="95.5197692596448" x2="118.14718625761428" y2="118.14718625761432" />
    <line x1="129.46089475659903" y1="129.46089475659909" x2="140.7746032555838" y2="140.77460325558383" />
    <line x1="174.7157287525381" y1="174.7157287525381" x2="186.02943725152286" y2="186.02943725152286" />
    <line x1="76.121343167270808" y1="48.39790932745268" x2="106.57222080712582" y2="85.502411088864022" />
    <line x1="109.66420085270684" y1="63.3131051331724" x2="145.22069576596138" y2="116.5271603205353" />
    <line x1="132.58624844482335" y1="33.006166017923277" x2="138.70918336266482" y2="47.788238538103855" />
    <line x1="150.95505319834771" y1="77.352383578465037" x2="157.07798811618915" y2="92.134456098645614" />
    <line x1="169.32385795187204" y1="121.69860113900678" x2="175.44679286971348" y2="136.48067365918737" />
    <line x1="181.56972778755494" y1="151.26274617936795" x2="187.69266270539637" y2="166.04481869954856" />
    <line x1="158.87672905732171" y1="57.545068968704271" x2="163.5212838933931" y2="72.8561143404196" />
    <line x1="163.98193559677426" y1="6.8429439193539281" x2="167.10338074903231" y2="22.535508405805615" />
    <line x1="170.22482590129039" y1="38.2280728922573" x2="173.34627105354844" y2="53.920637378708989" />
    <line x1="176.46771620580648" y1="69.613201865160676" x2="182.71060651032261" y2="100.99833083806405" />
    <line x1="185.83205166258068" y1="116.69089532451574" x2="188.95349681483873" y2="132.38345981096742" />
    <line x1="184.96484617936088" y1="19.886010292315774" x2="188.1013946699068" y2="51.731921545826054" />
  </g>
  <path fill="none" stroke="#ff0000" stroke-width="2" stroke-linecap="square" stroke-linejoin="round" d="M 212.8135348654836,3.2409087589655314 L 212.42099347086426,11.231272408606912 A 192,192 0 0,0 174.82774890457043,13.078110086762081 L 181.87081167842783,60.558582565071561 A 144,144 0 0,0 168.01085409392996,63.315499539985666 L 171.89853697238218,78.835999591098371 A 128,128 0 0,0 159.87809876579584,82.482359656573337 L 154.48786111152032,67.417654613645 A 144,144 0 0,0 128.96920483617606,79.48708015996084 L 137.19484874326759,93.210737919965183 A 128,128 0 0,1 142.66121768627227,90.114078163410582 L 150.20356547548823,104.22481839298426 A 112,112 0 0,1 170.48811614750019,95.822682397992608 L 175.13267098357159,111.13372776970795 A 96,96 0 0,1 193.59035452836218,107.4622662394691 L 195.15862877363517,123.38522186622424 A 80,80 0 0,1 210.84137122636486,123.38522186622424 L 209.27309698109187,139.30817749297938 A 64,64 0 0,1 238.55649491325454,149.7859448126371 L 229.66737118494092,163.08945860947785 A 48,48 0 0,1 250.07769345935506,193.63566454322583 L 234.38512897290337,196.75710969548391 A 32,32 0 0,0 185.22175254337273,176.39297240631856 L 176.33262881505908,163.08945860947785 A 48,48 0 0,0 163.08945860947782,176.33262881505911 L 176.39297240631854,185.22175254337273 A 32,32 0 0,0 171.61487102709663,196.75710969548391 L 155.92230654064494,193.63566454322583 A 48,48 0 0,0 155.92230654064494,212.36433545677417 L 171.61487102709663,209.24289030451612 A 32,32 0 0,0 190.75413016431713,232.56414504036118 L 193.81559762323786,225.17310878027089" />
  <type>Circular</type>
</svg>