<?xml version="1.0" encoding="utf-8" standalone="no"?>
<!DOCTYPE svg PUBLIC "-//W3C//DTD SVG 1.1//EN" "http://www.w3.org/Graphics/SVG/1.1/DTD/svg11.dtd"[]>
<svg width="404" height="404" version="1.1" xmlns="http://www.w3.org/2000/svg">
  <title>25 cells diameter theta maze</title>
  <g fill="none" stroke="#000000" stroke-width="2" stroke-linecap="square">
    <path d="M 186.02943725152286,219.97056274847714 A 24,24 0 1,1 203,227" />
    <path d="M 218.3073372946036,166.04481869954853 A 40,40 0 0,1 239.95518130045147,187.6926627053964" />
    <path d="M 243,203 A 40,40 0 0,1 239.95518130045147,218.3073372946036" />
    <path d="M 231.2842712474619,231.2842712474619 A 40,40 0 0,1 187.6926627053964,239.95518130045147" />
    <path d="M 163,203 A 40,40 0 0,1 174.7157287525381,174.7157287525381" />
    <path d="M 254.73725382063205,181.56972778755497 A 56,56 0 0,1 242.59797974644667,242.59797974644664" />
    <path d="M 181.569727787555,254.73725382063208 A 56,56 0 0,1 163.40202025355336,242.59797974644667" />
    <path d="M 151.26274617936795,224.43027221244506 A 56,56 0 0,1 147,203" />
    <path d="M 163.40202025355333,163.40202025355336 A 56,56 0 0,1 181.56972778755494,151.26274617936795" />
    <path d="M 175.44679286971348,136.48067365918737 A 72,72 0 0,1 217.04650318516124,132.3834598109674" />
    <path d="M 243.00105677741135,143.13418791421674 A 72,72 0 0,1 262.86581208578326,162.99894322258865" />
    <path d="M 269.51932634081265,175.44679286971353 A 72,72 0 0,1 273.61654018903261,188.95349681483876" />
    <path d="M 275,203 A 72,72 0 0,1 243.00105677741135,262.86581208578326" />
    <path d="M 188.95349681483876,273.61654018903261 A 72,72 0 0,1 162.99894322258865,262.86581208578326" />
    <path d="M 143.13418791421674,243.00105677741135 A 72,72 0 0,1 132.3834598109674,217.04650318516127" />
    <path d="M 131,203 A 72,72 0 0,1 132.3834598109674,188.95349681483876" />
    <path d="M 136.48067365918735,175.44679286971353 A 72,72 0 0,1 143.13418791421674,162.99894322258865" />
    <path d="M 152.08831175456857,152.08831175456859 A 72,72 0 0,1 162.99894322258865,143.13418791421674" />
    <path d="M 203,115 A 88,88 0 0,1 265.22539674441617,140.77460325558383" />
    <path d="M 284.30139886099323,169.3238579518721 A 88,88 0 0,1 291,203" />
    <path d="M 289.30910467548426,220.16794833741929 A 88,88 0 0,1 284.30139886099323,236.6761420481279" />
    <path d="M 276.169325882624,251.89018050572497 A 88,88 0 0,1 251.89018050572497,276.169325882624" />
    <path d="M 220.16794833741932,289.30910467548426 A 88,88 0 0,1 203,291" />
    <path d="M 169.32385795187213,284.30139886099323 A 88,88 0 0,1 140.77460325558383,265.22539674441617" />
    <path d="M 121.69860113900678,236.67614204812796 A 88,88 0 0,1 116.69089532451572,220.16794833741932" />
    <path d="M 116.69089532451572,185.83205166258071 A 88,88 0 0,1 121.69860113900677,169.32385795187207" />
    <path d="M 129.830674117376,154.10981949427503 A 88,88 0 0,1 140.7746032555838,140.77460325558383" />
    <path d="M 154.109819494275,129.83067411737602 A 88,88 0 0,1 185.83205166258068,116.69089532451572" />
    <path d="M 182.71060651032261,100.99833083806405 A 104,104 0 0,1 223.28939348967734,100.99833083806404" />
    <path d="M 276.53910524340097,129.46089475659906 A 104,104 0 0,1 299.08347138117381,163.20092303403067" />
    <path d="M 305.001669161936,182.71060651032266 A 104,104 0 0,1 305.001669161936,223.28939348967734" />
    <path d="M 299.08347138117381,242.79907696596933 A 104,104 0 0,1 289.47283967946476,260.77930423403859" />
    <path d="M 260.77930423403859,289.4728396794647 A 104,104 0 0,1 223.28939348967737,305.001669161936" />
    <path d="M 203,307 A 104,104 0 0,1 163.20092303403067,299.08347138117381" />
    <path d="M 129.46089475659909,276.53910524340097 A 104,104 0 0,1 100.99833083806404,182.71060651032266" />
    <path d="M 129.46089475659903,129.46089475659909 A 104,104 0 0,1 145.22069576596135,116.5271603205353" />
    <path d="M 103.22364652369454,136.33157203764779 A 120,120 0 0,1 248.92201188381077,92.134456098645586" />
    <path d="M 269.66842796235227,103.22364652369457 A 120,120 0 0,1 287.85281374238571,118.14718625761429" />
    <path d="M 313.86554390135439,157.07798811618923 A 120,120 0 0,1 323,203" />
    <path d="M 320.69423364838764,226.41083864193539 A 120,120 0 0,1 203.00000000000003,323" />
    <path d="M 157.07798811618926,313.86554390135439 A 120,120 0 0,1 136.33157203764779,302.77635347630547" />
    <path d="M 118.14718625761431,287.85281374238571 A 120,120 0 0,1 83,203.00000000000003" />
    <path d="M 203,67 A 136,136 0 0,1 216.33033108482024,67.654877172581223" />
    <path d="M 242.4787161066069,72.8561143404196 A 136,136 0 0,1 278.55755169066589,89.920132726853851" />
    <path d="M 299.16652224137044,106.83347775862953 A 136,136 0 0,1 316.07986727314614,127.4424483093341" />
    <path d="M 322.94129195137629,138.89004379166431 A 136,136 0 0,1 333.14388565958041,163.52128389339313" />
    <path d="M 338.34512282741878,189.66966891517973 A 136,136 0 0,1 339,203" />
    <path d="M 338.34512282741878,216.33033108482024 A 136,136 0 0,1 316.07986727314619,278.55755169066589" />
    <path d="M 308.12942165733227,289.27748664625574 A 136,136 0 0,1 289.2774866462558,308.12942165733222" />
    <path d="M 278.55755169066589,316.07986727314619 A 136,136 0 0,1 267.10995620833569,322.94129195137629" />
    <path d="M 242.4787161066069,333.14388565958041 A 136,136 0 0,1 216.33033108482027,338.34512282741878" />
    <path d="M 203.00000000000003,339 A 136,136 0 0,1 189.66966891517976,338.34512282741878" />
    <path d="M 176.46771620580654,336.38679813483935 A 136,136 0 0,1 163.52128389339316,333.14388565958041" />
    <path d="M 150.9550531983478,328.647616421535 A 136,136 0 0,1 138.89004379166431,322.94129195137629" />
    <path d="M 127.44244830933414,316.07986727314619 A 136,136 0 0,1 89.920132726853836,278.55755169066589" />
    <path d="M 83.058708048623728,267.10995620833569 A 136,136 0 0,1 69.613201865160676,229.53228379419349" />
    <path d="M 67.654877172581223,216.33033108482022 A 136,136 0 0,1 67.654877172581223,189.66966891517984" />
    <path d="M 69.613201865160647,176.46771620580654 A 136,136 0 0,1 72.8561143404196,163.52128389339316" />
    <path d="M 83.058708048623714,138.89004379166431 A 136,136 0 0,1 97.870578342667784,116.72251335374421" />
    <path d="M 106.83347775862951,106.83347775862956 A 136,136 0 0,1 116.72251335374415,97.870578342667827" />
    <path d="M 127.4424483093341,89.920132726853851 A 136,136 0 0,1 189.66966891517978,67.654877172581223" />
    <path d="M 232.65372894645151,53.92063737870896 A 152,152 0 0,1 247.12327094267829,57.545068968704243" />
    <path d="M 261.16788171949366,62.5703110582844 A 152,152 0 0,1 274.65230399755166,68.947967819050035" />
    <path d="M 299.42777919287414,85.50241108886398 A 152,152 0 0,1 310.48023074035524,95.519769259644775" />
    <path d="M 320.497588911136,106.57222080712587 A 152,152 0 0,1 352.079362621291,173.34627105354849" />
    <path d="M 354.26807845417392,188.10139466990677 A 152,152 0 0,1 355,203" />
    <path d="M 348.45493103129576,247.12327094267826 A 152,152 0 0,1 343.4296889417156,261.16788171949361" />
    <path d="M 337.05203218094994,274.65230399755166 A 152,152 0 0,1 310.48023074035524,310.48023074035518" />
    <path d="M 299.42777919287414,320.497588911136 A 152,152 0 0,1 247.12327094267829,348.45493103129576" />
    <path d="M 232.65372894645154,352.079362621291 A 152,152 0 0,1 203.00000000000003,355" />
    <path d="M 188.1013946699068,354.26807845417392 A 152,152 0 0,1 131.34769600244835,337.05203218094994" />
    <path d="M 106.57222080712592,320.49758891113606 A 152,152 0 0,1 85.502411088864022,299.42777919287414" />
    <path d="M 76.616618930013118,287.44667541897951 A 152,152 0 0,1 68.947967819050064,274.65230399755171" />
    <path d="M 62.57031105828446,261.16788171949372 A 152,152 0 0,1 57.545068968704243,247.12327094267829" />
    <path d="M 53.920637378708989,232.65372894645157 A 152,152 0 0,1 53.92063737870896,173.34627105354849" />
    <path d="M 57.545068968704243,158.87672905732177 A 152,152 0 0,1 62.570311058284432,144.83211828050634" />
    <path d="M 68.947967819050035,131.34769600244837 A 152,152 0 0,1 76.61661893001309,118.55332458102052" />
    <path d="M 85.502411088864,106.57222080712587 A 152,152 0 0,1 95.519769259644747,95.5197692596448" />
    <path d="M 118.55332458102046,76.616618930013118 A 152,152 0 0,1 144.83211828050625,62.57031105828446" />
    <path d="M 158.87672905732171,57.545068968704271 A 152,152 0 0,1 188.1013946699068,51.731921545826083" />
    <path d="M 170.22482590129039,38.2280728922573 A 168,168 0 0,1 251.76782577874968,42.234023596988919" />
    <path d="M 282.19465178676762,54.837227589476356 A 168,168 0 0,1 309.57807173949243,73.134243835060175" />
    <path d="M 321.79393923934,84.206060760660009 A 168,168 0 0,1 332.8657561649398,96.421928260507556" />
    <path d="M 342.68689486682763,109.66420085270683 A 168,168 0 0,1 358.21176146189617,138.70918336266493" />
    <path d="M 363.76597640301111,154.23217422125032 A 168,168 0 0,1 370.19103408092906,219.46687957536619" />
    <path d="M 367.77192710774273,235.77517409870953 A 168,168 0 0,1 332.86575616493985,309.57807173949243" />
    <path d="M 321.79393923934,321.79393923934 A 168,168 0 0,1 309.57807173949243,332.86575616493985" />
    <path d="M 251.76782577874968,363.76597640301111 A 168,168 0 0,1 170.22482590129044,367.77192710774273" />
    <path d="M 138.70918336266493,358.21176146189617 A 168,168 0 0,1 123.80534821323241,351.16277241052364" />
    <path d="M 73.134243835060232,309.57807173949249 A 168,168 0 0,1 42.234023596988919,251.76782577874968" />
    <path d="M 38.2280728922573,235.77517409870961 A 168,168 0 0,1 35.808965919070914,219.46687957536616" />
    <path d="M 35,203.00000000000003 A 168,168 0 0,1 35.808965919070914,186.53312042463392" />
    <path d="M 38.228072892257273,170.22482590129044 A 168,168 0 0,1 42.234023596988891,154.23217422125038" />
    <path d="M 84.20606076066,84.206060760660037 A 168,168 0 0,1 109.66420085270683,63.3131051331724" />
    <path d="M 123.80534821323235,54.837227589476385 A 168,168 0 0,1 138.70918336266482,47.788238538103855" />
    <path d="M 116.26300042401638,40.726487359902706 A 184,184 0 0,1 256.41238061482107,26.922978225273567" />
    <path d="M 333.10764773832477,72.892352261675256 A 184,184 0 0,1 355.99040866366829,100.77507712439318" />
    <path d="M 383.46449159419444,238.8966192509676 A 184,184 0 0,1 379.0770217747264,256.412380614821" />
    <path d="M 372.99383398207681,273.41375155517653 A 184,184 0 0,1 355.99040866366835,305.22492287560675" />
    <path d="M 345.23392341874364,319.72836428611072 A 184,184 0 0,1 305.22492287560681,355.99040866366835" />
    <path d="M 273.41375155517653,372.99383398207675 A 184,184 0 0,1 256.41238061482107,379.0770217747264" />
    <path d="M 238.89661925096766,383.46449159419438 A 184,184 0 0,1 149.58761938517898,379.0770217747264" />
    <path d="M 116.26300042401644,365.27351264009735 A 184,184 0 0,1 33.006166017923277,273.41375155517665" />
    <path d="M 19.886010292315774,184.96484617936093 A 184,184 0 0,1 22.535508405805587,167.1033807490324" />
    <path d="M 26.922978225273539,149.58761938517898 A 184,184 0 0,1 86.271635713889154,60.76607658125647" />
    <path d="M 222.60342806591211,3.9630546655606338 A 200,200 0 1,1 203,3" />
  </g>
  <g fill="none" stroke="#000000" stroke-width="2" stroke-linecap="butt">
    <line x1="203" y1="51" x2="203" y2="67" />
    <line x1="203" y1="147" x2="203" y2="179" />
    <line x1="219.46687957536619" y1="35.808965919070914" x2="216.33033108482024" y2="67.654877172581223" />
    <line x1="232.65372894645151" y1="53.920637378708989" x2="229.53228379419343" y2="69.613201865160647" />
    <line x1="256.41238061482107" y1="26.922978225273567" x2="247.12327094267829" y2="57.545068968704271" />
    <line x1="279.53668647301794" y1="18.224093497742643" x2="218.3073372946036" y2="166.04481869954853" />
    <line x1="297.27934736519956" y1="26.615747130328998" x2="289.73699957598353" y2="40.726487359902677" />
    <line x1="305.22492287560681" y1="50.009591336331681" x2="296.33579914729319" y2="63.3131051331724" />
    <line x1="287.44667541897957" y1="76.616618930013118" x2="278.55755169066589" y2="89.920132726853851" />
    <line x1="260.77930423403865" y1="116.5271603205353" x2="251.890180505725" y2="129.83067411737602" />
    <line x1="329.87865683272912" y1="48.397909327452595" x2="289.2774866462558" y2="97.87057834266777" />
    <line x1="310.48023074035518" y1="95.519769259644775" x2="299.16652224137044" y2="106.83347775862953" />
    <line x1="287.85281374238571" y1="118.14718625761429" x2="276.53910524340097" y2="129.46089475659903" />
    <line x1="253.91168824543144" y1="152.08831175456857" x2="242.59797974644664" y2="163.40202025355333" />
    <line x1="345.23392341874364" y1="86.271635713889225" x2="320.497588911136" y2="106.57222080712589" />
    <line x1="355.99040866366829" y1="100.77507712439318" x2="342.68689486682763" y2="109.66420085270681" />
    <line x1="316.07986727314614" y1="127.44244830933408" x2="262.86581208578326" y2="162.99894322258865" />
    <line x1="379.384252869671" y1="108.72065263480044" x2="365.27351264009729" y2="116.2630004240164" />
    <line x1="337.05203218094994" y1="131.34769600244835" x2="322.94129195137629" y2="138.89004379166431" />
    <line x1="372.99383398207675" y1="132.58624844482347" x2="358.21176146189617" y2="138.7091833626649" />
    <line x1="328.64761642153496" y1="150.9550531983478" x2="313.86554390135439" y2="157.0779881161892" />
    <line x1="299.08347138117381" y1="163.20092303403067" x2="284.30139886099323" y2="169.3238579518721" />
    <line x1="269.51932634081265" y1="175.44679286971353" x2="254.73725382063205" y2="181.56972778755497" />
    <line x1="394.38806714644181" y1="144.94306454910753" x2="363.76597640301111" y2="154.23217422125032" />
    <line x1="399.1570560806461" y1="163.98193559677435" x2="383.46449159419438" y2="167.1033807490324" />
    <line x1="352.079362621291" y1="173.34627105354849" x2="336.38679813483935" y2="176.46771620580654" />
    <line x1="320.69423364838764" y1="179.58916135806459" x2="305.001669161936" y2="182.71060651032266" />
    <line x1="289.30910467548426" y1="185.83205166258071" x2="273.61654018903261" y2="188.95349681483876" />
    <line x1="386.11398970768425" y1="184.96484617936082" x2="370.19103408092906" y2="186.53312042463378" />
    <line x1="387" y1="203" x2="371" y2="203" />
    <line x1="355" y1="203" x2="323" y2="203" />
    <line x1="243" y1="203" x2="227" y2="203" />
    <line x1="402.03694533443939" y1="222.60342806591214" x2="386.11398970768425" y2="221.03515382063915" />
    <line x1="370.19103408092906" y1="219.46687957536619" x2="338.34512282741878" y2="216.33033108482024" />
    <line x1="383.46449159419438" y1="238.8966192509676" x2="367.77192710774273" y2="235.77517409870953" />
    <line x1="352.079362621291" y1="232.65372894645148" x2="336.38679813483935" y2="229.53228379419343" />
    <line x1="305.001669161936" y1="223.28939348967734" x2="273.61654018903261" y2="217.04650318516124" />
    <line x1="387.77590650225738" y1="279.53668647301794" x2="372.99383398207675" y2="273.41375155517653" />
    <line x1="358.21176146189617" y1="267.29081663733507" x2="343.4296889417156" y2="261.16788171949361" />
    <line x1="313.86554390135439" y1="248.92201188381077" x2="299.08347138117381" y2="242.79907696596933" />
    <line x1="254.73725382063205" y1="224.43027221244503" x2="239.95518130045147" y2="218.3073372946036" />
    <line x1="355.9904086636684" y1="305.22492287560675" x2="342.68689486682763" y2="296.33579914729313" />
    <line x1="276.169325882624" y1="251.89018050572497" x2="262.86581208578326" y2="243.00105677741135" />
    <line x1="357.60209067254743" y1="329.87865683272906" x2="345.23392341874364" y2="319.72836428611072" />
    <line x1="320.49758891113606" y1="299.42777919287408" x2="308.12942165733227" y2="289.27748664625574" />
    <line x1="333.10764773832477" y1="333.10764773832477" x2="310.48023074035524" y2="310.48023074035518" />
    <line x1="287.85281374238571" y1="287.85281374238571" x2="265.22539674441617" y2="265.22539674441617" />
    <line x1="299.42777919287414" y1="320.497588911136" x2="289.2774866462558" y2="308.12942165733222" />
    <line x1="296.33579914729319" y1="342.68689486682763" x2="287.44667541897957" y2="329.38338106998691" />
    <line x1="278.55755169066589" y1="316.07986727314619" x2="269.66842796235227" y2="302.77635347630542" />
    <line x1="297.27934736519956" y1="379.384252869671" x2="289.73699957598359" y2="365.27351264009729" />
    <line x1="282.19465178676762" y1="351.16277241052364" x2="274.65230399755166" y2="337.05203218094994" />
    <line x1="267.29081663733507" y1="358.21176146189617" x2="255.04494680165223" y2="328.64761642153496" />
    <line x1="242.79907696596933" y1="299.08347138117381" x2="236.6761420481279" y2="284.30139886099323" />
    <line x1="230.55320713028647" y1="269.51932634081265" x2="218.3073372946036" y2="239.95518130045147" />
    <line x1="256.41238061482107" y1="379.0770217747264" x2="251.76782577874968" y2="363.76597640301111" />
    <line x1="247.12327094267829" y1="348.4549310312957" x2="242.4787161066069" y2="333.14388565958041" />
    <line x1="223.28939348967737" y1="305.001669161936" x2="217.04650318516127" y2="273.61654018903261" />
    <line x1="217.89860533009323" y1="354.26807845417392" x2="216.33033108482027" y2="338.34512282741878" />
    <line x1="203.00000000000003" y1="371" x2="203.00000000000003" y2="355" />
    <line x1="203.00000000000003" y1="339" x2="203" y2="307" />
    <line x1="203" y1="291" x2="203" y2="227" />
    <line x1="188.1013946699068" y1="354.268078454174" x2="189.66966891517976" y2="338.34512282741878" />
    <line x1="179.58916135806459" y1="320.69423364838764" x2="188.95349681483876" y2="273.61654018903261" />
    <line x1="149.58761938517898" y1="379.0770217747264" x2="163.52128389339316" y2="333.14388565958041" />
    <line x1="126.46331352698206" y1="387.77590650225738" x2="138.70918336266493" y2="358.21176146189623" />
    <line x1="150.9550531983478" y1="328.647616421535" x2="157.07798811618923" y2="313.86554390135444" />
    <line x1="175.44679286971353" y1="269.51932634081265" x2="181.56972778755497" y2="254.73725382063208" />
    <line x1="131.34769600244835" y1="337.05203218094994" x2="138.89004379166431" y2="322.94129195137629" />
    <line x1="100.77507712439324" y1="355.9904086636684" x2="118.55332458102051" y2="329.38338106998691" />
    <line x1="136.33157203764776" y1="302.77635347630547" x2="145.22069576596141" y2="289.47283967946476" />
    <line x1="96.4219282605076" y1="332.86575616493985" x2="106.57222080712592" y2="320.49758891113606" />
    <line x1="72.892352261675256" y1="333.10764773832477" x2="95.519769259644789" y2="310.48023074035524" />
    <line x1="106.83347775862954" y1="299.1665222413705" x2="118.14718625761431" y2="287.85281374238571" />
    <line x1="129.46089475659906" y1="276.53910524340097" x2="186.02943725152286" y2="219.97056274847714" />
    <line x1="73.134243835060232" y1="309.57807173949254" x2="85.502411088864022" y2="299.4277791928742" />
    <line x1="129.83067411737602" y1="251.890180505725" x2="143.13418791421674" y2="243.00105677741135" />
    <line x1="68.947967819050064" y1="274.65230399755166" x2="83.058708048623728" y2="267.10995620833569" />
    <line x1="77.352383578465037" y1="255.04494680165229" x2="92.134456098645614" y2="248.92201188381085" />
    <line x1="106.91652861882621" y1="242.79907696596939" x2="121.69860113900678" y2="236.67614204812796" />
    <line x1="136.48067365918737" y1="230.5532071302865" x2="166.04481869954856" y2="218.3073372946036" />
    <line x1="11.611932853558244" y1="261.05693545089247" x2="57.545068968704271" y2="247.12327094267829" />
    <line x1="22.535508405805615" y1="238.89661925096766" x2="38.2280728922573" y2="235.77517409870961" />
    <line x1="3.9630546655606054" y1="222.60342806591208" x2="19.886010292315774" y2="221.03515382063912" />
    <line x1="35.808965919070914" y1="219.46687957536616" x2="67.654877172581223" y2="216.33033108482022" />
    <line x1="3" y1="203.00000000000003" x2="19" y2="203.00000000000003" />
    <line x1="67" y1="203.00000000000003" x2="147" y2="203" />
    <line x1="163" y1="203" x2="179" y2="203" />
    <line x1="19.886010292315774" y1="184.96484617936093" x2="51.731921545826054" y2="188.10139466990688" />
    <line x1="53.920637378708989" y1="173.34627105354849" x2="69.613201865160647" y2="176.46771620580654" />
    <line x1="85.305766351612348" y1="179.58916135806462" x2="100.99833083806404" y2="182.71060651032266" />
    <line x1="116.69089532451572" y1="185.83205166258071" x2="132.3834598109674" y2="188.95349681483876" />
    <line x1="42.234023596988891" y1="154.23217422125038" x2="57.545068968704243" y2="158.87672905732177" />
    <line x1="18.224093497742672" y1="126.463313526982" x2="62.570311058284432" y2="144.83211828050634" />
    <line x1="77.352383578465023" y1="150.95505319834777" x2="121.69860113900678" y2="169.32385795187207" />
    <line x1="136.48067365918735" y1="175.44679286971353" x2="166.04481869954853" y2="187.6926627053964" />
    <line x1="40.726487359902677" y1="116.26300042401644" x2="54.837227589476356" y2="123.80534821323241" />
    <line x1="68.947967819050035" y1="131.34769600244837" x2="83.058708048623714" y2="138.89004379166431" />
    <line x1="63.313105133172371" y1="109.66420085270688" x2="76.61661893001309" y2="118.55332458102052" />
    <line x1="103.22364652369454" y1="136.33157203764779" x2="129.83067411737602" y2="154.10981949427503" />
    <line x1="60.766076581256414" y1="86.271635713889211" x2="73.1342438350602" y2="96.421928260507542" />
    <line x1="85.502411088864" y1="106.57222080712587" x2="97.870578342667784" y2="116.72251335374421" />
    <line x1="84.20606076066" y1="84.206060760660051" x2="106.83347775862951" y2="106.83347775862956" />
    <line x1="140.7746032555838" y1="140.77460325558383" x2="163.40202025355333" y2="163.40202025355336" />
    <line x1="106.57222080712582" y1="85.502411088864022" x2="116.72251335374415" y2="97.870578342667812" />
    <line x1="91.885953396079572" y1="36.706077539490963" x2="127.44244830933411" y2="89.920132726853851" />
    <line x1="136.33157203764773" y1="103.22364652369457" x2="154.109819494275" y2="129.83067411737602" />
    <line x1="132.58624844482335" y1="33.006166017923277" x2="138.70918336266482" y2="47.788238538103855" />
    <line x1="157.07798811618915" y1="92.134456098645614" x2="163.20092303403061" y2="106.91652861882621" />
    <line x1="175.44679286971348" y1="136.48067365918737" x2="187.69266270539637" y2="166.04481869954856" />
    <line x1="149.5876193851789" y1="26.922978225273567" x2="163.5212838933931" y2="72.8561143404196" />
    <line x1="182.71060651032261" y1="100.99833083806405" x2="185.83205166258068" y2="116.69089532451574" />
  </g>
  <path fill="none" stroke="#ff0000" stroke-width="2" stroke-linecap="square" stroke-linejoin="round" d="M 212.8135348654836,3.2409087589655314 L 212.42099347086426,11.231272408606912 A 192,192 0 0,1 267.68285185130628,22.223539484859998 L 251.51213888847968,67.417654613645 A 144,144 0 0,0 237.98914590607,63.315499539985666 L 234.10146302761777,78.835999591098371 A 128,128 0 0,0 87.289370480199253,148.27294804092389 L 72.825541790224179,141.43206654603938 A 144,144 0 0,0 63.315499539985666,168.01085409393002 L 47.794999488872946,164.12317121547778 A 160,160 0 0,0 44.731758405635048,179.52312408714209 L 28.904934246198565,177.1754364958563 A 176,176 0 0,1 32.274499437760255,160.23548833702557 L 16.753999386647536,156.34780545857336 A 192,192 0 0,0 11.231272408606884,193.5790065291358 L 27.211999707889646,194.36408931837448 A 176,176 0 0,0 28.904934246198565,228.82456350414378 L 13.078110086762081,231.17225109542957 A 192,192 0 0,0 16.753999386647564,249.6521945414267 L 63.315499539985666,237.98914590607004 A 144,144 0 0,0 72.825541790224179,264.56793345396068 L 58.361713100249091,271.40881494884519 A 160,160 0 0,0 74.4867949630968,298.31188871878931 L 87.338115466787116,288.78069984691035 A 144,144 0 0,0 128.96920483617609,326.51291984003922 L 120.74356092908455,340.23657760004357 A 160,160 0 0,0 149.09762345724479,353.64705042928335 L 138.31714814869375,383.77646051514 A 192,192 0 0,0 249.6521945414267,389.24600061335241 L 245.76451166297449,373.72550056223974 A 176,176 0 0,1 160.23548833702557,373.72550056223974 L 164.12317121547778,358.20500051112708 A 160,160 0 0,0 195.14917210761317,362.80727299282762 L 195.93425489685185,346.82654569354486 A 144,144 0 0,0 210.06574510314817,346.82654569354486 L 209.28066231390949,330.8458183942621 A 128,128 0 0,0 257.72705195907611,318.71062951980076 L 264.56793345396062,333.17445820977582 A 144,144 0 0,0 288.78069984691041,318.66188453321286 L 279.24951097503151,305.81056402952254 A 128,128 0 0,0 330.8458183942621,209.28066231390952 L 362.80727299282762,210.85082789238689 A 160,160 0 0,0 353.64705042928335,149.09762345724479 L 383.77646051514,138.31714814869375 A 192,192 0 0,0 376.56594427970111,120.90942206138583 L 362.10211558972605,127.75030355627034 A 176,176 0 0,0 353.96023536004788,112.51791702199297 L 367.68389312005223,104.29227311490143 A 192,192 0 0,0 331.93931933062754,60.73738393184783 L 310.44943277552295,84.44781994320654 A 160,160 0 0,1 321.55218005679347,95.550567224477064 L 309.6969620511141,106.29551050202936 A 144,144 0 0,1 326.51291984003916,128.96920483617606 L 312.78926208003486,137.19484874326764 A 128,128 0 0,1 315.88592183658943,142.66121768627227 L 301.77518160701572,150.20356547548823 A 112,112 0 0,1 310.17731760200741,170.48811614750022 L 294.86627223029205,175.13267098357161 A 96,96 0 0,1 298.5377337605309,212.40964547163782 L 282.61477813377576,210.84137122636486 A 80,80 0 0,0 282.61477813377576,195.15862877363514 L 266.69182250702062,196.7269030189081 A 64,64 0 0,1 233.16939115686387,259.44296091829472 L 248.2540867352958,287.66444137744207 A 96,96 0 0,0 263.90175527970996,277.20900352282274 L 274.05204782632831,289.57717077662653 A 112,112 0 0,1 213.9779197169108,314.46068938728604 L 212.40964547163785,298.5377337605309 A 96,96 0 0,1 193.59035452836218,298.5377337605309 L 196.72690301890813,266.69182250702062 A 64,64 0 0,1 190.51421939096778,265.77025794580675 L 193.63566454322583,250.07769345935506 A 48,48 0 0,1 176.33262881505911,242.91054139052218 L 185.22175254337273,229.60702759368147 A 32,32 0 0,0 190.75413016431713,232.56414504036118 L 193.81559762323786,225.17310878027089" />
  <type>Circular</type>
</svg>