<?xml version="1.0" encoding="utf-8" standalone="no"?>
<!DOCTYPE svg PUBLIC "-//W3C//DTD SVG 1.1//EN" "http://www.w3.org/Graphics/SVG/1.1/DTD/svg11.dtd"[]>
<svg width="404" height="404" version="1.1" xmlns="http://www.w3.org/2000/svg">
  <title>25 cells diameter theta maze</title>
  <g fill="none" stroke="#000000" stroke-width="2" stroke-linecap="square">
    <path d="M 186.02943725152286,219.97056274847714 A 24,24 0 1,1 203,227" />
    <path d="M 203,163 A 40,40 0 0,1 231.2842712474619,174.7157287525381" />
    <path d="M 239.95518130045147,187.6926627053964 A 40,40 0 0,1 231.2842712474619,231.2842712474619" />
    <path d="M 218.3073372946036,239.95518130045147 A 40,40 0 0,1 163,203" />
    <path d="M 166.04481869954853,187.6926627053964 A 40,40 0 0,1 187.69266270539637,166.04481869954856" />
    <path d="M 242.59797974644667,163.40202025355333 A 56,56 0 0,1 259,203" />
    <path d="M 242.59797974644667,242.59797974644664 A 56,56 0 0,1 163.40202025355336,242.59797974644667" />
    <path d="M 147,203 A 56,56 0 0,1 151.26274617936795,181.56972778755497" />
    <path d="M 163.40202025355333,163.40202025355336 A 56,56 0 0,1 181.56972778755494,151.26274617936795" />
    <path d="M 188.95349681483873,132.3834598109674 A 72,72 0 0,1 253.91168824543144,152.08831175456857" />
    <path d="M 269.51932634081265,175.44679286971353 A 72,72 0 0,1 275,203" />
    <path d="M 269.51932634081265,230.55320713028647 A 72,72 0 0,1 253.91168824543144,253.91168824543141" />
    <path d="M 243.00105677741135,262.86581208578326 A 72,72 0 0,1 230.55320713028647,269.51932634081265" />
    <path d="M 217.04650318516127,273.61654018903261 A 72,72 0 0,1 188.95349681483876,273.61654018903261" />
    <path d="M 152.08831175456859,253.91168824543144 A 72,72 0 0,1 143.13418791421674,243.00105677741135" />
    <path d="M 136.48067365918737,230.5532071302865 A 72,72 0 0,1 175.44679286971348,136.48067365918737" />
    <path d="M 154.109819494275,129.83067411737602 A 88,88 0 0,1 203,115" />
    <path d="M 236.6761420481279,121.69860113900677 A 88,88 0 0,1 289.30910467548426,185.83205166258071" />
    <path d="M 291,203 A 88,88 0 0,1 289.30910467548426,220.16794833741929" />
    <path d="M 284.30139886099323,236.6761420481279 A 88,88 0 0,1 276.169325882624,251.89018050572497" />
    <path d="M 236.6761420481279,284.30139886099323 A 88,88 0 0,1 220.16794833741932,289.30910467548426" />
    <path d="M 185.83205166258071,289.30910467548426 A 88,88 0 0,1 169.32385795187213,284.30139886099323" />
    <path d="M 154.10981949427503,276.169325882624 A 88,88 0 0,1 121.69860113900677,169.32385795187207" />
    <path d="M 223.28939348967734,100.99833083806404 A 104,104 0 0,1 276.53910524340097,129.46089475659906" />
    <path d="M 299.08347138117381,163.20092303403067 A 104,104 0 0,1 307,203" />
    <path d="M 305.001669161936,223.28939348967734 A 104,104 0 0,1 223.28939348967737,305.001669161936" />
    <path d="M 203,307 A 104,104 0 0,1 182.71060651032266,305.001669161936" />
    <path d="M 163.20092303403067,299.08347138117381 A 104,104 0 0,1 145.22069576596141,289.47283967946476" />
    <path d="M 100.99833083806404,223.28939348967737 A 104,104 0 0,1 106.91652861882619,163.20092303403064" />
    <path d="M 116.52716032053527,145.22069576596141 A 104,104 0 0,1 129.46089475659903,129.46089475659909" />
    <path d="M 145.22069576596135,116.5271603205353 A 104,104 0 0,1 182.71060651032261,100.99833083806405" />
    <path d="M 203,83 A 120,120 0 0,1 226.41083864193539,85.305766351612348" />
    <path d="M 248.92201188381077,92.134456098645586 A 120,120 0 0,1 287.85281374238571,118.14718625761429" />
    <path d="M 302.77635347630542,136.33157203764773 A 120,120 0 0,1 320.69423364838764,179.58916135806459" />
    <path d="M 313.86554390135439,248.92201188381077 A 120,120 0 0,1 287.85281374238571,287.85281374238571" />
    <path d="M 203.00000000000003,323 A 120,120 0 0,1 157.07798811618926,313.86554390135439" />
    <path d="M 136.33157203764779,302.77635347630547 A 120,120 0 0,1 118.14718625761431,287.85281374238571" />
    <path d="M 92.134456098645614,248.92201188381085 A 120,120 0 0,1 85.305766351612348,226.41083864193544" />
    <path d="M 92.1344560986456,157.0779881161892 A 120,120 0 0,1 157.07798811618915,92.134456098645614" />
    <path d="M 203,67 A 136,136 0 0,1 278.55755169066589,89.920132726853851" />
    <path d="M 289.2774866462558,97.87057834266777 A 136,136 0 0,1 308.12942165733222,116.72251335374421" />
    <path d="M 322.94129195137629,138.89004379166431 A 136,136 0 0,1 336.38679813483935,176.46771620580654" />
    <path d="M 338.34512282741878,189.66966891517973 A 136,136 0 0,1 339,203" />
    <path d="M 338.34512282741878,216.33033108482024 A 136,136 0 0,1 333.14388565958041,242.47871610660687" />
    <path d="M 328.647616421535,255.0449468016522 A 136,136 0 0,1 322.94129195137629,267.10995620833569" />
    <path d="M 316.07986727314619,278.55755169066589 A 136,136 0 0,1 289.2774866462558,308.12942165733222" />
    <path d="M 278.55755169066589,316.07986727314619 A 136,136 0 0,1 267.10995620833569,322.94129195137629" />
    <path d="M 242.4787161066069,333.14388565958041 A 136,136 0 0,1 163.52128389339316,333.14388565958041" />
    <path d="M 150.9550531983478,328.647616421535 A 136,136 0 0,1 138.89004379166431,322.94129195137629" />
    <path d="M 127.44244830933414,316.07986727314619 A 136,136 0 0,1 116.72251335374423,308.12942165733227" />
    <path d="M 106.83347775862956,299.16652224137044 A 136,136 0 0,1 97.870578342667812,289.27748664625585" />
    <path d="M 89.920132726853836,278.55755169066589 A 136,136 0 0,1 77.352383578465037,255.04494680165229" />
    <path d="M 72.8561143404196,242.4787161066069 A 136,136 0 0,1 67.654877172581223,189.66966891517984" />
    <path d="M 69.613201865160647,176.46771620580654 A 136,136 0 0,1 72.8561143404196,163.52128389339316" />
    <path d="M 83.058708048623714,138.89004379166431 A 136,136 0 0,1 116.72251335374415,97.870578342667827" />
    <path d="M 127.4424483093341,89.920132726853851 A 136,136 0 0,1 189.66966891517978,67.654877172581223" />
    <path d="M 217.8986053300932,51.731921545826083 A 152,152 0 0,1 232.65372894645151,53.92063737870896" />
    <path d="M 247.12327094267829,57.545068968704243 A 152,152 0 0,1 261.16788171949366,62.5703110582844" />
    <path d="M 274.65230399755166,68.947967819050035 A 152,152 0 0,1 287.44667541897957,76.616618930013118" />
    <path d="M 299.42777919287414,85.50241108886398 A 152,152 0 0,1 337.05203218094994,131.34769600244835" />
    <path d="M 352.079362621291,173.34627105354849 A 152,152 0 0,1 354.26807845417392,188.10139466990677" />
    <path d="M 355,203 A 152,152 0 0,1 352.079362621291,232.65372894645148" />
    <path d="M 348.45493103129576,247.12327094267826 A 152,152 0 0,1 343.4296889417156,261.16788171949361" />
    <path d="M 337.05203218094994,274.65230399755166 A 152,152 0 0,1 329.38338106998691,287.44667541897951" />
    <path d="M 320.49758891113606,299.42777919287408 A 152,152 0 0,1 310.48023074035524,310.48023074035518" />
    <path d="M 299.42777919287414,320.497588911136 A 152,152 0 0,1 287.44667541897951,329.38338106998685" />
    <path d="M 274.65230399755166,337.05203218094994 A 152,152 0 0,1 261.16788171949366,343.42968894171554" />
    <path d="M 232.65372894645154,352.079362621291 A 152,152 0 0,1 203.00000000000003,355" />
    <path d="M 188.1013946699068,354.26807845417392 A 152,152 0 0,1 173.34627105354849,352.079362621291" />
    <path d="M 158.87672905732177,348.45493103129576 A 152,152 0 0,1 144.83211828050636,343.4296889417156" />
    <path d="M 131.34769600244835,337.05203218094994 A 152,152 0 0,1 95.519769259644789,310.48023074035524" />
    <path d="M 85.502411088864022,299.42777919287414 A 152,152 0 0,1 68.947967819050064,274.65230399755171" />
    <path d="M 62.57031105828446,261.16788171949372 A 152,152 0 0,1 51.731921545826083,217.89860533009318" />
    <path d="M 51,203.00000000000003 A 152,152 0 0,1 51.731921545826054,188.10139466990688" />
    <path d="M 57.545068968704243,158.87672905732177 A 152,152 0 0,1 68.947967819050035,131.34769600244837" />
    <path d="M 76.61661893001309,118.55332458102052 A 152,152 0 0,1 106.57222080712582,85.502411088864037" />
    <path d="M 158.87672905732171,57.545068968704271 A 152,152 0 0,1 173.34627105354844,53.920637378708989" />
    <path d="M 203,35 A 168,168 0 0,1 219.46687957536619,35.808965919070914" />
    <path d="M 235.77517409870956,38.228072892257273 A 168,168 0 0,1 251.76782577874968,42.234023596988919" />
    <path d="M 267.29081663733507,47.788238538103826 A 168,168 0 0,1 332.8657561649398,96.421928260507556" />
    <path d="M 342.68689486682763,109.66420085270683 A 168,168 0 0,1 351.16277241052364,123.80534821323238" />
    <path d="M 358.21176146189617,138.70918336266493 A 168,168 0 0,1 367.77192710774273,170.22482590129044" />
    <path d="M 370.19103408092906,186.53312042463378 A 168,168 0 0,1 371,203" />
    <path d="M 370.19103408092906,219.46687957536619 A 168,168 0 0,1 358.21176146189617,267.29081663733507" />
    <path d="M 342.68689486682763,296.33579914729313 A 168,168 0 0,1 332.86575616493985,309.57807173949243" />
    <path d="M 296.33579914729319,342.68689486682763 A 168,168 0 0,1 267.29081663733507,358.21176146189617" />
    <path d="M 235.77517409870961,367.77192710774273 A 168,168 0 0,1 154.23217422125038,363.76597640301111" />
    <path d="M 138.70918336266493,358.21176146189617 A 168,168 0 0,1 123.80534821323241,351.16277241052364" />
    <path d="M 109.66420085270688,342.68689486682763 A 168,168 0 0,1 96.421928260507585,332.86575616493985" />
    <path d="M 73.134243835060232,309.57807173949249 A 168,168 0 0,1 63.3131051331724,296.33579914729319" />
    <path d="M 35.808965919070914,186.53312042463392 A 168,168 0 0,1 42.234023596988891,154.23217422125038" />
    <path d="M 84.20606076066,84.206060760660037 A 168,168 0 0,1 123.80534821323235,54.837227589476385" />
    <path d="M 154.23217422125032,42.234023596988919 A 168,168 0 0,1 170.22482590129039,38.2280728922573" />
    <path d="M 221.03515382063915,19.886010292315774 A 184,184 0 0,1 238.8966192509676,22.535508405805587" />
    <path d="M 256.41238061482107,26.922978225273567 A 184,184 0 0,1 273.41375155517653,33.006166017923249" />
    <path d="M 289.73699957598353,40.726487359902677 A 184,184 0 0,1 305.22492287560681,50.009591336331681" />
    <path d="M 319.72836428611078,60.766076581256385 A 184,184 0 0,1 333.10764773832477,72.892352261675256" />
    <path d="M 345.23392341874359,86.271635713889225 A 184,184 0 0,1 355.99040866366829,100.77507712439318" />
    <path d="M 365.27351264009735,116.26300042401641 A 184,184 0 0,1 379.0770217747264,149.58761938517893" />
    <path d="M 386.11398970768425,184.96484617936082 A 184,184 0 0,1 372.99383398207681,273.41375155517653" />
    <path d="M 365.27351264009735,289.73699957598359 A 184,184 0 0,1 345.23392341874364,319.72836428611072" />
    <path d="M 333.10764773832477,333.10764773832477 A 184,184 0 0,1 319.72836428611078,345.23392341874364" />
    <path d="M 238.89661925096766,383.46449159419438 A 184,184 0 0,1 184.96484617936085,386.11398970768425" />
    <path d="M 100.77507712439325,355.99040866366835 A 184,184 0 0,1 50.009591336331681,305.22492287560681" />
    <path d="M 40.726487359902706,289.73699957598365 A 184,184 0 0,1 33.006166017923277,273.41375155517665" />
    <path d="M 22.535508405805615,238.89661925096766 A 184,184 0 0,1 19.886010292315774,221.03515382063912" />
    <path d="M 19,203.00000000000003 A 184,184 0 0,1 26.922978225273539,149.58761938517898" />
    <path d="M 33.006166017923249,132.58624844482344 A 184,184 0 0,1 50.009591336331624,100.77507712439326" />
    <path d="M 60.766076581256414,86.271635713889211 A 184,184 0 0,1 72.892352261675228,72.892352261675285" />
    <path d="M 116.26300042401638,40.726487359902706 A 184,184 0 0,1 149.5876193851789,26.922978225273567" />
    <path d="M 222.60342806591211,3.9630546655606338 A 200,200 0 1,1 203,3" />
  </g>
  <g fill="none" stroke="#000000" stroke-width="2" stroke-linecap="butt">
    <line x1="203" y1="3" x2="203" y2="67" />
    <line x1="203" y1="83" x2="203" y2="115" />
    <line x1="203" y1="147" x2="203" y2="163" />
    <line x1="221.03515382063915" y1="19.886010292315774" x2="219.46687957536619" y2="35.808965919070914" />
    <line x1="238.8966192509676" y1="22.535508405805615" x2="235.77517409870956" y2="38.228072892257273" />
    <line x1="232.65372894645151" y1="53.920637378708989" x2="229.53228379419343" y2="69.613201865160647" />
    <line x1="226.41083864193539" y1="85.305766351612348" x2="220.16794833741929" y2="116.69089532451572" />
    <line x1="251.76782577874968" y1="42.234023596988919" x2="247.12327094267829" y2="57.545068968704271" />
    <line x1="273.41375155517653" y1="33.006166017923249" x2="267.29081663733507" y2="47.788238538103826" />
    <line x1="255.0449468016522" y1="77.352383578465009" x2="248.92201188381077" y2="92.134456098645586" />
    <line x1="242.79907696596933" y1="106.91652861882618" x2="236.6761420481279" y2="121.69860113900677" />
    <line x1="230.55320713028647" y1="136.48067365918735" x2="218.3073372946036" y2="166.04481869954853" />
    <line x1="305.22492287560681" y1="50.009591336331681" x2="296.33579914729319" y2="63.3131051331724" />
    <line x1="287.44667541897957" y1="76.616618930013118" x2="278.55755169066589" y2="89.920132726853851" />
    <line x1="299.42777919287414" y1="85.50241108886398" x2="289.2774866462558" y2="97.87057834266777" />
    <line x1="344.42135623730951" y1="61.57864376269049" x2="321.79393923934" y2="84.206060760660009" />
    <line x1="287.85281374238571" y1="118.14718625761429" x2="276.53910524340097" y2="129.46089475659903" />
    <line x1="242.59797974644664" y1="163.40202025355333" x2="231.2842712474619" y2="174.7157287525381" />
    <line x1="357.60209067254743" y1="76.121343167270908" x2="345.23392341874364" y2="86.271635713889225" />
    <line x1="355.99040866366829" y1="100.77507712439318" x2="342.68689486682763" y2="109.66420085270681" />
    <line x1="316.07986727314614" y1="127.44244830933408" x2="262.86581208578326" y2="162.99894322258865" />
    <line x1="365.27351264009729" y1="116.2630004240164" x2="322.94129195137629" y2="138.89004379166431" />
    <line x1="343.4296889417156" y1="144.83211828050634" x2="328.64761642153496" y2="150.9550531983478" />
    <line x1="363.76597640301111" y1="154.23217422125032" x2="348.45493103129576" y2="158.87672905732171" />
    <line x1="399.1570560806461" y1="163.98193559677435" x2="367.77192710774273" y2="170.22482590129044" />
    <line x1="289.30910467548426" y1="185.83205166258071" x2="273.61654018903261" y2="188.95349681483876" />
    <line x1="386.11398970768425" y1="184.96484617936082" x2="338.34512282741878" y2="189.66966891517973" />
    <line x1="371" y1="203" x2="355" y2="203" />
    <line x1="339" y1="203" x2="307" y2="203" />
    <line x1="291" y1="203" x2="275" y2="203" />
    <line x1="354.268078454174" y1="217.89860533009323" x2="338.34512282741878" y2="216.33033108482024" />
    <line x1="367.77192710774273" y1="235.77517409870953" x2="352.079362621291" y2="232.65372894645148" />
    <line x1="336.38679813483935" y1="229.53228379419343" x2="320.69423364838764" y2="226.41083864193539" />
    <line x1="289.30910467548426" y1="220.16794833741929" x2="273.61654018903261" y2="217.04650318516124" />
    <line x1="358.21176146189617" y1="267.29081663733507" x2="313.86554390135439" y2="248.92201188381077" />
    <line x1="299.08347138117381" y1="242.79907696596933" x2="284.30139886099323" y2="236.6761420481279" />
    <line x1="269.51932634081265" y1="230.55320713028647" x2="239.95518130045147" y2="218.3073372946036" />
    <line x1="365.27351264009735" y1="289.73699957598359" x2="337.05203218094994" y2="274.65230399755166" />
    <line x1="329.38338106998691" y1="287.44667541897951" x2="316.07986727314619" y2="278.55755169066583" />
    <line x1="332.86575616493985" y1="309.57807173949243" x2="320.49758891113606" y2="299.42777919287408" />
    <line x1="344.42135623730951" y1="344.42135623730951" x2="299.16652224137044" y2="299.16652224137044" />
    <line x1="287.85281374238571" y1="287.85281374238571" x2="253.91168824543144" y2="253.91168824543144" />
    <line x1="231.2842712474619" y1="231.2842712474619" x2="219.97056274847714" y2="219.97056274847714" />
    <line x1="319.72836428611078" y1="345.23392341874364" x2="309.57807173949243" y2="332.86575616493985" />
    <line x1="299.42777919287414" y1="320.497588911136" x2="289.2774866462558" y2="308.12942165733222" />
    <line x1="314.11404660392043" y1="369.29392246050907" x2="305.22492287560681" y2="355.99040866366835" />
    <line x1="278.55755169066589" y1="316.07986727314619" x2="260.77930423403865" y2="289.4728396794647" />
    <line x1="251.890180505725" y1="276.169325882624" x2="243.00105677741135" y2="262.86581208578326" />
    <line x1="297.27934736519956" y1="379.384252869671" x2="282.19465178676762" y2="351.16277241052364" />
    <line x1="274.65230399755166" y1="337.05203218094994" x2="267.10995620833569" y2="322.94129195137629" />
    <line x1="273.41375155517653" y1="372.99383398207675" x2="267.29081663733507" y2="358.21176146189617" />
    <line x1="261.16788171949366" y1="343.4296889417156" x2="248.9220118838108" y2="313.86554390135439" />
    <line x1="242.79907696596933" y1="299.08347138117381" x2="236.6761420481279" y2="284.30139886099323" />
    <line x1="230.55320713028647" y1="269.51932634081265" x2="218.3073372946036" y2="239.95518130045147" />
    <line x1="261.05693545089247" y1="394.38806714644176" x2="251.76782577874968" y2="363.76597640301111" />
    <line x1="247.12327094267829" y1="348.4549310312957" x2="242.4787161066069" y2="333.14388565958041" />
    <line x1="229.53228379419349" y1="336.38679813483935" x2="223.28939348967737" y2="305.001669161936" />
    <line x1="220.16794833741932" y1="289.30910467548426" x2="217.04650318516127" y2="273.61654018903261" />
    <line x1="203.00000000000003" y1="371" x2="203.00000000000003" y2="355" />
    <line x1="203.00000000000003" y1="323" x2="203" y2="307" />
    <line x1="203" y1="291" x2="203" y2="275" />
    <line x1="183.39657193408789" y1="402.03694533443939" x2="188.1013946699068" y2="354.268078454174" />
    <line x1="163.98193559677432" y1="399.1570560806461" x2="167.1033807490324" y2="383.46449159419438" />
    <line x1="182.71060651032266" y1="305.001669161936" x2="185.83205166258071" y2="289.30910467548426" />
    <line x1="149.58761938517898" y1="379.0770217747264" x2="163.52128389339316" y2="333.14388565958041" />
    <line x1="126.46331352698206" y1="387.77590650225738" x2="138.70918336266493" y2="358.21176146189623" />
    <line x1="150.9550531983478" y1="328.647616421535" x2="163.20092303403067" y2="299.08347138117381" />
    <line x1="169.3238579518721" y1="284.30139886099323" x2="181.56972778755497" y2="254.73725382063208" />
    <line x1="108.72065263480047" y1="379.384252869671" x2="116.26300042401644" y2="365.27351264009735" />
    <line x1="123.80534821323239" y1="351.16277241052364" x2="131.34769600244835" y2="337.05203218094994" />
    <line x1="100.77507712439324" y1="355.9904086636684" x2="109.66420085270687" y2="342.68689486682763" />
    <line x1="127.44244830933414" y1="316.07986727314619" x2="136.33157203764776" y2="302.77635347630547" />
    <line x1="145.22069576596141" y1="289.47283967946476" x2="162.99894322258865" y2="262.86581208578326" />
    <line x1="96.4219282605076" y1="332.86575616493985" x2="106.57222080712592" y2="320.49758891113606" />
    <line x1="72.892352261675256" y1="333.10764773832477" x2="84.206060760660023" y2="321.79393923934003" />
    <line x1="95.519769259644789" y1="310.48023074035524" x2="129.46089475659906" y2="276.53910524340097" />
    <line x1="174.7157287525381" y1="231.2842712474619" x2="186.02943725152286" y2="219.97056274847714" />
    <line x1="60.766076581256442" y1="319.72836428611083" x2="73.134243835060232" y2="309.57807173949254" />
    <line x1="76.616618930013118" y1="287.44667541897957" x2="143.13418791421674" y2="243.00105677741135" />
    <line x1="40.726487359902706" y1="289.73699957598359" x2="68.947967819050064" y2="274.65230399755166" />
    <line x1="33.006166017923277" y1="273.41375155517665" x2="62.57031105828446" y2="261.16788171949372" />
    <line x1="92.134456098645614" y1="248.92201188381085" x2="121.69860113900678" y2="236.67614204812796" />
    <line x1="151.26274617936795" y1="224.43027221244506" x2="166.04481869954856" y2="218.3073372946036" />
    <line x1="11.611932853558244" y1="261.05693545089247" x2="42.234023596988919" y2="251.76782577874968" />
    <line x1="22.535508405805615" y1="238.89661925096766" x2="38.2280728922573" y2="235.77517409870961" />
    <line x1="69.613201865160676" y1="229.53228379419349" x2="85.305766351612363" y2="226.41083864193544" />
    <line x1="19.886010292315774" y1="221.03515382063912" x2="51.731921545826054" y2="217.89860533009318" />
    <line x1="19" y1="203.00000000000003" x2="51" y2="203.00000000000003" />
    <line x1="67" y1="203.00000000000003" x2="99" y2="203.00000000000003" />
    <line x1="51.731921545826054" y1="188.10139466990688" x2="67.654877172581223" y2="189.66966891517984" />
    <line x1="38.228072892257273" y1="170.22482590129044" x2="53.920637378708989" y2="173.34627105354849" />
    <line x1="69.613201865160647" y1="176.46771620580654" x2="85.305766351612348" y2="179.58916135806462" />
    <line x1="26.922978225273567" y1="149.58761938517898" x2="42.234023596988891" y2="154.23217422125038" />
    <line x1="57.545068968704243" y1="158.87672905732177" x2="72.8561143404196" y2="163.52128389339316" />
    <line x1="33.006166017923249" y1="132.58624844482344" x2="62.570311058284432" y2="144.83211828050634" />
    <line x1="77.352383578465023" y1="150.95505319834777" x2="106.91652861882619" y2="163.20092303403064" />
    <line x1="151.26274617936795" y1="181.56972778755497" x2="166.04481869954853" y2="187.6926627053964" />
    <line x1="40.726487359902677" y1="116.26300042401644" x2="54.837227589476356" y2="123.80534821323241" />
    <line x1="68.947967819050035" y1="131.34769600244837" x2="83.058708048623714" y2="138.89004379166431" />
    <line x1="36.706077539490906" y1="91.885953396079628" x2="50.009591336331624" y2="100.77507712439326" />
    <line x1="63.313105133172371" y1="109.66420085270688" x2="76.61661893001309" y2="118.55332458102052" />
    <line x1="116.52716032053527" y1="145.22069576596141" x2="143.13418791421674" y2="162.99894322258865" />
    <line x1="60.766076581256414" y1="86.271635713889211" x2="85.502411088864" y2="106.57222080712587" />
    <line x1="61.578643762690461" y1="61.578643762690518" x2="72.892352261675228" y2="72.892352261675285" />
    <line x1="129.46089475659903" y1="129.46089475659909" x2="140.7746032555838" y2="140.77460325558383" />
    <line x1="174.7157287525381" y1="174.7157287525381" x2="186.02943725152286" y2="186.02943725152286" />
    <line x1="86.271635713889154" y1="60.766076581256442" x2="96.421928260507485" y2="73.134243835060232" />
    <line x1="91.885953396079572" y1="36.706077539490963" x2="109.66420085270684" y2="63.3131051331724" />
    <line x1="118.55332458102046" y1="76.616618930013118" x2="127.44244830933411" y2="89.920132726853851" />
    <line x1="123.80534821323235" y1="54.837227589476385" x2="131.34769600244832" y2="68.947967819050064" />
    <line x1="126.46331352698192" y1="18.2240934977427" x2="150.95505319834771" y2="77.352383578465037" />
    <line x1="175.44679286971348" y1="136.48067365918737" x2="187.69266270539637" y2="166.04481869954856" />
    <line x1="158.87672905732171" y1="57.545068968704271" x2="163.5212838933931" y2="72.8561143404196" />
    <line x1="163.98193559677426" y1="6.8429439193539281" x2="170.22482590129039" y2="38.2280728922573" />
    <line x1="176.46771620580648" y1="69.613201865160676" x2="182.71060651032261" y2="100.99833083806405" />
    <line x1="185.83205166258068" y1="116.69089532451574" x2="188.95349681483873" y2="132.38345981096742" />
    <line x1="183.39657193408789" y1="3.9630546655606054" x2="184.96484617936088" y2="19.886010292315774" />
    <line x1="186.53312042463384" y1="35.808965919070914" x2="189.66966891517978" y2="67.654877172581223" />
  </g>
  <path fill="none" stroke="#ff0000" stroke-width="2" stroke-linecap="square" stroke-linejoin="round" d="M 212.8135348654836,3.2409087589655314 L 212.42099347086426,11.231272408606912 A 192,192 0 0,1 249.65219454142667,16.753999386647564 L 245.76451166297443,32.274499437760255 A 176,176 0 0,1 262.29261419703073,37.288244527788351 L 256.90237654275518,52.352949570716675 A 160,160 0 0,1 298.31188871878931,74.486794963096827 L 279.24951097503146,100.18943597047745 A 128,128 0 0,1 305.81056402952254,126.75048902496852 L 318.66188453321286,117.21930015308959 A 144,144 0 0,1 326.51291984003916,128.96920483617606 L 312.78926208003486,137.19484874326764 A 128,128 0 0,1 330.38364501404118,190.45380603781621 L 314.46068938728604,192.0220802830892 A 112,112 0 0,0 301.77518160701572,150.20356547548823 L 287.66444137744207,157.7459132647042 A 96,96 0 0,1 294.86627223029205,230.86732901642836 L 264.24418148686135,221.57821934428557 A 64,64 0 0,0 265.77025794580675,215.48578060903219 L 250.07769345935506,212.36433545677414 A 48,48 0 0,0 242.91054139052216,176.33262881505908 L 229.60702759368144,185.22175254337273 A 32,32 0 0,0 196.75710969548388,171.61487102709663 L 190.51421939096775,140.22974205419325 A 64,64 0 0,0 184.4217806557144,141.75581851313865 L 179.777225819643,126.4447731414233 A 80,80 0 0,0 152.24853726690833,141.15916373098108 L 131.94795217367164,116.4228292233735 A 112,112 0 0,1 170.48811614750019,95.822682397992608 L 165.8435613114288,80.51163702627727 A 128,128 0 0,0 87.289370480199253,148.27294804092389 L 72.825541790224179,141.43206654603938 A 144,144 0 0,0 67.417654613645,154.48786111152037 L 82.482359656573323,159.8780987657959 A 128,128 0 0,0 80.511637026277256,165.84356131142886 L 95.8226823979926,170.48811614750025 A 112,112 0 0,0 91.539310612713948,192.02208028308928 L 75.6163549859588,190.45380603781632 A 128,128 0 0,1 76.385406724508044,184.21849926971368 L 60.558582565071532,181.87081167842788 A 144,144 0 0,1 63.315499539985666,168.01085409393002 L 47.794999488872946,164.12317121547778 A 160,160 0 0,1 52.352949570716646,149.09762345724488 L 22.22353948485997,138.31714814869383 A 192,192 0 0,0 16.753999386647564,249.6521945414267 L 47.794999488872975,241.87682878452227 A 160,160 0 0,0 52.352949570716675,256.90237654275518 L 22.223539484859998,267.68285185130622 A 192,192 0 0,0 38.316106879947768,301.70772688509862 L 65.763422399956482,285.25643907091546 A 160,160 0 0,0 84.447819943206582,310.44943277552295 L 96.303037948885915,299.70448949797071 A 144,144 0 0,1 87.338115466787116,288.78069984691035 L 100.18943597047743,279.24951097503146 A 128,128 0 0,0 104.05466196956971,284.20234037294665 L 128.79099647717729,263.90175527971 A 96,96 0 0,0 142.09824472029004,277.20900352282274 L 131.94795217367172,289.57717077662653 A 112,112 0 0,0 150.20356547548826,301.77518160701578 L 142.6612176862723,315.88592183658943 A 128,128 0 0,1 137.19484874326764,312.78926208003486 L 128.96920483617609,326.51291984003922 A 144,144 0 0,0 154.48786111152032,338.582345386355 L 159.87809876579581,323.51764034342665 A 128,128 0 0,0 215.54619396218379,330.38364501404118 L 212.40964547163785,298.5377337605309 A 96,96 0 0,1 193.59035452836218,298.5377337605309 L 195.15862877363514,282.61477813377576 A 80,80 0 0,1 179.77722581964304,279.5552268585767 L 184.42178065571443,264.24418148686135 A 64,64 0 0,0 221.5782193442856,264.24418148686135 L 226.222774180357,279.5552268585767 A 80,80 0 0,0 240.71173894607983,273.55370114786842 L 248.2540867352958,287.66444137744207 A 96,96 0 0,0 263.90175527970996,277.20900352282274 L 243.60117018647333,252.47266901521516 A 64,64 0 0,0 256.21405518736293,238.55649491325454 L 242.91054139052218,229.66737118494089 A 48,48 0 0,1 229.66737118494089,242.91054139052218 L 220.77824745662727,229.60702759368144 A 32,32 0 0,1 190.75413016431713,232.56414504036118 L 193.81559762323786,225.17310878027089" />
  <type>Circular</type>
</svg>