<?xml version="1.0" encoding="utf-8" standalone="no"?>
<!DOCTYPE svg PUBLIC "-//W3C//DTD SVG 1.1//EN" "http://www.w3.org/Graphics/SVG/1.1/DTD/svg11.dtd"[]>
<svg width="404" height="404" version="1.1" xmlns="http://www.w3.org/2000/svg">
  <title>25 cells diameter theta maze</title>
  <g fill="none" stroke="#000000" stroke-width="2" stroke-linecap="square">
    <path d="M 186.02943725152286,219.97056274847714 A 24,24 0 1,1 203,227" />
    <path d="M 187.69266270539637,166.04481869954856 A 40,40 0 0,1 203,163" />
    <path d="M 239.95518130045147,187.6926627053964 A 40,40 0 0,1 239.95518130045147,218.3073372946036" />
    <path d="M 218.3073372946036,239.95518130045147 A 40,40 0 0,1 166.04481869954853,218.3073372946036" />
    <path d="M 224.43027221244503,151.26274617936795 A 56,56 0 0,1 254.73725382063205,181.56972778755497" />
    <path d="M 259,203 A 56,56 0 0,1 181.569727787555,254.73725382063208" />
    <path d="M 147,203 A 56,56 0 0,1 181.56972778755494,151.26274617936795" />
    <path d="M 230.55320713028647,136.48067365918735 A 72,72 0 0,1 273.61654018903261,217.04650318516124" />
    <path d="M 269.51932634081265,230.55320713028647 A 72,72 0 0,1 262.86581208578326,243.00105677741135" />
    <path d="M 253.91168824543144,253.91168824543141 A 72,72 0 0,1 243.00105677741135,262.86581208578326" />
    <path d="M 230.55320713028647,269.51932634081265 A 72,72 0 0,1 217.04650318516127,273.61654018903261" />
    <path d="M 203,275 A 72,72 0 0,1 136.48067365918737,230.5532071302865" />
    <path d="M 132.3834598109674,188.95349681483876 A 72,72 0 0,1 143.13418791421674,162.99894322258865" />
    <path d="M 152.08831175456857,152.08831175456859 A 72,72 0 0,1 162.99894322258865,143.13418791421674" />
    <path d="M 175.44679286971348,136.48067365918737 A 72,72 0 0,1 188.95349681483873,132.3834598109674" />
    <path d="M 203,115 A 88,88 0 0,1 265.22539674441617,140.77460325558383" />
    <path d="M 276.169325882624,154.109819494275 A 88,88 0 0,1 284.30139886099323,169.3238579518721" />
    <path d="M 289.30910467548426,185.83205166258071 A 88,88 0 0,1 291,203" />
    <path d="M 289.30910467548426,220.16794833741929 A 88,88 0 0,1 284.30139886099323,236.6761420481279" />
    <path d="M 276.169325882624,251.89018050572497 A 88,88 0 0,1 251.89018050572497,276.169325882624" />
    <path d="M 236.6761420481279,284.30139886099323 A 88,88 0 0,1 220.16794833741932,289.30910467548426" />
    <path d="M 185.83205166258071,289.30910467548426 A 88,88 0 0,1 169.32385795187213,284.30139886099323" />
    <path d="M 121.69860113900678,236.67614204812796 A 88,88 0 0,1 116.69089532451572,185.83205166258071" />
    <path d="M 121.69860113900677,169.32385795187207 A 88,88 0 0,1 140.7746032555838,140.77460325558383" />
    <path d="M 129.46089475659903,129.46089475659909 A 104,104 0 0,1 260.77930423403865,116.52716032053529" />
    <path d="M 276.53910524340097,129.46089475659906 A 104,104 0 0,1 289.4728396794647,145.22069576596135" />
    <path d="M 299.08347138117381,163.20092303403067 A 104,104 0 0,1 305.001669161936,182.71060651032266" />
    <path d="M 305.001669161936,223.28939348967734 A 104,104 0 0,1 276.53910524340097,276.53910524340097" />
    <path d="M 260.77930423403859,289.4728396794647 A 104,104 0 0,1 203,307" />
    <path d="M 163.20092303403067,299.08347138117381 A 104,104 0 0,1 145.22069576596141,289.47283967946476" />
    <path d="M 116.52716032053529,260.77930423403865 A 104,104 0 0,1 100.99833083806404,223.28939348967737" />
    <path d="M 313.86554390135439,157.07798811618923 A 120,120 0 0,1 323,203" />
    <path d="M 287.85281374238571,287.85281374238571 A 120,120 0 0,1 269.66842796235227,302.77635347630542" />
    <path d="M 248.9220118838108,313.86554390135439 A 120,120 0 0,1 103.22364652369457,269.66842796235227" />
    <path d="M 92.134456098645614,248.92201188381085 A 120,120 0 0,1 92.1344560986456,157.0779881161892" />
    <path d="M 136.33157203764773,103.22364652369457 A 120,120 0 0,1 179.58916135806456,85.305766351612363" />
    <path d="M 229.53228379419343,69.613201865160647 A 136,136 0 0,1 255.0449468016522,77.352383578465" />
    <path d="M 278.55755169066589,89.920132726853851 A 136,136 0 0,1 338.34512282741878,216.33033108482024" />
    <path d="M 333.14388565958041,242.47871610660687 A 136,136 0 0,1 328.647616421535,255.0449468016522" />
    <path d="M 316.07986727314619,278.55755169066589 A 136,136 0 0,1 308.12942165733227,289.27748664625574" />
    <path d="M 299.16652224137044,299.16652224137044 A 136,136 0 0,1 255.04494680165223,328.64761642153496" />
    <path d="M 242.4787161066069,333.14388565958041 A 136,136 0 0,1 150.9550531983478,328.647616421535" />
    <path d="M 138.89004379166431,322.94129195137629 A 136,136 0 0,1 97.870578342667812,289.27748664625585" />
    <path d="M 89.920132726853836,278.55755169066589 A 136,136 0 0,1 83.058708048623728,267.10995620833569" />
    <path d="M 77.352383578465037,255.04494680165229 A 136,136 0 0,1 72.8561143404196,242.4787161066069" />
    <path d="M 69.613201865160676,229.53228379419349 A 136,136 0 0,1 69.613201865160647,176.46771620580654" />
    <path d="M 72.8561143404196,163.52128389339316 A 136,136 0 0,1 116.72251335374415,97.870578342667827" />
    <path d="M 138.89004379166428,83.058708048623743 A 136,136 0 0,1 189.66966891517978,67.654877172581223" />
    <path d="M 287.44667541897957,76.616618930013118 A 152,152 0 0,1 310.48023074035524,95.519769259644775" />
    <path d="M 320.497588911136,106.57222080712587 A 152,152 0 0,1 343.4296889417156,144.83211828050634" />
    <path d="M 354.26807845417392,188.10139466990677 A 152,152 0 0,1 355,203" />
    <path d="M 354.26807845417392,217.89860533009323 A 152,152 0 0,1 329.38338106998691,287.44667541897951" />
    <path d="M 320.49758891113606,299.42777919287408 A 152,152 0 0,1 261.16788171949366,343.42968894171554" />
    <path d="M 217.89860533009323,354.26807845417392 A 152,152 0 0,1 173.34627105354849,352.079362621291" />
    <path d="M 158.87672905732177,348.45493103129576 A 152,152 0 0,1 131.34769600244835,337.05203218094994" />
    <path d="M 118.55332458102051,329.38338106998691 A 152,152 0 0,1 106.57222080712592,320.49758891113606" />
    <path d="M 95.519769259644789,310.48023074035524 A 152,152 0 0,1 68.947967819050064,274.65230399755171" />
    <path d="M 57.545068968704243,247.12327094267829 A 152,152 0 0,1 53.920637378708989,232.65372894645157" />
    <path d="M 51.731921545826083,217.89860533009318 A 152,152 0 0,1 51,203.00000000000003" />
    <path d="M 53.92063737870896,173.34627105354849 A 152,152 0 0,1 62.570311058284432,144.83211828050634" />
    <path d="M 68.947967819050035,131.34769600244837 A 152,152 0 0,1 76.61661893001309,118.55332458102052" />
    <path d="M 95.519769259644747,95.5197692596448 A 152,152 0 0,1 144.83211828050625,62.57031105828446" />
    <path d="M 158.87672905732171,57.545068968704271 A 152,152 0 0,1 173.34627105354844,53.920637378708989" />
    <path d="M 170.22482590129039,38.2280728922573 A 168,168 0 0,1 219.46687957536619,35.808965919070914" />
    <path d="M 282.19465178676762,54.837227589476356 A 168,168 0 0,1 309.57807173949243,73.134243835060175" />
    <path d="M 332.8657561649398,96.421928260507556 A 168,168 0 0,1 342.68689486682763,109.66420085270683" />
    <path d="M 358.21176146189617,138.70918336266493 A 168,168 0 0,1 370.19103408092906,186.53312042463378" />
    <path d="M 371,203 A 168,168 0 0,1 370.19103408092906,219.46687957536619" />
    <path d="M 367.77192710774273,235.77517409870953 A 168,168 0 0,1 351.16277241052364,282.19465178676762" />
    <path d="M 342.68689486682763,296.33579914729313 A 168,168 0 0,1 332.86575616493985,309.57807173949243" />
    <path d="M 296.33579914729319,342.68689486682763 A 168,168 0 0,1 251.76782577874968,363.76597640301111" />
    <path d="M 219.46687957536622,370.19103408092906 A 168,168 0 0,1 203.00000000000003,371" />
    <path d="M 170.22482590129044,367.77192710774273 A 168,168 0 0,1 138.70918336266493,358.21176146189617" />
    <path d="M 96.421928260507585,332.86575616493985 A 168,168 0 0,1 84.206060760660037,321.79393923934003" />
    <path d="M 63.3131051331724,296.33579914729319 A 168,168 0 0,1 54.837227589476385,282.19465178676762" />
    <path d="M 35.808965919070914,186.53312042463392 A 168,168 0 0,1 38.228072892257273,170.22482590129044" />
    <path d="M 42.234023596988891,154.23217422125038 A 168,168 0 0,1 47.788238538103855,138.70918336266487" />
    <path d="M 54.837227589476356,123.80534821323241 A 168,168 0 0,1 63.313105133172371,109.66420085270688" />
    <path d="M 73.1342438350602,96.421928260507542 A 168,168 0 0,1 84.20606076066,84.206060760660037" />
    <path d="M 96.421928260507485,73.134243835060261 A 168,168 0 0,1 109.66420085270683,63.3131051331724" />
    <path d="M 203,19 A 184,184 0 0,1 256.41238061482107,26.922978225273567" />
    <path d="M 273.41375155517653,33.006166017923249 A 184,184 0 0,1 345.23392341874359,86.271635713889225" />
    <path d="M 379.0770217747264,149.58761938517893 A 184,184 0 0,1 383.46449159419444,238.8966192509676" />
    <path d="M 372.99383398207681,273.41375155517653 A 184,184 0 0,1 365.27351264009735,289.73699957598359" />
    <path d="M 345.23392341874364,319.72836428611072 A 184,184 0 0,1 333.10764773832477,333.10764773832477" />
    <path d="M 319.72836428611078,345.23392341874364 A 184,184 0 0,1 305.22492287560681,355.99040866366835" />
    <path d="M 256.41238061482107,379.0770217747264 A 184,184 0 0,1 203.00000000000003,387" />
    <path d="M 184.96484617936085,386.11398970768425 A 184,184 0 0,1 167.1033807490324,383.46449159419444" />
    <path d="M 149.58761938517898,379.0770217747264 A 184,184 0 0,1 132.58624844482353,372.99383398207681" />
    <path d="M 100.77507712439325,355.99040866366835 A 184,184 0 0,1 86.271635713889268,345.23392341874364" />
    <path d="M 40.726487359902706,289.73699957598365 A 184,184 0 0,1 33.006166017923277,273.41375155517665" />
    <path d="M 22.535508405805615,238.89661925096766 A 184,184 0 0,1 19,203.00000000000003" />
    <path d="M 22.535508405805587,167.1033807490324 A 184,184 0 0,1 26.922978225273539,149.58761938517898" />
    <path d="M 33.006166017923249,132.58624844482344 A 184,184 0 0,1 40.726487359902677,116.26300042401645" />
    <path d="M 50.009591336331624,100.77507712439326 A 184,184 0 0,1 86.271635713889154,60.76607658125647" />
    <path d="M 116.26300042401638,40.726487359902706 A 184,184 0 0,1 167.10338074903231,22.535508405805615" />
    <path d="M 222.60342806591211,3.9630546655606338 A 200,200 0 1,1 203,3" />
  </g>
  <g fill="none" stroke="#000000" stroke-width="2" stroke-linecap="butt">
    <line x1="203" y1="19" x2="203" y2="83" />
    <line x1="203" y1="99" x2="203" y2="147" />
    <line x1="219.46687957536619" y1="35.808965919070914" x2="216.33033108482024" y2="67.654877172581223" />
    <line x1="238.8966192509676" y1="22.535508405805615" x2="226.41083864193539" y2="85.305766351612348" />
    <line x1="220.16794833741929" y1="116.69089532451572" x2="217.04650318516124" y2="132.3834598109674" />
    <line x1="261.05693545089247" y1="11.611932853558244" x2="256.41238061482107" y2="26.922978225273567" />
    <line x1="251.76782577874968" y1="42.234023596988919" x2="242.47871610660687" y2="72.8561143404196" />
    <line x1="273.41375155517653" y1="33.006166017923249" x2="261.16788171949366" y2="62.5703110582844" />
    <line x1="248.92201188381077" y1="92.134456098645586" x2="242.79907696596933" y2="106.91652861882618" />
    <line x1="224.43027221244503" y1="151.26274617936795" x2="218.3073372946036" y2="166.04481869954853" />
    <line x1="282.19465178676762" y1="54.837227589476356" x2="267.10995620833569" y2="83.058708048623714" />
    <line x1="314.11404660392043" y1="36.706077539490963" x2="296.33579914729319" y2="63.3131051331724" />
    <line x1="278.55755169066589" y1="89.920132726853851" x2="269.66842796235227" y2="103.22364652369457" />
    <line x1="309.57807173949243" y1="73.134243835060175" x2="299.42777919287414" y2="85.50241108886398" />
    <line x1="333.10764773832477" y1="72.892352261675256" x2="321.79393923934" y2="84.206060760660009" />
    <line x1="287.85281374238571" y1="118.14718625761429" x2="253.91168824543144" y2="152.08831175456857" />
    <line x1="231.2842712474619" y1="174.7157287525381" x2="219.97056274847714" y2="186.02943725152286" />
    <line x1="345.23392341874364" y1="86.271635713889225" x2="332.86575616493985" y2="96.421928260507556" />
    <line x1="320.497588911136" y1="106.57222080712589" x2="308.12942165733222" y2="116.72251335374422" />
    <line x1="355.99040866366829" y1="100.77507712439318" x2="329.38338106998685" y2="118.55332458102045" />
    <line x1="316.07986727314614" y1="127.44244830933408" x2="302.77635347630542" y2="136.33157203764773" />
    <line x1="289.4728396794647" y1="145.22069576596135" x2="276.169325882624" y2="154.109819494275" />
    <line x1="379.384252869671" y1="108.72065263480044" x2="351.16277241052364" y2="123.80534821323236" />
    <line x1="372.99383398207675" y1="132.58624844482347" x2="358.21176146189617" y2="138.7091833626649" />
    <line x1="299.08347138117381" y1="163.20092303403067" x2="284.30139886099323" y2="169.3238579518721" />
    <line x1="254.73725382063205" y1="181.56972778755497" x2="239.95518130045147" y2="187.6926627053964" />
    <line x1="363.76597640301111" y1="154.23217422125032" x2="348.45493103129576" y2="158.87672905732171" />
    <line x1="399.1570560806461" y1="163.98193559677435" x2="383.46449159419438" y2="167.1033807490324" />
    <line x1="352.079362621291" y1="173.34627105354849" x2="336.38679813483935" y2="176.46771620580654" />
    <line x1="305.001669161936" y1="182.71060651032266" x2="289.30910467548426" y2="185.83205166258071" />
    <line x1="370.19103408092906" y1="186.53312042463378" x2="354.26807845417392" y2="188.10139466990677" />
    <line x1="355" y1="203" x2="307" y2="203" />
    <line x1="275" y1="203" x2="259" y2="203" />
    <line x1="243" y1="203" x2="227" y2="203" />
    <line x1="370.19103408092906" y1="219.46687957536619" x2="354.268078454174" y2="217.89860533009323" />
    <line x1="383.46449159419438" y1="238.8966192509676" x2="367.77192710774273" y2="235.77517409870953" />
    <line x1="352.079362621291" y1="232.65372894645148" x2="320.69423364838764" y2="226.41083864193539" />
    <line x1="305.001669161936" y1="223.28939348967734" x2="289.30910467548426" y2="220.16794833741929" />
    <line x1="394.38806714644181" y1="261.05693545089241" x2="379.0770217747264" y2="256.412380614821" />
    <line x1="358.21176146189617" y1="267.29081663733507" x2="343.4296889417156" y2="261.16788171949361" />
    <line x1="328.64761642153496" y1="255.0449468016522" x2="299.08347138117381" y2="242.79907696596933" />
    <line x1="284.30139886099323" y1="236.6761420481279" x2="269.51932634081265" y2="230.55320713028647" />
    <line x1="379.384252869671" y1="297.27934736519956" x2="365.27351264009735" y2="289.73699957598359" />
    <line x1="337.05203218094994" y1="274.65230399755166" x2="322.94129195137629" y2="267.10995620833569" />
    <line x1="355.9904086636684" y1="305.22492287560675" x2="342.68689486682763" y2="296.33579914729313" />
    <line x1="329.38338106998691" y1="287.44667541897951" x2="302.77635347630547" y2="269.66842796235221" />
    <line x1="276.169325882624" y1="251.89018050572497" x2="262.86581208578326" y2="243.00105677741135" />
    <line x1="332.86575616493985" y1="309.57807173949243" x2="320.49758891113606" y2="299.42777919287408" />
    <line x1="333.10764773832477" y1="333.10764773832477" x2="299.16652224137044" y2="299.16652224137044" />
    <line x1="287.85281374238571" y1="287.85281374238571" x2="276.53910524340097" y2="276.53910524340097" />
    <line x1="253.91168824543144" y1="253.91168824543144" x2="242.59797974644667" y2="242.59797974644664" />
    <line x1="231.2842712474619" y1="231.2842712474619" x2="219.97056274847714" y2="219.97056274847714" />
    <line x1="329.87865683272912" y1="357.60209067254743" x2="309.57807173949243" y2="332.86575616493985" />
    <line x1="305.22492287560681" y1="355.99040866366835" x2="296.33579914729319" y2="342.68689486682763" />
    <line x1="269.66842796235227" y1="302.77635347630542" x2="260.77930423403865" y2="289.4728396794647" />
    <line x1="289.73699957598359" y1="365.27351264009729" x2="274.65230399755166" y2="337.05203218094994" />
    <line x1="273.41375155517653" y1="372.99383398207675" x2="267.29081663733507" y2="358.21176146189617" />
    <line x1="255.04494680165223" y1="328.64761642153496" x2="248.9220118838108" y2="313.86554390135439" />
    <line x1="236.6761420481279" y1="284.30139886099323" x2="230.55320713028647" y2="269.51932634081265" />
    <line x1="261.05693545089247" y1="394.38806714644176" x2="256.41238061482107" y2="379.0770217747264" />
    <line x1="247.12327094267829" y1="348.4549310312957" x2="242.4787161066069" y2="333.14388565958041" />
    <line x1="238.89661925096766" y1="383.46449159419438" x2="232.65372894645154" y2="352.079362621291" />
    <line x1="229.53228379419349" y1="336.38679813483935" x2="220.16794833741932" y2="289.30910467548426" />
    <line x1="221.03515382063918" y1="386.11398970768425" x2="219.46687957536622" y2="370.19103408092906" />
    <line x1="217.89860533009323" y1="354.26807845417392" x2="216.33033108482027" y2="338.34512282741878" />
    <line x1="203" y1="307" x2="203" y2="291" />
    <line x1="203" y1="243" x2="203" y2="227" />
    <line x1="186.53312042463381" y1="370.19103408092906" x2="188.1013946699068" y2="354.268078454174" />
    <line x1="167.1033807490324" y1="383.46449159419438" x2="170.22482590129044" y2="367.77192710774273" />
    <line x1="182.71060651032266" y1="305.001669161936" x2="185.83205166258071" y2="289.30910467548426" />
    <line x1="154.23217422125038" y1="363.76597640301111" x2="163.52128389339316" y2="333.14388565958041" />
    <line x1="132.5862484448235" y1="372.99383398207681" x2="138.70918336266493" y2="358.21176146189623" />
    <line x1="163.20092303403067" y1="299.08347138117381" x2="169.3238579518721" y2="284.30139886099323" />
    <line x1="116.26300042401644" y1="365.27351264009735" x2="138.89004379166431" y2="322.94129195137629" />
    <line x1="100.77507712439324" y1="355.9904086636684" x2="118.55332458102051" y2="329.38338106998691" />
    <line x1="136.33157203764776" y1="302.77635347630547" x2="145.22069576596141" y2="289.47283967946476" />
    <line x1="154.10981949427503" y1="276.169325882624" x2="162.99894322258865" y2="262.86581208578326" />
    <line x1="76.12134316727095" y1="357.60209067254743" x2="96.4219282605076" y2="332.86575616493985" />
    <line x1="72.892352261675256" y1="333.10764773832477" x2="84.206060760660023" y2="321.79393923934003" />
    <line x1="118.14718625761431" y1="287.85281374238571" x2="129.46089475659906" y2="276.53910524340097" />
    <line x1="140.77460325558383" y1="265.22539674441617" x2="174.7157287525381" y2="231.2842712474619" />
    <line x1="60.766076581256442" y1="319.72836428611083" x2="85.502411088864022" y2="299.4277791928742" />
    <line x1="50.009591336331681" y1="305.22492287560681" x2="129.83067411737602" y2="251.890180505725" />
    <line x1="26.615747130328998" y1="297.27934736519956" x2="40.726487359902706" y2="289.73699957598359" />
    <line x1="33.006166017923277" y1="273.41375155517665" x2="47.788238538103855" y2="267.29081663733518" />
    <line x1="62.57031105828446" y1="261.16788171949372" x2="92.134456098645614" y2="248.92201188381085" />
    <line x1="121.69860113900678" y1="236.67614204812796" x2="136.48067365918737" y2="230.5532071302865" />
    <line x1="151.26274617936795" y1="224.43027221244506" x2="166.04481869954856" y2="218.3073372946036" />
    <line x1="11.611932853558244" y1="261.05693545089247" x2="42.234023596988919" y2="251.76782577874968" />
    <line x1="57.545068968704271" y1="247.12327094267829" x2="72.8561143404196" y2="242.4787161066069" />
    <line x1="38.2280728922573" y1="235.77517409870961" x2="53.920637378708989" y2="232.65372894645157" />
    <line x1="116.69089532451574" y1="220.16794833741932" x2="132.38345981096742" y2="217.04650318516127" />
    <line x1="19.886010292315774" y1="221.03515382063912" x2="51.731921545826054" y2="217.89860533009318" />
    <line x1="19" y1="203.00000000000003" x2="35" y2="203.00000000000003" />
    <line x1="51" y1="203.00000000000003" x2="67" y2="203.00000000000003" />
    <line x1="99" y1="203.00000000000003" x2="131" y2="203" />
    <line x1="147" y1="203" x2="179" y2="203" />
    <line x1="3.9630546655606054" y1="183.39657193408797" x2="19.886010292315774" y2="184.96484617936093" />
    <line x1="35.808965919070914" y1="186.53312042463389" x2="51.731921545826054" y2="188.10139466990688" />
    <line x1="22.535508405805615" y1="167.1033807490324" x2="38.228072892257273" y2="170.22482590129044" />
    <line x1="53.920637378708989" y1="173.34627105354849" x2="69.613201865160647" y2="176.46771620580654" />
    <line x1="85.305766351612348" y1="179.58916135806462" x2="100.99833083806404" y2="182.71060651032266" />
    <line x1="26.922978225273567" y1="149.58761938517898" x2="57.545068968704243" y2="158.87672905732177" />
    <line x1="18.224093497742672" y1="126.463313526982" x2="47.788238538103855" y2="138.70918336266487" />
    <line x1="77.352383578465023" y1="150.95505319834777" x2="92.1344560986456" y2="157.0779881161892" />
    <line x1="106.91652861882619" y1="163.20092303403064" x2="166.04481869954853" y2="187.6926627053964" />
    <line x1="40.726487359902677" y1="116.26300042401644" x2="54.837227589476356" y2="123.80534821323241" />
    <line x1="63.313105133172371" y1="109.66420085270688" x2="76.61661893001309" y2="118.55332458102052" />
    <line x1="89.920132726853822" y1="127.44244830933415" x2="129.83067411737602" y2="154.10981949427503" />
    <line x1="73.1342438350602" y1="96.421928260507542" x2="97.870578342667784" y2="116.72251335374421" />
    <line x1="61.578643762690461" y1="61.578643762690518" x2="84.20606076066" y2="84.206060760660051" />
    <line x1="106.83347775862951" y1="106.83347775862956" x2="129.46089475659903" y2="129.46089475659909" />
    <line x1="163.40202025355333" y1="163.40202025355336" x2="174.7157287525381" y2="174.7157287525381" />
    <line x1="96.421928260507485" y1="73.134243835060232" x2="106.57222080712582" y2="85.502411088864022" />
    <line x1="91.885953396079572" y1="36.706077539490963" x2="109.66420085270684" y2="63.3131051331724" />
    <line x1="118.55332458102046" y1="76.616618930013118" x2="136.33157203764773" y2="103.22364652369457" />
    <line x1="145.22069576596138" y1="116.5271603205353" x2="162.99894322258865" y2="143.13418791421674" />
    <line x1="116.26300042401638" y1="40.726487359902706" x2="131.34769600244832" y2="68.947967819050064" />
    <line x1="138.70918336266482" y1="47.788238538103855" x2="144.83211828050625" y2="62.57031105828446" />
    <line x1="163.20092303403061" y1="106.91652861882621" x2="169.32385795187204" y2="121.69860113900678" />
    <line x1="175.44679286971348" y1="136.48067365918737" x2="187.69266270539637" y2="166.04481869954856" />
    <line x1="149.5876193851789" y1="26.922978225273567" x2="154.23217422125032" y2="42.234023596988919" />
    <line x1="158.87672905732171" y1="57.545068968704271" x2="163.5212838933931" y2="72.8561143404196" />
    <line x1="185.83205166258068" y1="116.69089532451574" x2="188.95349681483873" y2="132.38345981096742" />
    <line x1="183.39657193408789" y1="3.9630546655606054" x2="184.96484617936088" y2="19.886010292315774" />
    <line x1="186.53312042463384" y1="35.808965919070914" x2="189.66966891517978" y2="67.654877172581223" />
  </g>
  <path fill="none" stroke="#ff0000" stroke-width="2" stroke-linecap="square" stroke-linejoin="round" d="M 212.8135348654836,3.2409087589655314 L 212.42099347086426,11.231272408606912 A 192,192 0 0,0 193.57900652913574,11.231272408606912 L 194.36408931837443,27.211999707889646 A 176,176 0 0,0 160.23548833702552,32.274499437760284 L 164.12317121547773,47.794999488872975 A 160,160 0 0,0 149.09762345724479,52.352949570716675 L 154.48786111152032,67.417654613645 A 144,144 0 0,0 128.96920483617606,79.48708015996084 L 137.19484874326759,93.210737919965183 A 128,128 0 0,1 190.45380603781626,75.6163549859588 L 192.02208028308922,91.539310612713948 A 112,112 0 0,1 235.51188385249978,95.822682397992608 L 240.15643868857117,80.51163702627727 A 128,128 0 0,1 263.33878231372768,90.114078163410554 L 255.79643452451174,104.22481839298423 A 112,112 0 0,1 274.05204782632831,116.42282922337346 L 284.20234037294665,104.05466196956967 A 128,128 0 0,1 301.94533803043032,121.79765962705338 L 289.57717077662653,131.9479521736717 A 112,112 0 0,1 314.46068938728604,192.0220802830892 L 298.5377337605309,193.59035452836216 A 96,96 0 0,1 298.5377337605309,212.40964547163782 L 282.61477813377576,210.84137122636486 A 80,80 0 0,1 279.5552268585767,226.22277418035696 L 264.24418148686135,221.57821934428557 A 64,64 0 0,1 252.47266901521516,243.6011701864733 L 264.84083626901895,253.75146273309161 A 80,80 0 0,1 240.71173894607983,273.55370114786842 L 233.16939115686387,259.44296091829472 A 64,64 0 0,1 209.2730969810919,266.69182250702062 L 210.84137122636486,282.61477813377576 A 80,80 0 0,1 165.2882610539202,273.55370114786842 L 157.74591326470423,287.66444137744207 A 96,96 0 0,1 128.79099647717729,263.90175527971 L 141.15916373098108,253.75146273309167 A 80,80 0 0,1 132.44629885213161,240.71173894607983 L 118.33555862255793,248.2540867352958 A 96,96 0 0,1 107.4622662394691,212.40964547163782 L 91.539310612713948,213.97791971691078 A 112,112 0 0,1 91.539310612713948,192.02208028308928 L 107.46226623946909,193.59035452836224 A 96,96 0 0,1 111.13372776970795,175.13267098357164 L 126.44477314142328,179.77722581964304 A 80,80 0 0,0 123.38522186622424,195.1586287736352 L 139.30817749297938,196.72690301890816 A 64,64 0 0,0 140.22974205419325,215.48578060903225 L 171.61487102709663,209.24289030451612 A 32,32 0 0,0 190.75413016431713,232.56414504036118 L 193.81559762323786,225.17310878027089" />
  <type>Circular</type>
</svg>