<?xml version="1.0" encoding="utf-8" standalone="no"?>
<!DOCTYPE svg PUBLIC "-//W3C//DTD SVG 1.1//EN" "http://www.w3.org/Graphics/SVG/1.1/DTD/svg11.dtd"[]>
<svg width="404" height="404" version="1.1" xmlns="http://www.w3.org/2000/svg">
  <title>25 cells diameter theta maze</title>
  <g fill="none" stroke="#000000" stroke-width="2" stroke-linecap="square">
    <path d="M 186.02943725152286,219.97056274847714 A 24,24 0 1,1 203,227" />
    <path d="M 203,163 A 40,40 0 0,1 218.3073372946036,166.04481869954853" />
    <path d="M 231.2842712474619,174.7157287525381 A 40,40 0 0,1 239.95518130045147,187.6926627053964" />
    <path d="M 243,203 A 40,40 0 0,1 239.95518130045147,218.3073372946036" />
    <path d="M 231.2842712474619,231.2842712474619 A 40,40 0 0,1 203,243" />
    <path d="M 187.6926627053964,239.95518130045147 A 40,40 0 0,1 174.7157287525381,231.2842712474619" />
    <path d="M 166.04481869954853,218.3073372946036 A 40,40 0 0,1 166.04481869954853,187.6926627053964" />
    <path d="M 174.7157287525381,174.7157287525381 A 40,40 0 0,1 187.69266270539637,166.04481869954856" />
    <path d="M 224.43027221244503,151.26274617936795 A 56,56 0 0,1 242.59797974644667,163.40202025355333" />
    <path d="M 224.43027221244503,254.73725382063205 A 56,56 0 0,1 181.569727787555,254.73725382063208" />
    <path d="M 163.40202025355336,242.59797974644667 A 56,56 0 0,1 151.26274617936795,224.43027221244506" />
    <path d="M 151.26274617936795,181.56972778755497 A 56,56 0 0,1 163.40202025355333,163.40202025355336" />
    <path d="M 203,131 A 72,72 0 0,1 243.00105677741135,143.13418791421674" />
    <path d="M 253.91168824543144,152.08831175456857 A 72,72 0 0,1 262.86581208578326,162.99894322258865" />
    <path d="M 269.51932634081265,175.44679286971353 A 72,72 0 0,1 217.04650318516127,273.61654018903261" />
    <path d="M 188.95349681483876,273.61654018903261 A 72,72 0 0,1 152.08831175456859,253.91168824543144" />
    <path d="M 136.48067365918737,230.5532071302865 A 72,72 0 0,1 132.3834598109674,188.95349681483876" />
    <path d="M 136.48067365918735,175.44679286971353 A 72,72 0 0,1 143.13418791421674,162.99894322258865" />
    <path d="M 152.08831175456857,152.08831175456859 A 72,72 0 0,1 162.99894322258865,143.13418791421674" />
    <path d="M 169.32385795187204,121.69860113900678 A 88,88 0 0,1 220.16794833741929,116.69089532451572" />
    <path d="M 236.6761420481279,121.69860113900677 A 88,88 0 0,1 251.890180505725,129.83067411737602" />
    <path d="M 276.169325882624,154.109819494275 A 88,88 0 0,1 284.30139886099323,169.3238579518721" />
    <path d="M 289.30910467548426,220.16794833741929 A 88,88 0 0,1 276.169325882624,251.89018050572497" />
    <path d="M 265.22539674441617,265.22539674441617 A 88,88 0 0,1 251.89018050572497,276.169325882624" />
    <path d="M 236.6761420481279,284.30139886099323 A 88,88 0 0,1 220.16794833741932,289.30910467548426" />
    <path d="M 169.32385795187213,284.30139886099323 A 88,88 0 0,1 154.10981949427503,276.169325882624" />
    <path d="M 129.83067411737602,251.890180505725 A 88,88 0 0,1 115,203.00000000000003" />
    <path d="M 116.69089532451572,185.83205166258071 A 88,88 0 0,1 129.830674117376,154.10981949427503" />
    <path d="M 140.7746032555838,140.77460325558383 A 88,88 0 0,1 154.109819494275,129.83067411737602" />
    <path d="M 203,99 A 104,104 0 0,1 276.53910524340097,129.46089475659906" />
    <path d="M 299.08347138117381,163.20092303403067 A 104,104 0 0,1 305.001669161936,182.71060651032266" />
    <path d="M 307,203 A 104,104 0 0,1 260.77930423403859,289.4728396794647" />
    <path d="M 182.71060651032266,305.001669161936 A 104,104 0 0,1 163.20092303403067,299.08347138117381" />
    <path d="M 116.52716032053529,260.77930423403865 A 104,104 0 0,1 106.91652861882621,242.79907696596939" />
    <path d="M 99,203.00000000000003 A 104,104 0 0,1 116.52716032053527,145.22069576596141" />
    <path d="M 145.22069576596135,116.5271603205353 A 104,104 0 0,1 163.20092303403061,106.91652861882621" />
    <path d="M 203,83 A 120,120 0 0,1 248.92201188381077,92.134456098645586" />
    <path d="M 269.66842796235227,103.22364652369457 A 120,120 0 0,1 287.85281374238571,118.14718625761429" />
    <path d="M 302.77635347630542,136.33157203764773 A 120,120 0 0,1 323,203" />
    <path d="M 269.66842796235227,302.77635347630542 A 120,120 0 0,1 136.33157203764779,302.77635347630547" />
    <path d="M 118.14718625761431,287.85281374238571 A 120,120 0 0,1 103.22364652369457,269.66842796235227" />
    <path d="M 92.134456098645614,248.92201188381085 A 120,120 0 0,1 83,203.00000000000003" />
    <path d="M 85.305766351612348,179.58916135806462 A 120,120 0 0,1 103.22364652369454,136.33157203764779" />
    <path d="M 118.14718625761428,118.14718625761432 A 120,120 0 0,1 179.58916135806456,85.305766351612363" />
    <path d="M 189.66966891517978,67.654877172581223 A 136,136 0 0,1 242.4787161066069,72.8561143404196" />
    <path d="M 267.10995620833569,83.058708048623714 A 136,136 0 0,1 316.07986727314614,127.4424483093341" />
    <path d="M 322.94129195137629,138.89004379166431 A 136,136 0 0,1 333.14388565958041,163.52128389339313" />
    <path d="M 336.38679813483935,176.46771620580654 A 136,136 0 0,1 338.34512282741878,216.33033108482024" />
    <path d="M 333.14388565958041,242.47871610660687 A 136,136 0 0,1 255.04494680165223,328.64761642153496" />
    <path d="M 229.53228379419349,336.3867981348393 A 136,136 0 0,1 203.00000000000003,339" />
    <path d="M 189.66966891517976,338.34512282741878 A 136,136 0 0,1 138.89004379166431,322.94129195137629" />
    <path d="M 127.44244830933414,316.07986727314619 A 136,136 0 0,1 116.72251335374423,308.12942165733227" />
    <path d="M 97.870578342667812,289.27748664625585 A 136,136 0 0,1 77.352383578465037,255.04494680165229" />
    <path d="M 72.8561143404196,242.4787161066069 A 136,136 0 0,1 69.613201865160676,229.53228379419349" />
    <path d="M 67,203.00000000000003 A 136,136 0 0,1 67.654877172581223,189.66966891517984" />
    <path d="M 83.058708048623714,138.89004379166431 A 136,136 0 0,1 89.920132726853822,127.44244830933414" />
    <path d="M 97.870578342667784,116.72251335374421 A 136,136 0 0,1 150.95505319834771,77.352383578465037" />
    <path d="M 163.5212838933931,72.8561143404196 A 136,136 0 0,1 176.46771620580648,69.613201865160676" />
    <path d="M 203,51 A 152,152 0 0,1 261.16788171949366,62.5703110582844" />
    <path d="M 274.65230399755166,68.947967819050035 A 152,152 0 0,1 310.48023074035524,95.519769259644775" />
    <path d="M 320.497588911136,106.57222080712587 A 152,152 0 0,1 352.079362621291,173.34627105354849" />
    <path d="M 354.26807845417392,217.89860533009323 A 152,152 0 0,1 352.079362621291,232.65372894645148" />
    <path d="M 348.45493103129576,247.12327094267826 A 152,152 0 0,1 343.4296889417156,261.16788171949361" />
    <path d="M 320.49758891113606,299.42777919287408 A 152,152 0 0,1 274.65230399755166,337.05203218094994" />
    <path d="M 203.00000000000003,355 A 152,152 0 0,1 144.83211828050636,343.4296889417156" />
    <path d="M 131.34769600244835,337.05203218094994 A 152,152 0 0,1 68.947967819050064,274.65230399755171" />
    <path d="M 62.57031105828446,261.16788171949372 A 152,152 0 0,1 57.545068968704243,247.12327094267829" />
    <path d="M 53.920637378708989,232.65372894645157 A 152,152 0 0,1 51.731921545826083,217.89860533009318" />
    <path d="M 51,203.00000000000003 A 152,152 0 0,1 68.947967819050035,131.34769600244837" />
    <path d="M 95.519769259644747,95.5197692596448 A 152,152 0 0,1 106.57222080712582,85.502411088864037" />
    <path d="M 118.55332458102046,76.616618930013118 A 152,152 0 0,1 131.34769600244832,68.947967819050064" />
    <path d="M 144.83211828050625,62.57031105828446 A 152,152 0 0,1 158.87672905732171,57.545068968704271" />
    <path d="M 173.34627105354844,53.920637378708989 A 152,152 0 0,1 188.1013946699068,51.731921545826083" />
    <path d="M 203,35 A 168,168 0 0,1 219.46687957536619,35.808965919070914" />
    <path d="M 251.76782577874968,42.234023596988919 A 168,168 0 0,1 282.19465178676762,54.837227589476356" />
    <path d="M 296.33579914729319,63.3131051331724 A 168,168 0 0,1 332.8657561649398,96.421928260507556" />
    <path d="M 342.68689486682763,109.66420085270683 A 168,168 0 0,1 370.19103408092906,186.53312042463378" />
    <path d="M 370.19103408092906,219.46687957536619 A 168,168 0 0,1 363.76597640301111,251.76782577874965" />
    <path d="M 342.68689486682763,296.33579914729313 A 168,168 0 0,1 332.86575616493985,309.57807173949243" />
    <path d="M 321.79393923934,321.79393923934 A 168,168 0 0,1 267.29081663733507,358.21176146189617" />
    <path d="M 219.46687957536622,370.19103408092906 A 168,168 0 0,1 170.22482590129044,367.77192710774273" />
    <path d="M 109.66420085270688,342.68689486682763 A 168,168 0 0,1 54.837227589476385,282.19465178676762" />
    <path d="M 47.788238538103855,267.29081663733518 A 168,168 0 0,1 42.234023596988919,251.76782577874968" />
    <path d="M 38.2280728922573,235.77517409870961 A 168,168 0 0,1 35.808965919070914,219.46687957536616" />
    <path d="M 35.808965919070914,186.53312042463392 A 168,168 0 0,1 38.228072892257273,170.22482590129044" />
    <path d="M 47.788238538103855,138.70918336266487 A 168,168 0 0,1 73.1342438350602,96.421928260507542" />
    <path d="M 96.421928260507485,73.134243835060261 A 168,168 0 0,1 109.66420085270683,63.3131051331724" />
    <path d="M 123.80534821323235,54.837227589476385 A 168,168 0 0,1 138.70918336266482,47.788238538103855" />
    <path d="M 154.23217422125032,42.234023596988919 A 168,168 0 0,1 170.22482590129039,38.2280728922573" />
    <path d="M 184.96484617936088,19.886010292315774 A 184,184 0 0,1 203,19" />
    <path d="M 238.8966192509676,22.535508405805587 A 184,184 0 0,1 305.22492287560681,50.009591336331681" />
    <path d="M 319.72836428611078,60.766076581256385 A 184,184 0 0,1 355.99040866366829,100.77507712439318" />
    <path d="M 372.99383398207675,132.58624844482347 A 184,184 0 0,1 379.0770217747264,149.58761938517893" />
    <path d="M 386.11398970768425,184.96484617936082 A 184,184 0 0,1 386.11398970768425,221.03515382063915" />
    <path d="M 372.99383398207681,273.41375155517653 A 184,184 0 0,1 355.99040866366835,305.22492287560675" />
    <path d="M 345.23392341874364,319.72836428611072 A 184,184 0 0,1 333.10764773832477,333.10764773832477" />
    <path d="M 289.73699957598359,365.27351264009729 A 184,184 0 0,1 273.41375155517653,372.99383398207675" />
    <path d="M 256.41238061482107,379.0770217747264 A 184,184 0 0,1 203.00000000000003,387" />
    <path d="M 167.1033807490324,383.46449159419444 A 184,184 0 0,1 132.58624844482353,372.99383398207681" />
    <path d="M 116.26300042401644,365.27351264009735 A 184,184 0 0,1 86.271635713889268,345.23392341874364" />
    <path d="M 72.892352261675285,333.10764773832477 A 184,184 0 0,1 33.006166017923277,273.41375155517665" />
    <path d="M 26.922978225273567,256.41238061482107 A 184,184 0 0,1 22.535508405805615,238.89661925096766" />
    <path d="M 19.886010292315774,221.03515382063912 A 184,184 0 0,1 19,203.00000000000003" />
    <path d="M 22.535508405805587,167.1033807490324 A 184,184 0 0,1 40.726487359902677,116.26300042401645" />
    <path d="M 50.009591336331624,100.77507712439326 A 184,184 0 0,1 72.892352261675228,72.892352261675285" />
    <path d="M 100.77507712439319,50.009591336331681 A 184,184 0 0,1 116.26300042401638,40.726487359902706" />
    <path d="M 132.58624844482335,33.006166017923277 A 184,184 0 0,1 149.5876193851789,26.922978225273567" />
    <path d="M 222.60342806591211,3.9630546655606338 A 200,200 0 1,1 203,3" />
  </g>
  <g fill="none" stroke="#000000" stroke-width="2" stroke-linecap="butt">
    <line x1="203" y1="3" x2="203" y2="19" />
    <line x1="203" y1="67" x2="203" y2="83" />
    <line x1="203" y1="147" x2="203" y2="179" />
    <line x1="221.03515382063915" y1="19.886010292315774" x2="217.8986053300932" y2="51.731921545826054" />
    <line x1="238.8966192509676" y1="22.535508405805615" x2="232.65372894645151" y2="53.920637378708989" />
    <line x1="220.16794833741929" y1="116.69089532451572" x2="217.04650318516124" y2="132.3834598109674" />
    <line x1="261.16788171949366" y1="62.5703110582844" x2="236.6761420481279" y2="121.69860113900677" />
    <line x1="282.19465178676762" y1="54.837227589476356" x2="267.10995620833569" y2="83.058708048623714" />
    <line x1="305.22492287560681" y1="50.009591336331681" x2="296.33579914729319" y2="63.3131051331724" />
    <line x1="309.57807173949243" y1="73.134243835060175" x2="299.42777919287414" y2="85.50241108886398" />
    <line x1="287.85281374238571" y1="118.14718625761429" x2="265.22539674441617" y2="140.77460325558383" />
    <line x1="253.91168824543144" y1="152.08831175456857" x2="242.59797974644664" y2="163.40202025355333" />
    <line x1="332.86575616493985" y1="96.421928260507556" x2="320.497588911136" y2="106.57222080712589" />
    <line x1="355.99040866366829" y1="100.77507712439318" x2="342.68689486682763" y2="109.66420085270681" />
    <line x1="302.77635347630542" y1="136.33157203764773" x2="289.4728396794647" y2="145.22069576596135" />
    <line x1="276.169325882624" y1="154.109819494275" x2="262.86581208578326" y2="162.99894322258865" />
    <line x1="379.384252869671" y1="108.72065263480044" x2="365.27351264009729" y2="116.2630004240164" />
    <line x1="328.64761642153496" y1="150.9550531983478" x2="313.86554390135439" y2="157.0779881161892" />
    <line x1="299.08347138117381" y1="163.20092303403067" x2="239.95518130045147" y2="187.6926627053964" />
    <line x1="394.38806714644181" y1="144.94306454910753" x2="379.0770217747264" y2="149.58761938517893" />
    <line x1="383.46449159419438" y1="167.1033807490324" x2="367.77192710774273" y2="170.22482590129044" />
    <line x1="352.079362621291" y1="173.34627105354849" x2="336.38679813483935" y2="176.46771620580654" />
    <line x1="289.30910467548426" y1="185.83205166258071" x2="273.61654018903261" y2="188.95349681483876" />
    <line x1="402.03694533443934" y1="183.39657193408783" x2="370.19103408092906" y2="186.53312042463378" />
    <line x1="354.26807845417392" y1="188.10139466990677" x2="338.34512282741878" y2="189.66966891517973" />
    <line x1="387" y1="203" x2="371" y2="203" />
    <line x1="355" y1="203" x2="339" y2="203" />
    <line x1="323" y1="203" x2="307" y2="203" />
    <line x1="291" y1="203" x2="259" y2="203" />
    <line x1="243" y1="203" x2="227" y2="203" />
    <line x1="370.19103408092906" y1="219.46687957536619" x2="338.34512282741878" y2="216.33033108482024" />
    <line x1="383.46449159419438" y1="238.8966192509676" x2="367.77192710774273" y2="235.77517409870953" />
    <line x1="336.38679813483935" y1="229.53228379419343" x2="289.30910467548426" y2="220.16794833741929" />
    <line x1="394.38806714644181" y1="261.05693545089241" x2="379.0770217747264" y2="256.412380614821" />
    <line x1="363.76597640301111" y1="251.76782577874965" x2="348.45493103129576" y2="247.12327094267823" />
    <line x1="387.77590650225738" y1="279.53668647301794" x2="343.4296889417156" y2="261.16788171949361" />
    <line x1="328.64761642153496" y1="255.0449468016522" x2="313.86554390135439" y2="248.92201188381077" />
    <line x1="269.51932634081265" y1="230.55320713028647" x2="254.73725382063205" y2="224.43027221244503" />
    <line x1="365.27351264009735" y1="289.73699957598359" x2="337.05203218094994" y2="274.65230399755166" />
    <line x1="355.9904086636684" y1="305.22492287560675" x2="329.38338106998691" y2="287.44667541897951" />
    <line x1="316.07986727314619" y1="278.55755169066583" x2="302.77635347630547" y2="269.66842796235221" />
    <line x1="357.60209067254743" y1="329.87865683272906" x2="345.23392341874364" y2="319.72836428611072" />
    <line x1="320.49758891113606" y1="299.42777919287408" x2="308.12942165733227" y2="289.27748664625574" />
    <line x1="333.10764773832477" y1="333.10764773832477" x2="321.79393923934" y2="321.79393923934" />
    <line x1="299.16652224137044" y1="299.16652224137044" x2="265.22539674441617" y2="265.22539674441617" />
    <line x1="253.91168824543144" y1="253.91168824543144" x2="231.2842712474619" y2="231.2842712474619" />
    <line x1="329.87865683272912" y1="357.60209067254743" x2="319.72836428611078" y2="345.23392341874364" />
    <line x1="305.22492287560681" y1="355.99040866366835" x2="296.33579914729319" y2="342.68689486682763" />
    <line x1="251.890180505725" y1="276.169325882624" x2="243.00105677741135" y2="262.86581208578326" />
    <line x1="279.536686473018" y1="387.77590650225738" x2="273.41375155517653" y2="372.99383398207675" />
    <line x1="267.29081663733507" y1="358.21176146189617" x2="255.04494680165223" y2="328.64761642153496" />
    <line x1="242.79907696596933" y1="299.08347138117381" x2="236.6761420481279" y2="284.30139886099323" />
    <line x1="256.41238061482107" y1="379.0770217747264" x2="242.4787161066069" y2="333.14388565958041" />
    <line x1="238.89661925096766" y1="383.46449159419438" x2="232.65372894645154" y2="352.079362621291" />
    <line x1="226.41083864193544" y1="320.69423364838764" x2="223.28939348967737" y2="305.001669161936" />
    <line x1="220.16794833741932" y1="289.30910467548426" x2="217.04650318516127" y2="273.61654018903261" />
    <line x1="222.60342806591217" y1="402.03694533443934" x2="221.03515382063918" y2="386.11398970768425" />
    <line x1="219.46687957536622" y1="370.19103408092906" x2="217.89860533009323" y2="354.26807845417392" />
    <line x1="203.00000000000003" y1="355" x2="203.00000000000003" y2="339" />
    <line x1="203.00000000000003" y1="323" x2="203" y2="259" />
    <line x1="203" y1="243" x2="203" y2="227" />
    <line x1="184.96484617936085" y1="386.11398970768425" x2="186.53312042463381" y2="370.19103408092906" />
    <line x1="188.1013946699068" y1="354.268078454174" x2="189.66966891517976" y2="338.34512282741878" />
    <line x1="167.1033807490324" y1="383.46449159419438" x2="173.34627105354849" y2="352.079362621291" />
    <line x1="185.83205166258071" y1="289.30910467548426" x2="188.95349681483876" y2="273.61654018903261" />
    <line x1="154.23217422125038" y1="363.76597640301111" x2="158.87672905732177" y2="348.45493103129576" />
    <line x1="138.70918336266493" y1="358.21176146189623" x2="144.83211828050636" y2="343.4296889417156" />
    <line x1="157.07798811618923" y1="313.86554390135444" x2="163.20092303403067" y2="299.08347138117381" />
    <line x1="181.56972778755497" y1="254.73725382063208" x2="187.6926627053964" y2="239.95518130045147" />
    <line x1="116.26300042401644" y1="365.27351264009735" x2="138.89004379166431" y2="322.94129195137629" />
    <line x1="100.77507712439324" y1="355.9904086636684" x2="109.66420085270687" y2="342.68689486682763" />
    <line x1="127.44244830933414" y1="316.07986727314619" x2="162.99894322258865" y2="262.86581208578326" />
    <line x1="76.12134316727095" y1="357.60209067254743" x2="86.271635713889268" y2="345.23392341874364" />
    <line x1="95.519769259644789" y1="310.48023074035524" x2="140.77460325558383" y2="265.22539674441617" />
    <line x1="152.08831175456857" y1="253.91168824543144" x2="163.40202025355336" y2="242.59797974644667" />
    <line x1="174.7157287525381" y1="231.2842712474619" x2="186.02943725152286" y2="219.97056274847714" />
    <line x1="89.920132726853851" y1="278.55755169066589" x2="103.22364652369457" y2="269.66842796235227" />
    <line x1="116.5271603205353" y1="260.77930423403865" x2="143.13418791421674" y2="243.00105677741135" />
    <line x1="40.726487359902706" y1="289.73699957598359" x2="54.837227589476356" y2="282.19465178676762" />
    <line x1="47.788238538103855" y1="267.29081663733518" x2="62.57031105828446" y2="261.16788171949372" />
    <line x1="92.134456098645614" y1="248.92201188381085" x2="106.91652861882621" y2="242.79907696596939" />
    <line x1="136.48067365918737" y1="230.5532071302865" x2="151.26274617936795" y2="224.43027221244506" />
    <line x1="26.922978225273567" y1="256.41238061482107" x2="42.234023596988919" y2="251.76782577874968" />
    <line x1="57.545068968704271" y1="247.12327094267829" x2="72.8561143404196" y2="242.4787161066069" />
    <line x1="22.535508405805615" y1="238.89661925096766" x2="38.2280728922573" y2="235.77517409870961" />
    <line x1="69.613201865160676" y1="229.53228379419349" x2="100.99833083806405" y2="223.28939348967737" />
    <line x1="3.9630546655606054" y1="222.60342806591208" x2="19.886010292315774" y2="221.03515382063912" />
    <line x1="35.808965919070914" y1="219.46687957536616" x2="67.654877172581223" y2="216.33033108482022" />
    <line x1="35" y1="203.00000000000003" x2="51" y2="203.00000000000003" />
    <line x1="67" y1="203.00000000000003" x2="83" y2="203.00000000000003" />
    <line x1="99" y1="203.00000000000003" x2="115" y2="203.00000000000003" />
    <line x1="131" y1="203" x2="147" y2="203" />
    <line x1="3.9630546655606054" y1="183.39657193408797" x2="19.886010292315774" y2="184.96484617936093" />
    <line x1="22.535508405805615" y1="167.1033807490324" x2="38.228072892257273" y2="170.22482590129044" />
    <line x1="53.920637378708989" y1="173.34627105354849" x2="69.613201865160647" y2="176.46771620580654" />
    <line x1="116.69089532451572" y1="185.83205166258071" x2="132.3834598109674" y2="188.95349681483876" />
    <line x1="42.234023596988891" y1="154.23217422125038" x2="72.8561143404196" y2="163.52128389339316" />
    <line x1="18.224093497742672" y1="126.463313526982" x2="33.006166017923249" y2="132.58624844482344" />
    <line x1="62.570311058284432" y1="144.83211828050634" x2="77.352383578465023" y2="150.95505319834777" />
    <line x1="136.48067365918735" y1="175.44679286971353" x2="166.04481869954853" y2="187.6926627053964" />
    <line x1="54.837227589476356" y1="123.80534821323241" x2="83.058708048623714" y2="138.89004379166431" />
    <line x1="63.313105133172371" y1="109.66420085270688" x2="76.61661893001309" y2="118.55332458102052" />
    <line x1="89.920132726853822" y1="127.44244830933415" x2="116.52716032053527" y2="145.22069576596141" />
    <line x1="129.83067411737602" y1="154.10981949427503" x2="143.13418791421674" y2="162.99894322258865" />
    <line x1="48.397909327452624" y1="76.121343167270879" x2="97.870578342667784" y2="116.72251335374421" />
    <line x1="72.892352261675228" y1="72.892352261675285" x2="95.519769259644747" y2="95.5197692596448" />
    <line x1="118.14718625761428" y1="118.14718625761432" x2="129.46089475659903" y2="129.46089475659909" />
    <line x1="140.7746032555838" y1="140.77460325558383" x2="152.08831175456857" y2="152.08831175456859" />
    <line x1="174.7157287525381" y1="174.7157287525381" x2="186.02943725152286" y2="186.02943725152286" />
    <line x1="86.271635713889154" y1="60.766076581256442" x2="96.421928260507485" y2="73.134243835060232" />
    <line x1="91.885953396079572" y1="36.706077539490963" x2="100.77507712439319" y2="50.009591336331681" />
    <line x1="109.66420085270684" y1="63.3131051331724" x2="118.55332458102046" y2="76.616618930013118" />
    <line x1="145.22069576596138" y1="116.5271603205353" x2="154.109819494275" y2="129.83067411737602" />
    <line x1="123.80534821323235" y1="54.837227589476385" x2="131.34769600244832" y2="68.947967819050064" />
    <line x1="132.58624844482335" y1="33.006166017923277" x2="138.70918336266482" y2="47.788238538103855" />
    <line x1="144.83211828050625" y1="62.57031105828446" x2="150.95505319834771" y2="77.352383578465037" />
    <line x1="163.20092303403061" y1="106.91652861882621" x2="175.44679286971348" y2="136.48067365918737" />
    <line x1="181.56972778755494" y1="151.26274617936795" x2="187.69266270539637" y2="166.04481869954856" />
    <line x1="149.5876193851789" y1="26.922978225273567" x2="158.87672905732171" y2="57.545068968704271" />
    <line x1="167.10338074903231" y1="22.535508405805615" x2="170.22482590129039" y2="38.2280728922573" />
    <line x1="173.34627105354844" y1="53.920637378708989" x2="188.95349681483873" y2="132.38345981096742" />
    <line x1="184.96484617936088" y1="19.886010292315774" x2="188.1013946699068" y2="51.731921545826054" />
  </g>
  <path fill="none" stroke="#ff0000" stroke-width="2" stroke-linecap="square" stroke-linejoin="round" d="M 212.8135348654836,3.2409087589655314 L 211.63591068162558,27.211999707889646 A 176,176 0 0,0 194.36408931837443,27.211999707889646 L 195.9342548968518,59.17345430645517 A 144,144 0 0,0 181.87081167842783,60.558582565071561 L 184.21849926971362,76.385406724508044 A 128,128 0 0,1 190.45380603781626,75.6163549859588 L 193.59035452836218,107.4622662394691 A 96,96 0 0,1 230.86732901642839,111.13372776970795 L 226.222774180357,126.4447731414233 A 80,80 0 0,1 253.75146273309164,141.15916373098105 L 243.60117018647333,153.52733098478484 A 64,64 0 0,0 153.52733098478484,162.39882981352668 L 128.79099647717726,142.09824472029004 A 96,96 0 0,0 107.46226623946909,193.59035452836224 L 123.38522186622424,195.1586287736352 A 80,80 0 0,0 132.44629885213161,240.71173894607983 L 146.55703908170528,233.16939115686387 A 64,64 0 0,0 153.52733098478484,243.60117018647333 L 141.15916373098108,253.75146273309167 A 80,80 0 0,0 152.24853726690839,264.84083626901895 L 121.79765962705341,301.94533803043032 A 128,128 0 0,1 117.04045377958164,297.84174404543478 L 106.29551050202934,309.6969620511141 A 144,144 0 0,0 128.96920483617609,326.51291984003922 L 137.19484874326764,312.78926208003486 A 128,128 0 0,0 284.20234037294665,301.94533803043032 L 274.05204782632831,289.57717077662653 A 112,112 0 0,1 235.51188385249978,310.17731760200741 L 230.86732901642839,294.86627223029205 A 96,96 0 0,1 212.40964547163785,298.5377337605309 L 209.2730969810919,266.69182250702062 A 64,64 0 0,0 238.55649491325454,256.21405518736287 L 229.66737118494089,242.91054139052218 A 48,48 0 0,1 193.63566454322583,250.07769345935506 L 196.75710969548391,234.38512897290337 A 32,32 0 0,1 190.75413016431713,232.56414504036118 L 193.81559762323786,225.17310878027089" />
  <type>Circular</type>
</svg>