<?xml version="1.0" encoding="utf-8" standalone="no"?>
<!DOCTYPE svg PUBLIC "-//W3C//DTD SVG 1.1//EN" "http://www.w3.org/Graphics/SVG/1.1/DTD/svg11.dtd"[]>
<svg width="404" height="404" version="1.1" xmlns="http://www.w3.org/2000/svg">
  <title>25 cells diameter theta maze</title>
  <g fill="none" stroke="#000000" stroke-width="2" stroke-linecap="square">
    <path d="M 186.02943725152286,219.97056274847714 A 24,24 0 1,1 203,227" />
    <path d="M 203,163 A 40,40 0 0,1 243,203" />
    <path d="M 239.95518130045147,218.3073372946036 A 40,40 0 0,1 218.3073372946036,239.95518130045147" />
    <path d="M 203,243 A 40,40 0 0,1 174.7157287525381,231.2842712474619" />
    <path d="M 166.04481869954853,218.3073372946036 A 40,40 0 0,1 174.7157287525381,174.7157287525381" />
    <path d="M 181.56972778755494,151.26274617936795 A 56,56 0 0,1 203,147" />
    <path d="M 224.43027221244503,151.26274617936795 A 56,56 0 0,1 242.59797974644667,163.40202025355333" />
    <path d="M 254.73725382063205,181.56972778755497 A 56,56 0 0,1 259,203" />
    <path d="M 242.59797974644667,242.59797974644664 A 56,56 0 0,1 203,259" />
    <path d="M 181.569727787555,254.73725382063208 A 56,56 0 0,1 151.26274617936795,224.43027221244506" />
    <path d="M 147,203 A 56,56 0 0,1 151.26274617936795,181.56972778755497" />
    <path d="M 188.95349681483873,132.3834598109674 A 72,72 0 0,1 203,131" />
    <path d="M 217.04650318516124,132.3834598109674 A 72,72 0 0,1 253.91168824543144,152.08831175456857" />
    <path d="M 262.86581208578326,162.99894322258865 A 72,72 0 0,1 269.51932634081265,230.55320713028647" />
    <path d="M 262.86581208578326,243.00105677741135 A 72,72 0 0,1 217.04650318516127,273.61654018903261" />
    <path d="M 203,275 A 72,72 0 0,1 152.08831175456859,253.91168824543144" />
    <path d="M 136.48067365918737,230.5532071302865 A 72,72 0 0,1 132.3834598109674,217.04650318516127" />
    <path d="M 136.48067365918735,175.44679286971353 A 72,72 0 0,1 143.13418791421674,162.99894322258865" />
    <path d="M 152.08831175456857,152.08831175456859 A 72,72 0 0,1 162.99894322258865,143.13418791421674" />
    <path d="M 203,115 A 88,88 0 0,1 236.6761420481279,121.69860113900677" />
    <path d="M 251.890180505725,129.83067411737602 A 88,88 0 0,1 276.169325882624,154.109819494275" />
    <path d="M 291,203 A 88,88 0 0,1 289.30910467548426,220.16794833741929" />
    <path d="M 284.30139886099323,236.6761420481279 A 88,88 0 0,1 251.89018050572497,276.169325882624" />
    <path d="M 140.77460325558383,265.22539674441617 A 88,88 0 0,1 129.830674117376,154.10981949427503" />
    <path d="M 140.7746032555838,140.77460325558383 A 88,88 0 0,1 169.32385795187204,121.69860113900678" />
    <path d="M 182.71060651032261,100.99833083806405 A 104,104 0 0,1 203,99" />
    <path d="M 223.28939348967734,100.99833083806404 A 104,104 0 0,1 260.77930423403865,116.52716032053529" />
    <path d="M 276.53910524340097,129.46089475659906 A 104,104 0 0,1 289.4728396794647,145.22069576596135" />
    <path d="M 307,203 A 104,104 0 0,1 299.08347138117381,242.79907696596933" />
    <path d="M 289.47283967946476,260.77930423403859 A 104,104 0 0,1 260.77930423403859,289.4728396794647" />
    <path d="M 129.46089475659909,276.53910524340097 A 104,104 0 0,1 99,203.00000000000003" />
    <path d="M 100.99833083806404,182.71060651032266 A 104,104 0 0,1 106.91652861882619,163.20092303403064" />
    <path d="M 116.52716032053527,145.22069576596141 A 104,104 0 0,1 163.20092303403061,106.91652861882621" />
    <path d="M 157.07798811618915,92.134456098645614 A 120,120 0 0,1 203,83" />
    <path d="M 248.92201188381077,92.134456098645586 A 120,120 0 0,1 287.85281374238571,118.14718625761429" />
    <path d="M 302.77635347630542,136.33157203764773 A 120,120 0 0,1 323,203" />
    <path d="M 313.86554390135439,248.92201188381077 A 120,120 0 0,1 287.85281374238571,287.85281374238571" />
    <path d="M 269.66842796235227,302.77635347630542 A 120,120 0 0,1 179.58916135806459,320.69423364838764" />
    <path d="M 157.07798811618926,313.86554390135439 A 120,120 0 0,1 136.33157203764779,302.77635347630547" />
    <path d="M 85.305766351612348,226.41083864193544 A 120,120 0 0,1 85.305766351612348,179.58916135806462" />
    <path d="M 92.1344560986456,157.0779881161892 A 120,120 0 0,1 136.33157203764773,103.22364652369457" />
    <path d="M 150.95505319834771,77.352383578465037 A 136,136 0 0,1 203,67" />
    <path d="M 216.33033108482024,67.654877172581223 A 136,136 0 0,1 229.53228379419343,69.613201865160647" />
    <path d="M 255.0449468016522,77.352383578465 A 136,136 0 0,1 278.55755169066589,89.920132726853851" />
    <path d="M 289.2774866462558,97.87057834266777 A 136,136 0 0,1 336.38679813483935,176.46771620580654" />
    <path d="M 338.34512282741878,189.66966891517973 A 136,136 0 0,1 339,203" />
    <path d="M 338.34512282741878,216.33033108482024 A 136,136 0 0,1 336.38679813483935,229.53228379419343" />
    <path d="M 328.647616421535,255.0449468016522 A 136,136 0 0,1 308.12942165733227,289.27748664625574" />
    <path d="M 278.55755169066589,316.07986727314619 A 136,136 0 0,1 255.04494680165223,328.64761642153496" />
    <path d="M 242.4787161066069,333.14388565958041 A 136,136 0 0,1 216.33033108482027,338.34512282741878" />
    <path d="M 189.66966891517976,338.34512282741878 A 136,136 0 0,1 163.52128389339316,333.14388565958041" />
    <path d="M 138.89004379166431,322.94129195137629 A 136,136 0 0,1 106.83347775862956,299.16652224137044" />
    <path d="M 97.870578342667812,289.27748664625585 A 136,136 0 0,1 89.920132726853836,278.55755169066589" />
    <path d="M 83.058708048623728,267.10995620833569 A 136,136 0 0,1 72.8561143404196,242.4787161066069" />
    <path d="M 69.613201865160676,229.53228379419349 A 136,136 0 0,1 67.654877172581223,189.66966891517984" />
    <path d="M 72.8561143404196,163.52128389339316 A 136,136 0 0,1 89.920132726853822,127.44244830933414" />
    <path d="M 97.870578342667784,116.72251335374421 A 136,136 0 0,1 138.89004379166428,83.058708048623743" />
    <path d="M 203,51 A 152,152 0 0,1 261.16788171949366,62.5703110582844" />
    <path d="M 274.65230399755166,68.947967819050035 A 152,152 0 0,1 287.44667541897957,76.616618930013118" />
    <path d="M 310.48023074035524,95.519769259644775 A 152,152 0 0,1 329.38338106998685,118.55332458102046" />
    <path d="M 354.26807845417392,188.10139466990677 A 152,152 0 0,1 355,203" />
    <path d="M 354.26807845417392,217.89860533009323 A 152,152 0 0,1 348.45493103129576,247.12327094267826" />
    <path d="M 337.05203218094994,274.65230399755166 A 152,152 0 0,1 329.38338106998691,287.44667541897951" />
    <path d="M 310.48023074035524,310.48023074035518 A 152,152 0 0,1 287.44667541897951,329.38338106998685" />
    <path d="M 274.65230399755166,337.05203218094994 A 152,152 0 0,1 247.12327094267829,348.45493103129576" />
    <path d="M 232.65372894645154,352.079362621291 A 152,152 0 0,1 217.89860533009323,354.26807845417392" />
    <path d="M 158.87672905732177,348.45493103129576 A 152,152 0 0,1 144.83211828050636,343.4296889417156" />
    <path d="M 131.34769600244835,337.05203218094994 A 152,152 0 0,1 118.55332458102051,329.38338106998691" />
    <path d="M 106.57222080712592,320.49758891113606 A 152,152 0 0,1 95.519769259644789,310.48023074035524" />
    <path d="M 68.947967819050064,274.65230399755171 A 152,152 0 0,1 57.545068968704243,247.12327094267829" />
    <path d="M 51,203.00000000000003 A 152,152 0 0,1 53.92063737870896,173.34627105354849" />
    <path d="M 62.570311058284432,144.83211828050634 A 152,152 0 0,1 76.61661893001309,118.55332458102052" />
    <path d="M 95.519769259644747,95.5197692596448 A 152,152 0 0,1 106.57222080712582,85.502411088864037" />
    <path d="M 118.55332458102046,76.616618930013118 A 152,152 0 0,1 144.83211828050625,62.57031105828446" />
    <path d="M 173.34627105354844,53.920637378708989 A 152,152 0 0,1 188.1013946699068,51.731921545826083" />
    <path d="M 251.76782577874968,42.234023596988919 A 168,168 0 0,1 282.19465178676762,54.837227589476356" />
    <path d="M 296.33579914729319,63.3131051331724 A 168,168 0 0,1 309.57807173949243,73.134243835060175" />
    <path d="M 321.79393923934,84.206060760660009 A 168,168 0 0,1 351.16277241052364,123.80534821323238" />
    <path d="M 363.76597640301111,154.23217422125032 A 168,168 0 0,1 370.19103408092906,219.46687957536619" />
    <path d="M 367.77192710774273,235.77517409870953 A 168,168 0 0,1 358.21176146189617,267.29081663733507" />
    <path d="M 342.68689486682763,296.33579914729313 A 168,168 0 0,1 321.79393923934,321.79393923934" />
    <path d="M 309.57807173949243,332.86575616493985 A 168,168 0 0,1 282.19465178676762,351.16277241052364" />
    <path d="M 251.76782577874968,363.76597640301111 A 168,168 0 0,1 235.77517409870961,367.77192710774273" />
    <path d="M 219.46687957536622,370.19103408092906 A 168,168 0 0,1 154.23217422125038,363.76597640301111" />
    <path d="M 138.70918336266493,358.21176146189617 A 168,168 0 0,1 109.66420085270688,342.68689486682763" />
    <path d="M 96.421928260507585,332.86575616493985 A 168,168 0 0,1 84.206060760660037,321.79393923934003" />
    <path d="M 73.134243835060232,309.57807173949249 A 168,168 0 0,1 42.234023596988919,251.76782577874968" />
    <path d="M 38.2280728922573,235.77517409870961 A 168,168 0 0,1 35.808965919070914,186.53312042463392" />
    <path d="M 42.234023596988891,154.23217422125038 A 168,168 0 0,1 63.313105133172371,109.66420085270688" />
    <path d="M 84.20606076066,84.206060760660037 A 168,168 0 0,1 96.421928260507485,73.134243835060261" />
    <path d="M 109.66420085270683,63.3131051331724 A 168,168 0 0,1 186.53312042463384,35.808965919070914" />
    <path d="M 203,19 A 184,184 0 0,1 221.03515382063915,19.886010292315774" />
    <path d="M 273.41375155517653,33.006166017923249 A 184,184 0 0,1 319.72836428611078,60.766076581256385" />
    <path d="M 355.99040866366829,100.77507712439318 A 184,184 0 0,1 379.0770217747264,149.58761938517893" />
    <path d="M 383.46449159419444,167.1033807490324 A 184,184 0 0,1 387,203" />
    <path d="M 379.0770217747264,256.412380614821 A 184,184 0 0,1 365.27351264009735,289.73699957598359" />
    <path d="M 333.10764773832477,333.10764773832477 A 184,184 0 0,1 305.22492287560681,355.99040866366835" />
    <path d="M 289.73699957598359,365.27351264009729 A 184,184 0 0,1 273.41375155517653,372.99383398207675" />
    <path d="M 238.89661925096766,383.46449159419438 A 184,184 0 0,1 221.03515382063918,386.11398970768425" />
    <path d="M 203.00000000000003,387 A 184,184 0 0,1 116.26300042401644,365.27351264009735" />
    <path d="M 72.892352261675285,333.10764773832477 A 184,184 0 0,1 33.006166017923277,273.41375155517665" />
    <path d="M 22.535508405805615,238.89661925096766 A 184,184 0 0,1 19,203.00000000000003" />
    <path d="M 19.886010292315774,184.96484617936093 A 184,184 0 0,1 26.922978225273539,149.58761938517898" />
    <path d="M 33.006166017923249,132.58624844482344 A 184,184 0 0,1 40.726487359902677,116.26300042401645" />
    <path d="M 50.009591336331624,100.77507712439326 A 184,184 0 0,1 72.892352261675228,72.892352261675285" />
    <path d="M 100.77507712439319,50.009591336331681 A 184,184 0 0,1 116.26300042401638,40.726487359902706" />
    <path d="M 149.5876193851789,26.922978225273567 A 184,184 0 0,1 184.96484617936088,19.886010292315774" />
    <path d="M 222.60342806591211,3.9630546655606338 A 200,200 0 1,1 203,3" />
  </g>
  <g fill="none" stroke="#000000" stroke-width="2" stroke-linecap="butt">
    <line x1="203" y1="35" x2="203" y2="83" />
    <line x1="203" y1="99" x2="203" y2="147" />
    <line x1="203" y1="163" x2="203" y2="179" />
    <line x1="221.03515382063915" y1="19.886010292315774" x2="217.8986053300932" y2="51.731921545826054" />
    <line x1="242.01806440322565" y1="6.8429439193539" x2="235.77517409870956" y2="38.228072892257273" />
    <line x1="232.65372894645151" y1="53.920637378708989" x2="229.53228379419343" y2="69.613201865160647" />
    <line x1="226.41083864193539" y1="85.305766351612348" x2="223.28939348967734" y2="100.99833083806404" />
    <line x1="256.41238061482107" y1="26.922978225273567" x2="251.76782577874968" y2="42.234023596988919" />
    <line x1="247.12327094267829" y1="57.545068968704271" x2="242.47871610660687" y2="72.8561143404196" />
    <line x1="279.53668647301794" y1="18.224093497742643" x2="267.29081663733507" y2="47.788238538103826" />
    <line x1="248.92201188381077" y1="92.134456098645586" x2="242.79907696596933" y2="106.91652861882618" />
    <line x1="236.6761420481279" y1="121.69860113900677" x2="230.55320713028647" y2="136.48067365918735" />
    <line x1="224.43027221244503" y1="151.26274617936795" x2="218.3073372946036" y2="166.04481869954853" />
    <line x1="282.19465178676762" y1="54.837227589476356" x2="274.65230399755166" y2="68.947967819050035" />
    <line x1="305.22492287560681" y1="50.009591336331681" x2="296.33579914729319" y2="63.3131051331724" />
    <line x1="287.44667541897957" y1="76.616618930013118" x2="269.66842796235227" y2="103.22364652369457" />
    <line x1="299.42777919287414" y1="85.50241108886398" x2="289.2774866462558" y2="97.87057834266777" />
    <line x1="333.10764773832477" y1="72.892352261675256" x2="321.79393923934" y2="84.206060760660009" />
    <line x1="310.48023074035518" y1="95.519769259644775" x2="276.53910524340097" y2="129.46089475659903" />
    <line x1="357.60209067254743" y1="76.121343167270908" x2="345.23392341874364" y2="86.271635713889225" />
    <line x1="342.68689486682763" y1="109.66420085270681" x2="329.38338106998685" y2="118.55332458102045" />
    <line x1="289.4728396794647" y1="145.22069576596135" x2="276.169325882624" y2="154.109819494275" />
    <line x1="337.05203218094994" y1="131.34769600244835" x2="322.94129195137629" y2="138.89004379166431" />
    <line x1="372.99383398207675" y1="132.58624844482347" x2="328.64761642153496" y2="150.9550531983478" />
    <line x1="313.86554390135439" y1="157.0779881161892" x2="269.51932634081265" y2="175.44679286971353" />
    <line x1="254.73725382063205" y1="181.56972778755497" x2="239.95518130045147" y2="187.6926627053964" />
    <line x1="379.0770217747264" y1="149.58761938517893" x2="348.45493103129576" y2="158.87672905732171" />
    <line x1="352.079362621291" y1="173.34627105354849" x2="336.38679813483935" y2="176.46771620580654" />
    <line x1="320.69423364838764" y1="179.58916135806459" x2="305.001669161936" y2="182.71060651032266" />
    <line x1="289.30910467548426" y1="185.83205166258071" x2="273.61654018903261" y2="188.95349681483876" />
    <line x1="402.03694533443934" y1="183.39657193408783" x2="386.11398970768425" y2="184.96484617936082" />
    <line x1="371" y1="203" x2="355" y2="203" />
    <line x1="339" y1="203" x2="323" y2="203" />
    <line x1="307" y1="203" x2="291" y2="203" />
    <line x1="386.11398970768425" y1="221.03515382063915" x2="354.268078454174" y2="217.89860533009323" />
    <line x1="399.1570560806461" y1="242.01806440322565" x2="367.77192710774273" y2="235.77517409870953" />
    <line x1="336.38679813483935" y1="229.53228379419343" x2="305.001669161936" y2="223.28939348967734" />
    <line x1="289.30910467548426" y1="220.16794833741929" x2="273.61654018903261" y2="217.04650318516124" />
    <line x1="348.45493103129576" y1="247.12327094267823" x2="333.14388565958041" y2="242.47871610660684" />
    <line x1="358.21176146189617" y1="267.29081663733507" x2="328.64761642153496" y2="255.0449468016522" />
    <line x1="284.30139886099323" y1="236.6761420481279" x2="239.95518130045147" y2="218.3073372946036" />
    <line x1="365.27351264009735" y1="289.73699957598359" x2="337.05203218094994" y2="274.65230399755166" />
    <line x1="369.29392246050907" y1="314.11404660392037" x2="342.68689486682763" y2="296.33579914729313" />
    <line x1="329.38338106998691" y1="287.44667541897951" x2="302.77635347630547" y2="269.66842796235221" />
    <line x1="357.60209067254743" y1="329.87865683272906" x2="345.23392341874364" y2="319.72836428611072" />
    <line x1="332.86575616493985" y1="309.57807173949243" x2="320.49758891113606" y2="299.42777919287408" />
    <line x1="310.48023074035524" y1="310.48023074035518" x2="287.85281374238571" y2="287.85281374238571" />
    <line x1="253.91168824543144" y1="253.91168824543144" x2="242.59797974644667" y2="242.59797974644664" />
    <line x1="231.2842712474619" y1="231.2842712474619" x2="219.97056274847714" y2="219.97056274847714" />
    <line x1="319.72836428611078" y1="345.23392341874364" x2="309.57807173949243" y2="332.86575616493985" />
    <line x1="299.42777919287414" y1="320.497588911136" x2="289.2774866462558" y2="308.12942165733222" />
    <line x1="269.66842796235227" y1="302.77635347630542" x2="251.890180505725" y2="276.169325882624" />
    <line x1="282.19465178676762" y1="351.16277241052364" x2="274.65230399755166" y2="337.05203218094994" />
    <line x1="273.41375155517653" y1="372.99383398207675" x2="248.9220118838108" y2="313.86554390135439" />
    <line x1="242.79907696596933" y1="299.08347138117381" x2="230.55320713028647" y2="269.51932634081265" />
    <line x1="256.41238061482107" y1="379.0770217747264" x2="251.76782577874968" y2="363.76597640301111" />
    <line x1="242.01806440322571" y1="399.1570560806461" x2="238.89661925096766" y2="383.46449159419438" />
    <line x1="235.77517409870961" y1="367.77192710774273" x2="232.65372894645154" y2="352.079362621291" />
    <line x1="226.41083864193544" y1="320.69423364838764" x2="220.16794833741932" y2="289.30910467548426" />
    <line x1="219.46687957536622" y1="370.19103408092906" x2="216.33033108482027" y2="338.34512282741878" />
    <line x1="203.00000000000003" y1="387" x2="203.00000000000003" y2="371" />
    <line x1="203.00000000000003" y1="355" x2="203.00000000000003" y2="323" />
    <line x1="203" y1="307" x2="203" y2="243" />
    <line x1="186.53312042463381" y1="370.19103408092906" x2="188.1013946699068" y2="354.268078454174" />
    <line x1="173.34627105354849" y1="352.079362621291" x2="185.83205166258071" y2="289.30910467548426" />
    <line x1="158.87672905732177" y1="348.45493103129576" x2="163.52128389339316" y2="333.14388565958041" />
    <line x1="126.46331352698206" y1="387.77590650225738" x2="144.83211828050636" y2="343.4296889417156" />
    <line x1="150.9550531983478" y1="328.647616421535" x2="175.44679286971353" y2="269.51932634081265" />
    <line x1="100.77507712439324" y1="355.9904086636684" x2="118.55332458102051" y2="329.38338106998691" />
    <line x1="127.44244830933414" y1="316.07986727314619" x2="154.10981949427503" y2="276.169325882624" />
    <line x1="86.271635713889268" y1="345.23392341874364" x2="106.57222080712592" y2="320.49758891113606" />
    <line x1="61.578643762690518" y1="344.42135623730951" x2="72.892352261675256" y2="333.10764773832477" />
    <line x1="95.519769259644789" y1="310.48023074035524" x2="118.14718625761431" y2="287.85281374238571" />
    <line x1="140.77460325558383" y1="265.22539674441617" x2="152.08831175456857" y2="253.91168824543144" />
    <line x1="174.7157287525381" y1="231.2842712474619" x2="186.02943725152286" y2="219.97056274847714" />
    <line x1="85.502411088864022" y1="299.4277791928742" x2="97.870578342667812" y2="289.27748664625585" />
    <line x1="50.009591336331681" y1="305.22492287560681" x2="103.22364652369457" y2="269.66842796235227" />
    <line x1="129.83067411737602" y1="251.890180505725" x2="143.13418791421674" y2="243.00105677741135" />
    <line x1="68.947967819050064" y1="274.65230399755166" x2="83.058708048623728" y2="267.10995620833569" />
    <line x1="47.788238538103855" y1="267.29081663733518" x2="62.57031105828446" y2="261.16788171949372" />
    <line x1="77.352383578465037" y1="255.04494680165229" x2="106.91652861882621" y2="242.79907696596939" />
    <line x1="136.48067365918737" y1="230.5532071302865" x2="166.04481869954856" y2="218.3073372946036" />
    <line x1="11.611932853558244" y1="261.05693545089247" x2="26.922978225273567" y2="256.41238061482107" />
    <line x1="22.535508405805615" y1="238.89661925096766" x2="69.613201865160676" y2="229.53228379419349" />
    <line x1="116.69089532451574" y1="220.16794833741932" x2="132.38345981096742" y2="217.04650318516127" />
    <line x1="51.731921545826054" y1="217.89860533009318" x2="67.654877172581223" y2="216.33033108482022" />
    <line x1="51" y1="203.00000000000003" x2="67" y2="203.00000000000003" />
    <line x1="83" y1="203.00000000000003" x2="99" y2="203.00000000000003" />
    <line x1="131" y1="203" x2="147" y2="203" />
    <line x1="22.535508405805615" y1="167.1033807490324" x2="100.99833083806404" y2="182.71060651032266" />
    <line x1="116.69089532451572" y1="185.83205166258071" x2="132.3834598109674" y2="188.95349681483876" />
    <line x1="42.234023596988891" y1="154.23217422125038" x2="57.545068968704243" y2="158.87672905732177" />
    <line x1="18.224093497742672" y1="126.463313526982" x2="33.006166017923249" y2="132.58624844482344" />
    <line x1="92.1344560986456" y1="157.0779881161892" x2="106.91652861882619" y2="163.20092303403064" />
    <line x1="121.69860113900678" y1="169.32385795187207" x2="151.26274617936795" y2="181.56972778755497" />
    <line x1="40.726487359902677" y1="116.26300042401644" x2="68.947967819050035" y2="131.34769600244837" />
    <line x1="76.61661893001309" y1="118.55332458102052" x2="89.920132726853822" y2="127.44244830933415" />
    <line x1="116.52716032053527" y1="145.22069576596141" x2="129.83067411737602" y2="154.10981949427503" />
    <line x1="48.397909327452624" y1="76.121343167270879" x2="60.766076581256414" y2="86.271635713889211" />
    <line x1="73.1342438350602" y1="96.421928260507542" x2="97.870578342667784" y2="116.72251335374421" />
    <line x1="72.892352261675228" y1="72.892352261675285" x2="95.519769259644747" y2="95.5197692596448" />
    <line x1="140.7746032555838" y1="140.77460325558383" x2="163.40202025355333" y2="163.40202025355336" />
    <line x1="76.121343167270808" y1="48.39790932745268" x2="86.271635713889154" y2="60.766076581256442" />
    <line x1="100.77507712439319" y1="50.009591336331681" x2="109.66420085270684" y2="63.3131051331724" />
    <line x1="127.44244830933411" y1="89.920132726853851" x2="136.33157203764773" y2="103.22364652369457" />
    <line x1="145.22069576596138" y1="116.5271603205353" x2="154.109819494275" y2="129.83067411737602" />
    <line x1="131.34769600244832" y1="68.947967819050064" x2="138.89004379166428" y2="83.058708048623743" />
    <line x1="132.58624844482335" y1="33.006166017923277" x2="144.83211828050625" y2="62.57031105828446" />
    <line x1="157.07798811618915" y1="92.134456098645614" x2="163.20092303403061" y2="106.91652861882621" />
    <line x1="169.32385795187204" y1="121.69860113900678" x2="175.44679286971348" y2="136.48067365918737" />
    <line x1="181.56972778755494" y1="151.26274617936795" x2="187.69266270539637" y2="166.04481869954856" />
    <line x1="158.87672905732171" y1="57.545068968704271" x2="163.5212838933931" y2="72.8561143404196" />
    <line x1="179.58916135806456" y1="85.305766351612363" x2="185.83205166258068" y2="116.69089532451574" />
    <line x1="184.96484617936088" y1="19.886010292315774" x2="188.1013946699068" y2="51.731921545826054" />
  </g>
  <path fill="none" stroke="#ff0000" stroke-width="2" stroke-linecap="square" stroke-linejoin="round" d="M 212.8135348654836,3.2409087589655314 L 212.42099347086426,11.231272408606912 A 192,192 0 0,0 193.57900652913574,11.231272408606912 L 195.9342548968518,59.17345430645517 A 144,144 0 0,0 168.01085409392996,63.315499539985666 L 164.12317121547773,47.794999488872975 A 160,160 0 0,0 149.09762345724479,52.352949570716675 L 154.48786111152032,67.417654613645 A 144,144 0 0,0 141.43206654603932,72.825541790224179 L 148.27294804092384,87.289370480199281 A 128,128 0 0,0 142.66121768627227,90.114078163410582 L 150.20356547548823,104.22481839298426 A 112,112 0 0,0 104.22481839298423,150.20356547548829 L 118.33555862255791,157.74591326470423 A 96,96 0 0,0 142.09824472029004,277.20900352282274 L 131.94795217367172,289.57717077662653 A 112,112 0 0,1 116.4228292233735,274.05204782632836 L 104.05466196956971,284.20234037294665 A 128,128 0 0,0 108.15825595456526,288.95954622041836 L 72.592601937527235,321.1943760530753 A 176,176 0 0,0 84.805623946924754,333.40739806247279 L 74.060680669372459,345.26261606815217 A 192,192 0 0,0 88.625733537452817,357.21584604428381 L 117.21930015308961,318.66188453321286 A 144,144 0 0,0 154.48786111152032,338.582345386355 L 159.87809876579581,323.51764034342665 A 128,128 0 0,0 165.84356131142886,325.48836297372276 L 179.77722581964304,279.5552268585767 A 80,80 0 0,0 195.15862877363514,282.61477813377576 L 192.02208028308922,314.46068938728604 A 112,112 0 0,0 213.9779197169108,314.46068938728604 L 210.84137122636486,282.61477813377576 A 80,80 0 0,0 226.222774180357,279.5552268585767 L 235.51188385249978,310.17731760200741 A 112,112 0 0,0 255.79643452451177,301.77518160701572 L 240.71173894607983,273.55370114786842 A 80,80 0 0,0 273.55370114786842,240.71173894607981 L 259.44296091829472,233.16939115686387 A 64,64 0 0,1 256.21405518736293,238.55649491325454 L 242.91054139052218,229.66737118494089 A 48,48 0 0,1 212.36433545677417,250.07769345935506 L 209.24289030451612,234.38512897290337 A 32,32 0 0,1 190.75413016431713,232.56414504036118 L 193.81559762323786,225.17310878027089" />
  <type>Circular</type>
</svg>