<?xml version="1.0" encoding="utf-8" standalone="no"?>
<!DOCTYPE svg PUBLIC "-//W3C//DTD SVG 1.1//EN" "http://www.w3.org/Graphics/SVG/1.1/DTD/svg11.dtd"[]>
<svg width="404" height="404" version="1.1" xmlns="http://www.w3.org/2000/svg">
  <title>25 cells diameter theta maze</title>
  <g fill="none" stroke="#000000" stroke-width="2" stroke-linecap="square">
    <path d="M 186.02943725152286,219.97056274847714 A 24,24 0 1,1 203,227" />
    <path d="M 203,163 A 40,40 0 0,1 218.3073372946036,166.04481869954853" />
    <path d="M 239.95518130045147,218.3073372946036 A 40,40 0 0,1 187.6926627053964,239.95518130045147" />
    <path d="M 174.7157287525381,231.2842712474619 A 40,40 0 0,1 166.04481869954853,218.3073372946036" />
    <path d="M 163,203 A 40,40 0 0,1 187.69266270539637,166.04481869954856" />
    <path d="M 259,203 A 56,56 0 0,1 181.569727787555,254.73725382063208" />
    <path d="M 163.40202025355336,242.59797974644667 A 56,56 0 0,1 151.26274617936795,224.43027221244506" />
    <path d="M 147,203 A 56,56 0 0,1 151.26274617936795,181.56972778755497" />
    <path d="M 163.40202025355333,163.40202025355336 A 56,56 0 0,1 181.56972778755494,151.26274617936795" />
    <path d="M 203,131 A 72,72 0 0,1 217.04650318516124,132.3834598109674" />
    <path d="M 230.55320713028647,136.48067365918735 A 72,72 0 0,1 253.91168824543144,152.08831175456857" />
    <path d="M 262.86581208578326,162.99894322258865 A 72,72 0 0,1 273.61654018903261,188.95349681483876" />
    <path d="M 275,203 A 72,72 0 0,1 273.61654018903261,217.04650318516124" />
    <path d="M 269.51932634081265,230.55320713028647 A 72,72 0 0,1 262.86581208578326,243.00105677741135" />
    <path d="M 253.91168824543144,253.91168824543141 A 72,72 0 0,1 230.55320713028647,269.51932634081265" />
    <path d="M 217.04650318516127,273.61654018903261 A 72,72 0 0,1 143.13418791421674,243.00105677741135" />
    <path d="M 131,203 A 72,72 0 0,1 132.3834598109674,188.95349681483876" />
    <path d="M 136.48067365918735,175.44679286971353 A 72,72 0 0,1 162.99894322258865,143.13418791421674" />
    <path d="M 175.44679286971348,136.48067365918737 A 72,72 0 0,1 188.95349681483873,132.3834598109674" />
    <path d="M 203,115 A 88,88 0 0,1 284.30139886099323,169.3238579518721" />
    <path d="M 289.30910467548426,185.83205166258071 A 88,88 0 0,1 289.30910467548426,220.16794833741929" />
    <path d="M 284.30139886099323,236.6761420481279 A 88,88 0 0,1 236.6761420481279,284.30139886099323" />
    <path d="M 220.16794833741932,289.30910467548426 A 88,88 0 0,1 154.10981949427503,276.169325882624" />
    <path d="M 121.69860113900678,236.67614204812796 A 88,88 0 0,1 116.69089532451572,185.83205166258071" />
    <path d="M 129.830674117376,154.10981949427503 A 88,88 0 0,1 169.32385795187204,121.69860113900678" />
    <path d="M 163.20092303403061,106.91652861882621 A 104,104 0 0,1 223.28939348967734,100.99833083806404" />
    <path d="M 276.53910524340097,129.46089475659906 A 104,104 0 0,1 289.4728396794647,145.22069576596135" />
    <path d="M 299.08347138117381,242.79907696596933 A 104,104 0 0,1 276.53910524340097,276.53910524340097" />
    <path d="M 242.79907696596933,299.08347138117381 A 104,104 0 0,1 223.28939348967737,305.001669161936" />
    <path d="M 163.20092303403067,299.08347138117381 A 104,104 0 0,1 116.52716032053529,260.77930423403865" />
    <path d="M 100.99833083806404,223.28939348967737 A 104,104 0 0,1 100.99833083806404,182.71060651032266" />
    <path d="M 106.91652861882619,163.20092303403064 A 104,104 0 0,1 129.46089475659903,129.46089475659909" />
    <path d="M 179.58916135806456,85.305766351612363 A 120,120 0 0,1 203,83" />
    <path d="M 248.92201188381077,92.134456098645586 A 120,120 0 0,1 269.66842796235227,103.22364652369457" />
    <path d="M 287.85281374238571,118.14718625761429 A 120,120 0 0,1 302.77635347630542,136.33157203764773" />
    <path d="M 313.86554390135439,157.07798811618923 A 120,120 0 0,1 320.69423364838764,179.58916135806459" />
    <path d="M 313.86554390135439,248.92201188381077 A 120,120 0 0,1 287.85281374238571,287.85281374238571" />
    <path d="M 157.07798811618926,313.86554390135439 A 120,120 0 0,1 136.33157203764779,302.77635347630547" />
    <path d="M 103.22364652369457,269.66842796235227 A 120,120 0 0,1 92.134456098645614,248.92201188381085" />
    <path d="M 85.305766351612348,226.41083864193544 A 120,120 0 0,1 83,203.00000000000003" />
    <path d="M 85.305766351612348,179.58916135806462 A 120,120 0 0,1 92.1344560986456,157.0779881161892" />
    <path d="M 189.66966891517978,67.654877172581223 A 136,136 0 0,1 203,67" />
    <path d="M 216.33033108482024,67.654877172581223 A 136,136 0 0,1 242.4787161066069,72.8561143404196" />
    <path d="M 267.10995620833569,83.058708048623714 A 136,136 0 0,1 278.55755169066589,89.920132726853851" />
    <path d="M 289.2774866462558,97.87057834266777 A 136,136 0 0,1 333.14388565958041,163.52128389339313" />
    <path d="M 339,203 A 136,136 0 0,1 328.647616421535,255.0449468016522" />
    <path d="M 322.94129195137629,267.10995620833569 A 136,136 0 0,1 299.16652224137044,299.16652224137044" />
    <path d="M 289.2774866462558,308.12942165733222 A 136,136 0 0,1 189.66966891517976,338.34512282741878" />
    <path d="M 176.46771620580654,336.38679813483935 A 136,136 0 0,1 67.654877172581223,216.33033108482022" />
    <path d="M 67,203.00000000000003 A 136,136 0 0,1 72.8561143404196,163.52128389339316" />
    <path d="M 83.058708048623714,138.89004379166431 A 136,136 0 0,1 127.4424483093341,89.920132726853851" />
    <path d="M 138.89004379166428,83.058708048623743 A 136,136 0 0,1 150.95505319834771,77.352383578465037" />
    <path d="M 232.65372894645151,53.92063737870896 A 152,152 0 0,1 287.44667541897957,76.616618930013118" />
    <path d="M 299.42777919287414,85.50241108886398 A 152,152 0 0,1 320.497588911136,106.57222080712587" />
    <path d="M 329.38338106998685,118.55332458102046 A 152,152 0 0,1 343.4296889417156,144.83211828050634" />
    <path d="M 352.079362621291,173.34627105354849 A 152,152 0 0,1 348.45493103129576,247.12327094267826" />
    <path d="M 320.49758891113606,299.42777919287408 A 152,152 0 0,1 310.48023074035524,310.48023074035518" />
    <path d="M 261.16788171949366,343.42968894171554 A 152,152 0 0,1 232.65372894645154,352.079362621291" />
    <path d="M 203.00000000000003,355 A 152,152 0 0,1 188.1013946699068,354.26807845417392" />
    <path d="M 106.57222080712592,320.49758891113606 A 152,152 0 0,1 85.502411088864022,299.42777919287414" />
    <path d="M 68.947967819050064,274.65230399755171 A 152,152 0 0,1 62.57031105828446,261.16788171949372" />
    <path d="M 51.731921545826083,217.89860533009318 A 152,152 0 0,1 51.731921545826054,188.10139466990688" />
    <path d="M 53.92063737870896,173.34627105354849 A 152,152 0 0,1 95.519769259644747,95.5197692596448" />
    <path d="M 106.57222080712582,85.502411088864037 A 152,152 0 0,1 158.87672905732171,57.545068968704271" />
    <path d="M 186.53312042463384,35.808965919070914 A 168,168 0 0,1 219.46687957536619,35.808965919070914" />
    <path d="M 235.77517409870956,38.228072892257273 A 168,168 0 0,1 267.29081663733507,47.788238538103826" />
    <path d="M 282.19465178676762,54.837227589476356 A 168,168 0 0,1 309.57807173949243,73.134243835060175" />
    <path d="M 332.8657561649398,96.421928260507556 A 168,168 0 0,1 351.16277241052364,123.80534821323238" />
    <path d="M 358.21176146189617,138.70918336266493 A 168,168 0 0,1 367.77192710774273,170.22482590129044" />
    <path d="M 370.19103408092906,186.53312042463378 A 168,168 0 0,1 371,203" />
    <path d="M 370.19103408092906,219.46687957536619 A 168,168 0 0,1 367.77192710774273,235.77517409870953" />
    <path d="M 363.76597640301111,251.76782577874965 A 168,168 0 0,1 358.21176146189617,267.29081663733507" />
    <path d="M 342.68689486682763,296.33579914729313 A 168,168 0 0,1 332.86575616493985,309.57807173949243" />
    <path d="M 296.33579914729319,342.68689486682763 A 168,168 0 0,1 282.19465178676762,351.16277241052364" />
    <path d="M 251.76782577874968,363.76597640301111 A 168,168 0 0,1 235.77517409870961,367.77192710774273" />
    <path d="M 203.00000000000003,371 A 168,168 0 0,1 109.66420085270688,342.68689486682763" />
    <path d="M 73.134243835060232,309.57807173949249 A 168,168 0 0,1 47.788238538103855,267.29081663733518" />
    <path d="M 42.234023596988919,251.76782577874968 A 168,168 0 0,1 38.2280728922573,235.77517409870961" />
    <path d="M 35.808965919070914,219.46687957536616 A 168,168 0 0,1 35,203.00000000000003" />
    <path d="M 35.808965919070914,186.53312042463392 A 168,168 0 0,1 42.234023596988891,154.23217422125038" />
    <path d="M 47.788238538103855,138.70918336266487 A 168,168 0 0,1 54.837227589476356,123.80534821323241" />
    <path d="M 63.313105133172371,109.66420085270688 A 168,168 0 0,1 73.1342438350602,96.421928260507542" />
    <path d="M 84.20606076066,84.206060760660037 A 168,168 0 0,1 96.421928260507485,73.134243835060261" />
    <path d="M 123.80534821323235,54.837227589476385 A 168,168 0 0,1 170.22482590129039,38.2280728922573" />
    <path d="M 221.03515382063915,19.886010292315774 A 184,184 0 0,1 238.8966192509676,22.535508405805587" />
    <path d="M 256.41238061482107,26.922978225273567 A 184,184 0 0,1 273.41375155517653,33.006166017923249" />
    <path d="M 319.72836428611078,60.766076581256385 A 184,184 0 0,1 345.23392341874359,86.271635713889225" />
    <path d="M 355.99040866366829,100.77507712439318 A 184,184 0 0,1 386.11398970768425,184.96484617936082" />
    <path d="M 383.46449159419444,238.8966192509676 A 184,184 0 0,1 372.99383398207681,273.41375155517653" />
    <path d="M 365.27351264009735,289.73699957598359 A 184,184 0 0,1 355.99040866366835,305.22492287560675" />
    <path d="M 319.72836428611078,345.23392341874364 A 184,184 0 0,1 305.22492287560681,355.99040866366835" />
    <path d="M 289.73699957598359,365.27351264009729 A 184,184 0 0,1 273.41375155517653,372.99383398207675" />
    <path d="M 238.89661925096766,383.46449159419438 A 184,184 0 0,1 149.58761938517898,379.0770217747264" />
    <path d="M 132.58624844482353,372.99383398207681 A 184,184 0 0,1 116.26300042401644,365.27351264009735" />
    <path d="M 86.271635713889268,345.23392341874364 A 184,184 0 0,1 72.892352261675285,333.10764773832477" />
    <path d="M 50.009591336331681,305.22492287560681 A 184,184 0 0,1 40.726487359902706,289.73699957598365" />
    <path d="M 33.006166017923277,273.41375155517665 A 184,184 0 0,1 26.922978225273567,256.41238061482107" />
    <path d="M 19.886010292315774,221.03515382063912 A 184,184 0 0,1 19,203.00000000000003" />
    <path d="M 19.886010292315774,184.96484617936093 A 184,184 0 0,1 22.535508405805587,167.1033807490324" />
    <path d="M 26.922978225273539,149.58761938517898 A 184,184 0 0,1 50.009591336331624,100.77507712439326" />
    <path d="M 60.766076581256414,86.271635713889211 A 184,184 0 0,1 72.892352261675228,72.892352261675285" />
    <path d="M 86.271635713889154,60.76607658125647 A 184,184 0 0,1 100.77507712439319,50.009591336331681" />
    <path d="M 132.58624844482335,33.006166017923277 A 184,184 0 0,1 167.10338074903231,22.535508405805615" />
    <path d="M 222.60342806591211,3.9630546655606338 A 200,200 0 1,1 203,3" />
  </g>
  <g fill="none" stroke="#000000" stroke-width="2" stroke-linecap="butt">
    <line x1="203" y1="19" x2="203" y2="35" />
    <line x1="203" y1="51" x2="203" y2="83" />
    <line x1="203" y1="131" x2="203" y2="163" />
    <line x1="219.46687957536619" y1="35.808965919070914" x2="216.33033108482024" y2="67.654877172581223" />
    <line x1="238.8966192509676" y1="22.535508405805615" x2="235.77517409870956" y2="38.228072892257273" />
    <line x1="226.41083864193539" y1="85.305766351612348" x2="223.28939348967734" y2="100.99833083806404" />
    <line x1="220.16794833741929" y1="116.69089532451572" x2="217.04650318516124" y2="132.3834598109674" />
    <line x1="261.05693545089247" y1="11.611932853558244" x2="256.41238061482107" y2="26.922978225273567" />
    <line x1="247.12327094267829" y1="57.545068968704271" x2="242.47871610660687" y2="72.8561143404196" />
    <line x1="273.41375155517653" y1="33.006166017923249" x2="267.29081663733507" y2="47.788238538103826" />
    <line x1="261.16788171949366" y1="62.5703110582844" x2="255.0449468016522" y2="77.352383578465009" />
    <line x1="242.79907696596933" y1="106.91652861882618" x2="236.6761420481279" y2="121.69860113900677" />
    <line x1="230.55320713028647" y1="136.48067365918735" x2="218.3073372946036" y2="166.04481869954853" />
    <line x1="289.73699957598353" y1="40.726487359902677" x2="274.65230399755166" y2="68.947967819050035" />
    <line x1="314.11404660392043" y1="36.706077539490963" x2="296.33579914729319" y2="63.3131051331724" />
    <line x1="287.44667541897957" y1="76.616618930013118" x2="269.66842796235227" y2="103.22364652369457" />
    <line x1="260.77930423403865" y1="116.5271603205353" x2="251.890180505725" y2="129.83067411737602" />
    <line x1="333.10764773832477" y1="72.892352261675256" x2="321.79393923934" y2="84.206060760660009" />
    <line x1="253.91168824543144" y1="152.08831175456857" x2="219.97056274847714" y2="186.02943725152286" />
    <line x1="357.60209067254743" y1="76.121343167270908" x2="345.23392341874364" y2="86.271635713889225" />
    <line x1="332.86575616493985" y1="96.421928260507556" x2="320.497588911136" y2="106.57222080712589" />
    <line x1="369.29392246050907" y1="91.885953396079543" x2="355.99040866366829" y2="100.77507712439318" />
    <line x1="329.38338106998685" y1="118.55332458102045" x2="289.4728396794647" y2="145.22069576596135" />
    <line x1="276.169325882624" y1="154.109819494275" x2="262.86581208578326" y2="162.99894322258865" />
    <line x1="365.27351264009729" y1="116.2630004240164" x2="351.16277241052364" y2="123.80534821323236" />
    <line x1="358.21176146189617" y1="138.7091833626649" x2="343.4296889417156" y2="144.83211828050634" />
    <line x1="299.08347138117381" y1="163.20092303403067" x2="284.30139886099323" y2="169.3238579518721" />
    <line x1="269.51932634081265" y1="175.44679286971353" x2="239.95518130045147" y2="187.6926627053964" />
    <line x1="348.45493103129576" y1="158.87672905732171" x2="333.14388565958041" y2="163.52128389339313" />
    <line x1="367.77192710774273" y1="170.22482590129044" x2="289.30910467548426" y2="185.83205166258071" />
    <line x1="386.11398970768425" y1="184.96484617936082" x2="370.19103408092906" y2="186.53312042463378" />
    <line x1="354.26807845417392" y1="188.10139466990677" x2="338.34512282741878" y2="189.66966891517973" />
    <line x1="403" y1="203" x2="387" y2="203" />
    <line x1="371" y1="203" x2="307" y2="203" />
    <line x1="291" y1="203" x2="259" y2="203" />
    <line x1="243" y1="203" x2="227" y2="203" />
    <line x1="386.11398970768425" y1="221.03515382063915" x2="354.268078454174" y2="217.89860533009323" />
    <line x1="383.46449159419438" y1="238.8966192509676" x2="367.77192710774273" y2="235.77517409870953" />
    <line x1="336.38679813483935" y1="229.53228379419343" x2="320.69423364838764" y2="226.41083864193539" />
    <line x1="305.001669161936" y1="223.28939348967734" x2="289.30910467548426" y2="220.16794833741929" />
    <line x1="363.76597640301111" y1="251.76782577874965" x2="348.45493103129576" y2="247.12327094267823" />
    <line x1="358.21176146189617" y1="267.29081663733507" x2="343.4296889417156" y2="261.16788171949361" />
    <line x1="284.30139886099323" y1="236.6761420481279" x2="254.73725382063205" y2="224.43027221244503" />
    <line x1="365.27351264009735" y1="289.73699957598359" x2="322.94129195137629" y2="267.10995620833569" />
    <line x1="369.29392246050907" y1="314.11404660392037" x2="355.9904086636684" y2="305.22492287560675" />
    <line x1="329.38338106998691" y1="287.44667541897951" x2="316.07986727314619" y2="278.55755169066583" />
    <line x1="302.77635347630547" y1="269.66842796235221" x2="289.47283967946476" y2="260.77930423403859" />
    <line x1="345.23392341874364" y1="319.72836428611072" x2="320.49758891113606" y2="299.42777919287408" />
    <line x1="344.42135623730951" y1="344.42135623730951" x2="333.10764773832477" y2="333.10764773832477" />
    <line x1="321.79393923934" y1="321.79393923934" x2="287.85281374238571" y2="287.85281374238571" />
    <line x1="319.72836428611078" y1="345.23392341874364" x2="289.2774866462558" y2="308.12942165733222" />
    <line x1="296.33579914729319" y1="342.68689486682763" x2="287.44667541897957" y2="329.38338106998691" />
    <line x1="278.55755169066589" y1="316.07986727314619" x2="260.77930423403865" y2="289.4728396794647" />
    <line x1="289.73699957598359" y1="365.27351264009729" x2="267.10995620833569" y2="322.94129195137629" />
    <line x1="273.41375155517653" y1="372.99383398207675" x2="261.16788171949366" y2="343.4296889417156" />
    <line x1="255.04494680165223" y1="328.64761642153496" x2="242.79907696596933" y2="299.08347138117381" />
    <line x1="236.6761420481279" y1="284.30139886099323" x2="230.55320713028647" y2="269.51932634081265" />
    <line x1="261.05693545089247" y1="394.38806714644176" x2="247.12327094267829" y2="348.4549310312957" />
    <line x1="229.53228379419349" y1="336.38679813483935" x2="226.41083864193544" y2="320.69423364838764" />
    <line x1="221.03515382063918" y1="386.11398970768425" x2="217.89860533009323" y2="354.26807845417392" />
    <line x1="203.00000000000003" y1="387" x2="203.00000000000003" y2="355" />
    <line x1="203.00000000000003" y1="339" x2="203" y2="307" />
    <line x1="203" y1="243" x2="203" y2="227" />
    <line x1="173.34627105354849" y1="352.079362621291" x2="185.83205166258071" y2="289.30910467548426" />
    <line x1="154.23217422125038" y1="363.76597640301111" x2="158.87672905732177" y2="348.45493103129576" />
    <line x1="126.46331352698206" y1="387.77590650225738" x2="132.5862484448235" y2="372.99383398207681" />
    <line x1="138.70918336266493" y1="358.21176146189623" x2="150.9550531983478" y2="328.647616421535" />
    <line x1="175.44679286971353" y1="269.51932634081265" x2="187.6926627053964" y2="239.95518130045147" />
    <line x1="131.34769600244835" y1="337.05203218094994" x2="138.89004379166431" y2="322.94129195137629" />
    <line x1="91.885953396079614" y1="369.29392246050907" x2="118.55332458102051" y2="329.38338106998691" />
    <line x1="136.33157203764776" y1="302.77635347630547" x2="145.22069576596141" y2="289.47283967946476" />
    <line x1="76.12134316727095" y1="357.60209067254743" x2="96.4219282605076" y2="332.86575616493985" />
    <line x1="72.892352261675256" y1="333.10764773832477" x2="95.519769259644789" y2="310.48023074035524" />
    <line x1="106.83347775862954" y1="299.1665222413705" x2="118.14718625761431" y2="287.85281374238571" />
    <line x1="129.46089475659906" y1="276.53910524340097" x2="140.77460325558383" y2="265.22539674441617" />
    <line x1="163.40202025355336" y1="242.59797974644667" x2="186.02943725152286" y2="219.97056274847714" />
    <line x1="60.766076581256442" y1="319.72836428611083" x2="73.134243835060232" y2="309.57807173949254" />
    <line x1="63.3131051331724" y1="296.33579914729319" x2="89.920132726853851" y2="278.55755169066589" />
    <line x1="103.22364652369457" y1="269.66842796235227" x2="116.5271603205353" y2="260.77930423403865" />
    <line x1="129.83067411737602" y1="251.890180505725" x2="143.13418791421674" y2="243.00105677741135" />
    <line x1="26.615747130328998" y1="297.27934736519956" x2="40.726487359902706" y2="289.73699957598359" />
    <line x1="54.837227589476356" y1="282.19465178676762" x2="68.947967819050064" y2="274.65230399755166" />
    <line x1="33.006166017923277" y1="273.41375155517665" x2="47.788238538103855" y2="267.29081663733518" />
    <line x1="77.352383578465037" y1="255.04494680165229" x2="106.91652861882621" y2="242.79907696596939" />
    <line x1="121.69860113900678" y1="236.67614204812796" x2="151.26274617936795" y2="224.43027221244506" />
    <line x1="42.234023596988919" y1="251.76782577874968" x2="57.545068968704271" y2="247.12327094267829" />
    <line x1="6.8429439193539281" y1="242.01806440322574" x2="53.920637378708989" y2="232.65372894645157" />
    <line x1="116.69089532451574" y1="220.16794833741932" x2="132.38345981096742" y2="217.04650318516127" />
    <line x1="35.808965919070914" y1="219.46687957536616" x2="67.654877172581223" y2="216.33033108482022" />
    <line x1="3" y1="203.00000000000003" x2="19" y2="203.00000000000003" />
    <line x1="67" y1="203.00000000000003" x2="147" y2="203" />
    <line x1="35.808965919070914" y1="186.53312042463389" x2="51.731921545826054" y2="188.10139466990688" />
    <line x1="6.8429439193539" y1="163.98193559677435" x2="22.535508405805615" y2="167.1033807490324" />
    <line x1="53.920637378708989" y1="173.34627105354849" x2="69.613201865160647" y2="176.46771620580654" />
    <line x1="26.922978225273567" y1="149.58761938517898" x2="42.234023596988891" y2="154.23217422125038" />
    <line x1="33.006166017923249" y1="132.58624844482344" x2="47.788238538103855" y2="138.70918336266487" />
    <line x1="77.352383578465023" y1="150.95505319834777" x2="136.48067365918735" y2="175.44679286971353" />
    <line x1="68.947967819050035" y1="131.34769600244837" x2="83.058708048623714" y2="138.89004379166431" />
    <line x1="63.313105133172371" y1="109.66420085270688" x2="76.61661893001309" y2="118.55332458102052" />
    <line x1="89.920132726853822" y1="127.44244830933415" x2="103.22364652369454" y2="136.33157203764779" />
    <line x1="60.766076581256414" y1="86.271635713889211" x2="73.1342438350602" y2="96.421928260507542" />
    <line x1="118.14718625761428" y1="118.14718625761432" x2="129.46089475659903" y2="129.46089475659909" />
    <line x1="152.08831175456857" y1="152.08831175456859" x2="186.02943725152286" y2="186.02943725152286" />
    <line x1="96.421928260507485" y1="73.134243835060232" x2="106.57222080712582" y2="85.502411088864022" />
    <line x1="91.885953396079572" y1="36.706077539490963" x2="109.66420085270684" y2="63.3131051331724" />
    <line x1="136.33157203764773" y1="103.22364652369457" x2="154.109819494275" y2="129.83067411737602" />
    <line x1="116.26300042401638" y1="40.726487359902706" x2="123.80534821323235" y2="54.837227589476385" />
    <line x1="150.95505319834771" y1="77.352383578465037" x2="181.56972778755494" y2="151.26274617936795" />
    <line x1="144.9430645491075" y1="11.611932853558244" x2="149.5876193851789" y2="26.922978225273567" />
    <line x1="154.23217422125032" y1="42.234023596988919" x2="163.5212838933931" y2="72.8561143404196" />
    <line x1="167.10338074903231" y1="22.535508405805615" x2="170.22482590129039" y2="38.2280728922573" />
    <line x1="173.34627105354844" y1="53.920637378708989" x2="179.58916135806456" y2="85.305766351612363" />
    <line x1="185.83205166258068" y1="116.69089532451574" x2="188.95349681483873" y2="132.38345981096742" />
    <line x1="183.39657193408789" y1="3.9630546655606054" x2="184.96484617936088" y2="19.886010292315774" />
    <line x1="186.53312042463384" y1="35.808965919070914" x2="189.66966891517978" y2="67.654877172581223" />
  </g>
  <path fill="none" stroke="#ff0000" stroke-width="2" stroke-linecap="square" stroke-linejoin="round" d="M 212.8135348654836,3.2409087589655314 L 212.42099347086426,11.231272408606912 A 192,192 0 0,0 193.57900652913574,11.231272408606912 L 194.36408931837443,27.211999707889646 A 176,176 0 0,0 177.17543649585622,28.904934246198565 L 179.523124087142,44.731758405635048 A 160,160 0 0,0 164.12317121547773,47.794999488872975 L 171.89853697238218,78.835999591098371 A 128,128 0 0,0 159.87809876579584,82.482359656573337 L 154.48786111152032,67.417654613645 A 144,144 0 0,0 106.29551050202932,96.30303794888593 L 95.550567224477,84.447819943206582 A 160,160 0 0,0 84.44781994320654,95.550567224477064 L 72.5926019375272,84.805623946924769 A 176,176 0 0,1 84.805623946924712,72.592601937527235 L 74.0606806693724,60.737383931847916 A 192,192 0 0,0 48.784153955716107,88.625733537452888 L 61.635474459406424,98.156922409331813 A 176,176 0 0,0 52.0397646399521,112.51791702199301 L 65.763422399956454,120.74356092908457 A 160,160 0 0,0 44.731758405635048,179.52312408714209 L 60.558582565071532,181.87081167842788 A 144,144 0 0,0 59.17345430645517,210.0657451031482 L 75.154181605737932,209.28066231390952 A 128,128 0 0,0 80.51163702627727,240.1564386885712 L 111.13372776970795,230.86732901642839 A 96,96 0 0,0 118.33555862255793,248.2540867352958 L 146.55703908170528,233.16939115686387 A 64,64 0 0,0 167.44350508674546,256.21405518736293 L 185.22175254337273,229.60702759368147 A 32,32 0 0,0 190.75413016431713,232.56414504036118 L 193.81559762323786,225.17310878027089" />
  <type>Circular</type>
</svg>