<?xml version="1.0" encoding="utf-8" standalone="no"?>
<!DOCTYPE svg PUBLIC "-//W3C//DTD SVG 1.1//EN" "http://www.w3.org/Graphics/SVG/1.1/DTD/svg11.dtd"[]>
<svg width="404" height="404" version="1.1" xmlns="http://www.w3.org/2000/svg">
  <title>25 cells diameter theta maze</title>
  <g fill="none" stroke="#000000" stroke-width="2" stroke-linecap="square">
    <path d="M 186.02943725152286,219.97056274847714 A 24,24 0 1,1 203,227" />
    <path d="M 239.95518130045147,218.3073372946036 A 40,40 0 1,1 231.2842712474619,174.7157287525381" />
    <path d="M 239.95518130045147,187.6926627053964 A 40,40 0 0,1 243,203" />
    <path d="M 224.43027221244503,151.26274617936795 A 56,56 0 0,1 254.73725382063205,181.56972778755497" />
    <path d="M 242.59797974644667,242.59797974644664 A 56,56 0 0,1 181.569727787555,254.73725382063208" />
    <path d="M 163.40202025355336,242.59797974644667 A 56,56 0 0,1 151.26274617936795,224.43027221244506" />
    <path d="M 147,203 A 56,56 0 0,1 151.26274617936795,181.56972778755497" />
    <path d="M 163.40202025355333,163.40202025355336 A 56,56 0 0,1 181.56972778755494,151.26274617936795" />
    <path d="M 217.04650318516124,132.3834598109674 A 72,72 0 0,1 243.00105677741135,143.13418791421674" />
    <path d="M 253.91168824543144,152.08831175456857 A 72,72 0 0,1 262.86581208578326,162.99894322258865" />
    <path d="M 269.51932634081265,175.44679286971353 A 72,72 0 0,1 262.86581208578326,243.00105677741135" />
    <path d="M 253.91168824543144,253.91168824543141 A 72,72 0 0,1 243.00105677741135,262.86581208578326" />
    <path d="M 230.55320713028647,269.51932634081265 A 72,72 0 0,1 175.44679286971353,269.51932634081265" />
    <path d="M 152.08831175456859,253.91168824543144 A 72,72 0 0,1 143.13418791421674,243.00105677741135" />
    <path d="M 132.3834598109674,217.04650318516127 A 72,72 0 0,1 132.3834598109674,188.95349681483876" />
    <path d="M 143.13418791421674,162.99894322258865 A 72,72 0 0,1 152.08831175456857,152.08831175456859" />
    <path d="M 162.99894322258865,143.13418791421674 A 72,72 0 0,1 175.44679286971348,136.48067365918737" />
    <path d="M 203,115 A 88,88 0 0,1 265.22539674441617,140.77460325558383" />
    <path d="M 276.169325882624,154.109819494275 A 88,88 0 0,1 284.30139886099323,169.3238579518721" />
    <path d="M 289.30910467548426,220.16794833741929 A 88,88 0 0,1 236.6761420481279,284.30139886099323" />
    <path d="M 220.16794833741932,289.30910467548426 A 88,88 0 0,1 185.83205166258071,289.30910467548426" />
    <path d="M 140.77460325558383,265.22539674441617 A 88,88 0 0,1 129.83067411737602,251.890180505725" />
    <path d="M 115,203.00000000000003 A 88,88 0 0,1 116.69089532451572,185.83205166258071" />
    <path d="M 121.69860113900677,169.32385795187207 A 88,88 0 0,1 129.830674117376,154.10981949427503" />
    <path d="M 140.7746032555838,140.77460325558383 A 88,88 0 0,1 185.83205166258068,116.69089532451572" />
    <path d="M 182.71060651032261,100.99833083806405 A 104,104 0 0,1 203,99" />
    <path d="M 223.28939348967734,100.99833083806404 A 104,104 0 0,1 260.77930423403865,116.52716032053529" />
    <path d="M 276.53910524340097,129.46089475659906 A 104,104 0 0,1 289.4728396794647,145.22069576596135" />
    <path d="M 307,203 A 104,104 0 0,1 276.53910524340097,276.53910524340097" />
    <path d="M 260.77930423403859,289.4728396794647 A 104,104 0 0,1 203,307" />
    <path d="M 182.71060651032266,305.001669161936 A 104,104 0 0,1 163.20092303403067,299.08347138117381" />
    <path d="M 145.22069576596141,289.47283967946476 A 104,104 0 0,1 129.46089475659909,276.53910524340097" />
    <path d="M 116.52716032053529,260.77930423403865 A 104,104 0 0,1 99,203.00000000000003" />
    <path d="M 100.99833083806404,182.71060651032266 A 104,104 0 0,1 116.52716032053527,145.22069576596141" />
    <path d="M 157.07798811618915,92.134456098645614 A 120,120 0 0,1 203,83" />
    <path d="M 320.69423364838764,179.58916135806459 A 120,120 0 0,1 313.86554390135439,248.92201188381077" />
    <path d="M 302.77635347630542,269.66842796235221 A 120,120 0 0,1 269.66842796235227,302.77635347630542" />
    <path d="M 226.41083864193544,320.69423364838764 A 120,120 0 0,1 136.33157203764779,302.77635347630547" />
    <path d="M 118.14718625761431,287.85281374238571 A 120,120 0 0,1 103.22364652369457,269.66842796235227" />
    <path d="M 83,203.00000000000003 A 120,120 0 0,1 85.305766351612348,179.58916135806462" />
    <path d="M 92.1344560986456,157.0779881161892 A 120,120 0 0,1 118.14718625761428,118.14718625761432" />
    <path d="M 189.66966891517978,67.654877172581223 A 136,136 0 0,1 242.4787161066069,72.8561143404196" />
    <path d="M 255.0449468016522,77.352383578465 A 136,136 0 0,1 316.07986727314614,127.4424483093341" />
    <path d="M 322.94129195137629,138.89004379166431 A 136,136 0 0,1 338.34512282741878,189.66966891517973" />
    <path d="M 339,203 A 136,136 0 0,1 338.34512282741878,216.33033108482024" />
    <path d="M 336.38679813483935,229.53228379419343 A 136,136 0 0,1 333.14388565958041,242.47871610660687" />
    <path d="M 328.647616421535,255.0449468016522 A 136,136 0 0,1 316.07986727314619,278.55755169066589" />
    <path d="M 308.12942165733227,289.27748664625574 A 136,136 0 0,1 242.4787161066069,333.14388565958041" />
    <path d="M 203.00000000000003,339 A 136,136 0 0,1 189.66966891517976,338.34512282741878" />
    <path d="M 150.9550531983478,328.647616421535 A 136,136 0 0,1 127.44244830933414,316.07986727314619" />
    <path d="M 116.72251335374423,308.12942165733227 A 136,136 0 0,1 77.352383578465037,255.04494680165229" />
    <path d="M 72.8561143404196,242.4787161066069 A 136,136 0 0,1 67.654877172581223,216.33033108482022" />
    <path d="M 67.654877172581223,189.66966891517984 A 136,136 0 0,1 83.058708048623714,138.89004379166431" />
    <path d="M 106.83347775862951,106.83347775862956 A 136,136 0 0,1 163.5212838933931,72.8561143404196" />
    <path d="M 217.8986053300932,51.731921545826083 A 152,152 0 0,1 232.65372894645151,53.92063737870896" />
    <path d="M 247.12327094267829,57.545068968704243 A 152,152 0 0,1 261.16788171949366,62.5703110582844" />
    <path d="M 287.44667541897957,76.616618930013118 A 152,152 0 0,1 310.48023074035524,95.519769259644775" />
    <path d="M 320.497588911136,106.57222080712587 A 152,152 0 0,1 337.05203218094994,131.34769600244835" />
    <path d="M 348.45493103129576,158.87672905732174 A 152,152 0 0,1 352.079362621291,173.34627105354849" />
    <path d="M 354.26807845417392,217.89860533009323 A 152,152 0 0,1 337.05203218094994,274.65230399755166" />
    <path d="M 310.48023074035524,310.48023074035518 A 152,152 0 0,1 274.65230399755166,337.05203218094994" />
    <path d="M 247.12327094267829,348.45493103129576 A 152,152 0 0,1 217.89860533009323,354.26807845417392" />
    <path d="M 203.00000000000003,355 A 152,152 0 0,1 173.34627105354849,352.079362621291" />
    <path d="M 158.87672905732177,348.45493103129576 A 152,152 0 0,1 144.83211828050636,343.4296889417156" />
    <path d="M 131.34769600244835,337.05203218094994 A 152,152 0 0,1 95.519769259644789,310.48023074035524" />
    <path d="M 76.616618930013118,287.44667541897951 A 152,152 0 0,1 57.545068968704243,247.12327094267829" />
    <path d="M 53.920637378708989,232.65372894645157 A 152,152 0 0,1 51.731921545826054,188.10139466990688" />
    <path d="M 57.545068968704243,158.87672905732177 A 152,152 0 0,1 76.61661893001309,118.55332458102052" />
    <path d="M 106.57222080712582,85.502411088864037 A 152,152 0 0,1 118.55332458102046,76.616618930013118" />
    <path d="M 173.34627105354844,53.920637378708989 A 152,152 0 0,1 188.1013946699068,51.731921545826083" />
    <path d="M 154.23217422125032,42.234023596988919 A 168,168 0 0,1 203,35" />
    <path d="M 251.76782577874968,42.234023596988919 A 168,168 0 0,1 332.8657561649398,96.421928260507556" />
    <path d="M 351.16277241052364,123.80534821323238 A 168,168 0 0,1 358.21176146189617,138.70918336266493" />
    <path d="M 367.77192710774273,170.22482590129044 A 168,168 0 0,1 370.19103408092906,219.46687957536619" />
    <path d="M 358.21176146189617,267.29081663733507 A 168,168 0 0,1 342.68689486682763,296.33579914729313" />
    <path d="M 321.79393923934,321.79393923934 A 168,168 0 0,1 309.57807173949243,332.86575616493985" />
    <path d="M 296.33579914729319,342.68689486682763 A 168,168 0 0,1 235.77517409870961,367.77192710774273" />
    <path d="M 219.46687957536622,370.19103408092906 A 168,168 0 0,1 154.23217422125038,363.76597640301111" />
    <path d="M 138.70918336266493,358.21176146189617 A 168,168 0 0,1 123.80534821323241,351.16277241052364" />
    <path d="M 109.66420085270688,342.68689486682763 A 168,168 0 0,1 96.421928260507585,332.86575616493985" />
    <path d="M 84.206060760660037,321.79393923934003 A 168,168 0 0,1 54.837227589476385,282.19465178676762" />
    <path d="M 42.234023596988919,251.76782577874968 A 168,168 0 0,1 38.2280728922573,235.77517409870961" />
    <path d="M 42.234023596988891,154.23217422125038 A 168,168 0 0,1 54.837227589476356,123.80534821323241" />
    <path d="M 63.313105133172371,109.66420085270688 A 168,168 0 0,1 73.1342438350602,96.421928260507542" />
    <path d="M 96.421928260507485,73.134243835060261 A 168,168 0 0,1 138.70918336266482,47.788238538103855" />
    <path d="M 184.96484617936088,19.886010292315774 A 184,184 0 0,1 221.03515382063915,19.886010292315774" />
    <path d="M 238.8966192509676,22.535508405805587 A 184,184 0 0,1 256.41238061482107,26.922978225273567" />
    <path d="M 289.73699957598353,40.726487359902677 A 184,184 0 0,1 319.72836428611078,60.766076581256385" />
    <path d="M 345.23392341874359,86.271635713889225 A 184,184 0 0,1 355.99040866366829,100.77507712439318" />
    <path d="M 372.99383398207675,132.58624844482347 A 184,184 0 0,1 379.0770217747264,149.58761938517893" />
    <path d="M 386.11398970768425,221.03515382063915 A 184,184 0 0,1 379.0770217747264,256.412380614821" />
    <path d="M 365.27351264009735,289.73699957598359 A 184,184 0 0,1 345.23392341874364,319.72836428611072" />
    <path d="M 319.72836428611078,345.23392341874364 A 184,184 0 0,1 305.22492287560681,355.99040866366835" />
    <path d="M 289.73699957598359,365.27351264009729 A 184,184 0 0,1 256.41238061482107,379.0770217747264" />
    <path d="M 221.03515382063918,386.11398970768425 A 184,184 0 0,1 184.96484617936085,386.11398970768425" />
    <path d="M 167.1033807490324,383.46449159419444 A 184,184 0 0,1 116.26300042401644,365.27351264009735" />
    <path d="M 100.77507712439325,355.99040866366835 A 184,184 0 0,1 86.271635713889268,345.23392341874364" />
    <path d="M 72.892352261675285,333.10764773832477 A 184,184 0 0,1 60.76607658125647,319.72836428611083" />
    <path d="M 50.009591336331681,305.22492287560681 A 184,184 0 0,1 33.006166017923277,273.41375155517665" />
    <path d="M 26.922978225273567,256.41238061482107 A 184,184 0 0,1 19,203.00000000000003" />
    <path d="M 19.886010292315774,184.96484617936093 A 184,184 0 0,1 22.535508405805587,167.1033807490324" />
    <path d="M 26.922978225273539,149.58761938517898 A 184,184 0 0,1 40.726487359902677,116.26300042401645" />
    <path d="M 116.26300042401638,40.726487359902706 A 184,184 0 0,1 149.5876193851789,26.922978225273567" />
    <path d="M 222.60342806591211,3.9630546655606338 A 200,200 0 1,1 203,3" />
  </g>
  <g fill="none" stroke="#000000" stroke-width="2" stroke-linecap="butt">
    <line x1="203" y1="35" x2="203" y2="67" />
    <line x1="203" y1="83" x2="203" y2="131" />
    <line x1="203" y1="147" x2="203" y2="163" />
    <line x1="221.03515382063915" y1="19.886010292315774" x2="217.8986053300932" y2="51.731921545826054" />
    <line x1="238.8966192509676" y1="22.535508405805615" x2="232.65372894645151" y2="53.920637378708989" />
    <line x1="229.53228379419343" y1="69.613201865160647" x2="223.28939348967734" y2="100.99833083806404" />
    <line x1="261.05693545089247" y1="11.611932853558244" x2="256.41238061482107" y2="26.922978225273567" />
    <line x1="251.76782577874968" y1="42.234023596988919" x2="247.12327094267829" y2="57.545068968704271" />
    <line x1="273.41375155517653" y1="33.006166017923249" x2="267.29081663733507" y2="47.788238538103826" />
    <line x1="261.16788171949366" y1="62.5703110582844" x2="255.0449468016522" y2="77.352383578465009" />
    <line x1="248.92201188381077" y1="92.134456098645586" x2="242.79907696596933" y2="106.91652861882618" />
    <line x1="230.55320713028647" y1="136.48067365918735" x2="224.43027221244503" y2="151.26274617936795" />
    <line x1="297.27934736519956" y1="26.615747130328998" x2="289.73699957598353" y2="40.726487359902677" />
    <line x1="282.19465178676762" y1="54.837227589476356" x2="274.65230399755166" y2="68.947967819050035" />
    <line x1="278.55755169066589" y1="89.920132726853851" x2="269.66842796235227" y2="103.22364652369457" />
    <line x1="251.890180505725" y1="129.83067411737602" x2="243.00105677741135" y2="143.13418791421674" />
    <line x1="344.42135623730951" y1="61.57864376269049" x2="333.10764773832477" y2="72.892352261675256" />
    <line x1="310.48023074035518" y1="95.519769259644775" x2="287.85281374238571" y2="118.14718625761429" />
    <line x1="276.53910524340097" y1="129.46089475659903" x2="265.22539674441617" y2="140.77460325558383" />
    <line x1="345.23392341874364" y1="86.271635713889225" x2="332.86575616493985" y2="96.421928260507556" />
    <line x1="342.68689486682763" y1="109.66420085270681" x2="329.38338106998685" y2="118.55332458102045" />
    <line x1="316.07986727314614" y1="127.44244830933408" x2="262.86581208578326" y2="162.99894322258865" />
    <line x1="379.384252869671" y1="108.72065263480044" x2="365.27351264009729" y2="116.2630004240164" />
    <line x1="351.16277241052364" y1="123.80534821323236" x2="322.94129195137629" y2="138.89004379166431" />
    <line x1="372.99383398207675" y1="132.58624844482347" x2="343.4296889417156" y2="144.83211828050634" />
    <line x1="328.64761642153496" y1="150.9550531983478" x2="299.08347138117381" y2="163.20092303403067" />
    <line x1="254.73725382063205" y1="181.56972778755497" x2="239.95518130045147" y2="187.6926627053964" />
    <line x1="379.0770217747264" y1="149.58761938517893" x2="363.76597640301111" y2="154.23217422125032" />
    <line x1="399.1570560806461" y1="163.98193559677435" x2="352.079362621291" y2="173.34627105354849" />
    <line x1="336.38679813483935" y1="176.46771620580654" x2="273.61654018903261" y2="188.95349681483876" />
    <line x1="402.03694533443934" y1="183.39657193408783" x2="386.11398970768425" y2="184.96484617936082" />
    <line x1="354.26807845417392" y1="188.10139466990677" x2="338.34512282741878" y2="189.66966891517973" />
    <line x1="387" y1="203" x2="355" y2="203" />
    <line x1="307" y1="203" x2="291" y2="203" />
    <line x1="275" y1="203" x2="227" y2="203" />
    <line x1="354.268078454174" y1="217.89860533009323" x2="338.34512282741878" y2="216.33033108482024" />
    <line x1="383.46449159419438" y1="238.8966192509676" x2="352.079362621291" y2="232.65372894645148" />
    <line x1="336.38679813483935" y1="229.53228379419343" x2="320.69423364838764" y2="226.41083864193539" />
    <line x1="289.30910467548426" y1="220.16794833741929" x2="273.61654018903261" y2="217.04650318516124" />
    <line x1="394.38806714644181" y1="261.05693545089241" x2="379.0770217747264" y2="256.412380614821" />
    <line x1="363.76597640301111" y1="251.76782577874965" x2="348.45493103129576" y2="247.12327094267823" />
    <line x1="387.77590650225738" y1="279.53668647301794" x2="358.21176146189617" y2="267.29081663733507" />
    <line x1="269.51932634081265" y1="230.55320713028647" x2="254.73725382063205" y2="224.43027221244503" />
    <line x1="365.27351264009735" y1="289.73699957598359" x2="351.16277241052364" y2="282.19465178676762" />
    <line x1="342.68689486682763" y1="296.33579914729313" x2="316.07986727314619" y2="278.55755169066583" />
    <line x1="302.77635347630547" y1="269.66842796235221" x2="289.47283967946476" y2="260.77930423403859" />
    <line x1="345.23392341874364" y1="319.72836428611072" x2="320.49758891113606" y2="299.42777919287408" />
    <line x1="344.42135623730951" y1="344.42135623730951" x2="333.10764773832477" y2="333.10764773832477" />
    <line x1="299.16652224137044" y1="299.16652224137044" x2="287.85281374238571" y2="287.85281374238571" />
    <line x1="253.91168824543144" y1="253.91168824543144" x2="242.59797974644667" y2="242.59797974644664" />
    <line x1="319.72836428611078" y1="345.23392341874364" x2="299.42777919287414" y2="320.497588911136" />
    <line x1="305.22492287560681" y1="355.99040866366835" x2="296.33579914729319" y2="342.68689486682763" />
    <line x1="297.27934736519956" y1="379.384252869671" x2="289.73699957598359" y2="365.27351264009729" />
    <line x1="267.29081663733507" y1="358.21176146189617" x2="255.04494680165223" y2="328.64761642153496" />
    <line x1="248.9220118838108" y1="313.86554390135439" x2="242.79907696596933" y2="299.08347138117381" />
    <line x1="236.6761420481279" y1="284.30139886099323" x2="230.55320713028647" y2="269.51932634081265" />
    <line x1="242.01806440322571" y1="399.1570560806461" x2="235.77517409870961" y2="367.77192710774273" />
    <line x1="232.65372894645154" y1="352.079362621291" x2="226.41083864193544" y2="320.69423364838764" />
    <line x1="223.28939348967737" y1="305.001669161936" x2="220.16794833741932" y2="289.30910467548426" />
    <line x1="217.89860533009323" y1="354.26807845417392" x2="216.33033108482027" y2="338.34512282741878" />
    <line x1="203.00000000000003" y1="355" x2="203" y2="307" />
    <line x1="203" y1="291" x2="203" y2="259" />
    <line x1="203" y1="243" x2="203" y2="227" />
    <line x1="184.96484617936085" y1="386.11398970768425" x2="186.53312042463381" y2="370.19103408092906" />
    <line x1="170.22482590129044" y1="367.77192710774273" x2="173.34627105354849" y2="352.079362621291" />
    <line x1="176.46771620580654" y1="336.38679813483935" x2="179.58916135806459" y2="320.69423364838764" />
    <line x1="182.71060651032266" y1="305.001669161936" x2="185.83205166258071" y2="289.30910467548426" />
    <line x1="158.87672905732177" y1="348.45493103129576" x2="163.52128389339316" y2="333.14388565958041" />
    <line x1="126.46331352698206" y1="387.77590650225738" x2="132.5862484448235" y2="372.99383398207681" />
    <line x1="138.70918336266493" y1="358.21176146189623" x2="157.07798811618923" y2="313.86554390135444" />
    <line x1="169.3238579518721" y1="284.30139886099323" x2="175.44679286971353" y2="269.51932634081265" />
    <line x1="116.26300042401644" y1="365.27351264009735" x2="123.80534821323239" y2="351.16277241052364" />
    <line x1="131.34769600244835" y1="337.05203218094994" x2="138.89004379166431" y2="322.94129195137629" />
    <line x1="136.33157203764776" y1="302.77635347630547" x2="162.99894322258865" y2="262.86581208578326" />
    <line x1="76.12134316727095" y1="357.60209067254743" x2="96.4219282605076" y2="332.86575616493985" />
    <line x1="106.57222080712592" y1="320.49758891113606" x2="116.72251335374425" y2="308.12942165733227" />
    <line x1="140.77460325558383" y1="265.22539674441617" x2="152.08831175456857" y2="253.91168824543144" />
    <line x1="48.39790932745268" y1="329.87865683272918" x2="60.766076581256442" y2="319.72836428611083" />
    <line x1="73.134243835060232" y1="309.57807173949254" x2="85.502411088864022" y2="299.4277791928742" />
    <line x1="63.3131051331724" y1="296.33579914729319" x2="89.920132726853851" y2="278.55755169066589" />
    <line x1="103.22364652369457" y1="269.66842796235227" x2="129.83067411737602" y2="251.890180505725" />
    <line x1="18.2240934977427" y1="279.53668647301805" x2="33.006166017923277" y2="273.41375155517665" />
    <line x1="47.788238538103855" y1="267.29081663733518" x2="62.57031105828446" y2="261.16788171949372" />
    <line x1="77.352383578465037" y1="255.04494680165229" x2="92.134456098645614" y2="248.92201188381085" />
    <line x1="106.91652861882621" y1="242.79907696596939" x2="121.69860113900678" y2="236.67614204812796" />
    <line x1="136.48067365918737" y1="230.5532071302865" x2="166.04481869954856" y2="218.3073372946036" />
    <line x1="42.234023596988919" y1="251.76782577874968" x2="72.8561143404196" y2="242.4787161066069" />
    <line x1="69.613201865160676" y1="229.53228379419349" x2="85.305766351612363" y2="226.41083864193544" />
    <line x1="116.69089532451574" y1="220.16794833741932" x2="132.38345981096742" y2="217.04650318516127" />
    <line x1="3.9630546655606054" y1="222.60342806591208" x2="19.886010292315774" y2="221.03515382063912" />
    <line x1="35.808965919070914" y1="219.46687957536616" x2="51.731921545826054" y2="217.89860533009318" />
    <line x1="19" y1="203.00000000000003" x2="35" y2="203.00000000000003" />
    <line x1="51" y1="203.00000000000003" x2="115" y2="203.00000000000003" />
    <line x1="131" y1="203" x2="147" y2="203" />
    <line x1="35.808965919070914" y1="186.53312042463389" x2="51.731921545826054" y2="188.10139466990688" />
    <line x1="22.535508405805615" y1="167.1033807490324" x2="100.99833083806404" y2="182.71060651032266" />
    <line x1="116.69089532451572" y1="185.83205166258071" x2="132.3834598109674" y2="188.95349681483876" />
    <line x1="18.224093497742672" y1="126.463313526982" x2="33.006166017923249" y2="132.58624844482344" />
    <line x1="106.91652861882619" y1="163.20092303403064" x2="121.69860113900678" y2="169.32385795187207" />
    <line x1="136.48067365918735" y1="175.44679286971353" x2="166.04481869954853" y2="187.6926627053964" />
    <line x1="40.726487359902677" y1="116.26300042401644" x2="54.837227589476356" y2="123.80534821323241" />
    <line x1="36.706077539490906" y1="91.885953396079628" x2="63.313105133172371" y2="109.66420085270688" />
    <line x1="76.61661893001309" y1="118.55332458102052" x2="103.22364652369454" y2="136.33157203764779" />
    <line x1="60.766076581256414" y1="86.271635713889211" x2="97.870578342667784" y2="116.72251335374421" />
    <line x1="61.578643762690461" y1="61.578643762690518" x2="95.519769259644747" y2="95.5197692596448" />
    <line x1="106.83347775862951" y1="106.83347775862956" x2="129.46089475659903" y2="129.46089475659909" />
    <line x1="140.7746032555838" y1="140.77460325558383" x2="163.40202025355333" y2="163.40202025355336" />
    <line x1="76.121343167270808" y1="48.39790932745268" x2="86.271635713889154" y2="60.766076581256442" />
    <line x1="96.421928260507485" y1="73.134243835060232" x2="106.57222080712582" y2="85.502411088864022" />
    <line x1="100.77507712439319" y1="50.009591336331681" x2="109.66420085270684" y2="63.3131051331724" />
    <line x1="136.33157203764773" y1="103.22364652369457" x2="154.109819494275" y2="129.83067411737602" />
    <line x1="108.72065263480042" y1="26.615747130329027" x2="116.26300042401638" y2="40.726487359902706" />
    <line x1="123.80534821323235" y1="54.837227589476385" x2="131.34769600244832" y2="68.947967819050064" />
    <line x1="132.58624844482335" y1="33.006166017923277" x2="138.70918336266482" y2="47.788238538103855" />
    <line x1="144.83211828050625" y1="62.57031105828446" x2="150.95505319834771" y2="77.352383578465037" />
    <line x1="157.07798811618915" y1="92.134456098645614" x2="163.20092303403061" y2="106.91652861882621" />
    <line x1="169.32385795187204" y1="121.69860113900678" x2="175.44679286971348" y2="136.48067365918737" />
    <line x1="154.23217422125032" y1="42.234023596988919" x2="163.5212838933931" y2="72.8561143404196" />
    <line x1="163.98193559677426" y1="6.8429439193539281" x2="170.22482590129039" y2="38.2280728922573" />
    <line x1="173.34627105354844" y1="53.920637378708989" x2="179.58916135806456" y2="85.305766351612363" />
    <line x1="182.71060651032261" y1="100.99833083806405" x2="188.95349681483873" y2="132.38345981096742" />
  </g>
  <path fill="none" stroke="#ff0000" stroke-width="2" stroke-linecap="square" stroke-linejoin="round" d="M 212.8135348654836,3.2409087589655314 L 212.42099347086426,11.231272408606912 A 192,192 0 0,0 174.82774890457043,13.078110086762081 L 177.17543649585622,28.904934246198565 A 176,176 0 0,1 211.63591068162558,27.211999707889646 L 210.0657451031482,59.17345430645517 A 144,144 0 0,1 251.51213888847968,67.417654613645 L 246.12190123420416,82.482359656573337 A 128,128 0 0,1 263.33878231372768,90.114078163410554 L 255.79643452451174,104.22481839298423 A 112,112 0 0,1 274.05204782632831,116.42282922337346 L 263.90175527970996,128.79099647717726 A 96,96 0 0,0 212.40964547163782,107.4622662394691 L 215.54619396218376,75.6163549859588 A 128,128 0 0,0 184.21849926971362,76.385406724508044 L 181.87081167842783,60.558582565071561 A 144,144 0 0,1 195.9342548968518,59.17345430645517 L 195.14917210761311,43.192727007172408 A 160,160 0 0,0 164.12317121547773,47.794999488872975 L 171.89853697238218,78.835999591098371 A 128,128 0 0,0 121.79765962705332,104.05466196956971 L 142.09824472028998,128.79099647717729 A 96,96 0 0,0 128.79099647717726,142.09824472029004 L 141.15916373098105,152.24853726690836 A 80,80 0 0,0 132.44629885213158,165.2882610539202 L 146.55703908170528,172.83060884313616 A 64,64 0 0,1 149.7859448126371,167.44350508674549 L 163.08945860947782,176.33262881505911 A 48,48 0 0,1 193.63566454322583,155.92230654064494 L 190.51421939096775,140.22974205419325 A 64,64 0 0,1 215.48578060903222,140.22974205419325 L 212.36433545677414,155.92230654064494 A 48,48 0 0,1 242.91054139052216,176.33262881505908 L 229.60702759368144,185.22175254337273 A 32,32 0 1,0 190.75413016431713,232.56414504036118 L 193.81559762323786,225.17310878027089" />
  <type>Circular</type>
</svg>