<?xml version="1.0" encoding="utf-8" standalone="no"?>
<!DOCTYPE svg PUBLIC "-//W3C//DTD SVG 1.1//EN" "http://www.w3.org/Graphics/SVG/1.1/DTD/svg11.dtd"[]>
<svg width="404" height="404" version="1.1" xmlns="http://www.w3.org/2000/svg">
  <title>25 cells diameter theta maze</title>
  <g fill="none" stroke="#000000" stroke-width="2" stroke-linecap="square">
    <path d="M 186.02943725152286,219.97056274847714 A 24,24 0 1,1 203,227" />
    <path d="M 187.69266270539637,166.04481869954856 A 40,40 0 0,1 218.3073372946036,166.04481869954853" />
    <path d="M 231.2842712474619,174.7157287525381 A 40,40 0 0,1 239.95518130045147,218.3073372946036" />
    <path d="M 218.3073372946036,239.95518130045147 A 40,40 0 0,1 174.7157287525381,231.2842712474619" />
    <path d="M 166.04481869954853,218.3073372946036 A 40,40 0 0,1 163,203" />
    <path d="M 166.04481869954853,187.6926627053964 A 40,40 0 0,1 174.7157287525381,174.7157287525381" />
    <path d="M 163.40202025355333,163.40202025355336 A 56,56 0 0,1 203,147" />
    <path d="M 224.43027221244503,151.26274617936795 A 56,56 0 0,1 254.73725382063208,224.43027221244503" />
    <path d="M 224.43027221244503,254.73725382063205 A 56,56 0 0,1 181.569727787555,254.73725382063208" />
    <path d="M 151.26274617936795,224.43027221244506 A 56,56 0 0,1 151.26274617936795,181.56972778755497" />
    <path d="M 203,131 A 72,72 0 0,1 217.04650318516124,132.3834598109674" />
    <path d="M 230.55320713028647,136.48067365918735 A 72,72 0 0,1 243.00105677741135,143.13418791421674" />
    <path d="M 253.91168824543144,152.08831175456857 A 72,72 0 0,1 275,203" />
    <path d="M 269.51932634081265,230.55320713028647 A 72,72 0 0,1 217.04650318516127,273.61654018903261" />
    <path d="M 188.95349681483876,273.61654018903261 A 72,72 0 0,1 162.99894322258865,262.86581208578326" />
    <path d="M 152.08831175456859,253.91168824543144 A 72,72 0 0,1 143.13418791421674,162.99894322258865" />
    <path d="M 152.08831175456857,152.08831175456859 A 72,72 0 0,1 162.99894322258865,143.13418791421674" />
    <path d="M 175.44679286971348,136.48067365918737 A 72,72 0 0,1 188.95349681483873,132.3834598109674" />
    <path d="M 220.16794833741929,116.69089532451572 A 88,88 0 0,1 236.6761420481279,121.69860113900677" />
    <path d="M 251.890180505725,129.83067411737602 A 88,88 0 0,1 289.30910467548426,185.83205166258071" />
    <path d="M 289.30910467548426,220.16794833741929 A 88,88 0 0,1 236.6761420481279,284.30139886099323" />
    <path d="M 220.16794833741932,289.30910467548426 A 88,88 0 0,1 203,291" />
    <path d="M 169.32385795187213,284.30139886099323 A 88,88 0 0,1 129.83067411737602,251.890180505725" />
    <path d="M 121.69860113900678,236.67614204812796 A 88,88 0 0,1 116.69089532451572,220.16794833741932" />
    <path d="M 115,203.00000000000003 A 88,88 0 0,1 121.69860113900677,169.32385795187207" />
    <path d="M 129.830674117376,154.10981949427503 A 88,88 0 0,1 140.7746032555838,140.77460325558383" />
    <path d="M 154.109819494275,129.83067411737602 A 88,88 0 0,1 169.32385795187204,121.69860113900678" />
    <path d="M 203,99 A 104,104 0 0,1 223.28939348967734,100.99833083806404" />
    <path d="M 260.77930423403865,116.52716032053529 A 104,104 0 0,1 299.08347138117381,163.20092303403067" />
    <path d="M 305.001669161936,182.71060651032266 A 104,104 0 0,1 305.001669161936,223.28939348967734" />
    <path d="M 299.08347138117381,242.79907696596933 A 104,104 0 0,1 145.22069576596141,289.47283967946476" />
    <path d="M 116.52716032053529,260.77930423403865 A 104,104 0 0,1 106.91652861882621,242.79907696596939" />
    <path d="M 100.99833083806404,182.71060651032266 A 104,104 0 0,1 116.52716032053527,145.22069576596141" />
    <path d="M 129.46089475659903,129.46089475659909 A 104,104 0 0,1 145.22069576596135,116.5271603205353" />
    <path d="M 157.07798811618915,92.134456098645614 A 120,120 0 0,1 226.41083864193539,85.305766351612348" />
    <path d="M 269.66842796235227,103.22364652369457 A 120,120 0 0,1 287.85281374238571,118.14718625761429" />
    <path d="M 302.77635347630542,136.33157203764773 A 120,120 0 0,1 313.86554390135439,248.92201188381077" />
    <path d="M 302.77635347630542,269.66842796235221 A 120,120 0 0,1 287.85281374238571,287.85281374238571" />
    <path d="M 226.41083864193544,320.69423364838764 A 120,120 0 0,1 203.00000000000003,323" />
    <path d="M 179.58916135806459,320.69423364838764 A 120,120 0 0,1 157.07798811618926,313.86554390135439" />
    <path d="M 118.14718625761431,287.85281374238571 A 120,120 0 0,1 103.22364652369457,269.66842796235227" />
    <path d="M 92.134456098645614,248.92201188381085 A 120,120 0 0,1 85.305766351612348,226.41083864193544" />
    <path d="M 103.22364652369454,136.33157203764779 A 120,120 0 0,1 118.14718625761428,118.14718625761432" />
    <path d="M 189.66966891517978,67.654877172581223 A 136,136 0 0,1 255.0449468016522,77.352383578465" />
    <path d="M 267.10995620833569,83.058708048623714 A 136,136 0 0,1 289.2774866462558,97.87057834266777" />
    <path d="M 299.16652224137044,106.83347775862953 A 136,136 0 0,1 316.07986727314614,127.4424483093341" />
    <path d="M 328.64761642153496,150.9550531983478 A 136,136 0 0,1 333.14388565958041,163.52128389339313" />
    <path d="M 336.38679813483935,176.46771620580654 A 136,136 0 0,1 333.14388565958041,242.47871610660687" />
    <path d="M 328.647616421535,255.0449468016522 A 136,136 0 0,1 267.10995620833569,322.94129195137629" />
    <path d="M 242.4787161066069,333.14388565958041 A 136,136 0 0,1 216.33033108482027,338.34512282741878" />
    <path d="M 203.00000000000003,339 A 136,136 0 0,1 189.66966891517976,338.34512282741878" />
    <path d="M 176.46771620580654,336.38679813483935 A 136,136 0 0,1 163.52128389339316,333.14388565958041" />
    <path d="M 150.9550531983478,328.647616421535 A 136,136 0 0,1 106.83347775862956,299.16652224137044" />
    <path d="M 83.058708048623728,267.10995620833569 A 136,136 0 0,1 77.352383578465037,255.04494680165229" />
    <path d="M 72.8561143404196,242.4787161066069 A 136,136 0 0,1 69.613201865160676,229.53228379419349" />
    <path d="M 67,203.00000000000003 A 136,136 0 0,1 72.8561143404196,163.52128389339316" />
    <path d="M 77.352383578465009,150.95505319834777 A 136,136 0 0,1 89.920132726853822,127.44244830933414" />
    <path d="M 97.870578342667784,116.72251335374421 A 136,136 0 0,1 127.4424483093341,89.920132726853851" />
    <path d="M 138.89004379166428,83.058708048623743 A 136,136 0 0,1 150.95505319834771,77.352383578465037" />
    <path d="M 163.5212838933931,72.8561143404196 A 136,136 0 0,1 176.46771620580648,69.613201865160676" />
    <path d="M 173.34627105354844,53.920637378708989 A 152,152 0 0,1 232.65372894645151,53.92063737870896" />
    <path d="M 247.12327094267829,57.545068968704243 A 152,152 0 0,1 261.16788171949366,62.5703110582844" />
    <path d="M 274.65230399755166,68.947967819050035 A 152,152 0 0,1 343.4296889417156,144.83211828050634" />
    <path d="M 348.45493103129576,158.87672905732174 A 152,152 0 0,1 354.26807845417392,217.89860533009323" />
    <path d="M 352.079362621291,232.65372894645148 A 152,152 0 0,1 348.45493103129576,247.12327094267826" />
    <path d="M 337.05203218094994,274.65230399755166 A 152,152 0 0,1 329.38338106998691,287.44667541897951" />
    <path d="M 287.44667541897951,329.38338106998685 A 152,152 0 0,1 261.16788171949366,343.42968894171554" />
    <path d="M 144.83211828050636,343.4296889417156 A 152,152 0 0,1 85.502411088864022,299.42777919287414" />
    <path d="M 76.616618930013118,287.44667541897951 A 152,152 0 0,1 68.947967819050064,274.65230399755171" />
    <path d="M 62.57031105828446,261.16788171949372 A 152,152 0 0,1 53.920637378708989,232.65372894645157" />
    <path d="M 51.731921545826083,217.89860533009318 A 152,152 0 0,1 51,203.00000000000003" />
    <path d="M 53.92063737870896,173.34627105354849 A 152,152 0 0,1 62.570311058284432,144.83211828050634" />
    <path d="M 85.502411088864,106.57222080712587 A 152,152 0 0,1 118.55332458102046,76.616618930013118" />
    <path d="M 186.53312042463384,35.808965919070914 A 168,168 0 0,1 219.46687957536619,35.808965919070914" />
    <path d="M 235.77517409870956,38.228072892257273 A 168,168 0 0,1 251.76782577874968,42.234023596988919" />
    <path d="M 267.29081663733507,47.788238538103826 A 168,168 0 0,1 296.33579914729319,63.3131051331724" />
    <path d="M 332.8657561649398,96.421928260507556 A 168,168 0 0,1 351.16277241052364,123.80534821323238" />
    <path d="M 358.21176146189617,138.70918336266493 A 168,168 0 0,1 370.19103408092906,186.53312042463378" />
    <path d="M 370.19103408092906,219.46687957536619 A 168,168 0 0,1 367.77192710774273,235.77517409870953" />
    <path d="M 363.76597640301111,251.76782577874965 A 168,168 0 0,1 351.16277241052364,282.19465178676762" />
    <path d="M 332.86575616493985,309.57807173949243 A 168,168 0 0,1 282.19465178676762,351.16277241052364" />
    <path d="M 219.46687957536622,370.19103408092906 A 168,168 0 0,1 170.22482590129044,367.77192710774273" />
    <path d="M 154.23217422125038,363.76597640301111 A 168,168 0 0,1 138.70918336266493,358.21176146189617" />
    <path d="M 123.80534821323241,351.16277241052364 A 168,168 0 0,1 109.66420085270688,342.68689486682763" />
    <path d="M 63.3131051331724,296.33579914729319 A 168,168 0 0,1 54.837227589476385,282.19465178676762" />
    <path d="M 47.788238538103855,267.29081663733518 A 168,168 0 0,1 42.234023596988919,251.76782577874968" />
    <path d="M 35,203.00000000000003 A 168,168 0 0,1 35.808965919070914,186.53312042463392" />
    <path d="M 54.837227589476356,123.80534821323241 A 168,168 0 0,1 73.1342438350602,96.421928260507542" />
    <path d="M 84.20606076066,84.206060760660037 A 168,168 0 0,1 96.421928260507485,73.134243835060261" />
    <path d="M 109.66420085270683,63.3131051331724 A 168,168 0 0,1 123.80534821323235,54.837227589476385" />
    <path d="M 138.70918336266482,47.788238538103855 A 168,168 0 0,1 154.23217422125032,42.234023596988919" />
    <path d="M 221.03515382063915,19.886010292315774 A 184,184 0 0,1 273.41375155517653,33.006166017923249" />
    <path d="M 305.22492287560681,50.009591336331681 A 184,184 0 0,1 333.10764773832477,72.892352261675256" />
    <path d="M 365.27351264009735,116.26300042401641 A 184,184 0 0,1 372.99383398207675,132.58624844482347" />
    <path d="M 379.0770217747264,149.58761938517893 A 184,184 0 0,1 383.46449159419444,167.1033807490324" />
    <path d="M 386.11398970768425,184.96484617936082 A 184,184 0 0,1 386.11398970768425,221.03515382063915" />
    <path d="M 383.46449159419444,238.8966192509676 A 184,184 0 0,1 379.0770217747264,256.412380614821" />
    <path d="M 372.99383398207681,273.41375155517653 A 184,184 0 0,1 365.27351264009735,289.73699957598359" />
    <path d="M 345.23392341874364,319.72836428611072 A 184,184 0 0,1 305.22492287560681,355.99040866366835" />
    <path d="M 273.41375155517653,372.99383398207675 A 184,184 0 0,1 256.41238061482107,379.0770217747264" />
    <path d="M 221.03515382063918,386.11398970768425 A 184,184 0 0,1 203.00000000000003,387" />
    <path d="M 167.1033807490324,383.46449159419444 A 184,184 0 0,1 72.892352261675285,333.10764773832477" />
    <path d="M 60.76607658125647,319.72836428611083 A 184,184 0 0,1 40.726487359902706,289.73699957598365" />
    <path d="M 26.922978225273567,256.41238061482107 A 184,184 0 0,1 19,203.00000000000003" />
    <path d="M 26.922978225273539,149.58761938517898 A 184,184 0 0,1 33.006166017923249,132.58624844482344" />
    <path d="M 40.726487359902677,116.26300042401645 A 184,184 0 0,1 60.766076581256414,86.271635713889211" />
    <path d="M 86.271635713889154,60.76607658125647 A 184,184 0 0,1 100.77507712439319,50.009591336331681" />
    <path d="M 132.58624844482335,33.006166017923277 A 184,184 0 0,1 167.10338074903231,22.535508405805615" />
    <path d="M 222.60342806591211,3.9630546655606338 A 200,200 0 1,1 203,3" />
  </g>
  <g fill="none" stroke="#000000" stroke-width="2" stroke-linecap="butt">
    <line x1="203" y1="3" x2="203" y2="19" />
    <line x1="203" y1="99" x2="203" y2="147" />
    <line x1="203" y1="163" x2="203" y2="179" />
    <line x1="219.46687957536619" y1="35.808965919070914" x2="217.8986053300932" y2="51.731921545826054" />
    <line x1="235.77517409870956" y1="38.228072892257273" x2="232.65372894645151" y2="53.920637378708989" />
    <line x1="256.41238061482107" y1="26.922978225273567" x2="247.12327094267829" y2="57.545068968704271" />
    <line x1="267.29081663733507" y1="47.788238538103826" x2="261.16788171949366" y2="62.5703110582844" />
    <line x1="255.0449468016522" y1="77.352383578465009" x2="230.55320713028647" y2="136.48067365918735" />
    <line x1="297.27934736519956" y1="26.615747130328998" x2="282.19465178676762" y2="54.837227589476356" />
    <line x1="274.65230399755166" y1="68.947967819050035" x2="267.10995620833569" y2="83.058708048623714" />
    <line x1="269.66842796235227" y1="103.22364652369457" x2="260.77930423403865" y2="116.5271603205353" />
    <line x1="251.890180505725" y1="129.83067411737602" x2="243.00105677741135" y2="143.13418791421674" />
    <line x1="329.87865683272912" y1="48.397909327452595" x2="309.57807173949243" y2="73.134243835060175" />
    <line x1="333.10764773832477" y1="72.892352261675256" x2="287.85281374238571" y2="118.14718625761429" />
    <line x1="231.2842712474619" y1="174.7157287525381" x2="219.97056274847714" y2="186.02943725152286" />
    <line x1="357.60209067254743" y1="76.121343167270908" x2="332.86575616493985" y2="96.421928260507556" />
    <line x1="369.29392246050907" y1="91.885953396079543" x2="355.99040866366829" y2="100.77507712439318" />
    <line x1="365.27351264009729" y1="116.2630004240164" x2="351.16277241052364" y2="123.80534821323236" />
    <line x1="337.05203218094994" y1="131.34769600244835" x2="322.94129195137629" y2="138.89004379166431" />
    <line x1="358.21176146189617" y1="138.7091833626649" x2="328.64761642153496" y2="150.9550531983478" />
    <line x1="394.38806714644181" y1="144.94306454910753" x2="379.0770217747264" y2="149.58761938517893" />
    <line x1="363.76597640301111" y1="154.23217422125032" x2="348.45493103129576" y2="158.87672905732171" />
    <line x1="352.079362621291" y1="173.34627105354849" x2="336.38679813483935" y2="176.46771620580654" />
    <line x1="320.69423364838764" y1="179.58916135806459" x2="305.001669161936" y2="182.71060651032266" />
    <line x1="371" y1="203" x2="355" y2="203" />
    <line x1="307" y1="203" x2="259" y2="203" />
    <line x1="386.11398970768425" y1="221.03515382063915" x2="354.268078454174" y2="217.89860533009323" />
    <line x1="367.77192710774273" y1="235.77517409870953" x2="352.079362621291" y2="232.65372894645148" />
    <line x1="289.30910467548426" y1="220.16794833741929" x2="273.61654018903261" y2="217.04650318516124" />
    <line x1="379.0770217747264" y1="256.412380614821" x2="363.76597640301111" y2="251.76782577874965" />
    <line x1="358.21176146189617" y1="267.29081663733507" x2="343.4296889417156" y2="261.16788171949361" />
    <line x1="313.86554390135439" y1="248.92201188381077" x2="299.08347138117381" y2="242.79907696596933" />
    <line x1="269.51932634081265" y1="230.55320713028647" x2="239.95518130045147" y2="218.3073372946036" />
    <line x1="379.384252869671" y1="297.27934736519956" x2="351.16277241052364" y2="282.19465178676762" />
    <line x1="337.05203218094994" y1="274.65230399755166" x2="322.94129195137629" y2="267.10995620833569" />
    <line x1="369.29392246050907" y1="314.11404660392037" x2="355.9904086636684" y2="305.22492287560675" />
    <line x1="342.68689486682763" y1="296.33579914729313" x2="329.38338106998691" y2="287.44667541897951" />
    <line x1="345.23392341874364" y1="319.72836428611072" x2="332.86575616493985" y2="309.57807173949243" />
    <line x1="320.49758891113606" y1="299.42777919287408" x2="308.12942165733227" y2="289.27748664625574" />
    <line x1="321.79393923934" y1="321.79393923934" x2="310.48023074035524" y2="310.48023074035518" />
    <line x1="287.85281374238571" y1="287.85281374238571" x2="276.53910524340097" y2="276.53910524340097" />
    <line x1="242.59797974644667" y1="242.59797974644664" x2="219.97056274847714" y2="219.97056274847714" />
    <line x1="309.57807173949243" y1="332.86575616493985" x2="289.2774866462558" y2="308.12942165733222" />
    <line x1="278.55755169066589" y1="316.07986727314619" x2="269.66842796235227" y2="302.77635347630542" />
    <line x1="297.27934736519956" y1="379.384252869671" x2="274.65230399755166" y2="337.05203218094994" />
    <line x1="267.29081663733507" y1="358.21176146189617" x2="248.9220118838108" y2="313.86554390135439" />
    <line x1="236.6761420481279" y1="284.30139886099323" x2="230.55320713028647" y2="269.51932634081265" />
    <line x1="256.41238061482107" y1="379.0770217747264" x2="242.4787161066069" y2="333.14388565958041" />
    <line x1="242.01806440322571" y1="399.1570560806461" x2="229.53228379419349" y2="336.38679813483935" />
    <line x1="220.16794833741932" y1="289.30910467548426" x2="217.04650318516127" y2="273.61654018903261" />
    <line x1="219.46687957536622" y1="370.19103408092906" x2="216.33033108482027" y2="338.34512282741878" />
    <line x1="203.00000000000003" y1="403" x2="203.00000000000003" y2="387" />
    <line x1="203.00000000000003" y1="355" x2="203.00000000000003" y2="323" />
    <line x1="203" y1="291" x2="203" y2="275" />
    <line x1="203" y1="243" x2="203" y2="227" />
    <line x1="184.96484617936085" y1="386.11398970768425" x2="189.66966891517976" y2="338.34512282741878" />
    <line x1="173.34627105354849" y1="352.079362621291" x2="179.58916135806459" y2="320.69423364838764" />
    <line x1="185.83205166258071" y1="289.30910467548426" x2="188.95349681483876" y2="273.61654018903261" />
    <line x1="149.58761938517898" y1="379.0770217747264" x2="163.52128389339316" y2="333.14388565958041" />
    <line x1="175.44679286971353" y1="269.51932634081265" x2="187.6926627053964" y2="239.95518130045147" />
    <line x1="108.72065263480047" y1="379.384252869671" x2="116.26300042401644" y2="365.27351264009735" />
    <line x1="100.77507712439324" y1="355.9904086636684" x2="118.55332458102051" y2="329.38338106998691" />
    <line x1="127.44244830933414" y1="316.07986727314619" x2="145.22069576596141" y2="289.47283967946476" />
    <line x1="154.10981949427503" y1="276.169325882624" x2="162.99894322258865" y2="262.86581208578326" />
    <line x1="96.4219282605076" y1="332.86575616493985" x2="106.57222080712592" y2="320.49758891113606" />
    <line x1="72.892352261675256" y1="333.10764773832477" x2="84.206060760660023" y2="321.79393923934003" />
    <line x1="118.14718625761431" y1="287.85281374238571" x2="129.46089475659906" y2="276.53910524340097" />
    <line x1="152.08831175456857" y1="253.91168824543144" x2="163.40202025355336" y2="242.59797974644667" />
    <line x1="48.39790932745268" y1="329.87865683272918" x2="60.766076581256442" y2="319.72836428611083" />
    <line x1="73.134243835060232" y1="309.57807173949254" x2="97.870578342667812" y2="289.27748664625585" />
    <line x1="50.009591336331681" y1="305.22492287560681" x2="63.3131051331724" y2="296.33579914729319" />
    <line x1="76.616618930013118" y1="287.44667541897957" x2="103.22364652369457" y2="269.66842796235227" />
    <line x1="68.947967819050064" y1="274.65230399755166" x2="83.058708048623728" y2="267.10995620833569" />
    <line x1="18.2240934977427" y1="279.53668647301805" x2="47.788238538103855" y2="267.29081663733518" />
    <line x1="62.57031105828446" y1="261.16788171949372" x2="121.69860113900678" y2="236.67614204812796" />
    <line x1="151.26274617936795" y1="224.43027221244506" x2="166.04481869954856" y2="218.3073372946036" />
    <line x1="42.234023596988919" y1="251.76782577874968" x2="57.545068968704271" y2="247.12327094267829" />
    <line x1="6.8429439193539281" y1="242.01806440322574" x2="22.535508405805615" y2="238.89661925096766" />
    <line x1="38.2280728922573" y1="235.77517409870961" x2="69.613201865160676" y2="229.53228379419349" />
    <line x1="85.305766351612363" y1="226.41083864193544" x2="100.99833083806405" y2="223.28939348967737" />
    <line x1="19.886010292315774" y1="221.03515382063912" x2="67.654877172581223" y2="216.33033108482022" />
    <line x1="19" y1="203.00000000000003" x2="35" y2="203.00000000000003" />
    <line x1="67" y1="203.00000000000003" x2="83" y2="203.00000000000003" />
    <line x1="99" y1="203.00000000000003" x2="115" y2="203.00000000000003" />
    <line x1="163" y1="203" x2="179" y2="203" />
    <line x1="19.886010292315774" y1="184.96484617936093" x2="67.654877172581223" y2="189.66966891517984" />
    <line x1="22.535508405805615" y1="167.1033807490324" x2="53.920637378708989" y2="173.34627105354849" />
    <line x1="85.305766351612348" y1="179.58916135806462" x2="100.99833083806404" y2="182.71060651032266" />
    <line x1="26.922978225273567" y1="149.58761938517898" x2="42.234023596988891" y2="154.23217422125038" />
    <line x1="33.006166017923249" y1="132.58624844482344" x2="92.1344560986456" y2="157.0779881161892" />
    <line x1="106.91652861882619" y1="163.20092303403064" x2="151.26274617936795" y2="181.56972778755497" />
    <line x1="68.947967819050035" y1="131.34769600244837" x2="83.058708048623714" y2="138.89004379166431" />
    <line x1="63.313105133172371" y1="109.66420085270688" x2="89.920132726853822" y2="127.44244830933415" />
    <line x1="103.22364652369454" y1="136.33157203764779" x2="116.52716032053527" y2="145.22069576596141" />
    <line x1="60.766076581256414" y1="86.271635713889211" x2="97.870578342667784" y2="116.72251335374421" />
    <line x1="61.578643762690461" y1="61.578643762690518" x2="72.892352261675228" y2="72.892352261675285" />
    <line x1="129.46089475659903" y1="129.46089475659909" x2="186.02943725152286" y2="186.02943725152286" />
    <line x1="86.271635713889154" y1="60.766076581256442" x2="106.57222080712582" y2="85.502411088864022" />
    <line x1="109.66420085270684" y1="63.3131051331724" x2="118.55332458102046" y2="76.616618930013118" />
    <line x1="127.44244830933411" y1="89.920132726853851" x2="145.22069576596138" y2="116.5271603205353" />
    <line x1="108.72065263480042" y1="26.615747130329027" x2="138.89004379166428" y2="83.058708048623743" />
    <line x1="132.58624844482335" y1="33.006166017923277" x2="175.44679286971348" y2="136.48067365918737" />
    <line x1="158.87672905732171" y1="57.545068968704271" x2="163.5212838933931" y2="72.8561143404196" />
    <line x1="167.10338074903231" y1="22.535508405805615" x2="170.22482590129039" y2="38.2280728922573" />
    <line x1="176.46771620580648" y1="69.613201865160676" x2="182.71060651032261" y2="100.99833083806405" />
    <line x1="185.83205166258068" y1="116.69089532451574" x2="188.95349681483873" y2="132.38345981096742" />
    <line x1="184.96484617936088" y1="19.886010292315774" x2="186.53312042463384" y2="35.808965919070914" />
    <line x1="188.1013946699068" y1="51.731921545826054" x2="189.66966891517978" y2="67.654877172581223" />
  </g>
  <path fill="none" stroke="#ff0000" stroke-width="2" stroke-linecap="square" stroke-linejoin="round" d="M 212.8135348654836,3.2409087589655314 L 211.63591068162558,27.211999707889646 A 176,176 0 0,0 194.36408931837443,27.211999707889646 L 193.57900652913574,11.231272408606912 A 192,192 0 0,0 174.82774890457043,13.078110086762081 L 179.523124087142,44.731758405635048 A 160,160 0 0,0 164.12317121547773,47.794999488872975 L 168.01085409392996,63.315499539985666 A 144,144 0 0,1 181.87081167842783,60.558582565071561 L 184.21849926971362,76.385406724508044 A 128,128 0 0,1 240.15643868857117,80.51163702627727 L 230.86732901642839,111.13372776970795 A 96,96 0 0,0 212.40964547163782,107.4622662394691 L 210.84137122636486,123.38522186622424 A 80,80 0 0,1 226.222774180357,126.4447731414233 L 221.5782193442856,141.75581851313865 A 64,64 0 0,1 243.60117018647333,153.52733098478484 L 253.75146273309164,141.15916373098105 A 80,80 0 0,1 282.61477813377576,195.15862877363514 L 298.5377337605309,193.59035452836216 A 96,96 0 0,0 294.86627223029205,175.13267098357161 L 310.17731760200741,170.48811614750022 A 112,112 0 0,0 289.57717077662653,131.9479521736717 L 301.94533803043032,121.79765962705338 A 128,128 0 0,1 284.20234037294665,301.94533803043032 L 274.05204782632831,289.57717077662653 A 112,112 0 0,1 150.20356547548826,301.77518160701578 L 142.6612176862723,315.88592183658943 A 128,128 0 0,0 159.87809876579581,323.51764034342665 L 154.48786111152032,338.582345386355 A 144,144 0 0,1 96.303037948885915,299.70448949797071 L 108.15825595456526,288.95954622041836 A 128,128 0 0,0 121.79765962705341,301.94533803043032 L 142.09824472029004,277.20900352282274 A 96,96 0 0,1 118.33555862255793,248.2540867352958 L 132.44629885213161,240.71173894607983 A 80,80 0 0,0 152.24853726690839,264.84083626901895 L 162.3988298135267,252.47266901521516 A 64,64 0 0,0 167.44350508674546,256.21405518736293 L 176.33262881505911,242.91054139052218 A 48,48 0 0,1 163.08945860947785,229.66737118494092 L 176.39297240631856,220.77824745662727 A 32,32 0 0,0 190.75413016431713,232.56414504036118 L 193.81559762323786,225.17310878027089" />
  <type>Circular</type>
</svg>