<?xml version="1.0" encoding="utf-8" standalone="no"?>
<!DOCTYPE svg PUBLIC "-//W3C//DTD SVG 1.1//EN" "http://www.w3.org/Graphics/SVG/1.1/DTD/svg11.dtd"[]>
<svg width="404" height="404" version="1.1" xmlns="http://www.w3.org/2000/svg">
  <title>25 cells diameter theta maze</title>
  <g fill="none" stroke="#000000" stroke-width="2" stroke-linecap="square">
    <path d="M 186.02943725152286,219.97056274847714 A 24,24 0 1,1 203,227" />
    <path d="M 218.3073372946036,166.04481869954853 A 40,40 0 0,1 231.2842712474619,174.7157287525381" />
    <path d="M 239.95518130045147,187.6926627053964 A 40,40 0 0,1 243,203" />
    <path d="M 239.95518130045147,218.3073372946036 A 40,40 0 0,1 218.3073372946036,239.95518130045147" />
    <path d="M 203,243 A 40,40 0 0,1 187.6926627053964,239.95518130045147" />
    <path d="M 174.7157287525381,231.2842712474619 A 40,40 0 0,1 166.04481869954853,218.3073372946036" />
    <path d="M 163,203 A 40,40 0 0,1 187.69266270539637,166.04481869954856" />
    <path d="M 163.40202025355333,163.40202025355336 A 56,56 0 0,1 259,203" />
    <path d="M 224.43027221244503,254.73725382063205 A 56,56 0 0,1 203,259" />
    <path d="M 181.569727787555,254.73725382063208 A 56,56 0 0,1 163.40202025355336,242.59797974644667" />
    <path d="M 151.26274617936795,224.43027221244506 A 56,56 0 0,1 147,203" />
    <path d="M 203,131 A 72,72 0 0,1 217.04650318516124,132.3834598109674" />
    <path d="M 243.00105677741135,143.13418791421674 A 72,72 0 0,1 269.51932634081265,175.44679286971353" />
    <path d="M 273.61654018903261,188.95349681483876 A 72,72 0 0,1 269.51932634081265,230.55320713028647" />
    <path d="M 262.86581208578326,243.00105677741135 A 72,72 0 0,1 230.55320713028647,269.51932634081265" />
    <path d="M 217.04650318516127,273.61654018903261 A 72,72 0 0,1 162.99894322258865,262.86581208578326" />
    <path d="M 152.08831175456859,253.91168824543144 A 72,72 0 0,1 136.48067365918737,230.5532071302865" />
    <path d="M 132.3834598109674,217.04650318516127 A 72,72 0 0,1 131,203" />
    <path d="M 132.3834598109674,188.95349681483876 A 72,72 0 0,1 136.48067365918735,175.44679286971353" />
    <path d="M 152.08831175456857,152.08831175456859 A 72,72 0 0,1 175.44679286971348,136.48067365918737" />
    <path d="M 169.32385795187204,121.69860113900678 A 88,88 0 0,1 236.6761420481279,121.69860113900677" />
    <path d="M 251.890180505725,129.83067411737602 A 88,88 0 0,1 276.169325882624,154.109819494275" />
    <path d="M 289.30910467548426,185.83205166258071 A 88,88 0 0,1 289.30910467548426,220.16794833741929" />
    <path d="M 284.30139886099323,236.6761420481279 A 88,88 0 0,1 276.169325882624,251.89018050572497" />
    <path d="M 265.22539674441617,265.22539674441617 A 88,88 0 0,1 251.89018050572497,276.169325882624" />
    <path d="M 203,291 A 88,88 0 0,1 185.83205166258071,289.30910467548426" />
    <path d="M 169.32385795187213,284.30139886099323 A 88,88 0 0,1 129.83067411737602,251.890180505725" />
    <path d="M 121.69860113900678,236.67614204812796 A 88,88 0 0,1 116.69089532451572,220.16794833741932" />
    <path d="M 115,203.00000000000003 A 88,88 0 0,1 116.69089532451572,185.83205166258071" />
    <path d="M 129.830674117376,154.10981949427503 A 88,88 0 0,1 140.7746032555838,140.77460325558383" />
    <path d="M 182.71060651032261,100.99833083806405 A 104,104 0 0,1 203,99" />
    <path d="M 223.28939348967734,100.99833083806404 A 104,104 0 0,1 242.79907696596933,106.91652861882618" />
    <path d="M 260.77930423403865,116.52716032053529 A 104,104 0 0,1 276.53910524340097,129.46089475659906" />
    <path d="M 289.4728396794647,145.22069576596135 A 104,104 0 0,1 305.001669161936,182.71060651032266" />
    <path d="M 305.001669161936,223.28939348967734 A 104,104 0 0,1 299.08347138117381,242.79907696596933" />
    <path d="M 289.47283967946476,260.77930423403859 A 104,104 0 0,1 260.77930423403859,289.4728396794647" />
    <path d="M 242.79907696596933,299.08347138117381 A 104,104 0 0,1 203,307" />
    <path d="M 182.71060651032266,305.001669161936 A 104,104 0 0,1 163.20092303403067,299.08347138117381" />
    <path d="M 145.22069576596141,289.47283967946476 A 104,104 0 0,1 106.91652861882621,242.79907696596939" />
    <path d="M 99,203.00000000000003 A 104,104 0 0,1 100.99833083806404,182.71060651032266" />
    <path d="M 106.91652861882619,163.20092303403064 A 104,104 0 0,1 116.52716032053527,145.22069576596141" />
    <path d="M 129.46089475659903,129.46089475659909 A 104,104 0 0,1 163.20092303403061,106.91652861882621" />
    <path d="M 203,83 A 120,120 0 0,1 269.66842796235227,103.22364652369457" />
    <path d="M 287.85281374238571,118.14718625761429 A 120,120 0 0,1 313.86554390135439,157.07798811618923" />
    <path d="M 320.69423364838764,179.58916135806459 A 120,120 0 0,1 320.69423364838764,226.41083864193539" />
    <path d="M 313.86554390135439,248.92201188381077 A 120,120 0 0,1 302.77635347630542,269.66842796235221" />
    <path d="M 226.41083864193544,320.69423364838764 A 120,120 0 0,1 118.14718625761431,287.85281374238571" />
    <path d="M 92.134456098645614,248.92201188381085 A 120,120 0 0,1 83,203.00000000000003" />
    <path d="M 85.305766351612348,179.58916135806462 A 120,120 0 0,1 118.14718625761428,118.14718625761432" />
    <path d="M 136.33157203764773,103.22364652369457 A 120,120 0 0,1 179.58916135806456,85.305766351612363" />
    <path d="M 176.46771620580648,69.613201865160676 A 136,136 0 0,1 203,67" />
    <path d="M 216.33033108482024,67.654877172581223 A 136,136 0 0,1 229.53228379419343,69.613201865160647" />
    <path d="M 242.4787161066069,72.8561143404196 A 136,136 0 0,1 278.55755169066589,89.920132726853851" />
    <path d="M 289.2774866462558,97.87057834266777 A 136,136 0 0,1 308.12942165733222,116.72251335374421" />
    <path d="M 322.94129195137629,138.89004379166431 A 136,136 0 0,1 333.14388565958041,163.52128389339313" />
    <path d="M 336.38679813483935,176.46771620580654 A 136,136 0 0,1 338.34512282741878,189.66966891517973" />
    <path d="M 339,203 A 136,136 0 0,1 338.34512282741878,216.33033108482024" />
    <path d="M 328.647616421535,255.0449468016522 A 136,136 0 0,1 316.07986727314619,278.55755169066589" />
    <path d="M 299.16652224137044,299.16652224137044 A 136,136 0 0,1 289.2774866462558,308.12942165733222" />
    <path d="M 278.55755169066589,316.07986727314619 A 136,136 0 0,1 255.04494680165223,328.64761642153496" />
    <path d="M 242.4787161066069,333.14388565958041 A 136,136 0 0,1 189.66966891517976,338.34512282741878" />
    <path d="M 163.52128389339316,333.14388565958041 A 136,136 0 0,1 150.9550531983478,328.647616421535" />
    <path d="M 127.44244830933414,316.07986727314619 A 136,136 0 0,1 116.72251335374423,308.12942165733227" />
    <path d="M 97.870578342667812,289.27748664625585 A 136,136 0 0,1 77.352383578465037,255.04494680165229" />
    <path d="M 72.8561143404196,242.4787161066069 A 136,136 0 0,1 67,203.00000000000003" />
    <path d="M 67.654877172581223,189.66966891517984 A 136,136 0 0,1 72.8561143404196,163.52128389339316" />
    <path d="M 83.058708048623714,138.89004379166431 A 136,136 0 0,1 89.920132726853822,127.44244830933414" />
    <path d="M 97.870578342667784,116.72251335374421 A 136,136 0 0,1 106.83347775862951,106.83347775862956" />
    <path d="M 116.72251335374415,97.870578342667827 A 136,136 0 0,1 163.5212838933931,72.8561143404196" />
    <path d="M 217.8986053300932,51.731921545826083 A 152,152 0 0,1 261.16788171949366,62.5703110582844" />
    <path d="M 299.42777919287414,85.50241108886398 A 152,152 0 0,1 337.05203218094994,131.34769600244835" />
    <path d="M 343.4296889417156,144.83211828050634 A 152,152 0 0,1 352.079362621291,173.34627105354849" />
    <path d="M 354.26807845417392,188.10139466990677 A 152,152 0 0,1 348.45493103129576,247.12327094267826" />
    <path d="M 343.4296889417156,261.16788171949361 A 152,152 0 0,1 337.05203218094994,274.65230399755166" />
    <path d="M 329.38338106998691,287.44667541897951 A 152,152 0 0,1 320.49758891113606,299.42777919287408" />
    <path d="M 299.42777919287414,320.497588911136 A 152,152 0 0,1 261.16788171949366,343.42968894171554" />
    <path d="M 232.65372894645154,352.079362621291 A 152,152 0 0,1 188.1013946699068,354.26807845417392" />
    <path d="M 173.34627105354849,352.079362621291 A 152,152 0 0,1 131.34769600244835,337.05203218094994" />
    <path d="M 118.55332458102051,329.38338106998691 A 152,152 0 0,1 76.616618930013118,287.44667541897951" />
    <path d="M 68.947967819050064,274.65230399755171 A 152,152 0 0,1 53.920637378708989,232.65372894645157" />
    <path d="M 51.731921545826083,217.89860533009318 A 152,152 0 0,1 51.731921545826054,188.10139466990688" />
    <path d="M 53.92063737870896,173.34627105354849 A 152,152 0 0,1 62.570311058284432,144.83211828050634" />
    <path d="M 68.947967819050035,131.34769600244837 A 152,152 0 0,1 85.502411088864,106.57222080712587" />
    <path d="M 95.519769259644747,95.5197692596448 A 152,152 0 0,1 106.57222080712582,85.502411088864037" />
    <path d="M 118.55332458102046,76.616618930013118 A 152,152 0 0,1 144.83211828050625,62.57031105828446" />
    <path d="M 203,35 A 168,168 0 0,1 219.46687957536619,35.808965919070914" />
    <path d="M 251.76782577874968,42.234023596988919 A 168,168 0 0,1 282.19465178676762,54.837227589476356" />
    <path d="M 296.33579914729319,63.3131051331724 A 168,168 0 0,1 321.79393923934,84.206060760660009" />
    <path d="M 342.68689486682763,109.66420085270683 A 168,168 0 0,1 358.21176146189617,138.70918336266493" />
    <path d="M 367.77192710774273,170.22482590129044 A 168,168 0 0,1 370.19103408092906,186.53312042463378" />
    <path d="M 371,203 A 168,168 0 0,1 358.21176146189617,267.29081663733507" />
    <path d="M 342.68689486682763,296.33579914729313 A 168,168 0 0,1 332.86575616493985,309.57807173949243" />
    <path d="M 309.57807173949243,332.86575616493985 A 168,168 0 0,1 296.33579914729319,342.68689486682763" />
    <path d="M 282.19465178676762,351.16277241052364 A 168,168 0 0,1 235.77517409870961,367.77192710774273" />
    <path d="M 219.46687957536622,370.19103408092906 A 168,168 0 0,1 170.22482590129044,367.77192710774273" />
    <path d="M 154.23217422125038,363.76597640301111 A 168,168 0 0,1 138.70918336266493,358.21176146189617" />
    <path d="M 123.80534821323241,351.16277241052364 A 168,168 0 0,1 96.421928260507585,332.86575616493985" />
    <path d="M 73.134243835060232,309.57807173949249 A 168,168 0 0,1 63.3131051331724,296.33579914729319" />
    <path d="M 47.788238538103855,267.29081663733518 A 168,168 0 0,1 42.234023596988919,251.76782577874968" />
    <path d="M 35.808965919070914,219.46687957536616 A 168,168 0 0,1 42.234023596988891,154.23217422125038" />
    <path d="M 47.788238538103855,138.70918336266487 A 168,168 0 0,1 63.313105133172371,109.66420085270688" />
    <path d="M 96.421928260507485,73.134243835060261 A 168,168 0 0,1 123.80534821323235,54.837227589476385" />
    <path d="M 154.23217422125032,42.234023596988919 A 168,168 0 0,1 186.53312042463384,35.808965919070914" />
    <path d="M 238.8966192509676,22.535508405805587 A 184,184 0 0,1 319.72836428611078,60.766076581256385" />
    <path d="M 345.23392341874359,86.271635713889225 A 184,184 0 0,1 372.99383398207675,132.58624844482347" />
    <path d="M 383.46449159419444,167.1033807490324 A 184,184 0 0,1 379.0770217747264,256.412380614821" />
    <path d="M 372.99383398207681,273.41375155517653 A 184,184 0 0,1 365.27351264009735,289.73699957598359" />
    <path d="M 345.23392341874364,319.72836428611072 A 184,184 0 0,1 333.10764773832477,333.10764773832477" />
    <path d="M 305.22492287560681,355.99040866366835 A 184,184 0 0,1 238.89661925096766,383.46449159419438" />
    <path d="M 184.96484617936085,386.11398970768425 A 184,184 0 0,1 167.1033807490324,383.46449159419444" />
    <path d="M 132.58624844482353,372.99383398207681 A 184,184 0 0,1 116.26300042401644,365.27351264009735" />
    <path d="M 86.271635713889268,345.23392341874364 A 184,184 0 0,1 60.76607658125647,319.72836428611083" />
    <path d="M 50.009591336331681,305.22492287560681 A 184,184 0 0,1 33.006166017923277,273.41375155517665" />
    <path d="M 26.922978225273567,256.41238061482107 A 184,184 0 0,1 19.886010292315774,184.96484617936093" />
    <path d="M 26.922978225273539,149.58761938517898 A 184,184 0 0,1 50.009591336331624,100.77507712439326" />
    <path d="M 60.766076581256414,86.271635713889211 A 184,184 0 0,1 72.892352261675228,72.892352261675285" />
    <path d="M 100.77507712439319,50.009591336331681 A 184,184 0 0,1 132.58624844482335,33.006166017923277" />
    <path d="M 149.5876193851789,26.922978225273567 A 184,184 0 0,1 184.96484617936088,19.886010292315774" />
    <path d="M 222.60342806591211,3.9630546655606338 A 200,200 0 1,1 203,3" />
  </g>
  <g fill="none" stroke="#000000" stroke-width="2" stroke-linecap="butt">
    <line x1="203" y1="3" x2="203" y2="51" />
    <line x1="203" y1="67" x2="203" y2="99" />
    <line x1="203" y1="147" x2="203" y2="163" />
    <line x1="222.60342806591211" y1="3.9630546655606054" x2="221.03515382063915" y2="19.886010292315774" />
    <line x1="238.8966192509676" y1="22.535508405805615" x2="232.65372894645151" y2="53.920637378708989" />
    <line x1="229.53228379419343" y1="69.613201865160647" x2="226.41083864193539" y2="85.305766351612348" />
    <line x1="220.16794833741929" y1="116.69089532451572" x2="217.04650318516124" y2="132.3834598109674" />
    <line x1="247.12327094267829" y1="57.545068968704271" x2="242.47871610660687" y2="72.8561143404196" />
    <line x1="273.41375155517653" y1="33.006166017923249" x2="267.29081663733507" y2="47.788238538103826" />
    <line x1="242.79907696596933" y1="106.91652861882618" x2="236.6761420481279" y2="121.69860113900677" />
    <line x1="230.55320713028647" y1="136.48067365918735" x2="224.43027221244503" y2="151.26274617936795" />
    <line x1="274.65230399755166" y1="68.947967819050035" x2="267.10995620833569" y2="83.058708048623714" />
    <line x1="296.33579914729319" y1="63.3131051331724" x2="287.44667541897957" y2="76.616618930013118" />
    <line x1="278.55755169066589" y1="89.920132726853851" x2="269.66842796235227" y2="103.22364652369457" />
    <line x1="260.77930423403865" y1="116.5271603205353" x2="251.890180505725" y2="129.83067411737602" />
    <line x1="299.42777919287414" y1="85.50241108886398" x2="289.2774866462558" y2="97.87057834266777" />
    <line x1="344.42135623730951" y1="61.57864376269049" x2="310.48023074035518" y2="95.519769259644775" />
    <line x1="299.16652224137044" y1="106.83347775862953" x2="276.53910524340097" y2="129.46089475659903" />
    <line x1="242.59797974644664" y1="163.40202025355333" x2="231.2842712474619" y2="174.7157287525381" />
    <line x1="357.60209067254743" y1="76.121343167270908" x2="345.23392341874364" y2="86.271635713889225" />
    <line x1="332.86575616493985" y1="96.421928260507556" x2="320.497588911136" y2="106.57222080712589" />
    <line x1="342.68689486682763" y1="109.66420085270681" x2="316.07986727314614" y2="127.44244830933408" />
    <line x1="276.169325882624" y1="154.109819494275" x2="262.86581208578326" y2="162.99894322258865" />
    <line x1="328.64761642153496" y1="150.9550531983478" x2="313.86554390135439" y2="157.0779881161892" />
    <line x1="299.08347138117381" y1="163.20092303403067" x2="269.51932634081265" y2="175.44679286971353" />
    <line x1="379.0770217747264" y1="149.58761938517893" x2="333.14388565958041" y2="163.52128389339313" />
    <line x1="336.38679813483935" y1="176.46771620580654" x2="320.69423364838764" y2="179.58916135806459" />
    <line x1="289.30910467548426" y1="185.83205166258071" x2="273.61654018903261" y2="188.95349681483876" />
    <line x1="370.19103408092906" y1="186.53312042463378" x2="338.34512282741878" y2="189.66966891517973" />
    <line x1="371" y1="203" x2="355" y2="203" />
    <line x1="339" y1="203" x2="291" y2="203" />
    <line x1="275" y1="203" x2="243" y2="203" />
    <line x1="352.079362621291" y1="232.65372894645148" x2="336.38679813483935" y2="229.53228379419343" />
    <line x1="394.38806714644181" y1="261.05693545089241" x2="379.0770217747264" y2="256.412380614821" />
    <line x1="348.45493103129576" y1="247.12327094267823" x2="333.14388565958041" y2="242.47871610660684" />
    <line x1="387.77590650225738" y1="279.53668647301794" x2="372.99383398207675" y2="273.41375155517653" />
    <line x1="328.64761642153496" y1="255.0449468016522" x2="313.86554390135439" y2="248.92201188381077" />
    <line x1="299.08347138117381" y1="242.79907696596933" x2="284.30139886099323" y2="236.6761420481279" />
    <line x1="254.73725382063205" y1="224.43027221244503" x2="239.95518130045147" y2="218.3073372946036" />
    <line x1="365.27351264009735" y1="289.73699957598359" x2="337.05203218094994" y2="274.65230399755166" />
    <line x1="369.29392246050907" y1="314.11404660392037" x2="342.68689486682763" y2="296.33579914729313" />
    <line x1="329.38338106998691" y1="287.44667541897951" x2="316.07986727314619" y2="278.55755169066583" />
    <line x1="302.77635347630547" y1="269.66842796235221" x2="289.47283967946476" y2="260.77930423403859" />
    <line x1="276.169325882624" y1="251.89018050572497" x2="262.86581208578326" y2="243.00105677741135" />
    <line x1="332.86575616493985" y1="309.57807173949243" x2="308.12942165733227" y2="289.27748664625574" />
    <line x1="333.10764773832477" y1="333.10764773832477" x2="287.85281374238571" y2="287.85281374238571" />
    <line x1="276.53910524340097" y1="276.53910524340097" x2="265.22539674441617" y2="265.22539674441617" />
    <line x1="242.59797974644667" y1="242.59797974644664" x2="219.97056274847714" y2="219.97056274847714" />
    <line x1="329.87865683272912" y1="357.60209067254743" x2="309.57807173949243" y2="332.86575616493985" />
    <line x1="299.42777919287414" y1="320.497588911136" x2="289.2774866462558" y2="308.12942165733222" />
    <line x1="314.11404660392043" y1="369.29392246050907" x2="305.22492287560681" y2="355.99040866366835" />
    <line x1="287.44667541897957" y1="329.38338106998691" x2="278.55755169066589" y2="316.07986727314619" />
    <line x1="269.66842796235227" y1="302.77635347630542" x2="260.77930423403865" y2="289.4728396794647" />
    <line x1="251.890180505725" y1="276.169325882624" x2="243.00105677741135" y2="262.86581208578326" />
    <line x1="267.29081663733507" y1="358.21176146189617" x2="261.16788171949366" y2="343.4296889417156" />
    <line x1="255.04494680165223" y1="328.64761642153496" x2="236.6761420481279" y2="284.30139886099323" />
    <line x1="230.55320713028647" y1="269.51932634081265" x2="224.43027221244503" y2="254.73725382063205" />
    <line x1="251.76782577874968" y1="363.76597640301111" x2="247.12327094267829" y2="348.4549310312957" />
    <line x1="235.77517409870961" y1="367.77192710774273" x2="229.53228379419349" y2="336.38679813483935" />
    <line x1="220.16794833741932" y1="289.30910467548426" x2="217.04650318516127" y2="273.61654018903261" />
    <line x1="222.60342806591217" y1="402.03694533443934" x2="221.03515382063918" y2="386.11398970768425" />
    <line x1="203.00000000000003" y1="387" x2="203.00000000000003" y2="371" />
    <line x1="203.00000000000003" y1="323" x2="203" y2="291" />
    <line x1="203" y1="275" x2="203" y2="259" />
    <line x1="203" y1="243" x2="203" y2="227" />
    <line x1="184.96484617936085" y1="386.11398970768425" x2="186.53312042463381" y2="370.19103408092906" />
    <line x1="163.98193559677432" y1="399.1570560806461" x2="167.1033807490324" y2="383.46449159419438" />
    <line x1="170.22482590129044" y1="367.77192710774273" x2="173.34627105354849" y2="352.079362621291" />
    <line x1="176.46771620580654" y1="336.38679813483935" x2="179.58916135806459" y2="320.69423364838764" />
    <line x1="149.58761938517898" y1="379.0770217747264" x2="158.87672905732177" y2="348.45493103129576" />
    <line x1="126.46331352698206" y1="387.77590650225738" x2="132.5862484448235" y2="372.99383398207681" />
    <line x1="150.9550531983478" y1="328.647616421535" x2="157.07798811618923" y2="313.86554390135444" />
    <line x1="163.20092303403067" y1="299.08347138117381" x2="175.44679286971353" y2="269.51932634081265" />
    <line x1="181.56972778755497" y1="254.73725382063208" x2="187.6926627053964" y2="239.95518130045147" />
    <line x1="131.34769600244835" y1="337.05203218094994" x2="138.89004379166431" y2="322.94129195137629" />
    <line x1="91.885953396079614" y1="369.29392246050907" x2="100.77507712439324" y2="355.9904086636684" />
    <line x1="109.66420085270687" y1="342.68689486682763" x2="118.55332458102051" y2="329.38338106998691" />
    <line x1="127.44244830933414" y1="316.07986727314619" x2="145.22069576596141" y2="289.47283967946476" />
    <line x1="86.271635713889268" y1="345.23392341874364" x2="96.4219282605076" y2="332.86575616493985" />
    <line x1="106.57222080712592" y1="320.49758891113606" x2="116.72251335374425" y2="308.12942165733227" />
    <line x1="84.206060760660023" y1="321.79393923934003" x2="106.83347775862954" y2="299.1665222413705" />
    <line x1="152.08831175456857" y1="253.91168824543144" x2="163.40202025355336" y2="242.59797974644667" />
    <line x1="174.7157287525381" y1="231.2842712474619" x2="186.02943725152286" y2="219.97056274847714" />
    <line x1="60.766076581256442" y1="319.72836428611083" x2="73.134243835060232" y2="309.57807173949254" />
    <line x1="50.009591336331681" y1="305.22492287560681" x2="63.3131051331724" y2="296.33579914729319" />
    <line x1="103.22364652369457" y1="269.66842796235227" x2="116.5271603205353" y2="260.77930423403865" />
    <line x1="129.83067411737602" y1="251.890180505725" x2="143.13418791421674" y2="243.00105677741135" />
    <line x1="54.837227589476356" y1="282.19465178676762" x2="83.058708048623728" y2="267.10995620833569" />
    <line x1="33.006166017923277" y1="273.41375155517665" x2="62.57031105828446" y2="261.16788171949372" />
    <line x1="92.134456098645614" y1="248.92201188381085" x2="121.69860113900678" y2="236.67614204812796" />
    <line x1="151.26274617936795" y1="224.43027221244506" x2="166.04481869954856" y2="218.3073372946036" />
    <line x1="26.922978225273567" y1="256.41238061482107" x2="42.234023596988919" y2="251.76782577874968" />
    <line x1="38.2280728922573" y1="235.77517409870961" x2="53.920637378708989" y2="232.65372894645157" />
    <line x1="69.613201865160676" y1="229.53228379419349" x2="100.99833083806405" y2="223.28939348967737" />
    <line x1="116.69089532451574" y1="220.16794833741932" x2="132.38345981096742" y2="217.04650318516127" />
    <line x1="35.808965919070914" y1="219.46687957536616" x2="51.731921545826054" y2="217.89860533009318" />
    <line x1="83" y1="203.00000000000003" x2="99" y2="203.00000000000003" />
    <line x1="131" y1="203" x2="163" y2="203" />
    <line x1="19.886010292315774" y1="184.96484617936093" x2="35.808965919070914" y2="186.53312042463389" />
    <line x1="51.731921545826054" y1="188.10139466990688" x2="67.654877172581223" y2="189.66966891517984" />
    <line x1="6.8429439193539" y1="163.98193559677435" x2="22.535508405805615" y2="167.1033807490324" />
    <line x1="38.228072892257273" y1="170.22482590129044" x2="53.920637378708989" y2="173.34627105354849" />
    <line x1="100.99833083806404" y1="182.71060651032266" x2="116.69089532451572" y2="185.83205166258071" />
    <line x1="26.922978225273567" y1="149.58761938517898" x2="42.234023596988891" y2="154.23217422125038" />
    <line x1="33.006166017923249" y1="132.58624844482344" x2="47.788238538103855" y2="138.70918336266487" />
    <line x1="62.570311058284432" y1="144.83211828050634" x2="92.1344560986456" y2="157.0779881161892" />
    <line x1="106.91652861882619" y1="163.20092303403064" x2="121.69860113900678" y2="169.32385795187207" />
    <line x1="136.48067365918735" y1="175.44679286971353" x2="166.04481869954853" y2="187.6926627053964" />
    <line x1="76.61661893001309" y1="118.55332458102052" x2="103.22364652369454" y2="136.33157203764779" />
    <line x1="116.52716032053527" y1="145.22069576596141" x2="143.13418791421674" y2="162.99894322258865" />
    <line x1="48.397909327452624" y1="76.121343167270879" x2="60.766076581256414" y2="86.271635713889211" />
    <line x1="73.1342438350602" y1="96.421928260507542" x2="85.502411088864" y2="106.57222080712587" />
    <line x1="72.892352261675228" y1="72.892352261675285" x2="84.20606076066" y2="84.206060760660051" />
    <line x1="106.83347775862951" y1="106.83347775862956" x2="129.46089475659903" y2="129.46089475659909" />
    <line x1="140.7746032555838" y1="140.77460325558383" x2="152.08831175456857" y2="152.08831175456859" />
    <line x1="76.121343167270808" y1="48.39790932745268" x2="86.271635713889154" y2="60.766076581256442" />
    <line x1="96.421928260507485" y1="73.134243835060232" x2="106.57222080712582" y2="85.502411088864022" />
    <line x1="109.66420085270684" y1="63.3131051331724" x2="118.55332458102046" y2="76.616618930013118" />
    <line x1="136.33157203764773" y1="103.22364652369457" x2="154.109819494275" y2="129.83067411737602" />
    <line x1="108.72065263480042" y1="26.615747130329027" x2="123.80534821323235" y2="54.837227589476385" />
    <line x1="132.58624844482335" y1="33.006166017923277" x2="138.70918336266482" y2="47.788238538103855" />
    <line x1="169.32385795187204" y1="121.69860113900678" x2="181.56972778755494" y2="151.26274617936795" />
    <line x1="144.9430645491075" y1="11.611932853558244" x2="163.5212838933931" y2="72.8561143404196" />
    <line x1="170.22482590129039" y1="38.2280728922573" x2="173.34627105354844" y2="53.920637378708989" />
    <line x1="176.46771620580648" y1="69.613201865160676" x2="179.58916135806456" y2="85.305766351612363" />
    <line x1="182.71060651032261" y1="100.99833083806405" x2="188.95349681483873" y2="132.38345981096742" />
    <line x1="186.53312042463384" y1="35.808965919070914" x2="188.1013946699068" y2="51.731921545826054" />
  </g>
  <path fill="none" stroke="#ff0000" stroke-width="2" stroke-linecap="square" stroke-linejoin="round" d="M 212.8135348654836,3.2409087589655314 L 211.63591068162558,27.211999707889646 A 176,176 0 0,1 228.82456350414367,28.904934246198536 L 226.47687591285788,44.731758405635048 A 160,160 0 0,0 210.85082789238689,43.192727007172408 L 210.0657451031482,59.17345430645517 A 144,144 0 0,0 168.01085409392996,63.315499539985666 L 171.89853697238218,78.835999591098371 A 128,128 0 0,0 117.04045377958161,108.15825595456526 L 106.29551050202932,96.30303794888593 A 144,144 0 0,0 96.303037948885887,106.29551050202936 L 72.5926019375272,84.805623946924769 A 176,176 0 0,0 61.635474459406424,98.156922409331813 L 48.784153955716107,88.625733537452888 A 192,192 0 0,0 16.753999386647536,156.34780545857336 L 32.274499437760255,160.23548833702557 A 176,176 0 0,0 28.904934246198565,177.1754364958563 L 13.078110086762052,174.82774890457051 A 192,192 0 0,0 88.625733537452817,357.21584604428381 L 98.156922409331742,344.36452554059349 A 176,176 0 0,0 127.7503035562704,362.10211558972605 L 134.59118505115492,347.63828689975094 A 160,160 0 0,1 120.74356092908455,340.23657760004357 L 137.19484874326764,312.78926208003486 A 128,128 0 0,0 148.27294804092392,318.71062951980076 L 141.43206654603941,333.17445820977582 A 144,144 0 0,0 181.87081167842794,345.44141743492844 L 179.52312408714215,361.26824159436495 A 160,160 0 0,0 226.47687591285788,361.26824159436495 L 228.82456350414367,377.09506575380146 A 176,176 0 0,0 293.48208297800704,353.96023536004788 L 285.25643907091546,340.23657760004352 A 160,160 0 0,0 310.44943277552295,321.55218005679342 L 331.93931933062754,345.26261606815211 A 192,192 0 0,0 357.21584604428381,317.37426646254721 L 344.36452554059349,307.84307759066826 A 176,176 0 0,1 333.40739806247279,321.19437605307525 L 297.84174404543478,288.95954622041836 A 128,128 0 0,0 301.94533803043032,284.20234037294659 L 289.57717077662653,274.05204782632825 A 112,112 0 0,1 274.05204782632831,289.57717077662653 L 284.20234037294665,301.94533803043032 A 128,128 0 0,1 263.33878231372773,315.88592183658943 L 240.71173894607983,273.55370114786842 A 80,80 0 0,1 226.222774180357,279.5552268585767 L 230.86732901642839,294.86627223029205 A 96,96 0 0,1 212.40964547163785,298.5377337605309 L 210.84137122636486,282.61477813377576 A 80,80 0 0,1 179.77722581964304,279.5552268585767 L 175.13267098357164,294.86627223029205 A 96,96 0 0,0 193.59035452836218,298.5377337605309 L 192.02208028308922,314.46068938728604 A 112,112 0 0,1 150.20356547548826,301.77518160701578 L 157.74591326470423,287.66444137744207 A 96,96 0 0,1 118.33555862255793,248.2540867352958 L 132.44629885213161,240.71173894607983 A 80,80 0 0,1 126.4447731414233,226.222774180357 L 141.75581851313865,221.5782193442856 A 64,64 0 0,0 149.7859448126371,238.55649491325454 L 163.08945860947785,229.66737118494092 A 48,48 0 0,0 176.33262881505911,242.91054139052218 L 185.22175254337273,229.60702759368147 A 32,32 0 0,0 190.75413016431713,232.56414504036118 L 193.81559762323786,225.17310878027089" />
  <type>Circular</type>
</svg>