<?xml version="1.0" encoding="utf-8" standalone="no"?>
<!DOCTYPE svg PUBLIC "-//W3C//DTD SVG 1.1//EN" "http://www.w3.org/Graphics/SVG/1.1/DTD/svg11.dtd"[]>
<svg width="404" height="404" version="1.1" xmlns="http://www.w3.org/2000/svg">
  <title>25 cells diameter theta maze</title>
  <g fill="none" stroke="#000000" stroke-width="2" stroke-linecap="square">
    <path d="M 186.02943725152286,219.97056274847714 A 24,24 0 1,1 203,227" />
    <path d="M 166.04481869954853,187.6926627053964 A 40,40 0 0,1 239.95518130045147,218.3073372946036" />
    <path d="M 218.3073372946036,239.95518130045147 A 40,40 0 0,1 174.7157287525381,231.2842712474619" />
    <path d="M 166.04481869954853,218.3073372946036 A 40,40 0 0,1 163,203" />
    <path d="M 163.40202025355333,163.40202025355336 A 56,56 0 0,1 203,147" />
    <path d="M 224.43027221244503,151.26274617936795 A 56,56 0 0,1 254.73725382063205,181.56972778755497" />
    <path d="M 242.59797974644667,242.59797974644664 A 56,56 0 0,1 203,259" />
    <path d="M 181.569727787555,254.73725382063208 A 56,56 0 0,1 151.26274617936795,181.56972778755497" />
    <path d="M 217.04650318516124,132.3834598109674 A 72,72 0 0,1 243.00105677741135,143.13418791421674" />
    <path d="M 253.91168824543144,152.08831175456857 A 72,72 0 0,1 269.51932634081265,175.44679286971353" />
    <path d="M 273.61654018903261,188.95349681483876 A 72,72 0 0,1 273.61654018903261,217.04650318516124" />
    <path d="M 269.51932634081265,230.55320713028647 A 72,72 0 0,1 243.00105677741135,262.86581208578326" />
    <path d="M 217.04650318516127,273.61654018903261 A 72,72 0 0,1 175.44679286971353,269.51932634081265" />
    <path d="M 162.99894322258865,262.86581208578326 A 72,72 0 0,1 188.95349681483873,132.3834598109674" />
    <path d="M 251.890180505725,129.83067411737602 A 88,88 0 0,1 276.169325882624,154.109819494275" />
    <path d="M 284.30139886099323,169.3238579518721 A 88,88 0 0,1 289.30910467548426,185.83205166258071" />
    <path d="M 289.30910467548426,220.16794833741929 A 88,88 0 0,1 284.30139886099323,236.6761420481279" />
    <path d="M 276.169325882624,251.89018050572497 A 88,88 0 0,1 236.6761420481279,284.30139886099323" />
    <path d="M 203,291 A 88,88 0 0,1 140.77460325558383,265.22539674441617" />
    <path d="M 129.83067411737602,251.890180505725 A 88,88 0 0,1 121.69860113900678,236.67614204812796" />
    <path d="M 116.69089532451572,220.16794833741932 A 88,88 0 0,1 129.830674117376,154.10981949427503" />
    <path d="M 154.109819494275,129.83067411737602 A 88,88 0 0,1 185.83205166258068,116.69089532451572" />
    <path d="M 163.20092303403061,106.91652861882621 A 104,104 0 0,1 203,99" />
    <path d="M 223.28939348967734,100.99833083806404 A 104,104 0 0,1 276.53910524340097,129.46089475659906" />
    <path d="M 305.001669161936,182.71060651032266 A 104,104 0 0,1 307,203" />
    <path d="M 305.001669161936,223.28939348967734 A 104,104 0 0,1 299.08347138117381,242.79907696596933" />
    <path d="M 289.47283967946476,260.77930423403859 A 104,104 0 0,1 276.53910524340097,276.53910524340097" />
    <path d="M 260.77930423403859,289.4728396794647 A 104,104 0 0,1 223.28939348967737,305.001669161936" />
    <path d="M 203,307 A 104,104 0 0,1 182.71060651032266,305.001669161936" />
    <path d="M 163.20092303403067,299.08347138117381 A 104,104 0 0,1 145.22069576596141,289.47283967946476" />
    <path d="M 129.46089475659909,276.53910524340097 A 104,104 0 0,1 106.91652861882621,242.79907696596939" />
    <path d="M 100.99833083806404,223.28939348967737 A 104,104 0 0,1 145.22069576596135,116.5271603205353" />
    <path d="M 179.58916135806456,85.305766351612363 A 120,120 0 0,1 248.92201188381077,92.134456098645586" />
    <path d="M 287.85281374238571,118.14718625761429 A 120,120 0 0,1 302.77635347630542,136.33157203764773" />
    <path d="M 313.86554390135439,157.07798811618923 A 120,120 0 0,1 320.69423364838764,179.58916135806459" />
    <path d="M 323,203 A 120,120 0 0,1 302.77635347630542,269.66842796235221" />
    <path d="M 269.66842796235227,302.77635347630542 A 120,120 0 0,1 203.00000000000003,323" />
    <path d="M 179.58916135806459,320.69423364838764 A 120,120 0 0,1 118.14718625761431,287.85281374238571" />
    <path d="M 103.22364652369457,269.66842796235227 A 120,120 0 0,1 103.22364652369454,136.33157203764779" />
    <path d="M 189.66966891517978,67.654877172581223 A 136,136 0 0,1 267.10995620833569,83.058708048623714" />
    <path d="M 278.55755169066589,89.920132726853851 A 136,136 0 0,1 308.12942165733222,116.72251335374421" />
    <path d="M 316.07986727314614,127.4424483093341 A 136,136 0 0,1 328.64761642153496,150.9550531983478" />
    <path d="M 333.14388565958041,163.52128389339313 A 136,136 0 0,1 338.34512282741878,216.33033108482024" />
    <path d="M 336.38679813483935,229.53228379419343 A 136,136 0 0,1 289.2774866462558,308.12942165733222" />
    <path d="M 267.10995620833569,322.94129195137629 A 136,136 0 0,1 255.04494680165223,328.64761642153496" />
    <path d="M 229.53228379419349,336.3867981348393 A 136,136 0 0,1 216.33033108482027,338.34512282741878" />
    <path d="M 189.66966891517976,338.34512282741878 A 136,136 0 0,1 176.46771620580654,336.38679813483935" />
    <path d="M 163.52128389339316,333.14388565958041 A 136,136 0 0,1 97.870578342667812,289.27748664625585" />
    <path d="M 67.654877172581223,216.33033108482022 A 136,136 0 0,1 69.613201865160647,176.46771620580654" />
    <path d="M 83.058708048623714,138.89004379166431 A 136,136 0 0,1 97.870578342667784,116.72251335374421" />
    <path d="M 106.83347775862951,106.83347775862956 A 136,136 0 0,1 150.95505319834771,77.352383578465037" />
    <path d="M 163.5212838933931,72.8561143404196 A 136,136 0 0,1 176.46771620580648,69.613201865160676" />
    <path d="M 173.34627105354844,53.920637378708989 A 152,152 0 0,1 203,51" />
    <path d="M 217.8986053300932,51.731921545826083 A 152,152 0 0,1 232.65372894645151,53.92063737870896" />
    <path d="M 247.12327094267829,57.545068968704243 A 152,152 0 0,1 261.16788171949366,62.5703110582844" />
    <path d="M 274.65230399755166,68.947967819050035 A 152,152 0 0,1 287.44667541897957,76.616618930013118" />
    <path d="M 310.48023074035524,95.519769259644775 A 152,152 0 0,1 337.05203218094994,131.34769600244835" />
    <path d="M 352.079362621291,173.34627105354849 A 152,152 0 0,1 354.26807845417392,188.10139466990677" />
    <path d="M 354.26807845417392,217.89860533009323 A 152,152 0 0,1 348.45493103129576,247.12327094267826" />
    <path d="M 329.38338106998691,287.44667541897951 A 152,152 0 0,1 320.49758891113606,299.42777919287408" />
    <path d="M 310.48023074035524,310.48023074035518 A 152,152 0 0,1 287.44667541897951,329.38338106998685" />
    <path d="M 261.16788171949366,343.42968894171554 A 152,152 0 0,1 232.65372894645154,352.079362621291" />
    <path d="M 217.89860533009323,354.26807845417392 A 152,152 0 0,1 188.1013946699068,354.26807845417392" />
    <path d="M 173.34627105354849,352.079362621291 A 152,152 0 0,1 106.57222080712592,320.49758891113606" />
    <path d="M 85.502411088864022,299.42777919287414 A 152,152 0 0,1 57.545068968704243,247.12327094267829" />
    <path d="M 51.731921545826083,217.89860533009318 A 152,152 0 0,1 57.545068968704243,158.87672905732177" />
    <path d="M 62.570311058284432,144.83211828050634 A 152,152 0 0,1 95.519769259644747,95.5197692596448" />
    <path d="M 131.34769600244832,68.947967819050064 A 152,152 0 0,1 144.83211828050625,62.57031105828446" />
    <path d="M 186.53312042463384,35.808965919070914 A 168,168 0 0,1 203,35" />
    <path d="M 235.77517409870956,38.228072892257273 A 168,168 0 0,1 251.76782577874968,42.234023596988919" />
    <path d="M 267.29081663733507,47.788238538103826 A 168,168 0 0,1 282.19465178676762,54.837227589476356" />
    <path d="M 309.57807173949243,73.134243835060175 A 168,168 0 0,1 342.68689486682763,109.66420085270683" />
    <path d="M 351.16277241052364,123.80534821323238 A 168,168 0 0,1 370.19103408092906,219.46687957536619" />
    <path d="M 358.21176146189617,267.29081663733507 A 168,168 0 0,1 342.68689486682763,296.33579914729313" />
    <path d="M 309.57807173949243,332.86575616493985 A 168,168 0 0,1 282.19465178676762,351.16277241052364" />
    <path d="M 235.77517409870961,367.77192710774273 A 168,168 0 0,1 219.46687957536622,370.19103408092906" />
    <path d="M 186.53312042463381,370.19103408092906 A 168,168 0 0,1 170.22482590129044,367.77192710774273" />
    <path d="M 154.23217422125038,363.76597640301111 A 168,168 0 0,1 123.80534821323241,351.16277241052364" />
    <path d="M 109.66420085270688,342.68689486682763 A 168,168 0 0,1 47.788238538103855,267.29081663733518" />
    <path d="M 38.2280728922573,235.77517409870961 A 168,168 0 0,1 35.808965919070914,186.53312042463392" />
    <path d="M 38.228072892257273,170.22482590129044 A 168,168 0 0,1 47.788238538103855,138.70918336266487" />
    <path d="M 73.1342438350602,96.421928260507542 A 168,168 0 0,1 96.421928260507485,73.134243835060261" />
    <path d="M 123.80534821323235,54.837227589476385 A 168,168 0 0,1 170.22482590129039,38.2280728922573" />
    <path d="M 167.10338074903231,22.535508405805615 A 184,184 0 0,1 203,19" />
    <path d="M 221.03515382063915,19.886010292315774 A 184,184 0 0,1 256.41238061482107,26.922978225273567" />
    <path d="M 305.22492287560681,50.009591336331681 A 184,184 0 0,1 319.72836428611078,60.766076581256385" />
    <path d="M 333.10764773832477,72.892352261675256 A 184,184 0 0,1 345.23392341874359,86.271635713889225" />
    <path d="M 355.99040866366829,100.77507712439318 A 184,184 0 0,1 365.27351264009735,116.26300042401641" />
    <path d="M 372.99383398207675,132.58624844482347 A 184,184 0 0,1 379.0770217747264,149.58761938517893" />
    <path d="M 386.11398970768425,221.03515382063915 A 184,184 0 0,1 383.46449159419444,238.8966192509676" />
    <path d="M 365.27351264009735,289.73699957598359 A 184,184 0 0,1 355.99040866366835,305.22492287560675" />
    <path d="M 345.23392341874364,319.72836428611072 A 184,184 0 0,1 319.72836428611078,345.23392341874364" />
    <path d="M 305.22492287560681,355.99040866366835 A 184,184 0 0,1 273.41375155517653,372.99383398207675" />
    <path d="M 256.41238061482107,379.0770217747264 A 184,184 0 0,1 184.96484617936085,386.11398970768425" />
    <path d="M 167.1033807490324,383.46449159419444 A 184,184 0 0,1 149.58761938517898,379.0770217747264" />
    <path d="M 72.892352261675285,333.10764773832477 A 184,184 0 0,1 60.76607658125647,319.72836428611083" />
    <path d="M 33.006166017923277,273.41375155517665 A 184,184 0 0,1 22.535508405805615,238.89661925096766" />
    <path d="M 19.886010292315774,184.96484617936093 A 184,184 0 0,1 22.535508405805587,167.1033807490324" />
    <path d="M 33.006166017923249,132.58624844482344 A 184,184 0 0,1 40.726487359902677,116.26300042401645" />
    <path d="M 50.009591336331624,100.77507712439326 A 184,184 0 0,1 72.892352261675228,72.892352261675285" />
    <path d="M 100.77507712439319,50.009591336331681 A 184,184 0 0,1 116.26300042401638,40.726487359902706" />
    <path d="M 132.58624844482335,33.006166017923277 A 184,184 0 0,1 149.5876193851789,26.922978225273567" />
    <path d="M 222.60342806591211,3.9630546655606338 A 200,200 0 1,1 203,3" />
  </g>
  <g fill="none" stroke="#000000" stroke-width="2" stroke-linecap="butt">
    <line x1="203" y1="35" x2="203" y2="51" />
    <line x1="203" y1="83" x2="203" y2="147" />
    <line x1="221.03515382063915" y1="19.886010292315774" x2="217.8986053300932" y2="51.731921545826054" />
    <line x1="232.65372894645151" y1="53.920637378708989" x2="229.53228379419343" y2="69.613201865160647" />
    <line x1="223.28939348967734" y1="100.99833083806404" x2="217.04650318516124" y2="132.3834598109674" />
    <line x1="261.05693545089247" y1="11.611932853558244" x2="247.12327094267829" y2="57.545068968704271" />
    <line x1="279.53668647301794" y1="18.224093497742643" x2="273.41375155517653" y2="33.006166017923249" />
    <line x1="267.29081663733507" y1="47.788238538103826" x2="261.16788171949366" y2="62.5703110582844" />
    <line x1="255.0449468016522" y1="77.352383578465009" x2="248.92201188381077" y2="92.134456098645586" />
    <line x1="236.6761420481279" y1="121.69860113900677" x2="224.43027221244503" y2="151.26274617936795" />
    <line x1="289.73699957598353" y1="40.726487359902677" x2="282.19465178676762" y2="54.837227589476356" />
    <line x1="305.22492287560681" y1="50.009591336331681" x2="260.77930423403865" y2="116.5271603205353" />
    <line x1="309.57807173949243" y1="73.134243835060175" x2="299.42777919287414" y2="85.50241108886398" />
    <line x1="344.42135623730951" y1="61.57864376269049" x2="333.10764773832477" y2="72.892352261675256" />
    <line x1="310.48023074035518" y1="95.519769259644775" x2="299.16652224137044" y2="106.83347775862953" />
    <line x1="276.53910524340097" y1="129.46089475659903" x2="265.22539674441617" y2="140.77460325558383" />
    <line x1="369.29392246050907" y1="91.885953396079543" x2="342.68689486682763" y2="109.66420085270681" />
    <line x1="302.77635347630542" y1="136.33157203764773" x2="276.169325882624" y2="154.109819494275" />
    <line x1="351.16277241052364" y1="123.80534821323236" x2="337.05203218094994" y2="131.34769600244835" />
    <line x1="387.77590650225738" y1="126.46331352698203" x2="372.99383398207675" y2="132.58624844482347" />
    <line x1="358.21176146189617" y1="138.7091833626649" x2="299.08347138117381" y2="163.20092303403067" />
    <line x1="284.30139886099323" y1="169.3238579518721" x2="254.73725382063205" y2="181.56972778755497" />
    <line x1="363.76597640301111" y1="154.23217422125032" x2="348.45493103129576" y2="158.87672905732171" />
    <line x1="399.1570560806461" y1="163.98193559677435" x2="383.46449159419438" y2="167.1033807490324" />
    <line x1="320.69423364838764" y1="179.58916135806459" x2="305.001669161936" y2="182.71060651032266" />
    <line x1="402.03694533443934" y1="183.39657193408783" x2="386.11398970768425" y2="184.96484617936082" />
    <line x1="354.26807845417392" y1="188.10139466990677" x2="338.34512282741878" y2="189.66966891517973" />
    <line x1="403" y1="203" x2="387" y2="203" />
    <line x1="371" y1="203" x2="355" y2="203" />
    <line x1="339" y1="203" x2="323" y2="203" />
    <line x1="291" y1="203" x2="243" y2="203" />
    <line x1="370.19103408092906" y1="219.46687957536619" x2="338.34512282741878" y2="216.33033108482024" />
    <line x1="399.1570560806461" y1="242.01806440322565" x2="367.77192710774273" y2="235.77517409870953" />
    <line x1="305.001669161936" y1="223.28939348967734" x2="289.30910467548426" y2="220.16794833741929" />
    <line x1="379.0770217747264" y1="256.412380614821" x2="348.45493103129576" y2="247.12327094267823" />
    <line x1="387.77590650225738" y1="279.53668647301794" x2="328.64761642153496" y2="255.0449468016522" />
    <line x1="313.86554390135439" y1="248.92201188381077" x2="299.08347138117381" y2="242.79907696596933" />
    <line x1="284.30139886099323" y1="236.6761420481279" x2="239.95518130045147" y2="218.3073372946036" />
    <line x1="337.05203218094994" y1="274.65230399755166" x2="322.94129195137629" y2="267.10995620833569" />
    <line x1="355.9904086636684" y1="305.22492287560675" x2="342.68689486682763" y2="296.33579914729313" />
    <line x1="289.47283967946476" y1="260.77930423403859" x2="276.169325882624" y2="251.89018050572497" />
    <line x1="345.23392341874364" y1="319.72836428611072" x2="320.49758891113606" y2="299.42777919287408" />
    <line x1="321.79393923934" y1="321.79393923934" x2="310.48023074035524" y2="310.48023074035518" />
    <line x1="299.16652224137044" y1="299.16652224137044" x2="276.53910524340097" y2="276.53910524340097" />
    <line x1="242.59797974644667" y1="242.59797974644664" x2="219.97056274847714" y2="219.97056274847714" />
    <line x1="329.87865683272912" y1="357.60209067254743" x2="309.57807173949243" y2="332.86575616493985" />
    <line x1="299.42777919287414" y1="320.497588911136" x2="289.2774866462558" y2="308.12942165733222" />
    <line x1="287.44667541897957" y1="329.38338106998691" x2="269.66842796235227" y2="302.77635347630542" />
    <line x1="260.77930423403865" y1="289.4728396794647" x2="251.890180505725" y2="276.169325882624" />
    <line x1="282.19465178676762" y1="351.16277241052364" x2="267.10995620833569" y2="322.94129195137629" />
    <line x1="279.536686473018" y1="387.77590650225738" x2="261.16788171949366" y2="343.4296889417156" />
    <line x1="236.6761420481279" y1="284.30139886099323" x2="224.43027221244503" y2="254.73725382063205" />
    <line x1="256.41238061482107" y1="379.0770217747264" x2="251.76782577874968" y2="363.76597640301111" />
    <line x1="247.12327094267829" y1="348.4549310312957" x2="242.4787161066069" y2="333.14388565958041" />
    <line x1="235.77517409870961" y1="367.77192710774273" x2="232.65372894645154" y2="352.079362621291" />
    <line x1="223.28939348967737" y1="305.001669161936" x2="217.04650318516127" y2="273.61654018903261" />
    <line x1="217.89860533009323" y1="354.26807845417392" x2="216.33033108482027" y2="338.34512282741878" />
    <line x1="203.00000000000003" y1="387" x2="203.00000000000003" y2="355" />
    <line x1="203.00000000000003" y1="339" x2="203.00000000000003" y2="323" />
    <line x1="203" y1="243" x2="203" y2="227" />
    <line x1="188.1013946699068" y1="354.268078454174" x2="189.66966891517976" y2="338.34512282741878" />
    <line x1="163.98193559677432" y1="399.1570560806461" x2="173.34627105354849" y2="352.079362621291" />
    <line x1="176.46771620580654" y1="336.38679813483935" x2="182.71060651032266" y2="305.001669161936" />
    <line x1="149.58761938517898" y1="379.0770217747264" x2="154.23217422125038" y2="363.76597640301111" />
    <line x1="126.46331352698206" y1="387.77590650225738" x2="132.5862484448235" y2="372.99383398207681" />
    <line x1="116.26300042401644" y1="365.27351264009735" x2="123.80534821323239" y2="351.16277241052364" />
    <line x1="100.77507712439324" y1="355.9904086636684" x2="109.66420085270687" y2="342.68689486682763" />
    <line x1="145.22069576596141" y1="289.47283967946476" x2="154.10981949427503" y2="276.169325882624" />
    <line x1="86.271635713889268" y1="345.23392341874364" x2="96.4219282605076" y2="332.86575616493985" />
    <line x1="106.57222080712592" y1="320.49758891113606" x2="116.72251335374425" y2="308.12942165733227" />
    <line x1="61.578643762690518" y1="344.42135623730951" x2="72.892352261675256" y2="333.10764773832477" />
    <line x1="84.206060760660023" y1="321.79393923934003" x2="95.519769259644789" y2="310.48023074035524" />
    <line x1="118.14718625761431" y1="287.85281374238571" x2="129.46089475659906" y2="276.53910524340097" />
    <line x1="140.77460325558383" y1="265.22539674441617" x2="152.08831175456857" y2="253.91168824543144" />
    <line x1="163.40202025355336" y1="242.59797974644667" x2="174.7157287525381" y2="231.2842712474619" />
    <line x1="85.502411088864022" y1="299.4277791928742" x2="97.870578342667812" y2="289.27748664625585" />
    <line x1="50.009591336331681" y1="305.22492287560681" x2="63.3131051331724" y2="296.33579914729319" />
    <line x1="76.616618930013118" y1="287.44667541897957" x2="103.22364652369457" y2="269.66842796235227" />
    <line x1="26.615747130328998" y1="297.27934736519956" x2="54.837227589476356" y2="282.19465178676762" />
    <line x1="68.947967819050064" y1="274.65230399755166" x2="83.058708048623728" y2="267.10995620833569" />
    <line x1="77.352383578465037" y1="255.04494680165229" x2="92.134456098645614" y2="248.92201188381085" />
    <line x1="106.91652861882621" y1="242.79907696596939" x2="136.48067365918737" y2="230.5532071302865" />
    <line x1="26.922978225273567" y1="256.41238061482107" x2="72.8561143404196" y2="242.4787161066069" />
    <line x1="38.2280728922573" y1="235.77517409870961" x2="53.920637378708989" y2="232.65372894645157" />
    <line x1="69.613201865160676" y1="229.53228379419349" x2="85.305766351612363" y2="226.41083864193544" />
    <line x1="116.69089532451574" y1="220.16794833741932" x2="132.38345981096742" y2="217.04650318516127" />
    <line x1="19.886010292315774" y1="221.03515382063912" x2="67.654877172581223" y2="216.33033108482022" />
    <line x1="3" y1="203.00000000000003" x2="19" y2="203.00000000000003" />
    <line x1="163" y1="203" x2="179" y2="203" />
    <line x1="22.535508405805615" y1="167.1033807490324" x2="53.920637378708989" y2="173.34627105354849" />
    <line x1="11.611932853558216" y1="144.94306454910759" x2="26.922978225273567" y2="149.58761938517898" />
    <line x1="57.545068968704243" y1="158.87672905732177" x2="72.8561143404196" y2="163.52128389339316" />
    <line x1="33.006166017923249" y1="132.58624844482344" x2="92.1344560986456" y2="157.0779881161892" />
    <line x1="136.48067365918735" y1="175.44679286971353" x2="166.04481869954853" y2="187.6926627053964" />
    <line x1="40.726487359902677" y1="116.26300042401644" x2="54.837227589476356" y2="123.80534821323241" />
    <line x1="50.009591336331624" y1="100.77507712439326" x2="76.61661893001309" y2="118.55332458102052" />
    <line x1="89.920132726853822" y1="127.44244830933415" x2="103.22364652369454" y2="136.33157203764779" />
    <line x1="118.14718625761428" y1="118.14718625761432" x2="129.46089475659903" y2="129.46089475659909" />
    <line x1="140.7746032555838" y1="140.77460325558383" x2="152.08831175456857" y2="152.08831175456859" />
    <line x1="86.271635713889154" y1="60.766076581256442" x2="116.72251335374415" y2="97.870578342667812" />
    <line x1="100.77507712439319" y1="50.009591336331681" x2="118.55332458102046" y2="76.616618930013118" />
    <line x1="127.44244830933411" y1="89.920132726853851" x2="154.109819494275" y2="129.83067411737602" />
    <line x1="108.72065263480042" y1="26.615747130329027" x2="116.26300042401638" y2="40.726487359902706" />
    <line x1="132.58624844482335" y1="33.006166017923277" x2="144.83211828050625" y2="62.57031105828446" />
    <line x1="157.07798811618915" y1="92.134456098645614" x2="163.20092303403061" y2="106.91652861882621" />
    <line x1="158.87672905732171" y1="57.545068968704271" x2="163.5212838933931" y2="72.8561143404196" />
    <line x1="167.10338074903231" y1="22.535508405805615" x2="176.46771620580648" y2="69.613201865160676" />
    <line x1="185.83205166258068" y1="116.69089532451574" x2="188.95349681483873" y2="132.38345981096742" />
    <line x1="183.39657193408789" y1="3.9630546655606054" x2="184.96484617936088" y2="19.886010292315774" />
  </g>
  <path fill="none" stroke="#ff0000" stroke-width="2" stroke-linecap="square" stroke-linejoin="round" d="M 212.8135348654836,3.2409087589655314 L 210.0657451031482,59.17345430645517 A 144,144 0 0,0 181.87081167842783,60.558582565071561 L 184.21849926971362,76.385406724508044 A 128,128 0 0,0 142.66121768627227,90.114078163410582 L 157.7459132647042,118.33555862255793 A 96,96 0 0,1 193.59035452836218,107.4622662394691 L 196.72690301890813,139.30817749297938 A 64,64 0 0,0 149.7859448126371,167.44350508674549 L 163.08945860947782,176.33262881505911 A 48,48 0 0,1 212.36433545677414,155.92230654064494 L 215.48578060903222,140.22974205419325 A 64,64 0 0,0 209.27309698109187,139.30817749297938 L 213.97791971691078,91.539310612713948 A 112,112 0 0,1 255.79643452451174,104.22481839298423 L 263.33878231372768,90.114078163410554 A 128,128 0 0,1 268.80515125673236,93.210737919965169 L 277.03079516382394,79.487080159960811 A 144,144 0 0,0 264.56793345396062,72.82554179022415 L 271.40881494884513,58.361713100249062 A 160,160 0 0,1 285.25643907091546,65.763422399956454 L 301.70772688509857,38.316106879947768 A 192,192 0 0,1 331.93931933062754,60.73738393184783 L 321.19437605307525,72.592601937527178 A 176,176 0 0,0 307.84307759066826,61.63547445940651 L 288.78069984691041,87.33811546678713 A 144,144 0 0,1 299.70448949797066,96.303037948885887 L 310.44943277552295,84.44781994320654 A 160,160 0 0,1 340.23657760004357,120.74356092908452 L 353.96023536004788,112.51791702199297 A 176,176 0 0,1 377.09506575380146,228.82456350414364 L 361.26824159436495,226.47687591285785 A 160,160 0 0,1 358.205000511127,241.87682878452222 L 389.24600061335241,249.65219454142667 A 192,192 0 0,1 383.77646051514,267.68285185130622 L 338.582345386355,251.51213888847968 A 144,144 0 0,0 345.44141743492844,224.12918832157209 L 329.614593275492,221.7815007302863 A 128,128 0 0,1 301.94533803043032,284.20234037294659 L 289.57717077662653,274.05204782632825 A 112,112 0 0,0 301.77518160701578,255.79643452451174 L 273.55370114786842,240.71173894607981 A 80,80 0 0,1 240.71173894607983,273.55370114786842 L 233.16939115686387,259.44296091829472 A 64,64 0 0,0 256.21405518736293,238.55649491325454 L 229.60702759368147,220.77824745662727 A 32,32 0 1,0 171.61487102709663,196.75710969548391 L 155.92230654064494,193.63566454322583 A 48,48 0 0,0 163.08945860947785,229.66737118494092 L 176.39297240631856,220.77824745662727 A 32,32 0 0,0 190.75413016431713,232.56414504036118 L 193.81559762323786,225.17310878027089" />
  <type>Circular</type>
</svg>