<?xml version="1.0" encoding="utf-8" standalone="no"?>
<!DOCTYPE svg PUBLIC "-//W3C//DTD SVG 1.1//EN" "http://www.w3.org/Graphics/SVG/1.1/DTD/svg11.dtd"[]>
<svg width="372" height="372" version="1.1" xmlns="http://www.w3.org/2000/svg">
  <title>23 cells diameter theta maze</title>
  <g fill="none" stroke="#000000" stroke-width="2" stroke-linecap="square">
    <path d="M 170.02943725152286,203.97056274847714 A 24,24 0 1,1 187,211" />
    <path d="M 171.69266270539637,150.04481869954856 A 40,40 0 0,1 202.3073372946036,150.04481869954853" />
    <path d="M 223.95518130045147,171.6926627053964 A 40,40 0 0,1 215.2842712474619,215.2842712474619" />
    <path d="M 171.6926627053964,223.95518130045147 A 40,40 0 0,1 158.7157287525381,215.2842712474619" />
    <path d="M 147,187 A 40,40 0 0,1 150.04481869954853,171.6926627053964" />
    <path d="M 165.56972778755494,135.26274617936795 A 56,56 0 0,1 187,131" />
    <path d="M 208.43027221244503,135.26274617936795 A 56,56 0 0,1 226.59797974644667,147.40202025355333" />
    <path d="M 238.73725382063208,208.43027221244503 A 56,56 0 0,1 135.26274617936795,208.43027221244506" />
    <path d="M 131,187 A 56,56 0 0,1 147.40202025355333,147.40202025355336" />
    <path d="M 187,115 A 72,72 0 0,1 227.00105677741135,127.13418791421674" />
    <path d="M 237.91168824543144,136.08831175456857 A 72,72 0 0,1 246.86581208578326,146.99894322258865" />
    <path d="M 257.61654018903261,172.95349681483876 A 72,72 0 0,1 214.55320713028647,253.51932634081265" />
    <path d="M 201.04650318516127,257.61654018903261 A 72,72 0 0,1 146.99894322258865,246.86581208578326" />
    <path d="M 136.08831175456859,237.91168824543144 A 72,72 0 0,1 127.13418791421674,227.00105677741135" />
    <path d="M 120.48067365918737,214.5532071302865 A 72,72 0 0,1 127.13418791421672,146.99894322258865" />
    <path d="M 146.99894322258865,127.13418791421674 A 72,72 0 0,1 172.95349681483873,116.38345981096741" />
    <path d="M 169.83205166258068,100.69089532451572 A 88,88 0 0,1 187,99" />
    <path d="M 220.6761420481279,105.69860113900677 A 88,88 0 0,1 268.30139886099323,153.3238579518721" />
    <path d="M 273.30910467548426,169.83205166258071 A 88,88 0 0,1 275,187" />
    <path d="M 273.30910467548426,204.16794833741929 A 88,88 0 0,1 268.30139886099323,220.6761420481279" />
    <path d="M 220.6761420481279,268.30139886099323 A 88,88 0 0,1 169.83205166258071,273.30910467548426" />
    <path d="M 153.32385795187213,268.30139886099323 A 88,88 0 0,1 124.77460325558383,249.2253967444162" />
    <path d="M 105.69860113900677,153.32385795187207 A 88,88 0 0,1 113.83067411737599,138.10981949427503" />
    <path d="M 124.7746032555838,124.77460325558383 A 88,88 0 0,1 153.32385795187204,105.69860113900678" />
    <path d="M 187,83 A 104,104 0 0,1 226.79907696596933,90.916528618826177" />
    <path d="M 260.53910524340097,113.46089475659906 A 104,104 0 0,1 273.4728396794647,129.22069576596135" />
    <path d="M 283.08347138117381,147.20092303403067 A 104,104 0 0,1 289.001669161936,207.28939348967734" />
    <path d="M 283.08347138117381,226.79907696596933 A 104,104 0 0,1 273.47283967946476,244.77930423403859" />
    <path d="M 244.77930423403862,273.4728396794647 A 104,104 0 0,1 226.79907696596933,283.08347138117381" />
    <path d="M 207.28939348967737,289.001669161936 A 104,104 0 0,1 147.20092303403067,283.08347138117381" />
    <path d="M 129.22069576596141,273.47283967946476 A 104,104 0 0,1 113.46089475659908,260.53910524340097" />
    <path d="M 100.52716032053529,244.77930423403862 A 104,104 0 0,1 90.9165286188262,226.79907696596939" />
    <path d="M 83,187.00000000000003 A 104,104 0 0,1 90.916528618826192,147.20092303403064" />
    <path d="M 100.52716032053527,129.22069576596141 A 104,104 0 0,1 113.46089475659905,113.46089475659908" />
    <path d="M 147.20092303403061,90.9165286188262 A 104,104 0 0,1 166.71060651032261,84.998330838064049" />
    <path d="M 163.58916135806456,69.305766351612363 A 120,120 0 0,1 271.85281374238571,102.14718625761429" />
    <path d="M 286.77635347630542,120.33157203764773 A 120,120 0 0,1 307,187" />
    <path d="M 304.69423364838764,210.41083864193539 A 120,120 0 0,1 297.86554390135439,232.92201188381077" />
    <path d="M 286.77635347630542,253.66842796235224 A 120,120 0 0,1 271.85281374238571,271.85281374238571" />
    <path d="M 232.9220118838108,297.86554390135439 A 120,120 0 0,1 187.00000000000003,307" />
    <path d="M 163.58916135806459,304.69423364838764 A 120,120 0 0,1 141.07798811618926,297.86554390135439" />
    <path d="M 102.14718625761431,271.85281374238571 A 120,120 0 0,1 76.134456098645614,232.92201188381085" />
    <path d="M 69.305766351612348,210.41083864193544 A 120,120 0 0,1 67,187.00000000000003" />
    <path d="M 69.305766351612348,163.58916135806462 A 120,120 0 0,1 87.223646523694541,120.33157203764777" />
    <path d="M 102.14718625761428,102.14718625761432 A 120,120 0 0,1 141.07798811618915,76.134456098645614" />
    <path d="M 122.89004379166428,67.058708048623743 A 136,136 0 0,1 213.53228379419343,53.613201865160647" />
    <path d="M 251.10995620833569,67.058708048623714 A 136,136 0 0,1 262.55755169066589,73.920132726853851" />
    <path d="M 273.2774866462558,81.87057834266777 A 136,136 0 0,1 292.12942165733222,100.72251335374421" />
    <path d="M 306.94129195137629,122.8900437916643 A 136,136 0 0,1 312.64761642153496,134.9550531983478" />
    <path d="M 320.38679813483935,160.46771620580654 A 136,136 0 0,1 322.34512282741878,173.66966891517973" />
    <path d="M 323,187 A 136,136 0 0,1 317.14388565958041,226.47871610660687" />
    <path d="M 306.94129195137629,251.10995620833569 A 136,136 0 0,1 300.07986727314619,262.55755169066589" />
    <path d="M 292.12942165733227,273.27748664625574 A 136,136 0 0,1 273.2774866462558,292.12942165733222" />
    <path d="M 262.55755169066589,300.07986727314619 A 136,136 0 0,1 226.4787161066069,317.14388565958041" />
    <path d="M 200.33033108482027,322.34512282741878 A 136,136 0 0,1 160.46771620580654,320.38679813483935" />
    <path d="M 147.52128389339316,317.14388565958041 A 136,136 0 0,1 100.72251335374423,292.12942165733227" />
    <path d="M 81.870578342667812,273.27748664625585 A 136,136 0 0,1 67.058708048623728,251.10995620833572" />
    <path d="M 61.352383578465037,239.04494680165229 A 136,136 0 0,1 53.613201865160676,213.53228379419349" />
    <path d="M 51,187.00000000000003 A 136,136 0 0,1 53.613201865160647,160.46771620580654" />
    <path d="M 56.856114340419595,147.52128389339316 A 136,136 0 0,1 100.72251335374415,81.870578342667827" />
    <path d="M 172.1013946699068,35.731921545826083 A 152,152 0 0,1 231.12327094267829,41.545068968704243" />
    <path d="M 258.65230399755166,52.947967819050035 A 152,152 0 0,1 294.48023074035524,79.519769259644775" />
    <path d="M 304.497588911136,90.572220807125873 A 152,152 0 0,1 313.38338106998685,102.55332458102046" />
    <path d="M 327.4296889417156,128.83211828050634 A 152,152 0 0,1 339,187" />
    <path d="M 327.4296889417156,245.16788171949364 A 152,152 0 0,1 321.05203218094994,258.65230399755166" />
    <path d="M 313.38338106998691,271.44667541897951 A 152,152 0 0,1 283.42777919287414,304.497588911136" />
    <path d="M 258.65230399755166,321.05203218094994 A 152,152 0 0,1 245.16788171949366,327.42968894171554" />
    <path d="M 216.65372894645154,336.079362621291 A 152,152 0 0,1 172.1013946699068,338.26807845417392" />
    <path d="M 157.34627105354849,336.079362621291 A 152,152 0 0,1 115.34769600244836,321.05203218094994" />
    <path d="M 90.572220807125916,304.49758891113606 A 152,152 0 0,1 79.519769259644789,294.48023074035524" />
    <path d="M 60.616618930013118,271.44667541897951 A 152,152 0 0,1 41.545068968704243,231.12327094267829" />
    <path d="M 37.920637378708989,216.65372894645157 A 152,152 0 0,1 35.731921545826083,201.89860533009318" />
    <path d="M 37.92063737870896,157.34627105354849 A 152,152 0 0,1 41.545068968704243,142.87672905732177" />
    <path d="M 46.570311058284432,128.83211828050634 A 152,152 0 0,1 60.61661893001309,102.55332458102052" />
    <path d="M 79.519769259644747,79.5197692596448 A 152,152 0 0,1 128.83211828050625,46.57031105828446" />
    <path d="M 187,19 A 168,168 0 0,1 219.77517409870956,22.228072892257273" />
    <path d="M 251.29081663733507,31.788238538103826 A 168,168 0 0,1 266.19465178676762,38.837227589476356" />
    <path d="M 293.57807173949243,57.134243835060175 A 168,168 0 0,1 316.8657561649398,80.421928260507556" />
    <path d="M 342.21176146189617,122.70918336266492 A 168,168 0 0,1 347.76597640301111,235.76782577874965" />
    <path d="M 335.16277241052364,266.19465178676762 A 168,168 0 0,1 326.68689486682763,280.33579914729313" />
    <path d="M 316.86575616493985,293.57807173949243 A 168,168 0 0,1 266.19465178676762,335.16277241052364" />
    <path d="M 235.76782577874968,347.76597640301111 A 168,168 0 0,1 219.77517409870961,351.77192710774273" />
    <path d="M 203.46687957536622,354.19103408092906 A 168,168 0 0,1 187.00000000000003,355" />
    <path d="M 138.23217422125038,347.76597640301111 A 168,168 0 0,1 122.70918336266495,342.21176146189617" />
    <path d="M 93.664200852706884,326.68689486682763 A 168,168 0 0,1 68.206060760660037,305.79393923934003" />
    <path d="M 26.234023596988919,235.76782577874968 A 168,168 0 0,1 19.808965919070914,170.53312042463392" />
    <path d="M 26.234023596988891,138.23217422125038 A 168,168 0 0,1 31.788238538103855,122.70918336266487" />
    <path d="M 38.837227589476356,107.80534821323241 A 168,168 0 0,1 47.313105133172371,93.664200852706884" />
    <path d="M 57.134243835060204,80.421928260507542 A 168,168 0 0,1 80.421928260507485,57.134243835060261" />
    <path d="M 107.80534821323235,38.837227589476385 A 168,168 0 0,1 170.53312042463384,19.808965919070914" />
    <path d="M 205.03515382063915,3.886010292315774 A 184,184 0 1,1 187,3" />
  </g>
  <g fill="none" stroke="#000000" stroke-width="2" stroke-linecap="butt">
    <line x1="187" y1="3" x2="187" y2="19" />
    <line x1="201.8986053300932" y1="35.731921545826054" x2="200.33033108482024" y2="51.654877172581223" />
    <line x1="204.16794833741929" y1="100.69089532451572" x2="201.04650318516124" y2="116.38345981096741" />
    <line x1="235.76782577874968" y1="26.234023596988919" x2="226.47871610660687" y2="56.856114340419595" />
    <line x1="251.29081663733507" y1="31.788238538103826" x2="232.92201188381077" y2="76.134456098645586" />
    <line x1="226.79907696596933" y1="90.916528618826177" x2="220.6761420481279" y2="105.69860113900677" />
    <line x1="214.55320713028647" y1="120.48067365918736" x2="208.43027221244503" y2="135.26274617936795" />
    <line x1="258.65230399755166" y1="52.947967819050035" x2="251.10995620833569" y2="67.058708048623714" />
    <line x1="289.22492287560681" y1="34.009591336331681" x2="271.44667541897957" y2="60.616618930013118" />
    <line x1="253.66842796235227" y1="87.223646523694569" x2="244.77930423403862" y2="100.5271603205353" />
    <line x1="294.48023074035518" y1="79.519769259644775" x2="260.53910524340097" y2="113.46089475659905" />
    <line x1="237.91168824543144" y1="136.08831175456857" x2="203.97056274847714" y2="170.02943725152286" />
    <line x1="316.86575616493985" y1="80.421928260507556" x2="304.497588911136" y2="90.572220807125888" />
    <line x1="339.99040866366829" y1="84.775077124393178" x2="326.68689486682763" y2="93.664200852706813" />
    <line x1="313.38338106998685" y1="102.55332458102045" x2="286.77635347630542" y2="120.33157203764773" />
    <line x1="349.27351264009729" y1="100.2630004240164" x2="306.94129195137629" y2="122.8900437916643" />
    <line x1="342.21176146189617" y1="122.7091833626649" x2="327.4296889417156" y2="128.83211828050634" />
    <line x1="312.64761642153496" y1="134.9550531983478" x2="297.86554390135439" y2="141.0779881161892" />
    <line x1="283.08347138117381" y1="147.20092303403067" x2="223.95518130045147" y2="171.6926627053964" />
    <line x1="332.45493103129576" y1="142.87672905732171" x2="317.14388565958041" y2="147.52128389339313" />
    <line x1="320.38679813483935" y1="160.46771620580654" x2="304.69423364838764" y2="163.58916135806459" />
    <line x1="323" y1="187" x2="307" y2="187" />
    <line x1="275" y1="187" x2="243" y2="187" />
    <line x1="354.19103408092906" y1="203.46687957536619" x2="338.268078454174" y2="201.89860533009323" />
    <line x1="336.079362621291" y1="216.65372894645148" x2="320.38679813483935" y2="213.53228379419343" />
    <line x1="289.001669161936" y1="207.28939348967734" x2="273.30910467548426" y2="204.16794833741929" />
    <line x1="347.76597640301111" y1="235.76782577874965" x2="317.14388565958041" y2="226.47871610660684" />
    <line x1="356.99383398207675" y1="257.41375155517653" x2="327.4296889417156" y2="245.16788171949364" />
    <line x1="312.64761642153496" y1="239.0449468016522" x2="283.08347138117381" y2="226.79907696596933" />
    <line x1="238.73725382063205" y1="208.43027221244503" x2="223.95518130045147" y2="202.3073372946036" />
    <line x1="321.05203218094994" y1="258.65230399755166" x2="306.94129195137629" y2="251.10995620833569" />
    <line x1="339.9904086636684" y1="289.22492287560675" x2="313.38338106998691" y2="271.44667541897951" />
    <line x1="273.47283967946476" y1="244.77930423403859" x2="246.86581208578326" y2="227.00105677741135" />
    <line x1="283.16652224137044" y1="283.16652224137044" x2="249.22539674441617" y2="249.22539674441617" />
    <line x1="283.42777919287414" y1="304.497588911136" x2="273.2774866462558" y2="292.12942165733222" />
    <line x1="280.33579914729319" y1="326.68689486682763" x2="227.00105677741135" y2="246.86581208578326" />
    <line x1="266.19465178676762" y1="335.16277241052364" x2="258.65230399755166" y2="321.05203218094994" />
    <line x1="257.41375155517653" y1="356.99383398207675" x2="251.2908166373351" y2="342.21176146189617" />
    <line x1="232.9220118838108" y1="297.86554390135439" x2="226.79907696596933" y2="283.08347138117381" />
    <line x1="208.43027221244503" y1="238.73725382063205" x2="202.3073372946036" y2="223.95518130045147" />
    <line x1="235.76782577874968" y1="347.76597640301111" x2="226.4787161066069" y2="317.14388565958041" />
    <line x1="216.65372894645154" y1="336.079362621291" x2="213.53228379419349" y2="320.38679813483935" />
    <line x1="204.16794833741932" y1="273.30910467548426" x2="201.04650318516127" y2="257.61654018903261" />
    <line x1="205.03515382063918" y1="370.11398970768425" x2="203.46687957536622" y2="354.19103408092906" />
    <line x1="187.00000000000003" y1="323" x2="187.00000000000003" y2="307" />
    <line x1="187" y1="243" x2="187" y2="211" />
    <line x1="168.96484617936085" y1="370.11398970768425" x2="172.1013946699068" y2="338.268078454174" />
    <line x1="154.22482590129044" y1="351.77192710774273" x2="160.46771620580654" y2="320.38679813483935" />
    <line x1="133.58761938517898" y1="363.0770217747264" x2="138.23217422125038" y2="347.76597640301111" />
    <line x1="141.07798811618923" y1="297.86554390135444" x2="153.3238579518721" y2="268.30139886099323" />
    <line x1="100.26300042401644" y1="349.27351264009735" x2="115.34769600244836" y2="321.05203218094994" />
    <line x1="93.66420085270687" y1="326.68689486682763" x2="129.22069576596141" y2="273.47283967946476" />
    <line x1="138.10981949427503" y1="260.169325882624" x2="146.99894322258865" y2="246.86581208578326" />
    <line x1="68.206060760660023" y1="305.79393923934003" x2="102.14718625761431" y2="271.85281374238571" />
    <line x1="113.46089475659906" y1="260.53910524340097" x2="124.77460325558383" y2="249.2253967444162" />
    <line x1="136.08831175456857" y1="237.91168824543144" x2="147.40202025355336" y2="226.59797974644667" />
    <line x1="158.7157287525381" y1="215.2842712474619" x2="170.02943725152286" y2="203.97056274847714" />
    <line x1="44.766076581256442" y1="303.72836428611083" x2="81.870578342667812" y2="273.27748664625585" />
    <line x1="47.3131051331724" y1="280.33579914729319" x2="60.616618930013118" y2="271.44667541897957" />
    <line x1="100.5271603205353" y1="244.77930423403862" x2="127.13418791421674" y2="227.00105677741135" />
    <line x1="24.726487359902706" y1="273.73699957598359" x2="38.837227589476356" y2="266.19465178676762" />
    <line x1="17.006166017923277" y1="257.41375155517665" x2="31.788238538103855" y2="251.29081663733518" />
    <line x1="61.352383578465037" y1="239.04494680165229" x2="76.134456098645614" y2="232.92201188381085" />
    <line x1="105.69860113900678" y1="220.67614204812796" x2="150.04481869954856" y2="202.3073372946036" />
    <line x1="26.234023596988919" y1="235.76782577874968" x2="41.545068968704271" y2="231.12327094267829" />
    <line x1="37.920637378708989" y1="216.65372894645157" x2="100.69089532451574" y2="204.16794833741932" />
    <line x1="35.731921545826054" y1="201.89860533009318" x2="51.654877172581223" y2="200.33033108482022" />
    <line x1="19" y1="187.00000000000003" x2="35" y2="187.00000000000003" />
    <line x1="51" y1="187.00000000000003" x2="67" y2="187.00000000000003" />
    <line x1="83" y1="187.00000000000003" x2="115" y2="187" />
    <line x1="131" y1="187" x2="163" y2="187" />
    <line x1="19.808965919070914" y1="170.53312042463389" x2="51.654877172581223" y2="173.66966891517984" />
    <line x1="6.535508405805615" y1="151.1033807490324" x2="37.920637378708989" y2="157.34627105354849" />
    <line x1="53.613201865160647" y1="160.46771620580654" x2="69.305766351612348" y2="163.58916135806462" />
    <line x1="100.69089532451572" y1="169.83205166258071" x2="116.38345981096741" y2="172.95349681483876" />
    <line x1="26.234023596988891" y1="138.23217422125038" x2="56.856114340419595" y2="147.52128389339316" />
    <line x1="24.726487359902677" y1="100.26300042401644" x2="52.947967819050035" y2="115.34769600244837" />
    <line x1="87.223646523694541" y1="120.33157203764777" x2="127.13418791421672" y2="146.99894322258865" />
    <line x1="57.134243835060204" y1="80.421928260507542" x2="81.870578342667784" y2="100.72251335374421" />
    <line x1="90.833477758629513" y1="90.833477758629556" x2="102.14718625761428" y2="102.14718625761432" />
    <line x1="124.7746032555838" y1="124.77460325558383" x2="158.7157287525381" y2="158.7157287525381" />
    <line x1="93.664200852706841" y1="47.3131051331724" x2="111.44244830933411" y2="73.920132726853851" />
    <line x1="120.33157203764773" y1="87.223646523694569" x2="138.109819494275" y2="113.83067411737602" />
    <line x1="122.70918336266482" y1="31.788238538103855" x2="128.83211828050625" y2="46.57031105828446" />
    <line x1="134.95505319834771" y1="61.352383578465037" x2="147.20092303403061" y2="90.9165286188262" />
    <line x1="159.44679286971348" y1="120.48067365918737" x2="171.69266270539637" y2="150.04481869954856" />
    <line x1="142.87672905732171" y1="41.545068968704271" x2="147.5212838933931" y2="56.856114340419595" />
    <line x1="157.34627105354844" y1="37.920637378708989" x2="160.46771620580648" y2="53.613201865160676" />
    <line x1="166.71060651032261" y1="84.998330838064049" x2="172.95349681483873" y2="116.38345981096742" />
    <line x1="170.53312042463384" y1="19.808965919070914" x2="172.1013946699068" y2="35.731921545826054" />
  </g>
  <path fill="none" stroke="#ff0000" stroke-width="2" stroke-linecap="square" stroke-linejoin="round" d="M 196.02845207624492,3.2216360582482935 L 195.63591068162558,11.211999707889646 A 176,176 0 0,1 246.29261419703073,21.288244527788351 L 230.12190123420416,66.482359656573337 A 128,128 0 0,0 149.8435613114288,64.51163702627727 L 154.48811614750019,79.822682397992608 A 112,112 0 0,1 239.79643452451174,88.224818392984233 L 232.25408673529577,102.33555862255791 A 96,96 0 0,1 271.66444137744207,141.7459132647042 L 285.77518160701572,134.20356547548823 A 112,112 0 0,1 294.17731760200741,219.51188385249975 L 278.86627223029205,214.86732901642836 A 96,96 0 0,1 271.66444137744207,232.25408673529577 L 257.55370114786842,224.71173894607981 A 80,80 0 0,0 266.61477813377576,194.84137122636486 L 282.5377337605309,196.40964547163782 A 96,96 0 0,0 278.86627223029205,159.13267098357161 L 248.24418148686138,168.4217806557144 A 64,64 0 0,1 249.77025794580675,174.51421939096778 L 234.07769345935506,177.63566454322583 A 48,48 0 0,1 234.07769345935506,196.36433545677414 L 249.77025794580675,199.48578060903219 A 64,64 0 0,1 205.5782193442856,248.24418148686135 L 210.222774180357,263.5552268585767 A 80,80 0 0,0 224.71173894607983,257.55370114786842 L 232.2540867352958,271.66444137744207 A 96,96 0 0,1 214.86732901642839,278.86627223029205 L 219.51188385249978,294.17731760200741 A 112,112 0 0,1 176.02208028308922,298.46068938728604 L 174.45380603781624,314.38364501404124 A 128,128 0 0,1 155.89853697238223,311.16400040890164 L 152.01085409393,326.68450046001431 A 144,144 0 0,1 112.96920483617609,310.51291984003922 L 96.517917021993,337.96023536004793 A 176,176 0 0,1 56.592601937527235,305.1943760530753 L 92.158255954565263,272.95954622041836 A 128,128 0 0,1 71.289370480199281,241.72705195907616 L 56.825541790224179,248.56793345396068 A 144,144 0 0,0 71.338115466787116,272.78069984691035 L 45.635474459406481,291.84307759066826 A 176,176 0 0,1 36.039764639952125,277.48208297800704 L 49.763422399956482,269.25643907091546 A 160,160 0 0,1 36.352949570716675,240.90237654275518 L 21.288244527788351,246.2926141970307 A 176,176 0 0,1 12.904934246198565,161.1754364958563 L 44.558582565071532,165.87081167842788 A 144,144 0 0,1 47.315499539985666,152.01085409393002 L 62.835999591098371,155.89853697238223 A 128,128 0 0,1 88.054661969569679,105.79765962705336 L 100.42282922337347,115.9479521736717 A 112,112 0 0,1 115.94795217367165,100.4228292233735 L 126.09824472028998,112.79099647717729 A 96,96 0 0,0 112.79099647717726,126.09824472029003 L 137.52733098478484,146.39882981352668 A 64,64 0 0,0 124.22974205419325,199.48578060903225 L 155.61487102709663,193.24289030451612 A 32,32 0 0,0 160.39297240631856,204.77824745662727 L 147.08945860947785,213.66737118494092 A 48,48 0 0,0 177.63566454322583,234.07769345935506 L 180.75710969548391,218.38512897290337 A 32,32 0 0,1 174.75413016431713,216.56414504036118 L 177.81559762323786,209.17310878027089" />
  <type>Circular</type>
</svg>