<?xml version="1.0" encoding="utf-8" standalone="no"?>
<!DOCTYPE svg PUBLIC "-//W3C//DTD SVG 1.1//EN" "http://www.w3.org/Graphics/SVG/1.1/DTD/svg11.dtd"[]>
<svg width="372" height="372" version="1.1" xmlns="http://www.w3.org/2000/svg">
  <title>23 cells diameter theta maze</title>
  <g fill="none" stroke="#000000" stroke-width="2" stroke-linecap="square">
    <path d="M 170.02943725152286,203.97056274847714 A 24,24 0 1,1 187,211" />
    <path d="M 202.3073372946036,150.04481869954853 A 40,40 0 0,1 223.95518130045147,171.6926627053964" />
    <path d="M 227,187 A 40,40 0 0,1 223.95518130045147,202.3073372946036" />
    <path d="M 215.2842712474619,215.2842712474619 A 40,40 0 0,1 158.7157287525381,215.2842712474619" />
    <path d="M 150.04481869954853,202.3073372946036 A 40,40 0 0,1 150.04481869954853,171.6926627053964" />
    <path d="M 158.7157287525381,158.7157287525381 A 40,40 0 0,1 171.69266270539637,150.04481869954856" />
    <path d="M 165.56972778755494,135.26274617936795 A 56,56 0 0,1 187,131" />
    <path d="M 238.73725382063205,165.56972778755497 A 56,56 0 0,1 208.43027221244503,238.73725382063205" />
    <path d="M 187,243 A 56,56 0 0,1 165.569727787555,238.73725382063208" />
    <path d="M 147.40202025355336,226.59797974644667 A 56,56 0 0,1 147.40202025355333,147.40202025355336" />
    <path d="M 136.08831175456857,136.08831175456859 A 72,72 0 0,1 214.55320713028647,120.48067365918736" />
    <path d="M 227.00105677741135,127.13418791421674 A 72,72 0 0,1 159.44679286971353,253.51932634081265" />
    <path d="M 146.99894322258865,246.86581208578326 A 72,72 0 0,1 136.08831175456859,237.91168824543144" />
    <path d="M 120.48067365918737,214.5532071302865 A 72,72 0 0,1 127.13418791421672,146.99894322258865" />
    <path d="M 187,99 A 88,88 0 0,1 220.6761420481279,105.69860113900677" />
    <path d="M 249.22539674441617,124.77460325558381 A 88,88 0 0,1 260.169325882624,138.109819494275" />
    <path d="M 268.30139886099323,153.3238579518721 A 88,88 0 0,1 273.30910467548426,204.16794833741929" />
    <path d="M 268.30139886099323,220.6761420481279 A 88,88 0 0,1 260.169325882624,235.89018050572497" />
    <path d="M 220.6761420481279,268.30139886099323 A 88,88 0 0,1 204.16794833741932,273.30910467548426" />
    <path d="M 169.83205166258071,273.30910467548426 A 88,88 0 0,1 138.10981949427503,260.169325882624" />
    <path d="M 124.77460325558383,249.2253967444162 A 88,88 0 0,1 113.83067411737602,235.890180505725" />
    <path d="M 99,187.00000000000003 A 88,88 0 0,1 105.69860113900677,153.32385795187207" />
    <path d="M 113.83067411737599,138.10981949427503 A 88,88 0 0,1 138.109819494275,113.83067411737602" />
    <path d="M 153.32385795187204,105.69860113900678 A 88,88 0 0,1 169.83205166258068,100.69089532451572" />
    <path d="M 260.53910524340097,113.46089475659906 A 104,104 0 0,1 289.001669161936,166.71060651032266" />
    <path d="M 289.001669161936,207.28939348967734 A 104,104 0 0,1 273.47283967946476,244.77930423403859" />
    <path d="M 260.53910524340097,260.53910524340097 A 104,104 0 0,1 226.79907696596933,283.08347138117381" />
    <path d="M 187,291 A 104,104 0 0,1 166.71060651032266,289.001669161936" />
    <path d="M 129.22069576596141,273.47283967946476 A 104,104 0 0,1 83,187.00000000000003" />
    <path d="M 113.46089475659905,113.46089475659908 A 104,104 0 0,1 166.71060651032261,84.998330838064049" />
    <path d="M 120.33157203764773,87.223646523694569 A 120,120 0 0,1 187,67" />
    <path d="M 210.41083864193539,69.305766351612348 A 120,120 0 0,1 286.77635347630542,120.33157203764773" />
    <path d="M 304.69423364838764,163.58916135806459 A 120,120 0 0,1 297.86554390135439,232.92201188381077" />
    <path d="M 286.77635347630542,253.66842796235224 A 120,120 0 0,1 253.66842796235227,286.77635347630542" />
    <path d="M 163.58916135806459,304.69423364838764 A 120,120 0 0,1 87.223646523694569,253.66842796235227" />
    <path d="M 69.305766351612348,210.41083864193544 A 120,120 0 0,1 69.305766351612348,163.58916135806462" />
    <path d="M 76.1344560986456,141.0779881161892 A 120,120 0 0,1 102.14718625761428,102.14718625761432" />
    <path d="M 187,51 A 136,136 0 0,1 273.2774866462558,81.87057834266777" />
    <path d="M 292.12942165733222,100.72251335374421 A 136,136 0 0,1 320.38679813483935,160.46771620580654" />
    <path d="M 322.34512282741878,173.66966891517973 A 136,136 0 0,1 322.34512282741878,200.33033108482024" />
    <path d="M 317.14388565958041,226.47871610660687 A 136,136 0 0,1 306.94129195137629,251.10995620833569" />
    <path d="M 292.12942165733227,273.27748664625574 A 136,136 0 0,1 262.55755169066589,300.07986727314619" />
    <path d="M 251.10995620833569,306.94129195137629 A 136,136 0 0,1 213.53228379419349,320.3867981348393" />
    <path d="M 200.33033108482027,322.34512282741878 A 136,136 0 0,1 187.00000000000003,323" />
    <path d="M 173.66966891517976,322.34512282741878 A 136,136 0 0,1 147.52128389339316,317.14388565958041" />
    <path d="M 122.89004379166433,306.94129195137629 A 136,136 0 0,1 90.833477758629556,283.16652224137044" />
    <path d="M 81.870578342667812,273.27748664625585 A 136,136 0 0,1 73.920132726853836,262.55755169066589" />
    <path d="M 67.058708048623728,251.10995620833572 A 136,136 0 0,1 61.352383578465037,239.04494680165229" />
    <path d="M 56.856114340419595,226.4787161066069 A 136,136 0 0,1 53.613201865160676,213.53228379419349" />
    <path d="M 51.654877172581223,173.66966891517984 A 136,136 0 0,1 73.920132726853822,111.44244830933414" />
    <path d="M 81.870578342667784,100.72251335374421 A 136,136 0 0,1 134.95505319834771,61.352383578465037" />
    <path d="M 147.5212838933931,56.856114340419595 A 136,136 0 0,1 173.66966891517978,51.654877172581223" />
    <path d="M 172.1013946699068,35.731921545826083 A 152,152 0 0,1 187,35" />
    <path d="M 201.8986053300932,35.731921545826083 A 152,152 0 0,1 258.65230399755166,52.947967819050035" />
    <path d="M 271.44667541897957,60.616618930013118 A 152,152 0 0,1 332.45493103129576,142.87672905732174" />
    <path d="M 338.26807845417392,172.10139466990677 A 152,152 0 0,1 338.26807845417392,201.89860533009323" />
    <path d="M 336.079362621291,216.65372894645148 A 152,152 0 0,1 332.45493103129576,231.12327094267826" />
    <path d="M 321.05203218094994,258.65230399755166 A 152,152 0 0,1 294.48023074035524,294.48023074035518" />
    <path d="M 283.42777919287414,304.497588911136 A 152,152 0 0,1 201.89860533009323,338.26807845417392" />
    <path d="M 187.00000000000003,339 A 152,152 0 0,1 172.1013946699068,338.26807845417392" />
    <path d="M 157.34627105354849,336.079362621291 A 152,152 0 0,1 115.34769600244836,321.05203218094994" />
    <path d="M 79.519769259644789,294.48023074035524 A 152,152 0 0,1 52.947967819050064,258.65230399755171" />
    <path d="M 46.57031105828446,245.16788171949372 A 152,152 0 0,1 41.545068968704243,231.12327094267829" />
    <path d="M 37.920637378708989,216.65372894645157 A 152,152 0 0,1 35.731921545826054,172.10139466990688" />
    <path d="M 37.92063737870896,157.34627105354849 A 152,152 0 0,1 41.545068968704243,142.87672905732177" />
    <path d="M 46.570311058284432,128.83211828050634 A 152,152 0 0,1 79.519769259644747,79.5197692596448" />
    <path d="M 115.34769600244832,52.947967819050064 A 152,152 0 0,1 142.87672905732171,41.545068968704271" />
    <path d="M 266.19465178676762,38.837227589476356 A 168,168 0 0,1 293.57807173949243,57.134243835060175" />
    <path d="M 316.8657561649398,80.421928260507556 A 168,168 0 0,1 355,187" />
    <path d="M 342.21176146189617,251.29081663733507 A 168,168 0 0,1 335.16277241052364,266.19465178676762" />
    <path d="M 280.33579914729319,326.68689486682763 A 168,168 0 0,1 235.76782577874968,347.76597640301111" />
    <path d="M 203.46687957536622,354.19103408092906 A 168,168 0 0,1 187.00000000000003,355" />
    <path d="M 170.53312042463381,354.19103408092906 A 168,168 0 0,1 122.70918336266495,342.21176146189617" />
    <path d="M 93.664200852706884,326.68689486682763 A 168,168 0 0,1 57.134243835060232,293.57807173949249" />
    <path d="M 38.837227589476385,266.19465178676762 A 168,168 0 0,1 31.788238538103855,251.29081663733518" />
    <path d="M 26.234023596988919,235.76782577874968 A 168,168 0 0,1 19.808965919070914,203.46687957536616" />
    <path d="M 19,187.00000000000003 A 168,168 0 0,1 22.228072892257273,154.22482590129044" />
    <path d="M 57.134243835060204,80.421928260507542 A 168,168 0 0,1 107.80534821323235,38.837227589476385" />
    <path d="M 122.70918336266482,31.788238538103855 A 168,168 0 0,1 138.23217422125032,26.234023596988919" />
    <path d="M 154.22482590129039,22.228072892257302 A 168,168 0 0,1 170.53312042463384,19.808965919070914" />
    <path d="M 205.03515382063915,3.886010292315774 A 184,184 0 1,1 187,3" />
  </g>
  <g fill="none" stroke="#000000" stroke-width="2" stroke-linecap="butt">
    <line x1="187" y1="3" x2="187" y2="51" />
    <line x1="187" y1="83" x2="187" y2="99" />
    <line x1="187" y1="131" x2="187" y2="163" />
    <line x1="203.46687957536619" y1="19.808965919070914" x2="201.8986053300932" y2="35.731921545826054" />
    <line x1="222.8966192509676" y1="6.535508405805615" x2="219.77517409870956" y2="22.228072892257273" />
    <line x1="210.41083864193539" y1="69.305766351612348" x2="207.28939348967734" y2="84.998330838064035" />
    <line x1="235.76782577874968" y1="26.234023596988919" x2="231.12327094267829" y2="41.545068968704271" />
    <line x1="257.41375155517653" y1="17.006166017923249" x2="251.29081663733507" y2="31.788238538103826" />
    <line x1="226.79907696596933" y1="90.916528618826177" x2="208.43027221244503" y2="135.26274617936795" />
    <line x1="266.19465178676762" y1="38.837227589476356" x2="251.10995620833569" y2="67.058708048623714" />
    <line x1="253.66842796235227" y1="87.223646523694569" x2="227.00105677741135" y2="127.13418791421674" />
    <line x1="317.10764773832477" y1="56.892352261675256" x2="294.48023074035518" y2="79.519769259644775" />
    <line x1="283.16652224137044" y1="90.833477758629527" x2="271.85281374238571" y2="102.14718625761429" />
    <line x1="237.91168824543144" y1="136.08831175456857" x2="215.2842712474619" y2="158.7157287525381" />
    <line x1="260.169325882624" y1="138.109819494275" x2="246.86581208578326" y2="146.99894322258865" />
    <line x1="327.4296889417156" y1="128.83211828050634" x2="268.30139886099323" y2="153.3238579518721" />
    <line x1="238.73725382063205" y1="165.56972778755497" x2="223.95518130045147" y2="171.6926627053964" />
    <line x1="336.079362621291" y1="157.34627105354849" x2="320.38679813483935" y2="160.46771620580654" />
    <line x1="354.19103408092906" y1="170.53312042463378" x2="338.26807845417392" y2="172.10139466990677" />
    <line x1="323" y1="187" x2="275" y2="187" />
    <line x1="227" y1="187" x2="211" y2="187" />
    <line x1="370.11398970768425" y1="205.03515382063915" x2="338.268078454174" y2="201.89860533009323" />
    <line x1="351.77192710774273" y1="219.77517409870953" x2="320.38679813483935" y2="213.53228379419343" />
    <line x1="363.0770217747264" y1="240.41238061482105" x2="332.45493103129576" y2="231.12327094267823" />
    <line x1="342.21176146189617" y1="251.29081663733507" x2="297.86554390135439" y2="232.92201188381077" />
    <line x1="283.08347138117381" y1="226.79907696596933" x2="268.30139886099323" y2="220.6761420481279" />
    <line x1="326.68689486682763" y1="280.33579914729313" x2="273.47283967946476" y2="244.77930423403859" />
    <line x1="329.23392341874364" y1="303.72836428611072" x2="316.86575616493985" y2="293.57807173949243" />
    <line x1="305.79393923934" y1="305.79393923934" x2="294.48023074035524" y2="294.48023074035518" />
    <line x1="260.53910524340097" y1="260.53910524340097" x2="237.91168824543144" y2="237.91168824543144" />
    <line x1="303.72836428611078" y1="329.23392341874364" x2="283.42777919287414" y2="304.497588911136" />
    <line x1="271.44667541897957" y1="313.38338106998691" x2="253.66842796235227" y2="286.77635347630542" />
    <line x1="235.890180505725" y1="260.169325882624" x2="227.00105677741135" y2="246.86581208578326" />
    <line x1="232.9220118838108" y1="297.86554390135439" x2="220.6761420481279" y2="268.30139886099323" />
    <line x1="235.76782577874968" y1="347.76597640301111" x2="231.12327094267829" y2="332.4549310312957" />
    <line x1="222.89661925096766" y1="367.46449159419438" x2="219.77517409870961" y2="351.77192710774273" />
    <line x1="213.53228379419349" y1="320.38679813483935" x2="204.16794833741932" y2="273.30910467548426" />
    <line x1="203.46687957536622" y1="354.19103408092906" x2="200.33033108482027" y2="322.34512282741878" />
    <line x1="187.00000000000003" y1="323" x2="187" y2="259" />
    <line x1="170.53312042463381" y1="354.19103408092906" x2="173.66966891517976" y2="322.34512282741878" />
    <line x1="160.46771620580654" y1="320.38679813483935" x2="163.58916135806459" y2="304.69423364838764" />
    <line x1="128.83211828050636" y1="327.4296889417156" x2="134.9550531983478" y2="312.647616421535" />
    <line x1="141.07798811618923" y1="297.86554390135444" x2="147.20092303403067" y2="283.08347138117381" />
    <line x1="159.44679286971353" y1="253.51932634081265" x2="165.56972778755497" y2="238.73725382063208" />
    <line x1="100.26300042401644" y1="349.27351264009735" x2="122.89004379166433" y2="306.94129195137629" />
    <line x1="93.66420085270687" y1="326.68689486682763" x2="102.55332458102051" y2="313.38338106998691" />
    <line x1="129.22069576596141" y1="273.47283967946476" x2="146.99894322258865" y2="246.86581208578326" />
    <line x1="90.572220807125916" y1="304.49758891113606" x2="100.72251335374425" y2="292.12942165733227" />
    <line x1="68.206060760660023" y1="305.79393923934003" x2="79.519769259644789" y2="294.48023074035524" />
    <line x1="136.08831175456857" y1="237.91168824543144" x2="170.02943725152286" y2="203.97056274847714" />
    <line x1="69.502411088864022" y1="283.4277791928742" x2="81.870578342667812" y2="273.27748664625585" />
    <line x1="34.009591336331681" y1="289.22492287560681" x2="60.616618930013118" y2="271.44667541897957" />
    <line x1="73.920132726853851" y1="262.55755169066589" x2="87.223646523694569" y2="253.66842796235227" />
    <line x1="100.5271603205353" y1="244.77930423403862" x2="127.13418791421674" y2="227.00105677741135" />
    <line x1="17.006166017923277" y1="257.41375155517665" x2="61.352383578465037" y2="239.04494680165229" />
    <line x1="76.134456098645614" y1="232.92201188381085" x2="90.9165286188262" y2="226.79907696596939" />
    <line x1="105.69860113900678" y1="220.67614204812796" x2="120.48067365918737" y2="214.5532071302865" />
    <line x1="41.545068968704271" y1="231.12327094267829" x2="56.856114340419595" y2="226.4787161066069" />
    <line x1="53.613201865160676" y1="213.53228379419349" x2="69.305766351612363" y2="210.41083864193544" />
    <line x1="84.998330838064049" y1="207.28939348967737" x2="116.38345981096742" y2="201.04650318516127" />
    <line x1="3.886010292315774" y1="205.03515382063912" x2="19.808965919070914" y2="203.46687957536616" />
    <line x1="35.731921545826054" y1="201.89860533009318" x2="51.654877172581223" y2="200.33033108482022" />
    <line x1="35" y1="187.00000000000003" x2="67" y2="187.00000000000003" />
    <line x1="147" y1="187" x2="163" y2="187" />
    <line x1="22.228072892257273" y1="154.22482590129044" x2="53.613201865160647" y2="160.46771620580654" />
    <line x1="69.305766351612348" y1="163.58916135806462" x2="84.998330838064035" y2="166.71060651032266" />
    <line x1="10.922978225273567" y1="133.58761938517898" x2="26.234023596988891" y2="138.23217422125038" />
    <line x1="31.788238538103855" y1="122.70918336266487" x2="46.570311058284432" y2="128.83211828050634" />
    <line x1="61.352383578465023" y1="134.95505319834777" x2="105.69860113900678" y2="153.32385795187207" />
    <line x1="24.726487359902677" y1="100.26300042401644" x2="38.837227589476356" y2="107.80534821323241" />
    <line x1="34.009591336331624" y1="84.775077124393263" x2="73.920132726853822" y2="111.44244830933415" />
    <line x1="87.223646523694541" y1="120.33157203764777" x2="127.13418791421672" y2="146.99894322258865" />
    <line x1="90.833477758629513" y1="90.833477758629556" x2="102.14718625761428" y2="102.14718625761432" />
    <line x1="136.08831175456857" y1="136.08831175456859" x2="158.7157287525381" y2="158.7157287525381" />
    <line x1="80.421928260507485" y1="57.134243835060232" x2="90.572220807125817" y2="69.502411088864022" />
    <line x1="102.55332458102046" y1="60.616618930013118" x2="111.44244830933411" y2="73.920132726853851" />
    <line x1="107.80534821323235" y1="38.837227589476385" x2="115.34769600244832" y2="52.947967819050064" />
    <line x1="153.32385795187204" y1="105.69860113900678" x2="159.44679286971348" y2="120.48067365918737" />
    <line x1="138.23217422125032" y1="26.234023596988919" x2="147.5212838933931" y2="56.856114340419595" />
    <line x1="151.10338074903231" y1="6.535508405805615" x2="157.34627105354844" y2="37.920637378708989" />
    <line x1="160.46771620580648" y1="53.613201865160676" x2="166.71060651032261" y2="84.998330838064049" />
    <line x1="172.1013946699068" y1="35.731921545826054" x2="173.66966891517978" y2="51.654877172581223" />
  </g>
  <path fill="none" stroke="#ff0000" stroke-width="2" stroke-linecap="square" stroke-linejoin="round" d="M 196.02845207624492,3.2216360582482935 L 195.63591068162558,11.211999707889646 A 176,176 0 0,1 212.82456350414367,12.904934246198536 L 210.47687591285788,28.731758405635048 A 160,160 0 0,1 225.87682878452222,31.794999488872975 L 229.76451166297443,16.274499437760255 A 176,176 0 0,1 246.29261419703073,21.288244527788351 L 240.90237654275521,36.352949570716675 A 160,160 0 0,1 255.40881494884513,42.361713100249062 L 262.24969644372965,27.897884410273974 A 176,176 0 0,1 305.19437605307525,56.592601937527178 L 294.44943277552295,68.44781994320654 A 160,160 0 0,0 269.25643907091546,49.763422399956454 L 261.03079516382394,63.487080159960811 A 144,144 0 0,1 283.70448949797066,80.303037948885887 L 272.95954622041836,92.158255954565234 A 128,128 0 0,0 199.54619396218376,59.616354985958793 L 196.40964547163782,91.4622662394691 A 96,96 0 0,1 214.86732901642839,95.133727769707946 L 219.51188385249978,79.822682397992608 A 112,112 0 0,1 239.79643452451174,88.224818392984233 L 217.16939115686384,130.55703908170528 A 64,64 0 0,1 222.55649491325454,133.7859448126371 L 213.66737118494092,147.08945860947785 A 48,48 0 0,0 196.36433545677414,139.92230654064494 L 193.2428903045161,155.61487102709663 A 32,32 0 0,1 218.38512897290337,180.75710969548391 L 234.07769345935506,177.63566454322583 A 48,48 0 0,1 226.91054139052218,213.66737118494089 L 213.60702759368147,204.77824745662727 A 32,32 0 0,1 174.75413016431713,216.56414504036118 L 177.81559762323786,209.17310878027089" />
  <type>Circular</type>
</svg>