<?xml version="1.0" encoding="utf-8" standalone="no"?>
<!DOCTYPE svg PUBLIC "-//W3C//DTD SVG 1.1//EN" "http://www.w3.org/Graphics/SVG/1.1/DTD/svg11.dtd"[]>
<svg width="372" height="372" version="1.1" xmlns="http://www.w3.org/2000/svg">
  <title>23 cells diameter theta maze</title>
  <g fill="none" stroke="#000000" stroke-width="2" stroke-linecap="square">
    <path d="M 170.02943725152286,203.97056274847714 A 24,24 0 1,1 187,211" />
    <path d="M 147,187 A 40,40 0 1,1 215.2842712474619,215.2842712474619" />
    <path d="M 187,227 A 40,40 0 0,1 150.04481869954853,202.3073372946036" />
    <path d="M 226.59797974644667,147.40202025355333 A 56,56 0 0,1 238.73725382063205,165.56972778755497" />
    <path d="M 243,187 A 56,56 0 0,1 238.73725382063208,208.43027221244503" />
    <path d="M 226.59797974644667,226.59797974644664 A 56,56 0 0,1 208.43027221244503,238.73725382063205" />
    <path d="M 135.26274617936795,208.43027221244506 A 56,56 0 0,1 135.26274617936795,165.56972778755497" />
    <path d="M 147.40202025355333,147.40202025355336 A 56,56 0 0,1 165.56972778755494,135.26274617936795" />
    <path d="M 159.44679286971348,120.48067365918737 A 72,72 0 0,1 187,115" />
    <path d="M 201.04650318516124,116.38345981096741 A 72,72 0 0,1 227.00105677741135,127.13418791421674" />
    <path d="M 246.86581208578326,146.99894322258865 A 72,72 0 0,1 259,187" />
    <path d="M 257.61654018903261,201.04650318516124 A 72,72 0 0,1 246.86581208578326,227.00105677741135" />
    <path d="M 227.00105677741135,246.86581208578326 A 72,72 0 0,1 159.44679286971353,253.51932634081265" />
    <path d="M 146.99894322258865,246.86581208578326 A 72,72 0 0,1 127.13418791421674,227.00105677741135" />
    <path d="M 116.38345981096741,201.04650318516127 A 72,72 0 0,1 115,187" />
    <path d="M 116.38345981096741,172.95349681483876 A 72,72 0 0,1 146.99894322258865,127.13418791421674" />
    <path d="M 187,99 A 88,88 0 0,1 204.16794833741929,100.69089532451572" />
    <path d="M 220.6761420481279,105.69860113900677 A 88,88 0 0,1 260.169325882624,138.109819494275" />
    <path d="M 268.30139886099323,153.3238579518721 A 88,88 0 0,1 273.30910467548426,169.83205166258071" />
    <path d="M 260.169325882624,235.89018050572497 A 88,88 0 0,1 249.22539674441617,249.22539674441617" />
    <path d="M 204.16794833741932,273.30910467548426 A 88,88 0 0,1 169.83205166258071,273.30910467548426" />
    <path d="M 153.32385795187213,268.30139886099323 A 88,88 0 0,1 138.10981949427503,260.169325882624" />
    <path d="M 113.83067411737602,235.890180505725 A 88,88 0 0,1 105.69860113900678,220.67614204812796" />
    <path d="M 100.69089532451572,204.16794833741932 A 88,88 0 0,1 105.69860113900677,153.32385795187207" />
    <path d="M 113.83067411737599,138.10981949427503 A 88,88 0 0,1 124.7746032555838,124.77460325558383" />
    <path d="M 138.109819494275,113.83067411737602 A 88,88 0 0,1 169.83205166258068,100.69089532451572" />
    <path d="M 113.46089475659905,113.46089475659908 A 104,104 0 0,1 187,83" />
    <path d="M 207.28939348967734,84.998330838064035 A 104,104 0 0,1 260.53910524340097,113.46089475659906" />
    <path d="M 273.4728396794647,129.22069576596135 A 104,104 0 0,1 283.08347138117381,147.20092303403067" />
    <path d="M 289.001669161936,166.71060651032266 A 104,104 0 0,1 291,187" />
    <path d="M 289.001669161936,207.28939348967734 A 104,104 0 0,1 273.47283967946476,244.77930423403859" />
    <path d="M 260.53910524340097,260.53910524340097 A 104,104 0 0,1 147.20092303403067,283.08347138117381" />
    <path d="M 129.22069576596141,273.47283967946476 A 104,104 0 0,1 84.998330838064035,166.71060651032266" />
    <path d="M 163.58916135806456,69.305766351612363 A 120,120 0 0,1 210.41083864193539,69.305766351612348" />
    <path d="M 271.85281374238571,102.14718625761429 A 120,120 0 0,1 304.69423364838764,163.58916135806459" />
    <path d="M 307,187 A 120,120 0 0,1 297.86554390135439,232.92201188381077" />
    <path d="M 286.77635347630542,253.66842796235224 A 120,120 0 0,1 253.66842796235227,286.77635347630542" />
    <path d="M 232.9220118838108,297.86554390135439 A 120,120 0 0,1 210.41083864193544,304.69423364838764" />
    <path d="M 163.58916135806459,304.69423364838764 A 120,120 0 0,1 87.223646523694569,253.66842796235227" />
    <path d="M 67,187.00000000000003 A 120,120 0 0,1 102.14718625761428,102.14718625761432" />
    <path d="M 120.33157203764773,87.223646523694569 A 120,120 0 0,1 141.07798811618915,76.134456098645614" />
    <path d="M 187,51 A 136,136 0 0,1 251.10995620833569,67.058708048623714" />
    <path d="M 262.55755169066589,73.920132726853851 A 136,136 0 0,1 317.14388565958041,147.52128389339313" />
    <path d="M 320.38679813483935,160.46771620580654 A 136,136 0 0,1 317.14388565958041,226.47871610660687" />
    <path d="M 312.647616421535,239.0449468016522 A 136,136 0 0,1 300.07986727314619,262.55755169066589" />
    <path d="M 292.12942165733227,273.27748664625574 A 136,136 0 0,1 283.16652224137044,283.16652224137044" />
    <path d="M 273.2774866462558,292.12942165733222 A 136,136 0 0,1 226.4787161066069,317.14388565958041" />
    <path d="M 213.53228379419349,320.3867981348393 A 136,136 0 0,1 187.00000000000003,323" />
    <path d="M 173.66966891517976,322.34512282741878 A 136,136 0 0,1 160.46771620580654,320.38679813483935" />
    <path d="M 134.9550531983478,312.647616421535 A 136,136 0 0,1 122.89004379166433,306.94129195137629" />
    <path d="M 111.44244830933414,300.07986727314619 A 136,136 0 0,1 73.920132726853836,262.55755169066589" />
    <path d="M 67.058708048623728,251.10995620833572 A 136,136 0 0,1 56.856114340419595,226.4787161066069" />
    <path d="M 53.613201865160676,213.53228379419349 A 136,136 0 0,1 51.654877172581223,200.33033108482022" />
    <path d="M 51,187.00000000000003 A 136,136 0 0,1 67.058708048623714,122.89004379166433" />
    <path d="M 73.920132726853822,111.44244830933414 A 136,136 0 0,1 81.870578342667784,100.72251335374421" />
    <path d="M 90.833477758629513,90.833477758629556 A 136,136 0 0,1 111.4424483093341,73.920132726853851" />
    <path d="M 134.95505319834771,61.352383578465037 A 136,136 0 0,1 173.66966891517978,51.654877172581223" />
    <path d="M 187,35 A 152,152 0 0,1 201.8986053300932,35.731921545826083" />
    <path d="M 231.12327094267829,41.545068968704243 A 152,152 0 0,1 271.44667541897957,60.616618930013118" />
    <path d="M 294.48023074035524,79.519769259644775 A 152,152 0 0,1 313.38338106998685,102.55332458102046" />
    <path d="M 332.45493103129576,142.87672905732174 A 152,152 0 0,1 336.079362621291,157.34627105354849" />
    <path d="M 338.26807845417392,172.10139466990677 A 152,152 0 0,1 336.079362621291,216.65372894645148" />
    <path d="M 321.05203218094994,258.65230399755166 A 152,152 0 0,1 304.49758891113606,283.42777919287408" />
    <path d="M 294.48023074035524,294.48023074035518 A 152,152 0 0,1 283.42777919287414,304.497588911136" />
    <path d="M 245.16788171949366,327.42968894171554 A 152,152 0 0,1 216.65372894645154,336.079362621291" />
    <path d="M 201.89860533009323,338.26807845417392 A 152,152 0 0,1 172.1013946699068,338.26807845417392" />
    <path d="M 142.87672905732177,332.45493103129576 A 152,152 0 0,1 128.83211828050636,327.4296889417156" />
    <path d="M 115.34769600244836,321.05203218094994 A 152,152 0 0,1 102.55332458102051,313.38338106998691" />
    <path d="M 90.572220807125916,304.49758891113606 A 152,152 0 0,1 69.502411088864022,283.42777919287414" />
    <path d="M 60.616618930013118,271.44667541897951 A 152,152 0 0,1 52.947967819050064,258.65230399755171" />
    <path d="M 37.920637378708989,216.65372894645157 A 152,152 0 0,1 46.570311058284432,128.83211828050634" />
    <path d="M 52.947967819050035,115.34769600244837 A 152,152 0 0,1 60.61661893001309,102.55332458102052" />
    <path d="M 69.502411088864,90.572220807125873 A 152,152 0 0,1 79.519769259644747,79.5197692596448" />
    <path d="M 115.34769600244832,52.947967819050064 A 152,152 0 0,1 142.87672905732171,41.545068968704271" />
    <path d="M 138.23217422125032,26.234023596988919 A 168,168 0 0,1 187,19" />
    <path d="M 251.29081663733507,31.788238538103826 A 168,168 0 0,1 305.79393923934,68.206060760660009" />
    <path d="M 326.68689486682763,93.664200852706827 A 168,168 0 0,1 335.16277241052364,107.80534821323238" />
    <path d="M 342.21176146189617,122.70918336266492 A 168,168 0 0,1 347.76597640301111,138.23217422125032" />
    <path d="M 355,187 A 168,168 0 0,1 354.19103408092906,203.46687957536619" />
    <path d="M 351.77192710774273,219.77517409870953 A 168,168 0 0,1 335.16277241052364,266.19465178676762" />
    <path d="M 326.68689486682763,280.33579914729313 A 168,168 0 0,1 305.79393923934,305.79393923934" />
    <path d="M 293.57807173949243,316.86575616493985 A 168,168 0 0,1 187.00000000000003,355" />
    <path d="M 154.22482590129044,351.77192710774273 A 168,168 0 0,1 138.23217422125038,347.76597640301111" />
    <path d="M 93.664200852706884,326.68689486682763 A 168,168 0 0,1 80.421928260507585,316.86575616493985" />
    <path d="M 68.206060760660037,305.79393923934003 A 168,168 0 0,1 47.3131051331724,280.33579914729319" />
    <path d="M 31.788238538103855,251.29081663733518 A 168,168 0 0,1 22.228072892257302,219.77517409870961" />
    <path d="M 19.808965919070914,203.46687957536616 A 168,168 0 0,1 22.228072892257273,154.22482590129044" />
    <path d="M 31.788238538103855,122.70918336266487 A 168,168 0 0,1 38.837227589476356,107.80534821323241" />
    <path d="M 47.313105133172371,93.664200852706884 A 168,168 0 0,1 57.134243835060204,80.421928260507542" />
    <path d="M 80.421928260507485,57.134243835060261 A 168,168 0 0,1 93.664200852706827,47.3131051331724" />
    <path d="M 205.03515382063915,3.886010292315774 A 184,184 0 1,1 187,3" />
  </g>
  <g fill="none" stroke="#000000" stroke-width="2" stroke-linecap="butt">
    <line x1="187" y1="99" x2="187" y2="115" />
    <line x1="187" y1="131" x2="187" y2="147" />
    <line x1="205.03515382063915" y1="3.886010292315774" x2="201.8986053300932" y2="35.731921545826054" />
    <line x1="219.77517409870956" y1="22.228072892257273" x2="213.53228379419343" y2="53.613201865160647" />
    <line x1="210.41083864193539" y1="69.305766351612348" x2="204.16794833741929" y2="100.69089532451572" />
    <line x1="240.41238061482108" y1="10.922978225273567" x2="231.12327094267829" y2="41.545068968704271" />
    <line x1="239.0449468016522" y1="61.352383578465009" x2="232.92201188381077" y2="76.134456098645586" />
    <line x1="220.6761420481279" y1="105.69860113900677" x2="208.43027221244503" y2="135.26274617936795" />
    <line x1="258.65230399755166" y1="52.947967819050035" x2="251.10995620833569" y2="67.058708048623714" />
    <line x1="271.44667541897957" y1="60.616618930013118" x2="253.66842796235227" y2="87.223646523694569" />
    <line x1="293.57807173949243" y1="57.134243835060175" x2="283.42777919287414" y2="69.50241108886398" />
    <line x1="305.79393923934" y1="68.206060760660009" x2="283.16652224137044" y2="90.833477758629527" />
    <line x1="271.85281374238571" y1="102.14718625761429" x2="260.53910524340097" y2="113.46089475659905" />
    <line x1="249.22539674441617" y1="124.77460325558381" x2="215.2842712474619" y2="158.7157287525381" />
    <line x1="329.23392341874364" y1="70.271635713889225" x2="316.86575616493985" y2="80.421928260507556" />
    <line x1="326.68689486682763" y1="93.664200852706813" x2="313.38338106998685" y2="102.55332458102045" />
    <line x1="321.05203218094994" y1="115.34769600244833" x2="306.94129195137629" y2="122.8900437916643" />
    <line x1="356.99383398207675" y1="116.58624844482347" x2="327.4296889417156" y2="128.83211828050634" />
    <line x1="283.08347138117381" y1="147.20092303403067" x2="253.51932634081265" y2="159.44679286971353" />
    <line x1="351.77192710774273" y1="154.22482590129044" x2="320.38679813483935" y2="160.46771620580654" />
    <line x1="370.11398970768425" y1="168.96484617936082" x2="354.19103408092906" y2="170.53312042463378" />
    <line x1="355" y1="187" x2="339" y2="187" />
    <line x1="307" y1="187" x2="259" y2="187" />
    <line x1="351.77192710774273" y1="219.77517409870953" x2="304.69423364838764" y2="210.41083864193539" />
    <line x1="289.001669161936" y1="207.28939348967734" x2="257.61654018903261" y2="201.04650318516124" />
    <line x1="347.76597640301111" y1="235.76782577874965" x2="332.45493103129576" y2="231.12327094267823" />
    <line x1="327.4296889417156" y1="245.16788171949364" x2="312.64761642153496" y2="239.0449468016522" />
    <line x1="268.30139886099323" y1="220.6761420481279" x2="223.95518130045147" y2="202.3073372946036" />
    <line x1="335.16277241052364" y1="266.19465178676762" x2="321.05203218094994" y2="258.65230399755166" />
    <line x1="313.38338106998691" y1="271.44667541897951" x2="260.169325882624" y2="235.89018050572497" />
    <line x1="317.10764773832477" y1="317.10764773832477" x2="305.79393923934" y2="305.79393923934" />
    <line x1="294.48023074035524" y1="294.48023074035518" x2="283.16652224137044" y2="283.16652224137044" />
    <line x1="249.22539674441617" y1="249.22539674441617" x2="226.59797974644667" y2="226.59797974644664" />
    <line x1="293.57807173949243" y1="316.86575616493985" x2="273.2774866462558" y2="292.12942165733222" />
    <line x1="280.33579914729319" y1="326.68689486682763" x2="271.44667541897957" y2="313.38338106998691" />
    <line x1="244.77930423403862" y1="273.4728396794647" x2="227.00105677741135" y2="246.86581208578326" />
    <line x1="258.65230399755166" y1="321.05203218094994" x2="251.10995620833569" y2="306.94129195137629" />
    <line x1="239.04494680165223" y1="312.64761642153496" x2="220.6761420481279" y2="268.30139886099323" />
    <line x1="208.43027221244503" y1="238.73725382063205" x2="202.3073372946036" y2="223.95518130045147" />
    <line x1="216.65372894645154" y1="336.079362621291" x2="213.53228379419349" y2="320.38679813483935" />
    <line x1="204.16794833741932" y1="273.30910467548426" x2="201.04650318516127" y2="257.61654018903261" />
    <line x1="187.00000000000003" y1="339" x2="187" y2="291" />
    <line x1="187" y1="259" x2="187" y2="243" />
    <line x1="187" y1="227" x2="187" y2="211" />
    <line x1="170.53312042463381" y1="354.19103408092906" x2="173.66966891517976" y2="322.34512282741878" />
    <line x1="151.1033807490324" y1="367.46449159419438" x2="154.22482590129044" y2="351.77192710774273" />
    <line x1="157.34627105354849" y1="336.079362621291" x2="163.58916135806459" y2="304.69423364838764" />
    <line x1="142.87672905732177" y1="332.45493103129576" x2="147.52128389339316" y2="317.14388565958041" />
    <line x1="116.5862484448235" y1="356.99383398207681" x2="128.83211828050636" y2="327.4296889417156" />
    <line x1="153.3238579518721" y1="268.30139886099323" x2="165.56972778755497" y2="238.73725382063208" />
    <line x1="107.80534821323239" y1="335.16277241052364" x2="122.89004379166433" y2="306.94129195137629" />
    <line x1="84.775077124393235" y1="339.9904086636684" x2="93.66420085270687" y2="326.68689486682763" />
    <line x1="102.55332458102051" y1="313.38338106998691" x2="111.44244830933414" y2="300.07986727314619" />
    <line x1="80.4219282605076" y1="316.86575616493985" x2="90.572220807125916" y2="304.49758891113606" />
    <line x1="102.14718625761431" y1="271.85281374238571" x2="147.40202025355336" y2="226.59797974644667" />
    <line x1="57.134243835060232" y1="293.57807173949254" x2="81.870578342667812" y2="273.27748664625585" />
    <line x1="24.726487359902706" y1="273.73699957598359" x2="67.058708048623728" y2="251.10995620833569" />
    <line x1="31.788238538103855" y1="251.29081663733518" x2="46.57031105828446" y2="245.16788171949372" />
    <line x1="61.352383578465037" y1="239.04494680165229" x2="76.134456098645614" y2="232.92201188381085" />
    <line x1="90.9165286188262" y1="226.79907696596939" x2="150.04481869954856" y2="202.3073372946036" />
    <line x1="41.545068968704271" y1="231.12327094267829" x2="56.856114340419595" y2="226.4787161066069" />
    <line x1="22.228072892257302" y1="219.77517409870961" x2="84.998330838064049" y2="207.28939348967737" />
    <line x1="100.69089532451574" y1="204.16794833741932" x2="116.38345981096742" y2="201.04650318516127" />
    <line x1="3.886010292315774" y1="205.03515382063912" x2="19.808965919070914" y2="203.46687957536616" />
    <line x1="115" y1="187" x2="131" y2="187" />
    <line x1="147" y1="187" x2="163" y2="187" />
    <line x1="10.922978225273567" y1="133.58761938517898" x2="41.545068968704243" y2="142.87672905732177" />
    <line x1="90.916528618826192" y1="147.20092303403064" x2="105.69860113900678" y2="153.32385795187207" />
    <line x1="120.48067365918736" y1="159.44679286971353" x2="135.26274617936795" y2="165.56972778755497" />
    <line x1="38.837227589476356" y1="107.80534821323241" x2="67.058708048623714" y2="122.89004379166433" />
    <line x1="34.009591336331624" y1="84.775077124393263" x2="60.61661893001309" y2="102.55332458102052" />
    <line x1="73.920132726853822" y1="111.44244830933415" x2="127.13418791421672" y2="146.99894322258865" />
    <line x1="69.502411088864" y1="90.572220807125873" x2="81.870578342667784" y2="100.72251335374421" />
    <line x1="68.20606076066" y1="68.206060760660051" x2="79.519769259644747" y2="79.5197692596448" />
    <line x1="147.40202025355333" y1="147.40202025355336" x2="158.7157287525381" y2="158.7157287525381" />
    <line x1="70.271635713889154" y1="44.766076581256442" x2="80.421928260507485" y2="57.134243835060232" />
    <line x1="90.572220807125817" y1="69.502411088864022" x2="100.72251335374415" y2="81.870578342667812" />
    <line x1="93.664200852706841" y1="47.3131051331724" x2="102.55332458102046" y2="60.616618930013118" />
    <line x1="111.44244830933411" y1="73.920132726853851" x2="120.33157203764773" y2="87.223646523694569" />
    <line x1="138.109819494275" y1="113.83067411737602" x2="146.99894322258865" y2="127.13418791421674" />
    <line x1="100.26300042401638" y1="24.726487359902706" x2="122.89004379166428" y2="67.058708048623743" />
    <line x1="122.70918336266482" y1="31.788238538103855" x2="128.83211828050625" y2="46.57031105828446" />
    <line x1="134.95505319834771" y1="61.352383578465037" x2="147.20092303403061" y2="90.9165286188262" />
    <line x1="159.44679286971348" y1="120.48067365918737" x2="165.56972778755494" y2="135.26274617936795" />
    <line x1="138.23217422125032" y1="26.234023596988919" x2="142.87672905732171" y2="41.545068968704271" />
    <line x1="154.22482590129039" y1="22.228072892257302" x2="157.34627105354844" y2="37.920637378708989" />
    <line x1="166.71060651032261" y1="84.998330838064049" x2="169.83205166258068" y2="100.69089532451574" />
    <line x1="172.1013946699068" y1="35.731921545826054" x2="173.66966891517978" y2="51.654877172581223" />
  </g>
  <path fill="none" stroke="#ff0000" stroke-width="2" stroke-linecap="square" stroke-linejoin="round" d="M 196.02845207624492,3.2216360582482935 L 194.85082789238689,27.192727007172408 A 160,160 0 0,0 179.14917210761311,27.192727007172408 L 180.71933768609048,59.154181605737932 A 128,128 0 0,0 149.8435613114288,64.51163702627727 L 154.48811614750019,79.822682397992608 A 112,112 0 0,1 197.97791971691078,75.539310612713948 L 196.40964547163782,91.4622662394691 A 96,96 0 0,0 177.59035452836218,91.4622662394691 L 179.15862877363517,107.38522186622424 A 80,80 0 0,0 149.28826105392017,116.44629885213161 L 156.83060884313613,130.55703908170528 A 64,64 0 0,0 133.7859448126371,151.44350508674549 L 147.08945860947782,160.33262881505911 A 48,48 0 0,0 139.92230654064494,196.36433545677417 L 155.61487102709663,193.24289030451612 A 32,32 0 0,0 174.75413016431713,216.56414504036118 L 177.81559762323786,209.17310878027089" />
  <type>Circular</type>
</svg>