<?xml version="1.0" encoding="utf-8" standalone="no"?>
<!DOCTYPE svg PUBLIC "-//W3C//DTD SVG 1.1//EN" "http://www.w3.org/Graphics/SVG/1.1/DTD/svg11.dtd"[]>
<svg width="372" height="372" version="1.1" xmlns="http://www.w3.org/2000/svg">
  <title>23 cells diameter theta maze</title>
  <g fill="none" stroke="#000000" stroke-width="2" stroke-linecap="square">
    <path d="M 170.02943725152286,203.97056274847714 A 24,24 0 1,1 187,211" />
    <path d="M 215.2842712474619,215.2842712474619 A 40,40 0 1,1 215.2842712474619,158.7157287525381" />
    <path d="M 223.95518130045147,171.6926627053964 A 40,40 0 0,1 223.95518130045147,202.3073372946036" />
    <path d="M 187,131 A 56,56 0 0,1 226.59797974644667,147.40202025355333" />
    <path d="M 238.73725382063205,165.56972778755497 A 56,56 0 0,1 243,187" />
    <path d="M 238.73725382063208,208.43027221244503 A 56,56 0 0,1 208.43027221244503,238.73725382063205" />
    <path d="M 131,187 A 56,56 0 0,1 147.40202025355333,147.40202025355336" />
    <path d="M 159.44679286971348,120.48067365918737 A 72,72 0 0,1 201.04650318516124,116.38345981096741" />
    <path d="M 214.55320713028647,120.48067365918736 A 72,72 0 0,1 257.61654018903261,201.04650318516124" />
    <path d="M 246.86581208578326,227.00105677741135 A 72,72 0 0,1 214.55320713028647,253.51932634081265" />
    <path d="M 201.04650318516127,257.61654018903261 A 72,72 0 0,1 187,259" />
    <path d="M 172.95349681483876,257.61654018903261 A 72,72 0 0,1 120.48067365918737,214.5532071302865" />
    <path d="M 116.38345981096741,201.04650318516127 A 72,72 0 0,1 115,187" />
    <path d="M 116.38345981096741,172.95349681483876 A 72,72 0 0,1 127.13418791421672,146.99894322258865" />
    <path d="M 136.08831175456857,136.08831175456859 A 72,72 0 0,1 146.99894322258865,127.13418791421674" />
    <path d="M 204.16794833741929,100.69089532451572 A 88,88 0 0,1 220.6761420481279,105.69860113900677" />
    <path d="M 249.22539674441617,124.77460325558381 A 88,88 0 0,1 260.169325882624,138.109819494275" />
    <path d="M 268.30139886099323,153.3238579518721 A 88,88 0 0,1 275,187" />
    <path d="M 273.30910467548426,204.16794833741929 A 88,88 0 0,1 260.169325882624,235.89018050572497" />
    <path d="M 204.16794833741932,273.30910467548426 A 88,88 0 0,1 169.83205166258071,273.30910467548426" />
    <path d="M 153.32385795187213,268.30139886099323 A 88,88 0 0,1 138.10981949427503,260.169325882624" />
    <path d="M 105.69860113900678,220.67614204812796 A 88,88 0 0,1 100.69089532451572,204.16794833741932" />
    <path d="M 99,187.00000000000003 A 88,88 0 0,1 105.69860113900677,153.32385795187207" />
    <path d="M 138.109819494275,113.83067411737602 A 88,88 0 0,1 153.32385795187204,105.69860113900678" />
    <path d="M 166.71060651032261,84.998330838064049 A 104,104 0 0,1 187,83" />
    <path d="M 244.77930423403862,100.52716032053529 A 104,104 0 0,1 283.08347138117381,147.20092303403067" />
    <path d="M 289.001669161936,166.71060651032266 A 104,104 0 0,1 289.001669161936,207.28939348967734" />
    <path d="M 283.08347138117381,226.79907696596933 A 104,104 0 0,1 260.53910524340097,260.53910524340097" />
    <path d="M 244.77930423403862,273.4728396794647 A 104,104 0 0,1 226.79907696596933,283.08347138117381" />
    <path d="M 166.71060651032266,289.001669161936 A 104,104 0 0,1 113.46089475659908,260.53910524340097" />
    <path d="M 84.998330838064035,207.28939348967737 A 104,104 0 0,1 100.52716032053527,129.22069576596141" />
    <path d="M 113.46089475659905,113.46089475659908 A 104,104 0 0,1 129.22069576596135,100.5271603205353" />
    <path d="M 210.41083864193539,69.305766351612348 A 120,120 0 0,1 232.92201188381077,76.134456098645586" />
    <path d="M 253.66842796235227,87.223646523694569 A 120,120 0 0,1 286.77635347630542,120.33157203764773" />
    <path d="M 297.86554390135439,141.07798811618923 A 120,120 0 0,1 304.69423364838764,163.58916135806459" />
    <path d="M 297.86554390135439,232.92201188381077 A 120,120 0 0,1 271.85281374238571,271.85281374238571" />
    <path d="M 232.9220118838108,297.86554390135439 A 120,120 0 0,1 210.41083864193544,304.69423364838764" />
    <path d="M 141.07798811618926,297.86554390135439 A 120,120 0 0,1 87.223646523694569,253.66842796235227" />
    <path d="M 76.134456098645614,232.92201188381085 A 120,120 0 0,1 141.07798811618915,76.134456098645614" />
    <path d="M 173.66966891517978,51.654877172581223 A 136,136 0 0,1 213.53228379419343,53.613201865160647" />
    <path d="M 226.4787161066069,56.856114340419595 A 136,136 0 0,1 251.10995620833569,67.058708048623714" />
    <path d="M 262.55755169066589,73.920132726853851 A 136,136 0 0,1 292.12942165733222,100.72251335374421" />
    <path d="M 300.07986727314614,111.4424483093341 A 136,136 0 0,1 312.64761642153496,134.9550531983478" />
    <path d="M 317.14388565958041,147.52128389339313 A 136,136 0 0,1 322.34512282741878,173.66966891517973" />
    <path d="M 323,187 A 136,136 0 0,1 306.94129195137629,251.10995620833569" />
    <path d="M 300.07986727314619,262.55755169066589 A 136,136 0 0,1 292.12942165733227,273.27748664625574" />
    <path d="M 283.16652224137044,283.16652224137044 A 136,136 0 0,1 251.10995620833569,306.94129195137629" />
    <path d="M 226.4787161066069,317.14388565958041 A 136,136 0 0,1 187.00000000000003,323" />
    <path d="M 173.66966891517976,322.34512282741878 A 136,136 0 0,1 147.52128389339316,317.14388565958041" />
    <path d="M 134.9550531983478,312.647616421535 A 136,136 0 0,1 122.89004379166433,306.94129195137629" />
    <path d="M 111.44244830933414,300.07986727314619 A 136,136 0 0,1 61.352383578465037,239.04494680165229" />
    <path d="M 56.856114340419595,226.4787161066069 A 136,136 0 0,1 53.613201865160647,160.46771620580654" />
    <path d="M 61.352383578465009,134.95505319834777 A 136,136 0 0,1 81.870578342667784,100.72251335374421" />
    <path d="M 90.833477758629513,90.833477758629556 A 136,136 0 0,1 111.4424483093341,73.920132726853851" />
    <path d="M 122.89004379166428,67.058708048623743 A 136,136 0 0,1 147.5212838933931,56.856114340419595" />
    <path d="M 201.8986053300932,35.731921545826083 A 152,152 0 0,1 245.16788171949364,46.5703110582844" />
    <path d="M 258.65230399755166,52.947967819050035 A 152,152 0 0,1 271.44667541897957,60.616618930013118" />
    <path d="M 338.26807845417392,172.10139466990677 A 152,152 0 0,1 338.26807845417392,201.89860533009323" />
    <path d="M 336.079362621291,216.65372894645148 A 152,152 0 0,1 321.05203218094994,258.65230399755166" />
    <path d="M 258.65230399755166,321.05203218094994 A 152,152 0 0,1 231.12327094267829,332.45493103129576" />
    <path d="M 216.65372894645154,336.079362621291 A 152,152 0 0,1 201.89860533009323,338.26807845417392" />
    <path d="M 142.87672905732177,332.45493103129576 A 152,152 0 0,1 128.83211828050636,327.4296889417156" />
    <path d="M 115.34769600244836,321.05203218094994 A 152,152 0 0,1 102.55332458102051,313.38338106998691" />
    <path d="M 60.616618930013118,271.44667541897951 A 152,152 0 0,1 52.947967819050064,258.65230399755171" />
    <path d="M 46.57031105828446,245.16788171949372 A 152,152 0 0,1 37.920637378708989,216.65372894645157" />
    <path d="M 35.731921545826054,172.10139466990688 A 152,152 0 0,1 37.92063737870896,157.34627105354849" />
    <path d="M 41.545068968704243,142.87672905732177 A 152,152 0 0,1 46.570311058284432,128.83211828050634" />
    <path d="M 60.61661893001309,102.55332458102052 A 152,152 0 0,1 172.1013946699068,35.731921545826083" />
    <path d="M 219.77517409870956,22.228072892257273 A 168,168 0 0,1 235.76782577874968,26.234023596988919" />
    <path d="M 305.79393923934,68.206060760660009 A 168,168 0 0,1 316.8657561649398,80.421928260507556" />
    <path d="M 335.16277241052364,107.80534821323238 A 168,168 0 0,1 354.19103408092906,170.53312042463378" />
    <path d="M 354.19103408092906,203.46687957536619 A 168,168 0 0,1 347.76597640301111,235.76782577874965" />
    <path d="M 342.21176146189617,251.29081663733507 A 168,168 0 0,1 326.68689486682763,280.33579914729313" />
    <path d="M 305.79393923934,305.79393923934 A 168,168 0 0,1 266.19465178676762,335.16277241052364" />
    <path d="M 251.2908166373351,342.21176146189617 A 168,168 0 0,1 203.46687957536622,354.19103408092906" />
    <path d="M 170.53312042463381,354.19103408092906 A 168,168 0 0,1 122.70918336266495,342.21176146189617" />
    <path d="M 107.80534821323241,335.16277241052364 A 168,168 0 0,1 93.664200852706884,326.68689486682763" />
    <path d="M 80.421928260507585,316.86575616493985 A 168,168 0 0,1 47.3131051331724,280.33579914729319" />
    <path d="M 38.837227589476385,266.19465178676762 A 168,168 0 0,1 31.788238538103855,251.29081663733518" />
    <path d="M 22.228072892257302,219.77517409870961 A 168,168 0 0,1 19,187.00000000000003" />
    <path d="M 19.808965919070914,170.53312042463392 A 168,168 0 0,1 22.228072892257273,154.22482590129044" />
    <path d="M 26.234023596988891,138.23217422125038 A 168,168 0 0,1 47.313105133172371,93.664200852706884" />
    <path d="M 57.134243835060204,80.421928260507542 A 168,168 0 0,1 80.421928260507485,57.134243835060261" />
    <path d="M 107.80534821323235,38.837227589476385 A 168,168 0 0,1 122.70918336266482,31.788238538103855" />
    <path d="M 138.23217422125032,26.234023596988919 A 168,168 0 0,1 170.53312042463384,19.808965919070914" />
    <path d="M 205.03515382063915,3.886010292315774 A 184,184 0 1,1 187,3" />
  </g>
  <g fill="none" stroke="#000000" stroke-width="2" stroke-linecap="butt">
    <line x1="187" y1="3" x2="187" y2="51" />
    <line x1="187" y1="67" x2="187" y2="99" />
    <line x1="187" y1="115" x2="187" y2="131" />
    <line x1="205.03515382063915" y1="3.886010292315774" x2="203.46687957536619" y2="19.808965919070914" />
    <line x1="210.41083864193539" y1="69.305766351612348" x2="207.28939348967734" y2="84.998330838064035" />
    <line x1="204.16794833741929" y1="100.69089532451572" x2="201.04650318516124" y2="116.38345981096741" />
    <line x1="240.41238061482108" y1="10.922978225273567" x2="235.76782577874968" y2="26.234023596988919" />
    <line x1="231.12327094267829" y1="41.545068968704271" x2="226.47871610660687" y2="56.856114340419595" />
    <line x1="251.29081663733507" y1="31.788238538103826" x2="245.16788171949366" y2="46.5703110582844" />
    <line x1="239.0449468016522" y1="61.352383578465009" x2="220.6761420481279" y2="105.69860113900677" />
    <line x1="208.43027221244503" y1="135.26274617936795" x2="202.3073372946036" y2="150.04481869954853" />
    <line x1="273.73699957598353" y1="24.726487359902677" x2="266.19465178676762" y2="38.837227589476356" />
    <line x1="289.22492287560681" y1="34.009591336331681" x2="262.55755169066589" y2="73.920132726853851" />
    <line x1="253.66842796235227" y1="87.223646523694569" x2="235.890180505725" y2="113.83067411737602" />
    <line x1="303.72836428611078" y1="44.766076581256385" x2="283.42777919287414" y2="69.50241108886398" />
    <line x1="305.79393923934" y1="68.206060760660009" x2="294.48023074035518" y2="79.519769259644775" />
    <line x1="283.16652224137044" y1="90.833477758629527" x2="271.85281374238571" y2="102.14718625761429" />
    <line x1="249.22539674441617" y1="124.77460325558381" x2="237.91168824543144" y2="136.08831175456857" />
    <line x1="316.86575616493985" y1="80.421928260507556" x2="292.12942165733222" y2="100.72251335374422" />
    <line x1="339.99040866366829" y1="84.775077124393178" x2="300.07986727314614" y2="111.44244830933408" />
    <line x1="273.4728396794647" y1="129.22069576596135" x2="260.169325882624" y2="138.109819494275" />
    <line x1="335.16277241052364" y1="107.80534821323236" x2="321.05203218094994" y2="115.34769600244833" />
    <line x1="327.4296889417156" y1="128.83211828050634" x2="297.86554390135439" y2="141.0779881161892" />
    <line x1="283.08347138117381" y1="147.20092303403067" x2="268.30139886099323" y2="153.3238579518721" />
    <line x1="253.51932634081265" y1="159.44679286971353" x2="223.95518130045147" y2="171.6926627053964" />
    <line x1="332.45493103129576" y1="142.87672905732171" x2="317.14388565958041" y2="147.52128389339313" />
    <line x1="351.77192710774273" y1="154.22482590129044" x2="304.69423364838764" y2="163.58916135806459" />
    <line x1="338.26807845417392" y1="172.10139466990677" x2="322.34512282741878" y2="173.66966891517973" />
    <line x1="355" y1="187" x2="339" y2="187" />
    <line x1="307" y1="187" x2="291" y2="187" />
    <line x1="227" y1="187" x2="211" y2="187" />
    <line x1="338.268078454174" y1="201.89860533009323" x2="322.34512282741878" y2="200.33033108482024" />
    <line x1="367.46449159419438" y1="222.8966192509676" x2="351.77192710774273" y2="219.77517409870953" />
    <line x1="304.69423364838764" y1="210.41083864193539" x2="273.30910467548426" y2="204.16794833741929" />
    <line x1="312.64761642153496" y1="239.0449468016522" x2="297.86554390135439" y2="232.92201188381077" />
    <line x1="253.51932634081265" y1="214.55320713028647" x2="223.95518130045147" y2="202.3073372946036" />
    <line x1="349.27351264009735" y1="273.73699957598359" x2="335.16277241052364" y2="266.19465178676762" />
    <line x1="321.05203218094994" y1="258.65230399755166" x2="306.94129195137629" y2="251.10995620833569" />
    <line x1="326.68689486682763" y1="280.33579914729313" x2="300.07986727314619" y2="262.55755169066583" />
    <line x1="260.169325882624" y1="235.89018050572497" x2="246.86581208578326" y2="227.00105677741135" />
    <line x1="329.23392341874364" y1="303.72836428611072" x2="304.49758891113606" y2="283.42777919287408" />
    <line x1="305.79393923934" y1="305.79393923934" x2="249.22539674441617" y2="249.22539674441617" />
    <line x1="283.42777919287414" y1="304.497588911136" x2="273.2774866462558" y2="292.12942165733222" />
    <line x1="280.33579914729319" y1="326.68689486682763" x2="271.44667541897957" y2="313.38338106998691" />
    <line x1="262.55755169066589" y1="300.07986727314619" x2="253.66842796235227" y2="286.77635347630542" />
    <line x1="244.77930423403862" y1="273.4728396794647" x2="235.890180505725" y2="260.169325882624" />
    <line x1="258.65230399755166" y1="321.05203218094994" x2="251.10995620833569" y2="306.94129195137629" />
    <line x1="251.2908166373351" y1="342.21176146189617" x2="239.04494680165223" y2="312.64761642153496" />
    <line x1="226.79907696596933" y1="283.08347138117381" x2="208.43027221244503" y2="238.73725382063205" />
    <line x1="231.12327094267829" y1="332.4549310312957" x2="226.4787161066069" y2="317.14388565958041" />
    <line x1="216.65372894645154" y1="336.079362621291" x2="210.41083864193544" y2="304.69423364838764" />
    <line x1="207.28939348967737" y1="289.001669161936" x2="204.16794833741932" y2="273.30910467548426" />
    <line x1="187.00000000000003" y1="371" x2="187.00000000000003" y2="339" />
    <line x1="187.00000000000003" y1="307" x2="187" y2="275" />
    <line x1="187" y1="259" x2="187" y2="211" />
    <line x1="170.53312042463381" y1="354.19103408092906" x2="173.66966891517976" y2="322.34512282741878" />
    <line x1="157.34627105354849" y1="336.079362621291" x2="163.58916135806459" y2="304.69423364838764" />
    <line x1="169.83205166258071" y1="273.30910467548426" x2="172.95349681483876" y2="257.61654018903261" />
    <line x1="133.58761938517898" y1="363.0770217747264" x2="142.87672905732177" y2="332.45493103129576" />
    <line x1="128.83211828050636" y1="327.4296889417156" x2="141.07798811618923" y2="297.86554390135444" />
    <line x1="147.20092303403067" y1="283.08347138117381" x2="153.3238579518721" y2="268.30139886099323" />
    <line x1="165.56972778755497" y1="238.73725382063208" x2="171.6926627053964" y2="223.95518130045147" />
    <line x1="107.80534821323239" y1="335.16277241052364" x2="115.34769600244836" y2="321.05203218094994" />
    <line x1="84.775077124393235" y1="339.9904086636684" x2="93.66420085270687" y2="326.68689486682763" />
    <line x1="111.44244830933414" y1="300.07986727314619" x2="129.22069576596141" y2="273.47283967946476" />
    <line x1="138.10981949427503" y1="260.169325882624" x2="146.99894322258865" y2="246.86581208578326" />
    <line x1="80.4219282605076" y1="316.86575616493985" x2="100.72251335374425" y2="292.12942165733227" />
    <line x1="79.519769259644789" y1="294.48023074035524" x2="90.833477758629542" y2="283.1665222413705" />
    <line x1="124.77460325558383" y1="249.2253967444162" x2="136.08831175456857" y2="237.91168824543144" />
    <line x1="147.40202025355336" y1="226.59797974644667" x2="158.7157287525381" y2="215.2842712474619" />
    <line x1="57.134243835060232" y1="293.57807173949254" x2="69.502411088864022" y2="283.4277791928742" />
    <line x1="100.5271603205353" y1="244.77930423403862" x2="127.13418791421674" y2="227.00105677741135" />
    <line x1="24.726487359902706" y1="273.73699957598359" x2="52.947967819050064" y2="258.65230399755166" />
    <line x1="31.788238538103855" y1="251.29081663733518" x2="46.57031105828446" y2="245.16788171949372" />
    <line x1="61.352383578465037" y1="239.04494680165229" x2="76.134456098645614" y2="232.92201188381085" />
    <line x1="90.9165286188262" y1="226.79907696596939" x2="135.26274617936795" y2="208.43027221244506" />
    <line x1="10.922978225273567" y1="240.41238061482108" x2="26.234023596988919" y2="235.76782577874968" />
    <line x1="41.545068968704271" y1="231.12327094267829" x2="56.856114340419595" y2="226.4787161066069" />
    <line x1="100.69089532451574" y1="204.16794833741932" x2="116.38345981096742" y2="201.04650318516127" />
    <line x1="35.731921545826054" y1="201.89860533009318" x2="51.654877172581223" y2="200.33033108482022" />
    <line x1="3" y1="187.00000000000003" x2="35" y2="187.00000000000003" />
    <line x1="99" y1="187.00000000000003" x2="115" y2="187" />
    <line x1="3.886010292315774" y1="168.96484617936093" x2="19.808965919070914" y2="170.53312042463389" />
    <line x1="22.228072892257273" y1="154.22482590129044" x2="37.920637378708989" y2="157.34627105354849" />
    <line x1="84.998330838064035" y1="166.71060651032266" x2="100.69089532451572" y2="169.83205166258071" />
    <line x1="10.922978225273567" y1="133.58761938517898" x2="26.234023596988891" y2="138.23217422125038" />
    <line x1="41.545068968704243" y1="142.87672905732177" x2="56.856114340419595" y2="147.52128389339316" />
    <line x1="46.570311058284432" y1="128.83211828050634" x2="61.352383578465023" y2="134.95505319834777" />
    <line x1="120.48067365918736" y1="159.44679286971353" x2="135.26274617936795" y2="165.56972778755497" />
    <line x1="38.837227589476356" y1="107.80534821323241" x2="67.058708048623714" y2="122.89004379166433" />
    <line x1="100.52716032053527" y1="129.22069576596141" x2="113.830674117376" y2="138.10981949427503" />
    <line x1="44.766076581256414" y1="70.271635713889211" x2="69.502411088864" y2="90.572220807125873" />
    <line x1="90.833477758629513" y1="90.833477758629556" x2="102.14718625761428" y2="102.14718625761432" />
    <line x1="124.7746032555838" y1="124.77460325558383" x2="147.40202025355333" y2="147.40202025355336" />
    <line x1="93.664200852706841" y1="47.3131051331724" x2="102.55332458102046" y2="60.616618930013118" />
    <line x1="120.33157203764773" y1="87.223646523694569" x2="146.99894322258865" y2="127.13418791421674" />
    <line x1="107.80534821323235" y1="38.837227589476385" x2="115.34769600244832" y2="52.947967819050064" />
    <line x1="128.83211828050625" y1="46.57031105828446" x2="134.95505319834771" y2="61.352383578465037" />
    <line x1="141.07798811618915" y1="76.134456098645614" x2="147.20092303403061" y2="90.9165286188262" />
    <line x1="165.56972778755494" y1="135.26274617936795" x2="171.69266270539637" y2="150.04481869954856" />
    <line x1="157.34627105354844" y1="37.920637378708989" x2="163.58916135806456" y2="69.305766351612363" />
    <line x1="166.71060651032261" y1="84.998330838064049" x2="172.95349681483873" y2="116.38345981096742" />
    <line x1="170.53312042463384" y1="19.808965919070914" x2="172.1013946699068" y2="35.731921545826054" />
  </g>
  <path fill="none" stroke="#ff0000" stroke-width="2" stroke-linecap="square" stroke-linejoin="round" d="M 196.02845207624492,3.2216360582482935 L 194.85082789238689,27.192727007172408 A 160,160 0 0,1 240.90237654275521,36.352949570716675 L 246.29261419703073,21.288244527788351 A 176,176 0 0,1 262.24969644372965,27.897884410273974 L 248.56793345396062,56.82554179022415 A 144,144 0 0,1 261.03079516382394,63.487080159960811 L 252.80515125673236,77.210737919965169 A 128,128 0 0,0 247.33878231372771,74.114078163410554 L 224.71173894607981,116.44629885213159 A 80,80 0 0,0 210.222774180357,110.4447731414233 L 205.5782193442856,125.75581851313864 A 64,64 0 0,1 240.2140551873629,151.44350508674546 L 213.60702759368144,169.22175254337273 A 32,32 0 1,0 174.75413016431713,216.56414504036118 L 177.81559762323786,209.17310878027089" />
  <type>Circular</type>
</svg>