<?xml version="1.0" encoding="utf-8" standalone="no"?>
<!DOCTYPE svg PUBLIC "-//W3C//DTD SVG 1.1//EN" "http://www.w3.org/Graphics/SVG/1.1/DTD/svg11.dtd"[]>
<svg width="372" height="372" version="1.1" xmlns="http://www.w3.org/2000/svg">
  <title>23 cells diameter theta maze</title>
  <g fill="none" stroke="#000000" stroke-width="2" stroke-linecap="square">
    <path d="M 170.02943725152286,203.97056274847714 A 24,24 0 1,1 187,211" />
    <path d="M 171.69266270539637,150.04481869954856 A 40,40 0 0,1 202.3073372946036,150.04481869954853" />
    <path d="M 215.2842712474619,158.7157287525381 A 40,40 0 0,1 223.95518130045147,171.6926627053964" />
    <path d="M 227,187 A 40,40 0 0,1 223.95518130045147,202.3073372946036" />
    <path d="M 202.3073372946036,223.95518130045147 A 40,40 0 0,1 158.7157287525381,158.7157287525381" />
    <path d="M 147.40202025355333,147.40202025355336 A 56,56 0 0,1 187,131" />
    <path d="M 208.43027221244503,135.26274617936795 A 56,56 0 0,1 226.59797974644667,147.40202025355333" />
    <path d="M 238.73725382063208,208.43027221244503 A 56,56 0 0,1 135.26274617936795,165.56972778755497" />
    <path d="M 120.48067365918736,159.44679286971353 A 72,72 0 0,1 187,115" />
    <path d="M 201.04650318516124,116.38345981096741 A 72,72 0 0,1 253.51932634081265,159.44679286971353" />
    <path d="M 257.61654018903261,172.95349681483876 A 72,72 0 0,1 246.86581208578326,227.00105677741135" />
    <path d="M 237.91168824543144,237.91168824543141 A 72,72 0 0,1 201.04650318516127,257.61654018903261" />
    <path d="M 187,259 A 72,72 0 0,1 159.44679286971353,253.51932634081265" />
    <path d="M 146.99894322258865,246.86581208578326 A 72,72 0 0,1 136.08831175456859,237.91168824543144" />
    <path d="M 127.13418791421674,227.00105677741135 A 72,72 0 0,1 116.38345981096741,172.95349681483876" />
    <path d="M 187,99 A 88,88 0 0,1 235.890180505725,113.83067411737602" />
    <path d="M 249.22539674441617,124.77460325558381 A 88,88 0 0,1 273.30910467548426,169.83205166258071" />
    <path d="M 275,187 A 88,88 0 0,1 273.30910467548426,204.16794833741929" />
    <path d="M 260.169325882624,235.89018050572497 A 88,88 0 0,1 235.89018050572497,260.169325882624" />
    <path d="M 220.6761420481279,268.30139886099323 A 88,88 0 0,1 187,275" />
    <path d="M 153.32385795187213,268.30139886099323 A 88,88 0 0,1 138.10981949427503,260.169325882624" />
    <path d="M 124.77460325558383,249.2253967444162 A 88,88 0 0,1 113.83067411737602,235.890180505725" />
    <path d="M 100.69089532451572,204.16794833741932 A 88,88 0 0,1 100.69089532451572,169.83205166258071" />
    <path d="M 105.69860113900677,153.32385795187207 A 88,88 0 0,1 113.83067411737599,138.10981949427503" />
    <path d="M 124.7746032555838,124.77460325558383 A 88,88 0 0,1 169.83205166258068,100.69089532451572" />
    <path d="M 244.77930423403862,100.52716032053529 A 104,104 0 0,1 283.08347138117381,147.20092303403067" />
    <path d="M 289.001669161936,166.71060651032266 A 104,104 0 0,1 291,187" />
    <path d="M 289.001669161936,207.28939348967734 A 104,104 0 0,1 283.08347138117381,226.79907696596933" />
    <path d="M 260.53910524340097,260.53910524340097 A 104,104 0 0,1 226.79907696596933,283.08347138117381" />
    <path d="M 166.71060651032266,289.001669161936 A 104,104 0 0,1 129.22069576596141,273.47283967946476" />
    <path d="M 84.998330838064035,166.71060651032266 A 104,104 0 0,1 90.916528618826192,147.20092303403064" />
    <path d="M 100.52716032053527,129.22069576596141 A 104,104 0 0,1 166.71060651032261,84.998330838064049" />
    <path d="M 210.41083864193539,69.305766351612348 A 120,120 0 0,1 232.92201188381077,76.134456098645586" />
    <path d="M 253.66842796235227,87.223646523694569 A 120,120 0 0,1 271.85281374238571,102.14718625761429" />
    <path d="M 304.69423364838764,163.58916135806459 A 120,120 0 0,1 304.69423364838764,210.41083864193539" />
    <path d="M 286.77635347630542,253.66842796235224 A 120,120 0 0,1 271.85281374238571,271.85281374238571" />
    <path d="M 232.9220118838108,297.86554390135439 A 120,120 0 0,1 210.41083864193544,304.69423364838764" />
    <path d="M 187.00000000000003,307 A 120,120 0 0,1 141.07798811618926,297.86554390135439" />
    <path d="M 120.33157203764777,286.77635347630547 A 120,120 0 0,1 102.14718625761431,271.85281374238571" />
    <path d="M 87.223646523694569,253.66842796235227 A 120,120 0 0,1 76.134456098645614,232.92201188381085" />
    <path d="M 69.305766351612348,163.58916135806462 A 120,120 0 0,1 76.1344560986456,141.0779881161892" />
    <path d="M 87.223646523694541,120.33157203764777 A 120,120 0 0,1 102.14718625761428,102.14718625761432" />
    <path d="M 120.33157203764773,87.223646523694569 A 120,120 0 0,1 141.07798811618915,76.134456098645614" />
    <path d="M 147.5212838933931,56.856114340419595 A 136,136 0 0,1 226.4787161066069,56.856114340419595" />
    <path d="M 239.0449468016522,61.352383578464995 A 136,136 0 0,1 292.12942165733222,100.72251335374421" />
    <path d="M 300.07986727314614,111.4424483093341 A 136,136 0 0,1 306.94129195137629,122.8900437916643" />
    <path d="M 312.64761642153496,134.9550531983478 A 136,136 0 0,1 317.14388565958041,147.52128389339313" />
    <path d="M 320.38679813483935,160.46771620580654 A 136,136 0 0,1 322.34512282741878,200.33033108482024" />
    <path d="M 320.38679813483935,213.53228379419343 A 136,136 0 0,1 317.14388565958041,226.47871610660687" />
    <path d="M 312.647616421535,239.0449468016522 A 136,136 0 0,1 300.07986727314619,262.55755169066589" />
    <path d="M 292.12942165733227,273.27748664625574 A 136,136 0 0,1 283.16652224137044,283.16652224137044" />
    <path d="M 273.2774866462558,292.12942165733222 A 136,136 0 0,1 239.04494680165223,312.64761642153496" />
    <path d="M 226.4787161066069,317.14388565958041 A 136,136 0 0,1 213.53228379419349,320.3867981348393" />
    <path d="M 187.00000000000003,323 A 136,136 0 0,1 173.66966891517976,322.34512282741878" />
    <path d="M 134.9550531983478,312.647616421535 A 136,136 0 0,1 111.44244830933414,300.07986727314619" />
    <path d="M 100.72251335374423,292.12942165733227 A 136,136 0 0,1 81.870578342667812,273.27748664625585" />
    <path d="M 67.058708048623728,251.10995620833572 A 136,136 0 0,1 51.654877172581223,200.33033108482022" />
    <path d="M 56.856114340419595,147.52128389339316 A 136,136 0 0,1 67.058708048623714,122.89004379166433" />
    <path d="M 73.920132726853822,111.44244830933414 A 136,136 0 0,1 90.833477758629513,90.833477758629556" />
    <path d="M 100.72251335374415,81.870578342667827 A 136,136 0 0,1 134.95505319834771,61.352383578465037" />
    <path d="M 187,35 A 152,152 0 0,1 258.65230399755166,52.947967819050035" />
    <path d="M 271.44667541897957,60.616618930013118 A 152,152 0 0,1 294.48023074035524,79.519769259644775" />
    <path d="M 313.38338106998685,102.55332458102046 A 152,152 0 0,1 321.05203218094994,115.34769600244833" />
    <path d="M 332.45493103129576,142.87672905732174 A 152,152 0 0,1 338.26807845417392,172.10139466990677" />
    <path d="M 304.49758891113606,283.42777919287408 A 152,152 0 0,1 283.42777919287414,304.497588911136" />
    <path d="M 271.44667541897951,313.38338106998685 A 152,152 0 0,1 258.65230399755166,321.05203218094994" />
    <path d="M 245.16788171949366,327.42968894171554 A 152,152 0 0,1 231.12327094267829,332.45493103129576" />
    <path d="M 216.65372894645154,336.079362621291 A 152,152 0 0,1 142.87672905732177,332.45493103129576" />
    <path d="M 128.83211828050636,327.4296889417156 A 152,152 0 0,1 115.34769600244836,321.05203218094994" />
    <path d="M 90.572220807125916,304.49758891113606 A 152,152 0 0,1 79.519769259644789,294.48023074035524" />
    <path d="M 60.616618930013118,271.44667541897951 A 152,152 0 0,1 52.947967819050064,258.65230399755171" />
    <path d="M 46.57031105828446,245.16788171949372 A 152,152 0 0,1 37.920637378708989,216.65372894645157" />
    <path d="M 35.731921545826054,172.10139466990688 A 152,152 0 0,1 37.92063737870896,157.34627105354849" />
    <path d="M 46.570311058284432,128.83211828050634 A 152,152 0 0,1 60.61661893001309,102.55332458102052" />
    <path d="M 69.502411088864,90.572220807125873 A 152,152 0 0,1 90.572220807125817,69.502411088864037" />
    <path d="M 115.34769600244832,52.947967819050064 A 152,152 0 0,1 128.83211828050625,46.57031105828446" />
    <path d="M 170.53312042463384,19.808965919070914 A 168,168 0 0,1 187,19" />
    <path d="M 219.77517409870956,22.228072892257273 A 168,168 0 0,1 293.57807173949243,57.134243835060175" />
    <path d="M 305.79393923934,68.206060760660009 A 168,168 0 0,1 335.16277241052364,107.80534821323238" />
    <path d="M 354.19103408092906,170.53312042463378 A 168,168 0 0,1 355,187" />
    <path d="M 354.19103408092906,203.46687957536619 A 168,168 0 0,1 351.77192710774273,219.77517409870953" />
    <path d="M 342.21176146189617,251.29081663733507 A 168,168 0 0,1 335.16277241052364,266.19465178676762" />
    <path d="M 305.79393923934,305.79393923934 A 168,168 0 0,1 280.33579914729319,326.68689486682763" />
    <path d="M 266.19465178676762,335.16277241052364 A 168,168 0 0,1 251.2908166373351,342.21176146189617" />
    <path d="M 187.00000000000003,355 A 168,168 0 0,1 154.22482590129044,351.77192710774273" />
    <path d="M 107.80534821323241,335.16277241052364 A 168,168 0 0,1 80.421928260507585,316.86575616493985" />
    <path d="M 68.206060760660037,305.79393923934003 A 168,168 0 0,1 57.134243835060232,293.57807173949249" />
    <path d="M 38.837227589476385,266.19465178676762 A 168,168 0 0,1 26.234023596988919,235.76782577874968" />
    <path d="M 19.808965919070914,203.46687957536616 A 168,168 0 0,1 19.808965919070914,170.53312042463392" />
    <path d="M 22.228072892257273,154.22482590129044 A 168,168 0 0,1 68.20606076066,68.206060760660037" />
    <path d="M 122.70918336266482,31.788238538103855 A 168,168 0 0,1 154.22482590129039,22.228072892257302" />
    <path d="M 205.03515382063915,3.886010292315774 A 184,184 0 1,1 187,3" />
  </g>
  <g fill="none" stroke="#000000" stroke-width="2" stroke-linecap="butt">
    <line x1="187" y1="67" x2="187" y2="115" />
    <line x1="187" y1="147" x2="187" y2="163" />
    <line x1="203.46687957536619" y1="19.808965919070914" x2="201.8986053300932" y2="35.731921545826054" />
    <line x1="213.53228379419343" y1="53.613201865160647" x2="207.28939348967734" y2="84.998330838064035" />
    <line x1="245.16788171949366" y1="46.5703110582844" x2="239.0449468016522" y2="61.352383578465009" />
    <line x1="232.92201188381077" y1="76.134456098645586" x2="220.6761420481279" y2="105.69860113900677" />
    <line x1="273.73699957598353" y1="24.726487359902677" x2="266.19465178676762" y2="38.837227589476356" />
    <line x1="262.55755169066589" y1="73.920132726853851" x2="244.77930423403862" y2="100.5271603205353" />
    <line x1="235.890180505725" y1="113.83067411737602" x2="227.00105677741135" y2="127.13418791421674" />
    <line x1="305.79393923934" y1="68.206060760660009" x2="294.48023074035518" y2="79.519769259644775" />
    <line x1="226.59797974644664" y1="147.40202025355333" x2="215.2842712474619" y2="158.7157287525381" />
    <line x1="304.497588911136" y1="90.572220807125888" x2="292.12942165733222" y2="100.72251335374422" />
    <line x1="326.68689486682763" y1="93.664200852706813" x2="313.38338106998685" y2="102.55332458102045" />
    <line x1="300.07986727314614" y1="111.44244830933408" x2="286.77635347630542" y2="120.33157203764773" />
    <line x1="273.4728396794647" y1="129.22069576596135" x2="260.169325882624" y2="138.109819494275" />
    <line x1="349.27351264009729" y1="100.2630004240164" x2="335.16277241052364" y2="107.80534821323236" />
    <line x1="321.05203218094994" y1="115.34769600244833" x2="306.94129195137629" y2="122.8900437916643" />
    <line x1="342.21176146189617" y1="122.7091833626649" x2="283.08347138117381" y2="147.20092303403067" />
    <line x1="253.51932634081265" y1="159.44679286971353" x2="223.95518130045147" y2="171.6926627053964" />
    <line x1="363.0770217747264" y1="133.58761938517893" x2="347.76597640301111" y2="138.23217422125032" />
    <line x1="367.46449159419438" y1="151.1033807490324" x2="336.079362621291" y2="157.34627105354849" />
    <line x1="289.001669161936" y1="166.71060651032266" x2="257.61654018903261" y2="172.95349681483876" />
    <line x1="370.11398970768425" y1="168.96484617936082" x2="354.19103408092906" y2="170.53312042463378" />
    <line x1="338.26807845417392" y1="172.10139466990677" x2="322.34512282741878" y2="173.66966891517973" />
    <line x1="339" y1="187" x2="307" y2="187" />
    <line x1="259" y1="187" x2="227" y2="187" />
    <line x1="370.11398970768425" y1="205.03515382063915" x2="338.268078454174" y2="201.89860533009323" />
    <line x1="336.079362621291" y1="216.65372894645148" x2="273.30910467548426" y2="204.16794833741929" />
    <line x1="363.0770217747264" y1="240.41238061482105" x2="332.45493103129576" y2="231.12327094267823" />
    <line x1="342.21176146189617" y1="251.29081663733507" x2="283.08347138117381" y2="226.79907696596933" />
    <line x1="268.30139886099323" y1="220.6761420481279" x2="238.73725382063205" y2="208.43027221244503" />
    <line x1="335.16277241052364" y1="266.19465178676762" x2="321.05203218094994" y2="258.65230399755166" />
    <line x1="326.68689486682763" y1="280.33579914729313" x2="300.07986727314619" y2="262.55755169066583" />
    <line x1="286.77635347630547" y1="253.66842796235224" x2="273.47283967946476" y2="244.77930423403859" />
    <line x1="260.169325882624" y1="235.89018050572497" x2="246.86581208578326" y2="227.00105677741135" />
    <line x1="329.23392341874364" y1="303.72836428611072" x2="292.12942165733227" y2="273.27748664625574" />
    <line x1="283.16652224137044" y1="283.16652224137044" x2="271.85281374238571" y2="271.85281374238571" />
    <line x1="226.59797974644667" y1="226.59797974644664" x2="203.97056274847714" y2="203.97056274847714" />
    <line x1="293.57807173949243" y1="316.86575616493985" x2="283.42777919287414" y2="304.497588911136" />
    <line x1="262.55755169066589" y1="300.07986727314619" x2="244.77930423403862" y2="273.4728396794647" />
    <line x1="266.19465178676762" y1="335.16277241052364" x2="258.65230399755166" y2="321.05203218094994" />
    <line x1="257.41375155517653" y1="356.99383398207675" x2="245.16788171949366" y2="327.4296889417156" />
    <line x1="226.79907696596933" y1="283.08347138117381" x2="214.55320713028647" y2="253.51932634081265" />
    <line x1="235.76782577874968" y1="347.76597640301111" x2="226.4787161066069" y2="317.14388565958041" />
    <line x1="222.89661925096766" y1="367.46449159419438" x2="219.77517409870961" y2="351.77192710774273" />
    <line x1="213.53228379419349" y1="320.38679813483935" x2="207.28939348967737" y2="289.001669161936" />
    <line x1="205.03515382063918" y1="370.11398970768425" x2="203.46687957536622" y2="354.19103408092906" />
    <line x1="201.89860533009323" y1="338.26807845417392" x2="200.33033108482027" y2="322.34512282741878" />
    <line x1="187.00000000000003" y1="371" x2="187.00000000000003" y2="355" />
    <line x1="187.00000000000003" y1="323" x2="187" y2="275" />
    <line x1="157.34627105354849" y1="336.079362621291" x2="160.46771620580654" y2="320.38679813483935" />
    <line x1="166.71060651032266" y1="289.001669161936" x2="172.95349681483876" y2="257.61654018903261" />
    <line x1="133.58761938517898" y1="363.0770217747264" x2="147.52128389339316" y2="317.14388565958041" />
    <line x1="122.70918336266493" y1="342.21176146189623" x2="141.07798811618923" y2="297.86554390135444" />
    <line x1="147.20092303403067" y1="283.08347138117381" x2="153.3238579518721" y2="268.30139886099323" />
    <line x1="159.44679286971353" y1="253.51932634081265" x2="165.56972778755497" y2="238.73725382063208" />
    <line x1="100.26300042401644" y1="349.27351264009735" x2="107.80534821323239" y2="335.16277241052364" />
    <line x1="93.66420085270687" y1="326.68689486682763" x2="111.44244830933414" y2="300.07986727314619" />
    <line x1="80.4219282605076" y1="316.86575616493985" x2="100.72251335374425" y2="292.12942165733227" />
    <line x1="90.833477758629542" y1="283.1665222413705" x2="102.14718625761431" y2="271.85281374238571" />
    <line x1="113.46089475659906" y1="260.53910524340097" x2="147.40202025355336" y2="226.59797974644667" />
    <line x1="158.7157287525381" y1="215.2842712474619" x2="170.02943725152286" y2="203.97056274847714" />
    <line x1="57.134243835060232" y1="293.57807173949254" x2="81.870578342667812" y2="273.27748664625585" />
    <line x1="47.3131051331724" y1="280.33579914729319" x2="100.5271603205353" y2="244.77930423403862" />
    <line x1="52.947967819050064" y1="258.65230399755166" x2="67.058708048623728" y2="251.10995620833569" />
    <line x1="76.134456098645614" y1="232.92201188381085" x2="120.48067365918737" y2="214.5532071302865" />
    <line x1="26.234023596988919" y1="235.76782577874968" x2="56.856114340419595" y2="226.4787161066069" />
    <line x1="22.228072892257302" y1="219.77517409870961" x2="37.920637378708989" y2="216.65372894645157" />
    <line x1="53.613201865160676" y1="213.53228379419349" x2="84.998330838064049" y2="207.28939348967737" />
    <line x1="3.886010292315774" y1="205.03515382063912" x2="51.654877172581223" y2="200.33033108482022" />
    <line x1="19" y1="187.00000000000003" x2="99" y2="187.00000000000003" />
    <line x1="115" y1="187" x2="131" y2="187" />
    <line x1="19.808965919070914" y1="170.53312042463389" x2="51.654877172581223" y2="173.66966891517984" />
    <line x1="37.920637378708989" y1="157.34627105354849" x2="53.613201865160647" y2="160.46771620580654" />
    <line x1="69.305766351612348" y1="163.58916135806462" x2="84.998330838064035" y2="166.71060651032266" />
    <line x1="41.545068968704243" y1="142.87672905732177" x2="56.856114340419595" y2="147.52128389339316" />
    <line x1="61.352383578465023" y1="134.95505319834777" x2="76.1344560986456" y2="141.0779881161892" />
    <line x1="90.916528618826192" y1="147.20092303403064" x2="105.69860113900678" y2="153.32385795187207" />
    <line x1="120.48067365918736" y1="159.44679286971353" x2="135.26274617936795" y2="165.56972778755497" />
    <line x1="60.61661893001309" y1="102.55332458102052" x2="73.920132726853822" y2="111.44244830933415" />
    <line x1="87.223646523694541" y1="120.33157203764777" x2="113.830674117376" y2="138.10981949427503" />
    <line x1="44.766076581256414" y1="70.271635713889211" x2="57.134243835060204" y2="80.421928260507542" />
    <line x1="90.833477758629513" y1="90.833477758629556" x2="102.14718625761428" y2="102.14718625761432" />
    <line x1="147.40202025355333" y1="147.40202025355336" x2="158.7157287525381" y2="158.7157287525381" />
    <line x1="80.421928260507485" y1="57.134243835060232" x2="100.72251335374415" y2="81.870578342667812" />
    <line x1="93.664200852706841" y1="47.3131051331724" x2="129.22069576596138" y2="100.5271603205353" />
    <line x1="100.26300042401638" y1="24.726487359902706" x2="115.34769600244832" y2="52.947967819050064" />
    <line x1="128.83211828050625" y1="46.57031105828446" x2="134.95505319834771" y2="61.352383578465037" />
    <line x1="147.20092303403061" y1="90.9165286188262" x2="153.32385795187204" y2="105.69860113900678" />
    <line x1="138.23217422125032" y1="26.234023596988919" x2="142.87672905732171" y2="41.545068968704271" />
    <line x1="151.10338074903231" y1="6.535508405805615" x2="157.34627105354844" y2="37.920637378708989" />
    <line x1="163.58916135806456" y1="69.305766351612363" x2="166.71060651032261" y2="84.998330838064049" />
    <line x1="170.53312042463384" y1="19.808965919070914" x2="173.66966891517978" y2="51.654877172581223" />
  </g>
  <path fill="none" stroke="#ff0000" stroke-width="2" stroke-linecap="square" stroke-linejoin="round" d="M 196.02845207624492,3.2216360582482935 L 194.85082789238689,27.192727007172408 A 160,160 0 0,0 179.14917210761311,27.192727007172408 L 179.9342548968518,43.17345430645517 A 144,144 0 0,1 235.51213888847968,51.417654613645 L 230.12190123420416,66.482359656573337 A 128,128 0 0,1 247.33878231372771,74.114078163410554 L 232.25408673529577,102.33555862255791 A 96,96 0 0,1 247.90175527970996,112.79099647717725 L 237.75146273309164,125.15916373098105 A 80,80 0 0,1 263.5552268585767,163.777225819643 L 248.24418148686138,168.4217806557144 A 64,64 0 0,1 249.77025794580675,174.51421939096778 L 218.38512897290337,180.75710969548391 A 32,32 0 0,0 204.77824745662727,160.39297240631856 L 213.66737118494092,147.08945860947785 A 48,48 0 0,0 196.36433545677414,139.92230654064494 L 199.48578060903222,124.22974205419325 A 64,64 0 0,0 133.7859448126371,151.44350508674549 L 147.08945860947782,160.33262881505911 A 48,48 0 0,0 213.66737118494089,226.91054139052218 L 204.77824745662727,213.60702759368144 A 32,32 0 0,1 174.75413016431713,216.56414504036118 L 177.81559762323786,209.17310878027089" />
  <type>Circular</type>
</svg>