<?xml version="1.0" encoding="utf-8" standalone="no"?>
<!DOCTYPE svg PUBLIC "-//W3C//DTD SVG 1.1//EN" "http://www.w3.org/Graphics/SVG/1.1/DTD/svg11.dtd"[]>
<svg width="372" height="372" version="1.1" xmlns="http://www.w3.org/2000/svg">
  <title>23 cells diameter theta maze</title>
  <g fill="none" stroke="#000000" stroke-width="2" stroke-linecap="square">
    <path d="M 170.02943725152286,203.97056274847714 A 24,24 0 1,1 187,211" />
    <path d="M 171.69266270539637,150.04481869954856 A 40,40 0 0,1 215.2842712474619,158.7157287525381" />
    <path d="M 223.95518130045147,171.6926627053964 A 40,40 0 0,1 223.95518130045147,202.3073372946036" />
    <path d="M 215.2842712474619,215.2842712474619 A 40,40 0 0,1 202.3073372946036,223.95518130045147" />
    <path d="M 171.6926627053964,223.95518130045147 A 40,40 0 0,1 158.7157287525381,215.2842712474619" />
    <path d="M 150.04481869954853,171.6926627053964 A 40,40 0 0,1 158.7157287525381,158.7157287525381" />
    <path d="M 165.56972778755494,135.26274617936795 A 56,56 0 0,1 238.73725382063205,165.56972778755497" />
    <path d="M 243,187 A 56,56 0 0,1 226.59797974644667,226.59797974644664" />
    <path d="M 208.43027221244503,238.73725382063205 A 56,56 0 0,1 165.569727787555,238.73725382063208" />
    <path d="M 147.40202025355336,226.59797974644667 A 56,56 0 0,1 131,187" />
    <path d="M 136.08831175456857,136.08831175456859 A 72,72 0 0,1 237.91168824543144,136.08831175456857" />
    <path d="M 246.86581208578326,146.99894322258865 A 72,72 0 0,1 257.61654018903261,172.95349681483876" />
    <path d="M 259,187 A 72,72 0 0,1 214.55320713028647,253.51932634081265" />
    <path d="M 187,259 A 72,72 0 0,1 172.95349681483876,257.61654018903261" />
    <path d="M 146.99894322258865,246.86581208578326 A 72,72 0 0,1 136.08831175456859,237.91168824543144" />
    <path d="M 127.13418791421674,227.00105677741135 A 72,72 0 0,1 120.48067365918737,214.5532071302865" />
    <path d="M 116.38345981096741,201.04650318516127 A 72,72 0 0,1 127.13418791421672,146.99894322258865" />
    <path d="M 204.16794833741929,100.69089532451572 A 88,88 0 0,1 249.22539674441617,124.77460325558381" />
    <path d="M 268.30139886099323,153.3238579518721 A 88,88 0 0,1 275,187" />
    <path d="M 260.169325882624,235.89018050572497 A 88,88 0 0,1 249.22539674441617,249.22539674441617" />
    <path d="M 220.6761420481279,268.30139886099323 A 88,88 0 0,1 169.83205166258071,273.30910467548426" />
    <path d="M 153.32385795187213,268.30139886099323 A 88,88 0 0,1 138.10981949427503,260.169325882624" />
    <path d="M 113.83067411737602,235.890180505725 A 88,88 0 0,1 124.7746032555838,124.77460325558383" />
    <path d="M 153.32385795187204,105.69860113900678 A 88,88 0 0,1 169.83205166258068,100.69089532451572" />
    <path d="M 166.71060651032261,84.998330838064049 A 104,104 0 0,1 207.28939348967734,84.998330838064035" />
    <path d="M 226.79907696596933,90.916528618826177 A 104,104 0 0,1 273.4728396794647,129.22069576596135" />
    <path d="M 291,187 A 104,104 0 0,1 289.001669161936,207.28939348967734" />
    <path d="M 283.08347138117381,226.79907696596933 A 104,104 0 0,1 244.77930423403862,273.4728396794647" />
    <path d="M 226.79907696596933,283.08347138117381 A 104,104 0 0,1 129.22069576596141,273.47283967946476" />
    <path d="M 100.52716032053529,244.77930423403862 A 104,104 0 0,1 83,187.00000000000003" />
    <path d="M 84.998330838064035,166.71060651032266 A 104,104 0 0,1 90.916528618826192,147.20092303403064" />
    <path d="M 100.52716032053527,129.22069576596141 A 104,104 0 0,1 147.20092303403061,90.9165286188262" />
    <path d="M 141.07798811618915,76.134456098645614 A 120,120 0 0,1 187,67" />
    <path d="M 210.41083864193539,69.305766351612348 A 120,120 0 0,1 271.85281374238571,102.14718625761429" />
    <path d="M 286.77635347630542,120.33157203764773 A 120,120 0 0,1 297.86554390135439,141.07798811618923" />
    <path d="M 304.69423364838764,163.58916135806459 A 120,120 0 0,1 307,187" />
    <path d="M 304.69423364838764,210.41083864193539 A 120,120 0 0,1 297.86554390135439,232.92201188381077" />
    <path d="M 271.85281374238571,271.85281374238571 A 120,120 0 0,1 210.41083864193544,304.69423364838764" />
    <path d="M 187.00000000000003,307 A 120,120 0 0,1 163.58916135806459,304.69423364838764" />
    <path d="M 120.33157203764777,286.77635347630547 A 120,120 0 0,1 102.14718625761431,271.85281374238571" />
    <path d="M 76.134456098645614,232.92201188381085 A 120,120 0 0,1 69.305766351612348,163.58916135806462" />
    <path d="M 76.1344560986456,141.0779881161892 A 120,120 0 0,1 87.223646523694541,120.33157203764777" />
    <path d="M 102.14718625761428,102.14718625761432 A 120,120 0 0,1 120.33157203764773,87.223646523694569" />
    <path d="M 173.66966891517978,51.654877172581223 A 136,136 0 0,1 200.33033108482024,51.654877172581223" />
    <path d="M 213.53228379419343,53.613201865160647 A 136,136 0 0,1 226.4787161066069,56.856114340419595" />
    <path d="M 251.10995620833569,67.058708048623714 A 136,136 0 0,1 262.55755169066589,73.920132726853851" />
    <path d="M 273.2774866462558,81.87057834266777 A 136,136 0 0,1 292.12942165733222,100.72251335374421" />
    <path d="M 300.07986727314614,111.4424483093341 A 136,136 0 0,1 320.38679813483935,213.53228379419343" />
    <path d="M 306.94129195137629,251.10995620833569 A 136,136 0 0,1 300.07986727314619,262.55755169066589" />
    <path d="M 292.12942165733227,273.27748664625574 A 136,136 0 0,1 283.16652224137044,283.16652224137044" />
    <path d="M 273.2774866462558,292.12942165733222 A 136,136 0 0,1 262.55755169066589,300.07986727314619" />
    <path d="M 251.10995620833569,306.94129195137629 A 136,136 0 0,1 173.66966891517976,322.34512282741878" />
    <path d="M 160.46771620580654,320.38679813483935 A 136,136 0 0,1 100.72251335374423,292.12942165733227" />
    <path d="M 90.833477758629556,283.16652224137044 A 136,136 0 0,1 73.920132726853836,262.55755169066589" />
    <path d="M 67.058708048623728,251.10995620833572 A 136,136 0 0,1 61.352383578465037,239.04494680165229" />
    <path d="M 53.613201865160676,213.53228379419349 A 136,136 0 0,1 51.654877172581223,200.33033108482022" />
    <path d="M 51,187.00000000000003 A 136,136 0 0,1 51.654877172581223,173.66966891517984" />
    <path d="M 53.613201865160647,160.46771620580654 A 136,136 0 0,1 67.058708048623714,122.89004379166433" />
    <path d="M 73.920132726853822,111.44244830933414 A 136,136 0 0,1 160.46771620580648,53.613201865160676" />
    <path d="M 201.8986053300932,35.731921545826083 A 152,152 0 0,1 216.65372894645151,37.92063737870896" />
    <path d="M 231.12327094267829,41.545068968704243 A 152,152 0 0,1 283.42777919287414,69.50241108886398" />
    <path d="M 294.48023074035524,79.519769259644775 A 152,152 0 0,1 304.497588911136,90.572220807125873" />
    <path d="M 313.38338106998685,102.55332458102046 A 152,152 0 0,1 327.4296889417156,128.83211828050634" />
    <path d="M 332.45493103129576,142.87672905732174 A 152,152 0 0,1 336.079362621291,157.34627105354849" />
    <path d="M 338.26807845417392,172.10139466990677 A 152,152 0 0,1 339,187" />
    <path d="M 327.4296889417156,245.16788171949364 A 152,152 0 0,1 321.05203218094994,258.65230399755166" />
    <path d="M 313.38338106998691,271.44667541897951 A 152,152 0 0,1 304.49758891113606,283.42777919287408" />
    <path d="M 294.48023074035524,294.48023074035518 A 152,152 0 0,1 283.42777919287414,304.497588911136" />
    <path d="M 271.44667541897951,313.38338106998685 A 152,152 0 0,1 258.65230399755166,321.05203218094994" />
    <path d="M 231.12327094267829,332.45493103129576 A 152,152 0 0,1 201.89860533009323,338.26807845417392" />
    <path d="M 172.1013946699068,338.26807845417392 A 152,152 0 0,1 157.34627105354849,336.079362621291" />
    <path d="M 142.87672905732177,332.45493103129576 A 152,152 0 0,1 128.83211828050636,327.4296889417156" />
    <path d="M 102.55332458102051,313.38338106998691 A 152,152 0 0,1 79.519769259644789,294.48023074035524" />
    <path d="M 60.616618930013118,271.44667541897951 A 152,152 0 0,1 46.57031105828446,245.16788171949372" />
    <path d="M 41.545068968704243,231.12327094267829 A 152,152 0 0,1 37.920637378708989,216.65372894645157" />
    <path d="M 35.731921545826083,201.89860533009318 A 152,152 0 0,1 35,187.00000000000003" />
    <path d="M 35.731921545826054,172.10139466990688 A 152,152 0 0,1 41.545068968704243,142.87672905732177" />
    <path d="M 52.947967819050035,115.34769600244837 A 152,152 0 0,1 90.572220807125817,69.502411088864037" />
    <path d="M 102.55332458102046,60.616618930013118 A 152,152 0 0,1 128.83211828050625,46.57031105828446" />
    <path d="M 157.34627105354844,37.920637378708989 A 152,152 0 0,1 172.1013946699068,35.731921545826083" />
    <path d="M 219.77517409870956,22.228072892257273 A 168,168 0 0,1 251.29081663733507,31.788238538103826" />
    <path d="M 266.19465178676762,38.837227589476356 A 168,168 0 0,1 316.8657561649398,80.421928260507556" />
    <path d="M 347.76597640301111,138.23217422125032 A 168,168 0 0,1 351.77192710774273,154.22482590129044" />
    <path d="M 354.19103408092906,170.53312042463378 A 168,168 0 0,1 355,187" />
    <path d="M 354.19103408092906,203.46687957536619 A 168,168 0 0,1 351.77192710774273,219.77517409870953" />
    <path d="M 347.76597640301111,235.76782577874965 A 168,168 0 0,1 335.16277241052364,266.19465178676762" />
    <path d="M 316.86575616493985,293.57807173949243 A 168,168 0 0,1 305.79393923934,305.79393923934" />
    <path d="M 293.57807173949243,316.86575616493985 A 168,168 0 0,1 280.33579914729319,326.68689486682763" />
    <path d="M 251.2908166373351,342.21176146189617 A 168,168 0 0,1 235.76782577874968,347.76597640301111" />
    <path d="M 203.46687957536622,354.19103408092906 A 168,168 0 0,1 187.00000000000003,355" />
    <path d="M 154.22482590129044,351.77192710774273 A 168,168 0 0,1 122.70918336266495,342.21176146189617" />
    <path d="M 107.80534821323241,335.16277241052364 A 168,168 0 0,1 80.421928260507585,316.86575616493985" />
    <path d="M 31.788238538103855,251.29081663733518 A 168,168 0 0,1 22.228072892257302,219.77517409870961" />
    <path d="M 22.228072892257273,154.22482590129044 A 168,168 0 0,1 57.134243835060204,80.421928260507542" />
    <path d="M 80.421928260507485,57.134243835060261 A 168,168 0 0,1 93.664200852706827,47.3131051331724" />
    <path d="M 107.80534821323235,38.837227589476385 A 168,168 0 0,1 170.53312042463384,19.808965919070914" />
    <path d="M 205.03515382063915,3.886010292315774 A 184,184 0 1,1 187,3" />
  </g>
  <g fill="none" stroke="#000000" stroke-width="2" stroke-linecap="butt">
    <line x1="187" y1="3" x2="187" y2="35" />
    <line x1="187" y1="51" x2="187" y2="67" />
    <line x1="187" y1="83" x2="187" y2="99" />
    <line x1="187" y1="147" x2="187" y2="163" />
    <line x1="203.46687957536619" y1="19.808965919070914" x2="201.8986053300932" y2="35.731921545826054" />
    <line x1="219.77517409870956" y1="22.228072892257273" x2="213.53228379419343" y2="53.613201865160647" />
    <line x1="210.41083864193539" y1="69.305766351612348" x2="207.28939348967734" y2="84.998330838064035" />
    <line x1="257.41375155517653" y1="17.006166017923249" x2="251.29081663733507" y2="31.788238538103826" />
    <line x1="245.16788171949366" y1="46.5703110582844" x2="239.0449468016522" y2="61.352383578465009" />
    <line x1="226.79907696596933" y1="90.916528618826177" x2="220.6761420481279" y2="105.69860113900677" />
    <line x1="262.55755169066589" y1="73.920132726853851" x2="253.66842796235227" y2="87.223646523694569" />
    <line x1="293.57807173949243" y1="57.134243835060175" x2="283.42777919287414" y2="69.50241108886398" />
    <line x1="249.22539674441617" y1="124.77460325558381" x2="237.91168824543144" y2="136.08831175456857" />
    <line x1="329.23392341874364" y1="70.271635713889225" x2="292.12942165733222" y2="100.72251335374422" />
    <line x1="326.68689486682763" y1="93.664200852706813" x2="300.07986727314614" y2="111.44244830933408" />
    <line x1="286.77635347630542" y1="120.33157203764773" x2="273.4728396794647" y2="129.22069576596135" />
    <line x1="260.169325882624" y1="138.109819494275" x2="246.86581208578326" y2="146.99894322258865" />
    <line x1="349.27351264009729" y1="100.2630004240164" x2="335.16277241052364" y2="107.80534821323236" />
    <line x1="342.21176146189617" y1="122.7091833626649" x2="327.4296889417156" y2="128.83211828050634" />
    <line x1="297.86554390135439" y1="141.0779881161892" x2="283.08347138117381" y2="147.20092303403067" />
    <line x1="253.51932634081265" y1="159.44679286971353" x2="238.73725382063205" y2="165.56972778755497" />
    <line x1="363.0770217747264" y1="133.58761938517893" x2="347.76597640301111" y2="138.23217422125032" />
    <line x1="336.079362621291" y1="157.34627105354849" x2="320.38679813483935" y2="160.46771620580654" />
    <line x1="304.69423364838764" y1="163.58916135806459" x2="289.001669161936" y2="166.71060651032266" />
    <line x1="273.30910467548426" y1="169.83205166258071" x2="257.61654018903261" y2="172.95349681483876" />
    <line x1="370.11398970768425" y1="168.96484617936082" x2="354.19103408092906" y2="170.53312042463378" />
    <line x1="355" y1="187" x2="339" y2="187" />
    <line x1="323" y1="187" x2="307" y2="187" />
    <line x1="291" y1="187" x2="259" y2="187" />
    <line x1="227" y1="187" x2="211" y2="187" />
    <line x1="370.11398970768425" y1="205.03515382063915" x2="338.268078454174" y2="201.89860533009323" />
    <line x1="351.77192710774273" y1="219.77517409870953" x2="320.38679813483935" y2="213.53228379419343" />
    <line x1="289.001669161936" y1="207.28939348967734" x2="273.30910467548426" y2="204.16794833741929" />
    <line x1="363.0770217747264" y1="240.41238061482105" x2="317.14388565958041" y2="226.47871610660684" />
    <line x1="327.4296889417156" y1="245.16788171949364" x2="297.86554390135439" y2="232.92201188381077" />
    <line x1="283.08347138117381" y1="226.79907696596933" x2="268.30139886099323" y2="220.6761420481279" />
    <line x1="238.73725382063205" y1="208.43027221244503" x2="223.95518130045147" y2="202.3073372946036" />
    <line x1="335.16277241052364" y1="266.19465178676762" x2="321.05203218094994" y2="258.65230399755166" />
    <line x1="339.9904086636684" y1="289.22492287560675" x2="326.68689486682763" y2="280.33579914729313" />
    <line x1="300.07986727314619" y1="262.55755169066583" x2="273.47283967946476" y2="244.77930423403859" />
    <line x1="260.169325882624" y1="235.89018050572497" x2="246.86581208578326" y2="227.00105677741135" />
    <line x1="316.86575616493985" y1="293.57807173949243" x2="292.12942165733227" y2="273.27748664625574" />
    <line x1="317.10764773832477" y1="317.10764773832477" x2="305.79393923934" y2="305.79393923934" />
    <line x1="293.57807173949243" y1="316.86575616493985" x2="273.2774866462558" y2="292.12942165733222" />
    <line x1="262.55755169066589" y1="300.07986727314619" x2="227.00105677741135" y2="246.86581208578326" />
    <line x1="266.19465178676762" y1="335.16277241052364" x2="251.10995620833569" y2="306.94129195137629" />
    <line x1="245.16788171949366" y1="327.4296889417156" x2="239.04494680165223" y2="312.64761642153496" />
    <line x1="214.55320713028647" y1="253.51932634081265" x2="202.3073372946036" y2="223.95518130045147" />
    <line x1="235.76782577874968" y1="347.76597640301111" x2="231.12327094267829" y2="332.4549310312957" />
    <line x1="222.89661925096766" y1="367.46449159419438" x2="219.77517409870961" y2="351.77192710774273" />
    <line x1="204.16794833741932" y1="273.30910467548426" x2="201.04650318516127" y2="257.61654018903261" />
    <line x1="203.46687957536622" y1="354.19103408092906" x2="200.33033108482027" y2="322.34512282741878" />
    <line x1="187.00000000000003" y1="355" x2="187.00000000000003" y2="339" />
    <line x1="187.00000000000003" y1="323" x2="187" y2="291" />
    <line x1="187" y1="259" x2="187" y2="243" />
    <line x1="187" y1="227" x2="187" y2="211" />
    <line x1="170.53312042463381" y1="354.19103408092906" x2="173.66966891517976" y2="322.34512282741878" />
    <line x1="166.71060651032266" y1="289.001669161936" x2="169.83205166258071" y2="273.30910467548426" />
    <line x1="116.5862484448235" y1="356.99383398207681" x2="128.83211828050636" y2="327.4296889417156" />
    <line x1="134.9550531983478" y1="312.647616421535" x2="147.20092303403067" y2="283.08347138117381" />
    <line x1="153.3238579518721" y1="268.30139886099323" x2="171.6926627053964" y2="223.95518130045147" />
    <line x1="115.34769600244836" y1="321.05203218094994" x2="122.89004379166433" y2="306.94129195137629" />
    <line x1="129.22069576596141" y1="273.47283967946476" x2="138.10981949427503" y2="260.169325882624" />
    <line x1="70.271635713889268" y1="329.23392341874364" x2="80.4219282605076" y2="316.86575616493985" />
    <line x1="90.572220807125916" y1="304.49758891113606" x2="100.72251335374425" y2="292.12942165733227" />
    <line x1="56.892352261675256" y1="317.10764773832477" x2="79.519769259644789" y2="294.48023074035524" />
    <line x1="90.833477758629542" y1="283.1665222413705" x2="147.40202025355336" y2="226.59797974644667" />
    <line x1="158.7157287525381" y1="215.2842712474619" x2="170.02943725152286" y2="203.97056274847714" />
    <line x1="57.134243835060232" y1="293.57807173949254" x2="81.870578342667812" y2="273.27748664625585" />
    <line x1="34.009591336331681" y1="289.22492287560681" x2="47.3131051331724" y2="280.33579914729319" />
    <line x1="60.616618930013118" y1="271.44667541897957" x2="87.223646523694569" y2="253.66842796235227" />
    <line x1="38.837227589476356" y1="266.19465178676762" x2="52.947967819050064" y2="258.65230399755166" />
    <line x1="46.57031105828446" y1="245.16788171949372" x2="76.134456098645614" y2="232.92201188381085" />
    <line x1="105.69860113900678" y1="220.67614204812796" x2="150.04481869954856" y2="202.3073372946036" />
    <line x1="10.922978225273567" y1="240.41238061482108" x2="26.234023596988919" y2="235.76782577874968" />
    <line x1="41.545068968704271" y1="231.12327094267829" x2="56.856114340419595" y2="226.4787161066069" />
    <line x1="37.920637378708989" y1="216.65372894645157" x2="53.613201865160676" y2="213.53228379419349" />
    <line x1="3.886010292315774" y1="205.03515382063912" x2="51.654877172581223" y2="200.33033108482022" />
    <line x1="19" y1="187.00000000000003" x2="35" y2="187.00000000000003" />
    <line x1="51" y1="187.00000000000003" x2="67" y2="187.00000000000003" />
    <line x1="83" y1="187.00000000000003" x2="99" y2="187.00000000000003" />
    <line x1="147" y1="187" x2="163" y2="187" />
    <line x1="3.886010292315774" y1="168.96484617936093" x2="19.808965919070914" y2="170.53312042463389" />
    <line x1="35.731921545826054" y1="172.10139466990688" x2="51.654877172581223" y2="173.66966891517984" />
    <line x1="22.228072892257273" y1="154.22482590129044" x2="37.920637378708989" y2="157.34627105354849" />
    <line x1="53.613201865160647" y1="160.46771620580654" x2="69.305766351612348" y2="163.58916135806462" />
    <line x1="31.788238538103855" y1="122.70918336266487" x2="46.570311058284432" y2="128.83211828050634" />
    <line x1="61.352383578465023" y1="134.95505319834777" x2="90.916528618826192" y2="147.20092303403064" />
    <line x1="120.48067365918736" y1="159.44679286971353" x2="150.04481869954853" y2="171.6926627053964" />
    <line x1="52.947967819050035" y1="115.34769600244837" x2="67.058708048623714" y2="122.89004379166433" />
    <line x1="100.52716032053527" y1="129.22069576596141" x2="113.830674117376" y2="138.10981949427503" />
    <line x1="68.20606076066" y1="68.206060760660051" x2="79.519769259644747" y2="79.5197692596448" />
    <line x1="102.14718625761428" y1="102.14718625761432" x2="113.46089475659905" y2="113.46089475659908" />
    <line x1="136.08831175456857" y1="136.08831175456859" x2="147.40202025355333" y2="147.40202025355336" />
    <line x1="158.7157287525381" y1="158.7157287525381" x2="170.02943725152286" y2="170.02943725152286" />
    <line x1="93.664200852706841" y1="47.3131051331724" x2="102.55332458102046" y2="60.616618930013118" />
    <line x1="129.22069576596138" y1="100.5271603205353" x2="146.99894322258865" y2="127.13418791421674" />
    <line x1="100.26300042401638" y1="24.726487359902706" x2="107.80534821323235" y2="38.837227589476385" />
    <line x1="115.34769600244832" y1="52.947967819050064" x2="122.89004379166428" y2="67.058708048623743" />
    <line x1="134.95505319834771" y1="61.352383578465037" x2="141.07798811618915" y2="76.134456098645614" />
    <line x1="147.20092303403061" y1="90.9165286188262" x2="153.32385795187204" y2="105.69860113900678" />
    <line x1="159.44679286971348" y1="120.48067365918737" x2="165.56972778755494" y2="135.26274617936795" />
    <line x1="142.87672905732171" y1="41.545068968704271" x2="147.5212838933931" y2="56.856114340419595" />
    <line x1="154.22482590129039" y1="22.228072892257302" x2="157.34627105354844" y2="37.920637378708989" />
    <line x1="163.58916135806456" y1="69.305766351612363" x2="166.71060651032261" y2="84.998330838064049" />
    <line x1="172.1013946699068" y1="35.731921545826054" x2="173.66966891517978" y2="51.654877172581223" />
  </g>
  <path fill="none" stroke="#ff0000" stroke-width="2" stroke-linecap="square" stroke-linejoin="round" d="M 196.02845207624492,3.2216360582482935 L 194.0657451031482,43.17345430645517 A 144,144 0 0,1 208.12918832157209,44.558582565071532 L 205.7815007302863,60.38540672450803 A 128,128 0 0,1 241.72705195907611,71.289370480199253 L 248.56793345396062,56.82554179022415 A 144,144 0 0,1 272.78069984691041,71.33811546678713 L 263.24951097503146,84.189435970477447 A 128,128 0 0,1 285.94533803043032,105.79765962705338 L 273.57717077662653,115.9479521736717 A 112,112 0 0,0 219.51188385249978,79.822682397992608 L 214.86732901642839,95.133727769707946 A 96,96 0 0,0 196.40964547163782,91.4622662394691 L 194.84137122636486,107.38522186622424 A 80,80 0 0,0 179.15862877363517,107.38522186622424 L 177.59035452836218,91.4622662394691 A 96,96 0 0,0 159.13267098357159,95.133727769707946 L 154.48811614750019,79.822682397992608 A 112,112 0 0,0 134.20356547548823,88.224818392984261 L 126.66121768627227,74.114078163410582 A 128,128 0 0,0 77.210737919965155,121.19484874326764 L 63.4870801599608,112.9692048361761 A 144,144 0 0,1 101.21930015308962,71.338115466787116 L 91.688111281210681,58.4867949630968 A 160,160 0 0,0 79.550567224477,68.447819943206582 L 68.805623946924712,56.592601937527235 A 176,176 0 0,0 12.904934246198565,161.1754364958563 L 28.731758405635048,163.52312408714209 A 160,160 0 0,0 27.192727007172408,179.14917210761317 L 43.17345430645517,179.93425489685185 A 144,144 0 0,0 43.17345430645517,194.0657451031482 L 59.154181605737932,193.28066231390952 A 128,128 0 0,0 66.482359656573337,230.12190123420416 L 36.352949570716675,240.90237654275518 A 160,160 0 0,0 42.361713100249091,255.40881494884519 L 27.897884410274003,262.2496964437297 A 176,176 0 0,0 36.039764639952125,277.48208297800704 L 49.763422399956482,269.25643907091546 A 160,160 0 0,0 58.4867949630968,282.31188871878931 L 45.635474459406481,291.84307759066826 A 176,176 0 0,0 56.592601937527235,305.1943760530753 L 80.303037948885915,283.70448949797071 A 144,144 0 0,0 90.295510502029344,293.6969620511141 L 101.04045377958164,281.84174404543478 A 128,128 0 0,0 126.6612176862723,299.88592183658943 L 134.20356547548826,285.77518160701578 A 112,112 0 0,1 115.94795217367172,273.57717077662653 L 136.24853726690839,248.84083626901898 A 80,80 0 0,0 149.2882610539202,257.55370114786842 L 156.83060884313616,243.44296091829472 A 64,64 0 0,1 151.44350508674546,240.2140551873629 L 160.33262881505911,226.91054139052218 A 48,48 0 0,1 147.08945860947785,213.66737118494092 L 160.39297240631856,204.77824745662727 A 32,32 0 0,1 155.61487102709663,193.24289030451612 L 139.92230654064494,196.36433545677417 A 48,48 0 0,1 139.92230654064494,177.63566454322583 L 124.22974205419325,174.51421939096778 A 64,64 0 0,0 125.75581851313864,205.5782193442856 L 110.4447731414233,210.222774180357 A 80,80 0 0,1 125.15916373098105,136.24853726690836 L 137.52733098478484,146.39882981352668 A 64,64 0 0,0 133.7859448126371,151.44350508674549 L 147.08945860947782,160.33262881505911 A 48,48 0 0,1 234.07769345935506,177.63566454322583 L 249.77025794580675,174.51421939096778 A 64,64 0 0,1 222.55649491325454,240.2140551873629 L 213.66737118494089,226.91054139052218 A 48,48 0 0,0 226.91054139052218,213.66737118494089 L 213.60702759368147,204.77824745662727 A 32,32 0 0,1 193.24289030451612,218.38512897290337 L 196.36433545677417,234.07769345935506 A 48,48 0 0,1 177.63566454322583,234.07769345935506 L 180.75710969548391,218.38512897290337 A 32,32 0 0,1 174.75413016431713,216.56414504036118 L 177.81559762323786,209.17310878027089" />
  <type>Circular</type>
</svg>