<?xml version="1.0" encoding="utf-8" standalone="no"?>
<!DOCTYPE svg PUBLIC "-//W3C//DTD SVG 1.1//EN" "http://www.w3.org/Graphics/SVG/1.1/DTD/svg11.dtd"[]>
<svg width="372" height="372" version="1.1" xmlns="http://www.w3.org/2000/svg">
  <title>23 cells diameter theta maze</title>
  <g fill="none" stroke="#000000" stroke-width="2" stroke-linecap="square">
    <path d="M 170.02943725152286,203.97056274847714 A 24,24 0 1,1 187,211" />
    <path d="M 171.69266270539637,150.04481869954856 A 40,40 0 0,1 223.95518130045147,171.6926627053964" />
    <path d="M 223.95518130045147,202.3073372946036 A 40,40 0 0,1 215.2842712474619,215.2842712474619" />
    <path d="M 202.3073372946036,223.95518130045147 A 40,40 0 0,1 150.04481869954853,202.3073372946036" />
    <path d="M 150.04481869954853,171.6926627053964 A 40,40 0 0,1 158.7157287525381,158.7157287525381" />
    <path d="M 226.59797974644667,147.40202025355333 A 56,56 0 0,1 238.73725382063205,165.56972778755497" />
    <path d="M 243,187 A 56,56 0 0,1 238.73725382063208,208.43027221244503" />
    <path d="M 226.59797974644667,226.59797974644664 A 56,56 0 0,1 165.569727787555,238.73725382063208" />
    <path d="M 147.40202025355336,226.59797974644667 A 56,56 0 0,1 135.26274617936795,208.43027221244506" />
    <path d="M 147.40202025355333,147.40202025355336 A 56,56 0 0,1 165.56972778755494,135.26274617936795" />
    <path d="M 187,115 A 72,72 0 0,1 201.04650318516124,116.38345981096741" />
    <path d="M 227.00105677741135,127.13418791421674 A 72,72 0 0,1 257.61654018903261,201.04650318516124" />
    <path d="M 253.51932634081265,214.55320713028647 A 72,72 0 0,1 214.55320713028647,253.51932634081265" />
    <path d="M 187,259 A 72,72 0 0,1 172.95349681483876,257.61654018903261" />
    <path d="M 127.13418791421674,227.00105677741135 A 72,72 0 0,1 116.38345981096741,201.04650318516127" />
    <path d="M 116.38345981096741,172.95349681483876 A 72,72 0 0,1 127.13418791421672,146.99894322258865" />
    <path d="M 146.99894322258865,127.13418791421674 A 72,72 0 0,1 172.95349681483873,116.38345981096741" />
    <path d="M 169.83205166258068,100.69089532451572 A 88,88 0 0,1 187,99" />
    <path d="M 204.16794833741929,100.69089532451572 A 88,88 0 0,1 235.890180505725,113.83067411737602" />
    <path d="M 268.30139886099323,153.3238579518721 A 88,88 0 0,1 273.30910467548426,169.83205166258071" />
    <path d="M 273.30910467548426,204.16794833741929 A 88,88 0 0,1 268.30139886099323,220.6761420481279" />
    <path d="M 260.169325882624,235.89018050572497 A 88,88 0 0,1 235.89018050572497,260.169325882624" />
    <path d="M 220.6761420481279,268.30139886099323 A 88,88 0 0,1 169.83205166258071,273.30910467548426" />
    <path d="M 153.32385795187213,268.30139886099323 A 88,88 0 0,1 113.83067411737602,235.890180505725" />
    <path d="M 105.69860113900678,220.67614204812796 A 88,88 0 0,1 100.69089532451572,204.16794833741932" />
    <path d="M 113.83067411737599,138.10981949427503 A 88,88 0 0,1 124.7746032555838,124.77460325558383" />
    <path d="M 138.109819494275,113.83067411737602 A 88,88 0 0,1 153.32385795187204,105.69860113900678" />
    <path d="M 166.71060651032261,84.998330838064049 A 104,104 0 0,1 187,83" />
    <path d="M 207.28939348967734,84.998330838064035 A 104,104 0 0,1 226.79907696596933,90.916528618826177" />
    <path d="M 244.77930423403862,100.52716032053529 A 104,104 0 0,1 260.53910524340097,113.46089475659906" />
    <path d="M 273.4728396794647,129.22069576596135 A 104,104 0 0,1 289.001669161936,207.28939348967734" />
    <path d="M 226.79907696596933,283.08347138117381 A 104,104 0 0,1 207.28939348967737,289.001669161936" />
    <path d="M 187,291 A 104,104 0 0,1 166.71060651032266,289.001669161936" />
    <path d="M 147.20092303403067,283.08347138117381 A 104,104 0 0,1 100.52716032053529,244.77930423403862" />
    <path d="M 84.998330838064035,207.28939348967737 A 104,104 0 0,1 84.998330838064035,166.71060651032266" />
    <path d="M 90.916528618826192,147.20092303403064 A 104,104 0 0,1 100.52716032053527,129.22069576596141" />
    <path d="M 113.46089475659905,113.46089475659908 A 104,104 0 0,1 129.22069576596135,100.5271603205353" />
    <path d="M 163.58916135806456,69.305766351612363 A 120,120 0 0,1 232.92201188381077,76.134456098645586" />
    <path d="M 271.85281374238571,102.14718625761429 A 120,120 0 0,1 307,187" />
    <path d="M 253.66842796235227,286.77635347630542 A 120,120 0 0,1 210.41083864193544,304.69423364838764" />
    <path d="M 187.00000000000003,307 A 120,120 0 0,1 163.58916135806459,304.69423364838764" />
    <path d="M 141.07798811618926,297.86554390135439 A 120,120 0 0,1 87.223646523694569,253.66842796235227" />
    <path d="M 67,187.00000000000003 A 120,120 0 0,1 76.1344560986456,141.0779881161892" />
    <path d="M 87.223646523694541,120.33157203764777 A 120,120 0 0,1 102.14718625761428,102.14718625761432" />
    <path d="M 120.33157203764773,87.223646523694569 A 120,120 0 0,1 141.07798811618915,76.134456098645614" />
    <path d="M 173.66966891517978,51.654877172581223 A 136,136 0 0,1 226.4787161066069,56.856114340419595" />
    <path d="M 239.0449468016522,61.352383578464995 A 136,136 0 0,1 262.55755169066589,73.920132726853851" />
    <path d="M 273.2774866462558,81.87057834266777 A 136,136 0 0,1 283.16652224137044,90.833477758629527" />
    <path d="M 300.07986727314614,111.4424483093341 A 136,136 0 0,1 312.64761642153496,134.9550531983478" />
    <path d="M 317.14388565958041,147.52128389339313 A 136,136 0 0,1 323,187" />
    <path d="M 320.38679813483935,213.53228379419343 A 136,136 0 0,1 317.14388565958041,226.47871610660687" />
    <path d="M 306.94129195137629,251.10995620833569 A 136,136 0 0,1 251.10995620833569,306.94129195137629" />
    <path d="M 239.04494680165223,312.64761642153496 A 136,136 0 0,1 122.89004379166433,306.94129195137629" />
    <path d="M 111.44244830933414,300.07986727314619 A 136,136 0 0,1 100.72251335374423,292.12942165733227" />
    <path d="M 90.833477758629556,283.16652224137044 A 136,136 0 0,1 81.870578342667812,273.27748664625585" />
    <path d="M 73.920132726853836,262.55755169066589 A 136,136 0 0,1 61.352383578465037,239.04494680165229" />
    <path d="M 53.613201865160676,213.53228379419349 A 136,136 0 0,1 51,187.00000000000003" />
    <path d="M 61.352383578465009,134.95505319834777 A 136,136 0 0,1 111.4424483093341,73.920132726853851" />
    <path d="M 122.89004379166428,67.058708048623743 A 136,136 0 0,1 147.5212838933931,56.856114340419595" />
    <path d="M 216.65372894645151,37.92063737870896 A 152,152 0 0,1 245.16788171949364,46.5703110582844" />
    <path d="M 258.65230399755166,52.947967819050035 A 152,152 0 0,1 271.44667541897957,60.616618930013118" />
    <path d="M 304.497588911136,90.572220807125873 A 152,152 0 0,1 313.38338106998685,102.55332458102046" />
    <path d="M 327.4296889417156,128.83211828050634 A 152,152 0 0,1 336.079362621291,216.65372894645148" />
    <path d="M 332.45493103129576,231.12327094267826 A 152,152 0 0,1 327.4296889417156,245.16788171949364" />
    <path d="M 321.05203218094994,258.65230399755166 A 152,152 0 0,1 313.38338106998691,271.44667541897951" />
    <path d="M 304.49758891113606,283.42777919287408 A 152,152 0 0,1 294.48023074035524,294.48023074035518" />
    <path d="M 283.42777919287414,304.497588911136 A 152,152 0 0,1 231.12327094267829,332.45493103129576" />
    <path d="M 216.65372894645154,336.079362621291 A 152,152 0 0,1 142.87672905732177,332.45493103129576" />
    <path d="M 128.83211828050636,327.4296889417156 A 152,152 0 0,1 102.55332458102051,313.38338106998691" />
    <path d="M 79.519769259644789,294.48023074035524 A 152,152 0 0,1 60.616618930013118,271.44667541897951" />
    <path d="M 52.947967819050064,258.65230399755171 A 152,152 0 0,1 46.57031105828446,245.16788171949372" />
    <path d="M 41.545068968704243,231.12327094267829 A 152,152 0 0,1 37.920637378708989,216.65372894645157" />
    <path d="M 35.731921545826083,201.89860533009318 A 152,152 0 0,1 90.572220807125817,69.502411088864037" />
    <path d="M 102.55332458102046,60.616618930013118 A 152,152 0 0,1 115.34769600244832,52.947967819050064" />
    <path d="M 128.83211828050625,46.57031105828446 A 152,152 0 0,1 157.34627105354844,37.920637378708989" />
    <path d="M 154.22482590129039,22.228072892257302 A 168,168 0 0,1 219.77517409870956,22.228072892257273" />
    <path d="M 251.29081663733507,31.788238538103826 A 168,168 0 0,1 266.19465178676762,38.837227589476356" />
    <path d="M 305.79393923934,68.206060760660009 A 168,168 0 0,1 335.16277241052364,107.80534821323238" />
    <path d="M 347.76597640301111,138.23217422125032 A 168,168 0 0,1 354.19103408092906,170.53312042463378" />
    <path d="M 354.19103408092906,203.46687957536619 A 168,168 0 0,1 347.76597640301111,235.76782577874965" />
    <path d="M 335.16277241052364,266.19465178676762 A 168,168 0 0,1 316.86575616493985,293.57807173949243" />
    <path d="M 305.79393923934,305.79393923934 A 168,168 0 0,1 293.57807173949243,316.86575616493985" />
    <path d="M 235.76782577874968,347.76597640301111 A 168,168 0 0,1 219.77517409870961,351.77192710774273" />
    <path d="M 187.00000000000003,355 A 168,168 0 0,1 122.70918336266495,342.21176146189617" />
    <path d="M 107.80534821323241,335.16277241052364 A 168,168 0 0,1 80.421928260507585,316.86575616493985" />
    <path d="M 19.808965919070914,203.46687957536616 A 168,168 0 0,1 31.788238538103855,122.70918336266487" />
    <path d="M 47.313105133172371,93.664200852706884 A 168,168 0 0,1 93.664200852706827,47.3131051331724" />
    <path d="M 107.80534821323235,38.837227589476385 A 168,168 0 0,1 122.70918336266482,31.788238538103855" />
    <path d="M 205.03515382063915,3.886010292315774 A 184,184 0 1,1 187,3" />
  </g>
  <g fill="none" stroke="#000000" stroke-width="2" stroke-linecap="butt">
    <line x1="187" y1="35" x2="187" y2="51" />
    <line x1="187" y1="67" x2="187" y2="131" />
    <line x1="187" y1="147" x2="187" y2="163" />
    <line x1="203.46687957536619" y1="19.808965919070914" x2="201.8986053300932" y2="35.731921545826054" />
    <line x1="216.65372894645151" y1="37.920637378708989" x2="213.53228379419343" y2="53.613201865160647" />
    <line x1="235.76782577874968" y1="26.234023596988919" x2="231.12327094267829" y2="41.545068968704271" />
    <line x1="257.41375155517653" y1="17.006166017923249" x2="251.29081663733507" y2="31.788238538103826" />
    <line x1="245.16788171949366" y1="46.5703110582844" x2="226.79907696596933" y2="90.916528618826177" />
    <line x1="220.6761420481279" y1="105.69860113900677" x2="208.43027221244503" y2="135.26274617936795" />
    <line x1="258.65230399755166" y1="52.947967819050035" x2="251.10995620833569" y2="67.058708048623714" />
    <line x1="280.33579914729319" y1="47.3131051331724" x2="271.44667541897957" y2="60.616618930013118" />
    <line x1="262.55755169066589" y1="73.920132726853851" x2="253.66842796235227" y2="87.223646523694569" />
    <line x1="244.77930423403862" y1="100.5271603205353" x2="227.00105677741135" y2="127.13418791421674" />
    <line x1="303.72836428611078" y1="44.766076581256385" x2="273.2774866462558" y2="81.87057834266777" />
    <line x1="317.10764773832477" y1="56.892352261675256" x2="294.48023074035518" y2="79.519769259644775" />
    <line x1="283.16652224137044" y1="90.833477758629527" x2="249.22539674441617" y2="124.77460325558381" />
    <line x1="304.497588911136" y1="90.572220807125888" x2="292.12942165733222" y2="100.72251335374422" />
    <line x1="313.38338106998685" y1="102.55332458102045" x2="300.07986727314614" y2="111.44244830933408" />
    <line x1="273.4728396794647" y1="129.22069576596135" x2="260.169325882624" y2="138.109819494275" />
    <line x1="335.16277241052364" y1="107.80534821323236" x2="306.94129195137629" y2="122.8900437916643" />
    <line x1="342.21176146189617" y1="122.7091833626649" x2="327.4296889417156" y2="128.83211828050634" />
    <line x1="238.73725382063205" y1="165.56972778755497" x2="223.95518130045147" y2="171.6926627053964" />
    <line x1="363.0770217747264" y1="133.58761938517893" x2="347.76597640301111" y2="138.23217422125032" />
    <line x1="332.45493103129576" y1="142.87672905732171" x2="317.14388565958041" y2="147.52128389339313" />
    <line x1="289.001669161936" y1="166.71060651032266" x2="273.30910467548426" y2="169.83205166258071" />
    <line x1="355" y1="187" x2="339" y2="187" />
    <line x1="323" y1="187" x2="307" y2="187" />
    <line x1="275" y1="187" x2="243" y2="187" />
    <line x1="227" y1="187" x2="211" y2="187" />
    <line x1="370.11398970768425" y1="205.03515382063915" x2="354.19103408092906" y2="203.46687957536619" />
    <line x1="338.268078454174" y1="201.89860533009323" x2="322.34512282741878" y2="200.33033108482024" />
    <line x1="320.38679813483935" y1="213.53228379419343" x2="273.30910467548426" y2="204.16794833741929" />
    <line x1="332.45493103129576" y1="231.12327094267823" x2="317.14388565958041" y2="226.47871610660684" />
    <line x1="356.99383398207675" y1="257.41375155517653" x2="283.08347138117381" y2="226.79907696596933" />
    <line x1="349.27351264009735" y1="273.73699957598359" x2="335.16277241052364" y2="266.19465178676762" />
    <line x1="313.38338106998691" y1="271.44667541897951" x2="260.169325882624" y2="235.89018050572497" />
    <line x1="316.86575616493985" y1="293.57807173949243" x2="304.49758891113606" y2="283.42777919287408" />
    <line x1="283.16652224137044" y1="283.16652224137044" x2="260.53910524340097" y2="260.53910524340097" />
    <line x1="215.2842712474619" y1="215.2842712474619" x2="203.97056274847714" y2="203.97056274847714" />
    <line x1="293.57807173949243" y1="316.86575616493985" x2="283.42777919287414" y2="304.497588911136" />
    <line x1="289.22492287560681" y1="339.99040866366835" x2="280.33579914729319" y2="326.68689486682763" />
    <line x1="253.66842796235227" y1="286.77635347630542" x2="244.77930423403862" y2="273.4728396794647" />
    <line x1="235.890180505725" y1="260.169325882624" x2="227.00105677741135" y2="246.86581208578326" />
    <line x1="266.19465178676762" y1="335.16277241052364" x2="251.10995620833569" y2="306.94129195137629" />
    <line x1="257.41375155517653" y1="356.99383398207675" x2="245.16788171949366" y2="327.4296889417156" />
    <line x1="208.43027221244503" y1="238.73725382063205" x2="202.3073372946036" y2="223.95518130045147" />
    <line x1="231.12327094267829" y1="332.4549310312957" x2="226.4787161066069" y2="317.14388565958041" />
    <line x1="219.77517409870961" y1="351.77192710774273" x2="216.65372894645154" y2="336.079362621291" />
    <line x1="210.41083864193544" y1="304.69423364838764" x2="201.04650318516127" y2="257.61654018903261" />
    <line x1="205.03515382063918" y1="370.11398970768425" x2="203.46687957536622" y2="354.19103408092906" />
    <line x1="187.00000000000003" y1="339" x2="187" y2="259" />
    <line x1="187" y1="227" x2="187" y2="211" />
    <line x1="122.70918336266493" y1="342.21176146189623" x2="141.07798811618923" y2="297.86554390135444" />
    <line x1="159.44679286971353" y1="253.51932634081265" x2="165.56972778755497" y2="238.73725382063208" />
    <line x1="129.22069576596141" y1="273.47283967946476" x2="146.99894322258865" y2="246.86581208578326" />
    <line x1="70.271635713889268" y1="329.23392341874364" x2="100.72251335374425" y2="292.12942165733227" />
    <line x1="68.206060760660023" y1="305.79393923934003" x2="90.833477758629542" y2="283.1665222413705" />
    <line x1="136.08831175456857" y1="237.91168824543144" x2="158.7157287525381" y2="215.2842712474619" />
    <line x1="44.766076581256442" y1="303.72836428611083" x2="57.134243835060232" y2="293.57807173949254" />
    <line x1="34.009591336331681" y1="289.22492287560681" x2="60.616618930013118" y2="271.44667541897957" />
    <line x1="87.223646523694569" y1="253.66842796235227" x2="100.5271603205353" y2="244.77930423403862" />
    <line x1="24.726487359902706" y1="273.73699957598359" x2="38.837227589476356" y2="266.19465178676762" />
    <line x1="52.947967819050064" y1="258.65230399755166" x2="67.058708048623728" y2="251.10995620833569" />
    <line x1="17.006166017923277" y1="257.41375155517665" x2="46.57031105828446" y2="245.16788171949372" />
    <line x1="61.352383578465037" y1="239.04494680165229" x2="76.134456098645614" y2="232.92201188381085" />
    <line x1="90.9165286188262" y1="226.79907696596939" x2="105.69860113900678" y2="220.67614204812796" />
    <line x1="120.48067365918737" y1="214.5532071302865" x2="135.26274617936795" y2="208.43027221244506" />
    <line x1="10.922978225273567" y1="240.41238061482108" x2="56.856114340419595" y2="226.4787161066069" />
    <line x1="6.535508405805615" y1="222.89661925096766" x2="22.228072892257302" y2="219.77517409870961" />
    <line x1="37.920637378708989" y1="216.65372894645157" x2="53.613201865160676" y2="213.53228379419349" />
    <line x1="69.305766351612363" y1="210.41083864193544" x2="84.998330838064049" y2="207.28939348967737" />
    <line x1="100.69089532451574" y1="204.16794833741932" x2="116.38345981096742" y2="201.04650318516127" />
    <line x1="19.808965919070914" y1="203.46687957536616" x2="35.731921545826054" y2="201.89860533009318" />
    <line x1="83" y1="187.00000000000003" x2="163" y2="187" />
    <line x1="35.731921545826054" y1="172.10139466990688" x2="51.654877172581223" y2="173.66966891517984" />
    <line x1="37.920637378708989" y1="157.34627105354849" x2="100.69089532451572" y2="169.83205166258071" />
    <line x1="41.545068968704243" y1="142.87672905732177" x2="56.856114340419595" y2="147.52128389339316" />
    <line x1="90.916528618826192" y1="147.20092303403064" x2="150.04481869954853" y2="171.6926627053964" />
    <line x1="38.837227589476356" y1="107.80534821323241" x2="52.947967819050035" y2="115.34769600244837" />
    <line x1="87.223646523694541" y1="120.33157203764777" x2="100.52716032053527" y2="129.22069576596141" />
    <line x1="113.830674117376" y1="138.10981949427503" x2="127.13418791421672" y2="146.99894322258865" />
    <line x1="69.502411088864" y1="90.572220807125873" x2="81.870578342667784" y2="100.72251335374421" />
    <line x1="56.892352261675228" y1="56.892352261675285" x2="68.20606076066" y2="68.206060760660051" />
    <line x1="113.46089475659905" y1="113.46089475659908" x2="136.08831175456857" y2="136.08831175456859" />
    <line x1="158.7157287525381" y1="158.7157287525381" x2="170.02943725152286" y2="170.02943725152286" />
    <line x1="102.55332458102046" y1="60.616618930013118" x2="111.44244830933411" y2="73.920132726853851" />
    <line x1="120.33157203764773" y1="87.223646523694569" x2="129.22069576596138" y2="100.5271603205353" />
    <line x1="107.80534821323235" y1="38.837227589476385" x2="115.34769600244832" y2="52.947967819050064" />
    <line x1="134.95505319834771" y1="61.352383578465037" x2="153.32385795187204" y2="105.69860113900678" />
    <line x1="159.44679286971348" y1="120.48067365918737" x2="171.69266270539637" y2="150.04481869954856" />
    <line x1="133.5876193851789" y1="10.922978225273567" x2="147.5212838933931" y2="56.856114340419595" />
    <line x1="157.34627105354844" y1="37.920637378708989" x2="163.58916135806456" y2="69.305766351612363" />
    <line x1="170.53312042463384" y1="19.808965919070914" x2="173.66966891517978" y2="51.654877172581223" />
  </g>
  <path fill="none" stroke="#ff0000" stroke-width="2" stroke-linecap="square" stroke-linejoin="round" d="M 196.02845207624492,3.2216360582482935 L 195.63591068162558,11.211999707889646 A 176,176 0 0,1 246.29261419703073,21.288244527788351 L 240.90237654275521,36.352949570716675 A 160,160 0 0,1 269.25643907091546,49.763422399956454 L 277.48208297800704,36.0397646399521 A 176,176 0 0,1 291.84307759066826,45.63547445940651 L 263.24951097503146,84.189435970477447 A 128,128 0 0,1 268.20234037294665,88.054661969569665 L 258.05204782632831,100.42282922337346 A 112,112 0 0,0 239.79643452451174,88.224818392984233 L 232.25408673529577,102.33555862255791 A 96,96 0 0,0 196.40964547163782,91.4622662394691 L 194.84137122636486,107.38522186622424 A 80,80 0 0,1 210.222774180357,110.4447731414233 L 205.5782193442856,125.75581851313864 A 64,64 0 0,0 199.48578060903222,124.22974205419325 L 196.36433545677414,139.92230654064494 A 48,48 0 0,1 213.66737118494092,147.08945860947785 L 222.55649491325454,133.7859448126371 A 64,64 0 0,1 249.77025794580675,174.51421939096778 L 234.07769345935506,177.63566454322583 A 48,48 0 0,1 226.91054139052218,213.66737118494089 L 240.2140551873629,222.55649491325454 A 64,64 0 0,1 168.42178065571443,248.24418148686138 L 163.77722581964304,263.5552268585767 A 80,80 0 0,1 149.2882610539202,257.55370114786842 L 156.83060884313616,243.44296091829472 A 64,64 0 0,1 146.3988298135267,236.47266901521516 L 136.24853726690839,248.84083626901898 A 80,80 0 0,1 116.44629885213161,224.71173894607983 L 88.224818392984247,239.79643452451177 A 112,112 0 0,1 79.822682397992608,219.51188385249981 L 95.133727769707946,214.86732901642839 A 96,96 0 0,1 91.4622662394691,196.40964547163782 L 123.3081774929794,193.27309698109187 A 64,64 0 0,0 124.22974205419325,199.48578060903225 L 155.61487102709663,193.24289030451612 A 32,32 0 0,0 174.75413016431713,216.56414504036118 L 177.81559762323786,209.17310878027089" />
  <type>Circular</type>
</svg>