<?xml version="1.0" encoding="utf-8" standalone="no"?>
<!DOCTYPE svg PUBLIC "-//W3C//DTD SVG 1.1//EN" "http://www.w3.org/Graphics/SVG/1.1/DTD/svg11.dtd"[]>
<svg width="372" height="372" version="1.1" xmlns="http://www.w3.org/2000/svg">
  <title>23 cells diameter theta maze</title>
  <g fill="none" stroke="#000000" stroke-width="2" stroke-linecap="square">
    <path d="M 170.02943725152286,203.97056274847714 A 24,24 0 1,1 187,211" />
    <path d="M 171.69266270539637,150.04481869954856 A 40,40 0 0,1 187,147" />
    <path d="M 223.95518130045147,171.6926627053964 A 40,40 0 0,1 158.7157287525381,215.2842712474619" />
    <path d="M 150.04481869954853,202.3073372946036 A 40,40 0 0,1 158.7157287525381,158.7157287525381" />
    <path d="M 187,131 A 56,56 0 0,1 208.43027221244503,135.26274617936795" />
    <path d="M 238.73725382063205,165.56972778755497 A 56,56 0 0,1 243,187" />
    <path d="M 226.59797974644667,226.59797974644664 A 56,56 0 0,1 131,187" />
    <path d="M 135.26274617936795,165.56972778755497 A 56,56 0 0,1 147.40202025355333,147.40202025355336" />
    <path d="M 159.44679286971348,120.48067365918737 A 72,72 0 0,1 201.04650318516124,116.38345981096741" />
    <path d="M 227.00105677741135,127.13418791421674 A 72,72 0 0,1 237.91168824543144,136.08831175456857" />
    <path d="M 246.86581208578326,146.99894322258865 A 72,72 0 0,1 257.61654018903261,201.04650318516124" />
    <path d="M 253.51932634081265,214.55320713028647 A 72,72 0 0,1 237.91168824543144,237.91168824543141" />
    <path d="M 227.00105677741135,246.86581208578326 A 72,72 0 0,1 214.55320713028647,253.51932634081265" />
    <path d="M 201.04650318516127,257.61654018903261 A 72,72 0 0,1 159.44679286971353,253.51932634081265" />
    <path d="M 146.99894322258865,246.86581208578326 A 72,72 0 0,1 127.13418791421674,227.00105677741135" />
    <path d="M 120.48067365918737,214.5532071302865 A 72,72 0 0,1 120.48067365918736,159.44679286971353" />
    <path d="M 127.13418791421672,146.99894322258865 A 72,72 0 0,1 146.99894322258865,127.13418791421674" />
    <path d="M 100.69089532451572,169.83205166258071 A 88,88 0 0,1 187,99" />
    <path d="M 249.22539674441617,124.77460325558381 A 88,88 0 0,1 260.169325882624,138.109819494275" />
    <path d="M 268.30139886099323,153.3238579518721 A 88,88 0 0,1 260.169325882624,235.89018050572497" />
    <path d="M 249.22539674441617,249.22539674441617 A 88,88 0 0,1 235.89018050572497,260.169325882624" />
    <path d="M 220.6761420481279,268.30139886099323 A 88,88 0 0,1 204.16794833741932,273.30910467548426" />
    <path d="M 187,275 A 88,88 0 0,1 153.32385795187213,268.30139886099323" />
    <path d="M 138.10981949427503,260.169325882624 A 88,88 0 0,1 105.69860113900678,220.67614204812796" />
    <path d="M 129.22069576596135,100.5271603205353 A 104,104 0 0,1 207.28939348967734,84.998330838064035" />
    <path d="M 226.79907696596933,90.916528618826177 A 104,104 0 0,1 244.77930423403862,100.52716032053529" />
    <path d="M 273.4728396794647,129.22069576596135 A 104,104 0 0,1 283.08347138117381,147.20092303403067" />
    <path d="M 289.001669161936,166.71060651032266 A 104,104 0 0,1 291,187" />
    <path d="M 289.001669161936,207.28939348967734 A 104,104 0 0,1 283.08347138117381,226.79907696596933" />
    <path d="M 244.77930423403862,273.4728396794647 A 104,104 0 0,1 207.28939348967737,289.001669161936" />
    <path d="M 187,291 A 104,104 0 0,1 166.71060651032266,289.001669161936" />
    <path d="M 147.20092303403067,283.08347138117381 A 104,104 0 0,1 84.998330838064035,207.28939348967737" />
    <path d="M 83,187.00000000000003 A 104,104 0 0,1 84.998330838064035,166.71060651032266" />
    <path d="M 100.52716032053527,129.22069576596141 A 104,104 0 0,1 113.46089475659905,113.46089475659908" />
    <path d="M 210.41083864193539,69.305766351612348 A 120,120 0 0,1 232.92201188381077,76.134456098645586" />
    <path d="M 271.85281374238571,102.14718625761429 A 120,120 0 0,1 297.86554390135439,141.07798811618923" />
    <path d="M 304.69423364838764,163.58916135806459 A 120,120 0 0,1 297.86554390135439,232.92201188381077" />
    <path d="M 286.77635347630542,253.66842796235224 A 120,120 0 0,1 253.66842796235227,286.77635347630542" />
    <path d="M 210.41083864193544,304.69423364838764 A 120,120 0 0,1 187.00000000000003,307" />
    <path d="M 163.58916135806459,304.69423364838764 A 120,120 0 0,1 120.33157203764777,286.77635347630547" />
    <path d="M 76.134456098645614,232.92201188381085 A 120,120 0 0,1 67,187.00000000000003" />
    <path d="M 69.305766351612348,163.58916135806462 A 120,120 0 0,1 87.223646523694541,120.33157203764777" />
    <path d="M 102.14718625761428,102.14718625761432 A 120,120 0 0,1 163.58916135806456,69.305766351612363" />
    <path d="M 160.46771620580648,53.613201865160676 A 136,136 0 0,1 187,51" />
    <path d="M 200.33033108482024,51.654877172581223 A 136,136 0 0,1 262.55755169066589,73.920132726853851" />
    <path d="M 273.2774866462558,81.87057834266777 A 136,136 0 0,1 292.12942165733222,100.72251335374421" />
    <path d="M 300.07986727314614,111.4424483093341 A 136,136 0 0,1 306.94129195137629,122.8900437916643" />
    <path d="M 312.64761642153496,134.9550531983478 A 136,136 0 0,1 320.38679813483935,160.46771620580654" />
    <path d="M 322.34512282741878,173.66966891517973 A 136,136 0 0,1 323,187" />
    <path d="M 322.34512282741878,200.33033108482024 A 136,136 0 0,1 317.14388565958041,226.47871610660687" />
    <path d="M 306.94129195137629,251.10995620833569 A 136,136 0 0,1 292.12942165733227,273.27748664625574" />
    <path d="M 283.16652224137044,283.16652224137044 A 136,136 0 0,1 273.2774866462558,292.12942165733222" />
    <path d="M 262.55755169066589,300.07986727314619 A 136,136 0 0,1 239.04494680165223,312.64761642153496" />
    <path d="M 226.4787161066069,317.14388565958041 A 136,136 0 0,1 213.53228379419349,320.3867981348393" />
    <path d="M 200.33033108482027,322.34512282741878 A 136,136 0 0,1 173.66966891517976,322.34512282741878" />
    <path d="M 160.46771620580654,320.38679813483935 A 136,136 0 0,1 134.9550531983478,312.647616421535" />
    <path d="M 122.89004379166433,306.94129195137629 A 136,136 0 0,1 100.72251335374423,292.12942165733227" />
    <path d="M 90.833477758629556,283.16652224137044 A 136,136 0 0,1 53.613201865160676,213.53228379419349" />
    <path d="M 51.654877172581223,200.33033108482022 A 136,136 0 0,1 73.920132726853822,111.44244830933414" />
    <path d="M 81.870578342667784,100.72251335374421 A 136,136 0 0,1 100.72251335374415,81.870578342667827" />
    <path d="M 111.4424483093341,73.920132726853851 A 136,136 0 0,1 147.5212838933931,56.856114340419595" />
    <path d="M 172.1013946699068,35.731921545826083 A 152,152 0 0,1 216.65372894645151,37.92063737870896" />
    <path d="M 245.16788171949364,46.5703110582844 A 152,152 0 0,1 283.42777919287414,69.50241108886398" />
    <path d="M 294.48023074035524,79.519769259644775 A 152,152 0 0,1 313.38338106998685,102.55332458102046" />
    <path d="M 327.4296889417156,128.83211828050634 A 152,152 0 0,1 332.45493103129576,142.87672905732174" />
    <path d="M 336.079362621291,157.34627105354849 A 152,152 0 0,1 327.4296889417156,245.16788171949364" />
    <path d="M 321.05203218094994,258.65230399755166 A 152,152 0 0,1 271.44667541897951,313.38338106998685" />
    <path d="M 245.16788171949366,327.42968894171554 A 152,152 0 0,1 216.65372894645154,336.079362621291" />
    <path d="M 187.00000000000003,339 A 152,152 0 0,1 172.1013946699068,338.26807845417392" />
    <path d="M 142.87672905732177,332.45493103129576 A 152,152 0 0,1 128.83211828050636,327.4296889417156" />
    <path d="M 90.572220807125916,304.49758891113606 A 152,152 0 0,1 69.502411088864022,283.42777919287414" />
    <path d="M 60.616618930013118,271.44667541897951 A 152,152 0 0,1 35.731921545826083,201.89860533009318" />
    <path d="M 35,187.00000000000003 A 152,152 0 0,1 35.731921545826054,172.10139466990688" />
    <path d="M 37.92063737870896,157.34627105354849 A 152,152 0 0,1 41.545068968704243,142.87672905732177" />
    <path d="M 46.570311058284432,128.83211828050634 A 152,152 0 0,1 79.519769259644747,79.5197692596448" />
    <path d="M 90.572220807125817,69.502411088864037 A 152,152 0 0,1 102.55332458102046,60.616618930013118" />
    <path d="M 115.34769600244832,52.947967819050064 A 152,152 0 0,1 128.83211828050625,46.57031105828446" />
    <path d="M 170.53312042463384,19.808965919070914 A 168,168 0 0,1 235.76782577874968,26.234023596988919" />
    <path d="M 266.19465178676762,38.837227589476356 A 168,168 0 0,1 305.79393923934,68.206060760660009" />
    <path d="M 335.16277241052364,107.80534821323238 A 168,168 0 0,1 351.77192710774273,154.22482590129044" />
    <path d="M 342.21176146189617,251.29081663733507 A 168,168 0 0,1 335.16277241052364,266.19465178676762" />
    <path d="M 316.86575616493985,293.57807173949243 A 168,168 0 0,1 266.19465178676762,335.16277241052364" />
    <path d="M 235.76782577874968,347.76597640301111 A 168,168 0 0,1 203.46687957536622,354.19103408092906" />
    <path d="M 154.22482590129044,351.77192710774273 A 168,168 0 0,1 138.23217422125038,347.76597640301111" />
    <path d="M 122.70918336266495,342.21176146189617 A 168,168 0 0,1 107.80534821323241,335.16277241052364" />
    <path d="M 93.664200852706884,326.68689486682763 A 168,168 0 0,1 80.421928260507585,316.86575616493985" />
    <path d="M 68.206060760660037,305.79393923934003 A 168,168 0 0,1 57.134243835060232,293.57807173949249" />
    <path d="M 26.234023596988919,235.76782577874968 A 168,168 0 0,1 19,187.00000000000003" />
    <path d="M 19.808965919070914,170.53312042463392 A 168,168 0 0,1 22.228072892257273,154.22482590129044" />
    <path d="M 26.234023596988891,138.23217422125038 A 168,168 0 0,1 47.313105133172371,93.664200852706884" />
    <path d="M 80.421928260507485,57.134243835060261 A 168,168 0 0,1 122.70918336266482,31.788238538103855" />
    <path d="M 205.03515382063915,3.886010292315774 A 184,184 0 1,1 187,3" />
  </g>
  <g fill="none" stroke="#000000" stroke-width="2" stroke-linecap="butt">
    <line x1="187" y1="51" x2="187" y2="83" />
    <line x1="187" y1="131" x2="187" y2="163" />
    <line x1="201.8986053300932" y1="35.731921545826054" x2="200.33033108482024" y2="51.654877172581223" />
    <line x1="207.28939348967734" y1="84.998330838064035" x2="201.04650318516124" y2="116.38345981096741" />
    <line x1="240.41238061482108" y1="10.922978225273567" x2="226.47871610660687" y2="56.856114340419595" />
    <line x1="251.29081663733507" y1="31.788238538103826" x2="245.16788171949366" y2="46.5703110582844" />
    <line x1="232.92201188381077" y1="76.134456098645586" x2="214.55320713028647" y2="120.48067365918736" />
    <line x1="208.43027221244503" y1="135.26274617936795" x2="202.3073372946036" y2="150.04481869954853" />
    <line x1="266.19465178676762" y1="38.837227589476356" x2="258.65230399755166" y2="52.947967819050035" />
    <line x1="262.55755169066589" y1="73.920132726853851" x2="227.00105677741135" y2="127.13418791421674" />
    <line x1="283.42777919287414" y1="69.50241108886398" x2="273.2774866462558" y2="81.87057834266777" />
    <line x1="305.79393923934" y1="68.206060760660009" x2="294.48023074035518" y2="79.519769259644775" />
    <line x1="283.16652224137044" y1="90.833477758629527" x2="249.22539674441617" y2="124.77460325558381" />
    <line x1="237.91168824543144" y1="136.08831175456857" x2="203.97056274847714" y2="170.02943725152286" />
    <line x1="316.86575616493985" y1="80.421928260507556" x2="304.497588911136" y2="90.572220807125888" />
    <line x1="326.68689486682763" y1="93.664200852706813" x2="300.07986727314614" y2="111.44244830933408" />
    <line x1="260.169325882624" y1="138.109819494275" x2="246.86581208578326" y2="146.99894322258865" />
    <line x1="349.27351264009729" y1="100.2630004240164" x2="321.05203218094994" y2="115.34769600244833" />
    <line x1="312.64761642153496" y1="134.9550531983478" x2="297.86554390135439" y2="141.0779881161892" />
    <line x1="283.08347138117381" y1="147.20092303403067" x2="253.51932634081265" y2="159.44679286971353" />
    <line x1="238.73725382063205" y1="165.56972778755497" x2="223.95518130045147" y2="171.6926627053964" />
    <line x1="347.76597640301111" y1="138.23217422125032" x2="332.45493103129576" y2="142.87672905732171" />
    <line x1="320.38679813483935" y1="160.46771620580654" x2="289.001669161936" y2="166.71060651032266" />
    <line x1="370.11398970768425" y1="168.96484617936082" x2="354.19103408092906" y2="170.53312042463378" />
    <line x1="355" y1="187" x2="323" y2="187" />
    <line x1="259" y1="187" x2="243" y2="187" />
    <line x1="370.11398970768425" y1="205.03515382063915" x2="354.19103408092906" y2="203.46687957536619" />
    <line x1="351.77192710774273" y1="219.77517409870953" x2="336.079362621291" y2="216.65372894645148" />
    <line x1="320.38679813483935" y1="213.53228379419343" x2="304.69423364838764" y2="210.41083864193539" />
    <line x1="347.76597640301111" y1="235.76782577874965" x2="332.45493103129576" y2="231.12327094267823" />
    <line x1="327.4296889417156" y1="245.16788171949364" x2="283.08347138117381" y2="226.79907696596933" />
    <line x1="253.51932634081265" y1="214.55320713028647" x2="238.73725382063205" y2="208.43027221244503" />
    <line x1="335.16277241052364" y1="266.19465178676762" x2="321.05203218094994" y2="258.65230399755166" />
    <line x1="326.68689486682763" y1="280.33579914729313" x2="313.38338106998691" y2="271.44667541897951" />
    <line x1="300.07986727314619" y1="262.55755169066583" x2="286.77635347630547" y2="253.66842796235224" />
    <line x1="273.47283967946476" y1="244.77930423403859" x2="246.86581208578326" y2="227.00105677741135" />
    <line x1="329.23392341874364" y1="303.72836428611072" x2="316.86575616493985" y2="293.57807173949243" />
    <line x1="283.16652224137044" y1="283.16652224137044" x2="260.53910524340097" y2="260.53910524340097" />
    <line x1="271.44667541897957" y1="313.38338106998691" x2="253.66842796235227" y2="286.77635347630542" />
    <line x1="244.77930423403862" y1="273.4728396794647" x2="227.00105677741135" y2="246.86581208578326" />
    <line x1="266.19465178676762" y1="335.16277241052364" x2="258.65230399755166" y2="321.05203218094994" />
    <line x1="257.41375155517653" y1="356.99383398207675" x2="245.16788171949366" y2="327.4296889417156" />
    <line x1="239.04494680165223" y1="312.64761642153496" x2="226.79907696596933" y2="283.08347138117381" />
    <line x1="220.6761420481279" y1="268.30139886099323" x2="208.43027221244503" y2="238.73725382063205" />
    <line x1="235.76782577874968" y1="347.76597640301111" x2="226.4787161066069" y2="317.14388565958041" />
    <line x1="213.53228379419349" y1="320.38679813483935" x2="210.41083864193544" y2="304.69423364838764" />
    <line x1="204.16794833741932" y1="273.30910467548426" x2="201.04650318516127" y2="257.61654018903261" />
    <line x1="201.89860533009323" y1="338.26807845417392" x2="200.33033108482027" y2="322.34512282741878" />
    <line x1="187.00000000000003" y1="371" x2="187.00000000000003" y2="339" />
    <line x1="187.00000000000003" y1="323" x2="187" y2="291" />
    <line x1="168.96484617936085" y1="370.11398970768425" x2="170.53312042463381" y2="354.19103408092906" />
    <line x1="154.22482590129044" y1="351.77192710774273" x2="160.46771620580654" y2="320.38679813483935" />
    <line x1="163.58916135806459" y1="304.69423364838764" x2="166.71060651032266" y2="289.001669161936" />
    <line x1="169.83205166258071" y1="273.30910467548426" x2="172.95349681483876" y2="257.61654018903261" />
    <line x1="116.5862484448235" y1="356.99383398207681" x2="134.9550531983478" y2="312.647616421535" />
    <line x1="147.20092303403067" y1="283.08347138117381" x2="153.3238579518721" y2="268.30139886099323" />
    <line x1="115.34769600244836" y1="321.05203218094994" x2="122.89004379166433" y2="306.94129195137629" />
    <line x1="84.775077124393235" y1="339.9904086636684" x2="102.55332458102051" y2="313.38338106998691" />
    <line x1="111.44244830933414" y1="300.07986727314619" x2="120.33157203764776" y2="286.77635347630547" />
    <line x1="138.10981949427503" y1="260.169325882624" x2="146.99894322258865" y2="246.86581208578326" />
    <line x1="90.572220807125916" y1="304.49758891113606" x2="100.72251335374425" y2="292.12942165733227" />
    <line x1="90.833477758629542" y1="283.1665222413705" x2="113.46089475659906" y2="260.53910524340097" />
    <line x1="158.7157287525381" y1="215.2842712474619" x2="170.02943725152286" y2="203.97056274847714" />
    <line x1="57.134243835060232" y1="293.57807173949254" x2="81.870578342667812" y2="273.27748664625585" />
    <line x1="34.009591336331681" y1="289.22492287560681" x2="47.3131051331724" y2="280.33579914729319" />
    <line x1="87.223646523694569" y1="253.66842796235227" x2="100.5271603205353" y2="244.77930423403862" />
    <line x1="38.837227589476356" y1="266.19465178676762" x2="52.947967819050064" y2="258.65230399755166" />
    <line x1="17.006166017923277" y1="257.41375155517665" x2="31.788238538103855" y2="251.29081663733518" />
    <line x1="105.69860113900678" y1="220.67614204812796" x2="120.48067365918737" y2="214.5532071302865" />
    <line x1="135.26274617936795" y1="208.43027221244506" x2="150.04481869954856" y2="202.3073372946036" />
    <line x1="6.535508405805615" y1="222.89661925096766" x2="22.228072892257302" y2="219.77517409870961" />
    <line x1="53.613201865160676" y1="213.53228379419349" x2="69.305766351612363" y2="210.41083864193544" />
    <line x1="84.998330838064049" y1="207.28939348967737" x2="100.69089532451574" y2="204.16794833741932" />
    <line x1="35.731921545826054" y1="201.89860533009318" x2="51.654877172581223" y2="200.33033108482022" />
    <line x1="19" y1="187.00000000000003" x2="35" y2="187.00000000000003" />
    <line x1="67" y1="187.00000000000003" x2="99" y2="187.00000000000003" />
    <line x1="115" y1="187" x2="131" y2="187" />
    <line x1="3.886010292315774" y1="168.96484617936093" x2="19.808965919070914" y2="170.53312042463389" />
    <line x1="22.228072892257273" y1="154.22482590129044" x2="37.920637378708989" y2="157.34627105354849" />
    <line x1="46.570311058284432" y1="128.83211828050634" x2="61.352383578465023" y2="134.95505319834777" />
    <line x1="90.916528618826192" y1="147.20092303403064" x2="105.69860113900678" y2="153.32385795187207" />
    <line x1="47.313105133172371" y1="93.664200852706884" x2="60.61661893001309" y2="102.55332458102052" />
    <line x1="87.223646523694541" y1="120.33157203764777" x2="100.52716032053527" y2="129.22069576596141" />
    <line x1="57.134243835060204" y1="80.421928260507542" x2="81.870578342667784" y2="100.72251335374421" />
    <line x1="56.892352261675228" y1="56.892352261675285" x2="79.519769259644747" y2="79.5197692596448" />
    <line x1="90.833477758629513" y1="90.833477758629556" x2="113.46089475659905" y2="113.46089475659908" />
    <line x1="136.08831175456857" y1="136.08831175456859" x2="158.7157287525381" y2="158.7157287525381" />
    <line x1="80.421928260507485" y1="57.134243835060232" x2="90.572220807125817" y2="69.502411088864022" />
    <line x1="84.775077124393192" y1="34.009591336331681" x2="93.664200852706841" y2="47.3131051331724" />
    <line x1="102.55332458102046" y1="60.616618930013118" x2="111.44244830933411" y2="73.920132726853851" />
    <line x1="128.83211828050625" y1="46.57031105828446" x2="134.95505319834771" y2="61.352383578465037" />
    <line x1="153.32385795187204" y1="105.69860113900678" x2="165.56972778755494" y2="135.26274617936795" />
    <line x1="133.5876193851789" y1="10.922978225273567" x2="142.87672905732171" y2="41.545068968704271" />
    <line x1="154.22482590129039" y1="22.228072892257302" x2="163.58916135806456" y2="69.305766351612363" />
  </g>
  <path fill="none" stroke="#ff0000" stroke-width="2" stroke-linecap="square" stroke-linejoin="round" d="M 196.02845207624492,3.2216360582482935 L 195.63591068162558,11.211999707889646 A 176,176 0 0,0 161.17543649585622,12.904934246198565 L 165.87081167842783,44.558582565071561 A 144,144 0 0,1 194.0657451031482,43.17345430645517 L 193.28066231390952,59.154181605737932 A 128,128 0 0,1 199.54619396218376,59.616354985958793 L 197.97791971691078,75.539310612713948 A 112,112 0 0,1 219.51188385249978,79.822682397992608 L 205.5782193442856,125.75581851313864 A 64,64 0 0,0 174.51421939096775,124.22974205419325 L 177.63566454322583,139.92230654064494 A 48,48 0 0,0 160.33262881505908,147.08945860947785 L 169.22175254337273,160.39297240631856 A 32,32 0 0,0 160.39297240631856,204.77824745662727 L 147.08945860947785,213.66737118494092 A 48,48 0 0,0 226.91054139052218,213.66737118494089 L 240.2140551873629,222.55649491325454 A 64,64 0 0,1 227.60117018647333,236.47266901521516 L 237.75146273309164,248.84083626901895 A 80,80 0 0,0 248.84083626901895,237.75146273309161 L 273.57717077662653,258.05204782632825 A 112,112 0 0,0 285.77518160701578,239.79643452451174 L 299.88592183658943,247.33878231372771 A 128,128 0 0,0 302.71062951980076,241.72705195907608 L 331.63828689975094,255.40881494884511 A 160,160 0 0,0 337.64705042928335,240.90237654275518 L 352.71175547221168,246.2926141970307 A 176,176 0 0,0 361.09506575380146,212.82456350414364 L 345.26824159436495,210.47687591285785 A 160,160 0 0,0 346.80727299282762,194.85082789238689 L 362.78800029211038,195.63591068162558 A 176,176 0 0,0 362.78800029211038,178.3640893183744 L 346.80727299282762,179.14917210761311 A 160,160 0 0,0 342.205000511127,148.12317121547775 L 326.68450046001431,152.01085409393 A 144,144 0 0,0 310.51291984003916,112.96920483617608 L 337.96023536004788,96.517917021992972 A 176,176 0 0,0 246.29261419703073,21.288244527788351 L 235.51213888847968,51.417654613645 A 144,144 0 0,1 272.78069984691041,71.33811546678713 L 263.24951097503146,84.189435970477447 A 128,128 0 0,1 268.20234037294665,88.054661969569665 L 237.75146273309164,125.15916373098105 A 80,80 0 0,1 248.84083626901895,136.24853726690836 L 236.47266901521516,146.39882981352668 A 64,64 0 0,1 240.2140551873629,151.44350508674546 L 213.60702759368144,169.22175254337273 A 32,32 0 0,1 174.75413016431713,216.56414504036118 L 177.81559762323786,209.17310878027089" />
  <type>Circular</type>
</svg>