<?xml version="1.0" encoding="utf-8" standalone="no"?>
<!DOCTYPE svg PUBLIC "-//W3C//DTD SVG 1.1//EN" "http://www.w3.org/Graphics/SVG/1.1/DTD/svg11.dtd"[]>
<svg width="372" height="372" version="1.1" xmlns="http://www.w3.org/2000/svg">
  <title>23 cells diameter theta maze</title>
  <g fill="none" stroke="#000000" stroke-width="2" stroke-linecap="square">
    <path d="M 170.02943725152286,203.97056274847714 A 24,24 0 1,1 187,211" />
    <path d="M 171.69266270539637,150.04481869954856 A 40,40 0 0,1 187,147" />
    <path d="M 215.2842712474619,158.7157287525381 A 40,40 0 0,1 227,187" />
    <path d="M 223.95518130045147,202.3073372946036 A 40,40 0 0,1 202.3073372946036,223.95518130045147" />
    <path d="M 187,227 A 40,40 0 0,1 150.04481869954853,171.6926627053964" />
    <path d="M 165.56972778755494,135.26274617936795 A 56,56 0 0,1 187,131" />
    <path d="M 208.43027221244503,135.26274617936795 A 56,56 0 0,1 226.59797974644667,147.40202025355333" />
    <path d="M 238.73725382063208,208.43027221244503 A 56,56 0 0,1 226.59797974644667,226.59797974644664" />
    <path d="M 131,187 A 56,56 0 0,1 135.26274617936795,165.56972778755497" />
    <path d="M 172.95349681483873,116.38345981096741 A 72,72 0 0,1 201.04650318516124,116.38345981096741" />
    <path d="M 227.00105677741135,127.13418791421674 A 72,72 0 0,1 246.86581208578326,146.99894322258865" />
    <path d="M 253.51932634081265,159.44679286971353 A 72,72 0 0,1 253.51932634081265,214.55320713028647" />
    <path d="M 246.86581208578326,227.00105677741135 A 72,72 0 0,1 159.44679286971353,253.51932634081265" />
    <path d="M 146.99894322258865,246.86581208578326 A 72,72 0 0,1 120.48067365918737,214.5532071302865" />
    <path d="M 116.38345981096741,201.04650318516127 A 72,72 0 0,1 116.38345981096741,172.95349681483876" />
    <path d="M 120.48067365918736,159.44679286971353 A 72,72 0 0,1 136.08831175456857,136.08831175456859" />
    <path d="M 146.99894322258865,127.13418791421674 A 72,72 0 0,1 159.44679286971348,120.48067365918737" />
    <path d="M 169.83205166258068,100.69089532451572 A 88,88 0 0,1 187,99" />
    <path d="M 220.6761420481279,105.69860113900677 A 88,88 0 0,1 273.30910467548426,169.83205166258071" />
    <path d="M 268.30139886099323,220.6761420481279 A 88,88 0 0,1 260.169325882624,235.89018050572497" />
    <path d="M 235.89018050572497,260.169325882624 A 88,88 0 0,1 220.6761420481279,268.30139886099323" />
    <path d="M 169.83205166258071,273.30910467548426 A 88,88 0 0,1 153.32385795187213,268.30139886099323" />
    <path d="M 100.69089532451572,169.83205166258071 A 88,88 0 0,1 105.69860113900677,153.32385795187207" />
    <path d="M 124.7746032555838,124.77460325558383 A 88,88 0 0,1 138.109819494275,113.83067411737602" />
    <path d="M 207.28939348967734,84.998330838064035 A 104,104 0 0,1 226.79907696596933,90.916528618826177" />
    <path d="M 273.4728396794647,129.22069576596135 A 104,104 0 0,1 289.001669161936,207.28939348967734" />
    <path d="M 273.47283967946476,244.77930423403859 A 104,104 0 0,1 226.79907696596933,283.08347138117381" />
    <path d="M 207.28939348967737,289.001669161936 A 104,104 0 0,1 147.20092303403067,283.08347138117381" />
    <path d="M 113.46089475659908,260.53910524340097 A 104,104 0 0,1 84.998330838064035,207.28939348967737" />
    <path d="M 83,187.00000000000003 A 104,104 0 0,1 84.998330838064035,166.71060651032266" />
    <path d="M 113.46089475659905,113.46089475659908 A 104,104 0 0,1 129.22069576596135,100.5271603205353" />
    <path d="M 187,67 A 120,120 0 0,1 232.92201188381077,76.134456098645586" />
    <path d="M 253.66842796235227,87.223646523694569 A 120,120 0 0,1 286.77635347630542,120.33157203764773" />
    <path d="M 304.69423364838764,163.58916135806459 A 120,120 0 0,1 307,187" />
    <path d="M 297.86554390135439,232.92201188381077 A 120,120 0 0,1 286.77635347630542,253.66842796235224" />
    <path d="M 253.66842796235227,286.77635347630542 A 120,120 0 0,1 232.9220118838108,297.86554390135439" />
    <path d="M 210.41083864193544,304.69423364838764 A 120,120 0 0,1 187.00000000000003,307" />
    <path d="M 163.58916135806459,304.69423364838764 A 120,120 0 0,1 141.07798811618926,297.86554390135439" />
    <path d="M 102.14718625761431,271.85281374238571 A 120,120 0 0,1 76.134456098645614,232.92201188381085" />
    <path d="M 69.305766351612348,163.58916135806462 A 120,120 0 0,1 76.1344560986456,141.0779881161892" />
    <path d="M 141.07798811618915,76.134456098645614 A 120,120 0 0,1 163.58916135806456,69.305766351612363" />
    <path d="M 173.66966891517978,51.654877172581223 A 136,136 0 0,1 187,51" />
    <path d="M 200.33033108482024,51.654877172581223 A 136,136 0 0,1 213.53228379419343,53.613201865160647" />
    <path d="M 226.4787161066069,56.856114340419595 A 136,136 0 0,1 239.0449468016522,61.352383578464995" />
    <path d="M 251.10995620833569,67.058708048623714 A 136,136 0 0,1 273.2774866462558,81.87057834266777" />
    <path d="M 292.12942165733222,100.72251335374421 A 136,136 0 0,1 300.07986727314614,111.4424483093341" />
    <path d="M 306.94129195137629,122.8900437916643 A 136,136 0 0,1 312.64761642153496,134.9550531983478" />
    <path d="M 322.34512282741878,173.66966891517973 A 136,136 0 0,1 323,187" />
    <path d="M 322.34512282741878,200.33033108482024 A 136,136 0 0,1 320.38679813483935,213.53228379419343" />
    <path d="M 317.14388565958041,226.47871610660687 A 136,136 0 0,1 306.94129195137629,251.10995620833569" />
    <path d="M 300.07986727314619,262.55755169066589 A 136,136 0 0,1 292.12942165733227,273.27748664625574" />
    <path d="M 283.16652224137044,283.16652224137044 A 136,136 0 0,1 262.55755169066589,300.07986727314619" />
    <path d="M 251.10995620833569,306.94129195137629 A 136,136 0 0,1 239.04494680165223,312.64761642153496" />
    <path d="M 226.4787161066069,317.14388565958041 A 136,136 0 0,1 213.53228379419349,320.3867981348393" />
    <path d="M 173.66966891517976,322.34512282741878 A 136,136 0 0,1 147.52128389339316,317.14388565958041" />
    <path d="M 134.9550531983478,312.647616421535 A 136,136 0 0,1 100.72251335374423,292.12942165733227" />
    <path d="M 90.833477758629556,283.16652224137044 A 136,136 0 0,1 73.920132726853836,262.55755169066589" />
    <path d="M 67.058708048623728,251.10995620833572 A 136,136 0 0,1 61.352383578465037,239.04494680165229" />
    <path d="M 56.856114340419595,226.4787161066069 A 136,136 0 0,1 51,187.00000000000003" />
    <path d="M 56.856114340419595,147.52128389339316 A 136,136 0 0,1 67.058708048623714,122.89004379166433" />
    <path d="M 90.833477758629513,90.833477758629556 A 136,136 0 0,1 147.5212838933931,56.856114340419595" />
    <path d="M 187,35 A 152,152 0 0,1 201.8986053300932,35.731921545826083" />
    <path d="M 245.16788171949364,46.5703110582844 A 152,152 0 0,1 258.65230399755166,52.947967819050035" />
    <path d="M 283.42777919287414,69.50241108886398 A 152,152 0 0,1 304.497588911136,90.572220807125873" />
    <path d="M 313.38338106998685,102.55332458102046 A 152,152 0 0,1 321.05203218094994,115.34769600244833" />
    <path d="M 327.4296889417156,128.83211828050634 A 152,152 0 0,1 332.45493103129576,142.87672905732174" />
    <path d="M 336.079362621291,216.65372894645148 A 152,152 0 0,1 294.48023074035524,294.48023074035518" />
    <path d="M 283.42777919287414,304.497588911136 A 152,152 0 0,1 271.44667541897951,313.38338106998685" />
    <path d="M 258.65230399755166,321.05203218094994 A 152,152 0 0,1 231.12327094267829,332.45493103129576" />
    <path d="M 216.65372894645154,336.079362621291 A 152,152 0 0,1 157.34627105354849,336.079362621291" />
    <path d="M 128.83211828050636,327.4296889417156 A 152,152 0 0,1 79.519769259644789,294.48023074035524" />
    <path d="M 69.502411088864022,283.42777919287414 A 152,152 0 0,1 52.947967819050064,258.65230399755171" />
    <path d="M 46.57031105828446,245.16788171949372 A 152,152 0 0,1 35.731921545826083,201.89860533009318" />
    <path d="M 35.731921545826054,172.10139466990688 A 152,152 0 0,1 46.570311058284432,128.83211828050634" />
    <path d="M 60.61661893001309,102.55332458102052 A 152,152 0 0,1 102.55332458102046,60.616618930013118" />
    <path d="M 115.34769600244832,52.947967819050064 A 152,152 0 0,1 157.34627105354844,37.920637378708989" />
    <path d="M 80.421928260507485,57.134243835060261 A 168,168 0 0,1 187,19" />
    <path d="M 203.46687957536619,19.808965919070914 A 168,168 0 0,1 251.29081663733507,31.788238538103826" />
    <path d="M 266.19465178676762,38.837227589476356 A 168,168 0 0,1 293.57807173949243,57.134243835060175" />
    <path d="M 316.8657561649398,80.421928260507556 A 168,168 0 0,1 355,187" />
    <path d="M 354.19103408092906,203.46687957536619 A 168,168 0 0,1 347.76597640301111,235.76782577874965" />
    <path d="M 342.21176146189617,251.29081663733507 A 168,168 0 0,1 335.16277241052364,266.19465178676762" />
    <path d="M 326.68689486682763,280.33579914729313 A 168,168 0 0,1 293.57807173949243,316.86575616493985" />
    <path d="M 219.77517409870961,351.77192710774273 A 168,168 0 0,1 187.00000000000003,355" />
    <path d="M 154.22482590129044,351.77192710774273 A 168,168 0 0,1 57.134243835060232,293.57807173949249" />
    <path d="M 38.837227589476385,266.19465178676762 A 168,168 0 0,1 31.788238538103855,251.29081663733518" />
    <path d="M 26.234023596988919,235.76782577874968 A 168,168 0 0,1 19,187.00000000000003" />
    <path d="M 19.808965919070914,170.53312042463392 A 168,168 0 0,1 22.228072892257273,154.22482590129044" />
    <path d="M 26.234023596988891,138.23217422125038 A 168,168 0 0,1 38.837227589476356,107.80534821323241" />
    <path d="M 47.313105133172371,93.664200852706884 A 168,168 0 0,1 57.134243835060204,80.421928260507542" />
    <path d="M 205.03515382063915,3.886010292315774 A 184,184 0 1,1 187,3" />
  </g>
  <g fill="none" stroke="#000000" stroke-width="2" stroke-linecap="butt">
    <line x1="187" y1="3" x2="187" y2="35" />
    <line x1="187" y1="51" x2="187" y2="99" />
    <line x1="187" y1="115" x2="187" y2="163" />
    <line x1="201.8986053300932" y1="35.731921545826054" x2="200.33033108482024" y2="51.654877172581223" />
    <line x1="219.77517409870956" y1="22.228072892257273" x2="213.53228379419343" y2="53.613201865160647" />
    <line x1="210.41083864193539" y1="69.305766351612348" x2="207.28939348967734" y2="84.998330838064035" />
    <line x1="204.16794833741929" y1="100.69089532451572" x2="201.04650318516124" y2="116.38345981096741" />
    <line x1="231.12327094267829" y1="41.545068968704271" x2="226.47871610660687" y2="56.856114340419595" />
    <line x1="251.29081663733507" y1="31.788238538103826" x2="245.16788171949366" y2="46.5703110582844" />
    <line x1="239.0449468016522" y1="61.352383578465009" x2="232.92201188381077" y2="76.134456098645586" />
    <line x1="226.79907696596933" y1="90.916528618826177" x2="202.3073372946036" y2="150.04481869954853" />
    <line x1="289.22492287560681" y1="34.009591336331681" x2="262.55755169066589" y2="73.920132726853851" />
    <line x1="253.66842796235227" y1="87.223646523694569" x2="235.890180505725" y2="113.83067411737602" />
    <line x1="317.10764773832477" y1="56.892352261675256" x2="283.16652224137044" y2="90.833477758629527" />
    <line x1="260.53910524340097" y1="113.46089475659905" x2="249.22539674441617" y2="124.77460325558381" />
    <line x1="237.91168824543144" y1="136.08831175456857" x2="215.2842712474619" y2="158.7157287525381" />
    <line x1="326.68689486682763" y1="93.664200852706813" x2="313.38338106998685" y2="102.55332458102045" />
    <line x1="300.07986727314614" y1="111.44244830933408" x2="286.77635347630542" y2="120.33157203764773" />
    <line x1="349.27351264009729" y1="100.2630004240164" x2="335.16277241052364" y2="107.80534821323236" />
    <line x1="321.05203218094994" y1="115.34769600244833" x2="306.94129195137629" y2="122.8900437916643" />
    <line x1="327.4296889417156" y1="128.83211828050634" x2="283.08347138117381" y2="147.20092303403067" />
    <line x1="253.51932634081265" y1="159.44679286971353" x2="223.95518130045147" y2="171.6926627053964" />
    <line x1="332.45493103129576" y1="142.87672905732171" x2="317.14388565958041" y2="147.52128389339313" />
    <line x1="351.77192710774273" y1="154.22482590129044" x2="304.69423364838764" y2="163.58916135806459" />
    <line x1="354.19103408092906" y1="170.53312042463378" x2="322.34512282741878" y2="173.66966891517973" />
    <line x1="339" y1="187" x2="323" y2="187" />
    <line x1="275" y1="187" x2="259" y2="187" />
    <line x1="243" y1="187" x2="227" y2="187" />
    <line x1="354.19103408092906" y1="203.46687957536619" x2="322.34512282741878" y2="200.33033108482024" />
    <line x1="320.38679813483935" y1="213.53228379419343" x2="304.69423364838764" y2="210.41083864193539" />
    <line x1="289.001669161936" y1="207.28939348967734" x2="273.30910467548426" y2="204.16794833741929" />
    <line x1="363.0770217747264" y1="240.41238061482105" x2="347.76597640301111" y2="235.76782577874965" />
    <line x1="332.45493103129576" y1="231.12327094267823" x2="317.14388565958041" y2="226.47871610660684" />
    <line x1="312.64761642153496" y1="239.0449468016522" x2="223.95518130045147" y2="202.3073372946036" />
    <line x1="335.16277241052364" y1="266.19465178676762" x2="321.05203218094994" y2="258.65230399755166" />
    <line x1="339.9904086636684" y1="289.22492287560675" x2="326.68689486682763" y2="280.33579914729313" />
    <line x1="313.38338106998691" y1="271.44667541897951" x2="300.07986727314619" y2="262.55755169066583" />
    <line x1="294.48023074035524" y1="294.48023074035518" x2="271.85281374238571" y2="271.85281374238571" />
    <line x1="260.53910524340097" y1="260.53910524340097" x2="249.22539674441617" y2="249.22539674441617" />
    <line x1="293.57807173949243" y1="316.86575616493985" x2="283.42777919287414" y2="304.497588911136" />
    <line x1="289.22492287560681" y1="339.99040866366835" x2="280.33579914729319" y2="326.68689486682763" />
    <line x1="253.66842796235227" y1="286.77635347630542" x2="244.77930423403862" y2="273.4728396794647" />
    <line x1="235.890180505725" y1="260.169325882624" x2="227.00105677741135" y2="246.86581208578326" />
    <line x1="266.19465178676762" y1="335.16277241052364" x2="258.65230399755166" y2="321.05203218094994" />
    <line x1="257.41375155517653" y1="356.99383398207675" x2="251.2908166373351" y2="342.21176146189617" />
    <line x1="245.16788171949366" y1="327.4296889417156" x2="232.9220118838108" y2="297.86554390135439" />
    <line x1="226.79907696596933" y1="283.08347138117381" x2="220.6761420481279" y2="268.30139886099323" />
    <line x1="214.55320713028647" y1="253.51932634081265" x2="202.3073372946036" y2="223.95518130045147" />
    <line x1="235.76782577874968" y1="347.76597640301111" x2="231.12327094267829" y2="332.4549310312957" />
    <line x1="216.65372894645154" y1="336.079362621291" x2="210.41083864193544" y2="304.69423364838764" />
    <line x1="204.16794833741932" y1="273.30910467548426" x2="201.04650318516127" y2="257.61654018903261" />
    <line x1="205.03515382063918" y1="370.11398970768425" x2="203.46687957536622" y2="354.19103408092906" />
    <line x1="201.89860533009323" y1="338.26807845417392" x2="200.33033108482027" y2="322.34512282741878" />
    <line x1="187.00000000000003" y1="323" x2="187.00000000000003" y2="307" />
    <line x1="187" y1="275" x2="187" y2="259" />
    <line x1="187" y1="243" x2="187" y2="211" />
    <line x1="168.96484617936085" y1="370.11398970768425" x2="172.1013946699068" y2="338.268078454174" />
    <line x1="160.46771620580654" y1="320.38679813483935" x2="163.58916135806459" y2="304.69423364838764" />
    <line x1="166.71060651032266" y1="289.001669161936" x2="169.83205166258071" y2="273.30910467548426" />
    <line x1="138.23217422125038" y1="347.76597640301111" x2="147.52128389339316" y2="317.14388565958041" />
    <line x1="128.83211828050636" y1="327.4296889417156" x2="134.9550531983478" y2="312.647616421535" />
    <line x1="141.07798811618923" y1="297.86554390135444" x2="147.20092303403067" y2="283.08347138117381" />
    <line x1="153.3238579518721" y1="268.30139886099323" x2="165.56972778755497" y2="238.73725382063208" />
    <line x1="111.44244830933414" y1="300.07986727314619" x2="146.99894322258865" y2="246.86581208578326" />
    <line x1="79.519769259644789" y1="294.48023074035524" x2="102.14718625761431" y2="271.85281374238571" />
    <line x1="113.46089475659906" y1="260.53910524340097" x2="124.77460325558383" y2="249.2253967444162" />
    <line x1="136.08831175456857" y1="237.91168824543144" x2="147.40202025355336" y2="226.59797974644667" />
    <line x1="57.134243835060232" y1="293.57807173949254" x2="69.502411088864022" y2="283.4277791928742" />
    <line x1="34.009591336331681" y1="289.22492287560681" x2="47.3131051331724" y2="280.33579914729319" />
    <line x1="87.223646523694569" y1="253.66842796235227" x2="113.83067411737602" y2="235.890180505725" />
    <line x1="38.837227589476356" y1="266.19465178676762" x2="52.947967819050064" y2="258.65230399755166" />
    <line x1="31.788238538103855" y1="251.29081663733518" x2="46.57031105828446" y2="245.16788171949372" />
    <line x1="61.352383578465037" y1="239.04494680165229" x2="76.134456098645614" y2="232.92201188381085" />
    <line x1="105.69860113900678" y1="220.67614204812796" x2="120.48067365918737" y2="214.5532071302865" />
    <line x1="135.26274617936795" y1="208.43027221244506" x2="150.04481869954856" y2="202.3073372946036" />
    <line x1="26.234023596988919" y1="235.76782577874968" x2="56.856114340419595" y2="226.4787161066069" />
    <line x1="53.613201865160676" y1="213.53228379419349" x2="69.305766351612363" y2="210.41083864193544" />
    <line x1="84.998330838064049" y1="207.28939348967737" x2="116.38345981096742" y2="201.04650318516127" />
    <line x1="19" y1="187.00000000000003" x2="35" y2="187.00000000000003" />
    <line x1="51" y1="187.00000000000003" x2="83" y2="187.00000000000003" />
    <line x1="99" y1="187.00000000000003" x2="131" y2="187" />
    <line x1="35.731921545826054" y1="172.10139466990688" x2="51.654877172581223" y2="173.66966891517984" />
    <line x1="6.535508405805615" y1="151.1033807490324" x2="22.228072892257273" y2="154.22482590129044" />
    <line x1="53.613201865160647" y1="160.46771620580654" x2="69.305766351612348" y2="163.58916135806462" />
    <line x1="84.998330838064035" y1="166.71060651032266" x2="100.69089532451572" y2="169.83205166258071" />
    <line x1="41.545068968704243" y1="142.87672905732177" x2="56.856114340419595" y2="147.52128389339316" />
    <line x1="61.352383578465023" y1="134.95505319834777" x2="76.1344560986456" y2="141.0779881161892" />
    <line x1="90.916528618826192" y1="147.20092303403064" x2="120.48067365918736" y2="159.44679286971353" />
    <line x1="135.26274617936795" y1="165.56972778755497" x2="150.04481869954853" y2="171.6926627053964" />
    <line x1="24.726487359902677" y1="100.26300042401644" x2="67.058708048623714" y2="122.89004379166433" />
    <line x1="73.920132726853822" y1="111.44244830933415" x2="127.13418791421672" y2="146.99894322258865" />
    <line x1="57.134243835060204" y1="80.421928260507542" x2="81.870578342667784" y2="100.72251335374421" />
    <line x1="56.892352261675228" y1="56.892352261675285" x2="68.20606076066" y2="68.206060760660051" />
    <line x1="90.833477758629513" y1="90.833477758629556" x2="102.14718625761428" y2="102.14718625761432" />
    <line x1="124.7746032555838" y1="124.77460325558383" x2="170.02943725152286" y2="170.02943725152286" />
    <line x1="80.421928260507485" y1="57.134243835060232" x2="90.572220807125817" y2="69.502411088864022" />
    <line x1="111.44244830933411" y1="73.920132726853851" x2="138.109819494275" y2="113.83067411737602" />
    <line x1="115.34769600244832" y1="52.947967819050064" x2="122.89004379166428" y2="67.058708048623743" />
    <line x1="122.70918336266482" y1="31.788238538103855" x2="128.83211828050625" y2="46.57031105828446" />
    <line x1="141.07798811618915" y1="76.134456098645614" x2="159.44679286971348" y2="120.48067365918737" />
    <line x1="157.34627105354844" y1="37.920637378708989" x2="160.46771620580648" y2="53.613201865160676" />
    <line x1="163.58916135806456" y1="69.305766351612363" x2="169.83205166258068" y2="100.69089532451574" />
    <line x1="172.1013946699068" y1="35.731921545826054" x2="173.66966891517978" y2="51.654877172581223" />
  </g>
  <path fill="none" stroke="#ff0000" stroke-width="2" stroke-linecap="square" stroke-linejoin="round" d="M 196.02845207624492,3.2216360582482935 L 195.63591068162558,11.211999707889646 A 176,176 0 0,1 262.24969644372965,27.897884410273974 L 255.40881494884513,42.361713100249062 A 160,160 0 0,1 269.25643907091546,49.763422399956454 L 261.03079516382394,63.487080159960811 A 144,144 0 0,0 235.51213888847968,51.417654613645 L 240.90237654275521,36.352949570716675 A 160,160 0 0,0 225.87682878452222,31.794999488872975 L 218.10146302761777,62.835999591098371 A 128,128 0 0,0 193.28066231390952,59.154181605737932 L 194.0657451031482,43.17345430645517 A 144,144 0 0,0 179.9342548968518,43.17345430645517 L 179.14917210761311,27.192727007172408 A 160,160 0 0,0 163.523124087142,28.731758405635048 L 168.21849926971362,60.385406724508044 A 128,128 0 0,0 126.66121768627227,74.114078163410582 L 149.28826105392017,116.44629885213161 A 80,80 0 0,0 136.24853726690833,125.15916373098108 L 146.39882981352668,137.52733098478484 A 64,64 0 0,1 168.4217806557144,125.75581851313864 L 163.777225819643,110.4447731414233 A 80,80 0 0,1 194.84137122636486,107.38522186622424 L 196.40964547163782,91.4622662394691 A 96,96 0 0,1 214.86732901642839,95.133727769707946 L 205.5782193442856,125.75581851313864 A 64,64 0 0,0 199.48578060903222,124.22974205419325 L 193.2428903045161,155.61487102709663 A 32,32 0 0,1 193.24289030451612,218.38512897290337 L 199.48578060903222,249.77025794580675 A 64,64 0 0,1 174.51421939096778,249.77025794580675 L 177.63566454322583,234.07769345935506 A 48,48 0 0,1 160.33262881505911,226.91054139052218 L 151.44350508674546,240.2140551873629 A 64,64 0 0,0 156.83060884313616,243.44296091829472 L 126.6612176862723,299.88592183658943 A 128,128 0 0,0 143.87809876579581,307.51764034342665 L 133.09762345724479,337.64705042928335 A 160,160 0 0,1 68.447819943206582,294.44943277552295 L 80.303037948885915,283.70448949797071 A 144,144 0 0,1 51.417654613645,235.51213888847968 L 66.482359656573337,230.12190123420416 A 128,128 0 0,1 64.51163702627727,224.1564386885712 L 79.822682397992608,219.51188385249981 A 112,112 0 0,1 75.539310612713948,197.97791971691078 L 91.4622662394691,196.40964547163782 A 96,96 0 0,1 91.462266239469088,177.59035452836224 L 107.38522186622424,179.1586287736352 A 80,80 0 0,1 110.44477314142328,163.77722581964304 L 125.75581851313862,168.42178065571443 A 64,64 0 0,1 133.7859448126371,151.44350508674549 L 160.39297240631854,169.22175254337273 A 32,32 0 0,0 174.75413016431713,216.56414504036118 L 177.81559762323786,209.17310878027089" />
  <type>Circular</type>
</svg>