<?xml version="1.0" encoding="utf-8" standalone="no"?>
<!DOCTYPE svg PUBLIC "-//W3C//DTD SVG 1.1//EN" "http://www.w3.org/Graphics/SVG/1.1/DTD/svg11.dtd"[]>
<svg width="372" height="372" version="1.1" xmlns="http://www.w3.org/2000/svg">
  <title>23 cells diameter theta maze</title>
  <g fill="none" stroke="#000000" stroke-width="2" stroke-linecap="square">
    <path d="M 170.02943725152286,203.97056274847714 A 24,24 0 1,1 187,211" />
    <path d="M 202.3073372946036,150.04481869954853 A 40,40 0 0,1 223.95518130045147,171.6926627053964" />
    <path d="M 223.95518130045147,202.3073372946036 A 40,40 0 0,1 158.7157287525381,215.2842712474619" />
    <path d="M 150.04481869954853,202.3073372946036 A 40,40 0 0,1 158.7157287525381,158.7157287525381" />
    <path d="M 187,131 A 56,56 0 0,1 226.59797974644667,147.40202025355333" />
    <path d="M 238.73725382063208,208.43027221244503 A 56,56 0 0,1 187,243" />
    <path d="M 131,187 A 56,56 0 0,1 165.56972778755494,135.26274617936795" />
    <path d="M 146.99894322258865,127.13418791421674 A 72,72 0 0,1 201.04650318516124,116.38345981096741" />
    <path d="M 214.55320713028647,120.48067365918736 A 72,72 0 0,1 227.00105677741135,127.13418791421674" />
    <path d="M 246.86581208578326,146.99894322258865 A 72,72 0 0,1 253.51932634081265,159.44679286971353" />
    <path d="M 257.61654018903261,172.95349681483876 A 72,72 0 0,1 146.99894322258865,246.86581208578326" />
    <path d="M 136.08831175456859,237.91168824543144 A 72,72 0 0,1 127.13418791421674,227.00105677741135" />
    <path d="M 120.48067365918737,214.5532071302865 A 72,72 0 0,1 116.38345981096741,201.04650318516127" />
    <path d="M 115,187 A 72,72 0 0,1 116.38345981096741,172.95349681483876" />
    <path d="M 127.13418791421672,146.99894322258865 A 72,72 0 0,1 136.08831175456857,136.08831175456859" />
    <path d="M 169.83205166258068,100.69089532451572 A 88,88 0 0,1 204.16794833741929,100.69089532451572" />
    <path d="M 220.6761420481279,105.69860113900677 A 88,88 0 0,1 260.169325882624,138.109819494275" />
    <path d="M 268.30139886099323,153.3238579518721 A 88,88 0 0,1 273.30910467548426,169.83205166258071" />
    <path d="M 275,187 A 88,88 0 0,1 268.30139886099323,220.6761420481279" />
    <path d="M 204.16794833741932,273.30910467548426 A 88,88 0 0,1 124.77460325558383,249.2253967444162" />
    <path d="M 113.83067411737602,235.890180505725 A 88,88 0 0,1 105.69860113900678,220.67614204812796" />
    <path d="M 100.69089532451572,204.16794833741932 A 88,88 0 0,1 105.69860113900677,153.32385795187207" />
    <path d="M 187,83 A 104,104 0 0,1 207.28939348967734,84.998330838064035" />
    <path d="M 260.53910524340097,113.46089475659906 A 104,104 0 0,1 273.4728396794647,129.22069576596135" />
    <path d="M 289.001669161936,166.71060651032266 A 104,104 0 0,1 291,187" />
    <path d="M 289.001669161936,207.28939348967734 A 104,104 0 0,1 244.77930423403862,273.4728396794647" />
    <path d="M 166.71060651032266,289.001669161936 A 104,104 0 0,1 147.20092303403067,283.08347138117381" />
    <path d="M 129.22069576596141,273.47283967946476 A 104,104 0 0,1 100.52716032053529,244.77930423403862" />
    <path d="M 90.9165286188262,226.79907696596939 A 104,104 0 0,1 83,187.00000000000003" />
    <path d="M 113.46089475659905,113.46089475659908 A 104,104 0 0,1 129.22069576596135,100.5271603205353" />
    <path d="M 163.58916135806456,69.305766351612363 A 120,120 0 0,1 232.92201188381077,76.134456098645586" />
    <path d="M 286.77635347630542,120.33157203764773 A 120,120 0 0,1 304.69423364838764,163.58916135806459" />
    <path d="M 307,187 A 120,120 0 0,1 304.69423364838764,210.41083864193539" />
    <path d="M 286.77635347630542,253.66842796235224 A 120,120 0 0,1 210.41083864193544,304.69423364838764" />
    <path d="M 187.00000000000003,307 A 120,120 0 0,1 163.58916135806459,304.69423364838764" />
    <path d="M 141.07798811618926,297.86554390135439 A 120,120 0 0,1 120.33157203764777,286.77635347630547" />
    <path d="M 102.14718625761431,271.85281374238571 A 120,120 0 0,1 76.134456098645614,232.92201188381085" />
    <path d="M 102.14718625761428,102.14718625761432 A 120,120 0 0,1 141.07798811618915,76.134456098645614" />
    <path d="M 173.66966891517978,51.654877172581223 A 136,136 0 0,1 273.2774866462558,81.87057834266777" />
    <path d="M 283.16652224137044,90.833477758629527 A 136,136 0 0,1 292.12942165733222,100.72251335374421" />
    <path d="M 306.94129195137629,122.8900437916643 A 136,136 0 0,1 317.14388565958041,147.52128389339313" />
    <path d="M 320.38679813483935,160.46771620580654 A 136,136 0 0,1 323,187" />
    <path d="M 322.34512282741878,200.33033108482024 A 136,136 0 0,1 317.14388565958041,226.47871610660687" />
    <path d="M 312.647616421535,239.0449468016522 A 136,136 0 0,1 306.94129195137629,251.10995620833569" />
    <path d="M 292.12942165733227,273.27748664625574 A 136,136 0 0,1 283.16652224137044,283.16652224137044" />
    <path d="M 273.2774866462558,292.12942165733222 A 136,136 0 0,1 262.55755169066589,300.07986727314619" />
    <path d="M 239.04494680165223,312.64761642153496 A 136,136 0 0,1 213.53228379419349,320.3867981348393" />
    <path d="M 200.33033108482027,322.34512282741878 A 136,136 0 0,1 173.66966891517976,322.34512282741878" />
    <path d="M 147.52128389339316,317.14388565958041 A 136,136 0 0,1 100.72251335374423,292.12942165733227" />
    <path d="M 90.833477758629556,283.16652224137044 A 136,136 0 0,1 73.920132726853836,262.55755169066589" />
    <path d="M 67.058708048623728,251.10995620833572 A 136,136 0 0,1 51.654877172581223,200.33033108482022" />
    <path d="M 51,187.00000000000003 A 136,136 0 0,1 53.613201865160647,160.46771620580654" />
    <path d="M 56.856114340419595,147.52128389339316 A 136,136 0 0,1 67.058708048623714,122.89004379166433" />
    <path d="M 73.920132726853822,111.44244830933414 A 136,136 0 0,1 122.89004379166428,67.058708048623743" />
    <path d="M 201.8986053300932,35.731921545826083 A 152,152 0 0,1 231.12327094267829,41.545068968704243" />
    <path d="M 245.16788171949364,46.5703110582844 A 152,152 0 0,1 271.44667541897957,60.616618930013118" />
    <path d="M 294.48023074035524,79.519769259644775 A 152,152 0 0,1 313.38338106998685,102.55332458102046" />
    <path d="M 327.4296889417156,128.83211828050634 A 152,152 0 0,1 336.079362621291,216.65372894645148" />
    <path d="M 332.45493103129576,231.12327094267826 A 152,152 0 0,1 327.4296889417156,245.16788171949364" />
    <path d="M 313.38338106998691,271.44667541897951 A 152,152 0 0,1 283.42777919287414,304.497588911136" />
    <path d="M 271.44667541897951,313.38338106998685 A 152,152 0 0,1 258.65230399755166,321.05203218094994" />
    <path d="M 231.12327094267829,332.45493103129576 A 152,152 0 0,1 201.89860533009323,338.26807845417392" />
    <path d="M 187.00000000000003,339 A 152,152 0 0,1 172.1013946699068,338.26807845417392" />
    <path d="M 157.34627105354849,336.079362621291 A 152,152 0 0,1 102.55332458102051,313.38338106998691" />
    <path d="M 90.572220807125916,304.49758891113606 A 152,152 0 0,1 79.519769259644789,294.48023074035524" />
    <path d="M 69.502411088864022,283.42777919287414 A 152,152 0 0,1 37.920637378708989,216.65372894645157" />
    <path d="M 35.731921545826083,201.89860533009318 A 152,152 0 0,1 46.570311058284432,128.83211828050634" />
    <path d="M 52.947967819050035,115.34769600244837 A 152,152 0 0,1 102.55332458102046,60.616618930013118" />
    <path d="M 115.34769600244832,52.947967819050064 A 152,152 0 0,1 172.1013946699068,35.731921545826083" />
    <path d="M 187,19 A 168,168 0 0,1 280.33579914729319,47.3131051331724" />
    <path d="M 293.57807173949243,57.134243835060175 A 168,168 0 0,1 316.8657561649398,80.421928260507556" />
    <path d="M 326.68689486682763,93.664200852706827 A 168,168 0 0,1 342.21176146189617,251.29081663733507" />
    <path d="M 335.16277241052364,266.19465178676762 A 168,168 0 0,1 305.79393923934,305.79393923934" />
    <path d="M 280.33579914729319,326.68689486682763 A 168,168 0 0,1 235.76782577874968,347.76597640301111" />
    <path d="M 187.00000000000003,355 A 168,168 0 0,1 154.22482590129044,351.77192710774273" />
    <path d="M 138.23217422125038,347.76597640301111 A 168,168 0 0,1 122.70918336266495,342.21176146189617" />
    <path d="M 107.80534821323241,335.16277241052364 A 168,168 0 0,1 80.421928260507585,316.86575616493985" />
    <path d="M 68.206060760660037,305.79393923934003 A 168,168 0 0,1 31.788238538103855,251.29081663733518" />
    <path d="M 22.228072892257302,219.77517409870961 A 168,168 0 0,1 19.808965919070914,203.46687957536616" />
    <path d="M 19,187.00000000000003 A 168,168 0 0,1 19.808965919070914,170.53312042463392" />
    <path d="M 22.228072892257273,154.22482590129044 A 168,168 0 0,1 31.788238538103855,122.70918336266487" />
    <path d="M 38.837227589476356,107.80534821323241 A 168,168 0 0,1 80.421928260507485,57.134243835060261" />
    <path d="M 122.70918336266482,31.788238538103855 A 168,168 0 0,1 138.23217422125032,26.234023596988919" />
    <path d="M 154.22482590129039,22.228072892257302 A 168,168 0 0,1 170.53312042463384,19.808965919070914" />
    <path d="M 205.03515382063915,3.886010292315774 A 184,184 0 1,1 187,3" />
  </g>
  <g fill="none" stroke="#000000" stroke-width="2" stroke-linecap="butt">
    <line x1="187" y1="19" x2="187" y2="51" />
    <line x1="187" y1="115" x2="187" y2="163" />
    <line x1="207.28939348967734" y1="84.998330838064035" x2="204.16794833741929" y2="100.69089532451572" />
    <line x1="231.12327094267829" y1="41.545068968704271" x2="226.47871610660687" y2="56.856114340419595" />
    <line x1="232.92201188381077" y1="76.134456098645586" x2="214.55320713028647" y2="120.48067365918736" />
    <line x1="280.33579914729319" y1="47.3131051331724" x2="271.44667541897957" y2="60.616618930013118" />
    <line x1="262.55755169066589" y1="73.920132726853851" x2="244.77930423403862" y2="100.5271603205353" />
    <line x1="293.57807173949243" y1="57.134243835060175" x2="273.2774866462558" y2="81.87057834266777" />
    <line x1="294.48023074035518" y1="79.519769259644775" x2="249.22539674441617" y2="124.77460325558381" />
    <line x1="237.91168824543144" y1="136.08831175456857" x2="226.59797974644664" y2="147.40202025355333" />
    <line x1="329.23392341874364" y1="70.271635713889225" x2="316.86575616493985" y2="80.421928260507556" />
    <line x1="326.68689486682763" y1="93.664200852706813" x2="300.07986727314614" y2="111.44244830933408" />
    <line x1="260.169325882624" y1="138.109819494275" x2="246.86581208578326" y2="146.99894322258865" />
    <line x1="335.16277241052364" y1="107.80534821323236" x2="321.05203218094994" y2="115.34769600244833" />
    <line x1="327.4296889417156" y1="128.83211828050634" x2="312.64761642153496" y2="134.9550531983478" />
    <line x1="297.86554390135439" y1="141.0779881161892" x2="223.95518130045147" y2="171.6926627053964" />
    <line x1="320.38679813483935" y1="160.46771620580654" x2="304.69423364838764" y2="163.58916135806459" />
    <line x1="339" y1="187" x2="323" y2="187" />
    <line x1="307" y1="187" x2="275" y2="187" />
    <line x1="259" y1="187" x2="211" y2="187" />
    <line x1="320.38679813483935" y1="213.53228379419343" x2="304.69423364838764" y2="210.41083864193539" />
    <line x1="332.45493103129576" y1="231.12327094267823" x2="317.14388565958041" y2="226.47871610660684" />
    <line x1="342.21176146189617" y1="251.29081663733507" x2="327.4296889417156" y2="245.16788171949364" />
    <line x1="312.64761642153496" y1="239.0449468016522" x2="283.08347138117381" y2="226.79907696596933" />
    <line x1="268.30139886099323" y1="220.6761420481279" x2="253.51932634081265" y2="214.55320713028647" />
    <line x1="238.73725382063205" y1="208.43027221244503" x2="223.95518130045147" y2="202.3073372946036" />
    <line x1="349.27351264009735" y1="273.73699957598359" x2="306.94129195137629" y2="251.10995620833569" />
    <line x1="313.38338106998691" y1="271.44667541897951" x2="300.07986727314619" y2="262.55755169066583" />
    <line x1="273.47283967946476" y1="244.77930423403859" x2="260.169325882624" y2="235.89018050572497" />
    <line x1="283.16652224137044" y1="283.16652224137044" x2="271.85281374238571" y2="271.85281374238571" />
    <line x1="249.22539674441617" y1="249.22539674441617" x2="237.91168824543144" y2="237.91168824543144" />
    <line x1="303.72836428611078" y1="329.23392341874364" x2="273.2774866462558" y2="292.12942165733222" />
    <line x1="280.33579914729319" y1="326.68689486682763" x2="271.44667541897957" y2="313.38338106998691" />
    <line x1="253.66842796235227" y1="286.77635347630542" x2="235.890180505725" y2="260.169325882624" />
    <line x1="258.65230399755166" y1="321.05203218094994" x2="251.10995620833569" y2="306.94129195137629" />
    <line x1="251.2908166373351" y1="342.21176146189617" x2="239.04494680165223" y2="312.64761642153496" />
    <line x1="226.79907696596933" y1="283.08347138117381" x2="214.55320713028647" y2="253.51932634081265" />
    <line x1="219.77517409870961" y1="351.77192710774273" x2="216.65372894645154" y2="336.079362621291" />
    <line x1="213.53228379419349" y1="320.38679813483935" x2="204.16794833741932" y2="273.30910467548426" />
    <line x1="205.03515382063918" y1="370.11398970768425" x2="200.33033108482027" y2="322.34512282741878" />
    <line x1="187.00000000000003" y1="355" x2="187.00000000000003" y2="339" />
    <line x1="187.00000000000003" y1="307" x2="187" y2="291" />
    <line x1="154.22482590129044" y1="351.77192710774273" x2="166.71060651032266" y2="289.001669161936" />
    <line x1="116.5862484448235" y1="356.99383398207681" x2="122.70918336266493" y2="342.21176146189623" />
    <line x1="134.9550531983478" y1="312.647616421535" x2="141.07798811618923" y2="297.86554390135444" />
    <line x1="147.20092303403067" y1="283.08347138117381" x2="153.3238579518721" y2="268.30139886099323" />
    <line x1="159.44679286971353" y1="253.51932634081265" x2="165.56972778755497" y2="238.73725382063208" />
    <line x1="93.66420085270687" y1="326.68689486682763" x2="102.55332458102051" y2="313.38338106998691" />
    <line x1="120.33157203764776" y1="286.77635347630547" x2="129.22069576596141" y2="273.47283967946476" />
    <line x1="90.572220807125916" y1="304.49758891113606" x2="100.72251335374425" y2="292.12942165733227" />
    <line x1="68.206060760660023" y1="305.79393923934003" x2="90.833477758629542" y2="283.1665222413705" />
    <line x1="124.77460325558383" y1="249.2253967444162" x2="170.02943725152286" y2="203.97056274847714" />
    <line x1="73.920132726853851" y1="262.55755169066589" x2="87.223646523694569" y2="253.66842796235227" />
    <line x1="100.5271603205353" y1="244.77930423403862" x2="113.83067411737602" y2="235.890180505725" />
    <line x1="52.947967819050064" y1="258.65230399755166" x2="67.058708048623728" y2="251.10995620833569" />
    <line x1="105.69860113900678" y1="220.67614204812796" x2="150.04481869954856" y2="202.3073372946036" />
    <line x1="10.922978225273567" y1="240.41238061482108" x2="41.545068968704271" y2="231.12327094267829" />
    <line x1="53.613201865160676" y1="213.53228379419349" x2="84.998330838064049" y2="207.28939348967737" />
    <line x1="100.69089532451574" y1="204.16794833741932" x2="116.38345981096742" y2="201.04650318516127" />
    <line x1="19.808965919070914" y1="203.46687957536616" x2="35.731921545826054" y2="201.89860533009318" />
    <line x1="51" y1="187.00000000000003" x2="83" y2="187.00000000000003" />
    <line x1="115" y1="187" x2="131" y2="187" />
    <line x1="3.886010292315774" y1="168.96484617936093" x2="19.808965919070914" y2="170.53312042463389" />
    <line x1="37.920637378708989" y1="157.34627105354849" x2="53.613201865160647" y2="160.46771620580654" />
    <line x1="69.305766351612348" y1="163.58916135806462" x2="100.69089532451572" y2="169.83205166258071" />
    <line x1="31.788238538103855" y1="122.70918336266487" x2="46.570311058284432" y2="128.83211828050634" />
    <line x1="61.352383578465023" y1="134.95505319834777" x2="120.48067365918736" y2="159.44679286971353" />
    <line x1="38.837227589476356" y1="107.80534821323241" x2="67.058708048623714" y2="122.89004379166433" />
    <line x1="73.920132726853822" y1="111.44244830933415" x2="127.13418791421672" y2="146.99894322258865" />
    <line x1="102.14718625761428" y1="102.14718625761432" x2="113.46089475659905" y2="113.46089475659908" />
    <line x1="124.7746032555838" y1="124.77460325558383" x2="147.40202025355333" y2="147.40202025355336" />
    <line x1="84.775077124393192" y1="34.009591336331681" x2="102.55332458102046" y2="60.616618930013118" />
    <line x1="129.22069576596138" y1="100.5271603205353" x2="146.99894322258865" y2="127.13418791421674" />
    <line x1="107.80534821323235" y1="38.837227589476385" x2="122.89004379166428" y2="67.058708048623743" />
    <line x1="134.95505319834771" y1="61.352383578465037" x2="153.32385795187204" y2="105.69860113900678" />
    <line x1="165.56972778755494" y1="135.26274617936795" x2="171.69266270539637" y2="150.04481869954856" />
    <line x1="133.5876193851789" y1="10.922978225273567" x2="138.23217422125032" y2="26.234023596988919" />
    <line x1="142.87672905732171" y1="41.545068968704271" x2="147.5212838933931" y2="56.856114340419595" />
    <line x1="157.34627105354844" y1="37.920637378708989" x2="169.83205166258068" y2="100.69089532451574" />
    <line x1="170.53312042463384" y1="19.808965919070914" x2="172.1013946699068" y2="35.731921545826054" />
  </g>
  <path fill="none" stroke="#ff0000" stroke-width="2" stroke-linecap="square" stroke-linejoin="round" d="M 196.02845207624492,3.2216360582482935 L 195.63591068162558,11.211999707889646 A 176,176 0 0,0 178.36408931837443,11.211999707889646 L 179.9342548968518,43.17345430645517 A 144,144 0 0,0 165.87081167842783,44.558582565071561 L 168.21849926971362,60.385406724508044 A 128,128 0 0,1 247.33878231372771,74.114078163410554 L 232.25408673529577,102.33555862255791 A 96,96 0 0,1 247.90175527970996,112.79099647717725 L 268.20234037294665,88.054661969569665 A 128,128 0 0,1 272.95954622041836,92.158255954565234 L 294.44943277552295,68.44781994320654 A 160,160 0 0,1 315.51320503690317,91.688111281210652 L 328.36452554059349,82.156922409331713 A 176,176 0 0,1 346.10211558972605,262.24969644372959 L 317.17445820977582,248.56793345396059 A 144,144 0 0,0 322.582345386355,235.51213888847968 L 307.51764034342665,230.12190123420416 A 128,128 0 0,0 309.48836297372276,224.15643868857114 L 294.17731760200741,219.51188385249975 A 112,112 0 0,0 298.46068938728604,197.9779197169108 L 282.5377337605309,196.40964547163782 A 96,96 0 0,1 271.66444137744207,232.25408673529577 L 257.55370114786842,224.71173894607981 A 80,80 0 0,1 248.84083626901895,237.75146273309161 L 261.20900352282274,247.90175527970996 A 96,96 0 0,1 247.90175527970996,261.20900352282274 L 237.75146273309164,248.84083626901895 A 80,80 0 0,1 224.71173894607983,257.55370114786842 L 239.79643452451177,285.77518160701572 A 112,112 0 0,1 219.51188385249978,294.17731760200741 L 210.222774180357,263.5552268585767 A 80,80 0 0,1 136.24853726690839,248.84083626901898 L 146.3988298135267,236.47266901521516 A 64,64 0 0,0 151.44350508674546,240.2140551873629 L 160.33262881505911,226.91054139052218 A 48,48 0 0,0 177.63566454322583,234.07769345935506 L 174.51421939096778,249.77025794580675 A 64,64 0 0,0 249.77025794580675,199.48578060903219 L 218.38512897290337,193.2428903045161 A 32,32 0 0,1 174.75413016431713,216.56414504036118 L 177.81559762323786,209.17310878027089" />
  <type>Circular</type>
</svg>