<?xml version="1.0" encoding="utf-8" standalone="no"?>
<!DOCTYPE svg PUBLIC "-//W3C//DTD SVG 1.1//EN" "http://www.w3.org/Graphics/SVG/1.1/DTD/svg11.dtd"[]>
<svg width="372" height="372" version="1.1" xmlns="http://www.w3.org/2000/svg">
  <title>23 cells diameter theta maze</title>
  <g fill="none" stroke="#000000" stroke-width="2" stroke-linecap="square">
    <path d="M 170.02943725152286,203.97056274847714 A 24,24 0 1,1 187,211" />
    <path d="M 171.69266270539637,150.04481869954856 A 40,40 0 0,1 187,147" />
    <path d="M 215.2842712474619,158.7157287525381 A 40,40 0 0,1 223.95518130045147,202.3073372946036" />
    <path d="M 202.3073372946036,223.95518130045147 A 40,40 0 0,1 158.7157287525381,215.2842712474619" />
    <path d="M 150.04481869954853,202.3073372946036 A 40,40 0 0,1 150.04481869954853,171.6926627053964" />
    <path d="M 165.56972778755494,135.26274617936795 A 56,56 0 0,1 187,131" />
    <path d="M 238.73725382063205,165.56972778755497 A 56,56 0 0,1 226.59797974644667,226.59797974644664" />
    <path d="M 187,243 A 56,56 0 0,1 165.569727787555,238.73725382063208" />
    <path d="M 147.40202025355336,226.59797974644667 A 56,56 0 0,1 135.26274617936795,208.43027221244506" />
    <path d="M 201.04650318516124,116.38345981096741 A 72,72 0 0,1 214.55320713028647,120.48067365918736" />
    <path d="M 227.00105677741135,127.13418791421674 A 72,72 0 0,1 253.51932634081265,159.44679286971353" />
    <path d="M 257.61654018903261,201.04650318516124 A 72,72 0 0,1 136.08831175456859,237.91168824543144" />
    <path d="M 127.13418791421674,227.00105677741135 A 72,72 0 0,1 120.48067365918737,214.5532071302865" />
    <path d="M 115,187 A 72,72 0 0,1 116.38345981096741,172.95349681483876" />
    <path d="M 120.48067365918736,159.44679286971353 A 72,72 0 0,1 172.95349681483873,116.38345981096741" />
    <path d="M 124.7746032555838,124.77460325558383 A 88,88 0 0,1 187,99" />
    <path d="M 220.6761420481279,105.69860113900677 A 88,88 0 0,1 235.890180505725,113.83067411737602" />
    <path d="M 273.30910467548426,169.83205166258071 A 88,88 0 0,1 275,187" />
    <path d="M 268.30139886099323,220.6761420481279 A 88,88 0 0,1 260.169325882624,235.89018050572497" />
    <path d="M 249.22539674441617,249.22539674441617 A 88,88 0 0,1 235.89018050572497,260.169325882624" />
    <path d="M 204.16794833741932,273.30910467548426 A 88,88 0 0,1 187,275" />
    <path d="M 169.83205166258071,273.30910467548426 A 88,88 0 0,1 138.10981949427503,260.169325882624" />
    <path d="M 124.77460325558383,249.2253967444162 A 88,88 0 0,1 113.83067411737602,235.890180505725" />
    <path d="M 100.69089532451572,169.83205166258071 A 88,88 0 0,1 105.69860113900677,153.32385795187207" />
    <path d="M 166.71060651032261,84.998330838064049 A 104,104 0 0,1 207.28939348967734,84.998330838064035" />
    <path d="M 260.53910524340097,113.46089475659906 A 104,104 0 0,1 289.001669161936,166.71060651032266" />
    <path d="M 291,187 A 104,104 0 0,1 283.08347138117381,226.79907696596933" />
    <path d="M 273.47283967946476,244.77930423403859 A 104,104 0 0,1 260.53910524340097,260.53910524340097" />
    <path d="M 244.77930423403862,273.4728396794647 A 104,104 0 0,1 226.79907696596933,283.08347138117381" />
    <path d="M 207.28939348967737,289.001669161936 A 104,104 0 0,1 187,291" />
    <path d="M 147.20092303403067,283.08347138117381 A 104,104 0 0,1 129.22069576596141,273.47283967946476" />
    <path d="M 100.52716032053529,244.77930423403862 A 104,104 0 0,1 84.998330838064035,207.28939348967737" />
    <path d="M 83,187.00000000000003 A 104,104 0 0,1 100.52716032053527,129.22069576596141" />
    <path d="M 113.46089475659905,113.46089475659908 A 104,104 0 0,1 147.20092303403061,90.9165286188262" />
    <path d="M 232.92201188381077,76.134456098645586 A 120,120 0 0,1 253.66842796235227,87.223646523694569" />
    <path d="M 286.77635347630542,120.33157203764773 A 120,120 0 0,1 297.86554390135439,141.07798811618923" />
    <path d="M 297.86554390135439,232.92201188381077 A 120,120 0 0,1 286.77635347630542,253.66842796235224" />
    <path d="M 271.85281374238571,271.85281374238571 A 120,120 0 0,1 253.66842796235227,286.77635347630542" />
    <path d="M 232.9220118838108,297.86554390135439 A 120,120 0 0,1 210.41083864193544,304.69423364838764" />
    <path d="M 187.00000000000003,307 A 120,120 0 0,1 87.223646523694569,253.66842796235227" />
    <path d="M 76.134456098645614,232.92201188381085 A 120,120 0 0,1 76.1344560986456,141.0779881161892" />
    <path d="M 87.223646523694541,120.33157203764777 A 120,120 0 0,1 102.14718625761428,102.14718625761432" />
    <path d="M 120.33157203764773,87.223646523694569 A 120,120 0 0,1 163.58916135806456,69.305766351612363" />
    <path d="M 160.46771620580648,53.613201865160676 A 136,136 0 0,1 200.33033108482024,51.654877172581223" />
    <path d="M 213.53228379419343,53.613201865160647 A 136,136 0 0,1 239.0449468016522,61.352383578464995" />
    <path d="M 251.10995620833569,67.058708048623714 A 136,136 0 0,1 300.07986727314614,111.4424483093341" />
    <path d="M 306.94129195137629,122.8900437916643 A 136,136 0 0,1 312.64761642153496,134.9550531983478" />
    <path d="M 317.14388565958041,147.52128389339313 A 136,136 0 0,1 322.34512282741878,200.33033108482024" />
    <path d="M 320.38679813483935,213.53228379419343 A 136,136 0 0,1 292.12942165733227,273.27748664625574" />
    <path d="M 283.16652224137044,283.16652224137044 A 136,136 0 0,1 273.2774866462558,292.12942165733222" />
    <path d="M 262.55755169066589,300.07986727314619 A 136,136 0 0,1 239.04494680165223,312.64761642153496" />
    <path d="M 213.53228379419349,320.3867981348393 A 136,136 0 0,1 200.33033108482027,322.34512282741878" />
    <path d="M 187.00000000000003,323 A 136,136 0 0,1 111.44244830933414,300.07986727314619" />
    <path d="M 100.72251335374423,292.12942165733227 A 136,136 0 0,1 81.870578342667812,273.27748664625585" />
    <path d="M 73.920132726853836,262.55755169066589 A 136,136 0 0,1 53.613201865160676,213.53228379419349" />
    <path d="M 51.654877172581223,200.33033108482022 A 136,136 0 0,1 51,187.00000000000003" />
    <path d="M 53.613201865160647,160.46771620580654 A 136,136 0 0,1 56.856114340419595,147.52128389339316" />
    <path d="M 61.352383578465009,134.95505319834777 A 136,136 0 0,1 73.920132726853822,111.44244830933414" />
    <path d="M 81.870578342667784,100.72251335374421 A 136,136 0 0,1 90.833477758629513,90.833477758629556" />
    <path d="M 134.95505319834771,61.352383578465037 A 136,136 0 0,1 147.5212838933931,56.856114340419595" />
    <path d="M 187,35 A 152,152 0 0,1 231.12327094267829,41.545068968704243" />
    <path d="M 245.16788171949364,46.5703110582844 A 152,152 0 0,1 271.44667541897957,60.616618930013118" />
    <path d="M 283.42777919287414,69.50241108886398 A 152,152 0 0,1 321.05203218094994,115.34769600244833" />
    <path d="M 332.45493103129576,142.87672905732174 A 152,152 0 0,1 338.26807845417392,172.10139466990677" />
    <path d="M 339,187 A 152,152 0 0,1 338.26807845417392,201.89860533009323" />
    <path d="M 332.45493103129576,231.12327094267826 A 152,152 0 0,1 321.05203218094994,258.65230399755166" />
    <path d="M 313.38338106998691,271.44667541897951 A 152,152 0 0,1 216.65372894645154,336.079362621291" />
    <path d="M 201.89860533009323,338.26807845417392 A 152,152 0 0,1 187.00000000000003,339" />
    <path d="M 172.1013946699068,338.26807845417392 A 152,152 0 0,1 157.34627105354849,336.079362621291" />
    <path d="M 142.87672905732177,332.45493103129576 A 152,152 0 0,1 128.83211828050636,327.4296889417156" />
    <path d="M 115.34769600244836,321.05203218094994 A 152,152 0 0,1 90.572220807125916,304.49758891113606" />
    <path d="M 79.519769259644789,294.48023074035524 A 152,152 0 0,1 60.616618930013118,271.44667541897951" />
    <path d="M 37.920637378708989,216.65372894645157 A 152,152 0 0,1 35.731921545826054,172.10139466990688" />
    <path d="M 41.545068968704243,142.87672905732177 A 152,152 0 0,1 52.947967819050035,115.34769600244837" />
    <path d="M 60.61661893001309,102.55332458102052 A 152,152 0 0,1 79.519769259644747,79.5197692596448" />
    <path d="M 90.572220807125817,69.502411088864037 A 152,152 0 0,1 102.55332458102046,60.616618930013118" />
    <path d="M 115.34769600244832,52.947967819050064 A 152,152 0 0,1 128.83211828050625,46.57031105828446" />
    <path d="M 142.87672905732171,41.545068968704271 A 152,152 0 0,1 157.34627105354844,37.920637378708989" />
    <path d="M 219.77517409870956,22.228072892257273 A 168,168 0 0,1 251.29081663733507,31.788238538103826" />
    <path d="M 266.19465178676762,38.837227589476356 A 168,168 0 0,1 293.57807173949243,57.134243835060175" />
    <path d="M 305.79393923934,68.206060760660009 A 168,168 0 0,1 316.8657561649398,80.421928260507556" />
    <path d="M 335.16277241052364,107.80534821323238 A 168,168 0 0,1 347.76597640301111,138.23217422125032" />
    <path d="M 354.19103408092906,203.46687957536619 A 168,168 0 0,1 335.16277241052364,266.19465178676762" />
    <path d="M 293.57807173949243,316.86575616493985 A 168,168 0 0,1 280.33579914729319,326.68689486682763" />
    <path d="M 235.76782577874968,347.76597640301111 A 168,168 0 0,1 170.53312042463381,354.19103408092906" />
    <path d="M 122.70918336266495,342.21176146189617 A 168,168 0 0,1 57.134243835060232,293.57807173949249" />
    <path d="M 26.234023596988919,235.76782577874968 A 168,168 0 0,1 22.228072892257302,219.77517409870961" />
    <path d="M 19.808965919070914,170.53312042463392 A 168,168 0 0,1 31.788238538103855,122.70918336266487" />
    <path d="M 38.837227589476356,107.80534821323241 A 168,168 0 0,1 47.313105133172371,93.664200852706884" />
    <path d="M 68.20606076066,68.206060760660037 A 168,168 0 0,1 80.421928260507485,57.134243835060261" />
    <path d="M 93.664200852706827,47.3131051331724 A 168,168 0 0,1 107.80534821323235,38.837227589476385" />
    <path d="M 122.70918336266482,31.788238538103855 A 168,168 0 0,1 138.23217422125032,26.234023596988919" />
    <path d="M 154.22482590129039,22.228072892257302 A 168,168 0 0,1 170.53312042463384,19.808965919070914" />
    <path d="M 205.03515382063915,3.886010292315774 A 184,184 0 1,1 187,3" />
  </g>
  <g fill="none" stroke="#000000" stroke-width="2" stroke-linecap="butt">
    <line x1="187" y1="3" x2="187" y2="35" />
    <line x1="187" y1="51" x2="187" y2="67" />
    <line x1="187" y1="99" x2="187" y2="131" />
    <line x1="187" y1="147" x2="187" y2="163" />
    <line x1="203.46687957536619" y1="19.808965919070914" x2="200.33033108482024" y2="51.654877172581223" />
    <line x1="213.53228379419343" y1="53.613201865160647" x2="201.04650318516124" y2="116.38345981096741" />
    <line x1="251.29081663733507" y1="31.788238538103826" x2="220.6761420481279" y2="105.69860113900677" />
    <line x1="214.55320713028647" y1="120.48067365918736" x2="202.3073372946036" y2="150.04481869954853" />
    <line x1="244.77930423403862" y1="100.5271603205353" x2="227.00105677741135" y2="127.13418791421674" />
    <line x1="303.72836428611078" y1="44.766076581256385" x2="283.42777919287414" y2="69.50241108886398" />
    <line x1="305.79393923934" y1="68.206060760660009" x2="294.48023074035518" y2="79.519769259644775" />
    <line x1="283.16652224137044" y1="90.833477758629527" x2="249.22539674441617" y2="124.77460325558381" />
    <line x1="237.91168824543144" y1="136.08831175456857" x2="215.2842712474619" y2="158.7157287525381" />
    <line x1="326.68689486682763" y1="93.664200852706813" x2="313.38338106998685" y2="102.55332458102045" />
    <line x1="260.169325882624" y1="138.109819494275" x2="246.86581208578326" y2="146.99894322258865" />
    <line x1="349.27351264009729" y1="100.2630004240164" x2="335.16277241052364" y2="107.80534821323236" />
    <line x1="321.05203218094994" y1="115.34769600244833" x2="306.94129195137629" y2="122.8900437916643" />
    <line x1="342.21176146189617" y1="122.7091833626649" x2="327.4296889417156" y2="128.83211828050634" />
    <line x1="312.64761642153496" y1="134.9550531983478" x2="297.86554390135439" y2="141.0779881161892" />
    <line x1="268.30139886099323" y1="153.3238579518721" x2="253.51932634081265" y2="159.44679286971353" />
    <line x1="347.76597640301111" y1="138.23217422125032" x2="332.45493103129576" y2="142.87672905732171" />
    <line x1="367.46449159419438" y1="151.1033807490324" x2="351.77192710774273" y2="154.22482590129044" />
    <line x1="304.69423364838764" y1="163.58916135806459" x2="257.61654018903261" y2="172.95349681483876" />
    <line x1="354.19103408092906" y1="170.53312042463378" x2="338.26807845417392" y2="172.10139466990677" />
    <line x1="371" y1="187" x2="291" y2="187" />
    <line x1="275" y1="187" x2="243" y2="187" />
    <line x1="351.77192710774273" y1="219.77517409870953" x2="304.69423364838764" y2="210.41083864193539" />
    <line x1="289.001669161936" y1="207.28939348967734" x2="257.61654018903261" y2="201.04650318516124" />
    <line x1="332.45493103129576" y1="231.12327094267823" x2="317.14388565958041" y2="226.47871610660684" />
    <line x1="326.68689486682763" y1="280.33579914729313" x2="313.38338106998691" y2="271.44667541897951" />
    <line x1="286.77635347630547" y1="253.66842796235224" x2="273.47283967946476" y2="244.77930423403859" />
    <line x1="260.169325882624" y1="235.89018050572497" x2="246.86581208578326" y2="227.00105677741135" />
    <line x1="329.23392341874364" y1="303.72836428611072" x2="316.86575616493985" y2="293.57807173949243" />
    <line x1="304.49758891113606" y1="283.42777919287408" x2="292.12942165733227" y2="273.27748664625574" />
    <line x1="305.79393923934" y1="305.79393923934" x2="294.48023074035524" y2="294.48023074035518" />
    <line x1="283.16652224137044" y1="283.16652224137044" x2="249.22539674441617" y2="249.22539674441617" />
    <line x1="226.59797974644667" y1="226.59797974644664" x2="203.97056274847714" y2="203.97056274847714" />
    <line x1="303.72836428611078" y1="329.23392341874364" x2="293.57807173949243" y2="316.86575616493985" />
    <line x1="283.42777919287414" y1="304.497588911136" x2="273.2774866462558" y2="292.12942165733222" />
    <line x1="271.44667541897957" y1="313.38338106998691" x2="262.55755169066589" y2="300.07986727314619" />
    <line x1="273.73699957598359" y1="349.27351264009729" x2="266.19465178676762" y2="335.16277241052364" />
    <line x1="251.2908166373351" y1="342.21176146189617" x2="245.16788171949366" y2="327.4296889417156" />
    <line x1="232.9220118838108" y1="297.86554390135439" x2="220.6761420481279" y2="268.30139886099323" />
    <line x1="214.55320713028647" y1="253.51932634081265" x2="202.3073372946036" y2="223.95518130045147" />
    <line x1="240.41238061482108" y1="363.0770217747264" x2="235.76782577874968" y2="347.76597640301111" />
    <line x1="231.12327094267829" y1="332.4549310312957" x2="226.4787161066069" y2="317.14388565958041" />
    <line x1="219.77517409870961" y1="351.77192710774273" x2="207.28939348967737" y2="289.001669161936" />
    <line x1="203.46687957536622" y1="354.19103408092906" x2="201.89860533009323" y2="338.26807845417392" />
    <line x1="187.00000000000003" y1="339" x2="187.00000000000003" y2="323" />
    <line x1="187" y1="275" x2="187" y2="259" />
    <line x1="170.53312042463381" y1="354.19103408092906" x2="172.1013946699068" y2="338.268078454174" />
    <line x1="151.1033807490324" y1="367.46449159419438" x2="154.22482590129044" y2="351.77192710774273" />
    <line x1="166.71060651032266" y1="289.001669161936" x2="169.83205166258071" y2="273.30910467548426" />
    <line x1="133.58761938517898" y1="363.0770217747264" x2="142.87672905732177" y2="332.45493103129576" />
    <line x1="122.70918336266493" y1="342.21176146189623" x2="128.83211828050636" y2="327.4296889417156" />
    <line x1="153.3238579518721" y1="268.30139886099323" x2="159.44679286971353" y2="253.51932634081265" />
    <line x1="165.56972778755497" y1="238.73725382063208" x2="171.6926627053964" y2="223.95518130045147" />
    <line x1="111.44244830933414" y1="300.07986727314619" x2="129.22069576596141" y2="273.47283967946476" />
    <line x1="80.4219282605076" y1="316.86575616493985" x2="100.72251335374425" y2="292.12942165733227" />
    <line x1="113.46089475659906" y1="260.53910524340097" x2="136.08831175456857" y2="237.91168824543144" />
    <line x1="147.40202025355336" y1="226.59797974644667" x2="170.02943725152286" y2="203.97056274847714" />
    <line x1="34.009591336331681" y1="289.22492287560681" x2="60.616618930013118" y2="271.44667541897957" />
    <line x1="87.223646523694569" y1="253.66842796235227" x2="100.5271603205353" y2="244.77930423403862" />
    <line x1="38.837227589476356" y1="266.19465178676762" x2="67.058708048623728" y2="251.10995620833569" />
    <line x1="17.006166017923277" y1="257.41375155517665" x2="46.57031105828446" y2="245.16788171949372" />
    <line x1="105.69860113900678" y1="220.67614204812796" x2="135.26274617936795" y2="208.43027221244506" />
    <line x1="26.234023596988919" y1="235.76782577874968" x2="56.856114340419595" y2="226.4787161066069" />
    <line x1="6.535508405805615" y1="222.89661925096766" x2="22.228072892257302" y2="219.77517409870961" />
    <line x1="84.998330838064049" y1="207.28939348967737" x2="116.38345981096742" y2="201.04650318516127" />
    <line x1="19.808965919070914" y1="203.46687957536616" x2="51.654877172581223" y2="200.33033108482022" />
    <line x1="3" y1="187.00000000000003" x2="19" y2="187.00000000000003" />
    <line x1="51" y1="187.00000000000003" x2="67" y2="187.00000000000003" />
    <line x1="83" y1="187.00000000000003" x2="131" y2="187" />
    <line x1="19.808965919070914" y1="170.53312042463389" x2="51.654877172581223" y2="173.66966891517984" />
    <line x1="22.228072892257273" y1="154.22482590129044" x2="53.613201865160647" y2="160.46771620580654" />
    <line x1="31.788238538103855" y1="122.70918336266487" x2="46.570311058284432" y2="128.83211828050634" />
    <line x1="61.352383578465023" y1="134.95505319834777" x2="90.916528618826192" y2="147.20092303403064" />
    <line x1="105.69860113900678" y1="153.32385795187207" x2="150.04481869954853" y2="171.6926627053964" />
    <line x1="34.009591336331624" y1="84.775077124393263" x2="47.313105133172371" y2="93.664200852706884" />
    <line x1="60.61661893001309" y1="102.55332458102052" x2="87.223646523694541" y2="120.33157203764777" />
    <line x1="100.52716032053527" y1="129.22069576596141" x2="127.13418791421672" y2="146.99894322258865" />
    <line x1="57.134243835060204" y1="80.421928260507542" x2="69.502411088864" y2="90.572220807125873" />
    <line x1="56.892352261675228" y1="56.892352261675285" x2="90.833477758629513" y2="90.833477758629556" />
    <line x1="102.14718625761428" y1="102.14718625761432" x2="113.46089475659905" y2="113.46089475659908" />
    <line x1="147.40202025355333" y1="147.40202025355336" x2="170.02943725152286" y2="170.02943725152286" />
    <line x1="90.572220807125817" y1="69.502411088864022" x2="100.72251335374415" y2="81.870578342667812" />
    <line x1="93.664200852706841" y1="47.3131051331724" x2="120.33157203764773" y2="87.223646523694569" />
    <line x1="115.34769600244832" y1="52.947967819050064" x2="122.89004379166428" y2="67.058708048623743" />
    <line x1="122.70918336266482" y1="31.788238538103855" x2="128.83211828050625" y2="46.57031105828446" />
    <line x1="134.95505319834771" y1="61.352383578465037" x2="141.07798811618915" y2="76.134456098645614" />
    <line x1="165.56972778755494" y1="135.26274617936795" x2="171.69266270539637" y2="150.04481869954856" />
    <line x1="133.5876193851789" y1="10.922978225273567" x2="138.23217422125032" y2="26.234023596988919" />
    <line x1="142.87672905732171" y1="41.545068968704271" x2="147.5212838933931" y2="56.856114340419595" />
    <line x1="154.22482590129039" y1="22.228072892257302" x2="157.34627105354844" y2="37.920637378708989" />
    <line x1="163.58916135806456" y1="69.305766351612363" x2="166.71060651032261" y2="84.998330838064049" />
    <line x1="170.53312042463384" y1="19.808965919070914" x2="173.66966891517978" y2="51.654877172581223" />
  </g>
  <path fill="none" stroke="#ff0000" stroke-width="2" stroke-linecap="square" stroke-linejoin="round" d="M 196.02845207624492,3.2216360582482935 L 195.63591068162558,11.211999707889646 A 176,176 0 0,1 262.24969644372965,27.897884410273974 L 255.40881494884513,42.361713100249062 A 160,160 0 0,1 282.31188871878931,58.486794963096827 L 272.78069984691041,71.33811546678713 A 144,144 0 0,1 310.51291984003916,112.96920483617608 L 296.78926208003486,121.19484874326763 A 128,128 0 0,0 285.94533803043032,105.79765962705338 L 273.57717077662653,115.9479521736717 A 112,112 0 0,1 294.17731760200741,154.48811614750022 L 309.48836297372276,149.84356131142883 A 128,128 0 0,1 314.38364501404118,174.45380603781621 L 282.5377337605309,177.59035452836216 A 96,96 0 0,1 282.5377337605309,196.40964547163782 L 250.69182250702062,193.27309698109187 A 64,64 0 0,1 222.55649491325454,240.2140551873629 L 204.77824745662727,213.60702759368144 A 32,32 0 0,1 174.75413016431713,216.56414504036118 L 177.81559762323786,209.17310878027089" />
  <type>Circular</type>
</svg>