<?xml version="1.0" encoding="utf-8" standalone="no"?>
<!DOCTYPE svg PUBLIC "-//W3C//DTD SVG 1.1//EN" "http://www.w3.org/Graphics/SVG/1.1/DTD/svg11.dtd"[]>
<svg width="372" height="372" version="1.1" xmlns="http://www.w3.org/2000/svg">
  <title>23 cells diameter theta maze</title>
  <g fill="none" stroke="#000000" stroke-width="2" stroke-linecap="square">
    <path d="M 170.02943725152286,203.97056274847714 A 24,24 0 1,1 187,211" />
    <path d="M 171.69266270539637,150.04481869954856 A 40,40 0 0,1 187,147" />
    <path d="M 202.3073372946036,150.04481869954853 A 40,40 0 0,1 215.2842712474619,158.7157287525381" />
    <path d="M 223.95518130045147,171.6926627053964 A 40,40 0 0,1 227,187" />
    <path d="M 223.95518130045147,202.3073372946036 A 40,40 0 0,1 147,187" />
    <path d="M 150.04481869954853,171.6926627053964 A 40,40 0 0,1 158.7157287525381,158.7157287525381" />
    <path d="M 187,131 A 56,56 0 0,1 208.43027221244503,135.26274617936795" />
    <path d="M 226.59797974644667,147.40202025355333 A 56,56 0 0,1 226.59797974644667,226.59797974644664" />
    <path d="M 187,243 A 56,56 0 0,1 147.40202025355336,226.59797974644667" />
    <path d="M 135.26274617936795,208.43027221244506 A 56,56 0 0,1 131,187" />
    <path d="M 135.26274617936795,165.56972778755497 A 56,56 0 0,1 165.56972778755494,135.26274617936795" />
    <path d="M 159.44679286971348,120.48067365918737 A 72,72 0 0,1 187,115" />
    <path d="M 214.55320713028647,120.48067365918736 A 72,72 0 0,1 227.00105677741135,127.13418791421674" />
    <path d="M 246.86581208578326,146.99894322258865 A 72,72 0 0,1 253.51932634081265,159.44679286971353" />
    <path d="M 259,187 A 72,72 0 0,1 246.86581208578326,227.00105677741135" />
    <path d="M 227.00105677741135,246.86581208578326 A 72,72 0 0,1 214.55320713028647,253.51932634081265" />
    <path d="M 201.04650318516127,257.61654018903261 A 72,72 0 0,1 172.95349681483876,257.61654018903261" />
    <path d="M 146.99894322258865,246.86581208578326 A 72,72 0 0,1 136.08831175456859,237.91168824543144" />
    <path d="M 127.13418791421674,227.00105677741135 A 72,72 0 0,1 120.48067365918737,214.5532071302865" />
    <path d="M 116.38345981096741,201.04650318516127 A 72,72 0 0,1 146.99894322258865,127.13418791421674" />
    <path d="M 169.83205166258068,100.69089532451572 A 88,88 0 0,1 204.16794833741929,100.69089532451572" />
    <path d="M 235.890180505725,113.83067411737602 A 88,88 0 0,1 260.169325882624,138.109819494275" />
    <path d="M 273.30910467548426,204.16794833741929 A 88,88 0 0,1 268.30139886099323,220.6761420481279" />
    <path d="M 249.22539674441617,249.22539674441617 A 88,88 0 0,1 153.32385795187213,268.30139886099323" />
    <path d="M 138.10981949427503,260.169325882624 A 88,88 0 0,1 99,187.00000000000003" />
    <path d="M 105.69860113900677,153.32385795187207 A 88,88 0 0,1 113.83067411737599,138.10981949427503" />
    <path d="M 124.7746032555838,124.77460325558383 A 88,88 0 0,1 153.32385795187204,105.69860113900678" />
    <path d="M 113.46089475659905,113.46089475659908 A 104,104 0 0,1 244.77930423403862,100.52716032053529" />
    <path d="M 260.53910524340097,113.46089475659906 A 104,104 0 0,1 283.08347138117381,147.20092303403067" />
    <path d="M 289.001669161936,166.71060651032266 A 104,104 0 0,1 291,187" />
    <path d="M 283.08347138117381,226.79907696596933 A 104,104 0 0,1 226.79907696596933,283.08347138117381" />
    <path d="M 166.71060651032266,289.001669161936 A 104,104 0 0,1 129.22069576596141,273.47283967946476" />
    <path d="M 113.46089475659908,260.53910524340097 A 104,104 0 0,1 100.52716032053529,244.77930423403862" />
    <path d="M 90.9165286188262,226.79907696596939 A 104,104 0 0,1 90.916528618826192,147.20092303403064" />
    <path d="M 187,67 A 120,120 0 0,1 232.92201188381077,76.134456098645586" />
    <path d="M 271.85281374238571,102.14718625761429 A 120,120 0 0,1 304.69423364838764,163.58916135806459" />
    <path d="M 286.77635347630542,253.66842796235224 A 120,120 0 0,1 210.41083864193544,304.69423364838764" />
    <path d="M 187.00000000000003,307 A 120,120 0 0,1 141.07798811618926,297.86554390135439" />
    <path d="M 120.33157203764777,286.77635347630547 A 120,120 0 0,1 102.14718625761431,271.85281374238571" />
    <path d="M 87.223646523694569,253.66842796235227 A 120,120 0 0,1 69.305766351612348,163.58916135806462" />
    <path d="M 76.1344560986456,141.0779881161892 A 120,120 0 0,1 87.223646523694541,120.33157203764777" />
    <path d="M 102.14718625761428,102.14718625761432 A 120,120 0 0,1 141.07798811618915,76.134456098645614" />
    <path d="M 160.46771620580648,53.613201865160676 A 136,136 0 0,1 200.33033108482024,51.654877172581223" />
    <path d="M 226.4787161066069,56.856114340419595 A 136,136 0 0,1 251.10995620833569,67.058708048623714" />
    <path d="M 262.55755169066589,73.920132726853851 A 136,136 0 0,1 292.12942165733222,100.72251335374421" />
    <path d="M 300.07986727314614,111.4424483093341 A 136,136 0 0,1 317.14388565958041,147.52128389339313" />
    <path d="M 320.38679813483935,160.46771620580654 A 136,136 0 0,1 323,187" />
    <path d="M 322.34512282741878,200.33033108482024 A 136,136 0 0,1 306.94129195137629,251.10995620833569" />
    <path d="M 300.07986727314619,262.55755169066589 A 136,136 0 0,1 292.12942165733227,273.27748664625574" />
    <path d="M 273.2774866462558,292.12942165733222 A 136,136 0 0,1 251.10995620833569,306.94129195137629" />
    <path d="M 239.04494680165223,312.64761642153496 A 136,136 0 0,1 226.4787161066069,317.14388565958041" />
    <path d="M 213.53228379419349,320.3867981348393 A 136,136 0 0,1 173.66966891517976,322.34512282741878" />
    <path d="M 160.46771620580654,320.38679813483935 A 136,136 0 0,1 111.44244830933414,300.07986727314619" />
    <path d="M 100.72251335374423,292.12942165733227 A 136,136 0 0,1 90.833477758629556,283.16652224137044" />
    <path d="M 81.870578342667812,273.27748664625585 A 136,136 0 0,1 73.920132726853836,262.55755169066589" />
    <path d="M 67.058708048623728,251.10995620833572 A 136,136 0 0,1 56.856114340419595,226.4787161066069" />
    <path d="M 53.613201865160676,213.53228379419349 A 136,136 0 0,1 51.654877172581223,200.33033108482022" />
    <path d="M 51,187.00000000000003 A 136,136 0 0,1 61.352383578465009,134.95505319834777" />
    <path d="M 67.058708048623714,122.89004379166433 A 136,136 0 0,1 100.72251335374415,81.870578342667827" />
    <path d="M 111.4424483093341,73.920132726853851 A 136,136 0 0,1 147.5212838933931,56.856114340419595" />
    <path d="M 201.8986053300932,35.731921545826083 A 152,152 0 0,1 216.65372894645151,37.92063737870896" />
    <path d="M 258.65230399755166,52.947967819050035 A 152,152 0 0,1 271.44667541897957,60.616618930013118" />
    <path d="M 283.42777919287414,69.50241108886398 A 152,152 0 0,1 313.38338106998685,102.55332458102046" />
    <path d="M 321.05203218094994,115.34769600244833 A 152,152 0 0,1 336.079362621291,157.34627105354849" />
    <path d="M 338.26807845417392,172.10139466990677 A 152,152 0 0,1 338.26807845417392,201.89860533009323" />
    <path d="M 327.4296889417156,245.16788171949364 A 152,152 0 0,1 304.49758891113606,283.42777919287408" />
    <path d="M 294.48023074035524,294.48023074035518 A 152,152 0 0,1 245.16788171949366,327.42968894171554" />
    <path d="M 231.12327094267829,332.45493103129576 A 152,152 0 0,1 201.89860533009323,338.26807845417392" />
    <path d="M 187.00000000000003,339 A 152,152 0 0,1 157.34627105354849,336.079362621291" />
    <path d="M 128.83211828050636,327.4296889417156 A 152,152 0 0,1 102.55332458102051,313.38338106998691" />
    <path d="M 79.519769259644789,294.48023074035524 A 152,152 0 0,1 60.616618930013118,271.44667541897951" />
    <path d="M 46.57031105828446,245.16788171949372 A 152,152 0 0,1 35.731921545826054,172.10139466990688" />
    <path d="M 37.92063737870896,157.34627105354849 A 152,152 0 0,1 41.545068968704243,142.87672905732177" />
    <path d="M 46.570311058284432,128.83211828050634 A 152,152 0 0,1 60.61661893001309,102.55332458102052" />
    <path d="M 69.502411088864,90.572220807125873 A 152,152 0 0,1 79.519769259644747,79.5197692596448" />
    <path d="M 90.572220807125817,69.502411088864037 A 152,152 0 0,1 128.83211828050625,46.57031105828446" />
    <path d="M 122.70918336266482,31.788238538103855 A 168,168 0 0,1 187,19" />
    <path d="M 203.46687957536619,19.808965919070914 A 168,168 0 0,1 251.29081663733507,31.788238538103826" />
    <path d="M 266.19465178676762,38.837227589476356 A 168,168 0 0,1 305.79393923934,68.206060760660009" />
    <path d="M 316.8657561649398,80.421928260507556 A 168,168 0 0,1 326.68689486682763,93.664200852706827" />
    <path d="M 335.16277241052364,107.80534821323238 A 168,168 0 0,1 347.76597640301111,138.23217422125032" />
    <path d="M 351.77192710774273,154.22482590129044 A 168,168 0 0,1 354.19103408092906,170.53312042463378" />
    <path d="M 354.19103408092906,203.46687957536619 A 168,168 0 0,1 351.77192710774273,219.77517409870953" />
    <path d="M 342.21176146189617,251.29081663733507 A 168,168 0 0,1 335.16277241052364,266.19465178676762" />
    <path d="M 305.79393923934,305.79393923934 A 168,168 0 0,1 280.33579914729319,326.68689486682763" />
    <path d="M 266.19465178676762,335.16277241052364 A 168,168 0 0,1 235.76782577874968,347.76597640301111" />
    <path d="M 203.46687957536622,354.19103408092906 A 168,168 0 0,1 187.00000000000003,355" />
    <path d="M 138.23217422125038,347.76597640301111 A 168,168 0 0,1 122.70918336266495,342.21176146189617" />
    <path d="M 107.80534821323241,335.16277241052364 A 168,168 0 0,1 80.421928260507585,316.86575616493985" />
    <path d="M 47.3131051331724,280.33579914729319 A 168,168 0 0,1 38.837227589476385,266.19465178676762" />
    <path d="M 19.808965919070914,203.46687957536616 A 168,168 0 0,1 31.788238538103855,122.70918336266487" />
    <path d="M 47.313105133172371,93.664200852706884 A 168,168 0 0,1 107.80534821323235,38.837227589476385" />
    <path d="M 205.03515382063915,3.886010292315774 A 184,184 0 1,1 187,3" />
  </g>
  <g fill="none" stroke="#000000" stroke-width="2" stroke-linecap="butt">
    <line x1="187" y1="3" x2="187" y2="35" />
    <line x1="187" y1="115" x2="187" y2="131" />
    <line x1="187" y1="147" x2="187" y2="163" />
    <line x1="203.46687957536619" y1="19.808965919070914" x2="200.33033108482024" y2="51.654877172581223" />
    <line x1="216.65372894645151" y1="37.920637378708989" x2="210.41083864193539" y2="69.305766351612348" />
    <line x1="207.28939348967734" y1="84.998330838064035" x2="201.04650318516124" y2="116.38345981096741" />
    <line x1="235.76782577874968" y1="26.234023596988919" x2="231.12327094267829" y2="41.545068968704271" />
    <line x1="251.29081663733507" y1="31.788238538103826" x2="245.16788171949366" y2="46.5703110582844" />
    <line x1="239.0449468016522" y1="61.352383578465009" x2="232.92201188381077" y2="76.134456098645586" />
    <line x1="220.6761420481279" y1="105.69860113900677" x2="208.43027221244503" y2="135.26274617936795" />
    <line x1="266.19465178676762" y1="38.837227589476356" x2="251.10995620833569" y2="67.058708048623714" />
    <line x1="271.44667541897957" y1="60.616618930013118" x2="235.890180505725" y2="113.83067411737602" />
    <line x1="293.57807173949243" y1="57.134243835060175" x2="283.42777919287414" y2="69.50241108886398" />
    <line x1="271.85281374238571" y1="102.14718625761429" x2="260.53910524340097" y2="113.46089475659905" />
    <line x1="249.22539674441617" y1="124.77460325558381" x2="215.2842712474619" y2="158.7157287525381" />
    <line x1="326.68689486682763" y1="93.664200852706813" x2="300.07986727314614" y2="111.44244830933408" />
    <line x1="335.16277241052364" y1="107.80534821323236" x2="321.05203218094994" y2="115.34769600244833" />
    <line x1="283.08347138117381" y1="147.20092303403067" x2="238.73725382063205" y2="165.56972778755497" />
    <line x1="363.0770217747264" y1="133.58761938517893" x2="347.76597640301111" y2="138.23217422125032" />
    <line x1="351.77192710774273" y1="154.22482590129044" x2="257.61654018903261" y2="172.95349681483876" />
    <line x1="371" y1="187" x2="339" y2="187" />
    <line x1="323" y1="187" x2="307" y2="187" />
    <line x1="275" y1="187" x2="259" y2="187" />
    <line x1="243" y1="187" x2="211" y2="187" />
    <line x1="354.19103408092906" y1="203.46687957536619" x2="322.34512282741878" y2="200.33033108482024" />
    <line x1="336.079362621291" y1="216.65372894645148" x2="289.001669161936" y2="207.28939348967734" />
    <line x1="363.0770217747264" y1="240.41238061482105" x2="332.45493103129576" y2="231.12327094267823" />
    <line x1="312.64761642153496" y1="239.0449468016522" x2="297.86554390135439" y2="232.92201188381077" />
    <line x1="268.30139886099323" y1="220.6761420481279" x2="253.51932634081265" y2="214.55320713028647" />
    <line x1="349.27351264009735" y1="273.73699957598359" x2="335.16277241052364" y2="266.19465178676762" />
    <line x1="339.9904086636684" y1="289.22492287560675" x2="326.68689486682763" y2="280.33579914729313" />
    <line x1="286.77635347630547" y1="253.66842796235224" x2="246.86581208578326" y2="227.00105677741135" />
    <line x1="329.23392341874364" y1="303.72836428611072" x2="292.12942165733227" y2="273.27748664625574" />
    <line x1="294.48023074035524" y1="294.48023074035518" x2="283.16652224137044" y2="283.16652224137044" />
    <line x1="237.91168824543144" y1="237.91168824543144" x2="226.59797974644667" y2="226.59797974644664" />
    <line x1="283.42777919287414" y1="304.497588911136" x2="273.2774866462558" y2="292.12942165733222" />
    <line x1="289.22492287560681" y1="339.99040866366835" x2="271.44667541897957" y2="313.38338106998691" />
    <line x1="262.55755169066589" y1="300.07986727314619" x2="253.66842796235227" y2="286.77635347630542" />
    <line x1="235.890180505725" y1="260.169325882624" x2="227.00105677741135" y2="246.86581208578326" />
    <line x1="214.55320713028647" y1="253.51932634081265" x2="202.3073372946036" y2="223.95518130045147" />
    <line x1="235.76782577874968" y1="347.76597640301111" x2="226.4787161066069" y2="317.14388565958041" />
    <line x1="222.89661925096766" y1="367.46449159419438" x2="219.77517409870961" y2="351.77192710774273" />
    <line x1="210.41083864193544" y1="304.69423364838764" x2="207.28939348967737" y2="289.001669161936" />
    <line x1="205.03515382063918" y1="370.11398970768425" x2="201.89860533009323" y2="338.26807845417392" />
    <line x1="187.00000000000003" y1="339" x2="187.00000000000003" y2="323" />
    <line x1="187.00000000000003" y1="307" x2="187" y2="275" />
    <line x1="187" y1="259" x2="187" y2="243" />
    <line x1="168.96484617936085" y1="370.11398970768425" x2="172.1013946699068" y2="338.268078454174" />
    <line x1="151.1033807490324" y1="367.46449159419438" x2="154.22482590129044" y2="351.77192710774273" />
    <line x1="157.34627105354849" y1="336.079362621291" x2="160.46771620580654" y2="320.38679813483935" />
    <line x1="138.23217422125038" y1="347.76597640301111" x2="147.52128389339316" y2="317.14388565958041" />
    <line x1="122.70918336266493" y1="342.21176146189623" x2="128.83211828050636" y2="327.4296889417156" />
    <line x1="147.20092303403067" y1="283.08347138117381" x2="159.44679286971353" y2="253.51932634081265" />
    <line x1="100.26300042401644" y1="349.27351264009735" x2="107.80534821323239" y2="335.16277241052364" />
    <line x1="120.33157203764776" y1="286.77635347630547" x2="129.22069576596141" y2="273.47283967946476" />
    <line x1="138.10981949427503" y1="260.169325882624" x2="146.99894322258865" y2="246.86581208578326" />
    <line x1="80.4219282605076" y1="316.86575616493985" x2="90.572220807125916" y2="304.49758891113606" />
    <line x1="68.206060760660023" y1="305.79393923934003" x2="79.519769259644789" y2="294.48023074035524" />
    <line x1="90.833477758629542" y1="283.1665222413705" x2="102.14718625761431" y2="271.85281374238571" />
    <line x1="113.46089475659906" y1="260.53910524340097" x2="124.77460325558383" y2="249.2253967444162" />
    <line x1="136.08831175456857" y1="237.91168824543144" x2="170.02943725152286" y2="203.97056274847714" />
    <line x1="57.134243835060232" y1="293.57807173949254" x2="81.870578342667812" y2="273.27748664625585" />
    <line x1="34.009591336331681" y1="289.22492287560681" x2="47.3131051331724" y2="280.33579914729319" />
    <line x1="73.920132726853851" y1="262.55755169066589" x2="87.223646523694569" y2="253.66842796235227" />
    <line x1="113.83067411737602" y1="235.890180505725" x2="127.13418791421674" y2="227.00105677741135" />
    <line x1="38.837227589476356" y1="266.19465178676762" x2="67.058708048623728" y2="251.10995620833569" />
    <line x1="31.788238538103855" y1="251.29081663733518" x2="46.57031105828446" y2="245.16788171949372" />
    <line x1="10.922978225273567" y1="240.41238061482108" x2="26.234023596988919" y2="235.76782577874968" />
    <line x1="22.228072892257302" y1="219.77517409870961" x2="37.920637378708989" y2="216.65372894645157" />
    <line x1="53.613201865160676" y1="213.53228379419349" x2="69.305766351612363" y2="210.41083864193544" />
    <line x1="19" y1="187.00000000000003" x2="35" y2="187.00000000000003" />
    <line x1="131" y1="187" x2="147" y2="187" />
    <line x1="35.731921545826054" y1="172.10139466990688" x2="51.654877172581223" y2="173.66966891517984" />
    <line x1="37.920637378708989" y1="157.34627105354849" x2="53.613201865160647" y2="160.46771620580654" />
    <line x1="69.305766351612348" y1="163.58916135806462" x2="116.38345981096741" y2="172.95349681483876" />
    <line x1="31.788238538103855" y1="122.70918336266487" x2="46.570311058284432" y2="128.83211828050634" />
    <line x1="24.726487359902677" y1="100.26300042401644" x2="52.947967819050035" y2="115.34769600244837" />
    <line x1="60.61661893001309" y1="102.55332458102052" x2="127.13418791421672" y2="146.99894322258865" />
    <line x1="68.20606076066" y1="68.206060760660051" x2="79.519769259644747" y2="79.5197692596448" />
    <line x1="147.40202025355333" y1="147.40202025355336" x2="158.7157287525381" y2="158.7157287525381" />
    <line x1="70.271635713889154" y1="44.766076581256442" x2="80.421928260507485" y2="57.134243835060232" />
    <line x1="107.80534821323235" y1="38.837227589476385" x2="115.34769600244832" y2="52.947967819050064" />
    <line x1="134.95505319834771" y1="61.352383578465037" x2="141.07798811618915" y2="76.134456098645614" />
    <line x1="153.32385795187204" y1="105.69860113900678" x2="159.44679286971348" y2="120.48067365918737" />
    <line x1="165.56972778755494" y1="135.26274617936795" x2="171.69266270539637" y2="150.04481869954856" />
    <line x1="138.23217422125032" y1="26.234023596988919" x2="147.5212838933931" y2="56.856114340419595" />
    <line x1="157.34627105354844" y1="37.920637378708989" x2="160.46771620580648" y2="53.613201865160676" />
    <line x1="163.58916135806456" y1="69.305766351612363" x2="166.71060651032261" y2="84.998330838064049" />
    <line x1="169.83205166258068" y1="100.69089532451574" x2="172.95349681483873" y2="116.38345981096742" />
    <line x1="172.1013946699068" y1="35.731921545826054" x2="173.66966891517978" y2="51.654877172581223" />
  </g>
  <path fill="none" stroke="#ff0000" stroke-width="2" stroke-linecap="square" stroke-linejoin="round" d="M 196.02845207624492,3.2216360582482935 L 194.0657451031482,43.17345430645517 A 144,144 0 0,0 179.9342548968518,43.17345430645517 L 179.14917210761311,27.192727007172408 A 160,160 0 0,0 148.12317121547773,31.794999488872975 L 155.89853697238218,62.835999591098371 A 128,128 0 0,0 149.8435613114288,64.51163702627727 L 154.48811614750019,79.822682397992608 A 112,112 0 0,0 100.42282922337347,115.9479521736717 L 125.15916373098105,136.24853726690836 A 80,80 0 0,1 149.28826105392017,116.44629885213161 L 156.83060884313613,130.55703908170528 A 64,64 0 0,0 125.75581851313864,205.5782193442856 L 110.4447731414233,210.222774180357 A 80,80 0 0,1 107.38522186622424,179.1586287736352 L 91.462266239469088,177.59035452836224 A 96,96 0 0,0 102.33555862255793,232.2540867352958 L 88.224818392984247,239.79643452451177 A 112,112 0 0,0 100.4228292233735,258.05204782632836 L 88.054661969569707,268.20234037294665 A 128,128 0 0,0 92.158255954565263,272.95954622041836 L 80.303037948885915,283.70448949797071 A 144,144 0 0,0 101.21930015308961,302.66188453321286 L 110.75048902496855,289.81056402952254 A 128,128 0 0,0 199.54619396218379,314.38364501404118 L 196.40964547163785,282.5377337605309 A 96,96 0 0,0 261.20900352282274,247.90175527970996 L 248.84083626901895,237.75146273309161 A 80,80 0 0,1 237.75146273309164,248.84083626901895 L 227.60117018647333,236.47266901521516 A 64,64 0 0,1 222.55649491325454,240.2140551873629 L 213.66737118494089,226.91054139052218 A 48,48 0 0,0 234.07769345935506,196.36433545677414 L 218.38512897290337,193.2428903045161 A 32,32 0 0,1 174.75413016431713,216.56414504036118 L 177.81559762323786,209.17310878027089" />
  <type>Circular</type>
</svg>