<?xml version="1.0" encoding="utf-8" standalone="no"?>
<!DOCTYPE svg PUBLIC "-//W3C//DTD SVG 1.1//EN" "http://www.w3.org/Graphics/SVG/1.1/DTD/svg11.dtd"[]>
<svg width="372" height="372" version="1.1" xmlns="http://www.w3.org/2000/svg">
  <title>23 cells diameter theta maze</title>
  <g fill="none" stroke="#000000" stroke-width="2" stroke-linecap="square">
    <path d="M 170.02943725152286,203.97056274847714 A 24,24 0 1,1 187,211" />
    <path d="M 158.7157287525381,158.7157287525381 A 40,40 0 0,1 215.2842712474619,158.7157287525381" />
    <path d="M 223.95518130045147,171.6926627053964 A 40,40 0 0,1 227,187" />
    <path d="M 223.95518130045147,202.3073372946036 A 40,40 0 0,1 215.2842712474619,215.2842712474619" />
    <path d="M 202.3073372946036,223.95518130045147 A 40,40 0 0,1 171.6926627053964,223.95518130045147" />
    <path d="M 147,187 A 40,40 0 0,1 150.04481869954853,171.6926627053964" />
    <path d="M 135.26274617936795,165.56972778755497 A 56,56 0 0,1 208.43027221244503,135.26274617936795" />
    <path d="M 226.59797974644667,147.40202025355333 A 56,56 0 0,1 238.73725382063205,165.56972778755497" />
    <path d="M 243,187 A 56,56 0 0,1 165.569727787555,238.73725382063208" />
    <path d="M 147.40202025355336,226.59797974644667 A 56,56 0 0,1 131,187" />
    <path d="M 159.44679286971348,120.48067365918737 A 72,72 0 0,1 214.55320713028647,120.48067365918736" />
    <path d="M 227.00105677741135,127.13418791421674 A 72,72 0 0,1 237.91168824543144,136.08831175456857" />
    <path d="M 246.86581208578326,146.99894322258865 A 72,72 0 0,1 253.51932634081265,159.44679286971353" />
    <path d="M 257.61654018903261,172.95349681483876 A 72,72 0 0,1 259,187" />
    <path d="M 257.61654018903261,201.04650318516124 A 72,72 0 0,1 246.86581208578326,227.00105677741135" />
    <path d="M 227.00105677741135,246.86581208578326 A 72,72 0 0,1 159.44679286971353,253.51932634081265" />
    <path d="M 146.99894322258865,246.86581208578326 A 72,72 0 0,1 115,187" />
    <path d="M 120.48067365918736,159.44679286971353 A 72,72 0 0,1 146.99894322258865,127.13418791421674" />
    <path d="M 187,99 A 88,88 0 0,1 204.16794833741929,100.69089532451572" />
    <path d="M 220.6761420481279,105.69860113900677 A 88,88 0 0,1 235.890180505725,113.83067411737602" />
    <path d="M 273.30910467548426,169.83205166258071 A 88,88 0 0,1 273.30910467548426,204.16794833741929" />
    <path d="M 268.30139886099323,220.6761420481279 A 88,88 0 0,1 260.169325882624,235.89018050572497" />
    <path d="M 220.6761420481279,268.30139886099323 A 88,88 0 0,1 204.16794833741932,273.30910467548426" />
    <path d="M 169.83205166258071,273.30910467548426 A 88,88 0 0,1 138.10981949427503,260.169325882624" />
    <path d="M 113.83067411737602,235.890180505725 A 88,88 0 0,1 105.69860113900678,220.67614204812796" />
    <path d="M 100.69089532451572,204.16794833741932 A 88,88 0 0,1 105.69860113900677,153.32385795187207" />
    <path d="M 113.83067411737599,138.10981949427503 A 88,88 0 0,1 124.7746032555838,124.77460325558383" />
    <path d="M 153.32385795187204,105.69860113900678 A 88,88 0 0,1 169.83205166258068,100.69089532451572" />
    <path d="M 187,83 A 104,104 0 0,1 226.79907696596933,90.916528618826177" />
    <path d="M 273.4728396794647,129.22069576596135 A 104,104 0 0,1 289.001669161936,166.71060651032266" />
    <path d="M 291,187 A 104,104 0 0,1 289.001669161936,207.28939348967734" />
    <path d="M 273.47283967946476,244.77930423403859 A 104,104 0 0,1 260.53910524340097,260.53910524340097" />
    <path d="M 226.79907696596933,283.08347138117381 A 104,104 0 0,1 166.71060651032266,289.001669161936" />
    <path d="M 129.22069576596141,273.47283967946476 A 104,104 0 0,1 100.52716032053529,244.77930423403862" />
    <path d="M 83,187.00000000000003 A 104,104 0 0,1 84.998330838064035,166.71060651032266" />
    <path d="M 129.22069576596135,100.5271603205353 A 104,104 0 0,1 147.20092303403061,90.9165286188262" />
    <path d="M 163.58916135806456,69.305766351612363 A 120,120 0 0,1 210.41083864193539,69.305766351612348" />
    <path d="M 232.92201188381077,76.134456098645586 A 120,120 0 0,1 253.66842796235227,87.223646523694569" />
    <path d="M 271.85281374238571,102.14718625761429 A 120,120 0 0,1 297.86554390135439,141.07798811618923" />
    <path d="M 304.69423364838764,163.58916135806459 A 120,120 0 0,1 304.69423364838764,210.41083864193539" />
    <path d="M 286.77635347630542,253.66842796235224 A 120,120 0 0,1 253.66842796235227,286.77635347630542" />
    <path d="M 232.9220118838108,297.86554390135439 A 120,120 0 0,1 210.41083864193544,304.69423364838764" />
    <path d="M 163.58916135806459,304.69423364838764 A 120,120 0 0,1 141.07798811618926,297.86554390135439" />
    <path d="M 120.33157203764777,286.77635347630547 A 120,120 0 0,1 69.305766351612348,210.41083864193544" />
    <path d="M 69.305766351612348,163.58916135806462 A 120,120 0 0,1 76.1344560986456,141.0779881161892" />
    <path d="M 213.53228379419343,53.613201865160647 A 136,136 0 0,1 262.55755169066589,73.920132726853851" />
    <path d="M 273.2774866462558,81.87057834266777 A 136,136 0 0,1 283.16652224137044,90.833477758629527" />
    <path d="M 292.12942165733222,100.72251335374421 A 136,136 0 0,1 300.07986727314614,111.4424483093341" />
    <path d="M 312.64761642153496,134.9550531983478 A 136,136 0 0,1 322.34512282741878,200.33033108482024" />
    <path d="M 320.38679813483935,213.53228379419343 A 136,136 0 0,1 283.16652224137044,283.16652224137044" />
    <path d="M 262.55755169066589,300.07986727314619 A 136,136 0 0,1 239.04494680165223,312.64761642153496" />
    <path d="M 226.4787161066069,317.14388565958041 A 136,136 0 0,1 90.833477758629556,283.16652224137044" />
    <path d="M 56.856114340419595,226.4787161066069 A 136,136 0 0,1 67.058708048623714,122.89004379166433" />
    <path d="M 73.920132726853822,111.44244830933414 A 136,136 0 0,1 100.72251335374415,81.870578342667827" />
    <path d="M 122.89004379166428,67.058708048623743 A 136,136 0 0,1 160.46771620580648,53.613201865160676" />
    <path d="M 142.87672905732171,41.545068968704271 A 152,152 0 0,1 187,35" />
    <path d="M 201.8986053300932,35.731921545826083 A 152,152 0 0,1 231.12327094267829,41.545068968704243" />
    <path d="M 245.16788171949364,46.5703110582844 A 152,152 0 0,1 294.48023074035524,79.519769259644775" />
    <path d="M 313.38338106998685,102.55332458102046 A 152,152 0 0,1 321.05203218094994,115.34769600244833" />
    <path d="M 327.4296889417156,128.83211828050634 A 152,152 0 0,1 338.26807845417392,172.10139466990677" />
    <path d="M 338.26807845417392,201.89860533009323 A 152,152 0 0,1 336.079362621291,216.65372894645148" />
    <path d="M 327.4296889417156,245.16788171949364 A 152,152 0 0,1 313.38338106998691,271.44667541897951" />
    <path d="M 304.49758891113606,283.42777919287408 A 152,152 0 0,1 294.48023074035524,294.48023074035518" />
    <path d="M 231.12327094267829,332.45493103129576 A 152,152 0 0,1 187.00000000000003,339" />
    <path d="M 157.34627105354849,336.079362621291 A 152,152 0 0,1 142.87672905732177,332.45493103129576" />
    <path d="M 128.83211828050636,327.4296889417156 A 152,152 0 0,1 115.34769600244836,321.05203218094994" />
    <path d="M 102.55332458102051,313.38338106998691 A 152,152 0 0,1 79.519769259644789,294.48023074035524" />
    <path d="M 69.502411088864022,283.42777919287414 A 152,152 0 0,1 35.731921545826083,201.89860533009318" />
    <path d="M 35.731921545826054,172.10139466990688 A 152,152 0 0,1 46.570311058284432,128.83211828050634" />
    <path d="M 60.61661893001309,102.55332458102052 A 152,152 0 0,1 79.519769259644747,79.5197692596448" />
    <path d="M 102.55332458102046,60.616618930013118 A 152,152 0 0,1 128.83211828050625,46.57031105828446" />
    <path d="M 170.53312042463384,19.808965919070914 A 168,168 0 0,1 187,19" />
    <path d="M 235.76782577874968,26.234023596988919 A 168,168 0 0,1 251.29081663733507,31.788238538103826" />
    <path d="M 293.57807173949243,57.134243835060175 A 168,168 0 0,1 305.79393923934,68.206060760660009" />
    <path d="M 326.68689486682763,93.664200852706827 A 168,168 0 0,1 342.21176146189617,122.70918336266492" />
    <path d="M 351.77192710774273,154.22482590129044 A 168,168 0 0,1 355,187" />
    <path d="M 354.19103408092906,203.46687957536619 A 168,168 0 0,1 351.77192710774273,219.77517409870953" />
    <path d="M 342.21176146189617,251.29081663733507 A 168,168 0 0,1 335.16277241052364,266.19465178676762" />
    <path d="M 219.77517409870961,351.77192710774273 A 168,168 0 0,1 187.00000000000003,355" />
    <path d="M 138.23217422125038,347.76597640301111 A 168,168 0 0,1 122.70918336266495,342.21176146189617" />
    <path d="M 68.206060760660037,305.79393923934003 A 168,168 0 0,1 38.837227589476385,266.19465178676762" />
    <path d="M 19.808965919070914,203.46687957536616 A 168,168 0 0,1 19,187.00000000000003" />
    <path d="M 19.808965919070914,170.53312042463392 A 168,168 0 0,1 26.234023596988891,138.23217422125038" />
    <path d="M 38.837227589476356,107.80534821323241 A 168,168 0 0,1 47.313105133172371,93.664200852706884" />
    <path d="M 68.20606076066,68.206060760660037 A 168,168 0 0,1 80.421928260507485,57.134243835060261" />
    <path d="M 93.664200852706827,47.3131051331724 A 168,168 0 0,1 107.80534821323235,38.837227589476385" />
    <path d="M 122.70918336266482,31.788238538103855 A 168,168 0 0,1 138.23217422125032,26.234023596988919" />
    <path d="M 205.03515382063915,3.886010292315774 A 184,184 0 1,1 187,3" />
  </g>
  <g fill="none" stroke="#000000" stroke-width="2" stroke-linecap="butt">
    <line x1="187" y1="3" x2="187" y2="19" />
    <line x1="187" y1="35" x2="187" y2="51" />
    <line x1="187" y1="83" x2="187" y2="115" />
    <line x1="205.03515382063915" y1="3.886010292315774" x2="203.46687957536619" y2="19.808965919070914" />
    <line x1="201.8986053300932" y1="35.731921545826054" x2="200.33033108482024" y2="51.654877172581223" />
    <line x1="222.8966192509676" y1="6.535508405805615" x2="216.65372894645151" y2="37.920637378708989" />
    <line x1="213.53228379419343" y1="53.613201865160647" x2="207.28939348967734" y2="84.998330838064035" />
    <line x1="231.12327094267829" y1="41.545068968704271" x2="226.47871610660687" y2="56.856114340419595" />
    <line x1="251.29081663733507" y1="31.788238538103826" x2="245.16788171949366" y2="46.5703110582844" />
    <line x1="232.92201188381077" y1="76.134456098645586" x2="226.79907696596933" y2="90.916528618826177" />
    <line x1="220.6761420481279" y1="105.69860113900677" x2="214.55320713028647" y2="120.48067365918736" />
    <line x1="273.73699957598353" y1="24.726487359902677" x2="266.19465178676762" y2="38.837227589476356" />
    <line x1="280.33579914729319" y1="47.3131051331724" x2="262.55755169066589" y2="73.920132726853851" />
    <line x1="253.66842796235227" y1="87.223646523694569" x2="244.77930423403862" y2="100.5271603205353" />
    <line x1="317.10764773832477" y1="56.892352261675256" x2="305.79393923934" y2="68.206060760660009" />
    <line x1="283.16652224137044" y1="90.833477758629527" x2="237.91168824543144" y2="136.08831175456857" />
    <line x1="329.23392341874364" y1="70.271635713889225" x2="304.497588911136" y2="90.572220807125888" />
    <line x1="326.68689486682763" y1="93.664200852706813" x2="313.38338106998685" y2="102.55332458102045" />
    <line x1="300.07986727314614" y1="111.44244830933408" x2="286.77635347630542" y2="120.33157203764773" />
    <line x1="273.4728396794647" y1="129.22069576596135" x2="246.86581208578326" y2="146.99894322258865" />
    <line x1="321.05203218094994" y1="115.34769600244833" x2="306.94129195137629" y2="122.8900437916643" />
    <line x1="356.99383398207675" y1="116.58624844482347" x2="342.21176146189617" y2="122.7091833626649" />
    <line x1="327.4296889417156" y1="128.83211828050634" x2="297.86554390135439" y2="141.0779881161892" />
    <line x1="283.08347138117381" y1="147.20092303403067" x2="268.30139886099323" y2="153.3238579518721" />
    <line x1="253.51932634081265" y1="159.44679286971353" x2="223.95518130045147" y2="171.6926627053964" />
    <line x1="347.76597640301111" y1="138.23217422125032" x2="332.45493103129576" y2="142.87672905732171" />
    <line x1="367.46449159419438" y1="151.1033807490324" x2="351.77192710774273" y2="154.22482590129044" />
    <line x1="304.69423364838764" y1="163.58916135806459" x2="289.001669161936" y2="166.71060651032266" />
    <line x1="273.30910467548426" y1="169.83205166258071" x2="257.61654018903261" y2="172.95349681483876" />
    <line x1="355" y1="187" x2="323" y2="187" />
    <line x1="259" y1="187" x2="243" y2="187" />
    <line x1="351.77192710774273" y1="219.77517409870953" x2="320.38679813483935" y2="213.53228379419343" />
    <line x1="304.69423364838764" y1="210.41083864193539" x2="257.61654018903261" y2="201.04650318516124" />
    <line x1="363.0770217747264" y1="240.41238061482105" x2="332.45493103129576" y2="231.12327094267823" />
    <line x1="312.64761642153496" y1="239.0449468016522" x2="297.86554390135439" y2="232.92201188381077" />
    <line x1="283.08347138117381" y1="226.79907696596933" x2="268.30139886099323" y2="220.6761420481279" />
    <line x1="349.27351264009735" y1="273.73699957598359" x2="321.05203218094994" y2="258.65230399755166" />
    <line x1="326.68689486682763" y1="280.33579914729313" x2="300.07986727314619" y2="262.55755169066583" />
    <line x1="286.77635347630547" y1="253.66842796235224" x2="273.47283967946476" y2="244.77930423403859" />
    <line x1="260.169325882624" y1="235.89018050572497" x2="246.86581208578326" y2="227.00105677741135" />
    <line x1="316.86575616493985" y1="293.57807173949243" x2="304.49758891113606" y2="283.42777919287408" />
    <line x1="317.10764773832477" y1="317.10764773832477" x2="305.79393923934" y2="305.79393923934" />
    <line x1="294.48023074035524" y1="294.48023074035518" x2="283.16652224137044" y2="283.16652224137044" />
    <line x1="260.53910524340097" y1="260.53910524340097" x2="249.22539674441617" y2="249.22539674441617" />
    <line x1="237.91168824543144" y1="237.91168824543144" x2="226.59797974644667" y2="226.59797974644664" />
    <line x1="215.2842712474619" y1="215.2842712474619" x2="203.97056274847714" y2="203.97056274847714" />
    <line x1="303.72836428611078" y1="329.23392341874364" x2="273.2774866462558" y2="292.12942165733222" />
    <line x1="280.33579914729319" y1="326.68689486682763" x2="253.66842796235227" y2="286.77635347630542" />
    <line x1="244.77930423403862" y1="273.4728396794647" x2="227.00105677741135" y2="246.86581208578326" />
    <line x1="266.19465178676762" y1="335.16277241052364" x2="251.10995620833569" y2="306.94129195137629" />
    <line x1="257.41375155517653" y1="356.99383398207675" x2="239.04494680165223" y2="312.64761642153496" />
    <line x1="226.79907696596933" y1="283.08347138117381" x2="220.6761420481279" y2="268.30139886099323" />
    <line x1="235.76782577874968" y1="347.76597640301111" x2="226.4787161066069" y2="317.14388565958041" />
    <line x1="222.89661925096766" y1="367.46449159419438" x2="219.77517409870961" y2="351.77192710774273" />
    <line x1="213.53228379419349" y1="320.38679813483935" x2="210.41083864193544" y2="304.69423364838764" />
    <line x1="187.00000000000003" y1="323" x2="187" y2="275" />
    <line x1="187" y1="227" x2="187" y2="211" />
    <line x1="170.53312042463381" y1="354.19103408092906" x2="173.66966891517976" y2="322.34512282741878" />
    <line x1="151.1033807490324" y1="367.46449159419438" x2="154.22482590129044" y2="351.77192710774273" />
    <line x1="138.23217422125038" y1="347.76597640301111" x2="147.52128389339316" y2="317.14388565958041" />
    <line x1="116.5862484448235" y1="356.99383398207681" x2="128.83211828050636" y2="327.4296889417156" />
    <line x1="141.07798811618923" y1="297.86554390135444" x2="171.6926627053964" y2="223.95518130045147" />
    <line x1="107.80534821323239" y1="335.16277241052364" x2="115.34769600244836" y2="321.05203218094994" />
    <line x1="93.66420085270687" y1="326.68689486682763" x2="111.44244830933414" y2="300.07986727314619" />
    <line x1="129.22069576596141" y1="273.47283967946476" x2="146.99894322258865" y2="246.86581208578326" />
    <line x1="70.271635713889268" y1="329.23392341874364" x2="80.4219282605076" y2="316.86575616493985" />
    <line x1="90.833477758629542" y1="283.1665222413705" x2="102.14718625761431" y2="271.85281374238571" />
    <line x1="124.77460325558383" y1="249.2253967444162" x2="147.40202025355336" y2="226.59797974644667" />
    <line x1="158.7157287525381" y1="215.2842712474619" x2="170.02943725152286" y2="203.97056274847714" />
    <line x1="57.134243835060232" y1="293.57807173949254" x2="81.870578342667812" y2="273.27748664625585" />
    <line x1="73.920132726853851" y1="262.55755169066589" x2="87.223646523694569" y2="253.66842796235227" />
    <line x1="100.5271603205353" y1="244.77930423403862" x2="113.83067411737602" y2="235.890180505725" />
    <line x1="52.947967819050064" y1="258.65230399755166" x2="67.058708048623728" y2="251.10995620833569" />
    <line x1="17.006166017923277" y1="257.41375155517665" x2="31.788238538103855" y2="251.29081663733518" />
    <line x1="46.57031105828446" y1="245.16788171949372" x2="105.69860113900678" y2="220.67614204812796" />
    <line x1="135.26274617936795" y1="208.43027221244506" x2="150.04481869954856" y2="202.3073372946036" />
    <line x1="10.922978225273567" y1="240.41238061482108" x2="26.234023596988919" y2="235.76782577874968" />
    <line x1="22.228072892257302" y1="219.77517409870961" x2="37.920637378708989" y2="216.65372894645157" />
    <line x1="69.305766351612363" y1="210.41083864193544" x2="84.998330838064049" y2="207.28939348967737" />
    <line x1="100.69089532451574" y1="204.16794833741932" x2="116.38345981096742" y2="201.04650318516127" />
    <line x1="19" y1="187.00000000000003" x2="83" y2="187.00000000000003" />
    <line x1="19.808965919070914" y1="170.53312042463389" x2="51.654877172581223" y2="173.66966891517984" />
    <line x1="84.998330838064035" y1="166.71060651032266" x2="116.38345981096741" y2="172.95349681483876" />
    <line x1="31.788238538103855" y1="122.70918336266487" x2="46.570311058284432" y2="128.83211828050634" />
    <line x1="76.1344560986456" y1="141.0779881161892" x2="105.69860113900678" y2="153.32385795187207" />
    <line x1="120.48067365918736" y1="159.44679286971353" x2="150.04481869954853" y2="171.6926627053964" />
    <line x1="24.726487359902677" y1="100.26300042401644" x2="38.837227589476356" y2="107.80534821323241" />
    <line x1="52.947967819050035" y1="115.34769600244837" x2="67.058708048623714" y2="122.89004379166433" />
    <line x1="47.313105133172371" y1="93.664200852706884" x2="60.61661893001309" y2="102.55332458102052" />
    <line x1="73.920132726853822" y1="111.44244830933415" x2="113.830674117376" y2="138.10981949427503" />
    <line x1="57.134243835060204" y1="80.421928260507542" x2="81.870578342667784" y2="100.72251335374421" />
    <line x1="90.833477758629513" y1="90.833477758629556" x2="113.46089475659905" y2="113.46089475659908" />
    <line x1="147.40202025355333" y1="147.40202025355336" x2="158.7157287525381" y2="158.7157287525381" />
    <line x1="80.421928260507485" y1="57.134243835060232" x2="100.72251335374415" y2="81.870578342667812" />
    <line x1="84.775077124393192" y1="34.009591336331681" x2="93.664200852706841" y2="47.3131051331724" />
    <line x1="102.55332458102046" y1="60.616618930013118" x2="120.33157203764773" y2="87.223646523694569" />
    <line x1="129.22069576596138" y1="100.5271603205353" x2="146.99894322258865" y2="127.13418791421674" />
    <line x1="116.58624844482337" y1="17.006166017923277" x2="128.83211828050625" y2="46.57031105828446" />
    <line x1="141.07798811618915" y1="76.134456098645614" x2="159.44679286971348" y2="120.48067365918737" />
    <line x1="151.10338074903231" y1="6.535508405805615" x2="160.46771620580648" y2="53.613201865160676" />
    <line x1="163.58916135806456" y1="69.305766351612363" x2="166.71060651032261" y2="84.998330838064049" />
    <line x1="172.1013946699068" y1="35.731921545826054" x2="173.66966891517978" y2="51.654877172581223" />
  </g>
  <path fill="none" stroke="#ff0000" stroke-width="2" stroke-linecap="square" stroke-linejoin="round" d="M 196.02845207624492,3.2216360582482935 L 193.28066231390952,59.154181605737932 A 128,128 0 0,0 126.66121768627227,74.114078163410582 L 134.20356547548823,88.224818392984261 A 112,112 0 0,0 115.94795217367165,100.4228292233735 L 136.24853726690833,125.15916373098108 A 80,80 0 0,0 110.44477314142328,163.77722581964304 L 125.75581851313862,168.42178065571443 A 64,64 0 0,0 124.22974205419325,174.51421939096778 L 139.92230654064494,177.63566454322583 A 48,48 0 0,0 139.92230654064494,196.36433545677417 L 155.61487102709663,193.24289030451612 A 32,32 0 0,0 160.39297240631856,204.77824745662727 L 147.08945860947785,213.66737118494092 A 48,48 0 0,0 160.33262881505911,226.91054139052218 L 169.22175254337273,213.60702759368147 A 32,32 0 0,0 174.75413016431713,216.56414504036118 L 177.81559762323786,209.17310878027089" />
  <type>Circular</type>
</svg>