<?xml version="1.0" encoding="utf-8" standalone="no"?>
<!DOCTYPE svg PUBLIC "-//W3C//DTD SVG 1.1//EN" "http://www.w3.org/Graphics/SVG/1.1/DTD/svg11.dtd"[]>
<svg width="372" height="372" version="1.1" xmlns="http://www.w3.org/2000/svg">
  <title>23 cells diameter theta maze</title>
  <g fill="none" stroke="#000000" stroke-width="2" stroke-linecap="square">
    <path d="M 170.02943725152286,203.97056274847714 A 24,24 0 1,1 187,211" />
    <path d="M 150.04481869954853,171.6926627053964 A 40,40 0 0,1 215.2842712474619,158.7157287525381" />
    <path d="M 223.95518130045147,171.6926627053964 A 40,40 0 0,1 202.3073372946036,223.95518130045147" />
    <path d="M 187,227 A 40,40 0 0,1 158.7157287525381,215.2842712474619" />
    <path d="M 150.04481869954853,202.3073372946036 A 40,40 0 0,1 147,187" />
    <path d="M 135.26274617936795,165.56972778755497 A 56,56 0 0,1 187,131" />
    <path d="M 208.43027221244503,135.26274617936795 A 56,56 0 0,1 226.59797974644667,147.40202025355333" />
    <path d="M 243,187 A 56,56 0 0,1 208.43027221244503,238.73725382063205" />
    <path d="M 165.569727787555,238.73725382063208 A 56,56 0 0,1 135.26274617936795,208.43027221244506" />
    <path d="M 146.99894322258865,127.13418791421674 A 72,72 0 0,1 227.00105677741135,127.13418791421674" />
    <path d="M 237.91168824543144,136.08831175456857 A 72,72 0 0,1 257.61654018903261,172.95349681483876" />
    <path d="M 259,187 A 72,72 0 0,1 257.61654018903261,201.04650318516124" />
    <path d="M 237.91168824543144,237.91168824543141 A 72,72 0 0,1 227.00105677741135,246.86581208578326" />
    <path d="M 187,259 A 72,72 0 0,1 172.95349681483876,257.61654018903261" />
    <path d="M 159.44679286971353,253.51932634081265 A 72,72 0 0,1 146.99894322258865,246.86581208578326" />
    <path d="M 136.08831175456859,237.91168824543144 A 72,72 0 0,1 127.13418791421674,227.00105677741135" />
    <path d="M 120.48067365918737,214.5532071302865 A 72,72 0 0,1 115,187" />
    <path d="M 116.38345981096741,172.95349681483876 A 72,72 0 0,1 136.08831175456857,136.08831175456859" />
    <path d="M 169.83205166258068,100.69089532451572 A 88,88 0 0,1 204.16794833741929,100.69089532451572" />
    <path d="M 220.6761420481279,105.69860113900677 A 88,88 0 0,1 260.169325882624,138.109819494275" />
    <path d="M 273.30910467548426,169.83205166258071 A 88,88 0 0,1 275,187" />
    <path d="M 273.30910467548426,204.16794833741929 A 88,88 0 0,1 268.30139886099323,220.6761420481279" />
    <path d="M 235.89018050572497,260.169325882624 A 88,88 0 0,1 187,275" />
    <path d="M 169.83205166258071,273.30910467548426 A 88,88 0 0,1 138.10981949427503,260.169325882624" />
    <path d="M 124.77460325558383,249.2253967444162 A 88,88 0 0,1 113.83067411737602,235.890180505725" />
    <path d="M 105.69860113900678,220.67614204812796 A 88,88 0 0,1 100.69089532451572,204.16794833741932" />
    <path d="M 99,187.00000000000003 A 88,88 0 0,1 105.69860113900677,153.32385795187207" />
    <path d="M 113.83067411737599,138.10981949427503 A 88,88 0 0,1 138.109819494275,113.83067411737602" />
    <path d="M 207.28939348967734,84.998330838064035 A 104,104 0 0,1 260.53910524340097,113.46089475659906" />
    <path d="M 273.4728396794647,129.22069576596135 A 104,104 0 0,1 289.001669161936,166.71060651032266" />
    <path d="M 291,187 A 104,104 0 0,1 226.79907696596933,283.08347138117381" />
    <path d="M 207.28939348967737,289.001669161936 A 104,104 0 0,1 113.46089475659908,260.53910524340097" />
    <path d="M 100.52716032053529,244.77930423403862 A 104,104 0 0,1 90.9165286188262,226.79907696596939" />
    <path d="M 84.998330838064035,207.28939348967737 A 104,104 0 0,1 84.998330838064035,166.71060651032266" />
    <path d="M 90.916528618826192,147.20092303403064 A 104,104 0 0,1 129.22069576596135,100.5271603205353" />
    <path d="M 147.20092303403061,90.9165286188262 A 104,104 0 0,1 166.71060651032261,84.998330838064049" />
    <path d="M 87.223646523694541,120.33157203764777 A 120,120 0 0,1 187,67" />
    <path d="M 232.92201188381077,76.134456098645586 A 120,120 0 0,1 253.66842796235227,87.223646523694569" />
    <path d="M 271.85281374238571,102.14718625761429 A 120,120 0 0,1 286.77635347630542,120.33157203764773" />
    <path d="M 297.86554390135439,232.92201188381077 A 120,120 0 0,1 286.77635347630542,253.66842796235224" />
    <path d="M 253.66842796235227,286.77635347630542 A 120,120 0 0,1 187.00000000000003,307" />
    <path d="M 102.14718625761431,271.85281374238571 A 120,120 0 0,1 76.134456098645614,232.92201188381085" />
    <path d="M 67,187.00000000000003 A 120,120 0 0,1 76.1344560986456,141.0779881161892" />
    <path d="M 122.89004379166428,67.058708048623743 A 136,136 0 0,1 213.53228379419343,53.613201865160647" />
    <path d="M 226.4787161066069,56.856114340419595 A 136,136 0 0,1 251.10995620833569,67.058708048623714" />
    <path d="M 262.55755169066589,73.920132726853851 A 136,136 0 0,1 292.12942165733222,100.72251335374421" />
    <path d="M 300.07986727314614,111.4424483093341 A 136,136 0 0,1 322.34512282741878,173.66966891517973" />
    <path d="M 323,187 A 136,136 0 0,1 320.38679813483935,213.53228379419343" />
    <path d="M 317.14388565958041,226.47871610660687 A 136,136 0 0,1 306.94129195137629,251.10995620833569" />
    <path d="M 300.07986727314619,262.55755169066589 A 136,136 0 0,1 226.4787161066069,317.14388565958041" />
    <path d="M 213.53228379419349,320.3867981348393 A 136,136 0 0,1 200.33033108482027,322.34512282741878" />
    <path d="M 187.00000000000003,323 A 136,136 0 0,1 160.46771620580654,320.38679813483935" />
    <path d="M 147.52128389339316,317.14388565958041 A 136,136 0 0,1 134.9550531983478,312.647616421535" />
    <path d="M 122.89004379166433,306.94129195137629 A 136,136 0 0,1 67.058708048623728,251.10995620833572" />
    <path d="M 61.352383578465037,239.04494680165229 A 136,136 0 0,1 56.856114340419595,226.4787161066069" />
    <path d="M 53.613201865160676,213.53228379419349 A 136,136 0 0,1 51.654877172581223,173.66966891517984" />
    <path d="M 56.856114340419595,147.52128389339316 A 136,136 0 0,1 73.920132726853822,111.44244830933414" />
    <path d="M 81.870578342667784,100.72251335374421 A 136,136 0 0,1 90.833477758629513,90.833477758629556" />
    <path d="M 100.72251335374415,81.870578342667827 A 136,136 0 0,1 111.4424483093341,73.920132726853851" />
    <path d="M 187,35 A 152,152 0 0,1 231.12327094267829,41.545068968704243" />
    <path d="M 245.16788171949364,46.5703110582844 A 152,152 0 0,1 258.65230399755166,52.947967819050035" />
    <path d="M 283.42777919287414,69.50241108886398 A 152,152 0 0,1 313.38338106998685,102.55332458102046" />
    <path d="M 321.05203218094994,115.34769600244833 A 152,152 0 0,1 332.45493103129576,142.87672905732174" />
    <path d="M 336.079362621291,157.34627105354849 A 152,152 0 0,1 339,187" />
    <path d="M 338.26807845417392,201.89860533009323 A 152,152 0 0,1 327.4296889417156,245.16788171949364" />
    <path d="M 304.49758891113606,283.42777919287408 A 152,152 0 0,1 283.42777919287414,304.497588911136" />
    <path d="M 258.65230399755166,321.05203218094994 A 152,152 0 0,1 172.1013946699068,338.26807845417392" />
    <path d="M 157.34627105354849,336.079362621291 A 152,152 0 0,1 115.34769600244836,321.05203218094994" />
    <path d="M 102.55332458102051,313.38338106998691 A 152,152 0 0,1 79.519769259644789,294.48023074035524" />
    <path d="M 60.616618930013118,271.44667541897951 A 152,152 0 0,1 46.57031105828446,245.16788171949372" />
    <path d="M 41.545068968704243,231.12327094267829 A 152,152 0 0,1 35.731921545826083,201.89860533009318" />
    <path d="M 37.92063737870896,157.34627105354849 A 152,152 0 0,1 41.545068968704243,142.87672905732177" />
    <path d="M 46.570311058284432,128.83211828050634 A 152,152 0 0,1 115.34769600244832,52.947967819050064" />
    <path d="M 128.83211828050625,46.57031105828446 A 152,152 0 0,1 172.1013946699068,35.731921545826083" />
    <path d="M 170.53312042463384,19.808965919070914 A 168,168 0 0,1 187,19" />
    <path d="M 235.76782577874968,26.234023596988919 A 168,168 0 0,1 280.33579914729319,47.3131051331724" />
    <path d="M 342.21176146189617,122.70918336266492 A 168,168 0 0,1 354.19103408092906,203.46687957536619" />
    <path d="M 342.21176146189617,251.29081663733507 A 168,168 0 0,1 335.16277241052364,266.19465178676762" />
    <path d="M 326.68689486682763,280.33579914729313 A 168,168 0 0,1 316.86575616493985,293.57807173949243" />
    <path d="M 305.79393923934,305.79393923934 A 168,168 0 0,1 251.2908166373351,342.21176146189617" />
    <path d="M 219.77517409870961,351.77192710774273 A 168,168 0 0,1 170.53312042463381,354.19103408092906" />
    <path d="M 154.22482590129044,351.77192710774273 A 168,168 0 0,1 138.23217422125038,347.76597640301111" />
    <path d="M 107.80534821323241,335.16277241052364 A 168,168 0 0,1 47.3131051331724,280.33579914729319" />
    <path d="M 19.808965919070914,203.46687957536616 A 168,168 0 0,1 19,187.00000000000003" />
    <path d="M 19.808965919070914,170.53312042463392 A 168,168 0 0,1 22.228072892257273,154.22482590129044" />
    <path d="M 26.234023596988891,138.23217422125038 A 168,168 0 0,1 47.313105133172371,93.664200852706884" />
    <path d="M 80.421928260507485,57.134243835060261 A 168,168 0 0,1 93.664200852706827,47.3131051331724" />
    <path d="M 107.80534821323235,38.837227589476385 A 168,168 0 0,1 122.70918336266482,31.788238538103855" />
    <path d="M 205.03515382063915,3.886010292315774 A 184,184 0 1,1 187,3" />
  </g>
  <g fill="none" stroke="#000000" stroke-width="2" stroke-linecap="butt">
    <line x1="187" y1="67" x2="187" y2="83" />
    <line x1="203.46687957536619" y1="19.808965919070914" x2="201.8986053300932" y2="35.731921545826054" />
    <line x1="219.77517409870956" y1="22.228072892257273" x2="216.65372894645151" y2="37.920637378708989" />
    <line x1="213.53228379419343" y1="53.613201865160647" x2="204.16794833741929" y2="100.69089532451572" />
    <line x1="231.12327094267829" y1="41.545068968704271" x2="226.47871610660687" y2="56.856114340419595" />
    <line x1="239.0449468016522" y1="61.352383578465009" x2="232.92201188381077" y2="76.134456098645586" />
    <line x1="214.55320713028647" y1="120.48067365918736" x2="208.43027221244503" y2="135.26274617936795" />
    <line x1="258.65230399755166" y1="52.947967819050035" x2="251.10995620833569" y2="67.058708048623714" />
    <line x1="280.33579914729319" y1="47.3131051331724" x2="244.77930423403862" y2="100.5271603205353" />
    <line x1="235.890180505725" y1="113.83067411737602" x2="227.00105677741135" y2="127.13418791421674" />
    <line x1="303.72836428611078" y1="44.766076581256385" x2="283.42777919287414" y2="69.50241108886398" />
    <line x1="305.79393923934" y1="68.206060760660009" x2="294.48023074035518" y2="79.519769259644775" />
    <line x1="226.59797974644664" y1="147.40202025355333" x2="215.2842712474619" y2="158.7157287525381" />
    <line x1="329.23392341874364" y1="70.271635713889225" x2="316.86575616493985" y2="80.421928260507556" />
    <line x1="326.68689486682763" y1="93.664200852706813" x2="313.38338106998685" y2="102.55332458102045" />
    <line x1="300.07986727314614" y1="111.44244830933408" x2="286.77635347630542" y2="120.33157203764773" />
    <line x1="273.4728396794647" y1="129.22069576596135" x2="260.169325882624" y2="138.109819494275" />
    <line x1="335.16277241052364" y1="107.80534821323236" x2="321.05203218094994" y2="115.34769600244833" />
    <line x1="297.86554390135439" y1="141.0779881161892" x2="268.30139886099323" y2="153.3238579518721" />
    <line x1="253.51932634081265" y1="159.44679286971353" x2="223.95518130045147" y2="171.6926627053964" />
    <line x1="347.76597640301111" y1="138.23217422125032" x2="332.45493103129576" y2="142.87672905732171" />
    <line x1="336.079362621291" y1="157.34627105354849" x2="289.001669161936" y2="166.71060651032266" />
    <line x1="273.30910467548426" y1="169.83205166258071" x2="257.61654018903261" y2="172.95349681483876" />
    <line x1="339" y1="187" x2="323" y2="187" />
    <line x1="307" y1="187" x2="275" y2="187" />
    <line x1="259" y1="187" x2="243" y2="187" />
    <line x1="370.11398970768425" y1="205.03515382063915" x2="354.19103408092906" y2="203.46687957536619" />
    <line x1="351.77192710774273" y1="219.77517409870953" x2="304.69423364838764" y2="210.41083864193539" />
    <line x1="273.30910467548426" y1="204.16794833741929" x2="257.61654018903261" y2="201.04650318516124" />
    <line x1="347.76597640301111" y1="235.76782577874965" x2="332.45493103129576" y2="231.12327094267823" />
    <line x1="356.99383398207675" y1="257.41375155517653" x2="342.21176146189617" y2="251.29081663733507" />
    <line x1="312.64761642153496" y1="239.0449468016522" x2="297.86554390135439" y2="232.92201188381077" />
    <line x1="253.51932634081265" y1="214.55320713028647" x2="238.73725382063205" y2="208.43027221244503" />
    <line x1="335.16277241052364" y1="266.19465178676762" x2="306.94129195137629" y2="251.10995620833569" />
    <line x1="313.38338106998691" y1="271.44667541897951" x2="300.07986727314619" y2="262.55755169066583" />
    <line x1="273.47283967946476" y1="244.77930423403859" x2="246.86581208578326" y2="227.00105677741135" />
    <line x1="316.86575616493985" y1="293.57807173949243" x2="304.49758891113606" y2="283.42777919287408" />
    <line x1="294.48023074035524" y1="294.48023074035518" x2="237.91168824543144" y2="237.91168824543144" />
    <line x1="271.44667541897957" y1="313.38338106998691" x2="262.55755169066589" y2="300.07986727314619" />
    <line x1="251.2908166373351" y1="342.21176146189617" x2="245.16788171949366" y2="327.4296889417156" />
    <line x1="226.79907696596933" y1="283.08347138117381" x2="220.6761420481279" y2="268.30139886099323" />
    <line x1="214.55320713028647" y1="253.51932634081265" x2="202.3073372946036" y2="223.95518130045147" />
    <line x1="240.41238061482108" y1="363.0770217747264" x2="235.76782577874968" y2="347.76597640301111" />
    <line x1="219.77517409870961" y1="351.77192710774273" x2="216.65372894645154" y2="336.079362621291" />
    <line x1="213.53228379419349" y1="320.38679813483935" x2="207.28939348967737" y2="289.001669161936" />
    <line x1="204.16794833741932" y1="273.30910467548426" x2="201.04650318516127" y2="257.61654018903261" />
    <line x1="201.89860533009323" y1="338.26807845417392" x2="200.33033108482027" y2="322.34512282741878" />
    <line x1="187" y1="291" x2="187" y2="275" />
    <line x1="187" y1="259" x2="187" y2="211" />
    <line x1="172.1013946699068" y1="338.268078454174" x2="173.66966891517976" y2="322.34512282741878" />
    <line x1="151.1033807490324" y1="367.46449159419438" x2="154.22482590129044" y2="351.77192710774273" />
    <line x1="163.58916135806459" y1="304.69423364838764" x2="166.71060651032266" y2="289.001669161936" />
    <line x1="169.83205166258071" y1="273.30910467548426" x2="172.95349681483876" y2="257.61654018903261" />
    <line x1="116.5862484448235" y1="356.99383398207681" x2="147.20092303403067" y2="283.08347138117381" />
    <line x1="159.44679286971353" y1="253.51932634081265" x2="165.56972778755497" y2="238.73725382063208" />
    <line x1="115.34769600244836" y1="321.05203218094994" x2="122.89004379166433" y2="306.94129195137629" />
    <line x1="111.44244830933414" y1="300.07986727314619" x2="120.33157203764776" y2="286.77635347630547" />
    <line x1="70.271635713889268" y1="329.23392341874364" x2="80.4219282605076" y2="316.86575616493985" />
    <line x1="79.519769259644789" y1="294.48023074035524" x2="90.833477758629542" y2="283.1665222413705" />
    <line x1="113.46089475659906" y1="260.53910524340097" x2="124.77460325558383" y2="249.2253967444162" />
    <line x1="147.40202025355336" y1="226.59797974644667" x2="158.7157287525381" y2="215.2842712474619" />
    <line x1="57.134243835060232" y1="293.57807173949254" x2="69.502411088864022" y2="283.4277791928742" />
    <line x1="87.223646523694569" y1="253.66842796235227" x2="100.5271603205353" y2="244.77930423403862" />
    <line x1="113.83067411737602" y1="235.890180505725" x2="127.13418791421674" y2="227.00105677741135" />
    <line x1="38.837227589476356" y1="266.19465178676762" x2="67.058708048623728" y2="251.10995620833569" />
    <line x1="31.788238538103855" y1="251.29081663733518" x2="46.57031105828446" y2="245.16788171949372" />
    <line x1="61.352383578465037" y1="239.04494680165229" x2="76.134456098645614" y2="232.92201188381085" />
    <line x1="90.9165286188262" y1="226.79907696596939" x2="120.48067365918737" y2="214.5532071302865" />
    <line x1="10.922978225273567" y1="240.41238061482108" x2="56.856114340419595" y2="226.4787161066069" />
    <line x1="22.228072892257302" y1="219.77517409870961" x2="37.920637378708989" y2="216.65372894645157" />
    <line x1="53.613201865160676" y1="213.53228379419349" x2="84.998330838064049" y2="207.28939348967737" />
    <line x1="3" y1="187.00000000000003" x2="51" y2="187.00000000000003" />
    <line x1="99" y1="187.00000000000003" x2="163" y2="187" />
    <line x1="19.808965919070914" y1="170.53312042463389" x2="35.731921545826054" y2="172.10139466990688" />
    <line x1="6.535508405805615" y1="151.1033807490324" x2="22.228072892257273" y2="154.22482590129044" />
    <line x1="37.920637378708989" y1="157.34627105354849" x2="53.613201865160647" y2="160.46771620580654" />
    <line x1="26.234023596988891" y1="138.23217422125038" x2="56.856114340419595" y2="147.52128389339316" />
    <line x1="76.1344560986456" y1="141.0779881161892" x2="105.69860113900678" y2="153.32385795187207" />
    <line x1="135.26274617936795" y1="165.56972778755497" x2="150.04481869954853" y2="171.6926627053964" />
    <line x1="24.726487359902677" y1="100.26300042401644" x2="38.837227589476356" y2="107.80534821323241" />
    <line x1="73.920132726853822" y1="111.44244830933415" x2="87.223646523694541" y2="120.33157203764777" />
    <line x1="44.766076581256414" y1="70.271635713889211" x2="57.134243835060204" y2="80.421928260507542" />
    <line x1="69.502411088864" y1="90.572220807125873" x2="81.870578342667784" y2="100.72251335374421" />
    <line x1="68.20606076066" y1="68.206060760660051" x2="79.519769259644747" y2="79.5197692596448" />
    <line x1="136.08831175456857" y1="136.08831175456859" x2="147.40202025355333" y2="147.40202025355336" />
    <line x1="90.572220807125817" y1="69.502411088864022" x2="100.72251335374415" y2="81.870578342667812" />
    <line x1="84.775077124393192" y1="34.009591336331681" x2="93.664200852706841" y2="47.3131051331724" />
    <line x1="111.44244830933411" y1="73.920132726853851" x2="120.33157203764773" y2="87.223646523694569" />
    <line x1="129.22069576596138" y1="100.5271603205353" x2="138.109819494275" y2="113.83067411737602" />
    <line x1="107.80534821323235" y1="38.837227589476385" x2="122.89004379166428" y2="67.058708048623743" />
    <line x1="122.70918336266482" y1="31.788238538103855" x2="128.83211828050625" y2="46.57031105828446" />
    <line x1="141.07798811618915" y1="76.134456098645614" x2="159.44679286971348" y2="120.48067365918737" />
    <line x1="133.5876193851789" y1="10.922978225273567" x2="138.23217422125032" y2="26.234023596988919" />
    <line x1="151.10338074903231" y1="6.535508405805615" x2="154.22482590129039" y2="22.228072892257302" />
    <line x1="170.53312042463384" y1="19.808965919070914" x2="172.1013946699068" y2="35.731921545826054" />
  </g>
  <path fill="none" stroke="#ff0000" stroke-width="2" stroke-linecap="square" stroke-linejoin="round" d="M 196.02845207624492,3.2216360582482935 L 195.63591068162558,11.211999707889646 A 176,176 0 0,1 291.84307759066826,45.63547445940651 L 272.78069984691041,71.33811546678713 A 144,144 0 0,1 326.68450046001431,152.01085409393 L 342.205000511127,148.12317121547775 A 160,160 0 0,1 345.26824159436495,210.47687591285785 L 361.09506575380146,212.82456350414364 A 176,176 0 0,1 352.71175547221168,246.2926141970307 L 337.64705042928335,240.90237654275518 A 160,160 0 0,1 331.63828689975094,255.40881494884511 L 317.17445820977582,248.56793345396059 A 144,144 0 0,0 326.68450046001431,221.98914590607 L 311.16400040890164,218.10146302761777 A 128,128 0 0,1 309.48836297372276,224.15643868857114 L 294.17731760200741,219.51188385249975 A 112,112 0 0,0 298.46068938728604,197.9779197169108 L 314.38364501404124,199.54619396218376 A 128,128 0 0,0 314.38364501404118,174.45380603781621 L 282.5377337605309,177.59035452836216 A 96,96 0 0,0 278.86627223029205,159.13267098357161 L 263.5552268585767,163.777225819643 A 80,80 0 0,0 237.75146273309164,125.15916373098105 L 227.60117018647333,137.52733098478484 A 64,64 0 0,1 240.2140551873629,151.44350508674546 L 213.60702759368144,169.22175254337273 A 32,32 0 0,1 193.24289030451612,218.38512897290337 L 199.48578060903222,249.77025794580675 A 64,64 0 0,1 193.2730969810919,250.69182250702059 L 194.84137122636486,266.61477813377576 A 80,80 0 0,1 179.15862877363514,266.61477813377576 L 177.59035452836218,282.5377337605309 A 96,96 0 0,1 126.09824472029005,261.20900352282274 L 146.3988298135267,236.47266901521516 A 64,64 0 0,1 124.22974205419325,199.48578060903225 L 139.92230654064494,196.36433545677417 A 48,48 0 0,0 147.08945860947785,213.66737118494092 L 160.39297240631856,204.77824745662727 A 32,32 0 0,0 174.75413016431713,216.56414504036118 L 177.81559762323786,209.17310878027089" />
  <type>Circular</type>
</svg>