<?xml version="1.0" encoding="utf-8" standalone="no"?>
<!DOCTYPE svg PUBLIC "-//W3C//DTD SVG 1.1//EN" "http://www.w3.org/Graphics/SVG/1.1/DTD/svg11.dtd"[]>
<svg width="235" height="251.68326548234944" version="1.1" xmlns="http://www.w3.org/2000/svg">
  <title>20 by 13 delta maze</title>
  <g fill="none" stroke="#000000" stroke-width="2" stroke-linecap="round" stroke-linejoin="round">
    <line x1="13" y1="1.9999999999999911" x2="101" y2="1.9999999999999911" />
    <line x1="123" y1="1.9999999999999911" x2="233" y2="1.9999999999999911" />
    <line x1="46" y1="21.052558883257639" x2="90" y2="21.052558883257639" />
    <line x1="178" y1="21.052558883257639" x2="200" y2="21.052558883257639" />
    <line x1="2" y1="59.157676649772938" x2="24" y2="59.157676649772938" />
    <line x1="68" y1="59.157676649772938" x2="90" y2="59.157676649772938" />
    <line x1="134" y1="59.157676649772938" x2="156" y2="59.157676649772938" />
    <line x1="178" y1="59.157676649772938" x2="200" y2="59.157676649772938" />
    <line x1="101" y1="78.210235533030584" x2="123" y2="78.210235533030584" />
    <line x1="145" y1="78.210235533030584" x2="211" y2="78.210235533030584" />
    <line x1="90" y1="97.262794416288244" x2="134" y2="97.262794416288244" />
    <line x1="156" y1="97.262794416288244" x2="200" y2="97.262794416288244" />
    <line x1="35" y1="116.31535329954589" x2="79" y2="116.31535329954589" />
    <line x1="101" y1="116.31535329954589" x2="123" y2="116.31535329954589" />
    <line x1="167" y1="116.31535329954589" x2="189" y2="116.31535329954589" />
    <line x1="2" y1="135.36791218280354" x2="46" y2="135.36791218280354" />
    <line x1="68" y1="135.36791218280354" x2="112" y2="135.36791218280354" />
    <line x1="156" y1="135.36791218280354" x2="178" y2="135.36791218280354" />
    <line x1="101" y1="154.4204710660612" x2="123" y2="154.4204710660612" />
    <line x1="145" y1="154.4204710660612" x2="167" y2="154.4204710660612" />
    <line x1="68" y1="173.47302994931883" x2="90" y2="173.47302994931883" />
    <line x1="178" y1="173.47302994931883" x2="200" y2="173.47302994931883" />
    <line x1="145" y1="192.52558883257649" x2="167" y2="192.52558883257649" />
    <line x1="112" y1="211.57814771583415" x2="134" y2="211.57814771583415" />
    <line x1="200" y1="211.57814771583415" x2="222" y2="211.57814771583415" />
    <line x1="35" y1="230.63070659909178" x2="57" y2="230.63070659909178" />
    <line x1="79" y1="230.63070659909178" x2="101" y2="230.63070659909178" />
    <line x1="189" y1="230.63070659909178" x2="211" y2="230.63070659909178" />
    <line x1="2" y1="249.68326548234944" x2="112" y2="249.68326548234944" />
    <line x1="134" y1="249.68326548234944" x2="222" y2="249.68326548234944" />
    <polyline points="13,1.9999999999999911 2,21.052558883257639 13,40.105117766515292 2,59.157676649772938" />
    <line x1="2" y1="59.157676649772945" x2="13" y2="78.2102355330306" />
    <line x1="13" y1="78.210235533030584" x2="2" y2="97.262794416288244" />
    <polyline points="2,97.26279441628823 13,116.31535329954589 2,135.36791218280354 13,154.42047106606117" />
    <line x1="13" y1="154.4204710660612" x2="2" y2="173.47302994931883" />
    <polyline points="2,173.47302994931886 13,192.52558883257649 2,211.57814771583412" />
    <line x1="2" y1="211.57814771583415" x2="13" y2="230.63070659909178" />
    <line x1="13" y1="230.63070659909181" x2="2" y2="249.68326548234944" />
    <line x1="13" y1="154.4204710660612" x2="24" y2="173.47302994931883" />
    <polyline points="35,1.9999999999999911 24,21.052558883257639 35,40.105117766515292" />
    <line x1="24" y1="97.26279441628823" x2="35" y2="116.31535329954589" />
    <line x1="35" y1="192.52558883257649" x2="24" y2="211.57814771583412" />
    <line x1="24" y1="211.57814771583415" x2="35" y2="230.63070659909178" />
    <line x1="46" y1="59.157676649772945" x2="35" y2="78.2102355330306" />
    <line x1="35" y1="78.210235533030584" x2="46" y2="97.262794416288244" />
    <line x1="35" y1="154.4204710660612" x2="46" y2="173.47302994931883" />
    <polyline points="46,21.052558883257639 57,40.105117766515292 46,59.157676649772938" />
    <line x1="46" y1="135.36791218280354" x2="57" y2="154.42047106606117" />
    <polyline points="46,173.47302994931886 57,192.52558883257649 46,211.57814771583412" />
    <line x1="57" y1="230.63070659909181" x2="46" y2="249.68326548234944" />
    <line x1="68" y1="59.157676649772945" x2="57" y2="78.2102355330306" />
    <line x1="57" y1="78.210235533030584" x2="68" y2="97.262794416288244" />
    <line x1="57" y1="116.31535329954589" x2="68" y2="135.36791218280354" />
    <line x1="57" y1="192.52558883257649" x2="68" y2="211.57814771583412" />
    <line x1="68" y1="211.57814771583415" x2="57" y2="230.63070659909178" />
    <line x1="79" y1="78.210235533030584" x2="68" y2="97.262794416288244" />
    <line x1="79" y1="154.4204710660612" x2="68" y2="173.47302994931883" />
    <line x1="68" y1="173.47302994931886" x2="79" y2="192.52558883257649" />
    <line x1="79" y1="1.9999999999999911" x2="90" y2="21.052558883257639" />
    <line x1="79" y1="40.105117766515292" x2="90" y2="59.157676649772938" />
    <line x1="90" y1="135.36791218280354" x2="79" y2="154.42047106606117" />
    <line x1="90" y1="211.57814771583415" x2="79" y2="230.63070659909178" />
    <line x1="90" y1="59.157676649772945" x2="101" y2="78.2102355330306" />
    <line x1="101" y1="192.52558883257649" x2="90" y2="211.57814771583412" />
    <polyline points="101,1.9999999999999911 112,21.052558883257639 101,40.105117766515292" />
    <line x1="101" y1="230.63070659909181" x2="112" y2="249.68326548234944" />
    <line x1="112" y1="59.157676649772945" x2="123" y2="78.2102355330306" />
    <line x1="112" y1="135.36791218280354" x2="123" y2="154.42047106606117" />
    <line x1="123" y1="154.4204710660612" x2="112" y2="173.47302994931883" />
    <line x1="123" y1="192.52558883257649" x2="112" y2="211.57814771583412" />
    <line x1="112" y1="211.57814771583415" x2="123" y2="230.63070659909178" />
    <polyline points="123,1.9999999999999911 134,21.052558883257639 123,40.105117766515292" />
    <line x1="123" y1="78.210235533030584" x2="134" y2="97.262794416288244" />
    <polyline points="123,116.31535329954589 134,135.36791218280354 123,154.42047106606117" />
    <line x1="134" y1="173.47302994931886" x2="123" y2="192.52558883257649" />
    <line x1="123" y1="230.63070659909181" x2="134" y2="249.68326548234944" />
    <line x1="145" y1="78.210235533030584" x2="134" y2="97.262794416288244" />
    <line x1="134" y1="97.26279441628823" x2="145" y2="116.31535329954589" />
    <line x1="134" y1="135.36791218280354" x2="145" y2="154.42047106606117" />
    <line x1="145" y1="40.105117766515292" x2="156" y2="59.157676649772938" />
    <line x1="156" y1="211.57814771583415" x2="145" y2="230.63070659909178" />
    <polyline points="156,21.052558883257639 167,40.105117766515292 156,59.157676649772938" />
    <line x1="167" y1="154.4204710660612" x2="156" y2="173.47302994931883" />
    <line x1="156" y1="173.47302994931886" x2="167" y2="192.52558883257649" />
    <line x1="156" y1="211.57814771583415" x2="167" y2="230.63070659909178" />
    <line x1="167" y1="230.63070659909181" x2="156" y2="249.68326548234944" />
    <line x1="167" y1="40.105117766515292" x2="178" y2="59.157676649772938" />
    <line x1="178" y1="59.157676649772945" x2="167" y2="78.2102355330306" />
    <polyline points="167,154.42047106606117 178,135.36791218280354 189,116.31535329954589" />
    <line x1="178" y1="135.36791218280354" x2="189" y2="154.42047106606117" />
    <line x1="189" y1="154.4204710660612" x2="178" y2="173.47302994931883" />
    <line x1="189" y1="192.52558883257649" x2="178" y2="211.57814771583412" />
    <line x1="178" y1="211.57814771583415" x2="189" y2="230.63070659909178" />
    <line x1="189" y1="1.9999999999999911" x2="200" y2="21.052558883257639" />
    <line x1="189" y1="40.105117766515292" x2="200" y2="59.157676649772938" />
    <line x1="189" y1="116.31535329954589" x2="200" y2="135.36791218280354" />
    <line x1="200" y1="21.052558883257639" x2="211" y2="40.105117766515292" />
    <polyline points="200,97.26279441628823 211,116.31535329954589 200,135.36791218280354 211,154.42047106606117" />
    <line x1="222" y1="59.157676649772945" x2="211" y2="78.2102355330306" />
    <line x1="222" y1="97.26279441628823" x2="211" y2="116.31535329954589" />
    <line x1="222" y1="173.47302994931886" x2="211" y2="192.52558883257649" />
    <line x1="211" y1="230.63070659909181" x2="222" y2="249.68326548234944" />
    <polyline points="233,1.9999999999999911 222,21.052558883257639 233,40.105117766515292 222,59.157676649772938" />
    <line x1="222" y1="59.157676649772945" x2="233" y2="78.2102355330306" />
    <line x1="233" y1="78.210235533030584" x2="222" y2="97.262794416288244" />
    <polyline points="222,97.26279441628823 233,116.31535329954589 222,135.36791218280354 233,154.42047106606117" />
    <line x1="233" y1="154.4204710660612" x2="222" y2="173.47302994931883" />
    <polyline points="222,173.47302994931886 233,192.52558883257649 222,211.57814771583412" />
    <line x1="222" y1="211.57814771583415" x2="233" y2="230.63070659909178" />
    <line x1="233" y1="230.63070659909181" x2="222" y2="249.68326548234944" />
  </g>
  <polyline fill="none" stroke="#ff0000" stroke-width="2" stroke-linecap="square" stroke-linejoin="round" points="112,1.9999999999999911 123,21.052558883257639 106.5,49.631397208144115 95.5,49.631397208144115 84.5,30.578838324886465 73.5,30.578838324886465 46,78.210235533030584 57,97.262794416288244 51.5,106.78907385791706 40.5,106.78907385791706 29.5,87.736514974659414 18.5,87.736514974659414 13,97.262794416288244 29.5,125.84163274117472 51.5,125.84163274117472 68,154.4204710660612 57,173.47302994931883 73.5,202.0518682742053 84.5,202.0518682742053 95.5,182.99930939094767 106.5,182.99930939094767 112,192.52558883257649 101,211.57814771583415 123,249.68326548234944" />
  <type>Rectangular</type>
</svg>