<?xml version="1.0" encoding="utf-8" standalone="no"?>
<!DOCTYPE svg PUBLIC "-//W3C//DTD SVG 1.1//EN" "http://www.w3.org/Graphics/SVG/1.1/DTD/svg11.dtd"[]>
<svg width="340" height="340" version="1.1" xmlns="http://www.w3.org/2000/svg">
  <title>21 cells diameter theta maze</title>
  <g fill="none" stroke="#000000" stroke-width="2" stroke-linecap="square">
    <path d="M 154.02943725152286,187.97056274847714 A 24,24 0 1,1 171,195" />
    <path d="M 131,171 A 40,40 0 0,1 207.95518130045147,155.6926627053964" />
    <path d="M 207.95518130045147,186.3073372946036 A 40,40 0 0,1 199.2842712474619,199.2842712474619" />
    <path d="M 186.3073372946036,207.95518130045147 A 40,40 0 0,1 171,211" />
    <path d="M 155.6926627053964,207.95518130045147 A 40,40 0 0,1 134.04481869954853,186.3073372946036" />
    <path d="M 171,115 A 56,56 0 0,1 210.59797974644667,131.40202025355333" />
    <path d="M 222.73725382063205,149.56972778755497 A 56,56 0 0,1 192.43027221244503,222.73725382063205" />
    <path d="M 171,227 A 56,56 0 0,1 149.569727787555,222.73725382063208" />
    <path d="M 131.40202025355336,210.59797974644667 A 56,56 0 0,1 115,171" />
    <path d="M 119.26274617936795,149.56972778755497 A 56,56 0 0,1 149.56972778755494,119.26274617936795" />
    <path d="M 143.44679286971348,104.48067365918737 A 72,72 0 0,1 221.91168824543144,221.91168824543141" />
    <path d="M 211.00105677741135,230.86581208578326 A 72,72 0 0,1 198.55320713028647,237.51932634081265" />
    <path d="M 185.04650318516127,241.61654018903261 A 72,72 0 0,1 171,243" />
    <path d="M 156.95349681483876,241.61654018903261 A 72,72 0 0,1 130.99894322258865,230.86581208578326" />
    <path d="M 120.08831175456859,221.91168824543144 A 72,72 0 0,1 104.48067365918737,198.5532071302865" />
    <path d="M 99,171 A 72,72 0 0,1 111.13418791421672,130.99894322258865" />
    <path d="M 120.08831175456857,120.08831175456859 A 72,72 0 0,1 130.99894322258865,111.13418791421674" />
    <path d="M 153.83205166258068,84.690895324515722 A 88,88 0 0,1 171,83" />
    <path d="M 204.6761420481279,89.698601139006769 A 88,88 0 0,1 244.16932588262398,122.109819494275" />
    <path d="M 252.30139886099323,137.3238579518721 A 88,88 0 0,1 257.30910467548426,153.83205166258071" />
    <path d="M 259,171 A 88,88 0 0,1 252.30139886099323,204.6761420481279" />
    <path d="M 244.16932588262398,219.89018050572497 A 88,88 0 0,1 153.83205166258071,257.30910467548426" />
    <path d="M 137.32385795187213,252.30139886099323 A 88,88 0 0,1 108.77460325558383,233.2253967444162" />
    <path d="M 89.698601139006769,137.32385795187207 A 88,88 0 0,1 108.7746032555838,108.77460325558383" />
    <path d="M 122.109819494275,97.83067411737602 A 88,88 0 0,1 137.32385795187204,89.698601139006783" />
    <path d="M 150.71060651032261,68.998330838064049 A 104,104 0 0,1 191.28939348967734,68.998330838064035" />
    <path d="M 228.77930423403862,84.527160320535288 A 104,104 0 0,1 244.53910524340094,97.46089475659906" />
    <path d="M 257.4728396794647,113.22069576596137 A 104,104 0 0,1 267.08347138117381,131.20092303403067" />
    <path d="M 275,171 A 104,104 0 0,1 257.47283967946476,228.77930423403859" />
    <path d="M 228.77930423403862,257.4728396794647 A 104,104 0 0,1 191.28939348967737,273.001669161936" />
    <path d="M 171,275 A 104,104 0 0,1 113.22069576596141,257.47283967946476" />
    <path d="M 84.527160320535288,228.77930423403862 A 104,104 0 0,1 74.9165286188262,210.79907696596939" />
    <path d="M 68.998330838064035,191.28939348967737 A 104,104 0 0,1 67,171.00000000000003" />
    <path d="M 68.998330838064035,150.71060651032266 A 104,104 0 0,1 74.916528618826192,131.20092303403064" />
    <path d="M 84.527160320535273,113.22069576596141 A 104,104 0 0,1 97.460894756599046,97.460894756599075" />
    <path d="M 113.22069576596137,84.5271603205353 A 104,104 0 0,1 131.20092303403061,74.9165286188262" />
    <path d="M 194.41083864193539,53.305766351612348 A 120,120 0 0,1 237.66842796235227,71.223646523694569" />
    <path d="M 255.85281374238571,86.1471862576143 A 120,120 0 0,1 270.77635347630542,104.33157203764773" />
    <path d="M 281.86554390135439,125.07798811618923 A 120,120 0 0,1 288.69423364838764,147.58916135806459" />
    <path d="M 288.69423364838764,194.41083864193539 A 120,120 0 0,1 270.77635347630542,237.66842796235224" />
    <path d="M 255.85281374238571,255.85281374238571 A 120,120 0 0,1 237.66842796235227,270.77635347630542" />
    <path d="M 216.9220118838108,281.86554390135439 A 120,120 0 0,1 171.00000000000003,291" />
    <path d="M 147.58916135806459,288.69423364838764 A 120,120 0 0,1 125.07798811618925,281.86554390135439" />
    <path d="M 104.33157203764777,270.77635347630547 A 120,120 0 0,1 60.134456098645614,216.92201188381085" />
    <path d="M 51,171.00000000000003 A 120,120 0 0,1 60.1344560986456,125.0779881161892" />
    <path d="M 125.07798811618915,60.134456098645614 A 120,120 0 0,1 147.58916135806456,53.305766351612363" />
    <path d="M 144.46771620580648,37.613201865160676 A 136,136 0 0,1 184.33033108482024,35.654877172581223" />
    <path d="M 210.4787161066069,40.856114340419595 A 136,136 0 0,1 223.0449468016522,45.352383578464995" />
    <path d="M 246.55755169066589,57.920132726853851 A 136,136 0 0,1 267.16652224137044,74.833477758629527" />
    <path d="M 276.12942165733222,84.7225133537442 A 136,136 0 0,1 301.14388565958041,131.52128389339313" />
    <path d="M 307,171 A 136,136 0 0,1 306.34512282741878,184.33033108482024" />
    <path d="M 304.38679813483935,197.53228379419343 A 136,136 0 0,1 296.647616421535,223.0449468016522" />
    <path d="M 290.94129195137629,235.10995620833569 A 136,136 0 0,1 184.33033108482027,306.34512282741878" />
    <path d="M 171.00000000000003,307 A 136,136 0 0,1 157.66966891517976,306.34512282741878" />
    <path d="M 144.46771620580654,304.38679813483935 A 136,136 0 0,1 131.52128389339316,301.14388565958041" />
    <path d="M 118.9550531983478,296.647616421535 A 136,136 0 0,1 106.89004379166433,290.94129195137629" />
    <path d="M 95.442448309334139,284.07986727314619 A 136,136 0 0,1 74.833477758629556,267.16652224137044" />
    <path d="M 65.870578342667812,257.27748664625585 A 136,136 0 0,1 57.920132726853836,246.55755169066589" />
    <path d="M 51.058708048623728,235.10995620833572 A 136,136 0 0,1 45.352383578465037,223.04494680165229" />
    <path d="M 40.856114340419595,210.4787161066069 A 136,136 0 0,1 37.613201865160676,197.53228379419349" />
    <path d="M 35.654877172581223,184.33033108482022 A 136,136 0 0,1 35.654877172581223,157.66966891517984" />
    <path d="M 37.613201865160647,144.46771620580654 A 136,136 0 0,1 57.920132726853822,95.442448309334139" />
    <path d="M 65.870578342667784,84.7225133537442 A 136,136 0 0,1 84.722513353744148,65.870578342667827" />
    <path d="M 106.89004379166428,51.058708048623743 A 136,136 0 0,1 131.5212838933931,40.856114340419595" />
    <path d="M 156.1013946699068,19.731921545826083 A 152,152 0 0,1 200.65372894645151,21.92063737870896" />
    <path d="M 229.16788171949364,30.570311058284403 A 152,152 0 0,1 242.65230399755166,36.947967819050035" />
    <path d="M 255.44667541897954,44.616618930013118 A 152,152 0 0,1 267.42777919287414,53.50241108886398" />
    <path d="M 278.48023074035524,63.519769259644775 A 152,152 0 0,1 297.38338106998685,86.553324581020462" />
    <path d="M 305.05203218094994,99.34769600244833 A 152,152 0 0,1 311.4296889417156,112.83211828050635" />
    <path d="M 316.45493103129576,126.87672905732174 A 152,152 0 0,1 320.079362621291,141.34627105354849" />
    <path d="M 322.26807845417392,156.10139466990677 A 152,152 0 0,1 311.4296889417156,229.16788171949364" />
    <path d="M 305.05203218094994,242.65230399755166 A 152,152 0 0,1 288.49758891113606,267.42777919287408" />
    <path d="M 278.48023074035524,278.48023074035518 A 152,152 0 0,1 267.42777919287414,288.497588911136" />
    <path d="M 255.44667541897951,297.38338106998685 A 152,152 0 0,1 215.12327094267829,316.45493103129576" />
    <path d="M 200.65372894645154,320.079362621291 A 152,152 0 0,1 171.00000000000003,323" />
    <path d="M 99.347696002448359,305.05203218094994 A 152,152 0 0,1 86.5533245810205,297.38338106998691" />
    <path d="M 63.519769259644789,278.48023074035524 A 152,152 0 0,1 44.616618930013118,255.44667541897951" />
    <path d="M 30.57031105828446,229.16788171949372 A 152,152 0 0,1 25.545068968704243,215.12327094267829" />
    <path d="M 19,171.00000000000003 A 152,152 0 0,1 19.731921545826054,156.10139466990688" />
    <path d="M 30.570311058284432,112.83211828050632 A 152,152 0 0,1 44.61661893001309,86.553324581020519" />
    <path d="M 53.502411088863994,74.572220807125873 A 152,152 0 0,1 63.519769259644747,63.519769259644804" />
    <path d="M 74.572220807125817,53.502411088864037 A 152,152 0 0,1 99.347696002448316,36.947967819050064" />
    <path d="M 126.87672905732171,25.545068968704271 A 152,152 0 0,1 141.34627105354844,21.920637378708989" />
    <path d="M 187.46687957536619,3.8089659190709142 A 168,168 0 1,1 171,3" />
  </g>
  <g fill="none" stroke="#000000" stroke-width="2" stroke-linecap="butt">
    <line x1="171" y1="35" x2="171" y2="51" />
    <line x1="185.8986053300932" y1="19.731921545826054" x2="184.33033108482024" y2="35.654877172581223" />
    <line x1="197.53228379419343" y1="37.613201865160647" x2="185.04650318516124" y2="100.38345981096741" />
    <line x1="215.12327094267829" y1="25.545068968704271" x2="210.47871610660687" y2="40.856114340419595" />
    <line x1="223.0449468016522" y1="45.352383578465009" x2="216.92201188381077" y2="60.134456098645586" />
    <line x1="210.79907696596933" y1="74.916528618826177" x2="204.6761420481279" y2="89.698601139006769" />
    <line x1="192.43027221244503" y1="119.26274617936795" x2="186.3073372946036" y2="134.04481869954853" />
    <line x1="250.19465178676762" y1="22.837227589476356" x2="235.10995620833569" y2="51.058708048623714" />
    <line x1="255.44667541897954" y1="44.616618930013118" x2="246.55755169066589" y2="57.920132726853851" />
    <line x1="237.66842796235227" y1="71.223646523694569" x2="228.77930423403862" y2="84.5271603205353" />
    <line x1="289.79393923934" y1="52.206060760660009" x2="255.85281374238571" y2="86.1471862576143" />
    <line x1="221.91168824543144" y1="120.08831175456857" x2="210.59797974644664" y2="131.40202025355333" />
    <line x1="284.07986727314614" y1="95.442448309334083" x2="244.16932588262398" y2="122.109819494275" />
    <line x1="326.21176146189617" y1="106.7091833626649" x2="311.4296889417156" y2="112.83211828050634" />
    <line x1="252.30139886099323" y1="137.3238579518721" x2="237.51932634081265" y2="143.44679286971353" />
    <line x1="335.77192710774273" y1="138.22482590129044" x2="273.001669161936" y2="150.71060651032266" />
    <line x1="322.26807845417392" y1="156.10139466990677" x2="306.34512282741878" y2="157.66966891517973" />
    <line x1="339" y1="171" x2="323" y2="171" />
    <line x1="307" y1="171" x2="259" y2="171" />
    <line x1="227" y1="171" x2="211" y2="171" />
    <line x1="311.4296889417156" y1="229.16788171949364" x2="281.86554390135439" y2="216.92201188381077" />
    <line x1="257.47283967946476" y1="228.77930423403859" x2="244.16932588262398" y2="219.89018050572497" />
    <line x1="288.49758891113606" y1="267.42777919287408" x2="276.12942165733227" y2="257.27748664625574" />
    <line x1="289.79393923934" y1="289.79393923934" x2="278.48023074035524" y2="278.48023074035518" />
    <line x1="255.85281374238571" y1="255.85281374238571" x2="244.53910524340097" y2="244.53910524340094" />
    <line x1="233.22539674441617" y1="233.22539674441617" x2="221.91168824543144" y2="221.91168824543144" />
    <line x1="199.2842712474619" y1="199.2842712474619" x2="187.97056274847714" y2="187.97056274847714" />
    <line x1="264.33579914729319" y1="310.68689486682763" x2="255.44667541897954" y2="297.38338106998691" />
    <line x1="246.55755169066589" y1="284.07986727314619" x2="237.66842796235227" y2="270.77635347630542" />
    <line x1="228.77930423403862" y1="257.4728396794647" x2="219.890180505725" y2="244.16932588262398" />
    <line x1="198.55320713028647" y1="237.51932634081265" x2="186.3073372946036" y2="207.95518130045147" />
    <line x1="200.65372894645154" y1="320.079362621291" x2="197.53228379419349" y2="304.38679813483935" />
    <line x1="194.41083864193544" y1="288.69423364838764" x2="191.28939348967737" y2="273.001669161936" />
    <line x1="188.16794833741932" y1="257.30910467548426" x2="185.04650318516127" y2="241.61654018903261" />
    <line x1="171.00000000000003" y1="323" x2="171.00000000000003" y2="291" />
    <line x1="171" y1="243" x2="171" y2="227" />
    <line x1="171" y1="211" x2="171" y2="195" />
    <line x1="154.53312042463381" y1="338.19103408092906" x2="156.1013946699068" y2="322.268078454174" />
    <line x1="138.22482590129044" y1="335.77192710774273" x2="147.58916135806459" y2="288.69423364838764" />
    <line x1="153.83205166258071" y1="257.30910467548426" x2="156.95349681483876" y2="241.61654018903261" />
    <line x1="126.87672905732177" y1="316.45493103129576" x2="131.52128389339316" y2="301.14388565958041" />
    <line x1="106.70918336266493" y1="326.21176146189623" x2="118.9550531983478" y2="296.647616421535" />
    <line x1="131.20092303403067" y1="267.08347138117381" x2="137.3238579518721" y2="252.30139886099323" />
    <line x1="149.56972778755497" y1="222.73725382063208" x2="155.6926627053964" y2="207.95518130045147" />
    <line x1="86.5533245810205" y1="297.38338106998691" x2="95.442448309334139" y2="284.07986727314619" />
    <line x1="104.33157203764776" y1="270.77635347630547" x2="113.2206957659614" y2="257.47283967946476" />
    <line x1="64.4219282605076" y1="300.86575616493985" x2="74.572220807125916" y2="288.49758891113606" />
    <line x1="63.519769259644789" y1="278.48023074035524" x2="74.833477758629542" y2="267.1665222413705" />
    <line x1="86.147186257614308" y1="255.85281374238571" x2="97.46089475659906" y2="244.53910524340097" />
    <line x1="120.08831175456858" y1="221.91168824543144" x2="131.40202025355336" y2="210.59797974644667" />
    <line x1="142.7157287525381" y1="199.2842712474619" x2="154.02943725152286" y2="187.97056274847714" />
    <line x1="53.502411088864022" y1="267.4277791928742" x2="65.870578342667812" y2="257.27748664625585" />
    <line x1="31.3131051331724" y1="264.33579914729319" x2="44.616618930013118" y2="255.44667541897954" />
    <line x1="84.5271603205353" y1="228.77930423403862" x2="111.13418791421674" y2="211.00105677741135" />
    <line x1="36.947967819050064" y1="242.65230399755166" x2="51.058708048623728" y2="235.10995620833569" />
    <line x1="30.57031105828446" y1="229.16788171949372" x2="89.698601139006783" y2="204.67614204812796" />
    <line x1="119.26274617936795" y1="192.43027221244506" x2="134.04481869954856" y2="186.3073372946036" />
    <line x1="6.2280728922573019" y1="203.77517409870961" x2="100.38345981096742" y2="185.04650318516127" />
    <line x1="19.731921545826054" y1="185.89860533009318" x2="35.654877172581223" y2="184.33033108482022" />
    <line x1="3" y1="171.00000000000003" x2="19" y2="171.00000000000003" />
    <line x1="35" y1="171.00000000000003" x2="99" y2="171" />
    <line x1="6.2280728922572735" y1="138.22482590129044" x2="37.613201865160647" y2="144.46771620580654" />
    <line x1="68.998330838064035" y1="150.71060651032266" x2="100.38345981096741" y2="156.95349681483876" />
    <line x1="25.545068968704243" y1="126.87672905732177" x2="40.856114340419595" y2="131.52128389339316" />
    <line x1="74.916528618826192" y1="131.20092303403064" x2="89.698601139006783" y2="137.32385795187207" />
    <line x1="104.48067365918736" y1="143.44679286971353" x2="134.04481869954853" y2="155.6926627053964" />
    <line x1="22.837227589476356" y1="91.8053482132324" x2="36.947967819050035" y2="99.347696002448373" />
    <line x1="57.920132726853822" y1="95.442448309334154" x2="84.527160320535273" y2="113.22069576596141" />
    <line x1="53.502411088863994" y1="74.572220807125873" x2="65.870578342667784" y2="84.7225133537442" />
    <line x1="74.833477758629513" y1="74.833477758629556" x2="86.14718625761428" y2="86.147186257614322" />
    <line x1="120.08831175456857" y1="120.08831175456859" x2="131.40202025355333" y2="131.40202025355336" />
    <line x1="64.421928260507485" y1="41.134243835060232" x2="84.722513353744148" y2="65.870578342667812" />
    <line x1="95.442448309334111" y1="57.920132726853851" x2="113.22069576596138" y2="84.5271603205353" />
    <line x1="122.109819494275" y1="97.83067411737602" x2="130.99894322258865" y2="111.13418791421674" />
    <line x1="99.347696002448316" y1="36.947967819050064" x2="106.89004379166428" y2="51.058708048623743" />
    <line x1="112.83211828050625" y1="30.57031105828446" x2="125.07798811618915" y2="60.134456098645614" />
    <line x1="131.20092303403061" y1="74.9165286188262" x2="137.32385795187204" y2="89.698601139006783" />
    <line x1="138.22482590129039" y1="6.2280728922573019" x2="144.46771620580648" y2="37.613201865160676" />
    <line x1="153.83205166258068" y1="84.690895324515736" x2="156.95349681483873" y2="100.38345981096742" />
  </g>
  <path fill="none" stroke="#ff0000" stroke-width="2" stroke-linecap="square" stroke-linejoin="round" d="M 179.24336928700623,3.2023633575310271 L 178.85082789238689,11.192727007172408 A 160,160 0 0,1 224.90237654275521,20.352949570716675 L 219.51213888847968,35.417654613645 A 144,144 0 0,1 232.56793345396062,40.82554179022415 L 225.72705195907611,55.289370480199253 A 128,128 0 0,1 252.20234037294662,72.054661969569665 L 242.05204782632831,84.422829223373455 A 112,112 0 0,1 257.57717077662653,99.9479521736717 L 245.20900352282274,110.09824472029003 A 96,96 0 0,0 216.25408673529577,86.335558622557912 L 223.79643452451174,72.224818392984233 A 112,112 0 0,0 203.51188385249978,63.822682397992608 L 194.222774180357,94.4447731414233 A 80,80 0 0,1 241.5537011478684,133.28826105392017 L 255.66444137744207,125.74591326470421 A 96,96 0 0,1 266.5377337605309,161.59035452836216 L 298.38364501404118,158.45380603781621 A 128,128 0 0,1 298.8458183942621,164.71933768609048 L 314.82654569354486,163.9342548968518 A 144,144 0 0,1 313.44141743492844,192.12918832157209 L 297.614593275492,189.7815007302863 A 128,128 0 0,0 298.38364501404124,183.54619396218376 L 282.46068938728604,181.9779197169108 A 112,112 0 0,1 257.57717077662653,242.05204782632828 L 269.94533803043032,252.20234037294659 A 128,128 0 0,0 286.71062951980076,225.72705195907608 L 315.63828689975094,239.40881494884511 A 160,160 0 0,1 289.55218005679342,278.44943277552295 L 277.6969620511141,267.70448949797066 A 144,144 0 0,1 205.98914590607,310.68450046001431 L 209.87682878452225,326.205000511127 A 160,160 0 0,1 163.14917210761317,330.80727299282762 L 163.93425489685185,314.82654569354486 A 144,144 0 0,1 149.87081167842794,313.44141743492844 L 152.21849926971373,297.614593275492 A 128,128 0 0,0 158.45380603781624,298.38364501404124 L 160.02208028308922,282.46068938728604 A 112,112 0 0,1 118.20356547548826,269.77518160701578 L 110.6612176862723,283.88592183658943 A 128,128 0 0,1 61.210737919965183,236.80515125673239 L 33.763422399956482,253.25643907091549 A 160,160 0 0,1 15.794999488872975,209.87682878452227 L 31.315499539985666,205.98914590607004 A 144,144 0 0,0 35.417654613645,219.51213888847968 L 50.482359656573337,214.12190123420416 A 128,128 0 0,1 48.51163702627727,208.1564386885712 L 109.75581851313864,189.5782193442856 A 64,64 0 0,1 108.22974205419325,158.51421939096778 L 123.92230654064494,161.63566454322583 A 48,48 0 0,0 123.92230654064494,180.36433545677417 L 139.61487102709663,177.24289030451612 A 32,32 0 0,1 202.38512897290337,164.75710969548391 L 218.07769345935506,161.63566454322583 A 48,48 0 0,0 210.91054139052216,144.33262881505908 L 224.2140551873629,135.44350508674546 A 64,64 0 0,1 211.60117018647333,220.47266901521516 L 221.75146273309164,232.84083626901895 A 80,80 0 0,1 194.222774180357,247.5552268585767 L 189.5782193442856,232.24418148686135 A 64,64 0 0,1 183.48578060903222,233.77025794580675 L 180.36433545677417,218.07769345935506 A 48,48 0 0,1 161.63566454322583,218.07769345935506 L 164.75710969548391,202.38512897290337 A 32,32 0 0,1 158.75413016431713,200.56414504036118 L 161.81559762323786,193.17310878027089" />
  <type>Circular</type>
</svg>