<?xml version="1.0" encoding="utf-8" standalone="no"?>
<!DOCTYPE svg PUBLIC "-//W3C//DTD SVG 1.1//EN" "http://www.w3.org/Graphics/SVG/1.1/DTD/svg11.dtd"[]>
<svg width="340" height="340" version="1.1" xmlns="http://www.w3.org/2000/svg">
  <title>21 cells diameter theta maze</title>
  <g fill="none" stroke="#000000" stroke-width="2" stroke-linecap="square">
    <path d="M 154.02943725152286,187.97056274847714 A 24,24 0 1,1 171,195" />
    <path d="M 155.69266270539637,134.04481869954856 A 40,40 0 0,1 186.3073372946036,134.04481869954853" />
    <path d="M 199.2842712474619,142.7157287525381 A 40,40 0 0,1 207.95518130045147,186.3073372946036" />
    <path d="M 186.3073372946036,207.95518130045147 A 40,40 0 0,1 134.04481869954853,186.3073372946036" />
    <path d="M 131,171 A 40,40 0 0,1 142.7157287525381,142.7157287525381" />
    <path d="M 131.40202025355333,131.40202025355336 A 56,56 0 0,1 171,115" />
    <path d="M 192.43027221244503,119.26274617936795 A 56,56 0 0,1 222.73725382063205,149.56972778755497" />
    <path d="M 227,171 A 56,56 0 0,1 192.43027221244503,222.73725382063205" />
    <path d="M 115,171 A 56,56 0 0,1 119.26274617936795,149.56972778755497" />
    <path d="M 171,99 A 72,72 0 0,1 221.91168824543144,120.08831175456858" />
    <path d="M 230.86581208578326,130.99894322258865 A 72,72 0 0,1 237.51932634081265,143.44679286971353" />
    <path d="M 241.61654018903261,156.95349681483876 A 72,72 0 0,1 241.61654018903261,185.04650318516124" />
    <path d="M 237.51932634081265,198.55320713028647 A 72,72 0 0,1 171,243" />
    <path d="M 156.95349681483876,241.61654018903261 A 72,72 0 0,1 120.08831175456859,221.91168824543144" />
    <path d="M 104.48067365918737,198.5532071302865 A 72,72 0 0,1 99,171" />
    <path d="M 100.38345981096741,156.95349681483876 A 72,72 0 0,1 111.13418791421672,130.99894322258865" />
    <path d="M 143.44679286971348,104.48067365918737 A 72,72 0 0,1 156.95349681483873,100.38345981096741" />
    <path d="M 153.83205166258068,84.690895324515722 A 88,88 0 0,1 171,83" />
    <path d="M 204.6761420481279,89.698601139006769 A 88,88 0 0,1 244.16932588262398,122.109819494275" />
    <path d="M 252.30139886099323,137.3238579518721 A 88,88 0 0,1 257.30910467548426,153.83205166258071" />
    <path d="M 259,171 A 88,88 0 0,1 252.30139886099323,204.6761420481279" />
    <path d="M 188.16794833741932,257.30910467548426 A 88,88 0 0,1 137.32385795187213,252.30139886099323" />
    <path d="M 108.77460325558383,233.2253967444162 A 88,88 0 0,1 84.690895324515722,188.16794833741932" />
    <path d="M 84.690895324515722,153.83205166258071 A 88,88 0 0,1 108.7746032555838,108.77460325558383" />
    <path d="M 67,171.00000000000003 A 104,104 0 0,1 273.001669161936,150.71060651032266" />
    <path d="M 273.001669161936,191.28939348967734 A 104,104 0 0,1 171,275" />
    <path d="M 131.20092303403067,267.08347138117381 A 104,104 0 0,1 97.460894756599075,244.53910524340097" />
    <path d="M 147.58916135806456,53.305766351612363 A 120,120 0 0,1 255.85281374238571,86.1471862576143" />
    <path d="M 270.77635347630542,104.33157203764773 A 120,120 0 0,1 288.69423364838764,194.41083864193539" />
    <path d="M 270.77635347630542,237.66842796235224 A 120,120 0 0,1 255.85281374238571,255.85281374238571" />
    <path d="M 237.66842796235227,270.77635347630542 A 120,120 0 0,1 216.9220118838108,281.86554390135439" />
    <path d="M 171.00000000000003,291 A 120,120 0 0,1 147.58916135806459,288.69423364838764" />
    <path d="M 125.07798811618925,281.86554390135439 A 120,120 0 0,1 104.33157203764777,270.77635347630547" />
    <path d="M 86.147186257614308,255.85281374238571 A 120,120 0 0,1 60.134456098645614,216.92201188381085" />
    <path d="M 53.305766351612348,147.58916135806462 A 120,120 0 0,1 60.1344560986456,125.0779881161892" />
    <path d="M 86.14718625761428,86.147186257614322 A 120,120 0 0,1 104.33157203764773,71.223646523694569" />
    <path d="M 171,35 A 136,136 0 0,1 210.4787161066069,40.856114340419595" />
    <path d="M 246.55755169066589,57.920132726853851 A 136,136 0 0,1 290.94129195137629,106.8900437916643" />
    <path d="M 296.64761642153496,118.95505319834778 A 136,136 0 0,1 301.14388565958041,131.52128389339313" />
    <path d="M 306.34512282741878,157.66966891517973 A 136,136 0 0,1 304.38679813483935,197.53228379419343" />
    <path d="M 290.94129195137629,235.10995620833569 A 136,136 0 0,1 276.12942165733227,257.27748664625574" />
    <path d="M 267.16652224137044,267.16652224137044 A 136,136 0 0,1 257.2774866462558,276.12942165733222" />
    <path d="M 223.04494680165223,296.64761642153496 A 136,136 0 0,1 184.33033108482027,306.34512282741878" />
    <path d="M 171.00000000000003,307 A 136,136 0 0,1 157.66966891517976,306.34512282741878" />
    <path d="M 131.52128389339316,301.14388565958041 A 136,136 0 0,1 106.89004379166433,290.94129195137629" />
    <path d="M 95.442448309334139,284.07986727314619 A 136,136 0 0,1 84.722513353744233,276.12942165733227" />
    <path d="M 65.870578342667812,257.27748664625585 A 136,136 0 0,1 35,171.00000000000003" />
    <path d="M 35.654877172581223,157.66966891517984 A 136,136 0 0,1 37.613201865160647,144.46771620580654" />
    <path d="M 45.352383578465009,118.95505319834777 A 136,136 0 0,1 84.722513353744148,65.870578342667827" />
    <path d="M 106.89004379166428,51.058708048623743 A 136,136 0 0,1 118.95505319834771,45.352383578465037" />
    <path d="M 131.5212838933931,40.856114340419595 A 136,136 0 0,1 157.66966891517978,35.654877172581223" />
    <path d="M 156.1013946699068,19.731921545826083 A 152,152 0 0,1 185.8986053300932,19.731921545826083" />
    <path d="M 229.16788171949364,30.570311058284403 A 152,152 0 0,1 255.44667541897954,44.616618930013118" />
    <path d="M 267.42777919287414,53.50241108886398 A 152,152 0 0,1 311.4296889417156,112.83211828050635" />
    <path d="M 316.45493103129576,126.87672905732174 A 152,152 0 0,1 323,171" />
    <path d="M 316.45493103129576,215.12327094267826 A 152,152 0 0,1 311.4296889417156,229.16788171949364" />
    <path d="M 267.42777919287414,288.497588911136 A 152,152 0 0,1 229.16788171949366,311.42968894171554" />
    <path d="M 215.12327094267829,316.45493103129576 A 152,152 0 0,1 200.65372894645154,320.079362621291" />
    <path d="M 185.89860533009323,322.26807845417392 A 152,152 0 0,1 171.00000000000003,323" />
    <path d="M 156.1013946699068,322.26807845417392 A 152,152 0 0,1 141.34627105354849,320.079362621291" />
    <path d="M 99.347696002448359,305.05203218094994 A 152,152 0 0,1 86.5533245810205,297.38338106998691" />
    <path d="M 74.572220807125916,288.49758891113606 A 152,152 0 0,1 53.502411088864022,267.42777919287414" />
    <path d="M 44.616618930013118,255.44667541897951 A 152,152 0 0,1 19.731921545826083,185.89860533009318" />
    <path d="M 19,171.00000000000003 A 152,152 0 0,1 30.570311058284432,112.83211828050632" />
    <path d="M 36.947967819050035,99.347696002448373 A 152,152 0 0,1 44.61661893001309,86.553324581020519" />
    <path d="M 53.502411088863994,74.572220807125873 A 152,152 0 0,1 126.87672905732171,25.545068968704271" />
    <path d="M 187.46687957536619,3.8089659190709142 A 168,168 0 1,1 171,3" />
  </g>
  <g fill="none" stroke="#000000" stroke-width="2" stroke-linecap="butt">
    <line x1="171" y1="19" x2="171" y2="35" />
    <line x1="171" y1="83" x2="171" y2="147" />
    <line x1="203.77517409870956" y1="6.2280728922572735" x2="200.65372894645151" y2="21.920637378708989" />
    <line x1="191.28939348967734" y1="68.998330838064035" x2="188.16794833741929" y2="84.690895324515722" />
    <line x1="219.76782577874968" y1="10.234023596988919" x2="210.47871610660687" y2="40.856114340419595" />
    <line x1="223.0449468016522" y1="45.352383578465009" x2="216.92201188381077" y2="60.134456098645586" />
    <line x1="242.65230399755166" y1="36.947967819050035" x2="235.10995620833569" y2="51.058708048623714" />
    <line x1="255.44667541897954" y1="44.616618930013118" x2="237.66842796235227" y2="71.223646523694569" />
    <line x1="284.07986727314614" y1="95.442448309334083" x2="270.77635347630542" y2="104.33157203764773" />
    <line x1="244.16932588262398" y1="122.109819494275" x2="230.86581208578326" y2="130.99894322258865" />
    <line x1="311.4296889417156" y1="112.83211828050634" x2="296.64761642153496" y2="118.95505319834778" />
    <line x1="252.30139886099323" y1="137.3238579518721" x2="222.73725382063205" y2="149.56972778755497" />
    <line x1="316.45493103129576" y1="126.87672905732173" x2="301.14388565958041" y2="131.52128389339313" />
    <line x1="304.38679813483935" y1="144.46771620580654" x2="288.69423364838764" y2="147.58916135806459" />
    <line x1="273.001669161936" y1="150.71060651032266" x2="257.30910467548426" y2="153.83205166258071" />
    <line x1="322.26807845417392" y1="156.10139466990677" x2="306.34512282741878" y2="157.66966891517973" />
    <line x1="291" y1="171" x2="259" y2="171" />
    <line x1="243" y1="171" x2="227" y2="171" />
    <line x1="211" y1="171" x2="195" y2="171" />
    <line x1="322.268078454174" y1="185.89860533009323" x2="306.34512282741878" y2="184.33033108482024" />
    <line x1="335.77192710774273" y1="203.77517409870953" x2="304.38679813483935" y2="197.53228379419343" />
    <line x1="257.30910467548426" y1="188.16794833741929" x2="241.61654018903261" y2="185.04650318516124" />
    <line x1="316.45493103129576" y1="215.12327094267823" x2="301.14388565958041" y2="210.47871610660684" />
    <line x1="311.4296889417156" y1="229.16788171949364" x2="252.30139886099323" y2="204.6761420481279" />
    <line x1="305.05203218094994" y1="242.65230399755166" x2="290.94129195137629" y2="235.10995620833569" />
    <line x1="310.68689486682763" y1="264.33579914729313" x2="297.38338106998691" y2="255.44667541897951" />
    <line x1="284.07986727314619" y1="246.55755169066586" x2="270.77635347630547" y2="237.66842796235224" />
    <line x1="244.16932588262398" y1="219.89018050572497" x2="230.86581208578326" y2="211.00105677741135" />
    <line x1="288.49758891113606" y1="267.42777919287408" x2="276.12942165733227" y2="257.27748664625574" />
    <line x1="289.79393923934" y1="289.79393923934" x2="255.85281374238571" y2="255.85281374238571" />
    <line x1="244.53910524340097" y1="244.53910524340094" x2="233.22539674441617" y2="233.22539674441617" />
    <line x1="210.59797974644667" y1="210.59797974644664" x2="187.97056274847714" y2="187.97056274847714" />
    <line x1="246.55755169066589" y1="284.07986727314619" x2="237.66842796235227" y2="270.77635347630542" />
    <line x1="219.890180505725" y1="244.16932588262398" x2="211.00105677741135" y2="230.86581208578326" />
    <line x1="242.65230399755166" y1="305.05203218094994" x2="235.10995620833569" y2="290.94129195137629" />
    <line x1="235.2908166373351" y1="326.21176146189617" x2="229.16788171949366" y2="311.4296889417156" />
    <line x1="223.04494680165223" y1="296.64761642153496" x2="216.9220118838108" y2="281.86554390135439" />
    <line x1="210.79907696596933" y1="267.08347138117381" x2="204.6761420481279" y2="252.30139886099323" />
    <line x1="203.77517409870961" y1="335.77192710774273" x2="200.65372894645154" y2="320.079362621291" />
    <line x1="197.53228379419349" y1="304.38679813483935" x2="191.28939348967737" y2="273.001669161936" />
    <line x1="188.16794833741932" y1="257.30910467548426" x2="185.04650318516127" y2="241.61654018903261" />
    <line x1="185.89860533009323" y1="322.26807845417392" x2="184.33033108482027" y2="306.34512282741878" />
    <line x1="171.00000000000003" y1="307" x2="171.00000000000003" y2="291" />
    <line x1="171" y1="243" x2="171" y2="211" />
    <line x1="154.53312042463381" y1="338.19103408092906" x2="157.66966891517976" y2="306.34512282741878" />
    <line x1="144.46771620580654" y1="304.38679813483935" x2="153.83205166258071" y2="257.30910467548426" />
    <line x1="122.23217422125038" y1="331.76597640301111" x2="131.52128389339316" y2="301.14388565958041" />
    <line x1="112.83211828050636" y1="311.4296889417156" x2="125.07798811618923" y2="281.86554390135444" />
    <line x1="149.56972778755497" y1="222.73725382063208" x2="155.6926627053964" y2="207.95518130045147" />
    <line x1="86.5533245810205" y1="297.38338106998691" x2="95.442448309334139" y2="284.07986727314619" />
    <line x1="104.33157203764776" y1="270.77635347630547" x2="130.99894322258865" y2="230.86581208578326" />
    <line x1="74.572220807125916" y1="288.49758891113606" x2="84.722513353744247" y2="276.12942165733227" />
    <line x1="74.833477758629542" y1="267.1665222413705" x2="86.147186257614308" y2="255.85281374238571" />
    <line x1="120.08831175456858" y1="221.91168824543144" x2="131.40202025355336" y2="210.59797974644667" />
    <line x1="142.7157287525381" y1="199.2842712474619" x2="154.02943725152286" y2="187.97056274847714" />
    <line x1="53.502411088864022" y1="267.4277791928742" x2="65.870578342667812" y2="257.27748664625585" />
    <line x1="57.920132726853851" y1="246.55755169066589" x2="84.5271603205353" y2="228.77930423403862" />
    <line x1="97.83067411737602" y1="219.890180505725" x2="111.13418791421674" y2="211.00105677741135" />
    <line x1="60.134456098645614" y1="216.92201188381085" x2="89.698601139006783" y2="204.67614204812796" />
    <line x1="104.48067365918737" y1="198.5532071302865" x2="134.04481869954856" y2="186.3073372946036" />
    <line x1="37.613201865160676" y1="197.53228379419349" x2="53.305766351612363" y2="194.41083864193544" />
    <line x1="68.998330838064049" y1="191.28939348967737" x2="84.690895324515736" y2="188.16794833741932" />
    <line x1="3.8089659190709142" y1="187.46687957536616" x2="19.731921545826054" y2="185.89860533009318" />
    <line x1="19" y1="171.00000000000003" x2="35" y2="171.00000000000003" />
    <line x1="51" y1="171.00000000000003" x2="115" y2="171" />
    <line x1="37.613201865160647" y1="144.46771620580654" x2="53.305766351612348" y2="147.58916135806462" />
    <line x1="84.690895324515722" y1="153.83205166258071" x2="100.38345981096741" y2="156.95349681483876" />
    <line x1="25.545068968704243" y1="126.87672905732177" x2="40.856114340419595" y2="131.52128389339316" />
    <line x1="30.570311058284432" y1="112.83211828050632" x2="60.1344560986456" y2="125.0779881161892" />
    <line x1="119.26274617936795" y1="149.56972778755497" x2="134.04481869954853" y2="155.6926627053964" />
    <line x1="31.313105133172371" y1="77.664200852706884" x2="44.61661893001309" y2="86.553324581020519" />
    <line x1="71.223646523694541" y1="104.33157203764777" x2="84.527160320535273" y2="113.22069576596141" />
    <line x1="53.502411088863994" y1="74.572220807125873" x2="65.870578342667784" y2="84.7225133537442" />
    <line x1="74.833477758629513" y1="74.833477758629556" x2="86.14718625761428" y2="86.147186257614322" />
    <line x1="108.7746032555838" y1="108.77460325558383" x2="131.40202025355333" y2="131.40202025355336" />
    <line x1="86.553324581020462" y1="44.616618930013118" x2="95.442448309334111" y2="57.920132726853851" />
    <line x1="113.22069576596138" y1="84.5271603205353" x2="130.99894322258865" y2="111.13418791421674" />
    <line x1="118.95505319834771" y1="45.352383578465037" x2="143.44679286971348" y2="104.48067365918737" />
    <line x1="126.8767290573217" y1="25.545068968704271" x2="131.5212838933931" y2="40.856114340419595" />
    <line x1="138.22482590129039" y1="6.2280728922573019" x2="141.34627105354844" y2="21.920637378708989" />
    <line x1="144.46771620580648" y1="37.613201865160676" x2="147.58916135806456" y2="53.305766351612363" />
  </g>
  <path fill="none" stroke="#ff0000" stroke-width="2" stroke-linecap="square" stroke-linejoin="round" d="M 179.24336928700623,3.2023633575310271 L 178.85082789238689,11.192727007172408 A 160,160 0 0,0 147.523124087142,12.731758405635048 L 149.87081167842783,28.558582565071561 A 144,144 0 0,1 163.9342548968518,27.17345430645517 L 164.71933768609048,43.154181605737932 A 128,128 0 0,1 214.12190123420416,50.482359656573337 L 224.90237654275521,20.352949570716675 A 160,160 0 0,1 266.31188871878931,42.486794963096827 L 256.78069984691041,55.33811546678713 A 144,144 0 0,1 301.17445820977582,109.43206654603937 L 286.71062951980076,116.27294804092388 A 128,128 0 0,1 295.16400040890164,139.8985369723822 L 310.68450046001431,136.01085409393 A 144,144 0 0,1 313.44141743492844,149.87081167842791 L 297.614593275492,152.2184992697137 A 128,128 0 0,1 295.16400040890164,202.10146302761777 L 326.205000511127,209.87682878452222 A 160,160 0 0,1 315.63828689975094,239.40881494884511 L 286.71062951980076,225.72705195907608 A 128,128 0 0,1 283.88592183658943,231.33878231372771 L 269.77518160701578,223.79643452451174 A 112,112 0 0,1 242.05204782632831,257.57717077662653 L 252.20234037294662,269.94533803043032 A 128,128 0 0,1 247.24951097503148,273.81056402952254 L 256.78069984691041,286.66188453321286 A 144,144 0 0,1 245.03079516382394,294.51291984003916 L 236.80515125673239,280.7892620800348 A 128,128 0 0,1 225.72705195907611,286.71062951980076 L 232.56793345396062,301.17445820977582 A 144,144 0 0,1 192.12918832157209,313.44141743492844 L 194.47687591285788,329.26824159436495 A 160,160 0 0,1 163.14917210761317,330.80727299282762 L 163.93425489685185,314.82654569354486 A 144,144 0 0,0 178.06574510314817,314.82654569354486 L 177.28066231390949,298.8458183942621 A 128,128 0 0,0 183.54619396218379,298.38364501404118 L 181.9779197169108,282.46068938728604 A 112,112 0 0,1 160.02208028308922,282.46068938728604 L 161.59035452836218,266.5377337605309 A 96,96 0 0,0 198.86732901642839,262.86627223029205 L 194.222774180357,247.5552268585767 A 80,80 0 0,0 208.71173894607983,241.5537011478684 L 216.2540867352958,255.66444137744207 A 96,96 0 0,0 231.90175527970996,245.20900352282274 L 221.75146273309164,232.84083626901895 A 80,80 0 0,0 232.84083626901895,221.75146273309161 L 245.20900352282274,231.90175527970996 A 96,96 0 0,0 255.66444137744207,216.25408673529577 L 241.5537011478684,208.71173894607981 A 80,80 0 0,0 247.5552268585767,194.22277418035696 L 232.24418148686138,189.57821934428557 A 64,64 0 0,1 183.48578060903222,233.77025794580675 L 180.36433545677417,218.07769345935506 A 48,48 0 0,0 197.66737118494089,210.91054139052218 L 188.77824745662727,197.60702759368144 A 32,32 0 0,1 158.75413016431713,200.56414504036118 L 161.81559762323786,193.17310878027089" />
  <type>Circular</type>
</svg>