<?xml version="1.0" encoding="utf-8" standalone="no"?>
<!DOCTYPE svg PUBLIC "-//W3C//DTD SVG 1.1//EN" "http://www.w3.org/Graphics/SVG/1.1/DTD/svg11.dtd"[]>
<svg width="340" height="340" version="1.1" xmlns="http://www.w3.org/2000/svg">
  <title>21 cells diameter theta maze</title>
  <g fill="none" stroke="#000000" stroke-width="2" stroke-linecap="square">
    <path d="M 154.02943725152286,187.97056274847714 A 24,24 0 1,1 171,195" />
    <path d="M 171,131 A 40,40 0 0,1 186.3073372946036,134.04481869954853" />
    <path d="M 207.95518130045147,155.6926627053964 A 40,40 0 0,1 211,171" />
    <path d="M 199.2842712474619,199.2842712474619 A 40,40 0 0,1 171,211" />
    <path d="M 155.6926627053964,207.95518130045147 A 40,40 0 0,1 134.04481869954853,186.3073372946036" />
    <path d="M 131,171 A 40,40 0 0,1 142.7157287525381,142.7157287525381" />
    <path d="M 149.56972778755494,119.26274617936795 A 56,56 0 0,1 210.59797974644667,131.40202025355333" />
    <path d="M 227,171 A 56,56 0 0,1 192.43027221244503,222.73725382063205" />
    <path d="M 171,227 A 56,56 0 0,1 149.569727787555,222.73725382063208" />
    <path d="M 131.40202025355336,210.59797974644667 A 56,56 0 0,1 115,171" />
    <path d="M 156.95349681483873,100.38345981096741 A 72,72 0 0,1 185.04650318516124,100.38345981096741" />
    <path d="M 211.00105677741135,111.13418791421674 A 72,72 0 0,1 230.86581208578326,130.99894322258865" />
    <path d="M 237.51932634081265,143.44679286971353 A 72,72 0 0,1 221.91168824543144,221.91168824543141" />
    <path d="M 211.00105677741135,230.86581208578326 A 72,72 0 0,1 171,243" />
    <path d="M 130.99894322258865,230.86581208578326 A 72,72 0 0,1 111.13418791421674,211.00105677741135" />
    <path d="M 104.48067365918737,198.5532071302865 A 72,72 0 0,1 100.38345981096741,185.04650318516127" />
    <path d="M 99,171 A 72,72 0 0,1 100.38345981096741,156.95349681483876" />
    <path d="M 120.08831175456857,120.08831175456859 A 72,72 0 0,1 143.44679286971348,104.48067365918737" />
    <path d="M 137.32385795187204,89.698601139006783 A 88,88 0 0,1 171,83" />
    <path d="M 219.890180505725,97.83067411737602 A 88,88 0 0,1 244.16932588262398,122.109819494275" />
    <path d="M 252.30139886099323,137.3238579518721 A 88,88 0 0,1 259,171" />
    <path d="M 257.30910467548426,188.16794833741929 A 88,88 0 0,1 244.16932588262398,219.89018050572497" />
    <path d="M 233.22539674441617,233.22539674441617 A 88,88 0 0,1 188.16794833741932,257.30910467548426" />
    <path d="M 153.83205166258071,257.30910467548426 A 88,88 0 0,1 122.10981949427503,244.16932588262398" />
    <path d="M 108.77460325558383,233.2253967444162 A 88,88 0 0,1 89.698601139006783,204.67614204812796" />
    <path d="M 84.690895324515722,188.16794833741932 A 88,88 0 0,1 89.698601139006769,137.32385795187207" />
    <path d="M 97.830674117375992,122.10981949427503 A 88,88 0 0,1 122.109819494275,97.83067411737602" />
    <path d="M 113.22069576596137,84.5271603205353 A 104,104 0 0,1 210.79907696596933,74.916528618826177" />
    <path d="M 228.77930423403862,84.527160320535288 A 104,104 0 0,1 257.4728396794647,113.22069576596137" />
    <path d="M 275,171 A 104,104 0 0,1 273.001669161936,191.28939348967734" />
    <path d="M 267.08347138117381,210.79907696596933 A 104,104 0 0,1 244.53910524340097,244.53910524340094" />
    <path d="M 210.79907696596933,267.08347138117381 A 104,104 0 0,1 191.28939348967737,273.001669161936" />
    <path d="M 171,275 A 104,104 0 0,1 113.22069576596141,257.47283967946476" />
    <path d="M 97.460894756599075,244.53910524340097 A 104,104 0 0,1 84.527160320535288,228.77930423403862" />
    <path d="M 68.998330838064035,191.28939348967737 A 104,104 0 0,1 67,171.00000000000003" />
    <path d="M 68.998330838064035,150.71060651032266 A 104,104 0 0,1 74.916528618826192,131.20092303403064" />
    <path d="M 194.41083864193539,53.305766351612348 A 120,120 0 0,1 237.66842796235227,71.223646523694569" />
    <path d="M 270.77635347630542,104.33157203764773 A 120,120 0 0,1 281.86554390135439,125.07798811618923" />
    <path d="M 288.69423364838764,147.58916135806459 A 120,120 0 0,1 270.77635347630542,237.66842796235224" />
    <path d="M 255.85281374238571,255.85281374238571 A 120,120 0 0,1 237.66842796235227,270.77635347630542" />
    <path d="M 216.9220118838108,281.86554390135439 A 120,120 0 0,1 147.58916135806459,288.69423364838764" />
    <path d="M 104.33157203764777,270.77635347630547 A 120,120 0 0,1 86.147186257614308,255.85281374238571" />
    <path d="M 71.223646523694569,237.66842796235227 A 120,120 0 0,1 60.134456098645614,216.92201188381085" />
    <path d="M 51,171.00000000000003 A 120,120 0 0,1 53.305766351612348,147.58916135806462" />
    <path d="M 71.223646523694541,104.33157203764777 A 120,120 0 0,1 104.33157203764773,71.223646523694569" />
    <path d="M 125.07798811618915,60.134456098645614 A 120,120 0 0,1 147.58916135806456,53.305766351612363" />
    <path d="M 131.5212838933931,40.856114340419595 A 136,136 0 0,1 171,35" />
    <path d="M 184.33033108482024,35.654877172581223 A 136,136 0 0,1 197.53228379419343,37.613201865160647" />
    <path d="M 210.4787161066069,40.856114340419595 A 136,136 0 0,1 246.55755169066589,57.920132726853851" />
    <path d="M 257.2774866462558,65.87057834266777 A 136,136 0 0,1 290.94129195137629,106.8900437916643" />
    <path d="M 296.64761642153496,118.95505319834778 A 136,136 0 0,1 307,171" />
    <path d="M 306.34512282741878,184.33033108482024 A 136,136 0 0,1 304.38679813483935,197.53228379419343" />
    <path d="M 301.14388565958041,210.47871610660687 A 136,136 0 0,1 246.55755169066589,284.07986727314619" />
    <path d="M 235.10995620833569,290.94129195137629 A 136,136 0 0,1 210.4787161066069,301.14388565958041" />
    <path d="M 184.33033108482027,306.34512282741878 A 136,136 0 0,1 171.00000000000003,307" />
    <path d="M 157.66966891517976,306.34512282741878 A 136,136 0 0,1 131.52128389339316,301.14388565958041" />
    <path d="M 118.9550531983478,296.647616421535 A 136,136 0 0,1 84.722513353744233,276.12942165733227" />
    <path d="M 74.833477758629556,267.16652224137044 A 136,136 0 0,1 51.058708048623728,235.10995620833572" />
    <path d="M 40.856114340419595,210.4787161066069 A 136,136 0 0,1 35,171.00000000000003" />
    <path d="M 35.654877172581223,157.66966891517984 A 136,136 0 0,1 37.613201865160647,144.46771620580654" />
    <path d="M 40.856114340419595,131.52128389339316 A 136,136 0 0,1 65.870578342667784,84.7225133537442" />
    <path d="M 84.722513353744148,65.870578342667827 A 136,136 0 0,1 118.95505319834771,45.352383578465037" />
    <path d="M 171,19 A 152,152 0 0,1 242.65230399755166,36.947967819050035" />
    <path d="M 267.42777919287414,53.50241108886398 A 152,152 0 0,1 311.4296889417156,112.83211828050635" />
    <path d="M 316.45493103129576,126.87672905732174 A 152,152 0 0,1 322.26807845417392,185.89860533009323" />
    <path d="M 320.079362621291,200.65372894645148 A 152,152 0 0,1 297.38338106998691,255.44667541897951" />
    <path d="M 278.48023074035524,278.48023074035518 A 152,152 0 0,1 267.42777919287414,288.497588911136" />
    <path d="M 255.44667541897951,297.38338106998685 A 152,152 0 0,1 242.65230399755166,305.05203218094994" />
    <path d="M 215.12327094267829,316.45493103129576 A 152,152 0 0,1 86.5533245810205,297.38338106998691" />
    <path d="M 74.572220807125916,288.49758891113606 A 152,152 0 0,1 25.545068968704243,215.12327094267829" />
    <path d="M 19.731921545826083,185.89860533009318 A 152,152 0 0,1 21.92063737870896,141.34627105354849" />
    <path d="M 30.570311058284432,112.83211828050632 A 152,152 0 0,1 44.61661893001309,86.553324581020519" />
    <path d="M 53.502411088863994,74.572220807125873 A 152,152 0 0,1 63.519769259644747,63.519769259644804" />
    <path d="M 86.553324581020462,44.616618930013118 A 152,152 0 0,1 99.347696002448316,36.947967819050064" />
    <path d="M 141.34627105354844,21.920637378708989 A 152,152 0 0,1 156.1013946699068,19.731921545826083" />
    <path d="M 187.46687957536619,3.8089659190709142 A 168,168 0 1,1 171,3" />
  </g>
  <g fill="none" stroke="#000000" stroke-width="2" stroke-linecap="butt">
    <line x1="171" y1="19" x2="171" y2="51" />
    <line x1="171" y1="67" x2="171" y2="83" />
    <line x1="171" y1="131" x2="171" y2="147" />
    <line x1="185.8986053300932" y1="19.731921545826054" x2="184.33033108482024" y2="35.654877172581223" />
    <line x1="197.53228379419343" y1="37.613201865160647" x2="185.04650318516124" y2="100.38345981096741" />
    <line x1="215.12327094267829" y1="25.545068968704271" x2="210.47871610660687" y2="40.856114340419595" />
    <line x1="210.79907696596933" y1="74.916528618826177" x2="192.43027221244503" y2="119.26274617936795" />
    <line x1="255.44667541897954" y1="44.616618930013118" x2="246.55755169066589" y2="57.920132726853851" />
    <line x1="277.57807173949243" y1="41.134243835060175" x2="257.2774866462558" y2="65.87057834266777" />
    <line x1="267.16652224137044" y1="74.833477758629527" x2="255.85281374238571" y2="86.1471862576143" />
    <line x1="221.91168824543144" y1="120.08831175456857" x2="199.2842712474619" y2="142.7157287525381" />
    <line x1="270.77635347630542" y1="104.33157203764773" x2="244.16932588262398" y2="122.109819494275" />
    <line x1="311.4296889417156" y1="112.83211828050634" x2="222.73725382063205" y2="149.56972778755497" />
    <line x1="288.69423364838764" y1="147.58916135806459" x2="273.001669161936" y2="150.71060651032266" />
    <line x1="275" y1="171" x2="259" y2="171" />
    <line x1="211" y1="171" x2="195" y2="171" />
    <line x1="338.19103408092906" y1="187.46687957536619" x2="306.34512282741878" y2="184.33033108482024" />
    <line x1="335.77192710774273" y1="203.77517409870953" x2="320.079362621291" y2="200.65372894645148" />
    <line x1="304.38679813483935" y1="197.53228379419343" x2="288.69423364838764" y2="194.41083864193539" />
    <line x1="267.08347138117381" y1="210.79907696596933" x2="252.30139886099323" y2="204.6761420481279" />
    <line x1="222.73725382063205" y1="192.43027221244503" x2="207.95518130045147" y2="186.3073372946036" />
    <line x1="297.38338106998691" y1="255.44667541897951" x2="284.07986727314619" y2="246.55755169066586" />
    <line x1="300.86575616493985" y1="277.57807173949243" x2="288.49758891113606" y2="267.42777919287408" />
    <line x1="255.85281374238571" y1="255.85281374238571" x2="244.53910524340097" y2="244.53910524340094" />
    <line x1="233.22539674441617" y1="233.22539674441617" x2="221.91168824543144" y2="221.91168824543144" />
    <line x1="267.42777919287414" y1="288.497588911136" x2="257.2774866462558" y2="276.12942165733222" />
    <line x1="255.44667541897954" y1="297.38338106998691" x2="246.55755169066589" y2="284.07986727314619" />
    <line x1="237.66842796235227" y1="270.77635347630542" x2="219.890180505725" y2="244.16932588262398" />
    <line x1="235.2908166373351" y1="326.21176146189617" x2="223.04494680165223" y2="296.64761642153496" />
    <line x1="210.79907696596933" y1="267.08347138117381" x2="204.6761420481279" y2="252.30139886099323" />
    <line x1="198.55320713028647" y1="237.51932634081265" x2="192.43027221244503" y2="222.73725382063205" />
    <line x1="197.53228379419349" y1="304.38679813483935" x2="191.28939348967737" y2="273.001669161936" />
    <line x1="185.89860533009323" y1="322.26807845417392" x2="184.33033108482027" y2="306.34512282741878" />
    <line x1="171.00000000000003" y1="307" x2="171.00000000000003" y2="291" />
    <line x1="171" y1="275" x2="171" y2="243" />
    <line x1="171" y1="227" x2="171" y2="195" />
    <line x1="144.46771620580654" y1="304.38679813483935" x2="147.58916135806459" y2="288.69423364838764" />
    <line x1="150.71060651032266" y1="273.001669161936" x2="156.95349681483876" y2="241.61654018903261" />
    <line x1="112.83211828050636" y1="311.4296889417156" x2="118.9550531983478" y2="296.647616421535" />
    <line x1="125.07798811618923" y1="281.86554390135444" x2="131.20092303403067" y2="267.08347138117381" />
    <line x1="137.3238579518721" y1="252.30139886099323" x2="149.56972778755497" y2="222.73725382063208" />
    <line x1="95.442448309334139" y1="284.07986727314619" x2="104.33157203764776" y2="270.77635347630547" />
    <line x1="74.572220807125916" y1="288.49758891113606" x2="84.722513353744247" y2="276.12942165733227" />
    <line x1="63.519769259644789" y1="278.48023074035524" x2="74.833477758629542" y2="267.1665222413705" />
    <line x1="86.147186257614308" y1="255.85281374238571" x2="108.77460325558383" y2="233.2253967444162" />
    <line x1="120.08831175456858" y1="221.91168824543144" x2="154.02943725152286" y2="187.97056274847714" />
    <line x1="97.83067411737602" y1="219.890180505725" x2="111.13418791421674" y2="211.00105677741135" />
    <line x1="30.57031105828446" y1="229.16788171949372" x2="74.9165286188262" y2="210.79907696596939" />
    <line x1="89.698601139006783" y1="204.67614204812796" x2="104.48067365918737" y2="198.5532071302865" />
    <line x1="6.2280728922573019" y1="203.77517409870961" x2="68.998330838064049" y2="191.28939348967737" />
    <line x1="19" y1="171.00000000000003" x2="35" y2="171.00000000000003" />
    <line x1="51" y1="171.00000000000003" x2="67" y2="171.00000000000003" />
    <line x1="99" y1="171" x2="115" y2="171" />
    <line x1="37.613201865160647" y1="144.46771620580654" x2="53.305766351612348" y2="147.58916135806462" />
    <line x1="84.690895324515722" y1="153.83205166258071" x2="100.38345981096741" y2="156.95349681483876" />
    <line x1="10.234023596988891" y1="122.23217422125038" x2="25.545068968704243" y2="126.87672905732177" />
    <line x1="45.352383578465023" y1="118.95505319834777" x2="89.698601139006783" y2="137.32385795187207" />
    <line x1="104.48067365918736" y1="143.44679286971353" x2="134.04481869954853" y2="155.6926627053964" />
    <line x1="22.837227589476356" y1="91.8053482132324" x2="36.947967819050035" y2="99.347696002448373" />
    <line x1="84.527160320535273" y1="113.22069576596141" x2="111.13418791421672" y2="130.99894322258865" />
    <line x1="53.502411088863994" y1="74.572220807125873" x2="65.870578342667784" y2="84.7225133537442" />
    <line x1="63.519769259644747" y1="63.519769259644804" x2="97.460894756599046" y2="97.460894756599075" />
    <line x1="120.08831175456857" y1="120.08831175456859" x2="142.7157287525381" y2="142.7157287525381" />
    <line x1="64.421928260507485" y1="41.134243835060232" x2="84.722513353744148" y2="65.870578342667812" />
    <line x1="113.22069576596138" y1="84.5271603205353" x2="122.109819494275" y2="97.83067411737602" />
    <line x1="99.347696002448316" y1="36.947967819050064" x2="106.89004379166428" y2="51.058708048623743" />
    <line x1="106.70918336266482" y1="15.788238538103855" x2="112.83211828050625" y2="30.57031105828446" />
    <line x1="118.95505319834771" y1="45.352383578465037" x2="131.20092303403061" y2="74.9165286188262" />
    <line x1="137.32385795187204" y1="89.698601139006783" x2="143.44679286971348" y2="104.48067365918737" />
    <line x1="149.56972778755494" y1="119.26274617936795" x2="155.69266270539637" y2="134.04481869954856" />
    <line x1="122.2321742212503" y1="10.234023596988919" x2="126.8767290573217" y2="25.545068968704271" />
    <line x1="138.22482590129039" y1="6.2280728922573019" x2="141.34627105354844" y2="21.920637378708989" />
  </g>
  <path fill="none" stroke="#ff0000" stroke-width="2" stroke-linecap="square" stroke-linejoin="round" d="M 179.24336928700623,3.2023633575310271 L 178.85082789238689,11.192727007172408 A 160,160 0 0,1 266.31188871878931,42.486794963096827 L 247.24951097503146,68.189435970477447 A 128,128 0 0,1 252.20234037294662,72.054661969569665 L 242.05204782632831,84.422829223373455 A 112,112 0 0,0 223.79643452451174,72.224818392984233 L 208.71173894607981,100.44629885213159 A 80,80 0 0,1 241.5537011478684,133.28826105392017 L 227.44296091829472,140.83060884313613 A 64,64 0 0,0 224.2140551873629,135.44350508674546 L 210.91054139052216,144.33262881505908 A 48,48 0 0,1 218.07769345935506,161.63566454322583 L 233.77025794580675,158.51421939096778 A 64,64 0 0,1 211.60117018647333,220.47266901521516 L 221.75146273309164,232.84083626901895 A 80,80 0 0,1 178.84137122636486,250.61477813377576 L 181.9779197169108,282.46068938728604 A 112,112 0 0,1 138.48811614750025,278.17731760200741 L 133.84356131142886,293.48836297372276 A 128,128 0 0,1 110.6612176862723,283.88592183658943 L 118.20356547548826,269.77518160701578 A 112,112 0 0,1 99.947952173671723,257.57717077662653 L 120.24853726690839,232.84083626901898 A 80,80 0 0,0 133.2882610539202,241.55370114786842 L 140.83060884313616,227.44296091829472 A 64,64 0 0,1 135.44350508674546,224.2140551873629 L 144.33262881505911,210.91054139052218 A 48,48 0 0,0 161.63566454322583,218.07769345935506 L 164.75710969548391,202.38512897290337 A 32,32 0 0,1 158.75413016431713,200.56414504036118 L 161.81559762323786,193.17310878027089" />
  <type>Circular</type>
</svg>