<?xml version="1.0" encoding="utf-8" standalone="no"?>
<!DOCTYPE svg PUBLIC "-//W3C//DTD SVG 1.1//EN" "http://www.w3.org/Graphics/SVG/1.1/DTD/svg11.dtd"[]>
<svg width="340" height="340" version="1.1" xmlns="http://www.w3.org/2000/svg">
  <title>21 cells diameter theta maze</title>
  <g fill="none" stroke="#000000" stroke-width="2" stroke-linecap="square">
    <path d="M 154.02943725152286,187.97056274847714 A 24,24 0 1,1 171,195" />
    <path d="M 134.04481869954853,155.6926627053964 A 40,40 0 0,1 199.2842712474619,142.7157287525381" />
    <path d="M 207.95518130045147,155.6926627053964 A 40,40 0 0,1 207.95518130045147,186.3073372946036" />
    <path d="M 199.2842712474619,199.2842712474619 A 40,40 0 0,1 186.3073372946036,207.95518130045147" />
    <path d="M 171,211 A 40,40 0 0,1 142.7157287525381,199.2842712474619" />
    <path d="M 134.04481869954853,186.3073372946036 A 40,40 0 0,1 131,171" />
    <path d="M 131.40202025355333,131.40202025355336 A 56,56 0 0,1 171,115" />
    <path d="M 192.43027221244503,119.26274617936795 A 56,56 0 0,1 222.73725382063205,149.56972778755497" />
    <path d="M 227,171 A 56,56 0 0,1 222.73725382063208,192.43027221244503" />
    <path d="M 192.43027221244503,222.73725382063205 A 56,56 0 0,1 171,227" />
    <path d="M 149.569727787555,222.73725382063208 A 56,56 0 0,1 131.40202025355336,210.59797974644667" />
    <path d="M 119.26274617936795,192.43027221244506 A 56,56 0 0,1 115,171" />
    <path d="M 156.95349681483873,100.38345981096741 A 72,72 0 0,1 221.91168824543144,120.08831175456858" />
    <path d="M 230.86581208578326,130.99894322258865 A 72,72 0 0,1 237.51932634081265,143.44679286971353" />
    <path d="M 241.61654018903261,156.95349681483876 A 72,72 0 0,1 237.51932634081265,198.55320713028647" />
    <path d="M 230.86581208578326,211.00105677741135 A 72,72 0 0,1 221.91168824543144,221.91168824543141" />
    <path d="M 211.00105677741135,230.86581208578326 A 72,72 0 0,1 171,243" />
    <path d="M 156.95349681483876,241.61654018903261 A 72,72 0 0,1 120.08831175456859,221.91168824543144" />
    <path d="M 104.48067365918737,198.5532071302865 A 72,72 0 0,1 99,171" />
    <path d="M 100.38345981096741,156.95349681483876 A 72,72 0 0,1 143.44679286971348,104.48067365918737" />
    <path d="M 153.83205166258068,84.690895324515722 A 88,88 0 0,1 252.30139886099323,137.3238579518721" />
    <path d="M 259,171 A 88,88 0 0,1 252.30139886099323,204.6761420481279" />
    <path d="M 244.16932588262398,219.89018050572497 A 88,88 0 0,1 219.89018050572497,244.16932588262398" />
    <path d="M 188.16794833741932,257.30910467548426 A 88,88 0 0,1 122.10981949427503,244.16932588262398" />
    <path d="M 97.83067411737602,219.890180505725 A 88,88 0 0,1 84.690895324515722,188.16794833741932" />
    <path d="M 89.698601139006769,137.32385795187207 A 88,88 0 0,1 137.32385795187204,89.698601139006783" />
    <path d="M 131.20092303403061,74.9165286188262 A 104,104 0 0,1 171,67" />
    <path d="M 210.79907696596933,74.916528618826177 A 104,104 0 0,1 257.4728396794647,113.22069576596137" />
    <path d="M 273.001669161936,150.71060651032266 A 104,104 0 0,1 275,171" />
    <path d="M 273.001669161936,191.28939348967734 A 104,104 0 0,1 244.53910524340097,244.53910524340094" />
    <path d="M 228.77930423403862,257.4728396794647 A 104,104 0 0,1 210.79907696596933,267.08347138117381" />
    <path d="M 191.28939348967737,273.001669161936 A 104,104 0 0,1 150.71060651032266,273.001669161936" />
    <path d="M 131.20092303403067,267.08347138117381 A 104,104 0 0,1 84.527160320535288,228.77930423403862" />
    <path d="M 68.998330838064035,191.28939348967737 A 104,104 0 0,1 74.916528618826192,131.20092303403064" />
    <path d="M 84.527160320535273,113.22069576596141 A 104,104 0 0,1 97.460894756599046,97.460894756599075" />
    <path d="M 255.85281374238571,86.1471862576143 A 120,120 0 0,1 281.86554390135439,125.07798811618923" />
    <path d="M 281.86554390135439,216.92201188381077 A 120,120 0 0,1 270.77635347630542,237.66842796235224" />
    <path d="M 216.9220118838108,281.86554390135439 A 120,120 0 0,1 194.41083864193544,288.69423364838764" />
    <path d="M 125.07798811618925,281.86554390135439 A 120,120 0 0,1 86.147186257614308,255.85281374238571" />
    <path d="M 71.223646523694569,237.66842796235227 A 120,120 0 0,1 60.134456098645614,216.92201188381085" />
    <path d="M 60.1344560986456,125.0779881161892 A 120,120 0 0,1 86.14718625761428,86.147186257614322" />
    <path d="M 104.33157203764773,71.223646523694569 A 120,120 0 0,1 147.58916135806456,53.305766351612363" />
    <path d="M 171,35 A 136,136 0 0,1 197.53228379419343,37.613201865160647" />
    <path d="M 210.4787161066069,40.856114340419595 A 136,136 0 0,1 223.0449468016522,45.352383578464995" />
    <path d="M 235.10995620833569,51.058708048623714 A 136,136 0 0,1 267.16652224137044,74.833477758629527" />
    <path d="M 276.12942165733222,84.7225133537442 A 136,136 0 0,1 290.94129195137629,106.8900437916643" />
    <path d="M 296.64761642153496,118.95505319834778 A 136,136 0 0,1 306.34512282741878,157.66966891517973" />
    <path d="M 307,171 A 136,136 0 0,1 304.38679813483935,197.53228379419343" />
    <path d="M 301.14388565958041,210.47871610660687 A 136,136 0 0,1 290.94129195137629,235.10995620833569" />
    <path d="M 284.07986727314619,246.55755169066589 A 136,136 0 0,1 257.2774866462558,276.12942165733222" />
    <path d="M 246.55755169066589,284.07986727314619 A 136,136 0 0,1 171.00000000000003,307" />
    <path d="M 144.46771620580654,304.38679813483935 A 136,136 0 0,1 131.52128389339316,301.14388565958041" />
    <path d="M 118.9550531983478,296.647616421535 A 136,136 0 0,1 95.442448309334139,284.07986727314619" />
    <path d="M 84.722513353744233,276.12942165733227 A 136,136 0 0,1 65.870578342667812,257.27748664625585" />
    <path d="M 57.920132726853836,246.55755169066589 A 136,136 0 0,1 45.352383578465037,223.04494680165229" />
    <path d="M 40.856114340419595,210.4787161066069 A 136,136 0 0,1 37.613201865160647,144.46771620580654" />
    <path d="M 45.352383578465009,118.95505319834777 A 136,136 0 0,1 65.870578342667784,84.7225133537442" />
    <path d="M 74.833477758629513,74.833477758629556 A 136,136 0 0,1 84.722513353744148,65.870578342667827" />
    <path d="M 95.4424483093341,57.920132726853851 A 136,136 0 0,1 118.95505319834771,45.352383578465037" />
    <path d="M 144.46771620580648,37.613201865160676 A 136,136 0 0,1 157.66966891517978,35.654877172581223" />
    <path d="M 171,19 A 152,152 0 0,1 185.8986053300932,19.731921545826083" />
    <path d="M 242.65230399755166,36.947967819050035 A 152,152 0 0,1 267.42777919287414,53.50241108886398" />
    <path d="M 297.38338106998685,86.553324581020462 A 152,152 0 0,1 316.45493103129576,126.87672905732174" />
    <path d="M 323,171 A 152,152 0 0,1 320.079362621291,200.65372894645148" />
    <path d="M 297.38338106998691,255.44667541897951 A 152,152 0 0,1 278.48023074035524,278.48023074035518" />
    <path d="M 267.42777919287414,288.497588911136 A 152,152 0 0,1 255.44667541897951,297.38338106998685" />
    <path d="M 242.65230399755166,305.05203218094994 A 152,152 0 0,1 215.12327094267829,316.45493103129576" />
    <path d="M 200.65372894645154,320.079362621291 A 152,152 0 0,1 156.1013946699068,322.26807845417392" />
    <path d="M 126.87672905732175,316.45493103129576 A 152,152 0 0,1 99.347696002448359,305.05203218094994" />
    <path d="M 53.502411088864022,267.42777919287414 A 152,152 0 0,1 36.947967819050064,242.65230399755168" />
    <path d="M 30.57031105828446,229.16788171949372 A 152,152 0 0,1 25.545068968704243,215.12327094267829" />
    <path d="M 19.731921545826083,185.89860533009318 A 152,152 0 0,1 30.570311058284432,112.83211828050632" />
    <path d="M 44.61661893001309,86.553324581020519 A 152,152 0 0,1 63.519769259644747,63.519769259644804" />
    <path d="M 74.572220807125817,53.502411088864037 A 152,152 0 0,1 86.553324581020462,44.616618930013118" />
    <path d="M 112.83211828050625,30.57031105828446 A 152,152 0 0,1 126.87672905732171,25.545068968704271" />
    <path d="M 187.46687957536619,3.8089659190709142 A 168,168 0 1,1 171,3" />
  </g>
  <g fill="none" stroke="#000000" stroke-width="2" stroke-linecap="butt">
    <line x1="171" y1="3" x2="171" y2="19" />
    <line x1="171" y1="35" x2="171" y2="67" />
    <line x1="171" y1="99" x2="171" y2="115" />
    <line x1="203.77517409870956" y1="6.2280728922572735" x2="197.53228379419343" y2="37.613201865160647" />
    <line x1="194.41083864193539" y1="53.305766351612348" x2="188.16794833741929" y2="84.690895324515722" />
    <line x1="219.76782577874968" y1="10.234023596988919" x2="215.12327094267829" y2="25.545068968704271" />
    <line x1="235.29081663733507" y1="15.788238538103826" x2="216.92201188381077" y2="60.134456098645586" />
    <line x1="242.65230399755166" y1="36.947967819050035" x2="235.10995620833569" y2="51.058708048623714" />
    <line x1="246.55755169066589" y1="57.920132726853851" x2="237.66842796235227" y2="71.223646523694569" />
    <line x1="219.890180505725" y1="97.83067411737602" x2="211.00105677741135" y2="111.13418791421674" />
    <line x1="278.48023074035518" y1="63.519769259644775" x2="255.85281374238571" y2="86.1471862576143" />
    <line x1="221.91168824543144" y1="120.08831175456857" x2="210.59797974644664" y2="131.40202025355333" />
    <line x1="288.497588911136" y1="74.572220807125888" x2="276.12942165733222" y2="84.722513353744219" />
    <line x1="270.77635347630542" y1="104.33157203764773" x2="230.86581208578326" y2="130.99894322258865" />
    <line x1="319.16277241052364" y1="91.805348213232364" x2="290.94129195137629" y2="106.8900437916643" />
    <line x1="296.64761642153496" y1="118.95505319834778" x2="267.08347138117381" y2="131.20092303403067" />
    <line x1="222.73725382063205" y1="149.56972778755497" x2="207.95518130045147" y2="155.6926627053964" />
    <line x1="316.45493103129576" y1="126.87672905732173" x2="301.14388565958041" y2="131.52128389339313" />
    <line x1="320.079362621291" y1="141.34627105354849" x2="288.69423364838764" y2="147.58916135806459" />
    <line x1="257.30910467548426" y1="153.83205166258071" x2="241.61654018903261" y2="156.95349681483876" />
    <line x1="338.19103408092906" y1="154.53312042463378" x2="322.26807845417392" y2="156.10139466990677" />
    <line x1="339" y1="171" x2="259" y2="171" />
    <line x1="243" y1="171" x2="227" y2="171" />
    <line x1="304.38679813483935" y1="197.53228379419343" x2="288.69423364838764" y2="194.41083864193539" />
    <line x1="331.76597640301111" y1="219.76782577874965" x2="316.45493103129576" y2="215.12327094267823" />
    <line x1="311.4296889417156" y1="229.16788171949364" x2="296.64761642153496" y2="223.0449468016522" />
    <line x1="281.86554390135439" y1="216.92201188381077" x2="252.30139886099323" y2="204.6761420481279" />
    <line x1="222.73725382063205" y1="192.43027221244503" x2="207.95518130045147" y2="186.3073372946036" />
    <line x1="319.16277241052364" y1="250.19465178676762" x2="290.94129195137629" y2="235.10995620833569" />
    <line x1="297.38338106998691" y1="255.44667541897951" x2="284.07986727314619" y2="246.55755169066586" />
    <line x1="244.16932588262398" y1="219.89018050572497" x2="230.86581208578326" y2="211.00105677741135" />
    <line x1="267.16652224137044" y1="267.16652224137044" x2="255.85281374238571" y2="255.85281374238571" />
    <line x1="244.53910524340097" y1="244.53910524340094" x2="233.22539674441617" y2="233.22539674441617" />
    <line x1="221.91168824543144" y1="221.91168824543144" x2="199.2842712474619" y2="199.2842712474619" />
    <line x1="277.57807173949243" y1="300.86575616493985" x2="257.2774866462558" y2="276.12942165733222" />
    <line x1="255.44667541897954" y1="297.38338106998691" x2="228.77930423403862" y2="257.4728396794647" />
    <line x1="219.890180505725" y1="244.16932588262398" x2="211.00105677741135" y2="230.86581208578326" />
    <line x1="216.9220118838108" y1="281.86554390135439" x2="204.6761420481279" y2="252.30139886099323" />
    <line x1="192.43027221244503" y1="222.73725382063205" x2="186.3073372946036" y2="207.95518130045147" />
    <line x1="215.12327094267829" y1="316.4549310312957" x2="210.4787161066069" y2="301.14388565958041" />
    <line x1="171.00000000000003" y1="339" x2="171.00000000000003" y2="323" />
    <line x1="171.00000000000003" y1="307" x2="171" y2="275" />
    <line x1="171" y1="259" x2="171" y2="243" />
    <line x1="171" y1="211" x2="171" y2="195" />
    <line x1="156.1013946699068" y1="322.268078454174" x2="157.66966891517976" y2="306.34512282741878" />
    <line x1="141.34627105354849" y1="320.079362621291" x2="147.58916135806459" y2="288.69423364838764" />
    <line x1="126.87672905732177" y1="316.45493103129576" x2="131.52128389339316" y2="301.14388565958041" />
    <line x1="112.83211828050636" y1="311.4296889417156" x2="118.9550531983478" y2="296.647616421535" />
    <line x1="125.07798811618923" y1="281.86554390135444" x2="131.20092303403067" y2="267.08347138117381" />
    <line x1="143.44679286971353" y1="237.51932634081265" x2="149.56972778755497" y2="222.73725382063208" />
    <line x1="91.805348213232392" y1="319.16277241052364" x2="99.347696002448359" y2="305.05203218094994" />
    <line x1="86.5533245810205" y1="297.38338106998691" x2="95.442448309334139" y2="284.07986727314619" />
    <line x1="64.4219282605076" y1="300.86575616493985" x2="84.722513353744247" y2="276.12942165733227" />
    <line x1="63.519769259644789" y1="278.48023074035524" x2="86.147186257614308" y2="255.85281374238571" />
    <line x1="97.46089475659906" y1="244.53910524340097" x2="120.08831175456858" y2="221.91168824543144" />
    <line x1="131.40202025355336" y1="210.59797974644667" x2="142.7157287525381" y2="199.2842712474619" />
    <line x1="53.502411088864022" y1="267.4277791928742" x2="65.870578342667812" y2="257.27748664625585" />
    <line x1="57.920132726853851" y1="246.55755169066589" x2="71.223646523694569" y2="237.66842796235227" />
    <line x1="97.83067411737602" y1="219.890180505725" x2="111.13418791421674" y2="211.00105677741135" />
    <line x1="30.57031105828446" y1="229.16788171949372" x2="45.352383578465037" y2="223.04494680165229" />
    <line x1="60.134456098645614" y1="216.92201188381085" x2="104.48067365918737" y2="198.5532071302865" />
    <line x1="119.26274617936795" y1="192.43027221244506" x2="134.04481869954856" y2="186.3073372946036" />
    <line x1="25.545068968704271" y1="215.12327094267829" x2="40.856114340419595" y2="210.4787161066069" />
    <line x1="6.2280728922573019" y1="203.77517409870961" x2="21.920637378708989" y2="200.65372894645157" />
    <line x1="37.613201865160676" y1="197.53228379419349" x2="53.305766351612363" y2="194.41083864193544" />
    <line x1="35" y1="171.00000000000003" x2="51" y2="171.00000000000003" />
    <line x1="67" y1="171.00000000000003" x2="83" y2="171.00000000000003" />
    <line x1="99" y1="171" x2="115" y2="171" />
    <line x1="131" y1="171" x2="147" y2="171" />
    <line x1="3.8089659190709142" y1="154.53312042463389" x2="19.731921545826054" y2="156.10139466990688" />
    <line x1="37.613201865160647" y1="144.46771620580654" x2="53.305766351612348" y2="147.58916135806462" />
    <line x1="84.690895324515722" y1="153.83205166258071" x2="100.38345981096741" y2="156.95349681483876" />
    <line x1="25.545068968704243" y1="126.87672905732177" x2="40.856114340419595" y2="131.52128389339316" />
    <line x1="60.1344560986456" y1="125.0779881161892" x2="89.698601139006783" y2="137.32385795187207" />
    <line x1="104.48067365918736" y1="143.44679286971353" x2="134.04481869954853" y2="155.6926627053964" />
    <line x1="22.837227589476356" y1="91.8053482132324" x2="51.058708048623714" y2="106.89004379166433" />
    <line x1="71.223646523694541" y1="104.33157203764777" x2="84.527160320535273" y2="113.22069576596141" />
    <line x1="63.519769259644747" y1="63.519769259644804" x2="86.14718625761428" y2="86.147186257614322" />
    <line x1="64.421928260507485" y1="41.134243835060232" x2="74.572220807125817" y2="53.502411088864022" />
    <line x1="86.553324581020462" y1="44.616618930013118" x2="95.442448309334111" y2="57.920132726853851" />
    <line x1="104.33157203764773" y1="71.223646523694569" x2="113.22069576596138" y2="84.5271603205353" />
    <line x1="99.347696002448316" y1="36.947967819050064" x2="106.89004379166428" y2="51.058708048623743" />
    <line x1="106.70918336266482" y1="15.788238538103855" x2="112.83211828050625" y2="30.57031105828446" />
    <line x1="137.32385795187204" y1="89.698601139006783" x2="143.44679286971348" y2="104.48067365918737" />
    <line x1="149.56972778755494" y1="119.26274617936795" x2="155.69266270539637" y2="134.04481869954856" />
    <line x1="126.8767290573217" y1="25.545068968704271" x2="131.5212838933931" y2="40.856114340419595" />
    <line x1="141.34627105354844" y1="21.920637378708989" x2="147.58916135806456" y2="53.305766351612363" />
    <line x1="154.53312042463384" y1="3.8089659190709142" x2="157.66966891517978" y2="35.654877172581223" />
  </g>
  <path fill="none" stroke="#ff0000" stroke-width="2" stroke-linecap="square" stroke-linejoin="round" d="M 179.24336928700623,3.2023633575310271 L 178.85082789238689,11.192727007172408 A 160,160 0 0,1 194.47687591285788,12.731758405635048 L 192.12918832157209,28.558582565071532 A 144,144 0 0,0 163.9342548968518,27.17345430645517 L 164.71933768609048,43.154181605737932 A 128,128 0 0,0 158.45380603781626,43.616354985958793 L 160.02208028308922,59.539310612713948 A 112,112 0 0,0 118.20356547548823,72.224818392984261 L 125.7459132647042,86.335558622557926 A 96,96 0 0,0 110.09824472028998,96.790996477177288 L 89.797659627053321,72.054661969569707 A 128,128 0 0,1 94.750489024968545,68.189435970477433 L 85.21930015308962,55.338115466787116 A 144,144 0 0,0 74.295510502029316,64.30303794888593 L 63.550567224477007,52.447819943206582 A 160,160 0 0,0 33.763422399956454,88.743560929084566 L 47.4870801599608,96.9692048361761 A 144,144 0 0,1 64.303037948885887,74.295510502029359 L 76.158255954565234,85.040453779581654 A 128,128 0 0,0 46.835999591098371,139.89853697238223 L 31.315499539985666,136.01085409393002 A 144,144 0 0,0 31.315499539985666,205.98914590607004 L 15.794999488872975,209.87682878452227 A 160,160 0 0,0 26.361713100249091,239.40881494884519 L 40.825541790224179,232.56793345396068 A 144,144 0 0,0 55.338115466787116,256.78069984691035 L 68.189435970477433,247.24951097503146 A 128,128 0 0,0 72.054661969569707,252.20234037294668 L 84.4228292233735,242.05204782632833 A 112,112 0 0,1 72.224818392984247,223.79643452451177 L 86.335558622557926,216.2540867352958 A 96,96 0 0,0 96.790996477177288,231.90175527971002 L 121.52733098478485,211.60117018647333 A 64,64 0 0,1 117.7859448126371,206.55649491325454 L 144.39297240631856,188.77824745662727 A 32,32 0 0,0 158.75413016431713,200.56414504036118 L 161.81559762323786,193.17310878027089" />
  <type>Circular</type>
</svg>