<?xml version="1.0" encoding="utf-8" standalone="no"?>
<!DOCTYPE svg PUBLIC "-//W3C//DTD SVG 1.1//EN" "http://www.w3.org/Graphics/SVG/1.1/DTD/svg11.dtd"[]>
<svg width="340" height="340" version="1.1" xmlns="http://www.w3.org/2000/svg">
  <title>21 cells diameter theta maze</title>
  <g fill="none" stroke="#000000" stroke-width="2" stroke-linecap="square">
    <path d="M 154.02943725152286,187.97056274847714 A 24,24 0 1,1 171,195" />
    <path d="M 142.7157287525381,142.7157287525381 A 40,40 0 0,1 186.3073372946036,134.04481869954853" />
    <path d="M 199.2842712474619,142.7157287525381 A 40,40 0 0,1 207.95518130045147,186.3073372946036" />
    <path d="M 186.3073372946036,207.95518130045147 A 40,40 0 0,1 155.6926627053964,207.95518130045147" />
    <path d="M 142.7157287525381,199.2842712474619 A 40,40 0 0,1 134.04481869954853,186.3073372946036" />
    <path d="M 131,171 A 40,40 0 0,1 134.04481869954853,155.6926627053964" />
    <path d="M 149.56972778755494,119.26274617936795 A 56,56 0 0,1 192.43027221244503,119.26274617936795" />
    <path d="M 222.73725382063208,192.43027221244503 A 56,56 0 0,1 210.59797974644667,210.59797974644664" />
    <path d="M 149.569727787555,222.73725382063208 A 56,56 0 0,1 119.26274617936795,192.43027221244506" />
    <path d="M 115,171 A 56,56 0 0,1 119.26274617936795,149.56972778755497" />
    <path d="M 185.04650318516124,100.38345981096741 A 72,72 0 0,1 221.91168824543144,120.08831175456858" />
    <path d="M 230.86581208578326,130.99894322258865 A 72,72 0 0,1 237.51932634081265,143.44679286971353" />
    <path d="M 241.61654018903261,156.95349681483876 A 72,72 0 0,1 230.86581208578326,211.00105677741135" />
    <path d="M 221.91168824543144,221.91168824543141 A 72,72 0 0,1 198.55320713028647,237.51932634081265" />
    <path d="M 185.04650318516127,241.61654018903261 A 72,72 0 0,1 120.08831175456859,221.91168824543144" />
    <path d="M 111.13418791421674,211.00105677741135 A 72,72 0 0,1 104.48067365918737,198.5532071302865" />
    <path d="M 99,171 A 72,72 0 0,1 100.38345981096741,156.95349681483876" />
    <path d="M 104.48067365918736,143.44679286971353 A 72,72 0 0,1 156.95349681483873,100.38345981096741" />
    <path d="M 137.32385795187204,89.698601139006783 A 88,88 0 0,1 219.890180505725,97.83067411737602" />
    <path d="M 233.22539674441617,108.77460325558381 A 88,88 0 0,1 244.16932588262398,122.109819494275" />
    <path d="M 257.30910467548426,188.16794833741929 A 88,88 0 0,1 233.22539674441617,233.22539674441617" />
    <path d="M 219.89018050572497,244.16932588262398 A 88,88 0 0,1 171,259" />
    <path d="M 84.690895324515722,153.83205166258071 A 88,88 0 0,1 122.109819494275,97.83067411737602" />
    <path d="M 97.460894756599046,97.460894756599075 A 104,104 0 0,1 191.28939348967734,68.998330838064035" />
    <path d="M 210.79907696596933,74.916528618826177 A 104,104 0 0,1 228.77930423403862,84.527160320535288" />
    <path d="M 257.4728396794647,113.22069576596137 A 104,104 0 0,1 275,171" />
    <path d="M 244.53910524340097,244.53910524340094 A 104,104 0 0,1 228.77930423403862,257.4728396794647" />
    <path d="M 210.79907696596933,267.08347138117381 A 104,104 0 0,1 191.28939348967737,273.001669161936" />
    <path d="M 150.71060651032266,273.001669161936 A 104,104 0 0,1 131.20092303403067,267.08347138117381" />
    <path d="M 68.998330838064035,191.28939348967737 A 104,104 0 0,1 84.527160320535273,113.22069576596141" />
    <path d="M 147.58916135806456,53.305766351612363 A 120,120 0 0,1 237.66842796235227,71.223646523694569" />
    <path d="M 281.86554390135439,125.07798811618923 A 120,120 0 0,1 288.69423364838764,194.41083864193539" />
    <path d="M 281.86554390135439,216.92201188381077 A 120,120 0 0,1 255.85281374238571,255.85281374238571" />
    <path d="M 237.66842796235227,270.77635347630542 A 120,120 0 0,1 216.9220118838108,281.86554390135439" />
    <path d="M 194.41083864193544,288.69423364838764 A 120,120 0 0,1 147.58916135806459,288.69423364838764" />
    <path d="M 104.33157203764777,270.77635347630547 A 120,120 0 0,1 86.147186257614308,255.85281374238571" />
    <path d="M 60.134456098645614,216.92201188381085 A 120,120 0 0,1 53.305766351612348,194.41083864193544" />
    <path d="M 53.305766351612348,147.58916135806462 A 120,120 0 0,1 86.14718625761428,86.147186257614322" />
    <path d="M 171,35 A 136,136 0 0,1 235.10995620833569,51.058708048623714" />
    <path d="M 267.16652224137044,74.833477758629527 A 136,136 0 0,1 276.12942165733222,84.7225133537442" />
    <path d="M 290.94129195137629,106.8900437916643 A 136,136 0 0,1 301.14388565958041,131.52128389339313" />
    <path d="M 304.38679813483935,144.46771620580654 A 136,136 0 0,1 306.34512282741878,157.66966891517973" />
    <path d="M 307,171 A 136,136 0 0,1 306.34512282741878,184.33033108482024" />
    <path d="M 304.38679813483935,197.53228379419343 A 136,136 0 0,1 284.07986727314619,246.55755169066589" />
    <path d="M 257.2774866462558,276.12942165733222 A 136,136 0 0,1 246.55755169066589,284.07986727314619" />
    <path d="M 223.04494680165223,296.64761642153496 A 136,136 0 0,1 171.00000000000003,307" />
    <path d="M 157.66966891517976,306.34512282741878 A 136,136 0 0,1 84.722513353744233,276.12942165733227" />
    <path d="M 65.870578342667812,257.27748664625585 A 136,136 0 0,1 40.856114340419595,131.52128389339316" />
    <path d="M 45.352383578465009,118.95505319834777 A 136,136 0 0,1 51.058708048623714,106.89004379166433" />
    <path d="M 65.870578342667784,84.7225133537442 A 136,136 0 0,1 74.833477758629513,74.833477758629556" />
    <path d="M 95.4424483093341,57.920132726853851 A 136,136 0 0,1 131.5212838933931,40.856114340419595" />
    <path d="M 144.46771620580648,37.613201865160676 A 136,136 0 0,1 157.66966891517978,35.654877172581223" />
    <path d="M 156.1013946699068,19.731921545826083 A 152,152 0 0,1 229.16788171949364,30.570311058284403" />
    <path d="M 242.65230399755166,36.947967819050035 A 152,152 0 0,1 255.44667541897954,44.616618930013118" />
    <path d="M 267.42777919287414,53.50241108886398 A 152,152 0 0,1 278.48023074035524,63.519769259644775" />
    <path d="M 297.38338106998685,86.553324581020462 A 152,152 0 0,1 311.4296889417156,112.83211828050635" />
    <path d="M 316.45493103129576,126.87672905732174 A 152,152 0 0,1 320.079362621291,141.34627105354849" />
    <path d="M 322.26807845417392,156.10139466990677 A 152,152 0 0,1 323,171" />
    <path d="M 322.26807845417392,185.89860533009323 A 152,152 0 0,1 316.45493103129576,215.12327094267826" />
    <path d="M 288.49758891113606,267.42777919287408 A 152,152 0 0,1 267.42777919287414,288.497588911136" />
    <path d="M 255.44667541897951,297.38338106998685 A 152,152 0 0,1 215.12327094267829,316.45493103129576" />
    <path d="M 171.00000000000003,323 A 152,152 0 0,1 156.1013946699068,322.26807845417392" />
    <path d="M 141.34627105354849,320.079362621291 A 152,152 0 0,1 112.83211828050636,311.4296889417156" />
    <path d="M 86.5533245810205,297.38338106998691 A 152,152 0 0,1 53.502411088864022,267.42777919287414" />
    <path d="M 36.947967819050064,242.65230399755168 A 152,152 0 0,1 21.920637378708989,200.65372894645157" />
    <path d="M 19,171.00000000000003 A 152,152 0 0,1 19.731921545826054,156.10139466990688" />
    <path d="M 30.570311058284432,112.83211828050632 A 152,152 0 0,1 36.947967819050035,99.347696002448373" />
    <path d="M 53.502411088863994,74.572220807125873 A 152,152 0 0,1 63.519769259644747,63.519769259644804" />
    <path d="M 74.572220807125817,53.502411088864037 A 152,152 0 0,1 86.553324581020462,44.616618930013118" />
    <path d="M 99.347696002448316,36.947967819050064 A 152,152 0 0,1 141.34627105354844,21.920637378708989" />
    <path d="M 187.46687957536619,3.8089659190709142 A 168,168 0 1,1 171,3" />
  </g>
  <g fill="none" stroke="#000000" stroke-width="2" stroke-linecap="butt">
    <line x1="171" y1="83" x2="171" y2="115" />
    <line x1="229.16788171949366" y1="30.570311058284403" x2="223.0449468016522" y2="45.352383578465009" />
    <line x1="216.92201188381077" y1="60.134456098645586" x2="210.79907696596933" y2="74.916528618826177" />
    <line x1="250.19465178676762" y1="22.837227589476356" x2="242.65230399755166" y2="36.947967819050035" />
    <line x1="255.44667541897954" y1="44.616618930013118" x2="237.66842796235227" y2="71.223646523694569" />
    <line x1="228.77930423403862" y1="84.5271603205353" x2="219.890180505725" y2="97.83067411737602" />
    <line x1="277.57807173949243" y1="41.134243835060175" x2="257.2774866462558" y2="65.87057834266777" />
    <line x1="267.16652224137044" y1="74.833477758629527" x2="199.2842712474619" y2="142.7157287525381" />
    <line x1="300.86575616493985" y1="64.421928260507556" x2="276.12942165733222" y2="84.722513353744219" />
    <line x1="297.38338106998685" y1="86.553324581020448" x2="257.4728396794647" y2="113.22069576596135" />
    <line x1="311.4296889417156" y1="112.83211828050634" x2="281.86554390135439" y2="125.07798811618922" />
    <line x1="267.08347138117381" y1="131.20092303403067" x2="222.73725382063205" y2="149.56972778755497" />
    <line x1="320.079362621291" y1="141.34627105354849" x2="288.69423364838764" y2="147.58916135806459" />
    <line x1="257.30910467548426" y1="153.83205166258071" x2="241.61654018903261" y2="156.95349681483876" />
    <line x1="339" y1="171" x2="307" y2="171" />
    <line x1="275" y1="171" x2="259" y2="171" />
    <line x1="227" y1="171" x2="211" y2="171" />
    <line x1="320.079362621291" y1="200.65372894645148" x2="304.38679813483935" y2="197.53228379419343" />
    <line x1="288.69423364838764" y1="194.41083864193539" x2="257.30910467548426" y2="188.16794833741929" />
    <line x1="326.21176146189617" y1="235.29081663733507" x2="311.4296889417156" y2="229.16788171949364" />
    <line x1="281.86554390135439" y1="216.92201188381077" x2="267.08347138117381" y2="210.79907696596933" />
    <line x1="237.51932634081265" y1="198.55320713028647" x2="222.73725382063205" y2="192.43027221244503" />
    <line x1="305.05203218094994" y1="242.65230399755166" x2="290.94129195137629" y2="235.10995620833569" />
    <line x1="310.68689486682763" y1="264.33579914729313" x2="297.38338106998691" y2="255.44667541897951" />
    <line x1="284.07986727314619" y1="246.55755169066586" x2="244.16932588262398" y2="219.89018050572497" />
    <line x1="288.49758891113606" y1="267.42777919287408" x2="276.12942165733227" y2="257.27748664625574" />
    <line x1="278.48023074035524" y1="278.48023074035518" x2="255.85281374238571" y2="255.85281374238571" />
    <line x1="244.53910524340097" y1="244.53910524340094" x2="233.22539674441617" y2="233.22539674441617" />
    <line x1="221.91168824543144" y1="221.91168824543144" x2="199.2842712474619" y2="199.2842712474619" />
    <line x1="277.57807173949243" y1="300.86575616493985" x2="257.2774866462558" y2="276.12942165733222" />
    <line x1="246.55755169066589" y1="284.07986727314619" x2="237.66842796235227" y2="270.77635347630542" />
    <line x1="219.890180505725" y1="244.16932588262398" x2="211.00105677741135" y2="230.86581208578326" />
    <line x1="242.65230399755166" y1="305.05203218094994" x2="235.10995620833569" y2="290.94129195137629" />
    <line x1="216.9220118838108" y1="281.86554390135439" x2="210.79907696596933" y2="267.08347138117381" />
    <line x1="192.43027221244503" y1="222.73725382063205" x2="186.3073372946036" y2="207.95518130045147" />
    <line x1="215.12327094267829" y1="316.4549310312957" x2="210.4787161066069" y2="301.14388565958041" />
    <line x1="203.77517409870961" y1="335.77192710774273" x2="200.65372894645154" y2="320.079362621291" />
    <line x1="197.53228379419349" y1="304.38679813483935" x2="194.41083864193544" y2="288.69423364838764" />
    <line x1="188.16794833741932" y1="257.30910467548426" x2="185.04650318516127" y2="241.61654018903261" />
    <line x1="185.89860533009323" y1="322.26807845417392" x2="184.33033108482027" y2="306.34512282741878" />
    <line x1="171.00000000000003" y1="323" x2="171.00000000000003" y2="307" />
    <line x1="171" y1="275" x2="171" y2="259" />
    <line x1="171" y1="227" x2="171" y2="195" />
    <line x1="156.1013946699068" y1="322.268078454174" x2="157.66966891517976" y2="306.34512282741878" />
    <line x1="150.71060651032266" y1="273.001669161936" x2="153.83205166258071" y2="257.30910467548426" />
    <line x1="106.70918336266493" y1="326.21176146189623" x2="112.83211828050636" y2="311.4296889417156" />
    <line x1="118.9550531983478" y1="296.647616421535" x2="137.3238579518721" y2="252.30139886099323" />
    <line x1="149.56972778755497" y1="222.73725382063208" x2="155.6926627053964" y2="207.95518130045147" />
    <line x1="99.347696002448359" y1="305.05203218094994" x2="106.89004379166433" y2="290.94129195137629" />
    <line x1="95.442448309334139" y1="284.07986727314619" x2="130.99894322258865" y2="230.86581208578326" />
    <line x1="63.519769259644789" y1="278.48023074035524" x2="97.46089475659906" y2="244.53910524340097" />
    <line x1="108.77460325558383" y1="233.2253967444162" x2="120.08831175456858" y2="221.91168824543144" />
    <line x1="142.7157287525381" y1="199.2842712474619" x2="154.02943725152286" y2="187.97056274847714" />
    <line x1="41.134243835060232" y1="277.57807173949254" x2="53.502411088864022" y2="267.4277791928742" />
    <line x1="31.3131051331724" y1="264.33579914729319" x2="111.13418791421674" y2="211.00105677741135" />
    <line x1="60.134456098645614" y1="216.92201188381085" x2="89.698601139006783" y2="204.67614204812796" />
    <line x1="104.48067365918737" y1="198.5532071302865" x2="119.26274617936795" y2="192.43027221244506" />
    <line x1="21.920637378708989" y1="200.65372894645157" x2="37.613201865160676" y2="197.53228379419349" />
    <line x1="53.305766351612363" y1="194.41083864193544" x2="100.38345981096742" y2="185.04650318516127" />
    <line x1="19.731921545826054" y1="185.89860533009318" x2="35.654877172581223" y2="184.33033108482022" />
    <line x1="3" y1="171.00000000000003" x2="19" y2="171.00000000000003" />
    <line x1="35" y1="171.00000000000003" x2="131" y2="171" />
    <line x1="6.2280728922572735" y1="138.22482590129044" x2="21.920637378708989" y2="141.34627105354849" />
    <line x1="25.545068968704243" y1="126.87672905732177" x2="40.856114340419595" y2="131.52128389339316" />
    <line x1="15.788238538103855" y1="106.70918336266487" x2="30.570311058284432" y2="112.83211828050632" />
    <line x1="104.48067365918736" y1="143.44679286971353" x2="119.26274617936795" y2="149.56972778755497" />
    <line x1="36.947967819050035" y1="99.347696002448373" x2="51.058708048623714" y2="106.89004379166433" />
    <line x1="31.313105133172371" y1="77.664200852706884" x2="57.920132726853822" y2="95.442448309334154" />
    <line x1="53.502411088863994" y1="74.572220807125873" x2="65.870578342667784" y2="84.7225133537442" />
    <line x1="74.833477758629513" y1="74.833477758629556" x2="97.460894756599046" y2="97.460894756599075" />
    <line x1="108.7746032555838" y1="108.77460325558383" x2="120.08831175456857" y2="120.08831175456859" />
    <line x1="131.40202025355333" y1="131.40202025355336" x2="154.02943725152286" y2="154.02943725152286" />
    <line x1="74.572220807125817" y1="53.502411088864022" x2="84.722513353744148" y2="65.870578342667812" />
    <line x1="77.664200852706841" y1="31.3131051331724" x2="104.33157203764773" y2="71.223646523694569" />
    <line x1="125.07798811618915" y1="60.134456098645614" x2="137.32385795187204" y2="89.698601139006783" />
    <line x1="141.34627105354844" y1="21.920637378708989" x2="147.58916135806456" y2="53.305766351612363" />
    <line x1="156.1013946699068" y1="19.731921545826054" x2="157.66966891517978" y2="35.654877172581223" />
  </g>
  <path fill="none" stroke="#ff0000" stroke-width="2" stroke-linecap="square" stroke-linejoin="round" d="M 179.24336928700623,3.2023633575310271 L 178.85082789238689,11.192727007172408 A 160,160 0 0,0 88.7435609290845,33.763422399956482 L 96.969204836176047,47.48708015996084 A 144,144 0 0,1 136.01085409392996,31.315499539985666 L 139.89853697238218,46.835999591098371 A 128,128 0 0,0 110.66121768627227,58.114078163410582 L 118.20356547548823,72.224818392984261 A 112,112 0 0,0 99.947952173671652,84.4228292233735 L 89.797659627053321,72.054661969569707 A 128,128 0 0,0 85.040453779581611,76.158255954565263 L 63.550567224477007,52.447819943206582 A 160,160 0 0,0 42.48679496309677,75.688111281210738 L 68.1894359704774,94.750489024968587 A 128,128 0 0,0 43.616354985958793,158.45380603781632 L 59.539310612713948,160.02208028308928 A 112,112 0 0,1 84.422829223373469,99.9479521736717 L 96.790996477177259,110.09824472029003 A 96,96 0 0,1 125.7459132647042,86.335558622557926 L 133.28826105392017,100.44629885213161 A 80,80 0 0,1 163.15862877363517,91.385221866224242 L 164.72690301890813,107.3081774929794 A 64,64 0 0,0 117.7859448126371,135.44350508674549 L 144.39297240631854,153.22175254337273 A 32,32 0 0,0 139.61487102709663,177.24289030451612 L 123.92230654064494,180.36433545677417 A 48,48 0 0,0 144.33262881505911,210.91054139052218 L 153.22175254337273,197.60702759368147 A 32,32 0 0,0 158.75413016431713,200.56414504036118 L 161.81559762323786,193.17310878027089" />
  <type>Circular</type>
</svg>