<?xml version="1.0" encoding="utf-8" standalone="no"?>
<!DOCTYPE svg PUBLIC "-//W3C//DTD SVG 1.1//EN" "http://www.w3.org/Graphics/SVG/1.1/DTD/svg11.dtd"[]>
<svg width="340" height="340" version="1.1" xmlns="http://www.w3.org/2000/svg">
  <title>21 cells diameter theta maze</title>
  <g fill="none" stroke="#000000" stroke-width="2" stroke-linecap="square">
    <path d="M 154.02943725152286,187.97056274847714 A 24,24 0 1,1 171,195" />
    <path d="M 171,131 A 40,40 0 0,1 199.2842712474619,199.2842712474619" />
    <path d="M 171,211 A 40,40 0 0,1 155.6926627053964,207.95518130045147" />
    <path d="M 142.7157287525381,199.2842712474619 A 40,40 0 0,1 131,171" />
    <path d="M 134.04481869954853,155.6926627053964 A 40,40 0 0,1 142.7157287525381,142.7157287525381" />
    <path d="M 131.40202025355333,131.40202025355336 A 56,56 0 0,1 222.73725382063208,192.43027221244503" />
    <path d="M 171,227 A 56,56 0 0,1 119.26274617936795,192.43027221244506" />
    <path d="M 185.04650318516124,100.38345981096741 A 72,72 0 0,1 211.00105677741135,111.13418791421674" />
    <path d="M 221.91168824543144,120.08831175456858 A 72,72 0 0,1 230.86581208578326,130.99894322258865" />
    <path d="M 230.86581208578326,211.00105677741135 A 72,72 0 0,1 221.91168824543144,221.91168824543141" />
    <path d="M 211.00105677741135,230.86581208578326 A 72,72 0 0,1 171,243" />
    <path d="M 130.99894322258865,230.86581208578326 A 72,72 0 0,1 111.13418791421674,211.00105677741135" />
    <path d="M 100.38345981096741,185.04650318516127 A 72,72 0 0,1 99,171" />
    <path d="M 100.38345981096741,156.95349681483876 A 72,72 0 0,1 156.95349681483873,100.38345981096741" />
    <path d="M 153.83205166258068,84.690895324515722 A 88,88 0 0,1 188.16794833741929,84.690895324515722" />
    <path d="M 204.6761420481279,89.698601139006769 A 88,88 0 0,1 219.890180505725,97.83067411737602" />
    <path d="M 244.16932588262398,122.109819494275 A 88,88 0 0,1 252.30139886099323,137.3238579518721" />
    <path d="M 259,171 A 88,88 0 0,1 233.22539674441617,233.22539674441617" />
    <path d="M 204.6761420481279,252.30139886099323 A 88,88 0 0,1 188.16794833741932,257.30910467548426" />
    <path d="M 171,259 A 88,88 0 0,1 153.83205166258071,257.30910467548426" />
    <path d="M 108.77460325558383,233.2253967444162 A 88,88 0 0,1 89.698601139006783,204.67614204812796" />
    <path d="M 84.690895324515722,188.16794833741932 A 88,88 0 0,1 83,171.00000000000003" />
    <path d="M 89.698601139006769,137.32385795187207 A 88,88 0 0,1 97.830674117375992,122.10981949427503" />
    <path d="M 171,67 A 104,104 0 0,1 210.79907696596933,74.916528618826177" />
    <path d="M 228.77930423403862,84.527160320535288 A 104,104 0 0,1 244.53910524340094,97.46089475659906" />
    <path d="M 273.001669161936,150.71060651032266 A 104,104 0 0,1 267.08347138117381,210.79907696596933" />
    <path d="M 244.53910524340097,244.53910524340094 A 104,104 0 0,1 228.77930423403862,257.4728396794647" />
    <path d="M 191.28939348967737,273.001669161936 A 104,104 0 0,1 171,275" />
    <path d="M 150.71060651032266,273.001669161936 A 104,104 0 0,1 131.20092303403067,267.08347138117381" />
    <path d="M 113.22069576596141,257.47283967946476 A 104,104 0 0,1 68.998330838064035,191.28939348967737" />
    <path d="M 84.527160320535273,113.22069576596141 A 104,104 0 0,1 97.460894756599046,97.460894756599075" />
    <path d="M 113.22069576596137,84.5271603205353 A 104,104 0 0,1 150.71060651032261,68.998330838064049" />
    <path d="M 216.92201188381077,60.134456098645586 A 120,120 0 0,1 255.85281374238571,86.1471862576143" />
    <path d="M 281.86554390135439,125.07798811618923 A 120,120 0 0,1 281.86554390135439,216.92201188381077" />
    <path d="M 270.77635347630542,237.66842796235224 A 120,120 0 0,1 237.66842796235227,270.77635347630542" />
    <path d="M 216.9220118838108,281.86554390135439 A 120,120 0 0,1 194.41083864193544,288.69423364838764" />
    <path d="M 171.00000000000003,291 A 120,120 0 0,1 147.58916135806459,288.69423364838764" />
    <path d="M 104.33157203764777,270.77635347630547 A 120,120 0 0,1 86.147186257614308,255.85281374238571" />
    <path d="M 60.134456098645614,216.92201188381085 A 120,120 0 0,1 53.305766351612348,194.41083864193544" />
    <path d="M 51,171.00000000000003 A 120,120 0 0,1 71.223646523694541,104.33157203764777" />
    <path d="M 95.4424483093341,57.920132726853851 A 136,136 0 0,1 171,35" />
    <path d="M 184.33033108482024,35.654877172581223 A 136,136 0 0,1 210.4787161066069,40.856114340419595" />
    <path d="M 235.10995620833569,51.058708048623714 A 136,136 0 0,1 257.2774866462558,65.87057834266777" />
    <path d="M 267.16652224137044,74.833477758629527 A 136,136 0 0,1 284.07986727314614,95.4424483093341" />
    <path d="M 290.94129195137629,106.8900437916643 A 136,136 0 0,1 301.14388565958041,131.52128389339313" />
    <path d="M 304.38679813483935,144.46771620580654 A 136,136 0 0,1 306.34512282741878,157.66966891517973" />
    <path d="M 307,171 A 136,136 0 0,1 306.34512282741878,184.33033108482024" />
    <path d="M 304.38679813483935,197.53228379419343 A 136,136 0 0,1 301.14388565958041,210.47871610660687" />
    <path d="M 296.647616421535,223.0449468016522 A 136,136 0 0,1 290.94129195137629,235.10995620833569" />
    <path d="M 257.2774866462558,276.12942165733222 A 136,136 0 0,1 246.55755169066589,284.07986727314619" />
    <path d="M 235.10995620833569,290.94129195137629 A 136,136 0 0,1 210.4787161066069,301.14388565958041" />
    <path d="M 184.33033108482027,306.34512282741878 A 136,136 0 0,1 157.66966891517976,306.34512282741878" />
    <path d="M 144.46771620580654,304.38679813483935 A 136,136 0 0,1 106.89004379166433,290.94129195137629" />
    <path d="M 65.870578342667812,257.27748664625585 A 136,136 0 0,1 45.352383578465037,223.04494680165229" />
    <path d="M 37.613201865160676,197.53228379419349 A 136,136 0 0,1 37.613201865160647,144.46771620580654" />
    <path d="M 40.856114340419595,131.52128389339316 A 136,136 0 0,1 51.058708048623714,106.89004379166433" />
    <path d="M 57.920132726853822,95.442448309334139 A 136,136 0 0,1 65.870578342667784,84.7225133537442" />
    <path d="M 74.833477758629513,74.833477758629556 A 136,136 0 0,1 84.722513353744148,65.870578342667827" />
    <path d="M 215.12327094267829,25.545068968704243 A 152,152 0 0,1 229.16788171949364,30.570311058284403" />
    <path d="M 242.65230399755166,36.947967819050035 A 152,152 0 0,1 255.44667541897954,44.616618930013118" />
    <path d="M 297.38338106998685,86.553324581020462 A 152,152 0 0,1 305.05203218094994,99.34769600244833" />
    <path d="M 316.45493103129576,126.87672905732174 A 152,152 0 0,1 320.079362621291,141.34627105354849" />
    <path d="M 322.26807845417392,185.89860533009323 A 152,152 0 0,1 320.079362621291,200.65372894645148" />
    <path d="M 305.05203218094994,242.65230399755166 A 152,152 0 0,1 288.49758891113606,267.42777919287408" />
    <path d="M 278.48023074035524,278.48023074035518 A 152,152 0 0,1 242.65230399755166,305.05203218094994" />
    <path d="M 200.65372894645154,320.079362621291 A 152,152 0 0,1 185.89860533009323,322.26807845417392" />
    <path d="M 171.00000000000003,323 A 152,152 0 0,1 112.83211828050636,311.4296889417156" />
    <path d="M 99.347696002448359,305.05203218094994 A 152,152 0 0,1 74.572220807125916,288.49758891113606" />
    <path d="M 63.519769259644789,278.48023074035524 A 152,152 0 0,1 53.502411088864022,267.42777919287414" />
    <path d="M 25.545068968704243,215.12327094267829 A 152,152 0 0,1 19.731921545826083,185.89860533009318" />
    <path d="M 19,171.00000000000003 A 152,152 0 0,1 21.92063737870896,141.34627105354849" />
    <path d="M 25.545068968704243,126.87672905732177 A 152,152 0 0,1 44.61661893001309,86.553324581020519" />
    <path d="M 53.502411088863994,74.572220807125873 A 152,152 0 0,1 63.519769259644747,63.519769259644804" />
    <path d="M 74.572220807125817,53.502411088864037 A 152,152 0 0,1 99.347696002448316,36.947967819050064" />
    <path d="M 126.87672905732171,25.545068968704271 A 152,152 0 0,1 156.1013946699068,19.731921545826083" />
    <path d="M 187.46687957536619,3.8089659190709142 A 168,168 0 1,1 171,3" />
  </g>
  <g fill="none" stroke="#000000" stroke-width="2" stroke-linecap="butt">
    <line x1="171" y1="3" x2="171" y2="67" />
    <line x1="171" y1="83" x2="171" y2="99" />
    <line x1="171" y1="131" x2="171" y2="147" />
    <line x1="187.46687957536619" y1="3.8089659190709142" x2="185.8986053300932" y2="19.731921545826054" />
    <line x1="203.77517409870956" y1="6.2280728922572735" x2="194.41083864193539" y2="53.305766351612348" />
    <line x1="188.16794833741929" y1="84.690895324515722" x2="185.04650318516124" y2="100.38345981096741" />
    <line x1="235.29081663733507" y1="15.788238538103826" x2="229.16788171949366" y2="30.570311058284403" />
    <line x1="223.0449468016522" y1="45.352383578465009" x2="204.6761420481279" y2="89.698601139006769" />
    <line x1="255.44667541897954" y1="44.616618930013118" x2="246.55755169066589" y2="57.920132726853851" />
    <line x1="219.890180505725" y1="97.83067411737602" x2="211.00105677741135" y2="111.13418791421674" />
    <line x1="277.57807173949243" y1="41.134243835060175" x2="257.2774866462558" y2="65.87057834266777" />
    <line x1="289.79393923934" y1="52.206060760660009" x2="278.48023074035518" y2="63.519769259644775" />
    <line x1="267.16652224137044" y1="74.833477758629527" x2="233.22539674441617" y2="108.77460325558381" />
    <line x1="221.91168824543144" y1="120.08831175456857" x2="210.59797974644664" y2="131.40202025355333" />
    <line x1="288.497588911136" y1="74.572220807125888" x2="276.12942165733222" y2="84.722513353744219" />
    <line x1="310.68689486682763" y1="77.664200852706813" x2="297.38338106998685" y2="86.553324581020448" />
    <line x1="270.77635347630542" y1="104.33157203764773" x2="230.86581208578326" y2="130.99894322258865" />
    <line x1="326.21176146189617" y1="106.7091833626649" x2="311.4296889417156" y2="112.83211828050634" />
    <line x1="296.64761642153496" y1="118.95505319834778" x2="267.08347138117381" y2="131.20092303403067" />
    <line x1="237.51932634081265" y1="143.44679286971353" x2="222.73725382063205" y2="149.56972778755497" />
    <line x1="316.45493103129576" y1="126.87672905732173" x2="301.14388565958041" y2="131.52128389339313" />
    <line x1="335.77192710774273" y1="138.22482590129044" x2="320.079362621291" y2="141.34627105354849" />
    <line x1="304.38679813483935" y1="144.46771620580654" x2="288.69423364838764" y2="147.58916135806459" />
    <line x1="273.001669161936" y1="150.71060651032266" x2="241.61654018903261" y2="156.95349681483876" />
    <line x1="322.26807845417392" y1="156.10139466990677" x2="306.34512282741878" y2="157.66966891517973" />
    <line x1="323" y1="171" x2="307" y2="171" />
    <line x1="259" y1="171" x2="227" y2="171" />
    <line x1="338.19103408092906" y1="187.46687957536619" x2="306.34512282741878" y2="184.33033108482024" />
    <line x1="304.38679813483935" y1="197.53228379419343" x2="288.69423364838764" y2="194.41083864193539" />
    <line x1="257.30910467548426" y1="188.16794833741929" x2="241.61654018903261" y2="185.04650318516124" />
    <line x1="316.45493103129576" y1="215.12327094267823" x2="301.14388565958041" y2="210.47871610660684" />
    <line x1="326.21176146189617" y1="235.29081663733507" x2="311.4296889417156" y2="229.16788171949364" />
    <line x1="296.64761642153496" y1="223.0449468016522" x2="267.08347138117381" y2="210.79907696596933" />
    <line x1="252.30139886099323" y1="204.6761420481279" x2="237.51932634081265" y2="198.55320713028647" />
    <line x1="305.05203218094994" y1="242.65230399755166" x2="290.94129195137629" y2="235.10995620833569" />
    <line x1="284.07986727314619" y1="246.55755169066586" x2="230.86581208578326" y2="211.00105677741135" />
    <line x1="288.49758891113606" y1="267.42777919287408" x2="276.12942165733227" y2="257.27748664625574" />
    <line x1="289.79393923934" y1="289.79393923934" x2="278.48023074035524" y2="278.48023074035518" />
    <line x1="267.16652224137044" y1="267.16652224137044" x2="255.85281374238571" y2="255.85281374238571" />
    <line x1="221.91168824543144" y1="221.91168824543144" x2="199.2842712474619" y2="199.2842712474619" />
    <line x1="267.42777919287414" y1="288.497588911136" x2="257.2774866462558" y2="276.12942165733222" />
    <line x1="237.66842796235227" y1="270.77635347630542" x2="219.890180505725" y2="244.16932588262398" />
    <line x1="242.65230399755166" y1="305.05203218094994" x2="235.10995620833569" y2="290.94129195137629" />
    <line x1="235.2908166373351" y1="326.21176146189617" x2="229.16788171949366" y2="311.4296889417156" />
    <line x1="216.9220118838108" y1="281.86554390135439" x2="186.3073372946036" y2="207.95518130045147" />
    <line x1="215.12327094267829" y1="316.4549310312957" x2="210.4787161066069" y2="301.14388565958041" />
    <line x1="203.77517409870961" y1="335.77192710774273" x2="191.28939348967737" y2="273.001669161936" />
    <line x1="185.89860533009323" y1="322.26807845417392" x2="184.33033108482027" y2="306.34512282741878" />
    <line x1="171" y1="275" x2="171" y2="259" />
    <line x1="171" y1="211" x2="171" y2="195" />
    <line x1="141.34627105354849" y1="320.079362621291" x2="156.95349681483876" y2="241.61654018903261" />
    <line x1="118.9550531983478" y1="296.647616421535" x2="125.07798811618923" y2="281.86554390135444" />
    <line x1="137.3238579518721" y1="252.30139886099323" x2="155.6926627053964" y2="207.95518130045147" />
    <line x1="86.5533245810205" y1="297.38338106998691" x2="104.33157203764776" y2="270.77635347630547" />
    <line x1="122.10981949427503" y1="244.16932588262398" x2="130.99894322258865" y2="230.86581208578326" />
    <line x1="64.4219282605076" y1="300.86575616493985" x2="84.722513353744247" y2="276.12942165733227" />
    <line x1="52.206060760660023" y1="289.79393923934003" x2="74.833477758629542" y2="267.1665222413705" />
    <line x1="120.08831175456858" y1="221.91168824543144" x2="131.40202025355336" y2="210.59797974644667" />
    <line x1="142.7157287525381" y1="199.2842712474619" x2="154.02943725152286" y2="187.97056274847714" />
    <line x1="44.616618930013118" y1="255.44667541897954" x2="84.5271603205353" y2="228.77930423403862" />
    <line x1="36.947967819050064" y1="242.65230399755166" x2="51.058708048623728" y2="235.10995620833569" />
    <line x1="15.788238538103855" y1="235.29081663733518" x2="30.57031105828446" y2="229.16788171949372" />
    <line x1="74.9165286188262" y1="210.79907696596939" x2="119.26274617936795" y2="192.43027221244506" />
    <line x1="25.545068968704271" y1="215.12327094267829" x2="40.856114340419595" y2="210.4787161066069" />
    <line x1="37.613201865160676" y1="197.53228379419349" x2="68.998330838064049" y2="191.28939348967737" />
    <line x1="84.690895324515736" y1="188.16794833741932" x2="100.38345981096742" y2="185.04650318516127" />
    <line x1="3.8089659190709142" y1="187.46687957536616" x2="19.731921545826054" y2="185.89860533009318" />
    <line x1="51" y1="171.00000000000003" x2="83" y2="171.00000000000003" />
    <line x1="99" y1="171" x2="131" y2="171" />
    <line x1="6.2280728922572735" y1="138.22482590129044" x2="21.920637378708989" y2="141.34627105354849" />
    <line x1="53.305766351612348" y1="147.58916135806462" x2="100.38345981096741" y2="156.95349681483876" />
    <line x1="30.570311058284432" y1="112.83211828050632" x2="74.916528618826192" y2="131.20092303403064" />
    <line x1="119.26274617936795" y1="149.56972778755497" x2="134.04481869954853" y2="155.6926627053964" />
    <line x1="22.837227589476356" y1="91.8053482132324" x2="36.947967819050035" y2="99.347696002448373" />
    <line x1="44.61661893001309" y1="86.553324581020519" x2="57.920132726853822" y2="95.442448309334154" />
    <line x1="84.527160320535273" y1="113.22069576596141" x2="97.830674117376" y2="122.10981949427503" />
    <line x1="52.206060760659994" y1="52.206060760660051" x2="97.460894756599046" y2="97.460894756599075" />
    <line x1="108.7746032555838" y1="108.77460325558383" x2="120.08831175456857" y2="120.08831175456859" />
    <line x1="142.7157287525381" y1="142.7157287525381" x2="154.02943725152286" y2="154.02943725152286" />
    <line x1="74.572220807125817" y1="53.502411088864022" x2="84.722513353744148" y2="65.870578342667812" />
    <line x1="104.33157203764773" y1="71.223646523694569" x2="122.109819494275" y2="97.83067411737602" />
    <line x1="106.70918336266482" y1="15.788238538103855" x2="112.83211828050625" y2="30.57031105828446" />
    <line x1="118.95505319834771" y1="45.352383578465037" x2="125.07798811618915" y2="60.134456098645614" />
    <line x1="137.32385795187204" y1="89.698601139006783" x2="143.44679286971348" y2="104.48067365918737" />
    <line x1="149.56972778755494" y1="119.26274617936795" x2="155.69266270539637" y2="134.04481869954856" />
    <line x1="126.8767290573217" y1="25.545068968704271" x2="131.5212838933931" y2="40.856114340419595" />
    <line x1="147.58916135806456" y1="53.305766351612363" x2="153.83205166258068" y2="84.690895324515736" />
  </g>
  <path fill="none" stroke="#ff0000" stroke-width="2" stroke-linecap="square" stroke-linejoin="round" d="M 179.24336928700623,3.2023633575310271 L 177.28066231390952,43.154181605737932 A 128,128 0 0,1 183.54619396218376,43.616354985958793 L 181.97791971691078,59.539310612713948 A 112,112 0 0,1 203.51188385249978,63.822682397992608 L 208.15643868857117,48.51163702627727 A 128,128 0 0,1 214.12190123420416,50.482359656573337 L 219.51213888847968,35.417654613645 A 144,144 0 0,1 232.56793345396062,40.82554179022415 L 225.72705195907611,55.289370480199253 A 128,128 0 0,1 256.95954622041836,76.158255954565234 L 267.70448949797066,64.303037948885887 A 144,144 0 0,1 277.6969620511141,74.295510502029359 L 289.55218005679347,63.550567224477064 A 160,160 0 0,1 299.51320503690317,75.688111281210652 L 286.66188453321286,85.219300153089591 A 144,144 0 0,1 294.51291984003916,96.969204836176075 L 280.78926208003486,105.19484874326763 A 128,128 0 0,1 283.88592183658943,110.66121768627228 L 255.66444137744207,125.74591326470421 A 96,96 0 0,1 262.86627223029205,143.13267098357161 L 232.24418148686138,152.4217806557144 A 64,64 0 0,1 234.69182250702059,164.7269030189081 L 266.5377337605309,161.59035452836216 A 96,96 0 0,1 255.66444137744207,216.25408673529577 L 283.88592183658943,231.33878231372771 A 128,128 0 0,1 280.78926208003486,236.80515125673236 L 294.51291984003922,245.03079516382391 A 144,144 0 0,1 286.66188453321286,256.78069984691041 L 273.81056402952254,247.24951097503146 A 128,128 0 0,1 265.84174404543478,256.95954622041836 L 277.6969620511141,267.70448949797066 A 144,144 0 0,1 267.70448949797071,277.6969620511141 L 256.95954622041836,265.84174404543472 A 128,128 0 0,1 231.33878231372773,283.88592183658943 L 208.71173894607983,241.5537011478684 A 80,80 0 0,0 221.75146273309164,232.84083626901895 L 211.60117018647333,220.47266901521516 A 64,64 0 0,1 206.55649491325454,224.2140551873629 L 188.77824745662727,197.60702759368144 A 32,32 0 0,1 177.24289030451612,202.38512897290337 L 183.48578060903222,233.77025794580675 A 64,64 0 0,1 152.42178065571443,232.24418148686138 L 143.13267098357164,262.86627223029205 A 96,96 0 0,1 125.74591326470423,255.66444137744207 L 118.20356547548826,269.77518160701578 A 112,112 0 0,1 84.4228292233735,242.05204782632833 L 72.054661969569707,252.20234037294668 A 128,128 0 0,0 76.158255954565263,256.95954622041836 L 64.303037948885915,267.70448949797071 A 144,144 0 0,1 55.338115466787116,256.78069984691035 L 42.4867949630968,266.31188871878931 A 160,160 0 0,1 26.361713100249091,239.40881494884519 L 40.825541790224179,232.56793345396068 A 144,144 0 0,1 35.417654613645,219.51213888847968 L 50.482359656573337,214.12190123420416 A 128,128 0 0,1 46.835999591098371,202.1014630276178 L 31.315499539985666,205.98914590607004 A 144,144 0 0,1 31.315499539985666,136.01085409393002 L 46.835999591098371,139.89853697238223 A 128,128 0 0,0 43.616354985958793,183.54619396218374 L 75.4622662394691,180.40964547163782 A 96,96 0 0,0 79.133727769707946,198.86732901642839 L 109.75581851313864,189.5782193442856 A 64,64 0 0,1 108.22974205419325,183.48578060903225 L 123.92230654064494,180.36433545677417 A 48,48 0 0,0 144.33262881505911,210.91054139052218 L 153.22175254337273,197.60702759368147 A 32,32 0 0,0 158.75413016431713,200.56414504036118 L 161.81559762323786,193.17310878027089" />
  <type>Circular</type>
</svg>