<?xml version="1.0" encoding="utf-8" standalone="no"?>
<!DOCTYPE svg PUBLIC "-//W3C//DTD SVG 1.1//EN" "http://www.w3.org/Graphics/SVG/1.1/DTD/svg11.dtd"[]>
<svg width="340" height="340" version="1.1" xmlns="http://www.w3.org/2000/svg">
  <title>21 cells diameter theta maze</title>
  <g fill="none" stroke="#000000" stroke-width="2" stroke-linecap="square">
    <path d="M 154.02943725152286,187.97056274847714 A 24,24 0 1,1 171,195" />
    <path d="M 211,171 A 40,40 0 0,1 207.95518130045147,186.3073372946036" />
    <path d="M 186.3073372946036,207.95518130045147 A 40,40 0 0,1 155.69266270539637,134.04481869954856" />
    <path d="M 192.43027221244503,222.73725382063205 A 56,56 0 1,1 171,115" />
    <path d="M 222.73725382063205,149.56972778755497 A 56,56 0 0,1 222.73725382063208,192.43027221244503" />
    <path d="M 156.95349681483873,100.38345981096741 A 72,72 0 0,1 171,99" />
    <path d="M 185.04650318516124,100.38345981096741 A 72,72 0 0,1 211.00105677741135,111.13418791421674" />
    <path d="M 221.91168824543144,120.08831175456858 A 72,72 0 0,1 241.61654018903261,156.95349681483876" />
    <path d="M 243,171 A 72,72 0 0,1 241.61654018903261,185.04650318516124" />
    <path d="M 230.86581208578326,211.00105677741135 A 72,72 0 0,1 185.04650318516127,241.61654018903261" />
    <path d="M 171,243 A 72,72 0 0,1 130.99894322258865,230.86581208578326" />
    <path d="M 111.13418791421674,211.00105677741135 A 72,72 0 0,1 100.38345981096741,185.04650318516127" />
    <path d="M 99,171 A 72,72 0 0,1 130.99894322258865,111.13418791421674" />
    <path d="M 188.16794833741929,84.690895324515722 A 88,88 0 0,1 204.6761420481279,89.698601139006769" />
    <path d="M 257.30910467548426,188.16794833741929 A 88,88 0 0,1 219.89018050572497,244.16932588262398" />
    <path d="M 204.6761420481279,252.30139886099323 A 88,88 0 0,1 153.83205166258071,257.30910467548426" />
    <path d="M 97.83067411737602,219.890180505725 A 88,88 0 0,1 89.698601139006783,204.67614204812796" />
    <path d="M 84.690895324515722,188.16794833741932 A 88,88 0 0,1 89.698601139006769,137.32385795187207" />
    <path d="M 108.7746032555838,108.77460325558383 A 88,88 0 0,1 122.109819494275,97.83067411737602" />
    <path d="M 171,67 A 104,104 0 0,1 228.77930423403862,84.527160320535288" />
    <path d="M 257.4728396794647,113.22069576596137 A 104,104 0 0,1 273.001669161936,150.71060651032266" />
    <path d="M 275,171 A 104,104 0 0,1 257.47283967946476,228.77930423403859" />
    <path d="M 171,275 A 104,104 0 0,1 97.460894756599075,244.53910524340097" />
    <path d="M 84.527160320535288,228.77930423403862 A 104,104 0 0,1 74.9165286188262,210.79907696596939" />
    <path d="M 68.998330838064035,191.28939348967737 A 104,104 0 0,1 68.998330838064035,150.71060651032266" />
    <path d="M 74.916528618826192,131.20092303403064 A 104,104 0 0,1 84.527160320535273,113.22069576596141" />
    <path d="M 97.460894756599046,97.460894756599075 A 104,104 0 0,1 131.20092303403061,74.9165286188262" />
    <path d="M 125.07798811618915,60.134456098645614 A 120,120 0 0,1 171,51" />
    <path d="M 194.41083864193539,53.305766351612348 A 120,120 0 0,1 288.69423364838764,147.58916135806459" />
    <path d="M 255.85281374238571,255.85281374238571 A 120,120 0 0,1 216.9220118838108,281.86554390135439" />
    <path d="M 86.147186257614308,255.85281374238571 A 120,120 0 0,1 71.223646523694569,237.66842796235227" />
    <path d="M 60.134456098645614,216.92201188381085 A 120,120 0 0,1 53.305766351612348,194.41083864193544" />
    <path d="M 53.305766351612348,147.58916135806462 A 120,120 0 0,1 60.1344560986456,125.0779881161892" />
    <path d="M 71.223646523694541,104.33157203764777 A 120,120 0 0,1 86.14718625761428,86.147186257614322" />
    <path d="M 171,35 A 136,136 0 0,1 197.53228379419343,37.613201865160647" />
    <path d="M 210.4787161066069,40.856114340419595 A 136,136 0 0,1 257.2774866462558,65.87057834266777" />
    <path d="M 290.94129195137629,106.8900437916643 A 136,136 0 0,1 306.34512282741878,184.33033108482024" />
    <path d="M 301.14388565958041,210.47871610660687 A 136,136 0 0,1 290.94129195137629,235.10995620833569" />
    <path d="M 284.07986727314619,246.55755169066589 A 136,136 0 0,1 257.2774866462558,276.12942165733222" />
    <path d="M 235.10995620833569,290.94129195137629 A 136,136 0 0,1 171.00000000000003,307" />
    <path d="M 157.66966891517976,306.34512282741878 A 136,136 0 0,1 131.52128389339316,301.14388565958041" />
    <path d="M 95.442448309334139,284.07986727314619 A 136,136 0 0,1 74.833477758629556,267.16652224137044" />
    <path d="M 65.870578342667812,257.27748664625585 A 136,136 0 0,1 40.856114340419595,210.4787161066069" />
    <path d="M 37.613201865160676,197.53228379419349 A 136,136 0 0,1 35,171.00000000000003" />
    <path d="M 35.654877172581223,157.66966891517984 A 136,136 0 0,1 45.352383578465009,118.95505319834777" />
    <path d="M 51.058708048623714,106.89004379166433 A 136,136 0 0,1 65.870578342667784,84.7225133537442" />
    <path d="M 74.833477758629513,74.833477758629556 A 136,136 0 0,1 118.95505319834771,45.352383578465037" />
    <path d="M 144.46771620580648,37.613201865160676 A 136,136 0 0,1 157.66966891517978,35.654877172581223" />
    <path d="M 99.347696002448316,36.947967819050064 A 152,152 0 0,1 171,19" />
    <path d="M 200.65372894645151,21.92063737870896 A 152,152 0 0,1 215.12327094267829,25.545068968704243" />
    <path d="M 242.65230399755166,36.947967819050035 A 152,152 0 0,1 255.44667541897954,44.616618930013118" />
    <path d="M 267.42777919287414,53.50241108886398 A 152,152 0 0,1 278.48023074035524,63.519769259644775" />
    <path d="M 288.497588911136,74.572220807125873 A 152,152 0 0,1 297.38338106998685,86.553324581020462" />
    <path d="M 311.4296889417156,112.83211828050635 A 152,152 0 0,1 316.45493103129576,126.87672905732174" />
    <path d="M 322.26807845417392,156.10139466990677 A 152,152 0 0,1 316.45493103129576,215.12327094267826" />
    <path d="M 288.49758891113606,267.42777919287408 A 152,152 0 0,1 278.48023074035524,278.48023074035518" />
    <path d="M 255.44667541897951,297.38338106998685 A 152,152 0 0,1 242.65230399755166,305.05203218094994" />
    <path d="M 215.12327094267829,316.45493103129576 A 152,152 0 0,1 185.89860533009323,322.26807845417392" />
    <path d="M 141.34627105354849,320.079362621291 A 152,152 0 0,1 53.502411088864022,267.42777919287414" />
    <path d="M 36.947967819050064,242.65230399755168 A 152,152 0 0,1 30.57031105828446,229.16788171949372" />
    <path d="M 25.545068968704243,215.12327094267829 A 152,152 0 0,1 21.920637378708989,200.65372894645157" />
    <path d="M 19.731921545826083,185.89860533009318 A 152,152 0 0,1 19.731921545826054,156.10139466990688" />
    <path d="M 21.92063737870896,141.34627105354849 A 152,152 0 0,1 44.61661893001309,86.553324581020519" />
    <path d="M 53.502411088863994,74.572220807125873 A 152,152 0 0,1 63.519769259644747,63.519769259644804" />
    <path d="M 187.46687957536619,3.8089659190709142 A 168,168 0 1,1 171,3" />
  </g>
  <g fill="none" stroke="#000000" stroke-width="2" stroke-linecap="butt">
    <line x1="171" y1="19" x2="171" y2="35" />
    <line x1="171" y1="67" x2="171" y2="83" />
    <line x1="171" y1="99" x2="171" y2="131" />
    <line x1="187.46687957536619" y1="3.8089659190709142" x2="185.8986053300932" y2="19.731921545826054" />
    <line x1="200.65372894645151" y1="21.920637378708989" x2="194.41083864193539" y2="53.305766351612348" />
    <line x1="229.16788171949366" y1="30.570311058284403" x2="216.92201188381077" y2="60.134456098645586" />
    <line x1="210.79907696596933" y1="74.916528618826177" x2="204.6761420481279" y2="89.698601139006769" />
    <line x1="198.55320713028647" y1="104.48067365918736" x2="186.3073372946036" y2="134.04481869954853" />
    <line x1="264.33579914729319" y1="31.3131051331724" x2="255.44667541897954" y2="44.616618930013118" />
    <line x1="237.66842796235227" y1="71.223646523694569" x2="211.00105677741135" y2="111.13418791421674" />
    <line x1="267.42777919287414" y1="53.50241108886398" x2="257.2774866462558" y2="65.87057834266777" />
    <line x1="278.48023074035518" y1="63.519769259644775" x2="267.16652224137044" y2="74.833477758629527" />
    <line x1="244.53910524340094" y1="97.460894756599046" x2="221.91168824543144" y2="120.08831175456857" />
    <line x1="210.59797974644664" y1="131.40202025355333" x2="187.97056274847714" y2="154.02943725152286" />
    <line x1="288.497588911136" y1="74.572220807125888" x2="276.12942165733222" y2="84.722513353744219" />
    <line x1="310.68689486682763" y1="77.664200852706813" x2="297.38338106998685" y2="86.553324581020448" />
    <line x1="284.07986727314614" y1="95.442448309334083" x2="270.77635347630542" y2="104.33157203764773" />
    <line x1="257.4728396794647" y1="113.22069576596135" x2="244.16932588262398" y2="122.109819494275" />
    <line x1="305.05203218094994" y1="99.34769600244833" x2="290.94129195137629" y2="106.8900437916643" />
    <line x1="296.64761642153496" y1="118.95505319834778" x2="281.86554390135439" y2="125.07798811618922" />
    <line x1="252.30139886099323" y1="137.3238579518721" x2="237.51932634081265" y2="143.44679286971353" />
    <line x1="222.73725382063205" y1="149.56972778755497" x2="207.95518130045147" y2="155.6926627053964" />
    <line x1="316.45493103129576" y1="126.87672905732173" x2="301.14388565958041" y2="131.52128389339313" />
    <line x1="335.77192710774273" y1="138.22482590129044" x2="304.38679813483935" y2="144.46771620580654" />
    <line x1="288.69423364838764" y1="147.58916135806459" x2="241.61654018903261" y2="156.95349681483876" />
    <line x1="307" y1="171" x2="291" y2="171" />
    <line x1="259" y1="171" x2="227" y2="171" />
    <line x1="211" y1="171" x2="195" y2="171" />
    <line x1="320.079362621291" y1="200.65372894645148" x2="288.69423364838764" y2="194.41083864193539" />
    <line x1="257.30910467548426" y1="188.16794833741929" x2="241.61654018903261" y2="185.04650318516124" />
    <line x1="316.45493103129576" y1="215.12327094267823" x2="301.14388565958041" y2="210.47871610660684" />
    <line x1="326.21176146189617" y1="235.29081663733507" x2="311.4296889417156" y2="229.16788171949364" />
    <line x1="296.64761642153496" y1="223.0449468016522" x2="267.08347138117381" y2="210.79907696596933" />
    <line x1="252.30139886099323" y1="204.6761420481279" x2="237.51932634081265" y2="198.55320713028647" />
    <line x1="319.16277241052364" y1="250.19465178676762" x2="290.94129195137629" y2="235.10995620833569" />
    <line x1="310.68689486682763" y1="264.33579914729313" x2="297.38338106998691" y2="255.44667541897951" />
    <line x1="284.07986727314619" y1="246.55755169066586" x2="270.77635347630547" y2="237.66842796235224" />
    <line x1="288.49758891113606" y1="267.42777919287408" x2="276.12942165733227" y2="257.27748664625574" />
    <line x1="255.85281374238571" y1="255.85281374238571" x2="244.53910524340097" y2="244.53910524340094" />
    <line x1="233.22539674441617" y1="233.22539674441617" x2="187.97056274847714" y2="187.97056274847714" />
    <line x1="277.57807173949243" y1="300.86575616493985" x2="257.2774866462558" y2="276.12942165733222" />
    <line x1="255.44667541897954" y1="297.38338106998691" x2="246.55755169066589" y2="284.07986727314619" />
    <line x1="237.66842796235227" y1="270.77635347630542" x2="219.890180505725" y2="244.16932588262398" />
    <line x1="242.65230399755166" y1="305.05203218094994" x2="235.10995620833569" y2="290.94129195137629" />
    <line x1="235.2908166373351" y1="326.21176146189617" x2="229.16788171949366" y2="311.4296889417156" />
    <line x1="223.04494680165223" y1="296.64761642153496" x2="216.9220118838108" y2="281.86554390135439" />
    <line x1="210.79907696596933" y1="267.08347138117381" x2="198.55320713028647" y2="237.51932634081265" />
    <line x1="192.43027221244503" y1="222.73725382063205" x2="186.3073372946036" y2="207.95518130045147" />
    <line x1="203.77517409870961" y1="335.77192710774273" x2="200.65372894645154" y2="320.079362621291" />
    <line x1="194.41083864193544" y1="288.69423364838764" x2="188.16794833741932" y2="257.30910467548426" />
    <line x1="185.89860533009323" y1="322.26807845417392" x2="184.33033108482027" y2="306.34512282741878" />
    <line x1="171.00000000000003" y1="339" x2="171.00000000000003" y2="323" />
    <line x1="171.00000000000003" y1="307" x2="171.00000000000003" y2="291" />
    <line x1="171" y1="259" x2="171" y2="243" />
    <line x1="156.1013946699068" y1="322.268078454174" x2="157.66966891517976" y2="306.34512282741878" />
    <line x1="144.46771620580654" y1="304.38679813483935" x2="150.71060651032266" y2="273.001669161936" />
    <line x1="112.83211828050636" y1="311.4296889417156" x2="125.07798811618923" y2="281.86554390135444" />
    <line x1="131.20092303403067" y1="267.08347138117381" x2="137.3238579518721" y2="252.30139886099323" />
    <line x1="99.347696002448359" y1="305.05203218094994" x2="106.89004379166433" y2="290.94129195137629" />
    <line x1="86.5533245810205" y1="297.38338106998691" x2="95.442448309334139" y2="284.07986727314619" />
    <line x1="104.33157203764776" y1="270.77635347630547" x2="113.2206957659614" y2="257.47283967946476" />
    <line x1="122.10981949427503" y1="244.16932588262398" x2="130.99894322258865" y2="230.86581208578326" />
    <line x1="64.4219282605076" y1="300.86575616493985" x2="74.572220807125916" y2="288.49758891113606" />
    <line x1="97.46089475659906" y1="244.53910524340097" x2="131.40202025355336" y2="210.59797974644667" />
    <line x1="142.7157287525381" y1="199.2842712474619" x2="154.02943725152286" y2="187.97056274847714" />
    <line x1="31.3131051331724" y1="264.33579914729319" x2="71.223646523694569" y2="237.66842796235227" />
    <line x1="97.83067411737602" y1="219.890180505725" x2="111.13418791421674" y2="211.00105677741135" />
    <line x1="30.57031105828446" y1="229.16788171949372" x2="45.352383578465037" y2="223.04494680165229" />
    <line x1="60.134456098645614" y1="216.92201188381085" x2="89.698601139006783" y2="204.67614204812796" />
    <line x1="10.234023596988919" y1="219.76782577874968" x2="25.545068968704271" y2="215.12327094267829" />
    <line x1="21.920637378708989" y1="200.65372894645157" x2="53.305766351612363" y2="194.41083864193544" />
    <line x1="68.998330838064049" y1="191.28939348967737" x2="100.38345981096742" y2="185.04650318516127" />
    <line x1="51" y1="171.00000000000003" x2="67" y2="171.00000000000003" />
    <line x1="83" y1="171.00000000000003" x2="99" y2="171" />
    <line x1="3.8089659190709142" y1="154.53312042463389" x2="19.731921545826054" y2="156.10139466990688" />
    <line x1="21.920637378708989" y1="141.34627105354849" x2="53.305766351612348" y2="147.58916135806462" />
    <line x1="60.1344560986456" y1="125.0779881161892" x2="74.916528618826192" y2="131.20092303403064" />
    <line x1="36.947967819050035" y1="99.347696002448373" x2="51.058708048623714" y2="106.89004379166433" />
    <line x1="57.920132726853822" y1="95.442448309334154" x2="71.223646523694541" y2="104.33157203764777" />
    <line x1="84.527160320535273" y1="113.22069576596141" x2="111.13418791421672" y2="130.99894322258865" />
    <line x1="63.519769259644747" y1="63.519769259644804" x2="74.833477758629513" y2="74.833477758629556" />
    <line x1="97.460894756599046" y1="97.460894756599075" x2="108.7746032555838" y2="108.77460325558383" />
    <line x1="64.421928260507485" y1="41.134243835060232" x2="74.572220807125817" y2="53.502411088864022" />
    <line x1="86.553324581020462" y1="44.616618930013118" x2="95.442448309334111" y2="57.920132726853851" />
    <line x1="104.33157203764773" y1="71.223646523694569" x2="113.22069576596138" y2="84.5271603205353" />
    <line x1="118.95505319834771" y1="45.352383578465037" x2="125.07798811618915" y2="60.134456098645614" />
    <line x1="131.20092303403061" y1="74.9165286188262" x2="149.56972778755494" y2="119.26274617936795" />
    <line x1="126.8767290573217" y1="25.545068968704271" x2="131.5212838933931" y2="40.856114340419595" />
    <line x1="144.46771620580648" y1="37.613201865160676" x2="156.95349681483873" y2="100.38345981096742" />
  </g>
  <path fill="none" stroke="#ff0000" stroke-width="2" stroke-linecap="square" stroke-linejoin="round" d="M 179.24336928700623,3.2023633575310271 L 178.85082789238689,11.192727007172408 A 160,160 0 0,0 75.688111281210681,42.4867949630968 L 85.21930015308962,55.338115466787116 A 144,144 0 0,0 74.295510502029316,64.30303794888593 L 63.550567224477007,52.447819943206582 A 160,160 0 0,0 42.48679496309677,75.688111281210738 L 55.338115466787087,85.219300153089662 A 144,144 0 0,1 64.303037948885887,74.295510502029359 L 76.158255954565234,85.040453779581654 A 128,128 0 0,1 89.797659627053321,72.054661969569707 L 99.947952173671652,84.4228292233735 A 112,112 0 0,0 84.422829223373469,99.9479521736717 L 109.15916373098105,120.24853726690836 A 80,80 0 0,1 133.28826105392017,100.44629885213161 L 140.83060884313613,114.55703908170528 A 64,64 0 0,0 121.52733098478485,211.60117018647333 L 84.4228292233735,242.05204782632833 A 112,112 0 0,0 99.947952173671723,257.57717077662653 L 89.7976596270534,269.94533803043032 A 128,128 0 0,0 110.6612176862723,283.88592183658943 L 118.20356547548826,269.77518160701578 A 112,112 0 0,0 138.48811614750025,278.17731760200741 L 133.84356131142886,293.48836297372276 A 128,128 0 0,1 127.87809876579583,291.51764034342665 L 122.48786111152032,306.582345386355 A 144,144 0 0,0 149.87081167842794,313.44141743492844 L 147.52312408714215,329.26824159436495 A 160,160 0 0,0 163.14917210761317,330.80727299282762 L 164.71933768609054,298.8458183942621 A 128,128 0 0,1 158.45380603781624,298.38364501404124 L 160.02208028308922,282.46068938728604 A 112,112 0 0,0 181.9779197169108,282.46068938728604 L 180.40964547163785,266.5377337605309 A 96,96 0 0,1 143.13267098357164,262.86627223029205 L 147.77722581964304,247.5552268585767 A 80,80 0 0,1 133.2882610539202,241.55370114786842 L 125.74591326470423,255.66444137744207 A 96,96 0 0,1 110.09824472029005,245.20900352282277 L 130.3988298135267,220.47266901521516 A 64,64 0 0,0 206.55649491325454,224.2140551873629 L 188.77824745662727,197.60702759368144 A 32,32 0 0,1 158.75413016431713,200.56414504036118 L 161.81559762323786,193.17310878027089" />
  <type>Circular</type>
</svg>