<?xml version="1.0" encoding="utf-8" standalone="no"?>
<!DOCTYPE svg PUBLIC "-//W3C//DTD SVG 1.1//EN" "http://www.w3.org/Graphics/SVG/1.1/DTD/svg11.dtd"[]>
<svg width="340" height="340" version="1.1" xmlns="http://www.w3.org/2000/svg">
  <title>21 cells diameter theta maze</title>
  <g fill="none" stroke="#000000" stroke-width="2" stroke-linecap="square">
    <path d="M 154.02943725152286,187.97056274847714 A 24,24 0 1,1 171,195" />
    <path d="M 142.7157287525381,142.7157287525381 A 40,40 0 1,1 142.7157287525381,199.2842712474619" />
    <path d="M 134.04481869954853,186.3073372946036 A 40,40 0 0,1 134.04481869954853,155.6926627053964" />
    <path d="M 149.56972778755494,119.26274617936795 A 56,56 0 0,1 192.43027221244503,119.26274617936795" />
    <path d="M 210.59797974644667,131.40202025355333 A 56,56 0 0,1 210.59797974644667,210.59797974644664" />
    <path d="M 171,227 A 56,56 0 0,1 149.569727787555,222.73725382063208" />
    <path d="M 131.40202025355336,210.59797974644667 A 56,56 0 0,1 119.26274617936795,192.43027221244506" />
    <path d="M 171,99 A 72,72 0 0,1 230.86581208578326,130.99894322258865" />
    <path d="M 230.86581208578326,211.00105677741135 A 72,72 0 0,1 185.04650318516127,241.61654018903261" />
    <path d="M 171,243 A 72,72 0 0,1 156.95349681483876,241.61654018903261" />
    <path d="M 143.44679286971353,237.51932634081265 A 72,72 0 0,1 100.38345981096741,156.95349681483876" />
    <path d="M 104.48067365918736,143.44679286971353 A 72,72 0 0,1 156.95349681483873,100.38345981096741" />
    <path d="M 204.6761420481279,89.698601139006769 A 88,88 0 0,1 219.890180505725,97.83067411737602" />
    <path d="M 252.30139886099323,137.3238579518721 A 88,88 0 0,1 257.30910467548426,188.16794833741929" />
    <path d="M 233.22539674441617,233.22539674441617 A 88,88 0 0,1 171,259" />
    <path d="M 153.83205166258071,257.30910467548426 A 88,88 0 0,1 137.32385795187213,252.30139886099323" />
    <path d="M 108.77460325558383,233.2253967444162 A 88,88 0 0,1 97.83067411737602,219.890180505725" />
    <path d="M 89.698601139006783,204.67614204812796 A 88,88 0 0,1 83,171.00000000000003" />
    <path d="M 84.690895324515722,153.83205166258071 A 88,88 0 0,1 97.830674117375992,122.10981949427503" />
    <path d="M 122.109819494275,97.83067411737602 A 88,88 0 0,1 137.32385795187204,89.698601139006783" />
    <path d="M 131.20092303403061,74.9165286188262 A 104,104 0 0,1 171,67" />
    <path d="M 191.28939348967734,68.998330838064035 A 104,104 0 0,1 267.08347138117381,131.20092303403067" />
    <path d="M 275,171 A 104,104 0 0,1 273.001669161936,191.28939348967734" />
    <path d="M 267.08347138117381,210.79907696596933 A 104,104 0 0,1 244.53910524340097,244.53910524340094" />
    <path d="M 210.79907696596933,267.08347138117381 A 104,104 0 0,1 191.28939348967737,273.001669161936" />
    <path d="M 171,275 A 104,104 0 0,1 150.71060651032266,273.001669161936" />
    <path d="M 97.460894756599075,244.53910524340097 A 104,104 0 0,1 113.22069576596137,84.5271603205353" />
    <path d="M 147.58916135806456,53.305766351612363 A 120,120 0 0,1 171,51" />
    <path d="M 194.41083864193539,53.305766351612348 A 120,120 0 0,1 216.92201188381077,60.134456098645586" />
    <path d="M 288.69423364838764,147.58916135806459 A 120,120 0 0,1 291,171" />
    <path d="M 288.69423364838764,194.41083864193539 A 120,120 0 0,1 270.77635347630542,237.66842796235224" />
    <path d="M 237.66842796235227,270.77635347630542 A 120,120 0 0,1 216.9220118838108,281.86554390135439" />
    <path d="M 147.58916135806459,288.69423364838764 A 120,120 0 0,1 104.33157203764777,270.77635347630547" />
    <path d="M 53.305766351612348,194.41083864193544 A 120,120 0 0,1 51,171.00000000000003" />
    <path d="M 53.305766351612348,147.58916135806462 A 120,120 0 0,1 125.07798811618915,60.134456098645614" />
    <path d="M 171,35 A 136,136 0 0,1 184.33033108482024,35.654877172581223" />
    <path d="M 197.53228379419343,37.613201865160647 A 136,136 0 0,1 210.4787161066069,40.856114340419595" />
    <path d="M 223.0449468016522,45.352383578464995 A 136,136 0 0,1 284.07986727314614,95.4424483093341" />
    <path d="M 290.94129195137629,106.8900437916643 A 136,136 0 0,1 301.14388565958041,131.52128389339313" />
    <path d="M 304.38679813483935,144.46771620580654 A 136,136 0 0,1 306.34512282741878,157.66966891517973" />
    <path d="M 307,171 A 136,136 0 0,1 304.38679813483935,197.53228379419343" />
    <path d="M 301.14388565958041,210.47871610660687 A 136,136 0 0,1 296.647616421535,223.0449468016522" />
    <path d="M 290.94129195137629,235.10995620833569 A 136,136 0 0,1 267.16652224137044,267.16652224137044" />
    <path d="M 257.2774866462558,276.12942165733222 A 136,136 0 0,1 246.55755169066589,284.07986727314619" />
    <path d="M 235.10995620833569,290.94129195137629 A 136,136 0 0,1 184.33033108482027,306.34512282741878" />
    <path d="M 171.00000000000003,307 A 136,136 0 0,1 106.89004379166433,290.94129195137629" />
    <path d="M 95.442448309334139,284.07986727314619 A 136,136 0 0,1 57.920132726853836,246.55755169066589" />
    <path d="M 51.058708048623728,235.10995620833572 A 136,136 0 0,1 40.856114340419595,131.52128389339316" />
    <path d="M 51.058708048623714,106.89004379166433 A 136,136 0 0,1 74.833477758629513,74.833477758629556" />
    <path d="M 84.722513353744148,65.870578342667827 A 136,136 0 0,1 118.95505319834771,45.352383578465037" />
    <path d="M 131.5212838933931,40.856114340419595 A 136,136 0 0,1 157.66966891517978,35.654877172581223" />
    <path d="M 141.34627105354844,21.920637378708989 A 152,152 0 0,1 171,19" />
    <path d="M 185.8986053300932,19.731921545826083 A 152,152 0 0,1 200.65372894645151,21.92063737870896" />
    <path d="M 215.12327094267829,25.545068968704243 A 152,152 0 0,1 255.44667541897954,44.616618930013118" />
    <path d="M 267.42777919287414,53.50241108886398 A 152,152 0 0,1 278.48023074035524,63.519769259644775" />
    <path d="M 288.497588911136,74.572220807125873 A 152,152 0 0,1 320.079362621291,141.34627105354849" />
    <path d="M 323,171 A 152,152 0 0,1 316.45493103129576,215.12327094267826" />
    <path d="M 311.4296889417156,229.16788171949364 A 152,152 0 0,1 305.05203218094994,242.65230399755166" />
    <path d="M 288.49758891113606,267.42777919287408 A 152,152 0 0,1 267.42777919287414,288.497588911136" />
    <path d="M 255.44667541897951,297.38338106998685 A 152,152 0 0,1 242.65230399755166,305.05203218094994" />
    <path d="M 215.12327094267829,316.45493103129576 A 152,152 0 0,1 200.65372894645154,320.079362621291" />
    <path d="M 185.89860533009323,322.26807845417392 A 152,152 0 0,1 171.00000000000003,323" />
    <path d="M 156.1013946699068,322.26807845417392 A 152,152 0 0,1 112.83211828050636,311.4296889417156" />
    <path d="M 99.347696002448359,305.05203218094994 A 152,152 0 0,1 74.572220807125916,288.49758891113606" />
    <path d="M 63.519769259644789,278.48023074035524 A 152,152 0 0,1 53.502411088864022,267.42777919287414" />
    <path d="M 44.616618930013118,255.44667541897951 A 152,152 0 0,1 30.57031105828446,229.16788171949372" />
    <path d="M 21.920637378708989,200.65372894645157 A 152,152 0 0,1 19.731921545826083,185.89860533009318" />
    <path d="M 25.545068968704243,126.87672905732177 A 152,152 0 0,1 30.570311058284432,112.83211828050632" />
    <path d="M 53.502411088863994,74.572220807125873 A 152,152 0 0,1 74.572220807125817,53.502411088864037" />
    <path d="M 86.553324581020462,44.616618930013118 A 152,152 0 0,1 99.347696002448316,36.947967819050064" />
    <path d="M 112.83211828050625,30.57031105828446 A 152,152 0 0,1 126.87672905732171,25.545068968704271" />
    <path d="M 187.46687957536619,3.8089659190709142 A 168,168 0 1,1 171,3" />
  </g>
  <g fill="none" stroke="#000000" stroke-width="2" stroke-linecap="butt">
    <line x1="171" y1="35" x2="171" y2="51" />
    <line x1="171" y1="83" x2="171" y2="99" />
    <line x1="185.8986053300932" y1="19.731921545826054" x2="184.33033108482024" y2="35.654877172581223" />
    <line x1="191.28939348967734" y1="68.998330838064035" x2="188.16794833741929" y2="84.690895324515722" />
    <line x1="215.12327094267829" y1="25.545068968704271" x2="210.47871610660687" y2="40.856114340419595" />
    <line x1="223.0449468016522" y1="45.352383578465009" x2="216.92201188381077" y2="60.134456098645586" />
    <line x1="204.6761420481279" y1="89.698601139006769" x2="192.43027221244503" y2="119.26274617936795" />
    <line x1="255.44667541897954" y1="44.616618930013118" x2="246.55755169066589" y2="57.920132726853851" />
    <line x1="237.66842796235227" y1="71.223646523694569" x2="228.77930423403862" y2="84.5271603205353" />
    <line x1="289.79393923934" y1="52.206060760660009" x2="278.48023074035518" y2="63.519769259644775" />
    <line x1="255.85281374238571" y1="86.1471862576143" x2="233.22539674441617" y2="108.77460325558381" />
    <line x1="210.59797974644664" y1="131.40202025355333" x2="199.2842712474619" y2="142.7157287525381" />
    <line x1="288.497588911136" y1="74.572220807125888" x2="276.12942165733222" y2="84.722513353744219" />
    <line x1="270.77635347630542" y1="104.33157203764773" x2="230.86581208578326" y2="130.99894322258865" />
    <line x1="296.64761642153496" y1="118.95505319834778" x2="267.08347138117381" y2="131.20092303403067" />
    <line x1="252.30139886099323" y1="137.3238579518721" x2="222.73725382063205" y2="149.56972778755497" />
    <line x1="316.45493103129576" y1="126.87672905732173" x2="301.14388565958041" y2="131.52128389339313" />
    <line x1="304.38679813483935" y1="144.46771620580654" x2="241.61654018903261" y2="156.95349681483876" />
    <line x1="338.19103408092906" y1="154.53312042463378" x2="306.34512282741878" y2="157.66966891517973" />
    <line x1="323" y1="171" x2="307" y2="171" />
    <line x1="291" y1="171" x2="275" y2="171" />
    <line x1="243" y1="171" x2="227" y2="171" />
    <line x1="257.30910467548426" y1="188.16794833741929" x2="241.61654018903261" y2="185.04650318516124" />
    <line x1="316.45493103129576" y1="215.12327094267823" x2="301.14388565958041" y2="210.47871610660684" />
    <line x1="296.64761642153496" y1="223.0449468016522" x2="267.08347138117381" y2="210.79907696596933" />
    <line x1="252.30139886099323" y1="204.6761420481279" x2="222.73725382063205" y2="192.43027221244503" />
    <line x1="305.05203218094994" y1="242.65230399755166" x2="290.94129195137629" y2="235.10995620833569" />
    <line x1="310.68689486682763" y1="264.33579914729313" x2="297.38338106998691" y2="255.44667541897951" />
    <line x1="257.47283967946476" y1="228.77930423403859" x2="230.86581208578326" y2="211.00105677741135" />
    <line x1="267.16652224137044" y1="267.16652224137044" x2="244.53910524340097" y2="244.53910524340094" />
    <line x1="267.42777919287414" y1="288.497588911136" x2="257.2774866462558" y2="276.12942165733222" />
    <line x1="264.33579914729319" y1="310.68689486682763" x2="255.44667541897954" y2="297.38338106998691" />
    <line x1="246.55755169066589" y1="284.07986727314619" x2="219.890180505725" y2="244.16932588262398" />
    <line x1="242.65230399755166" y1="305.05203218094994" x2="235.10995620833569" y2="290.94129195137629" />
    <line x1="235.2908166373351" y1="326.21176146189617" x2="229.16788171949366" y2="311.4296889417156" />
    <line x1="198.55320713028647" y1="237.51932634081265" x2="186.3073372946036" y2="207.95518130045147" />
    <line x1="203.77517409870961" y1="335.77192710774273" x2="200.65372894645154" y2="320.079362621291" />
    <line x1="197.53228379419349" y1="304.38679813483935" x2="191.28939348967737" y2="273.001669161936" />
    <line x1="188.16794833741932" y1="257.30910467548426" x2="185.04650318516127" y2="241.61654018903261" />
    <line x1="185.89860533009323" y1="322.26807845417392" x2="184.33033108482027" y2="306.34512282741878" />
    <line x1="171.00000000000003" y1="307" x2="171.00000000000003" y2="291" />
    <line x1="171" y1="275" x2="171" y2="259" />
    <line x1="171" y1="227" x2="171" y2="211" />
    <line x1="156.1013946699068" y1="322.268078454174" x2="157.66966891517976" y2="306.34512282741878" />
    <line x1="147.58916135806459" y1="288.69423364838764" x2="156.95349681483876" y2="241.61654018903261" />
    <line x1="125.07798811618923" y1="281.86554390135444" x2="131.20092303403067" y2="267.08347138117381" />
    <line x1="143.44679286971353" y1="237.51932634081265" x2="149.56972778755497" y2="222.73725382063208" />
    <line x1="99.347696002448359" y1="305.05203218094994" x2="106.89004379166433" y2="290.94129195137629" />
    <line x1="113.2206957659614" y1="257.47283967946476" x2="130.99894322258865" y2="230.86581208578326" />
    <line x1="64.4219282605076" y1="300.86575616493985" x2="74.572220807125916" y2="288.49758891113606" />
    <line x1="63.519769259644789" y1="278.48023074035524" x2="86.147186257614308" y2="255.85281374238571" />
    <line x1="142.7157287525381" y1="199.2842712474619" x2="154.02943725152286" y2="187.97056274847714" />
    <line x1="41.134243835060232" y1="277.57807173949254" x2="53.502411088864022" y2="267.4277791928742" />
    <line x1="71.223646523694569" y1="237.66842796235227" x2="97.83067411737602" y2="219.890180505725" />
    <line x1="15.788238538103855" y1="235.29081663733518" x2="30.57031105828446" y2="229.16788171949372" />
    <line x1="45.352383578465037" y1="223.04494680165229" x2="60.134456098645614" y2="216.92201188381085" />
    <line x1="74.9165286188262" y1="210.79907696596939" x2="104.48067365918737" y2="198.5532071302865" />
    <line x1="119.26274617936795" y1="192.43027221244506" x2="134.04481869954856" y2="186.3073372946036" />
    <line x1="10.234023596988919" y1="219.76782577874968" x2="40.856114340419595" y2="210.4787161066069" />
    <line x1="53.305766351612363" y1="194.41083864193544" x2="68.998330838064049" y2="191.28939348967737" />
    <line x1="3.8089659190709142" y1="187.46687957536616" x2="19.731921545826054" y2="185.89860533009318" />
    <line x1="19" y1="171.00000000000003" x2="35" y2="171.00000000000003" />
    <line x1="99" y1="171" x2="115" y2="171" />
    <line x1="131" y1="171" x2="147" y2="171" />
    <line x1="3.8089659190709142" y1="154.53312042463389" x2="19.731921545826054" y2="156.10139466990688" />
    <line x1="21.920637378708989" y1="141.34627105354849" x2="37.613201865160647" y2="144.46771620580654" />
    <line x1="10.234023596988891" y1="122.23217422125038" x2="25.545068968704243" y2="126.87672905732177" />
    <line x1="30.570311058284432" y1="112.83211828050632" x2="60.1344560986456" y2="125.0779881161892" />
    <line x1="74.916528618826192" y1="131.20092303403064" x2="89.698601139006783" y2="137.32385795187207" />
    <line x1="104.48067365918736" y1="143.44679286971353" x2="134.04481869954853" y2="155.6926627053964" />
    <line x1="36.947967819050035" y1="99.347696002448373" x2="51.058708048623714" y2="106.89004379166433" />
    <line x1="31.313105133172371" y1="77.664200852706884" x2="57.920132726853822" y2="95.442448309334154" />
    <line x1="97.460894756599046" y1="97.460894756599075" x2="108.7746032555838" y2="108.77460325558383" />
    <line x1="131.40202025355333" y1="131.40202025355336" x2="142.7157287525381" y2="142.7157287525381" />
    <line x1="74.572220807125817" y1="53.502411088864022" x2="84.722513353744148" y2="65.870578342667812" />
    <line x1="95.442448309334111" y1="57.920132726853851" x2="104.33157203764773" y2="71.223646523694569" />
    <line x1="122.109819494275" y1="97.83067411737602" x2="130.99894322258865" y2="111.13418791421674" />
    <line x1="91.80534821323235" y1="22.837227589476385" x2="99.347696002448316" y2="36.947967819050064" />
    <line x1="112.83211828050625" y1="30.57031105828446" x2="118.95505319834771" y2="45.352383578465037" />
    <line x1="131.20092303403061" y1="74.9165286188262" x2="137.32385795187204" y2="89.698601139006783" />
    <line x1="143.44679286971348" y1="104.48067365918737" x2="149.56972778755494" y2="119.26274617936795" />
    <line x1="126.8767290573217" y1="25.545068968704271" x2="131.5212838933931" y2="40.856114340419595" />
    <line x1="144.46771620580648" y1="37.613201865160676" x2="147.58916135806456" y2="53.305766351612363" />
    <line x1="153.83205166258068" y1="84.690895324515736" x2="156.95349681483873" y2="100.38345981096742" />
    <line x1="156.1013946699068" y1="19.731921545826054" x2="157.66966891517978" y2="35.654877172581223" />
  </g>
  <path fill="none" stroke="#ff0000" stroke-width="2" stroke-linecap="square" stroke-linejoin="round" d="M 179.24336928700623,3.2023633575310271 L 178.85082789238689,11.192727007172408 A 160,160 0 0,1 266.31188871878931,42.486794963096827 L 256.78069984691041,55.33811546678713 A 144,144 0 0,1 277.6969620511141,74.295510502029359 L 289.55218005679347,63.550567224477064 A 160,160 0 0,1 329.26824159436495,147.52312408714212 L 313.44141743492844,149.87081167842791 A 144,144 0 0,0 310.68450046001431,136.01085409393 L 295.16400040890164,139.8985369723822 A 128,128 0 0,0 293.48836297372276,133.84356131142883 L 262.86627223029205,143.13267098357161 A 96,96 0 0,0 255.66444137744207,125.74591326470421 L 227.44296091829472,140.83060884313613 A 64,64 0 0,0 206.55649491325454,117.7859448126371 L 197.66737118494092,131.08945860947785 A 48,48 0 0,0 144.33262881505908,131.08945860947785 L 135.44350508674546,117.7859448126371 A 64,64 0 0,0 117.7859448126371,135.44350508674549 L 144.39297240631854,153.22175254337273 A 32,32 0 1,1 158.75413016431713,200.56414504036118 L 161.81559762323786,193.17310878027089" />
  <type>Circular</type>
</svg>