<?xml version="1.0" encoding="utf-8" standalone="no"?>
<!DOCTYPE svg PUBLIC "-//W3C//DTD SVG 1.1//EN" "http://www.w3.org/Graphics/SVG/1.1/DTD/svg11.dtd"[]>
<svg width="340" height="340" version="1.1" xmlns="http://www.w3.org/2000/svg">
  <title>21 cells diameter theta maze</title>
  <g fill="none" stroke="#000000" stroke-width="2" stroke-linecap="square">
    <path d="M 154.02943725152286,187.97056274847714 A 24,24 0 1,1 171,195" />
    <path d="M 142.7157287525381,199.2842712474619 A 40,40 0 0,1 171,131" />
    <path d="M 186.3073372946036,134.04481869954853 A 40,40 0 0,1 207.95518130045147,155.6926627053964" />
    <path d="M 211,171 A 40,40 0 0,1 207.95518130045147,186.3073372946036" />
    <path d="M 199.2842712474619,199.2842712474619 A 40,40 0 0,1 186.3073372946036,207.95518130045147" />
    <path d="M 171,211 A 40,40 0 0,1 155.6926627053964,207.95518130045147" />
    <path d="M 149.56972778755494,119.26274617936795 A 56,56 0 0,1 171,115" />
    <path d="M 192.43027221244503,119.26274617936795 A 56,56 0 0,1 227,171" />
    <path d="M 222.73725382063208,192.43027221244503 A 56,56 0 0,1 210.59797974644667,210.59797974644664" />
    <path d="M 192.43027221244503,222.73725382063205 A 56,56 0 0,1 171,227" />
    <path d="M 149.569727787555,222.73725382063208 A 56,56 0 0,1 115,171" />
    <path d="M 119.26274617936795,149.56972778755497 A 56,56 0 0,1 131.40202025355333,131.40202025355336" />
    <path d="M 171,99 A 72,72 0 0,1 185.04650318516124,100.38345981096741" />
    <path d="M 211.00105677741135,111.13418791421674 A 72,72 0 0,1 221.91168824543144,120.08831175456858" />
    <path d="M 230.86581208578326,130.99894322258865 A 72,72 0 0,1 185.04650318516127,241.61654018903261" />
    <path d="M 171,243 A 72,72 0 0,1 143.44679286971353,237.51932634081265" />
    <path d="M 130.99894322258865,230.86581208578326 A 72,72 0 0,1 120.08831175456859,221.91168824543144" />
    <path d="M 111.13418791421674,211.00105677741135 A 72,72 0 0,1 100.38345981096741,185.04650318516127" />
    <path d="M 99,171 A 72,72 0 0,1 143.44679286971348,104.48067365918737" />
    <path d="M 188.16794833741929,84.690895324515722 A 88,88 0 0,1 204.6761420481279,89.698601139006769" />
    <path d="M 233.22539674441617,108.77460325558381 A 88,88 0 0,1 259,171" />
    <path d="M 252.30139886099323,204.6761420481279 A 88,88 0 0,1 244.16932588262398,219.89018050572497" />
    <path d="M 219.89018050572497,244.16932588262398 A 88,88 0 0,1 204.6761420481279,252.30139886099323" />
    <path d="M 188.16794833741932,257.30910467548426 A 88,88 0 0,1 171,259" />
    <path d="M 137.32385795187213,252.30139886099323 A 88,88 0 0,1 97.83067411737602,219.890180505725" />
    <path d="M 89.698601139006783,204.67614204812796 A 88,88 0 0,1 153.83205166258068,84.690895324515722" />
    <path d="M 68.998330838064035,150.71060651032266 A 104,104 0 0,1 171,67" />
    <path d="M 191.28939348967734,68.998330838064035 A 104,104 0 0,1 228.77930423403862,84.527160320535288" />
    <path d="M 244.53910524340094,97.46089475659906 A 104,104 0 0,1 257.4728396794647,113.22069576596137" />
    <path d="M 273.001669161936,150.71060651032266 A 104,104 0 0,1 267.08347138117381,210.79907696596933" />
    <path d="M 257.47283967946476,228.77930423403859 A 104,104 0 0,1 228.77930423403862,257.4728396794647" />
    <path d="M 210.79907696596933,267.08347138117381 A 104,104 0 0,1 191.28939348967737,273.001669161936" />
    <path d="M 171,275 A 104,104 0 0,1 150.71060651032266,273.001669161936" />
    <path d="M 131.20092303403067,267.08347138117381 A 104,104 0 0,1 97.460894756599075,244.53910524340097" />
    <path d="M 104.33157203764773,71.223646523694569 A 120,120 0 0,1 194.41083864193539,53.305766351612348" />
    <path d="M 237.66842796235227,71.223646523694569 A 120,120 0 0,1 255.85281374238571,86.1471862576143" />
    <path d="M 270.77635347630542,104.33157203764773 A 120,120 0 0,1 291,171" />
    <path d="M 281.86554390135439,216.92201188381077 A 120,120 0 0,1 270.77635347630542,237.66842796235224" />
    <path d="M 194.41083864193544,288.69423364838764 A 120,120 0 0,1 171.00000000000003,291" />
    <path d="M 147.58916135806459,288.69423364838764 A 120,120 0 0,1 125.07798811618925,281.86554390135439" />
    <path d="M 60.134456098645614,216.92201188381085 A 120,120 0 0,1 86.14718625761428,86.147186257614322" />
    <path d="M 171,35 A 136,136 0 0,1 257.2774866462558,65.87057834266777" />
    <path d="M 276.12942165733222,84.7225133537442 A 136,136 0 0,1 284.07986727314614,95.4424483093341" />
    <path d="M 290.94129195137629,106.8900437916643 A 136,136 0 0,1 304.38679813483935,144.46771620580654" />
    <path d="M 306.34512282741878,157.66966891517973 A 136,136 0 0,1 301.14388565958041,210.47871610660687" />
    <path d="M 276.12942165733227,257.27748664625574 A 136,136 0 0,1 210.4787161066069,301.14388565958041" />
    <path d="M 184.33033108482027,306.34512282741878 A 136,136 0 0,1 131.52128389339316,301.14388565958041" />
    <path d="M 118.9550531983478,296.647616421535 A 136,136 0 0,1 95.442448309334139,284.07986727314619" />
    <path d="M 84.722513353744233,276.12942165733227 A 136,136 0 0,1 57.920132726853836,246.55755169066589" />
    <path d="M 51.058708048623728,235.10995620833572 A 136,136 0 0,1 45.352383578465037,223.04494680165229" />
    <path d="M 40.856114340419595,210.4787161066069 A 136,136 0 0,1 35.654877172581223,184.33033108482022" />
    <path d="M 35.654877172581223,157.66966891517984 A 136,136 0 0,1 37.613201865160647,144.46771620580654" />
    <path d="M 40.856114340419595,131.52128389339316 A 136,136 0 0,1 45.352383578465009,118.95505319834777" />
    <path d="M 51.058708048623714,106.89004379166433 A 136,136 0 0,1 65.870578342667784,84.7225133537442" />
    <path d="M 74.833477758629513,74.833477758629556 A 136,136 0 0,1 106.89004379166428,51.058708048623743" />
    <path d="M 131.5212838933931,40.856114340419595 A 136,136 0 0,1 157.66966891517978,35.654877172581223" />
    <path d="M 171,19 A 152,152 0 0,1 185.8986053300932,19.731921545826083" />
    <path d="M 200.65372894645151,21.92063737870896 A 152,152 0 0,1 215.12327094267829,25.545068968704243" />
    <path d="M 242.65230399755166,36.947967819050035 A 152,152 0 0,1 278.48023074035524,63.519769259644775" />
    <path d="M 288.497588911136,74.572220807125873 A 152,152 0 0,1 316.45493103129576,126.87672905732174" />
    <path d="M 322.26807845417392,185.89860533009323 A 152,152 0 0,1 320.079362621291,200.65372894645148" />
    <path d="M 305.05203218094994,242.65230399755166 A 152,152 0 0,1 229.16788171949366,311.42968894171554" />
    <path d="M 215.12327094267829,316.45493103129576 A 152,152 0 0,1 200.65372894645154,320.079362621291" />
    <path d="M 156.1013946699068,322.26807845417392 A 152,152 0 0,1 112.83211828050636,311.4296889417156" />
    <path d="M 99.347696002448359,305.05203218094994 A 152,152 0 0,1 86.5533245810205,297.38338106998691" />
    <path d="M 74.572220807125916,288.49758891113606 A 152,152 0 0,1 53.502411088864022,267.42777919287414" />
    <path d="M 44.616618930013118,255.44667541897951 A 152,152 0 0,1 36.947967819050064,242.65230399755168" />
    <path d="M 30.57031105828446,229.16788171949372 A 152,152 0 0,1 25.545068968704243,215.12327094267829" />
    <path d="M 19.731921545826083,185.89860533009318 A 152,152 0 0,1 25.545068968704243,126.87672905732177" />
    <path d="M 36.947967819050035,99.347696002448373 A 152,152 0 0,1 44.61661893001309,86.553324581020519" />
    <path d="M 63.519769259644747,63.519769259644804 A 152,152 0 0,1 86.553324581020462,44.616618930013118" />
    <path d="M 141.34627105354844,21.920637378708989 A 152,152 0 0,1 156.1013946699068,19.731921545826083" />
    <path d="M 187.46687957536619,3.8089659190709142 A 168,168 0 1,1 171,3" />
  </g>
  <g fill="none" stroke="#000000" stroke-width="2" stroke-linecap="butt">
    <line x1="171" y1="19" x2="171" y2="35" />
    <line x1="171" y1="67" x2="171" y2="115" />
    <line x1="187.46687957536619" y1="3.8089659190709142" x2="185.8986053300932" y2="19.731921545826054" />
    <line x1="191.28939348967734" y1="68.998330838064035" x2="188.16794833741929" y2="84.690895324515722" />
    <line x1="215.12327094267829" y1="25.545068968704271" x2="210.47871610660687" y2="40.856114340419595" />
    <line x1="235.29081663733507" y1="15.788238538103826" x2="229.16788171949366" y2="30.570311058284403" />
    <line x1="223.0449468016522" y1="45.352383578465009" x2="210.79907696596933" y2="74.916528618826177" />
    <line x1="204.6761420481279" y1="89.698601139006769" x2="198.55320713028647" y2="104.48067365918736" />
    <line x1="192.43027221244503" y1="119.26274617936795" x2="186.3073372946036" y2="134.04481869954853" />
    <line x1="242.65230399755166" y1="36.947967819050035" x2="235.10995620833569" y2="51.058708048623714" />
    <line x1="228.77930423403862" y1="84.5271603205353" x2="211.00105677741135" y2="111.13418791421674" />
    <line x1="278.48023074035518" y1="63.519769259644775" x2="244.53910524340094" y2="97.460894756599046" />
    <line x1="233.22539674441617" y1="108.77460325558381" x2="210.59797974644664" y2="131.40202025355333" />
    <line x1="284.07986727314614" y1="95.442448309334083" x2="270.77635347630542" y2="104.33157203764773" />
    <line x1="296.64761642153496" y1="118.95505319834778" x2="252.30139886099323" y2="137.3238579518721" />
    <line x1="331.76597640301111" y1="122.23217422125032" x2="316.45493103129576" y2="126.87672905732173" />
    <line x1="320.079362621291" y1="141.34627105354849" x2="304.38679813483935" y2="144.46771620580654" />
    <line x1="322.26807845417392" y1="156.10139466990677" x2="306.34512282741878" y2="157.66966891517973" />
    <line x1="339" y1="171" x2="323" y2="171" />
    <line x1="307" y1="171" x2="291" y2="171" />
    <line x1="275" y1="171" x2="259" y2="171" />
    <line x1="227" y1="171" x2="211" y2="171" />
    <line x1="335.77192710774273" y1="203.77517409870953" x2="320.079362621291" y2="200.65372894645148" />
    <line x1="288.69423364838764" y1="194.41083864193539" x2="257.30910467548426" y2="188.16794833741929" />
    <line x1="316.45493103129576" y1="215.12327094267823" x2="301.14388565958041" y2="210.47871610660684" />
    <line x1="326.21176146189617" y1="235.29081663733507" x2="281.86554390135439" y2="216.92201188381077" />
    <line x1="319.16277241052364" y1="250.19465178676762" x2="290.94129195137629" y2="235.10995620833569" />
    <line x1="284.07986727314619" y1="246.55755169066586" x2="270.77635347630547" y2="237.66842796235224" />
    <line x1="257.47283967946476" y1="228.77930423403859" x2="244.16932588262398" y2="219.89018050572497" />
    <line x1="288.49758891113606" y1="267.42777919287408" x2="276.12942165733227" y2="257.27748664625574" />
    <line x1="267.16652224137044" y1="267.16652224137044" x2="255.85281374238571" y2="255.85281374238571" />
    <line x1="244.53910524340097" y1="244.53910524340094" x2="233.22539674441617" y2="233.22539674441617" />
    <line x1="210.59797974644667" y1="210.59797974644664" x2="187.97056274847714" y2="187.97056274847714" />
    <line x1="246.55755169066589" y1="284.07986727314619" x2="237.66842796235227" y2="270.77635347630542" />
    <line x1="228.77930423403862" y1="257.4728396794647" x2="211.00105677741135" y2="230.86581208578326" />
    <line x1="216.9220118838108" y1="281.86554390135439" x2="210.79907696596933" y2="267.08347138117381" />
    <line x1="198.55320713028647" y1="237.51932634081265" x2="192.43027221244503" y2="222.73725382063205" />
    <line x1="215.12327094267829" y1="316.4549310312957" x2="210.4787161066069" y2="301.14388565958041" />
    <line x1="197.53228379419349" y1="304.38679813483935" x2="191.28939348967737" y2="273.001669161936" />
    <line x1="188.16794833741932" y1="257.30910467548426" x2="185.04650318516127" y2="241.61654018903261" />
    <line x1="185.89860533009323" y1="322.26807845417392" x2="184.33033108482027" y2="306.34512282741878" />
    <line x1="171.00000000000003" y1="339" x2="171.00000000000003" y2="323" />
    <line x1="171.00000000000003" y1="307" x2="171.00000000000003" y2="291" />
    <line x1="171" y1="275" x2="171" y2="259" />
    <line x1="171" y1="227" x2="171" y2="195" />
    <line x1="156.1013946699068" y1="322.268078454174" x2="157.66966891517976" y2="306.34512282741878" />
    <line x1="147.58916135806459" y1="288.69423364838764" x2="153.83205166258071" y2="257.30910467548426" />
    <line x1="106.70918336266493" y1="326.21176146189623" x2="118.9550531983478" y2="296.647616421535" />
    <line x1="137.3238579518721" y1="252.30139886099323" x2="143.44679286971353" y2="237.51932634081265" />
    <line x1="149.56972778755497" y1="222.73725382063208" x2="155.6926627053964" y2="207.95518130045147" />
    <line x1="99.347696002448359" y1="305.05203218094994" x2="106.89004379166433" y2="290.94129195137629" />
    <line x1="95.442448309334139" y1="284.07986727314619" x2="113.2206957659614" y2="257.47283967946476" />
    <line x1="52.206060760660023" y1="289.79393923934003" x2="63.519769259644789" y2="278.48023074035524" />
    <line x1="86.147186257614308" y1="255.85281374238571" x2="97.46089475659906" y2="244.53910524340097" />
    <line x1="120.08831175456858" y1="221.91168824543144" x2="131.40202025355336" y2="210.59797974644667" />
    <line x1="142.7157287525381" y1="199.2842712474619" x2="154.02943725152286" y2="187.97056274847714" />
    <line x1="44.616618930013118" y1="255.44667541897954" x2="111.13418791421674" y2="211.00105677741135" />
    <line x1="22.837227589476356" y1="250.19465178676762" x2="36.947967819050064" y2="242.65230399755166" />
    <line x1="30.57031105828446" y1="229.16788171949372" x2="89.698601139006783" y2="204.67614204812796" />
    <line x1="10.234023596988919" y1="219.76782577874968" x2="25.545068968704271" y2="215.12327094267829" />
    <line x1="6.2280728922573019" y1="203.77517409870961" x2="37.613201865160676" y2="197.53228379419349" />
    <line x1="53.305766351612363" y1="194.41083864193544" x2="68.998330838064049" y2="191.28939348967737" />
    <line x1="19" y1="171.00000000000003" x2="35" y2="171.00000000000003" />
    <line x1="67" y1="171.00000000000003" x2="115" y2="171" />
    <line x1="37.613201865160647" y1="144.46771620580654" x2="53.305766351612348" y2="147.58916135806462" />
    <line x1="25.545068968704243" y1="126.87672905732177" x2="40.856114340419595" y2="131.52128389339316" />
    <line x1="15.788238538103855" y1="106.70918336266487" x2="45.352383578465023" y2="118.95505319834777" />
    <line x1="119.26274617936795" y1="149.56972778755497" x2="134.04481869954853" y2="155.6926627053964" />
    <line x1="36.947967819050035" y1="99.347696002448373" x2="51.058708048623714" y2="106.89004379166433" />
    <line x1="41.134243835060204" y1="64.421928260507542" x2="65.870578342667784" y2="84.7225133537442" />
    <line x1="63.519769259644747" y1="63.519769259644804" x2="74.833477758629513" y2="74.833477758629556" />
    <line x1="91.80534821323235" y1="22.837227589476385" x2="106.89004379166428" y2="51.058708048623743" />
    <line x1="106.70918336266482" y1="15.788238538103855" x2="125.07798811618915" y2="60.134456098645614" />
    <line x1="143.44679286971348" y1="104.48067365918737" x2="149.56972778755494" y2="119.26274617936795" />
    <line x1="122.2321742212503" y1="10.234023596988919" x2="131.5212838933931" y2="40.856114340419595" />
    <line x1="141.34627105354844" y1="21.920637378708989" x2="144.46771620580648" y2="37.613201865160676" />
    <line x1="153.83205166258068" y1="84.690895324515736" x2="156.95349681483873" y2="100.38345981096742" />
  </g>
  <path fill="none" stroke="#ff0000" stroke-width="2" stroke-linecap="square" stroke-linejoin="round" d="M 179.24336928700623,3.2023633575310271 L 178.85082789238689,11.192727007172408 A 160,160 0 0,0 163.14917210761311,11.192727007172408 L 164.71933768609048,43.154181605737932 A 128,128 0 0,1 208.15643868857117,48.51163702627727 L 203.51188385249978,63.822682397992608 A 112,112 0 0,0 181.97791971691078,59.539310612713948 L 178.84137122636486,91.385221866224242 A 80,80 0 0,1 194.222774180357,94.4447731414233 L 189.5782193442856,109.75581851313864 A 64,64 0 0,0 183.48578060903222,108.22974205419325 L 180.36433545677414,123.92230654064494 A 48,48 0 0,0 144.33262881505908,131.08945860947785 L 135.44350508674546,117.7859448126371 A 64,64 0 0,0 108.22974205419325,158.51421939096778 L 123.92230654064494,161.63566454322583 A 48,48 0 0,0 144.33262881505911,210.91054139052218 L 153.22175254337273,197.60702759368147 A 32,32 0 0,0 158.75413016431713,200.56414504036118 L 161.81559762323786,193.17310878027089" />
  <type>Circular</type>
</svg>