<?xml version="1.0" encoding="utf-8" standalone="no"?>
<!DOCTYPE svg PUBLIC "-//W3C//DTD SVG 1.1//EN" "http://www.w3.org/Graphics/SVG/1.1/DTD/svg11.dtd"[]>
<svg width="340" height="340" version="1.1" xmlns="http://www.w3.org/2000/svg">
  <title>21 cells diameter theta maze</title>
  <g fill="none" stroke="#000000" stroke-width="2" stroke-linecap="square">
    <path d="M 154.02943725152286,187.97056274847714 A 24,24 0 1,1 171,195" />
    <path d="M 186.3073372946036,134.04481869954853 A 40,40 0 0,1 211,171" />
    <path d="M 207.95518130045147,186.3073372946036 A 40,40 0 0,1 171,211" />
    <path d="M 155.6926627053964,207.95518130045147 A 40,40 0 0,1 134.04481869954853,186.3073372946036" />
    <path d="M 131,171 A 40,40 0 0,1 142.7157287525381,142.7157287525381" />
    <path d="M 149.56972778755494,119.26274617936795 A 56,56 0 0,1 210.59797974644667,131.40202025355333" />
    <path d="M 171,227 A 56,56 0 0,1 149.569727787555,222.73725382063208" />
    <path d="M 131.40202025355336,210.59797974644667 A 56,56 0 0,1 131.40202025355333,131.40202025355336" />
    <path d="M 198.55320713028647,104.48067365918736 A 72,72 0 0,1 237.51932634081265,143.44679286971353" />
    <path d="M 241.61654018903261,156.95349681483876 A 72,72 0 0,1 243,171" />
    <path d="M 237.51932634081265,198.55320713028647 A 72,72 0 0,1 198.55320713028647,237.51932634081265" />
    <path d="M 185.04650318516127,241.61654018903261 A 72,72 0 0,1 171,243" />
    <path d="M 156.95349681483876,241.61654018903261 A 72,72 0 0,1 130.99894322258865,230.86581208578326" />
    <path d="M 120.08831175456859,221.91168824543144 A 72,72 0 0,1 156.95349681483873,100.38345981096741" />
    <path d="M 171,83 A 88,88 0 0,1 188.16794833741929,84.690895324515722" />
    <path d="M 219.890180505725,97.83067411737602 A 88,88 0 0,1 244.16932588262398,122.109819494275" />
    <path d="M 252.30139886099323,137.3238579518721 A 88,88 0 0,1 257.30910467548426,153.83205166258071" />
    <path d="M 252.30139886099323,204.6761420481279 A 88,88 0 0,1 244.16932588262398,219.89018050572497" />
    <path d="M 219.89018050572497,244.16932588262398 A 88,88 0 0,1 171,259" />
    <path d="M 122.10981949427503,244.16932588262398 A 88,88 0 0,1 108.77460325558383,233.2253967444162" />
    <path d="M 89.698601139006783,204.67614204812796 A 88,88 0 0,1 84.690895324515722,188.16794833741932" />
    <path d="M 83,171.00000000000003 A 88,88 0 0,1 84.690895324515722,153.83205166258071" />
    <path d="M 108.7746032555838,108.77460325558383 A 88,88 0 0,1 137.32385795187204,89.698601139006783" />
    <path d="M 150.71060651032261,68.998330838064049 A 104,104 0 0,1 171,67" />
    <path d="M 191.28939348967734,68.998330838064035 A 104,104 0 0,1 267.08347138117381,131.20092303403067" />
    <path d="M 267.08347138117381,210.79907696596933 A 104,104 0 0,1 244.53910524340097,244.53910524340094" />
    <path d="M 191.28939348967737,273.001669161936 A 104,104 0 0,1 150.71060651032266,273.001669161936" />
    <path d="M 131.20092303403067,267.08347138117381 A 104,104 0 0,1 113.22069576596141,257.47283967946476" />
    <path d="M 97.460894756599075,244.53910524340097 A 104,104 0 0,1 84.527160320535288,228.77930423403862" />
    <path d="M 68.998330838064035,191.28939348967737 A 104,104 0 0,1 67,171.00000000000003" />
    <path d="M 84.527160320535273,113.22069576596141 A 104,104 0 0,1 113.22069576596137,84.5271603205353" />
    <path d="M 216.92201188381077,60.134456098645586 A 120,120 0 0,1 237.66842796235227,71.223646523694569" />
    <path d="M 255.85281374238571,86.1471862576143 A 120,120 0 0,1 288.69423364838764,147.58916135806459" />
    <path d="M 291,171 A 120,120 0 0,1 288.69423364838764,194.41083864193539" />
    <path d="M 270.77635347630542,237.66842796235224 A 120,120 0 0,1 216.9220118838108,281.86554390135439" />
    <path d="M 194.41083864193544,288.69423364838764 A 120,120 0 0,1 171.00000000000003,291" />
    <path d="M 147.58916135806459,288.69423364838764 A 120,120 0 0,1 125.07798811618925,281.86554390135439" />
    <path d="M 71.223646523694569,237.66842796235227 A 120,120 0 0,1 53.305766351612348,194.41083864193544" />
    <path d="M 60.1344560986456,125.0779881161892 A 120,120 0 0,1 71.223646523694541,104.33157203764777" />
    <path d="M 86.14718625761428,86.147186257614322 A 120,120 0 0,1 104.33157203764773,71.223646523694569" />
    <path d="M 125.07798811618915,60.134456098645614 A 120,120 0 0,1 147.58916135806456,53.305766351612363" />
    <path d="M 171,35 A 136,136 0 0,1 184.33033108482024,35.654877172581223" />
    <path d="M 223.0449468016522,45.352383578464995 A 136,136 0 0,1 235.10995620833569,51.058708048623714" />
    <path d="M 257.2774866462558,65.87057834266777 A 136,136 0 0,1 267.16652224137044,74.833477758629527" />
    <path d="M 296.64761642153496,118.95505319834778 A 136,136 0 0,1 307,171" />
    <path d="M 306.34512282741878,184.33033108482024 A 136,136 0 0,1 284.07986727314619,246.55755169066589" />
    <path d="M 276.12942165733227,257.27748664625574 A 136,136 0 0,1 210.4787161066069,301.14388565958041" />
    <path d="M 197.53228379419349,304.3867981348393 A 136,136 0 0,1 184.33033108482027,306.34512282741878" />
    <path d="M 171.00000000000003,307 A 136,136 0 0,1 144.46771620580654,304.38679813483935" />
    <path d="M 118.9550531983478,296.647616421535 A 136,136 0 0,1 84.722513353744233,276.12942165733227" />
    <path d="M 74.833477758629556,267.16652224137044 A 136,136 0 0,1 57.920132726853836,246.55755169066589" />
    <path d="M 51.058708048623728,235.10995620833572 A 136,136 0 0,1 40.856114340419595,210.4787161066069" />
    <path d="M 37.613201865160676,197.53228379419349 A 136,136 0 0,1 35.654877172581223,184.33033108482022" />
    <path d="M 35,171.00000000000003 A 136,136 0 0,1 35.654877172581223,157.66966891517984" />
    <path d="M 37.613201865160647,144.46771620580654 A 136,136 0 0,1 74.833477758629513,74.833477758629556" />
    <path d="M 84.722513353744148,65.870578342667827 A 136,136 0 0,1 131.5212838933931,40.856114340419595" />
    <path d="M 144.46771620580648,37.613201865160676 A 136,136 0 0,1 157.66966891517978,35.654877172581223" />
    <path d="M 200.65372894645151,21.92063737870896 A 152,152 0 0,1 215.12327094267829,25.545068968704243" />
    <path d="M 229.16788171949364,30.570311058284403 A 152,152 0 0,1 255.44667541897954,44.616618930013118" />
    <path d="M 267.42777919287414,53.50241108886398 A 152,152 0 0,1 288.497588911136,74.572220807125873" />
    <path d="M 305.05203218094994,99.34769600244833 A 152,152 0 0,1 311.4296889417156,112.83211828050635" />
    <path d="M 320.079362621291,141.34627105354849 A 152,152 0 0,1 322.26807845417392,156.10139466990677" />
    <path d="M 322.26807845417392,185.89860533009323 A 152,152 0 0,1 320.079362621291,200.65372894645148" />
    <path d="M 316.45493103129576,215.12327094267826 A 152,152 0 0,1 311.4296889417156,229.16788171949364" />
    <path d="M 297.38338106998691,255.44667541897951 A 152,152 0 0,1 278.48023074035524,278.48023074035518" />
    <path d="M 255.44667541897951,297.38338106998685 A 152,152 0 0,1 215.12327094267829,316.45493103129576" />
    <path d="M 185.89860533009323,322.26807845417392 A 152,152 0 0,1 171.00000000000003,323" />
    <path d="M 141.34627105354849,320.079362621291 A 152,152 0 0,1 99.347696002448359,305.05203218094994" />
    <path d="M 74.572220807125916,288.49758891113606 A 152,152 0 0,1 44.616618930013118,255.44667541897951" />
    <path d="M 30.57031105828446,229.16788171949372 A 152,152 0 0,1 21.920637378708989,200.65372894645157" />
    <path d="M 19.731921545826083,185.89860533009318 A 152,152 0 0,1 19,171.00000000000003" />
    <path d="M 19.731921545826054,156.10139466990688 A 152,152 0 0,1 74.572220807125817,53.502411088864037" />
    <path d="M 86.553324581020462,44.616618930013118 A 152,152 0 0,1 99.347696002448316,36.947967819050064" />
    <path d="M 112.83211828050625,30.57031105828446 A 152,152 0 0,1 156.1013946699068,19.731921545826083" />
    <path d="M 187.46687957536619,3.8089659190709142 A 168,168 0 1,1 171,3" />
  </g>
  <g fill="none" stroke="#000000" stroke-width="2" stroke-linecap="butt">
    <line x1="171" y1="19" x2="171" y2="67" />
    <line x1="171" y1="83" x2="171" y2="131" />
    <line x1="185.8986053300932" y1="19.731921545826054" x2="184.33033108482024" y2="35.654877172581223" />
    <line x1="203.77517409870956" y1="6.2280728922572735" x2="194.41083864193539" y2="53.305766351612348" />
    <line x1="188.16794833741929" y1="84.690895324515722" x2="185.04650318516124" y2="100.38345981096741" />
    <line x1="215.12327094267829" y1="25.545068968704271" x2="210.47871610660687" y2="40.856114340419595" />
    <line x1="235.29081663733507" y1="15.788238538103826" x2="229.16788171949366" y2="30.570311058284403" />
    <line x1="223.0449468016522" y1="45.352383578465009" x2="216.92201188381077" y2="60.134456098645586" />
    <line x1="210.79907696596933" y1="74.916528618826177" x2="198.55320713028647" y2="104.48067365918736" />
    <line x1="192.43027221244503" y1="119.26274617936795" x2="186.3073372946036" y2="134.04481869954853" />
    <line x1="255.44667541897954" y1="44.616618930013118" x2="246.55755169066589" y2="57.920132726853851" />
    <line x1="237.66842796235227" y1="71.223646523694569" x2="228.77930423403862" y2="84.5271603205353" />
    <line x1="277.57807173949243" y1="41.134243835060175" x2="257.2774866462558" y2="65.87057834266777" />
    <line x1="255.85281374238571" y1="86.1471862576143" x2="233.22539674441617" y2="108.77460325558381" />
    <line x1="199.2842712474619" y1="142.7157287525381" x2="187.97056274847714" y2="154.02943725152286" />
    <line x1="288.497588911136" y1="74.572220807125888" x2="276.12942165733222" y2="84.722513353744219" />
    <line x1="310.68689486682763" y1="77.664200852706813" x2="270.77635347630542" y2="104.33157203764773" />
    <line x1="305.05203218094994" y1="99.34769600244833" x2="290.94129195137629" y2="106.8900437916643" />
    <line x1="326.21176146189617" y1="106.7091833626649" x2="296.64761642153496" y2="118.95505319834778" />
    <line x1="267.08347138117381" y1="131.20092303403067" x2="252.30139886099323" y2="137.3238579518721" />
    <line x1="237.51932634081265" y1="143.44679286971353" x2="222.73725382063205" y2="149.56972778755497" />
    <line x1="316.45493103129576" y1="126.87672905732173" x2="301.14388565958041" y2="131.52128389339313" />
    <line x1="320.079362621291" y1="141.34627105354849" x2="304.38679813483935" y2="144.46771620580654" />
    <line x1="273.001669161936" y1="150.71060651032266" x2="257.30910467548426" y2="153.83205166258071" />
    <line x1="323" y1="171" x2="275" y2="171" />
    <line x1="259" y1="171" x2="211" y2="171" />
    <line x1="320.079362621291" y1="200.65372894645148" x2="304.38679813483935" y2="197.53228379419343" />
    <line x1="288.69423364838764" y1="194.41083864193539" x2="241.61654018903261" y2="185.04650318516124" />
    <line x1="316.45493103129576" y1="215.12327094267823" x2="301.14388565958041" y2="210.47871610660684" />
    <line x1="296.64761642153496" y1="223.0449468016522" x2="267.08347138117381" y2="210.79907696596933" />
    <line x1="222.73725382063205" y1="192.43027221244503" x2="207.95518130045147" y2="186.3073372946036" />
    <line x1="319.16277241052364" y1="250.19465178676762" x2="290.94129195137629" y2="235.10995620833569" />
    <line x1="244.16932588262398" y1="219.89018050572497" x2="230.86581208578326" y2="211.00105677741135" />
    <line x1="288.49758891113606" y1="267.42777919287408" x2="276.12942165733227" y2="257.27748664625574" />
    <line x1="267.16652224137044" y1="267.16652224137044" x2="255.85281374238571" y2="255.85281374238571" />
    <line x1="244.53910524340097" y1="244.53910524340094" x2="210.59797974644667" y2="210.59797974644664" />
    <line x1="277.57807173949243" y1="300.86575616493985" x2="267.42777919287414" y2="288.497588911136" />
    <line x1="237.66842796235227" y1="270.77635347630542" x2="219.890180505725" y2="244.16932588262398" />
    <line x1="229.16788171949366" y1="311.4296889417156" x2="223.04494680165223" y2="296.64761642153496" />
    <line x1="216.9220118838108" y1="281.86554390135439" x2="210.79907696596933" y2="267.08347138117381" />
    <line x1="198.55320713028647" y1="237.51932634081265" x2="186.3073372946036" y2="207.95518130045147" />
    <line x1="203.77517409870961" y1="335.77192710774273" x2="194.41083864193544" y2="288.69423364838764" />
    <line x1="188.16794833741932" y1="257.30910467548426" x2="185.04650318516127" y2="241.61654018903261" />
    <line x1="185.89860533009323" y1="322.26807845417392" x2="184.33033108482027" y2="306.34512282741878" />
    <line x1="171.00000000000003" y1="307" x2="171.00000000000003" y2="291" />
    <line x1="171" y1="243" x2="171" y2="227" />
    <line x1="171" y1="211" x2="171" y2="195" />
    <line x1="156.1013946699068" y1="322.268078454174" x2="157.66966891517976" y2="306.34512282741878" />
    <line x1="144.46771620580654" y1="304.38679813483935" x2="156.95349681483876" y2="241.61654018903261" />
    <line x1="126.87672905732177" y1="316.45493103129576" x2="131.52128389339316" y2="301.14388565958041" />
    <line x1="106.70918336266493" y1="326.21176146189623" x2="112.83211828050636" y2="311.4296889417156" />
    <line x1="118.9550531983478" y1="296.647616421535" x2="131.20092303403067" y2="267.08347138117381" />
    <line x1="137.3238579518721" y1="252.30139886099323" x2="143.44679286971353" y2="237.51932634081265" />
    <line x1="149.56972778755497" y1="222.73725382063208" x2="155.6926627053964" y2="207.95518130045147" />
    <line x1="77.66420085270687" y1="310.68689486682763" x2="86.5533245810205" y2="297.38338106998691" />
    <line x1="95.442448309334139" y1="284.07986727314619" x2="104.33157203764776" y2="270.77635347630547" />
    <line x1="113.2206957659614" y1="257.47283967946476" x2="122.10981949427503" y2="244.16932588262398" />
    <line x1="74.572220807125916" y1="288.49758891113606" x2="84.722513353744247" y2="276.12942165733227" />
    <line x1="74.833477758629542" y1="267.1665222413705" x2="97.46089475659906" y2="244.53910524340097" />
    <line x1="108.77460325558383" y1="233.2253967444162" x2="120.08831175456858" y2="221.91168824543144" />
    <line x1="142.7157287525381" y1="199.2842712474619" x2="154.02943725152286" y2="187.97056274847714" />
    <line x1="44.616618930013118" y1="255.44667541897954" x2="57.920132726853851" y2="246.55755169066589" />
    <line x1="97.83067411737602" y1="219.890180505725" x2="111.13418791421674" y2="211.00105677741135" />
    <line x1="22.837227589476356" y1="250.19465178676762" x2="51.058708048623728" y2="235.10995620833569" />
    <line x1="60.134456098645614" y1="216.92201188381085" x2="74.9165286188262" y2="210.79907696596939" />
    <line x1="89.698601139006783" y1="204.67614204812796" x2="104.48067365918737" y2="198.5532071302865" />
    <line x1="21.920637378708989" y1="200.65372894645157" x2="53.305766351612363" y2="194.41083864193544" />
    <line x1="19.731921545826054" y1="185.89860533009318" x2="35.654877172581223" y2="184.33033108482022" />
    <line x1="3" y1="171.00000000000003" x2="19" y2="171.00000000000003" />
    <line x1="35" y1="171.00000000000003" x2="67" y2="171.00000000000003" />
    <line x1="83" y1="171.00000000000003" x2="99" y2="171" />
    <line x1="3.8089659190709142" y1="154.53312042463389" x2="35.654877172581223" y2="157.66966891517984" />
    <line x1="37.613201865160647" y1="144.46771620580654" x2="84.690895324515722" y2="153.83205166258071" />
    <line x1="60.1344560986456" y1="125.0779881161892" x2="104.48067365918736" y2="143.44679286971353" />
    <line x1="71.223646523694541" y1="104.33157203764777" x2="97.830674117376" y2="122.10981949427503" />
    <line x1="74.833477758629513" y1="74.833477758629556" x2="86.14718625761428" y2="86.147186257614322" />
    <line x1="108.7746032555838" y1="108.77460325558383" x2="142.7157287525381" y2="142.7157287525381" />
    <line x1="91.80534821323235" y1="22.837227589476385" x2="99.347696002448316" y2="36.947967819050064" />
    <line x1="112.83211828050625" y1="30.57031105828446" x2="137.32385795187204" y2="89.698601139006783" />
    <line x1="149.56972778755494" y1="119.26274617936795" x2="155.69266270539637" y2="134.04481869954856" />
    <line x1="150.71060651032261" y1="68.998330838064049" x2="156.95349681483873" y2="100.38345981096742" />
    <line x1="156.1013946699068" y1="19.731921545826054" x2="157.66966891517978" y2="35.654877172581223" />
  </g>
  <path fill="none" stroke="#ff0000" stroke-width="2" stroke-linecap="square" stroke-linejoin="round" d="M 179.24336928700623,3.2023633575310271 L 178.85082789238689,11.192727007172408 A 160,160 0 0,1 194.47687591285788,12.731758405635048 L 189.7815007302863,44.38540672450803 A 128,128 0 0,0 183.54619396218376,43.616354985958793 L 180.40964547163782,75.4622662394691 A 96,96 0 0,0 161.59035452836218,75.4622662394691 L 164.72690301890813,107.3081774929794 A 64,64 0 0,0 135.44350508674546,117.7859448126371 L 153.22175254337273,144.39297240631856 A 32,32 0 0,0 139.61487102709663,177.24289030451612 L 123.92230654064494,180.36433545677417 A 48,48 0 0,0 144.33262881505911,210.91054139052218 L 135.44350508674546,224.2140551873629 A 64,64 0 0,0 164.72690301890813,234.69182250702062 L 161.59035452836218,266.5377337605309 A 96,96 0 0,0 198.86732901642839,262.86627223029205 L 208.1564386885712,293.4883629737227 A 128,128 0 0,1 202.1014630276178,295.16400040890164 L 209.87682878452225,326.205000511127 A 160,160 0 0,0 266.31188871878936,299.51320503690317 L 256.78069984691041,286.66188453321286 A 144,144 0 0,0 267.70448949797071,277.6969620511141 L 278.44943277552295,289.55218005679342 A 160,160 0 0,0 308.23657760004357,253.25643907091546 L 294.51291984003922,245.03079516382391 A 144,144 0 0,1 286.66188453321286,256.78069984691041 L 273.81056402952254,247.24951097503146 A 128,128 0 0,0 283.88592183658943,231.33878231372771 L 269.77518160701578,223.79643452451174 A 112,112 0 0,1 242.05204782632831,257.57717077662653 L 221.75146273309164,232.84083626901895 A 80,80 0 0,1 194.222774180357,247.5552268585767 L 189.5782193442856,232.24418148686135 A 64,64 0 0,1 183.48578060903222,233.77025794580675 L 180.36433545677417,218.07769345935506 A 48,48 0 0,1 161.63566454322583,218.07769345935506 L 164.75710969548391,202.38512897290337 A 32,32 0 0,1 158.75413016431713,200.56414504036118 L 161.81559762323786,193.17310878027089" />
  <type>Circular</type>
</svg>