<?xml version="1.0" encoding="utf-8" standalone="no"?>
<!DOCTYPE svg PUBLIC "-//W3C//DTD SVG 1.1//EN" "http://www.w3.org/Graphics/SVG/1.1/DTD/svg11.dtd"[]>
<svg width="158" height="210.11404610069639" version="1.1" xmlns="http://www.w3.org/2000/svg">
  <title>7 by 8 sigma maze</title>
  <g fill="none" stroke="#000000" stroke-width="2" stroke-linecap="round" stroke-linejoin="round">
    <polyline points="9,38.373066958946417 2,26.248711305964278 9,14.124355652982137 23,14.124355652982137 30,1.9999999999999965 44,1.9999999999999965 51,14.124355652982137 44,26.248711305964278" />
    <polyline points="51,14.124355652982137 65,14.124355652982137 72,1.9999999999999965" />
    <polyline points="86,1.9999999999999965 93,14.124355652982137 86,26.248711305964278" />
    <polyline points="93,14.124355652982137 107,14.124355652982137 114,26.248711305964278" />
    <polyline points="107,14.124355652982137 114,1.9999999999999965 128,1.9999999999999965 135,14.124355652982137 149,14.124355652982137 156,26.248711305964278 149,38.373066958946417" />
    <polyline points="9,62.621778264910695 2,50.497422611928556 9,38.373066958946417" />
    <polyline points="23,38.373066958946417 30,26.248711305964278 44,26.248711305964278" />
    <polyline points="51,38.373066958946417 65,38.373066958946417 72,26.248711305964278 86,26.248711305964278" />
    <line x1="86" y1="50.497422611928556" x2="93" y2="38.373066958946417" />
    <polyline points="114,50.497422611928556 107,38.373066958946417 114,26.248711305964278 128,26.248711305964278 135,38.373066958946417" />
    <polyline points="149,38.373066958946417 156,50.497422611928556 149,62.621778264910695" />
    <polyline points="9,86.870489570875 2,74.746133917892848 9,62.621778264910709" />
    <polyline points="30,74.746133917892848 23,62.621778264910709 30,50.49742261192857 44,50.49742261192857 51,62.621778264910709 65,62.621778264910709 72,74.746133917892848" />
    <line x1="65" y1="62.621778264910709" x2="72" y2="50.49742261192857" />
    <polyline points="86,50.49742261192857 93,62.621778264910709 86,74.746133917892848" />
    <polyline points="93,62.621778264910709 107,62.621778264910709 114,50.49742261192857" />
    <polyline points="128,50.49742261192857 135,62.621778264910709 128,74.746133917892848" />
    <polyline points="149,62.621778264910709 156,74.746133917892848 149,86.870489570875" />
    <polyline points="9,111.11920087683927 2,98.994845223857126 9,86.87048957087498" />
    <polyline points="30,98.994845223857126 23,86.87048957087498 30,74.746133917892834 44,74.746133917892834" />
    <polyline points="44,98.994845223857126 51,86.87048957087498 65,86.87048957087498" />
    <polyline points="86,74.746133917892834 93,86.87048957087498 86,98.994845223857126" />
    <line x1="93" y1="86.87048957087498" x2="107" y2="86.87048957087498" />
    <polyline points="114,74.746133917892834 128,74.746133917892834 135,86.87048957087498 128,98.994845223857126" />
    <polyline points="149,86.87048957087498 156,98.994845223857126 149,111.11920087683927" />
    <polyline points="9,135.36791218280354 2,123.2435565298214 9,111.11920087683926 23,111.11920087683926 30,123.2435565298214" />
    <polyline points="30,98.994845223857112 44,98.994845223857112 51,111.11920087683926 44,123.2435565298214" />
    <line x1="51" y1="111.11920087683926" x2="65" y2="111.11920087683926" />
    <line x1="72" y1="98.994845223857112" x2="86" y2="98.994845223857112" />
    <polyline points="86,123.2435565298214 93,111.11920087683926 107,111.11920087683926 114,98.994845223857112 128,98.994845223857112" />
    <line x1="128" y1="123.2435565298214" x2="135" y2="111.11920087683926" />
    <polyline points="149,111.11920087683926 156,123.2435565298214 149,135.36791218280354" />
    <polyline points="9,159.61662348876783 2,147.4922678357857 9,135.36791218280357 23,135.36791218280357" />
    <polyline points="30,123.24355652982142 44,123.24355652982142 51,135.36791218280357 44,147.4922678357857" />
    <polyline points="72,147.4922678357857 65,135.36791218280357 72,123.24355652982142 86,123.24355652982142" />
    <polyline points="93,135.36791218280357 107,135.36791218280357 114,123.24355652982142 128,123.24355652982142 135,135.36791218280357 149,135.36791218280357 156,147.4922678357857 149,159.61662348876783" />
    <polyline points="9,183.86533479473209 2,171.74097914174996 9,159.61662348876783" />
    <line x1="23" y1="159.61662348876783" x2="30" y2="171.74097914174996" />
    <line x1="30" y1="147.4922678357857" x2="44" y2="147.4922678357857" />
    <polyline points="44,171.74097914174996 51,159.61662348876783 65,159.61662348876783 72,147.4922678357857 86,147.4922678357857" />
    <polyline points="86,171.74097914174996 93,159.61662348876783 107,159.61662348876783 114,147.4922678357857 128,147.4922678357857" />
    <line x1="128" y1="171.74097914174996" x2="135" y2="159.61662348876783" />
    <polyline points="149,159.61662348876783 156,171.74097914174996 149,183.86533479473209" />
    <polyline points="9,208.11404610069636 2,195.98969044771422 9,183.86533479473209" />
    <polyline points="30,195.98969044771422 23,183.86533479473209 30,171.74097914174996 44,171.74097914174996" />
    <polyline points="51,183.86533479473209 65,183.86533479473209 72,195.98969044771422" />
    <polyline points="65,183.86533479473209 72,171.74097914174996 86,171.74097914174996 93,183.86533479473209 107,183.86533479473209" />
    <polyline points="114,171.74097914174996 128,171.74097914174996 135,183.86533479473209 128,195.98969044771422" />
    <polyline points="149,183.86533479473209 156,195.98969044771422 149,208.11404610069636" />
    <polyline points="30,195.98969044771422 23,208.11404610069636 9,208.11404610069636" />
    <line x1="44" y1="195.98969044771422" x2="30" y2="195.98969044771422" />
    <polyline points="72,195.98969044771422 65,208.11404610069636 51,208.11404610069636 44,195.98969044771422" />
    <polyline points="114,195.98969044771422 107,208.11404610069636 93,208.11404610069636 86,195.98969044771422" />
    <line x1="128" y1="195.98969044771422" x2="114" y2="195.98969044771422" />
    <polyline points="149,208.11404610069636 135,208.11404610069636 128,195.98969044771422" />
  </g>
  <polyline fill="none" stroke="#ff0000" stroke-width="2" stroke-linecap="square" stroke-linejoin="round" points="79,1.9999999999999965 79,14.124355652982137 37,38.373066958946417 58,50.497422611928556 79,38.373066958946417 79,86.87048957087498 58,98.994845223857126 79,111.11920087683926 121,86.87048957087498 100,74.746133917892848 121,62.621778264910709 121,38.373066958946417 142,50.497422611928556 142,98.994845223857126 79,135.36791218280357 100,147.4922678357857 121,135.36791218280357 142,147.4922678357857 100,171.74097914174996 121,183.86533479473209 100,195.98969044771422 79,183.86533479473209 79,195.98969044771422" />
  <type>Rectangular</type>
</svg>