<?xml version="1.0" encoding="utf-8" standalone="no"?>
<!DOCTYPE svg PUBLIC "-//W3C//DTD SVG 1.1//EN" "http://www.w3.org/Graphics/SVG/1.1/DTD/svg11.dtd"[]>
<svg width="662" height="767.83440613787491" version="1.1" xmlns="http://www.w3.org/2000/svg">
  <title>Hexagonal sigma maze with 16 cells side</title>
  <g fill="none" stroke="#000000" stroke-width="2" stroke-linecap="round" stroke-linejoin="round">
    <polyline points="296,26.248711305964321 303,14.12435565298218 317,14.12435565298218 324,26.248711305964321" />
    <line x1="317" y1="14.12435565298218" x2="324" y2="2.0000000000000391" />
    <polyline points="338,2.0000000000000391 345,14.12435565298218 359,14.12435565298218 366,26.248711305964321" />
    <polyline points="254,50.4974226119286 261,38.37306695894646 275,38.37306695894646 282,50.4974226119286" />
    <polyline points="275,38.37306695894646 282,26.248711305964321 296,26.248711305964321" />
    <line x1="296" y1="50.4974226119286" x2="303" y2="38.37306695894646" />
    <polyline points="324,50.4974226119286 317,38.37306695894646 324,26.248711305964321" />
    <polyline points="338,26.248711305964321 345,38.37306695894646 359,38.37306695894646 366,26.248711305964321 380,26.248711305964321 387,38.37306695894646 401,38.37306695894646 408,50.4974226119286" />
    <polyline points="212,74.746133917892877 219,62.621778264910738 233,62.621778264910738 240,74.746133917892877" />
    <polyline points="233,62.621778264910738 240,50.4974226119286 254,50.4974226119286 261,62.621778264910738" />
    <line x1="275" y1="62.621778264910738" x2="282" y2="50.4974226119286" />
    <polyline points="296,50.4974226119286 303,62.621778264910738 296,74.746133917892877" />
    <polyline points="303,62.621778264910738 317,62.621778264910738 324,74.746133917892877" />
    <line x1="324" y1="50.4974226119286" x2="338" y2="50.4974226119286" />
    <polyline points="338,74.746133917892877 345,62.621778264910738 359,62.621778264910738 366,74.746133917892877" />
    <polyline points="359,62.621778264910738 366,50.4974226119286 380,50.4974226119286" />
    <polyline points="387,62.621778264910738 401,62.621778264910738 408,50.4974226119286 422,50.4974226119286 429,62.621778264910738 443,62.621778264910738 450,74.746133917892877" />
    <polyline points="170,98.994845223857169 177,86.870489570875023 191,86.870489570875023 198,98.994845223857169" />
    <polyline points="191,86.870489570875023 198,74.746133917892877 212,74.746133917892877" />
    <line x1="212" y1="98.994845223857169" x2="219" y2="86.870489570875023" />
    <line x1="233" y1="86.870489570875023" x2="240" y2="98.994845223857169" />
    <polyline points="240,74.746133917892877 254,74.746133917892877 261,86.870489570875023 275,86.870489570875023 282,74.746133917892877 296,74.746133917892877" />
    <polyline points="296,98.994845223857169 303,86.870489570875023 317,86.870489570875023 324,98.994845223857169" />
    <line x1="324" y1="74.746133917892877" x2="338" y2="74.746133917892877" />
    <polyline points="338,98.994845223857169 345,86.870489570875023 359,86.870489570875023 366,98.994845223857169" />
    <polyline points="366,74.746133917892877 380,74.746133917892877 387,86.870489570875023" />
    <polyline points="408,98.994845223857169 401,86.870489570875023 408,74.746133917892877 422,74.746133917892877 429,86.870489570875023 422,98.994845223857169" />
    <polyline points="450,98.994845223857169 443,86.870489570875023 450,74.746133917892877 464,74.746133917892877 471,86.870489570875023 485,86.870489570875023 492,98.994845223857169" />
    <polyline points="128,123.24355652982145 135,111.1192008768393 149,111.1192008768393 156,98.994845223857155 170,98.994845223857155 177,111.1192008768393 170,123.24355652982145" />
    <polyline points="191,111.1192008768393 198,98.994845223857155 212,98.994845223857155" />
    <polyline points="212,123.24355652982145 219,111.1192008768393 233,111.1192008768393 240,98.994845223857155 254,98.994845223857155 261,111.1192008768393 275,111.1192008768393 282,123.24355652982145" />
    <polyline points="275,111.1192008768393 282,98.994845223857155 296,98.994845223857155" />
    <line x1="296" y1="123.24355652982145" x2="303" y2="111.1192008768393" />
    <polyline points="324,123.24355652982145 317,111.1192008768393 324,98.994845223857155 338,98.994845223857155" />
    <line x1="338" y1="123.24355652982145" x2="345" y2="111.1192008768393" />
    <line x1="359" y1="111.1192008768393" x2="366" y2="123.24355652982145" />
    <polyline points="366,98.994845223857155 380,98.994845223857155 387,111.1192008768393 401,111.1192008768393" />
    <polyline points="422,98.994845223857155 429,111.1192008768393 422,123.24355652982145" />
    <line x1="429" y1="111.1192008768393" x2="443" y2="111.1192008768393" />
    <polyline points="464,98.994845223857155 471,111.1192008768393 464,123.24355652982145" />
    <line x1="471" y1="111.1192008768393" x2="485" y2="111.1192008768393" />
    <polyline points="492,98.994845223857155 506,98.994845223857155 513,111.1192008768393 506,123.24355652982145" />
    <polyline points="513,111.1192008768393 527,111.1192008768393 534,123.24355652982145" />
    <polyline points="86,147.49226783578573 93,135.36791218280359 107,135.36791218280359 114,123.24355652982145 128,123.24355652982145 135,135.36791218280359 128,147.49226783578573" />
    <polyline points="135,135.36791218280359 149,135.36791218280359 156,147.49226783578573" />
    <line x1="149" y1="135.36791218280359" x2="156" y2="123.24355652982145" />
    <polyline points="170,123.24355652982145 177,135.36791218280359 191,135.36791218280359 198,147.49226783578573" />
    <polyline points="198,123.24355652982145 212,123.24355652982145 219,135.36791218280359 212,147.49226783578573" />
    <polyline points="240,147.49226783578573 233,135.36791218280359 240,123.24355652982145 254,123.24355652982145" />
    <polyline points="254,147.49226783578573 261,135.36791218280359 275,135.36791218280359" />
    <polyline points="282,123.24355652982145 296,123.24355652982145 303,135.36791218280359 296,147.49226783578573" />
    <polyline points="303,135.36791218280359 317,135.36791218280359 324,147.49226783578573" />
    <polyline points="324,123.24355652982145 338,123.24355652982145 345,135.36791218280359" />
    <polyline points="366,147.49226783578573 359,135.36791218280359 366,123.24355652982145 380,123.24355652982145 387,135.36791218280359 401,135.36791218280359 408,147.49226783578573" />
    <polyline points="401,135.36791218280359 408,123.24355652982145 422,123.24355652982145" />
    <polyline points="422,147.49226783578573 429,135.36791218280359 443,135.36791218280359" />
    <polyline points="450,123.24355652982145 464,123.24355652982145 471,135.36791218280359 464,147.49226783578573" />
    <polyline points="471,135.36791218280359 485,135.36791218280359 492,147.49226783578573" />
    <polyline points="492,123.24355652982145 506,123.24355652982145 513,135.36791218280359" />
    <line x1="527" y1="135.36791218280359" x2="534" y2="147.49226783578573" />
    <polyline points="534,123.24355652982145 548,123.24355652982145 555,135.36791218280359 548,147.49226783578573" />
    <polyline points="555,135.36791218280359 569,135.36791218280359 576,147.49226783578573" />
    <polyline points="44,171.74097914175002 51,159.61662348876789 65,159.61662348876789 72,171.74097914175002" />
    <polyline points="65,159.61662348876789 72,147.49226783578575 86,147.49226783578575 93,159.61662348876789 86,171.74097914175002" />
    <polyline points="93,159.61662348876789 107,159.61662348876789 114,171.74097914175002" />
    <line x1="114" y1="147.49226783578575" x2="128" y2="147.49226783578575" />
    <line x1="128" y1="171.74097914175002" x2="135" y2="159.61662348876789" />
    <polyline points="156,171.74097914175002 149,159.61662348876789 156,147.49226783578575 170,147.49226783578575 177,159.61662348876789 191,159.61662348876789 198,171.74097914175002" />
    <polyline points="212,147.49226783578575 219,159.61662348876789 212,171.74097914175002" />
    <polyline points="219,159.61662348876789 233,159.61662348876789 240,147.49226783578575 254,147.49226783578575 261,159.61662348876789 254,171.74097914175002" />
    <polyline points="282,171.74097914175002 275,159.61662348876789 282,147.49226783578575" />
    <polyline points="296,147.49226783578575 303,159.61662348876789 317,159.61662348876789 324,171.74097914175002" />
    <polyline points="338,147.49226783578575 345,159.61662348876789 338,171.74097914175002" />
    <polyline points="345,159.61662348876789 359,159.61662348876789 366,171.74097914175002" />
    <polyline points="359,159.61662348876789 366,147.49226783578575 380,147.49226783578575 387,159.61662348876789 380,171.74097914175002" />
    <line x1="401" y1="159.61662348876789" x2="408" y2="147.49226783578575" />
    <polyline points="422,147.49226783578575 429,159.61662348876789 422,171.74097914175002" />
    <polyline points="450,171.74097914175002 443,159.61662348876789 450,147.49226783578575 464,147.49226783578575" />
    <line x1="464" y1="171.74097914175002" x2="471" y2="159.61662348876789" />
    <polyline points="485,159.61662348876789 492,147.49226783578575 506,147.49226783578575 513,159.61662348876789 527,159.61662348876789 534,171.74097914175002" />
    <polyline points="534,147.49226783578575 548,147.49226783578575 555,159.61662348876789 548,171.74097914175002" />
    <line x1="569" y1="159.61662348876789" x2="576" y2="171.74097914175002" />
    <polyline points="576,147.49226783578575 590,147.49226783578575 597,159.61662348876789 590,171.74097914175002" />
    <polyline points="597,159.61662348876789 611,159.61662348876789 618,171.74097914175002" />
    <polyline points="9,208.11404610069641 2,195.98969044771428 9,183.86533479473215 23,183.86533479473215 30,195.98969044771428" />
    <polyline points="23,183.86533479473215 30,171.74097914175002 44,171.74097914175002" />
    <polyline points="51,183.86533479473215 65,183.86533479473215 72,171.74097914175002" />
    <line x1="86" y1="171.74097914175002" x2="93" y2="183.86533479473215" />
    <polyline points="114,195.98969044771428 107,183.86533479473215 114,171.74097914175002" />
    <polyline points="128,171.74097914175002 135,183.86533479473215 149,183.86533479473215 156,171.74097914175002 170,171.74097914175002" />
    <polyline points="170,195.98969044771428 177,183.86533479473215 191,183.86533479473215" />
    <line x1="198" y1="171.74097914175002" x2="212" y2="171.74097914175002" />
    <line x1="212" y1="195.98969044771428" x2="219" y2="183.86533479473215" />
    <polyline points="240,195.98969044771428 233,183.86533479473215 240,171.74097914175002" />
    <polyline points="254,195.98969044771428 261,183.86533479473215 275,183.86533479473215 282,195.98969044771428" />
    <polyline points="275,183.86533479473215 282,171.74097914175002 296,171.74097914175002" />
    <line x1="296" y1="195.98969044771428" x2="303" y2="183.86533479473215" />
    <polyline points="324,195.98969044771428 317,183.86533479473215 324,171.74097914175002" />
    <polyline points="338,171.74097914175002 345,183.86533479473215 338,195.98969044771428" />
    <line x1="359" y1="183.86533479473215" x2="366" y2="195.98969044771428" />
    <polyline points="380,171.74097914175002 387,183.86533479473215 401,183.86533479473215 408,171.74097914175002 422,171.74097914175002" />
    <line x1="422" y1="195.98969044771428" x2="429" y2="183.86533479473215" />
    <line x1="443" y1="183.86533479473215" x2="450" y2="171.74097914175002" />
    <polyline points="464,171.74097914175002 471,183.86533479473215 464,195.98969044771428" />
    <polyline points="471,183.86533479473215 485,183.86533479473215 492,195.98969044771428" />
    <line x1="485" y1="183.86533479473215" x2="492" y2="171.74097914175002" />
    <polyline points="506,171.74097914175002 513,183.86533479473215 506,195.98969044771428" />
    <polyline points="513,183.86533479473215 527,183.86533479473215 534,195.98969044771428" />
    <polyline points="527,183.86533479473215 534,171.74097914175002 548,171.74097914175002 555,183.86533479473215 569,183.86533479473215 576,195.98969044771428" />
    <line x1="569" y1="183.86533479473215" x2="576" y2="171.74097914175002" />
    <polyline points="597,183.86533479473215 611,183.86533479473215 618,195.98969044771428" />
    <polyline points="618,171.74097914175002 632,171.74097914175002 639,183.86533479473215 632,195.98969044771428" />
    <polyline points="639,183.86533479473215 653,183.86533479473215 660,195.98969044771428 653,208.11404610069641" />
    <polyline points="9,232.36275740666071 2,220.23840175367857 9,208.11404610069644" />
    <line x1="23" y1="208.11404610069644" x2="30" y2="220.23840175367857" />
    <polyline points="30,195.98969044771431 44,195.98969044771431 51,208.11404610069644 44,220.23840175367857" />
    <polyline points="51,208.11404610069644 65,208.11404610069644 72,195.98969044771431 86,195.98969044771431 93,208.11404610069644 86,220.23840175367857" />
    <polyline points="114,220.23840175367857 107,208.11404610069644 114,195.98969044771431 128,195.98969044771431" />
    <polyline points="128,220.23840175367857 135,208.11404610069644 149,208.11404610069644 156,195.98969044771431 170,195.98969044771431 177,208.11404610069644 170,220.23840175367857" />
    <polyline points="177,208.11404610069644 191,208.11404610069644 198,220.23840175367857" />
    <polyline points="198,195.98969044771431 212,195.98969044771431 219,208.11404610069644 212,220.23840175367857" />
    <polyline points="219,208.11404610069644 233,208.11404610069644 240,220.23840175367857" />
    <line x1="233" y1="208.11404610069644" x2="240" y2="195.98969044771431" />
    <polyline points="254,195.98969044771431 261,208.11404610069644 254,220.23840175367857" />
    <line x1="275" y1="208.11404610069644" x2="282" y2="220.23840175367857" />
    <polyline points="296,195.98969044771431 303,208.11404610069644 296,220.23840175367857" />
    <line x1="303" y1="208.11404610069644" x2="317" y2="208.11404610069644" />
    <polyline points="324,195.98969044771431 338,195.98969044771431 345,208.11404610069644 338,220.23840175367857" />
    <polyline points="366,220.23840175367857 359,208.11404610069644 366,195.98969044771431 380,195.98969044771431 387,208.11404610069644 380,220.23840175367857" />
    <polyline points="387,208.11404610069644 401,208.11404610069644 408,220.23840175367857" />
    <polyline points="401,208.11404610069644 408,195.98969044771431 422,195.98969044771431 429,208.11404610069644 422,220.23840175367857" />
    <polyline points="429,208.11404610069644 443,208.11404610069644 450,195.98969044771431 464,195.98969044771431 471,208.11404610069644 464,220.23840175367857" />
    <line x1="485" y1="208.11404610069644" x2="492" y2="220.23840175367857" />
    <polyline points="492,195.98969044771431 506,195.98969044771431 513,208.11404610069644 506,220.23840175367857" />
    <polyline points="513,208.11404610069644 527,208.11404610069644 534,220.23840175367857" />
    <polyline points="534,195.98969044771431 548,195.98969044771431 555,208.11404610069644 569,208.11404610069644 576,220.23840175367857" />
    <polyline points="590,195.98969044771431 597,208.11404610069644 590,220.23840175367857" />
    <polyline points="618,220.23840175367857 611,208.11404610069644 618,195.98969044771431 632,195.98969044771431 639,208.11404610069644" />
    <polyline points="653,208.11404610069644 660,220.23840175367857 653,232.36275740666071" />
    <polyline points="9,256.611468712625 2,244.48711305964287 9,232.36275740666073" />
    <polyline points="23,232.36275740666073 30,220.2384017536786 44,220.2384017536786 51,232.36275740666073 44,244.48711305964287" />
    <polyline points="72,244.48711305964287 65,232.36275740666073 72,220.2384017536786" />
    <line x1="86" y1="244.48711305964287" x2="93" y2="232.36275740666073" />
    <polyline points="114,244.48711305964287 107,232.36275740666073 114,220.2384017536786" />
    <polyline points="128,244.48711305964287 135,232.36275740666073 149,232.36275740666073 156,244.48711305964287" />
    <line x1="149" y1="232.36275740666073" x2="156" y2="220.2384017536786" />
    <polyline points="170,220.2384017536786 177,232.36275740666073 191,232.36275740666073 198,244.48711305964287" />
    <line x1="212" y1="220.2384017536786" x2="219" y2="232.36275740666073" />
    <polyline points="240,244.48711305964287 233,232.36275740666073 240,220.2384017536786 254,220.2384017536786" />
    <polyline points="254,244.48711305964287 261,232.36275740666073 275,232.36275740666073 282,244.48711305964287" />
    <polyline points="275,232.36275740666073 282,220.2384017536786 296,220.2384017536786" />
    <polyline points="296,244.48711305964287 303,232.36275740666073 317,232.36275740666073 324,220.2384017536786" />
    <polyline points="338,220.2384017536786 345,232.36275740666073 338,244.48711305964287" />
    <polyline points="345,232.36275740666073 359,232.36275740666073 366,244.48711305964287" />
    <line x1="380" y1="244.48711305964287" x2="387" y2="232.36275740666073" />
    <polyline points="408,244.48711305964287 401,232.36275740666073 408,220.2384017536786" />
    <polyline points="422,220.2384017536786 429,232.36275740666073 422,244.48711305964287" />
    <polyline points="443,232.36275740666073 450,220.2384017536786 464,220.2384017536786 471,232.36275740666073 464,244.48711305964287" />
    <polyline points="471,232.36275740666073 485,232.36275740666073 492,244.48711305964287" />
    <line x1="485" y1="232.36275740666073" x2="492" y2="220.2384017536786" />
    <line x1="506" y1="244.48711305964287" x2="513" y2="232.36275740666073" />
    <polyline points="534,244.48711305964287 527,232.36275740666073 534,220.2384017536786 548,220.2384017536786 555,232.36275740666073" />
    <polyline points="576,244.48711305964287 569,232.36275740666073 576,220.2384017536786 590,220.2384017536786" />
    <polyline points="590,244.48711305964287 597,232.36275740666073 611,232.36275740666073 618,244.48711305964287" />
    <polyline points="611,232.36275740666073 618,220.2384017536786 632,220.2384017536786" />
    <line x1="632" y1="244.48711305964287" x2="639" y2="232.36275740666073" />
    <polyline points="653,232.36275740666073 660,244.48711305964287 653,256.611468712625" />
    <polyline points="9,280.86018001858929 2,268.73582436560713 9,256.61146871262497" />
    <polyline points="30,268.73582436560713 23,256.61146871262497 30,244.48711305964284" />
    <polyline points="44,244.48711305964284 51,256.61146871262497 65,256.61146871262497 72,268.73582436560713" />
    <polyline points="65,256.61146871262497 72,244.48711305964284 86,244.48711305964284" />
    <line x1="86" y1="268.73582436560713" x2="93" y2="256.61146871262497" />
    <polyline points="114,268.73582436560713 107,256.61146871262497 114,244.48711305964284 128,244.48711305964284" />
    <line x1="128" y1="268.73582436560713" x2="135" y2="256.61146871262497" />
    <line x1="149" y1="256.61146871262497" x2="156" y2="268.73582436560713" />
    <polyline points="156,244.48711305964284 170,244.48711305964284 177,256.61146871262497 191,256.61146871262497 198,268.73582436560713" />
    <polyline points="198,244.48711305964284 212,244.48711305964284 219,256.61146871262497 212,268.73582436560713" />
    <polyline points="219,256.61146871262497 233,256.61146871262497 240,268.73582436560713" />
    <polyline points="233,256.61146871262497 240,244.48711305964284 254,244.48711305964284 261,256.61146871262497" />
    <line x1="275" y1="256.61146871262497" x2="282" y2="268.73582436560713" />
    <polyline points="296,244.48711305964284 303,256.61146871262497 317,256.61146871262497 324,244.48711305964284 338,244.48711305964284" />
    <polyline points="338,268.73582436560713 345,256.61146871262497 359,256.61146871262497 366,268.73582436560713" />
    <line x1="366" y1="244.48711305964284" x2="380" y2="244.48711305964284" />
    <line x1="380" y1="268.73582436560713" x2="387" y2="256.61146871262497" />
    <polyline points="408,268.73582436560713 401,256.61146871262497 408,244.48711305964284" />
    <polyline points="422,244.48711305964284 429,256.61146871262497 443,256.61146871262497 450,268.73582436560713" />
    <line x1="450" y1="244.48711305964284" x2="464" y2="244.48711305964284" />
    <line x1="464" y1="268.73582436560713" x2="471" y2="256.61146871262497" />
    <polyline points="492,268.73582436560713 485,256.61146871262497 492,244.48711305964284 506,244.48711305964284" />
    <polyline points="506,268.73582436560713 513,256.61146871262497 527,256.61146871262497 534,268.73582436560713" />
    <line x1="527" y1="256.61146871262497" x2="534" y2="244.48711305964284" />
    <polyline points="548,244.48711305964284 555,256.61146871262497 569,256.61146871262497 576,268.73582436560713" />
    <line x1="569" y1="256.61146871262497" x2="576" y2="244.48711305964284" />
    <polyline points="590,244.48711305964284 597,256.61146871262497 590,268.73582436560713" />
    <polyline points="618,268.73582436560713 611,256.61146871262497 618,244.48711305964284" />
    <polyline points="632,244.48711305964284 639,256.61146871262497 653,256.61146871262497 660,268.73582436560713 653,280.86018001858929" />
    <polyline points="9,305.10889132455355 2,292.98453567157139 9,280.86018001858923" />
    <polyline points="30,292.98453567157139 23,280.86018001858923 30,268.73582436560707 44,268.73582436560707 51,280.86018001858923 65,280.86018001858923 72,292.98453567157139" />
    <polyline points="86,268.73582436560707 93,280.86018001858923 86,292.98453567157139" />
    <polyline points="114,292.98453567157139 107,280.86018001858923 114,268.73582436560707" />
    <polyline points="128,268.73582436560707 135,280.86018001858923 149,280.86018001858923 156,292.98453567157139" />
    <polyline points="156,268.73582436560707 170,268.73582436560707 177,280.86018001858923 170,292.98453567157139" />
    <line x1="177" y1="280.86018001858923" x2="191" y2="280.86018001858923" />
    <line x1="198" y1="268.73582436560707" x2="212" y2="268.73582436560707" />
    <line x1="212" y1="292.98453567157139" x2="219" y2="280.86018001858923" />
    <polyline points="240,292.98453567157139 233,280.86018001858923 240,268.73582436560707" />
    <polyline points="254,268.73582436560707 261,280.86018001858923 254,292.98453567157139" />
    <polyline points="261,280.86018001858923 275,280.86018001858923 282,292.98453567157139" />
    <line x1="275" y1="280.86018001858923" x2="282" y2="268.73582436560707" />
    <polyline points="296,268.73582436560707 303,280.86018001858923 296,292.98453567157139" />
    <polyline points="324,292.98453567157139 317,280.86018001858923 324,268.73582436560707" />
    <polyline points="338,268.73582436560707 345,280.86018001858923 338,292.98453567157139" />
    <polyline points="359,280.86018001858923 366,268.73582436560707 380,268.73582436560707 387,280.86018001858923" />
    <polyline points="408,292.98453567157139 401,280.86018001858923 408,268.73582436560707" />
    <polyline points="422,268.73582436560707 429,280.86018001858923 422,292.98453567157139" />
    <polyline points="429,280.86018001858923 443,280.86018001858923 450,268.73582436560707 464,268.73582436560707 471,280.86018001858923" />
    <polyline points="492,292.98453567157139 485,280.86018001858923 492,268.73582436560707" />
    <line x1="506" y1="268.73582436560707" x2="513" y2="280.86018001858923" />
    <polyline points="527,280.86018001858923 534,268.73582436560707 548,268.73582436560707" />
    <polyline points="548,292.98453567157139 555,280.86018001858923 569,280.86018001858923 576,292.98453567157139" />
    <polyline points="590,292.98453567157139 597,280.86018001858923 611,280.86018001858923 618,268.73582436560707" />
    <polyline points="632,268.73582436560707 639,280.86018001858923 632,292.98453567157139" />
    <polyline points="653,280.86018001858923 660,292.98453567157139 653,305.10889132455355" />
    <polyline points="9,329.35760263051787 2,317.23324697753571 9,305.10889132455355" />
    <polyline points="30,317.23324697753571 23,305.10889132455355 30,292.98453567157139 44,292.98453567157139 51,305.10889132455355 65,305.10889132455355 72,317.23324697753571" />
    <polyline points="72,292.98453567157139 86,292.98453567157139 93,305.10889132455355 107,305.10889132455355 114,317.23324697753571" />
    <line x1="114" y1="292.98453567157139" x2="128" y2="292.98453567157139" />
    <polyline points="128,317.23324697753571 135,305.10889132455355 149,305.10889132455355 156,292.98453567157139" />
    <polyline points="170,292.98453567157139 177,305.10889132455355 170,317.23324697753571" />
    <polyline points="177,305.10889132455355 191,305.10889132455355 198,292.98453567157139 212,292.98453567157139 219,305.10889132455355 212,317.23324697753571" />
    <polyline points="240,317.23324697753571 233,305.10889132455355 240,292.98453567157139 254,292.98453567157139 261,305.10889132455355" />
    <line x1="275" y1="305.10889132455355" x2="282" y2="317.23324697753571" />
    <polyline points="282,292.98453567157139 296,292.98453567157139 303,305.10889132455355" />
    <polyline points="324,317.23324697753571 317,305.10889132455355 324,292.98453567157139 338,292.98453567157139 345,305.10889132455355 359,305.10889132455355 366,292.98453567157139 380,292.98453567157139 387,305.10889132455355 380,317.23324697753571" />
    <polyline points="408,317.23324697753571 401,305.10889132455355 408,292.98453567157139" />
    <line x1="422" y1="317.23324697753571" x2="429" y2="305.10889132455355" />
    <polyline points="450,317.23324697753571 443,305.10889132455355 450,292.98453567157139 464,292.98453567157139 471,305.10889132455355 485,305.10889132455355 492,292.98453567157139 506,292.98453567157139" />
    <polyline points="506,317.23324697753571 513,305.10889132455355 527,305.10889132455355 534,292.98453567157139" />
    <polyline points="548,317.23324697753571 555,305.10889132455355 569,305.10889132455355 576,317.23324697753571" />
    <polyline points="576,292.98453567157139 590,292.98453567157139 597,305.10889132455355 611,305.10889132455355" />
    <polyline points="618,292.98453567157139 632,292.98453567157139 639,305.10889132455355 632,317.23324697753571" />
    <polyline points="639,305.10889132455355 653,305.10889132455355 660,317.23324697753571 653,329.35760263051787" />
    <polyline points="9,353.60631393648214 2,341.4819582835 9,329.35760263051782" />
    <polyline points="30,341.4819582835 23,329.35760263051782 30,317.23324697753566 44,317.23324697753566" />
    <polyline points="51,329.35760263051782 65,329.35760263051782 72,341.4819582835" />
    <polyline points="65,329.35760263051782 72,317.23324697753566 86,317.23324697753566 93,329.35760263051782 107,329.35760263051782" />
    <polyline points="114,317.23324697753566 128,317.23324697753566 135,329.35760263051782 128,341.4819582835" />
    <polyline points="135,329.35760263051782 149,329.35760263051782 156,317.23324697753566" />
    <polyline points="170,317.23324697753566 177,329.35760263051782 170,341.4819582835" />
    <polyline points="177,329.35760263051782 191,329.35760263051782 198,341.4819582835" />
    <line x1="198" y1="317.23324697753566" x2="212" y2="317.23324697753566" />
    <polyline points="212,341.4819582835 219,329.35760263051782 233,329.35760263051782 240,341.4819582835" />
    <line x1="240" y1="317.23324697753566" x2="254" y2="317.23324697753566" />
    <polyline points="254,341.4819582835 261,329.35760263051782 275,329.35760263051782 282,341.4819582835" />
    <polyline points="282,317.23324697753566 296,317.23324697753566 303,329.35760263051782 317,329.35760263051782 324,341.4819582835" />
    <polyline points="317,329.35760263051782 324,317.23324697753566 338,317.23324697753566 345,329.35760263051782 359,329.35760263051782" />
    <polyline points="366,317.23324697753566 380,317.23324697753566 387,329.35760263051782 380,341.4819582835" />
    <line x1="401" y1="329.35760263051782" x2="408" y2="341.4819582835" />
    <line x1="408" y1="317.23324697753566" x2="422" y2="317.23324697753566" />
    <polyline points="422,341.4819582835 429,329.35760263051782 443,329.35760263051782 450,341.4819582835" />
    <polyline points="464,317.23324697753566 471,329.35760263051782 485,329.35760263051782 492,317.23324697753566 506,317.23324697753566 513,329.35760263051782 506,341.4819582835" />
    <polyline points="513,329.35760263051782 527,329.35760263051782 534,341.4819582835" />
    <polyline points="534,317.23324697753566 548,317.23324697753566 555,329.35760263051782 569,329.35760263051782 576,341.4819582835" />
    <line x1="576" y1="317.23324697753566" x2="590" y2="317.23324697753566" />
    <polyline points="590,341.4819582835 597,329.35760263051782 611,329.35760263051782 618,341.4819582835" />
    <line x1="618" y1="317.23324697753566" x2="632" y2="317.23324697753566" />
    <line x1="632" y1="341.4819582835" x2="639" y2="329.35760263051782" />
    <polyline points="653,329.35760263051782 660,341.4819582835 653,353.60631393648214" />
    <polyline points="9,377.8550252424464 2,365.73066958946424 9,353.60631393648208" />
    <polyline points="23,353.60631393648208 30,341.48195828349992 44,341.48195828349992 51,353.60631393648208 44,365.73066958946424" />
    <polyline points="72,365.73066958946424 65,353.60631393648208 72,341.48195828349992" />
    <polyline points="86,341.48195828349992 93,353.60631393648208 86,365.73066958946424" />
    <polyline points="93,353.60631393648208 107,353.60631393648208 114,365.73066958946424" />
    <polyline points="114,341.48195828349992 128,341.48195828349992 135,353.60631393648208 149,353.60631393648208 156,365.73066958946424" />
    <line x1="156" y1="341.48195828349992" x2="170" y2="341.48195828349992" />
    <polyline points="170,365.73066958946424 177,353.60631393648208 191,353.60631393648208 198,341.48195828349992 212,341.48195828349992" />
    <polyline points="212,365.73066958946424 219,353.60631393648208 233,353.60631393648208 240,365.73066958946424" />
    <polyline points="233,353.60631393648208 240,341.48195828349992 254,341.48195828349992" />
    <polyline points="261,353.60631393648208 275,353.60631393648208 282,365.73066958946424" />
    <polyline points="275,353.60631393648208 282,341.48195828349992 296,341.48195828349992" />
    <polyline points="303,353.60631393648208 317,353.60631393648208 324,341.48195828349992 338,341.48195828349992 345,353.60631393648208 338,365.73066958946424" />
    <line x1="359" y1="353.60631393648208" x2="366" y2="365.73066958946424" />
    <line x1="366" y1="341.48195828349992" x2="380" y2="341.48195828349992" />
    <polyline points="380,365.73066958946424 387,353.60631393648208 401,353.60631393648208 408,341.48195828349992" />
    <polyline points="422,365.73066958946424 429,353.60631393648208 443,353.60631393648208 450,341.48195828349992 464,341.48195828349992 471,353.60631393648208 464,365.73066958946424" />
    <polyline points="471,353.60631393648208 485,353.60631393648208 492,365.73066958946424" />
    <line x1="485" y1="353.60631393648208" x2="492" y2="341.48195828349992" />
    <polyline points="506,365.73066958946424 513,353.60631393648208 527,353.60631393648208 534,341.48195828349992 548,341.48195828349992 555,353.60631393648208 548,365.73066958946424" />
    <polyline points="569,353.60631393648208 576,341.48195828349992 590,341.48195828349992" />
    <line x1="590" y1="365.73066958946424" x2="597" y2="353.60631393648208" />
    <polyline points="618,365.73066958946424 611,353.60631393648208 618,341.48195828349992 632,341.48195828349992 639,353.60631393648208" />
    <polyline points="653,353.60631393648208 660,365.73066958946424 653,377.8550252424464" />
    <polyline points="9,402.10373654841072 2,389.97938089542856 9,377.8550252424464 23,377.8550252424464 30,389.97938089542856" />
    <polyline points="23,377.8550252424464 30,365.73066958946424 44,365.73066958946424" />
    <polyline points="44,389.97938089542856 51,377.8550252424464 65,377.8550252424464 72,365.73066958946424 86,365.73066958946424" />
    <line x1="86" y1="389.97938089542856" x2="93" y2="377.8550252424464" />
    <polyline points="107,377.8550252424464 114,365.73066958946424 128,365.73066958946424 135,377.8550252424464" />
    <polyline points="156,389.97938089542856 149,377.8550252424464 156,365.73066958946424" />
    <polyline points="170,389.97938089542856 177,377.8550252424464 191,377.8550252424464 198,365.73066958946424 212,365.73066958946424 219,377.8550252424464 212,389.97938089542856" />
    <polyline points="240,389.97938089542856 233,377.8550252424464 240,365.73066958946424" />
    <polyline points="254,365.73066958946424 261,377.8550252424464 254,389.97938089542856" />
    <polyline points="282,389.97938089542856 275,377.8550252424464 282,365.73066958946424 296,365.73066958946424" />
    <polyline points="296,389.97938089542856 303,377.8550252424464 317,377.8550252424464 324,389.97938089542856" />
    <polyline points="317,377.8550252424464 324,365.73066958946424 338,365.73066958946424 345,377.8550252424464" />
    <polyline points="366,389.97938089542856 359,377.8550252424464 366,365.73066958946424 380,365.73066958946424 387,377.8550252424464 401,377.8550252424464 408,389.97938089542856" />
    <polyline points="408,365.73066958946424 422,365.73066958946424 429,377.8550252424464 422,389.97938089542856" />
    <polyline points="450,389.97938089542856 443,377.8550252424464 450,365.73066958946424" />
    <polyline points="471,377.8550252424464 485,377.8550252424464 492,389.97938089542856" />
    <line x1="485" y1="377.8550252424464" x2="492" y2="365.73066958946424" />
    <polyline points="506,389.97938089542856 513,377.8550252424464 527,377.8550252424464 534,389.97938089542856" />
    <polyline points="527,377.8550252424464 534,365.73066958946424 548,365.73066958946424" />
    <polyline points="548,389.97938089542856 555,377.8550252424464 569,377.8550252424464 576,365.73066958946424 590,365.73066958946424" />
    <polyline points="590,389.97938089542856 597,377.8550252424464 611,377.8550252424464" />
    <polyline points="618,365.73066958946424 632,365.73066958946424 639,377.8550252424464 632,389.97938089542856" />
    <polyline points="653,377.8550252424464 660,389.97938089542856 653,402.10373654841072" />
    <polyline points="9,426.352447854375 2,414.22809220139283 9,402.10373654841067" />
    <line x1="23" y1="402.10373654841067" x2="30" y2="389.97938089542851" />
    <polyline points="44,389.97938089542851 51,402.10373654841067 44,414.22809220139283" />
    <polyline points="51,402.10373654841067 65,402.10373654841067 72,414.22809220139283" />
    <polyline points="65,402.10373654841067 72,389.97938089542851 86,389.97938089542851 93,402.10373654841067" />
    <polyline points="107,402.10373654841067 114,389.97938089542851 128,389.97938089542851 135,402.10373654841067 128,414.22809220139283" />
    <polyline points="135,402.10373654841067 149,402.10373654841067 156,414.22809220139283" />
    <polyline points="149,402.10373654841067 156,389.97938089542851 170,389.97938089542851" />
    <polyline points="170,414.22809220139283 177,402.10373654841067 191,402.10373654841067 198,414.22809220139283" />
    <polyline points="191,402.10373654841067 198,389.97938089542851 212,389.97938089542851 219,402.10373654841067 212,414.22809220139283" />
    <polyline points="240,414.22809220139283 233,402.10373654841067 240,389.97938089542851 254,389.97938089542851" />
    <polyline points="254,414.22809220139283 261,402.10373654841067 275,402.10373654841067 282,414.22809220139283" />
    <polyline points="275,402.10373654841067 282,389.97938089542851 296,389.97938089542851 303,402.10373654841067" />
    <polyline points="324,414.22809220139283 317,402.10373654841067 324,389.97938089542851 338,389.97938089542851 345,402.10373654841067 359,402.10373654841067 366,414.22809220139283" />
    <polyline points="359,402.10373654841067 366,389.97938089542851 380,389.97938089542851 387,402.10373654841067" />
    <polyline points="408,414.22809220139283 401,402.10373654841067 408,389.97938089542851" />
    <polyline points="422,389.97938089542851 429,402.10373654841067 443,402.10373654841067 450,414.22809220139283" />
    <polyline points="443,402.10373654841067 450,389.97938089542851 464,389.97938089542851" />
    <line x1="464" y1="414.22809220139283" x2="471" y2="402.10373654841067" />
    <polyline points="485,402.10373654841067 492,389.97938089542851 506,389.97938089542851 513,402.10373654841067 506,414.22809220139283" />
    <polyline points="513,402.10373654841067 527,402.10373654841067 534,414.22809220139283" />
    <line x1="534" y1="389.97938089542851" x2="548" y2="389.97938089542851" />
    <polyline points="548,414.22809220139283 555,402.10373654841067 569,402.10373654841067 576,414.22809220139283" />
    <polyline points="569,402.10373654841067 576,389.97938089542851 590,389.97938089542851" />
    <polyline points="590,414.22809220139283 597,402.10373654841067 611,402.10373654841067 618,389.97938089542851 632,389.97938089542851 639,402.10373654841067" />
    <polyline points="653,402.10373654841067 660,414.22809220139283 653,426.352447854375" />
    <polyline points="9,450.60115916033925 2,438.47680350735709 9,426.35244785437493 23,426.35244785437493" />
    <polyline points="30,414.22809220139277 44,414.22809220139277 51,426.35244785437493 44,438.47680350735709" />
    <polyline points="72,438.47680350735709 65,426.35244785437493 72,414.22809220139277" />
    <polyline points="86,414.22809220139277 93,426.35244785437493 86,438.47680350735709" />
    <polyline points="93,426.35244785437493 107,426.35244785437493 114,414.22809220139277 128,414.22809220139277" />
    <line x1="128" y1="438.47680350735709" x2="135" y2="426.35244785437493" />
    <line x1="149" y1="426.35244785437493" x2="156" y2="414.22809220139277" />
    <polyline points="170,414.22809220139277 177,426.35244785437493 191,426.35244785437493" />
    <line x1="212" y1="414.22809220139277" x2="219" y2="426.35244785437493" />
    <line x1="233" y1="426.35244785437493" x2="240" y2="438.47680350735709" />
    <polyline points="254,414.22809220139277 261,426.35244785437493 254,438.47680350735709" />
    <line x1="275" y1="426.35244785437493" x2="282" y2="438.47680350735709" />
    <polyline points="282,414.22809220139277 296,414.22809220139277 303,426.35244785437493 317,426.35244785437493 324,438.47680350735709" />
    <polyline points="338,414.22809220139277 345,426.35244785437493 359,426.35244785437493 366,438.47680350735709" />
    <line x1="359" y1="426.35244785437493" x2="366" y2="414.22809220139277" />
    <polyline points="380,414.22809220139277 387,426.35244785437493 380,438.47680350735709" />
    <polyline points="387,426.35244785437493 401,426.35244785437493 408,414.22809220139277 422,414.22809220139277 429,426.35244785437493" />
    <polyline points="450,438.47680350735709 443,426.35244785437493 450,414.22809220139277 464,414.22809220139277 471,426.35244785437493" />
    <polyline points="492,438.47680350735709 485,426.35244785437493 492,414.22809220139277" />
    <line x1="506" y1="438.47680350735709" x2="513" y2="426.35244785437493" />
    <polyline points="527,426.35244785437493 534,414.22809220139277 548,414.22809220139277" />
    <polyline points="548,438.47680350735709 555,426.35244785437493 569,426.35244785437493 576,438.47680350735709" />
    <polyline points="569,426.35244785437493 576,414.22809220139277 590,414.22809220139277" />
    <polyline points="597,426.35244785437493 611,426.35244785437493 618,414.22809220139277 632,414.22809220139277 639,426.35244785437493 632,438.47680350735709" />
    <polyline points="653,426.35244785437493 660,438.47680350735709 653,450.60115916033925" />
    <polyline points="9,474.84987046630357 2,462.72551481332141 9,450.60115916033925" />
    <line x1="23" y1="450.60115916033925" x2="30" y2="462.72551481332141" />
    <polyline points="30,438.47680350735709 44,438.47680350735709 51,450.60115916033925 44,462.72551481332141" />
    <polyline points="72,462.72551481332141 65,450.60115916033925 72,438.47680350735709" />
    <polyline points="86,438.47680350735709 93,450.60115916033925 86,462.72551481332141" />
    <polyline points="93,450.60115916033925 107,450.60115916033925 114,462.72551481332141" />
    <polyline points="114,438.47680350735709 128,438.47680350735709 135,450.60115916033925 128,462.72551481332141" />
    <polyline points="135,450.60115916033925 149,450.60115916033925 156,438.47680350735709" />
    <polyline points="170,438.47680350735709 177,450.60115916033925 170,462.72551481332141" />
    <polyline points="177,450.60115916033925 191,450.60115916033925 198,462.72551481332141" />
    <polyline points="191,450.60115916033925 198,438.47680350735709 212,438.47680350735709 219,450.60115916033925 212,462.72551481332141" />
    <polyline points="219,450.60115916033925 233,450.60115916033925 240,462.72551481332141" />
    <line x1="240" y1="438.47680350735709" x2="254" y2="438.47680350735709" />
    <polyline points="254,462.72551481332141 261,450.60115916033925 275,450.60115916033925 282,462.72551481332141" />
    <line x1="275" y1="450.60115916033925" x2="282" y2="438.47680350735709" />
    <polyline points="296,438.47680350735709 303,450.60115916033925 296,462.72551481332141" />
    <polyline points="303,450.60115916033925 317,450.60115916033925 324,462.72551481332141" />
    <polyline points="324,438.47680350735709 338,438.47680350735709 345,450.60115916033925 338,462.72551481332141" />
    <polyline points="366,462.72551481332141 359,450.60115916033925 366,438.47680350735709" />
    <polyline points="380,438.47680350735709 387,450.60115916033925 401,450.60115916033925 408,438.47680350735709 422,438.47680350735709 429,450.60115916033925 422,462.72551481332141" />
    <polyline points="450,462.72551481332141 443,450.60115916033925 450,438.47680350735709" />
    <polyline points="464,438.47680350735709 471,450.60115916033925 485,450.60115916033925 492,462.72551481332141" />
    <polyline points="485,450.60115916033925 492,438.47680350735709 506,438.47680350735709 513,450.60115916033925 506,462.72551481332141" />
    <polyline points="513,450.60115916033925 527,450.60115916033925 534,438.47680350735709 548,438.47680350735709 555,450.60115916033925" />
    <polyline points="576,462.72551481332141 569,450.60115916033925 576,438.47680350735709 590,438.47680350735709" />
    <polyline points="590,462.72551481332141 597,450.60115916033925 611,450.60115916033925 618,438.47680350735709 632,438.47680350735709 639,450.60115916033925 653,450.60115916033925 660,462.72551481332141 653,474.84987046630357" />
    <polyline points="9,499.09858177226783 2,486.97422611928567 9,474.84987046630351" />
    <polyline points="23,474.84987046630351 30,462.72551481332135 44,462.72551481332135" />
    <polyline points="51,474.84987046630351 65,474.84987046630351 72,486.97422611928567" />
    <line x1="86" y1="462.72551481332135" x2="93" y2="474.84987046630351" />
    <polyline points="114,486.97422611928567 107,474.84987046630351 114,462.72551481332135" />
    <polyline points="128,462.72551481332135 135,474.84987046630351 128,486.97422611928567" />
    <polyline points="135,474.84987046630351 149,474.84987046630351 156,486.97422611928567" />
    <polyline points="149,474.84987046630351 156,462.72551481332135 170,462.72551481332135" />
    <line x1="170" y1="486.97422611928567" x2="177" y2="474.84987046630351" />
    <line x1="191" y1="474.84987046630351" x2="198" y2="486.97422611928567" />
    <polyline points="212,462.72551481332135 219,474.84987046630351 212,486.97422611928567" />
    <polyline points="219,474.84987046630351 233,474.84987046630351 240,486.97422611928567" />
    <line x1="240" y1="462.72551481332135" x2="254" y2="462.72551481332135" />
    <polyline points="254,486.97422611928567 261,474.84987046630351 275,474.84987046630351 282,486.97422611928567" />
    <polyline points="275,474.84987046630351 282,462.72551481332135 296,462.72551481332135 303,474.84987046630351" />
    <line x1="317" y1="474.84987046630351" x2="324" y2="462.72551481332135" />
    <polyline points="338,486.97422611928567 345,474.84987046630351 359,474.84987046630351 366,486.97422611928567" />
    <line x1="359" y1="474.84987046630351" x2="366" y2="462.72551481332135" />
    <polyline points="380,462.72551481332135 387,474.84987046630351 380,486.97422611928567" />
    <polyline points="387,474.84987046630351 401,474.84987046630351 408,486.97422611928567" />
    <line x1="401" y1="474.84987046630351" x2="408" y2="462.72551481332135" />
    <polyline points="422,462.72551481332135 429,474.84987046630351 443,474.84987046630351 450,486.97422611928567" />
    <polyline points="450,462.72551481332135 464,462.72551481332135 471,474.84987046630351" />
    <line x1="485" y1="474.84987046630351" x2="492" y2="486.97422611928567" />
    <polyline points="506,462.72551481332135 513,474.84987046630351 527,474.84987046630351 534,486.97422611928567" />
    <polyline points="527,474.84987046630351 534,462.72551481332135 548,462.72551481332135" />
    <polyline points="548,486.97422611928567 555,474.84987046630351 569,474.84987046630351 576,486.97422611928567" />
    <polyline points="576,462.72551481332135 590,462.72551481332135 597,474.84987046630351" />
    <polyline points="618,486.97422611928567 611,474.84987046630351 618,462.72551481332135 632,462.72551481332135" />
    <polyline points="639,474.84987046630351 653,474.84987046630351 660,486.97422611928567 653,499.09858177226783" />
    <polyline points="9,523.347293078232 2,511.22293742524994 9,499.09858177226778 23,499.09858177226778 30,486.97422611928562 44,486.97422611928562 51,499.09858177226778 44,511.22293742524994" />
    <line x1="51" y1="499.09858177226778" x2="65" y2="499.09858177226778" />
    <polyline points="72,486.97422611928562 86,486.97422611928562 93,499.09858177226778 86,511.22293742524994" />
    <polyline points="93,499.09858177226778 107,499.09858177226778 114,486.97422611928562 128,486.97422611928562 135,499.09858177226778 149,499.09858177226778" />
    <polyline points="156,486.97422611928562 170,486.97422611928562 177,499.09858177226778 170,511.22293742524994" />
    <polyline points="198,511.22293742524994 191,499.09858177226778 198,486.97422611928562 212,486.97422611928562" />
    <polyline points="219,499.09858177226778 233,499.09858177226778 240,511.22293742524994" />
    <polyline points="254,486.97422611928562 261,499.09858177226778 254,511.22293742524994" />
    <line x1="275" y1="499.09858177226778" x2="282" y2="511.22293742524994" />
    <polyline points="296,486.97422611928562 303,499.09858177226778 296,511.22293742524994" />
    <polyline points="303,499.09858177226778 317,499.09858177226778 324,486.97422611928562 338,486.97422611928562 345,499.09858177226778 338,511.22293742524994" />
    <polyline points="366,511.22293742524994 359,499.09858177226778 366,486.97422611928562" />
    <polyline points="380,511.22293742524994 387,499.09858177226778 401,499.09858177226778 408,486.97422611928562" />
    <polyline points="422,486.97422611928562 429,499.09858177226778 422,511.22293742524994" />
    <polyline points="429,499.09858177226778 443,499.09858177226778 450,486.97422611928562 464,486.97422611928562" />
    <polyline points="464,511.22293742524994 471,499.09858177226778 485,499.09858177226778 492,486.97422611928562 506,486.97422611928562 513,499.09858177226778 506,511.22293742524994" />
    <polyline points="534,511.22293742524994 527,499.09858177226778 534,486.97422611928562 548,486.97422611928562" />
    <polyline points="555,499.09858177226778 569,499.09858177226778 576,511.22293742524994" />
    <polyline points="569,499.09858177226778 576,486.97422611928562 590,486.97422611928562" />
    <polyline points="597,499.09858177226778 611,499.09858177226778 618,511.22293742524994" />
    <polyline points="611,499.09858177226778 618,486.97422611928562 632,486.97422611928562 639,499.09858177226778" />
    <polyline points="653,499.09858177226778 660,511.22293742524994 653,523.347293078232" />
    <polyline points="9,547.59600438419636 2,535.47164873121426 9,523.34729307823216 23,523.34729307823216 30,535.47164873121426" />
    <polyline points="30,511.22293742525 44,511.22293742525 51,523.34729307823216" />
    <polyline points="65,523.34729307823216 72,511.22293742525 86,511.22293742525 93,523.34729307823216 86,535.47164873121426" />
    <polyline points="114,535.47164873121426 107,523.34729307823216 114,511.22293742525 128,511.22293742525 135,523.34729307823216 128,535.47164873121426" />
    <polyline points="135,523.34729307823216 149,523.34729307823216 156,535.47164873121426" />
    <polyline points="149,523.34729307823216 156,511.22293742525 170,511.22293742525" />
    <polyline points="170,535.47164873121426 177,523.34729307823216 191,523.34729307823216" />
    <line x1="198" y1="511.22293742525" x2="212" y2="511.22293742525" />
    <polyline points="212,535.47164873121426 219,523.34729307823216 233,523.34729307823216 240,535.47164873121426" />
    <polyline points="240,511.22293742525 254,511.22293742525 261,523.34729307823216 254,535.47164873121426" />
    <polyline points="282,535.47164873121426 275,523.34729307823216 282,511.22293742525 296,511.22293742525" />
    <polyline points="296,535.47164873121426 303,523.34729307823216 317,523.34729307823216 324,535.47164873121426" />
    <line x1="317" y1="523.34729307823216" x2="324" y2="511.22293742525" />
    <polyline points="338,535.47164873121426 345,523.34729307823216 359,523.34729307823216 366,535.47164873121426" />
    <polyline points="366,511.22293742525 380,511.22293742525 387,523.34729307823216 380,535.47164873121426" />
    <polyline points="387,523.34729307823216 401,523.34729307823216 408,535.47164873121426" />
    <line x1="401" y1="523.34729307823216" x2="408" y2="511.22293742525" />
    <line x1="422" y1="511.22293742525" x2="429" y2="523.34729307823216" />
    <polyline points="443,523.34729307823216 450,511.22293742525 464,511.22293742525" />
    <polyline points="464,535.47164873121426 471,523.34729307823216 485,523.34729307823216 492,511.22293742525 506,511.22293742525 513,523.34729307823216 506,535.47164873121426" />
    <polyline points="534,535.47164873121426 527,523.34729307823216 534,511.22293742525 548,511.22293742525 555,523.34729307823216 569,523.34729307823216" />
    <line x1="576" y1="511.22293742525" x2="590" y2="511.22293742525" />
    <polyline points="590,535.47164873121426 597,523.34729307823216 611,523.34729307823216 618,511.22293742525 632,511.22293742525 639,523.34729307823216" />
    <polyline points="653,523.34729307823216 660,535.47164873121426 653,547.59600438419636" />
    <polyline points="9,571.84471569016057 2,559.72036003717847 9,547.59600438419636 23,547.59600438419636 30,559.72036003717847" />
    <polyline points="30,535.47164873121426 44,535.47164873121426 51,547.59600438419636 65,547.59600438419636 72,559.72036003717847" />
    <line x1="65" y1="547.59600438419636" x2="72" y2="535.47164873121426" />
    <polyline points="86,559.72036003717847 93,547.59600438419636 107,547.59600438419636 114,535.47164873121426" />
    <line x1="128" y1="559.72036003717847" x2="135" y2="547.59600438419636" />
    <polyline points="149,547.59600438419636 156,535.47164873121426 170,535.47164873121426" />
    <polyline points="170,559.72036003717847 177,547.59600438419636 191,547.59600438419636 198,535.47164873121426 212,535.47164873121426" />
    <line x1="212" y1="559.72036003717847" x2="219" y2="547.59600438419636" />
    <polyline points="240,559.72036003717847 233,547.59600438419636 240,535.47164873121426" />
    <line x1="254" y1="535.47164873121426" x2="261" y2="547.59600438419636" />
    <line x1="275" y1="547.59600438419636" x2="282" y2="559.72036003717847" />
    <polyline points="296,535.47164873121426 303,547.59600438419636 296,559.72036003717847" />
    <line x1="317" y1="547.59600438419636" x2="324" y2="559.72036003717847" />
    <polyline points="338,535.47164873121426 345,547.59600438419636 338,559.72036003717847" />
    <polyline points="345,547.59600438419636 359,547.59600438419636 366,559.72036003717847" />
    <polyline points="366,535.47164873121426 380,535.47164873121426 387,547.59600438419636 380,559.72036003717847" />
    <line x1="387" y1="547.59600438419636" x2="401" y2="547.59600438419636" />
    <polyline points="408,535.47164873121426 422,535.47164873121426 429,547.59600438419636 422,559.72036003717847" />
    <polyline points="429,547.59600438419636 443,547.59600438419636 450,535.47164873121426 464,535.47164873121426" />
    <polyline points="471,547.59600438419636 485,547.59600438419636 492,559.72036003717847" />
    <line x1="485" y1="547.59600438419636" x2="492" y2="535.47164873121426" />
    <polyline points="506,535.47164873121426 513,547.59600438419636 506,559.72036003717847" />
    <polyline points="534,559.72036003717847 527,547.59600438419636 534,535.47164873121426 548,535.47164873121426" />
    <polyline points="548,559.72036003717847 555,547.59600438419636 569,547.59600438419636 576,559.72036003717847" />
    <polyline points="569,547.59600438419636 576,535.47164873121426 590,535.47164873121426" />
    <polyline points="590,559.72036003717847 597,547.59600438419636 611,547.59600438419636 618,559.72036003717847" />
    <polyline points="611,547.59600438419636 618,535.47164873121426 632,535.47164873121426 639,547.59600438419636" />
    <polyline points="653,547.59600438419636 660,559.72036003717847 653,571.84471569016057" />
    <polyline points="9,571.84471569016068 23,571.84471569016068 30,583.96907134314279" />
    <line x1="30" y1="559.72036003717858" x2="44" y2="559.72036003717858" />
    <line x1="44" y1="583.96907134314279" x2="51" y2="571.84471569016068" />
    <polyline points="72,583.96907134314279 65,571.84471569016068 72,559.72036003717858" />
    <polyline points="86,583.96907134314279 93,571.84471569016068 107,571.84471569016068 114,559.72036003717858 128,559.72036003717858" />
    <polyline points="135,571.84471569016068 149,571.84471569016068 156,583.96907134314279" />
    <polyline points="149,571.84471569016068 156,559.72036003717858 170,559.72036003717858" />
    <polyline points="170,583.96907134314279 177,571.84471569016068 191,571.84471569016068 198,559.72036003717858 212,559.72036003717858" />
    <line x1="212" y1="583.96907134314279" x2="219" y2="571.84471569016068" />
    <polyline points="240,583.96907134314279 233,571.84471569016068 240,559.72036003717858 254,559.72036003717858" />
    <polyline points="254,583.96907134314279 261,571.84471569016068 275,571.84471569016068 282,583.96907134314279" />
    <polyline points="275,571.84471569016068 282,559.72036003717858 296,559.72036003717858" />
    <polyline points="303,571.84471569016068 317,571.84471569016068 324,583.96907134314279" />
    <line x1="317" y1="571.84471569016068" x2="324" y2="559.72036003717858" />
    <polyline points="338,559.72036003717858 345,571.84471569016068 338,583.96907134314279" />
    <polyline points="366,583.96907134314279 359,571.84471569016068 366,559.72036003717858" />
    <polyline points="380,559.72036003717858 387,571.84471569016068 401,571.84471569016068 408,583.96907134314279" />
    <polyline points="408,559.72036003717858 422,559.72036003717858 429,571.84471569016068 443,571.84471569016068 450,583.96907134314279" />
    <polyline points="443,571.84471569016068 450,559.72036003717858 464,559.72036003717858" />
    <polyline points="471,571.84471569016068 485,571.84471569016068 492,583.96907134314279" />
    <line x1="485" y1="571.84471569016068" x2="492" y2="559.72036003717858" />
    <polyline points="506,559.72036003717858 513,571.84471569016068 527,571.84471569016068" />
    <polyline points="534,559.72036003717858 548,559.72036003717858 555,571.84471569016068" />
    <line x1="569" y1="571.84471569016068" x2="576" y2="583.96907134314279" />
    <polyline points="590,559.72036003717858 597,571.84471569016068 590,583.96907134314279" />
    <line x1="611" y1="571.84471569016068" x2="618" y2="583.96907134314279" />
    <polyline points="632,559.72036003717858 639,571.84471569016068 632,583.96907134314279" />
    <line x1="639" y1="571.84471569016068" x2="653" y2="571.84471569016068" />
    <polyline points="30,583.9690713431429 44,583.9690713431429 51,596.093426996125 65,596.093426996125 72,608.21778264910711" />
    <line x1="72" y1="583.9690713431429" x2="86" y2="583.9690713431429" />
    <polyline points="86,608.21778264910711 93,596.093426996125 107,596.093426996125 114,608.21778264910711" />
    <polyline points="107,596.093426996125 114,583.9690713431429 128,583.9690713431429 135,596.093426996125 149,596.093426996125 156,608.21778264910711" />
    <line x1="149" y1="596.093426996125" x2="156" y2="583.9690713431429" />
    <polyline points="170,583.9690713431429 177,596.093426996125 191,596.093426996125 198,608.21778264910711" />
    <polyline points="191,596.093426996125 198,583.9690713431429 212,583.9690713431429 219,596.093426996125 233,596.093426996125" />
    <polyline points="240,583.9690713431429 254,583.9690713431429 261,596.093426996125 254,608.21778264910711" />
    <polyline points="261,596.093426996125 275,596.093426996125 282,608.21778264910711" />
    <polyline points="282,583.9690713431429 296,583.9690713431429 303,596.093426996125 296,608.21778264910711" />
    <polyline points="324,608.21778264910711 317,596.093426996125 324,583.9690713431429" />
    <polyline points="338,583.9690713431429 345,596.093426996125 338,608.21778264910711" />
    <line x1="345" y1="596.093426996125" x2="359" y2="596.093426996125" />
    <polyline points="380,583.9690713431429 387,596.093426996125 401,596.093426996125 408,583.9690713431429 422,583.9690713431429" />
    <polyline points="429,596.093426996125 443,596.093426996125 450,583.9690713431429 464,583.9690713431429 471,596.093426996125 485,596.093426996125 492,583.9690713431429 506,583.9690713431429" />
    <polyline points="506,608.21778264910711 513,596.093426996125 527,596.093426996125 534,583.9690713431429 548,583.9690713431429 555,596.093426996125 569,596.093426996125 576,583.9690713431429" />
    <polyline points="590,583.9690713431429 597,596.093426996125 590,608.21778264910711" />
    <polyline points="597,596.093426996125 611,596.093426996125 618,583.9690713431429 632,583.9690713431429" />
    <polyline points="72,608.21778264910711 86,608.21778264910711 93,620.34213830208921 107,620.34213830208921 114,632.46649395507131" />
    <polyline points="128,608.21778264910711 135,620.34213830208921 128,632.46649395507131" />
    <polyline points="149,620.34213830208921 156,608.21778264910711 170,608.21778264910711 177,620.34213830208921" />
    <polyline points="198,632.46649395507131 191,620.34213830208921 198,608.21778264910711 212,608.21778264910711" />
    <polyline points="212,632.46649395507131 219,620.34213830208921 233,620.34213830208921 240,632.46649395507131" />
    <line x1="233" y1="620.34213830208921" x2="240" y2="608.21778264910711" />
    <line x1="254" y1="632.46649395507131" x2="261" y2="620.34213830208921" />
    <line x1="275" y1="620.34213830208921" x2="282" y2="608.21778264910711" />
    <polyline points="296,632.46649395507131 303,620.34213830208921 317,620.34213830208921 324,632.46649395507131" />
    <polyline points="324,608.21778264910711 338,608.21778264910711 345,620.34213830208921 359,620.34213830208921 366,632.46649395507131" />
    <polyline points="366,608.21778264910711 380,608.21778264910711 387,620.34213830208921 380,632.46649395507131" />
    <line x1="401" y1="620.34213830208921" x2="408" y2="632.46649395507131" />
    <polyline points="408,608.21778264910711 422,608.21778264910711 429,620.34213830208921 422,632.46649395507131" />
    <polyline points="429,620.34213830208921 443,620.34213830208921 450,632.46649395507131" />
    <polyline points="443,620.34213830208921 450,608.21778264910711 464,608.21778264910711 471,620.34213830208921 485,620.34213830208921 492,608.21778264910711 506,608.21778264910711 513,620.34213830208921 527,620.34213830208921" />
    <polyline points="534,608.21778264910711 548,608.21778264910711 555,620.34213830208921 548,632.46649395507131" />
    <polyline points="555,620.34213830208921 569,620.34213830208921 576,608.21778264910711 590,608.21778264910711" />
    <polyline points="114,632.46649395507143 128,632.46649395507143 135,644.59084960805353 149,644.59084960805353 156,656.71520526103563" />
    <line x1="149" y1="644.59084960805353" x2="156" y2="632.46649395507143" />
    <polyline points="170,632.46649395507143 177,644.59084960805353 170,656.71520526103563" />
    <polyline points="177,644.59084960805353 191,644.59084960805353 198,632.46649395507143 212,632.46649395507143" />
    <line x1="212" y1="656.71520526103563" x2="219" y2="644.59084960805353" />
    <polyline points="240,656.71520526103563 233,644.59084960805353 240,632.46649395507143 254,632.46649395507143" />
    <polyline points="261,644.59084960805353 275,644.59084960805353 282,632.46649395507143 296,632.46649395507143" />
    <polyline points="303,644.59084960805353 317,644.59084960805353 324,656.71520526103563" />
    <polyline points="317,644.59084960805353 324,632.46649395507143 338,632.46649395507143 345,644.59084960805353 338,656.71520526103563" />
    <line x1="359" y1="644.59084960805353" x2="366" y2="656.71520526103563" />
    <line x1="366" y1="632.46649395507143" x2="380" y2="632.46649395507143" />
    <polyline points="380,656.71520526103563 387,644.59084960805353 401,644.59084960805353 408,632.46649395507143 422,632.46649395507143" />
    <polyline points="429,644.59084960805353 443,644.59084960805353 450,656.71520526103563" />
    <line x1="450" y1="632.46649395507143" x2="464" y2="632.46649395507143" />
    <line x1="464" y1="656.71520526103563" x2="471" y2="644.59084960805353" />
    <polyline points="485,644.59084960805353 492,632.46649395507143 506,632.46649395507143 513,644.59084960805353 506,656.71520526103563" />
    <polyline points="513,644.59084960805353 527,644.59084960805353 534,632.46649395507143 548,632.46649395507143" />
    <polyline points="156,656.71520526103575 170,656.71520526103575 177,668.83956091401785 191,668.83956091401785 198,680.963916567" />
    <polyline points="191,668.83956091401785 198,656.71520526103575 212,656.71520526103575 219,668.83956091401785" />
    <line x1="233" y1="668.83956091401785" x2="240" y2="680.963916567" />
    <polyline points="240,656.71520526103575 254,656.71520526103575 261,668.83956091401785 254,680.963916567" />
    <polyline points="261,668.83956091401785 275,668.83956091401785 282,656.71520526103575" />
    <polyline points="296,656.71520526103575 303,668.83956091401785 296,680.963916567" />
    <polyline points="324,680.963916567 317,668.83956091401785 324,656.71520526103575" />
    <line x1="338" y1="656.71520526103575" x2="345" y2="668.83956091401785" />
    <polyline points="366,680.963916567 359,668.83956091401785 366,656.71520526103575" />
    <polyline points="380,656.71520526103575 387,668.83956091401785 380,680.963916567" />
    <polyline points="408,680.963916567 401,668.83956091401785 408,656.71520526103575 422,656.71520526103575 429,668.83956091401785" />
    <polyline points="450,680.963916567 443,668.83956091401785 450,656.71520526103575" />
    <polyline points="464,656.71520526103575 471,668.83956091401785 464,680.963916567" />
    <polyline points="471,668.83956091401785 485,668.83956091401785 492,656.71520526103575 506,656.71520526103575" />
    <polyline points="198,680.963916567 212,680.963916567 219,693.08827221998206 233,693.08827221998206 240,705.21262787296416" />
    <line x1="240" y1="680.963916567" x2="254" y2="680.963916567" />
    <polyline points="261,693.08827221998206 275,693.08827221998206 282,705.21262787296416" />
    <polyline points="275,693.08827221998206 282,680.963916567 296,680.963916567" />
    <polyline points="296,705.21262787296416 303,693.08827221998206 317,693.08827221998206 324,705.21262787296416" />
    <polyline points="317,693.08827221998206 324,680.963916567 338,680.963916567 345,693.08827221998206 359,693.08827221998206 366,705.21262787296416" />
    <polyline points="359,693.08827221998206 366,680.963916567 380,680.963916567" />
    <polyline points="380,705.21262787296416 387,693.08827221998206 401,693.08827221998206 408,680.963916567 422,680.963916567" />
    <polyline points="422,705.21262787296416 429,693.08827221998206 443,693.08827221998206 450,680.963916567 464,680.963916567" />
    <polyline points="240,705.21262787296428 254,705.21262787296428 261,717.33698352594638 275,717.33698352594638 282,729.46133917892848" />
    <polyline points="282,705.21262787296428 296,705.21262787296428 303,717.33698352594638" />
    <line x1="317" y1="717.33698352594638" x2="324" y2="729.46133917892848" />
    <polyline points="324,705.21262787296428 338,705.21262787296428 345,717.33698352594638 338,729.46133917892848" />
    <line x1="359" y1="717.33698352594638" x2="366" y2="729.46133917892848" />
    <polyline points="380,705.21262787296428 387,717.33698352594638 380,729.46133917892848" />
    <polyline points="387,717.33698352594638 401,717.33698352594638 408,705.21262787296428 422,705.21262787296428" />
    <polyline points="282,729.4613391789286 296,729.4613391789286 303,741.5856948319107 317,741.5856948319107 324,753.7100504848928" />
    <polyline points="317,741.5856948319107 324,729.4613391789286 338,729.4613391789286" />
    <polyline points="338,753.7100504848928 345,741.5856948319107 359,741.5856948319107 366,729.4613391789286 380,729.4613391789286" />
  </g>
  <polyline fill="none" stroke="#ff0000" stroke-width="2" stroke-linecap="square" stroke-linejoin="round" points="331,2.0000000000000391 331,38.37306695894646 352,50.4974226119286 373,38.37306695894646 394,50.4974226119286 373,62.621778264910738 394,74.746133917892877 415,62.621778264910738 436,74.746133917892877 436,98.994845223857169 457,111.1192008768393 436,123.24355652982145 457,135.36791218280359 436,147.49226783578573 436,171.74097914175002 394,195.98969044771428 352,171.74097914175002 352,220.23840175367857 373,232.36275740666073 394,220.23840175367857 394,317.23324697753571 415,329.35760263051782 415,353.60631393648208 394,365.73066958946424 415,377.8550252424464 415,402.10373654841067 436,414.22809220139283 436,462.72551481332141 478,486.97422611928567 478,462.72551481332141 520,486.97422611928567 520,559.72036003717847 562,583.96907134314279 562,559.72036003717847 583,571.84471569016068 583,596.093426996125 562,608.21778264910711 541,596.093426996125 520,608.21778264910711 541,620.34213830208921 520,632.46649395507131 499,620.34213830208921 457,644.59084960805353 436,632.46649395507131 394,656.71520526103563 394,680.963916567 373,693.08827221998206 373,717.33698352594638 352,705.21262787296416 352,729.46133917892848 331,741.5856948319107 331,753.7100504848928" />
  <type>Hexagonal</type>
</svg>