<?xml version="1.0" encoding="utf-8" standalone="no"?>
<!DOCTYPE svg PUBLIC "-//W3C//DTD SVG 1.1//EN" "http://www.w3.org/Graphics/SVG/1.1/DTD/svg11.dtd"[]>
<svg width="662" height="767.83440613787491" version="1.1" xmlns="http://www.w3.org/2000/svg">
  <title>Hexagonal sigma maze with 16 cells side</title>
  <g fill="none" stroke="#000000" stroke-width="2" stroke-linecap="round" stroke-linejoin="round">
    <polyline points="296,26.248711305964321 303,14.12435565298218 317,14.12435565298218 324,2.0000000000000391" />
    <polyline points="338,2.0000000000000391 345,14.12435565298218 359,14.12435565298218 366,26.248711305964321" />
    <polyline points="254,50.4974226119286 261,38.37306695894646 275,38.37306695894646 282,26.248711305964321 296,26.248711305964321 303,38.37306695894646 317,38.37306695894646 324,50.4974226119286" />
    <polyline points="324,26.248711305964321 338,26.248711305964321 345,38.37306695894646 338,50.4974226119286" />
    <polyline points="345,38.37306695894646 359,38.37306695894646 366,50.4974226119286" />
    <polyline points="366,26.248711305964321 380,26.248711305964321 387,38.37306695894646 401,38.37306695894646 408,50.4974226119286" />
    <polyline points="212,74.746133917892877 219,62.621778264910738 233,62.621778264910738 240,50.4974226119286 254,50.4974226119286 261,62.621778264910738 254,74.746133917892877" />
    <line x1="275" y1="62.621778264910738" x2="282" y2="74.746133917892877" />
    <polyline points="282,50.4974226119286 296,50.4974226119286 303,62.621778264910738 296,74.746133917892877" />
    <polyline points="324,74.746133917892877 317,62.621778264910738 324,50.4974226119286" />
    <polyline points="338,50.4974226119286 345,62.621778264910738 359,62.621778264910738 366,74.746133917892877" />
    <polyline points="366,50.4974226119286 380,50.4974226119286 387,62.621778264910738 380,74.746133917892877" />
    <polyline points="387,62.621778264910738 401,62.621778264910738 408,74.746133917892877" />
    <polyline points="408,50.4974226119286 422,50.4974226119286 429,62.621778264910738 422,74.746133917892877" />
    <polyline points="429,62.621778264910738 443,62.621778264910738 450,74.746133917892877" />
    <polyline points="170,98.994845223857169 177,86.870489570875023 191,86.870489570875023 198,98.994845223857169" />
    <polyline points="191,86.870489570875023 198,74.746133917892877 212,74.746133917892877" />
    <polyline points="212,98.994845223857169 219,86.870489570875023 233,86.870489570875023 240,74.746133917892877" />
    <polyline points="254,74.746133917892877 261,86.870489570875023 254,98.994845223857169" />
    <polyline points="275,86.870489570875023 282,74.746133917892877 296,74.746133917892877 303,86.870489570875023 296,98.994845223857169" />
    <polyline points="324,98.994845223857169 317,86.870489570875023 324,74.746133917892877 338,74.746133917892877" />
    <polyline points="345,86.870489570875023 359,86.870489570875023 366,98.994845223857169" />
    <line x1="380" y1="98.994845223857169" x2="387" y2="86.870489570875023" />
    <polyline points="401,86.870489570875023 408,74.746133917892877 422,74.746133917892877" />
    <polyline points="422,98.994845223857169 429,86.870489570875023 443,86.870489570875023" />
    <polyline points="450,74.746133917892877 464,74.746133917892877 471,86.870489570875023 464,98.994845223857169" />
    <polyline points="471,86.870489570875023 485,86.870489570875023 492,98.994845223857169" />
    <polyline points="128,123.24355652982145 135,111.1192008768393 149,111.1192008768393 156,123.24355652982145" />
    <polyline points="149,111.1192008768393 156,98.994845223857155 170,98.994845223857155" />
    <polyline points="170,123.24355652982145 177,111.1192008768393 191,111.1192008768393 198,123.24355652982145" />
    <polyline points="212,98.994845223857155 219,111.1192008768393 212,123.24355652982145" />
    <polyline points="219,111.1192008768393 233,111.1192008768393 240,98.994845223857155 254,98.994845223857155 261,111.1192008768393 275,111.1192008768393" />
    <polyline points="282,98.994845223857155 296,98.994845223857155 303,111.1192008768393 296,123.24355652982145" />
    <polyline points="303,111.1192008768393 317,111.1192008768393 324,123.24355652982145" />
    <line x1="324" y1="98.994845223857155" x2="338" y2="98.994845223857155" />
    <polyline points="338,123.24355652982145 345,111.1192008768393 359,111.1192008768393 366,123.24355652982145" />
    <polyline points="359,111.1192008768393 366,98.994845223857155 380,98.994845223857155 387,111.1192008768393 401,111.1192008768393 408,98.994845223857155 422,98.994845223857155" />
    <polyline points="422,123.24355652982145 429,111.1192008768393 443,111.1192008768393 450,98.994845223857155 464,98.994845223857155" />
    <polyline points="464,123.24355652982145 471,111.1192008768393 485,111.1192008768393 492,123.24355652982145" />
    <polyline points="492,98.994845223857155 506,98.994845223857155 513,111.1192008768393 527,111.1192008768393 534,123.24355652982145" />
    <polyline points="86,147.49226783578573 93,135.36791218280359 107,135.36791218280359 114,147.49226783578573" />
    <polyline points="107,135.36791218280359 114,123.24355652982145 128,123.24355652982145" />
    <line x1="128" y1="147.49226783578573" x2="135" y2="135.36791218280359" />
    <line x1="149" y1="135.36791218280359" x2="156" y2="123.24355652982145" />
    <line x1="170" y1="123.24355652982145" x2="177" y2="135.36791218280359" />
    <line x1="191" y1="135.36791218280359" x2="198" y2="147.49226783578573" />
    <line x1="198" y1="123.24355652982145" x2="212" y2="123.24355652982145" />
    <polyline points="212,147.49226783578573 219,135.36791218280359 233,135.36791218280359 240,123.24355652982145 254,123.24355652982145 261,135.36791218280359 254,147.49226783578573" />
    <polyline points="261,135.36791218280359 275,135.36791218280359 282,123.24355652982145 296,123.24355652982145" />
    <line x1="296" y1="147.49226783578573" x2="303" y2="135.36791218280359" />
    <polyline points="317,135.36791218280359 324,123.24355652982145 338,123.24355652982145" />
    <polyline points="338,147.49226783578573 345,135.36791218280359 359,135.36791218280359 366,147.49226783578573" />
    <line x1="359" y1="135.36791218280359" x2="366" y2="123.24355652982145" />
    <polyline points="380,123.24355652982145 387,135.36791218280359 401,135.36791218280359 408,123.24355652982145 422,123.24355652982145" />
    <polyline points="422,147.49226783578573 429,135.36791218280359 443,135.36791218280359 450,123.24355652982145 464,123.24355652982145 471,135.36791218280359 464,147.49226783578573" />
    <line x1="485" y1="135.36791218280359" x2="492" y2="147.49226783578573" />
    <polyline points="492,123.24355652982145 506,123.24355652982145 513,135.36791218280359 527,135.36791218280359 534,147.49226783578573" />
    <polyline points="534,123.24355652982145 548,123.24355652982145 555,135.36791218280359 569,135.36791218280359 576,147.49226783578573" />
    <polyline points="44,171.74097914175002 51,159.61662348876789 65,159.61662348876789 72,171.74097914175002" />
    <polyline points="65,159.61662348876789 72,147.49226783578575 86,147.49226783578575 93,159.61662348876789" />
    <polyline points="114,171.74097914175002 107,159.61662348876789 114,147.49226783578575" />
    <polyline points="128,147.49226783578575 135,159.61662348876789 128,171.74097914175002" />
    <polyline points="135,159.61662348876789 149,159.61662348876789 156,147.49226783578575 170,147.49226783578575 177,159.61662348876789 170,171.74097914175002" />
    <polyline points="177,159.61662348876789 191,159.61662348876789 198,171.74097914175002" />
    <polyline points="191,159.61662348876789 198,147.49226783578575 212,147.49226783578575 219,159.61662348876789" />
    <polyline points="240,171.74097914175002 233,159.61662348876789 240,147.49226783578575 254,147.49226783578575 261,159.61662348876789 275,159.61662348876789" />
    <polyline points="282,147.49226783578575 296,147.49226783578575 303,159.61662348876789 296,171.74097914175002" />
    <polyline points="303,159.61662348876789 317,159.61662348876789 324,171.74097914175002" />
    <line x1="317" y1="159.61662348876789" x2="324" y2="147.49226783578575" />
    <line x1="338" y1="171.74097914175002" x2="345" y2="159.61662348876789" />
    <line x1="359" y1="159.61662348876789" x2="366" y2="171.74097914175002" />
    <polyline points="366,147.49226783578575 380,147.49226783578575 387,159.61662348876789 401,159.61662348876789 408,171.74097914175002" />
    <polyline points="401,159.61662348876789 408,147.49226783578575 422,147.49226783578575" />
    <polyline points="422,171.74097914175002 429,159.61662348876789 443,159.61662348876789 450,171.74097914175002" />
    <polyline points="443,159.61662348876789 450,147.49226783578575 464,147.49226783578575 471,159.61662348876789 485,159.61662348876789" />
    <polyline points="492,147.49226783578575 506,147.49226783578575 513,159.61662348876789 506,171.74097914175002" />
    <line x1="513" y1="159.61662348876789" x2="527" y2="159.61662348876789" />
    <line x1="534" y1="147.49226783578575" x2="548" y2="147.49226783578575" />
    <polyline points="548,171.74097914175002 555,159.61662348876789 569,159.61662348876789 576,147.49226783578575 590,147.49226783578575 597,159.61662348876789 590,171.74097914175002" />
    <polyline points="597,159.61662348876789 611,159.61662348876789 618,171.74097914175002" />
    <polyline points="9,208.11404610069641 2,195.98969044771428 9,183.86533479473215 23,183.86533479473215 30,171.74097914175002 44,171.74097914175002" />
    <polyline points="44,195.98969044771428 51,183.86533479473215 65,183.86533479473215 72,195.98969044771428" />
    <line x1="72" y1="171.74097914175002" x2="86" y2="171.74097914175002" />
    <polyline points="86,195.98969044771428 93,183.86533479473215 107,183.86533479473215 114,171.74097914175002" />
    <polyline points="128,171.74097914175002 135,183.86533479473215 128,195.98969044771428" />
    <polyline points="156,195.98969044771428 149,183.86533479473215 156,171.74097914175002" />
    <polyline points="170,195.98969044771428 177,183.86533479473215 191,183.86533479473215" />
    <polyline points="212,171.74097914175002 219,183.86533479473215 212,195.98969044771428" />
    <polyline points="219,183.86533479473215 233,183.86533479473215 240,195.98969044771428" />
    <polyline points="254,171.74097914175002 261,183.86533479473215 254,195.98969044771428" />
    <polyline points="261,183.86533479473215 275,183.86533479473215 282,195.98969044771428" />
    <polyline points="275,183.86533479473215 282,171.74097914175002 296,171.74097914175002 303,183.86533479473215" />
    <line x1="317" y1="183.86533479473215" x2="324" y2="195.98969044771428" />
    <line x1="324" y1="171.74097914175002" x2="338" y2="171.74097914175002" />
    <polyline points="338,195.98969044771428 345,183.86533479473215 359,183.86533479473215 366,195.98969044771428" />
    <polyline points="359,183.86533479473215 366,171.74097914175002 380,171.74097914175002" />
    <polyline points="387,183.86533479473215 401,183.86533479473215 408,195.98969044771428" />
    <line x1="401" y1="183.86533479473215" x2="408" y2="171.74097914175002" />
    <line x1="422" y1="171.74097914175002" x2="429" y2="183.86533479473215" />
    <polyline points="450,195.98969044771428 443,183.86533479473215 450,171.74097914175002" />
    <polyline points="464,171.74097914175002 471,183.86533479473215 464,195.98969044771428" />
    <polyline points="471,183.86533479473215 485,183.86533479473215 492,171.74097914175002 506,171.74097914175002" />
    <polyline points="506,195.98969044771428 513,183.86533479473215 527,183.86533479473215 534,171.74097914175002 548,171.74097914175002" />
    <polyline points="548,195.98969044771428 555,183.86533479473215 569,183.86533479473215 576,171.74097914175002 590,171.74097914175002" />
    <line x1="590" y1="195.98969044771428" x2="597" y2="183.86533479473215" />
    <line x1="611" y1="183.86533479473215" x2="618" y2="195.98969044771428" />
    <polyline points="618,171.74097914175002 632,171.74097914175002 639,183.86533479473215 653,183.86533479473215 660,195.98969044771428 653,208.11404610069641" />
    <polyline points="9,232.36275740666071 2,220.23840175367857 9,208.11404610069644" />
    <polyline points="30,220.23840175367857 23,208.11404610069644 30,195.98969044771431 44,195.98969044771431" />
    <polyline points="51,208.11404610069644 65,208.11404610069644 72,220.23840175367857" />
    <polyline points="86,195.98969044771431 93,208.11404610069644 107,208.11404610069644 114,220.23840175367857" />
    <polyline points="114,195.98969044771431 128,195.98969044771431 135,208.11404610069644 128,220.23840175367857" />
    <polyline points="135,208.11404610069644 149,208.11404610069644 156,220.23840175367857" />
    <polyline points="156,195.98969044771431 170,195.98969044771431 177,208.11404610069644 170,220.23840175367857" />
    <polyline points="177,208.11404610069644 191,208.11404610069644 198,220.23840175367857" />
    <line x1="198" y1="195.98969044771431" x2="212" y2="195.98969044771431" />
    <polyline points="212,220.23840175367857 219,208.11404610069644 233,208.11404610069644 240,195.98969044771431 254,195.98969044771431" />
    <polyline points="254,220.23840175367857 261,208.11404610069644 275,208.11404610069644 282,220.23840175367857" />
    <polyline points="296,195.98969044771431 303,208.11404610069644 296,220.23840175367857" />
    <polyline points="303,208.11404610069644 317,208.11404610069644 324,220.23840175367857" />
    <polyline points="317,208.11404610069644 324,195.98969044771431 338,195.98969044771431" />
    <polyline points="338,220.23840175367857 345,208.11404610069644 359,208.11404610069644 366,220.23840175367857" />
    <polyline points="359,208.11404610069644 366,195.98969044771431 380,195.98969044771431" />
    <polyline points="380,220.23840175367857 387,208.11404610069644 401,208.11404610069644 408,220.23840175367857" />
    <line x1="401" y1="208.11404610069644" x2="408" y2="195.98969044771431" />
    <polyline points="422,195.98969044771431 429,208.11404610069644 443,208.11404610069644 450,220.23840175367857" />
    <line x1="443" y1="208.11404610069644" x2="450" y2="195.98969044771431" />
    <polyline points="464,195.98969044771431 471,208.11404610069644 485,208.11404610069644 492,220.23840175367857" />
    <line x1="485" y1="208.11404610069644" x2="492" y2="195.98969044771431" />
    <polyline points="513,208.11404610069644 527,208.11404610069644 534,220.23840175367857" />
    <polyline points="527,208.11404610069644 534,195.98969044771431 548,195.98969044771431 555,208.11404610069644 569,208.11404610069644 576,195.98969044771431 590,195.98969044771431" />
    <polyline points="590,220.23840175367857 597,208.11404610069644 611,208.11404610069644 618,195.98969044771431 632,195.98969044771431 639,208.11404610069644" />
    <polyline points="653,208.11404610069644 660,220.23840175367857 653,232.36275740666071" />
    <polyline points="9,256.611468712625 2,244.48711305964287 9,232.36275740666073 23,232.36275740666073 30,220.2384017536786 44,220.2384017536786 51,232.36275740666073 44,244.48711305964287" />
    <polyline points="65,232.36275740666073 72,220.2384017536786 86,220.2384017536786 93,232.36275740666073 86,244.48711305964287" />
    <polyline points="114,244.48711305964287 107,232.36275740666073 114,220.2384017536786" />
    <line x1="128" y1="244.48711305964287" x2="135" y2="232.36275740666073" />
    <polyline points="156,244.48711305964287 149,232.36275740666073 156,220.2384017536786 170,220.2384017536786" />
    <polyline points="170,244.48711305964287 177,232.36275740666073 191,232.36275740666073 198,244.48711305964287" />
    <polyline points="198,220.2384017536786 212,220.2384017536786 219,232.36275740666073 212,244.48711305964287" />
    <polyline points="240,244.48711305964287 233,232.36275740666073 240,220.2384017536786 254,220.2384017536786" />
    <polyline points="254,244.48711305964287 261,232.36275740666073 275,232.36275740666073 282,220.2384017536786 296,220.2384017536786 303,232.36275740666073 296,244.48711305964287" />
    <polyline points="324,244.48711305964287 317,232.36275740666073 324,220.2384017536786" />
    <polyline points="338,220.2384017536786 345,232.36275740666073 338,244.48711305964287" />
    <line x1="359" y1="232.36275740666073" x2="366" y2="244.48711305964287" />
    <polyline points="380,220.2384017536786 387,232.36275740666073 380,244.48711305964287" />
    <line x1="401" y1="232.36275740666073" x2="408" y2="244.48711305964287" />
    <line x1="408" y1="220.2384017536786" x2="422" y2="220.2384017536786" />
    <polyline points="422,244.48711305964287 429,232.36275740666073 443,232.36275740666073 450,220.2384017536786 464,220.2384017536786 471,232.36275740666073 485,232.36275740666073 492,244.48711305964287" />
    <polyline points="492,220.2384017536786 506,220.2384017536786 513,232.36275740666073 527,232.36275740666073 534,220.2384017536786" />
    <polyline points="548,220.2384017536786 555,232.36275740666073 569,232.36275740666073 576,220.2384017536786 590,220.2384017536786 597,232.36275740666073 611,232.36275740666073 618,244.48711305964287" />
    <polyline points="618,220.2384017536786 632,220.2384017536786 639,232.36275740666073 653,232.36275740666073 660,244.48711305964287 653,256.611468712625" />
    <polyline points="9,280.86018001858929 2,268.73582436560713 9,256.61146871262497 23,256.61146871262497" />
    <polyline points="30,244.48711305964284 44,244.48711305964284 51,256.61146871262497 65,256.61146871262497 72,244.48711305964284" />
    <polyline points="86,244.48711305964284 93,256.61146871262497 107,256.61146871262497 114,268.73582436560713" />
    <polyline points="114,244.48711305964284 128,244.48711305964284 135,256.61146871262497 128,268.73582436560713" />
    <polyline points="135,256.61146871262497 149,256.61146871262497 156,268.73582436560713" />
    <polyline points="170,244.48711305964284 177,256.61146871262497 170,268.73582436560713" />
    <polyline points="198,268.73582436560713 191,256.61146871262497 198,244.48711305964284" />
    <line x1="212" y1="244.48711305964284" x2="219" y2="256.61146871262497" />
    <polyline points="240,268.73582436560713 233,256.61146871262497 240,244.48711305964284" />
    <polyline points="254,244.48711305964284 261,256.61146871262497 254,268.73582436560713" />
    <polyline points="282,268.73582436560713 275,256.61146871262497 282,244.48711305964284" />
    <polyline points="296,268.73582436560713 303,256.61146871262497 317,256.61146871262497 324,268.73582436560713" />
    <polyline points="338,244.48711305964284 345,256.61146871262497 338,268.73582436560713" />
    <polyline points="345,256.61146871262497 359,256.61146871262497 366,268.73582436560713" />
    <line x1="366" y1="244.48711305964284" x2="380" y2="244.48711305964284" />
    <polyline points="380,268.73582436560713 387,256.61146871262497 401,256.61146871262497 408,268.73582436560713" />
    <line x1="401" y1="256.61146871262497" x2="408" y2="244.48711305964284" />
    <line x1="422" y1="268.73582436560713" x2="429" y2="256.61146871262497" />
    <polyline points="450,268.73582436560713 443,256.61146871262497 450,244.48711305964284 464,244.48711305964284 471,256.61146871262497 485,256.61146871262497 492,268.73582436560713" />
    <polyline points="492,244.48711305964284 506,244.48711305964284 513,256.61146871262497 506,268.73582436560713" />
    <polyline points="513,256.61146871262497 527,256.61146871262497 534,268.73582436560713" />
    <polyline points="527,256.61146871262497 534,244.48711305964284 548,244.48711305964284 555,256.61146871262497 569,256.61146871262497 576,268.73582436560713" />
    <polyline points="569,256.61146871262497 576,244.48711305964284 590,244.48711305964284" />
    <polyline points="590,268.73582436560713 597,256.61146871262497 611,256.61146871262497 618,268.73582436560713" />
    <polyline points="611,256.61146871262497 618,244.48711305964284 632,244.48711305964284" />
    <polyline points="639,256.61146871262497 653,256.61146871262497 660,268.73582436560713 653,280.86018001858929" />
    <polyline points="9,305.10889132455355 2,292.98453567157139 9,280.86018001858923 23,280.86018001858923 30,268.73582436560707 44,268.73582436560707 51,280.86018001858923 44,292.98453567157139" />
    <polyline points="51,280.86018001858923 65,280.86018001858923 72,292.98453567157139" />
    <polyline points="65,280.86018001858923 72,268.73582436560707 86,268.73582436560707 93,280.86018001858923 107,280.86018001858923 114,292.98453567157139" />
    <line x1="114" y1="268.73582436560707" x2="128" y2="268.73582436560707" />
    <line x1="128" y1="292.98453567157139" x2="135" y2="280.86018001858923" />
    <polyline points="156,292.98453567157139 149,280.86018001858923 156,268.73582436560707 170,268.73582436560707" />
    <line x1="170" y1="292.98453567157139" x2="177" y2="280.86018001858923" />
    <polyline points="191,280.86018001858923 198,268.73582436560707 212,268.73582436560707 219,280.86018001858923 233,280.86018001858923 240,292.98453567157139" />
    <line x1="233" y1="280.86018001858923" x2="240" y2="268.73582436560707" />
    <polyline points="254,268.73582436560707 261,280.86018001858923 254,292.98453567157139" />
    <line x1="275" y1="280.86018001858923" x2="282" y2="292.98453567157139" />
    <line x1="282" y1="268.73582436560707" x2="296" y2="268.73582436560707" />
    <polyline points="296,292.98453567157139 303,280.86018001858923 317,280.86018001858923 324,292.98453567157139" />
    <line x1="317" y1="280.86018001858923" x2="324" y2="268.73582436560707" />
    <line x1="338" y1="268.73582436560707" x2="345" y2="280.86018001858923" />
    <line x1="359" y1="280.86018001858923" x2="366" y2="292.98453567157139" />
    <line x1="366" y1="268.73582436560707" x2="380" y2="268.73582436560707" />
    <polyline points="380,292.98453567157139 387,280.86018001858923 401,280.86018001858923 408,268.73582436560707 422,268.73582436560707 429,280.86018001858923 422,292.98453567157139" />
    <polyline points="450,292.98453567157139 443,280.86018001858923 450,268.73582436560707" />
    <polyline points="464,268.73582436560707 471,280.86018001858923 485,280.86018001858923 492,292.98453567157139" />
    <line x1="492" y1="268.73582436560707" x2="506" y2="268.73582436560707" />
    <polyline points="506,292.98453567157139 513,280.86018001858923 527,280.86018001858923 534,292.98453567157139" />
    <polyline points="548,268.73582436560707 555,280.86018001858923 548,292.98453567157139" />
    <polyline points="555,280.86018001858923 569,280.86018001858923 576,292.98453567157139" />
    <line x1="576" y1="268.73582436560707" x2="590" y2="268.73582436560707" />
    <polyline points="590,292.98453567157139 597,280.86018001858923 611,280.86018001858923 618,292.98453567157139" />
    <polyline points="618,268.73582436560707 632,268.73582436560707 639,280.86018001858923" />
    <polyline points="653,280.86018001858923 660,292.98453567157139 653,305.10889132455355" />
    <polyline points="9,329.35760263051787 2,317.23324697753571 9,305.10889132455355 23,305.10889132455355 30,292.98453567157139" />
    <polyline points="44,317.23324697753571 51,305.10889132455355 65,305.10889132455355 72,317.23324697753571" />
    <polyline points="72,292.98453567157139 86,292.98453567157139 93,305.10889132455355 86,317.23324697753571" />
    <line x1="93" y1="305.10889132455355" x2="107" y2="305.10889132455355" />
    <line x1="114" y1="292.98453567157139" x2="128" y2="292.98453567157139" />
    <polyline points="128,317.23324697753571 135,305.10889132455355 149,305.10889132455355 156,292.98453567157139" />
    <polyline points="170,292.98453567157139 177,305.10889132455355 170,317.23324697753571" />
    <polyline points="177,305.10889132455355 191,305.10889132455355 198,292.98453567157139 212,292.98453567157139 219,305.10889132455355 233,305.10889132455355 240,317.23324697753571" />
    <line x1="233" y1="305.10889132455355" x2="240" y2="292.98453567157139" />
    <polyline points="254,292.98453567157139 261,305.10889132455355 275,305.10889132455355 282,317.23324697753571" />
    <polyline points="282,292.98453567157139 296,292.98453567157139 303,305.10889132455355 296,317.23324697753571" />
    <line x1="317" y1="305.10889132455355" x2="324" y2="317.23324697753571" />
    <polyline points="324,292.98453567157139 338,292.98453567157139 345,305.10889132455355 359,305.10889132455355 366,317.23324697753571" />
    <polyline points="359,305.10889132455355 366,292.98453567157139 380,292.98453567157139" />
    <polyline points="387,305.10889132455355 401,305.10889132455355 408,317.23324697753571" />
    <line x1="401" y1="305.10889132455355" x2="408" y2="292.98453567157139" />
    <polyline points="422,292.98453567157139 429,305.10889132455355 422,317.23324697753571" />
    <polyline points="450,317.23324697753571 443,305.10889132455355 450,292.98453567157139 464,292.98453567157139 471,305.10889132455355 485,305.10889132455355 492,317.23324697753571" />
    <line x1="492" y1="292.98453567157139" x2="506" y2="292.98453567157139" />
    <polyline points="506,317.23324697753571 513,305.10889132455355 527,305.10889132455355" />
    <polyline points="534,292.98453567157139 548,292.98453567157139 555,305.10889132455355 548,317.23324697753571" />
    <polyline points="576,317.23324697753571 569,305.10889132455355 576,292.98453567157139 590,292.98453567157139 597,305.10889132455355 611,305.10889132455355" />
    <polyline points="632,292.98453567157139 639,305.10889132455355 632,317.23324697753571" />
    <polyline points="653,305.10889132455355 660,317.23324697753571 653,329.35760263051787" />
    <polyline points="9,353.60631393648214 2,341.4819582835 9,329.35760263051782 23,329.35760263051782" />
    <polyline points="30,317.23324697753566 44,317.23324697753566 51,329.35760263051782 44,341.4819582835" />
    <polyline points="72,341.4819582835 65,329.35760263051782 72,317.23324697753566" />
    <polyline points="86,317.23324697753566 93,329.35760263051782 86,341.4819582835" />
    <polyline points="93,329.35760263051782 107,329.35760263051782 114,341.4819582835" />
    <polyline points="114,317.23324697753566 128,317.23324697753566 135,329.35760263051782 128,341.4819582835" />
    <line x1="149" y1="329.35760263051782" x2="156" y2="341.4819582835" />
    <polyline points="156,317.23324697753566 170,317.23324697753566 177,329.35760263051782 170,341.4819582835" />
    <polyline points="191,329.35760263051782 198,317.23324697753566 212,317.23324697753566 219,329.35760263051782 233,329.35760263051782 240,341.4819582835" />
    <line x1="240" y1="317.23324697753566" x2="254" y2="317.23324697753566" />
    <polyline points="254,341.4819582835 261,329.35760263051782 275,329.35760263051782 282,341.4819582835" />
    <line x1="275" y1="329.35760263051782" x2="282" y2="317.23324697753566" />
    <polyline points="296,317.23324697753566 303,329.35760263051782 317,329.35760263051782 324,341.4819582835" />
    <polyline points="324,317.23324697753566 338,317.23324697753566 345,329.35760263051782 338,341.4819582835" />
    <polyline points="345,329.35760263051782 359,329.35760263051782 366,341.4819582835" />
    <line x1="366" y1="317.23324697753566" x2="380" y2="317.23324697753566" />
    <polyline points="380,341.4819582835 387,329.35760263051782 401,329.35760263051782 408,317.23324697753566" />
    <polyline points="422,317.23324697753566 429,329.35760263051782 422,341.4819582835" />
    <polyline points="429,329.35760263051782 443,329.35760263051782 450,341.4819582835" />
    <polyline points="464,317.23324697753566 471,329.35760263051782 464,341.4819582835" />
    <polyline points="492,341.4819582835 485,329.35760263051782 492,317.23324697753566 506,317.23324697753566 513,329.35760263051782 527,329.35760263051782 534,341.4819582835" />
    <polyline points="534,317.23324697753566 548,317.23324697753566 555,329.35760263051782 569,329.35760263051782 576,341.4819582835" />
    <polyline points="590,317.23324697753566 597,329.35760263051782 590,341.4819582835" />
    <polyline points="597,329.35760263051782 611,329.35760263051782 618,341.4819582835" />
    <polyline points="611,329.35760263051782 618,317.23324697753566 632,317.23324697753566 639,329.35760263051782" />
    <polyline points="653,329.35760263051782 660,341.4819582835 653,353.60631393648214" />
    <polyline points="9,377.8550252424464 2,365.73066958946424 9,353.60631393648208 23,353.60631393648208 30,341.48195828349992 44,341.48195828349992" />
    <polyline points="51,353.60631393648208 65,353.60631393648208 72,365.73066958946424" />
    <line x1="65" y1="353.60631393648208" x2="72" y2="341.48195828349992" />
    <polyline points="86,341.48195828349992 93,353.60631393648208 86,365.73066958946424" />
    <line x1="107" y1="353.60631393648208" x2="114" y2="365.73066958946424" />
    <polyline points="128,341.48195828349992 135,353.60631393648208 149,353.60631393648208 156,365.73066958946424" />
    <polyline points="156,341.48195828349992 170,341.48195828349992 177,353.60631393648208 170,365.73066958946424" />
    <polyline points="177,353.60631393648208 191,353.60631393648208 198,365.73066958946424" />
    <polyline points="191,353.60631393648208 198,341.48195828349992 212,341.48195828349992 219,353.60631393648208 233,353.60631393648208 240,365.73066958946424" />
    <polyline points="240,341.48195828349992 254,341.48195828349992 261,353.60631393648208 254,365.73066958946424" />
    <polyline points="275,353.60631393648208 282,341.48195828349992 296,341.48195828349992" />
    <line x1="296" y1="365.73066958946424" x2="303" y2="353.60631393648208" />
    <polyline points="324,365.73066958946424 317,353.60631393648208 324,341.48195828349992" />
    <polyline points="338,341.48195828349992 345,353.60631393648208 338,365.73066958946424" />
    <polyline points="359,353.60631393648208 366,341.48195828349992 380,341.48195828349992 387,353.60631393648208 380,365.73066958946424" />
    <polyline points="401,353.60631393648208 408,341.48195828349992 422,341.48195828349992" />
    <line x1="422" y1="365.73066958946424" x2="429" y2="353.60631393648208" />
    <line x1="443" y1="353.60631393648208" x2="450" y2="365.73066958946424" />
    <polyline points="450,341.48195828349992 464,341.48195828349992 471,353.60631393648208 464,365.73066958946424" />
    <line x1="485" y1="353.60631393648208" x2="492" y2="341.48195828349992" />
    <polyline points="506,341.48195828349992 513,353.60631393648208 506,365.73066958946424" />
    <polyline points="513,353.60631393648208 527,353.60631393648208 534,365.73066958946424" />
    <polyline points="534,341.48195828349992 548,341.48195828349992 555,353.60631393648208 548,365.73066958946424" />
    <polyline points="569,353.60631393648208 576,341.48195828349992 590,341.48195828349992" />
    <polyline points="590,365.73066958946424 597,353.60631393648208 611,353.60631393648208 618,365.73066958946424" />
    <polyline points="618,341.48195828349992 632,341.48195828349992 639,353.60631393648208 653,353.60631393648208 660,365.73066958946424 653,377.8550252424464" />
    <polyline points="9,402.10373654841072 2,389.97938089542856 9,377.8550252424464 23,377.8550252424464 30,389.97938089542856" />
    <polyline points="23,377.8550252424464 30,365.73066958946424 44,365.73066958946424 51,377.8550252424464" />
    <line x1="65" y1="377.8550252424464" x2="72" y2="365.73066958946424" />
    <polyline points="86,365.73066958946424 93,377.8550252424464 86,389.97938089542856" />
    <line x1="93" y1="377.8550252424464" x2="107" y2="377.8550252424464" />
    <polyline points="114,365.73066958946424 128,365.73066958946424 135,377.8550252424464 128,389.97938089542856" />
    <polyline points="156,389.97938089542856 149,377.8550252424464 156,365.73066958946424" />
    <line x1="170" y1="389.97938089542856" x2="177" y2="377.8550252424464" />
    <polyline points="198,389.97938089542856 191,377.8550252424464 198,365.73066958946424" />
    <polyline points="212,365.73066958946424 219,377.8550252424464 212,389.97938089542856" />
    <polyline points="219,377.8550252424464 233,377.8550252424464 240,389.97938089542856" />
    <polyline points="254,365.73066958946424 261,377.8550252424464 254,389.97938089542856" />
    <polyline points="261,377.8550252424464 275,377.8550252424464 282,389.97938089542856" />
    <polyline points="275,377.8550252424464 282,365.73066958946424 296,365.73066958946424" />
    <line x1="296" y1="389.97938089542856" x2="303" y2="377.8550252424464" />
    <line x1="317" y1="377.8550252424464" x2="324" y2="365.73066958946424" />
    <polyline points="338,365.73066958946424 345,377.8550252424464 338,389.97938089542856" />
    <polyline points="345,377.8550252424464 359,377.8550252424464 366,389.97938089542856" />
    <line x1="359" y1="377.8550252424464" x2="366" y2="365.73066958946424" />
    <polyline points="380,365.73066958946424 387,377.8550252424464 401,377.8550252424464 408,389.97938089542856" />
    <polyline points="401,377.8550252424464 408,365.73066958946424 422,365.73066958946424" />
    <polyline points="429,377.8550252424464 443,377.8550252424464 450,389.97938089542856" />
    <line x1="443" y1="377.8550252424464" x2="450" y2="365.73066958946424" />
    <polyline points="464,365.73066958946424 471,377.8550252424464 464,389.97938089542856" />
    <polyline points="471,377.8550252424464 485,377.8550252424464 492,389.97938089542856" />
    <polyline points="485,377.8550252424464 492,365.73066958946424 506,365.73066958946424" />
    <line x1="506" y1="389.97938089542856" x2="513" y2="377.8550252424464" />
    <polyline points="534,389.97938089542856 527,377.8550252424464 534,365.73066958946424" />
    <polyline points="548,365.73066958946424 555,377.8550252424464 569,377.8550252424464 576,389.97938089542856" />
    <polyline points="569,377.8550252424464 576,365.73066958946424 590,365.73066958946424" />
    <polyline points="590,389.97938089542856 597,377.8550252424464 611,377.8550252424464" />
    <polyline points="618,365.73066958946424 632,365.73066958946424 639,377.8550252424464 632,389.97938089542856" />
    <polyline points="653,377.8550252424464 660,389.97938089542856 653,402.10373654841072" />
    <polyline points="9,426.352447854375 2,414.22809220139283 9,402.10373654841067" />
    <polyline points="23,402.10373654841067 30,389.97938089542851 44,389.97938089542851 51,402.10373654841067 65,402.10373654841067 72,414.22809220139283" />
    <line x1="72" y1="389.97938089542851" x2="86" y2="389.97938089542851" />
    <polyline points="86,414.22809220139283 93,402.10373654841067 107,402.10373654841067 114,414.22809220139283" />
    <polyline points="107,402.10373654841067 114,389.97938089542851 128,389.97938089542851" />
    <line x1="128" y1="414.22809220139283" x2="135" y2="402.10373654841067" />
    <line x1="149" y1="402.10373654841067" x2="156" y2="389.97938089542851" />
    <polyline points="170,389.97938089542851 177,402.10373654841067 170,414.22809220139283" />
    <polyline points="177,402.10373654841067 191,402.10373654841067 198,389.97938089542851" />
    <line x1="212" y1="389.97938089542851" x2="219" y2="402.10373654841067" />
    <polyline points="240,414.22809220139283 233,402.10373654841067 240,389.97938089542851 254,389.97938089542851" />
    <line x1="254" y1="414.22809220139283" x2="261" y2="402.10373654841067" />
    <line x1="275" y1="402.10373654841067" x2="282" y2="389.97938089542851" />
    <polyline points="296,389.97938089542851 303,402.10373654841067 296,414.22809220139283" />
    <polyline points="303,402.10373654841067 317,402.10373654841067 324,389.97938089542851 338,389.97938089542851" />
    <polyline points="338,414.22809220139283 345,402.10373654841067 359,402.10373654841067 366,414.22809220139283" />
    <polyline points="366,389.97938089542851 380,389.97938089542851 387,402.10373654841067 380,414.22809220139283" />
    <polyline points="408,414.22809220139283 401,402.10373654841067 408,389.97938089542851 422,389.97938089542851 429,402.10373654841067 422,414.22809220139283" />
    <polyline points="450,414.22809220139283 443,402.10373654841067 450,389.97938089542851 464,389.97938089542851" />
    <polyline points="471,402.10373654841067 485,402.10373654841067 492,414.22809220139283" />
    <polyline points="506,389.97938089542851 513,402.10373654841067 506,414.22809220139283" />
    <polyline points="513,402.10373654841067 527,402.10373654841067 534,414.22809220139283" />
    <polyline points="534,389.97938089542851 548,389.97938089542851 555,402.10373654841067" />
    <polyline points="576,414.22809220139283 569,402.10373654841067 576,389.97938089542851 590,389.97938089542851" />
    <polyline points="590,414.22809220139283 597,402.10373654841067 611,402.10373654841067 618,389.97938089542851 632,389.97938089542851" />
    <line x1="632" y1="414.22809220139283" x2="639" y2="402.10373654841067" />
    <polyline points="653,402.10373654841067 660,414.22809220139283 653,426.352447854375" />
    <polyline points="9,450.60115916033925 2,438.47680350735709 9,426.35244785437493 23,426.35244785437493 30,438.47680350735709" />
    <polyline points="30,414.22809220139277 44,414.22809220139277 51,426.35244785437493 44,438.47680350735709" />
    <polyline points="51,426.35244785437493 65,426.35244785437493 72,438.47680350735709" />
    <line x1="72" y1="414.22809220139277" x2="86" y2="414.22809220139277" />
    <polyline points="86,438.47680350735709 93,426.35244785437493 107,426.35244785437493" />
    <polyline points="128,414.22809220139277 135,426.35244785437493 149,426.35244785437493 156,414.22809220139277 170,414.22809220139277" />
    <polyline points="177,426.35244785437493 191,426.35244785437493 198,438.47680350735709" />
    <polyline points="198,414.22809220139277 212,414.22809220139277 219,426.35244785437493 212,438.47680350735709" />
    <polyline points="240,438.47680350735709 233,426.35244785437493 240,414.22809220139277" />
    <polyline points="254,414.22809220139277 261,426.35244785437493 275,426.35244785437493 282,438.47680350735709" />
    <polyline points="275,426.35244785437493 282,414.22809220139277 296,414.22809220139277" />
    <polyline points="303,426.35244785437493 317,426.35244785437493 324,438.47680350735709" />
    <polyline points="317,426.35244785437493 324,414.22809220139277 338,414.22809220139277" />
    <polyline points="338,438.47680350735709 345,426.35244785437493 359,426.35244785437493 366,438.47680350735709" />
    <polyline points="366,414.22809220139277 380,414.22809220139277 387,426.35244785437493 401,426.35244785437493" />
    <polyline points="422,414.22809220139277 429,426.35244785437493 443,426.35244785437493 450,438.47680350735709" />
    <line x1="450" y1="414.22809220139277" x2="464" y2="414.22809220139277" />
    <polyline points="464,438.47680350735709 471,426.35244785437493 485,426.35244785437493 492,438.47680350735709" />
    <polyline points="485,426.35244785437493 492,414.22809220139277 506,414.22809220139277" />
    <line x1="506" y1="438.47680350735709" x2="513" y2="426.35244785437493" />
    <line x1="527" y1="426.35244785437493" x2="534" y2="438.47680350735709" />
    <polyline points="534,414.22809220139277 548,414.22809220139277 555,426.35244785437493 569,426.35244785437493 576,438.47680350735709" />
    <line x1="569" y1="426.35244785437493" x2="576" y2="414.22809220139277" />
    <polyline points="590,414.22809220139277 597,426.35244785437493 590,438.47680350735709" />
    <polyline points="597,426.35244785437493 611,426.35244785437493 618,438.47680350735709" />
    <polyline points="618,414.22809220139277 632,414.22809220139277 639,426.35244785437493 653,426.35244785437493 660,438.47680350735709 653,450.60115916033925" />
    <polyline points="9,474.84987046630357 2,462.72551481332141 9,450.60115916033925" />
    <polyline points="23,450.60115916033925 30,438.47680350735709 44,438.47680350735709 51,450.60115916033925 44,462.72551481332141" />
    <line x1="65" y1="450.60115916033925" x2="72" y2="462.72551481332141" />
    <line x1="72" y1="438.47680350735709" x2="86" y2="438.47680350735709" />
    <polyline points="86,462.72551481332141 93,450.60115916033925 107,450.60115916033925 114,438.47680350735709 128,438.47680350735709 135,450.60115916033925 149,450.60115916033925 156,462.72551481332141" />
    <polyline points="149,450.60115916033925 156,438.47680350735709 170,438.47680350735709" />
    <polyline points="170,462.72551481332141 177,450.60115916033925 191,450.60115916033925 198,462.72551481332141" />
    <polyline points="198,438.47680350735709 212,438.47680350735709 219,450.60115916033925 212,462.72551481332141" />
    <line x1="233" y1="450.60115916033925" x2="240" y2="462.72551481332141" />
    <polyline points="240,438.47680350735709 254,438.47680350735709 261,450.60115916033925 254,462.72551481332141" />
    <polyline points="261,450.60115916033925 275,450.60115916033925 282,462.72551481332141" />
    <polyline points="296,438.47680350735709 303,450.60115916033925 296,462.72551481332141" />
    <polyline points="303,450.60115916033925 317,450.60115916033925 324,462.72551481332141" />
    <line x1="324" y1="438.47680350735709" x2="338" y2="438.47680350735709" />
    <polyline points="338,462.72551481332141 345,450.60115916033925 359,450.60115916033925" />
    <polyline points="366,438.47680350735709 380,438.47680350735709 387,450.60115916033925 380,462.72551481332141" />
    <polyline points="387,450.60115916033925 401,450.60115916033925 408,462.72551481332141" />
    <polyline points="401,450.60115916033925 408,438.47680350735709 422,438.47680350735709" />
    <polyline points="422,462.72551481332141 429,450.60115916033925 443,450.60115916033925 450,462.72551481332141" />
    <line x1="450" y1="438.47680350735709" x2="464" y2="438.47680350735709" />
    <line x1="464" y1="462.72551481332141" x2="471" y2="450.60115916033925" />
    <line x1="485" y1="450.60115916033925" x2="492" y2="462.72551481332141" />
    <polyline points="506,438.47680350735709 513,450.60115916033925 506,462.72551481332141" />
    <polyline points="513,450.60115916033925 527,450.60115916033925 534,438.47680350735709 548,438.47680350735709" />
    <polyline points="555,450.60115916033925 569,450.60115916033925 576,438.47680350735709" />
    <polyline points="590,438.47680350735709 597,450.60115916033925 590,462.72551481332141" />
    <line x1="611" y1="450.60115916033925" x2="618" y2="462.72551481332141" />
    <polyline points="618,438.47680350735709 632,438.47680350735709 639,450.60115916033925 632,462.72551481332141" />
    <polyline points="653,450.60115916033925 660,462.72551481332141 653,474.84987046630357" />
    <polyline points="9,499.09858177226783 2,486.97422611928567 9,474.84987046630351 23,474.84987046630351 30,462.72551481332135" />
    <polyline points="44,462.72551481332135 51,474.84987046630351 44,486.97422611928567" />
    <polyline points="72,486.97422611928567 65,474.84987046630351 72,462.72551481332135" />
    <polyline points="86,462.72551481332135 93,474.84987046630351 86,486.97422611928567" />
    <polyline points="114,486.97422611928567 107,474.84987046630351 114,462.72551481332135 128,462.72551481332135" />
    <polyline points="135,474.84987046630351 149,474.84987046630351 156,486.97422611928567" />
    <line x1="149" y1="474.84987046630351" x2="156" y2="462.72551481332135" />
    <polyline points="170,462.72551481332135 177,474.84987046630351 170,486.97422611928567" />
    <polyline points="177,474.84987046630351 191,474.84987046630351 198,486.97422611928567" />
    <polyline points="212,462.72551481332135 219,474.84987046630351 212,486.97422611928567" />
    <polyline points="219,474.84987046630351 233,474.84987046630351 240,486.97422611928567" />
    <line x1="240" y1="462.72551481332135" x2="254" y2="462.72551481332135" />
    <line x1="254" y1="486.97422611928567" x2="261" y2="474.84987046630351" />
    <polyline points="282,486.97422611928567 275,474.84987046630351 282,462.72551481332135 296,462.72551481332135" />
    <polyline points="303,474.84987046630351 317,474.84987046630351 324,486.97422611928567" />
    <polyline points="324,462.72551481332135 338,462.72551481332135 345,474.84987046630351 338,486.97422611928567" />
    <polyline points="345,474.84987046630351 359,474.84987046630351 366,486.97422611928567" />
    <line x1="366" y1="462.72551481332135" x2="380" y2="462.72551481332135" />
    <polyline points="380,486.97422611928567 387,474.84987046630351 401,474.84987046630351 408,486.97422611928567" />
    <line x1="408" y1="462.72551481332135" x2="422" y2="462.72551481332135" />
    <polyline points="422,486.97422611928567 429,474.84987046630351 443,474.84987046630351 450,486.97422611928567" />
    <polyline points="450,462.72551481332135 464,462.72551481332135 471,474.84987046630351 464,486.97422611928567" />
    <polyline points="492,486.97422611928567 485,474.84987046630351 492,462.72551481332135 506,462.72551481332135" />
    <polyline points="513,474.84987046630351 527,474.84987046630351 534,486.97422611928567" />
    <polyline points="527,474.84987046630351 534,462.72551481332135 548,462.72551481332135 555,474.84987046630351 548,486.97422611928567" />
    <polyline points="555,474.84987046630351 569,474.84987046630351 576,486.97422611928567" />
    <polyline points="569,474.84987046630351 576,462.72551481332135 590,462.72551481332135" />
    <polyline points="590,486.97422611928567 597,474.84987046630351 611,474.84987046630351 618,486.97422611928567" />
    <line x1="611" y1="474.84987046630351" x2="618" y2="462.72551481332135" />
    <line x1="632" y1="462.72551481332135" x2="639" y2="474.84987046630351" />
    <polyline points="653,474.84987046630351 660,486.97422611928567 653,499.09858177226783" />
    <polyline points="9,523.347293078232 2,511.22293742524994 9,499.09858177226778" />
    <polyline points="23,499.09858177226778 30,486.97422611928562 44,486.97422611928562 51,499.09858177226778 44,511.22293742524994" />
    <polyline points="72,511.22293742524994 65,499.09858177226778 72,486.97422611928562" />
    <polyline points="86,486.97422611928562 93,499.09858177226778 86,511.22293742524994" />
    <line x1="93" y1="499.09858177226778" x2="107" y2="499.09858177226778" />
    <polyline points="114,486.97422611928562 128,486.97422611928562 135,499.09858177226778 128,511.22293742524994" />
    <polyline points="156,511.22293742524994 149,499.09858177226778 156,486.97422611928562" />
    <line x1="170" y1="511.22293742524994" x2="177" y2="499.09858177226778" />
    <polyline points="191,499.09858177226778 198,486.97422611928562 212,486.97422611928562" />
    <polyline points="212,511.22293742524994 219,499.09858177226778 233,499.09858177226778 240,486.97422611928562 254,486.97422611928562" />
    <polyline points="261,499.09858177226778 275,499.09858177226778 282,486.97422611928562 296,486.97422611928562" />
    <polyline points="303,499.09858177226778 317,499.09858177226778 324,511.22293742524994" />
    <polyline points="317,499.09858177226778 324,486.97422611928562 338,486.97422611928562" />
    <polyline points="338,511.22293742524994 345,499.09858177226778 359,499.09858177226778 366,511.22293742524994" />
    <polyline points="380,486.97422611928562 387,499.09858177226778 380,511.22293742524994" />
    <polyline points="401,499.09858177226778 408,486.97422611928562 422,486.97422611928562" />
    <polyline points="429,499.09858177226778 443,499.09858177226778 450,486.97422611928562" />
    <polyline points="464,486.97422611928562 471,499.09858177226778 464,511.22293742524994" />
    <polyline points="471,499.09858177226778 485,499.09858177226778 492,511.22293742524994" />
    <polyline points="492,486.97422611928562 506,486.97422611928562 513,499.09858177226778 527,499.09858177226778 534,511.22293742524994" />
    <polyline points="548,486.97422611928562 555,499.09858177226778 548,511.22293742524994" />
    <line x1="569" y1="499.09858177226778" x2="576" y2="511.22293742524994" />
    <polyline points="590,486.97422611928562 597,499.09858177226778 590,511.22293742524994" />
    <line x1="611" y1="499.09858177226778" x2="618" y2="511.22293742524994" />
    <polyline points="618,486.97422611928562 632,486.97422611928562 639,499.09858177226778 653,499.09858177226778 660,511.22293742524994 653,523.347293078232" />
    <polyline points="9,547.59600438419636 2,535.47164873121426 9,523.34729307823216" />
    <polyline points="23,523.34729307823216 30,511.22293742525 44,511.22293742525 51,523.34729307823216 65,523.34729307823216 72,535.47164873121426" />
    <line x1="72" y1="511.22293742525" x2="86" y2="511.22293742525" />
    <polyline points="86,535.47164873121426 93,523.34729307823216 107,523.34729307823216 114,511.22293742525 128,511.22293742525" />
    <polyline points="128,535.47164873121426 135,523.34729307823216 149,523.34729307823216 156,535.47164873121426" />
    <polyline points="149,523.34729307823216 156,511.22293742525 170,511.22293742525 177,523.34729307823216 191,523.34729307823216 198,535.47164873121426" />
    <polyline points="198,511.22293742525 212,511.22293742525 219,523.34729307823216 212,535.47164873121426" />
    <polyline points="240,535.47164873121426 233,523.34729307823216 240,511.22293742525" />
    <polyline points="254,511.22293742525 261,523.34729307823216 254,535.47164873121426" />
    <polyline points="261,523.34729307823216 275,523.34729307823216 282,535.47164873121426" />
    <line x1="275" y1="523.34729307823216" x2="282" y2="511.22293742525" />
    <polyline points="296,511.22293742525 303,523.34729307823216 317,523.34729307823216 324,535.47164873121426" />
    <polyline points="317,523.34729307823216 324,511.22293742525 338,511.22293742525" />
    <polyline points="345,523.34729307823216 359,523.34729307823216 366,535.47164873121426" />
    <polyline points="366,511.22293742525 380,511.22293742525 387,523.34729307823216 380,535.47164873121426" />
    <polyline points="401,523.34729307823216 408,511.22293742525 422,511.22293742525 429,523.34729307823216 422,535.47164873121426" />
    <polyline points="429,523.34729307823216 443,523.34729307823216 450,511.22293742525 464,511.22293742525" />
    <polyline points="464,535.47164873121426 471,523.34729307823216 485,523.34729307823216" />
    <polyline points="492,511.22293742525 506,511.22293742525 513,523.34729307823216 506,535.47164873121426" />
    <line x1="527" y1="523.34729307823216" x2="534" y2="535.47164873121426" />
    <polyline points="534,511.22293742525 548,511.22293742525 555,523.34729307823216 569,523.34729307823216 576,535.47164873121426" />
    <line x1="576" y1="511.22293742525" x2="590" y2="511.22293742525" />
    <polyline points="590,535.47164873121426 597,523.34729307823216 611,523.34729307823216 618,535.47164873121426" />
    <polyline points="611,523.34729307823216 618,511.22293742525 632,511.22293742525" />
    <polyline points="639,523.34729307823216 653,523.34729307823216 660,535.47164873121426 653,547.59600438419636" />
    <polyline points="9,571.84471569016057 2,559.72036003717847 9,547.59600438419636 23,547.59600438419636 30,535.47164873121426 44,535.47164873121426" />
    <polyline points="44,559.72036003717847 51,547.59600438419636 65,547.59600438419636 72,535.47164873121426 86,535.47164873121426 93,547.59600438419636 86,559.72036003717847" />
    <line x1="93" y1="547.59600438419636" x2="107" y2="547.59600438419636" />
    <polyline points="114,535.47164873121426 128,535.47164873121426 135,547.59600438419636 128,559.72036003717847" />
    <polyline points="156,559.72036003717847 149,547.59600438419636 156,535.47164873121426" />
    <polyline points="170,535.47164873121426 177,547.59600438419636 191,547.59600438419636 198,535.47164873121426 212,535.47164873121426 219,547.59600438419636 233,547.59600438419636 240,559.72036003717847" />
    <line x1="240" y1="535.47164873121426" x2="254" y2="535.47164873121426" />
    <line x1="254" y1="559.72036003717847" x2="261" y2="547.59600438419636" />
    <polyline points="282,559.72036003717847 275,547.59600438419636 282,535.47164873121426 296,535.47164873121426 303,547.59600438419636 317,547.59600438419636 324,559.72036003717847" />
    <polyline points="324,535.47164873121426 338,535.47164873121426 345,547.59600438419636 338,559.72036003717847" />
    <polyline points="359,547.59600438419636 366,535.47164873121426 380,535.47164873121426 387,547.59600438419636 401,547.59600438419636 408,559.72036003717847" />
    <line x1="401" y1="547.59600438419636" x2="408" y2="535.47164873121426" />
    <polyline points="422,559.72036003717847 429,547.59600438419636 443,547.59600438419636 450,559.72036003717847" />
    <polyline points="443,547.59600438419636 450,535.47164873121426 464,535.47164873121426" />
    <polyline points="471,547.59600438419636 485,547.59600438419636 492,559.72036003717847" />
    <polyline points="485,547.59600438419636 492,535.47164873121426 506,535.47164873121426" />
    <polyline points="513,547.59600438419636 527,547.59600438419636 534,559.72036003717847" />
    <polyline points="534,535.47164873121426 548,535.47164873121426 555,547.59600438419636 548,559.72036003717847" />
    <line x1="555" y1="547.59600438419636" x2="569" y2="547.59600438419636" />
    <line x1="576" y1="535.47164873121426" x2="590" y2="535.47164873121426" />
    <polyline points="590,559.72036003717847 597,547.59600438419636 611,547.59600438419636 618,535.47164873121426 632,535.47164873121426 639,547.59600438419636 632,559.72036003717847" />
    <polyline points="653,547.59600438419636 660,559.72036003717847 653,571.84471569016057" />
    <polyline points="9,571.84471569016068 23,571.84471569016068 30,583.96907134314279" />
    <line x1="30" y1="559.72036003717858" x2="44" y2="559.72036003717858" />
    <polyline points="44,583.96907134314279 51,571.84471569016068 65,571.84471569016068 72,559.72036003717858" />
    <polyline points="86,559.72036003717858 93,571.84471569016068 86,583.96907134314279" />
    <line x1="93" y1="571.84471569016068" x2="107" y2="571.84471569016068" />
    <polyline points="114,559.72036003717858 128,559.72036003717858 135,571.84471569016068 128,583.96907134314279" />
    <line x1="135" y1="571.84471569016068" x2="149" y2="571.84471569016068" />
    <polyline points="156,559.72036003717858 170,559.72036003717858 177,571.84471569016068 170,583.96907134314279" />
    <polyline points="177,571.84471569016068 191,571.84471569016068 198,583.96907134314279" />
    <polyline points="191,571.84471569016068 198,559.72036003717858 212,559.72036003717858 219,571.84471569016068 233,571.84471569016068" />
    <polyline points="240,559.72036003717858 254,559.72036003717858 261,571.84471569016068 254,583.96907134314279" />
    <line x1="275" y1="571.84471569016068" x2="282" y2="559.72036003717858" />
    <polyline points="296,559.72036003717858 303,571.84471569016068 296,583.96907134314279" />
    <polyline points="324,583.96907134314279 317,571.84471569016068 324,559.72036003717858" />
    <polyline points="338,559.72036003717858 345,571.84471569016068 338,583.96907134314279" />
    <polyline points="359,571.84471569016068 366,559.72036003717858 380,559.72036003717858 387,571.84471569016068 380,583.96907134314279" />
    <polyline points="387,571.84471569016068 401,571.84471569016068 408,583.96907134314279" />
    <polyline points="401,571.84471569016068 408,559.72036003717858 422,559.72036003717858" />
    <line x1="422" y1="583.96907134314279" x2="429" y2="571.84471569016068" />
    <polyline points="443,571.84471569016068 450,559.72036003717858 464,559.72036003717858 471,571.84471569016068 464,583.96907134314279" />
    <polyline points="492,583.96907134314279 485,571.84471569016068 492,559.72036003717858 506,559.72036003717858" />
    <polyline points="506,583.96907134314279 513,571.84471569016068 527,571.84471569016068 534,583.96907134314279" />
    <polyline points="527,571.84471569016068 534,559.72036003717858 548,559.72036003717858" />
    <polyline points="548,583.96907134314279 555,571.84471569016068 569,571.84471569016068 576,559.72036003717858 590,559.72036003717858 597,571.84471569016068 590,583.96907134314279" />
    <line x1="611" y1="571.84471569016068" x2="618" y2="583.96907134314279" />
    <line x1="618" y1="559.72036003717858" x2="632" y2="559.72036003717858" />
    <polyline points="632,583.96907134314279 639,571.84471569016068 653,571.84471569016068" />
    <polyline points="30,583.9690713431429 44,583.9690713431429 51,596.093426996125 65,596.093426996125 72,608.21778264910711" />
    <line x1="65" y1="596.093426996125" x2="72" y2="583.9690713431429" />
    <polyline points="86,583.9690713431429 93,596.093426996125 107,596.093426996125" />
    <polyline points="114,583.9690713431429 128,583.9690713431429 135,596.093426996125 128,608.21778264910711" />
    <polyline points="156,608.21778264910711 149,596.093426996125 156,583.9690713431429" />
    <polyline points="170,583.9690713431429 177,596.093426996125 191,596.093426996125 198,608.21778264910711" />
    <polyline points="198,583.9690713431429 212,583.9690713431429 219,596.093426996125 212,608.21778264910711" />
    <polyline points="233,596.093426996125 240,583.9690713431429 254,583.9690713431429 261,596.093426996125 275,596.093426996125 282,583.9690713431429 296,583.9690713431429" />
    <polyline points="296,608.21778264910711 303,596.093426996125 317,596.093426996125 324,608.21778264910711" />
    <polyline points="317,596.093426996125 324,583.9690713431429 338,583.9690713431429" />
    <polyline points="345,596.093426996125 359,596.093426996125 366,608.21778264910711" />
    <polyline points="359,596.093426996125 366,583.9690713431429 380,583.9690713431429" />
    <polyline points="380,608.21778264910711 387,596.093426996125 401,596.093426996125" />
    <polyline points="422,583.9690713431429 429,596.093426996125 422,608.21778264910711" />
    <line x1="429" y1="596.093426996125" x2="443" y2="596.093426996125" />
    <polyline points="450,583.9690713431429 464,583.9690713431429 471,596.093426996125 464,608.21778264910711" />
    <line x1="471" y1="596.093426996125" x2="485" y2="596.093426996125" />
    <polyline points="506,583.9690713431429 513,596.093426996125 506,608.21778264910711" />
    <line x1="527" y1="596.093426996125" x2="534" y2="608.21778264910711" />
    <line x1="534" y1="583.9690713431429" x2="548" y2="583.9690713431429" />
    <polyline points="548,608.21778264910711 555,596.093426996125 569,596.093426996125 576,583.9690713431429" />
    <polyline points="590,608.21778264910711 597,596.093426996125 611,596.093426996125 618,583.9690713431429 632,583.9690713431429" />
    <polyline points="72,608.21778264910711 86,608.21778264910711 93,620.34213830208921 107,620.34213830208921 114,632.46649395507131" />
    <line x1="107" y1="620.34213830208921" x2="114" y2="608.21778264910711" />
    <line x1="128" y1="608.21778264910711" x2="135" y2="620.34213830208921" />
    <polyline points="156,632.46649395507131 149,620.34213830208921 156,608.21778264910711 170,608.21778264910711 177,620.34213830208921 191,620.34213830208921 198,608.21778264910711" />
    <polyline points="212,608.21778264910711 219,620.34213830208921 212,632.46649395507131" />
    <polyline points="219,620.34213830208921 233,620.34213830208921 240,608.21778264910711" />
    <polyline points="254,608.21778264910711 261,620.34213830208921 254,632.46649395507131" />
    <polyline points="261,620.34213830208921 275,620.34213830208921 282,632.46649395507131" />
    <line x1="275" y1="620.34213830208921" x2="282" y2="608.21778264910711" />
    <line x1="296" y1="608.21778264910711" x2="303" y2="620.34213830208921" />
    <line x1="317" y1="620.34213830208921" x2="324" y2="632.46649395507131" />
    <line x1="324" y1="608.21778264910711" x2="338" y2="608.21778264910711" />
    <polyline points="338,632.46649395507131 345,620.34213830208921 359,620.34213830208921 366,632.46649395507131" />
    <line x1="359" y1="620.34213830208921" x2="366" y2="608.21778264910711" />
    <polyline points="380,608.21778264910711 387,620.34213830208921 380,632.46649395507131" />
    <polyline points="387,620.34213830208921 401,620.34213830208921 408,632.46649395507131" />
    <polyline points="408,608.21778264910711 422,608.21778264910711 429,620.34213830208921 422,632.46649395507131" />
    <polyline points="429,620.34213830208921 443,620.34213830208921 450,632.46649395507131" />
    <line x1="450" y1="608.21778264910711" x2="464" y2="608.21778264910711" />
    <polyline points="464,632.46649395507131 471,620.34213830208921 485,620.34213830208921 492,608.21778264910711 506,608.21778264910711" />
    <polyline points="506,632.46649395507131 513,620.34213830208921 527,620.34213830208921 534,608.21778264910711 548,608.21778264910711" />
    <polyline points="548,632.46649395507131 555,620.34213830208921 569,620.34213830208921 576,608.21778264910711 590,608.21778264910711" />
    <polyline points="114,632.46649395507143 128,632.46649395507143 135,644.59084960805353 149,644.59084960805353 156,656.71520526103563" />
    <line x1="149" y1="644.59084960805353" x2="156" y2="632.46649395507143" />
    <polyline points="170,632.46649395507143 177,644.59084960805353 191,644.59084960805353 198,632.46649395507143 212,632.46649395507143 219,644.59084960805353 212,656.71520526103563" />
    <polyline points="240,656.71520526103563 233,644.59084960805353 240,632.46649395507143 254,632.46649395507143" />
    <line x1="254" y1="656.71520526103563" x2="261" y2="644.59084960805353" />
    <polyline points="282,656.71520526103563 275,644.59084960805353 282,632.46649395507143 296,632.46649395507143" />
    <polyline points="303,644.59084960805353 317,644.59084960805353 324,632.46649395507143 338,632.46649395507143 345,644.59084960805353 338,656.71520526103563" />
    <line x1="359" y1="644.59084960805353" x2="366" y2="656.71520526103563" />
    <polyline points="380,632.46649395507143 387,644.59084960805353 380,656.71520526103563" />
    <polyline points="408,656.71520526103563 401,644.59084960805353 408,632.46649395507143" />
    <polyline points="422,656.71520526103563 429,644.59084960805353 443,644.59084960805353" />
    <polyline points="450,632.46649395507143 464,632.46649395507143 471,644.59084960805353 464,656.71520526103563" />
    <line x1="471" y1="644.59084960805353" x2="485" y2="644.59084960805353" />
    <polyline points="492,632.46649395507143 506,632.46649395507143 513,644.59084960805353 506,656.71520526103563" />
    <polyline points="513,644.59084960805353 527,644.59084960805353 534,632.46649395507143 548,632.46649395507143" />
    <polyline points="156,656.71520526103575 170,656.71520526103575 177,668.83956091401785 191,668.83956091401785 198,680.963916567" />
    <line x1="191" y1="668.83956091401785" x2="198" y2="656.71520526103575" />
    <polyline points="219,668.83956091401785 233,668.83956091401785 240,656.71520526103575 254,656.71520526103575" />
    <polyline points="254,680.963916567 261,668.83956091401785 275,668.83956091401785 282,680.963916567" />
    <polyline points="275,668.83956091401785 282,656.71520526103575 296,656.71520526103575" />
    <polyline points="303,668.83956091401785 317,668.83956091401785 324,680.963916567" />
    <line x1="317" y1="668.83956091401785" x2="324" y2="656.71520526103575" />
    <polyline points="338,680.963916567 345,668.83956091401785 359,668.83956091401785 366,656.71520526103575 380,656.71520526103575" />
    <polyline points="380,680.963916567 387,668.83956091401785 401,668.83956091401785 408,656.71520526103575 422,656.71520526103575 429,668.83956091401785 443,668.83956091401785 450,656.71520526103575 464,656.71520526103575" />
    <polyline points="464,680.963916567 471,668.83956091401785 485,668.83956091401785 492,656.71520526103575 506,656.71520526103575" />
    <polyline points="198,680.963916567 212,680.963916567 219,693.08827221998206 233,693.08827221998206 240,705.21262787296416" />
    <polyline points="240,680.963916567 254,680.963916567 261,693.08827221998206 275,693.08827221998206" />
    <polyline points="282,680.963916567 296,680.963916567 303,693.08827221998206 296,705.21262787296416" />
    <polyline points="317,693.08827221998206 324,680.963916567 338,680.963916567" />
    <polyline points="338,705.21262787296416 345,693.08827221998206 359,693.08827221998206 366,680.963916567 380,680.963916567 387,693.08827221998206 380,705.21262787296416" />
    <polyline points="408,705.21262787296416 401,693.08827221998206 408,680.963916567 422,680.963916567" />
    <polyline points="422,705.21262787296416 429,693.08827221998206 443,693.08827221998206 450,680.963916567 464,680.963916567" />
    <polyline points="240,705.21262787296428 254,705.21262787296428 261,717.33698352594638 275,717.33698352594638 282,729.46133917892848" />
    <polyline points="282,705.21262787296428 296,705.21262787296428 303,717.33698352594638 317,717.33698352594638 324,729.46133917892848" />
    <polyline points="317,717.33698352594638 324,705.21262787296428 338,705.21262787296428" />
    <polyline points="338,729.46133917892848 345,717.33698352594638 359,717.33698352594638 366,705.21262787296428" />
    <polyline points="380,729.46133917892848 387,717.33698352594638 401,717.33698352594638 408,705.21262787296428 422,705.21262787296428" />
    <polyline points="282,729.4613391789286 296,729.4613391789286 303,741.5856948319107 317,741.5856948319107 324,753.7100504848928" />
    <line x1="317" y1="741.5856948319107" x2="324" y2="729.4613391789286" />
    <polyline points="338,729.4613391789286 345,741.5856948319107 338,753.7100504848928" />
    <polyline points="345,741.5856948319107 359,741.5856948319107 366,729.4613391789286 380,729.4613391789286" />
  </g>
  <polyline fill="none" stroke="#ff0000" stroke-width="2" stroke-linecap="square" stroke-linejoin="round" points="331,2.0000000000000391 331,14.12435565298218 310,26.248711305964321 331,38.37306695894646 331,62.621778264910738 373,86.870489570875023 394,74.746133917892877 394,98.994845223857169 436,74.746133917892877 457,86.870489570875023 394,123.24355652982145 373,111.1192008768393 373,135.36791218280359 394,147.49226783578573 478,98.994845223857169 562,147.49226783578573 541,159.61662348876789 478,123.24355652982145 478,147.49226783578573 499,159.61662348876789 478,171.74097914175002 457,159.61662348876789 457,208.11404610069644 520,244.48711305964287 541,232.36275740666073 541,208.11404610069644 562,220.23840175367857 604,195.98969044771428 604,171.74097914175002 646,195.98969044771428 646,220.23840175367857 625,208.11404610069644 604,220.23840175367857 646,244.48711305964287 625,256.61146871262497 646,268.73582436560713 646,292.98453567157139 604,268.73582436560713 583,280.86018001858923 541,256.61146871262497 541,280.86018001858923 520,268.73582436560713 499,280.86018001858923 457,256.61146871262497 457,280.86018001858923 499,305.10889132455355 520,292.98453567157139 541,305.10889132455355 520,317.23324697753571 562,341.4819582835 562,365.73066958946424 604,341.4819582835 646,365.73066958946424 646,389.97938089542856 604,414.22809220139283 646,438.47680350735709 646,486.97422611928567 625,474.84987046630351 625,450.60115916033925 604,438.47680350735709 604,462.72551481332141 583,474.84987046630351 583,499.09858177226778 562,486.97422611928567 562,511.22293742524994 583,523.34729307823216 604,511.22293742524994 604,486.97422611928567 646,511.22293742524994 625,523.34729307823216 646,535.47164873121426 646,559.72036003717847 625,571.84471569016068 604,559.72036003717847 604,583.96907134314279 583,596.093426996125 583,571.84471569016068 541,596.093426996125 520,583.96907134314279 520,608.21778264910711 478,632.46649395507131 499,644.59084960805353 436,680.963916567 415,668.83956091401785 394,680.963916567 394,705.21262787296416 373,717.33698352594638 373,693.08827221998206 331,717.33698352594638 331,753.7100504848928" />
  <type>Hexagonal</type>
</svg>