<?xml version="1.0" encoding="utf-8" standalone="no"?>
<!DOCTYPE svg PUBLIC "-//W3C//DTD SVG 1.1//EN" "http://www.w3.org/Graphics/SVG/1.1/DTD/svg11.dtd"[]>
<svg width="308" height="308" version="1.1" xmlns="http://www.w3.org/2000/svg">
  <title>19 cells diameter theta maze</title>
  <g fill="none" stroke="#000000" stroke-width="2" stroke-linecap="square">
    <path d="M 138.02943725152286,171.97056274847714 A 24,24 0 1,1 155,179" />
    <path d="M 155,115 A 40,40 0 0,1 183.2842712474619,126.7157287525381" />
    <path d="M 191.95518130045147,139.6926627053964 A 40,40 0 0,1 195,155" />
    <path d="M 191.95518130045147,170.3073372946036 A 40,40 0 0,1 126.7157287525381,183.2842712474619" />
    <path d="M 118.04481869954853,170.3073372946036 A 40,40 0 0,1 115,155" />
    <path d="M 126.7157287525381,126.7157287525381 A 40,40 0 0,1 139.69266270539637,118.04481869954854" />
    <path d="M 133.56972778755494,103.26274617936795 A 56,56 0 0,1 176.43027221244503,103.26274617936795" />
    <path d="M 206.73725382063205,133.56972778755497 A 56,56 0 0,1 194.59797974644667,194.59797974644664" />
    <path d="M 155,211 A 56,56 0 0,1 115.40202025355333,115.40202025355335" />
    <path d="M 140.95349681483873,84.383459810967409 A 72,72 0 0,1 182.55320713028647,88.48067365918736" />
    <path d="M 221.51932634081265,127.44679286971353 A 72,72 0 0,1 227,155" />
    <path d="M 225.61654018903261,169.04650318516124 A 72,72 0 0,1 182.55320713028647,221.51932634081265" />
    <path d="M 114.99894322258867,214.86581208578326 A 72,72 0 0,1 95.134187914216739,195.00105677741135" />
    <path d="M 88.480673659187374,182.5532071302865 A 72,72 0 0,1 83,155" />
    <path d="M 84.383459810967409,140.95349681483876 A 72,72 0 0,1 95.134187914216724,114.99894322258867" />
    <path d="M 104.08831175456857,104.08831175456859 A 72,72 0 0,1 114.99894322258865,95.134187914216739" />
    <path d="M 137.83205166258068,68.690895324515722 A 88,88 0 0,1 172.16794833741929,68.690895324515722" />
    <path d="M 241.30910467548426,137.83205166258071 A 88,88 0 0,1 228.16932588262398,203.89018050572497" />
    <path d="M 217.22539674441617,217.22539674441617 A 88,88 0 0,1 155,243" />
    <path d="M 121.32385795187211,236.30139886099323 A 88,88 0 0,1 81.83067411737602,203.890180505725" />
    <path d="M 73.698601139006783,188.67614204812796 A 88,88 0 0,1 68.690895324515722,172.16794833741932" />
    <path d="M 67,155.00000000000003 A 88,88 0 0,1 73.698601139006769,121.32385795187207" />
    <path d="M 81.460894756599046,81.460894756599075 A 104,104 0 0,1 155,51" />
    <path d="M 175.28939348967734,52.998330838064035 A 104,104 0 0,1 212.77930423403862,68.527160320535287" />
    <path d="M 228.53910524340094,81.46089475659906 A 104,104 0 0,1 251.08347138117381,115.20092303403067" />
    <path d="M 257.001669161936,134.71060651032266 A 104,104 0 0,1 228.53910524340097,228.53910524340094" />
    <path d="M 212.77930423403862,241.4728396794647 A 104,104 0 0,1 194.79907696596933,251.08347138117381" />
    <path d="M 175.28939348967737,257.001669161936 A 104,104 0 0,1 115.20092303403068,251.08347138117381" />
    <path d="M 97.220695765961409,241.47283967946473 A 104,104 0 0,1 81.460894756599075,228.53910524340097" />
    <path d="M 68.527160320535287,212.77930423403862 A 104,104 0 0,1 68.527160320535273,97.220695765961409" />
    <path d="M 221.66842796235227,55.223646523694569 A 120,120 0 0,1 254.77635347630542,88.331572037647732" />
    <path d="M 265.86554390135439,109.07798811618923 A 120,120 0 0,1 272.69423364838764,131.58916135806459" />
    <path d="M 254.77635347630545,221.66842796235224 A 120,120 0 0,1 239.85281374238571,239.85281374238571" />
    <path d="M 200.9220118838108,265.86554390135439 A 120,120 0 0,1 88.331572037647774,254.77635347630547" />
    <path d="M 70.147186257614308,239.85281374238571 A 120,120 0 0,1 37.305766351612348,178.41083864193544" />
    <path d="M 35,155.00000000000003 A 120,120 0 0,1 70.14718625761428,70.147186257614322" />
    <path d="M 88.331572037647732,55.223646523694569 A 120,120 0 0,1 109.07798811618915,44.134456098645614" />
    <path d="M 141.66966891517978,19.654877172581223 A 136,136 0 0,1 155,19" />
    <path d="M 168.33033108482024,19.654877172581223 A 136,136 0 0,1 194.4787161066069,24.856114340419595" />
    <path d="M 207.0449468016522,29.352383578464995 A 136,136 0 0,1 219.10995620833569,35.058708048623714" />
    <path d="M 241.2774866462558,49.87057834266777 A 136,136 0 0,1 251.16652224137044,58.833477758629527" />
    <path d="M 260.12942165733222,68.7225133537442 A 136,136 0 0,1 291,155" />
    <path d="M 290.34512282741878,168.33033108482024 A 136,136 0 0,1 285.14388565958041,194.47871610660687" />
    <path d="M 280.647616421535,207.0449468016522 A 136,136 0 0,1 230.55755169066589,268.07986727314619" />
    <path d="M 207.04494680165223,280.64761642153496 A 136,136 0 0,1 168.33033108482027,290.34512282741878" />
    <path d="M 155.00000000000003,291 A 136,136 0 0,1 141.66966891517976,290.34512282741878" />
    <path d="M 128.46771620580654,288.38679813483935 A 136,136 0 0,1 90.890043791664326,274.94129195137629" />
    <path d="M 79.442448309334139,268.07986727314619 A 136,136 0 0,1 58.833477758629556,251.16652224137047" />
    <path d="M 41.920132726853836,230.55755169066589 A 136,136 0 0,1 35.058708048623728,219.10995620833572" />
    <path d="M 29.352383578465037,207.04494680165229 A 136,136 0 0,1 19.654877172581223,141.66966891517984" />
    <path d="M 21.613201865160647,128.46771620580654 A 136,136 0 0,1 29.352383578465009,102.95505319834777" />
    <path d="M 35.058708048623714,90.890043791664326 A 136,136 0 0,1 49.870578342667784,68.7225133537442" />
    <path d="M 58.833477758629513,58.833477758629556 A 136,136 0 0,1 79.4424483093341,41.920132726853851" />
    <path d="M 90.890043791664283,35.058708048623743 A 136,136 0 0,1 128.46771620580648,21.613201865160676" />
    <path d="M 169.8986053300932,3.7319215458260828 A 152,152 0 1,1 155,3" />
  </g>
  <g fill="none" stroke="#000000" stroke-width="2" stroke-linecap="butt">
    <line x1="155" y1="19" x2="155" y2="67" />
    <line x1="155" y1="83" x2="155" y2="115" />
    <line x1="181.53228379419343" y1="21.613201865160647" x2="175.28939348967734" y2="52.998330838064035" />
    <line x1="199.12327094267829" y1="9.5450689687042711" x2="194.47871610660687" y2="24.856114340419595" />
    <line x1="207.0449468016522" y1="29.352383578465009" x2="188.6761420481279" y2="73.698601139006769" />
    <line x1="239.44667541897954" y1="28.616618930013118" x2="221.66842796235227" y2="55.223646523694569" />
    <line x1="212.77930423403862" y1="68.5271603205353" x2="195.00105677741135" y2="95.134187914216739" />
    <line x1="262.48023074035518" y1="47.519769259644775" x2="251.16652224137044" y2="58.833477758629527" />
    <line x1="239.85281374238571" y1="70.1471862576143" x2="228.53910524340094" y2="81.460894756599046" />
    <line x1="217.22539674441617" y1="92.774603255583813" x2="183.2842712474619" y2="126.7157287525381" />
    <line x1="241.4728396794647" y1="97.220695765961352" x2="214.86581208578326" y2="114.99894322258864" />
    <line x1="280.64761642153496" y1="102.95505319834778" x2="265.86554390135439" y2="109.07798811618922" />
    <line x1="251.08347138117381" y1="115.20092303403067" x2="236.30139886099323" y2="121.3238579518721" />
    <line x1="221.51932634081265" y1="127.44679286971353" x2="206.73725382063205" y2="133.56972778755497" />
    <line x1="272.69423364838764" y1="131.58916135806459" x2="257.001669161936" y2="134.71060651032266" />
    <line x1="241.30910467548426" y1="137.83205166258071" x2="225.61654018903261" y2="140.95349681483876" />
    <line x1="306.26807845417392" y1="140.10139466990677" x2="290.34512282741878" y2="141.66966891517973" />
    <line x1="291" y1="155" x2="275" y2="155" />
    <line x1="195" y1="155" x2="179" y2="155" />
    <line x1="288.38679813483935" y1="181.53228379419343" x2="257.001669161936" y2="175.28939348967734" />
    <line x1="280.64761642153496" y1="207.0449468016522" x2="251.08347138117381" y2="194.79907696596933" />
    <line x1="241.47283967946473" y1="212.77930423403859" x2="228.16932588262398" y2="203.89018050572497" />
    <line x1="239.85281374238571" y1="239.85281374238571" x2="228.53910524340097" y2="228.53910524340094" />
    <line x1="217.22539674441617" y1="217.22539674441617" x2="205.91168824543144" y2="205.91168824543144" />
    <line x1="230.55755169066589" y1="268.07986727314619" x2="212.77930423403862" y2="241.4728396794647" />
    <line x1="226.65230399755166" y1="289.05203218094994" x2="219.10995620833569" y2="274.94129195137629" />
    <line x1="207.04494680165223" y1="280.64761642153496" x2="200.9220118838108" y2="265.86554390135439" />
    <line x1="182.55320713028647" y1="221.51932634081265" x2="170.3073372946036" y2="191.95518130045147" />
    <line x1="178.41083864193544" y1="272.69423364838764" x2="175.28939348967737" y2="257.001669161936" />
    <line x1="172.16794833741932" y1="241.30910467548426" x2="169.04650318516127" y2="225.61654018903261" />
    <line x1="155.00000000000003" y1="291" x2="155.00000000000003" y2="275" />
    <line x1="155" y1="243" x2="155" y2="227" />
    <line x1="155" y1="195" x2="155" y2="179" />
    <line x1="125.34627105354849" y1="304.079362621291" x2="128.46771620580654" y2="288.38679813483935" />
    <line x1="134.71060651032266" y1="257.001669161936" x2="140.95349681483876" y2="225.61654018903261" />
    <line x1="102.9550531983478" y1="280.647616421535" x2="109.07798811618923" y2="265.86554390135444" />
    <line x1="115.20092303403067" y1="251.08347138117384" x2="127.44679286971355" y2="221.51932634081265" />
    <line x1="79.442448309334139" y1="268.07986727314619" x2="88.33157203764776" y2="254.77635347630547" />
    <line x1="70.147186257614308" y1="239.85281374238571" x2="81.46089475659906" y2="228.53910524340097" />
    <line x1="104.08831175456858" y1="205.91168824543144" x2="115.40202025355335" y2="194.59797974644667" />
    <line x1="37.502411088864022" y1="251.4277791928742" x2="49.870578342667812" y2="241.27748664625585" />
    <line x1="28.616618930013118" y1="239.44667541897954" x2="55.223646523694569" y2="221.66842796235227" />
    <line x1="88.480673659187374" y1="182.5532071302865" x2="118.04481869954854" y2="170.3073372946036" />
    <line x1="21.613201865160676" y1="181.53228379419349" x2="37.305766351612363" y2="178.41083864193544" />
    <line x1="68.690895324515736" y1="172.16794833741932" x2="84.383459810967423" y2="169.04650318516127" />
    <line x1="35" y1="155.00000000000003" x2="67" y2="155.00000000000003" />
    <line x1="115" y1="155" x2="131" y2="155" />
    <line x1="29.352383578465023" y1="102.95505319834777" x2="44.1344560986456" y2="109.0779881161892" />
    <line x1="88.48067365918736" y1="127.44679286971352" x2="118.04481869954853" y2="139.6926627053964" />
    <line x1="20.947967819050035" y1="83.347696002448373" x2="35.058708048623714" y2="90.890043791664326" />
    <line x1="68.527160320535273" y1="97.220695765961409" x2="95.134187914216724" y2="114.99894322258867" />
    <line x1="58.833477758629513" y1="58.833477758629556" x2="92.7746032555838" y2="92.774603255583827" />
    <line x1="104.08831175456857" y1="104.08831175456859" x2="115.40202025355333" y2="115.40202025355335" />
    <line x1="126.7157287525381" y1="126.7157287525381" x2="138.02943725152286" y2="138.02943725152286" />
    <line x1="88.331572037647732" y1="55.223646523694569" x2="97.220695765961381" y2="68.5271603205353" />
    <line x1="106.109819494275" y1="81.83067411737602" x2="114.99894322258865" y2="95.134187914216739" />
    <line x1="83.347696002448316" y1="20.947967819050064" x2="90.890043791664283" y2="35.058708048623743" />
    <line x1="115.20092303403061" y1="58.916528618826206" x2="127.44679286971349" y2="88.480673659187374" />
    <line x1="131.58916135806456" y1="37.305766351612363" x2="134.71060651032261" y2="52.998330838064049" />
    <line x1="137.83205166258068" y1="68.690895324515736" x2="140.95349681483873" y2="84.383459810967423" />
    <line x1="140.1013946699068" y1="3.7319215458260544" x2="141.66966891517978" y2="19.654877172581223" />
  </g>
  <path fill="none" stroke="#ff0000" stroke-width="2" stroke-linecap="square" stroke-linejoin="round" d="M 162.45828649776755,3.1830906568137891 L 161.28066231390952,27.154181605737932 A 128,128 0 0,1 167.54619396218376,27.616354985958793 L 164.40964547163782,59.4622662394691 A 96,96 0 0,1 182.86732901642839,63.133727769707946 L 178.222774180357,78.4447731414233 A 80,80 0 0,1 192.71173894607981,84.446298852131591 L 185.16939115686384,98.557039081705284 A 64,64 0 0,1 195.60117018647333,105.52733098478484 L 215.90175527970996,80.790996477177245 A 96,96 0 0,1 229.20900352282274,94.098244720290026 L 204.47266901521516,114.39882981352669 A 64,64 0 0,1 208.2140551873629,119.44350508674546 L 194.91054139052216,128.33262881505908 A 48,48 0 0,1 181.66737118494089,194.91054139052218 L 190.55649491325454,208.2140551873629 A 64,64 0 0,0 218.69182250702062,161.27309698109187 L 234.61477813377576,162.84137122636486 A 80,80 0 0,1 216.84083626901895,205.75146273309161 L 229.20900352282274,215.90175527970996 A 96,96 0 0,1 145.59035452836218,250.5377337605309 L 148.72690301890813,218.69182250702062 A 64,64 0 0,0 167.48578060903222,217.77025794580675 L 164.36433545677417,202.07769345935506 A 48,48 0 0,1 115.08945860947783,181.66737118494092 L 128.39297240631856,172.77824745662727 A 32,32 0 0,0 142.75413016431713,184.56414504036118 L 145.81559762323786,177.17310878027089" />
  <type>Circular</type>
</svg>