<?xml version="1.0" encoding="utf-8" standalone="no"?>
<!DOCTYPE svg PUBLIC "-//W3C//DTD SVG 1.1//EN" "http://www.w3.org/Graphics/SVG/1.1/DTD/svg11.dtd"[]>
<svg width="308" height="308" version="1.1" xmlns="http://www.w3.org/2000/svg">
  <title>19 cells diameter theta maze</title>
  <g fill="none" stroke="#000000" stroke-width="2" stroke-linecap="square">
    <path d="M 138.02943725152286,171.97056274847714 A 24,24 0 1,1 155,179" />
    <path d="M 118.04481869954853,139.6926627053964 A 40,40 0 0,1 170.3073372946036,118.04481869954853" />
    <path d="M 191.95518130045147,139.6926627053964 A 40,40 0 0,1 195,155" />
    <path d="M 191.95518130045147,170.3073372946036 A 40,40 0 0,1 170.3073372946036,191.95518130045147" />
    <path d="M 155,195 A 40,40 0 0,1 139.6926627053964,191.95518130045147" />
    <path d="M 133.56972778755494,103.26274617936795 A 56,56 0 0,1 155,99" />
    <path d="M 206.73725382063205,133.56972778755497 A 56,56 0 0,1 194.59797974644667,194.59797974644664" />
    <path d="M 176.43027221244503,206.73725382063205 A 56,56 0 0,1 155,211" />
    <path d="M 115.40202025355335,194.59797974644667 A 56,56 0 0,1 99,155" />
    <path d="M 140.95349681483873,84.383459810967409 A 72,72 0 0,1 169.04650318516124,84.383459810967409" />
    <path d="M 182.55320713028647,88.48067365918736 A 72,72 0 0,1 205.91168824543144,104.08831175456858" />
    <path d="M 214.86581208578326,114.99894322258864 A 72,72 0 0,1 225.61654018903261,140.95349681483876" />
    <path d="M 227,155 A 72,72 0 0,1 214.86581208578326,195.00105677741135" />
    <path d="M 195.00105677741135,214.86581208578326 A 72,72 0 0,1 169.04650318516127,225.61654018903261" />
    <path d="M 155,227 A 72,72 0 0,1 95.134187914216739,195.00105677741135" />
    <path d="M 88.480673659187374,182.5532071302865 A 72,72 0 0,1 84.383459810967409,169.04650318516127" />
    <path d="M 83,155 A 72,72 0 0,1 95.134187914216724,114.99894322258867" />
    <path d="M 104.08831175456857,104.08831175456859 A 72,72 0 0,1 114.99894322258865,95.134187914216739" />
    <path d="M 155,67 A 88,88 0 0,1 203.890180505725,81.83067411737602" />
    <path d="M 217.22539674441617,92.774603255583813 A 88,88 0 0,1 228.16932588262398,106.109819494275" />
    <path d="M 236.30139886099323,121.3238579518721 A 88,88 0 0,1 243,155" />
    <path d="M 241.30910467548426,172.16794833741929 A 88,88 0 0,1 217.22539674441617,217.22539674441617" />
    <path d="M 203.89018050572497,228.16932588262398 A 88,88 0 0,1 188.6761420481279,236.30139886099323" />
    <path d="M 121.32385795187211,236.30139886099323 A 88,88 0 0,1 73.698601139006783,188.67614204812796" />
    <path d="M 68.690895324515722,172.16794833741932 A 88,88 0 0,1 68.690895324515722,137.83205166258071" />
    <path d="M 73.698601139006769,121.32385795187207 A 88,88 0 0,1 121.32385795187204,73.698601139006783" />
    <path d="M 175.28939348967734,52.998330838064035 A 104,104 0 0,1 212.77930423403862,68.527160320535287" />
    <path d="M 241.4728396794647,97.220695765961366 A 104,104 0 0,1 251.08347138117381,115.20092303403067" />
    <path d="M 259,155 A 104,104 0 0,1 257.001669161936,175.28939348967734" />
    <path d="M 228.53910524340097,228.53910524340094 A 104,104 0 0,1 212.77930423403862,241.4728396794647" />
    <path d="M 194.79907696596933,251.08347138117381 A 104,104 0 0,1 155,259" />
    <path d="M 134.71060651032266,257.001669161936 A 104,104 0 0,1 97.220695765961409,241.47283967946473" />
    <path d="M 68.527160320535287,212.77930423403862 A 104,104 0 0,1 52.998330838064035,175.28939348967737" />
    <path d="M 52.998330838064035,134.71060651032266 A 104,104 0 0,1 58.916528618826192,115.20092303403064" />
    <path d="M 68.527160320535273,97.220695765961409 A 104,104 0 0,1 97.220695765961366,68.5271603205353" />
    <path d="M 115.20092303403061,58.916528618826206 A 104,104 0 0,1 134.71060651032261,52.998330838064049" />
    <path d="M 88.331572037647732,55.223646523694569 A 120,120 0 0,1 178.41083864193539,37.305766351612348" />
    <path d="M 200.92201188381077,44.134456098645586 A 120,120 0 0,1 254.77635347630542,88.331572037647732" />
    <path d="M 265.86554390135439,109.07798811618923 A 120,120 0 0,1 275,155" />
    <path d="M 265.86554390135439,200.92201188381077 A 120,120 0 0,1 254.77635347630545,221.66842796235224" />
    <path d="M 221.66842796235227,254.77635347630542 A 120,120 0 0,1 200.9220118838108,265.86554390135439" />
    <path d="M 155.00000000000003,275 A 120,120 0 0,1 131.58916135806459,272.69423364838764" />
    <path d="M 88.331572037647774,254.77635347630547 A 120,120 0 0,1 55.223646523694569,221.66842796235227" />
    <path d="M 44.134456098645614,200.92201188381085 A 120,120 0 0,1 37.305766351612348,131.58916135806462" />
    <path d="M 19,155.00000000000003 A 136,136 0 0,1 168.33033108482024,19.654877172581223" />
    <path d="M 181.53228379419343,21.613201865160647 A 136,136 0 0,1 230.55755169066589,41.920132726853851" />
    <path d="M 241.2774866462558,49.87057834266777 A 136,136 0 0,1 280.64761642153496,102.95505319834778" />
    <path d="M 285.14388565958041,115.52128389339313 A 136,136 0 0,1 288.38679813483935,128.46771620580654" />
    <path d="M 290.34512282741878,141.66966891517973 A 136,136 0 0,1 274.94129195137629,219.10995620833569" />
    <path d="M 268.07986727314619,230.55755169066589 A 136,136 0 0,1 260.12942165733227,241.27748664625577" />
    <path d="M 241.2774866462558,260.12942165733222 A 136,136 0 0,1 219.10995620833569,274.94129195137629" />
    <path d="M 207.04494680165223,280.64761642153496 A 136,136 0 0,1 181.53228379419349,288.3867981348393" />
    <path d="M 90.890043791664326,274.94129195137629 A 136,136 0 0,1 58.833477758629556,251.16652224137047" />
    <path d="M 49.870578342667812,241.27748664625585 A 136,136 0 0,1 41.920132726853836,230.55755169066589" />
    <path d="M 35.058708048623728,219.10995620833572 A 136,136 0 0,1 29.352383578465037,207.04494680165229" />
    <path d="M 24.856114340419595,194.4787161066069 A 136,136 0 0,1 19.654877172581223,168.33033108482022" />
    <path d="M 169.8986053300932,3.7319215458260828 A 152,152 0 1,1 155,3" />
  </g>
  <g fill="none" stroke="#000000" stroke-width="2" stroke-linecap="butt">
    <line x1="155" y1="51" x2="155" y2="67" />
    <line x1="181.53228379419343" y1="21.613201865160647" x2="175.28939348967734" y2="52.998330838064035" />
    <line x1="172.16794833741929" y1="68.690895324515722" x2="169.04650318516124" y2="84.383459810967409" />
    <line x1="182.55320713028647" y1="88.48067365918736" x2="170.3073372946036" y2="118.04481869954853" />
    <line x1="230.55755169066589" y1="41.920132726853851" x2="221.66842796235227" y2="55.223646523694569" />
    <line x1="228.53910524340094" y1="81.460894756599046" x2="205.91168824543144" y2="104.08831175456857" />
    <line x1="194.59797974644664" y1="115.40202025355333" x2="171.97056274847714" y2="138.02943725152286" />
    <line x1="241.4728396794647" y1="97.220695765961352" x2="228.16932588262398" y2="106.109819494275" />
    <line x1="295.4296889417156" y1="96.832118280506336" x2="280.64761642153496" y2="102.95505319834778" />
    <line x1="265.86554390135439" y1="109.07798811618922" x2="251.08347138117381" y2="115.20092303403067" />
    <line x1="236.30139886099323" y1="121.3238579518721" x2="191.95518130045147" y2="139.6926627053964" />
    <line x1="288.38679813483935" y1="128.46771620580654" x2="272.69423364838764" y2="131.58916135806459" />
    <line x1="257.001669161936" y1="134.71060651032266" x2="241.30910467548426" y2="137.83205166258071" />
    <line x1="306.26807845417392" y1="140.10139466990677" x2="290.34512282741878" y2="141.66966891517973" />
    <line x1="275" y1="155" x2="243" y2="155" />
    <line x1="288.38679813483935" y1="181.53228379419343" x2="272.69423364838764" y2="178.41083864193539" />
    <line x1="241.30910467548426" y1="172.16794833741929" x2="225.61654018903261" y2="169.04650318516124" />
    <line x1="251.08347138117381" y1="194.79907696596933" x2="236.30139886099323" y2="188.6761420481279" />
    <line x1="268.07986727314619" y1="230.55755169066586" x2="254.77635347630547" y2="221.66842796235224" />
    <line x1="241.47283967946473" y1="212.77930423403859" x2="228.16932588262398" y2="203.89018050572497" />
    <line x1="272.49758891113606" y1="251.42777919287408" x2="260.12942165733227" y2="241.27748664625577" />
    <line x1="262.48023074035524" y1="262.48023074035518" x2="228.53910524340097" y2="228.53910524340094" />
    <line x1="217.22539674441617" y1="217.22539674441617" x2="194.59797974644667" y2="194.59797974644664" />
    <line x1="251.42777919287411" y1="272.497588911136" x2="241.2774866462558" y2="260.12942165733222" />
    <line x1="230.55755169066589" y1="268.07986727314619" x2="221.66842796235227" y2="254.77635347630545" />
    <line x1="203.890180505725" y1="228.16932588262398" x2="195.00105677741135" y2="214.86581208578326" />
    <line x1="213.16788171949366" y1="295.4296889417156" x2="207.04494680165223" y2="280.64761642153496" />
    <line x1="200.9220118838108" y1="265.86554390135439" x2="188.6761420481279" y2="236.30139886099323" />
    <line x1="176.43027221244503" y1="206.73725382063205" x2="170.3073372946036" y2="191.95518130045147" />
    <line x1="181.53228379419349" y1="288.38679813483935" x2="178.41083864193544" y2="272.69423364838764" />
    <line x1="172.16794833741932" y1="241.30910467548426" x2="169.04650318516127" y2="225.61654018903261" />
    <line x1="169.89860533009323" y1="306.26807845417392" x2="168.33033108482027" y2="290.34512282741878" />
    <line x1="155.00000000000003" y1="291" x2="155" y2="243" />
    <line x1="155" y1="211" x2="155" y2="179" />
    <line x1="140.1013946699068" y1="306.268078454174" x2="141.66966891517976" y2="290.34512282741878" />
    <line x1="128.46771620580654" y1="288.38679813483935" x2="131.58916135806459" y2="272.69423364838764" />
    <line x1="134.71060651032266" y1="257.001669161936" x2="140.95349681483876" y2="225.61654018903261" />
    <line x1="110.87672905732177" y1="300.45493103129576" x2="115.52128389339316" y2="285.14388565958041" />
    <line x1="96.832118280506364" y1="295.4296889417156" x2="115.20092303403067" y2="251.08347138117384" />
    <line x1="127.44679286971355" y1="221.51932634081265" x2="139.6926627053964" y2="191.95518130045147" />
    <line x1="47.519769259644789" y1="262.48023074035524" x2="58.833477758629542" y2="251.1665222413705" />
    <line x1="70.147186257614308" y1="239.85281374238571" x2="92.774603255583827" y2="217.2253967444162" />
    <line x1="115.40202025355335" y1="194.59797974644667" x2="138.02943725152286" y2="171.97056274847714" />
    <line x1="41.920132726853851" y1="230.55755169066589" x2="68.5271603205353" y2="212.77930423403862" />
    <line x1="20.947967819050064" y1="226.65230399755166" x2="35.058708048623728" y2="219.10995620833569" />
    <line x1="73.698601139006783" y1="188.67614204812796" x2="118.04481869954854" y2="170.3073372946036" />
    <line x1="21.613201865160676" y1="181.53228379419349" x2="52.998330838064049" y2="175.28939348967737" />
    <line x1="51" y1="155.00000000000003" x2="83" y2="155" />
    <line x1="115" y1="155" x2="131" y2="155" />
    <line x1="37.305766351612348" y1="131.58916135806462" x2="52.998330838064035" y2="134.71060651032266" />
    <line x1="14.570311058284432" y1="96.832118280506322" x2="44.1344560986456" y2="109.0779881161892" />
    <line x1="58.916528618826192" y1="115.20092303403064" x2="73.698601139006783" y2="121.32385795187207" />
    <line x1="88.48067365918736" y1="127.44679286971352" x2="118.04481869954853" y2="139.6926627053964" />
    <line x1="55.223646523694541" y1="88.331572037647774" x2="68.527160320535273" y2="97.220695765961409" />
    <line x1="81.830674117376" y1="106.10981949427503" x2="95.134187914216724" y2="114.99894322258867" />
    <line x1="58.833477758629513" y1="58.833477758629556" x2="81.460894756599046" y2="81.460894756599075" />
    <line x1="104.08831175456857" y1="104.08831175456859" x2="126.7157287525381" y2="126.7157287525381" />
    <line x1="115.20092303403061" y1="58.916528618826206" x2="133.56972778755494" y2="103.26274617936795" />
    <line x1="131.58916135806456" y1="37.305766351612363" x2="140.95349681483873" y2="84.383459810967423" />
  </g>
  <path fill="none" stroke="#ff0000" stroke-width="2" stroke-linecap="square" stroke-linejoin="round" d="M 162.45828649776755,3.1830906568137891 L 162.0657451031482,11.17345430645517 A 144,144 0 0,1 176.12918832157209,12.558582565071532 L 173.7815007302863,28.38540672450803 A 128,128 0 0,0 73.797659627053321,56.054661969569707 L 83.947952173671652,68.4228292233735 A 112,112 0 0,1 102.20356547548823,56.224818392984261 L 109.7459132647042,70.335558622557926 A 96,96 0 0,0 70.335558622557912,109.74591326470423 L 56.224818392984233,102.20356547548828 A 112,112 0 0,0 47.822682397992594,122.48811614750025 L 32.511637026277256,117.84356131142886 A 128,128 0 0,0 27.154181605737932,161.28066231390952 L 11.17345430645517,162.0657451031482 A 144,144 0 0,0 19.417654613645,203.51213888847968 L 34.482359656573337,198.12190123420416 A 128,128 0 0,0 45.210737919965183,220.80515125673239 L 31.487080159960826,229.03079516382394 A 144,144 0 0,0 48.303037948885915,251.70448949797068 L 60.158255954565263,240.95954622041839 A 128,128 0 0,0 94.6612176862723,267.88592183658943 L 102.20356547548826,253.77518160701578 A 112,112 0 0,1 83.947952173671723,241.57717077662656 L 94.098244720290054,229.20900352282277 A 96,96 0 0,0 127.13267098357164,246.86627223029205 L 131.77722581964304,231.5552268585767 A 80,80 0 0,1 84.4462988521316,192.71173894607983 L 98.557039081705284,185.16939115686387 A 64,64 0 0,0 119.44350508674548,208.2140551873629 L 137.22175254337273,181.60702759368147 A 32,32 0 0,0 142.75413016431713,184.56414504036118 L 145.81559762323786,177.17310878027089" />
  <type>Circular</type>
</svg>