<?xml version="1.0" encoding="utf-8" standalone="no"?>
<!DOCTYPE svg PUBLIC "-//W3C//DTD SVG 1.1//EN" "http://www.w3.org/Graphics/SVG/1.1/DTD/svg11.dtd"[]>
<svg width="308" height="308" version="1.1" xmlns="http://www.w3.org/2000/svg">
  <title>19 cells diameter theta maze</title>
  <g fill="none" stroke="#000000" stroke-width="2" stroke-linecap="square">
    <path d="M 138.02943725152286,171.97056274847714 A 24,24 0 1,1 155,179" />
    <path d="M 155,115 A 40,40 0 0,1 183.2842712474619,126.7157287525381" />
    <path d="M 191.95518130045147,139.6926627053964 A 40,40 0 0,1 195,155" />
    <path d="M 191.95518130045147,170.3073372946036 A 40,40 0 0,1 126.7157287525381,183.2842712474619" />
    <path d="M 118.04481869954853,170.3073372946036 A 40,40 0 0,1 126.7157287525381,126.7157287525381" />
    <path d="M 115.40202025355333,115.40202025355335 A 56,56 0 0,1 176.43027221244503,103.26274617936795" />
    <path d="M 194.59797974644667,115.40202025355333 A 56,56 0 0,1 206.73725382063205,133.56972778755497" />
    <path d="M 211,155 A 56,56 0 0,1 155,211" />
    <path d="M 133.569727787555,206.73725382063208 A 56,56 0 0,1 115.40202025355335,194.59797974644667" />
    <path d="M 99,155 A 56,56 0 0,1 103.26274617936795,133.56972778755497" />
    <path d="M 155,83 A 72,72 0 0,1 169.04650318516124,84.383459810967409" />
    <path d="M 182.55320713028647,88.48067365918736 A 72,72 0 0,1 214.86581208578326,114.99894322258864" />
    <path d="M 221.51932634081265,127.44679286971353 A 72,72 0 0,1 225.61654018903261,169.04650318516124" />
    <path d="M 221.51932634081265,182.55320713028647 A 72,72 0 0,1 205.91168824543144,205.91168824543141" />
    <path d="M 195.00105677741135,214.86581208578326 A 72,72 0 0,1 182.55320713028647,221.51932634081265" />
    <path d="M 169.04650318516127,225.61654018903261 A 72,72 0 0,1 127.44679286971355,221.51932634081265" />
    <path d="M 114.99894322258867,214.86581208578326 A 72,72 0 0,1 104.08831175456859,205.91168824543144" />
    <path d="M 95.134187914216739,195.00105677741135 A 72,72 0 0,1 84.383459810967409,140.95349681483876" />
    <path d="M 88.48067365918736,127.44679286971352 A 72,72 0 0,1 95.134187914216724,114.99894322258867" />
    <path d="M 104.08831175456857,104.08831175456859 A 72,72 0 0,1 140.95349681483873,84.383459810967409" />
    <path d="M 155,67 A 88,88 0 0,1 203.890180505725,81.83067411737602" />
    <path d="M 241.30910467548426,137.83205166258071 A 88,88 0 0,1 243,155" />
    <path d="M 203.89018050572497,228.16932588262398 A 88,88 0 0,1 172.16794833741932,241.30910467548426" />
    <path d="M 155,243 A 88,88 0 0,1 121.32385795187211,236.30139886099323" />
    <path d="M 92.774603255583827,217.2253967444162 A 88,88 0 0,1 81.83067411737602,203.890180505725" />
    <path d="M 68.690895324515722,172.16794833741932 A 88,88 0 0,1 68.690895324515722,137.83205166258071" />
    <path d="M 81.830674117375992,106.10981949427503 A 88,88 0 0,1 121.32385795187204,73.698601139006783" />
    <path d="M 81.460894756599046,81.460894756599075 A 104,104 0 0,1 194.79907696596933,58.916528618826177" />
    <path d="M 212.77930423403862,68.527160320535287 A 104,104 0 0,1 228.53910524340094,81.46089475659906" />
    <path d="M 257.001669161936,134.71060651032266 A 104,104 0 0,1 259,155" />
    <path d="M 228.53910524340097,228.53910524340094 A 104,104 0 0,1 194.79907696596933,251.08347138117381" />
    <path d="M 175.28939348967737,257.001669161936 A 104,104 0 0,1 155,259" />
    <path d="M 134.71060651032266,257.001669161936 A 104,104 0 0,1 81.460894756599075,228.53910524340097" />
    <path d="M 58.916528618826206,194.79907696596939 A 104,104 0 0,1 51,155.00000000000003" />
    <path d="M 58.916528618826192,115.20092303403064 A 104,104 0 0,1 68.527160320535273,97.220695765961409" />
    <path d="M 109.07798811618915,44.134456098645614 A 120,120 0 0,1 155,35" />
    <path d="M 178.41083864193539,37.305766351612348 A 120,120 0 0,1 200.92201188381077,44.134456098645586" />
    <path d="M 254.77635347630542,88.331572037647732 A 120,120 0 0,1 265.86554390135439,109.07798811618923" />
    <path d="M 272.69423364838764,131.58916135806459 A 120,120 0 0,1 275,155" />
    <path d="M 272.69423364838764,178.41083864193539 A 120,120 0 0,1 265.86554390135439,200.92201188381077" />
    <path d="M 200.9220118838108,265.86554390135439 A 120,120 0 0,1 155.00000000000003,275" />
    <path d="M 109.07798811618925,265.86554390135439 A 120,120 0 0,1 35,155.00000000000003" />
    <path d="M 37.305766351612348,131.58916135806462 A 120,120 0 0,1 44.1344560986456,109.0779881161892" />
    <path d="M 55.223646523694541,88.331572037647774 A 120,120 0 0,1 70.14718625761428,70.147186257614322" />
    <path d="M 141.66966891517978,19.654877172581223 A 136,136 0 0,1 168.33033108482024,19.654877172581223" />
    <path d="M 207.0449468016522,29.352383578464995 A 136,136 0 0,1 251.16652224137044,58.833477758629527" />
    <path d="M 260.12942165733222,68.7225133537442 A 136,136 0 0,1 274.94129195137629,90.8900437916643" />
    <path d="M 280.64761642153496,102.95505319834778 A 136,136 0 0,1 290.34512282741878,141.66966891517973" />
    <path d="M 291,155 A 136,136 0 0,1 288.38679813483935,181.53228379419343" />
    <path d="M 280.647616421535,207.0449468016522 A 136,136 0 0,1 274.94129195137629,219.10995620833569" />
    <path d="M 260.12942165733227,241.27748664625577 A 136,136 0 0,1 241.2774866462558,260.12942165733222" />
    <path d="M 230.55755169066589,268.07986727314619 A 136,136 0 0,1 219.10995620833569,274.94129195137629" />
    <path d="M 155.00000000000003,291 A 136,136 0 0,1 141.66966891517976,290.34512282741878" />
    <path d="M 128.46771620580654,288.38679813483935 A 136,136 0 0,1 90.890043791664326,274.94129195137629" />
    <path d="M 68.722513353744233,260.12942165733227 A 136,136 0 0,1 19.654877172581223,168.33033108482022" />
    <path d="M 19,155.00000000000003 A 136,136 0 0,1 24.856114340419595,115.52128389339316" />
    <path d="M 29.352383578465009,102.95505319834777 A 136,136 0 0,1 41.920132726853822,79.442448309334139" />
    <path d="M 49.870578342667784,68.7225133537442 A 136,136 0 0,1 90.890043791664283,35.058708048623743" />
    <path d="M 102.95505319834771,29.352383578465037 A 136,136 0 0,1 115.5212838933931,24.856114340419595" />
    <path d="M 169.8986053300932,3.7319215458260828 A 152,152 0 1,1 155,3" />
  </g>
  <g fill="none" stroke="#000000" stroke-width="2" stroke-linecap="butt">
    <line x1="155" y1="19" x2="155" y2="51" />
    <line x1="155" y1="67" x2="155" y2="99" />
    <line x1="155" y1="115" x2="155" y2="131" />
    <line x1="181.53228379419343" y1="21.613201865160647" x2="178.41083864193539" y2="37.305766351612348" />
    <line x1="199.12327094267829" y1="9.5450689687042711" x2="194.47871610660687" y2="24.856114340419595" />
    <line x1="213.16788171949366" y1="14.570311058284403" x2="200.92201188381077" y2="44.134456098645586" />
    <line x1="194.79907696596933" y1="58.916528618826177" x2="182.55320713028647" y2="88.48067365918736" />
    <line x1="221.66842796235227" y1="55.223646523694569" x2="212.77930423403862" y2="68.5271603205353" />
    <line x1="251.16652224137044" y1="58.833477758629527" x2="217.22539674441617" y2="92.774603255583813" />
    <line x1="205.91168824543144" y1="104.08831175456857" x2="194.59797974644664" y2="115.40202025355333" />
    <line x1="281.38338106998685" y1="70.553324581020448" x2="268.07986727314614" y2="79.442448309334083" />
    <line x1="241.4728396794647" y1="97.220695765961352" x2="214.86581208578326" y2="114.99894322258864" />
    <line x1="295.4296889417156" y1="96.832118280506336" x2="236.30139886099323" y2="121.3238579518721" />
    <line x1="288.38679813483935" y1="128.46771620580654" x2="272.69423364838764" y2="131.58916135806459" />
    <line x1="307" y1="155" x2="291" y2="155" />
    <line x1="275" y1="155" x2="243" y2="155" />
    <line x1="227" y1="155" x2="211" y2="155" />
    <line x1="195" y1="155" x2="179" y2="155" />
    <line x1="288.38679813483935" y1="181.53228379419343" x2="241.30910467548426" y2="172.16794833741929" />
    <line x1="300.45493103129576" y1="199.12327094267823" x2="285.14388565958041" y2="194.47871610660684" />
    <line x1="280.64761642153496" y1="207.0449468016522" x2="236.30139886099323" y2="188.6761420481279" />
    <line x1="206.73725382063205" y1="176.43027221244503" x2="191.95518130045147" y2="170.3073372946036" />
    <line x1="281.38338106998691" y1="239.44667541897951" x2="214.86581208578326" y2="195.00105677741135" />
    <line x1="262.48023074035524" y1="262.48023074035518" x2="239.85281374238571" y2="239.85281374238571" />
    <line x1="217.22539674441617" y1="217.22539674441617" x2="205.91168824543144" y2="205.91168824543144" />
    <line x1="230.55755169066589" y1="268.07986727314619" x2="195.00105677741135" y2="214.86581208578326" />
    <line x1="207.04494680165223" y1="280.64761642153496" x2="194.79907696596933" y2="251.08347138117381" />
    <line x1="199.12327094267829" y1="300.4549310312957" x2="194.4787161066069" y2="285.14388565958041" />
    <line x1="181.53228379419349" y1="288.38679813483935" x2="178.41083864193544" y2="272.69423364838764" />
    <line x1="172.16794833741932" y1="241.30910467548426" x2="169.04650318516127" y2="225.61654018903261" />
    <line x1="169.89860533009323" y1="306.26807845417392" x2="168.33033108482027" y2="290.34512282741878" />
    <line x1="155.00000000000003" y1="291" x2="155" y2="259" />
    <line x1="155" y1="243" x2="155" y2="227" />
    <line x1="155" y1="195" x2="155" y2="179" />
    <line x1="128.46771620580654" y1="288.38679813483935" x2="131.58916135806459" y2="272.69423364838764" />
    <line x1="134.71060651032266" y1="257.001669161936" x2="137.83205166258071" y2="241.30910467548426" />
    <line x1="83.347696002448359" y1="289.05203218094994" x2="90.890043791664326" y2="274.94129195137629" />
    <line x1="79.442448309334139" y1="268.07986727314619" x2="88.33157203764776" y2="254.77635347630547" />
    <line x1="97.2206957659614" y1="241.47283967946473" x2="106.10981949427503" y2="228.16932588262398" />
    <line x1="58.833477758629542" y1="251.1665222413705" x2="126.7157287525381" y2="183.2842712474619" />
    <line x1="55.223646523694569" y1="221.66842796235227" x2="68.5271603205353" y2="212.77930423403862" />
    <line x1="73.698601139006783" y1="188.67614204812796" x2="118.04481869954854" y2="170.3073372946036" />
    <line x1="3" y1="155.00000000000003" x2="51" y2="155.00000000000003" />
    <line x1="83" y1="155" x2="99" y2="155" />
    <line x1="115" y1="155" x2="131" y2="155" />
    <line x1="21.613201865160647" y1="128.46771620580654" x2="68.690895324515722" y2="137.83205166258071" />
    <line x1="58.916528618826192" y1="115.20092303403064" x2="73.698601139006783" y2="121.32385795187207" />
    <line x1="41.920132726853822" y1="79.442448309334154" x2="68.527160320535273" y2="97.220695765961409" />
    <line x1="81.830674117376" y1="106.10981949427503" x2="95.134187914216724" y2="114.99894322258867" />
    <line x1="58.833477758629513" y1="58.833477758629556" x2="70.14718625761428" y2="70.147186257614322" />
    <line x1="115.40202025355333" y1="115.40202025355335" x2="126.7157287525381" y2="126.7157287525381" />
    <line x1="79.442448309334111" y1="41.920132726853851" x2="97.220695765961381" y2="68.5271603205353" />
    <line x1="106.109819494275" y1="81.83067411737602" x2="114.99894322258865" y2="95.134187914216739" />
    <line x1="96.832118280506251" y1="14.57031105828446" x2="102.95505319834771" y2="29.352383578465037" />
    <line x1="133.56972778755494" y1="103.26274617936795" x2="139.69266270539637" y2="118.04481869954854" />
    <line x1="125.34627105354844" y1="5.9206373787089888" x2="128.46771620580648" y2="21.613201865160676" />
    <line x1="134.71060651032261" y1="52.998330838064049" x2="140.95349681483873" y2="84.383459810967423" />
  </g>
  <path fill="none" stroke="#ff0000" stroke-width="2" stroke-linecap="square" stroke-linejoin="round" d="M 162.45828649776755,3.1830906568137891 L 162.0657451031482,11.17345430645517 A 144,144 0 0,0 133.87081167842783,12.558582565071561 L 136.21849926971362,28.385406724508044 A 128,128 0 0,0 100.27294804092384,39.289370480199281 L 93.432066546039323,24.825541790224179 A 144,144 0 0,0 19.417654613645,106.48786111152037 L 34.482359656573323,111.8780987657959 A 128,128 0 0,1 42.114078163410554,94.661217686272309 L 56.224818392984233,102.20356547548828 A 112,112 0 0,0 47.822682397992594,122.48811614750025 L 78.444773141423283,131.77722581964304 A 80,80 0 0,0 78.4447731414233,178.222774180357 L 63.133727769707946,182.86732901642839 A 96,96 0 0,0 70.335558622557926,200.2540867352958 L 84.4462988521316,192.71173894607983 A 80,80 0 0,0 93.159163730981078,205.75146273309167 L 105.52733098478485,195.60117018647333 A 64,64 0 0,1 101.7859448126371,190.55649491325454 L 128.39297240631856,172.77824745662727 A 32,32 0 0,0 142.75413016431713,184.56414504036118 L 145.81559762323786,177.17310878027089" />
  <type>Circular</type>
</svg>