<?xml version="1.0" encoding="utf-8" standalone="no"?>
<!DOCTYPE svg PUBLIC "-//W3C//DTD SVG 1.1//EN" "http://www.w3.org/Graphics/SVG/1.1/DTD/svg11.dtd"[]>
<svg width="308" height="308" version="1.1" xmlns="http://www.w3.org/2000/svg">
  <title>19 cells diameter theta maze</title>
  <g fill="none" stroke="#000000" stroke-width="2" stroke-linecap="square">
    <path d="M 138.02943725152286,171.97056274847714 A 24,24 0 1,1 155,179" />
    <path d="M 155,115 A 40,40 0 0,1 191.95518130045147,139.6926627053964" />
    <path d="M 195,155 A 40,40 0 0,1 183.2842712474619,183.2842712474619" />
    <path d="M 170.3073372946036,191.95518130045147 A 40,40 0 0,1 139.6926627053964,191.95518130045147" />
    <path d="M 126.7157287525381,183.2842712474619 A 40,40 0 0,1 118.04481869954853,170.3073372946036" />
    <path d="M 118.04481869954853,139.6926627053964 A 40,40 0 0,1 139.69266270539637,118.04481869954854" />
    <path d="M 133.56972778755494,103.26274617936795 A 56,56 0 0,1 155,99" />
    <path d="M 176.43027221244503,103.26274617936795 A 56,56 0 0,1 211,155" />
    <path d="M 194.59797974644667,194.59797974644664 A 56,56 0 0,1 176.43027221244503,206.73725382063205" />
    <path d="M 155,211 A 56,56 0 0,1 103.26274617936795,176.43027221244506" />
    <path d="M 103.26274617936795,133.56972778755497 A 56,56 0 0,1 115.40202025355333,115.40202025355335" />
    <path d="M 127.44679286971349,88.480673659187374 A 72,72 0 0,1 195.00105677741135,95.134187914216739" />
    <path d="M 205.91168824543144,104.08831175456858 A 72,72 0 0,1 214.86581208578326,114.99894322258864" />
    <path d="M 221.51932634081265,127.44679286971353 A 72,72 0 0,1 225.61654018903261,140.95349681483876" />
    <path d="M 227,155 A 72,72 0 0,1 221.51932634081265,182.55320713028647" />
    <path d="M 214.86581208578326,195.00105677741135 A 72,72 0 0,1 205.91168824543144,205.91168824543141" />
    <path d="M 195.00105677741135,214.86581208578326 A 72,72 0 0,1 155,227" />
    <path d="M 140.95349681483876,225.61654018903261 A 72,72 0 0,1 114.99894322258867,214.86581208578326" />
    <path d="M 104.08831175456859,205.91168824543144 A 72,72 0 0,1 95.134187914216739,195.00105677741135" />
    <path d="M 88.480673659187374,182.5532071302865 A 72,72 0 0,1 95.134187914216724,114.99894322258867" />
    <path d="M 104.08831175456857,104.08831175456859 A 72,72 0 0,1 114.99894322258865,95.134187914216739" />
    <path d="M 137.83205166258068,68.690895324515722 A 88,88 0 0,1 155,67" />
    <path d="M 172.16794833741929,68.690895324515722 A 88,88 0 0,1 188.6761420481279,73.698601139006769" />
    <path d="M 203.890180505725,81.83067411737602 A 88,88 0 0,1 228.16932588262398,106.109819494275" />
    <path d="M 236.30139886099323,121.3238579518721 A 88,88 0 0,1 241.30910467548426,137.83205166258071" />
    <path d="M 236.30139886099323,188.6761420481279 A 88,88 0 0,1 228.16932588262398,203.89018050572497" />
    <path d="M 203.89018050572497,228.16932588262398 A 88,88 0 0,1 188.6761420481279,236.30139886099323" />
    <path d="M 172.16794833741932,241.30910467548426 A 88,88 0 0,1 137.83205166258071,241.30910467548426" />
    <path d="M 81.83067411737602,203.890180505725 A 88,88 0 0,1 73.698601139006783,188.67614204812796" />
    <path d="M 68.690895324515722,137.83205166258071 A 88,88 0 0,1 92.7746032555838,92.774603255583827" />
    <path d="M 155,51 A 104,104 0 0,1 212.77930423403862,68.527160320535287" />
    <path d="M 241.4728396794647,97.220695765961366 A 104,104 0 0,1 251.08347138117381,115.20092303403067" />
    <path d="M 257.001669161936,175.28939348967734 A 104,104 0 0,1 228.53910524340097,228.53910524340094" />
    <path d="M 155,259 A 104,104 0 0,1 115.20092303403068,251.08347138117381" />
    <path d="M 97.220695765961409,241.47283967946473 A 104,104 0 0,1 58.916528618826206,194.79907696596939" />
    <path d="M 58.916528618826192,115.20092303403064 A 104,104 0 0,1 68.527160320535273,97.220695765961409" />
    <path d="M 88.331572037647732,55.223646523694569 A 120,120 0 0,1 155,35" />
    <path d="M 178.41083864193539,37.305766351612348 A 120,120 0 0,1 200.92201188381077,44.134456098645586" />
    <path d="M 221.66842796235227,55.223646523694569 A 120,120 0 0,1 254.77635347630542,88.331572037647732" />
    <path d="M 275,155 A 120,120 0 0,1 272.69423364838764,178.41083864193539" />
    <path d="M 265.86554390135439,200.92201188381077 A 120,120 0 0,1 254.77635347630545,221.66842796235224" />
    <path d="M 221.66842796235227,254.77635347630542 A 120,120 0 0,1 200.9220118838108,265.86554390135439" />
    <path d="M 178.41083864193544,272.69423364838764 A 120,120 0 0,1 155.00000000000003,275" />
    <path d="M 131.58916135806459,272.69423364838764 A 120,120 0 0,1 109.07798811618925,265.86554390135439" />
    <path d="M 44.134456098645614,200.92201188381085 A 120,120 0 0,1 70.14718625761428,70.147186257614322" />
    <path d="M 141.66966891517978,19.654877172581223 A 136,136 0 0,1 155,19" />
    <path d="M 168.33033108482024,19.654877172581223 A 136,136 0 0,1 194.4787161066069,24.856114340419595" />
    <path d="M 207.0449468016522,29.352383578464995 A 136,136 0 0,1 219.10995620833569,35.058708048623714" />
    <path d="M 230.55755169066589,41.920132726853851 A 136,136 0 0,1 241.2774866462558,49.87057834266777" />
    <path d="M 251.16652224137044,58.833477758629527 A 136,136 0 0,1 285.14388565958041,115.52128389339313" />
    <path d="M 288.38679813483935,128.46771620580654 A 136,136 0 0,1 290.34512282741878,168.33033108482024" />
    <path d="M 288.38679813483935,181.53228379419343 A 136,136 0 0,1 280.647616421535,207.0449468016522" />
    <path d="M 274.94129195137629,219.10995620833569 A 136,136 0 0,1 181.53228379419349,288.3867981348393" />
    <path d="M 168.33033108482027,290.34512282741878 A 136,136 0 0,1 115.52128389339315,285.14388565958041" />
    <path d="M 102.9550531983478,280.647616421535 A 136,136 0 0,1 79.442448309334139,268.07986727314619" />
    <path d="M 68.722513353744233,260.12942165733227 A 136,136 0 0,1 24.856114340419595,194.4787161066069" />
    <path d="M 19.654877172581223,141.66966891517984 A 136,136 0 0,1 21.613201865160647,128.46771620580654" />
    <path d="M 24.856114340419595,115.52128389339316 A 136,136 0 0,1 68.722513353744148,49.870578342667827" />
    <path d="M 90.890043791664283,35.058708048623743 A 136,136 0 0,1 128.46771620580648,21.613201865160676" />
    <path d="M 169.8986053300932,3.7319215458260828 A 152,152 0 1,1 155,3" />
  </g>
  <g fill="none" stroke="#000000" stroke-width="2" stroke-linecap="butt">
    <line x1="155" y1="19" x2="155" y2="51" />
    <line x1="155" y1="67" x2="155" y2="115" />
    <line x1="181.53228379419343" y1="21.613201865160647" x2="178.41083864193539" y2="37.305766351612348" />
    <line x1="213.16788171949366" y1="14.570311058284403" x2="200.92201188381077" y2="44.134456098645586" />
    <line x1="194.79907696596933" y1="58.916528618826177" x2="188.6761420481279" y2="73.698601139006769" />
    <line x1="230.55755169066589" y1="41.920132726853851" x2="212.77930423403862" y2="68.5271603205353" />
    <line x1="203.890180505725" y1="81.83067411737602" x2="195.00105677741135" y2="95.134187914216739" />
    <line x1="228.53910524340094" y1="81.460894756599046" x2="217.22539674441617" y2="92.774603255583813" />
    <line x1="205.91168824543144" y1="104.08831175456857" x2="183.2842712474619" y2="126.7157287525381" />
    <line x1="272.497588911136" y1="58.572220807125888" x2="260.12942165733222" y2="68.722513353744219" />
    <line x1="280.64761642153496" y1="102.95505319834778" x2="236.30139886099323" y2="121.3238579518721" />
    <line x1="288.38679813483935" y1="128.46771620580654" x2="225.61654018903261" y2="140.95349681483876" />
    <line x1="275" y1="155" x2="195" y2="155" />
    <line x1="288.38679813483935" y1="181.53228379419343" x2="272.69423364838764" y2="178.41083864193539" />
    <line x1="257.001669161936" y1="175.28939348967734" x2="241.30910467548426" y2="172.16794833741929" />
    <line x1="280.64761642153496" y1="207.0449468016522" x2="265.86554390135439" y2="200.92201188381077" />
    <line x1="236.30139886099323" y1="188.6761420481279" x2="221.51932634081265" y2="182.55320713028647" />
    <line x1="206.73725382063205" y1="176.43027221244503" x2="191.95518130045147" y2="170.3073372946036" />
    <line x1="251.16652224137047" y1="251.16652224137044" x2="194.59797974644667" y2="194.59797974644664" />
    <line x1="221.66842796235227" y1="254.77635347630545" x2="195.00105677741135" y2="214.86581208578326" />
    <line x1="200.9220118838108" y1="265.86554390135439" x2="194.79907696596933" y2="251.08347138117381" />
    <line x1="176.43027221244503" y1="206.73725382063205" x2="170.3073372946036" y2="191.95518130045147" />
    <line x1="181.53228379419349" y1="288.38679813483935" x2="175.28939348967737" y2="257.001669161936" />
    <line x1="169.89860533009323" y1="306.26807845417392" x2="168.33033108482027" y2="290.34512282741878" />
    <line x1="155.00000000000003" y1="275" x2="155" y2="259" />
    <line x1="155" y1="227" x2="155" y2="211" />
    <line x1="155" y1="195" x2="155" y2="179" />
    <line x1="134.71060651032266" y1="257.001669161936" x2="140.95349681483876" y2="225.61654018903261" />
    <line x1="96.832118280506364" y1="295.4296889417156" x2="109.07798811618923" y2="265.86554390135444" />
    <line x1="115.20092303403067" y1="251.08347138117384" x2="121.3238579518721" y2="236.30139886099323" />
    <line x1="79.442448309334139" y1="268.07986727314619" x2="88.33157203764776" y2="254.77635347630547" />
    <line x1="97.2206957659614" y1="241.47283967946473" x2="114.99894322258865" y2="214.86581208578326" />
    <line x1="58.833477758629542" y1="251.1665222413705" x2="70.147186257614308" y2="239.85281374238571" />
    <line x1="92.774603255583827" y1="217.2253967444162" x2="138.02943725152286" y2="171.97056274847714" />
    <line x1="55.223646523694569" y1="221.66842796235227" x2="81.83067411737602" y2="203.890180505725" />
    <line x1="73.698601139006783" y1="188.67614204812796" x2="88.480673659187374" y2="182.5532071302865" />
    <line x1="9.5450689687042711" y1="199.12327094267829" x2="24.856114340419595" y2="194.4787161066069" />
    <line x1="21.613201865160676" y1="181.53228379419349" x2="68.690895324515736" y2="172.16794833741932" />
    <line x1="3.7319215458260544" y1="169.89860533009318" x2="19.654877172581223" y2="168.33033108482022" />
    <line x1="19" y1="155.00000000000003" x2="35" y2="155.00000000000003" />
    <line x1="51" y1="155.00000000000003" x2="115" y2="155" />
    <line x1="5.9206373787089888" y1="125.34627105354849" x2="21.613201865160647" y2="128.46771620580654" />
    <line x1="52.998330838064035" y1="134.71060651032266" x2="68.690895324515722" y2="137.83205166258071" />
    <line x1="44.1344560986456" y1="109.0779881161892" x2="58.916528618826192" y2="115.20092303403064" />
    <line x1="103.26274617936795" y1="133.56972778755497" x2="118.04481869954853" y2="139.6926627053964" />
    <line x1="81.830674117376" y1="106.10981949427503" x2="95.134187914216724" y2="114.99894322258867" />
    <line x1="58.833477758629513" y1="58.833477758629556" x2="92.7746032555838" y2="92.774603255583827" />
    <line x1="104.08831175456857" y1="104.08831175456859" x2="115.40202025355333" y2="115.40202025355335" />
    <line x1="126.7157287525381" y1="126.7157287525381" x2="138.02943725152286" y2="138.02943725152286" />
    <line x1="58.572220807125817" y1="37.502411088864022" x2="68.722513353744148" y2="49.870578342667812" />
    <line x1="79.442448309334111" y1="41.920132726853851" x2="114.99894322258865" y2="95.134187914216739" />
    <line x1="109.07798811618915" y1="44.134456098645614" x2="115.20092303403061" y2="58.916528618826206" />
    <line x1="121.32385795187204" y1="73.698601139006783" x2="127.44679286971349" y2="88.480673659187374" />
    <line x1="133.56972778755494" y1="103.26274617936795" x2="139.69266270539637" y2="118.04481869954854" />
    <line x1="110.8767290573217" y1="9.5450689687042711" x2="115.5212838933931" y2="24.856114340419595" />
    <line x1="134.71060651032261" y1="52.998330838064049" x2="137.83205166258068" y2="68.690895324515736" />
  </g>
  <path fill="none" stroke="#ff0000" stroke-width="2" stroke-linecap="square" stroke-linejoin="round" d="M 162.45828649776755,3.1830906568137891 L 162.0657451031482,11.17345430645517 A 144,144 0 0,0 133.87081167842783,12.558582565071561 L 136.21849926971362,28.385406724508044 A 128,128 0 0,0 89.1948487432676,45.210737919965183 L 80.969204836176047,31.48708015996084 A 144,144 0 0,0 69.21930015308962,39.338115466787116 L 78.750489024968545,52.189435970477433 A 128,128 0 0,0 73.797659627053321,56.054661969569707 L 104.24853726690833,93.159163730981078 A 80,80 0 0,0 93.159163730981049,104.24853726690836 L 105.52733098478484,114.39882981352668 A 64,64 0 0,0 92.229742054193252,142.51421939096778 L 123.61487102709663,148.75710969548391 A 32,32 0 0,0 123.61487102709663,161.24289030451612 L 92.229742054193252,167.48578060903225 A 64,64 0 0,0 98.557039081705284,185.16939115686387 L 84.4462988521316,192.71173894607983 A 80,80 0 0,0 93.159163730981078,205.75146273309167 L 80.790996477177288,215.90175527971002 A 96,96 0 0,0 94.098244720290054,229.20900352282277 L 114.3988298135267,204.47266901521516 A 64,64 0 0,0 148.72690301890813,218.69182250702062 L 147.15862877363514,234.61477813377576 A 80,80 0 0,0 178.222774180357,231.5552268585767 L 192.1564386885712,277.4883629737227 A 128,128 0 0,0 236.20234037294662,253.94533803043032 L 195.60117018647333,204.47266901521516 A 64,64 0 0,1 167.48578060903222,217.77025794580675 L 164.36433545677417,202.07769345935506 A 48,48 0 0,1 128.33262881505911,194.91054139052218 L 137.22175254337273,181.60702759368147 A 32,32 0 0,0 142.75413016431713,184.56414504036118 L 145.81559762323786,177.17310878027089" />
  <type>Circular</type>
</svg>