<?xml version="1.0" encoding="utf-8" standalone="no"?>
<!DOCTYPE svg PUBLIC "-//W3C//DTD SVG 1.1//EN" "http://www.w3.org/Graphics/SVG/1.1/DTD/svg11.dtd"[]>
<svg width="308" height="308" version="1.1" xmlns="http://www.w3.org/2000/svg">
  <title>19 cells diameter theta maze</title>
  <g fill="none" stroke="#000000" stroke-width="2" stroke-linecap="square">
    <path d="M 138.02943725152286,171.97056274847714 A 24,24 0 1,1 155,179" />
    <path d="M 139.69266270539637,118.04481869954854 A 40,40 0 0,1 170.3073372946036,118.04481869954853" />
    <path d="M 183.2842712474619,126.7157287525381 A 40,40 0 0,1 191.95518130045147,139.6926627053964" />
    <path d="M 195,155 A 40,40 0 0,1 118.04481869954853,170.3073372946036" />
    <path d="M 115,155 A 40,40 0 0,1 126.7157287525381,126.7157287525381" />
    <path d="M 176.43027221244503,103.26274617936795 A 56,56 0 0,1 194.59797974644667,115.40202025355333" />
    <path d="M 206.73725382063205,133.56972778755497 A 56,56 0 0,1 194.59797974644667,194.59797974644664" />
    <path d="M 176.43027221244503,206.73725382063205 A 56,56 0 0,1 133.569727787555,206.73725382063208" />
    <path d="M 115.40202025355335,194.59797974644667 A 56,56 0 0,1 99,155" />
    <path d="M 103.26274617936795,133.56972778755497 A 56,56 0 0,1 133.56972778755494,103.26274617936795" />
    <path d="M 104.08831175456857,104.08831175456859 A 72,72 0 0,1 182.55320713028647,88.48067365918736" />
    <path d="M 195.00105677741135,95.134187914216739 A 72,72 0 0,1 225.61654018903261,140.95349681483876" />
    <path d="M 221.51932634081265,182.55320713028647 A 72,72 0 0,1 214.86581208578326,195.00105677741135" />
    <path d="M 205.91168824543144,205.91168824543141 A 72,72 0 0,1 169.04650318516127,225.61654018903261" />
    <path d="M 155,227 A 72,72 0 0,1 95.134187914216739,195.00105677741135" />
    <path d="M 84.383459810967409,169.04650318516127 A 72,72 0 0,1 83,155" />
    <path d="M 84.383459810967409,140.95349681483876 A 72,72 0 0,1 95.134187914216724,114.99894322258867" />
    <path d="M 121.32385795187204,73.698601139006783 A 88,88 0 0,1 172.16794833741929,68.690895324515722" />
    <path d="M 188.6761420481279,73.698601139006769 A 88,88 0 0,1 217.22539674441617,92.774603255583813" />
    <path d="M 236.30139886099323,121.3238579518721 A 88,88 0 0,1 241.30910467548426,137.83205166258071" />
    <path d="M 172.16794833741932,241.30910467548426 A 88,88 0 0,1 137.83205166258071,241.30910467548426" />
    <path d="M 81.83067411737602,203.890180505725 A 88,88 0 0,1 68.690895324515722,172.16794833741932" />
    <path d="M 67,155.00000000000003 A 88,88 0 0,1 81.830674117375992,106.10981949427503" />
    <path d="M 155,51 A 104,104 0 0,1 194.79907696596933,58.916528618826177" />
    <path d="M 212.77930423403862,68.527160320535287 A 104,104 0 0,1 241.4728396794647,97.220695765961366" />
    <path d="M 251.08347138117381,194.79907696596933 A 104,104 0 0,1 228.53910524340097,228.53910524340094" />
    <path d="M 194.79907696596933,251.08347138117381 A 104,104 0 0,1 175.28939348967737,257.001669161936" />
    <path d="M 155,259 A 104,104 0 0,1 115.20092303403068,251.08347138117381" />
    <path d="M 97.220695765961409,241.47283967946473 A 104,104 0 0,1 58.916528618826206,194.79907696596939" />
    <path d="M 52.998330838064035,175.28939348967737 A 104,104 0 0,1 51,155.00000000000003" />
    <path d="M 52.998330838064035,134.71060651032266 A 104,104 0 0,1 58.916528618826192,115.20092303403064" />
    <path d="M 68.527160320535273,97.220695765961409 A 104,104 0 0,1 115.20092303403061,58.916528618826206" />
    <path d="M 178.41083864193539,37.305766351612348 A 120,120 0 0,1 239.85281374238571,70.1471862576143" />
    <path d="M 254.77635347630542,88.331572037647732 A 120,120 0 0,1 265.86554390135439,109.07798811618923" />
    <path d="M 272.69423364838764,131.58916135806459 A 120,120 0 0,1 272.69423364838764,178.41083864193539" />
    <path d="M 254.77635347630545,221.66842796235224 A 120,120 0 0,1 221.66842796235227,254.77635347630542" />
    <path d="M 178.41083864193544,272.69423364838764 A 120,120 0 0,1 131.58916135806459,272.69423364838764" />
    <path d="M 109.07798811618925,265.86554390135439 A 120,120 0 0,1 88.331572037647774,254.77635347630547" />
    <path d="M 70.147186257614308,239.85281374238571 A 120,120 0 0,1 55.223646523694569,221.66842796235227" />
    <path d="M 44.134456098645614,200.92201188381085 A 120,120 0 0,1 35,155.00000000000003" />
    <path d="M 37.305766351612348,131.58916135806462 A 120,120 0 0,1 44.1344560986456,109.0779881161892" />
    <path d="M 70.14718625761428,70.147186257614322 A 120,120 0 0,1 109.07798811618915,44.134456098645614" />
    <path d="M 141.66966891517978,19.654877172581223 A 136,136 0 0,1 207.0449468016522,29.352383578464995" />
    <path d="M 219.10995620833569,35.058708048623714 A 136,136 0 0,1 241.2774866462558,49.87057834266777" />
    <path d="M 251.16652224137044,58.833477758629527 A 136,136 0 0,1 268.07986727314614,79.4424483093341" />
    <path d="M 274.94129195137629,90.8900437916643 A 136,136 0 0,1 290.34512282741878,141.66966891517973" />
    <path d="M 288.38679813483935,181.53228379419343 A 136,136 0 0,1 285.14388565958041,194.47871610660687" />
    <path d="M 280.647616421535,207.0449468016522 A 136,136 0 0,1 260.12942165733227,241.27748664625577" />
    <path d="M 251.16652224137047,251.16652224137044 A 136,136 0 0,1 194.4787161066069,285.14388565958041" />
    <path d="M 168.33033108482027,290.34512282741878 A 136,136 0 0,1 155.00000000000003,291" />
    <path d="M 128.46771620580654,288.38679813483935 A 136,136 0 0,1 102.9550531983478,280.647616421535" />
    <path d="M 79.442448309334139,268.07986727314619 A 136,136 0 0,1 21.613201865160676,181.53228379419349" />
    <path d="M 19.654877172581223,168.33033108482022 A 136,136 0 0,1 21.613201865160647,128.46771620580654" />
    <path d="M 24.856114340419595,115.52128389339316 A 136,136 0 0,1 79.4424483093341,41.920132726853851" />
    <path d="M 115.5212838933931,24.856114340419595 A 136,136 0 0,1 128.46771620580648,21.613201865160676" />
    <path d="M 169.8986053300932,3.7319215458260828 A 152,152 0 1,1 155,3" />
  </g>
  <g fill="none" stroke="#000000" stroke-width="2" stroke-linecap="butt">
    <line x1="155" y1="19" x2="155" y2="51" />
    <line x1="155" y1="83" x2="155" y2="99" />
    <line x1="207.0449468016522" y1="29.352383578465009" x2="200.92201188381077" y2="44.134456098645586" />
    <line x1="188.6761420481279" y1="73.698601139006769" x2="182.55320713028647" y2="88.48067365918736" />
    <line x1="176.43027221244503" y1="103.26274617936795" x2="170.3073372946036" y2="118.04481869954853" />
    <line x1="239.44667541897954" y1="28.616618930013118" x2="195.00105677741135" y2="95.134187914216739" />
    <line x1="183.2842712474619" y1="126.7157287525381" x2="171.97056274847714" y2="138.02943725152286" />
    <line x1="268.07986727314614" y1="79.442448309334083" x2="254.77635347630542" y2="88.331572037647732" />
    <line x1="241.4728396794647" y1="97.220695765961352" x2="228.16932588262398" y2="106.109819494275" />
    <line x1="280.64761642153496" y1="102.95505319834778" x2="236.30139886099323" y2="121.3238579518721" />
    <line x1="206.73725382063205" y1="133.56972778755497" x2="191.95518130045147" y2="139.6926627053964" />
    <line x1="272.69423364838764" y1="131.58916135806459" x2="257.001669161936" y2="134.71060651032266" />
    <line x1="306.26807845417392" y1="140.10139466990677" x2="290.34512282741878" y2="141.66966891517973" />
    <line x1="291" y1="155" x2="259" y2="155" />
    <line x1="243" y1="155" x2="211" y2="155" />
    <line x1="306.268078454174" y1="169.89860533009323" x2="290.34512282741878" y2="168.33033108482024" />
    <line x1="288.38679813483935" y1="181.53228379419343" x2="225.61654018903261" y2="169.04650318516124" />
    <line x1="300.45493103129576" y1="199.12327094267823" x2="285.14388565958041" y2="194.47871610660684" />
    <line x1="295.4296889417156" y1="213.16788171949364" x2="251.08347138117381" y2="194.79907696596933" />
    <line x1="236.30139886099323" y1="188.6761420481279" x2="206.73725382063205" y2="176.43027221244503" />
    <line x1="254.77635347630547" y1="221.66842796235224" x2="228.16932588262398" y2="203.89018050572497" />
    <line x1="251.16652224137047" y1="251.16652224137044" x2="239.85281374238571" y2="239.85281374238571" />
    <line x1="228.53910524340097" y1="228.53910524340094" x2="217.22539674441617" y2="217.22539674441617" />
    <line x1="221.66842796235227" y1="254.77635347630545" x2="203.890180505725" y2="228.16932588262398" />
    <line x1="207.04494680165223" y1="280.64761642153496" x2="200.9220118838108" y2="265.86554390135439" />
    <line x1="194.79907696596933" y1="251.08347138117381" x2="188.6761420481279" y2="236.30139886099323" />
    <line x1="184.65372894645154" y1="304.079362621291" x2="181.53228379419349" y2="288.38679813483935" />
    <line x1="178.41083864193544" y1="272.69423364838764" x2="175.28939348967737" y2="257.001669161936" />
    <line x1="172.16794833741932" y1="241.30910467548426" x2="169.04650318516127" y2="225.61654018903261" />
    <line x1="155.00000000000003" y1="307" x2="155.00000000000003" y2="275" />
    <line x1="155" y1="259" x2="155" y2="243" />
    <line x1="155" y1="227" x2="155" y2="211" />
    <line x1="140.1013946699068" y1="306.268078454174" x2="141.66966891517976" y2="290.34512282741878" />
    <line x1="128.46771620580654" y1="288.38679813483935" x2="131.58916135806459" y2="272.69423364838764" />
    <line x1="102.9550531983478" y1="280.647616421535" x2="121.3238579518721" y2="236.30139886099323" />
    <line x1="83.347696002448359" y1="289.05203218094994" x2="90.890043791664326" y2="274.94129195137629" />
    <line x1="79.442448309334139" y1="268.07986727314619" x2="97.2206957659614" y2="241.47283967946473" />
    <line x1="106.10981949427503" y1="228.16932588262398" x2="114.99894322258865" y2="214.86581208578326" />
    <line x1="70.147186257614308" y1="239.85281374238571" x2="81.46089475659906" y2="228.53910524340097" />
    <line x1="92.774603255583827" y1="217.2253967444162" x2="115.40202025355335" y2="194.59797974644667" />
    <line x1="126.7157287525381" y1="183.2842712474619" x2="138.02943725152286" y2="171.97056274847714" />
    <line x1="44.134456098645614" y1="200.92201188381085" x2="58.916528618826206" y2="194.79907696596939" />
    <line x1="88.480673659187374" y1="182.5532071302865" x2="103.26274617936795" y2="176.43027221244506" />
    <line x1="37.305766351612363" y1="178.41083864193544" x2="52.998330838064049" y2="175.28939348967737" />
    <line x1="68.690895324515736" y1="172.16794833741932" x2="84.383459810967423" y2="169.04650318516127" />
    <line x1="19" y1="155.00000000000003" x2="35" y2="155.00000000000003" />
    <line x1="83" y1="155" x2="115" y2="155" />
    <line x1="37.305766351612348" y1="131.58916135806462" x2="52.998330838064035" y2="134.71060651032266" />
    <line x1="29.352383578465023" y1="102.95505319834777" x2="44.1344560986456" y2="109.0779881161892" />
    <line x1="58.916528618826192" y1="115.20092303403064" x2="73.698601139006783" y2="121.32385795187207" />
    <line x1="88.48067365918736" y1="127.44679286971352" x2="118.04481869954853" y2="139.6926627053964" />
    <line x1="55.223646523694541" y1="88.331572037647774" x2="68.527160320535273" y2="97.220695765961409" />
    <line x1="81.830674117376" y1="106.10981949427503" x2="95.134187914216724" y2="114.99894322258867" />
    <line x1="58.833477758629513" y1="58.833477758629556" x2="70.14718625761428" y2="70.147186257614322" />
    <line x1="81.460894756599046" y1="81.460894756599075" x2="104.08831175456857" y2="104.08831175456859" />
    <line x1="126.7157287525381" y1="126.7157287525381" x2="138.02943725152286" y2="138.02943725152286" />
    <line x1="97.220695765961381" y1="68.5271603205353" x2="106.109819494275" y2="81.83067411737602" />
    <line x1="83.347696002448316" y1="20.947967819050064" x2="90.890043791664283" y2="35.058708048623743" />
    <line x1="96.832118280506251" y1="14.57031105828446" x2="109.07798811618915" y2="44.134456098645614" />
    <line x1="121.32385795187204" y1="73.698601139006783" x2="127.44679286971349" y2="88.480673659187374" />
    <line x1="133.56972778755494" y1="103.26274617936795" x2="139.69266270539637" y2="118.04481869954854" />
    <line x1="125.34627105354844" y1="5.9206373787089888" x2="131.58916135806456" y2="37.305766351612363" />
    <line x1="134.71060651032261" y1="52.998330838064049" x2="137.83205166258068" y2="68.690895324515736" />
  </g>
  <path fill="none" stroke="#ff0000" stroke-width="2" stroke-linecap="square" stroke-linejoin="round" d="M 162.45828649776755,3.1830906568137891 L 162.0657451031482,11.17345430645517 A 144,144 0 0,0 133.87081167842783,12.558582565071561 L 136.21849926971362,28.385406724508044 A 128,128 0 0,1 142.45380603781626,27.616354985958793 L 144.02208028308922,43.539310612713948 A 112,112 0 0,0 68.422829223373469,83.9479521736717 L 56.054661969569679,73.797659627053363 A 128,128 0 0,0 42.114078163410554,94.661217686272309 L 70.335558622557912,109.74591326470423 A 96,96 0 0,1 80.790996477177259,94.098244720290026 L 105.52733098478484,114.39882981352668 A 64,64 0 0,1 142.51421939096775,92.229742054193252 L 145.63566454322583,107.92230654064494 A 48,48 0 0,1 164.36433545677414,107.92230654064494 L 167.48578060903222,92.229742054193252 A 64,64 0 0,1 218.69182250702059,148.7269030189081 L 250.5377337605309,145.59035452836216 A 96,96 0 0,1 250.5377337605309,164.40964547163782 L 218.69182250702062,161.27309698109187 A 64,64 0 0,1 216.24418148686138,173.57821934428557 L 246.86627223029205,182.86732901642836 A 96,96 0 0,1 239.66444137744207,200.25408673529577 L 225.5537011478684,192.71173894607981 A 80,80 0 0,1 216.84083626901895,205.75146273309161 L 204.47266901521516,195.6011701864733 A 64,64 0 0,1 190.55649491325454,208.2140551873629 L 181.66737118494089,194.91054139052218 A 48,48 0 0,0 202.07769345935506,145.63566454322583 L 186.38512897290337,148.75710969548391 A 32,32 0 0,1 142.75413016431713,184.56414504036118 L 145.81559762323786,177.17310878027089" />
  <type>Circular</type>
</svg>