<?xml version="1.0" encoding="utf-8" standalone="no"?>
<!DOCTYPE svg PUBLIC "-//W3C//DTD SVG 1.1//EN" "http://www.w3.org/Graphics/SVG/1.1/DTD/svg11.dtd"[]>
<svg width="308" height="308" version="1.1" xmlns="http://www.w3.org/2000/svg">
  <title>19 cells diameter theta maze</title>
  <g fill="none" stroke="#000000" stroke-width="2" stroke-linecap="square">
    <path d="M 138.02943725152286,171.97056274847714 A 24,24 0 1,1 155,179" />
    <path d="M 170.3073372946036,118.04481869954853 A 40,40 0 0,1 195,155" />
    <path d="M 191.95518130045147,170.3073372946036 A 40,40 0 0,1 155,195" />
    <path d="M 139.6926627053964,191.95518130045147 A 40,40 0 0,1 118.04481869954853,170.3073372946036" />
    <path d="M 115,155 A 40,40 0 0,1 139.69266270539637,118.04481869954854" />
    <path d="M 194.59797974644667,115.40202025355333 A 56,56 0 0,1 206.73725382063205,133.56972778755497" />
    <path d="M 211,155 A 56,56 0 0,1 206.73725382063208,176.43027221244503" />
    <path d="M 176.43027221244503,206.73725382063205 A 56,56 0 0,1 115.40202025355335,194.59797974644667" />
    <path d="M 99,155 A 56,56 0 0,1 133.56972778755494,103.26274617936795" />
    <path d="M 182.55320713028647,88.48067365918736 A 72,72 0 0,1 214.86581208578326,114.99894322258864" />
    <path d="M 221.51932634081265,127.44679286971353 A 72,72 0 0,1 227,155" />
    <path d="M 214.86581208578326,195.00105677741135 A 72,72 0 0,1 169.04650318516127,225.61654018903261" />
    <path d="M 155,227 A 72,72 0 0,1 140.95349681483876,225.61654018903261" />
    <path d="M 127.44679286971355,221.51932634081265 A 72,72 0 0,1 114.99894322258867,214.86581208578326" />
    <path d="M 104.08831175456859,205.91168824543144 A 72,72 0 0,1 88.480673659187374,182.5532071302865" />
    <path d="M 83,155 A 72,72 0 0,1 84.383459810967409,140.95349681483876" />
    <path d="M 88.48067365918736,127.44679286971352 A 72,72 0 0,1 95.134187914216724,114.99894322258867" />
    <path d="M 104.08831175456857,104.08831175456859 A 72,72 0 0,1 140.95349681483873,84.383459810967409" />
    <path d="M 137.83205166258068,68.690895324515722 A 88,88 0 0,1 155,67" />
    <path d="M 172.16794833741929,68.690895324515722 A 88,88 0 0,1 241.30910467548426,172.16794833741929" />
    <path d="M 236.30139886099323,188.6761420481279 A 88,88 0 0,1 228.16932588262398,203.89018050572497" />
    <path d="M 217.22539674441617,217.22539674441617 A 88,88 0 0,1 188.6761420481279,236.30139886099323" />
    <path d="M 172.16794833741932,241.30910467548426 A 88,88 0 0,1 137.83205166258071,241.30910467548426" />
    <path d="M 73.698601139006783,188.67614204812796 A 88,88 0 0,1 67,155.00000000000003" />
    <path d="M 81.830674117375992,106.10981949427503 A 88,88 0 0,1 106.109819494275,81.83067411737602" />
    <path d="M 155,51 A 104,104 0 0,1 175.28939348967734,52.998330838064035" />
    <path d="M 212.77930423403862,68.527160320535287 A 104,104 0 0,1 228.53910524340094,81.46089475659906" />
    <path d="M 251.08347138117381,115.20092303403067 A 104,104 0 0,1 259,155" />
    <path d="M 241.47283967946473,212.77930423403859 A 104,104 0 0,1 212.77930423403862,241.4728396794647" />
    <path d="M 194.79907696596933,251.08347138117381 A 104,104 0 0,1 97.220695765961409,241.47283967946473" />
    <path d="M 68.527160320535287,212.77930423403862 A 104,104 0 0,1 58.916528618826206,194.79907696596939" />
    <path d="M 51,155.00000000000003 A 104,104 0 0,1 52.998330838064035,134.71060651032266" />
    <path d="M 81.460894756599046,81.460894756599075 A 104,104 0 0,1 134.71060651032261,52.998330838064049" />
    <path d="M 131.58916135806456,37.305766351612363 A 120,120 0 0,1 155,35" />
    <path d="M 178.41083864193539,37.305766351612348 A 120,120 0 0,1 221.66842796235227,55.223646523694569" />
    <path d="M 239.85281374238571,70.1471862576143 A 120,120 0 0,1 272.69423364838764,131.58916135806459" />
    <path d="M 275,155 A 120,120 0 0,1 265.86554390135439,200.92201188381077" />
    <path d="M 239.85281374238571,239.85281374238571 A 120,120 0 0,1 200.9220118838108,265.86554390135439" />
    <path d="M 131.58916135806459,272.69423364838764 A 120,120 0 0,1 55.223646523694569,221.66842796235227" />
    <path d="M 37.305766351612348,178.41083864193544 A 120,120 0 0,1 35,155.00000000000003" />
    <path d="M 37.305766351612348,131.58916135806462 A 120,120 0 0,1 88.331572037647732,55.223646523694569" />
    <path d="M 141.66966891517978,19.654877172581223 A 136,136 0 0,1 181.53228379419343,21.613201865160647" />
    <path d="M 194.4787161066069,24.856114340419595 A 136,136 0 0,1 207.0449468016522,29.352383578464995" />
    <path d="M 219.10995620833569,35.058708048623714 A 136,136 0 0,1 230.55755169066589,41.920132726853851" />
    <path d="M 241.2774866462558,49.87057834266777 A 136,136 0 0,1 274.94129195137629,90.8900437916643" />
    <path d="M 280.64761642153496,102.95505319834778 A 136,136 0 0,1 291,155" />
    <path d="M 288.38679813483935,181.53228379419343 A 136,136 0 0,1 285.14388565958041,194.47871610660687" />
    <path d="M 280.647616421535,207.0449468016522 A 136,136 0 0,1 251.16652224137047,251.16652224137044" />
    <path d="M 241.2774866462558,260.12942165733222 A 136,136 0 0,1 230.55755169066589,268.07986727314619" />
    <path d="M 219.10995620833569,274.94129195137629 A 136,136 0 0,1 207.04494680165223,280.64761642153496" />
    <path d="M 194.4787161066069,285.14388565958041 A 136,136 0 0,1 168.33033108482027,290.34512282741878" />
    <path d="M 155.00000000000003,291 A 136,136 0 0,1 115.52128389339315,285.14388565958041" />
    <path d="M 90.890043791664326,274.94129195137629 A 136,136 0 0,1 58.833477758629556,251.16652224137047" />
    <path d="M 49.870578342667812,241.27748664625585 A 136,136 0 0,1 35.058708048623728,219.10995620833572" />
    <path d="M 29.352383578465037,207.04494680165229 A 136,136 0 0,1 21.613201865160676,181.53228379419349" />
    <path d="M 19,155.00000000000003 A 136,136 0 0,1 21.613201865160647,128.46771620580654" />
    <path d="M 24.856114340419595,115.52128389339316 A 136,136 0 0,1 29.352383578465009,102.95505319834777" />
    <path d="M 35.058708048623714,90.890043791664326 A 136,136 0 0,1 128.46771620580648,21.613201865160676" />
    <path d="M 169.8986053300932,3.7319215458260828 A 152,152 0 1,1 155,3" />
  </g>
  <g fill="none" stroke="#000000" stroke-width="2" stroke-linecap="butt">
    <line x1="155" y1="67" x2="155" y2="83" />
    <line x1="155" y1="99" x2="155" y2="131" />
    <line x1="181.53228379419343" y1="21.613201865160647" x2="169.04650318516124" y2="84.383459810967409" />
    <line x1="213.16788171949366" y1="14.570311058284403" x2="207.0449468016522" y2="29.352383578465009" />
    <line x1="194.79907696596933" y1="58.916528618826177" x2="188.6761420481279" y2="73.698601139006769" />
    <line x1="182.55320713028647" y1="88.48067365918736" x2="170.3073372946036" y2="118.04481869954853" />
    <line x1="230.55755169066589" y1="41.920132726853851" x2="221.66842796235227" y2="55.223646523694569" />
    <line x1="251.42777919287411" y1="37.50241108886398" x2="241.2774866462558" y2="49.87057834266777" />
    <line x1="239.85281374238571" y1="70.1471862576143" x2="228.53910524340094" y2="81.460894756599046" />
    <line x1="254.77635347630542" y1="88.331572037647732" x2="228.16932588262398" y2="106.109819494275" />
    <line x1="265.86554390135439" y1="109.07798811618922" x2="251.08347138117381" y2="115.20092303403067" />
    <line x1="221.51932634081265" y1="127.44679286971353" x2="191.95518130045147" y2="139.6926627053964" />
    <line x1="241.30910467548426" y1="137.83205166258071" x2="225.61654018903261" y2="140.95349681483876" />
    <line x1="306.26807845417392" y1="140.10139466990677" x2="290.34512282741878" y2="141.66966891517973" />
    <line x1="291" y1="155" x2="259" y2="155" />
    <line x1="306.268078454174" y1="169.89860533009323" x2="290.34512282741878" y2="168.33033108482024" />
    <line x1="288.38679813483935" y1="181.53228379419343" x2="272.69423364838764" y2="178.41083864193539" />
    <line x1="257.001669161936" y1="175.28939348967734" x2="225.61654018903261" y2="169.04650318516124" />
    <line x1="295.4296889417156" y1="213.16788171949364" x2="280.64761642153496" y2="207.0449468016522" />
    <line x1="265.86554390135439" y1="200.92201188381077" x2="251.08347138117381" y2="194.79907696596933" />
    <line x1="236.30139886099323" y1="188.6761420481279" x2="206.73725382063205" y2="176.43027221244503" />
    <line x1="268.07986727314619" y1="230.55755169066586" x2="254.77635347630547" y2="221.66842796235224" />
    <line x1="228.16932588262398" y1="203.89018050572497" x2="214.86581208578326" y2="195.00105677741135" />
    <line x1="251.16652224137047" y1="251.16652224137044" x2="239.85281374238571" y2="239.85281374238571" />
    <line x1="228.53910524340097" y1="228.53910524340094" x2="217.22539674441617" y2="217.22539674441617" />
    <line x1="205.91168824543144" y1="205.91168824543144" x2="183.2842712474619" y2="183.2842712474619" />
    <line x1="239.44667541897954" y1="281.38338106998691" x2="230.55755169066589" y2="268.07986727314619" />
    <line x1="226.65230399755166" y1="289.05203218094994" x2="219.10995620833569" y2="274.94129195137629" />
    <line x1="194.79907696596933" y1="251.08347138117381" x2="188.6761420481279" y2="236.30139886099323" />
    <line x1="176.43027221244503" y1="206.73725382063205" x2="170.3073372946036" y2="191.95518130045147" />
    <line x1="184.65372894645154" y1="304.079362621291" x2="181.53228379419349" y2="288.38679813483935" />
    <line x1="178.41083864193544" y1="272.69423364838764" x2="175.28939348967737" y2="257.001669161936" />
    <line x1="155.00000000000003" y1="291" x2="155" y2="259" />
    <line x1="155" y1="227" x2="155" y2="211" />
    <line x1="155" y1="195" x2="155" y2="179" />
    <line x1="137.83205166258071" y1="241.30910467548426" x2="140.95349681483876" y2="225.61654018903261" />
    <line x1="110.87672905732177" y1="300.45493103129576" x2="115.52128389339316" y2="285.14388565958041" />
    <line x1="102.9550531983478" y1="280.647616421535" x2="109.07798811618923" y2="265.86554390135444" />
    <line x1="115.20092303403067" y1="251.08347138117384" x2="127.44679286971355" y2="221.51932634081265" />
    <line x1="106.10981949427503" y1="228.16932588262398" x2="114.99894322258865" y2="214.86581208578326" />
    <line x1="58.572220807125916" y1="272.49758891113606" x2="68.722513353744247" y2="260.12942165733227" />
    <line x1="70.147186257614308" y1="239.85281374238571" x2="104.08831175456858" y2="205.91168824543144" />
    <line x1="126.7157287525381" y1="183.2842712474619" x2="138.02943725152286" y2="171.97056274847714" />
    <line x1="37.502411088864022" y1="251.4277791928742" x2="49.870578342667812" y2="241.27748664625585" />
    <line x1="41.920132726853851" y1="230.55755169066589" x2="55.223646523694569" y2="221.66842796235227" />
    <line x1="68.5271603205353" y1="212.77930423403862" x2="95.134187914216739" y2="195.00105677741135" />
    <line x1="14.57031105828446" y1="213.16788171949372" x2="29.352383578465037" y2="207.04494680165229" />
    <line x1="44.134456098645614" y1="200.92201188381085" x2="73.698601139006783" y2="188.67614204812796" />
    <line x1="88.480673659187374" y1="182.5532071302865" x2="118.04481869954854" y2="170.3073372946036" />
    <line x1="21.613201865160676" y1="181.53228379419349" x2="52.998330838064049" y2="175.28939348967737" />
    <line x1="68.690895324515736" y1="172.16794833741932" x2="84.383459810967423" y2="169.04650318516127" />
    <line x1="3.7319215458260544" y1="169.89860533009318" x2="19.654877172581223" y2="168.33033108482022" />
    <line x1="19" y1="155.00000000000003" x2="51" y2="155.00000000000003" />
    <line x1="83" y1="155" x2="99" y2="155" />
    <line x1="52.998330838064035" y1="134.71060651032266" x2="84.383459810967409" y2="140.95349681483876" />
    <line x1="9.5450689687042427" y1="110.87672905732177" x2="24.856114340419595" y2="115.52128389339316" />
    <line x1="29.352383578465023" y1="102.95505319834777" x2="44.1344560986456" y2="109.0779881161892" />
    <line x1="58.916528618826192" y1="115.20092303403064" x2="88.48067365918736" y2="127.44679286971352" />
    <line x1="55.223646523694541" y1="88.331572037647774" x2="68.527160320535273" y2="97.220695765961409" />
    <line x1="81.830674117376" y1="106.10981949427503" x2="95.134187914216724" y2="114.99894322258867" />
    <line x1="81.460894756599046" y1="81.460894756599075" x2="92.7746032555838" y2="92.774603255583827" />
    <line x1="88.331572037647732" y1="55.223646523694569" x2="97.220695765961381" y2="68.5271603205353" />
    <line x1="106.109819494275" y1="81.83067411737602" x2="114.99894322258865" y2="95.134187914216739" />
    <line x1="102.95505319834771" y1="29.352383578465037" x2="109.07798811618915" y2="44.134456098645614" />
    <line x1="115.20092303403061" y1="58.916528618826206" x2="121.32385795187204" y2="73.698601139006783" />
    <line x1="133.56972778755494" y1="103.26274617936795" x2="139.69266270539637" y2="118.04481869954854" />
    <line x1="110.8767290573217" y1="9.5450689687042711" x2="115.5212838933931" y2="24.856114340419595" />
    <line x1="131.58916135806456" y1="37.305766351612363" x2="137.83205166258068" y2="68.690895324515736" />
  </g>
  <path fill="none" stroke="#ff0000" stroke-width="2" stroke-linecap="square" stroke-linejoin="round" d="M 162.45828649776755,3.1830906568137891 L 162.0657451031482,11.17345430645517 A 144,144 0 0,0 133.87081167842783,12.558582565071561 L 136.21849926971362,28.385406724508044 A 128,128 0 0,1 167.54619396218376,27.616354985958793 L 165.97791971691078,43.539310612713948 A 112,112 0 0,0 144.02208028308922,43.539310612713948 L 145.59035452836218,59.4622662394691 A 96,96 0 0,1 164.40964547163782,59.4622662394691 L 161.27309698109187,91.3081774929794 A 64,64 0 0,1 167.48578060903222,92.229742054193252 L 161.2428903045161,123.61487102709663 A 32,32 0 0,1 186.38512897290337,161.2428903045161 L 202.07769345935506,164.36433545677414 A 48,48 0 0,0 202.07769345935506,145.63566454322583 L 217.77025794580675,142.51421939096778 A 64,64 0 0,1 216.24418148686138,173.57821934428557 L 246.86627223029205,182.86732901642836 A 96,96 0 0,1 229.20900352282274,215.90175527970996 L 216.84083626901895,205.75146273309161 A 80,80 0 0,1 178.222774180357,231.5552268585767 L 182.86732901642839,246.86627223029205 A 96,96 0 0,1 127.13267098357164,246.86627223029205 L 136.42178065571443,216.24418148686138 A 64,64 0 0,1 101.7859448126371,190.55649491325454 L 115.08945860947783,181.66737118494092 A 48,48 0 0,0 145.63566454322583,202.07769345935506 L 148.75710969548391,186.38512897290337 A 32,32 0 0,1 142.75413016431713,184.56414504036118 L 145.81559762323786,177.17310878027089" />
  <type>Circular</type>
</svg>