<?xml version="1.0" encoding="utf-8" standalone="no"?>
<!DOCTYPE svg PUBLIC "-//W3C//DTD SVG 1.1//EN" "http://www.w3.org/Graphics/SVG/1.1/DTD/svg11.dtd"[]>
<svg width="308" height="308" version="1.1" xmlns="http://www.w3.org/2000/svg">
  <title>19 cells diameter theta maze</title>
  <g fill="none" stroke="#000000" stroke-width="2" stroke-linecap="square">
    <path d="M 138.02943725152286,171.97056274847714 A 24,24 0 1,1 155,179" />
    <path d="M 155,115 A 40,40 0 0,1 170.3073372946036,118.04481869954853" />
    <path d="M 183.2842712474619,126.7157287525381 A 40,40 0 0,1 191.95518130045147,139.6926627053964" />
    <path d="M 195,155 A 40,40 0 0,1 191.95518130045147,170.3073372946036" />
    <path d="M 183.2842712474619,183.2842712474619 A 40,40 0 0,1 118.04481869954853,170.3073372946036" />
    <path d="M 115,155 A 40,40 0 0,1 118.04481869954853,139.6926627053964" />
    <path d="M 126.7157287525381,126.7157287525381 A 40,40 0 0,1 139.69266270539637,118.04481869954854" />
    <path d="M 133.56972778755494,103.26274617936795 A 56,56 0 0,1 211,155" />
    <path d="M 206.73725382063208,176.43027221244503 A 56,56 0 0,1 194.59797974644667,194.59797974644664" />
    <path d="M 155,211 A 56,56 0 0,1 115.40202025355335,194.59797974644667" />
    <path d="M 103.26274617936795,176.43027221244506 A 56,56 0 0,1 99,155" />
    <path d="M 127.44679286971349,88.480673659187374 A 72,72 0 0,1 169.04650318516124,84.383459810967409" />
    <path d="M 182.55320713028647,88.48067365918736 A 72,72 0 0,1 214.86581208578326,114.99894322258864" />
    <path d="M 225.61654018903261,140.95349681483876 A 72,72 0 0,1 214.86581208578326,195.00105677741135" />
    <path d="M 195.00105677741135,214.86581208578326 A 72,72 0 0,1 169.04650318516127,225.61654018903261" />
    <path d="M 127.44679286971355,221.51932634081265 A 72,72 0 0,1 84.383459810967409,169.04650318516127" />
    <path d="M 83,155 A 72,72 0 0,1 84.383459810967409,140.95349681483876" />
    <path d="M 88.48067365918736,127.44679286971352 A 72,72 0 0,1 114.99894322258865,95.134187914216739" />
    <path d="M 121.32385795187204,73.698601139006783 A 88,88 0 0,1 188.6761420481279,73.698601139006769" />
    <path d="M 228.16932588262398,106.109819494275 A 88,88 0 0,1 236.30139886099323,121.3238579518721" />
    <path d="M 243,155 A 88,88 0 0,1 241.30910467548426,172.16794833741929" />
    <path d="M 228.16932588262398,203.89018050572497 A 88,88 0 0,1 217.22539674441617,217.22539674441617" />
    <path d="M 203.89018050572497,228.16932588262398 A 88,88 0 0,1 172.16794833741932,241.30910467548426" />
    <path d="M 155,243 A 88,88 0 0,1 137.83205166258071,241.30910467548426" />
    <path d="M 121.32385795187211,236.30139886099323 A 88,88 0 0,1 92.774603255583827,217.2253967444162" />
    <path d="M 81.83067411737602,203.890180505725 A 88,88 0 0,1 73.698601139006783,188.67614204812796" />
    <path d="M 68.690895324515722,137.83205166258071 A 88,88 0 0,1 73.698601139006769,121.32385795187207" />
    <path d="M 81.830674117375992,106.10981949427503 A 88,88 0 0,1 106.109819494275,81.83067411737602" />
    <path d="M 134.71060651032261,52.998330838064049 A 104,104 0 0,1 228.53910524340094,81.46089475659906" />
    <path d="M 241.4728396794647,97.220695765961366 A 104,104 0 0,1 251.08347138117381,115.20092303403067" />
    <path d="M 257.001669161936,134.71060651032266 A 104,104 0 0,1 257.001669161936,175.28939348967734" />
    <path d="M 241.47283967946473,212.77930423403859 A 104,104 0 0,1 212.77930423403862,241.4728396794647" />
    <path d="M 194.79907696596933,251.08347138117381 A 104,104 0 0,1 175.28939348967737,257.001669161936" />
    <path d="M 115.20092303403068,251.08347138117381 A 104,104 0 0,1 97.220695765961409,241.47283967946473" />
    <path d="M 68.527160320535287,212.77930423403862 A 104,104 0 0,1 51,155.00000000000003" />
    <path d="M 52.998330838064035,134.71060651032266 A 104,104 0 0,1 68.527160320535273,97.220695765961409" />
    <path d="M 97.220695765961366,68.5271603205353 A 104,104 0 0,1 115.20092303403061,58.916528618826206" />
    <path d="M 200.92201188381077,44.134456098645586 A 120,120 0 0,1 221.66842796235227,55.223646523694569" />
    <path d="M 265.86554390135439,109.07798811618923 A 120,120 0 0,1 272.69423364838764,131.58916135806459" />
    <path d="M 275,155 A 120,120 0 0,1 265.86554390135439,200.92201188381077" />
    <path d="M 254.77635347630545,221.66842796235224 A 120,120 0 0,1 239.85281374238571,239.85281374238571" />
    <path d="M 221.66842796235227,254.77635347630542 A 120,120 0 0,1 155.00000000000003,275" />
    <path d="M 88.331572037647774,254.77635347630547 A 120,120 0 0,1 55.223646523694569,221.66842796235227" />
    <path d="M 44.134456098645614,200.92201188381085 A 120,120 0 0,1 37.305766351612348,131.58916135806462" />
    <path d="M 44.1344560986456,109.0779881161892 A 120,120 0 0,1 109.07798811618915,44.134456098645614" />
    <path d="M 102.95505319834771,29.352383578465037 A 136,136 0 0,1 207.0449468016522,29.352383578464995" />
    <path d="M 230.55755169066589,41.920132726853851 A 136,136 0 0,1 241.2774866462558,49.87057834266777" />
    <path d="M 251.16652224137044,58.833477758629527 A 136,136 0 0,1 268.07986727314614,79.4424483093341" />
    <path d="M 274.94129195137629,90.8900437916643 A 136,136 0 0,1 280.64761642153496,102.95505319834778" />
    <path d="M 285.14388565958041,115.52128389339313 A 136,136 0 0,1 290.34512282741878,168.33033108482024" />
    <path d="M 288.38679813483935,181.53228379419343 A 136,136 0 0,1 285.14388565958041,194.47871610660687" />
    <path d="M 280.647616421535,207.0449468016522 A 136,136 0 0,1 274.94129195137629,219.10995620833569" />
    <path d="M 251.16652224137047,251.16652224137044 A 136,136 0 0,1 241.2774866462558,260.12942165733222" />
    <path d="M 219.10995620833569,274.94129195137629 A 136,136 0 0,1 207.04494680165223,280.64761642153496" />
    <path d="M 194.4787161066069,285.14388565958041 A 136,136 0 0,1 168.33033108482027,290.34512282741878" />
    <path d="M 155.00000000000003,291 A 136,136 0 0,1 141.66966891517976,290.34512282741878" />
    <path d="M 115.52128389339315,285.14388565958041 A 136,136 0 0,1 79.442448309334139,268.07986727314619" />
    <path d="M 68.722513353744233,260.12942165733227 A 136,136 0 0,1 58.833477758629556,251.16652224137047" />
    <path d="M 49.870578342667812,241.27748664625585 A 136,136 0 0,1 35.058708048623728,219.10995620833572" />
    <path d="M 24.856114340419595,194.4787161066069 A 136,136 0 0,1 19,155.00000000000003" />
    <path d="M 19.654877172581223,141.66966891517984 A 136,136 0 0,1 21.613201865160647,128.46771620580654" />
    <path d="M 24.856114340419595,115.52128389339316 A 136,136 0 0,1 35.058708048623714,90.890043791664326" />
    <path d="M 49.870578342667784,68.7225133537442 A 136,136 0 0,1 58.833477758629513,58.833477758629556" />
    <path d="M 68.722513353744148,49.870578342667827 A 136,136 0 0,1 90.890043791664283,35.058708048623743" />
    <path d="M 169.8986053300932,3.7319215458260828 A 152,152 0 1,1 155,3" />
  </g>
  <g fill="none" stroke="#000000" stroke-width="2" stroke-linecap="butt">
    <line x1="155" y1="35" x2="155" y2="51" />
    <line x1="155" y1="115" x2="155" y2="131" />
    <line x1="181.53228379419343" y1="21.613201865160647" x2="175.28939348967734" y2="52.998330838064035" />
    <line x1="199.12327094267829" y1="9.5450689687042711" x2="194.47871610660687" y2="24.856114340419595" />
    <line x1="188.6761420481279" y1="73.698601139006769" x2="176.43027221244503" y2="103.26274617936795" />
    <line x1="226.65230399755166" y1="20.947967819050035" x2="219.10995620833569" y2="35.058708048623714" />
    <line x1="230.55755169066589" y1="41.920132726853851" x2="221.66842796235227" y2="55.223646523694569" />
    <line x1="212.77930423403862" y1="68.5271603205353" x2="203.890180505725" y2="81.83067411737602" />
    <line x1="251.42777919287411" y1="37.50241108886398" x2="241.2774866462558" y2="49.87057834266777" />
    <line x1="251.16652224137044" y1="58.833477758629527" x2="228.53910524340094" y2="81.460894756599046" />
    <line x1="217.22539674441617" y1="92.774603255583813" x2="205.91168824543144" y2="104.08831175456857" />
    <line x1="254.77635347630542" y1="88.331572037647732" x2="241.4728396794647" y2="97.220695765961352" />
    <line x1="289.05203218094994" y1="83.34769600244833" x2="274.94129195137629" y2="90.8900437916643" />
    <line x1="280.64761642153496" y1="102.95505319834778" x2="251.08347138117381" y2="115.20092303403067" />
    <line x1="236.30139886099323" y1="121.3238579518721" x2="191.95518130045147" y2="139.6926627053964" />
    <line x1="300.45493103129576" y1="110.87672905732173" x2="285.14388565958041" y2="115.52128389339313" />
    <line x1="257.001669161936" y1="134.71060651032266" x2="225.61654018903261" y2="140.95349681483876" />
    <line x1="291" y1="155" x2="275" y2="155" />
    <line x1="195" y1="155" x2="179" y2="155" />
    <line x1="257.001669161936" y1="175.28939348967734" x2="241.30910467548426" y2="172.16794833741929" />
    <line x1="300.45493103129576" y1="199.12327094267823" x2="285.14388565958041" y2="194.47871610660684" />
    <line x1="280.64761642153496" y1="207.0449468016522" x2="221.51932634081265" y2="182.55320713028647" />
    <line x1="206.73725382063205" y1="176.43027221244503" x2="191.95518130045147" y2="170.3073372946036" />
    <line x1="268.07986727314619" y1="230.55755169066586" x2="241.47283967946473" y2="212.77930423403859" />
    <line x1="272.49758891113606" y1="251.42777919287408" x2="260.12942165733227" y2="241.27748664625577" />
    <line x1="251.16652224137047" y1="251.16652224137044" x2="239.85281374238571" y2="239.85281374238571" />
    <line x1="217.22539674441617" y1="217.22539674441617" x2="194.59797974644667" y2="194.59797974644664" />
    <line x1="230.55755169066589" y1="268.07986727314619" x2="203.890180505725" y2="228.16932588262398" />
    <line x1="226.65230399755166" y1="289.05203218094994" x2="219.10995620833569" y2="274.94129195137629" />
    <line x1="182.55320713028647" y1="221.51932634081265" x2="176.43027221244503" y2="206.73725382063205" />
    <line x1="199.12327094267829" y1="300.4549310312957" x2="194.4787161066069" y2="285.14388565958041" />
    <line x1="181.53228379419349" y1="288.38679813483935" x2="178.41083864193544" y2="272.69423364838764" />
    <line x1="175.28939348967737" y1="257.001669161936" x2="169.04650318516127" y2="225.61654018903261" />
    <line x1="155.00000000000003" y1="291" x2="155" y2="195" />
    <line x1="125.34627105354849" y1="304.079362621291" x2="134.71060651032266" y2="257.001669161936" />
    <line x1="137.83205166258071" y1="241.30910467548426" x2="140.95349681483876" y2="225.61654018903261" />
    <line x1="102.9550531983478" y1="280.647616421535" x2="115.20092303403067" y2="251.08347138117384" />
    <line x1="121.3238579518721" y1="236.30139886099323" x2="127.44679286971355" y2="221.51932634081265" />
    <line x1="83.347696002448359" y1="289.05203218094994" x2="90.890043791664326" y2="274.94129195137629" />
    <line x1="47.519769259644789" y1="262.48023074035524" x2="58.833477758629542" y2="251.1665222413705" />
    <line x1="81.46089475659906" y1="228.53910524340097" x2="92.774603255583827" y2="217.2253967444162" />
    <line x1="104.08831175456858" y1="205.91168824543144" x2="115.40202025355335" y2="194.59797974644667" />
    <line x1="126.7157287525381" y1="183.2842712474619" x2="138.02943725152286" y2="171.97056274847714" />
    <line x1="41.920132726853851" y1="230.55755169066589" x2="81.83067411737602" y2="203.890180505725" />
    <line x1="14.57031105828446" y1="213.16788171949372" x2="29.352383578465037" y2="207.04494680165229" />
    <line x1="103.26274617936795" y1="176.43027221244506" x2="118.04481869954854" y2="170.3073372946036" />
    <line x1="21.613201865160676" y1="181.53228379419349" x2="37.305766351612363" y2="178.41083864193544" />
    <line x1="68.690895324515736" y1="172.16794833741932" x2="84.383459810967423" y2="169.04650318516127" />
    <line x1="51" y1="155.00000000000003" x2="99" y2="155" />
    <line x1="5.9206373787089888" y1="125.34627105354849" x2="68.690895324515722" y2="137.83205166258071" />
    <line x1="29.352383578465023" y1="102.95505319834777" x2="44.1344560986456" y2="109.0779881161892" />
    <line x1="73.698601139006783" y1="121.32385795187207" x2="118.04481869954853" y2="139.6926627053964" />
    <line x1="28.61661893001309" y1="70.553324581020519" x2="41.920132726853822" y2="79.442448309334154" />
    <line x1="58.833477758629513" y1="58.833477758629556" x2="92.7746032555838" y2="92.774603255583827" />
    <line x1="115.40202025355333" y1="115.40202025355335" x2="126.7157287525381" y2="126.7157287525381" />
    <line x1="70.553324581020462" y1="28.616618930013118" x2="79.442448309334111" y2="41.920132726853851" />
    <line x1="102.95505319834771" y1="29.352383578465037" x2="127.44679286971349" y2="88.480673659187374" />
    <line x1="133.56972778755494" y1="103.26274617936795" x2="139.69266270539637" y2="118.04481869954854" />
    <line x1="128.46771620580648" y1="21.613201865160676" x2="131.58916135806456" y2="37.305766351612363" />
  </g>
  <path fill="none" stroke="#ff0000" stroke-width="2" stroke-linecap="square" stroke-linejoin="round" d="M 162.45828649776755,3.1830906568137891 L 162.0657451031482,11.17345430645517 A 144,144 0 0,0 93.432066546039323,24.825541790224179 L 100.27294804092384,39.289370480199281 A 128,128 0 0,0 69.040453779581611,60.158255954565263 L 58.295510502029316,48.30303794888593 A 144,144 0 0,0 39.338115466787087,69.219300153089662 L 52.189435970477405,78.750489024968587 A 128,128 0 0,0 45.210737919965155,89.194848743267642 L 31.487080159960797,80.9692048361761 A 144,144 0 0,0 15.315499539985666,120.01085409393002 L 30.835999591098371,123.89853697238223 A 128,128 0 0,1 32.511637026277256,117.84356131142886 L 47.822682397992594,122.48811614750025 A 112,112 0 0,1 68.422829223373469,83.9479521736717 L 80.790996477177259,94.098244720290026 A 96,96 0 0,0 70.335558622557912,109.74591326470423 L 84.446298852131591,117.2882610539202 A 80,80 0 0,1 117.28826105392017,84.4462988521316 L 124.83060884313613,98.557039081705284 A 64,64 0 0,0 101.7859448126371,119.44350508674549 L 128.39297240631854,137.22175254337273 A 32,32 0 0,1 148.75710969548388,123.61487102709663 L 145.63566454322583,107.92230654064494 A 48,48 0 0,1 181.66737118494092,115.08945860947783 L 172.77824745662727,128.39297240631856 A 32,32 0 0,1 186.38512897290337,148.75710969548391 L 202.07769345935506,145.63566454322583 A 48,48 0 0,1 202.07769345935506,164.36433545677414 L 217.77025794580675,167.48578060903219 A 64,64 0 0,1 204.47266901521516,195.6011701864733 L 216.84083626901895,205.75146273309161 A 80,80 0 0,0 225.5537011478684,192.71173894607981 L 239.66444137744207,200.25408673529577 A 96,96 0 0,1 215.90175527970996,229.20900352282274 L 195.60117018647333,204.47266901521516 A 64,64 0 0,1 190.55649491325454,208.2140551873629 L 181.66737118494089,194.91054139052218 A 48,48 0 0,0 194.91054139052218,181.66737118494089 L 181.60702759368147,172.77824745662727 A 32,32 0 0,1 142.75413016431713,184.56414504036118 L 145.81559762323786,177.17310878027089" />
  <type>Circular</type>
</svg>