<?xml version="1.0" encoding="utf-8" standalone="no"?>
<!DOCTYPE svg PUBLIC "-//W3C//DTD SVG 1.1//EN" "http://www.w3.org/Graphics/SVG/1.1/DTD/svg11.dtd"[]>
<svg width="308" height="308" version="1.1" xmlns="http://www.w3.org/2000/svg">
  <title>19 cells diameter theta maze</title>
  <g fill="none" stroke="#000000" stroke-width="2" stroke-linecap="square">
    <path d="M 138.02943725152286,171.97056274847714 A 24,24 0 1,1 155,179" />
    <path d="M 139.69266270539637,118.04481869954854 A 40,40 0 0,1 155,115" />
    <path d="M 170.3073372946036,118.04481869954853 A 40,40 0 0,1 191.95518130045147,139.6926627053964" />
    <path d="M 195,155 A 40,40 0 0,1 183.2842712474619,183.2842712474619" />
    <path d="M 139.6926627053964,191.95518130045147 A 40,40 0 0,1 126.7157287525381,183.2842712474619" />
    <path d="M 118.04481869954853,170.3073372946036 A 40,40 0 0,1 126.7157287525381,126.7157287525381" />
    <path d="M 155,99 A 56,56 0 0,1 176.43027221244503,103.26274617936795" />
    <path d="M 211,155 A 56,56 0 0,1 206.73725382063208,176.43027221244503" />
    <path d="M 176.43027221244503,206.73725382063205 A 56,56 0 0,1 133.569727787555,206.73725382063208" />
    <path d="M 115.40202025355335,194.59797974644667 A 56,56 0 0,1 115.40202025355333,115.40202025355335" />
    <path d="M 140.95349681483873,84.383459810967409 A 72,72 0 0,1 155,83" />
    <path d="M 169.04650318516124,84.383459810967409 A 72,72 0 0,1 205.91168824543144,104.08831175456858" />
    <path d="M 225.61654018903261,140.95349681483876 A 72,72 0 0,1 227,155" />
    <path d="M 225.61654018903261,169.04650318516124 A 72,72 0 0,1 221.51932634081265,182.55320713028647" />
    <path d="M 214.86581208578326,195.00105677741135 A 72,72 0 0,1 205.91168824543144,205.91168824543141" />
    <path d="M 195.00105677741135,214.86581208578326 A 72,72 0 0,1 182.55320713028647,221.51932634081265" />
    <path d="M 155,227 A 72,72 0 0,1 140.95349681483876,225.61654018903261" />
    <path d="M 114.99894322258867,214.86581208578326 A 72,72 0 0,1 95.134187914216739,195.00105677741135" />
    <path d="M 88.480673659187374,182.5532071302865 A 72,72 0 0,1 83,155" />
    <path d="M 88.48067365918736,127.44679286971352 A 72,72 0 0,1 127.44679286971349,88.480673659187374" />
    <path d="M 203.890180505725,81.83067411737602 A 88,88 0 0,1 228.16932588262398,106.109819494275" />
    <path d="M 236.30139886099323,121.3238579518721 A 88,88 0 0,1 241.30910467548426,137.83205166258071" />
    <path d="M 243,155 A 88,88 0 0,1 228.16932588262398,203.89018050572497" />
    <path d="M 172.16794833741932,241.30910467548426 A 88,88 0 0,1 121.32385795187211,236.30139886099323" />
    <path d="M 106.10981949427503,228.16932588262398 A 88,88 0 0,1 81.83067411737602,203.890180505725" />
    <path d="M 73.698601139006783,188.67614204812796 A 88,88 0 0,1 68.690895324515722,172.16794833741932" />
    <path d="M 67,155.00000000000003 A 88,88 0 0,1 73.698601139006769,121.32385795187207" />
    <path d="M 81.830674117375992,106.10981949427503 A 88,88 0 0,1 92.7746032555838,92.774603255583827" />
    <path d="M 106.109819494275,81.83067411737602 A 88,88 0 0,1 121.32385795187204,73.698601139006783" />
    <path d="M 134.71060651032261,52.998330838064049 A 104,104 0 0,1 155,51" />
    <path d="M 194.79907696596933,58.916528618826177 A 104,104 0 0,1 241.4728396794647,97.220695765961366" />
    <path d="M 257.001669161936,134.71060651032266 A 104,104 0 0,1 257.001669161936,175.28939348967734" />
    <path d="M 251.08347138117381,194.79907696596933 A 104,104 0 0,1 241.47283967946473,212.77930423403859" />
    <path d="M 228.53910524340097,228.53910524340094 A 104,104 0 0,1 212.77930423403862,241.4728396794647" />
    <path d="M 194.79907696596933,251.08347138117381 A 104,104 0 0,1 175.28939348967737,257.001669161936" />
    <path d="M 155,259 A 104,104 0 0,1 134.71060651032266,257.001669161936" />
    <path d="M 97.220695765961409,241.47283967946473 A 104,104 0 0,1 58.916528618826206,194.79907696596939" />
    <path d="M 52.998330838064035,175.28939348967737 A 104,104 0 0,1 51,155.00000000000003" />
    <path d="M 52.998330838064035,134.71060651032266 A 104,104 0 0,1 58.916528618826192,115.20092303403064" />
    <path d="M 81.460894756599046,81.460894756599075 A 104,104 0 0,1 115.20092303403061,58.916528618826206" />
    <path d="M 109.07798811618915,44.134456098645614 A 120,120 0 0,1 239.85281374238571,70.1471862576143" />
    <path d="M 265.86554390135439,109.07798811618923 A 120,120 0 0,1 272.69423364838764,131.58916135806459" />
    <path d="M 275,155 A 120,120 0 0,1 239.85281374238571,239.85281374238571" />
    <path d="M 221.66842796235227,254.77635347630542 A 120,120 0 0,1 200.9220118838108,265.86554390135439" />
    <path d="M 178.41083864193544,272.69423364838764 A 120,120 0 0,1 155.00000000000003,275" />
    <path d="M 131.58916135806459,272.69423364838764 A 120,120 0 0,1 88.331572037647774,254.77635347630547" />
    <path d="M 44.134456098645614,200.92201188381085 A 120,120 0 0,1 37.305766351612348,131.58916135806462" />
    <path d="M 44.1344560986456,109.0779881161892 A 120,120 0 0,1 88.331572037647732,55.223646523694569" />
    <path d="M 115.5212838933931,24.856114340419595 A 136,136 0 0,1 194.4787161066069,24.856114340419595" />
    <path d="M 207.0449468016522,29.352383578464995 A 136,136 0 0,1 241.2774866462558,49.87057834266777" />
    <path d="M 251.16652224137044,58.833477758629527 A 136,136 0 0,1 288.38679813483935,128.46771620580654" />
    <path d="M 288.38679813483935,181.53228379419343 A 136,136 0 0,1 280.647616421535,207.0449468016522" />
    <path d="M 268.07986727314619,230.55755169066589 A 136,136 0 0,1 194.4787161066069,285.14388565958041" />
    <path d="M 155.00000000000003,291 A 136,136 0 0,1 41.920132726853836,230.55755169066589" />
    <path d="M 29.352383578465037,207.04494680165229 A 136,136 0 0,1 24.856114340419595,194.4787161066069" />
    <path d="M 19,155.00000000000003 A 136,136 0 0,1 35.058708048623714,90.890043791664326" />
    <path d="M 58.833477758629513,58.833477758629556 A 136,136 0 0,1 68.722513353744148,49.870578342667827" />
    <path d="M 79.4424483093341,41.920132726853851 A 136,136 0 0,1 102.95505319834771,29.352383578465037" />
    <path d="M 169.8986053300932,3.7319215458260828 A 152,152 0 1,1 155,3" />
  </g>
  <g fill="none" stroke="#000000" stroke-width="2" stroke-linecap="butt">
    <line x1="155" y1="35" x2="155" y2="51" />
    <line x1="155" y1="67" x2="155" y2="131" />
    <line x1="181.53228379419343" y1="21.613201865160647" x2="178.41083864193539" y2="37.305766351612348" />
    <line x1="175.28939348967734" y1="52.998330838064035" x2="169.04650318516124" y2="84.383459810967409" />
    <line x1="213.16788171949366" y1="14.570311058284403" x2="207.0449468016522" y2="29.352383578465009" />
    <line x1="194.79907696596933" y1="58.916528618826177" x2="188.6761420481279" y2="73.698601139006769" />
    <line x1="182.55320713028647" y1="88.48067365918736" x2="170.3073372946036" y2="118.04481869954853" />
    <line x1="251.16652224137044" y1="58.833477758629527" x2="217.22539674441617" y2="92.774603255583813" />
    <line x1="194.59797974644664" y1="115.40202025355333" x2="183.2842712474619" y2="126.7157287525381" />
    <line x1="254.77635347630542" y1="88.331572037647732" x2="241.4728396794647" y2="97.220695765961352" />
    <line x1="228.16932588262398" y1="106.109819494275" x2="214.86581208578326" y2="114.99894322258864" />
    <line x1="265.86554390135439" y1="109.07798811618922" x2="251.08347138117381" y2="115.20092303403067" />
    <line x1="236.30139886099323" y1="121.3238579518721" x2="191.95518130045147" y2="139.6926627053964" />
    <line x1="288.38679813483935" y1="128.46771620580654" x2="272.69423364838764" y2="131.58916135806459" />
    <line x1="257.001669161936" y1="134.71060651032266" x2="241.30910467548426" y2="137.83205166258071" />
    <line x1="306.26807845417392" y1="140.10139466990677" x2="290.34512282741878" y2="141.66966891517973" />
    <line x1="307" y1="155" x2="291" y2="155" />
    <line x1="243" y1="155" x2="227" y2="155" />
    <line x1="211" y1="155" x2="195" y2="155" />
    <line x1="306.268078454174" y1="169.89860533009323" x2="290.34512282741878" y2="168.33033108482024" />
    <line x1="300.45493103129576" y1="199.12327094267823" x2="285.14388565958041" y2="194.47871610660684" />
    <line x1="265.86554390135439" y1="200.92201188381077" x2="251.08347138117381" y2="194.79907696596933" />
    <line x1="236.30139886099323" y1="188.6761420481279" x2="206.73725382063205" y2="176.43027221244503" />
    <line x1="289.05203218094994" y1="226.65230399755166" x2="274.94129195137629" y2="219.10995620833569" />
    <line x1="241.47283967946473" y1="212.77930423403859" x2="214.86581208578326" y2="195.00105677741135" />
    <line x1="239.85281374238571" y1="239.85281374238571" x2="217.22539674441617" y2="217.22539674441617" />
    <line x1="194.59797974644667" y1="194.59797974644664" x2="171.97056274847714" y2="171.97056274847714" />
    <line x1="230.55755169066589" y1="268.07986727314619" x2="221.66842796235227" y2="254.77635347630545" />
    <line x1="212.77930423403862" y1="241.4728396794647" x2="203.890180505725" y2="228.16932588262398" />
    <line x1="226.65230399755166" y1="289.05203218094994" x2="219.10995620833569" y2="274.94129195137629" />
    <line x1="194.79907696596933" y1="251.08347138117381" x2="182.55320713028647" y2="221.51932634081265" />
    <line x1="176.43027221244503" y1="206.73725382063205" x2="170.3073372946036" y2="191.95518130045147" />
    <line x1="184.65372894645154" y1="304.079362621291" x2="181.53228379419349" y2="288.38679813483935" />
    <line x1="178.41083864193544" y1="272.69423364838764" x2="175.28939348967737" y2="257.001669161936" />
    <line x1="172.16794833741932" y1="241.30910467548426" x2="169.04650318516127" y2="225.61654018903261" />
    <line x1="169.89860533009323" y1="306.26807845417392" x2="168.33033108482027" y2="290.34512282741878" />
    <line x1="155.00000000000003" y1="291" x2="155" y2="259" />
    <line x1="155" y1="195" x2="155" y2="179" />
    <line x1="137.83205166258071" y1="241.30910467548426" x2="140.95349681483876" y2="225.61654018903261" />
    <line x1="102.9550531983478" y1="280.647616421535" x2="109.07798811618923" y2="265.86554390135444" />
    <line x1="115.20092303403067" y1="251.08347138117384" x2="139.6926627053964" y2="191.95518130045147" />
    <line x1="88.33157203764776" y1="254.77635347630547" x2="97.2206957659614" y2="241.47283967946473" />
    <line x1="70.147186257614308" y1="239.85281374238571" x2="81.46089475659906" y2="228.53910524340097" />
    <line x1="104.08831175456858" y1="205.91168824543144" x2="115.40202025355335" y2="194.59797974644667" />
    <line x1="126.7157287525381" y1="183.2842712474619" x2="138.02943725152286" y2="171.97056274847714" />
    <line x1="55.223646523694569" y1="221.66842796235227" x2="81.83067411737602" y2="203.890180505725" />
    <line x1="20.947967819050064" y1="226.65230399755166" x2="35.058708048623728" y2="219.10995620833569" />
    <line x1="58.916528618826206" y1="194.79907696596939" x2="88.480673659187374" y2="182.5532071302865" />
    <line x1="9.5450689687042711" y1="199.12327094267829" x2="24.856114340419595" y2="194.4787161066069" />
    <line x1="5.9206373787089888" y1="184.65372894645157" x2="37.305766351612363" y2="178.41083864193544" />
    <line x1="3.7319215458260544" y1="169.89860533009318" x2="19.654877172581223" y2="168.33033108482022" />
    <line x1="3" y1="155.00000000000003" x2="19" y2="155.00000000000003" />
    <line x1="51" y1="155.00000000000003" x2="83" y2="155" />
    <line x1="37.305766351612348" y1="131.58916135806462" x2="52.998330838064035" y2="134.71060651032266" />
    <line x1="68.690895324515722" y1="137.83205166258071" x2="84.383459810967409" y2="140.95349681483876" />
    <line x1="58.916528618826192" y1="115.20092303403064" x2="73.698601139006783" y2="121.32385795187207" />
    <line x1="28.61661893001309" y1="70.553324581020519" x2="41.920132726853822" y2="79.442448309334154" />
    <line x1="68.527160320535273" y1="97.220695765961409" x2="95.134187914216724" y2="114.99894322258867" />
    <line x1="37.502411088863994" y1="58.572220807125873" x2="49.870578342667784" y2="68.7225133537442" />
    <line x1="58.833477758629513" y1="58.833477758629556" x2="92.7746032555838" y2="92.774603255583827" />
    <line x1="104.08831175456857" y1="104.08831175456859" x2="115.40202025355333" y2="115.40202025355335" />
    <line x1="126.7157287525381" y1="126.7157287525381" x2="138.02943725152286" y2="138.02943725152286" />
    <line x1="58.572220807125817" y1="37.502411088864022" x2="68.722513353744148" y2="49.870578342667812" />
    <line x1="79.442448309334111" y1="41.920132726853851" x2="88.331572037647732" y2="55.223646523694569" />
    <line x1="106.109819494275" y1="81.83067411737602" x2="114.99894322258865" y2="95.134187914216739" />
    <line x1="102.95505319834771" y1="29.352383578465037" x2="109.07798811618915" y2="44.134456098645614" />
    <line x1="127.44679286971349" y1="88.480673659187374" x2="139.69266270539637" y2="118.04481869954854" />
    <line x1="137.83205166258068" y1="68.690895324515736" x2="140.95349681483873" y2="84.383459810967423" />
  </g>
  <path fill="none" stroke="#ff0000" stroke-width="2" stroke-linecap="square" stroke-linejoin="round" d="M 162.45828649776755,3.1830906568137891 L 162.0657451031482,11.17345430645517 A 144,144 0 0,1 203.51213888847968,19.417654613645 L 198.12190123420416,34.482359656573337 A 128,128 0 0,1 240.95954622041836,60.158255954565234 L 251.70448949797066,48.303037948885887 A 144,144 0 0,1 297.44141743492844,133.87081167842791 L 281.614593275492,136.2184992697137 A 128,128 0 0,1 236.20234037294662,253.94533803043032 L 226.05204782632831,241.57717077662653 A 112,112 0 0,1 207.79643452451177,253.77518160701575 L 192.71173894607983,225.5537011478684 A 80,80 0 0,0 205.75146273309164,216.84083626901895 L 195.60117018647333,204.47266901521516 A 64,64 0 0,1 190.55649491325454,208.2140551873629 L 172.77824745662727,181.60702759368144 A 32,32 0 0,1 161.24289030451612,186.38512897290337 L 164.36433545677417,202.07769345935506 A 48,48 0 0,1 145.63566454322583,202.07769345935506 L 148.75710969548391,186.38512897290337 A 32,32 0 0,1 142.75413016431713,184.56414504036118 L 145.81559762323786,177.17310878027089" />
  <type>Circular</type>
</svg>