<?xml version="1.0" encoding="utf-8" standalone="no"?>
<!DOCTYPE svg PUBLIC "-//W3C//DTD SVG 1.1//EN" "http://www.w3.org/Graphics/SVG/1.1/DTD/svg11.dtd"[]>
<svg width="724" height="724" version="1.1" xmlns="http://www.w3.org/2000/svg">
  <title>45 cells diameter theta maze</title>
  <g fill="none" stroke="#000000" stroke-width="2" stroke-linecap="square">
    <path d="M 346.02943725152284,379.97056274847716 A 24,24 0 1,1 363,387" />
    <path d="M 363,323 A 40,40 0 0,1 399.9551813004515,347.6926627053964" />
    <path d="M 403,363 A 40,40 0 1,1 347.6926627053964,326.04481869954856" />
    <path d="M 341.56972778755494,311.262746179368 A 56,56 0 0,1 384.430272212445,311.26274617936792" />
    <path d="M 419,363 A 56,56 0 0,1 414.73725382063208,384.430272212445" />
    <path d="M 384.43027221244506,414.73725382063208 A 56,56 0 0,1 311.26274617936792,384.43027221244506" />
    <path d="M 311.26274617936792,341.56972778755494 A 56,56 0 0,1 323.40202025355336,323.40202025355336" />
    <path d="M 377.04650318516121,292.38345981096739 A 72,72 0 0,1 390.55320713028647,296.48067365918735" />
    <path d="M 403.00105677741135,303.13418791421674 A 72,72 0 0,1 433.61654018903261,348.95349681483879" />
    <path d="M 435,363 A 72,72 0 0,1 390.55320713028647,429.51932634081265" />
    <path d="M 377.04650318516127,433.61654018903261 A 72,72 0 0,1 296.48067365918735,390.55320713028652" />
    <path d="M 292.38345981096739,377.04650318516127 A 72,72 0 0,1 296.48067365918735,335.44679286971353" />
    <path d="M 303.13418791421674,322.99894322258865 A 72,72 0 0,1 335.44679286971348,296.48067365918735" />
    <path d="M 345.83205166258068,276.69089532451574 A 88,88 0 0,1 380.16794833741926,276.69089532451574" />
    <path d="M 396.67614204812787,281.69860113900677 A 88,88 0 0,1 425.22539674441617,300.77460325558383" />
    <path d="M 436.169325882624,314.10981949427503 A 88,88 0 0,1 449.30910467548426,345.83205166258068" />
    <path d="M 449.30910467548426,380.16794833741926 A 88,88 0 0,1 444.30139886099323,396.67614204812787" />
    <path d="M 436.169325882624,411.89018050572497 A 88,88 0 0,1 425.22539674441617,425.22539674441617" />
    <path d="M 411.89018050572497,436.169325882624 A 88,88 0 0,1 380.16794833741932,449.30910467548426" />
    <path d="M 363,451 A 88,88 0 0,1 314.10981949427503,436.169325882624" />
    <path d="M 300.77460325558383,425.22539674441617 A 88,88 0 0,1 275,363" />
    <path d="M 276.69089532451574,345.83205166258074 A 88,88 0 0,1 289.830674117376,314.10981949427503" />
    <path d="M 300.77460325558383,300.77460325558383 A 88,88 0 0,1 329.323857951872,281.69860113900677" />
    <path d="M 342.71060651032263,260.998330838064 A 104,104 0 0,1 363,259" />
    <path d="M 383.28939348967731,260.998330838064 A 104,104 0 0,1 402.79907696596933,266.91652861882619" />
    <path d="M 420.77930423403865,276.5271603205353 A 104,104 0 0,1 436.53910524340097,289.46089475659903" />
    <path d="M 449.4728396794647,305.22069576596135 A 104,104 0 0,1 459.08347138117381,402.79907696596933" />
    <path d="M 420.77930423403859,449.4728396794647 A 104,104 0 0,1 402.79907696596933,459.08347138117381" />
    <path d="M 363,467 A 104,104 0 0,1 305.22069576596141,449.47283967946476" />
    <path d="M 276.5271603205353,420.77930423403865 A 104,104 0 0,1 260.998330838064,383.28939348967737" />
    <path d="M 259,363 A 104,104 0 0,1 260.998330838064,342.71060651032263" />
    <path d="M 266.91652861882619,323.20092303403067 A 104,104 0 0,1 289.46089475659903,289.46089475659909" />
    <path d="M 305.22069576596135,276.5271603205353 A 104,104 0 0,1 323.20092303403061,266.91652861882619" />
    <path d="M 386.41083864193541,245.30576635161236 A 120,120 0 0,1 447.85281374238571,278.14718625761429" />
    <path d="M 462.77635347630542,296.33157203764773 A 120,120 0 0,1 473.86554390135439,317.0779881161892" />
    <path d="M 473.86554390135439,408.92201188381074 A 120,120 0 0,1 462.77635347630542,429.66842796235221" />
    <path d="M 429.66842796235227,462.77635347630542 A 120,120 0 0,1 278.14718625761429,447.85281374238571" />
    <path d="M 252.13445609864561,408.92201188381085 A 120,120 0 0,1 252.13445609864561,317.0779881161892" />
    <path d="M 263.22364652369453,296.33157203764779 A 120,120 0 0,1 296.33157203764773,263.22364652369458" />
    <path d="M 317.07798811618915,252.13445609864561 A 120,120 0 0,1 339.58916135806453,245.30576635161236" />
    <path d="M 349.66966891517978,227.65487717258122 A 136,136 0 0,1 389.53228379419346,229.61320186516065" />
    <path d="M 402.4787161066069,232.8561143404196 A 136,136 0 0,1 415.0449468016522,237.35238357846498" />
    <path d="M 427.10995620833569,243.05870804862371 A 136,136 0 0,1 476.07986727314614,287.44244830933411" />
    <path d="M 488.64761642153496,310.9550531983478 A 136,136 0 0,1 498.34512282741878,349.66966891517973" />
    <path d="M 498.34512282741878,376.33033108482027 A 136,136 0 0,1 496.38679813483935,389.53228379419346" />
    <path d="M 488.647616421535,415.0449468016522 A 136,136 0 0,1 476.07986727314619,438.55755169066589" />
    <path d="M 468.12942165733227,449.27748664625574 A 136,136 0 0,1 459.16652224137044,459.16652224137044" />
    <path d="M 449.2774866462558,468.12942165733222 A 136,136 0 0,1 427.10995620833569,482.94129195137629" />
    <path d="M 402.4787161066069,493.14388565958041 A 136,136 0 0,1 349.66966891517978,498.34512282741878" />
    <path d="M 336.46771620580654,496.38679813483935 A 136,136 0 0,1 310.9550531983478,488.647616421535" />
    <path d="M 298.89004379166431,482.94129195137629 A 136,136 0 0,1 276.72251335374426,468.12942165733227" />
    <path d="M 257.87057834266784,449.27748664625585 A 136,136 0 0,1 227.65487717258122,349.66966891517984" />
    <path d="M 229.61320186516065,336.46771620580654 A 136,136 0 0,1 237.352383578465,310.95505319834774" />
    <path d="M 257.87057834266778,276.7225133537442 A 136,136 0 0,1 276.72251335374415,257.87057834266784" />
    <path d="M 287.44244830933411,249.92013272685387 A 136,136 0 0,1 336.46771620580648,229.61320186516068" />
    <path d="M 363,211 A 152,152 0 0,1 377.89860533009323,211.73192154582608" />
    <path d="M 392.65372894645151,213.92063737870896 A 152,152 0 0,1 434.65230399755166,228.94796781905004" />
    <path d="M 459.42777919287414,245.502411088864 A 152,152 0 0,1 470.48023074035524,255.51976925964476" />
    <path d="M 480.497588911136,266.57222080712586 A 152,152 0 0,1 489.38338106998685,278.55332458102043" />
    <path d="M 514.268078454174,348.10139466990677 A 152,152 0 0,1 515,363" />
    <path d="M 508.45493103129576,407.12327094267823 A 152,152 0 0,1 497.05203218094994,434.65230399755166" />
    <path d="M 470.48023074035524,470.48023074035518 A 152,152 0 0,1 459.42777919287414,480.497588911136" />
    <path d="M 447.44667541897951,489.38338106998685 A 152,152 0 0,1 434.65230399755166,497.05203218094994" />
    <path d="M 407.12327094267829,508.45493103129576 A 152,152 0 0,1 363,515" />
    <path d="M 348.10139466990677,514.268078454174 A 152,152 0 0,1 333.34627105354849,512.079362621291" />
    <path d="M 266.57222080712592,480.49758891113606 A 152,152 0 0,1 255.51976925964479,470.48023074035524" />
    <path d="M 245.50241108886402,459.42777919287414 A 152,152 0 0,1 236.61661893001312,447.44667541897951" />
    <path d="M 228.94796781905006,434.65230399755171 A 152,152 0 0,1 217.54506896870424,407.12327094267829" />
    <path d="M 211.73192154582605,348.10139466990688 A 152,152 0 0,1 222.57031105828443,304.83211828050634" />
    <path d="M 228.94796781905004,291.3476960024484 A 152,152 0 0,1 255.51976925964476,255.51976925964482" />
    <path d="M 266.5722208071258,245.50241108886405 A 152,152 0 0,1 278.55332458102043,236.61661893001312" />
    <path d="M 291.34769600244829,228.94796781905006 A 152,152 0 0,1 318.87672905732171,217.54506896870427" />
    <path d="M 333.34627105354843,213.920637378709 A 152,152 0 0,1 348.10139466990682,211.73192154582608" />
    <path d="M 314.23217422125032,202.23402359698892 A 168,168 0 0,1 379.46687957536619,195.80896591907091" />
    <path d="M 395.77517409870956,198.22807289225727 A 168,168 0 0,1 427.29081663733507,207.78823853810383" />
    <path d="M 442.19465178676762,214.83722758947636 A 168,168 0 0,1 469.57807173949243,233.13424383506018" />
    <path d="M 481.79393923934,244.20606076066002 A 168,168 0 0,1 511.16277241052364,283.80534821323238" />
    <path d="M 531,363 A 168,168 0 0,1 530.19103408092906,379.46687957536619" />
    <path d="M 518.21176146189623,427.29081663733507 A 168,168 0 0,1 481.79393923934,481.79393923934" />
    <path d="M 469.57807173949243,492.86575616493985 A 168,168 0 0,1 442.19465178676762,511.16277241052364" />
    <path d="M 427.29081663733507,518.21176146189623 A 168,168 0 0,1 411.76782577874968,523.76597640301111" />
    <path d="M 395.77517409870961,527.77192710774273 A 168,168 0 0,1 363,531" />
    <path d="M 244.20606076066002,481.79393923934003 A 168,168 0 0,1 233.13424383506023,469.57807173949249" />
    <path d="M 214.83722758947639,442.19465178676762 A 168,168 0 0,1 198.2280728922573,395.77517409870961" />
    <path d="M 198.22807289225727,330.22482590129044 A 168,168 0 0,1 202.23402359698889,314.23217422125038" />
    <path d="M 214.83722758947636,283.80534821323238 A 168,168 0 0,1 233.1342438350602,256.42192826050757" />
    <path d="M 269.66420085270681,223.3131051331724 A 168,168 0 0,1 298.70918336266482,207.78823853810386" />
    <path d="M 381.03515382063915,179.88601029231577 A 184,184 0 0,1 398.8966192509676,182.53550840580559" />
    <path d="M 433.41375155517653,193.00616601792325 A 184,184 0 0,1 449.73699957598353,200.72648735990268" />
    <path d="M 465.22492287560681,210.00959133633168 A 184,184 0 0,1 479.72836428611078,220.76607658125639" />
    <path d="M 493.10764773832477,232.89235226167526 A 184,184 0 0,1 515.99040866366829,260.77507712439319" />
    <path d="M 532.99383398207669,292.58624844482347 A 184,184 0 0,1 539.0770217747264,309.58761938517893" />
    <path d="M 543.46449159419444,327.1033807490324 A 184,184 0 0,1 546.11398970768425,344.96484617936085" />
    <path d="M 539.0770217747264,416.412380614821 A 184,184 0 0,1 515.9904086636684,465.22492287560675" />
    <path d="M 493.10764773832477,493.10764773832477 A 184,184 0 0,1 479.72836428611078,505.23392341874364" />
    <path d="M 449.73699957598359,525.27351264009735 A 184,184 0 0,1 381.03515382063921,546.11398970768425" />
    <path d="M 327.1033807490324,543.46449159419444 A 184,184 0 0,1 276.26300042401647,525.27351264009735" />
    <path d="M 260.77507712439325,515.9904086636684 A 184,184 0 0,1 232.89235226167529,493.10764773832477" />
    <path d="M 220.76607658125647,479.72836428611083 A 184,184 0 0,1 210.00959133633168,465.22492287560681" />
    <path d="M 193.00616601792328,433.41375155517665 A 184,184 0 0,1 186.92297822527357,416.41238061482107" />
    <path d="M 179,363.00000000000006 A 184,184 0 0,1 179.88601029231577,344.96484617936096" />
    <path d="M 182.53550840580559,327.1033807490324 A 184,184 0 0,1 186.92297822527354,309.587619385179" />
    <path d="M 193.00616601792325,292.58624844482347 A 184,184 0 0,1 210.00959133633162,260.77507712439325" />
    <path d="M 220.76607658125641,246.27163571388923 A 184,184 0 0,1 232.89235226167523,232.89235226167529" />
    <path d="M 260.77507712439319,210.00959133633168 A 184,184 0 0,1 276.26300042401635,200.72648735990271" />
    <path d="M 292.58624844482335,193.00616601792328 A 184,184 0 0,1 309.58761938517893,186.92297822527357" />
    <path d="M 363,163 A 200,200 0 0,1 382.60342806591211,163.96305466556063" />
    <path d="M 421.05693545089247,171.61193285355822 A 200,200 0 0,1 457.27934736519956,186.615747130329" />
    <path d="M 474.11404660392043,196.70607753949096 A 200,200 0 0,1 517.60209067254732,236.12134316727088" />
    <path d="M 529.29392246050907,251.88595339607954 A 200,200 0 0,1 539.384252869671,268.72065263480044" />
    <path d="M 547.77590650225738,286.463313526982 A 200,200 0 0,1 559.157056080646,323.98193559677435" />
    <path d="M 562.03694533443934,343.39657193408783 A 200,200 0 0,1 563,363" />
    <path d="M 559.157056080646,402.01806440322565 A 200,200 0 0,1 554.38806714644181,421.05693545089241" />
    <path d="M 547.77590650225738,439.53668647301794 A 200,200 0 0,1 529.29392246050907,474.11404660392043" />
    <path d="M 517.60209067254743,489.87865683272906 A 200,200 0 0,1 504.42135623730951,504.42135623730951" />
    <path d="M 474.11404660392043,529.29392246050907 A 200,200 0 0,1 457.27934736519956,539.384252869671" />
    <path d="M 439.536686473018,547.77590650225738 A 200,200 0 0,1 421.05693545089247,554.38806714644181" />
    <path d="M 402.01806440322571,559.157056080646 A 200,200 0 0,1 323.98193559677435,559.157056080646" />
    <path d="M 304.94306454910759,554.38806714644181 A 200,200 0 0,1 286.46331352698206,547.77590650225738" />
    <path d="M 268.72065263480044,539.384252869671 A 200,200 0 0,1 208.39790932745268,489.87865683272918" />
    <path d="M 196.70607753949093,474.11404660392043 A 200,200 0 0,1 166.84294391935393,402.01806440322571" />
    <path d="M 171.61193285355822,304.94306454910759 A 200,200 0 0,1 178.22409349774267,286.463313526982" />
    <path d="M 186.615747130329,268.7206526348005 A 200,200 0 0,1 221.57864376269046,221.57864376269052" />
    <path d="M 236.12134316727082,208.39790932745268 A 200,200 0 0,1 251.88595339607957,196.70607753949096" />
    <path d="M 304.94306454910748,171.61193285355824 A 200,200 0 0,1 323.98193559677424,166.84294391935393" />
    <path d="M 341.82829768881493,148.04009903880547 A 216,216 0 0,1 363,147" />
    <path d="M 384.17170231118507,148.04009903880547 A 216,216 0 0,1 445.6596213908594,163.44202097756207" />
    <path d="M 464.82169515441547,172.50500690075532 A 216,216 0 0,1 500.02894937934741,196.02974207364881" />
    <path d="M 542.59743625734973,242.99682966776589 A 216,216 0 0,1 569.69911251815711,300.29850971303614" />
    <path d="M 577.95990096119453,341.82829768881487 A 216,216 0 0,1 579,363" />
    <path d="M 574.84962056709776,405.1395095554837 A 216,216 0 0,1 553.49499309924465,464.82169515441547" />
    <path d="M 542.59743625734984,483.00317033223405 A 216,216 0 0,1 529.97025792635122,500.02894937934741" />
    <path d="M 515.73506473629425,515.73506473629425 A 216,216 0 0,1 500.02894937934741,529.97025792635122" />
    <path d="M 483.00317033223405,542.59743625734973 A 216,216 0 0,1 425.70149028696386,569.69911251815711" />
    <path d="M 384.17170231118513,577.95990096119453 A 216,216 0 0,1 341.82829768881493,577.95990096119453" />
    <path d="M 320.86049044451624,574.84962056709776 A 216,216 0 0,1 300.2985097130362,569.69911251815711" />
    <path d="M 280.34037860914066,562.557979022438 A 216,216 0 0,1 225.97105062065262,529.97025792635122" />
    <path d="M 210.26493526370575,515.73506473629425 A 216,216 0 0,1 183.40256374265022,483.00317033223405" />
    <path d="M 163.44202097756212,445.65962139085951 A 216,216 0 0,1 156.30088748184289,425.70149028696386" />
    <path d="M 148.04009903880547,384.17170231118507 A 216,216 0 0,1 148.04009903880547,341.82829768881504" />
    <path d="M 151.15037943290221,320.8604904445163 A 216,216 0 0,1 163.4420209775621,280.34037860914054" />
    <path d="M 172.50500690075529,261.17830484558453 A 216,216 0 0,1 196.02974207364883,225.97105062065256" />
    <path d="M 210.2649352637057,210.26493526370578 A 216,216 0 0,1 320.86049044451619,151.15037943290224" />
    <path d="M 340.26002344354197,132.11714341205033 A 232,232 0 0,1 491.89229406054767,170.0990499458095" />
    <path d="M 510.17924192596575,183.66157481984502 A 232,232 0 0,1 527.048773235279,198.95122676472096" />
    <path d="M 542.3384251801549,215.82075807403425 A 232,232 0 0,1 577.34005154261854,274.2174436912992" />
    <path d="M 593.88285658794962,340.26002344354191 A 232,232 0 0,1 567.60573332881836,472.36404294363149" />
    <path d="M 555.9009500541905,491.89229406054767 A 232,232 0 0,1 542.338425180155,510.1792419259657" />
    <path d="M 451.78255630870086,577.34005154261854 A 232,232 0 0,1 317.7390452922582,590.54218505354947" />
    <path d="M 295.6539548769648,585.01015788987252 A 232,232 0 0,1 253.63595705636857,567.60573332881836" />
    <path d="M 234.10770593945236,555.9009500541905 A 232,232 0 0,1 183.6615748198451,510.17924192596581" />
    <path d="M 170.0990499458095,491.89229406054767 A 232,232 0 0,1 148.65994845738152,451.782556308701" />
    <path d="M 132.11714341205033,385.73997655645803 A 232,232 0 0,1 131,363.00000000000006" />
    <path d="M 132.1171434120503,340.26002344354208 A 232,232 0 0,1 140.98984211012751,295.6539548769648" />
    <path d="M 158.39426667118161,253.63595705636857 A 232,232 0 0,1 183.66157481984504,215.82075807403422" />
    <path d="M 215.82075807403413,183.6615748198451 A 232,232 0 0,1 274.217443691299,148.65994845738155" />
    <path d="M 363,115 A 248,248 0 0,1 411.38239985999979,119.76525045999884" />
    <path d="M 479.9063907328474,144.28352644160796 A 248,248 0 0,1 520.3295344725841,171.29340756604123" />
    <path d="M 538.36248173426384,187.63751826573622 A 248,248 0 0,1 554.7065924339588,205.6704655274159" />
    <path d="M 569.20446385103128,225.21858221113865 A 248,248 0 0,1 592.12212406279912,268.09450877345773" />
    <path d="M 600.32120326158781,291.00940004089335 A 248,248 0 0,1 611,363" />
    <path d="M 606.23474954000119,411.38239985999979 A 248,248 0 0,1 581.71647355839207,479.9063907328474" />
    <path d="M 520.3295344725841,554.7065924339588 A 248,248 0 0,1 434.99059995910665,600.32120326158781" />
    <path d="M 314.61760014000015,606.23474954000119 A 248,248 0 0,1 291.00940004089341,600.32120326158781" />
    <path d="M 268.09450877345773,592.12212406279912 A 248,248 0 0,1 246.0936092671526,581.71647355839207" />
    <path d="M 225.21858221113874,569.20446385103128 A 248,248 0 0,1 205.67046552741596,554.7065924339588" />
    <path d="M 171.29340756604131,520.32953447258421 A 248,248 0 0,1 133.87787593720094,457.90549122654238" />
    <path d="M 125.67879673841222,434.9905999591067 A 248,248 0 0,1 115,363.00000000000006" />
    <path d="M 116.19418778529516,338.69174919826912 A 248,248 0 0,1 133.87787593720091,268.09450877345768" />
    <path d="M 144.28352644160793,246.0936092671526 A 248,248 0 0,1 156.79553614896872,225.21858221113874" />
    <path d="M 171.29340756604125,205.6704655274159 A 248,248 0 0,1 205.67046552741581,171.29340756604131" />
    <path d="M 225.21858221113865,156.79553614896878 A 248,248 0 0,1 314.61760014000009,119.76525045999887" />
    <path d="M 337.12347495299605,100.27123215854005 A 264,264 0 0,1 414.50384501225784,104.07268597354715" />
    <path d="M 439.6351547951781,110.36775136669687 A 264,264 0 0,1 451.93892129554609,114.43236679168251" />
    <path d="M 487.44873852206337,130.17278621203428 A 264,264 0 0,1 498.72312446701051,136.55964695992816" />
    <path d="M 520.26461638600244,150.95321168910974 A 264,264 0 0,1 530.47982701920239,158.92524031223744" />
    <path d="M 540.29156407961284,167.38890290629078 A 264,264 0 0,1 558.61109709370919,185.70843592038716" />
    <path d="M 567.07475968776259,195.52017298079758 A 264,264 0 0,1 589.44035304007184,227.27687553298947" />
    <path d="M 606.90419658297969,261.97157385561627 A 264,264 0 0,1 621.9273140264529,311.4961549877421" />
    <path d="M 624.1425986307022,324.26315474378453 A 264,264 0 0,1 625.72876784146,388.876525047004" />
    <path d="M 624.1425986307022,401.73684525621547 A 264,264 0 0,1 619.08825084335967,427.14676749446164" />
    <path d="M 601.65317338458908,475.87454466559439 A 264,264 0 0,1 589.44035304007184,498.72312446701051" />
    <path d="M 582.50797764787194,509.67054151717491 A 264,264 0 0,1 575.04678831089029,520.26461638600244" />
    <path d="M 567.07475968776259,530.47982701920239 A 264,264 0 0,1 549.67619023324858,549.67619023324846" />
    <path d="M 530.47982701920239,567.07475968776259 A 264,264 0 0,1 520.26461638600244,575.04678831089018" />
    <path d="M 509.67054151717497,582.50797764787194 A 264,264 0 0,1 475.87454466559444,601.65317338458908" />
    <path d="M 464.02842614438373,606.90419658297969 A 264,264 0 0,1 427.1467674944617,619.08825084335967" />
    <path d="M 401.73684525621553,624.1425986307022 A 264,264 0 0,1 375.95386602243832,626.68200043816546" />
    <path d="M 363.00000000000006,627 A 264,264 0 0,1 350.04613397756174,626.68200043816546" />
    <path d="M 324.26315474378453,624.1425986307022 A 264,264 0 0,1 298.85323250553836,619.08825084335967" />
    <path d="M 274.06107870445391,611.56763320831749 A 264,264 0 0,1 250.12545533440562,601.65317338458908" />
    <path d="M 238.55126147793663,595.82721378796577 A 264,264 0 0,1 205.73538361399761,575.04678831089029" />
    <path d="M 195.52017298079764,567.07475968776259 A 264,264 0 0,1 167.38890290629087,540.291564079613" />
    <path d="M 158.92524031223752,530.4798270192025 A 264,264 0 0,1 150.95321168910971,520.26461638600233" />
    <path d="M 143.49202235212806,509.67054151717497 A 264,264 0 0,1 130.17278621203431,487.44873852206342" />
    <path d="M 124.346826615411,475.87454466559461 A 264,264 0 0,1 119.09580341702036,464.02842614438384" />
    <path d="M 114.43236679168251,451.93892129554604 A 264,264 0 0,1 104.07268597354721,414.50384501225795" />
    <path d="M 101.85740136929786,401.73684525621564 A 264,264 0 0,1 99.317999561834483,375.95386602243838" />
    <path d="M 99,363.00000000000006 A 264,264 0 0,1 101.8574013692978,324.26315474378447" />
    <path d="M 104.07268597354715,311.4961549877421 A 264,264 0 0,1 110.36775136669684,286.364845204822" />
    <path d="M 114.43236679168248,274.061078704454 A 264,264 0 0,1 130.17278621203425,238.55126147793663" />
    <path d="M 143.492022352128,216.32945848282512 A 264,264 0 0,1 158.92524031223746,195.52017298079755" />
    <path d="M 167.38890290629078,185.70843592038716 A 264,264 0 0,1 195.52017298079747,158.92524031223755" />
    <path d="M 205.73538361399764,150.95321168910971 A 264,264 0 0,1 227.27687553298944,136.55964695992819" />
    <path d="M 238.55126147793655,130.17278621203431 A 264,264 0 0,1 250.12545533440539,124.346826615411" />
    <path d="M 274.06107870445391,114.43236679168251 A 264,264 0 0,1 298.85323250553824,106.91174915664038" />
    <path d="M 311.496154987742,104.07268597354721 A 264,264 0 0,1 324.26315474378436,101.85740136929786" />
    <path d="M 363,83 A 280,280 0 0,1 417.62529016451589,88.3801214870955" />
    <path d="M 444.27970963124949,95.056705994981542 A 280,280 0 0,1 494.99108631127933,116.0620459824606" />
    <path d="M 506.94876837410209,122.8359891999238 A 280,280 0 0,1 518.55966524548865,130.18850855528734" />
    <path d="M 529.79580525788128,138.10189118541942 A 280,280 0 0,1 551.03650735716519,155.53368490061143" />
    <path d="M 570.46631509938857,174.96349264283487 A 280,280 0 0,1 579.44292694156638,185.36988043417927" />
    <path d="M 587.89810881458061,196.20419474211863 A 280,280 0 0,1 595.8114914447126,207.44033475451136" />
    <path d="M 603.1640108000762,219.05123162589791 A 280,280 0 0,1 609.93795401753937,231.00891368872061" />
    <path d="M 616.11700207456408,243.284573839521 A 280,280 0 0,1 621.68626910316027,255.84863893777487" />
    <path d="M 630.94329400501852,281.72029036875057 A 280,280 0 0,1 637.61987851290451,308.37470983548405" />
    <path d="M 639.96942279013865,321.91546715249871 A 280,280 0 0,1 643,363" />
    <path d="M 642.66272773744822,376.73894881167706 A 280,280 0 0,1 639.96942279013865,404.08453284750124" />
    <path d="M 637.61987851290451,417.62529016451589 A 280,280 0 0,1 630.94329400501852,444.27970963124943" />
    <path d="M 616.1170020745642,482.71542616047896 A 280,280 0 0,1 609.93795401753937,494.99108631127933" />
    <path d="M 603.1640108000762,506.94876837410209 A 280,280 0 0,1 595.81149144471271,518.55966524548853" />
    <path d="M 579.44292694156638,540.63011956582068 A 280,280 0 0,1 551.03650735716519,570.46631509938857" />
    <path d="M 518.55966524548853,595.81149144471271 A 280,280 0 0,1 494.99108631127939,609.93795401753937" />
    <path d="M 482.71542616047896,616.1170020745642 A 280,280 0 0,1 470.15136106222519,621.68626910316027" />
    <path d="M 457.3291589498217,626.63233825124576 A 280,280 0 0,1 390.444799292277,641.6517234682151" />
    <path d="M 349.26105118832305,642.66272773744822 A 280,280 0 0,1 321.91546715249876,639.96942279013865" />
    <path d="M 294.96554962708615,634.60875089447234 A 280,280 0 0,1 281.72029036875063,630.94329400501852" />
    <path d="M 243.2845738395211,616.1170020745642 A 280,280 0 0,1 219.05123162589797,603.1640108000762" />
    <path d="M 196.20419474211869,587.89810881458061 A 280,280 0 0,1 155.53368490061152,551.03650735716519" />
    <path d="M 138.10189118541939,529.79580525788128 A 280,280 0 0,1 130.18850855528731,518.55966524548865" />
    <path d="M 122.83598919992383,506.94876837410209 A 280,280 0 0,1 116.06204598246063,494.99108631127945" />
    <path d="M 91.39124910552772,431.03445037291397 A 280,280 0 0,1 88.3801214870955,417.625290164516" />
    <path d="M 83.337272262551721,376.73894881167706 A 280,280 0 0,1 83.337272262551721,349.26105118832305" />
    <path d="M 86.030577209861349,321.91546715249865 A 280,280 0 0,1 88.3801214870955,308.37470983548405" />
    <path d="M 91.391249105527663,294.96554962708615 A 280,280 0 0,1 99.367661748754131,268.67084105017852" />
    <path d="M 109.88299792543589,243.284573839521 A 280,280 0 0,1 116.06204598246058,231.00891368872067" />
    <path d="M 122.83598919992377,219.05123162589797 A 280,280 0 0,1 130.18850855528726,207.44033475451147" />
    <path d="M 146.55707305843367,185.36988043417924 A 280,280 0 0,1 174.96349264283478,155.53368490061152" />
    <path d="M 185.36988043417915,146.55707305843376 A 280,280 0 0,1 196.20419474211869,138.10189118541939" />
    <path d="M 219.05123162589788,122.83598919992386 A 280,280 0 0,1 231.00891368872058,116.06204598246063" />
    <path d="M 243.28457383952087,109.88299792543592 A 280,280 0 0,1 268.67084105017841,99.367661748754188" />
    <path d="M 294.96554962708603,91.39124910552772 A 280,280 0 0,1 349.26105118832294,83.337272262551721" />
    <path d="M 377.52403160091575,67.356544963268959 A 296,296 0 0,1 392.01307353754993,68.425320905029707" />
    <path d="M 406.43222043878706,70.203753050424837 A 296,296 0 0,1 420.746735316774,72.687557000643778" />
    <path d="M 434.92213325136612,75.870749054415 A 296,296 0 0,1 462.71939660409714,84.302956705825864" />
    <path d="M 502.5334341004953,101.95130575288692 A 296,296 0 0,1 515.17441228119355,109.11233143991944" />
    <path d="M 550.78041211243908,134.18890580462985 A 296,296 0 0,1 582.32153310506783,164.21854936528257" />
    <path d="M 591.81109419537017,175.21958788756092 A 296,296 0 0,1 600.74942931827081,186.67300587023971" />
    <path d="M 609.11500524155338,198.55121102619773 A 296,296 0 0,1 630.5808307645392,236.44369234463647" />
    <path d="M 636.46834162334085,249.7257040199334 A 296,296 0 0,1 641.69704329417414,263.28060339590286" />
    <path d="M 653.31244299935622,305.253264683226 A 296,296 0 0,1 658.643455036731,348.47596839908425" />
    <path d="M 659,363 A 296,296 0 0,1 658.643455036731,377.52403160091575" />
    <path d="M 657.57467909497029,392.01307353754993 A 296,296 0 0,1 653.31244299935622,420.74673531677394" />
    <path d="M 646.25433937673392,448.92426446732082 A 296,296 0 0,1 641.69704329417414,462.71939660409708" />
    <path d="M 636.46834162334085,476.27429598006654 A 296,296 0 0,1 630.58083076453931,489.55630765536341" />
    <path d="M 609.11500524155349,527.44878897380215 A 296,296 0 0,1 591.81109419537017,550.78041211243908" />
    <path d="M 582.32153310506783,561.78145063471743 A 296,296 0 0,1 539.32699412976035,600.74942931827081" />
    <path d="M 515.17441228119367,616.88766856008056 A 296,296 0 0,1 502.53343410049536,624.04869424711308" />
    <path d="M 476.2742959800666,636.46834162334085 A 296,296 0 0,1 434.92213325136618,650.129250945585" />
    <path d="M 420.74673531677405,653.31244299935622 A 296,296 0 0,1 377.52403160091569,658.643455036731" />
    <path d="M 363.00000000000006,659 A 296,296 0 0,1 348.47596839908437,658.643455036731" />
    <path d="M 333.98692646245007,657.57467909497029 A 296,296 0 0,1 319.567779561213,655.79624694957511" />
    <path d="M 305.253264683226,653.31244299935622 A 296,296 0 0,1 236.44369234463659,630.58083076453931" />
    <path d="M 223.4665658995047,624.04869424711308 A 296,296 0 0,1 210.82558771880642,616.88766856008056" />
    <path d="M 175.219587887561,591.81109419537017 A 296,296 0 0,1 164.21854936528254,582.32153310506783" />
    <path d="M 143.67846689493217,561.78145063471754 A 296,296 0 0,1 116.8849947584466,527.44878897380227" />
    <path d="M 101.95130575288692,502.53343410049536 A 296,296 0 0,1 95.419169235460856,489.55630765536364" />
    <path d="M 89.531658376659209,476.27429598006677 A 296,296 0 0,1 84.302956705825864,462.71939660409708" />
    <path d="M 72.687557000643835,420.74673531677411 A 296,296 0 0,1 70.203753050424837,406.43222043878723" />
    <path d="M 68.425320905029707,392.01307353754987 A 296,296 0 0,1 67.356544963268959,377.52403160091575" />
    <path d="M 67,363.00000000000006 A 296,296 0 0,1 67.356544963268959,348.47596839908437" />
    <path d="M 68.425320905029707,333.98692646245024 A 296,296 0 0,1 70.203753050424837,319.56777956121289" />
    <path d="M 72.687557000643778,305.253264683226 A 296,296 0 0,1 75.870749054414944,291.07786674863394" />
    <path d="M 101.95130575288692,223.46656589950473 A 296,296 0 0,1 109.11233143991942,210.82558771880645" />
    <path d="M 116.88499475844654,198.55121102619785 A 296,296 0 0,1 125.25057068172899,186.67300587023988" />
    <path d="M 143.67846689493209,164.21854936528257 A 296,296 0 0,1 164.21854936528246,143.67846689493217" />
    <path d="M 175.21958788756081,134.18890580462997 A 296,296 0 0,1 210.82558771880633,109.1123314399195" />
    <path d="M 223.46656589950462,101.95130575288698 A 296,296 0 0,1 236.44369234463636,95.419169235460856" />
    <path d="M 249.72570401993323,89.531658376659209 A 296,296 0 0,1 263.28060339590286,84.302956705825864" />
    <path d="M 277.07573553267912,79.74566062326619 A 296,296 0 0,1 291.07786674863382,75.870749054415" />
    <path d="M 305.25326468322589,72.687557000643835 A 296,296 0 0,1 319.56777956121272,70.203753050424837" />
    <path d="M 333.98692646245007,68.425320905029707 A 296,296 0 0,1 348.47596839908425,67.356544963268959" />
    <path d="M 347.69088560984557,51.3758176639862 A 312,312 0 0,1 378.30911439015443,51.3758176639862" />
    <path d="M 423.86818046903204,56.99499251419212 A 312,312 0 0,1 482.397230897908,74.749585856478518" />
    <path d="M 536.33791270211589,103.58148096160591 A 312,312 0 0,1 560.93070465905737,121.82073855082606" />
    <path d="M 583.61731573020279,142.38268426979715 A 312,312 0 0,1 604.179261449174,165.0692953409426" />
    <path d="M 613.60074982196124,177.14181699836078 A 312,312 0 0,1 630.61132632008491,202.59994381171484" />
    <path d="M 638.15943447668678,215.92421811028868 A 312,312 0 0,1 661.56538474844911,272.43118069660773" />
    <path d="M 665.64975099669778,287.19018387018161 A 312,312 0 0,1 671.62307110901168,317.22009196992713" />
    <path d="M 673.49763472172549,332.41865221717705 A 312,312 0 0,1 675,363" />
    <path d="M 669.00500748580794,423.868180469032 A 312,312 0 0,1 661.56538474844911,453.56881930339222" />
    <path d="M 656.76174833710252,468.10963425837264 A 312,312 0 0,1 651.25041414352154,482.397230897908" />
    <path d="M 630.61132632008491,523.40005618828513 A 312,312 0 0,1 613.60074982196124,548.85818300163919" />
    <path d="M 536.33791270211589,622.41851903839415 A 312,312 0 0,1 482.39723089790806,651.25041414352154" />
    <path d="M 468.10963425837275,656.76174833710252 A 312,312 0 0,1 453.56881930339227,661.56538474844911" />
    <path d="M 423.86818046903215,669.00500748580794 A 312,312 0 0,1 408.77990803007287,671.62307110901168" />
    <path d="M 393.581347782823,673.49763472172549 A 312,312 0 0,1 363.00000000000006,675" />
    <path d="M 347.69088560984568,674.62418233601375 A 312,312 0 0,1 332.41865221717711,673.49763472172549" />
    <path d="M 317.22009196992718,671.62307110901168 A 312,312 0 0,1 302.13181953096796,669.00500748580794" />
    <path d="M 287.19018387018167,665.64975099669778 A 312,312 0 0,1 257.89036574162731,656.76174833710252" />
    <path d="M 243.60276910209203,651.25041414352154 A 312,312 0 0,1 215.92421811028873,638.15943447668678" />
    <path d="M 189.6620872978842,622.41851903839415 A 312,312 0 0,1 142.38268426979721,583.6173157302029" />
    <path d="M 121.82073855082618,560.93070465905748 A 312,312 0 0,1 112.39925017803876,548.85818300163919" />
    <path d="M 95.388673679915144,523.40005618828525 A 312,312 0 0,1 74.749585856478632,482.39723089790817" />
    <path d="M 69.238251662897483,468.10963425837264 A 312,312 0 0,1 64.434615251550838,453.56881930339227" />
    <path d="M 54.376928890988381,408.77990803007305 A 312,312 0 0,1 52.502365278274567,393.58134778282283" />
    <path d="M 51.3758176639862,347.69088560984568 A 312,312 0 0,1 56.99499251419212,302.13181953096796" />
    <path d="M 60.350249003302281,287.19018387018173 A 312,312 0 0,1 64.434615251550781,272.43118069660784" />
    <path d="M 80.955340545485683,229.60281084975196 A 312,312 0 0,1 131.82324888925277,153.47360608773028" />
    <path d="M 177.14181699836084,112.39925017803876 A 312,312 0 0,1 229.60281084975185,80.95534054548574" />
    <path d="M 257.89036574162736,69.23825166289754 A 312,312 0 0,1 287.19018387018161,60.350249003302281" />
    <path d="M 363,35 A 328,328 0 0,1 395.14962202809591,36.579409651519427" />
    <path d="M 411.12759562135864,38.550104731551812 A 328,328 0 0,1 442.69749900827054,44.829748952189561" />
    <path d="M 458.21337413946367,49.123569879835486 A 328,328 0 0,1 473.49987191264819,54.173546619969159" />
    <path d="M 503.23807064513255,66.491511855510566 A 328,328 0 0,1 558.38937187351814,99.5479296743485" />
    <path d="M 583.271337189822,119.96803088357339 A 328,328 0 0,1 606.03196911642658,142.72866281017798" />
    <path d="M 652.27017470626038,208.38187032107274 A 328,328 0 0,1 659.50848814448932,222.76192935486745" />
    <path d="M 666.032486663702,237.47983418425054 A 328,328 0 0,1 671.8264533800309,252.50012808735181" />
    <path d="M 676.87643012016451,267.78662586053633 A 328,328 0 0,1 689.42059034848057,330.85037797190409" />
    <path d="M 691,363 A 328,328 0 0,1 690.60490963529651,379.09419717939312" />
    <path d="M 689.42059034848057,395.14962202809591 A 328,328 0 0,1 687.44989526844824,411.12759562135864" />
    <path d="M 684.69757197225954,426.98962562129003 A 328,328 0 0,1 681.17025104781044,442.69749900827054" />
    <path d="M 676.87643012016451,458.21337413946361 A 328,328 0 0,1 671.8264533800309,473.49987191264813" />
    <path d="M 659.50848814448943,503.23807064513244 A 328,328 0 0,1 644.33498408008927,531.62570009537671" />
    <path d="M 616.54742870297775,571.08099720567566 A 328,328 0 0,1 594.93102422918764,594.93102422918753" />
    <path d="M 583.27133718982213,606.03196911642658 A 328,328 0 0,1 558.38937187351814,626.45207032565145" />
    <path d="M 531.62570009537671,644.33498408008927 A 328,328 0 0,1 517.61812967892729,652.27017470626038" />
    <path d="M 503.2380706451325,659.50848814448943 A 328,328 0 0,1 488.52016581574946,666.032486663702" />
    <path d="M 458.21337413946367,676.87643012016451 A 328,328 0 0,1 426.9896256212902,684.69757197225954" />
    <path d="M 395.14962202809596,689.42059034848057 A 328,328 0 0,1 379.09419717939312,690.60490963529651" />
    <path d="M 330.85037797190415,689.42059034848057 A 328,328 0 0,1 267.78662586053645,676.87643012016451" />
    <path d="M 252.50012808735181,671.82645338003078 A 328,328 0 0,1 237.47983418425059,666.032486663702" />
    <path d="M 222.76192935486756,659.50848814448943 A 328,328 0 0,1 180.77296356957058,635.72203283523493" />
    <path d="M 167.61062812648189,626.45207032565156 A 328,328 0 0,1 154.91900279432434,616.54742870297775" />
    <path d="M 142.72866281017795,606.03196911642658 A 328,328 0 0,1 131.06897577081244,594.93102422918764" />
    <path d="M 119.96803088357348,583.27133718982213 A 328,328 0 0,1 109.45257129702239,571.08099720567589" />
    <path d="M 99.547929674348438,558.389371873518 A 328,328 0 0,1 81.665015919910786,531.62570009537671" />
    <path d="M 73.729825293739566,517.61812967892729 A 328,328 0 0,1 66.491511855510623,503.23807064513267" />
    <path d="M 44.829748952189561,442.6974990082706 A 328,328 0 0,1 38.550104731551869,411.12759562135886" />
    <path d="M 36.579409651519427,395.14962202809585 A 328,328 0 0,1 35.395090364703435,379.09419717939312" />
    <path d="M 35.395090364703435,346.905802820607 A 328,328 0 0,1 38.550104731551869,314.87240437864125" />
    <path d="M 41.302428027740405,299.01037437870991 A 328,328 0 0,1 44.829748952189561,283.30250099172952" />
    <path d="M 49.123569879835486,267.78662586053645 A 328,328 0 0,1 59.967513336298,237.47983418425048" />
    <path d="M 90.277967164765073,180.77296356957058 A 328,328 0 0,1 109.4525712970223,154.91900279432426" />
    <path d="M 131.06897577081236,131.06897577081247 A 328,328 0 0,1 142.72866281017787,119.96803088357351" />
    <path d="M 167.61062812648191,99.547929674348438 A 328,328 0 0,1 180.77296356957046,90.277967164765187" />
    <path d="M 208.38187032107268,73.729825293739623 A 328,328 0 0,1 222.76192935486733,66.49151185551068" />
    <path d="M 237.47983418425037,59.967513336298055 A 328,328 0 0,1 299.0103743787098,41.302428027740461" />
    <path d="M 330.85037797190415,36.579409651519427 A 328,328 0 0,1 346.90580282060688,35.395090364703435" />
    <path d="M 346.12072003136819,19.414363065420673 A 344,344 0 0,1 363,19" />
    <path d="M 396.71789627336886,20.656454024764287 A 344,344 0 0,1 446.58518188672281,29.309248901076842" />
    <path d="M 462.85792897553506,33.812524508120134 A 344,344 0 0,1 478.89010956692368,39.108841577040835" />
    <path d="M 494.64310073359087,45.185440816117364 A 344,344 0 0,1 539.8513440024683,67.941358159906372" />
    <path d="M 581.23128975229406,97.084404043218456 A 344,344 0 0,1 628.91559595678154,144.76871024770594" />
    <path d="M 649.02554663207547,171.88383984125682 A 344,344 0 0,1 680.81455918388269,231.3568992664091" />
    <path d="M 692.18747549187992,263.14207102446494 A 344,344 0 0,1 700.39013645871125,295.88892922645186" />
    <path d="M 703.2767194278847,312.52471678735554 A 344,344 0 0,1 705.34354597523566,329.28210372663108" />
    <path d="M 706.58563693457927,379.87927996863181 A 344,344 0 0,1 700.39013645871125,430.11107077354814" />
    <path d="M 696.6907510989231,446.58518188672281 A 344,344 0 0,1 686.89115842295917,478.89010956692368" />
    <path d="M 680.81455918388269,494.64310073359087 A 344,344 0 0,1 673.97231683446455,510.07895214001695" />
    <path d="M 666.3809149358342,525.1604774681432 A 344,344 0 0,1 658.05864184009363,539.8513440024683" />
    <path d="M 617.88718712210584,594.01628046737437 A 344,344 0 0,1 567.9205607453971,639.30339082934188" />
    <path d="M 554.11616015874313,649.02554663207559 A 344,344 0 0,1 539.8513440024683,658.05864184009351" />
    <path d="M 510.078952140017,673.97231683446444 A 344,344 0 0,1 462.85792897553506,692.18747549187992" />
    <path d="M 430.11107077354825,700.39013645871125 A 344,344 0 0,1 413.47528321264446,703.2767194278847" />
    <path d="M 396.71789627336892,705.34354597523566 A 344,344 0 0,1 329.28210372663114,705.34354597523566" />
    <path d="M 247.10989043307629,686.89115842295917 A 344,344 0 0,1 200.83952253185683,666.3809149358342" />
    <path d="M 186.14865599753179,658.05864184009363 A 344,344 0 0,1 131.98371953262566,617.887187122106" />
    <path d="M 119.75526727182768,606.24473272817238 A 344,344 0 0,1 108.11281287789416,594.01628046737437" />
    <path d="M 86.696609170658121,567.920560745397 A 344,344 0 0,1 52.027683165535564,510.07895214001718" />
    <path d="M 45.185440816117421,494.64310073359104 A 344,344 0 0,1 39.108841577040835,478.89010956692368" />
    <path d="M 25.609863541288746,430.11107077354825 A 344,344 0 0,1 22.723280572115357,413.47528321264463" />
    <path d="M 20.656454024764287,396.71789627336881 A 344,344 0 0,1 20.65645402476423,329.28210372663136" />
    <path d="M 33.812524508120134,263.14207102446505 A 344,344 0 0,1 52.027683165535507,215.92104785998293" />
    <path d="M 108.11281287789407,131.98371953262569 A 344,344 0 0,1 131.98371953262557,108.11281287789416" />
    <path d="M 144.7687102477058,97.084404043218626 A 344,344 0 0,1 186.14865599753168,67.941358159906429" />
    <path d="M 215.92104785998279,52.027683165535564 A 344,344 0 0,1 231.3568992664089,45.185440816117421" />
    <path d="M 247.10989043307632,39.108841577040835 A 344,344 0 0,1 279.41481811327714,29.3092489010769" />
    <path d="M 295.88892922645175,25.609863541288746 A 344,344 0 0,1 329.28210372663119,20.656454024764287" />
    <path d="M 380.66436275787049,3.4336357661379111 A 360,360 0 1,1 363,3" />
  </g>
  <g fill="none" stroke="#000000" stroke-width="2" stroke-linecap="butt">
    <line x1="363" y1="67" x2="363" y2="83" />
    <line x1="363" y1="115" x2="363" y2="131" />
    <line x1="363" y1="147" x2="363" y2="179" />
    <line x1="363" y1="227" x2="363" y2="259" />
    <line x1="363" y1="275" x2="363" y2="291" />
    <line x1="363" y1="307" x2="363" y2="323" />
    <line x1="380.66436275787049" y1="3.4336357661379111" x2="379.87927996863181" y2="19.414363065420673" />
    <line x1="378.30911439015443" y1="51.3758176639862" x2="377.52403160091575" y2="67.356544963268959" />
    <line x1="398.28617051864182" y1="4.73349839800909" x2="392.01307353754993" y2="68.425320905029707" />
    <line x1="390.44479929227697" y1="84.348276531784848" x2="388.876525047004" y2="100.27123215853999" />
    <line x1="385.73997655645803" y1="132.11714341205033" x2="384.17170231118507" y2="148.04009903880547" />
    <line x1="381.03515382063915" y1="179.88601029231577" x2="379.46687957536619" y2="195.80896591907091" />
    <line x1="377.89860533009323" y1="211.73192154582605" x2="376.33033108482022" y2="227.65487717258122" />
    <line x1="411.12759562135864" y1="38.550104731551812" x2="408.77990803007287" y2="54.376928890988324" />
    <line x1="406.43222043878706" y1="70.203753050424837" x2="404.08453284750129" y2="86.030577209861292" />
    <line x1="414.50384501225784" y1="104.07268597354715" x2="411.38239985999979" y2="119.76525045999887" />
    <line x1="405.1395095554837" y1="151.15037943290224" x2="398.8966192509676" y2="182.53550840580562" />
    <line x1="442.69749900827054" y1="44.829748952189561" x2="427.14676749446164" y2="106.91174915664038" />
    <line x1="462.85792897553506" y1="33.812524508120191" x2="458.21337413946367" y2="49.123569879835486" />
    <line x1="444.27970963124943" y1="95.056705994981542" x2="430.34604512303525" y2="140.98984211012754" />
    <line x1="421.05693545089247" y1="171.61193285355824" x2="411.76782577874968" y2="202.23402359698892" />
    <line x1="484.28034722119924" y1="24.044136534112511" x2="478.89010956692368" y2="39.108841577040835" />
    <line x1="500.76603565143233" y1="30.403368295936787" x2="488.52016581574946" y2="59.967513336297941" />
    <line x1="482.397230897908" y1="74.749585856478518" x2="457.90549122654227" y2="133.87787593720088" />
    <line x1="445.6596213908594" y1="163.44202097756207" x2="439.53668647301794" y2="178.22409349774264" />
    <line x1="427.29081663733507" y1="207.78823853810383" x2="408.9220118838108" y2="252.13445609864559" />
    <line x1="402.79907696596933" y1="266.91652861882619" x2="390.55320713028647" y2="296.48067365918735" />
    <line x1="496.397189150248" y1="80.955340545485683" x2="475.8745446655945" y2="124.34682661541095" />
    <line x1="517.61812967892729" y1="73.729825293739566" x2="510.07578188971127" y2="87.840565523313217" />
    <line x1="487.44873852206337" y1="130.17278621203425" x2="479.9063907328474" y2="144.28352644160796" />
    <line x1="457.27934736519956" y1="186.615747130329" x2="442.19465178676762" y2="214.83722758947636" />
    <line x1="523.40005618828513" y1="95.388673679915087" x2="498.72312446701051" y2="136.55964695992816" />
    <line x1="554.11616015874313" y1="76.974453367924411" x2="545.22703643042951" y2="90.277967164765187" />
    <line x1="536.33791270211589" y1="103.58148096160591" x2="527.44878897380227" y2="116.88499475844662" />
    <line x1="518.55966524548865" y1="130.18850855528734" x2="509.67054151717497" y2="143.49202235212806" />
    <line x1="474.11404660392043" y1="196.70607753949096" x2="465.22492287560681" y2="210.00959133633168" />
    <line x1="447.44667541897957" y1="236.61661893001312" x2="438.55755169066589" y2="249.92013272685387" />
    <line x1="429.66842796235227" y1="263.22364652369458" x2="420.77930423403865" y2="276.5271603205353" />
    <line x1="577.451749617276" y1="73.8452886669678" x2="558.38937187351814" y2="99.547929674348438" />
    <line x1="539.32699412976024" y1="125.2505706817291" x2="520.26461638600244" y2="150.95321168910974" />
    <line x1="581.23128975229406" y1="97.084404043218456" x2="560.93070465905737" y2="121.82073855082606" />
    <line x1="530.47982701920239" y1="158.92524031223744" x2="520.3295344725841" y2="171.29340756604123" />
    <line x1="510.17924192596575" y1="183.66157481984502" x2="500.02894937934741" y2="196.02974207364881" />
    <line x1="479.72836428611078" y1="220.76607658125639" x2="469.57807173949243" y2="233.13424383506018" />
    <line x1="572.52639391226967" y1="131.82324888925277" x2="551.03650735716519" y2="155.53368490061146" />
    <line x1="572.303607231218" y1="153.69639276878192" x2="527.048773235279" y2="198.95122676472096" />
    <line x1="515.73506473629425" y1="210.26493526370572" x2="493.10764773832477" y2="232.89235226167526" />
    <line x1="481.79393923934" y1="244.20606076066002" x2="459.16652224137044" y2="266.83347775862956" />
    <line x1="436.53910524340097" y1="289.46089475659903" x2="425.22539674441617" y2="300.77460325558383" />
    <line x1="413.91168824543144" y1="312.08831175456856" x2="402.59797974644664" y2="323.40202025355336" />
    <line x1="391.2842712474619" y1="334.7157287525381" x2="379.97056274847716" y2="346.02943725152284" />
    <line x1="617.887187122106" y1="131.98371953262569" x2="606.03196911642658" y2="142.72866281017798" />
    <line x1="594.1767511107472" y1="153.47360608773028" x2="582.32153310506783" y2="164.21854936528257" />
    <line x1="628.91559595678154" y1="144.76871024770594" x2="604.179261449174" y2="165.0692953409426" />
    <line x1="591.81109419537017" y1="175.21958788756095" x2="554.7065924339588" y2="205.67046552741593" />
    <line x1="542.338425180155" y1="215.82075807403425" x2="529.97025792635122" y2="225.97105062065256" />
    <line x1="480.497588911136" y1="266.57222080712586" x2="468.12942165733222" y2="276.7225133537442" />
    <line x1="652.15471133303208" y1="148.54825038272395" x2="626.45207032565145" y2="167.61062812648183" />
    <line x1="635.72203283523481" y1="180.77296356957044" x2="569.20446385103128" y2="225.21858221113862" />
    <line x1="529.29392246050907" y1="251.88595339607954" x2="515.99040866366829" y2="260.77507712439319" />
    <line x1="476.07986727314614" y1="287.44244830933405" x2="462.77635347630542" y2="296.33157203764773" />
    <line x1="449.4728396794647" y1="305.22069576596135" x2="436.169325882624" y2="314.10981949427503" />
    <line x1="658.05864184009363" y1="186.14865599753176" x2="630.61132632008491" y2="202.59994381171484" />
    <line x1="616.88766856008056" y1="210.82558771880639" x2="603.1640108000762" y2="219.05123162589794" />
    <line x1="652.27017470626038" y1="208.38187032107271" x2="638.15943447668678" y2="215.92421811028868" />
    <line x1="609.93795401753937" y1="231.00891368872061" x2="595.82721378796577" y2="238.55126147793658" />
    <line x1="539.384252869671" y1="268.72065263480044" x2="482.94129195137629" y2="298.89004379166431" />
    <line x1="616.1170020745642" y1="243.284573839521" x2="601.65317338458908" y2="250.1254553344055" />
    <line x1="680.81455918388269" y1="231.3568992664091" x2="666.032486663702" y2="237.47983418425054" />
    <line x1="636.46834162334085" y1="249.7257040199334" x2="577.34005154261854" y2="274.21744369129914" />
    <line x1="532.99383398207669" y1="292.58624844482347" x2="503.4296889417156" y2="304.83211828050634" />
    <line x1="488.64761642153496" y1="310.9550531983478" x2="473.86554390135439" y2="317.0779881161892" />
    <line x1="429.51932634081265" y1="335.44679286971353" x2="399.9551813004515" y2="347.6926627053964" />
    <line x1="701.95586346588743" y1="241.71965277880076" x2="686.89115842295917" y2="247.10989043307632" />
    <line x1="641.69704329417414" y1="263.28060339590286" x2="626.63233825124576" y2="268.67084105017841" />
    <line x1="676.87643012016451" y1="267.78662586053633" x2="646.25433937673392" y2="277.07573553267912" />
    <line x1="600.32120326158781" y1="291.00940004089335" x2="569.69911251815711" y2="300.29850971303614" />
    <line x1="554.38806714644181" y1="304.94306454910753" x2="508.45493103129576" y2="318.87672905732171" />
    <line x1="665.64975099669778" y1="287.19018387018161" x2="634.60875089447234" y2="294.96554962708609" />
    <line x1="716.082700945163" y1="292.76748407419382" x2="700.39013645871125" y2="295.88892922645186" />
    <line x1="637.61987851290451" y1="308.37470983548405" x2="590.54218505354947" y2="317.7390452922582" />
    <line x1="574.84962056709776" y1="320.8604904445163" x2="480.69423364838764" y2="339.58916135806459" />
    <line x1="449.30910467548426" y1="345.83205166258068" x2="433.61654018903261" y2="348.95349681483879" />
    <line x1="639.96942279013865" y1="321.91546715249871" x2="624.1425986307022" y2="324.26315474378453" />
    <line x1="721.26650160199085" y1="327.71382948135812" x2="689.42059034848057" y2="330.85037797190409" />
    <line x1="593.88285658794962" y1="340.26002344354191" x2="577.95990096119453" y2="341.82829768881487" />
    <line x1="562.03694533443934" y1="343.39657193408783" x2="514.268078454174" y2="348.10139466990677" />
    <line x1="706.58563693457927" y1="346.12072003136814" x2="642.66272773744822" y2="349.26105118832294" />
    <line x1="723" y1="363" x2="707" y2="363" />
    <line x1="659" y1="363" x2="643" y2="363" />
    <line x1="611" y1="363" x2="595" y2="363" />
    <line x1="579" y1="363" x2="563" y2="363" />
    <line x1="547" y1="363" x2="531" y2="363" />
    <line x1="515" y1="363" x2="483" y2="363" />
    <line x1="467" y1="363" x2="451" y2="363" />
    <line x1="435" y1="363" x2="419" y2="363" />
    <line x1="706.58563693457927" y1="379.87927996863181" x2="690.60490963529651" y2="379.09419717939312" />
    <line x1="674.62418233601375" y1="378.30911439015443" x2="658.643455036731" y2="377.52403160091575" />
    <line x1="642.66272773744822" y1="376.73894881167706" x2="626.68200043816546" y2="375.95386602243838" />
    <line x1="689.42059034848057" y1="395.14962202809591" x2="641.6517234682151" y2="390.44479929227697" />
    <line x1="625.72876784146" y1="388.876525047004" x2="609.80581221470482" y2="387.30825080173105" />
    <line x1="593.88285658794962" y1="385.73997655645809" x2="498.34512282741878" y2="376.33033108482027" />
    <line x1="703.2767194278847" y1="413.4752832126444" x2="687.44989526844824" y2="411.12759562135864" />
    <line x1="671.62307110901168" y1="408.77990803007282" x2="655.79624694957511" y2="406.43222043878706" />
    <line x1="639.96942279013865" y1="404.08453284750124" x2="624.1425986307022" y2="401.73684525621547" />
    <line x1="669.00500748580794" y1="423.868180469032" x2="637.61987851290451" y2="417.62529016451589" />
    <line x1="559.157056080646" y1="402.01806440322565" x2="512.079362621291" y2="392.65372894645151" />
    <line x1="480.69423364838764" y1="386.41083864193536" x2="449.30910467548426" y2="380.16794833741926" />
    <line x1="696.6907510989231" y1="446.58518188672275" x2="681.17025104781044" y2="442.69749900827054" />
    <line x1="650.129250945585" y1="434.92213325136612" x2="634.60875089447234" y2="431.03445037291385" />
    <line x1="676.87643012016451" y1="458.21337413946361" x2="646.25433937673392" y2="448.92426446732077" />
    <line x1="615.63224863330311" y1="439.635154795178" x2="600.32120326158781" y2="434.99059995910659" />
    <line x1="554.38806714644181" y1="421.05693545089241" x2="523.76597640301111" y2="411.76782577874962" />
    <line x1="508.45493103129576" y1="407.12327094267823" x2="493.14388565958041" y2="402.47871610660684" />
    <line x1="686.89115842295917" y1="478.89010956692368" x2="671.8264533800309" y2="473.49987191264813" />
    <line x1="656.76174833710252" y1="468.10963425837264" x2="611.56763320831749" y2="451.93892129554604" />
    <line x1="680.81455918388269" y1="494.64310073359087" x2="651.25041414352154" y2="482.397230897908" />
    <line x1="636.46834162334085" y1="476.27429598006654" x2="606.90419658297969" y2="464.02842614438367" />
    <line x1="503.4296889417156" y1="421.16788171949361" x2="488.64761642153496" y2="415.0449468016522" />
    <line x1="473.86554390135439" y1="408.9220118838108" x2="459.08347138117381" y2="402.79907696596933" />
    <line x1="688.43614552443967" y1="516.91983363490147" x2="630.58083076453931" y2="489.55630765536341" />
    <line x1="652.27017470626038" y1="517.61812967892729" x2="609.93795401753937" y2="494.99108631127933" />
    <line x1="595.82721378796577" y1="487.44873852206342" x2="553.49499309924465" y2="464.82169515441552" />
    <line x1="511.16277241052364" y1="442.19465178676762" x2="497.05203218094994" y2="434.65230399755166" />
    <line x1="671.782299600098" y1="548.07698790955976" x2="658.05864184009363" y2="539.8513440024683" />
    <line x1="644.33498408008927" y1="531.62570009537671" x2="589.44035304007184" y2="498.72312446701051" />
    <line x1="662.32906042891636" y1="563.00528388705675" x2="649.0255466320757" y2="554.116160158743" />
    <line x1="635.72203283523493" y1="545.22703643042951" x2="622.41851903839415" y2="536.33791270211577" />
    <line x1="609.11500524155349" y1="527.44878897380215" x2="595.81149144471271" y2="518.55966524548853" />
    <line x1="582.50797764787194" y1="509.67054151717491" x2="515.9904086636684" y2="465.22492287560675" />
    <line x1="489.38338106998691" y1="447.44667541897951" x2="449.47283967946476" y2="420.77930423403859" />
    <line x1="436.169325882624" y1="411.89018050572497" x2="422.86581208578326" y2="403.00105677741135" />
    <line x1="639.30339082934188" y1="567.9205607453971" x2="613.60074982196124" y2="548.85818300163919" />
    <line x1="600.74942931827093" y1="539.32699412976024" x2="575.04678831089029" y2="520.26461638600244" />
    <line x1="628.91559595678154" y1="581.23128975229406" x2="616.54742870297775" y2="571.08099720567566" />
    <line x1="604.179261449174" y1="560.93070465905737" x2="567.07475968776259" y2="530.47982701920239" />
    <line x1="554.7065924339588" y1="520.3295344725841" x2="542.338425180155" y2="510.1792419259657" />
    <line x1="505.23392341874364" y1="479.72836428611072" x2="468.12942165733227" y2="449.27748664625574" />
    <line x1="629.74240512778522" y1="604.76122374492661" x2="617.88718712210584" y2="594.01628046737437" />
    <line x1="606.03196911642658" y1="583.271337189822" x2="594.1767511107472" y2="572.52639391226978" />
    <line x1="606.24473272817238" y1="606.24473272817227" x2="594.93102422918764" y2="594.93102422918753" />
    <line x1="583.61731573020279" y1="583.61731573020279" x2="572.303607231218" y2="572.303607231218" />
    <line x1="549.67619023324858" y1="549.67619023324846" x2="527.048773235279" y2="527.048773235279" />
    <line x1="504.42135623730951" y1="504.42135623730951" x2="493.10764773832477" y2="493.10764773832477" />
    <line x1="447.85281374238571" y1="447.85281374238571" x2="425.22539674441617" y2="425.22539674441617" />
    <line x1="413.91168824543144" y1="413.91168824543144" x2="391.2842712474619" y2="391.2842712474619" />
    <line x1="583.27133718982213" y1="606.03196911642658" x2="561.78145063471743" y2="582.32153310506783" />
    <line x1="551.03650735716519" y1="570.46631509938845" x2="540.291564079613" y2="558.61109709370908" />
    <line x1="571.08099720567566" y1="616.54742870297775" x2="560.93070465905737" y2="604.179261449174" />
    <line x1="550.78041211243908" y1="591.81109419537017" x2="540.63011956582068" y2="579.44292694156638" />
    <line x1="530.47982701920239" y1="567.07475968776259" x2="479.72836428611078" y2="505.23392341874364" />
    <line x1="469.57807173949243" y1="492.86575616493985" x2="459.42777919287414" y2="480.497588911136" />
    <line x1="567.9205607453971" y1="639.30339082934188" x2="558.38937187351814" y2="626.45207032565145" />
    <line x1="548.85818300163919" y1="613.60074982196124" x2="529.7958052578814" y2="587.89810881458061" />
    <line x1="563.00528388705675" y1="662.32906042891636" x2="545.22703643042951" y2="635.72203283523481" />
    <line x1="536.33791270211589" y1="622.41851903839415" x2="527.44878897380227" y2="609.11500524155349" />
    <line x1="491.89229406054767" y1="555.9009500541905" x2="483.00317033223405" y2="542.59743625734973" />
    <line x1="474.11404660392043" y1="529.29392246050907" x2="456.33579914729319" y2="502.68689486682763" />
    <line x1="438.55755169066589" y1="476.07986727314619" x2="420.77930423403865" y2="449.4728396794647" />
    <line x1="523.40005618828513" y1="630.6113263200848" x2="515.17441228119367" y2="616.88766856008056" />
    <line x1="506.94876837410209" y1="603.1640108000762" x2="498.72312446701051" y2="589.44035304007184" />
    <line x1="532.70282525735922" y1="680.49165516540779" x2="517.61812967892729" y2="652.27017470626038" />
    <line x1="479.90639073284746" y1="581.716473558392" x2="457.27934736519956" y2="539.384252869671" />
    <line x1="442.19465178676762" y1="511.16277241052364" x2="434.65230399755166" y2="497.05203218094994" />
    <line x1="496.397189150248" y1="645.04465945451432" x2="489.55630765536347" y2="630.5808307645392" />
    <line x1="482.71542616047896" y1="616.1170020745642" x2="475.87454466559444" y2="601.65317338458908" />
    <line x1="494.64310073359093" y1="680.81455918388269" x2="488.52016581574946" y2="666.032486663702" />
    <line x1="482.39723089790806" y1="651.25041414352154" x2="476.2742959800666" y2="636.46834162334085" />
    <line x1="470.15136106222519" y1="621.68626910316027" x2="464.02842614438373" y2="606.90419658297969" />
    <line x1="433.41375155517653" y1="532.99383398207669" x2="421.16788171949366" y2="503.4296889417156" />
    <line x1="415.0449468016522" y1="488.64761642153496" x2="408.9220118838108" y2="473.86554390135439" />
    <line x1="402.79907696596933" y1="459.08347138117381" x2="396.67614204812793" y2="444.30139886099323" />
    <line x1="484.28034722119935" y1="701.95586346588743" x2="473.49987191264825" y2="671.82645338003078" />
    <line x1="458.21337413946367" y1="676.87643012016451" x2="453.56881930339227" y2="661.56538474844911" />
    <line x1="439.6351547951781" y1="615.63224863330311" x2="430.34604512303525" y2="585.01015788987252" />
    <line x1="421.05693545089247" y1="554.3880671464417" x2="416.41238061482107" y2="539.0770217747264" />
    <line x1="450.47286476517507" y1="712.21125115003588" x2="434.92213325136618" y2="650.129250945585" />
    <line x1="433.2325159258063" y1="716.082700945163" x2="430.11107077354825" y2="700.39013645871125" />
    <line x1="420.74673531677405" y1="653.31244299935622" x2="414.50384501225795" y2="621.9273140264529" />
    <line x1="411.38239985999991" y1="606.23474954000108" x2="405.13950955548376" y2="574.84962056709776" />
    <line x1="398.89661925096766" y1="543.46449159419444" x2="395.77517409870961" y2="527.77192710774273" />
    <line x1="386.41083864193541" y1="480.69423364838764" x2="383.28939348967737" y2="465.001669161936" />
    <line x1="413.47528321264446" y1="703.2767194278847" x2="406.43222043878711" y2="655.79624694957511" />
    <line x1="398.28617051864188" y1="721.26650160199085" x2="396.71789627336892" y2="705.34354597523566" />
    <line x1="388.87652504700407" y1="625.72876784146" x2="385.73997655645809" y2="593.88285658794962" />
    <line x1="377.89860533009323" y1="514.268078454174" x2="376.33033108482027" y2="498.34512282741878" />
    <line x1="379.87927996863181" y1="706.58563693457927" x2="379.09419717939306" y2="690.60490963529651" />
    <line x1="377.52403160091569" y1="658.643455036731" x2="375.95386602243832" y2="626.68200043816546" />
    <line x1="363.00000000000006" y1="707" x2="363.00000000000006" y2="675" />
    <line x1="363.00000000000006" y1="643" x2="363.00000000000006" y2="611" />
    <line x1="363" y1="563" x2="363" y2="515" />
    <line x1="363" y1="499" x2="363" y2="483" />
    <line x1="363" y1="419" x2="363" y2="387" />
    <line x1="346.905802820607" y1="690.60490963529651" x2="350.04613397756174" y2="626.68200043816546" />
    <line x1="330.85037797190409" y1="689.42059034848057" x2="332.41865221717711" y2="673.49763472172549" />
    <line x1="337.123474952996" y1="625.72876784146" x2="341.82829768881493" y2="577.95990096119453" />
    <line x1="343.39657193408789" y1="562.03694533443945" x2="346.53312042463381" y2="530.19103408092906" />
    <line x1="348.10139466990677" y1="514.268078454174" x2="349.66966891517978" y2="498.34512282741878" />
    <line x1="310.17702919606984" y1="719.10354358732116" x2="312.5247167873556" y2="703.2767194278847" />
    <line x1="319.567779561213" y1="655.79624694957511" x2="324.26315474378453" y2="624.1425986307022" />
    <line x1="292.76748407419382" y1="716.082700945163" x2="295.88892922645186" y2="700.39013645871125" />
    <line x1="302.13181953096796" y1="669.00500748580794" x2="308.37470983548405" y2="637.61987851290451" />
    <line x1="330.22482590129044" y1="527.77192710774273" x2="336.46771620580654" y2="496.38679813483935" />
    <line x1="345.83205166258068" y1="449.30910467548426" x2="348.95349681483879" y2="433.61654018903261" />
    <line x1="279.41481811327725" y1="696.6907510989231" x2="283.30250099172946" y2="681.17025104781044" />
    <line x1="258.49751618839366" y1="707.49852086359522" x2="267.78662586053645" y2="676.87643012016451" />
    <line x1="281.72029036875063" y1="630.94329400501852" x2="300.2985097130362" y2="569.69911251815711" />
    <line x1="309.587619385179" y1="539.0770217747264" x2="318.87672905732177" y2="508.45493103129576" />
    <line x1="252.50012808735181" y1="671.8264533800309" x2="263.28060339590286" y2="641.69704329417414" />
    <line x1="268.67084105017835" y1="626.63233825124576" x2="274.06107870445391" y2="611.56763320831749" />
    <line x1="231.35689926640916" y1="680.81455918388269" x2="243.60276910209203" y2="651.25041414352154" />
    <line x1="249.72570401993346" y1="636.46834162334085" x2="255.84863893777489" y2="621.68626910316038" />
    <line x1="261.97157385561633" y1="606.90419658297969" x2="268.09450877345773" y2="592.12212406279912" />
    <line x1="286.46331352698206" y1="547.77590650225738" x2="292.58624844482347" y2="532.99383398207681" />
    <line x1="298.70918336266493" y1="518.21176146189623" x2="310.9550531983478" y2="488.647616421535" />
    <line x1="317.07798811618926" y1="473.86554390135444" x2="323.20092303403067" y2="459.08347138117381" />
    <line x1="236.44369234463659" y1="630.58083076453931" x2="250.12545533440562" y2="601.65317338458908" />
    <line x1="193.29717474264086" y1="680.49165516540779" x2="208.38187032107277" y2="652.27017470626038" />
    <line x1="215.92421811028873" y1="638.15943447668678" x2="223.4665658995047" y2="624.04869424711308" />
    <line x1="246.0936092671526" y1="581.71647355839207" x2="253.63595705636857" y2="567.60573332881836" />
    <line x1="268.72065263480044" y1="539.384252869671" x2="276.26300042401647" y2="525.27351264009735" />
    <line x1="283.80534821323238" y1="511.16277241052364" x2="298.89004379166431" y2="482.94129195137629" />
    <line x1="194.37429990462334" y1="644.33498408008927" x2="202.59994381171487" y2="630.61132632008491" />
    <line x1="180.77296356957055" y1="635.72203283523493" x2="189.6620872978842" y2="622.41851903839415" />
    <line x1="198.55121102619782" y1="609.11500524155349" x2="225.21858221113871" y2="569.20446385103128" />
    <line x1="234.10770593945236" y1="555.90095005419062" x2="251.88595339607963" y2="529.29392246050907" />
    <line x1="269.66420085270687" y1="502.68689486682763" x2="296.33157203764779" y2="462.77635347630547" />
    <line x1="148.54825038272404" y1="652.1547113330322" x2="167.61062812648189" y2="626.45207032565156" />
    <line x1="186.67300587023976" y1="600.74942931827093" x2="205.73538361399761" y2="575.04678831089029" />
    <line x1="246.27163571388928" y1="505.23392341874364" x2="266.57222080712592" y2="480.49758891113606" />
    <line x1="142.72866281017795" y1="606.03196911642658" x2="153.47360608773025" y2="594.1767511107472" />
    <line x1="164.21854936528254" y1="582.32153310506783" x2="185.70843592038713" y2="558.61109709370919" />
    <line x1="119.75526727182768" y1="606.24473272817238" x2="131.06897577081244" y2="594.93102422918764" />
    <line x1="142.38268426979718" y1="583.6173157302029" x2="153.69639276878195" y2="572.30360723121817" />
    <line x1="176.32380976675148" y1="549.67619023324858" x2="198.95122676472099" y2="527.0487732352791" />
    <line x1="255.51976925964479" y1="470.48023074035524" x2="300.77460325558383" y2="425.22539674441617" />
    <line x1="131.82324888925282" y1="572.52639391226978" x2="143.67846689493217" y2="561.78145063471754" />
    <line x1="97.084404043218569" y1="581.23128975229417" x2="121.82073855082615" y2="560.93070465905748" />
    <line x1="134.18890580462994" y1="550.78041211243919" x2="146.55707305843373" y2="540.63011956582091" />
    <line x1="171.29340756604131" y1="520.32953447258421" x2="183.6615748198451" y2="510.17924192596587" />
    <line x1="208.39790932745268" y1="489.87865683272918" x2="220.76607658125644" y2="479.72836428611083" />
    <line x1="233.13424383506023" y1="469.57807173949254" x2="245.50241108886402" y2="459.4277791928742" />
    <line x1="73.8452886669678" y1="577.45174961727594" x2="86.696609170658121" y2="567.920560745397" />
    <line x1="99.547929674348438" y1="558.389371873518" x2="125.25057068172907" y2="539.32699412976024" />
    <line x1="138.10189118541939" y1="529.79580525788128" x2="150.95321168910971" y2="520.26461638600233" />
    <line x1="76.974453367924411" y1="554.11616015874313" x2="103.58148096160591" y2="536.33791270211589" />
    <line x1="116.88499475844662" y1="527.44878897380227" x2="143.49202235212806" y2="509.67054151717497" />
    <line x1="170.0990499458095" y1="491.89229406054767" x2="196.70607753949096" y2="474.11404660392043" />
    <line x1="210.00959133633168" y1="465.22492287560681" x2="223.3131051331724" y2="456.33579914729319" />
    <line x1="236.61661893001312" y1="447.44667541897957" x2="289.830674117376" y2="411.89018050572497" />
    <line x1="95.388673679915144" y1="523.40005618828513" x2="122.83598919992383" y2="506.94876837410209" />
    <line x1="101.95130575288692" y1="502.53343410049536" x2="116.06204598246063" y2="494.99108631127939" />
    <line x1="144.283526441608" y1="479.90639073284746" x2="158.39426667118164" y2="472.36404294363149" />
    <line x1="172.50500690075535" y1="464.82169515441552" x2="200.72648735990271" y2="449.73699957598359" />
    <line x1="214.83722758947636" y1="442.19465178676762" x2="228.94796781905006" y2="434.65230399755166" />
    <line x1="52.027683165535564" y1="510.07895214001718" x2="66.49151185551068" y2="503.23807064513267" />
    <line x1="95.419169235460856" y1="489.55630765536364" x2="124.346826615411" y2="475.87454466559456" />
    <line x1="30.403368295936843" y1="500.7660356514325" x2="45.185440816117421" y2="494.64310073359104" />
    <line x1="59.967513336298" y1="488.52016581574964" x2="104.31373089683979" y2="470.15136106222531" />
    <line x1="119.09580341702036" y1="464.02842614438384" x2="133.87787593720094" y2="457.90549122654238" />
    <line x1="148.65994845738152" y1="451.782556308701" x2="163.44202097756212" y2="445.65962139085951" />
    <line x1="281.69860113900677" y1="396.67614204812793" x2="296.48067365918735" y2="390.55320713028652" />
    <line x1="39.108841577040835" y1="478.89010956692368" x2="69.238251662897483" y2="468.10963425837264" />
    <line x1="84.302956705825864" y1="462.71939660409708" x2="114.43236679168251" y2="451.93892129554604" />
    <line x1="18.501479136404839" y1="467.50248381160645" x2="49.123569879835486" y2="458.21337413946367" />
    <line x1="64.434615251550838" y1="453.56881930339227" x2="110.36775136669687" y2="439.6351547951781" />
    <line x1="140.98984211012754" y1="430.34604512303531" x2="156.30088748184289" y2="425.70149028696392" />
    <line x1="186.92297822527357" y1="416.41238061482107" x2="202.23402359698892" y2="411.76782577874968" />
    <line x1="13.788748849964179" y1="450.47286476517507" x2="91.391249105527663" y2="431.03445037291397" />
    <line x1="25.609863541288746" y1="430.11107077354825" x2="56.99499251419212" y2="423.86818046903215" />
    <line x1="135.45781494645055" y1="408.26095470774186" x2="182.53550840580562" y2="398.89661925096766" />
    <line x1="198.2280728922573" y1="395.77517409870961" x2="229.61320186516068" y2="389.53228379419352" />
    <line x1="54.376928890988381" y1="408.77990803007305" x2="101.85740136929786" y2="401.73684525621564" />
    <line x1="68.425320905029707" y1="392.01307353754987" x2="84.348276531784848" y2="390.44479929227691" />
    <line x1="100.27123215853999" y1="388.87652504700395" x2="116.19418778529516" y2="387.308250801731" />
    <line x1="132.11714341205033" y1="385.73997655645803" x2="211.73192154582605" y2="377.89860533009318" />
    <line x1="3.4336357661379111" y1="380.66436275787049" x2="67.356544963268959" y2="377.52403160091575" />
    <line x1="83.337272262551721" y1="376.73894881167706" x2="99.317999561834483" y2="375.95386602243838" />
    <line x1="19" y1="363.00000000000006" x2="51" y2="363.00000000000006" />
    <line x1="83" y1="363.00000000000006" x2="99" y2="363.00000000000006" />
    <line x1="163" y1="363.00000000000006" x2="227" y2="363" />
    <line x1="243" y1="363" x2="259" y2="363" />
    <line x1="275" y1="363" x2="307" y2="363" />
    <line x1="19.414363065420673" y1="346.12072003136831" x2="35.395090364703435" y2="346.905802820607" />
    <line x1="67.356544963268959" y1="348.47596839908437" x2="83.337272262551721" y2="349.26105118832305" />
    <line x1="52.502365278274567" y1="332.41865221717723" x2="100.27123215853999" y2="337.12347495299616" />
    <line x1="116.19418778529516" y1="338.69174919826912" x2="179.88601029231577" y2="344.96484617936096" />
    <line x1="195.80896591907091" y1="346.53312042463392" x2="211.73192154582605" y2="348.10139466990688" />
    <line x1="22.723280572115357" y1="312.52471678735549" x2="54.376928890988381" y2="317.22009196992707" />
    <line x1="86.030577209861349" y1="321.91546715249865" x2="101.85740136929786" y2="324.26315474378447" />
    <line x1="25.609863541288746" y1="295.88892922645186" x2="41.302428027740405" y2="299.01037437870991" />
    <line x1="72.687557000643778" y1="305.253264683226" x2="88.3801214870955" y2="308.37470983548405" />
    <line x1="104.07268597354715" y1="311.4961549877421" x2="119.76525045999887" y2="314.61760014000015" />
    <line x1="151.15037943290224" y1="320.8604904445163" x2="198.22807289225727" y2="330.22482590129044" />
    <line x1="213.920637378709" y1="333.34627105354849" x2="245.30576635161236" y2="339.58916135806459" />
    <line x1="260.998330838064" y1="342.71060651032263" x2="276.69089532451574" y2="345.83205166258074" />
    <line x1="13.788748849964179" y1="275.52713523482504" x2="60.350249003302281" y2="287.19018387018173" />
    <line x1="33.812524508120134" y1="263.14207102446505" x2="49.123569879835486" y2="267.78662586053645" />
    <line x1="64.434615251550838" y1="272.43118069660784" x2="79.745660623266133" y2="277.07573553267923" />
    <line x1="54.173546619969159" y1="252.50012808735198" x2="69.238251662897483" y2="257.89036574162748" />
    <line x1="84.3029567058258" y1="263.280603395903" x2="114.43236679168248" y2="274.061078704454" />
    <line x1="59.967513336298" y1="237.47983418425048" x2="89.531658376659152" y2="249.72570401993335" />
    <line x1="104.31373089683973" y1="255.84863893777481" x2="163.4420209775621" y2="280.34037860914054" />
    <line x1="178.22409349774267" y1="286.463313526982" x2="222.57031105828443" y2="304.83211828050634" />
    <line x1="266.91652861882619" y1="323.20092303403067" x2="281.69860113900677" y2="329.32385795187207" />
    <line x1="296.48067365918735" y1="335.44679286971353" x2="311.26274617936792" y2="341.56972778755494" />
    <line x1="52.027683165535507" y1="215.92104785998293" x2="80.955340545485683" y2="229.60281084975196" />
    <line x1="95.4191692354608" y1="236.44369234463647" x2="109.88299792543586" y2="243.284573839521" />
    <line x1="59.619085064165859" y1="200.83952253185683" x2="87.840565523313217" y2="215.92421811028876" />
    <line x1="101.95130575288692" y1="223.4665658995047" x2="130.17278621203425" y2="238.55126147793663" />
    <line x1="158.39426667118164" y1="253.63595705636857" x2="172.50500690075532" y2="261.17830484558453" />
    <line x1="214.83722758947636" y1="283.80534821323238" x2="243.05870804862371" y2="298.89004379166431" />
    <line x1="67.941358159906372" y1="186.14865599753179" x2="95.388673679915087" y2="202.59994381171487" />
    <line x1="109.11233143991942" y1="210.82558771880642" x2="136.55964695992813" y2="227.27687553298952" />
    <line x1="76.974453367924355" y1="171.88383984125696" x2="90.277967164765073" y2="180.77296356957061" />
    <line x1="116.88499475844654" y1="198.55121102619785" x2="156.79553614896872" y2="225.21858221113874" />
    <line x1="196.70607753949091" y1="251.88595339607963" x2="223.31310513317237" y2="269.66420085270687" />
    <line x1="236.61661893001309" y1="278.55332458102055" x2="249.92013272685381" y2="287.44244830933417" />
    <line x1="289.830674117376" y1="314.10981949427503" x2="303.13418791421674" y2="322.99894322258865" />
    <line x1="73.84528866696769" y1="148.54825038272415" x2="86.696609170658007" y2="158.07943925460307" />
    <line x1="99.547929674348325" y1="167.610628126482" x2="125.25057068172899" y2="186.67300587023985" />
    <line x1="138.10189118541933" y1="196.20419474211877" x2="150.95321168910965" y2="205.7353836139977" />
    <line x1="97.084404043218512" y1="144.76871024770591" x2="109.4525712970223" y2="154.91900279432426" />
    <line x1="134.18890580462988" y1="175.21958788756089" x2="146.55707305843367" y2="185.36988043417924" />
    <line x1="171.29340756604125" y1="205.6704655274159" x2="183.66157481984504" y2="215.82075807403422" />
    <line x1="119.96803088357342" y1="142.72866281017798" x2="143.67846689493211" y2="164.21854936528257" />
    <line x1="155.53368490061146" y1="174.96349264283487" x2="167.38890290629081" y2="185.70843592038716" />
    <line x1="119.75526727182759" y1="119.75526727182771" x2="142.38268426979712" y2="142.38268426979724" />
    <line x1="187.63751826573616" y1="187.63751826573625" x2="198.95122676472093" y2="198.951226764721" />
    <line x1="210.2649352637057" y1="210.26493526370578" x2="221.57864376269046" y2="221.57864376269052" />
    <line x1="232.89235226167523" y1="232.89235226167529" x2="255.51976925964476" y2="255.51976925964482" />
    <line x1="266.8334777586295" y1="266.83347775862956" x2="289.46089475659903" y2="289.46089475659909" />
    <line x1="323.40202025355336" y1="323.40202025355336" x2="334.7157287525381" y2="334.7157287525381" />
    <line x1="121.23877625507328" y1="96.257594872214781" x2="131.98371953262557" y2="108.11281287789416" />
    <line x1="142.72866281017787" y1="119.96803088357348" x2="164.21854936528249" y2="143.67846689493217" />
    <line x1="144.7687102477058" y1="97.084404043218569" x2="175.21958788756081" y2="134.18890580462994" />
    <line x1="185.36988043417915" y1="146.55707305843373" x2="195.52017298079747" y2="158.92524031223752" />
    <line x1="205.67046552741581" y1="171.29340756604131" x2="215.82075807403413" y2="183.6615748198451" />
    <line x1="236.12134316727082" y1="208.39790932745268" x2="276.72251335374415" y2="257.87057834266784" />
    <line x1="148.54825038272404" y1="73.8452886669678" x2="158.07943925460296" y2="86.696609170658121" />
    <line x1="167.61062812648189" y1="99.547929674348438" x2="177.14181699836084" y2="112.39925017803876" />
    <line x1="186.67300587023976" y1="125.25057068172907" x2="196.20419474211869" y2="138.10189118541939" />
    <line x1="171.88383984125684" y1="76.974453367924411" x2="180.77296356957049" y2="90.277967164765187" />
    <line x1="207.44033475451138" y1="130.18850855528734" x2="234.1077059394523" y2="170.0990499458095" />
    <line x1="260.77507712439319" y1="210.00959133633168" x2="278.55332458102043" y2="236.61661893001312" />
    <line x1="186.14865599753168" y1="67.941358159906429" x2="194.37429990462323" y2="81.665015919910786" />
    <line x1="219.05123162589788" y1="122.83598919992383" x2="227.27687553298944" y2="136.55964695992819" />
    <line x1="200.83952253185672" y1="59.619085064165915" x2="223.46656589950462" y2="101.95130575288698" />
    <line x1="238.55126147793655" y1="130.17278621203434" x2="246.09360926715252" y2="144.283526441608" />
    <line x1="268.72065263480044" y1="186.61574713032903" x2="276.26300042401635" y2="200.72648735990271" />
    <line x1="236.44369234463636" y1="95.419169235460856" x2="250.12545533440542" y2="124.346826615411" />
    <line x1="231.3568992664089" y1="45.185440816117421" x2="237.47983418425037" y2="59.967513336298" />
    <line x1="243.6027691020918" y1="74.749585856478632" x2="249.72570401993323" y2="89.531658376659209" />
    <line x1="255.8486389377747" y1="104.31373089683979" x2="261.97157385561616" y2="119.09580341702036" />
    <line x1="286.46331352698189" y1="178.2240934977427" x2="292.58624844482335" y2="193.00616601792328" />
    <line x1="298.70918336266482" y1="207.78823853810386" x2="304.83211828050628" y2="222.57031105828446" />
    <line x1="317.07798811618915" y1="252.13445609864561" x2="329.323857951872" y2="281.69860113900677" />
    <line x1="335.44679286971348" y1="296.48067365918735" x2="341.56972778755494" y2="311.26274617936792" />
    <line x1="247.10989043307632" y1="39.108841577040835" x2="252.50012808735184" y2="54.173546619969159" />
    <line x1="257.89036574162736" y1="69.238251662897483" x2="263.28060339590286" y2="84.302956705825864" />
    <line x1="267.78662586053633" y1="49.123569879835486" x2="272.43118069660773" y2="64.434615251550838" />
    <line x1="277.07573553267912" y1="79.74566062326619" x2="286.3648452048219" y2="110.36775136669687" />
    <line x1="291.0094000408933" y1="125.67879673841222" x2="295.65395487696469" y2="140.98984211012754" />
    <line x1="309.58761938517887" y1="186.92297822527357" x2="314.23217422125032" y2="202.23402359698892" />
    <line x1="318.87672905732171" y1="217.54506896870427" x2="323.5212838933931" y2="232.8561143404196" />
    <line x1="287.19018387018156" y1="60.350249003302281" x2="291.07786674863382" y2="75.870749054415" />
    <line x1="295.88892922645175" y1="25.609863541288746" x2="305.25326468322589" y2="72.687557000643835" />
    <line x1="311.496154987742" y1="104.07268597354721" x2="314.61760014000009" y2="119.76525045999887" />
    <line x1="317.73904529225814" y1="135.45781494645055" x2="320.86049044451619" y2="151.15037943290224" />
    <line x1="323.98193559677424" y1="166.84294391935393" x2="333.34627105354843" y2="213.920637378709" />
    <line x1="336.46771620580648" y1="229.61320186516068" x2="339.58916135806453" y2="245.30576635161236" />
    <line x1="342.71060651032263" y1="260.998330838064" x2="348.95349681483873" y2="292.38345981096745" />
    <line x1="310.17702919606955" y1="6.8964564126789014" x2="317.22009196992695" y2="54.376928890988381" />
    <line x1="330.85037797190415" y1="36.579409651519427" x2="333.98692646245007" y2="68.425320905029707" />
    <line x1="335.55520070772309" y1="84.348276531784848" x2="338.691749198269" y2="116.19418778529516" />
    <line x1="340.26002344354197" y1="132.11714341205033" x2="341.82829768881493" y2="148.04009903880547" />
    <line x1="343.39657193408789" y1="163.96305466556061" x2="346.53312042463381" y2="195.80896591907091" />
    <line x1="348.10139466990682" y1="211.73192154582605" x2="349.66966891517978" y2="227.65487717258122" />
    <line x1="346.12072003136819" y1="19.414363065420673" x2="346.90580282060688" y2="35.395090364703435" />
    <line x1="348.47596839908425" y1="67.356544963268959" x2="349.26105118832294" y2="83.337272262551721" />
  </g>
  <path fill="none" stroke="#ff0000" stroke-width="2" stroke-linecap="square" stroke-linejoin="round" d="M 371.83484226824839,3.108425269366478 L 371.63851244006514,11.1060158189361 A 352,352 0 0,0 337.10527361291707,11.95375924910104 L 338.28230663051175,27.910406555960094 A 336,336 0 0,0 321.87001313306342,29.526876374833421 L 327.74572554262579,77.165894035571512 A 288,288 0 0,0 286.18672584722924,85.432493050913308 L 290.45412996682757,100.8529101036404 A 272,272 0 0,1 329.70429634581325,93.0455665891509 L 331.6628671490007,108.92523914273025 A 256,256 0 0,0 325.43699853942724,109.77081344901609 L 327.78468613071306,125.5976376084526 A 240,240 0 0,0 304.68475682321662,130.19249923330946 L 308.57243970166883,145.71299928442215 A 224,224 0 0,0 197.02694792048916,212.5707941142679 L 208.88216592616851,223.31573739182019 A 208,208 0 0,0 161.23349933553484,312.46012258012115 L 176.75399938664754,316.34780545857336 A 192,192 0 0,1 182.22353948485997,298.31714814869383 L 212.35294957071665,309.09762345724488 A 160,160 0 0,0 204.73175840563505,339.52312408714209 L 188.90493424619857,337.17543649585627 A 176,176 0 0,0 187.21199970788965,354.36408931837451 L 219.17345430645517,355.93425489685188 A 144,144 0 0,1 220.55858256507153,341.87081167842786 L 236.38540672450804,344.21849926971367 A 128,128 0 0,0 250.11407816341057,423.33878231372773 L 264.22481839298428,415.79643452451177 A 112,112 0 0,1 251.53931061271396,373.97791971691078 L 267.4622662394691,372.40964547163782 A 96,96 0 0,1 267.4622662394691,353.59035452836224 L 283.38522186622424,355.1586287736352 A 80,80 0 0,1 292.44629885213158,325.28826105392022 L 306.55703908170528,332.83060884313613 A 64,64 0 0,1 327.44350508674546,309.78594481263713 L 336.33262881505908,323.08945860947784 A 48,48 0 0,1 353.6356645432258,315.92230654064497 L 356.7571096954839,331.61487102709663 A 32,32 0 0,0 350.75413016431713,392.56414504036115 L 353.81559762323786,385.17310878027087" />
  <type>Circular</type>
</svg>