<?xml version="1.0" encoding="utf-8" standalone="no"?>
<!DOCTYPE svg PUBLIC "-//W3C//DTD SVG 1.1//EN" "http://www.w3.org/Graphics/SVG/1.1/DTD/svg11.dtd"[]>
<svg width="242" height="307.1088913245535" version="1.1" xmlns="http://www.w3.org/2000/svg">
  <title>11 by 12 sigma maze</title>
  <g fill="none" stroke="#000000" stroke-width="2" stroke-linecap="round" stroke-linejoin="round">
    <polyline points="9,38.3730669589464 2,26.248711305964264 9,14.124355652982123 23,14.124355652982123 30,1.9999999999999822 44,1.9999999999999822 51,14.124355652982123 44,26.248711305964264" />
    <polyline points="51,14.124355652982123 65,14.124355652982123 72,1.9999999999999822 86,1.9999999999999822 93,14.124355652982123 86,26.248711305964264" />
    <polyline points="93,14.124355652982123 107,14.124355652982123 114,1.9999999999999822" />
    <polyline points="128,1.9999999999999822 135,14.124355652982123 128,26.248711305964264" />
    <polyline points="135,14.124355652982123 149,14.124355652982123 156,1.9999999999999822 170,1.9999999999999822 177,14.124355652982123 191,14.124355652982123 198,1.9999999999999822 212,1.9999999999999822 219,14.124355652982123 233,14.124355652982123 240,26.248711305964264 233,38.3730669589464" />
    <polyline points="9,62.621778264910681 2,50.497422611928542 9,38.3730669589464" />
    <polyline points="23,38.3730669589464 30,26.248711305964264 44,26.248711305964264" />
    <line x1="44" y1="50.497422611928542" x2="51" y2="38.3730669589464" />
    <polyline points="72,50.497422611928542 65,38.3730669589464 72,26.248711305964264" />
    <polyline points="86,50.497422611928542 93,38.3730669589464 107,38.3730669589464" />
    <polyline points="114,26.248711305964264 128,26.248711305964264 135,38.3730669589464 128,50.497422611928542" />
    <polyline points="156,50.497422611928542 149,38.3730669589464 156,26.248711305964264 170,26.248711305964264 177,38.3730669589464 170,50.497422611928542" />
    <polyline points="198,50.497422611928542 191,38.3730669589464 198,26.248711305964264 212,26.248711305964264" />
    <polyline points="212,50.497422611928542 219,38.3730669589464 233,38.3730669589464 240,50.497422611928542 233,62.621778264910681" />
    <polyline points="9,86.870489570874966 2,74.74613391789282 9,62.621778264910681" />
    <polyline points="23,62.621778264910681 30,50.497422611928542 44,50.497422611928542 51,62.621778264910681 44,74.74613391789282" />
    <polyline points="72,74.74613391789282 65,62.621778264910681 72,50.497422611928542" />
    <polyline points="86,50.497422611928542 93,62.621778264910681 86,74.74613391789282" />
    <polyline points="114,74.74613391789282 107,62.621778264910681 114,50.497422611928542 128,50.497422611928542" />
    <line x1="128" y1="74.74613391789282" x2="135" y2="62.621778264910681" />
    <polyline points="156,74.74613391789282 149,62.621778264910681 156,50.497422611928542" />
    <polyline points="177,62.621778264910681 191,62.621778264910681 198,50.497422611928542 212,50.497422611928542" />
    <line x1="212" y1="74.74613391789282" x2="219" y2="62.621778264910681" />
    <polyline points="233,62.621778264910681 240,74.74613391789282 233,86.870489570874966" />
    <polyline points="9,111.11920087683926 2,98.994845223857112 9,86.870489570874966" />
    <polyline points="30,98.994845223857112 23,86.870489570874966 30,74.74613391789282 44,74.74613391789282" />
    <polyline points="51,86.870489570874966 65,86.870489570874966 72,98.994845223857112" />
    <polyline points="65,86.870489570874966 72,74.74613391789282 86,74.74613391789282 93,86.870489570874966 86,98.994845223857112" />
    <line x1="107" y1="86.870489570874966" x2="114" y2="98.994845223857112" />
    <polyline points="114,74.74613391789282 128,74.74613391789282 135,86.870489570874966 128,98.994845223857112" />
    <polyline points="156,98.994845223857112 149,86.870489570874966 156,74.74613391789282 170,74.74613391789282 177,86.870489570874966 170,98.994845223857112" />
    <polyline points="177,86.870489570874966 191,86.870489570874966 198,98.994845223857112" />
    <polyline points="191,86.870489570874966 198,74.74613391789282 212,74.74613391789282 219,86.870489570874966" />
    <polyline points="233,86.870489570874966 240,98.994845223857112 233,111.11920087683926" />
    <polyline points="9,135.36791218280354 2,123.24355652982139 9,111.11920087683924 23,111.11920087683924 30,123.24355652982139" />
    <polyline points="23,111.11920087683924 30,98.9948452238571 44,98.9948452238571" />
    <polyline points="51,111.11920087683924 65,111.11920087683924 72,123.24355652982139" />
    <line x1="65" y1="111.11920087683924" x2="72" y2="98.9948452238571" />
    <polyline points="86,98.9948452238571 93,111.11920087683924 107,111.11920087683924 114,123.24355652982139" />
    <polyline points="114,98.9948452238571 128,98.9948452238571 135,111.11920087683924 149,111.11920087683924 156,123.24355652982139" />
    <polyline points="170,98.9948452238571 177,111.11920087683924 170,123.24355652982139" />
    <line x1="191" y1="111.11920087683924" x2="198" y2="123.24355652982139" />
    <polyline points="212,98.9948452238571 219,111.11920087683924 212,123.24355652982139" />
    <polyline points="233,111.11920087683924 240,123.24355652982139 233,135.36791218280354" />
    <polyline points="9,159.6166234887678 2,147.49226783578567 9,135.36791218280354" />
    <line x1="23" y1="135.36791218280354" x2="30" y2="147.49226783578567" />
    <line x1="30" y1="123.24355652982139" x2="44" y2="123.24355652982139" />
    <polyline points="44,147.49226783578567 51,135.36791218280354 65,135.36791218280354 72,147.49226783578567" />
    <polyline points="65,135.36791218280354 72,123.24355652982139 86,123.24355652982139 93,135.36791218280354 86,147.49226783578567" />
    <polyline points="93,135.36791218280354 107,135.36791218280354 114,147.49226783578567" />
    <polyline points="114,123.24355652982139 128,123.24355652982139 135,135.36791218280354 149,135.36791218280354 156,147.49226783578567" />
    <line x1="156" y1="123.24355652982139" x2="170" y2="123.24355652982139" />
    <polyline points="170,147.49226783578567 177,135.36791218280354 191,135.36791218280354 198,123.24355652982139 212,123.24355652982139 219,135.36791218280354 212,147.49226783578567" />
    <polyline points="233,135.36791218280354 240,147.49226783578567 233,159.6166234887678" />
    <polyline points="9,183.86533479473209 2,171.74097914174996 9,159.61662348876783" />
    <polyline points="23,159.61662348876783 30,147.4922678357857 44,147.4922678357857" />
    <line x1="44" y1="171.74097914174996" x2="51" y2="159.61662348876783" />
    <polyline points="72,171.74097914174996 65,159.61662348876783 72,147.4922678357857" />
    <polyline points="86,171.74097914174996 93,159.61662348876783 107,159.61662348876783 114,171.74097914174996" />
    <polyline points="128,147.4922678357857 135,159.61662348876783 149,159.61662348876783 156,171.74097914174996" />
    <line x1="156" y1="147.4922678357857" x2="170" y2="147.4922678357857" />
    <polyline points="170,171.74097914174996 177,159.61662348876783 191,159.61662348876783 198,171.74097914174996" />
    <line x1="191" y1="159.61662348876783" x2="198" y2="147.4922678357857" />
    <line x1="212" y1="147.4922678357857" x2="219" y2="159.61662348876783" />
    <polyline points="233,159.61662348876783 240,171.74097914174996 233,183.86533479473209" />
    <polyline points="9,208.11404610069636 2,195.98969044771422 9,183.86533479473209 23,183.86533479473209" />
    <polyline points="30,171.74097914174996 44,171.74097914174996 51,183.86533479473209 44,195.98969044771422" />
    <line x1="51" y1="183.86533479473209" x2="65" y2="183.86533479473209" />
    <polyline points="72,171.74097914174996 86,171.74097914174996 93,183.86533479473209 86,195.98969044771422" />
    <polyline points="114,195.98969044771422 107,183.86533479473209 114,171.74097914174996 128,171.74097914174996 135,183.86533479473209" />
    <polyline points="149,183.86533479473209 156,171.74097914174996 170,171.74097914174996 177,183.86533479473209 170,195.98969044771422" />
    <line x1="191" y1="183.86533479473209" x2="198" y2="195.98969044771422" />
    <polyline points="198,171.74097914174996 212,171.74097914174996 219,183.86533479473209 212,195.98969044771422" />
    <polyline points="219,183.86533479473209 233,183.86533479473209 240,195.98969044771422 233,208.11404610069636" />
    <polyline points="9,232.36275740666065 2,220.23840175367852 9,208.11404610069639" />
    <polyline points="30,220.23840175367852 23,208.11404610069639 30,195.98969044771425 44,195.98969044771425" />
    <polyline points="44,220.23840175367852 51,208.11404610069639 65,208.11404610069639 72,195.98969044771425 86,195.98969044771425" />
    <polyline points="86,220.23840175367852 93,208.11404610069639 107,208.11404610069639 114,220.23840175367852" />
    <line x1="107" y1="208.11404610069639" x2="114" y2="195.98969044771425" />
    <polyline points="128,195.98969044771425 135,208.11404610069639 128,220.23840175367852" />
    <polyline points="135,208.11404610069639 149,208.11404610069639 156,220.23840175367852" />
    <polyline points="156,195.98969044771425 170,195.98969044771425 177,208.11404610069639 191,208.11404610069639 198,220.23840175367852" />
    <line x1="198" y1="195.98969044771425" x2="212" y2="195.98969044771425" />
    <line x1="212" y1="220.23840175367852" x2="219" y2="208.11404610069639" />
    <polyline points="233,208.11404610069639 240,220.23840175367852 233,232.36275740666065" />
    <polyline points="9,256.61146871262497 2,244.48711305964281 9,232.36275740666068 23,232.36275740666068 30,220.23840175367855" />
    <polyline points="44,220.23840175367855 51,232.36275740666068 44,244.48711305964281" />
    <polyline points="51,232.36275740666068 65,232.36275740666068 72,244.48711305964281" />
    <line x1="72" y1="220.23840175367855" x2="86" y2="220.23840175367855" />
    <line x1="86" y1="244.48711305964281" x2="93" y2="232.36275740666068" />
    <polyline points="114,244.48711305964281 107,232.36275740666068 114,220.23840175367855 128,220.23840175367855" />
    <line x1="128" y1="244.48711305964281" x2="135" y2="232.36275740666068" />
    <line x1="149" y1="232.36275740666068" x2="156" y2="244.48711305964281" />
    <polyline points="156,220.23840175367855 170,220.23840175367855 177,232.36275740666068 170,244.48711305964281" />
    <polyline points="198,244.48711305964281 191,232.36275740666068 198,220.23840175367855 212,220.23840175367855 219,232.36275740666068" />
    <polyline points="233,232.36275740666068 240,244.48711305964281 233,256.61146871262497" />
    <polyline points="9,280.86018001858923 2,268.73582436560707 9,256.61146871262491" />
    <polyline points="23,256.61146871262491 30,244.48711305964278 44,244.48711305964278" />
    <polyline points="44,268.73582436560707 51,256.61146871262491 65,256.61146871262491 72,268.73582436560707" />
    <polyline points="72,244.48711305964278 86,244.48711305964278 93,256.61146871262491 86,268.73582436560707" />
    <polyline points="93,256.61146871262491 107,256.61146871262491 114,268.73582436560707" />
    <polyline points="128,244.48711305964278 135,256.61146871262491 128,268.73582436560707" />
    <polyline points="156,268.73582436560707 149,256.61146871262491 156,244.48711305964278 170,244.48711305964278 177,256.61146871262491" />
    <line x1="191" y1="256.61146871262491" x2="198" y2="244.48711305964278" />
    <polyline points="212,244.48711305964278 219,256.61146871262491 233,256.61146871262491 240,268.73582436560707 233,280.86018001858923" />
    <polyline points="9,305.1088913245535 2,292.98453567157134 9,280.86018001858918 23,280.86018001858918" />
    <polyline points="30,268.735824365607 44,268.735824365607 51,280.86018001858918" />
    <polyline points="72,292.98453567157134 65,280.86018001858918 72,268.735824365607" />
    <line x1="86" y1="268.735824365607" x2="93" y2="280.86018001858918" />
    <line x1="107" y1="280.86018001858918" x2="114" y2="292.98453567157134" />
    <polyline points="114,268.735824365607 128,268.735824365607 135,280.86018001858918 128,292.98453567157134" />
    <line x1="135" y1="280.86018001858918" x2="149" y2="280.86018001858918" />
    <polyline points="170,268.735824365607 177,280.86018001858918 170,292.98453567157134" />
    <polyline points="177,280.86018001858918 191,280.86018001858918 198,268.735824365607 212,268.735824365607 219,280.86018001858918" />
    <polyline points="233,280.86018001858918 240,292.98453567157134 233,305.1088913245535" />
    <polyline points="30,292.98453567157134 23,305.1088913245535 9,305.1088913245535" />
    <line x1="44" y1="292.98453567157134" x2="30" y2="292.98453567157134" />
    <polyline points="72,292.98453567157134 65,305.1088913245535 51,305.1088913245535 44,292.98453567157134" />
    <line x1="86" y1="292.98453567157134" x2="72" y2="292.98453567157134" />
    <polyline points="114,292.98453567157134 107,305.1088913245535 93,305.1088913245535 86,292.98453567157134" />
    <polyline points="156,292.98453567157134 149,305.1088913245535 135,305.1088913245535 128,292.98453567157134" />
    <line x1="170" y1="292.98453567157134" x2="156" y2="292.98453567157134" />
    <polyline points="198,292.98453567157134 191,305.1088913245535 177,305.1088913245535 170,292.98453567157134" />
    <line x1="212" y1="292.98453567157134" x2="198" y2="292.98453567157134" />
    <polyline points="233,305.1088913245535 219,305.1088913245535 212,292.98453567157134" />
  </g>
  <polyline fill="none" stroke="#ff0000" stroke-width="2" stroke-linecap="square" stroke-linejoin="round" points="121,1.9999999999999822 121,14.124355652982123 79,38.3730669589464 79,14.124355652982123 58,26.248711305964264 58,74.74613391789282 37,86.870489570874966 58,98.994845223857112 37,111.11920087683924 58,123.24355652982139 37,135.36791218280354 16,123.24355652982139 16,171.74097914174996 58,147.49226783578567 58,171.74097914174996 79,183.86533479473209 37,208.11404610069639 37,232.36275740666068 16,244.48711305964281 16,268.73582436560707 58,244.48711305964281 79,256.61146871262491 79,280.86018001858918 100,292.98453567157134 100,268.73582436560707 121,280.86018001858918 121,292.98453567157134" />
  <type>Rectangular</type>
</svg>