<?xml version="1.0" encoding="utf-8" standalone="no"?>
<!DOCTYPE svg PUBLIC "-//W3C//DTD SVG 1.1//EN" "http://www.w3.org/Graphics/SVG/1.1/DTD/svg11.dtd"[]>
<svg width="292" height="372" version="1.1" xmlns="http://www.w3.org/2000/svg">
  <title>18 by 23 orthogonal maze</title>
  <g fill="none" stroke="#000000" stroke-width="2" stroke-linecap="square">
    <line x1="2" y1="2" x2="130" y2="2" />
    <line x1="146" y1="2" x2="290" y2="2" />
    <line x1="18" y1="18" x2="34" y2="18" />
    <line x1="66" y1="18" x2="82" y2="18" />
    <line x1="98" y1="18" x2="114" y2="18" />
    <line x1="146" y1="18" x2="178" y2="18" />
    <line x1="194" y1="18" x2="226" y2="18" />
    <line x1="242" y1="18" x2="258" y2="18" />
    <line x1="2" y1="34" x2="18" y2="34" />
    <line x1="34" y1="34" x2="50" y2="34" />
    <line x1="66" y1="34" x2="82" y2="34" />
    <line x1="114" y1="34" x2="146" y2="34" />
    <line x1="162" y1="34" x2="178" y2="34" />
    <line x1="194" y1="34" x2="210" y2="34" />
    <line x1="226" y1="34" x2="242" y2="34" />
    <line x1="274" y1="34" x2="290" y2="34" />
    <line x1="18" y1="50" x2="34" y2="50" />
    <line x1="50" y1="50" x2="66" y2="50" />
    <line x1="82" y1="50" x2="114" y2="50" />
    <line x1="130" y1="50" x2="194" y2="50" />
    <line x1="210" y1="50" x2="258" y2="50" />
    <line x1="34" y1="66" x2="50" y2="66" />
    <line x1="66" y1="66" x2="82" y2="66" />
    <line x1="114" y1="66" x2="162" y2="66" />
    <line x1="194" y1="66" x2="226" y2="66" />
    <line x1="2" y1="82" x2="18" y2="82" />
    <line x1="50" y1="82" x2="66" y2="82" />
    <line x1="82" y1="82" x2="98" y2="82" />
    <line x1="114" y1="82" x2="130" y2="82" />
    <line x1="178" y1="82" x2="194" y2="82" />
    <line x1="226" y1="82" x2="274" y2="82" />
    <line x1="18" y1="98" x2="34" y2="98" />
    <line x1="66" y1="98" x2="146" y2="98" />
    <line x1="162" y1="98" x2="242" y2="98" />
    <line x1="274" y1="98" x2="290" y2="98" />
    <line x1="18" y1="114" x2="34" y2="114" />
    <line x1="50" y1="114" x2="66" y2="114" />
    <line x1="82" y1="114" x2="194" y2="114" />
    <line x1="210" y1="114" x2="258" y2="114" />
    <line x1="2" y1="130" x2="18" y2="130" />
    <line x1="34" y1="130" x2="66" y2="130" />
    <line x1="114" y1="130" x2="130" y2="130" />
    <line x1="162" y1="130" x2="178" y2="130" />
    <line x1="210" y1="130" x2="242" y2="130" />
    <line x1="258" y1="130" x2="274" y2="130" />
    <line x1="18" y1="146" x2="50" y2="146" />
    <line x1="66" y1="146" x2="98" y2="146" />
    <line x1="130" y1="146" x2="162" y2="146" />
    <line x1="194" y1="146" x2="210" y2="146" />
    <line x1="226" y1="146" x2="258" y2="146" />
    <line x1="2" y1="162" x2="18" y2="162" />
    <line x1="50" y1="162" x2="82" y2="162" />
    <line x1="98" y1="162" x2="130" y2="162" />
    <line x1="146" y1="162" x2="194" y2="162" />
    <line x1="226" y1="162" x2="258" y2="162" />
    <line x1="274" y1="162" x2="290" y2="162" />
    <line x1="18" y1="178" x2="50" y2="178" />
    <line x1="82" y1="178" x2="114" y2="178" />
    <line x1="146" y1="178" x2="178" y2="178" />
    <line x1="194" y1="178" x2="226" y2="178" />
    <line x1="258" y1="178" x2="274" y2="178" />
    <line x1="2" y1="194" x2="18" y2="194" />
    <line x1="34" y1="194" x2="82" y2="194" />
    <line x1="98" y1="194" x2="146" y2="194" />
    <line x1="178" y1="194" x2="210" y2="194" />
    <line x1="226" y1="194" x2="274" y2="194" />
    <line x1="18" y1="210" x2="34" y2="210" />
    <line x1="50" y1="210" x2="82" y2="210" />
    <line x1="130" y1="210" x2="146" y2="210" />
    <line x1="18" y1="226" x2="66" y2="226" />
    <line x1="82" y1="226" x2="130" y2="226" />
    <line x1="162" y1="226" x2="194" y2="226" />
    <line x1="210" y1="226" x2="226" y2="226" />
    <line x1="34" y1="242" x2="50" y2="242" />
    <line x1="82" y1="242" x2="130" y2="242" />
    <line x1="178" y1="242" x2="210" y2="242" />
    <line x1="226" y1="242" x2="242" y2="242" />
    <line x1="258" y1="242" x2="290" y2="242" />
    <line x1="18" y1="258" x2="50" y2="258" />
    <line x1="66" y1="258" x2="98" y2="258" />
    <line x1="130" y1="258" x2="146" y2="258" />
    <line x1="162" y1="258" x2="178" y2="258" />
    <line x1="226" y1="258" x2="258" y2="258" />
    <line x1="34" y1="274" x2="82" y2="274" />
    <line x1="98" y1="274" x2="130" y2="274" />
    <line x1="146" y1="274" x2="178" y2="274" />
    <line x1="210" y1="274" x2="226" y2="274" />
    <line x1="274" y1="274" x2="290" y2="274" />
    <line x1="2" y1="290" x2="18" y2="290" />
    <line x1="50" y1="290" x2="66" y2="290" />
    <line x1="114" y1="290" x2="242" y2="290" />
    <line x1="258" y1="290" x2="290" y2="290" />
    <line x1="18" y1="306" x2="34" y2="306" />
    <line x1="98" y1="306" x2="114" y2="306" />
    <line x1="146" y1="306" x2="162" y2="306" />
    <line x1="194" y1="306" x2="210" y2="306" />
    <line x1="242" y1="306" x2="290" y2="306" />
    <line x1="2" y1="322" x2="34" y2="322" />
    <line x1="50" y1="322" x2="82" y2="322" />
    <line x1="114" y1="322" x2="178" y2="322" />
    <line x1="258" y1="322" x2="290" y2="322" />
    <line x1="34" y1="338" x2="50" y2="338" />
    <line x1="98" y1="338" x2="114" y2="338" />
    <line x1="130" y1="338" x2="178" y2="338" />
    <line x1="194" y1="338" x2="210" y2="338" />
    <line x1="274" y1="338" x2="290" y2="338" />
    <line x1="18" y1="354" x2="66" y2="354" />
    <line x1="82" y1="354" x2="98" y2="354" />
    <line x1="146" y1="354" x2="162" y2="354" />
    <line x1="178" y1="354" x2="210" y2="354" />
    <line x1="226" y1="354" x2="274" y2="354" />
    <line x1="2" y1="370" x2="146" y2="370" />
    <line x1="162" y1="370" x2="290" y2="370" />
    <line x1="2" y1="2" x2="2" y2="370" />
    <line x1="18" y1="2" x2="18" y2="18" />
    <line x1="18" y1="50" x2="18" y2="82" />
    <line x1="18" y1="98" x2="18" y2="114" />
    <line x1="18" y1="146" x2="18" y2="162" />
    <line x1="18" y1="210" x2="18" y2="274" />
    <line x1="18" y1="290" x2="18" y2="306" />
    <line x1="18" y1="322" x2="18" y2="338" />
    <line x1="34" y1="18" x2="34" y2="34" />
    <line x1="34" y1="50" x2="34" y2="82" />
    <line x1="34" y1="114" x2="34" y2="130" />
    <line x1="34" y1="146" x2="34" y2="178" />
    <line x1="34" y1="194" x2="34" y2="210" />
    <line x1="34" y1="274" x2="34" y2="290" />
    <line x1="34" y1="322" x2="34" y2="338" />
    <line x1="50" y1="2" x2="50" y2="18" />
    <line x1="50" y1="34" x2="50" y2="50" />
    <line x1="50" y1="66" x2="50" y2="114" />
    <line x1="50" y1="242" x2="50" y2="274" />
    <line x1="50" y1="290" x2="50" y2="322" />
    <line x1="66" y1="34" x2="66" y2="66" />
    <line x1="66" y1="114" x2="66" y2="146" />
    <line x1="66" y1="162" x2="66" y2="194" />
    <line x1="66" y1="210" x2="66" y2="258" />
    <line x1="66" y1="274" x2="66" y2="306" />
    <line x1="66" y1="322" x2="66" y2="338" />
    <line x1="66" y1="354" x2="66" y2="370" />
    <line x1="82" y1="2" x2="82" y2="18" />
    <line x1="82" y1="66" x2="82" y2="82" />
    <line x1="82" y1="98" x2="82" y2="130" />
    <line x1="82" y1="146" x2="82" y2="162" />
    <line x1="82" y1="242" x2="82" y2="258" />
    <line x1="82" y1="290" x2="82" y2="354" />
    <line x1="98" y1="2" x2="98" y2="50" />
    <line x1="98" y1="66" x2="98" y2="82" />
    <line x1="98" y1="130" x2="98" y2="146" />
    <line x1="98" y1="178" x2="98" y2="210" />
    <line x1="98" y1="226" x2="98" y2="242" />
    <line x1="98" y1="274" x2="98" y2="322" />
    <line x1="98" y1="338" x2="98" y2="354" />
    <line x1="114" y1="50" x2="114" y2="66" />
    <line x1="114" y1="130" x2="114" y2="162" />
    <line x1="114" y1="210" x2="114" y2="226" />
    <line x1="114" y1="242" x2="114" y2="274" />
    <line x1="114" y1="354" x2="114" y2="370" />
    <line x1="130" y1="2" x2="130" y2="34" />
    <line x1="130" y1="66" x2="130" y2="82" />
    <line x1="130" y1="114" x2="130" y2="130" />
    <line x1="130" y1="162" x2="130" y2="194" />
    <line x1="130" y1="258" x2="130" y2="354" />
    <line x1="146" y1="82" x2="146" y2="98" />
    <line x1="146" y1="130" x2="146" y2="146" />
    <line x1="146" y1="162" x2="146" y2="178" />
    <line x1="146" y1="194" x2="146" y2="242" />
    <line x1="146" y1="258" x2="146" y2="274" />
    <line x1="162" y1="18" x2="162" y2="34" />
    <line x1="162" y1="66" x2="162" y2="98" />
    <line x1="162" y1="114" x2="162" y2="130" />
    <line x1="162" y1="146" x2="162" y2="162" />
    <line x1="162" y1="178" x2="162" y2="258" />
    <line x1="162" y1="306" x2="162" y2="322" />
    <line x1="162" y1="354" x2="162" y2="370" />
    <line x1="178" y1="2" x2="178" y2="18" />
    <line x1="178" y1="50" x2="178" y2="98" />
    <line x1="178" y1="130" x2="178" y2="146" />
    <line x1="178" y1="210" x2="178" y2="226" />
    <line x1="178" y1="290" x2="178" y2="306" />
    <line x1="178" y1="338" x2="178" y2="354" />
    <line x1="194" y1="34" x2="194" y2="50" />
    <line x1="194" y1="66" x2="194" y2="82" />
    <line x1="194" y1="98" x2="194" y2="178" />
    <line x1="194" y1="210" x2="194" y2="226" />
    <line x1="194" y1="242" x2="194" y2="290" />
    <line x1="194" y1="306" x2="194" y2="338" />
    <line x1="210" y1="18" x2="210" y2="34" />
    <line x1="210" y1="82" x2="210" y2="98" />
    <line x1="210" y1="130" x2="210" y2="162" />
    <line x1="210" y1="178" x2="210" y2="210" />
    <line x1="210" y1="242" x2="210" y2="258" />
    <line x1="210" y1="322" x2="210" y2="354" />
    <line x1="226" y1="18" x2="226" y2="34" />
    <line x1="226" y1="130" x2="226" y2="146" />
    <line x1="226" y1="162" x2="226" y2="178" />
    <line x1="226" y1="194" x2="226" y2="226" />
    <line x1="226" y1="242" x2="226" y2="274" />
    <line x1="226" y1="290" x2="226" y2="354" />
    <line x1="242" y1="50" x2="242" y2="82" />
    <line x1="242" y1="114" x2="242" y2="130" />
    <line x1="242" y1="162" x2="242" y2="194" />
    <line x1="242" y1="210" x2="242" y2="242" />
    <line x1="242" y1="274" x2="242" y2="290" />
    <line x1="242" y1="306" x2="242" y2="338" />
    <line x1="258" y1="2" x2="258" y2="66" />
    <line x1="258" y1="98" x2="258" y2="130" />
    <line x1="258" y1="178" x2="258" y2="194" />
    <line x1="258" y1="210" x2="258" y2="274" />
    <line x1="258" y1="338" x2="258" y2="354" />
    <line x1="274" y1="18" x2="274" y2="34" />
    <line x1="274" y1="50" x2="274" y2="82" />
    <line x1="274" y1="98" x2="274" y2="114" />
    <line x1="274" y1="130" x2="274" y2="146" />
    <line x1="274" y1="194" x2="274" y2="210" />
    <line x1="274" y1="226" x2="274" y2="242" />
    <line x1="274" y1="258" x2="274" y2="274" />
    <line x1="290" y1="2" x2="290" y2="370" />
  </g>
  <polyline fill="none" stroke="#ff0000" stroke-width="2" stroke-linecap="square" stroke-linejoin="round" points="138,2 138,26 154,26 154,42 186,42 186,10 234,10 234,26 250,26 250,42 202,42 202,58 234,58 234,74 218,74 218,90 266,90 266,122 282,122 282,154 266,154 266,170 282,170 282,218 266,218 266,202 234,202 234,234 218,234 218,266 202,266 202,282 234,282 234,266 250,266 250,298 234,298 234,346 250,346 250,330 266,330 266,346 282,346 282,362 170,362 170,346 138,346 138,362 154,362 154,370" />
  <type>Rectangular</type>
</svg>