<?xml version="1.0" encoding="utf-8" standalone="no"?>
<!DOCTYPE svg PUBLIC "-//W3C//DTD SVG 1.1//EN" "http://www.w3.org/Graphics/SVG/1.1/DTD/svg11.dtd"[]>
<svg width="308" height="308" version="1.1" xmlns="http://www.w3.org/2000/svg">
  <title>19 cells diameter theta maze</title>
  <g fill="none" stroke="#000000" stroke-width="2" stroke-linecap="square">
    <path d="M 138.02943725152286,171.97056274847714 A 24,24 0 1,1 155,179" />
    <path d="M 118.04481869954853,170.3073372946036 A 40,40 0 0,1 155,115" />
    <path d="M 170.3073372946036,118.04481869954853 A 40,40 0 0,1 191.95518130045147,170.3073372946036" />
    <path d="M 183.2842712474619,183.2842712474619 A 40,40 0 0,1 126.7157287525381,183.2842712474619" />
    <path d="M 133.569727787555,206.73725382063208 A 56,56 0 1,1 194.59797974644667,115.40202025355333" />
    <path d="M 206.73725382063208,176.43027221244503 A 56,56 0 0,1 176.43027221244503,206.73725382063205" />
    <path d="M 140.95349681483873,84.383459810967409 A 72,72 0 0,1 195.00105677741135,95.134187914216739" />
    <path d="M 214.86581208578326,114.99894322258864 A 72,72 0 0,1 225.61654018903261,140.95349681483876" />
    <path d="M 227,155 A 72,72 0 0,1 225.61654018903261,169.04650318516124" />
    <path d="M 214.86581208578326,195.00105677741135 A 72,72 0 0,1 205.91168824543144,205.91168824543141" />
    <path d="M 195.00105677741135,214.86581208578326 A 72,72 0 0,1 182.55320713028647,221.51932634081265" />
    <path d="M 169.04650318516127,225.61654018903261 A 72,72 0 0,1 114.99894322258867,214.86581208578326" />
    <path d="M 104.08831175456859,205.91168824543144 A 72,72 0 0,1 95.134187914216739,195.00105677741135" />
    <path d="M 83,155 A 72,72 0 0,1 84.383459810967409,140.95349681483876" />
    <path d="M 95.134187914216724,114.99894322258867 A 72,72 0 0,1 127.44679286971349,88.480673659187374" />
    <path d="M 137.83205166258068,68.690895324515722 A 88,88 0 0,1 172.16794833741929,68.690895324515722" />
    <path d="M 217.22539674441617,92.774603255583813 A 88,88 0 0,1 236.30139886099323,121.3238579518721" />
    <path d="M 241.30910467548426,137.83205166258071 A 88,88 0 0,1 241.30910467548426,172.16794833741929" />
    <path d="M 236.30139886099323,188.6761420481279 A 88,88 0 0,1 228.16932588262398,203.89018050572497" />
    <path d="M 217.22539674441617,217.22539674441617 A 88,88 0 0,1 188.6761420481279,236.30139886099323" />
    <path d="M 155,243 A 88,88 0 0,1 137.83205166258071,241.30910467548426" />
    <path d="M 121.32385795187211,236.30139886099323 A 88,88 0 0,1 73.698601139006783,188.67614204812796" />
    <path d="M 68.690895324515722,172.16794833741932 A 88,88 0 0,1 67,155.00000000000003" />
    <path d="M 73.698601139006769,121.32385795187207 A 88,88 0 0,1 81.830674117375992,106.10981949427503" />
    <path d="M 92.7746032555838,92.774603255583827 A 88,88 0 0,1 106.109819494275,81.83067411737602" />
    <path d="M 97.220695765961366,68.5271603205353 A 104,104 0 0,1 175.28939348967734,52.998330838064035" />
    <path d="M 194.79907696596933,58.916528618826177 A 104,104 0 0,1 212.77930423403862,68.527160320535287" />
    <path d="M 228.53910524340094,81.46089475659906 A 104,104 0 0,1 241.47283967946473,212.77930423403859" />
    <path d="M 228.53910524340097,228.53910524340094 A 104,104 0 0,1 212.77930423403862,241.4728396794647" />
    <path d="M 194.79907696596933,251.08347138117381 A 104,104 0 0,1 81.460894756599075,228.53910524340097" />
    <path d="M 58.916528618826206,194.79907696596939 A 104,104 0 0,1 51,155.00000000000003" />
    <path d="M 68.527160320535273,97.220695765961409 A 104,104 0 0,1 81.460894756599046,81.460894756599075" />
    <path d="M 155,35 A 120,120 0 0,1 200.92201188381077,44.134456098645586" />
    <path d="M 221.66842796235227,55.223646523694569 A 120,120 0 0,1 254.77635347630542,88.331572037647732" />
    <path d="M 265.86554390135439,109.07798811618923 A 120,120 0 0,1 272.69423364838764,178.41083864193539" />
    <path d="M 254.77635347630545,221.66842796235224 A 120,120 0 0,1 200.9220118838108,265.86554390135439" />
    <path d="M 178.41083864193544,272.69423364838764 A 120,120 0 0,1 131.58916135806459,272.69423364838764" />
    <path d="M 70.147186257614308,239.85281374238571 A 120,120 0 0,1 37.305766351612348,178.41083864193544" />
    <path d="M 37.305766351612348,131.58916135806462 A 120,120 0 0,1 44.1344560986456,109.0779881161892" />
    <path d="M 128.46771620580648,21.613201865160676 A 136,136 0 0,1 168.33033108482024,19.654877172581223" />
    <path d="M 181.53228379419343,21.613201865160647 A 136,136 0 0,1 194.4787161066069,24.856114340419595" />
    <path d="M 207.0449468016522,29.352383578464995 A 136,136 0 0,1 260.12942165733222,68.7225133537442" />
    <path d="M 268.07986727314614,79.4424483093341 A 136,136 0 0,1 280.64761642153496,102.95505319834778" />
    <path d="M 288.38679813483935,128.46771620580654 A 136,136 0 0,1 290.34512282741878,141.66966891517973" />
    <path d="M 291,155 A 136,136 0 0,1 290.34512282741878,168.33033108482024" />
    <path d="M 288.38679813483935,181.53228379419343 A 136,136 0 0,1 268.07986727314619,230.55755169066589" />
    <path d="M 260.12942165733227,241.27748664625577 A 136,136 0 0,1 194.4787161066069,285.14388565958041" />
    <path d="M 181.53228379419349,288.3867981348393 A 136,136 0 0,1 141.66966891517976,290.34512282741878" />
    <path d="M 115.52128389339315,285.14388565958041 A 136,136 0 0,1 102.9550531983478,280.647616421535" />
    <path d="M 68.722513353744233,260.12942165733227 A 136,136 0 0,1 58.833477758629556,251.16652224137047" />
    <path d="M 49.870578342667812,241.27748664625585 A 136,136 0 0,1 35.058708048623728,219.10995620833572" />
    <path d="M 19.654877172581223,168.33033108482022 A 136,136 0 0,1 19,155.00000000000003" />
    <path d="M 19.654877172581223,141.66966891517984 A 136,136 0 0,1 29.352383578465009,102.95505319834777" />
    <path d="M 35.058708048623714,90.890043791664326 A 136,136 0 0,1 49.870578342667784,68.7225133537442" />
    <path d="M 58.833477758629513,58.833477758629556 A 136,136 0 0,1 68.722513353744148,49.870578342667827" />
    <path d="M 102.95505319834771,29.352383578465037 A 136,136 0 0,1 115.5212838933931,24.856114340419595" />
    <path d="M 169.8986053300932,3.7319215458260828 A 152,152 0 1,1 155,3" />
  </g>
  <g fill="none" stroke="#000000" stroke-width="2" stroke-linecap="butt">
    <line x1="169.8986053300932" y1="3.7319215458260544" x2="168.33033108482024" y2="19.654877172581223" />
    <line x1="181.53228379419343" y1="21.613201865160647" x2="175.28939348967734" y2="52.998330838064035" />
    <line x1="207.0449468016522" y1="29.352383578465009" x2="200.92201188381077" y2="44.134456098645586" />
    <line x1="194.79907696596933" y1="58.916528618826177" x2="188.6761420481279" y2="73.698601139006769" />
    <line x1="221.66842796235227" y1="55.223646523694569" x2="195.00105677741135" y2="95.134187914216739" />
    <line x1="217.22539674441617" y1="92.774603255583813" x2="194.59797974644664" y2="115.40202025355333" />
    <line x1="254.77635347630542" y1="88.331572037647732" x2="241.4728396794647" y2="97.220695765961352" />
    <line x1="295.4296889417156" y1="96.832118280506336" x2="280.64761642153496" y2="102.95505319834778" />
    <line x1="251.08347138117381" y1="115.20092303403067" x2="236.30139886099323" y2="121.3238579518721" />
    <line x1="206.73725382063205" y1="133.56972778755497" x2="191.95518130045147" y2="139.6926627053964" />
    <line x1="300.45493103129576" y1="110.87672905732173" x2="285.14388565958041" y2="115.52128389339313" />
    <line x1="241.30910467548426" y1="137.83205166258071" x2="225.61654018903261" y2="140.95349681483876" />
    <line x1="306.26807845417392" y1="140.10139466990677" x2="290.34512282741878" y2="141.66966891517973" />
    <line x1="307" y1="155" x2="275" y2="155" />
    <line x1="259" y1="155" x2="243" y2="155" />
    <line x1="227" y1="155" x2="211" y2="155" />
    <line x1="195" y1="155" x2="179" y2="155" />
    <line x1="241.30910467548426" y1="172.16794833741929" x2="225.61654018903261" y2="169.04650318516124" />
    <line x1="280.64761642153496" y1="207.0449468016522" x2="251.08347138117381" y2="194.79907696596933" />
    <line x1="236.30139886099323" y1="188.6761420481279" x2="191.95518130045147" y2="170.3073372946036" />
    <line x1="268.07986727314619" y1="230.55755169066586" x2="254.77635347630547" y2="221.66842796235224" />
    <line x1="239.85281374238571" y1="239.85281374238571" x2="228.53910524340097" y2="228.53910524340094" />
    <line x1="217.22539674441617" y1="217.22539674441617" x2="205.91168824543144" y2="205.91168824543144" />
    <line x1="212.77930423403862" y1="241.4728396794647" x2="203.890180505725" y2="228.16932588262398" />
    <line x1="207.04494680165223" y1="280.64761642153496" x2="200.9220118838108" y2="265.86554390135439" />
    <line x1="188.6761420481279" y1="236.30139886099323" x2="176.43027221244503" y2="206.73725382063205" />
    <line x1="199.12327094267829" y1="300.4549310312957" x2="194.4787161066069" y2="285.14388565958041" />
    <line x1="181.53228379419349" y1="288.38679813483935" x2="178.41083864193544" y2="272.69423364838764" />
    <line x1="175.28939348967737" y1="257.001669161936" x2="169.04650318516127" y2="225.61654018903261" />
    <line x1="155" y1="227" x2="155" y2="195" />
    <line x1="125.34627105354849" y1="304.079362621291" x2="131.58916135806459" y2="272.69423364838764" />
    <line x1="137.83205166258071" y1="241.30910467548426" x2="140.95349681483876" y2="225.61654018903261" />
    <line x1="102.9550531983478" y1="280.647616421535" x2="115.20092303403067" y2="251.08347138117384" />
    <line x1="83.347696002448359" y1="289.05203218094994" x2="90.890043791664326" y2="274.94129195137629" />
    <line x1="70.5533245810205" y1="281.38338106998691" x2="88.33157203764776" y2="254.77635347630547" />
    <line x1="58.833477758629542" y1="251.1665222413705" x2="92.774603255583827" y2="217.2253967444162" />
    <line x1="104.08831175456858" y1="205.91168824543144" x2="115.40202025355335" y2="194.59797974644667" />
    <line x1="126.7157287525381" y1="183.2842712474619" x2="138.02943725152286" y2="171.97056274847714" />
    <line x1="55.223646523694569" y1="221.66842796235227" x2="68.5271603205353" y2="212.77930423403862" />
    <line x1="20.947967819050064" y1="226.65230399755166" x2="35.058708048623728" y2="219.10995620833569" />
    <line x1="29.352383578465037" y1="207.04494680165229" x2="44.134456098645614" y2="200.92201188381085" />
    <line x1="58.916528618826206" y1="194.79907696596939" x2="88.480673659187374" y2="182.5532071302865" />
    <line x1="103.26274617936795" y1="176.43027221244506" x2="118.04481869954854" y2="170.3073372946036" />
    <line x1="9.5450689687042711" y1="199.12327094267829" x2="24.856114340419595" y2="194.4787161066069" />
    <line x1="21.613201865160676" y1="181.53228379419349" x2="37.305766351612363" y2="178.41083864193544" />
    <line x1="68.690895324515736" y1="172.16794833741932" x2="84.383459810967423" y2="169.04650318516127" />
    <line x1="19" y1="155.00000000000003" x2="83" y2="155" />
    <line x1="3.7319215458260544" y1="140.10139466990688" x2="19.654877172581223" y2="141.66966891517984" />
    <line x1="21.613201865160647" y1="128.46771620580654" x2="68.690895324515722" y2="137.83205166258071" />
    <line x1="58.916528618826192" y1="115.20092303403064" x2="73.698601139006783" y2="121.32385795187207" />
    <line x1="88.48067365918736" y1="127.44679286971352" x2="103.26274617936795" y2="133.56972778755497" />
    <line x1="41.920132726853822" y1="79.442448309334154" x2="68.527160320535273" y2="97.220695765961409" />
    <line x1="81.830674117376" y1="106.10981949427503" x2="95.134187914216724" y2="114.99894322258867" />
    <line x1="47.519769259644747" y1="47.519769259644804" x2="58.833477758629513" y2="58.833477758629556" />
    <line x1="70.14718625761428" y1="70.147186257614322" x2="92.7746032555838" y2="92.774603255583827" />
    <line x1="79.442448309334111" y1="41.920132726853851" x2="106.109819494275" y2="81.83067411737602" />
    <line x1="83.347696002448316" y1="20.947967819050064" x2="90.890043791664283" y2="35.058708048623743" />
    <line x1="102.95505319834771" y1="29.352383578465037" x2="109.07798811618915" y2="44.134456098645614" />
    <line x1="115.20092303403061" y1="58.916528618826206" x2="127.44679286971349" y2="88.480673659187374" />
    <line x1="110.8767290573217" y1="9.5450689687042711" x2="115.5212838933931" y2="24.856114340419595" />
    <line x1="128.46771620580648" y1="21.613201865160676" x2="134.71060651032261" y2="52.998330838064049" />
    <line x1="137.83205166258068" y1="68.690895324515736" x2="140.95349681483873" y2="84.383459810967423" />
  </g>
  <path fill="none" stroke="#ff0000" stroke-width="2" stroke-linecap="square" stroke-linejoin="round" d="M 162.45828649776755,3.1830906568137891 L 162.0657451031482,11.17345430645517 A 144,144 0 0,0 120.01085409392996,15.315499539985666 L 123.89853697238219,30.835999591098371 A 128,128 0 0,0 117.8435613114288,32.51163702627727 L 122.48811614750019,47.822682397992608 A 112,112 0 0,0 102.20356547548823,56.224818392984261 L 94.661217686272266,42.114078163410582 A 128,128 0 0,0 89.1948487432676,45.210737919965183 L 80.969204836176047,31.48708015996084 A 144,144 0 0,0 69.21930015308962,39.338115466787116 L 78.750489024968545,52.189435970477433 A 128,128 0 0,0 60.158255954565234,69.040453779581654 L 48.303037948885887,58.295510502029359 A 144,144 0 0,0 24.825541790224179,93.432066546039366 L 39.289370480199253,100.27294804092389 A 128,128 0 0,1 42.114078163410554,94.661217686272309 L 56.224818392984233,102.20356547548828 A 112,112 0 0,0 47.822682397992594,122.48811614750025 L 78.444773141423283,131.77722581964304 A 80,80 0 0,0 75.385221866224242,147.1586287736352 L 27.616354985958793,142.45380603781632 A 128,128 0 0,0 27.154181605737932,148.71933768609054 L 11.17345430645517,147.93425489685185 A 144,144 0 0,0 15.315499539985666,189.98914590607004 L 30.835999591098371,186.1014630276178 A 128,128 0 0,0 34.482359656573337,198.12190123420416 L 19.417654613645,203.51213888847968 A 144,144 0 0,0 24.825541790224179,216.56793345396068 L 39.289370480199281,209.72705195907616 A 128,128 0 0,0 60.158255954565263,240.95954622041839 L 48.303037948885915,251.70448949797068 A 144,144 0 0,0 69.2193001530896,270.66188453321286 L 78.750489024968545,257.81056402952254 A 128,128 0 0,1 73.7976596270534,253.94533803043035 L 83.947952173671723,241.57717077662656 A 112,112 0 0,0 102.20356547548826,253.77518160701578 L 94.6612176862723,267.88592183658943 A 128,128 0 0,0 100.27294804092392,270.71062951980076 L 93.432066546039408,285.17445820977582 A 144,144 0 0,0 120.01085409393,294.68450046001431 L 123.89853697238223,279.16400040890164 A 128,128 0 0,1 117.84356131142886,277.48836297372276 L 122.48811614750025,262.17731760200741 A 112,112 0 0,0 207.79643452451177,253.77518160701575 L 200.2540867352958,239.66444137744207 A 96,96 0 0,1 182.86732901642839,246.86627223029205 L 173.5782193442856,216.24418148686135 A 64,64 0 0,1 167.48578060903222,217.77025794580675 L 164.36433545677417,202.07769345935506 A 48,48 0 0,0 194.91054139052218,181.66737118494089 L 181.60702759368147,172.77824745662727 A 32,32 0 0,1 142.75413016431713,184.56414504036118 L 145.81559762323786,177.17310878027089" />
  <type>Circular</type>
</svg>