<?xml version="1.0" encoding="utf-8" standalone="no"?>
<!DOCTYPE svg PUBLIC "-//W3C//DTD SVG 1.1//EN" "http://www.w3.org/Graphics/SVG/1.1/DTD/svg11.dtd"[]>
<svg width="308" height="308" version="1.1" xmlns="http://www.w3.org/2000/svg">
  <title>19 cells diameter theta maze</title>
  <g fill="none" stroke="#000000" stroke-width="2" stroke-linecap="square">
    <path d="M 138.02943725152286,171.97056274847714 A 24,24 0 1,1 155,179" />
    <path d="M 139.69266270539637,118.04481869954854 A 40,40 0 0,1 191.95518130045147,170.3073372946036" />
    <path d="M 170.3073372946036,191.95518130045147 A 40,40 0 0,1 126.7157287525381,183.2842712474619" />
    <path d="M 118.04481869954853,170.3073372946036 A 40,40 0 0,1 115,155" />
    <path d="M 118.04481869954853,139.6926627053964 A 40,40 0 0,1 126.7157287525381,126.7157287525381" />
    <path d="M 155,99 A 56,56 0 0,1 194.59797974644667,115.40202025355333" />
    <path d="M 206.73725382063208,176.43027221244503 A 56,56 0 0,1 176.43027221244503,206.73725382063205" />
    <path d="M 115.40202025355335,194.59797974644667 A 56,56 0 0,1 103.26274617936795,176.43027221244506" />
    <path d="M 99,155 A 56,56 0 0,1 133.56972778755494,103.26274617936795" />
    <path d="M 84.383459810967409,169.04650318516127 A 72,72 0 0,1 182.55320713028647,88.48067365918736" />
    <path d="M 195.00105677741135,95.134187914216739 A 72,72 0 0,1 205.91168824543144,104.08831175456858" />
    <path d="M 221.51932634081265,127.44679286971353 A 72,72 0 0,1 225.61654018903261,140.95349681483876" />
    <path d="M 227,155 A 72,72 0 0,1 225.61654018903261,169.04650318516124" />
    <path d="M 214.86581208578326,195.00105677741135 A 72,72 0 0,1 95.134187914216739,195.00105677741135" />
    <path d="M 188.6761420481279,73.698601139006769 A 88,88 0 0,1 203.890180505725,81.83067411737602" />
    <path d="M 217.22539674441617,92.774603255583813 A 88,88 0 0,1 228.16932588262398,106.109819494275" />
    <path d="M 236.30139886099323,121.3238579518721 A 88,88 0 0,1 243,155" />
    <path d="M 236.30139886099323,188.6761420481279 A 88,88 0 0,1 228.16932588262398,203.89018050572497" />
    <path d="M 217.22539674441617,217.22539674441617 A 88,88 0 0,1 155,243" />
    <path d="M 137.83205166258071,241.30910467548426 A 88,88 0 0,1 121.32385795187211,236.30139886099323" />
    <path d="M 106.10981949427503,228.16932588262398 A 88,88 0 0,1 92.774603255583827,217.2253967444162" />
    <path d="M 81.83067411737602,203.890180505725 A 88,88 0 0,1 73.698601139006783,188.67614204812796" />
    <path d="M 68.690895324515722,172.16794833741932 A 88,88 0 0,1 81.830674117375992,106.10981949427503" />
    <path d="M 92.7746032555838,92.774603255583827 A 88,88 0 0,1 121.32385795187204,73.698601139006783" />
    <path d="M 212.77930423403862,68.527160320535287 A 104,104 0 0,1 241.4728396794647,97.220695765961366" />
    <path d="M 259,155 A 104,104 0 0,1 212.77930423403862,241.4728396794647" />
    <path d="M 194.79907696596933,251.08347138117381 A 104,104 0 0,1 175.28939348967737,257.001669161936" />
    <path d="M 134.71060651032266,257.001669161936 A 104,104 0 0,1 97.220695765961409,241.47283967946473" />
    <path d="M 81.460894756599075,228.53910524340097 A 104,104 0 0,1 68.527160320535287,212.77930423403862" />
    <path d="M 58.916528618826192,115.20092303403064 A 104,104 0 0,1 97.220695765961366,68.5271603205353" />
    <path d="M 221.66842796235227,55.223646523694569 A 120,120 0 0,1 239.85281374238571,70.1471862576143" />
    <path d="M 254.77635347630542,88.331572037647732 A 120,120 0 0,1 272.69423364838764,131.58916135806459" />
    <path d="M 272.69423364838764,178.41083864193539 A 120,120 0 0,1 254.77635347630545,221.66842796235224" />
    <path d="M 239.85281374238571,239.85281374238571 A 120,120 0 0,1 221.66842796235227,254.77635347630542" />
    <path d="M 200.9220118838108,265.86554390135439 A 120,120 0 0,1 178.41083864193544,272.69423364838764" />
    <path d="M 155.00000000000003,275 A 120,120 0 0,1 70.147186257614308,239.85281374238571" />
    <path d="M 44.134456098645614,200.92201188381085 A 120,120 0 0,1 37.305766351612348,178.41083864193544" />
    <path d="M 37.305766351612348,131.58916135806462 A 120,120 0 0,1 70.14718625761428,70.147186257614322" />
    <path d="M 88.331572037647732,55.223646523694569 A 120,120 0 0,1 131.58916135806456,37.305766351612363" />
    <path d="M 115.5212838933931,24.856114340419595 A 136,136 0 0,1 194.4787161066069,24.856114340419595" />
    <path d="M 207.0449468016522,29.352383578464995 A 136,136 0 0,1 241.2774866462558,49.87057834266777" />
    <path d="M 268.07986727314614,79.4424483093341 A 136,136 0 0,1 274.94129195137629,90.8900437916643" />
    <path d="M 280.64761642153496,102.95505319834778 A 136,136 0 0,1 285.14388565958041,115.52128389339313" />
    <path d="M 288.38679813483935,128.46771620580654 A 136,136 0 0,1 285.14388565958041,194.47871610660687" />
    <path d="M 280.647616421535,207.0449468016522 A 136,136 0 0,1 241.2774866462558,260.12942165733222" />
    <path d="M 219.10995620833569,274.94129195137629 A 136,136 0 0,1 207.04494680165223,280.64761642153496" />
    <path d="M 181.53228379419349,288.3867981348393 A 136,136 0 0,1 102.9550531983478,280.647616421535" />
    <path d="M 90.890043791664326,274.94129195137629 A 136,136 0 0,1 79.442448309334139,268.07986727314619" />
    <path d="M 68.722513353744233,260.12942165733227 A 136,136 0 0,1 29.352383578465037,207.04494680165229" />
    <path d="M 24.856114340419595,194.4787161066069 A 136,136 0 0,1 19.654877172581223,168.33033108482022" />
    <path d="M 24.856114340419595,115.52128389339316 A 136,136 0 0,1 90.890043791664283,35.058708048623743" />
    <path d="M 169.8986053300932,3.7319215458260828 A 152,152 0 1,1 155,3" />
  </g>
  <g fill="none" stroke="#000000" stroke-width="2" stroke-linecap="butt">
    <line x1="155" y1="19" x2="155" y2="51" />
    <line x1="155" y1="67" x2="155" y2="83" />
    <line x1="181.53228379419343" y1="21.613201865160647" x2="172.16794833741929" y2="68.690895324515722" />
    <line x1="199.12327094267829" y1="9.5450689687042711" x2="194.47871610660687" y2="24.856114340419595" />
    <line x1="207.0449468016522" y1="29.352383578465009" x2="194.79907696596933" y2="58.916528618826177" />
    <line x1="188.6761420481279" y1="73.698601139006769" x2="176.43027221244503" y2="103.26274617936795" />
    <line x1="212.77930423403862" y1="68.5271603205353" x2="195.00105677741135" y2="95.134187914216739" />
    <line x1="251.42777919287411" y1="37.50241108886398" x2="241.2774866462558" y2="49.87057834266777" />
    <line x1="251.16652224137044" y1="58.833477758629527" x2="228.53910524340094" y2="81.460894756599046" />
    <line x1="217.22539674441617" y1="92.774603255583813" x2="205.91168824543144" y2="104.08831175456857" />
    <line x1="272.497588911136" y1="58.572220807125888" x2="260.12942165733222" y2="68.722513353744219" />
    <line x1="268.07986727314614" y1="79.442448309334083" x2="254.77635347630542" y2="88.331572037647732" />
    <line x1="228.16932588262398" y1="106.109819494275" x2="214.86581208578326" y2="114.99894322258864" />
    <line x1="280.64761642153496" y1="102.95505319834778" x2="251.08347138117381" y2="115.20092303403067" />
    <line x1="221.51932634081265" y1="127.44679286971353" x2="191.95518130045147" y2="139.6926627053964" />
    <line x1="300.45493103129576" y1="110.87672905732173" x2="285.14388565958041" y2="115.52128389339313" />
    <line x1="272.69423364838764" y1="131.58916135806459" x2="257.001669161936" y2="134.71060651032266" />
    <line x1="241.30910467548426" y1="137.83205166258071" x2="225.61654018903261" y2="140.95349681483876" />
    <line x1="291" y1="155" x2="259" y2="155" />
    <line x1="227" y1="155" x2="211" y2="155" />
    <line x1="257.001669161936" y1="175.28939348967734" x2="225.61654018903261" y2="169.04650318516124" />
    <line x1="280.64761642153496" y1="207.0449468016522" x2="265.86554390135439" y2="200.92201188381077" />
    <line x1="236.30139886099323" y1="188.6761420481279" x2="191.95518130045147" y2="170.3073372946036" />
    <line x1="241.47283967946473" y1="212.77930423403859" x2="228.16932588262398" y2="203.89018050572497" />
    <line x1="251.16652224137047" y1="251.16652224137044" x2="239.85281374238571" y2="239.85281374238571" />
    <line x1="194.59797974644667" y1="194.59797974644664" x2="171.97056274847714" y2="171.97056274847714" />
    <line x1="239.44667541897954" y1="281.38338106998691" x2="221.66842796235227" y2="254.77635347630545" />
    <line x1="207.04494680165223" y1="280.64761642153496" x2="200.9220118838108" y2="265.86554390135439" />
    <line x1="194.79907696596933" y1="251.08347138117381" x2="188.6761420481279" y2="236.30139886099323" />
    <line x1="182.55320713028647" y1="221.51932634081265" x2="176.43027221244503" y2="206.73725382063205" />
    <line x1="199.12327094267829" y1="300.4549310312957" x2="194.4787161066069" y2="285.14388565958041" />
    <line x1="178.41083864193544" y1="272.69423364838764" x2="175.28939348967737" y2="257.001669161936" />
    <line x1="155.00000000000003" y1="275" x2="155" y2="243" />
    <line x1="155" y1="211" x2="155" y2="195" />
    <line x1="128.46771620580654" y1="288.38679813483935" x2="131.58916135806459" y2="272.69423364838764" />
    <line x1="134.71060651032266" y1="257.001669161936" x2="137.83205166258071" y2="241.30910467548426" />
    <line x1="127.44679286971355" y1="221.51932634081265" x2="133.56972778755497" y2="206.73725382063208" />
    <line x1="70.5533245810205" y1="281.38338106998691" x2="79.442448309334139" y2="268.07986727314619" />
    <line x1="97.2206957659614" y1="241.47283967946473" x2="106.10981949427503" y2="228.16932588262398" />
    <line x1="58.572220807125916" y1="272.49758891113606" x2="68.722513353744247" y2="260.12942165733227" />
    <line x1="58.833477758629542" y1="251.1665222413705" x2="81.46089475659906" y2="228.53910524340097" />
    <line x1="92.774603255583827" y1="217.2253967444162" x2="104.08831175456858" y2="205.91168824543144" />
    <line x1="115.40202025355335" y1="194.59797974644667" x2="138.02943725152286" y2="171.97056274847714" />
    <line x1="41.920132726853851" y1="230.55755169066589" x2="55.223646523694569" y2="221.66842796235227" />
    <line x1="68.5271603205353" y1="212.77930423403862" x2="81.83067411737602" y2="203.890180505725" />
    <line x1="58.916528618826206" y1="194.79907696596939" x2="103.26274617936795" y2="176.43027221244506" />
    <line x1="9.5450689687042711" y1="199.12327094267829" x2="24.856114340419595" y2="194.4787161066069" />
    <line x1="21.613201865160676" y1="181.53228379419349" x2="68.690895324515736" y2="172.16794833741932" />
    <line x1="19" y1="155.00000000000003" x2="67" y2="155.00000000000003" />
    <line x1="99" y1="155" x2="115" y2="155" />
    <line x1="3.7319215458260544" y1="140.10139466990688" x2="19.654877172581223" y2="141.66966891517984" />
    <line x1="5.9206373787089888" y1="125.34627105354849" x2="52.998330838064035" y2="134.71060651032266" />
    <line x1="81.830674117376" y1="106.10981949427503" x2="95.134187914216724" y2="114.99894322258867" />
    <line x1="81.460894756599046" y1="81.460894756599075" x2="92.7746032555838" y2="92.774603255583827" />
    <line x1="126.7157287525381" y1="126.7157287525381" x2="138.02943725152286" y2="138.02943725152286" />
    <line x1="79.442448309334111" y1="41.920132726853851" x2="88.331572037647732" y2="55.223646523694569" />
    <line x1="96.832118280506251" y1="14.57031105828446" x2="121.32385795187204" y2="73.698601139006783" />
    <line x1="133.56972778755494" y1="103.26274617936795" x2="139.69266270539637" y2="118.04481869954854" />
    <line x1="131.58916135806456" y1="37.305766351612363" x2="134.71060651032261" y2="52.998330838064049" />
    <line x1="137.83205166258068" y1="68.690895324515736" x2="140.95349681483873" y2="84.383459810967423" />
  </g>
  <path fill="none" stroke="#ff0000" stroke-width="2" stroke-linecap="square" stroke-linejoin="round" d="M 162.45828649776755,3.1830906568137891 L 162.0657451031482,11.17345430645517 A 144,144 0 0,0 106.48786111152032,19.417654613645 L 111.87809876579584,34.482359656573337 A 128,128 0 0,1 142.45380603781626,27.616354985958793 L 145.59035452836218,59.4622662394691 A 96,96 0 0,1 164.40964547163782,59.4622662394691 L 162.84137122636486,75.385221866224242 A 80,80 0 0,1 178.222774180357,78.4447731414233 L 182.86732901642839,63.133727769707946 A 96,96 0 0,1 200.25408673529577,70.335558622557912 L 215.33878231372771,42.114078163410554 A 128,128 0 0,1 240.95954622041836,60.158255954565234 L 251.70448949797066,48.303037948885887 A 144,144 0 0,1 261.6969620511141,58.295510502029359 L 249.84174404543478,69.040453779581654 A 128,128 0 0,1 253.94533803043032,73.797659627053378 L 241.57717077662653,83.9479521736717 A 112,112 0 0,1 253.77518160701575,102.20356547548825 L 239.66444137744207,109.74591326470421 A 96,96 0 0,1 250.5377337605309,145.59035452836216 L 282.38364501404118,142.45380603781621 A 128,128 0 0,0 279.16400040890164,123.8985369723822 L 294.68450046001431,120.01085409392999 A 144,144 0 0,1 290.582345386355,203.51213888847968 L 275.51764034342665,198.12190123420416 A 128,128 0 0,0 282.38364501404124,167.54619396218376 L 266.46068938728604,165.9779197169108 A 112,112 0 0,1 207.79643452451177,253.77518160701575 L 200.2540867352958,239.66444137744207 A 96,96 0 0,0 229.20900352282274,215.90175527970996 L 216.84083626901895,205.75146273309161 A 80,80 0 0,1 147.15862877363514,234.61477813377576 L 144.02208028308922,266.46068938728604 A 112,112 0 0,1 83.947952173671723,241.57717077662656 L 94.098244720290054,229.20900352282277 A 96,96 0 0,1 80.790996477177288,215.90175527971002 L 93.159163730981078,205.75146273309167 A 80,80 0 0,1 84.4462988521316,192.71173894607983 L 98.557039081705284,185.16939115686387 A 64,64 0 0,0 119.44350508674548,208.2140551873629 L 128.33262881505911,194.91054139052218 A 48,48 0 0,0 145.63566454322583,202.07769345935506 L 142.51421939096778,217.77025794580675 A 64,64 0 0,0 167.48578060903222,217.77025794580675 L 164.36433545677417,202.07769345935506 A 48,48 0 0,0 181.66737118494089,194.91054139052218 L 172.77824745662727,181.60702759368144 A 32,32 0 0,1 142.75413016431713,184.56414504036118 L 145.81559762323786,177.17310878027089" />
  <type>Circular</type>
</svg>