<?xml version="1.0" encoding="utf-8" standalone="no"?>
<!DOCTYPE svg PUBLIC "-//W3C//DTD SVG 1.1//EN" "http://www.w3.org/Graphics/SVG/1.1/DTD/svg11.dtd"[]>
<svg width="308" height="308" version="1.1" xmlns="http://www.w3.org/2000/svg">
  <title>19 cells diameter theta maze</title>
  <g fill="none" stroke="#000000" stroke-width="2" stroke-linecap="square">
    <path d="M 138.02943725152286,171.97056274847714 A 24,24 0 1,1 155,179" />
    <path d="M 170.3073372946036,118.04481869954853 A 40,40 0 1,1 118.04481869954853,170.3073372946036" />
    <path d="M 115,155 A 40,40 0 0,1 118.04481869954853,139.6926627053964" />
    <path d="M 126.7157287525381,126.7157287525381 A 40,40 0 0,1 139.69266270539637,118.04481869954854" />
    <path d="M 133.56972778755494,103.26274617936795 A 56,56 0 0,1 155,99" />
    <path d="M 176.43027221244503,103.26274617936795 A 56,56 0 0,1 194.59797974644667,115.40202025355333" />
    <path d="M 206.73725382063205,133.56972778755497 A 56,56 0 0,1 211,155" />
    <path d="M 155,211 A 56,56 0 0,1 115.40202025355335,194.59797974644667" />
    <path d="M 103.26274617936795,176.43027221244506 A 56,56 0 0,1 99,155" />
    <path d="M 103.26274617936795,133.56972778755497 A 56,56 0 0,1 115.40202025355333,115.40202025355335" />
    <path d="M 205.91168824543144,104.08831175456858 A 72,72 0 0,1 225.61654018903261,140.95349681483876" />
    <path d="M 227,155 A 72,72 0 0,1 214.86581208578326,195.00105677741135" />
    <path d="M 205.91168824543144,205.91168824543141 A 72,72 0 0,1 155,227" />
    <path d="M 140.95349681483876,225.61654018903261 A 72,72 0 0,1 114.99894322258867,214.86581208578326" />
    <path d="M 104.08831175456859,205.91168824543144 A 72,72 0 0,1 88.480673659187374,182.5532071302865" />
    <path d="M 84.383459810967409,169.04650318516127 A 72,72 0 0,1 84.383459810967409,140.95349681483876" />
    <path d="M 95.134187914216724,114.99894322258867 A 72,72 0 0,1 140.95349681483873,84.383459810967409" />
    <path d="M 172.16794833741929,68.690895324515722 A 88,88 0 0,1 188.6761420481279,73.698601139006769" />
    <path d="M 203.890180505725,81.83067411737602 A 88,88 0 0,1 217.22539674441617,92.774603255583813" />
    <path d="M 228.16932588262398,106.109819494275 A 88,88 0 0,1 241.30910467548426,172.16794833741929" />
    <path d="M 228.16932588262398,203.89018050572497 A 88,88 0 0,1 188.6761420481279,236.30139886099323" />
    <path d="M 155,243 A 88,88 0 0,1 137.83205166258071,241.30910467548426" />
    <path d="M 121.32385795187211,236.30139886099323 A 88,88 0 0,1 106.10981949427503,228.16932588262398" />
    <path d="M 81.83067411737602,203.890180505725 A 88,88 0 0,1 73.698601139006783,188.67614204812796" />
    <path d="M 68.690895324515722,137.83205166258071 A 88,88 0 0,1 73.698601139006769,121.32385795187207" />
    <path d="M 81.830674117375992,106.10981949427503 A 88,88 0 0,1 106.109819494275,81.83067411737602" />
    <path d="M 121.32385795187204,73.698601139006783 A 88,88 0 0,1 137.83205166258068,68.690895324515722" />
    <path d="M 97.220695765961366,68.5271603205353 A 104,104 0 0,1 155,51" />
    <path d="M 212.77930423403862,68.527160320535287 A 104,104 0 0,1 241.4728396794647,97.220695765961366" />
    <path d="M 257.001669161936,134.71060651032266 A 104,104 0 0,1 259,155" />
    <path d="M 251.08347138117381,194.79907696596933 A 104,104 0 0,1 241.47283967946473,212.77930423403859" />
    <path d="M 228.53910524340097,228.53910524340094 A 104,104 0 0,1 212.77930423403862,241.4728396794647" />
    <path d="M 194.79907696596933,251.08347138117381 A 104,104 0 0,1 155,259" />
    <path d="M 134.71060651032266,257.001669161936 A 104,104 0 0,1 115.20092303403068,251.08347138117381" />
    <path d="M 81.460894756599075,228.53910524340097 A 104,104 0 0,1 68.527160320535287,212.77930423403862" />
    <path d="M 52.998330838064035,175.28939348967737 A 104,104 0 0,1 51,155.00000000000003" />
    <path d="M 58.916528618826192,115.20092303403064 A 104,104 0 0,1 81.460894756599046,81.460894756599075" />
    <path d="M 155,35 A 120,120 0 0,1 239.85281374238571,70.1471862576143" />
    <path d="M 254.77635347630542,88.331572037647732 A 120,120 0 0,1 272.69423364838764,131.58916135806459" />
    <path d="M 275,155 A 120,120 0 0,1 272.69423364838764,178.41083864193539" />
    <path d="M 254.77635347630545,221.66842796235224 A 120,120 0 0,1 239.85281374238571,239.85281374238571" />
    <path d="M 221.66842796235227,254.77635347630542 A 120,120 0 0,1 155.00000000000003,275" />
    <path d="M 44.134456098645614,200.92201188381085 A 120,120 0 0,1 37.305766351612348,178.41083864193544" />
    <path d="M 37.305766351612348,131.58916135806462 A 120,120 0 0,1 44.1344560986456,109.0779881161892" />
    <path d="M 55.223646523694541,88.331572037647774 A 120,120 0 0,1 88.331572037647732,55.223646523694569" />
    <path d="M 109.07798811618915,44.134456098645614 A 120,120 0 0,1 131.58916135806456,37.305766351612363" />
    <path d="M 115.5212838933931,24.856114340419595 A 136,136 0 0,1 155,19" />
    <path d="M 168.33033108482024,19.654877172581223 A 136,136 0 0,1 241.2774866462558,49.87057834266777" />
    <path d="M 251.16652224137044,58.833477758629527 A 136,136 0 0,1 285.14388565958041,115.52128389339313" />
    <path d="M 288.38679813483935,128.46771620580654 A 136,136 0 0,1 280.647616421535,207.0449468016522" />
    <path d="M 274.94129195137629,219.10995620833569 A 136,136 0 0,1 268.07986727314619,230.55755169066589" />
    <path d="M 260.12942165733227,241.27748664625577 A 136,136 0 0,1 230.55755169066589,268.07986727314619" />
    <path d="M 219.10995620833569,274.94129195137629 A 136,136 0 0,1 194.4787161066069,285.14388565958041" />
    <path d="M 168.33033108482027,290.34512282741878 A 136,136 0 0,1 128.46771620580654,288.38679813483935" />
    <path d="M 115.52128389339315,285.14388565958041 A 136,136 0 0,1 24.856114340419595,194.4787161066069" />
    <path d="M 21.613201865160676,181.53228379419349 A 136,136 0 0,1 21.613201865160647,128.46771620580654" />
    <path d="M 24.856114340419595,115.52128389339316 A 136,136 0 0,1 68.722513353744148,49.870578342667827" />
    <path d="M 90.890043791664283,35.058708048623743 A 136,136 0 0,1 102.95505319834771,29.352383578465037" />
    <path d="M 169.8986053300932,3.7319215458260828 A 152,152 0 1,1 155,3" />
  </g>
  <g fill="none" stroke="#000000" stroke-width="2" stroke-linecap="butt">
    <line x1="155" y1="3" x2="155" y2="19" />
    <line x1="155" y1="51" x2="155" y2="83" />
    <line x1="155" y1="115" x2="155" y2="131" />
    <line x1="175.28939348967734" y1="52.998330838064035" x2="169.04650318516124" y2="84.383459810967409" />
    <line x1="200.92201188381077" y1="44.134456098645586" x2="182.55320713028647" y2="88.48067365918736" />
    <line x1="203.890180505725" y1="81.83067411737602" x2="195.00105677741135" y2="95.134187914216739" />
    <line x1="251.42777919287411" y1="37.50241108886398" x2="241.2774866462558" y2="49.87057834266777" />
    <line x1="251.16652224137044" y1="58.833477758629527" x2="228.53910524340094" y2="81.460894756599046" />
    <line x1="217.22539674441617" y1="92.774603255583813" x2="183.2842712474619" y2="126.7157287525381" />
    <line x1="281.38338106998685" y1="70.553324581020448" x2="268.07986727314614" y2="79.442448309334083" />
    <line x1="280.64761642153496" y1="102.95505319834778" x2="236.30139886099323" y2="121.3238579518721" />
    <line x1="272.69423364838764" y1="131.58916135806459" x2="257.001669161936" y2="134.71060651032266" />
    <line x1="241.30910467548426" y1="137.83205166258071" x2="225.61654018903261" y2="140.95349681483876" />
    <line x1="227" y1="155" x2="195" y2="155" />
    <line x1="288.38679813483935" y1="181.53228379419343" x2="257.001669161936" y2="175.28939348967734" />
    <line x1="295.4296889417156" y1="213.16788171949364" x2="236.30139886099323" y2="188.6761420481279" />
    <line x1="221.51932634081265" y1="182.55320713028647" x2="206.73725382063205" y2="176.43027221244503" />
    <line x1="268.07986727314619" y1="230.55755169066586" x2="254.77635347630547" y2="221.66842796235224" />
    <line x1="228.16932588262398" y1="203.89018050572497" x2="214.86581208578326" y2="195.00105677741135" />
    <line x1="262.48023074035524" y1="262.48023074035518" x2="228.53910524340097" y2="228.53910524340094" />
    <line x1="194.59797974644667" y1="194.59797974644664" x2="183.2842712474619" y2="183.2842712474619" />
    <line x1="230.55755169066589" y1="268.07986727314619" x2="221.66842796235227" y2="254.77635347630545" />
    <line x1="182.55320713028647" y1="221.51932634081265" x2="176.43027221244503" y2="206.73725382063205" />
    <line x1="199.12327094267829" y1="300.4549310312957" x2="194.4787161066069" y2="285.14388565958041" />
    <line x1="181.53228379419349" y1="288.38679813483935" x2="178.41083864193544" y2="272.69423364838764" />
    <line x1="175.28939348967737" y1="257.001669161936" x2="172.16794833741932" y2="241.30910467548426" />
    <line x1="155.00000000000003" y1="275" x2="155" y2="259" />
    <line x1="155" y1="243" x2="155" y2="227" />
    <line x1="155" y1="211" x2="155" y2="179" />
    <line x1="128.46771620580654" y1="288.38679813483935" x2="137.83205166258071" y2="241.30910467548426" />
    <line x1="109.07798811618923" y1="265.86554390135444" x2="133.56972778755497" y2="206.73725382063208" />
    <line x1="79.442448309334139" y1="268.07986727314619" x2="88.33157203764776" y2="254.77635347630547" />
    <line x1="97.2206957659614" y1="241.47283967946473" x2="106.10981949427503" y2="228.16932588262398" />
    <line x1="70.147186257614308" y1="239.85281374238571" x2="81.46089475659906" y2="228.53910524340097" />
    <line x1="92.774603255583827" y1="217.2253967444162" x2="104.08831175456858" y2="205.91168824543144" />
    <line x1="37.502411088864022" y1="251.4277791928742" x2="49.870578342667812" y2="241.27748664625585" />
    <line x1="41.920132726853851" y1="230.55755169066589" x2="81.83067411737602" y2="203.890180505725" />
    <line x1="44.134456098645614" y1="200.92201188381085" x2="58.916528618826206" y2="194.79907696596939" />
    <line x1="73.698601139006783" y1="188.67614204812796" x2="88.480673659187374" y2="182.5532071302865" />
    <line x1="103.26274617936795" y1="176.43027221244506" x2="118.04481869954854" y2="170.3073372946036" />
    <line x1="5.9206373787089888" y1="184.65372894645157" x2="37.305766351612363" y2="178.41083864193544" />
    <line x1="52.998330838064049" y1="175.28939348967737" x2="84.383459810967423" y2="169.04650318516127" />
    <line x1="35" y1="155.00000000000003" x2="67" y2="155.00000000000003" />
    <line x1="115" y1="155" x2="131" y2="155" />
    <line x1="37.305766351612348" y1="131.58916135806462" x2="52.998330838064035" y2="134.71060651032266" />
    <line x1="68.690895324515722" y1="137.83205166258071" x2="84.383459810967409" y2="140.95349681483876" />
    <line x1="29.352383578465023" y1="102.95505319834777" x2="73.698601139006783" y2="121.32385795187207" />
    <line x1="88.48067365918736" y1="127.44679286971352" x2="118.04481869954853" y2="139.6926627053964" />
    <line x1="41.920132726853822" y1="79.442448309334154" x2="55.223646523694541" y2="88.331572037647774" />
    <line x1="115.40202025355333" y1="115.40202025355335" x2="126.7157287525381" y2="126.7157287525381" />
    <line x1="58.572220807125817" y1="37.502411088864022" x2="68.722513353744148" y2="49.870578342667812" />
    <line x1="79.442448309334111" y1="41.920132726853851" x2="106.109819494275" y2="81.83067411737602" />
    <line x1="102.95505319834771" y1="29.352383578465037" x2="109.07798811618915" y2="44.134456098645614" />
    <line x1="115.20092303403061" y1="58.916528618826206" x2="133.56972778755494" y2="103.26274617936795" />
    <line x1="128.46771620580648" y1="21.613201865160676" x2="131.58916135806456" y2="37.305766351612363" />
  </g>
  <path fill="none" stroke="#ff0000" stroke-width="2" stroke-linecap="square" stroke-linejoin="round" d="M 162.45828649776755,3.1830906568137891 L 161.28066231390952,27.154181605737932 A 128,128 0 0,0 142.45380603781626,27.616354985958793 L 144.02208028308922,43.539310612713948 A 112,112 0 0,1 165.97791971691078,43.539310612713948 L 161.27309698109187,91.3081774929794 A 64,64 0 0,1 167.48578060903222,92.229742054193252 L 164.36433545677414,107.92230654064494 A 48,48 0 0,0 128.33262881505908,115.08945860947783 L 119.44350508674546,101.7859448126371 A 64,64 0 0,0 98.557039081705284,124.83060884313616 L 84.446298852131591,117.2882610539202 A 80,80 0 0,0 78.444773141423283,131.77722581964304 L 93.755818513138621,136.42178065571443 A 64,64 0 0,0 92.229742054193252,142.51421939096778 L 107.92230654064494,145.63566454322583 A 48,48 0 0,0 107.92230654064494,164.36433545677417 L 123.61487102709663,161.24289030451612 A 32,32 0 0,0 142.75413016431713,184.56414504036118 L 145.81559762323786,177.17310878027089" />
  <type>Circular</type>
</svg>