<?xml version="1.0" encoding="utf-8" standalone="no"?>
<!DOCTYPE svg PUBLIC "-//W3C//DTD SVG 1.1//EN" "http://www.w3.org/Graphics/SVG/1.1/DTD/svg11.dtd"[]>
<svg width="308" height="308" version="1.1" xmlns="http://www.w3.org/2000/svg">
  <title>19 cells diameter theta maze</title>
  <g fill="none" stroke="#000000" stroke-width="2" stroke-linecap="square">
    <path d="M 138.02943725152286,171.97056274847714 A 24,24 0 1,1 155,179" />
    <path d="M 155,115 A 40,40 0 0,1 183.2842712474619,183.2842712474619" />
    <path d="M 170.3073372946036,191.95518130045147 A 40,40 0 0,1 155,195" />
    <path d="M 139.6926627053964,191.95518130045147 A 40,40 0 0,1 139.69266270539637,118.04481869954854" />
    <path d="M 133.56972778755494,103.26274617936795 A 56,56 0 0,1 155,99" />
    <path d="M 176.43027221244503,103.26274617936795 A 56,56 0 0,1 211,155" />
    <path d="M 194.59797974644667,194.59797974644664 A 56,56 0 0,1 99,155" />
    <path d="M 103.26274617936795,133.56972778755497 A 56,56 0 0,1 115.40202025355333,115.40202025355335" />
    <path d="M 104.08831175456857,104.08831175456859 A 72,72 0 0,1 221.51932634081265,182.55320713028647" />
    <path d="M 214.86581208578326,195.00105677741135 A 72,72 0 0,1 205.91168824543144,205.91168824543141" />
    <path d="M 195.00105677741135,214.86581208578326 A 72,72 0 0,1 140.95349681483876,225.61654018903261" />
    <path d="M 127.44679286971355,221.51932634081265 A 72,72 0 0,1 95.134187914216739,195.00105677741135" />
    <path d="M 84.383459810967409,169.04650318516127 A 72,72 0 0,1 83,155" />
    <path d="M 84.383459810967409,140.95349681483876 A 72,72 0 0,1 88.48067365918736,127.44679286971352" />
    <path d="M 172.16794833741929,68.690895324515722 A 88,88 0 0,1 188.6761420481279,73.698601139006769" />
    <path d="M 203.890180505725,81.83067411737602 A 88,88 0 0,1 241.30910467548426,137.83205166258071" />
    <path d="M 243,155 A 88,88 0 0,1 241.30910467548426,172.16794833741929" />
    <path d="M 228.16932588262398,203.89018050572497 A 88,88 0 0,1 217.22539674441617,217.22539674441617" />
    <path d="M 203.89018050572497,228.16932588262398 A 88,88 0 0,1 172.16794833741932,241.30910467548426" />
    <path d="M 137.83205166258071,241.30910467548426 A 88,88 0 0,1 121.32385795187211,236.30139886099323" />
    <path d="M 92.774603255583827,217.2253967444162 A 88,88 0 0,1 73.698601139006783,188.67614204812796" />
    <path d="M 67,155.00000000000003 A 88,88 0 0,1 81.830674117375992,106.10981949427503" />
    <path d="M 121.32385795187204,73.698601139006783 A 88,88 0 0,1 137.83205166258068,68.690895324515722" />
    <path d="M 115.20092303403061,58.916528618826206 A 104,104 0 0,1 155,51" />
    <path d="M 175.28939348967734,52.998330838064035 A 104,104 0 0,1 259,155" />
    <path d="M 251.08347138117381,194.79907696596933 A 104,104 0 0,1 228.53910524340097,228.53910524340094" />
    <path d="M 212.77930423403862,241.4728396794647 A 104,104 0 0,1 97.220695765961409,241.47283967946473" />
    <path d="M 68.527160320535287,212.77930423403862 A 104,104 0 0,1 58.916528618826206,194.79907696596939" />
    <path d="M 51,155.00000000000003 A 104,104 0 0,1 52.998330838064035,134.71060651032266" />
    <path d="M 68.527160320535273,97.220695765961409 A 104,104 0 0,1 97.220695765961366,68.5271603205353" />
    <path d="M 155,35 A 120,120 0 0,1 178.41083864193539,37.305766351612348" />
    <path d="M 200.92201188381077,44.134456098645586 A 120,120 0 0,1 239.85281374238571,70.1471862576143" />
    <path d="M 254.77635347630542,88.331572037647732 A 120,120 0 0,1 272.69423364838764,178.41083864193539" />
    <path d="M 265.86554390135439,200.92201188381077 A 120,120 0 0,1 254.77635347630545,221.66842796235224" />
    <path d="M 239.85281374238571,239.85281374238571 A 120,120 0 0,1 221.66842796235227,254.77635347630542" />
    <path d="M 178.41083864193544,272.69423364838764 A 120,120 0 0,1 88.331572037647774,254.77635347630547" />
    <path d="M 44.134456098645614,200.92201188381085 A 120,120 0 0,1 35,155.00000000000003" />
    <path d="M 37.305766351612348,131.58916135806462 A 120,120 0 0,1 44.1344560986456,109.0779881161892" />
    <path d="M 55.223646523694541,88.331572037647774 A 120,120 0 0,1 131.58916135806456,37.305766351612363" />
    <path d="M 194.4787161066069,24.856114340419595 A 136,136 0 0,1 207.0449468016522,29.352383578464995" />
    <path d="M 219.10995620833569,35.058708048623714 A 136,136 0 0,1 251.16652224137044,58.833477758629527" />
    <path d="M 260.12942165733222,68.7225133537442 A 136,136 0 0,1 268.07986727314614,79.4424483093341" />
    <path d="M 274.94129195137629,90.8900437916643 A 136,136 0 0,1 285.14388565958041,115.52128389339313" />
    <path d="M 288.38679813483935,128.46771620580654 A 136,136 0 0,1 291,155" />
    <path d="M 290.34512282741878,168.33033108482024 A 136,136 0 0,1 285.14388565958041,194.47871610660687" />
    <path d="M 268.07986727314619,230.55755169066589 A 136,136 0 0,1 230.55755169066589,268.07986727314619" />
    <path d="M 219.10995620833569,274.94129195137629 A 136,136 0 0,1 128.46771620580654,288.38679813483935" />
    <path d="M 115.52128389339315,285.14388565958041 A 136,136 0 0,1 90.890043791664326,274.94129195137629" />
    <path d="M 79.442448309334139,268.07986727314619 A 136,136 0 0,1 49.870578342667812,241.27748664625585" />
    <path d="M 29.352383578465037,207.04494680165229 A 136,136 0 0,1 24.856114340419595,194.4787161066069" />
    <path d="M 21.613201865160676,181.53228379419349 A 136,136 0 0,1 19.654877172581223,168.33033108482022" />
    <path d="M 19,155.00000000000003 A 136,136 0 0,1 24.856114340419595,115.52128389339316" />
    <path d="M 58.833477758629513,58.833477758629556 A 136,136 0 0,1 68.722513353744148,49.870578342667827" />
    <path d="M 79.4424483093341,41.920132726853851 A 136,136 0 0,1 102.95505319834771,29.352383578465037" />
    <path d="M 128.46771620580648,21.613201865160676 A 136,136 0 0,1 141.66966891517978,19.654877172581223" />
    <path d="M 169.8986053300932,3.7319215458260828 A 152,152 0 1,1 155,3" />
  </g>
  <g fill="none" stroke="#000000" stroke-width="2" stroke-linecap="butt">
    <line x1="155" y1="19" x2="155" y2="115" />
    <line x1="169.8986053300932" y1="3.7319215458260544" x2="168.33033108482024" y2="19.654877172581223" />
    <line x1="181.53228379419343" y1="21.613201865160647" x2="178.41083864193539" y2="37.305766351612348" />
    <line x1="172.16794833741929" y1="68.690895324515722" x2="169.04650318516124" y2="84.383459810967409" />
    <line x1="207.0449468016522" y1="29.352383578465009" x2="200.92201188381077" y2="44.134456098645586" />
    <line x1="226.65230399755166" y1="20.947967819050035" x2="219.10995620833569" y2="35.058708048623714" />
    <line x1="251.16652224137044" y1="58.833477758629527" x2="239.85281374238571" y2="70.1471862576143" />
    <line x1="272.497588911136" y1="58.572220807125888" x2="260.12942165733222" y2="68.722513353744219" />
    <line x1="254.77635347630542" y1="88.331572037647732" x2="228.16932588262398" y2="106.109819494275" />
    <line x1="280.64761642153496" y1="102.95505319834778" x2="265.86554390135439" y2="109.07798811618922" />
    <line x1="221.51932634081265" y1="127.44679286971353" x2="206.73725382063205" y2="133.56972778755497" />
    <line x1="300.45493103129576" y1="110.87672905732173" x2="285.14388565958041" y2="115.52128389339313" />
    <line x1="304.079362621291" y1="125.34627105354849" x2="288.38679813483935" y2="128.46771620580654" />
    <line x1="259" y1="155" x2="227" y2="155" />
    <line x1="288.38679813483935" y1="181.53228379419343" x2="257.001669161936" y2="175.28939348967734" />
    <line x1="295.4296889417156" y1="213.16788171949364" x2="280.64761642153496" y2="207.0449468016522" />
    <line x1="265.86554390135439" y1="200.92201188381077" x2="251.08347138117381" y2="194.79907696596933" />
    <line x1="236.30139886099323" y1="188.6761420481279" x2="221.51932634081265" y2="182.55320713028647" />
    <line x1="206.73725382063205" y1="176.43027221244503" x2="191.95518130045147" y2="170.3073372946036" />
    <line x1="289.05203218094994" y1="226.65230399755166" x2="274.94129195137629" y2="219.10995620833569" />
    <line x1="268.07986727314619" y1="230.55755169066586" x2="254.77635347630547" y2="221.66842796235224" />
    <line x1="228.16932588262398" y1="203.89018050572497" x2="214.86581208578326" y2="195.00105677741135" />
    <line x1="262.48023074035524" y1="262.48023074035518" x2="251.16652224137047" y2="251.16652224137044" />
    <line x1="239.85281374238571" y1="239.85281374238571" x2="228.53910524340097" y2="228.53910524340094" />
    <line x1="205.91168824543144" y1="205.91168824543144" x2="194.59797974644667" y2="194.59797974644664" />
    <line x1="221.66842796235227" y1="254.77635347630545" x2="212.77930423403862" y2="241.4728396794647" />
    <line x1="207.04494680165223" y1="280.64761642153496" x2="200.9220118838108" y2="265.86554390135439" />
    <line x1="175.28939348967737" y1="257.001669161936" x2="172.16794833741932" y2="241.30910467548426" />
    <line x1="155" y1="243" x2="155" y2="179" />
    <line x1="128.46771620580654" y1="288.38679813483935" x2="131.58916135806459" y2="272.69423364838764" />
    <line x1="110.87672905732177" y1="300.45493103129576" x2="115.52128389339316" y2="285.14388565958041" />
    <line x1="115.20092303403067" y1="251.08347138117384" x2="121.3238579518721" y2="236.30139886099323" />
    <line x1="127.44679286971355" y1="221.51932634081265" x2="133.56972778755497" y2="206.73725382063208" />
    <line x1="70.5533245810205" y1="281.38338106998691" x2="88.33157203764776" y2="254.77635347630547" />
    <line x1="106.10981949427503" y1="228.16932588262398" x2="114.99894322258865" y2="214.86581208578326" />
    <line x1="70.147186257614308" y1="239.85281374238571" x2="92.774603255583827" y2="217.2253967444162" />
    <line x1="126.7157287525381" y1="183.2842712474619" x2="138.02943725152286" y2="171.97056274847714" />
    <line x1="28.616618930013118" y1="239.44667541897954" x2="68.5271603205353" y2="212.77930423403862" />
    <line x1="20.947967819050064" y1="226.65230399755166" x2="35.058708048623728" y2="219.10995620833569" />
    <line x1="44.134456098645614" y1="200.92201188381085" x2="58.916528618826206" y2="194.79907696596939" />
    <line x1="73.698601139006783" y1="188.67614204812796" x2="103.26274617936795" y2="176.43027221244506" />
    <line x1="9.5450689687042711" y1="199.12327094267829" x2="24.856114340419595" y2="194.4787161066069" />
    <line x1="21.613201865160676" y1="181.53228379419349" x2="37.305766351612363" y2="178.41083864193544" />
    <line x1="52.998330838064049" y1="175.28939348967737" x2="84.383459810967423" y2="169.04650318516127" />
    <line x1="3" y1="155.00000000000003" x2="19" y2="155.00000000000003" />
    <line x1="35" y1="155.00000000000003" x2="51" y2="155.00000000000003" />
    <line x1="67" y1="155.00000000000003" x2="83" y2="155" />
    <line x1="37.305766351612348" y1="131.58916135806462" x2="52.998330838064035" y2="134.71060651032266" />
    <line x1="14.570311058284432" y1="96.832118280506322" x2="29.352383578465023" y2="102.95505319834777" />
    <line x1="58.916528618826192" y1="115.20092303403064" x2="73.698601139006783" y2="121.32385795187207" />
    <line x1="88.48067365918736" y1="127.44679286971352" x2="103.26274617936795" y2="133.56972778755497" />
    <line x1="20.947967819050035" y1="83.347696002448373" x2="35.058708048623714" y2="90.890043791664326" />
    <line x1="41.920132726853822" y1="79.442448309334154" x2="95.134187914216724" y2="114.99894322258867" />
    <line x1="37.502411088863994" y1="58.572220807125873" x2="49.870578342667784" y2="68.7225133537442" />
    <line x1="92.7746032555838" y1="92.774603255583827" x2="115.40202025355333" y2="115.40202025355335" />
    <line x1="58.572220807125817" y1="37.502411088864022" x2="68.722513353744148" y2="49.870578342667812" />
    <line x1="97.220695765961381" y1="68.5271603205353" x2="114.99894322258865" y2="95.134187914216739" />
    <line x1="83.347696002448316" y1="20.947967819050064" x2="90.890043791664283" y2="35.058708048623743" />
    <line x1="115.20092303403061" y1="58.916528618826206" x2="121.32385795187204" y2="73.698601139006783" />
    <line x1="133.56972778755494" y1="103.26274617936795" x2="139.69266270539637" y2="118.04481869954854" />
    <line x1="110.8767290573217" y1="9.5450689687042711" x2="115.5212838933931" y2="24.856114340419595" />
    <line x1="140.1013946699068" y1="3.7319215458260544" x2="141.66966891517978" y2="19.654877172581223" />
  </g>
  <path fill="none" stroke="#ff0000" stroke-width="2" stroke-linecap="square" stroke-linejoin="round" d="M 162.45828649776755,3.1830906568137891 L 162.0657451031482,11.17345430645517 A 144,144 0 0,0 147.9342548968518,11.17345430645517 L 148.71933768609048,27.154181605737932 A 128,128 0 0,0 52.189435970477405,78.750489024968587 L 39.338115466787087,69.219300153089662 A 144,144 0 0,0 31.487080159960797,80.9692048361761 L 45.210737919965155,89.194848743267642 A 128,128 0 0,0 42.114078163410554,94.661217686272309 L 56.224818392984233,102.20356547548828 A 112,112 0 0,0 47.822682397992594,122.48811614750025 L 63.133727769707946,127.13267098357164 A 96,96 0 0,0 59.4622662394691,164.40964547163782 L 43.539310612713948,165.97791971691078 A 112,112 0 0,0 47.822682397992608,187.51188385249981 L 93.755818513138635,173.5782193442856 A 64,64 0 0,1 92.229742054193252,142.51421939096778 L 107.92230654064494,145.63566454322583 A 48,48 0 0,0 145.63566454322583,202.07769345935506 L 148.75710969548391,186.38512897290337 A 32,32 0 0,1 142.75413016431713,184.56414504036118 L 145.81559762323786,177.17310878027089" />
  <type>Circular</type>
</svg>