<?xml version="1.0" encoding="utf-8" standalone="no"?>
<!DOCTYPE svg PUBLIC "-//W3C//DTD SVG 1.1//EN" "http://www.w3.org/Graphics/SVG/1.1/DTD/svg11.dtd"[]>
<svg width="308" height="308" version="1.1" xmlns="http://www.w3.org/2000/svg">
  <title>19 cells diameter theta maze</title>
  <g fill="none" stroke="#000000" stroke-width="2" stroke-linecap="square">
    <path d="M 138.02943725152286,171.97056274847714 A 24,24 0 1,1 155,179" />
    <path d="M 139.69266270539637,118.04481869954854 A 40,40 0 0,1 170.3073372946036,118.04481869954853" />
    <path d="M 195,155 A 40,40 0 0,1 139.6926627053964,191.95518130045147" />
    <path d="M 118.04481869954853,170.3073372946036 A 40,40 0 0,1 115,155" />
    <path d="M 118.04481869954853,139.6926627053964 A 40,40 0 0,1 126.7157287525381,126.7157287525381" />
    <path d="M 176.43027221244503,103.26274617936795 A 56,56 0 0,1 176.43027221244503,206.73725382063205" />
    <path d="M 155,211 A 56,56 0 0,1 103.26274617936795,133.56972778755497" />
    <path d="M 115.40202025355333,115.40202025355335 A 56,56 0 0,1 133.56972778755494,103.26274617936795" />
    <path d="M 140.95349681483873,84.383459810967409 A 72,72 0 0,1 155,83" />
    <path d="M 169.04650318516124,84.383459810967409 A 72,72 0 0,1 195.00105677741135,95.134187914216739" />
    <path d="M 205.91168824543144,104.08831175456858 A 72,72 0 0,1 214.86581208578326,114.99894322258864" />
    <path d="M 221.51932634081265,127.44679286971353 A 72,72 0 0,1 169.04650318516127,225.61654018903261" />
    <path d="M 140.95349681483876,225.61654018903261 A 72,72 0 0,1 95.134187914216739,195.00105677741135" />
    <path d="M 84.383459810967409,169.04650318516127 A 72,72 0 0,1 84.383459810967409,140.95349681483876" />
    <path d="M 88.48067365918736,127.44679286971352 A 72,72 0 0,1 95.134187914216724,114.99894322258867" />
    <path d="M 114.99894322258865,95.134187914216739 A 72,72 0 0,1 127.44679286971349,88.480673659187374" />
    <path d="M 155,67 A 88,88 0 0,1 172.16794833741929,68.690895324515722" />
    <path d="M 188.6761420481279,73.698601139006769 A 88,88 0 0,1 217.22539674441617,92.774603255583813" />
    <path d="M 236.30139886099323,121.3238579518721 A 88,88 0 0,1 241.30910467548426,137.83205166258071" />
    <path d="M 243,155 A 88,88 0 0,1 236.30139886099323,188.6761420481279" />
    <path d="M 228.16932588262398,203.89018050572497 A 88,88 0 0,1 188.6761420481279,236.30139886099323" />
    <path d="M 155,243 A 88,88 0 0,1 137.83205166258071,241.30910467548426" />
    <path d="M 106.10981949427503,228.16932588262398 A 88,88 0 0,1 68.690895324515722,172.16794833741932" />
    <path d="M 68.690895324515722,137.83205166258071 A 88,88 0 0,1 73.698601139006769,121.32385795187207" />
    <path d="M 81.830674117375992,106.10981949427503 A 88,88 0 0,1 92.7746032555838,92.774603255583827" />
    <path d="M 134.71060651032261,52.998330838064049 A 104,104 0 0,1 155,51" />
    <path d="M 175.28939348967734,52.998330838064035 A 104,104 0 0,1 194.79907696596933,58.916528618826177" />
    <path d="M 228.53910524340094,81.46089475659906 A 104,104 0 0,1 259,155" />
    <path d="M 257.001669161936,175.28939348967734 A 104,104 0 0,1 241.47283967946473,212.77930423403859" />
    <path d="M 212.77930423403862,241.4728396794647 A 104,104 0 0,1 155,259" />
    <path d="M 134.71060651032266,257.001669161936 A 104,104 0 0,1 52.998330838064035,134.71060651032266" />
    <path d="M 58.916528618826192,115.20092303403064 A 104,104 0 0,1 115.20092303403061,58.916528618826206" />
    <path d="M 109.07798811618915,44.134456098645614 A 120,120 0 0,1 155,35" />
    <path d="M 221.66842796235227,55.223646523694569 A 120,120 0 0,1 265.86554390135439,109.07798811618923" />
    <path d="M 272.69423364838764,131.58916135806459 A 120,120 0 0,1 275,155" />
    <path d="M 272.69423364838764,178.41083864193539 A 120,120 0 0,1 265.86554390135439,200.92201188381077" />
    <path d="M 254.77635347630545,221.66842796235224 A 120,120 0 0,1 239.85281374238571,239.85281374238571" />
    <path d="M 178.41083864193544,272.69423364838764 A 120,120 0 0,1 109.07798811618925,265.86554390135439" />
    <path d="M 88.331572037647774,254.77635347630547 A 120,120 0 0,1 55.223646523694569,221.66842796235227" />
    <path d="M 44.134456098645614,200.92201188381085 A 120,120 0 0,1 37.305766351612348,178.41083864193544" />
    <path d="M 35,155.00000000000003 A 120,120 0 0,1 44.1344560986456,109.0779881161892" />
    <path d="M 55.223646523694541,88.331572037647774 A 120,120 0 0,1 88.331572037647732,55.223646523694569" />
    <path d="M 115.5212838933931,24.856114340419595 A 136,136 0 0,1 194.4787161066069,24.856114340419595" />
    <path d="M 207.0449468016522,29.352383578464995 A 136,136 0 0,1 260.12942165733222,68.7225133537442" />
    <path d="M 274.94129195137629,90.8900437916643 A 136,136 0 0,1 280.64761642153496,102.95505319834778" />
    <path d="M 285.14388565958041,115.52128389339313 A 136,136 0 0,1 290.34512282741878,141.66966891517973" />
    <path d="M 291,155 A 136,136 0 0,1 280.647616421535,207.0449468016522" />
    <path d="M 274.94129195137629,219.10995620833569 A 136,136 0 0,1 268.07986727314619,230.55755169066589" />
    <path d="M 260.12942165733227,241.27748664625577 A 136,136 0 0,1 251.16652224137047,251.16652224137044" />
    <path d="M 241.2774866462558,260.12942165733222 A 136,136 0 0,1 219.10995620833569,274.94129195137629" />
    <path d="M 194.4787161066069,285.14388565958041 A 136,136 0 0,1 181.53228379419349,288.3867981348393" />
    <path d="M 168.33033108482027,290.34512282741878 A 136,136 0 0,1 115.52128389339315,285.14388565958041" />
    <path d="M 102.9550531983478,280.647616421535 A 136,136 0 0,1 79.442448309334139,268.07986727314619" />
    <path d="M 68.722513353744233,260.12942165733227 A 136,136 0 0,1 58.833477758629556,251.16652224137047" />
    <path d="M 35.058708048623728,219.10995620833572 A 136,136 0 0,1 24.856114340419595,194.4787161066069" />
    <path d="M 21.613201865160676,181.53228379419349 A 136,136 0 0,1 21.613201865160647,128.46771620580654" />
    <path d="M 35.058708048623714,90.890043791664326 A 136,136 0 0,1 41.920132726853822,79.442448309334139" />
    <path d="M 49.870578342667784,68.7225133537442 A 136,136 0 0,1 68.722513353744148,49.870578342667827" />
    <path d="M 79.4424483093341,41.920132726853851 A 136,136 0 0,1 90.890043791664283,35.058708048623743" />
    <path d="M 169.8986053300932,3.7319215458260828 A 152,152 0 1,1 155,3" />
  </g>
  <g fill="none" stroke="#000000" stroke-width="2" stroke-linecap="butt">
    <line x1="155" y1="51" x2="155" y2="67" />
    <line x1="155" y1="83" x2="155" y2="115" />
    <line x1="184.65372894645151" y1="5.9206373787089888" x2="169.04650318516124" y2="84.383459810967409" />
    <line x1="213.16788171949366" y1="14.570311058284403" x2="200.92201188381077" y2="44.134456098645586" />
    <line x1="176.43027221244503" y1="103.26274617936795" x2="170.3073372946036" y2="118.04481869954853" />
    <line x1="212.77930423403862" y1="68.5271603205353" x2="203.890180505725" y2="81.83067411737602" />
    <line x1="217.22539674441617" y1="92.774603255583813" x2="205.91168824543144" y2="104.08831175456857" />
    <line x1="183.2842712474619" y1="126.7157287525381" x2="171.97056274847714" y2="138.02943725152286" />
    <line x1="281.38338106998685" y1="70.553324581020448" x2="268.07986727314614" y2="79.442448309334083" />
    <line x1="241.4728396794647" y1="97.220695765961352" x2="214.86581208578326" y2="114.99894322258864" />
    <line x1="295.4296889417156" y1="96.832118280506336" x2="265.86554390135439" y2="109.07798811618922" />
    <line x1="236.30139886099323" y1="121.3238579518721" x2="221.51932634081265" y2="127.44679286971353" />
    <line x1="206.73725382063205" y1="133.56972778755497" x2="191.95518130045147" y2="139.6926627053964" />
    <line x1="272.69423364838764" y1="131.58916135806459" x2="257.001669161936" y2="134.71060651032266" />
    <line x1="306.26807845417392" y1="140.10139466990677" x2="290.34512282741878" y2="141.66966891517973" />
    <line x1="291" y1="155" x2="275" y2="155" />
    <line x1="259" y1="155" x2="243" y2="155" />
    <line x1="295.4296889417156" y1="213.16788171949364" x2="280.64761642153496" y2="207.0449468016522" />
    <line x1="265.86554390135439" y1="200.92201188381077" x2="251.08347138117381" y2="194.79907696596933" />
    <line x1="236.30139886099323" y1="188.6761420481279" x2="221.51932634081265" y2="182.55320713028647" />
    <line x1="268.07986727314619" y1="230.55755169066586" x2="254.77635347630547" y2="221.66842796235224" />
    <line x1="241.47283967946473" y1="212.77930423403859" x2="228.16932588262398" y2="203.89018050572497" />
    <line x1="272.49758891113606" y1="251.42777919287408" x2="260.12942165733227" y2="241.27748664625577" />
    <line x1="239.85281374238571" y1="239.85281374238571" x2="217.22539674441617" y2="217.22539674441617" />
    <line x1="194.59797974644667" y1="194.59797974644664" x2="183.2842712474619" y2="183.2842712474619" />
    <line x1="251.42777919287411" y1="272.497588911136" x2="241.2774866462558" y2="260.12942165733222" />
    <line x1="230.55755169066589" y1="268.07986727314619" x2="221.66842796235227" y2="254.77635347630545" />
    <line x1="212.77930423403862" y1="241.4728396794647" x2="203.890180505725" y2="228.16932588262398" />
    <line x1="213.16788171949366" y1="295.4296889417156" x2="207.04494680165223" y2="280.64761642153496" />
    <line x1="200.9220118838108" y1="265.86554390135439" x2="194.79907696596933" y2="251.08347138117381" />
    <line x1="182.55320713028647" y1="221.51932634081265" x2="176.43027221244503" y2="206.73725382063205" />
    <line x1="181.53228379419349" y1="288.38679813483935" x2="178.41083864193544" y2="272.69423364838764" />
    <line x1="172.16794833741932" y1="241.30910467548426" x2="169.04650318516127" y2="225.61654018903261" />
    <line x1="155.00000000000003" y1="275" x2="155" y2="211" />
    <line x1="155" y1="195" x2="155" y2="179" />
    <line x1="110.87672905732177" y1="300.45493103129576" x2="115.52128389339316" y2="285.14388565958041" />
    <line x1="102.9550531983478" y1="280.647616421535" x2="109.07798811618923" y2="265.86554390135444" />
    <line x1="115.20092303403067" y1="251.08347138117384" x2="127.44679286971355" y2="221.51932634081265" />
    <line x1="58.572220807125916" y1="272.49758891113606" x2="68.722513353744247" y2="260.12942165733227" />
    <line x1="58.833477758629542" y1="251.1665222413705" x2="70.147186257614308" y2="239.85281374238571" />
    <line x1="115.40202025355335" y1="194.59797974644667" x2="138.02943725152286" y2="171.97056274847714" />
    <line x1="37.502411088864022" y1="251.4277791928742" x2="49.870578342667812" y2="241.27748664625585" />
    <line x1="41.920132726853851" y1="230.55755169066589" x2="55.223646523694569" y2="221.66842796235227" />
    <line x1="81.83067411737602" y1="203.890180505725" x2="95.134187914216739" y2="195.00105677741135" />
    <line x1="29.352383578465037" y1="207.04494680165229" x2="44.134456098645614" y2="200.92201188381085" />
    <line x1="73.698601139006783" y1="188.67614204812796" x2="88.480673659187374" y2="182.5532071302865" />
    <line x1="21.613201865160676" y1="181.53228379419349" x2="52.998330838064049" y2="175.28939348967737" />
    <line x1="51" y1="155.00000000000003" x2="67" y2="155.00000000000003" />
    <line x1="83" y1="155" x2="99" y2="155" />
    <line x1="115" y1="155" x2="131" y2="155" />
    <line x1="5.9206373787089888" y1="125.34627105354849" x2="21.613201865160647" y2="128.46771620580654" />
    <line x1="37.305766351612348" y1="131.58916135806462" x2="52.998330838064035" y2="134.71060651032266" />
    <line x1="68.690895324515722" y1="137.83205166258071" x2="84.383459810967409" y2="140.95349681483876" />
    <line x1="9.5450689687042427" y1="110.87672905732177" x2="24.856114340419595" y2="115.52128389339316" />
    <line x1="29.352383578465023" y1="102.95505319834777" x2="44.1344560986456" y2="109.0779881161892" />
    <line x1="103.26274617936795" y1="133.56972778755497" x2="118.04481869954853" y2="139.6926627053964" />
    <line x1="20.947967819050035" y1="83.347696002448373" x2="35.058708048623714" y2="90.890043791664326" />
    <line x1="41.920132726853822" y1="79.442448309334154" x2="55.223646523694541" y2="88.331572037647774" />
    <line x1="81.830674117376" y1="106.10981949427503" x2="95.134187914216724" y2="114.99894322258867" />
    <line x1="37.502411088863994" y1="58.572220807125873" x2="49.870578342667784" y2="68.7225133537442" />
    <line x1="92.7746032555838" y1="92.774603255583827" x2="115.40202025355333" y2="115.40202025355335" />
    <line x1="70.553324581020462" y1="28.616618930013118" x2="79.442448309334111" y2="41.920132726853851" />
    <line x1="88.331572037647732" y1="55.223646523694569" x2="106.109819494275" y2="81.83067411737602" />
    <line x1="96.832118280506251" y1="14.57031105828446" x2="109.07798811618915" y2="44.134456098645614" />
    <line x1="115.20092303403061" y1="58.916528618826206" x2="127.44679286971349" y2="88.480673659187374" />
    <line x1="133.56972778755494" y1="103.26274617936795" x2="139.69266270539637" y2="118.04481869954854" />
    <line x1="137.83205166258068" y1="68.690895324515736" x2="140.95349681483873" y2="84.383459810967423" />
  </g>
  <path fill="none" stroke="#ff0000" stroke-width="2" stroke-linecap="square" stroke-linejoin="round" d="M 162.45828649776755,3.1830906568137891 L 162.0657451031482,11.17345430645517 A 144,144 0 0,0 106.48786111152032,19.417654613645 L 111.87809876579584,34.482359656573337 A 128,128 0 0,1 167.54619396218376,27.616354985958793 L 165.97791971691078,43.539310612713948 A 112,112 0 0,0 122.48811614750019,47.822682397992608 L 136.4217806557144,93.755818513138635 A 64,64 0 0,0 114.39882981352666,105.52733098478485 L 94.098244720289983,80.790996477177288 A 96,96 0 0,0 59.462266239469088,145.59035452836224 L 75.385221866224242,147.1586287736352 A 80,80 0 0,0 78.4447731414233,178.222774180357 L 93.755818513138635,173.5782193442856 A 64,64 0 0,0 148.72690301890813,218.69182250702062 L 147.15862877363514,234.61477813377576 A 80,80 0 0,1 131.77722581964304,231.5552268585767 L 127.13267098357164,246.86627223029205 A 96,96 0 0,0 145.59035452836218,250.5377337605309 L 144.02208028308922,266.46068938728604 A 112,112 0 0,1 102.20356547548826,253.77518160701578 L 94.6612176862723,267.88592183658943 A 128,128 0 0,1 78.750489024968545,257.81056402952254 L 69.2193001530896,270.66188453321286 A 144,144 0 0,0 106.48786111152032,290.582345386355 L 111.87809876579583,275.51764034342665 A 128,128 0 0,0 173.78150073028633,281.614593275492 L 176.12918832157209,297.44141743492844 A 144,144 0 0,0 203.51213888847974,290.582345386355 L 198.12190123420419,275.51764034342665 A 128,128 0 0,0 215.33878231372773,267.88592183658943 L 207.79643452451177,253.77518160701575 A 112,112 0 0,0 226.05204782632831,241.57717077662653 L 236.20234037294662,253.94533803043032 A 128,128 0 0,0 257.81056402952254,231.24951097503146 L 270.66188453321286,240.78069984691041 A 144,144 0 0,0 285.17445820977582,216.56793345396059 L 270.71062951980076,209.72705195907608 A 128,128 0 0,0 282.38364501404124,167.54619396218376 L 250.5377337605309,164.40964547163782 A 96,96 0 0,1 239.66444137744207,200.25408673529577 L 225.5537011478684,192.71173894607981 A 80,80 0 0,1 178.222774180357,231.5552268585767 L 182.86732901642839,246.86627223029205 A 96,96 0 0,1 164.40964547163785,250.5377337605309 L 161.2730969810919,218.69182250702059 A 64,64 0 0,0 167.48578060903222,217.77025794580675 L 164.36433545677417,202.07769345935506 A 48,48 0 0,1 128.33262881505911,194.91054139052218 L 137.22175254337273,181.60702759368147 A 32,32 0 0,0 142.75413016431713,184.56414504036118 L 145.81559762323786,177.17310878027089" />
  <type>Circular</type>
</svg>