<?xml version="1.0" encoding="utf-8" standalone="no"?>
<!DOCTYPE svg PUBLIC "-//W3C//DTD SVG 1.1//EN" "http://www.w3.org/Graphics/SVG/1.1/DTD/svg11.dtd"[]>
<svg width="308" height="308" version="1.1" xmlns="http://www.w3.org/2000/svg">
  <title>19 cells diameter theta maze</title>
  <g fill="none" stroke="#000000" stroke-width="2" stroke-linecap="square">
    <path d="M 138.02943725152286,171.97056274847714 A 24,24 0 1,1 155,179" />
    <path d="M 139.69266270539637,118.04481869954854 A 40,40 0 0,1 170.3073372946036,118.04481869954853" />
    <path d="M 191.95518130045147,139.6926627053964 A 40,40 0 0,1 195,155" />
    <path d="M 183.2842712474619,183.2842712474619 A 40,40 0 0,1 155,195" />
    <path d="M 139.6926627053964,191.95518130045147 A 40,40 0 0,1 126.7157287525381,183.2842712474619" />
    <path d="M 115,155 A 40,40 0 0,1 118.04481869954853,139.6926627053964" />
    <path d="M 176.43027221244503,103.26274617936795 A 56,56 0 0,1 211,155" />
    <path d="M 206.73725382063208,176.43027221244503 A 56,56 0 0,1 176.43027221244503,206.73725382063205" />
    <path d="M 115.40202025355335,194.59797974644667 A 56,56 0 0,1 133.56972778755494,103.26274617936795" />
    <path d="M 140.95349681483873,84.383459810967409 A 72,72 0 0,1 195.00105677741135,95.134187914216739" />
    <path d="M 205.91168824543144,104.08831175456858 A 72,72 0 0,1 214.86581208578326,114.99894322258864" />
    <path d="M 221.51932634081265,127.44679286971353 A 72,72 0 0,1 225.61654018903261,140.95349681483876" />
    <path d="M 227,155 A 72,72 0 0,1 214.86581208578326,195.00105677741135" />
    <path d="M 205.91168824543144,205.91168824543141 A 72,72 0 0,1 169.04650318516127,225.61654018903261" />
    <path d="M 155,227 A 72,72 0 0,1 140.95349681483876,225.61654018903261" />
    <path d="M 114.99894322258867,214.86581208578326 A 72,72 0 0,1 104.08831175456859,205.91168824543144" />
    <path d="M 95.134187914216739,195.00105677741135 A 72,72 0 0,1 83,155" />
    <path d="M 84.383459810967409,140.95349681483876 A 72,72 0 0,1 95.134187914216724,114.99894322258867" />
    <path d="M 137.83205166258068,68.690895324515722 A 88,88 0 0,1 155,67" />
    <path d="M 172.16794833741929,68.690895324515722 A 88,88 0 0,1 217.22539674441617,92.774603255583813" />
    <path d="M 241.30910467548426,137.83205166258071 A 88,88 0 0,1 243,155" />
    <path d="M 228.16932588262398,203.89018050572497 A 88,88 0 0,1 203.89018050572497,228.16932588262398" />
    <path d="M 188.6761420481279,236.30139886099323 A 88,88 0 0,1 172.16794833741932,241.30910467548426" />
    <path d="M 137.83205166258071,241.30910467548426 A 88,88 0 0,1 106.10981949427503,228.16932588262398" />
    <path d="M 73.698601139006783,188.67614204812796 A 88,88 0 0,1 67,155.00000000000003" />
    <path d="M 81.830674117375992,106.10981949427503 A 88,88 0 0,1 92.7746032555838,92.774603255583827" />
    <path d="M 58.916528618826192,115.20092303403064 A 104,104 0 0,1 155,51" />
    <path d="M 175.28939348967734,52.998330838064035 A 104,104 0 0,1 228.53910524340094,81.46089475659906" />
    <path d="M 241.4728396794647,97.220695765961366 A 104,104 0 0,1 251.08347138117381,115.20092303403067" />
    <path d="M 257.001669161936,175.28939348967734 A 104,104 0 0,1 241.47283967946473,212.77930423403859" />
    <path d="M 228.53910524340097,228.53910524340094 A 104,104 0 0,1 115.20092303403068,251.08347138117381" />
    <path d="M 97.220695765961409,241.47283967946473 A 104,104 0 0,1 58.916528618826206,194.79907696596939" />
    <path d="M 51,155.00000000000003 A 104,104 0 0,1 52.998330838064035,134.71060651032266" />
    <path d="M 44.1344560986456,109.0779881161892 A 120,120 0 0,1 178.41083864193539,37.305766351612348" />
    <path d="M 200.92201188381077,44.134456098645586 A 120,120 0 0,1 221.66842796235227,55.223646523694569" />
    <path d="M 239.85281374238571,70.1471862576143 A 120,120 0 0,1 254.77635347630542,88.331572037647732" />
    <path d="M 265.86554390135439,109.07798811618923 A 120,120 0 0,1 272.69423364838764,131.58916135806459" />
    <path d="M 275,155 A 120,120 0 0,1 239.85281374238571,239.85281374238571" />
    <path d="M 221.66842796235227,254.77635347630542 A 120,120 0 0,1 178.41083864193544,272.69423364838764" />
    <path d="M 155.00000000000003,275 A 120,120 0 0,1 131.58916135806459,272.69423364838764" />
    <path d="M 109.07798811618925,265.86554390135439 A 120,120 0 0,1 55.223646523694569,221.66842796235227" />
    <path d="M 44.134456098645614,200.92201188381085 A 120,120 0 0,1 35,155.00000000000003" />
    <path d="M 128.46771620580648,21.613201865160676 A 136,136 0 0,1 168.33033108482024,19.654877172581223" />
    <path d="M 181.53228379419343,21.613201865160647 A 136,136 0 0,1 194.4787161066069,24.856114340419595" />
    <path d="M 219.10995620833569,35.058708048623714 A 136,136 0 0,1 268.07986727314614,79.4424483093341" />
    <path d="M 280.64761642153496,102.95505319834778 A 136,136 0 0,1 285.14388565958041,115.52128389339313" />
    <path d="M 288.38679813483935,128.46771620580654 A 136,136 0 0,1 290.34512282741878,141.66966891517973" />
    <path d="M 290.34512282741878,168.33033108482024 A 136,136 0 0,1 241.2774866462558,260.12942165733222" />
    <path d="M 230.55755169066589,268.07986727314619 A 136,136 0 0,1 219.10995620833569,274.94129195137629" />
    <path d="M 207.04494680165223,280.64761642153496 A 136,136 0 0,1 194.4787161066069,285.14388565958041" />
    <path d="M 181.53228379419349,288.3867981348393 A 136,136 0 0,1 79.442448309334139,268.07986727314619" />
    <path d="M 68.722513353744233,260.12942165733227 A 136,136 0 0,1 24.856114340419595,194.4787161066069" />
    <path d="M 21.613201865160676,181.53228379419349 A 136,136 0 0,1 21.613201865160647,128.46771620580654" />
    <path d="M 35.058708048623714,90.890043791664326 A 136,136 0 0,1 115.5212838933931,24.856114340419595" />
    <path d="M 169.8986053300932,3.7319215458260828 A 152,152 0 1,1 155,3" />
  </g>
  <g fill="none" stroke="#000000" stroke-width="2" stroke-linecap="butt">
    <line x1="155" y1="67" x2="155" y2="99" />
    <line x1="181.53228379419343" y1="21.613201865160647" x2="175.28939348967734" y2="52.998330838064035" />
    <line x1="172.16794833741929" y1="68.690895324515722" x2="169.04650318516124" y2="84.383459810967409" />
    <line x1="213.16788171949366" y1="14.570311058284403" x2="200.92201188381077" y2="44.134456098645586" />
    <line x1="176.43027221244503" y1="103.26274617936795" x2="170.3073372946036" y2="118.04481869954853" />
    <line x1="230.55755169066589" y1="41.920132726853851" x2="221.66842796235227" y2="55.223646523694569" />
    <line x1="228.53910524340094" y1="81.460894756599046" x2="217.22539674441617" y2="92.774603255583813" />
    <line x1="183.2842712474619" y1="126.7157287525381" x2="171.97056274847714" y2="138.02943725152286" />
    <line x1="254.77635347630542" y1="88.331572037647732" x2="214.86581208578326" y2="114.99894322258864" />
    <line x1="289.05203218094994" y1="83.34769600244833" x2="274.94129195137629" y2="90.8900437916643" />
    <line x1="295.4296889417156" y1="96.832118280506336" x2="265.86554390135439" y2="109.07798811618922" />
    <line x1="251.08347138117381" y1="115.20092303403067" x2="206.73725382063205" y2="133.56972778755497" />
    <line x1="288.38679813483935" y1="128.46771620580654" x2="241.30910467548426" y2="137.83205166258071" />
    <line x1="291" y1="155" x2="243" y2="155" />
    <line x1="227" y1="155" x2="211" y2="155" />
    <line x1="195" y1="155" x2="179" y2="155" />
    <line x1="257.001669161936" y1="175.28939348967734" x2="241.30910467548426" y2="172.16794833741929" />
    <line x1="300.45493103129576" y1="199.12327094267823" x2="285.14388565958041" y2="194.47871610660684" />
    <line x1="236.30139886099323" y1="188.6761420481279" x2="191.95518130045147" y2="170.3073372946036" />
    <line x1="254.77635347630547" y1="221.66842796235224" x2="241.47283967946473" y2="212.77930423403859" />
    <line x1="228.53910524340097" y1="228.53910524340094" x2="217.22539674441617" y2="217.22539674441617" />
    <line x1="230.55755169066589" y1="268.07986727314619" x2="221.66842796235227" y2="254.77635347630545" />
    <line x1="200.9220118838108" y1="265.86554390135439" x2="194.79907696596933" y2="251.08347138117381" />
    <line x1="182.55320713028647" y1="221.51932634081265" x2="176.43027221244503" y2="206.73725382063205" />
    <line x1="199.12327094267829" y1="300.4549310312957" x2="194.4787161066069" y2="285.14388565958041" />
    <line x1="175.28939348967737" y1="257.001669161936" x2="172.16794833741932" y2="241.30910467548426" />
    <line x1="155.00000000000003" y1="275" x2="155" y2="179" />
    <line x1="110.87672905732177" y1="300.45493103129576" x2="115.52128389339316" y2="285.14388565958041" />
    <line x1="102.9550531983478" y1="280.647616421535" x2="115.20092303403067" y2="251.08347138117384" />
    <line x1="121.3238579518721" y1="236.30139886099323" x2="139.6926627053964" y2="191.95518130045147" />
    <line x1="97.2206957659614" y1="241.47283967946473" x2="114.99894322258865" y2="214.86581208578326" />
    <line x1="92.774603255583827" y1="217.2253967444162" x2="115.40202025355335" y2="194.59797974644667" />
    <line x1="126.7157287525381" y1="183.2842712474619" x2="138.02943725152286" y2="171.97056274847714" />
    <line x1="81.83067411737602" y1="203.890180505725" x2="95.134187914216739" y2="195.00105677741135" />
    <line x1="29.352383578465037" y1="207.04494680165229" x2="58.916528618826206" y2="194.79907696596939" />
    <line x1="73.698601139006783" y1="188.67614204812796" x2="88.480673659187374" y2="182.5532071302865" />
    <line x1="103.26274617936795" y1="176.43027221244506" x2="118.04481869954854" y2="170.3073372946036" />
    <line x1="52.998330838064049" y1="175.28939348967737" x2="68.690895324515736" y2="172.16794833741932" />
    <line x1="3.7319215458260544" y1="169.89860533009318" x2="19.654877172581223" y2="168.33033108482022" />
    <line x1="51" y1="155.00000000000003" x2="67" y2="155.00000000000003" />
    <line x1="21.613201865160647" y1="128.46771620580654" x2="84.383459810967409" y2="140.95349681483876" />
    <line x1="9.5450689687042427" y1="110.87672905732177" x2="24.856114340419595" y2="115.52128389339316" />
    <line x1="29.352383578465023" y1="102.95505319834777" x2="44.1344560986456" y2="109.0779881161892" />
    <line x1="58.916528618826192" y1="115.20092303403064" x2="88.48067365918736" y2="127.44679286971352" />
    <line x1="103.26274617936795" y1="133.56972778755497" x2="118.04481869954853" y2="139.6926627053964" />
    <line x1="68.527160320535273" y1="97.220695765961409" x2="81.830674117376" y2="106.10981949427503" />
    <line x1="104.08831175456857" y1="104.08831175456859" x2="115.40202025355333" y2="115.40202025355335" />
    <line x1="126.7157287525381" y1="126.7157287525381" x2="138.02943725152286" y2="138.02943725152286" />
    <line x1="97.220695765961381" y1="68.5271603205353" x2="114.99894322258865" y2="95.134187914216739" />
    <line x1="121.32385795187204" y1="73.698601139006783" x2="139.69266270539637" y2="118.04481869954854" />
    <line x1="110.8767290573217" y1="9.5450689687042711" x2="115.5212838933931" y2="24.856114340419595" />
    <line x1="128.46771620580648" y1="21.613201865160676" x2="131.58916135806456" y2="37.305766351612363" />
    <line x1="134.71060651032261" y1="52.998330838064049" x2="137.83205166258068" y2="68.690895324515736" />
  </g>
  <path fill="none" stroke="#ff0000" stroke-width="2" stroke-linecap="square" stroke-linejoin="round" d="M 162.45828649776755,3.1830906568137891 L 162.0657451031482,11.17345430645517 A 144,144 0 0,1 203.51213888847968,19.417654613645 L 198.12190123420416,34.482359656573337 A 128,128 0 0,0 192.15643868857117,32.51163702627727 L 187.51188385249978,47.822682397992608 A 112,112 0 0,1 241.57717077662653,83.9479521736717 L 216.84083626901895,104.24853726690836 A 80,80 0 0,0 205.75146273309164,93.159163730981049 L 195.60117018647333,105.52733098478484 A 64,64 0 0,0 167.48578060903222,92.229742054193252 L 164.36433545677414,107.92230654064494 A 48,48 0 0,0 145.63566454322583,107.92230654064494 L 142.51421939096775,92.229742054193252 A 64,64 0 0,0 136.4217806557144,93.755818513138635 L 127.1326709835716,63.133727769707946 A 96,96 0 0,0 109.7459132647042,70.335558622557926 L 124.83060884313613,98.557039081705284 A 64,64 0 0,0 114.39882981352666,105.52733098478485 L 104.24853726690833,93.159163730981078 A 80,80 0 0,0 93.159163730981049,104.24853726690836 L 105.52733098478484,114.39882981352668 A 64,64 0 0,0 105.52733098478485,195.60117018647333 L 80.790996477177288,215.90175527971002 A 96,96 0 0,1 63.133727769707946,182.86732901642839 L 47.822682397992608,187.51188385249981 A 112,112 0 0,1 43.539310612713948,144.02208028308928 L 27.616354985958793,142.45380603781632 A 128,128 0 0,0 30.835999591098371,186.1014630276178 L 15.315499539985666,189.98914590607004 A 144,144 0 0,0 69.2193001530896,270.66188453321286 L 78.750489024968545,257.81056402952254 A 128,128 0 0,1 42.114078163410568,215.33878231372773 L 56.224818392984247,207.79643452451177 A 112,112 0 0,0 102.20356547548826,253.77518160701578 L 109.74591326470423,239.66444137744207 A 96,96 0 0,0 145.59035452836218,250.5377337605309 L 147.15862877363514,234.61477813377576 A 80,80 0 0,1 131.77722581964304,231.5552268585767 L 136.42178065571443,216.24418148686138 A 64,64 0 0,0 142.51421939096778,217.77025794580675 L 148.75710969548391,186.38512897290337 A 32,32 0 0,1 142.75413016431713,184.56414504036118 L 145.81559762323786,177.17310878027089" />
  <type>Circular</type>
</svg>