<?xml version="1.0" encoding="utf-8" standalone="no"?>
<!DOCTYPE svg PUBLIC "-//W3C//DTD SVG 1.1//EN" "http://www.w3.org/Graphics/SVG/1.1/DTD/svg11.dtd"[]>
<svg width="308" height="308" version="1.1" xmlns="http://www.w3.org/2000/svg">
  <title>19 cells diameter theta maze</title>
  <g fill="none" stroke="#000000" stroke-width="2" stroke-linecap="square">
    <path d="M 138.02943725152286,171.97056274847714 A 24,24 0 1,1 155,179" />
    <path d="M 139.69266270539637,118.04481869954854 A 40,40 0 0,1 170.3073372946036,118.04481869954853" />
    <path d="M 191.95518130045147,139.6926627053964 A 40,40 0 0,1 195,155" />
    <path d="M 191.95518130045147,170.3073372946036 A 40,40 0 0,1 170.3073372946036,191.95518130045147" />
    <path d="M 155,195 A 40,40 0 0,1 118.04481869954853,170.3073372946036" />
    <path d="M 115,155 A 40,40 0 0,1 126.7157287525381,126.7157287525381" />
    <path d="M 176.43027221244503,103.26274617936795 A 56,56 0 0,1 194.59797974644667,115.40202025355333" />
    <path d="M 211,155 A 56,56 0 0,1 194.59797974644667,194.59797974644664" />
    <path d="M 176.43027221244503,206.73725382063205 A 56,56 0 0,1 133.569727787555,206.73725382063208" />
    <path d="M 103.26274617936795,176.43027221244506 A 56,56 0 0,1 103.26274617936795,133.56972778755497" />
    <path d="M 114.99894322258865,95.134187914216739 A 72,72 0 0,1 195.00105677741135,95.134187914216739" />
    <path d="M 205.91168824543144,104.08831175456858 A 72,72 0 0,1 225.61654018903261,140.95349681483876" />
    <path d="M 227,155 A 72,72 0 0,1 221.51932634081265,182.55320713028647" />
    <path d="M 214.86581208578326,195.00105677741135 A 72,72 0 0,1 182.55320713028647,221.51932634081265" />
    <path d="M 169.04650318516127,225.61654018903261 A 72,72 0 0,1 155,227" />
    <path d="M 140.95349681483876,225.61654018903261 A 72,72 0 0,1 84.383459810967409,169.04650318516127" />
    <path d="M 83,155 A 72,72 0 0,1 104.08831175456857,104.08831175456859" />
    <path d="M 81.830674117375992,106.10981949427503 A 88,88 0 0,1 172.16794833741929,68.690895324515722" />
    <path d="M 228.16932588262398,106.109819494275 A 88,88 0 0,1 217.22539674441617,217.22539674441617" />
    <path d="M 155,243 A 88,88 0 0,1 137.83205166258071,241.30910467548426" />
    <path d="M 121.32385795187211,236.30139886099323 A 88,88 0 0,1 73.698601139006783,188.67614204812796" />
    <path d="M 68.690895324515722,172.16794833741932 A 88,88 0 0,1 67,155.00000000000003" />
    <path d="M 155,51 A 104,104 0 0,1 194.79907696596933,58.916528618826177" />
    <path d="M 228.53910524340094,81.46089475659906 A 104,104 0 0,1 241.4728396794647,97.220695765961366" />
    <path d="M 251.08347138117381,115.20092303403067 A 104,104 0 0,1 241.47283967946473,212.77930423403859" />
    <path d="M 228.53910524340097,228.53910524340094 A 104,104 0 0,1 155,259" />
    <path d="M 97.220695765961409,241.47283967946473 A 104,104 0 0,1 81.460894756599075,228.53910524340097" />
    <path d="M 58.916528618826206,194.79907696596939 A 104,104 0 0,1 52.998330838064035,175.28939348967737" />
    <path d="M 51,155.00000000000003 A 104,104 0 0,1 68.527160320535273,97.220695765961409" />
    <path d="M 115.20092303403061,58.916528618826206 A 104,104 0 0,1 134.71060651032261,52.998330838064049" />
    <path d="M 109.07798811618915,44.134456098645614 A 120,120 0 0,1 239.85281374238571,70.1471862576143" />
    <path d="M 254.77635347630542,88.331572037647732 A 120,120 0 0,1 275,155" />
    <path d="M 265.86554390135439,200.92201188381077 A 120,120 0 0,1 200.9220118838108,265.86554390135439" />
    <path d="M 178.41083864193544,272.69423364838764 A 120,120 0 0,1 155.00000000000003,275" />
    <path d="M 131.58916135806459,272.69423364838764 A 120,120 0 0,1 88.331572037647774,254.77635347630547" />
    <path d="M 55.223646523694569,221.66842796235227 A 120,120 0 0,1 35,155.00000000000003" />
    <path d="M 55.223646523694541,88.331572037647774 A 120,120 0 0,1 70.14718625761428,70.147186257614322" />
    <path d="M 168.33033108482024,19.654877172581223 A 136,136 0 0,1 181.53228379419343,21.613201865160647" />
    <path d="M 194.4787161066069,24.856114340419595 A 136,136 0 0,1 219.10995620833569,35.058708048623714" />
    <path d="M 241.2774866462558,49.87057834266777 A 136,136 0 0,1 268.07986727314614,79.4424483093341" />
    <path d="M 274.94129195137629,90.8900437916643 A 136,136 0 0,1 290.34512282741878,141.66966891517973" />
    <path d="M 290.34512282741878,168.33033108482024 A 136,136 0 0,1 288.38679813483935,181.53228379419343" />
    <path d="M 285.14388565958041,194.47871610660687 A 136,136 0 0,1 274.94129195137629,219.10995620833569" />
    <path d="M 268.07986727314619,230.55755169066589 A 136,136 0 0,1 260.12942165733227,241.27748664625577" />
    <path d="M 230.55755169066589,268.07986727314619 A 136,136 0 0,1 168.33033108482027,290.34512282741878" />
    <path d="M 141.66966891517976,290.34512282741878 A 136,136 0 0,1 115.52128389339315,285.14388565958041" />
    <path d="M 90.890043791664326,274.94129195137629 A 136,136 0 0,1 79.442448309334139,268.07986727314619" />
    <path d="M 68.722513353744233,260.12942165733227 A 136,136 0 0,1 29.352383578465037,207.04494680165229" />
    <path d="M 19,155.00000000000003 A 136,136 0 0,1 19.654877172581223,141.66966891517984" />
    <path d="M 21.613201865160647,128.46771620580654 A 136,136 0 0,1 24.856114340419595,115.52128389339316" />
    <path d="M 29.352383578465009,102.95505319834777 A 136,136 0 0,1 35.058708048623714,90.890043791664326" />
    <path d="M 49.870578342667784,68.7225133537442 A 136,136 0 0,1 79.4424483093341,41.920132726853851" />
    <path d="M 90.890043791664283,35.058708048623743 A 136,136 0 0,1 128.46771620580648,21.613201865160676" />
    <path d="M 169.8986053300932,3.7319215458260828 A 152,152 0 1,1 155,3" />
  </g>
  <g fill="none" stroke="#000000" stroke-width="2" stroke-linecap="butt">
    <line x1="155" y1="19" x2="155" y2="35" />
    <line x1="155" y1="51" x2="155" y2="67" />
    <line x1="155" y1="83" x2="155" y2="115" />
    <line x1="181.53228379419343" y1="21.613201865160647" x2="178.41083864193539" y2="37.305766351612348" />
    <line x1="199.12327094267829" y1="9.5450689687042711" x2="194.47871610660687" y2="24.856114340419595" />
    <line x1="194.79907696596933" y1="58.916528618826177" x2="176.43027221244503" y2="103.26274617936795" />
    <line x1="239.44667541897954" y1="28.616618930013118" x2="203.890180505725" y2="81.83067411737602" />
    <line x1="228.53910524340094" y1="81.460894756599046" x2="217.22539674441617" y2="92.774603255583813" />
    <line x1="194.59797974644664" y1="115.40202025355333" x2="171.97056274847714" y2="138.02943725152286" />
    <line x1="281.38338106998685" y1="70.553324581020448" x2="268.07986727314614" y2="79.442448309334083" />
    <line x1="254.77635347630542" y1="88.331572037647732" x2="228.16932588262398" y2="106.109819494275" />
    <line x1="221.51932634081265" y1="127.44679286971353" x2="191.95518130045147" y2="139.6926627053964" />
    <line x1="300.45493103129576" y1="110.87672905732173" x2="285.14388565958041" y2="115.52128389339313" />
    <line x1="241.30910467548426" y1="137.83205166258071" x2="225.61654018903261" y2="140.95349681483876" />
    <line x1="291" y1="155" x2="275" y2="155" />
    <line x1="288.38679813483935" y1="181.53228379419343" x2="257.001669161936" y2="175.28939348967734" />
    <line x1="280.64761642153496" y1="207.0449468016522" x2="265.86554390135439" y2="200.92201188381077" />
    <line x1="236.30139886099323" y1="188.6761420481279" x2="221.51932634081265" y2="182.55320713028647" />
    <line x1="281.38338106998691" y1="239.44667541897951" x2="268.07986727314619" y2="230.55755169066586" />
    <line x1="254.77635347630547" y1="221.66842796235224" x2="241.47283967946473" y2="212.77930423403859" />
    <line x1="262.48023074035524" y1="262.48023074035518" x2="251.16652224137047" y2="251.16652224137044" />
    <line x1="228.53910524340097" y1="228.53910524340094" x2="217.22539674441617" y2="217.22539674441617" />
    <line x1="205.91168824543144" y1="205.91168824543144" x2="194.59797974644667" y2="194.59797974644664" />
    <line x1="183.2842712474619" y1="183.2842712474619" x2="171.97056274847714" y2="171.97056274847714" />
    <line x1="251.42777919287411" y1="272.497588911136" x2="241.2774866462558" y2="260.12942165733222" />
    <line x1="230.55755169066589" y1="268.07986727314619" x2="221.66842796235227" y2="254.77635347630545" />
    <line x1="212.77930423403862" y1="241.4728396794647" x2="195.00105677741135" y2="214.86581208578326" />
    <line x1="213.16788171949366" y1="295.4296889417156" x2="207.04494680165223" y2="280.64761642153496" />
    <line x1="188.6761420481279" y1="236.30139886099323" x2="182.55320713028647" y2="221.51932634081265" />
    <line x1="176.43027221244503" y1="206.73725382063205" x2="170.3073372946036" y2="191.95518130045147" />
    <line x1="175.28939348967737" y1="257.001669161936" x2="169.04650318516127" y2="225.61654018903261" />
    <line x1="155.00000000000003" y1="291" x2="155" y2="259" />
    <line x1="155" y1="227" x2="155" y2="211" />
    <line x1="140.1013946699068" y1="306.268078454174" x2="141.66966891517976" y2="290.34512282741878" />
    <line x1="128.46771620580654" y1="288.38679813483935" x2="140.95349681483876" y2="225.61654018903261" />
    <line x1="96.832118280506364" y1="295.4296889417156" x2="102.9550531983478" y2="280.647616421535" />
    <line x1="115.20092303403067" y1="251.08347138117384" x2="121.3238579518721" y2="236.30139886099323" />
    <line x1="79.442448309334139" y1="268.07986727314619" x2="97.2206957659614" y2="241.47283967946473" />
    <line x1="58.572220807125916" y1="272.49758891113606" x2="68.722513353744247" y2="260.12942165733227" />
    <line x1="58.833477758629542" y1="251.1665222413705" x2="70.147186257614308" y2="239.85281374238571" />
    <line x1="104.08831175456858" y1="205.91168824543144" x2="138.02943725152286" y2="171.97056274847714" />
    <line x1="55.223646523694569" y1="221.66842796235227" x2="81.83067411737602" y2="203.890180505725" />
    <line x1="58.916528618826206" y1="194.79907696596939" x2="73.698601139006783" y2="188.67614204812796" />
    <line x1="88.480673659187374" y1="182.5532071302865" x2="103.26274617936795" y2="176.43027221244506" />
    <line x1="9.5450689687042711" y1="199.12327094267829" x2="24.856114340419595" y2="194.4787161066069" />
    <line x1="21.613201865160676" y1="181.53228379419349" x2="37.305766351612363" y2="178.41083864193544" />
    <line x1="3.7319215458260544" y1="169.89860533009318" x2="19.654877172581223" y2="168.33033108482022" />
    <line x1="19" y1="155.00000000000003" x2="83" y2="155" />
    <line x1="21.613201865160647" y1="128.46771620580654" x2="37.305766351612348" y2="131.58916135806462" />
    <line x1="52.998330838064035" y1="134.71060651032266" x2="68.690895324515722" y2="137.83205166258071" />
    <line x1="9.5450689687042427" y1="110.87672905732177" x2="24.856114340419595" y2="115.52128389339316" />
    <line x1="29.352383578465023" y1="102.95505319834777" x2="58.916528618826192" y2="115.20092303403064" />
    <line x1="73.698601139006783" y1="121.32385795187207" x2="88.48067365918736" y2="127.44679286971352" />
    <line x1="103.26274617936795" y1="133.56972778755497" x2="118.04481869954853" y2="139.6926627053964" />
    <line x1="41.920132726853822" y1="79.442448309334154" x2="55.223646523694541" y2="88.331572037647774" />
    <line x1="68.527160320535273" y1="97.220695765961409" x2="81.830674117376" y2="106.10981949427503" />
    <line x1="58.833477758629513" y1="58.833477758629556" x2="81.460894756599046" y2="81.460894756599075" />
    <line x1="104.08831175456857" y1="104.08831175456859" x2="115.40202025355333" y2="115.40202025355335" />
    <line x1="70.553324581020462" y1="28.616618930013118" x2="79.442448309334111" y2="41.920132726853851" />
    <line x1="88.331572037647732" y1="55.223646523694569" x2="106.109819494275" y2="81.83067411737602" />
    <line x1="83.347696002448316" y1="20.947967819050064" x2="90.890043791664283" y2="35.058708048623743" />
    <line x1="109.07798811618915" y1="44.134456098645614" x2="115.20092303403061" y2="58.916528618826206" />
    <line x1="127.44679286971349" y1="88.480673659187374" x2="133.56972778755494" y2="103.26274617936795" />
    <line x1="140.1013946699068" y1="3.7319215458260544" x2="141.66966891517978" y2="19.654877172581223" />
  </g>
  <path fill="none" stroke="#ff0000" stroke-width="2" stroke-linecap="square" stroke-linejoin="round" d="M 162.45828649776755,3.1830906568137891 L 162.0657451031482,11.17345430645517 A 144,144 0 0,0 147.9342548968518,11.17345430645517 L 148.71933768609048,27.154181605737932 A 128,128 0 0,0 94.661217686272266,42.114078163410582 L 109.7459132647042,70.335558622557926 A 96,96 0 0,1 145.59035452836218,59.4622662394691 L 144.02208028308922,43.539310612713948 A 112,112 0 0,1 207.79643452451174,56.224818392984233 L 192.71173894607981,84.446298852131591 A 80,80 0 0,1 205.75146273309164,93.159163730981049 L 226.05204782632831,68.422829223373455 A 112,112 0 0,1 241.57717077662653,83.9479521736717 L 253.94533803043032,73.797659627053378 A 128,128 0 0,1 282.8458183942621,148.71933768609048 L 298.82654569354486,147.9342548968518 A 144,144 0 0,1 298.82654569354486,162.0657451031482 L 282.8458183942621,161.28066231390952 A 128,128 0 0,1 282.38364501404124,167.54619396218376 L 266.46068938728604,165.9779197169108 A 112,112 0 0,0 253.77518160701575,102.20356547548825 L 239.66444137744207,109.74591326470421 A 96,96 0 0,1 229.20900352282274,215.90175527970996 L 241.57717077662656,226.05204782632828 A 112,112 0 0,1 187.51188385249978,262.17731760200741 L 192.1564386885712,277.4883629737227 A 128,128 0 0,1 161.28066231390949,282.8458183942621 L 162.06574510314817,298.82654569354486 A 144,144 0 0,1 147.93425489685185,298.82654569354486 L 148.71933768609054,282.8458183942621 A 128,128 0 0,1 142.45380603781624,282.38364501404124 L 145.59035452836218,250.5377337605309 A 96,96 0 0,0 164.40964547163785,250.5377337605309 L 162.84137122636486,234.61477813377576 A 80,80 0 0,1 147.15862877363514,234.61477813377576 L 148.72690301890813,218.69182250702062 A 64,64 0 0,1 119.44350508674548,208.2140551873629 L 128.33262881505911,194.91054139052218 A 48,48 0 0,0 164.36433545677417,202.07769345935506 L 161.24289030451612,186.38512897290337 A 32,32 0 0,1 142.75413016431713,184.56414504036118 L 145.81559762323786,177.17310878027089" />
  <type>Circular</type>
</svg>