<?xml version="1.0" encoding="utf-8" standalone="no"?>
<!DOCTYPE svg PUBLIC "-//W3C//DTD SVG 1.1//EN" "http://www.w3.org/Graphics/SVG/1.1/DTD/svg11.dtd"[]>
<svg width="308" height="308" version="1.1" xmlns="http://www.w3.org/2000/svg">
  <title>19 cells diameter theta maze</title>
  <g fill="none" stroke="#000000" stroke-width="2" stroke-linecap="square">
    <path d="M 138.02943725152286,171.97056274847714 A 24,24 0 1,1 155,179" />
    <path d="M 126.7157287525381,126.7157287525381 A 40,40 0 0,1 183.2842712474619,126.7157287525381" />
    <path d="M 191.95518130045147,139.6926627053964 A 40,40 0 0,1 195,155" />
    <path d="M 191.95518130045147,170.3073372946036 A 40,40 0 0,1 183.2842712474619,183.2842712474619" />
    <path d="M 170.3073372946036,191.95518130045147 A 40,40 0 0,1 118.04481869954853,139.6926627053964" />
    <path d="M 176.43027221244503,103.26274617936795 A 56,56 0 0,1 194.59797974644667,115.40202025355333" />
    <path d="M 194.59797974644667,194.59797974644664 A 56,56 0 0,1 155,211" />
    <path d="M 115.40202025355335,194.59797974644667 A 56,56 0 0,1 99,155" />
    <path d="M 103.26274617936795,133.56972778755497 A 56,56 0 0,1 115.40202025355333,115.40202025355335" />
    <path d="M 155,83 A 72,72 0 0,1 169.04650318516124,84.383459810967409" />
    <path d="M 182.55320713028647,88.48067365918736 A 72,72 0 0,1 195.00105677741135,95.134187914216739" />
    <path d="M 205.91168824543144,104.08831175456858 A 72,72 0 0,1 221.51932634081265,127.44679286971353" />
    <path d="M 225.61654018903261,140.95349681483876 A 72,72 0 0,1 227,155" />
    <path d="M 225.61654018903261,169.04650318516124 A 72,72 0 0,1 221.51932634081265,182.55320713028647" />
    <path d="M 205.91168824543144,205.91168824543141 A 72,72 0 0,1 195.00105677741135,214.86581208578326" />
    <path d="M 182.55320713028647,221.51932634081265 A 72,72 0 0,1 169.04650318516127,225.61654018903261" />
    <path d="M 155,227 A 72,72 0 0,1 127.44679286971355,221.51932634081265" />
    <path d="M 114.99894322258867,214.86581208578326 A 72,72 0 0,1 104.08831175456859,205.91168824543144" />
    <path d="M 95.134187914216739,195.00105677741135 A 72,72 0 0,1 84.383459810967409,169.04650318516127" />
    <path d="M 83,155 A 72,72 0 0,1 88.48067365918736,127.44679286971352" />
    <path d="M 95.134187914216724,114.99894322258867 A 72,72 0 0,1 140.95349681483873,84.383459810967409" />
    <path d="M 121.32385795187204,73.698601139006783 A 88,88 0 0,1 155,67" />
    <path d="M 172.16794833741929,68.690895324515722 A 88,88 0 0,1 188.6761420481279,73.698601139006769" />
    <path d="M 203.890180505725,81.83067411737602 A 88,88 0 0,1 228.16932588262398,106.109819494275" />
    <path d="M 236.30139886099323,121.3238579518721 A 88,88 0 0,1 228.16932588262398,203.89018050572497" />
    <path d="M 203.89018050572497,228.16932588262398 A 88,88 0 0,1 188.6761420481279,236.30139886099323" />
    <path d="M 172.16794833741932,241.30910467548426 A 88,88 0 0,1 92.774603255583827,217.2253967444162" />
    <path d="M 68.690895324515722,172.16794833741932 A 88,88 0 0,1 67,155.00000000000003" />
    <path d="M 73.698601139006769,121.32385795187207 A 88,88 0 0,1 81.830674117375992,106.10981949427503" />
    <path d="M 194.79907696596933,58.916528618826177 A 104,104 0 0,1 212.77930423403862,68.527160320535287" />
    <path d="M 251.08347138117381,115.20092303403067 A 104,104 0 0,1 251.08347138117381,194.79907696596933" />
    <path d="M 194.79907696596933,251.08347138117381 A 104,104 0 0,1 115.20092303403068,251.08347138117381" />
    <path d="M 97.220695765961409,241.47283967946473 A 104,104 0 0,1 81.460894756599075,228.53910524340097" />
    <path d="M 68.527160320535287,212.77930423403862 A 104,104 0 0,1 58.916528618826206,194.79907696596939" />
    <path d="M 52.998330838064035,134.71060651032266 A 104,104 0 0,1 58.916528618826192,115.20092303403064" />
    <path d="M 115.20092303403061,58.916528618826206 A 104,104 0 0,1 134.71060651032261,52.998330838064049" />
    <path d="M 131.58916135806456,37.305766351612363 A 120,120 0 0,1 155,35" />
    <path d="M 221.66842796235227,55.223646523694569 A 120,120 0 0,1 265.86554390135439,109.07798811618923" />
    <path d="M 265.86554390135439,200.92201188381077 A 120,120 0 0,1 239.85281374238571,239.85281374238571" />
    <path d="M 178.41083864193544,272.69423364838764 A 120,120 0 0,1 109.07798811618925,265.86554390135439" />
    <path d="M 70.147186257614308,239.85281374238571 A 120,120 0 0,1 55.223646523694569,221.66842796235227" />
    <path d="M 44.134456098645614,200.92201188381085 A 120,120 0 0,1 37.305766351612348,178.41083864193544" />
    <path d="M 35,155.00000000000003 A 120,120 0 0,1 44.1344560986456,109.0779881161892" />
    <path d="M 155,19 A 136,136 0 0,1 168.33033108482024,19.654877172581223" />
    <path d="M 194.4787161066069,24.856114340419595 A 136,136 0 0,1 219.10995620833569,35.058708048623714" />
    <path d="M 241.2774866462558,49.87057834266777 A 136,136 0 0,1 251.16652224137044,58.833477758629527" />
    <path d="M 274.94129195137629,90.8900437916643 A 136,136 0 0,1 288.38679813483935,128.46771620580654" />
    <path d="M 290.34512282741878,141.66966891517973 A 136,136 0 0,1 290.34512282741878,168.33033108482024" />
    <path d="M 285.14388565958041,194.47871610660687 A 136,136 0 0,1 268.07986727314619,230.55755169066589" />
    <path d="M 251.16652224137047,251.16652224137044 A 136,136 0 0,1 241.2774866462558,260.12942165733222" />
    <path d="M 230.55755169066589,268.07986727314619 A 136,136 0 0,1 219.10995620833569,274.94129195137629" />
    <path d="M 207.04494680165223,280.64761642153496 A 136,136 0 0,1 194.4787161066069,285.14388565958041" />
    <path d="M 181.53228379419349,288.3867981348393 A 136,136 0 0,1 155.00000000000003,291" />
    <path d="M 141.66966891517976,290.34512282741878 A 136,136 0 0,1 115.52128389339315,285.14388565958041" />
    <path d="M 102.9550531983478,280.647616421535 A 136,136 0 0,1 90.890043791664326,274.94129195137629" />
    <path d="M 79.442448309334139,268.07986727314619 A 136,136 0 0,1 49.870578342667812,241.27748664625585" />
    <path d="M 41.920132726853836,230.55755169066589 A 136,136 0 0,1 35.058708048623728,219.10995620833572" />
    <path d="M 29.352383578465037,207.04494680165229 A 136,136 0 0,1 49.870578342667784,68.7225133537442" />
    <path d="M 58.833477758629513,58.833477758629556 A 136,136 0 0,1 68.722513353744148,49.870578342667827" />
    <path d="M 79.4424483093341,41.920132726853851 A 136,136 0 0,1 90.890043791664283,35.058708048623743" />
    <path d="M 102.95505319834771,29.352383578465037 A 136,136 0 0,1 115.5212838933931,24.856114340419595" />
    <path d="M 128.46771620580648,21.613201865160676 A 136,136 0 0,1 141.66966891517978,19.654877172581223" />
    <path d="M 169.8986053300932,3.7319215458260828 A 152,152 0 1,1 155,3" />
  </g>
  <g fill="none" stroke="#000000" stroke-width="2" stroke-linecap="butt">
    <line x1="155" y1="19" x2="155" y2="67" />
    <line x1="155" y1="83" x2="155" y2="115" />
    <line x1="184.65372894645151" y1="5.9206373787089888" x2="175.28939348967734" y2="52.998330838064035" />
    <line x1="172.16794833741929" y1="68.690895324515722" x2="169.04650318516124" y2="84.383459810967409" />
    <line x1="207.0449468016522" y1="29.352383578465009" x2="188.6761420481279" y2="73.698601139006769" />
    <line x1="182.55320713028647" y1="88.48067365918736" x2="176.43027221244503" y2="103.26274617936795" />
    <line x1="239.44667541897954" y1="28.616618930013118" x2="230.55755169066589" y2="41.920132726853851" />
    <line x1="221.66842796235227" y1="55.223646523694569" x2="212.77930423403862" y2="68.5271603205353" />
    <line x1="203.890180505725" y1="81.83067411737602" x2="195.00105677741135" y2="95.134187914216739" />
    <line x1="251.16652224137044" y1="58.833477758629527" x2="239.85281374238571" y2="70.1471862576143" />
    <line x1="228.53910524340094" y1="81.460894756599046" x2="217.22539674441617" y2="92.774603255583813" />
    <line x1="194.59797974644664" y1="115.40202025355333" x2="183.2842712474619" y2="126.7157287525381" />
    <line x1="272.497588911136" y1="58.572220807125888" x2="260.12942165733222" y2="68.722513353744219" />
    <line x1="281.38338106998685" y1="70.553324581020448" x2="254.77635347630542" y2="88.331572037647732" />
    <line x1="241.4728396794647" y1="97.220695765961352" x2="228.16932588262398" y2="106.109819494275" />
    <line x1="265.86554390135439" y1="109.07798811618922" x2="206.73725382063205" y2="133.56972778755497" />
    <line x1="304.079362621291" y1="125.34627105354849" x2="272.69423364838764" y2="131.58916135806459" />
    <line x1="291" y1="155" x2="259" y2="155" />
    <line x1="243" y1="155" x2="195" y2="155" />
    <line x1="304.079362621291" y1="184.65372894645148" x2="272.69423364838764" y2="178.41083864193539" />
    <line x1="236.30139886099323" y1="188.6761420481279" x2="206.73725382063205" y2="176.43027221244503" />
    <line x1="281.38338106998691" y1="239.44667541897951" x2="268.07986727314619" y2="230.55755169066586" />
    <line x1="254.77635347630547" y1="221.66842796235224" x2="214.86581208578326" y2="195.00105677741135" />
    <line x1="272.49758891113606" y1="251.42777919287408" x2="260.12942165733227" y2="241.27748664625577" />
    <line x1="251.16652224137047" y1="251.16652224137044" x2="171.97056274847714" y2="171.97056274847714" />
    <line x1="221.66842796235227" y1="254.77635347630545" x2="203.890180505725" y2="228.16932588262398" />
    <line x1="226.65230399755166" y1="289.05203218094994" x2="219.10995620833569" y2="274.94129195137629" />
    <line x1="207.04494680165223" y1="280.64761642153496" x2="194.79907696596933" y2="251.08347138117381" />
    <line x1="188.6761420481279" y1="236.30139886099323" x2="182.55320713028647" y2="221.51932634081265" />
    <line x1="172.16794833741932" y1="241.30910467548426" x2="169.04650318516127" y2="225.61654018903261" />
    <line x1="155.00000000000003" y1="307" x2="155.00000000000003" y2="275" />
    <line x1="110.87672905732177" y1="300.45493103129576" x2="115.52128389339316" y2="285.14388565958041" />
    <line x1="102.9550531983478" y1="280.647616421535" x2="115.20092303403067" y2="251.08347138117384" />
    <line x1="121.3238579518721" y1="236.30139886099323" x2="127.44679286971355" y2="221.51932634081265" />
    <line x1="133.56972778755497" y1="206.73725382063208" x2="139.6926627053964" y2="191.95518130045147" />
    <line x1="88.33157203764776" y1="254.77635347630547" x2="97.2206957659614" y2="241.47283967946473" />
    <line x1="70.147186257614308" y1="239.85281374238571" x2="104.08831175456858" y2="205.91168824543144" />
    <line x1="126.7157287525381" y1="183.2842712474619" x2="138.02943725152286" y2="171.97056274847714" />
    <line x1="37.502411088864022" y1="251.4277791928742" x2="49.870578342667812" y2="241.27748664625585" />
    <line x1="41.920132726853851" y1="230.55755169066589" x2="95.134187914216739" y2="195.00105677741135" />
    <line x1="20.947967819050064" y1="226.65230399755166" x2="35.058708048623728" y2="219.10995620833569" />
    <line x1="58.916528618826206" y1="194.79907696596939" x2="73.698601139006783" y2="188.67614204812796" />
    <line x1="21.613201865160676" y1="181.53228379419349" x2="68.690895324515736" y2="172.16794833741932" />
    <line x1="35" y1="155.00000000000003" x2="99" y2="155" />
    <line x1="52.998330838064035" y1="134.71060651032266" x2="68.690895324515722" y2="137.83205166258071" />
    <line x1="44.1344560986456" y1="109.0779881161892" x2="73.698601139006783" y2="121.32385795187207" />
    <line x1="103.26274617936795" y1="133.56972778755497" x2="118.04481869954853" y2="139.6926627053964" />
    <line x1="41.920132726853822" y1="79.442448309334154" x2="55.223646523694541" y2="88.331572037647774" />
    <line x1="68.527160320535273" y1="97.220695765961409" x2="81.830674117376" y2="106.10981949427503" />
    <line x1="37.502411088863994" y1="58.572220807125873" x2="49.870578342667784" y2="68.7225133537442" />
    <line x1="47.519769259644747" y1="47.519769259644804" x2="92.7746032555838" y2="92.774603255583827" />
    <line x1="70.553324581020462" y1="28.616618930013118" x2="88.331572037647732" y2="55.223646523694569" />
    <line x1="97.220695765961381" y1="68.5271603205353" x2="114.99894322258865" y2="95.134187914216739" />
    <line x1="102.95505319834771" y1="29.352383578465037" x2="109.07798811618915" y2="44.134456098645614" />
    <line x1="127.44679286971349" y1="88.480673659187374" x2="139.69266270539637" y2="118.04481869954854" />
    <line x1="110.8767290573217" y1="9.5450689687042711" x2="115.5212838933931" y2="24.856114340419595" />
    <line x1="128.46771620580648" y1="21.613201865160676" x2="134.71060651032261" y2="52.998330838064049" />
    <line x1="140.1013946699068" y1="3.7319215458260544" x2="141.66966891517978" y2="19.654877172581223" />
  </g>
  <path fill="none" stroke="#ff0000" stroke-width="2" stroke-linecap="square" stroke-linejoin="round" d="M 162.45828649776755,3.1830906568137891 L 162.0657451031482,11.17345430645517 A 144,144 0 0,1 176.12918832157209,12.558582565071532 L 173.7815007302863,28.38540672450803 A 128,128 0 0,0 167.54619396218376,27.616354985958793 L 162.84137122636486,75.385221866224242 A 80,80 0 0,0 117.28826105392017,84.4462988521316 L 102.20356547548823,56.224818392984261 A 112,112 0 0,0 83.947952173671652,68.4228292233735 L 104.24853726690833,93.159163730981078 A 80,80 0 0,0 84.446298852131591,117.2882610539202 L 98.557039081705284,124.83060884313616 A 64,64 0 0,0 92.229742054193252,142.51421939096778 L 107.92230654064494,145.63566454322583 A 48,48 0 0,0 128.33262881505911,194.91054139052218 L 119.44350508674548,208.2140551873629 A 64,64 0 0,0 142.51421939096778,217.77025794580675 L 145.63566454322583,202.07769345935506 A 48,48 0 0,0 181.66737118494089,194.91054139052218 L 172.77824745662727,181.60702759368144 A 32,32 0 0,1 142.75413016431713,184.56414504036118 L 145.81559762323786,177.17310878027089" />
  <type>Circular</type>
</svg>