<?xml version="1.0" encoding="utf-8" standalone="no"?>
<!DOCTYPE svg PUBLIC "-//W3C//DTD SVG 1.1//EN" "http://www.w3.org/Graphics/SVG/1.1/DTD/svg11.dtd"[]>
<svg width="308" height="308" version="1.1" xmlns="http://www.w3.org/2000/svg">
  <title>19 cells diameter theta maze</title>
  <g fill="none" stroke="#000000" stroke-width="2" stroke-linecap="square">
    <path d="M 138.02943725152286,171.97056274847714 A 24,24 0 1,1 155,179" />
    <path d="M 170.3073372946036,118.04481869954853 A 40,40 0 0,1 191.95518130045147,139.6926627053964" />
    <path d="M 183.2842712474619,183.2842712474619 A 40,40 0 0,1 170.3073372946036,191.95518130045147" />
    <path d="M 139.6926627053964,191.95518130045147 A 40,40 0 0,1 126.7157287525381,183.2842712474619" />
    <path d="M 118.04481869954853,139.6926627053964 A 40,40 0 0,1 139.69266270539637,118.04481869954854" />
    <path d="M 115.40202025355333,115.40202025355335 A 56,56 0 0,1 176.43027221244503,103.26274617936795" />
    <path d="M 194.59797974644667,115.40202025355333 A 56,56 0 0,1 206.73725382063205,133.56972778755497" />
    <path d="M 206.73725382063208,176.43027221244503 A 56,56 0 0,1 176.43027221244503,206.73725382063205" />
    <path d="M 103.26274617936795,176.43027221244506 A 56,56 0 0,1 99,155" />
    <path d="M 140.95349681483873,84.383459810967409 A 72,72 0 0,1 182.55320713028647,88.48067365918736" />
    <path d="M 195.00105677741135,95.134187914216739 A 72,72 0 0,1 205.91168824543144,104.08831175456858" />
    <path d="M 214.86581208578326,114.99894322258864 A 72,72 0 0,1 225.61654018903261,169.04650318516124" />
    <path d="M 221.51932634081265,182.55320713028647 A 72,72 0 0,1 214.86581208578326,195.00105677741135" />
    <path d="M 205.91168824543144,205.91168824543141 A 72,72 0 0,1 195.00105677741135,214.86581208578326" />
    <path d="M 182.55320713028647,221.51932634081265 A 72,72 0 0,1 127.44679286971355,221.51932634081265" />
    <path d="M 114.99894322258867,214.86581208578326 A 72,72 0 0,1 104.08831175456859,205.91168824543144" />
    <path d="M 95.134187914216739,195.00105677741135 A 72,72 0 0,1 88.480673659187374,182.5532071302865" />
    <path d="M 83,155 A 72,72 0 0,1 104.08831175456857,104.08831175456859" />
    <path d="M 137.83205166258068,68.690895324515722 A 88,88 0 0,1 155,67" />
    <path d="M 172.16794833741929,68.690895324515722 A 88,88 0 0,1 188.6761420481279,73.698601139006769" />
    <path d="M 203.890180505725,81.83067411737602 A 88,88 0 0,1 243,155" />
    <path d="M 241.30910467548426,172.16794833741929 A 88,88 0 0,1 236.30139886099323,188.6761420481279" />
    <path d="M 188.6761420481279,236.30139886099323 A 88,88 0 0,1 172.16794833741932,241.30910467548426" />
    <path d="M 155,243 A 88,88 0 0,1 137.83205166258071,241.30910467548426" />
    <path d="M 121.32385795187211,236.30139886099323 A 88,88 0 0,1 106.10981949427503,228.16932588262398" />
    <path d="M 92.774603255583827,217.2253967444162 A 88,88 0 0,1 81.83067411737602,203.890180505725" />
    <path d="M 68.690895324515722,172.16794833741932 A 88,88 0 0,1 67,155.00000000000003" />
    <path d="M 68.690895324515722,137.83205166258071 A 88,88 0 0,1 73.698601139006769,121.32385795187207" />
    <path d="M 92.7746032555838,92.774603255583827 A 88,88 0 0,1 106.109819494275,81.83067411737602" />
    <path d="M 155,51 A 104,104 0 0,1 175.28939348967734,52.998330838064035" />
    <path d="M 194.79907696596933,58.916528618826177 A 104,104 0 0,1 212.77930423403862,68.527160320535287" />
    <path d="M 241.4728396794647,97.220695765961366 A 104,104 0 0,1 257.001669161936,134.71060651032266" />
    <path d="M 259,155 A 104,104 0 0,1 257.001669161936,175.28939348967734" />
    <path d="M 241.47283967946473,212.77930423403859 A 104,104 0 0,1 228.53910524340097,228.53910524340094" />
    <path d="M 134.71060651032266,257.001669161936 A 104,104 0 0,1 115.20092303403068,251.08347138117381" />
    <path d="M 97.220695765961409,241.47283967946473 A 104,104 0 0,1 68.527160320535287,212.77930423403862" />
    <path d="M 52.998330838064035,175.28939348967737 A 104,104 0 0,1 81.460894756599046,81.460894756599075" />
    <path d="M 115.20092303403061,58.916528618826206 A 104,104 0 0,1 134.71060651032261,52.998330838064049" />
    <path d="M 178.41083864193539,37.305766351612348 A 120,120 0 0,1 221.66842796235227,55.223646523694569" />
    <path d="M 239.85281374238571,70.1471862576143 A 120,120 0 0,1 254.77635347630542,88.331572037647732" />
    <path d="M 265.86554390135439,109.07798811618923 A 120,120 0 0,1 275,155" />
    <path d="M 272.69423364838764,178.41083864193539 A 120,120 0 0,1 265.86554390135439,200.92201188381077" />
    <path d="M 239.85281374238571,239.85281374238571 A 120,120 0 0,1 178.41083864193544,272.69423364838764" />
    <path d="M 155.00000000000003,275 A 120,120 0 0,1 131.58916135806459,272.69423364838764" />
    <path d="M 109.07798811618925,265.86554390135439 A 120,120 0 0,1 88.331572037647774,254.77635347630547" />
    <path d="M 70.147186257614308,239.85281374238571 A 120,120 0 0,1 44.134456098645614,200.92201188381085" />
    <path d="M 37.305766351612348,131.58916135806462 A 120,120 0 0,1 55.223646523694541,88.331572037647774" />
    <path d="M 70.14718625761428,70.147186257614322 A 120,120 0 0,1 109.07798811618915,44.134456098645614" />
    <path d="M 141.66966891517978,19.654877172581223 A 136,136 0 0,1 194.4787161066069,24.856114340419595" />
    <path d="M 219.10995620833569,35.058708048623714 A 136,136 0 0,1 241.2774866462558,49.87057834266777" />
    <path d="M 280.64761642153496,102.95505319834778 A 136,136 0 0,1 285.14388565958041,115.52128389339313" />
    <path d="M 288.38679813483935,128.46771620580654 A 136,136 0 0,1 288.38679813483935,181.53228379419343" />
    <path d="M 285.14388565958041,194.47871610660687 A 136,136 0 0,1 268.07986727314619,230.55755169066589" />
    <path d="M 260.12942165733227,241.27748664625577 A 136,136 0 0,1 241.2774866462558,260.12942165733222" />
    <path d="M 219.10995620833569,274.94129195137629 A 136,136 0 0,1 194.4787161066069,285.14388565958041" />
    <path d="M 168.33033108482027,290.34512282741878 A 136,136 0 0,1 79.442448309334139,268.07986727314619" />
    <path d="M 68.722513353744233,260.12942165733227 A 136,136 0 0,1 49.870578342667812,241.27748664625585" />
    <path d="M 41.920132726853836,230.55755169066589 A 136,136 0 0,1 21.613201865160676,181.53228379419349" />
    <path d="M 19,155.00000000000003 A 136,136 0 0,1 35.058708048623714,90.890043791664326" />
    <path d="M 41.920132726853822,79.442448309334139 A 136,136 0 0,1 68.722513353744148,49.870578342667827" />
    <path d="M 79.4424483093341,41.920132726853851 A 136,136 0 0,1 90.890043791664283,35.058708048623743" />
    <path d="M 102.95505319834771,29.352383578465037 A 136,136 0 0,1 115.5212838933931,24.856114340419595" />
    <path d="M 169.8986053300932,3.7319215458260828 A 152,152 0 1,1 155,3" />
  </g>
  <g fill="none" stroke="#000000" stroke-width="2" stroke-linecap="butt">
    <line x1="155" y1="19" x2="155" y2="67" />
    <line x1="155" y1="99" x2="155" y2="115" />
    <line x1="181.53228379419343" y1="21.613201865160647" x2="178.41083864193539" y2="37.305766351612348" />
    <line x1="213.16788171949366" y1="14.570311058284403" x2="207.0449468016522" y2="29.352383578465009" />
    <line x1="194.79907696596933" y1="58.916528618826177" x2="176.43027221244503" y2="103.26274617936795" />
    <line x1="230.55755169066589" y1="41.920132726853851" x2="221.66842796235227" y2="55.223646523694569" />
    <line x1="212.77930423403862" y1="68.5271603205353" x2="195.00105677741135" y2="95.134187914216739" />
    <line x1="251.16652224137044" y1="58.833477758629527" x2="217.22539674441617" y2="92.774603255583813" />
    <line x1="205.91168824543144" y1="104.08831175456857" x2="183.2842712474619" y2="126.7157287525381" />
    <line x1="272.497588911136" y1="58.572220807125888" x2="260.12942165733222" y2="68.722513353744219" />
    <line x1="281.38338106998685" y1="70.553324581020448" x2="268.07986727314614" y2="79.442448309334083" />
    <line x1="254.77635347630542" y1="88.331572037647732" x2="241.4728396794647" y2="97.220695765961352" />
    <line x1="289.05203218094994" y1="83.34769600244833" x2="274.94129195137629" y2="90.8900437916643" />
    <line x1="280.64761642153496" y1="102.95505319834778" x2="265.86554390135439" y2="109.07798811618922" />
    <line x1="221.51932634081265" y1="127.44679286971353" x2="206.73725382063205" y2="133.56972778755497" />
    <line x1="300.45493103129576" y1="110.87672905732173" x2="285.14388565958041" y2="115.52128389339313" />
    <line x1="275" y1="155" x2="259" y2="155" />
    <line x1="227" y1="155" x2="211" y2="155" />
    <line x1="195" y1="155" x2="179" y2="155" />
    <line x1="306.268078454174" y1="169.89860533009323" x2="290.34512282741878" y2="168.33033108482024" />
    <line x1="241.30910467548426" y1="172.16794833741929" x2="225.61654018903261" y2="169.04650318516124" />
    <line x1="280.64761642153496" y1="207.0449468016522" x2="221.51932634081265" y2="182.55320713028647" />
    <line x1="206.73725382063205" y1="176.43027221244503" x2="191.95518130045147" y2="170.3073372946036" />
    <line x1="268.07986727314619" y1="230.55755169066586" x2="228.16932588262398" y2="203.89018050572497" />
    <line x1="251.16652224137047" y1="251.16652224137044" x2="239.85281374238571" y2="239.85281374238571" />
    <line x1="228.53910524340097" y1="228.53910524340094" x2="205.91168824543144" y2="205.91168824543144" />
    <line x1="183.2842712474619" y1="183.2842712474619" x2="171.97056274847714" y2="171.97056274847714" />
    <line x1="239.44667541897954" y1="281.38338106998691" x2="230.55755169066589" y2="268.07986727314619" />
    <line x1="221.66842796235227" y1="254.77635347630545" x2="203.890180505725" y2="228.16932588262398" />
    <line x1="207.04494680165223" y1="280.64761642153496" x2="200.9220118838108" y2="265.86554390135439" />
    <line x1="194.79907696596933" y1="251.08347138117381" x2="188.6761420481279" y2="236.30139886099323" />
    <line x1="182.55320713028647" y1="221.51932634081265" x2="176.43027221244503" y2="206.73725382063205" />
    <line x1="184.65372894645154" y1="304.079362621291" x2="175.28939348967737" y2="257.001669161936" />
    <line x1="172.16794833741932" y1="241.30910467548426" x2="169.04650318516127" y2="225.61654018903261" />
    <line x1="155.00000000000003" y1="307" x2="155.00000000000003" y2="291" />
    <line x1="155.00000000000003" y1="275" x2="155" y2="243" />
    <line x1="155" y1="211" x2="155" y2="179" />
    <line x1="128.46771620580654" y1="288.38679813483935" x2="131.58916135806459" y2="272.69423364838764" />
    <line x1="137.83205166258071" y1="241.30910467548426" x2="140.95349681483876" y2="225.61654018903261" />
    <line x1="109.07798811618923" y1="265.86554390135444" x2="121.3238579518721" y2="236.30139886099323" />
    <line x1="127.44679286971355" y1="221.51932634081265" x2="133.56972778755497" y2="206.73725382063208" />
    <line x1="97.2206957659614" y1="241.47283967946473" x2="114.99894322258865" y2="214.86581208578326" />
    <line x1="58.572220807125916" y1="272.49758891113606" x2="68.722513353744247" y2="260.12942165733227" />
    <line x1="58.833477758629542" y1="251.1665222413705" x2="70.147186257614308" y2="239.85281374238571" />
    <line x1="92.774603255583827" y1="217.2253967444162" x2="138.02943725152286" y2="171.97056274847714" />
    <line x1="55.223646523694569" y1="221.66842796235227" x2="68.5271603205353" y2="212.77930423403862" />
    <line x1="81.83067411737602" y1="203.890180505725" x2="95.134187914216739" y2="195.00105677741135" />
    <line x1="44.134456098645614" y1="200.92201188381085" x2="73.698601139006783" y2="188.67614204812796" />
    <line x1="88.480673659187374" y1="182.5532071302865" x2="118.04481869954854" y2="170.3073372946036" />
    <line x1="5.9206373787089888" y1="184.65372894645157" x2="84.383459810967423" y2="169.04650318516127" />
    <line x1="3.7319215458260544" y1="169.89860533009318" x2="19.654877172581223" y2="168.33033108482022" />
    <line x1="3" y1="155.00000000000003" x2="35" y2="155.00000000000003" />
    <line x1="115" y1="155" x2="131" y2="155" />
    <line x1="37.305766351612348" y1="131.58916135806462" x2="52.998330838064035" y2="134.71060651032266" />
    <line x1="68.690895324515722" y1="137.83205166258071" x2="84.383459810967409" y2="140.95349681483876" />
    <line x1="103.26274617936795" y1="133.56972778755497" x2="118.04481869954853" y2="139.6926627053964" />
    <line x1="41.920132726853822" y1="79.442448309334154" x2="55.223646523694541" y2="88.331572037647774" />
    <line x1="68.527160320535273" y1="97.220695765961409" x2="95.134187914216724" y2="114.99894322258867" />
    <line x1="104.08831175456857" y1="104.08831175456859" x2="115.40202025355333" y2="115.40202025355335" />
    <line x1="79.442448309334111" y1="41.920132726853851" x2="114.99894322258865" y2="95.134187914216739" />
    <line x1="83.347696002448316" y1="20.947967819050064" x2="90.890043791664283" y2="35.058708048623743" />
    <line x1="115.20092303403061" y1="58.916528618826206" x2="139.69266270539637" y2="118.04481869954854" />
    <line x1="110.8767290573217" y1="9.5450689687042711" x2="115.5212838933931" y2="24.856114340419595" />
    <line x1="128.46771620580648" y1="21.613201865160676" x2="137.83205166258068" y2="68.690895324515736" />
  </g>
  <path fill="none" stroke="#ff0000" stroke-width="2" stroke-linecap="square" stroke-linejoin="round" d="M 162.45828649776755,3.1830906568137891 L 162.0657451031482,11.17345430645517 A 144,144 0 0,1 203.51213888847968,19.417654613645 L 198.12190123420416,34.482359656573337 A 128,128 0 0,1 209.72705195907611,39.289370480199253 L 216.56793345396062,24.82554179022415 A 144,144 0 0,1 261.6969620511141,58.295510502029359 L 249.84174404543478,69.040453779581654 A 128,128 0 0,1 267.88592183658943,94.66121768627228 L 253.77518160701575,102.20356547548825 A 112,112 0 0,1 266.46068938728604,144.0220802830892 L 250.5377337605309,145.59035452836216 A 96,96 0 0,1 246.86627223029205,182.86732901642836 L 262.17731760200741,187.51188385249975 A 112,112 0 0,0 266.46068938728604,165.9779197169108 L 282.38364501404124,167.54619396218376 A 128,128 0 0,1 279.16400040890164,186.10146302761777 L 294.68450046001431,189.98914590607 A 144,144 0 0,1 270.66188453321286,240.78069984691041 L 257.81056402952254,231.24951097503146 A 128,128 0 0,1 253.94533803043035,236.20234037294659 L 241.57717077662656,226.05204782632828 A 112,112 0 0,1 226.05204782632831,241.57717077662653 L 205.75146273309164,216.84083626901895 A 80,80 0 0,1 192.71173894607983,225.5537011478684 L 185.16939115686387,211.44296091829472 A 64,64 0 0,0 217.77025794580675,167.48578060903219 L 186.38512897290337,161.2428903045161 A 32,32 0 0,1 181.60702759368147,172.77824745662727 L 194.91054139052218,181.66737118494089 A 48,48 0 0,1 164.36433545677417,202.07769345935506 L 167.48578060903222,217.77025794580675 A 64,64 0 0,1 142.51421939096778,217.77025794580675 L 148.75710969548391,186.38512897290337 A 32,32 0 0,1 142.75413016431713,184.56414504036118 L 145.81559762323786,177.17310878027089" />
  <type>Circular</type>
</svg>