<?xml version="1.0" encoding="utf-8" standalone="no"?>
<!DOCTYPE svg PUBLIC "-//W3C//DTD SVG 1.1//EN" "http://www.w3.org/Graphics/SVG/1.1/DTD/svg11.dtd"[]>
<svg width="308" height="308" version="1.1" xmlns="http://www.w3.org/2000/svg">
  <title>19 cells diameter theta maze</title>
  <g fill="none" stroke="#000000" stroke-width="2" stroke-linecap="square">
    <path d="M 138.02943725152286,171.97056274847714 A 24,24 0 1,1 155,179" />
    <path d="M 155,115 A 40,40 0 0,1 183.2842712474619,126.7157287525381" />
    <path d="M 191.95518130045147,139.6926627053964 A 40,40 0 0,1 195,155" />
    <path d="M 191.95518130045147,170.3073372946036 A 40,40 0 0,1 183.2842712474619,183.2842712474619" />
    <path d="M 170.3073372946036,191.95518130045147 A 40,40 0 0,1 139.6926627053964,191.95518130045147" />
    <path d="M 126.7157287525381,183.2842712474619 A 40,40 0 0,1 118.04481869954853,170.3073372946036" />
    <path d="M 115,155 A 40,40 0 0,1 139.69266270539637,118.04481869954854" />
    <path d="M 155,99 A 56,56 0 0,1 206.73725382063205,133.56972778755497" />
    <path d="M 211,155 A 56,56 0 0,1 206.73725382063208,176.43027221244503" />
    <path d="M 194.59797974644667,194.59797974644664 A 56,56 0 0,1 155,211" />
    <path d="M 133.569727787555,206.73725382063208 A 56,56 0 0,1 115.40202025355335,194.59797974644667" />
    <path d="M 103.26274617936795,176.43027221244506 A 56,56 0 0,1 133.56972778755494,103.26274617936795" />
    <path d="M 155,83 A 72,72 0 0,1 195.00105677741135,95.134187914216739" />
    <path d="M 205.91168824543144,104.08831175456858 A 72,72 0 0,1 214.86581208578326,114.99894322258864" />
    <path d="M 227,155 A 72,72 0 0,1 225.61654018903261,169.04650318516124" />
    <path d="M 221.51932634081265,182.55320713028647 A 72,72 0 0,1 214.86581208578326,195.00105677741135" />
    <path d="M 205.91168824543144,205.91168824543141 A 72,72 0 0,1 169.04650318516127,225.61654018903261" />
    <path d="M 155,227 A 72,72 0 0,1 114.99894322258867,214.86581208578326" />
    <path d="M 95.134187914216739,195.00105677741135 A 72,72 0 0,1 84.383459810967409,169.04650318516127" />
    <path d="M 83,155 A 72,72 0 0,1 95.134187914216724,114.99894322258867" />
    <path d="M 114.99894322258865,95.134187914216739 A 72,72 0 0,1 140.95349681483873,84.383459810967409" />
    <path d="M 121.32385795187204,73.698601139006783 A 88,88 0 0,1 155,67" />
    <path d="M 188.6761420481279,73.698601139006769 A 88,88 0 0,1 241.30910467548426,137.83205166258071" />
    <path d="M 241.30910467548426,172.16794833741929 A 88,88 0 0,1 236.30139886099323,188.6761420481279" />
    <path d="M 228.16932588262398,203.89018050572497 A 88,88 0 0,1 217.22539674441617,217.22539674441617" />
    <path d="M 203.89018050572497,228.16932588262398 A 88,88 0 0,1 172.16794833741932,241.30910467548426" />
    <path d="M 137.83205166258071,241.30910467548426 A 88,88 0 0,1 121.32385795187211,236.30139886099323" />
    <path d="M 92.774603255583827,217.2253967444162 A 88,88 0 0,1 73.698601139006783,188.67614204812796" />
    <path d="M 67,155.00000000000003 A 88,88 0 0,1 68.690895324515722,137.83205166258071" />
    <path d="M 73.698601139006769,121.32385795187207 A 88,88 0 0,1 106.109819494275,81.83067411737602" />
    <path d="M 155,51 A 104,104 0 0,1 194.79907696596933,58.916528618826177" />
    <path d="M 212.77930423403862,68.527160320535287 A 104,104 0 0,1 241.4728396794647,97.220695765961366" />
    <path d="M 251.08347138117381,115.20092303403067 A 104,104 0 0,1 257.001669161936,175.28939348967734" />
    <path d="M 251.08347138117381,194.79907696596933 A 104,104 0 0,1 212.77930423403862,241.4728396794647" />
    <path d="M 175.28939348967737,257.001669161936 A 104,104 0 0,1 155,259" />
    <path d="M 115.20092303403068,251.08347138117381 A 104,104 0 0,1 97.220695765961409,241.47283967946473" />
    <path d="M 81.460894756599075,228.53910524340097 A 104,104 0 0,1 58.916528618826206,194.79907696596939" />
    <path d="M 52.998330838064035,175.28939348967737 A 104,104 0 0,1 51,155.00000000000003" />
    <path d="M 52.998330838064035,134.71060651032266 A 104,104 0 0,1 58.916528618826192,115.20092303403064" />
    <path d="M 68.527160320535273,97.220695765961409 A 104,104 0 0,1 81.460894756599046,81.460894756599075" />
    <path d="M 97.220695765961366,68.5271603205353 A 104,104 0 0,1 134.71060651032261,52.998330838064049" />
    <path d="M 178.41083864193539,37.305766351612348 A 120,120 0 0,1 200.92201188381077,44.134456098645586" />
    <path d="M 221.66842796235227,55.223646523694569 A 120,120 0 0,1 239.85281374238571,70.1471862576143" />
    <path d="M 254.77635347630542,88.331572037647732 A 120,120 0 0,1 265.86554390135439,109.07798811618923" />
    <path d="M 272.69423364838764,131.58916135806459 A 120,120 0 0,1 272.69423364838764,178.41083864193539" />
    <path d="M 254.77635347630545,221.66842796235224 A 120,120 0 0,1 178.41083864193544,272.69423364838764" />
    <path d="M 155.00000000000003,275 A 120,120 0 0,1 109.07798811618925,265.86554390135439" />
    <path d="M 88.331572037647774,254.77635347630547 A 120,120 0 0,1 55.223646523694569,221.66842796235227" />
    <path d="M 37.305766351612348,178.41083864193544 A 120,120 0 0,1 35,155.00000000000003" />
    <path d="M 44.1344560986456,109.0779881161892 A 120,120 0 0,1 70.14718625761428,70.147186257614322" />
    <path d="M 109.07798811618915,44.134456098645614 A 120,120 0 0,1 131.58916135806456,37.305766351612363" />
    <path d="M 141.66966891517978,19.654877172581223 A 136,136 0 0,1 194.4787161066069,24.856114340419595" />
    <path d="M 230.55755169066589,41.920132726853851 A 136,136 0 0,1 274.94129195137629,90.8900437916643" />
    <path d="M 285.14388565958041,115.52128389339313 A 136,136 0 0,1 288.38679813483935,128.46771620580654" />
    <path d="M 288.38679813483935,181.53228379419343 A 136,136 0 0,1 115.52128389339315,285.14388565958041" />
    <path d="M 102.9550531983478,280.647616421535 A 136,136 0 0,1 90.890043791664326,274.94129195137629" />
    <path d="M 68.722513353744233,260.12942165733227 A 136,136 0 0,1 58.833477758629556,251.16652224137047" />
    <path d="M 41.920132726853836,230.55755169066589 A 136,136 0 0,1 19.654877172581223,141.66966891517984" />
    <path d="M 24.856114340419595,115.52128389339316 A 136,136 0 0,1 29.352383578465009,102.95505319834777" />
    <path d="M 35.058708048623714,90.890043791664326 A 136,136 0 0,1 41.920132726853822,79.442448309334139" />
    <path d="M 58.833477758629513,58.833477758629556 A 136,136 0 0,1 68.722513353744148,49.870578342667827" />
    <path d="M 79.4424483093341,41.920132726853851 A 136,136 0 0,1 115.5212838933931,24.856114340419595" />
    <path d="M 169.8986053300932,3.7319215458260828 A 152,152 0 1,1 155,3" />
  </g>
  <g fill="none" stroke="#000000" stroke-width="2" stroke-linecap="butt">
    <line x1="155" y1="19" x2="155" y2="67" />
    <line x1="155" y1="99" x2="155" y2="115" />
    <line x1="172.16794833741929" y1="68.690895324515722" x2="169.04650318516124" y2="84.383459810967409" />
    <line x1="207.0449468016522" y1="29.352383578465009" x2="194.79907696596933" y2="58.916528618826177" />
    <line x1="182.55320713028647" y1="88.48067365918736" x2="176.43027221244503" y2="103.26274617936795" />
    <line x1="226.65230399755166" y1="20.947967819050035" x2="219.10995620833569" y2="35.058708048623714" />
    <line x1="230.55755169066589" y1="41.920132726853851" x2="221.66842796235227" y2="55.223646523694569" />
    <line x1="239.85281374238571" y1="70.1471862576143" x2="228.53910524340094" y2="81.460894756599046" />
    <line x1="217.22539674441617" y1="92.774603255583813" x2="205.91168824543144" y2="104.08831175456857" />
    <line x1="183.2842712474619" y1="126.7157287525381" x2="171.97056274847714" y2="138.02943725152286" />
    <line x1="268.07986727314614" y1="79.442448309334083" x2="254.77635347630542" y2="88.331572037647732" />
    <line x1="295.4296889417156" y1="96.832118280506336" x2="280.64761642153496" y2="102.95505319834778" />
    <line x1="265.86554390135439" y1="109.07798811618922" x2="236.30139886099323" y2="121.3238579518721" />
    <line x1="221.51932634081265" y1="127.44679286971353" x2="206.73725382063205" y2="133.56972778755497" />
    <line x1="288.38679813483935" y1="128.46771620580654" x2="272.69423364838764" y2="131.58916135806459" />
    <line x1="241.30910467548426" y1="137.83205166258071" x2="225.61654018903261" y2="140.95349681483876" />
    <line x1="306.26807845417392" y1="140.10139466990677" x2="290.34512282741878" y2="141.66966891517973" />
    <line x1="291" y1="155" x2="275" y2="155" />
    <line x1="259" y1="155" x2="227" y2="155" />
    <line x1="211" y1="155" x2="179" y2="155" />
    <line x1="306.268078454174" y1="169.89860533009323" x2="290.34512282741878" y2="168.33033108482024" />
    <line x1="288.38679813483935" y1="181.53228379419343" x2="257.001669161936" y2="175.28939348967734" />
    <line x1="280.64761642153496" y1="207.0449468016522" x2="251.08347138117381" y2="194.79907696596933" />
    <line x1="236.30139886099323" y1="188.6761420481279" x2="206.73725382063205" y2="176.43027221244503" />
    <line x1="289.05203218094994" y1="226.65230399755166" x2="274.94129195137629" y2="219.10995620833569" />
    <line x1="228.16932588262398" y1="203.89018050572497" x2="214.86581208578326" y2="195.00105677741135" />
    <line x1="228.53910524340097" y1="228.53910524340094" x2="217.22539674441617" y2="217.22539674441617" />
    <line x1="205.91168824543144" y1="205.91168824543144" x2="183.2842712474619" y2="183.2842712474619" />
    <line x1="200.9220118838108" y1="265.86554390135439" x2="188.6761420481279" y2="236.30139886099323" />
    <line x1="172.16794833741932" y1="241.30910467548426" x2="169.04650318516127" y2="225.61654018903261" />
    <line x1="155.00000000000003" y1="275" x2="155" y2="259" />
    <line x1="155" y1="243" x2="155" y2="211" />
    <line x1="155" y1="195" x2="155" y2="179" />
    <line x1="131.58916135806459" y1="272.69423364838764" x2="134.71060651032266" y2="257.001669161936" />
    <line x1="96.832118280506364" y1="295.4296889417156" x2="121.3238579518721" y2="236.30139886099323" />
    <line x1="127.44679286971355" y1="221.51932634081265" x2="133.56972778755497" y2="206.73725382063208" />
    <line x1="79.442448309334139" y1="268.07986727314619" x2="88.33157203764776" y2="254.77635347630547" />
    <line x1="106.10981949427503" y1="228.16932588262398" x2="114.99894322258865" y2="214.86581208578326" />
    <line x1="47.519769259644789" y1="262.48023074035524" x2="58.833477758629542" y2="251.1665222413705" />
    <line x1="92.774603255583827" y1="217.2253967444162" x2="104.08831175456858" y2="205.91168824543144" />
    <line x1="115.40202025355335" y1="194.59797974644667" x2="138.02943725152286" y2="171.97056274847714" />
    <line x1="37.502411088864022" y1="251.4277791928742" x2="49.870578342667812" y2="241.27748664625585" />
    <line x1="55.223646523694569" y1="221.66842796235227" x2="95.134187914216739" y2="195.00105677741135" />
    <line x1="29.352383578465037" y1="207.04494680165229" x2="58.916528618826206" y2="194.79907696596939" />
    <line x1="5.9206373787089888" y1="184.65372894645157" x2="37.305766351612363" y2="178.41083864193544" />
    <line x1="52.998330838064049" y1="175.28939348967737" x2="84.383459810967423" y2="169.04650318516127" />
    <line x1="67" y1="155.00000000000003" x2="99" y2="155" />
    <line x1="5.9206373787089888" y1="125.34627105354849" x2="21.613201865160647" y2="128.46771620580654" />
    <line x1="37.305766351612348" y1="131.58916135806462" x2="68.690895324515722" y2="137.83205166258071" />
    <line x1="29.352383578465023" y1="102.95505319834777" x2="44.1344560986456" y2="109.0779881161892" />
    <line x1="28.61661893001309" y1="70.553324581020519" x2="41.920132726853822" y2="79.442448309334154" />
    <line x1="68.527160320535273" y1="97.220695765961409" x2="81.830674117376" y2="106.10981949427503" />
    <line x1="37.502411088863994" y1="58.572220807125873" x2="49.870578342667784" y2="68.7225133537442" />
    <line x1="58.833477758629513" y1="58.833477758629556" x2="70.14718625761428" y2="70.147186257614322" />
    <line x1="92.7746032555838" y1="92.774603255583827" x2="115.40202025355333" y2="115.40202025355335" />
    <line x1="58.572220807125817" y1="37.502411088864022" x2="68.722513353744148" y2="49.870578342667812" />
    <line x1="88.331572037647732" y1="55.223646523694569" x2="106.109819494275" y2="81.83067411737602" />
    <line x1="102.95505319834771" y1="29.352383578465037" x2="109.07798811618915" y2="44.134456098645614" />
    <line x1="121.32385795187204" y1="73.698601139006783" x2="139.69266270539637" y2="118.04481869954854" />
    <line x1="110.8767290573217" y1="9.5450689687042711" x2="115.5212838933931" y2="24.856114340419595" />
    <line x1="128.46771620580648" y1="21.613201865160676" x2="131.58916135806456" y2="37.305766351612363" />
    <line x1="140.1013946699068" y1="3.7319215458260544" x2="141.66966891517978" y2="19.654877172581223" />
  </g>
  <path fill="none" stroke="#ff0000" stroke-width="2" stroke-linecap="square" stroke-linejoin="round" d="M 162.45828649776755,3.1830906568137891 L 162.0657451031482,11.17345430645517 A 144,144 0 0,1 216.56793345396062,24.82554179022415 L 209.72705195907611,39.289370480199253 A 128,128 0 0,1 215.33878231372771,42.114078163410554 L 200.25408673529577,70.335558622557912 A 96,96 0 0,0 164.40964547163782,59.4622662394691 L 162.84137122636486,75.385221866224242 A 80,80 0 0,0 147.15862877363517,75.385221866224242 L 148.72690301890813,91.3081774929794 A 64,64 0 0,0 142.51421939096775,92.229742054193252 L 148.75710969548388,123.61487102709663 A 32,32 0 0,0 123.61487102709663,161.24289030451612 L 107.92230654064494,164.36433545677417 A 48,48 0 0,0 115.08945860947783,181.66737118494092 L 101.7859448126371,190.55649491325454 A 64,64 0 0,0 114.3988298135267,204.47266901521516 L 94.098244720290054,229.20900352282277 A 96,96 0 0,0 109.74591326470423,239.66444137744207 L 117.2882610539202,225.55370114786842 A 80,80 0 0,0 147.15862877363514,234.61477813377576 L 145.59035452836218,250.5377337605309 A 96,96 0 0,0 182.86732901642839,246.86627223029205 L 187.51188385249978,262.17731760200741 A 112,112 0 0,1 165.9779197169108,266.46068938728604 L 167.54619396218379,282.38364501404118 A 128,128 0 0,0 267.88592183658943,215.33878231372771 L 253.77518160701578,207.79643452451174 A 112,112 0 0,1 207.79643452451177,253.77518160701575 L 200.2540867352958,239.66444137744207 A 96,96 0 0,0 215.90175527970996,229.20900352282274 L 205.75146273309164,216.84083626901895 A 80,80 0 0,0 216.84083626901895,205.75146273309161 L 204.47266901521516,195.6011701864733 A 64,64 0 0,0 208.2140551873629,190.55649491325454 L 194.91054139052218,181.66737118494089 A 48,48 0 0,0 202.07769345935506,164.36433545677414 L 186.38512897290337,161.2428903045161 A 32,32 0 0,1 172.77824745662727,181.60702759368144 L 181.66737118494089,194.91054139052218 A 48,48 0 0,1 128.33262881505911,194.91054139052218 L 137.22175254337273,181.60702759368147 A 32,32 0 0,0 142.75413016431713,184.56414504036118 L 145.81559762323786,177.17310878027089" />
  <type>Circular</type>
</svg>