<?xml version="1.0" encoding="utf-8" standalone="no"?>
<!DOCTYPE svg PUBLIC "-//W3C//DTD SVG 1.1//EN" "http://www.w3.org/Graphics/SVG/1.1/DTD/svg11.dtd"[]>
<svg width="308" height="308" version="1.1" xmlns="http://www.w3.org/2000/svg">
  <title>19 cells diameter theta maze</title>
  <g fill="none" stroke="#000000" stroke-width="2" stroke-linecap="square">
    <path d="M 138.02943725152286,171.97056274847714 A 24,24 0 1,1 155,179" />
    <path d="M 139.69266270539637,118.04481869954854 A 40,40 0 0,1 183.2842712474619,126.7157287525381" />
    <path d="M 191.95518130045147,139.6926627053964 A 40,40 0 0,1 195,155" />
    <path d="M 191.95518130045147,170.3073372946036 A 40,40 0 0,1 170.3073372946036,191.95518130045147" />
    <path d="M 155,195 A 40,40 0 0,1 126.7157287525381,183.2842712474619" />
    <path d="M 118.04481869954853,170.3073372946036 A 40,40 0 0,1 118.04481869954853,139.6926627053964" />
    <path d="M 103.26274617936795,133.56972778755497 A 56,56 0 0,1 206.73725382063208,176.43027221244503" />
    <path d="M 140.95349681483873,84.383459810967409 A 72,72 0 0,1 169.04650318516124,84.383459810967409" />
    <path d="M 195.00105677741135,95.134187914216739 A 72,72 0 0,1 205.91168824543144,104.08831175456858" />
    <path d="M 214.86581208578326,114.99894322258864 A 72,72 0 0,1 221.51932634081265,127.44679286971353" />
    <path d="M 225.61654018903261,140.95349681483876 A 72,72 0 0,1 227,155" />
    <path d="M 225.61654018903261,169.04650318516124 A 72,72 0 0,1 155,227" />
    <path d="M 140.95349681483876,225.61654018903261 A 72,72 0 0,1 88.480673659187374,182.5532071302865" />
    <path d="M 84.383459810967409,169.04650318516127 A 72,72 0 0,1 84.383459810967409,140.95349681483876" />
    <path d="M 88.48067365918736,127.44679286971352 A 72,72 0 0,1 114.99894322258865,95.134187914216739" />
    <path d="M 172.16794833741929,68.690895324515722 A 88,88 0 0,1 188.6761420481279,73.698601139006769" />
    <path d="M 217.22539674441617,92.774603255583813 A 88,88 0 0,1 228.16932588262398,106.109819494275" />
    <path d="M 243,155 A 88,88 0 0,1 241.30910467548426,172.16794833741929" />
    <path d="M 236.30139886099323,188.6761420481279 A 88,88 0 0,1 217.22539674441617,217.22539674441617" />
    <path d="M 203.89018050572497,228.16932588262398 A 88,88 0 0,1 155,243" />
    <path d="M 121.32385795187211,236.30139886099323 A 88,88 0 0,1 92.774603255583827,217.2253967444162" />
    <path d="M 73.698601139006783,188.67614204812796 A 88,88 0 0,1 68.690895324515722,172.16794833741932" />
    <path d="M 67,155.00000000000003 A 88,88 0 0,1 68.690895324515722,137.83205166258071" />
    <path d="M 73.698601139006769,121.32385795187207 A 88,88 0 0,1 92.7746032555838,92.774603255583827" />
    <path d="M 106.109819494275,81.83067411737602 A 88,88 0 0,1 137.83205166258068,68.690895324515722" />
    <path d="M 134.71060651032261,52.998330838064049 A 104,104 0 0,1 257.001669161936,134.71060651032266" />
    <path d="M 257.001669161936,175.28939348967734 A 104,104 0 0,1 251.08347138117381,194.79907696596933" />
    <path d="M 228.53910524340097,228.53910524340094 A 104,104 0 0,1 212.77930423403862,241.4728396794647" />
    <path d="M 155,259 A 104,104 0 0,1 134.71060651032266,257.001669161936" />
    <path d="M 81.460894756599075,228.53910524340097 A 104,104 0 0,1 51,155.00000000000003" />
    <path d="M 81.460894756599046,81.460894756599075 A 104,104 0 0,1 97.220695765961366,68.5271603205353" />
    <path d="M 88.331572037647732,55.223646523694569 A 120,120 0 0,1 155,35" />
    <path d="M 178.41083864193539,37.305766351612348 A 120,120 0 0,1 200.92201188381077,44.134456098645586" />
    <path d="M 254.77635347630542,88.331572037647732 A 120,120 0 0,1 272.69423364838764,178.41083864193539" />
    <path d="M 265.86554390135439,200.92201188381077 A 120,120 0 0,1 200.9220118838108,265.86554390135439" />
    <path d="M 178.41083864193544,272.69423364838764 A 120,120 0 0,1 131.58916135806459,272.69423364838764" />
    <path d="M 109.07798811618925,265.86554390135439 A 120,120 0 0,1 88.331572037647774,254.77635347630547" />
    <path d="M 70.147186257614308,239.85281374238571 A 120,120 0 0,1 44.134456098645614,200.92201188381085" />
    <path d="M 37.305766351612348,131.58916135806462 A 120,120 0 0,1 55.223646523694541,88.331572037647774" />
    <path d="M 90.890043791664283,35.058708048623743 A 136,136 0 0,1 181.53228379419343,21.613201865160647" />
    <path d="M 194.4787161066069,24.856114340419595 A 136,136 0 0,1 207.0449468016522,29.352383578464995" />
    <path d="M 219.10995620833569,35.058708048623714 A 136,136 0 0,1 241.2774866462558,49.87057834266777" />
    <path d="M 260.12942165733222,68.7225133537442 A 136,136 0 0,1 274.94129195137629,90.8900437916643" />
    <path d="M 280.64761642153496,102.95505319834778 A 136,136 0 0,1 285.14388565958041,115.52128389339313" />
    <path d="M 291,155 A 136,136 0 0,1 290.34512282741878,168.33033108482024" />
    <path d="M 288.38679813483935,181.53228379419343 A 136,136 0 0,1 274.94129195137629,219.10995620833569" />
    <path d="M 268.07986727314619,230.55755169066589 A 136,136 0 0,1 241.2774866462558,260.12942165733222" />
    <path d="M 230.55755169066589,268.07986727314619 A 136,136 0 0,1 115.52128389339315,285.14388565958041" />
    <path d="M 90.890043791664326,274.94129195137629 A 136,136 0 0,1 49.870578342667812,241.27748664625585" />
    <path d="M 41.920132726853836,230.55755169066589 A 136,136 0 0,1 19.654877172581223,168.33033108482022" />
    <path d="M 19,155.00000000000003 A 136,136 0 0,1 19.654877172581223,141.66966891517984" />
    <path d="M 21.613201865160647,128.46771620580654 A 136,136 0 0,1 24.856114340419595,115.52128389339316" />
    <path d="M 29.352383578465009,102.95505319834777 A 136,136 0 0,1 41.920132726853822,79.442448309334139" />
    <path d="M 68.722513353744148,49.870578342667827 A 136,136 0 0,1 79.4424483093341,41.920132726853851" />
    <path d="M 169.8986053300932,3.7319215458260828 A 152,152 0 1,1 155,3" />
  </g>
  <g fill="none" stroke="#000000" stroke-width="2" stroke-linecap="butt">
    <line x1="155" y1="35" x2="155" y2="99" />
    <line x1="181.53228379419343" y1="21.613201865160647" x2="178.41083864193539" y2="37.305766351612348" />
    <line x1="199.12327094267829" y1="9.5450689687042711" x2="194.47871610660687" y2="24.856114340419595" />
    <line x1="207.0449468016522" y1="29.352383578465009" x2="200.92201188381077" y2="44.134456098645586" />
    <line x1="194.79907696596933" y1="58.916528618826177" x2="182.55320713028647" y2="88.48067365918736" />
    <line x1="226.65230399755166" y1="20.947967819050035" x2="219.10995620833569" y2="35.058708048623714" />
    <line x1="230.55755169066589" y1="41.920132726853851" x2="221.66842796235227" y2="55.223646523694569" />
    <line x1="203.890180505725" y1="81.83067411737602" x2="195.00105677741135" y2="95.134187914216739" />
    <line x1="251.16652224137044" y1="58.833477758629527" x2="217.22539674441617" y2="92.774603255583813" />
    <line x1="205.91168824543144" y1="104.08831175456857" x2="194.59797974644664" y2="115.40202025355333" />
    <line x1="183.2842712474619" y1="126.7157287525381" x2="171.97056274847714" y2="138.02943725152286" />
    <line x1="268.07986727314614" y1="79.442448309334083" x2="254.77635347630542" y2="88.331572037647732" />
    <line x1="228.16932588262398" y1="106.109819494275" x2="214.86581208578326" y2="114.99894322258864" />
    <line x1="295.4296889417156" y1="96.832118280506336" x2="280.64761642153496" y2="102.95505319834778" />
    <line x1="236.30139886099323" y1="121.3238579518721" x2="221.51932634081265" y2="127.44679286971353" />
    <line x1="206.73725382063205" y1="133.56972778755497" x2="191.95518130045147" y2="139.6926627053964" />
    <line x1="288.38679813483935" y1="128.46771620580654" x2="272.69423364838764" y2="131.58916135806459" />
    <line x1="241.30910467548426" y1="137.83205166258071" x2="225.61654018903261" y2="140.95349681483876" />
    <line x1="306.26807845417392" y1="140.10139466990677" x2="290.34512282741878" y2="141.66966891517973" />
    <line x1="291" y1="155" x2="275" y2="155" />
    <line x1="259" y1="155" x2="211" y2="155" />
    <line x1="272.69423364838764" y1="178.41083864193539" x2="241.30910467548426" y2="172.16794833741929" />
    <line x1="280.64761642153496" y1="207.0449468016522" x2="265.86554390135439" y2="200.92201188381077" />
    <line x1="236.30139886099323" y1="188.6761420481279" x2="221.51932634081265" y2="182.55320713028647" />
    <line x1="206.73725382063205" y1="176.43027221244503" x2="191.95518130045147" y2="170.3073372946036" />
    <line x1="281.38338106998691" y1="239.44667541897951" x2="268.07986727314619" y2="230.55755169066586" />
    <line x1="254.77635347630547" y1="221.66842796235224" x2="228.16932588262398" y2="203.89018050572497" />
    <line x1="205.91168824543144" y1="205.91168824543144" x2="194.59797974644667" y2="194.59797974644664" />
    <line x1="183.2842712474619" y1="183.2842712474619" x2="171.97056274847714" y2="171.97056274847714" />
    <line x1="239.44667541897954" y1="281.38338106998691" x2="230.55755169066589" y2="268.07986727314619" />
    <line x1="212.77930423403862" y1="241.4728396794647" x2="203.890180505725" y2="228.16932588262398" />
    <line x1="200.9220118838108" y1="265.86554390135439" x2="194.79907696596933" y2="251.08347138117381" />
    <line x1="176.43027221244503" y1="206.73725382063205" x2="170.3073372946036" y2="191.95518130045147" />
    <line x1="178.41083864193544" y1="272.69423364838764" x2="172.16794833741932" y2="241.30910467548426" />
    <line x1="155" y1="243" x2="155" y2="195" />
    <line x1="131.58916135806459" y1="272.69423364838764" x2="137.83205166258071" y2="241.30910467548426" />
    <line x1="96.832118280506364" y1="295.4296889417156" x2="115.20092303403067" y2="251.08347138117384" />
    <line x1="121.3238579518721" y1="236.30139886099323" x2="133.56972778755497" y2="206.73725382063208" />
    <line x1="88.33157203764776" y1="254.77635347630547" x2="106.10981949427503" y2="228.16932588262398" />
    <line x1="58.833477758629542" y1="251.1665222413705" x2="70.147186257614308" y2="239.85281374238571" />
    <line x1="115.40202025355335" y1="194.59797974644667" x2="138.02943725152286" y2="171.97056274847714" />
    <line x1="37.502411088864022" y1="251.4277791928742" x2="49.870578342667812" y2="241.27748664625585" />
    <line x1="68.5271603205353" y1="212.77930423403862" x2="95.134187914216739" y2="195.00105677741135" />
    <line x1="88.480673659187374" y1="182.5532071302865" x2="118.04481869954854" y2="170.3073372946036" />
    <line x1="21.613201865160676" y1="181.53228379419349" x2="84.383459810967423" y2="169.04650318516127" />
    <line x1="19" y1="155.00000000000003" x2="51" y2="155.00000000000003" />
    <line x1="83" y1="155" x2="99" y2="155" />
    <line x1="21.613201865160647" y1="128.46771620580654" x2="68.690895324515722" y2="137.83205166258071" />
    <line x1="9.5450689687042427" y1="110.87672905732177" x2="24.856114340419595" y2="115.52128389339316" />
    <line x1="58.916528618826192" y1="115.20092303403064" x2="73.698601139006783" y2="121.32385795187207" />
    <line x1="103.26274617936795" y1="133.56972778755497" x2="118.04481869954853" y2="139.6926627053964" />
    <line x1="41.920132726853822" y1="79.442448309334154" x2="68.527160320535273" y2="97.220695765961409" />
    <line x1="37.502411088863994" y1="58.572220807125873" x2="49.870578342667784" y2="68.7225133537442" />
    <line x1="47.519769259644747" y1="47.519769259644804" x2="92.7746032555838" y2="92.774603255583827" />
    <line x1="115.40202025355333" y1="115.40202025355335" x2="126.7157287525381" y2="126.7157287525381" />
    <line x1="79.442448309334111" y1="41.920132726853851" x2="88.331572037647732" y2="55.223646523694569" />
    <line x1="106.109819494275" y1="81.83067411737602" x2="114.99894322258865" y2="95.134187914216739" />
    <line x1="109.07798811618915" y1="44.134456098645614" x2="121.32385795187204" y2="73.698601139006783" />
    <line x1="127.44679286971349" y1="88.480673659187374" x2="133.56972778755494" y2="103.26274617936795" />
  </g>
  <path fill="none" stroke="#ff0000" stroke-width="2" stroke-linecap="square" stroke-linejoin="round" d="M 162.45828649776755,3.1830906568137891 L 162.0657451031482,11.17345430645517 A 144,144 0 0,0 80.969204836176047,31.48708015996084 L 89.1948487432676,45.210737919965183 A 128,128 0 0,1 167.54619396218376,27.616354985958793 L 165.97791971691078,43.539310612713948 A 112,112 0 0,1 226.05204782632831,68.422829223373455 L 236.20234037294662,56.054661969569665 A 128,128 0 0,1 240.95954622041836,60.158255954565234 L 251.70448949797066,48.303037948885887 A 144,144 0 0,1 285.17445820977582,93.432066546039366 L 270.71062951980076,100.27294804092388 A 128,128 0 0,1 279.16400040890164,123.8985369723822 L 294.68450046001431,120.01085409392999 A 144,144 0 0,1 297.44141743492844,133.87081167842791 L 281.614593275492,136.2184992697137 A 128,128 0 0,1 282.8458183942621,148.71933768609048 L 298.82654569354486,147.9342548968518 A 144,144 0 0,1 297.44141743492844,176.12918832157209 L 281.614593275492,173.7815007302863 A 128,128 0 0,1 277.48836297372276,192.15643868857114 L 262.17731760200741,187.51188385249975 A 112,112 0 0,1 253.77518160701578,207.79643452451174 L 239.66444137744207,200.25408673529577 A 96,96 0 0,0 246.86627223029205,182.86732901642836 L 231.5552268585767,178.22277418035696 A 80,80 0 0,0 234.61477813377576,162.84137122636486 L 218.69182250702062,161.27309698109187 A 64,64 0 0,1 208.2140551873629,190.55649491325454 L 194.91054139052218,181.66737118494089 A 48,48 0 0,1 181.66737118494089,194.91054139052218 L 190.55649491325454,208.2140551873629 A 64,64 0 0,1 167.48578060903222,217.77025794580675 L 161.24289030451612,186.38512897290337 A 32,32 0 0,1 142.75413016431713,184.56414504036118 L 145.81559762323786,177.17310878027089" />
  <type>Circular</type>
</svg>