<?xml version="1.0" encoding="utf-8" standalone="no"?>
<!DOCTYPE svg PUBLIC "-//W3C//DTD SVG 1.1//EN" "http://www.w3.org/Graphics/SVG/1.1/DTD/svg11.dtd"[]>
<svg width="308" height="308" version="1.1" xmlns="http://www.w3.org/2000/svg">
  <title>19 cells diameter theta maze</title>
  <g fill="none" stroke="#000000" stroke-width="2" stroke-linecap="square">
    <path d="M 138.02943725152286,171.97056274847714 A 24,24 0 1,1 155,179" />
    <path d="M 126.7157287525381,126.7157287525381 A 40,40 0 0,1 170.3073372946036,118.04481869954853" />
    <path d="M 183.2842712474619,126.7157287525381 A 40,40 0 0,1 191.95518130045147,139.6926627053964" />
    <path d="M 195,155 A 40,40 0 0,1 183.2842712474619,183.2842712474619" />
    <path d="M 170.3073372946036,191.95518130045147 A 40,40 0 0,1 115,155" />
    <path d="M 155,99 A 56,56 0 0,1 176.43027221244503,103.26274617936795" />
    <path d="M 211,155 A 56,56 0 0,1 206.73725382063208,176.43027221244503" />
    <path d="M 194.59797974644667,194.59797974644664 A 56,56 0 0,1 176.43027221244503,206.73725382063205" />
    <path d="M 155,211 A 56,56 0 0,1 115.40202025355333,115.40202025355335" />
    <path d="M 169.04650318516124,84.383459810967409 A 72,72 0 0,1 195.00105677741135,95.134187914216739" />
    <path d="M 205.91168824543144,104.08831175456858 A 72,72 0 0,1 227,155" />
    <path d="M 225.61654018903261,169.04650318516124 A 72,72 0 0,1 221.51932634081265,182.55320713028647" />
    <path d="M 169.04650318516127,225.61654018903261 A 72,72 0 0,1 114.99894322258867,214.86581208578326" />
    <path d="M 104.08831175456859,205.91168824543144 A 72,72 0 0,1 83,155" />
    <path d="M 84.383459810967409,140.95349681483876 A 72,72 0 0,1 88.48067365918736,127.44679286971352" />
    <path d="M 95.134187914216724,114.99894322258867 A 72,72 0 0,1 114.99894322258865,95.134187914216739" />
    <path d="M 127.44679286971349,88.480673659187374 A 72,72 0 0,1 140.95349681483873,84.383459810967409" />
    <path d="M 137.83205166258068,68.690895324515722 A 88,88 0 0,1 188.6761420481279,73.698601139006769" />
    <path d="M 217.22539674441617,92.774603255583813 A 88,88 0 0,1 241.30910467548426,137.83205166258071" />
    <path d="M 241.30910467548426,172.16794833741929 A 88,88 0 0,1 228.16932588262398,203.89018050572497" />
    <path d="M 203.89018050572497,228.16932588262398 A 88,88 0 0,1 137.83205166258071,241.30910467548426" />
    <path d="M 121.32385795187211,236.30139886099323 A 88,88 0 0,1 81.83067411737602,203.890180505725" />
    <path d="M 73.698601139006783,188.67614204812796 A 88,88 0 0,1 68.690895324515722,172.16794833741932" />
    <path d="M 67,155.00000000000003 A 88,88 0 0,1 68.690895324515722,137.83205166258071" />
    <path d="M 73.698601139006769,121.32385795187207 A 88,88 0 0,1 81.830674117375992,106.10981949427503" />
    <path d="M 92.7746032555838,92.774603255583827 A 88,88 0 0,1 106.109819494275,81.83067411737602" />
    <path d="M 175.28939348967734,52.998330838064035 A 104,104 0 0,1 228.53910524340094,81.46089475659906" />
    <path d="M 241.4728396794647,97.220695765961366 A 104,104 0 0,1 257.001669161936,134.71060651032266" />
    <path d="M 251.08347138117381,194.79907696596933 A 104,104 0 0,1 241.47283967946473,212.77930423403859" />
    <path d="M 228.53910524340097,228.53910524340094 A 104,104 0 0,1 134.71060651032266,257.001669161936" />
    <path d="M 115.20092303403068,251.08347138117381 A 104,104 0 0,1 97.220695765961409,241.47283967946473" />
    <path d="M 68.527160320535287,212.77930423403862 A 104,104 0 0,1 58.916528618826206,194.79907696596939" />
    <path d="M 52.998330838064035,175.28939348967737 A 104,104 0 0,1 58.916528618826192,115.20092303403064" />
    <path d="M 68.527160320535273,97.220695765961409 A 104,104 0 0,1 81.460894756599046,81.460894756599075" />
    <path d="M 97.220695765961366,68.5271603205353 A 104,104 0 0,1 134.71060651032261,52.998330838064049" />
    <path d="M 155,35 A 120,120 0 0,1 178.41083864193539,37.305766351612348" />
    <path d="M 254.77635347630542,88.331572037647732 A 120,120 0 0,1 265.86554390135439,109.07798811618923" />
    <path d="M 272.69423364838764,178.41083864193539 A 120,120 0 0,1 254.77635347630545,221.66842796235224" />
    <path d="M 239.85281374238571,239.85281374238571 A 120,120 0 0,1 200.9220118838108,265.86554390135439" />
    <path d="M 131.58916135806459,272.69423364838764 A 120,120 0 0,1 55.223646523694569,221.66842796235227" />
    <path d="M 44.134456098645614,200.92201188381085 A 120,120 0 0,1 37.305766351612348,178.41083864193544" />
    <path d="M 44.1344560986456,109.0779881161892 A 120,120 0 0,1 55.223646523694541,88.331572037647774" />
    <path d="M 128.46771620580648,21.613201865160676 A 136,136 0 0,1 168.33033108482024,19.654877172581223" />
    <path d="M 181.53228379419343,21.613201865160647 A 136,136 0 0,1 194.4787161066069,24.856114340419595" />
    <path d="M 207.0449468016522,29.352383578464995 A 136,136 0 0,1 290.34512282741878,141.66966891517973" />
    <path d="M 291,155 A 136,136 0 0,1 274.94129195137629,219.10995620833569" />
    <path d="M 268.07986727314619,230.55755169066589 A 136,136 0 0,1 260.12942165733227,241.27748664625577" />
    <path d="M 251.16652224137047,251.16652224137044 A 136,136 0 0,1 241.2774866462558,260.12942165733222" />
    <path d="M 230.55755169066589,268.07986727314619 A 136,136 0 0,1 194.4787161066069,285.14388565958041" />
    <path d="M 181.53228379419349,288.3867981348393 A 136,136 0 0,1 155.00000000000003,291" />
    <path d="M 141.66966891517976,290.34512282741878 A 136,136 0 0,1 128.46771620580654,288.38679813483935" />
    <path d="M 115.52128389339315,285.14388565958041 A 136,136 0 0,1 49.870578342667812,241.27748664625585" />
    <path d="M 41.920132726853836,230.55755169066589 A 136,136 0 0,1 24.856114340419595,194.4787161066069" />
    <path d="M 19.654877172581223,168.33033108482022 A 136,136 0 0,1 19,155.00000000000003" />
    <path d="M 24.856114340419595,115.52128389339316 A 136,136 0 0,1 35.058708048623714,90.890043791664326" />
    <path d="M 41.920132726853822,79.442448309334139 A 136,136 0 0,1 115.5212838933931,24.856114340419595" />
    <path d="M 169.8986053300932,3.7319215458260828 A 152,152 0 1,1 155,3" />
  </g>
  <g fill="none" stroke="#000000" stroke-width="2" stroke-linecap="butt">
    <line x1="155" y1="35" x2="155" y2="67" />
    <line x1="155" y1="83" x2="155" y2="99" />
    <line x1="155" y1="115" x2="155" y2="131" />
    <line x1="181.53228379419343" y1="21.613201865160647" x2="178.41083864193539" y2="37.305766351612348" />
    <line x1="199.12327094267829" y1="9.5450689687042711" x2="194.47871610660687" y2="24.856114340419595" />
    <line x1="207.0449468016522" y1="29.352383578465009" x2="200.92201188381077" y2="44.134456098645586" />
    <line x1="194.79907696596933" y1="58.916528618826177" x2="176.43027221244503" y2="103.26274617936795" />
    <line x1="221.66842796235227" y1="55.223646523694569" x2="212.77930423403862" y2="68.5271603205353" />
    <line x1="203.890180505725" y1="81.83067411737602" x2="195.00105677741135" y2="95.134187914216739" />
    <line x1="262.48023074035518" y1="47.519769259644775" x2="239.85281374238571" y2="70.1471862576143" />
    <line x1="228.53910524340094" y1="81.460894756599046" x2="217.22539674441617" y2="92.774603255583813" />
    <line x1="205.91168824543144" y1="104.08831175456857" x2="171.97056274847714" y2="138.02943725152286" />
    <line x1="268.07986727314614" y1="79.442448309334083" x2="241.4728396794647" y2="97.220695765961352" />
    <line x1="206.73725382063205" y1="133.56972778755497" x2="191.95518130045147" y2="139.6926627053964" />
    <line x1="272.69423364838764" y1="131.58916135806459" x2="257.001669161936" y2="134.71060651032266" />
    <line x1="275" y1="155" x2="227" y2="155" />
    <line x1="211" y1="155" x2="195" y2="155" />
    <line x1="272.69423364838764" y1="178.41083864193539" x2="225.61654018903261" y2="169.04650318516124" />
    <line x1="295.4296889417156" y1="213.16788171949364" x2="280.64761642153496" y2="207.0449468016522" />
    <line x1="221.51932634081265" y1="182.55320713028647" x2="206.73725382063205" y2="176.43027221244503" />
    <line x1="268.07986727314619" y1="230.55755169066586" x2="254.77635347630547" y2="221.66842796235224" />
    <line x1="241.47283967946473" y1="212.77930423403859" x2="214.86581208578326" y2="195.00105677741135" />
    <line x1="262.48023074035524" y1="262.48023074035518" x2="239.85281374238571" y2="239.85281374238571" />
    <line x1="217.22539674441617" y1="217.22539674441617" x2="183.2842712474619" y2="183.2842712474619" />
    <line x1="239.44667541897954" y1="281.38338106998691" x2="230.55755169066589" y2="268.07986727314619" />
    <line x1="212.77930423403862" y1="241.4728396794647" x2="195.00105677741135" y2="214.86581208578326" />
    <line x1="182.55320713028647" y1="221.51932634081265" x2="170.3073372946036" y2="191.95518130045147" />
    <line x1="184.65372894645154" y1="304.079362621291" x2="178.41083864193544" y2="272.69423364838764" />
    <line x1="172.16794833741932" y1="241.30910467548426" x2="169.04650318516127" y2="225.61654018903261" />
    <line x1="155.00000000000003" y1="291" x2="155.00000000000003" y2="275" />
    <line x1="155" y1="227" x2="155" y2="211" />
    <line x1="155" y1="195" x2="155" y2="179" />
    <line x1="125.34627105354849" y1="304.079362621291" x2="128.46771620580654" y2="288.38679813483935" />
    <line x1="102.9550531983478" y1="280.647616421535" x2="115.20092303403067" y2="251.08347138117384" />
    <line x1="83.347696002448359" y1="289.05203218094994" x2="90.890043791664326" y2="274.94129195137629" />
    <line x1="70.147186257614308" y1="239.85281374238571" x2="92.774603255583827" y2="217.2253967444162" />
    <line x1="104.08831175456858" y1="205.91168824543144" x2="115.40202025355335" y2="194.59797974644667" />
    <line x1="41.920132726853851" y1="230.55755169066589" x2="55.223646523694569" y2="221.66842796235227" />
    <line x1="68.5271603205353" y1="212.77930423403862" x2="81.83067411737602" y2="203.890180505725" />
    <line x1="44.134456098645614" y1="200.92201188381085" x2="73.698601139006783" y2="188.67614204812796" />
    <line x1="21.613201865160676" y1="181.53228379419349" x2="37.305766351612363" y2="178.41083864193544" />
    <line x1="3" y1="155.00000000000003" x2="35" y2="155.00000000000003" />
    <line x1="3.7319215458260544" y1="140.10139466990688" x2="19.654877172581223" y2="141.66966891517984" />
    <line x1="5.9206373787089888" y1="125.34627105354849" x2="21.613201865160647" y2="128.46771620580654" />
    <line x1="37.305766351612348" y1="131.58916135806462" x2="52.998330838064035" y2="134.71060651032266" />
    <line x1="68.690895324515722" y1="137.83205166258071" x2="84.383459810967409" y2="140.95349681483876" />
    <line x1="29.352383578465023" y1="102.95505319834777" x2="118.04481869954853" y2="139.6926627053964" />
    <line x1="20.947967819050035" y1="83.347696002448373" x2="35.058708048623714" y2="90.890043791664326" />
    <line x1="28.61661893001309" y1="70.553324581020519" x2="41.920132726853822" y2="79.442448309334154" />
    <line x1="58.833477758629513" y1="58.833477758629556" x2="104.08831175456857" y2="104.08831175456859" />
    <line x1="115.40202025355333" y1="115.40202025355335" x2="126.7157287525381" y2="126.7157287525381" />
    <line x1="88.331572037647732" y1="55.223646523694569" x2="97.220695765961381" y2="68.5271603205353" />
    <line x1="102.95505319834771" y1="29.352383578465037" x2="109.07798811618915" y2="44.134456098645614" />
    <line x1="115.20092303403061" y1="58.916528618826206" x2="121.32385795187204" y2="73.698601139006783" />
    <line x1="127.44679286971349" y1="88.480673659187374" x2="133.56972778755494" y2="103.26274617936795" />
    <line x1="125.34627105354844" y1="5.9206373787089888" x2="134.71060651032261" y2="52.998330838064049" />
    <line x1="137.83205166258068" y1="68.690895324515736" x2="140.95349681483873" y2="84.383459810967423" />
  </g>
  <path fill="none" stroke="#ff0000" stroke-width="2" stroke-linecap="square" stroke-linejoin="round" d="M 162.45828649776755,3.1830906568137891 L 162.0657451031482,11.17345430645517 A 144,144 0 0,1 176.12918832157209,12.558582565071532 L 173.7815007302863,28.38540672450803 A 128,128 0 0,0 142.45380603781626,27.616354985958793 L 145.59035452836218,59.4622662394691 A 96,96 0 0,0 127.1326709835716,63.133727769707946 L 131.777225819643,78.4447731414233 A 80,80 0 0,0 117.28826105392017,84.4462988521316 L 124.83060884313613,98.557039081705284 A 64,64 0 0,0 119.44350508674546,101.7859448126371 L 128.33262881505908,115.08945860947783 A 48,48 0 0,1 181.66737118494092,115.08945860947783 L 190.55649491325454,101.7859448126371 A 64,64 0 0,1 195.60117018647333,105.52733098478484 L 205.75146273309164,93.159163730981049 A 80,80 0 0,1 234.61477813377576,147.15862877363514 L 282.38364501404118,142.45380603781621 A 128,128 0 0,1 264.78926208003486,220.80515125673236 L 278.51291984003922,229.03079516382391 A 144,144 0 0,1 261.6969620511141,251.70448949797066 L 249.84174404543475,240.95954622041836 A 128,128 0 0,0 253.94533803043035,236.20234037294659 L 229.20900352282274,215.90175527970996 A 96,96 0 0,1 215.90175527970996,229.20900352282274 L 195.60117018647333,204.47266901521516 A 64,64 0 0,1 185.16939115686387,211.44296091829472 L 192.71173894607983,225.5537011478684 A 80,80 0 0,1 178.222774180357,231.5552268585767 L 173.5782193442856,216.24418148686135 A 64,64 0 0,1 167.48578060903222,217.77025794580675 L 164.36433545677417,202.07769345935506 A 48,48 0 0,1 107.92230654064494,145.63566454322583 L 123.61487102709663,148.75710969548391 A 32,32 0 0,0 142.75413016431713,184.56414504036118 L 145.81559762323786,177.17310878027089" />
  <type>Circular</type>
</svg>