<?xml version="1.0" encoding="utf-8" standalone="no"?>
<!DOCTYPE svg PUBLIC "-//W3C//DTD SVG 1.1//EN" "http://www.w3.org/Graphics/SVG/1.1/DTD/svg11.dtd"[]>
<svg width="308" height="308" version="1.1" xmlns="http://www.w3.org/2000/svg">
  <title>19 cells diameter theta maze</title>
  <g fill="none" stroke="#000000" stroke-width="2" stroke-linecap="square">
    <path d="M 138.02943725152286,171.97056274847714 A 24,24 0 1,1 155,179" />
    <path d="M 118.04481869954853,139.6926627053964 A 40,40 0 0,1 191.95518130045147,139.6926627053964" />
    <path d="M 191.95518130045147,170.3073372946036 A 40,40 0 0,1 170.3073372946036,191.95518130045147" />
    <path d="M 155,195 A 40,40 0 0,1 118.04481869954853,170.3073372946036" />
    <path d="M 206.73725382063205,133.56972778755497 A 56,56 0 0,1 211,155" />
    <path d="M 206.73725382063208,176.43027221244503 A 56,56 0 0,1 176.43027221244503,206.73725382063205" />
    <path d="M 115.40202025355335,194.59797974644667 A 56,56 0 0,1 103.26274617936795,176.43027221244506" />
    <path d="M 103.26274617936795,133.56972778755497 A 56,56 0 0,1 115.40202025355333,115.40202025355335" />
    <path d="M 83,155 A 72,72 0 0,1 195.00105677741135,95.134187914216739" />
    <path d="M 214.86581208578326,114.99894322258864 A 72,72 0 0,1 221.51932634081265,127.44679286971353" />
    <path d="M 225.61654018903261,140.95349681483876 A 72,72 0 0,1 221.51932634081265,182.55320713028647" />
    <path d="M 214.86581208578326,195.00105677741135 A 72,72 0 0,1 114.99894322258867,214.86581208578326" />
    <path d="M 155,67 A 88,88 0 0,1 172.16794833741929,68.690895324515722" />
    <path d="M 188.6761420481279,73.698601139006769 A 88,88 0 0,1 203.890180505725,81.83067411737602" />
    <path d="M 217.22539674441617,92.774603255583813 A 88,88 0 0,1 241.30910467548426,137.83205166258071" />
    <path d="M 217.22539674441617,217.22539674441617 A 88,88 0 0,1 188.6761420481279,236.30139886099323" />
    <path d="M 172.16794833741932,241.30910467548426 A 88,88 0 0,1 155,243" />
    <path d="M 121.32385795187211,236.30139886099323 A 88,88 0 0,1 106.10981949427503,228.16932588262398" />
    <path d="M 92.774603255583827,217.2253967444162 A 88,88 0 0,1 67,155.00000000000003" />
    <path d="M 68.690895324515722,137.83205166258071 A 88,88 0 0,1 81.830674117375992,106.10981949427503" />
    <path d="M 92.7746032555838,92.774603255583827 A 88,88 0 0,1 121.32385795187204,73.698601139006783" />
    <path d="M 134.71060651032261,52.998330838064049 A 104,104 0 0,1 175.28939348967734,52.998330838064035" />
    <path d="M 194.79907696596933,58.916528618826177 A 104,104 0 0,1 251.08347138117381,115.20092303403067" />
    <path d="M 257.001669161936,134.71060651032266 A 104,104 0 0,1 259,155" />
    <path d="M 241.47283967946473,212.77930423403859 A 104,104 0 0,1 228.53910524340097,228.53910524340094" />
    <path d="M 175.28939348967737,257.001669161936 A 104,104 0 0,1 134.71060651032266,257.001669161936" />
    <path d="M 115.20092303403068,251.08347138117381 A 104,104 0 0,1 81.460894756599075,228.53910524340097" />
    <path d="M 68.527160320535287,212.77930423403862 A 104,104 0 0,1 52.998330838064035,175.28939348967737" />
    <path d="M 51,155.00000000000003 A 104,104 0 0,1 52.998330838064035,134.71060651032266" />
    <path d="M 81.460894756599046,81.460894756599075 A 104,104 0 0,1 97.220695765961366,68.5271603205353" />
    <path d="M 109.07798811618915,44.134456098645614 A 120,120 0 0,1 200.92201188381077,44.134456098645586" />
    <path d="M 221.66842796235227,55.223646523694569 A 120,120 0 0,1 239.85281374238571,70.1471862576143" />
    <path d="M 265.86554390135439,109.07798811618923 A 120,120 0 0,1 272.69423364838764,131.58916135806459" />
    <path d="M 275,155 A 120,120 0 0,1 272.69423364838764,178.41083864193539" />
    <path d="M 265.86554390135439,200.92201188381077 A 120,120 0 0,1 254.77635347630545,221.66842796235224" />
    <path d="M 200.9220118838108,265.86554390135439 A 120,120 0 0,1 178.41083864193544,272.69423364838764" />
    <path d="M 155.00000000000003,275 A 120,120 0 0,1 131.58916135806459,272.69423364838764" />
    <path d="M 88.331572037647774,254.77635347630547 A 120,120 0 0,1 44.134456098645614,200.92201188381085" />
    <path d="M 37.305766351612348,131.58916135806462 A 120,120 0 0,1 88.331572037647732,55.223646523694569" />
    <path d="M 155,19 A 136,136 0 0,1 168.33033108482024,19.654877172581223" />
    <path d="M 181.53228379419343,21.613201865160647 A 136,136 0 0,1 260.12942165733222,68.7225133537442" />
    <path d="M 268.07986727314614,79.4424483093341 A 136,136 0 0,1 285.14388565958041,115.52128389339313" />
    <path d="M 288.38679813483935,128.46771620580654 A 136,136 0 0,1 291,155" />
    <path d="M 290.34512282741878,168.33033108482024 A 136,136 0 0,1 280.647616421535,207.0449468016522" />
    <path d="M 274.94129195137629,219.10995620833569 A 136,136 0 0,1 268.07986727314619,230.55755169066589" />
    <path d="M 260.12942165733227,241.27748664625577 A 136,136 0 0,1 230.55755169066589,268.07986727314619" />
    <path d="M 207.04494680165223,280.64761642153496 A 136,136 0 0,1 194.4787161066069,285.14388565958041" />
    <path d="M 168.33033108482027,290.34512282741878 A 136,136 0 0,1 141.66966891517976,290.34512282741878" />
    <path d="M 115.52128389339315,285.14388565958041 A 136,136 0 0,1 102.9550531983478,280.647616421535" />
    <path d="M 90.890043791664326,274.94129195137629 A 136,136 0 0,1 79.442448309334139,268.07986727314619" />
    <path d="M 68.722513353744233,260.12942165733227 A 136,136 0 0,1 41.920132726853836,230.55755169066589" />
    <path d="M 29.352383578465037,207.04494680165229 A 136,136 0 0,1 19.654877172581223,168.33033108482022" />
    <path d="M 19,155.00000000000003 A 136,136 0 0,1 21.613201865160647,128.46771620580654" />
    <path d="M 24.856114340419595,115.52128389339316 A 136,136 0 0,1 35.058708048623714,90.890043791664326" />
    <path d="M 41.920132726853822,79.442448309334139 A 136,136 0 0,1 58.833477758629513,58.833477758629556" />
    <path d="M 68.722513353744148,49.870578342667827 A 136,136 0 0,1 102.95505319834771,29.352383578465037" />
    <path d="M 115.5212838933931,24.856114340419595 A 136,136 0 0,1 141.66966891517978,19.654877172581223" />
    <path d="M 169.8986053300932,3.7319215458260828 A 152,152 0 1,1 155,3" />
  </g>
  <g fill="none" stroke="#000000" stroke-width="2" stroke-linecap="butt">
    <line x1="155" y1="19" x2="155" y2="35" />
    <line x1="155" y1="83" x2="155" y2="99" />
    <line x1="184.65372894645151" y1="5.9206373787089888" x2="181.53228379419343" y2="21.613201865160647" />
    <line x1="178.41083864193539" y1="37.305766351612348" x2="175.28939348967734" y2="52.998330838064035" />
    <line x1="172.16794833741929" y1="68.690895324515722" x2="169.04650318516124" y2="84.383459810967409" />
    <line x1="182.55320713028647" y1="88.48067365918736" x2="176.43027221244503" y2="103.26274617936795" />
    <line x1="230.55755169066589" y1="41.920132726853851" x2="203.890180505725" y2="81.83067411737602" />
    <line x1="228.53910524340094" y1="81.460894756599046" x2="217.22539674441617" y2="92.774603255583813" />
    <line x1="205.91168824543144" y1="104.08831175456857" x2="183.2842712474619" y2="126.7157287525381" />
    <line x1="254.77635347630542" y1="88.331572037647732" x2="241.4728396794647" y2="97.220695765961352" />
    <line x1="228.16932588262398" y1="106.109819494275" x2="214.86581208578326" y2="114.99894322258864" />
    <line x1="280.64761642153496" y1="102.95505319834778" x2="265.86554390135439" y2="109.07798811618922" />
    <line x1="300.45493103129576" y1="110.87672905732173" x2="285.14388565958041" y2="115.52128389339313" />
    <line x1="288.38679813483935" y1="128.46771620580654" x2="272.69423364838764" y2="131.58916135806459" />
    <line x1="257.001669161936" y1="134.71060651032266" x2="241.30910467548426" y2="137.83205166258071" />
    <line x1="243" y1="155" x2="211" y2="155" />
    <line x1="195" y1="155" x2="179" y2="155" />
    <line x1="304.079362621291" y1="184.65372894645148" x2="241.30910467548426" y2="172.16794833741929" />
    <line x1="265.86554390135439" y1="200.92201188381077" x2="206.73725382063205" y2="176.43027221244503" />
    <line x1="289.05203218094994" y1="226.65230399755166" x2="274.94129195137629" y2="219.10995620833569" />
    <line x1="254.77635347630547" y1="221.66842796235224" x2="241.47283967946473" y2="212.77930423403859" />
    <line x1="228.16932588262398" y1="203.89018050572497" x2="214.86581208578326" y2="195.00105677741135" />
    <line x1="272.49758891113606" y1="251.42777919287408" x2="260.12942165733227" y2="241.27748664625577" />
    <line x1="251.16652224137047" y1="251.16652224137044" x2="239.85281374238571" y2="239.85281374238571" />
    <line x1="228.53910524340097" y1="228.53910524340094" x2="217.22539674441617" y2="217.22539674441617" />
    <line x1="183.2842712474619" y1="183.2842712474619" x2="171.97056274847714" y2="171.97056274847714" />
    <line x1="230.55755169066589" y1="268.07986727314619" x2="212.77930423403862" y2="241.4728396794647" />
    <line x1="226.65230399755166" y1="289.05203218094994" x2="219.10995620833569" y2="274.94129195137629" />
    <line x1="194.79907696596933" y1="251.08347138117381" x2="188.6761420481279" y2="236.30139886099323" />
    <line x1="176.43027221244503" y1="206.73725382063205" x2="170.3073372946036" y2="191.95518130045147" />
    <line x1="199.12327094267829" y1="300.4549310312957" x2="194.4787161066069" y2="285.14388565958041" />
    <line x1="181.53228379419349" y1="288.38679813483935" x2="175.28939348967737" y2="257.001669161936" />
    <line x1="172.16794833741932" y1="241.30910467548426" x2="169.04650318516127" y2="225.61654018903261" />
    <line x1="155.00000000000003" y1="307" x2="155.00000000000003" y2="275" />
    <line x1="155" y1="259" x2="155" y2="243" />
    <line x1="155" y1="227" x2="155" y2="195" />
    <line x1="128.46771620580654" y1="288.38679813483935" x2="134.71060651032266" y2="257.001669161936" />
    <line x1="137.83205166258071" y1="241.30910467548426" x2="140.95349681483876" y2="225.61654018903261" />
    <line x1="102.9550531983478" y1="280.647616421535" x2="115.20092303403067" y2="251.08347138117384" />
    <line x1="133.56972778755497" y1="206.73725382063208" x2="139.6926627053964" y2="191.95518130045147" />
    <line x1="70.5533245810205" y1="281.38338106998691" x2="79.442448309334139" y2="268.07986727314619" />
    <line x1="106.10981949427503" y1="228.16932588262398" x2="114.99894322258865" y2="214.86581208578326" />
    <line x1="81.46089475659906" y1="228.53910524340097" x2="115.40202025355335" y2="194.59797974644667" />
    <line x1="126.7157287525381" y1="183.2842712474619" x2="138.02943725152286" y2="171.97056274847714" />
    <line x1="28.616618930013118" y1="239.44667541897954" x2="41.920132726853851" y2="230.55755169066589" />
    <line x1="81.83067411737602" y1="203.890180505725" x2="95.134187914216739" y2="195.00105677741135" />
    <line x1="20.947967819050064" y1="226.65230399755166" x2="35.058708048623728" y2="219.10995620833569" />
    <line x1="44.134456098645614" y1="200.92201188381085" x2="58.916528618826206" y2="194.79907696596939" />
    <line x1="88.480673659187374" y1="182.5532071302865" x2="103.26274617936795" y2="176.43027221244506" />
    <line x1="21.613201865160676" y1="181.53228379419349" x2="52.998330838064049" y2="175.28939348967737" />
    <line x1="68.690895324515736" y1="172.16794833741932" x2="84.383459810967423" y2="169.04650318516127" />
    <line x1="3.7319215458260544" y1="169.89860533009318" x2="19.654877172581223" y2="168.33033108482022" />
    <line x1="19" y1="155.00000000000003" x2="35" y2="155.00000000000003" />
    <line x1="51" y1="155.00000000000003" x2="67" y2="155.00000000000003" />
    <line x1="83" y1="155" x2="115" y2="155" />
    <line x1="21.613201865160647" y1="128.46771620580654" x2="37.305766351612348" y2="131.58916135806462" />
    <line x1="52.998330838064035" y1="134.71060651032266" x2="84.383459810967409" y2="140.95349681483876" />
    <line x1="9.5450689687042427" y1="110.87672905732177" x2="24.856114340419595" y2="115.52128389339316" />
    <line x1="44.1344560986456" y1="109.0779881161892" x2="58.916528618826192" y2="115.20092303403064" />
    <line x1="103.26274617936795" y1="133.56972778755497" x2="118.04481869954853" y2="139.6926627053964" />
    <line x1="28.61661893001309" y1="70.553324581020519" x2="68.527160320535273" y2="97.220695765961409" />
    <line x1="81.460894756599046" y1="81.460894756599075" x2="92.7746032555838" y2="92.774603255583827" />
    <line x1="104.08831175456857" y1="104.08831175456859" x2="115.40202025355333" y2="115.40202025355335" />
    <line x1="88.331572037647732" y1="55.223646523694569" x2="97.220695765961381" y2="68.5271603205353" />
    <line x1="102.95505319834771" y1="29.352383578465037" x2="133.56972778755494" y2="103.26274617936795" />
    <line x1="110.8767290573217" y1="9.5450689687042711" x2="115.5212838933931" y2="24.856114340419595" />
    <line x1="134.71060651032261" y1="52.998330838064049" x2="137.83205166258068" y2="68.690895324515736" />
  </g>
  <path fill="none" stroke="#ff0000" stroke-width="2" stroke-linecap="square" stroke-linejoin="round" d="M 162.45828649776755,3.1830906568137891 L 162.0657451031482,11.17345430645517 A 144,144 0 0,1 176.12918832157209,12.558582565071532 L 173.7815007302863,28.38540672450803 A 128,128 0 0,1 215.33878231372771,42.114078163410554 L 207.79643452451174,56.224818392984233 A 112,112 0 0,0 187.51188385249978,47.822682397992608 L 178.222774180357,78.4447731414233 A 80,80 0 0,1 216.84083626901895,104.24853726690836 L 204.47266901521516,114.39882981352669 A 64,64 0 0,1 216.24418148686138,136.4217806557144 L 231.5552268585767,131.777225819643 A 80,80 0 0,1 234.61477813377576,147.15862877363514 L 250.5377337605309,145.59035452836216 A 96,96 0 0,1 250.5377337605309,164.40964547163782 L 234.61477813377576,162.84137122636486 A 80,80 0 0,1 231.5552268585767,178.22277418035696 L 277.48836297372276,192.15643868857114 A 128,128 0 0,1 253.94533803043035,236.20234037294659 L 241.57717077662656,226.05204782632828 A 112,112 0 0,1 226.05204782632831,241.57717077662653 L 215.90175527970996,229.20900352282274 A 96,96 0 0,1 200.2540867352958,239.66444137744207 L 207.79643452451177,253.77518160701575 A 112,112 0 0,1 187.51188385249978,262.17731760200741 L 178.222774180357,231.5552268585767 A 80,80 0 0,0 216.84083626901895,205.75146273309161 L 229.20900352282274,215.90175527970996 A 96,96 0 0,0 239.66444137744207,200.25408673529577 L 211.44296091829472,185.16939115686387 A 64,64 0 0,1 167.48578060903222,217.77025794580675 L 161.24289030451612,186.38512897290337 A 32,32 0 0,1 142.75413016431713,184.56414504036118 L 145.81559762323786,177.17310878027089" />
  <type>Circular</type>
</svg>