<?xml version="1.0" encoding="utf-8" standalone="no"?>
<!DOCTYPE svg PUBLIC "-//W3C//DTD SVG 1.1//EN" "http://www.w3.org/Graphics/SVG/1.1/DTD/svg11.dtd"[]>
<svg width="308" height="308" version="1.1" xmlns="http://www.w3.org/2000/svg">
  <title>19 cells diameter theta maze</title>
  <g fill="none" stroke="#000000" stroke-width="2" stroke-linecap="square">
    <path d="M 138.02943725152286,171.97056274847714 A 24,24 0 1,1 155,179" />
    <path d="M 126.7157287525381,126.7157287525381 A 40,40 0 0,1 170.3073372946036,118.04481869954853" />
    <path d="M 191.95518130045147,139.6926627053964 A 40,40 0 0,1 195,155" />
    <path d="M 191.95518130045147,170.3073372946036 A 40,40 0 0,1 126.7157287525381,183.2842712474619" />
    <path d="M 118.04481869954853,170.3073372946036 A 40,40 0 0,1 118.04481869954853,139.6926627053964" />
    <path d="M 155,99 A 56,56 0 0,1 176.43027221244503,103.26274617936795" />
    <path d="M 194.59797974644667,115.40202025355333 A 56,56 0 0,1 206.73725382063208,176.43027221244503" />
    <path d="M 194.59797974644667,194.59797974644664 A 56,56 0 0,1 155,211" />
    <path d="M 133.569727787555,206.73725382063208 A 56,56 0 0,1 99,155" />
    <path d="M 103.26274617936795,133.56972778755497 A 56,56 0 0,1 115.40202025355333,115.40202025355335" />
    <path d="M 127.44679286971349,88.480673659187374 A 72,72 0 0,1 155,83" />
    <path d="M 169.04650318516124,84.383459810967409 A 72,72 0 0,1 225.61654018903261,140.95349681483876" />
    <path d="M 225.61654018903261,169.04650318516124 A 72,72 0 0,1 214.86581208578326,195.00105677741135" />
    <path d="M 205.91168824543144,205.91168824543141 A 72,72 0 0,1 195.00105677741135,214.86581208578326" />
    <path d="M 182.55320713028647,221.51932634081265 A 72,72 0 0,1 155,227" />
    <path d="M 140.95349681483876,225.61654018903261 A 72,72 0 0,1 104.08831175456859,205.91168824543144" />
    <path d="M 95.134187914216739,195.00105677741135 A 72,72 0 0,1 83,155" />
    <path d="M 84.383459810967409,140.95349681483876 A 72,72 0 0,1 88.48067365918736,127.44679286971352" />
    <path d="M 95.134187914216724,114.99894322258867 A 72,72 0 0,1 114.99894322258865,95.134187914216739" />
    <path d="M 155,67 A 88,88 0 0,1 188.6761420481279,73.698601139006769" />
    <path d="M 203.890180505725,81.83067411737602 A 88,88 0 0,1 217.22539674441617,92.774603255583813" />
    <path d="M 228.16932588262398,106.109819494275 A 88,88 0 0,1 241.30910467548426,172.16794833741929" />
    <path d="M 236.30139886099323,188.6761420481279 A 88,88 0 0,1 228.16932588262398,203.89018050572497" />
    <path d="M 203.89018050572497,228.16932588262398 A 88,88 0 0,1 172.16794833741932,241.30910467548426" />
    <path d="M 155,243 A 88,88 0 0,1 92.774603255583827,217.2253967444162" />
    <path d="M 68.690895324515722,172.16794833741932 A 88,88 0 0,1 67,155.00000000000003" />
    <path d="M 73.698601139006769,121.32385795187207 A 88,88 0 0,1 106.109819494275,81.83067411737602" />
    <path d="M 121.32385795187204,73.698601139006783 A 88,88 0 0,1 137.83205166258068,68.690895324515722" />
    <path d="M 155,51 A 104,104 0 0,1 175.28939348967734,52.998330838064035" />
    <path d="M 212.77930423403862,68.527160320535287 A 104,104 0 0,1 228.53910524340094,81.46089475659906" />
    <path d="M 241.4728396794647,97.220695765961366 A 104,104 0 0,1 257.001669161936,134.71060651032266" />
    <path d="M 257.001669161936,175.28939348967734 A 104,104 0 0,1 251.08347138117381,194.79907696596933" />
    <path d="M 241.47283967946473,212.77930423403859 A 104,104 0 0,1 212.77930423403862,241.4728396794647" />
    <path d="M 175.28939348967737,257.001669161936 A 104,104 0 0,1 155,259" />
    <path d="M 115.20092303403068,251.08347138117381 A 104,104 0 0,1 68.527160320535287,212.77930423403862" />
    <path d="M 58.916528618826206,194.79907696596939 A 104,104 0 0,1 58.916528618826192,115.20092303403064" />
    <path d="M 97.220695765961366,68.5271603205353 A 104,104 0 0,1 115.20092303403061,58.916528618826206" />
    <path d="M 37.305766351612348,178.41083864193544 A 120,120 0 0,1 178.41083864193539,37.305766351612348" />
    <path d="M 200.92201188381077,44.134456098645586 A 120,120 0 0,1 221.66842796235227,55.223646523694569" />
    <path d="M 265.86554390135439,109.07798811618923 A 120,120 0 0,1 272.69423364838764,178.41083864193539" />
    <path d="M 265.86554390135439,200.92201188381077 A 120,120 0 0,1 254.77635347630545,221.66842796235224" />
    <path d="M 221.66842796235227,254.77635347630542 A 120,120 0 0,1 109.07798811618925,265.86554390135439" />
    <path d="M 70.147186257614308,239.85281374238571 A 120,120 0 0,1 44.134456098645614,200.92201188381085" />
    <path d="M 168.33033108482024,19.654877172581223 A 136,136 0 0,1 194.4787161066069,24.856114340419595" />
    <path d="M 219.10995620833569,35.058708048623714 A 136,136 0 0,1 260.12942165733222,68.7225133537442" />
    <path d="M 268.07986727314614,79.4424483093341 A 136,136 0 0,1 274.94129195137629,90.8900437916643" />
    <path d="M 280.64761642153496,102.95505319834778 A 136,136 0 0,1 285.14388565958041,115.52128389339313" />
    <path d="M 288.38679813483935,128.46771620580654 A 136,136 0 0,1 291,155" />
    <path d="M 290.34512282741878,168.33033108482024 A 136,136 0 0,1 280.647616421535,207.0449468016522" />
    <path d="M 274.94129195137629,219.10995620833569 A 136,136 0 0,1 230.55755169066589,268.07986727314619" />
    <path d="M 219.10995620833569,274.94129195137629 A 136,136 0 0,1 207.04494680165223,280.64761642153496" />
    <path d="M 194.4787161066069,285.14388565958041 A 136,136 0 0,1 181.53228379419349,288.3867981348393" />
    <path d="M 168.33033108482027,290.34512282741878 A 136,136 0 0,1 141.66966891517976,290.34512282741878" />
    <path d="M 115.52128389339315,285.14388565958041 A 136,136 0 0,1 79.442448309334139,268.07986727314619" />
    <path d="M 68.722513353744233,260.12942165733227 A 136,136 0 0,1 58.833477758629556,251.16652224137047" />
    <path d="M 49.870578342667812,241.27748664625585 A 136,136 0 0,1 21.613201865160676,181.53228379419349" />
    <path d="M 19.654877172581223,141.66966891517984 A 136,136 0 0,1 21.613201865160647,128.46771620580654" />
    <path d="M 29.352383578465009,102.95505319834777 A 136,136 0 0,1 49.870578342667784,68.7225133537442" />
    <path d="M 58.833477758629513,58.833477758629556 A 136,136 0 0,1 115.5212838933931,24.856114340419595" />
    <path d="M 128.46771620580648,21.613201865160676 A 136,136 0 0,1 141.66966891517978,19.654877172581223" />
    <path d="M 169.8986053300932,3.7319215458260828 A 152,152 0 1,1 155,3" />
  </g>
  <g fill="none" stroke="#000000" stroke-width="2" stroke-linecap="butt">
    <line x1="155" y1="3" x2="155" y2="19" />
    <line x1="155" y1="51" x2="155" y2="67" />
    <line x1="155" y1="99" x2="155" y2="115" />
    <line x1="181.53228379419343" y1="21.613201865160647" x2="178.41083864193539" y2="37.305766351612348" />
    <line x1="172.16794833741929" y1="68.690895324515722" x2="169.04650318516124" y2="84.383459810967409" />
    <line x1="207.0449468016522" y1="29.352383578465009" x2="188.6761420481279" y2="73.698601139006769" />
    <line x1="182.55320713028647" y1="88.48067365918736" x2="176.43027221244503" y2="103.26274617936795" />
    <line x1="226.65230399755166" y1="20.947967819050035" x2="219.10995620833569" y2="35.058708048623714" />
    <line x1="203.890180505725" y1="81.83067411737602" x2="195.00105677741135" y2="95.134187914216739" />
    <line x1="251.16652224137044" y1="58.833477758629527" x2="239.85281374238571" y2="70.1471862576143" />
    <line x1="228.53910524340094" y1="81.460894756599046" x2="217.22539674441617" y2="92.774603255583813" />
    <line x1="194.59797974644664" y1="115.40202025355333" x2="183.2842712474619" y2="126.7157287525381" />
    <line x1="281.38338106998685" y1="70.553324581020448" x2="228.16932588262398" y2="106.109819494275" />
    <line x1="295.4296889417156" y1="96.832118280506336" x2="280.64761642153496" y2="102.95505319834778" />
    <line x1="304.079362621291" y1="125.34627105354849" x2="288.38679813483935" y2="128.46771620580654" />
    <line x1="241.30910467548426" y1="137.83205166258071" x2="225.61654018903261" y2="140.95349681483876" />
    <line x1="275" y1="155" x2="243" y2="155" />
    <line x1="227" y1="155" x2="211" y2="155" />
    <line x1="195" y1="155" x2="179" y2="155" />
    <line x1="257.001669161936" y1="175.28939348967734" x2="241.30910467548426" y2="172.16794833741929" />
    <line x1="280.64761642153496" y1="207.0449468016522" x2="265.86554390135439" y2="200.92201188381077" />
    <line x1="251.08347138117381" y1="194.79907696596933" x2="236.30139886099323" y2="188.6761420481279" />
    <line x1="221.51932634081265" y1="182.55320713028647" x2="206.73725382063205" y2="176.43027221244503" />
    <line x1="289.05203218094994" y1="226.65230399755166" x2="274.94129195137629" y2="219.10995620833569" />
    <line x1="254.77635347630547" y1="221.66842796235224" x2="241.47283967946473" y2="212.77930423403859" />
    <line x1="228.16932588262398" y1="203.89018050572497" x2="214.86581208578326" y2="195.00105677741135" />
    <line x1="251.16652224137047" y1="251.16652224137044" x2="239.85281374238571" y2="239.85281374238571" />
    <line x1="228.53910524340097" y1="228.53910524340094" x2="183.2842712474619" y2="183.2842712474619" />
    <line x1="221.66842796235227" y1="254.77635347630545" x2="212.77930423403862" y2="241.4728396794647" />
    <line x1="226.65230399755166" y1="289.05203218094994" x2="219.10995620833569" y2="274.94129195137629" />
    <line x1="207.04494680165223" y1="280.64761642153496" x2="194.79907696596933" y2="251.08347138117381" />
    <line x1="181.53228379419349" y1="288.38679813483935" x2="178.41083864193544" y2="272.69423364838764" />
    <line x1="175.28939348967737" y1="257.001669161936" x2="172.16794833741932" y2="241.30910467548426" />
    <line x1="155.00000000000003" y1="307" x2="155.00000000000003" y2="291" />
    <line x1="155" y1="259" x2="155" y2="211" />
    <line x1="128.46771620580654" y1="288.38679813483935" x2="134.71060651032266" y2="257.001669161936" />
    <line x1="115.20092303403067" y1="251.08347138117384" x2="127.44679286971355" y2="221.51932634081265" />
    <line x1="70.5533245810205" y1="281.38338106998691" x2="88.33157203764776" y2="254.77635347630547" />
    <line x1="47.519769259644789" y1="262.48023074035524" x2="70.147186257614308" y2="239.85281374238571" />
    <line x1="115.40202025355335" y1="194.59797974644667" x2="138.02943725152286" y2="171.97056274847714" />
    <line x1="81.83067411737602" y1="203.890180505725" x2="95.134187914216739" y2="195.00105677741135" />
    <line x1="58.916528618826206" y1="194.79907696596939" x2="73.698601139006783" y2="188.67614204812796" />
    <line x1="21.613201865160676" y1="181.53228379419349" x2="52.998330838064049" y2="175.28939348967737" />
    <line x1="3.7319215458260544" y1="169.89860533009318" x2="19.654877172581223" y2="168.33033108482022" />
    <line x1="19" y1="155.00000000000003" x2="35" y2="155.00000000000003" />
    <line x1="67" y1="155.00000000000003" x2="115" y2="155" />
    <line x1="3.7319215458260544" y1="140.10139466990688" x2="19.654877172581223" y2="141.66966891517984" />
    <line x1="52.998330838064035" y1="134.71060651032266" x2="84.383459810967409" y2="140.95349681483876" />
    <line x1="9.5450689687042427" y1="110.87672905732177" x2="24.856114340419595" y2="115.52128389339316" />
    <line x1="88.48067365918736" y1="127.44679286971352" x2="103.26274617936795" y2="133.56972778755497" />
    <line x1="55.223646523694541" y1="88.331572037647774" x2="95.134187914216724" y2="114.99894322258867" />
    <line x1="37.502411088863994" y1="58.572220807125873" x2="49.870578342667784" y2="68.7225133537442" />
    <line x1="70.14718625761428" y1="70.147186257614322" x2="81.460894756599046" y2="81.460894756599075" />
    <line x1="115.40202025355333" y1="115.40202025355335" x2="126.7157287525381" y2="126.7157287525381" />
    <line x1="97.220695765961381" y1="68.5271603205353" x2="106.109819494275" y2="81.83067411737602" />
    <line x1="96.832118280506251" y1="14.57031105828446" x2="102.95505319834771" y2="29.352383578465037" />
    <line x1="121.32385795187204" y1="73.698601139006783" x2="133.56972778755494" y2="103.26274617936795" />
    <line x1="128.46771620580648" y1="21.613201865160676" x2="137.83205166258068" y2="68.690895324515736" />
  </g>
  <path fill="none" stroke="#ff0000" stroke-width="2" stroke-linecap="square" stroke-linejoin="round" d="M 162.45828649776755,3.1830906568137891 L 161.28066231390952,27.154181605737932 A 128,128 0 0,0 148.71933768609048,27.154181605737932 L 147.9342548968518,11.17345430645517 A 144,144 0 0,0 120.01085409392996,15.315499539985666 L 123.89853697238219,30.835999591098371 A 128,128 0 0,0 27.154181605737932,148.71933768609054 L 11.17345430645517,147.93425489685185 A 144,144 0 0,0 11.17345430645517,162.0657451031482 L 27.154181605737932,161.28066231390952 A 128,128 0 0,0 28.385406724508044,173.78150073028638 L 12.558582565071561,176.12918832157217 A 144,144 0 0,0 48.303037948885915,251.70448949797068 L 60.158255954565263,240.95954622041839 A 128,128 0 0,1 32.51163702627727,192.1564386885712 L 47.822682397992608,187.51188385249981 A 112,112 0 0,0 56.224818392984247,207.79643452451177 L 84.4462988521316,192.71173894607983 A 80,80 0 0,1 78.4447731414233,178.222774180357 L 63.133727769707946,182.86732901642839 A 96,96 0 0,1 59.462266239469088,145.59035452836224 L 91.3081774929794,148.72690301890816 A 64,64 0 0,1 92.229742054193252,142.51421939096778 L 107.92230654064494,145.63566454322583 A 48,48 0 0,1 115.08945860947782,128.33262881505911 L 128.39297240631854,137.22175254337273 A 32,32 0 0,1 181.60702759368144,137.22175254337273 L 194.91054139052216,128.33262881505908 A 48,48 0 0,1 202.07769345935506,164.36433545677414 L 186.38512897290337,161.2428903045161 A 32,32 0 0,1 142.75413016431713,184.56414504036118 L 145.81559762323786,177.17310878027089" />
  <type>Circular</type>
</svg>