<?xml version="1.0" encoding="utf-8" standalone="no"?>
<!DOCTYPE svg PUBLIC "-//W3C//DTD SVG 1.1//EN" "http://www.w3.org/Graphics/SVG/1.1/DTD/svg11.dtd"[]>
<svg width="411" height="442.20885431492593" version="1.1" xmlns="http://www.w3.org/2000/svg">
  <title>36 by 23 delta maze</title>
  <g fill="none" stroke="#000000" stroke-width="2" stroke-linecap="round" stroke-linejoin="round">
    <line x1="13" y1="1.9999999999999911" x2="189" y2="1.9999999999999911" />
    <line x1="211" y1="1.9999999999999911" x2="409" y2="1.9999999999999911" />
    <line x1="24" y1="21.052558883257639" x2="90" y2="21.052558883257639" />
    <line x1="178" y1="21.052558883257639" x2="244" y2="21.052558883257639" />
    <line x1="13" y1="40.105117766515292" x2="35" y2="40.105117766515292" />
    <line x1="79" y1="40.105117766515292" x2="101" y2="40.105117766515292" />
    <line x1="123" y1="40.105117766515292" x2="167" y2="40.105117766515292" />
    <line x1="189" y1="40.105117766515292" x2="211" y2="40.105117766515292" />
    <line x1="233" y1="40.105117766515292" x2="255" y2="40.105117766515292" />
    <line x1="343" y1="40.105117766515292" x2="365" y2="40.105117766515292" />
    <line x1="68" y1="59.157676649772938" x2="112" y2="59.157676649772938" />
    <line x1="134" y1="59.157676649772938" x2="178" y2="59.157676649772938" />
    <line x1="266" y1="59.157676649772938" x2="288" y2="59.157676649772938" />
    <line x1="310" y1="59.157676649772938" x2="332" y2="59.157676649772938" />
    <line x1="13" y1="78.210235533030584" x2="35" y2="78.210235533030584" />
    <line x1="79" y1="78.210235533030584" x2="101" y2="78.210235533030584" />
    <line x1="233" y1="78.210235533030584" x2="277" y2="78.210235533030584" />
    <line x1="343" y1="78.210235533030584" x2="365" y2="78.210235533030584" />
    <line x1="24" y1="97.262794416288244" x2="68" y2="97.262794416288244" />
    <line x1="178" y1="97.262794416288244" x2="200" y2="97.262794416288244" />
    <line x1="244" y1="97.262794416288244" x2="266" y2="97.262794416288244" />
    <line x1="101" y1="116.31535329954589" x2="123" y2="116.31535329954589" />
    <line x1="167" y1="116.31535329954589" x2="189" y2="116.31535329954589" />
    <line x1="277" y1="116.31535329954589" x2="299" y2="116.31535329954589" />
    <line x1="321" y1="116.31535329954589" x2="343" y2="116.31535329954589" />
    <line x1="376" y1="135.36791218280354" x2="398" y2="135.36791218280354" />
    <line x1="35" y1="154.4204710660612" x2="57" y2="154.4204710660612" />
    <line x1="255" y1="154.4204710660612" x2="277" y2="154.4204710660612" />
    <line x1="321" y1="154.4204710660612" x2="343" y2="154.4204710660612" />
    <line x1="365" y1="154.4204710660612" x2="387" y2="154.4204710660612" />
    <line x1="46" y1="173.47302994931883" x2="68" y2="173.47302994931883" />
    <line x1="90" y1="173.47302994931883" x2="112" y2="173.47302994931883" />
    <line x1="156" y1="173.47302994931883" x2="178" y2="173.47302994931883" />
    <line x1="200" y1="173.47302994931883" x2="222" y2="173.47302994931883" />
    <line x1="244" y1="173.47302994931883" x2="266" y2="173.47302994931883" />
    <line x1="310" y1="173.47302994931883" x2="376" y2="173.47302994931883" />
    <line x1="79" y1="192.52558883257649" x2="123" y2="192.52558883257649" />
    <line x1="255" y1="192.52558883257649" x2="299" y2="192.52558883257649" />
    <line x1="24" y1="211.57814771583415" x2="68" y2="211.57814771583415" />
    <line x1="90" y1="211.57814771583415" x2="112" y2="211.57814771583415" />
    <line x1="134" y1="211.57814771583415" x2="156" y2="211.57814771583415" />
    <line x1="310" y1="211.57814771583415" x2="354" y2="211.57814771583415" />
    <line x1="13" y1="230.63070659909178" x2="35" y2="230.63070659909178" />
    <line x1="57" y1="230.63070659909178" x2="79" y2="230.63070659909178" />
    <line x1="145" y1="230.63070659909178" x2="167" y2="230.63070659909178" />
    <line x1="189" y1="230.63070659909178" x2="211" y2="230.63070659909178" />
    <line x1="255" y1="230.63070659909178" x2="299" y2="230.63070659909178" />
    <line x1="321" y1="230.63070659909178" x2="343" y2="230.63070659909178" />
    <line x1="24" y1="249.68326548234944" x2="46" y2="249.68326548234944" />
    <line x1="90" y1="249.68326548234944" x2="156" y2="249.68326548234944" />
    <line x1="178" y1="249.68326548234944" x2="244" y2="249.68326548234944" />
    <line x1="266" y1="249.68326548234944" x2="332" y2="249.68326548234944" />
    <line x1="13" y1="268.73582436560707" x2="57" y2="268.73582436560707" />
    <line x1="79" y1="268.73582436560707" x2="123" y2="268.73582436560707" />
    <line x1="233" y1="268.73582436560707" x2="255" y2="268.73582436560707" />
    <line x1="277" y1="268.73582436560707" x2="299" y2="268.73582436560707" />
    <line x1="24" y1="287.78838324886476" x2="68" y2="287.78838324886476" />
    <line x1="112" y1="287.78838324886476" x2="134" y2="287.78838324886476" />
    <line x1="244" y1="287.78838324886476" x2="266" y2="287.78838324886476" />
    <line x1="354" y1="287.78838324886476" x2="376" y2="287.78838324886476" />
    <line x1="57" y1="306.84094213212234" x2="79" y2="306.84094213212234" />
    <line x1="233" y1="306.84094213212234" x2="299" y2="306.84094213212234" />
    <line x1="343" y1="306.84094213212234" x2="387" y2="306.84094213212234" />
    <line x1="2" y1="325.89350101538" x2="24" y2="325.89350101538" />
    <line x1="134" y1="325.89350101538" x2="156" y2="325.89350101538" />
    <line x1="200" y1="325.89350101538" x2="222" y2="325.89350101538" />
    <line x1="244" y1="325.89350101538" x2="266" y2="325.89350101538" />
    <line x1="288" y1="325.89350101538" x2="310" y2="325.89350101538" />
    <line x1="332" y1="325.89350101538" x2="354" y2="325.89350101538" />
    <line x1="376" y1="325.89350101538" x2="398" y2="325.89350101538" />
    <line x1="35" y1="344.94605989863771" x2="57" y2="344.94605989863771" />
    <line x1="79" y1="344.94605989863771" x2="123" y2="344.94605989863771" />
    <line x1="299" y1="344.94605989863771" x2="343" y2="344.94605989863771" />
    <line x1="2" y1="363.99861878189529" x2="68" y2="363.99861878189529" />
    <line x1="178" y1="363.99861878189529" x2="200" y2="363.99861878189529" />
    <line x1="222" y1="363.99861878189529" x2="266" y2="363.99861878189529" />
    <line x1="57" y1="383.051177665153" x2="79" y2="383.051177665153" />
    <line x1="255" y1="383.051177665153" x2="277" y2="383.051177665153" />
    <line x1="321" y1="383.051177665153" x2="343" y2="383.051177665153" />
    <line x1="2" y1="402.10373654841067" x2="24" y2="402.10373654841067" />
    <line x1="46" y1="402.10373654841067" x2="90" y2="402.10373654841067" />
    <line x1="244" y1="402.10373654841067" x2="266" y2="402.10373654841067" />
    <line x1="310" y1="402.10373654841067" x2="332" y2="402.10373654841067" />
    <line x1="13" y1="421.15629543166824" x2="35" y2="421.15629543166824" />
    <line x1="145" y1="421.15629543166824" x2="167" y2="421.15629543166824" />
    <line x1="255" y1="421.15629543166824" x2="299" y2="421.15629543166824" />
    <line x1="321" y1="421.15629543166824" x2="343" y2="421.15629543166824" />
    <line x1="2" y1="440.20885431492593" x2="200" y2="440.20885431492593" />
    <line x1="222" y1="440.20885431492593" x2="398" y2="440.20885431492593" />
    <polyline points="13,1.9999999999999911 2,21.052558883257639 13,40.105117766515292 2,59.157676649772938" />
    <line x1="2" y1="59.157676649772945" x2="13" y2="78.2102355330306" />
    <line x1="13" y1="78.210235533030584" x2="2" y2="97.262794416288244" />
    <polyline points="2,97.26279441628823 13,116.31535329954589 2,135.36791218280354 13,154.42047106606117" />
    <line x1="13" y1="154.4204710660612" x2="2" y2="173.47302994931883" />
    <polyline points="2,173.47302994931886 13,192.52558883257649 2,211.57814771583412" />
    <line x1="2" y1="211.57814771583415" x2="13" y2="230.63070659909178" />
    <line x1="13" y1="230.63070659909181" x2="2" y2="249.68326548234944" />
    <polyline points="2,249.68326548234941 13,268.73582436560707 2,287.78838324886476 13,306.84094213212245" />
    <polyline points="13,306.84094213212234 2,325.89350101538 13,344.94605989863771 2,363.9986187818954" />
    <polyline points="2,363.99861878189529 13,383.051177665153 2,402.10373654841067 13,421.15629543166835" />
    <line x1="13" y1="421.15629543166824" x2="2" y2="440.20885431492593" />
    <line x1="13" y1="78.210235533030584" x2="24" y2="97.262794416288244" />
    <line x1="13" y1="116.31535329954589" x2="24" y2="135.36791218280354" />
    <polyline points="24,21.052558883257639 35,40.105117766515292 24,59.157676649772938" />
    <line x1="24" y1="135.36791218280354" x2="35" y2="154.42047106606117" />
    <line x1="35" y1="154.4204710660612" x2="24" y2="173.47302994931883" />
    <polyline points="35,306.84094213212234 24,325.89350101538 35,344.94605989863771" />
    <line x1="35" y1="40.105117766515292" x2="46" y2="59.157676649772938" />
    <line x1="35" y1="116.31535329954589" x2="46" y2="135.36791218280354" />
    <line x1="46" y1="173.47302994931886" x2="35" y2="192.52558883257649" />
    <line x1="46" y1="211.57814771583415" x2="35" y2="230.63070659909178" />
    <line x1="46" y1="287.78838324886476" x2="35" y2="306.84094213212245" />
    <polyline points="35,383.051177665153 46,402.10373654841067 35,421.15629543166835" />
    <line x1="46" y1="59.157676649772945" x2="57" y2="78.2102355330306" />
    <polyline points="57,116.31535329954589 46,135.36791218280354 57,154.42047106606117" />
    <line x1="57" y1="230.63070659909181" x2="46" y2="249.68326548234944" />
    <line x1="57" y1="306.84094213212234" x2="46" y2="325.89350101538" />
    <line x1="57" y1="40.105117766515292" x2="68" y2="59.157676649772938" />
    <line x1="68" y1="59.157676649772945" x2="57" y2="78.2102355330306" />
    <line x1="68" y1="173.47302994931886" x2="57" y2="192.52558883257649" />
    <line x1="68" y1="249.68326548234941" x2="57" y2="268.73582436560707" />
    <line x1="57" y1="421.15629543166824" x2="68" y2="440.20885431492593" />
    <polyline points="68,97.26279441628823 79,116.31535329954589 68,135.36791218280354 79,154.42047106606117" />
    <line x1="79" y1="154.4204710660612" x2="68" y2="173.47302994931883" />
    <line x1="68" y1="173.47302994931886" x2="79" y2="192.52558883257649" />
    <polyline points="79,268.73582436560707 68,287.78838324886476 79,306.84094213212245" />
    <polyline points="68,325.89350101538 79,344.94605989863771 68,363.9986187818954" />
    <line x1="79" y1="78.210235533030584" x2="90" y2="97.262794416288244" />
    <line x1="90" y1="211.57814771583415" x2="79" y2="230.63070659909178" />
    <line x1="79" y1="230.63070659909181" x2="90" y2="249.68326548234944" />
    <line x1="90" y1="249.68326548234941" x2="79" y2="268.73582436560707" />
    <line x1="90" y1="287.78838324886476" x2="79" y2="306.84094213212245" />
    <line x1="79" y1="306.84094213212234" x2="90" y2="325.89350101538" />
    <line x1="79" y1="344.94605989863771" x2="90" y2="363.9986187818954" />
    <line x1="90" y1="363.99861878189529" x2="79" y2="383.051177665153" />
    <line x1="90" y1="402.10373654841067" x2="79" y2="421.15629543166835" />
    <polyline points="90,97.26279441628823 101,116.31535329954589 90,135.36791218280354 101,154.42047106606117" />
    <line x1="101" y1="154.4204710660612" x2="90" y2="173.47302994931883" />
    <line x1="90" y1="287.78838324886476" x2="101" y2="306.84094213212245" />
    <line x1="101" y1="383.051177665153" x2="90" y2="402.10373654841067" />
    <line x1="112" y1="21.052558883257639" x2="101" y2="40.105117766515292" />
    <line x1="101" y1="116.31535329954589" x2="112" y2="135.36791218280354" />
    <line x1="101" y1="230.63070659909181" x2="112" y2="249.68326548234944" />
    <line x1="101" y1="306.84094213212234" x2="112" y2="325.89350101538" />
    <line x1="101" y1="421.15629543166824" x2="112" y2="440.20885431492593" />
    <polyline points="123,1.9999999999999911 112,21.052558883257639 123,40.105117766515292" />
    <line x1="123" y1="78.210235533030584" x2="112" y2="97.262794416288244" />
    <line x1="112" y1="135.36791218280354" x2="123" y2="154.42047106606117" />
    <line x1="112" y1="173.47302994931886" x2="123" y2="192.52558883257649" />
    <line x1="123" y1="268.73582436560707" x2="112" y2="287.78838324886476" />
    <line x1="112" y1="363.99861878189529" x2="123" y2="383.051177665153" />
    <line x1="112" y1="402.10373654841067" x2="123" y2="421.15629543166835" />
    <line x1="123" y1="421.15629543166824" x2="112" y2="440.20885431492593" />
    <line x1="134" y1="59.157676649772945" x2="123" y2="78.2102355330306" />
    <line x1="123" y1="78.210235533030584" x2="134" y2="97.262794416288244" />
    <line x1="123" y1="116.31535329954589" x2="134" y2="135.36791218280354" />
    <line x1="123" y1="154.4204710660612" x2="134" y2="173.47302994931883" />
    <line x1="134" y1="211.57814771583415" x2="123" y2="230.63070659909178" />
    <polyline points="123,306.84094213212234 134,325.89350101538 123,344.94605989863771 134,363.9986187818954" />
    <line x1="123" y1="383.051177665153" x2="134" y2="402.10373654841067" />
    <line x1="145" y1="1.9999999999999911" x2="134" y2="21.052558883257639" />
    <line x1="134" y1="97.26279441628823" x2="145" y2="116.31535329954589" />
    <line x1="134" y1="135.36791218280354" x2="145" y2="154.42047106606117" />
    <line x1="134" y1="211.57814771583415" x2="145" y2="230.63070659909178" />
    <line x1="145" y1="268.73582436560707" x2="134" y2="287.78838324886476" />
    <line x1="145" y1="344.94605989863771" x2="134" y2="363.9986187818954" />
    <polyline points="145,383.051177665153 134,402.10373654841067 145,421.15629543166835" />
    <line x1="156" y1="59.157676649772945" x2="145" y2="78.2102355330306" />
    <polyline points="156,97.26279441628823 145,116.31535329954589 156,135.36791218280354" />
    <line x1="156" y1="173.47302994931886" x2="145" y2="192.52558883257649" />
    <line x1="145" y1="268.73582436560707" x2="156" y2="287.78838324886476" />
    <line x1="145" y1="306.84094213212234" x2="156" y2="325.89350101538" />
    <line x1="145" y1="383.051177665153" x2="156" y2="402.10373654841067" />
    <line x1="156" y1="21.052558883257639" x2="167" y2="40.105117766515292" />
    <line x1="167" y1="154.4204710660612" x2="156" y2="173.47302994931883" />
    <line x1="167" y1="230.63070659909181" x2="156" y2="249.68326548234944" />
    <line x1="167" y1="344.94605989863771" x2="156" y2="363.9986187818954" />
    <line x1="156" y1="363.99861878189529" x2="167" y2="383.051177665153" />
    <line x1="178" y1="59.157676649772945" x2="167" y2="78.2102355330306" />
    <line x1="167" y1="78.210235533030584" x2="178" y2="97.262794416288244" />
    <polyline points="167,116.31535329954589 178,135.36791218280354 167,154.42047106606117" />
    <line x1="167" y1="192.52558883257649" x2="178" y2="211.57814771583412" />
    <line x1="178" y1="211.57814771583415" x2="167" y2="230.63070659909178" />
    <polyline points="178,249.68326548234941 167,268.73582436560707 178,287.78838324886476 167,306.84094213212245" />
    <polyline points="167,383.051177665153 178,402.10373654841067 167,421.15629543166835" />
    <polyline points="178,21.052558883257639 189,40.105117766515292 178,59.157676649772938" />
    <line x1="178" y1="135.36791218280354" x2="189" y2="154.42047106606117" />
    <line x1="178" y1="173.47302994931886" x2="189" y2="192.52558883257649" />
    <line x1="189" y1="230.63070659909181" x2="178" y2="249.68326548234944" />
    <polyline points="189,306.84094213212234 178,325.89350101538 189,344.94605989863771 178,363.9986187818954" />
    <line x1="178" y1="402.10373654841067" x2="189" y2="421.15629543166835" />
    <line x1="200" y1="59.157676649772945" x2="189" y2="78.2102355330306" />
    <line x1="189" y1="78.210235533030584" x2="200" y2="97.262794416288244" />
    <line x1="189" y1="116.31535329954589" x2="200" y2="135.36791218280354" />
    <line x1="189" y1="154.4204710660612" x2="200" y2="173.47302994931883" />
    <line x1="189" y1="192.52558883257649" x2="200" y2="211.57814771583412" />
    <polyline points="189,268.73582436560707 200,287.78838324886476 189,306.84094213212245" />
    <line x1="200" y1="325.89350101538" x2="189" y2="344.94605989863771" />
    <line x1="189" y1="383.051177665153" x2="200" y2="402.10373654841067" />
    <line x1="189" y1="421.15629543166824" x2="200" y2="440.20885431492593" />
    <line x1="200" y1="97.26279441628823" x2="211" y2="116.31535329954589" />
    <line x1="200" y1="135.36791218280354" x2="211" y2="154.42047106606117" />
    <line x1="211" y1="192.52558883257649" x2="200" y2="211.57814771583412" />
    <line x1="211" y1="306.84094213212234" x2="200" y2="325.89350101538" />
    <line x1="211" y1="344.94605989863771" x2="200" y2="363.9986187818954" />
    <line x1="200" y1="363.99861878189529" x2="211" y2="383.051177665153" />
    <line x1="200" y1="402.10373654841067" x2="211" y2="421.15629543166835" />
    <line x1="211" y1="40.105117766515292" x2="222" y2="59.157676649772938" />
    <line x1="211" y1="78.210235533030584" x2="222" y2="97.262794416288244" />
    <polyline points="211,116.31535329954589 222,135.36791218280354 211,154.42047106606117" />
    <line x1="222" y1="211.57814771583415" x2="211" y2="230.63070659909178" />
    <polyline points="222,249.68326548234941 211,268.73582436560707 222,287.78838324886476" />
    <polyline points="222,363.99861878189529 211,383.051177665153 222,402.10373654841067" />
    <line x1="211" y1="421.15629543166824" x2="222" y2="440.20885431492593" />
    <line x1="222" y1="21.052558883257639" x2="233" y2="40.105117766515292" />
    <polyline points="222,97.26279441628823 233,116.31535329954589 222,135.36791218280354" />
    <line x1="222" y1="211.57814771583415" x2="233" y2="230.63070659909178" />
    <line x1="233" y1="268.73582436560707" x2="222" y2="287.78838324886476" />
    <polyline points="233,306.84094213212234 222,325.89350101538 233,344.94605989863771" />
    <line x1="233" y1="40.105117766515292" x2="244" y2="59.157676649772938" />
    <line x1="244" y1="135.36791218280354" x2="233" y2="154.42047106606117" />
    <polyline points="244,173.47302994931886 233,192.52558883257649 244,211.57814771583412" />
    <polyline points="244,363.99861878189529 233,383.051177665153 244,402.10373654841067 233,421.15629543166835" />
    <line x1="255" y1="1.9999999999999911" x2="244" y2="21.052558883257639" />
    <line x1="244" y1="59.157676649772945" x2="255" y2="78.2102355330306" />
    <polyline points="255,116.31535329954589 244,135.36791218280354 255,154.42047106606117" />
    <line x1="244" y1="211.57814771583415" x2="255" y2="230.63070659909178" />
    <line x1="255" y1="230.63070659909181" x2="244" y2="249.68326548234944" />
    <polyline points="255,306.84094213212234 244,325.89350101538 255,344.94605989863771" />
    <line x1="266" y1="21.052558883257639" x2="255" y2="40.105117766515292" />
    <line x1="255" y1="116.31535329954589" x2="266" y2="135.36791218280354" />
    <line x1="266" y1="211.57814771583415" x2="255" y2="230.63070659909178" />
    <line x1="266" y1="97.26279441628823" x2="277" y2="116.31535329954589" />
    <line x1="277" y1="268.73582436560707" x2="266" y2="287.78838324886476" />
    <line x1="277" y1="344.94605989863771" x2="266" y2="363.9986187818954" />
    <polyline points="277,1.9999999999999911 288,21.052558883257639 277,40.105117766515292" />
    <line x1="277" y1="78.210235533030584" x2="288" y2="97.262794416288244" />
    <line x1="277" y1="116.31535329954589" x2="288" y2="135.36791218280354" />
    <line x1="277" y1="154.4204710660612" x2="288" y2="173.47302994931883" />
    <line x1="288" y1="173.47302994931886" x2="277" y2="192.52558883257649" />
    <line x1="288" y1="211.57814771583415" x2="277" y2="230.63070659909178" />
    <line x1="288" y1="287.78838324886476" x2="277" y2="306.84094213212245" />
    <polyline points="277,383.051177665153 288,402.10373654841067 277,421.15629543166835" />
    <line x1="299" y1="40.105117766515292" x2="288" y2="59.157676649772938" />
    <line x1="288" y1="59.157676649772945" x2="299" y2="78.2102355330306" />
    <line x1="299" y1="192.52558883257649" x2="288" y2="211.57814771583412" />
    <line x1="288" y1="249.68326548234941" x2="299" y2="268.73582436560707" />
    <line x1="299" y1="306.84094213212234" x2="288" y2="325.89350101538" />
    <line x1="299" y1="344.94605989863771" x2="288" y2="363.9986187818954" />
    <line x1="299" y1="421.15629543166824" x2="288" y2="440.20885431492593" />
    <line x1="299" y1="1.9999999999999911" x2="310" y2="21.052558883257639" />
    <line x1="299" y1="78.210235533030584" x2="310" y2="97.262794416288244" />
    <line x1="310" y1="97.26279441628823" x2="299" y2="116.31535329954589" />
    <line x1="310" y1="135.36791218280354" x2="299" y2="154.42047106606117" />
    <line x1="310" y1="211.57814771583415" x2="299" y2="230.63070659909178" />
    <line x1="299" y1="230.63070659909181" x2="310" y2="249.68326548234944" />
    <polyline points="310,363.99861878189529 299,383.051177665153 310,402.10373654841067" />
    <line x1="310" y1="21.052558883257639" x2="321" y2="40.105117766515292" />
    <line x1="310" y1="59.157676649772945" x2="321" y2="78.2102355330306" />
    <polyline points="310,97.26279441628823 321,116.31535329954589 310,135.36791218280354 321,154.42047106606117" />
    <line x1="310" y1="173.47302994931886" x2="321" y2="192.52558883257649" />
    <polyline points="310,249.68326548234941 321,268.73582436560707 310,287.78838324886476 321,306.84094213212245" />
    <line x1="310" y1="325.89350101538" x2="321" y2="344.94605989863771" />
    <line x1="321" y1="78.210235533030584" x2="332" y2="97.262794416288244" />
    <line x1="321" y1="192.52558883257649" x2="332" y2="211.57814771583412" />
    <line x1="332" y1="211.57814771583415" x2="321" y2="230.63070659909178" />
    <line x1="321" y1="306.84094213212234" x2="332" y2="325.89350101538" />
    <line x1="321" y1="344.94605989863771" x2="332" y2="363.9986187818954" />
    <line x1="332" y1="402.10373654841067" x2="321" y2="421.15629543166835" />
    <polyline points="343,1.9999999999999911 332,21.052558883257639 343,40.105117766515292" />
    <line x1="343" y1="78.210235533030584" x2="332" y2="97.262794416288244" />
    <line x1="332" y1="135.36791218280354" x2="343" y2="154.42047106606117" />
    <line x1="332" y1="173.47302994931886" x2="343" y2="192.52558883257649" />
    <line x1="332" y1="287.78838324886476" x2="343" y2="306.84094213212245" />
    <line x1="343" y1="40.105117766515292" x2="354" y2="59.157676649772938" />
    <polyline points="354,97.26279441628823 343,116.31535329954589 354,135.36791218280354" />
    <line x1="343" y1="230.63070659909181" x2="354" y2="249.68326548234944" />
    <line x1="343" y1="268.73582436560707" x2="354" y2="287.78838324886476" />
    <line x1="343" y1="306.84094213212234" x2="354" y2="325.89350101538" />
    <line x1="343" y1="344.94605989863771" x2="354" y2="363.9986187818954" />
    <polyline points="354,363.99861878189529 343,383.051177665153 354,402.10373654841067 343,421.15629543166835" />
    <line x1="365" y1="1.9999999999999911" x2="354" y2="21.052558883257639" />
    <line x1="365" y1="78.210235533030584" x2="354" y2="97.262794416288244" />
    <polyline points="365,116.31535329954589 354,135.36791218280354 365,154.42047106606117" />
    <line x1="354" y1="211.57814771583415" x2="365" y2="230.63070659909178" />
    <line x1="354" y1="249.68326548234941" x2="365" y2="268.73582436560707" />
    <line x1="365" y1="344.94605989863771" x2="354" y2="363.9986187818954" />
    <line x1="365" y1="421.15629543166824" x2="354" y2="440.20885431492593" />
    <line x1="376" y1="21.052558883257639" x2="365" y2="40.105117766515292" />
    <line x1="376" y1="59.157676649772945" x2="365" y2="78.2102355330306" />
    <line x1="365" y1="192.52558883257649" x2="376" y2="211.57814771583412" />
    <line x1="376" y1="211.57814771583415" x2="365" y2="230.63070659909178" />
    <line x1="365" y1="268.73582436560707" x2="376" y2="287.78838324886476" />
    <polyline points="376,325.89350101538 365,344.94605989863771 376,363.9986187818954" />
    <line x1="376" y1="363.99861878189529" x2="365" y2="383.051177665153" />
    <line x1="376" y1="402.10373654841067" x2="365" y2="421.15629543166835" />
    <line x1="387" y1="40.105117766515292" x2="376" y2="59.157676649772938" />
    <line x1="376" y1="59.157676649772945" x2="387" y2="78.2102355330306" />
    <line x1="387" y1="78.210235533030584" x2="376" y2="97.262794416288244" />
    <polyline points="376,97.26279441628823 387,116.31535329954589 376,135.36791218280354" />
    <line x1="387" y1="154.4204710660612" x2="376" y2="173.47302994931883" />
    <line x1="387" y1="230.63070659909181" x2="376" y2="249.68326548234944" />
    <line x1="387" y1="344.94605989863771" x2="376" y2="363.9986187818954" />
    <line x1="387" y1="383.051177665153" x2="376" y2="402.10373654841067" />
    <line x1="387" y1="192.52558883257649" x2="398" y2="211.57814771583412" />
    <line x1="398" y1="211.57814771583415" x2="387" y2="230.63070659909178" />
    <line x1="398" y1="249.68326548234941" x2="387" y2="268.73582436560707" />
    <line x1="398" y1="402.10373654841067" x2="387" y2="421.15629543166835" />
    <polyline points="409,1.9999999999999911 398,21.052558883257639 409,40.105117766515292 398,59.157676649772938" />
    <line x1="398" y1="59.157676649772945" x2="409" y2="78.2102355330306" />
    <line x1="409" y1="78.210235533030584" x2="398" y2="97.262794416288244" />
    <polyline points="398,97.26279441628823 409,116.31535329954589 398,135.36791218280354 409,154.42047106606117" />
    <line x1="409" y1="154.4204710660612" x2="398" y2="173.47302994931883" />
    <polyline points="398,173.47302994931886 409,192.52558883257649 398,211.57814771583412" />
    <line x1="398" y1="211.57814771583415" x2="409" y2="230.63070659909178" />
    <line x1="409" y1="230.63070659909181" x2="398" y2="249.68326548234944" />
    <polyline points="398,249.68326548234941 409,268.73582436560707 398,287.78838324886476 409,306.84094213212245" />
    <polyline points="409,306.84094213212234 398,325.89350101538 409,344.94605989863771 398,363.9986187818954" />
    <polyline points="398,363.99861878189529 409,383.051177665153 398,402.10373654841067 409,421.15629543166835" />
    <line x1="409" y1="421.15629543166824" x2="398" y2="440.20885431492593" />
  </g>
  <polyline fill="none" stroke="#ff0000" stroke-width="2" stroke-linecap="square" stroke-linejoin="round" points="200,1.9999999999999911 194.5,11.526279441628816 172.5,11.526279441628816 167,21.052558883257639 178,40.105117766515292 172.5,49.631397208144115 128.5,49.631397208144115 101,97.262794416288244 106.5,106.78907385791706 128.5,106.78907385791706 156,154.4204710660612 134,192.52558883257649 139.5,202.0518682742053 150.5,202.0518682742053 161.5,182.99930939094767 172.5,182.99930939094767 189,211.57814771583415 156,268.73582436560707 167,287.78838324886476 156,306.84094213212234 178,344.94605989863771 167,363.99861878189529 211,440.20885431492593" />
  <type>Rectangular</type>
</svg>