<?xml version="1.0" encoding="utf-8" standalone="no"?>
<!DOCTYPE svg PUBLIC "-//W3C//DTD SVG 1.1//EN" "http://www.w3.org/Graphics/SVG/1.1/DTD/svg11.dtd"[]>
<svg width="411" height="442.20885431492593" version="1.1" xmlns="http://www.w3.org/2000/svg">
  <title>36 by 23 delta maze</title>
  <g fill="none" stroke="#000000" stroke-width="2" stroke-linecap="round" stroke-linejoin="round">
    <line x1="13" y1="1.9999999999999911" x2="189" y2="1.9999999999999911" />
    <line x1="211" y1="1.9999999999999911" x2="409" y2="1.9999999999999911" />
    <line x1="46" y1="21.052558883257639" x2="68" y2="21.052558883257639" />
    <line x1="178" y1="21.052558883257639" x2="200" y2="21.052558883257639" />
    <line x1="222" y1="21.052558883257639" x2="244" y2="21.052558883257639" />
    <line x1="310" y1="21.052558883257639" x2="332" y2="21.052558883257639" />
    <line x1="35" y1="40.105117766515292" x2="57" y2="40.105117766515292" />
    <line x1="79" y1="40.105117766515292" x2="101" y2="40.105117766515292" />
    <line x1="167" y1="40.105117766515292" x2="211" y2="40.105117766515292" />
    <line x1="233" y1="40.105117766515292" x2="255" y2="40.105117766515292" />
    <line x1="321" y1="40.105117766515292" x2="343" y2="40.105117766515292" />
    <line x1="365" y1="40.105117766515292" x2="387" y2="40.105117766515292" />
    <line x1="24" y1="59.157676649772938" x2="46" y2="59.157676649772938" />
    <line x1="134" y1="59.157676649772938" x2="156" y2="59.157676649772938" />
    <line x1="178" y1="59.157676649772938" x2="200" y2="59.157676649772938" />
    <line x1="244" y1="59.157676649772938" x2="288" y2="59.157676649772938" />
    <line x1="332" y1="59.157676649772938" x2="376" y2="59.157676649772938" />
    <line x1="101" y1="78.210235533030584" x2="123" y2="78.210235533030584" />
    <line x1="145" y1="78.210235533030584" x2="189" y2="78.210235533030584" />
    <line x1="255" y1="78.210235533030584" x2="343" y2="78.210235533030584" />
    <line x1="68" y1="97.262794416288244" x2="90" y2="97.262794416288244" />
    <line x1="178" y1="97.262794416288244" x2="200" y2="97.262794416288244" />
    <line x1="310" y1="97.262794416288244" x2="332" y2="97.262794416288244" />
    <line x1="354" y1="97.262794416288244" x2="376" y2="97.262794416288244" />
    <line x1="79" y1="116.31535329954589" x2="101" y2="116.31535329954589" />
    <line x1="123" y1="116.31535329954589" x2="145" y2="116.31535329954589" />
    <line x1="255" y1="116.31535329954589" x2="277" y2="116.31535329954589" />
    <line x1="343" y1="116.31535329954589" x2="365" y2="116.31535329954589" />
    <line x1="387" y1="116.31535329954589" x2="409" y2="116.31535329954589" />
    <line x1="2" y1="135.36791218280354" x2="46" y2="135.36791218280354" />
    <line x1="68" y1="135.36791218280354" x2="90" y2="135.36791218280354" />
    <line x1="156" y1="135.36791218280354" x2="178" y2="135.36791218280354" />
    <line x1="266" y1="135.36791218280354" x2="332" y2="135.36791218280354" />
    <line x1="354" y1="135.36791218280354" x2="376" y2="135.36791218280354" />
    <line x1="13" y1="154.4204710660612" x2="79" y2="154.4204710660612" />
    <line x1="145" y1="154.4204710660612" x2="167" y2="154.4204710660612" />
    <line x1="299" y1="154.4204710660612" x2="321" y2="154.4204710660612" />
    <line x1="343" y1="154.4204710660612" x2="365" y2="154.4204710660612" />
    <line x1="68" y1="173.47302994931883" x2="112" y2="173.47302994931883" />
    <line x1="134" y1="173.47302994931883" x2="156" y2="173.47302994931883" />
    <line x1="178" y1="173.47302994931883" x2="200" y2="173.47302994931883" />
    <line x1="145" y1="192.52558883257649" x2="167" y2="192.52558883257649" />
    <line x1="211" y1="192.52558883257649" x2="233" y2="192.52558883257649" />
    <line x1="255" y1="192.52558883257649" x2="277" y2="192.52558883257649" />
    <line x1="321" y1="192.52558883257649" x2="343" y2="192.52558883257649" />
    <line x1="90" y1="211.57814771583415" x2="112" y2="211.57814771583415" />
    <line x1="156" y1="211.57814771583415" x2="178" y2="211.57814771583415" />
    <line x1="200" y1="211.57814771583415" x2="222" y2="211.57814771583415" />
    <line x1="354" y1="211.57814771583415" x2="376" y2="211.57814771583415" />
    <line x1="57" y1="230.63070659909178" x2="79" y2="230.63070659909178" />
    <line x1="101" y1="230.63070659909178" x2="145" y2="230.63070659909178" />
    <line x1="211" y1="230.63070659909178" x2="233" y2="230.63070659909178" />
    <line x1="255" y1="230.63070659909178" x2="277" y2="230.63070659909178" />
    <line x1="343" y1="230.63070659909178" x2="365" y2="230.63070659909178" />
    <line x1="68" y1="249.68326548234944" x2="90" y2="249.68326548234944" />
    <line x1="112" y1="249.68326548234944" x2="134" y2="249.68326548234944" />
    <line x1="222" y1="249.68326548234944" x2="244" y2="249.68326548234944" />
    <line x1="266" y1="249.68326548234944" x2="288" y2="249.68326548234944" />
    <line x1="332" y1="249.68326548234944" x2="354" y2="249.68326548234944" />
    <line x1="189" y1="268.73582436560707" x2="233" y2="268.73582436560707" />
    <line x1="255" y1="268.73582436560707" x2="277" y2="268.73582436560707" />
    <line x1="321" y1="268.73582436560707" x2="343" y2="268.73582436560707" />
    <line x1="46" y1="287.78838324886476" x2="68" y2="287.78838324886476" />
    <line x1="200" y1="287.78838324886476" x2="244" y2="287.78838324886476" />
    <line x1="288" y1="287.78838324886476" x2="332" y2="287.78838324886476" />
    <line x1="376" y1="287.78838324886476" x2="398" y2="287.78838324886476" />
    <line x1="13" y1="306.84094213212234" x2="35" y2="306.84094213212234" />
    <line x1="57" y1="306.84094213212234" x2="79" y2="306.84094213212234" />
    <line x1="145" y1="306.84094213212234" x2="167" y2="306.84094213212234" />
    <line x1="189" y1="306.84094213212234" x2="211" y2="306.84094213212234" />
    <line x1="277" y1="306.84094213212234" x2="299" y2="306.84094213212234" />
    <line x1="343" y1="306.84094213212234" x2="365" y2="306.84094213212234" />
    <line x1="24" y1="325.89350101538" x2="112" y2="325.89350101538" />
    <line x1="156" y1="325.89350101538" x2="178" y2="325.89350101538" />
    <line x1="288" y1="325.89350101538" x2="310" y2="325.89350101538" />
    <line x1="35" y1="344.94605989863771" x2="79" y2="344.94605989863771" />
    <line x1="233" y1="344.94605989863771" x2="255" y2="344.94605989863771" />
    <line x1="299" y1="344.94605989863771" x2="321" y2="344.94605989863771" />
    <line x1="24" y1="363.99861878189529" x2="68" y2="363.99861878189529" />
    <line x1="266" y1="363.99861878189529" x2="288" y2="363.99861878189529" />
    <line x1="310" y1="363.99861878189529" x2="354" y2="363.99861878189529" />
    <line x1="35" y1="383.051177665153" x2="57" y2="383.051177665153" />
    <line x1="101" y1="383.051177665153" x2="123" y2="383.051177665153" />
    <line x1="167" y1="383.051177665153" x2="189" y2="383.051177665153" />
    <line x1="233" y1="383.051177665153" x2="255" y2="383.051177665153" />
    <line x1="321" y1="383.051177665153" x2="343" y2="383.051177665153" />
    <line x1="365" y1="383.051177665153" x2="387" y2="383.051177665153" />
    <line x1="178" y1="402.10373654841067" x2="222" y2="402.10373654841067" />
    <line x1="79" y1="421.15629543166824" x2="101" y2="421.15629543166824" />
    <line x1="123" y1="421.15629543166824" x2="145" y2="421.15629543166824" />
    <line x1="167" y1="421.15629543166824" x2="189" y2="421.15629543166824" />
    <line x1="211" y1="421.15629543166824" x2="255" y2="421.15629543166824" />
    <line x1="299" y1="421.15629543166824" x2="321" y2="421.15629543166824" />
    <line x1="343" y1="421.15629543166824" x2="365" y2="421.15629543166824" />
    <line x1="2" y1="440.20885431492593" x2="200" y2="440.20885431492593" />
    <line x1="222" y1="440.20885431492593" x2="398" y2="440.20885431492593" />
    <polyline points="13,1.9999999999999911 2,21.052558883257639 13,40.105117766515292 2,59.157676649772938" />
    <line x1="2" y1="59.157676649772945" x2="13" y2="78.2102355330306" />
    <line x1="13" y1="78.210235533030584" x2="2" y2="97.262794416288244" />
    <polyline points="2,97.26279441628823 13,116.31535329954589 2,135.36791218280354 13,154.42047106606117" />
    <line x1="13" y1="154.4204710660612" x2="2" y2="173.47302994931883" />
    <polyline points="2,173.47302994931886 13,192.52558883257649 2,211.57814771583412" />
    <line x1="2" y1="211.57814771583415" x2="13" y2="230.63070659909178" />
    <line x1="13" y1="230.63070659909181" x2="2" y2="249.68326548234944" />
    <polyline points="2,249.68326548234941 13,268.73582436560707 2,287.78838324886476 13,306.84094213212245" />
    <polyline points="13,306.84094213212234 2,325.89350101538 13,344.94605989863771 2,363.9986187818954" />
    <polyline points="2,363.99861878189529 13,383.051177665153 2,402.10373654841067 13,421.15629543166835" />
    <line x1="13" y1="421.15629543166824" x2="2" y2="440.20885431492593" />
    <line x1="13" y1="1.9999999999999911" x2="24" y2="21.052558883257639" />
    <line x1="24" y1="97.26279441628823" x2="13" y2="116.31535329954589" />
    <line x1="24" y1="173.47302994931886" x2="13" y2="192.52558883257649" />
    <line x1="24" y1="249.68326548234941" x2="13" y2="268.73582436560707" />
    <polyline points="24,21.052558883257639 35,40.105117766515292 24,59.157676649772938" />
    <line x1="35" y1="78.210235533030584" x2="24" y2="97.262794416288244" />
    <line x1="24" y1="211.57814771583415" x2="35" y2="230.63070659909178" />
    <line x1="35" y1="268.73582436560707" x2="24" y2="287.78838324886476" />
    <polyline points="35,383.051177665153 24,402.10373654841067 35,421.15629543166835" />
    <line x1="35" y1="78.210235533030584" x2="46" y2="97.262794416288244" />
    <line x1="35" y1="116.31535329954589" x2="46" y2="135.36791218280354" />
    <line x1="46" y1="173.47302994931886" x2="35" y2="192.52558883257649" />
    <line x1="46" y1="211.57814771583415" x2="35" y2="230.63070659909178" />
    <polyline points="46,249.68326548234941 35,268.73582436560707 46,287.78838324886476 35,306.84094213212245" />
    <line x1="35" y1="344.94605989863771" x2="46" y2="363.9986187818954" />
    <line x1="46" y1="402.10373654841067" x2="35" y2="421.15629543166835" />
    <line x1="35" y1="421.15629543166824" x2="46" y2="440.20885431492593" />
    <line x1="46" y1="59.157676649772945" x2="57" y2="78.2102355330306" />
    <line x1="46" y1="97.26279441628823" x2="57" y2="116.31535329954589" />
    <line x1="57" y1="154.4204710660612" x2="46" y2="173.47302994931883" />
    <line x1="57" y1="192.52558883257649" x2="46" y2="211.57814771583412" />
    <line x1="57" y1="306.84094213212234" x2="46" y2="325.89350101538" />
    <line x1="46" y1="363.99861878189529" x2="57" y2="383.051177665153" />
    <line x1="68" y1="21.052558883257639" x2="57" y2="40.105117766515292" />
    <line x1="57" y1="154.4204710660612" x2="68" y2="173.47302994931883" />
    <polyline points="68,173.47302994931886 57,192.52558883257649 68,211.57814771583412" />
    <line x1="57" y1="230.63070659909181" x2="68" y2="249.68326548234944" />
    <line x1="68" y1="249.68326548234941" x2="57" y2="268.73582436560707" />
    <line x1="57" y1="383.051177665153" x2="68" y2="402.10373654841067" />
    <line x1="57" y1="421.15629543166824" x2="68" y2="440.20885431492593" />
    <line x1="79" y1="40.105117766515292" x2="68" y2="59.157676649772938" />
    <line x1="68" y1="59.157676649772945" x2="79" y2="78.2102355330306" />
    <line x1="79" y1="116.31535329954589" x2="68" y2="135.36791218280354" />
    <line x1="79" y1="1.9999999999999911" x2="90" y2="21.052558883257639" />
    <line x1="79" y1="78.210235533030584" x2="90" y2="97.262794416288244" />
    <line x1="90" y1="135.36791218280354" x2="79" y2="154.42047106606117" />
    <line x1="79" y1="192.52558883257649" x2="90" y2="211.57814771583412" />
    <polyline points="79,268.73582436560707 90,287.78838324886476 79,306.84094213212245" />
    <polyline points="79,383.051177665153 90,402.10373654841067 79,421.15629543166835" />
    <line x1="101" y1="40.105117766515292" x2="90" y2="59.157676649772938" />
    <line x1="90" y1="173.47302994931886" x2="101" y2="192.52558883257649" />
    <polyline points="90,249.68326548234941 101,268.73582436560707 90,287.78838324886476" />
    <line x1="101" y1="344.94605989863771" x2="90" y2="363.9986187818954" />
    <line x1="112" y1="21.052558883257639" x2="101" y2="40.105117766515292" />
    <line x1="112" y1="59.157676649772945" x2="101" y2="78.2102355330306" />
    <line x1="112" y1="97.26279441628823" x2="101" y2="116.31535329954589" />
    <line x1="112" y1="135.36791218280354" x2="101" y2="154.42047106606117" />
    <line x1="112" y1="287.78838324886476" x2="101" y2="306.84094213212245" />
    <line x1="101" y1="306.84094213212234" x2="112" y2="325.89350101538" />
    <line x1="101" y1="344.94605989863771" x2="112" y2="363.9986187818954" />
    <polyline points="112,363.99861878189529 101,383.051177665153 112,402.10373654841067 101,421.15629543166835" />
    <polyline points="123,1.9999999999999911 112,21.052558883257639 123,40.105117766515292 112,59.157676649772938" />
    <polyline points="112,97.26279441628823 123,116.31535329954589 112,135.36791218280354" />
    <line x1="123" y1="154.4204710660612" x2="112" y2="173.47302994931883" />
    <line x1="123" y1="192.52558883257649" x2="112" y2="211.57814771583412" />
    <polyline points="112,249.68326548234941 123,268.73582436560707 112,287.78838324886476" />
    <polyline points="123,306.84094213212234 112,325.89350101538 123,344.94605989863771" />
    <line x1="112" y1="402.10373654841067" x2="123" y2="421.15629543166835" />
    <line x1="123" y1="78.210235533030584" x2="134" y2="97.262794416288244" />
    <line x1="134" y1="135.36791218280354" x2="123" y2="154.42047106606117" />
    <polyline points="134,173.47302994931886 123,192.52558883257649 134,211.57814771583412" />
    <line x1="123" y1="230.63070659909181" x2="134" y2="249.68326548234944" />
    <line x1="134" y1="287.78838324886476" x2="123" y2="306.84094213212245" />
    <line x1="123" y1="383.051177665153" x2="134" y2="402.10373654841067" />
    <polyline points="145,1.9999999999999911 134,21.052558883257639 145,40.105117766515292" />
    <line x1="145" y1="154.4204710660612" x2="134" y2="173.47302994931883" />
    <polyline points="145,268.73582436560707 134,287.78838324886476 145,306.84094213212245" />
    <line x1="145" y1="306.84094213212234" x2="134" y2="325.89350101538" />
    <line x1="145" y1="344.94605989863771" x2="134" y2="363.9986187818954" />
    <line x1="145" y1="116.31535329954589" x2="156" y2="135.36791218280354" />
    <line x1="156" y1="211.57814771583415" x2="145" y2="230.63070659909178" />
    <polyline points="145,306.84094213212234 156,325.89350101538 145,344.94605989863771" />
    <polyline points="156,363.99861878189529 145,383.051177665153 156,402.10373654841067 145,421.15629543166835" />
    <line x1="145" y1="421.15629543166824" x2="156" y2="440.20885431492593" />
    <line x1="167" y1="1.9999999999999911" x2="156" y2="21.052558883257639" />
    <line x1="167" y1="40.105117766515292" x2="156" y2="59.157676649772938" />
    <line x1="156" y1="97.26279441628823" x2="167" y2="116.31535329954589" />
    <line x1="156" y1="211.57814771583415" x2="167" y2="230.63070659909178" />
    <line x1="167" y1="230.63070659909181" x2="156" y2="249.68326548234944" />
    <line x1="156" y1="287.78838324886476" x2="167" y2="306.84094213212245" />
    <line x1="167" y1="344.94605989863771" x2="156" y2="363.9986187818954" />
    <line x1="178" y1="97.26279441628823" x2="167" y2="116.31535329954589" />
    <line x1="167" y1="154.4204710660612" x2="178" y2="173.47302994931883" />
    <line x1="167" y1="192.52558883257649" x2="178" y2="211.57814771583412" />
    <polyline points="178,249.68326548234941 167,268.73582436560707 178,287.78838324886476" />
    <line x1="178" y1="363.99861878189529" x2="167" y2="383.051177665153" />
    <line x1="178" y1="21.052558883257639" x2="189" y2="40.105117766515292" />
    <line x1="178" y1="135.36791218280354" x2="189" y2="154.42047106606117" />
    <line x1="189" y1="154.4204710660612" x2="178" y2="173.47302994931883" />
    <line x1="189" y1="230.63070659909181" x2="178" y2="249.68326548234944" />
    <polyline points="189,268.73582436560707 178,287.78838324886476 189,306.84094213212245" />
    <line x1="189" y1="306.84094213212234" x2="178" y2="325.89350101538" />
    <line x1="189" y1="421.15629543166824" x2="178" y2="440.20885431492593" />
    <line x1="189" y1="1.9999999999999911" x2="200" y2="21.052558883257639" />
    <line x1="189" y1="40.105117766515292" x2="200" y2="59.157676649772938" />
    <line x1="200" y1="59.157676649772945" x2="189" y2="78.2102355330306" />
    <line x1="189" y1="78.210235533030584" x2="200" y2="97.262794416288244" />
    <line x1="189" y1="116.31535329954589" x2="200" y2="135.36791218280354" />
    <line x1="189" y1="192.52558883257649" x2="200" y2="211.57814771583412" />
    <line x1="189" y1="344.94605989863771" x2="200" y2="363.9986187818954" />
    <polyline points="189,383.051177665153 200,402.10373654841067 189,421.15629543166835" />
    <line x1="200" y1="97.26279441628823" x2="211" y2="116.31535329954589" />
    <line x1="200" y1="135.36791218280354" x2="211" y2="154.42047106606117" />
    <line x1="200" y1="211.57814771583415" x2="211" y2="230.63070659909178" />
    <line x1="200" y1="249.68326548234941" x2="211" y2="268.73582436560707" />
    <polyline points="200,325.89350101538 211,344.94605989863771 200,363.9986187818954" />
    <line x1="211" y1="421.15629543166824" x2="200" y2="440.20885431492593" />
    <line x1="211" y1="40.105117766515292" x2="222" y2="59.157676649772938" />
    <line x1="222" y1="59.157676649772945" x2="211" y2="78.2102355330306" />
    <line x1="211" y1="78.210235533030584" x2="222" y2="97.262794416288244" />
    <polyline points="211,116.31535329954589 222,135.36791218280354 211,154.42047106606117" />
    <line x1="211" y1="154.4204710660612" x2="222" y2="173.47302994931883" />
    <line x1="211" y1="192.52558883257649" x2="222" y2="211.57814771583412" />
    <line x1="222" y1="287.78838324886476" x2="211" y2="306.84094213212245" />
    <line x1="211" y1="344.94605989863771" x2="222" y2="363.9986187818954" />
    <polyline points="222,363.99861878189529 211,383.051177665153 222,402.10373654841067" />
    <line x1="222" y1="21.052558883257639" x2="233" y2="40.105117766515292" />
    <line x1="222" y1="59.157676649772945" x2="233" y2="78.2102355330306" />
    <line x1="222" y1="325.89350101538" x2="233" y2="344.94605989863771" />
    <line x1="233" y1="1.9999999999999911" x2="244" y2="21.052558883257639" />
    <polyline points="244,97.26279441628823 233,116.31535329954589 244,135.36791218280354" />
    <line x1="233" y1="154.4204710660612" x2="244" y2="173.47302994931883" />
    <line x1="244" y1="173.47302994931886" x2="233" y2="192.52558883257649" />
    <line x1="244" y1="211.57814771583415" x2="233" y2="230.63070659909178" />
    <line x1="233" y1="230.63070659909181" x2="244" y2="249.68326548234944" />
    <polyline points="233,306.84094213212234 244,325.89350101538 233,344.94605989863771 244,363.9986187818954" />
    <line x1="233" y1="383.051177665153" x2="244" y2="402.10373654841067" />
    <line x1="255" y1="78.210235533030584" x2="244" y2="97.262794416288244" />
    <line x1="255" y1="154.4204710660612" x2="244" y2="173.47302994931883" />
    <line x1="255" y1="192.52558883257649" x2="244" y2="211.57814771583412" />
    <polyline points="244,249.68326548234941 255,268.73582436560707 244,287.78838324886476 255,306.84094213212245" />
    <line x1="244" y1="402.10373654841067" x2="255" y2="421.15629543166835" />
    <line x1="255" y1="40.105117766515292" x2="266" y2="59.157676649772938" />
    <line x1="266" y1="325.89350101538" x2="255" y2="344.94605989863771" />
    <line x1="266" y1="363.99861878189529" x2="255" y2="383.051177665153" />
    <line x1="266" y1="21.052558883257639" x2="277" y2="40.105117766515292" />
    <line x1="277" y1="78.210235533030584" x2="266" y2="97.262794416288244" />
    <line x1="277" y1="154.4204710660612" x2="266" y2="173.47302994931883" />
    <polyline points="266,173.47302994931886 277,192.52558883257649 266,211.57814771583412" />
    <line x1="277" y1="230.63070659909181" x2="266" y2="249.68326548234944" />
    <line x1="266" y1="249.68326548234941" x2="277" y2="268.73582436560707" />
    <line x1="266" y1="287.78838324886476" x2="277" y2="306.84094213212245" />
    <polyline points="266,325.89350101538 277,344.94605989863771 266,363.9986187818954" />
    <polyline points="277,383.051177665153 266,402.10373654841067 277,421.15629543166835" />
    <line x1="277" y1="421.15629543166824" x2="266" y2="440.20885431492593" />
    <line x1="277" y1="40.105117766515292" x2="288" y2="59.157676649772938" />
    <line x1="277" y1="116.31535329954589" x2="288" y2="135.36791218280354" />
    <line x1="288" y1="211.57814771583415" x2="277" y2="230.63070659909178" />
    <line x1="299" y1="1.9999999999999911" x2="288" y2="21.052558883257639" />
    <line x1="288" y1="97.26279441628823" x2="299" y2="116.31535329954589" />
    <line x1="299" y1="154.4204710660612" x2="288" y2="173.47302994931883" />
    <line x1="299" y1="192.52558883257649" x2="288" y2="211.57814771583412" />
    <line x1="299" y1="230.63070659909181" x2="288" y2="249.68326548234944" />
    <line x1="288" y1="249.68326548234941" x2="299" y2="268.73582436560707" />
    <line x1="299" y1="306.84094213212234" x2="288" y2="325.89350101538" />
    <polyline points="288,363.99861878189529 299,383.051177665153 288,402.10373654841067" />
    <polyline points="299,1.9999999999999911 310,21.052558883257639 299,40.105117766515292 310,59.157676649772938" />
    <line x1="310" y1="97.26279441628823" x2="299" y2="116.31535329954589" />
    <line x1="310" y1="211.57814771583415" x2="299" y2="230.63070659909178" />
    <line x1="310" y1="249.68326548234941" x2="299" y2="268.73582436560707" />
    <line x1="310" y1="363.99861878189529" x2="299" y2="383.051177665153" />
    <line x1="310" y1="402.10373654841067" x2="299" y2="421.15629543166835" />
    <line x1="321" y1="116.31535329954589" x2="310" y2="135.36791218280354" />
    <line x1="321" y1="154.4204710660612" x2="310" y2="173.47302994931883" />
    <line x1="310" y1="173.47302994931886" x2="321" y2="192.52558883257649" />
    <line x1="310" y1="211.57814771583415" x2="321" y2="230.63070659909178" />
    <line x1="321" y1="306.84094213212234" x2="310" y2="325.89350101538" />
    <line x1="321" y1="383.051177665153" x2="310" y2="402.10373654841067" />
    <line x1="321" y1="421.15629543166824" x2="310" y2="440.20885431492593" />
    <line x1="332" y1="59.157676649772945" x2="321" y2="78.2102355330306" />
    <line x1="321" y1="230.63070659909181" x2="332" y2="249.68326548234944" />
    <line x1="332" y1="287.78838324886476" x2="321" y2="306.84094213212245" />
    <polyline points="321,306.84094213212234 332,325.89350101538 321,344.94605989863771" />
    <polyline points="332,97.26279441628823 343,116.31535329954589 332,135.36791218280354" />
    <line x1="343" y1="154.4204710660612" x2="332" y2="173.47302994931883" />
    <line x1="343" y1="192.52558883257649" x2="332" y2="211.57814771583412" />
    <line x1="332" y1="211.57814771583415" x2="343" y2="230.63070659909178" />
    <polyline points="343,268.73582436560707 332,287.78838324886476 343,306.84094213212245" />
    <line x1="332" y1="325.89350101538" x2="343" y2="344.94605989863771" />
    <line x1="343" y1="383.051177665153" x2="332" y2="402.10373654841067" />
    <polyline points="343,1.9999999999999911 354,21.052558883257639 343,40.105117766515292 354,59.157676649772938" />
    <line x1="354" y1="97.26279441628823" x2="343" y2="116.31535329954589" />
    <line x1="343" y1="154.4204710660612" x2="354" y2="173.47302994931883" />
    <line x1="354" y1="173.47302994931886" x2="343" y2="192.52558883257649" />
    <polyline points="354,249.68326548234941 343,268.73582436560707 354,287.78838324886476" />
    <line x1="343" y1="421.15629543166824" x2="354" y2="440.20885431492593" />
    <line x1="365" y1="78.210235533030584" x2="354" y2="97.262794416288244" />
    <line x1="354" y1="135.36791218280354" x2="365" y2="154.42047106606117" />
    <line x1="365" y1="192.52558883257649" x2="354" y2="211.57814771583412" />
    <line x1="354" y1="211.57814771583415" x2="365" y2="230.63070659909178" />
    <line x1="365" y1="268.73582436560707" x2="354" y2="287.78838324886476" />
    <polyline points="354,325.89350101538 365,344.94605989863771 354,363.9986187818954" />
    <line x1="365" y1="383.051177665153" x2="354" y2="402.10373654841067" />
    <line x1="365" y1="40.105117766515292" x2="376" y2="59.157676649772938" />
    <line x1="365" y1="154.4204710660612" x2="376" y2="173.47302994931883" />
    <line x1="376" y1="287.78838324886476" x2="365" y2="306.84094213212245" />
    <line x1="376" y1="402.10373654841067" x2="365" y2="421.15629543166835" />
    <line x1="387" y1="1.9999999999999911" x2="376" y2="21.052558883257639" />
    <polyline points="376,97.26279441628823 387,116.31535329954589 376,135.36791218280354 387,154.42047106606117" />
    <line x1="376" y1="173.47302994931886" x2="387" y2="192.52558883257649" />
    <line x1="387" y1="230.63070659909181" x2="376" y2="249.68326548234944" />
    <line x1="376" y1="249.68326548234941" x2="387" y2="268.73582436560707" />
    <polyline points="387,306.84094213212234 376,325.89350101538 387,344.94605989863771 376,363.9986187818954" />
    <line x1="387" y1="78.210235533030584" x2="398" y2="97.262794416288244" />
    <line x1="398" y1="211.57814771583415" x2="387" y2="230.63070659909178" />
    <line x1="387" y1="344.94605989863771" x2="398" y2="363.9986187818954" />
    <line x1="398" y1="363.99861878189529" x2="387" y2="383.051177665153" />
    <line x1="398" y1="402.10373654841067" x2="387" y2="421.15629543166835" />
    <polyline points="409,1.9999999999999911 398,21.052558883257639 409,40.105117766515292 398,59.157676649772938" />
    <line x1="398" y1="59.157676649772945" x2="409" y2="78.2102355330306" />
    <line x1="409" y1="78.210235533030584" x2="398" y2="97.262794416288244" />
    <polyline points="398,97.26279441628823 409,116.31535329954589 398,135.36791218280354 409,154.42047106606117" />
    <line x1="409" y1="154.4204710660612" x2="398" y2="173.47302994931883" />
    <polyline points="398,173.47302994931886 409,192.52558883257649 398,211.57814771583412" />
    <line x1="398" y1="211.57814771583415" x2="409" y2="230.63070659909178" />
    <line x1="409" y1="230.63070659909181" x2="398" y2="249.68326548234944" />
    <polyline points="398,249.68326548234941 409,268.73582436560707 398,287.78838324886476 409,306.84094213212245" />
    <polyline points="409,306.84094213212234 398,325.89350101538 409,344.94605989863771 398,363.9986187818954" />
    <polyline points="398,363.99861878189529 409,383.051177665153 398,402.10373654841067 409,421.15629543166835" />
    <line x1="409" y1="421.15629543166824" x2="398" y2="440.20885431492593" />
  </g>
  <polyline fill="none" stroke="#ff0000" stroke-width="2" stroke-linecap="square" stroke-linejoin="round" points="200,1.9999999999999911 244,78.210235533030584 222,116.31535329954589 233,135.36791218280354 222,154.4204710660612 233,173.47302994931883 227.5,182.99930939094767 139.5,182.99930939094767 134,192.52558883257649 145,211.57814771583415 139.5,221.10442715746297 51.5,221.10442715746297 46,230.63070659909178 57,249.68326548234944 46,268.73582436560707 51.5,278.26210380723592 73.5,278.26210380723592 79,287.78838324886476 73.5,297.31466269049361 51.5,297.31466269049361 40.5,316.36722157375118 18.5,316.36722157375118 13,325.89350101538 18.5,335.41978045700887 106.5,335.41978045700887 128.5,373.52489822352413 139.5,373.52489822352413 161.5,335.41978045700887 183.5,335.41978045700887 194.5,316.36722157375118 216.5,316.36722157375118 227.5,297.31466269049361 238.5,297.31466269049361 249.5,316.36722157375118 271.5,316.36722157375118 293.5,354.47233934026656 348.5,354.47233934026656 354,344.94605989863771 343,325.89350101538 348.5,316.36722157375118 359.5,316.36722157375118 376,344.94605989863771 359.5,373.52489822352413 315.5,373.52489822352413 293.5,411.63001599003951 282.5,411.63001599003951 277,402.10373654841067 288,383.051177665153 282.5,373.52489822352413 271.5,373.52489822352413 255,402.10373654841067 266,421.15629543166824 260.5,430.68257487329709 216.5,430.68257487329709 211,440.20885431492593" />
  <type>Rectangular</type>
</svg>