<?xml version="1.0" encoding="utf-8" standalone="no"?>
<!DOCTYPE svg PUBLIC "-//W3C//DTD SVG 1.1//EN" "http://www.w3.org/Graphics/SVG/1.1/DTD/svg11.dtd"[]>
<svg width="345" height="365.99861878189535" version="1.1" xmlns="http://www.w3.org/2000/svg">
  <title>30 by 19 delta maze</title>
  <g fill="none" stroke="#000000" stroke-width="2" stroke-linecap="round" stroke-linejoin="round">
    <line x1="13" y1="1.9999999999999911" x2="167" y2="1.9999999999999911" />
    <line x1="189" y1="1.9999999999999911" x2="343" y2="1.9999999999999911" />
    <line x1="90" y1="21.052558883257639" x2="156" y2="21.052558883257639" />
    <line x1="178" y1="21.052558883257639" x2="266" y2="21.052558883257639" />
    <line x1="288" y1="21.052558883257639" x2="310" y2="21.052558883257639" />
    <line x1="13" y1="40.105117766515292" x2="35" y2="40.105117766515292" />
    <line x1="101" y1="40.105117766515292" x2="123" y2="40.105117766515292" />
    <line x1="145" y1="40.105117766515292" x2="211" y2="40.105117766515292" />
    <line x1="255" y1="40.105117766515292" x2="277" y2="40.105117766515292" />
    <line x1="90" y1="59.157676649772938" x2="112" y2="59.157676649772938" />
    <line x1="134" y1="59.157676649772938" x2="156" y2="59.157676649772938" />
    <line x1="200" y1="59.157676649772938" x2="222" y2="59.157676649772938" />
    <line x1="266" y1="59.157676649772938" x2="288" y2="59.157676649772938" />
    <line x1="13" y1="78.210235533030584" x2="35" y2="78.210235533030584" />
    <line x1="57" y1="78.210235533030584" x2="79" y2="78.210235533030584" />
    <line x1="167" y1="78.210235533030584" x2="189" y2="78.210235533030584" />
    <line x1="277" y1="78.210235533030584" x2="299" y2="78.210235533030584" />
    <line x1="112" y1="97.262794416288244" x2="134" y2="97.262794416288244" />
    <line x1="156" y1="97.262794416288244" x2="200" y2="97.262794416288244" />
    <line x1="222" y1="97.262794416288244" x2="244" y2="97.262794416288244" />
    <line x1="266" y1="97.262794416288244" x2="288" y2="97.262794416288244" />
    <line x1="35" y1="116.31535329954589" x2="79" y2="116.31535329954589" />
    <line x1="123" y1="116.31535329954589" x2="145" y2="116.31535329954589" />
    <line x1="211" y1="116.31535329954589" x2="233" y2="116.31535329954589" />
    <line x1="277" y1="116.31535329954589" x2="299" y2="116.31535329954589" />
    <line x1="24" y1="135.36791218280354" x2="46" y2="135.36791218280354" />
    <line x1="68" y1="135.36791218280354" x2="178" y2="135.36791218280354" />
    <line x1="57" y1="154.4204710660612" x2="79" y2="154.4204710660612" />
    <line x1="123" y1="154.4204710660612" x2="145" y2="154.4204710660612" />
    <line x1="167" y1="154.4204710660612" x2="189" y2="154.4204710660612" />
    <line x1="211" y1="154.4204710660612" x2="233" y2="154.4204710660612" />
    <line x1="277" y1="154.4204710660612" x2="299" y2="154.4204710660612" />
    <line x1="2" y1="173.47302994931883" x2="46" y2="173.47302994931883" />
    <line x1="90" y1="173.47302994931883" x2="112" y2="173.47302994931883" />
    <line x1="35" y1="192.52558883257649" x2="57" y2="192.52558883257649" />
    <line x1="79" y1="192.52558883257649" x2="101" y2="192.52558883257649" />
    <line x1="189" y1="192.52558883257649" x2="211" y2="192.52558883257649" />
    <line x1="233" y1="192.52558883257649" x2="255" y2="192.52558883257649" />
    <line x1="156" y1="211.57814771583415" x2="178" y2="211.57814771583415" />
    <line x1="222" y1="211.57814771583415" x2="244" y2="211.57814771583415" />
    <line x1="13" y1="230.63070659909178" x2="35" y2="230.63070659909178" />
    <line x1="101" y1="230.63070659909178" x2="123" y2="230.63070659909178" />
    <line x1="299" y1="230.63070659909178" x2="321" y2="230.63070659909178" />
    <line x1="68" y1="249.68326548234944" x2="112" y2="249.68326548234944" />
    <line x1="178" y1="249.68326548234944" x2="222" y2="249.68326548234944" />
    <line x1="266" y1="249.68326548234944" x2="288" y2="249.68326548234944" />
    <line x1="101" y1="268.73582436560707" x2="145" y2="268.73582436560707" />
    <line x1="189" y1="268.73582436560707" x2="211" y2="268.73582436560707" />
    <line x1="233" y1="268.73582436560707" x2="255" y2="268.73582436560707" />
    <line x1="299" y1="268.73582436560707" x2="321" y2="268.73582436560707" />
    <line x1="46" y1="287.78838324886476" x2="90" y2="287.78838324886476" />
    <line x1="200" y1="287.78838324886476" x2="266" y2="287.78838324886476" />
    <line x1="288" y1="287.78838324886476" x2="332" y2="287.78838324886476" />
    <line x1="13" y1="306.84094213212234" x2="35" y2="306.84094213212234" />
    <line x1="145" y1="306.84094213212234" x2="167" y2="306.84094213212234" />
    <line x1="211" y1="306.84094213212234" x2="233" y2="306.84094213212234" />
    <line x1="277" y1="306.84094213212234" x2="299" y2="306.84094213212234" />
    <line x1="321" y1="306.84094213212234" x2="343" y2="306.84094213212234" />
    <line x1="24" y1="325.89350101538" x2="46" y2="325.89350101538" />
    <line x1="266" y1="325.89350101538" x2="288" y2="325.89350101538" />
    <line x1="123" y1="344.94605989863771" x2="167" y2="344.94605989863771" />
    <line x1="189" y1="344.94605989863771" x2="321" y2="344.94605989863771" />
    <line x1="2" y1="363.99861878189529" x2="156" y2="363.99861878189529" />
    <line x1="178" y1="363.99861878189529" x2="332" y2="363.99861878189529" />
    <polyline points="13,1.9999999999999911 2,21.052558883257639 13,40.105117766515292 2,59.157676649772938" />
    <line x1="2" y1="59.157676649772945" x2="13" y2="78.2102355330306" />
    <line x1="13" y1="78.210235533030584" x2="2" y2="97.262794416288244" />
    <polyline points="2,97.26279441628823 13,116.31535329954589 2,135.36791218280354 13,154.42047106606117" />
    <line x1="13" y1="154.4204710660612" x2="2" y2="173.47302994931883" />
    <polyline points="2,173.47302994931886 13,192.52558883257649 2,211.57814771583412" />
    <line x1="2" y1="211.57814771583415" x2="13" y2="230.63070659909178" />
    <line x1="13" y1="230.63070659909181" x2="2" y2="249.68326548234944" />
    <polyline points="2,249.68326548234941 13,268.73582436560707 2,287.78838324886476 13,306.84094213212245" />
    <polyline points="13,306.84094213212234 2,325.89350101538 13,344.94605989863771 2,363.9986187818954" />
    <line x1="13" y1="40.105117766515292" x2="24" y2="59.157676649772938" />
    <line x1="13" y1="192.52558883257649" x2="24" y2="211.57814771583412" />
    <line x1="24" y1="249.68326548234941" x2="13" y2="268.73582436560707" />
    <line x1="24" y1="21.052558883257639" x2="35" y2="40.105117766515292" />
    <line x1="35" y1="78.210235533030584" x2="24" y2="97.262794416288244" />
    <line x1="24" y1="135.36791218280354" x2="35" y2="154.42047106606117" />
    <polyline points="35,268.73582436560707 24,287.78838324886476 35,306.84094213212245" />
    <line x1="24" y1="325.89350101538" x2="35" y2="344.94605989863771" />
    <line x1="35" y1="306.84094213212234" x2="46" y2="325.89350101538" />
    <polyline points="46,21.052558883257639 57,40.105117766515292 46,59.157676649772938" />
    <polyline points="46,97.26279441628823 57,116.31535329954589 46,135.36791218280354 57,154.42047106606117" />
    <line x1="46" y1="211.57814771583415" x2="57" y2="230.63070659909178" />
    <line x1="46" y1="249.68326548234941" x2="57" y2="268.73582436560707" />
    <line x1="57" y1="344.94605989863771" x2="46" y2="363.9986187818954" />
    <polyline points="57,1.9999999999999911 68,21.052558883257639 57,40.105117766515292" />
    <line x1="57" y1="78.210235533030584" x2="68" y2="97.262794416288244" />
    <line x1="68" y1="173.47302994931886" x2="57" y2="192.52558883257649" />
    <line x1="57" y1="230.63070659909181" x2="68" y2="249.68326548234944" />
    <line x1="57" y1="268.73582436560707" x2="68" y2="287.78838324886476" />
    <line x1="57" y1="306.84094213212234" x2="68" y2="325.89350101538" />
    <line x1="79" y1="40.105117766515292" x2="68" y2="59.157676649772938" />
    <line x1="68" y1="59.157676649772945" x2="79" y2="78.2102355330306" />
    <line x1="79" y1="154.4204710660612" x2="68" y2="173.47302994931883" />
    <line x1="79" y1="192.52558883257649" x2="68" y2="211.57814771583412" />
    <line x1="68" y1="325.89350101538" x2="79" y2="344.94605989863771" />
    <line x1="79" y1="40.105117766515292" x2="90" y2="59.157676649772938" />
    <line x1="79" y1="116.31535329954589" x2="90" y2="135.36791218280354" />
    <line x1="79" y1="154.4204710660612" x2="90" y2="173.47302994931883" />
    <line x1="79" y1="192.52558883257649" x2="90" y2="211.57814771583412" />
    <line x1="90" y1="211.57814771583415" x2="79" y2="230.63070659909178" />
    <line x1="79" y1="268.73582436560707" x2="90" y2="287.78838324886476" />
    <polyline points="79,306.84094213212234 90,325.89350101538 79,344.94605989863771 90,363.9986187818954" />
    <polyline points="90,21.052558883257639 101,40.105117766515292 90,59.157676649772938" />
    <line x1="101" y1="78.210235533030584" x2="90" y2="97.262794416288244" />
    <line x1="90" y1="97.26279441628823" x2="101" y2="116.31535329954589" />
    <line x1="101" y1="268.73582436560707" x2="90" y2="287.78838324886476" />
    <line x1="90" y1="325.89350101538" x2="101" y2="344.94605989863771" />
    <line x1="112" y1="59.157676649772945" x2="101" y2="78.2102355330306" />
    <line x1="101" y1="154.4204710660612" x2="112" y2="173.47302994931883" />
    <line x1="112" y1="173.47302994931886" x2="101" y2="192.52558883257649" />
    <line x1="112" y1="211.57814771583415" x2="101" y2="230.63070659909178" />
    <line x1="112" y1="249.68326548234941" x2="101" y2="268.73582436560707" />
    <line x1="112" y1="287.78838324886476" x2="101" y2="306.84094213212245" />
    <line x1="101" y1="306.84094213212234" x2="112" y2="325.89350101538" />
    <line x1="123" y1="78.210235533030584" x2="112" y2="97.262794416288244" />
    <polyline points="112,97.26279441628823 123,116.31535329954589 112,135.36791218280354" />
    <line x1="123" y1="154.4204710660612" x2="112" y2="173.47302994931883" />
    <polyline points="112,173.47302994931886 123,192.52558883257649 112,211.57814771583412" />
    <polyline points="123,268.73582436560707 112,287.78838324886476 123,306.84094213212245" />
    <line x1="112" y1="325.89350101538" x2="123" y2="344.94605989863771" />
    <line x1="134" y1="59.157676649772945" x2="123" y2="78.2102355330306" />
    <polyline points="134,173.47302994931886 123,192.52558883257649 134,211.57814771583412" />
    <line x1="123" y1="230.63070659909181" x2="134" y2="249.68326548234944" />
    <line x1="123" y1="306.84094213212234" x2="134" y2="325.89350101538" />
    <polyline points="145,1.9999999999999911 134,21.052558883257639 145,40.105117766515292" />
    <line x1="145" y1="78.210235533030584" x2="134" y2="97.262794416288244" />
    <line x1="134" y1="173.47302994931886" x2="145" y2="192.52558883257649" />
    <line x1="145" y1="268.73582436560707" x2="134" y2="287.78838324886476" />
    <line x1="145" y1="154.4204710660612" x2="156" y2="173.47302994931883" />
    <line x1="156" y1="211.57814771583415" x2="145" y2="230.63070659909178" />
    <line x1="145" y1="230.63070659909181" x2="156" y2="249.68326548234944" />
    <line x1="167" y1="40.105117766515292" x2="156" y2="59.157676649772938" />
    <line x1="156" y1="97.26279441628823" x2="167" y2="116.31535329954589" />
    <line x1="156" y1="135.36791218280354" x2="167" y2="154.42047106606117" />
    <line x1="167" y1="230.63070659909181" x2="156" y2="249.68326548234944" />
    <polyline points="156,249.68326548234941 167,268.73582436560707 156,287.78838324886476" />
    <line x1="167" y1="306.84094213212234" x2="156" y2="325.89350101538" />
    <line x1="178" y1="59.157676649772945" x2="167" y2="78.2102355330306" />
    <line x1="167" y1="192.52558883257649" x2="178" y2="211.57814771583412" />
    <line x1="178" y1="287.78838324886476" x2="167" y2="306.84094213212245" />
    <line x1="167" y1="306.84094213212234" x2="178" y2="325.89350101538" />
    <line x1="167" y1="344.94605989863771" x2="178" y2="363.9986187818954" />
    <line x1="189" y1="40.105117766515292" x2="178" y2="59.157676649772938" />
    <line x1="189" y1="116.31535329954589" x2="178" y2="135.36791218280354" />
    <line x1="189" y1="154.4204710660612" x2="178" y2="173.47302994931883" />
    <line x1="178" y1="173.47302994931886" x2="189" y2="192.52558883257649" />
    <line x1="178" y1="211.57814771583415" x2="189" y2="230.63070659909178" />
    <line x1="178" y1="325.89350101538" x2="189" y2="344.94605989863771" />
    <line x1="189" y1="154.4204710660612" x2="200" y2="173.47302994931883" />
    <line x1="189" y1="192.52558883257649" x2="200" y2="211.57814771583412" />
    <line x1="200" y1="211.57814771583415" x2="189" y2="230.63070659909178" />
    <line x1="189" y1="268.73582436560707" x2="200" y2="287.78838324886476" />
    <polyline points="189,306.84094213212234 200,325.89350101538 189,344.94605989863771" />
    <line x1="211" y1="78.210235533030584" x2="200" y2="97.262794416288244" />
    <polyline points="200,97.26279441628823 211,116.31535329954589 200,135.36791218280354" />
    <line x1="200" y1="211.57814771583415" x2="211" y2="230.63070659909178" />
    <line x1="222" y1="59.157676649772945" x2="211" y2="78.2102355330306" />
    <line x1="211" y1="306.84094213212234" x2="222" y2="325.89350101538" />
    <polyline points="222,21.052558883257639 233,40.105117766515292 222,59.157676649772938" />
    <line x1="233" y1="78.210235533030584" x2="222" y2="97.262794416288244" />
    <line x1="233" y1="116.31535329954589" x2="222" y2="135.36791218280354" />
    <line x1="222" y1="173.47302994931886" x2="233" y2="192.52558883257649" />
    <line x1="233" y1="230.63070659909181" x2="222" y2="249.68326548234944" />
    <line x1="222" y1="325.89350101538" x2="233" y2="344.94605989863771" />
    <line x1="233" y1="1.9999999999999911" x2="244" y2="21.052558883257639" />
    <line x1="244" y1="97.26279441628823" x2="233" y2="116.31535329954589" />
    <line x1="244" y1="135.36791218280354" x2="233" y2="154.42047106606117" />
    <line x1="244" y1="173.47302994931886" x2="233" y2="192.52558883257649" />
    <line x1="244" y1="211.57814771583415" x2="233" y2="230.63070659909178" />
    <line x1="244" y1="287.78838324886476" x2="233" y2="306.84094213212245" />
    <line x1="233" y1="306.84094213212234" x2="244" y2="325.89350101538" />
    <line x1="244" y1="21.052558883257639" x2="255" y2="40.105117766515292" />
    <line x1="244" y1="59.157676649772945" x2="255" y2="78.2102355330306" />
    <line x1="255" y1="78.210235533030584" x2="244" y2="97.262794416288244" />
    <polyline points="255,116.31535329954589 244,135.36791218280354 255,154.42047106606117" />
    <line x1="255" y1="154.4204710660612" x2="244" y2="173.47302994931883" />
    <line x1="255" y1="192.52558883257649" x2="244" y2="211.57814771583412" />
    <line x1="244" y1="211.57814771583415" x2="255" y2="230.63070659909178" />
    <line x1="255" y1="230.63070659909181" x2="244" y2="249.68326548234944" />
    <line x1="255" y1="344.94605989863771" x2="244" y2="363.9986187818954" />
    <line x1="266" y1="97.26279441628823" x2="255" y2="116.31535329954589" />
    <line x1="266" y1="249.68326548234941" x2="255" y2="268.73582436560707" />
    <line x1="266" y1="287.78838324886476" x2="255" y2="306.84094213212245" />
    <line x1="266" y1="59.157676649772945" x2="277" y2="78.2102355330306" />
    <line x1="266" y1="135.36791218280354" x2="277" y2="154.42047106606117" />
    <line x1="277" y1="154.4204710660612" x2="266" y2="173.47302994931883" />
    <polyline points="266,173.47302994931886 277,192.52558883257649 266,211.57814771583412" />
    <line x1="277" y1="268.73582436560707" x2="266" y2="287.78838324886476" />
    <line x1="277" y1="78.210235533030584" x2="288" y2="97.262794416288244" />
    <line x1="277" y1="116.31535329954589" x2="288" y2="135.36791218280354" />
    <line x1="288" y1="173.47302994931886" x2="277" y2="192.52558883257649" />
    <line x1="288" y1="211.57814771583415" x2="277" y2="230.63070659909178" />
    <line x1="288" y1="249.68326548234941" x2="277" y2="268.73582436560707" />
    <line x1="277" y1="306.84094213212234" x2="288" y2="325.89350101538" />
    <line x1="288" y1="21.052558883257639" x2="299" y2="40.105117766515292" />
    <line x1="288" y1="135.36791218280354" x2="299" y2="154.42047106606117" />
    <line x1="299" y1="192.52558883257649" x2="288" y2="211.57814771583412" />
    <line x1="288" y1="211.57814771583415" x2="299" y2="230.63070659909178" />
    <line x1="299" y1="268.73582436560707" x2="288" y2="287.78838324886476" />
    <line x1="288" y1="325.89350101538" x2="299" y2="344.94605989863771" />
    <line x1="310" y1="59.157676649772945" x2="299" y2="78.2102355330306" />
    <polyline points="310,97.26279441628823 299,116.31535329954589 310,135.36791218280354" />
    <line x1="299" y1="192.52558883257649" x2="310" y2="211.57814771583412" />
    <line x1="321" y1="1.9999999999999911" x2="310" y2="21.052558883257639" />
    <line x1="321" y1="40.105117766515292" x2="310" y2="59.157676649772938" />
    <line x1="310" y1="59.157676649772945" x2="321" y2="78.2102355330306" />
    <line x1="310" y1="97.26279441628823" x2="321" y2="116.31535329954589" />
    <line x1="310" y1="135.36791218280354" x2="321" y2="154.42047106606117" />
    <line x1="321" y1="154.4204710660612" x2="310" y2="173.47302994931883" />
    <line x1="310" y1="249.68326548234941" x2="321" y2="268.73582436560707" />
    <line x1="310" y1="325.89350101538" x2="321" y2="344.94605989863771" />
    <line x1="321" y1="78.210235533030584" x2="332" y2="97.262794416288244" />
    <line x1="321" y1="154.4204710660612" x2="332" y2="173.47302994931883" />
    <line x1="321" y1="192.52558883257649" x2="332" y2="211.57814771583412" />
    <line x1="321" y1="230.63070659909181" x2="332" y2="249.68326548234944" />
    <polyline points="343,1.9999999999999911 332,21.052558883257639 343,40.105117766515292 332,59.157676649772938" />
    <line x1="332" y1="59.157676649772945" x2="343" y2="78.2102355330306" />
    <line x1="343" y1="78.210235533030584" x2="332" y2="97.262794416288244" />
    <polyline points="332,97.26279441628823 343,116.31535329954589 332,135.36791218280354 343,154.42047106606117" />
    <line x1="343" y1="154.4204710660612" x2="332" y2="173.47302994931883" />
    <polyline points="332,173.47302994931886 343,192.52558883257649 332,211.57814771583412" />
    <line x1="332" y1="211.57814771583415" x2="343" y2="230.63070659909178" />
    <line x1="343" y1="230.63070659909181" x2="332" y2="249.68326548234944" />
    <polyline points="332,249.68326548234941 343,268.73582436560707 332,287.78838324886476 343,306.84094213212245" />
    <polyline points="343,306.84094213212234 332,325.89350101538 343,344.94605989863771 332,363.9986187818954" />
  </g>
  <polyline fill="none" stroke="#ff0000" stroke-width="2" stroke-linecap="square" stroke-linejoin="round" points="178,1.9999999999999911 167,21.052558883257639 172.5,30.578838324886465 216.5,30.578838324886465 222,40.105117766515292 216.5,49.631397208144115 194.5,49.631397208144115 189,59.157676649772938 200,78.210235533030584 194.5,87.736514974659414 150.5,87.736514974659414 145,97.262794416288244 161.5,125.84163274117472 172.5,125.84163274117472 183.5,106.78907385791706 194.5,106.78907385791706 200,116.31535329954589 189,135.36791218280354 222,192.52558883257649 211,211.57814771583415 222,230.63070659909178 216.5,240.15698604072063 172.5,240.15698604072063 167,249.68326548234944 178,268.73582436560707 161.5,297.31466269049361 150.5,297.31466269049361 145,287.78838324886476 156,268.73582436560707 150.5,259.20954492397823 128.5,259.20954492397823 117.5,240.15698604072063 73.5,240.15698604072063 51.5,202.0518682742053 40.5,202.0518682742053 35,211.57814771583415 46,230.63070659909178 35,249.68326548234944 46,268.73582436560707 35,287.78838324886476 40.5,297.31466269049361 84.5,297.31466269049361 117.5,354.47233934026656 161.5,354.47233934026656 167,363.99861878189529" />
  <type>Rectangular</type>
</svg>