<?xml version="1.0" encoding="utf-8" standalone="no"?>
<!DOCTYPE svg PUBLIC "-//W3C//DTD SVG 1.1//EN" "http://www.w3.org/Graphics/SVG/1.1/DTD/svg11.dtd"[]>
<svg width="1104" height="956.6279441628825" version="1.1" xmlns="http://www.w3.org/2000/svg">
  <title>Triangular delta maze with 50 cells side</title>
  <g fill="none" stroke="#000000" stroke-width="2" stroke-linecap="round" stroke-linejoin="round">
    <line x1="519" y1="59.157676649772966" x2="541" y2="59.157676649772966" />
    <line x1="530" y1="78.210235533030612" x2="596" y2="78.210235533030612" />
    <line x1="541" y1="97.262794416288273" x2="585" y2="97.262794416288273" />
    <line x1="519" y1="135.36791218280357" x2="563" y2="135.36791218280357" />
    <line x1="607" y1="135.36791218280357" x2="629" y2="135.36791218280357" />
    <line x1="596" y1="154.42047106606123" x2="618" y2="154.42047106606123" />
    <line x1="475" y1="173.47302994931886" x2="497" y2="173.47302994931886" />
    <line x1="607" y1="173.47302994931886" x2="651" y2="173.47302994931886" />
    <line x1="442" y1="192.52558883257652" x2="464" y2="192.52558883257652" />
    <line x1="486" y1="192.52558883257652" x2="508" y2="192.52558883257652" />
    <line x1="431" y1="211.57814771583418" x2="453" y2="211.57814771583418" />
    <line x1="497" y1="211.57814771583418" x2="519" y2="211.57814771583418" />
    <line x1="541" y1="211.57814771583418" x2="563" y2="211.57814771583418" />
    <line x1="607" y1="211.57814771583418" x2="629" y2="211.57814771583418" />
    <line x1="618" y1="230.63070659909181" x2="640" y2="230.63070659909181" />
    <line x1="629" y1="249.68326548234947" x2="651" y2="249.68326548234947" />
    <line x1="442" y1="268.73582436560713" x2="464" y2="268.73582436560713" />
    <line x1="640" y1="268.73582436560713" x2="662" y2="268.73582436560713" />
    <line x1="453" y1="287.78838324886476" x2="497" y2="287.78838324886476" />
    <line x1="563" y1="287.78838324886476" x2="585" y2="287.78838324886476" />
    <line x1="376" y1="306.84094213212239" x2="398" y2="306.84094213212239" />
    <line x1="420" y1="306.84094213212239" x2="508" y2="306.84094213212239" />
    <line x1="530" y1="306.84094213212239" x2="596" y2="306.84094213212239" />
    <line x1="706" y1="306.84094213212239" x2="728" y2="306.84094213212239" />
    <line x1="431" y1="325.89350101538008" x2="453" y2="325.89350101538008" />
    <line x1="475" y1="325.89350101538008" x2="497" y2="325.89350101538008" />
    <line x1="541" y1="325.89350101538008" x2="585" y2="325.89350101538008" />
    <line x1="695" y1="325.89350101538008" x2="717" y2="325.89350101538008" />
    <line x1="398" y1="344.94605989863771" x2="420" y2="344.94605989863771" />
    <line x1="530" y1="344.94605989863771" x2="552" y2="344.94605989863771" />
    <line x1="574" y1="344.94605989863771" x2="618" y2="344.94605989863771" />
    <line x1="640" y1="344.94605989863771" x2="684" y2="344.94605989863771" />
    <line x1="497" y1="363.99861878189535" x2="541" y2="363.99861878189535" />
    <line x1="629" y1="363.99861878189535" x2="651" y2="363.99861878189535" />
    <line x1="695" y1="363.99861878189535" x2="717" y2="363.99861878189535" />
    <line x1="486" y1="383.05117766515303" x2="530" y2="383.05117766515303" />
    <line x1="596" y1="383.05117766515303" x2="618" y2="383.05117766515303" />
    <line x1="706" y1="383.05117766515303" x2="728" y2="383.05117766515303" />
    <line x1="750" y1="383.05117766515303" x2="772" y2="383.05117766515303" />
    <line x1="343" y1="402.10373654841067" x2="409" y2="402.10373654841067" />
    <line x1="519" y1="402.10373654841067" x2="541" y2="402.10373654841067" />
    <line x1="585" y1="402.10373654841067" x2="629" y2="402.10373654841067" />
    <line x1="651" y1="402.10373654841067" x2="673" y2="402.10373654841067" />
    <line x1="695" y1="402.10373654841067" x2="717" y2="402.10373654841067" />
    <line x1="739" y1="402.10373654841067" x2="761" y2="402.10373654841067" />
    <line x1="354" y1="421.1562954316683" x2="376" y2="421.1562954316683" />
    <line x1="420" y1="421.1562954316683" x2="486" y2="421.1562954316683" />
    <line x1="508" y1="421.1562954316683" x2="530" y2="421.1562954316683" />
    <line x1="640" y1="421.1562954316683" x2="684" y2="421.1562954316683" />
    <line x1="706" y1="421.1562954316683" x2="750" y2="421.1562954316683" />
    <line x1="321" y1="440.208854314926" x2="365" y2="440.208854314926" />
    <line x1="453" y1="440.208854314926" x2="475" y2="440.208854314926" />
    <line x1="519" y1="440.208854314926" x2="541" y2="440.208854314926" />
    <line x1="563" y1="440.208854314926" x2="585" y2="440.208854314926" />
    <line x1="607" y1="440.208854314926" x2="629" y2="440.208854314926" />
    <line x1="673" y1="440.208854314926" x2="695" y2="440.208854314926" />
    <line x1="332" y1="459.26141319818362" x2="376" y2="459.26141319818362" />
    <line x1="398" y1="459.26141319818362" x2="420" y2="459.26141319818362" />
    <line x1="508" y1="459.26141319818362" x2="530" y2="459.26141319818362" />
    <line x1="552" y1="459.26141319818362" x2="574" y2="459.26141319818362" />
    <line x1="596" y1="459.26141319818362" x2="618" y2="459.26141319818362" />
    <line x1="640" y1="459.26141319818362" x2="662" y2="459.26141319818362" />
    <line x1="684" y1="459.26141319818362" x2="706" y2="459.26141319818362" />
    <line x1="772" y1="459.26141319818362" x2="794" y2="459.26141319818362" />
    <line x1="475" y1="478.31397208144125" x2="497" y2="478.31397208144125" />
    <line x1="541" y1="478.31397208144125" x2="563" y2="478.31397208144125" />
    <line x1="585" y1="478.31397208144125" x2="607" y2="478.31397208144125" />
    <line x1="673" y1="478.31397208144125" x2="695" y2="478.31397208144125" />
    <line x1="739" y1="478.31397208144125" x2="761" y2="478.31397208144125" />
    <line x1="288" y1="497.36653096469888" x2="310" y2="497.36653096469888" />
    <line x1="442" y1="497.36653096469888" x2="508" y2="497.36653096469888" />
    <line x1="706" y1="497.36653096469888" x2="772" y2="497.36653096469888" />
    <line x1="794" y1="497.36653096469888" x2="816" y2="497.36653096469888" />
    <line x1="321" y1="516.41908984795657" x2="409" y2="516.41908984795657" />
    <line x1="453" y1="516.41908984795657" x2="475" y2="516.41908984795657" />
    <line x1="519" y1="516.41908984795657" x2="541" y2="516.41908984795657" />
    <line x1="563" y1="516.41908984795657" x2="585" y2="516.41908984795657" />
    <line x1="651" y1="516.41908984795657" x2="673" y2="516.41908984795657" />
    <line x1="695" y1="516.41908984795657" x2="717" y2="516.41908984795657" />
    <line x1="354" y1="535.47164873121426" x2="442" y2="535.47164873121426" />
    <line x1="464" y1="535.47164873121426" x2="486" y2="535.47164873121426" />
    <line x1="574" y1="535.47164873121426" x2="596" y2="535.47164873121426" />
    <line x1="618" y1="535.47164873121426" x2="662" y2="535.47164873121426" />
    <line x1="706" y1="535.47164873121426" x2="728" y2="535.47164873121426" />
    <line x1="299" y1="554.52420761447183" x2="321" y2="554.52420761447183" />
    <line x1="343" y1="554.52420761447183" x2="387" y2="554.52420761447183" />
    <line x1="409" y1="554.52420761447183" x2="431" y2="554.52420761447183" />
    <line x1="453" y1="554.52420761447183" x2="475" y2="554.52420761447183" />
    <line x1="497" y1="554.52420761447183" x2="519" y2="554.52420761447183" />
    <line x1="563" y1="554.52420761447183" x2="651" y2="554.52420761447183" />
    <line x1="717" y1="554.52420761447183" x2="739" y2="554.52420761447183" />
    <line x1="761" y1="554.52420761447183" x2="827" y2="554.52420761447183" />
    <line x1="222" y1="573.57676649772952" x2="244" y2="573.57676649772952" />
    <line x1="288" y1="573.57676649772952" x2="310" y2="573.57676649772952" />
    <line x1="354" y1="573.57676649772952" x2="398" y2="573.57676649772952" />
    <line x1="420" y1="573.57676649772952" x2="442" y2="573.57676649772952" />
    <line x1="574" y1="573.57676649772952" x2="684" y2="573.57676649772952" />
    <line x1="772" y1="573.57676649772952" x2="794" y2="573.57676649772952" />
    <line x1="838" y1="573.57676649772952" x2="860" y2="573.57676649772952" />
    <line x1="233" y1="592.62932538098721" x2="255" y2="592.62932538098721" />
    <line x1="453" y1="592.62932538098721" x2="475" y2="592.62932538098721" />
    <line x1="607" y1="592.62932538098721" x2="629" y2="592.62932538098721" />
    <line x1="651" y1="592.62932538098721" x2="673" y2="592.62932538098721" />
    <line x1="695" y1="592.62932538098721" x2="717" y2="592.62932538098721" />
    <line x1="761" y1="592.62932538098721" x2="805" y2="592.62932538098721" />
    <line x1="310" y1="611.68188426424479" x2="332" y2="611.68188426424479" />
    <line x1="376" y1="611.68188426424479" x2="442" y2="611.68188426424479" />
    <line x1="464" y1="611.68188426424479" x2="486" y2="611.68188426424479" />
    <line x1="618" y1="611.68188426424479" x2="684" y2="611.68188426424479" />
    <line x1="706" y1="611.68188426424479" x2="728" y2="611.68188426424479" />
    <line x1="750" y1="611.68188426424479" x2="772" y2="611.68188426424479" />
    <line x1="838" y1="611.68188426424479" x2="882" y2="611.68188426424479" />
    <line x1="255" y1="630.73444314750247" x2="277" y2="630.73444314750247" />
    <line x1="299" y1="630.73444314750247" x2="365" y2="630.73444314750247" />
    <line x1="453" y1="630.73444314750247" x2="497" y2="630.73444314750247" />
    <line x1="607" y1="630.73444314750247" x2="629" y2="630.73444314750247" />
    <line x1="695" y1="630.73444314750247" x2="717" y2="630.73444314750247" />
    <line x1="739" y1="630.73444314750247" x2="761" y2="630.73444314750247" />
    <line x1="849" y1="630.73444314750247" x2="893" y2="630.73444314750247" />
    <line x1="222" y1="649.78700203076" x2="266" y2="649.78700203076" />
    <line x1="288" y1="649.78700203076" x2="310" y2="649.78700203076" />
    <line x1="442" y1="649.78700203076" x2="464" y2="649.78700203076" />
    <line x1="816" y1="649.78700203076" x2="838" y2="649.78700203076" />
    <line x1="167" y1="668.83956091401774" x2="189" y2="668.83956091401774" />
    <line x1="233" y1="668.83956091401774" x2="255" y2="668.83956091401774" />
    <line x1="343" y1="668.83956091401774" x2="365" y2="668.83956091401774" />
    <line x1="409" y1="668.83956091401774" x2="453" y2="668.83956091401774" />
    <line x1="497" y1="668.83956091401774" x2="585" y2="668.83956091401774" />
    <line x1="629" y1="668.83956091401774" x2="651" y2="668.83956091401774" />
    <line x1="827" y1="668.83956091401774" x2="849" y2="668.83956091401774" />
    <line x1="222" y1="687.89211979727543" x2="244" y2="687.89211979727543" />
    <line x1="354" y1="687.89211979727543" x2="376" y2="687.89211979727543" />
    <line x1="530" y1="687.89211979727543" x2="574" y2="687.89211979727543" />
    <line x1="618" y1="687.89211979727543" x2="640" y2="687.89211979727543" />
    <line x1="706" y1="687.89211979727543" x2="750" y2="687.89211979727543" />
    <line x1="882" y1="687.89211979727543" x2="904" y2="687.89211979727543" />
    <line x1="167" y1="706.944678680533" x2="255" y2="706.944678680533" />
    <line x1="277" y1="706.944678680533" x2="365" y2="706.944678680533" />
    <line x1="387" y1="706.944678680533" x2="409" y2="706.944678680533" />
    <line x1="431" y1="706.944678680533" x2="453" y2="706.944678680533" />
    <line x1="563" y1="706.944678680533" x2="585" y2="706.944678680533" />
    <line x1="607" y1="706.944678680533" x2="629" y2="706.944678680533" />
    <line x1="717" y1="706.944678680533" x2="761" y2="706.944678680533" />
    <line x1="893" y1="706.944678680533" x2="915" y2="706.944678680533" />
    <line x1="178" y1="725.99723756379069" x2="200" y2="725.99723756379069" />
    <line x1="222" y1="725.99723756379069" x2="244" y2="725.99723756379069" />
    <line x1="266" y1="725.99723756379069" x2="310" y2="725.99723756379069" />
    <line x1="354" y1="725.99723756379069" x2="376" y2="725.99723756379069" />
    <line x1="508" y1="725.99723756379069" x2="530" y2="725.99723756379069" />
    <line x1="574" y1="725.99723756379069" x2="618" y2="725.99723756379069" />
    <line x1="640" y1="725.99723756379069" x2="662" y2="725.99723756379069" />
    <line x1="706" y1="725.99723756379069" x2="750" y2="725.99723756379069" />
    <line x1="794" y1="725.99723756379069" x2="838" y2="725.99723756379069" />
    <line x1="882" y1="725.99723756379069" x2="926" y2="725.99723756379069" />
    <line x1="948" y1="725.99723756379069" x2="970" y2="725.99723756379069" />
    <line x1="145" y1="745.04979644704838" x2="167" y2="745.04979644704838" />
    <line x1="189" y1="745.04979644704838" x2="211" y2="745.04979644704838" />
    <line x1="277" y1="745.04979644704838" x2="343" y2="745.04979644704838" />
    <line x1="409" y1="745.04979644704838" x2="431" y2="745.04979644704838" />
    <line x1="453" y1="745.04979644704838" x2="497" y2="745.04979644704838" />
    <line x1="651" y1="745.04979644704838" x2="673" y2="745.04979644704838" />
    <line x1="695" y1="745.04979644704838" x2="717" y2="745.04979644704838" />
    <line x1="761" y1="745.04979644704838" x2="783" y2="745.04979644704838" />
    <line x1="827" y1="745.04979644704838" x2="849" y2="745.04979644704838" />
    <line x1="893" y1="745.04979644704838" x2="915" y2="745.04979644704838" />
    <line x1="937" y1="745.04979644704838" x2="959" y2="745.04979644704838" />
    <line x1="156" y1="764.102355330306" x2="200" y2="764.102355330306" />
    <line x1="266" y1="764.102355330306" x2="332" y2="764.102355330306" />
    <line x1="376" y1="764.102355330306" x2="442" y2="764.102355330306" />
    <line x1="486" y1="764.102355330306" x2="530" y2="764.102355330306" />
    <line x1="596" y1="764.102355330306" x2="618" y2="764.102355330306" />
    <line x1="640" y1="764.102355330306" x2="662" y2="764.102355330306" />
    <line x1="772" y1="764.102355330306" x2="794" y2="764.102355330306" />
    <line x1="816" y1="764.102355330306" x2="838" y2="764.102355330306" />
    <line x1="904" y1="764.102355330306" x2="926" y2="764.102355330306" />
    <line x1="145" y1="783.15491421356364" x2="167" y2="783.15491421356364" />
    <line x1="189" y1="783.15491421356364" x2="211" y2="783.15491421356364" />
    <line x1="233" y1="783.15491421356364" x2="343" y2="783.15491421356364" />
    <line x1="387" y1="783.15491421356364" x2="431" y2="783.15491421356364" />
    <line x1="497" y1="783.15491421356364" x2="519" y2="783.15491421356364" />
    <line x1="629" y1="783.15491421356364" x2="673" y2="783.15491421356364" />
    <line x1="761" y1="783.15491421356364" x2="783" y2="783.15491421356364" />
    <line x1="805" y1="783.15491421356364" x2="871" y2="783.15491421356364" />
    <line x1="893" y1="783.15491421356364" x2="937" y2="783.15491421356364" />
    <line x1="178" y1="802.20747309682133" x2="200" y2="802.20747309682133" />
    <line x1="288" y1="802.20747309682133" x2="310" y2="802.20747309682133" />
    <line x1="332" y1="802.20747309682133" x2="354" y2="802.20747309682133" />
    <line x1="376" y1="802.20747309682133" x2="420" y2="802.20747309682133" />
    <line x1="442" y1="802.20747309682133" x2="508" y2="802.20747309682133" />
    <line x1="552" y1="802.20747309682133" x2="574" y2="802.20747309682133" />
    <line x1="618" y1="802.20747309682133" x2="662" y2="802.20747309682133" />
    <line x1="838" y1="802.20747309682133" x2="882" y2="802.20747309682133" />
    <line x1="904" y1="802.20747309682133" x2="926" y2="802.20747309682133" />
    <line x1="992" y1="802.20747309682133" x2="1014" y2="802.20747309682133" />
    <line x1="167" y1="821.26003198007891" x2="189" y2="821.26003198007891" />
    <line x1="211" y1="821.26003198007891" x2="233" y2="821.26003198007891" />
    <line x1="299" y1="821.26003198007891" x2="387" y2="821.26003198007891" />
    <line x1="475" y1="821.26003198007891" x2="497" y2="821.26003198007891" />
    <line x1="607" y1="821.26003198007891" x2="629" y2="821.26003198007891" />
    <line x1="673" y1="821.26003198007891" x2="695" y2="821.26003198007891" />
    <line x1="717" y1="821.26003198007891" x2="739" y2="821.26003198007891" />
    <line x1="761" y1="821.26003198007891" x2="783" y2="821.26003198007891" />
    <line x1="805" y1="821.26003198007891" x2="827" y2="821.26003198007891" />
    <line x1="849" y1="821.26003198007891" x2="893" y2="821.26003198007891" />
    <line x1="981" y1="821.26003198007891" x2="1003" y2="821.26003198007891" />
    <line x1="222" y1="840.3125908633366" x2="244" y2="840.3125908633366" />
    <line x1="310" y1="840.3125908633366" x2="354" y2="840.3125908633366" />
    <line x1="376" y1="840.3125908633366" x2="398" y2="840.3125908633366" />
    <line x1="486" y1="840.3125908633366" x2="508" y2="840.3125908633366" />
    <line x1="552" y1="840.3125908633366" x2="574" y2="840.3125908633366" />
    <line x1="640" y1="840.3125908633366" x2="662" y2="840.3125908633366" />
    <line x1="684" y1="840.3125908633366" x2="706" y2="840.3125908633366" />
    <line x1="772" y1="840.3125908633366" x2="794" y2="840.3125908633366" />
    <line x1="816" y1="840.3125908633366" x2="838" y2="840.3125908633366" />
    <line x1="882" y1="840.3125908633366" x2="904" y2="840.3125908633366" />
    <line x1="926" y1="840.3125908633366" x2="948" y2="840.3125908633366" />
    <line x1="79" y1="859.36514974659428" x2="101" y2="859.36514974659428" />
    <line x1="211" y1="859.36514974659428" x2="255" y2="859.36514974659428" />
    <line x1="387" y1="859.36514974659428" x2="409" y2="859.36514974659428" />
    <line x1="519" y1="859.36514974659428" x2="541" y2="859.36514974659428" />
    <line x1="563" y1="859.36514974659428" x2="607" y2="859.36514974659428" />
    <line x1="651" y1="859.36514974659428" x2="695" y2="859.36514974659428" />
    <line x1="827" y1="859.36514974659428" x2="849" y2="859.36514974659428" />
    <line x1="915" y1="859.36514974659428" x2="937" y2="859.36514974659428" />
    <line x1="244" y1="878.41770862985186" x2="288" y2="878.41770862985186" />
    <line x1="398" y1="878.41770862985186" x2="442" y2="878.41770862985186" />
    <line x1="464" y1="878.41770862985186" x2="486" y2="878.41770862985186" />
    <line x1="596" y1="878.41770862985186" x2="640" y2="878.41770862985186" />
    <line x1="662" y1="878.41770862985186" x2="684" y2="878.41770862985186" />
    <line x1="794" y1="878.41770862985186" x2="816" y2="878.41770862985186" />
    <line x1="992" y1="878.41770862985186" x2="1014" y2="878.41770862985186" />
    <line x1="101" y1="897.47026751310955" x2="123" y2="897.47026751310955" />
    <line x1="145" y1="897.47026751310955" x2="167" y2="897.47026751310955" />
    <line x1="255" y1="897.47026751310955" x2="299" y2="897.47026751310955" />
    <line x1="343" y1="897.47026751310955" x2="365" y2="897.47026751310955" />
    <line x1="409" y1="897.47026751310955" x2="431" y2="897.47026751310955" />
    <line x1="497" y1="897.47026751310955" x2="519" y2="897.47026751310955" />
    <line x1="585" y1="897.47026751310955" x2="607" y2="897.47026751310955" />
    <line x1="629" y1="897.47026751310955" x2="695" y2="897.47026751310955" />
    <line x1="827" y1="897.47026751310955" x2="849" y2="897.47026751310955" />
    <line x1="959" y1="897.47026751310955" x2="981" y2="897.47026751310955" />
    <line x1="1003" y1="897.47026751310955" x2="1025" y2="897.47026751310955" />
    <line x1="178" y1="916.52282639636724" x2="200" y2="916.52282639636724" />
    <line x1="266" y1="916.52282639636724" x2="288" y2="916.52282639636724" />
    <line x1="442" y1="916.52282639636724" x2="464" y2="916.52282639636724" />
    <line x1="486" y1="916.52282639636724" x2="508" y2="916.52282639636724" />
    <line x1="530" y1="916.52282639636724" x2="552" y2="916.52282639636724" />
    <line x1="596" y1="916.52282639636724" x2="684" y2="916.52282639636724" />
    <line x1="750" y1="916.52282639636724" x2="772" y2="916.52282639636724" />
    <line x1="816" y1="916.52282639636724" x2="838" y2="916.52282639636724" />
    <line x1="882" y1="916.52282639636724" x2="926" y2="916.52282639636724" />
    <line x1="970" y1="916.52282639636724" x2="992" y2="916.52282639636724" />
    <line x1="57" y1="935.57538527962481" x2="79" y2="935.57538527962481" />
    <line x1="123" y1="935.57538527962481" x2="145" y2="935.57538527962481" />
    <line x1="167" y1="935.57538527962481" x2="255" y2="935.57538527962481" />
    <line x1="299" y1="935.57538527962481" x2="321" y2="935.57538527962481" />
    <line x1="365" y1="935.57538527962481" x2="387" y2="935.57538527962481" />
    <line x1="453" y1="935.57538527962481" x2="519" y2="935.57538527962481" />
    <line x1="629" y1="935.57538527962481" x2="695" y2="935.57538527962481" />
    <line x1="739" y1="935.57538527962481" x2="783" y2="935.57538527962481" />
    <line x1="805" y1="935.57538527962481" x2="827" y2="935.57538527962481" />
    <line x1="893" y1="935.57538527962481" x2="915" y2="935.57538527962481" />
    <line x1="1003" y1="935.57538527962481" x2="1025" y2="935.57538527962481" />
    <polyline points="1102,954.6279441628825 2,954.6279441628825 13,935.57538527962481" />
    <polyline points="13,935.57538527962492 24,916.52282639636724 35,897.47026751310955 46,878.41770862985186" />
    <line x1="46" y1="916.52282639636724" x2="35" y2="935.57538527962492" />
    <line x1="35" y1="935.57538527962481" x2="46" y2="954.6279441628825" />
    <line x1="57" y1="859.36514974659428" x2="46" y2="878.417708629852" />
    <line x1="57" y1="897.47026751310955" x2="46" y2="916.52282639636724" />
    <line x1="68" y1="840.3125908633366" x2="57" y2="859.36514974659428" />
    <line x1="68" y1="878.41770862985186" x2="57" y2="897.47026751310955" />
    <line x1="68" y1="916.52282639636724" x2="57" y2="935.57538527962492" />
    <line x1="79" y1="821.26003198007891" x2="68" y2="840.3125908633366" />
    <line x1="79" y1="859.36514974659428" x2="68" y2="878.417708629852" />
    <line x1="90" y1="802.20747309682133" x2="79" y2="821.260031980079" />
    <polyline points="90,878.41770862985186 79,897.47026751310955 90,916.52282639636724" />
    <line x1="79" y1="935.57538527962481" x2="90" y2="954.6279441628825" />
    <polyline points="101,783.15491421356364 90,802.20747309682133 101,821.260031980079" />
    <line x1="101" y1="821.26003198007891" x2="90" y2="840.3125908633366" />
    <line x1="90" y1="878.41770862985186" x2="101" y2="897.47026751310955" />
    <line x1="90" y1="916.52282639636724" x2="101" y2="935.57538527962492" />
    <line x1="112" y1="764.102355330306" x2="101" y2="783.15491421356364" />
    <line x1="101" y1="859.36514974659428" x2="112" y2="878.417708629852" />
    <line x1="112" y1="916.52282639636724" x2="101" y2="935.57538527962492" />
    <line x1="123" y1="745.04979644704838" x2="112" y2="764.10235533030607" />
    <line x1="123" y1="783.15491421356364" x2="112" y2="802.20747309682133" />
    <polyline points="112,840.3125908633366 123,859.36514974659428 112,878.417708629852" />
    <line x1="123" y1="935.57538527962481" x2="112" y2="954.6279441628825" />
    <line x1="134" y1="725.99723756379069" x2="123" y2="745.04979644704838" />
    <line x1="134" y1="764.102355330306" x2="123" y2="783.15491421356364" />
    <polyline points="123,821.26003198007891 134,840.3125908633366 123,859.36514974659428" />
    <polyline points="123,897.47026751310955 134,916.52282639636724 123,935.57538527962492" />
    <polyline points="145,706.944678680533 134,725.99723756379069 145,745.04979644704838 134,764.10235533030607" />
    <polyline points="134,764.102355330306 145,783.15491421356364 134,802.20747309682133 145,821.260031980079" />
    <line x1="145" y1="859.36514974659428" x2="134" y2="878.417708629852" />
    <line x1="145" y1="897.47026751310955" x2="134" y2="916.52282639636724" />
    <line x1="156" y1="687.89211979727543" x2="145" y2="706.94467868053312" />
    <line x1="145" y1="706.944678680533" x2="156" y2="725.99723756379069" />
    <line x1="156" y1="840.3125908633366" x2="145" y2="859.36514974659428" />
    <line x1="156" y1="878.41770862985186" x2="145" y2="897.47026751310955" />
    <line x1="167" y1="668.83956091401774" x2="156" y2="687.89211979727543" />
    <line x1="156" y1="802.20747309682133" x2="167" y2="821.260031980079" />
    <line x1="167" y1="821.26003198007891" x2="156" y2="840.3125908633366" />
    <line x1="167" y1="859.36514974659428" x2="156" y2="878.417708629852" />
    <line x1="156" y1="916.52282639636724" x2="167" y2="935.57538527962492" />
    <line x1="178" y1="649.78700203076" x2="167" y2="668.83956091401774" />
    <line x1="178" y1="687.89211979727543" x2="167" y2="706.94467868053312" />
    <line x1="178" y1="725.99723756379069" x2="167" y2="745.04979644704838" />
    <polyline points="178,764.102355330306 167,783.15491421356364 178,802.20747309682133" />
    <line x1="178" y1="840.3125908633366" x2="167" y2="859.36514974659428" />
    <line x1="178" y1="878.41770862985186" x2="167" y2="897.47026751310955" />
    <line x1="189" y1="630.73444314750247" x2="178" y2="649.78700203076016" />
    <line x1="189" y1="859.36514974659428" x2="178" y2="878.417708629852" />
    <line x1="189" y1="897.47026751310955" x2="178" y2="916.52282639636724" />
    <polyline points="200,611.68188426424479 189,630.73444314750247 200,649.78700203076016" />
    <line x1="189" y1="668.83956091401774" x2="200" y2="687.89211979727543" />
    <polyline points="189,821.26003198007891 200,840.3125908633366 189,859.36514974659428" />
    <line x1="200" y1="878.41770862985186" x2="189" y2="897.47026751310955" />
    <polyline points="211,592.6293253809871 200,611.68188426424479 211,630.73444314750247" />
    <line x1="211" y1="821.26003198007891" x2="200" y2="840.3125908633366" />
    <line x1="211" y1="859.36514974659428" x2="200" y2="878.417708629852" />
    <line x1="211" y1="897.47026751310955" x2="200" y2="916.52282639636724" />
    <line x1="222" y1="573.57676649772952" x2="211" y2="592.62932538098721" />
    <line x1="211" y1="592.6293253809871" x2="222" y2="611.68188426424479" />
    <line x1="211" y1="630.73444314750247" x2="222" y2="649.78700203076016" />
    <polyline points="222,649.78700203076 211,668.83956091401774 222,687.89211979727543" />
    <polyline points="211,706.944678680533 222,725.99723756379069 211,745.04979644704838 222,764.10235533030607" />
    <line x1="222" y1="764.102355330306" x2="211" y2="783.15491421356364" />
    <line x1="222" y1="840.3125908633366" x2="211" y2="859.36514974659428" />
    <line x1="211" y1="897.47026751310955" x2="222" y2="916.52282639636724" />
    <line x1="233" y1="554.52420761447183" x2="222" y2="573.57676649772952" />
    <line x1="222" y1="611.68188426424479" x2="233" y2="630.73444314750247" />
    <line x1="233" y1="783.15491421356364" x2="222" y2="802.20747309682133" />
    <line x1="222" y1="878.41770862985186" x2="233" y2="897.47026751310955" />
    <line x1="222" y1="916.52282639636724" x2="233" y2="935.57538527962492" />
    <line x1="244" y1="535.47164873121415" x2="233" y2="554.52420761447183" />
    <line x1="233" y1="592.6293253809871" x2="244" y2="611.68188426424479" />
    <line x1="233" y1="745.04979644704838" x2="244" y2="764.10235533030607" />
    <line x1="244" y1="764.102355330306" x2="233" y2="783.15491421356364" />
    <line x1="244" y1="802.20747309682133" x2="233" y2="821.260031980079" />
    <polyline points="244,878.41770862985186 233,897.47026751310955 244,916.52282639636724" />
    <line x1="255" y1="516.41908984795657" x2="244" y2="535.47164873121426" />
    <line x1="255" y1="554.52420761447183" x2="244" y2="573.57676649772952" />
    <line x1="244" y1="725.99723756379069" x2="255" y2="745.04979644704838" />
    <line x1="266" y1="497.36653096469888" x2="255" y2="516.41908984795657" />
    <line x1="266" y1="535.47164873121415" x2="255" y2="554.52420761447183" />
    <line x1="266" y1="573.57676649772952" x2="255" y2="592.62932538098721" />
    <polyline points="255,668.83956091401774 266,687.89211979727543 255,706.94467868053312" />
    <line x1="255" y1="706.944678680533" x2="266" y2="725.99723756379069" />
    <line x1="255" y1="745.04979644704838" x2="266" y2="764.10235533030607" />
    <polyline points="255,783.15491421356364 266,802.20747309682133 255,821.260031980079" />
    <line x1="266" y1="840.3125908633366" x2="255" y2="859.36514974659428" />
    <line x1="266" y1="916.52282639636724" x2="255" y2="935.57538527962492" />
    <line x1="277" y1="516.41908984795657" x2="266" y2="535.47164873121426" />
    <line x1="277" y1="554.52420761447183" x2="266" y2="573.57676649772952" />
    <polyline points="277,592.6293253809871 266,611.68188426424479 277,630.73444314750247" />
    <line x1="266" y1="649.78700203076" x2="277" y2="668.83956091401774" />
    <line x1="266" y1="687.89211979727543" x2="277" y2="706.94467868053312" />
    <line x1="277" y1="821.26003198007891" x2="266" y2="840.3125908633366" />
    <line x1="288" y1="459.26141319818362" x2="277" y2="478.31397208144131" />
    <line x1="288" y1="497.36653096469888" x2="277" y2="516.41908984795657" />
    <polyline points="288,535.47164873121415 277,554.52420761447183 288,573.57676649772952 277,592.62932538098721" />
    <line x1="277" y1="592.6293253809871" x2="288" y2="611.68188426424479" />
    <line x1="277" y1="668.83956091401774" x2="288" y2="687.89211979727543" />
    <line x1="288" y1="802.20747309682133" x2="277" y2="821.260031980079" />
    <line x1="288" y1="840.3125908633366" x2="277" y2="859.36514974659428" />
    <line x1="277" y1="935.57538527962481" x2="288" y2="954.6279441628825" />
    <line x1="299" y1="440.20885431492593" x2="288" y2="459.26141319818362" />
    <line x1="299" y1="516.41908984795657" x2="288" y2="535.47164873121426" />
    <polyline points="288,611.68188426424479 299,630.73444314750247 288,649.78700203076016" />
    <line x1="299" y1="821.26003198007891" x2="288" y2="840.3125908633366" />
    <line x1="299" y1="859.36514974659428" x2="288" y2="878.417708629852" />
    <line x1="299" y1="897.47026751310955" x2="288" y2="916.52282639636724" />
    <line x1="310" y1="421.1562954316683" x2="299" y2="440.208854314926" />
    <line x1="310" y1="459.26141319818362" x2="299" y2="478.31397208144131" />
    <line x1="310" y1="535.47164873121415" x2="299" y2="554.52420761447183" />
    <line x1="299" y1="592.6293253809871" x2="310" y2="611.68188426424479" />
    <line x1="299" y1="668.83956091401774" x2="310" y2="687.89211979727543" />
    <line x1="310" y1="840.3125908633366" x2="299" y2="859.36514974659428" />
    <line x1="321" y1="402.10373654841067" x2="310" y2="421.15629543166835" />
    <line x1="321" y1="440.20885431492593" x2="310" y2="459.26141319818362" />
    <polyline points="310,497.36653096469888 321,516.41908984795657 310,535.47164873121426" />
    <line x1="310" y1="573.57676649772952" x2="321" y2="592.62932538098721" />
    <line x1="310" y1="649.78700203076" x2="321" y2="668.83956091401774" />
    <line x1="310" y1="687.89211979727543" x2="321" y2="706.94467868053312" />
    <polyline points="321,783.15491421356364 310,802.20747309682133 321,821.260031980079" />
    <line x1="321" y1="859.36514974659428" x2="310" y2="878.417708629852" />
    <polyline points="310,878.41770862985186 321,897.47026751310955 310,916.52282639636724" />
    <line x1="332" y1="383.051177665153" x2="321" y2="402.10373654841067" />
    <line x1="332" y1="459.26141319818362" x2="321" y2="478.31397208144131" />
    <line x1="321" y1="478.31397208144125" x2="332" y2="497.36653096469894" />
    <line x1="321" y1="554.52420761447183" x2="332" y2="573.57676649772952" />
    <line x1="321" y1="668.83956091401774" x2="332" y2="687.89211979727543" />
    <polyline points="321,706.944678680533 332,725.99723756379069 321,745.04979644704838" />
    <polyline points="332,840.3125908633366 321,859.36514974659428 332,878.417708629852" />
    <line x1="332" y1="916.52282639636724" x2="321" y2="935.57538527962492" />
    <line x1="321" y1="935.57538527962481" x2="332" y2="954.6279441628825" />
    <line x1="343" y1="363.99861878189535" x2="332" y2="383.05117766515303" />
    <line x1="343" y1="402.10373654841067" x2="332" y2="421.15629543166835" />
    <line x1="332" y1="421.1562954316683" x2="343" y2="440.208854314926" />
    <line x1="343" y1="516.41908984795657" x2="332" y2="535.47164873121426" />
    <line x1="332" y1="535.47164873121415" x2="343" y2="554.52420761447183" />
    <line x1="332" y1="573.57676649772952" x2="343" y2="592.62932538098721" />
    <line x1="343" y1="592.6293253809871" x2="332" y2="611.68188426424479" />
    <polyline points="332,649.78700203076 343,668.83956091401774 332,687.89211979727543" />
    <line x1="332" y1="764.102355330306" x2="343" y2="783.15491421356364" />
    <polyline points="332,878.41770862985186 343,897.47026751310955 332,916.52282639636724" />
    <line x1="354" y1="344.94605989863771" x2="343" y2="363.9986187818954" />
    <line x1="354" y1="459.26141319818362" x2="343" y2="478.31397208144131" />
    <line x1="343" y1="478.31397208144125" x2="354" y2="497.36653096469894" />
    <line x1="343" y1="592.6293253809871" x2="354" y2="611.68188426424479" />
    <line x1="354" y1="687.89211979727543" x2="343" y2="706.94467868053312" />
    <line x1="343" y1="745.04979644704838" x2="354" y2="764.10235533030607" />
    <line x1="343" y1="859.36514974659428" x2="354" y2="878.417708629852" />
    <line x1="354" y1="916.52282639636724" x2="343" y2="935.57538527962492" />
    <line x1="343" y1="935.57538527962481" x2="354" y2="954.6279441628825" />
    <line x1="365" y1="325.89350101538" x2="354" y2="344.94605989863771" />
    <line x1="354" y1="383.051177665153" x2="365" y2="402.10373654841067" />
    <line x1="354" y1="497.36653096469888" x2="365" y2="516.41908984795657" />
    <line x1="354" y1="649.78700203076" x2="365" y2="668.83956091401774" />
    <line x1="365" y1="745.04979644704838" x2="354" y2="764.10235533030607" />
    <polyline points="354,764.102355330306 365,783.15491421356364 354,802.20747309682133" />
    <polyline points="354,840.3125908633366 365,859.36514974659428 354,878.417708629852" />
    <line x1="376" y1="306.84094213212239" x2="365" y2="325.89350101538008" />
    <polyline points="365,325.89350101538 376,344.94605989863771 365,363.9986187818954" />
    <line x1="365" y1="363.99861878189535" x2="376" y2="383.05117766515303" />
    <line x1="376" y1="459.26141319818362" x2="365" y2="478.31397208144131" />
    <polyline points="365,592.6293253809871 376,611.68188426424479 365,630.73444314750247 376,649.78700203076016" />
    <line x1="376" y1="840.3125908633366" x2="365" y2="859.36514974659428" />
    <line x1="376" y1="878.41770862985186" x2="365" y2="897.47026751310955" />
    <line x1="376" y1="916.52282639636724" x2="365" y2="935.57538527962492" />
    <line x1="387" y1="287.78838324886476" x2="376" y2="306.84094213212245" />
    <line x1="376" y1="421.1562954316683" x2="387" y2="440.208854314926" />
    <line x1="387" y1="478.31397208144125" x2="376" y2="497.36653096469894" />
    <line x1="376" y1="497.36653096469888" x2="387" y2="516.41908984795657" />
    <line x1="376" y1="573.57676649772952" x2="387" y2="592.62932538098721" />
    <polyline points="387,668.83956091401774 376,687.89211979727543 387,706.94467868053312" />
    <line x1="376" y1="725.99723756379069" x2="387" y2="745.04979644704838" />
    <line x1="387" y1="783.15491421356364" x2="376" y2="802.20747309682133" />
    <line x1="387" y1="897.47026751310955" x2="376" y2="916.52282639636724" />
    <line x1="398" y1="268.73582436560707" x2="387" y2="287.78838324886476" />
    <polyline points="387,325.89350101538 398,344.94605989863771 387,363.9986187818954" />
    <line x1="387" y1="363.99861878189535" x2="398" y2="383.05117766515303" />
    <line x1="398" y1="383.051177665153" x2="387" y2="402.10373654841067" />
    <polyline points="387,440.20885431492593 398,459.26141319818362 387,478.31397208144131" />
    <line x1="387" y1="478.31397208144125" x2="398" y2="497.36653096469894" />
    <polyline points="398,611.68188426424479 387,630.73444314750247 398,649.78700203076016" />
    <line x1="398" y1="649.78700203076" x2="387" y2="668.83956091401774" />
    <line x1="398" y1="725.99723756379069" x2="387" y2="745.04979644704838" />
    <line x1="398" y1="878.41770862985186" x2="387" y2="897.47026751310955" />
    <line x1="398" y1="916.52282639636724" x2="387" y2="935.57538527962492" />
    <line x1="409" y1="249.68326548234947" x2="398" y2="268.73582436560713" />
    <line x1="409" y1="363.99861878189535" x2="398" y2="383.05117766515303" />
    <line x1="398" y1="421.1562954316683" x2="409" y2="440.208854314926" />
    <polyline points="409,554.52420761447183 398,573.57676649772952 409,592.62932538098721" />
    <line x1="409" y1="592.6293253809871" x2="398" y2="611.68188426424479" />
    <line x1="409" y1="668.83956091401774" x2="398" y2="687.89211979727543" />
    <line x1="409" y1="706.944678680533" x2="398" y2="725.99723756379069" />
    <line x1="409" y1="821.26003198007891" x2="398" y2="840.3125908633366" />
    <polyline points="409,897.47026751310955 398,916.52282639636724 409,935.57538527962492" />
    <polyline points="420,230.63070659909184 409,249.68326548234947 420,268.73582436560713" />
    <polyline points="420,268.73582436560707 409,287.78838324886476 420,306.84094213212245" />
    <line x1="420" y1="306.84094213212239" x2="409" y2="325.89350101538008" />
    <line x1="409" y1="402.10373654841067" x2="420" y2="421.15629543166835" />
    <line x1="420" y1="421.1562954316683" x2="409" y2="440.208854314926" />
    <line x1="409" y1="478.31397208144125" x2="420" y2="497.36653096469894" />
    <line x1="420" y1="497.36653096469888" x2="409" y2="516.41908984795657" />
    <line x1="409" y1="630.73444314750247" x2="420" y2="649.78700203076016" />
    <line x1="420" y1="687.89211979727543" x2="409" y2="706.94467868053312" />
    <line x1="420" y1="840.3125908633366" x2="409" y2="859.36514974659428" />
    <line x1="431" y1="211.57814771583418" x2="420" y2="230.63070659909181" />
    <line x1="420" y1="344.94605989863771" x2="431" y2="363.9986187818954" />
    <line x1="431" y1="363.99861878189535" x2="420" y2="383.05117766515303" />
    <line x1="431" y1="440.20885431492593" x2="420" y2="459.26141319818362" />
    <line x1="420" y1="573.57676649772952" x2="431" y2="592.62932538098721" />
    <line x1="420" y1="611.68188426424479" x2="431" y2="630.73444314750247" />
    <line x1="420" y1="649.78700203076" x2="431" y2="668.83956091401774" />
    <line x1="420" y1="687.89211979727543" x2="431" y2="706.94467868053312" />
    <polyline points="431,706.944678680533 420,725.99723756379069 431,745.04979644704838" />
    <line x1="431" y1="821.26003198007891" x2="420" y2="840.3125908633366" />
    <line x1="431" y1="859.36514974659428" x2="420" y2="878.417708629852" />
    <line x1="420" y1="916.52282639636724" x2="431" y2="935.57538527962492" />
    <line x1="442" y1="192.52558883257652" x2="431" y2="211.57814771583415" />
    <polyline points="442,230.63070659909184 431,249.68326548234947 442,268.73582436560713" />
    <line x1="442" y1="268.73582436560707" x2="431" y2="287.78838324886476" />
    <polyline points="431,325.89350101538 442,344.94605989863771 431,363.9986187818954" />
    <line x1="431" y1="363.99861878189535" x2="442" y2="383.05117766515303" />
    <line x1="442" y1="383.051177665153" x2="431" y2="402.10373654841067" />
    <line x1="442" y1="459.26141319818362" x2="431" y2="478.31397208144131" />
    <line x1="431" y1="478.31397208144125" x2="442" y2="497.36653096469894" />
    <line x1="442" y1="497.36653096469888" x2="431" y2="516.41908984795657" />
    <line x1="431" y1="630.73444314750247" x2="442" y2="649.78700203076016" />
    <line x1="431" y1="668.83956091401774" x2="442" y2="687.89211979727543" />
    <polyline points="431,783.15491421356364 442,802.20747309682133 431,821.260031980079" />
    <line x1="431" y1="821.26003198007891" x2="442" y2="840.3125908633366" />
    <line x1="431" y1="897.47026751310955" x2="442" y2="916.52282639636724" />
    <line x1="431" y1="935.57538527962481" x2="442" y2="954.6279441628825" />
    <line x1="453" y1="173.47302994931889" x2="442" y2="192.52558883257652" />
    <polyline points="453,440.20885431492593 442,459.26141319818362 453,478.31397208144131" />
    <line x1="453" y1="516.41908984795657" x2="442" y2="535.47164873121426" />
    <polyline points="442,535.47164873121415 453,554.52420761447183 442,573.57676649772952 453,592.62932538098721" />
    <polyline points="453,592.6293253809871 442,611.68188426424479 453,630.73444314750247" />
    <polyline points="453,706.944678680533 442,725.99723756379069 453,745.04979644704838 442,764.10235533030607" />
    <line x1="442" y1="764.102355330306" x2="453" y2="783.15491421356364" />
    <polyline points="442,840.3125908633366 453,859.36514974659428 442,878.417708629852" />
    <line x1="442" y1="878.41770862985186" x2="453" y2="897.47026751310955" />
    <line x1="464" y1="154.42047106606123" x2="453" y2="173.47302994931886" />
    <line x1="453" y1="211.57814771583418" x2="464" y2="230.63070659909181" />
    <line x1="464" y1="230.63070659909184" x2="453" y2="249.68326548234947" />
    <line x1="453" y1="363.99861878189535" x2="464" y2="383.05117766515303" />
    <polyline points="464,383.051177665153 453,402.10373654841067 464,421.15629543166835" />
    <polyline points="453,668.83956091401774 464,687.89211979727543 453,706.94467868053312" />
    <line x1="453" y1="821.26003198007891" x2="464" y2="840.3125908633366" />
    <line x1="453" y1="859.36514974659428" x2="464" y2="878.417708629852" />
    <line x1="475" y1="135.36791218280357" x2="464" y2="154.4204710660612" />
    <polyline points="475,173.47302994931889 464,192.52558883257652 475,211.57814771583415" />
    <line x1="475" y1="249.68326548234947" x2="464" y2="268.73582436560713" />
    <line x1="464" y1="268.73582436560707" x2="475" y2="287.78838324886476" />
    <line x1="464" y1="306.84094213212239" x2="475" y2="325.89350101538008" />
    <line x1="464" y1="344.94605989863771" x2="475" y2="363.9986187818954" />
    <line x1="464" y1="459.26141319818362" x2="475" y2="478.31397208144131" />
    <line x1="475" y1="554.52420761447183" x2="464" y2="573.57676649772952" />
    <line x1="464" y1="649.78700203076" x2="475" y2="668.83956091401774" />
    <line x1="475" y1="706.944678680533" x2="464" y2="725.99723756379069" />
    <line x1="475" y1="745.04979644704838" x2="464" y2="764.10235533030607" />
    <line x1="464" y1="764.102355330306" x2="475" y2="783.15491421356364" />
    <line x1="464" y1="840.3125908633366" x2="475" y2="859.36514974659428" />
    <polyline points="475,897.47026751310955 464,916.52282639636724 475,935.57538527962492" />
    <line x1="486" y1="116.31535329954592" x2="475" y2="135.36791218280357" />
    <line x1="486" y1="192.52558883257652" x2="475" y2="211.57814771583415" />
    <line x1="475" y1="211.57814771583418" x2="486" y2="230.63070659909181" />
    <line x1="475" y1="249.68326548234947" x2="486" y2="268.73582436560713" />
    <line x1="475" y1="363.99861878189535" x2="486" y2="383.05117766515303" />
    <line x1="486" y1="383.051177665153" x2="475" y2="402.10373654841067" />
    <line x1="475" y1="440.20885431492593" x2="486" y2="459.26141319818362" />
    <line x1="486" y1="497.36653096469888" x2="475" y2="516.41908984795657" />
    <line x1="486" y1="573.57676649772952" x2="475" y2="592.62932538098721" />
    <line x1="475" y1="592.6293253809871" x2="486" y2="611.68188426424479" />
    <line x1="475" y1="630.73444314750247" x2="486" y2="649.78700203076016" />
    <polyline points="475,668.83956091401774 486,687.89211979727543 475,706.94467868053312" />
    <line x1="486" y1="725.99723756379069" x2="475" y2="745.04979644704838" />
    <line x1="475" y1="783.15491421356364" x2="486" y2="802.20747309682133" />
    <polyline points="475,821.26003198007891 486,840.3125908633366 475,859.36514974659428" />
    <line x1="497" y1="97.262794416288258" x2="486" y2="116.31535329954592" />
    <line x1="497" y1="135.36791218280357" x2="486" y2="154.4204710660612" />
    <line x1="486" y1="230.63070659909184" x2="497" y2="249.68326548234947" />
    <line x1="486" y1="344.94605989863771" x2="497" y2="363.9986187818954" />
    <line x1="486" y1="421.1562954316683" x2="497" y2="440.208854314926" />
    <line x1="497" y1="440.20885431492593" x2="486" y2="459.26141319818362" />
    <line x1="497" y1="516.41908984795657" x2="486" y2="535.47164873121426" />
    <polyline points="486,535.47164873121415 497,554.52420761447183 486,573.57676649772952" />
    <line x1="497" y1="668.83956091401774" x2="486" y2="687.89211979727543" />
    <line x1="497" y1="706.944678680533" x2="486" y2="725.99723756379069" />
    <line x1="497" y1="859.36514974659428" x2="486" y2="878.417708629852" />
    <line x1="486" y1="878.41770862985186" x2="497" y2="897.47026751310955" />
    <line x1="508" y1="78.210235533030612" x2="497" y2="97.262794416288273" />
    <line x1="497" y1="135.36791218280357" x2="508" y2="154.4204710660612" />
    <line x1="508" y1="154.42047106606123" x2="497" y2="173.47302994931886" />
    <polyline points="508,230.63070659909184 497,249.68326548234947 508,268.73582436560713" />
    <line x1="508" y1="268.73582436560707" x2="497" y2="287.78838324886476" />
    <line x1="497" y1="325.89350101538" x2="508" y2="344.94605989863771" />
    <line x1="497" y1="402.10373654841067" x2="508" y2="421.15629543166835" />
    <line x1="508" y1="421.1562954316683" x2="497" y2="440.208854314926" />
    <line x1="508" y1="459.26141319818362" x2="497" y2="478.31397208144131" />
    <polyline points="497,592.6293253809871 508,611.68188426424479 497,630.73444314750247" />
    <line x1="508" y1="649.78700203076" x2="497" y2="668.83956091401774" />
    <line x1="508" y1="687.89211979727543" x2="497" y2="706.94467868053312" />
    <line x1="497" y1="706.944678680533" x2="508" y2="725.99723756379069" />
    <line x1="519" y1="59.157676649772974" x2="508" y2="78.210235533030627" />
    <line x1="508" y1="78.210235533030612" x2="519" y2="97.262794416288273" />
    <line x1="508" y1="116.31535329954592" x2="519" y2="135.36791218280357" />
    <line x1="519" y1="173.47302994931889" x2="508" y2="192.52558883257652" />
    <line x1="519" y1="211.57814771583418" x2="508" y2="230.63070659909181" />
    <line x1="519" y1="249.68326548234947" x2="508" y2="268.73582436560713" />
    <line x1="519" y1="287.78838324886476" x2="508" y2="306.84094213212245" />
    <line x1="508" y1="344.94605989863771" x2="519" y2="363.9986187818954" />
    <line x1="508" y1="383.051177665153" x2="519" y2="402.10373654841067" />
    <line x1="519" y1="478.31397208144125" x2="508" y2="497.36653096469894" />
    <polyline points="508,497.36653096469888 519,516.41908984795657 508,535.47164873121426" />
    <polyline points="519,554.52420761447183 508,573.57676649772952 519,592.62932538098721" />
    <line x1="519" y1="630.73444314750247" x2="508" y2="649.78700203076016" />
    <line x1="519" y1="745.04979644704838" x2="508" y2="764.10235533030607" />
    <line x1="519" y1="783.15491421356364" x2="508" y2="802.20747309682133" />
    <polyline points="519,821.26003198007891 508,840.3125908633366 519,859.36514974659428 508,878.417708629852" />
    <line x1="508" y1="916.52282639636724" x2="519" y2="935.57538527962492" />
    <line x1="530" y1="40.10511776651532" x2="519" y2="59.157676649772966" />
    <line x1="519" y1="97.262794416288258" x2="530" y2="116.31535329954592" />
    <line x1="530" y1="154.42047106606123" x2="519" y2="173.47302994931886" />
    <line x1="530" y1="192.52558883257652" x2="519" y2="211.57814771583415" />
    <line x1="530" y1="230.63070659909184" x2="519" y2="249.68326548234947" />
    <line x1="530" y1="268.73582436560707" x2="519" y2="287.78838324886476" />
    <line x1="530" y1="306.84094213212239" x2="519" y2="325.89350101538008" />
    <line x1="519" y1="325.89350101538" x2="530" y2="344.94605989863771" />
    <line x1="530" y1="611.68188426424479" x2="519" y2="630.73444314750247" />
    <line x1="530" y1="687.89211979727543" x2="519" y2="706.94467868053312" />
    <line x1="530" y1="802.20747309682133" x2="519" y2="821.260031980079" />
    <polyline points="530,878.41770862985186 519,897.47026751310955 530,916.52282639636724" />
    <line x1="541" y1="21.052558883257667" x2="530" y2="40.10511776651532" />
    <line x1="541" y1="97.262794416288258" x2="530" y2="116.31535329954592" />
    <line x1="541" y1="173.47302994931889" x2="530" y2="192.52558883257652" />
    <line x1="541" y1="287.78838324886476" x2="530" y2="306.84094213212245" />
    <polyline points="541,440.20885431492593 530,459.26141319818362 541,478.31397208144131" />
    <line x1="541" y1="478.31397208144125" x2="530" y2="497.36653096469894" />
    <polyline points="530,535.47164873121415 541,554.52420761447183 530,573.57676649772952" />
    <line x1="541" y1="592.6293253809871" x2="530" y2="611.68188426424479" />
    <line x1="541" y1="706.944678680533" x2="530" y2="725.99723756379069" />
    <polyline points="530,764.102355330306 541,783.15491421356364 530,802.20747309682133 541,821.260031980079" />
    <line x1="541" y1="821.26003198007891" x2="530" y2="840.3125908633366" />
    <line x1="541" y1="935.57538527962481" x2="530" y2="954.6279441628825" />
    <line x1="552" y1="2.0000000000000195" x2="541" y2="21.052558883257667" />
    <line x1="552" y1="40.10511776651532" x2="541" y2="59.157676649772966" />
    <line x1="552" y1="116.31535329954592" x2="541" y2="135.36791218280357" />
    <line x1="552" y1="154.42047106606123" x2="541" y2="173.47302994931886" />
    <polyline points="552,230.63070659909184 541,249.68326548234947 552,268.73582436560713" />
    <line x1="552" y1="268.73582436560707" x2="541" y2="287.78838324886476" />
    <line x1="541" y1="363.99861878189535" x2="552" y2="383.05117766515303" />
    <line x1="541" y1="402.10373654841067" x2="552" y2="421.15629543166835" />
    <line x1="552" y1="421.1562954316683" x2="541" y2="440.208854314926" />
    <line x1="541" y1="516.41908984795657" x2="552" y2="535.47164873121426" />
    <polyline points="541,554.52420761447183 552,573.57676649772952 541,592.62932538098721" />
    <line x1="552" y1="725.99723756379069" x2="541" y2="745.04979644704838" />
    <line x1="552" y1="764.102355330306" x2="541" y2="783.15491421356364" />
    <line x1="552" y1="840.3125908633366" x2="541" y2="859.36514974659428" />
    <line x1="552" y1="878.41770862985186" x2="541" y2="897.47026751310955" />
    <line x1="552" y1="2.0000000000000195" x2="563" y2="21.052558883257667" />
    <line x1="552" y1="154.42047106606123" x2="563" y2="173.47302994931886" />
    <line x1="563" y1="173.47302994931889" x2="552" y2="192.52558883257652" />
    <line x1="563" y1="249.68326548234947" x2="552" y2="268.73582436560713" />
    <line x1="563" y1="287.78838324886476" x2="552" y2="306.84094213212245" />
    <line x1="552" y1="344.94605989863771" x2="563" y2="363.9986187818954" />
    <line x1="552" y1="383.051177665153" x2="563" y2="402.10373654841067" />
    <line x1="552" y1="421.1562954316683" x2="563" y2="440.208854314926" />
    <polyline points="552,497.36653096469888 563,516.41908984795657 552,535.47164873121426" />
    <line x1="552" y1="535.47164873121415" x2="563" y2="554.52420761447183" />
    <line x1="552" y1="573.57676649772952" x2="563" y2="592.62932538098721" />
    <line x1="552" y1="687.89211979727543" x2="563" y2="706.94467868053312" />
    <polyline points="563,706.944678680533 552,725.99723756379069 563,745.04979644704838 552,764.10235533030607" />
    <line x1="552" y1="802.20747309682133" x2="563" y2="821.260031980079" />
    <line x1="563" y1="859.36514974659428" x2="552" y2="878.417708629852" />
    <line x1="563" y1="897.47026751310955" x2="552" y2="916.52282639636724" />
    <polyline points="563,21.052558883257667 574,40.10511776651532 563,59.157676649772966" />
    <line x1="563" y1="135.36791218280357" x2="574" y2="154.4204710660612" />
    <polyline points="563,173.47302994931889 574,192.52558883257652 563,211.57814771583415" />
    <line x1="563" y1="211.57814771583418" x2="574" y2="230.63070659909181" />
    <line x1="574" y1="230.63070659909184" x2="563" y2="249.68326548234947" />
    <line x1="563" y1="325.89350101538" x2="574" y2="344.94605989863771" />
    <line x1="563" y1="402.10373654841067" x2="574" y2="421.15629543166835" />
    <line x1="563" y1="478.31397208144125" x2="574" y2="497.36653096469894" />
    <line x1="563" y1="592.6293253809871" x2="574" y2="611.68188426424479" />
    <line x1="574" y1="764.102355330306" x2="563" y2="783.15491421356364" />
    <line x1="574" y1="878.41770862985186" x2="563" y2="897.47026751310955" />
    <line x1="574" y1="916.52282639636724" x2="563" y2="935.57538527962492" />
    <line x1="563" y1="935.57538527962481" x2="574" y2="954.6279441628825" />
    <line x1="574" y1="40.10511776651532" x2="585" y2="59.157676649772966" />
    <line x1="574" y1="116.31535329954592" x2="585" y2="135.36791218280357" />
    <line x1="574" y1="154.42047106606123" x2="585" y2="173.47302994931886" />
    <line x1="574" y1="268.73582436560707" x2="585" y2="287.78838324886476" />
    <line x1="585" y1="363.99861878189535" x2="574" y2="383.05117766515303" />
    <polyline points="574,383.051177665153 585,402.10373654841067 574,421.15629543166835" />
    <line x1="574" y1="459.26141319818362" x2="585" y2="478.31397208144131" />
    <line x1="585" y1="478.31397208144125" x2="574" y2="497.36653096469894" />
    <polyline points="585,592.6293253809871 574,611.68188426424479 585,630.73444314750247" />
    <polyline points="574,725.99723756379069 585,745.04979644704838 574,764.10235533030607" />
    <line x1="585" y1="783.15491421356364" x2="574" y2="802.20747309682133" />
    <line x1="585" y1="821.26003198007891" x2="574" y2="840.3125908633366" />
    <line x1="585" y1="859.36514974659428" x2="574" y2="878.417708629852" />
    <polyline points="574,878.41770862985186 585,897.47026751310955 574,916.52282639636724" />
    <line x1="585" y1="59.157676649772974" x2="596" y2="78.210235533030627" />
    <line x1="585" y1="97.262794416288258" x2="596" y2="116.31535329954592" />
    <line x1="585" y1="135.36791218280357" x2="596" y2="154.4204710660612" />
    <polyline points="585,173.47302994931889 596,192.52558883257652 585,211.57814771583415" />
    <polyline points="596,230.63070659909184 585,249.68326548234947 596,268.73582436560713" />
    <line x1="596" y1="421.1562954316683" x2="585" y2="440.208854314926" />
    <line x1="585" y1="440.20885431492593" x2="596" y2="459.26141319818362" />
    <line x1="596" y1="497.36653096469888" x2="585" y2="516.41908984795657" />
    <line x1="585" y1="630.73444314750247" x2="596" y2="649.78700203076016" />
    <line x1="585" y1="668.83956091401774" x2="596" y2="687.89211979727543" />
    <polyline points="596,764.102355330306 585,783.15491421356364 596,802.20747309682133 585,821.260031980079" />
    <line x1="596" y1="916.52282639636724" x2="585" y2="935.57538527962492" />
    <line x1="596" y1="78.210235533030612" x2="607" y2="97.262794416288273" />
    <line x1="596" y1="154.42047106606123" x2="607" y2="173.47302994931886" />
    <line x1="596" y1="192.52558883257652" x2="607" y2="211.57814771583415" />
    <line x1="607" y1="211.57814771583418" x2="596" y2="230.63070659909181" />
    <line x1="596" y1="268.73582436560707" x2="607" y2="287.78838324886476" />
    <line x1="596" y1="306.84094213212239" x2="607" y2="325.89350101538008" />
    <line x1="607" y1="325.89350101538" x2="596" y2="344.94605989863771" />
    <line x1="607" y1="363.99861878189535" x2="596" y2="383.05117766515303" />
    <line x1="607" y1="516.41908984795657" x2="596" y2="535.47164873121426" />
    <line x1="596" y1="535.47164873121415" x2="607" y2="554.52420761447183" />
    <polyline points="596,611.68188426424479 607,630.73444314750247 596,649.78700203076016" />
    <line x1="596" y1="649.78700203076" x2="607" y2="668.83956091401774" />
    <line x1="596" y1="687.89211979727543" x2="607" y2="706.94467868053312" />
    <line x1="607" y1="706.944678680533" x2="596" y2="725.99723756379069" />
    <line x1="607" y1="745.04979644704838" x2="596" y2="764.10235533030607" />
    <line x1="607" y1="821.26003198007891" x2="596" y2="840.3125908633366" />
    <line x1="607" y1="97.262794416288258" x2="618" y2="116.31535329954592" />
    <line x1="618" y1="230.63070659909184" x2="607" y2="249.68326548234947" />
    <polyline points="618,268.73582436560707 607,287.78838324886476 618,306.84094213212245" />
    <line x1="618" y1="306.84094213212239" x2="607" y2="325.89350101538008" />
    <line x1="618" y1="421.1562954316683" x2="607" y2="440.208854314926" />
    <line x1="618" y1="497.36653096469888" x2="607" y2="516.41908984795657" />
    <polyline points="618,649.78700203076 607,668.83956091401774 618,687.89211979727543" />
    <polyline points="607,783.15491421356364 618,802.20747309682133 607,821.260031980079" />
    <line x1="607" y1="897.47026751310955" x2="618" y2="916.52282639636724" />
    <line x1="607" y1="935.57538527962481" x2="618" y2="954.6279441628825" />
    <line x1="618" y1="116.31535329954592" x2="629" y2="135.36791218280357" />
    <line x1="629" y1="173.47302994931889" x2="618" y2="192.52558883257652" />
    <line x1="629" y1="249.68326548234947" x2="618" y2="268.73582436560713" />
    <polyline points="629,325.89350101538 618,344.94605989863771 629,363.9986187818954" />
    <line x1="629" y1="363.99861878189535" x2="618" y2="383.05117766515303" />
    <line x1="618" y1="459.26141319818362" x2="629" y2="478.31397208144131" />
    <line x1="629" y1="478.31397208144125" x2="618" y2="497.36653096469894" />
    <line x1="629" y1="516.41908984795657" x2="618" y2="535.47164873121426" />
    <line x1="629" y1="745.04979644704838" x2="618" y2="764.10235533030607" />
    <line x1="618" y1="840.3125908633366" x2="629" y2="859.36514974659428" />
    <line x1="618" y1="878.41770862985186" x2="629" y2="897.47026751310955" />
    <line x1="629" y1="135.36791218280357" x2="640" y2="154.4204710660612" />
    <line x1="629" y1="287.78838324886476" x2="640" y2="306.84094213212245" />
    <line x1="640" y1="306.84094213212239" x2="629" y2="325.89350101538008" />
    <polyline points="640,383.051177665153 629,402.10373654841067 640,421.15629543166835" />
    <line x1="640" y1="421.1562954316683" x2="629" y2="440.208854314926" />
    <line x1="640" y1="573.57676649772952" x2="629" y2="592.62932538098721" />
    <line x1="629" y1="592.6293253809871" x2="640" y2="611.68188426424479" />
    <line x1="629" y1="630.73444314750247" x2="640" y2="649.78700203076016" />
    <polyline points="629,706.944678680533 640,725.99723756379069 629,745.04979644704838" />
    <line x1="640" y1="764.102355330306" x2="629" y2="783.15491421356364" />
    <polyline points="629,821.26003198007891 640,840.3125908633366 629,859.36514974659428" />
    <line x1="640" y1="154.42047106606123" x2="651" y2="173.47302994931886" />
    <line x1="640" y1="192.52558883257652" x2="651" y2="211.57814771583415" />
    <line x1="651" y1="211.57814771583418" x2="640" y2="230.63070659909181" />
    <line x1="640" y1="230.63070659909184" x2="651" y2="249.68326548234947" />
    <line x1="651" y1="478.31397208144125" x2="640" y2="497.36653096469894" />
    <polyline points="640,497.36653096469888 651,516.41908984795657 640,535.47164873121426" />
    <line x1="651" y1="630.73444314750247" x2="640" y2="649.78700203076016" />
    <line x1="640" y1="687.89211979727543" x2="651" y2="706.94467868053312" />
    <line x1="640" y1="802.20747309682133" x2="651" y2="821.260031980079" />
    <line x1="651" y1="173.47302994931889" x2="662" y2="192.52558883257652" />
    <polyline points="662,268.73582436560707 651,287.78838324886476 662,306.84094213212245" />
    <line x1="662" y1="306.84094213212239" x2="651" y2="325.89350101538008" />
    <line x1="651" y1="325.89350101538" x2="662" y2="344.94605989863771" />
    <line x1="651" y1="363.99861878189535" x2="662" y2="383.05117766515303" />
    <line x1="662" y1="421.1562954316683" x2="651" y2="440.208854314926" />
    <line x1="662" y1="611.68188426424479" x2="651" y2="630.73444314750247" />
    <polyline points="662,649.78700203076 651,668.83956091401774 662,687.89211979727543" />
    <line x1="662" y1="878.41770862985186" x2="651" y2="897.47026751310955" />
    <line x1="662" y1="192.52558883257652" x2="673" y2="211.57814771583415" />
    <line x1="673" y1="211.57814771583418" x2="662" y2="230.63070659909181" />
    <line x1="673" y1="249.68326548234947" x2="662" y2="268.73582436560713" />
    <line x1="662" y1="306.84094213212239" x2="673" y2="325.89350101538008" />
    <line x1="673" y1="363.99861878189535" x2="662" y2="383.05117766515303" />
    <polyline points="673,440.20885431492593 662,459.26141319818362 673,478.31397208144131" />
    <line x1="662" y1="497.36653096469888" x2="673" y2="516.41908984795657" />
    <polyline points="662,535.47164873121415 673,554.52420761447183 662,573.57676649772952" />
    <line x1="673" y1="630.73444314750247" x2="662" y2="649.78700203076016" />
    <line x1="662" y1="687.89211979727543" x2="673" y2="706.94467868053312" />
    <polyline points="673,706.944678680533 662,725.99723756379069 673,745.04979644704838" />
    <line x1="673" y1="821.26003198007891" x2="662" y2="840.3125908633366" />
    <line x1="673" y1="211.57814771583418" x2="684" y2="230.63070659909181" />
    <line x1="684" y1="230.63070659909184" x2="673" y2="249.68326548234947" />
    <line x1="673" y1="287.78838324886476" x2="684" y2="306.84094213212245" />
    <line x1="684" y1="383.051177665153" x2="673" y2="402.10373654841067" />
    <line x1="684" y1="535.47164873121415" x2="673" y2="554.52420761447183" />
    <line x1="673" y1="592.6293253809871" x2="684" y2="611.68188426424479" />
    <line x1="684" y1="649.78700203076" x2="673" y2="668.83956091401774" />
    <line x1="684" y1="687.89211979727543" x2="673" y2="706.94467868053312" />
    <line x1="673" y1="745.04979644704838" x2="684" y2="764.10235533030607" />
    <polyline points="684,764.102355330306 673,783.15491421356364 684,802.20747309682133 673,821.260031980079" />
    <line x1="684" y1="840.3125908633366" x2="673" y2="859.36514974659428" />
    <line x1="684" y1="230.63070659909184" x2="695" y2="249.68326548234947" />
    <line x1="684" y1="268.73582436560707" x2="695" y2="287.78838324886476" />
    <line x1="684" y1="306.84094213212239" x2="695" y2="325.89350101538008" />
    <line x1="684" y1="344.94605989863771" x2="695" y2="363.9986187818954" />
    <line x1="695" y1="363.99861878189535" x2="684" y2="383.05117766515303" />
    <line x1="695" y1="402.10373654841067" x2="684" y2="421.15629543166835" />
    <line x1="684" y1="421.1562954316683" x2="695" y2="440.208854314926" />
    <polyline points="684,497.36653096469888 695,516.41908984795657 684,535.47164873121426" />
    <line x1="684" y1="573.57676649772952" x2="695" y2="592.62932538098721" />
    <polyline points="684,611.68188426424479 695,630.73444314750247 684,649.78700203076016" />
    <line x1="695" y1="668.83956091401774" x2="684" y2="687.89211979727543" />
    <polyline points="695,706.944678680533 684,725.99723756379069 695,745.04979644704838" />
    <line x1="684" y1="916.52282639636724" x2="695" y2="935.57538527962492" />
    <line x1="695" y1="249.68326548234947" x2="706" y2="268.73582436560713" />
    <line x1="695" y1="287.78838324886476" x2="706" y2="306.84094213212245" />
    <line x1="706" y1="459.26141319818362" x2="695" y2="478.31397208144131" />
    <line x1="695" y1="478.31397208144125" x2="706" y2="497.36653096469894" />
    <polyline points="706,535.47164873121415 695,554.52420761447183 706,573.57676649772952" />
    <line x1="706" y1="649.78700203076" x2="695" y2="668.83956091401774" />
    <line x1="706" y1="687.89211979727543" x2="695" y2="706.94467868053312" />
    <line x1="695" y1="745.04979644704838" x2="706" y2="764.10235533030607" />
    <polyline points="706,764.102355330306 695,783.15491421356364 706,802.20747309682133" />
    <polyline points="706,878.41770862985186 695,897.47026751310955 706,916.52282639636724" />
    <line x1="706" y1="268.73582436560707" x2="717" y2="287.78838324886476" />
    <polyline points="717,325.89350101538 706,344.94605989863771 717,363.9986187818954" />
    <line x1="717" y1="440.20885431492593" x2="706" y2="459.26141319818362" />
    <line x1="717" y1="668.83956091401774" x2="706" y2="687.89211979727543" />
    <line x1="706" y1="764.102355330306" x2="717" y2="783.15491421356364" />
    <line x1="706" y1="802.20747309682133" x2="717" y2="821.260031980079" />
    <line x1="717" y1="821.26003198007891" x2="706" y2="840.3125908633366" />
    <line x1="717" y1="859.36514974659428" x2="706" y2="878.417708629852" />
    <line x1="706" y1="916.52282639636724" x2="717" y2="935.57538527962492" />
    <line x1="717" y1="935.57538527962481" x2="706" y2="954.6279441628825" />
    <line x1="717" y1="287.78838324886476" x2="728" y2="306.84094213212245" />
    <line x1="717" y1="363.99861878189535" x2="728" y2="383.05117766515303" />
    <line x1="728" y1="459.26141319818362" x2="717" y2="478.31397208144131" />
    <line x1="717" y1="630.73444314750247" x2="728" y2="649.78700203076016" />
    <line x1="728" y1="649.78700203076" x2="717" y2="668.83956091401774" />
    <line x1="728" y1="725.99723756379069" x2="717" y2="745.04979644704838" />
    <line x1="728" y1="840.3125908633366" x2="717" y2="859.36514974659428" />
    <polyline points="728,878.41770862985186 717,897.47026751310955 728,916.52282639636724" />
    <line x1="728" y1="306.84094213212239" x2="739" y2="325.89350101538008" />
    <line x1="728" y1="344.94605989863771" x2="739" y2="363.9986187818954" />
    <line x1="728" y1="383.051177665153" x2="739" y2="402.10373654841067" />
    <line x1="728" y1="421.1562954316683" x2="739" y2="440.208854314926" />
    <line x1="739" y1="440.20885431492593" x2="728" y2="459.26141319818362" />
    <line x1="739" y1="516.41908984795657" x2="728" y2="535.47164873121426" />
    <polyline points="739,554.52420761447183 728,573.57676649772952 739,592.62932538098721" />
    <line x1="728" y1="611.68188426424479" x2="739" y2="630.73444314750247" />
    <polyline points="728,764.102355330306 739,783.15491421356364 728,802.20747309682133" />
    <line x1="739" y1="859.36514974659428" x2="728" y2="878.417708629852" />
    <line x1="728" y1="916.52282639636724" x2="739" y2="935.57538527962492" />
    <line x1="739" y1="325.89350101538" x2="750" y2="344.94605989863771" />
    <line x1="739" y1="363.99861878189535" x2="750" y2="383.05117766515303" />
    <line x1="750" y1="459.26141319818362" x2="739" y2="478.31397208144131" />
    <line x1="750" y1="497.36653096469888" x2="739" y2="516.41908984795657" />
    <line x1="750" y1="535.47164873121415" x2="739" y2="554.52420761447183" />
    <line x1="739" y1="592.6293253809871" x2="750" y2="611.68188426424479" />
    <line x1="739" y1="630.73444314750247" x2="750" y2="649.78700203076016" />
    <line x1="750" y1="649.78700203076" x2="739" y2="668.83956091401774" />
    <line x1="739" y1="745.04979644704838" x2="750" y2="764.10235533030607" />
    <line x1="739" y1="783.15491421356364" x2="750" y2="802.20747309682133" />
    <polyline points="739,821.26003198007891 750,840.3125908633366 739,859.36514974659428" />
    <polyline points="750,878.41770862985186 739,897.47026751310955 750,916.52282639636724" />
    <line x1="750" y1="344.94605989863771" x2="761" y2="363.9986187818954" />
    <line x1="750" y1="421.1562954316683" x2="761" y2="440.208854314926" />
    <line x1="761" y1="440.20885431492593" x2="750" y2="459.26141319818362" />
    <line x1="761" y1="516.41908984795657" x2="750" y2="535.47164873121426" />
    <polyline points="750,535.47164873121415 761,554.52420761447183 750,573.57676649772952" />
    <line x1="761" y1="668.83956091401774" x2="750" y2="687.89211979727543" />
    <line x1="761" y1="706.944678680533" x2="750" y2="725.99723756379069" />
    <line x1="761" y1="745.04979644704838" x2="750" y2="764.10235533030607" />
    <line x1="750" y1="764.102355330306" x2="761" y2="783.15491421356364" />
    <line x1="750" y1="802.20747309682133" x2="761" y2="821.260031980079" />
    <line x1="761" y1="821.26003198007891" x2="750" y2="840.3125908633366" />
    <line x1="761" y1="363.99861878189535" x2="772" y2="383.05117766515303" />
    <line x1="761" y1="402.10373654841067" x2="772" y2="421.15629543166835" />
    <line x1="772" y1="459.26141319818362" x2="761" y2="478.31397208144131" />
    <line x1="772" y1="573.57676649772952" x2="761" y2="592.62932538098721" />
    <line x1="761" y1="630.73444314750247" x2="772" y2="649.78700203076016" />
    <line x1="772" y1="649.78700203076" x2="761" y2="668.83956091401774" />
    <line x1="772" y1="725.99723756379069" x2="761" y2="745.04979644704838" />
    <polyline points="772,840.3125908633366 761,859.36514974659428 772,878.417708629852" />
    <line x1="772" y1="878.41770862985186" x2="761" y2="897.47026751310955" />
    <line x1="772" y1="383.051177665153" x2="783" y2="402.10373654841067" />
    <line x1="783" y1="440.20885431492593" x2="772" y2="459.26141319818362" />
    <polyline points="772,497.36653096469888 783,516.41908984795657 772,535.47164873121426" />
    <line x1="772" y1="611.68188426424479" x2="783" y2="630.73444314750247" />
    <polyline points="772,649.78700203076 783,668.83956091401774 772,687.89211979727543" />
    <line x1="783" y1="706.944678680533" x2="772" y2="725.99723756379069" />
    <line x1="772" y1="802.20747309682133" x2="783" y2="821.260031980079" />
    <line x1="783" y1="897.47026751310955" x2="772" y2="916.52282639636724" />
    <line x1="783" y1="402.10373654841067" x2="794" y2="421.15629543166835" />
    <line x1="794" y1="421.1562954316683" x2="783" y2="440.208854314926" />
    <line x1="783" y1="478.31397208144125" x2="794" y2="497.36653096469894" />
    <line x1="783" y1="516.41908984795657" x2="794" y2="535.47164873121426" />
    <line x1="794" y1="611.68188426424479" x2="783" y2="630.73444314750247" />
    <line x1="783" y1="668.83956091401774" x2="794" y2="687.89211979727543" />
    <line x1="794" y1="725.99723756379069" x2="783" y2="745.04979644704838" />
    <line x1="783" y1="859.36514974659428" x2="794" y2="878.417708629852" />
    <line x1="794" y1="878.41770862985186" x2="783" y2="897.47026751310955" />
    <line x1="794" y1="916.52282639636724" x2="783" y2="935.57538527962492" />
    <line x1="794" y1="421.1562954316683" x2="805" y2="440.208854314926" />
    <line x1="794" y1="497.36653096469888" x2="805" y2="516.41908984795657" />
    <line x1="805" y1="630.73444314750247" x2="794" y2="649.78700203076016" />
    <line x1="794" y1="649.78700203076" x2="805" y2="668.83956091401774" />
    <line x1="794" y1="687.89211979727543" x2="805" y2="706.94467868053312" />
    <line x1="805" y1="745.04979644704838" x2="794" y2="764.10235533030607" />
    <line x1="794" y1="764.102355330306" x2="805" y2="783.15491421356364" />
    <line x1="794" y1="802.20747309682133" x2="805" y2="821.260031980079" />
    <polyline points="805,821.26003198007891 794,840.3125908633366 805,859.36514974659428" />
    <polyline points="805,897.47026751310955 794,916.52282639636724 805,935.57538527962492" />
    <polyline points="805,440.20885431492593 816,459.26141319818362 805,478.31397208144131" />
    <line x1="805" y1="516.41908984795657" x2="816" y2="535.47164873121426" />
    <line x1="816" y1="535.47164873121415" x2="805" y2="554.52420761447183" />
    <line x1="816" y1="573.57676649772952" x2="805" y2="592.62932538098721" />
    <polyline points="805,592.6293253809871 816,611.68188426424479 805,630.73444314750247" />
    <line x1="805" y1="668.83956091401774" x2="816" y2="687.89211979727543" />
    <line x1="805" y1="706.944678680533" x2="816" y2="725.99723756379069" />
    <line x1="805" y1="745.04979644704838" x2="816" y2="764.10235533030607" />
    <line x1="816" y1="459.26141319818362" x2="827" y2="478.31397208144131" />
    <line x1="816" y1="497.36653096469888" x2="827" y2="516.41908984795657" />
    <line x1="827" y1="630.73444314750247" x2="816" y2="649.78700203076016" />
    <polyline points="827,668.83956091401774 816,687.89211979727543 827,706.94467868053312" />
    <line x1="827" y1="783.15491421356364" x2="816" y2="802.20747309682133" />
    <line x1="816" y1="840.3125908633366" x2="827" y2="859.36514974659428" />
    <polyline points="816,878.41770862985186 827,897.47026751310955 816,916.52282639636724" />
    <line x1="827" y1="478.31397208144125" x2="838" y2="497.36653096469894" />
    <line x1="827" y1="516.41908984795657" x2="838" y2="535.47164873121426" />
    <polyline points="827,554.52420761447183 838,573.57676649772952 827,592.62932538098721" />
    <polyline points="827,592.6293253809871 838,611.68188426424479 827,630.73444314750247" />
    <line x1="838" y1="802.20747309682133" x2="827" y2="821.260031980079" />
    <line x1="838" y1="497.36653096469888" x2="849" y2="516.41908984795657" />
    <line x1="838" y1="535.47164873121415" x2="849" y2="554.52420761447183" />
    <line x1="849" y1="630.73444314750247" x2="838" y2="649.78700203076016" />
    <line x1="838" y1="687.89211979727543" x2="849" y2="706.94467868053312" />
    <line x1="849" y1="706.944678680533" x2="838" y2="725.99723756379069" />
    <line x1="849" y1="821.26003198007891" x2="838" y2="840.3125908633366" />
    <line x1="838" y1="878.41770862985186" x2="849" y2="897.47026751310955" />
    <line x1="838" y1="916.52282639636724" x2="849" y2="935.57538527962492" />
    <line x1="849" y1="935.57538527962481" x2="838" y2="954.6279441628825" />
    <line x1="849" y1="516.41908984795657" x2="860" y2="535.47164873121426" />
    <line x1="849" y1="592.6293253809871" x2="860" y2="611.68188426424479" />
    <polyline points="860,649.78700203076 849,668.83956091401774 860,687.89211979727543" />
    <polyline points="849,706.944678680533 860,725.99723756379069 849,745.04979644704838 860,764.10235533030607" />
    <line x1="849" y1="859.36514974659428" x2="860" y2="878.417708629852" />
    <line x1="860" y1="916.52282639636724" x2="849" y2="935.57538527962492" />
    <polyline points="860,535.47164873121415 871,554.52420761447183 860,573.57676649772952" />
    <line x1="860" y1="687.89211979727543" x2="871" y2="706.94467868053312" />
    <line x1="860" y1="764.102355330306" x2="871" y2="783.15491421356364" />
    <line x1="871" y1="821.26003198007891" x2="860" y2="840.3125908633366" />
    <line x1="871" y1="859.36514974659428" x2="860" y2="878.417708629852" />
    <polyline points="860,878.41770862985186 871,897.47026751310955 860,916.52282639636724" />
    <polyline points="871,554.52420761447183 882,573.57676649772952 871,592.62932538098721" />
    <polyline points="882,649.78700203076 871,668.83956091401774 882,687.89211979727543" />
    <polyline points="871,706.944678680533 882,725.99723756379069 871,745.04979644704838" />
    <line x1="882" y1="916.52282639636724" x2="871" y2="935.57538527962492" />
    <line x1="871" y1="935.57538527962481" x2="882" y2="954.6279441628825" />
    <line x1="882" y1="573.57676649772952" x2="893" y2="592.62932538098721" />
    <line x1="893" y1="630.73444314750247" x2="882" y2="649.78700203076016" />
    <line x1="893" y1="745.04979644704838" x2="882" y2="764.10235533030607" />
    <polyline points="882,764.102355330306 893,783.15491421356364 882,802.20747309682133" />
    <line x1="893" y1="859.36514974659428" x2="882" y2="878.417708629852" />
    <line x1="882" y1="878.41770862985186" x2="893" y2="897.47026751310955" />
    <line x1="893" y1="592.6293253809871" x2="904" y2="611.68188426424479" />
    <line x1="904" y1="649.78700203076" x2="893" y2="668.83956091401774" />
    <line x1="904" y1="802.20747309682133" x2="893" y2="821.260031980079" />
    <line x1="893" y1="821.26003198007891" x2="904" y2="840.3125908633366" />
    <line x1="904" y1="878.41770862985186" x2="893" y2="897.47026751310955" />
    <line x1="904" y1="611.68188426424479" x2="915" y2="630.73444314750247" />
    <polyline points="904,649.78700203076 915,668.83956091401774 904,687.89211979727543" />
    <polyline points="904,840.3125908633366 915,859.36514974659428 904,878.417708629852" />
    <line x1="915" y1="630.73444314750247" x2="926" y2="649.78700203076016" />
    <line x1="926" y1="687.89211979727543" x2="915" y2="706.94467868053312" />
    <line x1="915" y1="745.04979644704838" x2="926" y2="764.10235533030607" />
    <line x1="915" y1="821.26003198007891" x2="926" y2="840.3125908633366" />
    <line x1="926" y1="878.41770862985186" x2="915" y2="897.47026751310955" />
    <line x1="915" y1="935.57538527962481" x2="926" y2="954.6279441628825" />
    <polyline points="926,649.78700203076 937,668.83956091401774 926,687.89211979727543" />
    <line x1="937" y1="706.944678680533" x2="926" y2="725.99723756379069" />
    <line x1="926" y1="802.20747309682133" x2="937" y2="821.260031980079" />
    <polyline points="926,878.41770862985186 937,897.47026751310955 926,916.52282639636724 937,935.57538527962492" />
    <polyline points="937,668.83956091401774 948,687.89211979727543 937,706.94467868053312" />
    <line x1="937" y1="745.04979644704838" x2="948" y2="764.10235533030607" />
    <polyline points="948,764.102355330306 937,783.15491421356364 948,802.20747309682133" />
    <line x1="937" y1="859.36514974659428" x2="948" y2="878.417708629852" />
    <line x1="937" y1="897.47026751310955" x2="948" y2="916.52282639636724" />
    <line x1="948" y1="687.89211979727543" x2="959" y2="706.94467868053312" />
    <line x1="948" y1="802.20747309682133" x2="959" y2="821.260031980079" />
    <line x1="959" y1="821.26003198007891" x2="948" y2="840.3125908633366" />
    <line x1="948" y1="916.52282639636724" x2="959" y2="935.57538527962492" />
    <line x1="959" y1="706.944678680533" x2="970" y2="725.99723756379069" />
    <line x1="959" y1="745.04979644704838" x2="970" y2="764.10235533030607" />
    <polyline points="959,783.15491421356364 970,802.20747309682133 959,821.260031980079" />
    <polyline points="970,840.3125908633366 959,859.36514974659428 970,878.417708629852" />
    <line x1="970" y1="878.41770862985186" x2="959" y2="897.47026751310955" />
    <line x1="970" y1="725.99723756379069" x2="981" y2="745.04979644704838" />
    <line x1="970" y1="764.102355330306" x2="981" y2="783.15491421356364" />
    <line x1="981" y1="821.26003198007891" x2="970" y2="840.3125908633366" />
    <line x1="970" y1="916.52282639636724" x2="981" y2="935.57538527962492" />
    <line x1="981" y1="745.04979644704838" x2="992" y2="764.10235533030607" />
    <line x1="981" y1="783.15491421356364" x2="992" y2="802.20747309682133" />
    <polyline points="992,840.3125908633366 981,859.36514974659428 992,878.417708629852" />
    <line x1="992" y1="764.102355330306" x2="1003" y2="783.15491421356364" />
    <line x1="992" y1="840.3125908633366" x2="1003" y2="859.36514974659428" />
    <polyline points="992,878.41770862985186 1003,897.47026751310955 992,916.52282639636724" />
    <line x1="1003" y1="935.57538527962481" x2="992" y2="954.6279441628825" />
    <line x1="1003" y1="783.15491421356364" x2="1014" y2="802.20747309682133" />
    <line x1="1003" y1="821.26003198007891" x2="1014" y2="840.3125908633366" />
    <line x1="1014" y1="916.52282639636724" x2="1003" y2="935.57538527962492" />
    <line x1="1014" y1="802.20747309682133" x2="1025" y2="821.260031980079" />
    <polyline points="1014,840.3125908633366 1025,859.36514974659428 1014,878.417708629852" />
    <line x1="1025" y1="821.26003198007891" x2="1036" y2="840.3125908633366" />
    <polyline points="1036,878.41770862985186 1025,897.47026751310955 1036,916.52282639636724" />
    <polyline points="1036,840.3125908633366 1047,859.36514974659428 1036,878.417708629852" />
    <line x1="1047" y1="935.57538527962481" x2="1036" y2="954.6279441628825" />
    <line x1="1047" y1="859.36514974659428" x2="1058" y2="878.417708629852" />
    <polyline points="1047,897.47026751310955 1058,916.52282639636724 1047,935.57538527962492" />
    <polyline points="1058,878.41770862985186 1069,897.47026751310955 1080,916.52282639636724" />
    <line x1="1069" y1="935.57538527962481" x2="1080" y2="954.6279441628825" />
    <line x1="1080" y1="916.52282639636724" x2="1091" y2="935.57538527962492" />
    <line x1="1091" y1="935.57538527962481" x2="1102" y2="954.6279441628825" />
  </g>
  <polyline fill="none" stroke="#ff0000" stroke-width="2" stroke-linecap="square" stroke-linejoin="round" points="271.5,487.84025152307009 282.5,487.84025152307009 348.5,373.52489822352419 359.5,373.52489822352419 370.5,392.57745710678182 381.5,392.57745710678182 387,383.05117766515303 376,363.99861878189535 387,344.94605989863771 376,325.89350101538008 381.5,316.36722157375124 392.5,316.36722157375124 403.5,335.41978045700887 414.5,335.41978045700887 425.5,316.36722157375124 458.5,316.36722157375124 491.5,373.52489822352419 535.5,373.52489822352419 568.5,430.68257487329714 579.5,430.68257487329714 590.5,411.63001599003951 601.5,411.63001599003951 607,421.1562954316683 596,440.208854314926 601.5,449.73513375655477 623.5,449.73513375655477 634.5,468.78769263981246 656.5,468.78769263981246 667.5,487.84025152307009 689.5,487.84025152307009 700.5,506.89281040632773 722.5,506.89281040632773 728,516.41908984795657 722.5,525.94536928958541 700.5,525.94536928958541 684,554.52420761447183 700.5,583.10304593935837 722.5,583.10304593935837 744.5,621.20816370587363 766.5,621.20816370587363 821.5,716.47095812216185 832.5,716.47095812216185 838,706.944678680533 827,687.89211979727543 832.5,678.36584035564658 843.5,678.36584035564658 871,725.99723756379069 860,745.04979644704838 882,783.15491421356364 876.5,792.68119365519249 832.5,792.68119365519249 821.5,811.73375253845018 810.5,811.73375253845018 799.5,792.68119365519249 788.5,792.68119365519249 783,802.20747309682133 794,821.26003198007891 788.5,830.78631142170775 766.5,830.78631142170775 728,897.47026751310955 744.5,926.04910583799608 777.5,926.04910583799608 799.5,887.9439880714807 810.5,887.9439880714807 816,897.47026751310955 805,916.52282639636724 810.5,926.04910583799608 832.5,926.04910583799608 838,935.57538527962481 832.5,945.10166472125366 733.5,945.10166472125366 706,897.47026751310955 739,840.3125908633366 733.5,830.78631142170775 722.5,830.78631142170775 700.5,868.89142918822313 645.5,868.89142918822313 640,859.36514974659428 645.5,849.83887030496544 667.5,849.83887030496544 678.5,830.78631142170775 700.5,830.78631142170775 706,821.26003198007891 684,783.15491421356364 695,764.102355330306 673,725.99723756379069 717,649.78700203076 711.5,640.26072258913132 700.5,640.26072258913132 678.5,678.36584035564658 667.5,678.36584035564658 662,668.83956091401774 684,630.73444314750247 678.5,621.20816370587363 667.5,621.20816370587363 645.5,659.31328147238889 623.5,659.31328147238889 618,668.83956091401774 623.5,678.36584035564658 645.5,678.36584035564658 662,706.944678680533 656.5,716.47095812216185 645.5,716.47095812216185 634.5,697.41839923890427 612.5,697.41839923890427 596,668.83956091401774" />
  <type>Triangular</type>
</svg>