<?xml version="1.0" encoding="utf-8" standalone="no"?>
<!DOCTYPE svg PUBLIC "-//W3C//DTD SVG 1.1//EN" "http://www.w3.org/Graphics/SVG/1.1/DTD/svg11.dtd"[]>
<svg width="1104" height="956.6279441628825" version="1.1" xmlns="http://www.w3.org/2000/svg">
  <title>Triangular delta maze with 50 cells side</title>
  <g fill="none" stroke="#000000" stroke-width="2" stroke-linecap="round" stroke-linejoin="round">
    <line x1="552" y1="40.10511776651532" x2="574" y2="40.10511776651532" />
    <line x1="508" y1="78.210235533030612" x2="552" y2="78.210235533030612" />
    <line x1="574" y1="116.31535329954592" x2="596" y2="116.31535329954592" />
    <line x1="563" y1="135.36791218280357" x2="607" y2="135.36791218280357" />
    <line x1="574" y1="154.42047106606123" x2="618" y2="154.42047106606123" />
    <line x1="497" y1="173.47302994931886" x2="585" y2="173.47302994931886" />
    <line x1="629" y1="173.47302994931886" x2="651" y2="173.47302994931886" />
    <line x1="442" y1="192.52558883257652" x2="464" y2="192.52558883257652" />
    <line x1="486" y1="192.52558883257652" x2="508" y2="192.52558883257652" />
    <line x1="552" y1="192.52558883257652" x2="574" y2="192.52558883257652" />
    <line x1="431" y1="211.57814771583418" x2="453" y2="211.57814771583418" />
    <line x1="475" y1="211.57814771583418" x2="519" y2="211.57814771583418" />
    <line x1="541" y1="211.57814771583418" x2="563" y2="211.57814771583418" />
    <line x1="442" y1="230.63070659909181" x2="464" y2="230.63070659909181" />
    <line x1="530" y1="230.63070659909181" x2="574" y2="230.63070659909181" />
    <line x1="519" y1="249.68326548234947" x2="629" y2="249.68326548234947" />
    <line x1="651" y1="249.68326548234947" x2="673" y2="249.68326548234947" />
    <line x1="398" y1="268.73582436560713" x2="464" y2="268.73582436560713" />
    <line x1="574" y1="268.73582436560713" x2="596" y2="268.73582436560713" />
    <line x1="618" y1="268.73582436560713" x2="640" y2="268.73582436560713" />
    <line x1="684" y1="268.73582436560713" x2="706" y2="268.73582436560713" />
    <line x1="409" y1="287.78838324886476" x2="453" y2="287.78838324886476" />
    <line x1="519" y1="287.78838324886476" x2="585" y2="287.78838324886476" />
    <line x1="629" y1="287.78838324886476" x2="651" y2="287.78838324886476" />
    <line x1="376" y1="306.84094213212239" x2="420" y2="306.84094213212239" />
    <line x1="486" y1="306.84094213212239" x2="508" y2="306.84094213212239" />
    <line x1="530" y1="306.84094213212239" x2="596" y2="306.84094213212239" />
    <line x1="684" y1="306.84094213212239" x2="706" y2="306.84094213212239" />
    <line x1="387" y1="325.89350101538008" x2="409" y2="325.89350101538008" />
    <line x1="497" y1="325.89350101538008" x2="519" y2="325.89350101538008" />
    <line x1="585" y1="325.89350101538008" x2="607" y2="325.89350101538008" />
    <line x1="695" y1="325.89350101538008" x2="717" y2="325.89350101538008" />
    <line x1="420" y1="344.94605989863771" x2="442" y2="344.94605989863771" />
    <line x1="508" y1="344.94605989863771" x2="530" y2="344.94605989863771" />
    <line x1="574" y1="344.94605989863771" x2="640" y2="344.94605989863771" />
    <line x1="365" y1="363.99861878189535" x2="387" y2="363.99861878189535" />
    <line x1="409" y1="363.99861878189535" x2="431" y2="363.99861878189535" />
    <line x1="453" y1="363.99861878189535" x2="475" y2="363.99861878189535" />
    <line x1="497" y1="363.99861878189535" x2="519" y2="363.99861878189535" />
    <line x1="563" y1="363.99861878189535" x2="585" y2="363.99861878189535" />
    <line x1="607" y1="363.99861878189535" x2="629" y2="363.99861878189535" />
    <line x1="354" y1="383.05117766515303" x2="376" y2="383.05117766515303" />
    <line x1="398" y1="383.05117766515303" x2="420" y2="383.05117766515303" />
    <line x1="442" y1="383.05117766515303" x2="464" y2="383.05117766515303" />
    <line x1="486" y1="383.05117766515303" x2="508" y2="383.05117766515303" />
    <line x1="530" y1="383.05117766515303" x2="552" y2="383.05117766515303" />
    <line x1="684" y1="383.05117766515303" x2="728" y2="383.05117766515303" />
    <line x1="343" y1="402.10373654841067" x2="409" y2="402.10373654841067" />
    <line x1="431" y1="402.10373654841067" x2="453" y2="402.10373654841067" />
    <line x1="519" y1="402.10373654841067" x2="541" y2="402.10373654841067" />
    <line x1="585" y1="402.10373654841067" x2="607" y2="402.10373654841067" />
    <line x1="629" y1="402.10373654841067" x2="651" y2="402.10373654841067" />
    <line x1="717" y1="402.10373654841067" x2="739" y2="402.10373654841067" />
    <line x1="332" y1="421.1562954316683" x2="354" y2="421.1562954316683" />
    <line x1="398" y1="421.1562954316683" x2="442" y2="421.1562954316683" />
    <line x1="530" y1="421.1562954316683" x2="552" y2="421.1562954316683" />
    <line x1="596" y1="421.1562954316683" x2="640" y2="421.1562954316683" />
    <line x1="662" y1="421.1562954316683" x2="684" y2="421.1562954316683" />
    <line x1="387" y1="440.208854314926" x2="409" y2="440.208854314926" />
    <line x1="519" y1="440.208854314926" x2="541" y2="440.208854314926" />
    <line x1="585" y1="440.208854314926" x2="629" y2="440.208854314926" />
    <line x1="651" y1="440.208854314926" x2="695" y2="440.208854314926" />
    <line x1="288" y1="459.26141319818362" x2="310" y2="459.26141319818362" />
    <line x1="398" y1="459.26141319818362" x2="442" y2="459.26141319818362" />
    <line x1="464" y1="459.26141319818362" x2="530" y2="459.26141319818362" />
    <line x1="574" y1="459.26141319818362" x2="618" y2="459.26141319818362" />
    <line x1="640" y1="459.26141319818362" x2="662" y2="459.26141319818362" />
    <line x1="728" y1="459.26141319818362" x2="750" y2="459.26141319818362" />
    <line x1="772" y1="459.26141319818362" x2="794" y2="459.26141319818362" />
    <line x1="299" y1="478.31397208144125" x2="321" y2="478.31397208144125" />
    <line x1="387" y1="478.31397208144125" x2="409" y2="478.31397208144125" />
    <line x1="431" y1="478.31397208144125" x2="453" y2="478.31397208144125" />
    <line x1="475" y1="478.31397208144125" x2="519" y2="478.31397208144125" />
    <line x1="629" y1="478.31397208144125" x2="651" y2="478.31397208144125" />
    <line x1="673" y1="478.31397208144125" x2="717" y2="478.31397208144125" />
    <line x1="266" y1="497.36653096469888" x2="288" y2="497.36653096469888" />
    <line x1="310" y1="497.36653096469888" x2="376" y2="497.36653096469888" />
    <line x1="420" y1="497.36653096469888" x2="486" y2="497.36653096469888" />
    <line x1="508" y1="497.36653096469888" x2="530" y2="497.36653096469888" />
    <line x1="618" y1="497.36653096469888" x2="662" y2="497.36653096469888" />
    <line x1="684" y1="497.36653096469888" x2="728" y2="497.36653096469888" />
    <line x1="750" y1="497.36653096469888" x2="772" y2="497.36653096469888" />
    <line x1="816" y1="497.36653096469888" x2="838" y2="497.36653096469888" />
    <line x1="299" y1="516.41908984795657" x2="365" y2="516.41908984795657" />
    <line x1="453" y1="516.41908984795657" x2="475" y2="516.41908984795657" />
    <line x1="651" y1="516.41908984795657" x2="673" y2="516.41908984795657" />
    <line x1="739" y1="516.41908984795657" x2="761" y2="516.41908984795657" />
    <line x1="310" y1="535.47164873121426" x2="354" y2="535.47164873121426" />
    <line x1="420" y1="535.47164873121426" x2="442" y2="535.47164873121426" />
    <line x1="508" y1="535.47164873121426" x2="552" y2="535.47164873121426" />
    <line x1="574" y1="535.47164873121426" x2="596" y2="535.47164873121426" />
    <line x1="618" y1="535.47164873121426" x2="662" y2="535.47164873121426" />
    <line x1="838" y1="535.47164873121426" x2="860" y2="535.47164873121426" />
    <line x1="255" y1="554.52420761447183" x2="277" y2="554.52420761447183" />
    <line x1="321" y1="554.52420761447183" x2="343" y2="554.52420761447183" />
    <line x1="519" y1="554.52420761447183" x2="541" y2="554.52420761447183" />
    <line x1="563" y1="554.52420761447183" x2="585" y2="554.52420761447183" />
    <line x1="607" y1="554.52420761447183" x2="651" y2="554.52420761447183" />
    <line x1="717" y1="554.52420761447183" x2="739" y2="554.52420761447183" />
    <line x1="266" y1="573.57676649772952" x2="288" y2="573.57676649772952" />
    <line x1="376" y1="573.57676649772952" x2="398" y2="573.57676649772952" />
    <line x1="684" y1="573.57676649772952" x2="706" y2="573.57676649772952" />
    <line x1="728" y1="573.57676649772952" x2="750" y2="573.57676649772952" />
    <line x1="794" y1="573.57676649772952" x2="816" y2="573.57676649772952" />
    <line x1="343" y1="592.62932538098721" x2="387" y2="592.62932538098721" />
    <line x1="651" y1="592.62932538098721" x2="673" y2="592.62932538098721" />
    <line x1="695" y1="592.62932538098721" x2="717" y2="592.62932538098721" />
    <line x1="739" y1="592.62932538098721" x2="783" y2="592.62932538098721" />
    <line x1="266" y1="611.68188426424479" x2="288" y2="611.68188426424479" />
    <line x1="332" y1="611.68188426424479" x2="398" y2="611.68188426424479" />
    <line x1="420" y1="611.68188426424479" x2="442" y2="611.68188426424479" />
    <line x1="464" y1="611.68188426424479" x2="508" y2="611.68188426424479" />
    <line x1="618" y1="611.68188426424479" x2="640" y2="611.68188426424479" />
    <line x1="662" y1="611.68188426424479" x2="684" y2="611.68188426424479" />
    <line x1="728" y1="611.68188426424479" x2="750" y2="611.68188426424479" />
    <line x1="189" y1="630.73444314750247" x2="211" y2="630.73444314750247" />
    <line x1="277" y1="630.73444314750247" x2="299" y2="630.73444314750247" />
    <line x1="321" y1="630.73444314750247" x2="343" y2="630.73444314750247" />
    <line x1="409" y1="630.73444314750247" x2="431" y2="630.73444314750247" />
    <line x1="475" y1="630.73444314750247" x2="497" y2="630.73444314750247" />
    <line x1="629" y1="630.73444314750247" x2="651" y2="630.73444314750247" />
    <line x1="673" y1="630.73444314750247" x2="695" y2="630.73444314750247" />
    <line x1="739" y1="630.73444314750247" x2="761" y2="630.73444314750247" />
    <line x1="849" y1="630.73444314750247" x2="871" y2="630.73444314750247" />
    <line x1="178" y1="649.78700203076" x2="200" y2="649.78700203076" />
    <line x1="266" y1="649.78700203076" x2="288" y2="649.78700203076" />
    <line x1="310" y1="649.78700203076" x2="354" y2="649.78700203076" />
    <line x1="442" y1="649.78700203076" x2="464" y2="649.78700203076" />
    <line x1="618" y1="649.78700203076" x2="662" y2="649.78700203076" />
    <line x1="728" y1="649.78700203076" x2="750" y2="649.78700203076" />
    <line x1="838" y1="649.78700203076" x2="860" y2="649.78700203076" />
    <line x1="882" y1="649.78700203076" x2="904" y2="649.78700203076" />
    <line x1="189" y1="668.83956091401774" x2="233" y2="668.83956091401774" />
    <line x1="321" y1="668.83956091401774" x2="409" y2="668.83956091401774" />
    <line x1="431" y1="668.83956091401774" x2="453" y2="668.83956091401774" />
    <line x1="497" y1="668.83956091401774" x2="585" y2="668.83956091401774" />
    <line x1="607" y1="668.83956091401774" x2="651" y2="668.83956091401774" />
    <line x1="695" y1="668.83956091401774" x2="717" y2="668.83956091401774" />
    <line x1="849" y1="668.83956091401774" x2="871" y2="668.83956091401774" />
    <line x1="893" y1="668.83956091401774" x2="915" y2="668.83956091401774" />
    <line x1="178" y1="687.89211979727543" x2="244" y2="687.89211979727543" />
    <line x1="310" y1="687.89211979727543" x2="332" y2="687.89211979727543" />
    <line x1="376" y1="687.89211979727543" x2="398" y2="687.89211979727543" />
    <line x1="464" y1="687.89211979727543" x2="486" y2="687.89211979727543" />
    <line x1="552" y1="687.89211979727543" x2="574" y2="687.89211979727543" />
    <line x1="640" y1="687.89211979727543" x2="684" y2="687.89211979727543" />
    <line x1="706" y1="687.89211979727543" x2="728" y2="687.89211979727543" />
    <line x1="750" y1="687.89211979727543" x2="794" y2="687.89211979727543" />
    <line x1="838" y1="687.89211979727543" x2="860" y2="687.89211979727543" />
    <line x1="189" y1="706.944678680533" x2="233" y2="706.944678680533" />
    <line x1="453" y1="706.944678680533" x2="497" y2="706.944678680533" />
    <line x1="519" y1="706.944678680533" x2="541" y2="706.944678680533" />
    <line x1="563" y1="706.944678680533" x2="585" y2="706.944678680533" />
    <line x1="607" y1="706.944678680533" x2="629" y2="706.944678680533" />
    <line x1="651" y1="706.944678680533" x2="673" y2="706.944678680533" />
    <line x1="739" y1="706.944678680533" x2="783" y2="706.944678680533" />
    <line x1="805" y1="706.944678680533" x2="893" y2="706.944678680533" />
    <line x1="288" y1="725.99723756379069" x2="310" y2="725.99723756379069" />
    <line x1="354" y1="725.99723756379069" x2="376" y2="725.99723756379069" />
    <line x1="464" y1="725.99723756379069" x2="530" y2="725.99723756379069" />
    <line x1="574" y1="725.99723756379069" x2="596" y2="725.99723756379069" />
    <line x1="618" y1="725.99723756379069" x2="640" y2="725.99723756379069" />
    <line x1="684" y1="725.99723756379069" x2="706" y2="725.99723756379069" />
    <line x1="772" y1="725.99723756379069" x2="794" y2="725.99723756379069" />
    <line x1="816" y1="725.99723756379069" x2="838" y2="725.99723756379069" />
    <line x1="926" y1="725.99723756379069" x2="970" y2="725.99723756379069" />
    <line x1="233" y1="745.04979644704838" x2="255" y2="745.04979644704838" />
    <line x1="299" y1="745.04979644704838" x2="321" y2="745.04979644704838" />
    <line x1="475" y1="745.04979644704838" x2="541" y2="745.04979644704838" />
    <line x1="739" y1="745.04979644704838" x2="761" y2="745.04979644704838" />
    <line x1="783" y1="745.04979644704838" x2="827" y2="745.04979644704838" />
    <line x1="937" y1="745.04979644704838" x2="959" y2="745.04979644704838" />
    <line x1="156" y1="764.102355330306" x2="178" y2="764.102355330306" />
    <line x1="266" y1="764.102355330306" x2="332" y2="764.102355330306" />
    <line x1="376" y1="764.102355330306" x2="398" y2="764.102355330306" />
    <line x1="486" y1="764.102355330306" x2="530" y2="764.102355330306" />
    <line x1="596" y1="764.102355330306" x2="618" y2="764.102355330306" />
    <line x1="794" y1="764.102355330306" x2="838" y2="764.102355330306" />
    <line x1="167" y1="783.15491421356364" x2="189" y2="783.15491421356364" />
    <line x1="277" y1="783.15491421356364" x2="299" y2="783.15491421356364" />
    <line x1="321" y1="783.15491421356364" x2="365" y2="783.15491421356364" />
    <line x1="453" y1="783.15491421356364" x2="475" y2="783.15491421356364" />
    <line x1="497" y1="783.15491421356364" x2="541" y2="783.15491421356364" />
    <line x1="695" y1="783.15491421356364" x2="717" y2="783.15491421356364" />
    <line x1="761" y1="783.15491421356364" x2="783" y2="783.15491421356364" />
    <line x1="805" y1="783.15491421356364" x2="849" y2="783.15491421356364" />
    <line x1="156" y1="802.20747309682133" x2="200" y2="802.20747309682133" />
    <line x1="266" y1="802.20747309682133" x2="288" y2="802.20747309682133" />
    <line x1="310" y1="802.20747309682133" x2="376" y2="802.20747309682133" />
    <line x1="486" y1="802.20747309682133" x2="508" y2="802.20747309682133" />
    <line x1="574" y1="802.20747309682133" x2="596" y2="802.20747309682133" />
    <line x1="618" y1="802.20747309682133" x2="640" y2="802.20747309682133" />
    <line x1="706" y1="802.20747309682133" x2="728" y2="802.20747309682133" />
    <line x1="772" y1="802.20747309682133" x2="794" y2="802.20747309682133" />
    <line x1="816" y1="802.20747309682133" x2="838" y2="802.20747309682133" />
    <line x1="860" y1="802.20747309682133" x2="882" y2="802.20747309682133" />
    <line x1="904" y1="802.20747309682133" x2="926" y2="802.20747309682133" />
    <line x1="145" y1="821.26003198007891" x2="211" y2="821.26003198007891" />
    <line x1="299" y1="821.26003198007891" x2="365" y2="821.26003198007891" />
    <line x1="409" y1="821.26003198007891" x2="431" y2="821.26003198007891" />
    <line x1="497" y1="821.26003198007891" x2="519" y2="821.26003198007891" />
    <line x1="541" y1="821.26003198007891" x2="585" y2="821.26003198007891" />
    <line x1="607" y1="821.26003198007891" x2="629" y2="821.26003198007891" />
    <line x1="761" y1="821.26003198007891" x2="805" y2="821.26003198007891" />
    <line x1="871" y1="821.26003198007891" x2="893" y2="821.26003198007891" />
    <line x1="959" y1="821.26003198007891" x2="981" y2="821.26003198007891" />
    <line x1="1003" y1="821.26003198007891" x2="1025" y2="821.26003198007891" />
    <line x1="178" y1="840.3125908633366" x2="222" y2="840.3125908633366" />
    <line x1="244" y1="840.3125908633366" x2="266" y2="840.3125908633366" />
    <line x1="288" y1="840.3125908633366" x2="310" y2="840.3125908633366" />
    <line x1="332" y1="840.3125908633366" x2="354" y2="840.3125908633366" />
    <line x1="398" y1="840.3125908633366" x2="442" y2="840.3125908633366" />
    <line x1="486" y1="840.3125908633366" x2="508" y2="840.3125908633366" />
    <line x1="530" y1="840.3125908633366" x2="596" y2="840.3125908633366" />
    <line x1="662" y1="840.3125908633366" x2="706" y2="840.3125908633366" />
    <line x1="750" y1="840.3125908633366" x2="772" y2="840.3125908633366" />
    <line x1="816" y1="840.3125908633366" x2="838" y2="840.3125908633366" />
    <line x1="860" y1="840.3125908633366" x2="948" y2="840.3125908633366" />
    <line x1="1014" y1="840.3125908633366" x2="1036" y2="840.3125908633366" />
    <line x1="167" y1="859.36514974659428" x2="211" y2="859.36514974659428" />
    <line x1="233" y1="859.36514974659428" x2="277" y2="859.36514974659428" />
    <line x1="299" y1="859.36514974659428" x2="321" y2="859.36514974659428" />
    <line x1="409" y1="859.36514974659428" x2="431" y2="859.36514974659428" />
    <line x1="453" y1="859.36514974659428" x2="475" y2="859.36514974659428" />
    <line x1="541" y1="859.36514974659428" x2="607" y2="859.36514974659428" />
    <line x1="695" y1="859.36514974659428" x2="739" y2="859.36514974659428" />
    <line x1="849" y1="859.36514974659428" x2="871" y2="859.36514974659428" />
    <line x1="893" y1="859.36514974659428" x2="915" y2="859.36514974659428" />
    <line x1="1003" y1="859.36514974659428" x2="1047" y2="859.36514974659428" />
    <line x1="68" y1="878.41770862985186" x2="90" y2="878.41770862985186" />
    <line x1="112" y1="878.41770862985186" x2="134" y2="878.41770862985186" />
    <line x1="156" y1="878.41770862985186" x2="178" y2="878.41770862985186" />
    <line x1="200" y1="878.41770862985186" x2="222" y2="878.41770862985186" />
    <line x1="244" y1="878.41770862985186" x2="266" y2="878.41770862985186" />
    <line x1="376" y1="878.41770862985186" x2="398" y2="878.41770862985186" />
    <line x1="442" y1="878.41770862985186" x2="508" y2="878.41770862985186" />
    <line x1="684" y1="878.41770862985186" x2="728" y2="878.41770862985186" />
    <line x1="838" y1="878.41770862985186" x2="860" y2="878.41770862985186" />
    <line x1="1014" y1="878.41770862985186" x2="1036" y2="878.41770862985186" />
    <line x1="57" y1="897.47026751310955" x2="79" y2="897.47026751310955" />
    <line x1="211" y1="897.47026751310955" x2="233" y2="897.47026751310955" />
    <line x1="321" y1="897.47026751310955" x2="365" y2="897.47026751310955" />
    <line x1="409" y1="897.47026751310955" x2="431" y2="897.47026751310955" />
    <line x1="475" y1="897.47026751310955" x2="519" y2="897.47026751310955" />
    <line x1="585" y1="897.47026751310955" x2="607" y2="897.47026751310955" />
    <line x1="673" y1="897.47026751310955" x2="695" y2="897.47026751310955" />
    <line x1="783" y1="897.47026751310955" x2="805" y2="897.47026751310955" />
    <line x1="937" y1="897.47026751310955" x2="981" y2="897.47026751310955" />
    <line x1="134" y1="916.52282639636724" x2="156" y2="916.52282639636724" />
    <line x1="178" y1="916.52282639636724" x2="222" y2="916.52282639636724" />
    <line x1="288" y1="916.52282639636724" x2="310" y2="916.52282639636724" />
    <line x1="376" y1="916.52282639636724" x2="398" y2="916.52282639636724" />
    <line x1="508" y1="916.52282639636724" x2="574" y2="916.52282639636724" />
    <line x1="640" y1="916.52282639636724" x2="662" y2="916.52282639636724" />
    <line x1="728" y1="916.52282639636724" x2="772" y2="916.52282639636724" />
    <line x1="794" y1="916.52282639636724" x2="838" y2="916.52282639636724" />
    <line x1="926" y1="916.52282639636724" x2="970" y2="916.52282639636724" />
    <line x1="1036" y1="916.52282639636724" x2="1080" y2="916.52282639636724" />
    <line x1="123" y1="935.57538527962481" x2="145" y2="935.57538527962481" />
    <line x1="167" y1="935.57538527962481" x2="233" y2="935.57538527962481" />
    <line x1="299" y1="935.57538527962481" x2="321" y2="935.57538527962481" />
    <line x1="453" y1="935.57538527962481" x2="475" y2="935.57538527962481" />
    <line x1="651" y1="935.57538527962481" x2="673" y2="935.57538527962481" />
    <line x1="783" y1="935.57538527962481" x2="827" y2="935.57538527962481" />
    <line x1="893" y1="935.57538527962481" x2="937" y2="935.57538527962481" />
    <line x1="959" y1="935.57538527962481" x2="981" y2="935.57538527962481" />
    <line x1="1003" y1="935.57538527962481" x2="1025" y2="935.57538527962481" />
    <line x1="1047" y1="935.57538527962481" x2="1069" y2="935.57538527962481" />
    <polyline points="1102,954.6279441628825 2,954.6279441628825 13,935.57538527962481" />
    <polyline points="13,935.57538527962492 24,916.52282639636724 35,897.47026751310955" />
    <line x1="24" y1="916.52282639636724" x2="35" y2="935.57538527962492" />
    <line x1="46" y1="878.41770862985186" x2="35" y2="897.47026751310955" />
    <line x1="57" y1="859.36514974659428" x2="46" y2="878.417708629852" />
    <polyline points="57,897.47026751310955 46,916.52282639636724 57,935.57538527962492" />
    <line x1="57" y1="935.57538527962481" x2="46" y2="954.6279441628825" />
    <line x1="68" y1="840.3125908633366" x2="57" y2="859.36514974659428" />
    <line x1="68" y1="916.52282639636724" x2="57" y2="935.57538527962492" />
    <line x1="79" y1="821.26003198007891" x2="68" y2="840.3125908633366" />
    <line x1="79" y1="859.36514974659428" x2="68" y2="878.417708629852" />
    <line x1="90" y1="802.20747309682133" x2="79" y2="821.260031980079" />
    <line x1="90" y1="840.3125908633366" x2="79" y2="859.36514974659428" />
    <polyline points="79,897.47026751310955 90,916.52282639636724 79,935.57538527962492" />
    <polyline points="101,783.15491421356364 90,802.20747309682133 101,821.260031980079" />
    <line x1="90" y1="840.3125908633366" x2="101" y2="859.36514974659428" />
    <line x1="90" y1="878.41770862985186" x2="101" y2="897.47026751310955" />
    <line x1="90" y1="916.52282639636724" x2="101" y2="935.57538527962492" />
    <line x1="112" y1="764.102355330306" x2="101" y2="783.15491421356364" />
    <line x1="101" y1="821.26003198007891" x2="112" y2="840.3125908633366" />
    <line x1="101" y1="859.36514974659428" x2="112" y2="878.417708629852" />
    <line x1="101" y1="897.47026751310955" x2="112" y2="916.52282639636724" />
    <line x1="123" y1="745.04979644704838" x2="112" y2="764.10235533030607" />
    <polyline points="123,783.15491421356364 112,802.20747309682133 123,821.260031980079" />
    <line x1="112" y1="840.3125908633366" x2="123" y2="859.36514974659428" />
    <line x1="112" y1="916.52282639636724" x2="123" y2="935.57538527962492" />
    <polyline points="134,725.99723756379069 123,745.04979644704838 134,764.10235533030607" />
    <line x1="134" y1="764.102355330306" x2="123" y2="783.15491421356364" />
    <line x1="123" y1="859.36514974659428" x2="134" y2="878.417708629852" />
    <line x1="123" y1="897.47026751310955" x2="134" y2="916.52282639636724" />
    <line x1="145" y1="706.944678680533" x2="134" y2="725.99723756379069" />
    <line x1="134" y1="802.20747309682133" x2="145" y2="821.260031980079" />
    <polyline points="145,821.26003198007891 134,840.3125908633366 145,859.36514974659428" />
    <line x1="134" y1="878.41770862985186" x2="145" y2="897.47026751310955" />
    <line x1="156" y1="687.89211979727543" x2="145" y2="706.94467868053312" />
    <polyline points="156,725.99723756379069 145,745.04979644704838 156,764.10235533030607" />
    <polyline points="156,764.102355330306 145,783.15491421356364 156,802.20747309682133" />
    <polyline points="156,840.3125908633366 145,859.36514974659428 156,878.417708629852" />
    <line x1="156" y1="916.52282639636724" x2="145" y2="935.57538527962492" />
    <line x1="167" y1="668.83956091401774" x2="156" y2="687.89211979727543" />
    <line x1="167" y1="706.944678680533" x2="156" y2="725.99723756379069" />
    <line x1="167" y1="897.47026751310955" x2="156" y2="916.52282639636724" />
    <line x1="178" y1="649.78700203076" x2="167" y2="668.83956091401774" />
    <line x1="178" y1="725.99723756379069" x2="167" y2="745.04979644704838" />
    <line x1="178" y1="840.3125908633366" x2="167" y2="859.36514974659428" />
    <line x1="178" y1="878.41770862985186" x2="167" y2="897.47026751310955" />
    <line x1="178" y1="916.52282639636724" x2="167" y2="935.57538527962492" />
    <line x1="189" y1="630.73444314750247" x2="178" y2="649.78700203076016" />
    <line x1="189" y1="706.944678680533" x2="178" y2="725.99723756379069" />
    <line x1="189" y1="745.04979644704838" x2="178" y2="764.10235533030607" />
    <line x1="200" y1="611.68188426424479" x2="189" y2="630.73444314750247" />
    <line x1="200" y1="725.99723756379069" x2="189" y2="745.04979644704838" />
    <line x1="200" y1="764.102355330306" x2="189" y2="783.15491421356364" />
    <line x1="200" y1="878.41770862985186" x2="189" y2="897.47026751310955" />
    <line x1="211" y1="592.6293253809871" x2="200" y2="611.68188426424479" />
    <line x1="200" y1="725.99723756379069" x2="211" y2="745.04979644704838" />
    <polyline points="200,764.102355330306 211,783.15491421356364 200,802.20747309682133" />
    <line x1="211" y1="897.47026751310955" x2="200" y2="916.52282639636724" />
    <line x1="222" y1="573.57676649772952" x2="211" y2="592.62932538098721" />
    <line x1="211" y1="592.6293253809871" x2="222" y2="611.68188426424479" />
    <line x1="222" y1="649.78700203076" x2="211" y2="668.83956091401774" />
    <line x1="211" y1="706.944678680533" x2="222" y2="725.99723756379069" />
    <line x1="211" y1="745.04979644704838" x2="222" y2="764.10235533030607" />
    <polyline points="211,783.15491421356364 222,802.20747309682133 211,821.260031980079" />
    <line x1="233" y1="554.52420761447183" x2="222" y2="573.57676649772952" />
    <polyline points="222,611.68188426424479 233,630.73444314750247 222,649.78700203076016" />
    <line x1="222" y1="725.99723756379069" x2="233" y2="745.04979644704838" />
    <line x1="222" y1="764.102355330306" x2="233" y2="783.15491421356364" />
    <polyline points="222,840.3125908633366 233,859.36514974659428 222,878.417708629852" />
    <line x1="244" y1="535.47164873121415" x2="233" y2="554.52420761447183" />
    <line x1="244" y1="573.57676649772952" x2="233" y2="592.62932538098721" />
    <line x1="233" y1="592.6293253809871" x2="244" y2="611.68188426424479" />
    <line x1="233" y1="668.83956091401774" x2="244" y2="687.89211979727543" />
    <line x1="233" y1="706.944678680533" x2="244" y2="725.99723756379069" />
    <polyline points="244,764.102355330306 233,783.15491421356364 244,802.20747309682133 233,821.260031980079" />
    <line x1="233" y1="821.26003198007891" x2="244" y2="840.3125908633366" />
    <line x1="244" y1="878.41770862985186" x2="233" y2="897.47026751310955" />
    <line x1="244" y1="916.52282639636724" x2="233" y2="935.57538527962492" />
    <line x1="233" y1="935.57538527962481" x2="244" y2="954.6279441628825" />
    <line x1="255" y1="516.41908984795657" x2="244" y2="535.47164873121426" />
    <polyline points="255,554.52420761447183 244,573.57676649772952 255,592.62932538098721" />
    <line x1="244" y1="611.68188426424479" x2="255" y2="630.73444314750247" />
    <line x1="244" y1="649.78700203076" x2="255" y2="668.83956091401774" />
    <line x1="244" y1="687.89211979727543" x2="255" y2="706.94467868053312" />
    <line x1="266" y1="497.36653096469888" x2="255" y2="516.41908984795657" />
    <line x1="266" y1="535.47164873121415" x2="255" y2="554.52420761447183" />
    <line x1="255" y1="592.6293253809871" x2="266" y2="611.68188426424479" />
    <line x1="255" y1="630.73444314750247" x2="266" y2="649.78700203076016" />
    <polyline points="266,649.78700203076 255,668.83956091401774 266,687.89211979727543 255,706.94467868053312" />
    <line x1="255" y1="745.04979644704838" x2="266" y2="764.10235533030607" />
    <polyline points="266,764.102355330306 255,783.15491421356364 266,802.20747309682133 255,821.260031980079" />
    <polyline points="266,878.41770862985186 255,897.47026751310955 266,916.52282639636724" />
    <line x1="255" y1="935.57538527962481" x2="266" y2="954.6279441628825" />
    <line x1="277" y1="516.41908984795657" x2="266" y2="535.47164873121426" />
    <line x1="266" y1="573.57676649772952" x2="277" y2="592.62932538098721" />
    <line x1="277" y1="706.944678680533" x2="266" y2="725.99723756379069" />
    <line x1="277" y1="821.26003198007891" x2="266" y2="840.3125908633366" />
    <line x1="266" y1="916.52282639636724" x2="277" y2="935.57538527962492" />
    <line x1="288" y1="459.26141319818362" x2="277" y2="478.31397208144131" />
    <line x1="288" y1="535.47164873121415" x2="277" y2="554.52420761447183" />
    <polyline points="277,668.83956091401774 288,687.89211979727543 277,706.94467868053312" />
    <polyline points="277,706.944678680533 288,725.99723756379069 277,745.04979644704838 288,764.10235533030607" />
    <polyline points="288,840.3125908633366 277,859.36514974659428 288,878.417708629852" />
    <polyline points="288,878.41770862985186 277,897.47026751310955 288,916.52282639636724" />
    <line x1="299" y1="440.20885431492593" x2="288" y2="459.26141319818362" />
    <line x1="299" y1="478.31397208144125" x2="288" y2="497.36653096469894" />
    <line x1="288" y1="497.36653096469888" x2="299" y2="516.41908984795657" />
    <polyline points="299,554.52420761447183 288,573.57676649772952 299,592.62932538098721" />
    <line x1="299" y1="821.26003198007891" x2="288" y2="840.3125908633366" />
    <line x1="310" y1="421.1562954316683" x2="299" y2="440.208854314926" />
    <line x1="310" y1="535.47164873121415" x2="299" y2="554.52420761447183" />
    <line x1="310" y1="573.57676649772952" x2="299" y2="592.62932538098721" />
    <polyline points="299,592.6293253809871 310,611.68188426424479 299,630.73444314750247 310,649.78700203076016" />
    <polyline points="310,649.78700203076 299,668.83956091401774 310,687.89211979727543 299,706.94467868053312" />
    <polyline points="299,783.15491421356364 310,802.20747309682133 299,821.260031980079" />
    <line x1="299" y1="859.36514974659428" x2="310" y2="878.417708629852" />
    <line x1="299" y1="897.47026751310955" x2="310" y2="916.52282639636724" />
    <line x1="321" y1="402.10373654841067" x2="310" y2="421.15629543166835" />
    <line x1="321" y1="440.20885431492593" x2="310" y2="459.26141319818362" />
    <line x1="321" y1="554.52420761447183" x2="310" y2="573.57676649772952" />
    <line x1="321" y1="706.944678680533" x2="310" y2="725.99723756379069" />
    <line x1="310" y1="878.41770862985186" x2="321" y2="897.47026751310955" />
    <line x1="332" y1="383.051177665153" x2="321" y2="402.10373654841067" />
    <line x1="332" y1="459.26141319818362" x2="321" y2="478.31397208144131" />
    <line x1="332" y1="573.57676649772952" x2="321" y2="592.62932538098721" />
    <polyline points="321,592.6293253809871 332,611.68188426424479 321,630.73444314750247" />
    <line x1="332" y1="725.99723756379069" x2="321" y2="745.04979644704838" />
    <line x1="321" y1="821.26003198007891" x2="332" y2="840.3125908633366" />
    <line x1="321" y1="859.36514974659428" x2="332" y2="878.417708629852" />
    <polyline points="321,897.47026751310955 332,916.52282639636724 321,935.57538527962492" />
    <line x1="343" y1="363.99861878189535" x2="332" y2="383.05117766515303" />
    <line x1="332" y1="421.1562954316683" x2="343" y2="440.208854314926" />
    <line x1="343" y1="706.944678680533" x2="332" y2="725.99723756379069" />
    <line x1="343" y1="745.04979644704838" x2="332" y2="764.10235533030607" />
    <line x1="343" y1="935.57538527962481" x2="332" y2="954.6279441628825" />
    <line x1="354" y1="344.94605989863771" x2="343" y2="363.9986187818954" />
    <line x1="343" y1="363.99861878189535" x2="354" y2="383.05117766515303" />
    <polyline points="343,440.20885431492593 354,459.26141319818362 343,478.31397208144131" />
    <line x1="343" y1="478.31397208144125" x2="354" y2="497.36653096469894" />
    <polyline points="343,554.52420761447183 354,573.57676649772952 343,592.62932538098721" />
    <line x1="354" y1="687.89211979727543" x2="343" y2="706.94467868053312" />
    <polyline points="343,706.944678680533 354,725.99723756379069 343,745.04979644704838" />
    <line x1="354" y1="764.102355330306" x2="343" y2="783.15491421356364" />
    <line x1="343" y1="859.36514974659428" x2="354" y2="878.417708629852" />
    <line x1="354" y1="916.52282639636724" x2="343" y2="935.57538527962492" />
    <line x1="365" y1="325.89350101538" x2="354" y2="344.94605989863771" />
    <line x1="365" y1="440.20885431492593" x2="354" y2="459.26141319818362" />
    <polyline points="354,611.68188426424479 365,630.73444314750247 354,649.78700203076016" />
    <line x1="365" y1="668.83956091401774" x2="354" y2="687.89211979727543" />
    <polyline points="354,840.3125908633366 365,859.36514974659428 354,878.417708629852" />
    <line x1="365" y1="935.57538527962481" x2="354" y2="954.6279441628825" />
    <line x1="376" y1="306.84094213212239" x2="365" y2="325.89350101538008" />
    <line x1="365" y1="325.89350101538" x2="376" y2="344.94605989863771" />
    <line x1="365" y1="402.10373654841067" x2="376" y2="421.15629543166835" />
    <line x1="376" y1="421.1562954316683" x2="365" y2="440.208854314926" />
    <line x1="376" y1="459.26141319818362" x2="365" y2="478.31397208144131" />
    <line x1="365" y1="516.41908984795657" x2="376" y2="535.47164873121426" />
    <polyline points="376,535.47164873121415 365,554.52420761447183 376,573.57676649772952" />
    <line x1="376" y1="687.89211979727543" x2="365" y2="706.94467868053312" />
    <polyline points="376,725.99723756379069 365,745.04979644704838 376,764.10235533030607" />
    <line x1="376" y1="764.102355330306" x2="365" y2="783.15491421356364" />
    <polyline points="376,878.41770862985186 365,897.47026751310955 376,916.52282639636724" />
    <line x1="387" y1="287.78838324886476" x2="376" y2="306.84094213212245" />
    <line x1="387" y1="363.99861878189535" x2="376" y2="383.05117766515303" />
    <line x1="387" y1="440.20885431492593" x2="376" y2="459.26141319818362" />
    <line x1="387" y1="478.31397208144125" x2="376" y2="497.36653096469894" />
    <polyline points="376,497.36653096469888 387,516.41908984795657 376,535.47164873121426" />
    <line x1="387" y1="630.73444314750247" x2="376" y2="649.78700203076016" />
    <line x1="376" y1="649.78700203076" x2="387" y2="668.83956091401774" />
    <line x1="387" y1="706.944678680533" x2="376" y2="725.99723756379069" />
    <line x1="387" y1="783.15491421356364" x2="376" y2="802.20747309682133" />
    <line x1="387" y1="821.26003198007891" x2="376" y2="840.3125908633366" />
    <line x1="387" y1="859.36514974659428" x2="376" y2="878.417708629852" />
    <line x1="387" y1="935.57538527962481" x2="376" y2="954.6279441628825" />
    <line x1="398" y1="268.73582436560707" x2="387" y2="287.78838324886476" />
    <line x1="387" y1="325.89350101538" x2="398" y2="344.94605989863771" />
    <line x1="398" y1="459.26141319818362" x2="387" y2="478.31397208144131" />
    <line x1="398" y1="535.47164873121415" x2="387" y2="554.52420761447183" />
    <line x1="398" y1="573.57676649772952" x2="387" y2="592.62932538098721" />
    <line x1="398" y1="725.99723756379069" x2="387" y2="745.04979644704838" />
    <polyline points="387,783.15491421356364 398,802.20747309682133 387,821.260031980079" />
    <line x1="387" y1="821.26003198007891" x2="398" y2="840.3125908633366" />
    <line x1="387" y1="897.47026751310955" x2="398" y2="916.52282639636724" />
    <line x1="409" y1="249.68326548234947" x2="398" y2="268.73582436560713" />
    <line x1="409" y1="287.78838324886476" x2="398" y2="306.84094213212245" />
    <line x1="398" y1="344.94605989863771" x2="409" y2="363.9986187818954" />
    <line x1="409" y1="363.99861878189535" x2="398" y2="383.05117766515303" />
    <polyline points="398,497.36653096469888 409,516.41908984795657 398,535.47164873121426" />
    <line x1="409" y1="554.52420761447183" x2="398" y2="573.57676649772952" />
    <polyline points="409,592.6293253809871 398,611.68188426424479 409,630.73444314750247 398,649.78700203076016" />
    <line x1="398" y1="649.78700203076" x2="409" y2="668.83956091401774" />
    <line x1="398" y1="687.89211979727543" x2="409" y2="706.94467868053312" />
    <polyline points="409,706.944678680533 398,725.99723756379069 409,745.04979644704838 398,764.10235533030607" />
    <line x1="398" y1="764.102355330306" x2="409" y2="783.15491421356364" />
    <line x1="398" y1="878.41770862985186" x2="409" y2="897.47026751310955" />
    <line x1="398" y1="916.52282639636724" x2="409" y2="935.57538527962492" />
    <line x1="420" y1="230.63070659909184" x2="409" y2="249.68326548234947" />
    <line x1="420" y1="421.1562954316683" x2="409" y2="440.208854314926" />
    <line x1="409" y1="478.31397208144125" x2="420" y2="497.36653096469894" />
    <line x1="409" y1="516.41908984795657" x2="420" y2="535.47164873121426" />
    <line x1="420" y1="535.47164873121415" x2="409" y2="554.52420761447183" />
    <line x1="420" y1="573.57676649772952" x2="409" y2="592.62932538098721" />
    <line x1="409" y1="745.04979644704838" x2="420" y2="764.10235533030607" />
    <line x1="409" y1="783.15491421356364" x2="420" y2="802.20747309682133" />
    <line x1="409" y1="859.36514974659428" x2="420" y2="878.417708629852" />
    <line x1="409" y1="897.47026751310955" x2="420" y2="916.52282639636724" />
    <line x1="431" y1="211.57814771583418" x2="420" y2="230.63070659909181" />
    <line x1="420" y1="306.84094213212239" x2="431" y2="325.89350101538008" />
    <line x1="431" y1="325.89350101538" x2="420" y2="344.94605989863771" />
    <line x1="420" y1="383.051177665153" x2="431" y2="402.10373654841067" />
    <line x1="431" y1="440.20885431492593" x2="420" y2="459.26141319818362" />
    <line x1="420" y1="497.36653096469888" x2="431" y2="516.41908984795657" />
    <line x1="431" y1="554.52420761447183" x2="420" y2="573.57676649772952" />
    <line x1="431" y1="592.6293253809871" x2="420" y2="611.68188426424479" />
    <polyline points="420,649.78700203076 431,668.83956091401774 420,687.89211979727543 431,706.94467868053312" />
    <polyline points="431,706.944678680533 420,725.99723756379069 431,745.04979644704838" />
    <line x1="431" y1="935.57538527962481" x2="420" y2="954.6279441628825" />
    <line x1="442" y1="192.52558883257652" x2="431" y2="211.57814771583415" />
    <line x1="431" y1="249.68326548234947" x2="442" y2="268.73582436560713" />
    <line x1="431" y1="287.78838324886476" x2="442" y2="306.84094213212245" />
    <line x1="442" y1="421.1562954316683" x2="431" y2="440.208854314926" />
    <line x1="442" y1="573.57676649772952" x2="431" y2="592.62932538098721" />
    <line x1="431" y1="630.73444314750247" x2="442" y2="649.78700203076016" />
    <polyline points="442,725.99723756379069 431,745.04979644704838 442,764.10235533030607" />
    <polyline points="442,764.102355330306 431,783.15491421356364 442,802.20747309682133 431,821.260031980079" />
    <line x1="431" y1="859.36514974659428" x2="442" y2="878.417708629852" />
    <line x1="442" y1="878.41770862985186" x2="431" y2="897.47026751310955" />
    <line x1="453" y1="173.47302994931889" x2="442" y2="192.52558883257652" />
    <line x1="442" y1="230.63070659909184" x2="453" y2="249.68326548234947" />
    <line x1="442" y1="344.94605989863771" x2="453" y2="363.9986187818954" />
    <line x1="453" y1="516.41908984795657" x2="442" y2="535.47164873121426" />
    <polyline points="442,535.47164873121415 453,554.52420761447183 442,573.57676649772952 453,592.62932538098721" />
    <line x1="442" y1="611.68188426424479" x2="453" y2="630.73444314750247" />
    <line x1="442" y1="687.89211979727543" x2="453" y2="706.94467868053312" />
    <line x1="453" y1="706.944678680533" x2="442" y2="725.99723756379069" />
    <polyline points="453,821.26003198007891 442,840.3125908633366 453,859.36514974659428" />
    <polyline points="453,897.47026751310955 442,916.52282639636724 453,935.57538527962492" />
    <line x1="464" y1="154.42047106606123" x2="453" y2="173.47302994931886" />
    <line x1="464" y1="306.84094213212239" x2="453" y2="325.89350101538008" />
    <line x1="453" y1="325.89350101538" x2="464" y2="344.94605989863771" />
    <polyline points="464,383.051177665153 453,402.10373654841067 464,421.15629543166835" />
    <line x1="464" y1="421.1562954316683" x2="453" y2="440.208854314926" />
    <line x1="464" y1="459.26141319818362" x2="453" y2="478.31397208144131" />
    <line x1="464" y1="611.68188426424479" x2="453" y2="630.73444314750247" />
    <line x1="453" y1="668.83956091401774" x2="464" y2="687.89211979727543" />
    <polyline points="464,725.99723756379069 453,745.04979644704838 464,764.10235533030607" />
    <line x1="464" y1="764.102355330306" x2="453" y2="783.15491421356364" />
    <line x1="453" y1="821.26003198007891" x2="464" y2="840.3125908633366" />
    <line x1="464" y1="878.41770862985186" x2="453" y2="897.47026751310955" />
    <line x1="475" y1="135.36791218280357" x2="464" y2="154.4204710660612" />
    <polyline points="475,173.47302994931889 464,192.52558883257652 475,211.57814771583415" />
    <polyline points="464,230.63070659909184 475,249.68326548234947 464,268.73582436560713" />
    <line x1="464" y1="268.73582436560707" x2="475" y2="287.78838324886476" />
    <line x1="464" y1="344.94605989863771" x2="475" y2="363.9986187818954" />
    <line x1="475" y1="402.10373654841067" x2="464" y2="421.15629543166835" />
    <line x1="475" y1="478.31397208144125" x2="464" y2="497.36653096469894" />
    <polyline points="464,535.47164873121415 475,554.52420761447183 464,573.57676649772952 475,592.62932538098721" />
    <line x1="475" y1="592.6293253809871" x2="464" y2="611.68188426424479" />
    <line x1="464" y1="649.78700203076" x2="475" y2="668.83956091401774" />
    <line x1="475" y1="745.04979644704838" x2="464" y2="764.10235533030607" />
    <line x1="464" y1="802.20747309682133" x2="475" y2="821.260031980079" />
    <line x1="475" y1="897.47026751310955" x2="464" y2="916.52282639636724" />
    <line x1="486" y1="116.31535329954592" x2="475" y2="135.36791218280357" />
    <line x1="486" y1="154.42047106606123" x2="475" y2="173.47302994931886" />
    <line x1="475" y1="211.57814771583418" x2="486" y2="230.63070659909181" />
    <line x1="475" y1="287.78838324886476" x2="486" y2="306.84094213212245" />
    <line x1="486" y1="306.84094213212239" x2="475" y2="325.89350101538008" />
    <line x1="475" y1="325.89350101538" x2="486" y2="344.94605989863771" />
    <line x1="475" y1="363.99861878189535" x2="486" y2="383.05117766515303" />
    <line x1="486" y1="383.051177665153" x2="475" y2="402.10373654841067" />
    <line x1="486" y1="421.1562954316683" x2="475" y2="440.208854314926" />
    <line x1="475" y1="516.41908984795657" x2="486" y2="535.47164873121426" />
    <line x1="486" y1="649.78700203076" x2="475" y2="668.83956091401774" />
    <line x1="486" y1="764.102355330306" x2="475" y2="783.15491421356364" />
    <line x1="475" y1="821.26003198007891" x2="486" y2="840.3125908633366" />
    <line x1="475" y1="859.36514974659428" x2="486" y2="878.417708629852" />
    <line x1="475" y1="935.57538527962481" x2="486" y2="954.6279441628825" />
    <line x1="497" y1="97.262794416288258" x2="486" y2="116.31535329954592" />
    <line x1="486" y1="230.63070659909184" x2="497" y2="249.68326548234947" />
    <line x1="486" y1="268.73582436560707" x2="497" y2="287.78838324886476" />
    <line x1="497" y1="402.10373654841067" x2="486" y2="421.15629543166835" />
    <line x1="497" y1="440.20885431492593" x2="486" y2="459.26141319818362" />
    <line x1="486" y1="497.36653096469888" x2="497" y2="516.41908984795657" />
    <line x1="486" y1="535.47164873121415" x2="497" y2="554.52420761447183" />
    <line x1="486" y1="573.57676649772952" x2="497" y2="592.62932538098721" />
    <line x1="497" y1="592.6293253809871" x2="486" y2="611.68188426424479" />
    <line x1="497" y1="630.73444314750247" x2="486" y2="649.78700203076016" />
    <line x1="497" y1="668.83956091401774" x2="486" y2="687.89211979727543" />
    <line x1="486" y1="802.20747309682133" x2="497" y2="821.260031980079" />
    <polyline points="497,897.47026751310955 486,916.52282639636724 497,935.57538527962492" />
    <line x1="508" y1="78.210235533030612" x2="497" y2="97.262794416288273" />
    <polyline points="497,97.262794416288258 508,116.31535329954592 497,135.36791218280357" />
    <line x1="497" y1="249.68326548234947" x2="508" y2="268.73582436560713" />
    <line x1="497" y1="287.78838324886476" x2="508" y2="306.84094213212245" />
    <line x1="497" y1="325.89350101538" x2="508" y2="344.94605989863771" />
    <line x1="497" y1="402.10373654841067" x2="508" y2="421.15629543166835" />
    <line x1="508" y1="649.78700203076" x2="497" y2="668.83956091401774" />
    <line x1="508" y1="687.89211979727543" x2="497" y2="706.94467868053312" />
    <polyline points="508,840.3125908633366 497,859.36514974659428 508,878.417708629852" />
    <line x1="519" y1="59.157676649772974" x2="508" y2="78.210235533030627" />
    <line x1="519" y1="135.36791218280357" x2="508" y2="154.4204710660612" />
    <line x1="519" y1="173.47302994931889" x2="508" y2="192.52558883257652" />
    <line x1="508" y1="230.63070659909184" x2="519" y2="249.68326548234947" />
    <line x1="508" y1="268.73582436560707" x2="519" y2="287.78838324886476" />
    <line x1="508" y1="383.051177665153" x2="519" y2="402.10373654841067" />
    <line x1="508" y1="421.1562954316683" x2="519" y2="440.208854314926" />
    <line x1="508" y1="497.36653096469888" x2="519" y2="516.41908984795657" />
    <polyline points="519,554.52420761447183 508,573.57676649772952 519,592.62932538098721" />
    <line x1="519" y1="592.6293253809871" x2="508" y2="611.68188426424479" />
    <line x1="519" y1="630.73444314750247" x2="508" y2="649.78700203076016" />
    <line x1="519" y1="935.57538527962481" x2="508" y2="954.6279441628825" />
    <line x1="530" y1="40.10511776651532" x2="519" y2="59.157676649772966" />
    <polyline points="519,97.262794416288258 530,116.31535329954592 519,135.36791218280357 530,154.4204710660612" />
    <line x1="530" y1="154.42047106606123" x2="519" y2="173.47302994931886" />
    <line x1="530" y1="192.52558883257652" x2="519" y2="211.57814771583415" />
    <line x1="519" y1="211.57814771583418" x2="530" y2="230.63070659909181" />
    <line x1="519" y1="249.68326548234947" x2="530" y2="268.73582436560713" />
    <line x1="530" y1="306.84094213212239" x2="519" y2="325.89350101538008" />
    <line x1="519" y1="363.99861878189535" x2="530" y2="383.05117766515303" />
    <line x1="519" y1="516.41908984795657" x2="530" y2="535.47164873121426" />
    <line x1="530" y1="611.68188426424479" x2="519" y2="630.73444314750247" />
    <line x1="530" y1="687.89211979727543" x2="519" y2="706.94467868053312" />
    <polyline points="519,821.26003198007891 530,840.3125908633366 519,859.36514974659428 530,878.417708629852" />
    <line x1="530" y1="878.41770862985186" x2="519" y2="897.47026751310955" />
    <line x1="541" y1="21.052558883257667" x2="530" y2="40.10511776651532" />
    <line x1="541" y1="325.89350101538" x2="530" y2="344.94605989863771" />
    <line x1="530" y1="459.26141319818362" x2="541" y2="478.31397208144131" />
    <line x1="541" y1="478.31397208144125" x2="530" y2="497.36653096469894" />
    <line x1="530" y1="497.36653096469888" x2="541" y2="516.41908984795657" />
    <line x1="530" y1="573.57676649772952" x2="541" y2="592.62932538098721" />
    <line x1="541" y1="592.6293253809871" x2="530" y2="611.68188426424479" />
    <line x1="530" y1="802.20747309682133" x2="541" y2="821.260031980079" />
    <line x1="541" y1="897.47026751310955" x2="530" y2="916.52282639636724" />
    <line x1="541" y1="935.57538527962481" x2="530" y2="954.6279441628825" />
    <line x1="552" y1="2.0000000000000195" x2="541" y2="21.052558883257667" />
    <line x1="552" y1="40.10511776651532" x2="541" y2="59.157676649772966" />
    <polyline points="541,97.262794416288258 552,116.31535329954592 541,135.36791218280357 552,154.4204710660612" />
    <line x1="552" y1="192.52558883257652" x2="541" y2="211.57814771583415" />
    <line x1="552" y1="268.73582436560707" x2="541" y2="287.78838324886476" />
    <polyline points="541,325.89350101538 552,344.94605989863771 541,363.9986187818954" />
    <line x1="552" y1="383.051177665153" x2="541" y2="402.10373654841067" />
    <polyline points="541,440.20885431492593 552,459.26141319818362 541,478.31397208144131" />
    <line x1="552" y1="573.57676649772952" x2="541" y2="592.62932538098721" />
    <line x1="541" y1="706.944678680533" x2="552" y2="725.99723756379069" />
    <line x1="541" y1="745.04979644704838" x2="552" y2="764.10235533030607" />
    <polyline points="552,764.102355330306 541,783.15491421356364 552,802.20747309682133" />
    <line x1="541" y1="859.36514974659428" x2="552" y2="878.417708629852" />
    <line x1="552" y1="878.41770862985186" x2="541" y2="897.47026751310955" />
    <line x1="552" y1="2.0000000000000195" x2="563" y2="21.052558883257667" />
    <line x1="563" y1="59.157676649772974" x2="552" y2="78.210235533030627" />
    <line x1="563" y1="135.36791218280357" x2="552" y2="154.4204710660612" />
    <line x1="563" y1="249.68326548234947" x2="552" y2="268.73582436560713" />
    <line x1="563" y1="402.10373654841067" x2="552" y2="421.15629543166835" />
    <line x1="552" y1="421.1562954316683" x2="563" y2="440.208854314926" />
    <line x1="563" y1="478.31397208144125" x2="552" y2="497.36653096469894" />
    <polyline points="552,497.36653096469888 563,516.41908984795657 552,535.47164873121426" />
    <polyline points="552,535.47164873121415 563,554.52420761447183 552,573.57676649772952 563,592.62932538098721" />
    <polyline points="563,706.944678680533 552,725.99723756379069 563,745.04979644704838" />
    <polyline points="563,783.15491421356364 552,802.20747309682133 563,821.260031980079" />
    <line x1="552" y1="916.52282639636724" x2="563" y2="935.57538527962492" />
    <line x1="563" y1="935.57538527962481" x2="552" y2="954.6279441628825" />
    <line x1="563" y1="21.052558883257667" x2="574" y2="40.10511776651532" />
    <line x1="574" y1="78.210235533030612" x2="563" y2="97.262794416288273" />
    <line x1="574" y1="116.31535329954592" x2="563" y2="135.36791218280357" />
    <line x1="574" y1="154.42047106606123" x2="563" y2="173.47302994931886" />
    <line x1="574" y1="306.84094213212239" x2="563" y2="325.89350101538008" />
    <line x1="563" y1="325.89350101538" x2="574" y2="344.94605989863771" />
    <line x1="574" y1="383.051177665153" x2="563" y2="402.10373654841067" />
    <line x1="563" y1="440.20885431492593" x2="574" y2="459.26141319818362" />
    <line x1="563" y1="516.41908984795657" x2="574" y2="535.47164873121426" />
    <line x1="563" y1="592.6293253809871" x2="574" y2="611.68188426424479" />
    <line x1="563" y1="745.04979644704838" x2="574" y2="764.10235533030607" />
    <line x1="574" y1="764.102355330306" x2="563" y2="783.15491421356364" />
    <line x1="563" y1="859.36514974659428" x2="574" y2="878.417708629852" />
    <line x1="574" y1="878.41770862985186" x2="563" y2="897.47026751310955" />
    <line x1="574" y1="40.10511776651532" x2="585" y2="59.157676649772966" />
    <line x1="574" y1="78.210235533030612" x2="585" y2="97.262794416288273" />
    <line x1="585" y1="97.262794416288258" x2="574" y2="116.31535329954592" />
    <line x1="574" y1="192.52558883257652" x2="585" y2="211.57814771583415" />
    <line x1="585" y1="363.99861878189535" x2="574" y2="383.05117766515303" />
    <line x1="585" y1="402.10373654841067" x2="574" y2="421.15629543166835" />
    <line x1="574" y1="421.1562954316683" x2="585" y2="440.208854314926" />
    <line x1="574" y1="459.26141319818362" x2="585" y2="478.31397208144131" />
    <line x1="574" y1="497.36653096469888" x2="585" y2="516.41908984795657" />
    <line x1="574" y1="573.57676649772952" x2="585" y2="592.62932538098721" />
    <line x1="574" y1="611.68188426424479" x2="585" y2="630.73444314750247" />
    <polyline points="585,668.83956091401774 574,687.89211979727543 585,706.94467868053312" />
    <line x1="574" y1="725.99723756379069" x2="585" y2="745.04979644704838" />
    <line x1="585" y1="783.15491421356364" x2="574" y2="802.20747309682133" />
    <line x1="585" y1="897.47026751310955" x2="574" y2="916.52282639636724" />
    <line x1="585" y1="935.57538527962481" x2="574" y2="954.6279441628825" />
    <line x1="585" y1="59.157676649772974" x2="596" y2="78.210235533030627" />
    <line x1="596" y1="192.52558883257652" x2="585" y2="211.57814771583415" />
    <line x1="585" y1="211.57814771583418" x2="596" y2="230.63070659909181" />
    <line x1="585" y1="287.78838324886476" x2="596" y2="306.84094213212245" />
    <line x1="596" y1="344.94605989863771" x2="585" y2="363.9986187818954" />
    <line x1="585" y1="478.31397208144125" x2="596" y2="497.36653096469894" />
    <line x1="596" y1="497.36653096469888" x2="585" y2="516.41908984795657" />
    <line x1="585" y1="592.6293253809871" x2="596" y2="611.68188426424479" />
    <line x1="585" y1="630.73444314750247" x2="596" y2="649.78700203076016" />
    <line x1="585" y1="745.04979644704838" x2="596" y2="764.10235533030607" />
    <line x1="596" y1="764.102355330306" x2="585" y2="783.15491421356364" />
    <line x1="585" y1="821.26003198007891" x2="596" y2="840.3125908633366" />
    <line x1="596" y1="878.41770862985186" x2="585" y2="897.47026751310955" />
    <line x1="596" y1="916.52282639636724" x2="585" y2="935.57538527962492" />
    <line x1="596" y1="78.210235533030612" x2="607" y2="97.262794416288273" />
    <line x1="607" y1="173.47302994931889" x2="596" y2="192.52558883257652" />
    <line x1="607" y1="211.57814771583418" x2="596" y2="230.63070659909181" />
    <line x1="607" y1="249.68326548234947" x2="596" y2="268.73582436560713" />
    <line x1="607" y1="363.99861878189535" x2="596" y2="383.05117766515303" />
    <line x1="596" y1="383.051177665153" x2="607" y2="402.10373654841067" />
    <line x1="596" y1="535.47164873121415" x2="607" y2="554.52420761447183" />
    <line x1="596" y1="573.57676649772952" x2="607" y2="592.62932538098721" />
    <line x1="596" y1="611.68188426424479" x2="607" y2="630.73444314750247" />
    <polyline points="596,649.78700203076 607,668.83956091401774 596,687.89211979727543 607,706.94467868053312" />
    <polyline points="607,706.944678680533 596,725.99723756379069 607,745.04979644704838" />
    <polyline points="607,783.15491421356364 596,802.20747309682133 607,821.260031980079" />
    <polyline points="607,97.262794416288258 618,116.31535329954592 607,135.36791218280357" />
    <line x1="618" y1="154.42047106606123" x2="607" y2="173.47302994931886" />
    <line x1="618" y1="192.52558883257652" x2="607" y2="211.57814771583415" />
    <line x1="618" y1="268.73582436560707" x2="607" y2="287.78838324886476" />
    <line x1="618" y1="306.84094213212239" x2="607" y2="325.89350101538008" />
    <line x1="607" y1="478.31397208144125" x2="618" y2="497.36653096469894" />
    <line x1="618" y1="497.36653096469888" x2="607" y2="516.41908984795657" />
    <line x1="607" y1="554.52420761447183" x2="618" y2="573.57676649772952" />
    <polyline points="607,592.6293253809871 618,611.68188426424479 607,630.73444314750247 618,649.78700203076016" />
    <line x1="618" y1="725.99723756379069" x2="607" y2="745.04979644704838" />
    <polyline points="607,821.26003198007891 618,840.3125908633366 607,859.36514974659428" />
    <polyline points="607,897.47026751310955 618,916.52282639636724 607,935.57538527962492" />
    <line x1="618" y1="116.31535329954592" x2="629" y2="135.36791218280357" />
    <line x1="629" y1="173.47302994931889" x2="618" y2="192.52558883257652" />
    <line x1="618" y1="230.63070659909184" x2="629" y2="249.68326548234947" />
    <line x1="629" y1="287.78838324886476" x2="618" y2="306.84094213212245" />
    <line x1="629" y1="363.99861878189535" x2="618" y2="383.05117766515303" />
    <line x1="618" y1="383.051177665153" x2="629" y2="402.10373654841067" />
    <line x1="618" y1="459.26141319818362" x2="629" y2="478.31397208144131" />
    <line x1="618" y1="573.57676649772952" x2="629" y2="592.62932538098721" />
    <line x1="629" y1="668.83956091401774" x2="618" y2="687.89211979727543" />
    <line x1="629" y1="745.04979644704838" x2="618" y2="764.10235533030607" />
    <line x1="618" y1="764.102355330306" x2="629" y2="783.15491421356364" />
    <line x1="629" y1="859.36514974659428" x2="618" y2="878.417708629852" />
    <line x1="618" y1="878.41770862985186" x2="629" y2="897.47026751310955" />
    <line x1="618" y1="916.52282639636724" x2="629" y2="935.57538527962492" />
    <line x1="629" y1="135.36791218280357" x2="640" y2="154.4204710660612" />
    <line x1="640" y1="192.52558883257652" x2="629" y2="211.57814771583415" />
    <line x1="629" y1="211.57814771583418" x2="640" y2="230.63070659909181" />
    <line x1="640" y1="306.84094213212239" x2="629" y2="325.89350101538008" />
    <line x1="629" y1="440.20885431492593" x2="640" y2="459.26141319818362" />
    <polyline points="640,497.36653096469888 629,516.41908984795657 640,535.47164873121426" />
    <line x1="629" y1="554.52420761447183" x2="640" y2="573.57676649772952" />
    <line x1="640" y1="687.89211979727543" x2="629" y2="706.94467868053312" />
    <line x1="640" y1="802.20747309682133" x2="629" y2="821.260031980079" />
    <polyline points="629,821.26003198007891 640,840.3125908633366 629,859.36514974659428" />
    <polyline points="640,878.41770862985186 629,897.47026751310955 640,916.52282639636724" />
    <line x1="640" y1="154.42047106606123" x2="651" y2="173.47302994931886" />
    <line x1="640" y1="192.52558883257652" x2="651" y2="211.57814771583415" />
    <polyline points="640,230.63070659909184 651,249.68326548234947 640,268.73582436560713" />
    <line x1="640" y1="306.84094213212239" x2="651" y2="325.89350101538008" />
    <polyline points="651,325.89350101538 640,344.94605989863771 651,363.9986187818954" />
    <line x1="651" y1="363.99861878189535" x2="640" y2="383.05117766515303" />
    <line x1="640" y1="421.1562954316683" x2="651" y2="440.208854314926" />
    <line x1="651" y1="592.6293253809871" x2="640" y2="611.68188426424479" />
    <line x1="640" y1="725.99723756379069" x2="651" y2="745.04979644704838" />
    <line x1="640" y1="764.102355330306" x2="651" y2="783.15491421356364" />
    <line x1="640" y1="840.3125908633366" x2="651" y2="859.36514974659428" />
    <line x1="651" y1="173.47302994931889" x2="662" y2="192.52558883257652" />
    <polyline points="662,268.73582436560707 651,287.78838324886476 662,306.84094213212245" />
    <line x1="662" y1="383.051177665153" x2="651" y2="402.10373654841067" />
    <line x1="651" y1="554.52420761447183" x2="662" y2="573.57676649772952" />
    <line x1="662" y1="611.68188426424479" x2="651" y2="630.73444314750247" />
    <line x1="651" y1="706.944678680533" x2="662" y2="725.99723756379069" />
    <line x1="651" y1="745.04979644704838" x2="662" y2="764.10235533030607" />
    <polyline points="651,783.15491421356364 662,802.20747309682133 651,821.260031980079" />
    <line x1="651" y1="821.26003198007891" x2="662" y2="840.3125908633366" />
    <line x1="651" y1="859.36514974659428" x2="662" y2="878.417708629852" />
    <line x1="662" y1="878.41770862985186" x2="651" y2="897.47026751310955" />
    <line x1="662" y1="192.52558883257652" x2="673" y2="211.57814771583415" />
    <line x1="662" y1="230.63070659909184" x2="673" y2="249.68326548234947" />
    <line x1="662" y1="306.84094213212239" x2="673" y2="325.89350101538008" />
    <polyline points="673,325.89350101538 662,344.94605989863771 673,363.9986187818954" />
    <line x1="673" y1="363.99861878189535" x2="662" y2="383.05117766515303" />
    <line x1="673" y1="402.10373654841067" x2="662" y2="421.15629543166835" />
    <line x1="662" y1="459.26141319818362" x2="673" y2="478.31397208144131" />
    <line x1="673" y1="478.31397208144125" x2="662" y2="497.36653096469894" />
    <line x1="662" y1="535.47164873121415" x2="673" y2="554.52420761447183" />
    <line x1="662" y1="573.57676649772952" x2="673" y2="592.62932538098721" />
    <line x1="673" y1="630.73444314750247" x2="662" y2="649.78700203076016" />
    <line x1="673" y1="668.83956091401774" x2="662" y2="687.89211979727543" />
    <line x1="673" y1="783.15491421356364" x2="662" y2="802.20747309682133" />
    <line x1="662" y1="878.41770862985186" x2="673" y2="897.47026751310955" />
    <line x1="673" y1="211.57814771583418" x2="684" y2="230.63070659909181" />
    <line x1="673" y1="249.68326548234947" x2="684" y2="268.73582436560713" />
    <line x1="684" y1="268.73582436560707" x2="673" y2="287.78838324886476" />
    <line x1="684" y1="306.84094213212239" x2="673" y2="325.89350101538008" />
    <line x1="673" y1="325.89350101538" x2="684" y2="344.94605989863771" />
    <line x1="673" y1="363.99861878189535" x2="684" y2="383.05117766515303" />
    <line x1="673" y1="440.20885431492593" x2="684" y2="459.26141319818362" />
    <polyline points="684,497.36653096469888 673,516.41908984795657 684,535.47164873121426" />
    <line x1="673" y1="554.52420761447183" x2="684" y2="573.57676649772952" />
    <line x1="684" y1="649.78700203076" x2="673" y2="668.83956091401774" />
    <line x1="673" y1="706.944678680533" x2="684" y2="725.99723756379069" />
    <line x1="673" y1="745.04979644704838" x2="684" y2="764.10235533030607" />
    <line x1="684" y1="764.102355330306" x2="673" y2="783.15491421356364" />
    <line x1="684" y1="802.20747309682133" x2="673" y2="821.260031980079" />
    <line x1="673" y1="821.26003198007891" x2="684" y2="840.3125908633366" />
    <line x1="673" y1="859.36514974659428" x2="684" y2="878.417708629852" />
    <line x1="684" y1="916.52282639636724" x2="673" y2="935.57538527962492" />
    <line x1="673" y1="935.57538527962481" x2="684" y2="954.6279441628825" />
    <line x1="684" y1="230.63070659909184" x2="695" y2="249.68326548234947" />
    <line x1="695" y1="402.10373654841067" x2="684" y2="421.15629543166835" />
    <line x1="695" y1="516.41908984795657" x2="684" y2="535.47164873121426" />
    <line x1="684" y1="535.47164873121415" x2="695" y2="554.52420761447183" />
    <line x1="684" y1="573.57676649772952" x2="695" y2="592.62932538098721" />
    <line x1="695" y1="592.6293253809871" x2="684" y2="611.68188426424479" />
    <polyline points="695,668.83956091401774 684,687.89211979727543 695,706.94467868053312" />
    <line x1="684" y1="764.102355330306" x2="695" y2="783.15491421356364" />
    <line x1="684" y1="840.3125908633366" x2="695" y2="859.36514974659428" />
    <line x1="695" y1="249.68326548234947" x2="706" y2="268.73582436560713" />
    <line x1="695" y1="287.78838324886476" x2="706" y2="306.84094213212245" />
    <line x1="706" y1="344.94605989863771" x2="695" y2="363.9986187818954" />
    <line x1="706" y1="383.051177665153" x2="695" y2="402.10373654841067" />
    <line x1="706" y1="421.1562954316683" x2="695" y2="440.208854314926" />
    <line x1="695" y1="440.20885431492593" x2="706" y2="459.26141319818362" />
    <polyline points="706,611.68188426424479 695,630.73444314750247 706,649.78700203076016" />
    <line x1="706" y1="687.89211979727543" x2="695" y2="706.94467868053312" />
    <polyline points="706,725.99723756379069 695,745.04979644704838 706,764.10235533030607" />
    <line x1="706" y1="802.20747309682133" x2="695" y2="821.260031980079" />
    <polyline points="706,878.41770862985186 695,897.47026751310955 706,916.52282639636724 695,935.57538527962492" />
    <line x1="706" y1="268.73582436560707" x2="717" y2="287.78838324886476" />
    <line x1="717" y1="325.89350101538" x2="706" y2="344.94605989863771" />
    <line x1="717" y1="363.99861878189535" x2="706" y2="383.05117766515303" />
    <line x1="717" y1="402.10373654841067" x2="706" y2="421.15629543166835" />
    <line x1="706" y1="497.36653096469888" x2="717" y2="516.41908984795657" />
    <polyline points="706,535.47164873121415 717,554.52420761447183 706,573.57676649772952" />
    <line x1="717" y1="706.944678680533" x2="706" y2="725.99723756379069" />
    <line x1="717" y1="745.04979644704838" x2="706" y2="764.10235533030607" />
    <line x1="717" y1="821.26003198007891" x2="706" y2="840.3125908633366" />
    <line x1="717" y1="287.78838324886476" x2="728" y2="306.84094213212245" />
    <line x1="728" y1="306.84094213212239" x2="717" y2="325.89350101538008" />
    <line x1="728" y1="421.1562954316683" x2="717" y2="440.208854314926" />
    <line x1="717" y1="440.20885431492593" x2="728" y2="459.26141319818362" />
    <line x1="717" y1="516.41908984795657" x2="728" y2="535.47164873121426" />
    <line x1="728" y1="573.57676649772952" x2="717" y2="592.62932538098721" />
    <polyline points="717,592.6293253809871 728,611.68188426424479 717,630.73444314750247 728,649.78700203076016" />
    <line x1="728" y1="725.99723756379069" x2="717" y2="745.04979644704838" />
    <line x1="728" y1="764.102355330306" x2="717" y2="783.15491421356364" />
    <line x1="717" y1="821.26003198007891" x2="728" y2="840.3125908633366" />
    <polyline points="717,897.47026751310955 728,916.52282639636724 717,935.57538527962492" />
    <line x1="728" y1="306.84094213212239" x2="739" y2="325.89350101538008" />
    <line x1="728" y1="344.94605989863771" x2="739" y2="363.9986187818954" />
    <line x1="739" y1="363.99861878189535" x2="728" y2="383.05117766515303" />
    <line x1="728" y1="421.1562954316683" x2="739" y2="440.208854314926" />
    <line x1="739" y1="478.31397208144125" x2="728" y2="497.36653096469894" />
    <line x1="728" y1="497.36653096469888" x2="739" y2="516.41908984795657" />
    <polyline points="739,668.83956091401774 728,687.89211979727543 739,706.94467868053312" />
    <line x1="739" y1="706.944678680533" x2="728" y2="725.99723756379069" />
    <line x1="739" y1="745.04979644704838" x2="728" y2="764.10235533030607" />
    <line x1="728" y1="764.102355330306" x2="739" y2="783.15491421356364" />
    <line x1="728" y1="802.20747309682133" x2="739" y2="821.260031980079" />
    <line x1="728" y1="878.41770862985186" x2="739" y2="897.47026751310955" />
    <line x1="739" y1="935.57538527962481" x2="728" y2="954.6279441628825" />
    <line x1="739" y1="325.89350101538" x2="750" y2="344.94605989863771" />
    <polyline points="750,383.051177665153 739,402.10373654841067 750,421.15629543166835" />
    <line x1="739" y1="516.41908984795657" x2="750" y2="535.47164873121426" />
    <line x1="750" y1="535.47164873121415" x2="739" y2="554.52420761447183" />
    <polyline points="739,821.26003198007891 750,840.3125908633366 739,859.36514974659428 750,878.417708629852" />
    <line x1="750" y1="344.94605989863771" x2="761" y2="363.9986187818954" />
    <line x1="761" y1="363.99861878189535" x2="750" y2="383.05117766515303" />
    <line x1="761" y1="402.10373654841067" x2="750" y2="421.15629543166835" />
    <line x1="750" y1="459.26141319818362" x2="761" y2="478.31397208144131" />
    <line x1="750" y1="535.47164873121415" x2="761" y2="554.52420761447183" />
    <line x1="761" y1="592.6293253809871" x2="750" y2="611.68188426424479" />
    <line x1="761" y1="630.73444314750247" x2="750" y2="649.78700203076016" />
    <polyline points="750,649.78700203076 761,668.83956091401774 750,687.89211979727543" />
    <line x1="761" y1="706.944678680533" x2="750" y2="725.99723756379069" />
    <line x1="761" y1="745.04979644704838" x2="750" y2="764.10235533030607" />
    <polyline points="750,764.102355330306 761,783.15491421356364 750,802.20747309682133" />
    <polyline points="750,878.41770862985186 761,897.47026751310955 750,916.52282639636724" />
    <line x1="761" y1="363.99861878189535" x2="772" y2="383.05117766515303" />
    <line x1="772" y1="421.1562954316683" x2="761" y2="440.208854314926" />
    <polyline points="761,440.20885431492593 772,459.26141319818362 761,478.31397208144131" />
    <line x1="761" y1="554.52420761447183" x2="772" y2="573.57676649772952" />
    <line x1="772" y1="611.68188426424479" x2="761" y2="630.73444314750247" />
    <line x1="772" y1="725.99723756379069" x2="761" y2="745.04979644704838" />
    <line x1="761" y1="859.36514974659428" x2="772" y2="878.417708629852" />
    <line x1="761" y1="935.57538527962481" x2="772" y2="954.6279441628825" />
    <polyline points="772,383.051177665153 783,402.10373654841067 772,421.15629543166835" />
    <line x1="783" y1="478.31397208144125" x2="772" y2="497.36653096469894" />
    <polyline points="772,497.36653096469888 783,516.41908984795657 772,535.47164873121426" />
    <line x1="772" y1="535.47164873121415" x2="783" y2="554.52420761447183" />
    <line x1="783" y1="630.73444314750247" x2="772" y2="649.78700203076016" />
    <line x1="783" y1="668.83956091401774" x2="772" y2="687.89211979727543" />
    <line x1="783" y1="745.04979644704838" x2="772" y2="764.10235533030607" />
    <line x1="772" y1="840.3125908633366" x2="783" y2="859.36514974659428" />
    <polyline points="772,878.41770862985186 783,897.47026751310955 772,916.52282639636724 783,935.57538527962492" />
    <line x1="783" y1="402.10373654841067" x2="794" y2="421.15629543166835" />
    <line x1="783" y1="440.20885431492593" x2="794" y2="459.26141319818362" />
    <line x1="783" y1="516.41908984795657" x2="794" y2="535.47164873121426" />
    <polyline points="783,554.52420761447183 794,573.57676649772952 783,592.62932538098721" />
    <polyline points="783,592.6293253809871 794,611.68188426424479 783,630.73444314750247" />
    <line x1="794" y1="649.78700203076" x2="783" y2="668.83956091401774" />
    <line x1="783" y1="706.944678680533" x2="794" y2="725.99723756379069" />
    <line x1="794" y1="764.102355330306" x2="783" y2="783.15491421356364" />
    <line x1="783" y1="859.36514974659428" x2="794" y2="878.417708629852" />
    <line x1="794" y1="421.1562954316683" x2="805" y2="440.208854314926" />
    <line x1="794" y1="497.36653096469888" x2="805" y2="516.41908984795657" />
    <line x1="794" y1="535.47164873121415" x2="805" y2="554.52420761447183" />
    <line x1="805" y1="630.73444314750247" x2="794" y2="649.78700203076016" />
    <line x1="794" y1="687.89211979727543" x2="805" y2="706.94467868053312" />
    <line x1="805" y1="783.15491421356364" x2="794" y2="802.20747309682133" />
    <line x1="794" y1="840.3125908633366" x2="805" y2="859.36514974659428" />
    <line x1="805" y1="440.20885431492593" x2="816" y2="459.26141319818362" />
    <line x1="805" y1="478.31397208144125" x2="816" y2="497.36653096469894" />
    <polyline points="816,497.36653096469888 805,516.41908984795657 816,535.47164873121426" />
    <polyline points="805,592.6293253809871 816,611.68188426424479 805,630.73444314750247" />
    <polyline points="816,649.78700203076 805,668.83956091401774 816,687.89211979727543" />
    <line x1="816" y1="802.20747309682133" x2="805" y2="821.260031980079" />
    <polyline points="805,821.26003198007891 816,840.3125908633366 805,859.36514974659428 816,878.417708629852" />
    <polyline points="816,878.41770862985186 805,897.47026751310955 816,916.52282639636724" />
    <line x1="816" y1="459.26141319818362" x2="827" y2="478.31397208144131" />
    <line x1="827" y1="516.41908984795657" x2="816" y2="535.47164873121426" />
    <line x1="816" y1="611.68188426424479" x2="827" y2="630.73444314750247" />
    <line x1="827" y1="668.83956091401774" x2="816" y2="687.89211979727543" />
    <line x1="827" y1="478.31397208144125" x2="838" y2="497.36653096469894" />
    <polyline points="838,535.47164873121415 827,554.52420761447183 838,573.57676649772952 827,592.62932538098721" />
    <line x1="827" y1="630.73444314750247" x2="838" y2="649.78700203076016" />
    <line x1="838" y1="649.78700203076" x2="827" y2="668.83956091401774" />
    <line x1="838" y1="687.89211979727543" x2="827" y2="706.94467868053312" />
    <polyline points="838,725.99723756379069 827,745.04979644704838 838,764.10235533030607" />
    <line x1="838" y1="802.20747309682133" x2="827" y2="821.260031980079" />
    <line x1="827" y1="859.36514974659428" x2="838" y2="878.417708629852" />
    <line x1="838" y1="878.41770862985186" x2="827" y2="897.47026751310955" />
    <line x1="838" y1="497.36653096469888" x2="849" y2="516.41908984795657" />
    <line x1="849" y1="554.52420761447183" x2="838" y2="573.57676649772952" />
    <polyline points="849,592.6293253809871 838,611.68188426424479 849,630.73444314750247" />
    <line x1="849" y1="783.15491421356364" x2="838" y2="802.20747309682133" />
    <line x1="838" y1="840.3125908633366" x2="849" y2="859.36514974659428" />
    <line x1="849" y1="897.47026751310955" x2="838" y2="916.52282639636724" />
    <line x1="849" y1="516.41908984795657" x2="860" y2="535.47164873121426" />
    <line x1="860" y1="573.57676649772952" x2="849" y2="592.62932538098721" />
    <polyline points="849,706.944678680533 860,725.99723756379069 849,745.04979644704838 860,764.10235533030607" />
    <line x1="860" y1="764.102355330306" x2="849" y2="783.15491421356364" />
    <line x1="860" y1="802.20747309682133" x2="849" y2="821.260031980079" />
    <line x1="849" y1="821.26003198007891" x2="860" y2="840.3125908633366" />
    <line x1="860" y1="916.52282639636724" x2="849" y2="935.57538527962492" />
    <line x1="849" y1="935.57538527962481" x2="860" y2="954.6279441628825" />
    <line x1="860" y1="535.47164873121415" x2="871" y2="554.52420761447183" />
    <line x1="860" y1="573.57676649772952" x2="871" y2="592.62932538098721" />
    <line x1="871" y1="592.6293253809871" x2="860" y2="611.68188426424479" />
    <line x1="871" y1="630.73444314750247" x2="860" y2="649.78700203076016" />
    <line x1="871" y1="668.83956091401774" x2="860" y2="687.89211979727543" />
    <line x1="871" y1="745.04979644704838" x2="860" y2="764.10235533030607" />
    <line x1="871" y1="859.36514974659428" x2="860" y2="878.417708629852" />
    <line x1="871" y1="897.47026751310955" x2="860" y2="916.52282639636724" />
    <line x1="871" y1="554.52420761447183" x2="882" y2="573.57676649772952" />
    <line x1="882" y1="649.78700203076" x2="871" y2="668.83956091401774" />
    <line x1="882" y1="764.102355330306" x2="871" y2="783.15491421356364" />
    <line x1="882" y1="878.41770862985186" x2="871" y2="897.47026751310955" />
    <line x1="871" y1="935.57538527962481" x2="882" y2="954.6279441628825" />
    <line x1="882" y1="573.57676649772952" x2="893" y2="592.62932538098721" />
    <line x1="893" y1="592.6293253809871" x2="882" y2="611.68188426424479" />
    <line x1="893" y1="668.83956091401774" x2="882" y2="687.89211979727543" />
    <line x1="893" y1="706.944678680533" x2="882" y2="725.99723756379069" />
    <line x1="893" y1="745.04979644704838" x2="882" y2="764.10235533030607" />
    <line x1="893" y1="859.36514974659428" x2="882" y2="878.417708629852" />
    <polyline points="893,897.47026751310955 882,916.52282639636724 893,935.57538527962492" />
    <polyline points="893,592.6293253809871 904,611.68188426424479 893,630.73444314750247" />
    <line x1="904" y1="687.89211979727543" x2="893" y2="706.94467868053312" />
    <line x1="904" y1="725.99723756379069" x2="893" y2="745.04979644704838" />
    <polyline points="904,764.102355330306 893,783.15491421356364 904,802.20747309682133 893,821.260031980079" />
    <line x1="904" y1="878.41770862985186" x2="893" y2="897.47026751310955" />
    <line x1="904" y1="611.68188426424479" x2="915" y2="630.73444314750247" />
    <line x1="915" y1="706.944678680533" x2="904" y2="725.99723756379069" />
    <line x1="915" y1="821.26003198007891" x2="904" y2="840.3125908633366" />
    <line x1="915" y1="859.36514974659428" x2="904" y2="878.417708629852" />
    <line x1="915" y1="897.47026751310955" x2="904" y2="916.52282639636724" />
    <line x1="915" y1="630.73444314750247" x2="926" y2="649.78700203076016" />
    <polyline points="926,649.78700203076 915,668.83956091401774 926,687.89211979727543 915,706.94467868053312" />
    <polyline points="926,725.99723756379069 915,745.04979644704838 926,764.10235533030607" />
    <line x1="926" y1="764.102355330306" x2="915" y2="783.15491421356364" />
    <line x1="926" y1="878.41770862985186" x2="915" y2="897.47026751310955" />
    <line x1="926" y1="649.78700203076" x2="937" y2="668.83956091401774" />
    <line x1="937" y1="706.944678680533" x2="926" y2="725.99723756379069" />
    <polyline points="937,783.15491421356364 926,802.20747309682133 937,821.260031980079" />
    <line x1="937" y1="859.36514974659428" x2="926" y2="878.417708629852" />
    <line x1="926" y1="878.41770862985186" x2="937" y2="897.47026751310955" />
    <line x1="937" y1="668.83956091401774" x2="948" y2="687.89211979727543" />
    <line x1="948" y1="764.102355330306" x2="937" y2="783.15491421356364" />
    <line x1="948" y1="687.89211979727543" x2="959" y2="706.94467868053312" />
    <line x1="959" y1="745.04979644704838" x2="948" y2="764.10235533030607" />
    <polyline points="948,764.102355330306 959,783.15491421356364 948,802.20747309682133 959,821.260031980079" />
    <polyline points="959,821.26003198007891 948,840.3125908633366 959,859.36514974659428 948,878.417708629852" />
    <line x1="948" y1="916.52282639636724" x2="959" y2="935.57538527962492" />
    <line x1="959" y1="706.944678680533" x2="970" y2="725.99723756379069" />
    <line x1="959" y1="859.36514974659428" x2="970" y2="878.417708629852" />
    <polyline points="970,725.99723756379069 981,745.04979644704838 970,764.10235533030607" />
    <line x1="981" y1="783.15491421356364" x2="970" y2="802.20747309682133" />
    <line x1="970" y1="840.3125908633366" x2="981" y2="859.36514974659428" />
    <line x1="981" y1="745.04979644704838" x2="992" y2="764.10235533030607" />
    <line x1="992" y1="764.102355330306" x2="981" y2="783.15491421356364" />
    <line x1="992" y1="802.20747309682133" x2="981" y2="821.260031980079" />
    <line x1="981" y1="821.26003198007891" x2="992" y2="840.3125908633366" />
    <line x1="981" y1="859.36514974659428" x2="992" y2="878.417708629852" />
    <polyline points="992,878.41770862985186 981,897.47026751310955 992,916.52282639636724 981,935.57538527962492" />
    <line x1="992" y1="764.102355330306" x2="1003" y2="783.15491421356364" />
    <polyline points="992,840.3125908633366 1003,859.36514974659428 992,878.417708629852" />
    <line x1="1003" y1="783.15491421356364" x2="1014" y2="802.20747309682133" />
    <polyline points="1014,878.41770862985186 1003,897.47026751310955 1014,916.52282639636724 1003,935.57538527962492" />
    <line x1="1014" y1="802.20747309682133" x2="1025" y2="821.260031980079" />
    <line x1="1025" y1="897.47026751310955" x2="1014" y2="916.52282639636724" />
    <line x1="1025" y1="821.26003198007891" x2="1036" y2="840.3125908633366" />
    <line x1="1036" y1="916.52282639636724" x2="1025" y2="935.57538527962492" />
    <line x1="1036" y1="840.3125908633366" x2="1047" y2="859.36514974659428" />
    <line x1="1047" y1="935.57538527962481" x2="1036" y2="954.6279441628825" />
    <line x1="1047" y1="859.36514974659428" x2="1058" y2="878.417708629852" />
    <polyline points="1047,897.47026751310955 1058,878.41770862985186 1069,897.47026751310955 1080,916.52282639636724 1091,935.57538527962492" />
    <line x1="1091" y1="935.57538527962481" x2="1102" y2="954.6279441628825" />
  </g>
  <polyline fill="none" stroke="#ff0000" stroke-width="2" stroke-linecap="square" stroke-linejoin="round" points="271.5,487.84025152307009 282.5,487.84025152307009 293.5,468.78769263981246 315.5,468.78769263981246 332,440.208854314926 321,421.1562954316683 337.5,392.57745710678182 414.5,392.57745710678182 425.5,411.63001599003951 447.5,411.63001599003951 453,421.1562954316683 442,440.208854314926 453,459.26141319818362 447.5,468.78769263981246 425.5,468.78769263981246 420,478.31397208144125 425.5,487.84025152307009 458.5,487.84025152307009 469.5,468.78769263981246 524.5,468.78769263981246 530,478.31397208144125 524.5,487.84025152307009 502.5,487.84025152307009 497,497.36653096469888 508,516.41908984795657 497,535.47164873121426 502.5,544.997928172843 546.5,544.997928172843 552,554.52420761447183 546.5,564.05048705610068 524.5,564.05048705610068 519,573.57676649772952 530,592.62932538098721 480.5,678.36584035564658 469.5,678.36584035564658 458.5,659.31328147238889 436.5,659.31328147238889 425.5,640.26072258913132 414.5,640.26072258913132 409,649.78700203076 420,668.83956091401774 409,687.89211979727543 420,706.944678680533 409,725.99723756379069 431,764.102355330306 420,783.15491421356364 431,802.20747309682133 425.5,811.73375253845018 403.5,811.73375253845018 398,821.26003198007891 403.5,830.78631142170775 436.5,830.78631142170775 458.5,792.68119365519249 469.5,792.68119365519249 491.5,830.78631142170775 513.5,830.78631142170775 519,840.3125908633366 508,859.36514974659428 519,878.41770862985186 513.5,887.9439880714807 469.5,887.9439880714807 453,916.52282639636724 458.5,926.04910583799608 480.5,926.04910583799608 491.5,945.10166472125366 502.5,945.10166472125366 508,935.57538527962481 497,916.52282639636724 502.5,906.99654695473839 524.5,906.99654695473839 541,878.41770862985186 530,859.36514974659428 535.5,849.83887030496544 601.5,849.83887030496544 607,840.3125908633366 590.5,811.73375253845018 568.5,811.73375253845018 563,802.20747309682133 585,764.102355330306 563,725.99723756379069 568.5,716.47095812216185 590.5,716.47095812216185 596,706.944678680533 585,687.89211979727543 596,668.83956091401774" />
  <type>Triangular</type>
</svg>