<?xml version="1.0" encoding="utf-8" standalone="no"?>
<!DOCTYPE svg PUBLIC "-//W3C//DTD SVG 1.1//EN" "http://www.w3.org/Graphics/SVG/1.1/DTD/svg11.dtd"[]>
<svg width="1104" height="956.6279441628825" version="1.1" xmlns="http://www.w3.org/2000/svg">
  <title>Triangular delta maze with 50 cells side</title>
  <g fill="none" stroke="#000000" stroke-width="2" stroke-linecap="round" stroke-linejoin="round">
    <line x1="530" y1="78.210235533030612" x2="552" y2="78.210235533030612" />
    <line x1="563" y1="97.262794416288273" x2="585" y2="97.262794416288273" />
    <line x1="497" y1="135.36791218280357" x2="519" y2="135.36791218280357" />
    <line x1="596" y1="154.42047106606123" x2="618" y2="154.42047106606123" />
    <line x1="475" y1="173.47302994931886" x2="497" y2="173.47302994931886" />
    <line x1="541" y1="173.47302994931886" x2="563" y2="173.47302994931886" />
    <line x1="585" y1="173.47302994931886" x2="607" y2="173.47302994931886" />
    <line x1="530" y1="192.52558883257652" x2="552" y2="192.52558883257652" />
    <line x1="618" y1="192.52558883257652" x2="640" y2="192.52558883257652" />
    <line x1="431" y1="211.57814771583418" x2="497" y2="211.57814771583418" />
    <line x1="541" y1="211.57814771583418" x2="563" y2="211.57814771583418" />
    <line x1="607" y1="211.57814771583418" x2="629" y2="211.57814771583418" />
    <line x1="464" y1="230.63070659909181" x2="486" y2="230.63070659909181" />
    <line x1="596" y1="230.63070659909181" x2="618" y2="230.63070659909181" />
    <line x1="475" y1="249.68326548234947" x2="519" y2="249.68326548234947" />
    <line x1="541" y1="249.68326548234947" x2="607" y2="249.68326548234947" />
    <line x1="464" y1="268.73582436560713" x2="486" y2="268.73582436560713" />
    <line x1="552" y1="268.73582436560713" x2="596" y2="268.73582436560713" />
    <line x1="409" y1="287.78838324886476" x2="431" y2="287.78838324886476" />
    <line x1="453" y1="287.78838324886476" x2="497" y2="287.78838324886476" />
    <line x1="585" y1="287.78838324886476" x2="673" y2="287.78838324886476" />
    <line x1="376" y1="306.84094213212239" x2="398" y2="306.84094213212239" />
    <line x1="464" y1="306.84094213212239" x2="486" y2="306.84094213212239" />
    <line x1="618" y1="306.84094213212239" x2="662" y2="306.84094213212239" />
    <line x1="365" y1="325.89350101538008" x2="387" y2="325.89350101538008" />
    <line x1="409" y1="325.89350101538008" x2="431" y2="325.89350101538008" />
    <line x1="497" y1="325.89350101538008" x2="519" y2="325.89350101538008" />
    <line x1="695" y1="325.89350101538008" x2="717" y2="325.89350101538008" />
    <line x1="376" y1="344.94605989863771" x2="464" y2="344.94605989863771" />
    <line x1="486" y1="344.94605989863771" x2="508" y2="344.94605989863771" />
    <line x1="574" y1="344.94605989863771" x2="596" y2="344.94605989863771" />
    <line x1="662" y1="344.94605989863771" x2="684" y2="344.94605989863771" />
    <line x1="706" y1="344.94605989863771" x2="750" y2="344.94605989863771" />
    <line x1="387" y1="363.99861878189535" x2="409" y2="363.99861878189535" />
    <line x1="453" y1="363.99861878189535" x2="475" y2="363.99861878189535" />
    <line x1="497" y1="363.99861878189535" x2="541" y2="363.99861878189535" />
    <line x1="673" y1="363.99861878189535" x2="695" y2="363.99861878189535" />
    <line x1="376" y1="383.05117766515303" x2="398" y2="383.05117766515303" />
    <line x1="420" y1="383.05117766515303" x2="442" y2="383.05117766515303" />
    <line x1="508" y1="383.05117766515303" x2="530" y2="383.05117766515303" />
    <line x1="640" y1="383.05117766515303" x2="662" y2="383.05117766515303" />
    <line x1="684" y1="383.05117766515303" x2="728" y2="383.05117766515303" />
    <line x1="409" y1="402.10373654841067" x2="431" y2="402.10373654841067" />
    <line x1="475" y1="402.10373654841067" x2="541" y2="402.10373654841067" />
    <line x1="629" y1="402.10373654841067" x2="651" y2="402.10373654841067" />
    <line x1="695" y1="402.10373654841067" x2="717" y2="402.10373654841067" />
    <line x1="398" y1="421.1562954316683" x2="420" y2="421.1562954316683" />
    <line x1="574" y1="421.1562954316683" x2="596" y2="421.1562954316683" />
    <line x1="684" y1="421.1562954316683" x2="706" y2="421.1562954316683" />
    <line x1="365" y1="440.208854314926" x2="387" y2="440.208854314926" />
    <line x1="563" y1="440.208854314926" x2="585" y2="440.208854314926" />
    <line x1="739" y1="440.208854314926" x2="761" y2="440.208854314926" />
    <line x1="552" y1="459.26141319818362" x2="574" y2="459.26141319818362" />
    <line x1="596" y1="459.26141319818362" x2="618" y2="459.26141319818362" />
    <line x1="662" y1="459.26141319818362" x2="684" y2="459.26141319818362" />
    <line x1="321" y1="478.31397208144125" x2="343" y2="478.31397208144125" />
    <line x1="409" y1="478.31397208144125" x2="431" y2="478.31397208144125" />
    <line x1="541" y1="478.31397208144125" x2="563" y2="478.31397208144125" />
    <line x1="585" y1="478.31397208144125" x2="607" y2="478.31397208144125" />
    <line x1="651" y1="478.31397208144125" x2="673" y2="478.31397208144125" />
    <line x1="717" y1="478.31397208144125" x2="739" y2="478.31397208144125" />
    <line x1="805" y1="478.31397208144125" x2="827" y2="478.31397208144125" />
    <line x1="332" y1="497.36653096469888" x2="354" y2="497.36653096469888" />
    <line x1="376" y1="497.36653096469888" x2="398" y2="497.36653096469888" />
    <line x1="442" y1="497.36653096469888" x2="464" y2="497.36653096469888" />
    <line x1="530" y1="497.36653096469888" x2="552" y2="497.36653096469888" />
    <line x1="596" y1="497.36653096469888" x2="640" y2="497.36653096469888" />
    <line x1="684" y1="497.36653096469888" x2="706" y2="497.36653096469888" />
    <line x1="750" y1="497.36653096469888" x2="772" y2="497.36653096469888" />
    <line x1="321" y1="516.41908984795657" x2="343" y2="516.41908984795657" />
    <line x1="365" y1="516.41908984795657" x2="387" y2="516.41908984795657" />
    <line x1="607" y1="516.41908984795657" x2="629" y2="516.41908984795657" />
    <line x1="673" y1="516.41908984795657" x2="739" y2="516.41908984795657" />
    <line x1="354" y1="535.47164873121426" x2="420" y2="535.47164873121426" />
    <line x1="464" y1="535.47164873121426" x2="486" y2="535.47164873121426" />
    <line x1="574" y1="535.47164873121426" x2="596" y2="535.47164873121426" />
    <line x1="662" y1="535.47164873121426" x2="684" y2="535.47164873121426" />
    <line x1="706" y1="535.47164873121426" x2="750" y2="535.47164873121426" />
    <line x1="233" y1="554.52420761447183" x2="277" y2="554.52420761447183" />
    <line x1="299" y1="554.52420761447183" x2="321" y2="554.52420761447183" />
    <line x1="343" y1="554.52420761447183" x2="409" y2="554.52420761447183" />
    <line x1="453" y1="554.52420761447183" x2="475" y2="554.52420761447183" />
    <line x1="519" y1="554.52420761447183" x2="541" y2="554.52420761447183" />
    <line x1="585" y1="554.52420761447183" x2="607" y2="554.52420761447183" />
    <line x1="717" y1="554.52420761447183" x2="739" y2="554.52420761447183" />
    <line x1="805" y1="554.52420761447183" x2="827" y2="554.52420761447183" />
    <line x1="222" y1="573.57676649772952" x2="266" y2="573.57676649772952" />
    <line x1="288" y1="573.57676649772952" x2="310" y2="573.57676649772952" />
    <line x1="398" y1="573.57676649772952" x2="420" y2="573.57676649772952" />
    <line x1="508" y1="573.57676649772952" x2="552" y2="573.57676649772952" />
    <line x1="596" y1="573.57676649772952" x2="618" y2="573.57676649772952" />
    <line x1="684" y1="573.57676649772952" x2="750" y2="573.57676649772952" />
    <line x1="816" y1="573.57676649772952" x2="838" y2="573.57676649772952" />
    <line x1="860" y1="573.57676649772952" x2="882" y2="573.57676649772952" />
    <line x1="255" y1="592.62932538098721" x2="277" y2="592.62932538098721" />
    <line x1="409" y1="592.62932538098721" x2="431" y2="592.62932538098721" />
    <line x1="519" y1="592.62932538098721" x2="541" y2="592.62932538098721" />
    <line x1="695" y1="592.62932538098721" x2="739" y2="592.62932538098721" />
    <line x1="783" y1="592.62932538098721" x2="805" y2="592.62932538098721" />
    <line x1="849" y1="592.62932538098721" x2="871" y2="592.62932538098721" />
    <line x1="244" y1="611.68188426424479" x2="310" y2="611.68188426424479" />
    <line x1="354" y1="611.68188426424479" x2="376" y2="611.68188426424479" />
    <line x1="420" y1="611.68188426424479" x2="486" y2="611.68188426424479" />
    <line x1="596" y1="611.68188426424479" x2="618" y2="611.68188426424479" />
    <line x1="684" y1="611.68188426424479" x2="706" y2="611.68188426424479" />
    <line x1="728" y1="611.68188426424479" x2="750" y2="611.68188426424479" />
    <line x1="772" y1="611.68188426424479" x2="794" y2="611.68188426424479" />
    <line x1="838" y1="611.68188426424479" x2="860" y2="611.68188426424479" />
    <line x1="189" y1="630.73444314750247" x2="211" y2="630.73444314750247" />
    <line x1="299" y1="630.73444314750247" x2="321" y2="630.73444314750247" />
    <line x1="365" y1="630.73444314750247" x2="387" y2="630.73444314750247" />
    <line x1="453" y1="630.73444314750247" x2="497" y2="630.73444314750247" />
    <line x1="651" y1="630.73444314750247" x2="717" y2="630.73444314750247" />
    <line x1="783" y1="630.73444314750247" x2="805" y2="630.73444314750247" />
    <line x1="827" y1="630.73444314750247" x2="871" y2="630.73444314750247" />
    <line x1="200" y1="649.78700203076" x2="244" y2="649.78700203076" />
    <line x1="288" y1="649.78700203076" x2="310" y2="649.78700203076" />
    <line x1="332" y1="649.78700203076" x2="420" y2="649.78700203076" />
    <line x1="442" y1="649.78700203076" x2="464" y2="649.78700203076" />
    <line x1="486" y1="649.78700203076" x2="508" y2="649.78700203076" />
    <line x1="684" y1="649.78700203076" x2="706" y2="649.78700203076" />
    <line x1="750" y1="649.78700203076" x2="816" y2="649.78700203076" />
    <line x1="860" y1="649.78700203076" x2="882" y2="649.78700203076" />
    <line x1="904" y1="649.78700203076" x2="926" y2="649.78700203076" />
    <line x1="255" y1="668.83956091401774" x2="277" y2="668.83956091401774" />
    <line x1="321" y1="668.83956091401774" x2="387" y2="668.83956091401774" />
    <line x1="409" y1="668.83956091401774" x2="453" y2="668.83956091401774" />
    <line x1="497" y1="668.83956091401774" x2="585" y2="668.83956091401774" />
    <line x1="629" y1="668.83956091401774" x2="651" y2="668.83956091401774" />
    <line x1="761" y1="668.83956091401774" x2="783" y2="668.83956091401774" />
    <line x1="827" y1="668.83956091401774" x2="849" y2="668.83956091401774" />
    <line x1="893" y1="668.83956091401774" x2="915" y2="668.83956091401774" />
    <line x1="178" y1="687.89211979727543" x2="200" y2="687.89211979727543" />
    <line x1="244" y1="687.89211979727543" x2="266" y2="687.89211979727543" />
    <line x1="310" y1="687.89211979727543" x2="332" y2="687.89211979727543" />
    <line x1="354" y1="687.89211979727543" x2="376" y2="687.89211979727543" />
    <line x1="398" y1="687.89211979727543" x2="420" y2="687.89211979727543" />
    <line x1="442" y1="687.89211979727543" x2="464" y2="687.89211979727543" />
    <line x1="552" y1="687.89211979727543" x2="596" y2="687.89211979727543" />
    <line x1="706" y1="687.89211979727543" x2="750" y2="687.89211979727543" />
    <line x1="772" y1="687.89211979727543" x2="794" y2="687.89211979727543" />
    <line x1="838" y1="687.89211979727543" x2="926" y2="687.89211979727543" />
    <line x1="255" y1="706.944678680533" x2="277" y2="706.944678680533" />
    <line x1="299" y1="706.944678680533" x2="343" y2="706.944678680533" />
    <line x1="387" y1="706.944678680533" x2="409" y2="706.944678680533" />
    <line x1="453" y1="706.944678680533" x2="475" y2="706.944678680533" />
    <line x1="541" y1="706.944678680533" x2="563" y2="706.944678680533" />
    <line x1="585" y1="706.944678680533" x2="607" y2="706.944678680533" />
    <line x1="695" y1="706.944678680533" x2="717" y2="706.944678680533" />
    <line x1="871" y1="706.944678680533" x2="893" y2="706.944678680533" />
    <line x1="937" y1="706.944678680533" x2="959" y2="706.944678680533" />
    <line x1="156" y1="725.99723756379069" x2="178" y2="725.99723756379069" />
    <line x1="200" y1="725.99723756379069" x2="222" y2="725.99723756379069" />
    <line x1="244" y1="725.99723756379069" x2="266" y2="725.99723756379069" />
    <line x1="310" y1="725.99723756379069" x2="376" y2="725.99723756379069" />
    <line x1="398" y1="725.99723756379069" x2="464" y2="725.99723756379069" />
    <line x1="552" y1="725.99723756379069" x2="596" y2="725.99723756379069" />
    <line x1="816" y1="725.99723756379069" x2="860" y2="725.99723756379069" />
    <line x1="882" y1="725.99723756379069" x2="926" y2="725.99723756379069" />
    <line x1="211" y1="745.04979644704838" x2="233" y2="745.04979644704838" />
    <line x1="321" y1="745.04979644704838" x2="365" y2="745.04979644704838" />
    <line x1="387" y1="745.04979644704838" x2="409" y2="745.04979644704838" />
    <line x1="431" y1="745.04979644704838" x2="453" y2="745.04979644704838" />
    <line x1="475" y1="745.04979644704838" x2="519" y2="745.04979644704838" />
    <line x1="541" y1="745.04979644704838" x2="585" y2="745.04979644704838" />
    <line x1="673" y1="745.04979644704838" x2="695" y2="745.04979644704838" />
    <line x1="717" y1="745.04979644704838" x2="739" y2="745.04979644704838" />
    <line x1="783" y1="745.04979644704838" x2="827" y2="745.04979644704838" />
    <line x1="871" y1="745.04979644704838" x2="915" y2="745.04979644704838" />
    <line x1="178" y1="764.102355330306" x2="200" y2="764.102355330306" />
    <line x1="266" y1="764.102355330306" x2="288" y2="764.102355330306" />
    <line x1="310" y1="764.102355330306" x2="354" y2="764.102355330306" />
    <line x1="376" y1="764.102355330306" x2="398" y2="764.102355330306" />
    <line x1="442" y1="764.102355330306" x2="530" y2="764.102355330306" />
    <line x1="552" y1="764.102355330306" x2="596" y2="764.102355330306" />
    <line x1="662" y1="764.102355330306" x2="706" y2="764.102355330306" />
    <line x1="728" y1="764.102355330306" x2="750" y2="764.102355330306" />
    <line x1="772" y1="764.102355330306" x2="794" y2="764.102355330306" />
    <line x1="948" y1="764.102355330306" x2="970" y2="764.102355330306" />
    <line x1="167" y1="783.15491421356364" x2="189" y2="783.15491421356364" />
    <line x1="211" y1="783.15491421356364" x2="233" y2="783.15491421356364" />
    <line x1="299" y1="783.15491421356364" x2="387" y2="783.15491421356364" />
    <line x1="409" y1="783.15491421356364" x2="431" y2="783.15491421356364" />
    <line x1="497" y1="783.15491421356364" x2="519" y2="783.15491421356364" />
    <line x1="541" y1="783.15491421356364" x2="607" y2="783.15491421356364" />
    <line x1="739" y1="783.15491421356364" x2="761" y2="783.15491421356364" />
    <line x1="783" y1="783.15491421356364" x2="805" y2="783.15491421356364" />
    <line x1="893" y1="783.15491421356364" x2="915" y2="783.15491421356364" />
    <line x1="112" y1="802.20747309682133" x2="134" y2="802.20747309682133" />
    <line x1="156" y1="802.20747309682133" x2="200" y2="802.20747309682133" />
    <line x1="288" y1="802.20747309682133" x2="310" y2="802.20747309682133" />
    <line x1="332" y1="802.20747309682133" x2="354" y2="802.20747309682133" />
    <line x1="420" y1="802.20747309682133" x2="442" y2="802.20747309682133" />
    <line x1="508" y1="802.20747309682133" x2="552" y2="802.20747309682133" />
    <line x1="574" y1="802.20747309682133" x2="618" y2="802.20747309682133" />
    <line x1="640" y1="802.20747309682133" x2="662" y2="802.20747309682133" />
    <line x1="706" y1="802.20747309682133" x2="728" y2="802.20747309682133" />
    <line x1="860" y1="802.20747309682133" x2="904" y2="802.20747309682133" />
    <line x1="926" y1="802.20747309682133" x2="970" y2="802.20747309682133" />
    <line x1="101" y1="821.26003198007891" x2="123" y2="821.26003198007891" />
    <line x1="233" y1="821.26003198007891" x2="255" y2="821.26003198007891" />
    <line x1="321" y1="821.26003198007891" x2="343" y2="821.26003198007891" />
    <line x1="453" y1="821.26003198007891" x2="475" y2="821.26003198007891" />
    <line x1="497" y1="821.26003198007891" x2="541" y2="821.26003198007891" />
    <line x1="563" y1="821.26003198007891" x2="585" y2="821.26003198007891" />
    <line x1="607" y1="821.26003198007891" x2="629" y2="821.26003198007891" />
    <line x1="651" y1="821.26003198007891" x2="673" y2="821.26003198007891" />
    <line x1="739" y1="821.26003198007891" x2="761" y2="821.26003198007891" />
    <line x1="805" y1="821.26003198007891" x2="827" y2="821.26003198007891" />
    <line x1="849" y1="821.26003198007891" x2="871" y2="821.26003198007891" />
    <line x1="893" y1="821.26003198007891" x2="937" y2="821.26003198007891" />
    <line x1="90" y1="840.3125908633366" x2="112" y2="840.3125908633366" />
    <line x1="244" y1="840.3125908633366" x2="266" y2="840.3125908633366" />
    <line x1="310" y1="840.3125908633366" x2="354" y2="840.3125908633366" />
    <line x1="398" y1="840.3125908633366" x2="420" y2="840.3125908633366" />
    <line x1="442" y1="840.3125908633366" x2="464" y2="840.3125908633366" />
    <line x1="552" y1="840.3125908633366" x2="574" y2="840.3125908633366" />
    <line x1="596" y1="840.3125908633366" x2="618" y2="840.3125908633366" />
    <line x1="706" y1="840.3125908633366" x2="816" y2="840.3125908633366" />
    <line x1="838" y1="840.3125908633366" x2="882" y2="840.3125908633366" />
    <line x1="904" y1="840.3125908633366" x2="926" y2="840.3125908633366" />
    <line x1="101" y1="859.36514974659428" x2="123" y2="859.36514974659428" />
    <line x1="145" y1="859.36514974659428" x2="167" y2="859.36514974659428" />
    <line x1="233" y1="859.36514974659428" x2="255" y2="859.36514974659428" />
    <line x1="299" y1="859.36514974659428" x2="321" y2="859.36514974659428" />
    <line x1="431" y1="859.36514974659428" x2="475" y2="859.36514974659428" />
    <line x1="541" y1="859.36514974659428" x2="563" y2="859.36514974659428" />
    <line x1="585" y1="859.36514974659428" x2="629" y2="859.36514974659428" />
    <line x1="695" y1="859.36514974659428" x2="739" y2="859.36514974659428" />
    <line x1="761" y1="859.36514974659428" x2="783" y2="859.36514974659428" />
    <line x1="849" y1="859.36514974659428" x2="893" y2="859.36514974659428" />
    <line x1="90" y1="878.41770862985186" x2="112" y2="878.41770862985186" />
    <line x1="244" y1="878.41770862985186" x2="266" y2="878.41770862985186" />
    <line x1="310" y1="878.41770862985186" x2="332" y2="878.41770862985186" />
    <line x1="442" y1="878.41770862985186" x2="508" y2="878.41770862985186" />
    <line x1="552" y1="878.41770862985186" x2="574" y2="878.41770862985186" />
    <line x1="618" y1="878.41770862985186" x2="640" y2="878.41770862985186" />
    <line x1="706" y1="878.41770862985186" x2="728" y2="878.41770862985186" />
    <line x1="794" y1="878.41770862985186" x2="816" y2="878.41770862985186" />
    <line x1="860" y1="878.41770862985186" x2="882" y2="878.41770862985186" />
    <line x1="904" y1="878.41770862985186" x2="970" y2="878.41770862985186" />
    <line x1="1014" y1="878.41770862985186" x2="1036" y2="878.41770862985186" />
    <line x1="57" y1="897.47026751310955" x2="79" y2="897.47026751310955" />
    <line x1="145" y1="897.47026751310955" x2="211" y2="897.47026751310955" />
    <line x1="321" y1="897.47026751310955" x2="387" y2="897.47026751310955" />
    <line x1="409" y1="897.47026751310955" x2="431" y2="897.47026751310955" />
    <line x1="475" y1="897.47026751310955" x2="519" y2="897.47026751310955" />
    <line x1="541" y1="897.47026751310955" x2="563" y2="897.47026751310955" />
    <line x1="651" y1="897.47026751310955" x2="673" y2="897.47026751310955" />
    <line x1="805" y1="897.47026751310955" x2="827" y2="897.47026751310955" />
    <line x1="871" y1="897.47026751310955" x2="915" y2="897.47026751310955" />
    <line x1="959" y1="897.47026751310955" x2="981" y2="897.47026751310955" />
    <line x1="1003" y1="897.47026751310955" x2="1025" y2="897.47026751310955" />
    <line x1="156" y1="916.52282639636724" x2="200" y2="916.52282639636724" />
    <line x1="266" y1="916.52282639636724" x2="288" y2="916.52282639636724" />
    <line x1="354" y1="916.52282639636724" x2="376" y2="916.52282639636724" />
    <line x1="464" y1="916.52282639636724" x2="486" y2="916.52282639636724" />
    <line x1="706" y1="916.52282639636724" x2="728" y2="916.52282639636724" />
    <line x1="794" y1="916.52282639636724" x2="816" y2="916.52282639636724" />
    <line x1="904" y1="916.52282639636724" x2="926" y2="916.52282639636724" />
    <line x1="970" y1="916.52282639636724" x2="992" y2="916.52282639636724" />
    <line x1="123" y1="935.57538527962481" x2="277" y2="935.57538527962481" />
    <line x1="299" y1="935.57538527962481" x2="321" y2="935.57538527962481" />
    <line x1="365" y1="935.57538527962481" x2="409" y2="935.57538527962481" />
    <line x1="497" y1="935.57538527962481" x2="519" y2="935.57538527962481" />
    <line x1="761" y1="935.57538527962481" x2="783" y2="935.57538527962481" />
    <line x1="827" y1="935.57538527962481" x2="893" y2="935.57538527962481" />
    <line x1="981" y1="935.57538527962481" x2="1025" y2="935.57538527962481" />
    <polyline points="1102,954.6279441628825 2,954.6279441628825 13,935.57538527962481" />
    <polyline points="13,935.57538527962492 24,916.52282639636724 35,897.47026751310955" />
    <line x1="24" y1="916.52282639636724" x2="35" y2="935.57538527962492" />
    <line x1="46" y1="878.41770862985186" x2="35" y2="897.47026751310955" />
    <line x1="57" y1="859.36514974659428" x2="46" y2="878.417708629852" />
    <polyline points="57,897.47026751310955 46,916.52282639636724 57,935.57538527962492" />
    <line x1="57" y1="935.57538527962481" x2="46" y2="954.6279441628825" />
    <polyline points="57,859.36514974659428 68,840.3125908633366 79,821.26003198007891" />
    <line x1="68" y1="878.41770862985186" x2="79" y2="897.47026751310955" />
    <line x1="68" y1="916.52282639636724" x2="79" y2="935.57538527962492" />
    <line x1="90" y1="802.20747309682133" x2="79" y2="821.260031980079" />
    <polyline points="90,840.3125908633366 79,859.36514974659428 90,878.417708629852" />
    <polyline points="79,897.47026751310955 90,916.52282639636724 79,935.57538527962492" />
    <polyline points="101,783.15491421356364 90,802.20747309682133 101,821.260031980079" />
    <line x1="112" y1="764.102355330306" x2="101" y2="783.15491421356364" />
    <polyline points="101,897.47026751310955 112,916.52282639636724 101,935.57538527962492" />
    <line x1="101" y1="935.57538527962481" x2="112" y2="954.6279441628825" />
    <line x1="123" y1="745.04979644704838" x2="112" y2="764.10235533030607" />
    <line x1="112" y1="764.102355330306" x2="123" y2="783.15491421356364" />
    <line x1="123" y1="821.26003198007891" x2="112" y2="840.3125908633366" />
    <line x1="123" y1="897.47026751310955" x2="112" y2="916.52282639636724" />
    <line x1="134" y1="725.99723756379069" x2="123" y2="745.04979644704838" />
    <line x1="123" y1="859.36514974659428" x2="134" y2="878.417708629852" />
    <line x1="134" y1="878.41770862985186" x2="123" y2="897.47026751310955" />
    <polyline points="145,706.944678680533 134,725.99723756379069 145,745.04979644704838 134,764.10235533030607" />
    <polyline points="145,783.15491421356364 134,802.20747309682133 145,821.260031980079" />
    <polyline points="145,821.26003198007891 134,840.3125908633366 145,859.36514974659428" />
    <polyline points="145,897.47026751310955 134,916.52282639636724 145,935.57538527962492" />
    <line x1="156" y1="687.89211979727543" x2="145" y2="706.94467868053312" />
    <line x1="156" y1="764.102355330306" x2="145" y2="783.15491421356364" />
    <line x1="156" y1="878.41770862985186" x2="145" y2="897.47026751310955" />
    <line x1="167" y1="668.83956091401774" x2="156" y2="687.89211979727543" />
    <line x1="167" y1="745.04979644704838" x2="156" y2="764.10235533030607" />
    <line x1="156" y1="764.102355330306" x2="167" y2="783.15491421356364" />
    <line x1="156" y1="802.20747309682133" x2="167" y2="821.260031980079" />
    <line x1="167" y1="821.26003198007891" x2="156" y2="840.3125908633366" />
    <line x1="167" y1="859.36514974659428" x2="156" y2="878.417708629852" />
    <polyline points="178,649.78700203076 167,668.83956091401774 178,687.89211979727543 167,706.94467868053312" />
    <polyline points="178,725.99723756379069 167,745.04979644704838 178,764.10235533030607" />
    <line x1="178" y1="840.3125908633366" x2="167" y2="859.36514974659428" />
    <line x1="189" y1="630.73444314750247" x2="178" y2="649.78700203076016" />
    <line x1="178" y1="649.78700203076" x2="189" y2="668.83956091401774" />
    <line x1="178" y1="802.20747309682133" x2="189" y2="821.260031980079" />
    <line x1="189" y1="859.36514974659428" x2="178" y2="878.417708629852" />
    <line x1="178" y1="878.41770862985186" x2="189" y2="897.47026751310955" />
    <line x1="200" y1="611.68188426424479" x2="189" y2="630.73444314750247" />
    <line x1="200" y1="687.89211979727543" x2="189" y2="706.94467868053312" />
    <line x1="200" y1="725.99723756379069" x2="189" y2="745.04979644704838" />
    <polyline points="189,821.26003198007891 200,840.3125908633366 189,859.36514974659428" />
    <line x1="211" y1="592.6293253809871" x2="200" y2="611.68188426424479" />
    <line x1="200" y1="649.78700203076" x2="211" y2="668.83956091401774" />
    <line x1="211" y1="706.944678680533" x2="200" y2="725.99723756379069" />
    <line x1="211" y1="745.04979644704838" x2="200" y2="764.10235533030607" />
    <line x1="200" y1="764.102355330306" x2="211" y2="783.15491421356364" />
    <line x1="200" y1="802.20747309682133" x2="211" y2="821.260031980079" />
    <line x1="211" y1="859.36514974659428" x2="200" y2="878.417708629852" />
    <line x1="211" y1="897.47026751310955" x2="200" y2="916.52282639636724" />
    <line x1="222" y1="573.57676649772952" x2="211" y2="592.62932538098721" />
    <polyline points="211,668.83956091401774 222,687.89211979727543 211,706.94467868053312" />
    <line x1="222" y1="840.3125908633366" x2="211" y2="859.36514974659428" />
    <line x1="222" y1="878.41770862985186" x2="211" y2="897.47026751310955" />
    <line x1="222" y1="916.52282639636724" x2="211" y2="935.57538527962492" />
    <line x1="233" y1="554.52420761447183" x2="222" y2="573.57676649772952" />
    <polyline points="233,592.6293253809871 222,611.68188426424479 233,630.73444314750247" />
    <line x1="233" y1="668.83956091401774" x2="222" y2="687.89211979727543" />
    <line x1="233" y1="745.04979644704838" x2="222" y2="764.10235533030607" />
    <line x1="222" y1="802.20747309682133" x2="233" y2="821.260031980079" />
    <polyline points="233,821.26003198007891 222,840.3125908633366 233,859.36514974659428" />
    <line x1="233" y1="897.47026751310955" x2="222" y2="916.52282639636724" />
    <line x1="244" y1="535.47164873121415" x2="233" y2="554.52420761447183" />
    <line x1="233" y1="592.6293253809871" x2="244" y2="611.68188426424479" />
    <line x1="244" y1="687.89211979727543" x2="233" y2="706.94467868053312" />
    <line x1="233" y1="706.944678680533" x2="244" y2="725.99723756379069" />
    <line x1="233" y1="783.15491421356364" x2="244" y2="802.20747309682133" />
    <line x1="233" y1="859.36514974659428" x2="244" y2="878.417708629852" />
    <polyline points="244,878.41770862985186 233,897.47026751310955 244,916.52282639636724" />
    <line x1="255" y1="516.41908984795657" x2="244" y2="535.47164873121426" />
    <line x1="244" y1="573.57676649772952" x2="255" y2="592.62932538098721" />
    <polyline points="244,611.68188426424479 255,630.73444314750247 244,649.78700203076016" />
    <polyline points="244,649.78700203076 255,668.83956091401774 244,687.89211979727543" />
    <polyline points="244,725.99723756379069 255,745.04979644704838 244,764.10235533030607" />
    <line x1="266" y1="497.36653096469888" x2="255" y2="516.41908984795657" />
    <polyline points="255,783.15491421356364 266,802.20747309682133 255,821.260031980079" />
    <line x1="255" y1="821.26003198007891" x2="266" y2="840.3125908633366" />
    <line x1="255" y1="897.47026751310955" x2="266" y2="916.52282639636724" />
    <line x1="277" y1="516.41908984795657" x2="266" y2="535.47164873121426" />
    <line x1="277" y1="630.73444314750247" x2="266" y2="649.78700203076016" />
    <line x1="277" y1="745.04979644704838" x2="266" y2="764.10235533030607" />
    <line x1="277" y1="783.15491421356364" x2="266" y2="802.20747309682133" />
    <line x1="277" y1="859.36514974659428" x2="266" y2="878.417708629852" />
    <line x1="266" y1="878.41770862985186" x2="277" y2="897.47026751310955" />
    <line x1="288" y1="459.26141319818362" x2="277" y2="478.31397208144131" />
    <line x1="277" y1="478.31397208144125" x2="288" y2="497.36653096469894" />
    <line x1="288" y1="497.36653096469888" x2="277" y2="516.41908984795657" />
    <line x1="288" y1="573.57676649772952" x2="277" y2="592.62932538098721" />
    <line x1="288" y1="611.68188426424479" x2="277" y2="630.73444314750247" />
    <line x1="288" y1="649.78700203076" x2="277" y2="668.83956091401774" />
    <line x1="288" y1="687.89211979727543" x2="277" y2="706.94467868053312" />
    <polyline points="277,706.944678680533 288,725.99723756379069 277,745.04979644704838" />
    <line x1="288" y1="802.20747309682133" x2="277" y2="821.260031980079" />
    <polyline points="277,821.26003198007891 288,840.3125908633366 277,859.36514974659428" />
    <line x1="288" y1="878.41770862985186" x2="277" y2="897.47026751310955" />
    <line x1="288" y1="916.52282639636724" x2="277" y2="935.57538527962492" />
    <line x1="299" y1="440.20885431492593" x2="288" y2="459.26141319818362" />
    <line x1="288" y1="497.36653096469888" x2="299" y2="516.41908984795657" />
    <line x1="288" y1="535.47164873121415" x2="299" y2="554.52420761447183" />
    <polyline points="299,668.83956091401774 288,687.89211979727543 299,706.94467868053312" />
    <polyline points="288,764.102355330306 299,783.15491421356364 288,802.20747309682133" />
    <line x1="299" y1="859.36514974659428" x2="288" y2="878.417708629852" />
    <line x1="299" y1="897.47026751310955" x2="288" y2="916.52282639636724" />
    <line x1="310" y1="421.1562954316683" x2="299" y2="440.208854314926" />
    <line x1="310" y1="459.26141319818362" x2="299" y2="478.31397208144131" />
    <line x1="299" y1="478.31397208144125" x2="310" y2="497.36653096469894" />
    <line x1="299" y1="592.6293253809871" x2="310" y2="611.68188426424479" />
    <line x1="310" y1="649.78700203076" x2="299" y2="668.83956091401774" />
    <polyline points="299,706.944678680533 310,725.99723756379069 299,745.04979644704838 310,764.10235533030607" />
    <line x1="299" y1="821.26003198007891" x2="310" y2="840.3125908633366" />
    <line x1="310" y1="878.41770862985186" x2="299" y2="897.47026751310955" />
    <line x1="310" y1="916.52282639636724" x2="299" y2="935.57538527962492" />
    <line x1="321" y1="402.10373654841067" x2="310" y2="421.15629543166835" />
    <line x1="321" y1="440.20885431492593" x2="310" y2="459.26141319818362" />
    <polyline points="310,497.36653096469888 321,516.41908984795657 310,535.47164873121426" />
    <line x1="310" y1="573.57676649772952" x2="321" y2="592.62932538098721" />
    <line x1="321" y1="668.83956091401774" x2="310" y2="687.89211979727543" />
    <line x1="310" y1="802.20747309682133" x2="321" y2="821.260031980079" />
    <line x1="332" y1="383.051177665153" x2="321" y2="402.10373654841067" />
    <polyline points="321,440.20885431492593 332,459.26141319818362 321,478.31397208144131" />
    <polyline points="332,535.47164873121415 321,554.52420761447183 332,573.57676649772952" />
    <polyline points="321,592.6293253809871 332,611.68188426424479 321,630.73444314750247 332,649.78700203076016" />
    <line x1="332" y1="840.3125908633366" x2="321" y2="859.36514974659428" />
    <line x1="332" y1="916.52282639636724" x2="321" y2="935.57538527962492" />
    <line x1="343" y1="363.99861878189535" x2="332" y2="383.05117766515303" />
    <line x1="343" y1="402.10373654841067" x2="332" y2="421.15629543166835" />
    <line x1="332" y1="421.1562954316683" x2="343" y2="440.208854314926" />
    <line x1="343" y1="554.52420761447183" x2="332" y2="573.57676649772952" />
    <line x1="343" y1="592.6293253809871" x2="332" y2="611.68188426424479" />
    <line x1="343" y1="859.36514974659428" x2="332" y2="878.417708629852" />
    <line x1="343" y1="897.47026751310955" x2="332" y2="916.52282639636724" />
    <line x1="343" y1="935.57538527962481" x2="332" y2="954.6279441628825" />
    <line x1="354" y1="344.94605989863771" x2="343" y2="363.9986187818954" />
    <line x1="343" y1="440.20885431492593" x2="354" y2="459.26141319818362" />
    <polyline points="354,497.36653096469888 343,516.41908984795657 354,535.47164873121426" />
    <line x1="354" y1="535.47164873121415" x2="343" y2="554.52420761447183" />
    <line x1="354" y1="573.57676649772952" x2="343" y2="592.62932538098721" />
    <polyline points="354,611.68188426424479 343,630.73444314750247 354,649.78700203076016" />
    <polyline points="343,668.83956091401774 354,687.89211979727543 343,706.94467868053312" />
    <line x1="354" y1="878.41770862985186" x2="343" y2="897.47026751310955" />
    <line x1="354" y1="916.52282639636724" x2="343" y2="935.57538527962492" />
    <line x1="365" y1="325.89350101538" x2="354" y2="344.94605989863771" />
    <line x1="354" y1="383.051177665153" x2="365" y2="402.10373654841067" />
    <line x1="354" y1="421.1562954316683" x2="365" y2="440.208854314926" />
    <line x1="354" y1="459.26141319818362" x2="365" y2="478.31397208144131" />
    <line x1="365" y1="478.31397208144125" x2="354" y2="497.36653096469894" />
    <line x1="354" y1="573.57676649772952" x2="365" y2="592.62932538098721" />
    <line x1="365" y1="745.04979644704838" x2="354" y2="764.10235533030607" />
    <line x1="365" y1="783.15491421356364" x2="354" y2="802.20747309682133" />
    <polyline points="365,821.26003198007891 354,840.3125908633366 365,859.36514974659428 354,878.417708629852" />
    <line x1="376" y1="306.84094213212239" x2="365" y2="325.89350101538008" />
    <line x1="376" y1="344.94605989863771" x2="365" y2="363.9986187818954" />
    <line x1="365" y1="363.99861878189535" x2="376" y2="383.05117766515303" />
    <line x1="376" y1="383.051177665153" x2="365" y2="402.10373654841067" />
    <polyline points="365,440.20885431492593 376,459.26141319818362 365,478.31397208144131" />
    <line x1="376" y1="497.36653096469888" x2="365" y2="516.41908984795657" />
    <line x1="365" y1="554.52420761447183" x2="376" y2="573.57676649772952" />
    <line x1="365" y1="706.944678680533" x2="376" y2="725.99723756379069" />
    <line x1="376" y1="764.102355330306" x2="365" y2="783.15491421356364" />
    <line x1="376" y1="802.20747309682133" x2="365" y2="821.260031980079" />
    <line x1="365" y1="821.26003198007891" x2="376" y2="840.3125908633366" />
    <line x1="387" y1="287.78838324886476" x2="376" y2="306.84094213212245" />
    <line x1="387" y1="402.10373654841067" x2="376" y2="421.15629543166835" />
    <line x1="376" y1="573.57676649772952" x2="387" y2="592.62932538098721" />
    <line x1="376" y1="687.89211979727543" x2="387" y2="706.94467868053312" />
    <line x1="376" y1="840.3125908633366" x2="387" y2="859.36514974659428" />
    <line x1="376" y1="878.41770862985186" x2="387" y2="897.47026751310955" />
    <line x1="398" y1="268.73582436560707" x2="387" y2="287.78838324886476" />
    <line x1="387" y1="402.10373654841067" x2="398" y2="421.15629543166835" />
    <line x1="398" y1="459.26141319818362" x2="387" y2="478.31397208144131" />
    <line x1="398" y1="611.68188426424479" x2="387" y2="630.73444314750247" />
    <line x1="387" y1="668.83956091401774" x2="398" y2="687.89211979727543" />
    <line x1="398" y1="725.99723756379069" x2="387" y2="745.04979644704838" />
    <line x1="398" y1="802.20747309682133" x2="387" y2="821.260031980079" />
    <line x1="387" y1="821.26003198007891" x2="398" y2="840.3125908633366" />
    <polyline points="387,897.47026751310955 398,916.52282639636724 387,935.57538527962492" />
    <line x1="409" y1="249.68326548234947" x2="398" y2="268.73582436560713" />
    <line x1="398" y1="268.73582436560707" x2="409" y2="287.78838324886476" />
    <line x1="398" y1="306.84094213212239" x2="409" y2="325.89350101538008" />
    <line x1="409" y1="325.89350101538" x2="398" y2="344.94605989863771" />
    <line x1="398" y1="383.051177665153" x2="409" y2="402.10373654841067" />
    <line x1="409" y1="440.20885431492593" x2="398" y2="459.26141319818362" />
    <line x1="409" y1="478.31397208144125" x2="398" y2="497.36653096469894" />
    <line x1="398" y1="497.36653096469888" x2="409" y2="516.41908984795657" />
    <polyline points="409,592.6293253809871 398,611.68188426424479 409,630.73444314750247" />
    <line x1="398" y1="649.78700203076" x2="409" y2="668.83956091401774" />
    <line x1="409" y1="783.15491421356364" x2="398" y2="802.20747309682133" />
    <polyline points="398,840.3125908633366 409,859.36514974659428 398,878.417708629852" />
    <line x1="409" y1="897.47026751310955" x2="398" y2="916.52282639636724" />
    <polyline points="420,230.63070659909184 409,249.68326548234947 420,268.73582436560713" />
    <line x1="409" y1="363.99861878189535" x2="420" y2="383.05117766515303" />
    <line x1="420" y1="421.1562954316683" x2="409" y2="440.208854314926" />
    <line x1="409" y1="440.20885431492593" x2="420" y2="459.26141319818362" />
    <line x1="420" y1="764.102355330306" x2="409" y2="783.15491421356364" />
    <line x1="420" y1="802.20747309682133" x2="409" y2="821.260031980079" />
    <line x1="420" y1="878.41770862985186" x2="409" y2="897.47026751310955" />
    <line x1="420" y1="916.52282639636724" x2="409" y2="935.57538527962492" />
    <line x1="431" y1="211.57814771583418" x2="420" y2="230.63070659909181" />
    <line x1="431" y1="287.78838324886476" x2="420" y2="306.84094213212245" />
    <line x1="420" y1="459.26141319818362" x2="431" y2="478.31397208144131" />
    <polyline points="420,497.36653096469888 431,516.41908984795657 420,535.47164873121426" />
    <polyline points="420,535.47164873121415 431,554.52420761447183 420,573.57676649772952 431,592.62932538098721" />
    <line x1="431" y1="630.73444314750247" x2="420" y2="649.78700203076016" />
    <line x1="420" y1="687.89211979727543" x2="431" y2="706.94467868053312" />
    <line x1="431" y1="859.36514974659428" x2="420" y2="878.417708629852" />
    <line x1="442" y1="192.52558883257652" x2="431" y2="211.57814771583415" />
    <polyline points="442,230.63070659909184 431,249.68326548234947 442,268.73582436560713" />
    <line x1="442" y1="268.73582436560707" x2="431" y2="287.78838324886476" />
    <line x1="442" y1="306.84094213212239" x2="431" y2="325.89350101538008" />
    <line x1="442" y1="344.94605989863771" x2="431" y2="363.9986187818954" />
    <line x1="431" y1="402.10373654841067" x2="442" y2="421.15629543166835" />
    <line x1="442" y1="421.1562954316683" x2="431" y2="440.208854314926" />
    <line x1="431" y1="440.20885431492593" x2="442" y2="459.26141319818362" />
    <line x1="431" y1="478.31397208144125" x2="442" y2="497.36653096469894" />
    <line x1="442" y1="497.36653096469888" x2="431" y2="516.41908984795657" />
    <polyline points="442,611.68188426424479 431,630.73444314750247 442,649.78700203076016" />
    <line x1="431" y1="668.83956091401774" x2="442" y2="687.89211979727543" />
    <line x1="431" y1="706.944678680533" x2="442" y2="725.99723756379069" />
    <line x1="442" y1="764.102355330306" x2="431" y2="783.15491421356364" />
    <line x1="431" y1="821.26003198007891" x2="442" y2="840.3125908633366" />
    <polyline points="431,897.47026751310955 442,916.52282639636724 431,935.57538527962492" />
    <line x1="453" y1="173.47302994931889" x2="442" y2="192.52558883257652" />
    <line x1="453" y1="363.99861878189535" x2="442" y2="383.05117766515303" />
    <line x1="442" y1="383.051177665153" x2="453" y2="402.10373654841067" />
    <polyline points="453,440.20885431492593 442,459.26141319818362 453,478.31397208144131" />
    <line x1="453" y1="516.41908984795657" x2="442" y2="535.47164873121426" />
    <polyline points="442,535.47164873121415 453,554.52420761447183 442,573.57676649772952" />
    <line x1="442" y1="687.89211979727543" x2="453" y2="706.94467868053312" />
    <polyline points="453,783.15491421356364 442,802.20747309682133 453,821.260031980079" />
    <line x1="442" y1="878.41770862985186" x2="453" y2="897.47026751310955" />
    <line x1="464" y1="154.42047106606123" x2="453" y2="173.47302994931886" />
    <polyline points="464,230.63070659909184 453,249.68326548234947 464,268.73582436560713" />
    <line x1="453" y1="287.78838324886476" x2="464" y2="306.84094213212245" />
    <line x1="464" y1="306.84094213212239" x2="453" y2="325.89350101538008" />
    <line x1="453" y1="325.89350101538" x2="464" y2="344.94605989863771" />
    <polyline points="464,383.051177665153 453,402.10373654841067 464,421.15629543166835" />
    <line x1="453" y1="478.31397208144125" x2="464" y2="497.36653096469894" />
    <line x1="453" y1="516.41908984795657" x2="464" y2="535.47164873121426" />
    <line x1="453" y1="592.6293253809871" x2="464" y2="611.68188426424479" />
    <polyline points="464,725.99723756379069 453,745.04979644704838 464,764.10235533030607" />
    <polyline points="453,897.47026751310955 464,916.52282639636724 453,935.57538527962492" />
    <line x1="453" y1="935.57538527962481" x2="464" y2="954.6279441628825" />
    <line x1="475" y1="135.36791218280357" x2="464" y2="154.4204710660612" />
    <polyline points="475,173.47302994931889 464,192.52558883257652 475,211.57814771583415" />
    <line x1="464" y1="421.1562954316683" x2="475" y2="440.208854314926" />
    <line x1="475" y1="440.20885431492593" x2="464" y2="459.26141319818362" />
    <line x1="464" y1="497.36653096469888" x2="475" y2="516.41908984795657" />
    <polyline points="475,554.52420761447183 464,573.57676649772952 475,592.62932538098721" />
    <line x1="475" y1="668.83956091401774" x2="464" y2="687.89211979727543" />
    <line x1="475" y1="783.15491421356364" x2="464" y2="802.20747309682133" />
    <line x1="464" y1="840.3125908633366" x2="475" y2="859.36514974659428" />
    <line x1="486" y1="116.31535329954592" x2="475" y2="135.36791218280357" />
    <polyline points="475,325.89350101538 486,344.94605989863771 475,363.9986187818954" />
    <line x1="475" y1="363.99861878189535" x2="486" y2="383.05117766515303" />
    <line x1="486" y1="383.051177665153" x2="475" y2="402.10373654841067" />
    <line x1="486" y1="421.1562954316683" x2="475" y2="440.208854314926" />
    <line x1="486" y1="459.26141319818362" x2="475" y2="478.31397208144131" />
    <line x1="475" y1="478.31397208144125" x2="486" y2="497.36653096469894" />
    <line x1="486" y1="687.89211979727543" x2="475" y2="706.94467868053312" />
    <polyline points="475,706.944678680533 486,725.99723756379069 475,745.04979644704838" />
    <line x1="486" y1="764.102355330306" x2="475" y2="783.15491421356364" />
    <line x1="486" y1="802.20747309682133" x2="475" y2="821.260031980079" />
    <line x1="475" y1="821.26003198007891" x2="486" y2="840.3125908633366" />
    <line x1="475" y1="935.57538527962481" x2="486" y2="954.6279441628825" />
    <line x1="497" y1="97.262794416288258" x2="486" y2="116.31535329954592" />
    <line x1="497" y1="135.36791218280357" x2="486" y2="154.4204710660612" />
    <line x1="486" y1="192.52558883257652" x2="497" y2="211.57814771583415" />
    <line x1="486" y1="230.63070659909184" x2="497" y2="249.68326548234947" />
    <line x1="486" y1="306.84094213212239" x2="497" y2="325.89350101538008" />
    <line x1="497" y1="363.99861878189535" x2="486" y2="383.05117766515303" />
    <line x1="497" y1="440.20885431492593" x2="486" y2="459.26141319818362" />
    <polyline points="486,497.36653096469888 497,516.41908984795657 486,535.47164873121426" />
    <polyline points="486,535.47164873121415 497,554.52420761447183 486,573.57676649772952 497,592.62932538098721" />
    <polyline points="497,592.6293253809871 486,611.68188426424479 497,630.73444314750247" />
    <line x1="486" y1="687.89211979727543" x2="497" y2="706.94467868053312" />
    <line x1="497" y1="783.15491421356364" x2="486" y2="802.20747309682133" />
    <polyline points="497,821.26003198007891 486,840.3125908633366 497,859.36514974659428 486,878.417708629852" />
    <line x1="486" y1="916.52282639636724" x2="497" y2="935.57538527962492" />
    <line x1="508" y1="78.210235533030612" x2="497" y2="97.262794416288273" />
    <line x1="497" y1="97.262794416288258" x2="508" y2="116.31535329954592" />
    <line x1="497" y1="211.57814771583418" x2="508" y2="230.63070659909181" />
    <line x1="497" y1="249.68326548234947" x2="508" y2="268.73582436560713" />
    <polyline points="508,268.73582436560707 497,287.78838324886476 508,306.84094213212245" />
    <line x1="508" y1="421.1562954316683" x2="497" y2="440.208854314926" />
    <line x1="508" y1="459.26141319818362" x2="497" y2="478.31397208144131" />
    <polyline points="508,649.78700203076 497,668.83956091401774 508,687.89211979727543" />
    <line x1="497" y1="706.944678680533" x2="508" y2="725.99723756379069" />
    <line x1="497" y1="897.47026751310955" x2="508" y2="916.52282639636724" />
    <line x1="519" y1="59.157676649772974" x2="508" y2="78.210235533030627" />
    <line x1="519" y1="135.36791218280357" x2="508" y2="154.4204710660612" />
    <line x1="508" y1="154.42047106606123" x2="519" y2="173.47302994931886" />
    <polyline points="519,173.47302994931889 508,192.52558883257652 519,211.57814771583415" />
    <polyline points="519,440.20885431492593 508,459.26141319818362 519,478.31397208144131" />
    <line x1="519" y1="478.31397208144125" x2="508" y2="497.36653096469894" />
    <polyline points="508,497.36653096469888 519,516.41908984795657 508,535.47164873121426" />
    <line x1="519" y1="592.6293253809871" x2="508" y2="611.68188426424479" />
    <line x1="519" y1="630.73444314750247" x2="508" y2="649.78700203076016" />
    <polyline points="508,840.3125908633366 519,859.36514974659428 508,878.417708629852" />
    <line x1="530" y1="40.10511776651532" x2="519" y2="59.157676649772966" />
    <line x1="530" y1="78.210235533030612" x2="519" y2="97.262794416288273" />
    <polyline points="519,97.262794416288258 530,116.31535329954592 519,135.36791218280357" />
    <line x1="519" y1="211.57814771583418" x2="530" y2="230.63070659909181" />
    <line x1="530" y1="268.73582436560707" x2="519" y2="287.78838324886476" />
    <line x1="530" y1="306.84094213212239" x2="519" y2="325.89350101538008" />
    <line x1="519" y1="325.89350101538" x2="530" y2="344.94605989863771" />
    <line x1="530" y1="421.1562954316683" x2="519" y2="440.208854314926" />
    <polyline points="530,497.36653096469888 519,516.41908984795657 530,535.47164873121426" />
    <line x1="530" y1="611.68188426424479" x2="519" y2="630.73444314750247" />
    <line x1="530" y1="687.89211979727543" x2="519" y2="706.94467868053312" />
    <line x1="530" y1="725.99723756379069" x2="519" y2="745.04979644704838" />
    <line x1="519" y1="783.15491421356364" x2="530" y2="802.20747309682133" />
    <line x1="530" y1="878.41770862985186" x2="519" y2="897.47026751310955" />
    <line x1="541" y1="21.052558883257667" x2="530" y2="40.10511776651532" />
    <line x1="541" y1="59.157676649772974" x2="530" y2="78.210235533030627" />
    <polyline points="541,97.262794416288258 530,116.31535329954592 541,135.36791218280357" />
    <line x1="530" y1="154.42047106606123" x2="541" y2="173.47302994931886" />
    <line x1="530" y1="192.52558883257652" x2="541" y2="211.57814771583415" />
    <line x1="541" y1="211.57814771583418" x2="530" y2="230.63070659909181" />
    <polyline points="530,230.63070659909184 541,249.68326548234947 530,268.73582436560713" />
    <line x1="541" y1="287.78838324886476" x2="530" y2="306.84094213212245" />
    <line x1="530" y1="306.84094213212239" x2="541" y2="325.89350101538008" />
    <line x1="541" y1="363.99861878189535" x2="530" y2="383.05117766515303" />
    <polyline points="541,440.20885431492593 530,459.26141319818362 541,478.31397208144131" />
    <line x1="541" y1="592.6293253809871" x2="530" y2="611.68188426424479" />
    <polyline points="541,668.83956091401774 530,687.89211979727543 541,706.94467868053312" />
    <line x1="541" y1="706.944678680533" x2="530" y2="725.99723756379069" />
    <line x1="541" y1="745.04979644704838" x2="530" y2="764.10235533030607" />
    <line x1="530" y1="764.102355330306" x2="541" y2="783.15491421356364" />
    <polyline points="530,840.3125908633366 541,859.36514974659428 530,878.417708629852" />
    <line x1="530" y1="878.41770862985186" x2="541" y2="897.47026751310955" />
    <line x1="530" y1="916.52282639636724" x2="541" y2="935.57538527962492" />
    <line x1="541" y1="935.57538527962481" x2="530" y2="954.6279441628825" />
    <line x1="552" y1="2.0000000000000195" x2="541" y2="21.052558883257667" />
    <line x1="541" y1="135.36791218280357" x2="552" y2="154.4204710660612" />
    <line x1="552" y1="344.94605989863771" x2="541" y2="363.9986187818954" />
    <line x1="552" y1="383.051177665153" x2="541" y2="402.10373654841067" />
    <line x1="552" y1="421.1562954316683" x2="541" y2="440.208854314926" />
    <line x1="541" y1="516.41908984795657" x2="552" y2="535.47164873121426" />
    <line x1="552" y1="535.47164873121415" x2="541" y2="554.52420761447183" />
    <line x1="552" y1="573.57676649772952" x2="541" y2="592.62932538098721" />
    <line x1="552" y1="725.99723756379069" x2="541" y2="745.04979644704838" />
    <line x1="541" y1="821.26003198007891" x2="552" y2="840.3125908633366" />
    <line x1="541" y1="897.47026751310955" x2="552" y2="916.52282639636724" />
    <line x1="552" y1="2.0000000000000195" x2="563" y2="21.052558883257667" />
    <line x1="552" y1="40.10511776651532" x2="563" y2="59.157676649772966" />
    <line x1="552" y1="78.210235533030612" x2="563" y2="97.262794416288273" />
    <polyline points="563,97.262794416288258 552,116.31535329954592 563,135.36791218280357" />
    <line x1="552" y1="154.42047106606123" x2="563" y2="173.47302994931886" />
    <line x1="552" y1="230.63070659909184" x2="563" y2="249.68326548234947" />
    <line x1="552" y1="268.73582436560707" x2="563" y2="287.78838324886476" />
    <line x1="552" y1="306.84094213212239" x2="563" y2="325.89350101538008" />
    <line x1="563" y1="325.89350101538" x2="552" y2="344.94605989863771" />
    <line x1="563" y1="363.99861878189535" x2="552" y2="383.05117766515303" />
    <line x1="563" y1="402.10373654841067" x2="552" y2="421.15629543166835" />
    <line x1="552" y1="421.1562954316683" x2="563" y2="440.208854314926" />
    <line x1="552" y1="497.36653096469888" x2="563" y2="516.41908984795657" />
    <polyline points="552,535.47164873121415 563,554.52420761447183 552,573.57676649772952 563,592.62932538098721" />
    <line x1="552" y1="802.20747309682133" x2="563" y2="821.260031980079" />
    <line x1="552" y1="916.52282639636724" x2="563" y2="935.57538527962492" />
    <line x1="563" y1="21.052558883257667" x2="574" y2="40.10511776651532" />
    <line x1="563" y1="59.157676649772974" x2="574" y2="78.210235533030627" />
    <line x1="563" y1="135.36791218280357" x2="574" y2="154.4204710660612" />
    <line x1="563" y1="173.47302994931889" x2="574" y2="192.52558883257652" />
    <line x1="563" y1="211.57814771583418" x2="574" y2="230.63070659909181" />
    <line x1="563" y1="287.78838324886476" x2="574" y2="306.84094213212245" />
    <line x1="574" y1="344.94605989863771" x2="563" y2="363.9986187818954" />
    <line x1="574" y1="383.051177665153" x2="563" y2="402.10373654841067" />
    <line x1="563" y1="478.31397208144125" x2="574" y2="497.36653096469894" />
    <line x1="563" y1="516.41908984795657" x2="574" y2="535.47164873121426" />
    <line x1="563" y1="592.6293253809871" x2="574" y2="611.68188426424479" />
    <line x1="574" y1="878.41770862985186" x2="563" y2="897.47026751310955" />
    <line x1="574" y1="916.52282639636724" x2="563" y2="935.57538527962492" />
    <line x1="574" y1="40.10511776651532" x2="585" y2="59.157676649772966" />
    <line x1="574" y1="78.210235533030612" x2="585" y2="97.262794416288273" />
    <line x1="574" y1="116.31535329954592" x2="585" y2="135.36791218280357" />
    <line x1="574" y1="154.42047106606123" x2="585" y2="173.47302994931886" />
    <line x1="574" y1="192.52558883257652" x2="585" y2="211.57814771583415" />
    <line x1="585" y1="287.78838324886476" x2="574" y2="306.84094213212245" />
    <line x1="574" y1="306.84094213212239" x2="585" y2="325.89350101538008" />
    <line x1="585" y1="325.89350101538" x2="574" y2="344.94605989863771" />
    <line x1="585" y1="363.99861878189535" x2="574" y2="383.05117766515303" />
    <line x1="585" y1="402.10373654841067" x2="574" y2="421.15629543166835" />
    <line x1="585" y1="440.20885431492593" x2="574" y2="459.26141319818362" />
    <line x1="585" y1="478.31397208144125" x2="574" y2="497.36653096469894" />
    <line x1="574" y1="497.36653096469888" x2="585" y2="516.41908984795657" />
    <polyline points="585,554.52420761447183 574,573.57676649772952 585,592.62932538098721" />
    <line x1="574" y1="611.68188426424479" x2="585" y2="630.73444314750247" />
    <line x1="574" y1="687.89211979727543" x2="585" y2="706.94467868053312" />
    <line x1="585" y1="706.944678680533" x2="574" y2="725.99723756379069" />
    <line x1="585" y1="859.36514974659428" x2="574" y2="878.417708629852" />
    <line x1="585" y1="59.157676649772974" x2="596" y2="78.210235533030627" />
    <line x1="585" y1="97.262794416288258" x2="596" y2="116.31535329954592" />
    <line x1="585" y1="135.36791218280357" x2="596" y2="154.4204710660612" />
    <line x1="596" y1="459.26141319818362" x2="585" y2="478.31397208144131" />
    <line x1="596" y1="497.36653096469888" x2="585" y2="516.41908984795657" />
    <line x1="585" y1="592.6293253809871" x2="596" y2="611.68188426424479" />
    <line x1="585" y1="630.73444314750247" x2="596" y2="649.78700203076016" />
    <line x1="585" y1="821.26003198007891" x2="596" y2="840.3125908633366" />
    <polyline points="596,878.41770862985186 585,897.47026751310955 596,916.52282639636724 585,935.57538527962492" />
    <line x1="585" y1="935.57538527962481" x2="596" y2="954.6279441628825" />
    <line x1="596" y1="78.210235533030612" x2="607" y2="97.262794416288273" />
    <line x1="596" y1="192.52558883257652" x2="607" y2="211.57814771583415" />
    <line x1="607" y1="211.57814771583418" x2="596" y2="230.63070659909181" />
    <line x1="596" y1="306.84094213212239" x2="607" y2="325.89350101538008" />
    <polyline points="607,325.89350101538 596,344.94605989863771 607,363.9986187818954" />
    <line x1="607" y1="363.99861878189535" x2="596" y2="383.05117766515303" />
    <line x1="596" y1="383.051177665153" x2="607" y2="402.10373654841067" />
    <line x1="596" y1="421.1562954316683" x2="607" y2="440.208854314926" />
    <line x1="607" y1="516.41908984795657" x2="596" y2="535.47164873121426" />
    <polyline points="596,649.78700203076 607,668.83956091401774 596,687.89211979727543" />
    <line x1="596" y1="725.99723756379069" x2="607" y2="745.04979644704838" />
    <line x1="596" y1="764.102355330306" x2="607" y2="783.15491421356364" />
    <line x1="607" y1="897.47026751310955" x2="596" y2="916.52282639636724" />
    <polyline points="607,97.262794416288258 618,116.31535329954592 607,135.36791218280357 618,154.4204710660612" />
    <line x1="607" y1="173.47302994931889" x2="618" y2="192.52558883257652" />
    <line x1="607" y1="249.68326548234947" x2="618" y2="268.73582436560713" />
    <line x1="618" y1="306.84094213212239" x2="607" y2="325.89350101538008" />
    <line x1="607" y1="363.99861878189535" x2="618" y2="383.05117766515303" />
    <line x1="607" y1="402.10373654841067" x2="618" y2="421.15629543166835" />
    <line x1="618" y1="421.1562954316683" x2="607" y2="440.208854314926" />
    <line x1="607" y1="440.20885431492593" x2="618" y2="459.26141319818362" />
    <line x1="618" y1="573.57676649772952" x2="607" y2="592.62932538098721" />
    <line x1="607" y1="630.73444314750247" x2="618" y2="649.78700203076016" />
    <line x1="618" y1="649.78700203076" x2="607" y2="668.83956091401774" />
    <line x1="607" y1="706.944678680533" x2="618" y2="725.99723756379069" />
    <line x1="618" y1="916.52282639636724" x2="607" y2="935.57538527962492" />
    <line x1="618" y1="116.31535329954592" x2="629" y2="135.36791218280357" />
    <line x1="618" y1="154.42047106606123" x2="629" y2="173.47302994931886" />
    <polyline points="618,230.63070659909184 629,249.68326548234947 618,268.73582436560713" />
    <polyline points="629,325.89350101538 618,344.94605989863771 629,363.9986187818954" />
    <line x1="618" y1="383.051177665153" x2="629" y2="402.10373654841067" />
    <polyline points="618,535.47164873121415 629,554.52420761447183 618,573.57676649772952" />
    <polyline points="629,592.6293253809871 618,611.68188426424479 629,630.73444314750247" />
    <polyline points="629,668.83956091401774 618,687.89211979727543 629,706.94467868053312" />
    <line x1="629" y1="745.04979644704838" x2="618" y2="764.10235533030607" />
    <polyline points="618,764.102355330306 629,783.15491421356364 618,802.20747309682133 629,821.260031980079" />
    <line x1="618" y1="840.3125908633366" x2="629" y2="859.36514974659428" />
    <line x1="629" y1="897.47026751310955" x2="618" y2="916.52282639636724" />
    <line x1="629" y1="935.57538527962481" x2="618" y2="954.6279441628825" />
    <line x1="629" y1="135.36791218280357" x2="640" y2="154.4204710660612" />
    <line x1="629" y1="211.57814771583418" x2="640" y2="230.63070659909181" />
    <line x1="640" y1="268.73582436560707" x2="629" y2="287.78838324886476" />
    <line x1="640" y1="306.84094213212239" x2="629" y2="325.89350101538008" />
    <line x1="629" y1="363.99861878189535" x2="640" y2="383.05117766515303" />
    <line x1="640" y1="421.1562954316683" x2="629" y2="440.208854314926" />
    <polyline points="629,440.20885431492593 640,459.26141319818362 629,478.31397208144131" />
    <line x1="629" y1="478.31397208144125" x2="640" y2="497.36653096469894" />
    <line x1="629" y1="516.41908984795657" x2="640" y2="535.47164873121426" />
    <polyline points="629,554.52420761447183 640,573.57676649772952 629,592.62932538098721" />
    <line x1="629" y1="630.73444314750247" x2="640" y2="649.78700203076016" />
    <polyline points="629,706.944678680533 640,725.99723756379069 629,745.04979644704838" />
    <line x1="629" y1="783.15491421356364" x2="640" y2="802.20747309682133" />
    <line x1="629" y1="821.26003198007891" x2="640" y2="840.3125908633366" />
    <line x1="640" y1="878.41770862985186" x2="629" y2="897.47026751310955" />
    <line x1="640" y1="916.52282639636724" x2="629" y2="935.57538527962492" />
    <line x1="640" y1="154.42047106606123" x2="651" y2="173.47302994931886" />
    <polyline points="651,173.47302994931889 640,192.52558883257652 651,211.57814771583415" />
    <polyline points="651,325.89350101538 640,344.94605989863771 651,363.9986187818954" />
    <line x1="640" y1="535.47164873121415" x2="651" y2="554.52420761447183" />
    <polyline points="651,592.6293253809871 640,611.68188426424479 651,630.73444314750247 640,649.78700203076016" />
    <line x1="651" y1="668.83956091401774" x2="640" y2="687.89211979727543" />
    <line x1="651" y1="745.04979644704838" x2="640" y2="764.10235533030607" />
    <line x1="640" y1="764.102355330306" x2="651" y2="783.15491421356364" />
    <polyline points="640,840.3125908633366 651,859.36514974659428 640,878.417708629852" />
    <line x1="651" y1="935.57538527962481" x2="640" y2="954.6279441628825" />
    <line x1="651" y1="173.47302994931889" x2="662" y2="192.52558883257652" />
    <line x1="651" y1="211.57814771583418" x2="662" y2="230.63070659909181" />
    <polyline points="662,230.63070659909184 651,249.68326548234947 662,268.73582436560713" />
    <line x1="662" y1="344.94605989863771" x2="651" y2="363.9986187818954" />
    <line x1="651" y1="402.10373654841067" x2="662" y2="421.15629543166835" />
    <line x1="662" y1="421.1562954316683" x2="651" y2="440.208854314926" />
    <line x1="651" y1="478.31397208144125" x2="662" y2="497.36653096469894" />
    <line x1="662" y1="497.36653096469888" x2="651" y2="516.41908984795657" />
    <polyline points="651,554.52420761447183 662,573.57676649772952 651,592.62932538098721" />
    <line x1="662" y1="649.78700203076" x2="651" y2="668.83956091401774" />
    <line x1="662" y1="687.89211979727543" x2="651" y2="706.94467868053312" />
    <polyline points="651,706.944678680533 662,725.99723756379069 651,745.04979644704838 662,764.10235533030607" />
    <line x1="651" y1="859.36514974659428" x2="662" y2="878.417708629852" />
    <polyline points="651,897.47026751310955 662,916.52282639636724 651,935.57538527962492" />
    <line x1="662" y1="192.52558883257652" x2="673" y2="211.57814771583415" />
    <line x1="662" y1="306.84094213212239" x2="673" y2="325.89350101538008" />
    <line x1="673" y1="325.89350101538" x2="662" y2="344.94605989863771" />
    <line x1="673" y1="363.99861878189535" x2="662" y2="383.05117766515303" />
    <line x1="673" y1="440.20885431492593" x2="662" y2="459.26141319818362" />
    <line x1="673" y1="554.52420761447183" x2="662" y2="573.57676649772952" />
    <polyline points="673,592.6293253809871 662,611.68188426424479 673,630.73444314750247" />
    <line x1="673" y1="668.83956091401774" x2="662" y2="687.89211979727543" />
    <polyline points="662,764.102355330306 673,783.15491421356364 662,802.20747309682133" />
    <line x1="662" y1="840.3125908633366" x2="673" y2="859.36514974659428" />
    <line x1="673" y1="211.57814771583418" x2="684" y2="230.63070659909181" />
    <line x1="673" y1="249.68326548234947" x2="684" y2="268.73582436560713" />
    <polyline points="684,268.73582436560707 673,287.78838324886476 684,306.84094213212245" />
    <polyline points="684,383.051177665153 673,402.10373654841067 684,421.15629543166835" />
    <line x1="684" y1="421.1562954316683" x2="673" y2="440.208854314926" />
    <line x1="673" y1="478.31397208144125" x2="684" y2="497.36653096469894" />
    <line x1="684" y1="573.57676649772952" x2="673" y2="592.62932538098721" />
    <line x1="684" y1="649.78700203076" x2="673" y2="668.83956091401774" />
    <line x1="684" y1="687.89211979727543" x2="673" y2="706.94467868053312" />
    <polyline points="673,706.944678680533 684,725.99723756379069 673,745.04979644704838" />
    <line x1="673" y1="821.26003198007891" x2="684" y2="840.3125908633366" />
    <line x1="673" y1="859.36514974659428" x2="684" y2="878.417708629852" />
    <polyline points="684,878.41770862985186 673,897.47026751310955 684,916.52282639636724 673,935.57538527962492" />
    <line x1="684" y1="230.63070659909184" x2="695" y2="249.68326548234947" />
    <line x1="684" y1="306.84094213212239" x2="695" y2="325.89350101538008" />
    <line x1="695" y1="440.20885431492593" x2="684" y2="459.26141319818362" />
    <line x1="684" y1="535.47164873121415" x2="695" y2="554.52420761447183" />
    <line x1="695" y1="706.944678680533" x2="684" y2="725.99723756379069" />
    <polyline points="684,764.102355330306 695,783.15491421356364 684,802.20747309682133 695,821.260031980079" />
    <line x1="684" y1="840.3125908633366" x2="695" y2="859.36514974659428" />
    <line x1="695" y1="935.57538527962481" x2="684" y2="954.6279441628825" />
    <line x1="695" y1="249.68326548234947" x2="706" y2="268.73582436560713" />
    <polyline points="706,268.73582436560707 695,287.78838324886476 706,306.84094213212245" />
    <line x1="706" y1="459.26141319818362" x2="695" y2="478.31397208144131" />
    <polyline points="706,535.47164873121415 695,554.52420761447183 706,573.57676649772952" />
    <polyline points="706,649.78700203076 695,668.83956091401774 706,687.89211979727543" />
    <line x1="695" y1="821.26003198007891" x2="706" y2="840.3125908633366" />
    <polyline points="706,878.41770862985186 695,897.47026751310955 706,916.52282639636724 695,935.57538527962492" />
    <line x1="706" y1="268.73582436560707" x2="717" y2="287.78838324886476" />
    <line x1="717" y1="363.99861878189535" x2="706" y2="383.05117766515303" />
    <line x1="717" y1="402.10373654841067" x2="706" y2="421.15629543166835" />
    <line x1="706" y1="421.1562954316683" x2="717" y2="440.208854314926" />
    <line x1="706" y1="459.26141319818362" x2="717" y2="478.31397208144131" />
    <line x1="706" y1="497.36653096469888" x2="717" y2="516.41908984795657" />
    <polyline points="717,592.6293253809871 706,611.68188426424479 717,630.73444314750247" />
    <polyline points="706,725.99723756379069 717,745.04979644704838 706,764.10235533030607" />
    <line x1="717" y1="287.78838324886476" x2="728" y2="306.84094213212245" />
    <line x1="728" y1="306.84094213212239" x2="717" y2="325.89350101538008" />
    <line x1="728" y1="344.94605989863771" x2="717" y2="363.9986187818954" />
    <line x1="717" y1="440.20885431492593" x2="728" y2="459.26141319818362" />
    <line x1="717" y1="478.31397208144125" x2="728" y2="497.36653096469894" />
    <line x1="717" y1="630.73444314750247" x2="728" y2="649.78700203076016" />
    <line x1="728" y1="649.78700203076" x2="717" y2="668.83956091401774" />
    <line x1="717" y1="706.944678680533" x2="728" y2="725.99723756379069" />
    <line x1="728" y1="764.102355330306" x2="717" y2="783.15491421356364" />
    <line x1="728" y1="802.20747309682133" x2="717" y2="821.260031980079" />
    <line x1="717" y1="821.26003198007891" x2="728" y2="840.3125908633366" />
    <line x1="717" y1="897.47026751310955" x2="728" y2="916.52282639636724" />
    <line x1="717" y1="935.57538527962481" x2="728" y2="954.6279441628825" />
    <line x1="728" y1="306.84094213212239" x2="739" y2="325.89350101538008" />
    <line x1="728" y1="383.051177665153" x2="739" y2="402.10373654841067" />
    <line x1="728" y1="421.1562954316683" x2="739" y2="440.208854314926" />
    <line x1="728" y1="611.68188426424479" x2="739" y2="630.73444314750247" />
    <line x1="739" y1="706.944678680533" x2="728" y2="725.99723756379069" />
    <line x1="739" y1="783.15491421356364" x2="728" y2="802.20747309682133" />
    <line x1="739" y1="859.36514974659428" x2="728" y2="878.417708629852" />
    <line x1="728" y1="878.41770862985186" x2="739" y2="897.47026751310955" />
    <line x1="739" y1="325.89350101538" x2="750" y2="344.94605989863771" />
    <line x1="739" y1="363.99861878189535" x2="750" y2="383.05117766515303" />
    <line x1="739" y1="402.10373654841067" x2="750" y2="421.15629543166835" />
    <polyline points="739,440.20885431492593 750,459.26141319818362 739,478.31397208144131" />
    <line x1="739" y1="478.31397208144125" x2="750" y2="497.36653096469894" />
    <line x1="750" y1="497.36653096469888" x2="739" y2="516.41908984795657" />
    <line x1="750" y1="535.47164873121415" x2="739" y2="554.52420761447183" />
    <line x1="750" y1="649.78700203076" x2="739" y2="668.83956091401774" />
    <line x1="750" y1="687.89211979727543" x2="739" y2="706.94467868053312" />
    <line x1="750" y1="725.99723756379069" x2="739" y2="745.04979644704838" />
    <line x1="750" y1="802.20747309682133" x2="739" y2="821.260031980079" />
    <line x1="739" y1="935.57538527962481" x2="750" y2="954.6279441628825" />
    <line x1="750" y1="344.94605989863771" x2="761" y2="363.9986187818954" />
    <polyline points="750,383.051177665153 761,402.10373654841067 750,421.15629543166835" />
    <line x1="761" y1="516.41908984795657" x2="750" y2="535.47164873121426" />
    <polyline points="761,554.52420761447183 750,573.57676649772952 761,592.62932538098721" />
    <polyline points="761,592.6293253809871 750,611.68188426424479 761,630.73444314750247 750,649.78700203076016" />
    <line x1="761" y1="668.83956091401774" x2="750" y2="687.89211979727543" />
    <line x1="761" y1="706.944678680533" x2="750" y2="725.99723756379069" />
    <line x1="761" y1="745.04979644704838" x2="750" y2="764.10235533030607" />
    <line x1="761" y1="783.15491421356364" x2="750" y2="802.20747309682133" />
    <polyline points="750,840.3125908633366 761,859.36514974659428 750,878.417708629852" />
    <line x1="750" y1="878.41770862985186" x2="761" y2="897.47026751310955" />
    <line x1="750" y1="916.52282639636724" x2="761" y2="935.57538527962492" />
    <line x1="761" y1="363.99861878189535" x2="772" y2="383.05117766515303" />
    <line x1="772" y1="421.1562954316683" x2="761" y2="440.208854314926" />
    <polyline points="761,440.20885431492593 772,459.26141319818362 761,478.31397208144131" />
    <line x1="772" y1="535.47164873121415" x2="761" y2="554.52420761447183" />
    <line x1="772" y1="611.68188426424479" x2="761" y2="630.73444314750247" />
    <line x1="772" y1="687.89211979727543" x2="761" y2="706.94467868053312" />
    <line x1="772" y1="725.99723756379069" x2="761" y2="745.04979644704838" />
    <line x1="772" y1="764.102355330306" x2="761" y2="783.15491421356364" />
    <line x1="761" y1="897.47026751310955" x2="772" y2="916.52282639636724" />
    <line x1="772" y1="383.051177665153" x2="783" y2="402.10373654841067" />
    <line x1="783" y1="478.31397208144125" x2="772" y2="497.36653096469894" />
    <line x1="772" y1="497.36653096469888" x2="783" y2="516.41908984795657" />
    <polyline points="783,554.52420761447183 772,573.57676649772952 783,592.62932538098721" />
    <line x1="783" y1="706.944678680533" x2="772" y2="725.99723756379069" />
    <line x1="772" y1="802.20747309682133" x2="783" y2="821.260031980079" />
    <line x1="772" y1="878.41770862985186" x2="783" y2="897.47026751310955" />
    <line x1="772" y1="916.52282639636724" x2="783" y2="935.57538527962492" />
    <line x1="783" y1="402.10373654841067" x2="794" y2="421.15629543166835" />
    <line x1="794" y1="421.1562954316683" x2="783" y2="440.208854314926" />
    <line x1="794" y1="459.26141319818362" x2="783" y2="478.31397208144131" />
    <line x1="783" y1="516.41908984795657" x2="794" y2="535.47164873121426" />
    <line x1="794" y1="535.47164873121415" x2="783" y2="554.52420761447183" />
    <line x1="794" y1="687.89211979727543" x2="783" y2="706.94467868053312" />
    <line x1="783" y1="706.944678680533" x2="794" y2="725.99723756379069" />
    <line x1="783" y1="783.15491421356364" x2="794" y2="802.20747309682133" />
    <line x1="783" y1="821.26003198007891" x2="794" y2="840.3125908633366" />
    <polyline points="794,878.41770862985186 783,897.47026751310955 794,916.52282639636724" />
    <line x1="794" y1="421.1562954316683" x2="805" y2="440.208854314926" />
    <line x1="805" y1="440.20885431492593" x2="794" y2="459.26141319818362" />
    <line x1="805" y1="478.31397208144125" x2="794" y2="497.36653096469894" />
    <line x1="805" y1="516.41908984795657" x2="794" y2="535.47164873121426" />
    <line x1="805" y1="554.52420761447183" x2="794" y2="573.57676649772952" />
    <line x1="805" y1="668.83956091401774" x2="794" y2="687.89211979727543" />
    <line x1="794" y1="802.20747309682133" x2="805" y2="821.260031980079" />
    <polyline points="794,840.3125908633366 805,859.36514974659428 794,878.417708629852" />
    <line x1="794" y1="916.52282639636724" x2="805" y2="935.57538527962492" />
    <line x1="805" y1="935.57538527962481" x2="794" y2="954.6279441628825" />
    <line x1="805" y1="440.20885431492593" x2="816" y2="459.26141319818362" />
    <line x1="816" y1="497.36653096469888" x2="805" y2="516.41908984795657" />
    <polyline points="805,592.6293253809871 816,611.68188426424479 805,630.73444314750247" />
    <line x1="816" y1="687.89211979727543" x2="805" y2="706.94467868053312" />
    <polyline points="805,706.944678680533 816,725.99723756379069 805,745.04979644704838" />
    <line x1="805" y1="783.15491421356364" x2="816" y2="802.20747309682133" />
    <line x1="816" y1="459.26141319818362" x2="827" y2="478.31397208144131" />
    <line x1="827" y1="516.41908984795657" x2="816" y2="535.47164873121426" />
    <line x1="816" y1="573.57676649772952" x2="827" y2="592.62932538098721" />
    <line x1="827" y1="630.73444314750247" x2="816" y2="649.78700203076016" />
    <polyline points="816,649.78700203076 827,668.83956091401774 816,687.89211979727543" />
    <line x1="816" y1="764.102355330306" x2="827" y2="783.15491421356364" />
    <line x1="827" y1="859.36514974659428" x2="816" y2="878.417708629852" />
    <line x1="827" y1="478.31397208144125" x2="838" y2="497.36653096469894" />
    <line x1="838" y1="497.36653096469888" x2="827" y2="516.41908984795657" />
    <line x1="838" y1="535.47164873121415" x2="827" y2="554.52420761447183" />
    <line x1="827" y1="592.6293253809871" x2="838" y2="611.68188426424479" />
    <line x1="838" y1="687.89211979727543" x2="827" y2="706.94467868053312" />
    <line x1="827" y1="745.04979644704838" x2="838" y2="764.10235533030607" />
    <polyline points="827,783.15491421356364 838,802.20747309682133 827,821.260031980079" />
    <polyline points="827,821.26003198007891 838,840.3125908633366 827,859.36514974659428" />
    <polyline points="838,878.41770862985186 827,897.47026751310955 838,916.52282639636724 827,935.57538527962492" />
    <polyline points="838,497.36653096469888 849,516.41908984795657 838,535.47164873121426" />
    <line x1="838" y1="649.78700203076" x2="849" y2="668.83956091401774" />
    <line x1="838" y1="725.99723756379069" x2="849" y2="745.04979644704838" />
    <line x1="849" y1="783.15491421356364" x2="838" y2="802.20747309682133" />
    <line x1="849" y1="859.36514974659428" x2="838" y2="878.417708629852" />
    <line x1="849" y1="516.41908984795657" x2="860" y2="535.47164873121426" />
    <line x1="860" y1="535.47164873121415" x2="849" y2="554.52420761447183" />
    <line x1="860" y1="687.89211979727543" x2="849" y2="706.94467868053312" />
    <line x1="849" y1="745.04979644704838" x2="860" y2="764.10235533030607" />
    <line x1="860" y1="764.102355330306" x2="849" y2="783.15491421356364" />
    <line x1="860" y1="802.20747309682133" x2="849" y2="821.260031980079" />
    <polyline points="860,878.41770862985186 849,897.47026751310955 860,916.52282639636724 849,935.57538527962492" />
    <line x1="860" y1="535.47164873121415" x2="871" y2="554.52420761447183" />
    <line x1="860" y1="611.68188426424479" x2="871" y2="630.73444314750247" />
    <line x1="860" y1="649.78700203076" x2="871" y2="668.83956091401774" />
    <line x1="871" y1="706.944678680533" x2="860" y2="725.99723756379069" />
    <line x1="871" y1="554.52420761447183" x2="882" y2="573.57676649772952" />
    <line x1="871" y1="592.6293253809871" x2="882" y2="611.68188426424479" />
    <polyline points="882,764.102355330306 871,783.15491421356364 882,802.20747309682133" />
    <line x1="882" y1="916.52282639636724" x2="871" y2="935.57538527962492" />
    <line x1="882" y1="573.57676649772952" x2="893" y2="592.62932538098721" />
    <polyline points="882,611.68188426424479 893,630.73444314750247 882,649.78700203076016" />
    <line x1="882" y1="649.78700203076" x2="893" y2="668.83956091401774" />
    <line x1="893" y1="745.04979644704838" x2="882" y2="764.10235533030607" />
    <line x1="882" y1="802.20747309682133" x2="893" y2="821.260031980079" />
    <line x1="893" y1="821.26003198007891" x2="882" y2="840.3125908633366" />
    <line x1="893" y1="592.6293253809871" x2="904" y2="611.68188426424479" />
    <line x1="904" y1="687.89211979727543" x2="893" y2="706.94467868053312" />
    <line x1="904" y1="764.102355330306" x2="893" y2="783.15491421356364" />
    <polyline points="904,840.3125908633366 893,859.36514974659428 904,878.417708629852" />
    <line x1="893" y1="897.47026751310955" x2="904" y2="916.52282639636724" />
    <line x1="904" y1="611.68188426424479" x2="915" y2="630.73444314750247" />
    <line x1="915" y1="706.944678680533" x2="904" y2="725.99723756379069" />
    <line x1="904" y1="916.52282639636724" x2="915" y2="935.57538527962492" />
    <line x1="915" y1="935.57538527962481" x2="904" y2="954.6279441628825" />
    <line x1="915" y1="630.73444314750247" x2="926" y2="649.78700203076016" />
    <line x1="915" y1="668.83956091401774" x2="926" y2="687.89211979727543" />
    <line x1="915" y1="745.04979644704838" x2="926" y2="764.10235533030607" />
    <line x1="915" y1="783.15491421356364" x2="926" y2="802.20747309682133" />
    <line x1="915" y1="859.36514974659428" x2="926" y2="878.417708629852" />
    <line x1="926" y1="649.78700203076" x2="937" y2="668.83956091401774" />
    <polyline points="937,706.944678680533 926,725.99723756379069 937,745.04979644704838" />
    <line x1="926" y1="764.102355330306" x2="937" y2="783.15491421356364" />
    <line x1="937" y1="668.83956091401774" x2="948" y2="687.89211979727543" />
    <polyline points="948,725.99723756379069 937,745.04979644704838 948,764.10235533030607" />
    <polyline points="937,821.26003198007891 948,840.3125908633366 937,859.36514974659428" />
    <line x1="948" y1="878.41770862985186" x2="937" y2="897.47026751310955" />
    <line x1="948" y1="916.52282639636724" x2="937" y2="935.57538527962492" />
    <line x1="937" y1="935.57538527962481" x2="948" y2="954.6279441628825" />
    <line x1="948" y1="687.89211979727543" x2="959" y2="706.94467868053312" />
    <polyline points="948,764.102355330306 959,783.15491421356364 948,802.20747309682133" />
    <line x1="959" y1="821.26003198007891" x2="948" y2="840.3125908633366" />
    <line x1="959" y1="859.36514974659428" x2="948" y2="878.417708629852" />
    <line x1="959" y1="897.47026751310955" x2="948" y2="916.52282639636724" />
    <polyline points="959,706.944678680533 970,725.99723756379069 959,745.04979644704838" />
    <line x1="970" y1="916.52282639636724" x2="959" y2="935.57538527962492" />
    <line x1="959" y1="935.57538527962481" x2="970" y2="954.6279441628825" />
    <line x1="970" y1="725.99723756379069" x2="981" y2="745.04979644704838" />
    <line x1="970" y1="802.20747309682133" x2="981" y2="821.260031980079" />
    <polyline points="981,821.26003198007891 970,840.3125908633366 981,859.36514974659428 970,878.417708629852" />
    <line x1="981" y1="745.04979644704838" x2="992" y2="764.10235533030607" />
    <polyline points="981,783.15491421356364 992,802.20747309682133 981,821.260031980079" />
    <line x1="981" y1="821.26003198007891" x2="992" y2="840.3125908633366" />
    <line x1="992" y1="878.41770862985186" x2="981" y2="897.47026751310955" />
    <line x1="992" y1="764.102355330306" x2="1003" y2="783.15491421356364" />
    <line x1="1003" y1="859.36514974659428" x2="992" y2="878.417708629852" />
    <line x1="1003" y1="897.47026751310955" x2="992" y2="916.52282639636724" />
    <polyline points="1003,783.15491421356364 1014,802.20747309682133 1003,821.260031980079" />
    <line x1="1003" y1="821.26003198007891" x2="1014" y2="840.3125908633366" />
    <line x1="1014" y1="916.52282639636724" x2="1003" y2="935.57538527962492" />
    <line x1="1014" y1="802.20747309682133" x2="1025" y2="821.260031980079" />
    <line x1="1014" y1="840.3125908633366" x2="1025" y2="859.36514974659428" />
    <line x1="1025" y1="897.47026751310955" x2="1014" y2="916.52282639636724" />
    <line x1="1025" y1="821.26003198007891" x2="1036" y2="840.3125908633366" />
    <line x1="1025" y1="859.36514974659428" x2="1036" y2="878.417708629852" />
    <line x1="1036" y1="840.3125908633366" x2="1047" y2="859.36514974659428" />
    <polyline points="1047,897.47026751310955 1036,916.52282639636724 1047,935.57538527962492" />
    <line x1="1047" y1="935.57538527962481" x2="1036" y2="954.6279441628825" />
    <line x1="1047" y1="859.36514974659428" x2="1058" y2="878.417708629852" />
    <line x1="1058" y1="878.41770862985186" x2="1069" y2="897.47026751310955" />
    <line x1="1058" y1="916.52282639636724" x2="1069" y2="935.57538527962492" />
    <line x1="1069" y1="897.47026751310955" x2="1080" y2="916.52282639636724" />
    <line x1="1069" y1="935.57538527962481" x2="1080" y2="954.6279441628825" />
    <line x1="1080" y1="916.52282639636724" x2="1091" y2="935.57538527962492" />
    <line x1="1091" y1="935.57538527962481" x2="1102" y2="954.6279441628825" />
  </g>
  <polyline fill="none" stroke="#ff0000" stroke-width="2" stroke-linecap="square" stroke-linejoin="round" points="271.5,487.84025152307009 277,497.36653096469888 255,535.47164873121426 260.5,544.997928172843 282.5,544.997928172843 293.5,564.05048705610068 315.5,564.05048705610068 326.5,583.10304593935837 337.5,583.10304593935837 348.5,564.05048705610068 359.5,564.05048705610068 387,611.68188426424479 381.5,621.20816370587363 359.5,621.20816370587363 354,630.73444314750247 359.5,640.26072258913132 414.5,640.26072258913132 420,630.73444314750247 409,611.68188426424479 414.5,602.15560482261594 436.5,602.15560482261594 442,592.62932538098721 431,573.57676649772952 442,554.52420761447183 431,535.47164873121426 447.5,506.89281040632773 458.5,506.89281040632773 469.5,525.94536928958541 480.5,525.94536928958541 486,516.41908984795657 464,478.31397208144125 502.5,411.63001599003951 513.5,411.63001599003951 519,421.1562954316683 486,478.31397208144125 508,516.41908984795657 497,535.47164873121426 502.5,544.997928172843 535.5,544.997928172843 541,535.47164873121426 530,516.41908984795657 535.5,506.89281040632773 546.5,506.89281040632773 574,554.52420761447183 563,573.57676649772952 590.5,621.20816370587363 612.5,621.20816370587363 629,649.78700203076 607,687.89211979727543 629,725.99723756379069 607,764.102355330306 618,783.15491421356364 612.5,792.68119365519249 535.5,792.68119365519249 524.5,773.6286347719348 491.5,773.6286347719348 469.5,811.73375253845018 458.5,811.73375253845018 453,802.20747309682133 464,783.15491421356364 458.5,773.6286347719348 447.5,773.6286347719348 436.5,792.68119365519249 414.5,792.68119365519249 398,821.26003198007891 403.5,830.78631142170775 414.5,830.78631142170775 425.5,811.73375253845018 436.5,811.73375253845018 447.5,830.78631142170775 469.5,830.78631142170775 486,859.36514974659428 480.5,868.89142918822313 436.5,868.89142918822313 431,878.41770862985186 453,916.52282639636724 436.5,945.10166472125366 359.5,945.10166472125366 354,935.57538527962481 359.5,926.04910583799608 381.5,926.04910583799608 387,916.52282639636724 381.5,906.99654695473839 348.5,906.99654695473839 326.5,945.10166472125366 117.5,945.10166472125366 112,935.57538527962481 145,878.41770862985186 123,840.3125908633366 134,821.26003198007891 128.5,811.73375253845018 106.5,811.73375253845018 101,802.20747309682133 106.5,792.68119365519249 128.5,792.68119365519249 156,745.04979644704838 145,725.99723756379069 150.5,716.47095812216185 194.5,716.47095812216185 211,687.89211979727543 189,649.78700203076 194.5,640.26072258913132 216.5,640.26072258913132 222,630.73444314750247 211,611.68188426424479 227.5,583.10304593935837 238.5,583.10304593935837 249.5,602.15560482261594 282.5,602.15560482261594 293.5,583.10304593935837 304.5,583.10304593935837 321,611.68188426424479 315.5,621.20816370587363 293.5,621.20816370587363 288,630.73444314750247 293.5,640.26072258913132 315.5,640.26072258913132 326.5,659.31328147238889 392.5,659.31328147238889 403.5,678.36584035564658 425.5,678.36584035564658 447.5,716.47095812216185 469.5,716.47095812216185 475,725.99723756379069 464,745.04979644704838 469.5,754.57607588867722 524.5,754.57607588867722 546.5,716.47095812216185 568.5,716.47095812216185 574,706.944678680533 568.5,697.41839923890427 546.5,697.41839923890427 541,687.89211979727543 546.5,678.36584035564658 590.5,678.36584035564658 596,668.83956091401774" />
  <type>Triangular</type>
</svg>