<?xml version="1.0" encoding="utf-8" standalone="no"?>
<!DOCTYPE svg PUBLIC "-//W3C//DTD SVG 1.1//EN" "http://www.w3.org/Graphics/SVG/1.1/DTD/svg11.dtd"[]>
<svg width="367" height="404.10373654841067" version="1.1" xmlns="http://www.w3.org/2000/svg">
  <title>32 by 21 delta maze</title>
  <g fill="none" stroke="#000000" stroke-width="2" stroke-linecap="round" stroke-linejoin="round">
    <line x1="13" y1="2.0000000000000195" x2="167" y2="2.0000000000000195" />
    <line x1="189" y1="2.0000000000000195" x2="365" y2="2.0000000000000195" />
    <line x1="2" y1="21.052558883257667" x2="68" y2="21.052558883257667" />
    <line x1="90" y1="21.052558883257667" x2="112" y2="21.052558883257667" />
    <line x1="156" y1="21.052558883257667" x2="178" y2="21.052558883257667" />
    <line x1="310" y1="21.052558883257667" x2="354" y2="21.052558883257667" />
    <line x1="145" y1="40.10511776651532" x2="211" y2="40.10511776651532" />
    <line x1="321" y1="40.10511776651532" x2="343" y2="40.10511776651532" />
    <line x1="90" y1="59.157676649772966" x2="112" y2="59.157676649772966" />
    <line x1="156" y1="59.157676649772966" x2="200" y2="59.157676649772966" />
    <line x1="266" y1="59.157676649772966" x2="288" y2="59.157676649772966" />
    <line x1="13" y1="78.210235533030612" x2="35" y2="78.210235533030612" />
    <line x1="79" y1="78.210235533030612" x2="101" y2="78.210235533030612" />
    <line x1="145" y1="78.210235533030612" x2="167" y2="78.210235533030612" />
    <line x1="211" y1="78.210235533030612" x2="255" y2="78.210235533030612" />
    <line x1="68" y1="97.262794416288273" x2="90" y2="97.262794416288273" />
    <line x1="134" y1="97.262794416288273" x2="156" y2="97.262794416288273" />
    <line x1="200" y1="97.262794416288273" x2="222" y2="97.262794416288273" />
    <line x1="266" y1="97.262794416288273" x2="288" y2="97.262794416288273" />
    <line x1="310" y1="97.262794416288273" x2="332" y2="97.262794416288273" />
    <line x1="57" y1="116.31535329954592" x2="145" y2="116.31535329954592" />
    <line x1="167" y1="116.31535329954592" x2="189" y2="116.31535329954592" />
    <line x1="277" y1="116.31535329954592" x2="299" y2="116.31535329954592" />
    <line x1="46" y1="135.36791218280357" x2="68" y2="135.36791218280357" />
    <line x1="90" y1="135.36791218280357" x2="112" y2="135.36791218280357" />
    <line x1="178" y1="135.36791218280357" x2="200" y2="135.36791218280357" />
    <line x1="222" y1="135.36791218280357" x2="244" y2="135.36791218280357" />
    <line x1="266" y1="135.36791218280357" x2="310" y2="135.36791218280357" />
    <line x1="332" y1="135.36791218280357" x2="354" y2="135.36791218280357" />
    <line x1="35" y1="154.42047106606123" x2="79" y2="154.42047106606123" />
    <line x1="123" y1="154.42047106606123" x2="145" y2="154.42047106606123" />
    <line x1="211" y1="154.42047106606123" x2="233" y2="154.42047106606123" />
    <line x1="277" y1="154.42047106606123" x2="299" y2="154.42047106606123" />
    <line x1="321" y1="154.42047106606123" x2="343" y2="154.42047106606123" />
    <line x1="112" y1="173.47302994931886" x2="134" y2="173.47302994931886" />
    <line x1="200" y1="173.47302994931886" x2="222" y2="173.47302994931886" />
    <line x1="57" y1="192.52558883257652" x2="79" y2="192.52558883257652" />
    <line x1="101" y1="192.52558883257652" x2="123" y2="192.52558883257652" />
    <line x1="145" y1="192.52558883257652" x2="167" y2="192.52558883257652" />
    <line x1="189" y1="192.52558883257652" x2="211" y2="192.52558883257652" />
    <line x1="277" y1="192.52558883257652" x2="299" y2="192.52558883257652" />
    <line x1="156" y1="211.57814771583418" x2="200" y2="211.57814771583418" />
    <line x1="244" y1="211.57814771583418" x2="266" y2="211.57814771583418" />
    <line x1="189" y1="230.63070659909181" x2="211" y2="230.63070659909181" />
    <line x1="233" y1="230.63070659909181" x2="255" y2="230.63070659909181" />
    <line x1="299" y1="230.63070659909181" x2="321" y2="230.63070659909181" />
    <line x1="68" y1="249.68326548234947" x2="90" y2="249.68326548234947" />
    <line x1="288" y1="249.68326548234947" x2="310" y2="249.68326548234947" />
    <line x1="332" y1="249.68326548234947" x2="354" y2="249.68326548234947" />
    <line x1="101" y1="268.73582436560713" x2="123" y2="268.73582436560713" />
    <line x1="211" y1="268.73582436560713" x2="233" y2="268.73582436560713" />
    <line x1="277" y1="268.73582436560713" x2="299" y2="268.73582436560713" />
    <line x1="2" y1="287.78838324886476" x2="24" y2="287.78838324886476" />
    <line x1="46" y1="287.78838324886476" x2="90" y2="287.78838324886476" />
    <line x1="134" y1="287.78838324886476" x2="178" y2="287.78838324886476" />
    <line x1="200" y1="287.78838324886476" x2="222" y2="287.78838324886476" />
    <line x1="244" y1="287.78838324886476" x2="266" y2="287.78838324886476" />
    <line x1="288" y1="287.78838324886476" x2="310" y2="287.78838324886476" />
    <line x1="13" y1="306.84094213212239" x2="35" y2="306.84094213212239" />
    <line x1="145" y1="306.84094213212239" x2="189" y2="306.84094213212239" />
    <line x1="211" y1="306.84094213212239" x2="255" y2="306.84094213212239" />
    <line x1="24" y1="325.89350101538008" x2="68" y2="325.89350101538008" />
    <line x1="134" y1="325.89350101538008" x2="156" y2="325.89350101538008" />
    <line x1="178" y1="325.89350101538008" x2="200" y2="325.89350101538008" />
    <line x1="222" y1="325.89350101538008" x2="244" y2="325.89350101538008" />
    <line x1="57" y1="344.94605989863771" x2="79" y2="344.94605989863771" />
    <line x1="123" y1="344.94605989863771" x2="167" y2="344.94605989863771" />
    <line x1="189" y1="344.94605989863771" x2="233" y2="344.94605989863771" />
    <line x1="46" y1="363.99861878189535" x2="68" y2="363.99861878189535" />
    <line x1="156" y1="363.99861878189535" x2="178" y2="363.99861878189535" />
    <line x1="200" y1="363.99861878189535" x2="244" y2="363.99861878189535" />
    <line x1="266" y1="363.99861878189535" x2="310" y2="363.99861878189535" />
    <line x1="35" y1="383.05117766515303" x2="57" y2="383.05117766515303" />
    <line x1="101" y1="383.05117766515303" x2="145" y2="383.05117766515303" />
    <line x1="189" y1="383.05117766515303" x2="233" y2="383.05117766515303" />
    <line x1="277" y1="383.05117766515303" x2="299" y2="383.05117766515303" />
    <line x1="2" y1="402.10373654841067" x2="178" y2="402.10373654841067" />
    <line x1="200" y1="402.10373654841067" x2="354" y2="402.10373654841067" />
    <polyline points="13,2.0000000000000195 2,21.052558883257667 13,40.10511776651532 2,59.157676649772966" />
    <line x1="2" y1="59.157676649772974" x2="13" y2="78.210235533030627" />
    <line x1="13" y1="78.210235533030612" x2="2" y2="97.262794416288273" />
    <polyline points="2,97.262794416288258 13,116.31535329954592 2,135.36791218280357 13,154.4204710660612" />
    <line x1="13" y1="154.42047106606123" x2="2" y2="173.47302994931886" />
    <polyline points="2,173.47302994931889 13,192.52558883257652 2,211.57814771583415" />
    <line x1="2" y1="211.57814771583418" x2="13" y2="230.63070659909181" />
    <polyline points="13,230.63070659909184 2,249.68326548234947 13,268.73582436560713" />
    <polyline points="13,268.73582436560707 2,287.78838324886476 13,306.84094213212245" />
    <line x1="13" y1="306.84094213212239" x2="2" y2="325.89350101538008" />
    <polyline points="2,325.89350101538 13,344.94605989863771 2,363.9986187818954" />
    <line x1="2" y1="363.99861878189535" x2="13" y2="383.05117766515303" />
    <line x1="13" y1="383.051177665153" x2="2" y2="402.10373654841067" />
    <line x1="24" y1="97.262794416288258" x2="13" y2="116.31535329954592" />
    <line x1="13" y1="154.42047106606123" x2="24" y2="173.47302994931886" />
    <line x1="24" y1="249.68326548234947" x2="13" y2="268.73582436560713" />
    <line x1="13" y1="344.94605989863771" x2="24" y2="363.9986187818954" />
    <line x1="35" y1="40.10511776651532" x2="24" y2="59.157676649772966" />
    <line x1="24" y1="135.36791218280357" x2="35" y2="154.4204710660612" />
    <polyline points="24,173.47302994931889 35,192.52558883257652 24,211.57814771583415" />
    <line x1="46" y1="21.052558883257667" x2="35" y2="40.10511776651532" />
    <line x1="46" y1="59.157676649772974" x2="35" y2="78.210235533030627" />
    <line x1="35" y1="78.210235533030612" x2="46" y2="97.262794416288273" />
    <line x1="35" y1="116.31535329954592" x2="46" y2="135.36791218280357" />
    <line x1="35" y1="154.42047106606123" x2="46" y2="173.47302994931886" />
    <line x1="46" y1="211.57814771583418" x2="35" y2="230.63070659909181" />
    <polyline points="35,230.63070659909184 46,249.68326548234947 35,268.73582436560713" />
    <line x1="35" y1="268.73582436560707" x2="46" y2="287.78838324886476" />
    <line x1="35" y1="344.94605989863771" x2="46" y2="363.9986187818954" />
    <line x1="46" y1="363.99861878189535" x2="35" y2="383.05117766515303" />
    <line x1="57" y1="40.10511776651532" x2="46" y2="59.157676649772966" />
    <polyline points="57,230.63070659909184 46,249.68326548234947 57,268.73582436560713" />
    <line x1="68" y1="59.157676649772974" x2="57" y2="78.210235533030627" />
    <line x1="57" y1="154.42047106606123" x2="68" y2="173.47302994931886" />
    <line x1="68" y1="173.47302994931889" x2="57" y2="192.52558883257652" />
    <line x1="68" y1="287.78838324886476" x2="57" y2="306.84094213212245" />
    <line x1="79" y1="40.10511776651532" x2="68" y2="59.157676649772966" />
    <line x1="79" y1="78.210235533030612" x2="68" y2="97.262794416288273" />
    <line x1="79" y1="116.31535329954592" x2="68" y2="135.36791218280357" />
    <line x1="79" y1="192.52558883257652" x2="68" y2="211.57814771583415" />
    <line x1="68" y1="211.57814771583418" x2="79" y2="230.63070659909181" />
    <line x1="79" y1="230.63070659909184" x2="68" y2="249.68326548234947" />
    <line x1="79" y1="306.84094213212239" x2="68" y2="325.89350101538008" />
    <line x1="68" y1="325.89350101538" x2="79" y2="344.94605989863771" />
    <line x1="68" y1="363.99861878189535" x2="79" y2="383.05117766515303" />
    <line x1="90" y1="21.052558883257667" x2="79" y2="40.10511776651532" />
    <line x1="90" y1="135.36791218280357" x2="79" y2="154.4204710660612" />
    <line x1="90" y1="249.68326548234947" x2="79" y2="268.73582436560713" />
    <line x1="90" y1="287.78838324886476" x2="79" y2="306.84094213212245" />
    <line x1="79" y1="344.94605989863771" x2="90" y2="363.9986187818954" />
    <line x1="90" y1="363.99861878189535" x2="79" y2="383.05117766515303" />
    <line x1="101" y1="2.0000000000000195" x2="90" y2="21.052558883257667" />
    <line x1="101" y1="40.10511776651532" x2="90" y2="59.157676649772966" />
    <line x1="90" y1="59.157676649772974" x2="101" y2="78.210235533030627" />
    <line x1="101" y1="154.42047106606123" x2="90" y2="173.47302994931886" />
    <line x1="101" y1="192.52558883257652" x2="90" y2="211.57814771583415" />
    <line x1="101" y1="230.63070659909184" x2="90" y2="249.68326548234947" />
    <line x1="101" y1="268.73582436560707" x2="90" y2="287.78838324886476" />
    <line x1="101" y1="306.84094213212239" x2="90" y2="325.89350101538008" />
    <polyline points="90,325.89350101538 101,344.94605989863771 90,363.9986187818954" />
    <line x1="101" y1="78.210235533030612" x2="112" y2="97.262794416288273" />
    <line x1="101" y1="154.42047106606123" x2="112" y2="173.47302994931886" />
    <line x1="112" y1="249.68326548234947" x2="101" y2="268.73582436560713" />
    <polyline points="112,325.89350101538 101,344.94605989863771 112,363.9986187818954" />
    <line x1="123" y1="40.10511776651532" x2="112" y2="59.157676649772966" />
    <line x1="112" y1="97.262794416288258" x2="123" y2="116.31535329954592" />
    <line x1="112" y1="135.36791218280357" x2="123" y2="154.4204710660612" />
    <line x1="123" y1="192.52558883257652" x2="112" y2="211.57814771583415" />
    <line x1="112" y1="211.57814771583418" x2="123" y2="230.63070659909181" />
    <line x1="112" y1="287.78838324886476" x2="123" y2="306.84094213212245" />
    <line x1="123" y1="306.84094213212239" x2="112" y2="325.89350101538008" />
    <line x1="112" y1="363.99861878189535" x2="123" y2="383.05117766515303" />
    <line x1="134" y1="21.052558883257667" x2="123" y2="40.10511776651532" />
    <line x1="123" y1="78.210235533030612" x2="134" y2="97.262794416288273" />
    <line x1="134" y1="211.57814771583418" x2="123" y2="230.63070659909181" />
    <line x1="123" y1="230.63070659909184" x2="134" y2="249.68326548234947" />
    <line x1="123" y1="306.84094213212239" x2="134" y2="325.89350101538008" />
    <line x1="145" y1="40.10511776651532" x2="134" y2="59.157676649772966" />
    <line x1="134" y1="59.157676649772974" x2="145" y2="78.210235533030627" />
    <line x1="134" y1="97.262794416288258" x2="145" y2="116.31535329954592" />
    <line x1="134" y1="135.36791218280357" x2="145" y2="154.4204710660612" />
    <polyline points="134,173.47302994931889 145,192.52558883257652 134,211.57814771583415" />
    <line x1="134" y1="249.68326548234947" x2="145" y2="268.73582436560713" />
    <line x1="134" y1="363.99861878189535" x2="145" y2="383.05117766515303" />
    <line x1="156" y1="59.157676649772974" x2="145" y2="78.210235533030627" />
    <line x1="145" y1="116.31535329954592" x2="156" y2="135.36791218280357" />
    <line x1="145" y1="154.42047106606123" x2="156" y2="173.47302994931886" />
    <polyline points="145,230.63070659909184 156,249.68326548234947 145,268.73582436560713" />
    <line x1="145" y1="344.94605989863771" x2="156" y2="363.9986187818954" />
    <line x1="167" y1="2.0000000000000195" x2="156" y2="21.052558883257667" />
    <line x1="167" y1="116.31535329954592" x2="156" y2="135.36791218280357" />
    <polyline points="156,173.47302994931889 167,192.52558883257652 156,211.57814771583415" />
    <polyline points="167,268.73582436560707 156,287.78838324886476 167,306.84094213212245" />
    <line x1="167" y1="306.84094213212239" x2="156" y2="325.89350101538008" />
    <line x1="156" y1="325.89350101538" x2="167" y2="344.94605989863771" />
    <line x1="167" y1="383.051177665153" x2="156" y2="402.10373654841067" />
    <line x1="167" y1="78.210235533030612" x2="178" y2="97.262794416288273" />
    <line x1="167" y1="154.42047106606123" x2="178" y2="173.47302994931886" />
    <line x1="167" y1="230.63070659909184" x2="178" y2="249.68326548234947" />
    <line x1="178" y1="21.052558883257667" x2="189" y2="40.10511776651532" />
    <line x1="178" y1="59.157676649772974" x2="189" y2="78.210235533030627" />
    <line x1="178" y1="135.36791218280357" x2="189" y2="154.4204710660612" />
    <line x1="178" y1="173.47302994931889" x2="189" y2="192.52558883257652" />
    <line x1="189" y1="230.63070659909184" x2="178" y2="249.68326548234947" />
    <line x1="189" y1="268.73582436560707" x2="178" y2="287.78838324886476" />
    <line x1="178" y1="325.89350101538" x2="189" y2="344.94605989863771" />
    <line x1="178" y1="363.99861878189535" x2="189" y2="383.05117766515303" />
    <line x1="189" y1="383.051177665153" x2="178" y2="402.10373654841067" />
    <line x1="189" y1="78.210235533030612" x2="200" y2="97.262794416288273" />
    <line x1="200" y1="97.262794416288258" x2="189" y2="116.31535329954592" />
    <line x1="189" y1="154.42047106606123" x2="200" y2="173.47302994931886" />
    <line x1="200" y1="211.57814771583418" x2="189" y2="230.63070659909181" />
    <polyline points="189,230.63070659909184 200,249.68326548234947 189,268.73582436560713" />
    <line x1="200" y1="287.78838324886476" x2="189" y2="306.84094213212245" />
    <line x1="189" y1="344.94605989863771" x2="200" y2="363.9986187818954" />
    <line x1="200" y1="21.052558883257667" x2="211" y2="40.10511776651532" />
    <line x1="200" y1="59.157676649772974" x2="211" y2="78.210235533030627" />
    <line x1="200" y1="135.36791218280357" x2="211" y2="154.4204710660612" />
    <line x1="211" y1="306.84094213212239" x2="200" y2="325.89350101538008" />
    <line x1="211" y1="116.31535329954592" x2="222" y2="135.36791218280357" />
    <line x1="211" y1="192.52558883257652" x2="222" y2="211.57814771583415" />
    <line x1="211" y1="230.63070659909184" x2="222" y2="249.68326548234947" />
    <line x1="211" y1="268.73582436560707" x2="222" y2="287.78838324886476" />
    <line x1="233" y1="2.0000000000000195" x2="222" y2="21.052558883257667" />
    <line x1="222" y1="59.157676649772974" x2="233" y2="78.210235533030627" />
    <line x1="222" y1="173.47302994931889" x2="233" y2="192.52558883257652" />
    <line x1="222" y1="211.57814771583418" x2="233" y2="230.63070659909181" />
    <line x1="233" y1="230.63070659909184" x2="222" y2="249.68326548234947" />
    <line x1="244" y1="21.052558883257667" x2="233" y2="40.10511776651532" />
    <polyline points="244,97.262794416288258 233,116.31535329954592 244,135.36791218280357 233,154.4204710660612" />
    <line x1="233" y1="192.52558883257652" x2="244" y2="211.57814771583415" />
    <line x1="244" y1="249.68326548234947" x2="233" y2="268.73582436560713" />
    <polyline points="255,2.0000000000000195 244,21.052558883257667 255,40.10511776651532 244,59.157676649772966" />
    <line x1="244" y1="135.36791218280357" x2="255" y2="154.4204710660612" />
    <line x1="244" y1="173.47302994931889" x2="255" y2="192.52558883257652" />
    <line x1="255" y1="268.73582436560707" x2="244" y2="287.78838324886476" />
    <line x1="255" y1="306.84094213212239" x2="244" y2="325.89350101538008" />
    <line x1="244" y1="325.89350101538" x2="255" y2="344.94605989863771" />
    <line x1="244" y1="363.99861878189535" x2="255" y2="383.05117766515303" />
    <line x1="255" y1="383.051177665153" x2="244" y2="402.10373654841067" />
    <line x1="266" y1="21.052558883257667" x2="255" y2="40.10511776651532" />
    <line x1="266" y1="97.262794416288258" x2="255" y2="116.31535329954592" />
    <line x1="255" y1="192.52558883257652" x2="266" y2="211.57814771583415" />
    <line x1="266" y1="249.68326548234947" x2="255" y2="268.73582436560713" />
    <line x1="266" y1="325.89350101538" x2="255" y2="344.94605989863771" />
    <line x1="266" y1="363.99861878189535" x2="255" y2="383.05117766515303" />
    <line x1="277" y1="40.10511776651532" x2="266" y2="59.157676649772966" />
    <line x1="277" y1="78.210235533030612" x2="266" y2="97.262794416288273" />
    <polyline points="266,97.262794416288258 277,116.31535329954592 266,135.36791218280357" />
    <polyline points="266,173.47302994931889 277,192.52558883257652 266,211.57814771583415" />
    <line x1="266" y1="211.57814771583418" x2="277" y2="230.63070659909181" />
    <line x1="277" y1="230.63070659909184" x2="266" y2="249.68326548234947" />
    <polyline points="277,268.73582436560707 266,287.78838324886476 277,306.84094213212245" />
    <line x1="277" y1="306.84094213212239" x2="266" y2="325.89350101538008" />
    <line x1="277" y1="344.94605989863771" x2="266" y2="363.9986187818954" />
    <line x1="277" y1="230.63070659909184" x2="288" y2="249.68326548234947" />
    <line x1="288" y1="325.89350101538" x2="277" y2="344.94605989863771" />
    <line x1="288" y1="21.052558883257667" x2="299" y2="40.10511776651532" />
    <line x1="288" y1="59.157676649772974" x2="299" y2="78.210235533030627" />
    <line x1="299" y1="78.210235533030612" x2="288" y2="97.262794416288273" />
    <line x1="288" y1="135.36791218280357" x2="299" y2="154.4204710660612" />
    <line x1="288" y1="173.47302994931889" x2="299" y2="192.52558883257652" />
    <line x1="288" y1="211.57814771583418" x2="299" y2="230.63070659909181" />
    <line x1="299" y1="306.84094213212239" x2="288" y2="325.89350101538008" />
    <line x1="299" y1="40.10511776651532" x2="310" y2="59.157676649772966" />
    <line x1="299" y1="78.210235533030612" x2="310" y2="97.262794416288273" />
    <line x1="299" y1="154.42047106606123" x2="310" y2="173.47302994931886" />
    <line x1="299" y1="192.52558883257652" x2="310" y2="211.57814771583415" />
    <line x1="310" y1="325.89350101538" x2="299" y2="344.94605989863771" />
    <line x1="299" y1="383.051177665153" x2="310" y2="402.10373654841067" />
    <line x1="310" y1="59.157676649772974" x2="321" y2="78.210235533030627" />
    <polyline points="321,116.31535329954592 310,135.36791218280357 321,154.4204710660612" />
    <line x1="310" y1="173.47302994931889" x2="321" y2="192.52558883257652" />
    <line x1="310" y1="249.68326548234947" x2="321" y2="268.73582436560713" />
    <line x1="310" y1="287.78838324886476" x2="321" y2="306.84094213212245" />
    <line x1="321" y1="306.84094213212239" x2="310" y2="325.89350101538008" />
    <line x1="310" y1="325.89350101538" x2="321" y2="344.94605989863771" />
    <line x1="310" y1="363.99861878189535" x2="321" y2="383.05117766515303" />
    <line x1="321" y1="78.210235533030612" x2="332" y2="97.262794416288273" />
    <line x1="321" y1="116.31535329954592" x2="332" y2="135.36791218280357" />
    <line x1="321" y1="154.42047106606123" x2="332" y2="173.47302994931886" />
    <line x1="321" y1="230.63070659909184" x2="332" y2="249.68326548234947" />
    <line x1="332" y1="325.89350101538" x2="321" y2="344.94605989863771" />
    <line x1="332" y1="59.157676649772974" x2="343" y2="78.210235533030627" />
    <line x1="343" y1="116.31535329954592" x2="332" y2="135.36791218280357" />
    <polyline points="332,173.47302994931889 343,192.52558883257652 332,211.57814771583415" />
    <line x1="332" y1="211.57814771583418" x2="343" y2="230.63070659909181" />
    <line x1="343" y1="268.73582436560707" x2="332" y2="287.78838324886476" />
    <line x1="343" y1="306.84094213212239" x2="332" y2="325.89350101538008" />
    <polyline points="332,325.89350101538 343,344.94605989863771 332,363.9986187818954" />
    <line x1="343" y1="40.10511776651532" x2="354" y2="59.157676649772966" />
    <line x1="343" y1="78.210235533030612" x2="354" y2="97.262794416288273" />
    <line x1="343" y1="268.73582436560707" x2="354" y2="287.78838324886476" />
    <line x1="343" y1="344.94605989863771" x2="354" y2="363.9986187818954" />
    <line x1="354" y1="363.99861878189535" x2="343" y2="383.05117766515303" />
    <polyline points="365,2.0000000000000195 354,21.052558883257667 365,40.10511776651532 354,59.157676649772966" />
    <line x1="354" y1="59.157676649772974" x2="365" y2="78.210235533030627" />
    <line x1="365" y1="78.210235533030612" x2="354" y2="97.262794416288273" />
    <polyline points="354,97.262794416288258 365,116.31535329954592 354,135.36791218280357 365,154.4204710660612" />
    <line x1="365" y1="154.42047106606123" x2="354" y2="173.47302994931886" />
    <polyline points="354,173.47302994931889 365,192.52558883257652 354,211.57814771583415" />
    <line x1="354" y1="211.57814771583418" x2="365" y2="230.63070659909181" />
    <polyline points="365,230.63070659909184 354,249.68326548234947 365,268.73582436560713" />
    <polyline points="365,268.73582436560707 354,287.78838324886476 365,306.84094213212245" />
    <line x1="365" y1="306.84094213212239" x2="354" y2="325.89350101538008" />
    <polyline points="354,325.89350101538 365,344.94605989863771 354,363.9986187818954" />
    <line x1="354" y1="363.99861878189535" x2="365" y2="383.05117766515303" />
    <line x1="365" y1="383.051177665153" x2="354" y2="402.10373654841067" />
  </g>
  <polyline fill="none" stroke="#ff0000" stroke-width="2" stroke-linecap="square" stroke-linejoin="round" points="178,2.0000000000000195 183.5,11.526279441628844 205.5,11.526279441628844 238.5,68.6839560914018 260.5,68.6839560914018 266,78.210235533030612 260.5,87.736514974659443 238.5,87.736514974659443 227.5,106.78907385791709 205.5,106.78907385791709 194.5,125.84163274117475 172.5,125.84163274117475 167,135.36791218280357 194.5,182.9993093909477 216.5,182.9993093909477 238.5,221.104427157463 260.5,221.104427157463 266,230.63070659909181 227.5,297.31466269049361 205.5,297.31466269049361 194.5,316.36722157375124 172.5,316.36722157375124 167,325.89350101538008 194.5,373.52489822352419 238.5,373.52489822352419 244,383.05117766515303 238.5,392.57745710678182 194.5,392.57745710678182 189,402.10373654841067" />
  <type>Rectangular</type>
</svg>