<?xml version="1.0" encoding="utf-8" standalone="no"?>
<!DOCTYPE svg PUBLIC "-//W3C//DTD SVG 1.1//EN" "http://www.w3.org/Graphics/SVG/1.1/DTD/svg11.dtd"[]>
<svg width="284" height="428.35244785437493" version="1.1" xmlns="http://www.w3.org/2000/svg">
  <title>13 by 17 sigma maze</title>
  <g fill="none" stroke="#000000" stroke-width="2" stroke-linecap="round" stroke-linejoin="round">
    <polyline points="9,38.373066958946431 2,26.248711305964292 9,14.124355652982152 23,14.124355652982152 30,2.0000000000000107 44,2.0000000000000107 51,14.124355652982152 65,14.124355652982152 72,2.0000000000000107 86,2.0000000000000107 93,14.124355652982152 107,14.124355652982152 114,2.0000000000000107 128,2.0000000000000107 135,14.124355652982152 128,26.248711305964292" />
    <polyline points="156,26.248711305964292 149,14.124355652982152 156,2.0000000000000107 170,2.0000000000000107 177,14.124355652982152 191,14.124355652982152 198,2.0000000000000107 212,2.0000000000000107 219,14.124355652982152 233,14.124355652982152 240,26.248711305964292" />
    <polyline points="233,14.124355652982152 240,2.0000000000000107 254,2.0000000000000107 261,14.124355652982152 254,26.248711305964292" />
    <polyline points="261,14.124355652982152 275,14.124355652982152 282,26.248711305964292 275,38.373066958946431" />
    <polyline points="9,62.621778264910709 2,50.49742261192857 9,38.373066958946431 23,38.373066958946431 30,50.49742261192857" />
    <polyline points="23,38.373066958946431 30,26.248711305964292 44,26.248711305964292" />
    <polyline points="44,50.49742261192857 51,38.373066958946431 65,38.373066958946431 72,26.248711305964292 86,26.248711305964292 93,38.373066958946431 86,50.49742261192857" />
    <polyline points="93,38.373066958946431 107,38.373066958946431 114,50.49742261192857" />
    <line x1="107" y1="38.373066958946431" x2="114" y2="26.248711305964292" />
    <polyline points="128,26.248711305964292 135,38.373066958946431 128,50.49742261192857" />
    <line x1="149" y1="38.373066958946431" x2="156" y2="50.49742261192857" />
    <polyline points="170,26.248711305964292 177,38.373066958946431 170,50.49742261192857" />
    <polyline points="177,38.373066958946431 191,38.373066958946431 198,26.248711305964292 212,26.248711305964292" />
    <polyline points="212,50.49742261192857 219,38.373066958946431 233,38.373066958946431 240,50.49742261192857" />
    <line x1="254" y1="50.49742261192857" x2="261" y2="38.373066958946431" />
    <polyline points="275,38.373066958946431 282,50.49742261192857 275,62.621778264910709" />
    <polyline points="9,86.870489570875 2,74.746133917892848 9,62.621778264910709" />
    <line x1="23" y1="62.621778264910709" x2="30" y2="74.746133917892848" />
    <line x1="44" y1="50.49742261192857" x2="51" y2="62.621778264910709" />
    <polyline points="72,74.746133917892848 65,62.621778264910709 72,50.49742261192857" />
    <polyline points="86,50.49742261192857 93,62.621778264910709 107,62.621778264910709 114,74.746133917892848" />
    <polyline points="128,50.49742261192857 135,62.621778264910709 149,62.621778264910709 156,74.746133917892848" />
    <line x1="149" y1="62.621778264910709" x2="156" y2="50.49742261192857" />
    <polyline points="170,50.49742261192857 177,62.621778264910709 170,74.746133917892848" />
    <polyline points="198,74.746133917892848 191,62.621778264910709 198,50.49742261192857 212,50.49742261192857" />
    <line x1="212" y1="74.746133917892848" x2="219" y2="62.621778264910709" />
    <polyline points="233,62.621778264910709 240,50.49742261192857 254,50.49742261192857 261,62.621778264910709" />
    <polyline points="275,62.621778264910709 282,74.746133917892848 275,86.870489570875" />
    <polyline points="9,111.11920087683929 2,98.994845223857141 9,86.870489570875 23,86.870489570875 30,74.746133917892848 44,74.746133917892848" />
    <polyline points="44,98.994845223857141 51,86.870489570875 65,86.870489570875 72,98.994845223857141" />
    <line x1="65" y1="86.870489570875" x2="72" y2="74.746133917892848" />
    <polyline points="86,74.746133917892848 93,86.870489570875 86,98.994845223857141" />
    <polyline points="114,98.994845223857141 107,86.870489570875 114,74.746133917892848 128,74.746133917892848 135,86.870489570875" />
    <polyline points="156,98.994845223857141 149,86.870489570875 156,74.746133917892848" />
    <polyline points="170,74.746133917892848 177,86.870489570875 170,98.994845223857141" />
    <polyline points="177,86.870489570875 191,86.870489570875 198,98.994845223857141" />
    <line x1="191" y1="86.870489570875" x2="198" y2="74.746133917892848" />
    <polyline points="212,74.746133917892848 219,86.870489570875 212,98.994845223857141" />
    <polyline points="219,86.870489570875 233,86.870489570875 240,98.994845223857141" />
    <polyline points="233,86.870489570875 240,74.746133917892848 254,74.746133917892848" />
    <polyline points="254,98.994845223857141 261,86.870489570875 275,86.870489570875 282,98.994845223857141 275,111.11920087683929" />
    <polyline points="9,135.36791218280357 2,123.24355652982142 9,111.11920087683927" />
    <polyline points="30,123.24355652982142 23,111.11920087683927 30,98.994845223857126 44,98.994845223857126 51,111.11920087683927" />
    <line x1="65" y1="111.11920087683927" x2="72" y2="123.24355652982142" />
    <line x1="72" y1="98.994845223857126" x2="86" y2="98.994845223857126" />
    <polyline points="93,111.11920087683927 107,111.11920087683927 114,123.24355652982142" />
    <polyline points="107,111.11920087683927 114,98.994845223857126 128,98.994845223857126" />
    <polyline points="128,123.24355652982142 135,111.11920087683927 149,111.11920087683927 156,98.994845223857126 170,98.994845223857126 177,111.11920087683927" />
    <line x1="191" y1="111.11920087683927" x2="198" y2="123.24355652982142" />
    <line x1="198" y1="98.994845223857126" x2="212" y2="98.994845223857126" />
    <line x1="212" y1="123.24355652982142" x2="219" y2="111.11920087683927" />
    <polyline points="240,123.24355652982142 233,111.11920087683927 240,98.994845223857126" />
    <polyline points="254,123.24355652982142 261,111.11920087683927 275,111.11920087683927 282,123.24355652982142 275,135.36791218280357" />
    <polyline points="9,159.61662348876783 2,147.4922678357857 9,135.36791218280357" />
    <polyline points="23,135.36791218280357 30,123.24355652982142 44,123.24355652982142 51,135.36791218280357 44,147.4922678357857" />
    <polyline points="51,135.36791218280357 65,135.36791218280357 72,147.4922678357857" />
    <polyline points="65,135.36791218280357 72,123.24355652982142 86,123.24355652982142 93,135.36791218280357" />
    <polyline points="114,147.4922678357857 107,135.36791218280357 114,123.24355652982142" />
    <line x1="128" y1="123.24355652982142" x2="135" y2="135.36791218280357" />
    <polyline points="149,135.36791218280357 156,123.24355652982142 170,123.24355652982142 177,135.36791218280357 170,147.4922678357857" />
    <polyline points="177,135.36791218280357 191,135.36791218280357 198,123.24355652982142 212,123.24355652982142 219,135.36791218280357 233,135.36791218280357 240,147.4922678357857" />
    <polyline points="254,147.4922678357857 261,135.36791218280357 275,135.36791218280357 282,147.4922678357857 275,159.61662348876783" />
    <polyline points="9,183.86533479473212 2,171.74097914175 9,159.61662348876786 23,159.61662348876786 30,171.74097914175" />
    <line x1="23" y1="159.61662348876786" x2="30" y2="147.49226783578573" />
    <line x1="44" y1="171.74097914175" x2="51" y2="159.61662348876786" />
    <line x1="65" y1="159.61662348876786" x2="72" y2="171.74097914175" />
    <polyline points="72,147.49226783578573 86,147.49226783578573 93,159.61662348876786 107,159.61662348876786 114,147.49226783578573 128,147.49226783578573 135,159.61662348876786 128,171.74097914175" />
    <polyline points="135,159.61662348876786 149,159.61662348876786 156,171.74097914175" />
    <line x1="149" y1="159.61662348876786" x2="156" y2="147.49226783578573" />
    <polyline points="170,147.49226783578573 177,159.61662348876786 170,171.74097914175" />
    <polyline points="177,159.61662348876786 191,159.61662348876786 198,171.74097914175" />
    <polyline points="198,147.49226783578573 212,147.49226783578573 219,159.61662348876786 212,171.74097914175" />
    <polyline points="240,171.74097914175 233,159.61662348876786 240,147.49226783578573" />
    <line x1="254" y1="171.74097914175" x2="261" y2="159.61662348876786" />
    <polyline points="275,159.61662348876786 282,171.74097914175 275,183.86533479473212" />
    <polyline points="9,208.11404610069639 2,195.98969044771425 9,183.86533479473212" />
    <line x1="23" y1="183.86533479473212" x2="30" y2="195.98969044771425" />
    <line x1="30" y1="171.74097914175" x2="44" y2="171.74097914175" />
    <polyline points="44,195.98969044771425 51,183.86533479473212 65,183.86533479473212 72,195.98969044771425" />
    <polyline points="65,183.86533479473212 72,171.74097914175 86,171.74097914175 93,183.86533479473212 107,183.86533479473212 114,195.98969044771425" />
    <polyline points="107,183.86533479473212 114,171.74097914175 128,171.74097914175" />
    <line x1="128" y1="195.98969044771425" x2="135" y2="183.86533479473212" />
    <polyline points="156,195.98969044771425 149,183.86533479473212 156,171.74097914175" />
    <polyline points="170,171.74097914175 177,183.86533479473212 170,195.98969044771425" />
    <line x1="191" y1="183.86533479473212" x2="198" y2="195.98969044771425" />
    <polyline points="212,171.74097914175 219,183.86533479473212 212,195.98969044771425" />
    <line x1="233" y1="183.86533479473212" x2="240" y2="195.98969044771425" />
    <polyline points="240,171.74097914175 254,171.74097914175 261,183.86533479473212 254,195.98969044771425" />
    <polyline points="275,183.86533479473212 282,195.98969044771425 275,208.11404610069639" />
    <polyline points="9,232.36275740666068 2,220.23840175367855 9,208.11404610069641" />
    <polyline points="23,208.11404610069641 30,195.98969044771428 44,195.98969044771428 51,208.11404610069641 44,220.23840175367855" />
    <line x1="65" y1="208.11404610069641" x2="72" y2="220.23840175367855" />
    <line x1="72" y1="195.98969044771428" x2="86" y2="195.98969044771428" />
    <polyline points="86,220.23840175367855 93,208.11404610069641 107,208.11404610069641 114,195.98969044771428" />
    <polyline points="128,195.98969044771428 135,208.11404610069641 149,208.11404610069641 156,195.98969044771428" />
    <polyline points="170,195.98969044771428 177,208.11404610069641 191,208.11404610069641 198,220.23840175367855" />
    <polyline points="191,208.11404610069641 198,195.98969044771428 212,195.98969044771428" />
    <polyline points="212,220.23840175367855 219,208.11404610069641 233,208.11404610069641 240,220.23840175367855" />
    <polyline points="233,208.11404610069641 240,195.98969044771428 254,195.98969044771428" />
    <polyline points="254,220.23840175367855 261,208.11404610069641 275,208.11404610069641 282,220.23840175367855 275,232.36275740666068" />
    <polyline points="9,256.61146871262497 2,244.48711305964284 9,232.36275740666071 23,232.36275740666071 30,220.23840175367857" />
    <polyline points="44,220.23840175367857 51,232.36275740666071 44,244.48711305964284" />
    <line x1="65" y1="232.36275740666071" x2="72" y2="244.48711305964284" />
    <polyline points="72,220.23840175367857 86,220.23840175367857 93,232.36275740666071" />
    <polyline points="114,244.48711305964284 107,232.36275740666071 114,220.23840175367857 128,220.23840175367857 135,232.36275740666071 149,232.36275740666071 156,244.48711305964284" />
    <polyline points="149,232.36275740666071 156,220.23840175367857 170,220.23840175367857" />
    <polyline points="170,244.48711305964284 177,232.36275740666071 191,232.36275740666071 198,220.23840175367857" />
    <line x1="212" y1="244.48711305964284" x2="219" y2="232.36275740666071" />
    <polyline points="240,244.48711305964284 233,232.36275740666071 240,220.23840175367857" />
    <polyline points="254,244.48711305964284 261,232.36275740666071 275,232.36275740666071 282,244.48711305964284 275,256.61146871262497" />
    <polyline points="9,280.86018001858923 2,268.73582436560707 9,256.61146871262491" />
    <polyline points="30,268.73582436560707 23,256.61146871262491 30,244.48711305964278 44,244.48711305964278 51,256.61146871262491 65,256.61146871262491 72,268.73582436560707" />
    <polyline points="72,244.48711305964278 86,244.48711305964278 93,256.61146871262491 107,256.61146871262491 114,268.73582436560707" />
    <line x1="107" y1="256.61146871262491" x2="114" y2="244.48711305964278" />
    <polyline points="128,244.48711305964278 135,256.61146871262491 128,268.73582436560707" />
    <polyline points="156,268.73582436560707 149,256.61146871262491 156,244.48711305964278" />
    <polyline points="177,256.61146871262491 191,256.61146871262491 198,268.73582436560707" />
    <polyline points="191,256.61146871262491 198,244.48711305964278 212,244.48711305964278 219,256.61146871262491 233,256.61146871262491 240,268.73582436560707" />
    <polyline points="240,244.48711305964278 254,244.48711305964278 261,256.61146871262491" />
    <polyline points="275,256.61146871262491 282,268.73582436560707 275,280.86018001858923" />
    <polyline points="9,305.10889132455355 2,292.98453567157139 9,280.86018001858923" />
    <polyline points="30,292.98453567157139 23,280.86018001858923 30,268.73582436560707" />
    <polyline points="44,268.73582436560707 51,280.86018001858923 44,292.98453567157139" />
    <polyline points="51,280.86018001858923 65,280.86018001858923 72,292.98453567157139" />
    <polyline points="72,268.73582436560707 86,268.73582436560707 93,280.86018001858923 86,292.98453567157139" />
    <polyline points="114,292.98453567157139 107,280.86018001858923 114,268.73582436560707" />
    <polyline points="128,268.73582436560707 135,280.86018001858923 128,292.98453567157139" />
    <polyline points="135,280.86018001858923 149,280.86018001858923 156,292.98453567157139" />
    <polyline points="156,268.73582436560707 170,268.73582436560707 177,280.86018001858923 170,292.98453567157139" />
    <line x1="177" y1="280.86018001858923" x2="191" y2="280.86018001858923" />
    <polyline points="198,268.73582436560707 212,268.73582436560707 219,280.86018001858923 212,292.98453567157139" />
    <polyline points="240,292.98453567157139 233,280.86018001858923 240,268.73582436560707" />
    <polyline points="254,268.73582436560707 261,280.86018001858923 275,280.86018001858923 282,292.98453567157139 275,305.10889132455355" />
    <polyline points="9,329.35760263051787 2,317.23324697753571 9,305.10889132455355" />
    <line x1="23" y1="305.10889132455355" x2="30" y2="317.23324697753571" />
    <line x1="44" y1="292.98453567157139" x2="51" y2="305.10889132455355" />
    <polyline points="72,317.23324697753571 65,305.10889132455355 72,292.98453567157139 86,292.98453567157139" />
    <polyline points="86,317.23324697753571 93,305.10889132455355 107,305.10889132455355 114,292.98453567157139" />
    <polyline points="128,292.98453567157139 135,305.10889132455355 128,317.23324697753571" />
    <polyline points="156,317.23324697753571 149,305.10889132455355 156,292.98453567157139" />
    <polyline points="170,292.98453567157139 177,305.10889132455355 191,305.10889132455355 198,317.23324697753571" />
    <polyline points="198,292.98453567157139 212,292.98453567157139 219,305.10889132455355 212,317.23324697753571" />
    <polyline points="233,305.10889132455355 240,292.98453567157139 254,292.98453567157139 261,305.10889132455355 254,317.23324697753571" />
    <polyline points="275,305.10889132455355 282,317.23324697753571 275,329.35760263051787" />
    <polyline points="9,353.60631393648208 2,341.48195828349992 9,329.35760263051776" />
    <polyline points="30,341.48195828349992 23,329.35760263051776 30,317.2332469775356 44,317.2332469775356 51,329.35760263051776 44,341.48195828349992" />
    <line x1="51" y1="329.35760263051776" x2="65" y2="329.35760263051776" />
    <polyline points="72,317.2332469775356 86,317.2332469775356 93,329.35760263051776 86,341.48195828349992" />
    <line x1="93" y1="329.35760263051776" x2="107" y2="329.35760263051776" />
    <line x1="114" y1="317.2332469775356" x2="128" y2="317.2332469775356" />
    <line x1="128" y1="341.48195828349992" x2="135" y2="329.35760263051776" />
    <polyline points="156,341.48195828349992 149,329.35760263051776 156,317.2332469775356 170,317.2332469775356" />
    <polyline points="170,341.48195828349992 177,329.35760263051776 191,329.35760263051776 198,317.2332469775356" />
    <line x1="212" y1="341.48195828349992" x2="219" y2="329.35760263051776" />
    <polyline points="240,341.48195828349992 233,329.35760263051776 240,317.2332469775356 254,317.2332469775356" />
    <polyline points="261,329.35760263051776 275,329.35760263051776 282,341.48195828349992 275,353.60631393648208" />
    <polyline points="9,377.8550252424464 2,365.73066958946424 9,353.60631393648208" />
    <line x1="23" y1="353.60631393648208" x2="30" y2="365.73066958946424" />
    <polyline points="44,341.48195828349992 51,353.60631393648208 44,365.73066958946424" />
    <polyline points="72,365.73066958946424 65,353.60631393648208 72,341.48195828349992" />
    <line x1="86" y1="341.48195828349992" x2="93" y2="353.60631393648208" />
    <polyline points="114,365.73066958946424 107,353.60631393648208 114,341.48195828349992 128,341.48195828349992" />
    <polyline points="128,365.73066958946424 135,353.60631393648208 149,353.60631393648208 156,365.73066958946424" />
    <line x1="149" y1="353.60631393648208" x2="156" y2="341.48195828349992" />
    <polyline points="170,341.48195828349992 177,353.60631393648208 170,365.73066958946424" />
    <polyline points="177,353.60631393648208 191,353.60631393648208 198,365.73066958946424" />
    <polyline points="191,353.60631393648208 198,341.48195828349992 212,341.48195828349992" />
    <polyline points="219,353.60631393648208 233,353.60631393648208 240,365.73066958946424" />
    <polyline points="233,353.60631393648208 240,341.48195828349992 254,341.48195828349992 261,353.60631393648208 275,353.60631393648208 282,365.73066958946424 275,377.8550252424464" />
    <polyline points="9,402.10373654841072 2,389.97938089542856 9,377.8550252424464 23,377.8550252424464 30,389.97938089542856" />
    <polyline points="30,365.73066958946424 44,365.73066958946424 51,377.8550252424464 44,389.97938089542856" />
    <polyline points="72,389.97938089542856 65,377.8550252424464 72,365.73066958946424" />
    <polyline points="86,365.73066958946424 93,377.8550252424464 86,389.97938089542856" />
    <polyline points="93,377.8550252424464 107,377.8550252424464 114,389.97938089542856" />
    <polyline points="107,377.8550252424464 114,365.73066958946424 128,365.73066958946424" />
    <polyline points="128,389.97938089542856 135,377.8550252424464 149,377.8550252424464 156,389.97938089542856" />
    <line x1="149" y1="377.8550252424464" x2="156" y2="365.73066958946424" />
    <polyline points="170,389.97938089542856 177,377.8550252424464 191,377.8550252424464 198,389.97938089542856" />
    <polyline points="198,365.73066958946424 212,365.73066958946424 219,377.8550252424464 212,389.97938089542856" />
    <polyline points="240,389.97938089542856 233,377.8550252424464 240,365.73066958946424" />
    <polyline points="254,365.73066958946424 261,377.8550252424464 254,389.97938089542856" />
    <polyline points="275,377.8550252424464 282,389.97938089542856 275,402.10373654841072" />
    <polyline points="9,426.35244785437493 2,414.22809220139277 9,402.10373654841061" />
    <line x1="23" y1="402.10373654841061" x2="30" y2="389.97938089542845" />
    <polyline points="44,389.97938089542845 51,402.10373654841061 65,402.10373654841061 72,414.22809220139277" />
    <line x1="72" y1="389.97938089542845" x2="86" y2="389.97938089542845" />
    <line x1="86" y1="414.22809220139277" x2="93" y2="402.10373654841061" />
    <line x1="107" y1="402.10373654841061" x2="114" y2="389.97938089542845" />
    <polyline points="128,389.97938089542845 135,402.10373654841061 128,414.22809220139277" />
    <line x1="149" y1="402.10373654841061" x2="156" y2="414.22809220139277" />
    <line x1="156" y1="389.97938089542845" x2="170" y2="389.97938089542845" />
    <line x1="170" y1="414.22809220139277" x2="177" y2="402.10373654841061" />
    <line x1="191" y1="402.10373654841061" x2="198" y2="389.97938089542845" />
    <polyline points="212,389.97938089542845 219,402.10373654841061 233,402.10373654841061 240,414.22809220139277" />
    <polyline points="254,389.97938089542845 261,402.10373654841061 254,414.22809220139277" />
    <polyline points="275,402.10373654841061 282,414.22809220139277 275,426.35244785437493" />
    <polyline points="30,414.22809220139277 23,426.35244785437493 9,426.35244785437493" />
    <line x1="44" y1="414.22809220139277" x2="30" y2="414.22809220139277" />
    <polyline points="72,414.22809220139277 65,426.35244785437493 51,426.35244785437493 44,414.22809220139277" />
    <line x1="86" y1="414.22809220139277" x2="72" y2="414.22809220139277" />
    <polyline points="114,414.22809220139277 107,426.35244785437493 93,426.35244785437493 86,414.22809220139277" />
    <line x1="128" y1="414.22809220139277" x2="114" y2="414.22809220139277" />
    <line x1="156" y1="414.22809220139277" x2="149" y2="426.35244785437493" />
    <line x1="135" y1="426.35244785437493" x2="128" y2="414.22809220139277" />
    <line x1="170" y1="414.22809220139277" x2="156" y2="414.22809220139277" />
    <polyline points="198,414.22809220139277 191,426.35244785437493 177,426.35244785437493 170,414.22809220139277" />
    <line x1="212" y1="414.22809220139277" x2="198" y2="414.22809220139277" />
    <polyline points="240,414.22809220139277 233,426.35244785437493 219,426.35244785437493 212,414.22809220139277" />
    <line x1="254" y1="414.22809220139277" x2="240" y2="414.22809220139277" />
    <polyline points="275,426.35244785437493 261,426.35244785437493 254,414.22809220139277" />
  </g>
  <polyline fill="none" stroke="#ff0000" stroke-width="2" stroke-linecap="square" stroke-linejoin="round" points="142,14.124355652982152 142,26.248711305964292 163,38.373066958946431 163,14.124355652982152 184,26.248711305964292 205,14.124355652982152 247,38.373066958946431 268,26.248711305964292 268,74.746133917892848 247,86.870489570875 247,135.36791218280357 226,123.24355652982142 226,98.994845223857141 205,111.11920087683927 184,98.994845223857141 184,123.24355652982142 163,111.11920087683927 142,123.24355652982142 142,147.4922678357857 121,135.36791218280357 121,111.11920087683927 142,98.994845223857141 142,74.746133917892848 121,62.621778264910709 121,14.124355652982152 100,26.248711305964292 79,14.124355652982152 37,38.373066958946431 37,62.621778264910709 58,74.746133917892848 16,98.994845223857141 16,147.4922678357857 37,135.36791218280357 37,159.61662348876786 58,147.4922678357857 58,171.74097914175 37,183.86533479473212 16,171.74097914175 16,220.23840175367855 37,208.11404610069641 37,232.36275740666071 16,244.48711305964284 16,292.98453567157139 79,329.35760263051776 79,353.60631393648208 100,365.73066958946424 100,341.48195828349992 121,329.35760263051776 100,317.23324697753571 121,305.10889132455355 121,232.36275740666071 142,244.48711305964284 142,268.73582436560707 163,280.86018001858923 163,305.10889132455355 184,317.23324697753571 163,329.35760263051776 163,377.8550252424464 184,365.73066958946424 205,377.8550252424464 205,402.10373654841061 184,414.22809220139277 184,389.97938089542856 163,402.10373654841061 142,389.97938089542856 142,426.35244785437493" />
  <type>Rectangular</type>
</svg>