<?xml version="1.0" encoding="utf-8" standalone="no"?>
<!DOCTYPE svg PUBLIC "-//W3C//DTD SVG 1.1//EN" "http://www.w3.org/Graphics/SVG/1.1/DTD/svg11.dtd"[]>
<svg width="389" height="573.84471569016057" version="1.1" xmlns="http://www.w3.org/2000/svg">
  <title>18 by 23 sigma maze</title>
  <g fill="none" stroke="#000000" stroke-width="2" stroke-linecap="round" stroke-linejoin="round">
    <polyline points="9,38.3730669589464 2,26.248711305964264 9,14.124355652982123 23,14.124355652982123 30,1.9999999999999822 44,1.9999999999999822 51,14.124355652982123 44,26.248711305964264" />
    <polyline points="51,14.124355652982123 65,14.124355652982123 72,26.248711305964264" />
    <polyline points="65,14.124355652982123 72,1.9999999999999822 86,1.9999999999999822 93,14.124355652982123 86,26.248711305964264" />
    <polyline points="93,14.124355652982123 107,14.124355652982123 114,1.9999999999999822 128,1.9999999999999822 135,14.124355652982123 128,26.248711305964264" />
    <polyline points="135,14.124355652982123 149,14.124355652982123 156,1.9999999999999822 170,1.9999999999999822 177,14.124355652982123" />
    <polyline points="191,14.124355652982123 198,1.9999999999999822 212,1.9999999999999822 219,14.124355652982123 212,26.248711305964264" />
    <polyline points="219,14.124355652982123 233,14.124355652982123 240,1.9999999999999822 254,1.9999999999999822 261,14.124355652982123 275,14.124355652982123 282,26.248711305964264" />
    <polyline points="275,14.124355652982123 282,1.9999999999999822 296,1.9999999999999822 303,14.124355652982123 317,14.124355652982123 324,26.248711305964264" />
    <polyline points="317,14.124355652982123 324,1.9999999999999822 338,1.9999999999999822 345,14.124355652982123 338,26.248711305964264" />
    <polyline points="345,14.124355652982123 359,14.124355652982123 366,26.248711305964264" />
    <polyline points="359,14.124355652982123 366,1.9999999999999822 380,1.9999999999999822 387,14.124355652982123 380,26.248711305964264" />
    <polyline points="9,62.621778264910681 2,50.497422611928542 9,38.3730669589464" />
    <polyline points="23,38.3730669589464 30,26.248711305964264 44,26.248711305964264" />
    <polyline points="44,50.497422611928542 51,38.3730669589464 65,38.3730669589464 72,50.497422611928542" />
    <polyline points="86,26.248711305964264 93,38.3730669589464 86,50.497422611928542" />
    <polyline points="114,50.497422611928542 107,38.3730669589464 114,26.248711305964264" />
    <polyline points="128,50.497422611928542 135,38.3730669589464 149,38.3730669589464 156,26.248711305964264 170,26.248711305964264" />
    <polyline points="170,50.497422611928542 177,38.3730669589464 191,38.3730669589464 198,26.248711305964264 212,26.248711305964264 219,38.3730669589464 233,38.3730669589464" />
    <polyline points="240,26.248711305964264 254,26.248711305964264 261,38.3730669589464 254,50.497422611928542" />
    <polyline points="275,38.3730669589464 282,26.248711305964264 296,26.248711305964264" />
    <line x1="296" y1="50.497422611928542" x2="303" y2="38.3730669589464" />
    <polyline points="324,50.497422611928542 317,38.3730669589464 324,26.248711305964264" />
    <polyline points="338,50.497422611928542 345,38.3730669589464 359,38.3730669589464 366,50.497422611928542" />
    <polyline points="380,26.248711305964264 387,38.3730669589464 380,50.497422611928542" />
    <polyline points="9,86.870489570874966 2,74.74613391789282 9,62.621778264910681" />
    <polyline points="30,74.74613391789282 23,62.621778264910681 30,50.497422611928542 44,50.497422611928542" />
    <line x1="44" y1="74.74613391789282" x2="51" y2="62.621778264910681" />
    <polyline points="65,62.621778264910681 72,50.497422611928542 86,50.497422611928542 93,62.621778264910681 86,74.74613391789282" />
    <line x1="93" y1="62.621778264910681" x2="107" y2="62.621778264910681" />
    <polyline points="114,50.497422611928542 128,50.497422611928542 135,62.621778264910681 149,62.621778264910681 156,74.74613391789282" />
    <line x1="156" y1="50.497422611928542" x2="170" y2="50.497422611928542" />
    <polyline points="170,74.74613391789282 177,62.621778264910681 191,62.621778264910681 198,50.497422611928542 212,50.497422611928542 219,62.621778264910681 212,74.74613391789282" />
    <polyline points="219,62.621778264910681 233,62.621778264910681 240,50.497422611928542 254,50.497422611928542 261,62.621778264910681 275,62.621778264910681 282,74.74613391789282" />
    <polyline points="282,50.497422611928542 296,50.497422611928542 303,62.621778264910681 296,74.74613391789282" />
    <polyline points="317,62.621778264910681 324,50.497422611928542 338,50.497422611928542" />
    <line x1="338" y1="74.74613391789282" x2="345" y2="62.621778264910681" />
    <line x1="359" y1="62.621778264910681" x2="366" y2="74.74613391789282" />
    <polyline points="380,50.497422611928542 387,62.621778264910681 380,74.74613391789282" />
    <polyline points="9,111.11920087683926 2,98.994845223857112 9,86.870489570874966" />
    <polyline points="30,98.994845223857112 23,86.870489570874966 30,74.74613391789282" />
    <polyline points="44,74.74613391789282 51,86.870489570874966 65,86.870489570874966 72,98.994845223857112" />
    <line x1="65" y1="86.870489570874966" x2="72" y2="74.74613391789282" />
    <line x1="86" y1="98.994845223857112" x2="93" y2="86.870489570874966" />
    <polyline points="107,86.870489570874966 114,74.74613391789282 128,74.74613391789282 135,86.870489570874966 128,98.994845223857112" />
    <polyline points="135,86.870489570874966 149,86.870489570874966 156,74.74613391789282 170,74.74613391789282 177,86.870489570874966 170,98.994845223857112" />
    <polyline points="198,98.994845223857112 191,86.870489570874966 198,74.74613391789282 212,74.74613391789282" />
    <polyline points="219,86.870489570874966 233,86.870489570874966 240,98.994845223857112" />
    <polyline points="233,86.870489570874966 240,74.74613391789282 254,74.74613391789282" />
    <polyline points="261,86.870489570874966 275,86.870489570874966 282,74.74613391789282" />
    <polyline points="296,74.74613391789282 303,86.870489570874966 317,86.870489570874966 324,98.994845223857112" />
    <polyline points="317,86.870489570874966 324,74.74613391789282 338,74.74613391789282" />
    <polyline points="338,98.994845223857112 345,86.870489570874966 359,86.870489570874966 366,74.74613391789282 380,74.74613391789282 387,86.870489570874966 380,98.994845223857112" />
    <polyline points="9,135.36791218280354 2,123.24355652982139 9,111.11920087683924 23,111.11920087683924 30,123.24355652982139" />
    <line x1="30" y1="98.9948452238571" x2="44" y2="98.9948452238571" />
    <polyline points="44,123.24355652982139 51,111.11920087683924 65,111.11920087683924 72,98.9948452238571 86,98.9948452238571 93,111.11920087683924 86,123.24355652982139" />
    <polyline points="114,123.24355652982139 107,111.11920087683924 114,98.9948452238571" />
    <polyline points="128,98.9948452238571 135,111.11920087683924 128,123.24355652982139" />
    <polyline points="156,123.24355652982139 149,111.11920087683924 156,98.9948452238571" />
    <line x1="170" y1="98.9948452238571" x2="177" y2="111.11920087683924" />
    <polyline points="191,111.11920087683924 198,98.9948452238571 212,98.9948452238571" />
    <polyline points="212,123.24355652982139 219,111.11920087683924 233,111.11920087683924 240,123.24355652982139" />
    <polyline points="233,111.11920087683924 240,98.9948452238571 254,98.9948452238571 261,111.11920087683924 275,111.11920087683924 282,98.9948452238571" />
    <polyline points="296,98.9948452238571 303,111.11920087683924 296,123.24355652982139" />
    <line x1="303" y1="111.11920087683924" x2="317" y2="111.11920087683924" />
    <polyline points="324,98.9948452238571 338,98.9948452238571 345,111.11920087683924 338,123.24355652982139" />
    <polyline points="366,123.24355652982139 359,111.11920087683924 366,98.9948452238571" />
    <polyline points="380,98.9948452238571 387,111.11920087683924 380,123.24355652982139" />
    <polyline points="9,159.6166234887678 2,147.49226783578567 9,135.36791218280354" />
    <line x1="23" y1="135.36791218280354" x2="30" y2="147.49226783578567" />
    <polyline points="44,123.24355652982139 51,135.36791218280354 44,147.49226783578567" />
    <polyline points="72,147.49226783578567 65,135.36791218280354 72,123.24355652982139" />
    <polyline points="86,123.24355652982139 93,135.36791218280354 86,147.49226783578567" />
    <line x1="93" y1="135.36791218280354" x2="107" y2="135.36791218280354" />
    <polyline points="114,123.24355652982139 128,123.24355652982139 135,135.36791218280354 128,147.49226783578567" />
    <polyline points="156,147.49226783578567 149,135.36791218280354 156,123.24355652982139 170,123.24355652982139" />
    <polyline points="177,135.36791218280354 191,135.36791218280354 198,123.24355652982139 212,123.24355652982139 219,135.36791218280354 212,147.49226783578567" />
    <polyline points="219,135.36791218280354 233,135.36791218280354 240,147.49226783578567" />
    <polyline points="254,123.24355652982139 261,135.36791218280354 254,147.49226783578567" />
    <polyline points="261,135.36791218280354 275,135.36791218280354 282,123.24355652982139 296,123.24355652982139" />
    <polyline points="296,147.49226783578567 303,135.36791218280354 317,135.36791218280354 324,123.24355652982139 338,123.24355652982139 345,135.36791218280354 338,147.49226783578567" />
    <polyline points="366,147.49226783578567 359,135.36791218280354 366,123.24355652982139" />
    <polyline points="380,123.24355652982139 387,135.36791218280354 380,147.49226783578567" />
    <polyline points="9,183.86533479473209 2,171.74097914174996 9,159.61662348876783" />
    <polyline points="23,159.61662348876783 30,147.4922678357857 44,147.4922678357857" />
    <polyline points="44,171.74097914174996 51,159.61662348876783 65,159.61662348876783 72,171.74097914174996" />
    <polyline points="65,159.61662348876783 72,147.4922678357857 86,147.4922678357857" />
    <polyline points="93,159.61662348876783 107,159.61662348876783 114,171.74097914174996" />
    <polyline points="107,159.61662348876783 114,147.4922678357857 128,147.4922678357857" />
    <polyline points="128,171.74097914174996 135,159.61662348876783 149,159.61662348876783 156,171.74097914174996" />
    <polyline points="149,159.61662348876783 156,147.4922678357857 170,147.4922678357857 177,159.61662348876783 191,159.61662348876783 198,171.74097914174996" />
    <line x1="191" y1="159.61662348876783" x2="198" y2="147.4922678357857" />
    <polyline points="212,147.4922678357857 219,159.61662348876783 212,171.74097914174996" />
    <line x1="233" y1="159.61662348876783" x2="240" y2="171.74097914174996" />
    <polyline points="240,147.4922678357857 254,147.4922678357857 261,159.61662348876783" />
    <polyline points="282,171.74097914174996 275,159.61662348876783 282,147.4922678357857 296,147.4922678357857" />
    <polyline points="303,159.61662348876783 317,159.61662348876783 324,171.74097914174996" />
    <line x1="317" y1="159.61662348876783" x2="324" y2="147.4922678357857" />
    <polyline points="338,171.74097914174996 345,159.61662348876783 359,159.61662348876783 366,147.4922678357857" />
    <polyline points="380,147.4922678357857 387,159.61662348876783 380,171.74097914174996" />
    <polyline points="9,208.11404610069636 2,195.98969044771422 9,183.86533479473209 23,183.86533479473209 30,171.74097914174996 44,171.74097914174996" />
    <line x1="44" y1="195.98969044771422" x2="51" y2="183.86533479473209" />
    <polyline points="72,195.98969044771422 65,183.86533479473209 72,171.74097914174996 86,171.74097914174996 93,183.86533479473209" />
    <polyline points="114,195.98969044771422 107,183.86533479473209 114,171.74097914174996" />
    <line x1="128" y1="195.98969044771422" x2="135" y2="183.86533479473209" />
    <polyline points="156,195.98969044771422 149,183.86533479473209 156,171.74097914174996" />
    <polyline points="170,171.74097914174996 177,183.86533479473209 191,183.86533479473209 198,195.98969044771422" />
    <polyline points="191,183.86533479473209 198,171.74097914174996 212,171.74097914174996" />
    <polyline points="212,195.98969044771422 219,183.86533479473209 233,183.86533479473209 240,171.74097914174996 254,171.74097914174996 261,183.86533479473209 275,183.86533479473209 282,171.74097914174996 296,171.74097914174996 303,183.86533479473209 296,195.98969044771422" />
    <polyline points="324,195.98969044771422 317,183.86533479473209 324,171.74097914174996" />
    <polyline points="338,171.74097914174996 345,183.86533479473209 338,195.98969044771422" />
    <polyline points="366,195.98969044771422 359,183.86533479473209 366,171.74097914174996 380,171.74097914174996 387,183.86533479473209 380,195.98969044771422" />
    <polyline points="9,232.36275740666065 2,220.23840175367852 9,208.11404610069639 23,208.11404610069639 30,195.98969044771425 44,195.98969044771425 51,208.11404610069639 44,220.23840175367852" />
    <line x1="51" y1="208.11404610069639" x2="65" y2="208.11404610069639" />
    <polyline points="86,195.98969044771425 93,208.11404610069639 86,220.23840175367852" />
    <line x1="93" y1="208.11404610069639" x2="107" y2="208.11404610069639" />
    <polyline points="114,195.98969044771425 128,195.98969044771425 135,208.11404610069639 128,220.23840175367852" />
    <polyline points="135,208.11404610069639 149,208.11404610069639 156,220.23840175367852" />
    <polyline points="156,195.98969044771425 170,195.98969044771425 177,208.11404610069639 170,220.23840175367852" />
    <polyline points="198,220.23840175367852 191,208.11404610069639 198,195.98969044771425 212,195.98969044771425" />
    <polyline points="219,208.11404610069639 233,208.11404610069639 240,220.23840175367852" />
    <polyline points="240,195.98969044771425 254,195.98969044771425 261,208.11404610069639 254,220.23840175367852" />
    <polyline points="261,208.11404610069639 275,208.11404610069639 282,195.98969044771425 296,195.98969044771425 303,208.11404610069639 296,220.23840175367852" />
    <polyline points="324,220.23840175367852 317,208.11404610069639 324,195.98969044771425" />
    <polyline points="338,195.98969044771425 345,208.11404610069639 338,220.23840175367852" />
    <line x1="359" y1="208.11404610069639" x2="366" y2="220.23840175367852" />
    <polyline points="380,195.98969044771425 387,208.11404610069639 380,220.23840175367852" />
    <polyline points="9,256.61146871262497 2,244.48711305964281 9,232.36275740666068" />
    <line x1="23" y1="232.36275740666068" x2="30" y2="244.48711305964281" />
    <line x1="30" y1="220.23840175367855" x2="44" y2="220.23840175367855" />
    <polyline points="44,244.48711305964281 51,232.36275740666068 65,232.36275740666068 72,244.48711305964281" />
    <polyline points="65,232.36275740666068 72,220.23840175367855 86,220.23840175367855" />
    <polyline points="86,244.48711305964281 93,232.36275740666068 107,232.36275740666068 114,220.23840175367855 128,220.23840175367855" />
    <polyline points="128,244.48711305964281 135,232.36275740666068 149,232.36275740666068 156,244.48711305964281" />
    <line x1="170" y1="220.23840175367855" x2="177" y2="232.36275740666068" />
    <polyline points="198,244.48711305964281 191,232.36275740666068 198,220.23840175367855 212,220.23840175367855 219,232.36275740666068" />
    <polyline points="240,244.48711305964281 233,232.36275740666068 240,220.23840175367855" />
    <polyline points="254,220.23840175367855 261,232.36275740666068 254,244.48711305964281" />
    <polyline points="282,244.48711305964281 275,232.36275740666068 282,220.23840175367855" />
    <polyline points="296,220.23840175367855 303,232.36275740666068 296,244.48711305964281" />
    <polyline points="324,244.48711305964281 317,232.36275740666068 324,220.23840175367855" />
    <polyline points="338,220.23840175367855 345,232.36275740666068 359,232.36275740666068 366,244.48711305964281" />
    <polyline points="366,220.23840175367855 380,220.23840175367855 387,232.36275740666068 380,244.48711305964281" />
    <polyline points="9,280.86018001858923 2,268.73582436560707 9,256.61146871262491 23,256.61146871262491" />
    <polyline points="30,244.48711305964278 44,244.48711305964278 51,256.61146871262491 44,268.73582436560707" />
    <line x1="51" y1="256.61146871262491" x2="65" y2="256.61146871262491" />
    <polyline points="72,244.48711305964278 86,244.48711305964278 93,256.61146871262491 86,268.73582436560707" />
    <polyline points="107,256.61146871262491 114,244.48711305964278 128,244.48711305964278" />
    <polyline points="128,268.73582436560707 135,256.61146871262491 149,256.61146871262491 156,268.73582436560707" />
    <polyline points="156,244.48711305964278 170,244.48711305964278 177,256.61146871262491 191,256.61146871262491 198,268.73582436560707" />
    <polyline points="191,256.61146871262491 198,244.48711305964278 212,244.48711305964278" />
    <polyline points="219,256.61146871262491 233,256.61146871262491 240,268.73582436560707" />
    <line x1="233" y1="256.61146871262491" x2="240" y2="244.48711305964278" />
    <polyline points="254,268.73582436560707 261,256.61146871262491 275,256.61146871262491 282,268.73582436560707" />
    <line x1="275" y1="256.61146871262491" x2="282" y2="244.48711305964278" />
    <polyline points="296,244.48711305964278 303,256.61146871262491 317,256.61146871262491 324,244.48711305964278 338,244.48711305964278 345,256.61146871262491 338,268.73582436560707" />
    <line x1="359" y1="256.61146871262491" x2="366" y2="268.73582436560707" />
    <polyline points="366,244.48711305964278 380,244.48711305964278 387,256.61146871262491 380,268.73582436560707" />
    <polyline points="9,305.1088913245535 2,292.98453567157134 9,280.86018001858918" />
    <polyline points="23,280.86018001858918 30,268.735824365607 44,268.735824365607 51,280.86018001858918 44,292.98453567157134" />
    <line x1="51" y1="280.86018001858918" x2="65" y2="280.86018001858918" />
    <polyline points="72,268.735824365607 86,268.735824365607 93,280.86018001858918 86,292.98453567157134" />
    <line x1="93" y1="280.86018001858918" x2="107" y2="280.86018001858918" />
    <line x1="114" y1="268.735824365607" x2="128" y2="268.735824365607" />
    <line x1="128" y1="292.98453567157134" x2="135" y2="280.86018001858918" />
    <polyline points="156,292.98453567157134 149,280.86018001858918 156,268.735824365607 170,268.735824365607" />
    <polyline points="177,280.86018001858918 191,280.86018001858918 198,292.98453567157134" />
    <polyline points="191,280.86018001858918 198,268.735824365607 212,268.735824365607" />
    <polyline points="219,280.86018001858918 233,280.86018001858918 240,292.98453567157134" />
    <line x1="240" y1="268.735824365607" x2="254" y2="268.735824365607" />
    <line x1="254" y1="292.98453567157134" x2="261" y2="280.86018001858918" />
    <polyline points="282,292.98453567157134 275,280.86018001858918 282,268.735824365607 296,268.735824365607 303,280.86018001858918 296,292.98453567157134" />
    <polyline points="303,280.86018001858918 317,280.86018001858918 324,292.98453567157134" />
    <line x1="317" y1="280.86018001858918" x2="324" y2="268.735824365607" />
    <polyline points="345,280.86018001858918 359,280.86018001858918 366,292.98453567157134" />
    <line x1="359" y1="280.86018001858918" x2="366" y2="268.735824365607" />
    <polyline points="380,268.735824365607 387,280.86018001858918 380,292.98453567157134" />
    <polyline points="9,329.35760263051782 2,317.23324697753566 9,305.1088913245535 23,305.1088913245535 30,317.23324697753566" />
    <line x1="23" y1="305.1088913245535" x2="30" y2="292.98453567157134" />
    <polyline points="44,292.98453567157134 51,305.1088913245535 65,305.1088913245535 72,317.23324697753566" />
    <polyline points="72,292.98453567157134 86,292.98453567157134 93,305.1088913245535" />
    <polyline points="114,317.23324697753566 107,305.1088913245535 114,292.98453567157134 128,292.98453567157134 135,305.1088913245535 128,317.23324697753566" />
    <polyline points="156,317.23324697753566 149,305.1088913245535 156,292.98453567157134 170,292.98453567157134" />
    <polyline points="170,317.23324697753566 177,305.1088913245535 191,305.1088913245535 198,317.23324697753566" />
    <line x1="198" y1="292.98453567157134" x2="212" y2="292.98453567157134" />
    <polyline points="212,317.23324697753566 219,305.1088913245535 233,305.1088913245535 240,317.23324697753566" />
    <polyline points="233,305.1088913245535 240,292.98453567157134 254,292.98453567157134" />
    <polyline points="254,317.23324697753566 261,305.1088913245535 275,305.1088913245535 282,317.23324697753566" />
    <line x1="275" y1="305.1088913245535" x2="282" y2="292.98453567157134" />
    <polyline points="296,292.98453567157134 303,305.1088913245535 296,317.23324697753566" />
    <line x1="317" y1="305.1088913245535" x2="324" y2="317.23324697753566" />
    <line x1="324" y1="292.98453567157134" x2="338" y2="292.98453567157134" />
    <polyline points="338,317.23324697753566 345,305.1088913245535 359,305.1088913245535 366,292.98453567157134" />
    <polyline points="380,292.98453567157134 387,305.1088913245535 380,317.23324697753566" />
    <polyline points="9,353.60631393648208 2,341.48195828349992 9,329.35760263051776" />
    <line x1="23" y1="329.35760263051776" x2="30" y2="317.2332469775356" />
    <polyline points="44,317.2332469775356 51,329.35760263051776 44,341.48195828349992" />
    <polyline points="51,329.35760263051776 65,329.35760263051776 72,341.48195828349992" />
    <polyline points="72,317.2332469775356 86,317.2332469775356 93,329.35760263051776 107,329.35760263051776 114,341.48195828349992" />
    <line x1="107" y1="329.35760263051776" x2="114" y2="317.2332469775356" />
    <polyline points="128,317.2332469775356 135,329.35760263051776 128,341.48195828349992" />
    <polyline points="149,329.35760263051776 156,317.2332469775356 170,317.2332469775356" />
    <line x1="170" y1="341.48195828349992" x2="177" y2="329.35760263051776" />
    <polyline points="191,329.35760263051776 198,317.2332469775356 212,317.2332469775356" />
    <line x1="212" y1="341.48195828349992" x2="219" y2="329.35760263051776" />
    <polyline points="233,329.35760263051776 240,317.2332469775356 254,317.2332469775356" />
    <polyline points="254,341.48195828349992 261,329.35760263051776 275,329.35760263051776 282,317.2332469775356" />
    <polyline points="296,317.2332469775356 303,329.35760263051776 296,341.48195828349992" />
    <polyline points="324,341.48195828349992 317,329.35760263051776 324,317.2332469775356 338,317.2332469775356 345,329.35760263051776 359,329.35760263051776 366,341.48195828349992" />
    <polyline points="366,317.2332469775356 380,317.2332469775356 387,329.35760263051776 380,341.48195828349992" />
    <polyline points="9,377.85502524244635 2,365.73066958946418 9,353.606313936482 23,353.606313936482 30,365.73066958946418" />
    <line x1="23" y1="353.606313936482" x2="30" y2="341.48195828349986" />
    <polyline points="44,365.73066958946418 51,353.606313936482 65,353.606313936482" />
    <polyline points="72,341.48195828349986 86,341.48195828349986 93,353.606313936482 86,365.73066958946418" />
    <polyline points="93,353.606313936482 107,353.606313936482 114,365.73066958946418" />
    <polyline points="128,341.48195828349986 135,353.606313936482 149,353.606313936482 156,341.48195828349986 170,341.48195828349986 177,353.606313936482 191,353.606313936482 198,341.48195828349986 212,341.48195828349986 219,353.606313936482 212,365.73066958946418" />
    <line x1="219" y1="353.606313936482" x2="233" y2="353.606313936482" />
    <polyline points="240,341.48195828349986 254,341.48195828349986 261,353.606313936482 254,365.73066958946418" />
    <polyline points="282,365.73066958946418 275,353.606313936482 282,341.48195828349986 296,341.48195828349986" />
    <line x1="296" y1="365.73066958946418" x2="303" y2="353.606313936482" />
    <polyline points="324,365.73066958946418 317,353.606313936482 324,341.48195828349986" />
    <polyline points="338,341.48195828349986 345,353.606313936482 359,353.606313936482 366,341.48195828349986" />
    <polyline points="380,341.48195828349986 387,353.606313936482 380,365.73066958946418" />
    <polyline points="9,402.10373654841067 2,389.97938089542851 9,377.85502524244635" />
    <line x1="23" y1="377.85502524244635" x2="30" y2="389.97938089542851" />
    <polyline points="30,365.73066958946418 44,365.73066958946418 51,377.85502524244635 65,377.85502524244635 72,365.73066958946418" />
    <polyline points="86,365.73066958946418 93,377.85502524244635 86,389.97938089542851" />
    <line x1="107" y1="377.85502524244635" x2="114" y2="389.97938089542851" />
    <polyline points="114,365.73066958946418 128,365.73066958946418 135,377.85502524244635" />
    <polyline points="156,389.97938089542851 149,377.85502524244635 156,365.73066958946418 170,365.73066958946418 177,377.85502524244635 191,377.85502524244635 198,389.97938089542851" />
    <polyline points="191,377.85502524244635 198,365.73066958946418 212,365.73066958946418 219,377.85502524244635" />
    <polyline points="233,377.85502524244635 240,365.73066958946418 254,365.73066958946418 261,377.85502524244635 254,389.97938089542851" />
    <polyline points="275,377.85502524244635 282,365.73066958946418 296,365.73066958946418 303,377.85502524244635 317,377.85502524244635" />
    <polyline points="324,365.73066958946418 338,365.73066958946418 345,377.85502524244635 338,389.97938089542851" />
    <polyline points="345,377.85502524244635 359,377.85502524244635 366,365.73066958946418" />
    <polyline points="380,365.73066958946418 387,377.85502524244635 380,389.97938089542851" />
    <polyline points="9,426.35244785437493 2,414.22809220139277 9,402.10373654841061" />
    <polyline points="30,414.22809220139277 23,402.10373654841061 30,389.97938089542845 44,389.97938089542845 51,402.10373654841061 65,402.10373654841061 72,414.22809220139277" />
    <line x1="65" y1="402.10373654841061" x2="72" y2="389.97938089542845" />
    <polyline points="86,389.97938089542845 93,402.10373654841061 86,414.22809220139277" />
    <polyline points="114,414.22809220139277 107,402.10373654841061 114,389.97938089542845" />
    <polyline points="128,389.97938089542845 135,402.10373654841061 128,414.22809220139277" />
    <polyline points="135,402.10373654841061 149,402.10373654841061 156,414.22809220139277" />
    <polyline points="156,389.97938089542845 170,389.97938089542845 177,402.10373654841061 170,414.22809220139277" />
    <polyline points="198,414.22809220139277 191,402.10373654841061 198,389.97938089542845" />
    <polyline points="212,389.97938089542845 219,402.10373654841061 233,402.10373654841061 240,414.22809220139277" />
    <line x1="233" y1="402.10373654841061" x2="240" y2="389.97938089542845" />
    <polyline points="254,389.97938089542845 261,402.10373654841061 275,402.10373654841061 282,414.22809220139277" />
    <polyline points="275,402.10373654841061 282,389.97938089542845 296,389.97938089542845 303,402.10373654841061 317,402.10373654841061 324,414.22809220139277" />
    <polyline points="317,402.10373654841061 324,389.97938089542845 338,389.97938089542845" />
    <polyline points="345,402.10373654841061 359,402.10373654841061 366,389.97938089542845 380,389.97938089542845 387,402.10373654841061 380,414.22809220139277" />
    <polyline points="9,450.60115916033919 2,438.47680350735703 9,426.35244785437487 23,426.35244785437487 30,438.47680350735703" />
    <polyline points="30,414.22809220139271 44,414.22809220139271 51,426.35244785437487 65,426.35244785437487 72,438.47680350735703" />
    <polyline points="72,414.22809220139271 86,414.22809220139271 93,426.35244785437487 86,438.47680350735703" />
    <polyline points="114,438.47680350735703 107,426.35244785437487 114,414.22809220139271" />
    <line x1="128" y1="438.47680350735703" x2="135" y2="426.35244785437487" />
    <polyline points="156,438.47680350735703 149,426.35244785437487 156,414.22809220139271" />
    <polyline points="170,414.22809220139271 177,426.35244785437487 191,426.35244785437487 198,438.47680350735703" />
    <polyline points="198,414.22809220139271 212,414.22809220139271 219,426.35244785437487" />
    <polyline points="240,438.47680350735703 233,426.35244785437487 240,414.22809220139271 254,414.22809220139271 261,426.35244785437487 254,438.47680350735703" />
    <line x1="275" y1="426.35244785437487" x2="282" y2="414.22809220139271" />
    <polyline points="296,414.22809220139271 303,426.35244785437487 296,438.47680350735703" />
    <polyline points="324,438.47680350735703 317,426.35244785437487 324,414.22809220139271 338,414.22809220139271 345,426.35244785437487" />
    <polyline points="366,438.47680350735703 359,426.35244785437487 366,414.22809220139271" />
    <polyline points="380,414.22809220139271 387,426.35244785437487 380,438.47680350735703" />
    <polyline points="9,474.84987046630351 2,462.72551481332135 9,450.60115916033919" />
    <polyline points="23,450.60115916033919 30,438.47680350735703 44,438.47680350735703 51,450.60115916033919" />
    <polyline points="72,462.72551481332135 65,450.60115916033919 72,438.47680350735703" />
    <polyline points="86,438.47680350735703 93,450.60115916033919 107,450.60115916033919 114,462.72551481332135" />
    <polyline points="107,450.60115916033919 114,438.47680350735703 128,438.47680350735703" />
    <line x1="128" y1="462.72551481332135" x2="135" y2="450.60115916033919" />
    <polyline points="149,450.60115916033919 156,438.47680350735703 170,438.47680350735703 177,450.60115916033919 191,450.60115916033919 198,462.72551481332135" />
    <polyline points="198,438.47680350735703 212,438.47680350735703 219,450.60115916033919 212,462.72551481332135" />
    <polyline points="219,450.60115916033919 233,450.60115916033919 240,462.72551481332135" />
    <line x1="233" y1="450.60115916033919" x2="240" y2="438.47680350735703" />
    <line x1="254" y1="438.47680350735703" x2="261" y2="450.60115916033919" />
    <polyline points="282,462.72551481332135 275,450.60115916033919 282,438.47680350735703 296,438.47680350735703" />
    <polyline points="303,450.60115916033919 317,450.60115916033919 324,462.72551481332135" />
    <polyline points="324,438.47680350735703 338,438.47680350735703 345,450.60115916033919 338,462.72551481332135" />
    <polyline points="345,450.60115916033919 359,450.60115916033919 366,438.47680350735703" />
    <polyline points="380,438.47680350735703 387,450.60115916033919 380,462.72551481332135" />
    <polyline points="9,499.09858177226778 2,486.97422611928562 9,474.84987046630346 23,474.84987046630346 30,462.7255148133213" />
    <polyline points="44,462.7255148133213 51,474.84987046630346 44,486.97422611928562" />
    <polyline points="51,474.84987046630346 65,474.84987046630346 72,486.97422611928562" />
    <line x1="65" y1="474.84987046630346" x2="72" y2="462.7255148133213" />
    <polyline points="86,462.7255148133213 93,474.84987046630346 86,486.97422611928562" />
    <line x1="107" y1="474.84987046630346" x2="114" y2="486.97422611928562" />
    <polyline points="114,462.7255148133213 128,462.7255148133213 135,474.84987046630346 128,486.97422611928562" />
    <polyline points="135,474.84987046630346 149,474.84987046630346 156,462.7255148133213 170,462.7255148133213 177,474.84987046630346 170,486.97422611928562" />
    <polyline points="177,474.84987046630346 191,474.84987046630346 198,486.97422611928562" />
    <line x1="191" y1="474.84987046630346" x2="198" y2="462.7255148133213" />
    <polyline points="212,462.7255148133213 219,474.84987046630346 212,486.97422611928562" />
    <line x1="219" y1="474.84987046630346" x2="233" y2="474.84987046630346" />
    <polyline points="240,462.7255148133213 254,462.7255148133213 261,474.84987046630346 275,474.84987046630346 282,486.97422611928562" />
    <polyline points="282,462.7255148133213 296,462.7255148133213 303,474.84987046630346 296,486.97422611928562" />
    <polyline points="303,474.84987046630346 317,474.84987046630346 324,486.97422611928562" />
    <line x1="317" y1="474.84987046630346" x2="324" y2="462.7255148133213" />
    <polyline points="338,462.7255148133213 345,474.84987046630346 359,474.84987046630346 366,486.97422611928562" />
    <polyline points="366,462.7255148133213 380,462.7255148133213 387,474.84987046630346 380,486.97422611928562" />
    <polyline points="9,523.347293078232 2,511.22293742524988 9,499.09858177226772 23,499.09858177226772 30,511.22293742524988" />
    <line x1="30" y1="486.97422611928556" x2="44" y2="486.97422611928556" />
    <polyline points="44,511.22293742524988 51,499.09858177226772 65,499.09858177226772 72,511.22293742524988" />
    <polyline points="72,486.97422611928556 86,486.97422611928556 93,499.09858177226772 86,511.22293742524988" />
    <polyline points="93,499.09858177226772 107,499.09858177226772 114,511.22293742524988" />
    <line x1="107" y1="499.09858177226772" x2="114" y2="486.97422611928556" />
    <polyline points="135,499.09858177226772 149,499.09858177226772 156,511.22293742524988" />
    <line x1="149" y1="499.09858177226772" x2="156" y2="486.97422611928556" />
    <polyline points="170,511.22293742524988 177,499.09858177226772 191,499.09858177226772 198,511.22293742524988" />
    <polyline points="212,511.22293742524988 219,499.09858177226772 233,499.09858177226772 240,486.97422611928556 254,486.97422611928556 261,499.09858177226772 254,511.22293742524988" />
    <polyline points="261,499.09858177226772 275,499.09858177226772 282,511.22293742524988" />
    <line x1="275" y1="499.09858177226772" x2="282" y2="486.97422611928556" />
    <polyline points="296,486.97422611928556 303,499.09858177226772 296,511.22293742524988" />
    <line x1="317" y1="499.09858177226772" x2="324" y2="511.22293742524988" />
    <polyline points="324,486.97422611928556 338,486.97422611928556 345,499.09858177226772 338,511.22293742524988" />
    <polyline points="345,499.09858177226772 359,499.09858177226772 366,511.22293742524988" />
    <line x1="359" y1="499.09858177226772" x2="366" y2="486.97422611928556" />
    <polyline points="380,486.97422611928556 387,499.09858177226772 380,511.22293742524988" />
    <polyline points="9,547.59600438419625 2,535.47164873121415 9,523.347293078232" />
    <line x1="23" y1="523.347293078232" x2="30" y2="535.47164873121415" />
    <polyline points="30,511.22293742524988 44,511.22293742524988 51,523.347293078232" />
    <polyline points="72,535.47164873121415 65,523.347293078232 72,511.22293742524988" />
    <polyline points="86,511.22293742524988 93,523.347293078232 107,523.347293078232 114,535.47164873121415" />
    <polyline points="114,511.22293742524988 128,511.22293742524988 135,523.347293078232" />
    <polyline points="156,535.47164873121415 149,523.347293078232 156,511.22293742524988 170,511.22293742524988" />
    <line x1="170" y1="535.47164873121415" x2="177" y2="523.347293078232" />
    <polyline points="198,535.47164873121415 191,523.347293078232 198,511.22293742524988 212,511.22293742524988" />
    <polyline points="219,523.347293078232 233,523.347293078232 240,535.47164873121415" />
    <line x1="233" y1="523.347293078232" x2="240" y2="511.22293742524988" />
    <polyline points="254,535.47164873121415 261,523.347293078232 275,523.347293078232" />
    <polyline points="296,535.47164873121415 303,523.347293078232 317,523.347293078232 324,535.47164873121415" />
    <polyline points="317,523.347293078232 324,511.22293742524988 338,511.22293742524988" />
    <line x1="338" y1="535.47164873121415" x2="345" y2="523.347293078232" />
    <polyline points="366,535.47164873121415 359,523.347293078232 366,511.22293742524988" />
    <polyline points="380,511.22293742524988 387,523.347293078232 380,535.47164873121415" />
    <polyline points="9,571.84471569016046 2,559.72036003717835 9,547.59600438419625" />
    <polyline points="23,547.59600438419625 30,535.47164873121415 44,535.47164873121415 51,547.59600438419625 65,547.59600438419625 72,559.72036003717835" />
    <line x1="72" y1="535.47164873121415" x2="86" y2="535.47164873121415" />
    <polyline points="86,559.72036003717835 93,547.59600438419625 107,547.59600438419625 114,535.47164873121415 128,535.47164873121415 135,547.59600438419625 149,547.59600438419625" />
    <polyline points="156,535.47164873121415 170,535.47164873121415 177,547.59600438419625" />
    <polyline points="198,559.72036003717835 191,547.59600438419625 198,535.47164873121415 212,535.47164873121415 219,547.59600438419625" />
    <polyline points="240,559.72036003717835 233,547.59600438419625 240,535.47164873121415 254,535.47164873121415 261,547.59600438419625" />
    <polyline points="282,559.72036003717835 275,547.59600438419625 282,535.47164873121415" />
    <polyline points="296,535.47164873121415 303,547.59600438419625 296,559.72036003717835" />
    <line x1="317" y1="547.59600438419625" x2="324" y2="559.72036003717835" />
    <polyline points="338,535.47164873121415 345,547.59600438419625 359,547.59600438419625 366,559.72036003717835" />
    <polyline points="380,535.47164873121415 387,547.59600438419625 380,559.72036003717835" />
    <polyline points="30,559.72036003717835 23,571.84471569016046 9,571.84471569016046" />
    <line x1="44" y1="559.72036003717835" x2="30" y2="559.72036003717835" />
    <polyline points="72,559.72036003717835 65,571.84471569016046 51,571.84471569016046 44,559.72036003717835" />
    <line x1="86" y1="559.72036003717835" x2="72" y2="559.72036003717835" />
    <polyline points="114,559.72036003717835 107,571.84471569016046 93,571.84471569016046 86,559.72036003717835" />
    <line x1="128" y1="559.72036003717835" x2="114" y2="559.72036003717835" />
    <polyline points="156,559.72036003717835 149,571.84471569016046 135,571.84471569016046 128,559.72036003717835" />
    <line x1="170" y1="559.72036003717835" x2="156" y2="559.72036003717835" />
    <polyline points="198,559.72036003717835 191,571.84471569016046 177,571.84471569016046 170,559.72036003717835" />
    <polyline points="240,559.72036003717835 233,571.84471569016046 219,571.84471569016046 212,559.72036003717835" />
    <line x1="254" y1="559.72036003717835" x2="240" y2="559.72036003717835" />
    <polyline points="282,559.72036003717835 275,571.84471569016046 261,571.84471569016046 254,559.72036003717835" />
    <line x1="296" y1="559.72036003717835" x2="282" y2="559.72036003717835" />
    <polyline points="324,559.72036003717835 317,571.84471569016046 303,571.84471569016046 296,559.72036003717835" />
    <line x1="338" y1="559.72036003717835" x2="324" y2="559.72036003717835" />
    <polyline points="366,559.72036003717835 359,571.84471569016046 345,571.84471569016046 338,559.72036003717835" />
    <line x1="380" y1="559.72036003717835" x2="366" y2="559.72036003717835" />
  </g>
  <polyline fill="none" stroke="#ff0000" stroke-width="2" stroke-linecap="square" stroke-linejoin="round" points="184,14.124355652982123 184,26.248711305964264 142,50.497422611928542 163,62.621778264910681 205,38.3730669589464 226,50.497422611928542 247,38.3730669589464 226,26.248711305964264 247,14.124355652982123 268,26.248711305964264 268,50.497422611928542 289,62.621778264910681 289,86.870489570874966 268,98.994845223857112 247,86.870489570874966 268,74.74613391789282 247,62.621778264910681 205,86.870489570874966 226,98.994845223857112 184,123.24355652982139 163,111.11920087683924 163,86.870489570874966 142,98.994845223857112 142,147.49226783578567 121,159.61662348876783 121,183.86533479473209 142,171.74097914174996 142,195.98969044771422 163,208.11404610069639 163,232.36275740666068 142,220.23840175367852 100,244.48711305964281 100,268.73582436560707 121,280.86018001858918 142,268.73582436560707 142,341.48195828349992 184,317.23324697753566 184,341.48195828349992 226,317.23324697753566 226,341.48195828349992 247,353.606313936482 226,365.73066958946418 226,389.97938089542851 247,377.85502524244635 247,402.10373654841061 268,414.22809220139277 268,462.72551481332135 289,474.84987046630346 289,523.347293078232 268,511.22293742524988 247,523.347293078232 247,499.09858177226772 205,523.347293078232 226,535.47164873121415 226,559.72036003717835 205,547.59600438419625 205,559.72036003717835" />
  <type>Rectangular</type>
</svg>