<?xml version="1.0" encoding="utf-8" standalone="no"?>
<!DOCTYPE svg PUBLIC "-//W3C//DTD SVG 1.1//EN" "http://www.w3.org/Graphics/SVG/1.1/DTD/svg11.dtd"[]>
<svg width="436" height="436" version="1.1" xmlns="http://www.w3.org/2000/svg">
  <title>27 cells diameter theta maze</title>
  <g fill="none" stroke="#000000" stroke-width="2" stroke-linecap="square">
    <path d="M 202.02943725152286,235.97056274847714 A 24,24 0 1,1 219,243" />
    <path d="M 234.3073372946036,182.04481869954853 A 40,40 0 0,1 247.2842712474619,247.2842712474619" />
    <path d="M 219,259 A 40,40 0 0,1 190.7157287525381,247.2842712474619" />
    <path d="M 182.04481869954853,234.3073372946036 A 40,40 0 0,1 179,219" />
    <path d="M 182.04481869954853,203.6926627053964 A 40,40 0 0,1 203.69266270539637,182.04481869954856" />
    <path d="M 197.56972778755494,167.26274617936795 A 56,56 0 0,1 219,163" />
    <path d="M 275,219 A 56,56 0 0,1 270.73725382063208,240.43027221244503" />
    <path d="M 240.43027221244503,270.73725382063208 A 56,56 0 0,1 197.569727787555,270.73725382063208" />
    <path d="M 179.40202025355336,258.59797974644664 A 56,56 0 0,1 167.26274617936795,240.43027221244506" />
    <path d="M 167.26274617936795,197.56972778755497 A 56,56 0 0,1 179.40202025355333,179.40202025355336" />
    <path d="M 219,147 A 72,72 0 0,1 259.00105677741135,159.13418791421674" />
    <path d="M 278.86581208578326,178.99894322258865 A 72,72 0 0,1 289.61654018903261,233.04650318516124" />
    <path d="M 285.51932634081265,246.55320713028647 A 72,72 0 0,1 278.86581208578326,259.00105677741135" />
    <path d="M 269.91168824543144,269.91168824543144 A 72,72 0 0,1 219,291" />
    <path d="M 191.44679286971353,285.51932634081265 A 72,72 0 0,1 168.08831175456859,269.91168824543144" />
    <path d="M 159.13418791421674,259.00105677741135 A 72,72 0 0,1 152.48067365918737,246.5532071302865" />
    <path d="M 148.3834598109674,233.04650318516127 A 72,72 0 0,1 159.13418791421674,178.99894322258865" />
    <path d="M 168.08831175456857,168.08831175456859 A 72,72 0 0,1 178.99894322258865,159.13418791421674" />
    <path d="M 191.44679286971348,152.48067365918737 A 72,72 0 0,1 204.95349681483873,148.3834598109674" />
    <path d="M 201.83205166258068,132.69089532451574 A 88,88 0 0,1 236.16794833741929,132.69089532451574" />
    <path d="M 252.6761420481279,137.69860113900677 A 88,88 0 0,1 307,219" />
    <path d="M 219,307 A 88,88 0 0,1 201.83205166258071,305.30910467548426" />
    <path d="M 156.77460325558383,281.22539674441617 A 88,88 0 0,1 145.83067411737602,267.89018050572497" />
    <path d="M 137.69860113900677,252.67614204812796 A 88,88 0 0,1 132.69089532451574,201.83205166258071" />
    <path d="M 145.830674117376,170.10981949427503 A 88,88 0 0,1 156.7746032555838,156.77460325558383" />
    <path d="M 170.109819494275,145.83067411737602 A 88,88 0 0,1 185.32385795187204,137.69860113900677" />
    <path d="M 219,115 A 104,104 0 0,1 239.28939348967734,116.99833083806404" />
    <path d="M 258.79907696596933,122.91652861882618 A 104,104 0 0,1 292.53910524340097,145.46089475659906" />
    <path d="M 323,219 A 104,104 0 0,1 219,323" />
    <path d="M 198.71060651032266,321.001669161936 A 104,104 0 0,1 179.20092303403067,315.08347138117381" />
    <path d="M 161.22069576596141,305.47283967946476 A 104,104 0 0,1 132.5271603205353,276.77930423403865" />
    <path d="M 116.99833083806404,198.71060651032266 A 104,104 0 0,1 122.91652861882619,179.20092303403064" />
    <path d="M 145.46089475659903,145.46089475659909 A 104,104 0 0,1 161.22069576596135,132.5271603205353" />
    <path d="M 173.07798811618915,108.13445609864561 A 120,120 0 0,1 285.66842796235227,119.22364652369457" />
    <path d="M 329.86554390135439,173.07798811618923 A 120,120 0 0,1 336.69423364838764,195.58916135806459" />
    <path d="M 329.86554390135439,264.92201188381074 A 120,120 0 0,1 318.77635347630542,285.66842796235221" />
    <path d="M 285.66842796235227,318.77635347630542 A 120,120 0 0,1 264.9220118838108,329.86554390135439" />
    <path d="M 242.41083864193544,336.69423364838764 A 120,120 0 0,1 195.58916135806459,336.69423364838764" />
    <path d="M 173.07798811618926,329.86554390135439 A 120,120 0 0,1 101.30576635161235,195.58916135806462" />
    <path d="M 108.1344560986456,173.0779881161892 A 120,120 0 0,1 152.33157203764773,119.22364652369457" />
    <path d="M 219,83 A 136,136 0 0,1 258.4787161066069,88.8561143404196" />
    <path d="M 294.55755169066589,105.92013272685385 A 136,136 0 0,1 315.16652224137044,122.83347775862953" />
    <path d="M 324.12942165733222,132.72251335374421 A 136,136 0 0,1 332.07986727314614,143.44244830933411" />
    <path d="M 338.94129195137629,154.89004379166431 A 136,136 0 0,1 349.14388565958041,179.52128389339313" />
    <path d="M 352.38679813483935,192.46771620580654 A 136,136 0 0,1 354.34512282741878,205.66966891517973" />
    <path d="M 352.38679813483935,245.53228379419343 A 136,136 0 0,1 338.94129195137629,283.10995620833569" />
    <path d="M 324.12942165733227,305.27748664625574 A 136,136 0 0,1 305.2774866462558,324.12942165733222" />
    <path d="M 258.4787161066069,349.14388565958041 A 136,136 0 0,1 219.00000000000003,355" />
    <path d="M 205.66966891517976,354.34512282741878 A 136,136 0 0,1 179.52128389339316,349.14388565958041" />
    <path d="M 154.89004379166431,338.94129195137629 A 136,136 0 0,1 99.058708048623714,154.89004379166431" />
    <path d="M 105.92013272685382,143.44244830933414 A 136,136 0 0,1 132.72251335374415,113.87057834266783" />
    <path d="M 143.44244830933411,105.92013272685385 A 136,136 0 0,1 154.89004379166428,99.058708048623743" />
    <path d="M 192.46771620580648,85.613201865160676 A 136,136 0 0,1 205.66966891517978,83.654877172581223" />
    <path d="M 204.1013946699068,67.731921545826083 A 152,152 0 0,1 233.8986053300932,67.731921545826083" />
    <path d="M 248.65372894645151,69.92063737870896 A 152,152 0 0,1 263.12327094267829,73.545068968704243" />
    <path d="M 277.16788171949366,78.5703110582844 A 152,152 0 0,1 336.497588911136,122.57222080712587" />
    <path d="M 359.4296889417156,160.83211828050634 A 152,152 0 0,1 359.4296889417156,277.16788171949361" />
    <path d="M 353.05203218094994,290.65230399755166 A 152,152 0 0,1 315.42777919287414,336.497588911136" />
    <path d="M 303.44667541897951,345.38338106998685 A 152,152 0 0,1 263.12327094267829,364.45493103129576" />
    <path d="M 219.00000000000003,371 A 152,152 0 0,1 160.83211828050636,359.4296889417156" />
    <path d="M 134.55332458102049,345.38338106998691 A 152,152 0 0,1 101.50241108886402,315.42777919287414" />
    <path d="M 73.545068968704243,263.12327094267829 A 152,152 0 0,1 67.731921545826083,233.89860533009318" />
    <path d="M 67.731921545826054,204.10139466990688 A 152,152 0 0,1 73.545068968704243,174.87672905732177" />
    <path d="M 92.61661893001309,134.55332458102052 A 152,152 0 0,1 111.51976925964475,111.5197692596448" />
    <path d="M 122.57222080712582,101.50241108886404 A 152,152 0 0,1 189.34627105354844,69.920637378708989" />
    <path d="M 170.23217422125032,58.234023596988919 A 168,168 0 0,1 251.77517409870956,54.228072892257273" />
    <path d="M 267.76782577874968,58.234023596988919 A 168,168 0 0,1 283.29081663733507,63.788238538103826" />
    <path d="M 312.33579914729319,79.3131051331724 A 168,168 0 0,1 367.16277241052364,139.80534821323238" />
    <path d="M 379.76597640301111,170.23217422125032 A 168,168 0 0,1 386.19103408092906,202.53312042463378" />
    <path d="M 386.19103408092906,235.46687957536619 A 168,168 0 0,1 367.16277241052364,298.19465178676762" />
    <path d="M 348.86575616493985,325.57807173949243 A 168,168 0 0,1 298.19465178676762,367.16277241052364" />
    <path d="M 267.76782577874968,379.76597640301111 A 168,168 0 0,1 251.77517409870961,383.77192710774273" />
    <path d="M 235.46687957536622,386.19103408092906 A 168,168 0 0,1 219.00000000000003,387" />
    <path d="M 202.53312042463381,386.19103408092906 A 168,168 0 0,1 170.23217422125038,379.76597640301111" />
    <path d="M 139.80534821323241,367.16277241052364 A 168,168 0 0,1 125.66420085270688,358.68689486682763" />
    <path d="M 112.42192826050759,348.86575616493985 A 168,168 0 0,1 79.3131051331724,312.33579914729319" />
    <path d="M 63.788238538103855,283.29081663733518 A 168,168 0 0,1 58.234023596988919,267.76782577874968" />
    <path d="M 51,219.00000000000003 A 168,168 0 0,1 51.808965919070914,202.53312042463392" />
    <path d="M 63.788238538103855,154.70918336266487 A 168,168 0 0,1 125.66420085270683,79.3131051331724" />
    <path d="M 183.10338074903231,38.535508405805615 A 184,184 0 0,1 237.03515382063915,35.886010292315774" />
    <path d="M 254.8966192509676,38.535508405805587 A 184,184 0 0,1 272.41238061482107,42.922978225273567" />
    <path d="M 371.99040866366829,116.77507712439318 A 184,184 0 0,1 381.27351264009735,132.26300042401641" />
    <path d="M 388.99383398207675,148.58624844482347 A 184,184 0 0,1 403,219" />
    <path d="M 402.11398970768425,237.03515382063915 A 184,184 0 0,1 395.0770217747264,272.412380614821" />
    <path d="M 388.99383398207681,289.41375155517653 A 184,184 0 0,1 381.27351264009735,305.73699957598359" />
    <path d="M 349.10764773832477,349.10764773832477 A 184,184 0 0,1 321.22492287560681,371.99040866366835" />
    <path d="M 305.73699957598359,381.27351264009729 A 184,184 0 0,1 272.41238061482107,395.0770217747264" />
    <path d="M 183.1033807490324,399.46449159419444 A 184,184 0 0,1 165.58761938517898,395.0770217747264" />
    <path d="M 148.58624844482353,388.99383398207681 A 184,184 0 0,1 132.26300042401644,381.27351264009735" />
    <path d="M 116.77507712439325,371.99040866366835 A 184,184 0 0,1 88.892352261675285,349.10764773832477" />
    <path d="M 76.76607658125647,335.72836428611083 A 184,184 0 0,1 49.006166017923277,289.41375155517665" />
    <path d="M 42.922978225273567,272.41238061482107 A 184,184 0 0,1 38.535508405805615,254.89661925096766" />
    <path d="M 35.886010292315774,200.96484617936093 A 184,184 0 0,1 38.535508405805587,183.1033807490324" />
    <path d="M 76.766076581256414,102.27163571388921 A 184,184 0 0,1 132.26300042401638,56.726487359902706" />
    <path d="M 148.58624844482335,49.006166017923277 A 184,184 0 0,1 165.5876193851789,42.922978225273567" />
    <path d="M 219,19 A 200,200 0 0,1 277.05693545089247,27.611932853558216" />
    <path d="M 313.27934736519956,42.615747130329 A 200,200 0 0,1 330.11404660392043,52.706077539490963" />
    <path d="M 360.42135623730951,77.57864376269049 A 200,200 0 0,1 385.29392246050907,107.88595339607954" />
    <path d="M 395.384252869671,124.72065263480044 A 200,200 0 0,1 403.77590650225738,142.46331352698203" />
    <path d="M 410.38806714644181,160.94306454910753 A 200,200 0 0,1 415.1570560806461,179.98193559677435" />
    <path d="M 419,219 A 200,200 0 0,1 418.03694533443934,238.60342806591214" />
    <path d="M 410.38806714644181,277.05693545089241 A 200,200 0 0,1 385.29392246050907,330.11404660392043" />
    <path d="M 373.60209067254743,345.87865683272906 A 200,200 0 0,1 345.87865683272912,373.60209067254743" />
    <path d="M 330.11404660392043,385.29392246050907 A 200,200 0 0,1 313.27934736519956,395.38425286967095" />
    <path d="M 295.536686473018,403.77590650225738 A 200,200 0 0,1 258.01806440322571,415.15705608064604" />
    <path d="M 238.60342806591217,418.03694533443934 A 200,200 0 0,1 219.00000000000003,419" />
    <path d="M 160.94306454910759,410.38806714644181 A 200,200 0 0,1 92.121343167270936,373.60209067254743" />
    <path d="M 77.578643762690518,360.42135623730951 A 200,200 0 0,1 42.615747130329027,313.27934736519956" />
    <path d="M 34.2240934977427,295.53668647301805 A 200,200 0 0,1 22.842943919353928,258.01806440322571" />
    <path d="M 19.963054665560634,238.60342806591208 A 200,200 0 0,1 19,219.00000000000003" />
    <path d="M 22.8429439193539,179.98193559677435 A 200,200 0 0,1 34.224093497742672,142.463313526982" />
    <path d="M 52.706077539490906,107.88595339607963 A 200,200 0 0,1 107.88595339607956,52.706077539490963" />
    <path d="M 179.98193559677426,22.842943919353928 A 200,200 0 0,1 199.39657193408789,19.963054665560634" />
    <path d="M 240.1717023111851,4.0400990388054652 A 216,216 0 1,1 219,3" />
  </g>
  <g fill="none" stroke="#000000" stroke-width="2" stroke-linecap="butt">
    <line x1="219" y1="67" x2="219" y2="83" />
    <line x1="219" y1="99" x2="219" y2="115" />
    <line x1="219" y1="147" x2="219" y2="195" />
    <line x1="238.60342806591211" y1="19.963054665560605" x2="237.03515382063915" y2="35.886010292315774" />
    <line x1="254.8966192509676" y1="38.535508405805615" x2="245.53228379419343" y2="85.613201865160647" />
    <line x1="239.28939348967734" y1="116.99833083806404" x2="236.16794833741929" y2="132.69089532451574" />
    <line x1="301.6596213908594" y1="19.442020977562066" x2="283.29081663733507" y2="63.788238538103826" />
    <line x1="277.16788171949366" y1="78.5703110582844" x2="264.9220118838108" y2="108.13445609864559" />
    <line x1="258.79907696596933" y1="122.91652861882618" x2="252.6761420481279" y2="137.69860113900677" />
    <line x1="246.55320713028647" y1="152.48067365918735" x2="234.3073372946036" y2="182.04481869954853" />
    <line x1="313.27934736519956" y1="42.615747130329" x2="283.10995620833569" y2="99.058708048623714" />
    <line x1="321.22492287560681" y1="66.009591336331681" x2="312.33579914729319" y2="79.3131051331724" />
    <line x1="345.87865683272912" y1="64.3979093274526" x2="325.57807173949243" y2="89.134243835060175" />
    <line x1="371.73506473629425" y1="66.264935263705723" x2="349.10764773832477" y2="88.892352261675256" />
    <line x1="315.16652224137044" y1="122.83347775862953" x2="292.53910524340097" y2="145.46089475659903" />
    <line x1="281.22539674441617" y1="156.77460325558383" x2="258.59797974644664" y2="179.40202025355333" />
    <line x1="361.23392341874364" y1="102.27163571388923" x2="348.86575616493985" y2="112.42192826050756" />
    <line x1="336.497588911136" y1="122.57222080712589" x2="324.12942165733222" y2="132.72251335374421" />
    <line x1="371.99040866366829" y1="116.77507712439318" x2="345.38338106998685" y2="134.55332458102043" />
    <line x1="318.77635347630542" y1="152.33157203764773" x2="278.86581208578326" y2="178.99894322258865" />
    <line x1="409.49499309924465" y1="117.17830484558448" x2="381.27351264009729" y2="132.26300042401641" />
    <line x1="367.16277241052364" y1="139.80534821323238" x2="338.94129195137629" y2="154.89004379166431" />
    <line x1="388.99383398207675" y1="148.58624844482347" x2="359.4296889417156" y2="160.83211828050634" />
    <line x1="344.64761642153496" y1="166.9550531983478" x2="300.30139886099323" y2="185.3238579518721" />
    <line x1="285.51932634081265" y1="191.44679286971353" x2="255.95518130045147" y2="203.6926627053964" />
    <line x1="425.69911251815711" y1="156.29850971303614" x2="395.0770217747264" y2="165.58761938517893" />
    <line x1="368.079362621291" y1="189.34627105354849" x2="352.38679813483935" y2="192.46771620580654" />
    <line x1="336.69423364838764" y1="195.58916135806459" x2="321.001669161936" y2="198.71060651032266" />
    <line x1="433.95990096119453" y1="197.82829768881487" x2="418.03694533443934" y2="199.39657193408783" />
    <line x1="386.19103408092906" y1="202.53312042463378" x2="370.26807845417392" y2="204.10139466990677" />
    <line x1="419" y1="219" x2="387" y2="219" />
    <line x1="371" y1="219" x2="339" y2="219" />
    <line x1="418.03694533443939" y1="238.60342806591214" x2="402.11398970768425" y2="237.03515382063915" />
    <line x1="370.268078454174" y1="233.89860533009323" x2="354.34512282741878" y2="232.33033108482024" />
    <line x1="430.84962056709776" y1="261.1395095554837" x2="415.1570560806461" y2="258.01806440322565" />
    <line x1="352.38679813483935" y1="245.53228379419343" x2="321.001669161936" y2="239.28939348967734" />
    <line x1="305.30910467548426" y1="236.16794833741929" x2="289.61654018903261" y2="233.04650318516124" />
    <line x1="395.0770217747264" y1="272.412380614821" x2="379.76597640301111" y2="267.76782577874962" />
    <line x1="403.77590650225738" y1="295.53668647301794" x2="388.99383398207675" y2="289.41375155517653" />
    <line x1="315.08347138117381" y1="258.79907696596933" x2="300.30139886099323" y2="252.6761420481279" />
    <line x1="285.51932634081265" y1="246.55320713028647" x2="270.73725382063208" y2="240.43027221244503" />
    <line x1="367.16277241052364" y1="298.19465178676762" x2="353.05203218094994" y2="290.65230399755166" />
    <line x1="385.29392246050907" y1="330.11404660392037" x2="318.77635347630547" y2="285.66842796235221" />
    <line x1="305.47283967946476" y1="276.77930423403859" x2="278.86581208578326" y2="259.00105677741135" />
    <line x1="361.23392341874364" y1="335.72836428611072" x2="348.86575616493985" y2="325.57807173949243" />
    <line x1="360.42135623730951" y1="360.42135623730951" x2="337.79393923934" y2="337.79393923934" />
    <line x1="315.16652224137044" y1="315.16652224137044" x2="292.53910524340097" y2="292.53910524340097" />
    <line x1="281.22539674441617" y1="281.22539674441617" x2="269.91168824543144" y2="269.91168824543144" />
    <line x1="258.59797974644664" y1="258.59797974644664" x2="247.2842712474619" y2="247.2842712474619" />
    <line x1="356.02894937934741" y1="385.97025792635122" x2="345.87865683272912" y2="373.60209067254743" />
    <line x1="294.55755169066589" y1="332.07986727314619" x2="285.66842796235227" y2="318.77635347630542" />
    <line x1="276.77930423403865" y1="305.4728396794647" x2="267.89018050572497" y2="292.169325882624" />
    <line x1="313.27934736519956" y1="395.384252869671" x2="298.19465178676762" y2="367.16277241052364" />
    <line x1="290.65230399755166" y1="353.05203218094994" x2="283.10995620833569" y2="338.94129195137629" />
    <line x1="283.29081663733507" y1="374.21176146189617" x2="264.9220118838108" y2="329.86554390135439" />
    <line x1="252.6761420481279" y1="300.30139886099323" x2="234.3073372946036" y2="255.95518130045147" />
    <line x1="272.41238061482107" y1="395.0770217747264" x2="263.12327094267829" y2="364.4549310312957" />
    <line x1="258.01806440322571" y1="415.1570560806461" x2="251.77517409870961" y2="383.77192710774273" />
    <line x1="248.65372894645154" y1="368.079362621291" x2="245.53228379419349" y2="352.38679813483935" />
    <line x1="242.41083864193544" y1="336.69423364838764" x2="236.16794833741932" y2="305.30910467548426" />
    <line x1="240.17170231118513" y1="433.95990096119453" x2="238.60342806591217" y2="418.03694533443934" />
    <line x1="237.03515382063918" y1="402.11398970768425" x2="233.89860533009323" y2="370.26807845417392" />
    <line x1="219.00000000000003" y1="419" x2="219.00000000000003" y2="403" />
    <line x1="219.00000000000003" y1="387" x2="219.00000000000003" y2="355" />
    <line x1="219" y1="323" x2="219" y2="307" />
    <line x1="219" y1="259" x2="219" y2="243" />
    <line x1="199.39657193408789" y1="418.03694533443939" x2="202.53312042463381" y2="386.19103408092906" />
    <line x1="176.86049044451627" y1="430.84962056709776" x2="179.98193559677432" y2="415.1570560806461" />
    <line x1="192.46771620580654" y1="352.38679813483935" x2="198.71060651032266" y2="321.001669161936" />
    <line x1="201.83205166258071" y1="305.30910467548426" x2="204.95349681483876" y2="289.61654018903261" />
    <line x1="160.94306454910759" y1="410.38806714644181" x2="170.23217422125038" y2="379.76597640301111" />
    <line x1="148.5862484448235" y1="388.99383398207681" x2="197.56972778755497" y2="270.73725382063208" />
    <line x1="139.80534821323238" y1="367.16277241052364" x2="154.89004379166431" y2="338.94129195137629" />
    <line x1="116.77507712439324" y1="371.9904086636684" x2="134.55332458102049" y2="345.38338106998691" />
    <line x1="161.22069576596141" y1="305.47283967946476" x2="178.99894322258865" y2="278.86581208578326" />
    <line x1="81.971050620652619" y1="385.97025792635122" x2="92.12134316727095" y2="373.60209067254743" />
    <line x1="77.578643762690518" y1="360.42135623730951" x2="100.20606076066002" y2="337.79393923934003" />
    <line x1="179.40202025355336" y1="258.59797974644664" x2="190.7157287525381" y2="247.2842712474619" />
    <line x1="52.706077539490963" y1="330.11404660392043" x2="66.009591336331681" y2="321.22492287560681" />
    <line x1="79.3131051331724" y1="312.33579914729319" x2="92.616618930013118" y2="303.44667541897957" />
    <line x1="145.83067411737602" y1="267.89018050572497" x2="159.13418791421674" y2="259.00105677741135" />
    <line x1="56.726487359902706" y1="305.73699957598359" x2="84.947967819050064" y2="290.65230399755166" />
    <line x1="34.2240934977427" y1="295.53668647301805" x2="49.006166017923277" y2="289.41375155517665" />
    <line x1="78.57031105828446" y1="277.16788171949372" x2="93.352383578465037" y2="271.04494680165226" />
    <line x1="122.91652861882621" y1="258.79907696596939" x2="167.26274617936795" y2="240.43027221244506" />
    <line x1="42.922978225273567" y1="272.41238061482107" x2="73.545068968704271" y2="263.12327094267829" />
    <line x1="22.842943919353928" y1="258.01806440322571" x2="38.535508405805615" y2="254.89661925096766" />
    <line x1="54.2280728922573" y1="251.77517409870961" x2="69.920637378708989" y2="248.65372894645157" />
    <line x1="101.30576635161236" y1="242.41083864193544" x2="116.99833083806405" y2="239.28939348967737" />
    <line x1="19.963054665560605" y1="238.60342806591208" x2="67.731921545826054" y2="233.89860533009318" />
    <line x1="19" y1="219.00000000000003" x2="67" y2="219.00000000000003" />
    <line x1="99" y1="219.00000000000003" x2="131" y2="219.00000000000003" />
    <line x1="147" y1="219" x2="195" y2="219" />
    <line x1="4.0400990388054652" y1="197.828297688815" x2="19.963054665560605" y2="199.39657193408797" />
    <line x1="67.731921545826054" y1="204.10139466990688" x2="83.654877172581223" y2="205.66966891517984" />
    <line x1="22.8429439193539" y1="179.98193559677435" x2="38.535508405805615" y2="183.1033807490324" />
    <line x1="54.228072892257273" y1="186.22482590129044" x2="69.920637378708989" y2="189.34627105354849" />
    <line x1="27.611932853558216" y1="160.94306454910759" x2="58.234023596988891" y2="170.23217422125038" />
    <line x1="34.224093497742672" y1="142.463313526982" x2="78.570311058284432" y2="160.83211828050634" />
    <line x1="93.352383578465023" y1="166.95505319834777" x2="152.48067365918735" y2="191.44679286971353" />
    <line x1="28.505006900755319" y1="117.17830484558452" x2="56.726487359902677" y2="132.26300042401644" />
    <line x1="84.947967819050035" y1="147.34769600244837" x2="99.058708048623714" y2="154.89004379166431" />
    <line x1="52.706077539490906" y1="107.88595339607963" x2="79.313105133172371" y2="125.66420085270688" />
    <line x1="92.61661893001309" y1="134.55332458102052" x2="105.92013272685382" y2="143.44244830933417" />
    <line x1="119.22364652369454" y1="152.33157203764779" x2="145.83067411737602" y2="170.10981949427503" />
    <line x1="77.578643762690461" y1="77.578643762690518" x2="88.892352261675228" y2="88.892352261675285" />
    <line x1="156.7746032555838" y1="156.77460325558383" x2="190.7157287525381" y2="190.7157287525381" />
    <line x1="122.57222080712582" y1="101.50241108886402" x2="132.72251335374415" y2="113.87057834266781" />
    <line x1="143.44244830933411" y1="105.92013272685385" x2="161.22069576596138" y2="132.5271603205353" />
    <line x1="170.109819494275" y1="145.83067411737602" x2="178.99894322258865" y2="159.13418791421674" />
    <line x1="117.17830484558445" y1="28.505006900755347" x2="132.26300042401638" y2="56.726487359902706" />
    <line x1="139.80534821323235" y1="70.837227589476385" x2="154.89004379166428" y2="99.058708048623743" />
    <line x1="142.46331352698192" y1="34.2240934977427" x2="154.70918336266482" y2="63.788238538103855" />
    <line x1="166.95505319834771" y1="93.352383578465037" x2="185.32385795187204" y2="137.69860113900677" />
    <line x1="156.29850971303608" y1="12.300887481842892" x2="165.5876193851789" y2="42.922978225273567" />
    <line x1="174.87672905732171" y1="73.545068968704271" x2="179.5212838933931" y2="88.8561143404196" />
    <line x1="179.98193559677426" y1="22.842943919353928" x2="183.10338074903231" y2="38.535508405805615" />
    <line x1="186.22482590129039" y1="54.2280728922573" x2="189.34627105354844" y2="69.920637378708989" />
    <line x1="192.46771620580648" y1="85.613201865160676" x2="195.58916135806456" y2="101.30576635161236" />
    <line x1="198.71060651032261" y1="116.99833083806405" x2="204.95349681483873" y2="148.38345981096742" />
    <line x1="197.82829768881493" y1="4.0400990388054652" x2="199.39657193408789" y2="19.963054665560605" />
  </g>
  <path fill="none" stroke="#ff0000" stroke-width="2" stroke-linecap="square" stroke-linejoin="round" d="M 229.59861765472229,3.2601814596827694 L 229.20607626010295,11.25054510932415 A 208,208 0 0,1 289.07308950558178,23.158834441931674 L 283.68285185130628,38.22353948486 A 192,192 0 0,0 247.17225109542946,29.078110086762052 L 244.82456350414367,44.904934246198536 A 176,176 0 0,0 159.70738580296927,53.288244527788351 L 165.09762345724479,68.352949570716675 A 160,160 0 0,0 150.59118505115481,74.361713100249091 L 143.75030355627027,59.897884410274 A 176,176 0 0,0 128.51791702199296,68.039764639952125 L 136.74356092908448,81.763422399956482 A 160,160 0 0,0 74.361713100249062,150.59118505115487 L 88.825541790224179,157.43206654603938 A 144,144 0 0,0 83.417654613645,170.48786111152037 L 68.352949570716646,165.09762345724488 A 160,160 0 0,0 63.794999488872946,180.12317121547778 L 48.274499437760255,176.23548833702557 A 176,176 0 0,0 43.211999707889646,210.36408931837448 L 11.25054510932415,208.79392373989714 A 208,208 0 0,0 79.315737391820164,373.11783407383149 L 90.060680669372459,361.26261606815217 A 192,192 0 0,0 120.29227311490146,383.68389312005229 L 128.51791702199301,369.96023536004793 A 176,176 0 0,0 143.75030355627041,378.10211558972605 L 164.27294804092392,334.71062951980076 A 128,128 0 0,1 96.511637026277256,181.84356131142886 L 111.82268239799259,186.48811614750025 A 112,112 0 0,0 107.53931061271395,208.02208028308928 L 123.46226623946909,209.59035452836224 A 96,96 0 0,1 127.13372776970795,191.13267098357164 L 142.4447731414233,195.77722581964304 A 80,80 0 0,0 142.4447731414233,242.222774180357 L 157.75581851313865,237.5782193442856 A 64,64 0 0,1 156.22974205419325,231.48578060903225 L 171.92230654064494,228.36433545677417 A 48,48 0 0,0 179.08945860947785,245.66737118494092 L 192.39297240631856,236.77824745662727 A 32,32 0 0,0 206.75413016431713,248.56414504036118 L 209.81559762323786,241.17310878027089" />
  <type>Circular</type>
</svg>