<?xml version="1.0" encoding="utf-8" standalone="no"?>
<!DOCTYPE svg PUBLIC "-//W3C//DTD SVG 1.1//EN" "http://www.w3.org/Graphics/SVG/1.1/DTD/svg11.dtd"[]>
<svg width="436" height="436" version="1.1" xmlns="http://www.w3.org/2000/svg">
  <title>27 cells diameter theta maze</title>
  <g fill="none" stroke="#000000" stroke-width="2" stroke-linecap="square">
    <path d="M 202.02943725152286,235.97056274847714 A 24,24 0 1,1 219,243" />
    <path d="M 203.69266270539637,182.04481869954856 A 40,40 0 0,1 234.3073372946036,182.04481869954853" />
    <path d="M 247.2842712474619,190.7157287525381 A 40,40 0 0,1 190.7157287525381,247.2842712474619" />
    <path d="M 182.04481869954853,234.3073372946036 A 40,40 0 0,1 182.04481869954853,203.6926627053964" />
    <path d="M 197.56972778755494,167.26274617936795 A 56,56 0 0,1 219,163" />
    <path d="M 240.43027221244503,167.26274617936795 A 56,56 0 0,1 270.73725382063208,197.56972778755497" />
    <path d="M 240.43027221244503,270.73725382063208 A 56,56 0 0,1 167.26274617936795,197.56972778755497" />
    <path d="M 178.99894322258865,159.13418791421674 A 72,72 0 0,1 291,219" />
    <path d="M 289.61654018903261,233.04650318516124 A 72,72 0 0,1 269.91168824543144,269.91168824543144" />
    <path d="M 259.00105677741135,278.86581208578326 A 72,72 0 0,1 204.95349681483876,289.61654018903261" />
    <path d="M 191.44679286971353,285.51932634081265 A 72,72 0 0,1 178.99894322258865,278.86581208578326" />
    <path d="M 159.13418791421674,259.00105677741135 A 72,72 0 0,1 148.3834598109674,233.04650318516127" />
    <path d="M 147,219 A 72,72 0 0,1 148.3834598109674,204.95349681483876" />
    <path d="M 159.13418791421674,178.99894322258865 A 72,72 0 0,1 168.08831175456857,168.08831175456859" />
    <path d="M 156.7746032555838,156.77460325558383 A 88,88 0 0,1 219,131" />
    <path d="M 236.16794833741929,132.69089532451574 A 88,88 0 0,1 305.30910467548426,236.16794833741929" />
    <path d="M 292.169325882624,267.89018050572497 A 88,88 0 0,1 281.22539674441617,281.22539674441617" />
    <path d="M 267.89018050572497,292.169325882624 A 88,88 0 0,1 236.16794833741932,305.30910467548426" />
    <path d="M 201.83205166258071,305.30910467548426 A 88,88 0 0,1 145.83067411737602,267.89018050572497" />
    <path d="M 137.69860113900677,252.67614204812796 A 88,88 0 0,1 131,219.00000000000003" />
    <path d="M 132.69089532451574,201.83205166258071 A 88,88 0 0,1 145.830674117376,170.10981949427503" />
    <path d="M 258.79907696596933,122.91652861882618 A 104,104 0 0,1 292.53910524340097,145.46089475659906" />
    <path d="M 321.001669161936,198.71060651032266 A 104,104 0 0,1 323,219" />
    <path d="M 292.53910524340097,292.53910524340097 A 104,104 0 0,1 276.77930423403859,305.4728396794647" />
    <path d="M 219,323 A 104,104 0 0,1 198.71060651032266,321.001669161936" />
    <path d="M 161.22069576596141,305.47283967946476 A 104,104 0 0,1 122.91652861882621,258.79907696596939" />
    <path d="M 132.52716032053527,161.22069576596141 A 104,104 0 0,1 145.46089475659903,145.46089475659909" />
    <path d="M 161.22069576596135,132.5271603205353 A 104,104 0 0,1 198.71060651032261,116.99833083806405" />
    <path d="M 173.07798811618915,108.13445609864561 A 120,120 0 0,1 242.41083864193539,101.30576635161235" />
    <path d="M 264.9220118838108,108.13445609864559 A 120,120 0 0,1 303.85281374238571,134.14718625761429" />
    <path d="M 318.77635347630542,152.33157203764773 A 120,120 0 0,1 336.69423364838764,195.58916135806459" />
    <path d="M 339,219 A 120,120 0 0,1 329.86554390135439,264.92201188381074" />
    <path d="M 285.66842796235227,318.77635347630542 A 120,120 0 0,1 242.41083864193544,336.69423364838764" />
    <path d="M 152.33157203764779,318.77635347630547 A 120,120 0 0,1 134.14718625761429,303.85281374238571" />
    <path d="M 119.22364652369457,285.66842796235227 A 120,120 0 0,1 101.30576635161235,242.41083864193544" />
    <path d="M 108.1344560986456,173.0779881161892 A 120,120 0 0,1 119.22364652369454,152.33157203764779" />
    <path d="M 219,83 A 136,136 0 0,1 245.53228379419343,85.613201865160647" />
    <path d="M 258.4787161066069,88.8561143404196 A 136,136 0 0,1 271.0449468016522,93.352383578465" />
    <path d="M 294.55755169066589,105.92013272685385 A 136,136 0 0,1 305.2774866462558,113.87057834266777" />
    <path d="M 315.16652224137044,122.83347775862953 A 136,136 0 0,1 338.94129195137629,154.89004379166431" />
    <path d="M 344.64761642153496,166.9550531983478 A 136,136 0 0,1 349.14388565958041,179.52128389339313" />
    <path d="M 352.38679813483935,192.46771620580654 A 136,136 0 0,1 352.38679813483935,245.53228379419343" />
    <path d="M 349.14388565958041,258.47871610660684 A 136,136 0 0,1 338.94129195137629,283.10995620833569" />
    <path d="M 332.07986727314619,294.55755169066589 A 136,136 0 0,1 324.12942165733227,305.27748664625574" />
    <path d="M 315.16652224137044,315.16652224137044 A 136,136 0 0,1 305.2774866462558,324.12942165733222" />
    <path d="M 294.55755169066589,332.07986727314619 A 136,136 0 0,1 258.4787161066069,349.14388565958041" />
    <path d="M 245.53228379419349,352.3867981348393 A 136,136 0 0,1 105.92013272685384,294.55755169066589" />
    <path d="M 99.058708048623728,283.10995620833569 A 136,136 0 0,1 88.8561143404196,258.4787161066069" />
    <path d="M 83.654877172581223,232.33033108482022 A 136,136 0 0,1 83.654877172581223,205.66966891517984" />
    <path d="M 85.613201865160647,192.46771620580654 A 136,136 0 0,1 88.8561143404196,179.52128389339316" />
    <path d="M 93.352383578465009,166.95505319834777 A 136,136 0 0,1 99.058708048623714,154.89004379166431" />
    <path d="M 105.92013272685382,143.44244830933414 A 136,136 0 0,1 122.83347775862951,122.83347775862956" />
    <path d="M 132.72251335374415,113.87057834266783 A 136,136 0 0,1 143.44244830933411,105.92013272685385" />
    <path d="M 154.89004379166428,99.058708048623743 A 136,136 0 0,1 179.5212838933931,88.8561143404196" />
    <path d="M 192.46771620580648,85.613201865160676 A 136,136 0 0,1 205.66966891517978,83.654877172581223" />
    <path d="M 248.65372894645151,69.92063737870896 A 152,152 0 0,1 263.12327094267829,73.545068968704243" />
    <path d="M 290.65230399755166,84.947967819050035 A 152,152 0 0,1 364.45493103129576,174.87672905732174" />
    <path d="M 368.079362621291,189.34627105354849 A 152,152 0 0,1 371,219" />
    <path d="M 370.26807845417392,233.89860533009323 A 152,152 0 0,1 359.4296889417156,277.16788171949361" />
    <path d="M 353.05203218094994,290.65230399755166 A 152,152 0 0,1 345.38338106998691,303.44667541897951" />
    <path d="M 326.48023074035524,326.48023074035518 A 152,152 0 0,1 315.42777919287414,336.497588911136" />
    <path d="M 290.65230399755166,353.05203218094994 A 152,152 0 0,1 277.16788171949366,359.42968894171554" />
    <path d="M 219.00000000000003,371 A 152,152 0 0,1 204.1013946699068,370.26807845417392" />
    <path d="M 84.947967819050064,290.65230399755171 A 152,152 0 0,1 67.731921545826083,233.89860533009318" />
    <path d="M 67,219.00000000000003 A 152,152 0 0,1 73.545068968704243,174.87672905732177" />
    <path d="M 101.502411088864,122.57222080712587 A 152,152 0 0,1 160.83211828050625,78.57031105828446" />
    <path d="M 202.53312042463384,51.808965919070914 A 168,168 0 0,1 312.33579914729319,79.3131051331724" />
    <path d="M 379.76597640301111,170.23217422125032 A 168,168 0 0,1 383.77192710774273,186.22482590129044" />
    <path d="M 386.19103408092906,202.53312042463378 A 168,168 0 0,1 386.19103408092906,235.46687957536619" />
    <path d="M 383.77192710774273,251.77517409870953 A 168,168 0 0,1 367.16277241052364,298.19465178676762" />
    <path d="M 358.68689486682763,312.33579914729313 A 168,168 0 0,1 337.79393923934,337.79393923934" />
    <path d="M 325.57807173949243,348.86575616493985 A 168,168 0 0,1 298.19465178676762,367.16277241052364" />
    <path d="M 219.00000000000003,387 A 168,168 0 0,1 112.42192826050759,348.86575616493985" />
    <path d="M 89.134243835060232,325.57807173949249 A 168,168 0 0,1 51.808965919070914,235.46687957536616" />
    <path d="M 54.228072892257273,186.22482590129044 A 168,168 0 0,1 58.234023596988891,170.23217422125038" />
    <path d="M 63.788238538103855,154.70918336266487 A 168,168 0 0,1 70.837227589476356,139.80534821323241" />
    <path d="M 100.20606076066,100.20606076066004 A 168,168 0 0,1 112.42192826050749,89.134243835060261" />
    <path d="M 125.66420085270683,79.3131051331724 A 168,168 0 0,1 139.80534821323235,70.837227589476385" />
    <path d="M 154.70918336266482,63.788238538103855 A 168,168 0 0,1 186.22482590129039,54.2280728922573" />
    <path d="M 272.41238061482107,42.922978225273567 A 184,184 0 0,1 305.73699957598353,56.726487359902677" />
    <path d="M 321.22492287560681,66.009591336331681 A 184,184 0 0,1 349.10764773832477,88.892352261675256" />
    <path d="M 361.23392341874359,102.27163571388923 A 184,184 0 0,1 381.27351264009735,132.26300042401641" />
    <path d="M 388.99383398207675,148.58624844482347 A 184,184 0 0,1 402.11398970768425,200.96484617936082" />
    <path d="M 402.11398970768425,237.03515382063915 A 184,184 0 0,1 399.46449159419444,254.8966192509676" />
    <path d="M 388.99383398207681,289.41375155517653 A 184,184 0 0,1 371.99040866366835,321.22492287560675" />
    <path d="M 321.22492287560681,371.99040866366835 A 184,184 0 0,1 272.41238061482107,395.0770217747264" />
    <path d="M 254.89661925096766,399.46449159419438 A 184,184 0 0,1 219.00000000000003,403" />
    <path d="M 200.96484617936085,402.11398970768425 A 184,184 0 0,1 183.1033807490324,399.46449159419444" />
    <path d="M 165.58761938517898,395.0770217747264 A 184,184 0 0,1 66.009591336331681,321.22492287560681" />
    <path d="M 56.726487359902706,305.73699957598365 A 184,184 0 0,1 49.006166017923277,289.41375155517665" />
    <path d="M 42.922978225273567,272.41238061482107 A 184,184 0 0,1 38.535508405805615,254.89661925096766" />
    <path d="M 35.886010292315774,237.03515382063912 A 184,184 0 0,1 35.886010292315774,200.96484617936093" />
    <path d="M 38.535508405805587,183.1033807490324 A 184,184 0 0,1 49.006166017923249,148.58624844482344" />
    <path d="M 56.726487359902677,132.26300042401647 A 184,184 0 0,1 66.009591336331624,116.77507712439326" />
    <path d="M 76.766076581256414,102.27163571388921 A 184,184 0 0,1 148.58624844482335,49.006166017923277" />
    <path d="M 107.88595339607956,52.706077539490963 A 200,200 0 0,1 219,19" />
    <path d="M 258.01806440322565,22.8429439193539 A 200,200 0 0,1 277.05693545089247,27.611932853558216" />
    <path d="M 313.27934736519956,42.615747130329 A 200,200 0 0,1 345.87865683272912,64.3979093274526" />
    <path d="M 385.29392246050907,107.88595339607954 A 200,200 0 0,1 395.384252869671,124.72065263480044" />
    <path d="M 410.38806714644181,160.94306454910753 A 200,200 0 0,1 418.03694533443934,199.39657193408783" />
    <path d="M 419,219 A 200,200 0 0,1 418.03694533443934,238.60342806591214" />
    <path d="M 410.38806714644181,277.05693545089241 A 200,200 0 0,1 403.77590650225738,295.53668647301794" />
    <path d="M 395.384252869671,313.27934736519956 A 200,200 0 0,1 373.60209067254743,345.87865683272906" />
    <path d="M 360.42135623730951,360.42135623730951 A 200,200 0 0,1 345.87865683272912,373.60209067254743" />
    <path d="M 313.27934736519956,395.38425286967095 A 200,200 0 0,1 238.60342806591217,418.03694533443934" />
    <path d="M 179.98193559677432,415.1570560806461 A 200,200 0 0,1 142.46331352698206,403.77590650225738" />
    <path d="M 107.88595339607961,385.29392246050907 A 200,200 0 0,1 34.2240934977427,295.53668647301805" />
    <path d="M 19.963054665560634,238.60342806591208 A 200,200 0 0,1 19.963054665560605,199.39657193408797" />
    <path d="M 27.611932853558216,160.94306454910759 A 200,200 0 0,1 64.397909327452624,92.121343167270879" />
    <path d="M 240.1717023111851,4.0400990388054652 A 216,216 0 1,1 219,3" />
  </g>
  <g fill="none" stroke="#000000" stroke-width="2" stroke-linecap="butt">
    <line x1="219" y1="19" x2="219" y2="35" />
    <line x1="219" y1="51" x2="219" y2="83" />
    <line x1="219" y1="115" x2="219" y2="131" />
    <line x1="219" y1="147" x2="219" y2="163" />
    <line x1="219" y1="179" x2="219" y2="195" />
    <line x1="240.1717023111851" y1="4.0400990388054652" x2="237.03515382063915" y2="35.886010292315774" />
    <line x1="235.46687957536619" y1="51.808965919070914" x2="233.8986053300932" y2="67.731921545826054" />
    <line x1="258.01806440322565" y1="22.8429439193539" x2="251.77517409870956" y2="54.228072892257273" />
    <line x1="248.65372894645151" y1="69.920637378708989" x2="245.53228379419343" y2="85.613201865160647" />
    <line x1="242.41083864193539" y1="101.30576635161235" x2="236.16794833741929" y2="132.69089532451574" />
    <line x1="301.6596213908594" y1="19.442020977562066" x2="289.41375155517653" y2="49.006166017923249" />
    <line x1="283.29081663733507" y1="63.788238538103826" x2="258.79907696596933" y2="122.91652861882618" />
    <line x1="240.43027221244503" y1="167.26274617936795" x2="234.3073372946036" y2="182.04481869954853" />
    <line x1="320.82169515441547" y1="28.505006900755319" x2="313.27934736519956" y2="42.615747130329" />
    <line x1="290.65230399755166" y1="84.947967819050035" x2="283.10995620833569" y2="99.058708048623714" />
    <line x1="321.22492287560681" y1="66.009591336331681" x2="312.33579914729319" y2="79.3131051331724" />
    <line x1="345.87865683272912" y1="64.3979093274526" x2="335.72836428611078" y2="76.766076581256385" />
    <line x1="325.57807173949243" y1="89.134243835060175" x2="305.2774866462558" y2="113.87057834266777" />
    <line x1="371.73506473629425" y1="66.264935263705723" x2="360.42135623730951" y2="77.57864376269049" />
    <line x1="349.10764773832477" y1="88.892352261675256" x2="326.48023074035518" y2="111.51976925964478" />
    <line x1="315.16652224137044" y1="122.83347775862953" x2="303.85281374238571" y2="134.14718625761429" />
    <line x1="373.60209067254743" y1="92.121343167270908" x2="348.86575616493985" y2="112.42192826050756" />
    <line x1="398.59743625734978" y1="98.996829667765908" x2="385.29392246050907" y2="107.88595339607954" />
    <line x1="358.68689486682763" y1="125.66420085270681" x2="345.38338106998685" y2="134.55332458102043" />
    <line x1="318.77635347630542" y1="152.33157203764773" x2="305.4728396794647" y2="161.22069576596135" />
    <line x1="395.384252869671" y1="124.72065263480044" x2="367.16277241052364" y2="139.80534821323238" />
    <line x1="403.77590650225738" y1="142.46331352698203" x2="374.21176146189617" y2="154.7091833626649" />
    <line x1="359.4296889417156" y1="160.83211828050634" x2="329.86554390135439" y2="173.0779881161892" />
    <line x1="315.08347138117381" y1="179.20092303403067" x2="300.30139886099323" y2="185.3238579518721" />
    <line x1="425.69911251815711" y1="156.29850971303614" x2="410.38806714644181" y2="160.94306454910753" />
    <line x1="383.77192710774273" y1="186.22482590129044" x2="352.38679813483935" y2="192.46771620580654" />
    <line x1="336.69423364838764" y1="195.58916135806459" x2="321.001669161936" y2="198.71060651032266" />
    <line x1="402.11398970768425" y1="200.96484617936082" x2="386.19103408092906" y2="202.53312042463378" />
    <line x1="419" y1="219" x2="403" y2="219" />
    <line x1="307" y1="219" x2="275" y2="219" />
    <line x1="433.95990096119453" y1="240.1717023111851" x2="418.03694533443939" y2="238.60342806591214" />
    <line x1="402.11398970768425" y1="237.03515382063915" x2="370.268078454174" y2="233.89860533009323" />
    <line x1="415.1570560806461" y1="258.01806440322565" x2="383.77192710774273" y2="251.77517409870953" />
    <line x1="368.079362621291" y1="248.65372894645148" x2="352.38679813483935" y2="245.53228379419343" />
    <line x1="321.001669161936" y1="239.28939348967734" x2="305.30910467548426" y2="236.16794833741929" />
    <line x1="410.38806714644181" y1="277.05693545089241" x2="395.0770217747264" y2="272.412380614821" />
    <line x1="403.77590650225738" y1="295.53668647301794" x2="374.21176146189617" y2="283.29081663733507" />
    <line x1="344.64761642153496" y1="271.0449468016522" x2="285.51932634081265" y2="246.55320713028647" />
    <line x1="270.73725382063208" y1="240.43027221244503" x2="255.95518130045147" y2="234.3073372946036" />
    <line x1="409.49499309924465" y1="320.82169515441552" x2="395.384252869671" y2="313.27934736519956" />
    <line x1="367.16277241052364" y1="298.19465178676762" x2="338.94129195137629" y2="283.10995620833569" />
    <line x1="332.07986727314619" y1="294.55755169066583" x2="292.169325882624" y2="267.89018050572497" />
    <line x1="373.60209067254743" y1="345.87865683272906" x2="361.23392341874364" y2="335.72836428611072" />
    <line x1="348.86575616493985" y1="325.57807173949243" x2="324.12942165733227" y2="305.27748664625574" />
    <line x1="349.10764773832477" y1="349.10764773832477" x2="326.48023074035524" y2="326.48023074035518" />
    <line x1="315.16652224137044" y1="315.16652224137044" x2="292.53910524340097" y2="292.53910524340097" />
    <line x1="281.22539674441617" y1="281.22539674441617" x2="269.91168824543144" y2="269.91168824543144" />
    <line x1="258.59797974644664" y1="258.59797974644664" x2="247.2842712474619" y2="247.2842712474619" />
    <line x1="345.87865683272912" y1="373.60209067254743" x2="325.57807173949243" y2="348.86575616493985" />
    <line x1="315.42777919287414" y1="336.497588911136" x2="305.2774866462558" y2="324.12942165733222" />
    <line x1="339.00317033223405" y1="398.59743625734978" x2="330.11404660392043" y2="385.29392246050907" />
    <line x1="312.33579914729319" y1="358.68689486682763" x2="294.55755169066589" y2="332.07986727314619" />
    <line x1="285.66842796235227" y1="318.77635347630542" x2="267.89018050572497" y2="292.169325882624" />
    <line x1="313.27934736519956" y1="395.384252869671" x2="305.73699957598359" y2="381.27351264009729" />
    <line x1="298.19465178676762" y1="367.16277241052364" x2="290.65230399755166" y2="353.05203218094994" />
    <line x1="283.29081663733507" y1="374.21176146189617" x2="277.16788171949366" y2="359.4296889417156" />
    <line x1="264.9220118838108" y1="329.86554390135439" x2="258.79907696596933" y2="315.08347138117381" />
    <line x1="272.41238061482107" y1="395.0770217747264" x2="258.4787161066069" y2="349.14388565958041" />
    <line x1="258.01806440322571" y1="415.1570560806461" x2="251.77517409870961" y2="383.77192710774273" />
    <line x1="248.65372894645154" y1="368.079362621291" x2="242.41083864193544" y2="336.69423364838764" />
    <line x1="239.28939348967737" y1="321.001669161936" x2="236.16794833741932" y2="305.30910467548426" />
    <line x1="237.03515382063918" y1="402.11398970768425" x2="232.33033108482027" y2="354.34512282741878" />
    <line x1="219.00000000000003" y1="435" x2="219.00000000000003" y2="419" />
    <line x1="219.00000000000003" y1="403" x2="219.00000000000003" y2="371" />
    <line x1="219.00000000000003" y1="339" x2="219" y2="291" />
    <line x1="197.82829768881493" y1="433.95990096119453" x2="199.39657193408789" y2="418.03694533443939" />
    <line x1="179.98193559677432" y1="415.1570560806461" x2="189.34627105354849" y2="368.079362621291" />
    <line x1="192.46771620580654" y1="352.38679813483935" x2="195.58916135806459" y2="336.69423364838764" />
    <line x1="201.83205166258071" y1="305.30910467548426" x2="204.95349681483876" y2="289.61654018903261" />
    <line x1="174.87672905732177" y1="364.45493103129576" x2="179.52128389339316" y2="349.14388565958041" />
    <line x1="142.46331352698206" y1="403.77590650225738" x2="148.5862484448235" y2="388.99383398207681" />
    <line x1="154.70918336266493" y1="374.21176146189623" x2="160.83211828050636" y2="359.4296889417156" />
    <line x1="173.07798811618923" y1="329.86554390135444" x2="185.3238579518721" y2="300.30139886099323" />
    <line x1="191.44679286971353" y1="285.51932634081265" x2="197.56972778755497" y2="270.73725382063208" />
    <line x1="117.17830484558451" y1="409.49499309924465" x2="124.72065263480047" y2="395.384252869671" />
    <line x1="147.34769600244835" y1="353.05203218094994" x2="154.89004379166431" y2="338.94129195137629" />
    <line x1="107.88595339607961" y1="385.29392246050907" x2="116.77507712439324" y2="371.9904086636684" />
    <line x1="125.66420085270687" y1="358.68689486682763" x2="134.55332458102049" y2="345.38338106998691" />
    <line x1="143.44244830933414" y1="332.07986727314619" x2="152.33157203764776" y2="318.77635347630547" />
    <line x1="170.10981949427503" y1="292.169325882624" x2="178.99894322258865" y2="278.86581208578326" />
    <line x1="112.4219282605076" y1="348.86575616493985" x2="122.57222080712592" y2="336.49758891113606" />
    <line x1="100.20606076066002" y1="337.79393923934003" x2="122.83347775862954" y2="315.1665222413705" />
    <line x1="156.77460325558383" y1="281.22539674441617" x2="168.08831175456857" y2="269.91168824543144" />
    <line x1="190.7157287525381" y1="247.2842712474619" x2="202.02943725152286" y2="235.97056274847714" />
    <line x1="101.50241108886402" y1="315.4277791928742" x2="113.87057834266781" y2="305.27748664625585" />
    <line x1="39.402563742650216" y1="339.00317033223405" x2="52.706077539490963" y2="330.11404660392043" />
    <line x1="79.3131051331724" y1="312.33579914729319" x2="105.92013272685385" y2="294.55755169066589" />
    <line x1="145.83067411737602" y1="267.89018050572497" x2="159.13418791421674" y2="259.00105677741135" />
    <line x1="84.947967819050064" y1="290.65230399755166" x2="99.058708048623728" y2="283.10995620833569" />
    <line x1="34.2240934977427" y1="295.53668647301805" x2="49.006166017923277" y2="289.41375155517665" />
    <line x1="122.91652861882621" y1="258.79907696596939" x2="137.69860113900677" y2="252.67614204812796" />
    <line x1="167.26274617936795" y1="240.43027221244506" x2="182.04481869954856" y2="234.3073372946036" />
    <line x1="12.300887481842892" y1="281.70149028696392" x2="42.922978225273567" y2="272.41238061482107" />
    <line x1="58.234023596988919" y1="267.76782577874968" x2="73.545068968704271" y2="263.12327094267829" />
    <line x1="7.1503794329022412" y1="261.13950955548381" x2="22.842943919353928" y2="258.01806440322571" />
    <line x1="69.920637378708989" y1="248.65372894645157" x2="116.99833083806405" y2="239.28939348967737" />
    <line x1="132.69089532451574" y1="236.16794833741932" x2="148.38345981096742" y2="233.04650318516127" />
    <line x1="19.963054665560605" y1="238.60342806591208" x2="35.886010292315774" y2="237.03515382063912" />
    <line x1="67.731921545826054" y1="233.89860533009318" x2="83.654877172581223" y2="232.33033108482022" />
    <line x1="35" y1="219.00000000000003" x2="67" y2="219.00000000000003" />
    <line x1="83" y1="219.00000000000003" x2="131" y2="219.00000000000003" />
    <line x1="147" y1="219" x2="163" y2="219" />
    <line x1="179" y1="219" x2="195" y2="219" />
    <line x1="51.808965919070914" y1="202.53312042463389" x2="67.731921545826054" y2="204.10139466990688" />
    <line x1="7.1503794329022412" y1="176.8604904445163" x2="38.535508405805615" y2="183.1033807490324" />
    <line x1="69.920637378708989" y1="189.34627105354849" x2="132.69089532451574" y2="201.83205166258071" />
    <line x1="58.234023596988891" y1="170.23217422125038" x2="73.545068968704243" y2="174.87672905732177" />
    <line x1="49.006166017923249" y1="148.58624844482344" x2="108.1344560986456" y2="173.0779881161892" />
    <line x1="122.91652861882619" y1="179.20092303403064" x2="137.69860113900677" y2="185.32385795187207" />
    <line x1="152.48067365918735" y1="191.44679286971353" x2="167.26274617936795" y2="197.56972778755497" />
    <line x1="70.837227589476356" y1="139.80534821323241" x2="84.947967819050035" y2="147.34769600244837" />
    <line x1="52.706077539490906" y1="107.88595339607963" x2="105.92013272685382" y2="143.44244830933417" />
    <line x1="119.22364652369454" y1="152.33157203764779" x2="132.52716032053527" y2="161.22069576596141" />
    <line x1="145.83067411737602" y1="170.10981949427503" x2="159.13418791421674" y2="178.99894322258865" />
    <line x1="52.029742073648833" y1="81.971050620652562" x2="64.397909327452624" y2="92.121343167270879" />
    <line x1="76.766076581256414" y1="102.27163571388921" x2="89.1342438350602" y2="112.42192826050754" />
    <line x1="77.578643762690461" y1="77.578643762690518" x2="88.892352261675228" y2="88.892352261675285" />
    <line x1="100.20606076066" y1="100.20606076066005" x2="134.14718625761429" y2="134.14718625761432" />
    <line x1="145.46089475659903" y1="145.46089475659909" x2="190.7157287525381" y2="190.7157287525381" />
    <line x1="92.121343167270808" y1="64.39790932745268" x2="102.27163571388915" y2="76.766076581256442" />
    <line x1="125.66420085270684" y1="79.3131051331724" x2="161.22069576596138" y2="132.5271603205353" />
    <line x1="148.58624844482335" y1="49.006166017923277" x2="160.83211828050625" y2="78.57031105828446" />
    <line x1="166.95505319834771" y1="93.352383578465037" x2="173.07798811618915" y2="108.13445609864561" />
    <line x1="197.56972778755494" y1="167.26274617936795" x2="203.69266270539637" y2="182.04481869954856" />
    <line x1="160.9430645491075" y1="27.611932853558244" x2="165.5876193851789" y2="42.922978225273567" />
    <line x1="174.87672905732171" y1="73.545068968704271" x2="179.5212838933931" y2="88.8561143404196" />
    <line x1="183.10338074903231" y1="38.535508405805615" x2="189.34627105354844" y2="69.920637378708989" />
    <line x1="192.46771620580648" y1="85.613201865160676" x2="195.58916135806456" y2="101.30576635161236" />
    <line x1="199.39657193408789" y1="19.963054665560605" x2="202.53312042463384" y2="51.808965919070914" />
    <line x1="204.1013946699068" y1="67.731921545826054" x2="205.66966891517978" y2="83.654877172581223" />
  </g>
  <path fill="none" stroke="#ff0000" stroke-width="2" stroke-linecap="square" stroke-linejoin="round" d="M 229.59861765472229,3.2601814596827694 L 229.20607626010295,11.25054510932415 A 208,208 0 0,0 95.094544665573892,51.932833452025847 L 104.62573353745283,64.784153955716164 A 192,192 0 0,1 154.31714814869378,38.22353948486 L 159.70738580296927,53.288244527788351 A 176,176 0 0,1 176.23548833702552,48.274499437760284 L 172.34780545857328,32.753999386647564 A 192,192 0 0,1 190.82774890457043,29.078110086762081 L 195.523124087142,60.731758405635048 A 160,160 0 0,1 211.14917210761311,59.192727007172408 L 212.71933768609048,91.154181605737932 A 128,128 0 0,1 256.1564386885712,96.51163702627727 L 246.86732901642839,127.13372776970795 A 96,96 0 0,1 303.66444137744207,173.7459132647042 L 317.77518160701572,166.20356547548823 A 112,112 0 0,1 326.17731760200741,186.48811614750022 L 310.86627223029205,191.13267098357161 A 96,96 0 0,1 314.5377337605309,228.40964547163782 L 330.46068938728604,229.9779197169108 A 112,112 0 0,1 326.17731760200741,251.51188385249975 L 295.5552268585767,242.22277418035696 A 80,80 0 0,0 298.61477813377576,226.84137122636486 L 282.69182250702062,225.27309698109187 A 64,64 0 0,1 281.77025794580675,231.48578060903219 L 266.07769345935503,228.36433545677414 A 48,48 0 0,0 245.66737118494092,179.08945860947785 L 236.77824745662727,192.39297240631856 A 32,32 0 0,1 206.75413016431713,248.56414504036118 L 209.81559762323786,241.17310878027089" />
  <type>Circular</type>
</svg>