<?xml version="1.0" encoding="utf-8" standalone="no"?>
<!DOCTYPE svg PUBLIC "-//W3C//DTD SVG 1.1//EN" "http://www.w3.org/Graphics/SVG/1.1/DTD/svg11.dtd"[]>
<svg width="436" height="436" version="1.1" xmlns="http://www.w3.org/2000/svg">
  <title>27 cells diameter theta maze</title>
  <g fill="none" stroke="#000000" stroke-width="2" stroke-linecap="square">
    <path d="M 202.02943725152286,235.97056274847714 A 24,24 0 1,1 219,243" />
    <path d="M 182.04481869954853,234.3073372946036 A 40,40 0 0,1 234.3073372946036,182.04481869954853" />
    <path d="M 255.95518130045147,203.6926627053964 A 40,40 0 0,1 219,259" />
    <path d="M 203.6926627053964,255.95518130045147 A 40,40 0 0,1 190.7157287525381,247.2842712474619" />
    <path d="M 197.56972778755494,167.26274617936795 A 56,56 0 0,1 270.73725382063208,197.56972778755497" />
    <path d="M 275,219 A 56,56 0 0,1 197.569727787555,270.73725382063208" />
    <path d="M 179.40202025355336,258.59797974644664 A 56,56 0 0,1 163,219" />
    <path d="M 167.26274617936795,197.56972778755497 A 56,56 0 0,1 179.40202025355333,179.40202025355336" />
    <path d="M 204.95349681483873,148.3834598109674 A 72,72 0 0,1 259.00105677741135,159.13418791421674" />
    <path d="M 278.86581208578326,178.99894322258865 A 72,72 0 0,1 291,219" />
    <path d="M 289.61654018903261,233.04650318516124 A 72,72 0 0,1 269.91168824543144,269.91168824543144" />
    <path d="M 259.00105677741135,278.86581208578326 A 72,72 0 0,1 219,291" />
    <path d="M 204.95349681483876,289.61654018903261 A 72,72 0 0,1 191.44679286971353,285.51932634081265" />
    <path d="M 178.99894322258865,278.86581208578326 A 72,72 0 0,1 152.48067365918737,246.5532071302865" />
    <path d="M 148.3834598109674,233.04650318516127 A 72,72 0 0,1 178.99894322258865,159.13418791421674" />
    <path d="M 201.83205166258068,132.69089532451574 A 88,88 0 0,1 252.6761420481279,137.69860113900677" />
    <path d="M 292.169325882624,170.109819494275 A 88,88 0 0,1 300.30139886099323,185.3238579518721" />
    <path d="M 305.30910467548426,236.16794833741929 A 88,88 0 0,1 252.6761420481279,300.30139886099323" />
    <path d="M 219,307 A 88,88 0 0,1 201.83205166258071,305.30910467548426" />
    <path d="M 185.32385795187213,300.30139886099323 A 88,88 0 0,1 156.77460325558383,281.22539674441617" />
    <path d="M 145.83067411737602,267.89018050572497 A 88,88 0 0,1 131,219.00000000000003" />
    <path d="M 137.69860113900677,185.32385795187207 A 88,88 0 0,1 156.7746032555838,156.77460325558383" />
    <path d="M 170.109819494275,145.83067411737602 A 88,88 0 0,1 185.32385795187204,137.69860113900677" />
    <path d="M 239.28939348967734,116.99833083806404 A 104,104 0 0,1 258.79907696596933,122.91652861882618" />
    <path d="M 315.08347138117381,179.20092303403067 A 104,104 0 0,1 321.001669161936,239.28939348967734" />
    <path d="M 305.47283967946476,276.77930423403859 A 104,104 0 0,1 219,323" />
    <path d="M 198.71060651032266,321.001669161936 A 104,104 0 0,1 179.20092303403067,315.08347138117381" />
    <path d="M 145.46089475659909,292.53910524340097 A 104,104 0 0,1 132.5271603205353,276.77930423403865" />
    <path d="M 122.91652861882621,258.79907696596939 A 104,104 0 0,1 116.99833083806404,239.28939348967737" />
    <path d="M 115,219.00000000000003 A 104,104 0 0,1 122.91652861882619,179.20092303403064" />
    <path d="M 145.46089475659903,145.46089475659909 A 104,104 0 0,1 161.22069576596135,132.5271603205353" />
    <path d="M 179.20092303403061,122.91652861882621 A 104,104 0 0,1 198.71060651032261,116.99833083806405" />
    <path d="M 195.58916135806456,101.30576635161236 A 120,120 0 0,1 242.41083864193539,101.30576635161235" />
    <path d="M 264.9220118838108,108.13445609864559 A 120,120 0 0,1 285.66842796235227,119.22364652369457" />
    <path d="M 303.85281374238571,134.14718625761429 A 120,120 0 0,1 318.77635347630542,152.33157203764773" />
    <path d="M 329.86554390135439,173.07798811618923 A 120,120 0 0,1 336.69423364838764,242.41083864193539" />
    <path d="M 329.86554390135439,264.92201188381074 A 120,120 0 0,1 318.77635347630542,285.66842796235221" />
    <path d="M 303.85281374238571,303.85281374238571 A 120,120 0 0,1 242.41083864193544,336.69423364838764" />
    <path d="M 219.00000000000003,339 A 120,120 0 0,1 152.33157203764779,318.77635347630547" />
    <path d="M 134.14718625761429,303.85281374238571 A 120,120 0 0,1 99,219.00000000000003" />
    <path d="M 101.30576635161235,195.58916135806462 A 120,120 0 0,1 119.22364652369454,152.33157203764779" />
    <path d="M 134.14718625761429,134.14718625761432 A 120,120 0 0,1 173.07798811618915,108.13445609864561" />
    <path d="M 219,83 A 136,136 0 0,1 245.53228379419343,85.613201865160647" />
    <path d="M 294.55755169066589,105.92013272685385 A 136,136 0 0,1 352.38679813483935,192.46771620580654" />
    <path d="M 354.34512282741878,205.66966891517973 A 136,136 0 0,1 355,219" />
    <path d="M 354.34512282741878,232.33033108482024 A 136,136 0 0,1 352.38679813483935,245.53228379419343" />
    <path d="M 349.14388565958041,258.47871610660684 A 136,136 0 0,1 344.647616421535,271.0449468016522" />
    <path d="M 338.94129195137629,283.10995620833569 A 136,136 0 0,1 332.07986727314619,294.55755169066589" />
    <path d="M 324.12942165733227,305.27748664625574 A 136,136 0 0,1 305.2774866462558,324.12942165733222" />
    <path d="M 294.55755169066589,332.07986727314619 A 136,136 0 0,1 258.4787161066069,349.14388565958041" />
    <path d="M 245.53228379419349,352.3867981348393 A 136,136 0 0,1 232.33033108482027,354.34512282741878" />
    <path d="M 205.66966891517976,354.34512282741878 A 136,136 0 0,1 179.52128389339316,349.14388565958041" />
    <path d="M 166.9550531983478,344.647616421535 A 136,136 0 0,1 154.89004379166431,338.94129195137629" />
    <path d="M 143.44244830933414,332.07986727314619 A 136,136 0 0,1 122.83347775862956,315.16652224137044" />
    <path d="M 113.87057834266781,305.27748664625585 A 136,136 0 0,1 85.613201865160676,245.53228379419349" />
    <path d="M 83.654877172581223,232.33033108482022 A 136,136 0 0,1 83.654877172581223,205.66966891517984" />
    <path d="M 88.8561143404196,179.52128389339316 A 136,136 0 0,1 99.058708048623714,154.89004379166431" />
    <path d="M 105.92013272685382,143.44244830933414 A 136,136 0 0,1 113.87057834266778,132.72251335374421" />
    <path d="M 122.83347775862951,122.83347775862956 A 136,136 0 0,1 132.72251335374415,113.87057834266783" />
    <path d="M 143.44244830933411,105.92013272685385 A 136,136 0 0,1 154.89004379166428,99.058708048623743" />
    <path d="M 166.95505319834771,93.352383578465037 A 136,136 0 0,1 205.66966891517978,83.654877172581223" />
    <path d="M 204.1013946699068,67.731921545826083 A 152,152 0 0,1 233.8986053300932,67.731921545826083" />
    <path d="M 277.16788171949366,78.5703110582844 A 152,152 0 0,1 326.48023074035524,111.51976925964478" />
    <path d="M 359.4296889417156,160.83211828050634 A 152,152 0 0,1 364.45493103129576,174.87672905732174" />
    <path d="M 368.079362621291,189.34627105354849 A 152,152 0 0,1 370.26807845417392,204.10139466990677" />
    <path d="M 371,219 A 152,152 0 0,1 359.4296889417156,277.16788171949361" />
    <path d="M 353.05203218094994,290.65230399755166 A 152,152 0 0,1 336.49758891113606,315.42777919287408" />
    <path d="M 315.42777919287414,336.497588911136 A 152,152 0 0,1 303.44667541897951,345.38338106998685" />
    <path d="M 277.16788171949366,359.42968894171554 A 152,152 0 0,1 189.34627105354849,368.079362621291" />
    <path d="M 174.87672905732177,364.45493103129576 A 152,152 0 0,1 160.83211828050636,359.4296889417156" />
    <path d="M 122.57222080712592,336.49758891113606 A 152,152 0 0,1 101.50241108886402,315.42777919287414" />
    <path d="M 84.947967819050064,290.65230399755171 A 152,152 0 0,1 73.545068968704243,263.12327094267829" />
    <path d="M 78.570311058284432,160.83211828050634 A 152,152 0 0,1 92.61661893001309,134.55332458102052" />
    <path d="M 101.502411088864,122.57222080712587 A 152,152 0 0,1 111.51976925964475,111.5197692596448" />
    <path d="M 147.34769600244832,84.947967819050064 A 152,152 0 0,1 174.87672905732171,73.545068968704271" />
    <path d="M 170.23217422125032,58.234023596988919 A 168,168 0 0,1 219,51" />
    <path d="M 235.46687957536619,51.808965919070914 A 168,168 0 0,1 251.77517409870956,54.228072892257273" />
    <path d="M 267.76782577874968,58.234023596988919 A 168,168 0 0,1 312.33579914729319,79.3131051331724" />
    <path d="M 325.57807173949243,89.134243835060175 A 168,168 0 0,1 337.79393923934,100.20606076066001" />
    <path d="M 348.8657561649398,112.42192826050756 A 168,168 0 0,1 358.68689486682763,125.66420085270683" />
    <path d="M 367.16277241052364,139.80534821323238 A 168,168 0 0,1 383.77192710774273,186.22482590129044" />
    <path d="M 386.19103408092906,202.53312042463378 A 168,168 0 0,1 374.21176146189617,283.29081663733507" />
    <path d="M 367.16277241052364,298.19465178676762 A 168,168 0 0,1 358.68689486682763,312.33579914729313" />
    <path d="M 348.86575616493985,325.57807173949243 A 168,168 0 0,1 337.79393923934,337.79393923934" />
    <path d="M 312.33579914729319,358.68689486682763 A 168,168 0 0,1 283.29081663733507,374.21176146189617" />
    <path d="M 267.76782577874968,379.76597640301111 A 168,168 0 0,1 202.53312042463381,386.19103408092906" />
    <path d="M 186.22482590129044,383.77192710774273 A 168,168 0 0,1 154.70918336266493,374.21176146189617" />
    <path d="M 125.66420085270688,358.68689486682763 A 168,168 0 0,1 112.42192826050759,348.86575616493985" />
    <path d="M 100.20606076066004,337.79393923934003 A 168,168 0 0,1 70.837227589476385,298.19465178676762" />
    <path d="M 51.808965919070914,235.46687957536616 A 168,168 0 0,1 51,219.00000000000003" />
    <path d="M 51.808965919070914,202.53312042463392 A 168,168 0 0,1 70.837227589476356,139.80534821323241" />
    <path d="M 100.20606076066,100.20606076066004 A 168,168 0 0,1 112.42192826050749,89.134243835060261" />
    <path d="M 125.66420085270683,79.3131051331724 A 168,168 0 0,1 154.70918336266482,63.788238538103855" />
    <path d="M 183.10338074903231,38.535508405805615 A 184,184 0 0,1 237.03515382063915,35.886010292315774" />
    <path d="M 289.41375155517653,49.006166017923249 A 184,184 0 0,1 305.73699957598353,56.726487359902677" />
    <path d="M 321.22492287560681,66.009591336331681 A 184,184 0 0,1 335.72836428611078,76.766076581256385" />
    <path d="M 349.10764773832477,88.892352261675256 A 184,184 0 0,1 361.23392341874359,102.27163571388923" />
    <path d="M 371.99040866366829,116.77507712439318 A 184,184 0 0,1 388.99383398207675,148.58624844482347" />
    <path d="M 395.0770217747264,165.58761938517893 A 184,184 0 0,1 395.0770217747264,272.412380614821" />
    <path d="M 381.27351264009735,305.73699957598359 A 184,184 0 0,1 361.23392341874364,335.72836428611072" />
    <path d="M 349.10764773832477,349.10764773832477 A 184,184 0 0,1 335.72836428611078,361.23392341874364" />
    <path d="M 321.22492287560681,371.99040866366835 A 184,184 0 0,1 289.41375155517653,388.99383398207675" />
    <path d="M 272.41238061482107,395.0770217747264 A 184,184 0 0,1 254.89661925096766,399.46449159419438" />
    <path d="M 237.03515382063918,402.11398970768425 A 184,184 0 0,1 219.00000000000003,403" />
    <path d="M 183.1033807490324,399.46449159419444 A 184,184 0 0,1 116.77507712439325,371.99040866366835" />
    <path d="M 76.76607658125647,335.72836428611083 A 184,184 0 0,1 66.009591336331681,321.22492287560681" />
    <path d="M 42.922978225273567,272.41238061482107 A 184,184 0 0,1 38.535508405805615,254.89661925096766" />
    <path d="M 35,219.00000000000003 A 184,184 0 0,1 35.886010292315774,200.96484617936093" />
    <path d="M 38.535508405805587,183.1033807490324 A 184,184 0 0,1 42.922978225273539,165.58761938517898" />
    <path d="M 49.006166017923249,148.58624844482344 A 184,184 0 0,1 56.726487359902677,132.26300042401647" />
    <path d="M 66.009591336331624,116.77507712439326 A 184,184 0 0,1 76.766076581256414,102.27163571388921" />
    <path d="M 88.892352261675228,88.892352261675285 A 184,184 0 0,1 102.27163571388915,76.76607658125647" />
    <path d="M 219,19 A 200,200 0 0,1 238.60342806591211,19.963054665560634" />
    <path d="M 277.05693545089247,27.611932853558216 A 200,200 0 0,1 330.11404660392043,52.706077539490963" />
    <path d="M 360.42135623730951,77.57864376269049 A 200,200 0 0,1 385.29392246050907,107.88595339607954" />
    <path d="M 415.1570560806461,258.01806440322565 A 200,200 0 0,1 403.77590650225738,295.53668647301794" />
    <path d="M 373.60209067254743,345.87865683272906 A 200,200 0 0,1 360.42135623730951,360.42135623730951" />
    <path d="M 295.536686473018,403.77590650225738 A 200,200 0 0,1 238.60342806591217,418.03694533443934" />
    <path d="M 199.39657193408789,418.03694533443934 A 200,200 0 0,1 124.72065263480047,395.384252869671" />
    <path d="M 92.121343167270936,373.60209067254743 A 200,200 0 0,1 77.578643762690518,360.42135623730951" />
    <path d="M 52.706077539490934,330.11404660392043 A 200,200 0 0,1 19,219.00000000000003" />
    <path d="M 19.963054665560605,199.39657193408797 A 200,200 0 0,1 27.611932853558216,160.94306454910759" />
    <path d="M 42.615747130329,124.72065263480049 A 200,200 0 0,1 64.397909327452624,92.121343167270879" />
    <path d="M 77.578643762690461,77.578643762690518 A 200,200 0 0,1 107.88595339607956,52.706077539490963" />
    <path d="M 142.46331352698192,34.2240934977427 A 200,200 0 0,1 199.39657193408789,19.963054665560634" />
    <path d="M 240.1717023111851,4.0400990388054652 A 216,216 0 1,1 219,3" />
  </g>
  <g fill="none" stroke="#000000" stroke-width="2" stroke-linecap="butt">
    <line x1="219" y1="3" x2="219" y2="19" />
    <line x1="219" y1="51" x2="219" y2="67" />
    <line x1="219" y1="99" x2="219" y2="115" />
    <line x1="237.03515382063915" y1="35.886010292315774" x2="235.46687957536619" y2="51.808965919070914" />
    <line x1="233.8986053300932" y1="67.731921545826054" x2="232.33033108482024" y2="83.654877172581223" />
    <line x1="261.1395095554837" y1="7.1503794329022412" x2="248.65372894645151" y2="69.920637378708989" />
    <line x1="277.05693545089247" y1="27.611932853558244" x2="258.4787161066069" y2="88.8561143404196" />
    <line x1="277.16788171949366" y1="78.5703110582844" x2="258.79907696596933" y2="122.91652861882618" />
    <line x1="240.43027221244503" y1="167.26274617936795" x2="234.3073372946036" y2="182.04481869954853" />
    <line x1="313.27934736519956" y1="42.615747130329" x2="305.73699957598353" y2="56.726487359902677" />
    <line x1="290.65230399755166" y1="84.947967819050035" x2="283.10995620833569" y2="99.058708048623714" />
    <line x1="312.33579914729319" y1="79.3131051331724" x2="303.44667541897957" y2="92.616618930013118" />
    <line x1="294.55755169066589" y1="105.92013272685385" x2="259.00105677741135" y2="159.13418791421674" />
    <line x1="356.02894937934741" y1="52.029742073648805" x2="325.57807173949243" y2="89.134243835060175" />
    <line x1="360.42135623730951" y1="77.57864376269049" x2="349.10764773832477" y2="88.892352261675256" />
    <line x1="337.79393923934" y1="100.20606076066001" x2="326.48023074035518" y2="111.51976925964478" />
    <line x1="292.53910524340097" y1="145.46089475659903" x2="258.59797974644664" y2="179.40202025355333" />
    <line x1="247.2842712474619" y1="190.7157287525381" x2="235.97056274847714" y2="202.02943725152286" />
    <line x1="336.497588911136" y1="122.57222080712589" x2="324.12942165733222" y2="132.72251335374421" />
    <line x1="385.29392246050907" y1="107.88595339607954" x2="278.86581208578326" y2="178.99894322258865" />
    <line x1="409.49499309924465" y1="117.17830484558448" x2="395.384252869671" y2="124.72065263480044" />
    <line x1="367.16277241052364" y1="139.80534821323238" x2="353.05203218094994" y2="147.34769600244835" />
    <line x1="403.77590650225738" y1="142.46331352698203" x2="388.99383398207675" y2="148.58624844482347" />
    <line x1="270.73725382063208" y1="197.56972778755497" x2="255.95518130045147" y2="203.6926627053964" />
    <line x1="425.69911251815711" y1="156.29850971303614" x2="410.38806714644181" y2="160.94306454910753" />
    <line x1="395.0770217747264" y1="165.58761938517893" x2="364.45493103129576" y2="174.87672905732171" />
    <line x1="415.1570560806461" y1="179.98193559677435" x2="399.46449159419438" y2="183.1033807490324" />
    <line x1="383.77192710774273" y1="186.22482590129044" x2="352.38679813483935" y2="192.46771620580654" />
    <line x1="321.001669161936" y1="198.71060651032266" x2="305.30910467548426" y2="201.83205166258071" />
    <line x1="433.95990096119453" y1="197.82829768881487" x2="418.03694533443934" y2="199.39657193408783" />
    <line x1="386.19103408092906" y1="202.53312042463378" x2="354.34512282741878" y2="205.66966891517973" />
    <line x1="419" y1="219" x2="403" y2="219" />
    <line x1="355" y1="219" x2="339" y2="219" />
    <line x1="323" y1="219" x2="275" y2="219" />
    <line x1="433.95990096119453" y1="240.1717023111851" x2="418.03694533443939" y2="238.60342806591214" />
    <line x1="370.268078454174" y1="233.89860533009323" x2="354.34512282741878" y2="232.33033108482024" />
    <line x1="364.45493103129576" y1="263.12327094267823" x2="349.14388565958041" y2="258.47871610660684" />
    <line x1="403.77590650225738" y1="295.53668647301794" x2="359.4296889417156" y2="277.16788171949361" />
    <line x1="344.64761642153496" y1="271.0449468016522" x2="300.30139886099323" y2="252.6761420481279" />
    <line x1="409.49499309924465" y1="320.82169515441552" x2="381.27351264009735" y2="305.73699957598359" />
    <line x1="367.16277241052364" y1="298.19465178676762" x2="353.05203218094994" y2="290.65230399755166" />
    <line x1="398.59743625734984" y1="339.00317033223405" x2="385.29392246050907" y2="330.11404660392037" />
    <line x1="332.07986727314619" y1="294.55755169066583" x2="318.77635347630547" y2="285.66842796235221" />
    <line x1="361.23392341874364" y1="335.72836428611072" x2="324.12942165733227" y2="305.27748664625574" />
    <line x1="360.42135623730951" y1="360.42135623730951" x2="349.10764773832477" y2="349.10764773832477" />
    <line x1="326.48023074035524" y1="326.48023074035518" x2="303.85281374238571" y2="303.85281374238571" />
    <line x1="269.91168824543144" y1="269.91168824543144" x2="258.59797974644664" y2="258.59797974644664" />
    <line x1="356.02894937934741" y1="385.97025792635122" x2="315.42777919287414" y2="336.497588911136" />
    <line x1="330.11404660392043" y1="385.29392246050907" x2="321.22492287560681" y2="371.99040866366835" />
    <line x1="294.55755169066589" y1="332.07986727314619" x2="285.66842796235227" y2="318.77635347630542" />
    <line x1="267.89018050572497" y1="292.169325882624" x2="259.00105677741135" y2="278.86581208578326" />
    <line x1="320.82169515441552" y1="409.49499309924465" x2="313.27934736519956" y2="395.384252869671" />
    <line x1="298.19465178676762" y1="367.16277241052364" x2="290.65230399755166" y2="353.05203218094994" />
    <line x1="295.536686473018" y1="403.77590650225738" x2="289.41375155517653" y2="388.99383398207675" />
    <line x1="283.29081663733507" y1="374.21176146189617" x2="277.16788171949366" y2="359.4296889417156" />
    <line x1="272.41238061482107" y1="395.0770217747264" x2="258.4787161066069" y2="349.14388565958041" />
    <line x1="245.53228379419349" y1="352.38679813483935" x2="242.41083864193544" y2="336.69423364838764" />
    <line x1="239.28939348967737" y1="321.001669161936" x2="236.16794833741932" y2="305.30910467548426" />
    <line x1="238.60342806591217" y1="418.03694533443934" x2="237.03515382063918" y2="402.11398970768425" />
    <line x1="219.00000000000003" y1="435" x2="219.00000000000003" y2="419" />
    <line x1="219.00000000000003" y1="403" x2="219.00000000000003" y2="387" />
    <line x1="219.00000000000003" y1="355" x2="219" y2="323" />
    <line x1="219" y1="307" x2="219" y2="291" />
    <line x1="219" y1="259" x2="219" y2="243" />
    <line x1="199.39657193408789" y1="418.03694533443939" x2="202.53312042463381" y2="386.19103408092906" />
    <line x1="204.1013946699068" y1="370.268078454174" x2="205.66966891517976" y2="354.34512282741878" />
    <line x1="183.1033807490324" y1="399.46449159419438" x2="186.22482590129044" y2="383.77192710774273" />
    <line x1="198.71060651032266" y1="321.001669161936" x2="204.95349681483876" y2="289.61654018903261" />
    <line x1="174.87672905732177" y1="364.45493103129576" x2="179.52128389339316" y2="349.14388565958041" />
    <line x1="197.56972778755497" y1="270.73725382063208" x2="203.6926627053964" y2="255.95518130045147" />
    <line x1="132.26300042401644" y1="381.27351264009735" x2="154.89004379166431" y2="338.94129195137629" />
    <line x1="98.996829667765979" y1="398.59743625734984" x2="107.88595339607961" y2="385.29392246050907" />
    <line x1="116.77507712439324" y1="371.9904086636684" x2="125.66420085270687" y2="358.68689486682763" />
    <line x1="134.55332458102049" y1="345.38338106998691" x2="178.99894322258865" y2="278.86581208578326" />
    <line x1="92.12134316727095" y1="373.60209067254743" x2="122.57222080712592" y2="336.49758891113606" />
    <line x1="66.264935263705752" y1="371.73506473629431" x2="100.20606076066002" y2="337.79393923934003" />
    <line x1="122.83347775862954" y1="315.1665222413705" x2="134.14718625761429" y2="303.85281374238571" />
    <line x1="190.7157287525381" y1="247.2842712474619" x2="202.02943725152286" y2="235.97056274847714" />
    <line x1="52.02974207364889" y1="356.02894937934752" x2="76.766076581256442" y2="335.72836428611083" />
    <line x1="79.3131051331724" y1="312.33579914729319" x2="92.616618930013118" y2="303.44667541897957" />
    <line x1="119.22364652369457" y1="285.66842796235227" x2="145.83067411737602" y2="267.89018050572497" />
    <line x1="28.505006900755347" y1="320.82169515441552" x2="56.726487359902706" y2="305.73699957598359" />
    <line x1="84.947967819050064" y1="290.65230399755166" x2="99.058708048623728" y2="283.10995620833569" />
    <line x1="34.2240934977427" y1="295.53668647301805" x2="78.57031105828446" y2="277.16788171949372" />
    <line x1="122.91652861882621" y1="258.79907696596939" x2="137.69860113900677" y2="252.67614204812796" />
    <line x1="167.26274617936795" y1="240.43027221244506" x2="182.04481869954856" y2="234.3073372946036" />
    <line x1="27.611932853558244" y1="277.05693545089247" x2="58.234023596988919" y2="267.76782577874968" />
    <line x1="38.535508405805615" y1="254.89661925096766" x2="69.920637378708989" y2="248.65372894645157" />
    <line x1="19.963054665560605" y1="238.60342806591208" x2="51.808965919070914" y2="235.46687957536616" />
    <line x1="67.731921545826054" y1="233.89860533009318" x2="83.654877172581223" y2="232.33033108482022" />
    <line x1="51" y1="219.00000000000003" x2="67" y2="219.00000000000003" />
    <line x1="83" y1="219.00000000000003" x2="115" y2="219.00000000000003" />
    <line x1="131" y1="219.00000000000003" x2="163" y2="219" />
    <line x1="19.963054665560605" y1="199.39657193408797" x2="67.731921545826054" y2="204.10139466990688" />
    <line x1="54.228072892257273" y1="186.22482590129044" x2="132.69089532451574" y2="201.83205166258071" />
    <line x1="27.611932853558216" y1="160.94306454910759" x2="42.922978225273567" y2="165.58761938517898" />
    <line x1="58.234023596988891" y1="170.23217422125038" x2="73.545068968704243" y2="174.87672905732177" />
    <line x1="19.442020977562095" y1="136.34037860914054" x2="34.224093497742672" y2="142.463313526982" />
    <line x1="49.006166017923249" y1="148.58624844482344" x2="63.788238538103855" y2="154.70918336266487" />
    <line x1="78.570311058284432" y1="160.83211828050634" x2="108.1344560986456" y2="173.0779881161892" />
    <line x1="152.48067365918735" y1="191.44679286971353" x2="167.26274617936795" y2="197.56972778755497" />
    <line x1="42.615747130329" y1="124.72065263480049" x2="56.726487359902677" y2="132.26300042401644" />
    <line x1="66.009591336331624" y1="116.77507712439326" x2="92.61661893001309" y2="134.55332458102052" />
    <line x1="119.22364652369454" y1="152.33157203764779" x2="132.52716032053527" y2="161.22069576596141" />
    <line x1="76.766076581256414" y1="102.27163571388921" x2="89.1342438350602" y2="112.42192826050754" />
    <line x1="101.502411088864" y1="122.57222080712587" x2="113.87057834266778" y2="132.72251335374421" />
    <line x1="88.892352261675228" y1="88.892352261675285" x2="111.51976925964475" y2="111.5197692596448" />
    <line x1="122.83347775862951" y1="122.83347775862956" x2="134.14718625761429" y2="134.14718625761432" />
    <line x1="145.46089475659903" y1="145.46089475659909" x2="168.08831175456857" y2="168.08831175456859" />
    <line x1="81.971050620652477" y1="52.02974207364889" x2="92.121343167270808" y2="64.39790932745268" />
    <line x1="112.42192826050749" y1="89.134243835060232" x2="132.72251335374415" y2="113.87057834266781" />
    <line x1="107.88595339607957" y1="52.706077539490963" x2="125.66420085270684" y2="79.3131051331724" />
    <line x1="134.55332458102046" y1="92.616618930013118" x2="161.22069576596138" y2="132.5271603205353" />
    <line x1="124.72065263480042" y1="42.615747130329027" x2="147.34769600244832" y2="84.947967819050064" />
    <line x1="142.46331352698192" y1="34.2240934977427" x2="148.58624844482335" y2="49.006166017923277" />
    <line x1="179.20092303403061" y1="122.91652861882621" x2="197.56972778755494" y2="167.26274617936795" />
    <line x1="165.5876193851789" y1="42.922978225273567" x2="170.23217422125032" y2="58.234023596988919" />
    <line x1="179.98193559677426" y1="22.842943919353928" x2="183.10338074903231" y2="38.535508405805615" />
    <line x1="189.34627105354844" y1="69.920637378708989" x2="198.71060651032261" y2="116.99833083806405" />
    <line x1="201.83205166258068" y1="132.69089532451574" x2="204.95349681483873" y2="148.38345981096742" />
    <line x1="204.1013946699068" y1="67.731921545826054" x2="205.66966891517978" y2="83.654877172581223" />
  </g>
  <path fill="none" stroke="#ff0000" stroke-width="2" stroke-linecap="square" stroke-linejoin="round" d="M 229.59861765472229,3.2601814596827694 L 229.20607626010295,11.25054510932415 A 208,208 0 0,1 249.51993868671525,13.251285927325569 L 247.17225109542946,29.078110086762052 A 192,192 0 0,0 209.57900652913574,27.231272408606912 L 208.79392373989703,11.25054510932415 A 208,208 0 0,0 130.06854056650121,30.970227030323827 L 143.75030355627027,59.897884410274 A 176,176 0 0,1 159.70738580296927,53.288244527788351 L 154.31714814869378,38.22353948486 A 192,192 0 0,1 172.34780545857328,32.753999386647564 L 176.23548833702552,48.274499437760284 A 176,176 0 0,1 227.63591068162558,43.211999707889646 L 226.85082789238689,59.192727007172408 A 160,160 0 0,1 242.47687591285788,60.731758405635048 L 240.12918832157209,76.558582565071532 A 144,144 0 0,1 253.98914590607,79.315499539985666 L 250.10146302761777,94.835999591098371 A 128,128 0 0,1 256.1564386885712,96.51163702627727 L 251.51188385249978,111.82268239799261 A 112,112 0 0,0 229.97791971691078,107.53931061271395 L 228.40964547163782,123.4622662394691 A 96,96 0 0,0 191.13267098357159,127.13372776970795 L 200.4217806557144,157.75581851313865 A 64,64 0 0,1 259.60117018647333,169.52733098478484 L 290.05204782632831,132.42282922337347 A 112,112 0 0,1 305.57717077662653,147.9479521736717 L 268.47266901521516,178.39882981352668 A 64,64 0 0,1 281.77025794580675,206.51421939096778 L 266.07769345935503,209.63566454322583 A 48,48 0 0,1 209.63566454322583,266.07769345935503 L 212.75710969548391,250.38512897290337 A 32,32 0 0,1 206.75413016431713,248.56414504036118 L 209.81559762323786,241.17310878027089" />
  <type>Circular</type>
</svg>