<?xml version="1.0" encoding="utf-8" standalone="no"?>
<!DOCTYPE svg PUBLIC "-//W3C//DTD SVG 1.1//EN" "http://www.w3.org/Graphics/SVG/1.1/DTD/svg11.dtd"[]>
<svg width="436" height="436" version="1.1" xmlns="http://www.w3.org/2000/svg">
  <title>27 cells diameter theta maze</title>
  <g fill="none" stroke="#000000" stroke-width="2" stroke-linecap="square">
    <path d="M 202.02943725152286,235.97056274847714 A 24,24 0 1,1 219,243" />
    <path d="M 190.7157287525381,190.7157287525381 A 40,40 0 0,1 234.3073372946036,182.04481869954853" />
    <path d="M 255.95518130045147,203.6926627053964 A 40,40 0 0,1 255.95518130045147,234.3073372946036" />
    <path d="M 247.2842712474619,247.2842712474619 A 40,40 0 0,1 234.3073372946036,255.95518130045147" />
    <path d="M 219,259 A 40,40 0 0,1 190.7157287525381,247.2842712474619" />
    <path d="M 179,219 A 40,40 0 0,1 182.04481869954853,203.6926627053964" />
    <path d="M 197.56972778755494,167.26274617936795 A 56,56 0 0,1 258.59797974644664,179.40202025355333" />
    <path d="M 270.73725382063208,240.43027221244503 A 56,56 0 0,1 258.59797974644664,258.59797974644664" />
    <path d="M 240.43027221244503,270.73725382063208 A 56,56 0 0,1 219,275" />
    <path d="M 179.40202025355336,258.59797974644664 A 56,56 0 0,1 167.26274617936795,240.43027221244506" />
    <path d="M 167.26274617936795,197.56972778755497 A 56,56 0 0,1 179.40202025355333,179.40202025355336" />
    <path d="M 204.95349681483873,148.3834598109674 A 72,72 0 0,1 233.04650318516124,148.3834598109674" />
    <path d="M 246.55320713028647,152.48067365918735 A 72,72 0 0,1 291,219" />
    <path d="M 289.61654018903261,233.04650318516124 A 72,72 0 0,1 285.51932634081265,246.55320713028647" />
    <path d="M 269.91168824543144,269.91168824543144 A 72,72 0 0,1 259.00105677741135,278.86581208578326" />
    <path d="M 246.55320713028647,285.51932634081265 A 72,72 0 0,1 233.04650318516127,289.61654018903261" />
    <path d="M 219,291 A 72,72 0 0,1 191.44679286971353,285.51932634081265" />
    <path d="M 178.99894322258865,278.86581208578326 A 72,72 0 0,1 159.13418791421674,259.00105677741135" />
    <path d="M 152.48067365918737,246.5532071302865 A 72,72 0 0,1 148.3834598109674,233.04650318516127" />
    <path d="M 147,219 A 72,72 0 0,1 148.3834598109674,204.95349681483876" />
    <path d="M 159.13418791421674,178.99894322258865 A 72,72 0 0,1 191.44679286971348,152.48067365918737" />
    <path d="M 201.83205166258068,132.69089532451574 A 88,88 0 0,1 219,131" />
    <path d="M 236.16794833741929,132.69089532451574 A 88,88 0 0,1 267.89018050572497,145.83067411737602" />
    <path d="M 292.169325882624,170.109819494275 A 88,88 0 0,1 300.30139886099323,252.6761420481279" />
    <path d="M 267.89018050572497,292.169325882624 A 88,88 0 0,1 201.83205166258071,305.30910467548426" />
    <path d="M 132.69089532451574,236.16794833741932 A 88,88 0 0,1 145.830674117376,170.10981949427503" />
    <path d="M 156.7746032555838,156.77460325558383 A 88,88 0 0,1 170.109819494275,145.83067411737602" />
    <path d="M 219,115 A 104,104 0 0,1 305.4728396794647,161.22069576596135" />
    <path d="M 323,219 A 104,104 0 0,1 219,323" />
    <path d="M 198.71060651032266,321.001669161936 A 104,104 0 0,1 179.20092303403067,315.08347138117381" />
    <path d="M 145.46089475659909,292.53910524340097 A 104,104 0 0,1 132.5271603205353,276.77930423403865" />
    <path d="M 122.91652861882621,258.79907696596939 A 104,104 0 0,1 116.99833083806404,239.28939348967737" />
    <path d="M 115,219.00000000000003 A 104,104 0 0,1 116.99833083806404,198.71060651032266" />
    <path d="M 132.52716032053527,161.22069576596141 A 104,104 0 0,1 179.20092303403061,122.91652861882621" />
    <path d="M 101.30576635161235,195.58916135806462 A 120,120 0 0,1 242.41083864193539,101.30576635161235" />
    <path d="M 285.66842796235227,119.22364652369457 A 120,120 0 0,1 339,219" />
    <path d="M 318.77635347630542,285.66842796235221 A 120,120 0 0,1 303.85281374238571,303.85281374238571" />
    <path d="M 264.9220118838108,329.86554390135439 A 120,120 0 0,1 134.14718625761429,303.85281374238571" />
    <path d="M 108.13445609864561,264.92201188381085 A 120,120 0 0,1 99,219.00000000000003" />
    <path d="M 179.5212838933931,88.8561143404196 A 136,136 0 0,1 232.33033108482024,83.654877172581223" />
    <path d="M 245.53228379419343,85.613201865160647 A 136,136 0 0,1 258.4787161066069,88.8561143404196" />
    <path d="M 271.0449468016522,93.352383578465 A 136,136 0 0,1 294.55755169066589,105.92013272685385" />
    <path d="M 332.07986727314614,143.44244830933411 A 136,136 0 0,1 344.64761642153496,166.9550531983478" />
    <path d="M 349.14388565958041,179.52128389339313 A 136,136 0 0,1 349.14388565958041,258.47871610660684" />
    <path d="M 344.647616421535,271.0449468016522 A 136,136 0 0,1 338.94129195137629,283.10995620833569" />
    <path d="M 315.16652224137044,315.16652224137044 A 136,136 0 0,1 294.55755169066589,332.07986727314619" />
    <path d="M 283.10995620833569,338.94129195137629 A 136,136 0 0,1 271.0449468016522,344.64761642153496" />
    <path d="M 232.33033108482027,354.34512282741878 A 136,136 0 0,1 219.00000000000003,355" />
    <path d="M 205.66966891517976,354.34512282741878 A 136,136 0 0,1 179.52128389339316,349.14388565958041" />
    <path d="M 166.9550531983478,344.647616421535 A 136,136 0 0,1 122.83347775862956,315.16652224137044" />
    <path d="M 113.87057834266781,305.27748664625585 A 136,136 0 0,1 99.058708048623728,283.10995620833569" />
    <path d="M 88.8561143404196,258.4787161066069 A 136,136 0 0,1 83.654877172581223,232.33033108482022" />
    <path d="M 83,219.00000000000003 A 136,136 0 0,1 99.058708048623714,154.89004379166431" />
    <path d="M 105.92013272685382,143.44244830933414 A 136,136 0 0,1 122.83347775862951,122.83347775862956" />
    <path d="M 143.44244830933411,105.92013272685385 A 136,136 0 0,1 166.95505319834771,93.352383578465037" />
    <path d="M 219,67 A 152,152 0 0,1 233.8986053300932,67.731921545826083" />
    <path d="M 277.16788171949366,78.5703110582844 A 152,152 0 0,1 290.65230399755166,84.947967819050035" />
    <path d="M 315.42777919287414,101.50241108886398 A 152,152 0 0,1 326.48023074035524,111.51976925964478" />
    <path d="M 336.497588911136,122.57222080712587 A 152,152 0 0,1 353.05203218094994,147.34769600244835" />
    <path d="M 359.4296889417156,160.83211828050634 A 152,152 0 0,1 364.45493103129576,174.87672905732174" />
    <path d="M 368.079362621291,248.65372894645148 A 152,152 0 0,1 359.4296889417156,277.16788171949361" />
    <path d="M 336.49758891113606,315.42777919287408 A 152,152 0 0,1 303.44667541897951,345.38338106998685" />
    <path d="M 290.65230399755166,353.05203218094994 A 152,152 0 0,1 263.12327094267829,364.45493103129576" />
    <path d="M 219.00000000000003,371 A 152,152 0 0,1 204.1013946699068,370.26807845417392" />
    <path d="M 189.34627105354849,368.079362621291 A 152,152 0 0,1 101.50241108886402,315.42777919287414" />
    <path d="M 78.57031105828446,277.16788171949372 A 152,152 0 0,1 73.545068968704243,263.12327094267829" />
    <path d="M 67.731921545826083,233.89860533009318 A 152,152 0 0,1 67.731921545826054,204.10139466990688" />
    <path d="M 84.947967819050035,147.34769600244837 A 152,152 0 0,1 134.55332458102046,92.616618930013118" />
    <path d="M 160.83211828050625,78.57031105828446 A 152,152 0 0,1 204.1013946699068,67.731921545826083" />
    <path d="M 202.53312042463384,51.808965919070914 A 168,168 0 0,1 219,51" />
    <path d="M 235.46687957536619,51.808965919070914 A 168,168 0 0,1 251.77517409870956,54.228072892257273" />
    <path d="M 267.76782577874968,58.234023596988919 A 168,168 0 0,1 312.33579914729319,79.3131051331724" />
    <path d="M 337.79393923934,100.20606076066001 A 168,168 0 0,1 358.68689486682763,125.66420085270683" />
    <path d="M 367.16277241052364,139.80534821323238 A 168,168 0 0,1 383.77192710774273,186.22482590129044" />
    <path d="M 386.19103408092906,235.46687957536619 A 168,168 0 0,1 383.77192710774273,251.77517409870953" />
    <path d="M 367.16277241052364,298.19465178676762 A 168,168 0 0,1 358.68689486682763,312.33579914729313" />
    <path d="M 337.79393923934,337.79393923934 A 168,168 0 0,1 219.00000000000003,387" />
    <path d="M 186.22482590129044,383.77192710774273 A 168,168 0 0,1 154.70918336266493,374.21176146189617" />
    <path d="M 139.80534821323241,367.16277241052364 A 168,168 0 0,1 125.66420085270688,358.68689486682763" />
    <path d="M 112.42192826050759,348.86575616493985 A 168,168 0 0,1 89.134243835060232,325.57807173949249" />
    <path d="M 70.837227589476385,298.19465178676762 A 168,168 0 0,1 58.234023596988919,267.76782577874968" />
    <path d="M 54.2280728922573,251.77517409870961 A 168,168 0 0,1 51.808965919070914,202.53312042463392" />
    <path d="M 58.234023596988891,170.23217422125038 A 168,168 0 0,1 70.837227589476356,139.80534821323241" />
    <path d="M 79.313105133172371,125.66420085270688 A 168,168 0 0,1 154.70918336266482,63.788238538103855" />
    <path d="M 237.03515382063915,35.886010292315774 A 184,184 0 0,1 254.8966192509676,38.535508405805587" />
    <path d="M 305.73699957598353,56.726487359902677 A 184,184 0 0,1 349.10764773832477,88.892352261675256" />
    <path d="M 361.23392341874359,102.27163571388923 A 184,184 0 0,1 395.0770217747264,165.58761938517893" />
    <path d="M 399.46449159419444,183.1033807490324 A 184,184 0 0,1 402.11398970768425,237.03515382063915" />
    <path d="M 388.99383398207681,289.41375155517653 A 184,184 0 0,1 381.27351264009735,305.73699957598359" />
    <path d="M 371.99040866366835,321.22492287560675 A 184,184 0 0,1 361.23392341874364,335.72836428611072" />
    <path d="M 349.10764773832477,349.10764773832477 A 184,184 0 0,1 321.22492287560681,371.99040866366835" />
    <path d="M 305.73699957598359,381.27351264009729 A 184,184 0 0,1 289.41375155517653,388.99383398207675" />
    <path d="M 254.89661925096766,399.46449159419438 A 184,184 0 0,1 237.03515382063918,402.11398970768425" />
    <path d="M 219.00000000000003,403 A 184,184 0 0,1 183.1033807490324,399.46449159419444" />
    <path d="M 165.58761938517898,395.0770217747264 A 184,184 0 0,1 132.26300042401644,381.27351264009735" />
    <path d="M 116.77507712439325,371.99040866366835 A 184,184 0 0,1 102.27163571388927,361.23392341874364" />
    <path d="M 88.892352261675285,349.10764773832477 A 184,184 0 0,1 76.76607658125647,335.72836428611083" />
    <path d="M 66.009591336331681,321.22492287560681 A 184,184 0 0,1 38.535508405805615,254.89661925096766" />
    <path d="M 35.886010292315774,237.03515382063912 A 184,184 0 0,1 35,219.00000000000003" />
    <path d="M 38.535508405805587,183.1033807490324 A 184,184 0 0,1 56.726487359902677,132.26300042401647" />
    <path d="M 66.009591336331624,116.77507712439326 A 184,184 0 0,1 88.892352261675228,88.892352261675285" />
    <path d="M 102.27163571388915,76.76607658125647 A 184,184 0 0,1 116.77507712439319,66.009591336331681" />
    <path d="M 132.26300042401638,56.726487359902706 A 184,184 0 0,1 148.58624844482335,49.006166017923277" />
    <path d="M 258.01806440322565,22.8429439193539 A 200,200 0 0,1 313.27934736519956,42.615747130329" />
    <path d="M 330.11404660392043,52.706077539490963 A 200,200 0 0,1 345.87865683272912,64.3979093274526" />
    <path d="M 360.42135623730951,77.57864376269049 A 200,200 0 0,1 373.60209067254738,92.1213431672709" />
    <path d="M 410.38806714644181,160.94306454910753 A 200,200 0 0,1 418.03694533443934,199.39657193408783" />
    <path d="M 415.1570560806461,258.01806440322565 A 200,200 0 0,1 403.77590650225738,295.53668647301794" />
    <path d="M 395.384252869671,313.27934736519956 A 200,200 0 0,1 385.29392246050907,330.11404660392043" />
    <path d="M 330.11404660392043,385.29392246050907 A 200,200 0 0,1 313.27934736519956,395.38425286967095" />
    <path d="M 277.05693545089247,410.38806714644181 A 200,200 0 0,1 160.94306454910759,410.38806714644181" />
    <path d="M 124.72065263480047,395.384252869671 A 200,200 0 0,1 107.88595339607961,385.29392246050907" />
    <path d="M 92.121343167270936,373.60209067254743 A 200,200 0 0,1 77.578643762690518,360.42135623730951" />
    <path d="M 64.39790932745268,345.87865683272918 A 200,200 0 0,1 52.706077539490934,330.11404660392043" />
    <path d="M 27.611932853558244,277.05693545089247 A 200,200 0 0,1 19.963054665560634,238.60342806591208" />
    <path d="M 19.963054665560605,199.39657193408797 A 200,200 0 0,1 22.8429439193539,179.98193559677435" />
    <path d="M 42.615747130329,124.72065263480049 A 200,200 0 0,1 52.706077539490906,107.88595339607963" />
    <path d="M 77.578643762690461,77.578643762690518 A 200,200 0 0,1 107.88595339607956,52.706077539490963" />
    <path d="M 124.72065263480042,42.615747130329027 A 200,200 0 0,1 142.46331352698192,34.2240934977427" />
    <path d="M 160.9430645491075,27.611932853558244 A 200,200 0 0,1 199.39657193408789,19.963054665560634" />
    <path d="M 240.1717023111851,4.0400990388054652 A 216,216 0 1,1 219,3" />
  </g>
  <g fill="none" stroke="#000000" stroke-width="2" stroke-linecap="butt">
    <line x1="219" y1="3" x2="219" y2="51" />
    <line x1="219" y1="115" x2="219" y2="131" />
    <line x1="219" y1="147" x2="219" y2="163" />
    <line x1="240.1717023111851" y1="4.0400990388054652" x2="237.03515382063915" y2="35.886010292315774" />
    <line x1="233.8986053300932" y1="67.731921545826054" x2="232.33033108482024" y2="83.654877172581223" />
    <line x1="251.77517409870956" y1="54.228072892257273" x2="242.41083864193539" y2="101.30576635161235" />
    <line x1="277.05693545089247" y1="27.611932853558244" x2="258.4787161066069" y2="88.8561143404196" />
    <line x1="289.41375155517653" y1="49.006166017923249" x2="283.29081663733507" y2="63.788238538103826" />
    <line x1="277.16788171949366" y1="78.5703110582844" x2="271.0449468016522" y2="93.352383578465009" />
    <line x1="264.9220118838108" y1="108.13445609864559" x2="258.79907696596933" y2="122.91652861882618" />
    <line x1="252.6761420481279" y1="137.69860113900677" x2="246.55320713028647" y2="152.48067365918735" />
    <line x1="320.82169515441547" y1="28.505006900755319" x2="305.73699957598353" y2="56.726487359902677" />
    <line x1="312.33579914729319" y1="79.3131051331724" x2="285.66842796235227" y2="119.22364652369457" />
    <line x1="356.02894937934741" y1="52.029742073648805" x2="345.87865683272912" y2="64.3979093274526" />
    <line x1="335.72836428611078" y1="76.766076581256385" x2="325.57807173949243" y2="89.134243835060175" />
    <line x1="315.42777919287414" y1="101.50241108886398" x2="305.2774866462558" y2="113.87057834266777" />
    <line x1="360.42135623730951" y1="77.57864376269049" x2="326.48023074035518" y2="111.51976925964478" />
    <line x1="315.16652224137044" y1="122.83347775862953" x2="303.85281374238571" y2="134.14718625761429" />
    <line x1="292.53910524340097" y1="145.46089475659903" x2="269.91168824543144" y2="168.08831175456857" />
    <line x1="258.59797974644664" y1="179.40202025355333" x2="247.2842712474619" y2="190.7157287525381" />
    <line x1="336.497588911136" y1="122.57222080712589" x2="324.12942165733222" y2="132.72251335374421" />
    <line x1="398.59743625734978" y1="98.996829667765908" x2="371.99040866366829" y2="116.77507712439318" />
    <line x1="358.68689486682763" y1="125.66420085270681" x2="345.38338106998685" y2="134.55332458102043" />
    <line x1="332.07986727314614" y1="143.44244830933408" x2="318.77635347630542" y2="152.33157203764773" />
    <line x1="395.384252869671" y1="124.72065263480044" x2="381.27351264009729" y2="132.26300042401641" />
    <line x1="418.55797902243796" y1="136.3403786091406" x2="403.77590650225738" y2="142.46331352698203" />
    <line x1="359.4296889417156" y1="160.83211828050634" x2="344.64761642153496" y2="166.9550531983478" />
    <line x1="329.86554390135439" y1="173.0779881161892" x2="315.08347138117381" y2="179.20092303403067" />
    <line x1="270.73725382063208" y1="197.56972778755497" x2="255.95518130045147" y2="203.6926627053964" />
    <line x1="410.38806714644181" y1="160.94306454910753" x2="395.0770217747264" y2="165.58761938517893" />
    <line x1="364.45493103129576" y1="174.87672905732171" x2="349.14388565958041" y2="179.52128389339313" />
    <line x1="399.46449159419438" y1="183.1033807490324" x2="368.079362621291" y2="189.34627105354849" />
    <line x1="321.001669161936" y1="198.71060651032266" x2="305.30910467548426" y2="201.83205166258071" />
    <line x1="386.19103408092906" y1="202.53312042463378" x2="354.34512282741878" y2="205.66966891517973" />
    <line x1="435" y1="219" x2="371" y2="219" />
    <line x1="339" y1="219" x2="323" y2="219" />
    <line x1="307" y1="219" x2="275" y2="219" />
    <line x1="259" y1="219" x2="243" y2="219" />
    <line x1="418.03694533443939" y1="238.60342806591214" x2="402.11398970768425" y2="237.03515382063915" />
    <line x1="386.19103408092906" y1="235.46687957536619" x2="370.268078454174" y2="233.89860533009323" />
    <line x1="415.1570560806461" y1="258.01806440322565" x2="383.77192710774273" y2="251.77517409870953" />
    <line x1="352.38679813483935" y1="245.53228379419343" x2="336.69423364838764" y2="242.41083864193539" />
    <line x1="425.69911251815711" y1="281.7014902869638" x2="410.38806714644181" y2="277.05693545089241" />
    <line x1="395.0770217747264" y1="272.412380614821" x2="364.45493103129576" y2="263.12327094267823" />
    <line x1="403.77590650225738" y1="295.53668647301794" x2="374.21176146189617" y2="283.29081663733507" />
    <line x1="359.4296889417156" y1="277.16788171949361" x2="315.08347138117381" y2="258.79907696596933" />
    <line x1="285.51932634081265" y1="246.55320713028647" x2="270.73725382063208" y2="240.43027221244503" />
    <line x1="395.384252869671" y1="313.27934736519956" x2="381.27351264009735" y2="305.73699957598359" />
    <line x1="367.16277241052364" y1="298.19465178676762" x2="353.05203218094994" y2="290.65230399755166" />
    <line x1="371.9904086636684" y1="321.22492287560675" x2="358.68689486682763" y2="312.33579914729313" />
    <line x1="345.38338106998691" y1="303.44667541897951" x2="318.77635347630547" y2="285.66842796235221" />
    <line x1="305.47283967946476" y1="276.77930423403859" x2="278.86581208578326" y2="259.00105677741135" />
    <line x1="385.97025792635122" y1="356.02894937934741" x2="361.23392341874364" y2="335.72836428611072" />
    <line x1="348.86575616493985" y1="325.57807173949243" x2="324.12942165733227" y2="305.27748664625574" />
    <line x1="360.42135623730951" y1="360.42135623730951" x2="337.79393923934" y2="337.79393923934" />
    <line x1="315.16652224137044" y1="315.16652224137044" x2="303.85281374238571" y2="303.85281374238571" />
    <line x1="292.53910524340097" y1="292.53910524340097" x2="258.59797974644664" y2="258.59797974644664" />
    <line x1="356.02894937934741" y1="385.97025792635122" x2="345.87865683272912" y2="373.60209067254743" />
    <line x1="330.11404660392043" y1="385.29392246050907" x2="321.22492287560681" y2="371.99040866366835" />
    <line x1="303.44667541897957" y1="345.38338106998691" x2="276.77930423403865" y2="305.4728396794647" />
    <line x1="290.65230399755166" y1="353.05203218094994" x2="283.10995620833569" y2="338.94129195137629" />
    <line x1="301.6596213908594" y1="418.55797902243796" x2="289.41375155517653" y2="388.99383398207675" />
    <line x1="252.6761420481279" y1="300.30139886099323" x2="234.3073372946036" y2="255.95518130045147" />
    <line x1="277.05693545089247" y1="410.38806714644176" x2="258.4787161066069" y2="349.14388565958041" />
    <line x1="248.65372894645154" y1="368.079362621291" x2="242.41083864193544" y2="336.69423364838764" />
    <line x1="238.60342806591217" y1="418.03694533443934" x2="237.03515382063918" y2="402.11398970768425" />
    <line x1="235.46687957536622" y1="386.19103408092906" x2="233.89860533009323" y2="370.26807845417392" />
    <line x1="219.00000000000003" y1="403" x2="219.00000000000003" y2="387" />
    <line x1="219.00000000000003" y1="371" x2="219.00000000000003" y2="355" />
    <line x1="219" y1="291" x2="219" y2="275" />
    <line x1="219" y1="259" x2="219" y2="243" />
    <line x1="202.53312042463381" y1="386.19103408092906" x2="205.66966891517976" y2="354.34512282741878" />
    <line x1="183.1033807490324" y1="399.46449159419438" x2="189.34627105354849" y2="368.079362621291" />
    <line x1="174.87672905732177" y1="364.45493103129576" x2="179.52128389339316" y2="349.14388565958041" />
    <line x1="142.46331352698206" y1="403.77590650225738" x2="148.5862484448235" y2="388.99383398207681" />
    <line x1="160.83211828050636" y1="359.4296889417156" x2="166.9550531983478" y2="344.647616421535" />
    <line x1="179.20092303403067" y1="315.08347138117381" x2="203.6926627053964" y2="255.95518130045147" />
    <line x1="132.26300042401644" y1="381.27351264009735" x2="139.80534821323238" y2="367.16277241052364" />
    <line x1="107.88595339607961" y1="385.29392246050907" x2="134.55332458102049" y2="345.38338106998691" />
    <line x1="152.33157203764776" y1="318.77635347630547" x2="178.99894322258865" y2="278.86581208578326" />
    <line x1="81.971050620652619" y1="385.97025792635122" x2="92.12134316727095" y2="373.60209067254743" />
    <line x1="102.27163571388927" y1="361.23392341874364" x2="112.4219282605076" y2="348.86575616493985" />
    <line x1="77.578643762690518" y1="360.42135623730951" x2="88.892352261675256" y2="349.10764773832477" />
    <line x1="156.77460325558383" y1="281.22539674441617" x2="179.40202025355336" y2="258.59797974644664" />
    <line x1="76.766076581256442" y1="335.72836428611083" x2="89.134243835060232" y2="325.57807173949254" />
    <line x1="52.706077539490963" y1="330.11404660392043" x2="79.3131051331724" y2="312.33579914729319" />
    <line x1="92.616618930013118" y1="303.44667541897957" x2="145.83067411737602" y2="267.89018050572497" />
    <line x1="28.505006900755347" y1="320.82169515441552" x2="42.615747130329" y2="313.27934736519956" />
    <line x1="70.837227589476356" y1="298.19465178676762" x2="99.058708048623728" y2="283.10995620833569" />
    <line x1="19.442020977562123" y1="301.65962139085951" x2="63.788238538103855" y2="283.29081663733518" />
    <line x1="78.57031105828446" y1="277.16788171949372" x2="108.13445609864561" y2="264.92201188381085" />
    <line x1="122.91652861882621" y1="258.79907696596939" x2="137.69860113900677" y2="252.67614204812796" />
    <line x1="152.48067365918737" y1="246.5532071302865" x2="182.04481869954856" y2="234.3073372946036" />
    <line x1="58.234023596988919" y1="267.76782577874968" x2="73.545068968704271" y2="263.12327094267829" />
    <line x1="38.535508405805615" y1="254.89661925096766" x2="85.613201865160676" y2="245.53228379419349" />
    <line x1="116.99833083806405" y1="239.28939348967737" x2="148.38345981096742" y2="233.04650318516127" />
    <line x1="19.963054665560605" y1="238.60342806591208" x2="35.886010292315774" y2="237.03515382063912" />
    <line x1="67.731921545826054" y1="233.89860533009318" x2="83.654877172581223" y2="232.33033108482022" />
    <line x1="3" y1="219.00000000000003" x2="19" y2="219.00000000000003" />
    <line x1="35" y1="219.00000000000003" x2="51" y2="219.00000000000003" />
    <line x1="147" y1="219" x2="179" y2="219" />
    <line x1="19.963054665560605" y1="199.39657193408797" x2="35.886010292315774" y2="200.96484617936093" />
    <line x1="7.1503794329022412" y1="176.8604904445163" x2="22.8429439193539" y2="179.98193559677435" />
    <line x1="38.535508405805615" y1="183.1033807490324" x2="85.613201865160647" y2="192.46771620580654" />
    <line x1="101.30576635161235" y1="195.58916135806462" x2="116.99833083806404" y2="198.71060651032266" />
    <line x1="132.69089532451574" y1="201.83205166258071" x2="148.3834598109674" y2="204.95349681483876" />
    <line x1="12.300887481842864" y1="156.2985097130362" x2="27.611932853558216" y2="160.94306454910759" />
    <line x1="58.234023596988891" y1="170.23217422125038" x2="73.545068968704243" y2="174.87672905732177" />
    <line x1="34.224093497742672" y1="142.463313526982" x2="49.006166017923249" y2="148.58624844482344" />
    <line x1="78.570311058284432" y1="160.83211828050634" x2="93.352383578465023" y2="166.95505319834777" />
    <line x1="108.1344560986456" y1="173.0779881161892" x2="137.69860113900677" y2="185.32385795187207" />
    <line x1="152.48067365918735" y1="191.44679286971353" x2="182.04481869954853" y2="203.6926627053964" />
    <line x1="28.505006900755319" y1="117.17830484558452" x2="42.615747130329" y2="124.72065263480049" />
    <line x1="56.726487359902677" y1="132.26300042401644" x2="84.947967819050035" y2="147.34769600244837" />
    <line x1="92.61661893001309" y1="134.55332458102052" x2="105.92013272685382" y2="143.44244830933417" />
    <line x1="145.83067411737602" y1="170.10981949427503" x2="159.13418791421674" y2="178.99894322258865" />
    <line x1="52.029742073648833" y1="81.971050620652562" x2="64.397909327452624" y2="92.121343167270879" />
    <line x1="77.578643762690461" y1="77.578643762690518" x2="100.20606076066" y2="100.20606076066005" />
    <line x1="179.40202025355333" y1="179.40202025355336" x2="202.02943725152286" y2="202.02943725152286" />
    <line x1="112.42192826050749" y1="89.134243835060232" x2="132.72251335374415" y2="113.87057834266781" />
    <line x1="107.88595339607957" y1="52.706077539490963" x2="116.77507712439319" y2="66.009591336331681" />
    <line x1="161.22069576596138" y1="132.5271603205353" x2="170.109819494275" y2="145.83067411737602" />
    <line x1="124.72065263480042" y1="42.615747130329027" x2="132.26300042401638" y2="56.726487359902706" />
    <line x1="147.34769600244832" y1="84.947967819050064" x2="154.89004379166428" y2="99.058708048623743" />
    <line x1="136.34037860914049" y1="19.442020977562123" x2="142.46331352698192" y2="34.2240934977427" />
    <line x1="154.70918336266482" y1="63.788238538103855" x2="160.83211828050625" y2="78.57031105828446" />
    <line x1="166.95505319834771" y1="93.352383578465037" x2="173.07798811618915" y2="108.13445609864561" />
    <line x1="179.20092303403061" y1="122.91652861882621" x2="197.56972778755494" y2="167.26274617936795" />
    <line x1="156.29850971303608" y1="12.300887481842892" x2="170.23217422125032" y2="58.234023596988919" />
    <line x1="183.10338074903231" y1="38.535508405805615" x2="189.34627105354844" y2="69.920637378708989" />
    <line x1="195.58916135806456" y1="101.30576635161236" x2="201.83205166258068" y2="132.69089532451574" />
    <line x1="199.39657193408789" y1="19.963054665560605" x2="200.96484617936088" y2="35.886010292315774" />
    <line x1="202.53312042463384" y1="51.808965919070914" x2="205.66966891517978" y2="83.654877172581223" />
  </g>
  <path fill="none" stroke="#ff0000" stroke-width="2" stroke-linecap="square" stroke-linejoin="round" d="M 229.59861765472229,3.2601814596827694 L 226.85082789238689,59.192727007172408 A 160,160 0 0,1 242.47687591285788,60.731758405635048 L 237.7815007302863,92.38540672450803 A 128,128 0 0,0 175.87809876579584,98.482359656573337 L 170.48786111152032,83.417654613645 A 144,144 0 0,0 157.43206654603932,88.825541790224179 L 150.59118505115481,74.361713100249091 A 160,160 0 0,0 136.74356092908448,81.763422399956482 L 144.96920483617606,95.48708015996084 A 144,144 0 0,0 133.21930015308962,103.33811546678712 L 142.75048902496855,116.18943597047743 A 128,128 0 0,0 91.6163549859588,206.45380603781632 L 107.53931061271395,208.02208028308928 A 112,112 0 0,0 120.22481839298425,271.79643452451177 L 148.44629885213161,256.71173894607983 A 80,80 0 0,0 157.15916373098108,269.75146273309167 L 144.79099647717729,279.90175527971 A 96,96 0 0,0 158.09824472029004,293.20900352282274 L 147.94795217367172,305.57717077662653 A 112,112 0 0,1 132.4228292233735,290.05204782632836 L 120.05466196956971,300.20234037294665 A 128,128 0 0,0 237.78150073028633,345.614593275492 L 242.47687591285788,377.26824159436495 A 160,160 0 0,0 257.87682878452222,374.205000511127 L 250.1014630276178,343.16400040890164 A 128,128 0 0,0 279.33878231372773,331.88592183658943 L 271.79643452451177,317.77518160701572 A 112,112 0 0,1 166.20356547548826,317.77518160701578 L 188.83060884313616,275.44296091829472 A 64,64 0 0,1 183.44350508674546,272.21405518736293 L 192.33262881505911,258.91054139052221 A 48,48 0 0,1 179.08945860947785,245.66737118494092 L 192.39297240631856,236.77824745662727 A 32,32 0 0,0 206.75413016431713,248.56414504036118 L 209.81559762323786,241.17310878027089" />
  <type>Circular</type>
</svg>