<?xml version="1.0" encoding="utf-8" standalone="no"?>
<!DOCTYPE svg PUBLIC "-//W3C//DTD SVG 1.1//EN" "http://www.w3.org/Graphics/SVG/1.1/DTD/svg11.dtd"[]>
<svg width="436" height="436" version="1.1" xmlns="http://www.w3.org/2000/svg">
  <title>27 cells diameter theta maze</title>
  <g fill="none" stroke="#000000" stroke-width="2" stroke-linecap="square">
    <path d="M 202.02943725152286,235.97056274847714 A 24,24 0 1,1 219,243" />
    <path d="M 219,179 A 40,40 0 0,1 259,219" />
    <path d="M 255.95518130045147,234.3073372946036 A 40,40 0 0,1 247.2842712474619,247.2842712474619" />
    <path d="M 234.3073372946036,255.95518130045147 A 40,40 0 0,1 190.7157287525381,247.2842712474619" />
    <path d="M 182.04481869954853,234.3073372946036 A 40,40 0 0,1 182.04481869954853,203.6926627053964" />
    <path d="M 190.7157287525381,190.7157287525381 A 40,40 0 0,1 203.69266270539637,182.04481869954856" />
    <path d="M 167.26274617936795,197.56972778755497 A 56,56 0 0,1 219,163" />
    <path d="M 258.59797974644664,179.40202025355333 A 56,56 0 0,1 270.73725382063208,197.56972778755497" />
    <path d="M 275,219 A 56,56 0 0,1 270.73725382063208,240.43027221244503" />
    <path d="M 240.43027221244503,270.73725382063208 A 56,56 0 0,1 219,275" />
    <path d="M 197.569727787555,270.73725382063208 A 56,56 0 0,1 179.40202025355336,258.59797974644664" />
    <path d="M 233.04650318516124,148.3834598109674 A 72,72 0 0,1 246.55320713028647,152.48067365918735" />
    <path d="M 269.91168824543144,168.08831175456857 A 72,72 0 0,1 289.61654018903261,204.95349681483876" />
    <path d="M 291,219 A 72,72 0 0,1 289.61654018903261,233.04650318516124" />
    <path d="M 285.51932634081265,246.55320713028647 A 72,72 0 0,1 278.86581208578326,259.00105677741135" />
    <path d="M 269.91168824543144,269.91168824543144 A 72,72 0 0,1 246.55320713028647,285.51932634081265" />
    <path d="M 233.04650318516127,289.61654018903261 A 72,72 0 0,1 204.95349681483876,289.61654018903261" />
    <path d="M 191.44679286971353,285.51932634081265 A 72,72 0 0,1 178.99894322258865,278.86581208578326" />
    <path d="M 168.08831175456859,269.91168824543144 A 72,72 0 0,1 148.3834598109674,233.04650318516127" />
    <path d="M 147,219 A 72,72 0 0,1 204.95349681483873,148.3834598109674" />
    <path d="M 236.16794833741929,132.69089532451574 A 88,88 0 0,1 267.89018050572497,145.83067411737602" />
    <path d="M 281.22539674441617,156.77460325558383 A 88,88 0 0,1 292.169325882624,170.109819494275" />
    <path d="M 300.30139886099323,185.3238579518721 A 88,88 0 0,1 305.30910467548426,201.83205166258071" />
    <path d="M 307,219 A 88,88 0 0,1 300.30139886099323,252.6761420481279" />
    <path d="M 292.169325882624,267.89018050572497 A 88,88 0 0,1 267.89018050572497,292.169325882624" />
    <path d="M 236.16794833741932,305.30910467548426 A 88,88 0 0,1 201.83205166258071,305.30910467548426" />
    <path d="M 185.32385795187213,300.30139886099323 A 88,88 0 0,1 132.69089532451574,236.16794833741932" />
    <path d="M 131,219.00000000000003 A 88,88 0 0,1 132.69089532451574,201.83205166258071" />
    <path d="M 137.69860113900677,185.32385795187207 A 88,88 0 0,1 145.830674117376,170.10981949427503" />
    <path d="M 185.32385795187204,137.69860113900677 A 88,88 0 0,1 201.83205166258068,132.69089532451574" />
    <path d="M 145.46089475659903,145.46089475659909 A 104,104 0 0,1 315.08347138117381,179.20092303403067" />
    <path d="M 321.001669161936,198.71060651032266 A 104,104 0 0,1 323,219" />
    <path d="M 315.08347138117381,258.79907696596933 A 104,104 0 0,1 305.47283967946476,276.77930423403859" />
    <path d="M 276.77930423403859,305.4728396794647 A 104,104 0 0,1 258.79907696596933,315.08347138117381" />
    <path d="M 179.20092303403067,315.08347138117381 A 104,104 0 0,1 161.22069576596141,305.47283967946476" />
    <path d="M 116.99833083806404,239.28939348967737 A 104,104 0 0,1 115,219.00000000000003" />
    <path d="M 116.99833083806404,198.71060651032266 A 104,104 0 0,1 132.52716032053527,161.22069576596141" />
    <path d="M 264.9220118838108,108.13445609864559 A 120,120 0 0,1 285.66842796235227,119.22364652369457" />
    <path d="M 303.85281374238571,134.14718625761429 A 120,120 0 0,1 318.77635347630542,152.33157203764773" />
    <path d="M 339,219 A 120,120 0 0,1 336.69423364838764,242.41083864193539" />
    <path d="M 318.77635347630542,285.66842796235221 A 120,120 0 0,1 285.66842796235227,318.77635347630542" />
    <path d="M 264.9220118838108,329.86554390135439 A 120,120 0 0,1 219.00000000000003,339" />
    <path d="M 195.58916135806459,336.69423364838764 A 120,120 0 0,1 152.33157203764779,318.77635347630547" />
    <path d="M 119.22364652369457,285.66842796235227 A 120,120 0 0,1 99,219.00000000000003" />
    <path d="M 101.30576635161235,195.58916135806462 A 120,120 0 0,1 108.1344560986456,173.0779881161892" />
    <path d="M 173.07798811618915,108.13445609864561 A 120,120 0 0,1 195.58916135806456,101.30576635161236" />
    <path d="M 192.46771620580648,85.613201865160676 A 136,136 0 0,1 283.10995620833569,99.058708048623714" />
    <path d="M 294.55755169066589,105.92013272685385 A 136,136 0 0,1 305.2774866462558,113.87057834266777" />
    <path d="M 332.07986727314614,143.44244830933411 A 136,136 0 0,1 349.14388565958041,179.52128389339313" />
    <path d="M 352.38679813483935,192.46771620580654 A 136,136 0 0,1 355,219" />
    <path d="M 352.38679813483935,245.53228379419343 A 136,136 0 0,1 349.14388565958041,258.47871610660684" />
    <path d="M 344.647616421535,271.0449468016522 A 136,136 0 0,1 324.12942165733227,305.27748664625574" />
    <path d="M 315.16652224137044,315.16652224137044 A 136,136 0 0,1 294.55755169066589,332.07986727314619" />
    <path d="M 283.10995620833569,338.94129195137629 A 136,136 0 0,1 245.53228379419349,352.3867981348393" />
    <path d="M 232.33033108482027,354.34512282741878 A 136,136 0 0,1 192.46771620580654,352.38679813483935" />
    <path d="M 179.52128389339316,349.14388565958041 A 136,136 0 0,1 154.89004379166431,338.94129195137629" />
    <path d="M 132.72251335374423,324.12942165733227 A 136,136 0 0,1 105.92013272685384,294.55755169066589" />
    <path d="M 99.058708048623728,283.10995620833569 A 136,136 0 0,1 88.8561143404196,258.4787161066069" />
    <path d="M 83.654877172581223,232.33033108482022 A 136,136 0 0,1 83,219.00000000000003" />
    <path d="M 83.654877172581223,205.66966891517984 A 136,136 0 0,1 93.352383578465009,166.95505319834777" />
    <path d="M 105.92013272685382,143.44244830933414 A 136,136 0 0,1 122.83347775862951,122.83347775862956" />
    <path d="M 132.72251335374415,113.87057834266783 A 136,136 0 0,1 179.5212838933931,88.8561143404196" />
    <path d="M 204.1013946699068,67.731921545826083 A 152,152 0 0,1 303.44667541897957,92.616618930013118" />
    <path d="M 315.42777919287414,101.50241108886398 A 152,152 0 0,1 336.497588911136,122.57222080712587" />
    <path d="M 359.4296889417156,160.83211828050634 A 152,152 0 0,1 368.079362621291,189.34627105354849" />
    <path d="M 371,219 A 152,152 0 0,1 368.079362621291,248.65372894645148" />
    <path d="M 364.45493103129576,263.12327094267823 A 152,152 0 0,1 359.4296889417156,277.16788171949361" />
    <path d="M 336.49758891113606,315.42777919287408 A 152,152 0 0,1 326.48023074035524,326.48023074035518" />
    <path d="M 303.44667541897951,345.38338106998685 A 152,152 0 0,1 277.16788171949366,359.42968894171554" />
    <path d="M 248.65372894645154,368.079362621291 A 152,152 0 0,1 219.00000000000003,371" />
    <path d="M 204.1013946699068,370.26807845417392 A 152,152 0 0,1 189.34627105354849,368.079362621291" />
    <path d="M 160.83211828050636,359.4296889417156 A 152,152 0 0,1 92.616618930013118,303.44667541897951" />
    <path d="M 78.57031105828446,277.16788171949372 A 152,152 0 0,1 69.920637378708989,248.65372894645157" />
    <path d="M 67.731921545826083,233.89860533009318 A 152,152 0 0,1 67.731921545826054,204.10139466990688" />
    <path d="M 69.92063737870896,189.34627105354849 A 152,152 0 0,1 84.947967819050035,147.34769600244837" />
    <path d="M 92.61661893001309,134.55332458102052 A 152,152 0 0,1 122.57222080712582,101.50241108886404" />
    <path d="M 147.34769600244832,84.947967819050064 A 152,152 0 0,1 160.83211828050625,78.57031105828446" />
    <path d="M 174.87672905732171,73.545068968704271 A 152,152 0 0,1 189.34627105354844,69.920637378708989" />
    <path d="M 283.29081663733507,63.788238538103826 A 168,168 0 0,1 312.33579914729319,79.3131051331724" />
    <path d="M 337.79393923934,100.20606076066001 A 168,168 0 0,1 348.8657561649398,112.42192826050756" />
    <path d="M 367.16277241052364,139.80534821323238 A 168,168 0 0,1 374.21176146189617,154.70918336266493" />
    <path d="M 379.76597640301111,170.23217422125032 A 168,168 0 0,1 386.19103408092906,235.46687957536619" />
    <path d="M 374.21176146189617,283.29081663733507 A 168,168 0 0,1 348.86575616493985,325.57807173949243" />
    <path d="M 337.79393923934,337.79393923934 A 168,168 0 0,1 298.19465178676762,367.16277241052364" />
    <path d="M 267.76782577874968,379.76597640301111 A 168,168 0 0,1 202.53312042463381,386.19103408092906" />
    <path d="M 186.22482590129044,383.77192710774273 A 168,168 0 0,1 139.80534821323241,367.16277241052364" />
    <path d="M 89.134243835060232,325.57807173949249 A 168,168 0 0,1 63.788238538103855,283.29081663733518" />
    <path d="M 51.808965919070914,235.46687957536616 A 168,168 0 0,1 51,219.00000000000003" />
    <path d="M 51.808965919070914,202.53312042463392 A 168,168 0 0,1 54.228072892257273,186.22482590129044" />
    <path d="M 58.234023596988891,170.23217422125038 A 168,168 0 0,1 63.788238538103855,154.70918336266487" />
    <path d="M 70.837227589476356,139.80534821323241 A 168,168 0 0,1 79.313105133172371,125.66420085270688" />
    <path d="M 112.42192826050749,89.134243835060261 A 168,168 0 0,1 139.80534821323235,70.837227589476385" />
    <path d="M 154.70918336266482,63.788238538103855 A 168,168 0 0,1 202.53312042463384,51.808965919070914" />
    <path d="M 183.10338074903231,38.535508405805615 A 184,184 0 0,1 219,35" />
    <path d="M 237.03515382063915,35.886010292315774 A 184,184 0 0,1 349.10764773832477,88.892352261675256" />
    <path d="M 361.23392341874359,102.27163571388923 A 184,184 0 0,1 395.0770217747264,165.58761938517893" />
    <path d="M 402.11398970768425,200.96484617936082 A 184,184 0 0,1 403,219" />
    <path d="M 402.11398970768425,237.03515382063915 A 184,184 0 0,1 399.46449159419444,254.8966192509676" />
    <path d="M 388.99383398207681,289.41375155517653 A 184,184 0 0,1 371.99040866366835,321.22492287560675" />
    <path d="M 361.23392341874364,335.72836428611072 A 184,184 0 0,1 349.10764773832477,349.10764773832477" />
    <path d="M 321.22492287560681,371.99040866366835 A 184,184 0 0,1 272.41238061482107,395.0770217747264" />
    <path d="M 200.96484617936085,402.11398970768425 A 184,184 0 0,1 165.58761938517898,395.0770217747264" />
    <path d="M 132.26300042401644,381.27351264009735 A 184,184 0 0,1 102.27163571388927,361.23392341874364" />
    <path d="M 88.892352261675285,349.10764773832477 A 184,184 0 0,1 66.009591336331681,321.22492287560681" />
    <path d="M 49.006166017923277,289.41375155517665 A 184,184 0 0,1 42.922978225273567,272.41238061482107" />
    <path d="M 38.535508405805615,254.89661925096766 A 184,184 0 0,1 35.886010292315774,200.96484617936093" />
    <path d="M 38.535508405805587,183.1033807490324 A 184,184 0 0,1 42.922978225273539,165.58761938517898" />
    <path d="M 49.006166017923249,148.58624844482344 A 184,184 0 0,1 76.766076581256414,102.27163571388921" />
    <path d="M 88.892352261675228,88.892352261675285 A 184,184 0 0,1 102.27163571388915,76.76607658125647" />
    <path d="M 116.77507712439319,66.009591336331681 A 184,184 0 0,1 165.5876193851789,42.922978225273567" />
    <path d="M 219,19 A 200,200 0 0,1 258.01806440322565,22.8429439193539" />
    <path d="M 313.27934736519956,42.615747130329 A 200,200 0 0,1 345.87865683272912,64.3979093274526" />
    <path d="M 395.384252869671,124.72065263480044 A 200,200 0 0,1 419,219" />
    <path d="M 415.1570560806461,258.01806440322565 A 200,200 0 0,1 395.384252869671,313.27934736519956" />
    <path d="M 385.29392246050907,330.11404660392043 A 200,200 0 0,1 345.87865683272912,373.60209067254743" />
    <path d="M 330.11404660392043,385.29392246050907 A 200,200 0 0,1 313.27934736519956,395.38425286967095" />
    <path d="M 295.536686473018,403.77590650225738 A 200,200 0 0,1 238.60342806591217,418.03694533443934" />
    <path d="M 179.98193559677432,415.1570560806461 A 200,200 0 0,1 124.72065263480047,395.384252869671" />
    <path d="M 42.615747130329027,313.27934736519956 A 200,200 0 0,1 34.2240934977427,295.53668647301805" />
    <path d="M 19,219.00000000000003 A 200,200 0 0,1 22.8429439193539,179.98193559677435" />
    <path d="M 34.224093497742672,142.463313526982 A 200,200 0 0,1 52.706077539490906,107.88595339607963" />
    <path d="M 124.72065263480042,42.615747130329027 A 200,200 0 0,1 160.9430645491075,27.611932853558244" />
    <path d="M 240.1717023111851,4.0400990388054652 A 216,216 0 1,1 219,3" />
  </g>
  <g fill="none" stroke="#000000" stroke-width="2" stroke-linecap="butt">
    <line x1="219" y1="19" x2="219" y2="67" />
    <line x1="219" y1="99" x2="219" y2="115" />
    <line x1="219" y1="131" x2="219" y2="163" />
    <line x1="237.03515382063915" y1="35.886010292315774" x2="233.8986053300932" y2="67.731921545826054" />
    <line x1="254.8966192509676" y1="38.535508405805615" x2="251.77517409870956" y2="54.228072892257273" />
    <line x1="242.41083864193539" y1="101.30576635161235" x2="239.28939348967734" y2="116.99833083806404" />
    <line x1="236.16794833741929" y1="132.69089532451574" x2="233.04650318516124" y2="148.3834598109674" />
    <line x1="277.05693545089247" y1="27.611932853558244" x2="272.41238061482107" y2="42.922978225273567" />
    <line x1="267.76782577874968" y1="58.234023596988919" x2="263.12327094267829" y2="73.545068968704271" />
    <line x1="301.6596213908594" y1="19.442020977562066" x2="289.41375155517653" y2="49.006166017923249" />
    <line x1="271.0449468016522" y1="93.352383578465009" x2="264.9220118838108" y2="108.13445609864559" />
    <line x1="246.55320713028647" y1="152.48067365918735" x2="234.3073372946036" y2="182.04481869954853" />
    <line x1="290.65230399755166" y1="84.947967819050035" x2="283.10995620833569" y2="99.058708048623714" />
    <line x1="312.33579914729319" y1="79.3131051331724" x2="303.44667541897957" y2="92.616618930013118" />
    <line x1="267.89018050572497" y1="145.83067411737602" x2="259.00105677741135" y2="159.13418791421674" />
    <line x1="345.87865683272912" y1="64.3979093274526" x2="305.2774866462558" y2="113.87057834266777" />
    <line x1="360.42135623730951" y1="77.57864376269049" x2="349.10764773832477" y2="88.892352261675256" />
    <line x1="315.16652224137044" y1="122.83347775862953" x2="303.85281374238571" y2="134.14718625761429" />
    <line x1="292.53910524340097" y1="145.46089475659903" x2="281.22539674441617" y2="156.77460325558383" />
    <line x1="385.97025792635122" y1="81.971050620652562" x2="361.23392341874364" y2="102.27163571388923" />
    <line x1="348.86575616493985" y1="112.42192826050756" x2="324.12942165733222" y2="132.72251335374421" />
    <line x1="398.59743625734978" y1="98.996829667765908" x2="385.29392246050907" y2="107.88595339607954" />
    <line x1="371.99040866366829" y1="116.77507712439318" x2="345.38338106998685" y2="134.55332458102043" />
    <line x1="332.07986727314614" y1="143.44244830933408" x2="318.77635347630542" y2="152.33157203764773" />
    <line x1="292.169325882624" y1="170.109819494275" x2="278.86581208578326" y2="178.99894322258865" />
    <line x1="395.384252869671" y1="124.72065263480044" x2="381.27351264009729" y2="132.26300042401641" />
    <line x1="367.16277241052364" y1="139.80534821323238" x2="353.05203218094994" y2="147.34769600244835" />
    <line x1="374.21176146189617" y1="154.7091833626649" x2="344.64761642153496" y2="166.9550531983478" />
    <line x1="329.86554390135439" y1="173.0779881161892" x2="315.08347138117381" y2="179.20092303403067" />
    <line x1="270.73725382063208" y1="197.56972778755497" x2="255.95518130045147" y2="203.6926627053964" />
    <line x1="399.46449159419438" y1="183.1033807490324" x2="289.61654018903261" y2="204.95349681483876" />
    <line x1="370.26807845417392" y1="204.10139466990677" x2="354.34512282741878" y2="205.66966891517973" />
    <line x1="419" y1="219" x2="403" y2="219" />
    <line x1="307" y1="219" x2="259" y2="219" />
    <line x1="433.95990096119453" y1="240.1717023111851" x2="418.03694533443939" y2="238.60342806591214" />
    <line x1="402.11398970768425" y1="237.03515382063915" x2="354.34512282741878" y2="232.33033108482024" />
    <line x1="415.1570560806461" y1="258.01806440322565" x2="383.77192710774273" y2="251.77517409870953" />
    <line x1="336.69423364838764" y1="242.41083864193539" x2="305.30910467548426" y2="236.16794833741929" />
    <line x1="395.0770217747264" y1="272.412380614821" x2="349.14388565958041" y2="258.47871610660684" />
    <line x1="403.77590650225738" y1="295.53668647301794" x2="388.99383398207675" y2="289.41375155517653" />
    <line x1="374.21176146189617" y1="283.29081663733507" x2="285.51932634081265" y2="246.55320713028647" />
    <line x1="409.49499309924465" y1="320.82169515441552" x2="395.384252869671" y2="313.27934736519956" />
    <line x1="367.16277241052364" y1="298.19465178676762" x2="353.05203218094994" y2="290.65230399755166" />
    <line x1="385.29392246050907" y1="330.11404660392037" x2="371.9904086636684" y2="321.22492287560675" />
    <line x1="345.38338106998691" y1="303.44667541897951" x2="332.07986727314619" y2="294.55755169066583" />
    <line x1="318.77635347630547" y1="285.66842796235221" x2="305.47283967946476" y2="276.77930423403859" />
    <line x1="361.23392341874364" y1="335.72836428611072" x2="348.86575616493985" y2="325.57807173949243" />
    <line x1="326.48023074035524" y1="326.48023074035518" x2="315.16652224137044" y2="315.16652224137044" />
    <line x1="303.85281374238571" y1="303.85281374238571" x2="235.97056274847714" y2="235.97056274847714" />
    <line x1="345.87865683272912" y1="373.60209067254743" x2="305.2774866462558" y2="324.12942165733222" />
    <line x1="339.00317033223405" y1="398.59743625734978" x2="330.11404660392043" y2="385.29392246050907" />
    <line x1="290.65230399755166" y1="353.05203218094994" x2="283.10995620833569" y2="338.94129195137629" />
    <line x1="289.41375155517653" y1="388.99383398207675" x2="277.16788171949366" y2="359.4296889417156" />
    <line x1="264.9220118838108" y1="329.86554390135439" x2="246.55320713028647" y2="285.51932634081265" />
    <line x1="240.43027221244503" y1="270.73725382063208" x2="234.3073372946036" y2="255.95518130045147" />
    <line x1="267.76782577874968" y1="379.76597640301111" x2="258.4787161066069" y2="349.14388565958041" />
    <line x1="258.01806440322571" y1="415.1570560806461" x2="251.77517409870961" y2="383.77192710774273" />
    <line x1="248.65372894645154" y1="368.079362621291" x2="245.53228379419349" y2="352.38679813483935" />
    <line x1="239.28939348967737" y1="321.001669161936" x2="233.04650318516127" y2="289.61654018903261" />
    <line x1="238.60342806591217" y1="418.03694533443934" x2="237.03515382063918" y2="402.11398970768425" />
    <line x1="219.00000000000003" y1="419" x2="219.00000000000003" y2="387" />
    <line x1="219.00000000000003" y1="355" x2="219" y2="323" />
    <line x1="219" y1="291" x2="219" y2="275" />
    <line x1="197.82829768881493" y1="433.95990096119453" x2="199.39657193408789" y2="418.03694533443939" />
    <line x1="200.96484617936085" y1="402.11398970768425" x2="204.1013946699068" y2="370.268078454174" />
    <line x1="189.34627105354849" y1="368.079362621291" x2="192.46771620580654" y2="352.38679813483935" />
    <line x1="195.58916135806459" y1="336.69423364838764" x2="201.83205166258071" y2="305.30910467548426" />
    <line x1="160.94306454910759" y1="410.38806714644181" x2="165.58761938517898" y2="395.0770217747264" />
    <line x1="174.87672905732177" y1="364.45493103129576" x2="179.52128389339316" y2="349.14388565958041" />
    <line x1="148.5862484448235" y1="388.99383398207681" x2="160.83211828050636" y2="359.4296889417156" />
    <line x1="166.9550531983478" y1="344.647616421535" x2="173.07798811618923" y2="329.86554390135444" />
    <line x1="185.3238579518721" y1="300.30139886099323" x2="197.56972778755497" y2="270.73725382063208" />
    <line x1="124.72065263480047" y1="395.384252869671" x2="132.26300042401644" y2="381.27351264009735" />
    <line x1="147.34769600244835" y1="353.05203218094994" x2="154.89004379166431" y2="338.94129195137629" />
    <line x1="98.996829667765979" y1="398.59743625734984" x2="125.66420085270687" y2="358.68689486682763" />
    <line x1="143.44244830933414" y1="332.07986727314619" x2="161.22069576596141" y2="305.47283967946476" />
    <line x1="81.971050620652619" y1="385.97025792635122" x2="92.12134316727095" y2="373.60209067254743" />
    <line x1="102.27163571388927" y1="361.23392341874364" x2="112.4219282605076" y2="348.86575616493985" />
    <line x1="77.578643762690518" y1="360.42135623730951" x2="100.20606076066002" y2="337.79393923934003" />
    <line x1="122.83347775862954" y1="315.1665222413705" x2="156.77460325558383" y2="281.22539674441617" />
    <line x1="190.7157287525381" y1="247.2842712474619" x2="202.02943725152286" y2="235.97056274847714" />
    <line x1="52.02974207364889" y1="356.02894937934752" x2="64.39790932745268" y2="345.87865683272918" />
    <line x1="76.766076581256442" y1="335.72836428611083" x2="89.134243835060232" y2="325.57807173949254" />
    <line x1="52.706077539490963" y1="330.11404660392043" x2="66.009591336331681" y2="321.22492287560681" />
    <line x1="92.616618930013118" y1="303.44667541897957" x2="105.92013272685385" y2="294.55755169066589" />
    <line x1="119.22364652369457" y1="285.66842796235227" x2="132.5271603205353" y2="276.77930423403865" />
    <line x1="28.505006900755347" y1="320.82169515441552" x2="56.726487359902706" y2="305.73699957598359" />
    <line x1="84.947967819050064" y1="290.65230399755166" x2="99.058708048623728" y2="283.10995620833569" />
    <line x1="49.006166017923277" y1="289.41375155517665" x2="63.788238538103855" y2="283.29081663733518" />
    <line x1="78.57031105828446" y1="277.16788171949372" x2="93.352383578465037" y2="271.04494680165226" />
    <line x1="122.91652861882621" y1="258.79907696596939" x2="137.69860113900677" y2="252.67614204812796" />
    <line x1="152.48067365918737" y1="246.5532071302865" x2="182.04481869954856" y2="234.3073372946036" />
    <line x1="12.300887481842892" y1="281.70149028696392" x2="58.234023596988919" y2="267.76782577874968" />
    <line x1="22.842943919353928" y1="258.01806440322571" x2="85.613201865160676" y2="245.53228379419349" />
    <line x1="4.0400990388054652" y1="240.17170231118507" x2="19.963054665560605" y2="238.60342806591208" />
    <line x1="51.808965919070914" y1="235.46687957536616" x2="67.731921545826054" y2="233.89860533009318" />
    <line x1="35" y1="219.00000000000003" x2="51" y2="219.00000000000003" />
    <line x1="67" y1="219.00000000000003" x2="115" y2="219.00000000000003" />
    <line x1="131" y1="219.00000000000003" x2="163" y2="219" />
    <line x1="179" y1="219" x2="195" y2="219" />
    <line x1="19.963054665560605" y1="199.39657193408797" x2="35.886010292315774" y2="200.96484617936093" />
    <line x1="51.808965919070914" y1="202.53312042463389" x2="67.731921545826054" y2="204.10139466990688" />
    <line x1="38.535508405805615" y1="183.1033807490324" x2="101.30576635161235" y2="195.58916135806462" />
    <line x1="116.99833083806404" y1="198.71060651032266" x2="132.69089532451574" y2="201.83205166258071" />
    <line x1="27.611932853558216" y1="160.94306454910759" x2="42.922978225273567" y2="165.58761938517898" />
    <line x1="34.224093497742672" y1="142.463313526982" x2="63.788238538103855" y2="154.70918336266487" />
    <line x1="108.1344560986456" y1="173.0779881161892" x2="122.91652861882619" y2="179.20092303403064" />
    <line x1="167.26274617936795" y1="197.56972778755497" x2="182.04481869954853" y2="203.6926627053964" />
    <line x1="70.837227589476356" y1="139.80534821323241" x2="99.058708048623714" y2="154.89004379166431" />
    <line x1="39.402563742650187" y1="98.996829667766008" x2="52.706077539490906" y2="107.88595339607963" />
    <line x1="92.61661893001309" y1="134.55332458102052" x2="119.22364652369454" y2="152.33157203764779" />
    <line x1="132.52716032053527" y1="161.22069576596141" x2="145.83067411737602" y2="170.10981949427503" />
    <line x1="64.397909327452624" y1="92.121343167270879" x2="76.766076581256414" y2="102.27163571388921" />
    <line x1="89.1342438350602" y1="112.42192826050754" x2="101.502411088864" y2="122.57222080712587" />
    <line x1="66.2649352637057" y1="66.26493526370578" x2="100.20606076066" y2="100.20606076066005" />
    <line x1="134.14718625761429" y1="134.14718625761432" x2="168.08831175456857" y2="168.08831175456859" />
    <line x1="190.7157287525381" y1="190.7157287525381" x2="202.02943725152286" y2="202.02943725152286" />
    <line x1="92.121343167270808" y1="64.39790932745268" x2="102.27163571388915" y2="76.766076581256442" />
    <line x1="112.42192826050749" y1="89.134243835060232" x2="132.72251335374415" y2="113.87057834266781" />
    <line x1="107.88595339607957" y1="52.706077539490963" x2="116.77507712439319" y2="66.009591336331681" />
    <line x1="125.66420085270684" y1="79.3131051331724" x2="134.55332458102046" y2="92.616618930013118" />
    <line x1="143.44244830933411" y1="105.92013272685385" x2="152.33157203764773" y2="119.22364652369457" />
    <line x1="161.22069576596138" y1="132.5271603205353" x2="170.109819494275" y2="145.83067411737602" />
    <line x1="132.26300042401638" y1="56.726487359902706" x2="139.80534821323235" y2="70.837227589476385" />
    <line x1="154.70918336266482" y1="63.788238538103855" x2="166.95505319834771" y2="93.352383578465037" />
    <line x1="160.9430645491075" y1="27.611932853558244" x2="165.5876193851789" y2="42.922978225273567" />
    <line x1="179.98193559677426" y1="22.842943919353928" x2="186.22482590129039" y2="54.2280728922573" />
    <line x1="189.34627105354844" y1="69.920637378708989" x2="195.58916135806456" y2="101.30576635161236" />
    <line x1="198.71060651032261" y1="116.99833083806405" x2="201.83205166258068" y2="132.69089532451574" />
    <line x1="197.82829768881493" y1="4.0400990388054652" x2="199.39657193408789" y2="19.963054665560605" />
  </g>
  <path fill="none" stroke="#ff0000" stroke-width="2" stroke-linecap="square" stroke-linejoin="round" d="M 229.59861765472229,3.2601814596827694 L 229.20607626010295,11.25054510932415 A 208,208 0 0,0 208.79392373989703,11.25054510932415 L 209.57900652913574,27.231272408606912 A 192,192 0 0,0 190.82774890457043,29.078110086762081 L 188.48006131328464,13.251285927325569 A 208,208 0 0,0 95.094544665573892,51.932833452025847 L 114.15692240933176,77.635474459406481 A 176,176 0 0,0 100.80562394692471,88.592601937527235 L 111.550567224477,100.44781994320658 A 160,160 0 0,0 100.44781994320654,111.55056722447706 L 88.5926019375272,100.80562394692477 A 176,176 0 0,0 59.897884410273974,143.75030355627035 L 74.361713100249062,150.59118505115487 A 160,160 0 0,0 63.794999488872946,180.12317121547778 L 48.274499437760255,176.23548833702557 A 176,176 0 0,1 53.288244527788322,159.70738580296936 L 23.158834441931646,148.92691049441834 A 208,208 0 0,0 11.25054510932415,229.20607626010295 L 27.231272408606912,228.42099347086426 A 192,192 0 0,0 29.078110086762081,247.17225109542957 L 13.251285927325569,249.51993868671536 A 208,208 0 0,0 17.233499335534873,269.53987741987896 L 63.794999488872975,257.87682878452227 A 160,160 0 0,0 136.74356092908454,356.23657760004357 L 128.51791702199301,369.96023536004793 A 176,176 0 0,0 143.75030355627041,378.10211558972605 L 136.9094220613859,392.56594427970117 A 192,192 0 0,0 154.31714814869375,399.77646051514 L 159.70738580296927,384.71175547221162 A 176,176 0 0,0 193.17543649585636,393.09506575380146 L 195.52312408714215,377.26824159436495 A 160,160 0 0,1 180.12317121547778,374.20500051112708 L 187.89853697238223,343.16400040890164 A 128,128 0 0,0 206.45380603781624,346.38364501404124 L 209.59035452836218,314.5377337605309 A 96,96 0 0,0 228.40964547163785,314.5377337605309 L 229.9779197169108,330.46068938728604 A 112,112 0 0,0 251.51188385249978,326.17731760200741 L 237.5782193442856,280.24418148686135 A 64,64 0 0,0 254.55649491325454,272.21405518736287 L 236.77824745662727,245.60702759368144 A 32,32 0 0,1 206.75413016431713,248.56414504036118 L 209.81559762323786,241.17310878027089" />
  <type>Circular</type>
</svg>