<?xml version="1.0" encoding="utf-8" standalone="no"?>
<!DOCTYPE svg PUBLIC "-//W3C//DTD SVG 1.1//EN" "http://www.w3.org/Graphics/SVG/1.1/DTD/svg11.dtd"[]>
<svg width="436" height="436" version="1.1" xmlns="http://www.w3.org/2000/svg">
  <title>27 cells diameter theta maze</title>
  <g fill="none" stroke="#000000" stroke-width="2" stroke-linecap="square">
    <path d="M 202.02943725152286,235.97056274847714 A 24,24 0 1,1 219,243" />
    <path d="M 203.69266270539637,182.04481869954856 A 40,40 0 0,1 234.3073372946036,182.04481869954853" />
    <path d="M 255.95518130045147,203.6926627053964 A 40,40 0 0,1 255.95518130045147,234.3073372946036" />
    <path d="M 247.2842712474619,247.2842712474619 A 40,40 0 0,1 182.04481869954853,234.3073372946036" />
    <path d="M 167.26274617936795,197.56972778755497 A 56,56 0 0,1 219,163" />
    <path d="M 258.59797974644664,179.40202025355333 A 56,56 0 0,1 270.73725382063208,197.56972778755497" />
    <path d="M 240.43027221244503,270.73725382063208 A 56,56 0 0,1 179.40202025355336,258.59797974644664" />
    <path d="M 204.95349681483873,148.3834598109674 A 72,72 0 0,1 219,147" />
    <path d="M 233.04650318516124,148.3834598109674 A 72,72 0 0,1 259.00105677741135,159.13418791421674" />
    <path d="M 269.91168824543144,168.08831175456857 A 72,72 0 0,1 285.51932634081265,246.55320713028647" />
    <path d="M 278.86581208578326,259.00105677741135 A 72,72 0 0,1 246.55320713028647,285.51932634081265" />
    <path d="M 204.95349681483876,289.61654018903261 A 72,72 0 0,1 159.13418791421674,259.00105677741135" />
    <path d="M 152.48067365918737,246.5532071302865 A 72,72 0 0,1 148.3834598109674,233.04650318516127" />
    <path d="M 147,219 A 72,72 0 0,1 152.48067365918735,191.44679286971353" />
    <path d="M 178.99894322258865,159.13418791421674 A 72,72 0 0,1 191.44679286971348,152.48067365918737" />
    <path d="M 219,131 A 88,88 0 0,1 252.6761420481279,137.69860113900677" />
    <path d="M 267.89018050572497,145.83067411737602 A 88,88 0 0,1 300.30139886099323,185.3238579518721" />
    <path d="M 305.30910467548426,201.83205166258071 A 88,88 0 0,1 307,219" />
    <path d="M 305.30910467548426,236.16794833741929 A 88,88 0 0,1 281.22539674441617,281.22539674441617" />
    <path d="M 252.6761420481279,300.30139886099323 A 88,88 0 0,1 236.16794833741932,305.30910467548426" />
    <path d="M 201.83205166258071,305.30910467548426 A 88,88 0 0,1 170.10981949427503,292.169325882624" />
    <path d="M 156.77460325558383,281.22539674441617 A 88,88 0 0,1 137.69860113900677,252.67614204812796" />
    <path d="M 132.69089532451574,201.83205166258071 A 88,88 0 0,1 137.69860113900677,185.32385795187207" />
    <path d="M 156.7746032555838,156.77460325558383 A 88,88 0 0,1 170.109819494275,145.83067411737602" />
    <path d="M 185.32385795187204,137.69860113900677 A 88,88 0 0,1 201.83205166258068,132.69089532451574" />
    <path d="M 198.71060651032261,116.99833083806405 A 104,104 0 0,1 219,115" />
    <path d="M 258.79907696596933,122.91652861882618 A 104,104 0 0,1 321.001669161936,198.71060651032266" />
    <path d="M 305.47283967946476,276.77930423403859 A 104,104 0 0,1 276.77930423403859,305.4728396794647" />
    <path d="M 198.71060651032266,321.001669161936 A 104,104 0 0,1 179.20092303403067,315.08347138117381" />
    <path d="M 161.22069576596141,305.47283967946476 A 104,104 0 0,1 122.91652861882621,258.79907696596939" />
    <path d="M 116.99833083806404,239.28939348967737 A 104,104 0 0,1 116.99833083806404,198.71060651032266" />
    <path d="M 161.22069576596135,132.5271603205353 A 104,104 0 0,1 179.20092303403061,122.91652861882621" />
    <path d="M 119.22364652369454,152.33157203764779 A 120,120 0 0,1 219,99" />
    <path d="M 242.41083864193539,101.30576635161235 A 120,120 0 0,1 264.9220118838108,108.13445609864559" />
    <path d="M 285.66842796235227,119.22364652369457 A 120,120 0 0,1 329.86554390135439,173.07798811618923" />
    <path d="M 336.69423364838764,242.41083864193539 A 120,120 0 0,1 219.00000000000003,339" />
    <path d="M 119.22364652369457,285.66842796235227 A 120,120 0 0,1 101.30576635161235,242.41083864193544" />
    <path d="M 99,219.00000000000003 A 120,120 0 0,1 108.1344560986456,173.0779881161892" />
    <path d="M 205.66966891517978,83.654877172581223 A 136,136 0 0,1 219,83" />
    <path d="M 232.33033108482024,83.654877172581223 A 136,136 0 0,1 245.53228379419343,85.613201865160647" />
    <path d="M 258.4787161066069,88.8561143404196 A 136,136 0 0,1 294.55755169066589,105.92013272685385" />
    <path d="M 305.2774866462558,113.87057834266777 A 136,136 0 0,1 315.16652224137044,122.83347775862953" />
    <path d="M 324.12942165733222,132.72251335374421 A 136,136 0 0,1 338.94129195137629,154.89004379166431" />
    <path d="M 344.64761642153496,166.9550531983478 A 136,136 0 0,1 352.38679813483935,192.46771620580654" />
    <path d="M 354.34512282741878,205.66966891517973 A 136,136 0 0,1 355,219" />
    <path d="M 354.34512282741878,232.33033108482024 A 136,136 0 0,1 315.16652224137044,315.16652224137044" />
    <path d="M 305.2774866462558,324.12942165733222 A 136,136 0 0,1 283.10995620833569,338.94129195137629" />
    <path d="M 258.4787161066069,349.14388565958041 A 136,136 0 0,1 245.53228379419349,352.3867981348393" />
    <path d="M 232.33033108482027,354.34512282741878 A 136,136 0 0,1 154.89004379166431,338.94129195137629" />
    <path d="M 143.44244830933414,332.07986727314619 A 136,136 0 0,1 122.83347775862956,315.16652224137044" />
    <path d="M 113.87057834266781,305.27748664625585 A 136,136 0 0,1 105.92013272685384,294.55755169066589" />
    <path d="M 99.058708048623728,283.10995620833569 A 136,136 0 0,1 83.654877172581223,232.33033108482022" />
    <path d="M 83,219.00000000000003 A 136,136 0 0,1 83.654877172581223,205.66966891517984" />
    <path d="M 85.613201865160647,192.46771620580654 A 136,136 0 0,1 113.87057834266778,132.72251335374421" />
    <path d="M 132.72251335374415,113.87057834266783 A 136,136 0 0,1 143.44244830933411,105.92013272685385" />
    <path d="M 154.89004379166428,99.058708048623743 A 136,136 0 0,1 192.46771620580648,85.613201865160676" />
    <path d="M 219,67 A 152,152 0 0,1 233.8986053300932,67.731921545826083" />
    <path d="M 248.65372894645151,69.92063737870896 A 152,152 0 0,1 277.16788171949366,78.5703110582844" />
    <path d="M 315.42777919287414,101.50241108886398 A 152,152 0 0,1 345.38338106998685,134.55332458102046" />
    <path d="M 353.05203218094994,147.34769600244835 A 152,152 0 0,1 359.4296889417156,160.83211828050634" />
    <path d="M 364.45493103129576,174.87672905732174 A 152,152 0 0,1 370.26807845417392,204.10139466990677" />
    <path d="M 371,219 A 152,152 0 0,1 368.079362621291,248.65372894645148" />
    <path d="M 353.05203218094994,290.65230399755166 A 152,152 0 0,1 336.49758891113606,315.42777919287408" />
    <path d="M 326.48023074035524,326.48023074035518 A 152,152 0 0,1 315.42777919287414,336.497588911136" />
    <path d="M 303.44667541897951,345.38338106998685 A 152,152 0 0,1 277.16788171949366,359.42968894171554" />
    <path d="M 263.12327094267829,364.45493103129576 A 152,152 0 0,1 204.1013946699068,370.26807845417392" />
    <path d="M 189.34627105354849,368.079362621291 A 152,152 0 0,1 174.87672905732177,364.45493103129576" />
    <path d="M 160.83211828050636,359.4296889417156 A 152,152 0 0,1 134.55332458102049,345.38338106998691" />
    <path d="M 111.51976925964479,326.48023074035524 A 152,152 0 0,1 101.50241108886402,315.42777919287414" />
    <path d="M 92.616618930013118,303.44667541897951 A 152,152 0 0,1 73.545068968704243,263.12327094267829" />
    <path d="M 69.920637378708989,248.65372894645157 A 152,152 0 0,1 67.731921545826054,204.10139466990688" />
    <path d="M 69.92063737870896,189.34627105354849 A 152,152 0 0,1 84.947967819050035,147.34769600244837" />
    <path d="M 122.57222080712582,101.50241108886404 A 152,152 0 0,1 160.83211828050625,78.57031105828446" />
    <path d="M 189.34627105354844,69.920637378708989 A 152,152 0 0,1 204.1013946699068,67.731921545826083" />
    <path d="M 202.53312042463384,51.808965919070914 A 168,168 0 0,1 219,51" />
    <path d="M 235.46687957536619,51.808965919070914 A 168,168 0 0,1 267.76782577874968,58.234023596988919" />
    <path d="M 298.19465178676762,70.837227589476356 A 168,168 0 0,1 312.33579914729319,79.3131051331724" />
    <path d="M 337.79393923934,100.20606076066001 A 168,168 0 0,1 348.8657561649398,112.42192826050756" />
    <path d="M 358.68689486682763,125.66420085270683 A 168,168 0 0,1 367.16277241052364,139.80534821323238" />
    <path d="M 374.21176146189617,154.70918336266493 A 168,168 0 0,1 383.77192710774273,186.22482590129044" />
    <path d="M 386.19103408092906,202.53312042463378 A 168,168 0 0,1 386.19103408092906,235.46687957536619" />
    <path d="M 358.68689486682763,312.33579914729313 A 168,168 0 0,1 337.79393923934,337.79393923934" />
    <path d="M 312.33579914729319,358.68689486682763 A 168,168 0 0,1 298.19465178676762,367.16277241052364" />
    <path d="M 251.77517409870961,383.77192710774273 A 168,168 0 0,1 219.00000000000003,387" />
    <path d="M 202.53312042463381,386.19103408092906 A 168,168 0 0,1 186.22482590129044,383.77192710774273" />
    <path d="M 139.80534821323241,367.16277241052364 A 168,168 0 0,1 79.3131051331724,312.33579914729319" />
    <path d="M 58.234023596988919,267.76782577874968 A 168,168 0 0,1 54.2280728922573,251.77517409870961" />
    <path d="M 51.808965919070914,235.46687957536616 A 168,168 0 0,1 51,219.00000000000003" />
    <path d="M 51.808965919070914,202.53312042463392 A 168,168 0 0,1 58.234023596988891,170.23217422125038" />
    <path d="M 63.788238538103855,154.70918336266487 A 168,168 0 0,1 79.313105133172371,125.66420085270688" />
    <path d="M 100.20606076066,100.20606076066004 A 168,168 0 0,1 125.66420085270683,79.3131051331724" />
    <path d="M 139.80534821323235,70.837227589476385 A 168,168 0 0,1 186.22482590129039,54.2280728922573" />
    <path d="M 219,35 A 184,184 0 0,1 237.03515382063915,35.886010292315774" />
    <path d="M 272.41238061482107,42.922978225273567 A 184,184 0 0,1 289.41375155517653,49.006166017923249" />
    <path d="M 321.22492287560681,66.009591336331681 A 184,184 0 0,1 349.10764773832477,88.892352261675256" />
    <path d="M 388.99383398207675,148.58624844482347 A 184,184 0 0,1 402.11398970768425,200.96484617936082" />
    <path d="M 402.11398970768425,237.03515382063915 A 184,184 0 0,1 388.99383398207681,289.41375155517653" />
    <path d="M 381.27351264009735,305.73699957598359 A 184,184 0 0,1 371.99040866366835,321.22492287560675" />
    <path d="M 349.10764773832477,349.10764773832477 A 184,184 0 0,1 321.22492287560681,371.99040866366835" />
    <path d="M 305.73699957598359,381.27351264009729 A 184,184 0 0,1 272.41238061482107,395.0770217747264" />
    <path d="M 237.03515382063918,402.11398970768425 A 184,184 0 0,1 165.58761938517898,395.0770217747264" />
    <path d="M 116.77507712439325,371.99040866366835 A 184,184 0 0,1 76.76607658125647,335.72836428611083" />
    <path d="M 49.006166017923277,289.41375155517665 A 184,184 0 0,1 42.922978225273567,272.41238061482107" />
    <path d="M 38.535508405805615,254.89661925096766 A 184,184 0 0,1 35.886010292315774,237.03515382063912" />
    <path d="M 35,219.00000000000003 A 184,184 0 0,1 35.886010292315774,200.96484617936093" />
    <path d="M 49.006166017923249,148.58624844482344 A 184,184 0 0,1 88.892352261675228,88.892352261675285" />
    <path d="M 165.5876193851789,42.922978225273567 A 184,184 0 0,1 200.96484617936088,35.886010292315774" />
    <path d="M 219,19 A 200,200 0 0,1 345.87865683272912,64.3979093274526" />
    <path d="M 373.60209067254738,92.1213431672709 A 200,200 0 0,1 410.38806714644181,160.94306454910753" />
    <path d="M 418.03694533443934,199.39657193408783 A 200,200 0 0,1 419,219" />
    <path d="M 415.1570560806461,258.01806440322565 A 200,200 0 0,1 410.38806714644181,277.05693545089241" />
    <path d="M 385.29392246050907,330.11404660392043 A 200,200 0 0,1 373.60209067254743,345.87865683272906" />
    <path d="M 330.11404660392043,385.29392246050907 A 200,200 0 0,1 258.01806440322571,415.15705608064604" />
    <path d="M 160.94306454910759,410.38806714644181 A 200,200 0 0,1 142.46331352698206,403.77590650225738" />
    <path d="M 52.706077539490934,330.11404660392043 A 200,200 0 0,1 34.2240934977427,295.53668647301805" />
    <path d="M 27.611932853558244,277.05693545089247 A 200,200 0 0,1 42.615747130329,124.72065263480049" />
    <path d="M 52.706077539490906,107.88595339607963 A 200,200 0 0,1 64.397909327452624,92.121343167270879" />
    <path d="M 77.578643762690461,77.578643762690518 A 200,200 0 0,1 92.121343167270808,64.39790932745268" />
    <path d="M 107.88595339607956,52.706077539490963 A 200,200 0 0,1 124.72065263480042,42.615747130329027" />
    <path d="M 142.46331352698192,34.2240934977427 A 200,200 0 0,1 179.98193559677426,22.842943919353928" />
    <path d="M 240.1717023111851,4.0400990388054652 A 216,216 0 1,1 219,3" />
  </g>
  <g fill="none" stroke="#000000" stroke-width="2" stroke-linecap="butt">
    <line x1="219" y1="35" x2="219" y2="67" />
    <line x1="219" y1="99" x2="219" y2="115" />
    <line x1="219" y1="131" x2="219" y2="163" />
    <line x1="219" y1="179" x2="219" y2="195" />
    <line x1="237.03515382063915" y1="35.886010292315774" x2="235.46687957536619" y2="51.808965919070914" />
    <line x1="233.8986053300932" y1="67.731921545826054" x2="232.33033108482024" y2="83.654877172581223" />
    <line x1="258.01806440322565" y1="22.8429439193539" x2="254.8966192509676" y2="38.535508405805615" />
    <line x1="245.53228379419343" y1="85.613201865160647" x2="236.16794833741929" y2="132.69089532451574" />
    <line x1="272.41238061482107" y1="42.922978225273567" x2="267.76782577874968" y2="58.234023596988919" />
    <line x1="263.12327094267829" y1="73.545068968704271" x2="258.4787161066069" y2="88.8561143404196" />
    <line x1="283.29081663733507" y1="63.788238538103826" x2="277.16788171949366" y2="78.5703110582844" />
    <line x1="258.79907696596933" y1="122.91652861882618" x2="252.6761420481279" y2="137.69860113900677" />
    <line x1="246.55320713028647" y1="152.48067365918735" x2="234.3073372946036" y2="182.04481869954853" />
    <line x1="313.27934736519956" y1="42.615747130329" x2="290.65230399755166" y2="84.947967819050035" />
    <line x1="339.00317033223405" y1="39.402563742650216" x2="330.11404660392043" y2="52.706077539490963" />
    <line x1="303.44667541897957" y1="92.616618930013118" x2="285.66842796235227" y2="119.22364652369457" />
    <line x1="276.77930423403865" y1="132.5271603205353" x2="259.00105677741135" y2="159.13418791421674" />
    <line x1="335.72836428611078" y1="76.766076581256385" x2="305.2774866462558" y2="113.87057834266777" />
    <line x1="371.73506473629425" y1="66.264935263705723" x2="349.10764773832477" y2="88.892352261675256" />
    <line x1="258.59797974644664" y1="179.40202025355333" x2="247.2842712474619" y2="190.7157287525381" />
    <line x1="385.97025792635122" y1="81.971050620652562" x2="348.86575616493985" y2="112.42192826050756" />
    <line x1="371.99040866366829" y1="116.77507712439318" x2="358.68689486682763" y2="125.66420085270681" />
    <line x1="345.38338106998685" y1="134.55332458102043" x2="332.07986727314614" y2="143.44244830933408" />
    <line x1="395.384252869671" y1="124.72065263480044" x2="353.05203218094994" y2="147.34769600244835" />
    <line x1="359.4296889417156" y1="160.83211828050634" x2="344.64761642153496" y2="166.9550531983478" />
    <line x1="329.86554390135439" y1="173.0779881161892" x2="315.08347138117381" y2="179.20092303403067" />
    <line x1="270.73725382063208" y1="197.56972778755497" x2="255.95518130045147" y2="203.6926627053964" />
    <line x1="379.76597640301111" y1="170.23217422125032" x2="364.45493103129576" y2="174.87672905732171" />
    <line x1="430.84962056709776" y1="176.86049044451627" x2="399.46449159419438" y2="183.1033807490324" />
    <line x1="352.38679813483935" y1="192.46771620580654" x2="336.69423364838764" y2="195.58916135806459" />
    <line x1="305.30910467548426" y1="201.83205166258071" x2="289.61654018903261" y2="204.95349681483876" />
    <line x1="433.95990096119453" y1="197.82829768881487" x2="418.03694533443934" y2="199.39657193408783" />
    <line x1="386.19103408092906" y1="202.53312042463378" x2="354.34512282741878" y2="205.66966891517973" />
    <line x1="419" y1="219" x2="387" y2="219" />
    <line x1="355" y1="219" x2="307" y2="219" />
    <line x1="291" y1="219" x2="275" y2="219" />
    <line x1="259" y1="219" x2="243" y2="219" />
    <line x1="433.95990096119453" y1="240.1717023111851" x2="418.03694533443939" y2="238.60342806591214" />
    <line x1="402.11398970768425" y1="237.03515382063915" x2="386.19103408092906" y2="235.46687957536619" />
    <line x1="370.268078454174" y1="233.89860533009323" x2="354.34512282741878" y2="232.33033108482024" />
    <line x1="415.1570560806461" y1="258.01806440322565" x2="399.46449159419438" y2="254.8966192509676" />
    <line x1="383.77192710774273" y1="251.77517409870953" x2="368.079362621291" y2="248.65372894645148" />
    <line x1="336.69423364838764" y1="242.41083864193539" x2="321.001669161936" y2="239.28939348967734" />
    <line x1="395.0770217747264" y1="272.412380614821" x2="364.45493103129576" y2="263.12327094267823" />
    <line x1="403.77590650225738" y1="295.53668647301794" x2="359.4296889417156" y2="277.16788171949361" />
    <line x1="329.86554390135439" y1="264.9220118838108" x2="315.08347138117381" y2="258.79907696596933" />
    <line x1="300.30139886099323" y1="252.6761420481279" x2="285.51932634081265" y2="246.55320713028647" />
    <line x1="270.73725382063208" y1="240.43027221244503" x2="255.95518130045147" y2="234.3073372946036" />
    <line x1="395.384252869671" y1="313.27934736519956" x2="338.94129195137629" y2="283.10995620833569" />
    <line x1="373.60209067254743" y1="345.87865683272906" x2="336.49758891113606" y2="315.42777919287408" />
    <line x1="360.42135623730951" y1="360.42135623730951" x2="349.10764773832477" y2="349.10764773832477" />
    <line x1="326.48023074035524" y1="326.48023074035518" x2="303.85281374238571" y2="303.85281374238571" />
    <line x1="258.59797974644664" y1="258.59797974644664" x2="247.2842712474619" y2="247.2842712474619" />
    <line x1="356.02894937934741" y1="385.97025792635122" x2="345.87865683272912" y2="373.60209067254743" />
    <line x1="335.72836428611078" y1="361.23392341874364" x2="315.42777919287414" y2="336.497588911136" />
    <line x1="330.11404660392043" y1="385.29392246050907" x2="321.22492287560681" y2="371.99040866366835" />
    <line x1="303.44667541897957" y1="345.38338106998691" x2="294.55755169066589" y2="332.07986727314619" />
    <line x1="276.77930423403865" y1="305.4728396794647" x2="259.00105677741135" y2="278.86581208578326" />
    <line x1="305.73699957598359" y1="381.27351264009729" x2="298.19465178676762" y2="367.16277241052364" />
    <line x1="289.41375155517653" y1="388.99383398207675" x2="271.0449468016522" y2="344.64761642153496" />
    <line x1="258.79907696596933" y1="315.08347138117381" x2="234.3073372946036" y2="255.95518130045147" />
    <line x1="272.41238061482107" y1="395.0770217747264" x2="263.12327094267829" y2="364.4549310312957" />
    <line x1="258.01806440322571" y1="415.1570560806461" x2="254.89661925096766" y2="399.46449159419438" />
    <line x1="245.53228379419349" y1="352.38679813483935" x2="239.28939348967737" y2="321.001669161936" />
    <line x1="236.16794833741932" y1="305.30910467548426" x2="233.04650318516127" y2="289.61654018903261" />
    <line x1="240.17170231118513" y1="433.95990096119453" x2="238.60342806591217" y2="418.03694533443934" />
    <line x1="237.03515382063918" y1="402.11398970768425" x2="235.46687957536622" y2="386.19103408092906" />
    <line x1="233.89860533009323" y1="370.26807845417392" x2="232.33033108482027" y2="354.34512282741878" />
    <line x1="219.00000000000003" y1="435" x2="219.00000000000003" y2="403" />
    <line x1="219.00000000000003" y1="355" x2="219.00000000000003" y2="339" />
    <line x1="219" y1="323" x2="219" y2="275" />
    <line x1="199.39657193408789" y1="418.03694533443939" x2="200.96484617936085" y2="402.11398970768425" />
    <line x1="202.53312042463381" y1="386.19103408092906" x2="204.1013946699068" y2="370.268078454174" />
    <line x1="176.86049044451627" y1="430.84962056709776" x2="179.98193559677432" y2="415.1570560806461" />
    <line x1="195.58916135806459" y1="336.69423364838764" x2="198.71060651032266" y2="321.001669161936" />
    <line x1="156.2985097130362" y1="425.69911251815711" x2="160.94306454910759" y2="410.38806714644181" />
    <line x1="165.58761938517898" y1="395.0770217747264" x2="174.87672905732177" y2="364.45493103129576" />
    <line x1="142.46331352698206" y1="403.77590650225738" x2="154.70918336266493" y2="374.21176146189623" />
    <line x1="160.83211828050636" y1="359.4296889417156" x2="179.20092303403067" y2="315.08347138117381" />
    <line x1="117.17830484558451" y1="409.49499309924465" x2="139.80534821323238" y2="367.16277241052364" />
    <line x1="107.88595339607961" y1="385.29392246050907" x2="116.77507712439324" y2="371.9904086636684" />
    <line x1="125.66420085270687" y1="358.68689486682763" x2="134.55332458102049" y2="345.38338106998691" />
    <line x1="143.44244830933414" y1="332.07986727314619" x2="152.33157203764776" y2="318.77635347630547" />
    <line x1="161.22069576596141" y1="305.47283967946476" x2="170.10981949427503" y2="292.169325882624" />
    <line x1="81.971050620652619" y1="385.97025792635122" x2="92.12134316727095" y2="373.60209067254743" />
    <line x1="122.57222080712592" y1="336.49758891113606" x2="132.72251335374426" y2="324.12942165733227" />
    <line x1="77.578643762690518" y1="360.42135623730951" x2="88.892352261675256" y2="349.10764773832477" />
    <line x1="111.51976925964479" y1="326.48023074035524" x2="145.46089475659906" y2="292.53910524340097" />
    <line x1="156.77460325558383" y1="281.22539674441617" x2="168.08831175456857" y2="269.91168824543144" />
    <line x1="190.7157287525381" y1="247.2842712474619" x2="202.02943725152286" y2="235.97056274847714" />
    <line x1="52.02974207364889" y1="356.02894937934752" x2="76.766076581256442" y2="335.72836428611083" />
    <line x1="89.134243835060232" y1="325.57807173949254" x2="101.50241108886402" y2="315.4277791928742" />
    <line x1="52.706077539490963" y1="330.11404660392043" x2="79.3131051331724" y2="312.33579914729319" />
    <line x1="92.616618930013118" y1="303.44667541897957" x2="119.22364652369457" y2="285.66842796235227" />
    <line x1="56.726487359902706" y1="305.73699957598359" x2="84.947967819050064" y2="290.65230399755166" />
    <line x1="34.2240934977427" y1="295.53668647301805" x2="49.006166017923277" y2="289.41375155517665" />
    <line x1="63.788238538103855" y1="283.29081663733518" x2="78.57031105828446" y2="277.16788171949372" />
    <line x1="137.69860113900677" y1="252.67614204812796" x2="182.04481869954856" y2="234.3073372946036" />
    <line x1="12.300887481842892" y1="281.70149028696392" x2="27.611932853558244" y2="277.05693545089247" />
    <line x1="73.545068968704271" y1="263.12327094267829" x2="88.8561143404196" y2="258.4787161066069" />
    <line x1="38.535508405805615" y1="254.89661925096766" x2="69.920637378708989" y2="248.65372894645157" />
    <line x1="101.30576635161236" y1="242.41083864193544" x2="148.38345981096742" y2="233.04650318516127" />
    <line x1="67.731921545826054" y1="233.89860533009318" x2="83.654877172581223" y2="232.33033108482022" />
    <line x1="19" y1="219.00000000000003" x2="51" y2="219.00000000000003" />
    <line x1="67" y1="219.00000000000003" x2="99" y2="219.00000000000003" />
    <line x1="131" y1="219.00000000000003" x2="179" y2="219" />
    <line x1="51.808965919070914" y1="202.53312042463389" x2="67.731921545826054" y2="204.10139466990688" />
    <line x1="22.8429439193539" y1="179.98193559677435" x2="54.228072892257273" y2="186.22482590129044" />
    <line x1="116.99833083806404" y1="198.71060651032266" x2="132.69089532451574" y2="201.83205166258071" />
    <line x1="27.611932853558216" y1="160.94306454910759" x2="42.922978225273567" y2="165.58761938517898" />
    <line x1="49.006166017923249" y1="148.58624844482344" x2="63.788238538103855" y2="154.70918336266487" />
    <line x1="108.1344560986456" y1="173.0779881161892" x2="122.91652861882619" y2="179.20092303403064" />
    <line x1="152.48067365918735" y1="191.44679286971353" x2="182.04481869954853" y2="203.6926627053964" />
    <line x1="70.837227589476356" y1="139.80534821323241" x2="84.947967819050035" y2="147.34769600244837" />
    <line x1="52.706077539490906" y1="107.88595339607963" x2="66.009591336331624" y2="116.77507712439326" />
    <line x1="92.61661893001309" y1="134.55332458102052" x2="159.13418791421674" y2="178.99894322258865" />
    <line x1="52.029742073648833" y1="81.971050620652562" x2="64.397909327452624" y2="92.121343167270879" />
    <line x1="76.766076581256414" y1="102.27163571388921" x2="101.502411088864" y2="122.57222080712587" />
    <line x1="77.578643762690461" y1="77.578643762690518" x2="88.892352261675228" y2="88.892352261675285" />
    <line x1="100.20606076066" y1="100.20606076066005" x2="122.83347775862951" y2="122.83347775862956" />
    <line x1="145.46089475659903" y1="145.46089475659909" x2="179.40202025355333" y2="179.40202025355336" />
    <line x1="190.7157287525381" y1="190.7157287525381" x2="202.02943725152286" y2="202.02943725152286" />
    <line x1="92.121343167270808" y1="64.39790932745268" x2="112.42192826050749" y2="89.134243835060232" />
    <line x1="116.77507712439319" y1="66.009591336331681" x2="134.55332458102046" y2="92.616618930013118" />
    <line x1="143.44244830933411" y1="105.92013272685385" x2="170.109819494275" y2="145.83067411737602" />
    <line x1="117.17830484558445" y1="28.505006900755347" x2="132.26300042401638" y2="56.726487359902706" />
    <line x1="147.34769600244832" y1="84.947967819050064" x2="154.89004379166428" y2="99.058708048623743" />
    <line x1="142.46331352698192" y1="34.2240934977427" x2="154.70918336266482" y2="63.788238538103855" />
    <line x1="185.32385795187204" y1="137.69860113900677" x2="191.44679286971348" y2="152.48067365918737" />
    <line x1="170.23217422125032" y1="58.234023596988919" x2="179.5212838933931" y2="88.8561143404196" />
    <line x1="189.34627105354844" y1="69.920637378708989" x2="192.46771620580648" y2="85.613201865160676" />
    <line x1="198.71060651032261" y1="116.99833083806405" x2="201.83205166258068" y2="132.69089532451574" />
    <line x1="197.82829768881493" y1="4.0400990388054652" x2="200.96484617936088" y2="35.886010292315774" />
    <line x1="204.1013946699068" y1="67.731921545826054" x2="205.66966891517978" y2="83.654877172581223" />
  </g>
  <path fill="none" stroke="#ff0000" stroke-width="2" stroke-linecap="square" stroke-linejoin="round" d="M 229.59861765472229,3.2601814596827694 L 229.20607626010295,11.25054510932415 A 208,208 0 0,0 208.79392373989703,11.25054510932415 L 209.57900652913574,27.231272408606912 A 192,192 0 0,1 247.17225109542946,29.078110086762052 L 244.82456350414367,44.904934246198536 A 176,176 0 0,1 261.76451166297443,48.274499437760255 L 265.65219454142664,32.753999386647564 A 192,192 0 0,1 301.09057793861416,45.434055720298886 L 280.56793345396062,88.82554179022415 A 144,144 0 0,1 293.03079516382394,95.487080159960811 L 301.25643907091546,81.763422399956454 A 160,160 0 0,1 314.31188871878931,90.486794963096827 L 295.24951097503146,116.18943597047745 A 128,128 0 0,1 341.48836297372276,181.84356131142883 L 326.17731760200741,186.48811614750022 A 112,112 0 0,1 330.46068938728604,208.0220802830892 L 314.5377337605309,209.59035452836216 A 96,96 0 0,0 310.86627223029205,191.13267098357161 L 295.5552268585767,195.777225819643 A 80,80 0 0,0 269.75146273309161,157.15916373098105 L 259.60117018647333,169.52733098478484 A 64,64 0 0,1 281.77025794580675,206.51421939096778 L 266.07769345935503,209.63566454322583 A 48,48 0 0,1 266.07769345935503,228.36433545677414 L 281.77025794580675,231.48578060903219 A 64,64 0 0,1 272.21405518736293,254.55649491325454 L 245.60702759368147,236.77824745662727 A 32,32 0 0,1 206.75413016431713,248.56414504036118 L 209.81559762323786,241.17310878027089" />
  <type>Circular</type>
</svg>