<?xml version="1.0" encoding="utf-8" standalone="no"?>
<!DOCTYPE svg PUBLIC "-//W3C//DTD SVG 1.1//EN" "http://www.w3.org/Graphics/SVG/1.1/DTD/svg11.dtd"[]>
<svg width="436" height="436" version="1.1" xmlns="http://www.w3.org/2000/svg">
  <title>27 cells diameter theta maze</title>
  <g fill="none" stroke="#000000" stroke-width="2" stroke-linecap="square">
    <path d="M 202.02943725152286,235.97056274847714 A 24,24 0 1,1 219,243" />
    <path d="M 219,179 A 40,40 0 0,1 234.3073372946036,182.04481869954853" />
    <path d="M 247.2842712474619,190.7157287525381 A 40,40 0 0,1 255.95518130045147,203.6926627053964" />
    <path d="M 259,219 A 40,40 0 0,1 255.95518130045147,234.3073372946036" />
    <path d="M 247.2842712474619,247.2842712474619 A 40,40 0 0,1 234.3073372946036,255.95518130045147" />
    <path d="M 219,259 A 40,40 0 0,1 179,219" />
    <path d="M 182.04481869954853,203.6926627053964 A 40,40 0 0,1 190.7157287525381,190.7157287525381" />
    <path d="M 197.56972778755494,167.26274617936795 A 56,56 0 0,1 258.59797974644664,179.40202025355333" />
    <path d="M 270.73725382063208,197.56972778755497 A 56,56 0 0,1 275,219" />
    <path d="M 270.73725382063208,240.43027221244503 A 56,56 0 0,1 258.59797974644664,258.59797974644664" />
    <path d="M 240.43027221244503,270.73725382063208 A 56,56 0 0,1 167.26274617936795,240.43027221244506" />
    <path d="M 204.95349681483873,148.3834598109674 A 72,72 0 0,1 219,147" />
    <path d="M 233.04650318516124,148.3834598109674 A 72,72 0 0,1 285.51932634081265,191.44679286971353" />
    <path d="M 289.61654018903261,204.95349681483876 A 72,72 0 0,1 291,219" />
    <path d="M 289.61654018903261,233.04650318516124 A 72,72 0 0,1 285.51932634081265,246.55320713028647" />
    <path d="M 278.86581208578326,259.00105677741135 A 72,72 0 0,1 246.55320713028647,285.51932634081265" />
    <path d="M 233.04650318516127,289.61654018903261 A 72,72 0 0,1 204.95349681483876,289.61654018903261" />
    <path d="M 168.08831175456859,269.91168824543144 A 72,72 0 0,1 159.13418791421674,259.00105677741135" />
    <path d="M 152.48067365918737,246.5532071302865 A 72,72 0 0,1 148.3834598109674,233.04650318516127" />
    <path d="M 147,219 A 72,72 0 0,1 148.3834598109674,204.95349681483876" />
    <path d="M 152.48067365918735,191.44679286971353 A 72,72 0 0,1 159.13418791421674,178.99894322258865" />
    <path d="M 168.08831175456857,168.08831175456859 A 72,72 0 0,1 191.44679286971348,152.48067365918737" />
    <path d="M 201.83205166258068,132.69089532451574 A 88,88 0 0,1 219,131" />
    <path d="M 236.16794833741929,132.69089532451574 A 88,88 0 0,1 281.22539674441617,156.77460325558383" />
    <path d="M 292.169325882624,170.109819494275 A 88,88 0 0,1 305.30910467548426,236.16794833741929" />
    <path d="M 300.30139886099323,252.6761420481279 A 88,88 0 0,1 292.169325882624,267.89018050572497" />
    <path d="M 281.22539674441617,281.22539674441617 A 88,88 0 0,1 252.6761420481279,300.30139886099323" />
    <path d="M 201.83205166258071,305.30910467548426 A 88,88 0 0,1 185.32385795187213,300.30139886099323" />
    <path d="M 170.10981949427503,292.169325882624 A 88,88 0 0,1 156.77460325558383,281.22539674441617" />
    <path d="M 132.69089532451574,201.83205166258071 A 88,88 0 0,1 137.69860113900677,185.32385795187207" />
    <path d="M 145.830674117376,170.10981949427503 A 88,88 0 0,1 185.32385795187204,137.69860113900677" />
    <path d="M 219,115 A 104,104 0 0,1 239.28939348967734,116.99833083806404" />
    <path d="M 321.001669161936,198.71060651032266 A 104,104 0 0,1 292.53910524340097,292.53910524340097" />
    <path d="M 276.77930423403859,305.4728396794647 A 104,104 0 0,1 258.79907696596933,315.08347138117381" />
    <path d="M 239.28939348967737,321.001669161936 A 104,104 0 0,1 198.71060651032266,321.001669161936" />
    <path d="M 179.20092303403067,315.08347138117381 A 104,104 0 0,1 161.22069576596141,305.47283967946476" />
    <path d="M 145.46089475659909,292.53910524340097 A 104,104 0 0,1 132.5271603205353,276.77930423403865" />
    <path d="M 122.91652861882621,258.79907696596939 A 104,104 0 0,1 145.46089475659903,145.46089475659909" />
    <path d="M 161.22069576596135,132.5271603205353 A 104,104 0 0,1 198.71060651032261,116.99833083806405" />
    <path d="M 119.22364652369454,152.33157203764779 A 120,120 0 0,1 219,99" />
    <path d="M 242.41083864193539,101.30576635161235 A 120,120 0 0,1 264.9220118838108,108.13445609864559" />
    <path d="M 318.77635347630542,152.33157203764773 A 120,120 0 0,1 329.86554390135439,173.07798811618923" />
    <path d="M 339,219 A 120,120 0 0,1 285.66842796235227,318.77635347630542" />
    <path d="M 264.9220118838108,329.86554390135439 A 120,120 0 0,1 173.07798811618926,329.86554390135439" />
    <path d="M 152.33157203764779,318.77635347630547 A 120,120 0 0,1 119.22364652369457,285.66842796235227" />
    <path d="M 108.13445609864561,264.92201188381085 A 120,120 0 0,1 101.30576635161235,195.58916135806462" />
    <path d="M 166.95505319834771,93.352383578465037 A 136,136 0 0,1 232.33033108482024,83.654877172581223" />
    <path d="M 258.4787161066069,88.8561143404196 A 136,136 0 0,1 271.0449468016522,93.352383578465" />
    <path d="M 283.10995620833569,99.058708048623714 A 136,136 0 0,1 294.55755169066589,105.92013272685385" />
    <path d="M 305.2774866462558,113.87057834266777 A 136,136 0 0,1 324.12942165733222,132.72251335374421" />
    <path d="M 338.94129195137629,154.89004379166431 A 136,136 0 0,1 354.34512282741878,205.66966891517973" />
    <path d="M 354.34512282741878,232.33033108482024 A 136,136 0 0,1 349.14388565958041,258.47871610660684" />
    <path d="M 338.94129195137629,283.10995620833569 A 136,136 0 0,1 332.07986727314619,294.55755169066589" />
    <path d="M 324.12942165733227,305.27748664625574 A 136,136 0 0,1 315.16652224137044,315.16652224137044" />
    <path d="M 305.2774866462558,324.12942165733222 A 136,136 0 0,1 294.55755169066589,332.07986727314619" />
    <path d="M 283.10995620833569,338.94129195137629 A 136,136 0 0,1 258.4787161066069,349.14388565958041" />
    <path d="M 245.53228379419349,352.3867981348393 A 136,136 0 0,1 179.52128389339316,349.14388565958041" />
    <path d="M 166.9550531983478,344.647616421535 A 136,136 0 0,1 154.89004379166431,338.94129195137629" />
    <path d="M 143.44244830933414,332.07986727314619 A 136,136 0 0,1 113.87057834266781,305.27748664625585" />
    <path d="M 99.058708048623728,283.10995620833569 A 136,136 0 0,1 93.352383578465037,271.04494680165226" />
    <path d="M 88.8561143404196,258.4787161066069 A 136,136 0 0,1 83.654877172581223,205.66966891517984" />
    <path d="M 85.613201865160647,192.46771620580654 A 136,136 0 0,1 93.352383578465009,166.95505319834777" />
    <path d="M 99.058708048623714,154.89004379166431 A 136,136 0 0,1 132.72251335374415,113.87057834266783" />
    <path d="M 143.44244830933411,105.92013272685385 A 136,136 0 0,1 154.89004379166428,99.058708048623743" />
    <path d="M 204.1013946699068,67.731921545826083 A 152,152 0 0,1 219,67" />
    <path d="M 233.8986053300932,67.731921545826083 A 152,152 0 0,1 263.12327094267829,73.545068968704243" />
    <path d="M 303.44667541897957,92.616618930013118 A 152,152 0 0,1 315.42777919287414,101.50241108886398" />
    <path d="M 326.48023074035524,111.51976925964478 A 152,152 0 0,1 345.38338106998685,134.55332458102046" />
    <path d="M 353.05203218094994,147.34769600244835 A 152,152 0 0,1 368.079362621291,189.34627105354849" />
    <path d="M 371,219 A 152,152 0 0,1 364.45493103129576,263.12327094267823" />
    <path d="M 336.49758891113606,315.42777919287408 A 152,152 0 0,1 315.42777919287414,336.497588911136" />
    <path d="M 219.00000000000003,371 A 152,152 0 0,1 189.34627105354849,368.079362621291" />
    <path d="M 174.87672905732177,364.45493103129576 A 152,152 0 0,1 160.83211828050636,359.4296889417156" />
    <path d="M 122.57222080712592,336.49758891113606 A 152,152 0 0,1 111.51976925964479,326.48023074035524" />
    <path d="M 92.616618930013118,303.44667541897951 A 152,152 0 0,1 84.947967819050064,290.65230399755171" />
    <path d="M 73.545068968704243,263.12327094267829 A 152,152 0 0,1 67.731921545826083,233.89860533009318" />
    <path d="M 67,219.00000000000003 A 152,152 0 0,1 67.731921545826054,204.10139466990688" />
    <path d="M 69.92063737870896,189.34627105354849 A 152,152 0 0,1 73.545068968704243,174.87672905732177" />
    <path d="M 78.570311058284432,160.83211828050634 A 152,152 0 0,1 84.947967819050035,147.34769600244837" />
    <path d="M 92.61661893001309,134.55332458102052 A 152,152 0 0,1 122.57222080712582,101.50241108886404" />
    <path d="M 134.55332458102046,92.616618930013118 A 152,152 0 0,1 147.34769600244832,84.947967819050064" />
    <path d="M 160.83211828050625,78.57031105828446 A 152,152 0 0,1 189.34627105354844,69.920637378708989" />
    <path d="M 219,51 A 168,168 0 0,1 251.77517409870956,54.228072892257273" />
    <path d="M 283.29081663733507,63.788238538103826 A 168,168 0 0,1 298.19465178676762,70.837227589476356" />
    <path d="M 312.33579914729319,79.3131051331724 A 168,168 0 0,1 325.57807173949243,89.134243835060175" />
    <path d="M 358.68689486682763,125.66420085270683 A 168,168 0 0,1 367.16277241052364,139.80534821323238" />
    <path d="M 374.21176146189617,154.70918336266493 A 168,168 0 0,1 379.76597640301111,170.23217422125032" />
    <path d="M 386.19103408092906,202.53312042463378 A 168,168 0 0,1 387,219" />
    <path d="M 383.77192710774273,251.77517409870953 A 168,168 0 0,1 379.76597640301111,267.76782577874962" />
    <path d="M 374.21176146189617,283.29081663733507 A 168,168 0 0,1 367.16277241052364,298.19465178676762" />
    <path d="M 358.68689486682763,312.33579914729313 A 168,168 0 0,1 312.33579914729319,358.68689486682763" />
    <path d="M 283.29081663733507,374.21176146189617 A 168,168 0 0,1 267.76782577874968,379.76597640301111" />
    <path d="M 251.77517409870961,383.77192710774273 A 168,168 0 0,1 219.00000000000003,387" />
    <path d="M 186.22482590129044,383.77192710774273 A 168,168 0 0,1 154.70918336266493,374.21176146189617" />
    <path d="M 139.80534821323241,367.16277241052364 A 168,168 0 0,1 125.66420085270688,358.68689486682763" />
    <path d="M 100.20606076066004,337.79393923934003 A 168,168 0 0,1 70.837227589476385,298.19465178676762" />
    <path d="M 58.234023596988919,267.76782577874968 A 168,168 0 0,1 54.2280728922573,251.77517409870961" />
    <path d="M 51,219.00000000000003 A 168,168 0 0,1 79.313105133172371,125.66420085270688" />
    <path d="M 112.42192826050749,89.134243835060261 A 168,168 0 0,1 125.66420085270683,79.3131051331724" />
    <path d="M 186.22482590129039,54.2280728922573 A 168,168 0 0,1 202.53312042463384,51.808965919070914" />
    <path d="M 183.10338074903231,38.535508405805615 A 184,184 0 0,1 237.03515382063915,35.886010292315774" />
    <path d="M 254.8966192509676,38.535508405805587 A 184,184 0 0,1 321.22492287560681,66.009591336331681" />
    <path d="M 335.72836428611078,76.766076581256385 A 184,184 0 0,1 371.99040866366829,116.77507712439318" />
    <path d="M 388.99383398207675,148.58624844482347 A 184,184 0 0,1 399.46449159419444,183.1033807490324" />
    <path d="M 403,219 A 184,184 0 0,1 402.11398970768425,237.03515382063915" />
    <path d="M 388.99383398207681,289.41375155517653 A 184,184 0 0,1 371.99040866366835,321.22492287560675" />
    <path d="M 321.22492287560681,371.99040866366835 A 184,184 0 0,1 289.41375155517653,388.99383398207675" />
    <path d="M 237.03515382063918,402.11398970768425 A 184,184 0 0,1 219.00000000000003,403" />
    <path d="M 183.1033807490324,399.46449159419444 A 184,184 0 0,1 165.58761938517898,395.0770217747264" />
    <path d="M 148.58624844482353,388.99383398207681 A 184,184 0 0,1 88.892352261675285,349.10764773832477" />
    <path d="M 76.76607658125647,335.72836428611083 A 184,184 0 0,1 49.006166017923277,289.41375155517665" />
    <path d="M 38.535508405805615,254.89661925096766 A 184,184 0 0,1 35.886010292315774,237.03515382063912" />
    <path d="M 35,219.00000000000003 A 184,184 0 0,1 35.886010292315774,200.96484617936093" />
    <path d="M 42.922978225273539,165.58761938517898 A 184,184 0 0,1 49.006166017923249,148.58624844482344" />
    <path d="M 76.766076581256414,102.27163571388921 A 184,184 0 0,1 102.27163571388915,76.76607658125647" />
    <path d="M 116.77507712439319,66.009591336331681 A 184,184 0 0,1 132.26300042401638,56.726487359902706" />
    <path d="M 148.58624844482335,49.006166017923277 A 184,184 0 0,1 165.5876193851789,42.922978225273567" />
    <path d="M 199.39657193408789,19.963054665560634 A 200,200 0 0,1 219,19" />
    <path d="M 238.60342806591211,19.963054665560634 A 200,200 0 0,1 258.01806440322565,22.8429439193539" />
    <path d="M 313.27934736519956,42.615747130329 A 200,200 0 0,1 345.87865683272912,64.3979093274526" />
    <path d="M 360.42135623730951,77.57864376269049 A 200,200 0 0,1 403.77590650225738,142.46331352698203" />
    <path d="M 410.38806714644181,160.94306454910753 A 200,200 0 0,1 415.1570560806461,258.01806440322565" />
    <path d="M 410.38806714644181,277.05693545089241 A 200,200 0 0,1 403.77590650225738,295.53668647301794" />
    <path d="M 385.29392246050907,330.11404660392043 A 200,200 0 0,1 360.42135623730951,360.42135623730951" />
    <path d="M 345.87865683272912,373.60209067254743 A 200,200 0 0,1 330.11404660392043,385.29392246050907" />
    <path d="M 295.536686473018,403.77590650225738 A 200,200 0 0,1 238.60342806591217,418.03694533443934" />
    <path d="M 199.39657193408789,418.03694533443934 A 200,200 0 0,1 160.94306454910759,410.38806714644181" />
    <path d="M 107.88595339607961,385.29392246050907 A 200,200 0 0,1 92.121343167270936,373.60209067254743" />
    <path d="M 77.578643762690518,360.42135623730951 A 200,200 0 0,1 64.39790932745268,345.87865683272918" />
    <path d="M 52.706077539490934,330.11404660392043 A 200,200 0 0,1 22.842943919353928,258.01806440322571" />
    <path d="M 19.963054665560634,238.60342806591208 A 200,200 0 0,1 19.963054665560605,199.39657193408797" />
    <path d="M 22.8429439193539,179.98193559677435 A 200,200 0 0,1 27.611932853558216,160.94306454910759" />
    <path d="M 34.224093497742672,142.463313526982 A 200,200 0 0,1 124.72065263480042,42.615747130329027" />
    <path d="M 160.9430645491075,27.611932853558244 A 200,200 0 0,1 179.98193559677426,22.842943919353928" />
    <path d="M 240.1717023111851,4.0400990388054652 A 216,216 0 1,1 219,3" />
  </g>
  <g fill="none" stroke="#000000" stroke-width="2" stroke-linecap="butt">
    <line x1="219" y1="3" x2="219" y2="19" />
    <line x1="219" y1="51" x2="219" y2="67" />
    <line x1="219" y1="83" x2="219" y2="179" />
    <line x1="238.60342806591211" y1="19.963054665560605" x2="235.46687957536619" y2="51.808965919070914" />
    <line x1="233.8986053300932" y1="67.731921545826054" x2="232.33033108482024" y2="83.654877172581223" />
    <line x1="258.01806440322565" y1="22.8429439193539" x2="254.8966192509676" y2="38.535508405805615" />
    <line x1="245.53228379419343" y1="85.613201865160647" x2="239.28939348967734" y2="116.99833083806404" />
    <line x1="236.16794833741929" y1="132.69089532451574" x2="233.04650318516124" y2="148.3834598109674" />
    <line x1="281.70149028696386" y1="12.300887481842892" x2="277.05693545089247" y2="27.611932853558244" />
    <line x1="272.41238061482107" y1="42.922978225273567" x2="263.12327094267829" y2="73.545068968704271" />
    <line x1="295.53668647301794" y1="34.224093497742643" x2="289.41375155517653" y2="49.006166017923249" />
    <line x1="283.29081663733507" y1="63.788238538103826" x2="264.9220118838108" y2="108.13445609864559" />
    <line x1="258.79907696596933" y1="122.91652861882618" x2="252.6761420481279" y2="137.69860113900677" />
    <line x1="298.19465178676762" y1="70.837227589476356" x2="283.10995620833569" y2="99.058708048623714" />
    <line x1="303.44667541897957" y1="92.616618930013118" x2="276.77930423403865" y2="132.5271603205353" />
    <line x1="345.87865683272912" y1="64.3979093274526" x2="315.42777919287414" y2="101.50241108886398" />
    <line x1="371.73506473629425" y1="66.264935263705723" x2="360.42135623730951" y2="77.57864376269049" />
    <line x1="337.79393923934" y1="100.20606076066001" x2="281.22539674441617" y2="156.77460325558383" />
    <line x1="258.59797974644664" y1="179.40202025355333" x2="247.2842712474619" y2="190.7157287525381" />
    <line x1="361.23392341874364" y1="102.27163571388923" x2="348.86575616493985" y2="112.42192826050756" />
    <line x1="358.68689486682763" y1="125.66420085270681" x2="332.07986727314614" y2="143.44244830933408" />
    <line x1="318.77635347630542" y1="152.33157203764773" x2="292.169325882624" y2="170.109819494275" />
    <line x1="395.384252869671" y1="124.72065263480044" x2="353.05203218094994" y2="147.34769600244835" />
    <line x1="388.99383398207675" y1="148.58624844482347" x2="374.21176146189617" y2="154.7091833626649" />
    <line x1="344.64761642153496" y1="166.9550531983478" x2="329.86554390135439" y2="173.0779881161892" />
    <line x1="315.08347138117381" y1="179.20092303403067" x2="300.30139886099323" y2="185.3238579518721" />
    <line x1="285.51932634081265" y1="191.44679286971353" x2="270.73725382063208" y2="197.56972778755497" />
    <line x1="425.69911251815711" y1="156.29850971303614" x2="410.38806714644181" y2="160.94306454910753" />
    <line x1="399.46449159419438" y1="183.1033807490324" x2="352.38679813483935" y2="192.46771620580654" />
    <line x1="336.69423364838764" y1="195.58916135806459" x2="321.001669161936" y2="198.71060651032266" />
    <line x1="305.30910467548426" y1="201.83205166258071" x2="289.61654018903261" y2="204.95349681483876" />
    <line x1="418.03694533443934" y1="199.39657193408783" x2="402.11398970768425" y2="200.96484617936082" />
    <line x1="370.26807845417392" y1="204.10139466990677" x2="354.34512282741878" y2="205.66966891517973" />
    <line x1="419" y1="219" x2="403" y2="219" />
    <line x1="387" y1="219" x2="339" y2="219" />
    <line x1="275" y1="219" x2="243" y2="219" />
    <line x1="402.11398970768425" y1="237.03515382063915" x2="386.19103408092906" y2="235.46687957536619" />
    <line x1="415.1570560806461" y1="258.01806440322565" x2="383.77192710774273" y2="251.77517409870953" />
    <line x1="368.079362621291" y1="248.65372894645148" x2="352.38679813483935" y2="245.53228379419343" />
    <line x1="305.30910467548426" y1="236.16794833741929" x2="289.61654018903261" y2="233.04650318516124" />
    <line x1="410.38806714644181" y1="277.05693545089241" x2="395.0770217747264" y2="272.412380614821" />
    <line x1="418.55797902243796" y1="301.6596213908594" x2="403.77590650225738" y2="295.53668647301794" />
    <line x1="374.21176146189617" y1="283.29081663733507" x2="359.4296889417156" y2="277.16788171949361" />
    <line x1="344.64761642153496" y1="271.0449468016522" x2="329.86554390135439" y2="264.9220118838108" />
    <line x1="315.08347138117381" y1="258.79907696596933" x2="285.51932634081265" y2="246.55320713028647" />
    <line x1="409.49499309924465" y1="320.82169515441552" x2="381.27351264009735" y2="305.73699957598359" />
    <line x1="367.16277241052364" y1="298.19465178676762" x2="338.94129195137629" y2="283.10995620833569" />
    <line x1="358.68689486682763" y1="312.33579914729313" x2="305.47283967946476" y2="276.77930423403859" />
    <line x1="373.60209067254743" y1="345.87865683272906" x2="348.86575616493985" y2="325.57807173949243" />
    <line x1="349.10764773832477" y1="349.10764773832477" x2="337.79393923934" y2="337.79393923934" />
    <line x1="315.16652224137044" y1="315.16652224137044" x2="303.85281374238571" y2="303.85281374238571" />
    <line x1="269.91168824543144" y1="269.91168824543144" x2="258.59797974644664" y2="258.59797974644664" />
    <line x1="356.02894937934741" y1="385.97025792635122" x2="335.72836428611078" y2="361.23392341874364" />
    <line x1="325.57807173949243" y1="348.86575616493985" x2="315.42777919287414" y2="336.497588911136" />
    <line x1="312.33579914729319" y1="358.68689486682763" x2="294.55755169066589" y2="332.07986727314619" />
    <line x1="285.66842796235227" y1="318.77635347630542" x2="276.77930423403865" y2="305.4728396794647" />
    <line x1="320.82169515441552" y1="409.49499309924465" x2="313.27934736519956" y2="395.384252869671" />
    <line x1="305.73699957598359" y1="381.27351264009729" x2="283.10995620833569" y2="338.94129195137629" />
    <line x1="301.6596213908594" y1="418.55797902243796" x2="289.41375155517653" y2="388.99383398207675" />
    <line x1="283.29081663733507" y1="374.21176146189617" x2="277.16788171949366" y2="359.4296889417156" />
    <line x1="258.79907696596933" y1="315.08347138117381" x2="246.55320713028647" y2="285.51932634081265" />
    <line x1="240.43027221244503" y1="270.73725382063208" x2="234.3073372946036" y2="255.95518130045147" />
    <line x1="272.41238061482107" y1="395.0770217747264" x2="258.4787161066069" y2="349.14388565958041" />
    <line x1="254.89661925096766" y1="399.46449159419438" x2="248.65372894645154" y2="368.079362621291" />
    <line x1="245.53228379419349" y1="352.38679813483935" x2="242.41083864193544" y2="336.69423364838764" />
    <line x1="236.16794833741932" y1="305.30910467548426" x2="233.04650318516127" y2="289.61654018903261" />
    <line x1="238.60342806591217" y1="418.03694533443934" x2="237.03515382063918" y2="402.11398970768425" />
    <line x1="233.89860533009323" y1="370.26807845417392" x2="232.33033108482027" y2="354.34512282741878" />
    <line x1="219.00000000000003" y1="435" x2="219.00000000000003" y2="419" />
    <line x1="219.00000000000003" y1="403" x2="219.00000000000003" y2="371" />
    <line x1="219" y1="323" x2="219" y2="275" />
    <line x1="219" y1="259" x2="219" y2="243" />
    <line x1="197.82829768881493" y1="433.95990096119453" x2="202.53312042463381" y2="386.19103408092906" />
    <line x1="183.1033807490324" y1="399.46449159419438" x2="186.22482590129044" y2="383.77192710774273" />
    <line x1="160.94306454910759" y1="410.38806714644181" x2="165.58761938517898" y2="395.0770217747264" />
    <line x1="174.87672905732177" y1="364.45493103129576" x2="179.52128389339316" y2="349.14388565958041" />
    <line x1="136.34037860914063" y1="418.55797902243796" x2="148.5862484448235" y2="388.99383398207681" />
    <line x1="166.9550531983478" y1="344.647616421535" x2="197.56972778755497" y2="270.73725382063208" />
    <line x1="117.17830484558451" y1="409.49499309924465" x2="124.72065263480047" y2="395.384252869671" />
    <line x1="139.80534821323238" y1="367.16277241052364" x2="154.89004379166431" y2="338.94129195137629" />
    <line x1="107.88595339607961" y1="385.29392246050907" x2="116.77507712439324" y2="371.9904086636684" />
    <line x1="125.66420085270687" y1="358.68689486682763" x2="143.44244830933414" y2="332.07986727314619" />
    <line x1="152.33157203764776" y1="318.77635347630547" x2="178.99894322258865" y2="278.86581208578326" />
    <line x1="112.4219282605076" y1="348.86575616493985" x2="122.57222080712592" y2="336.49758891113606" />
    <line x1="77.578643762690518" y1="360.42135623730951" x2="111.51976925964479" y2="326.48023074035524" />
    <line x1="168.08831175456857" y1="269.91168824543144" x2="190.7157287525381" y2="247.2842712474619" />
    <line x1="64.39790932745268" y1="345.87865683272918" x2="76.766076581256442" y2="335.72836428611083" />
    <line x1="101.50241108886402" y1="315.4277791928742" x2="113.87057834266781" y2="305.27748664625585" />
    <line x1="105.92013272685385" y1="294.55755169066589" x2="119.22364652369457" y2="285.66842796235227" />
    <line x1="132.5271603205353" y1="276.77930423403865" x2="159.13418791421674" y2="259.00105677741135" />
    <line x1="84.947967819050064" y1="290.65230399755166" x2="99.058708048623728" y2="283.10995620833569" />
    <line x1="49.006166017923277" y1="289.41375155517665" x2="78.57031105828446" y2="277.16788171949372" />
    <line x1="93.352383578465037" y1="271.04494680165226" x2="108.13445609864561" y2="264.92201188381085" />
    <line x1="122.91652861882621" y1="258.79907696596939" x2="137.69860113900677" y2="252.67614204812796" />
    <line x1="152.48067365918737" y1="246.5532071302865" x2="167.26274617936795" y2="240.43027221244506" />
    <line x1="27.611932853558244" y1="277.05693545089247" x2="42.922978225273567" y2="272.41238061482107" />
    <line x1="7.1503794329022412" y1="261.13950955548381" x2="22.842943919353928" y2="258.01806440322571" />
    <line x1="38.535508405805615" y1="254.89661925096766" x2="54.2280728922573" y2="251.77517409870961" />
    <line x1="132.69089532451574" y1="236.16794833741932" x2="148.38345981096742" y2="233.04650318516127" />
    <line x1="4.0400990388054652" y1="240.17170231118507" x2="67.731921545826054" y2="233.89860533009318" />
    <line x1="19" y1="219.00000000000003" x2="51" y2="219.00000000000003" />
    <line x1="67" y1="219.00000000000003" x2="83" y2="219.00000000000003" />
    <line x1="99" y1="219.00000000000003" x2="115" y2="219.00000000000003" />
    <line x1="131" y1="219.00000000000003" x2="179" y2="219" />
    <line x1="51.808965919070914" y1="202.53312042463389" x2="67.731921545826054" y2="204.10139466990688" />
    <line x1="22.8429439193539" y1="179.98193559677435" x2="38.535508405805615" y2="183.1033807490324" />
    <line x1="85.613201865160647" y1="192.46771620580654" x2="101.30576635161235" y2="195.58916135806462" />
    <line x1="132.69089532451574" y1="201.83205166258071" x2="148.3834598109674" y2="204.95349681483876" />
    <line x1="12.300887481842864" y1="156.2985097130362" x2="27.611932853558216" y2="160.94306454910759" />
    <line x1="73.545068968704243" y1="174.87672905732177" x2="88.8561143404196" y2="179.52128389339316" />
    <line x1="34.224093497742672" y1="142.463313526982" x2="49.006166017923249" y2="148.58624844482344" />
    <line x1="108.1344560986456" y1="173.0779881161892" x2="137.69860113900677" y2="185.32385795187207" />
    <line x1="152.48067365918735" y1="191.44679286971353" x2="182.04481869954853" y2="203.6926627053964" />
    <line x1="42.615747130329" y1="124.72065263480049" x2="99.058708048623714" y2="154.89004379166431" />
    <line x1="66.009591336331624" y1="116.77507712439326" x2="79.313105133172371" y2="125.66420085270688" />
    <line x1="119.22364652369454" y1="152.33157203764779" x2="132.52716032053527" y2="161.22069576596141" />
    <line x1="145.83067411737602" y1="170.10981949427503" x2="159.13418791421674" y2="178.99894322258865" />
    <line x1="64.397909327452624" y1="92.121343167270879" x2="89.1342438350602" y2="112.42192826050754" />
    <line x1="100.20606076066" y1="100.20606076066005" x2="122.83347775862951" y2="122.83347775862956" />
    <line x1="168.08831175456857" y1="168.08831175456859" x2="179.40202025355333" y2="179.40202025355336" />
    <line x1="190.7157287525381" y1="190.7157287525381" x2="202.02943725152286" y2="202.02943725152286" />
    <line x1="116.77507712439319" y1="66.009591336331681" x2="125.66420085270684" y2="79.3131051331724" />
    <line x1="143.44244830933411" y1="105.92013272685385" x2="152.33157203764773" y2="119.22364652369457" />
    <line x1="161.22069576596138" y1="132.5271603205353" x2="170.109819494275" y2="145.83067411737602" />
    <line x1="124.72065263480042" y1="42.615747130329027" x2="147.34769600244832" y2="84.947967819050064" />
    <line x1="136.34037860914049" y1="19.442020977562123" x2="148.58624844482335" y2="49.006166017923277" />
    <line x1="154.70918336266482" y1="63.788238538103855" x2="160.83211828050625" y2="78.57031105828446" />
    <line x1="185.32385795187204" y1="137.69860113900677" x2="191.44679286971348" y2="152.48067365918737" />
    <line x1="197.56972778755494" y1="167.26274617936795" x2="203.69266270539637" y2="182.04481869954856" />
    <line x1="165.5876193851789" y1="42.922978225273567" x2="174.87672905732171" y2="73.545068968704271" />
    <line x1="179.98193559677426" y1="22.842943919353928" x2="186.22482590129039" y2="54.2280728922573" />
  </g>
  <path fill="none" stroke="#ff0000" stroke-width="2" stroke-linecap="square" stroke-linejoin="round" d="M 229.59861765472229,3.2601814596827694 L 229.20607626010295,11.25054510932415 A 208,208 0 0,1 269.53987741987891,17.233499335534844 L 265.65219454142664,32.753999386647564 A 192,192 0 0,1 283.68285185130628,38.22353948486 L 289.07308950558178,23.158834441931674 A 208,208 0 0,1 358.68426260817978,64.882165926168511 L 347.93931933062754,76.73738393184783 A 192,192 0 0,1 383.68389312005223,120.29227311490143 L 369.96023536004788,128.51791702199296 A 176,176 0 0,0 360.36452554059349,114.15692240933171 L 347.51320503690317,123.68811128121065 A 160,160 0 0,0 337.55218005679347,111.55056722447706 L 349.40739806247279,100.80562394692477 A 176,176 0 0,0 337.19437605307525,88.592601937527178 L 315.70448949797066,112.30303794888589 A 144,144 0 0,0 304.78069984691041,103.33811546678713 L 295.24951097503146,116.18943597047745 A 128,128 0 0,1 300.20234037294665,120.05466196956967 L 279.90175527970996,144.79099647717726 A 96,96 0 0,0 264.2540867352958,134.33555862255793 L 271.79643452451171,120.22481839298423 A 112,112 0 0,0 251.51188385249978,111.82268239799261 L 246.86732901642839,127.13372776970795 A 96,96 0 0,0 228.40964547163782,123.4622662394691 L 225.27309698109187,155.30817749297938 A 64,64 0 0,1 272.21405518736287,183.44350508674546 L 258.91054139052216,192.33262881505908 A 48,48 0 0,1 266.07769345935503,209.63566454322583 L 250.38512897290337,212.75710969548391 A 32,32 0 0,0 201.22175254337273,192.39297240631856 L 183.44350508674546,165.7859448126371 A 64,64 0 0,1 200.4217806557144,157.75581851313865 L 191.13267098357159,127.13372776970795 A 96,96 0 0,1 209.59035452836218,123.4622662394691 L 208.02208028308922,107.53931061271395 A 112,112 0 0,0 147.94795217367164,132.4228292233735 L 158.09824472028998,144.79099647717729 A 96,96 0 0,0 134.33555862255793,173.74591326470423 L 148.44629885213158,181.2882610539202 A 80,80 0 0,0 142.4447731414233,195.77722581964304 L 157.75581851313862,200.42178065571443 A 64,64 0 0,0 156.22974205419325,206.51421939096778 L 187.61487102709663,212.75710969548391 A 32,32 0 0,0 206.75413016431713,248.56414504036118 L 209.81559762323786,241.17310878027089" />
  <type>Circular</type>
</svg>