<?xml version="1.0" encoding="utf-8" standalone="no"?>
<!DOCTYPE svg PUBLIC "-//W3C//DTD SVG 1.1//EN" "http://www.w3.org/Graphics/SVG/1.1/DTD/svg11.dtd"[]>
<svg width="436" height="436" version="1.1" xmlns="http://www.w3.org/2000/svg">
  <title>27 cells diameter theta maze</title>
  <g fill="none" stroke="#000000" stroke-width="2" stroke-linecap="square">
    <path d="M 202.02943725152286,235.97056274847714 A 24,24 0 1,1 219,243" />
    <path d="M 203.69266270539637,182.04481869954856 A 40,40 0 0,1 219,179" />
    <path d="M 234.3073372946036,182.04481869954853 A 40,40 0 0,1 255.95518130045147,234.3073372946036" />
    <path d="M 247.2842712474619,247.2842712474619 A 40,40 0 0,1 219,259" />
    <path d="M 203.6926627053964,255.95518130045147 A 40,40 0 0,1 190.7157287525381,247.2842712474619" />
    <path d="M 179,219 A 40,40 0 0,1 182.04481869954853,203.6926627053964" />
    <path d="M 258.59797974644664,179.40202025355333 A 56,56 0 0,1 270.73725382063208,240.43027221244503" />
    <path d="M 258.59797974644664,258.59797974644664 A 56,56 0 0,1 197.569727787555,270.73725382063208" />
    <path d="M 167.26274617936795,240.43027221244506 A 56,56 0 0,1 163,219" />
    <path d="M 167.26274617936795,197.56972778755497 A 56,56 0 0,1 197.56972778755494,167.26274617936795" />
    <path d="M 191.44679286971348,152.48067365918737 A 72,72 0 0,1 219,147" />
    <path d="M 233.04650318516124,148.3834598109674 A 72,72 0 0,1 269.91168824543144,168.08831175456857" />
    <path d="M 278.86581208578326,178.99894322258865 A 72,72 0 0,1 289.61654018903261,204.95349681483876" />
    <path d="M 291,219 A 72,72 0 0,1 278.86581208578326,259.00105677741135" />
    <path d="M 269.91168824543144,269.91168824543144 A 72,72 0 0,1 233.04650318516127,289.61654018903261" />
    <path d="M 191.44679286971353,285.51932634081265 A 72,72 0 0,1 168.08831175456859,269.91168824543144" />
    <path d="M 159.13418791421674,259.00105677741135 A 72,72 0 0,1 152.48067365918737,246.5532071302865" />
    <path d="M 147,219 A 72,72 0 0,1 148.3834598109674,204.95349681483876" />
    <path d="M 152.48067365918735,191.44679286971353 A 72,72 0 0,1 159.13418791421674,178.99894322258865" />
    <path d="M 168.08831175456857,168.08831175456859 A 72,72 0 0,1 178.99894322258865,159.13418791421674" />
    <path d="M 201.83205166258068,132.69089532451574 A 88,88 0 0,1 219,131" />
    <path d="M 281.22539674441617,156.77460325558383 A 88,88 0 0,1 300.30139886099323,185.3238579518721" />
    <path d="M 305.30910467548426,201.83205166258071 A 88,88 0 0,1 300.30139886099323,252.6761420481279" />
    <path d="M 292.169325882624,267.89018050572497 A 88,88 0 0,1 281.22539674441617,281.22539674441617" />
    <path d="M 267.89018050572497,292.169325882624 A 88,88 0 0,1 252.6761420481279,300.30139886099323" />
    <path d="M 219,307 A 88,88 0 0,1 201.83205166258071,305.30910467548426" />
    <path d="M 185.32385795187213,300.30139886099323 A 88,88 0 0,1 170.10981949427503,292.169325882624" />
    <path d="M 132.69089532451574,236.16794833741932 A 88,88 0 0,1 131,219.00000000000003" />
    <path d="M 132.69089532451574,201.83205166258071 A 88,88 0 0,1 137.69860113900677,185.32385795187207" />
    <path d="M 145.830674117376,170.10981949427503 A 88,88 0 0,1 156.7746032555838,156.77460325558383" />
    <path d="M 170.109819494275,145.83067411737602 A 88,88 0 0,1 185.32385795187204,137.69860113900677" />
    <path d="M 122.91652861882619,179.20092303403064 A 104,104 0 0,1 258.79907696596933,122.91652861882618" />
    <path d="M 305.4728396794647,161.22069576596135 A 104,104 0 0,1 321.001669161936,239.28939348967734" />
    <path d="M 276.77930423403859,305.4728396794647 A 104,104 0 0,1 219,323" />
    <path d="M 198.71060651032266,321.001669161936 A 104,104 0 0,1 179.20092303403067,315.08347138117381" />
    <path d="M 161.22069576596141,305.47283967946476 A 104,104 0 0,1 122.91652861882621,258.79907696596939" />
    <path d="M 115,219.00000000000003 A 104,104 0 0,1 116.99833083806404,198.71060651032266" />
    <path d="M 173.07798811618915,108.13445609864561 A 120,120 0 0,1 242.41083864193539,101.30576635161235" />
    <path d="M 264.9220118838108,108.13445609864559 A 120,120 0 0,1 285.66842796235227,119.22364652369457" />
    <path d="M 303.85281374238571,134.14718625761429 A 120,120 0 0,1 318.77635347630542,152.33157203764773" />
    <path d="M 329.86554390135439,173.07798811618923 A 120,120 0 0,1 336.69423364838764,242.41083864193539" />
    <path d="M 303.85281374238571,303.85281374238571 A 120,120 0 0,1 195.58916135806459,336.69423364838764" />
    <path d="M 152.33157203764779,318.77635347630547 A 120,120 0 0,1 101.30576635161235,242.41083864193544" />
    <path d="M 119.22364652369454,152.33157203764779 A 120,120 0 0,1 134.14718625761429,134.14718625761432" />
    <path d="M 205.66966891517978,83.654877172581223 A 136,136 0 0,1 219,83" />
    <path d="M 245.53228379419343,85.613201865160647 A 136,136 0 0,1 283.10995620833569,99.058708048623714" />
    <path d="M 294.55755169066589,105.92013272685385 A 136,136 0 0,1 324.12942165733222,132.72251335374421" />
    <path d="M 332.07986727314614,143.44244830933411 A 136,136 0 0,1 355,219" />
    <path d="M 354.34512282741878,232.33033108482024 A 136,136 0 0,1 315.16652224137044,315.16652224137044" />
    <path d="M 305.2774866462558,324.12942165733222 A 136,136 0 0,1 283.10995620833569,338.94129195137629" />
    <path d="M 258.4787161066069,349.14388565958041 A 136,136 0 0,1 232.33033108482027,354.34512282741878" />
    <path d="M 219.00000000000003,355 A 136,136 0 0,1 205.66966891517976,354.34512282741878" />
    <path d="M 179.52128389339316,349.14388565958041 A 136,136 0 0,1 166.9550531983478,344.647616421535" />
    <path d="M 154.89004379166431,338.94129195137629 A 136,136 0 0,1 143.44244830933414,332.07986727314619" />
    <path d="M 132.72251335374423,324.12942165733227 A 136,136 0 0,1 113.87057834266781,305.27748664625585" />
    <path d="M 99.058708048623728,283.10995620833569 A 136,136 0 0,1 93.352383578465037,271.04494680165226" />
    <path d="M 88.8561143404196,258.4787161066069 A 136,136 0 0,1 83.654877172581223,205.66966891517984" />
    <path d="M 85.613201865160647,192.46771620580654 A 136,136 0 0,1 105.92013272685382,143.44244830933414" />
    <path d="M 113.87057834266778,132.72251335374421 A 136,136 0 0,1 192.46771620580648,85.613201865160676" />
    <path d="M 189.34627105354844,69.920637378708989 A 152,152 0 0,1 233.8986053300932,67.731921545826083" />
    <path d="M 248.65372894645151,69.92063737870896 A 152,152 0 0,1 277.16788171949366,78.5703110582844" />
    <path d="M 290.65230399755166,84.947967819050035 A 152,152 0 0,1 315.42777919287414,101.50241108886398" />
    <path d="M 336.497588911136,122.57222080712587 A 152,152 0 0,1 345.38338106998685,134.55332458102046" />
    <path d="M 359.4296889417156,160.83211828050634 A 152,152 0 0,1 370.26807845417392,204.10139466990677" />
    <path d="M 370.26807845417392,233.89860533009323 A 152,152 0 0,1 345.38338106998691,303.44667541897951" />
    <path d="M 303.44667541897951,345.38338106998685 A 152,152 0 0,1 263.12327094267829,364.45493103129576" />
    <path d="M 233.89860533009323,370.26807845417392 A 152,152 0 0,1 219.00000000000003,371" />
    <path d="M 204.1013946699068,370.26807845417392 A 152,152 0 0,1 174.87672905732177,364.45493103129576" />
    <path d="M 134.55332458102049,345.38338106998691 A 152,152 0 0,1 111.51976925964479,326.48023074035524" />
    <path d="M 101.50241108886402,315.42777919287414 A 152,152 0 0,1 84.947967819050064,290.65230399755171" />
    <path d="M 69.920637378708989,248.65372894645157 A 152,152 0 0,1 67,219.00000000000003" />
    <path d="M 67.731921545826054,204.10139466990688 A 152,152 0 0,1 78.570311058284432,160.83211828050634" />
    <path d="M 84.947967819050035,147.34769600244837 A 152,152 0 0,1 101.502411088864,122.57222080712587" />
    <path d="M 111.51976925964475,111.5197692596448 A 152,152 0 0,1 134.55332458102046,92.616618930013118" />
    <path d="M 160.83211828050625,78.57031105828446 A 152,152 0 0,1 174.87672905732171,73.545068968704271" />
    <path d="M 251.77517409870956,54.228072892257273 A 168,168 0 0,1 283.29081663733507,63.788238538103826" />
    <path d="M 298.19465178676762,70.837227589476356 A 168,168 0 0,1 312.33579914729319,79.3131051331724" />
    <path d="M 325.57807173949243,89.134243835060175 A 168,168 0 0,1 348.8657561649398,112.42192826050756" />
    <path d="M 367.16277241052364,139.80534821323238 A 168,168 0 0,1 386.19103408092906,202.53312042463378" />
    <path d="M 383.77192710774273,251.77517409870953 A 168,168 0 0,1 374.21176146189617,283.29081663733507" />
    <path d="M 358.68689486682763,312.33579914729313 A 168,168 0 0,1 348.86575616493985,325.57807173949243" />
    <path d="M 325.57807173949243,348.86575616493985 A 168,168 0 0,1 312.33579914729319,358.68689486682763" />
    <path d="M 298.19465178676762,367.16277241052364 A 168,168 0 0,1 283.29081663733507,374.21176146189617" />
    <path d="M 251.77517409870961,383.77192710774273 A 168,168 0 0,1 202.53312042463381,386.19103408092906" />
    <path d="M 170.23217422125038,379.76597640301111 A 168,168 0 0,1 125.66420085270688,358.68689486682763" />
    <path d="M 112.42192826050759,348.86575616493985 A 168,168 0 0,1 79.3131051331724,312.33579914729319" />
    <path d="M 70.837227589476385,298.19465178676762 A 168,168 0 0,1 58.234023596988919,267.76782577874968" />
    <path d="M 51.808965919070914,235.46687957536616 A 168,168 0 0,1 51.808965919070914,202.53312042463392" />
    <path d="M 54.228072892257273,186.22482590129044 A 168,168 0 0,1 89.1342438350602,112.42192826050754" />
    <path d="M 112.42192826050749,89.134243835060261 A 168,168 0 0,1 154.70918336266482,63.788238538103855" />
    <path d="M 170.23217422125032,58.234023596988919 A 168,168 0 0,1 186.22482590129039,54.2280728922573" />
    <path d="M 219,35 A 184,184 0 0,1 254.8966192509676,38.535508405805587" />
    <path d="M 272.41238061482107,42.922978225273567 A 184,184 0 0,1 289.41375155517653,49.006166017923249" />
    <path d="M 321.22492287560681,66.009591336331681 A 184,184 0 0,1 335.72836428611078,76.766076581256385" />
    <path d="M 361.23392341874359,102.27163571388923 A 184,184 0 0,1 371.99040866366829,116.77507712439318" />
    <path d="M 388.99383398207675,148.58624844482347 A 184,184 0 0,1 395.0770217747264,165.58761938517893" />
    <path d="M 399.46449159419444,183.1033807490324 A 184,184 0 0,1 402.11398970768425,237.03515382063915" />
    <path d="M 395.0770217747264,272.412380614821 A 184,184 0 0,1 371.99040866366835,321.22492287560675" />
    <path d="M 349.10764773832477,349.10764773832477 A 184,184 0 0,1 321.22492287560681,371.99040866366835" />
    <path d="M 289.41375155517653,388.99383398207675 A 184,184 0 0,1 254.89661925096766,399.46449159419438" />
    <path d="M 183.1033807490324,399.46449159419444 A 184,184 0 0,1 165.58761938517898,395.0770217747264" />
    <path d="M 148.58624844482353,388.99383398207681 A 184,184 0 0,1 116.77507712439325,371.99040866366835" />
    <path d="M 66.009591336331681,321.22492287560681 A 184,184 0 0,1 35,219.00000000000003" />
    <path d="M 35.886010292315774,200.96484617936093 A 184,184 0 0,1 42.922978225273539,165.58761938517898" />
    <path d="M 49.006166017923249,148.58624844482344 A 184,184 0 0,1 56.726487359902677,132.26300042401647" />
    <path d="M 76.766076581256414,102.27163571388921 A 184,184 0 0,1 88.892352261675228,88.892352261675285" />
    <path d="M 116.77507712439319,66.009591336331681 A 184,184 0 0,1 148.58624844482335,49.006166017923277" />
    <path d="M 183.10338074903231,38.535508405805615 A 184,184 0 0,1 200.96484617936088,35.886010292315774" />
    <path d="M 179.98193559677426,22.842943919353928 A 200,200 0 0,1 238.60342806591211,19.963054665560634" />
    <path d="M 295.53668647301794,34.224093497742643 A 200,200 0 0,1 360.42135623730951,77.57864376269049" />
    <path d="M 385.29392246050907,107.88595339607954 A 200,200 0 0,1 395.384252869671,124.72065263480044" />
    <path d="M 410.38806714644181,160.94306454910753 A 200,200 0 0,1 415.1570560806461,179.98193559677435" />
    <path d="M 419,219 A 200,200 0 0,1 410.38806714644181,277.05693545089241" />
    <path d="M 403.77590650225738,295.53668647301794 A 200,200 0 0,1 373.60209067254743,345.87865683272906" />
    <path d="M 345.87865683272912,373.60209067254743 A 200,200 0 0,1 330.11404660392043,385.29392246050907" />
    <path d="M 295.536686473018,403.77590650225738 A 200,200 0 0,1 277.05693545089247,410.38806714644181" />
    <path d="M 219.00000000000003,419 A 200,200 0 0,1 160.94306454910759,410.38806714644181" />
    <path d="M 124.72065263480047,395.384252869671 A 200,200 0 0,1 107.88595339607961,385.29392246050907" />
    <path d="M 92.121343167270936,373.60209067254743 A 200,200 0 0,1 77.578643762690518,360.42135623730951" />
    <path d="M 64.39790932745268,345.87865683272918 A 200,200 0 0,1 27.611932853558244,277.05693545089247" />
    <path d="M 19,219.00000000000003 A 200,200 0 0,1 34.224093497742672,142.463313526982" />
    <path d="M 42.615747130329,124.72065263480049 A 200,200 0 0,1 92.121343167270808,64.39790932745268" />
    <path d="M 124.72065263480042,42.615747130329027 A 200,200 0 0,1 160.9430645491075,27.611932853558244" />
    <path d="M 240.1717023111851,4.0400990388054652 A 216,216 0 1,1 219,3" />
  </g>
  <g fill="none" stroke="#000000" stroke-width="2" stroke-linecap="butt">
    <line x1="219" y1="35" x2="219" y2="51" />
    <line x1="219" y1="83" x2="219" y2="99" />
    <line x1="219" y1="147" x2="219" y2="179" />
    <line x1="238.60342806591211" y1="19.963054665560605" x2="237.03515382063915" y2="35.886010292315774" />
    <line x1="235.46687957536619" y1="51.808965919070914" x2="232.33033108482024" y2="83.654877172581223" />
    <line x1="261.1395095554837" y1="7.1503794329022412" x2="251.77517409870956" y2="54.228072892257273" />
    <line x1="245.53228379419343" y1="85.613201865160647" x2="242.41083864193539" y2="101.30576635161235" />
    <line x1="236.16794833741929" y1="132.69089532451574" x2="233.04650318516124" y2="148.3834598109674" />
    <line x1="281.70149028696386" y1="12.300887481842892" x2="272.41238061482107" y2="42.922978225273567" />
    <line x1="277.16788171949366" y1="78.5703110582844" x2="271.0449468016522" y2="93.352383578465009" />
    <line x1="264.9220118838108" y1="108.13445609864559" x2="252.6761420481279" y2="137.69860113900677" />
    <line x1="246.55320713028647" y1="152.48067365918735" x2="234.3073372946036" y2="182.04481869954853" />
    <line x1="313.27934736519956" y1="42.615747130329" x2="298.19465178676762" y2="70.837227589476356" />
    <line x1="321.22492287560681" y1="66.009591336331681" x2="312.33579914729319" y2="79.3131051331724" />
    <line x1="294.55755169066589" y1="105.92013272685385" x2="276.77930423403865" y2="132.5271603205353" />
    <line x1="267.89018050572497" y1="145.83067411737602" x2="259.00105677741135" y2="159.13418791421674" />
    <line x1="325.57807173949243" y1="89.134243835060175" x2="305.2774866462558" y2="113.87057834266777" />
    <line x1="360.42135623730951" y1="77.57864376269049" x2="326.48023074035518" y2="111.51976925964478" />
    <line x1="303.85281374238571" y1="134.14718625761429" x2="281.22539674441617" y2="156.77460325558383" />
    <line x1="385.97025792635122" y1="81.971050620652562" x2="373.60209067254743" y2="92.121343167270908" />
    <line x1="336.497588911136" y1="122.57222080712589" x2="324.12942165733222" y2="132.72251335374421" />
    <line x1="385.29392246050907" y1="107.88595339607954" x2="371.99040866366829" y2="116.77507712439318" />
    <line x1="358.68689486682763" y1="125.66420085270681" x2="345.38338106998685" y2="134.55332458102043" />
    <line x1="332.07986727314614" y1="143.44244830933408" x2="318.77635347630542" y2="152.33157203764773" />
    <line x1="395.384252869671" y1="124.72065263480044" x2="338.94129195137629" y2="154.89004379166431" />
    <line x1="418.55797902243796" y1="136.3403786091406" x2="388.99383398207675" y2="148.58624844482347" />
    <line x1="315.08347138117381" y1="179.20092303403067" x2="300.30139886099323" y2="185.3238579518721" />
    <line x1="285.51932634081265" y1="191.44679286971353" x2="270.73725382063208" y2="197.56972778755497" />
    <line x1="364.45493103129576" y1="174.87672905732171" x2="349.14388565958041" y2="179.52128389339313" />
    <line x1="415.1570560806461" y1="179.98193559677435" x2="383.77192710774273" y2="186.22482590129044" />
    <line x1="305.30910467548426" y1="201.83205166258071" x2="289.61654018903261" y2="204.95349681483876" />
    <line x1="433.95990096119453" y1="197.82829768881487" x2="418.03694533443934" y2="199.39657193408783" />
    <line x1="419" y1="219" x2="371" y2="219" />
    <line x1="291" y1="219" x2="275" y2="219" />
    <line x1="259" y1="219" x2="243" y2="219" />
    <line x1="402.11398970768425" y1="237.03515382063915" x2="370.268078454174" y2="233.89860533009323" />
    <line x1="415.1570560806461" y1="258.01806440322565" x2="383.77192710774273" y2="251.77517409870953" />
    <line x1="352.38679813483935" y1="245.53228379419343" x2="321.001669161936" y2="239.28939348967734" />
    <line x1="425.69911251815711" y1="281.7014902869638" x2="395.0770217747264" y2="272.412380614821" />
    <line x1="329.86554390135439" y1="264.9220118838108" x2="300.30139886099323" y2="252.6761420481279" />
    <line x1="270.73725382063208" y1="240.43027221244503" x2="255.95518130045147" y2="234.3073372946036" />
    <line x1="367.16277241052364" y1="298.19465178676762" x2="353.05203218094994" y2="290.65230399755166" />
    <line x1="318.77635347630547" y1="285.66842796235221" x2="278.86581208578326" y2="259.00105677741135" />
    <line x1="373.60209067254743" y1="345.87865683272906" x2="324.12942165733227" y2="305.27748664625574" />
    <line x1="371.73506473629425" y1="371.73506473629425" x2="326.48023074035524" y2="326.48023074035518" />
    <line x1="303.85281374238571" y1="303.85281374238571" x2="281.22539674441617" y2="281.22539674441617" />
    <line x1="269.91168824543144" y1="269.91168824543144" x2="258.59797974644664" y2="258.59797974644664" />
    <line x1="325.57807173949243" y1="348.86575616493985" x2="305.2774866462558" y2="324.12942165733222" />
    <line x1="330.11404660392043" y1="385.29392246050907" x2="321.22492287560681" y2="371.99040866366835" />
    <line x1="312.33579914729319" y1="358.68689486682763" x2="303.44667541897957" y2="345.38338106998691" />
    <line x1="294.55755169066589" y1="332.07986727314619" x2="285.66842796235227" y2="318.77635347630542" />
    <line x1="276.77930423403865" y1="305.4728396794647" x2="267.89018050572497" y2="292.169325882624" />
    <line x1="320.82169515441552" y1="409.49499309924465" x2="305.73699957598359" y2="381.27351264009729" />
    <line x1="301.6596213908594" y1="418.55797902243796" x2="283.29081663733507" y2="374.21176146189617" />
    <line x1="277.16788171949366" y1="359.4296889417156" x2="271.0449468016522" y2="344.64761642153496" />
    <line x1="252.6761420481279" y1="300.30139886099323" x2="246.55320713028647" y2="285.51932634081265" />
    <line x1="267.76782577874968" y1="379.76597640301111" x2="263.12327094267829" y2="364.4549310312957" />
    <line x1="258.01806440322571" y1="415.1570560806461" x2="245.53228379419349" y2="352.38679813483935" />
    <line x1="239.28939348967737" y1="321.001669161936" x2="236.16794833741932" y2="305.30910467548426" />
    <line x1="240.17170231118513" y1="433.95990096119453" x2="237.03515382063918" y2="402.11398970768425" />
    <line x1="233.89860533009323" y1="370.26807845417392" x2="232.33033108482027" y2="354.34512282741878" />
    <line x1="219.00000000000003" y1="435" x2="219.00000000000003" y2="419" />
    <line x1="219.00000000000003" y1="403" x2="219.00000000000003" y2="387" />
    <line x1="219" y1="323" x2="219" y2="307" />
    <line x1="219" y1="291" x2="219" y2="275" />
    <line x1="219" y1="259" x2="219" y2="243" />
    <line x1="199.39657193408789" y1="418.03694533443939" x2="200.96484617936085" y2="402.11398970768425" />
    <line x1="202.53312042463381" y1="386.19103408092906" x2="205.66966891517976" y2="354.34512282741878" />
    <line x1="183.1033807490324" y1="399.46449159419438" x2="186.22482590129044" y2="383.77192710774273" />
    <line x1="189.34627105354849" y1="368.079362621291" x2="198.71060651032266" y2="321.001669161936" />
    <line x1="201.83205166258071" y1="305.30910467548426" x2="204.95349681483876" y2="289.61654018903261" />
    <line x1="160.94306454910759" y1="410.38806714644181" x2="165.58761938517898" y2="395.0770217747264" />
    <line x1="170.23217422125038" y1="379.76597640301111" x2="174.87672905732177" y2="364.45493103129576" />
    <line x1="136.34037860914063" y1="418.55797902243796" x2="148.5862484448235" y2="388.99383398207681" />
    <line x1="160.83211828050636" y1="359.4296889417156" x2="179.20092303403067" y2="315.08347138117381" />
    <line x1="191.44679286971353" y1="285.51932634081265" x2="203.6926627053964" y2="255.95518130045147" />
    <line x1="139.80534821323238" y1="367.16277241052364" x2="154.89004379166431" y2="338.94129195137629" />
    <line x1="98.996829667765979" y1="398.59743625734984" x2="107.88595339607961" y2="385.29392246050907" />
    <line x1="161.22069576596141" y1="305.47283967946476" x2="170.10981949427503" y2="292.169325882624" />
    <line x1="92.12134316727095" y1="373.60209067254743" x2="102.27163571388927" y2="361.23392341874364" />
    <line x1="122.57222080712592" y1="336.49758891113606" x2="132.72251335374426" y2="324.12942165733227" />
    <line x1="77.578643762690518" y1="360.42135623730951" x2="111.51976925964479" y2="326.48023074035524" />
    <line x1="122.83347775862954" y1="315.1665222413705" x2="134.14718625761429" y2="303.85281374238571" />
    <line x1="145.46089475659906" y1="292.53910524340097" x2="179.40202025355336" y2="258.59797974644664" />
    <line x1="190.7157287525381" y1="247.2842712474619" x2="202.02943725152286" y2="235.97056274847714" />
    <line x1="64.39790932745268" y1="345.87865683272918" x2="76.766076581256442" y2="335.72836428611083" />
    <line x1="39.402563742650216" y1="339.00317033223405" x2="52.706077539490963" y2="330.11404660392043" />
    <line x1="66.009591336331681" y1="321.22492287560681" x2="105.92013272685385" y2="294.55755169066589" />
    <line x1="145.83067411737602" y1="267.89018050572497" x2="159.13418791421674" y2="259.00105677741135" />
    <line x1="84.947967819050064" y1="290.65230399755166" x2="99.058708048623728" y2="283.10995620833569" />
    <line x1="78.57031105828446" y1="277.16788171949372" x2="93.352383578465037" y2="271.04494680165226" />
    <line x1="108.13445609864561" y1="264.92201188381085" x2="182.04481869954856" y2="234.3073372946036" />
    <line x1="58.234023596988919" y1="267.76782577874968" x2="88.8561143404196" y2="258.4787161066069" />
    <line x1="22.842943919353928" y1="258.01806440322571" x2="69.920637378708989" y2="248.65372894645157" />
    <line x1="101.30576635161236" y1="242.41083864193544" x2="116.99833083806405" y2="239.28939348967737" />
    <line x1="132.69089532451574" y1="236.16794833741932" x2="148.38345981096742" y2="233.04650318516127" />
    <line x1="4.0400990388054652" y1="240.17170231118507" x2="19.963054665560605" y2="238.60342806591208" />
    <line x1="19" y1="219.00000000000003" x2="35" y2="219.00000000000003" />
    <line x1="67" y1="219.00000000000003" x2="99" y2="219.00000000000003" />
    <line x1="115" y1="219.00000000000003" x2="147" y2="219" />
    <line x1="179" y1="219" x2="195" y2="219" />
    <line x1="51.808965919070914" y1="202.53312042463389" x2="83.654877172581223" y2="205.66966891517984" />
    <line x1="101.30576635161235" y1="195.58916135806462" x2="116.99833083806404" y2="198.71060651032266" />
    <line x1="132.69089532451574" y1="201.83205166258071" x2="148.3834598109674" y2="204.95349681483876" />
    <line x1="27.611932853558216" y1="160.94306454910759" x2="42.922978225273567" y2="165.58761938517898" />
    <line x1="49.006166017923249" y1="148.58624844482344" x2="63.788238538103855" y2="154.70918336266487" />
    <line x1="78.570311058284432" y1="160.83211828050634" x2="137.69860113900677" y2="185.32385795187207" />
    <line x1="152.48067365918735" y1="191.44679286971353" x2="182.04481869954853" y2="203.6926627053964" />
    <line x1="28.505006900755319" y1="117.17830484558452" x2="56.726487359902677" y2="132.26300042401644" />
    <line x1="70.837227589476356" y1="139.80534821323241" x2="84.947967819050035" y2="147.34769600244837" />
    <line x1="52.706077539490906" y1="107.88595339607963" x2="66.009591336331624" y2="116.77507712439326" />
    <line x1="145.83067411737602" y1="170.10981949427503" x2="159.13418791421674" y2="178.99894322258865" />
    <line x1="76.766076581256414" y1="102.27163571388921" x2="89.1342438350602" y2="112.42192826050754" />
    <line x1="101.502411088864" y1="122.57222080712587" x2="113.87057834266778" y2="132.72251335374421" />
    <line x1="100.20606076066" y1="100.20606076066005" x2="111.51976925964475" y2="111.5197692596448" />
    <line x1="122.83347775862951" y1="122.83347775862956" x2="134.14718625761429" y2="134.14718625761432" />
    <line x1="179.40202025355333" y1="179.40202025355336" x2="190.7157287525381" y2="190.7157287525381" />
    <line x1="92.121343167270808" y1="64.39790932745268" x2="112.42192826050749" y2="89.134243835060232" />
    <line x1="98.996829667765923" y1="39.402563742650216" x2="116.77507712439319" y2="66.009591336331681" />
    <line x1="134.55332458102046" y1="92.616618930013118" x2="143.44244830933411" y2="105.92013272685385" />
    <line x1="152.33157203764773" y1="119.22364652369457" x2="161.22069576596138" y2="132.5271603205353" />
    <line x1="170.109819494275" y1="145.83067411737602" x2="178.99894322258865" y2="159.13418791421674" />
    <line x1="124.72065263480042" y1="42.615747130329027" x2="132.26300042401638" y2="56.726487359902706" />
    <line x1="139.80534821323235" y1="70.837227589476385" x2="147.34769600244832" y2="84.947967819050064" />
    <line x1="166.95505319834771" y1="93.352383578465037" x2="173.07798811618915" y2="108.13445609864561" />
    <line x1="179.20092303403061" y1="122.91652861882621" x2="185.32385795187204" y2="137.69860113900677" />
    <line x1="191.44679286971348" y1="152.48067365918737" x2="197.56972778755494" y2="167.26274617936795" />
    <line x1="160.9430645491075" y1="27.611932853558244" x2="174.87672905732171" y2="73.545068968704271" />
    <line x1="189.34627105354844" y1="69.920637378708989" x2="192.46771620580648" y2="85.613201865160676" />
    <line x1="201.83205166258068" y1="132.69089532451574" x2="204.95349681483873" y2="148.38345981096742" />
    <line x1="199.39657193408789" y1="19.963054665560605" x2="202.53312042463384" y2="51.808965919070914" />
  </g>
  <path fill="none" stroke="#ff0000" stroke-width="2" stroke-linecap="square" stroke-linejoin="round" d="M 229.59861765472229,3.2601814596827694 L 229.20607626010295,11.25054510932415 A 208,208 0 0,0 168.46012258012104,17.233499335534873 L 176.23548833702552,48.274499437760284 A 176,176 0 0,1 193.17543649585622,44.904934246198565 L 195.523124087142,60.731758405635048 A 160,160 0 0,1 226.85082789238689,59.192727007172408 L 227.63591068162558,43.211999707889646 A 176,176 0 0,1 244.82456350414367,44.904934246198536 L 242.47687591285788,60.731758405635048 A 160,160 0 0,1 287.40881494884513,74.361713100249062 L 280.56793345396062,88.82554179022415 A 144,144 0 0,1 293.03079516382394,95.487080159960811 L 284.80515125673236,109.21073791996517 A 128,128 0 0,0 256.1564386885712,96.51163702627727 L 251.51188385249978,111.82268239799261 A 112,112 0 0,0 166.20356547548823,120.22481839298426 L 158.66121768627227,106.11407816341058 A 128,128 0 0,0 137.79765962705332,120.05466196956971 L 147.94795217367164,132.4228292233735 A 112,112 0 0,0 120.22481839298423,166.20356547548829 L 106.11407816341055,158.66121768627232 A 128,128 0 0,1 116.18943597047741,142.7504890249686 L 103.33811546678709,133.21930015308965 A 144,144 0 0,0 88.825541790224179,157.43206654603938 L 74.361713100249062,150.59118505115487 A 160,160 0 0,0 60.731758405635048,195.52312408714209 L 44.904934246198565,193.1754364958563 A 176,176 0 0,1 53.288244527788322,159.70738580296936 L 38.22353948485997,154.31714814869383 A 192,192 0 0,1 45.434055720298886,136.90942206138584 L 30.970227030323798,130.06854056650133 A 208,208 0 0,0 11.25054510932415,229.20607626010295 L 27.231272408606912,228.42099347086426 A 192,192 0 0,0 29.078110086762081,247.17225109542957 L 13.251285927325569,249.51993868671536 A 208,208 0 0,0 17.233499335534873,269.53987741987896 L 32.753999386647564,265.6521945414267 A 192,192 0 0,0 64.784153955716164,333.37426646254715 L 77.635474459406481,323.84307759066826 A 176,176 0 0,0 88.592601937527235,337.1943760530753 L 64.882165926168568,358.68426260817989 A 208,208 0 0,0 95.094544665573878,386.06716654797413 L 123.68811128121068,347.51320503690317 A 160,160 0 0,0 136.74356092908454,356.23657760004357 L 144.96920483617609,342.51291984003922 A 144,144 0 0,1 133.21930015308959,334.66188453321286 L 142.75048902496855,321.81056402952254 A 128,128 0 0,0 158.6612176862723,331.88592183658943 L 173.74591326470423,303.66444137744207 A 96,96 0 0,0 209.59035452836218,314.5377337605309 L 208.02208028308922,330.46068938728604 A 112,112 0 0,0 290.05204782632831,305.57717077662653 L 269.75146273309161,280.84083626901895 A 80,80 0 0,0 280.84083626901895,269.75146273309161 L 268.47266901521516,259.60117018647333 A 64,64 0 0,0 272.21405518736293,254.55649491325454 L 258.91054139052216,245.66737118494089 A 48,48 0 0,1 209.63566454322583,266.07769345935503 L 212.75710969548391,250.38512897290337 A 32,32 0 0,1 206.75413016431713,248.56414504036118 L 209.81559762323786,241.17310878027089" />
  <type>Circular</type>
</svg>