<?xml version="1.0" encoding="utf-8" standalone="no"?>
<!DOCTYPE svg PUBLIC "-//W3C//DTD SVG 1.1//EN" "http://www.w3.org/Graphics/SVG/1.1/DTD/svg11.dtd"[]>
<svg width="436" height="436" version="1.1" xmlns="http://www.w3.org/2000/svg">
  <title>27 cells diameter theta maze</title>
  <g fill="none" stroke="#000000" stroke-width="2" stroke-linecap="square">
    <path d="M 202.02943725152286,235.97056274847714 A 24,24 0 1,1 219,243" />
    <path d="M 219,179 A 40,40 0 0,1 255.95518130045147,203.6926627053964" />
    <path d="M 247.2842712474619,247.2842712474619 A 40,40 0 0,1 203.6926627053964,255.95518130045147" />
    <path d="M 190.7157287525381,247.2842712474619 A 40,40 0 0,1 182.04481869954853,234.3073372946036" />
    <path d="M 179,219 A 40,40 0 0,1 182.04481869954853,203.6926627053964" />
    <path d="M 190.7157287525381,190.7157287525381 A 40,40 0 0,1 203.69266270539637,182.04481869954856" />
    <path d="M 197.56972778755494,167.26274617936795 A 56,56 0 0,1 219,163" />
    <path d="M 240.43027221244503,167.26274617936795 A 56,56 0 0,1 258.59797974644664,179.40202025355333" />
    <path d="M 270.73725382063208,197.56972778755497 A 56,56 0 0,1 275,219" />
    <path d="M 270.73725382063208,240.43027221244503 A 56,56 0 0,1 258.59797974644664,258.59797974644664" />
    <path d="M 240.43027221244503,270.73725382063208 A 56,56 0 0,1 179.40202025355336,258.59797974644664" />
    <path d="M 163,219 A 56,56 0 0,1 179.40202025355333,179.40202025355336" />
    <path d="M 204.95349681483873,148.3834598109674 A 72,72 0 0,1 246.55320713028647,152.48067365918735" />
    <path d="M 259.00105677741135,159.13418791421674 A 72,72 0 0,1 291,219" />
    <path d="M 289.61654018903261,233.04650318516124 A 72,72 0 0,1 278.86581208578326,259.00105677741135" />
    <path d="M 269.91168824543144,269.91168824543144 A 72,72 0 0,1 233.04650318516127,289.61654018903261" />
    <path d="M 219,291 A 72,72 0 0,1 148.3834598109674,204.95349681483876" />
    <path d="M 152.48067365918735,191.44679286971353 A 72,72 0 0,1 168.08831175456857,168.08831175456859" />
    <path d="M 201.83205166258068,132.69089532451574 A 88,88 0 0,1 267.89018050572497,145.83067411737602" />
    <path d="M 281.22539674441617,156.77460325558383 A 88,88 0 0,1 300.30139886099323,185.3238579518721" />
    <path d="M 300.30139886099323,252.6761420481279 A 88,88 0 0,1 292.169325882624,267.89018050572497" />
    <path d="M 267.89018050572497,292.169325882624 A 88,88 0 0,1 252.6761420481279,300.30139886099323" />
    <path d="M 236.16794833741932,305.30910467548426 A 88,88 0 0,1 201.83205166258071,305.30910467548426" />
    <path d="M 185.32385795187213,300.30139886099323 A 88,88 0 0,1 137.69860113900677,252.67614204812796" />
    <path d="M 132.69089532451574,236.16794833741932 A 88,88 0 0,1 137.69860113900677,185.32385795187207" />
    <path d="M 156.7746032555838,156.77460325558383 A 88,88 0 0,1 170.109819494275,145.83067411737602" />
    <path d="M 239.28939348967734,116.99833083806404 A 104,104 0 0,1 258.79907696596933,122.91652861882618" />
    <path d="M 276.77930423403865,132.5271603205353 A 104,104 0 0,1 305.4728396794647,161.22069576596135" />
    <path d="M 321.001669161936,198.71060651032266 A 104,104 0 0,1 321.001669161936,239.28939348967734" />
    <path d="M 305.47283967946476,276.77930423403859 A 104,104 0 0,1 292.53910524340097,292.53910524340097" />
    <path d="M 198.71060651032266,321.001669161936 A 104,104 0 0,1 132.5271603205353,276.77930423403865" />
    <path d="M 122.91652861882621,258.79907696596939 A 104,104 0 0,1 116.99833083806404,239.28939348967737" />
    <path d="M 115,219.00000000000003 A 104,104 0 0,1 132.52716032053527,161.22069576596141" />
    <path d="M 145.46089475659903,145.46089475659909 A 104,104 0 0,1 161.22069576596135,132.5271603205353" />
    <path d="M 179.20092303403061,122.91652861882621 A 104,104 0 0,1 198.71060651032261,116.99833083806405" />
    <path d="M 152.33157203764773,119.22364652369457 A 120,120 0 0,1 242.41083864193539,101.30576635161235" />
    <path d="M 285.66842796235227,119.22364652369457 A 120,120 0 0,1 303.85281374238571,134.14718625761429" />
    <path d="M 329.86554390135439,173.07798811618923 A 120,120 0 0,1 336.69423364838764,242.41083864193539" />
    <path d="M 329.86554390135439,264.92201188381074 A 120,120 0 0,1 285.66842796235227,318.77635347630542" />
    <path d="M 264.9220118838108,329.86554390135439 A 120,120 0 0,1 242.41083864193544,336.69423364838764" />
    <path d="M 219.00000000000003,339 A 120,120 0 0,1 173.07798811618926,329.86554390135439" />
    <path d="M 134.14718625761429,303.85281374238571 A 120,120 0 0,1 119.22364652369457,285.66842796235227" />
    <path d="M 108.13445609864561,264.92201188381085 A 120,120 0 0,1 99,219.00000000000003" />
    <path d="M 101.30576635161235,195.58916135806462 A 120,120 0 0,1 134.14718625761429,134.14718625761432" />
    <path d="M 205.66966891517978,83.654877172581223 A 136,136 0 0,1 271.0449468016522,93.352383578465" />
    <path d="M 294.55755169066589,105.92013272685385 A 136,136 0 0,1 305.2774866462558,113.87057834266777" />
    <path d="M 315.16652224137044,122.83347775862953 A 136,136 0 0,1 332.07986727314614,143.44244830933411" />
    <path d="M 338.94129195137629,154.89004379166431 A 136,136 0 0,1 349.14388565958041,179.52128389339313" />
    <path d="M 352.38679813483935,192.46771620580654 A 136,136 0 0,1 354.34512282741878,232.33033108482024" />
    <path d="M 352.38679813483935,245.53228379419343 A 136,136 0 0,1 338.94129195137629,283.10995620833569" />
    <path d="M 332.07986727314619,294.55755169066589 A 136,136 0 0,1 271.0449468016522,344.64761642153496" />
    <path d="M 258.4787161066069,349.14388565958041 A 136,136 0 0,1 245.53228379419349,352.3867981348393" />
    <path d="M 219.00000000000003,355 A 136,136 0 0,1 179.52128389339316,349.14388565958041" />
    <path d="M 166.9550531983478,344.647616421535 A 136,136 0 0,1 132.72251335374423,324.12942165733227" />
    <path d="M 122.83347775862956,315.16652224137044 A 136,136 0 0,1 113.87057834266781,305.27748664625585" />
    <path d="M 105.92013272685384,294.55755169066589 A 136,136 0 0,1 88.8561143404196,258.4787161066069" />
    <path d="M 85.613201865160676,245.53228379419349 A 136,136 0 0,1 83.654877172581223,232.33033108482022" />
    <path d="M 83,219.00000000000003 A 136,136 0 0,1 93.352383578465009,166.95505319834777" />
    <path d="M 99.058708048623714,154.89004379166431 A 136,136 0 0,1 113.87057834266778,132.72251335374421" />
    <path d="M 122.83347775862951,122.83347775862956 A 136,136 0 0,1 143.44244830933411,105.92013272685385" />
    <path d="M 154.89004379166428,99.058708048623743 A 136,136 0 0,1 192.46771620580648,85.613201865160676" />
    <path d="M 189.34627105354844,69.920637378708989 A 152,152 0 0,1 233.8986053300932,67.731921545826083" />
    <path d="M 277.16788171949366,78.5703110582844 A 152,152 0 0,1 303.44667541897957,92.616618930013118" />
    <path d="M 315.42777919287414,101.50241108886398 A 152,152 0 0,1 345.38338106998685,134.55332458102046" />
    <path d="M 359.4296889417156,160.83211828050634 A 152,152 0 0,1 368.079362621291,248.65372894645148" />
    <path d="M 364.45493103129576,263.12327094267823 A 152,152 0 0,1 353.05203218094994,290.65230399755166" />
    <path d="M 336.49758891113606,315.42777919287408 A 152,152 0 0,1 326.48023074035524,326.48023074035518" />
    <path d="M 315.42777919287414,336.497588911136 A 152,152 0 0,1 290.65230399755166,353.05203218094994" />
    <path d="M 263.12327094267829,364.45493103129576 A 152,152 0 0,1 248.65372894645154,368.079362621291" />
    <path d="M 189.34627105354849,368.079362621291 A 152,152 0 0,1 147.34769600244835,353.05203218094994" />
    <path d="M 122.57222080712592,336.49758891113606 A 152,152 0 0,1 111.51976925964479,326.48023074035524" />
    <path d="M 92.616618930013118,303.44667541897951 A 152,152 0 0,1 84.947967819050064,290.65230399755171" />
    <path d="M 67,219.00000000000003 A 152,152 0 0,1 69.92063737870896,189.34627105354849" />
    <path d="M 73.545068968704243,174.87672905732177 A 152,152 0 0,1 101.502411088864,122.57222080712587" />
    <path d="M 160.83211828050625,78.57031105828446 A 152,152 0 0,1 174.87672905732171,73.545068968704271" />
    <path d="M 219,51 A 168,168 0 0,1 251.77517409870956,54.228072892257273" />
    <path d="M 267.76782577874968,58.234023596988919 A 168,168 0 0,1 283.29081663733507,63.788238538103826" />
    <path d="M 312.33579914729319,79.3131051331724 A 168,168 0 0,1 325.57807173949243,89.134243835060175" />
    <path d="M 337.79393923934,100.20606076066001 A 168,168 0 0,1 348.8657561649398,112.42192826050756" />
    <path d="M 383.77192710774273,186.22482590129044 A 168,168 0 0,1 379.76597640301111,267.76782577874962" />
    <path d="M 367.16277241052364,298.19465178676762 A 168,168 0 0,1 348.86575616493985,325.57807173949243" />
    <path d="M 337.79393923934,337.79393923934 A 168,168 0 0,1 312.33579914729319,358.68689486682763" />
    <path d="M 298.19465178676762,367.16277241052364 A 168,168 0 0,1 267.76782577874968,379.76597640301111" />
    <path d="M 251.77517409870961,383.77192710774273 A 168,168 0 0,1 186.22482590129044,383.77192710774273" />
    <path d="M 154.70918336266493,374.21176146189617 A 168,168 0 0,1 139.80534821323241,367.16277241052364" />
    <path d="M 100.20606076066004,337.79393923934003 A 168,168 0 0,1 79.3131051331724,312.33579914729319" />
    <path d="M 63.788238538103855,283.29081663733518 A 168,168 0 0,1 58.234023596988919,267.76782577874968" />
    <path d="M 54.228072892257273,186.22482590129044 A 168,168 0 0,1 58.234023596988891,170.23217422125038" />
    <path d="M 63.788238538103855,154.70918336266487 A 168,168 0 0,1 79.313105133172371,125.66420085270688" />
    <path d="M 112.42192826050749,89.134243835060261 A 168,168 0 0,1 125.66420085270683,79.3131051331724" />
    <path d="M 139.80534821323235,70.837227589476385 A 168,168 0 0,1 154.70918336266482,63.788238538103855" />
    <path d="M 186.22482590129039,54.2280728922573 A 168,168 0 0,1 202.53312042463384,51.808965919070914" />
    <path d="M 200.96484617936088,35.886010292315774 A 184,184 0 0,1 237.03515382063915,35.886010292315774" />
    <path d="M 254.8966192509676,38.535508405805587 A 184,184 0 0,1 272.41238061482107,42.922978225273567" />
    <path d="M 289.41375155517653,49.006166017923249 A 184,184 0 0,1 305.73699957598353,56.726487359902677" />
    <path d="M 335.72836428611078,76.766076581256385 A 184,184 0 0,1 349.10764773832477,88.892352261675256" />
    <path d="M 371.99040866366829,116.77507712439318 A 184,184 0 0,1 388.99383398207675,148.58624844482347" />
    <path d="M 395.0770217747264,165.58761938517893 A 184,184 0 0,1 399.46449159419444,254.8966192509676" />
    <path d="M 388.99383398207681,289.41375155517653 A 184,184 0 0,1 371.99040866366835,321.22492287560675" />
    <path d="M 361.23392341874364,335.72836428611072 A 184,184 0 0,1 349.10764773832477,349.10764773832477" />
    <path d="M 305.73699957598359,381.27351264009729 A 184,184 0 0,1 219.00000000000003,403" />
    <path d="M 183.1033807490324,399.46449159419444 A 184,184 0 0,1 165.58761938517898,395.0770217747264" />
    <path d="M 132.26300042401644,381.27351264009735 A 184,184 0 0,1 88.892352261675285,349.10764773832477" />
    <path d="M 56.726487359902706,305.73699957598365 A 184,184 0 0,1 42.922978225273567,272.41238061482107" />
    <path d="M 38.535508405805615,254.89661925096766 A 184,184 0 0,1 35,219.00000000000003" />
    <path d="M 35.886010292315774,200.96484617936093 A 184,184 0 0,1 49.006166017923249,148.58624844482344" />
    <path d="M 66.009591336331624,116.77507712439326 A 184,184 0 0,1 76.766076581256414,102.27163571388921" />
    <path d="M 88.892352261675228,88.892352261675285 A 184,184 0 0,1 165.5876193851789,42.922978225273567" />
    <path d="M 238.60342806591211,19.963054665560634 A 200,200 0 0,1 258.01806440322565,22.8429439193539" />
    <path d="M 277.05693545089247,27.611932853558216 A 200,200 0 0,1 295.53668647301794,34.224093497742643" />
    <path d="M 313.27934736519956,42.615747130329 A 200,200 0 0,1 330.11404660392043,52.706077539490963" />
    <path d="M 373.60209067254738,92.1213431672709 A 200,200 0 0,1 395.384252869671,124.72065263480044" />
    <path d="M 403.77590650225738,142.46331352698203 A 200,200 0 0,1 410.38806714644181,160.94306454910753" />
    <path d="M 415.1570560806461,179.98193559677435 A 200,200 0 0,1 418.03694533443934,199.39657193408783" />
    <path d="M 415.1570560806461,258.01806440322565 A 200,200 0 0,1 403.77590650225738,295.53668647301794" />
    <path d="M 385.29392246050907,330.11404660392043 A 200,200 0 0,1 373.60209067254743,345.87865683272906" />
    <path d="M 360.42135623730951,360.42135623730951 A 200,200 0 0,1 345.87865683272912,373.60209067254743" />
    <path d="M 330.11404660392043,385.29392246050907 A 200,200 0 0,1 258.01806440322571,415.15705608064604" />
    <path d="M 219.00000000000003,419 A 200,200 0 0,1 199.39657193408789,418.03694533443934" />
    <path d="M 160.94306454910759,410.38806714644181 A 200,200 0 0,1 124.72065263480047,395.384252869671" />
    <path d="M 77.578643762690518,360.42135623730951 A 200,200 0 0,1 64.39790932745268,345.87865683272918" />
    <path d="M 52.706077539490934,330.11404660392043 A 200,200 0 0,1 42.615747130329027,313.27934736519956" />
    <path d="M 27.611932853558244,277.05693545089247 A 200,200 0 0,1 22.842943919353928,258.01806440322571" />
    <path d="M 19,219.00000000000003 A 200,200 0 0,1 22.8429439193539,179.98193559677435" />
    <path d="M 52.706077539490906,107.88595339607963 A 200,200 0 0,1 77.578643762690461,77.578643762690518" />
    <path d="M 92.121343167270808,64.39790932745268 A 200,200 0 0,1 142.46331352698192,34.2240934977427" />
    <path d="M 160.9430645491075,27.611932853558244 A 200,200 0 0,1 199.39657193408789,19.963054665560634" />
    <path d="M 240.1717023111851,4.0400990388054652 A 216,216 0 1,1 219,3" />
  </g>
  <g fill="none" stroke="#000000" stroke-width="2" stroke-linecap="butt">
    <line x1="219" y1="3" x2="219" y2="35" />
    <line x1="219" y1="99" x2="219" y2="131" />
    <line x1="219" y1="147" x2="219" y2="163" />
    <line x1="237.03515382063915" y1="35.886010292315774" x2="235.46687957536619" y2="51.808965919070914" />
    <line x1="233.8986053300932" y1="67.731921545826054" x2="232.33033108482024" y2="83.654877172581223" />
    <line x1="261.1395095554837" y1="7.1503794329022412" x2="258.01806440322565" y2="22.8429439193539" />
    <line x1="254.8966192509676" y1="38.535508405805615" x2="248.65372894645151" y2="69.920637378708989" />
    <line x1="277.05693545089247" y1="27.611932853558244" x2="272.41238061482107" y2="42.922978225273567" />
    <line x1="267.76782577874968" y1="58.234023596988919" x2="258.4787161066069" y2="88.8561143404196" />
    <line x1="289.41375155517653" y1="49.006166017923249" x2="283.29081663733507" y2="63.788238538103826" />
    <line x1="271.0449468016522" y1="93.352383578465009" x2="258.79907696596933" y2="122.91652861882618" />
    <line x1="252.6761420481279" y1="137.69860113900677" x2="246.55320713028647" y2="152.48067365918735" />
    <line x1="313.27934736519956" y1="42.615747130329" x2="305.73699957598353" y2="56.726487359902677" />
    <line x1="298.19465178676762" y1="70.837227589476356" x2="283.10995620833569" y2="99.058708048623714" />
    <line x1="330.11404660392043" y1="52.706077539490963" x2="312.33579914729319" y2="79.3131051331724" />
    <line x1="303.44667541897957" y1="92.616618930013118" x2="285.66842796235227" y2="119.22364652369457" />
    <line x1="276.77930423403865" y1="132.5271603205353" x2="267.89018050572497" y2="145.83067411737602" />
    <line x1="356.02894937934741" y1="52.029742073648805" x2="335.72836428611078" y2="76.766076581256385" />
    <line x1="325.57807173949243" y1="89.134243835060175" x2="315.42777919287414" y2="101.50241108886398" />
    <line x1="360.42135623730951" y1="77.57864376269049" x2="337.79393923934" y2="100.20606076066001" />
    <line x1="326.48023074035518" y1="111.51976925964478" x2="315.16652224137044" y2="122.83347775862953" />
    <line x1="303.85281374238571" y1="134.14718625761429" x2="292.53910524340097" y2="145.46089475659903" />
    <line x1="281.22539674441617" y1="156.77460325558383" x2="258.59797974644664" y2="179.40202025355333" />
    <line x1="385.97025792635122" y1="81.971050620652562" x2="373.60209067254743" y2="92.121343167270908" />
    <line x1="361.23392341874364" y1="102.27163571388923" x2="348.86575616493985" y2="112.42192826050756" />
    <line x1="371.99040866366829" y1="116.77507712439318" x2="345.38338106998685" y2="134.55332458102043" />
    <line x1="332.07986727314614" y1="143.44244830933408" x2="318.77635347630542" y2="152.33157203764773" />
    <line x1="367.16277241052364" y1="139.80534821323238" x2="338.94129195137629" y2="154.89004379166431" />
    <line x1="403.77590650225738" y1="142.46331352698203" x2="359.4296889417156" y2="160.83211828050634" />
    <line x1="344.64761642153496" y1="166.9550531983478" x2="300.30139886099323" y2="185.3238579518721" />
    <line x1="270.73725382063208" y1="197.56972778755497" x2="255.95518130045147" y2="203.6926627053964" />
    <line x1="410.38806714644181" y1="160.94306454910753" x2="395.0770217747264" y2="165.58761938517893" />
    <line x1="379.76597640301111" y1="170.23217422125032" x2="364.45493103129576" y2="174.87672905732171" />
    <line x1="430.84962056709776" y1="176.86049044451627" x2="415.1570560806461" y2="179.98193559677435" />
    <line x1="368.079362621291" y1="189.34627105354849" x2="352.38679813483935" y2="192.46771620580654" />
    <line x1="321.001669161936" y1="198.71060651032266" x2="305.30910467548426" y2="201.83205166258071" />
    <line x1="419" y1="219" x2="403" y2="219" />
    <line x1="307" y1="219" x2="275" y2="219" />
    <line x1="259" y1="219" x2="243" y2="219" />
    <line x1="433.95990096119453" y1="240.1717023111851" x2="418.03694533443939" y2="238.60342806591214" />
    <line x1="415.1570560806461" y1="258.01806440322565" x2="399.46449159419438" y2="254.8966192509676" />
    <line x1="368.079362621291" y1="248.65372894645148" x2="336.69423364838764" y2="242.41083864193539" />
    <line x1="321.001669161936" y1="239.28939348967734" x2="289.61654018903261" y2="233.04650318516124" />
    <line x1="395.0770217747264" y1="272.412380614821" x2="364.45493103129576" y2="263.12327094267823" />
    <line x1="403.77590650225738" y1="295.53668647301794" x2="374.21176146189617" y2="283.29081663733507" />
    <line x1="329.86554390135439" y1="264.9220118838108" x2="300.30139886099323" y2="252.6761420481279" />
    <line x1="285.51932634081265" y1="246.55320713028647" x2="255.95518130045147" y2="234.3073372946036" />
    <line x1="409.49499309924465" y1="320.82169515441552" x2="395.384252869671" y2="313.27934736519956" />
    <line x1="367.16277241052364" y1="298.19465178676762" x2="353.05203218094994" y2="290.65230399755166" />
    <line x1="385.29392246050907" y1="330.11404660392037" x2="371.9904086636684" y2="321.22492287560675" />
    <line x1="358.68689486682763" y1="312.33579914729313" x2="332.07986727314619" y2="294.55755169066583" />
    <line x1="292.169325882624" y1="267.89018050572497" x2="278.86581208578326" y2="259.00105677741135" />
    <line x1="373.60209067254743" y1="345.87865683272906" x2="361.23392341874364" y2="335.72836428611072" />
    <line x1="371.73506473629425" y1="371.73506473629425" x2="360.42135623730951" y2="360.42135623730951" />
    <line x1="349.10764773832477" y1="349.10764773832477" x2="326.48023074035524" y2="326.48023074035518" />
    <line x1="292.53910524340097" y1="292.53910524340097" x2="269.91168824543144" y2="269.91168824543144" />
    <line x1="258.59797974644664" y1="258.59797974644664" x2="247.2842712474619" y2="247.2842712474619" />
    <line x1="345.87865683272912" y1="373.60209067254743" x2="335.72836428611078" y2="361.23392341874364" />
    <line x1="315.42777919287414" y1="336.497588911136" x2="305.2774866462558" y2="324.12942165733222" />
    <line x1="330.11404660392043" y1="385.29392246050907" x2="312.33579914729319" y2="358.68689486682763" />
    <line x1="294.55755169066589" y1="332.07986727314619" x2="267.89018050572497" y2="292.169325882624" />
    <line x1="283.29081663733507" y1="374.21176146189617" x2="271.0449468016522" y2="344.64761642153496" />
    <line x1="258.79907696596933" y1="315.08347138117381" x2="252.6761420481279" y2="300.30139886099323" />
    <line x1="246.55320713028647" y1="285.51932634081265" x2="240.43027221244503" y2="270.73725382063208" />
    <line x1="272.41238061482107" y1="395.0770217747264" x2="267.76782577874968" y2="379.76597640301111" />
    <line x1="263.12327094267829" y1="364.4549310312957" x2="258.4787161066069" y2="349.14388565958041" />
    <line x1="251.77517409870961" y1="383.77192710774273" x2="248.65372894645154" y2="368.079362621291" />
    <line x1="245.53228379419349" y1="352.38679813483935" x2="233.04650318516127" y2="289.61654018903261" />
    <line x1="240.17170231118513" y1="433.95990096119453" x2="237.03515382063918" y2="402.11398970768425" />
    <line x1="235.46687957536622" y1="386.19103408092906" x2="232.33033108482027" y2="354.34512282741878" />
    <line x1="219.00000000000003" y1="371" x2="219" y2="323" />
    <line x1="219" y1="259" x2="219" y2="243" />
    <line x1="199.39657193408789" y1="418.03694533443939" x2="204.1013946699068" y2="370.268078454174" />
    <line x1="176.86049044451627" y1="430.84962056709776" x2="183.1033807490324" y2="399.46449159419438" />
    <line x1="189.34627105354849" y1="368.079362621291" x2="192.46771620580654" y2="352.38679813483935" />
    <line x1="198.71060651032266" y1="321.001669161936" x2="201.83205166258071" y2="305.30910467548426" />
    <line x1="165.58761938517898" y1="395.0770217747264" x2="174.87672905732177" y2="364.45493103129576" />
    <line x1="148.5862484448235" y1="388.99383398207681" x2="154.70918336266493" y2="374.21176146189623" />
    <line x1="124.72065263480047" y1="395.384252869671" x2="132.26300042401644" y2="381.27351264009735" />
    <line x1="139.80534821323238" y1="367.16277241052364" x2="147.34769600244835" y2="353.05203218094994" />
    <line x1="98.996829667765979" y1="398.59743625734984" x2="107.88595339607961" y2="385.29392246050907" />
    <line x1="116.77507712439324" y1="371.9904086636684" x2="161.22069576596141" y2="305.47283967946476" />
    <line x1="92.12134316727095" y1="373.60209067254743" x2="102.27163571388927" y2="361.23392341874364" />
    <line x1="112.4219282605076" y1="348.86575616493985" x2="122.57222080712592" y2="336.49758891113606" />
    <line x1="66.264935263705752" y1="371.73506473629431" x2="77.578643762690518" y2="360.42135623730951" />
    <line x1="88.892352261675256" y1="349.10764773832477" x2="100.20606076066002" y2="337.79393923934003" />
    <line x1="111.51976925964479" y1="326.48023074035524" x2="122.83347775862954" y2="315.1665222413705" />
    <line x1="179.40202025355336" y1="258.59797974644664" x2="202.02943725152286" y2="235.97056274847714" />
    <line x1="64.39790932745268" y1="345.87865683272918" x2="76.766076581256442" y2="335.72836428611083" />
    <line x1="89.134243835060232" y1="325.57807173949254" x2="113.87057834266781" y2="305.27748664625585" />
    <line x1="52.706077539490963" y1="330.11404660392043" x2="79.3131051331724" y2="312.33579914729319" />
    <line x1="105.92013272685385" y1="294.55755169066589" x2="145.83067411737602" y2="267.89018050572497" />
    <line x1="42.615747130329" y1="313.27934736519956" x2="84.947967819050064" y2="290.65230399755166" />
    <line x1="19.442020977562123" y1="301.65962139085951" x2="34.2240934977427" y2="295.53668647301805" />
    <line x1="78.57031105828446" y1="277.16788171949372" x2="93.352383578465037" y2="271.04494680165226" />
    <line x1="122.91652861882621" y1="258.79907696596939" x2="137.69860113900677" y2="252.67614204812796" />
    <line x1="167.26274617936795" y1="240.43027221244506" x2="182.04481869954856" y2="234.3073372946036" />
    <line x1="27.611932853558244" y1="277.05693545089247" x2="73.545068968704271" y2="263.12327094267829" />
    <line x1="22.842943919353928" y1="258.01806440322571" x2="69.920637378708989" y2="248.65372894645157" />
    <line x1="85.613201865160676" y1="245.53228379419349" x2="101.30576635161236" y2="242.41083864193544" />
    <line x1="4.0400990388054652" y1="240.17170231118507" x2="19.963054665560605" y2="238.60342806591208" />
    <line x1="51.808965919070914" y1="235.46687957536616" x2="83.654877172581223" y2="232.33033108482022" />
    <line x1="19" y1="219.00000000000003" x2="67" y2="219.00000000000003" />
    <line x1="83" y1="219.00000000000003" x2="131" y2="219.00000000000003" />
    <line x1="147" y1="219" x2="179" y2="219" />
    <line x1="35.886010292315774" y1="200.96484617936093" x2="51.808965919070914" y2="202.53312042463389" />
    <line x1="54.228072892257273" y1="186.22482590129044" x2="69.920637378708989" y2="189.34627105354849" />
    <line x1="12.300887481842864" y1="156.2985097130362" x2="42.922978225273567" y2="165.58761938517898" />
    <line x1="58.234023596988891" y1="170.23217422125038" x2="88.8561143404196" y2="179.52128389339316" />
    <line x1="34.224093497742672" y1="142.463313526982" x2="63.788238538103855" y2="154.70918336266487" />
    <line x1="28.505006900755319" y1="117.17830484558452" x2="42.615747130329" y2="124.72065263480049" />
    <line x1="56.726487359902677" y1="132.26300042401644" x2="70.837227589476356" y2="139.80534821323241" />
    <line x1="52.706077539490906" y1="107.88595339607963" x2="66.009591336331624" y2="116.77507712439326" />
    <line x1="132.52716032053527" y1="161.22069576596141" x2="159.13418791421674" y2="178.99894322258865" />
    <line x1="76.766076581256414" y1="102.27163571388921" x2="113.87057834266778" y2="132.72251335374421" />
    <line x1="77.578643762690461" y1="77.578643762690518" x2="100.20606076066" y2="100.20606076066005" />
    <line x1="111.51976925964475" y1="111.5197692596448" x2="134.14718625761429" y2="134.14718625761432" />
    <line x1="145.46089475659903" y1="145.46089475659909" x2="156.7746032555838" y2="156.77460325558383" />
    <line x1="168.08831175456857" y1="168.08831175456859" x2="179.40202025355333" y2="179.40202025355336" />
    <line x1="190.7157287525381" y1="190.7157287525381" x2="202.02943725152286" y2="202.02943725152286" />
    <line x1="81.971050620652477" y1="52.02974207364889" x2="92.121343167270808" y2="64.39790932745268" />
    <line x1="112.42192826050749" y1="89.134243835060232" x2="122.57222080712582" y2="101.50241108886402" />
    <line x1="125.66420085270684" y1="79.3131051331724" x2="161.22069576596138" y2="132.5271603205353" />
    <line x1="170.109819494275" y1="145.83067411737602" x2="178.99894322258865" y2="159.13418791421674" />
    <line x1="139.80534821323235" y1="70.837227589476385" x2="154.89004379166428" y2="99.058708048623743" />
    <line x1="179.20092303403061" y1="122.91652861882621" x2="203.69266270539637" y2="182.04481869954856" />
    <line x1="160.9430645491075" y1="27.611932853558244" x2="174.87672905732171" y2="73.545068968704271" />
    <line x1="179.98193559677426" y1="22.842943919353928" x2="186.22482590129039" y2="54.2280728922573" />
    <line x1="189.34627105354844" y1="69.920637378708989" x2="192.46771620580648" y2="85.613201865160676" />
    <line x1="202.53312042463384" y1="51.808965919070914" x2="204.1013946699068" y2="67.731921545826054" />
  </g>
  <path fill="none" stroke="#ff0000" stroke-width="2" stroke-linecap="square" stroke-linejoin="round" d="M 229.59861765472229,3.2601814596827694 L 228.42099347086426,27.231272408606912 A 192,192 0 0,1 265.65219454142664,32.753999386647564 L 269.53987741987891,17.233499335534844 A 208,208 0 0,1 307.93145943349867,30.970227030323798 L 301.09057793861416,45.434055720298886 A 192,192 0 0,0 283.68285185130628,38.22353948486 L 278.29261419703073,53.288244527788351 A 176,176 0 0,0 261.76451166297443,48.274499437760255 L 253.98914590607,79.315499539985666 A 144,144 0 0,0 240.12918832157209,76.558582565071532 L 242.47687591285788,60.731758405635048 A 160,160 0 0,0 211.14917210761311,59.192727007172408 L 210.36408931837443,43.211999707889646 A 176,176 0 0,0 193.17543649585622,44.904934246198565 L 190.82774890457043,29.078110086762081 A 192,192 0 0,1 209.57900652913574,27.231272408606912 L 208.79392373989703,11.25054510932415 A 208,208 0 0,0 148.92691049441822,23.158834441931674 L 154.31714814869378,38.22353948486 A 192,192 0 0,0 90.0606806693724,76.737383931847916 L 79.315737391820107,64.882165926168568 A 208,208 0 0,0 40.592449119943382,112.06662920780993 L 68.0397646399521,128.51791702199301 A 176,176 0 0,1 77.635474459406424,114.15692240933181 L 90.48679496309677,123.68811128121074 A 160,160 0 0,0 68.352949570716646,165.09762345724488 L 53.288244527788322,159.70738580296936 A 176,176 0 0,0 44.904934246198565,193.1754364958563 L 60.731758405635048,195.52312408714209 A 160,160 0 0,0 59.192727007172408,211.14917210761317 L 27.231272408606884,209.5790065291358 A 192,192 0 0,1 32.753999386647536,172.34780545857336 L 17.233499335534844,168.46012258012115 A 208,208 0 0,0 11.25054510932415,229.20607626010295 L 27.231272408606912,228.42099347086426 A 192,192 0 0,0 29.078110086762081,247.17225109542957 L 13.251285927325569,249.51993868671536 A 208,208 0 0,0 23.158834441931674,289.07308950558172 L 38.22353948486,283.68285185130622 A 192,192 0 0,0 45.434055720298915,301.09057793861427 L 30.970227030323827,307.93145943349873 A 208,208 0 0,0 51.932833452025818,342.90545533442611 L 77.635474459406481,323.84307759066826 A 176,176 0 0,0 88.592601937527235,337.1943760530753 L 76.737383931847887,347.93931933062754 A 192,192 0 0,0 90.060680669372459,361.26261606815217 L 79.315737391820164,373.11783407383149 A 208,208 0 0,0 95.094544665573878,386.06716654797413 L 104.62573353745282,373.21584604428381 A 192,192 0 0,0 120.29227311490146,383.68389312005229 L 112.06662920780991,397.40755088005665 A 208,208 0 0,0 168.46012258012112,420.76650066446518 L 172.34780545857336,405.24600061335241 A 192,192 0 0,1 136.9094220613859,392.56594427970117 L 143.75030355627041,378.10211558972605 A 176,176 0 0,1 128.51791702199301,369.96023536004793 L 144.96920483617609,342.51291984003922 A 144,144 0 0,0 170.48786111152032,354.582345386355 L 175.87809876579581,339.51764034342665 A 128,128 0 0,1 158.6612176862723,331.88592183658943 L 166.20356547548826,317.77518160701578 A 112,112 0 0,0 208.02208028308922,330.46068938728604 L 209.59035452836218,314.5377337605309 A 96,96 0 0,0 228.40964547163785,314.5377337605309 L 231.54619396218379,346.38364501404118 A 128,128 0 0,1 225.28066231390949,346.8458183942621 L 226.85082789238689,378.80727299282762 A 160,160 0 0,1 211.14917210761317,378.80727299282762 L 211.93425489685185,362.82654569354486 A 144,144 0 0,1 197.87081167842794,361.44141743492844 L 195.52312408714215,377.26824159436495 A 160,160 0 0,1 180.12317121547778,374.20500051112708 L 176.23548833702557,389.72550056223974 A 176,176 0 0,0 193.17543649585636,393.09506575380146 L 188.48006131328481,424.74871407267449 A 208,208 0 0,0 229.20607626010295,426.74945489067585 L 228.42099347086426,410.76872759139309 A 192,192 0 0,1 209.5790065291358,410.76872759139314 L 210.36408931837448,394.78800029211038 A 176,176 0 0,0 261.76451166297448,389.72550056223974 L 257.87682878452222,374.205000511127 A 160,160 0 0,0 272.90237654275523,369.6470504292833 L 262.12190123420419,339.51764034342665 A 128,128 0 0,0 279.33878231372773,331.88592183658943 L 271.79643452451177,317.77518160701572 A 112,112 0 0,1 251.51188385249978,326.17731760200741 L 242.222774180357,295.5552268585767 A 80,80 0 0,0 269.75146273309161,280.84083626901895 L 290.05204782632831,305.57717077662653 A 112,112 0 0,0 317.77518160701578,271.79643452451171 L 303.66444137744207,264.2540867352958 A 96,96 0 0,1 293.20900352282274,279.90175527970996 L 268.47266901521516,259.60117018647333 A 64,64 0 0,1 254.55649491325454,272.21405518736287 L 245.66737118494089,258.91054139052216 A 48,48 0 0,1 192.33262881505911,258.91054139052221 L 201.22175254337273,245.60702759368147 A 32,32 0 0,0 206.75413016431713,248.56414504036118 L 209.81559762323786,241.17310878027089" />
  <type>Circular</type>
</svg>