<?xml version="1.0" encoding="utf-8" standalone="no"?>
<!DOCTYPE svg PUBLIC "-//W3C//DTD SVG 1.1//EN" "http://www.w3.org/Graphics/SVG/1.1/DTD/svg11.dtd"[]>
<svg width="436" height="436" version="1.1" xmlns="http://www.w3.org/2000/svg">
  <title>27 cells diameter theta maze</title>
  <g fill="none" stroke="#000000" stroke-width="2" stroke-linecap="square">
    <path d="M 202.02943725152286,235.97056274847714 A 24,24 0 1,1 219,243" />
    <path d="M 203.69266270539637,182.04481869954856 A 40,40 0 0,1 219,179" />
    <path d="M 234.3073372946036,182.04481869954853 A 40,40 0 0,1 255.95518130045147,234.3073372946036" />
    <path d="M 219,259 A 40,40 0 0,1 190.7157287525381,247.2842712474619" />
    <path d="M 182.04481869954853,234.3073372946036 A 40,40 0 0,1 179,219" />
    <path d="M 219,163 A 56,56 0 0,1 240.43027221244503,167.26274617936795" />
    <path d="M 275,219 A 56,56 0 0,1 179.40202025355336,258.59797974644664" />
    <path d="M 163,219 A 56,56 0 0,1 167.26274617936795,197.56972778755497" />
    <path d="M 191.44679286971348,152.48067365918737 A 72,72 0 0,1 233.04650318516124,148.3834598109674" />
    <path d="M 246.55320713028647,152.48067365918735 A 72,72 0 0,1 291,219" />
    <path d="M 289.61654018903261,233.04650318516124 A 72,72 0 0,1 285.51932634081265,246.55320713028647" />
    <path d="M 278.86581208578326,259.00105677741135 A 72,72 0 0,1 269.91168824543144,269.91168824543144" />
    <path d="M 259.00105677741135,278.86581208578326 A 72,72 0 0,1 246.55320713028647,285.51932634081265" />
    <path d="M 219,291 A 72,72 0 0,1 204.95349681483876,289.61654018903261" />
    <path d="M 191.44679286971353,285.51932634081265 A 72,72 0 0,1 152.48067365918737,246.5532071302865" />
    <path d="M 148.3834598109674,233.04650318516127 A 72,72 0 0,1 147,219" />
    <path d="M 148.3834598109674,204.95349681483876 A 72,72 0 0,1 178.99894322258865,159.13418791421674" />
    <path d="M 201.83205166258068,132.69089532451574 A 88,88 0 0,1 252.6761420481279,137.69860113900677" />
    <path d="M 267.89018050572497,145.83067411737602 A 88,88 0 0,1 292.169325882624,170.109819494275" />
    <path d="M 300.30139886099323,185.3238579518721 A 88,88 0 0,1 305.30910467548426,201.83205166258071" />
    <path d="M 307,219 A 88,88 0 0,1 305.30910467548426,236.16794833741929" />
    <path d="M 300.30139886099323,252.6761420481279 A 88,88 0 0,1 292.169325882624,267.89018050572497" />
    <path d="M 281.22539674441617,281.22539674441617 A 88,88 0 0,1 252.6761420481279,300.30139886099323" />
    <path d="M 236.16794833741932,305.30910467548426 A 88,88 0 0,1 219,307" />
    <path d="M 201.83205166258071,305.30910467548426 A 88,88 0 0,1 145.83067411737602,267.89018050572497" />
    <path d="M 137.69860113900677,252.67614204812796 A 88,88 0 0,1 131,219.00000000000003" />
    <path d="M 137.69860113900677,185.32385795187207 A 88,88 0 0,1 145.830674117376,170.10981949427503" />
    <path d="M 170.109819494275,145.83067411737602 A 88,88 0 0,1 185.32385795187204,137.69860113900677" />
    <path d="M 258.79907696596933,122.91652861882618 A 104,104 0 0,1 315.08347138117381,179.20092303403067" />
    <path d="M 321.001669161936,198.71060651032266 A 104,104 0 0,1 315.08347138117381,258.79907696596933" />
    <path d="M 305.47283967946476,276.77930423403859 A 104,104 0 0,1 292.53910524340097,292.53910524340097" />
    <path d="M 258.79907696596933,315.08347138117381 A 104,104 0 0,1 179.20092303403067,315.08347138117381" />
    <path d="M 161.22069576596141,305.47283967946476 A 104,104 0 0,1 145.46089475659909,292.53910524340097" />
    <path d="M 132.5271603205353,276.77930423403865 A 104,104 0 0,1 122.91652861882621,258.79907696596939" />
    <path d="M 122.91652861882619,179.20092303403064 A 104,104 0 0,1 198.71060651032261,116.99833083806405" />
    <path d="M 242.41083864193539,101.30576635161235 A 120,120 0 0,1 264.9220118838108,108.13445609864559" />
    <path d="M 285.66842796235227,119.22364652369457 A 120,120 0 0,1 303.85281374238571,134.14718625761429" />
    <path d="M 318.77635347630542,152.33157203764773 A 120,120 0 0,1 336.69423364838764,195.58916135806459" />
    <path d="M 339,219 A 120,120 0 0,1 303.85281374238571,303.85281374238571" />
    <path d="M 285.66842796235227,318.77635347630542 A 120,120 0 0,1 219.00000000000003,339" />
    <path d="M 173.07798811618926,329.86554390135439 A 120,120 0 0,1 152.33157203764779,318.77635347630547" />
    <path d="M 119.22364652369457,285.66842796235227 A 120,120 0 0,1 101.30576635161235,242.41083864193544" />
    <path d="M 101.30576635161235,195.58916135806462 A 120,120 0 0,1 108.1344560986456,173.0779881161892" />
    <path d="M 119.22364652369454,152.33157203764779 A 120,120 0 0,1 134.14718625761429,134.14718625761432" />
    <path d="M 152.33157203764773,119.22364652369457 A 120,120 0 0,1 173.07798811618915,108.13445609864561" />
    <path d="M 166.95505319834771,93.352383578465037 A 136,136 0 0,1 271.0449468016522,93.352383578465" />
    <path d="M 283.10995620833569,99.058708048623714 A 136,136 0 0,1 294.55755169066589,105.92013272685385" />
    <path d="M 305.2774866462558,113.87057834266777 A 136,136 0 0,1 338.94129195137629,154.89004379166431" />
    <path d="M 349.14388565958041,179.52128389339313 A 136,136 0 0,1 352.38679813483935,192.46771620580654" />
    <path d="M 354.34512282741878,205.66966891517973 A 136,136 0 0,1 355,219" />
    <path d="M 354.34512282741878,232.33033108482024 A 136,136 0 0,1 352.38679813483935,245.53228379419343" />
    <path d="M 344.647616421535,271.0449468016522 A 136,136 0 0,1 338.94129195137629,283.10995620833569" />
    <path d="M 324.12942165733227,305.27748664625574 A 136,136 0 0,1 294.55755169066589,332.07986727314619" />
    <path d="M 258.4787161066069,349.14388565958041 A 136,136 0 0,1 232.33033108482027,354.34512282741878" />
    <path d="M 205.66966891517976,354.34512282741878 A 136,136 0 0,1 192.46771620580654,352.38679813483935" />
    <path d="M 132.72251335374423,324.12942165733227 A 136,136 0 0,1 113.87057834266781,305.27748664625585" />
    <path d="M 99.058708048623728,283.10995620833569 A 136,136 0 0,1 93.352383578465037,271.04494680165226" />
    <path d="M 85.613201865160676,245.53228379419349 A 136,136 0 0,1 83.654877172581223,205.66966891517984" />
    <path d="M 85.613201865160647,192.46771620580654 A 136,136 0 0,1 88.8561143404196,179.52128389339316" />
    <path d="M 93.352383578465009,166.95505319834777 A 136,136 0 0,1 113.87057834266778,132.72251335374421" />
    <path d="M 122.83347775862951,122.83347775862956 A 136,136 0 0,1 154.89004379166428,99.058708048623743" />
    <path d="M 147.34769600244832,84.947967819050064 A 152,152 0 0,1 263.12327094267829,73.545068968704243" />
    <path d="M 277.16788171949366,78.5703110582844 A 152,152 0 0,1 290.65230399755166,84.947967819050035" />
    <path d="M 303.44667541897957,92.616618930013118 A 152,152 0 0,1 326.48023074035524,111.51976925964478" />
    <path d="M 345.38338106998685,134.55332458102046 A 152,152 0 0,1 353.05203218094994,147.34769600244835" />
    <path d="M 368.079362621291,189.34627105354849 A 152,152 0 0,1 371,219" />
    <path d="M 368.079362621291,248.65372894645148 A 152,152 0 0,1 359.4296889417156,277.16788171949361" />
    <path d="M 315.42777919287414,336.497588911136 A 152,152 0 0,1 290.65230399755166,353.05203218094994" />
    <path d="M 219.00000000000003,371 A 152,152 0 0,1 160.83211828050636,359.4296889417156" />
    <path d="M 147.34769600244835,353.05203218094994 A 152,152 0 0,1 134.55332458102049,345.38338106998691" />
    <path d="M 122.57222080712592,336.49758891113606 A 152,152 0 0,1 111.51976925964479,326.48023074035524" />
    <path d="M 101.50241108886402,315.42777919287414 A 152,152 0 0,1 92.616618930013118,303.44667541897951" />
    <path d="M 84.947967819050064,290.65230399755171 A 152,152 0 0,1 69.92063737870896,189.34627105354849" />
    <path d="M 73.545068968704243,174.87672905732177 A 152,152 0 0,1 78.570311058284432,160.83211828050634" />
    <path d="M 84.947967819050035,147.34769600244837 A 152,152 0 0,1 92.61661893001309,134.55332458102052" />
    <path d="M 122.57222080712582,101.50241108886404 A 152,152 0 0,1 134.55332458102046,92.616618930013118" />
    <path d="M 251.77517409870956,54.228072892257273 A 168,168 0 0,1 267.76782577874968,58.234023596988919" />
    <path d="M 312.33579914729319,79.3131051331724 A 168,168 0 0,1 325.57807173949243,89.134243835060175" />
    <path d="M 337.79393923934,100.20606076066001 A 168,168 0 0,1 374.21176146189617,154.70918336266493" />
    <path d="M 379.76597640301111,170.23217422125032 A 168,168 0 0,1 383.77192710774273,186.22482590129044" />
    <path d="M 374.21176146189617,283.29081663733507 A 168,168 0 0,1 367.16277241052364,298.19465178676762" />
    <path d="M 358.68689486682763,312.33579914729313 A 168,168 0 0,1 312.33579914729319,358.68689486682763" />
    <path d="M 298.19465178676762,367.16277241052364 A 168,168 0 0,1 283.29081663733507,374.21176146189617" />
    <path d="M 267.76782577874968,379.76597640301111 A 168,168 0 0,1 219.00000000000003,387" />
    <path d="M 202.53312042463381,386.19103408092906 A 168,168 0 0,1 154.70918336266493,374.21176146189617" />
    <path d="M 139.80534821323241,367.16277241052364 A 168,168 0 0,1 112.42192826050759,348.86575616493985" />
    <path d="M 70.837227589476385,298.19465178676762 A 168,168 0 0,1 51,219.00000000000003" />
    <path d="M 58.234023596988891,170.23217422125038 A 168,168 0 0,1 70.837227589476356,139.80534821323241" />
    <path d="M 79.313105133172371,125.66420085270688 A 168,168 0 0,1 89.1342438350602,112.42192826050754" />
    <path d="M 112.42192826050749,89.134243835060261 A 168,168 0 0,1 154.70918336266482,63.788238538103855" />
    <path d="M 170.23217422125032,58.234023596988919 A 168,168 0 0,1 202.53312042463384,51.808965919070914" />
    <path d="M 272.41238061482107,42.922978225273567 A 184,184 0 0,1 335.72836428611078,76.766076581256385" />
    <path d="M 381.27351264009735,132.26300042401641 A 184,184 0 0,1 399.46449159419444,183.1033807490324" />
    <path d="M 402.11398970768425,200.96484617936082 A 184,184 0 0,1 402.11398970768425,237.03515382063915" />
    <path d="M 388.99383398207681,289.41375155517653 A 184,184 0 0,1 349.10764773832477,349.10764773832477" />
    <path d="M 335.72836428611078,361.23392341874364 A 184,184 0 0,1 305.73699957598359,381.27351264009729" />
    <path d="M 289.41375155517653,388.99383398207675 A 184,184 0 0,1 237.03515382063918,402.11398970768425" />
    <path d="M 219.00000000000003,403 A 184,184 0 0,1 183.1033807490324,399.46449159419444" />
    <path d="M 148.58624844482353,388.99383398207681 A 184,184 0 0,1 132.26300042401644,381.27351264009735" />
    <path d="M 116.77507712439325,371.99040866366835 A 184,184 0 0,1 56.726487359902706,305.73699957598365" />
    <path d="M 42.922978225273567,272.41238061482107 A 184,184 0 0,1 35.886010292315774,237.03515382063912" />
    <path d="M 35,219.00000000000003 A 184,184 0 0,1 49.006166017923249,148.58624844482344" />
    <path d="M 66.009591336331624,116.77507712439326 A 184,184 0 0,1 165.5876193851789,42.922978225273567" />
    <path d="M 183.10338074903231,38.535508405805615 A 184,184 0 0,1 200.96484617936088,35.886010292315774" />
    <path d="M 199.39657193408789,19.963054665560634 A 200,200 0 0,1 258.01806440322565,22.8429439193539" />
    <path d="M 277.05693545089247,27.611932853558216 A 200,200 0 0,1 295.53668647301794,34.224093497742643" />
    <path d="M 330.11404660392043,52.706077539490963 A 200,200 0 0,1 360.42135623730951,77.57864376269049" />
    <path d="M 373.60209067254738,92.1213431672709 A 200,200 0 0,1 385.29392246050907,107.88595339607954" />
    <path d="M 395.384252869671,124.72065263480044 A 200,200 0 0,1 403.77590650225738,142.46331352698203" />
    <path d="M 415.1570560806461,179.98193559677435 A 200,200 0 0,1 418.03694533443934,199.39657193408783" />
    <path d="M 419,219 A 200,200 0 0,1 418.03694533443934,238.60342806591214" />
    <path d="M 395.384252869671,313.27934736519956 A 200,200 0 0,1 385.29392246050907,330.11404660392043" />
    <path d="M 345.87865683272912,373.60209067254743 A 200,200 0 0,1 330.11404660392043,385.29392246050907" />
    <path d="M 295.536686473018,403.77590650225738 A 200,200 0 0,1 160.94306454910759,410.38806714644181" />
    <path d="M 92.121343167270936,373.60209067254743 A 200,200 0 0,1 77.578643762690518,360.42135623730951" />
    <path d="M 64.39790932745268,345.87865683272918 A 200,200 0 0,1 52.706077539490934,330.11404660392043" />
    <path d="M 42.615747130329027,313.27934736519956 A 200,200 0 0,1 22.842943919353928,258.01806440322571" />
    <path d="M 19.963054665560634,238.60342806591208 A 200,200 0 0,1 19,219.00000000000003" />
    <path d="M 22.8429439193539,179.98193559677435 A 200,200 0 0,1 64.397909327452624,92.121343167270879" />
    <path d="M 77.578643762690461,77.578643762690518 A 200,200 0 0,1 107.88595339607956,52.706077539490963" />
    <path d="M 124.72065263480042,42.615747130329027 A 200,200 0 0,1 160.9430645491075,27.611932853558244" />
    <path d="M 240.1717023111851,4.0400990388054652 A 216,216 0 1,1 219,3" />
  </g>
  <g fill="none" stroke="#000000" stroke-width="2" stroke-linecap="butt">
    <line x1="219" y1="19" x2="219" y2="67" />
    <line x1="219" y1="99" x2="219" y2="131" />
    <line x1="219" y1="147" x2="219" y2="179" />
    <line x1="238.60342806591211" y1="19.963054665560605" x2="235.46687957536619" y2="51.808965919070914" />
    <line x1="261.1395095554837" y1="7.1503794329022412" x2="254.8966192509676" y2="38.535508405805615" />
    <line x1="245.53228379419343" y1="85.613201865160647" x2="242.41083864193539" y2="101.30576635161235" />
    <line x1="239.28939348967734" y1="116.99833083806404" x2="236.16794833741929" y2="132.69089532451574" />
    <line x1="277.05693545089247" y1="27.611932853558244" x2="272.41238061482107" y2="42.922978225273567" />
    <line x1="267.76782577874968" y1="58.234023596988919" x2="263.12327094267829" y2="73.545068968704271" />
    <line x1="289.41375155517653" y1="49.006166017923249" x2="283.29081663733507" y2="63.788238538103826" />
    <line x1="277.16788171949366" y1="78.5703110582844" x2="271.0449468016522" y2="93.352383578465009" />
    <line x1="264.9220118838108" y1="108.13445609864559" x2="258.79907696596933" y2="122.91652861882618" />
    <line x1="252.6761420481279" y1="137.69860113900677" x2="246.55320713028647" y2="152.48067365918735" />
    <line x1="240.43027221244503" y1="167.26274617936795" x2="234.3073372946036" y2="182.04481869954853" />
    <line x1="313.27934736519956" y1="42.615747130329" x2="305.73699957598353" y2="56.726487359902677" />
    <line x1="298.19465178676762" y1="70.837227589476356" x2="283.10995620833569" y2="99.058708048623714" />
    <line x1="330.11404660392043" y1="52.706077539490963" x2="321.22492287560681" y2="66.009591336331681" />
    <line x1="294.55755169066589" y1="105.92013272685385" x2="285.66842796235227" y2="119.22364652369457" />
    <line x1="276.77930423403865" y1="132.5271603205353" x2="267.89018050572497" y2="145.83067411737602" />
    <line x1="335.72836428611078" y1="76.766076581256385" x2="325.57807173949243" y2="89.134243835060175" />
    <line x1="360.42135623730951" y1="77.57864376269049" x2="326.48023074035518" y2="111.51976925964478" />
    <line x1="315.16652224137044" y1="122.83347775862953" x2="303.85281374238571" y2="134.14718625761429" />
    <line x1="269.91168824543144" y1="168.08831175456857" x2="258.59797974644664" y2="179.40202025355333" />
    <line x1="247.2842712474619" y1="190.7157287525381" x2="235.97056274847714" y2="202.02943725152286" />
    <line x1="373.60209067254743" y1="92.121343167270908" x2="336.497588911136" y2="122.57222080712589" />
    <line x1="385.29392246050907" y1="107.88595339607954" x2="371.99040866366829" y2="116.77507712439318" />
    <line x1="358.68689486682763" y1="125.66420085270681" x2="345.38338106998685" y2="134.55332458102043" />
    <line x1="332.07986727314614" y1="143.44244830933408" x2="318.77635347630542" y2="152.33157203764773" />
    <line x1="409.49499309924465" y1="117.17830484558448" x2="381.27351264009729" y2="132.26300042401641" />
    <line x1="353.05203218094994" y1="147.34769600244835" x2="338.94129195137629" y2="154.89004379166431" />
    <line x1="374.21176146189617" y1="154.7091833626649" x2="344.64761642153496" y2="166.9550531983478" />
    <line x1="315.08347138117381" y1="179.20092303403067" x2="300.30139886099323" y2="185.3238579518721" />
    <line x1="285.51932634081265" y1="191.44679286971353" x2="255.95518130045147" y2="203.6926627053964" />
    <line x1="410.38806714644181" y1="160.94306454910753" x2="395.0770217747264" y2="165.58761938517893" />
    <line x1="379.76597640301111" y1="170.23217422125032" x2="349.14388565958041" y2="179.52128389339313" />
    <line x1="415.1570560806461" y1="179.98193559677435" x2="368.079362621291" y2="189.34627105354849" />
    <line x1="336.69423364838764" y1="195.58916135806459" x2="321.001669161936" y2="198.71060651032266" />
    <line x1="418.03694533443934" y1="199.39657193408783" x2="386.19103408092906" y2="202.53312042463378" />
    <line x1="370.26807845417392" y1="204.10139466990677" x2="354.34512282741878" y2="205.66966891517973" />
    <line x1="435" y1="219" x2="419" y2="219" />
    <line x1="387" y1="219" x2="371" y2="219" />
    <line x1="323" y1="219" x2="307" y2="219" />
    <line x1="402.11398970768425" y1="237.03515382063915" x2="354.34512282741878" y2="232.33033108482024" />
    <line x1="430.84962056709776" y1="261.1395095554837" x2="383.77192710774273" y2="251.77517409870953" />
    <line x1="352.38679813483935" y1="245.53228379419343" x2="336.69423364838764" y2="242.41083864193539" />
    <line x1="425.69911251815711" y1="281.7014902869638" x2="349.14388565958041" y2="258.47871610660684" />
    <line x1="418.55797902243796" y1="301.6596213908594" x2="403.77590650225738" y2="295.53668647301794" />
    <line x1="344.64761642153496" y1="271.0449468016522" x2="329.86554390135439" y2="264.9220118838108" />
    <line x1="300.30139886099323" y1="252.6761420481279" x2="270.73725382063208" y2="240.43027221244503" />
    <line x1="395.384252869671" y1="313.27934736519956" x2="381.27351264009735" y2="305.73699957598359" />
    <line x1="367.16277241052364" y1="298.19465178676762" x2="338.94129195137629" y2="283.10995620833569" />
    <line x1="398.59743625734984" y1="339.00317033223405" x2="385.29392246050907" y2="330.11404660392037" />
    <line x1="358.68689486682763" y1="312.33579914729313" x2="332.07986727314619" y2="294.55755169066583" />
    <line x1="305.47283967946476" y1="276.77930423403859" x2="292.169325882624" y2="267.89018050572497" />
    <line x1="373.60209067254743" y1="345.87865683272906" x2="361.23392341874364" y2="335.72836428611072" />
    <line x1="336.49758891113606" y1="315.42777919287408" x2="324.12942165733227" y2="305.27748664625574" />
    <line x1="371.73506473629425" y1="371.73506473629425" x2="360.42135623730951" y2="360.42135623730951" />
    <line x1="337.79393923934" y1="337.79393923934" x2="326.48023074035524" y2="326.48023074035518" />
    <line x1="269.91168824543144" y1="269.91168824543144" x2="247.2842712474619" y2="247.2842712474619" />
    <line x1="335.72836428611078" y1="361.23392341874364" x2="325.57807173949243" y2="348.86575616493985" />
    <line x1="339.00317033223405" y1="398.59743625734978" x2="330.11404660392043" y2="385.29392246050907" />
    <line x1="312.33579914729319" y1="358.68689486682763" x2="303.44667541897957" y2="345.38338106998691" />
    <line x1="294.55755169066589" y1="332.07986727314619" x2="267.89018050572497" y2="292.169325882624" />
    <line x1="313.27934736519956" y1="395.384252869671" x2="298.19465178676762" y2="367.16277241052364" />
    <line x1="290.65230399755166" y1="353.05203218094994" x2="283.10995620833569" y2="338.94129195137629" />
    <line x1="289.41375155517653" y1="388.99383398207675" x2="283.29081663733507" y2="374.21176146189617" />
    <line x1="277.16788171949366" y1="359.4296889417156" x2="264.9220118838108" y2="329.86554390135439" />
    <line x1="246.55320713028647" y1="285.51932634081265" x2="234.3073372946036" y2="255.95518130045147" />
    <line x1="267.76782577874968" y1="379.76597640301111" x2="263.12327094267829" y2="364.4549310312957" />
    <line x1="251.77517409870961" y1="383.77192710774273" x2="245.53228379419349" y2="352.38679813483935" />
    <line x1="242.41083864193544" y1="336.69423364838764" x2="239.28939348967737" y2="321.001669161936" />
    <line x1="236.16794833741932" y1="305.30910467548426" x2="233.04650318516127" y2="289.61654018903261" />
    <line x1="237.03515382063918" y1="402.11398970768425" x2="235.46687957536622" y2="386.19103408092906" />
    <line x1="233.89860533009323" y1="370.26807845417392" x2="232.33033108482027" y2="354.34512282741878" />
    <line x1="219.00000000000003" y1="419" x2="219.00000000000003" y2="339" />
    <line x1="219" y1="323" x2="219" y2="275" />
    <line x1="219" y1="259" x2="219" y2="243" />
    <line x1="192.46771620580654" y1="352.38679813483935" x2="198.71060651032266" y2="321.001669161936" />
    <line x1="160.94306454910759" y1="410.38806714644181" x2="165.58761938517898" y2="395.0770217747264" />
    <line x1="174.87672905732177" y1="364.45493103129576" x2="179.52128389339316" y2="349.14388565958041" />
    <line x1="142.46331352698206" y1="403.77590650225738" x2="154.70918336266493" y2="374.21176146189623" />
    <line x1="166.9550531983478" y1="344.647616421535" x2="179.20092303403067" y2="315.08347138117381" />
    <line x1="185.3238579518721" y1="300.30139886099323" x2="191.44679286971353" y2="285.51932634081265" />
    <line x1="124.72065263480047" y1="395.384252869671" x2="139.80534821323238" y2="367.16277241052364" />
    <line x1="147.34769600244835" y1="353.05203218094994" x2="154.89004379166431" y2="338.94129195137629" />
    <line x1="98.996829667765979" y1="398.59743625734984" x2="116.77507712439324" y2="371.9904086636684" />
    <line x1="134.55332458102049" y1="345.38338106998691" x2="152.33157203764776" y2="318.77635347630547" />
    <line x1="161.22069576596141" y1="305.47283967946476" x2="170.10981949427503" y2="292.169325882624" />
    <line x1="102.27163571388927" y1="361.23392341874364" x2="122.57222080712592" y2="336.49758891113606" />
    <line x1="66.264935263705752" y1="371.73506473629431" x2="77.578643762690518" y2="360.42135623730951" />
    <line x1="100.20606076066002" y1="337.79393923934003" x2="134.14718625761429" y2="303.85281374238571" />
    <line x1="179.40202025355336" y1="258.59797974644664" x2="190.7157287525381" y2="247.2842712474619" />
    <line x1="64.39790932745268" y1="345.87865683272918" x2="101.50241108886402" y2="315.4277791928742" />
    <line x1="66.009591336331681" y1="321.22492287560681" x2="79.3131051331724" y2="312.33579914729319" />
    <line x1="92.616618930013118" y1="303.44667541897957" x2="119.22364652369457" y2="285.66842796235227" />
    <line x1="34.2240934977427" y1="295.53668647301805" x2="63.788238538103855" y2="283.29081663733518" />
    <line x1="93.352383578465037" y1="271.04494680165226" x2="108.13445609864561" y2="264.92201188381085" />
    <line x1="122.91652861882621" y1="258.79907696596939" x2="182.04481869954856" y2="234.3073372946036" />
    <line x1="73.545068968704271" y1="263.12327094267829" x2="88.8561143404196" y2="258.4787161066069" />
    <line x1="38.535508405805615" y1="254.89661925096766" x2="54.2280728922573" y2="251.77517409870961" />
    <line x1="85.613201865160676" y1="245.53228379419349" x2="116.99833083806405" y2="239.28939348967737" />
    <line x1="19.963054665560605" y1="238.60342806591208" x2="35.886010292315774" y2="237.03515382063912" />
    <line x1="3" y1="219.00000000000003" x2="19" y2="219.00000000000003" />
    <line x1="35" y1="219.00000000000003" x2="51" y2="219.00000000000003" />
    <line x1="99" y1="219.00000000000003" x2="147" y2="219" />
    <line x1="179" y1="219" x2="195" y2="219" />
    <line x1="19.963054665560605" y1="199.39657193408797" x2="51.808965919070914" y2="202.53312042463389" />
    <line x1="67.731921545826054" y1="204.10139466990688" x2="83.654877172581223" y2="205.66966891517984" />
    <line x1="7.1503794329022412" y1="176.8604904445163" x2="22.8429439193539" y2="179.98193559677435" />
    <line x1="54.228072892257273" y1="186.22482590129044" x2="69.920637378708989" y2="189.34627105354849" />
    <line x1="85.613201865160647" y1="192.46771620580654" x2="101.30576635161235" y2="195.58916135806462" />
    <line x1="116.99833083806404" y1="198.71060651032266" x2="148.3834598109674" y2="204.95349681483876" />
    <line x1="73.545068968704243" y1="174.87672905732177" x2="88.8561143404196" y2="179.52128389339316" />
    <line x1="93.352383578465023" y1="166.95505319834777" x2="108.1344560986456" y2="173.0779881161892" />
    <line x1="122.91652861882619" y1="179.20092303403064" x2="137.69860113900677" y2="185.32385795187207" />
    <line x1="152.48067365918735" y1="191.44679286971353" x2="182.04481869954853" y2="203.6926627053964" />
    <line x1="42.615747130329" y1="124.72065263480049" x2="99.058708048623714" y2="154.89004379166431" />
    <line x1="89.1342438350602" y1="112.42192826050754" x2="113.87057834266778" y2="132.72251335374421" />
    <line x1="100.20606076066" y1="100.20606076066005" x2="122.83347775862951" y2="122.83347775862956" />
    <line x1="134.14718625761429" y1="134.14718625761432" x2="168.08831175456857" y2="168.08831175456859" />
    <line x1="179.40202025355333" y1="179.40202025355336" x2="202.02943725152286" y2="202.02943725152286" />
    <line x1="112.42192826050749" y1="89.134243835060232" x2="122.57222080712582" y2="101.50241108886402" />
    <line x1="107.88595339607957" y1="52.706077539490963" x2="116.77507712439319" y2="66.009591336331681" />
    <line x1="143.44244830933411" y1="105.92013272685385" x2="152.33157203764773" y2="119.22364652369457" />
    <line x1="117.17830484558445" y1="28.505006900755347" x2="124.72065263480042" y2="42.615747130329027" />
    <line x1="148.58624844482335" y1="49.006166017923277" x2="154.70918336266482" y2="63.788238538103855" />
    <line x1="166.95505319834771" y1="93.352383578465037" x2="173.07798811618915" y2="108.13445609864561" />
    <line x1="179.20092303403061" y1="122.91652861882621" x2="191.44679286971348" y2="152.48067365918737" />
    <line x1="197.56972778755494" y1="167.26274617936795" x2="203.69266270539637" y2="182.04481869954856" />
    <line x1="160.9430645491075" y1="27.611932853558244" x2="165.5876193851789" y2="42.922978225273567" />
    <line x1="174.87672905732171" y1="73.545068968704271" x2="179.5212838933931" y2="88.8561143404196" />
    <line x1="176.86049044451619" y1="7.1503794329022412" x2="179.98193559677426" y2="22.842943919353928" />
    <line x1="192.46771620580648" y1="85.613201865160676" x2="198.71060651032261" y2="116.99833083806405" />
    <line x1="199.39657193408789" y1="19.963054665560605" x2="202.53312042463384" y2="51.808965919070914" />
  </g>
  <path fill="none" stroke="#ff0000" stroke-width="2" stroke-linecap="square" stroke-linejoin="round" d="M 229.59861765472229,3.2601814596827694 L 229.20607626010295,11.25054510932415 A 208,208 0 0,0 188.48006131328464,13.251285927325569 L 190.82774890457043,29.078110086762081 A 192,192 0 0,0 172.34780545857328,32.753999386647564 L 176.23548833702552,48.274499437760284 A 176,176 0 0,0 159.70738580296927,53.288244527788351 L 165.09762345724479,68.352949570716675 A 160,160 0 0,0 136.74356092908448,81.763422399956482 L 144.96920483617606,95.48708015996084 A 144,144 0 0,0 122.29551050202932,112.30303794888593 L 100.80562394692471,88.592601937527235 A 176,176 0 0,0 88.5926019375272,100.80562394692477 L 124.15825595456523,133.04045377958164 A 128,128 0 0,0 106.11407816341055,158.66121768627232 L 120.22481839298423,166.20356547548829 A 112,112 0 0,0 107.53931061271395,208.02208028308928 L 91.6163549859588,206.45380603781632 A 128,128 0 0,0 91.6163549859588,231.54619396218374 L 123.4622662394691,228.40964547163782 A 96,96 0 0,0 127.13372776970795,246.86732901642839 L 111.82268239799261,251.51188385249981 A 112,112 0 0,0 166.20356547548826,317.77518160701578 L 173.74591326470423,303.66444137744207 A 96,96 0 0,0 209.59035452836218,314.5377337605309 L 211.15862877363514,298.61477813377576 A 80,80 0 0,1 195.77722581964304,295.5552268585767 L 200.42178065571443,280.24418148686135 A 64,64 0 0,1 165.7859448126371,254.55649491325454 L 192.39297240631856,236.77824745662727 A 32,32 0 0,0 206.75413016431713,248.56414504036118 L 209.81559762323786,241.17310878027089" />
  <type>Circular</type>
</svg>