<?xml version="1.0" encoding="utf-8" standalone="no"?>
<!DOCTYPE svg PUBLIC "-//W3C//DTD SVG 1.1//EN" "http://www.w3.org/Graphics/SVG/1.1/DTD/svg11.dtd"[]>
<svg width="436" height="436" version="1.1" xmlns="http://www.w3.org/2000/svg">
  <title>27 cells diameter theta maze</title>
  <g fill="none" stroke="#000000" stroke-width="2" stroke-linecap="square">
    <path d="M 202.02943725152286,235.97056274847714 A 24,24 0 1,1 219,243" />
    <path d="M 182.04481869954853,203.6926627053964 A 40,40 0 0,1 234.3073372946036,182.04481869954853" />
    <path d="M 247.2842712474619,190.7157287525381 A 40,40 0 0,1 255.95518130045147,203.6926627053964" />
    <path d="M 255.95518130045147,234.3073372946036 A 40,40 0 0,1 190.7157287525381,247.2842712474619" />
    <path d="M 182.04481869954853,234.3073372946036 A 40,40 0 0,1 179,219" />
    <path d="M 197.56972778755494,167.26274617936795 A 56,56 0 0,1 258.59797974644664,179.40202025355333" />
    <path d="M 270.73725382063208,197.56972778755497 A 56,56 0 0,1 179.40202025355336,258.59797974644664" />
    <path d="M 163,219 A 56,56 0 0,1 167.26274617936795,197.56972778755497" />
    <path d="M 204.95349681483873,148.3834598109674 A 72,72 0 0,1 219,147" />
    <path d="M 259.00105677741135,159.13418791421674 A 72,72 0 0,1 278.86581208578326,178.99894322258865" />
    <path d="M 285.51932634081265,191.44679286971353 A 72,72 0 0,1 278.86581208578326,259.00105677741135" />
    <path d="M 259.00105677741135,278.86581208578326 A 72,72 0 0,1 246.55320713028647,285.51932634081265" />
    <path d="M 233.04650318516127,289.61654018903261 A 72,72 0 0,1 191.44679286971353,285.51932634081265" />
    <path d="M 178.99894322258865,278.86581208578326 A 72,72 0 0,1 148.3834598109674,204.95349681483876" />
    <path d="M 152.48067365918735,191.44679286971353 A 72,72 0 0,1 159.13418791421674,178.99894322258865" />
    <path d="M 178.99894322258865,159.13418791421674 A 72,72 0 0,1 191.44679286971348,152.48067365918737" />
    <path d="M 185.32385795187204,137.69860113900677 A 88,88 0 0,1 252.6761420481279,137.69860113900677" />
    <path d="M 292.169325882624,170.109819494275 A 88,88 0 0,1 305.30910467548426,201.83205166258071" />
    <path d="M 307,219 A 88,88 0 0,1 305.30910467548426,236.16794833741929" />
    <path d="M 292.169325882624,267.89018050572497 A 88,88 0 0,1 281.22539674441617,281.22539674441617" />
    <path d="M 201.83205166258071,305.30910467548426 A 88,88 0 0,1 170.10981949427503,292.169325882624" />
    <path d="M 145.83067411737602,267.89018050572497 A 88,88 0 0,1 131,219.00000000000003" />
    <path d="M 198.71060651032261,116.99833083806405 A 104,104 0 0,1 219,115" />
    <path d="M 239.28939348967734,116.99833083806404 A 104,104 0 0,1 315.08347138117381,179.20092303403067" />
    <path d="M 321.001669161936,198.71060651032266 A 104,104 0 0,1 323,219" />
    <path d="M 321.001669161936,239.28939348967734 A 104,104 0 0,1 305.47283967946476,276.77930423403859" />
    <path d="M 292.53910524340097,292.53910524340097 A 104,104 0 0,1 239.28939348967737,321.001669161936" />
    <path d="M 219,323 A 104,104 0 0,1 198.71060651032266,321.001669161936" />
    <path d="M 161.22069576596141,305.47283967946476 A 104,104 0 0,1 132.5271603205353,276.77930423403865" />
    <path d="M 122.91652861882621,258.79907696596939 A 104,104 0 0,1 115,219.00000000000003" />
    <path d="M 122.91652861882619,179.20092303403064 A 104,104 0 0,1 132.52716032053527,161.22069576596141" />
    <path d="M 145.46089475659903,145.46089475659909 A 104,104 0 0,1 161.22069576596135,132.5271603205353" />
    <path d="M 219,99 A 120,120 0 0,1 264.9220118838108,108.13445609864559" />
    <path d="M 285.66842796235227,119.22364652369457 A 120,120 0 0,1 303.85281374238571,134.14718625761429" />
    <path d="M 329.86554390135439,173.07798811618923 A 120,120 0 0,1 336.69423364838764,195.58916135806459" />
    <path d="M 339,219 A 120,120 0 0,1 336.69423364838764,242.41083864193539" />
    <path d="M 329.86554390135439,264.92201188381074 A 120,120 0 0,1 303.85281374238571,303.85281374238571" />
    <path d="M 264.9220118838108,329.86554390135439 A 120,120 0 0,1 134.14718625761429,303.85281374238571" />
    <path d="M 119.22364652369457,285.66842796235227 A 120,120 0 0,1 108.13445609864561,264.92201188381085" />
    <path d="M 101.30576635161235,242.41083864193544 A 120,120 0 0,1 108.1344560986456,173.0779881161892" />
    <path d="M 119.22364652369454,152.33157203764779 A 120,120 0 0,1 152.33157203764773,119.22364652369457" />
    <path d="M 173.07798811618915,108.13445609864561 A 120,120 0 0,1 195.58916135806456,101.30576635161236" />
    <path d="M 232.33033108482024,83.654877172581223 A 136,136 0 0,1 294.55755169066589,105.92013272685385" />
    <path d="M 315.16652224137044,122.83347775862953 A 136,136 0 0,1 332.07986727314614,143.44244830933411" />
    <path d="M 338.94129195137629,154.89004379166431 A 136,136 0 0,1 349.14388565958041,179.52128389339313" />
    <path d="M 352.38679813483935,192.46771620580654 A 136,136 0 0,1 355,219" />
    <path d="M 354.34512282741878,232.33033108482024 A 136,136 0 0,1 349.14388565958041,258.47871610660684" />
    <path d="M 338.94129195137629,283.10995620833569 A 136,136 0 0,1 315.16652224137044,315.16652224137044" />
    <path d="M 294.55755169066589,332.07986727314619 A 136,136 0 0,1 271.0449468016522,344.64761642153496" />
    <path d="M 258.4787161066069,349.14388565958041 A 136,136 0 0,1 245.53228379419349,352.3867981348393" />
    <path d="M 232.33033108482027,354.34512282741878 A 136,136 0 0,1 219.00000000000003,355" />
    <path d="M 205.66966891517976,354.34512282741878 A 136,136 0 0,1 192.46771620580654,352.38679813483935" />
    <path d="M 179.52128389339316,349.14388565958041 A 136,136 0 0,1 166.9550531983478,344.647616421535" />
    <path d="M 143.44244830933414,332.07986727314619 A 136,136 0 0,1 132.72251335374423,324.12942165733227" />
    <path d="M 113.87057834266781,305.27748664625585 A 136,136 0 0,1 105.92013272685384,294.55755169066589" />
    <path d="M 99.058708048623728,283.10995620833569 A 136,136 0 0,1 85.613201865160676,245.53228379419349" />
    <path d="M 83.654877172581223,232.33033108482022 A 136,136 0 0,1 93.352383578465009,166.95505319834777" />
    <path d="M 99.058708048623714,154.89004379166431 A 136,136 0 0,1 105.92013272685382,143.44244830933414" />
    <path d="M 113.87057834266778,132.72251335374421 A 136,136 0 0,1 122.83347775862951,122.83347775862956" />
    <path d="M 132.72251335374415,113.87057834266783 A 136,136 0 0,1 179.5212838933931,88.8561143404196" />
    <path d="M 192.46771620580648,85.613201865160676 A 136,136 0 0,1 205.66966891517978,83.654877172581223" />
    <path d="M 219,67 A 152,152 0 0,1 233.8986053300932,67.731921545826083" />
    <path d="M 277.16788171949366,78.5703110582844 A 152,152 0 0,1 290.65230399755166,84.947967819050035" />
    <path d="M 315.42777919287414,101.50241108886398 A 152,152 0 0,1 326.48023074035524,111.51976925964478" />
    <path d="M 336.497588911136,122.57222080712587 A 152,152 0 0,1 345.38338106998685,134.55332458102046" />
    <path d="M 364.45493103129576,174.87672905732174 A 152,152 0 0,1 370.26807845417392,233.89860533009323" />
    <path d="M 364.45493103129576,263.12327094267823 A 152,152 0 0,1 359.4296889417156,277.16788171949361" />
    <path d="M 345.38338106998691,303.44667541897951 A 152,152 0 0,1 336.49758891113606,315.42777919287408" />
    <path d="M 326.48023074035524,326.48023074035518 A 152,152 0 0,1 315.42777919287414,336.497588911136" />
    <path d="M 277.16788171949366,359.42968894171554 A 152,152 0 0,1 248.65372894645154,368.079362621291" />
    <path d="M 219.00000000000003,371 A 152,152 0 0,1 204.1013946699068,370.26807845417392" />
    <path d="M 189.34627105354849,368.079362621291 A 152,152 0 0,1 134.55332458102049,345.38338106998691" />
    <path d="M 122.57222080712592,336.49758891113606 A 152,152 0 0,1 84.947967819050064,290.65230399755171" />
    <path d="M 78.57031105828446,277.16788171949372 A 152,152 0 0,1 73.545068968704243,263.12327094267829" />
    <path d="M 69.920637378708989,248.65372894645157 A 152,152 0 0,1 67,219.00000000000003" />
    <path d="M 67.731921545826054,204.10139466990688 A 152,152 0 0,1 122.57222080712582,101.50241108886404" />
    <path d="M 147.34769600244832,84.947967819050064 A 152,152 0 0,1 174.87672905732171,73.545068968704271" />
    <path d="M 202.53312042463384,51.808965919070914 A 168,168 0 0,1 219,51" />
    <path d="M 267.76782577874968,58.234023596988919 A 168,168 0 0,1 325.57807173949243,89.134243835060175" />
    <path d="M 337.79393923934,100.20606076066001 A 168,168 0 0,1 348.8657561649398,112.42192826050756" />
    <path d="M 358.68689486682763,125.66420085270683 A 168,168 0 0,1 374.21176146189617,154.70918336266493" />
    <path d="M 386.19103408092906,235.46687957536619 A 168,168 0 0,1 383.77192710774273,251.77517409870953" />
    <path d="M 374.21176146189617,283.29081663733507 A 168,168 0 0,1 337.79393923934,337.79393923934" />
    <path d="M 325.57807173949243,348.86575616493985 A 168,168 0 0,1 298.19465178676762,367.16277241052364" />
    <path d="M 251.77517409870961,383.77192710774273 A 168,168 0 0,1 186.22482590129044,383.77192710774273" />
    <path d="M 170.23217422125038,379.76597640301111 A 168,168 0 0,1 154.70918336266493,374.21176146189617" />
    <path d="M 139.80534821323241,367.16277241052364 A 168,168 0 0,1 125.66420085270688,358.68689486682763" />
    <path d="M 70.837227589476385,298.19465178676762 A 168,168 0 0,1 58.234023596988919,267.76782577874968" />
    <path d="M 54.2280728922573,251.77517409870961 A 168,168 0 0,1 51.808965919070914,202.53312042463392" />
    <path d="M 58.234023596988891,170.23217422125038 A 168,168 0 0,1 70.837227589476356,139.80534821323241" />
    <path d="M 79.313105133172371,125.66420085270688 A 168,168 0 0,1 112.42192826050749,89.134243835060261" />
    <path d="M 125.66420085270683,79.3131051331724 A 168,168 0 0,1 170.23217422125032,58.234023596988919" />
    <path d="M 219,35 A 184,184 0 0,1 237.03515382063915,35.886010292315774" />
    <path d="M 321.22492287560681,66.009591336331681 A 184,184 0 0,1 349.10764773832477,88.892352261675256" />
    <path d="M 361.23392341874359,102.27163571388923 A 184,184 0 0,1 371.99040866366829,116.77507712439318" />
    <path d="M 388.99383398207675,148.58624844482347 A 184,184 0 0,1 395.0770217747264,165.58761938517893" />
    <path d="M 399.46449159419444,183.1033807490324 A 184,184 0 0,1 402.11398970768425,200.96484617936082" />
    <path d="M 399.46449159419444,254.8966192509676 A 184,184 0 0,1 381.27351264009735,305.73699957598359" />
    <path d="M 361.23392341874364,335.72836428611072 A 184,184 0 0,1 335.72836428611078,361.23392341874364" />
    <path d="M 321.22492287560681,371.99040866366835 A 184,184 0 0,1 254.89661925096766,399.46449159419438" />
    <path d="M 200.96484617936085,402.11398970768425 A 184,184 0 0,1 165.58761938517898,395.0770217747264" />
    <path d="M 116.77507712439325,371.99040866366835 A 184,184 0 0,1 102.27163571388927,361.23392341874364" />
    <path d="M 88.892352261675285,349.10764773832477 A 184,184 0 0,1 66.009591336331681,321.22492287560681" />
    <path d="M 56.726487359902706,305.73699957598365 A 184,184 0 0,1 49.006166017923277,289.41375155517665" />
    <path d="M 42.922978225273567,272.41238061482107 A 184,184 0 0,1 35,219.00000000000003" />
    <path d="M 35.886010292315774,200.96484617936093 A 184,184 0 0,1 42.922978225273539,165.58761938517898" />
    <path d="M 56.726487359902677,132.26300042401647 A 184,184 0 0,1 66.009591336331624,116.77507712439326" />
    <path d="M 76.766076581256414,102.27163571388921 A 184,184 0 0,1 88.892352261675228,88.892352261675285" />
    <path d="M 102.27163571388915,76.76607658125647 A 184,184 0 0,1 132.26300042401638,56.726487359902706" />
    <path d="M 148.58624844482335,49.006166017923277 A 184,184 0 0,1 165.5876193851789,42.922978225273567" />
    <path d="M 183.10338074903231,38.535508405805615 A 184,184 0 0,1 200.96484617936088,35.886010292315774" />
    <path d="M 199.39657193408789,19.963054665560634 A 200,200 0 0,1 277.05693545089247,27.611932853558216" />
    <path d="M 313.27934736519956,42.615747130329 A 200,200 0 0,1 345.87865683272912,64.3979093274526" />
    <path d="M 360.42135623730951,77.57864376269049 A 200,200 0 0,1 395.384252869671,124.72065263480044" />
    <path d="M 403.77590650225738,142.46331352698203 A 200,200 0 0,1 415.1570560806461,179.98193559677435" />
    <path d="M 418.03694533443934,199.39657193408783 A 200,200 0 0,1 403.77590650225738,295.53668647301794" />
    <path d="M 395.384252869671,313.27934736519956 A 200,200 0 0,1 373.60209067254743,345.87865683272906" />
    <path d="M 295.536686473018,403.77590650225738 A 200,200 0 0,1 199.39657193408789,418.03694533443934" />
    <path d="M 124.72065263480047,395.384252869671 A 200,200 0 0,1 107.88595339607961,385.29392246050907" />
    <path d="M 92.121343167270936,373.60209067254743 A 200,200 0 0,1 64.39790932745268,345.87865683272918" />
    <path d="M 52.706077539490934,330.11404660392043 A 200,200 0 0,1 34.2240934977427,295.53668647301805" />
    <path d="M 22.842943919353928,258.01806440322571 A 200,200 0 0,1 19.963054665560634,238.60342806591208" />
    <path d="M 19.963054665560605,199.39657193408797 A 200,200 0 0,1 22.8429439193539,179.98193559677435" />
    <path d="M 64.397909327452624,92.121343167270879 A 200,200 0 0,1 124.72065263480042,42.615747130329027" />
    <path d="M 240.1717023111851,4.0400990388054652 A 216,216 0 1,1 219,3" />
  </g>
  <g fill="none" stroke="#000000" stroke-width="2" stroke-linecap="butt">
    <line x1="219" y1="35" x2="219" y2="51" />
    <line x1="219" y1="83" x2="219" y2="115" />
    <line x1="219" y1="147" x2="219" y2="163" />
    <line x1="219" y1="179" x2="219" y2="195" />
    <line x1="235.46687957536619" y1="51.808965919070914" x2="232.33033108482024" y2="83.654877172581223" />
    <line x1="254.8966192509676" y1="38.535508405805615" x2="245.53228379419343" y2="85.613201865160647" />
    <line x1="236.16794833741929" y1="132.69089532451574" x2="233.04650318516124" y2="148.3834598109674" />
    <line x1="277.05693545089247" y1="27.611932853558244" x2="263.12327094267829" y2="73.545068968704271" />
    <line x1="301.6596213908594" y1="19.442020977562066" x2="289.41375155517653" y2="49.006166017923249" />
    <line x1="277.16788171949366" y1="78.5703110582844" x2="271.0449468016522" y2="93.352383578465009" />
    <line x1="252.6761420481279" y1="137.69860113900677" x2="246.55320713028647" y2="152.48067365918735" />
    <line x1="313.27934736519956" y1="42.615747130329" x2="298.19465178676762" y2="70.837227589476356" />
    <line x1="312.33579914729319" y1="79.3131051331724" x2="285.66842796235227" y2="119.22364652369457" />
    <line x1="276.77930423403865" y1="132.5271603205353" x2="259.00105677741135" y2="159.13418791421674" />
    <line x1="345.87865683272912" y1="64.3979093274526" x2="335.72836428611078" y2="76.766076581256385" />
    <line x1="325.57807173949243" y1="89.134243835060175" x2="305.2774866462558" y2="113.87057834266777" />
    <line x1="371.73506473629425" y1="66.264935263705723" x2="360.42135623730951" y2="77.57864376269049" />
    <line x1="349.10764773832477" y1="88.892352261675256" x2="337.79393923934" y2="100.20606076066001" />
    <line x1="281.22539674441617" y1="156.77460325558383" x2="258.59797974644664" y2="179.40202025355333" />
    <line x1="373.60209067254743" y1="92.121343167270908" x2="361.23392341874364" y2="102.27163571388923" />
    <line x1="348.86575616493985" y1="112.42192826050756" x2="324.12942165733222" y2="132.72251335374421" />
    <line x1="371.99040866366829" y1="116.77507712439318" x2="358.68689486682763" y2="125.66420085270681" />
    <line x1="318.77635347630542" y1="152.33157203764773" x2="292.169325882624" y2="170.109819494275" />
    <line x1="395.384252869671" y1="124.72065263480044" x2="381.27351264009729" y2="132.26300042401641" />
    <line x1="353.05203218094994" y1="147.34769600244835" x2="338.94129195137629" y2="154.89004379166431" />
    <line x1="403.77590650225738" y1="142.46331352698203" x2="388.99383398207675" y2="148.58624844482347" />
    <line x1="374.21176146189617" y1="154.7091833626649" x2="329.86554390135439" y2="173.0779881161892" />
    <line x1="300.30139886099323" y1="185.3238579518721" x2="285.51932634081265" y2="191.44679286971353" />
    <line x1="270.73725382063208" y1="197.56972778755497" x2="255.95518130045147" y2="203.6926627053964" />
    <line x1="395.0770217747264" y1="165.58761938517893" x2="364.45493103129576" y2="174.87672905732171" />
    <line x1="415.1570560806461" y1="179.98193559677435" x2="399.46449159419438" y2="183.1033807490324" />
    <line x1="383.77192710774273" y1="186.22482590129044" x2="352.38679813483935" y2="192.46771620580654" />
    <line x1="321.001669161936" y1="198.71060651032266" x2="305.30910467548426" y2="201.83205166258071" />
    <line x1="433.95990096119453" y1="197.82829768881487" x2="418.03694533443934" y2="199.39657193408783" />
    <line x1="402.11398970768425" y1="200.96484617936082" x2="386.19103408092906" y2="202.53312042463378" />
    <line x1="419" y1="219" x2="371" y2="219" />
    <line x1="355" y1="219" x2="323" y2="219" />
    <line x1="259" y1="219" x2="243" y2="219" />
    <line x1="418.03694533443939" y1="238.60342806591214" x2="386.19103408092906" y2="235.46687957536619" />
    <line x1="370.268078454174" y1="233.89860533009323" x2="354.34512282741878" y2="232.33033108482024" />
    <line x1="383.77192710774273" y1="251.77517409870953" x2="368.079362621291" y2="248.65372894645148" />
    <line x1="321.001669161936" y1="239.28939348967734" x2="305.30910467548426" y2="236.16794833741929" />
    <line x1="379.76597640301111" y1="267.76782577874962" x2="349.14388565958041" y2="258.47871610660684" />
    <line x1="359.4296889417156" y1="277.16788171949361" x2="344.64761642153496" y2="271.0449468016522" />
    <line x1="329.86554390135439" y1="264.9220118838108" x2="315.08347138117381" y2="258.79907696596933" />
    <line x1="300.30139886099323" y1="252.6761420481279" x2="285.51932634081265" y2="246.55320713028647" />
    <line x1="270.73725382063208" y1="240.43027221244503" x2="255.95518130045147" y2="234.3073372946036" />
    <line x1="409.49499309924465" y1="320.82169515441552" x2="381.27351264009735" y2="305.73699957598359" />
    <line x1="353.05203218094994" y1="290.65230399755166" x2="338.94129195137629" y2="283.10995620833569" />
    <line x1="385.29392246050907" y1="330.11404660392037" x2="358.68689486682763" y2="312.33579914729313" />
    <line x1="345.38338106998691" y1="303.44667541897951" x2="332.07986727314619" y2="294.55755169066583" />
    <line x1="305.47283967946476" y1="276.77930423403859" x2="292.169325882624" y2="267.89018050572497" />
    <line x1="348.86575616493985" y1="325.57807173949243" x2="336.49758891113606" y2="315.42777919287408" />
    <line x1="360.42135623730951" y1="360.42135623730951" x2="349.10764773832477" y2="349.10764773832477" />
    <line x1="326.48023074035524" y1="326.48023074035518" x2="292.53910524340097" y2="292.53910524340097" />
    <line x1="281.22539674441617" y1="281.22539674441617" x2="258.59797974644664" y2="258.59797974644664" />
    <line x1="356.02894937934741" y1="385.97025792635122" x2="345.87865683272912" y2="373.60209067254743" />
    <line x1="335.72836428611078" y1="361.23392341874364" x2="325.57807173949243" y2="348.86575616493985" />
    <line x1="315.42777919287414" y1="336.497588911136" x2="305.2774866462558" y2="324.12942165733222" />
    <line x1="330.11404660392043" y1="385.29392246050907" x2="321.22492287560681" y2="371.99040866366835" />
    <line x1="312.33579914729319" y1="358.68689486682763" x2="294.55755169066589" y2="332.07986727314619" />
    <line x1="285.66842796235227" y1="318.77635347630542" x2="259.00105677741135" y2="278.86581208578326" />
    <line x1="320.82169515441552" y1="409.49499309924465" x2="305.73699957598359" y2="381.27351264009729" />
    <line x1="290.65230399755166" y1="353.05203218094994" x2="283.10995620833569" y2="338.94129195137629" />
    <line x1="283.29081663733507" y1="374.21176146189617" x2="277.16788171949366" y2="359.4296889417156" />
    <line x1="271.0449468016522" y1="344.64761642153496" x2="264.9220118838108" y2="329.86554390135439" />
    <line x1="252.6761420481279" y1="300.30139886099323" x2="246.55320713028647" y2="285.51932634081265" />
    <line x1="272.41238061482107" y1="395.0770217747264" x2="267.76782577874968" y2="379.76597640301111" />
    <line x1="251.77517409870961" y1="383.77192710774273" x2="245.53228379419349" y2="352.38679813483935" />
    <line x1="239.28939348967737" y1="321.001669161936" x2="233.04650318516127" y2="289.61654018903261" />
    <line x1="238.60342806591217" y1="418.03694533443934" x2="233.89860533009323" y2="370.26807845417392" />
    <line x1="219.00000000000003" y1="419" x2="219.00000000000003" y2="403" />
    <line x1="219.00000000000003" y1="371" x2="219.00000000000003" y2="339" />
    <line x1="219" y1="323" x2="219" y2="307" />
    <line x1="200.96484617936085" y1="402.11398970768425" x2="202.53312042463381" y2="386.19103408092906" />
    <line x1="176.86049044451627" y1="430.84962056709776" x2="179.98193559677432" y2="415.1570560806461" />
    <line x1="186.22482590129044" y1="383.77192710774273" x2="195.58916135806459" y2="336.69423364838764" />
    <line x1="198.71060651032266" y1="321.001669161936" x2="201.83205166258071" y2="305.30910467548426" />
    <line x1="160.94306454910759" y1="410.38806714644181" x2="170.23217422125038" y2="379.76597640301111" />
    <line x1="136.34037860914063" y1="418.55797902243796" x2="142.46331352698206" y2="403.77590650225738" />
    <line x1="148.5862484448235" y1="388.99383398207681" x2="154.70918336266493" y2="374.21176146189623" />
    <line x1="166.9550531983478" y1="344.647616421535" x2="179.20092303403067" y2="315.08347138117381" />
    <line x1="185.3238579518721" y1="300.30139886099323" x2="191.44679286971353" y2="285.51932634081265" />
    <line x1="124.72065263480047" y1="395.384252869671" x2="154.89004379166431" y2="338.94129195137629" />
    <line x1="143.44244830933414" y1="332.07986727314619" x2="152.33157203764776" y2="318.77635347630547" />
    <line x1="161.22069576596141" y1="305.47283967946476" x2="170.10981949427503" y2="292.169325882624" />
    <line x1="81.971050620652619" y1="385.97025792635122" x2="102.27163571388927" y2="361.23392341874364" />
    <line x1="112.4219282605076" y1="348.86575616493985" x2="122.57222080712592" y2="336.49758891113606" />
    <line x1="88.892352261675256" y1="349.10764773832477" x2="122.83347775862954" y2="315.1665222413705" />
    <line x1="134.14718625761429" y1="303.85281374238571" x2="145.46089475659906" y2="292.53910524340097" />
    <line x1="156.77460325558383" y1="281.22539674441617" x2="168.08831175456857" y2="269.91168824543144" />
    <line x1="190.7157287525381" y1="247.2842712474619" x2="202.02943725152286" y2="235.97056274847714" />
    <line x1="76.766076581256442" y1="335.72836428611083" x2="89.134243835060232" y2="325.57807173949254" />
    <line x1="39.402563742650216" y1="339.00317033223405" x2="66.009591336331681" y2="321.22492287560681" />
    <line x1="79.3131051331724" y1="312.33579914729319" x2="119.22364652369457" y2="285.66842796235227" />
    <line x1="132.5271603205353" y1="276.77930423403865" x2="145.83067411737602" y2="267.89018050572497" />
    <line x1="34.2240934977427" y1="295.53668647301805" x2="49.006166017923277" y2="289.41375155517665" />
    <line x1="78.57031105828446" y1="277.16788171949372" x2="93.352383578465037" y2="271.04494680165226" />
    <line x1="137.69860113900677" y1="252.67614204812796" x2="182.04481869954856" y2="234.3073372946036" />
    <line x1="12.300887481842892" y1="281.70149028696392" x2="58.234023596988919" y2="267.76782577874968" />
    <line x1="54.2280728922573" y1="251.77517409870961" x2="85.613201865160676" y2="245.53228379419349" />
    <line x1="101.30576635161236" y1="242.41083864193544" x2="116.99833083806405" y2="239.28939348967737" />
    <line x1="4.0400990388054652" y1="240.17170231118507" x2="19.963054665560605" y2="238.60342806591208" />
    <line x1="19" y1="219.00000000000003" x2="35" y2="219.00000000000003" />
    <line x1="67" y1="219.00000000000003" x2="83" y2="219.00000000000003" />
    <line x1="19.963054665560605" y1="199.39657193408797" x2="35.886010292315774" y2="200.96484617936093" />
    <line x1="38.535508405805615" y1="183.1033807490324" x2="69.920637378708989" y2="189.34627105354849" />
    <line x1="101.30576635161235" y1="195.58916135806462" x2="148.3834598109674" y2="204.95349681483876" />
    <line x1="12.300887481842864" y1="156.2985097130362" x2="42.922978225273567" y2="165.58761938517898" />
    <line x1="73.545068968704243" y1="174.87672905732177" x2="88.8561143404196" y2="179.52128389339316" />
    <line x1="34.224093497742672" y1="142.463313526982" x2="63.788238538103855" y2="154.70918336266487" />
    <line x1="108.1344560986456" y1="173.0779881161892" x2="137.69860113900677" y2="185.32385795187207" />
    <line x1="152.48067365918735" y1="191.44679286971353" x2="182.04481869954853" y2="203.6926627053964" />
    <line x1="28.505006900755319" y1="117.17830484558452" x2="56.726487359902677" y2="132.26300042401644" />
    <line x1="70.837227589476356" y1="139.80534821323241" x2="84.947967819050035" y2="147.34769600244837" />
    <line x1="52.706077539490906" y1="107.88595339607963" x2="79.313105133172371" y2="125.66420085270688" />
    <line x1="92.61661893001309" y1="134.55332458102052" x2="119.22364652369454" y2="152.33157203764779" />
    <line x1="145.83067411737602" y1="170.10981949427503" x2="159.13418791421674" y2="178.99894322258865" />
    <line x1="64.397909327452624" y1="92.121343167270879" x2="76.766076581256414" y2="102.27163571388921" />
    <line x1="111.51976925964475" y1="111.5197692596448" x2="122.83347775862951" y2="122.83347775862956" />
    <line x1="145.46089475659903" y1="145.46089475659909" x2="156.7746032555838" y2="156.77460325558383" />
    <line x1="168.08831175456857" y1="168.08831175456859" x2="190.7157287525381" y2="190.7157287525381" />
    <line x1="81.971050620652477" y1="52.02974207364889" x2="102.27163571388915" y2="76.766076581256442" />
    <line x1="116.77507712439319" y1="66.009591336331681" x2="134.55332458102046" y2="92.616618930013118" />
    <line x1="143.44244830933411" y1="105.92013272685385" x2="161.22069576596138" y2="132.5271603205353" />
    <line x1="170.109819494275" y1="145.83067411737602" x2="178.99894322258865" y2="159.13418791421674" />
    <line x1="147.34769600244832" y1="84.947967819050064" x2="154.89004379166428" y2="99.058708048623743" />
    <line x1="136.34037860914049" y1="19.442020977562123" x2="142.46331352698192" y2="34.2240934977427" />
    <line x1="148.58624844482335" y1="49.006166017923277" x2="154.70918336266482" y2="63.788238538103855" />
    <line x1="173.07798811618915" y1="108.13445609864561" x2="197.56972778755494" y2="167.26274617936795" />
    <line x1="160.9430645491075" y1="27.611932853558244" x2="165.5876193851789" y2="42.922978225273567" />
    <line x1="176.86049044451619" y1="7.1503794329022412" x2="179.98193559677426" y2="22.842943919353928" />
    <line x1="183.10338074903231" y1="38.535508405805615" x2="198.71060651032261" y2="116.99833083806405" />
    <line x1="199.39657193408789" y1="19.963054665560605" x2="200.96484617936088" y2="35.886010292315774" />
    <line x1="202.53312042463384" y1="51.808965919070914" x2="205.66966891517978" y2="83.654877172581223" />
  </g>
  <path fill="none" stroke="#ff0000" stroke-width="2" stroke-linecap="square" stroke-linejoin="round" d="M 229.59861765472229,3.2601814596827694 L 229.20607626010295,11.25054510932415 A 208,208 0 0,0 188.48006131328464,13.251285927325569 L 190.82774890457043,29.078110086762081 A 192,192 0 0,0 172.34780545857328,32.753999386647564 L 187.89853697238218,94.835999591098371 A 128,128 0 0,0 158.66121768627227,106.11407816341058 L 173.7459132647042,134.33555862255793 A 96,96 0 0,0 158.09824472028998,144.79099647717729 L 178.39882981352668,169.52733098478484 A 64,64 0 0,1 183.44350508674546,165.7859448126371 L 192.33262881505908,179.08945860947785 A 48,48 0 0,1 245.66737118494092,179.08945860947785 L 236.77824745662727,192.39297240631856 A 32,32 0 0,1 250.38512897290337,212.75710969548391 L 266.07769345935503,209.63566454322583 A 48,48 0 0,1 266.07769345935503,228.36433545677414 L 250.38512897290337,225.2428903045161 A 32,32 0 0,1 206.75413016431713,248.56414504036118 L 209.81559762323786,241.17310878027089" />
  <type>Circular</type>
</svg>