<?xml version="1.0" encoding="utf-8" standalone="no"?>
<!DOCTYPE svg PUBLIC "-//W3C//DTD SVG 1.1//EN" "http://www.w3.org/Graphics/SVG/1.1/DTD/svg11.dtd"[]>
<svg width="436" height="436" version="1.1" xmlns="http://www.w3.org/2000/svg">
  <title>27 cells diameter theta maze</title>
  <g fill="none" stroke="#000000" stroke-width="2" stroke-linecap="square">
    <path d="M 202.02943725152286,235.97056274847714 A 24,24 0 1,1 219,243" />
    <path d="M 203.69266270539637,182.04481869954856 A 40,40 0 0,1 234.3073372946036,182.04481869954853" />
    <path d="M 247.2842712474619,190.7157287525381 A 40,40 0 0,1 255.95518130045147,203.6926627053964" />
    <path d="M 259,219 A 40,40 0 0,1 234.3073372946036,255.95518130045147" />
    <path d="M 203.6926627053964,255.95518130045147 A 40,40 0 0,1 190.7157287525381,247.2842712474619" />
    <path d="M 163,219 A 56,56 0 0,1 219,163" />
    <path d="M 240.43027221244503,167.26274617936795 A 56,56 0 0,1 258.59797974644664,179.40202025355333" />
    <path d="M 258.59797974644664,258.59797974644664 A 56,56 0 0,1 197.569727787555,270.73725382063208" />
    <path d="M 179.40202025355336,258.59797974644664 A 56,56 0 0,1 167.26274617936795,240.43027221244506" />
    <path d="M 233.04650318516124,148.3834598109674 A 72,72 0 0,1 246.55320713028647,152.48067365918735" />
    <path d="M 259.00105677741135,159.13418791421674 A 72,72 0 0,1 278.86581208578326,178.99894322258865" />
    <path d="M 285.51932634081265,191.44679286971353 A 72,72 0 0,1 289.61654018903261,204.95349681483876" />
    <path d="M 289.61654018903261,233.04650318516124 A 72,72 0 0,1 219,291" />
    <path d="M 204.95349681483876,289.61654018903261 A 72,72 0 0,1 159.13418791421674,259.00105677741135" />
    <path d="M 152.48067365918737,246.5532071302865 A 72,72 0 0,1 147,219" />
    <path d="M 159.13418791421674,178.99894322258865 A 72,72 0 0,1 168.08831175456857,168.08831175456859" />
    <path d="M 178.99894322258865,159.13418791421674 A 72,72 0 0,1 204.95349681483873,148.3834598109674" />
    <path d="M 201.83205166258068,132.69089532451574 A 88,88 0 0,1 252.6761420481279,137.69860113900677" />
    <path d="M 281.22539674441617,156.77460325558383 A 88,88 0 0,1 300.30139886099323,185.3238579518721" />
    <path d="M 305.30910467548426,201.83205166258071 A 88,88 0 0,1 300.30139886099323,252.6761420481279" />
    <path d="M 267.89018050572497,292.169325882624 A 88,88 0 0,1 252.6761420481279,300.30139886099323" />
    <path d="M 219,307 A 88,88 0 0,1 201.83205166258071,305.30910467548426" />
    <path d="M 170.10981949427503,292.169325882624 A 88,88 0 0,1 156.77460325558383,281.22539674441617" />
    <path d="M 132.69089532451574,236.16794833741932 A 88,88 0 0,1 145.830674117376,170.10981949427503" />
    <path d="M 156.7746032555838,156.77460325558383 A 88,88 0 0,1 170.109819494275,145.83067411737602" />
    <path d="M 179.20092303403061,122.91652861882621 A 104,104 0 0,1 258.79907696596933,122.91652861882618" />
    <path d="M 276.77930423403865,132.5271603205353 A 104,104 0 0,1 292.53910524340097,145.46089475659906" />
    <path d="M 315.08347138117381,179.20092303403067 A 104,104 0 0,1 321.001669161936,198.71060651032266" />
    <path d="M 292.53910524340097,292.53910524340097 A 104,104 0 0,1 276.77930423403859,305.4728396794647" />
    <path d="M 219,323 A 104,104 0 0,1 161.22069576596141,305.47283967946476" />
    <path d="M 145.46089475659909,292.53910524340097 A 104,104 0 0,1 116.99833083806404,239.28939348967737" />
    <path d="M 115,219.00000000000003 A 104,104 0 0,1 116.99833083806404,198.71060651032266" />
    <path d="M 122.91652861882619,179.20092303403064 A 104,104 0 0,1 132.52716032053527,161.22069576596141" />
    <path d="M 145.46089475659903,145.46089475659909 A 104,104 0 0,1 161.22069576596135,132.5271603205353" />
    <path d="M 152.33157203764773,119.22364652369457 A 120,120 0 0,1 242.41083864193539,101.30576635161235" />
    <path d="M 264.9220118838108,108.13445609864559 A 120,120 0 0,1 329.86554390135439,173.07798811618923" />
    <path d="M 336.69423364838764,195.58916135806459 A 120,120 0 0,1 336.69423364838764,242.41083864193539" />
    <path d="M 318.77635347630542,285.66842796235221 A 120,120 0 0,1 242.41083864193544,336.69423364838764" />
    <path d="M 195.58916135806459,336.69423364838764 A 120,120 0 0,1 119.22364652369457,285.66842796235227" />
    <path d="M 108.13445609864561,264.92201188381085 A 120,120 0 0,1 134.14718625761429,134.14718625761432" />
    <path d="M 192.46771620580648,85.613201865160676 A 136,136 0 0,1 283.10995620833569,99.058708048623714" />
    <path d="M 305.2774866462558,113.87057834266777 A 136,136 0 0,1 338.94129195137629,154.89004379166431" />
    <path d="M 344.64761642153496,166.9550531983478 A 136,136 0 0,1 349.14388565958041,179.52128389339313" />
    <path d="M 352.38679813483935,192.46771620580654 A 136,136 0 0,1 354.34512282741878,205.66966891517973" />
    <path d="M 355,219 A 136,136 0 0,1 338.94129195137629,283.10995620833569" />
    <path d="M 324.12942165733227,305.27748664625574 A 136,136 0 0,1 305.2774866462558,324.12942165733222" />
    <path d="M 294.55755169066589,332.07986727314619 A 136,136 0 0,1 258.4787161066069,349.14388565958041" />
    <path d="M 232.33033108482027,354.34512282741878 A 136,136 0 0,1 192.46771620580654,352.38679813483935" />
    <path d="M 179.52128389339316,349.14388565958041 A 136,136 0 0,1 166.9550531983478,344.647616421535" />
    <path d="M 154.89004379166431,338.94129195137629 A 136,136 0 0,1 93.352383578465037,271.04494680165226" />
    <path d="M 85.613201865160676,245.53228379419349 A 136,136 0 0,1 83.654877172581223,232.33033108482022" />
    <path d="M 83,219.00000000000003 A 136,136 0 0,1 88.8561143404196,179.52128389339316" />
    <path d="M 113.87057834266778,132.72251335374421 A 136,136 0 0,1 154.89004379166428,99.058708048623743" />
    <path d="M 166.95505319834771,93.352383578465037 A 136,136 0 0,1 179.5212838933931,88.8561143404196" />
    <path d="M 174.87672905732171,73.545068968704271 A 152,152 0 0,1 248.65372894645151,69.92063737870896" />
    <path d="M 290.65230399755166,84.947967819050035 A 152,152 0 0,1 315.42777919287414,101.50241108886398" />
    <path d="M 326.48023074035524,111.51976925964478 A 152,152 0 0,1 336.497588911136,122.57222080712587" />
    <path d="M 345.38338106998685,134.55332458102046 A 152,152 0 0,1 368.079362621291,189.34627105354849" />
    <path d="M 370.26807845417392,204.10139466990677 A 152,152 0 0,1 370.26807845417392,233.89860533009323" />
    <path d="M 368.079362621291,248.65372894645148 A 152,152 0 0,1 359.4296889417156,277.16788171949361" />
    <path d="M 345.38338106998691,303.44667541897951 A 152,152 0 0,1 336.49758891113606,315.42777919287408" />
    <path d="M 315.42777919287414,336.497588911136 A 152,152 0 0,1 303.44667541897951,345.38338106998685" />
    <path d="M 263.12327094267829,364.45493103129576 A 152,152 0 0,1 248.65372894645154,368.079362621291" />
    <path d="M 219.00000000000003,371 A 152,152 0 0,1 204.1013946699068,370.26807845417392" />
    <path d="M 174.87672905732177,364.45493103129576 A 152,152 0 0,1 147.34769600244835,353.05203218094994" />
    <path d="M 92.616618930013118,303.44667541897951 A 152,152 0 0,1 78.57031105828446,277.16788171949372" />
    <path d="M 73.545068968704243,263.12327094267829 A 152,152 0 0,1 69.920637378708989,248.65372894645157" />
    <path d="M 67.731921545826083,233.89860533009318 A 152,152 0 0,1 69.92063737870896,189.34627105354849" />
    <path d="M 92.61661893001309,134.55332458102052 A 152,152 0 0,1 101.502411088864,122.57222080712587" />
    <path d="M 122.57222080712582,101.50241108886404 A 152,152 0 0,1 134.55332458102046,92.616618930013118" />
    <path d="M 147.34769600244832,84.947967819050064 A 152,152 0 0,1 160.83211828050625,78.57031105828446" />
    <path d="M 202.53312042463384,51.808965919070914 A 168,168 0 0,1 235.46687957536619,51.808965919070914" />
    <path d="M 251.77517409870956,54.228072892257273 A 168,168 0 0,1 298.19465178676762,70.837227589476356" />
    <path d="M 348.8657561649398,112.42192826050756 A 168,168 0 0,1 367.16277241052364,139.80534821323238" />
    <path d="M 374.21176146189617,154.70918336266493 A 168,168 0 0,1 379.76597640301111,170.23217422125032" />
    <path d="M 383.77192710774273,186.22482590129044 A 168,168 0 0,1 386.19103408092906,202.53312042463378" />
    <path d="M 386.19103408092906,235.46687957536619 A 168,168 0 0,1 379.76597640301111,267.76782577874962" />
    <path d="M 367.16277241052364,298.19465178676762 A 168,168 0 0,1 358.68689486682763,312.33579914729313" />
    <path d="M 348.86575616493985,325.57807173949243 A 168,168 0 0,1 325.57807173949243,348.86575616493985" />
    <path d="M 312.33579914729319,358.68689486682763 A 168,168 0 0,1 298.19465178676762,367.16277241052364" />
    <path d="M 283.29081663733507,374.21176146189617 A 168,168 0 0,1 235.46687957536622,386.19103408092906" />
    <path d="M 202.53312042463381,386.19103408092906 A 168,168 0 0,1 170.23217422125038,379.76597640301111" />
    <path d="M 154.70918336266493,374.21176146189617 A 168,168 0 0,1 125.66420085270688,358.68689486682763" />
    <path d="M 100.20606076066004,337.79393923934003 A 168,168 0 0,1 79.3131051331724,312.33579914729319" />
    <path d="M 70.837227589476385,298.19465178676762 A 168,168 0 0,1 58.234023596988919,267.76782577874968" />
    <path d="M 51,219.00000000000003 A 168,168 0 0,1 51.808965919070914,202.53312042463392" />
    <path d="M 58.234023596988891,170.23217422125038 A 168,168 0 0,1 70.837227589476356,139.80534821323241" />
    <path d="M 89.1342438350602,112.42192826050754 A 168,168 0 0,1 112.42192826050749,89.134243835060261" />
    <path d="M 125.66420085270683,79.3131051331724 A 168,168 0 0,1 154.70918336266482,63.788238538103855" />
    <path d="M 170.23217422125032,58.234023596988919 A 168,168 0 0,1 186.22482590129039,54.2280728922573" />
    <path d="M 183.10338074903231,38.535508405805615 A 184,184 0 0,1 219,35" />
    <path d="M 237.03515382063915,35.886010292315774 A 184,184 0 0,1 272.41238061482107,42.922978225273567" />
    <path d="M 305.73699957598353,56.726487359902677 A 184,184 0 0,1 321.22492287560681,66.009591336331681" />
    <path d="M 349.10764773832477,88.892352261675256 A 184,184 0 0,1 371.99040866366829,116.77507712439318" />
    <path d="M 381.27351264009735,132.26300042401641 A 184,184 0 0,1 388.99383398207675,148.58624844482347" />
    <path d="M 395.0770217747264,165.58761938517893 A 184,184 0 0,1 399.46449159419444,183.1033807490324" />
    <path d="M 402.11398970768425,200.96484617936082 A 184,184 0 0,1 399.46449159419444,254.8966192509676" />
    <path d="M 381.27351264009735,305.73699957598359 A 184,184 0 0,1 321.22492287560681,371.99040866366835" />
    <path d="M 305.73699957598359,381.27351264009729 A 184,184 0 0,1 272.41238061482107,395.0770217747264" />
    <path d="M 254.89661925096766,399.46449159419438 A 184,184 0 0,1 219.00000000000003,403" />
    <path d="M 183.1033807490324,399.46449159419444 A 184,184 0 0,1 165.58761938517898,395.0770217747264" />
    <path d="M 132.26300042401644,381.27351264009735 A 184,184 0 0,1 102.27163571388927,361.23392341874364" />
    <path d="M 88.892352261675285,349.10764773832477 A 184,184 0 0,1 66.009591336331681,321.22492287560681" />
    <path d="M 49.006166017923277,289.41375155517665 A 184,184 0 0,1 49.006166017923249,148.58624844482344" />
    <path d="M 56.726487359902677,132.26300042401647 A 184,184 0 0,1 76.766076581256414,102.27163571388921" />
    <path d="M 132.26300042401638,56.726487359902706 A 184,184 0 0,1 165.5876193851789,42.922978225273567" />
    <path d="M 219,19 A 200,200 0 0,1 258.01806440322565,22.8429439193539" />
    <path d="M 277.05693545089247,27.611932853558216 A 200,200 0 0,1 360.42135623730951,77.57864376269049" />
    <path d="M 385.29392246050907,107.88595339607954 A 200,200 0 0,1 395.384252869671,124.72065263480044" />
    <path d="M 403.77590650225738,142.46331352698203 A 200,200 0 0,1 418.03694533443934,199.39657193408783" />
    <path d="M 419,219 A 200,200 0 0,1 410.38806714644181,277.05693545089241" />
    <path d="M 395.384252869671,313.27934736519956 A 200,200 0 0,1 385.29392246050907,330.11404660392043" />
    <path d="M 373.60209067254743,345.87865683272906 A 200,200 0 0,1 345.87865683272912,373.60209067254743" />
    <path d="M 330.11404660392043,385.29392246050907 A 200,200 0 0,1 238.60342806591217,418.03694533443934" />
    <path d="M 199.39657193408789,418.03694533443934 A 200,200 0 0,1 179.98193559677432,415.1570560806461" />
    <path d="M 160.94306454910759,410.38806714644181 A 200,200 0 0,1 107.88595339607961,385.29392246050907" />
    <path d="M 92.121343167270936,373.60209067254743 A 200,200 0 0,1 77.578643762690518,360.42135623730951" />
    <path d="M 42.615747130329027,313.27934736519956 A 200,200 0 0,1 34.2240934977427,295.53668647301805" />
    <path d="M 19.963054665560634,238.60342806591208 A 200,200 0 0,1 19.963054665560605,199.39657193408797" />
    <path d="M 34.224093497742672,142.463313526982 A 200,200 0 0,1 52.706077539490906,107.88595339607963" />
    <path d="M 64.397909327452624,92.121343167270879 A 200,200 0 0,1 124.72065263480042,42.615747130329027" />
    <path d="M 160.9430645491075,27.611932853558244 A 200,200 0 0,1 179.98193559677426,22.842943919353928" />
    <path d="M 240.1717023111851,4.0400990388054652 A 216,216 0 1,1 219,3" />
  </g>
  <g fill="none" stroke="#000000" stroke-width="2" stroke-linecap="butt">
    <line x1="219" y1="131" x2="219" y2="147" />
    <line x1="219" y1="179" x2="219" y2="195" />
    <line x1="237.03515382063915" y1="35.886010292315774" x2="235.46687957536619" y2="51.808965919070914" />
    <line x1="258.01806440322565" y1="22.8429439193539" x2="254.8966192509676" y2="38.535508405805615" />
    <line x1="251.77517409870956" y1="54.228072892257273" x2="248.65372894645151" y2="69.920637378708989" />
    <line x1="245.53228379419343" y1="85.613201865160647" x2="242.41083864193539" y2="101.30576635161235" />
    <line x1="263.12327094267829" y1="73.545068968704271" x2="258.4787161066069" y2="88.8561143404196" />
    <line x1="295.53668647301794" y1="34.224093497742643" x2="277.16788171949366" y2="78.5703110582844" />
    <line x1="264.9220118838108" y1="108.13445609864559" x2="258.79907696596933" y2="122.91652861882618" />
    <line x1="252.6761420481279" y1="137.69860113900677" x2="234.3073372946036" y2="182.04481869954853" />
    <line x1="290.65230399755166" y1="84.947967819050035" x2="283.10995620833569" y2="99.058708048623714" />
    <line x1="321.22492287560681" y1="66.009591336331681" x2="303.44667541897957" y2="92.616618930013118" />
    <line x1="294.55755169066589" y1="105.92013272685385" x2="285.66842796235227" y2="119.22364652369457" />
    <line x1="276.77930423403865" y1="132.5271603205353" x2="259.00105677741135" y2="159.13418791421674" />
    <line x1="345.87865683272912" y1="64.3979093274526" x2="325.57807173949243" y2="89.134243835060175" />
    <line x1="315.42777919287414" y1="101.50241108886398" x2="305.2774866462558" y2="113.87057834266777" />
    <line x1="349.10764773832477" y1="88.892352261675256" x2="326.48023074035518" y2="111.51976925964478" />
    <line x1="281.22539674441617" y1="156.77460325558383" x2="269.91168824543144" y2="168.08831175456857" />
    <line x1="385.97025792635122" y1="81.971050620652562" x2="361.23392341874364" y2="102.27163571388923" />
    <line x1="336.497588911136" y1="122.57222080712589" x2="324.12942165733222" y2="132.72251335374421" />
    <line x1="358.68689486682763" y1="125.66420085270681" x2="345.38338106998685" y2="134.55332458102043" />
    <line x1="318.77635347630542" y1="152.33157203764773" x2="292.169325882624" y2="170.109819494275" />
    <line x1="395.384252869671" y1="124.72065263480044" x2="367.16277241052364" y2="139.80534821323238" />
    <line x1="359.4296889417156" y1="160.83211828050634" x2="329.86554390135439" y2="173.0779881161892" />
    <line x1="300.30139886099323" y1="185.3238579518721" x2="255.95518130045147" y2="203.6926627053964" />
    <line x1="410.38806714644181" y1="160.94306454910753" x2="379.76597640301111" y2="170.23217422125032" />
    <line x1="430.84962056709776" y1="176.86049044451627" x2="415.1570560806461" y2="179.98193559677435" />
    <line x1="383.77192710774273" y1="186.22482590129044" x2="368.079362621291" y2="189.34627105354849" />
    <line x1="352.38679813483935" y1="192.46771620580654" x2="321.001669161936" y2="198.71060651032266" />
    <line x1="402.11398970768425" y1="200.96484617936082" x2="386.19103408092906" y2="202.53312042463378" />
    <line x1="370.26807845417392" y1="204.10139466990677" x2="354.34512282741878" y2="205.66966891517973" />
    <line x1="419" y1="219" x2="403" y2="219" />
    <line x1="387" y1="219" x2="371" y2="219" />
    <line x1="323" y1="219" x2="259" y2="219" />
    <line x1="386.19103408092906" y1="235.46687957536619" x2="370.268078454174" y2="233.89860533009323" />
    <line x1="368.079362621291" y1="248.65372894645148" x2="352.38679813483935" y2="245.53228379419343" />
    <line x1="336.69423364838764" y1="242.41083864193539" x2="321.001669161936" y2="239.28939348967734" />
    <line x1="410.38806714644181" y1="277.05693545089241" x2="379.76597640301111" y2="267.76782577874962" />
    <line x1="418.55797902243796" y1="301.6596213908594" x2="359.4296889417156" y2="277.16788171949361" />
    <line x1="344.64761642153496" y1="271.0449468016522" x2="300.30139886099323" y2="252.6761420481279" />
    <line x1="285.51932634081265" y1="246.55320713028647" x2="255.95518130045147" y2="234.3073372946036" />
    <line x1="395.384252869671" y1="313.27934736519956" x2="381.27351264009735" y2="305.73699957598359" />
    <line x1="367.16277241052364" y1="298.19465178676762" x2="338.94129195137629" y2="283.10995620833569" />
    <line x1="345.38338106998691" y1="303.44667541897951" x2="332.07986727314619" y2="294.55755169066583" />
    <line x1="318.77635347630547" y1="285.66842796235221" x2="305.47283967946476" y2="276.77930423403859" />
    <line x1="292.169325882624" y1="267.89018050572497" x2="278.86581208578326" y2="259.00105677741135" />
    <line x1="361.23392341874364" y1="335.72836428611072" x2="336.49758891113606" y2="315.42777919287408" />
    <line x1="371.73506473629425" y1="371.73506473629425" x2="360.42135623730951" y2="360.42135623730951" />
    <line x1="326.48023074035524" y1="326.48023074035518" x2="303.85281374238571" y2="303.85281374238571" />
    <line x1="292.53910524340097" y1="292.53910524340097" x2="281.22539674441617" y2="281.22539674441617" />
    <line x1="325.57807173949243" y1="348.86575616493985" x2="315.42777919287414" y2="336.497588911136" />
    <line x1="330.11404660392043" y1="385.29392246050907" x2="321.22492287560681" y2="371.99040866366835" />
    <line x1="303.44667541897957" y1="345.38338106998691" x2="294.55755169066589" y2="332.07986727314619" />
    <line x1="285.66842796235227" y1="318.77635347630542" x2="276.77930423403865" y2="305.4728396794647" />
    <line x1="267.89018050572497" y1="292.169325882624" x2="259.00105677741135" y2="278.86581208578326" />
    <line x1="305.73699957598359" y1="381.27351264009729" x2="290.65230399755166" y2="353.05203218094994" />
    <line x1="289.41375155517653" y1="388.99383398207675" x2="271.0449468016522" y2="344.64761642153496" />
    <line x1="258.79907696596933" y1="315.08347138117381" x2="252.6761420481279" y2="300.30139886099323" />
    <line x1="248.65372894645154" y1="368.079362621291" x2="233.04650318516127" y2="289.61654018903261" />
    <line x1="235.46687957536622" y1="386.19103408092906" x2="232.33033108482027" y2="354.34512282741878" />
    <line x1="219.00000000000003" y1="435" x2="219.00000000000003" y2="371" />
    <line x1="219.00000000000003" y1="355" x2="219" y2="307" />
    <line x1="219" y1="275" x2="219" y2="243" />
    <line x1="200.96484617936085" y1="402.11398970768425" x2="204.1013946699068" y2="370.268078454174" />
    <line x1="179.98193559677432" y1="415.1570560806461" x2="183.1033807490324" y2="399.46449159419438" />
    <line x1="189.34627105354849" y1="368.079362621291" x2="192.46771620580654" y2="352.38679813483935" />
    <line x1="201.83205166258071" y1="305.30910467548426" x2="204.95349681483876" y2="289.61654018903261" />
    <line x1="156.2985097130362" y1="425.69911251815711" x2="160.94306454910759" y2="410.38806714644181" />
    <line x1="165.58761938517898" y1="395.0770217747264" x2="174.87672905732177" y2="364.45493103129576" />
    <line x1="142.46331352698206" y1="403.77590650225738" x2="154.70918336266493" y2="374.21176146189623" />
    <line x1="166.9550531983478" y1="344.647616421535" x2="185.3238579518721" y2="300.30139886099323" />
    <line x1="191.44679286971353" y1="285.51932634081265" x2="197.56972778755497" y2="270.73725382063208" />
    <line x1="125.66420085270687" y1="358.68689486682763" x2="134.55332458102049" y2="345.38338106998691" />
    <line x1="92.12134316727095" y1="373.60209067254743" x2="132.72251335374426" y2="324.12942165733227" />
    <line x1="77.578643762690518" y1="360.42135623730951" x2="88.892352261675256" y2="349.10764773832477" />
    <line x1="100.20606076066002" y1="337.79393923934003" x2="111.51976925964479" y2="326.48023074035524" />
    <line x1="145.46089475659906" y1="292.53910524340097" x2="156.77460325558383" y2="281.22539674441617" />
    <line x1="179.40202025355336" y1="258.59797974644664" x2="202.02943725152286" y2="235.97056274847714" />
    <line x1="52.02974207364889" y1="356.02894937934752" x2="64.39790932745268" y2="345.87865683272918" />
    <line x1="101.50241108886402" y1="315.4277791928742" x2="113.87057834266781" y2="305.27748664625585" />
    <line x1="52.706077539490963" y1="330.11404660392043" x2="92.616618930013118" y2="303.44667541897957" />
    <line x1="132.5271603205353" y1="276.77930423403865" x2="159.13418791421674" y2="259.00105677741135" />
    <line x1="42.615747130329" y1="313.27934736519956" x2="70.837227589476356" y2="298.19465178676762" />
    <line x1="34.2240934977427" y1="295.53668647301805" x2="49.006166017923277" y2="289.41375155517665" />
    <line x1="93.352383578465037" y1="271.04494680165226" x2="122.91652861882621" y2="258.79907696596939" />
    <line x1="137.69860113900677" y1="252.67614204812796" x2="182.04481869954856" y2="234.3073372946036" />
    <line x1="12.300887481842892" y1="281.70149028696392" x2="27.611932853558244" y2="277.05693545089247" />
    <line x1="73.545068968704271" y1="263.12327094267829" x2="88.8561143404196" y2="258.4787161066069" />
    <line x1="22.842943919353928" y1="258.01806440322571" x2="38.535508405805615" y2="254.89661925096766" />
    <line x1="54.2280728922573" y1="251.77517409870961" x2="101.30576635161236" y2="242.41083864193544" />
    <line x1="116.99833083806405" y1="239.28939348967737" x2="132.69089532451574" y2="236.16794833741932" />
    <line x1="4.0400990388054652" y1="240.17170231118507" x2="19.963054665560605" y2="238.60342806591208" />
    <line x1="35.886010292315774" y1="237.03515382063912" x2="67.731921545826054" y2="233.89860533009318" />
    <line x1="99" y1="219.00000000000003" x2="115" y2="219.00000000000003" />
    <line x1="147" y1="219" x2="163" y2="219" />
    <line x1="179" y1="219" x2="195" y2="219" />
    <line x1="35.886010292315774" y1="200.96484617936093" x2="51.808965919070914" y2="202.53312042463389" />
    <line x1="7.1503794329022412" y1="176.8604904445163" x2="38.535508405805615" y2="183.1033807490324" />
    <line x1="54.228072892257273" y1="186.22482590129044" x2="69.920637378708989" y2="189.34627105354849" />
    <line x1="132.69089532451574" y1="201.83205166258071" x2="148.3834598109674" y2="204.95349681483876" />
    <line x1="12.300887481842864" y1="156.2985097130362" x2="27.611932853558216" y2="160.94306454910759" />
    <line x1="42.922978225273567" y1="165.58761938517898" x2="88.8561143404196" y2="179.52128389339316" />
    <line x1="78.570311058284432" y1="160.83211828050634" x2="108.1344560986456" y2="173.0779881161892" />
    <line x1="152.48067365918735" y1="191.44679286971353" x2="182.04481869954853" y2="203.6926627053964" />
    <line x1="42.615747130329" y1="124.72065263480049" x2="56.726487359902677" y2="132.26300042401644" />
    <line x1="70.837227589476356" y1="139.80534821323241" x2="99.058708048623714" y2="154.89004379166431" />
    <line x1="66.009591336331624" y1="116.77507712439326" x2="119.22364652369454" y2="152.33157203764779" />
    <line x1="132.52716032053527" y1="161.22069576596141" x2="159.13418791421674" y2="178.99894322258865" />
    <line x1="64.397909327452624" y1="92.121343167270879" x2="76.766076581256414" y2="102.27163571388921" />
    <line x1="88.892352261675228" y1="88.892352261675285" x2="111.51976925964475" y2="111.5197692596448" />
    <line x1="156.7746032555838" y1="156.77460325558383" x2="168.08831175456857" y2="168.08831175456859" />
    <line x1="190.7157287525381" y1="190.7157287525381" x2="202.02943725152286" y2="202.02943725152286" />
    <line x1="92.121343167270808" y1="64.39790932745268" x2="112.42192826050749" y2="89.134243835060232" />
    <line x1="116.77507712439319" y1="66.009591336331681" x2="134.55332458102046" y2="92.616618930013118" />
    <line x1="143.44244830933411" y1="105.92013272685385" x2="170.109819494275" y2="145.83067411737602" />
    <line x1="124.72065263480042" y1="42.615747130329027" x2="132.26300042401638" y2="56.726487359902706" />
    <line x1="147.34769600244832" y1="84.947967819050064" x2="154.89004379166428" y2="99.058708048623743" />
    <line x1="136.34037860914049" y1="19.442020977562123" x2="142.46331352698192" y2="34.2240934977427" />
    <line x1="154.70918336266482" y1="63.788238538103855" x2="160.83211828050625" y2="78.57031105828446" />
    <line x1="179.20092303403061" y1="122.91652861882621" x2="197.56972778755494" y2="167.26274617936795" />
    <line x1="160.9430645491075" y1="27.611932853558244" x2="170.23217422125032" y2="58.234023596988919" />
    <line x1="174.87672905732171" y1="73.545068968704271" x2="179.5212838933931" y2="88.8561143404196" />
    <line x1="186.22482590129039" y1="54.2280728922573" x2="189.34627105354844" y2="69.920637378708989" />
    <line x1="197.82829768881493" y1="4.0400990388054652" x2="202.53312042463384" y2="51.808965919070914" />
  </g>
  <path fill="none" stroke="#ff0000" stroke-width="2" stroke-linecap="square" stroke-linejoin="round" d="M 229.59861765472229,3.2601814596827694 L 229.20607626010295,11.25054510932415 A 208,208 0 0,1 269.53987741987891,17.233499335534844 L 265.65219454142664,32.753999386647564 A 192,192 0 0,1 283.68285185130628,38.22353948486 L 278.29261419703073,53.288244527788351 A 176,176 0 0,0 244.82456350414367,44.904934246198536 L 242.47687591285788,60.731758405635048 A 160,160 0 0,0 195.523124087142,60.731758405635048 L 193.17543649585622,44.904934246198565 A 176,176 0 0,0 176.23548833702552,48.274499437760284 L 172.34780545857328,32.753999386647564 A 192,192 0 0,1 190.82774890457043,29.078110086762081 L 188.48006131328464,13.251285927325569 A 208,208 0 0,0 148.92691049441822,23.158834441931674 L 154.31714814869378,38.22353948486 A 192,192 0 0,0 136.90942206138575,45.434055720298915 L 130.06854056650121,30.970227030323827 A 208,208 0 0,0 23.158834441931646,148.92691049441834 L 38.22353948485997,154.31714814869383 A 192,192 0 0,1 45.434055720298886,136.90942206138584 L 59.897884410273974,143.75030355627035 A 176,176 0 0,1 68.0397646399521,128.51791702199301 L 109.21073791996516,153.19484874326764 A 128,128 0 0,0 103.28937048019925,164.27294804092389 L 74.361713100249062,150.59118505115487 A 160,160 0 0,0 68.352949570716646,165.09762345724488 L 98.482359656573323,175.8780987657959 A 128,128 0 0,0 91.154181605737932,225.28066231390952 L 75.17345430645517,226.0657451031482 A 144,144 0 0,0 76.558582565071561,240.12918832157217 L 44.904934246198565,244.82456350414378 A 176,176 0 0,0 48.274499437760255,261.76451166297448 L 63.794999488872975,257.87682878452227 A 160,160 0 0,0 81.763422399956482,301.25643907091546 L 40.59244911994341,325.93337079219015 A 208,208 0 0,0 51.932833452025818,342.90545533442611 L 64.784153955716164,333.37426646254715 A 192,192 0 0,0 76.737383931847887,347.93931933062754 L 64.882165926168568,358.68426260817989 A 208,208 0 0,0 95.094544665573878,386.06716654797413 L 104.62573353745282,373.21584604428381 A 192,192 0 0,0 136.9094220613859,392.56594427970117 L 143.75030355627041,378.10211558972605 A 176,176 0 0,1 114.15692240933174,360.36452554059349 L 133.21930015308959,334.66188453321286 A 144,144 0 0,0 184.01085409393,358.68450046001431 L 180.12317121547778,374.20500051112708 A 160,160 0 0,0 195.52312408714215,377.26824159436495 L 197.87081167842794,361.44141743492844 A 144,144 0 0,0 226.06574510314817,362.82654569354486 L 227.63591068162558,394.78800029211038 A 176,176 0 0,0 261.76451166297448,389.72550056223974 L 265.6521945414267,405.24600061335241 A 192,192 0 0,1 228.42099347086426,410.76872759139309 L 229.20607626010295,426.74945489067585 A 208,208 0 0,0 342.90545533442616,386.06716654797413 L 333.37426646254721,373.21584604428381 A 192,192 0 0,0 373.21584604428381,333.37426646254721 L 386.06716654797413,342.90545533442616 A 208,208 0 0,0 407.02977296967623,307.93145943349862 L 378.10211558972605,294.24969644372959 A 176,176 0 0,1 360.36452554059349,323.84307759066826 L 347.51320503690317,314.31188871878931 A 160,160 0 0,0 356.23657760004357,301.25643907091546 L 328.78926208003486,284.80515125673236 A 128,128 0 0,1 321.81056402952254,295.24951097503146 L 334.66188453321286,304.78069984691041 A 144,144 0 0,1 325.6969620511141,315.70448949797066 L 337.55218005679342,326.44943277552295 A 160,160 0 0,1 326.44943277552295,337.55218005679342 L 315.70448949797071,325.6969620511141 A 144,144 0 0,1 304.78069984691041,334.66188453321286 L 295.24951097503151,321.81056402952254 A 128,128 0 0,1 250.1014630276178,343.16400040890164 L 253.98914590607,358.68450046001431 A 144,144 0 0,0 267.51213888847974,354.582345386355 L 272.90237654275523,369.6470504292833 A 160,160 0 0,1 242.47687591285788,377.26824159436495 L 237.78150073028633,345.614593275492 A 128,128 0 0,1 231.54619396218379,346.38364501404118 L 226.84137122636486,298.61477813377576 A 80,80 0 0,1 211.15862877363514,298.61477813377576 L 212.72690301890813,282.69182250702062 A 64,64 0 0,0 272.21405518736293,254.55649491325454 L 258.91054139052216,245.66737118494089 A 48,48 0 0,1 228.36433545677417,266.07769345935503 L 225.24289030451612,250.38512897290337 A 32,32 0 0,0 250.38512897290337,212.75710969548391 L 281.77025794580675,206.51421939096778 A 64,64 0 0,1 282.69182250702062,212.7269030189081 L 298.61477813377576,211.15862877363514 A 80,80 0 0,0 295.5552268585767,195.777225819643 L 310.86627223029205,191.13267098357161 A 96,96 0 0,1 314.5377337605309,209.59035452836216 L 330.46068938728604,208.0220802830892 A 112,112 0 0,1 330.46068938728604,229.9779197169108 L 314.5377337605309,228.40964547163782 A 96,96 0 0,1 310.86627223029205,246.86732901642836 L 341.48836297372276,256.15643868857114 A 128,128 0 0,0 346.8458183942621,212.71933768609048 L 362.82654569354486,211.9342548968518 A 144,144 0 0,1 361.44141743492844,240.12918832157209 L 377.26824159436495,242.47687591285785 A 160,160 0 0,1 369.64705042928335,272.90237654275518 L 414.84116555806833,289.07308950558172 A 208,208 0 0,0 426.74945489067585,208.79392373989703 L 410.76872759139309,209.57900652913571 A 192,192 0 0,0 408.92188991323792,190.82774890457054 L 393.09506575380146,193.17543649585633 A 176,176 0 0,0 389.72550056223974,176.23548833702554 L 374.205000511127,180.12317121547775 A 160,160 0 0,0 363.63828689975094,150.59118505115487 L 378.10211558972605,143.75030355627035 A 176,176 0 0,1 384.71175547221162,159.70738580296927 L 399.77646051514,154.31714814869375 A 192,192 0 0,0 392.56594427970111,136.90942206138584 L 407.02977296967617,130.06854056650133 A 208,208 0 0,0 386.06716654797413,95.094544665573849 L 373.21584604428381,104.62573353745279 A 192,192 0 0,1 383.68389312005223,120.29227311490143 L 369.96023536004788,128.51791702199296 A 176,176 0 0,0 349.40739806247279,100.80562394692477 L 337.55218005679347,111.55056722447706 A 160,160 0 0,1 347.51320503690317,123.68811128121065 L 334.66188453321286,133.21930015308959 A 144,144 0 0,1 349.17445820977582,157.43206654603938 L 334.71062951980076,164.27294804092389 A 128,128 0 0,0 295.24951097503146,116.18943597047745 L 304.78069984691041,103.33811546678713 A 144,144 0 0,0 293.03079516382394,95.487080159960811 L 284.80515125673236,109.21073791996517 A 128,128 0 0,0 256.1564386885712,96.51163702627727 L 251.51188385249978,111.82268239799261 A 112,112 0 0,0 166.20356547548823,120.22481839298426 L 181.28826105392017,148.44629885213161 A 80,80 0 0,0 168.24853726690833,157.15916373098108 L 178.39882981352668,169.52733098478484 A 64,64 0 0,0 162.55703908170528,188.83060884313616 L 148.44629885213158,181.2882610539202 A 80,80 0 0,0 142.4447731414233,195.77722581964304 L 157.75581851313862,200.42178065571443 A 64,64 0 0,0 155.30817749297938,212.72690301890816 L 139.38522186622424,211.1586287736352 A 80,80 0 0,0 142.4447731414233,242.222774180357 L 127.13372776970795,246.86732901642839 A 96,96 0 0,0 134.33555862255793,264.2540867352958 L 162.55703908170528,249.16939115686387 A 64,64 0 0,0 183.44350508674546,272.21405518736293 L 192.33262881505911,258.91054139052221 A 48,48 0 0,0 209.63566454322583,266.07769345935503 L 212.75710969548391,250.38512897290337 A 32,32 0 0,1 206.75413016431713,248.56414504036118 L 209.81559762323786,241.17310878027089" />
  <type>Circular</type>
</svg>