<?xml version="1.0" encoding="utf-8" standalone="no"?>
<!DOCTYPE svg PUBLIC "-//W3C//DTD SVG 1.1//EN" "http://www.w3.org/Graphics/SVG/1.1/DTD/svg11.dtd"[]>
<svg width="436" height="436" version="1.1" xmlns="http://www.w3.org/2000/svg">
  <title>27 cells diameter theta maze</title>
  <g fill="none" stroke="#000000" stroke-width="2" stroke-linecap="square">
    <path d="M 202.02943725152286,235.97056274847714 A 24,24 0 1,1 219,243" />
    <path d="M 234.3073372946036,182.04481869954853 A 40,40 0 0,1 255.95518130045147,203.6926627053964" />
    <path d="M 259,219 A 40,40 0 0,1 255.95518130045147,234.3073372946036" />
    <path d="M 247.2842712474619,247.2842712474619 A 40,40 0 0,1 234.3073372946036,255.95518130045147" />
    <path d="M 219,259 A 40,40 0 0,1 182.04481869954853,203.6926627053964" />
    <path d="M 190.7157287525381,190.7157287525381 A 40,40 0 0,1 203.69266270539637,182.04481869954856" />
    <path d="M 197.56972778755494,167.26274617936795 A 56,56 0 0,1 219,163" />
    <path d="M 240.43027221244503,167.26274617936795 A 56,56 0 0,1 275,219" />
    <path d="M 270.73725382063208,240.43027221244503 A 56,56 0 0,1 258.59797974644664,258.59797974644664" />
    <path d="M 240.43027221244503,270.73725382063208 A 56,56 0 0,1 197.569727787555,270.73725382063208" />
    <path d="M 167.26274617936795,240.43027221244506 A 56,56 0 0,1 163,219" />
    <path d="M 219,147 A 72,72 0 0,1 259.00105677741135,159.13418791421674" />
    <path d="M 278.86581208578326,178.99894322258865 A 72,72 0 0,1 289.61654018903261,204.95349681483876" />
    <path d="M 285.51932634081265,246.55320713028647 A 72,72 0 0,1 233.04650318516127,289.61654018903261" />
    <path d="M 219,291 A 72,72 0 0,1 204.95349681483876,289.61654018903261" />
    <path d="M 191.44679286971353,285.51932634081265 A 72,72 0 0,1 148.3834598109674,233.04650318516127" />
    <path d="M 147,219 A 72,72 0 0,1 168.08831175456857,168.08831175456859" />
    <path d="M 178.99894322258865,159.13418791421674 A 72,72 0 0,1 204.95349681483873,148.3834598109674" />
    <path d="M 201.83205166258068,132.69089532451574 A 88,88 0 0,1 236.16794833741929,132.69089532451574" />
    <path d="M 267.89018050572497,145.83067411737602 A 88,88 0 0,1 292.169325882624,170.109819494275" />
    <path d="M 307,219 A 88,88 0 0,1 305.30910467548426,236.16794833741929" />
    <path d="M 300.30139886099323,252.6761420481279 A 88,88 0 0,1 292.169325882624,267.89018050572497" />
    <path d="M 219,307 A 88,88 0 0,1 156.77460325558383,281.22539674441617" />
    <path d="M 145.83067411737602,267.89018050572497 A 88,88 0 0,1 137.69860113900677,252.67614204812796" />
    <path d="M 132.69089532451574,236.16794833741932 A 88,88 0 0,1 132.69089532451574,201.83205166258071" />
    <path d="M 145.830674117376,170.10981949427503 A 88,88 0 0,1 170.109819494275,145.83067411737602" />
    <path d="M 219,115 A 104,104 0 0,1 258.79907696596933,122.91652861882618" />
    <path d="M 292.53910524340097,145.46089475659906 A 104,104 0 0,1 321.001669161936,198.71060651032266" />
    <path d="M 321.001669161936,239.28939348967734 A 104,104 0 0,1 315.08347138117381,258.79907696596933" />
    <path d="M 239.28939348967737,321.001669161936 A 104,104 0 0,1 219,323" />
    <path d="M 179.20092303403067,315.08347138117381 A 104,104 0 0,1 161.22069576596141,305.47283967946476" />
    <path d="M 145.46089475659909,292.53910524340097 A 104,104 0 0,1 132.5271603205353,276.77930423403865" />
    <path d="M 122.91652861882621,258.79907696596939 A 104,104 0 0,1 116.99833083806404,239.28939348967737" />
    <path d="M 122.91652861882619,179.20092303403064 A 104,104 0 0,1 179.20092303403061,122.91652861882621" />
    <path d="M 195.58916135806456,101.30576635161236 A 120,120 0 0,1 219,99" />
    <path d="M 264.9220118838108,108.13445609864559 A 120,120 0 0,1 285.66842796235227,119.22364652369457" />
    <path d="M 318.77635347630542,152.33157203764773 A 120,120 0 0,1 329.86554390135439,173.07798811618923" />
    <path d="M 336.69423364838764,195.58916135806459 A 120,120 0 0,1 336.69423364838764,242.41083864193539" />
    <path d="M 329.86554390135439,264.92201188381074 A 120,120 0 0,1 285.66842796235227,318.77635347630542" />
    <path d="M 264.9220118838108,329.86554390135439 A 120,120 0 0,1 242.41083864193544,336.69423364838764" />
    <path d="M 195.58916135806459,336.69423364838764 A 120,120 0 0,1 152.33157203764779,318.77635347630547" />
    <path d="M 134.14718625761429,303.85281374238571 A 120,120 0 0,1 108.13445609864561,264.92201188381085" />
    <path d="M 101.30576635161235,242.41083864193544 A 120,120 0 0,1 152.33157203764773,119.22364652369457" />
    <path d="M 205.66966891517978,83.654877172581223 A 136,136 0 0,1 283.10995620833569,99.058708048623714" />
    <path d="M 294.55755169066589,105.92013272685385 A 136,136 0 0,1 315.16652224137044,122.83347775862953" />
    <path d="M 324.12942165733222,132.72251335374421 A 136,136 0 0,1 338.94129195137629,154.89004379166431" />
    <path d="M 349.14388565958041,179.52128389339313 A 136,136 0 0,1 354.34512282741878,205.66966891517973" />
    <path d="M 355,219 A 136,136 0 0,1 344.647616421535,271.0449468016522" />
    <path d="M 338.94129195137629,283.10995620833569 A 136,136 0 0,1 315.16652224137044,315.16652224137044" />
    <path d="M 305.2774866462558,324.12942165733222 A 136,136 0 0,1 245.53228379419349,352.3867981348393" />
    <path d="M 219.00000000000003,355 A 136,136 0 0,1 179.52128389339316,349.14388565958041" />
    <path d="M 166.9550531983478,344.647616421535 A 136,136 0 0,1 113.87057834266781,305.27748664625585" />
    <path d="M 105.92013272685384,294.55755169066589 A 136,136 0 0,1 83.654877172581223,232.33033108482022" />
    <path d="M 88.8561143404196,179.52128389339316 A 136,136 0 0,1 192.46771620580648,85.613201865160676" />
    <path d="M 189.34627105354844,69.920637378708989 A 152,152 0 0,1 219,67" />
    <path d="M 233.8986053300932,67.731921545826083 A 152,152 0 0,1 248.65372894645151,69.92063737870896" />
    <path d="M 263.12327094267829,73.545068968704243 A 152,152 0 0,1 303.44667541897957,92.616618930013118" />
    <path d="M 326.48023074035524,111.51976925964478 A 152,152 0 0,1 353.05203218094994,147.34769600244835" />
    <path d="M 359.4296889417156,160.83211828050634 A 152,152 0 0,1 364.45493103129576,174.87672905732174" />
    <path d="M 370.26807845417392,204.10139466990677 A 152,152 0 0,1 371,219" />
    <path d="M 370.26807845417392,233.89860533009323 A 152,152 0 0,1 364.45493103129576,263.12327094267823" />
    <path d="M 353.05203218094994,290.65230399755166 A 152,152 0 0,1 345.38338106998691,303.44667541897951" />
    <path d="M 336.49758891113606,315.42777919287408 A 152,152 0 0,1 326.48023074035524,326.48023074035518" />
    <path d="M 303.44667541897951,345.38338106998685 A 152,152 0 0,1 248.65372894645154,368.079362621291" />
    <path d="M 233.89860533009323,370.26807845417392 A 152,152 0 0,1 219.00000000000003,371" />
    <path d="M 204.1013946699068,370.26807845417392 A 152,152 0 0,1 174.87672905732177,364.45493103129576" />
    <path d="M 134.55332458102049,345.38338106998691 A 152,152 0 0,1 111.51976925964479,326.48023074035524" />
    <path d="M 101.50241108886402,315.42777919287414 A 152,152 0 0,1 69.920637378708989,248.65372894645157" />
    <path d="M 67.731921545826083,233.89860533009318 A 152,152 0 0,1 73.545068968704243,174.87672905732177" />
    <path d="M 92.61661893001309,134.55332458102052 A 152,152 0 0,1 122.57222080712582,101.50241108886404" />
    <path d="M 147.34769600244832,84.947967819050064 A 152,152 0 0,1 160.83211828050625,78.57031105828446" />
    <path d="M 219,51 A 168,168 0 0,1 251.77517409870956,54.228072892257273" />
    <path d="M 283.29081663733507,63.788238538103826 A 168,168 0 0,1 348.8657561649398,112.42192826050756" />
    <path d="M 367.16277241052364,139.80534821323238 A 168,168 0 0,1 374.21176146189617,154.70918336266493" />
    <path d="M 383.77192710774273,186.22482590129044 A 168,168 0 0,1 386.19103408092906,235.46687957536619" />
    <path d="M 383.77192710774273,251.77517409870953 A 168,168 0 0,1 374.21176146189617,283.29081663733507" />
    <path d="M 358.68689486682763,312.33579914729313 A 168,168 0 0,1 283.29081663733507,374.21176146189617" />
    <path d="M 267.76782577874968,379.76597640301111 A 168,168 0 0,1 235.46687957536622,386.19103408092906" />
    <path d="M 219.00000000000003,387 A 168,168 0 0,1 186.22482590129044,383.77192710774273" />
    <path d="M 139.80534821323241,367.16277241052364 A 168,168 0 0,1 112.42192826050759,348.86575616493985" />
    <path d="M 100.20606076066004,337.79393923934003 A 168,168 0 0,1 89.134243835060232,325.57807173949249" />
    <path d="M 70.837227589476385,298.19465178676762 A 168,168 0 0,1 58.234023596988919,267.76782577874968" />
    <path d="M 54.2280728922573,251.77517409870961 A 168,168 0 0,1 51,219.00000000000003" />
    <path d="M 63.788238538103855,154.70918336266487 A 168,168 0 0,1 79.313105133172371,125.66420085270688" />
    <path d="M 89.1342438350602,112.42192826050754 A 168,168 0 0,1 186.22482590129039,54.2280728922573" />
    <path d="M 200.96484617936088,35.886010292315774 A 184,184 0 0,1 237.03515382063915,35.886010292315774" />
    <path d="M 272.41238061482107,42.922978225273567 A 184,184 0 0,1 289.41375155517653,49.006166017923249" />
    <path d="M 361.23392341874359,102.27163571388923 A 184,184 0 0,1 399.46449159419444,183.1033807490324" />
    <path d="M 402.11398970768425,200.96484617936082 A 184,184 0 0,1 403,219" />
    <path d="M 402.11398970768425,237.03515382063915 A 184,184 0 0,1 399.46449159419444,254.8966192509676" />
    <path d="M 388.99383398207681,289.41375155517653 A 184,184 0 0,1 361.23392341874364,335.72836428611072" />
    <path d="M 335.72836428611078,361.23392341874364 A 184,184 0 0,1 321.22492287560681,371.99040866366835" />
    <path d="M 305.73699957598359,381.27351264009729 A 184,184 0 0,1 219.00000000000003,403" />
    <path d="M 183.1033807490324,399.46449159419444 A 184,184 0 0,1 165.58761938517898,395.0770217747264" />
    <path d="M 148.58624844482353,388.99383398207681 A 184,184 0 0,1 116.77507712439325,371.99040866366835" />
    <path d="M 102.27163571388927,361.23392341874364 A 184,184 0 0,1 88.892352261675285,349.10764773832477" />
    <path d="M 66.009591336331681,321.22492287560681 A 184,184 0 0,1 56.726487359902706,305.73699957598365" />
    <path d="M 35,219.00000000000003 A 184,184 0 0,1 56.726487359902677,132.26300042401647" />
    <path d="M 66.009591336331624,116.77507712439326 A 184,184 0 0,1 88.892352261675228,88.892352261675285" />
    <path d="M 102.27163571388915,76.76607658125647 A 184,184 0 0,1 165.5876193851789,42.922978225273567" />
    <path d="M 219,19 A 200,200 0 0,1 373.60209067254738,92.1213431672709" />
    <path d="M 385.29392246050907,107.88595339607954 A 200,200 0 0,1 395.384252869671,124.72065263480044" />
    <path d="M 410.38806714644181,160.94306454910753 A 200,200 0 0,1 410.38806714644181,277.05693545089241" />
    <path d="M 403.77590650225738,295.53668647301794 A 200,200 0 0,1 360.42135623730951,360.42135623730951" />
    <path d="M 295.536686473018,403.77590650225738 A 200,200 0 0,1 277.05693545089247,410.38806714644181" />
    <path d="M 238.60342806591217,418.03694533443934 A 200,200 0 0,1 124.72065263480047,395.384252869671" />
    <path d="M 77.578643762690518,360.42135623730951 A 200,200 0 0,1 64.39790932745268,345.87865683272918" />
    <path d="M 52.706077539490934,330.11404660392043 A 200,200 0 0,1 42.615747130329027,313.27934736519956" />
    <path d="M 34.2240934977427,295.53668647301805 A 200,200 0 0,1 27.611932853558216,160.94306454910759" />
    <path d="M 34.224093497742672,142.463313526982 A 200,200 0 0,1 42.615747130329,124.72065263480049" />
    <path d="M 64.397909327452624,92.121343167270879 A 200,200 0 0,1 92.121343167270808,64.39790932745268" />
    <path d="M 124.72065263480042,42.615747130329027 A 200,200 0 0,1 142.46331352698192,34.2240934977427" />
    <path d="M 160.9430645491075,27.611932853558244 A 200,200 0 0,1 199.39657193408789,19.963054665560634" />
    <path d="M 240.1717023111851,4.0400990388054652 A 216,216 0 1,1 219,3" />
  </g>
  <g fill="none" stroke="#000000" stroke-width="2" stroke-linecap="butt">
    <line x1="219" y1="51" x2="219" y2="67" />
    <line x1="219" y1="115" x2="219" y2="131" />
    <line x1="219" y1="163" x2="219" y2="179" />
    <line x1="233.8986053300932" y1="67.731921545826054" x2="232.33033108482024" y2="83.654877172581223" />
    <line x1="258.01806440322565" y1="22.8429439193539" x2="251.77517409870956" y2="54.228072892257273" />
    <line x1="245.53228379419343" y1="85.613201865160647" x2="242.41083864193539" y2="101.30576635161235" />
    <line x1="272.41238061482107" y1="42.922978225273567" x2="263.12327094267829" y2="73.545068968704271" />
    <line x1="289.41375155517653" y1="49.006166017923249" x2="283.29081663733507" y2="63.788238538103826" />
    <line x1="264.9220118838108" y1="108.13445609864559" x2="246.55320713028647" y2="152.48067365918735" />
    <line x1="240.43027221244503" y1="167.26274617936795" x2="234.3073372946036" y2="182.04481869954853" />
    <line x1="313.27934736519956" y1="42.615747130329" x2="305.73699957598353" y2="56.726487359902677" />
    <line x1="321.22492287560681" y1="66.009591336331681" x2="312.33579914729319" y2="79.3131051331724" />
    <line x1="294.55755169066589" y1="105.92013272685385" x2="276.77930423403865" y2="132.5271603205353" />
    <line x1="345.87865683272912" y1="64.3979093274526" x2="335.72836428611078" y2="76.766076581256385" />
    <line x1="325.57807173949243" y1="89.134243835060175" x2="305.2774866462558" y2="113.87057834266777" />
    <line x1="360.42135623730951" y1="77.57864376269049" x2="337.79393923934" y2="100.20606076066001" />
    <line x1="315.16652224137044" y1="122.83347775862953" x2="292.53910524340097" y2="145.46089475659903" />
    <line x1="281.22539674441617" y1="156.77460325558383" x2="258.59797974644664" y2="179.40202025355333" />
    <line x1="247.2842712474619" y1="190.7157287525381" x2="235.97056274847714" y2="202.02943725152286" />
    <line x1="398.59743625734978" y1="98.996829667765908" x2="385.29392246050907" y2="107.88595339607954" />
    <line x1="371.99040866366829" y1="116.77507712439318" x2="345.38338106998685" y2="134.55332458102043" />
    <line x1="332.07986727314614" y1="143.44244830933408" x2="318.77635347630542" y2="152.33157203764773" />
    <line x1="353.05203218094994" y1="147.34769600244835" x2="338.94129195137629" y2="154.89004379166431" />
    <line x1="418.55797902243796" y1="136.3403786091406" x2="388.99383398207675" y2="148.58624844482347" />
    <line x1="374.21176146189617" y1="154.7091833626649" x2="344.64761642153496" y2="166.9550531983478" />
    <line x1="300.30139886099323" y1="185.3238579518721" x2="285.51932634081265" y2="191.44679286971353" />
    <line x1="395.0770217747264" y1="165.58761938517893" x2="379.76597640301111" y2="170.23217422125032" />
    <line x1="364.45493103129576" y1="174.87672905732171" x2="349.14388565958041" y2="179.52128389339313" />
    <line x1="399.46449159419438" y1="183.1033807490324" x2="368.079362621291" y2="189.34627105354849" />
    <line x1="352.38679813483935" y1="192.46771620580654" x2="289.61654018903261" y2="204.95349681483876" />
    <line x1="370.26807845417392" y1="204.10139466990677" x2="354.34512282741878" y2="205.66966891517973" />
    <line x1="419" y1="219" x2="403" y2="219" />
    <line x1="371" y1="219" x2="355" y2="219" />
    <line x1="323" y1="219" x2="259" y2="219" />
    <line x1="386.19103408092906" y1="235.46687957536619" x2="370.268078454174" y2="233.89860533009323" />
    <line x1="399.46449159419438" y1="254.8966192509676" x2="383.77192710774273" y2="251.77517409870953" />
    <line x1="305.30910467548426" y1="236.16794833741929" x2="289.61654018903261" y2="233.04650318516124" />
    <line x1="410.38806714644181" y1="277.05693545089241" x2="379.76597640301111" y2="267.76782577874962" />
    <line x1="403.77590650225738" y1="295.53668647301794" x2="388.99383398207675" y2="289.41375155517653" />
    <line x1="374.21176146189617" y1="283.29081663733507" x2="300.30139886099323" y2="252.6761420481279" />
    <line x1="285.51932634081265" y1="246.55320713028647" x2="270.73725382063208" y2="240.43027221244503" />
    <line x1="381.27351264009735" y1="305.73699957598359" x2="338.94129195137629" y2="283.10995620833569" />
    <line x1="358.68689486682763" y1="312.33579914729313" x2="345.38338106998691" y2="303.44667541897951" />
    <line x1="305.47283967946476" y1="276.77930423403859" x2="292.169325882624" y2="267.89018050572497" />
    <line x1="336.49758891113606" y1="315.42777919287408" x2="324.12942165733227" y2="305.27748664625574" />
    <line x1="349.10764773832477" y1="349.10764773832477" x2="337.79393923934" y2="337.79393923934" />
    <line x1="292.53910524340097" y1="292.53910524340097" x2="269.91168824543144" y2="269.91168824543144" />
    <line x1="247.2842712474619" y1="247.2842712474619" x2="235.97056274847714" y2="235.97056274847714" />
    <line x1="356.02894937934741" y1="385.97025792635122" x2="335.72836428611078" y2="361.23392341874364" />
    <line x1="325.57807173949243" y1="348.86575616493985" x2="315.42777919287414" y2="336.497588911136" />
    <line x1="339.00317033223405" y1="398.59743625734978" x2="330.11404660392043" y2="385.29392246050907" />
    <line x1="321.22492287560681" y1="371.99040866366835" x2="312.33579914729319" y2="358.68689486682763" />
    <line x1="303.44667541897957" y1="345.38338106998691" x2="267.89018050572497" y2="292.169325882624" />
    <line x1="313.27934736519956" y1="395.384252869671" x2="305.73699957598359" y2="381.27351264009729" />
    <line x1="301.6596213908594" y1="418.55797902243796" x2="295.536686473018" y2="403.77590650225738" />
    <line x1="264.9220118838108" y1="329.86554390135439" x2="234.3073372946036" y2="255.95518130045147" />
    <line x1="267.76782577874968" y1="379.76597640301111" x2="263.12327094267829" y2="364.4549310312957" />
    <line x1="261.13950955548376" y1="430.84962056709776" x2="254.89661925096766" y2="399.46449159419438" />
    <line x1="239.28939348967737" y1="321.001669161936" x2="236.16794833741932" y2="305.30910467548426" />
    <line x1="235.46687957536622" y1="386.19103408092906" x2="232.33033108482027" y2="354.34512282741878" />
    <line x1="219.00000000000003" y1="403" x2="219.00000000000003" y2="387" />
    <line x1="219.00000000000003" y1="371" x2="219" y2="323" />
    <line x1="199.39657193408789" y1="418.03694533443939" x2="200.96484617936085" y2="402.11398970768425" />
    <line x1="192.46771620580654" y1="352.38679813483935" x2="195.58916135806459" y2="336.69423364838764" />
    <line x1="198.71060651032266" y1="321.001669161936" x2="204.95349681483876" y2="289.61654018903261" />
    <line x1="160.94306454910759" y1="410.38806714644181" x2="179.52128389339316" y2="349.14388565958041" />
    <line x1="148.5862484448235" y1="388.99383398207681" x2="166.9550531983478" y2="344.647616421535" />
    <line x1="173.07798811618923" y1="329.86554390135444" x2="179.20092303403067" y2="315.08347138117381" />
    <line x1="191.44679286971353" y1="285.51932634081265" x2="197.56972778755497" y2="270.73725382063208" />
    <line x1="139.80534821323238" y1="367.16277241052364" x2="147.34769600244835" y2="353.05203218094994" />
    <line x1="107.88595339607961" y1="385.29392246050907" x2="125.66420085270687" y2="358.68689486682763" />
    <line x1="134.55332458102049" y1="345.38338106998691" x2="143.44244830933414" y2="332.07986727314619" />
    <line x1="161.22069576596141" y1="305.47283967946476" x2="170.10981949427503" y2="292.169325882624" />
    <line x1="81.971050620652619" y1="385.97025792635122" x2="102.27163571388927" y2="361.23392341874364" />
    <line x1="88.892352261675256" y1="349.10764773832477" x2="100.20606076066002" y2="337.79393923934003" />
    <line x1="122.83347775862954" y1="315.1665222413705" x2="145.46089475659906" y2="292.53910524340097" />
    <line x1="156.77460325558383" y1="281.22539674441617" x2="168.08831175456857" y2="269.91168824543144" />
    <line x1="179.40202025355336" y1="258.59797974644664" x2="202.02943725152286" y2="235.97056274847714" />
    <line x1="64.39790932745268" y1="345.87865683272918" x2="89.134243835060232" y2="325.57807173949254" />
    <line x1="101.50241108886402" y1="315.4277791928742" x2="113.87057834266781" y2="305.27748664625585" />
    <line x1="52.706077539490963" y1="330.11404660392043" x2="92.616618930013118" y2="303.44667541897957" />
    <line x1="132.5271603205353" y1="276.77930423403865" x2="145.83067411737602" y2="267.89018050572497" />
    <line x1="34.2240934977427" y1="295.53668647301805" x2="49.006166017923277" y2="289.41375155517665" />
    <line x1="108.13445609864561" y1="264.92201188381085" x2="122.91652861882621" y2="258.79907696596939" />
    <line x1="152.48067365918737" y1="246.5532071302865" x2="167.26274617936795" y2="240.43027221244506" />
    <line x1="27.611932853558244" y1="277.05693545089247" x2="58.234023596988919" y2="267.76782577874968" />
    <line x1="38.535508405805615" y1="254.89661925096766" x2="69.920637378708989" y2="248.65372894645157" />
    <line x1="132.69089532451574" y1="236.16794833741932" x2="148.38345981096742" y2="233.04650318516127" />
    <line x1="19.963054665560605" y1="238.60342806591208" x2="51.808965919070914" y2="235.46687957536616" />
    <line x1="67.731921545826054" y1="233.89860533009318" x2="83.654877172581223" y2="232.33033108482022" />
    <line x1="83" y1="219.00000000000003" x2="99" y2="219.00000000000003" />
    <line x1="115" y1="219.00000000000003" x2="131" y2="219.00000000000003" />
    <line x1="51.808965919070914" y1="202.53312042463389" x2="83.654877172581223" y2="205.66966891517984" />
    <line x1="38.535508405805615" y1="183.1033807490324" x2="54.228072892257273" y2="186.22482590129044" />
    <line x1="69.920637378708989" y1="189.34627105354849" x2="132.69089532451574" y2="201.83205166258071" />
    <line x1="12.300887481842864" y1="156.2985097130362" x2="27.611932853558216" y2="160.94306454910759" />
    <line x1="42.922978225273567" y1="165.58761938517898" x2="73.545068968704243" y2="174.87672905732177" />
    <line x1="63.788238538103855" y1="154.70918336266487" x2="93.352383578465023" y2="166.95505319834777" />
    <line x1="122.91652861882619" y1="179.20092303403064" x2="182.04481869954853" y2="203.6926627053964" />
    <line x1="42.615747130329" y1="124.72065263480049" x2="56.726487359902677" y2="132.26300042401644" />
    <line x1="84.947967819050035" y1="147.34769600244837" x2="99.058708048623714" y2="154.89004379166431" />
    <line x1="39.402563742650187" y1="98.996829667766008" x2="92.61661893001309" y2="134.55332458102052" />
    <line x1="179.40202025355333" y1="179.40202025355336" x2="202.02943725152286" y2="202.02943725152286" />
    <line x1="92.121343167270808" y1="64.39790932745268" x2="102.27163571388915" y2="76.766076581256442" />
    <line x1="98.996829667765923" y1="39.402563742650216" x2="116.77507712439319" y2="66.009591336331681" />
    <line x1="125.66420085270684" y1="79.3131051331724" x2="134.55332458102046" y2="92.616618930013118" />
    <line x1="170.109819494275" y1="145.83067411737602" x2="178.99894322258865" y2="159.13418791421674" />
    <line x1="147.34769600244832" y1="84.947967819050064" x2="154.89004379166428" y2="99.058708048623743" />
    <line x1="136.34037860914049" y1="19.442020977562123" x2="142.46331352698192" y2="34.2240934977427" />
    <line x1="166.95505319834771" y1="93.352383578465037" x2="185.32385795187204" y2="137.69860113900677" />
    <line x1="191.44679286971348" y1="152.48067365918737" x2="197.56972778755494" y2="167.26274617936795" />
    <line x1="174.87672905732171" y1="73.545068968704271" x2="179.5212838933931" y2="88.8561143404196" />
    <line x1="183.10338074903231" y1="38.535508405805615" x2="189.34627105354844" y2="69.920637378708989" />
    <line x1="192.46771620580648" y1="85.613201865160676" x2="198.71060651032261" y2="116.99833083806405" />
    <line x1="201.83205166258068" y1="132.69089532451574" x2="204.95349681483873" y2="148.38345981096742" />
    <line x1="197.82829768881493" y1="4.0400990388054652" x2="202.53312042463384" y2="51.808965919070914" />
    <line x1="204.1013946699068" y1="67.731921545826054" x2="205.66966891517978" y2="83.654877172581223" />
  </g>
  <path fill="none" stroke="#ff0000" stroke-width="2" stroke-linecap="square" stroke-linejoin="round" d="M 229.59861765472229,3.2601814596827694 L 229.20607626010295,11.25054510932415 A 208,208 0 0,1 386.06716654797413,95.094544665573849 L 373.21584604428381,104.62573353745279 A 192,192 0 0,0 361.26261606815217,90.060680669372459 L 349.40739806247279,100.80562394692477 A 176,176 0 0,1 360.36452554059349,114.15692240933171 L 347.51320503690317,123.68811128121065 A 160,160 0 0,0 326.44943277552295,100.44781994320654 L 315.70448949797066,112.30303794888589 A 144,144 0 0,1 325.6969620511141,122.29551050202936 L 313.84174404543478,133.04045377958164 A 128,128 0 0,1 317.94533803043032,137.79765962705338 L 305.57717077662653,147.9479521736717 A 112,112 0 0,1 326.17731760200741,186.48811614750022 L 341.48836297372276,181.84356131142883 A 128,128 0 0,0 334.71062951980076,164.27294804092389 L 363.63828689975094,150.59118505115487 A 160,160 0 0,0 356.23657760004357,136.74356092908454 L 369.96023536004788,128.51791702199296 A 176,176 0 0,1 384.71175547221162,159.70738580296927 L 369.64705042928335,165.09762345724479 A 160,160 0 0,1 374.205000511127,180.12317121547775 L 358.68450046001431,184.01085409393 A 144,144 0 0,1 361.44141743492844,197.87081167842791 L 377.26824159436495,195.52312408714212 A 160,160 0 0,1 378.80727299282762,226.85082789238689 L 362.82654569354486,226.0657451031482 A 144,144 0 0,1 354.582345386355,267.51213888847968 L 369.64705042928335,272.90237654275518 A 160,160 0 0,0 377.26824159436495,242.47687591285785 L 393.09506575380146,244.82456350414364 A 176,176 0 0,0 393.09506575380146,193.17543649585633 L 408.92188991323792,190.82774890457054 A 192,192 0 0,0 399.77646051514,154.31714814869375 L 414.84116555806833,148.92691049441822 A 208,208 0 0,1 414.84116555806833,289.07308950558172 L 384.71175547221168,278.29261419703073 A 176,176 0 0,1 378.10211558972605,294.24969644372959 L 334.71062951980076,273.72705195907611 A 128,128 0 0,1 304.95954622041836,313.84174404543472 L 315.70448949797071,325.6969620511141 A 144,144 0 0,1 304.78069984691041,334.66188453321286 L 314.31188871878936,347.51320503690317 A 160,160 0 0,1 272.90237654275523,369.6470504292833 L 278.29261419703079,384.71175547221162 A 176,176 0 0,1 227.63591068162558,394.78800029211038 L 226.85082789238689,378.80727299282762 A 160,160 0 0,1 180.12317121547778,374.20500051112708 L 176.23548833702557,389.72550056223974 A 176,176 0 0,0 210.36408931837448,394.78800029211038 L 209.5790065291358,410.76872759139314 A 192,192 0 0,0 247.17225109542946,408.92188991323792 L 249.51993868671525,424.74871407267443 A 208,208 0 0,1 112.06662920780991,397.40755088005665 L 120.29227311490146,383.68389312005229 A 192,192 0 0,0 154.31714814869375,399.77646051514 L 175.87809876579581,339.51764034342665 A 128,128 0 0,1 137.79765962705341,317.94533803043032 L 158.09824472029004,293.20900352282274 A 96,96 0 0,1 144.79099647717729,279.90175527971 L 157.15916373098108,269.75146273309167 A 80,80 0 0,1 142.4447731414233,242.222774180357 L 127.13372776970795,246.86732901642839 A 96,96 0 0,1 123.4622662394691,228.40964547163782 L 107.53931061271395,229.97791971691078 A 112,112 0 0,0 111.82268239799261,251.51188385249981 L 96.51163702627727,256.1564386885712 A 128,128 0 0,0 116.18943597047743,295.24951097503146 L 103.33811546678712,304.78069984691035 A 144,144 0 0,1 76.558582565071561,240.12918832157217 L 60.731758405635048,242.47687591285796 A 160,160 0 0,1 59.192727007172408,211.14917210761317 L 43.211999707889646,210.36408931837448 A 176,176 0 0,0 43.211999707889646,227.63591068162558 L 27.231272408606912,228.42099347086426 A 192,192 0 0,1 38.22353948485997,154.31714814869383 L 23.158834441931646,148.92691049441834 A 208,208 0 0,1 40.592449119943382,112.06662920780993 L 68.0397646399521,128.51791702199301 A 176,176 0 0,0 53.288244527788322,159.70738580296936 L 83.417654613645,170.48786111152037 A 144,144 0 0,0 79.315499539985666,184.01085409393002 L 94.835999591098371,187.89853697238223 A 128,128 0 0,1 158.66121768627227,106.11407816341058 L 166.20356547548823,120.22481839298426 A 112,112 0 0,0 111.82268239799259,186.48811614750025 L 142.4447731414233,195.77722581964304 A 80,80 0 0,0 139.38522186622424,226.84137122636483 L 155.30817749297938,225.27309698109187 A 64,64 0 0,1 156.22974205419325,206.51421939096778 L 171.92230654064494,209.63566454322583 A 48,48 0 0,0 179.08945860947785,245.66737118494092 L 165.7859448126371,254.55649491325454 A 64,64 0 0,0 183.44350508674546,272.21405518736293 L 192.33262881505911,258.91054139052221 A 48,48 0 0,0 228.36433545677417,266.07769345935503 L 225.24289030451612,250.38512897290337 A 32,32 0 0,1 206.75413016431713,248.56414504036118 L 209.81559762323786,241.17310878027089" />
  <type>Circular</type>
</svg>