<?xml version="1.0" encoding="utf-8" standalone="no"?>
<!DOCTYPE svg PUBLIC "-//W3C//DTD SVG 1.1//EN" "http://www.w3.org/Graphics/SVG/1.1/DTD/svg11.dtd"[]>
<svg width="276" height="276" version="1.1" xmlns="http://www.w3.org/2000/svg">
  <title>17 cells diameter theta maze</title>
  <g fill="none" stroke="#000000" stroke-width="2" stroke-linecap="square">
    <path d="M 122.02943725152286,155.97056274847714 A 24,24 0 1,1 139,163" />
    <path d="M 102.04481869954853,123.6926627053964 A 40,40 0 0,1 167.2842712474619,110.7157287525381" />
    <path d="M 175.95518130045147,123.6926627053964 A 40,40 0 0,1 154.3073372946036,175.95518130045147" />
    <path d="M 139,179 A 40,40 0 0,1 110.7157287525381,167.2842712474619" />
    <path d="M 102.04481869954853,154.3073372946036 A 40,40 0 0,1 99,139" />
    <path d="M 99.402020253553331,99.402020253553346 A 56,56 0 0,1 139,83" />
    <path d="M 160.43027221244503,87.262746179367952 A 56,56 0 0,1 160.43027221244503,190.73725382063205" />
    <path d="M 83,139 A 56,56 0 0,1 87.262746179367952,117.56972778755497" />
    <path d="M 153.04650318516124,68.383459810967409 A 72,72 0 0,1 166.55320713028647,72.48067365918736" />
    <path d="M 179.00105677741135,79.134187914216739 A 72,72 0 0,1 189.91168824543144,88.088311754568579" />
    <path d="M 198.86581208578326,98.998943222588636 A 72,72 0 0,1 209.61654018903261,124.95349681483876" />
    <path d="M 209.61654018903261,153.04650318516124 A 72,72 0 0,1 205.51932634081265,166.55320713028647" />
    <path d="M 198.86581208578326,179.00105677741135 A 72,72 0 0,1 153.04650318516127,209.61654018903261" />
    <path d="M 139,211 A 72,72 0 0,1 124.95349681483876,209.61654018903261" />
    <path d="M 111.44679286971355,205.51932634081265 A 72,72 0 0,1 68.383459810967409,124.95349681483876" />
    <path d="M 72.48067365918736,111.44679286971352 A 72,72 0 0,1 98.99894322258865,79.134187914216739" />
    <path d="M 111.44679286971349,72.480673659187374 A 72,72 0 0,1 124.95349681483873,68.383459810967409" />
    <path d="M 121.83205166258067,52.690895324515722 A 88,88 0 0,1 187.890180505725,65.83067411737602" />
    <path d="M 201.22539674441617,76.774603255583813 A 88,88 0 0,1 212.16932588262398,90.109819494275" />
    <path d="M 220.30139886099323,105.3238579518721 A 88,88 0 0,1 225.30910467548426,121.83205166258071" />
    <path d="M 227,139 A 88,88 0 0,1 201.22539674441617,201.22539674441617" />
    <path d="M 172.6761420481279,220.30139886099323 A 88,88 0 0,1 121.83205166258071,225.30910467548426" />
    <path d="M 105.32385795187211,220.30139886099323 A 88,88 0 0,1 90.10981949427503,212.16932588262398" />
    <path d="M 57.698601139006783,172.67614204812796 A 88,88 0 0,1 51,139.00000000000003" />
    <path d="M 57.698601139006769,105.32385795187207 A 88,88 0 0,1 105.32385795187204,57.698601139006783" />
    <path d="M 99.200923034030609,42.916528618826206 A 104,104 0 0,1 178.79907696596933,42.916528618826177" />
    <path d="M 196.77930423403862,52.527160320535287 A 104,104 0 0,1 235.08347138117381,99.200923034030666" />
    <path d="M 243,139 A 104,104 0 0,1 241.00166916193598,159.28939348967734" />
    <path d="M 235.08347138117381,178.79907696596933 A 104,104 0 0,1 225.47283967946473,196.77930423403859" />
    <path d="M 212.53910524340097,212.53910524340094 A 104,104 0 0,1 99.20092303403068,235.08347138117381" />
    <path d="M 65.460894756599075,212.53910524340097 A 104,104 0 0,1 36.998330838064035,159.28939348967737" />
    <path d="M 36.998330838064035,118.71060651032266 A 104,104 0 0,1 42.916528618826192,99.200923034030637" />
    <path d="M 52.527160320535273,81.220695765961409 A 104,104 0 0,1 81.220695765961366,52.5271603205353" />
    <path d="M 21.305766351612348,162.41083864193544 A 120,120 0 0,1 205.66842796235227,39.223646523694569" />
    <path d="M 223.85281374238571,54.147186257614294 A 120,120 0 0,1 238.77635347630542,72.331572037647732" />
    <path d="M 249.86554390135441,93.077988116189232 A 120,120 0 0,1 249.86554390135441,184.92201188381077" />
    <path d="M 238.77635347630545,205.66842796235224 A 120,120 0 0,1 223.85281374238571,223.85281374238571" />
    <path d="M 205.66842796235227,238.77635347630542 A 120,120 0 0,1 184.9220118838108,249.86554390135439" />
    <path d="M 162.41083864193544,256.69423364838764 A 120,120 0 0,1 139.00000000000003,259" />
    <path d="M 93.077988116189246,249.86554390135441 A 120,120 0 0,1 54.147186257614308,223.85281374238571" />
    <path d="M 39.223646523694569,205.66842796235227 A 120,120 0 0,1 28.134456098645614,184.92201188381085" />
    <path d="M 152.33033108482024,3.654877172581223 A 136,136 0 1,1 139,3" />
  </g>
  <g fill="none" stroke="#000000" stroke-width="2" stroke-linecap="butt">
    <line x1="139" y1="51" x2="139" y2="83" />
    <line x1="166.55320713028647" y1="72.48067365918736" x2="160.43027221244503" y2="87.262746179367952" />
    <line x1="205.66842796235227" y1="39.223646523694569" x2="187.890180505725" y2="65.83067411737602" />
    <line x1="201.22539674441617" y1="76.774603255583813" x2="189.91168824543144" y2="88.088311754568565" />
    <line x1="178.59797974644664" y1="99.402020253553331" x2="167.2842712474619" y2="110.7157287525381" />
    <line x1="252.07986727314614" y1="63.442448309334083" x2="238.77635347630542" y2="72.331572037647732" />
    <line x1="225.4728396794647" y1="81.220695765961352" x2="212.16932588262398" y2="90.109819494275" />
    <line x1="249.86554390135441" y1="93.077988116189218" x2="235.08347138117381" y2="99.200923034030666" />
    <line x1="205.51932634081265" y1="111.44679286971353" x2="190.73725382063205" y2="117.56972778755497" />
    <line x1="241.00166916193598" y1="118.71060651032265" x2="209.61654018903261" y2="124.95349681483876" />
    <line x1="243" y1="139" x2="211" y2="139" />
    <line x1="179" y1="139" x2="163" y2="139" />
    <line x1="249.86554390135441" y1="184.92201188381077" x2="235.08347138117381" y2="178.79907696596933" />
    <line x1="205.51932634081265" y1="166.55320713028647" x2="190.73725382063205" y2="160.43027221244503" />
    <line x1="252.07986727314619" y1="214.55755169066586" x2="238.77635347630547" y2="205.66842796235224" />
    <line x1="225.47283967946473" y1="196.77930423403859" x2="212.16932588262398" y2="187.89018050572497" />
    <line x1="223.85281374238571" y1="223.85281374238571" x2="212.53910524340097" y2="212.53910524340094" />
    <line x1="201.22539674441617" y1="201.22539674441617" x2="189.91168824543144" y2="189.91168824543144" />
    <line x1="196.77930423403862" y1="225.4728396794647" x2="187.890180505725" y2="212.16932588262398" />
    <line x1="191.04494680165223" y1="264.64761642153496" x2="184.9220118838108" y2="249.86554390135441" />
    <line x1="172.6761420481279" y1="220.30139886099323" x2="166.55320713028647" y2="205.51932634081265" />
    <line x1="139.00000000000003" y1="259" x2="139" y2="243" />
    <line x1="139" y1="211" x2="139" y2="163" />
    <line x1="112.46771620580654" y1="272.38679813483935" x2="115.5891613580646" y2="256.69423364838764" />
    <line x1="121.83205166258071" y1="225.30910467548426" x2="124.95349681483876" y2="209.61654018903261" />
    <line x1="99.200923034030666" y1="235.08347138117384" x2="117.56972778755498" y2="190.73725382063208" />
    <line x1="72.33157203764776" y1="238.77635347630547" x2="81.2206957659614" y2="225.47283967946473" />
    <line x1="54.147186257614308" y1="223.85281374238571" x2="76.774603255583827" y2="201.2253967444162" />
    <line x1="99.402020253553346" y1="178.59797974644667" x2="110.7157287525381" y2="167.2842712474619" />
    <line x1="65.83067411737602" y1="187.890180505725" x2="79.134187914216739" y2="179.00105677741135" />
    <line x1="13.352383578465037" y1="191.04494680165229" x2="28.134456098645614" y2="184.92201188381085" />
    <line x1="42.916528618826206" y1="178.79907696596939" x2="57.698601139006783" y2="172.67614204812796" />
    <line x1="72.480673659187374" y1="166.5532071302865" x2="102.04481869954854" y2="154.3073372946036" />
    <line x1="21.305766351612363" y1="162.41083864193544" x2="36.998330838064049" y2="159.28939348967737" />
    <line x1="35" y1="139.00000000000003" x2="51" y2="139.00000000000003" />
    <line x1="67" y1="139" x2="83" y2="139" />
    <line x1="99" y1="139" x2="115" y2="139" />
    <line x1="36.998330838064035" y1="118.71060651032266" x2="68.383459810967409" y2="124.95349681483876" />
    <line x1="42.916528618826192" y1="99.200923034030637" x2="57.698601139006783" y2="105.32385795187207" />
    <line x1="39.223646523694541" y1="72.331572037647774" x2="52.527160320535273" y2="81.220695765961409" />
    <line x1="88.088311754568565" y1="88.0883117545686" x2="110.7157287525381" y2="110.7157287525381" />
    <line x1="99.200923034030609" y1="42.916528618826206" x2="111.44679286971349" y2="72.480673659187374" />
  </g>
  <path fill="none" stroke="#ff0000" stroke-width="2" stroke-linecap="square" stroke-linejoin="round" d="M 145.67320370852886,3.1638179560965511 L 145.28066231390952,11.154181605737932 A 128,128 0 0,1 220.20234037294662,40.054661969569665 L 210.05204782632831,52.422829223373455 A 112,112 0 0,1 237.77518160701575,86.203565475488247 L 251.88592183658943,78.66121768627228 A 128,128 0 0,1 251.88592183658943,199.33878231372771 L 237.77518160701578,191.79643452451174 A 112,112 0 0,1 225.57717077662656,210.05204782632828 L 213.20900352282274,199.90175527970996 A 96,96 0 0,1 199.90175527970996,213.20900352282274 L 189.75146273309164,200.84083626901895 A 80,80 0 0,1 176.71173894607983,209.5537011478684 L 184.2540867352958,223.66444137744207 A 96,96 0 0,1 111.13267098357164,230.86627223029205 L 120.42178065571443,200.24418148686138 A 64,64 0 0,0 126.51421939096778,201.77025794580675 L 129.63566454322583,186.07769345935506 A 48,48 0 0,1 112.33262881505911,178.91054139052218 L 103.44350508674548,192.2140551873629 A 64,64 0 0,1 85.7859448126371,174.55649491325454 L 112.39297240631855,156.77824745662727 A 32,32 0 0,0 126.75413016431713,168.56414504036118 L 129.81559762323786,161.17310878027089" />
  <type>Circular</type>
</svg>