<?xml version="1.0" encoding="utf-8" standalone="no"?>
<!DOCTYPE svg PUBLIC "-//W3C//DTD SVG 1.1//EN" "http://www.w3.org/Graphics/SVG/1.1/DTD/svg11.dtd"[]>
<svg width="276" height="276" version="1.1" xmlns="http://www.w3.org/2000/svg">
  <title>17 cells diameter theta maze</title>
  <g fill="none" stroke="#000000" stroke-width="2" stroke-linecap="square">
    <path d="M 122.02943725152286,155.97056274847714 A 24,24 0 1,1 139,163" />
    <path d="M 139,99 A 40,40 0 0,1 175.95518130045147,154.3073372946036" />
    <path d="M 167.2842712474619,167.2842712474619 A 40,40 0 0,1 102.04481869954853,154.3073372946036" />
    <path d="M 99,139 A 40,40 0 0,1 102.04481869954853,123.6926627053964" />
    <path d="M 110.7157287525381,110.7157287525381 A 40,40 0 0,1 123.69266270539639,102.04481869954854" />
    <path d="M 160.43027221244503,87.262746179367952 A 56,56 0 0,1 190.73725382063205,117.56972778755497" />
    <path d="M 195,139 A 56,56 0 0,1 117.56972778755498,190.73725382063208" />
    <path d="M 99.402020253553346,178.59797974644667 A 56,56 0 0,1 83,139" />
    <path d="M 87.262746179367952,117.56972778755497 A 56,56 0 0,1 99.402020253553331,99.402020253553346" />
    <path d="M 139,67 A 72,72 0 0,1 198.86581208578326,98.998943222588636" />
    <path d="M 205.51932634081265,111.44679286971353 A 72,72 0 0,1 209.61654018903261,124.95349681483876" />
    <path d="M 211,139 A 72,72 0 0,1 209.61654018903261,153.04650318516124" />
    <path d="M 205.51932634081265,166.55320713028647 A 72,72 0 0,1 139,211" />
    <path d="M 98.998943222588665,198.86581208578326 A 72,72 0 0,1 88.0883117545686,189.91168824543144" />
    <path d="M 79.134187914216739,179.00105677741135 A 72,72 0 0,1 68.383459810967409,153.04650318516127" />
    <path d="M 67,139 A 72,72 0 0,1 72.48067365918736,111.44679286971352" />
    <path d="M 79.134187914216724,98.998943222588665 A 72,72 0 0,1 88.088311754568565,88.0883117545686" />
    <path d="M 111.44679286971349,72.480673659187374 A 72,72 0 0,1 124.95349681483873,68.383459810967409" />
    <path d="M 90.109819494275,65.83067411737602 A 88,88 0 0,1 187.890180505725,65.83067411737602" />
    <path d="M 201.22539674441617,76.774603255583813 A 88,88 0 0,1 220.30139886099323,105.3238579518721" />
    <path d="M 225.30910467548426,121.83205166258071 A 88,88 0 0,1 227,139" />
    <path d="M 225.30910467548426,156.16794833741929 A 88,88 0 0,1 220.30139886099323,172.6761420481279" />
    <path d="M 212.16932588262398,187.89018050572497 A 88,88 0 0,1 172.6761420481279,220.30139886099323" />
    <path d="M 121.83205166258071,225.30910467548426 A 88,88 0 0,1 90.10981949427503,212.16932588262398" />
    <path d="M 76.774603255583827,201.2253967444162 A 88,88 0 0,1 52.690895324515722,156.16794833741932" />
    <path d="M 57.698601139006769,105.32385795187207 A 88,88 0 0,1 65.830674117375992,90.10981949427503" />
    <path d="M 139,35 A 104,104 0 0,1 159.28939348967734,36.998330838064035" />
    <path d="M 196.77930423403862,52.527160320535287 A 104,104 0 0,1 225.4728396794647,81.220695765961366" />
    <path d="M 243,139 A 104,104 0 0,1 225.47283967946473,196.77930423403859" />
    <path d="M 212.53910524340097,212.53910524340094 A 104,104 0 0,1 196.77930423403862,225.4728396794647" />
    <path d="M 99.20092303403068,235.08347138117381 A 104,104 0 0,1 81.220695765961409,225.47283967946473" />
    <path d="M 52.527160320535287,196.77930423403862 A 104,104 0 0,1 36.998330838064035,159.28939348967737" />
    <path d="M 35,139.00000000000003 A 104,104 0 0,1 65.460894756599046,65.460894756599075" />
    <path d="M 115.58916135806456,21.305766351612363 A 120,120 0 0,1 139,19" />
    <path d="M 162.41083864193539,21.305766351612348 A 120,120 0 0,1 184.92201188381077,28.134456098645586" />
    <path d="M 223.85281374238571,54.147186257614294 A 120,120 0 0,1 259,139" />
    <path d="M 205.66842796235227,238.77635347630542 A 120,120 0 0,1 184.9220118838108,249.86554390135439" />
    <path d="M 162.41083864193544,256.69423364838764 A 120,120 0 0,1 139.00000000000003,259" />
    <path d="M 115.5891613580646,256.69423364838764 A 120,120 0 0,1 93.077988116189246,249.86554390135441" />
    <path d="M 54.147186257614308,223.85281374238571 A 120,120 0 0,1 28.134456098645614,184.92201188381085" />
    <path d="M 21.305766351612348,115.5891613580646 A 120,120 0 0,1 28.1344560986456,93.0779881161892" />
    <path d="M 39.223646523694541,72.331572037647774 A 120,120 0 0,1 93.077988116189147,28.134456098645614" />
    <path d="M 152.33033108482024,3.654877172581223 A 136,136 0 1,1 139,3" />
  </g>
  <g fill="none" stroke="#000000" stroke-width="2" stroke-linecap="butt">
    <line x1="139" y1="3" x2="139" y2="35" />
    <line x1="139" y1="67" x2="139" y2="99" />
    <line x1="184.92201188381077" y1="28.134456098645586" x2="172.6761420481279" y2="57.698601139006769" />
    <line x1="205.66842796235227" y1="39.223646523694569" x2="196.77930423403862" y2="52.5271603205353" />
    <line x1="225.4728396794647" y1="81.220695765961352" x2="212.16932588262398" y2="90.109819494275" />
    <line x1="249.86554390135441" y1="93.077988116189218" x2="235.08347138117381" y2="99.200923034030666" />
    <line x1="220.30139886099323" y1="105.3238579518721" x2="190.73725382063205" y2="117.56972778755497" />
    <line x1="256.69423364838764" y1="115.5891613580646" x2="209.61654018903261" y2="124.95349681483876" />
    <line x1="275" y1="139" x2="259" y2="139" />
    <line x1="211" y1="139" x2="195" y2="139" />
    <line x1="179" y1="139" x2="163" y2="139" />
    <line x1="272.38679813483935" y1="165.53228379419343" x2="256.69423364838764" y2="162.41083864193539" />
    <line x1="225.30910467548426" y1="156.16794833741929" x2="209.61654018903261" y2="153.04650318516124" />
    <line x1="264.64761642153496" y1="191.0449468016522" x2="249.86554390135441" y2="184.92201188381077" />
    <line x1="252.07986727314619" y1="214.55755169066586" x2="198.86581208578326" y2="179.00105677741135" />
    <line x1="235.16652224137047" y1="235.16652224137044" x2="212.53910524340097" y2="212.53910524340094" />
    <line x1="178.59797974644667" y1="178.59797974644664" x2="167.2842712474619" y2="167.2842712474619" />
    <line x1="184.9220118838108" y1="249.86554390135441" x2="172.6761420481279" y2="220.30139886099323" />
    <line x1="165.53228379419349" y1="272.38679813483935" x2="159.28939348967737" y2="241.00166916193598" />
    <line x1="156.16794833741932" y1="225.30910467548426" x2="153.04650318516127" y2="209.61654018903261" />
    <line x1="139.00000000000003" y1="259" x2="139" y2="227" />
    <line x1="139" y1="211" x2="139" y2="195" />
    <line x1="115.5891613580646" y1="256.69423364838764" x2="124.95349681483876" y2="209.61654018903261" />
    <line x1="105.3238579518721" y1="220.30139886099323" x2="111.44679286971355" y2="205.51932634081265" />
    <line x1="63.442448309334139" y1="252.07986727314619" x2="90.10981949427503" y2="212.16932588262398" />
    <line x1="54.147186257614308" y1="223.85281374238571" x2="76.774603255583827" y2="201.2253967444162" />
    <line x1="88.088311754568579" y1="189.91168824543144" x2="99.402020253553346" y2="178.59797974644667" />
    <line x1="110.7157287525381" y1="167.2842712474619" x2="122.02943725152286" y2="155.97056274847714" />
    <line x1="65.83067411737602" y1="187.890180505725" x2="79.134187914216739" y2="179.00105677741135" />
    <line x1="5.6132018651606757" y1="165.53228379419349" x2="52.690895324515736" y2="156.16794833741932" />
    <line x1="19" y1="139.00000000000003" x2="99" y2="139" />
    <line x1="5.6132018651606472" y1="112.46771620580655" x2="21.305766351612348" y2="115.5891613580646" />
    <line x1="36.998330838064035" y1="118.71060651032266" x2="52.690895324515722" y2="121.83205166258071" />
    <line x1="65.830674117376" y1="90.10981949427503" x2="79.134187914216724" y2="98.998943222588665" />
    <line x1="54.14718625761428" y1="54.147186257614322" x2="65.460894756599046" y2="65.460894756599075" />
    <line x1="76.7746032555838" y1="76.774603255583827" x2="122.02943725152286" y2="122.02943725152286" />
    <line x1="81.220695765961381" y1="52.5271603205353" x2="98.99894322258865" y2="79.134187914216739" />
    <line x1="86.955053198347713" y1="13.352383578465037" x2="105.32385795187204" y2="57.698601139006783" />
    <line x1="111.44679286971349" y1="72.480673659187374" x2="117.56972778755494" y2="87.262746179367952" />
    <line x1="115.58916135806456" y1="21.305766351612363" x2="118.71060651032261" y2="36.998330838064049" />
    <line x1="121.83205166258067" y1="52.690895324515736" x2="124.95349681483873" y2="68.383459810967423" />
  </g>
  <path fill="none" stroke="#ff0000" stroke-width="2" stroke-linecap="square" stroke-linejoin="round" d="M 145.67320370852886,3.1638179560965511 L 145.28066231390952,11.154181605737932 A 128,128 0 0,1 199.33878231372771,26.114078163410554 L 184.25408673529577,54.335558622557912 A 96,96 0 0,1 199.90175527970996,64.790996477177245 L 189.75146273309164,77.159163730981049 A 80,80 0 0,1 209.5537011478684,101.28826105392018 L 195.44296091829472,108.83060884313613 A 64,64 0 0,0 151.48578060903222,76.229742054193252 L 148.36433545677414,91.922306540644939 A 48,48 0 0,1 178.91054139052218,165.66737118494089 L 165.60702759368147,156.77824745662727 A 32,32 0 0,1 126.75413016431713,168.56414504036118 L 129.81559762323786,161.17310878027089" />
  <type>Circular</type>
</svg>