<?xml version="1.0" encoding="utf-8" standalone="no"?>
<!DOCTYPE svg PUBLIC "-//W3C//DTD SVG 1.1//EN" "http://www.w3.org/Graphics/SVG/1.1/DTD/svg11.dtd"[]>
<svg width="276" height="276" version="1.1" xmlns="http://www.w3.org/2000/svg">
  <title>17 cells diameter theta maze</title>
  <g fill="none" stroke="#000000" stroke-width="2" stroke-linecap="square">
    <path d="M 122.02943725152286,155.97056274847714 A 24,24 0 1,1 139,163" />
    <path d="M 102.04481869954853,123.6926627053964 A 40,40 0 0,1 154.3073372946036,102.04481869954853" />
    <path d="M 175.95518130045147,123.6926627053964 A 40,40 0 0,1 179,139" />
    <path d="M 175.95518130045147,154.3073372946036 A 40,40 0 0,1 154.3073372946036,175.95518130045147" />
    <path d="M 139,179 A 40,40 0 0,1 99,139" />
    <path d="M 178.59797974644667,99.402020253553331 A 56,56 0 0,1 195,139" />
    <path d="M 190.73725382063208,160.43027221244503 A 56,56 0 0,1 178.59797974644667,178.59797974644664" />
    <path d="M 139,195 A 56,56 0 0,1 99.402020253553346,178.59797974644667" />
    <path d="M 87.262746179367952,117.56972778755497 A 56,56 0 0,1 117.56972778755494,87.262746179367952" />
    <path d="M 124.95349681483873,68.383459810967409 A 72,72 0 0,1 139,67" />
    <path d="M 153.04650318516124,68.383459810967409 A 72,72 0 0,1 166.55320713028647,72.48067365918736" />
    <path d="M 189.91168824543144,88.088311754568579 A 72,72 0 0,1 198.86581208578326,98.998943222588636" />
    <path d="M 211,139 A 72,72 0 0,1 205.51932634081265,166.55320713028647" />
    <path d="M 198.86581208578326,179.00105677741135 A 72,72 0 0,1 166.55320713028647,205.51932634081265" />
    <path d="M 153.04650318516127,209.61654018903261 A 72,72 0 0,1 72.480673659187374,166.5532071302865" />
    <path d="M 68.383459810967409,153.04650318516127 A 72,72 0 0,1 68.383459810967409,124.95349681483876" />
    <path d="M 72.48067365918736,111.44679286971352 A 72,72 0 0,1 98.99894322258865,79.134187914216739" />
    <path d="M 139,51 A 88,88 0 0,1 212.16932588262398,90.109819494275" />
    <path d="M 220.30139886099323,105.3238579518721 A 88,88 0 0,1 225.30910467548426,156.16794833741929" />
    <path d="M 220.30139886099323,172.6761420481279 A 88,88 0 0,1 201.22539674441617,201.22539674441617" />
    <path d="M 172.6761420481279,220.30139886099323 A 88,88 0 0,1 156.16794833741932,225.30910467548426" />
    <path d="M 90.10981949427503,212.16932588262398 A 88,88 0 0,1 76.774603255583827,201.2253967444162" />
    <path d="M 57.698601139006783,172.67614204812796 A 88,88 0 0,1 52.690895324515722,156.16794833741932" />
    <path d="M 51,139.00000000000003 A 88,88 0 0,1 57.698601139006769,105.32385795187207" />
    <path d="M 65.830674117375992,90.10981949427503 A 88,88 0 0,1 76.7746032555838,76.774603255583827" />
    <path d="M 65.460894756599046,65.460894756599075 A 104,104 0 0,1 139,35" />
    <path d="M 159.28939348967734,36.998330838064035 A 104,104 0 0,1 196.77930423403862,52.527160320535287" />
    <path d="M 225.4728396794647,81.220695765961366 A 104,104 0 0,1 235.08347138117381,99.200923034030666" />
    <path d="M 241.00166916193598,118.71060651032266 A 104,104 0 0,1 243,139" />
    <path d="M 241.00166916193598,159.28939348967734 A 104,104 0 0,1 212.53910524340097,212.53910524340094" />
    <path d="M 196.77930423403862,225.4728396794647 A 104,104 0 0,1 139,243" />
    <path d="M 99.20092303403068,235.08347138117381 A 104,104 0 0,1 81.220695765961409,225.47283967946473" />
    <path d="M 65.460894756599075,212.53910524340097 A 104,104 0 0,1 42.916528618826206,178.79907696596939" />
    <path d="M 36.998330838064035,159.28939348967737 A 104,104 0 0,1 35,139.00000000000003" />
    <path d="M 115.58916135806456,21.305766351612363 A 120,120 0 0,1 139,19" />
    <path d="M 162.41083864193539,21.305766351612348 A 120,120 0 0,1 184.92201188381077,28.134456098645586" />
    <path d="M 223.85281374238571,54.147186257614294 A 120,120 0 0,1 238.77635347630542,72.331572037647732" />
    <path d="M 249.86554390135441,93.077988116189232 A 120,120 0 0,1 256.69423364838764,115.5891613580646" />
    <path d="M 256.69423364838764,162.41083864193539 A 120,120 0 0,1 223.85281374238571,223.85281374238571" />
    <path d="M 205.66842796235227,238.77635347630542 A 120,120 0 0,1 184.9220118838108,249.86554390135439" />
    <path d="M 162.41083864193544,256.69423364838764 A 120,120 0 0,1 93.077988116189246,249.86554390135441" />
    <path d="M 72.331572037647774,238.77635347630547 A 120,120 0 0,1 54.147186257614308,223.85281374238571" />
    <path d="M 39.223646523694569,205.66842796235227 A 120,120 0 0,1 21.305766351612348,162.41083864193544" />
    <path d="M 21.305766351612348,115.5891613580646 A 120,120 0 0,1 54.14718625761428,54.147186257614322" />
    <path d="M 72.331572037647732,39.223646523694569 A 120,120 0 0,1 93.077988116189147,28.134456098645614" />
    <path d="M 152.33033108482024,3.654877172581223 A 136,136 0 1,1 139,3" />
  </g>
  <g fill="none" stroke="#000000" stroke-width="2" stroke-linecap="butt">
    <line x1="139" y1="35" x2="139" y2="51" />
    <line x1="139" y1="67" x2="139" y2="99" />
    <line x1="162.41083864193539" y1="21.305766351612348" x2="159.28939348967734" y2="36.998330838064035" />
    <line x1="166.55320713028647" y1="72.48067365918736" x2="154.3073372946036" y2="102.04481869954853" />
    <line x1="214.55755169066589" y1="25.920132726853851" x2="196.77930423403862" y2="52.5271603205353" />
    <line x1="187.890180505725" y1="65.83067411737602" x2="179.00105677741135" y2="79.134187914216739" />
    <line x1="223.85281374238571" y1="54.147186257614294" x2="212.53910524340094" y2="65.460894756599046" />
    <line x1="189.91168824543144" y1="88.088311754568565" x2="155.97056274847714" y2="122.02943725152286" />
    <line x1="252.07986727314614" y1="63.442448309334083" x2="238.77635347630542" y2="72.331572037647732" />
    <line x1="225.4728396794647" y1="81.220695765961352" x2="198.86581208578326" y2="98.998943222588636" />
    <line x1="205.51932634081265" y1="111.44679286971353" x2="190.73725382063205" y2="117.56972778755497" />
    <line x1="256.69423364838764" y1="115.5891613580646" x2="209.61654018903261" y2="124.95349681483876" />
    <line x1="275" y1="139" x2="243" y2="139" />
    <line x1="179" y1="139" x2="163" y2="139" />
    <line x1="256.69423364838764" y1="162.41083864193539" x2="241.00166916193598" y2="159.28939348967734" />
    <line x1="264.64761642153496" y1="191.0449468016522" x2="249.86554390135441" y2="184.92201188381077" />
    <line x1="220.30139886099323" y1="172.6761420481279" x2="190.73725382063205" y2="160.43027221244503" />
    <line x1="212.53910524340097" y1="212.53910524340094" x2="201.22539674441617" y2="201.22539674441617" />
    <line x1="178.59797974644667" y1="178.59797974644664" x2="167.2842712474619" y2="167.2842712474619" />
    <line x1="205.66842796235227" y1="238.77635347630545" x2="179.00105677741135" y2="198.86581208578326" />
    <line x1="166.55320713028647" y1="205.51932634081265" x2="160.43027221244503" y2="190.73725382063205" />
    <line x1="156.16794833741932" y1="225.30910467548426" x2="153.04650318516127" y2="209.61654018903261" />
    <line x1="139" y1="243" x2="139" y2="195" />
    <line x1="139" y1="179" x2="139" y2="163" />
    <line x1="118.71060651032265" y1="241.00166916193598" x2="124.95349681483876" y2="209.61654018903261" />
    <line x1="86.9550531983478" y1="264.647616421535" x2="105.3238579518721" y2="220.30139886099323" />
    <line x1="90.10981949427503" y1="212.16932588262398" x2="98.99894322258865" y2="198.86581208578326" />
    <line x1="54.147186257614308" y1="223.85281374238571" x2="76.774603255583827" y2="201.2253967444162" />
    <line x1="25.920132726853851" y1="214.55755169066589" x2="39.223646523694569" y2="205.66842796235227" />
    <line x1="65.83067411737602" y1="187.890180505725" x2="79.134187914216739" y2="179.00105677741135" />
    <line x1="42.916528618826206" y1="178.79907696596939" x2="57.698601139006783" y2="172.67614204812796" />
    <line x1="72.480673659187374" y1="166.5532071302865" x2="87.262746179367952" y2="160.43027221244506" />
    <line x1="21.305766351612363" y1="162.41083864193544" x2="36.998330838064049" y2="159.28939348967737" />
    <line x1="52.690895324515736" y1="156.16794833741932" x2="68.383459810967423" y2="153.04650318516127" />
    <line x1="19" y1="139.00000000000003" x2="51" y2="139.00000000000003" />
    <line x1="67" y1="139" x2="99" y2="139" />
    <line x1="21.305766351612348" y1="115.5891613580646" x2="36.998330838064035" y2="118.71060651032266" />
    <line x1="42.916528618826192" y1="99.200923034030637" x2="102.04481869954853" y2="123.6926627053964" />
    <line x1="52.527160320535273" y1="81.220695765961409" x2="79.134187914216724" y2="98.998943222588665" />
    <line x1="54.14718625761428" y1="54.147186257614322" x2="65.460894756599046" y2="65.460894756599075" />
    <line x1="110.7157287525381" y1="110.7157287525381" x2="122.02943725152286" y2="122.02943725152286" />
    <line x1="63.442448309334111" y1="25.920132726853851" x2="72.331572037647732" y2="39.223646523694569" />
    <line x1="90.109819494275" y1="65.83067411737602" x2="98.99894322258865" y2="79.134187914216739" />
    <line x1="105.32385795187204" y1="57.698601139006783" x2="117.56972778755494" y2="87.262746179367952" />
    <line x1="112.4677162058065" y1="5.6132018651606757" x2="115.58916135806456" y2="21.305766351612363" />
    <line x1="121.83205166258067" y1="52.690895324515736" x2="124.95349681483873" y2="68.383459810967423" />
  </g>
  <path fill="none" stroke="#ff0000" stroke-width="2" stroke-linecap="square" stroke-linejoin="round" d="M 145.67320370852886,3.1638179560965511 L 145.28066231390952,11.154181605737932 A 128,128 0 0,1 151.54619396218376,11.616354985958793 L 148.40964547163782,43.4622662394691 A 96,96 0 0,1 213.20900352282274,78.098244720290026 L 225.57717077662653,67.9479521736717 A 112,112 0 0,1 246.17731760200741,106.48811614750022 L 230.86627223029205,111.13267098357161 A 96,96 0 0,0 223.66444137744207,93.745913264704214 L 209.5537011478684,101.28826105392018 A 80,80 0 0,1 215.5552268585767,115.77722581964301 L 200.24418148686138,120.42178065571441 A 64,64 0 0,1 201.77025794580675,151.48578060903219 L 170.38512897290337,145.2428903045161 A 32,32 0 0,1 145.24289030451612,170.38512897290337 L 148.36433545677417,186.07769345935506 A 48,48 0 0,0 165.66737118494089,178.91054139052218 L 174.55649491325454,192.2140551873629 A 64,64 0 0,0 195.44296091829472,169.16939115686387 L 209.5537011478684,176.71173894607981 A 80,80 0 0,1 189.75146273309164,200.84083626901895 L 220.20234037294662,237.94533803043032 A 128,128 0 0,1 176.1564386885712,261.4883629737227 L 171.51188385249978,246.17731760200741 A 112,112 0 0,1 106.48811614750025,246.17731760200741 L 115.77722581964304,215.5552268585767 A 80,80 0 0,1 101.2882610539202,209.55370114786842 L 93.745913264704228,223.66444137744207 A 96,96 0 0,1 78.098244720290054,213.20900352282277 L 67.947952173671723,225.57717077662656 A 112,112 0 0,0 86.203565475488261,237.77518160701578 L 78.6612176862723,251.88592183658943 A 128,128 0 0,1 40.054661969569707,220.20234037294668 L 52.4228292233735,210.05204782632833 A 112,112 0 0,1 31.822682397992608,171.51188385249981 L 47.133727769707946,166.86732901642839 A 96,96 0 0,1 43.4622662394691,148.40964547163782 L 59.385221866224242,146.84137122636483 A 80,80 0 0,1 62.444773141423283,115.77722581964304 L 77.755818513138621,120.42178065571443 A 64,64 0 0,0 76.229742054193252,126.51421939096778 L 107.61487102709663,132.75710969548391 A 32,32 0 0,0 126.75413016431713,168.56414504036118 L 129.81559762323786,161.17310878027089" />
  <type>Circular</type>
</svg>