<?xml version="1.0" encoding="utf-8" standalone="no"?>
<!DOCTYPE svg PUBLIC "-//W3C//DTD SVG 1.1//EN" "http://www.w3.org/Graphics/SVG/1.1/DTD/svg11.dtd"[]>
<svg width="276" height="276" version="1.1" xmlns="http://www.w3.org/2000/svg">
  <title>17 cells diameter theta maze</title>
  <g fill="none" stroke="#000000" stroke-width="2" stroke-linecap="square">
    <path d="M 122.02943725152286,155.97056274847714 A 24,24 0 1,1 139,163" />
    <path d="M 123.69266270539639,102.04481869954854 A 40,40 0 0,1 154.3073372946036,102.04481869954853" />
    <path d="M 167.2842712474619,110.7157287525381 A 40,40 0 0,1 175.95518130045147,154.3073372946036" />
    <path d="M 167.2842712474619,167.2842712474619 A 40,40 0 0,1 139,179" />
    <path d="M 123.69266270539642,175.95518130045147 A 40,40 0 0,1 102.04481869954853,123.6926627053964" />
    <path d="M 99.402020253553331,99.402020253553346 A 56,56 0 0,1 139,83" />
    <path d="M 195,139 A 56,56 0 0,1 190.73725382063208,160.43027221244503" />
    <path d="M 178.59797974644667,178.59797974644664 A 56,56 0 0,1 160.43027221244503,190.73725382063205" />
    <path d="M 139,195 A 56,56 0 0,1 99.402020253553346,178.59797974644667" />
    <path d="M 87.262746179367952,160.43027221244506 A 56,56 0 0,1 87.262746179367952,117.56972778755497" />
    <path d="M 111.44679286971349,72.480673659187374 A 72,72 0 0,1 153.04650318516124,68.383459810967409" />
    <path d="M 166.55320713028647,72.48067365918736 A 72,72 0 0,1 198.86581208578326,98.998943222588636" />
    <path d="M 205.51932634081265,111.44679286971353 A 72,72 0 0,1 205.51932634081265,166.55320713028647" />
    <path d="M 189.91168824543144,189.91168824543141 A 72,72 0 0,1 179.00105677741135,198.86581208578326" />
    <path d="M 166.55320713028647,205.51932634081265 A 72,72 0 0,1 139,211" />
    <path d="M 124.95349681483876,209.61654018903261 A 72,72 0 0,1 79.134187914216739,179.00105677741135" />
    <path d="M 72.480673659187374,166.5532071302865 A 72,72 0 0,1 68.383459810967409,153.04650318516127" />
    <path d="M 67,139 A 72,72 0 0,1 79.134187914216724,98.998943222588665" />
    <path d="M 88.088311754568565,88.0883117545686 A 72,72 0 0,1 98.99894322258865,79.134187914216739" />
    <path d="M 156.16794833741929,52.690895324515722 A 88,88 0 0,1 212.16932588262398,90.109819494275" />
    <path d="M 220.30139886099323,105.3238579518721 A 88,88 0 0,1 225.30910467548426,156.16794833741929" />
    <path d="M 212.16932588262398,187.89018050572497 A 88,88 0 0,1 201.22539674441617,201.22539674441617" />
    <path d="M 187.89018050572497,212.16932588262398 A 88,88 0 0,1 172.6761420481279,220.30139886099323" />
    <path d="M 139,227 A 88,88 0 0,1 90.10981949427503,212.16932588262398" />
    <path d="M 76.774603255583827,201.2253967444162 A 88,88 0 0,1 65.83067411737602,187.890180505725" />
    <path d="M 57.698601139006783,172.67614204812796 A 88,88 0 0,1 51,139.00000000000003" />
    <path d="M 65.830674117375992,90.10981949427503 A 88,88 0 0,1 76.7746032555838,76.774603255583827" />
    <path d="M 90.109819494275,65.83067411737602 A 88,88 0 0,1 105.32385795187204,57.698601139006783" />
    <path d="M 139,35 A 104,104 0 0,1 159.28939348967734,36.998330838064035" />
    <path d="M 178.79907696596933,42.916528618826177 A 104,104 0 0,1 225.4728396794647,81.220695765961366" />
    <path d="M 241.00166916193598,118.71060651032266 A 104,104 0 0,1 243,139" />
    <path d="M 212.53910524340097,212.53910524340094 A 104,104 0 0,1 196.77930423403862,225.4728396794647" />
    <path d="M 159.28939348967737,241.00166916193598 A 104,104 0 0,1 118.71060651032265,241.00166916193598" />
    <path d="M 99.20092303403068,235.08347138117381 A 104,104 0 0,1 52.527160320535287,196.77930423403862" />
    <path d="M 36.998330838064035,159.28939348967737 A 104,104 0 0,1 35,139.00000000000003" />
    <path d="M 42.916528618826192,99.200923034030637 A 104,104 0 0,1 52.527160320535273,81.220695765961409" />
    <path d="M 65.460894756599046,65.460894756599075 A 104,104 0 0,1 99.200923034030609,42.916528618826206" />
    <path d="M 162.41083864193539,21.305766351612348 A 120,120 0 0,1 184.92201188381077,28.134456098645586" />
    <path d="M 205.66842796235227,39.223646523694569 A 120,120 0 0,1 256.69423364838764,115.5891613580646" />
    <path d="M 256.69423364838764,162.41083864193539 A 120,120 0 0,1 139.00000000000003,259" />
    <path d="M 93.077988116189246,249.86554390135441 A 120,120 0 0,1 28.134456098645614,184.92201188381085" />
    <path d="M 28.1344560986456,93.0779881161892 A 120,120 0 0,1 39.223646523694541,72.331572037647774" />
    <path d="M 93.077988116189147,28.134456098645614 A 120,120 0 0,1 115.58916135806456,21.305766351612363" />
    <path d="M 152.33033108482024,3.654877172581223 A 136,136 0 1,1 139,3" />
  </g>
  <g fill="none" stroke="#000000" stroke-width="2" stroke-linecap="butt">
    <line x1="139" y1="3" x2="139" y2="51" />
    <line x1="139" y1="99" x2="139" y2="115" />
    <line x1="159.28939348967734" y1="36.998330838064035" x2="156.16794833741929" y2="52.690895324515722" />
    <line x1="184.92201188381077" y1="28.134456098645586" x2="178.79907696596933" y2="42.916528618826177" />
    <line x1="160.43027221244503" y1="87.262746179367952" x2="154.3073372946036" y2="102.04481869954853" />
    <line x1="205.66842796235227" y1="39.223646523694569" x2="196.77930423403862" y2="52.5271603205353" />
    <line x1="189.91168824543144" y1="88.088311754568565" x2="167.2842712474619" y2="110.7157287525381" />
    <line x1="212.16932588262398" y1="90.109819494275" x2="198.86581208578326" y2="98.998943222588636" />
    <line x1="249.86554390135441" y1="93.077988116189218" x2="190.73725382063205" y2="117.56972778755497" />
    <line x1="275" y1="139" x2="243" y2="139" />
    <line x1="256.69423364838764" y1="162.41083864193539" x2="225.30910467548426" y2="156.16794833741929" />
    <line x1="249.86554390135441" y1="184.92201188381077" x2="235.08347138117381" y2="178.79907696596933" />
    <line x1="220.30139886099323" y1="172.6761420481279" x2="205.51932634081265" y2="166.55320713028647" />
    <line x1="190.73725382063205" y1="160.43027221244503" x2="175.95518130045147" y2="154.3073372946036" />
    <line x1="225.47283967946473" y1="196.77930423403859" x2="198.86581208578326" y2="179.00105677741135" />
    <line x1="223.85281374238571" y1="223.85281374238571" x2="212.53910524340097" y2="212.53910524340094" />
    <line x1="201.22539674441617" y1="201.22539674441617" x2="178.59797974644667" y2="178.59797974644664" />
    <line x1="187.890180505725" y1="212.16932588262398" x2="179.00105677741135" y2="198.86581208578326" />
    <line x1="184.9220118838108" y1="249.86554390135441" x2="172.6761420481279" y2="220.30139886099323" />
    <line x1="160.43027221244503" y1="190.73725382063205" x2="154.3073372946036" y2="175.95518130045147" />
    <line x1="159.28939348967737" y1="241.00166916193598" x2="153.04650318516127" y2="209.61654018903261" />
    <line x1="139" y1="211" x2="139" y2="195" />
    <line x1="139" y1="179" x2="139" y2="163" />
    <line x1="112.46771620580654" y1="272.38679813483935" x2="121.83205166258071" y2="225.30910467548426" />
    <line x1="105.3238579518721" y1="220.30139886099323" x2="111.44679286971355" y2="205.51932634081265" />
    <line x1="117.56972778755498" y1="190.73725382063208" x2="123.69266270539642" y2="175.95518130045147" />
    <line x1="54.147186257614308" y1="223.85281374238571" x2="65.46089475659906" y2="212.53910524340097" />
    <line x1="110.7157287525381" y1="167.2842712474619" x2="122.02943725152286" y2="155.97056274847714" />
    <line x1="65.83067411737602" y1="187.890180505725" x2="79.134187914216739" y2="179.00105677741135" />
    <line x1="28.134456098645614" y1="184.92201188381085" x2="57.698601139006783" y2="172.67614204812796" />
    <line x1="72.480673659187374" y1="166.5532071302865" x2="87.262746179367952" y2="160.43027221244506" />
    <line x1="5.6132018651606757" y1="165.53228379419349" x2="36.998330838064049" y2="159.28939348967737" />
    <line x1="52.690895324515736" y1="156.16794833741932" x2="68.383459810967423" y2="153.04650318516127" />
    <line x1="19" y1="139.00000000000003" x2="35" y2="139.00000000000003" />
    <line x1="21.305766351612348" y1="115.5891613580646" x2="68.383459810967409" y2="124.95349681483876" />
    <line x1="28.1344560986456" y1="93.0779881161892" x2="42.916528618826192" y2="99.200923034030637" />
    <line x1="57.698601139006783" y1="105.32385795187207" x2="87.262746179367952" y2="117.56972778755497" />
    <line x1="25.920132726853822" y1="63.442448309334154" x2="39.223646523694541" y2="72.331572037647774" />
    <line x1="65.830674117376" y1="90.10981949427503" x2="79.134187914216724" y2="98.998943222588665" />
    <line x1="54.14718625761428" y1="54.147186257614322" x2="76.7746032555838" y2="76.774603255583827" />
    <line x1="110.7157287525381" y1="110.7157287525381" x2="122.02943725152286" y2="122.02943725152286" />
    <line x1="72.331572037647732" y1="39.223646523694569" x2="81.220695765961381" y2="52.5271603205353" />
    <line x1="90.109819494275" y1="65.83067411737602" x2="98.99894322258865" y2="79.134187914216739" />
    <line x1="93.077988116189147" y1="28.134456098645614" x2="105.32385795187204" y2="57.698601139006783" />
    <line x1="111.44679286971349" y1="72.480673659187374" x2="123.69266270539639" y2="102.04481869954854" />
    <line x1="115.58916135806456" y1="21.305766351612363" x2="124.95349681483873" y2="68.383459810967423" />
  </g>
  <path fill="none" stroke="#ff0000" stroke-width="2" stroke-linecap="square" stroke-linejoin="round" d="M 145.67320370852886,3.1638179560965511 L 145.28066231390952,11.154181605737932 A 128,128 0 0,1 266.38364501404118,126.45380603781622 L 250.46068938728604,128.0220802830892 A 112,112 0 0,0 246.17731760200741,106.48811614750022 L 230.86627223029205,111.13267098357161 A 96,96 0 0,1 234.5377337605309,148.40964547163782 L 266.38364501404124,151.54619396218376 A 128,128 0 0,1 126.45380603781625,266.38364501404124 L 128.02208028308922,250.46068938728604 A 112,112 0 0,0 171.51188385249978,246.17731760200741 L 162.222774180357,215.5552268585767 A 80,80 0 0,0 176.71173894607983,209.5537011478684 L 169.16939115686387,195.44296091829472 A 64,64 0 0,1 151.48578060903222,201.77025794580675 L 148.36433545677417,186.07769345935506 A 48,48 0 0,1 129.63566454322583,186.07769345935506 L 132.75710969548391,170.38512897290337 A 32,32 0 0,1 126.75413016431713,168.56414504036118 L 129.81559762323786,161.17310878027089" />
  <type>Circular</type>
</svg>