<?xml version="1.0" encoding="utf-8" standalone="no"?>
<!DOCTYPE svg PUBLIC "-//W3C//DTD SVG 1.1//EN" "http://www.w3.org/Graphics/SVG/1.1/DTD/svg11.dtd"[]>
<svg width="276" height="276" version="1.1" xmlns="http://www.w3.org/2000/svg">
  <title>17 cells diameter theta maze</title>
  <g fill="none" stroke="#000000" stroke-width="2" stroke-linecap="square">
    <path d="M 122.02943725152286,155.97056274847714 A 24,24 0 1,1 139,163" />
    <path d="M 99,139 A 40,40 0 0,1 139,99" />
    <path d="M 154.3073372946036,102.04481869954853 A 40,40 0 0,1 175.95518130045147,123.6926627053964" />
    <path d="M 179,139 A 40,40 0 0,1 175.95518130045147,154.3073372946036" />
    <path d="M 154.3073372946036,175.95518130045147 A 40,40 0 0,1 139,179" />
    <path d="M 123.69266270539642,175.95518130045147 A 40,40 0 0,1 110.7157287525381,167.2842712474619" />
    <path d="M 117.56972778755498,190.73725382063208 A 56,56 0 0,1 160.43027221244503,87.262746179367952" />
    <path d="M 178.59797974644667,99.402020253553331 A 56,56 0 0,1 160.43027221244503,190.73725382063205" />
    <path d="M 124.95349681483873,68.383459810967409 A 72,72 0 0,1 139,67" />
    <path d="M 153.04650318516124,68.383459810967409 A 72,72 0 0,1 166.55320713028647,72.48067365918736" />
    <path d="M 179.00105677741135,79.134187914216739 A 72,72 0 0,1 198.86581208578326,179.00105677741135" />
    <path d="M 179.00105677741135,198.86581208578326 A 72,72 0 0,1 153.04650318516127,209.61654018903261" />
    <path d="M 139,211 A 72,72 0 0,1 79.134187914216724,98.998943222588665" />
    <path d="M 98.99894322258865,79.134187914216739 A 72,72 0 0,1 111.44679286971349,72.480673659187374" />
    <path d="M 76.7746032555838,76.774603255583827 A 88,88 0 0,1 156.16794833741929,52.690895324515722" />
    <path d="M 187.890180505725,65.83067411737602 A 88,88 0 0,1 220.30139886099323,105.3238579518721" />
    <path d="M 225.30910467548426,121.83205166258071 A 88,88 0 0,1 212.16932588262398,187.89018050572497" />
    <path d="M 201.22539674441617,201.22539674441617 A 88,88 0 0,1 172.6761420481279,220.30139886099323" />
    <path d="M 121.83205166258071,225.30910467548426 A 88,88 0 0,1 76.774603255583827,201.2253967444162" />
    <path d="M 51,139.00000000000003 A 88,88 0 0,1 57.698601139006769,105.32385795187207" />
    <path d="M 139,35 A 104,104 0 0,1 178.79907696596933,42.916528618826177" />
    <path d="M 212.53910524340094,65.46089475659906 A 104,104 0 0,1 225.4728396794647,81.220695765961366" />
    <path d="M 235.08347138117381,178.79907696596933 A 104,104 0 0,1 225.47283967946473,196.77930423403859" />
    <path d="M 212.53910524340097,212.53910524340094 A 104,104 0 0,1 196.77930423403862,225.4728396794647" />
    <path d="M 178.79907696596933,235.08347138117381 A 104,104 0 0,1 99.20092303403068,235.08347138117381" />
    <path d="M 81.220695765961409,225.47283967946473 A 104,104 0 0,1 36.998330838064035,118.71060651032266" />
    <path d="M 42.916528618826192,99.200923034030637 A 104,104 0 0,1 81.220695765961366,52.5271603205353" />
    <path d="M 72.331572037647732,39.223646523694569 A 120,120 0 0,1 162.41083864193539,21.305766351612348" />
    <path d="M 184.92201188381077,28.134456098645586 A 120,120 0 0,1 223.85281374238571,54.147186257614294" />
    <path d="M 249.86554390135441,184.92201188381077 A 120,120 0 0,1 223.85281374238571,223.85281374238571" />
    <path d="M 205.66842796235227,238.77635347630542 A 120,120 0 0,1 184.9220118838108,249.86554390135439" />
    <path d="M 162.41083864193544,256.69423364838764 A 120,120 0 0,1 139.00000000000003,259" />
    <path d="M 93.077988116189246,249.86554390135441 A 120,120 0 0,1 72.331572037647774,238.77635347630547" />
    <path d="M 21.305766351612348,115.5891613580646 A 120,120 0 0,1 28.1344560986456,93.0779881161892" />
    <path d="M 39.223646523694541,72.331572037647774 A 120,120 0 0,1 54.14718625761428,54.147186257614322" />
    <path d="M 152.33033108482024,3.654877172581223 A 136,136 0 1,1 139,3" />
  </g>
  <g fill="none" stroke="#000000" stroke-width="2" stroke-linecap="butt">
    <line x1="139" y1="3" x2="139" y2="19" />
    <line x1="139" y1="35" x2="139" y2="51" />
    <line x1="139" y1="67" x2="139" y2="83" />
    <line x1="184.92201188381077" y1="28.134456098645586" x2="166.55320713028647" y2="72.48067365918736" />
    <line x1="160.43027221244503" y1="87.262746179367952" x2="154.3073372946036" y2="102.04481869954853" />
    <line x1="196.77930423403862" y1="52.5271603205353" x2="179.00105677741135" y2="79.134187914216739" />
    <line x1="223.85281374238571" y1="54.147186257614294" x2="212.53910524340094" y2="65.460894756599046" />
    <line x1="252.07986727314614" y1="63.442448309334083" x2="238.77635347630542" y2="72.331572037647732" />
    <line x1="249.86554390135441" y1="93.077988116189218" x2="220.30139886099323" y2="105.3238579518721" />
    <line x1="190.73725382063205" y1="117.56972778755497" x2="175.95518130045147" y2="123.6926627053964" />
    <line x1="272.38679813483935" y1="112.46771620580654" x2="241.00166916193598" y2="118.71060651032265" />
    <line x1="225.30910467548426" y1="121.83205166258071" x2="209.61654018903261" y2="124.95349681483876" />
    <line x1="259" y1="139" x2="227" y2="139" />
    <line x1="179" y1="139" x2="163" y2="139" />
    <line x1="272.38679813483935" y1="165.53228379419343" x2="241.00166916193598" y2="159.28939348967734" />
    <line x1="249.86554390135441" y1="184.92201188381077" x2="220.30139886099323" y2="172.6761420481279" />
    <line x1="205.51932634081265" y1="166.55320713028647" x2="190.73725382063205" y2="160.43027221244503" />
    <line x1="201.22539674441617" y1="201.22539674441617" x2="189.91168824543144" y2="189.91168824543144" />
    <line x1="178.59797974644667" y1="178.59797974644664" x2="167.2842712474619" y2="167.2842712474619" />
    <line x1="205.66842796235227" y1="238.77635347630545" x2="187.890180505725" y2="212.16932588262398" />
    <line x1="184.9220118838108" y1="249.86554390135441" x2="178.79907696596933" y2="235.08347138117381" />
    <line x1="166.55320713028647" y1="205.51932634081265" x2="160.43027221244503" y2="190.73725382063205" />
    <line x1="165.53228379419349" y1="272.38679813483935" x2="162.41083864193544" y2="256.69423364838764" />
    <line x1="159.28939348967737" y1="241.00166916193598" x2="153.04650318516127" y2="209.61654018903261" />
    <line x1="139" y1="243" x2="139" y2="227" />
    <line x1="139" y1="211" x2="139" y2="163" />
    <line x1="112.46771620580654" y1="272.38679813483935" x2="115.5891613580646" y2="256.69423364838764" />
    <line x1="99.200923034030666" y1="235.08347138117384" x2="105.3238579518721" y2="220.30139886099323" />
    <line x1="117.56972778755498" y1="190.73725382063208" x2="123.69266270539642" y2="175.95518130045147" />
    <line x1="63.442448309334139" y1="252.07986727314619" x2="72.33157203764776" y2="238.77635347630547" />
    <line x1="54.147186257614308" y1="223.85281374238571" x2="65.46089475659906" y2="212.53910524340097" />
    <line x1="110.7157287525381" y1="167.2842712474619" x2="122.02943725152286" y2="155.97056274847714" />
    <line x1="25.920132726853851" y1="214.55755169066589" x2="39.223646523694569" y2="205.66842796235227" />
    <line x1="52.5271603205353" y1="196.77930423403862" x2="65.83067411737602" y2="187.890180505725" />
    <line x1="28.134456098645614" y1="184.92201188381085" x2="42.916528618826206" y2="178.79907696596939" />
    <line x1="57.698601139006783" y1="172.67614204812796" x2="72.480673659187374" y2="166.5532071302865" />
    <line x1="87.262746179367952" y1="160.43027221244506" x2="102.04481869954854" y2="154.3073372946036" />
    <line x1="5.6132018651606757" y1="165.53228379419349" x2="21.305766351612363" y2="162.41083864193544" />
    <line x1="52.690895324515736" y1="156.16794833741932" x2="68.383459810967423" y2="153.04650318516127" />
    <line x1="19" y1="139.00000000000003" x2="51" y2="139.00000000000003" />
    <line x1="99" y1="139" x2="115" y2="139" />
    <line x1="5.6132018651606472" y1="112.46771620580655" x2="21.305766351612348" y2="115.5891613580646" />
    <line x1="42.916528618826192" y1="99.200923034030637" x2="57.698601139006783" y2="105.32385795187207" />
    <line x1="52.527160320535273" y1="81.220695765961409" x2="79.134187914216724" y2="98.998943222588665" />
    <line x1="54.14718625761428" y1="54.147186257614322" x2="65.460894756599046" y2="65.460894756599075" />
    <line x1="76.7746032555838" y1="76.774603255583827" x2="88.088311754568565" y2="88.0883117545686" />
    <line x1="93.077988116189147" y1="28.134456098645614" x2="105.32385795187204" y2="57.698601139006783" />
    <line x1="111.44679286971349" y1="72.480673659187374" x2="117.56972778755494" y2="87.262746179367952" />
    <line x1="115.58916135806456" y1="21.305766351612363" x2="118.71060651032261" y2="36.998330838064049" />
    <line x1="121.83205166258067" y1="52.690895324515736" x2="124.95349681483873" y2="68.383459810967423" />
  </g>
  <path fill="none" stroke="#ff0000" stroke-width="2" stroke-linecap="square" stroke-linejoin="round" d="M 145.67320370852886,3.1638179560965511 L 145.28066231390952,11.154181605737932 A 128,128 0 0,1 237.94533803043032,57.797659627053378 L 225.57717077662653,67.9479521736717 A 112,112 0 0,1 237.77518160701575,86.203565475488247 L 251.88592183658943,78.66121768627228 A 128,128 0 0,1 261.48836297372276,101.84356131142883 L 230.86627223029205,111.13267098357161 A 96,96 0 0,1 234.5377337605309,129.59035452836216 L 266.38364501404118,126.45380603781622 A 128,128 0 0,1 266.38364501404124,151.54619396218376 L 234.5377337605309,148.40964547163782 A 96,96 0 0,1 230.86627223029205,166.86732901642836 L 261.48836297372276,176.15643868857114 A 128,128 0 0,1 176.1564386885712,261.4883629737227 L 171.51188385249978,246.17731760200741 A 112,112 0 0,1 67.947952173671723,225.57717077662656 L 57.797659627053406,237.94533803043035 A 128,128 0 0,1 40.054661969569707,220.20234037294668 L 52.4228292233735,210.05204782632833 A 112,112 0 0,1 40.224818392984247,191.79643452451177 L 26.114078163410568,199.33878231372773 A 128,128 0 0,1 16.51163702627727,176.1564386885712 L 31.822682397992608,171.51188385249981 A 112,112 0 0,1 27.539310612713948,149.97791971691078 L 11.616354985958793,151.54619396218374 A 128,128 0 0,1 11.616354985958793,126.45380603781631 L 27.539310612713948,128.02208028308928 A 112,112 0 0,1 40.224818392984233,86.203565475488276 L 26.114078163410554,78.661217686272309 A 128,128 0 0,1 57.797659627053321,40.054661969569707 L 67.947952173671652,52.4228292233735 A 112,112 0 0,1 86.203565475488233,40.224818392984261 L 93.7459132647042,54.335558622557926 A 96,96 0 0,0 64.790996477177259,78.098244720290026 L 89.52733098478484,98.398829813526675 A 64,64 0 0,0 126.51421939096778,201.77025794580675 L 132.75710969548391,170.38512897290337 A 32,32 0 0,1 126.75413016431713,168.56414504036118 L 129.81559762323786,161.17310878027089" />
  <type>Circular</type>
</svg>