<?xml version="1.0" encoding="utf-8" standalone="no"?>
<!DOCTYPE svg PUBLIC "-//W3C//DTD SVG 1.1//EN" "http://www.w3.org/Graphics/SVG/1.1/DTD/svg11.dtd"[]>
<svg width="276" height="276" version="1.1" xmlns="http://www.w3.org/2000/svg">
  <title>17 cells diameter theta maze</title>
  <g fill="none" stroke="#000000" stroke-width="2" stroke-linecap="square">
    <path d="M 122.02943725152286,155.97056274847714 A 24,24 0 1,1 139,163" />
    <path d="M 99,139 A 40,40 0 0,1 139,99" />
    <path d="M 167.2842712474619,110.7157287525381 A 40,40 0 0,1 110.7157287525381,167.2842712474619" />
    <path d="M 117.56972778755494,87.262746179367952 A 56,56 0 0,1 160.43027221244503,87.262746179367952" />
    <path d="M 190.73725382063205,117.56972778755497 A 56,56 0 0,1 160.43027221244503,190.73725382063205" />
    <path d="M 139,195 A 56,56 0 0,1 99.402020253553346,178.59797974644667" />
    <path d="M 87.262746179367952,160.43027221244506 A 56,56 0 0,1 87.262746179367952,117.56972778755497" />
    <path d="M 88.088311754568565,88.0883117545686 A 72,72 0 0,1 166.55320713028647,72.48067365918736" />
    <path d="M 179.00105677741135,79.134187914216739 A 72,72 0 0,1 189.91168824543144,88.088311754568579" />
    <path d="M 198.86581208578326,98.998943222588636 A 72,72 0 0,1 205.51932634081265,111.44679286971353" />
    <path d="M 209.61654018903261,124.95349681483876 A 72,72 0 0,1 205.51932634081265,166.55320713028647" />
    <path d="M 198.86581208578326,179.00105677741135 A 72,72 0 0,1 179.00105677741135,198.86581208578326" />
    <path d="M 166.55320713028647,205.51932634081265 A 72,72 0 0,1 153.04650318516127,209.61654018903261" />
    <path d="M 124.95349681483876,209.61654018903261 A 72,72 0 0,1 98.998943222588665,198.86581208578326" />
    <path d="M 88.0883117545686,189.91168824543144 A 72,72 0 0,1 79.134187914216739,179.00105677741135" />
    <path d="M 72.480673659187374,166.5532071302865 A 72,72 0 0,1 67,139" />
    <path d="M 90.109819494275,65.83067411737602 A 88,88 0 0,1 139,51" />
    <path d="M 172.6761420481279,57.698601139006769 A 88,88 0 0,1 187.890180505725,65.83067411737602" />
    <path d="M 201.22539674441617,76.774603255583813 A 88,88 0 0,1 212.16932588262398,90.109819494275" />
    <path d="M 220.30139886099323,105.3238579518721 A 88,88 0 0,1 227,139" />
    <path d="M 220.30139886099323,172.6761420481279 A 88,88 0 0,1 201.22539674441617,201.22539674441617" />
    <path d="M 172.6761420481279,220.30139886099323 A 88,88 0 0,1 156.16794833741932,225.30910467548426" />
    <path d="M 139,227 A 88,88 0 0,1 121.83205166258071,225.30910467548426" />
    <path d="M 105.32385795187211,220.30139886099323 A 88,88 0 0,1 90.10981949427503,212.16932588262398" />
    <path d="M 65.83067411737602,187.890180505725 A 88,88 0 0,1 57.698601139006783,172.67614204812796" />
    <path d="M 52.690895324515722,156.16794833741932 A 88,88 0 0,1 52.690895324515722,121.83205166258071" />
    <path d="M 118.71060651032261,36.998330838064049 A 104,104 0 0,1 212.53910524340094,65.46089475659906" />
    <path d="M 235.08347138117381,99.200923034030666 A 104,104 0 0,1 241.00166916193598,118.71060651032266" />
    <path d="M 243,139 A 104,104 0 0,1 241.00166916193598,159.28939348967734" />
    <path d="M 225.47283967946473,196.77930423403859 A 104,104 0 0,1 196.77930423403862,225.4728396794647" />
    <path d="M 178.79907696596933,235.08347138117381 A 104,104 0 0,1 159.28939348967737,241.00166916193598" />
    <path d="M 139,243 A 104,104 0 0,1 99.20092303403068,235.08347138117381" />
    <path d="M 81.220695765961409,225.47283967946473 A 104,104 0 0,1 42.916528618826206,178.79907696596939" />
    <path d="M 35,139.00000000000003 A 104,104 0 0,1 36.998330838064035,118.71060651032266" />
    <path d="M 52.527160320535273,81.220695765961409 A 104,104 0 0,1 65.460894756599046,65.460894756599075" />
    <path d="M 81.220695765961366,52.5271603205353 A 104,104 0 0,1 99.200923034030609,42.916528618826206" />
    <path d="M 115.58916135806456,21.305766351612363 A 120,120 0 0,1 139,19" />
    <path d="M 162.41083864193539,21.305766351612348 A 120,120 0 0,1 184.92201188381077,28.134456098645586" />
    <path d="M 238.77635347630542,72.331572037647732 A 120,120 0 0,1 249.86554390135441,93.077988116189232" />
    <path d="M 256.69423364838764,115.5891613580646 A 120,120 0 0,1 259,139" />
    <path d="M 249.86554390135441,184.92201188381077 A 120,120 0 0,1 238.77635347630545,205.66842796235224" />
    <path d="M 184.9220118838108,249.86554390135439 A 120,120 0 0,1 115.5891613580646,256.69423364838764" />
    <path d="M 93.077988116189246,249.86554390135441 A 120,120 0 0,1 72.331572037647774,238.77635347630547" />
    <path d="M 54.147186257614308,223.85281374238571 A 120,120 0 0,1 28.134456098645614,184.92201188381085" />
    <path d="M 21.305766351612348,162.41083864193544 A 120,120 0 0,1 19,139.00000000000003" />
    <path d="M 21.305766351612348,115.5891613580646 A 120,120 0 0,1 39.223646523694541,72.331572037647774" />
    <path d="M 72.331572037647732,39.223646523694569 A 120,120 0 0,1 93.077988116189147,28.134456098645614" />
    <path d="M 152.33033108482024,3.654877172581223 A 136,136 0 1,1 139,3" />
  </g>
  <g fill="none" stroke="#000000" stroke-width="2" stroke-linecap="butt">
    <line x1="139" y1="19" x2="139" y2="51" />
    <line x1="159.28939348967734" y1="36.998330838064035" x2="153.04650318516124" y2="68.383459810967409" />
    <line x1="191.0449468016522" y1="13.352383578465009" x2="184.92201188381077" y2="28.134456098645586" />
    <line x1="172.6761420481279" y1="57.698601139006769" x2="154.3073372946036" y2="102.04481869954853" />
    <line x1="214.55755169066589" y1="25.920132726853851" x2="196.77930423403862" y2="52.5271603205353" />
    <line x1="235.16652224137044" y1="42.833477758629527" x2="223.85281374238571" y2="54.147186257614294" />
    <line x1="201.22539674441617" y1="76.774603255583813" x2="167.2842712474619" y2="110.7157287525381" />
    <line x1="238.77635347630542" y1="72.331572037647732" x2="212.16932588262398" y2="90.109819494275" />
    <line x1="205.51932634081265" y1="111.44679286971353" x2="190.73725382063205" y2="117.56972778755497" />
    <line x1="272.38679813483935" y1="112.46771620580654" x2="241.00166916193598" y2="118.71060651032265" />
    <line x1="259" y1="139" x2="227" y2="139" />
    <line x1="272.38679813483935" y1="165.53228379419343" x2="256.69423364838764" y2="162.41083864193539" />
    <line x1="225.30910467548426" y1="156.16794833741929" x2="209.61654018903261" y2="153.04650318516124" />
    <line x1="249.86554390135441" y1="184.92201188381077" x2="220.30139886099323" y2="172.6761420481279" />
    <line x1="205.51932634081265" y1="166.55320713028647" x2="190.73725382063205" y2="160.43027221244503" />
    <line x1="238.77635347630547" y1="205.66842796235224" x2="225.47283967946473" y2="196.77930423403859" />
    <line x1="212.16932588262398" y1="187.89018050572497" x2="198.86581208578326" y2="179.00105677741135" />
    <line x1="235.16652224137047" y1="235.16652224137044" x2="223.85281374238571" y2="223.85281374238571" />
    <line x1="214.55755169066589" y1="252.07986727314616" x2="196.77930423403862" y2="225.4728396794647" />
    <line x1="187.890180505725" y1="212.16932588262398" x2="179.00105677741135" y2="198.86581208578326" />
    <line x1="184.9220118838108" y1="249.86554390135441" x2="178.79907696596933" y2="235.08347138117381" />
    <line x1="166.55320713028647" y1="205.51932634081265" x2="160.43027221244503" y2="190.73725382063205" />
    <line x1="159.28939348967737" y1="241.00166916193598" x2="153.04650318516127" y2="209.61654018903261" />
    <line x1="139.00000000000003" y1="259" x2="139" y2="227" />
    <line x1="139" y1="211" x2="139" y2="195" />
    <line x1="112.46771620580654" y1="272.38679813483935" x2="115.5891613580646" y2="256.69423364838764" />
    <line x1="121.83205166258071" y1="225.30910467548426" x2="124.95349681483876" y2="209.61654018903261" />
    <line x1="93.077988116189232" y1="249.86554390135444" x2="99.200923034030666" y2="235.08347138117384" />
    <line x1="111.44679286971355" y1="205.51932634081265" x2="123.69266270539642" y2="175.95518130045147" />
    <line x1="72.33157203764776" y1="238.77635347630547" x2="90.10981949427503" y2="212.16932588262398" />
    <line x1="42.833477758629542" y1="235.1665222413705" x2="54.147186257614308" y2="223.85281374238571" />
    <line x1="76.774603255583827" y1="201.2253967444162" x2="88.088311754568579" y2="189.91168824543144" />
    <line x1="110.7157287525381" y1="167.2842712474619" x2="122.02943725152286" y2="155.97056274847714" />
    <line x1="52.5271603205353" y1="196.77930423403862" x2="79.134187914216739" y2="179.00105677741135" />
    <line x1="72.480673659187374" y1="166.5532071302865" x2="102.04481869954854" y2="154.3073372946036" />
    <line x1="21.305766351612363" y1="162.41083864193544" x2="68.383459810967423" y2="153.04650318516127" />
    <line x1="19" y1="139.00000000000003" x2="35" y2="139.00000000000003" />
    <line x1="99" y1="139" x2="115" y2="139" />
    <line x1="21.305766351612348" y1="115.5891613580646" x2="36.998330838064035" y2="118.71060651032266" />
    <line x1="52.690895324515722" y1="121.83205166258071" x2="68.383459810967409" y2="124.95349681483876" />
    <line x1="28.1344560986456" y1="93.0779881161892" x2="72.48067365918736" y2="111.44679286971352" />
    <line x1="87.262746179367952" y1="117.56972778755497" x2="102.04481869954853" y2="123.6926627053964" />
    <line x1="52.527160320535273" y1="81.220695765961409" x2="79.134187914216724" y2="98.998943222588665" />
    <line x1="54.14718625761428" y1="54.147186257614322" x2="99.402020253553331" y2="99.402020253553346" />
    <line x1="63.442448309334111" y1="25.920132726853851" x2="72.331572037647732" y2="39.223646523694569" />
    <line x1="99.200923034030609" y1="42.916528618826206" x2="105.32385795187204" y2="57.698601139006783" />
  </g>
  <path fill="none" stroke="#ff0000" stroke-width="2" stroke-linecap="square" stroke-linejoin="round" d="M 145.67320370852886,3.1638179560965511 L 145.28066231390952,11.154181605737932 A 128,128 0 0,0 101.8435613114288,16.51163702627727 L 106.48811614750019,31.822682397992608 A 112,112 0 0,0 67.947952173671652,52.4228292233735 L 57.797659627053321,40.054661969569707 A 128,128 0 0,0 40.054661969569679,57.797659627053363 L 52.422829223373469,67.9479521736717 A 112,112 0 0,0 40.224818392984233,86.203565475488276 L 82.557039081705284,108.83060884313616 A 64,64 0 0,1 85.7859448126371,103.44350508674549 L 99.089458609477816,112.33262881505911 A 48,48 0 0,1 148.36433545677414,91.922306540644939 L 145.2428903045161,107.61487102709663 A 32,32 0 1,1 126.75413016431713,168.56414504036118 L 129.81559762323786,161.17310878027089" />
  <type>Circular</type>
</svg>