<?xml version="1.0" encoding="utf-8" standalone="no"?>
<!DOCTYPE svg PUBLIC "-//W3C//DTD SVG 1.1//EN" "http://www.w3.org/Graphics/SVG/1.1/DTD/svg11.dtd"[]>
<svg width="276" height="276" version="1.1" xmlns="http://www.w3.org/2000/svg">
  <title>17 cells diameter theta maze</title>
  <g fill="none" stroke="#000000" stroke-width="2" stroke-linecap="square">
    <path d="M 122.02943725152286,155.97056274847714 A 24,24 0 1,1 139,163" />
    <path d="M 139,99 A 40,40 0 0,1 154.3073372946036,102.04481869954853" />
    <path d="M 167.2842712474619,110.7157287525381 A 40,40 0 0,1 179,139" />
    <path d="M 154.3073372946036,175.95518130045147 A 40,40 0 0,1 123.69266270539642,175.95518130045147" />
    <path d="M 102.04481869954853,154.3073372946036 A 40,40 0 0,1 99,139" />
    <path d="M 102.04481869954853,123.6926627053964 A 40,40 0 0,1 123.69266270539639,102.04481869954854" />
    <path d="M 117.56972778755494,87.262746179367952 A 56,56 0 0,1 139,83" />
    <path d="M 190.73725382063205,117.56972778755497 A 56,56 0 0,1 178.59797974644667,178.59797974644664" />
    <path d="M 117.56972778755498,190.73725382063208 A 56,56 0 0,1 87.262746179367952,160.43027221244506" />
    <path d="M 83,139 A 56,56 0 0,1 87.262746179367952,117.56972778755497" />
    <path d="M 124.95349681483873,68.383459810967409 A 72,72 0 0,1 139,67" />
    <path d="M 166.55320713028647,72.48067365918736 A 72,72 0 0,1 205.51932634081265,111.44679286971353" />
    <path d="M 209.61654018903261,124.95349681483876 A 72,72 0 0,1 209.61654018903261,153.04650318516124" />
    <path d="M 205.51932634081265,166.55320713028647 A 72,72 0 0,1 198.86581208578326,179.00105677741135" />
    <path d="M 189.91168824543144,189.91168824543141 A 72,72 0 0,1 124.95349681483876,209.61654018903261" />
    <path d="M 88.0883117545686,189.91168824543144 A 72,72 0 0,1 67,139" />
    <path d="M 68.383459810967409,124.95349681483876 A 72,72 0 0,1 79.134187914216724,98.998943222588665" />
    <path d="M 88.088311754568565,88.0883117545686 A 72,72 0 0,1 111.44679286971349,72.480673659187374" />
    <path d="M 139,51 A 88,88 0 0,1 172.6761420481279,57.698601139006769" />
    <path d="M 220.30139886099323,105.3238579518721 A 88,88 0 0,1 225.30910467548426,121.83205166258071" />
    <path d="M 227,139 A 88,88 0 0,1 220.30139886099323,172.6761420481279" />
    <path d="M 212.16932588262398,187.89018050572497 A 88,88 0 0,1 172.6761420481279,220.30139886099323" />
    <path d="M 105.32385795187211,220.30139886099323 A 88,88 0 0,1 90.10981949427503,212.16932588262398" />
    <path d="M 76.774603255583827,201.2253967444162 A 88,88 0 0,1 57.698601139006783,172.67614204812796" />
    <path d="M 52.690895324515722,156.16794833741932 A 88,88 0 0,1 57.698601139006769,105.32385795187207" />
    <path d="M 65.830674117375992,90.10981949427503 A 88,88 0 0,1 76.7746032555838,76.774603255583827" />
    <path d="M 105.32385795187204,57.698601139006783 A 88,88 0 0,1 121.83205166258067,52.690895324515722" />
    <path d="M 118.71060651032261,36.998330838064049 A 104,104 0 0,1 139,35" />
    <path d="M 178.79907696596933,42.916528618826177 A 104,104 0 0,1 241.00166916193598,159.28939348967734" />
    <path d="M 235.08347138117381,178.79907696596933 A 104,104 0 0,1 212.53910524340097,212.53910524340094" />
    <path d="M 178.79907696596933,235.08347138117381 A 104,104 0 0,1 159.28939348967737,241.00166916193598" />
    <path d="M 118.71060651032265,241.00166916193598 A 104,104 0 0,1 99.20092303403068,235.08347138117381" />
    <path d="M 81.220695765961409,225.47283967946473 A 104,104 0 0,1 65.460894756599075,212.53910524340097" />
    <path d="M 42.916528618826206,178.79907696596939 A 104,104 0 0,1 35,139.00000000000003" />
    <path d="M 42.916528618826192,99.200923034030637 A 104,104 0 0,1 65.460894756599046,65.460894756599075" />
    <path d="M 54.14718625761428,54.147186257614322 A 120,120 0 0,1 162.41083864193539,21.305766351612348" />
    <path d="M 205.66842796235227,39.223646523694569 A 120,120 0 0,1 223.85281374238571,54.147186257614294" />
    <path d="M 249.86554390135441,184.92201188381077 A 120,120 0 0,1 238.77635347630545,205.66842796235224" />
    <path d="M 223.85281374238571,223.85281374238571 A 120,120 0 0,1 184.9220118838108,249.86554390135439" />
    <path d="M 139.00000000000003,259 A 120,120 0 0,1 115.5891613580646,256.69423364838764" />
    <path d="M 93.077988116189246,249.86554390135441 A 120,120 0 0,1 72.331572037647774,238.77635347630547" />
    <path d="M 54.147186257614308,223.85281374238571 A 120,120 0 0,1 39.223646523694569,205.66842796235227" />
    <path d="M 21.305766351612348,162.41083864193544 A 120,120 0 0,1 19,139.00000000000003" />
    <path d="M 21.305766351612348,115.5891613580646 A 120,120 0 0,1 39.223646523694541,72.331572037647774" />
    <path d="M 152.33033108482024,3.654877172581223 A 136,136 0 1,1 139,3" />
  </g>
  <g fill="none" stroke="#000000" stroke-width="2" stroke-linecap="butt">
    <line x1="139" y1="35" x2="139" y2="99" />
    <line x1="162.41083864193539" y1="21.305766351612348" x2="159.28939348967734" y2="36.998330838064035" />
    <line x1="156.16794833741929" y1="52.690895324515722" x2="153.04650318516124" y2="68.383459810967409" />
    <line x1="191.0449468016522" y1="13.352383578465009" x2="172.6761420481279" y2="57.698601139006769" />
    <line x1="166.55320713028647" y1="72.48067365918736" x2="160.43027221244503" y2="87.262746179367952" />
    <line x1="187.890180505725" y1="65.83067411737602" x2="179.00105677741135" y2="79.134187914216739" />
    <line x1="235.16652224137044" y1="42.833477758629527" x2="223.85281374238571" y2="54.147186257614294" />
    <line x1="212.53910524340094" y1="65.460894756599046" x2="201.22539674441617" y2="76.774603255583813" />
    <line x1="189.91168824543144" y1="88.088311754568565" x2="155.97056274847714" y2="122.02943725152286" />
    <line x1="238.77635347630542" y1="72.331572037647732" x2="198.86581208578326" y2="98.998943222588636" />
    <line x1="264.64761642153496" y1="86.955053198347784" x2="249.86554390135441" y2="93.077988116189218" />
    <line x1="272.38679813483935" y1="112.46771620580654" x2="256.69423364838764" y2="115.5891613580646" />
    <line x1="225.30910467548426" y1="121.83205166258071" x2="209.61654018903261" y2="124.95349681483876" />
    <line x1="259" y1="139" x2="227" y2="139" />
    <line x1="211" y1="139" x2="195" y2="139" />
    <line x1="272.38679813483935" y1="165.53228379419343" x2="256.69423364838764" y2="162.41083864193539" />
    <line x1="249.86554390135441" y1="184.92201188381077" x2="235.08347138117381" y2="178.79907696596933" />
    <line x1="190.73725382063205" y1="160.43027221244503" x2="175.95518130045147" y2="154.3073372946036" />
    <line x1="252.07986727314619" y1="214.55755169066586" x2="238.77635347630547" y2="205.66842796235224" />
    <line x1="212.16932588262398" y1="187.89018050572497" x2="198.86581208578326" y2="179.00105677741135" />
    <line x1="223.85281374238571" y1="223.85281374238571" x2="212.53910524340097" y2="212.53910524340094" />
    <line x1="189.91168824543144" y1="189.91168824543144" x2="167.2842712474619" y2="167.2842712474619" />
    <line x1="205.66842796235227" y1="238.77635347630545" x2="187.890180505725" y2="212.16932588262398" />
    <line x1="160.43027221244503" y1="190.73725382063205" x2="154.3073372946036" y2="175.95518130045147" />
    <line x1="162.41083864193544" y1="256.69423364838764" x2="153.04650318516127" y2="209.61654018903261" />
    <line x1="139.00000000000003" y1="259" x2="139" y2="227" />
    <line x1="139" y1="211" x2="139" y2="163" />
    <line x1="112.46771620580654" y1="272.38679813483935" x2="115.5891613580646" y2="256.69423364838764" />
    <line x1="121.83205166258071" y1="225.30910467548426" x2="124.95349681483876" y2="209.61654018903261" />
    <line x1="93.077988116189232" y1="249.86554390135444" x2="117.56972778755498" y2="190.73725382063208" />
    <line x1="81.2206957659614" y1="225.47283967946473" x2="98.99894322258865" y2="198.86581208578326" />
    <line x1="54.147186257614308" y1="223.85281374238571" x2="65.46089475659906" y2="212.53910524340097" />
    <line x1="76.774603255583827" y1="201.2253967444162" x2="88.088311754568579" y2="189.91168824543144" />
    <line x1="99.402020253553346" y1="178.59797974644667" x2="122.02943725152286" y2="155.97056274847714" />
    <line x1="39.223646523694569" y1="205.66842796235227" x2="52.5271603205353" y2="196.77930423403862" />
    <line x1="28.134456098645614" y1="184.92201188381085" x2="57.698601139006783" y2="172.67614204812796" />
    <line x1="72.480673659187374" y1="166.5532071302865" x2="102.04481869954854" y2="154.3073372946036" />
    <line x1="19" y1="139.00000000000003" x2="51" y2="139.00000000000003" />
    <line x1="21.305766351612348" y1="115.5891613580646" x2="36.998330838064035" y2="118.71060651032266" />
    <line x1="13.352383578465023" y1="86.95505319834777" x2="28.1344560986456" y2="93.0779881161892" />
    <line x1="42.916528618826192" y1="99.200923034030637" x2="57.698601139006783" y2="105.32385795187207" />
    <line x1="87.262746179367952" y1="117.56972778755497" x2="102.04481869954853" y2="123.6926627053964" />
    <line x1="65.830674117376" y1="90.10981949427503" x2="79.134187914216724" y2="98.998943222588665" />
    <line x1="54.14718625761428" y1="54.147186257614322" x2="76.7746032555838" y2="76.774603255583827" />
    <line x1="88.088311754568565" y1="88.0883117545686" x2="110.7157287525381" y2="110.7157287525381" />
    <line x1="81.220695765961381" y1="52.5271603205353" x2="98.99894322258865" y2="79.134187914216739" />
    <line x1="93.077988116189147" y1="28.134456098645614" x2="111.44679286971349" y2="72.480673659187374" />
  </g>
  <path fill="none" stroke="#ff0000" stroke-width="2" stroke-linecap="square" stroke-linejoin="round" d="M 145.67320370852886,3.1638179560965511 L 145.28066231390952,11.154181605737932 A 128,128 0 0,0 40.054661969569679,57.797659627053363 L 52.422829223373469,67.9479521736717 A 112,112 0 0,0 31.822682397992594,106.48811614750025 L 47.133727769707946,111.13267098357164 A 96,96 0 0,0 43.462266239469088,129.59035452836224 L 11.616354985958793,126.45380603781631 A 128,128 0 0,0 101.84356131142886,261.48836297372276 L 106.48811614750025,246.17731760200741 A 112,112 0 0,0 128.02208028308922,250.46068938728604 L 129.59035452836218,234.5377337605309 A 96,96 0 0,1 111.13267098357164,230.86627223029205 L 120.42178065571443,200.24418148686138 A 64,64 0 0,0 126.51421939096778,201.77025794580675 L 129.63566454322583,186.07769345935506 A 48,48 0 0,1 112.33262881505911,178.91054139052218 L 121.22175254337273,165.60702759368147 A 32,32 0 0,0 126.75413016431713,168.56414504036118 L 129.81559762323786,161.17310878027089" />
  <type>Circular</type>
</svg>