<?xml version="1.0" encoding="utf-8" standalone="no"?>
<!DOCTYPE svg PUBLIC "-//W3C//DTD SVG 1.1//EN" "http://www.w3.org/Graphics/SVG/1.1/DTD/svg11.dtd"[]>
<svg width="276" height="276" version="1.1" xmlns="http://www.w3.org/2000/svg">
  <title>17 cells diameter theta maze</title>
  <g fill="none" stroke="#000000" stroke-width="2" stroke-linecap="square">
    <path d="M 122.02943725152286,155.97056274847714 A 24,24 0 1,1 139,163" />
    <path d="M 139,99 A 40,40 0 0,1 167.2842712474619,110.7157287525381" />
    <path d="M 175.95518130045147,123.6926627053964 A 40,40 0 0,1 175.95518130045147,154.3073372946036" />
    <path d="M 167.2842712474619,167.2842712474619 A 40,40 0 0,1 154.3073372946036,175.95518130045147" />
    <path d="M 139,179 A 40,40 0 0,1 123.69266270539642,175.95518130045147" />
    <path d="M 110.7157287525381,167.2842712474619 A 40,40 0 0,1 102.04481869954853,154.3073372946036" />
    <path d="M 99,139 A 40,40 0 0,1 123.69266270539639,102.04481869954854" />
    <path d="M 139,83 A 56,56 0 0,1 160.43027221244503,87.262746179367952" />
    <path d="M 178.59797974644667,99.402020253553331 A 56,56 0 0,1 190.73725382063205,117.56972778755497" />
    <path d="M 190.73725382063208,160.43027221244503 A 56,56 0 0,1 160.43027221244503,190.73725382063205" />
    <path d="M 139,195 A 56,56 0 0,1 99.402020253553346,178.59797974644667" />
    <path d="M 87.262746179367952,160.43027221244506 A 56,56 0 0,1 83,139" />
    <path d="M 87.262746179367952,117.56972778755497 A 56,56 0 0,1 99.402020253553331,99.402020253553346" />
    <path d="M 124.95349681483873,68.383459810967409 A 72,72 0 0,1 198.86581208578326,98.998943222588636" />
    <path d="M 205.51932634081265,111.44679286971353 A 72,72 0 0,1 209.61654018903261,153.04650318516124" />
    <path d="M 205.51932634081265,166.55320713028647 A 72,72 0 0,1 189.91168824543144,189.91168824543141" />
    <path d="M 166.55320713028647,205.51932634081265 A 72,72 0 0,1 139,211" />
    <path d="M 124.95349681483876,209.61654018903261 A 72,72 0 0,1 68.383459810967409,153.04650318516127" />
    <path d="M 67,139 A 72,72 0 0,1 68.383459810967409,124.95349681483876" />
    <path d="M 79.134187914216724,98.998943222588665 A 72,72 0 0,1 88.088311754568565,88.0883117545686" />
    <path d="M 98.99894322258865,79.134187914216739 A 72,72 0 0,1 111.44679286971349,72.480673659187374" />
    <path d="M 139,51 A 88,88 0 0,1 187.890180505725,65.83067411737602" />
    <path d="M 201.22539674441617,76.774603255583813 A 88,88 0 0,1 220.30139886099323,105.3238579518721" />
    <path d="M 225.30910467548426,156.16794833741929 A 88,88 0 0,1 220.30139886099323,172.6761420481279" />
    <path d="M 212.16932588262398,187.89018050572497 A 88,88 0 0,1 105.32385795187211,220.30139886099323" />
    <path d="M 76.774603255583827,201.2253967444162 A 88,88 0 0,1 65.83067411737602,187.890180505725" />
    <path d="M 52.690895324515722,156.16794833741932 A 88,88 0 0,1 76.7746032555838,76.774603255583827" />
    <path d="M 105.32385795187204,57.698601139006783 A 88,88 0 0,1 121.83205166258067,52.690895324515722" />
    <path d="M 118.71060651032261,36.998330838064049 A 104,104 0 0,1 139,35" />
    <path d="M 159.28939348967734,36.998330838064035 A 104,104 0 0,1 212.53910524340094,65.46089475659906" />
    <path d="M 225.4728396794647,81.220695765961366 A 104,104 0 0,1 235.08347138117381,99.200923034030666" />
    <path d="M 241.00166916193598,118.71060651032266 A 104,104 0 0,1 243,139" />
    <path d="M 235.08347138117381,178.79907696596933 A 104,104 0 0,1 212.53910524340097,212.53910524340094" />
    <path d="M 196.77930423403862,225.4728396794647 A 104,104 0 0,1 178.79907696596933,235.08347138117381" />
    <path d="M 159.28939348967737,241.00166916193598 A 104,104 0 0,1 139,243" />
    <path d="M 118.71060651032265,241.00166916193598 A 104,104 0 0,1 99.20092303403068,235.08347138117381" />
    <path d="M 81.220695765961409,225.47283967946473 A 104,104 0 0,1 65.460894756599075,212.53910524340097" />
    <path d="M 52.527160320535287,196.77930423403862 A 104,104 0 0,1 42.916528618826206,178.79907696596939" />
    <path d="M 36.998330838064035,159.28939348967737 A 104,104 0 0,1 35,139.00000000000003" />
    <path d="M 36.998330838064035,118.71060651032266 A 104,104 0 0,1 52.527160320535273,81.220695765961409" />
    <path d="M 65.460894756599046,65.460894756599075 A 104,104 0 0,1 99.200923034030609,42.916528618826206" />
    <path d="M 93.077988116189147,28.134456098645614 A 120,120 0 0,1 162.41083864193539,21.305766351612348" />
    <path d="M 205.66842796235227,39.223646523694569 A 120,120 0 0,1 238.77635347630542,72.331572037647732" />
    <path d="M 249.86554390135441,93.077988116189232 A 120,120 0 0,1 259,139" />
    <path d="M 256.69423364838764,162.41083864193539 A 120,120 0 0,1 249.86554390135441,184.92201188381077" />
    <path d="M 184.9220118838108,249.86554390135439 A 120,120 0 0,1 162.41083864193544,256.69423364838764" />
    <path d="M 139.00000000000003,259 A 120,120 0 0,1 72.331572037647774,238.77635347630547" />
    <path d="M 54.147186257614308,223.85281374238571 A 120,120 0 0,1 21.305766351612348,162.41083864193544" />
    <path d="M 19,139.00000000000003 A 120,120 0 0,1 28.1344560986456,93.0779881161892" />
    <path d="M 39.223646523694541,72.331572037647774 A 120,120 0 0,1 72.331572037647732,39.223646523694569" />
    <path d="M 152.33033108482024,3.654877172581223 A 136,136 0 1,1 139,3" />
  </g>
  <g fill="none" stroke="#000000" stroke-width="2" stroke-linecap="butt">
    <line x1="139" y1="35" x2="139" y2="51" />
    <line x1="139" y1="83" x2="139" y2="99" />
    <line x1="156.16794833741929" y1="52.690895324515722" x2="153.04650318516124" y2="68.383459810967409" />
    <line x1="184.92201188381077" y1="28.134456098645586" x2="172.6761420481279" y2="57.698601139006769" />
    <line x1="201.22539674441617" y1="76.774603255583813" x2="167.2842712474619" y2="110.7157287525381" />
    <line x1="238.77635347630542" y1="72.331572037647732" x2="212.16932588262398" y2="90.109819494275" />
    <line x1="205.51932634081265" y1="111.44679286971353" x2="190.73725382063205" y2="117.56972778755497" />
    <line x1="256.69423364838764" y1="115.5891613580646" x2="225.30910467548426" y2="121.83205166258071" />
    <line x1="275" y1="139" x2="259" y2="139" />
    <line x1="243" y1="139" x2="211" y2="139" />
    <line x1="195" y1="139" x2="163" y2="139" />
    <line x1="272.38679813483935" y1="165.53228379419343" x2="241.00166916193598" y2="159.28939348967734" />
    <line x1="249.86554390135441" y1="184.92201188381077" x2="235.08347138117381" y2="178.79907696596933" />
    <line x1="220.30139886099323" y1="172.6761420481279" x2="190.73725382063205" y2="160.43027221244503" />
    <line x1="238.77635347630547" y1="205.66842796235224" x2="212.16932588262398" y2="187.89018050572497" />
    <line x1="223.85281374238571" y1="223.85281374238571" x2="212.53910524340097" y2="212.53910524340094" />
    <line x1="214.55755169066589" y1="252.07986727314616" x2="205.66842796235227" y2="238.77635347630545" />
    <line x1="196.77930423403862" y1="225.4728396794647" x2="179.00105677741135" y2="198.86581208578326" />
    <line x1="191.04494680165223" y1="264.64761642153496" x2="184.9220118838108" y2="249.86554390135441" />
    <line x1="166.55320713028647" y1="205.51932634081265" x2="154.3073372946036" y2="175.95518130045147" />
    <line x1="162.41083864193544" y1="256.69423364838764" x2="159.28939348967737" y2="241.00166916193598" />
    <line x1="139.00000000000003" y1="259" x2="139" y2="243" />
    <line x1="139" y1="211" x2="139" y2="195" />
    <line x1="139" y1="179" x2="139" y2="163" />
    <line x1="115.5891613580646" y1="256.69423364838764" x2="118.71060651032265" y2="241.00166916193598" />
    <line x1="121.83205166258071" y1="225.30910467548426" x2="124.95349681483876" y2="209.61654018903261" />
    <line x1="117.56972778755498" y1="190.73725382063208" x2="123.69266270539642" y2="175.95518130045147" />
    <line x1="81.2206957659614" y1="225.47283967946473" x2="90.10981949427503" y2="212.16932588262398" />
    <line x1="42.833477758629542" y1="235.1665222413705" x2="65.46089475659906" y2="212.53910524340097" />
    <line x1="110.7157287525381" y1="167.2842712474619" x2="122.02943725152286" y2="155.97056274847714" />
    <line x1="52.5271603205353" y1="196.77930423403862" x2="65.83067411737602" y2="187.890180505725" />
    <line x1="42.916528618826206" y1="178.79907696596939" x2="102.04481869954854" y2="154.3073372946036" />
    <line x1="19" y1="139.00000000000003" x2="35" y2="139.00000000000003" />
    <line x1="21.305766351612348" y1="115.5891613580646" x2="36.998330838064035" y2="118.71060651032266" />
    <line x1="52.690895324515722" y1="121.83205166258071" x2="68.383459810967409" y2="124.95349681483876" />
    <line x1="57.698601139006783" y1="105.32385795187207" x2="72.48067365918736" y2="111.44679286971352" />
    <line x1="87.262746179367952" y1="117.56972778755497" x2="102.04481869954853" y2="123.6926627053964" />
    <line x1="39.223646523694541" y1="72.331572037647774" x2="52.527160320535273" y2="81.220695765961409" />
    <line x1="76.7746032555838" y1="76.774603255583827" x2="99.402020253553331" y2="99.402020253553346" />
    <line x1="110.7157287525381" y1="110.7157287525381" x2="122.02943725152286" y2="122.02943725152286" />
    <line x1="72.331572037647732" y1="39.223646523694569" x2="90.109819494275" y2="65.83067411737602" />
    <line x1="99.200923034030609" y1="42.916528618826206" x2="105.32385795187204" y2="57.698601139006783" />
    <line x1="111.44679286971349" y1="72.480673659187374" x2="123.69266270539639" y2="102.04481869954854" />
    <line x1="115.58916135806456" y1="21.305766351612363" x2="121.83205166258067" y2="52.690895324515736" />
  </g>
  <path fill="none" stroke="#ff0000" stroke-width="2" stroke-linecap="square" stroke-linejoin="round" d="M 145.67320370852886,3.1638179560965511 L 145.28066231390952,11.154181605737932 A 128,128 0 0,0 11.616354985958793,151.54619396218374 L 27.539310612713948,149.97791971691078 A 112,112 0 0,0 31.822682397992608,171.51188385249981 L 47.133727769707946,166.86732901642839 A 96,96 0 0,1 78.098244720289983,64.790996477177288 L 88.248537266908329,77.159163730981078 A 80,80 0 0,1 115.77722581964301,62.4447731414233 L 120.4217806557144,77.755818513138635 A 64,64 0 0,1 126.51421939096777,76.229742054193252 L 132.75710969548388,107.61487102709663 A 32,32 0 0,1 165.60702759368144,121.22175254337273 L 178.91054139052216,112.3326288150591 A 48,48 0 0,1 186.07769345935506,129.63566454322583 L 201.77025794580675,126.51421939096778 A 64,64 0 0,1 200.24418148686138,157.57821934428557 L 215.5552268585767,162.22277418035696 A 80,80 0 0,0 218.61477813377576,146.84137122636486 L 234.5377337605309,148.40964547163782 A 96,96 0 0,1 223.66444137744207,184.25408673529577 L 209.5537011478684,176.71173894607981 A 80,80 0 0,1 189.75146273309164,200.84083626901895 L 179.60117018647333,188.47266901521516 A 64,64 0 0,1 169.16939115686387,195.44296091829472 L 176.71173894607983,209.5537011478684 A 80,80 0 0,1 131.15862877363514,218.61477813377576 L 132.72690301890813,202.69182250702062 A 64,64 0 0,1 85.7859448126371,174.55649491325454 L 99.08945860947783,165.66737118494092 A 48,48 0 0,0 112.33262881505911,178.91054139052218 L 121.22175254337273,165.60702759368147 A 32,32 0 0,0 126.75413016431713,168.56414504036118 L 129.81559762323786,161.17310878027089" />
  <type>Circular</type>
</svg>