<?xml version="1.0" encoding="utf-8" standalone="no"?>
<!DOCTYPE svg PUBLIC "-//W3C//DTD SVG 1.1//EN" "http://www.w3.org/Graphics/SVG/1.1/DTD/svg11.dtd"[]>
<svg width="276" height="276" version="1.1" xmlns="http://www.w3.org/2000/svg">
  <title>17 cells diameter theta maze</title>
  <g fill="none" stroke="#000000" stroke-width="2" stroke-linecap="square">
    <path d="M 122.02943725152286,155.97056274847714 A 24,24 0 1,1 139,163" />
    <path d="M 175.95518130045147,154.3073372946036 A 40,40 0 1,1 154.3073372946036,102.04481869954853" />
    <path d="M 167.2842712474619,110.7157287525381 A 40,40 0 0,1 175.95518130045147,123.6926627053964" />
    <path d="M 160.43027221244503,87.262746179367952 A 56,56 0 0,1 178.59797974644667,99.402020253553331" />
    <path d="M 195,139 A 56,56 0 0,1 190.73725382063208,160.43027221244503" />
    <path d="M 160.43027221244503,190.73725382063205 A 56,56 0 0,1 99.402020253553346,178.59797974644667" />
    <path d="M 87.262746179367952,160.43027221244506 A 56,56 0 0,1 83,139" />
    <path d="M 99.402020253553331,99.402020253553346 A 56,56 0 0,1 117.56972778755494,87.262746179367952" />
    <path d="M 72.48067365918736,111.44679286971352 A 72,72 0 0,1 179.00105677741135,79.134187914216739" />
    <path d="M 198.86581208578326,98.998943222588636 A 72,72 0 0,1 205.51932634081265,166.55320713028647" />
    <path d="M 198.86581208578326,179.00105677741135 A 72,72 0 0,1 166.55320713028647,205.51932634081265" />
    <path d="M 153.04650318516127,209.61654018903261 A 72,72 0 0,1 98.998943222588665,198.86581208578326" />
    <path d="M 88.0883117545686,189.91168824543144 A 72,72 0 0,1 79.134187914216739,179.00105677741135" />
    <path d="M 67,139 A 72,72 0 0,1 68.383459810967409,124.95349681483876" />
    <path d="M 52.690895324515722,121.83205166258071 A 88,88 0 0,1 139,51" />
    <path d="M 172.6761420481279,57.698601139006769 A 88,88 0 0,1 212.16932588262398,90.109819494275" />
    <path d="M 220.30139886099323,105.3238579518721 A 88,88 0 0,1 225.30910467548426,121.83205166258071" />
    <path d="M 227,139 A 88,88 0 0,1 212.16932588262398,187.89018050572497" />
    <path d="M 201.22539674441617,201.22539674441617 A 88,88 0 0,1 156.16794833741932,225.30910467548426" />
    <path d="M 139,227 A 88,88 0 0,1 121.83205166258071,225.30910467548426" />
    <path d="M 90.10981949427503,212.16932588262398 A 88,88 0 0,1 52.690895324515722,156.16794833741932" />
    <path d="M 139,35 A 104,104 0 0,1 196.77930423403862,52.527160320535287" />
    <path d="M 212.53910524340094,65.46089475659906 A 104,104 0 0,1 225.4728396794647,81.220695765961366" />
    <path d="M 241.00166916193598,118.71060651032266 A 104,104 0 0,1 243,139" />
    <path d="M 241.00166916193598,159.28939348967734 A 104,104 0 0,1 235.08347138117381,178.79907696596933" />
    <path d="M 225.47283967946473,196.77930423403859 A 104,104 0 0,1 196.77930423403862,225.4728396794647" />
    <path d="M 178.79907696596933,235.08347138117381 A 104,104 0 0,1 81.220695765961409,225.47283967946473" />
    <path d="M 52.527160320535287,196.77930423403862 A 104,104 0 0,1 52.527160320535273,81.220695765961409" />
    <path d="M 65.460894756599046,65.460894756599075 A 104,104 0 0,1 81.220695765961366,52.5271603205353" />
    <path d="M 115.58916135806456,21.305766351612363 A 120,120 0 0,1 139,19" />
    <path d="M 162.41083864193539,21.305766351612348 A 120,120 0 0,1 184.92201188381077,28.134456098645586" />
    <path d="M 238.77635347630542,72.331572037647732 A 120,120 0 0,1 249.86554390135441,93.077988116189232" />
    <path d="M 259,139 A 120,120 0 0,1 238.77635347630545,205.66842796235224" />
    <path d="M 184.9220118838108,249.86554390135439 A 120,120 0 0,1 162.41083864193544,256.69423364838764" />
    <path d="M 115.5891613580646,256.69423364838764 A 120,120 0 0,1 72.331572037647774,238.77635347630547" />
    <path d="M 54.147186257614308,223.85281374238571 A 120,120 0 0,1 39.223646523694569,205.66842796235227" />
    <path d="M 28.134456098645614,184.92201188381085 A 120,120 0 0,1 19,139.00000000000003" />
    <path d="M 28.1344560986456,93.0779881161892 A 120,120 0 0,1 54.14718625761428,54.147186257614322" />
    <path d="M 152.33033108482024,3.654877172581223 A 136,136 0 1,1 139,3" />
  </g>
  <g fill="none" stroke="#000000" stroke-width="2" stroke-linecap="butt">
    <line x1="139" y1="3" x2="139" y2="19" />
    <line x1="139" y1="83" x2="139" y2="99" />
    <line x1="159.28939348967734" y1="36.998330838064035" x2="153.04650318516124" y2="68.383459810967409" />
    <line x1="191.0449468016522" y1="13.352383578465009" x2="184.92201188381077" y2="28.134456098645586" />
    <line x1="166.55320713028647" y1="72.48067365918736" x2="154.3073372946036" y2="102.04481869954853" />
    <line x1="205.66842796235227" y1="39.223646523694569" x2="196.77930423403862" y2="52.5271603205353" />
    <line x1="235.16652224137044" y1="42.833477758629527" x2="212.53910524340094" y2="65.460894756599046" />
    <line x1="201.22539674441617" y1="76.774603255583813" x2="189.91168824543144" y2="88.088311754568565" />
    <line x1="167.2842712474619" y1="110.7157287525381" x2="155.97056274847714" y2="122.02943725152286" />
    <line x1="225.4728396794647" y1="81.220695765961352" x2="212.16932588262398" y2="90.109819494275" />
    <line x1="249.86554390135441" y1="93.077988116189218" x2="220.30139886099323" y2="105.3238579518721" />
    <line x1="205.51932634081265" y1="111.44679286971353" x2="175.95518130045147" y2="123.6926627053964" />
    <line x1="256.69423364838764" y1="115.5891613580646" x2="241.00166916193598" y2="118.71060651032265" />
    <line x1="225.30910467548426" y1="121.83205166258071" x2="209.61654018903261" y2="124.95349681483876" />
    <line x1="259" y1="139" x2="227" y2="139" />
    <line x1="195" y1="139" x2="179" y2="139" />
    <line x1="249.86554390135441" y1="184.92201188381077" x2="235.08347138117381" y2="178.79907696596933" />
    <line x1="205.51932634081265" y1="166.55320713028647" x2="190.73725382063205" y2="160.43027221244503" />
    <line x1="225.47283967946473" y1="196.77930423403859" x2="198.86581208578326" y2="179.00105677741135" />
    <line x1="223.85281374238571" y1="223.85281374238571" x2="212.53910524340097" y2="212.53910524340094" />
    <line x1="178.59797974644667" y1="178.59797974644664" x2="167.2842712474619" y2="167.2842712474619" />
    <line x1="214.55755169066589" y1="252.07986727314616" x2="187.890180505725" y2="212.16932588262398" />
    <line x1="184.9220118838108" y1="249.86554390135441" x2="178.79907696596933" y2="235.08347138117381" />
    <line x1="160.43027221244503" y1="190.73725382063205" x2="154.3073372946036" y2="175.95518130045147" />
    <line x1="156.16794833741932" y1="225.30910467548426" x2="153.04650318516127" y2="209.61654018903261" />
    <line x1="139.00000000000003" y1="275" x2="139.00000000000003" y2="259" />
    <line x1="139" y1="243" x2="139" y2="227" />
    <line x1="139" y1="179" x2="139" y2="163" />
    <line x1="115.5891613580646" y1="256.69423364838764" x2="118.71060651032265" y2="241.00166916193598" />
    <line x1="105.3238579518721" y1="220.30139886099323" x2="111.44679286971355" y2="205.51932634081265" />
    <line x1="81.2206957659614" y1="225.47283967946473" x2="98.99894322258865" y2="198.86581208578326" />
    <line x1="42.833477758629542" y1="235.1665222413705" x2="65.46089475659906" y2="212.53910524340097" />
    <line x1="88.088311754568579" y1="189.91168824543144" x2="99.402020253553346" y2="178.59797974644667" />
    <line x1="65.83067411737602" y1="187.890180505725" x2="79.134187914216739" y2="179.00105677741135" />
    <line x1="28.134456098645614" y1="184.92201188381085" x2="42.916528618826206" y2="178.79907696596939" />
    <line x1="72.480673659187374" y1="166.5532071302865" x2="102.04481869954854" y2="154.3073372946036" />
    <line x1="52.690895324515736" y1="156.16794833741932" x2="68.383459810967423" y2="153.04650318516127" />
    <line x1="51" y1="139.00000000000003" x2="83" y2="139" />
    <line x1="5.6132018651606472" y1="112.46771620580655" x2="36.998330838064035" y2="118.71060651032266" />
    <line x1="57.698601139006783" y1="105.32385795187207" x2="87.262746179367952" y2="117.56972778755497" />
    <line x1="54.14718625761428" y1="54.147186257614322" x2="76.7746032555838" y2="76.774603255583827" />
    <line x1="72.331572037647732" y1="39.223646523694569" x2="81.220695765961381" y2="52.5271603205353" />
    <line x1="93.077988116189147" y1="28.134456098645614" x2="105.32385795187204" y2="57.698601139006783" />
    <line x1="111.44679286971349" y1="72.480673659187374" x2="117.56972778755494" y2="87.262746179367952" />
    <line x1="115.58916135806456" y1="21.305766351612363" x2="118.71060651032261" y2="36.998330838064049" />
  </g>
  <path fill="none" stroke="#ff0000" stroke-width="2" stroke-linecap="square" stroke-linejoin="round" d="M 145.67320370852886,3.1638179560965511 L 145.28066231390952,11.154181605737932 A 128,128 0 0,1 151.54619396218376,11.616354985958793 L 149.97791971691078,27.539310612713948 A 112,112 0 0,1 191.79643452451174,40.224818392984233 L 199.33878231372771,26.114078163410554 A 128,128 0 0,1 220.20234037294662,40.054661969569665 L 199.90175527970996,64.790996477177245 A 96,96 0 0,0 166.86732901642839,47.133727769707946 L 162.222774180357,62.4447731414233 A 80,80 0 0,1 189.75146273309164,77.159163730981049 L 179.60117018647333,89.52733098478484 A 64,64 0 0,1 192.2140551873629,103.44350508674546 L 178.91054139052216,112.3326288150591 A 48,48 0 0,0 165.66737118494092,99.08945860947783 L 156.77824745662727,112.39297240631855 A 32,32 0 1,0 126.75413016431713,168.56414504036118 L 129.81559762323786,161.17310878027089" />
  <type>Circular</type>
</svg>