<?xml version="1.0" encoding="utf-8" standalone="no"?>
<!DOCTYPE svg PUBLIC "-//W3C//DTD SVG 1.1//EN" "http://www.w3.org/Graphics/SVG/1.1/DTD/svg11.dtd"[]>
<svg width="276" height="276" version="1.1" xmlns="http://www.w3.org/2000/svg">
  <title>17 cells diameter theta maze</title>
  <g fill="none" stroke="#000000" stroke-width="2" stroke-linecap="square">
    <path d="M 122.02943725152286,155.97056274847714 A 24,24 0 1,1 139,163" />
    <path d="M 139,99 A 40,40 0 0,1 167.2842712474619,110.7157287525381" />
    <path d="M 179,139 A 40,40 0 0,1 167.2842712474619,167.2842712474619" />
    <path d="M 154.3073372946036,175.95518130045147 A 40,40 0 0,1 139,179" />
    <path d="M 123.69266270539642,175.95518130045147 A 40,40 0 0,1 102.04481869954853,154.3073372946036" />
    <path d="M 99,139 A 40,40 0 0,1 102.04481869954853,123.6926627053964" />
    <path d="M 110.7157287525381,110.7157287525381 A 40,40 0 0,1 123.69266270539639,102.04481869954854" />
    <path d="M 117.56972778755494,87.262746179367952 A 56,56 0 0,1 178.59797974644667,99.402020253553331" />
    <path d="M 190.73725382063205,117.56972778755497 A 56,56 0 0,1 195,139" />
    <path d="M 190.73725382063208,160.43027221244503 A 56,56 0 0,1 139,195" />
    <path d="M 117.56972778755498,190.73725382063208 A 56,56 0 0,1 99.402020253553346,178.59797974644667" />
    <path d="M 83,139 A 56,56 0 0,1 99.402020253553331,99.402020253553346" />
    <path d="M 124.95349681483873,68.383459810967409 A 72,72 0 0,1 139,67" />
    <path d="M 179.00105677741135,79.134187914216739 A 72,72 0 0,1 189.91168824543144,88.088311754568579" />
    <path d="M 198.86581208578326,98.998943222588636 A 72,72 0 0,1 205.51932634081265,111.44679286971353" />
    <path d="M 211,139 A 72,72 0 0,1 153.04650318516127,209.61654018903261" />
    <path d="M 124.95349681483876,209.61654018903261 A 72,72 0 0,1 98.998943222588665,198.86581208578326" />
    <path d="M 88.0883117545686,189.91168824543144 A 72,72 0 0,1 79.134187914216739,179.00105677741135" />
    <path d="M 68.383459810967409,153.04650318516127 A 72,72 0 0,1 79.134187914216724,98.998943222588665" />
    <path d="M 88.088311754568565,88.0883117545686 A 72,72 0 0,1 111.44679286971349,72.480673659187374" />
    <path d="M 121.83205166258067,52.690895324515722 A 88,88 0 0,1 156.16794833741929,52.690895324515722" />
    <path d="M 172.6761420481279,57.698601139006769 A 88,88 0 0,1 187.890180505725,65.83067411737602" />
    <path d="M 201.22539674441617,76.774603255583813 A 88,88 0 0,1 212.16932588262398,90.109819494275" />
    <path d="M 220.30139886099323,105.3238579518721 A 88,88 0 0,1 225.30910467548426,156.16794833741929" />
    <path d="M 212.16932588262398,187.89018050572497 A 88,88 0 0,1 187.89018050572497,212.16932588262398" />
    <path d="M 172.6761420481279,220.30139886099323 A 88,88 0 0,1 156.16794833741932,225.30910467548426" />
    <path d="M 57.698601139006769,105.32385795187207 A 88,88 0 0,1 65.830674117375992,90.10981949427503" />
    <path d="M 76.7746032555838,76.774603255583827 A 88,88 0 0,1 90.109819494275,65.83067411737602" />
    <path d="M 139,35 A 104,104 0 0,1 212.53910524340094,65.46089475659906" />
    <path d="M 225.4728396794647,81.220695765961366 A 104,104 0 0,1 241.00166916193598,118.71060651032266" />
    <path d="M 241.00166916193598,159.28939348967734 A 104,104 0 0,1 225.47283967946473,196.77930423403859" />
    <path d="M 196.77930423403862,225.4728396794647 A 104,104 0 0,1 178.79907696596933,235.08347138117381" />
    <path d="M 118.71060651032265,241.00166916193598 A 104,104 0 0,1 81.220695765961409,225.47283967946473" />
    <path d="M 65.460894756599075,212.53910524340097 A 104,104 0 0,1 42.916528618826206,178.79907696596939" />
    <path d="M 35,139.00000000000003 A 104,104 0 0,1 52.527160320535273,81.220695765961409" />
    <path d="M 65.460894756599046,65.460894756599075 A 104,104 0 0,1 81.220695765961366,52.5271603205353" />
    <path d="M 99.200923034030609,42.916528618826206 A 104,104 0 0,1 118.71060651032261,36.998330838064049" />
    <path d="M 93.077988116189147,28.134456098645614 A 120,120 0 0,1 184.92201188381077,28.134456098645586" />
    <path d="M 238.77635347630542,72.331572037647732 A 120,120 0 0,1 249.86554390135441,93.077988116189232" />
    <path d="M 256.69423364838764,115.5891613580646 A 120,120 0 0,1 259,139" />
    <path d="M 223.85281374238571,223.85281374238571 A 120,120 0 0,1 205.66842796235227,238.77635347630542" />
    <path d="M 184.9220118838108,249.86554390135439 A 120,120 0 0,1 162.41083864193544,256.69423364838764" />
    <path d="M 139.00000000000003,259 A 120,120 0 0,1 115.5891613580646,256.69423364838764" />
    <path d="M 93.077988116189246,249.86554390135441 A 120,120 0 0,1 54.147186257614308,223.85281374238571" />
    <path d="M 39.223646523694569,205.66842796235227 A 120,120 0 0,1 28.134456098645614,184.92201188381085" />
    <path d="M 21.305766351612348,162.41083864193544 A 120,120 0 0,1 19,139.00000000000003" />
    <path d="M 21.305766351612348,115.5891613580646 A 120,120 0 0,1 28.1344560986456,93.0779881161892" />
    <path d="M 39.223646523694541,72.331572037647774 A 120,120 0 0,1 54.14718625761428,54.147186257614322" />
    <path d="M 152.33033108482024,3.654877172581223 A 136,136 0 1,1 139,3" />
  </g>
  <g fill="none" stroke="#000000" stroke-width="2" stroke-linecap="butt">
    <line x1="139" y1="51" x2="139" y2="67" />
    <line x1="159.28939348967734" y1="36.998330838064035" x2="153.04650318516124" y2="68.383459810967409" />
    <line x1="172.6761420481279" y1="57.698601139006769" x2="166.55320713028647" y2="72.48067365918736" />
    <line x1="160.43027221244503" y1="87.262746179367952" x2="154.3073372946036" y2="102.04481869954853" />
    <line x1="214.55755169066589" y1="25.920132726853851" x2="187.890180505725" y2="65.83067411737602" />
    <line x1="235.16652224137044" y1="42.833477758629527" x2="223.85281374238571" y2="54.147186257614294" />
    <line x1="189.91168824543144" y1="88.088311754568565" x2="178.59797974644664" y2="99.402020253553331" />
    <line x1="238.77635347630542" y1="72.331572037647732" x2="198.86581208578326" y2="98.998943222588636" />
    <line x1="264.64761642153496" y1="86.955053198347784" x2="249.86554390135441" y2="93.077988116189218" />
    <line x1="235.08347138117381" y1="99.200923034030666" x2="220.30139886099323" y2="105.3238579518721" />
    <line x1="205.51932634081265" y1="111.44679286971353" x2="175.95518130045147" y2="123.6926627053964" />
    <line x1="225.30910467548426" y1="121.83205166258071" x2="209.61654018903261" y2="124.95349681483876" />
    <line x1="275" y1="139" x2="243" y2="139" />
    <line x1="211" y1="139" x2="195" y2="139" />
    <line x1="179" y1="139" x2="163" y2="139" />
    <line x1="256.69423364838764" y1="162.41083864193539" x2="225.30910467548426" y2="156.16794833741929" />
    <line x1="264.64761642153496" y1="191.0449468016522" x2="249.86554390135441" y2="184.92201188381077" />
    <line x1="220.30139886099323" y1="172.6761420481279" x2="205.51932634081265" y2="166.55320713028647" />
    <line x1="238.77635347630547" y1="205.66842796235224" x2="212.16932588262398" y2="187.89018050572497" />
    <line x1="223.85281374238571" y1="223.85281374238571" x2="212.53910524340097" y2="212.53910524340094" />
    <line x1="205.66842796235227" y1="238.77635347630545" x2="196.77930423403862" y2="225.4728396794647" />
    <line x1="178.79907696596933" y1="235.08347138117381" x2="166.55320713028647" y2="205.51932634081265" />
    <line x1="160.43027221244503" y1="190.73725382063205" x2="154.3073372946036" y2="175.95518130045147" />
    <line x1="165.53228379419349" y1="272.38679813483935" x2="159.28939348967737" y2="241.00166916193598" />
    <line x1="139.00000000000003" y1="259" x2="139" y2="195" />
    <line x1="139" y1="179" x2="139" y2="163" />
    <line x1="121.83205166258071" y1="225.30910467548426" x2="124.95349681483876" y2="209.61654018903261" />
    <line x1="93.077988116189232" y1="249.86554390135444" x2="99.200923034030666" y2="235.08347138117384" />
    <line x1="105.3238579518721" y1="220.30139886099323" x2="117.56972778755498" y2="190.73725382063208" />
    <line x1="63.442448309334139" y1="252.07986727314619" x2="72.33157203764776" y2="238.77635347630547" />
    <line x1="81.2206957659614" y1="225.47283967946473" x2="98.99894322258865" y2="198.86581208578326" />
    <line x1="54.147186257614308" y1="223.85281374238571" x2="65.46089475659906" y2="212.53910524340097" />
    <line x1="76.774603255583827" y1="201.2253967444162" x2="99.402020253553346" y2="178.59797974644667" />
    <line x1="110.7157287525381" y1="167.2842712474619" x2="122.02943725152286" y2="155.97056274847714" />
    <line x1="39.223646523694569" y1="205.66842796235227" x2="65.83067411737602" y2="187.890180505725" />
    <line x1="42.916528618826206" y1="178.79907696596939" x2="102.04481869954854" y2="154.3073372946036" />
    <line x1="21.305766351612363" y1="162.41083864193544" x2="68.383459810967423" y2="153.04650318516127" />
    <line x1="19" y1="139.00000000000003" x2="51" y2="139.00000000000003" />
    <line x1="83" y1="139" x2="115" y2="139" />
    <line x1="21.305766351612348" y1="115.5891613580646" x2="52.690895324515722" y2="121.83205166258071" />
    <line x1="25.920132726853822" y1="63.442448309334154" x2="65.830674117376" y2="90.10981949427503" />
    <line x1="54.14718625761428" y1="54.147186257614322" x2="65.460894756599046" y2="65.460894756599075" />
    <line x1="110.7157287525381" y1="110.7157287525381" x2="122.02943725152286" y2="122.02943725152286" />
    <line x1="63.442448309334111" y1="25.920132726853851" x2="72.331572037647732" y2="39.223646523694569" />
    <line x1="81.220695765961381" y1="52.5271603205353" x2="90.109819494275" y2="65.83067411737602" />
    <line x1="99.200923034030609" y1="42.916528618826206" x2="105.32385795187204" y2="57.698601139006783" />
    <line x1="111.44679286971349" y1="72.480673659187374" x2="123.69266270539639" y2="102.04481869954854" />
    <line x1="112.4677162058065" y1="5.6132018651606757" x2="118.71060651032261" y2="36.998330838064049" />
  </g>
  <path fill="none" stroke="#ff0000" stroke-width="2" stroke-linecap="square" stroke-linejoin="round" d="M 145.67320370852886,3.1638179560965511 L 145.28066231390952,11.154181605737932 A 128,128 0 0,1 199.33878231372771,26.114078163410554 L 191.79643452451174,40.224818392984233 A 112,112 0 0,0 128.02208028308922,27.539310612713948 L 129.59035452836218,43.4622662394691 A 96,96 0 0,0 111.1326709835716,47.133727769707946 L 120.4217806557144,77.755818513138635 A 64,64 0 0,1 169.16939115686384,82.557039081705284 L 176.71173894607981,68.446298852131591 A 80,80 0 0,1 200.84083626901895,88.248537266908357 L 188.47266901521516,98.398829813526689 A 64,64 0 0,1 192.2140551873629,103.44350508674546 L 165.60702759368144,121.22175254337273 A 32,32 0 0,1 170.38512897290337,132.75710969548391 L 186.07769345935506,129.63566454322583 A 48,48 0 0,1 186.07769345935506,148.36433545677414 L 201.77025794580675,151.48578060903219 A 64,64 0 0,1 145.2730969810919,202.69182250702059 L 151.54619396218379,266.38364501404118 A 128,128 0 0,1 101.84356131142886,261.48836297372276 L 106.48811614750025,246.17731760200741 A 112,112 0 0,0 128.02208028308922,250.46068938728604 L 132.72690301890813,202.69182250702062 A 64,64 0 0,1 126.51421939096778,201.77025794580675 L 132.75710969548391,170.38512897290337 A 32,32 0 0,1 126.75413016431713,168.56414504036118 L 129.81559762323786,161.17310878027089" />
  <type>Circular</type>
</svg>