<?xml version="1.0" encoding="utf-8" standalone="no"?>
<!DOCTYPE svg PUBLIC "-//W3C//DTD SVG 1.1//EN" "http://www.w3.org/Graphics/SVG/1.1/DTD/svg11.dtd"[]>
<svg width="235" height="251.68326548234944" version="1.1" xmlns="http://www.w3.org/2000/svg">
  <title>20 by 13 delta maze</title>
  <g fill="none" stroke="#000000" stroke-width="2" stroke-linecap="round" stroke-linejoin="round">
    <line x1="13" y1="1.9999999999999911" x2="101" y2="1.9999999999999911" />
    <line x1="123" y1="1.9999999999999911" x2="233" y2="1.9999999999999911" />
    <line x1="24" y1="21.052558883257639" x2="46" y2="21.052558883257639" />
    <line x1="134" y1="21.052558883257639" x2="178" y2="21.052558883257639" />
    <line x1="35" y1="40.105117766515292" x2="57" y2="40.105117766515292" />
    <line x1="189" y1="40.105117766515292" x2="211" y2="40.105117766515292" />
    <line x1="2" y1="59.157676649772938" x2="46" y2="59.157676649772938" />
    <line x1="68" y1="59.157676649772938" x2="90" y2="59.157676649772938" />
    <line x1="200" y1="59.157676649772938" x2="222" y2="59.157676649772938" />
    <line x1="189" y1="78.210235533030584" x2="211" y2="78.210235533030584" />
    <line x1="46" y1="97.262794416288244" x2="68" y2="97.262794416288244" />
    <line x1="156" y1="97.262794416288244" x2="222" y2="97.262794416288244" />
    <line x1="35" y1="116.31535329954589" x2="57" y2="116.31535329954589" />
    <line x1="123" y1="116.31535329954589" x2="145" y2="116.31535329954589" />
    <line x1="2" y1="135.36791218280354" x2="24" y2="135.36791218280354" />
    <line x1="68" y1="135.36791218280354" x2="90" y2="135.36791218280354" />
    <line x1="134" y1="135.36791218280354" x2="156" y2="135.36791218280354" />
    <line x1="200" y1="135.36791218280354" x2="222" y2="135.36791218280354" />
    <line x1="24" y1="173.47302994931883" x2="46" y2="173.47302994931883" />
    <line x1="68" y1="173.47302994931883" x2="112" y2="173.47302994931883" />
    <line x1="156" y1="173.47302994931883" x2="178" y2="173.47302994931883" />
    <line x1="13" y1="192.52558883257649" x2="35" y2="192.52558883257649" />
    <line x1="79" y1="192.52558883257649" x2="101" y2="192.52558883257649" />
    <line x1="167" y1="192.52558883257649" x2="189" y2="192.52558883257649" />
    <line x1="46" y1="211.57814771583415" x2="68" y2="211.57814771583415" />
    <line x1="90" y1="211.57814771583415" x2="112" y2="211.57814771583415" />
    <line x1="79" y1="230.63070659909178" x2="123" y2="230.63070659909178" />
    <line x1="189" y1="230.63070659909178" x2="211" y2="230.63070659909178" />
    <line x1="2" y1="249.68326548234944" x2="112" y2="249.68326548234944" />
    <line x1="134" y1="249.68326548234944" x2="222" y2="249.68326548234944" />
    <polyline points="13,1.9999999999999911 2,21.052558883257639 13,40.105117766515292 2,59.157676649772938" />
    <line x1="2" y1="59.157676649772945" x2="13" y2="78.2102355330306" />
    <line x1="13" y1="78.210235533030584" x2="2" y2="97.262794416288244" />
    <polyline points="2,97.26279441628823 13,116.31535329954589 2,135.36791218280354 13,154.42047106606117" />
    <line x1="13" y1="154.4204710660612" x2="2" y2="173.47302994931883" />
    <polyline points="2,173.47302994931886 13,192.52558883257649 2,211.57814771583412" />
    <line x1="2" y1="211.57814771583415" x2="13" y2="230.63070659909178" />
    <line x1="13" y1="230.63070659909181" x2="2" y2="249.68326548234944" />
    <line x1="35" y1="78.210235533030584" x2="24" y2="97.262794416288244" />
    <line x1="24" y1="135.36791218280354" x2="35" y2="154.42047106606117" />
    <line x1="24" y1="173.47302994931886" x2="35" y2="192.52558883257649" />
    <line x1="24" y1="211.57814771583415" x2="35" y2="230.63070659909178" />
    <line x1="35" y1="230.63070659909181" x2="24" y2="249.68326548234944" />
    <line x1="46" y1="21.052558883257639" x2="35" y2="40.105117766515292" />
    <line x1="46" y1="59.157676649772945" x2="35" y2="78.2102355330306" />
    <line x1="46" y1="97.26279441628823" x2="35" y2="116.31535329954589" />
    <polyline points="57,116.31535329954589 46,135.36791218280354 57,154.42047106606117" />
    <line x1="57" y1="154.4204710660612" x2="46" y2="173.47302994931883" />
    <line x1="46" y1="173.47302994931886" x2="57" y2="192.52558883257649" />
    <polyline points="57,1.9999999999999911 68,21.052558883257639 57,40.105117766515292" />
    <line x1="68" y1="59.157676649772945" x2="57" y2="78.2102355330306" />
    <line x1="57" y1="78.210235533030584" x2="68" y2="97.262794416288244" />
    <line x1="68" y1="135.36791218280354" x2="57" y2="154.42047106606117" />
    <line x1="57" y1="230.63070659909181" x2="68" y2="249.68326548234944" />
    <line x1="79" y1="40.105117766515292" x2="68" y2="59.157676649772938" />
    <line x1="79" y1="154.4204710660612" x2="68" y2="173.47302994931883" />
    <polyline points="68,173.47302994931886 79,192.52558883257649 68,211.57814771583412" />
    <line x1="68" y1="211.57814771583415" x2="79" y2="230.63070659909178" />
    <line x1="90" y1="59.157676649772945" x2="79" y2="78.2102355330306" />
    <line x1="79" y1="78.210235533030584" x2="90" y2="97.262794416288244" />
    <line x1="90" y1="97.26279441628823" x2="79" y2="116.31535329954589" />
    <line x1="90" y1="21.052558883257639" x2="101" y2="40.105117766515292" />
    <line x1="101" y1="78.210235533030584" x2="90" y2="97.262794416288244" />
    <polyline points="101,116.31535329954589 90,135.36791218280354 101,154.42047106606117" />
    <line x1="101" y1="1.9999999999999911" x2="112" y2="21.052558883257639" />
    <line x1="101" y1="40.105117766515292" x2="112" y2="59.157676649772938" />
    <line x1="112" y1="59.157676649772945" x2="101" y2="78.2102355330306" />
    <line x1="101" y1="192.52558883257649" x2="112" y2="211.57814771583412" />
    <line x1="112" y1="21.052558883257639" x2="123" y2="40.105117766515292" />
    <polyline points="112,97.26279441628823 123,116.31535329954589 112,135.36791218280354 123,154.42047106606117" />
    <line x1="112" y1="173.47302994931886" x2="123" y2="192.52558883257649" />
    <line x1="123" y1="40.105117766515292" x2="134" y2="59.157676649772938" />
    <line x1="123" y1="78.210235533030584" x2="134" y2="97.262794416288244" />
    <line x1="123" y1="116.31535329954589" x2="134" y2="135.36791218280354" />
    <line x1="123" y1="154.4204710660612" x2="134" y2="173.47302994931883" />
    <polyline points="134,173.47302994931886 123,192.52558883257649 134,211.57814771583412" />
    <line x1="123" y1="230.63070659909181" x2="134" y2="249.68326548234944" />
    <line x1="134" y1="59.157676649772945" x2="145" y2="78.2102355330306" />
    <line x1="134" y1="97.26279441628823" x2="145" y2="116.31535329954589" />
    <line x1="145" y1="40.105117766515292" x2="156" y2="59.157676649772938" />
    <line x1="145" y1="154.4204710660612" x2="156" y2="173.47302994931883" />
    <line x1="156" y1="173.47302994931886" x2="145" y2="192.52558883257649" />
    <line x1="156" y1="211.57814771583415" x2="145" y2="230.63070659909178" />
    <polyline points="156,21.052558883257639 167,40.105117766515292 156,59.157676649772938" />
    <line x1="156" y1="211.57814771583415" x2="167" y2="230.63070659909178" />
    <line x1="167" y1="230.63070659909181" x2="156" y2="249.68326548234944" />
    <line x1="167" y1="40.105117766515292" x2="178" y2="59.157676649772938" />
    <line x1="178" y1="59.157676649772945" x2="167" y2="78.2102355330306" />
    <line x1="178" y1="97.26279441628823" x2="167" y2="116.31535329954589" />
    <line x1="178" y1="135.36791218280354" x2="167" y2="154.42047106606117" />
    <line x1="178" y1="173.47302994931886" x2="167" y2="192.52558883257649" />
    <line x1="189" y1="1.9999999999999911" x2="178" y2="21.052558883257639" />
    <line x1="178" y1="59.157676649772945" x2="189" y2="78.2102355330306" />
    <line x1="178" y1="135.36791218280354" x2="189" y2="154.42047106606117" />
    <line x1="189" y1="154.4204710660612" x2="178" y2="173.47302994931883" />
    <line x1="189" y1="192.52558883257649" x2="178" y2="211.57814771583412" />
    <line x1="178" y1="211.57814771583415" x2="189" y2="230.63070659909178" />
    <line x1="189" y1="1.9999999999999911" x2="200" y2="21.052558883257639" />
    <line x1="189" y1="40.105117766515292" x2="200" y2="59.157676649772938" />
    <line x1="189" y1="116.31535329954589" x2="200" y2="135.36791218280354" />
    <line x1="200" y1="97.26279441628823" x2="211" y2="116.31535329954589" />
    <line x1="211" y1="154.4204710660612" x2="200" y2="173.47302994931883" />
    <line x1="211" y1="192.52558883257649" x2="200" y2="211.57814771583412" />
    <line x1="211" y1="230.63070659909181" x2="200" y2="249.68326548234944" />
    <line x1="211" y1="154.4204710660612" x2="222" y2="173.47302994931883" />
    <line x1="222" y1="173.47302994931886" x2="211" y2="192.52558883257649" />
    <polyline points="233,1.9999999999999911 222,21.052558883257639 233,40.105117766515292 222,59.157676649772938" />
    <line x1="222" y1="59.157676649772945" x2="233" y2="78.2102355330306" />
    <line x1="233" y1="78.210235533030584" x2="222" y2="97.262794416288244" />
    <polyline points="222,97.26279441628823 233,116.31535329954589 222,135.36791218280354 233,154.42047106606117" />
    <line x1="233" y1="154.4204710660612" x2="222" y2="173.47302994931883" />
    <polyline points="222,173.47302994931886 233,192.52558883257649 222,211.57814771583412" />
    <line x1="222" y1="211.57814771583415" x2="233" y2="230.63070659909178" />
    <line x1="233" y1="230.63070659909181" x2="222" y2="249.68326548234944" />
  </g>
  <polyline fill="none" stroke="#ff0000" stroke-width="2" stroke-linecap="square" stroke-linejoin="round" points="112,1.9999999999999911 156,78.210235533030584 150.5,87.736514974659414 139.5,87.736514974659414 128.5,68.683956091401768 117.5,68.683956091401768 101,97.262794416288244 112,116.31535329954589 101,135.36791218280354 112,154.4204710660612 106.5,163.94675050769 95.5,163.94675050769 84.5,144.89419162443235 73.5,144.89419162443235 57,173.47302994931883 68,192.52558883257649 62.5,202.0518682742053 40.5,202.0518682742053 35,211.57814771583415 40.5,221.10442715746297 62.5,221.10442715746297 73.5,240.15698604072063 117.5,240.15698604072063 123,249.68326548234944" />
  <type>Rectangular</type>
</svg>