<?xml version="1.0" encoding="utf-8" standalone="no"?>
<!DOCTYPE svg PUBLIC "-//W3C//DTD SVG 1.1//EN" "http://www.w3.org/Graphics/SVG/1.1/DTD/svg11.dtd"[]>
<svg width="628" height="628" version="1.1" xmlns="http://www.w3.org/2000/svg">
  <title>39 cells diameter theta maze</title>
  <g fill="none" stroke="#000000" stroke-width="2" stroke-linecap="square">
    <path d="M 298.02943725152284,331.97056274847716 A 24,24 0 1,1 315,339" />
    <path d="M 343.2842712474619,286.7157287525381 A 40,40 0 0,1 330.3073372946036,351.9551813004515" />
    <path d="M 315,355 A 40,40 0 0,1 278.04481869954856,330.3073372946036" />
    <path d="M 286.7157287525381,286.7157287525381 A 40,40 0 0,1 299.6926627053964,278.04481869954856" />
    <path d="M 293.56972778755494,263.262746179368 A 56,56 0 0,1 315,259" />
    <path d="M 336.430272212445,263.26274617936792 A 56,56 0 0,1 371,315" />
    <path d="M 315,371 A 56,56 0 0,1 275.40202025355336,354.59797974644664" />
    <path d="M 263.26274617936792,336.43027221244506 A 56,56 0 0,1 263.26274617936792,293.56972778755494" />
    <path d="M 315,243 A 72,72 0 0,1 329.04650318516121,244.3834598109674" />
    <path d="M 355.00105677741135,255.13418791421674 A 72,72 0 0,1 387,315" />
    <path d="M 385.61654018903261,329.04650318516121 A 72,72 0 0,1 365.91168824543144,365.91168824543144" />
    <path d="M 355.00105677741135,374.86581208578326 A 72,72 0 0,1 329.04650318516127,385.61654018903261" />
    <path d="M 315,387 A 72,72 0 0,1 300.95349681483879,385.61654018903261" />
    <path d="M 287.44679286971353,381.51932634081265 A 72,72 0 0,1 248.48067365918737,342.55320713028652" />
    <path d="M 244.3834598109674,329.04650318516127 A 72,72 0 0,1 244.3834598109674,300.95349681483879" />
    <path d="M 255.13418791421674,274.99894322258865 A 72,72 0 0,1 300.95349681483873,244.3834598109674" />
    <path d="M 266.10981949427503,241.83067411737602 A 88,88 0 0,1 332.16794833741926,228.69089532451574" />
    <path d="M 348.67614204812787,233.69860113900677 A 88,88 0 0,1 401.30910467548426,297.83205166258068" />
    <path d="M 403,315 A 88,88 0 0,1 388.169325882624,363.89018050572497" />
    <path d="M 332.16794833741932,401.30910467548426 A 88,88 0 0,1 266.10981949427503,388.169325882624" />
    <path d="M 233.69860113900677,348.67614204812793 A 88,88 0 0,1 228.69089532451574,332.16794833741932" />
    <path d="M 227,315 A 88,88 0 0,1 252.7746032555838,252.77460325558383" />
    <path d="M 294.71060651032263,212.99833083806405 A 104,104 0 0,1 315,211" />
    <path d="M 388.53910524340097,241.46089475659906 A 104,104 0 0,1 417.001669161936,294.71060651032263" />
    <path d="M 419,315 A 104,104 0 0,1 417.001669161936,335.28939348967731" />
    <path d="M 411.08347138117381,354.79907696596933 A 104,104 0 0,1 388.53910524340097,388.53910524340097" />
    <path d="M 372.77930423403859,401.4728396794647 A 104,104 0 0,1 294.71060651032263,417.001669161936" />
    <path d="M 257.22069576596141,401.47283967946476 A 104,104 0 0,1 241.46089475659909,388.53910524340097" />
    <path d="M 228.5271603205353,372.77930423403865 A 104,104 0 0,1 218.91652861882619,354.79907696596939" />
    <path d="M 212.99833083806402,335.28939348967737 A 104,104 0 0,1 241.46089475659903,241.46089475659909" />
    <path d="M 257.22069576596135,228.5271603205353 A 104,104 0 0,1 275.20092303403061,218.91652861882619" />
    <path d="M 291.58916135806453,197.30576635161236 A 120,120 0 0,1 399.85281374238571,230.14718625761429" />
    <path d="M 414.77635347630542,248.33157203764773 A 120,120 0 0,1 425.86554390135439,269.0779881161892" />
    <path d="M 435,315 A 120,120 0 0,1 381.66842796235227,414.77635347630542" />
    <path d="M 338.41083864193541,432.69423364838764 A 120,120 0 0,1 248.33157203764779,414.77635347630547" />
    <path d="M 230.14718625761429,399.85281374238571 A 120,120 0 0,1 215.22364652369458,381.66842796235227" />
    <path d="M 204.13445609864561,360.92201188381085 A 120,120 0 0,1 197.30576635161236,291.58916135806459" />
    <path d="M 215.22364652369453,248.33157203764779 A 120,120 0 0,1 230.14718625761429,230.14718625761432" />
    <path d="M 315,179 A 136,136 0 0,1 328.33033108482022,179.65487717258122" />
    <path d="M 354.4787161066069,184.8561143404196 A 136,136 0 0,1 367.0449468016522,189.35238357846498" />
    <path d="M 390.55755169066589,201.92013272685387 A 136,136 0 0,1 440.64761642153496,262.9550531983478" />
    <path d="M 448.38679813483935,288.46771620580654 A 136,136 0 0,1 451,315" />
    <path d="M 445.14388565958041,354.47871610660684 A 136,136 0 0,1 434.94129195137629,379.10995620833569" />
    <path d="M 428.07986727314619,390.55755169066589 A 136,136 0 0,1 401.2774866462558,420.12942165733222" />
    <path d="M 367.0449468016522,440.64761642153496 A 136,136 0 0,1 354.4787161066069,445.14388565958041" />
    <path d="M 341.53228379419352,448.3867981348393 A 136,136 0 0,1 315,451" />
    <path d="M 301.66966891517978,450.34512282741878 A 136,136 0 0,1 288.46771620580654,448.38679813483935" />
    <path d="M 275.52128389339316,445.14388565958041 A 136,136 0 0,1 250.89004379166431,434.94129195137629" />
    <path d="M 239.44244830933414,428.07986727314619 A 136,136 0 0,1 218.83347775862956,411.16652224137044" />
    <path d="M 201.92013272685384,390.55755169066589 A 136,136 0 0,1 195.05870804862371,379.10995620833569" />
    <path d="M 184.8561143404196,354.4787161066069 A 136,136 0 0,1 184.8561143404196,275.52128389339316" />
    <path d="M 189.352383578465,262.95505319834774 A 136,136 0 0,1 218.8334777586295,218.83347775862956" />
    <path d="M 239.44244830933411,201.92013272685387 A 136,136 0 0,1 250.89004379166428,195.05870804862374" />
    <path d="M 262.95505319834768,189.35238357846504 A 136,136 0 0,1 275.5212838933931,184.8561143404196" />
    <path d="M 288.46771620580648,181.61320186516068 A 136,136 0 0,1 301.66966891517978,179.65487717258122" />
    <path d="M 329.89860533009323,163.73192154582608 A 152,152 0 0,1 359.12327094267829,169.54506896870424" />
    <path d="M 386.65230399755166,180.94796781905004 A 152,152 0 0,1 399.44667541897957,188.61661893001312" />
    <path d="M 432.497588911136,218.57222080712586 A 152,152 0 0,1 455.4296889417156,256.83211828050634" />
    <path d="M 460.45493103129576,270.87672905732171 A 152,152 0 0,1 464.079362621291,285.34627105354849" />
    <path d="M 466.26807845417392,300.10139466990677 A 152,152 0 0,1 467,315" />
    <path d="M 466.26807845417392,329.89860533009323 A 152,152 0 0,1 464.079362621291,344.65372894645151" />
    <path d="M 460.45493103129576,359.12327094267823 A 152,152 0 0,1 455.4296889417156,373.16788171949361" />
    <path d="M 449.05203218094994,386.65230399755166 A 152,152 0 0,1 441.38338106998691,399.44667541897951" />
    <path d="M 432.49758891113606,411.42777919287408 A 152,152 0 0,1 422.48023074035524,422.48023074035518" />
    <path d="M 411.42777919287414,432.497588911136 A 152,152 0 0,1 373.16788171949366,455.42968894171554" />
    <path d="M 329.89860533009323,466.26807845417392 A 152,152 0 0,1 300.10139466990677,466.26807845417392" />
    <path d="M 285.34627105354849,464.079362621291 A 152,152 0 0,1 218.57222080712592,432.49758891113606" />
    <path d="M 197.50241108886402,411.42777919287414 A 152,152 0 0,1 188.61661893001312,399.44667541897951" />
    <path d="M 174.57031105828446,373.16788171949372 A 152,152 0 0,1 169.54506896870424,359.12327094267829" />
    <path d="M 165.920637378709,344.65372894645157 A 152,152 0 0,1 163,315" />
    <path d="M 174.57031105828443,256.83211828050634 A 152,152 0 0,1 188.61661893001309,230.55332458102052" />
    <path d="M 230.55332458102046,188.61661893001312 A 152,152 0 0,1 285.34627105354843,165.920637378709" />
    <path d="M 315,147 A 168,168 0 0,1 347.77517409870956,150.22807289225727" />
    <path d="M 363.76782577874968,154.23402359698892 A 168,168 0 0,1 394.19465178676762,166.83722758947636" />
    <path d="M 421.57807173949243,185.13424383506018 A 168,168 0 0,1 444.8657561649398,208.42192826050757" />
    <path d="M 470.21176146189617,250.70918336266493 A 168,168 0 0,1 483,315" />
    <path d="M 479.77192710774273,347.77517409870956 A 168,168 0 0,1 475.76597640301111,363.76782577874962" />
    <path d="M 470.21176146189617,379.29081663733507 A 168,168 0 0,1 463.16277241052364,394.19465178676762" />
    <path d="M 444.86575616493985,421.57807173949243 A 168,168 0 0,1 421.57807173949243,444.86575616493985" />
    <path d="M 394.19465178676762,463.16277241052364 A 168,168 0 0,1 363.76782577874968,475.76597640301111" />
    <path d="M 298.53312042463381,482.19103408092906 A 168,168 0 0,1 282.22482590129044,479.77192710774273" />
    <path d="M 266.23217422125038,475.76597640301111 A 168,168 0 0,1 250.70918336266493,470.21176146189617" />
    <path d="M 235.80534821323241,463.16277241052364 A 168,168 0 0,1 208.42192826050757,444.86575616493985" />
    <path d="M 196.20606076066002,433.79393923934003 A 168,168 0 0,1 185.13424383506023,421.57807173949249" />
    <path d="M 175.3131051331724,408.33579914729319 A 168,168 0 0,1 166.83722758947639,394.19465178676762" />
    <path d="M 159.78823853810386,379.29081663733518 A 168,168 0 0,1 150.2280728922573,347.77517409870961" />
    <path d="M 147.80896591907091,331.46687957536614 A 168,168 0 0,1 147.80896591907091,298.53312042463392" />
    <path d="M 150.22807289225727,282.22482590129044 A 168,168 0 0,1 154.23402359698889,266.23217422125038" />
    <path d="M 166.83722758947636,235.80534821323241 A 168,168 0 0,1 185.1342438350602,208.42192826050754" />
    <path d="M 196.20606076066,196.20606076066002 A 168,168 0 0,1 235.80534821323235,166.83722758947639" />
    <path d="M 350.8966192509676,134.53550840580559 A 184,184 0 0,1 385.41375155517653,145.00616601792325" />
    <path d="M 445.10764773832477,184.89235226167526 A 184,184 0 0,1 495.46449159419444,279.1033807490324" />
    <path d="M 498.11398970768425,296.96484617936085 A 184,184 0 0,1 495.46449159419444,350.8966192509676" />
    <path d="M 491.0770217747264,368.412380614821 A 184,184 0 0,1 445.10764773832477,445.10764773832477" />
    <path d="M 431.72836428611078,457.23392341874364 A 184,184 0 0,1 401.73699957598359,477.27351264009729" />
    <path d="M 368.41238061482107,491.0770217747264 A 184,184 0 0,1 296.96484617936085,498.11398970768425" />
    <path d="M 261.587619385179,491.0770217747264 A 184,184 0 0,1 244.58624844482353,484.99383398207681" />
    <path d="M 228.26300042401644,477.27351264009735 A 184,184 0 0,1 212.77507712439325,467.99040866366835" />
    <path d="M 198.27163571388928,457.23392341874364 A 184,184 0 0,1 172.76607658125647,431.72836428611083" />
    <path d="M 134.53550840580562,350.89661925096766 A 184,184 0 0,1 131.88601029231577,333.03515382063915" />
    <path d="M 131,315.00000000000006 A 184,184 0 0,1 134.53550840580559,279.1033807490324" />
    <path d="M 138.92297822527354,261.587619385179 A 184,184 0 0,1 172.76607658125641,198.27163571388923" />
    <path d="M 184.89235226167523,184.89235226167529 A 184,184 0 0,1 244.58624844482335,145.00616601792328" />
    <path d="M 261.58761938517893,138.92297822527357 A 184,184 0 0,1 296.96484617936085,131.88601029231577" />
    <path d="M 295.39657193408789,115.96305466556063 A 200,200 0 0,1 315,115" />
    <path d="M 334.60342806591211,115.96305466556063 A 200,200 0 0,1 354.01806440322565,118.8429439193539" />
    <path d="M 373.05693545089247,123.61193285355822 A 200,200 0 0,1 409.27934736519956,138.615747130329" />
    <path d="M 426.11404660392043,148.70607753949096 A 200,200 0 0,1 481.29392246050907,203.88595339607954" />
    <path d="M 499.77590650225738,238.46331352698203 A 200,200 0 0,1 506.38806714644181,256.94306454910753" />
    <path d="M 511.1570560806461,275.98193559677435 A 200,200 0 0,1 514.03694533443934,295.39657193408783" />
    <path d="M 515,315 A 200,200 0 0,1 514.03694533443934,334.60342806591211" />
    <path d="M 511.1570560806461,354.01806440322565 A 200,200 0 0,1 499.77590650225738,391.53668647301794" />
    <path d="M 481.29392246050907,426.11404660392043 A 200,200 0 0,1 469.60209067254743,441.87865683272906" />
    <path d="M 426.11404660392043,481.29392246050907 A 200,200 0 0,1 409.27934736519956,491.38425286967095" />
    <path d="M 391.536686473018,499.77590650225738 A 200,200 0 0,1 373.05693545089247,506.38806714644181" />
    <path d="M 334.60342806591217,514.03694533443934 A 200,200 0 0,1 315,515" />
    <path d="M 256.94306454910759,506.38806714644181 A 200,200 0 0,1 238.46331352698206,499.77590650225738" />
    <path d="M 220.72065263480047,491.384252869671 A 200,200 0 0,1 203.88595339607963,481.29392246050907" />
    <path d="M 173.57864376269052,456.42135623730951 A 200,200 0 0,1 123.61193285355824,373.05693545089247" />
    <path d="M 115.96305466556063,334.60342806591211 A 200,200 0 0,1 115,315.00000000000006" />
    <path d="M 118.8429439193539,275.98193559677435 A 200,200 0 0,1 123.61193285355822,256.94306454910759" />
    <path d="M 138.615747130329,220.7206526348005 A 200,200 0 0,1 148.70607753949091,203.88595339607963" />
    <path d="M 160.39790932745262,188.12134316727088 A 200,200 0 0,1 203.88595339607957,148.70607753949096" />
    <path d="M 220.72065263480042,138.61574713032903 A 200,200 0 0,1 256.94306454910748,123.61193285355824" />
    <path d="M 357.1395095554837,103.15037943290221 A 216,216 0 0,1 397.6596213908594,115.44202097756207" />
    <path d="M 416.82169515441547,124.50500690075532 A 216,216 0 0,1 467.73506473629425,162.26493526370572" />
    <path d="M 481.97025792635117,177.97105062065256 A 216,216 0 0,1 521.69911251815711,252.29850971303614" />
    <path d="M 526.84962056709776,272.8604904445163 A 216,216 0 0,1 531,315" />
    <path d="M 514.557979022438,397.65962139085934 A 216,216 0 0,1 481.97025792635122,452.02894937934741" />
    <path d="M 435.00317033223405,494.59743625734978 A 216,216 0 0,1 416.82169515441552,505.49499309924465" />
    <path d="M 377.70149028696386,521.69911251815711 A 216,216 0 0,1 357.13950955548376,526.84962056709776" />
    <path d="M 336.17170231118513,529.95990096119453 A 216,216 0 0,1 315,531" />
    <path d="M 272.86049044451624,526.84962056709776 A 216,216 0 0,1 194.99682966776598,494.59743625734984" />
    <path d="M 177.97105062065262,481.97025792635122 A 216,216 0 0,1 162.26493526370575,467.73506473629425" />
    <path d="M 148.02974207364889,452.02894937934752 A 216,216 0 0,1 124.50500690075535,416.82169515441558" />
    <path d="M 115.44202097756212,397.65962139085951 A 216,216 0 0,1 108.30088748184289,377.70149028696386" />
    <path d="M 103.15037943290224,357.13950955548381 A 216,216 0 0,1 100.04009903880547,293.82829768881504" />
    <path d="M 115.4420209775621,232.34037860914054 A 216,216 0 0,1 124.50500690075529,213.17830484558454" />
    <path d="M 135.40256374265019,194.996829667766 A 216,216 0 0,1 148.02974207364883,177.97105062065256" />
    <path d="M 162.2649352637057,162.26493526370578 A 216,216 0 0,1 213.17830484558445,124.50500690075535" />
    <path d="M 382.34604512303525,92.98984211012754 A 232,232 0 0,1 462.17924192596575,135.66157481984502" />
    <path d="M 494.33842518015496,167.82075807403425 A 232,232 0 0,1 507.9009500541905,186.10770593945227" />
    <path d="M 529.34005154261854,226.21744369129917 A 232,232 0 0,1 547,315" />
    <path d="M 545.88285658794962,337.73997655645809 A 232,232 0 0,1 529.34005154261854,403.7825563087008" />
    <path d="M 494.338425180155,462.1792419259657 A 232,232 0 0,1 443.89229406054767,507.9009500541905" />
    <path d="M 403.78255630870086,529.34005154261854 A 232,232 0 0,1 382.34604512303525,537.01015788987252" />
    <path d="M 360.2609547077418,542.54218505354947 A 232,232 0 0,1 337.73997655645809,545.88285658794962" />
    <path d="M 292.26002344354197,545.88285658794962 A 232,232 0 0,1 205.63595705636857,519.60573332881836" />
    <path d="M 186.10770593945236,507.9009500541905 A 232,232 0 0,1 167.8207580740343,494.338425180155" />
    <path d="M 150.95122676472099,479.04877323527904 A 232,232 0 0,1 135.6615748198451,462.17924192596581" />
    <path d="M 122.0990499458095,443.89229406054767 A 232,232 0 0,1 100.65994845738152,403.782556308701" />
    <path d="M 92.98984211012754,382.34604512303531 A 232,232 0 0,1 84.117143412050325,337.73997655645803" />
    <path d="M 83,315.00000000000006 A 232,232 0 0,1 87.457814946450526,269.73904529225825" />
    <path d="M 92.989842110127512,247.6539548769648 A 232,232 0 0,1 100.65994845738149,226.21744369129914" />
    <path d="M 110.39426667118161,205.63595705636857 A 232,232 0 0,1 122.09904994580944,186.10770593945236" />
    <path d="M 135.66157481984504,167.82075807403422 A 232,232 0 0,1 150.95122676472093,150.951226764721" />
    <path d="M 205.63595705636848,110.39426667118167 A 232,232 0 0,1 247.65395487696469,92.98984211012754" />
    <path d="M 269.73904529225814,87.457814946450554 A 232,232 0 0,1 292.26002344354197,84.117143412050325" />
    <path d="M 266.61760014000009,71.765250459998867 A 248,248 0 0,1 315,67" />
    <path d="M 386.99059995910665,77.678796738412188 A 248,248 0 0,1 431.9063907328474,96.283526441607961" />
    <path d="M 490.36248173426378,139.63751826573622 A 248,248 0 0,1 506.70659243395875,157.6704655274159" />
    <path d="M 521.20446385103128,177.21858221113865 A 248,248 0 0,1 533.71647355839207,198.09360926715254" />
    <path d="M 544.12212406279912,220.09450877345773 A 248,248 0 0,1 558.23474954000119,266.61760014000015" />
    <path d="M 563,315 A 248,248 0 0,1 561.80581221470482,339.30825080173105" />
    <path d="M 544.12212406279912,409.90549122654227 A 248,248 0 0,1 506.7065924339588,472.32953447258404" />
    <path d="M 431.90639073284746,533.716473558392 A 248,248 0 0,1 409.90549122654227,544.12212406279912" />
    <path d="M 339.30825080173111,561.80581221470482 A 248,248 0 0,1 315.00000000000006,563" />
    <path d="M 243.00940004089341,552.32120326158781 A 248,248 0 0,1 177.21858221113874,521.20446385103128" />
    <path d="M 157.67046552741596,506.7065924339588 A 248,248 0 0,1 139.63751826573625,490.36248173426384" />
    <path d="M 123.29340756604131,472.32953447258421 A 248,248 0 0,1 108.79553614896878,452.78141778886135" />
    <path d="M 85.87787593720094,409.90549122654238 A 248,248 0 0,1 77.678796738412217,386.9905999591067" />
    <path d="M 71.765250459998867,363.38239985999991 A 248,248 0 0,1 67,315.00000000000006" />
    <path d="M 77.678796738412188,243.00940004089341 A 248,248 0 0,1 85.877875937200912,220.09450877345768" />
    <path d="M 108.79553614896872,177.21858221113874 A 248,248 0 0,1 123.29340756604125,157.6704655274159" />
    <path d="M 139.63751826573619,139.63751826573625 A 248,248 0 0,1 243.0094000408933,77.678796738412217" />
    <path d="M 315,51 A 264,264 0 0,1 379.14676749446164,58.911749156640383" />
    <path d="M 403.93892129554609,66.432366791682512 A 264,264 0 0,1 416.02842614438373,71.0958034170203" />
    <path d="M 439.44873852206337,82.172786212034282 A 264,264 0 0,1 450.72312446701051,88.559646959928159" />
    <path d="M 461.670541517175,95.49202235212806 A 264,264 0 0,1 482.47982701920239,110.92524031223744" />
    <path d="M 492.29156407961284,119.38890290629078 A 264,264 0 0,1 501.67619023324858,128.32380976675145" />
    <path d="M 510.61109709370919,137.70843592038716 A 264,264 0 0,1 534.50797764787194,168.329458482825" />
    <path d="M 553.65317338458908,202.1254553344055 A 264,264 0 0,1 563.56763320831749,226.06107870445391" />
    <path d="M 571.08825084335967,250.8532325055383 A 264,264 0 0,1 578.68200043816546,302.04613397756162" />
    <path d="M 579,315 A 264,264 0 0,1 573.9273140264529,366.50384501225784" />
    <path d="M 571.08825084335967,379.14676749446164 A 264,264 0 0,1 563.56763320831749,403.93892129554604" />
    <path d="M 553.65317338458908,427.87454466559439 A 264,264 0 0,1 547.82721378796577,439.44873852206337" />
    <path d="M 541.44035304007184,450.72312446701051 A 264,264 0 0,1 527.04678831089029,472.26461638600239" />
    <path d="M 519.07475968776259,482.47982701920239 A 264,264 0 0,1 510.61109709370919,492.29156407961284" />
    <path d="M 501.67619023324858,501.67619023324852 A 264,264 0 0,1 472.26461638600244,527.04678831089018" />
    <path d="M 461.67054151717497,534.50797764787194 A 264,264 0 0,1 379.1467674944617,571.08825084335967" />
    <path d="M 366.50384501225795,573.9273140264529 A 264,264 0 0,1 327.95386602243832,578.68200043816546" />
    <path d="M 315.00000000000006,579 A 264,264 0 0,1 289.123474952996,577.72876784146" />
    <path d="M 276.26315474378453,576.1425986307022 A 264,264 0 0,1 190.55126147793663,547.82721378796577" />
    <path d="M 179.27687553298952,541.44035304007184 A 264,264 0 0,1 157.73538361399761,527.04678831089029" />
    <path d="M 147.52017298079764,519.07475968776259 A 264,264 0 0,1 88.559646959928187,450.72312446701056" />
    <path d="M 82.17278621203431,439.44873852206342 A 264,264 0 0,1 71.095803417020363,416.02842614438384" />
    <path d="M 62.367751366696865,391.6351547951781 A 264,264 0 0,1 58.911749156640383,379.14676749446176" />
    <path d="M 56.072685973547209,366.50384501225795 A 264,264 0 0,1 52.271232158539988,289.12347495299616" />
    <path d="M 53.857401369297804,276.26315474378447 A 264,264 0 0,1 56.072685973547152,263.4961549877421" />
    <path d="M 62.367751366696837,238.36484520482202 A 264,264 0 0,1 66.432366791682483,226.06107870445402" />
    <path d="M 71.095803417020335,213.97157385561624 A 264,264 0 0,1 76.346826615410976,202.1254553344055" />
    <path d="M 82.172786212034254,190.55126147793663 A 264,264 0 0,1 110.92524031223746,147.52017298079755" />
    <path d="M 119.38890290629078,137.70843592038716 A 264,264 0 0,1 128.32380976675142,128.32380976675148" />
    <path d="M 137.70843592038708,119.38890290629087 A 264,264 0 0,1 226.06107870445391,66.432366791682512" />
    <path d="M 238.3648452048219,62.367751366696865 A 264,264 0 0,1 263.496154987742,56.072685973547209" />
    <path d="M 276.26315474378436,53.857401369297861 A 264,264 0 0,1 302.04613397756162,51.317999561834483" />
    <path d="M 287.55520070772303,36.348276531784848 A 280,280 0 0,1 328.73894881167706,35.337272262551721" />
    <path d="M 356.08453284750129,38.030577209861349 A 280,280 0 0,1 369.62529016451589,40.380121487095494" />
    <path d="M 409.32915894982159,51.367661748754188 A 280,280 0 0,1 446.99108631127933,68.0620459824606" />
    <path d="M 512.98989873223331,117.01010126776669 A 280,280 0 0,1 522.46631509938857,126.96349264283487" />
    <path d="M 539.89810881458061,148.20419474211863 A 280,280 0 0,1 561.93795401753937,183.00891368872061" />
    <path d="M 568.11700207456408,195.284573839521 A 280,280 0 0,1 586.60875089447234,246.96554962708609" />
    <path d="M 593.6517234682151,287.555200707723 A 280,280 0 0,1 595,315" />
    <path d="M 594.66272773744822,328.73894881167706 A 280,280 0 0,1 591.96942279013865,356.08453284750124" />
    <path d="M 582.94329400501852,396.27970963124943 A 280,280 0 0,1 561.93795401753937,446.99108631127933" />
    <path d="M 547.81149144471271,470.55966524548853 A 280,280 0 0,1 531.44292694156638,492.63011956582068" />
    <path d="M 522.46631509938857,503.03650735716519 A 280,280 0 0,1 503.03650735716519,522.46631509938857" />
    <path d="M 481.7958052578814,539.89810881458061 A 280,280 0 0,1 470.55966524548859,547.81149144471271" />
    <path d="M 458.94876837410209,555.1640108000762 A 280,280 0 0,1 446.99108631127939,561.93795401753937" />
    <path d="M 396.27970963124949,582.94329400501852 A 280,280 0 0,1 369.625290164516,589.61987851290451" />
    <path d="M 356.08453284750129,591.96942279013865 A 280,280 0 0,1 342.444799292277,593.6517234682151" />
    <path d="M 328.738948811677,594.66272773744822 A 280,280 0 0,1 273.91546715249876,591.96942279013865" />
    <path d="M 246.96554962708615,586.60875089447234 A 280,280 0 0,1 195.2845738395211,568.1170020745642" />
    <path d="M 183.00891368872067,561.93795401753937 A 280,280 0 0,1 159.44033475451147,547.81149144471271" />
    <path d="M 148.20419474211869,539.89810881458061 A 280,280 0 0,1 137.36988043417932,531.44292694156638" />
    <path d="M 126.96349264283484,522.46631509938857 A 280,280 0 0,1 82.188508555287314,470.55966524548865" />
    <path d="M 74.83598919992383,458.94876837410209 A 280,280 0 0,1 51.367661748754188,409.32915894982159" />
    <path d="M 40.380121487095494,369.625290164516 A 280,280 0 0,1 38.030577209861349,356.08453284750146" />
    <path d="M 36.348276531784848,342.44479929227691 A 280,280 0 0,1 35.337272262551721,328.73894881167706" />
    <path d="M 35.337272262551721,301.26105118832305 A 280,280 0 0,1 36.348276531784848,287.5552007077232" />
    <path d="M 40.380121487095494,260.37470983548405 A 280,280 0 0,1 56.313730896839729,207.84863893777481" />
    <path d="M 61.882997925435888,195.284573839521 A 280,280 0 0,1 74.835989199923773,171.05123162589797" />
    <path d="M 82.188508555287257,159.44033475451147 A 280,280 0 0,1 98.557073058433673,137.36988043417924" />
    <path d="M 126.96349264283478,107.53368490061152 A 280,280 0 0,1 148.20419474211869,90.10189118541939" />
    <path d="M 195.28457383952087,61.882997925435916 A 280,280 0 0,1 207.8486389377747,56.313730896839786" />
    <path d="M 260.37470983548394,40.380121487095494 A 280,280 0 0,1 273.91546715249854,38.030577209861349" />
    <path d="M 300.47596839908425,19.356544963268959 A 296,296 0 0,1 329.52403160091575,19.356544963268959" />
    <path d="M 344.01307353754993,20.425320905029707 A 296,296 0 0,1 358.43222043878706,22.203753050424837" />
    <path d="M 372.746735316774,24.687557000643778 A 296,296 0 0,1 400.92426446732088,31.74566062326619" />
    <path d="M 428.27429598006654,41.531658376659095 A 296,296 0 0,1 491.32699412976024,77.2505706817291" />
    <path d="M 534.32153310506783,116.21854936528257 A 296,296 0 0,1 543.81109419537017,127.21958788756092" />
    <path d="M 552.74942931827081,138.67300587023971 A 296,296 0 0,1 576.04869424711308,175.46656589950464" />
    <path d="M 602.129250945585,243.07786674863385 A 296,296 0 0,1 605.31244299935622,257.253264683226" />
    <path d="M 607.79624694957511,271.56777956121294 A 296,296 0 0,1 609.57467909497029,285.98692646245" />
    <path d="M 611,315 A 296,296 0 0,1 609.57467909497029,344.01307353754993" />
    <path d="M 605.31244299935622,372.74673531677394 A 296,296 0 0,1 598.25433937673392,400.92426446732082" />
    <path d="M 576.04869424711308,454.5334341004953 A 296,296 0 0,1 568.88766856008056,467.17441228119355" />
    <path d="M 552.74942931827093,491.32699412976024 A 296,296 0 0,1 534.32153310506783,513.78145063471743" />
    <path d="M 524.303607231218,524.303607231218 A 296,296 0 0,1 513.78145063471754,534.32153310506783" />
    <path d="M 502.78041211243908,543.81109419537017 A 296,296 0 0,1 491.32699412976029,552.74942931827081" />
    <path d="M 441.55630765536347,582.58083076453931 A 296,296 0 0,1 386.92213325136618,602.129250945585" />
    <path d="M 358.43222043878711,607.79624694957511 A 296,296 0 0,1 344.01307353755,609.57467909497029" />
    <path d="M 329.52403160091569,610.643455036731 A 296,296 0 0,1 315.00000000000006,611" />
    <path d="M 300.47596839908437,610.643455036731 A 296,296 0 0,1 285.98692646245007,609.57467909497029" />
    <path d="M 271.567779561213,607.79624694957511 A 296,296 0 0,1 257.253264683226,605.31244299935622" />
    <path d="M 243.07786674863391,602.129250945585 A 296,296 0 0,1 215.28060339590286,593.69704329417414" />
    <path d="M 201.72570401993346,588.46834162334085 A 296,296 0 0,1 188.44369234463659,582.58083076453931" />
    <path d="M 138.67300587023976,552.74942931827093 A 296,296 0 0,1 127.219587887561,543.81109419537017" />
    <path d="M 95.678466894932171,513.78145063471754 A 296,296 0 0,1 61.112331439919473,467.17441228119367" />
    <path d="M 41.531658376659209,428.27429598006677 A 296,296 0 0,1 36.302956705825864,414.71939660409708" />
    <path d="M 31.74566062326619,400.92426446732088 A 296,296 0 0,1 24.687557000643835,372.74673531677411" />
    <path d="M 22.203753050424837,358.43222043878723 A 296,296 0 0,1 19.356544963268959,300.47596839908437" />
    <path d="M 36.302956705825807,215.280603395903 A 296,296 0 0,1 53.951305752886924,175.46656589950473" />
    <path d="M 86.188905804629883,127.21958788756089 A 296,296 0 0,1 95.678466894932086,116.21854936528257" />
    <path d="M 105.69639276878189,105.69639276878198 A 296,296 0 0,1 116.21854936528246,95.678466894932171" />
    <path d="M 127.21958788756081,86.188905804629968 A 296,296 0 0,1 150.55121102619773,68.884994758446624" />
    <path d="M 201.72570401993323,41.531658376659209 A 296,296 0 0,1 215.28060339590286,36.302956705825864" />
    <path d="M 229.07573553267912,31.74566062326619 A 296,296 0 0,1 285.98692646245007,20.425320905029707" />
    <path d="M 330.30911439015443,3.3758176639861972 A 312,312 0 1,1 315,3" />
  </g>
  <g fill="none" stroke="#000000" stroke-width="2" stroke-linecap="butt">
    <line x1="315" y1="51" x2="315" y2="67" />
    <line x1="315" y1="83" x2="315" y2="115" />
    <line x1="315" y1="131" x2="315" y2="163" />
    <line x1="315" y1="195" x2="315" y2="211" />
    <line x1="315" y1="243" x2="315" y2="291" />
    <line x1="329.52403160091575" y1="19.356544963268959" x2="327.95386602243838" y2="51.317999561834483" />
    <line x1="345.58134778282289" y1="4.5023652782745671" x2="342.44479929227697" y2="36.348276531784848" />
    <line x1="340.876525047004" y1="52.271232158539988" x2="339.30825080173105" y2="68.194187785295156" />
    <line x1="337.73997655645803" y1="84.117143412050325" x2="334.60342806591211" y2="115.96305466556061" />
    <line x1="333.03515382063915" y1="131.88601029231577" x2="331.46687957536619" y2="147.80896591907091" />
    <line x1="329.89860533009323" y1="163.73192154582605" x2="328.33033108482022" y2="179.65487717258122" />
    <line x1="358.43222043878706" y1="22.203753050424837" x2="356.08453284750129" y2="38.030577209861292" />
    <line x1="369.62529016451589" y1="40.380121487095494" x2="360.26095470774175" y2="87.457814946450526" />
    <line x1="354.01806440322565" y1="118.8429439193539" x2="329.04650318516121" y2="244.3834598109674" />
    <line x1="386.92213325136612" y1="27.870749054415" x2="383.03445037291385" y2="43.391249105527663" />
    <line x1="400.92426446732088" y1="31.74566062326619" x2="386.99059995910665" y2="77.678796738412217" />
    <line x1="363.76782577874968" y1="154.23402359698892" x2="359.12327094267829" y2="169.54506896870427" />
    <line x1="420.10963425837264" y1="21.238251662897483" x2="414.71939660409714" y2="36.302956705825864" />
    <line x1="428.27429598006654" y1="41.531658376659152" x2="422.15136106222513" y2="56.313730896839729" />
    <line x1="416.02842614438373" y1="71.0958034170203" x2="409.90549122654227" y2="85.877875937200884" />
    <line x1="403.7825563087008" y1="100.65994845738149" x2="397.6596213908594" y2="115.44202097756207" />
    <line x1="373.16788171949366" y1="174.5703110582844" x2="342.55320713028647" y2="248.48067365918735" />
    <line x1="336.430272212445" y1="263.26274617936792" x2="330.3073372946036" y2="278.0448186995485" />
    <line x1="434.71542616047896" y1="61.882997925435859" x2="427.8745446655945" y2="76.346826615410947" />
    <line x1="446.99108631127933" y1="68.062045982460575" x2="431.9063907328474" y2="96.283526441607961" />
    <line x1="416.82169515441547" y1="124.50500690075532" x2="379.10995620833569" y2="195.05870804862371" />
    <line x1="467.17441228119361" y1="61.112331439919444" x2="458.94876837410209" y2="74.8359891999238" />
    <line x1="479.44878897380227" y1="68.884994758446624" x2="470.55966524548865" y2="82.188508555287342" />
    <line x1="461.67054151717497" y1="95.49202235212806" x2="443.89229406054767" y2="122.0990499458095" />
    <line x1="426.11404660392043" y1="148.70607753949096" x2="408.33579914729319" y2="175.3131051331724" />
    <line x1="390.55755169066589" y1="201.92013272685387" x2="381.66842796235227" y2="215.22364652369458" />
    <line x1="372.77930423403865" y1="228.5271603205353" x2="363.89018050572497" y2="241.83067411737602" />
    <line x1="491.32699412976024" y1="77.2505706817291" x2="472.26461638600244" y2="102.95321168910974" />
    <line x1="512.93070465905737" y1="73.820738550826064" x2="472.3295344725841" y2="123.29340756604123" />
    <line x1="441.87865683272912" y1="160.3979093274526" x2="411.42777919287414" y2="197.502411088864" />
    <line x1="513.78145063471743" y1="95.678466894932114" x2="492.29156407961284" y2="119.38890290629081" />
    <line x1="535.61731573020279" y1="94.382684269797153" x2="512.98989873223331" y2="117.01010126776669" />
    <line x1="501.67619023324852" y1="128.32380976675145" x2="445.10764773832477" y2="184.89235226167526" />
    <line x1="422.48023074035518" y1="207.51976925964476" x2="411.16652224137044" y2="218.83347775862953" />
    <line x1="399.85281374238571" y1="230.14718625761429" x2="388.53910524340097" y2="241.46089475659903" />
    <line x1="546.1767511107472" y1="105.47360608773028" x2="534.32153310506783" y2="116.21854936528257" />
    <line x1="543.81109419537017" y1="127.21958788756095" x2="531.44292694156638" y2="137.36988043417927" />
    <line x1="519.07475968776259" y1="147.52017298079758" x2="506.7065924339588" y2="157.67046552741593" />
    <line x1="444.86575616493985" y1="208.42192826050757" x2="432.497588911136" y2="218.57222080712589" />
    <line x1="539.89810881458061" y1="148.20419474211863" x2="527.04678831089018" y2="157.73538361399756" />
    <line x1="561.11500524155338" y1="150.55121102619773" x2="547.8114914447126" y2="159.44033475451136" />
    <line x1="507.9009500541905" y1="186.10770593945227" x2="481.29392246050907" y2="203.88595339607954" />
    <line x1="454.68689486682763" y1="221.66420085270681" x2="441.38338106998685" y2="230.55332458102043" />
    <line x1="388.169325882624" y1="266.10981949427503" x2="374.86581208578326" y2="274.99894322258865" />
    <line x1="582.61132632008491" y1="154.59994381171484" x2="568.88766856008056" y2="162.82558771880639" />
    <line x1="555.1640108000762" y1="171.05123162589794" x2="541.44035304007184" y2="179.27687553298949" />
    <line x1="561.93795401753937" y1="183.00891368872061" x2="519.60573332881836" y2="205.63595705636851" />
    <line x1="491.384252869671" y1="220.72065263480044" x2="463.16277241052364" y2="235.80534821323238" />
    <line x1="582.5808307645392" y1="188.44369234463647" x2="568.1170020745642" y2="195.284573839521" />
    <line x1="603.25041414352154" y1="195.60276910209197" x2="588.46834162334085" y2="201.7257040199334" />
    <line x1="499.77590650225738" y1="238.46331352698203" x2="484.99383398207675" y2="244.58624844482347" />
    <line x1="470.21176146189617" y1="250.7091833626649" x2="455.4296889417156" y2="256.83211828050634" />
    <line x1="425.86554390135439" y1="269.0779881161892" x2="411.08347138117381" y2="275.20092303403067" />
    <line x1="593.69704329417414" y1="215.28060339590286" x2="563.56763320831749" y2="226.06107870445391" />
    <line x1="613.56538474844911" y1="224.43118069660775" x2="598.25433937673392" y2="229.07573553267915" />
    <line x1="582.94329400501852" y1="233.72029036875057" x2="567.63224863330311" y2="238.36484520482196" />
    <line x1="537.01015788987252" y1="247.65395487696475" x2="521.69911251815711" y2="252.29850971303614" />
    <line x1="475.76597640301111" y1="266.23217422125032" x2="445.14388565958041" y2="275.5212838933931" />
    <line x1="602.129250945585" y1="243.07786674863388" x2="586.60875089447234" y2="246.96554962708609" />
    <line x1="605.31244299935622" y1="257.253264683226" x2="573.9273140264529" y2="263.4961549877421" />
    <line x1="558.23474954000108" y1="266.61760014000015" x2="542.54218505354947" y2="269.7390452922582" />
    <line x1="448.38679813483935" y1="288.46771620580654" x2="417.001669161936" y2="294.71060651032263" />
    <line x1="607.79624694957511" y1="271.56777956121294" x2="576.1425986307022" y2="276.26315474378453" />
    <line x1="625.49763472172549" y1="284.41865221717705" x2="609.57467909497018" y2="285.98692646245" />
    <line x1="561.80581221470482" y1="290.69174919826895" x2="545.88285658794962" y2="292.26002344354191" />
    <line x1="529.95990096119453" y1="293.82829768881487" x2="498.11398970768425" y2="296.96484617936085" />
    <line x1="466.26807845417392" y1="300.10139466990677" x2="450.34512282741878" y2="301.66966891517973" />
    <line x1="626.62418233601375" y1="299.69088560984557" x2="610.643455036731" y2="300.47596839908425" />
    <line x1="611" y1="315" x2="579" y2="315" />
    <line x1="435" y1="315" x2="419" y2="315" />
    <line x1="403" y1="315" x2="387" y2="315" />
    <line x1="371" y1="315" x2="355" y2="315" />
    <line x1="610.643455036731" y1="329.52403160091575" x2="594.66272773744822" y2="328.73894881167706" />
    <line x1="561.80581221470482" y1="339.30825080173105" x2="514.03694533443945" y2="334.60342806591211" />
    <line x1="498.11398970768425" y1="333.03515382063915" x2="450.34512282741878" y2="328.33033108482027" />
    <line x1="623.62307110901168" y1="360.77990803007282" x2="591.96942279013865" y2="356.08453284750124" />
    <line x1="589.61987851290451" y1="369.62529016451589" x2="558.23474954000108" y2="363.38239985999979" />
    <line x1="526.84962056709776" y1="357.1395095554837" x2="495.46449159419438" y2="350.8966192509676" />
    <line x1="464.079362621291" y1="344.65372894645151" x2="448.38679813483935" y2="341.5322837941934" />
    <line x1="617.64975099669778" y1="390.80981612981833" x2="602.129250945585" y2="386.92213325136612" />
    <line x1="586.60875089447234" y1="383.03445037291385" x2="571.08825084335967" y2="379.14676749446164" />
    <line x1="598.25433937673392" y1="400.92426446732077" x2="582.94329400501852" y2="396.27970963124937" />
    <line x1="567.63224863330311" y1="391.635154795178" x2="521.69911251815711" y2="377.7014902869638" />
    <line x1="491.0770217747264" y1="368.412380614821" x2="460.45493103129576" y2="359.12327094267823" />
    <line x1="593.69704329417414" y1="414.71939660409708" x2="563.56763320831749" y2="403.93892129554604" />
    <line x1="588.46834162334085" y1="428.27429598006654" x2="558.90419658297969" y2="416.02842614438367" />
    <line x1="544.12212406279912" y1="409.90549122654227" x2="529.34005154261854" y2="403.7825563087008" />
    <line x1="514.557979022438" y1="397.6596213908594" x2="499.77590650225738" y2="391.53668647301794" />
    <line x1="440.64761642153496" y1="367.0449468016522" x2="425.86554390135439" y2="360.9220118838108" />
    <line x1="381.51932634081265" y1="342.55320713028647" x2="366.73725382063208" y2="336.430272212445" />
    <line x1="597.04465945451443" y1="448.397189150248" x2="582.58083076453931" y2="441.55630765536341" />
    <line x1="547.82721378796577" y1="439.44873852206342" x2="533.71647355839207" y2="431.9063907328474" />
    <line x1="519.60573332881836" y1="424.36404294363149" x2="505.49499309924465" y2="416.82169515441552" />
    <line x1="491.384252869671" y1="409.27934736519956" x2="477.27351264009735" y2="401.73699957598359" />
    <line x1="463.16277241052364" y1="394.19465178676762" x2="434.94129195137629" y2="379.10995620833569" />
    <line x1="568.88766856008056" y1="467.17441228119361" x2="541.44035304007184" y2="450.72312446701051" />
    <line x1="574.41851903839415" y1="488.33791270211577" x2="534.50797764787194" y2="461.67054151717491" />
    <line x1="507.90095005419056" y1="443.89229406054767" x2="481.29392246050907" y2="426.11404660392037" />
    <line x1="467.9904086636684" y1="417.22492287560675" x2="441.38338106998691" y2="399.44667541897951" />
    <line x1="428.07986727314619" y1="390.55755169066583" x2="401.47283967946476" y2="372.77930423403859" />
    <line x1="519.07475968776259" y1="482.47982701920239" x2="481.97025792635122" y2="452.02894937934741" />
    <line x1="469.60209067254743" y1="441.87865683272906" x2="432.49758891113606" y2="411.42777919287408" />
    <line x1="534.32153310506783" y1="513.78145063471743" x2="522.46631509938857" y2="503.03650735716519" />
    <line x1="512.98989873223331" y1="512.98989873223331" x2="490.36248173426384" y2="490.36248173426378" />
    <line x1="479.04877323527904" y1="479.048773235279" x2="467.73506473629425" y2="467.73506473629425" />
    <line x1="456.42135623730951" y1="456.42135623730951" x2="445.10764773832477" y2="445.10764773832477" />
    <line x1="388.53910524340097" y1="388.53910524340097" x2="365.91168824543144" y2="365.91168824543144" />
    <line x1="354.59797974644664" y1="354.59797974644664" x2="331.97056274847716" y2="331.97056274847716" />
    <line x1="524.52639391226978" y1="546.1767511107472" x2="503.03650735716519" y2="522.46631509938845" />
    <line x1="502.78041211243908" y1="543.81109419537017" x2="492.63011956582073" y2="531.44292694156638" />
    <line x1="482.47982701920239" y1="519.07475968776259" x2="472.3295344725841" y2="506.7065924339588" />
    <line x1="452.02894937934741" y1="481.97025792635122" x2="421.57807173949243" y2="444.86575616493985" />
    <line x1="411.42777919287414" y1="432.497588911136" x2="401.2774866462558" y2="420.12942165733222" />
    <line x1="491.32699412976029" y1="552.74942931827081" x2="472.26461638600244" y2="527.04678831089018" />
    <line x1="488.33791270211589" y1="574.41851903839415" x2="479.44878897380227" y2="561.11500524155349" />
    <line x1="461.67054151717497" y1="534.50797764787194" x2="452.78141778886135" y2="521.20446385103128" />
    <line x1="426.11404660392043" y1="481.29392246050907" x2="417.22492287560681" y2="467.99040866366835" />
    <line x1="408.33579914729319" y1="454.68689486682763" x2="399.44667541897957" y2="441.38338106998691" />
    <line x1="390.55755169066589" y1="428.07986727314619" x2="381.66842796235227" y2="414.77635347630542" />
    <line x1="372.77930423403865" y1="401.4728396794647" x2="355.00105677741135" y2="374.86581208578326" />
    <line x1="475.40005618828519" y1="582.6113263200848" x2="467.17441228119367" y2="568.88766856008056" />
    <line x1="454.53343410049536" y1="576.04869424711308" x2="439.44873852206342" y2="547.82721378796577" />
    <line x1="424.36404294363149" y1="519.60573332881836" x2="409.27934736519956" y2="491.384252869671" />
    <line x1="401.73699957598359" y1="477.27351264009729" x2="394.19465178676762" y2="463.16277241052364" />
    <line x1="386.65230399755166" y1="449.05203218094994" x2="379.10995620833569" y2="434.94129195137629" />
    <line x1="448.397189150248" y1="597.04465945451432" x2="427.87454466559444" y2="553.65317338458908" />
    <line x1="422.15136106222519" y1="573.68626910316027" x2="416.02842614438373" y2="558.90419658297969" />
    <line x1="409.90549122654227" y1="544.12212406279912" x2="397.6596213908594" y2="514.557979022438" />
    <line x1="385.41375155517653" y1="484.99383398207675" x2="379.29081663733507" y2="470.21176146189617" />
    <line x1="367.0449468016522" y1="440.64761642153496" x2="348.67614204812793" y2="396.30139886099323" />
    <line x1="342.55320713028647" y1="381.51932634081265" x2="336.43027221244506" y2="366.73725382063208" />
    <line x1="414.7193966040972" y1="593.69704329417414" x2="409.3291589498217" y2="578.63233825124576" />
    <line x1="396.27970963124949" y1="582.94329400501852" x2="373.05693545089247" y2="506.38806714644176" />
    <line x1="363.76782577874968" y1="475.76597640301111" x2="354.4787161066069" y2="445.14388565958041" />
    <line x1="372.74673531677405" y1="605.31244299935622" x2="369.625290164516" y2="589.61987851290451" />
    <line x1="366.50384501225795" y1="573.9273140264529" x2="363.38239985999991" y2="558.23474954000108" />
    <line x1="360.26095470774186" y1="542.54218505354947" x2="357.13950955548376" y2="526.84962056709776" />
    <line x1="354.01806440322571" y1="511.1570560806461" x2="344.65372894645157" y2="464.079362621291" />
    <line x1="341.53228379419352" y1="448.38679813483935" x2="338.41083864193541" y2="432.69423364838764" />
    <line x1="332.16794833741932" y1="401.30910467548426" x2="329.04650318516127" y2="385.61654018903261" />
    <line x1="360.77990803007287" y1="623.62307110901168" x2="353.73684525621553" y2="576.1425986307022" />
    <line x1="340.87652504700407" y1="577.72876784146" x2="339.30825080173111" y2="561.80581221470482" />
    <line x1="331.46687957536619" y1="482.19103408092906" x2="328.33033108482027" y2="450.34512282741878" />
    <line x1="328.738948811677" y1="594.66272773744822" x2="327.95386602243832" y2="578.68200043816546" />
    <line x1="315.00000000000006" y1="611" x2="315.00000000000006" y2="595" />
    <line x1="315.00000000000006" y1="563" x2="315" y2="483" />
    <line x1="315" y1="387" x2="315" y2="371" />
    <line x1="284.41865221717711" y1="625.49763472172549" x2="285.98692646245007" y2="609.57467909497029" />
    <line x1="289.123474952996" y1="577.72876784146" x2="293.82829768881493" y2="529.95990096119453" />
    <line x1="295.39657193408789" y1="514.03694533443945" x2="296.96484617936085" y2="498.11398970768425" />
    <line x1="298.53312042463381" y1="482.19103408092906" x2="301.66966891517978" y2="450.34512282741878" />
    <line x1="271.567779561213" y1="607.79624694957511" x2="273.91546715249876" y2="591.96942279013865" />
    <line x1="260.37470983548405" y1="589.61987851290451" x2="266.61760014000015" y2="558.23474954000108" />
    <line x1="272.86049044451624" y1="526.84962056709776" x2="282.22482590129044" y2="479.77192710774273" />
    <line x1="297.83205166258068" y1="401.30910467548426" x2="300.95349681483879" y2="385.61654018903261" />
    <line x1="229.07573553267923" y1="598.25433937673392" x2="238.36484520482202" y2="567.63224863330311" />
    <line x1="213.97157385561633" y1="558.90419658297969" x2="220.09450877345776" y2="544.12212406279912" />
    <line x1="232.34037860914063" y1="514.557979022438" x2="238.46331352698206" y2="499.77590650225738" />
    <line x1="244.5862484448235" y1="484.99383398207681" x2="256.83211828050639" y2="455.4296889417156" />
    <line x1="262.9550531983478" y1="440.647616421535" x2="275.20092303403067" y2="411.08347138117381" />
    <line x1="181.60281084975208" y1="597.04465945451443" x2="188.44369234463659" y2="582.58083076453931" />
    <line x1="175.4665658995047" y1="576.04869424711308" x2="190.55126147793663" y2="547.82721378796577" />
    <line x1="198.0936092671526" y1="533.71647355839207" x2="205.63595705636857" y2="519.60573332881836" />
    <line x1="220.72065263480047" y1="491.384252869671" x2="228.26300042401644" y2="477.27351264009735" />
    <line x1="154.59994381171487" y1="582.61132632008491" x2="162.82558771880642" y2="568.88766856008056" />
    <line x1="141.6620872978842" y1="574.41851903839415" x2="159.44033475451144" y2="547.81149144471271" />
    <line x1="168.32945848282509" y1="534.50797764787194" x2="177.21858221113871" y2="521.20446385103128" />
    <line x1="186.10770593945236" y1="507.90095005419056" x2="194.99682966776598" y2="494.59743625734984" />
    <line x1="212.77507712439325" y1="467.9904086636684" x2="239.44244830933414" y2="428.07986727314619" />
    <line x1="127.219587887561" y1="543.81109419537017" x2="147.52017298079764" y2="519.07475968776259" />
    <line x1="157.67046552741599" y1="506.7065924339588" x2="167.8207580740343" y2="494.338425180155" />
    <line x1="177.97105062065262" y1="481.97025792635122" x2="208.4219282605076" y2="444.86575616493985" />
    <line x1="116.21854936528254" y1="534.32153310506783" x2="126.96349264283484" y2="522.46631509938857" />
    <line x1="105.69639276878195" y1="524.30360723121817" x2="117.01010126776671" y2="512.98989873223331" />
    <line x1="128.32380976675148" y1="501.67619023324858" x2="139.63751826573622" y2="490.36248173426384" />
    <line x1="150.95122676472099" y1="479.0487732352791" x2="173.57864376269052" y2="456.42135623730951" />
    <line x1="196.20606076066002" y1="433.79393923934003" x2="207.51976925964479" y2="422.48023074035524" />
    <line x1="218.83347775862956" y1="411.1665222413705" x2="252.77460325558383" y2="377.22539674441617" />
    <line x1="286.7157287525381" y1="343.2842712474619" x2="298.02943725152284" y2="331.97056274847716" />
    <line x1="107.53368490061152" y1="503.03650735716519" x2="119.38890290629087" y2="492.29156407961295" />
    <line x1="123.29340756604131" y1="472.32953447258421" x2="135.6615748198451" y2="462.17924192596587" />
    <line x1="172.76607658125644" y1="431.72836428611083" x2="185.13424383506023" y2="421.57807173949254" />
    <line x1="197.50241108886402" y1="411.4277791928742" x2="209.87057834266781" y2="401.27748664625585" />
    <line x1="95.49202235212806" y1="461.67054151717497" x2="108.79553614896878" y2="452.78141778886135" />
    <line x1="122.0990499458095" y1="443.89229406054767" x2="135.40256374265022" y2="435.00317033223405" />
    <line x1="148.70607753949096" y1="426.11404660392043" x2="201.92013272685387" y2="390.55755169066589" />
    <line x1="228.5271603205353" y1="372.77930423403865" x2="241.83067411737602" y2="363.89018050572497" />
    <line x1="61.112331439919473" y1="467.17441228119367" x2="88.559646959928187" y2="450.72312446701051" />
    <line x1="39.840565523313273" y1="462.07578188971132" x2="53.951305752886924" y2="454.53343410049536" />
    <line x1="82.172786212034282" y1="439.44873852206342" x2="110.39426667118164" y2="424.36404294363149" />
    <line x1="152.72648735990271" y1="401.73699957598359" x2="180.94796781905006" y2="386.65230399755166" />
    <line x1="47.419169235460856" y1="441.55630765536364" x2="76.346826615411" y2="427.87454466559456" />
    <line x1="71.095803417020363" y1="416.02842614438384" x2="85.87787593720094" y2="409.90549122654238" />
    <line x1="100.65994845738152" y1="403.782556308701" x2="115.44202097756212" y2="397.65962139085951" />
    <line x1="130.2240934977427" y1="391.53668647301805" x2="159.78823853810386" y2="379.29081663733518" />
    <line x1="174.57031105828446" y1="373.16788171949372" x2="189.35238357846504" y2="367.04494680165226" />
    <line x1="218.91652861882619" y1="354.79907696596939" x2="278.04481869954856" y2="330.3073372946036" />
    <line x1="21.238251662897483" y1="420.10963425837264" x2="66.432366791682512" y2="403.93892129554604" />
    <line x1="31.74566062326619" y1="400.92426446732088" x2="92.98984211012754" y2="382.34604512303531" />
    <line x1="123.61193285355824" y1="373.05693545089247" x2="138.92297822527357" y2="368.41238061482107" />
    <line x1="154.23402359698892" y1="363.76782577874968" x2="169.54506896870427" y2="359.12327094267829" />
    <line x1="43.391249105527663" y1="383.03445037291397" x2="58.911749156640383" y2="379.14676749446176" />
    <line x1="24.687557000643835" y1="372.74673531677411" x2="40.380121487095494" y2="369.625290164516" />
    <line x1="71.765250459998867" y1="363.38239985999991" x2="87.457814946450554" y2="360.26095470774186" />
    <line x1="118.84294391935393" y1="354.01806440322571" x2="150.2280728922573" y2="347.77517409870961" />
    <line x1="197.30576635161236" y1="338.41083864193541" x2="212.99833083806405" y2="335.28939348967737" />
    <line x1="22.203753050424837" y1="358.43222043878723" x2="38.030577209861349" y2="356.08453284750146" />
    <line x1="36.348276531784848" y1="342.44479929227691" x2="52.271232158539988" y2="340.87652504700395" />
    <line x1="84.117143412050325" y1="337.73997655645803" x2="100.04009903880547" y2="336.17170231118507" />
    <line x1="147.80896591907091" y1="331.46687957536614" x2="163.73192154582605" y2="329.89860533009318" />
    <line x1="19" y1="315.00000000000006" x2="51" y2="315.00000000000006" />
    <line x1="115" y1="315.00000000000006" x2="147" y2="315.00000000000006" />
    <line x1="275" y1="315" x2="291" y2="315" />
    <line x1="4.5023652782745671" y1="284.41865221717723" x2="20.425320905029707" y2="285.98692646245024" />
    <line x1="36.348276531784848" y1="287.5552007077232" x2="84.117143412050325" y2="292.26002344354208" />
    <line x1="100.04009903880547" y1="293.82829768881504" x2="131.88601029231577" y2="296.96484617936096" />
    <line x1="147.80896591907091" y1="298.53312042463392" x2="179.65487717258122" y2="301.66966891517984" />
    <line x1="22.203753050424837" y1="271.56777956121289" x2="53.857401369297861" y2="276.26315474378447" />
    <line x1="8.99499251419212" y1="254.13181953096796" x2="40.380121487095494" y2="260.37470983548405" />
    <line x1="56.072685973547152" y1="263.4961549877421" x2="118.8429439193539" y2="275.98193559677435" />
    <line x1="134.53550840580562" y1="279.1033807490324" x2="165.920637378709" y2="285.34627105354849" />
    <line x1="228.69089532451574" y1="297.83205166258074" x2="244.3834598109674" y2="300.95349681483879" />
    <line x1="27.870749054415" y1="243.07786674863394" x2="58.911749156640383" y2="250.85323250553836" />
    <line x1="16.434615251550838" y1="224.43118069660784" x2="31.745660623266133" y2="229.07573553267923" />
    <line x1="92.98984211012754" y1="247.6539548769648" x2="108.30088748184286" y2="252.2985097130362" />
    <line x1="154.23402359698889" y1="266.23217422125038" x2="169.54506896870424" y2="270.87672905732177" />
    <line x1="51.367661748754131" y1="220.67084105017852" x2="66.432366791682483" y2="226.06107870445402" />
    <line x1="71.095803417020335" y1="213.97157385561624" x2="100.65994845738149" y2="226.21744369129914" />
    <line x1="115.4420209775621" y1="232.34037860914054" x2="159.78823853810386" y2="250.70918336266487" />
    <line x1="189.35238357846504" y1="262.95505319834774" x2="218.91652861882619" y2="275.20092303403067" />
    <line x1="233.69860113900677" y1="281.32385795187207" x2="278.04481869954856" y2="299.6926627053964" />
    <line x1="61.882997925435859" y1="195.284573839521" x2="76.346826615410947" y2="202.1254553344055" />
    <line x1="53.951305752886924" y1="175.4665658995047" x2="68.062045982460575" y2="183.00891368872067" />
    <line x1="82.172786212034254" y1="190.55126147793663" x2="96.283526441607961" y2="198.0936092671526" />
    <line x1="47.388673679915087" y1="154.59994381171487" x2="74.835989199923773" y2="171.05123162589797" />
    <line x1="55.581480961605791" y1="141.66208729788423" x2="82.188508555287285" y2="159.4403347545115" />
    <line x1="108.79553614896872" y1="177.21858221113874" x2="122.09904994580944" y2="186.10770593945236" />
    <line x1="135.40256374265019" y1="194.996829667766" x2="148.70607753949091" y2="203.88595339607963" />
    <line x1="188.61661893001309" y1="230.55332458102052" x2="201.92013272685381" y2="239.44244830933417" />
    <line x1="77.250570681728988" y1="138.67300587023985" x2="102.95321168910965" y2="157.7353836139977" />
    <line x1="73.820738550826093" y1="117.06929534094257" x2="86.188905804629883" y2="127.21958788756089" />
    <line x1="110.92524031223746" y1="147.52017298079755" x2="148.02974207364883" y2="177.97105062065256" />
    <line x1="160.39790932745262" y1="188.12134316727088" x2="209.87057834266778" y2="228.72251335374421" />
    <line x1="95.678466894932114" y1="116.21854936528257" x2="119.38890290629081" y2="137.70843592038716" />
    <line x1="105.69639276878189" y1="105.69639276878198" x2="117.01010126776666" y2="117.01010126776674" />
    <line x1="196.20606076066" y1="196.20606076066005" x2="207.51976925964476" y2="207.51976925964482" />
    <line x1="218.8334777586295" y1="218.83347775862956" x2="230.14718625761429" y2="230.14718625761432" />
    <line x1="264.08831175456856" y1="264.08831175456862" x2="286.7157287525381" y2="286.7157287525381" />
    <line x1="105.47360608773019" y1="83.823248889252824" x2="126.96349264283478" y2="107.53368490061152" />
    <line x1="137.36988043417915" y1="98.55707305843373" x2="167.82075807403413" y2="135.6615748198451" />
    <line x1="208.42192826050749" y1="185.13424383506023" x2="228.72251335374415" y2="209.87057834266781" />
    <line x1="150.55121102619776" y1="68.884994758446624" x2="168.32945848282503" y2="95.49202235212806" />
    <line x1="177.21858221113865" y1="108.79553614896878" x2="186.1077059394523" y2="122.0990499458095" />
    <line x1="194.99682966776592" y1="135.40256374265022" x2="221.66420085270684" y2="175.3131051331724" />
    <line x1="230.55332458102046" y1="188.61661893001312" x2="257.22069576596135" y2="228.5271603205353" />
    <line x1="162.82558771880633" y1="61.112331439919473" x2="179.27687553298944" y2="88.559646959928187" />
    <line x1="167.92421811028865" y1="39.840565523313273" x2="183.00891368872058" y2="68.06204598246066" />
    <line x1="198.09360926715252" y1="96.283526441607989" x2="213.17830484558445" y2="124.50500690075535" />
    <line x1="181.60281084975185" y1="32.95534054548574" x2="195.28457383952087" y2="61.882997925435916" />
    <line x1="201.72570401993323" y1="41.531658376659209" x2="207.8486389377747" y2="56.313730896839786" />
    <line x1="226.21744369129903" y1="100.65994845738152" x2="232.34037860914049" y2="115.44202097756212" />
    <line x1="238.46331352698192" y1="130.2240934977427" x2="256.83211828050628" y2="174.57031105828446" />
    <line x1="262.95505319834768" y1="189.35238357846504" x2="269.07798811618915" y2="204.13445609864561" />
    <line x1="220.67084105017841" y1="51.367661748754188" x2="226.06107870445391" y2="66.432366791682512" />
    <line x1="229.07573553267912" y1="31.74566062326619" x2="233.72029036875051" y2="47.056705994981542" />
    <line x1="252.29850971303608" y1="108.30088748184289" x2="256.94306454910748" y2="123.61193285355824" />
    <line x1="266.23217422125032" y1="154.23402359698892" x2="275.5212838933931" y2="184.8561143404196" />
    <line x1="246.96554962708603" y1="43.391249105527663" x2="250.85323250553824" y2="58.911749156640383" />
    <line x1="257.25326468322589" y1="24.687557000643835" x2="260.37470983548394" y2="40.380121487095494" />
    <line x1="263.496154987742" y1="56.072685973547209" x2="282.22482590129039" y2="150.2280728922573" />
    <line x1="285.34627105354843" y1="165.920637378709" x2="288.46771620580648" y2="181.61320186516068" />
    <line x1="297.83205166258068" y1="228.69089532451574" x2="300.95349681483873" y2="244.38345981096742" />
    <line x1="273.91546715249854" y1="38.030577209861349" x2="276.2631547437843" y2="53.857401369297861" />
    <line x1="285.98692646245007" y1="20.425320905029707" x2="287.55520070772309" y2="36.348276531784848" />
    <line x1="293.82829768881493" y1="100.04009903880547" x2="300.10139466990682" y2="163.73192154582605" />
  </g>
  <path fill="none" stroke="#ff0000" stroke-width="2" stroke-linecap="square" stroke-linejoin="round" d="M 322.65686329914865,3.0939685667842696 L 322.46053347096534,11.091559116353892 A 304,304 0 0,0 219.64075091873698,26.343433099716833 L 234.69747445788377,71.920785768182611 A 256,256 0 0,1 252.79707394476438,66.671999182196743 L 268.34780545857325,128.75399938664756 A 192,192 0 0,0 250.31714814869378,134.22353948486 L 255.70738580296927,149.28824452778835 A 176,176 0 0,1 272.23548833702552,144.27449943776028 L 276.12317121547773,159.79499948887298 A 160,160 0 0,1 291.52312408714204,156.73175840563505 L 293.8708116784278,172.55858256507156 A 144,144 0 0,1 307.93425489685177,171.17345430645517 L 308.71933768609051,187.15418160573793 A 128,128 0 0,0 277.8435613114288,192.51163702627727 L 287.13267098357159,223.13372776970795 A 96,96 0 0,0 223.13372776970795,342.86732901642841 L 207.82268239799259,347.51188385249981 A 112,112 0 0,0 228.4228292233735,386.05204782632836 L 253.15916373098108,365.75146273309167 A 80,80 0 0,0 291.77722581964304,391.5552268585767 L 296.42178065571443,376.24418148686135 A 64,64 0 0,1 261.78594481263713,350.55649491325454 L 275.08945860947784,341.66737118494092 A 48,48 0 0,0 324.3643354567742,362.07769345935503 L 321.2428903045161,346.38512897290337 A 32,32 0 0,1 302.75413016431713,344.56414504036115 L 305.81559762323786,337.17310878027087" />
  <type>Circular</type>
</svg>