<?xml version="1.0" encoding="utf-8" standalone="no"?>
<!DOCTYPE svg PUBLIC "-//W3C//DTD SVG 1.1//EN" "http://www.w3.org/Graphics/SVG/1.1/DTD/svg11.dtd"[]>
<svg width="477" height="518.41908984795657" version="1.1" xmlns="http://www.w3.org/2000/svg">
  <title>42 by 27 delta maze</title>
  <g fill="none" stroke="#000000" stroke-width="2" stroke-linecap="round" stroke-linejoin="round">
    <line x1="13" y1="2.0000000000000195" x2="233" y2="2.0000000000000195" />
    <line x1="255" y1="2.0000000000000195" x2="475" y2="2.0000000000000195" />
    <line x1="24" y1="21.052558883257667" x2="68" y2="21.052558883257667" />
    <line x1="90" y1="21.052558883257667" x2="156" y2="21.052558883257667" />
    <line x1="200" y1="21.052558883257667" x2="244" y2="21.052558883257667" />
    <line x1="376" y1="21.052558883257667" x2="398" y2="21.052558883257667" />
    <line x1="420" y1="21.052558883257667" x2="464" y2="21.052558883257667" />
    <line x1="57" y1="40.10511776651532" x2="79" y2="40.10511776651532" />
    <line x1="123" y1="40.10511776651532" x2="145" y2="40.10511776651532" />
    <line x1="343" y1="40.10511776651532" x2="365" y2="40.10511776651532" />
    <line x1="387" y1="40.10511776651532" x2="409" y2="40.10511776651532" />
    <line x1="68" y1="59.157676649772966" x2="112" y2="59.157676649772966" />
    <line x1="354" y1="59.157676649772966" x2="376" y2="59.157676649772966" />
    <line x1="420" y1="59.157676649772966" x2="442" y2="59.157676649772966" />
    <line x1="13" y1="78.210235533030612" x2="35" y2="78.210235533030612" />
    <line x1="101" y1="78.210235533030612" x2="123" y2="78.210235533030612" />
    <line x1="167" y1="78.210235533030612" x2="189" y2="78.210235533030612" />
    <line x1="211" y1="78.210235533030612" x2="255" y2="78.210235533030612" />
    <line x1="277" y1="78.210235533030612" x2="299" y2="78.210235533030612" />
    <line x1="409" y1="78.210235533030612" x2="431" y2="78.210235533030612" />
    <line x1="68" y1="97.262794416288273" x2="112" y2="97.262794416288273" />
    <line x1="178" y1="97.262794416288273" x2="200" y2="97.262794416288273" />
    <line x1="288" y1="97.262794416288273" x2="310" y2="97.262794416288273" />
    <line x1="376" y1="97.262794416288273" x2="398" y2="97.262794416288273" />
    <line x1="420" y1="97.262794416288273" x2="442" y2="97.262794416288273" />
    <line x1="79" y1="116.31535329954592" x2="123" y2="116.31535329954592" />
    <line x1="145" y1="116.31535329954592" x2="167" y2="116.31535329954592" />
    <line x1="299" y1="116.31535329954592" x2="343" y2="116.31535329954592" />
    <line x1="365" y1="116.31535329954592" x2="387" y2="116.31535329954592" />
    <line x1="90" y1="135.36791218280357" x2="112" y2="135.36791218280357" />
    <line x1="200" y1="135.36791218280357" x2="222" y2="135.36791218280357" />
    <line x1="288" y1="135.36791218280357" x2="310" y2="135.36791218280357" />
    <line x1="101" y1="154.42047106606123" x2="123" y2="154.42047106606123" />
    <line x1="145" y1="154.42047106606123" x2="211" y2="154.42047106606123" />
    <line x1="277" y1="154.42047106606123" x2="299" y2="154.42047106606123" />
    <line x1="387" y1="154.42047106606123" x2="409" y2="154.42047106606123" />
    <line x1="453" y1="154.42047106606123" x2="475" y2="154.42047106606123" />
    <line x1="46" y1="173.47302994931886" x2="90" y2="173.47302994931886" />
    <line x1="178" y1="173.47302994931886" x2="200" y2="173.47302994931886" />
    <line x1="244" y1="173.47302994931886" x2="266" y2="173.47302994931886" />
    <line x1="288" y1="173.47302994931886" x2="354" y2="173.47302994931886" />
    <line x1="376" y1="173.47302994931886" x2="398" y2="173.47302994931886" />
    <line x1="57" y1="192.52558883257652" x2="79" y2="192.52558883257652" />
    <line x1="123" y1="192.52558883257652" x2="145" y2="192.52558883257652" />
    <line x1="167" y1="192.52558883257652" x2="189" y2="192.52558883257652" />
    <line x1="211" y1="192.52558883257652" x2="233" y2="192.52558883257652" />
    <line x1="255" y1="192.52558883257652" x2="299" y2="192.52558883257652" />
    <line x1="90" y1="211.57814771583418" x2="112" y2="211.57814771583418" />
    <line x1="310" y1="211.57814771583418" x2="332" y2="211.57814771583418" />
    <line x1="376" y1="211.57814771583418" x2="420" y2="211.57814771583418" />
    <line x1="442" y1="211.57814771583418" x2="464" y2="211.57814771583418" />
    <line x1="13" y1="230.63070659909181" x2="57" y2="230.63070659909181" />
    <line x1="189" y1="230.63070659909181" x2="277" y2="230.63070659909181" />
    <line x1="365" y1="230.63070659909181" x2="387" y2="230.63070659909181" />
    <line x1="24" y1="249.68326548234947" x2="90" y2="249.68326548234947" />
    <line x1="112" y1="249.68326548234947" x2="134" y2="249.68326548234947" />
    <line x1="156" y1="249.68326548234947" x2="200" y2="249.68326548234947" />
    <line x1="266" y1="249.68326548234947" x2="288" y2="249.68326548234947" />
    <line x1="332" y1="249.68326548234947" x2="376" y2="249.68326548234947" />
    <line x1="442" y1="249.68326548234947" x2="464" y2="249.68326548234947" />
    <line x1="123" y1="268.73582436560713" x2="145" y2="268.73582436560713" />
    <line x1="167" y1="268.73582436560713" x2="211" y2="268.73582436560713" />
    <line x1="277" y1="268.73582436560713" x2="299" y2="268.73582436560713" />
    <line x1="46" y1="287.78838324886476" x2="68" y2="287.78838324886476" />
    <line x1="90" y1="287.78838324886476" x2="134" y2="287.78838324886476" />
    <line x1="156" y1="287.78838324886476" x2="178" y2="287.78838324886476" />
    <line x1="222" y1="287.78838324886476" x2="244" y2="287.78838324886476" />
    <line x1="266" y1="287.78838324886476" x2="288" y2="287.78838324886476" />
    <line x1="376" y1="287.78838324886476" x2="420" y2="287.78838324886476" />
    <line x1="35" y1="306.84094213212239" x2="79" y2="306.84094213212239" />
    <line x1="101" y1="306.84094213212239" x2="123" y2="306.84094213212239" />
    <line x1="167" y1="306.84094213212239" x2="189" y2="306.84094213212239" />
    <line x1="211" y1="306.84094213212239" x2="255" y2="306.84094213212239" />
    <line x1="365" y1="306.84094213212239" x2="409" y2="306.84094213212239" />
    <line x1="431" y1="306.84094213212239" x2="453" y2="306.84094213212239" />
    <line x1="24" y1="325.89350101538008" x2="68" y2="325.89350101538008" />
    <line x1="112" y1="325.89350101538008" x2="134" y2="325.89350101538008" />
    <line x1="178" y1="325.89350101538008" x2="244" y2="325.89350101538008" />
    <line x1="266" y1="325.89350101538008" x2="288" y2="325.89350101538008" />
    <line x1="354" y1="325.89350101538008" x2="376" y2="325.89350101538008" />
    <line x1="35" y1="344.94605989863771" x2="57" y2="344.94605989863771" />
    <line x1="79" y1="344.94605989863771" x2="145" y2="344.94605989863771" />
    <line x1="167" y1="344.94605989863771" x2="189" y2="344.94605989863771" />
    <line x1="211" y1="344.94605989863771" x2="233" y2="344.94605989863771" />
    <line x1="321" y1="344.94605989863771" x2="343" y2="344.94605989863771" />
    <line x1="409" y1="344.94605989863771" x2="453" y2="344.94605989863771" />
    <line x1="24" y1="363.99861878189535" x2="46" y2="363.99861878189535" />
    <line x1="200" y1="363.99861878189535" x2="222" y2="363.99861878189535" />
    <line x1="310" y1="363.99861878189535" x2="354" y2="363.99861878189535" />
    <line x1="420" y1="363.99861878189535" x2="442" y2="363.99861878189535" />
    <line x1="79" y1="383.05117766515303" x2="101" y2="383.05117766515303" />
    <line x1="167" y1="383.05117766515303" x2="189" y2="383.05117766515303" />
    <line x1="255" y1="383.05117766515303" x2="277" y2="383.05117766515303" />
    <line x1="365" y1="383.05117766515303" x2="387" y2="383.05117766515303" />
    <line x1="409" y1="383.05117766515303" x2="453" y2="383.05117766515303" />
    <line x1="24" y1="402.10373654841067" x2="68" y2="402.10373654841067" />
    <line x1="134" y1="402.10373654841067" x2="156" y2="402.10373654841067" />
    <line x1="178" y1="402.10373654841067" x2="200" y2="402.10373654841067" />
    <line x1="222" y1="402.10373654841067" x2="244" y2="402.10373654841067" />
    <line x1="266" y1="402.10373654841067" x2="288" y2="402.10373654841067" />
    <line x1="332" y1="402.10373654841067" x2="354" y2="402.10373654841067" />
    <line x1="420" y1="402.10373654841067" x2="442" y2="402.10373654841067" />
    <line x1="35" y1="421.1562954316683" x2="57" y2="421.1562954316683" />
    <line x1="145" y1="421.1562954316683" x2="189" y2="421.1562954316683" />
    <line x1="211" y1="421.1562954316683" x2="255" y2="421.1562954316683" />
    <line x1="277" y1="421.1562954316683" x2="299" y2="421.1562954316683" />
    <line x1="365" y1="421.1562954316683" x2="409" y2="421.1562954316683" />
    <line x1="24" y1="440.208854314926" x2="46" y2="440.208854314926" />
    <line x1="68" y1="440.208854314926" x2="90" y2="440.208854314926" />
    <line x1="134" y1="440.208854314926" x2="156" y2="440.208854314926" />
    <line x1="244" y1="440.208854314926" x2="288" y2="440.208854314926" />
    <line x1="332" y1="440.208854314926" x2="354" y2="440.208854314926" />
    <line x1="398" y1="440.208854314926" x2="442" y2="440.208854314926" />
    <line x1="13" y1="459.26141319818362" x2="35" y2="459.26141319818362" />
    <line x1="57" y1="459.26141319818362" x2="79" y2="459.26141319818362" />
    <line x1="145" y1="459.26141319818362" x2="167" y2="459.26141319818362" />
    <line x1="255" y1="459.26141319818362" x2="277" y2="459.26141319818362" />
    <line x1="365" y1="459.26141319818362" x2="387" y2="459.26141319818362" />
    <line x1="453" y1="459.26141319818362" x2="475" y2="459.26141319818362" />
    <line x1="46" y1="478.31397208144125" x2="68" y2="478.31397208144125" />
    <line x1="90" y1="478.31397208144125" x2="112" y2="478.31397208144125" />
    <line x1="134" y1="478.31397208144125" x2="156" y2="478.31397208144125" />
    <line x1="200" y1="478.31397208144125" x2="222" y2="478.31397208144125" />
    <line x1="332" y1="478.31397208144125" x2="376" y2="478.31397208144125" />
    <line x1="420" y1="478.31397208144125" x2="464" y2="478.31397208144125" />
    <line x1="79" y1="497.36653096469888" x2="123" y2="497.36653096469888" />
    <line x1="167" y1="497.36653096469888" x2="189" y2="497.36653096469888" />
    <line x1="211" y1="497.36653096469888" x2="255" y2="497.36653096469888" />
    <line x1="277" y1="497.36653096469888" x2="299" y2="497.36653096469888" />
    <line x1="343" y1="497.36653096469888" x2="365" y2="497.36653096469888" />
    <line x1="409" y1="497.36653096469888" x2="453" y2="497.36653096469888" />
    <line x1="2" y1="516.41908984795657" x2="222" y2="516.41908984795657" />
    <line x1="244" y1="516.41908984795657" x2="464" y2="516.41908984795657" />
    <polyline points="13,2.0000000000000195 2,21.052558883257667 13,40.10511776651532 2,59.157676649772966" />
    <line x1="2" y1="59.157676649772974" x2="13" y2="78.210235533030627" />
    <line x1="13" y1="78.210235533030612" x2="2" y2="97.262794416288273" />
    <polyline points="2,97.262794416288258 13,116.31535329954592 2,135.36791218280357 13,154.4204710660612" />
    <line x1="13" y1="154.42047106606123" x2="2" y2="173.47302994931886" />
    <polyline points="2,173.47302994931889 13,192.52558883257652 2,211.57814771583415" />
    <line x1="2" y1="211.57814771583418" x2="13" y2="230.63070659909181" />
    <polyline points="13,230.63070659909184 2,249.68326548234947 13,268.73582436560713" />
    <polyline points="13,268.73582436560707 2,287.78838324886476 13,306.84094213212245" />
    <line x1="13" y1="306.84094213212239" x2="2" y2="325.89350101538008" />
    <polyline points="2,325.89350101538 13,344.94605989863771 2,363.9986187818954" />
    <line x1="2" y1="363.99861878189535" x2="13" y2="383.05117766515303" />
    <polyline points="13,383.051177665153 2,402.10373654841067 13,421.15629543166835" />
    <line x1="13" y1="421.1562954316683" x2="2" y2="440.208854314926" />
    <polyline points="2,440.20885431492593 13,459.26141319818362 2,478.31397208144131" />
    <line x1="2" y1="478.31397208144125" x2="13" y2="497.36653096469894" />
    <line x1="13" y1="497.36653096469888" x2="2" y2="516.41908984795657" />
    <line x1="13" y1="78.210235533030612" x2="24" y2="97.262794416288273" />
    <line x1="24" y1="135.36791218280357" x2="13" y2="154.4204710660612" />
    <line x1="13" y1="154.42047106606123" x2="24" y2="173.47302994931886" />
    <line x1="13" y1="268.73582436560707" x2="24" y2="287.78838324886476" />
    <line x1="13" y1="421.1562954316683" x2="24" y2="440.208854314926" />
    <polyline points="24,21.052558883257667 35,40.10511776651532 24,59.157676649772966" />
    <line x1="35" y1="192.52558883257652" x2="24" y2="211.57814771583415" />
    <line x1="24" y1="211.57814771583418" x2="35" y2="230.63070659909181" />
    <line x1="35" y1="306.84094213212239" x2="24" y2="325.89350101538008" />
    <line x1="24" y1="325.89350101538" x2="35" y2="344.94605989863771" />
    <line x1="24" y1="363.99861878189535" x2="35" y2="383.05117766515303" />
    <line x1="24" y1="478.31397208144125" x2="35" y2="497.36653096469894" />
    <line x1="35" y1="497.36653096469888" x2="24" y2="516.41908984795657" />
    <line x1="35" y1="78.210235533030612" x2="46" y2="97.262794416288273" />
    <line x1="35" y1="116.31535329954592" x2="46" y2="135.36791218280357" />
    <line x1="35" y1="154.42047106606123" x2="46" y2="173.47302994931886" />
    <polyline points="46,173.47302994931889 35,192.52558883257652 46,211.57814771583415" />
    <line x1="35" y1="268.73582436560707" x2="46" y2="287.78838324886476" />
    <line x1="35" y1="459.26141319818362" x2="46" y2="478.31397208144131" />
    <polyline points="46,21.052558883257667 57,40.10511776651532 46,59.157676649772966" />
    <line x1="46" y1="59.157676649772974" x2="57" y2="78.210235533030627" />
    <line x1="46" y1="135.36791218280357" x2="57" y2="154.4204710660612" />
    <line x1="46" y1="173.47302994931889" x2="57" y2="192.52558883257652" />
    <line x1="57" y1="344.94605989863771" x2="46" y2="363.9986187818954" />
    <line x1="57" y1="383.051177665153" x2="46" y2="402.10373654841067" />
    <line x1="68" y1="97.262794416288258" x2="57" y2="116.31535329954592" />
    <line x1="68" y1="135.36791218280357" x2="57" y2="154.4204710660612" />
    <line x1="57" y1="192.52558883257652" x2="68" y2="211.57814771583415" />
    <line x1="68" y1="249.68326548234947" x2="57" y2="268.73582436560713" />
    <line x1="57" y1="344.94605989863771" x2="68" y2="363.9986187818954" />
    <line x1="68" y1="363.99861878189535" x2="57" y2="383.05117766515303" />
    <line x1="68" y1="402.10373654841067" x2="57" y2="421.15629543166835" />
    <line x1="57" y1="421.1562954316683" x2="68" y2="440.208854314926" />
    <line x1="68" y1="440.20885431492593" x2="57" y2="459.26141319818362" />
    <line x1="68" y1="478.31397208144125" x2="57" y2="497.36653096469894" />
    <line x1="68" y1="59.157676649772974" x2="79" y2="78.210235533030627" />
    <line x1="79" y1="116.31535329954592" x2="68" y2="135.36791218280357" />
    <polyline points="79,268.73582436560707 68,287.78838324886476 79,306.84094213212245" />
    <line x1="68" y1="325.89350101538" x2="79" y2="344.94605989863771" />
    <polyline points="79,383.051177665153 68,402.10373654841067 79,421.15629543166835" />
    <line x1="79" y1="459.26141319818362" x2="68" y2="478.31397208144131" />
    <line x1="68" y1="478.31397208144125" x2="79" y2="497.36653096469894" />
    <line x1="90" y1="21.052558883257667" x2="79" y2="40.10511776651532" />
    <line x1="90" y1="135.36791218280357" x2="79" y2="154.4204710660612" />
    <line x1="79" y1="192.52558883257652" x2="90" y2="211.57814771583415" />
    <line x1="90" y1="211.57814771583418" x2="79" y2="230.63070659909181" />
    <line x1="79" y1="230.63070659909184" x2="90" y2="249.68326548234947" />
    <line x1="79" y1="306.84094213212239" x2="90" y2="325.89350101538008" />
    <line x1="90" y1="402.10373654841067" x2="79" y2="421.15629543166835" />
    <line x1="101" y1="154.42047106606123" x2="90" y2="173.47302994931886" />
    <line x1="90" y1="173.47302994931889" x2="101" y2="192.52558883257652" />
    <line x1="90" y1="249.68326548234947" x2="101" y2="268.73582436560713" />
    <line x1="90" y1="287.78838324886476" x2="101" y2="306.84094213212245" />
    <line x1="90" y1="363.99861878189535" x2="101" y2="383.05117766515303" />
    <line x1="101" y1="421.1562954316683" x2="90" y2="440.208854314926" />
    <line x1="101" y1="40.10511776651532" x2="112" y2="59.157676649772966" />
    <line x1="101" y1="78.210235533030612" x2="112" y2="97.262794416288273" />
    <line x1="101" y1="154.42047106606123" x2="112" y2="173.47302994931886" />
    <line x1="112" y1="211.57814771583418" x2="101" y2="230.63070659909181" />
    <line x1="112" y1="402.10373654841067" x2="101" y2="421.15629543166835" />
    <polyline points="112,440.20885431492593 101,459.26141319818362 112,478.31397208144131" />
    <polyline points="123,2.0000000000000195 112,21.052558883257667 123,40.10511776651532 112,59.157676649772966" />
    <line x1="112" y1="59.157676649772974" x2="123" y2="78.210235533030627" />
    <line x1="123" y1="116.31535329954592" x2="112" y2="135.36791218280357" />
    <line x1="112" y1="249.68326548234947" x2="123" y2="268.73582436560713" />
    <line x1="123" y1="344.94605989863771" x2="112" y2="363.9986187818954" />
    <line x1="123" y1="421.1562954316683" x2="112" y2="440.208854314926" />
    <line x1="134" y1="59.157676649772974" x2="123" y2="78.210235533030627" />
    <line x1="123" y1="78.210235533030612" x2="134" y2="97.262794416288273" />
    <line x1="123" y1="116.31535329954592" x2="134" y2="135.36791218280357" />
    <line x1="123" y1="192.52558883257652" x2="134" y2="211.57814771583415" />
    <line x1="134" y1="211.57814771583418" x2="123" y2="230.63070659909181" />
    <line x1="134" y1="363.99861878189535" x2="123" y2="383.05117766515303" />
    <line x1="123" y1="383.051177665153" x2="134" y2="402.10373654841067" />
    <line x1="123" y1="421.1562954316683" x2="134" y2="440.208854314926" />
    <line x1="134" y1="440.20885431492593" x2="123" y2="459.26141319818362" />
    <line x1="145" y1="78.210235533030612" x2="134" y2="97.262794416288273" />
    <line x1="134" y1="135.36791218280357" x2="145" y2="154.4204710660612" />
    <line x1="145" y1="154.42047106606123" x2="134" y2="173.47302994931886" />
    <line x1="145" y1="230.63070659909184" x2="134" y2="249.68326548234947" />
    <line x1="134" y1="287.78838324886476" x2="145" y2="306.84094213212245" />
    <line x1="145" y1="306.84094213212239" x2="134" y2="325.89350101538008" />
    <line x1="134" y1="363.99861878189535" x2="145" y2="383.05117766515303" />
    <line x1="134" y1="440.20885431492593" x2="145" y2="459.26141319818362" />
    <line x1="134" y1="478.31397208144125" x2="145" y2="497.36653096469894" />
    <line x1="145" y1="497.36653096469888" x2="134" y2="516.41908984795657" />
    <line x1="156" y1="59.157676649772974" x2="145" y2="78.210235533030627" />
    <line x1="145" y1="116.31535329954592" x2="156" y2="135.36791218280357" />
    <line x1="156" y1="173.47302994931889" x2="145" y2="192.52558883257652" />
    <line x1="145" y1="230.63070659909184" x2="156" y2="249.68326548234947" />
    <line x1="145" y1="306.84094213212239" x2="156" y2="325.89350101538008" />
    <line x1="145" y1="344.94605989863771" x2="156" y2="363.9986187818954" />
    <line x1="156" y1="21.052558883257667" x2="167" y2="40.10511776651532" />
    <line x1="167" y1="78.210235533030612" x2="156" y2="97.262794416288273" />
    <line x1="156" y1="97.262794416288258" x2="167" y2="116.31535329954592" />
    <line x1="156" y1="173.47302994931889" x2="167" y2="192.52558883257652" />
    <line x1="156" y1="211.57814771583418" x2="167" y2="230.63070659909181" />
    <line x1="167" y1="230.63070659909184" x2="156" y2="249.68326548234947" />
    <line x1="167" y1="306.84094213212239" x2="156" y2="325.89350101538008" />
    <line x1="167" y1="383.051177665153" x2="156" y2="402.10373654841067" />
    <line x1="167" y1="421.1562954316683" x2="156" y2="440.208854314926" />
    <polyline points="178,21.052558883257667 167,40.10511776651532 178,59.157676649772966" />
    <line x1="167" y1="154.42047106606123" x2="178" y2="173.47302994931886" />
    <line x1="167" y1="192.52558883257652" x2="178" y2="211.57814771583415" />
    <line x1="189" y1="78.210235533030612" x2="178" y2="97.262794416288273" />
    <line x1="189" y1="116.31535329954592" x2="178" y2="135.36791218280357" />
    <line x1="178" y1="211.57814771583418" x2="189" y2="230.63070659909181" />
    <polyline points="189,230.63070659909184 178,249.68326548234947 189,268.73582436560713" />
    <line x1="189" y1="268.73582436560707" x2="178" y2="287.78838324886476" />
    <line x1="189" y1="344.94605989863771" x2="178" y2="363.9986187818954" />
    <line x1="178" y1="363.99861878189535" x2="189" y2="383.05117766515303" />
    <line x1="178" y1="440.20885431492593" x2="189" y2="459.26141319818362" />
    <line x1="178" y1="478.31397208144125" x2="189" y2="497.36653096469894" />
    <line x1="189" y1="40.10511776651532" x2="200" y2="59.157676649772966" />
    <line x1="200" y1="59.157676649772974" x2="189" y2="78.210235533030627" />
    <line x1="200" y1="97.262794416288258" x2="189" y2="116.31535329954592" />
    <line x1="200" y1="287.78838324886476" x2="189" y2="306.84094213212245" />
    <line x1="200" y1="363.99861878189535" x2="189" y2="383.05117766515303" />
    <line x1="200" y1="402.10373654841067" x2="189" y2="421.15629543166835" />
    <line x1="189" y1="421.1562954316683" x2="200" y2="440.208854314926" />
    <line x1="189" y1="459.26141319818362" x2="200" y2="478.31397208144131" />
    <line x1="189" y1="497.36653096469888" x2="200" y2="516.41908984795657" />
    <line x1="211" y1="40.10511776651532" x2="200" y2="59.157676649772966" />
    <line x1="211" y1="78.210235533030612" x2="200" y2="97.262794416288273" />
    <line x1="211" y1="116.31535329954592" x2="200" y2="135.36791218280357" />
    <line x1="211" y1="192.52558883257652" x2="200" y2="211.57814771583415" />
    <line x1="211" y1="268.73582436560707" x2="200" y2="287.78838324886476" />
    <line x1="211" y1="383.051177665153" x2="200" y2="402.10373654841067" />
    <line x1="200" y1="440.20885431492593" x2="211" y2="459.26141319818362" />
    <line x1="200" y1="478.31397208144125" x2="211" y2="497.36653096469894" />
    <line x1="222" y1="59.157676649772974" x2="211" y2="78.210235533030627" />
    <line x1="222" y1="97.262794416288258" x2="211" y2="116.31535329954592" />
    <line x1="222" y1="135.36791218280357" x2="211" y2="154.4204710660612" />
    <line x1="211" y1="154.42047106606123" x2="222" y2="173.47302994931886" />
    <line x1="222" y1="211.57814771583418" x2="211" y2="230.63070659909181" />
    <line x1="222" y1="249.68326548234947" x2="211" y2="268.73582436560713" />
    <line x1="211" y1="421.1562954316683" x2="222" y2="440.208854314926" />
    <line x1="211" y1="459.26141319818362" x2="222" y2="478.31397208144131" />
    <polyline points="222,21.052558883257667 233,40.10511776651532 222,59.157676649772966" />
    <line x1="233" y1="116.31535329954592" x2="222" y2="135.36791218280357" />
    <line x1="233" y1="154.42047106606123" x2="222" y2="173.47302994931886" />
    <line x1="222" y1="249.68326548234947" x2="233" y2="268.73582436560713" />
    <line x1="233" y1="306.84094213212239" x2="222" y2="325.89350101538008" />
    <line x1="222" y1="363.99861878189535" x2="233" y2="383.05117766515303" />
    <line x1="233" y1="497.36653096469888" x2="222" y2="516.41908984795657" />
    <line x1="244" y1="59.157676649772974" x2="233" y2="78.210235533030627" />
    <line x1="233" y1="78.210235533030612" x2="244" y2="97.262794416288273" />
    <line x1="244" y1="97.262794416288258" x2="233" y2="116.31535329954592" />
    <line x1="244" y1="173.47302994931889" x2="233" y2="192.52558883257652" />
    <line x1="244" y1="249.68326548234947" x2="233" y2="268.73582436560713" />
    <line x1="244" y1="287.78838324886476" x2="233" y2="306.84094213212245" />
    <line x1="244" y1="325.89350101538" x2="233" y2="344.94605989863771" />
    <line x1="244" y1="363.99861878189535" x2="233" y2="383.05117766515303" />
    <line x1="244" y1="440.20885431492593" x2="233" y2="459.26141319818362" />
    <line x1="244" y1="478.31397208144125" x2="233" y2="497.36653096469894" />
    <polyline points="244,97.262794416288258 255,116.31535329954592 244,135.36791218280357" />
    <line x1="244" y1="211.57814771583418" x2="255" y2="230.63070659909181" />
    <line x1="244" y1="249.68326548234947" x2="255" y2="268.73582436560713" />
    <line x1="255" y1="268.73582436560707" x2="244" y2="287.78838324886476" />
    <line x1="255" y1="344.94605989863771" x2="244" y2="363.9986187818954" />
    <line x1="255" y1="383.051177665153" x2="244" y2="402.10373654841067" />
    <polyline points="255,2.0000000000000195 266,21.052558883257667 255,40.10511776651532" />
    <line x1="266" y1="59.157676649772974" x2="255" y2="78.210235533030627" />
    <polyline points="255,116.31535329954592 266,135.36791218280357 255,154.4204710660612" />
    <line x1="255" y1="154.42047106606123" x2="266" y2="173.47302994931886" />
    <line x1="266" y1="287.78838324886476" x2="255" y2="306.84094213212245" />
    <line x1="255" y1="344.94605989863771" x2="266" y2="363.9986187818954" />
    <line x1="266" y1="363.99861878189535" x2="255" y2="383.05117766515303" />
    <line x1="266" y1="402.10373654841067" x2="255" y2="421.15629543166835" />
    <line x1="277" y1="40.10511776651532" x2="266" y2="59.157676649772966" />
    <line x1="266" y1="59.157676649772974" x2="277" y2="78.210235533030627" />
    <line x1="266" y1="97.262794416288258" x2="277" y2="116.31535329954592" />
    <line x1="266" y1="211.57814771583418" x2="277" y2="230.63070659909181" />
    <line x1="266" y1="325.89350101538" x2="277" y2="344.94605989863771" />
    <line x1="277" y1="459.26141319818362" x2="266" y2="478.31397208144131" />
    <line x1="266" y1="478.31397208144125" x2="277" y2="497.36653096469894" />
    <line x1="277" y1="497.36653096469888" x2="266" y2="516.41908984795657" />
    <line x1="277" y1="2.0000000000000195" x2="288" y2="21.052558883257667" />
    <line x1="277" y1="116.31535329954592" x2="288" y2="135.36791218280357" />
    <line x1="277" y1="230.63070659909184" x2="288" y2="249.68326548234947" />
    <line x1="288" y1="287.78838324886476" x2="277" y2="306.84094213212245" />
    <line x1="277" y1="344.94605989863771" x2="288" y2="363.9986187818954" />
    <line x1="288" y1="363.99861878189535" x2="277" y2="383.05117766515303" />
    <line x1="277" y1="383.051177665153" x2="288" y2="402.10373654841067" />
    <line x1="288" y1="440.20885431492593" x2="277" y2="459.26141319818362" />
    <polyline points="288,21.052558883257667 299,40.10511776651532 288,59.157676649772966" />
    <line x1="299" y1="116.31535329954592" x2="288" y2="135.36791218280357" />
    <line x1="288" y1="211.57814771583418" x2="299" y2="230.63070659909181" />
    <line x1="299" y1="230.63070659909184" x2="288" y2="249.68326548234947" />
    <line x1="299" y1="306.84094213212239" x2="288" y2="325.89350101538008" />
    <line x1="288" y1="325.89350101538" x2="299" y2="344.94605989863771" />
    <line x1="299" y1="421.1562954316683" x2="288" y2="440.208854314926" />
    <line x1="299" y1="459.26141319818362" x2="288" y2="478.31397208144131" />
    <line x1="310" y1="59.157676649772974" x2="299" y2="78.210235533030627" />
    <line x1="299" y1="154.42047106606123" x2="310" y2="173.47302994931886" />
    <polyline points="310,173.47302994931889 299,192.52558883257652 310,211.57814771583415" />
    <line x1="310" y1="211.57814771583418" x2="299" y2="230.63070659909181" />
    <line x1="310" y1="249.68326548234947" x2="299" y2="268.73582436560713" />
    <polyline points="299,268.73582436560707 310,287.78838324886476 299,306.84094213212245" />
    <polyline points="310,325.89350101538 299,344.94605989863771 310,363.9986187818954" />
    <line x1="310" y1="363.99861878189535" x2="299" y2="383.05117766515303" />
    <polyline points="310,440.20885431492593 299,459.26141319818362 310,478.31397208144131" />
    <line x1="310" y1="478.31397208144125" x2="299" y2="497.36653096469894" />
    <polyline points="310,21.052558883257667 321,40.10511776651532 310,59.157676649772966" />
    <line x1="310" y1="59.157676649772974" x2="321" y2="78.210235533030627" />
    <line x1="321" y1="78.210235533030612" x2="310" y2="97.262794416288273" />
    <line x1="310" y1="97.262794416288258" x2="321" y2="116.31535329954592" />
    <line x1="321" y1="154.42047106606123" x2="310" y2="173.47302994931886" />
    <line x1="321" y1="230.63070659909184" x2="310" y2="249.68326548234947" />
    <line x1="310" y1="363.99861878189535" x2="321" y2="383.05117766515303" />
    <line x1="321" y1="383.051177665153" x2="310" y2="402.10373654841067" />
    <line x1="321" y1="421.1562954316683" x2="310" y2="440.208854314926" />
    <polyline points="332,21.052558883257667 321,40.10511776651532 332,59.157676649772966" />
    <line x1="332" y1="97.262794416288258" x2="321" y2="116.31535329954592" />
    <line x1="332" y1="173.47302994931889" x2="321" y2="192.52558883257652" />
    <line x1="332" y1="211.57814771583418" x2="321" y2="230.63070659909181" />
    <line x1="332" y1="249.68326548234947" x2="321" y2="268.73582436560713" />
    <line x1="321" y1="268.73582436560707" x2="332" y2="287.78838324886476" />
    <line x1="321" y1="306.84094213212239" x2="332" y2="325.89350101538008" />
    <line x1="332" y1="325.89350101538" x2="321" y2="344.94605989863771" />
    <line x1="332" y1="402.10373654841067" x2="321" y2="421.15629543166835" />
    <line x1="321" y1="459.26141319818362" x2="332" y2="478.31397208144131" />
    <line x1="332" y1="478.31397208144125" x2="321" y2="497.36653096469894" />
    <line x1="343" y1="40.10511776651532" x2="332" y2="59.157676649772966" />
    <line x1="332" y1="59.157676649772974" x2="343" y2="78.210235533030627" />
    <line x1="343" y1="116.31535329954592" x2="332" y2="135.36791218280357" />
    <line x1="343" y1="192.52558883257652" x2="332" y2="211.57814771583415" />
    <line x1="332" y1="211.57814771583418" x2="343" y2="230.63070659909181" />
    <line x1="343" y1="421.1562954316683" x2="332" y2="440.208854314926" />
    <line x1="343" y1="78.210235533030612" x2="354" y2="97.262794416288273" />
    <line x1="354" y1="135.36791218280357" x2="343" y2="154.4204710660612" />
    <line x1="343" y1="154.42047106606123" x2="354" y2="173.47302994931886" />
    <polyline points="343,268.73582436560707 354,287.78838324886476 343,306.84094213212245" />
    <line x1="343" y1="306.84094213212239" x2="354" y2="325.89350101538008" />
    <line x1="354" y1="325.89350101538" x2="343" y2="344.94605989863771" />
    <line x1="354" y1="363.99861878189535" x2="343" y2="383.05117766515303" />
    <polyline points="354,440.20885431492593 343,459.26141319818362 354,478.31397208144131" />
    <line x1="354" y1="21.052558883257667" x2="365" y2="40.10511776651532" />
    <line x1="354" y1="59.157676649772974" x2="365" y2="78.210235533030627" />
    <polyline points="354,97.262794416288258 365,116.31535329954592 354,135.36791218280357" />
    <polyline points="354,173.47302994931889 365,192.52558883257652 354,211.57814771583415" />
    <line x1="354" y1="249.68326548234947" x2="365" y2="268.73582436560713" />
    <line x1="354" y1="325.89350101538" x2="365" y2="344.94605989863771" />
    <line x1="354" y1="402.10373654841067" x2="365" y2="421.15629543166835" />
    <line x1="354" y1="440.20885431492593" x2="365" y2="459.26141319818362" />
    <line x1="376" y1="21.052558883257667" x2="365" y2="40.10511776651532" />
    <line x1="365" y1="78.210235533030612" x2="376" y2="97.262794416288273" />
    <line x1="376" y1="135.36791218280357" x2="365" y2="154.4204710660612" />
    <line x1="376" y1="211.57814771583418" x2="365" y2="230.63070659909181" />
    <line x1="365" y1="306.84094213212239" x2="376" y2="325.89350101538008" />
    <line x1="365" y1="383.051177665153" x2="376" y2="402.10373654841067" />
    <line x1="365" y1="497.36653096469888" x2="376" y2="516.41908984795657" />
    <line x1="387" y1="40.10511776651532" x2="376" y2="59.157676649772966" />
    <line x1="376" y1="59.157676649772974" x2="387" y2="78.210235533030627" />
    <polyline points="387,116.31535329954592 376,135.36791218280357 387,154.4204710660612" />
    <line x1="387" y1="154.42047106606123" x2="376" y2="173.47302994931886" />
    <line x1="387" y1="192.52558883257652" x2="376" y2="211.57814771583415" />
    <polyline points="387,230.63070659909184 376,249.68326548234947 387,268.73582436560713" />
    <line x1="387" y1="344.94605989863771" x2="376" y2="363.9986187818954" />
    <line x1="376" y1="363.99861878189535" x2="387" y2="383.05117766515303" />
    <line x1="376" y1="440.20885431492593" x2="387" y2="459.26141319818362" />
    <line x1="398" y1="21.052558883257667" x2="387" y2="40.10511776651532" />
    <line x1="398" y1="59.157676649772974" x2="387" y2="78.210235533030627" />
    <line x1="387" y1="116.31535329954592" x2="398" y2="135.36791218280357" />
    <line x1="398" y1="173.47302994931889" x2="387" y2="192.52558883257652" />
    <line x1="398" y1="325.89350101538" x2="387" y2="344.94605989863771" />
    <line x1="387" y1="459.26141319818362" x2="398" y2="478.31397208144131" />
    <line x1="398" y1="478.31397208144125" x2="387" y2="497.36653096469894" />
    <line x1="398" y1="59.157676649772974" x2="409" y2="78.210235533030627" />
    <line x1="398" y1="97.262794416288258" x2="409" y2="116.31535329954592" />
    <line x1="398" y1="173.47302994931889" x2="409" y2="192.52558883257652" />
    <line x1="398" y1="211.57814771583418" x2="409" y2="230.63070659909181" />
    <line x1="398" y1="249.68326548234947" x2="409" y2="268.73582436560713" />
    <line x1="409" y1="306.84094213212239" x2="398" y2="325.89350101538008" />
    <line x1="409" y1="344.94605989863771" x2="398" y2="363.9986187818954" />
    <line x1="398" y1="402.10373654841067" x2="409" y2="421.15629543166835" />
    <line x1="398" y1="440.20885431492593" x2="409" y2="459.26141319818362" />
    <line x1="398" y1="478.31397208144125" x2="409" y2="497.36653096469894" />
    <line x1="409" y1="40.10511776651532" x2="420" y2="59.157676649772966" />
    <line x1="409" y1="116.31535329954592" x2="420" y2="135.36791218280357" />
    <line x1="409" y1="154.42047106606123" x2="420" y2="173.47302994931886" />
    <line x1="420" y1="249.68326548234947" x2="409" y2="268.73582436560713" />
    <polyline points="409,268.73582436560707 420,287.78838324886476 409,306.84094213212245" />
    <line x1="409" y1="459.26141319818362" x2="420" y2="478.31397208144131" />
    <line x1="420" y1="21.052558883257667" x2="431" y2="40.10511776651532" />
    <line x1="420" y1="135.36791218280357" x2="431" y2="154.4204710660612" />
    <line x1="431" y1="230.63070659909184" x2="420" y2="249.68326548234947" />
    <polyline points="420,325.89350101538 431,344.94605989863771 420,363.9986187818954" />
    <line x1="431" y1="40.10511776651532" x2="442" y2="59.157676649772966" />
    <line x1="431" y1="116.31535329954592" x2="442" y2="135.36791218280357" />
    <line x1="442" y1="173.47302994931889" x2="431" y2="192.52558883257652" />
    <line x1="442" y1="211.57814771583418" x2="431" y2="230.63070659909181" />
    <line x1="442" y1="249.68326548234947" x2="431" y2="268.73582436560713" />
    <polyline points="431,268.73582436560707 442,287.78838324886476 431,306.84094213212245" />
    <line x1="442" y1="402.10373654841067" x2="431" y2="421.15629543166835" />
    <line x1="442" y1="440.20885431492593" x2="431" y2="459.26141319818362" />
    <line x1="442" y1="21.052558883257667" x2="453" y2="40.10511776651532" />
    <line x1="453" y1="78.210235533030612" x2="442" y2="97.262794416288273" />
    <line x1="442" y1="135.36791218280357" x2="453" y2="154.4204710660612" />
    <line x1="453" y1="154.42047106606123" x2="442" y2="173.47302994931886" />
    <line x1="442" y1="173.47302994931889" x2="453" y2="192.52558883257652" />
    <line x1="453" y1="306.84094213212239" x2="442" y2="325.89350101538008" />
    <line x1="442" y1="402.10373654841067" x2="453" y2="421.15629543166835" />
    <line x1="453" y1="78.210235533030612" x2="464" y2="97.262794416288273" />
    <line x1="453" y1="116.31535329954592" x2="464" y2="135.36791218280357" />
    <line x1="453" y1="230.63070659909184" x2="464" y2="249.68326548234947" />
    <line x1="453" y1="268.73582436560707" x2="464" y2="287.78838324886476" />
    <line x1="464" y1="325.89350101538" x2="453" y2="344.94605989863771" />
    <line x1="453" y1="383.051177665153" x2="464" y2="402.10373654841067" />
    <line x1="453" y1="421.1562954316683" x2="464" y2="440.208854314926" />
    <line x1="453" y1="497.36653096469888" x2="464" y2="516.41908984795657" />
    <polyline points="475,2.0000000000000195 464,21.052558883257667 475,40.10511776651532 464,59.157676649772966" />
    <line x1="464" y1="59.157676649772974" x2="475" y2="78.210235533030627" />
    <line x1="475" y1="78.210235533030612" x2="464" y2="97.262794416288273" />
    <polyline points="464,97.262794416288258 475,116.31535329954592 464,135.36791218280357 475,154.4204710660612" />
    <line x1="475" y1="154.42047106606123" x2="464" y2="173.47302994931886" />
    <polyline points="464,173.47302994931889 475,192.52558883257652 464,211.57814771583415" />
    <line x1="464" y1="211.57814771583418" x2="475" y2="230.63070659909181" />
    <polyline points="475,230.63070659909184 464,249.68326548234947 475,268.73582436560713" />
    <polyline points="475,268.73582436560707 464,287.78838324886476 475,306.84094213212245" />
    <line x1="475" y1="306.84094213212239" x2="464" y2="325.89350101538008" />
    <polyline points="464,325.89350101538 475,344.94605989863771 464,363.9986187818954" />
    <line x1="464" y1="363.99861878189535" x2="475" y2="383.05117766515303" />
    <polyline points="475,383.051177665153 464,402.10373654841067 475,421.15629543166835" />
    <line x1="475" y1="421.1562954316683" x2="464" y2="440.208854314926" />
    <polyline points="464,440.20885431492593 475,459.26141319818362 464,478.31397208144131" />
    <line x1="464" y1="478.31397208144125" x2="475" y2="497.36653096469894" />
    <line x1="475" y1="497.36653096469888" x2="464" y2="516.41908984795657" />
  </g>
  <polyline fill="none" stroke="#ff0000" stroke-width="2" stroke-linecap="square" stroke-linejoin="round" points="244,2.0000000000000195 238.5,11.526279441628844 194.5,11.526279441628844 178,40.10511776651532 189,59.157676649772966 183.5,68.6839560914018 161.5,68.6839560914018 139.5,106.78907385791709 73.5,106.78907385791709 62.5,125.84163274117475 51.5,125.84163274117475 40.5,106.78907385791709 29.5,106.78907385791709 24,116.31535329954592 51.5,163.94675050769004 84.5,163.94675050769004 95.5,144.89419162443238 128.5,144.89419162443238 134,154.42047106606123 112,192.52558883257652 123,211.57814771583418 101,249.68326548234947 112,268.73582436560713 106.5,278.26210380723592 84.5,278.26210380723592 79,287.78838324886476 106.5,335.41978045700887 150.5,335.41978045700887 167,363.99861878189535 161.5,373.52489822352419 150.5,373.52489822352419 139.5,354.47233934026656 128.5,354.47233934026656 112,383.05117766515303 128.5,411.63001599003951 161.5,411.63001599003951 172.5,392.57745710678182 194.5,392.57745710678182 205.5,373.52489822352419 216.5,373.52489822352419 222,383.05117766515303 200,421.1562954316683 227.5,468.78769263981246 249.5,468.78769263981246 266,497.36653096469888 260.5,506.89281040632773 238.5,506.89281040632773 233,516.41908984795657" />
  <type>Rectangular</type>
</svg>