<?xml version="1.0" encoding="utf-8" standalone="no"?>
<!DOCTYPE svg PUBLIC "-//W3C//DTD SVG 1.1//EN" "http://www.w3.org/Graphics/SVG/1.1/DTD/svg11.dtd"[]>
<svg width="326" height="476.84987046630351" version="1.1" xmlns="http://www.w3.org/2000/svg">
  <title>15 by 19 sigma maze</title>
  <g fill="none" stroke="#000000" stroke-width="2" stroke-linecap="round" stroke-linejoin="round">
    <polyline points="9,38.373066958946431 2,26.248711305964292 9,14.124355652982152 23,14.124355652982152 30,2.0000000000000107 44,2.0000000000000107 51,14.124355652982152 65,14.124355652982152 72,2.0000000000000107 86,2.0000000000000107 93,14.124355652982152 107,14.124355652982152 114,2.0000000000000107 128,2.0000000000000107 135,14.124355652982152 149,14.124355652982152 156,26.248711305964292" />
    <line x1="149" y1="14.124355652982152" x2="156" y2="2.0000000000000107" />
    <polyline points="170,2.0000000000000107 177,14.124355652982152 191,14.124355652982152 198,2.0000000000000107 212,2.0000000000000107 219,14.124355652982152 212,26.248711305964292" />
    <polyline points="219,14.124355652982152 233,14.124355652982152 240,26.248711305964292" />
    <polyline points="233,14.124355652982152 240,2.0000000000000107 254,2.0000000000000107 261,14.124355652982152 275,14.124355652982152 282,2.0000000000000107 296,2.0000000000000107 303,14.124355652982152 296,26.248711305964292" />
    <polyline points="303,14.124355652982152 317,14.124355652982152 324,26.248711305964292 317,38.373066958946431" />
    <polyline points="9,62.621778264910709 2,50.49742261192857 9,38.373066958946431" />
    <polyline points="23,38.373066958946431 30,26.248711305964292 44,26.248711305964292 51,38.373066958946431 44,50.49742261192857" />
    <polyline points="51,38.373066958946431 65,38.373066958946431 72,26.248711305964292 86,26.248711305964292 93,38.373066958946431 107,38.373066958946431 114,50.49742261192857" />
    <polyline points="107,38.373066958946431 114,26.248711305964292 128,26.248711305964292 135,38.373066958946431 149,38.373066958946431 156,50.49742261192857" />
    <polyline points="170,26.248711305964292 177,38.373066958946431 170,50.49742261192857" />
    <polyline points="177,38.373066958946431 191,38.373066958946431 198,50.49742261192857" />
    <line x1="191" y1="38.373066958946431" x2="198" y2="26.248711305964292" />
    <polyline points="212,50.49742261192857 219,38.373066958946431 233,38.373066958946431 240,50.49742261192857" />
    <polyline points="254,26.248711305964292 261,38.373066958946431 254,50.49742261192857" />
    <polyline points="261,38.373066958946431 275,38.373066958946431 282,50.49742261192857" />
    <line x1="282" y1="26.248711305964292" x2="296" y2="26.248711305964292" />
    <line x1="296" y1="50.49742261192857" x2="303" y2="38.373066958946431" />
    <polyline points="317,38.373066958946431 324,50.49742261192857 317,62.621778264910709" />
    <polyline points="9,86.870489570875 2,74.746133917892848 9,62.621778264910709 23,62.621778264910709 30,74.746133917892848" />
    <polyline points="23,62.621778264910709 30,50.49742261192857 44,50.49742261192857" />
    <polyline points="51,62.621778264910709 65,62.621778264910709 72,74.746133917892848" />
    <line x1="65" y1="62.621778264910709" x2="72" y2="50.49742261192857" />
    <polyline points="86,50.49742261192857 93,62.621778264910709 86,74.746133917892848" />
    <polyline points="93,62.621778264910709 107,62.621778264910709 114,74.746133917892848" />
    <polyline points="114,50.49742261192857 128,50.49742261192857 135,62.621778264910709 149,62.621778264910709 156,74.746133917892848" />
    <polyline points="170,50.49742261192857 177,62.621778264910709 170,74.746133917892848" />
    <polyline points="198,74.746133917892848 191,62.621778264910709 198,50.49742261192857 212,50.49742261192857 219,62.621778264910709 233,62.621778264910709 240,74.746133917892848" />
    <line x1="240" y1="50.49742261192857" x2="254" y2="50.49742261192857" />
    <polyline points="254,74.746133917892848 261,62.621778264910709 275,62.621778264910709 282,74.746133917892848" />
    <polyline points="282,50.49742261192857 296,50.49742261192857 303,62.621778264910709 296,74.746133917892848" />
    <polyline points="317,62.621778264910709 324,74.746133917892848 317,86.870489570875" />
    <polyline points="9,111.11920087683929 2,98.994845223857141 9,86.870489570875 23,86.870489570875 30,98.994845223857141" />
    <line x1="30" y1="74.746133917892848" x2="44" y2="74.746133917892848" />
    <polyline points="44,98.994845223857141 51,86.870489570875 65,86.870489570875 72,98.994845223857141" />
    <polyline points="65,86.870489570875 72,74.746133917892848 86,74.746133917892848 93,86.870489570875" />
    <line x1="107" y1="86.870489570875" x2="114" y2="98.994845223857141" />
    <polyline points="128,74.746133917892848 135,86.870489570875 128,98.994845223857141" />
    <polyline points="135,86.870489570875 149,86.870489570875 156,74.746133917892848" />
    <polyline points="170,98.994845223857141 177,86.870489570875 191,86.870489570875" />
    <polyline points="198,74.746133917892848 212,74.746133917892848 219,86.870489570875 212,98.994845223857141" />
    <polyline points="219,86.870489570875 233,86.870489570875 240,98.994845223857141" />
    <polyline points="254,74.746133917892848 261,86.870489570875 254,98.994845223857141" />
    <line x1="275" y1="86.870489570875" x2="282" y2="74.746133917892848" />
    <polyline points="296,74.746133917892848 303,86.870489570875 296,98.994845223857141" />
    <polyline points="303,86.870489570875 317,86.870489570875 324,98.994845223857141 317,111.11920087683929" />
    <polyline points="9,135.36791218280357 2,123.24355652982142 9,111.11920087683927" />
    <line x1="23" y1="111.11920087683927" x2="30" y2="123.24355652982142" />
    <line x1="30" y1="98.994845223857126" x2="44" y2="98.994845223857126" />
    <polyline points="44,123.24355652982142 51,111.11920087683927 65,111.11920087683927 72,98.994845223857126" />
    <polyline points="86,98.994845223857126 93,111.11920087683927 86,123.24355652982142" />
    <line x1="107" y1="111.11920087683927" x2="114" y2="123.24355652982142" />
    <line x1="114" y1="98.994845223857126" x2="128" y2="98.994845223857126" />
    <polyline points="128,123.24355652982142 135,111.11920087683927 149,111.11920087683927 156,98.994845223857126" />
    <polyline points="170,98.994845223857126 177,111.11920087683927 170,123.24355652982142" />
    <polyline points="198,123.24355652982142 191,111.11920087683927 198,98.994845223857126 212,98.994845223857126" />
    <polyline points="212,123.24355652982142 219,111.11920087683927 233,111.11920087683927 240,123.24355652982142" />
    <polyline points="240,98.994845223857126 254,98.994845223857126 261,111.11920087683927 254,123.24355652982142" />
    <polyline points="282,123.24355652982142 275,111.11920087683927 282,98.994845223857126 296,98.994845223857126" />
    <line x1="296" y1="123.24355652982142" x2="303" y2="111.11920087683927" />
    <polyline points="317,111.11920087683927 324,123.24355652982142 317,135.36791218280357" />
    <polyline points="9,159.61662348876783 2,147.4922678357857 9,135.36791218280357" />
    <polyline points="23,135.36791218280357 30,123.24355652982142 44,123.24355652982142 51,135.36791218280357 44,147.4922678357857" />
    <polyline points="51,135.36791218280357 65,135.36791218280357 72,123.24355652982142 86,123.24355652982142" />
    <polyline points="86,147.4922678357857 93,135.36791218280357 107,135.36791218280357 114,147.4922678357857" />
    <polyline points="107,135.36791218280357 114,123.24355652982142 128,123.24355652982142" />
    <line x1="128" y1="147.4922678357857" x2="135" y2="135.36791218280357" />
    <polyline points="156,147.4922678357857 149,135.36791218280357 156,123.24355652982142 170,123.24355652982142" />
    <polyline points="177,135.36791218280357 191,135.36791218280357 198,123.24355652982142" />
    <polyline points="212,123.24355652982142 219,135.36791218280357 212,147.4922678357857" />
    <polyline points="233,135.36791218280357 240,123.24355652982142 254,123.24355652982142" />
    <polyline points="254,147.4922678357857 261,135.36791218280357 275,135.36791218280357 282,147.4922678357857" />
    <polyline points="296,123.24355652982142 303,135.36791218280357 317,135.36791218280357 324,147.4922678357857 317,159.61662348876783" />
    <polyline points="9,183.86533479473212 2,171.74097914175 9,159.61662348876786 23,159.61662348876786 30,171.74097914175" />
    <line x1="23" y1="159.61662348876786" x2="30" y2="147.49226783578573" />
    <polyline points="44,171.74097914175 51,159.61662348876786 65,159.61662348876786 72,147.49226783578573 86,147.49226783578573" />
    <polyline points="93,159.61662348876786 107,159.61662348876786 114,171.74097914175" />
    <polyline points="114,147.49226783578573 128,147.49226783578573 135,159.61662348876786 128,171.74097914175" />
    <polyline points="156,171.74097914175 149,159.61662348876786 156,147.49226783578573" />
    <polyline points="170,147.49226783578573 177,159.61662348876786 170,171.74097914175" />
    <polyline points="198,171.74097914175 191,159.61662348876786 198,147.49226783578573 212,147.49226783578573" />
    <polyline points="212,171.74097914175 219,159.61662348876786 233,159.61662348876786 240,171.74097914175" />
    <line x1="233" y1="159.61662348876786" x2="240" y2="147.49226783578573" />
    <polyline points="254,147.49226783578573 261,159.61662348876786 254,171.74097914175" />
    <line x1="275" y1="159.61662348876786" x2="282" y2="171.74097914175" />
    <polyline points="282,147.49226783578573 296,147.49226783578573 303,159.61662348876786 296,171.74097914175" />
    <polyline points="317,159.61662348876786 324,171.74097914175 317,183.86533479473212" />
    <polyline points="9,208.11404610069639 2,195.98969044771425 9,183.86533479473212 23,183.86533479473212 30,195.98969044771425" />
    <polyline points="44,171.74097914175 51,183.86533479473212 65,183.86533479473212" />
    <polyline points="72,171.74097914175 86,171.74097914175 93,183.86533479473212 86,195.98969044771425" />
    <polyline points="114,195.98969044771425 107,183.86533479473212 114,171.74097914175" />
    <polyline points="128,171.74097914175 135,183.86533479473212 128,195.98969044771425" />
    <polyline points="156,195.98969044771425 149,183.86533479473212 156,171.74097914175 170,171.74097914175 177,183.86533479473212" />
    <line x1="191" y1="183.86533479473212" x2="198" y2="195.98969044771425" />
    <polyline points="212,195.98969044771425 219,183.86533479473212 233,183.86533479473212 240,171.74097914175 254,171.74097914175 261,183.86533479473212 254,195.98969044771425" />
    <polyline points="282,195.98969044771425 275,183.86533479473212 282,171.74097914175" />
    <line x1="296" y1="195.98969044771425" x2="303" y2="183.86533479473212" />
    <polyline points="317,183.86533479473212 324,195.98969044771425 317,208.11404610069639" />
    <polyline points="9,232.36275740666068 2,220.23840175367855 9,208.11404610069641" />
    <line x1="23" y1="208.11404610069641" x2="30" y2="220.23840175367855" />
    <polyline points="30,195.98969044771428 44,195.98969044771428 51,208.11404610069641 65,208.11404610069641" />
    <polyline points="72,195.98969044771428 86,195.98969044771428 93,208.11404610069641 86,220.23840175367855" />
    <polyline points="93,208.11404610069641 107,208.11404610069641 114,220.23840175367855" />
    <line x1="107" y1="208.11404610069641" x2="114" y2="195.98969044771428" />
    <polyline points="128,195.98969044771428 135,208.11404610069641 149,208.11404610069641 156,220.23840175367855" />
    <polyline points="156,195.98969044771428 170,195.98969044771428 177,208.11404610069641 191,208.11404610069641 198,220.23840175367855" />
    <line x1="198" y1="195.98969044771428" x2="212" y2="195.98969044771428" />
    <polyline points="212,220.23840175367855 219,208.11404610069641 233,208.11404610069641 240,195.98969044771428 254,195.98969044771428" />
    <polyline points="261,208.11404610069641 275,208.11404610069641 282,220.23840175367855" />
    <polyline points="275,208.11404610069641 282,195.98969044771428 296,195.98969044771428 303,208.11404610069641 317,208.11404610069641 324,220.23840175367855 317,232.36275740666068" />
    <polyline points="9,256.61146871262497 2,244.48711305964284 9,232.36275740666071" />
    <polyline points="30,244.48711305964284 23,232.36275740666071 30,220.23840175367857 44,220.23840175367857 51,232.36275740666071 65,232.36275740666071 72,220.23840175367857 86,220.23840175367857" />
    <polyline points="86,244.48711305964284 93,232.36275740666071 107,232.36275740666071" />
    <polyline points="114,220.23840175367857 128,220.23840175367857 135,232.36275740666071 128,244.48711305964284" />
    <polyline points="135,232.36275740666071 149,232.36275740666071 156,244.48711305964284" />
    <polyline points="156,220.23840175367857 170,220.23840175367857 177,232.36275740666071 170,244.48711305964284" />
    <polyline points="177,232.36275740666071 191,232.36275740666071 198,244.48711305964284" />
    <polyline points="198,220.23840175367857 212,220.23840175367857 219,232.36275740666071 212,244.48711305964284" />
    <line x1="219" y1="232.36275740666071" x2="233" y2="232.36275740666071" />
    <polyline points="240,220.23840175367857 254,220.23840175367857 261,232.36275740666071 254,244.48711305964284" />
    <polyline points="282,244.48711305964284 275,232.36275740666071 282,220.23840175367857 296,220.23840175367857" />
    <polyline points="296,244.48711305964284 303,232.36275740666071 317,232.36275740666071 324,244.48711305964284 317,256.61146871262497" />
    <polyline points="9,280.86018001858923 2,268.73582436560707 9,256.61146871262491" />
    <line x1="23" y1="256.61146871262491" x2="30" y2="244.48711305964278" />
    <polyline points="44,244.48711305964278 51,256.61146871262491 44,268.73582436560707" />
    <polyline points="51,256.61146871262491 65,256.61146871262491 72,244.48711305964278" />
    <polyline points="86,244.48711305964278 93,256.61146871262491 86,268.73582436560707" />
    <polyline points="93,256.61146871262491 107,256.61146871262491 114,268.73582436560707" />
    <polyline points="107,256.61146871262491 114,244.48711305964278 128,244.48711305964278" />
    <polyline points="135,256.61146871262491 149,256.61146871262491 156,268.73582436560707" />
    <line x1="156" y1="244.48711305964278" x2="170" y2="244.48711305964278" />
    <polyline points="170,268.73582436560707 177,256.61146871262491 191,256.61146871262491" />
    <line x1="198" y1="244.48711305964278" x2="212" y2="244.48711305964278" />
    <polyline points="219,256.61146871262491 233,256.61146871262491 240,268.73582436560707" />
    <polyline points="240,244.48711305964278 254,244.48711305964278 261,256.61146871262491 254,268.73582436560707" />
    <polyline points="282,268.73582436560707 275,256.61146871262491 282,244.48711305964278" />
    <line x1="296" y1="268.73582436560707" x2="303" y2="256.61146871262491" />
    <polyline points="317,256.61146871262491 324,268.73582436560707 317,280.86018001858923" />
    <polyline points="9,305.10889132455355 2,292.98453567157139 9,280.86018001858923" />
    <polyline points="30,292.98453567157139 23,280.86018001858923 30,268.73582436560707 44,268.73582436560707" />
    <polyline points="44,292.98453567157139 51,280.86018001858923 65,280.86018001858923 72,292.98453567157139" />
    <polyline points="65,280.86018001858923 72,268.73582436560707 86,268.73582436560707" />
    <line x1="86" y1="292.98453567157139" x2="93" y2="280.86018001858923" />
    <polyline points="107,280.86018001858923 114,268.73582436560707 128,268.73582436560707" />
    <line x1="128" y1="292.98453567157139" x2="135" y2="280.86018001858923" />
    <polyline points="149,280.86018001858923 156,268.73582436560707 170,268.73582436560707 177,280.86018001858923 191,280.86018001858923 198,268.73582436560707 212,268.73582436560707 219,280.86018001858923 212,292.98453567157139" />
    <polyline points="219,280.86018001858923 233,280.86018001858923 240,268.73582436560707 254,268.73582436560707 261,280.86018001858923 275,280.86018001858923 282,292.98453567157139" />
    <line x1="275" y1="280.86018001858923" x2="282" y2="268.73582436560707" />
    <polyline points="296,268.73582436560707 303,280.86018001858923 296,292.98453567157139" />
    <polyline points="317,280.86018001858923 324,292.98453567157139 317,305.10889132455355" />
    <polyline points="9,329.35760263051787 2,317.23324697753571 9,305.10889132455355" />
    <polyline points="30,317.23324697753571 23,305.10889132455355 30,292.98453567157139" />
    <polyline points="44,292.98453567157139 51,305.10889132455355 44,317.23324697753571" />
    <polyline points="72,317.23324697753571 65,305.10889132455355 72,292.98453567157139" />
    <polyline points="86,292.98453567157139 93,305.10889132455355 86,317.23324697753571" />
    <polyline points="93,305.10889132455355 107,305.10889132455355 114,292.98453567157139 128,292.98453567157139 135,305.10889132455355 149,305.10889132455355 156,317.23324697753571" />
    <polyline points="149,305.10889132455355 156,292.98453567157139 170,292.98453567157139 177,305.10889132455355 170,317.23324697753571" />
    <polyline points="198,317.23324697753571 191,305.10889132455355 198,292.98453567157139" />
    <polyline points="212,292.98453567157139 219,305.10889132455355 233,305.10889132455355" />
    <polyline points="240,292.98453567157139 254,292.98453567157139 261,305.10889132455355 254,317.23324697753571" />
    <polyline points="261,305.10889132455355 275,305.10889132455355 282,292.98453567157139 296,292.98453567157139" />
    <polyline points="303,305.10889132455355 317,305.10889132455355 324,317.23324697753571 317,329.35760263051787" />
    <polyline points="9,353.60631393648208 2,341.48195828349992 9,329.35760263051776 23,329.35760263051776 30,341.48195828349992" />
    <line x1="23" y1="329.35760263051776" x2="30" y2="317.2332469775356" />
    <polyline points="44,317.2332469775356 51,329.35760263051776 65,329.35760263051776 72,341.48195828349992" />
    <polyline points="72,317.2332469775356 86,317.2332469775356 93,329.35760263051776 86,341.48195828349992" />
    <polyline points="114,341.48195828349992 107,329.35760263051776 114,317.2332469775356 128,317.2332469775356" />
    <polyline points="128,341.48195828349992 135,329.35760263051776 149,329.35760263051776 156,341.48195828349992" />
    <line x1="149" y1="329.35760263051776" x2="156" y2="317.2332469775356" />
    <polyline points="170,341.48195828349992 177,329.35760263051776 191,329.35760263051776 198,317.2332469775356" />
    <polyline points="212,317.2332469775356 219,329.35760263051776 212,341.48195828349992" />
    <polyline points="219,329.35760263051776 233,329.35760263051776 240,341.48195828349992" />
    <polyline points="240,317.2332469775356 254,317.2332469775356 261,329.35760263051776 275,329.35760263051776 282,341.48195828349992" />
    <polyline points="282,317.2332469775356 296,317.2332469775356 303,329.35760263051776 317,329.35760263051776 324,341.48195828349992 317,353.60631393648208" />
    <polyline points="9,377.8550252424464 2,365.73066958946424 9,353.60631393648208" />
    <polyline points="23,353.60631393648208 30,341.48195828349992 44,341.48195828349992" />
    <polyline points="44,365.73066958946424 51,353.60631393648208 65,353.60631393648208 72,341.48195828349992" />
    <line x1="86" y1="365.73066958946424" x2="93" y2="353.60631393648208" />
    <line x1="107" y1="353.60631393648208" x2="114" y2="365.73066958946424" />
    <polyline points="114,341.48195828349992 128,341.48195828349992 135,353.60631393648208 128,365.73066958946424" />
    <line x1="149" y1="353.60631393648208" x2="156" y2="365.73066958946424" />
    <polyline points="156,341.48195828349992 170,341.48195828349992 177,353.60631393648208 191,353.60631393648208 198,365.73066958946424" />
    <polyline points="198,341.48195828349992 212,341.48195828349992 219,353.60631393648208 233,353.60631393648208" />
    <polyline points="240,341.48195828349992 254,341.48195828349992 261,353.60631393648208 275,353.60631393648208 282,365.73066958946424" />
    <line x1="282" y1="341.48195828349992" x2="296" y2="341.48195828349992" />
    <polyline points="296,365.73066958946424 303,353.60631393648208 317,353.60631393648208 324,365.73066958946424 317,377.8550252424464" />
    <polyline points="9,402.10373654841072 2,389.97938089542856 9,377.8550252424464" />
    <polyline points="30,389.97938089542856 23,377.8550252424464 30,365.73066958946424 44,365.73066958946424" />
    <line x1="44" y1="389.97938089542856" x2="51" y2="377.8550252424464" />
    <polyline points="72,389.97938089542856 65,377.8550252424464 72,365.73066958946424 86,365.73066958946424" />
    <line x1="86" y1="389.97938089542856" x2="93" y2="377.8550252424464" />
    <polyline points="114,389.97938089542856 107,377.8550252424464 114,365.73066958946424 128,365.73066958946424 135,377.8550252424464 128,389.97938089542856" />
    <polyline points="149,377.8550252424464 156,365.73066958946424 170,365.73066958946424 177,377.8550252424464 170,389.97938089542856" />
    <polyline points="198,389.97938089542856 191,377.8550252424464 198,365.73066958946424 212,365.73066958946424" />
    <polyline points="212,389.97938089542856 219,377.8550252424464 233,377.8550252424464 240,365.73066958946424 254,365.73066958946424 261,377.8550252424464 275,377.8550252424464 282,389.97938089542856" />
    <line x1="282" y1="365.73066958946424" x2="296" y2="365.73066958946424" />
    <line x1="296" y1="389.97938089542856" x2="303" y2="377.8550252424464" />
    <polyline points="317,377.8550252424464 324,389.97938089542856 317,402.10373654841072" />
    <polyline points="9,426.35244785437493 2,414.22809220139277 9,402.10373654841061 23,402.10373654841061" />
    <polyline points="30,389.97938089542845 44,389.97938089542845 51,402.10373654841061 44,414.22809220139277" />
    <polyline points="72,414.22809220139277 65,402.10373654841061 72,389.97938089542845" />
    <polyline points="86,389.97938089542845 93,402.10373654841061 86,414.22809220139277" />
    <line x1="107" y1="402.10373654841061" x2="114" y2="414.22809220139277" />
    <polyline points="128,389.97938089542845 135,402.10373654841061 128,414.22809220139277" />
    <line x1="135" y1="402.10373654841061" x2="149" y2="402.10373654841061" />
    <polyline points="156,389.97938089542845 170,389.97938089542845 177,402.10373654841061 170,414.22809220139277" />
    <polyline points="191,402.10373654841061 198,389.97938089542845 212,389.97938089542845 219,402.10373654841061" />
    <polyline points="240,414.22809220139277 233,402.10373654841061 240,389.97938089542845 254,389.97938089542845" />
    <polyline points="254,414.22809220139277 261,402.10373654841061 275,402.10373654841061 282,414.22809220139277" />
    <line x1="275" y1="402.10373654841061" x2="282" y2="389.97938089542845" />
    <polyline points="296,389.97938089542845 303,402.10373654841061 317,402.10373654841061 324,414.22809220139277 317,426.35244785437493" />
    <polyline points="9,450.60115916033925 2,438.47680350735709 9,426.35244785437493" />
    <polyline points="23,426.35244785437493 30,414.22809220139277 44,414.22809220139277 51,426.35244785437493 44,438.47680350735709" />
    <polyline points="72,438.47680350735709 65,426.35244785437493 72,414.22809220139277" />
    <polyline points="86,414.22809220139277 93,426.35244785437493 86,438.47680350735709" />
    <polyline points="93,426.35244785437493 107,426.35244785437493 114,438.47680350735709" />
    <polyline points="107,426.35244785437493 114,414.22809220139277 128,414.22809220139277 135,426.35244785437493 149,426.35244785437493" />
    <polyline points="156,414.22809220139277 170,414.22809220139277 177,426.35244785437493 191,426.35244785437493 198,414.22809220139277 212,414.22809220139277 219,426.35244785437493 212,438.47680350735709" />
    <polyline points="240,438.47680350735709 233,426.35244785437493 240,414.22809220139277" />
    <polyline points="254,414.22809220139277 261,426.35244785437493 254,438.47680350735709" />
    <polyline points="275,426.35244785437493 282,414.22809220139277 296,414.22809220139277" />
    <line x1="296" y1="438.47680350735709" x2="303" y2="426.35244785437493" />
    <polyline points="317,426.35244785437493 324,438.47680350735709 317,450.60115916033925" />
    <polyline points="9,474.84987046630357 2,462.72551481332141 9,450.60115916033925" />
    <polyline points="23,450.60115916033925 30,438.47680350735709 44,438.47680350735709 51,450.60115916033925" />
    <polyline points="72,462.72551481332141 65,450.60115916033925 72,438.47680350735709" />
    <polyline points="86,438.47680350735709 93,450.60115916033925 107,450.60115916033925" />
    <polyline points="114,438.47680350735709 128,438.47680350735709 135,450.60115916033925" />
    <polyline points="156,462.72551481332141 149,450.60115916033925 156,438.47680350735709 170,438.47680350735709 177,450.60115916033925 191,450.60115916033925 198,438.47680350735709 212,438.47680350735709 219,450.60115916033925 233,450.60115916033925 240,438.47680350735709" />
    <polyline points="254,438.47680350735709 261,450.60115916033925 254,462.72551481332141" />
    <polyline points="261,450.60115916033925 275,450.60115916033925 282,438.47680350735709" />
    <polyline points="296,438.47680350735709 303,450.60115916033925 296,462.72551481332141" />
    <polyline points="317,450.60115916033925 324,462.72551481332141 317,474.84987046630357" />
    <polyline points="30,462.72551481332141 23,474.84987046630357 9,474.84987046630357" />
    <line x1="44" y1="462.72551481332141" x2="30" y2="462.72551481332141" />
    <polyline points="72,462.72551481332141 65,474.84987046630357 51,474.84987046630357 44,462.72551481332141" />
    <line x1="86" y1="462.72551481332141" x2="72" y2="462.72551481332141" />
    <polyline points="114,462.72551481332141 107,474.84987046630357 93,474.84987046630357 86,462.72551481332141" />
    <line x1="128" y1="462.72551481332141" x2="114" y2="462.72551481332141" />
    <polyline points="156,462.72551481332141 149,474.84987046630357 135,474.84987046630357 128,462.72551481332141" />
    <polyline points="198,462.72551481332141 191,474.84987046630357 177,474.84987046630357 170,462.72551481332141" />
    <line x1="212" y1="462.72551481332141" x2="198" y2="462.72551481332141" />
    <polyline points="240,462.72551481332141 233,474.84987046630357 219,474.84987046630357 212,462.72551481332141" />
    <line x1="254" y1="462.72551481332141" x2="240" y2="462.72551481332141" />
    <polyline points="282,462.72551481332141 275,474.84987046630357 261,474.84987046630357 254,462.72551481332141" />
    <line x1="296" y1="462.72551481332141" x2="282" y2="462.72551481332141" />
    <polyline points="317,474.84987046630357 303,474.84987046630357 296,462.72551481332141" />
  </g>
  <polyline fill="none" stroke="#ff0000" stroke-width="2" stroke-linecap="square" stroke-linejoin="round" points="163,2.0000000000000107 163,86.870489570875 121,111.11920087683927 100,98.994845223857141 100,123.24355652982142 37,159.61662348876786 37,183.86533479473212 79,208.11404610069641 58,220.23840175367855 16,195.98969044771425 16,268.73582436560707 37,256.61146871262491 37,232.36275740666071 58,244.48711305964284 79,232.36275740666071 79,256.61146871262491 37,280.86018001858923 37,329.35760263051776 58,341.48195828349992 16,365.73066958946424 16,389.97938089542856 37,402.10373654841061 16,414.22809220139277 16,462.72551481332141 37,450.60115916033925 58,462.72551481332141 58,365.73066958946424 100,341.48195828349992 100,365.73066958946424 79,377.8550252424464 79,450.60115916033925 100,462.72551481332141 121,450.60115916033925 142,462.72551481332141 142,438.47680350735709 163,426.35244785437493 142,414.22809220139277 163,402.10373654841061 142,389.97938089542856 142,341.48195828349992 184,365.73066958946424 184,414.22809220139277 205,402.10373654841061 226,414.22809220139277 226,389.97938089542856 247,377.8550252424464 268,389.97938089542856 247,402.10373654841061 247,450.60115916033925 226,462.72551481332141 205,450.60115916033925 184,462.72551481332141 163,450.60115916033925 163,462.72551481332141" />
  <type>Rectangular</type>
</svg>