<?xml version="1.0" encoding="utf-8" standalone="no"?>
<!DOCTYPE svg PUBLIC "-//W3C//DTD SVG 1.1//EN" "http://www.w3.org/Graphics/SVG/1.1/DTD/svg11.dtd"[]>
<svg width="620" height="719.33698352594627" version="1.1" xmlns="http://www.w3.org/2000/svg">
  <title>Hexagonal sigma maze with 15 cells side</title>
  <g fill="none" stroke="#000000" stroke-width="2" stroke-linecap="round" stroke-linejoin="round">
    <polyline points="275,26.248711305964264 282,14.124355652982123 296,14.124355652982123 303,1.9999999999999822" />
    <polyline points="317,1.9999999999999822 324,14.124355652982123 338,14.124355652982123 345,26.248711305964264" />
    <polyline points="233,50.497422611928542 240,38.3730669589464 254,38.3730669589464 261,50.497422611928542" />
    <polyline points="254,38.3730669589464 261,26.248711305964264 275,26.248711305964264" />
    <polyline points="282,38.3730669589464 296,38.3730669589464 303,26.248711305964264 317,26.248711305964264 324,38.3730669589464 317,50.497422611928542" />
    <polyline points="338,38.3730669589464 345,26.248711305964264 359,26.248711305964264 366,38.3730669589464 359,50.497422611928542" />
    <polyline points="366,38.3730669589464 380,38.3730669589464 387,50.497422611928542" />
    <polyline points="191,74.74613391789282 198,62.621778264910681 212,62.621778264910681 219,50.497422611928542 233,50.497422611928542 240,62.621778264910681" />
    <line x1="254" y1="62.621778264910681" x2="261" y2="74.74613391789282" />
    <polyline points="261,50.497422611928542 275,50.497422611928542 282,62.621778264910681 275,74.74613391789282" />
    <polyline points="282,62.621778264910681 296,62.621778264910681 303,50.497422611928542" />
    <polyline points="317,50.497422611928542 324,62.621778264910681 317,74.74613391789282" />
    <polyline points="324,62.621778264910681 338,62.621778264910681 345,74.74613391789282" />
    <line x1="338" y1="62.621778264910681" x2="345" y2="50.497422611928542" />
    <polyline points="359,50.497422611928542 366,62.621778264910681 359,74.74613391789282" />
    <polyline points="366,62.621778264910681 380,62.621778264910681 387,74.74613391789282" />
    <polyline points="387,50.497422611928542 401,50.497422611928542 408,62.621778264910681 422,62.621778264910681 429,74.74613391789282" />
    <polyline points="149,98.994845223857112 156,86.870489570874966 170,86.870489570874966 177,98.994845223857112" />
    <polyline points="170,86.870489570874966 177,74.74613391789282 191,74.74613391789282" />
    <polyline points="198,86.870489570874966 212,86.870489570874966 219,74.74613391789282 233,74.74613391789282 240,86.870489570874966 233,98.994845223857112" />
    <polyline points="240,86.870489570874966 254,86.870489570874966 261,98.994845223857112" />
    <line x1="254" y1="86.870489570874966" x2="261" y2="74.74613391789282" />
    <polyline points="275,74.74613391789282 282,86.870489570874966 275,98.994845223857112" />
    <polyline points="282,86.870489570874966 296,86.870489570874966 303,98.994845223857112" />
    <polyline points="303,74.74613391789282 317,74.74613391789282 324,86.870489570874966 317,98.994845223857112" />
    <line x1="324" y1="86.870489570874966" x2="338" y2="86.870489570874966" />
    <polyline points="345,74.74613391789282 359,74.74613391789282 366,86.870489570874966 359,98.994845223857112" />
    <line x1="380" y1="86.870489570874966" x2="387" y2="98.994845223857112" />
    <polyline points="401,74.74613391789282 408,86.870489570874966 401,98.994845223857112" />
    <polyline points="408,86.870489570874966 422,86.870489570874966 429,98.994845223857112" />
    <polyline points="429,74.74613391789282 443,74.74613391789282 450,86.870489570874966 443,98.994845223857112" />
    <polyline points="450,86.870489570874966 464,86.870489570874966 471,98.994845223857112" />
    <polyline points="107,123.24355652982139 114,111.11920087683924 128,111.11920087683924 135,98.9948452238571 149,98.9948452238571" />
    <polyline points="156,111.11920087683924 170,111.11920087683924 177,123.24355652982139" />
    <line x1="170" y1="111.11920087683924" x2="177" y2="98.9948452238571" />
    <polyline points="191,98.9948452238571 198,111.11920087683924 191,123.24355652982139" />
    <polyline points="198,111.11920087683924 212,111.11920087683924 219,123.24355652982139" />
    <line x1="212" y1="111.11920087683924" x2="219" y2="98.9948452238571" />
    <line x1="233" y1="98.9948452238571" x2="240" y2="111.11920087683924" />
    <line x1="254" y1="111.11920087683924" x2="261" y2="123.24355652982139" />
    <line x1="261" y1="98.9948452238571" x2="275" y2="98.9948452238571" />
    <polyline points="275,123.24355652982139 282,111.11920087683924 296,111.11920087683924 303,123.24355652982139" />
    <polyline points="317,98.9948452238571 324,111.11920087683924 317,123.24355652982139" />
    <polyline points="345,123.24355652982139 338,111.11920087683924 345,98.9948452238571 359,98.9948452238571" />
    <polyline points="366,111.11920087683924 380,111.11920087683924 387,123.24355652982139" />
    <line x1="380" y1="111.11920087683924" x2="387" y2="98.9948452238571" />
    <polyline points="401,98.9948452238571 408,111.11920087683924 401,123.24355652982139" />
    <line x1="422" y1="111.11920087683924" x2="429" y2="123.24355652982139" />
    <polyline points="443,98.9948452238571 450,111.11920087683924 443,123.24355652982139" />
    <polyline points="471,123.24355652982139 464,111.11920087683924 471,98.9948452238571 485,98.9948452238571 492,111.11920087683924 506,111.11920087683924 513,123.24355652982139" />
    <polyline points="65,147.49226783578567 72,135.36791218280354 86,135.36791218280354 93,123.24355652982139 107,123.24355652982139" />
    <polyline points="107,147.49226783578567 114,135.36791218280354 128,135.36791218280354 135,123.24355652982139 149,123.24355652982139 156,135.36791218280354 149,147.49226783578567" />
    <polyline points="177,147.49226783578567 170,135.36791218280354 177,123.24355652982139" />
    <polyline points="191,123.24355652982139 198,135.36791218280354 191,147.49226783578567" />
    <line x1="212" y1="135.36791218280354" x2="219" y2="147.49226783578567" />
    <line x1="219" y1="123.24355652982139" x2="233" y2="123.24355652982139" />
    <polyline points="233,147.49226783578567 240,135.36791218280354 254,135.36791218280354 261,147.49226783578567" />
    <line x1="254" y1="135.36791218280354" x2="261" y2="123.24355652982139" />
    <polyline points="275,123.24355652982139 282,135.36791218280354 296,135.36791218280354 303,147.49226783578567" />
    <polyline points="303,123.24355652982139 317,123.24355652982139 324,135.36791218280354 317,147.49226783578567" />
    <polyline points="324,135.36791218280354 338,135.36791218280354 345,147.49226783578567" />
    <polyline points="345,123.24355652982139 359,123.24355652982139 366,135.36791218280354" />
    <polyline points="387,147.49226783578567 380,135.36791218280354 387,123.24355652982139" />
    <polyline points="401,123.24355652982139 408,135.36791218280354 401,147.49226783578567" />
    <polyline points="429,147.49226783578567 422,135.36791218280354 429,123.24355652982139 443,123.24355652982139" />
    <polyline points="450,135.36791218280354 464,135.36791218280354 471,123.24355652982139" />
    <polyline points="485,123.24355652982139 492,135.36791218280354 485,147.49226783578567" />
    <polyline points="513,147.49226783578567 506,135.36791218280354 513,123.24355652982139 527,123.24355652982139 534,135.36791218280354 527,147.49226783578567" />
    <polyline points="534,135.36791218280354 548,135.36791218280354 555,147.49226783578567" />
    <polyline points="23,171.74097914174996 30,159.61662348876783 44,159.61662348876783 51,147.4922678357857 65,147.4922678357857 72,159.61662348876783 65,171.74097914174996" />
    <polyline points="72,159.61662348876783 86,159.61662348876783 93,171.74097914174996" />
    <polyline points="93,147.4922678357857 107,147.4922678357857 114,159.61662348876783 107,171.74097914174996" />
    <polyline points="135,171.74097914174996 128,159.61662348876783 135,147.4922678357857" />
    <polyline points="149,147.4922678357857 156,159.61662348876783 149,171.74097914174996" />
    <polyline points="177,171.74097914174996 170,159.61662348876783 177,147.4922678357857" />
    <polyline points="191,147.4922678357857 198,159.61662348876783 191,171.74097914174996" />
    <polyline points="219,171.74097914174996 212,159.61662348876783 219,147.4922678357857 233,147.4922678357857" />
    <line x1="233" y1="171.74097914174996" x2="240" y2="159.61662348876783" />
    <polyline points="261,171.74097914174996 254,159.61662348876783 261,147.4922678357857 275,147.4922678357857 282,159.61662348876783 275,171.74097914174996" />
    <polyline points="282,159.61662348876783 296,159.61662348876783 303,171.74097914174996" />
    <polyline points="324,159.61662348876783 338,159.61662348876783 345,147.4922678357857 359,147.4922678357857 366,159.61662348876783 380,159.61662348876783 387,171.74097914174996" />
    <line x1="380" y1="159.61662348876783" x2="387" y2="147.4922678357857" />
    <polyline points="401,147.4922678357857 408,159.61662348876783 401,171.74097914174996" />
    <line x1="408" y1="159.61662348876783" x2="422" y2="159.61662348876783" />
    <polyline points="429,147.4922678357857 443,147.4922678357857 450,159.61662348876783 443,171.74097914174996" />
    <polyline points="450,159.61662348876783 464,159.61662348876783 471,171.74097914174996" />
    <polyline points="471,147.4922678357857 485,147.4922678357857 492,159.61662348876783 485,171.74097914174996" />
    <polyline points="492,159.61662348876783 506,159.61662348876783 513,171.74097914174996" />
    <polyline points="527,147.4922678357857 534,159.61662348876783 527,171.74097914174996" />
    <line x1="534" y1="159.61662348876783" x2="548" y2="159.61662348876783" />
    <polyline points="555,147.4922678357857 569,147.4922678357857 576,159.61662348876783 569,171.74097914174996" />
    <polyline points="576,159.61662348876783 590,159.61662348876783 597,171.74097914174996" />
    <polyline points="9,195.98969044771422 2,183.86533479473209 9,171.74097914174996 23,171.74097914174996 30,183.86533479473209 23,195.98969044771422" />
    <line x1="30" y1="183.86533479473209" x2="44" y2="183.86533479473209" />
    <line x1="51" y1="171.74097914174996" x2="65" y2="171.74097914174996" />
    <line x1="65" y1="195.98969044771422" x2="72" y2="183.86533479473209" />
    <line x1="86" y1="183.86533479473209" x2="93" y2="171.74097914174996" />
    <polyline points="107,171.74097914174996 114,183.86533479473209 107,195.98969044771422" />
    <polyline points="135,195.98969044771422 128,183.86533479473209 135,171.74097914174996" />
    <line x1="149" y1="171.74097914174996" x2="156" y2="183.86533479473209" />
    <polyline points="170,183.86533479473209 177,171.74097914174996 191,171.74097914174996 198,183.86533479473209 191,195.98969044771422" />
    <polyline points="212,183.86533479473209 219,171.74097914174996 233,171.74097914174996" />
    <line x1="233" y1="195.98969044771422" x2="240" y2="183.86533479473209" />
    <polyline points="261,195.98969044771422 254,183.86533479473209 261,171.74097914174996" />
    <polyline points="275,195.98969044771422 282,183.86533479473209 296,183.86533479473209 303,195.98969044771422" />
    <polyline points="303,171.74097914174996 317,171.74097914174996 324,183.86533479473209 317,195.98969044771422" />
    <polyline points="345,195.98969044771422 338,183.86533479473209 345,171.74097914174996 359,171.74097914174996 366,183.86533479473209 359,195.98969044771422" />
    <polyline points="366,183.86533479473209 380,183.86533479473209 387,171.74097914174996 401,171.74097914174996 408,183.86533479473209 401,195.98969044771422" />
    <line x1="408" y1="183.86533479473209" x2="422" y2="183.86533479473209" />
    <line x1="429" y1="171.74097914174996" x2="443" y2="171.74097914174996" />
    <line x1="443" y1="195.98969044771422" x2="450" y2="183.86533479473209" />
    <polyline points="464,183.86533479473209 471,171.74097914174996 485,171.74097914174996" />
    <polyline points="485,195.98969044771422 492,183.86533479473209 506,183.86533479473209 513,195.98969044771422" />
    <polyline points="527,171.74097914174996 534,183.86533479473209 527,195.98969044771422" />
    <polyline points="555,195.98969044771422 548,183.86533479473209 555,171.74097914174996 569,171.74097914174996" />
    <polyline points="569,195.98969044771422 576,183.86533479473209 590,183.86533479473209 597,195.98969044771422" />
    <polyline points="597,171.74097914174996 611,171.74097914174996 618,183.86533479473209 611,195.98969044771422" />
    <polyline points="9,220.23840175367852 2,208.11404610069639 9,195.98969044771425" />
    <polyline points="23,195.98969044771425 30,208.11404610069639 23,220.23840175367852" />
    <polyline points="51,220.23840175367852 44,208.11404610069639 51,195.98969044771425 65,195.98969044771425 72,208.11404610069639 86,208.11404610069639 93,220.23840175367852" />
    <polyline points="86,208.11404610069639 93,195.98969044771425 107,195.98969044771425" />
    <polyline points="114,208.11404610069639 128,208.11404610069639 135,195.98969044771425 149,195.98969044771425 156,208.11404610069639 149,220.23840175367852" />
    <polyline points="156,208.11404610069639 170,208.11404610069639 177,195.98969044771425" />
    <polyline points="191,195.98969044771425 198,208.11404610069639 191,220.23840175367852" />
    <polyline points="219,220.23840175367852 212,208.11404610069639 219,195.98969044771425 233,195.98969044771425" />
    <polyline points="233,220.23840175367852 240,208.11404610069639 254,208.11404610069639 261,220.23840175367852" />
    <line x1="254" y1="208.11404610069639" x2="261" y2="195.98969044771425" />
    <polyline points="275,220.23840175367852 282,208.11404610069639 296,208.11404610069639 303,195.98969044771425" />
    <polyline points="317,195.98969044771425 324,208.11404610069639 317,220.23840175367852" />
    <polyline points="324,208.11404610069639 338,208.11404610069639 345,195.98969044771425" />
    <polyline points="359,220.23840175367852 366,208.11404610069639 380,208.11404610069639 387,220.23840175367852" />
    <line x1="380" y1="208.11404610069639" x2="387" y2="195.98969044771425" />
    <polyline points="401,195.98969044771425 408,208.11404610069639 422,208.11404610069639 429,220.23840175367852" />
    <polyline points="429,195.98969044771425 443,195.98969044771425 450,208.11404610069639 464,208.11404610069639 471,220.23840175367852" />
    <polyline points="464,208.11404610069639 471,195.98969044771425 485,195.98969044771425 492,208.11404610069639 485,220.23840175367852" />
    <polyline points="513,220.23840175367852 506,208.11404610069639 513,195.98969044771425 527,195.98969044771425" />
    <polyline points="527,220.23840175367852 534,208.11404610069639 548,208.11404610069639 555,220.23840175367852" />
    <polyline points="548,208.11404610069639 555,195.98969044771425 569,195.98969044771425" />
    <line x1="569" y1="220.23840175367852" x2="576" y2="208.11404610069639" />
    <line x1="590" y1="208.11404610069639" x2="597" y2="195.98969044771425" />
    <polyline points="611,195.98969044771425 618,208.11404610069639 611,220.23840175367852" />
    <polyline points="9,244.48711305964281 2,232.36275740666068 9,220.23840175367855" />
    <polyline points="23,220.23840175367855 30,232.36275740666068 44,232.36275740666068" />
    <polyline points="65,220.23840175367855 72,232.36275740666068 65,244.48711305964281" />
    <polyline points="72,232.36275740666068 86,232.36275740666068 93,244.48711305964281" />
    <polyline points="93,220.23840175367855 107,220.23840175367855 114,232.36275740666068 107,244.48711305964281" />
    <polyline points="114,232.36275740666068 128,232.36275740666068 135,244.48711305964281" />
    <polyline points="135,220.23840175367855 149,220.23840175367855 156,232.36275740666068 149,244.48711305964281" />
    <polyline points="156,232.36275740666068 170,232.36275740666068 177,220.23840175367855 191,220.23840175367855 198,232.36275740666068 212,232.36275740666068 219,244.48711305964281" />
    <line x1="212" y1="232.36275740666068" x2="219" y2="220.23840175367855" />
    <line x1="233" y1="244.48711305964281" x2="240" y2="232.36275740666068" />
    <polyline points="261,244.48711305964281 254,232.36275740666068 261,220.23840175367855" />
    <polyline points="275,220.23840175367855 282,232.36275740666068 296,232.36275740666068 303,244.48711305964281" />
    <line x1="303" y1="220.23840175367855" x2="317" y2="220.23840175367855" />
    <line x1="317" y1="244.48711305964281" x2="324" y2="232.36275740666068" />
    <polyline points="345,244.48711305964281 338,232.36275740666068 345,220.23840175367855 359,220.23840175367855 366,232.36275740666068 359,244.48711305964281" />
    <line x1="380" y1="232.36275740666068" x2="387" y2="244.48711305964281" />
    <polyline points="387,220.23840175367855 401,220.23840175367855 408,232.36275740666068 422,232.36275740666068 429,244.48711305964281" />
    <polyline points="429,220.23840175367855 443,220.23840175367855 450,232.36275740666068 464,232.36275740666068 471,244.48711305964281" />
    <line x1="485" y1="220.23840175367855" x2="492" y2="232.36275740666068" />
    <polyline points="513,244.48711305964281 506,232.36275740666068 513,220.23840175367855" />
    <line x1="527" y1="220.23840175367855" x2="534" y2="232.36275740666068" />
    <polyline points="555,244.48711305964281 548,232.36275740666068 555,220.23840175367855" />
    <polyline points="569,220.23840175367855 576,232.36275740666068 590,232.36275740666068 597,220.23840175367855 611,220.23840175367855 618,232.36275740666068 611,244.48711305964281" />
    <polyline points="9,268.73582436560707 2,256.61146871262491 9,244.48711305964278 23,244.48711305964278" />
    <polyline points="23,268.73582436560707 30,256.61146871262491 44,256.61146871262491 51,268.73582436560707" />
    <polyline points="44,256.61146871262491 51,244.48711305964278 65,244.48711305964278" />
    <line x1="65" y1="268.73582436560707" x2="72" y2="256.61146871262491" />
    <polyline points="93,268.73582436560707 86,256.61146871262491 93,244.48711305964278" />
    <line x1="107" y1="244.48711305964278" x2="114" y2="256.61146871262491" />
    <line x1="128" y1="256.61146871262491" x2="135" y2="268.73582436560707" />
    <polyline points="135,244.48711305964278 149,244.48711305964278 156,256.61146871262491 149,268.73582436560707" />
    <polyline points="177,268.73582436560707 170,256.61146871262491 177,244.48711305964278 191,244.48711305964278 198,256.61146871262491 191,268.73582436560707" />
    <line x1="198" y1="256.61146871262491" x2="212" y2="256.61146871262491" />
    <polyline points="219,244.48711305964278 233,244.48711305964278 240,256.61146871262491 233,268.73582436560707" />
    <polyline points="261,268.73582436560707 254,256.61146871262491 261,244.48711305964278 275,244.48711305964278 282,256.61146871262491 275,268.73582436560707" />
    <polyline points="282,256.61146871262491 296,256.61146871262491 303,244.48711305964278 317,244.48711305964278" />
    <polyline points="317,268.73582436560707 324,256.61146871262491 338,256.61146871262491 345,244.48711305964278" />
    <polyline points="359,244.48711305964278 366,256.61146871262491 359,268.73582436560707" />
    <polyline points="387,268.73582436560707 380,256.61146871262491 387,244.48711305964278" />
    <polyline points="401,244.48711305964278 408,256.61146871262491 401,268.73582436560707" />
    <polyline points="422,256.61146871262491 429,244.48711305964278 443,244.48711305964278" />
    <polyline points="443,268.73582436560707 450,256.61146871262491 464,256.61146871262491 471,244.48711305964278" />
    <polyline points="485,244.48711305964278 492,256.61146871262491 506,256.61146871262491 513,268.73582436560707" />
    <line x1="513" y1="244.48711305964278" x2="527" y2="244.48711305964278" />
    <polyline points="527,268.73582436560707 534,256.61146871262491 548,256.61146871262491 555,244.48711305964278 569,244.48711305964278 576,256.61146871262491 590,256.61146871262491 597,244.48711305964278" />
    <polyline points="611,244.48711305964278 618,256.61146871262491 611,268.73582436560707" />
    <polyline points="9,292.98453567157134 2,280.86018001858918 9,268.735824365607 23,268.735824365607" />
    <polyline points="30,280.86018001858918 44,280.86018001858918 51,292.98453567157134" />
    <polyline points="65,268.735824365607 72,280.86018001858918 65,292.98453567157134" />
    <polyline points="72,280.86018001858918 86,280.86018001858918 93,292.98453567157134" />
    <polyline points="86,280.86018001858918 93,268.735824365607 107,268.735824365607 114,280.86018001858918 128,280.86018001858918 135,268.735824365607" />
    <polyline points="149,268.735824365607 156,280.86018001858918 149,292.98453567157134" />
    <polyline points="177,292.98453567157134 170,280.86018001858918 177,268.735824365607" />
    <polyline points="191,268.735824365607 198,280.86018001858918 191,292.98453567157134" />
    <polyline points="198,280.86018001858918 212,280.86018001858918 219,292.98453567157134" />
    <polyline points="219,268.735824365607 233,268.735824365607 240,280.86018001858918 233,292.98453567157134" />
    <polyline points="240,280.86018001858918 254,280.86018001858918 261,292.98453567157134" />
    <polyline points="275,292.98453567157134 282,280.86018001858918 296,280.86018001858918 303,292.98453567157134" />
    <polyline points="296,280.86018001858918 303,268.735824365607 317,268.735824365607 324,280.86018001858918 317,292.98453567157134" />
    <polyline points="345,292.98453567157134 338,280.86018001858918 345,268.735824365607 359,268.735824365607 366,280.86018001858918 359,292.98453567157134" />
    <line x1="380" y1="280.86018001858918" x2="387" y2="292.98453567157134" />
    <polyline points="387,268.735824365607 401,268.735824365607 408,280.86018001858918 401,292.98453567157134" />
    <line x1="408" y1="280.86018001858918" x2="422" y2="280.86018001858918" />
    <polyline points="429,268.735824365607 443,268.735824365607 450,280.86018001858918 464,280.86018001858918 471,268.735824365607 485,268.735824365607" />
    <polyline points="485,292.98453567157134 492,280.86018001858918 506,280.86018001858918 513,292.98453567157134" />
    <polyline points="506,280.86018001858918 513,268.735824365607 527,268.735824365607" />
    <polyline points="534,280.86018001858918 548,280.86018001858918 555,268.735824365607 569,268.735824365607 576,280.86018001858918 590,280.86018001858918 597,292.98453567157134" />
    <polyline points="597,268.735824365607 611,268.735824365607 618,280.86018001858918 611,292.98453567157134" />
    <polyline points="9,317.23324697753566 2,305.1088913245535 9,292.98453567157134 23,292.98453567157134" />
    <polyline points="30,305.1088913245535 44,305.1088913245535 51,317.23324697753566" />
    <line x1="51" y1="292.98453567157134" x2="65" y2="292.98453567157134" />
    <polyline points="65,317.23324697753566 72,305.1088913245535 86,305.1088913245535 93,317.23324697753566" />
    <line x1="86" y1="305.1088913245535" x2="93" y2="292.98453567157134" />
    <polyline points="107,292.98453567157134 114,305.1088913245535 128,305.1088913245535 135,292.98453567157134 149,292.98453567157134 156,305.1088913245535 170,305.1088913245535 177,317.23324697753566" />
    <polyline points="191,292.98453567157134 198,305.1088913245535 212,305.1088913245535" />
    <polyline points="219,292.98453567157134 233,292.98453567157134 240,305.1088913245535 233,317.23324697753566" />
    <polyline points="254,305.1088913245535 261,292.98453567157134 275,292.98453567157134" />
    <line x1="275" y1="317.23324697753566" x2="282" y2="305.1088913245535" />
    <line x1="296" y1="305.1088913245535" x2="303" y2="292.98453567157134" />
    <polyline points="317,292.98453567157134 324,305.1088913245535 317,317.23324697753566" />
    <polyline points="324,305.1088913245535 338,305.1088913245535 345,317.23324697753566" />
    <polyline points="359,317.23324697753566 366,305.1088913245535 380,305.1088913245535 387,317.23324697753566" />
    <polyline points="380,305.1088913245535 387,292.98453567157134 401,292.98453567157134" />
    <polyline points="401,317.23324697753566 408,305.1088913245535 422,305.1088913245535 429,292.98453567157134 443,292.98453567157134 450,305.1088913245535 443,317.23324697753566" />
    <polyline points="450,305.1088913245535 464,305.1088913245535 471,317.23324697753566" />
    <polyline points="464,305.1088913245535 471,292.98453567157134 485,292.98453567157134" />
    <polyline points="485,317.23324697753566 492,305.1088913245535 506,305.1088913245535 513,292.98453567157134 527,292.98453567157134 534,305.1088913245535" />
    <polyline points="555,317.23324697753566 548,305.1088913245535 555,292.98453567157134" />
    <polyline points="569,292.98453567157134 576,305.1088913245535 569,317.23324697753566" />
    <polyline points="597,317.23324697753566 590,305.1088913245535 597,292.98453567157134" />
    <polyline points="611,292.98453567157134 618,305.1088913245535 611,317.23324697753566" />
    <polyline points="9,341.48195828349992 2,329.35760263051776 9,317.2332469775356 23,317.2332469775356 30,329.35760263051776" />
    <line x1="44" y1="329.35760263051776" x2="51" y2="341.48195828349992" />
    <line x1="51" y1="317.2332469775356" x2="65" y2="317.2332469775356" />
    <polyline points="65,341.48195828349992 72,329.35760263051776 86,329.35760263051776 93,317.2332469775356" />
    <polyline points="107,317.2332469775356 114,329.35760263051776 107,341.48195828349992" />
    <polyline points="114,329.35760263051776 128,329.35760263051776 135,341.48195828349992" />
    <polyline points="128,329.35760263051776 135,317.2332469775356 149,317.2332469775356 156,329.35760263051776 170,329.35760263051776 177,341.48195828349992" />
    <polyline points="177,317.2332469775356 191,317.2332469775356 198,329.35760263051776 212,329.35760263051776" />
    <line x1="219" y1="317.2332469775356" x2="233" y2="317.2332469775356" />
    <line x1="233" y1="341.48195828349992" x2="240" y2="329.35760263051776" />
    <polyline points="261,341.48195828349992 254,329.35760263051776 261,317.2332469775356 275,317.2332469775356 282,329.35760263051776" />
    <polyline points="303,341.48195828349992 296,329.35760263051776 303,317.2332469775356" />
    <polyline points="317,317.2332469775356 324,329.35760263051776 338,329.35760263051776 345,341.48195828349992" />
    <polyline points="345,317.2332469775356 359,317.2332469775356 366,329.35760263051776 359,341.48195828349992" />
    <polyline points="387,341.48195828349992 380,329.35760263051776 387,317.2332469775356" />
    <line x1="401" y1="317.2332469775356" x2="408" y2="329.35760263051776" />
    <polyline points="429,341.48195828349992 422,329.35760263051776 429,317.2332469775356 443,317.2332469775356" />
    <line x1="443" y1="341.48195828349992" x2="450" y2="329.35760263051776" />
    <polyline points="471,341.48195828349992 464,329.35760263051776 471,317.2332469775356" />
    <line x1="485" y1="341.48195828349992" x2="492" y2="329.35760263051776" />
    <polyline points="513,341.48195828349992 506,329.35760263051776 513,317.2332469775356" />
    <polyline points="527,317.2332469775356 534,329.35760263051776 527,341.48195828349992" />
    <polyline points="534,329.35760263051776 548,329.35760263051776 555,317.2332469775356 569,317.2332469775356" />
    <polyline points="569,341.48195828349992 576,329.35760263051776 590,329.35760263051776 597,341.48195828349992" />
    <line x1="590" y1="329.35760263051776" x2="597" y2="317.2332469775356" />
    <polyline points="611,317.2332469775356 618,329.35760263051776 611,341.48195828349992" />
    <polyline points="9,365.73066958946418 2,353.606313936482 9,341.48195828349986 23,341.48195828349986" />
    <polyline points="23,365.73066958946418 30,353.606313936482 44,353.606313936482 51,341.48195828349986 65,341.48195828349986 72,353.606313936482 65,365.73066958946418" />
    <polyline points="72,353.606313936482 86,353.606313936482 93,341.48195828349986 107,341.48195828349986 114,353.606313936482 128,353.606313936482 135,365.73066958946418" />
    <line x1="135" y1="341.48195828349986" x2="149" y2="341.48195828349986" />
    <line x1="149" y1="365.73066958946418" x2="156" y2="353.606313936482" />
    <polyline points="177,365.73066958946418 170,353.606313936482 177,341.48195828349986 191,341.48195828349986 198,353.606313936482 191,365.73066958946418" />
    <polyline points="198,353.606313936482 212,353.606313936482 219,365.73066958946418" />
    <polyline points="212,353.606313936482 219,341.48195828349986 233,341.48195828349986" />
    <polyline points="240,353.606313936482 254,353.606313936482 261,365.73066958946418" />
    <polyline points="254,353.606313936482 261,341.48195828349986 275,341.48195828349986 282,353.606313936482 296,353.606313936482 303,365.73066958946418" />
    <line x1="296" y1="353.606313936482" x2="303" y2="341.48195828349986" />
    <polyline points="317,341.48195828349986 324,353.606313936482 317,365.73066958946418" />
    <polyline points="324,353.606313936482 338,353.606313936482 345,365.73066958946418" />
    <line x1="338" y1="353.606313936482" x2="345" y2="341.48195828349986" />
    <line x1="359" y1="341.48195828349986" x2="366" y2="353.606313936482" />
    <polyline points="380,353.606313936482 387,341.48195828349986 401,341.48195828349986 408,353.606313936482 401,365.73066958946418" />
    <line x1="422" y1="353.606313936482" x2="429" y2="365.73066958946418" />
    <polyline points="443,341.48195828349986 450,353.606313936482 443,365.73066958946418" />
    <polyline points="464,353.606313936482 471,341.48195828349986 485,341.48195828349986" />
    <polyline points="485,365.73066958946418 492,353.606313936482 506,353.606313936482 513,341.48195828349986" />
    <polyline points="527,341.48195828349986 534,353.606313936482 527,365.73066958946418" />
    <polyline points="534,353.606313936482 548,353.606313936482 555,365.73066958946418" />
    <line x1="555" y1="341.48195828349986" x2="569" y2="341.48195828349986" />
    <polyline points="569,365.73066958946418 576,353.606313936482 590,353.606313936482 597,365.73066958946418" />
    <polyline points="597,341.48195828349986 611,341.48195828349986 618,353.606313936482 611,365.73066958946418" />
    <polyline points="9,389.97938089542851 2,377.85502524244635 9,365.73066958946418" />
    <line x1="23" y1="365.73066958946418" x2="30" y2="377.85502524244635" />
    <polyline points="51,389.97938089542851 44,377.85502524244635 51,365.73066958946418" />
    <line x1="65" y1="365.73066958946418" x2="72" y2="377.85502524244635" />
    <polyline points="86,377.85502524244635 93,365.73066958946418 107,365.73066958946418 114,377.85502524244635 107,389.97938089542851" />
    <polyline points="114,377.85502524244635 128,377.85502524244635 135,389.97938089542851" />
    <line x1="135" y1="365.73066958946418" x2="149" y2="365.73066958946418" />
    <polyline points="149,389.97938089542851 156,377.85502524244635 170,377.85502524244635" />
    <line x1="191" y1="389.97938089542851" x2="198" y2="377.85502524244635" />
    <polyline points="219,389.97938089542851 212,377.85502524244635 219,365.73066958946418" />
    <polyline points="233,365.73066958946418 240,377.85502524244635 254,377.85502524244635 261,389.97938089542851" />
    <line x1="254" y1="377.85502524244635" x2="261" y2="365.73066958946418" />
    <polyline points="275,365.73066958946418 282,377.85502524244635 275,389.97938089542851" />
    <polyline points="282,377.85502524244635 296,377.85502524244635 303,389.97938089542851" />
    <line x1="296" y1="377.85502524244635" x2="303" y2="365.73066958946418" />
    <line x1="317" y1="365.73066958946418" x2="324" y2="377.85502524244635" />
    <line x1="338" y1="377.85502524244635" x2="345" y2="389.97938089542851" />
    <polyline points="359,365.73066958946418 366,377.85502524244635 359,389.97938089542851" />
    <polyline points="366,377.85502524244635 380,377.85502524244635 387,365.73066958946418 401,365.73066958946418 408,377.85502524244635 401,389.97938089542851" />
    <polyline points="422,377.85502524244635 429,365.73066958946418 443,365.73066958946418 450,377.85502524244635 443,389.97938089542851" />
    <polyline points="450,377.85502524244635 464,377.85502524244635 471,389.97938089542851" />
    <polyline points="464,377.85502524244635 471,365.73066958946418 485,365.73066958946418 492,377.85502524244635 485,389.97938089542851" />
    <line x1="506" y1="377.85502524244635" x2="513" y2="389.97938089542851" />
    <line x1="513" y1="365.73066958946418" x2="527" y2="365.73066958946418" />
    <line x1="527" y1="389.97938089542851" x2="534" y2="377.85502524244635" />
    <polyline points="548,377.85502524244635 555,365.73066958946418 569,365.73066958946418 576,377.85502524244635 590,377.85502524244635 597,389.97938089542851" />
    <polyline points="611,365.73066958946418 618,377.85502524244635 611,389.97938089542851" />
    <polyline points="9,414.22809220139277 2,402.10373654841061 9,389.97938089542845 23,389.97938089542845" />
    <polyline points="23,414.22809220139277 30,402.10373654841061 44,402.10373654841061 51,414.22809220139277" />
    <line x1="44" y1="402.10373654841061" x2="51" y2="389.97938089542845" />
    <polyline points="65,389.97938089542845 72,402.10373654841061 65,414.22809220139277" />
    <polyline points="72,402.10373654841061 86,402.10373654841061 93,389.97938089542845" />
    <polyline points="107,389.97938089542845 114,402.10373654841061 107,414.22809220139277" />
    <line x1="128" y1="402.10373654841061" x2="135" y2="414.22809220139277" />
    <line x1="135" y1="389.97938089542845" x2="149" y2="389.97938089542845" />
    <polyline points="149,414.22809220139277 156,402.10373654841061 170,402.10373654841061 177,414.22809220139277" />
    <polyline points="170,402.10373654841061 177,389.97938089542845 191,389.97938089542845" />
    <polyline points="198,402.10373654841061 212,402.10373654841061 219,414.22809220139277" />
    <line x1="212" y1="402.10373654841061" x2="219" y2="389.97938089542845" />
    <polyline points="233,389.97938089542845 240,402.10373654841061 233,414.22809220139277" />
    <polyline points="240,402.10373654841061 254,402.10373654841061 261,414.22809220139277" />
    <polyline points="275,389.97938089542845 282,402.10373654841061 275,414.22809220139277" />
    <line x1="296" y1="402.10373654841061" x2="303" y2="414.22809220139277" />
    <polyline points="303,389.97938089542845 317,389.97938089542845 324,402.10373654841061 317,414.22809220139277" />
    <polyline points="324,402.10373654841061 338,402.10373654841061 345,389.97938089542845 359,389.97938089542845" />
    <line x1="359" y1="414.22809220139277" x2="366" y2="402.10373654841061" />
    <polyline points="380,402.10373654841061 387,389.97938089542845 401,389.97938089542845 408,402.10373654841061 401,414.22809220139277" />
    <polyline points="408,402.10373654841061 422,402.10373654841061 429,414.22809220139277" />
    <line x1="422" y1="402.10373654841061" x2="429" y2="389.97938089542845" />
    <polyline points="443,414.22809220139277 450,402.10373654841061 464,402.10373654841061 471,414.22809220139277" />
    <polyline points="485,389.97938089542845 492,402.10373654841061 485,414.22809220139277" />
    <polyline points="492,402.10373654841061 506,402.10373654841061 513,414.22809220139277" />
    <polyline points="513,389.97938089542845 527,389.97938089542845 534,402.10373654841061 527,414.22809220139277" />
    <polyline points="534,402.10373654841061 548,402.10373654841061 555,414.22809220139277" />
    <polyline points="548,402.10373654841061 555,389.97938089542845 569,389.97938089542845" />
    <polyline points="569,414.22809220139277 576,402.10373654841061 590,402.10373654841061 597,414.22809220139277" />
    <polyline points="597,389.97938089542845 611,389.97938089542845 618,402.10373654841061 611,414.22809220139277" />
    <polyline points="9,438.47680350735703 2,426.35244785437487 9,414.22809220139271" />
    <polyline points="23,414.22809220139271 30,426.35244785437487 44,426.35244785437487 51,438.47680350735703" />
    <line x1="51" y1="414.22809220139271" x2="65" y2="414.22809220139271" />
    <polyline points="65,438.47680350735703 72,426.35244785437487 86,426.35244785437487 93,438.47680350735703" />
    <polyline points="86,426.35244785437487 93,414.22809220139271 107,414.22809220139271 114,426.35244785437487" />
    <polyline points="135,438.47680350735703 128,426.35244785437487 135,414.22809220139271" />
    <polyline points="149,438.47680350735703 156,426.35244785437487 170,426.35244785437487 177,438.47680350735703" />
    <line x1="170" y1="426.35244785437487" x2="177" y2="414.22809220139271" />
    <polyline points="191,414.22809220139271 198,426.35244785437487 191,438.47680350735703" />
    <polyline points="198,426.35244785437487 212,426.35244785437487 219,414.22809220139271" />
    <polyline points="233,414.22809220139271 240,426.35244785437487 233,438.47680350735703" />
    <polyline points="240,426.35244785437487 254,426.35244785437487 261,438.47680350735703" />
    <polyline points="261,414.22809220139271 275,414.22809220139271 282,426.35244785437487" />
    <polyline points="303,438.47680350735703 296,426.35244785437487 303,414.22809220139271" />
    <line x1="317" y1="414.22809220139271" x2="324" y2="426.35244785437487" />
    <polyline points="345,438.47680350735703 338,426.35244785437487 345,414.22809220139271 359,414.22809220139271 366,426.35244785437487 359,438.47680350735703" />
    <polyline points="366,426.35244785437487 380,426.35244785437487 387,438.47680350735703" />
    <polyline points="387,414.22809220139271 401,414.22809220139271 408,426.35244785437487 401,438.47680350735703" />
    <polyline points="408,426.35244785437487 422,426.35244785437487 429,438.47680350735703" />
    <line x1="429" y1="414.22809220139271" x2="443" y2="414.22809220139271" />
    <line x1="443" y1="438.47680350735703" x2="450" y2="426.35244785437487" />
    <polyline points="471,438.47680350735703 464,426.35244785437487 471,414.22809220139271 485,414.22809220139271" />
    <polyline points="492,426.35244785437487 506,426.35244785437487 513,438.47680350735703" />
    <line x1="506" y1="426.35244785437487" x2="513" y2="414.22809220139271" />
    <polyline points="527,414.22809220139271 534,426.35244785437487 548,426.35244785437487 555,438.47680350735703" />
    <polyline points="569,414.22809220139271 576,426.35244785437487 569,438.47680350735703" />
    <line x1="590" y1="426.35244785437487" x2="597" y2="438.47680350735703" />
    <polyline points="611,414.22809220139271 618,426.35244785437487 611,438.47680350735703" />
    <polyline points="9,462.72551481332135 2,450.60115916033919 9,438.47680350735703 23,438.47680350735703 30,450.60115916033919 23,462.72551481332135" />
    <polyline points="44,450.60115916033919 51,438.47680350735703 65,438.47680350735703 72,450.60115916033919 65,462.72551481332135" />
    <polyline points="86,450.60115916033919 93,438.47680350735703 107,438.47680350735703 114,450.60115916033919" />
    <polyline points="135,462.72551481332135 128,450.60115916033919 135,438.47680350735703 149,438.47680350735703" />
    <polyline points="156,450.60115916033919 170,450.60115916033919 177,438.47680350735703" />
    <polyline points="191,438.47680350735703 198,450.60115916033919 191,462.72551481332135" />
    <line x1="198" y1="450.60115916033919" x2="212" y2="450.60115916033919" />
    <line x1="219" y1="438.47680350735703" x2="233" y2="438.47680350735703" />
    <polyline points="240,450.60115916033919 254,450.60115916033919 261,462.72551481332135" />
    <line x1="261" y1="438.47680350735703" x2="275" y2="438.47680350735703" />
    <polyline points="275,462.72551481332135 282,450.60115916033919 296,450.60115916033919 303,438.47680350735703 317,438.47680350735703 324,450.60115916033919 317,462.72551481332135" />
    <polyline points="345,462.72551481332135 338,450.60115916033919 345,438.47680350735703" />
    <polyline points="359,438.47680350735703 366,450.60115916033919 380,450.60115916033919 387,462.72551481332135" />
    <polyline points="401,438.47680350735703 408,450.60115916033919 401,462.72551481332135" />
    <line x1="408" y1="450.60115916033919" x2="422" y2="450.60115916033919" />
    <polyline points="429,438.47680350735703 443,438.47680350735703 450,450.60115916033919 443,462.72551481332135" />
    <polyline points="450,450.60115916033919 464,450.60115916033919 471,462.72551481332135" />
    <polyline points="471,438.47680350735703 485,438.47680350735703 492,450.60115916033919 485,462.72551481332135" />
    <line x1="492" y1="450.60115916033919" x2="506" y2="450.60115916033919" />
    <polyline points="513,438.47680350735703 527,438.47680350735703 534,450.60115916033919 527,462.72551481332135" />
    <polyline points="534,450.60115916033919 548,450.60115916033919 555,462.72551481332135" />
    <polyline points="555,438.47680350735703 569,438.47680350735703 576,450.60115916033919 569,462.72551481332135" />
    <line x1="576" y1="450.60115916033919" x2="590" y2="450.60115916033919" />
    <polyline points="597,438.47680350735703 611,438.47680350735703 618,450.60115916033919 611,462.72551481332135" />
    <polyline points="9,486.97422611928562 2,474.84987046630346 9,462.7255148133213" />
    <polyline points="23,462.7255148133213 30,474.84987046630346 44,474.84987046630346 51,486.97422611928562" />
    <line x1="44" y1="474.84987046630346" x2="51" y2="462.7255148133213" />
    <polyline points="65,462.7255148133213 72,474.84987046630346 86,474.84987046630346 93,486.97422611928562" />
    <polyline points="86,474.84987046630346 93,462.7255148133213 107,462.7255148133213" />
    <polyline points="107,486.97422611928562 114,474.84987046630346 128,474.84987046630346 135,486.97422611928562" />
    <polyline points="128,474.84987046630346 135,462.7255148133213 149,462.7255148133213 156,474.84987046630346 149,486.97422611928562" />
    <line x1="170" y1="474.84987046630346" x2="177" y2="486.97422611928562" />
    <polyline points="177,462.7255148133213 191,462.7255148133213 198,474.84987046630346 191,486.97422611928562" />
    <polyline points="219,486.97422611928562 212,474.84987046630346 219,462.7255148133213 233,462.7255148133213" />
    <polyline points="233,486.97422611928562 240,474.84987046630346 254,474.84987046630346 261,462.7255148133213 275,462.7255148133213 282,474.84987046630346 275,486.97422611928562" />
    <polyline points="303,486.97422611928562 296,474.84987046630346 303,462.7255148133213 317,462.7255148133213" />
    <polyline points="317,486.97422611928562 324,474.84987046630346 338,474.84987046630346 345,486.97422611928562" />
    <line x1="345" y1="462.7255148133213" x2="359" y2="462.7255148133213" />
    <polyline points="359,486.97422611928562 366,474.84987046630346 380,474.84987046630346 387,462.7255148133213 401,462.7255148133213 408,474.84987046630346 401,486.97422611928562" />
    <polyline points="429,486.97422611928562 422,474.84987046630346 429,462.7255148133213 443,462.7255148133213" />
    <polyline points="443,486.97422611928562 450,474.84987046630346 464,474.84987046630346 471,486.97422611928562" />
    <polyline points="492,474.84987046630346 506,474.84987046630346 513,462.7255148133213 527,462.7255148133213" />
    <polyline points="527,486.97422611928562 534,474.84987046630346 548,474.84987046630346 555,486.97422611928562" />
    <line x1="548" y1="474.84987046630346" x2="555" y2="462.7255148133213" />
    <polyline points="569,462.7255148133213 576,474.84987046630346 569,486.97422611928562" />
    <line x1="576" y1="474.84987046630346" x2="590" y2="474.84987046630346" />
    <polyline points="597,462.7255148133213 611,462.7255148133213 618,474.84987046630346 611,486.97422611928562" />
    <polyline points="9,511.22293742524988 2,499.09858177226772 9,486.97422611928556 23,486.97422611928556 30,499.09858177226772 23,511.22293742524988" />
    <polyline points="44,499.09858177226772 51,486.97422611928556 65,486.97422611928556" />
    <polyline points="65,511.22293742524988 72,499.09858177226772 86,499.09858177226772 93,486.97422611928556" />
    <polyline points="107,486.97422611928556 114,499.09858177226772 107,511.22293742524988" />
    <line x1="128" y1="499.09858177226772" x2="135" y2="511.22293742524988" />
    <polyline points="149,486.97422611928556 156,499.09858177226772 149,511.22293742524988" />
    <polyline points="170,499.09858177226772 177,486.97422611928556 191,486.97422611928556" />
    <polyline points="191,511.22293742524988 198,499.09858177226772 212,499.09858177226772 219,511.22293742524988" />
    <line x1="212" y1="499.09858177226772" x2="219" y2="486.97422611928556" />
    <polyline points="233,486.97422611928556 240,499.09858177226772 233,511.22293742524988" />
    <polyline points="240,499.09858177226772 254,499.09858177226772 261,486.97422611928556" />
    <polyline points="275,486.97422611928556 282,499.09858177226772 296,499.09858177226772 303,511.22293742524988" />
    <polyline points="317,486.97422611928556 324,499.09858177226772 317,511.22293742524988" />
    <polyline points="338,499.09858177226772 345,486.97422611928556 359,486.97422611928556" />
    <polyline points="366,499.09858177226772 380,499.09858177226772 387,511.22293742524988" />
    <polyline points="380,499.09858177226772 387,486.97422611928556 401,486.97422611928556" />
    <polyline points="408,499.09858177226772 422,499.09858177226772 429,486.97422611928556 443,486.97422611928556 450,499.09858177226772 443,511.22293742524988" />
    <line x1="464" y1="499.09858177226772" x2="471" y2="511.22293742524988" />
    <polyline points="485,486.97422611928556 492,499.09858177226772 485,511.22293742524988" />
    <polyline points="492,499.09858177226772 506,499.09858177226772 513,486.97422611928556 527,486.97422611928556" />
    <polyline points="527,511.22293742524988 534,499.09858177226772 548,499.09858177226772 555,511.22293742524988" />
    <polyline points="569,486.97422611928556 576,499.09858177226772 590,499.09858177226772 597,486.97422611928556 611,486.97422611928556 618,499.09858177226772 611,511.22293742524988" />
    <polyline points="9,535.47164873121415 2,523.347293078232 9,511.22293742524988" />
    <polyline points="23,535.47164873121415 30,523.347293078232 44,523.347293078232 51,535.47164873121415" />
    <polyline points="44,523.347293078232 51,511.22293742524988 65,511.22293742524988" />
    <polyline points="65,535.47164873121415 72,523.347293078232 86,523.347293078232 93,511.22293742524988 107,511.22293742524988 114,523.347293078232 107,535.47164873121415" />
    <polyline points="128,523.347293078232 135,511.22293742524988 149,511.22293742524988 156,523.347293078232 170,523.347293078232 177,535.47164873121415" />
    <polyline points="170,523.347293078232 177,511.22293742524988 191,511.22293742524988" />
    <line x1="191" y1="535.47164873121415" x2="198" y2="523.347293078232" />
    <polyline points="212,523.347293078232 219,511.22293742524988 233,511.22293742524988 240,523.347293078232 233,535.47164873121415" />
    <polyline points="240,523.347293078232 254,523.347293078232 261,535.47164873121415" />
    <polyline points="254,523.347293078232 261,511.22293742524988 275,511.22293742524988 282,523.347293078232" />
    <polyline points="303,535.47164873121415 296,523.347293078232 303,511.22293742524988" />
    <polyline points="317,511.22293742524988 324,523.347293078232 317,535.47164873121415" />
    <polyline points="324,523.347293078232 338,523.347293078232 345,511.22293742524988 359,511.22293742524988" />
    <polyline points="359,535.47164873121415 366,523.347293078232 380,523.347293078232" />
    <polyline points="387,511.22293742524988 401,511.22293742524988 408,523.347293078232 401,535.47164873121415" />
    <polyline points="408,523.347293078232 422,523.347293078232 429,511.22293742524988" />
    <polyline points="443,511.22293742524988 450,523.347293078232 443,535.47164873121415" />
    <line x1="464" y1="523.347293078232" x2="471" y2="535.47164873121415" />
    <line x1="471" y1="511.22293742524988" x2="485" y2="511.22293742524988" />
    <polyline points="485,535.47164873121415 492,523.347293078232 506,523.347293078232 513,511.22293742524988 527,511.22293742524988 534,523.347293078232" />
    <polyline points="555,535.47164873121415 548,523.347293078232 555,511.22293742524988 569,511.22293742524988" />
    <polyline points="569,535.47164873121415 576,523.347293078232 590,523.347293078232 597,511.22293742524988" />
    <polyline points="611,511.22293742524988 618,523.347293078232 611,535.47164873121415" />
    <polyline points="9,535.47164873121415 23,535.47164873121415 30,547.59600438419625 44,547.59600438419625 51,559.72036003717835" />
    <line x1="51" y1="535.47164873121415" x2="65" y2="535.47164873121415" />
    <polyline points="65,559.72036003717835 72,547.59600438419625 86,547.59600438419625 93,559.72036003717835" />
    <line x1="86" y1="547.59600438419625" x2="93" y2="535.47164873121415" />
    <polyline points="107,535.47164873121415 114,547.59600438419625 107,559.72036003717835" />
    <polyline points="114,547.59600438419625 128,547.59600438419625 135,559.72036003717835" />
    <polyline points="128,547.59600438419625 135,535.47164873121415 149,535.47164873121415" />
    <line x1="149" y1="559.72036003717835" x2="156" y2="547.59600438419625" />
    <polyline points="177,559.72036003717835 170,547.59600438419625 177,535.47164873121415" />
    <polyline points="191,535.47164873121415 198,547.59600438419625 212,547.59600438419625 219,559.72036003717835" />
    <polyline points="212,547.59600438419625 219,535.47164873121415 233,535.47164873121415" />
    <polyline points="233,559.72036003717835 240,547.59600438419625 254,547.59600438419625 261,559.72036003717835" />
    <polyline points="275,535.47164873121415 282,547.59600438419625 275,559.72036003717835" />
    <polyline points="282,547.59600438419625 296,547.59600438419625 303,559.72036003717835" />
    <line x1="296" y1="547.59600438419625" x2="303" y2="535.47164873121415" />
    <line x1="317" y1="535.47164873121415" x2="324" y2="547.59600438419625" />
    <polyline points="338,547.59600438419625 345,535.47164873121415 359,535.47164873121415 366,547.59600438419625 359,559.72036003717835" />
    <polyline points="366,547.59600438419625 380,547.59600438419625 387,559.72036003717835" />
    <polyline points="387,535.47164873121415 401,535.47164873121415 408,547.59600438419625 401,559.72036003717835" />
    <polyline points="429,559.72036003717835 422,547.59600438419625 429,535.47164873121415" />
    <polyline points="443,535.47164873121415 450,547.59600438419625 443,559.72036003717835" />
    <polyline points="471,559.72036003717835 464,547.59600438419625 471,535.47164873121415" />
    <line x1="485" y1="535.47164873121415" x2="492" y2="547.59600438419625" />
    <polyline points="513,559.72036003717835 506,547.59600438419625 513,535.47164873121415 527,535.47164873121415" />
    <polyline points="527,559.72036003717835 534,547.59600438419625 548,547.59600438419625 555,535.47164873121415" />
    <polyline points="569,535.47164873121415 576,547.59600438419625 569,559.72036003717835" />
    <polyline points="576,547.59600438419625 590,547.59600438419625 597,535.47164873121415 611,535.47164873121415" />
    <polyline points="51,559.72036003717858 65,559.72036003717858 72,571.84471569016068 86,571.84471569016068 93,583.96907134314279" />
    <line x1="107" y1="559.72036003717858" x2="114" y2="571.84471569016068" />
    <line x1="128" y1="571.84471569016068" x2="135" y2="559.72036003717858" />
    <polyline points="149,559.72036003717858 156,571.84471569016068 149,583.96907134314279" />
    <polyline points="177,583.96907134314279 170,571.84471569016068 177,559.72036003717858 191,559.72036003717858 198,571.84471569016068 191,583.96907134314279" />
    <polyline points="219,583.96907134314279 212,571.84471569016068 219,559.72036003717858 233,559.72036003717858" />
    <polyline points="240,571.84471569016068 254,571.84471569016068 261,559.72036003717858" />
    <line x1="275" y1="583.96907134314279" x2="282" y2="571.84471569016068" />
    <polyline points="303,583.96907134314279 296,571.84471569016068 303,559.72036003717858 317,559.72036003717858" />
    <polyline points="317,583.96907134314279 324,571.84471569016068 338,571.84471569016068 345,559.72036003717858" />
    <polyline points="359,559.72036003717858 366,571.84471569016068 359,583.96907134314279" />
    <polyline points="380,571.84471569016068 387,559.72036003717858 401,559.72036003717858 408,571.84471569016068 401,583.96907134314279" />
    <polyline points="408,571.84471569016068 422,571.84471569016068 429,583.96907134314279" />
    <line x1="422" y1="571.84471569016068" x2="429" y2="559.72036003717858" />
    <polyline points="443,559.72036003717858 450,571.84471569016068 443,583.96907134314279" />
    <line x1="464" y1="571.84471569016068" x2="471" y2="583.96907134314279" />
    <polyline points="471,559.72036003717858 485,559.72036003717858 492,571.84471569016068 485,583.96907134314279" />
    <polyline points="492,571.84471569016068 506,571.84471569016068 513,559.72036003717858 527,559.72036003717858" />
    <polyline points="527,583.96907134314279 534,571.84471569016068 548,571.84471569016068 555,559.72036003717858 569,559.72036003717858" />
    <polyline points="93,583.96907134314279 107,583.96907134314279 114,596.09342699612489 128,596.09342699612489 135,608.217782649107" />
    <polyline points="128,596.09342699612489 135,583.96907134314279 149,583.96907134314279" />
    <polyline points="156,596.09342699612489 170,596.09342699612489 177,608.217782649107" />
    <line x1="170" y1="596.09342699612489" x2="177" y2="583.96907134314279" />
    <line x1="191" y1="583.96907134314279" x2="198" y2="596.09342699612489" />
    <polyline points="212,596.09342699612489 219,583.96907134314279 233,583.96907134314279 240,596.09342699612489 254,596.09342699612489 261,583.96907134314279 275,583.96907134314279" />
    <polyline points="275,608.217782649107 282,596.09342699612489 296,596.09342699612489 303,608.217782649107" />
    <polyline points="296,596.09342699612489 303,583.96907134314279 317,583.96907134314279" />
    <polyline points="324,596.09342699612489 338,596.09342699612489 345,608.217782649107" />
    <polyline points="338,596.09342699612489 345,583.96907134314279 359,583.96907134314279" />
    <polyline points="359,608.217782649107 366,596.09342699612489 380,596.09342699612489 387,583.96907134314279 401,583.96907134314279" />
    <polyline points="408,596.09342699612489 422,596.09342699612489 429,608.217782649107" />
    <line x1="443" y1="583.96907134314279" x2="450" y2="596.09342699612489" />
    <polyline points="471,608.217782649107 464,596.09342699612489 471,583.96907134314279 485,583.96907134314279" />
    <polyline points="485,608.217782649107 492,596.09342699612489 506,596.09342699612489 513,583.96907134314279 527,583.96907134314279" />
    <polyline points="135,608.217782649107 149,608.217782649107 156,620.3421383020891 170,620.3421383020891 177,632.4664939550712" />
    <line x1="177" y1="608.217782649107" x2="191" y2="608.217782649107" />
    <polyline points="198,620.3421383020891 212,620.3421383020891 219,608.217782649107 233,608.217782649107 240,620.3421383020891 254,620.3421383020891 261,632.4664939550712" />
    <polyline points="261,608.217782649107 275,608.217782649107 282,620.3421383020891 275,632.4664939550712" />
    <line x1="282" y1="620.3421383020891" x2="296" y2="620.3421383020891" />
    <polyline points="303,608.217782649107 317,608.217782649107 324,620.3421383020891" />
    <line x1="338" y1="620.3421383020891" x2="345" y2="608.217782649107" />
    <polyline points="359,632.4664939550712 366,620.3421383020891 380,620.3421383020891 387,608.217782649107 401,608.217782649107 408,620.3421383020891 401,632.4664939550712" />
    <polyline points="408,620.3421383020891 422,620.3421383020891 429,608.217782649107 443,608.217782649107 450,620.3421383020891 443,632.4664939550712" />
    <polyline points="450,620.3421383020891 464,620.3421383020891 471,608.217782649107 485,608.217782649107" />
    <polyline points="177,632.46649395507143 191,632.46649395507143 198,644.59084960805353 212,644.59084960805353 219,656.71520526103563" />
    <line x1="212" y1="644.59084960805353" x2="219" y2="632.46649395507143" />
    <polyline points="233,632.46649395507143 240,644.59084960805353 254,644.59084960805353 261,656.71520526103563" />
    <line x1="254" y1="644.59084960805353" x2="261" y2="632.46649395507143" />
    <polyline points="275,632.46649395507143 282,644.59084960805353 296,644.59084960805353 303,656.71520526103563" />
    <polyline points="296,644.59084960805353 303,632.46649395507143 317,632.46649395507143" />
    <line x1="317" y1="656.71520526103563" x2="324" y2="644.59084960805353" />
    <polyline points="345,656.71520526103563 338,644.59084960805353 345,632.46649395507143 359,632.46649395507143 366,644.59084960805353" />
    <polyline points="380,644.59084960805353 387,632.46649395507143 401,632.46649395507143" />
    <polyline points="401,656.71520526103563 408,644.59084960805353 422,644.59084960805353 429,632.46649395507143 443,632.46649395507143" />
    <polyline points="219,656.71520526103563 233,656.71520526103563 240,668.83956091401774 254,668.83956091401774 261,680.96391656699984" />
    <polyline points="261,656.71520526103563 275,656.71520526103563 282,668.83956091401774 275,680.96391656699984" />
    <line x1="296" y1="668.83956091401774" x2="303" y2="656.71520526103563" />
    <polyline points="317,656.71520526103563 324,668.83956091401774 317,680.96391656699984" />
    <line x1="324" y1="668.83956091401774" x2="338" y2="668.83956091401774" />
    <polyline points="359,656.71520526103563 366,668.83956091401774 359,680.96391656699984" />
    <polyline points="366,668.83956091401774 380,668.83956091401774 387,656.71520526103563 401,656.71520526103563" />
    <polyline points="261,680.96391656699984 275,680.96391656699984 282,693.088272219982 296,693.088272219982 303,705.212627872964" />
    <polyline points="296,693.088272219982 303,680.96391656699984 317,680.96391656699984" />
    <polyline points="317,705.212627872964 324,693.088272219982 338,693.088272219982 345,680.96391656699984 359,680.96391656699984" />
  </g>
  <polyline fill="none" stroke="#ff0000" stroke-width="2" stroke-linecap="square" stroke-linejoin="round" points="310,1.9999999999999822 310,14.124355652982123 268,38.3730669589464 289,50.497422611928542 310,38.3730669589464 310,62.621778264910681 289,74.74613391789282 310,86.870489570874966 310,111.11920087683924 289,98.994845223857112 268,111.11920087683924 247,98.994845223857112 247,123.24355652982139 226,135.36791218280354 205,123.24355652982139 205,195.98969044771422 247,171.74097914174996 247,195.98969044771422 226,208.11404610069639 226,232.36275740666068 247,220.23840175367852 247,268.73582436560707 268,280.86018001858918 331,244.48711305964281 331,220.23840175367852 394,183.86533479473209 394,208.11404610069639 457,244.48711305964281 415,268.73582436560707 436,280.86018001858918 394,305.1088913245535 394,329.35760263051776 436,353.606313936482 436,329.35760263051776 457,317.23324697753566 457,365.73066958946418 499,341.48195828349992 499,317.23324697753566 520,305.1088913245535 520,353.606313936482 499,365.73066958946418 499,389.97938089542851 520,402.10373654841061 520,426.35244785437487 562,450.60115916033919 562,499.09858177226772 541,486.97422611928562 478,523.347293078232 457,511.22293742524988 457,608.217782649107 415,583.96907134314279 331,632.4664939550712 331,656.71520526103563 352,668.83956091401774 310,693.088272219982 310,705.212627872964" />
  <type>Hexagonal</type>
</svg>