<?xml version="1.0" encoding="utf-8" standalone="no"?>
<!DOCTYPE svg PUBLIC "-//W3C//DTD SVG 1.1//EN" "http://www.w3.org/Graphics/SVG/1.1/DTD/svg11.dtd"[]>
<svg width="404" height="404" version="1.1" xmlns="http://www.w3.org/2000/svg">
  <title>25 cells diameter theta maze</title>
  <g fill="none" stroke="#000000" stroke-width="2" stroke-linecap="square">
    <path d="M 186.02943725152286,219.97056274847714 A 24,24 0 1,1 203,227" />
    <path d="M 187.69266270539637,166.04481869954856 A 40,40 0 0,1 218.3073372946036,166.04481869954853" />
    <path d="M 231.2842712474619,174.7157287525381 A 40,40 0 0,1 239.95518130045147,218.3073372946036" />
    <path d="M 203,243 A 40,40 0 0,1 166.04481869954853,218.3073372946036" />
    <path d="M 163,203 A 40,40 0 0,1 166.04481869954853,187.6926627053964" />
    <path d="M 224.43027221244503,151.26274617936795 A 56,56 0 0,1 224.43027221244503,254.73725382063205" />
    <path d="M 181.569727787555,254.73725382063208 A 56,56 0 0,1 147,203" />
    <path d="M 152.08831175456857,152.08831175456859 A 72,72 0 0,1 203,131" />
    <path d="M 217.04650318516124,132.3834598109674 A 72,72 0 0,1 230.55320713028647,136.48067365918735" />
    <path d="M 253.91168824543144,152.08831175456857 A 72,72 0 0,1 275,203" />
    <path d="M 273.61654018903261,217.04650318516124 A 72,72 0 0,1 243.00105677741135,262.86581208578326" />
    <path d="M 217.04650318516127,273.61654018903261 A 72,72 0 0,1 188.95349681483876,273.61654018903261" />
    <path d="M 175.44679286971353,269.51932634081265 A 72,72 0 0,1 136.48067365918737,230.5532071302865" />
    <path d="M 132.3834598109674,217.04650318516127 A 72,72 0 0,1 131,203" />
    <path d="M 132.3834598109674,188.95349681483876 A 72,72 0 0,1 143.13418791421674,162.99894322258865" />
    <path d="M 220.16794833741929,116.69089532451572 A 88,88 0 0,1 236.6761420481279,121.69860113900677" />
    <path d="M 251.890180505725,129.83067411737602 A 88,88 0 0,1 276.169325882624,154.109819494275" />
    <path d="M 289.30910467548426,185.83205166258071 A 88,88 0 0,1 284.30139886099323,236.6761420481279" />
    <path d="M 265.22539674441617,265.22539674441617 A 88,88 0 0,1 251.89018050572497,276.169325882624" />
    <path d="M 185.83205166258071,289.30910467548426 A 88,88 0 0,1 154.10981949427503,276.169325882624" />
    <path d="M 140.77460325558383,265.22539674441617 A 88,88 0 0,1 116.69089532451572,220.16794833741932" />
    <path d="M 115,203.00000000000003 A 88,88 0 0,1 121.69860113900677,169.32385795187207" />
    <path d="M 154.109819494275,129.83067411737602 A 88,88 0 0,1 169.32385795187204,121.69860113900678" />
    <path d="M 182.71060651032261,100.99833083806405 A 104,104 0 0,1 260.77930423403865,116.52716032053529" />
    <path d="M 276.53910524340097,129.46089475659906 A 104,104 0 0,1 289.4728396794647,145.22069576596135" />
    <path d="M 299.08347138117381,163.20092303403067 A 104,104 0 0,1 289.47283967946476,260.77930423403859" />
    <path d="M 242.79907696596933,299.08347138117381 A 104,104 0 0,1 223.28939348967737,305.001669161936" />
    <path d="M 203,307 A 104,104 0 0,1 182.71060651032266,305.001669161936" />
    <path d="M 129.46089475659909,276.53910524340097 A 104,104 0 0,1 106.91652861882621,242.79907696596939" />
    <path d="M 99,203.00000000000003 A 104,104 0 0,1 100.99833083806404,182.71060651032266" />
    <path d="M 203,83 A 120,120 0 0,1 313.86554390135439,157.07798811618923" />
    <path d="M 320.69423364838764,179.58916135806459 A 120,120 0 0,1 323,203" />
    <path d="M 320.69423364838764,226.41083864193539 A 120,120 0 0,1 313.86554390135439,248.92201188381077" />
    <path d="M 269.66842796235227,302.77635347630542 A 120,120 0 0,1 248.9220118838108,313.86554390135439" />
    <path d="M 226.41083864193544,320.69423364838764 A 120,120 0 0,1 203.00000000000003,323" />
    <path d="M 179.58916135806459,320.69423364838764 A 120,120 0 0,1 157.07798811618926,313.86554390135439" />
    <path d="M 136.33157203764779,302.77635347630547 A 120,120 0 0,1 118.14718625761431,287.85281374238571" />
    <path d="M 92.134456098645614,248.92201188381085 A 120,120 0 0,1 83,203.00000000000003" />
    <path d="M 85.305766351612348,179.58916135806462 A 120,120 0 0,1 103.22364652369454,136.33157203764779" />
    <path d="M 118.14718625761428,118.14718625761432 A 120,120 0 0,1 136.33157203764773,103.22364652369457" />
    <path d="M 176.46771620580648,69.613201865160676 A 136,136 0 0,1 216.33033108482024,67.654877172581223" />
    <path d="M 229.53228379419343,69.613201865160647 A 136,136 0 0,1 278.55755169066589,89.920132726853851" />
    <path d="M 289.2774866462558,97.87057834266777 A 136,136 0 0,1 299.16652224137044,106.83347775862953" />
    <path d="M 328.64761642153496,150.9550531983478 A 136,136 0 0,1 336.38679813483935,176.46771620580654" />
    <path d="M 338.34512282741878,189.66966891517973 A 136,136 0 0,1 336.38679813483935,229.53228379419343" />
    <path d="M 333.14388565958041,242.47871610660687 A 136,136 0 0,1 278.55755169066589,316.07986727314619" />
    <path d="M 267.10995620833569,322.94129195137629 A 136,136 0 0,1 255.04494680165223,328.64761642153496" />
    <path d="M 242.4787161066069,333.14388565958041 A 136,136 0 0,1 216.33033108482027,338.34512282741878" />
    <path d="M 203.00000000000003,339 A 136,136 0 0,1 176.46771620580654,336.38679813483935" />
    <path d="M 163.52128389339316,333.14388565958041 A 136,136 0 0,1 116.72251335374423,308.12942165733227" />
    <path d="M 106.83347775862956,299.16652224137044 A 136,136 0 0,1 77.352383578465037,255.04494680165229" />
    <path d="M 72.8561143404196,242.4787161066069 A 136,136 0 0,1 69.613201865160676,229.53228379419349" />
    <path d="M 67,203.00000000000003 A 136,136 0 0,1 67.654877172581223,189.66966891517984" />
    <path d="M 77.352383578465009,150.95505319834777 A 136,136 0 0,1 83.058708048623714,138.89004379166431" />
    <path d="M 89.920132726853822,127.44244830933414 A 136,136 0 0,1 106.83347775862951,106.83347775862956" />
    <path d="M 116.72251335374415,97.870578342667827 A 136,136 0 0,1 138.89004379166428,83.058708048623743" />
    <path d="M 188.1013946699068,51.731921545826083 A 152,152 0 0,1 203,51" />
    <path d="M 217.8986053300932,51.731921545826083 A 152,152 0 0,1 232.65372894645151,53.92063737870896" />
    <path d="M 287.44667541897957,76.616618930013118 A 152,152 0 0,1 299.42777919287414,85.50241108886398" />
    <path d="M 310.48023074035524,95.519769259644775 A 152,152 0 0,1 343.4296889417156,144.83211828050634" />
    <path d="M 348.45493103129576,158.87672905732174 A 152,152 0 0,1 354.26807845417392,188.10139466990677" />
    <path d="M 355,203 A 152,152 0 0,1 354.26807845417392,217.89860533009323" />
    <path d="M 352.079362621291,232.65372894645148 A 152,152 0 0,1 337.05203218094994,274.65230399755166" />
    <path d="M 329.38338106998691,287.44667541897951 A 152,152 0 0,1 320.49758891113606,299.42777919287408" />
    <path d="M 310.48023074035524,310.48023074035518 A 152,152 0 0,1 299.42777919287414,320.497588911136" />
    <path d="M 261.16788171949366,343.42968894171554 A 152,152 0 0,1 247.12327094267829,348.45493103129576" />
    <path d="M 232.65372894645154,352.079362621291 A 152,152 0 0,1 203.00000000000003,355" />
    <path d="M 173.34627105354849,352.079362621291 A 152,152 0 0,1 158.87672905732177,348.45493103129576" />
    <path d="M 144.83211828050636,343.4296889417156 A 152,152 0 0,1 118.55332458102051,329.38338106998691" />
    <path d="M 95.519769259644789,310.48023074035524 A 152,152 0 0,1 57.545068968704243,247.12327094267829" />
    <path d="M 51.731921545826054,188.10139466990688 A 152,152 0 0,1 62.570311058284432,144.83211828050634" />
    <path d="M 76.61661893001309,118.55332458102052 A 152,152 0 0,1 95.519769259644747,95.5197692596448" />
    <path d="M 106.57222080712582,85.502411088864037 A 152,152 0 0,1 118.55332458102046,76.616618930013118" />
    <path d="M 131.34769600244832,68.947967819050064 A 152,152 0 0,1 144.83211828050625,62.57031105828446" />
    <path d="M 203,35 A 168,168 0 0,1 219.46687957536619,35.808965919070914" />
    <path d="M 235.77517409870956,38.228072892257273 A 168,168 0 0,1 267.29081663733507,47.788238538103826" />
    <path d="M 282.19465178676762,54.837227589476356 A 168,168 0 0,1 321.79393923934,84.206060760660009" />
    <path d="M 332.8657561649398,96.421928260507556 A 168,168 0 0,1 358.21176146189617,138.70918336266493" />
    <path d="M 363.76597640301111,154.23217422125032 A 168,168 0 0,1 363.76597640301111,251.76782577874965" />
    <path d="M 351.16277241052364,282.19465178676762 A 168,168 0 0,1 342.68689486682763,296.33579914729313" />
    <path d="M 332.86575616493985,309.57807173949243 A 168,168 0 0,1 321.79393923934,321.79393923934" />
    <path d="M 309.57807173949243,332.86575616493985 A 168,168 0 0,1 282.19465178676762,351.16277241052364" />
    <path d="M 251.76782577874968,363.76597640301111 A 168,168 0 0,1 235.77517409870961,367.77192710774273" />
    <path d="M 219.46687957536622,370.19103408092906 A 168,168 0 0,1 203.00000000000003,371" />
    <path d="M 186.53312042463381,370.19103408092906 A 168,168 0 0,1 170.22482590129044,367.77192710774273" />
    <path d="M 154.23217422125038,363.76597640301111 A 168,168 0 0,1 123.80534821323241,351.16277241052364" />
    <path d="M 73.134243835060232,309.57807173949249 A 168,168 0 0,1 47.788238538103855,267.29081663733518" />
    <path d="M 38.2280728922573,235.77517409870961 A 168,168 0 0,1 35.808965919070914,186.53312042463392" />
    <path d="M 38.228072892257273,170.22482590129044 A 168,168 0 0,1 47.788238538103855,138.70918336266487" />
    <path d="M 63.313105133172371,109.66420085270688 A 168,168 0 0,1 96.421928260507485,73.134243835060261" />
    <path d="M 109.66420085270683,63.3131051331724 A 168,168 0 0,1 138.70918336266482,47.788238538103855" />
    <path d="M 170.22482590129039,38.2280728922573 A 168,168 0 0,1 186.53312042463384,35.808965919070914" />
    <path d="M 256.41238061482107,26.922978225273567 A 184,184 0 0,1 305.22492287560681,50.009591336331681" />
    <path d="M 333.10764773832477,72.892352261675256 A 184,184 0 0,1 345.23392341874359,86.271635713889225" />
    <path d="M 355.99040866366829,100.77507712439318 A 184,184 0 0,1 365.27351264009735,116.26300042401641" />
    <path d="M 372.99383398207675,132.58624844482347 A 184,184 0 0,1 379.0770217747264,149.58761938517893" />
    <path d="M 386.11398970768425,184.96484617936082 A 184,184 0 0,1 387,203" />
    <path d="M 386.11398970768425,221.03515382063915 A 184,184 0 0,1 372.99383398207681,273.41375155517653" />
    <path d="M 365.27351264009735,289.73699957598359 A 184,184 0 0,1 345.23392341874364,319.72836428611072" />
    <path d="M 333.10764773832477,333.10764773832477 A 184,184 0 0,1 319.72836428611078,345.23392341874364" />
    <path d="M 203.00000000000003,387 A 184,184 0 0,1 167.1033807490324,383.46449159419444" />
    <path d="M 149.58761938517898,379.0770217747264 A 184,184 0 0,1 132.58624844482353,372.99383398207681" />
    <path d="M 72.892352261675285,333.10764773832477 A 184,184 0 0,1 40.726487359902706,289.73699957598365" />
    <path d="M 33.006166017923277,273.41375155517665 A 184,184 0 0,1 22.535508405805615,238.89661925096766" />
    <path d="M 19.886010292315774,221.03515382063912 A 184,184 0 0,1 22.535508405805587,167.1033807490324" />
    <path d="M 26.922978225273539,149.58761938517898 A 184,184 0 0,1 40.726487359902677,116.26300042401645" />
    <path d="M 72.892352261675228,72.892352261675285 A 184,184 0 0,1 100.77507712439319,50.009591336331681" />
    <path d="M 149.5876193851789,26.922978225273567 A 184,184 0 0,1 167.10338074903231,22.535508405805615" />
    <path d="M 222.60342806591211,3.9630546655606338 A 200,200 0 1,1 203,3" />
  </g>
  <g fill="none" stroke="#000000" stroke-width="2" stroke-linecap="butt">
    <line x1="203" y1="3" x2="203" y2="51" />
    <line x1="203" y1="67" x2="203" y2="83" />
    <line x1="203" y1="99" x2="203" y2="115" />
    <line x1="203" y1="131" x2="203" y2="147" />
    <line x1="221.03515382063915" y1="19.886010292315774" x2="219.46687957536619" y2="35.808965919070914" />
    <line x1="217.8986053300932" y1="51.731921545826054" x2="216.33033108482024" y2="67.654877172581223" />
    <line x1="242.01806440322565" y1="6.8429439193539" x2="238.8966192509676" y2="22.535508405805615" />
    <line x1="235.77517409870956" y1="38.228072892257273" x2="232.65372894645151" y2="53.920637378708989" />
    <line x1="256.41238061482107" y1="26.922978225273567" x2="251.76782577874968" y2="42.234023596988919" />
    <line x1="247.12327094267829" y1="57.545068968704271" x2="242.47871610660687" y2="72.8561143404196" />
    <line x1="267.29081663733507" y1="47.788238538103826" x2="261.16788171949366" y2="62.5703110582844" />
    <line x1="236.6761420481279" y1="121.69860113900677" x2="218.3073372946036" y2="166.04481869954853" />
    <line x1="282.19465178676762" y1="54.837227589476356" x2="267.10995620833569" y2="83.058708048623714" />
    <line x1="260.77930423403865" y1="116.5271603205353" x2="243.00105677741135" y2="143.13418791421674" />
    <line x1="329.87865683272912" y1="48.397909327452595" x2="309.57807173949243" y2="73.134243835060175" />
    <line x1="299.42777919287414" y1="85.50241108886398" x2="289.2774866462558" y2="97.87057834266777" />
    <line x1="321.79393923934" y1="84.206060760660009" x2="310.48023074035518" y2="95.519769259644775" />
    <line x1="299.16652224137044" y1="106.83347775862953" x2="287.85281374238571" y2="118.14718625761429" />
    <line x1="345.23392341874364" y1="86.271635713889225" x2="332.86575616493985" y2="96.421928260507556" />
    <line x1="320.497588911136" y1="106.57222080712589" x2="308.12942165733222" y2="116.72251335374422" />
    <line x1="316.07986727314614" y1="127.44244830933408" x2="302.77635347630542" y2="136.33157203764773" />
    <line x1="289.4728396794647" y1="145.22069576596135" x2="276.169325882624" y2="154.109819494275" />
    <line x1="379.384252869671" y1="108.72065263480044" x2="365.27351264009729" y2="116.2630004240164" />
    <line x1="337.05203218094994" y1="131.34769600244835" x2="322.94129195137629" y2="138.89004379166431" />
    <line x1="372.99383398207675" y1="132.58624844482347" x2="343.4296889417156" y2="144.83211828050634" />
    <line x1="328.64761642153496" y1="150.9550531983478" x2="269.51932634081265" y2="175.44679286971353" />
    <line x1="363.76597640301111" y1="154.23217422125032" x2="348.45493103129576" y2="158.87672905732171" />
    <line x1="399.1570560806461" y1="163.98193559677435" x2="367.77192710774273" y2="170.22482590129044" />
    <line x1="352.079362621291" y1="173.34627105354849" x2="336.38679813483935" y2="176.46771620580654" />
    <line x1="354.26807845417392" y1="188.10139466990677" x2="338.34512282741878" y2="189.66966891517973" />
    <line x1="387" y1="203" x2="355" y2="203" />
    <line x1="339" y1="203" x2="323" y2="203" />
    <line x1="291" y1="203" x2="275" y2="203" />
    <line x1="352.079362621291" y1="232.65372894645148" x2="336.38679813483935" y2="229.53228379419343" />
    <line x1="387.77590650225738" y1="279.53668647301794" x2="358.21176146189617" y2="267.29081663733507" />
    <line x1="328.64761642153496" y1="255.0449468016522" x2="313.86554390135439" y2="248.92201188381077" />
    <line x1="269.51932634081265" y1="230.55320713028647" x2="239.95518130045147" y2="218.3073372946036" />
    <line x1="355.9904086636684" y1="305.22492287560675" x2="329.38338106998691" y2="287.44667541897951" />
    <line x1="302.77635347630547" y1="269.66842796235221" x2="262.86581208578326" y2="243.00105677741135" />
    <line x1="357.60209067254743" y1="329.87865683272906" x2="345.23392341874364" y2="319.72836428611072" />
    <line x1="333.10764773832477" y1="333.10764773832477" x2="276.53910524340097" y2="276.53910524340097" />
    <line x1="231.2842712474619" y1="231.2842712474619" x2="219.97056274847714" y2="219.97056274847714" />
    <line x1="329.87865683272912" y1="357.60209067254743" x2="319.72836428611078" y2="345.23392341874364" />
    <line x1="305.22492287560681" y1="355.99040866366835" x2="287.44667541897957" y2="329.38338106998691" />
    <line x1="269.66842796235227" y1="302.77635347630542" x2="243.00105677741135" y2="262.86581208578326" />
    <line x1="297.27934736519956" y1="379.384252869671" x2="282.19465178676762" y2="351.16277241052364" />
    <line x1="274.65230399755166" y1="337.05203218094994" x2="267.10995620833569" y2="322.94129195137629" />
    <line x1="273.41375155517653" y1="372.99383398207675" x2="261.16788171949366" y2="343.4296889417156" />
    <line x1="255.04494680165223" y1="328.64761642153496" x2="248.9220118838108" y2="313.86554390135439" />
    <line x1="242.79907696596933" y1="299.08347138117381" x2="230.55320713028647" y2="269.51932634081265" />
    <line x1="224.43027221244503" y1="254.73725382063205" x2="218.3073372946036" y2="239.95518130045147" />
    <line x1="261.05693545089247" y1="394.38806714644176" x2="256.41238061482107" y2="379.0770217747264" />
    <line x1="251.76782577874968" y1="363.76597640301111" x2="242.4787161066069" y2="333.14388565958041" />
    <line x1="238.89661925096766" y1="383.46449159419438" x2="235.77517409870961" y2="367.77192710774273" />
    <line x1="229.53228379419349" y1="336.38679813483935" x2="220.16794833741932" y2="289.30910467548426" />
    <line x1="222.60342806591217" y1="402.03694533443934" x2="219.46687957536622" y2="370.19103408092906" />
    <line x1="217.89860533009323" y1="354.26807845417392" x2="216.33033108482027" y2="338.34512282741878" />
    <line x1="203.00000000000003" y1="371" x2="203.00000000000003" y2="355" />
    <line x1="203" y1="307" x2="203" y2="291" />
    <line x1="203" y1="275" x2="203" y2="227" />
    <line x1="186.53312042463381" y1="370.19103408092906" x2="189.66966891517976" y2="338.34512282741878" />
    <line x1="163.98193559677432" y1="399.1570560806461" x2="167.1033807490324" y2="383.46449159419438" />
    <line x1="173.34627105354849" y1="352.079362621291" x2="182.71060651032266" y2="305.001669161936" />
    <line x1="185.83205166258071" y1="289.30910467548426" x2="188.95349681483876" y2="273.61654018903261" />
    <line x1="149.58761938517898" y1="379.0770217747264" x2="158.87672905732177" y2="348.45493103129576" />
    <line x1="144.83211828050636" y1="343.4296889417156" x2="150.9550531983478" y2="328.647616421535" />
    <line x1="157.07798811618923" y1="313.86554390135444" x2="169.3238579518721" y2="284.30139886099323" />
    <line x1="116.26300042401644" y1="365.27351264009735" x2="123.80534821323239" y2="351.16277241052364" />
    <line x1="91.885953396079614" y1="369.29392246050907" x2="100.77507712439324" y2="355.9904086636684" />
    <line x1="109.66420085270687" y1="342.68689486682763" x2="118.55332458102051" y2="329.38338106998691" />
    <line x1="127.44244830933414" y1="316.07986727314619" x2="145.22069576596141" y2="289.47283967946476" />
    <line x1="76.12134316727095" y1="357.60209067254743" x2="116.72251335374425" y2="308.12942165733227" />
    <line x1="72.892352261675256" y1="333.10764773832477" x2="95.519769259644789" y2="310.48023074035524" />
    <line x1="140.77460325558383" y1="265.22539674441617" x2="152.08831175456857" y2="253.91168824543144" />
    <line x1="89.920132726853851" y1="278.55755169066589" x2="116.5271603205353" y2="260.77930423403865" />
    <line x1="26.615747130328998" y1="297.27934736519956" x2="40.726487359902706" y2="289.73699957598359" />
    <line x1="33.006166017923277" y1="273.41375155517665" x2="47.788238538103855" y2="267.29081663733518" />
    <line x1="62.57031105828446" y1="261.16788171949372" x2="77.352383578465037" y2="255.04494680165229" />
    <line x1="151.26274617936795" y1="224.43027221244506" x2="166.04481869954856" y2="218.3073372946036" />
    <line x1="42.234023596988919" y1="251.76782577874968" x2="57.545068968704271" y2="247.12327094267829" />
    <line x1="22.535508405805615" y1="238.89661925096766" x2="38.2280728922573" y2="235.77517409870961" />
    <line x1="53.920637378708989" y1="232.65372894645157" x2="132.38345981096742" y2="217.04650318516127" />
    <line x1="35.808965919070914" y1="219.46687957536616" x2="67.654877172581223" y2="216.33033108482022" />
    <line x1="51" y1="203.00000000000003" x2="83" y2="203.00000000000003" />
    <line x1="99" y1="203.00000000000003" x2="115" y2="203.00000000000003" />
    <line x1="131" y1="203" x2="147" y2="203" />
    <line x1="163" y1="203" x2="179" y2="203" />
    <line x1="35.808965919070914" y1="186.53312042463389" x2="67.654877172581223" y2="189.66966891517984" />
    <line x1="22.535508405805615" y1="167.1033807490324" x2="38.228072892257273" y2="170.22482590129044" />
    <line x1="69.613201865160647" y1="176.46771620580654" x2="100.99833083806404" y2="182.71060651032266" />
    <line x1="116.69089532451572" y1="185.83205166258071" x2="132.3834598109674" y2="188.95349681483876" />
    <line x1="57.545068968704243" y1="158.87672905732177" x2="72.8561143404196" y2="163.52128389339316" />
    <line x1="18.224093497742672" y1="126.463313526982" x2="33.006166017923249" y2="132.58624844482344" />
    <line x1="47.788238538103855" y1="138.70918336266487" x2="62.570311058284432" y2="144.83211828050634" />
    <line x1="77.352383578465023" y1="150.95505319834777" x2="106.91652861882619" y2="163.20092303403064" />
    <line x1="136.48067365918735" y1="175.44679286971353" x2="166.04481869954853" y2="187.6926627053964" />
    <line x1="40.726487359902677" y1="116.26300042401644" x2="83.058708048623714" y2="138.89004379166431" />
    <line x1="36.706077539490906" y1="91.885953396079628" x2="50.009591336331624" y2="100.77507712439326" />
    <line x1="76.61661893001309" y1="118.55332458102052" x2="89.920132726853822" y2="127.44244830933415" />
    <line x1="116.52716032053527" y1="145.22069576596141" x2="143.13418791421674" y2="162.99894322258865" />
    <line x1="48.397909327452624" y1="76.121343167270879" x2="73.1342438350602" y2="96.421928260507542" />
    <line x1="106.83347775862951" y1="106.83347775862956" x2="129.46089475659903" y2="129.46089475659909" />
    <line x1="140.7746032555838" y1="140.77460325558383" x2="186.02943725152286" y2="186.02943725152286" />
    <line x1="106.57222080712582" y1="85.502411088864022" x2="116.72251335374415" y2="97.870578342667812" />
    <line x1="100.77507712439319" y1="50.009591336331681" x2="109.66420085270684" y2="63.3131051331724" />
    <line x1="136.33157203764773" y1="103.22364652369457" x2="154.109819494275" y2="129.83067411737602" />
    <line x1="108.72065263480042" y1="26.615747130329027" x2="116.26300042401638" y2="40.726487359902706" />
    <line x1="123.80534821323235" y1="54.837227589476385" x2="138.89004379166428" y2="83.058708048623743" />
    <line x1="126.46331352698192" y1="18.2240934977427" x2="138.70918336266482" y2="47.788238538103855" />
    <line x1="150.95505319834771" y1="77.352383578465037" x2="175.44679286971348" y2="136.48067365918737" />
    <line x1="181.56972778755494" y1="151.26274617936795" x2="187.69266270539637" y2="166.04481869954856" />
    <line x1="149.5876193851789" y1="26.922978225273567" x2="163.5212838933931" y2="72.8561143404196" />
    <line x1="163.98193559677426" y1="6.8429439193539281" x2="167.10338074903231" y2="22.535508405805615" />
    <line x1="170.22482590129039" y1="38.2280728922573" x2="182.71060651032261" y2="100.99833083806405" />
    <line x1="185.83205166258068" y1="116.69089532451574" x2="188.95349681483873" y2="132.38345981096742" />
    <line x1="184.96484617936088" y1="19.886010292315774" x2="186.53312042463384" y2="35.808965919070914" />
  </g>
  <path fill="none" stroke="#ff0000" stroke-width="2" stroke-linecap="square" stroke-linejoin="round" d="M 212.8135348654836,3.2409087589655314 L 212.42099347086426,11.231272408606912 A 192,192 0 0,1 231.17225109542946,13.078110086762052 L 226.47687591285788,44.731758405635048 A 160,160 0 0,0 210.85082789238689,43.192727007172408 L 210.0657451031482,59.17345430645517 A 144,144 0 0,0 181.87081167842783,60.558582565071561 L 179.523124087142,44.731758405635048 A 160,160 0 0,1 195.14917210761311,43.192727007172408 L 193.57900652913574,11.231272408606912 A 192,192 0 0,0 174.82774890457043,13.078110086762081 L 177.17543649585622,28.904934246198565 A 176,176 0 0,0 160.23548833702552,32.274499437760284 L 171.89853697238218,78.835999591098371 A 128,128 0 0,0 165.8435613114288,80.51163702627727 L 175.13267098357159,111.13372776970795 A 96,96 0 0,1 193.59035452836218,107.4622662394691 L 195.15862877363517,123.38522186622424 A 80,80 0 0,1 210.84137122636486,123.38522186622424 L 209.27309698109187,139.30817749297938 A 64,64 0 0,1 215.48578060903222,140.22974205419325 L 212.36433545677414,155.92230654064494 A 48,48 0 0,0 193.63566454322583,155.92230654064494 L 190.51421939096775,140.22974205419325 A 64,64 0 0,0 167.44350508674546,149.7859448126371 L 185.22175254337273,176.39297240631856 A 32,32 0 0,1 229.60702759368147,220.77824745662727 L 242.91054139052218,229.66737118494089 A 48,48 0 0,1 229.66737118494089,242.91054139052218 L 220.77824745662727,229.60702759368144 A 32,32 0 0,1 209.24289030451612,234.38512897290337 L 215.48578060903222,265.77025794580675 A 64,64 0 0,0 221.5782193442856,264.24418148686135 L 226.222774180357,279.5552268585767 A 80,80 0 0,1 210.84137122636486,282.61477813377576 L 213.9779197169108,314.46068938728604 A 112,112 0 0,1 192.02208028308922,314.46068938728604 L 190.45380603781624,330.38364501404124 A 128,128 0 0,0 209.28066231390949,330.8458183942621 L 210.06574510314817,346.82654569354486 A 144,144 0 0,1 195.93425489685185,346.82654569354486 L 194.36408931837448,378.78800029211038 A 176,176 0 0,1 160.23548833702557,373.72550056223974 L 156.34780545857336,389.24600061335241 A 192,192 0 0,1 104.29227311490146,367.68389312005229 L 120.74356092908455,340.23657760004357 A 160,160 0 0,0 149.09762345724479,353.64705042928335 L 154.48786111152032,338.582345386355 A 144,144 0 0,0 168.01085409393,342.68450046001431 L 171.89853697238223,327.16400040890164 A 128,128 0 0,1 142.6612176862723,315.88592183658943 L 157.74591326470423,287.66444137744207 A 96,96 0 0,1 111.13372776970795,230.86732901642839 L 95.822682397992608,235.51188385249981 A 112,112 0 0,0 104.22481839298425,255.79643452451177 L 90.114078163410568,263.33878231372773 A 128,128 0 0,1 82.482359656573337,246.12190123420416 L 67.417654613645,251.51213888847968 A 144,144 0 0,1 63.315499539985666,237.98914590607004 L 32.274499437760255,245.76451166297449 A 176,176 0 0,0 37.288244527788351,262.29261419703073 L 52.352949570716675,256.90237654275518 A 160,160 0 0,0 84.447819943206582,310.44943277552295 L 72.592601937527235,321.1943760530753 A 176,176 0 0,1 43.897884410274,278.2496964437297 L 29.434055720298915,285.09057793861427 A 192,192 0 0,1 16.753999386647536,156.34780545857336 L 32.274499437760255,160.23548833702557 A 176,176 0 0,1 43.897884410273974,127.75030355627034 L 72.825541790224179,141.43206654603938 A 144,144 0 0,0 67.417654613645,154.48786111152037 L 82.482359656573323,159.8780987657959 A 128,128 0 0,0 78.835999591098371,171.89853697238223 L 63.315499539985666,168.01085409393002 A 144,144 0 0,0 60.558582565071532,181.87081167842788 L 76.385406724508044,184.21849926971368 A 128,128 0 0,0 75.6163549859588,190.45380603781632 L 91.539310612713948,192.02208028308928 A 112,112 0 0,0 91.539310612713948,213.97791971691078 L 123.38522186622424,210.84137122636483 A 80,80 0 0,1 123.38522186622424,195.1586287736352 L 139.30817749297938,196.72690301890816 A 64,64 0 0,1 140.22974205419325,190.51421939096778 L 155.92230654064494,193.63566454322583 A 48,48 0 0,0 155.92230654064494,212.36433545677417 L 171.61487102709663,209.24289030451612 A 32,32 0 0,0 190.75413016431713,232.56414504036118 L 193.81559762323786,225.17310878027089" />
  <type>Circular</type>
</svg>