<?xml version="1.0" encoding="utf-8" standalone="no"?>
<!DOCTYPE svg PUBLIC "-//W3C//DTD SVG 1.1//EN" "http://www.w3.org/Graphics/SVG/1.1/DTD/svg11.dtd"[]>
<svg width="404" height="404" version="1.1" xmlns="http://www.w3.org/2000/svg">
  <title>25 cells diameter theta maze</title>
  <g fill="none" stroke="#000000" stroke-width="2" stroke-linecap="square">
    <path d="M 186.02943725152286,219.97056274847714 A 24,24 0 1,1 203,227" />
    <path d="M 187.69266270539637,166.04481869954856 A 40,40 0 0,1 218.3073372946036,166.04481869954853" />
    <path d="M 239.95518130045147,187.6926627053964 A 40,40 0 0,1 174.7157287525381,231.2842712474619" />
    <path d="M 203,147 A 56,56 0 0,1 242.59797974644667,163.40202025355333" />
    <path d="M 259,203 A 56,56 0 0,1 151.26274617936795,224.43027221244506" />
    <path d="M 151.26274617936795,181.56972778755497 A 56,56 0 0,1 181.56972778755494,151.26274617936795" />
    <path d="M 162.99894322258865,143.13418791421674 A 72,72 0 0,1 217.04650318516124,132.3834598109674" />
    <path d="M 243.00105677741135,143.13418791421674 A 72,72 0 0,1 275,203" />
    <path d="M 269.51932634081265,230.55320713028647 A 72,72 0 0,1 262.86581208578326,243.00105677741135" />
    <path d="M 253.91168824543144,253.91168824543141 A 72,72 0 0,1 243.00105677741135,262.86581208578326" />
    <path d="M 203,275 A 72,72 0 0,1 188.95349681483876,273.61654018903261" />
    <path d="M 136.48067365918737,230.5532071302865 A 72,72 0 0,1 132.3834598109674,217.04650318516127" />
    <path d="M 131,203 A 72,72 0 0,1 143.13418791421674,162.99894322258865" />
    <path d="M 185.83205166258068,116.69089532451572 A 88,88 0 0,1 236.6761420481279,121.69860113900677" />
    <path d="M 251.890180505725,129.83067411737602 A 88,88 0 0,1 265.22539674441617,140.77460325558383" />
    <path d="M 276.169325882624,154.109819494275 A 88,88 0 0,1 289.30910467548426,185.83205166258071" />
    <path d="M 289.30910467548426,220.16794833741929 A 88,88 0 0,1 284.30139886099323,236.6761420481279" />
    <path d="M 276.169325882624,251.89018050572497 A 88,88 0 0,1 251.89018050572497,276.169325882624" />
    <path d="M 236.6761420481279,284.30139886099323 A 88,88 0 0,1 203,291" />
    <path d="M 129.83067411737602,251.890180505725 A 88,88 0 0,1 121.69860113900678,236.67614204812796" />
    <path d="M 116.69089532451572,220.16794833741932 A 88,88 0 0,1 116.69089532451572,185.83205166258071" />
    <path d="M 129.830674117376,154.10981949427503 A 88,88 0 0,1 169.32385795187204,121.69860113900678" />
    <path d="M 203,99 A 104,104 0 0,1 242.79907696596933,106.91652861882618" />
    <path d="M 260.77930423403865,116.52716032053529 A 104,104 0 0,1 289.4728396794647,145.22069576596135" />
    <path d="M 307,203 A 104,104 0 0,1 289.47283967946476,260.77930423403859" />
    <path d="M 276.53910524340097,276.53910524340097 A 104,104 0 0,1 203,307" />
    <path d="M 182.71060651032266,305.001669161936 A 104,104 0 0,1 163.20092303403067,299.08347138117381" />
    <path d="M 145.22069576596141,289.47283967946476 A 104,104 0 0,1 129.46089475659909,276.53910524340097" />
    <path d="M 106.91652861882621,242.79907696596939 A 104,104 0 0,1 100.99833083806404,223.28939348967737" />
    <path d="M 99,203.00000000000003 A 104,104 0 0,1 145.22069576596135,116.5271603205353" />
    <path d="M 287.85281374238571,118.14718625761429 A 120,120 0 0,1 302.77635347630542,136.33157203764773" />
    <path d="M 320.69423364838764,179.58916135806459 A 120,120 0 0,1 248.9220118838108,313.86554390135439" />
    <path d="M 226.41083864193544,320.69423364838764 A 120,120 0 0,1 136.33157203764779,302.77635347630547" />
    <path d="M 118.14718625761431,287.85281374238571 A 120,120 0 0,1 92.134456098645614,248.92201188381085" />
    <path d="M 92.1344560986456,157.0779881161892 A 120,120 0 0,1 157.07798811618915,92.134456098645614" />
    <path d="M 189.66966891517978,67.654877172581223 A 136,136 0 0,1 267.10995620833569,83.058708048623714" />
    <path d="M 289.2774866462558,97.87057834266777 A 136,136 0 0,1 299.16652224137044,106.83347775862953" />
    <path d="M 316.07986727314614,127.4424483093341 A 136,136 0 0,1 333.14388565958041,163.52128389339313" />
    <path d="M 338.34512282741878,189.66966891517973 A 136,136 0 0,1 322.94129195137629,267.10995620833569" />
    <path d="M 316.07986727314619,278.55755169066589 A 136,136 0 0,1 308.12942165733227,289.27748664625574" />
    <path d="M 299.16652224137044,299.16652224137044 A 136,136 0 0,1 289.2774866462558,308.12942165733222" />
    <path d="M 278.55755169066589,316.07986727314619 A 136,136 0 0,1 189.66966891517976,338.34512282741878" />
    <path d="M 176.46771620580654,336.38679813483935 A 136,136 0 0,1 163.52128389339316,333.14388565958041" />
    <path d="M 150.9550531983478,328.647616421535 A 136,136 0 0,1 83.058708048623728,267.10995620833569" />
    <path d="M 77.352383578465037,255.04494680165229 A 136,136 0 0,1 69.613201865160676,229.53228379419349" />
    <path d="M 67.654877172581223,216.33033108482022 A 136,136 0 0,1 67,203.00000000000003" />
    <path d="M 67.654877172581223,189.66966891517984 A 136,136 0 0,1 83.058708048623714,138.89004379166431" />
    <path d="M 89.920132726853822,127.44244830933414 A 136,136 0 0,1 127.4424483093341,89.920132726853851" />
    <path d="M 138.89004379166428,83.058708048623743 A 136,136 0 0,1 150.95505319834771,77.352383578465037" />
    <path d="M 163.5212838933931,72.8561143404196 A 136,136 0 0,1 176.46771620580648,69.613201865160676" />
    <path d="M 203,51 A 152,152 0 0,1 232.65372894645151,53.92063737870896" />
    <path d="M 247.12327094267829,57.545068968704243 A 152,152 0 0,1 261.16788171949366,62.5703110582844" />
    <path d="M 287.44667541897957,76.616618930013118 A 152,152 0 0,1 337.05203218094994,131.34769600244835" />
    <path d="M 348.45493103129576,158.87672905732174 A 152,152 0 0,1 352.079362621291,173.34627105354849" />
    <path d="M 354.26807845417392,188.10139466990677 A 152,152 0 0,1 355,203" />
    <path d="M 352.079362621291,232.65372894645148 A 152,152 0 0,1 343.4296889417156,261.16788171949361" />
    <path d="M 337.05203218094994,274.65230399755166 A 152,152 0 0,1 329.38338106998691,287.44667541897951" />
    <path d="M 320.49758891113606,299.42777919287408 A 152,152 0 0,1 310.48023074035524,310.48023074035518" />
    <path d="M 299.42777919287414,320.497588911136 A 152,152 0 0,1 287.44667541897951,329.38338106998685" />
    <path d="M 261.16788171949366,343.42968894171554 A 152,152 0 0,1 144.83211828050636,343.4296889417156" />
    <path d="M 106.57222080712592,320.49758891113606 A 152,152 0 0,1 95.519769259644789,310.48023074035524" />
    <path d="M 76.616618930013118,287.44667541897951 A 152,152 0 0,1 53.920637378708989,232.65372894645157" />
    <path d="M 51.731921545826054,188.10139466990688 A 152,152 0 0,1 57.545068968704243,158.87672905732177" />
    <path d="M 85.502411088864,106.57222080712587 A 152,152 0 0,1 106.57222080712582,85.502411088864037" />
    <path d="M 144.83211828050625,62.57031105828446 A 152,152 0 0,1 188.1013946699068,51.731921545826083" />
    <path d="M 186.53312042463384,35.808965919070914 A 168,168 0 0,1 203,35" />
    <path d="M 219.46687957536619,35.808965919070914 A 168,168 0 0,1 296.33579914729319,63.3131051331724" />
    <path d="M 309.57807173949243,73.134243835060175 A 168,168 0 0,1 363.76597640301111,154.23217422125032" />
    <path d="M 367.77192710774273,170.22482590129044 A 168,168 0 0,1 367.77192710774273,235.77517409870953" />
    <path d="M 358.21176146189617,267.29081663733507 A 168,168 0 0,1 309.57807173949243,332.86575616493985" />
    <path d="M 296.33579914729319,342.68689486682763 A 168,168 0 0,1 267.29081663733507,358.21176146189617" />
    <path d="M 251.76782577874968,363.76597640301111 A 168,168 0 0,1 219.46687957536622,370.19103408092906" />
    <path d="M 186.53312042463381,370.19103408092906 A 168,168 0 0,1 170.22482590129044,367.77192710774273" />
    <path d="M 154.23217422125038,363.76597640301111 A 168,168 0 0,1 96.421928260507585,332.86575616493985" />
    <path d="M 84.206060760660037,321.79393923934003 A 168,168 0 0,1 63.3131051331724,296.33579914729319" />
    <path d="M 35,203.00000000000003 A 168,168 0 0,1 35.808965919070914,186.53312042463392" />
    <path d="M 42.234023596988891,154.23217422125038 A 168,168 0 0,1 47.788238538103855,138.70918336266487" />
    <path d="M 54.837227589476356,123.80534821323241 A 168,168 0 0,1 63.313105133172371,109.66420085270688" />
    <path d="M 73.1342438350602,96.421928260507542 A 168,168 0 0,1 84.20606076066,84.206060760660037" />
    <path d="M 96.421928260507485,73.134243835060261 A 168,168 0 0,1 154.23217422125032,42.234023596988919" />
    <path d="M 203,19 A 184,184 0 0,1 238.8966192509676,22.535508405805587" />
    <path d="M 305.22492287560681,50.009591336331681 A 184,184 0 0,1 372.99383398207675,132.58624844482347" />
    <path d="M 379.0770217747264,149.58761938517893 A 184,184 0 0,1 383.46449159419444,167.1033807490324" />
    <path d="M 387,203 A 184,184 0 0,1 386.11398970768425,221.03515382063915" />
    <path d="M 383.46449159419444,238.8966192509676 A 184,184 0 0,1 365.27351264009735,289.73699957598359" />
    <path d="M 345.23392341874364,319.72836428611072 A 184,184 0 0,1 333.10764773832477,333.10764773832477" />
    <path d="M 319.72836428611078,345.23392341874364 A 184,184 0 0,1 305.22492287560681,355.99040866366835" />
    <path d="M 289.73699957598359,365.27351264009729 A 184,184 0 0,1 256.41238061482107,379.0770217747264" />
    <path d="M 238.89661925096766,383.46449159419438 A 184,184 0 0,1 203.00000000000003,387" />
    <path d="M 149.58761938517898,379.0770217747264 A 184,184 0 0,1 116.26300042401644,365.27351264009735" />
    <path d="M 86.271635713889268,345.23392341874364 A 184,184 0 0,1 60.76607658125647,319.72836428611083" />
    <path d="M 50.009591336331681,305.22492287560681 A 184,184 0 0,1 19.886010292315774,221.03515382063912" />
    <path d="M 19.886010292315774,184.96484617936093 A 184,184 0 0,1 22.535508405805587,167.1033807490324" />
    <path d="M 26.922978225273539,149.58761938517898 A 184,184 0 0,1 60.766076581256414,86.271635713889211" />
    <path d="M 116.26300042401638,40.726487359902706 A 184,184 0 0,1 132.58624844482335,33.006166017923277" />
    <path d="M 222.60342806591211,3.9630546655606338 A 200,200 0 1,1 203,3" />
  </g>
  <g fill="none" stroke="#000000" stroke-width="2" stroke-linecap="butt">
    <line x1="203" y1="19" x2="203" y2="35" />
    <line x1="203" y1="67" x2="203" y2="83" />
    <line x1="219.46687957536619" y1="35.808965919070914" x2="217.8986053300932" y2="51.731921545826054" />
    <line x1="242.01806440322565" y1="6.8429439193539" x2="238.8966192509676" y2="22.535508405805615" />
    <line x1="226.41083864193539" y1="85.305766351612348" x2="223.28939348967734" y2="100.99833083806404" />
    <line x1="220.16794833741929" y1="116.69089532451572" x2="217.04650318516124" y2="132.3834598109674" />
    <line x1="256.41238061482107" y1="26.922978225273567" x2="251.76782577874968" y2="42.234023596988919" />
    <line x1="247.12327094267829" y1="57.545068968704271" x2="242.47871610660687" y2="72.8561143404196" />
    <line x1="279.53668647301794" y1="18.224093497742643" x2="273.41375155517653" y2="33.006166017923249" />
    <line x1="255.0449468016522" y1="77.352383578465009" x2="236.6761420481279" y2="121.69860113900677" />
    <line x1="230.55320713028647" y1="136.48067365918735" x2="218.3073372946036" y2="166.04481869954853" />
    <line x1="297.27934736519956" y1="26.615747130328998" x2="289.73699957598353" y2="40.726487359902677" />
    <line x1="282.19465178676762" y1="54.837227589476356" x2="267.10995620833569" y2="83.058708048623714" />
    <line x1="305.22492287560681" y1="50.009591336331681" x2="296.33579914729319" y2="63.3131051331724" />
    <line x1="287.44667541897957" y1="76.616618930013118" x2="260.77930423403865" y2="116.5271603205353" />
    <line x1="299.16652224137044" y1="106.83347775862953" x2="287.85281374238571" y2="118.14718625761429" />
    <line x1="265.22539674441617" y1="140.77460325558383" x2="253.91168824543144" y2="152.08831175456857" />
    <line x1="242.59797974644664" y1="163.40202025355333" x2="219.97056274847714" y2="186.02943725152286" />
    <line x1="320.497588911136" y1="106.57222080712589" x2="308.12942165733222" y2="116.72251335374422" />
    <line x1="316.07986727314614" y1="127.44244830933408" x2="302.77635347630542" y2="136.33157203764773" />
    <line x1="289.4728396794647" y1="145.22069576596135" x2="276.169325882624" y2="154.109819494275" />
    <line x1="358.21176146189617" y1="138.7091833626649" x2="299.08347138117381" y2="163.20092303403067" />
    <line x1="269.51932634081265" y1="175.44679286971353" x2="239.95518130045147" y2="187.6926627053964" />
    <line x1="394.38806714644181" y1="144.94306454910753" x2="363.76597640301111" y2="154.23217422125032" />
    <line x1="367.77192710774273" y1="170.22482590129044" x2="289.30910467548426" y2="185.83205166258071" />
    <line x1="402.03694533443934" y1="183.39657193408783" x2="386.11398970768425" y2="184.96484617936082" />
    <line x1="354.26807845417392" y1="188.10139466990677" x2="338.34512282741878" y2="189.66966891517973" />
    <line x1="387" y1="203" x2="371" y2="203" />
    <line x1="307" y1="203" x2="275" y2="203" />
    <line x1="354.268078454174" y1="217.89860533009323" x2="338.34512282741878" y2="216.33033108482024" />
    <line x1="383.46449159419438" y1="238.8966192509676" x2="367.77192710774273" y2="235.77517409870953" />
    <line x1="305.001669161936" y1="223.28939348967734" x2="273.61654018903261" y2="217.04650318516124" />
    <line x1="363.76597640301111" y1="251.76782577874965" x2="348.45493103129576" y2="247.12327094267823" />
    <line x1="358.21176146189617" y1="267.29081663733507" x2="343.4296889417156" y2="261.16788171949361" />
    <line x1="269.51932634081265" y1="230.55320713028647" x2="254.73725382063205" y2="224.43027221244503" />
    <line x1="379.384252869671" y1="297.27934736519956" x2="365.27351264009735" y2="289.73699957598359" />
    <line x1="337.05203218094994" y1="274.65230399755166" x2="322.94129195137629" y2="267.10995620833569" />
    <line x1="355.9904086636684" y1="305.22492287560675" x2="329.38338106998691" y2="287.44667541897951" />
    <line x1="289.47283967946476" y1="260.77930423403859" x2="262.86581208578326" y2="243.00105677741135" />
    <line x1="320.49758891113606" y1="299.42777919287408" x2="308.12942165733227" y2="289.27748664625574" />
    <line x1="333.10764773832477" y1="333.10764773832477" x2="321.79393923934" y2="321.79393923934" />
    <line x1="310.48023074035524" y1="310.48023074035518" x2="276.53910524340097" y2="276.53910524340097" />
    <line x1="309.57807173949243" y1="332.86575616493985" x2="299.42777919287414" y2="320.497588911136" />
    <line x1="314.11404660392043" y1="369.29392246050907" x2="305.22492287560681" y2="355.99040866366835" />
    <line x1="287.44667541897957" y1="329.38338106998691" x2="278.55755169066589" y2="316.07986727314619" />
    <line x1="251.890180505725" y1="276.169325882624" x2="243.00105677741135" y2="262.86581208578326" />
    <line x1="289.73699957598359" y1="365.27351264009729" x2="274.65230399755166" y2="337.05203218094994" />
    <line x1="267.29081663733507" y1="358.21176146189617" x2="261.16788171949366" y2="343.4296889417156" />
    <line x1="236.6761420481279" y1="284.30139886099323" x2="224.43027221244503" y2="254.73725382063205" />
    <line x1="256.41238061482107" y1="379.0770217747264" x2="251.76782577874968" y2="363.76597640301111" />
    <line x1="242.01806440322571" y1="399.1570560806461" x2="238.89661925096766" y2="383.46449159419438" />
    <line x1="226.41083864193544" y1="320.69423364838764" x2="223.28939348967737" y2="305.001669161936" />
    <line x1="220.16794833741932" y1="289.30910467548426" x2="217.04650318516127" y2="273.61654018903261" />
    <line x1="203.00000000000003" y1="371" x2="203.00000000000003" y2="355" />
    <line x1="183.39657193408789" y1="402.03694533443939" x2="186.53312042463381" y2="370.19103408092906" />
    <line x1="188.1013946699068" y1="354.268078454174" x2="189.66966891517976" y2="338.34512282741878" />
    <line x1="167.1033807490324" y1="383.46449159419438" x2="170.22482590129044" y2="367.77192710774273" />
    <line x1="176.46771620580654" y1="336.38679813483935" x2="188.95349681483876" y2="273.61654018903261" />
    <line x1="149.58761938517898" y1="379.0770217747264" x2="154.23217422125038" y2="363.76597640301111" />
    <line x1="158.87672905732177" y1="348.45493103129576" x2="163.52128389339316" y2="333.14388565958041" />
    <line x1="169.3238579518721" y1="284.30139886099323" x2="181.56972778755497" y2="254.73725382063208" />
    <line x1="123.80534821323239" y1="351.16277241052364" x2="138.89004379166431" y2="322.94129195137629" />
    <line x1="91.885953396079614" y1="369.29392246050907" x2="109.66420085270687" y2="342.68689486682763" />
    <line x1="118.55332458102051" y1="329.38338106998691" x2="127.44244830933414" y2="316.07986727314619" />
    <line x1="136.33157203764776" y1="302.77635347630547" x2="162.99894322258865" y2="262.86581208578326" />
    <line x1="86.271635713889268" y1="345.23392341874364" x2="96.4219282605076" y2="332.86575616493985" />
    <line x1="84.206060760660023" y1="321.79393923934003" x2="95.519769259644789" y2="310.48023074035524" />
    <line x1="106.83347775862954" y1="299.1665222413705" x2="118.14718625761431" y2="287.85281374238571" />
    <line x1="129.46089475659906" y1="276.53910524340097" x2="152.08831175456857" y2="253.91168824543144" />
    <line x1="174.7157287525381" y1="231.2842712474619" x2="186.02943725152286" y2="219.97056274847714" />
    <line x1="85.502411088864022" y1="299.4277791928742" x2="97.870578342667812" y2="289.27748664625585" />
    <line x1="63.3131051331724" y1="296.33579914729319" x2="76.616618930013118" y2="287.44667541897957" />
    <line x1="103.22364652369457" y1="269.66842796235227" x2="143.13418791421674" y2="243.00105677741135" />
    <line x1="40.726487359902706" y1="289.73699957598359" x2="54.837227589476356" y2="282.19465178676762" />
    <line x1="47.788238538103855" y1="267.29081663733518" x2="62.57031105828446" y2="261.16788171949372" />
    <line x1="77.352383578465037" y1="255.04494680165229" x2="92.134456098645614" y2="248.92201188381085" />
    <line x1="136.48067365918737" y1="230.5532071302865" x2="166.04481869954856" y2="218.3073372946036" />
    <line x1="26.922978225273567" y1="256.41238061482107" x2="42.234023596988919" y2="251.76782577874968" />
    <line x1="38.2280728922573" y1="235.77517409870961" x2="69.613201865160676" y2="229.53228379419349" />
    <line x1="85.305766351612363" y1="226.41083864193544" x2="132.38345981096742" y2="217.04650318516127" />
    <line x1="19.886010292315774" y1="221.03515382063912" x2="67.654877172581223" y2="216.33033108482022" />
    <line x1="3" y1="203.00000000000003" x2="83" y2="203.00000000000003" />
    <line x1="131" y1="203" x2="147" y2="203" />
    <line x1="163" y1="203" x2="179" y2="203" />
    <line x1="51.731921545826054" y1="188.10139466990688" x2="67.654877172581223" y2="189.66966891517984" />
    <line x1="22.535508405805615" y1="167.1033807490324" x2="53.920637378708989" y2="173.34627105354849" />
    <line x1="69.613201865160647" y1="176.46771620580654" x2="100.99833083806404" y2="182.71060651032266" />
    <line x1="116.69089532451572" y1="185.83205166258071" x2="132.3834598109674" y2="188.95349681483876" />
    <line x1="26.922978225273567" y1="149.58761938517898" x2="42.234023596988891" y2="154.23217422125038" />
    <line x1="47.788238538103855" y1="138.70918336266487" x2="92.1344560986456" y2="157.0779881161892" />
    <line x1="106.91652861882619" y1="163.20092303403064" x2="121.69860113900678" y2="169.32385795187207" />
    <line x1="151.26274617936795" y1="181.56972778755497" x2="166.04481869954853" y2="187.6926627053964" />
    <line x1="68.947967819050035" y1="131.34769600244837" x2="83.058708048623714" y2="138.89004379166431" />
    <line x1="63.313105133172371" y1="109.66420085270688" x2="89.920132726853822" y2="127.44244830933415" />
    <line x1="73.1342438350602" y1="96.421928260507542" x2="85.502411088864" y2="106.57222080712587" />
    <line x1="61.578643762690461" y1="61.578643762690518" x2="84.20606076066" y2="84.206060760660051" />
    <line x1="140.7746032555838" y1="140.77460325558383" x2="163.40202025355333" y2="163.40202025355336" />
    <line x1="174.7157287525381" y1="174.7157287525381" x2="186.02943725152286" y2="186.02943725152286" />
    <line x1="86.271635713889154" y1="60.766076581256442" x2="96.421928260507485" y2="73.134243835060232" />
    <line x1="91.885953396079572" y1="36.706077539490963" x2="100.77507712439319" y2="50.009591336331681" />
    <line x1="109.66420085270684" y1="63.3131051331724" x2="127.44244830933411" y2="89.920132726853851" />
    <line x1="116.26300042401638" y1="40.726487359902706" x2="131.34769600244832" y2="68.947967819050064" />
    <line x1="144.83211828050625" y1="62.57031105828446" x2="163.20092303403061" y2="106.91652861882621" />
    <line x1="175.44679286971348" y1="136.48067365918737" x2="187.69266270539637" y2="166.04481869954856" />
    <line x1="144.9430645491075" y1="11.611932853558244" x2="154.23217422125032" y2="42.234023596988919" />
    <line x1="167.10338074903231" y1="22.535508405805615" x2="173.34627105354844" y2="53.920637378708989" />
    <line x1="176.46771620580648" y1="69.613201865160676" x2="185.83205166258068" y2="116.69089532451574" />
    <line x1="184.96484617936088" y1="19.886010292315774" x2="189.66966891517978" y2="67.654877172581223" />
  </g>
  <path fill="none" stroke="#ff0000" stroke-width="2" stroke-linecap="square" stroke-linejoin="round" d="M 212.8135348654836,3.2409087589655314 L 212.42099347086426,11.231272408606912 A 192,192 0 0,0 156.34780545857328,16.753999386647564 L 164.12317121547773,47.794999488872975 A 160,160 0 0,0 134.59118505115481,58.361713100249091 L 141.43206654603932,72.825541790224179 A 144,144 0 0,0 128.96920483617606,79.48708015996084 L 137.19484874326759,93.210737919965183 A 128,128 0 0,0 93.210737919965155,137.19484874326764 L 65.763422399956454,120.74356092908457 A 160,160 0 0,0 58.361713100249062,134.59118505115487 L 43.897884410273974,127.75030355627034 A 176,176 0 0,1 72.5926019375272,84.805623946924769 L 60.737383931847859,74.060680669372488 A 192,192 0 0,0 11.231272408606884,193.5790065291358 L 27.211999707889646,194.36408931837448 A 176,176 0 0,1 28.904934246198565,177.1754364958563 L 44.731758405635048,179.52312408714209 A 160,160 0 0,0 43.192727007172408,195.14917210761317 L 75.154181605737932,196.71933768609054 A 128,128 0 0,1 75.6163549859588,190.45380603781632 L 91.539310612713948,192.02208028308928 A 112,112 0 0,0 91.539310612713948,213.97791971691078 L 75.6163549859588,215.54619396218374 A 128,128 0 0,0 80.51163702627727,240.1564386885712 L 95.822682397992608,235.51188385249981 A 112,112 0 0,0 104.22481839298425,255.79643452451177 L 118.33555862255793,248.2540867352958 A 96,96 0 0,1 111.13372776970795,230.86732901642839 L 126.4447731414233,226.222774180357 A 80,80 0 0,0 132.44629885213161,240.71173894607983 L 146.55703908170528,233.16939115686387 A 64,64 0 0,0 172.83060884313616,259.44296091829472 L 157.74591326470423,287.66444137744207 A 96,96 0 0,0 175.13267098357164,294.86627223029205 L 184.42178065571443,264.24418148686135 A 64,64 0 0,0 209.2730969810919,266.69182250702062 L 210.84137122636486,282.61477813377576 A 80,80 0 0,1 195.15862877363514,282.61477813377576 L 193.59035452836218,298.5377337605309 A 96,96 0 0,0 277.20900352282274,263.90175527970996 L 289.57717077662653,274.05204782632825 A 112,112 0 0,0 314.46068938728604,192.0220802830892 L 282.61477813377576,195.15862877363514 A 80,80 0 0,0 264.84083626901895,152.24853726690836 L 277.20900352282274,142.09824472029004 A 96,96 0 0,0 248.25408673529577,118.33555862255791 L 233.16939115686384,146.55703908170528 A 64,64 0 0,1 256.21405518736287,167.44350508674546 L 229.60702759368144,185.22175254337273 A 32,32 0 0,1 190.75413016431713,232.56414504036118 L 193.81559762323786,225.17310878027089" />
  <type>Circular</type>
</svg>