<?xml version="1.0" encoding="utf-8" standalone="no"?>
<!DOCTYPE svg PUBLIC "-//W3C//DTD SVG 1.1//EN" "http://www.w3.org/Graphics/SVG/1.1/DTD/svg11.dtd"[]>
<svg width="404" height="404" version="1.1" xmlns="http://www.w3.org/2000/svg">
  <title>25 cells diameter theta maze</title>
  <g fill="none" stroke="#000000" stroke-width="2" stroke-linecap="square">
    <path d="M 186.02943725152286,219.97056274847714 A 24,24 0 1,1 203,227" />
    <path d="M 203,163 A 40,40 0 0,1 218.3073372946036,166.04481869954853" />
    <path d="M 231.2842712474619,174.7157287525381 A 40,40 0 0,1 239.95518130045147,187.6926627053964" />
    <path d="M 243,203 A 40,40 0 0,1 231.2842712474619,231.2842712474619" />
    <path d="M 218.3073372946036,239.95518130045147 A 40,40 0 0,1 187.6926627053964,239.95518130045147" />
    <path d="M 174.7157287525381,231.2842712474619 A 40,40 0 0,1 166.04481869954853,218.3073372946036" />
    <path d="M 163,203 A 40,40 0 0,1 187.69266270539637,166.04481869954856" />
    <path d="M 203,147 A 56,56 0 0,1 259,203" />
    <path d="M 242.59797974644667,242.59797974644664 A 56,56 0 0,1 224.43027221244503,254.73725382063205" />
    <path d="M 203,259 A 56,56 0 0,1 147,203" />
    <path d="M 151.26274617936795,181.56972778755497 A 56,56 0 0,1 163.40202025355333,163.40202025355336" />
    <path d="M 175.44679286971348,136.48067365918737 A 72,72 0 0,1 253.91168824543144,152.08831175456857" />
    <path d="M 262.86581208578326,162.99894322258865 A 72,72 0 0,1 273.61654018903261,188.95349681483876" />
    <path d="M 275,203 A 72,72 0 0,1 243.00105677741135,262.86581208578326" />
    <path d="M 230.55320713028647,269.51932634081265 A 72,72 0 0,1 132.3834598109674,217.04650318516127" />
    <path d="M 131,203 A 72,72 0 0,1 143.13418791421674,162.99894322258865" />
    <path d="M 220.16794833741929,116.69089532451572 A 88,88 0 0,1 276.169325882624,154.109819494275" />
    <path d="M 289.30910467548426,185.83205166258071 A 88,88 0 0,1 251.89018050572497,276.169325882624" />
    <path d="M 220.16794833741932,289.30910467548426 A 88,88 0 0,1 154.10981949427503,276.169325882624" />
    <path d="M 129.83067411737602,251.890180505725 A 88,88 0 0,1 116.69089532451572,220.16794833741932" />
    <path d="M 116.69089532451572,185.83205166258071 A 88,88 0 0,1 121.69860113900677,169.32385795187207" />
    <path d="M 140.7746032555838,140.77460325558383 A 88,88 0 0,1 185.83205166258068,116.69089532451572" />
    <path d="M 182.71060651032261,100.99833083806405 A 104,104 0 0,1 223.28939348967734,100.99833083806404" />
    <path d="M 242.79907696596933,106.91652861882618 A 104,104 0 0,1 260.77930423403865,116.52716032053529" />
    <path d="M 289.4728396794647,145.22069576596135 A 104,104 0 0,1 299.08347138117381,163.20092303403067" />
    <path d="M 305.001669161936,182.71060651032266 A 104,104 0 0,1 307,203" />
    <path d="M 289.47283967946476,260.77930423403859 A 104,104 0 0,1 276.53910524340097,276.53910524340097" />
    <path d="M 242.79907696596933,299.08347138117381 A 104,104 0 0,1 163.20092303403067,299.08347138117381" />
    <path d="M 129.46089475659909,276.53910524340097 A 104,104 0 0,1 106.91652861882621,242.79907696596939" />
    <path d="M 106.91652861882619,163.20092303403064 A 104,104 0 0,1 129.46089475659903,129.46089475659909" />
    <path d="M 145.22069576596135,116.5271603205353 A 104,104 0 0,1 163.20092303403061,106.91652861882621" />
    <path d="M 157.07798811618915,92.134456098645614 A 120,120 0 0,1 248.92201188381077,92.134456098645586" />
    <path d="M 287.85281374238571,118.14718625761429 A 120,120 0 0,1 302.77635347630542,136.33157203764773" />
    <path d="M 320.69423364838764,179.58916135806459 A 120,120 0 0,1 320.69423364838764,226.41083864193539" />
    <path d="M 302.77635347630542,269.66842796235221 A 120,120 0 0,1 226.41083864193544,320.69423364838764" />
    <path d="M 179.58916135806459,320.69423364838764 A 120,120 0 0,1 136.33157203764779,302.77635347630547" />
    <path d="M 92.134456098645614,248.92201188381085 A 120,120 0 0,1 85.305766351612348,179.58916135806462" />
    <path d="M 189.66966891517978,67.654877172581223 A 136,136 0 0,1 203,67" />
    <path d="M 216.33033108482024,67.654877172581223 A 136,136 0 0,1 299.16652224137044,106.83347775862953" />
    <path d="M 328.64761642153496,150.9550531983478 A 136,136 0 0,1 339,203" />
    <path d="M 333.14388565958041,242.47871610660687 A 136,136 0 0,1 308.12942165733227,289.27748664625574" />
    <path d="M 299.16652224137044,299.16652224137044 A 136,136 0 0,1 278.55755169066589,316.07986727314619" />
    <path d="M 242.4787161066069,333.14388565958041 A 136,136 0 0,1 189.66966891517976,338.34512282741878" />
    <path d="M 163.52128389339316,333.14388565958041 A 136,136 0 0,1 116.72251335374423,308.12942165733227" />
    <path d="M 97.870578342667812,289.27748664625585 A 136,136 0 0,1 77.352383578465037,255.04494680165229" />
    <path d="M 72.8561143404196,242.4787161066069 A 136,136 0 0,1 67.654877172581223,189.66966891517984" />
    <path d="M 69.613201865160647,176.46771620580654 A 136,136 0 0,1 72.8561143404196,163.52128389339316" />
    <path d="M 77.352383578465009,150.95505319834777 A 136,136 0 0,1 83.058708048623714,138.89004379166431" />
    <path d="M 97.870578342667784,116.72251335374421 A 136,136 0 0,1 176.46771620580648,69.613201865160676" />
    <path d="M 203,51 A 152,152 0 0,1 247.12327094267829,57.545068968704243" />
    <path d="M 274.65230399755166,68.947967819050035 A 152,152 0 0,1 287.44667541897957,76.616618930013118" />
    <path d="M 310.48023074035524,95.519769259644775 A 152,152 0 0,1 320.497588911136,106.57222080712587" />
    <path d="M 329.38338106998685,118.55332458102046 A 152,152 0 0,1 343.4296889417156,144.83211828050634" />
    <path d="M 352.079362621291,173.34627105354849 A 152,152 0 0,1 354.26807845417392,217.89860533009323" />
    <path d="M 348.45493103129576,247.12327094267826 A 152,152 0 0,1 299.42777919287414,320.497588911136" />
    <path d="M 274.65230399755166,337.05203218094994 A 152,152 0 0,1 261.16788171949366,343.42968894171554" />
    <path d="M 188.1013946699068,354.26807845417392 A 152,152 0 0,1 173.34627105354849,352.079362621291" />
    <path d="M 144.83211828050636,343.4296889417156 A 152,152 0 0,1 131.34769600244835,337.05203218094994" />
    <path d="M 106.57222080712592,320.49758891113606 A 152,152 0 0,1 76.616618930013118,287.44667541897951" />
    <path d="M 62.57031105828446,261.16788171949372 A 152,152 0 0,1 51.731921545826083,217.89860533009318" />
    <path d="M 51.731921545826054,188.10139466990688 A 152,152 0 0,1 62.570311058284432,144.83211828050634" />
    <path d="M 76.61661893001309,118.55332458102052 A 152,152 0 0,1 158.87672905732171,57.545068968704271" />
    <path d="M 138.70918336266482,47.788238538103855 A 168,168 0 0,1 203,35" />
    <path d="M 235.77517409870956,38.228072892257273 A 168,168 0 0,1 251.76782577874968,42.234023596988919" />
    <path d="M 267.29081663733507,47.788238538103826 A 168,168 0 0,1 282.19465178676762,54.837227589476356" />
    <path d="M 296.33579914729319,63.3131051331724 A 168,168 0 0,1 321.79393923934,84.206060760660009" />
    <path d="M 332.8657561649398,96.421928260507556 A 168,168 0 0,1 342.68689486682763,109.66420085270683" />
    <path d="M 351.16277241052364,123.80534821323238 A 168,168 0 0,1 363.76597640301111,154.23217422125032" />
    <path d="M 371,203 A 168,168 0 0,1 363.76597640301111,251.76782577874965" />
    <path d="M 358.21176146189617,267.29081663733507 A 168,168 0 0,1 342.68689486682763,296.33579914729313" />
    <path d="M 332.86575616493985,309.57807173949243 A 168,168 0 0,1 267.29081663733507,358.21176146189617" />
    <path d="M 251.76782577874968,363.76597640301111 A 168,168 0 0,1 235.77517409870961,367.77192710774273" />
    <path d="M 219.46687957536622,370.19103408092906 A 168,168 0 0,1 203.00000000000003,371" />
    <path d="M 170.22482590129044,367.77192710774273 A 168,168 0 0,1 138.70918336266493,358.21176146189617" />
    <path d="M 109.66420085270688,342.68689486682763 A 168,168 0 0,1 73.134243835060232,309.57807173949249" />
    <path d="M 63.3131051331724,296.33579914729319 A 168,168 0 0,1 54.837227589476385,282.19465178676762" />
    <path d="M 42.234023596988919,251.76782577874968 A 168,168 0 0,1 35.808965919070914,219.46687957536616" />
    <path d="M 35,203.00000000000003 A 168,168 0 0,1 35.808965919070914,186.53312042463392" />
    <path d="M 38.228072892257273,170.22482590129044 A 168,168 0 0,1 42.234023596988891,154.23217422125038" />
    <path d="M 54.837227589476356,123.80534821323241 A 168,168 0 0,1 63.313105133172371,109.66420085270688" />
    <path d="M 96.421928260507485,73.134243835060261 A 168,168 0 0,1 123.80534821323235,54.837227589476385" />
    <path d="M 203,19 A 184,184 0 0,1 238.8966192509676,22.535508405805587" />
    <path d="M 256.41238061482107,26.922978225273567 A 184,184 0 0,1 365.27351264009735,116.26300042401641" />
    <path d="M 386.11398970768425,184.96484617936082 A 184,184 0 0,1 387,203" />
    <path d="M 379.0770217747264,256.412380614821 A 184,184 0 0,1 372.99383398207681,273.41375155517653" />
    <path d="M 365.27351264009735,289.73699957598359 A 184,184 0 0,1 345.23392341874364,319.72836428611072" />
    <path d="M 333.10764773832477,333.10764773832477 A 184,184 0 0,1 289.73699957598359,365.27351264009729" />
    <path d="M 273.41375155517653,372.99383398207675 A 184,184 0 0,1 132.58624844482353,372.99383398207681" />
    <path d="M 116.26300042401644,365.27351264009735 A 184,184 0 0,1 72.892352261675285,333.10764773832477" />
    <path d="M 60.76607658125647,319.72836428611083 A 184,184 0 0,1 50.009591336331681,305.22492287560681" />
    <path d="M 40.726487359902706,289.73699957598365 A 184,184 0 0,1 33.006166017923277,273.41375155517665" />
    <path d="M 26.922978225273567,256.41238061482107 A 184,184 0 0,1 19,203.00000000000003" />
    <path d="M 19.886010292315774,184.96484617936093 A 184,184 0 0,1 22.535508405805587,167.1033807490324" />
    <path d="M 26.922978225273539,149.58761938517898 A 184,184 0 0,1 40.726487359902677,116.26300042401645" />
    <path d="M 72.892352261675228,72.892352261675285 A 184,184 0 0,1 149.5876193851789,26.922978225273567" />
    <path d="M 222.60342806591211,3.9630546655606338 A 200,200 0 1,1 203,3" />
  </g>
  <g fill="none" stroke="#000000" stroke-width="2" stroke-linecap="butt">
    <line x1="203" y1="35" x2="203" y2="51" />
    <line x1="203" y1="67" x2="203" y2="83" />
    <line x1="203" y1="115" x2="203" y2="131" />
    <line x1="203" y1="147" x2="203" y2="163" />
    <line x1="221.03515382063915" y1="19.886010292315774" x2="219.46687957536619" y2="35.808965919070914" />
    <line x1="242.01806440322565" y1="6.8429439193539" x2="238.8966192509676" y2="22.535508405805615" />
    <line x1="235.77517409870956" y1="38.228072892257273" x2="232.65372894645151" y2="53.920637378708989" />
    <line x1="223.28939348967734" y1="100.99833083806404" x2="220.16794833741929" y2="116.69089532451572" />
    <line x1="256.41238061482107" y1="26.922978225273567" x2="251.76782577874968" y2="42.234023596988919" />
    <line x1="267.29081663733507" y1="47.788238538103826" x2="255.0449468016522" y2="77.352383578465009" />
    <line x1="248.92201188381077" y1="92.134456098645586" x2="242.79907696596933" y2="106.91652861882618" />
    <line x1="305.22492287560681" y1="50.009591336331681" x2="287.44667541897957" y2="76.616618930013118" />
    <line x1="269.66842796235227" y1="103.22364652369457" x2="260.77930423403865" y2="116.5271603205353" />
    <line x1="299.42777919287414" y1="85.50241108886398" x2="289.2774866462558" y2="97.87057834266777" />
    <line x1="321.79393923934" y1="84.206060760660009" x2="310.48023074035518" y2="95.519769259644775" />
    <line x1="299.16652224137044" y1="106.83347775862953" x2="253.91168824543144" y2="152.08831175456857" />
    <line x1="231.2842712474619" y1="174.7157287525381" x2="219.97056274847714" y2="186.02943725152286" />
    <line x1="332.86575616493985" y1="96.421928260507556" x2="308.12942165733222" y2="116.72251335374422" />
    <line x1="329.38338106998685" y1="118.55332458102045" x2="302.77635347630542" y2="136.33157203764773" />
    <line x1="365.27351264009729" y1="116.2630004240164" x2="351.16277241052364" y2="123.80534821323236" />
    <line x1="337.05203218094994" y1="131.34769600244835" x2="322.94129195137629" y2="138.89004379166431" />
    <line x1="387.77590650225738" y1="126.46331352698203" x2="372.99383398207675" y2="132.58624844482347" />
    <line x1="328.64761642153496" y1="150.9550531983478" x2="254.73725382063205" y2="181.56972778755497" />
    <line x1="379.0770217747264" y1="149.58761938517893" x2="333.14388565958041" y2="163.52128389339313" />
    <line x1="399.1570560806461" y1="163.98193559677435" x2="352.079362621291" y2="173.34627105354849" />
    <line x1="289.30910467548426" y1="185.83205166258071" x2="273.61654018903261" y2="188.95349681483876" />
    <line x1="386.11398970768425" y1="184.96484617936082" x2="370.19103408092906" y2="186.53312042463378" />
    <line x1="387" y1="203" x2="371" y2="203" />
    <line x1="339" y1="203" x2="323" y2="203" />
    <line x1="307" y1="203" x2="291" y2="203" />
    <line x1="259" y1="203" x2="243" y2="203" />
    <line x1="402.03694533443939" y1="222.60342806591214" x2="386.11398970768425" y2="221.03515382063915" />
    <line x1="354.268078454174" y1="217.89860533009323" x2="338.34512282741878" y2="216.33033108482024" />
    <line x1="383.46449159419438" y1="238.8966192509676" x2="305.001669161936" y2="223.28939348967734" />
    <line x1="363.76597640301111" y1="251.76782577874965" x2="348.45493103129576" y2="247.12327094267823" />
    <line x1="387.77590650225738" y1="279.53668647301794" x2="358.21176146189617" y2="267.29081663733507" />
    <line x1="328.64761642153496" y1="255.0449468016522" x2="299.08347138117381" y2="242.79907696596933" />
    <line x1="254.73725382063205" y1="224.43027221244503" x2="239.95518130045147" y2="218.3073372946036" />
    <line x1="316.07986727314619" y1="278.55755169066583" x2="302.77635347630547" y2="269.66842796235221" />
    <line x1="289.47283967946476" y1="260.77930423403859" x2="276.169325882624" y2="251.89018050572497" />
    <line x1="345.23392341874364" y1="319.72836428611072" x2="320.49758891113606" y2="299.42777919287408" />
    <line x1="253.91168824543144" y1="253.91168824543144" x2="242.59797974644667" y2="242.59797974644664" />
    <line x1="296.33579914729319" y1="342.68689486682763" x2="278.55755169066589" y2="316.07986727314619" />
    <line x1="269.66842796235227" y1="302.77635347630542" x2="251.890180505725" y2="276.169325882624" />
    <line x1="297.27934736519956" y1="379.384252869671" x2="289.73699957598359" y2="365.27351264009729" />
    <line x1="274.65230399755166" y1="337.05203218094994" x2="267.10995620833569" y2="322.94129195137629" />
    <line x1="273.41375155517653" y1="372.99383398207675" x2="267.29081663733507" y2="358.21176146189617" />
    <line x1="261.16788171949366" y1="343.4296889417156" x2="248.9220118838108" y2="313.86554390135439" />
    <line x1="242.79907696596933" y1="299.08347138117381" x2="218.3073372946036" y2="239.95518130045147" />
    <line x1="251.76782577874968" y1="363.76597640301111" x2="242.4787161066069" y2="333.14388565958041" />
    <line x1="235.77517409870961" y1="367.77192710774273" x2="232.65372894645154" y2="352.079362621291" />
    <line x1="221.03515382063918" y1="386.11398970768425" x2="217.89860533009323" y2="354.26807845417392" />
    <line x1="203.00000000000003" y1="355" x2="203" y2="307" />
    <line x1="203" y1="243" x2="203" y2="227" />
    <line x1="184.96484617936085" y1="386.11398970768425" x2="188.1013946699068" y2="354.268078454174" />
    <line x1="173.34627105354849" y1="352.079362621291" x2="179.58916135806459" y2="320.69423364838764" />
    <line x1="154.23217422125038" y1="363.76597640301111" x2="163.52128389339316" y2="333.14388565958041" />
    <line x1="116.26300042401644" y1="365.27351264009735" x2="138.89004379166431" y2="322.94129195137629" />
    <line x1="109.66420085270687" y1="342.68689486682763" x2="118.55332458102051" y2="329.38338106998691" />
    <line x1="136.33157203764776" y1="302.77635347630547" x2="162.99894322258865" y2="262.86581208578326" />
    <line x1="106.57222080712592" y1="320.49758891113606" x2="116.72251335374425" y2="308.12942165733227" />
    <line x1="61.578643762690518" y1="344.42135623730951" x2="72.892352261675256" y2="333.10764773832477" />
    <line x1="95.519769259644789" y1="310.48023074035524" x2="140.77460325558383" y2="265.22539674441617" />
    <line x1="163.40202025355336" y1="242.59797974644667" x2="186.02943725152286" y2="219.97056274847714" />
    <line x1="60.766076581256442" y1="319.72836428611083" x2="73.134243835060232" y2="309.57807173949254" />
    <line x1="50.009591336331681" y1="305.22492287560681" x2="63.3131051331724" y2="296.33579914729319" />
    <line x1="89.920132726853851" y1="278.55755169066589" x2="103.22364652369457" y2="269.66842796235227" />
    <line x1="54.837227589476356" y1="282.19465178676762" x2="83.058708048623728" y2="267.10995620833569" />
    <line x1="18.2240934977427" y1="279.53668647301805" x2="62.57031105828446" y2="261.16788171949372" />
    <line x1="77.352383578465037" y1="255.04494680165229" x2="92.134456098645614" y2="248.92201188381085" />
    <line x1="26.922978225273567" y1="256.41238061482107" x2="42.234023596988919" y2="251.76782577874968" />
    <line x1="85.305766351612363" y1="226.41083864193544" x2="132.38345981096742" y2="217.04650318516127" />
    <line x1="51.731921545826054" y1="217.89860533009318" x2="67.654877172581223" y2="216.33033108482022" />
    <line x1="19" y1="203.00000000000003" x2="51" y2="203.00000000000003" />
    <line x1="99" y1="203.00000000000003" x2="147" y2="203" />
    <line x1="35.808965919070914" y1="186.53312042463389" x2="51.731921545826054" y2="188.10139466990688" />
    <line x1="6.8429439193539" y1="163.98193559677435" x2="38.228072892257273" y2="170.22482590129044" />
    <line x1="69.613201865160647" y1="176.46771620580654" x2="116.69089532451572" y2="185.83205166258071" />
    <line x1="57.545068968704243" y1="158.87672905732177" x2="72.8561143404196" y2="163.52128389339316" />
    <line x1="33.006166017923249" y1="132.58624844482344" x2="62.570311058284432" y2="144.83211828050634" />
    <line x1="77.352383578465023" y1="150.95505319834777" x2="106.91652861882619" y2="163.20092303403064" />
    <line x1="151.26274617936795" y1="181.56972778755497" x2="166.04481869954853" y2="187.6926627053964" />
    <line x1="54.837227589476356" y1="123.80534821323241" x2="83.058708048623714" y2="138.89004379166431" />
    <line x1="36.706077539490906" y1="91.885953396079628" x2="63.313105133172371" y2="109.66420085270688" />
    <line x1="76.61661893001309" y1="118.55332458102052" x2="103.22364652369454" y2="136.33157203764779" />
    <line x1="116.52716032053527" y1="145.22069576596141" x2="143.13418791421674" y2="162.99894322258865" />
    <line x1="48.397909327452624" y1="76.121343167270879" x2="73.1342438350602" y2="96.421928260507542" />
    <line x1="72.892352261675228" y1="72.892352261675285" x2="95.519769259644747" y2="95.5197692596448" />
    <line x1="106.83347775862951" y1="106.83347775862956" x2="140.7746032555838" y2="140.77460325558383" />
    <line x1="152.08831175456857" y1="152.08831175456859" x2="163.40202025355333" y2="163.40202025355336" />
    <line x1="127.44244830933411" y1="89.920132726853851" x2="136.33157203764773" y2="103.22364652369457" />
    <line x1="154.109819494275" y1="129.83067411737602" x2="162.99894322258865" y2="143.13418791421674" />
    <line x1="123.80534821323235" y1="54.837227589476385" x2="131.34769600244832" y2="68.947967819050064" />
    <line x1="157.07798811618915" y1="92.134456098645614" x2="163.20092303403061" y2="106.91652861882621" />
    <line x1="175.44679286971348" y1="136.48067365918737" x2="187.69266270539637" y2="166.04481869954856" />
    <line x1="149.5876193851789" y1="26.922978225273567" x2="154.23217422125032" y2="42.234023596988919" />
    <line x1="163.98193559677426" y1="6.8429439193539281" x2="167.10338074903231" y2="22.535508405805615" />
    <line x1="173.34627105354844" y1="53.920637378708989" x2="176.46771620580648" y2="69.613201865160676" />
    <line x1="182.71060651032261" y1="100.99833083806405" x2="185.83205166258068" y2="116.69089532451574" />
    <line x1="184.96484617936088" y1="19.886010292315774" x2="189.66966891517978" y2="67.654877172581223" />
  </g>
  <path fill="none" stroke="#ff0000" stroke-width="2" stroke-linecap="square" stroke-linejoin="round" d="M 212.8135348654836,3.2409087589655314 L 212.42099347086426,11.231272408606912 A 192,192 0 0,0 193.57900652913574,11.231272408606912 L 194.36408931837443,27.211999707889646 A 176,176 0 0,1 211.63591068162558,27.211999707889646 L 210.85082789238689,43.192727007172408 A 160,160 0 0,1 226.47687591285788,44.731758405635048 L 228.82456350414367,28.904934246198536 A 176,176 0 0,1 245.76451166297443,32.274499437760255 L 249.65219454142667,16.753999386647564 A 192,192 0 0,1 376.56594427970111,120.90942206138583 L 362.10211558972605,127.75030355627034 A 176,176 0 0,1 368.71175547221162,143.70738580296927 L 383.77646051514,138.31714814869375 A 192,192 0 0,1 389.24600061335241,156.34780545857331 L 342.68450046001431,168.01085409393 A 144,144 0 0,1 346.82654569354486,210.0657451031482 L 330.8458183942621,209.28066231390952 A 128,128 0 0,1 329.614593275492,221.7815007302863 L 361.26824159436495,226.47687591285785 A 160,160 0 0,0 361.26824159436495,179.52312408714212 L 392.92188991323792,174.82774890457054 A 192,192 0 0,1 394.76872759139309,212.42099347086426 L 378.78800029211038,211.63591068162558 A 176,176 0 0,1 377.09506575380146,228.82456350414364 L 392.92188991323792,231.17225109542943 A 192,192 0 0,1 389.24600061335241,249.65219454142667 L 373.72550056223974,245.76451166297443 A 176,176 0 0,1 368.71175547221168,262.29261419703073 L 353.64705042928335,256.90237654275518 A 160,160 0 0,1 331.51320503690317,298.31188871878931 L 344.36452554059349,307.84307759066826 A 176,176 0 0,0 362.10211558972605,278.24969644372959 L 376.56594427970117,285.0905779386141 A 192,192 0 0,1 345.26261606815217,331.93931933062754 L 333.40739806247279,321.19437605307525 A 176,176 0 0,1 278.24969644372965,362.10211558972605 L 285.09057793861416,376.56594427970111 A 192,192 0 0,1 120.9094220613859,376.56594427970117 L 127.7503035562704,362.10211558972605 A 176,176 0 0,0 177.17543649585636,377.09506575380146 L 179.52312408714215,361.26824159436495 A 160,160 0 0,1 164.12317121547778,358.20500051112708 L 171.89853697238223,327.16400040890164 A 128,128 0 0,1 121.79765962705341,301.94533803043032 L 152.24853726690839,264.84083626901895 A 80,80 0 0,1 141.15916373098108,253.75146273309167 L 128.79099647717729,263.90175527971 A 96,96 0 0,1 111.13372776970795,230.86732901642839 L 95.822682397992608,235.51188385249981 A 112,112 0 0,0 116.4228292233735,274.05204782632836 L 104.05466196956971,284.20234037294665 A 128,128 0 0,0 108.15825595456526,288.95954622041836 L 96.303037948885915,299.70448949797071 A 144,144 0 0,1 79.487080159960826,277.03079516382394 L 65.763422399956482,285.25643907091546 A 160,160 0 0,0 107.68811128121068,331.51320503690317 L 117.21930015308961,318.66188453321286 A 144,144 0 0,0 128.96920483617609,326.51291984003922 L 112.517917021993,353.96023536004793 A 176,176 0 0,1 72.592601937527235,321.1943760530753 L 60.737383931847887,331.93931933062754 A 192,192 0 0,1 38.316106879947768,301.70772688509862 L 52.039764639952125,293.48208297800704 A 176,176 0 0,1 43.897884410274,278.2496964437297 L 72.825541790224179,264.56793345396068 A 144,144 0 0,1 67.417654613645,251.51213888847968 L 82.482359656573337,246.12190123420416 A 128,128 0 0,1 76.385406724508044,184.21849926971368 L 60.558582565071532,181.87081167842788 A 144,144 0 0,0 59.17345430645517,210.0657451031482 L 43.192727007172408,210.85082789238689 A 160,160 0 0,0 52.352949570716675,256.90237654275518 L 22.223539484859998,267.68285185130622 A 192,192 0 0,1 11.231272408606884,193.5790065291358 L 27.211999707889646,194.36408931837448 A 176,176 0 0,1 28.904934246198565,177.1754364958563 L 44.731758405635048,179.52312408714209 A 160,160 0 0,1 52.352949570716646,149.09762345724488 L 37.288244527788322,143.70738580296936 A 176,176 0 0,0 32.274499437760255,160.23548833702557 L 16.753999386647536,156.34780545857336 A 192,192 0 0,1 38.316106879947739,104.29227311490148 L 52.0397646399521,112.51791702199301 A 176,176 0 0,0 43.897884410273974,127.75030355627034 L 72.825541790224179,141.43206654603938 A 144,144 0 0,0 67.417654613645,154.48786111152037 L 82.482359656573323,159.8780987657959 A 128,128 0 0,0 80.511637026277256,165.84356131142886 L 111.13372776970795,175.13267098357164 A 96,96 0 0,1 118.33555862255791,157.74591326470423 L 132.44629885213158,165.2882610539202 A 80,80 0 0,0 123.38522186622424,195.1586287736352 L 91.539310612713948,192.02208028308928 A 112,112 0 0,0 91.539310612713948,213.97791971691078 L 139.30817749297938,209.27309698109187 A 64,64 0 0,0 215.48578060903222,265.77025794580675 L 212.36433545677417,250.07769345935506 A 48,48 0 0,1 176.33262881505911,242.91054139052218 L 185.22175254337273,229.60702759368147 A 32,32 0 0,0 190.75413016431713,232.56414504036118 L 193.81559762323786,225.17310878027089" />
  <type>Circular</type>
</svg>