<?xml version="1.0" encoding="utf-8" standalone="no"?>
<!DOCTYPE svg PUBLIC "-//W3C//DTD SVG 1.1//EN" "http://www.w3.org/Graphics/SVG/1.1/DTD/svg11.dtd"[]>
<svg width="404" height="404" version="1.1" xmlns="http://www.w3.org/2000/svg">
  <title>25 cells diameter theta maze</title>
  <g fill="none" stroke="#000000" stroke-width="2" stroke-linecap="square">
    <path d="M 186.02943725152286,219.97056274847714 A 24,24 0 1,1 203,227" />
    <path d="M 218.3073372946036,166.04481869954853 A 40,40 0 0,1 239.95518130045147,187.6926627053964" />
    <path d="M 243,203 A 40,40 0 0,1 239.95518130045147,218.3073372946036" />
    <path d="M 231.2842712474619,231.2842712474619 A 40,40 0 0,1 218.3073372946036,239.95518130045147" />
    <path d="M 203,243 A 40,40 0 0,1 187.6926627053964,239.95518130045147" />
    <path d="M 166.04481869954853,218.3073372946036 A 40,40 0 0,1 174.7157287525381,174.7157287525381" />
    <path d="M 203,147 A 56,56 0 0,1 224.43027221244503,151.26274617936795" />
    <path d="M 254.73725382063205,181.56972778755497 A 56,56 0 0,1 259,203" />
    <path d="M 224.43027221244503,254.73725382063205 A 56,56 0 0,1 203,259" />
    <path d="M 163.40202025355336,242.59797974644667 A 56,56 0 0,1 147,203" />
    <path d="M 163.40202025355333,163.40202025355336 A 56,56 0 0,1 181.56972778755494,151.26274617936795" />
    <path d="M 175.44679286971348,136.48067365918737 A 72,72 0 0,1 203,131" />
    <path d="M 217.04650318516124,132.3834598109674 A 72,72 0 0,1 243.00105677741135,143.13418791421674" />
    <path d="M 262.86581208578326,162.99894322258865 A 72,72 0 0,1 269.51932634081265,175.44679286971353" />
    <path d="M 273.61654018903261,188.95349681483876 A 72,72 0 0,1 273.61654018903261,217.04650318516124" />
    <path d="M 269.51932634081265,230.55320713028647 A 72,72 0 0,1 243.00105677741135,262.86581208578326" />
    <path d="M 230.55320713028647,269.51932634081265 A 72,72 0 0,1 217.04650318516127,273.61654018903261" />
    <path d="M 203,275 A 72,72 0 0,1 175.44679286971353,269.51932634081265" />
    <path d="M 162.99894322258865,262.86581208578326 A 72,72 0 0,1 152.08831175456859,253.91168824543144" />
    <path d="M 143.13418791421674,243.00105677741135 A 72,72 0 0,1 132.3834598109674,217.04650318516127" />
    <path d="M 131,203 A 72,72 0 0,1 162.99894322258865,143.13418791421674" />
    <path d="M 203,115 A 88,88 0 0,1 220.16794833741929,116.69089532451572" />
    <path d="M 236.6761420481279,121.69860113900677 A 88,88 0 0,1 276.169325882624,154.109819494275" />
    <path d="M 284.30139886099323,169.3238579518721 A 88,88 0 0,1 289.30910467548426,185.83205166258071" />
    <path d="M 276.169325882624,251.89018050572497 A 88,88 0 0,1 236.6761420481279,284.30139886099323" />
    <path d="M 203,291 A 88,88 0 0,1 185.83205166258071,289.30910467548426" />
    <path d="M 169.32385795187213,284.30139886099323 A 88,88 0 0,1 154.10981949427503,276.169325882624" />
    <path d="M 121.69860113900678,236.67614204812796 A 88,88 0 0,1 116.69089532451572,185.83205166258071" />
    <path d="M 129.830674117376,154.10981949427503 A 88,88 0 0,1 140.7746032555838,140.77460325558383" />
    <path d="M 154.109819494275,129.83067411737602 A 88,88 0 0,1 169.32385795187204,121.69860113900678" />
    <path d="M 163.20092303403061,106.91652861882621 A 104,104 0 0,1 203,99" />
    <path d="M 242.79907696596933,106.91652861882618 A 104,104 0 0,1 260.77930423403865,116.52716032053529" />
    <path d="M 289.4728396794647,145.22069576596135 A 104,104 0 0,1 305.001669161936,182.71060651032266" />
    <path d="M 276.53910524340097,276.53910524340097 A 104,104 0 0,1 260.77930423403859,289.4728396794647" />
    <path d="M 242.79907696596933,299.08347138117381 A 104,104 0 0,1 203,307" />
    <path d="M 145.22069576596141,289.47283967946476 A 104,104 0 0,1 116.52716032053527,145.22069576596141" />
    <path d="M 129.46089475659903,129.46089475659909 A 104,104 0 0,1 145.22069576596135,116.5271603205353" />
    <path d="M 226.41083864193539,85.305766351612348 A 120,120 0 0,1 248.92201188381077,92.134456098645586" />
    <path d="M 313.86554390135439,157.07798811618923 A 120,120 0 0,1 320.69423364838764,226.41083864193539" />
    <path d="M 313.86554390135439,248.92201188381077 A 120,120 0 0,1 302.77635347630542,269.66842796235221" />
    <path d="M 287.85281374238571,287.85281374238571 A 120,120 0 0,1 203.00000000000003,323" />
    <path d="M 179.58916135806459,320.69423364838764 A 120,120 0 0,1 118.14718625761431,287.85281374238571" />
    <path d="M 92.134456098645614,248.92201188381085 A 120,120 0 0,1 85.305766351612348,226.41083864193544" />
    <path d="M 83,203.00000000000003 A 120,120 0 0,1 85.305766351612348,179.58916135806462" />
    <path d="M 103.22364652369454,136.33157203764779 A 120,120 0 0,1 179.58916135806456,85.305766351612363" />
    <path d="M 150.95505319834771,77.352383578465037 A 136,136 0 0,1 203,67" />
    <path d="M 216.33033108482024,67.654877172581223 A 136,136 0 0,1 242.4787161066069,72.8561143404196" />
    <path d="M 267.10995620833569,83.058708048623714 A 136,136 0 0,1 289.2774866462558,97.87057834266777" />
    <path d="M 299.16652224137044,106.83347775862953 A 136,136 0 0,1 328.64761642153496,150.9550531983478" />
    <path d="M 333.14388565958041,163.52128389339313 A 136,136 0 0,1 338.34512282741878,189.66966891517973" />
    <path d="M 339,203 A 136,136 0 0,1 338.34512282741878,216.33033108482024" />
    <path d="M 336.38679813483935,229.53228379419343 A 136,136 0 0,1 278.55755169066589,316.07986727314619" />
    <path d="M 267.10995620833569,322.94129195137629 A 136,136 0 0,1 242.4787161066069,333.14388565958041" />
    <path d="M 203.00000000000003,339 A 136,136 0 0,1 150.9550531983478,328.647616421535" />
    <path d="M 127.44244830933414,316.07986727314619 A 136,136 0 0,1 106.83347775862956,299.16652224137044" />
    <path d="M 97.870578342667812,289.27748664625585 A 136,136 0 0,1 83.058708048623728,267.10995620833569" />
    <path d="M 77.352383578465037,255.04494680165229 A 136,136 0 0,1 67.654877172581223,216.33033108482022" />
    <path d="M 67,203.00000000000003 A 136,136 0 0,1 83.058708048623714,138.89004379166431" />
    <path d="M 116.72251335374415,97.870578342667827 A 136,136 0 0,1 138.89004379166428,83.058708048623743" />
    <path d="M 188.1013946699068,51.731921545826083 A 152,152 0 0,1 232.65372894645151,53.92063737870896" />
    <path d="M 247.12327094267829,57.545068968704243 A 152,152 0 0,1 299.42777919287414,85.50241108886398" />
    <path d="M 310.48023074035524,95.519769259644775 A 152,152 0 0,1 320.497588911136,106.57222080712587" />
    <path d="M 337.05203218094994,131.34769600244835 A 152,152 0 0,1 343.4296889417156,144.83211828050634" />
    <path d="M 354.26807845417392,188.10139466990677 A 152,152 0 0,1 355,203" />
    <path d="M 343.4296889417156,261.16788171949361 A 152,152 0 0,1 337.05203218094994,274.65230399755166" />
    <path d="M 329.38338106998691,287.44667541897951 A 152,152 0 0,1 320.49758891113606,299.42777919287408" />
    <path d="M 299.42777919287414,320.497588911136 A 152,152 0 0,1 247.12327094267829,348.45493103129576" />
    <path d="M 232.65372894645154,352.079362621291 A 152,152 0 0,1 217.89860533009323,354.26807845417392" />
    <path d="M 203.00000000000003,355 A 152,152 0 0,1 173.34627105354849,352.079362621291" />
    <path d="M 131.34769600244835,337.05203218094994 A 152,152 0 0,1 106.57222080712592,320.49758891113606" />
    <path d="M 95.519769259644789,310.48023074035524 A 152,152 0 0,1 85.502411088864022,299.42777919287414" />
    <path d="M 76.616618930013118,287.44667541897951 A 152,152 0 0,1 68.947967819050064,274.65230399755171" />
    <path d="M 57.545068968704243,247.12327094267829 A 152,152 0 0,1 51,203.00000000000003" />
    <path d="M 53.92063737870896,173.34627105354849 A 152,152 0 0,1 62.570311058284432,144.83211828050634" />
    <path d="M 68.947967819050035,131.34769600244837 A 152,152 0 0,1 76.61661893001309,118.55332458102052" />
    <path d="M 118.55332458102046,76.616618930013118 A 152,152 0 0,1 144.83211828050625,62.57031105828446" />
    <path d="M 203,35 A 168,168 0 0,1 251.76782577874968,42.234023596988919" />
    <path d="M 309.57807173949243,73.134243835060175 A 168,168 0 0,1 321.79393923934,84.206060760660009" />
    <path d="M 332.8657561649398,96.421928260507556 A 168,168 0 0,1 351.16277241052364,123.80534821323238" />
    <path d="M 363.76597640301111,154.23217422125032 A 168,168 0 0,1 370.19103408092906,186.53312042463378" />
    <path d="M 371,203 A 168,168 0 0,1 363.76597640301111,251.76782577874965" />
    <path d="M 342.68689486682763,296.33579914729313 A 168,168 0 0,1 282.19465178676762,351.16277241052364" />
    <path d="M 267.29081663733507,358.21176146189617 A 168,168 0 0,1 235.77517409870961,367.77192710774273" />
    <path d="M 186.53312042463381,370.19103408092906 A 168,168 0 0,1 154.23217422125038,363.76597640301111" />
    <path d="M 96.421928260507585,332.86575616493985 A 168,168 0 0,1 84.206060760660037,321.79393923934003" />
    <path d="M 54.837227589476385,282.19465178676762 A 168,168 0 0,1 47.788238538103855,267.29081663733518" />
    <path d="M 42.234023596988919,251.76782577874968 A 168,168 0 0,1 35.808965919070914,219.46687957536616" />
    <path d="M 35,203.00000000000003 A 168,168 0 0,1 42.234023596988891,154.23217422125038" />
    <path d="M 47.788238538103855,138.70918336266487 A 168,168 0 0,1 63.313105133172371,109.66420085270688" />
    <path d="M 84.20606076066,84.206060760660037 A 168,168 0 0,1 96.421928260507485,73.134243835060261" />
    <path d="M 109.66420085270683,63.3131051331724 A 168,168 0 0,1 154.23217422125032,42.234023596988919" />
    <path d="M 170.22482590129039,38.2280728922573 A 168,168 0 0,1 186.53312042463384,35.808965919070914" />
    <path d="M 184.96484617936088,19.886010292315774 A 184,184 0 0,1 319.72836428611078,60.766076581256385" />
    <path d="M 333.10764773832477,72.892352261675256 A 184,184 0 0,1 345.23392341874359,86.271635713889225" />
    <path d="M 365.27351264009735,116.26300042401641 A 184,184 0 0,1 379.0770217747264,149.58761938517893" />
    <path d="M 383.46449159419444,238.8966192509676 A 184,184 0 0,1 365.27351264009735,289.73699957598359" />
    <path d="M 345.23392341874364,319.72836428611072 A 184,184 0 0,1 333.10764773832477,333.10764773832477" />
    <path d="M 273.41375155517653,372.99383398207675 A 184,184 0 0,1 256.41238061482107,379.0770217747264" />
    <path d="M 203.00000000000003,387 A 184,184 0 0,1 184.96484617936085,386.11398970768425" />
    <path d="M 149.58761938517898,379.0770217747264 A 184,184 0 0,1 116.26300042401644,365.27351264009735" />
    <path d="M 60.76607658125647,319.72836428611083 A 184,184 0 0,1 50.009591336331681,305.22492287560681" />
    <path d="M 33.006166017923277,273.41375155517665 A 184,184 0 0,1 26.922978225273567,256.41238061482107" />
    <path d="M 22.535508405805615,238.89661925096766 A 184,184 0 0,1 19,203.00000000000003" />
    <path d="M 26.922978225273539,149.58761938517898 A 184,184 0 0,1 40.726487359902677,116.26300042401645" />
    <path d="M 72.892352261675228,72.892352261675285 A 184,184 0 0,1 116.26300042401638,40.726487359902706" />
    <path d="M 222.60342806591211,3.9630546655606338 A 200,200 0 1,1 203,3" />
  </g>
  <g fill="none" stroke="#000000" stroke-width="2" stroke-linecap="butt">
    <line x1="203" y1="35" x2="203" y2="51" />
    <line x1="203" y1="67" x2="203" y2="99" />
    <line x1="203" y1="115" x2="203" y2="131" />
    <line x1="203" y1="147" x2="203" y2="179" />
    <line x1="232.65372894645151" y1="53.920637378708989" x2="220.16794833741929" y2="116.69089532451572" />
    <line x1="273.41375155517653" y1="33.006166017923249" x2="267.29081663733507" y2="47.788238538103826" />
    <line x1="261.16788171949366" y1="62.5703110582844" x2="248.92201188381077" y2="92.134456098645586" />
    <line x1="242.79907696596933" y1="106.91652861882618" x2="236.6761420481279" y2="121.69860113900677" />
    <line x1="230.55320713028647" y1="136.48067365918735" x2="224.43027221244503" y2="151.26274617936795" />
    <line x1="289.73699957598353" y1="40.726487359902677" x2="282.19465178676762" y2="54.837227589476356" />
    <line x1="274.65230399755166" y1="68.947967819050035" x2="267.10995620833569" y2="83.058708048623714" />
    <line x1="305.22492287560681" y1="50.009591336331681" x2="296.33579914729319" y2="63.3131051331724" />
    <line x1="278.55755169066589" y1="89.920132726853851" x2="260.77930423403865" y2="116.5271603205353" />
    <line x1="309.57807173949243" y1="73.134243835060175" x2="299.42777919287414" y2="85.50241108886398" />
    <line x1="344.42135623730951" y1="61.57864376269049" x2="310.48023074035518" y2="95.519769259644775" />
    <line x1="299.16652224137044" y1="106.83347775862953" x2="253.91168824543144" y2="152.08831175456857" />
    <line x1="242.59797974644664" y1="163.40202025355333" x2="231.2842712474619" y2="174.7157287525381" />
    <line x1="369.29392246050907" y1="91.885953396079543" x2="329.38338106998685" y2="118.55332458102045" />
    <line x1="302.77635347630542" y1="136.33157203764773" x2="289.4728396794647" y2="145.22069576596135" />
    <line x1="379.384252869671" y1="108.72065263480044" x2="365.27351264009729" y2="116.2630004240164" />
    <line x1="337.05203218094994" y1="131.34769600244835" x2="322.94129195137629" y2="138.89004379166431" />
    <line x1="372.99383398207675" y1="132.58624844482347" x2="358.21176146189617" y2="138.7091833626649" />
    <line x1="328.64761642153496" y1="150.9550531983478" x2="313.86554390135439" y2="157.0779881161892" />
    <line x1="284.30139886099323" y1="169.3238579518721" x2="269.51932634081265" y2="175.44679286971353" />
    <line x1="254.73725382063205" y1="181.56972778755497" x2="239.95518130045147" y2="187.6926627053964" />
    <line x1="363.76597640301111" y1="154.23217422125032" x2="333.14388565958041" y2="163.52128389339313" />
    <line x1="383.46449159419438" y1="167.1033807490324" x2="367.77192710774273" y2="170.22482590129044" />
    <line x1="352.079362621291" y1="173.34627105354849" x2="336.38679813483935" y2="176.46771620580654" />
    <line x1="305.001669161936" y1="182.71060651032266" x2="273.61654018903261" y2="188.95349681483876" />
    <line x1="402.03694533443934" y1="183.39657193408783" x2="386.11398970768425" y2="184.96484617936082" />
    <line x1="354.26807845417392" y1="188.10139466990677" x2="338.34512282741878" y2="189.66966891517973" />
    <line x1="387" y1="203" x2="355" y2="203" />
    <line x1="339" y1="203" x2="291" y2="203" />
    <line x1="275" y1="203" x2="227" y2="203" />
    <line x1="402.03694533443939" y1="222.60342806591214" x2="386.11398970768425" y2="221.03515382063915" />
    <line x1="354.268078454174" y1="217.89860533009323" x2="338.34512282741878" y2="216.33033108482024" />
    <line x1="367.77192710774273" y1="235.77517409870953" x2="352.079362621291" y2="232.65372894645148" />
    <line x1="336.38679813483935" y1="229.53228379419343" x2="320.69423364838764" y2="226.41083864193539" />
    <line x1="305.001669161936" y1="223.28939348967734" x2="273.61654018903261" y2="217.04650318516124" />
    <line x1="363.76597640301111" y1="251.76782577874965" x2="333.14388565958041" y2="242.47871610660684" />
    <line x1="372.99383398207675" y1="273.41375155517653" x2="358.21176146189617" y2="267.29081663733507" />
    <line x1="343.4296889417156" y1="261.16788171949361" x2="328.64761642153496" y2="255.0449468016522" />
    <line x1="299.08347138117381" y1="242.79907696596933" x2="269.51932634081265" y2="230.55320713028647" />
    <line x1="254.73725382063205" y1="224.43027221244503" x2="239.95518130045147" y2="218.3073372946036" />
    <line x1="379.384252869671" y1="297.27934736519956" x2="365.27351264009735" y2="289.73699957598359" />
    <line x1="351.16277241052364" y1="282.19465178676762" x2="337.05203218094994" y2="274.65230399755166" />
    <line x1="355.9904086636684" y1="305.22492287560675" x2="342.68689486682763" y2="296.33579914729313" />
    <line x1="302.77635347630547" y1="269.66842796235221" x2="276.169325882624" y2="251.89018050572497" />
    <line x1="357.60209067254743" y1="329.87865683272906" x2="345.23392341874364" y2="319.72836428611072" />
    <line x1="320.49758891113606" y1="299.42777919287408" x2="308.12942165733227" y2="289.27748664625574" />
    <line x1="321.79393923934" y1="321.79393923934" x2="299.16652224137044" y2="299.16652224137044" />
    <line x1="287.85281374238571" y1="287.85281374238571" x2="276.53910524340097" y2="276.53910524340097" />
    <line x1="253.91168824543144" y1="253.91168824543144" x2="219.97056274847714" y2="219.97056274847714" />
    <line x1="319.72836428611078" y1="345.23392341874364" x2="309.57807173949243" y2="332.86575616493985" />
    <line x1="314.11404660392043" y1="369.29392246050907" x2="305.22492287560681" y2="355.99040866366835" />
    <line x1="278.55755169066589" y1="316.07986727314619" x2="269.66842796235227" y2="302.77635347630542" />
    <line x1="260.77930423403865" y1="289.4728396794647" x2="251.890180505725" y2="276.169325882624" />
    <line x1="289.73699957598359" y1="365.27351264009729" x2="274.65230399755166" y2="337.05203218094994" />
    <line x1="273.41375155517653" y1="372.99383398207675" x2="267.29081663733507" y2="358.21176146189617" />
    <line x1="261.16788171949366" y1="343.4296889417156" x2="255.04494680165223" y2="328.64761642153496" />
    <line x1="236.6761420481279" y1="284.30139886099323" x2="230.55320713028647" y2="269.51932634081265" />
    <line x1="224.43027221244503" y1="254.73725382063205" x2="218.3073372946036" y2="239.95518130045147" />
    <line x1="242.01806440322571" y1="399.1570560806461" x2="235.77517409870961" y2="367.77192710774273" />
    <line x1="229.53228379419349" y1="336.38679813483935" x2="226.41083864193544" y2="320.69423364838764" />
    <line x1="220.16794833741932" y1="289.30910467548426" x2="217.04650318516127" y2="273.61654018903261" />
    <line x1="222.60342806591217" y1="402.03694533443934" x2="216.33033108482027" y2="338.34512282741878" />
    <line x1="203.00000000000003" y1="387" x2="203.00000000000003" y2="339" />
    <line x1="203.00000000000003" y1="323" x2="203" y2="307" />
    <line x1="203" y1="243" x2="203" y2="227" />
    <line x1="163.98193559677432" y1="399.1570560806461" x2="170.22482590129044" y2="367.77192710774273" />
    <line x1="179.58916135806459" y1="320.69423364838764" x2="185.83205166258071" y2="289.30910467548426" />
    <line x1="149.58761938517898" y1="379.0770217747264" x2="163.52128389339316" y2="333.14388565958041" />
    <line x1="138.70918336266493" y1="358.21176146189623" x2="150.9550531983478" y2="328.647616421535" />
    <line x1="157.07798811618923" y1="313.86554390135444" x2="187.6926627053964" y2="239.95518130045147" />
    <line x1="116.26300042401644" y1="365.27351264009735" x2="138.89004379166431" y2="322.94129195137629" />
    <line x1="91.885953396079614" y1="369.29392246050907" x2="109.66420085270687" y2="342.68689486682763" />
    <line x1="118.55332458102051" y1="329.38338106998691" x2="127.44244830933414" y2="316.07986727314619" />
    <line x1="86.271635713889268" y1="345.23392341874364" x2="96.4219282605076" y2="332.86575616493985" />
    <line x1="61.578643762690518" y1="344.42135623730951" x2="72.892352261675256" y2="333.10764773832477" />
    <line x1="84.206060760660023" y1="321.79393923934003" x2="106.83347775862954" y2="299.1665222413705" />
    <line x1="129.46089475659906" y1="276.53910524340097" x2="186.02943725152286" y2="219.97056274847714" />
    <line x1="60.766076581256442" y1="319.72836428611083" x2="85.502411088864022" y2="299.4277791928742" />
    <line x1="50.009591336331681" y1="305.22492287560681" x2="76.616618930013118" y2="287.44667541897957" />
    <line x1="89.920132726853851" y1="278.55755169066589" x2="129.83067411737602" y2="251.890180505725" />
    <line x1="26.615747130328998" y1="297.27934736519956" x2="54.837227589476356" y2="282.19465178676762" />
    <line x1="68.947967819050064" y1="274.65230399755166" x2="83.058708048623728" y2="267.10995620833569" />
    <line x1="47.788238538103855" y1="267.29081663733518" x2="77.352383578465037" y2="255.04494680165229" />
    <line x1="92.134456098645614" y1="248.92201188381085" x2="106.91652861882621" y2="242.79907696596939" />
    <line x1="136.48067365918737" y1="230.5532071302865" x2="151.26274617936795" y2="224.43027221244506" />
    <line x1="26.922978225273567" y1="256.41238061482107" x2="57.545068968704271" y2="247.12327094267829" />
    <line x1="3" y1="203.00000000000003" x2="35" y2="203.00000000000003" />
    <line x1="51" y1="203.00000000000003" x2="83" y2="203.00000000000003" />
    <line x1="19.886010292315774" y1="184.96484617936093" x2="67.654877172581223" y2="189.66966891517984" />
    <line x1="6.8429439193539" y1="163.98193559677435" x2="22.535508405805615" y2="167.1033807490324" />
    <line x1="100.99833083806404" y1="182.71060651032266" x2="116.69089532451572" y2="185.83205166258071" />
    <line x1="26.922978225273567" y1="149.58761938517898" x2="42.234023596988891" y2="154.23217422125038" />
    <line x1="62.570311058284432" y1="144.83211828050634" x2="92.1344560986456" y2="157.0779881161892" />
    <line x1="106.91652861882619" y1="163.20092303403064" x2="151.26274617936795" y2="181.56972778755497" />
    <line x1="54.837227589476356" y1="123.80534821323241" x2="68.947967819050035" y2="131.34769600244837" />
    <line x1="36.706077539490906" y1="91.885953396079628" x2="50.009591336331624" y2="100.77507712439326" />
    <line x1="76.61661893001309" y1="118.55332458102052" x2="116.52716032053527" y2="145.22069576596141" />
    <line x1="48.397909327452624" y1="76.121343167270879" x2="97.870578342667784" y2="116.72251335374421" />
    <line x1="72.892352261675228" y1="72.892352261675285" x2="84.20606076066" y2="84.206060760660051" />
    <line x1="95.519769259644747" y1="95.5197692596448" x2="118.14718625761428" y2="118.14718625761432" />
    <line x1="140.7746032555838" y1="140.77460325558383" x2="152.08831175456857" y2="152.08831175456859" />
    <line x1="163.40202025355333" y1="163.40202025355336" x2="186.02943725152286" y2="186.02943725152286" />
    <line x1="96.421928260507485" y1="73.134243835060232" x2="116.72251335374415" y2="97.870578342667812" />
    <line x1="100.77507712439319" y1="50.009591336331681" x2="109.66420085270684" y2="63.3131051331724" />
    <line x1="145.22069576596138" y1="116.5271603205353" x2="154.109819494275" y2="129.83067411737602" />
    <line x1="126.46331352698192" y1="18.2240934977427" x2="138.70918336266482" y2="47.788238538103855" />
    <line x1="144.83211828050625" y1="62.57031105828446" x2="150.95505319834771" y2="77.352383578465037" />
    <line x1="163.20092303403061" y1="106.91652861882621" x2="169.32385795187204" y2="121.69860113900678" />
    <line x1="181.56972778755494" y1="151.26274617936795" x2="187.69266270539637" y2="166.04481869954856" />
    <line x1="149.5876193851789" y1="26.922978225273567" x2="158.87672905732171" y2="57.545068968704271" />
    <line x1="163.98193559677426" y1="6.8429439193539281" x2="173.34627105354844" y2="53.920637378708989" />
    <line x1="176.46771620580648" y1="69.613201865160676" x2="179.58916135806456" y2="85.305766351612363" />
    <line x1="182.71060651032261" y1="100.99833083806405" x2="185.83205166258068" y2="116.69089532451574" />
    <line x1="184.96484617936088" y1="19.886010292315774" x2="186.53312042463384" y2="35.808965919070914" />
  </g>
  <path fill="none" stroke="#ff0000" stroke-width="2" stroke-linecap="square" stroke-linejoin="round" d="M 212.8135348654836,3.2409087589655314 L 212.42099347086426,11.231272408606912 A 192,192 0 0,1 331.93931933062754,60.73738393184783 L 321.19437605307525,72.592601937527178 A 176,176 0 0,0 307.84307759066826,61.63547445940651 L 298.31188871878931,74.486794963096827 A 160,160 0 0,0 256.90237654275518,52.352949570716675 L 262.29261419703073,37.288244527788351 A 176,176 0 0,0 194.36408931837443,27.211999707889646 L 195.14917210761311,43.192727007172408 A 160,160 0 0,0 179.523124087142,44.731758405635048 L 181.87081167842783,60.558582565071561 A 144,144 0 0,1 210.0657451031482,59.17345430645517 L 209.28066231390952,75.154181605737932 A 128,128 0 0,1 215.54619396218376,75.6163549859588 L 212.40964547163782,107.4622662394691 A 96,96 0 0,0 193.59035452836218,107.4622662394691 L 195.15862877363517,123.38522186622424 A 80,80 0 0,0 165.28826105392017,132.44629885213161 L 172.83060884313613,146.55703908170528 A 64,64 0 0,1 209.27309698109187,139.30817749297938 L 210.84137122636486,123.38522186622424 A 80,80 0 0,1 253.75146273309164,141.15916373098105 L 243.60117018647333,153.52733098478484 A 64,64 0 0,1 252.47266901521516,162.39882981352668 L 264.84083626901895,152.24853726690836 A 80,80 0 0,1 273.55370114786842,165.28826105392017 L 287.66444137744207,157.7459132647042 A 96,96 0 0,0 277.20900352282274,142.09824472029004 L 301.94533803043032,121.79765962705338 A 128,128 0 0,1 315.88592183658943,142.66121768627227 L 301.77518160701572,150.20356547548823 A 112,112 0 0,1 314.46068938728604,192.0220802830892 L 282.61477813377576,195.15862877363514 A 80,80 0 0,1 282.61477813377576,210.84137122636486 L 314.46068938728604,213.9779197169108 A 112,112 0 0,1 301.77518160701578,255.79643452451174 L 273.55370114786842,240.71173894607981 A 80,80 0 0,1 240.71173894607983,273.55370114786842 L 233.16939115686387,259.44296091829472 A 64,64 0 0,1 209.2730969810919,266.69182250702062 L 212.40964547163785,298.5377337605309 A 96,96 0 0,1 193.59035452836218,298.5377337605309 L 190.45380603781624,330.38364501404124 A 128,128 0 0,1 104.05466196956971,284.20234037294665 L 116.4228292233735,274.05204782632836 A 112,112 0 0,0 150.20356547548826,301.77518160701578 L 157.74591326470423,287.66444137744207 A 96,96 0 0,1 142.09824472029004,277.20900352282274 L 152.24853726690839,264.84083626901895 A 80,80 0 0,0 165.2882610539202,273.55370114786842 L 172.83060884313616,259.44296091829472 A 64,64 0 0,1 167.44350508674546,256.21405518736293 L 185.22175254337273,229.60702759368147 A 32,32 0 0,0 190.75413016431713,232.56414504036118 L 193.81559762323786,225.17310878027089" />
  <type>Circular</type>
</svg>