<?xml version="1.0" encoding="utf-8" standalone="no"?>
<!DOCTYPE svg PUBLIC "-//W3C//DTD SVG 1.1//EN" "http://www.w3.org/Graphics/SVG/1.1/DTD/svg11.dtd"[]>
<svg width="404" height="404" version="1.1" xmlns="http://www.w3.org/2000/svg">
  <title>25 cells diameter theta maze</title>
  <g fill="none" stroke="#000000" stroke-width="2" stroke-linecap="square">
    <path d="M 186.02943725152286,219.97056274847714 A 24,24 0 1,1 203,227" />
    <path d="M 174.7157287525381,174.7157287525381 A 40,40 0 0,1 203,163" />
    <path d="M 218.3073372946036,166.04481869954853 A 40,40 0 0,1 231.2842712474619,174.7157287525381" />
    <path d="M 239.95518130045147,187.6926627053964 A 40,40 0 0,1 243,203" />
    <path d="M 239.95518130045147,218.3073372946036 A 40,40 0 0,1 231.2842712474619,231.2842712474619" />
    <path d="M 218.3073372946036,239.95518130045147 A 40,40 0 0,1 166.04481869954853,187.6926627053964" />
    <path d="M 151.26274617936795,224.43027221244506 A 56,56 0 0,1 203,147" />
    <path d="M 242.59797974644667,163.40202025355333 A 56,56 0 0,1 254.73725382063208,224.43027221244503" />
    <path d="M 242.59797974644667,242.59797974644664 A 56,56 0 0,1 224.43027221244503,254.73725382063205" />
    <path d="M 181.569727787555,254.73725382063208 A 56,56 0 0,1 163.40202025355336,242.59797974644667" />
    <path d="M 203,131 A 72,72 0 0,1 253.91168824543144,152.08831175456857" />
    <path d="M 262.86581208578326,162.99894322258865 A 72,72 0 0,1 273.61654018903261,217.04650318516124" />
    <path d="M 269.51932634081265,230.55320713028647 A 72,72 0 0,1 262.86581208578326,243.00105677741135" />
    <path d="M 253.91168824543144,253.91168824543141 A 72,72 0 0,1 230.55320713028647,269.51932634081265" />
    <path d="M 217.04650318516127,273.61654018903261 A 72,72 0 0,1 188.95349681483876,273.61654018903261" />
    <path d="M 162.99894322258865,262.86581208578326 A 72,72 0 0,1 136.48067365918737,230.5532071302865" />
    <path d="M 132.3834598109674,217.04650318516127 A 72,72 0 0,1 131,203" />
    <path d="M 136.48067365918735,175.44679286971353 A 72,72 0 0,1 143.13418791421674,162.99894322258865" />
    <path d="M 162.99894322258865,143.13418791421674 A 72,72 0 0,1 188.95349681483873,132.3834598109674" />
    <path d="M 185.83205166258068,116.69089532451572 A 88,88 0 0,1 203,115" />
    <path d="M 236.6761420481279,121.69860113900677 A 88,88 0 0,1 284.30139886099323,169.3238579518721" />
    <path d="M 289.30910467548426,185.83205166258071 A 88,88 0 0,1 284.30139886099323,236.6761420481279" />
    <path d="M 265.22539674441617,265.22539674441617 A 88,88 0 0,1 220.16794833741932,289.30910467548426" />
    <path d="M 203,291 A 88,88 0 0,1 169.32385795187213,284.30139886099323" />
    <path d="M 140.77460325558383,265.22539674441617 A 88,88 0 0,1 169.32385795187204,121.69860113900678" />
    <path d="M 242.79907696596933,106.91652861882618 A 104,104 0 0,1 276.53910524340097,129.46089475659906" />
    <path d="M 289.4728396794647,145.22069576596135 A 104,104 0 0,1 299.08347138117381,163.20092303403067" />
    <path d="M 305.001669161936,223.28939348967734 A 104,104 0 0,1 289.47283967946476,260.77930423403859" />
    <path d="M 276.53910524340097,276.53910524340097 A 104,104 0 0,1 242.79907696596933,299.08347138117381" />
    <path d="M 182.71060651032266,305.001669161936 A 104,104 0 0,1 163.20092303403067,299.08347138117381" />
    <path d="M 145.22069576596141,289.47283967946476 A 104,104 0 0,1 129.46089475659909,276.53910524340097" />
    <path d="M 100.99833083806404,223.28939348967737 A 104,104 0 0,1 99,203.00000000000003" />
    <path d="M 100.99833083806404,182.71060651032266 A 104,104 0 0,1 106.91652861882619,163.20092303403064" />
    <path d="M 116.52716032053527,145.22069576596141 A 104,104 0 0,1 163.20092303403061,106.91652861882621" />
    <path d="M 179.58916135806456,85.305766351612363 A 120,120 0 0,1 226.41083864193539,85.305766351612348" />
    <path d="M 248.92201188381077,92.134456098645586 A 120,120 0 0,1 269.66842796235227,103.22364652369457" />
    <path d="M 287.85281374238571,118.14718625761429 A 120,120 0 0,1 302.77635347630542,136.33157203764773" />
    <path d="M 313.86554390135439,157.07798811618923 A 120,120 0 0,1 320.69423364838764,179.58916135806459" />
    <path d="M 323,203 A 120,120 0 0,1 320.69423364838764,226.41083864193539" />
    <path d="M 313.86554390135439,248.92201188381077 A 120,120 0 0,1 287.85281374238571,287.85281374238571" />
    <path d="M 248.9220118838108,313.86554390135439 A 120,120 0 0,1 157.07798811618926,313.86554390135439" />
    <path d="M 136.33157203764779,302.77635347630547 A 120,120 0 0,1 118.14718625761431,287.85281374238571" />
    <path d="M 103.22364652369457,269.66842796235227 A 120,120 0 0,1 85.305766351612348,226.41083864193544" />
    <path d="M 85.305766351612348,179.58916135806462 A 120,120 0 0,1 157.07798811618915,92.134456098645614" />
    <path d="M 127.4424483093341,89.920132726853851 A 136,136 0 0,1 203,67" />
    <path d="M 216.33033108482024,67.654877172581223 A 136,136 0 0,1 255.0449468016522,77.352383578465" />
    <path d="M 267.10995620833569,83.058708048623714 A 136,136 0 0,1 289.2774866462558,97.87057834266777" />
    <path d="M 308.12942165733222,116.72251335374421 A 136,136 0 0,1 333.14388565958041,163.52128389339313" />
    <path d="M 336.38679813483935,176.46771620580654 A 136,136 0 0,1 328.647616421535,255.0449468016522" />
    <path d="M 322.94129195137629,267.10995620833569 A 136,136 0 0,1 299.16652224137044,299.16652224137044" />
    <path d="M 278.55755169066589,316.07986727314619 A 136,136 0 0,1 189.66966891517976,338.34512282741878" />
    <path d="M 176.46771620580654,336.38679813483935 A 136,136 0 0,1 163.52128389339316,333.14388565958041" />
    <path d="M 138.89004379166431,322.94129195137629 A 136,136 0 0,1 72.8561143404196,242.4787161066069" />
    <path d="M 67.654877172581223,216.33033108482022 A 136,136 0 0,1 67,203.00000000000003" />
    <path d="M 67.654877172581223,189.66966891517984 A 136,136 0 0,1 69.613201865160647,176.46771620580654" />
    <path d="M 89.920132726853822,127.44244830933414 A 136,136 0 0,1 116.72251335374415,97.870578342667827" />
    <path d="M 203,51 A 152,152 0 0,1 232.65372894645151,53.92063737870896" />
    <path d="M 287.44667541897957,76.616618930013118 A 152,152 0 0,1 310.48023074035524,95.519769259644775" />
    <path d="M 320.497588911136,106.57222080712587 A 152,152 0 0,1 329.38338106998685,118.55332458102046" />
    <path d="M 337.05203218094994,131.34769600244835 A 152,152 0 0,1 352.079362621291,173.34627105354849" />
    <path d="M 354.26807845417392,188.10139466990677 A 152,152 0 0,1 355,203" />
    <path d="M 354.26807845417392,217.89860533009323 A 152,152 0 0,1 348.45493103129576,247.12327094267826" />
    <path d="M 343.4296889417156,261.16788171949361 A 152,152 0 0,1 337.05203218094994,274.65230399755166" />
    <path d="M 329.38338106998691,287.44667541897951 A 152,152 0 0,1 310.48023074035524,310.48023074035518" />
    <path d="M 299.42777919287414,320.497588911136 A 152,152 0 0,1 287.44667541897951,329.38338106998685" />
    <path d="M 247.12327094267829,348.45493103129576 A 152,152 0 0,1 232.65372894645154,352.079362621291" />
    <path d="M 217.89860533009323,354.26807845417392 A 152,152 0 0,1 203.00000000000003,355" />
    <path d="M 188.1013946699068,354.26807845417392 A 152,152 0 0,1 173.34627105354849,352.079362621291" />
    <path d="M 131.34769600244835,337.05203218094994 A 152,152 0 0,1 106.57222080712592,320.49758891113606" />
    <path d="M 76.616618930013118,287.44667541897951 A 152,152 0 0,1 62.57031105828446,261.16788171949372" />
    <path d="M 57.545068968704243,247.12327094267829 A 152,152 0 0,1 51.731921545826083,217.89860533009318" />
    <path d="M 51,203.00000000000003 A 152,152 0 0,1 51.731921545826054,188.10139466990688" />
    <path d="M 68.947967819050035,131.34769600244837 A 152,152 0 0,1 95.519769259644747,95.5197692596448" />
    <path d="M 131.34769600244832,68.947967819050064 A 152,152 0 0,1 144.83211828050625,62.57031105828446" />
    <path d="M 173.34627105354844,53.920637378708989 A 152,152 0 0,1 188.1013946699068,51.731921545826083" />
    <path d="M 219.46687957536619,35.808965919070914 A 168,168 0 0,1 267.29081663733507,47.788238538103826" />
    <path d="M 309.57807173949243,73.134243835060175 A 168,168 0 0,1 332.8657561649398,96.421928260507556" />
    <path d="M 342.68689486682763,109.66420085270683 A 168,168 0 0,1 351.16277241052364,123.80534821323238" />
    <path d="M 367.77192710774273,170.22482590129044 A 168,168 0 0,1 370.19103408092906,186.53312042463378" />
    <path d="M 371,203 A 168,168 0 0,1 370.19103408092906,219.46687957536619" />
    <path d="M 363.76597640301111,251.76782577874965 A 168,168 0 0,1 358.21176146189617,267.29081663733507" />
    <path d="M 351.16277241052364,282.19465178676762 A 168,168 0 0,1 282.19465178676762,351.16277241052364" />
    <path d="M 267.29081663733507,358.21176146189617 A 168,168 0 0,1 235.77517409870961,367.77192710774273" />
    <path d="M 219.46687957536622,370.19103408092906 A 168,168 0 0,1 154.23217422125038,363.76597640301111" />
    <path d="M 138.70918336266493,358.21176146189617 A 168,168 0 0,1 109.66420085270688,342.68689486682763" />
    <path d="M 63.3131051331724,296.33579914729319 A 168,168 0 0,1 54.837227589476385,282.19465178676762" />
    <path d="M 42.234023596988919,251.76782577874968 A 168,168 0 0,1 38.2280728922573,235.77517409870961" />
    <path d="M 35.808965919070914,219.46687957536616 A 168,168 0 0,1 42.234023596988891,154.23217422125038" />
    <path d="M 47.788238538103855,138.70918336266487 A 168,168 0 0,1 63.313105133172371,109.66420085270688" />
    <path d="M 96.421928260507485,73.134243835060261 A 168,168 0 0,1 123.80534821323235,54.837227589476385" />
    <path d="M 138.70918336266482,47.788238538103855 A 168,168 0 0,1 186.53312042463384,35.808965919070914" />
    <path d="M 184.96484617936088,19.886010292315774 A 184,184 0 0,1 221.03515382063915,19.886010292315774" />
    <path d="M 256.41238061482107,26.922978225273567 A 184,184 0 0,1 289.73699957598353,40.726487359902677" />
    <path d="M 305.22492287560681,50.009591336331681 A 184,184 0 0,1 319.72836428611078,60.766076581256385" />
    <path d="M 333.10764773832477,72.892352261675256 A 184,184 0 0,1 355.99040866366829,100.77507712439318" />
    <path d="M 365.27351264009735,116.26300042401641 A 184,184 0 0,1 386.11398970768425,184.96484617936082" />
    <path d="M 386.11398970768425,221.03515382063915 A 184,184 0 0,1 355.99040866366835,305.22492287560675" />
    <path d="M 305.22492287560681,355.99040866366835 A 184,184 0 0,1 273.41375155517653,372.99383398207675" />
    <path d="M 256.41238061482107,379.0770217747264 A 184,184 0 0,1 221.03515382063918,386.11398970768425" />
    <path d="M 184.96484617936085,386.11398970768425 A 184,184 0 0,1 167.1033807490324,383.46449159419444" />
    <path d="M 149.58761938517898,379.0770217747264 A 184,184 0 0,1 132.58624844482353,372.99383398207681" />
    <path d="M 86.271635713889268,345.23392341874364 A 184,184 0 0,1 60.76607658125647,319.72836428611083" />
    <path d="M 50.009591336331681,305.22492287560681 A 184,184 0 0,1 40.726487359902706,289.73699957598365" />
    <path d="M 33.006166017923277,273.41375155517665 A 184,184 0 0,1 26.922978225273567,256.41238061482107" />
    <path d="M 22.535508405805615,238.89661925096766 A 184,184 0 0,1 19.886010292315774,184.96484617936093" />
    <path d="M 22.535508405805587,167.1033807490324 A 184,184 0 0,1 33.006166017923249,132.58624844482344" />
    <path d="M 50.009591336331624,100.77507712439326 A 184,184 0 0,1 100.77507712439319,50.009591336331681" />
    <path d="M 149.5876193851789,26.922978225273567 A 184,184 0 0,1 167.10338074903231,22.535508405805615" />
    <path d="M 222.60342806591211,3.9630546655606338 A 200,200 0 1,1 203,3" />
  </g>
  <g fill="none" stroke="#000000" stroke-width="2" stroke-linecap="butt">
    <line x1="203" y1="35" x2="203" y2="67" />
    <line x1="203" y1="83" x2="203" y2="115" />
    <line x1="203" y1="147" x2="203" y2="163" />
    <line x1="221.03515382063915" y1="19.886010292315774" x2="219.46687957536619" y2="35.808965919070914" />
    <line x1="238.8966192509676" y1="22.535508405805615" x2="235.77517409870956" y2="38.228072892257273" />
    <line x1="229.53228379419343" y1="69.613201865160647" x2="220.16794833741929" y2="116.69089532451572" />
    <line x1="247.12327094267829" y1="57.545068968704271" x2="242.47871610660687" y2="72.8561143404196" />
    <line x1="267.29081663733507" y1="47.788238538103826" x2="261.16788171949366" y2="62.5703110582844" />
    <line x1="248.92201188381077" y1="92.134456098645586" x2="242.79907696596933" y2="106.91652861882618" />
    <line x1="236.6761420481279" y1="121.69860113900677" x2="224.43027221244503" y2="151.26274617936795" />
    <line x1="297.27934736519956" y1="26.615747130328998" x2="274.65230399755166" y2="68.947967819050035" />
    <line x1="305.22492287560681" y1="50.009591336331681" x2="296.33579914729319" y2="63.3131051331724" />
    <line x1="287.44667541897957" y1="76.616618930013118" x2="269.66842796235227" y2="103.22364652369457" />
    <line x1="329.87865683272912" y1="48.397909327452595" x2="319.72836428611078" y2="60.766076581256385" />
    <line x1="333.10764773832477" y1="72.892352261675256" x2="299.16652224137044" y2="106.83347775862953" />
    <line x1="253.91168824543144" y1="152.08831175456857" x2="231.2842712474619" y2="174.7157287525381" />
    <line x1="320.497588911136" y1="106.57222080712589" x2="308.12942165733222" y2="116.72251335374422" />
    <line x1="355.99040866366829" y1="100.77507712439318" x2="329.38338106998685" y2="118.55332458102045" />
    <line x1="316.07986727314614" y1="127.44244830933408" x2="289.4728396794647" y2="145.22069576596135" />
    <line x1="379.384252869671" y1="108.72065263480044" x2="365.27351264009729" y2="116.2630004240164" />
    <line x1="337.05203218094994" y1="131.34769600244835" x2="322.94129195137629" y2="138.89004379166431" />
    <line x1="372.99383398207675" y1="132.58624844482347" x2="343.4296889417156" y2="144.83211828050634" />
    <line x1="299.08347138117381" y1="163.20092303403067" x2="284.30139886099323" y2="169.3238579518721" />
    <line x1="254.73725382063205" y1="181.56972778755497" x2="239.95518130045147" y2="187.6926627053964" />
    <line x1="363.76597640301111" y1="154.23217422125032" x2="348.45493103129576" y2="158.87672905732171" />
    <line x1="383.46449159419438" y1="167.1033807490324" x2="367.77192710774273" y2="170.22482590129044" />
    <line x1="352.079362621291" y1="173.34627105354849" x2="273.61654018903261" y2="188.95349681483876" />
    <line x1="370.19103408092906" y1="186.53312042463378" x2="354.26807845417392" y2="188.10139466990677" />
    <line x1="387" y1="203" x2="371" y2="203" />
    <line x1="323" y1="203" x2="307" y2="203" />
    <line x1="243" y1="203" x2="227" y2="203" />
    <line x1="386.11398970768425" y1="221.03515382063915" x2="370.19103408092906" y2="219.46687957536619" />
    <line x1="383.46449159419438" y1="238.8966192509676" x2="367.77192710774273" y2="235.77517409870953" />
    <line x1="320.69423364838764" y1="226.41083864193539" x2="305.001669161936" y2="223.28939348967734" />
    <line x1="348.45493103129576" y1="247.12327094267823" x2="333.14388565958041" y2="242.47871610660684" />
    <line x1="387.77590650225738" y1="279.53668647301794" x2="358.21176146189617" y2="267.29081663733507" />
    <line x1="328.64761642153496" y1="255.0449468016522" x2="313.86554390135439" y2="248.92201188381077" />
    <line x1="254.73725382063205" y1="224.43027221244503" x2="239.95518130045147" y2="218.3073372946036" />
    <line x1="351.16277241052364" y1="282.19465178676762" x2="322.94129195137629" y2="267.10995620833569" />
    <line x1="302.77635347630547" y1="269.66842796235221" x2="262.86581208578326" y2="243.00105677741135" />
    <line x1="345.23392341874364" y1="319.72836428611072" x2="332.86575616493985" y2="309.57807173949243" />
    <line x1="344.42135623730951" y1="344.42135623730951" x2="333.10764773832477" y2="333.10764773832477" />
    <line x1="310.48023074035524" y1="310.48023074035518" x2="299.16652224137044" y2="299.16652224137044" />
    <line x1="276.53910524340097" y1="276.53910524340097" x2="253.91168824543144" y2="253.91168824543144" />
    <line x1="329.87865683272912" y1="357.60209067254743" x2="289.2774866462558" y2="308.12942165733222" />
    <line x1="278.55755169066589" y1="316.07986727314619" x2="260.77930423403865" y2="289.4728396794647" />
    <line x1="282.19465178676762" y1="351.16277241052364" x2="274.65230399755166" y2="337.05203218094994" />
    <line x1="273.41375155517653" y1="372.99383398207675" x2="261.16788171949366" y2="343.4296889417156" />
    <line x1="230.55320713028647" y1="269.51932634081265" x2="224.43027221244503" y2="254.73725382063205" />
    <line x1="261.05693545089247" y1="394.38806714644176" x2="256.41238061482107" y2="379.0770217747264" />
    <line x1="238.89661925096766" y1="383.46449159419438" x2="235.77517409870961" y2="367.77192710774273" />
    <line x1="232.65372894645154" y1="352.079362621291" x2="229.53228379419349" y2="336.38679813483935" />
    <line x1="223.28939348967737" y1="305.001669161936" x2="220.16794833741932" y2="289.30910467548426" />
    <line x1="221.03515382063918" y1="386.11398970768425" x2="219.46687957536622" y2="370.19103408092906" />
    <line x1="203.00000000000003" y1="403" x2="203.00000000000003" y2="387" />
    <line x1="203.00000000000003" y1="355" x2="203.00000000000003" y2="339" />
    <line x1="203.00000000000003" y1="323" x2="203" y2="291" />
    <line x1="203" y1="275" x2="203" y2="227" />
    <line x1="186.53312042463381" y1="370.19103408092906" x2="189.66966891517976" y2="338.34512282741878" />
    <line x1="163.98193559677432" y1="399.1570560806461" x2="167.1033807490324" y2="383.46449159419438" />
    <line x1="176.46771620580654" y1="336.38679813483935" x2="179.58916135806459" y2="320.69423364838764" />
    <line x1="149.58761938517898" y1="379.0770217747264" x2="163.52128389339316" y2="333.14388565958041" />
    <line x1="138.70918336266493" y1="358.21176146189623" x2="157.07798811618923" y2="313.86554390135444" />
    <line x1="163.20092303403067" y1="299.08347138117381" x2="175.44679286971353" y2="269.51932634081265" />
    <line x1="108.72065263480047" y1="379.384252869671" x2="116.26300042401644" y2="365.27351264009735" />
    <line x1="100.77507712439324" y1="355.9904086636684" x2="109.66420085270687" y2="342.68689486682763" />
    <line x1="118.55332458102051" y1="329.38338106998691" x2="127.44244830933414" y2="316.07986727314619" />
    <line x1="145.22069576596141" y1="289.47283967946476" x2="162.99894322258865" y2="262.86581208578326" />
    <line x1="86.271635713889268" y1="345.23392341874364" x2="96.4219282605076" y2="332.86575616493985" />
    <line x1="72.892352261675256" y1="333.10764773832477" x2="129.46089475659906" y2="276.53910524340097" />
    <line x1="152.08831175456857" y1="253.91168824543144" x2="163.40202025355336" y2="242.59797974644667" />
    <line x1="73.134243835060232" y1="309.57807173949254" x2="97.870578342667812" y2="289.27748664625585" />
    <line x1="50.009591336331681" y1="305.22492287560681" x2="76.616618930013118" y2="287.44667541897957" />
    <line x1="103.22364652369457" y1="269.66842796235227" x2="116.5271603205353" y2="260.77930423403865" />
    <line x1="26.615747130328998" y1="297.27934736519956" x2="40.726487359902706" y2="289.73699957598359" />
    <line x1="47.788238538103855" y1="267.29081663733518" x2="77.352383578465037" y2="255.04494680165229" />
    <line x1="106.91652861882621" y1="242.79907696596939" x2="121.69860113900678" y2="236.67614204812796" />
    <line x1="26.922978225273567" y1="256.41238061482107" x2="57.545068968704271" y2="247.12327094267829" />
    <line x1="53.920637378708989" y1="232.65372894645157" x2="116.69089532451574" y2="220.16794833741932" />
    <line x1="35.808965919070914" y1="219.46687957536616" x2="51.731921545826054" y2="217.89860533009318" />
    <line x1="51" y1="203.00000000000003" x2="83" y2="203.00000000000003" />
    <line x1="131" y1="203" x2="147" y2="203" />
    <line x1="3.9630546655606054" y1="183.39657193408797" x2="51.731921545826054" y2="188.10139466990688" />
    <line x1="53.920637378708989" y1="173.34627105354849" x2="85.305766351612348" y2="179.58916135806462" />
    <line x1="116.69089532451572" y1="185.83205166258071" x2="132.3834598109674" y2="188.95349681483876" />
    <line x1="42.234023596988891" y1="154.23217422125038" x2="72.8561143404196" y2="163.52128389339316" />
    <line x1="33.006166017923249" y1="132.58624844482344" x2="77.352383578465023" y2="150.95505319834777" />
    <line x1="92.1344560986456" y1="157.0779881161892" x2="106.91652861882619" y2="163.20092303403064" />
    <line x1="136.48067365918735" y1="175.44679286971353" x2="166.04481869954853" y2="187.6926627053964" />
    <line x1="26.615747130328998" y1="108.72065263480049" x2="40.726487359902677" y2="116.26300042401644" />
    <line x1="68.947967819050035" y1="131.34769600244837" x2="83.058708048623714" y2="138.89004379166431" />
    <line x1="50.009591336331624" y1="100.77507712439326" x2="63.313105133172371" y2="109.66420085270688" />
    <line x1="89.920132726853822" y1="127.44244830933415" x2="103.22364652369454" y2="136.33157203764779" />
    <line x1="48.397909327452624" y1="76.121343167270879" x2="85.502411088864" y2="106.57222080712587" />
    <line x1="84.20606076066" y1="84.206060760660051" x2="95.519769259644747" y2="95.5197692596448" />
    <line x1="140.7746032555838" y1="140.77460325558383" x2="152.08831175456857" y2="152.08831175456859" />
    <line x1="96.421928260507485" y1="73.134243835060232" x2="116.72251335374415" y2="97.870578342667812" />
    <line x1="100.77507712439319" y1="50.009591336331681" x2="109.66420085270684" y2="63.3131051331724" />
    <line x1="118.55332458102046" y1="76.616618930013118" x2="127.44244830933411" y2="89.920132726853851" />
    <line x1="108.72065263480042" y1="26.615747130329027" x2="116.26300042401638" y2="40.726487359902706" />
    <line x1="123.80534821323235" y1="54.837227589476385" x2="131.34769600244832" y2="68.947967819050064" />
    <line x1="132.58624844482335" y1="33.006166017923277" x2="138.70918336266482" y2="47.788238538103855" />
    <line x1="150.95505319834771" y1="77.352383578465037" x2="157.07798811618915" y2="92.134456098645614" />
    <line x1="163.20092303403061" y1="106.91652861882621" x2="169.32385795187204" y2="121.69860113900678" />
    <line x1="175.44679286971348" y1="136.48067365918737" x2="181.56972778755494" y2="151.26274617936795" />
    <line x1="158.87672905732171" y1="57.545068968704271" x2="163.5212838933931" y2="72.8561143404196" />
    <line x1="163.98193559677426" y1="6.8429439193539281" x2="167.10338074903231" y2="22.535508405805615" />
    <line x1="170.22482590129039" y1="38.2280728922573" x2="176.46771620580648" y2="69.613201865160676" />
    <line x1="179.58916135806456" y1="85.305766351612363" x2="182.71060651032261" y2="100.99833083806405" />
    <line x1="185.83205166258068" y1="116.69089532451574" x2="188.95349681483873" y2="132.38345981096742" />
    <line x1="184.96484617936088" y1="19.886010292315774" x2="186.53312042463384" y2="35.808965919070914" />
  </g>
  <path fill="none" stroke="#ff0000" stroke-width="2" stroke-linecap="square" stroke-linejoin="round" d="M 212.8135348654836,3.2409087589655314 L 212.42099347086426,11.231272408606912 A 192,192 0 0,1 249.65219454142667,16.753999386647564 L 245.76451166297443,32.274499437760255 A 176,176 0 0,1 278.24969644372965,43.897884410273974 L 257.72705195907611,87.289370480199253 A 128,128 0 0,0 240.15643868857117,80.51163702627727 L 226.222774180357,126.4447731414233 A 80,80 0 0,0 195.15862877363517,123.38522186622424 L 196.72690301890813,139.30817749297938 A 64,64 0 0,1 215.48578060903222,140.22974205419325 L 209.2428903045161,171.61487102709663 A 32,32 0 0,0 190.75413016431713,232.56414504036118 L 193.81559762323786,225.17310878027089" />
  <type>Circular</type>
</svg>