<?xml version="1.0" encoding="utf-8" standalone="no"?>
<!DOCTYPE svg PUBLIC "-//W3C//DTD SVG 1.1//EN" "http://www.w3.org/Graphics/SVG/1.1/DTD/svg11.dtd"[]>
<svg width="404" height="404" version="1.1" xmlns="http://www.w3.org/2000/svg">
  <title>25 cells diameter theta maze</title>
  <g fill="none" stroke="#000000" stroke-width="2" stroke-linecap="square">
    <path d="M 186.02943725152286,219.97056274847714 A 24,24 0 1,1 203,227" />
    <path d="M 187.69266270539637,166.04481869954856 A 40,40 0 0,1 218.3073372946036,166.04481869954853" />
    <path d="M 243,203 A 40,40 0 0,1 239.95518130045147,218.3073372946036" />
    <path d="M 218.3073372946036,239.95518130045147 A 40,40 0 0,1 163,203" />
    <path d="M 166.04481869954853,187.6926627053964 A 40,40 0 0,1 174.7157287525381,174.7157287525381" />
    <path d="M 181.56972778755494,151.26274617936795 A 56,56 0 0,1 224.43027221244503,254.73725382063205" />
    <path d="M 203,259 A 56,56 0 0,1 181.569727787555,254.73725382063208" />
    <path d="M 163.40202025355336,242.59797974644667 A 56,56 0 0,1 151.26274617936795,224.43027221244506" />
    <path d="M 147,203 A 56,56 0 0,1 151.26274617936795,181.56972778755497" />
    <path d="M 175.44679286971348,136.48067365918737 A 72,72 0 0,1 203,131" />
    <path d="M 217.04650318516124,132.3834598109674 A 72,72 0 0,1 230.55320713028647,136.48067365918735" />
    <path d="M 243.00105677741135,143.13418791421674 A 72,72 0 0,1 253.91168824543144,152.08831175456857" />
    <path d="M 262.86581208578326,162.99894322258865 A 72,72 0 0,1 275,203" />
    <path d="M 273.61654018903261,217.04650318516124 A 72,72 0 0,1 269.51932634081265,230.55320713028647" />
    <path d="M 262.86581208578326,243.00105677741135 A 72,72 0 0,1 243.00105677741135,262.86581208578326" />
    <path d="M 230.55320713028647,269.51932634081265 A 72,72 0 0,1 188.95349681483876,273.61654018903261" />
    <path d="M 175.44679286971353,269.51932634081265 A 72,72 0 0,1 162.99894322258865,262.86581208578326" />
    <path d="M 152.08831175456859,253.91168824543144 A 72,72 0 0,1 132.3834598109674,188.95349681483876" />
    <path d="M 136.48067365918735,175.44679286971353 A 72,72 0 0,1 143.13418791421674,162.99894322258865" />
    <path d="M 152.08831175456857,152.08831175456859 A 72,72 0 0,1 162.99894322258865,143.13418791421674" />
    <path d="M 185.83205166258068,116.69089532451572 A 88,88 0 0,1 220.16794833741929,116.69089532451572" />
    <path d="M 251.890180505725,129.83067411737602 A 88,88 0 0,1 276.169325882624,154.109819494275" />
    <path d="M 289.30910467548426,220.16794833741929 A 88,88 0 0,1 284.30139886099323,236.6761420481279" />
    <path d="M 276.169325882624,251.89018050572497 A 88,88 0 0,1 236.6761420481279,284.30139886099323" />
    <path d="M 203,291 A 88,88 0 0,1 169.32385795187213,284.30139886099323" />
    <path d="M 154.10981949427503,276.169325882624 A 88,88 0 0,1 140.77460325558383,265.22539674441617" />
    <path d="M 129.83067411737602,251.890180505725 A 88,88 0 0,1 116.69089532451572,185.83205166258071" />
    <path d="M 129.830674117376,154.10981949427503 A 88,88 0 0,1 169.32385795187204,121.69860113900678" />
    <path d="M 203,99 A 104,104 0 0,1 242.79907696596933,106.91652861882618" />
    <path d="M 276.53910524340097,129.46089475659906 A 104,104 0 0,1 305.001669161936,182.71060651032266" />
    <path d="M 307,203 A 104,104 0 0,1 305.001669161936,223.28939348967734" />
    <path d="M 299.08347138117381,242.79907696596933 A 104,104 0 0,1 260.77930423403859,289.4728396794647" />
    <path d="M 242.79907696596933,299.08347138117381 A 104,104 0 0,1 203,307" />
    <path d="M 182.71060651032266,305.001669161936 A 104,104 0 0,1 145.22069576596141,289.47283967946476" />
    <path d="M 129.46089475659909,276.53910524340097 A 104,104 0 0,1 106.91652861882621,242.79907696596939" />
    <path d="M 99,203.00000000000003 A 104,104 0 0,1 106.91652861882619,163.20092303403064" />
    <path d="M 129.46089475659903,129.46089475659909 A 104,104 0 0,1 182.71060651032261,100.99833083806405" />
    <path d="M 179.58916135806456,85.305766351612363 A 120,120 0 0,1 203,83" />
    <path d="M 248.92201188381077,92.134456098645586 A 120,120 0 0,1 302.77635347630542,136.33157203764773" />
    <path d="M 320.69423364838764,179.58916135806459 A 120,120 0 0,1 313.86554390135439,248.92201188381077" />
    <path d="M 302.77635347630542,269.66842796235221 A 120,120 0 0,1 287.85281374238571,287.85281374238571" />
    <path d="M 269.66842796235227,302.77635347630542 A 120,120 0 0,1 226.41083864193544,320.69423364838764" />
    <path d="M 203.00000000000003,323 A 120,120 0 0,1 157.07798811618926,313.86554390135439" />
    <path d="M 136.33157203764779,302.77635347630547 A 120,120 0 0,1 118.14718625761431,287.85281374238571" />
    <path d="M 83,203.00000000000003 A 120,120 0 0,1 85.305766351612348,179.58916135806462" />
    <path d="M 103.22364652369454,136.33157203764779 A 120,120 0 0,1 118.14718625761428,118.14718625761432" />
    <path d="M 127.4424483093341,89.920132726853851 A 136,136 0 0,1 216.33033108482024,67.654877172581223" />
    <path d="M 229.53228379419343,69.613201865160647 A 136,136 0 0,1 278.55755169066589,89.920132726853851" />
    <path d="M 289.2774866462558,97.87057834266777 A 136,136 0 0,1 336.38679813483935,176.46771620580654" />
    <path d="M 338.34512282741878,189.66966891517973 A 136,136 0 0,1 339,203" />
    <path d="M 338.34512282741878,216.33033108482024 A 136,136 0 0,1 308.12942165733227,289.27748664625574" />
    <path d="M 299.16652224137044,299.16652224137044 A 136,136 0 0,1 289.2774866462558,308.12942165733222" />
    <path d="M 267.10995620833569,322.94129195137629 A 136,136 0 0,1 242.4787161066069,333.14388565958041" />
    <path d="M 216.33033108482027,338.34512282741878 A 136,136 0 0,1 163.52128389339316,333.14388565958041" />
    <path d="M 150.9550531983478,328.647616421535 A 136,136 0 0,1 127.44244830933414,316.07986727314619" />
    <path d="M 116.72251335374423,308.12942165733227 A 136,136 0 0,1 106.83347775862956,299.16652224137044" />
    <path d="M 97.870578342667812,289.27748664625585 A 136,136 0 0,1 67.654877172581223,189.66966891517984" />
    <path d="M 72.8561143404196,163.52128389339316 A 136,136 0 0,1 83.058708048623714,138.89004379166431" />
    <path d="M 89.920132726853822,127.44244830933414 A 136,136 0 0,1 97.870578342667784,116.72251335374421" />
    <path d="M 106.83347775862951,106.83347775862956 A 136,136 0 0,1 116.72251335374415,97.870578342667827" />
    <path d="M 217.8986053300932,51.731921545826083 A 152,152 0 0,1 287.44667541897957,76.616618930013118" />
    <path d="M 299.42777919287414,85.50241108886398 A 152,152 0 0,1 337.05203218094994,131.34769600244835" />
    <path d="M 348.45493103129576,158.87672905732174 A 152,152 0 0,1 354.26807845417392,188.10139466990677" />
    <path d="M 355,203 A 152,152 0 0,1 352.079362621291,232.65372894645148" />
    <path d="M 299.42777919287414,320.497588911136 A 152,152 0 0,1 287.44667541897951,329.38338106998685" />
    <path d="M 274.65230399755166,337.05203218094994 A 152,152 0 0,1 247.12327094267829,348.45493103129576" />
    <path d="M 232.65372894645154,352.079362621291 A 152,152 0 0,1 173.34627105354849,352.079362621291" />
    <path d="M 158.87672905732177,348.45493103129576 A 152,152 0 0,1 106.57222080712592,320.49758891113606" />
    <path d="M 95.519769259644789,310.48023074035524 A 152,152 0 0,1 85.502411088864022,299.42777919287414" />
    <path d="M 76.616618930013118,287.44667541897951 A 152,152 0 0,1 62.57031105828446,261.16788171949372" />
    <path d="M 57.545068968704243,247.12327094267829 A 152,152 0 0,1 53.920637378708989,232.65372894645157" />
    <path d="M 51.731921545826083,217.89860533009318 A 152,152 0 0,1 53.92063737870896,173.34627105354849" />
    <path d="M 57.545068968704243,158.87672905732177 A 152,152 0 0,1 62.570311058284432,144.83211828050634" />
    <path d="M 85.502411088864,106.57222080712587 A 152,152 0 0,1 95.519769259644747,95.5197692596448" />
    <path d="M 106.57222080712582,85.502411088864037 A 152,152 0 0,1 131.34769600244832,68.947967819050064" />
    <path d="M 170.22482590129039,38.2280728922573 A 168,168 0 0,1 282.19465178676762,54.837227589476356" />
    <path d="M 296.33579914729319,63.3131051331724 A 168,168 0 0,1 309.57807173949243,73.134243835060175" />
    <path d="M 332.8657561649398,96.421928260507556 A 168,168 0 0,1 351.16277241052364,123.80534821323238" />
    <path d="M 370.19103408092906,186.53312042463378 A 168,168 0 0,1 371,203" />
    <path d="M 367.77192710774273,235.77517409870953 A 168,168 0 0,1 363.76597640301111,251.76782577874965" />
    <path d="M 358.21176146189617,267.29081663733507 A 168,168 0 0,1 342.68689486682763,296.33579914729313" />
    <path d="M 332.86575616493985,309.57807173949243 A 168,168 0 0,1 309.57807173949243,332.86575616493985" />
    <path d="M 296.33579914729319,342.68689486682763 A 168,168 0 0,1 267.29081663733507,358.21176146189617" />
    <path d="M 251.76782577874968,363.76597640301111 A 168,168 0 0,1 219.46687957536622,370.19103408092906" />
    <path d="M 203.00000000000003,371 A 168,168 0 0,1 138.70918336266493,358.21176146189617" />
    <path d="M 109.66420085270688,342.68689486682763 A 168,168 0 0,1 63.3131051331724,296.33579914729319" />
    <path d="M 38.2280728922573,235.77517409870961 A 168,168 0 0,1 35.808965919070914,219.46687957536616" />
    <path d="M 35.808965919070914,186.53312042463392 A 168,168 0 0,1 38.228072892257273,170.22482590129044" />
    <path d="M 42.234023596988891,154.23217422125038 A 168,168 0 0,1 47.788238538103855,138.70918336266487" />
    <path d="M 63.313105133172371,109.66420085270688 A 168,168 0 0,1 96.421928260507485,73.134243835060261" />
    <path d="M 123.80534821323235,54.837227589476385 A 168,168 0 0,1 154.23217422125032,42.234023596988919" />
    <path d="M 203,19 A 184,184 0 0,1 221.03515382063915,19.886010292315774" />
    <path d="M 256.41238061482107,26.922978225273567 A 184,184 0 0,1 355.99040866366829,100.77507712439318" />
    <path d="M 365.27351264009735,116.26300042401641 A 184,184 0 0,1 372.99383398207675,132.58624844482347" />
    <path d="M 379.0770217747264,149.58761938517893 A 184,184 0 0,1 383.46449159419444,167.1033807490324" />
    <path d="M 386.11398970768425,184.96484617936082 A 184,184 0 0,1 383.46449159419444,238.8966192509676" />
    <path d="M 379.0770217747264,256.412380614821 A 184,184 0 0,1 372.99383398207681,273.41375155517653" />
    <path d="M 365.27351264009735,289.73699957598359 A 184,184 0 0,1 345.23392341874364,319.72836428611072" />
    <path d="M 319.72836428611078,345.23392341874364 A 184,184 0 0,1 305.22492287560681,355.99040866366835" />
    <path d="M 273.41375155517653,372.99383398207675 A 184,184 0 0,1 238.89661925096766,383.46449159419438" />
    <path d="M 221.03515382063918,386.11398970768425 A 184,184 0 0,1 167.1033807490324,383.46449159419444" />
    <path d="M 149.58761938517898,379.0770217747264 A 184,184 0 0,1 132.58624844482353,372.99383398207681" />
    <path d="M 116.26300042401644,365.27351264009735 A 184,184 0 0,1 100.77507712439325,355.99040866366835" />
    <path d="M 60.76607658125647,319.72836428611083 A 184,184 0 0,1 26.922978225273567,256.41238061482107" />
    <path d="M 19.886010292315774,221.03515382063912 A 184,184 0 0,1 19.886010292315774,184.96484617936093" />
    <path d="M 22.535508405805587,167.1033807490324 A 184,184 0 0,1 26.922978225273539,149.58761938517898" />
    <path d="M 72.892352261675228,72.892352261675285 A 184,184 0 0,1 116.26300042401638,40.726487359902706" />
    <path d="M 149.5876193851789,26.922978225273567 A 184,184 0 0,1 167.10338074903231,22.535508405805615" />
    <path d="M 222.60342806591211,3.9630546655606338 A 200,200 0 1,1 203,3" />
  </g>
  <g fill="none" stroke="#000000" stroke-width="2" stroke-linecap="butt">
    <line x1="203" y1="3" x2="203" y2="19" />
    <line x1="203" y1="35" x2="203" y2="51" />
    <line x1="203" y1="83" x2="203" y2="99" />
    <line x1="203" y1="147" x2="203" y2="163" />
    <line x1="217.8986053300932" y1="51.731921545826054" x2="216.33033108482024" y2="67.654877172581223" />
    <line x1="238.8966192509676" y1="22.535508405805615" x2="235.77517409870956" y2="38.228072892257273" />
    <line x1="229.53228379419343" y1="69.613201865160647" x2="226.41083864193539" y2="85.305766351612348" />
    <line x1="220.16794833741929" y1="116.69089532451572" x2="217.04650318516124" y2="132.3834598109674" />
    <line x1="248.92201188381077" y1="92.134456098645586" x2="236.6761420481279" y2="121.69860113900677" />
    <line x1="230.55320713028647" y1="136.48067365918735" x2="224.43027221244503" y2="151.26274617936795" />
    <line x1="274.65230399755166" y1="68.947967819050035" x2="267.10995620833569" y2="83.058708048623714" />
    <line x1="305.22492287560681" y1="50.009591336331681" x2="287.44667541897957" y2="76.616618930013118" />
    <line x1="269.66842796235227" y1="103.22364652369457" x2="251.890180505725" y2="129.83067411737602" />
    <line x1="321.79393923934" y1="84.206060760660009" x2="310.48023074035518" y2="95.519769259644775" />
    <line x1="299.16652224137044" y1="106.83347775862953" x2="287.85281374238571" y2="118.14718625761429" />
    <line x1="265.22539674441617" y1="140.77460325558383" x2="253.91168824543144" y2="152.08831175456857" />
    <line x1="231.2842712474619" y1="174.7157287525381" x2="219.97056274847714" y2="186.02943725152286" />
    <line x1="355.99040866366829" y1="100.77507712439318" x2="342.68689486682763" y2="109.66420085270681" />
    <line x1="379.384252869671" y1="108.72065263480044" x2="365.27351264009729" y2="116.2630004240164" />
    <line x1="351.16277241052364" y1="123.80534821323236" x2="337.05203218094994" y2="131.34769600244835" />
    <line x1="372.99383398207675" y1="132.58624844482347" x2="313.86554390135439" y2="157.0779881161892" />
    <line x1="299.08347138117381" y1="163.20092303403067" x2="284.30139886099323" y2="169.3238579518721" />
    <line x1="269.51932634081265" y1="175.44679286971353" x2="239.95518130045147" y2="187.6926627053964" />
    <line x1="363.76597640301111" y1="154.23217422125032" x2="348.45493103129576" y2="158.87672905732171" />
    <line x1="399.1570560806461" y1="163.98193559677435" x2="367.77192710774273" y2="170.22482590129044" />
    <line x1="352.079362621291" y1="173.34627105354849" x2="336.38679813483935" y2="176.46771620580654" />
    <line x1="320.69423364838764" y1="179.58916135806459" x2="305.001669161936" y2="182.71060651032266" />
    <line x1="289.30910467548426" y1="185.83205166258071" x2="273.61654018903261" y2="188.95349681483876" />
    <line x1="370.19103408092906" y1="186.53312042463378" x2="354.26807845417392" y2="188.10139466990677" />
    <line x1="355" y1="203" x2="323" y2="203" />
    <line x1="307" y1="203" x2="275" y2="203" />
    <line x1="243" y1="203" x2="227" y2="203" />
    <line x1="386.11398970768425" y1="221.03515382063915" x2="354.268078454174" y2="217.89860533009323" />
    <line x1="320.69423364838764" y1="226.41083864193539" x2="305.001669161936" y2="223.28939348967734" />
    <line x1="379.0770217747264" y1="256.412380614821" x2="333.14388565958041" y2="242.47871610660684" />
    <line x1="372.99383398207675" y1="273.41375155517653" x2="343.4296889417156" y2="261.16788171949361" />
    <line x1="299.08347138117381" y1="242.79907696596933" x2="284.30139886099323" y2="236.6761420481279" />
    <line x1="269.51932634081265" y1="230.55320713028647" x2="254.73725382063205" y2="224.43027221244503" />
    <line x1="379.384252869671" y1="297.27934736519956" x2="365.27351264009735" y2="289.73699957598359" />
    <line x1="337.05203218094994" y1="274.65230399755166" x2="322.94129195137629" y2="267.10995620833569" />
    <line x1="342.68689486682763" y1="296.33579914729313" x2="329.38338106998691" y2="287.44667541897951" />
    <line x1="316.07986727314619" y1="278.55755169066583" x2="289.47283967946476" y2="260.77930423403859" />
    <line x1="332.86575616493985" y1="309.57807173949243" x2="320.49758891113606" y2="299.42777919287408" />
    <line x1="344.42135623730951" y1="344.42135623730951" x2="321.79393923934" y2="321.79393923934" />
    <line x1="310.48023074035524" y1="310.48023074035518" x2="299.16652224137044" y2="299.16652224137044" />
    <line x1="242.59797974644667" y1="242.59797974644664" x2="231.2842712474619" y2="231.2842712474619" />
    <line x1="319.72836428611078" y1="345.23392341874364" x2="309.57807173949243" y2="332.86575616493985" />
    <line x1="299.42777919287414" y1="320.497588911136" x2="289.2774866462558" y2="308.12942165733222" />
    <line x1="296.33579914729319" y1="342.68689486682763" x2="260.77930423403865" y2="289.4728396794647" />
    <line x1="251.890180505725" y1="276.169325882624" x2="243.00105677741135" y2="262.86581208578326" />
    <line x1="297.27934736519956" y1="379.384252869671" x2="289.73699957598359" y2="365.27351264009729" />
    <line x1="273.41375155517653" y1="372.99383398207675" x2="267.29081663733507" y2="358.21176146189617" />
    <line x1="255.04494680165223" y1="328.64761642153496" x2="248.9220118838108" y2="313.86554390135439" />
    <line x1="242.79907696596933" y1="299.08347138117381" x2="236.6761420481279" y2="284.30139886099323" />
    <line x1="230.55320713028647" y1="269.51932634081265" x2="224.43027221244503" y2="254.73725382063205" />
    <line x1="251.76782577874968" y1="363.76597640301111" x2="242.4787161066069" y2="333.14388565958041" />
    <line x1="232.65372894645154" y1="352.079362621291" x2="226.41083864193544" y2="320.69423364838764" />
    <line x1="223.28939348967737" y1="305.001669161936" x2="217.04650318516127" y2="273.61654018903261" />
    <line x1="221.03515382063918" y1="386.11398970768425" x2="219.46687957536622" y2="370.19103408092906" />
    <line x1="203.00000000000003" y1="323" x2="203" y2="307" />
    <line x1="203" y1="259" x2="203" y2="227" />
    <line x1="163.98193559677432" y1="399.1570560806461" x2="167.1033807490324" y2="383.46449159419438" />
    <line x1="182.71060651032266" y1="305.001669161936" x2="185.83205166258071" y2="289.30910467548426" />
    <line x1="154.23217422125038" y1="363.76597640301111" x2="163.52128389339316" y2="333.14388565958041" />
    <line x1="132.5862484448235" y1="372.99383398207681" x2="138.70918336266493" y2="358.21176146189623" />
    <line x1="150.9550531983478" y1="328.647616421535" x2="157.07798811618923" y2="313.86554390135444" />
    <line x1="169.3238579518721" y1="284.30139886099323" x2="181.56972778755497" y2="254.73725382063208" />
    <line x1="123.80534821323239" y1="351.16277241052364" x2="131.34769600244835" y2="337.05203218094994" />
    <line x1="91.885953396079614" y1="369.29392246050907" x2="100.77507712439324" y2="355.9904086636684" />
    <line x1="118.55332458102051" y1="329.38338106998691" x2="127.44244830933414" y2="316.07986727314619" />
    <line x1="136.33157203764776" y1="302.77635347630547" x2="145.22069576596141" y2="289.47283967946476" />
    <line x1="86.271635713889268" y1="345.23392341874364" x2="106.57222080712592" y2="320.49758891113606" />
    <line x1="61.578643762690518" y1="344.42135623730951" x2="72.892352261675256" y2="333.10764773832477" />
    <line x1="95.519769259644789" y1="310.48023074035524" x2="163.40202025355336" y2="242.59797974644667" />
    <line x1="63.3131051331724" y1="296.33579914729319" x2="103.22364652369457" y2="269.66842796235227" />
    <line x1="40.726487359902706" y1="289.73699957598359" x2="54.837227589476356" y2="282.19465178676762" />
    <line x1="47.788238538103855" y1="267.29081663733518" x2="62.57031105828446" y2="261.16788171949372" />
    <line x1="92.134456098645614" y1="248.92201188381085" x2="106.91652861882621" y2="242.79907696596939" />
    <line x1="26.922978225273567" y1="256.41238061482107" x2="57.545068968704271" y2="247.12327094267829" />
    <line x1="22.535508405805615" y1="238.89661925096766" x2="38.2280728922573" y2="235.77517409870961" />
    <line x1="53.920637378708989" y1="232.65372894645157" x2="116.69089532451574" y2="220.16794833741932" />
    <line x1="3.9630546655606054" y1="222.60342806591208" x2="19.886010292315774" y2="221.03515382063912" />
    <line x1="35.808965919070914" y1="219.46687957536616" x2="51.731921545826054" y2="217.89860533009318" />
    <line x1="35" y1="203.00000000000003" x2="51" y2="203.00000000000003" />
    <line x1="83" y1="203.00000000000003" x2="99" y2="203.00000000000003" />
    <line x1="147" y1="203" x2="163" y2="203" />
    <line x1="19.886010292315774" y1="184.96484617936093" x2="35.808965919070914" y2="186.53312042463389" />
    <line x1="22.535508405805615" y1="167.1033807490324" x2="38.228072892257273" y2="170.22482590129044" />
    <line x1="53.920637378708989" y1="173.34627105354849" x2="85.305766351612348" y2="179.58916135806462" />
    <line x1="57.545068968704243" y1="158.87672905732177" x2="72.8561143404196" y2="163.52128389339316" />
    <line x1="18.224093497742672" y1="126.463313526982" x2="47.788238538103855" y2="138.70918336266487" />
    <line x1="77.352383578465023" y1="150.95505319834777" x2="151.26274617936795" y2="181.56972778755497" />
    <line x1="26.615747130328998" y1="108.72065263480049" x2="83.058708048623714" y2="138.89004379166431" />
    <line x1="50.009591336331624" y1="100.77507712439326" x2="129.83067411737602" y2="154.10981949427503" />
    <line x1="48.397909327452624" y1="76.121343167270879" x2="60.766076581256414" y2="86.271635713889211" />
    <line x1="72.892352261675228" y1="72.892352261675285" x2="84.20606076066" y2="84.206060760660051" />
    <line x1="95.519769259644747" y1="95.5197692596448" x2="118.14718625761428" y2="118.14718625761432" />
    <line x1="140.7746032555838" y1="140.77460325558383" x2="186.02943725152286" y2="186.02943725152286" />
    <line x1="100.77507712439319" y1="50.009591336331681" x2="109.66420085270684" y2="63.3131051331724" />
    <line x1="118.55332458102046" y1="76.616618930013118" x2="127.44244830933411" y2="89.920132726853851" />
    <line x1="136.33157203764773" y1="103.22364652369457" x2="145.22069576596138" y2="116.5271603205353" />
    <line x1="116.26300042401638" y1="40.726487359902706" x2="123.80534821323235" y2="54.837227589476385" />
    <line x1="126.46331352698192" y1="18.2240934977427" x2="132.58624844482335" y2="33.006166017923277" />
    <line x1="138.70918336266482" y1="47.788238538103855" x2="144.83211828050625" y2="62.57031105828446" />
    <line x1="150.95505319834771" y1="77.352383578465037" x2="157.07798811618915" y2="92.134456098645614" />
    <line x1="169.32385795187204" y1="121.69860113900678" x2="175.44679286971348" y2="136.48067365918737" />
    <line x1="149.5876193851789" y1="26.922978225273567" x2="163.5212838933931" y2="72.8561143404196" />
    <line x1="170.22482590129039" y1="38.2280728922573" x2="173.34627105354844" y2="53.920637378708989" />
    <line x1="179.58916135806456" y1="85.305766351612363" x2="185.83205166258068" y2="116.69089532451574" />
    <line x1="183.39657193408789" y1="3.9630546655606054" x2="186.53312042463384" y2="35.808965919070914" />
    <line x1="188.1013946699068" y1="51.731921545826054" x2="189.66966891517978" y2="67.654877172581223" />
  </g>
  <path fill="none" stroke="#ff0000" stroke-width="2" stroke-linecap="square" stroke-linejoin="round" d="M 212.8135348654836,3.2409087589655314 L 212.42099347086426,11.231272408606912 A 192,192 0 0,1 249.65219454142667,16.753999386647564 L 245.76451166297443,32.274499437760255 A 176,176 0 0,1 293.48208297800704,52.0397646399521 L 285.25643907091546,65.763422399956454 A 160,160 0 0,0 210.85082789238689,43.192727007172408 L 210.0657451031482,59.17345430645517 A 144,144 0 0,0 195.9342548968518,59.17345430645517 L 195.14917210761311,43.192727007172408 A 160,160 0 0,0 179.523124087142,44.731758405635048 L 181.87081167842783,60.558582565071561 A 144,144 0 0,0 168.01085409392996,63.315499539985666 L 160.23548833702552,32.274499437760284 A 176,176 0 0,1 177.17543649585622,28.904934246198565 L 174.82774890457043,13.078110086762081 A 192,192 0 0,0 138.31714814869378,22.223539484859998 L 143.70738580296927,37.288244527788351 A 176,176 0 0,0 127.75030355627027,43.897884410274 L 120.90942206138575,29.434055720298915 A 192,192 0 0,0 60.737383931847859,74.060680669372488 L 72.5926019375272,84.805623946924769 A 176,176 0 0,0 61.635474459406424,98.156922409331813 L 48.784153955716107,88.625733537452888 A 192,192 0 0,0 38.316106879947739,104.29227311490148 L 93.210737919965155,137.19484874326764 A 128,128 0 0,0 90.114078163410554,142.66121768627232 L 132.44629885213158,165.2882610539202 A 80,80 0 0,1 141.15916373098105,152.24853726690836 L 153.52733098478484,162.39882981352668 A 64,64 0 0,0 149.7859448126371,167.44350508674549 L 163.08945860947782,176.33262881505911 A 48,48 0 0,0 155.92230654064494,193.63566454322583 L 171.61487102709663,196.75710969548391 A 32,32 0 0,0 190.75413016431713,232.56414504036118 L 193.81559762323786,225.17310878027089" />
  <type>Circular</type>
</svg>