<?xml version="1.0" encoding="utf-8" standalone="no"?>
<!DOCTYPE svg PUBLIC "-//W3C//DTD SVG 1.1//EN" "http://www.w3.org/Graphics/SVG/1.1/DTD/svg11.dtd"[]>
<svg width="404" height="404" version="1.1" xmlns="http://www.w3.org/2000/svg">
  <title>25 cells diameter theta maze</title>
  <g fill="none" stroke="#000000" stroke-width="2" stroke-linecap="square">
    <path d="M 186.02943725152286,219.97056274847714 A 24,24 0 1,1 203,227" />
    <path d="M 187.69266270539637,166.04481869954856 A 40,40 0 0,1 203,163" />
    <path d="M 218.3073372946036,166.04481869954853 A 40,40 0 0,1 231.2842712474619,174.7157287525381" />
    <path d="M 239.95518130045147,187.6926627053964 A 40,40 0 0,1 243,203" />
    <path d="M 239.95518130045147,218.3073372946036 A 40,40 0 0,1 218.3073372946036,239.95518130045147" />
    <path d="M 203,243 A 40,40 0 0,1 174.7157287525381,231.2842712474619" />
    <path d="M 166.04481869954853,218.3073372946036 A 40,40 0 0,1 174.7157287525381,174.7157287525381" />
    <path d="M 224.43027221244503,151.26274617936795 A 56,56 0 0,1 254.73725382063205,181.56972778755497" />
    <path d="M 259,203 A 56,56 0 0,1 254.73725382063208,224.43027221244503" />
    <path d="M 242.59797974644667,242.59797974644664 A 56,56 0 0,1 224.43027221244503,254.73725382063205" />
    <path d="M 203,259 A 56,56 0 0,1 151.26274617936795,224.43027221244506" />
    <path d="M 151.26274617936795,181.56972778755497 A 56,56 0 0,1 163.40202025355333,163.40202025355336" />
    <path d="M 203,131 A 72,72 0 0,1 217.04650318516124,132.3834598109674" />
    <path d="M 262.86581208578326,162.99894322258865 A 72,72 0 0,1 273.61654018903261,217.04650318516124" />
    <path d="M 253.91168824543144,253.91168824543141 A 72,72 0 0,1 217.04650318516127,273.61654018903261" />
    <path d="M 152.08831175456859,253.91168824543144 A 72,72 0 0,1 143.13418791421674,243.00105677741135" />
    <path d="M 132.3834598109674,217.04650318516127 A 72,72 0 0,1 132.3834598109674,188.95349681483876" />
    <path d="M 136.48067365918735,175.44679286971353 A 72,72 0 0,1 143.13418791421674,162.99894322258865" />
    <path d="M 162.99894322258865,143.13418791421674 A 72,72 0 0,1 188.95349681483873,132.3834598109674" />
    <path d="M 220.16794833741929,116.69089532451572 A 88,88 0 0,1 265.22539674441617,140.77460325558383" />
    <path d="M 291,203 A 88,88 0 0,1 284.30139886099323,236.6761420481279" />
    <path d="M 265.22539674441617,265.22539674441617 A 88,88 0 0,1 236.6761420481279,284.30139886099323" />
    <path d="M 220.16794833741932,289.30910467548426 A 88,88 0 0,1 203,291" />
    <path d="M 185.83205166258071,289.30910467548426 A 88,88 0 0,1 169.32385795187213,284.30139886099323" />
    <path d="M 129.83067411737602,251.890180505725 A 88,88 0 0,1 115,203.00000000000003" />
    <path d="M 116.69089532451572,185.83205166258071 A 88,88 0 0,1 121.69860113900677,169.32385795187207" />
    <path d="M 129.830674117376,154.10981949427503 A 88,88 0 0,1 154.109819494275,129.83067411737602" />
    <path d="M 169.32385795187204,121.69860113900678 A 88,88 0 0,1 185.83205166258068,116.69089532451572" />
    <path d="M 182.71060651032261,100.99833083806405 A 104,104 0 0,1 223.28939348967734,100.99833083806404" />
    <path d="M 242.79907696596933,106.91652861882618 A 104,104 0 0,1 260.77930423403865,116.52716032053529" />
    <path d="M 289.4728396794647,145.22069576596135 A 104,104 0 0,1 299.08347138117381,163.20092303403067" />
    <path d="M 307,203 A 104,104 0 0,1 305.001669161936,223.28939348967734" />
    <path d="M 289.47283967946476,260.77930423403859 A 104,104 0 0,1 276.53910524340097,276.53910524340097" />
    <path d="M 203,307 A 104,104 0 0,1 182.71060651032266,305.001669161936" />
    <path d="M 163.20092303403067,299.08347138117381 A 104,104 0 0,1 145.22069576596141,289.47283967946476" />
    <path d="M 129.46089475659909,276.53910524340097 A 104,104 0 0,1 106.91652861882621,242.79907696596939" />
    <path d="M 100.99833083806404,223.28939348967737 A 104,104 0 0,1 116.52716032053527,145.22069576596141" />
    <path d="M 129.46089475659903,129.46089475659909 A 104,104 0 0,1 163.20092303403061,106.91652861882621" />
    <path d="M 226.41083864193539,85.305766351612348 A 120,120 0 0,1 287.85281374238571,118.14718625761429" />
    <path d="M 313.86554390135439,157.07798811618923 A 120,120 0 0,1 269.66842796235227,302.77635347630542" />
    <path d="M 248.9220118838108,313.86554390135439 A 120,120 0 0,1 226.41083864193544,320.69423364838764" />
    <path d="M 136.33157203764779,302.77635347630547 A 120,120 0 0,1 103.22364652369457,269.66842796235227" />
    <path d="M 92.134456098645614,248.92201188381085 A 120,120 0 0,1 85.305766351612348,226.41083864193544" />
    <path d="M 157.07798811618915,92.134456098645614 A 120,120 0 0,1 179.58916135806456,85.305766351612363" />
    <path d="M 189.66966891517978,67.654877172581223 A 136,136 0 0,1 203,67" />
    <path d="M 216.33033108482024,67.654877172581223 A 136,136 0 0,1 255.0449468016522,77.352383578465" />
    <path d="M 289.2774866462558,97.87057834266777 A 136,136 0 0,1 299.16652224137044,106.83347775862953" />
    <path d="M 328.64761642153496,150.9550531983478 A 136,136 0 0,1 333.14388565958041,163.52128389339313" />
    <path d="M 339,203 A 136,136 0 0,1 338.34512282741878,216.33033108482024" />
    <path d="M 336.38679813483935,229.53228379419343 A 136,136 0 0,1 255.04494680165223,328.64761642153496" />
    <path d="M 242.4787161066069,333.14388565958041 A 136,136 0 0,1 216.33033108482027,338.34512282741878" />
    <path d="M 189.66966891517976,338.34512282741878 A 136,136 0 0,1 163.52128389339316,333.14388565958041" />
    <path d="M 150.9550531983478,328.647616421535 A 136,136 0 0,1 116.72251335374423,308.12942165733227" />
    <path d="M 97.870578342667812,289.27748664625585 A 136,136 0 0,1 72.8561143404196,242.4787161066069" />
    <path d="M 67.654877172581223,216.33033108482022 A 136,136 0 0,1 67.654877172581223,189.66966891517984" />
    <path d="M 69.613201865160647,176.46771620580654 A 136,136 0 0,1 83.058708048623714,138.89004379166431" />
    <path d="M 97.870578342667784,116.72251335374421 A 136,136 0 0,1 127.4424483093341,89.920132726853851" />
    <path d="M 217.8986053300932,51.731921545826083 A 152,152 0 0,1 232.65372894645151,53.92063737870896" />
    <path d="M 261.16788171949366,62.5703110582844 A 152,152 0 0,1 274.65230399755166,68.947967819050035" />
    <path d="M 287.44667541897957,76.616618930013118 A 152,152 0 0,1 299.42777919287414,85.50241108886398" />
    <path d="M 320.497588911136,106.57222080712587 A 152,152 0 0,1 337.05203218094994,131.34769600244835" />
    <path d="M 352.079362621291,173.34627105354849 A 152,152 0 0,1 354.26807845417392,188.10139466990677" />
    <path d="M 354.26807845417392,217.89860533009323 A 152,152 0 0,1 343.4296889417156,261.16788171949361" />
    <path d="M 337.05203218094994,274.65230399755166 A 152,152 0 0,1 329.38338106998691,287.44667541897951" />
    <path d="M 320.49758891113606,299.42777919287408 A 152,152 0 0,1 310.48023074035524,310.48023074035518" />
    <path d="M 287.44667541897951,329.38338106998685 A 152,152 0 0,1 274.65230399755166,337.05203218094994" />
    <path d="M 261.16788171949366,343.42968894171554 A 152,152 0 0,1 247.12327094267829,348.45493103129576" />
    <path d="M 203.00000000000003,355 A 152,152 0 0,1 173.34627105354849,352.079362621291" />
    <path d="M 106.57222080712592,320.49758891113606 A 152,152 0 0,1 76.616618930013118,287.44667541897951" />
    <path d="M 68.947967819050064,274.65230399755171 A 152,152 0 0,1 62.57031105828446,261.16788171949372" />
    <path d="M 57.545068968704243,247.12327094267829 A 152,152 0 0,1 51,203.00000000000003" />
    <path d="M 51.731921545826054,188.10139466990688 A 152,152 0 0,1 53.92063737870896,173.34627105354849" />
    <path d="M 62.570311058284432,144.83211828050634 A 152,152 0 0,1 131.34769600244832,68.947967819050064" />
    <path d="M 158.87672905732171,57.545068968704271 A 152,152 0 0,1 188.1013946699068,51.731921545826083" />
    <path d="M 235.77517409870956,38.228072892257273 A 168,168 0 0,1 251.76782577874968,42.234023596988919" />
    <path d="M 296.33579914729319,63.3131051331724 A 168,168 0 0,1 351.16277241052364,123.80534821323238" />
    <path d="M 363.76597640301111,154.23217422125032 A 168,168 0 0,1 370.19103408092906,186.53312042463378" />
    <path d="M 371,203 A 168,168 0 0,1 363.76597640301111,251.76782577874965" />
    <path d="M 358.21176146189617,267.29081663733507 A 168,168 0 0,1 332.86575616493985,309.57807173949243" />
    <path d="M 321.79393923934,321.79393923934 A 168,168 0 0,1 296.33579914729319,342.68689486682763" />
    <path d="M 282.19465178676762,351.16277241052364 A 168,168 0 0,1 267.29081663733507,358.21176146189617" />
    <path d="M 235.77517409870961,367.77192710774273 A 168,168 0 0,1 186.53312042463381,370.19103408092906" />
    <path d="M 170.22482590129044,367.77192710774273 A 168,168 0 0,1 138.70918336266493,358.21176146189617" />
    <path d="M 109.66420085270688,342.68689486682763 A 168,168 0 0,1 73.134243835060232,309.57807173949249" />
    <path d="M 47.788238538103855,267.29081663733518 A 168,168 0 0,1 42.234023596988919,251.76782577874968" />
    <path d="M 47.788238538103855,138.70918336266487 A 168,168 0 0,1 63.313105133172371,109.66420085270688" />
    <path d="M 73.1342438350602,96.421928260507542 A 168,168 0 0,1 84.20606076066,84.206060760660037" />
    <path d="M 96.421928260507485,73.134243835060261 A 168,168 0 0,1 154.23217422125032,42.234023596988919" />
    <path d="M 221.03515382063915,19.886010292315774 A 184,184 0 0,1 273.41375155517653,33.006166017923249" />
    <path d="M 333.10764773832477,72.892352261675256 A 184,184 0 0,1 345.23392341874359,86.271635713889225" />
    <path d="M 365.27351264009735,116.26300042401641 A 184,184 0 0,1 383.46449159419444,167.1033807490324" />
    <path d="M 386.11398970768425,184.96484617936082 A 184,184 0 0,1 387,203" />
    <path d="M 386.11398970768425,221.03515382063915 A 184,184 0 0,1 365.27351264009735,289.73699957598359" />
    <path d="M 355.99040866366835,305.22492287560675 A 184,184 0 0,1 345.23392341874364,319.72836428611072" />
    <path d="M 333.10764773832477,333.10764773832477 A 184,184 0 0,1 319.72836428611078,345.23392341874364" />
    <path d="M 305.22492287560681,355.99040866366835 A 184,184 0 0,1 273.41375155517653,372.99383398207675" />
    <path d="M 221.03515382063918,386.11398970768425 A 184,184 0 0,1 203.00000000000003,387" />
    <path d="M 184.96484617936085,386.11398970768425 A 184,184 0 0,1 149.58761938517898,379.0770217747264" />
    <path d="M 116.26300042401644,365.27351264009735 A 184,184 0 0,1 86.271635713889268,345.23392341874364" />
    <path d="M 50.009591336331681,305.22492287560681 A 184,184 0 0,1 33.006166017923277,273.41375155517665" />
    <path d="M 26.922978225273567,256.41238061482107 A 184,184 0 0,1 19.886010292315774,184.96484617936093" />
    <path d="M 22.535508405805587,167.1033807490324 A 184,184 0 0,1 40.726487359902677,116.26300042401645" />
    <path d="M 50.009591336331624,100.77507712439326 A 184,184 0 0,1 60.766076581256414,86.271635713889211" />
    <path d="M 100.77507712439319,50.009591336331681 A 184,184 0 0,1 132.58624844482335,33.006166017923277" />
    <path d="M 149.5876193851789,26.922978225273567 A 184,184 0 0,1 167.10338074903231,22.535508405805615" />
    <path d="M 222.60342806591211,3.9630546655606338 A 200,200 0 1,1 203,3" />
  </g>
  <g fill="none" stroke="#000000" stroke-width="2" stroke-linecap="butt">
    <line x1="203" y1="19" x2="203" y2="99" />
    <line x1="203" y1="115" x2="203" y2="179" />
    <line x1="221.03515382063915" y1="19.886010292315774" x2="219.46687957536619" y2="35.808965919070914" />
    <line x1="238.8966192509676" y1="22.535508405805615" x2="226.41083864193539" y2="85.305766351612348" />
    <line x1="220.16794833741929" y1="116.69089532451572" x2="217.04650318516124" y2="132.3834598109674" />
    <line x1="247.12327094267829" y1="57.545068968704271" x2="242.47871610660687" y2="72.8561143404196" />
    <line x1="273.41375155517653" y1="33.006166017923249" x2="267.29081663733507" y2="47.788238538103826" />
    <line x1="261.16788171949366" y1="62.5703110582844" x2="255.0449468016522" y2="77.352383578465009" />
    <line x1="242.79907696596933" y1="106.91652861882618" x2="236.6761420481279" y2="121.69860113900677" />
    <line x1="230.55320713028647" y1="136.48067365918735" x2="218.3073372946036" y2="166.04481869954853" />
    <line x1="289.73699957598353" y1="40.726487359902677" x2="267.10995620833569" y2="83.058708048623714" />
    <line x1="305.22492287560681" y1="50.009591336331681" x2="296.33579914729319" y2="63.3131051331724" />
    <line x1="287.44667541897957" y1="76.616618930013118" x2="278.55755169066589" y2="89.920132726853851" />
    <line x1="251.890180505725" y1="129.83067411737602" x2="243.00105677741135" y2="143.13418791421674" />
    <line x1="329.87865683272912" y1="48.397909327452595" x2="319.72836428611078" y2="60.766076581256385" />
    <line x1="299.42777919287414" y1="85.50241108886398" x2="289.2774866462558" y2="97.87057834266777" />
    <line x1="333.10764773832477" y1="72.892352261675256" x2="287.85281374238571" y2="118.14718625761429" />
    <line x1="276.53910524340097" y1="129.46089475659903" x2="265.22539674441617" y2="140.77460325558383" />
    <line x1="253.91168824543144" y1="152.08831175456857" x2="242.59797974644664" y2="163.40202025355333" />
    <line x1="320.497588911136" y1="106.57222080712589" x2="308.12942165733222" y2="116.72251335374422" />
    <line x1="369.29392246050907" y1="91.885953396079543" x2="342.68689486682763" y2="109.66420085270681" />
    <line x1="329.38338106998685" y1="118.55332458102045" x2="302.77635347630542" y2="136.33157203764773" />
    <line x1="289.4728396794647" y1="145.22069576596135" x2="262.86581208578326" y2="162.99894322258865" />
    <line x1="351.16277241052364" y1="123.80534821323236" x2="322.94129195137629" y2="138.89004379166431" />
    <line x1="372.99383398207675" y1="132.58624844482347" x2="328.64761642153496" y2="150.9550531983478" />
    <line x1="313.86554390135439" y1="157.0779881161892" x2="284.30139886099323" y2="169.3238579518721" />
    <line x1="269.51932634081265" y1="175.44679286971353" x2="254.73725382063205" y2="181.56972778755497" />
    <line x1="363.76597640301111" y1="154.23217422125032" x2="333.14388565958041" y2="163.52128389339313" />
    <line x1="399.1570560806461" y1="163.98193559677435" x2="383.46449159419438" y2="167.1033807490324" />
    <line x1="352.079362621291" y1="173.34627105354849" x2="305.001669161936" y2="182.71060651032266" />
    <line x1="289.30910467548426" y1="185.83205166258071" x2="273.61654018903261" y2="188.95349681483876" />
    <line x1="386.11398970768425" y1="184.96484617936082" x2="370.19103408092906" y2="186.53312042463378" />
    <line x1="354.26807845417392" y1="188.10139466990677" x2="338.34512282741878" y2="189.66966891517973" />
    <line x1="371" y1="203" x2="355" y2="203" />
    <line x1="339" y1="203" x2="307" y2="203" />
    <line x1="259" y1="203" x2="243" y2="203" />
    <line x1="289.30910467548426" y1="220.16794833741929" x2="273.61654018903261" y2="217.04650318516124" />
    <line x1="363.76597640301111" y1="251.76782577874965" x2="348.45493103129576" y2="247.12327094267823" />
    <line x1="387.77590650225738" y1="279.53668647301794" x2="372.99383398207675" y2="273.41375155517653" />
    <line x1="358.21176146189617" y1="267.29081663733507" x2="328.64761642153496" y2="255.0449468016522" />
    <line x1="313.86554390135439" y1="248.92201188381077" x2="299.08347138117381" y2="242.79907696596933" />
    <line x1="284.30139886099323" y1="236.6761420481279" x2="254.73725382063205" y2="224.43027221244503" />
    <line x1="369.29392246050907" y1="314.11404660392037" x2="329.38338106998691" y2="287.44667541897951" />
    <line x1="289.47283967946476" y1="260.77930423403859" x2="262.86581208578326" y2="243.00105677741135" />
    <line x1="332.86575616493985" y1="309.57807173949243" x2="320.49758891113606" y2="299.42777919287408" />
    <line x1="344.42135623730951" y1="344.42135623730951" x2="321.79393923934" y2="321.79393923934" />
    <line x1="287.85281374238571" y1="287.85281374238571" x2="253.91168824543144" y2="253.91168824543144" />
    <line x1="242.59797974644667" y1="242.59797974644664" x2="219.97056274847714" y2="219.97056274847714" />
    <line x1="309.57807173949243" y1="332.86575616493985" x2="299.42777919287414" y2="320.497588911136" />
    <line x1="305.22492287560681" y1="355.99040866366835" x2="287.44667541897957" y2="329.38338106998691" />
    <line x1="269.66842796235227" y1="302.77635347630542" x2="260.77930423403865" y2="289.4728396794647" />
    <line x1="273.41375155517653" y1="372.99383398207675" x2="261.16788171949366" y2="343.4296889417156" />
    <line x1="248.9220118838108" y1="313.86554390135439" x2="236.6761420481279" y2="284.30139886099323" />
    <line x1="256.41238061482107" y1="379.0770217747264" x2="247.12327094267829" y2="348.4549310312957" />
    <line x1="238.89661925096766" y1="383.46449159419438" x2="232.65372894645154" y2="352.079362621291" />
    <line x1="229.53228379419349" y1="336.38679813483935" x2="226.41083864193544" y2="320.69423364838764" />
    <line x1="223.28939348967737" y1="305.001669161936" x2="217.04650318516127" y2="273.61654018903261" />
    <line x1="222.60342806591217" y1="402.03694533443934" x2="221.03515382063918" y2="386.11398970768425" />
    <line x1="219.46687957536622" y1="370.19103408092906" x2="216.33033108482027" y2="338.34512282741878" />
    <line x1="203.00000000000003" y1="387" x2="203.00000000000003" y2="371" />
    <line x1="203.00000000000003" y1="355" x2="203.00000000000003" y2="323" />
    <line x1="203" y1="291" x2="203" y2="275" />
    <line x1="203" y1="243" x2="203" y2="227" />
    <line x1="183.39657193408789" y1="402.03694533443939" x2="184.96484617936085" y2="386.11398970768425" />
    <line x1="167.1033807490324" y1="383.46449159419438" x2="170.22482590129044" y2="367.77192710774273" />
    <line x1="173.34627105354849" y1="352.079362621291" x2="188.95349681483876" y2="273.61654018903261" />
    <line x1="154.23217422125038" y1="363.76597640301111" x2="163.52128389339316" y2="333.14388565958041" />
    <line x1="126.46331352698206" y1="387.77590650225738" x2="132.5862484448235" y2="372.99383398207681" />
    <line x1="138.70918336266493" y1="358.21176146189623" x2="157.07798811618923" y2="313.86554390135444" />
    <line x1="169.3238579518721" y1="284.30139886099323" x2="175.44679286971353" y2="269.51932634081265" />
    <line x1="116.26300042401644" y1="365.27351264009735" x2="138.89004379166431" y2="322.94129195137629" />
    <line x1="100.77507712439324" y1="355.9904086636684" x2="118.55332458102051" y2="329.38338106998691" />
    <line x1="136.33157203764776" y1="302.77635347630547" x2="162.99894322258865" y2="262.86581208578326" />
    <line x1="106.57222080712592" y1="320.49758891113606" x2="116.72251335374425" y2="308.12942165733227" />
    <line x1="72.892352261675256" y1="333.10764773832477" x2="84.206060760660023" y2="321.79393923934003" />
    <line x1="95.519769259644789" y1="310.48023074035524" x2="106.83347775862954" y2="299.1665222413705" />
    <line x1="129.46089475659906" y1="276.53910524340097" x2="140.77460325558383" y2="265.22539674441617" />
    <line x1="48.39790932745268" y1="329.87865683272918" x2="60.766076581256442" y2="319.72836428611083" />
    <line x1="63.3131051331724" y1="296.33579914729319" x2="116.5271603205353" y2="260.77930423403865" />
    <line x1="129.83067411737602" y1="251.890180505725" x2="143.13418791421674" y2="243.00105677741135" />
    <line x1="40.726487359902706" y1="289.73699957598359" x2="68.947967819050064" y2="274.65230399755166" />
    <line x1="47.788238538103855" y1="267.29081663733518" x2="62.57031105828446" y2="261.16788171949372" />
    <line x1="77.352383578465037" y1="255.04494680165229" x2="92.134456098645614" y2="248.92201188381085" />
    <line x1="121.69860113900678" y1="236.67614204812796" x2="136.48067365918737" y2="230.5532071302865" />
    <line x1="151.26274617936795" y1="224.43027221244506" x2="166.04481869954856" y2="218.3073372946036" />
    <line x1="26.922978225273567" y1="256.41238061482107" x2="42.234023596988919" y2="251.76782577874968" />
    <line x1="57.545068968704271" y1="247.12327094267829" x2="72.8561143404196" y2="242.4787161066069" />
    <line x1="38.2280728922573" y1="235.77517409870961" x2="69.613201865160676" y2="229.53228379419349" />
    <line x1="116.69089532451574" y1="220.16794833741932" x2="132.38345981096742" y2="217.04650318516127" />
    <line x1="19.886010292315774" y1="221.03515382063912" x2="35.808965919070914" y2="219.46687957536616" />
    <line x1="19" y1="203.00000000000003" x2="51" y2="203.00000000000003" />
    <line x1="67" y1="203.00000000000003" x2="99" y2="203.00000000000003" />
    <line x1="131" y1="203" x2="179" y2="203" />
    <line x1="19.886010292315774" y1="184.96484617936093" x2="67.654877172581223" y2="189.66966891517984" />
    <line x1="38.228072892257273" y1="170.22482590129044" x2="53.920637378708989" y2="173.34627105354849" />
    <line x1="69.613201865160647" y1="176.46771620580654" x2="85.305766351612348" y2="179.58916135806462" />
    <line x1="11.611932853558216" y1="144.94306454910759" x2="57.545068968704243" y2="158.87672905732177" />
    <line x1="62.570311058284432" y1="144.83211828050634" x2="77.352383578465023" y2="150.95505319834777" />
    <line x1="92.1344560986456" y1="157.0779881161892" x2="136.48067365918735" y2="175.44679286971353" />
    <line x1="151.26274617936795" y1="181.56972778755497" x2="166.04481869954853" y2="187.6926627053964" />
    <line x1="50.009591336331624" y1="100.77507712439326" x2="103.22364652369454" y2="136.33157203764779" />
    <line x1="116.52716032053527" y1="145.22069576596141" x2="129.83067411737602" y2="154.10981949427503" />
    <line x1="60.766076581256414" y1="86.271635713889211" x2="73.1342438350602" y2="96.421928260507542" />
    <line x1="61.578643762690461" y1="61.578643762690518" x2="72.892352261675228" y2="72.892352261675285" />
    <line x1="106.83347775862951" y1="106.83347775862956" x2="118.14718625761428" y2="118.14718625761432" />
    <line x1="140.7746032555838" y1="140.77460325558383" x2="163.40202025355333" y2="163.40202025355336" />
    <line x1="76.121343167270808" y1="48.39790932745268" x2="106.57222080712582" y2="85.502411088864022" />
    <line x1="118.55332458102046" y1="76.616618930013118" x2="145.22069576596138" y2="116.5271603205353" />
    <line x1="154.109819494275" y1="129.83067411737602" x2="162.99894322258865" y2="143.13418791421674" />
    <line x1="131.34769600244832" y1="68.947967819050064" x2="138.89004379166428" y2="83.058708048623743" />
    <line x1="126.46331352698192" y1="18.2240934977427" x2="132.58624844482335" y2="33.006166017923277" />
    <line x1="138.70918336266482" y1="47.788238538103855" x2="157.07798811618915" y2="92.134456098645614" />
    <line x1="169.32385795187204" y1="121.69860113900678" x2="181.56972778755494" y2="151.26274617936795" />
    <line x1="158.87672905732171" y1="57.545068968704271" x2="163.5212838933931" y2="72.8561143404196" />
    <line x1="163.98193559677426" y1="6.8429439193539281" x2="173.34627105354844" y2="53.920637378708989" />
    <line x1="176.46771620580648" y1="69.613201865160676" x2="182.71060651032261" y2="100.99833083806405" />
    <line x1="183.39657193408789" y1="3.9630546655606054" x2="186.53312042463384" y2="35.808965919070914" />
  </g>
  <path fill="none" stroke="#ff0000" stroke-width="2" stroke-linecap="square" stroke-linejoin="round" d="M 212.8135348654836,3.2409087589655314 L 209.28066231390952,75.154181605737932 A 128,128 0 0,1 215.54619396218376,75.6163549859588 L 213.97791971691078,91.539310612713948 A 112,112 0 0,1 289.57717077662653,131.9479521736717 L 264.84083626901895,152.24853726690836 A 80,80 0 0,0 253.75146273309164,141.15916373098105 L 243.60117018647333,153.52733098478484 A 64,64 0 0,0 233.16939115686384,146.55703908170528 L 240.71173894607981,132.44629885213158 A 80,80 0 0,0 226.222774180357,126.4447731414233 L 221.5782193442856,141.75581851313865 A 64,64 0 0,0 215.48578060903222,140.22974205419325 L 209.2428903045161,171.61487102709663 A 32,32 0 0,1 234.38512897290337,209.2428903045161 L 250.07769345935506,212.36433545677414 A 48,48 0 0,1 242.91054139052218,229.66737118494089 L 256.21405518736293,238.55649491325454 A 64,64 0 0,1 215.48578060903222,265.77025794580675 L 212.36433545677417,250.07769345935506 A 48,48 0 0,1 163.08945860947785,229.66737118494092 L 176.39297240631856,220.77824745662727 A 32,32 0 0,0 190.75413016431713,232.56414504036118 L 193.81559762323786,225.17310878027089" />
  <type>Circular</type>
</svg>