<?xml version="1.0" encoding="utf-8" standalone="no"?>
<!DOCTYPE svg PUBLIC "-//W3C//DTD SVG 1.1//EN" "http://www.w3.org/Graphics/SVG/1.1/DTD/svg11.dtd"[]>
<svg width="404" height="404" version="1.1" xmlns="http://www.w3.org/2000/svg">
  <title>25 cells diameter theta maze</title>
  <g fill="none" stroke="#000000" stroke-width="2" stroke-linecap="square">
    <path d="M 186.02943725152286,219.97056274847714 A 24,24 0 1,1 203,227" />
    <path d="M 174.7157287525381,174.7157287525381 A 40,40 0 0,1 203,163" />
    <path d="M 218.3073372946036,166.04481869954853 A 40,40 0 0,1 231.2842712474619,174.7157287525381" />
    <path d="M 239.95518130045147,187.6926627053964 A 40,40 0 0,1 218.3073372946036,239.95518130045147" />
    <path d="M 203,243 A 40,40 0 0,1 187.6926627053964,239.95518130045147" />
    <path d="M 166.04481869954853,218.3073372946036 A 40,40 0 0,1 166.04481869954853,187.6926627053964" />
    <path d="M 224.43027221244503,151.26274617936795 A 56,56 0 0,1 242.59797974644667,163.40202025355333" />
    <path d="M 259,203 A 56,56 0 0,1 203,259" />
    <path d="M 163.40202025355336,242.59797974644667 A 56,56 0 0,1 147,203" />
    <path d="M 151.26274617936795,181.56972778755497 A 56,56 0 0,1 181.56972778755494,151.26274617936795" />
    <path d="M 203,131 A 72,72 0 0,1 230.55320713028647,136.48067365918735" />
    <path d="M 243.00105677741135,143.13418791421674 A 72,72 0 0,1 262.86581208578326,162.99894322258865" />
    <path d="M 269.51932634081265,175.44679286971353 A 72,72 0 0,1 273.61654018903261,188.95349681483876" />
    <path d="M 269.51932634081265,230.55320713028647 A 72,72 0 0,1 188.95349681483876,273.61654018903261" />
    <path d="M 162.99894322258865,262.86581208578326 A 72,72 0 0,1 143.13418791421674,243.00105677741135" />
    <path d="M 136.48067365918737,230.5532071302865 A 72,72 0 0,1 132.3834598109674,217.04650318516127" />
    <path d="M 131,203 A 72,72 0 0,1 136.48067365918735,175.44679286971353" />
    <path d="M 143.13418791421674,162.99894322258865 A 72,72 0 0,1 152.08831175456857,152.08831175456859" />
    <path d="M 162.99894322258865,143.13418791421674 A 72,72 0 0,1 188.95349681483873,132.3834598109674" />
    <path d="M 185.83205166258068,116.69089532451572 A 88,88 0 0,1 203,115" />
    <path d="M 251.890180505725,129.83067411737602 A 88,88 0 0,1 265.22539674441617,140.77460325558383" />
    <path d="M 276.169325882624,154.109819494275 A 88,88 0 0,1 284.30139886099323,169.3238579518721" />
    <path d="M 291,203 A 88,88 0 0,1 220.16794833741932,289.30910467548426" />
    <path d="M 185.83205166258071,289.30910467548426 A 88,88 0 0,1 169.32385795187213,284.30139886099323" />
    <path d="M 154.10981949427503,276.169325882624 A 88,88 0 0,1 140.77460325558383,265.22539674441617" />
    <path d="M 121.69860113900678,236.67614204812796 A 88,88 0 0,1 140.7746032555838,140.77460325558383" />
    <path d="M 154.109819494275,129.83067411737602 A 88,88 0 0,1 169.32385795187204,121.69860113900678" />
    <path d="M 223.28939348967734,100.99833083806404 A 104,104 0 0,1 276.53910524340097,129.46089475659906" />
    <path d="M 307,203 A 104,104 0 0,1 299.08347138117381,242.79907696596933" />
    <path d="M 289.47283967946476,260.77930423403859 A 104,104 0 0,1 276.53910524340097,276.53910524340097" />
    <path d="M 260.77930423403859,289.4728396794647 A 104,104 0 0,1 242.79907696596933,299.08347138117381" />
    <path d="M 203,307 A 104,104 0 0,1 182.71060651032266,305.001669161936" />
    <path d="M 163.20092303403067,299.08347138117381 A 104,104 0 0,1 116.52716032053529,260.77930423403865" />
    <path d="M 100.99833083806404,223.28939348967737 A 104,104 0 0,1 106.91652861882619,163.20092303403064" />
    <path d="M 163.20092303403061,106.91652861882621 A 104,104 0 0,1 182.71060651032261,100.99833083806405" />
    <path d="M 136.33157203764773,103.22364652369457 A 120,120 0 0,1 203,83" />
    <path d="M 248.92201188381077,92.134456098645586 A 120,120 0 0,1 320.69423364838764,179.58916135806459" />
    <path d="M 313.86554390135439,248.92201188381077 A 120,120 0 0,1 302.77635347630542,269.66842796235221" />
    <path d="M 269.66842796235227,302.77635347630542 A 120,120 0 0,1 248.9220118838108,313.86554390135439" />
    <path d="M 226.41083864193544,320.69423364838764 A 120,120 0 0,1 203.00000000000003,323" />
    <path d="M 103.22364652369457,269.66842796235227 A 120,120 0 0,1 85.305766351612348,226.41083864193544" />
    <path d="M 83,203.00000000000003 A 120,120 0 0,1 85.305766351612348,179.58916135806462" />
    <path d="M 92.1344560986456,157.0779881161892 A 120,120 0 0,1 103.22364652369454,136.33157203764779" />
    <path d="M 216.33033108482024,67.654877172581223 A 136,136 0 0,1 242.4787161066069,72.8561143404196" />
    <path d="M 255.0449468016522,77.352383578465 A 136,136 0 0,1 336.38679813483935,229.53228379419343" />
    <path d="M 328.647616421535,255.0449468016522 A 136,136 0 0,1 322.94129195137629,267.10995620833569" />
    <path d="M 316.07986727314619,278.55755169066589 A 136,136 0 0,1 278.55755169066589,316.07986727314619" />
    <path d="M 255.04494680165223,328.64761642153496 A 136,136 0 0,1 229.53228379419349,336.3867981348393" />
    <path d="M 216.33033108482027,338.34512282741878 A 136,136 0 0,1 77.352383578465037,255.04494680165229" />
    <path d="M 72.8561143404196,242.4787161066069 A 136,136 0 0,1 69.613201865160676,229.53228379419349" />
    <path d="M 67,203.00000000000003 A 136,136 0 0,1 67.654877172581223,189.66966891517984" />
    <path d="M 69.613201865160647,176.46771620580654 A 136,136 0 0,1 83.058708048623714,138.89004379166431" />
    <path d="M 89.920132726853822,127.44244830933414 A 136,136 0 0,1 127.4424483093341,89.920132726853851" />
    <path d="M 150.95505319834771,77.352383578465037 A 136,136 0 0,1 163.5212838933931,72.8561143404196" />
    <path d="M 176.46771620580648,69.613201865160676 A 136,136 0 0,1 189.66966891517978,67.654877172581223" />
    <path d="M 188.1013946699068,51.731921545826083 A 152,152 0 0,1 203,51" />
    <path d="M 232.65372894645151,53.92063737870896 A 152,152 0 0,1 261.16788171949366,62.5703110582844" />
    <path d="M 274.65230399755166,68.947967819050035 A 152,152 0 0,1 320.497588911136,106.57222080712587" />
    <path d="M 337.05203218094994,131.34769600244835 A 152,152 0 0,1 348.45493103129576,158.87672905732174" />
    <path d="M 354.26807845417392,188.10139466990677 A 152,152 0 0,1 354.26807845417392,217.89860533009323" />
    <path d="M 352.079362621291,232.65372894645148 A 152,152 0 0,1 343.4296889417156,261.16788171949361" />
    <path d="M 329.38338106998691,287.44667541897951 A 152,152 0 0,1 310.48023074035524,310.48023074035518" />
    <path d="M 287.44667541897951,329.38338106998685 A 152,152 0 0,1 274.65230399755166,337.05203218094994" />
    <path d="M 247.12327094267829,348.45493103129576 A 152,152 0 0,1 217.89860533009323,354.26807845417392" />
    <path d="M 203.00000000000003,355 A 152,152 0 0,1 188.1013946699068,354.26807845417392" />
    <path d="M 158.87672905732177,348.45493103129576 A 152,152 0 0,1 144.83211828050636,343.4296889417156" />
    <path d="M 118.55332458102051,329.38338106998691 A 152,152 0 0,1 106.57222080712592,320.49758891113606" />
    <path d="M 85.502411088864022,299.42777919287414 A 152,152 0 0,1 76.616618930013118,287.44667541897951" />
    <path d="M 68.947967819050064,274.65230399755171 A 152,152 0 0,1 57.545068968704243,247.12327094267829" />
    <path d="M 53.920637378708989,232.65372894645157 A 152,152 0 0,1 51,203.00000000000003" />
    <path d="M 51.731921545826054,188.10139466990688 A 152,152 0 0,1 57.545068968704243,158.87672905732177" />
    <path d="M 62.570311058284432,144.83211828050634 A 152,152 0 0,1 68.947967819050035,131.34769600244837" />
    <path d="M 85.502411088864,106.57222080712587 A 152,152 0 0,1 106.57222080712582,85.502411088864037" />
    <path d="M 131.34769600244832,68.947967819050064 A 152,152 0 0,1 144.83211828050625,62.57031105828446" />
    <path d="M 158.87672905732171,57.545068968704271 A 152,152 0 0,1 173.34627105354844,53.920637378708989" />
    <path d="M 203,35 A 168,168 0 0,1 251.76782577874968,42.234023596988919" />
    <path d="M 267.29081663733507,47.788238538103826 A 168,168 0 0,1 282.19465178676762,54.837227589476356" />
    <path d="M 332.8657561649398,96.421928260507556 A 168,168 0 0,1 351.16277241052364,123.80534821323238" />
    <path d="M 363.76597640301111,154.23217422125032 A 168,168 0 0,1 367.77192710774273,170.22482590129044" />
    <path d="M 371,203 A 168,168 0 0,1 367.77192710774273,235.77517409870953" />
    <path d="M 358.21176146189617,267.29081663733507 A 168,168 0 0,1 351.16277241052364,282.19465178676762" />
    <path d="M 332.86575616493985,309.57807173949243 A 168,168 0 0,1 296.33579914729319,342.68689486682763" />
    <path d="M 282.19465178676762,351.16277241052364 A 168,168 0 0,1 267.29081663733507,358.21176146189617" />
    <path d="M 235.77517409870961,367.77192710774273 A 168,168 0 0,1 219.46687957536622,370.19103408092906" />
    <path d="M 203.00000000000003,371 A 168,168 0 0,1 186.53312042463381,370.19103408092906" />
    <path d="M 170.22482590129044,367.77192710774273 A 168,168 0 0,1 154.23217422125038,363.76597640301111" />
    <path d="M 123.80534821323241,351.16277241052364 A 168,168 0 0,1 96.421928260507585,332.86575616493985" />
    <path d="M 84.206060760660037,321.79393923934003 A 168,168 0 0,1 73.134243835060232,309.57807173949249" />
    <path d="M 54.837227589476385,282.19465178676762 A 168,168 0 0,1 47.788238538103855,267.29081663733518" />
    <path d="M 42.234023596988919,251.76782577874968 A 168,168 0 0,1 38.2280728922573,235.77517409870961" />
    <path d="M 35.808965919070914,219.46687957536616 A 168,168 0 0,1 35.808965919070914,186.53312042463392" />
    <path d="M 38.228072892257273,170.22482590129044 A 168,168 0 0,1 47.788238538103855,138.70918336266487" />
    <path d="M 63.313105133172371,109.66420085270688 A 168,168 0 0,1 73.1342438350602,96.421928260507542" />
    <path d="M 84.20606076066,84.206060760660037 A 168,168 0 0,1 109.66420085270683,63.3131051331724" />
    <path d="M 123.80534821323235,54.837227589476385 A 168,168 0 0,1 138.70918336266482,47.788238538103855" />
    <path d="M 154.23217422125032,42.234023596988919 A 168,168 0 0,1 170.22482590129039,38.2280728922573" />
    <path d="M 184.96484617936088,19.886010292315774 A 184,184 0 0,1 203,19" />
    <path d="M 273.41375155517653,33.006166017923249 A 184,184 0 0,1 379.0770217747264,149.58761938517893" />
    <path d="M 383.46449159419444,167.1033807490324 A 184,184 0 0,1 386.11398970768425,184.96484617936082" />
    <path d="M 387,203 A 184,184 0 0,1 386.11398970768425,221.03515382063915" />
    <path d="M 383.46449159419444,238.8966192509676 A 184,184 0 0,1 372.99383398207681,273.41375155517653" />
    <path d="M 355.99040866366835,305.22492287560675 A 184,184 0 0,1 256.41238061482107,379.0770217747264" />
    <path d="M 221.03515382063918,386.11398970768425 A 184,184 0 0,1 203.00000000000003,387" />
    <path d="M 184.96484617936085,386.11398970768425 A 184,184 0 0,1 167.1033807490324,383.46449159419444" />
    <path d="M 149.58761938517898,379.0770217747264 A 184,184 0 0,1 132.58624844482353,372.99383398207681" />
    <path d="M 86.271635713889268,345.23392341874364 A 184,184 0 0,1 72.892352261675285,333.10764773832477" />
    <path d="M 50.009591336331681,305.22492287560681 A 184,184 0 0,1 33.006166017923277,273.41375155517665" />
    <path d="M 26.922978225273567,256.41238061482107 A 184,184 0 0,1 22.535508405805615,238.89661925096766" />
    <path d="M 19.886010292315774,221.03515382063912 A 184,184 0 0,1 40.726487359902677,116.26300042401645" />
    <path d="M 72.892352261675228,72.892352261675285 A 184,184 0 0,1 100.77507712439319,50.009591336331681" />
    <path d="M 132.58624844482335,33.006166017923277 A 184,184 0 0,1 149.5876193851789,26.922978225273567" />
    <path d="M 222.60342806591211,3.9630546655606338 A 200,200 0 1,1 203,3" />
  </g>
  <g fill="none" stroke="#000000" stroke-width="2" stroke-linecap="butt">
    <line x1="203" y1="51" x2="203" y2="67" />
    <line x1="203" y1="83" x2="203" y2="163" />
    <line x1="221.03515382063915" y1="19.886010292315774" x2="217.8986053300932" y2="51.731921545826054" />
    <line x1="238.8966192509676" y1="22.535508405805615" x2="235.77517409870956" y2="38.228072892257273" />
    <line x1="229.53228379419343" y1="69.613201865160647" x2="226.41083864193539" y2="85.305766351612348" />
    <line x1="220.16794833741929" y1="116.69089532451572" x2="217.04650318516124" y2="132.3834598109674" />
    <line x1="256.41238061482107" y1="26.922978225273567" x2="242.47871610660687" y2="72.8561143404196" />
    <line x1="273.41375155517653" y1="33.006166017923249" x2="267.29081663733507" y2="47.788238538103826" />
    <line x1="261.16788171949366" y1="62.5703110582844" x2="255.0449468016522" y2="77.352383578465009" />
    <line x1="236.6761420481279" y1="121.69860113900677" x2="230.55320713028647" y2="136.48067365918735" />
    <line x1="224.43027221244503" y1="151.26274617936795" x2="218.3073372946036" y2="166.04481869954853" />
    <line x1="305.22492287560681" y1="50.009591336331681" x2="287.44667541897957" y2="76.616618930013118" />
    <line x1="269.66842796235227" y1="103.22364652369457" x2="251.890180505725" y2="129.83067411737602" />
    <line x1="319.72836428611078" y1="60.766076581256385" x2="309.57807173949243" y2="73.134243835060175" />
    <line x1="321.79393923934" y1="84.206060760660009" x2="310.48023074035518" y2="95.519769259644775" />
    <line x1="265.22539674441617" y1="140.77460325558383" x2="253.91168824543144" y2="152.08831175456857" />
    <line x1="231.2842712474619" y1="174.7157287525381" x2="219.97056274847714" y2="186.02943725152286" />
    <line x1="332.86575616493985" y1="96.421928260507556" x2="320.497588911136" y2="106.57222080712589" />
    <line x1="329.38338106998685" y1="118.55332458102045" x2="276.169325882624" y2="154.109819494275" />
    <line x1="351.16277241052364" y1="123.80534821323236" x2="337.05203218094994" y2="131.34769600244835" />
    <line x1="358.21176146189617" y1="138.7091833626649" x2="343.4296889417156" y2="144.83211828050634" />
    <line x1="313.86554390135439" y1="157.0779881161892" x2="299.08347138117381" y2="163.20092303403067" />
    <line x1="254.73725382063205" y1="181.56972778755497" x2="239.95518130045147" y2="187.6926627053964" />
    <line x1="394.38806714644181" y1="144.94306454910753" x2="363.76597640301111" y2="154.23217422125032" />
    <line x1="367.77192710774273" y1="170.22482590129044" x2="336.38679813483935" y2="176.46771620580654" />
    <line x1="320.69423364838764" y1="179.58916135806459" x2="273.61654018903261" y2="188.95349681483876" />
    <line x1="386.11398970768425" y1="184.96484617936082" x2="354.26807845417392" y2="188.10139466990677" />
    <line x1="403" y1="203" x2="387" y2="203" />
    <line x1="339" y1="203" x2="323" y2="203" />
    <line x1="275" y1="203" x2="259" y2="203" />
    <line x1="243" y1="203" x2="227" y2="203" />
    <line x1="386.11398970768425" y1="221.03515382063915" x2="370.19103408092906" y2="219.46687957536619" />
    <line x1="354.268078454174" y1="217.89860533009323" x2="338.34512282741878" y2="216.33033108482024" />
    <line x1="367.77192710774273" y1="235.77517409870953" x2="352.079362621291" y2="232.65372894645148" />
    <line x1="336.38679813483935" y1="229.53228379419343" x2="305.001669161936" y2="223.28939348967734" />
    <line x1="289.30910467548426" y1="220.16794833741929" x2="273.61654018903261" y2="217.04650318516124" />
    <line x1="379.0770217747264" y1="256.412380614821" x2="333.14388565958041" y2="242.47871610660684" />
    <line x1="372.99383398207675" y1="273.41375155517653" x2="358.21176146189617" y2="267.29081663733507" />
    <line x1="328.64761642153496" y1="255.0449468016522" x2="313.86554390135439" y2="248.92201188381077" />
    <line x1="254.73725382063205" y1="224.43027221244503" x2="239.95518130045147" y2="218.3073372946036" />
    <line x1="379.384252869671" y1="297.27934736519956" x2="365.27351264009735" y2="289.73699957598359" />
    <line x1="351.16277241052364" y1="282.19465178676762" x2="322.94129195137629" y2="267.10995620833569" />
    <line x1="355.9904086636684" y1="305.22492287560675" x2="342.68689486682763" y2="296.33579914729313" />
    <line x1="329.38338106998691" y1="287.44667541897951" x2="316.07986727314619" y2="278.55755169066583" />
    <line x1="299.16652224137044" y1="299.16652224137044" x2="276.53910524340097" y2="276.53910524340097" />
    <line x1="319.72836428611078" y1="345.23392341874364" x2="289.2774866462558" y2="308.12942165733222" />
    <line x1="289.73699957598359" y1="365.27351264009729" x2="267.10995620833569" y2="322.94129195137629" />
    <line x1="267.29081663733507" y1="358.21176146189617" x2="242.79907696596933" y2="299.08347138117381" />
    <line x1="256.41238061482107" y1="379.0770217747264" x2="251.76782577874968" y2="363.76597640301111" />
    <line x1="242.01806440322571" y1="399.1570560806461" x2="235.77517409870961" y2="367.77192710774273" />
    <line x1="232.65372894645154" y1="352.079362621291" x2="229.53228379419349" y2="336.38679813483935" />
    <line x1="226.41083864193544" y1="320.69423364838764" x2="220.16794833741932" y2="289.30910467548426" />
    <line x1="222.60342806591217" y1="402.03694533443934" x2="221.03515382063918" y2="386.11398970768425" />
    <line x1="219.46687957536622" y1="370.19103408092906" x2="216.33033108482027" y2="338.34512282741878" />
    <line x1="203.00000000000003" y1="387" x2="203.00000000000003" y2="371" />
    <line x1="203.00000000000003" y1="339" x2="203.00000000000003" y2="323" />
    <line x1="203" y1="307" x2="203" y2="291" />
    <line x1="203" y1="243" x2="203" y2="227" />
    <line x1="183.39657193408789" y1="402.03694533443939" x2="184.96484617936085" y2="386.11398970768425" />
    <line x1="186.53312042463381" y1="370.19103408092906" x2="188.1013946699068" y2="354.268078454174" />
    <line x1="167.1033807490324" y1="383.46449159419438" x2="173.34627105354849" y2="352.079362621291" />
    <line x1="176.46771620580654" y1="336.38679813483935" x2="188.95349681483876" y2="273.61654018903261" />
    <line x1="144.94306454910759" y1="394.38806714644181" x2="149.58761938517898" y2="379.0770217747264" />
    <line x1="158.87672905732177" y1="348.45493103129576" x2="163.52128389339316" y2="333.14388565958041" />
    <line x1="132.5862484448235" y1="372.99383398207681" x2="138.70918336266493" y2="358.21176146189623" />
    <line x1="150.9550531983478" y1="328.647616421535" x2="157.07798811618923" y2="313.86554390135444" />
    <line x1="169.3238579518721" y1="284.30139886099323" x2="187.6926627053964" y2="239.95518130045147" />
    <line x1="108.72065263480047" y1="379.384252869671" x2="131.34769600244835" y2="337.05203218094994" />
    <line x1="91.885953396079614" y1="369.29392246050907" x2="100.77507712439324" y2="355.9904086636684" />
    <line x1="127.44244830933414" y1="316.07986727314619" x2="136.33157203764776" y2="302.77635347630547" />
    <line x1="154.10981949427503" y1="276.169325882624" x2="162.99894322258865" y2="262.86581208578326" />
    <line x1="86.271635713889268" y1="345.23392341874364" x2="106.57222080712592" y2="320.49758891113606" />
    <line x1="84.206060760660023" y1="321.79393923934003" x2="95.519769259644789" y2="310.48023074035524" />
    <line x1="106.83347775862954" y1="299.1665222413705" x2="118.14718625761431" y2="287.85281374238571" />
    <line x1="152.08831175456857" y1="253.91168824543144" x2="186.02943725152286" y2="219.97056274847714" />
    <line x1="48.39790932745268" y1="329.87865683272918" x2="73.134243835060232" y2="309.57807173949254" />
    <line x1="85.502411088864022" y1="299.4277791928742" x2="97.870578342667812" y2="289.27748664625585" />
    <line x1="36.706077539490963" y1="314.11404660392043" x2="50.009591336331681" y2="305.22492287560681" />
    <line x1="63.3131051331724" y1="296.33579914729319" x2="76.616618930013118" y2="287.44667541897957" />
    <line x1="116.5271603205353" y1="260.77930423403865" x2="143.13418791421674" y2="243.00105677741135" />
    <line x1="68.947967819050064" y1="274.65230399755166" x2="83.058708048623728" y2="267.10995620833569" />
    <line x1="33.006166017923277" y1="273.41375155517665" x2="47.788238538103855" y2="267.29081663733518" />
    <line x1="106.91652861882621" y1="242.79907696596939" x2="136.48067365918737" y2="230.5532071302865" />
    <line x1="26.922978225273567" y1="256.41238061482107" x2="42.234023596988919" y2="251.76782577874968" />
    <line x1="57.545068968704271" y1="247.12327094267829" x2="72.8561143404196" y2="242.4787161066069" />
    <line x1="6.8429439193539281" y1="242.01806440322574" x2="22.535508405805615" y2="238.89661925096766" />
    <line x1="38.2280728922573" y1="235.77517409870961" x2="53.920637378708989" y2="232.65372894645157" />
    <line x1="69.613201865160676" y1="229.53228379419349" x2="100.99833083806405" y2="223.28939348967737" />
    <line x1="51.731921545826054" y1="217.89860533009318" x2="67.654877172581223" y2="216.33033108482022" />
    <line x1="35" y1="203.00000000000003" x2="51" y2="203.00000000000003" />
    <line x1="67" y1="203.00000000000003" x2="99" y2="203.00000000000003" />
    <line x1="51.731921545826054" y1="188.10139466990688" x2="67.654877172581223" y2="189.66966891517984" />
    <line x1="116.69089532451572" y1="185.83205166258071" x2="132.3834598109674" y2="188.95349681483876" />
    <line x1="42.234023596988891" y1="154.23217422125038" x2="57.545068968704243" y2="158.87672905732177" />
    <line x1="77.352383578465023" y1="150.95505319834777" x2="92.1344560986456" y2="157.0779881161892" />
    <line x1="136.48067365918735" y1="175.44679286971353" x2="166.04481869954853" y2="187.6926627053964" />
    <line x1="26.615747130328998" y1="108.72065263480049" x2="83.058708048623714" y2="138.89004379166431" />
    <line x1="36.706077539490906" y1="91.885953396079628" x2="63.313105133172371" y2="109.66420085270688" />
    <line x1="76.61661893001309" y1="118.55332458102052" x2="89.920132726853822" y2="127.44244830933415" />
    <line x1="116.52716032053527" y1="145.22069576596141" x2="143.13418791421674" y2="162.99894322258865" />
    <line x1="48.397909327452624" y1="76.121343167270879" x2="60.766076581256414" y2="86.271635713889211" />
    <line x1="61.578643762690461" y1="61.578643762690518" x2="84.20606076066" y2="84.206060760660051" />
    <line x1="95.519769259644747" y1="95.5197692596448" x2="129.46089475659903" y2="129.46089475659909" />
    <line x1="109.66420085270684" y1="63.3131051331724" x2="127.44244830933411" y2="89.920132726853851" />
    <line x1="136.33157203764773" y1="103.22364652369457" x2="162.99894322258865" y2="143.13418791421674" />
    <line x1="108.72065263480042" y1="26.615747130329027" x2="123.80534821323235" y2="54.837227589476385" />
    <line x1="131.34769600244832" y1="68.947967819050064" x2="138.89004379166428" y2="83.058708048623743" />
    <line x1="126.46331352698192" y1="18.2240934977427" x2="132.58624844482335" y2="33.006166017923277" />
    <line x1="138.70918336266482" y1="47.788238538103855" x2="144.83211828050625" y2="62.57031105828446" />
    <line x1="163.20092303403061" y1="106.91652861882621" x2="169.32385795187204" y2="121.69860113900678" />
    <line x1="175.44679286971348" y1="136.48067365918737" x2="181.56972778755494" y2="151.26274617936795" />
    <line x1="149.5876193851789" y1="26.922978225273567" x2="154.23217422125032" y2="42.234023596988919" />
    <line x1="158.87672905732171" y1="57.545068968704271" x2="163.5212838933931" y2="72.8561143404196" />
    <line x1="163.98193559677426" y1="6.8429439193539281" x2="167.10338074903231" y2="22.535508405805615" />
    <line x1="170.22482590129039" y1="38.2280728922573" x2="173.34627105354844" y2="53.920637378708989" />
    <line x1="176.46771620580648" y1="69.613201865160676" x2="179.58916135806456" y2="85.305766351612363" />
    <line x1="183.39657193408789" y1="3.9630546655606054" x2="189.66966891517978" y2="67.654877172581223" />
  </g>
  <path fill="none" stroke="#ff0000" stroke-width="2" stroke-linecap="square" stroke-linejoin="round" d="M 212.8135348654836,3.2409087589655314 L 211.63591068162558,27.211999707889646 A 176,176 0 0,0 194.36408931837443,27.211999707889646 L 195.14917210761311,43.192727007172408 A 160,160 0 0,1 210.85082789238689,43.192727007172408 L 209.28066231390952,75.154181605737932 A 128,128 0 0,1 215.54619396218376,75.6163549859588 L 212.40964547163782,107.4622662394691 A 96,96 0 0,1 248.25408673529577,118.33555862255791 L 233.16939115686384,146.55703908170528 A 64,64 0 0,0 215.48578060903222,140.22974205419325 L 209.2428903045161,171.61487102709663 A 32,32 0 0,0 176.39297240631856,220.77824745662727 L 163.08945860947785,229.66737118494092 A 48,48 0 0,1 155.92230654064494,193.63566454322583 L 140.22974205419325,190.51421939096778 A 64,64 0 0,0 146.55703908170528,233.16939115686387 L 104.22481839298425,255.79643452451177 A 112,112 0 0,0 170.48811614750025,310.17731760200741 L 175.13267098357164,294.86627223029205 A 96,96 0 0,1 157.74591326470423,287.66444137744207 L 172.83060884313616,259.44296091829472 A 64,64 0 0,1 167.44350508674546,256.21405518736293 L 185.22175254337273,229.60702759368147 A 32,32 0 0,0 190.75413016431713,232.56414504036118 L 193.81559762323786,225.17310878027089" />
  <type>Circular</type>
</svg>