<?xml version="1.0" encoding="utf-8" standalone="no"?>
<!DOCTYPE svg PUBLIC "-//W3C//DTD SVG 1.1//EN" "http://www.w3.org/Graphics/SVG/1.1/DTD/svg11.dtd"[]>
<svg width="404" height="404" version="1.1" xmlns="http://www.w3.org/2000/svg">
  <title>25 cells diameter theta maze</title>
  <g fill="none" stroke="#000000" stroke-width="2" stroke-linecap="square">
    <path d="M 186.02943725152286,219.97056274847714 A 24,24 0 1,1 203,227" />
    <path d="M 187.69266270539637,166.04481869954856 A 40,40 0 0,1 203,163" />
    <path d="M 218.3073372946036,166.04481869954853 A 40,40 0 0,1 243,203" />
    <path d="M 239.95518130045147,218.3073372946036 A 40,40 0 0,1 231.2842712474619,231.2842712474619" />
    <path d="M 203,243 A 40,40 0 0,1 187.6926627053964,239.95518130045147" />
    <path d="M 174.7157287525381,231.2842712474619 A 40,40 0 0,1 166.04481869954853,218.3073372946036" />
    <path d="M 163,203 A 40,40 0 0,1 174.7157287525381,174.7157287525381" />
    <path d="M 151.26274617936795,181.56972778755497 A 56,56 0 0,1 203,147" />
    <path d="M 242.59797974644667,163.40202025355333 A 56,56 0 0,1 254.73725382063205,181.56972778755497" />
    <path d="M 259,203 A 56,56 0 0,1 254.73725382063208,224.43027221244503" />
    <path d="M 203,259 A 56,56 0 0,1 163.40202025355336,242.59797974644667" />
    <path d="M 188.95349681483873,132.3834598109674 A 72,72 0 0,1 203,131" />
    <path d="M 217.04650318516124,132.3834598109674 A 72,72 0 0,1 230.55320713028647,136.48067365918735" />
    <path d="M 243.00105677741135,143.13418791421674 A 72,72 0 0,1 253.91168824543144,152.08831175456857" />
    <path d="M 269.51932634081265,175.44679286971353 A 72,72 0 0,1 273.61654018903261,217.04650318516124" />
    <path d="M 262.86581208578326,243.00105677741135 A 72,72 0 0,1 243.00105677741135,262.86581208578326" />
    <path d="M 230.55320713028647,269.51932634081265 A 72,72 0 0,1 188.95349681483876,273.61654018903261" />
    <path d="M 175.44679286971353,269.51932634081265 A 72,72 0 0,1 162.99894322258865,262.86581208578326" />
    <path d="M 152.08831175456859,253.91168824543144 A 72,72 0 0,1 132.3834598109674,217.04650318516127" />
    <path d="M 131,203 A 72,72 0 0,1 132.3834598109674,188.95349681483876" />
    <path d="M 136.48067365918735,175.44679286971353 A 72,72 0 0,1 175.44679286971348,136.48067365918737" />
    <path d="M 185.83205166258068,116.69089532451572 A 88,88 0 0,1 276.169325882624,154.109819494275" />
    <path d="M 289.30910467548426,185.83205166258071 A 88,88 0 0,1 289.30910467548426,220.16794833741929" />
    <path d="M 284.30139886099323,236.6761420481279 A 88,88 0 0,1 276.169325882624,251.89018050572497" />
    <path d="M 265.22539674441617,265.22539674441617 A 88,88 0 0,1 236.6761420481279,284.30139886099323" />
    <path d="M 220.16794833741932,289.30910467548426 A 88,88 0 0,1 203,291" />
    <path d="M 169.32385795187213,284.30139886099323 A 88,88 0 0,1 154.10981949427503,276.169325882624" />
    <path d="M 121.69860113900678,236.67614204812796 A 88,88 0 0,1 121.69860113900677,169.32385795187207" />
    <path d="M 129.830674117376,154.10981949427503 A 88,88 0 0,1 140.7746032555838,140.77460325558383" />
    <path d="M 203,99 A 104,104 0 0,1 223.28939348967734,100.99833083806404" />
    <path d="M 260.77930423403865,116.52716032053529 A 104,104 0 0,1 299.08347138117381,163.20092303403067" />
    <path d="M 305.001669161936,182.71060651032266 A 104,104 0 0,1 305.001669161936,223.28939348967734" />
    <path d="M 289.47283967946476,260.77930423403859 A 104,104 0 0,1 276.53910524340097,276.53910524340097" />
    <path d="M 242.79907696596933,299.08347138117381 A 104,104 0 0,1 223.28939348967737,305.001669161936" />
    <path d="M 203,307 A 104,104 0 0,1 129.46089475659909,276.53910524340097" />
    <path d="M 116.52716032053529,260.77930423403865 A 104,104 0 0,1 116.52716032053527,145.22069576596141" />
    <path d="M 129.46089475659903,129.46089475659909 A 104,104 0 0,1 145.22069576596135,116.5271603205353" />
    <path d="M 163.20092303403061,106.91652861882621 A 104,104 0 0,1 182.71060651032261,100.99833083806405" />
    <path d="M 179.58916135806456,85.305766351612363 A 120,120 0 0,1 203,83" />
    <path d="M 248.92201188381077,92.134456098645586 A 120,120 0 0,1 287.85281374238571,118.14718625761429" />
    <path d="M 313.86554390135439,157.07798811618923 A 120,120 0 0,1 320.69423364838764,179.58916135806459" />
    <path d="M 323,203 A 120,120 0 0,1 313.86554390135439,248.92201188381077" />
    <path d="M 287.85281374238571,287.85281374238571 A 120,120 0 0,1 248.9220118838108,313.86554390135439" />
    <path d="M 226.41083864193544,320.69423364838764 A 120,120 0 0,1 203.00000000000003,323" />
    <path d="M 179.58916135806459,320.69423364838764 A 120,120 0 0,1 103.22364652369457,269.66842796235227" />
    <path d="M 92.134456098645614,248.92201188381085 A 120,120 0 0,1 85.305766351612348,226.41083864193544" />
    <path d="M 83,203.00000000000003 A 120,120 0 0,1 85.305766351612348,179.58916135806462" />
    <path d="M 92.1344560986456,157.0779881161892 A 120,120 0 0,1 157.07798811618915,92.134456098645614" />
    <path d="M 189.66966891517978,67.654877172581223 A 136,136 0 0,1 203,67" />
    <path d="M 216.33033108482024,67.654877172581223 A 136,136 0 0,1 278.55755169066589,89.920132726853851" />
    <path d="M 289.2774866462558,97.87057834266777 A 136,136 0 0,1 299.16652224137044,106.83347775862953" />
    <path d="M 308.12942165733222,116.72251335374421 A 136,136 0 0,1 316.07986727314614,127.4424483093341" />
    <path d="M 322.94129195137629,138.89004379166431 A 136,136 0 0,1 336.38679813483935,176.46771620580654" />
    <path d="M 339,203 A 136,136 0 0,1 338.34512282741878,216.33033108482024" />
    <path d="M 336.38679813483935,229.53228379419343 A 136,136 0 0,1 308.12942165733227,289.27748664625574" />
    <path d="M 299.16652224137044,299.16652224137044 A 136,136 0 0,1 289.2774866462558,308.12942165733222" />
    <path d="M 267.10995620833569,322.94129195137629 A 136,136 0 0,1 229.53228379419349,336.3867981348393" />
    <path d="M 216.33033108482027,338.34512282741878 A 136,136 0 0,1 203.00000000000003,339" />
    <path d="M 189.66966891517976,338.34512282741878 A 136,136 0 0,1 138.89004379166431,322.94129195137629" />
    <path d="M 127.44244830933414,316.07986727314619 A 136,136 0 0,1 116.72251335374423,308.12942165733227" />
    <path d="M 97.870578342667812,289.27748664625585 A 136,136 0 0,1 77.352383578465037,255.04494680165229" />
    <path d="M 72.8561143404196,242.4787161066069 A 136,136 0 0,1 67.654877172581223,216.33033108482022" />
    <path d="M 67,203.00000000000003 A 136,136 0 0,1 83.058708048623714,138.89004379166431" />
    <path d="M 89.920132726853822,127.44244830933414 A 136,136 0 0,1 106.83347775862951,106.83347775862956" />
    <path d="M 116.72251335374415,97.870578342667827 A 136,136 0 0,1 138.89004379166428,83.058708048623743" />
    <path d="M 150.95505319834771,77.352383578465037 A 136,136 0 0,1 176.46771620580648,69.613201865160676" />
    <path d="M 188.1013946699068,51.731921545826083 A 152,152 0 0,1 232.65372894645151,53.92063737870896" />
    <path d="M 247.12327094267829,57.545068968704243 A 152,152 0 0,1 261.16788171949366,62.5703110582844" />
    <path d="M 287.44667541897957,76.616618930013118 A 152,152 0 0,1 299.42777919287414,85.50241108886398" />
    <path d="M 310.48023074035524,95.519769259644775 A 152,152 0 0,1 320.497588911136,106.57222080712587" />
    <path d="M 348.45493103129576,158.87672905732174 A 152,152 0 0,1 352.079362621291,232.65372894645148" />
    <path d="M 337.05203218094994,274.65230399755166 A 152,152 0 0,1 329.38338106998691,287.44667541897951" />
    <path d="M 310.48023074035524,310.48023074035518 A 152,152 0 0,1 261.16788171949366,343.42968894171554" />
    <path d="M 203.00000000000003,355 A 152,152 0 0,1 144.83211828050636,343.4296889417156" />
    <path d="M 85.502411088864022,299.42777919287414 A 152,152 0 0,1 76.616618930013118,287.44667541897951" />
    <path d="M 53.920637378708989,232.65372894645157 A 152,152 0 0,1 53.92063737870896,173.34627105354849" />
    <path d="M 57.545068968704243,158.87672905732177 A 152,152 0 0,1 68.947967819050035,131.34769600244837" />
    <path d="M 76.61661893001309,118.55332458102052 A 152,152 0 0,1 85.502411088864,106.57222080712587" />
    <path d="M 95.519769259644747,95.5197692596448 A 152,152 0 0,1 118.55332458102046,76.616618930013118" />
    <path d="M 144.83211828050625,62.57031105828446 A 152,152 0 0,1 158.87672905732171,57.545068968704271" />
    <path d="M 203,35 A 168,168 0 0,1 219.46687957536619,35.808965919070914" />
    <path d="M 235.77517409870956,38.228072892257273 A 168,168 0 0,1 251.76782577874968,42.234023596988919" />
    <path d="M 267.29081663733507,47.788238538103826 A 168,168 0 0,1 309.57807173949243,73.134243835060175" />
    <path d="M 321.79393923934,84.206060760660009 A 168,168 0 0,1 358.21176146189617,138.70918336266493" />
    <path d="M 367.77192710774273,170.22482590129044 A 168,168 0 0,1 370.19103408092906,186.53312042463378" />
    <path d="M 371,203 A 168,168 0 0,1 363.76597640301111,251.76782577874965" />
    <path d="M 358.21176146189617,267.29081663733507 A 168,168 0 0,1 296.33579914729319,342.68689486682763" />
    <path d="M 282.19465178676762,351.16277241052364 A 168,168 0 0,1 267.29081663733507,358.21176146189617" />
    <path d="M 251.76782577874968,363.76597640301111 A 168,168 0 0,1 235.77517409870961,367.77192710774273" />
    <path d="M 219.46687957536622,370.19103408092906 A 168,168 0 0,1 186.53312042463381,370.19103408092906" />
    <path d="M 96.421928260507585,332.86575616493985 A 168,168 0 0,1 47.788238538103855,267.29081663733518" />
    <path d="M 42.234023596988919,251.76782577874968 A 168,168 0 0,1 35,203.00000000000003" />
    <path d="M 35.808965919070914,186.53312042463392 A 168,168 0 0,1 47.788238538103855,138.70918336266487" />
    <path d="M 63.313105133172371,109.66420085270688 A 168,168 0 0,1 84.20606076066,84.206060760660037" />
    <path d="M 96.421928260507485,73.134243835060261 A 168,168 0 0,1 109.66420085270683,63.3131051331724" />
    <path d="M 123.80534821323235,54.837227589476385 A 168,168 0 0,1 138.70918336266482,47.788238538103855" />
    <path d="M 154.23217422125032,42.234023596988919 A 168,168 0 0,1 170.22482590129039,38.2280728922573" />
    <path d="M 167.10338074903231,22.535508405805615 A 184,184 0 0,1 203,19" />
    <path d="M 221.03515382063915,19.886010292315774 A 184,184 0 0,1 273.41375155517653,33.006166017923249" />
    <path d="M 319.72836428611078,60.766076581256385 A 184,184 0 0,1 333.10764773832477,72.892352261675256" />
    <path d="M 345.23392341874359,86.271635713889225 A 184,184 0 0,1 372.99383398207675,132.58624844482347" />
    <path d="M 379.0770217747264,149.58761938517893 A 184,184 0 0,1 383.46449159419444,167.1033807490324" />
    <path d="M 387,203 A 184,184 0 0,1 333.10764773832477,333.10764773832477" />
    <path d="M 273.41375155517653,372.99383398207675 A 184,184 0 0,1 167.1033807490324,383.46449159419444" />
    <path d="M 149.58761938517898,379.0770217747264 A 184,184 0 0,1 100.77507712439325,355.99040866366835" />
    <path d="M 72.892352261675285,333.10764773832477 A 184,184 0 0,1 40.726487359902706,289.73699957598365" />
    <path d="M 33.006166017923277,273.41375155517665 A 184,184 0 0,1 26.922978225273567,256.41238061482107" />
    <path d="M 19,203.00000000000003 A 184,184 0 0,1 19.886010292315774,184.96484617936093" />
    <path d="M 40.726487359902677,116.26300042401645 A 184,184 0 0,1 50.009591336331624,100.77507712439326" />
    <path d="M 60.766076581256414,86.271635713889211 A 184,184 0 0,1 86.271635713889154,60.76607658125647" />
    <path d="M 132.58624844482335,33.006166017923277 A 184,184 0 0,1 149.5876193851789,26.922978225273567" />
    <path d="M 222.60342806591211,3.9630546655606338 A 200,200 0 1,1 203,3" />
  </g>
  <g fill="none" stroke="#000000" stroke-width="2" stroke-linecap="butt">
    <line x1="203" y1="19" x2="203" y2="35" />
    <line x1="203" y1="67" x2="203" y2="83" />
    <line x1="203" y1="163" x2="203" y2="179" />
    <line x1="222.60342806591211" y1="3.9630546655606054" x2="221.03515382063915" y2="19.886010292315774" />
    <line x1="235.77517409870956" y1="38.228072892257273" x2="232.65372894645151" y2="53.920637378708989" />
    <line x1="229.53228379419343" y1="69.613201865160647" x2="223.28939348967734" y2="100.99833083806404" />
    <line x1="251.76782577874968" y1="42.234023596988919" x2="247.12327094267829" y2="57.545068968704271" />
    <line x1="248.92201188381077" y1="92.134456098645586" x2="218.3073372946036" y2="166.04481869954853" />
    <line x1="297.27934736519956" y1="26.615747130328998" x2="267.10995620833569" y2="83.058708048623714" />
    <line x1="314.11404660392043" y1="36.706077539490963" x2="305.22492287560681" y2="50.009591336331681" />
    <line x1="287.44667541897957" y1="76.616618930013118" x2="278.55755169066589" y2="89.920132726853851" />
    <line x1="319.72836428611078" y1="60.766076581256385" x2="309.57807173949243" y2="73.134243835060175" />
    <line x1="333.10764773832477" y1="72.892352261675256" x2="321.79393923934" y2="84.206060760660009" />
    <line x1="299.16652224137044" y1="106.83347775862953" x2="287.85281374238571" y2="118.14718625761429" />
    <line x1="253.91168824543144" y1="152.08831175456857" x2="242.59797974644664" y2="163.40202025355333" />
    <line x1="345.23392341874364" y1="86.271635713889225" x2="320.497588911136" y2="106.57222080712589" />
    <line x1="342.68689486682763" y1="109.66420085270681" x2="289.4728396794647" y2="145.22069576596135" />
    <line x1="276.169325882624" y1="154.109819494275" x2="262.86581208578326" y2="162.99894322258865" />
    <line x1="337.05203218094994" y1="131.34769600244835" x2="322.94129195137629" y2="138.89004379166431" />
    <line x1="358.21176146189617" y1="138.7091833626649" x2="343.4296889417156" y2="144.83211828050634" />
    <line x1="313.86554390135439" y1="157.0779881161892" x2="254.73725382063205" y2="181.56972778755497" />
    <line x1="379.0770217747264" y1="149.58761938517893" x2="348.45493103129576" y2="158.87672905732171" />
    <line x1="336.38679813483935" y1="176.46771620580654" x2="320.69423364838764" y2="179.58916135806459" />
    <line x1="402.03694533443934" y1="183.39657193408783" x2="338.34512282741878" y2="189.66966891517973" />
    <line x1="387" y1="203" x2="371" y2="203" />
    <line x1="339" y1="203" x2="323" y2="203" />
    <line x1="259" y1="203" x2="243" y2="203" />
    <line x1="354.268078454174" y1="217.89860533009323" x2="338.34512282741878" y2="216.33033108482024" />
    <line x1="320.69423364838764" y1="226.41083864193539" x2="305.001669161936" y2="223.28939348967734" />
    <line x1="289.30910467548426" y1="220.16794833741929" x2="273.61654018903261" y2="217.04650318516124" />
    <line x1="363.76597640301111" y1="251.76782577874965" x2="333.14388565958041" y2="242.47871610660684" />
    <line x1="358.21176146189617" y1="267.29081663733507" x2="343.4296889417156" y2="261.16788171949361" />
    <line x1="313.86554390135439" y1="248.92201188381077" x2="269.51932634081265" y2="230.55320713028647" />
    <line x1="337.05203218094994" y1="274.65230399755166" x2="322.94129195137629" y2="267.10995620833569" />
    <line x1="316.07986727314619" y1="278.55755169066583" x2="289.47283967946476" y2="260.77930423403859" />
    <line x1="276.169325882624" y1="251.89018050572497" x2="262.86581208578326" y2="243.00105677741135" />
    <line x1="332.86575616493985" y1="309.57807173949243" x2="320.49758891113606" y2="299.42777919287408" />
    <line x1="310.48023074035524" y1="310.48023074035518" x2="299.16652224137044" y2="299.16652224137044" />
    <line x1="276.53910524340097" y1="276.53910524340097" x2="265.22539674441617" y2="265.22539674441617" />
    <line x1="253.91168824543144" y1="253.91168824543144" x2="219.97056274847714" y2="219.97056274847714" />
    <line x1="329.87865683272912" y1="357.60209067254743" x2="309.57807173949243" y2="332.86575616493985" />
    <line x1="314.11404660392043" y1="369.29392246050907" x2="305.22492287560681" y2="355.99040866366835" />
    <line x1="296.33579914729319" y1="342.68689486682763" x2="260.77930423403865" y2="289.4728396794647" />
    <line x1="289.73699957598359" y1="365.27351264009729" x2="282.19465178676762" y2="351.16277241052364" />
    <line x1="273.41375155517653" y1="372.99383398207675" x2="267.29081663733507" y2="358.21176146189617" />
    <line x1="255.04494680165223" y1="328.64761642153496" x2="248.9220118838108" y2="313.86554390135439" />
    <line x1="242.79907696596933" y1="299.08347138117381" x2="218.3073372946036" y2="239.95518130045147" />
    <line x1="251.76782577874968" y1="363.76597640301111" x2="247.12327094267829" y2="348.4549310312957" />
    <line x1="235.77517409870961" y1="367.77192710774273" x2="229.53228379419349" y2="336.38679813483935" />
    <line x1="226.41083864193544" y1="320.69423364838764" x2="220.16794833741932" y2="289.30910467548426" />
    <line x1="219.46687957536622" y1="370.19103408092906" x2="216.33033108482027" y2="338.34512282741878" />
    <line x1="203.00000000000003" y1="339" x2="203.00000000000003" y2="323" />
    <line x1="203" y1="243" x2="203" y2="227" />
    <line x1="184.96484617936085" y1="386.11398970768425" x2="186.53312042463381" y2="370.19103408092906" />
    <line x1="188.1013946699068" y1="354.268078454174" x2="189.66966891517976" y2="338.34512282741878" />
    <line x1="167.1033807490324" y1="383.46449159419438" x2="170.22482590129044" y2="367.77192710774273" />
    <line x1="176.46771620580654" y1="336.38679813483935" x2="179.58916135806459" y2="320.69423364838764" />
    <line x1="182.71060651032266" y1="305.001669161936" x2="188.95349681483876" y2="273.61654018903261" />
    <line x1="144.94306454910759" y1="394.38806714644181" x2="154.23217422125038" y2="363.76597640301111" />
    <line x1="132.5862484448235" y1="372.99383398207681" x2="144.83211828050636" y2="343.4296889417156" />
    <line x1="175.44679286971353" y1="269.51932634081265" x2="187.6926627053964" y2="239.95518130045147" />
    <line x1="123.80534821323239" y1="351.16277241052364" x2="138.89004379166431" y2="322.94129195137629" />
    <line x1="100.77507712439324" y1="355.9904086636684" x2="118.55332458102051" y2="329.38338106998691" />
    <line x1="127.44244830933414" y1="316.07986727314619" x2="136.33157203764776" y2="302.77635347630547" />
    <line x1="154.10981949427503" y1="276.169325882624" x2="162.99894322258865" y2="262.86581208578326" />
    <line x1="76.12134316727095" y1="357.60209067254743" x2="86.271635713889268" y2="345.23392341874364" />
    <line x1="106.57222080712592" y1="320.49758891113606" x2="116.72251335374425" y2="308.12942165733227" />
    <line x1="72.892352261675256" y1="333.10764773832477" x2="106.83347775862954" y2="299.1665222413705" />
    <line x1="129.46089475659906" y1="276.53910524340097" x2="152.08831175456857" y2="253.91168824543144" />
    <line x1="174.7157287525381" y1="231.2842712474619" x2="186.02943725152286" y2="219.97056274847714" />
    <line x1="76.616618930013118" y1="287.44667541897957" x2="129.83067411737602" y2="251.890180505725" />
    <line x1="54.837227589476356" y1="282.19465178676762" x2="68.947967819050064" y2="274.65230399755166" />
    <line x1="33.006166017923277" y1="273.41375155517665" x2="77.352383578465037" y2="255.04494680165229" />
    <line x1="121.69860113900678" y1="236.67614204812796" x2="166.04481869954856" y2="218.3073372946036" />
    <line x1="26.922978225273567" y1="256.41238061482107" x2="42.234023596988919" y2="251.76782577874968" />
    <line x1="57.545068968704271" y1="247.12327094267829" x2="72.8561143404196" y2="242.4787161066069" />
    <line x1="22.535508405805615" y1="238.89661925096766" x2="38.2280728922573" y2="235.77517409870961" />
    <line x1="53.920637378708989" y1="232.65372894645157" x2="85.305766351612363" y2="226.41083864193544" />
    <line x1="3.9630546655606054" y1="222.60342806591208" x2="19.886010292315774" y2="221.03515382063912" />
    <line x1="67" y1="203.00000000000003" x2="83" y2="203.00000000000003" />
    <line x1="115" y1="203.00000000000003" x2="163" y2="203" />
    <line x1="19.886010292315774" y1="184.96484617936093" x2="51.731921545826054" y2="188.10139466990688" />
    <line x1="22.535508405805615" y1="167.1033807490324" x2="38.228072892257273" y2="170.22482590129044" />
    <line x1="11.611932853558216" y1="144.94306454910759" x2="26.922978225273567" y2="149.58761938517898" />
    <line x1="57.545068968704243" y1="158.87672905732177" x2="72.8561143404196" y2="163.52128389339316" />
    <line x1="18.224093497742672" y1="126.463313526982" x2="47.788238538103855" y2="138.70918336266487" />
    <line x1="121.69860113900678" y1="169.32385795187207" x2="136.48067365918735" y2="175.44679286971353" />
    <line x1="40.726487359902677" y1="116.26300042401644" x2="68.947967819050035" y2="131.34769600244837" />
    <line x1="50.009591336331624" y1="100.77507712439326" x2="63.313105133172371" y2="109.66420085270688" />
    <line x1="116.52716032053527" y1="145.22069576596141" x2="129.83067411737602" y2="154.10981949427503" />
    <line x1="73.1342438350602" y1="96.421928260507542" x2="97.870578342667784" y2="116.72251335374421" />
    <line x1="61.578643762690461" y1="61.578643762690518" x2="72.892352261675228" y2="72.892352261675285" />
    <line x1="106.83347775862951" y1="106.83347775862956" x2="118.14718625761428" y2="118.14718625761432" />
    <line x1="129.46089475659903" y1="129.46089475659909" x2="140.7746032555838" y2="140.77460325558383" />
    <line x1="86.271635713889154" y1="60.766076581256442" x2="96.421928260507485" y2="73.134243835060232" />
    <line x1="106.57222080712582" y1="85.502411088864022" x2="116.72251335374415" y2="97.870578342667812" />
    <line x1="91.885953396079572" y1="36.706077539490963" x2="100.77507712439319" y2="50.009591336331681" />
    <line x1="136.33157203764773" y1="103.22364652369457" x2="154.109819494275" y2="129.83067411737602" />
    <line x1="108.72065263480042" y1="26.615747130329027" x2="138.89004379166428" y2="83.058708048623743" />
    <line x1="150.95505319834771" y1="77.352383578465037" x2="157.07798811618915" y2="92.134456098645614" />
    <line x1="163.20092303403061" y1="106.91652861882621" x2="181.56972778755494" y2="151.26274617936795" />
    <line x1="149.5876193851789" y1="26.922978225273567" x2="158.87672905732171" y2="57.545068968704271" />
    <line x1="170.22482590129039" y1="38.2280728922573" x2="176.46771620580648" y2="69.613201865160676" />
    <line x1="179.58916135806456" y1="85.305766351612363" x2="188.95349681483873" y2="132.38345981096742" />
    <line x1="184.96484617936088" y1="19.886010292315774" x2="189.66966891517978" y2="67.654877172581223" />
  </g>
  <path fill="none" stroke="#ff0000" stroke-width="2" stroke-linecap="square" stroke-linejoin="round" d="M 212.8135348654836,3.2409087589655314 L 212.42099347086426,11.231272408606912 A 192,192 0 0,0 156.34780545857328,16.753999386647564 L 160.23548833702552,32.274499437760284 A 176,176 0 0,1 177.17543649585622,28.904934246198565 L 184.21849926971362,76.385406724508044 A 128,128 0 0,0 165.8435613114288,80.51163702627727 L 170.48811614750019,95.822682397992608 A 112,112 0 0,0 150.20356547548823,104.22481839298426 L 165.28826105392017,132.44629885213161 A 80,80 0 0,0 132.44629885213158,165.2882610539202 L 118.33555862255791,157.74591326470423 A 96,96 0 0,0 118.33555862255793,248.2540867352958 L 132.44629885213161,240.71173894607983 A 80,80 0 0,0 141.15916373098108,253.75146273309167 L 116.4228292233735,274.05204782632836 A 112,112 0 0,0 192.02208028308922,314.46068938728604 L 190.45380603781624,330.38364501404124 A 128,128 0 0,0 196.71933768609054,330.8458183942621 L 195.93425489685185,346.82654569354486 A 144,144 0 0,0 210.06574510314817,346.82654569354486 L 210.85082789238689,362.80727299282762 A 160,160 0 0,1 164.12317121547778,358.20500051112708 L 156.34780545857336,389.24600061335241 A 192,192 0 0,0 301.70772688509857,367.68389312005223 L 285.25643907091546,340.23657760004352 A 160,160 0 0,1 256.90237654275523,353.6470504292833 L 262.29261419703079,368.71175547221162 A 176,176 0 0,1 228.82456350414367,377.09506575380146 L 221.78150073028633,329.614593275492 A 128,128 0 0,0 240.1564386885712,325.4883629737227 L 235.51188385249978,310.17731760200741 A 112,112 0 0,0 255.79643452451177,301.77518160701572 L 248.2540867352958,287.66444137744207 A 96,96 0 0,0 263.90175527970996,277.20900352282274 L 274.05204782632831,289.57717077662653 A 112,112 0 0,0 289.57717077662653,274.05204782632825 L 301.94533803043032,284.20234037294659 A 128,128 0 0,1 297.84174404543478,288.95954622041836 L 309.6969620511141,299.70448949797066 A 144,144 0 0,0 318.66188453321286,288.78069984691041 L 331.51320503690317,298.31188871878931 A 160,160 0 0,0 347.63828689975094,271.40881494884513 L 333.17445820977582,264.56793345396056 A 144,144 0 0,0 338.582345386355,251.51213888847968 L 368.71175547221168,262.29261419703073 A 176,176 0 0,1 321.1943760530753,333.40739806247279 L 331.93931933062754,345.26261606815211 A 192,192 0 0,0 394.76872759139309,193.57900652913571 L 362.80727299282762,195.14917210761311 A 160,160 0 0,1 358.205000511127,241.87682878452222 L 342.68450046001431,237.98914590607 A 144,144 0 0,0 345.44141743492844,224.12918832157209 L 329.614593275492,221.7815007302863 A 128,128 0 0,1 315.88592183658943,263.33878231372773 L 287.66444137744207,248.25408673529577 A 96,96 0 0,1 277.20900352282274,263.90175527970996 L 264.84083626901895,253.75146273309161 A 80,80 0 0,1 240.71173894607983,273.55370114786842 L 233.16939115686387,259.44296091829472 A 64,64 0 0,0 238.55649491325454,256.21405518736287 L 220.77824745662727,229.60702759368144 A 32,32 0 0,1 209.24289030451612,234.38512897290337 L 215.48578060903222,265.77025794580675 A 64,64 0 0,1 184.42178065571443,264.24418148686135 L 175.13267098357164,294.86627223029205 A 96,96 0 0,1 142.09824472029004,277.20900352282274 L 162.3988298135267,252.47266901521516 A 64,64 0 0,1 149.7859448126371,238.55649491325454 L 163.08945860947785,229.66737118494092 A 48,48 0 0,0 176.33262881505911,242.91054139052218 L 185.22175254337273,229.60702759368147 A 32,32 0 0,0 190.75413016431713,232.56414504036118 L 193.81559762323786,225.17310878027089" />
  <type>Circular</type>
</svg>