<?xml version="1.0" encoding="utf-8" standalone="no"?>
<!DOCTYPE svg PUBLIC "-//W3C//DTD SVG 1.1//EN" "http://www.w3.org/Graphics/SVG/1.1/DTD/svg11.dtd"[]>
<svg width="244" height="244" version="1.1" xmlns="http://www.w3.org/2000/svg">
  <title>15 cells diameter theta maze</title>
  <g fill="none" stroke="#000000" stroke-width="2" stroke-linecap="square">
    <path d="M 106.02943725152286,139.97056274847714 A 24,24 0 1,1 123,147" />
    <path d="M 123,163 A 40,40 0 0,1 123,83" />
    <path d="M 159.95518130045147,107.6926627053964 A 40,40 0 0,1 163,123" />
    <path d="M 159.95518130045147,138.3073372946036 A 40,40 0 0,1 151.2842712474619,151.2842712474619" />
    <path d="M 144.43027221244503,71.262746179367952 A 56,56 0 0,1 162.59797974644667,83.402020253553331" />
    <path d="M 179,123 A 56,56 0 0,1 174.73725382063208,144.43027221244503" />
    <path d="M 162.59797974644667,162.59797974644664 A 56,56 0 0,1 71.262746179367952,101.56972778755497" />
    <path d="M 63.134187914216724,82.998943222588665 A 72,72 0 0,1 150.55320713028647,56.48067365918736" />
    <path d="M 173.91168824543144,72.088311754568579 A 72,72 0 0,1 193.61654018903261,108.95349681483876" />
    <path d="M 193.61654018903261,137.04650318516124 A 72,72 0 0,1 182.86581208578326,163.00105677741135" />
    <path d="M 173.91168824543144,173.91168824543141 A 72,72 0 0,1 163.00105677741135,182.86581208578326" />
    <path d="M 137.04650318516127,193.61654018903261 A 72,72 0 0,1 123.00000000000001,195" />
    <path d="M 108.95349681483876,193.61654018903261 A 72,72 0 0,1 95.446792869713548,189.51932634081265" />
    <path d="M 82.998943222588665,182.86581208578326 A 72,72 0 0,1 56.480673659187374,150.5532071302865" />
    <path d="M 52.383459810967409,137.04650318516127 A 72,72 0 0,1 51,123.00000000000001" />
    <path d="M 52.383459810967409,108.95349681483876 A 72,72 0 0,1 56.48067365918736,95.446792869713519" />
    <path d="M 105.83205166258067,36.690895324515722 A 88,88 0 0,1 140.16794833741929,36.690895324515722" />
    <path d="M 156.6761420481279,41.698601139006769 A 88,88 0 0,1 196.16932588262398,74.109819494275" />
    <path d="M 204.30139886099323,89.3238579518721 A 88,88 0 0,1 209.30910467548426,140.16794833741929" />
    <path d="M 204.30139886099323,156.6761420481279 A 88,88 0 0,1 185.22539674441617,185.22539674441617" />
    <path d="M 140.16794833741932,209.30910467548426 A 88,88 0 0,1 105.83205166258071,209.30910467548426" />
    <path d="M 89.323857951872114,204.30139886099323 A 88,88 0 0,1 74.10981949427503,196.16932588262398" />
    <path d="M 41.698601139006783,156.67614204812796 A 88,88 0 0,1 35,123.00000000000001" />
    <path d="M 41.698601139006769,89.323857951872071 A 88,88 0 0,1 49.830674117375992,74.10981949427503" />
    <path d="M 60.774603255583806,60.774603255583834 A 88,88 0 0,1 74.109819494275,49.83067411737602" />
    <path d="M 143.28939348967734,20.998330838064035 A 104,104 0 0,1 162.79907696596933,26.916528618826177" />
    <path d="M 209.4728396794647,65.220695765961366 A 104,104 0 0,1 219.08347138117381,83.200923034030666" />
    <path d="M 227,123 A 104,104 0 0,1 219.08347138117381,162.79907696596933" />
    <path d="M 196.53910524340097,196.53910524340094 A 104,104 0 0,1 143.28939348967737,225.00166916193598" />
    <path d="M 102.71060651032265,225.00166916193598 A 104,104 0 0,1 83.20092303403068,219.08347138117381" />
    <path d="M 36.527160320535287,180.77930423403862 A 104,104 0 0,1 26.916528618826206,162.79907696596939" />
    <path d="M 19,123.00000000000001 A 104,104 0 0,1 26.916528618826192,83.200923034030637" />
    <path d="M 36.527160320535273,65.220695765961409 A 104,104 0 0,1 65.220695765961366,36.5271603205353" />
    <path d="M 146.41083864193539,5.3057663516123483 A 120,120 0 1,1 123,3" />
  </g>
  <g fill="none" stroke="#000000" stroke-width="2" stroke-linecap="butt">
    <line x1="123" y1="3" x2="123" y2="19" />
    <line x1="123" y1="51" x2="123" y2="67" />
    <line x1="143.28939348967734" y1="20.998330838064035" x2="140.16794833741929" y2="36.690895324515722" />
    <line x1="162.79907696596933" y1="26.916528618826177" x2="156.6761420481279" y2="41.698601139006769" />
    <line x1="150.55320713028647" y1="56.48067365918736" x2="138.3073372946036" y2="86.044818699548529" />
    <line x1="189.66842796235227" y1="23.223646523694569" x2="180.77930423403862" y2="36.5271603205353" />
    <line x1="171.890180505725" y1="49.83067411737602" x2="163.00105677741135" y2="63.134187914216746" />
    <line x1="207.85281374238571" y1="38.147186257614294" x2="196.53910524340094" y2="49.460894756599046" />
    <line x1="185.22539674441617" y1="60.774603255583813" x2="162.59797974644664" y2="83.402020253553331" />
    <line x1="151.2842712474619" y1="94.7157287525381" x2="139.97056274847714" y2="106.02943725152286" />
    <line x1="219.08347138117381" y1="83.200923034030666" x2="189.51932634081265" y2="95.446792869713533" />
    <line x1="174.73725382063205" y1="101.56972778755497" x2="159.95518130045147" y2="107.6926627053964" />
    <line x1="240.69423364838764" y1="99.5891613580646" x2="225.00166916193598" y2="102.71060651032265" />
    <line x1="211" y1="123" x2="195" y2="123" />
    <line x1="163" y1="123" x2="147" y2="123" />
    <line x1="219.08347138117381" y1="162.79907696596933" x2="204.30139886099323" y2="156.6761420481279" />
    <line x1="189.51932634081265" y1="150.55320713028647" x2="159.95518130045147" y2="138.3073372946036" />
    <line x1="209.47283967946473" y1="180.77930423403859" x2="182.86581208578326" y2="163.00105677741135" />
    <line x1="196.53910524340097" y1="196.53910524340094" x2="173.91168824543144" y2="173.91168824543144" />
    <line x1="171.890180505725" y1="196.16932588262398" x2="163.00105677741135" y2="182.86581208578326" />
    <line x1="156.6761420481279" y1="204.30139886099323" x2="138.3073372946036" y2="159.95518130045147" />
    <line x1="143.28939348967737" y1="225.00166916193598" x2="137.04650318516127" y2="193.61654018903261" />
    <line x1="123.00000000000001" y1="243" x2="123.00000000000001" y2="227" />
    <line x1="123" y1="163" x2="123" y2="147" />
    <line x1="102.71060651032265" y1="225.00166916193598" x2="105.83205166258071" y2="209.30910467548426" />
    <line x1="77.077988116189232" y1="233.86554390135444" x2="83.200923034030666" y2="219.08347138117384" />
    <line x1="89.3238579518721" y1="204.30139886099323" x2="101.56972778755498" y2="174.73725382063208" />
    <line x1="65.2206957659614" y1="209.47283967946473" x2="74.10981949427503" y2="196.16932588262398" />
    <line x1="38.147186257614308" y1="207.85281374238571" x2="60.774603255583827" y2="185.2253967444162" />
    <line x1="36.5271603205353" y1="180.77930423403862" x2="49.83067411737602" y2="171.890180505725" />
    <line x1="26.916528618826206" y1="162.79907696596939" x2="41.698601139006783" y2="156.67614204812796" />
    <line x1="56.480673659187374" y1="150.5532071302865" x2="71.262746179367952" y2="144.43027221244506" />
    <line x1="5.3057663516123625" y1="146.41083864193544" x2="52.383459810967423" y2="137.04650318516127" />
    <line x1="20.998330838064035" y1="102.71060651032266" x2="52.383459810967409" y2="108.95349681483876" />
    <line x1="12.1344560986456" y1="77.0779881161892" x2="26.916528618826192" y2="83.200923034030637" />
    <line x1="56.48067365918736" y1="95.446792869713519" x2="71.262746179367952" y2="101.56972778755497" />
    <line x1="36.527160320535273" y1="65.220695765961409" x2="63.134187914216724" y2="82.998943222588665" />
    <line x1="72.088311754568565" y1="72.0883117545686" x2="83.402020253553331" y2="83.402020253553346" />
    <line x1="65.220695765961381" y1="36.5271603205353" x2="74.109819494275" y2="49.83067411737602" />
    <line x1="77.077988116189147" y1="12.134456098645615" x2="107.69266270539639" y2="86.044818699548543" />
    <line x1="102.71060651032261" y1="20.998330838064049" x2="105.83205166258067" y2="36.690895324515736" />
  </g>
  <path fill="none" stroke="#ff0000" stroke-width="2" stroke-linecap="square" stroke-linejoin="round" d="M 134.76205683954728,3.5778327993363774 L 133.97791971691078,11.539310612713948 A 112,112 0 0,1 175.79643452451174,24.224818392984233 L 168.25408673529577,38.335558622557912 A 96,96 0 0,1 197.20900352282274,62.098244720290026 L 209.57717077662653,51.947952173671695 A 112,112 0 0,1 230.17731760200741,90.488116147500222 L 214.86627223029205,95.132670983571614 A 96,96 0 0,1 214.86627223029205,150.86732901642836 L 199.5552268585767,146.22277418035696 A 80,80 0 0,0 202.61477813377576,130.84137122636486 L 186.69182250702062,129.27309698109187 A 64,64 0 0,0 176.2140551873629,87.443505086745461 L 162.91054139052216,96.3326288150591 A 48,48 0 0,0 149.66737118494092,83.08945860947783 L 140.77824745662727,96.392972406318549 A 32,32 0 1,0 110.75413016431713,152.56414504036118 L 113.81559762323785,145.17310878027089" />
  <type>Circular</type>
</svg>