<?xml version="1.0" encoding="utf-8" standalone="no"?>
<!DOCTYPE svg PUBLIC "-//W3C//DTD SVG 1.1//EN" "http://www.w3.org/Graphics/SVG/1.1/DTD/svg11.dtd"[]>
<svg width="244" height="244" version="1.1" xmlns="http://www.w3.org/2000/svg">
  <title>15 cells diameter theta maze</title>
  <g fill="none" stroke="#000000" stroke-width="2" stroke-linecap="square">
    <path d="M 106.02943725152286,139.97056274847714 A 24,24 0 1,1 123,147" />
    <path d="M 123,83 A 40,40 0 0,1 151.2842712474619,94.7157287525381" />
    <path d="M 159.95518130045147,107.6926627053964 A 40,40 0 0,1 163,123" />
    <path d="M 159.95518130045147,138.3073372946036 A 40,40 0 0,1 151.2842712474619,151.2842712474619" />
    <path d="M 138.3073372946036,159.95518130045147 A 40,40 0 0,1 94.7157287525381,151.2842712474619" />
    <path d="M 86.044818699548529,138.3073372946036 A 40,40 0 0,1 83,123.00000000000001" />
    <path d="M 86.044818699548529,107.6926627053964 A 40,40 0 0,1 107.69266270539639,86.044818699548543" />
    <path d="M 101.56972778755498,174.73725382063208 A 56,56 0 0,1 123,67" />
    <path d="M 144.43027221244503,71.262746179367952 A 56,56 0 0,1 174.73725382063205,101.56972778755497" />
    <path d="M 174.73725382063208,144.43027221244503 A 56,56 0 0,1 162.59797974644667,162.59797974644664" />
    <path d="M 144.43027221244503,174.73725382063205 A 56,56 0 0,1 123,179" />
    <path d="M 123,51 A 72,72 0 0,1 137.04650318516124,52.383459810967409" />
    <path d="M 163.00105677741135,63.134187914216739 A 72,72 0 0,1 182.86581208578326,82.998943222588636" />
    <path d="M 193.61654018903261,108.95349681483876 A 72,72 0 0,1 195,123" />
    <path d="M 193.61654018903261,137.04650318516124 A 72,72 0 0,1 189.51932634081265,150.55320713028647" />
    <path d="M 182.86581208578326,163.00105677741135 A 72,72 0 0,1 150.55320713028647,189.51932634081265" />
    <path d="M 137.04650318516127,193.61654018903261 A 72,72 0 0,1 123.00000000000001,195" />
    <path d="M 108.95349681483876,193.61654018903261 A 72,72 0 0,1 95.446792869713548,189.51932634081265" />
    <path d="M 72.0883117545686,173.91168824543144 A 72,72 0 0,1 63.134187914216739,163.00105677741135" />
    <path d="M 56.480673659187374,150.5532071302865 A 72,72 0 0,1 52.383459810967409,137.04650318516127" />
    <path d="M 52.383459810967409,108.95349681483876 A 72,72 0 0,1 63.134187914216724,82.998943222588665" />
    <path d="M 72.088311754568565,72.0883117545686 A 72,72 0 0,1 108.95349681483873,52.383459810967409" />
    <path d="M 89.323857951872043,41.698601139006783 A 88,88 0 0,1 123,35" />
    <path d="M 140.16794833741929,36.690895324515722 A 88,88 0 0,1 185.22539674441617,60.774603255583813" />
    <path d="M 204.30139886099323,89.3238579518721 A 88,88 0 0,1 209.30910467548426,105.83205166258071" />
    <path d="M 204.30139886099323,156.6761420481279 A 88,88 0 0,1 196.16932588262398,171.89018050572497" />
    <path d="M 185.22539674441617,185.22539674441617 A 88,88 0 0,1 171.89018050572497,196.16932588262398" />
    <path d="M 156.6761420481279,204.30139886099323 A 88,88 0 0,1 140.16794833741932,209.30910467548426" />
    <path d="M 123.00000000000001,211 A 88,88 0 0,1 74.10981949427503,196.16932588262398" />
    <path d="M 35,123.00000000000001 A 88,88 0 0,1 36.690895324515722,105.83205166258071" />
    <path d="M 41.698601139006769,89.323857951872071 A 88,88 0 0,1 49.830674117375992,74.10981949427503" />
    <path d="M 60.774603255583806,60.774603255583834 A 88,88 0 0,1 74.109819494275,49.83067411737602" />
    <path d="M 123,19 A 104,104 0 0,1 143.28939348967734,20.998330838064035" />
    <path d="M 196.53910524340094,49.46089475659906 A 104,104 0 0,1 219.08347138117381,162.79907696596933" />
    <path d="M 180.77930423403862,209.4728396794647 A 104,104 0 0,1 123.00000000000001,227" />
    <path d="M 83.20092303403068,219.08347138117381 A 104,104 0 0,1 65.220695765961409,209.47283967946473" />
    <path d="M 49.460894756599075,196.53910524340097 A 104,104 0 0,1 26.916528618826206,162.79907696596939" />
    <path d="M 19,123.00000000000001 A 104,104 0 0,1 20.998330838064035,102.71060651032266" />
    <path d="M 26.916528618826192,83.200923034030637 A 104,104 0 0,1 49.460894756599046,49.460894756599075" />
    <path d="M 146.41083864193539,5.3057663516123483 A 120,120 0 1,1 123,3" />
  </g>
  <g fill="none" stroke="#000000" stroke-width="2" stroke-linecap="butt">
    <line x1="123" y1="3" x2="123" y2="19" />
    <line x1="123" y1="35" x2="123" y2="83" />
    <line x1="162.79907696596933" y1="26.916528618826177" x2="144.43027221244503" y2="71.262746179367952" />
    <line x1="180.77930423403862" y1="36.5271603205353" x2="171.890180505725" y2="49.83067411737602" />
    <line x1="209.4728396794647" y1="65.220695765961352" x2="182.86581208578326" y2="82.998943222588636" />
    <line x1="204.30139886099323" y1="89.3238579518721" x2="174.73725382063205" y2="101.56972778755497" />
    <line x1="225.00166916193598" y1="102.71060651032265" x2="209.30910467548426" y2="105.83205166258071" />
    <line x1="211" y1="123" x2="147" y2="123" />
    <line x1="225.00166916193598" y1="143.28939348967734" x2="193.61654018903261" y2="137.04650318516124" />
    <line x1="233.86554390135441" y1="168.92201188381077" x2="219.08347138117381" y2="162.79907696596933" />
    <line x1="204.30139886099323" y1="156.6761420481279" x2="174.73725382063205" y2="144.43027221244503" />
    <line x1="209.47283967946473" y1="180.77930423403859" x2="196.16932588262398" y2="171.89018050572497" />
    <line x1="207.85281374238571" y1="207.85281374238571" x2="196.53910524340097" y2="196.53910524340094" />
    <line x1="162.59797974644667" y1="162.59797974644664" x2="151.2842712474619" y2="151.2842712474619" />
    <line x1="180.77930423403862" y1="209.4728396794647" x2="171.890180505725" y2="196.16932588262398" />
    <line x1="156.6761420481279" y1="204.30139886099323" x2="144.43027221244503" y2="174.73725382063205" />
    <line x1="123.00000000000001" y1="243" x2="123.00000000000001" y2="227" />
    <line x1="123.00000000000001" y1="211" x2="123" y2="163" />
    <line x1="102.71060651032265" y1="225.00166916193598" x2="105.83205166258071" y2="209.30910467548426" />
    <line x1="95.446792869713548" y1="189.51932634081265" x2="101.56972778755498" y2="174.73725382063208" />
    <line x1="56.33157203764776" y1="222.77635347630547" x2="65.2206957659614" y2="209.47283967946473" />
    <line x1="74.10981949427503" y1="196.16932588262398" x2="82.99894322258865" y2="182.86581208578326" />
    <line x1="49.46089475659906" y1="196.53910524340097" x2="60.774603255583827" y2="185.2253967444162" />
    <line x1="72.088311754568579" y1="173.91168824543144" x2="106.02943725152286" y2="139.97056274847714" />
    <line x1="49.83067411737602" y1="171.890180505725" x2="63.134187914216746" y2="163.00105677741135" />
    <line x1="12.134456098645615" y1="168.92201188381085" x2="56.480673659187374" y2="150.5532071302865" />
    <line x1="20.998330838064049" y1="143.28939348967737" x2="52.383459810967423" y2="137.04650318516127" />
    <line x1="3" y1="123.00000000000003" x2="19" y2="123.00000000000001" />
    <line x1="35" y1="123.00000000000001" x2="51" y2="123.00000000000001" />
    <line x1="83" y1="123.00000000000001" x2="99" y2="123" />
    <line x1="20.998330838064035" y1="102.71060651032266" x2="36.690895324515722" y2="105.83205166258071" />
    <line x1="41.698601139006783" y1="89.323857951872071" x2="56.48067365918736" y2="95.446792869713519" />
    <line x1="36.527160320535273" y1="65.220695765961409" x2="49.830674117376006" y2="74.10981949427503" />
    <line x1="49.460894756599046" y1="49.460894756599075" x2="72.088311754568565" y2="72.0883117545686" />
    <line x1="56.331572037647732" y1="23.223646523694569" x2="74.109819494275" y2="49.83067411737602" />
    <line x1="83.200923034030609" y1="26.916528618826206" x2="89.323857951872043" y2="41.698601139006783" />
    <line x1="95.446792869713491" y1="56.480673659187374" x2="107.69266270539639" y2="86.044818699548543" />
    <line x1="99.589161358064558" y1="5.3057663516123625" x2="102.71060651032261" y2="20.998330838064049" />
  </g>
  <path fill="none" stroke="#ff0000" stroke-width="2" stroke-linecap="square" stroke-linejoin="round" d="M 134.76205683954728,3.5778327993363774 L 133.97791971691078,11.539310612713948 A 112,112 0 0,1 155.51188385249978,15.822682397992608 L 150.86732901642839,31.133727769707946 A 96,96 0 0,0 132.40964547163782,27.462266239469102 L 130.84137122636486,43.385221866224242 A 80,80 0 0,1 146.222774180357,46.4447731414233 L 141.5782193442856,61.755818513138635 A 64,64 0 0,0 135.48578060903222,60.229742054193252 L 132.36433545677414,75.922306540644939 A 48,48 0 0,1 170.07769345935506,113.63566454322584 L 185.77025794580675,110.51421939096778 A 64,64 0 0,0 184.24418148686138,104.42178065571441 L 199.5552268585767,99.777225819643007 A 80,80 0 0,1 202.61477813377576,115.15862877363514 L 218.5377337605309,113.59035452836217 A 96,96 0 0,1 218.5377337605309,132.40964547163782 L 186.69182250702062,129.27309698109187 A 64,64 0 0,1 185.77025794580675,135.48578060903219 L 154.38512897290337,129.2428903045161 A 32,32 0 0,1 110.75413016431713,152.56414504036118 L 113.81559762323785,145.17310878027089" />
  <type>Circular</type>
</svg>