<?xml version="1.0" encoding="utf-8" standalone="no"?>
<!DOCTYPE svg PUBLIC "-//W3C//DTD SVG 1.1//EN" "http://www.w3.org/Graphics/SVG/1.1/DTD/svg11.dtd"[]>
<svg width="244" height="244" version="1.1" xmlns="http://www.w3.org/2000/svg">
  <title>15 cells diameter theta maze</title>
  <g fill="none" stroke="#000000" stroke-width="2" stroke-linecap="square">
    <path d="M 106.02943725152286,139.97056274847714 A 24,24 0 1,1 123,147" />
    <path d="M 123,83 A 40,40 0 0,1 138.3073372946036,86.044818699548529" />
    <path d="M 151.2842712474619,94.7157287525381 A 40,40 0 0,1 163,123" />
    <path d="M 151.2842712474619,151.2842712474619 A 40,40 0 0,1 83,123.00000000000001" />
    <path d="M 86.044818699548529,107.6926627053964 A 40,40 0 0,1 94.7157287525381,94.7157287525381" />
    <path d="M 71.262746179367952,144.43027221244506 A 56,56 0 0,1 123,67" />
    <path d="M 162.59797974644667,83.402020253553331 A 56,56 0 0,1 179,123" />
    <path d="M 123,179 A 56,56 0 0,1 83.402020253553346,162.59797974644667" />
    <path d="M 123,51 A 72,72 0 0,1 137.04650318516124,52.383459810967409" />
    <path d="M 163.00105677741135,63.134187914216739 A 72,72 0 0,1 189.51932634081265,95.446792869713533" />
    <path d="M 193.61654018903261,108.95349681483876 A 72,72 0 0,1 189.51932634081265,150.55320713028647" />
    <path d="M 173.91168824543144,173.91168824543141 A 72,72 0 0,1 163.00105677741135,182.86581208578326" />
    <path d="M 123.00000000000001,195 A 72,72 0 0,1 95.446792869713548,189.51932634081265" />
    <path d="M 82.998943222588665,182.86581208578326 A 72,72 0 0,1 72.0883117545686,173.91168824543144" />
    <path d="M 51,123.00000000000001 A 72,72 0 0,1 52.383459810967409,108.95349681483876" />
    <path d="M 56.48067365918736,95.446792869713519 A 72,72 0 0,1 108.95349681483873,52.383459810967409" />
    <path d="M 123,35 A 88,88 0 0,1 140.16794833741929,36.690895324515722" />
    <path d="M 204.30139886099323,89.3238579518721 A 88,88 0 0,1 185.22539674441617,185.22539674441617" />
    <path d="M 171.89018050572497,196.16932588262398 A 88,88 0 0,1 156.6761420481279,204.30139886099323" />
    <path d="M 123.00000000000001,211 A 88,88 0 0,1 41.698601139006783,156.67614204812796" />
    <path d="M 35,123.00000000000001 A 88,88 0 0,1 49.830674117375992,74.10981949427503" />
    <path d="M 89.323857951872043,41.698601139006783 A 88,88 0 0,1 105.83205166258067,36.690895324515722" />
    <path d="M 102.71060651032261,20.998330838064049 A 104,104 0 0,1 219.08347138117381,83.200923034030666" />
    <path d="M 225.00166916193598,102.71060651032266 A 104,104 0 0,1 225.00166916193598,143.28939348967734" />
    <path d="M 219.08347138117381,162.79907696596933 A 104,104 0 0,1 162.79907696596933,219.08347138117381" />
    <path d="M 102.71060651032265,225.00166916193598 A 104,104 0 0,1 83.20092303403068,219.08347138117381" />
    <path d="M 49.460894756599075,196.53910524340097 A 104,104 0 0,1 36.527160320535287,180.77930423403862" />
    <path d="M 19,123.00000000000001 A 104,104 0 0,1 20.998330838064035,102.71060651032266" />
    <path d="M 49.460894756599046,49.460894756599075 A 104,104 0 0,1 83.200923034030609,26.916528618826206" />
    <path d="M 146.41083864193539,5.3057663516123483 A 120,120 0 1,1 123,3" />
  </g>
  <g fill="none" stroke="#000000" stroke-width="2" stroke-linecap="butt">
    <line x1="123" y1="51" x2="123" y2="67" />
    <line x1="123" y1="83" x2="123" y2="99" />
    <line x1="140.16794833741929" y1="36.690895324515722" x2="137.04650318516124" y2="52.383459810967409" />
    <line x1="162.79907696596933" y1="26.916528618826177" x2="138.3073372946036" y2="86.044818699548529" />
    <line x1="171.890180505725" y1="49.83067411737602" x2="163.00105677741135" y2="63.134187914216746" />
    <line x1="185.22539674441617" y1="60.774603255583813" x2="173.91168824543144" y2="72.088311754568565" />
    <line x1="151.2842712474619" y1="94.7157287525381" x2="139.97056274847714" y2="106.02943725152286" />
    <line x1="196.16932588262398" y1="74.109819494275" x2="182.86581208578326" y2="82.998943222588636" />
    <line x1="219.08347138117381" y1="83.200923034030666" x2="189.51932634081265" y2="95.446792869713533" />
    <line x1="240.69423364838764" y1="99.5891613580646" x2="225.00166916193598" y2="102.71060651032265" />
    <line x1="179" y1="123" x2="163" y2="123" />
    <line x1="204.30139886099323" y1="156.6761420481279" x2="159.95518130045147" y2="138.3073372946036" />
    <line x1="209.47283967946473" y1="180.77930423403859" x2="182.86581208578326" y2="163.00105677741135" />
    <line x1="162.59797974644667" y1="162.59797974644664" x2="151.2842712474619" y2="151.2842712474619" />
    <line x1="180.77930423403862" y1="209.4728396794647" x2="163.00105677741135" y2="182.86581208578326" />
    <line x1="156.6761420481279" y1="204.30139886099323" x2="144.43027221244503" y2="174.73725382063205" />
    <line x1="146.41083864193544" y1="240.69423364838764" x2="137.04650318516127" y2="193.61654018903261" />
    <line x1="123.00000000000001" y1="227" x2="123.00000000000001" y2="195" />
    <line x1="123" y1="163" x2="123" y2="147" />
    <line x1="99.5891613580646" y1="240.69423364838764" x2="102.71060651032265" y2="225.00166916193598" />
    <line x1="95.446792869713548" y1="189.51932634081265" x2="101.56972778755498" y2="174.73725382063208" />
    <line x1="65.2206957659614" y1="209.47283967946473" x2="74.10981949427503" y2="196.16932588262398" />
    <line x1="72.088311754568579" y1="173.91168824543144" x2="94.7157287525381" y2="151.2842712474619" />
    <line x1="23.223646523694569" y1="189.66842796235227" x2="36.5271603205353" y2="180.77930423403862" />
    <line x1="49.83067411737602" y1="171.890180505725" x2="63.134187914216746" y2="163.00105677741135" />
    <line x1="26.916528618826206" y1="162.79907696596939" x2="56.480673659187374" y2="150.5532071302865" />
    <line x1="5.3057663516123625" y1="146.41083864193544" x2="52.383459810967423" y2="137.04650318516127" />
    <line x1="51" y1="123.00000000000001" x2="83" y2="123.00000000000001" />
    <line x1="5.3057663516123483" y1="99.5891613580646" x2="20.998330838064035" y2="102.71060651032266" />
    <line x1="36.690895324515722" y1="105.83205166258071" x2="52.383459810967409" y2="108.95349681483876" />
    <line x1="26.916528618826192" y1="83.200923034030637" x2="41.698601139006783" y2="89.323857951872071" />
    <line x1="23.223646523694541" y1="56.331572037647774" x2="49.830674117376006" y2="74.10981949427503" />
    <line x1="49.460894756599046" y1="49.460894756599075" x2="72.088311754568565" y2="72.0883117545686" />
    <line x1="94.7157287525381" y1="94.7157287525381" x2="106.02943725152286" y2="106.02943725152286" />
    <line x1="65.220695765961381" y1="36.5271603205353" x2="74.109819494275" y2="49.83067411737602" />
    <line x1="101.56972778755494" y1="71.262746179367952" x2="107.69266270539639" y2="86.044818699548543" />
    <line x1="102.71060651032261" y1="20.998330838064049" x2="108.95349681483873" y2="52.383459810967423" />
  </g>
  <path fill="none" stroke="#ff0000" stroke-width="2" stroke-linecap="square" stroke-linejoin="round" d="M 134.76205683954728,3.5778327993363774 L 133.97791971691078,11.539310612713948 A 112,112 0 0,0 36.422829223373469,51.947952173671695 L 61.159163730981049,72.248537266908357 A 80,80 0 0,0 46.444773141423283,99.777225819643036 L 61.755818513138628,104.42178065571443 A 64,64 0 0,1 116.72690301890813,59.3081774929794 L 113.59035452836218,27.462266239469102 A 96,96 0 0,1 150.86732901642839,31.133727769707946 L 141.5782193442856,61.755818513138635 A 64,64 0 0,0 135.48578060903222,60.229742054193252 L 132.36433545677414,75.922306540644939 A 48,48 0 0,0 113.63566454322583,75.922306540644939 L 116.75710969548388,91.614871027096626 A 32,32 0 0,0 105.22175254337273,96.392972406318549 L 96.3326288150591,83.08945860947783 A 48,48 0 0,0 75.922306540644939,113.63566454322584 L 91.614871027096626,116.75710969548389 A 32,32 0 0,0 110.75413016431713,152.56414504036118 L 113.81559762323785,145.17310878027089" />
  <type>Circular</type>
</svg>