<?xml version="1.0" encoding="utf-8" standalone="no"?>
<!DOCTYPE svg PUBLIC "-//W3C//DTD SVG 1.1//EN" "http://www.w3.org/Graphics/SVG/1.1/DTD/svg11.dtd"[]>
<svg width="244" height="244" version="1.1" xmlns="http://www.w3.org/2000/svg">
  <title>15 cells diameter theta maze</title>
  <g fill="none" stroke="#000000" stroke-width="2" stroke-linecap="square">
    <path d="M 106.02943725152286,139.97056274847714 A 24,24 0 1,1 123,147" />
    <path d="M 123,83 A 40,40 0 0,1 163,123" />
    <path d="M 159.95518130045147,138.3073372946036 A 40,40 0 0,1 151.2842712474619,151.2842712474619" />
    <path d="M 123,163 A 40,40 0 0,1 83,123.00000000000001" />
    <path d="M 86.044818699548529,107.6926627053964 A 40,40 0 0,1 107.69266270539639,86.044818699548543" />
    <path d="M 101.56972778755494,71.262746179367952 A 56,56 0 0,1 144.43027221244503,71.262746179367952" />
    <path d="M 162.59797974644667,83.402020253553331 A 56,56 0 0,1 174.73725382063205,101.56972778755497" />
    <path d="M 162.59797974644667,162.59797974644664 A 56,56 0 0,1 101.56972778755498,174.73725382063208" />
    <path d="M 67,123.00000000000001 A 56,56 0 0,1 83.402020253553331,83.402020253553346" />
    <path d="M 108.95349681483873,52.383459810967409 A 72,72 0 0,1 137.04650318516124,52.383459810967409" />
    <path d="M 150.55320713028647,56.48067365918736 A 72,72 0 0,1 182.86581208578326,82.998943222588636" />
    <path d="M 189.51932634081265,95.446792869713533 A 72,72 0 0,1 195,123" />
    <path d="M 193.61654018903261,137.04650318516124 A 72,72 0 0,1 173.91168824543144,173.91168824543141" />
    <path d="M 163.00105677741135,182.86581208578326 A 72,72 0 0,1 108.95349681483876,193.61654018903261" />
    <path d="M 95.446792869713548,189.51932634081265 A 72,72 0 0,1 72.0883117545686,173.91168824543144" />
    <path d="M 63.134187914216739,163.00105677741135 A 72,72 0 0,1 51,123.00000000000001" />
    <path d="M 52.383459810967409,108.95349681483876 A 72,72 0 0,1 63.134187914216724,82.998943222588665" />
    <path d="M 72.088311754568565,72.0883117545686 A 72,72 0 0,1 95.446792869713491,56.480673659187374" />
    <path d="M 123,35 A 88,88 0 0,1 171.890180505725,49.83067411737602" />
    <path d="M 196.16932588262398,74.109819494275 A 88,88 0 0,1 209.30910467548426,105.83205166258071" />
    <path d="M 211,123 A 88,88 0 0,1 204.30139886099323,156.6761420481279" />
    <path d="M 196.16932588262398,171.89018050572497 A 88,88 0 0,1 185.22539674441617,185.22539674441617" />
    <path d="M 171.89018050572497,196.16932588262398 A 88,88 0 0,1 156.6761420481279,204.30139886099323" />
    <path d="M 140.16794833741932,209.30910467548426 A 88,88 0 0,1 123.00000000000001,211" />
    <path d="M 74.10981949427503,196.16932588262398 A 88,88 0 0,1 60.774603255583827,185.2253967444162" />
    <path d="M 49.83067411737602,171.890180505725 A 88,88 0 0,1 36.690895324515722,140.16794833741932" />
    <path d="M 49.830674117375992,74.10981949427503 A 88,88 0 0,1 60.774603255583806,60.774603255583834" />
    <path d="M 89.323857951872043,41.698601139006783 A 88,88 0 0,1 105.83205166258067,36.690895324515722" />
    <path d="M 83.200923034030609,26.916528618826206 A 104,104 0 0,1 143.28939348967734,20.998330838064035" />
    <path d="M 180.77930423403862,36.527160320535287 A 104,104 0 0,1 219.08347138117381,83.200923034030666" />
    <path d="M 227,123 A 104,104 0 0,1 209.47283967946473,180.77930423403859" />
    <path d="M 180.77930423403862,209.4728396794647 A 104,104 0 0,1 143.28939348967737,225.00166916193598" />
    <path d="M 102.71060651032265,225.00166916193598 A 104,104 0 0,1 83.20092303403068,219.08347138117381" />
    <path d="M 36.527160320535287,180.77930423403862 A 104,104 0 0,1 26.916528618826206,162.79907696596939" />
    <path d="M 20.998330838064035,143.28939348967737 A 104,104 0 0,1 20.998330838064035,102.71060651032266" />
    <path d="M 36.527160320535273,65.220695765961409 A 104,104 0 0,1 49.460894756599046,49.460894756599075" />
    <path d="M 146.41083864193539,5.3057663516123483 A 120,120 0 1,1 123,3" />
  </g>
  <g fill="none" stroke="#000000" stroke-width="2" stroke-linecap="butt">
    <line x1="123" y1="51" x2="123" y2="83" />
    <line x1="168.92201188381077" y1="12.134456098645586" x2="162.79907696596933" y2="26.916528618826177" />
    <line x1="156.6761420481279" y1="41.698601139006769" x2="144.43027221244503" y2="71.262746179367952" />
    <line x1="196.53910524340094" y1="49.460894756599046" x2="185.22539674441617" y2="60.774603255583813" />
    <line x1="196.16932588262398" y1="74.109819494275" x2="182.86581208578326" y2="82.998943222588636" />
    <line x1="233.86554390135441" y1="77.077988116189218" x2="219.08347138117381" y2="83.200923034030666" />
    <line x1="189.51932634081265" y1="95.446792869713533" x2="174.73725382063205" y2="101.56972778755497" />
    <line x1="225.00166916193598" y1="102.71060651032265" x2="209.30910467548426" y2="105.83205166258071" />
    <line x1="243" y1="122.99999999999999" x2="227" y2="123" />
    <line x1="211" y1="123" x2="195" y2="123" />
    <line x1="179" y1="123" x2="163" y2="123" />
    <line x1="225.00166916193598" y1="143.28939348967734" x2="209.30910467548426" y2="140.16794833741929" />
    <line x1="204.30139886099323" y1="156.6761420481279" x2="159.95518130045147" y2="138.3073372946036" />
    <line x1="196.53910524340097" y1="196.53910524340094" x2="173.91168824543144" y2="173.91168824543144" />
    <line x1="162.79907696596933" y1="219.08347138117381" x2="150.55320713028647" y2="189.51932634081265" />
    <line x1="144.43027221244503" y1="174.73725382063205" x2="138.3073372946036" y2="159.95518130045147" />
    <line x1="143.28939348967737" y1="225.00166916193598" x2="140.16794833741932" y2="209.30910467548426" />
    <line x1="123.00000000000001" y1="243" x2="123.00000000000001" y2="227" />
    <line x1="123" y1="163" x2="123" y2="147" />
    <line x1="102.71060651032265" y1="225.00166916193598" x2="108.95349681483876" y2="193.61654018903261" />
    <line x1="77.077988116189232" y1="233.86554390135444" x2="89.3238579518721" y2="204.30139886099323" />
    <line x1="95.446792869713548" y1="189.51932634081265" x2="101.56972778755498" y2="174.73725382063208" />
    <line x1="56.33157203764776" y1="222.77635347630547" x2="74.10981949427503" y2="196.16932588262398" />
    <line x1="38.147186257614308" y1="207.85281374238571" x2="49.46089475659906" y2="196.53910524340097" />
    <line x1="60.774603255583827" y1="185.2253967444162" x2="83.402020253553346" y2="162.59797974644667" />
    <line x1="36.5271603205353" y1="180.77930423403862" x2="63.134187914216746" y2="163.00105677741135" />
    <line x1="12.134456098645615" y1="168.92201188381085" x2="26.916528618826206" y2="162.79907696596939" />
    <line x1="56.480673659187374" y1="150.5532071302865" x2="71.262746179367952" y2="144.43027221244506" />
    <line x1="19" y1="123.00000000000001" x2="51" y2="123.00000000000001" />
    <line x1="67" y1="123.00000000000001" x2="83" y2="123.00000000000001" />
    <line x1="36.690895324515722" y1="105.83205166258071" x2="52.383459810967409" y2="108.95349681483876" />
    <line x1="12.1344560986456" y1="77.0779881161892" x2="26.916528618826192" y2="83.200923034030637" />
    <line x1="41.698601139006783" y1="89.323857951872071" x2="71.262746179367952" y2="101.56972778755497" />
    <line x1="36.527160320535273" y1="65.220695765961409" x2="63.134187914216724" y2="82.998943222588665" />
    <line x1="72.088311754568565" y1="72.0883117545686" x2="83.402020253553331" y2="83.402020253553346" />
    <line x1="94.7157287525381" y1="94.7157287525381" x2="106.02943725152286" y2="106.02943725152286" />
    <line x1="65.220695765961381" y1="36.5271603205353" x2="82.99894322258865" y2="63.134187914216746" />
    <line x1="77.077988116189147" y1="12.134456098645615" x2="83.200923034030609" y2="26.916528618826206" />
    <line x1="101.56972778755494" y1="71.262746179367952" x2="107.69266270539639" y2="86.044818699548543" />
    <line x1="102.71060651032261" y1="20.998330838064049" x2="108.95349681483873" y2="52.383459810967423" />
  </g>
  <path fill="none" stroke="#ff0000" stroke-width="2" stroke-linecap="square" stroke-linejoin="round" d="M 134.76205683954728,3.5778327993363774 L 133.97791971691078,11.539310612713948 A 112,112 0 0,1 155.51188385249978,15.822682397992608 L 150.86732901642839,31.133727769707946 A 96,96 0 0,1 183.90175527970996,48.790996477177245 L 173.75146273309164,61.159163730981042 A 80,80 0 0,1 184.84083626901895,72.248537266908357 L 197.20900352282274,62.098244720290026 A 96,96 0 0,1 214.86627223029205,95.132670983571614 L 230.17731760200741,90.488116147500222 A 112,112 0 0,1 234.46068938728604,112.0220802830892 L 202.61477813377576,115.15862877363514 A 80,80 0 0,0 193.5537011478684,85.288261053920181 L 179.44296091829472,92.830608843136133 A 64,64 0 0,0 158.55649491325454,69.7859448126371 L 149.66737118494092,83.08945860947783 A 48,48 0 0,1 170.07769345935506,113.63566454322584 L 185.77025794580675,110.51421939096778 A 64,64 0 0,1 185.77025794580675,135.48578060903219 L 154.38512897290337,129.2428903045161 A 32,32 0 0,1 129.24289030451612,154.38512897290337 L 132.36433545677417,170.07769345935506 A 48,48 0 0,1 75.922306540644939,132.36433545677417 L 60.22974205419326,135.48578060903225 A 64,64 0 0,1 59.3081774929794,116.72690301890816 L 27.462266239469088,113.59035452836223 A 96,96 0 0,1 38.335558622557912,77.745913264704228 L 24.224818392984233,70.203565475488276 A 112,112 0 0,1 70.203565475488233,24.224818392984261 L 85.288261053920166,52.446298852131605 A 80,80 0 0,1 99.777225819643007,46.4447731414233 L 104.4217806557144,61.755818513138635 A 64,64 0 0,0 87.443505086745461,69.7859448126371 L 96.3326288150591,83.08945860947783 A 48,48 0 0,0 75.922306540644939,113.63566454322584 L 91.614871027096626,116.75710969548389 A 32,32 0 0,0 110.75413016431713,152.56414504036118 L 113.81559762323785,145.17310878027089" />
  <type>Circular</type>
</svg>