<?xml version="1.0" encoding="utf-8" standalone="no"?>
<!DOCTYPE svg PUBLIC "-//W3C//DTD SVG 1.1//EN" "http://www.w3.org/Graphics/SVG/1.1/DTD/svg11.dtd"[]>
<svg width="244" height="244" version="1.1" xmlns="http://www.w3.org/2000/svg">
  <title>15 cells diameter theta maze</title>
  <g fill="none" stroke="#000000" stroke-width="2" stroke-linecap="square">
    <path d="M 106.02943725152286,139.97056274847714 A 24,24 0 1,1 123,147" />
    <path d="M 83,123.00000000000001 A 40,40 0 0,1 123,83" />
    <path d="M 138.3073372946036,86.044818699548529 A 40,40 0 0,1 151.2842712474619,151.2842712474619" />
    <path d="M 107.69266270539642,159.95518130045147 A 40,40 0 0,1 86.044818699548529,138.3073372946036" />
    <path d="M 123,67 A 56,56 0 0,1 162.59797974644667,83.402020253553331" />
    <path d="M 179,123 A 56,56 0 0,1 162.59797974644667,162.59797974644664" />
    <path d="M 83.402020253553346,162.59797974644667 A 56,56 0 0,1 71.262746179367952,101.56972778755497" />
    <path d="M 83.402020253553331,83.402020253553346 A 56,56 0 0,1 101.56972778755494,71.262746179367952" />
    <path d="M 123,51 A 72,72 0 0,1 150.55320713028647,56.48067365918736" />
    <path d="M 163.00105677741135,63.134187914216739 A 72,72 0 0,1 189.51932634081265,95.446792869713533" />
    <path d="M 193.61654018903261,108.95349681483876 A 72,72 0 0,1 189.51932634081265,150.55320713028647" />
    <path d="M 182.86581208578326,163.00105677741135 A 72,72 0 0,1 173.91168824543144,173.91168824543141" />
    <path d="M 163.00105677741135,182.86581208578326 A 72,72 0 0,1 108.95349681483876,193.61654018903261" />
    <path d="M 82.998943222588665,182.86581208578326 A 72,72 0 0,1 63.134187914216739,163.00105677741135" />
    <path d="M 56.480673659187374,150.5532071302865 A 72,72 0 0,1 52.383459810967409,108.95349681483876" />
    <path d="M 63.134187914216724,82.998943222588665 A 72,72 0 0,1 72.088311754568565,72.0883117545686" />
    <path d="M 82.99894322258865,63.134187914216746 A 72,72 0 0,1 95.446792869713491,56.480673659187374" />
    <path d="M 105.83205166258067,36.690895324515722 A 88,88 0 0,1 185.22539674441617,60.774603255583813" />
    <path d="M 204.30139886099323,89.3238579518721 A 88,88 0 0,1 209.30910467548426,105.83205166258071" />
    <path d="M 211,123 A 88,88 0 0,1 209.30910467548426,140.16794833741929" />
    <path d="M 196.16932588262398,171.89018050572497 A 88,88 0 0,1 171.89018050572497,196.16932588262398" />
    <path d="M 140.16794833741932,209.30910467548426 A 88,88 0 0,1 123.00000000000001,211" />
    <path d="M 60.774603255583827,185.2253967444162 A 88,88 0 0,1 41.698601139006783,156.67614204812796" />
    <path d="M 35,123.00000000000001 A 88,88 0 0,1 49.830674117375992,74.10981949427503" />
    <path d="M 60.774603255583806,60.774603255583834 A 88,88 0 0,1 89.323857951872043,41.698601139006783" />
    <path d="M 143.28939348967734,20.998330838064035 A 104,104 0 0,1 162.79907696596933,26.916528618826177" />
    <path d="M 196.53910524340094,49.46089475659906 A 104,104 0 0,1 219.08347138117381,83.200923034030666" />
    <path d="M 225.00166916193598,102.71060651032266 A 104,104 0 0,1 227,123" />
    <path d="M 219.08347138117381,162.79907696596933 A 104,104 0 0,1 123.00000000000001,227" />
    <path d="M 83.20092303403068,219.08347138117381 A 104,104 0 0,1 65.220695765961409,209.47283967946473" />
    <path d="M 36.527160320535287,180.77930423403862 A 104,104 0 0,1 26.916528618826206,162.79907696596939" />
    <path d="M 20.998330838064035,143.28939348967737 A 104,104 0 0,1 26.916528618826192,83.200923034030637" />
    <path d="M 36.527160320535273,65.220695765961409 A 104,104 0 0,1 65.220695765961366,36.5271603205353" />
    <path d="M 83.200923034030609,26.916528618826206 A 104,104 0 0,1 102.71060651032261,20.998330838064049" />
    <path d="M 146.41083864193539,5.3057663516123483 A 120,120 0 1,1 123,3" />
  </g>
  <g fill="none" stroke="#000000" stroke-width="2" stroke-linecap="butt">
    <line x1="123" y1="19" x2="123" y2="35" />
    <line x1="123" y1="51" x2="123" y2="83" />
    <line x1="168.92201188381077" y1="12.134456098645586" x2="162.79907696596933" y2="26.916528618826177" />
    <line x1="180.77930423403862" y1="36.5271603205353" x2="163.00105677741135" y2="63.134187914216746" />
    <line x1="196.53910524340094" y1="49.460894756599046" x2="185.22539674441617" y2="60.774603255583813" />
    <line x1="151.2842712474619" y1="94.7157287525381" x2="139.97056274847714" y2="106.02943725152286" />
    <line x1="196.16932588262398" y1="74.109819494275" x2="182.86581208578326" y2="82.998943222588636" />
    <line x1="219.08347138117381" y1="83.200923034030666" x2="204.30139886099323" y2="89.3238579518721" />
    <line x1="189.51932634081265" y1="95.446792869713533" x2="159.95518130045147" y2="107.6926627053964" />
    <line x1="225.00166916193598" y1="102.71060651032265" x2="209.30910467548426" y2="105.83205166258071" />
    <line x1="227" y1="123" x2="211" y2="123" />
    <line x1="195" y1="123" x2="179" y2="123" />
    <line x1="225.00166916193598" y1="143.28939348967734" x2="209.30910467548426" y2="140.16794833741929" />
    <line x1="233.86554390135441" y1="168.92201188381077" x2="189.51932634081265" y2="150.55320713028647" />
    <line x1="173.91168824543144" y1="173.91168824543144" x2="162.59797974644667" y2="162.59797974644664" />
    <line x1="171.890180505725" y1="196.16932588262398" x2="163.00105677741135" y2="182.86581208578326" />
    <line x1="156.6761420481279" y1="204.30139886099323" x2="138.3073372946036" y2="159.95518130045147" />
    <line x1="140.16794833741932" y1="209.30910467548426" x2="137.04650318516127" y2="193.61654018903261" />
    <line x1="123.00000000000001" y1="195" x2="123" y2="147" />
    <line x1="99.5891613580646" y1="240.69423364838764" x2="108.95349681483876" y2="193.61654018903261" />
    <line x1="83.200923034030666" y1="219.08347138117384" x2="107.69266270539642" y2="159.95518130045147" />
    <line x1="65.2206957659614" y1="209.47283967946473" x2="82.99894322258865" y2="182.86581208578326" />
    <line x1="38.147186257614308" y1="207.85281374238571" x2="60.774603255583827" y2="185.2253967444162" />
    <line x1="72.088311754568579" y1="173.91168824543144" x2="83.402020253553346" y2="162.59797974644667" />
    <line x1="94.7157287525381" y1="151.2842712474619" x2="106.02943725152286" y2="139.97056274847714" />
    <line x1="26.916528618826206" y1="162.79907696596939" x2="56.480673659187374" y2="150.5532071302865" />
    <line x1="36.690895324515736" y1="140.16794833741932" x2="52.383459810967423" y2="137.04650318516127" />
    <line x1="19" y1="123.00000000000001" x2="35" y2="123.00000000000001" />
    <line x1="41.698601139006783" y1="89.323857951872071" x2="71.262746179367952" y2="101.56972778755497" />
    <line x1="23.223646523694541" y1="56.331572037647774" x2="36.527160320535273" y2="65.220695765961409" />
    <line x1="49.830674117376006" y1="74.10981949427503" x2="63.134187914216724" y2="82.998943222588665" />
    <line x1="49.460894756599046" y1="49.460894756599075" x2="60.774603255583806" y2="60.774603255583834" />
    <line x1="83.402020253553331" y1="83.402020253553346" x2="94.7157287525381" y2="94.7157287525381" />
    <line x1="74.109819494275" y1="49.83067411737602" x2="82.99894322258865" y2="63.134187914216746" />
    <line x1="83.200923034030609" y1="26.916528618826206" x2="89.323857951872043" y2="41.698601139006783" />
    <line x1="95.446792869713491" y1="56.480673659187374" x2="101.56972778755494" y2="71.262746179367952" />
    <line x1="105.83205166258067" y1="36.690895324515736" x2="108.95349681483873" y2="52.383459810967423" />
  </g>
  <path fill="none" stroke="#ff0000" stroke-width="2" stroke-linecap="square" stroke-linejoin="round" d="M 134.76205683954728,3.5778327993363774 L 133.97791971691078,11.539310612713948 A 112,112 0 0,0 112.02208028308922,11.539310612713948 L 113.59035452836218,27.462266239469102 A 96,96 0 0,0 95.1326709835716,31.133727769707946 L 104.4217806557144,61.755818513138635 A 64,64 0 0,1 116.72690301890813,59.3081774929794 L 115.15862877363516,43.385221866224242 A 80,80 0 0,1 160.71173894607981,52.446298852131591 L 153.16939115686384,66.557039081705284 A 64,64 0 0,1 176.2140551873629,87.443505086745461 L 162.91054139052216,96.3326288150591 A 48,48 0 0,0 132.36433545677414,75.922306540644939 L 129.2428903045161,91.614871027096626 A 32,32 0 0,0 91.614871027096626,129.24289030451612 L 75.922306540644939,132.36433545677417 A 48,48 0 0,1 83.089458609477816,96.33262881505911 L 69.7859448126371,87.443505086745489 A 64,64 0 0,1 82.39882981352666,73.527330984784854 L 72.248537266908329,61.159163730981071 A 80,80 0 0,0 61.159163730981049,72.248537266908357 L 48.790996477177259,62.098244720290026 A 96,96 0 0,0 38.335558622557912,77.745913264704228 L 24.224818392984233,70.203565475488276 A 112,112 0 0,0 15.822682397992608,155.51188385249981 L 31.133727769707946,150.86732901642839 A 96,96 0 0,1 27.462266239469102,132.40964547163782 L 43.385221866224242,130.84137122636483 A 80,80 0 0,1 46.444773141423283,99.777225819643036 L 61.755818513138628,104.42178065571443 A 64,64 0 0,0 66.557039081705284,153.16939115686387 L 52.446298852131605,160.71173894607983 A 80,80 0 0,0 72.248537266908386,184.84083626901898 L 51.947952173671723,209.57717077662656 A 112,112 0 0,0 90.48811614750025,230.17731760200741 L 104.42178065571443,184.24418148686138 A 64,64 0 0,0 110.51421939096778,185.77025794580675 L 116.75710969548389,154.38512897290337 A 32,32 0 0,1 110.75413016431713,152.56414504036118 L 113.81559762323785,145.17310878027089" />
  <type>Circular</type>
</svg>