<?xml version="1.0" encoding="utf-8" standalone="no"?>
<!DOCTYPE svg PUBLIC "-//W3C//DTD SVG 1.1//EN" "http://www.w3.org/Graphics/SVG/1.1/DTD/svg11.dtd"[]>
<svg width="244" height="244" version="1.1" xmlns="http://www.w3.org/2000/svg">
  <title>15 cells diameter theta maze</title>
  <g fill="none" stroke="#000000" stroke-width="2" stroke-linecap="square">
    <path d="M 106.02943725152286,139.97056274847714 A 24,24 0 1,1 123,147" />
    <path d="M 83,123.00000000000001 A 40,40 0 0,1 138.3073372946036,86.044818699548529" />
    <path d="M 151.2842712474619,94.7157287525381 A 40,40 0 0,1 163,123" />
    <path d="M 159.95518130045147,138.3073372946036 A 40,40 0 0,1 138.3073372946036,159.95518130045147" />
    <path d="M 123,163 A 40,40 0 0,1 107.69266270539642,159.95518130045147" />
    <path d="M 94.7157287525381,151.2842712474619 A 40,40 0 0,1 86.044818699548529,138.3073372946036" />
    <path d="M 83.402020253553331,83.402020253553346 A 56,56 0 0,1 123,67" />
    <path d="M 162.59797974644667,83.402020253553331 A 56,56 0 0,1 179,123" />
    <path d="M 162.59797974644667,162.59797974644664 A 56,56 0 0,1 123,179" />
    <path d="M 101.56972778755498,174.73725382063208 A 56,56 0 0,1 83.402020253553346,162.59797974644667" />
    <path d="M 67,123.00000000000001 A 56,56 0 0,1 71.262746179367952,101.56972778755497" />
    <path d="M 108.95349681483873,52.383459810967409 A 72,72 0 0,1 182.86581208578326,82.998943222588636" />
    <path d="M 189.51932634081265,95.446792869713533 A 72,72 0 0,1 193.61654018903261,137.04650318516124" />
    <path d="M 189.51932634081265,150.55320713028647 A 72,72 0 0,1 182.86581208578326,163.00105677741135" />
    <path d="M 163.00105677741135,182.86581208578326 A 72,72 0 0,1 137.04650318516127,193.61654018903261" />
    <path d="M 108.95349681483876,193.61654018903261 A 72,72 0 0,1 95.446792869713548,189.51932634081265" />
    <path d="M 72.0883117545686,173.91168824543144 A 72,72 0 0,1 63.134187914216739,163.00105677741135" />
    <path d="M 56.480673659187374,150.5532071302865 A 72,72 0 0,1 82.99894322258865,63.134187914216746" />
    <path d="M 140.16794833741929,36.690895324515722 A 88,88 0 0,1 204.30139886099323,89.3238579518721" />
    <path d="M 209.30910467548426,105.83205166258071 A 88,88 0 0,1 204.30139886099323,156.6761420481279" />
    <path d="M 185.22539674441617,185.22539674441617 A 88,88 0 0,1 171.89018050572497,196.16932588262398" />
    <path d="M 156.6761420481279,204.30139886099323 A 88,88 0 0,1 140.16794833741932,209.30910467548426" />
    <path d="M 123.00000000000001,211 A 88,88 0 0,1 89.323857951872114,204.30139886099323" />
    <path d="M 41.698601139006783,156.67614204812796 A 88,88 0 0,1 35,123.00000000000001" />
    <path d="M 36.690895324515722,105.83205166258071 A 88,88 0 0,1 60.774603255583806,60.774603255583834" />
    <path d="M 74.109819494275,49.83067411737602 A 88,88 0 0,1 105.83205166258067,36.690895324515722" />
    <path d="M 83.200923034030609,26.916528618826206 A 104,104 0 0,1 123,19" />
    <path d="M 162.79907696596933,26.916528618826177 A 104,104 0 0,1 225.00166916193598,102.71060651032266" />
    <path d="M 227,123 A 104,104 0 0,1 225.00166916193598,143.28939348967734" />
    <path d="M 180.77930423403862,209.4728396794647 A 104,104 0 0,1 162.79907696596933,219.08347138117381" />
    <path d="M 143.28939348967737,225.00166916193598 A 104,104 0 0,1 83.20092303403068,219.08347138117381" />
    <path d="M 65.220695765961409,209.47283967946473 A 104,104 0 0,1 49.460894756599075,196.53910524340097" />
    <path d="M 26.916528618826206,162.79907696596939 A 104,104 0 0,1 49.460894756599046,49.460894756599075" />
    <path d="M 146.41083864193539,5.3057663516123483 A 120,120 0 1,1 123,3" />
  </g>
  <g fill="none" stroke="#000000" stroke-width="2" stroke-linecap="butt">
    <line x1="123" y1="19" x2="123" y2="51" />
    <line x1="123" y1="83" x2="123" y2="99" />
    <line x1="146.41083864193539" y1="5.3057663516123483" x2="140.16794833741929" y2="36.690895324515722" />
    <line x1="168.92201188381077" y1="12.134456098645586" x2="162.79907696596933" y2="26.916528618826177" />
    <line x1="150.55320713028647" y1="56.48067365918736" x2="138.3073372946036" y2="86.044818699548529" />
    <line x1="204.30139886099323" y1="89.3238579518721" x2="174.73725382063205" y2="101.56972778755497" />
    <line x1="225.00166916193598" y1="102.71060651032265" x2="209.30910467548426" y2="105.83205166258071" />
    <line x1="243" y1="122.99999999999999" x2="227" y2="123" />
    <line x1="163" y1="123" x2="147" y2="123" />
    <line x1="219.08347138117381" y1="162.79907696596933" x2="204.30139886099323" y2="156.6761420481279" />
    <line x1="189.51932634081265" y1="150.55320713028647" x2="159.95518130045147" y2="138.3073372946036" />
    <line x1="209.47283967946473" y1="180.77930423403859" x2="182.86581208578326" y2="163.00105677741135" />
    <line x1="207.85281374238571" y1="207.85281374238571" x2="151.2842712474619" y2="151.2842712474619" />
    <line x1="171.890180505725" y1="196.16932588262398" x2="163.00105677741135" y2="182.86581208578326" />
    <line x1="162.79907696596933" y1="219.08347138117381" x2="156.6761420481279" y2="204.30139886099323" />
    <line x1="140.16794833741932" y1="209.30910467548426" x2="137.04650318516127" y2="193.61654018903261" />
    <line x1="123.00000000000001" y1="211" x2="123" y2="179" />
    <line x1="123" y1="163" x2="123" y2="147" />
    <line x1="83.200923034030666" y1="219.08347138117384" x2="95.446792869713548" y2="189.51932634081265" />
    <line x1="56.33157203764776" y1="222.77635347630547" x2="82.99894322258865" y2="182.86581208578326" />
    <line x1="60.774603255583827" y1="185.2253967444162" x2="72.088311754568579" y2="173.91168824543144" />
    <line x1="83.402020253553346" y1="162.59797974644667" x2="106.02943725152286" y2="139.97056274847714" />
    <line x1="23.223646523694569" y1="189.66842796235227" x2="63.134187914216746" y2="163.00105677741135" />
    <line x1="26.916528618826206" y1="162.79907696596939" x2="41.698601139006783" y2="156.67614204812796" />
    <line x1="56.480673659187374" y1="150.5532071302865" x2="71.262746179367952" y2="144.43027221244506" />
    <line x1="67" y1="123.00000000000001" x2="83" y2="123.00000000000001" />
    <line x1="5.3057663516123483" y1="99.5891613580646" x2="36.690895324515722" y2="105.83205166258071" />
    <line x1="60.774603255583806" y1="60.774603255583834" x2="72.088311754568565" y2="72.0883117545686" />
    <line x1="56.331572037647732" y1="23.223646523694569" x2="74.109819494275" y2="49.83067411737602" />
    <line x1="89.323857951872043" y1="41.698601139006783" x2="107.69266270539639" y2="86.044818699548543" />
  </g>
  <path fill="none" stroke="#ff0000" stroke-width="2" stroke-linecap="square" stroke-linejoin="round" d="M 134.76205683954728,3.5778327993363774 L 130.84137122636486,43.385221866224242 A 80,80 0 0,1 193.5537011478684,85.288261053920181 L 179.44296091829472,92.830608843136133 A 64,64 0 0,0 158.55649491325454,69.7859448126371 L 149.66737118494092,83.08945860947783 A 48,48 0 0,1 170.07769345935506,132.36433545677414 L 154.38512897290337,129.2428903045161 A 32,32 0 0,1 129.24289030451612,154.38512897290337 L 132.36433545677417,170.07769345935506 A 48,48 0 0,1 96.33262881505911,162.91054139052218 L 105.22175254337273,149.60702759368147 A 32,32 0 0,0 110.75413016431713,152.56414504036118 L 113.81559762323785,145.17310878027089" />
  <type>Circular</type>
</svg>