<?xml version="1.0" encoding="utf-8" standalone="no"?>
<!DOCTYPE svg PUBLIC "-//W3C//DTD SVG 1.1//EN" "http://www.w3.org/Graphics/SVG/1.1/DTD/svg11.dtd"[]>
<svg width="244" height="244" version="1.1" xmlns="http://www.w3.org/2000/svg">
  <title>15 cells diameter theta maze</title>
  <g fill="none" stroke="#000000" stroke-width="2" stroke-linecap="square">
    <path d="M 106.02943725152286,139.97056274847714 A 24,24 0 1,1 123,147" />
    <path d="M 86.044818699548529,138.3073372946036 A 40,40 0 0,1 123,83" />
    <path d="M 138.3073372946036,86.044818699548529 A 40,40 0 0,1 163,123" />
    <path d="M 159.95518130045147,138.3073372946036 A 40,40 0 0,1 151.2842712474619,151.2842712474619" />
    <path d="M 123,163 A 40,40 0 0,1 94.7157287525381,151.2842712474619" />
    <path d="M 71.262746179367952,101.56972778755497 A 56,56 0 0,1 123,67" />
    <path d="M 162.59797974644667,83.402020253553331 A 56,56 0 0,1 174.73725382063208,144.43027221244503" />
    <path d="M 162.59797974644667,162.59797974644664 A 56,56 0 0,1 123,179" />
    <path d="M 83.402020253553346,162.59797974644667 A 56,56 0 0,1 71.262746179367952,144.43027221244506" />
    <path d="M 108.95349681483873,52.383459810967409 A 72,72 0 0,1 123,51" />
    <path d="M 137.04650318516124,52.383459810967409 A 72,72 0 0,1 163.00105677741135,63.134187914216739" />
    <path d="M 173.91168824543144,72.088311754568579 A 72,72 0 0,1 182.86581208578326,82.998943222588636" />
    <path d="M 189.51932634081265,95.446792869713533 A 72,72 0 0,1 193.61654018903261,108.95349681483876" />
    <path d="M 189.51932634081265,150.55320713028647 A 72,72 0 0,1 173.91168824543144,173.91168824543141" />
    <path d="M 150.55320713028647,189.51932634081265 A 72,72 0 0,1 82.998943222588665,182.86581208578326" />
    <path d="M 56.480673659187374,150.5532071302865 A 72,72 0 0,1 52.383459810967409,137.04650318516127" />
    <path d="M 51,123.00000000000001 A 72,72 0 0,1 52.383459810967409,108.95349681483876" />
    <path d="M 63.134187914216724,82.998943222588665 A 72,72 0 0,1 95.446792869713491,56.480673659187374" />
    <path d="M 105.83205166258067,36.690895324515722 A 88,88 0 0,1 156.6761420481279,41.698601139006769" />
    <path d="M 185.22539674441617,60.774603255583813 A 88,88 0 0,1 196.16932588262398,74.109819494275" />
    <path d="M 209.30910467548426,105.83205166258071 A 88,88 0 0,1 209.30910467548426,140.16794833741929" />
    <path d="M 204.30139886099323,156.6761420481279 A 88,88 0 0,1 196.16932588262398,171.89018050572497" />
    <path d="M 185.22539674441617,185.22539674441617 A 88,88 0 0,1 156.6761420481279,204.30139886099323" />
    <path d="M 140.16794833741932,209.30910467548426 A 88,88 0 0,1 123.00000000000001,211" />
    <path d="M 105.83205166258071,209.30910467548426 A 88,88 0 0,1 89.323857951872114,204.30139886099323" />
    <path d="M 60.774603255583827,185.2253967444162 A 88,88 0 0,1 49.83067411737602,171.890180505725" />
    <path d="M 36.690895324515722,140.16794833741932 A 88,88 0 0,1 35,123.00000000000001" />
    <path d="M 36.690895324515722,105.83205166258071 A 88,88 0 0,1 41.698601139006769,89.323857951872071" />
    <path d="M 60.774603255583806,60.774603255583834 A 88,88 0 0,1 89.323857951872043,41.698601139006783" />
    <path d="M 102.71060651032261,20.998330838064049 A 104,104 0 0,1 196.53910524340094,49.46089475659906" />
    <path d="M 227,123 A 104,104 0 0,1 225.00166916193598,143.28939348967734" />
    <path d="M 219.08347138117381,162.79907696596933 A 104,104 0 0,1 209.47283967946473,180.77930423403859" />
    <path d="M 180.77930423403862,209.4728396794647 A 104,104 0 0,1 102.71060651032265,225.00166916193598" />
    <path d="M 36.527160320535287,180.77930423403862 A 104,104 0 0,1 19,123.00000000000001" />
    <path d="M 26.916528618826192,83.200923034030637 A 104,104 0 0,1 65.220695765961366,36.5271603205353" />
    <path d="M 146.41083864193539,5.3057663516123483 A 120,120 0 1,1 123,3" />
  </g>
  <g fill="none" stroke="#000000" stroke-width="2" stroke-linecap="butt">
    <line x1="123" y1="51" x2="123" y2="67" />
    <line x1="150.55320713028647" y1="56.48067365918736" x2="138.3073372946036" y2="86.044818699548529" />
    <line x1="171.890180505725" y1="49.83067411737602" x2="163.00105677741135" y2="63.134187914216746" />
    <line x1="196.53910524340094" y1="49.460894756599046" x2="173.91168824543144" y2="72.088311754568565" />
    <line x1="222.77635347630542" y1="56.331572037647732" x2="196.16932588262398" y2="74.109819494275" />
    <line x1="219.08347138117381" y1="83.200923034030666" x2="174.73725382063205" y2="101.56972778755497" />
    <line x1="225.00166916193598" y1="102.71060651032265" x2="209.30910467548426" y2="105.83205166258071" />
    <line x1="243" y1="122.99999999999999" x2="227" y2="123" />
    <line x1="211" y1="123" x2="195" y2="123" />
    <line x1="179" y1="123" x2="163" y2="123" />
    <line x1="225.00166916193598" y1="143.28939348967734" x2="193.61654018903261" y2="137.04650318516124" />
    <line x1="233.86554390135441" y1="168.92201188381077" x2="204.30139886099323" y2="156.6761420481279" />
    <line x1="189.51932634081265" y1="150.55320713028647" x2="174.73725382063205" y2="144.43027221244503" />
    <line x1="196.16932588262398" y1="171.89018050572497" x2="182.86581208578326" y2="163.00105677741135" />
    <line x1="207.85281374238571" y1="207.85281374238571" x2="196.53910524340097" y2="196.53910524340094" />
    <line x1="173.91168824543144" y1="173.91168824543144" x2="139.97056274847714" y2="139.97056274847714" />
    <line x1="171.890180505725" y1="196.16932588262398" x2="163.00105677741135" y2="182.86581208578326" />
    <line x1="156.6761420481279" y1="204.30139886099323" x2="150.55320713028647" y2="189.51932634081265" />
    <line x1="144.43027221244503" y1="174.73725382063205" x2="138.3073372946036" y2="159.95518130045147" />
    <line x1="143.28939348967737" y1="225.00166916193598" x2="140.16794833741932" y2="209.30910467548426" />
    <line x1="123.00000000000001" y1="211" x2="123.00000000000001" y2="195" />
    <line x1="123" y1="163" x2="123" y2="147" />
    <line x1="102.71060651032265" y1="225.00166916193598" x2="105.83205166258071" y2="209.30910467548426" />
    <line x1="83.200923034030666" y1="219.08347138117384" x2="89.3238579518721" y2="204.30139886099323" />
    <line x1="101.56972778755498" y1="174.73725382063208" x2="107.69266270539642" y2="159.95518130045147" />
    <line x1="56.33157203764776" y1="222.77635347630547" x2="82.99894322258865" y2="182.86581208578326" />
    <line x1="49.46089475659906" y1="196.53910524340097" x2="94.7157287525381" y2="151.2842712474619" />
    <line x1="23.223646523694569" y1="189.66842796235227" x2="36.5271603205353" y2="180.77930423403862" />
    <line x1="49.83067411737602" y1="171.890180505725" x2="63.134187914216746" y2="163.00105677741135" />
    <line x1="41.698601139006783" y1="156.67614204812796" x2="86.044818699548543" y2="138.3073372946036" />
    <line x1="19" y1="123.00000000000001" x2="67" y2="123.00000000000001" />
    <line x1="5.3057663516123483" y1="99.5891613580646" x2="36.690895324515722" y2="105.83205166258071" />
    <line x1="56.48067365918736" y1="95.446792869713519" x2="71.262746179367952" y2="101.56972778755497" />
    <line x1="36.527160320535273" y1="65.220695765961409" x2="63.134187914216724" y2="82.998943222588665" />
    <line x1="83.402020253553331" y1="83.402020253553346" x2="94.7157287525381" y2="94.7157287525381" />
    <line x1="77.077988116189147" y1="12.134456098645615" x2="95.446792869713491" y2="56.480673659187374" />
    <line x1="102.71060651032261" y1="20.998330838064049" x2="105.83205166258067" y2="36.690895324515736" />
  </g>
  <path fill="none" stroke="#ff0000" stroke-width="2" stroke-linecap="square" stroke-linejoin="round" d="M 134.76205683954728,3.5778327993363774 L 133.97791971691078,11.539310612713948 A 112,112 0 0,0 90.4881161475002,15.822682397992608 L 99.777225819643007,46.4447731414233 A 80,80 0 0,1 130.84137122636486,43.385221866224242 L 129.27309698109187,59.3081774929794 A 64,64 0 0,1 135.48578060903222,60.229742054193252 L 129.2428903045161,91.614871027096626 A 32,32 0 0,0 110.75413016431713,152.56414504036118 L 113.81559762323785,145.17310878027089" />
  <type>Circular</type>
</svg>