<?xml version="1.0" encoding="utf-8" standalone="no"?>
<!DOCTYPE svg PUBLIC "-//W3C//DTD SVG 1.1//EN" "http://www.w3.org/Graphics/SVG/1.1/DTD/svg11.dtd"[]>
<svg width="244" height="244" version="1.1" xmlns="http://www.w3.org/2000/svg">
  <title>15 cells diameter theta maze</title>
  <g fill="none" stroke="#000000" stroke-width="2" stroke-linecap="square">
    <path d="M 106.02943725152286,139.97056274847714 A 24,24 0 1,1 123,147" />
    <path d="M 107.69266270539639,86.044818699548543 A 40,40 0 0,1 123,83" />
    <path d="M 138.3073372946036,86.044818699548529 A 40,40 0 0,1 151.2842712474619,94.7157287525381" />
    <path d="M 159.95518130045147,107.6926627053964 A 40,40 0 0,1 163,123" />
    <path d="M 159.95518130045147,138.3073372946036 A 40,40 0 0,1 94.7157287525381,151.2842712474619" />
    <path d="M 83,123.00000000000001 A 40,40 0 0,1 94.7157287525381,94.7157287525381" />
    <path d="M 83.402020253553331,83.402020253553346 A 56,56 0 0,1 144.43027221244503,71.262746179367952" />
    <path d="M 162.59797974644667,83.402020253553331 A 56,56 0 0,1 174.73725382063205,101.56972778755497" />
    <path d="M 179,123 A 56,56 0 0,1 174.73725382063208,144.43027221244503" />
    <path d="M 83.402020253553346,162.59797974644667 A 56,56 0 0,1 71.262746179367952,101.56972778755497" />
    <path d="M 137.04650318516124,52.383459810967409 A 72,72 0 0,1 182.86581208578326,82.998943222588636" />
    <path d="M 189.51932634081265,95.446792869713533 A 72,72 0 0,1 193.61654018903261,137.04650318516124" />
    <path d="M 189.51932634081265,150.55320713028647 A 72,72 0 0,1 182.86581208578326,163.00105677741135" />
    <path d="M 173.91168824543144,173.91168824543141 A 72,72 0 0,1 163.00105677741135,182.86581208578326" />
    <path d="M 137.04650318516127,193.61654018903261 A 72,72 0 0,1 72.0883117545686,173.91168824543144" />
    <path d="M 63.134187914216739,163.00105677741135 A 72,72 0 0,1 51,123.00000000000001" />
    <path d="M 52.383459810967409,108.95349681483876 A 72,72 0 0,1 63.134187914216724,82.998943222588665" />
    <path d="M 82.99894322258865,63.134187914216746 A 72,72 0 0,1 108.95349681483873,52.383459810967409" />
    <path d="M 123,35 A 88,88 0 0,1 140.16794833741929,36.690895324515722" />
    <path d="M 156.6761420481279,41.698601139006769 A 88,88 0 0,1 185.22539674441617,60.774603255583813" />
    <path d="M 196.16932588262398,74.109819494275 A 88,88 0 0,1 204.30139886099323,89.3238579518721" />
    <path d="M 209.30910467548426,140.16794833741929 A 88,88 0 0,1 185.22539674441617,185.22539674441617" />
    <path d="M 156.6761420481279,204.30139886099323 A 88,88 0 0,1 89.323857951872114,204.30139886099323" />
    <path d="M 60.774603255583827,185.2253967444162 A 88,88 0 0,1 49.83067411737602,171.890180505725" />
    <path d="M 41.698601139006783,156.67614204812796 A 88,88 0 0,1 36.690895324515722,140.16794833741932" />
    <path d="M 41.698601139006769,89.323857951872071 A 88,88 0 0,1 49.830674117375992,74.10981949427503" />
    <path d="M 74.109819494275,49.83067411737602 A 88,88 0 0,1 105.83205166258067,36.690895324515722" />
    <path d="M 83.200923034030609,26.916528618826206 A 104,104 0 0,1 123,19" />
    <path d="M 143.28939348967734,20.998330838064035 A 104,104 0 0,1 180.77930423403862,36.527160320535287" />
    <path d="M 196.53910524340094,49.46089475659906 A 104,104 0 0,1 209.4728396794647,65.220695765961366" />
    <path d="M 227,123 A 104,104 0 0,1 196.53910524340097,196.53910524340094" />
    <path d="M 180.77930423403862,209.4728396794647 A 104,104 0 0,1 143.28939348967737,225.00166916193598" />
    <path d="M 83.20092303403068,219.08347138117381 A 104,104 0 0,1 65.220695765961409,209.47283967946473" />
    <path d="M 36.527160320535287,180.77930423403862 A 104,104 0 0,1 26.916528618826206,162.79907696596939" />
    <path d="M 20.998330838064035,102.71060651032266 A 104,104 0 0,1 65.220695765961366,36.5271603205353" />
    <path d="M 146.41083864193539,5.3057663516123483 A 120,120 0 1,1 123,3" />
  </g>
  <g fill="none" stroke="#000000" stroke-width="2" stroke-linecap="butt">
    <line x1="123" y1="35" x2="123" y2="67" />
    <line x1="123" y1="83" x2="123" y2="99" />
    <line x1="143.28939348967734" y1="20.998330838064035" x2="140.16794833741929" y2="36.690895324515722" />
    <line x1="156.6761420481279" y1="41.698601139006769" x2="138.3073372946036" y2="86.044818699548529" />
    <line x1="196.53910524340094" y1="49.460894756599046" x2="185.22539674441617" y2="60.774603255583813" />
    <line x1="196.16932588262398" y1="74.109819494275" x2="182.86581208578326" y2="82.998943222588636" />
    <line x1="219.08347138117381" y1="83.200923034030666" x2="204.30139886099323" y2="89.3238579518721" />
    <line x1="189.51932634081265" y1="95.446792869713533" x2="159.95518130045147" y2="107.6926627053964" />
    <line x1="240.69423364838764" y1="99.5891613580646" x2="225.00166916193598" y2="102.71060651032265" />
    <line x1="209.30910467548426" y1="105.83205166258071" x2="193.61654018903261" y2="108.95349681483876" />
    <line x1="211" y1="123" x2="195" y2="123" />
    <line x1="163" y1="123" x2="147" y2="123" />
    <line x1="225.00166916193598" y1="143.28939348967734" x2="193.61654018903261" y2="137.04650318516124" />
    <line x1="189.51932634081265" y1="150.55320713028647" x2="159.95518130045147" y2="138.3073372946036" />
    <line x1="185.22539674441617" y1="185.22539674441617" x2="162.59797974644667" y2="162.59797974644664" />
    <line x1="189.66842796235227" y1="222.77635347630545" x2="163.00105677741135" y2="182.86581208578326" />
    <line x1="156.6761420481279" y1="204.30139886099323" x2="138.3073372946036" y2="159.95518130045147" />
    <line x1="123.00000000000001" y1="227" x2="123.00000000000001" y2="211" />
    <line x1="123" y1="179" x2="123" y2="163" />
    <line x1="99.5891613580646" y1="240.69423364838764" x2="102.71060651032265" y2="225.00166916193598" />
    <line x1="83.200923034030666" y1="219.08347138117384" x2="89.3238579518721" y2="204.30139886099323" />
    <line x1="101.56972778755498" y1="174.73725382063208" x2="107.69266270539642" y2="159.95518130045147" />
    <line x1="65.2206957659614" y1="209.47283967946473" x2="82.99894322258865" y2="182.86581208578326" />
    <line x1="38.147186257614308" y1="207.85281374238571" x2="60.774603255583827" y2="185.2253967444162" />
    <line x1="72.088311754568579" y1="173.91168824543144" x2="83.402020253553346" y2="162.59797974644667" />
    <line x1="94.7157287525381" y1="151.2842712474619" x2="106.02943725152286" y2="139.97056274847714" />
    <line x1="49.83067411737602" y1="171.890180505725" x2="63.134187914216746" y2="163.00105677741135" />
    <line x1="12.134456098645615" y1="168.92201188381085" x2="26.916528618826206" y2="162.79907696596939" />
    <line x1="71.262746179367952" y1="144.43027221244506" x2="86.044818699548543" y2="138.3073372946036" />
    <line x1="5.3057663516123625" y1="146.41083864193544" x2="20.998330838064049" y2="143.28939348967737" />
    <line x1="36.690895324515736" y1="140.16794833741932" x2="52.383459810967423" y2="137.04650318516127" />
    <line x1="19" y1="123.00000000000001" x2="51" y2="123.00000000000001" />
    <line x1="20.998330838064035" y1="102.71060651032266" x2="52.383459810967409" y2="108.95349681483876" />
    <line x1="56.48067365918736" y1="95.446792869713519" x2="71.262746179367952" y2="101.56972778755497" />
    <line x1="36.527160320535273" y1="65.220695765961409" x2="49.830674117376006" y2="74.10981949427503" />
    <line x1="60.774603255583806" y1="60.774603255583834" x2="94.7157287525381" y2="94.7157287525381" />
    <line x1="65.220695765961381" y1="36.5271603205353" x2="82.99894322258865" y2="63.134187914216746" />
    <line x1="77.077988116189147" y1="12.134456098645615" x2="83.200923034030609" y2="26.916528618826206" />
    <line x1="95.446792869713491" y1="56.480673659187374" x2="101.56972778755494" y2="71.262746179367952" />
  </g>
  <path fill="none" stroke="#ff0000" stroke-width="2" stroke-linecap="square" stroke-linejoin="round" d="M 134.76205683954728,3.5778327993363774 L 132.40964547163782,27.462266239469102 A 96,96 0 0,0 77.7459132647042,38.335558622557926 L 70.203565475488233,24.224818392984261 A 112,112 0 0,0 11.539310612713948,112.02208028308927 L 59.3081774929794,116.72690301890816 A 64,64 0 0,0 73.527330984784854,163.60117018647333 L 61.159163730981071,173.75146273309167 A 80,80 0 0,0 72.248537266908386,184.84083626901898 L 51.947952173671723,209.57717077662656 A 112,112 0 0,0 90.48811614750025,230.17731760200741 L 95.132670983571643,214.86627223029205 A 96,96 0 0,0 113.59035452836218,218.5377337605309 L 112.02208028308921,234.46068938728604 A 112,112 0 0,0 133.9779197169108,234.46068938728604 L 132.40964547163785,218.5377337605309 A 96,96 0 0,0 168.2540867352958,207.66444137744207 L 153.16939115686387,179.44296091829472 A 64,64 0 0,0 158.55649491325454,176.2140551873629 L 149.66737118494089,162.91054139052218 A 48,48 0 0,0 162.91054139052218,149.66737118494089 L 176.2140551873629,158.55649491325454 A 64,64 0 0,1 172.47266901521516,163.6011701864733 L 184.84083626901895,173.75146273309161 A 80,80 0 0,0 199.5552268585767,146.22277418035696 L 184.24418148686138,141.57821934428557 A 64,64 0 0,0 185.77025794580675,110.51421939096778 L 170.07769345935506,113.63566454322584 A 48,48 0 0,1 170.07769345935506,132.36433545677414 L 154.38512897290337,129.2428903045161 A 32,32 0 0,1 110.75413016431713,152.56414504036118 L 113.81559762323785,145.17310878027089" />
  <type>Circular</type>
</svg>