<?xml version="1.0" encoding="utf-8" standalone="no"?>
<!DOCTYPE svg PUBLIC "-//W3C//DTD SVG 1.1//EN" "http://www.w3.org/Graphics/SVG/1.1/DTD/svg11.dtd"[]>
<svg width="244" height="244" version="1.1" xmlns="http://www.w3.org/2000/svg">
  <title>15 cells diameter theta maze</title>
  <g fill="none" stroke="#000000" stroke-width="2" stroke-linecap="square">
    <path d="M 106.02943725152286,139.97056274847714 A 24,24 0 1,1 123,147" />
    <path d="M 86.044818699548529,107.6926627053964 A 40,40 0 0,1 138.3073372946036,86.044818699548529" />
    <path d="M 151.2842712474619,94.7157287525381 A 40,40 0 0,1 163,123" />
    <path d="M 159.95518130045147,138.3073372946036 A 40,40 0 0,1 107.69266270539642,159.95518130045147" />
    <path d="M 94.7157287525381,151.2842712474619 A 40,40 0 0,1 83,123.00000000000001" />
    <path d="M 101.56972778755494,71.262746179367952 A 56,56 0 0,1 123,67" />
    <path d="M 144.43027221244503,71.262746179367952 A 56,56 0 0,1 162.59797974644667,83.402020253553331" />
    <path d="M 174.73725382063205,101.56972778755497 A 56,56 0 0,1 179,123" />
    <path d="M 162.59797974644667,162.59797974644664 A 56,56 0 0,1 144.43027221244503,174.73725382063205" />
    <path d="M 101.56972778755498,174.73725382063208 A 56,56 0 0,1 71.262746179367952,144.43027221244506" />
    <path d="M 67,123.00000000000001 A 56,56 0 0,1 71.262746179367952,101.56972778755497" />
    <path d="M 108.95349681483873,52.383459810967409 A 72,72 0 0,1 123,51" />
    <path d="M 137.04650318516124,52.383459810967409 A 72,72 0 0,1 163.00105677741135,63.134187914216739" />
    <path d="M 182.86581208578326,82.998943222588636 A 72,72 0 0,1 193.61654018903261,108.95349681483876" />
    <path d="M 195,123 A 72,72 0 0,1 189.51932634081265,150.55320713028647" />
    <path d="M 182.86581208578326,163.00105677741135 A 72,72 0 0,1 163.00105677741135,182.86581208578326" />
    <path d="M 150.55320713028647,189.51932634081265 A 72,72 0 0,1 95.446792869713548,189.51932634081265" />
    <path d="M 72.0883117545686,173.91168824543144 A 72,72 0 0,1 51,123.00000000000001" />
    <path d="M 52.383459810967409,108.95349681483876 A 72,72 0 0,1 56.48067365918736,95.446792869713519" />
    <path d="M 63.134187914216724,82.998943222588665 A 72,72 0 0,1 82.99894322258865,63.134187914216746" />
    <path d="M 105.83205166258067,36.690895324515722 A 88,88 0 0,1 123,35" />
    <path d="M 140.16794833741929,36.690895324515722 A 88,88 0 0,1 156.6761420481279,41.698601139006769" />
    <path d="M 171.890180505725,49.83067411737602 A 88,88 0 0,1 211,123" />
    <path d="M 204.30139886099323,156.6761420481279 A 88,88 0 0,1 196.16932588262398,171.89018050572497" />
    <path d="M 171.89018050572497,196.16932588262398 A 88,88 0 0,1 140.16794833741932,209.30910467548426" />
    <path d="M 105.83205166258071,209.30910467548426 A 88,88 0 0,1 41.698601139006783,156.67614204812796" />
    <path d="M 36.690895324515722,140.16794833741932 A 88,88 0 0,1 36.690895324515722,105.83205166258071" />
    <path d="M 41.698601139006769,89.323857951872071 A 88,88 0 0,1 74.109819494275,49.83067411737602" />
    <path d="M 180.77930423403862,36.527160320535287 A 104,104 0 0,1 196.53910524340094,49.46089475659906" />
    <path d="M 209.4728396794647,65.220695765961366 A 104,104 0 0,1 225.00166916193598,143.28939348967734" />
    <path d="M 209.47283967946473,180.77930423403859 A 104,104 0 0,1 180.77930423403862,209.4728396794647" />
    <path d="M 143.28939348967737,225.00166916193598 A 104,104 0 0,1 123.00000000000001,227" />
    <path d="M 102.71060651032265,225.00166916193598 A 104,104 0 0,1 83.20092303403068,219.08347138117381" />
    <path d="M 65.220695765961409,209.47283967946473 A 104,104 0 0,1 49.460894756599075,196.53910524340097" />
    <path d="M 26.916528618826206,162.79907696596939 A 104,104 0 0,1 20.998330838064035,143.28939348967737" />
    <path d="M 19,123.00000000000001 A 104,104 0 0,1 20.998330838064035,102.71060651032266" />
    <path d="M 26.916528618826192,83.200923034030637 A 104,104 0 0,1 49.460894756599046,49.460894756599075" />
    <path d="M 65.220695765961366,36.5271603205353 A 104,104 0 0,1 102.71060651032261,20.998330838064049" />
    <path d="M 146.41083864193539,5.3057663516123483 A 120,120 0 1,1 123,3" />
  </g>
  <g fill="none" stroke="#000000" stroke-width="2" stroke-linecap="butt">
    <line x1="123" y1="3" x2="123" y2="35" />
    <line x1="123" y1="51" x2="123" y2="83" />
    <line x1="146.41083864193539" y1="5.3057663516123483" x2="140.16794833741929" y2="36.690895324515722" />
    <line x1="168.92201188381077" y1="12.134456098645586" x2="162.79907696596933" y2="26.916528618826177" />
    <line x1="150.55320713028647" y1="56.48067365918736" x2="144.43027221244503" y2="71.262746179367952" />
    <line x1="180.77930423403862" y1="36.5271603205353" x2="171.890180505725" y2="49.83067411737602" />
    <line x1="185.22539674441617" y1="60.774603255583813" x2="173.91168824543144" y2="72.088311754568565" />
    <line x1="162.59797974644664" y1="83.402020253553331" x2="151.2842712474619" y2="94.7157287525381" />
    <line x1="189.51932634081265" y1="95.446792869713533" x2="174.73725382063205" y2="101.56972778755497" />
    <line x1="243" y1="122.99999999999999" x2="227" y2="123" />
    <line x1="211" y1="123" x2="195" y2="123" />
    <line x1="179" y1="123" x2="147" y2="123" />
    <line x1="225.00166916193598" y1="143.28939348967734" x2="193.61654018903261" y2="137.04650318516124" />
    <line x1="219.08347138117381" y1="162.79907696596933" x2="204.30139886099323" y2="156.6761420481279" />
    <line x1="189.51932634081265" y1="150.55320713028647" x2="159.95518130045147" y2="138.3073372946036" />
    <line x1="196.16932588262398" y1="171.89018050572497" x2="182.86581208578326" y2="163.00105677741135" />
    <line x1="207.85281374238571" y1="207.85281374238571" x2="185.22539674441617" y2="185.22539674441617" />
    <line x1="173.91168824543144" y1="173.91168824543144" x2="162.59797974644667" y2="162.59797974644664" />
    <line x1="171.890180505725" y1="196.16932588262398" x2="163.00105677741135" y2="182.86581208578326" />
    <line x1="168.9220118838108" y1="233.86554390135441" x2="162.79907696596933" y2="219.08347138117381" />
    <line x1="150.55320713028647" y1="189.51932634081265" x2="144.43027221244503" y2="174.73725382063205" />
    <line x1="143.28939348967737" y1="225.00166916193598" x2="140.16794833741932" y2="209.30910467548426" />
    <line x1="123.00000000000001" y1="227" x2="123.00000000000001" y2="211" />
    <line x1="123" y1="179" x2="123" y2="147" />
    <line x1="99.5891613580646" y1="240.69423364838764" x2="105.83205166258071" y2="209.30910467548426" />
    <line x1="95.446792869713548" y1="189.51932634081265" x2="101.56972778755498" y2="174.73725382063208" />
    <line x1="56.33157203764776" y1="222.77635347630547" x2="65.2206957659614" y2="209.47283967946473" />
    <line x1="74.10981949427503" y1="196.16932588262398" x2="82.99894322258865" y2="182.86581208578326" />
    <line x1="60.774603255583827" y1="185.2253967444162" x2="72.088311754568579" y2="173.91168824543144" />
    <line x1="83.402020253553346" y1="162.59797974644667" x2="106.02943725152286" y2="139.97056274847714" />
    <line x1="36.5271603205353" y1="180.77930423403862" x2="49.83067411737602" y2="171.890180505725" />
    <line x1="12.134456098645615" y1="168.92201188381085" x2="26.916528618826206" y2="162.79907696596939" />
    <line x1="3" y1="123.00000000000003" x2="19" y2="123.00000000000001" />
    <line x1="20.998330838064035" y1="102.71060651032266" x2="52.383459810967409" y2="108.95349681483876" />
    <line x1="41.698601139006783" y1="89.323857951872071" x2="86.044818699548529" y2="107.6926627053964" />
    <line x1="38.14718625761428" y1="38.147186257614322" x2="49.460894756599046" y2="49.460894756599075" />
    <line x1="72.088311754568565" y1="72.0883117545686" x2="94.7157287525381" y2="94.7157287525381" />
    <line x1="83.200923034030609" y1="26.916528618826206" x2="101.56972778755494" y2="71.262746179367952" />
  </g>
  <path fill="none" stroke="#ff0000" stroke-width="2" stroke-linecap="square" stroke-linejoin="round" d="M 134.76205683954728,3.5778327993363774 L 129.27309698109187,59.3081774929794 A 64,64 0 0,1 135.48578060903222,60.229742054193252 L 132.36433545677414,75.922306540644939 A 48,48 0 0,1 149.66737118494092,83.08945860947783 L 140.77824745662727,96.392972406318549 A 32,32 0 0,0 91.614871027096626,116.75710969548389 L 75.922306540644939,113.63566454322584 A 48,48 0 0,0 75.922306540644939,132.36433545677417 L 60.22974205419326,135.48578060903225 A 64,64 0 0,0 92.830608843136147,179.44296091829472 L 85.2882610539202,193.55370114786842 A 80,80 0 0,0 115.15862877363516,202.61477813377576 L 112.02208028308921,234.46068938728604 A 112,112 0 0,0 155.51188385249978,230.17731760200741 L 150.86732901642839,214.86627223029205 A 96,96 0 0,0 183.90175527970996,197.20900352282274 L 173.75146273309164,184.84083626901895 A 80,80 0 0,0 184.84083626901895,173.75146273309161 L 197.20900352282274,183.90175527970996 A 96,96 0 0,0 207.66444137744207,168.25408673529577 L 221.77518160701578,175.79643452451174 A 112,112 0 0,0 230.17731760200741,155.51188385249975 L 199.5552268585767,146.22277418035696 A 80,80 0 0,1 193.5537011478684,160.71173894607981 L 179.44296091829472,153.16939115686387 A 64,64 0 0,1 176.2140551873629,158.55649491325454 L 162.91054139052218,149.66737118494089 A 48,48 0 0,1 132.36433545677417,170.07769345935506 L 135.48578060903222,185.77025794580675 A 64,64 0 0,1 110.51421939096778,185.77025794580675 L 113.63566454322584,170.07769345935506 A 48,48 0 0,1 96.33262881505911,162.91054139052218 L 105.22175254337273,149.60702759368147 A 32,32 0 0,0 110.75413016431713,152.56414504036118 L 113.81559762323785,145.17310878027089" />
  <type>Circular</type>
</svg>