<?xml version="1.0" encoding="utf-8" standalone="no"?>
<!DOCTYPE svg PUBLIC "-//W3C//DTD SVG 1.1//EN" "http://www.w3.org/Graphics/SVG/1.1/DTD/svg11.dtd"[]>
<svg width="244" height="244" version="1.1" xmlns="http://www.w3.org/2000/svg">
  <title>15 cells diameter theta maze</title>
  <g fill="none" stroke="#000000" stroke-width="2" stroke-linecap="square">
    <path d="M 106.02943725152286,139.97056274847714 A 24,24 0 1,1 123,147" />
    <path d="M 123,83 A 40,40 0 0,1 138.3073372946036,86.044818699548529" />
    <path d="M 151.2842712474619,94.7157287525381 A 40,40 0 0,1 159.95518130045147,107.6926627053964" />
    <path d="M 163,123 A 40,40 0 0,1 159.95518130045147,138.3073372946036" />
    <path d="M 138.3073372946036,159.95518130045147 A 40,40 0 0,1 94.7157287525381,151.2842712474619" />
    <path d="M 86.044818699548529,138.3073372946036 A 40,40 0 0,1 107.69266270539639,86.044818699548543" />
    <path d="M 162.59797974644667,83.402020253553331 A 56,56 0 0,1 179,123" />
    <path d="M 174.73725382063208,144.43027221244503 A 56,56 0 0,1 144.43027221244503,174.73725382063205" />
    <path d="M 123,179 A 56,56 0 0,1 101.56972778755498,174.73725382063208" />
    <path d="M 83.402020253553346,162.59797974644667 A 56,56 0 0,1 67,123.00000000000001" />
    <path d="M 71.262746179367952,101.56972778755497 A 56,56 0 0,1 101.56972778755494,71.262746179367952" />
    <path d="M 63.134187914216724,82.998943222588665 A 72,72 0 0,1 137.04650318516124,52.383459810967409" />
    <path d="M 163.00105677741135,63.134187914216739 A 72,72 0 0,1 173.91168824543144,72.088311754568579" />
    <path d="M 193.61654018903261,137.04650318516124 A 72,72 0 0,1 189.51932634081265,150.55320713028647" />
    <path d="M 182.86581208578326,163.00105677741135 A 72,72 0 0,1 163.00105677741135,182.86581208578326" />
    <path d="M 150.55320713028647,189.51932634081265 A 72,72 0 0,1 137.04650318516127,193.61654018903261" />
    <path d="M 123.00000000000001,195 A 72,72 0 0,1 95.446792869713548,189.51932634081265" />
    <path d="M 82.998943222588665,182.86581208578326 A 72,72 0 0,1 72.0883117545686,173.91168824543144" />
    <path d="M 63.134187914216739,163.00105677741135 A 72,72 0 0,1 52.383459810967409,137.04650318516127" />
    <path d="M 51,123.00000000000001 A 72,72 0 0,1 52.383459810967409,108.95349681483876" />
    <path d="M 105.83205166258067,36.690895324515722 A 88,88 0 0,1 123,35" />
    <path d="M 140.16794833741929,36.690895324515722 A 88,88 0 0,1 156.6761420481279,41.698601139006769" />
    <path d="M 185.22539674441617,60.774603255583813 A 88,88 0 0,1 204.30139886099323,89.3238579518721" />
    <path d="M 209.30910467548426,105.83205166258071 A 88,88 0 0,1 209.30910467548426,140.16794833741929" />
    <path d="M 204.30139886099323,156.6761420481279 A 88,88 0 0,1 156.6761420481279,204.30139886099323" />
    <path d="M 140.16794833741932,209.30910467548426 A 88,88 0 0,1 123.00000000000001,211" />
    <path d="M 105.83205166258071,209.30910467548426 A 88,88 0 0,1 74.10981949427503,196.16932588262398" />
    <path d="M 60.774603255583827,185.2253967444162 A 88,88 0 0,1 49.83067411737602,171.890180505725" />
    <path d="M 41.698601139006783,156.67614204812796 A 88,88 0 0,1 36.690895324515722,105.83205166258071" />
    <path d="M 41.698601139006769,89.323857951872071 A 88,88 0 0,1 89.323857951872043,41.698601139006783" />
    <path d="M 102.71060651032261,20.998330838064049 A 104,104 0 0,1 123,19" />
    <path d="M 143.28939348967734,20.998330838064035 A 104,104 0 0,1 162.79907696596933,26.916528618826177" />
    <path d="M 219.08347138117381,83.200923034030666 A 104,104 0 0,1 225.00166916193598,102.71060651032266" />
    <path d="M 227,123 A 104,104 0 0,1 196.53910524340097,196.53910524340094" />
    <path d="M 180.77930423403862,209.4728396794647 A 104,104 0 0,1 143.28939348967737,225.00166916193598" />
    <path d="M 123.00000000000001,227 A 104,104 0 0,1 65.220695765961409,209.47283967946473" />
    <path d="M 49.460894756599075,196.53910524340097 A 104,104 0 0,1 36.527160320535287,180.77930423403862" />
    <path d="M 26.916528618826206,162.79907696596939 A 104,104 0 0,1 20.998330838064035,143.28939348967737" />
    <path d="M 19,123.00000000000001 A 104,104 0 0,1 65.220695765961366,36.5271603205353" />
    <path d="M 146.41083864193539,5.3057663516123483 A 120,120 0 1,1 123,3" />
  </g>
  <g fill="none" stroke="#000000" stroke-width="2" stroke-linecap="butt">
    <line x1="123" y1="3" x2="123" y2="19" />
    <line x1="123" y1="51" x2="123" y2="99" />
    <line x1="143.28939348967734" y1="20.998330838064035" x2="137.04650318516124" y2="52.383459810967409" />
    <line x1="156.6761420481279" y1="41.698601139006769" x2="144.43027221244503" y2="71.262746179367952" />
    <line x1="189.66842796235227" y1="23.223646523694569" x2="171.890180505725" y2="49.83067411737602" />
    <line x1="196.53910524340094" y1="49.460894756599046" x2="185.22539674441617" y2="60.774603255583813" />
    <line x1="173.91168824543144" y1="72.088311754568565" x2="139.97056274847714" y2="106.02943725152286" />
    <line x1="222.77635347630542" y1="56.331572037647732" x2="209.4728396794647" y2="65.220695765961352" />
    <line x1="196.16932588262398" y1="74.109819494275" x2="182.86581208578326" y2="82.998943222588636" />
    <line x1="219.08347138117381" y1="83.200923034030666" x2="189.51932634081265" y2="95.446792869713533" />
    <line x1="225.00166916193598" y1="102.71060651032265" x2="193.61654018903261" y2="108.95349681483876" />
    <line x1="211" y1="123" x2="195" y2="123" />
    <line x1="209.30910467548426" y1="140.16794833741929" x2="193.61654018903261" y2="137.04650318516124" />
    <line x1="204.30139886099323" y1="156.6761420481279" x2="159.95518130045147" y2="138.3073372946036" />
    <line x1="207.85281374238571" y1="207.85281374238571" x2="185.22539674441617" y2="185.22539674441617" />
    <line x1="173.91168824543144" y1="173.91168824543144" x2="162.59797974644667" y2="162.59797974644664" />
    <line x1="151.2842712474619" y1="151.2842712474619" x2="139.97056274847714" y2="139.97056274847714" />
    <line x1="156.6761420481279" y1="204.30139886099323" x2="150.55320713028647" y2="189.51932634081265" />
    <line x1="144.43027221244503" y1="174.73725382063205" x2="138.3073372946036" y2="159.95518130045147" />
    <line x1="143.28939348967737" y1="225.00166916193598" x2="140.16794833741932" y2="209.30910467548426" />
    <line x1="123.00000000000001" y1="243" x2="123.00000000000001" y2="211" />
    <line x1="123.00000000000001" y1="195" x2="123" y2="179" />
    <line x1="123" y1="163" x2="123" y2="147" />
    <line x1="89.3238579518721" y1="204.30139886099323" x2="95.446792869713548" y2="189.51932634081265" />
    <line x1="101.56972778755498" y1="174.73725382063208" x2="107.69266270539642" y2="159.95518130045147" />
    <line x1="74.10981949427503" y1="196.16932588262398" x2="82.99894322258865" y2="182.86581208578326" />
    <line x1="49.46089475659906" y1="196.53910524340097" x2="72.088311754568579" y2="173.91168824543144" />
    <line x1="26.916528618826206" y1="162.79907696596939" x2="56.480673659187374" y2="150.5532071302865" />
    <line x1="71.262746179367952" y1="144.43027221244506" x2="86.044818699548543" y2="138.3073372946036" />
    <line x1="51" y1="123.00000000000001" x2="67" y2="123.00000000000001" />
    <line x1="20.998330838064035" y1="102.71060651032266" x2="36.690895324515722" y2="105.83205166258071" />
    <line x1="41.698601139006783" y1="89.323857951872071" x2="71.262746179367952" y2="101.56972778755497" />
    <line x1="94.7157287525381" y1="94.7157287525381" x2="106.02943725152286" y2="106.02943725152286" />
    <line x1="56.331572037647732" y1="23.223646523694569" x2="65.220695765961381" y2="36.5271603205353" />
    <line x1="83.200923034030609" y1="26.916528618826206" x2="89.323857951872043" y2="41.698601139006783" />
    <line x1="101.56972778755494" y1="71.262746179367952" x2="107.69266270539639" y2="86.044818699548543" />
    <line x1="105.83205166258067" y1="36.690895324515736" x2="108.95349681483873" y2="52.383459810967423" />
  </g>
  <path fill="none" stroke="#ff0000" stroke-width="2" stroke-linecap="square" stroke-linejoin="round" d="M 134.76205683954728,3.5778327993363774 L 132.40964547163782,27.462266239469102 A 96,96 0 0,0 95.1326709835716,31.133727769707946 L 90.4881161475002,15.822682397992608 A 112,112 0 0,0 70.203565475488233,24.224818392984261 L 77.7459132647042,38.335558622557926 A 96,96 0 0,0 31.133727769707946,95.132670983571643 L 46.444773141423283,99.777225819643036 A 80,80 0 0,0 43.385221866224242,130.84137122636483 L 59.3081774929794,129.27309698109187 A 64,64 0 0,0 87.443505086745475,176.2140551873629 L 96.33262881505911,162.91054139052218 A 48,48 0 0,1 83.08945860947783,149.66737118494092 L 96.392972406318549,140.77824745662727 A 32,32 0 0,0 110.75413016431713,152.56414504036118 L 113.81559762323785,145.17310878027089" />
  <type>Circular</type>
</svg>