<?xml version="1.0" encoding="utf-8" standalone="no"?>
<!DOCTYPE svg PUBLIC "-//W3C//DTD SVG 1.1//EN" "http://www.w3.org/Graphics/SVG/1.1/DTD/svg11.dtd"[]>
<svg width="436" height="436" version="1.1" xmlns="http://www.w3.org/2000/svg">
  <title>27 cells diameter theta maze</title>
  <g fill="none" stroke="#000000" stroke-width="2" stroke-linecap="square">
    <path d="M 202.02943725152286,235.97056274847714 A 24,24 0 1,1 219,243" />
    <path d="M 203.69266270539637,182.04481869954856 A 40,40 0 0,1 234.3073372946036,255.95518130045147" />
    <path d="M 203.6926627053964,255.95518130045147 A 40,40 0 0,1 190.7157287525381,247.2842712474619" />
    <path d="M 182.04481869954853,234.3073372946036 A 40,40 0 0,1 190.7157287525381,190.7157287525381" />
    <path d="M 219,163 A 56,56 0 0,1 240.43027221244503,167.26274617936795" />
    <path d="M 270.73725382063208,240.43027221244503 A 56,56 0 0,1 258.59797974644664,258.59797974644664" />
    <path d="M 179.40202025355336,258.59797974644664 A 56,56 0 0,1 167.26274617936795,240.43027221244506" />
    <path d="M 163,219 A 56,56 0 0,1 167.26274617936795,197.56972778755497" />
    <path d="M 179.40202025355333,179.40202025355336 A 56,56 0 0,1 197.56972778755494,167.26274617936795" />
    <path d="M 204.95349681483873,148.3834598109674 A 72,72 0 0,1 219,147" />
    <path d="M 259.00105677741135,159.13418791421674 A 72,72 0 0,1 278.86581208578326,178.99894322258865" />
    <path d="M 285.51932634081265,191.44679286971353 A 72,72 0 0,1 278.86581208578326,259.00105677741135" />
    <path d="M 269.91168824543144,269.91168824543144 A 72,72 0 0,1 259.00105677741135,278.86581208578326" />
    <path d="M 233.04650318516127,289.61654018903261 A 72,72 0 0,1 204.95349681483876,289.61654018903261" />
    <path d="M 191.44679286971353,285.51932634081265 A 72,72 0 0,1 178.99894322258865,278.86581208578326" />
    <path d="M 159.13418791421674,259.00105677741135 A 72,72 0 0,1 152.48067365918737,246.5532071302865" />
    <path d="M 148.3834598109674,233.04650318516127 A 72,72 0 0,1 168.08831175456857,168.08831175456859" />
    <path d="M 219,131 A 88,88 0 0,1 252.6761420481279,137.69860113900677" />
    <path d="M 281.22539674441617,156.77460325558383 A 88,88 0 0,1 281.22539674441617,281.22539674441617" />
    <path d="M 267.89018050572497,292.169325882624 A 88,88 0 0,1 236.16794833741932,305.30910467548426" />
    <path d="M 219,307 A 88,88 0 0,1 185.32385795187213,300.30139886099323" />
    <path d="M 170.10981949427503,292.169325882624 A 88,88 0 0,1 156.77460325558383,281.22539674441617" />
    <path d="M 137.69860113900677,252.67614204812796 A 88,88 0 0,1 132.69089532451574,236.16794833741932" />
    <path d="M 131,219.00000000000003 A 88,88 0 0,1 145.830674117376,170.10981949427503" />
    <path d="M 156.7746032555838,156.77460325558383 A 88,88 0 0,1 170.109819494275,145.83067411737602" />
    <path d="M 219,115 A 104,104 0 0,1 239.28939348967734,116.99833083806404" />
    <path d="M 276.77930423403865,132.5271603205353 A 104,104 0 0,1 292.53910524340097,145.46089475659906" />
    <path d="M 305.4728396794647,161.22069576596135 A 104,104 0 0,1 305.47283967946476,276.77930423403859" />
    <path d="M 292.53910524340097,292.53910524340097 A 104,104 0 0,1 276.77930423403859,305.4728396794647" />
    <path d="M 179.20092303403067,315.08347138117381 A 104,104 0 0,1 145.46089475659909,292.53910524340097" />
    <path d="M 115,219.00000000000003 A 104,104 0 0,1 122.91652861882619,179.20092303403064" />
    <path d="M 145.46089475659903,145.46089475659909 A 104,104 0 0,1 179.20092303403061,122.91652861882621" />
    <path d="M 152.33157203764773,119.22364652369457 A 120,120 0 0,1 285.66842796235227,119.22364652369457" />
    <path d="M 303.85281374238571,134.14718625761429 A 120,120 0 0,1 318.77635347630542,152.33157203764773" />
    <path d="M 329.86554390135439,173.07798811618923 A 120,120 0 0,1 336.69423364838764,195.58916135806459" />
    <path d="M 339,219 A 120,120 0 0,1 336.69423364838764,242.41083864193539" />
    <path d="M 329.86554390135439,264.92201188381074 A 120,120 0 0,1 318.77635347630542,285.66842796235221" />
    <path d="M 285.66842796235227,318.77635347630542 A 120,120 0 0,1 173.07798811618926,329.86554390135439" />
    <path d="M 134.14718625761429,303.85281374238571 A 120,120 0 0,1 108.13445609864561,264.92201188381085" />
    <path d="M 101.30576635161235,242.41083864193544 A 120,120 0 0,1 99,219.00000000000003" />
    <path d="M 101.30576635161235,195.58916135806462 A 120,120 0 0,1 108.1344560986456,173.0779881161892" />
    <path d="M 119.22364652369454,152.33157203764779 A 120,120 0 0,1 134.14718625761429,134.14718625761432" />
    <path d="M 219,83 A 136,136 0 0,1 245.53228379419343,85.613201865160647" />
    <path d="M 258.4787161066069,88.8561143404196 A 136,136 0 0,1 271.0449468016522,93.352383578465" />
    <path d="M 283.10995620833569,99.058708048623714 A 136,136 0 0,1 315.16652224137044,122.83347775862953" />
    <path d="M 324.12942165733222,132.72251335374421 A 136,136 0 0,1 338.94129195137629,154.89004379166431" />
    <path d="M 344.64761642153496,166.9550531983478 A 136,136 0 0,1 349.14388565958041,179.52128389339313" />
    <path d="M 352.38679813483935,192.46771620580654 A 136,136 0 0,1 338.94129195137629,283.10995620833569" />
    <path d="M 332.07986727314619,294.55755169066589 A 136,136 0 0,1 271.0449468016522,344.64761642153496" />
    <path d="M 232.33033108482027,354.34512282741878 A 136,136 0 0,1 154.89004379166431,338.94129195137629" />
    <path d="M 143.44244830933414,332.07986727314619 A 136,136 0 0,1 93.352383578465037,271.04494680165226" />
    <path d="M 88.8561143404196,258.4787161066069 A 136,136 0 0,1 85.613201865160676,245.53228379419349" />
    <path d="M 83.654877172581223,205.66966891517984 A 136,136 0 0,1 105.92013272685382,143.44244830933414" />
    <path d="M 132.72251335374415,113.87057834266783 A 136,136 0 0,1 179.5212838933931,88.8561143404196" />
    <path d="M 192.46771620580648,85.613201865160676 A 136,136 0 0,1 205.66966891517978,83.654877172581223" />
    <path d="M 134.55332458102046,92.616618930013118 A 152,152 0 0,1 233.8986053300932,67.731921545826083" />
    <path d="M 248.65372894645151,69.92063737870896 A 152,152 0 0,1 326.48023074035524,111.51976925964478" />
    <path d="M 345.38338106998685,134.55332458102046 A 152,152 0 0,1 359.4296889417156,160.83211828050634" />
    <path d="M 370.26807845417392,204.10139466990677 A 152,152 0 0,1 371,219" />
    <path d="M 368.079362621291,248.65372894645148 A 152,152 0 0,1 364.45493103129576,263.12327094267823" />
    <path d="M 359.4296889417156,277.16788171949361 A 152,152 0 0,1 353.05203218094994,290.65230399755166" />
    <path d="M 345.38338106998691,303.44667541897951 A 152,152 0 0,1 336.49758891113606,315.42777919287408" />
    <path d="M 326.48023074035524,326.48023074035518 A 152,152 0 0,1 303.44667541897951,345.38338106998685" />
    <path d="M 290.65230399755166,353.05203218094994 A 152,152 0 0,1 277.16788171949366,359.42968894171554" />
    <path d="M 248.65372894645154,368.079362621291 A 152,152 0 0,1 204.1013946699068,370.26807845417392" />
    <path d="M 189.34627105354849,368.079362621291 A 152,152 0 0,1 174.87672905732177,364.45493103129576" />
    <path d="M 160.83211828050636,359.4296889417156 A 152,152 0 0,1 134.55332458102049,345.38338106998691" />
    <path d="M 122.57222080712592,336.49758891113606 A 152,152 0 0,1 92.616618930013118,303.44667541897951" />
    <path d="M 78.57031105828446,277.16788171949372 A 152,152 0 0,1 67.731921545826083,233.89860533009318" />
    <path d="M 67.731921545826054,204.10139466990688 A 152,152 0 0,1 78.570311058284432,160.83211828050634" />
    <path d="M 92.61661893001309,134.55332458102052 A 152,152 0 0,1 122.57222080712582,101.50241108886404" />
    <path d="M 251.77517409870956,54.228072892257273 A 168,168 0 0,1 298.19465178676762,70.837227589476356" />
    <path d="M 312.33579914729319,79.3131051331724 A 168,168 0 0,1 358.68689486682763,125.66420085270683" />
    <path d="M 367.16277241052364,139.80534821323238 A 168,168 0 0,1 374.21176146189617,154.70918336266493" />
    <path d="M 383.77192710774273,186.22482590129044 A 168,168 0 0,1 374.21176146189617,283.29081663733507" />
    <path d="M 348.86575616493985,325.57807173949243 A 168,168 0 0,1 337.79393923934,337.79393923934" />
    <path d="M 325.57807173949243,348.86575616493985 A 168,168 0 0,1 186.22482590129044,383.77192710774273" />
    <path d="M 125.66420085270688,358.68689486682763 A 168,168 0 0,1 112.42192826050759,348.86575616493985" />
    <path d="M 89.134243835060232,325.57807173949249 A 168,168 0 0,1 70.837227589476385,298.19465178676762" />
    <path d="M 63.788238538103855,283.29081663733518 A 168,168 0 0,1 54.228072892257273,186.22482590129044" />
    <path d="M 70.837227589476356,139.80534821323241 A 168,168 0 0,1 100.20606076066,100.20606076066004" />
    <path d="M 112.42192826050749,89.134243835060261 A 168,168 0 0,1 125.66420085270683,79.3131051331724" />
    <path d="M 170.23217422125032,58.234023596988919 A 168,168 0 0,1 186.22482590129039,54.2280728922573" />
    <path d="M 183.10338074903231,38.535508405805615 A 184,184 0 0,1 272.41238061482107,42.922978225273567" />
    <path d="M 305.73699957598353,56.726487359902677 A 184,184 0 0,1 321.22492287560681,66.009591336331681" />
    <path d="M 349.10764773832477,88.892352261675256 A 184,184 0 0,1 381.27351264009735,132.26300042401641" />
    <path d="M 388.99383398207675,148.58624844482347 A 184,184 0 0,1 399.46449159419444,254.8966192509676" />
    <path d="M 395.0770217747264,272.412380614821 A 184,184 0 0,1 388.99383398207681,289.41375155517653" />
    <path d="M 371.99040866366835,321.22492287560675 A 184,184 0 0,1 335.72836428611078,361.23392341874364" />
    <path d="M 321.22492287560681,371.99040866366835 A 184,184 0 0,1 272.41238061482107,395.0770217747264" />
    <path d="M 254.89661925096766,399.46449159419438 A 184,184 0 0,1 237.03515382063918,402.11398970768425" />
    <path d="M 219.00000000000003,403 A 184,184 0 0,1 200.96484617936085,402.11398970768425" />
    <path d="M 165.58761938517898,395.0770217747264 A 184,184 0 0,1 148.58624844482353,388.99383398207681" />
    <path d="M 132.26300042401644,381.27351264009735 A 184,184 0 0,1 116.77507712439325,371.99040866366835" />
    <path d="M 102.27163571388927,361.23392341874364 A 184,184 0 0,1 88.892352261675285,349.10764773832477" />
    <path d="M 42.922978225273567,272.41238061482107 A 184,184 0 0,1 35.886010292315774,237.03515382063912" />
    <path d="M 35,219.00000000000003 A 184,184 0 0,1 38.535508405805587,183.1033807490324" />
    <path d="M 42.922978225273539,165.58761938517898 A 184,184 0 0,1 56.726487359902677,132.26300042401647" />
    <path d="M 76.766076581256414,102.27163571388921 A 184,184 0 0,1 102.27163571388915,76.76607658125647" />
    <path d="M 132.26300042401638,56.726487359902706 A 184,184 0 0,1 165.5876193851789,42.922978225273567" />
    <path d="M 219,19 A 200,200 0 0,1 238.60342806591211,19.963054665560634" />
    <path d="M 330.11404660392043,52.706077539490963 A 200,200 0 0,1 345.87865683272912,64.3979093274526" />
    <path d="M 360.42135623730951,77.57864376269049 A 200,200 0 0,1 403.77590650225738,142.46331352698203" />
    <path d="M 410.38806714644181,160.94306454910753 A 200,200 0 0,1 403.77590650225738,295.53668647301794" />
    <path d="M 395.384252869671,313.27934736519956 A 200,200 0 0,1 385.29392246050907,330.11404660392043" />
    <path d="M 373.60209067254743,345.87865683272906 A 200,200 0 0,1 360.42135623730951,360.42135623730951" />
    <path d="M 345.87865683272912,373.60209067254743 A 200,200 0 0,1 295.536686473018,403.77590650225738" />
    <path d="M 258.01806440322571,415.15705608064604 A 200,200 0 0,1 238.60342806591217,418.03694533443934" />
    <path d="M 219.00000000000003,419 A 200,200 0 0,1 199.39657193408789,418.03694533443934" />
    <path d="M 160.94306454910759,410.38806714644181 A 200,200 0 0,1 124.72065263480047,395.384252869671" />
    <path d="M 107.88595339607961,385.29392246050907 A 200,200 0 0,1 92.121343167270936,373.60209067254743" />
    <path d="M 64.39790932745268,345.87865683272918 A 200,200 0 0,1 27.611932853558244,277.05693545089247" />
    <path d="M 22.842943919353928,258.01806440322571 A 200,200 0 0,1 19.963054665560634,238.60342806591208" />
    <path d="M 19,219.00000000000003 A 200,200 0 0,1 19.963054665560605,199.39657193408797" />
    <path d="M 22.8429439193539,179.98193559677435 A 200,200 0 0,1 27.611932853558216,160.94306454910759" />
    <path d="M 34.224093497742672,142.463313526982 A 200,200 0 0,1 92.121343167270808,64.39790932745268" />
    <path d="M 107.88595339607956,52.706077539490963 A 200,200 0 0,1 124.72065263480042,42.615747130329027" />
    <path d="M 142.46331352698192,34.2240934977427 A 200,200 0 0,1 179.98193559677426,22.842943919353928" />
    <path d="M 240.1717023111851,4.0400990388054652 A 216,216 0 1,1 219,3" />
  </g>
  <g fill="none" stroke="#000000" stroke-width="2" stroke-linecap="butt">
    <line x1="219" y1="35" x2="219" y2="51" />
    <line x1="219" y1="115" x2="219" y2="131" />
    <line x1="219" y1="147" x2="219" y2="163" />
    <line x1="240.1717023111851" y1="4.0400990388054652" x2="237.03515382063915" y2="35.886010292315774" />
    <line x1="235.46687957536619" y1="51.808965919070914" x2="233.8986053300932" y2="67.731921545826054" />
    <line x1="261.1395095554837" y1="7.1503794329022412" x2="258.01806440322565" y2="22.8429439193539" />
    <line x1="254.8966192509676" y1="38.535508405805615" x2="251.77517409870956" y2="54.228072892257273" />
    <line x1="248.65372894645151" y1="69.920637378708989" x2="245.53228379419343" y2="85.613201865160647" />
    <line x1="242.41083864193539" y1="101.30576635161235" x2="239.28939348967734" y2="116.99833083806404" />
    <line x1="236.16794833741929" y1="132.69089532451574" x2="233.04650318516124" y2="148.3834598109674" />
    <line x1="277.05693545089247" y1="27.611932853558244" x2="272.41238061482107" y2="42.922978225273567" />
    <line x1="263.12327094267829" y1="73.545068968704271" x2="258.4787161066069" y2="88.8561143404196" />
    <line x1="295.53668647301794" y1="34.224093497742643" x2="283.29081663733507" y2="63.788238538103826" />
    <line x1="264.9220118838108" y1="108.13445609864559" x2="258.79907696596933" y2="122.91652861882618" />
    <line x1="252.6761420481279" y1="137.69860113900677" x2="240.43027221244503" y2="167.26274617936795" />
    <line x1="313.27934736519956" y1="42.615747130329" x2="305.73699957598353" y2="56.726487359902677" />
    <line x1="298.19465178676762" y1="70.837227589476356" x2="290.65230399755166" y2="84.947967819050035" />
    <line x1="321.22492287560681" y1="66.009591336331681" x2="312.33579914729319" y2="79.3131051331724" />
    <line x1="267.89018050572497" y1="145.83067411737602" x2="259.00105677741135" y2="159.13418791421674" />
    <line x1="356.02894937934741" y1="52.029742073648805" x2="325.57807173949243" y2="89.134243835060175" />
    <line x1="360.42135623730951" y1="77.57864376269049" x2="349.10764773832477" y2="88.892352261675256" />
    <line x1="315.16652224137044" y1="122.83347775862953" x2="281.22539674441617" y2="156.77460325558383" />
    <line x1="269.91168824543144" y1="168.08831175456857" x2="247.2842712474619" y2="190.7157287525381" />
    <line x1="348.86575616493985" y1="112.42192826050756" x2="324.12942165733222" y2="132.72251335374421" />
    <line x1="332.07986727314614" y1="143.44244830933408" x2="318.77635347630542" y2="152.33157203764773" />
    <line x1="292.169325882624" y1="170.109819494275" x2="278.86581208578326" y2="178.99894322258865" />
    <line x1="381.27351264009729" y1="132.26300042401641" x2="353.05203218094994" y2="147.34769600244835" />
    <line x1="403.77590650225738" y1="142.46331352698203" x2="388.99383398207675" y2="148.58624844482347" />
    <line x1="359.4296889417156" y1="160.83211828050634" x2="315.08347138117381" y2="179.20092303403067" />
    <line x1="285.51932634081265" y1="191.44679286971353" x2="270.73725382063208" y2="197.56972778755497" />
    <line x1="425.69911251815711" y1="156.29850971303614" x2="410.38806714644181" y2="160.94306454910753" />
    <line x1="395.0770217747264" y1="165.58761938517893" x2="364.45493103129576" y2="174.87672905732171" />
    <line x1="383.77192710774273" y1="186.22482590129044" x2="352.38679813483935" y2="192.46771620580654" />
    <line x1="371" y1="219" x2="339" y2="219" />
    <line x1="275" y1="219" x2="259" y2="219" />
    <line x1="386.19103408092906" y1="235.46687957536619" x2="370.268078454174" y2="233.89860533009323" />
    <line x1="364.45493103129576" y1="263.12327094267823" x2="349.14388565958041" y2="258.47871610660684" />
    <line x1="403.77590650225738" y1="295.53668647301794" x2="374.21176146189617" y2="283.29081663733507" />
    <line x1="285.51932634081265" y1="246.55320713028647" x2="270.73725382063208" y2="240.43027221244503" />
    <line x1="381.27351264009735" y1="305.73699957598359" x2="338.94129195137629" y2="283.10995620833569" />
    <line x1="385.29392246050907" y1="330.11404660392037" x2="305.47283967946476" y2="276.77930423403859" />
    <line x1="385.97025792635122" y1="356.02894937934741" x2="373.60209067254743" y2="345.87865683272906" />
    <line x1="361.23392341874364" y1="335.72836428611072" x2="348.86575616493985" y2="325.57807173949243" />
    <line x1="337.79393923934" y1="337.79393923934" x2="326.48023074035524" y2="326.48023074035518" />
    <line x1="303.85281374238571" y1="303.85281374238571" x2="258.59797974644664" y2="258.59797974644664" />
    <line x1="345.87865683272912" y1="373.60209067254743" x2="335.72836428611078" y2="361.23392341874364" />
    <line x1="321.22492287560681" y1="371.99040866366835" x2="312.33579914729319" y2="358.68689486682763" />
    <line x1="294.55755169066589" y1="332.07986727314619" x2="285.66842796235227" y2="318.77635347630542" />
    <line x1="276.77930423403865" y1="305.4728396794647" x2="267.89018050572497" y2="292.169325882624" />
    <line x1="290.65230399755166" y1="353.05203218094994" x2="283.10995620833569" y2="338.94129195137629" />
    <line x1="264.9220118838108" y1="329.86554390135439" x2="258.79907696596933" y2="315.08347138117381" />
    <line x1="246.55320713028647" y1="285.51932634081265" x2="234.3073372946036" y2="255.95518130045147" />
    <line x1="281.70149028696386" y1="425.69911251815711" x2="272.41238061482107" y2="395.0770217747264" />
    <line x1="267.76782577874968" y1="379.76597640301111" x2="258.4787161066069" y2="349.14388565958041" />
    <line x1="248.65372894645154" y1="368.079362621291" x2="242.41083864193544" y2="336.69423364838764" />
    <line x1="239.28939348967737" y1="321.001669161936" x2="233.04650318516127" y2="289.61654018903261" />
    <line x1="240.17170231118513" y1="433.95990096119453" x2="238.60342806591217" y2="418.03694533443934" />
    <line x1="237.03515382063918" y1="402.11398970768425" x2="235.46687957536622" y2="386.19103408092906" />
    <line x1="219.00000000000003" y1="419" x2="219.00000000000003" y2="403" />
    <line x1="219.00000000000003" y1="371" x2="219.00000000000003" y2="355" />
    <line x1="219.00000000000003" y1="339" x2="219" y2="307" />
    <line x1="219" y1="291" x2="219" y2="243" />
    <line x1="197.82829768881493" y1="433.95990096119453" x2="199.39657193408789" y2="418.03694533443939" />
    <line x1="176.86049044451627" y1="430.84962056709776" x2="179.98193559677432" y2="415.1570560806461" />
    <line x1="183.1033807490324" y1="399.46449159419438" x2="189.34627105354849" y2="368.079362621291" />
    <line x1="198.71060651032266" y1="321.001669161936" x2="201.83205166258071" y2="305.30910467548426" />
    <line x1="165.58761938517898" y1="395.0770217747264" x2="174.87672905732177" y2="364.45493103129576" />
    <line x1="142.46331352698206" y1="403.77590650225738" x2="154.70918336266493" y2="374.21176146189623" />
    <line x1="173.07798811618923" y1="329.86554390135444" x2="179.20092303403067" y2="315.08347138117381" />
    <line x1="185.3238579518721" y1="300.30139886099323" x2="203.6926627053964" y2="255.95518130045147" />
    <line x1="132.26300042401644" y1="381.27351264009735" x2="154.89004379166431" y2="338.94129195137629" />
    <line x1="107.88595339607961" y1="385.29392246050907" x2="116.77507712439324" y2="371.9904086636684" />
    <line x1="134.55332458102049" y1="345.38338106998691" x2="152.33157203764776" y2="318.77635347630547" />
    <line x1="161.22069576596141" y1="305.47283967946476" x2="170.10981949427503" y2="292.169325882624" />
    <line x1="102.27163571388927" y1="361.23392341874364" x2="122.57222080712592" y2="336.49758891113606" />
    <line x1="66.264935263705752" y1="371.73506473629431" x2="88.892352261675256" y2="349.10764773832477" />
    <line x1="100.20606076066002" y1="337.79393923934003" x2="111.51976925964479" y2="326.48023074035524" />
    <line x1="156.77460325558383" y1="281.22539674441617" x2="168.08831175456857" y2="269.91168824543144" />
    <line x1="179.40202025355336" y1="258.59797974644664" x2="202.02943725152286" y2="235.97056274847714" />
    <line x1="64.39790932745268" y1="345.87865683272918" x2="89.134243835060232" y2="325.57807173949254" />
    <line x1="66.009591336331681" y1="321.22492287560681" x2="79.3131051331724" y2="312.33579914729319" />
    <line x1="132.5271603205353" y1="276.77930423403865" x2="159.13418791421674" y2="259.00105677741135" />
    <line x1="42.615747130329" y1="313.27934736519956" x2="56.726487359902706" y2="305.73699957598359" />
    <line x1="70.837227589476356" y1="298.19465178676762" x2="99.058708048623728" y2="283.10995620833569" />
    <line x1="49.006166017923277" y1="289.41375155517665" x2="78.57031105828446" y2="277.16788171949372" />
    <line x1="93.352383578465037" y1="271.04494680165226" x2="137.69860113900677" y2="252.67614204812796" />
    <line x1="152.48067365918737" y1="246.5532071302865" x2="167.26274617936795" y2="240.43027221244506" />
    <line x1="27.611932853558244" y1="277.05693545089247" x2="42.922978225273567" y2="272.41238061482107" />
    <line x1="73.545068968704271" y1="263.12327094267829" x2="88.8561143404196" y2="258.4787161066069" />
    <line x1="85.613201865160676" y1="245.53228379419349" x2="101.30576635161236" y2="242.41083864193544" />
    <line x1="116.99833083806405" y1="239.28939348967737" x2="148.38345981096742" y2="233.04650318516127" />
    <line x1="4.0400990388054652" y1="240.17170231118507" x2="19.963054665560605" y2="238.60342806591208" />
    <line x1="67.731921545826054" y1="233.89860533009318" x2="83.654877172581223" y2="232.33033108482022" />
    <line x1="3" y1="219.00000000000003" x2="19" y2="219.00000000000003" />
    <line x1="51" y1="219.00000000000003" x2="83" y2="219.00000000000003" />
    <line x1="99" y1="219.00000000000003" x2="115" y2="219.00000000000003" />
    <line x1="19.963054665560605" y1="199.39657193408797" x2="35.886010292315774" y2="200.96484617936093" />
    <line x1="67.731921545826054" y1="204.10139466990688" x2="83.654877172581223" y2="205.66966891517984" />
    <line x1="7.1503794329022412" y1="176.8604904445163" x2="22.8429439193539" y2="179.98193559677435" />
    <line x1="38.535508405805615" y1="183.1033807490324" x2="54.228072892257273" y2="186.22482590129044" />
    <line x1="42.922978225273567" y1="165.58761938517898" x2="58.234023596988891" y2="170.23217422125038" />
    <line x1="49.006166017923249" y1="148.58624844482344" x2="78.570311058284432" y2="160.83211828050634" />
    <line x1="108.1344560986456" y1="173.0779881161892" x2="137.69860113900677" y2="185.32385795187207" />
    <line x1="152.48067365918735" y1="191.44679286971353" x2="167.26274617936795" y2="197.56972778755497" />
    <line x1="42.615747130329" y1="124.72065263480049" x2="56.726487359902677" y2="132.26300042401644" />
    <line x1="70.837227589476356" y1="139.80534821323241" x2="84.947967819050035" y2="147.34769600244837" />
    <line x1="52.706077539490906" y1="107.88595339607963" x2="79.313105133172371" y2="125.66420085270688" />
    <line x1="105.92013272685382" y1="143.44244830933417" x2="119.22364652369454" y2="152.33157203764779" />
    <line x1="132.52716032053527" y1="161.22069576596141" x2="145.83067411737602" y2="170.10981949427503" />
    <line x1="76.766076581256414" y1="102.27163571388921" x2="113.87057834266778" y2="132.72251335374421" />
    <line x1="122.83347775862951" y1="122.83347775862956" x2="145.46089475659903" y2="145.46089475659909" />
    <line x1="156.7746032555838" y1="156.77460325558383" x2="168.08831175456857" y2="168.08831175456859" />
    <line x1="179.40202025355333" y1="179.40202025355336" x2="190.7157287525381" y2="190.7157287525381" />
    <line x1="112.42192826050749" y1="89.134243835060232" x2="122.57222080712582" y2="101.50241108886402" />
    <line x1="116.77507712439319" y1="66.009591336331681" x2="134.55332458102046" y2="92.616618930013118" />
    <line x1="143.44244830933411" y1="105.92013272685385" x2="152.33157203764773" y2="119.22364652369457" />
    <line x1="161.22069576596138" y1="132.5271603205353" x2="178.99894322258865" y2="159.13418791421674" />
    <line x1="124.72065263480042" y1="42.615747130329027" x2="139.80534821323235" y2="70.837227589476385" />
    <line x1="142.46331352698192" y1="34.2240934977427" x2="148.58624844482335" y2="49.006166017923277" />
    <line x1="154.70918336266482" y1="63.788238538103855" x2="160.83211828050625" y2="78.57031105828446" />
    <line x1="185.32385795187204" y1="137.69860113900677" x2="203.69266270539637" y2="182.04481869954856" />
    <line x1="174.87672905732171" y1="73.545068968704271" x2="179.5212838933931" y2="88.8561143404196" />
    <line x1="176.86049044451619" y1="7.1503794329022412" x2="179.98193559677426" y2="22.842943919353928" />
    <line x1="183.10338074903231" y1="38.535508405805615" x2="186.22482590129039" y2="54.2280728922573" />
    <line x1="198.71060651032261" y1="116.99833083806405" x2="204.95349681483873" y2="148.38345981096742" />
    <line x1="199.39657193408789" y1="19.963054665560605" x2="200.96484617936088" y2="35.886010292315774" />
    <line x1="202.53312042463384" y1="51.808965919070914" x2="205.66966891517978" y2="83.654877172581223" />
  </g>
  <path fill="none" stroke="#ff0000" stroke-width="2" stroke-linecap="square" stroke-linejoin="round" d="M 229.59861765472229,3.2601814596827694 L 229.20607626010295,11.25054510932415 A 208,208 0 0,0 188.48006131328464,13.251285927325569 L 190.82774890457043,29.078110086762081 A 192,192 0 0,0 172.34780545857328,32.753999386647564 L 176.23548833702552,48.274499437760284 A 176,176 0 0,0 143.75030355627027,59.897884410274 L 150.59118505115481,74.361713100249091 A 160,160 0 0,0 136.74356092908448,81.763422399956482 L 120.29227311490141,54.316106879947768 A 192,192 0 0,0 104.62573353745283,64.784153955716164 L 95.094544665573892,51.932833452025847 A 208,208 0 0,0 23.158834441931646,148.92691049441834 L 38.22353948485997,154.31714814869383 A 192,192 0 0,0 32.753999386647536,172.34780545857336 L 63.794999488872946,180.12317121547778 A 160,160 0 0,0 59.192727007172408,211.14917210761317 L 91.154181605737932,212.71933768609054 A 128,128 0 0,1 106.11407816341055,158.66121768627232 L 120.22481839298423,166.20356547548829 A 112,112 0 0,1 132.42282922337347,147.9479521736717 L 157.15916373098105,168.24853726690836 A 80,80 0 0,0 139.38522186622424,226.84137122636483 L 107.53931061271395,229.97791971691078 A 112,112 0 0,0 111.82268239799261,251.51188385249981 L 96.51163702627727,256.1564386885712 A 128,128 0 0,0 98.482359656573337,262.12190123420413 L 83.417654613645,267.51213888847968 A 144,144 0 0,0 88.825541790224179,280.56793345396068 L 45.434055720298915,301.09057793861427 A 192,192 0 0,1 38.22353948486,283.68285185130622 L 53.288244527788351,278.29261419703073 A 176,176 0 0,1 43.211999707889646,227.63591068162558 L 27.231272408606912,228.42099347086426 A 192,192 0 0,0 32.753999386647564,265.6521945414267 L 17.233499335534873,269.53987741987896 A 208,208 0 0,0 64.882165926168568,358.68426260817989 L 100.44781994320658,326.44943277552295 A 160,160 0 0,1 81.763422399956482,301.25643907091546 L 95.487080159960826,293.03079516382394 A 144,144 0 0,0 133.21930015308959,334.66188453321286 L 123.68811128121068,347.51320503690317 A 160,160 0 0,0 136.74356092908454,356.23657760004357 L 128.51791702199301,369.96023536004793 A 176,176 0 0,1 114.15692240933174,360.36452554059349 L 104.62573353745282,373.21584604428381 A 192,192 0 0,1 90.060680669372459,361.26261606815217 L 79.315737391820164,373.11783407383149 A 208,208 0 0,0 112.06662920780991,397.40755088005665 L 120.29227311490146,383.68389312005229 A 192,192 0 0,0 136.9094220613859,392.56594427970117 L 150.59118505115492,363.63828689975094 A 160,160 0 0,0 165.09762345724479,369.64705042928335 L 170.48786111152032,354.582345386355 A 144,144 0 0,0 197.87081167842794,361.44141743492844 L 195.52312408714215,377.26824159436495 A 160,160 0 0,0 257.87682878452222,374.205000511127 L 250.1014630276178,343.16400040890164 A 128,128 0 0,0 262.12190123420419,339.51764034342665 L 272.90237654275523,369.6470504292833 A 160,160 0 0,0 326.44943277552295,337.55218005679342 L 337.1943760530753,349.40739806247279 A 176,176 0 0,1 323.84307759066826,360.36452554059349 L 333.37426646254721,373.21584604428381 A 192,192 0 0,1 283.68285185130628,399.77646051514 L 289.07308950558183,414.84116555806827 A 208,208 0 0,0 358.68426260817989,373.11783407383143 L 347.93931933062754,361.26261606815211 A 192,192 0 0,0 373.21584604428381,333.37426646254721 L 386.06716654797413,342.90545533442616 A 208,208 0 0,0 407.02977296967623,307.93145943349862 L 392.56594427970117,301.0905779386141 A 192,192 0 0,1 383.68389312005229,317.70772688509857 L 328.78926208003486,284.80515125673236 A 128,128 0 0,0 341.48836297372276,256.15643868857114 L 326.17731760200741,251.51188385249975 A 112,112 0 0,0 330.46068938728604,208.0220802830892 L 346.38364501404118,206.45380603781621 A 128,128 0 0,0 343.16400040890164,187.8985369723822 L 389.72550056223974,176.23548833702554 A 176,176 0 0,1 389.72550056223974,261.76451166297443 L 405.24600061335241,265.65219454142664 A 192,192 0 0,0 399.77646051514,154.31714814869375 L 414.84116555806833,148.92691049441822 A 208,208 0 0,0 358.68426260817978,64.882165926168511 L 337.19437605307525,88.592601937527178 A 176,176 0 0,1 369.96023536004788,128.51791702199296 L 356.23657760004357,136.74356092908454 A 160,160 0 0,0 347.51320503690317,123.68811128121065 L 334.66188453321286,133.21930015308959 A 144,144 0 0,1 349.17445820977582,157.43206654603938 L 334.71062951980076,164.27294804092389 A 128,128 0 0,0 331.88592183658943,158.66121768627227 L 317.77518160701572,166.20356547548823 A 112,112 0 0,0 305.57717077662653,147.9479521736717 L 293.20900352282274,158.09824472029004 A 96,96 0 0,1 293.20900352282274,279.90175527970996 L 317.94533803043032,300.20234037294659 A 128,128 0 0,1 300.20234037294665,317.94533803043032 L 290.05204782632831,305.57717077662653 A 112,112 0 0,1 271.79643452451177,317.77518160701572 L 264.2540867352958,303.66444137744207 A 96,96 0 0,1 246.86732901642839,310.86627223029205 L 251.51188385249978,326.17731760200741 A 112,112 0 0,1 229.9779197169108,330.46068938728604 L 226.84137122636486,298.61477813377576 A 80,80 0 0,1 195.77722581964304,295.5552268585767 L 200.42178065571443,280.24418148686135 A 64,64 0 0,0 206.51421939096778,281.77025794580675 L 212.75710969548391,250.38512897290337 A 32,32 0 0,1 206.75413016431713,248.56414504036118 L 209.81559762323786,241.17310878027089" />
  <type>Circular</type>
</svg>