<?xml version="1.0" encoding="utf-8" standalone="no"?>
<!DOCTYPE svg PUBLIC "-//W3C//DTD SVG 1.1//EN" "http://www.w3.org/Graphics/SVG/1.1/DTD/svg11.dtd"[]>
<svg width="436" height="436" version="1.1" xmlns="http://www.w3.org/2000/svg">
  <title>27 cells diameter theta maze</title>
  <g fill="none" stroke="#000000" stroke-width="2" stroke-linecap="square">
    <path d="M 202.02943725152286,235.97056274847714 A 24,24 0 1,1 219,243" />
    <path d="M 234.3073372946036,182.04481869954853 A 40,40 0 0,1 247.2842712474619,190.7157287525381" />
    <path d="M 259,219 A 40,40 0 0,1 255.95518130045147,234.3073372946036" />
    <path d="M 247.2842712474619,247.2842712474619 A 40,40 0 0,1 234.3073372946036,255.95518130045147" />
    <path d="M 219,259 A 40,40 0 0,1 190.7157287525381,247.2842712474619" />
    <path d="M 182.04481869954853,234.3073372946036 A 40,40 0 0,1 190.7157287525381,190.7157287525381" />
    <path d="M 219,163 A 56,56 0 0,1 270.73725382063208,197.56972778755497" />
    <path d="M 258.59797974644664,258.59797974644664 A 56,56 0 0,1 240.43027221244503,270.73725382063208" />
    <path d="M 197.569727787555,270.73725382063208 A 56,56 0 0,1 179.40202025355336,258.59797974644664" />
    <path d="M 167.26274617936795,240.43027221244506 A 56,56 0 0,1 197.56972778755494,167.26274617936795" />
    <path d="M 191.44679286971348,152.48067365918737 A 72,72 0 0,1 246.55320713028647,152.48067365918735" />
    <path d="M 259.00105677741135,159.13418791421674 A 72,72 0 0,1 289.61654018903261,204.95349681483876" />
    <path d="M 291,219 A 72,72 0 0,1 259.00105677741135,278.86581208578326" />
    <path d="M 246.55320713028647,285.51932634081265 A 72,72 0 0,1 233.04650318516127,289.61654018903261" />
    <path d="M 219,291 A 72,72 0 0,1 191.44679286971353,285.51932634081265" />
    <path d="M 178.99894322258865,278.86581208578326 A 72,72 0 0,1 152.48067365918737,246.5532071302865" />
    <path d="M 147,219 A 72,72 0 0,1 152.48067365918735,191.44679286971353" />
    <path d="M 159.13418791421674,178.99894322258865 A 72,72 0 0,1 178.99894322258865,159.13418791421674" />
    <path d="M 236.16794833741929,132.69089532451574 A 88,88 0 0,1 252.6761420481279,137.69860113900677" />
    <path d="M 300.30139886099323,185.3238579518721 A 88,88 0 0,1 307,219" />
    <path d="M 281.22539674441617,281.22539674441617 A 88,88 0 0,1 252.6761420481279,300.30139886099323" />
    <path d="M 201.83205166258071,305.30910467548426 A 88,88 0 0,1 156.77460325558383,281.22539674441617" />
    <path d="M 145.83067411737602,267.89018050572497 A 88,88 0 0,1 132.69089532451574,236.16794833741932" />
    <path d="M 131,219.00000000000003 A 88,88 0 0,1 137.69860113900677,185.32385795187207" />
    <path d="M 185.32385795187204,137.69860113900677 A 88,88 0 0,1 201.83205166258068,132.69089532451574" />
    <path d="M 323,219 A 104,104 0 0,1 321.001669161936,239.28939348967734" />
    <path d="M 305.47283967946476,276.77930423403859 A 104,104 0 0,1 292.53910524340097,292.53910524340097" />
    <path d="M 239.28939348967737,321.001669161936 A 104,104 0 0,1 198.71060651032266,321.001669161936" />
    <path d="M 145.46089475659909,292.53910524340097 A 104,104 0 0,1 132.5271603205353,276.77930423403865" />
    <path d="M 122.91652861882621,258.79907696596939 A 104,104 0 0,1 115,219.00000000000003" />
    <path d="M 116.99833083806404,198.71060651032266 A 104,104 0 0,1 132.52716032053527,161.22069576596141" />
    <path d="M 145.46089475659903,145.46089475659909 A 104,104 0 0,1 198.71060651032261,116.99833083806405" />
    <path d="M 195.58916135806456,101.30576635161236 A 120,120 0 0,1 303.85281374238571,134.14718625761429" />
    <path d="M 318.77635347630542,152.33157203764773 A 120,120 0 0,1 329.86554390135439,173.07798811618923" />
    <path d="M 336.69423364838764,195.58916135806459 A 120,120 0 0,1 336.69423364838764,242.41083864193539" />
    <path d="M 329.86554390135439,264.92201188381074 A 120,120 0 0,1 242.41083864193544,336.69423364838764" />
    <path d="M 152.33157203764779,318.77635347630547 A 120,120 0 0,1 134.14718625761429,303.85281374238571" />
    <path d="M 101.30576635161235,242.41083864193544 A 120,120 0 0,1 108.1344560986456,173.0779881161892" />
    <path d="M 119.22364652369454,152.33157203764779 A 120,120 0 0,1 173.07798811618915,108.13445609864561" />
    <path d="M 205.66966891517978,83.654877172581223 A 136,136 0 0,1 219,83" />
    <path d="M 232.33033108482024,83.654877172581223 A 136,136 0 0,1 271.0449468016522,93.352383578465" />
    <path d="M 283.10995620833569,99.058708048623714 A 136,136 0 0,1 294.55755169066589,105.92013272685385" />
    <path d="M 305.2774866462558,113.87057834266777 A 136,136 0 0,1 332.07986727314614,143.44244830933411" />
    <path d="M 344.64761642153496,166.9550531983478 A 136,136 0 0,1 349.14388565958041,179.52128389339313" />
    <path d="M 352.38679813483935,192.46771620580654 A 136,136 0 0,1 354.34512282741878,232.33033108482024" />
    <path d="M 352.38679813483935,245.53228379419343 A 136,136 0 0,1 338.94129195137629,283.10995620833569" />
    <path d="M 332.07986727314619,294.55755169066589 A 136,136 0 0,1 305.2774866462558,324.12942165733222" />
    <path d="M 294.55755169066589,332.07986727314619 A 136,136 0 0,1 283.10995620833569,338.94129195137629" />
    <path d="M 258.4787161066069,349.14388565958041 A 136,136 0 0,1 219.00000000000003,355" />
    <path d="M 205.66966891517976,354.34512282741878 A 136,136 0 0,1 192.46771620580654,352.38679813483935" />
    <path d="M 179.52128389339316,349.14388565958041 A 136,136 0 0,1 143.44244830933414,332.07986727314619" />
    <path d="M 132.72251335374423,324.12942165733227 A 136,136 0 0,1 113.87057834266781,305.27748664625585" />
    <path d="M 105.92013272685384,294.55755169066589 A 136,136 0 0,1 93.352383578465037,271.04494680165226" />
    <path d="M 88.8561143404196,258.4787161066069 A 136,136 0 0,1 83.654877172581223,232.33033108482022" />
    <path d="M 83,219.00000000000003 A 136,136 0 0,1 105.92013272685382,143.44244830933414" />
    <path d="M 113.87057834266778,132.72251335374421 A 136,136 0 0,1 132.72251335374415,113.87057834266783" />
    <path d="M 143.44244830933411,105.92013272685385 A 136,136 0 0,1 192.46771620580648,85.613201865160676" />
    <path d="M 189.34627105354844,69.920637378708989 A 152,152 0 0,1 219,67" />
    <path d="M 233.8986053300932,67.731921545826083 A 152,152 0 0,1 248.65372894645151,69.92063737870896" />
    <path d="M 277.16788171949366,78.5703110582844 A 152,152 0 0,1 326.48023074035524,111.51976925964478" />
    <path d="M 345.38338106998685,134.55332458102046 A 152,152 0 0,1 359.4296889417156,160.83211828050634" />
    <path d="M 364.45493103129576,174.87672905732174 A 152,152 0 0,1 368.079362621291,189.34627105354849" />
    <path d="M 370.26807845417392,204.10139466990677 A 152,152 0 0,1 371,219" />
    <path d="M 370.26807845417392,233.89860533009323 A 152,152 0 0,1 364.45493103129576,263.12327094267823" />
    <path d="M 353.05203218094994,290.65230399755166 A 152,152 0 0,1 336.49758891113606,315.42777919287408" />
    <path d="M 326.48023074035524,326.48023074035518 A 152,152 0 0,1 303.44667541897951,345.38338106998685" />
    <path d="M 290.65230399755166,353.05203218094994 A 152,152 0 0,1 263.12327094267829,364.45493103129576" />
    <path d="M 233.89860533009323,370.26807845417392 A 152,152 0 0,1 219.00000000000003,371" />
    <path d="M 204.1013946699068,370.26807845417392 A 152,152 0 0,1 147.34769600244835,353.05203218094994" />
    <path d="M 134.55332458102049,345.38338106998691 A 152,152 0 0,1 122.57222080712592,336.49758891113606" />
    <path d="M 84.947967819050064,290.65230399755171 A 152,152 0 0,1 67.731921545826083,233.89860533009318" />
    <path d="M 67.731921545826054,204.10139466990688 A 152,152 0 0,1 84.947967819050035,147.34769600244837" />
    <path d="M 122.57222080712582,101.50241108886404 A 152,152 0 0,1 134.55332458102046,92.616618930013118" />
    <path d="M 147.34769600244832,84.947967819050064 A 152,152 0 0,1 174.87672905732171,73.545068968704271" />
    <path d="M 251.77517409870956,54.228072892257273 A 168,168 0 0,1 267.76782577874968,58.234023596988919" />
    <path d="M 298.19465178676762,70.837227589476356 A 168,168 0 0,1 367.16277241052364,139.80534821323238" />
    <path d="M 374.21176146189617,154.70918336266493 A 168,168 0 0,1 379.76597640301111,170.23217422125032" />
    <path d="M 374.21176146189617,283.29081663733507 A 168,168 0 0,1 348.86575616493985,325.57807173949243" />
    <path d="M 298.19465178676762,367.16277241052364 A 168,168 0 0,1 283.29081663733507,374.21176146189617" />
    <path d="M 267.76782577874968,379.76597640301111 A 168,168 0 0,1 251.77517409870961,383.77192710774273" />
    <path d="M 235.46687957536622,386.19103408092906 A 168,168 0 0,1 202.53312042463381,386.19103408092906" />
    <path d="M 186.22482590129044,383.77192710774273 A 168,168 0 0,1 125.66420085270688,358.68689486682763" />
    <path d="M 89.134243835060232,325.57807173949249 A 168,168 0 0,1 79.3131051331724,312.33579914729319" />
    <path d="M 63.788238538103855,283.29081663733518 A 168,168 0 0,1 58.234023596988919,267.76782577874968" />
    <path d="M 54.2280728922573,251.77517409870961 A 168,168 0 0,1 51,219.00000000000003" />
    <path d="M 63.788238538103855,154.70918336266487 A 168,168 0 0,1 89.1342438350602,112.42192826050754" />
    <path d="M 100.20606076066,100.20606076066004 A 168,168 0 0,1 139.80534821323235,70.837227589476385" />
    <path d="M 186.22482590129039,54.2280728922573 A 168,168 0 0,1 202.53312042463384,51.808965919070914" />
    <path d="M 116.77507712439319,66.009591336331681 A 184,184 0 0,1 254.8966192509676,38.535508405805587" />
    <path d="M 321.22492287560681,66.009591336331681 A 184,184 0 0,1 335.72836428611078,76.766076581256385" />
    <path d="M 381.27351264009735,132.26300042401641 A 184,184 0 0,1 399.46449159419444,183.1033807490324" />
    <path d="M 402.11398970768425,200.96484617936082 A 184,184 0 0,1 402.11398970768425,237.03515382063915" />
    <path d="M 399.46449159419444,254.8966192509676 A 184,184 0 0,1 388.99383398207681,289.41375155517653" />
    <path d="M 371.99040866366835,321.22492287560675 A 184,184 0 0,1 361.23392341874364,335.72836428611072" />
    <path d="M 321.22492287560681,371.99040866366835 A 184,184 0 0,1 305.73699957598359,381.27351264009729" />
    <path d="M 289.41375155517653,388.99383398207675 A 184,184 0 0,1 272.41238061482107,395.0770217747264" />
    <path d="M 200.96484617936085,402.11398970768425 A 184,184 0 0,1 165.58761938517898,395.0770217747264" />
    <path d="M 148.58624844482353,388.99383398207681 A 184,184 0 0,1 116.77507712439325,371.99040866366835" />
    <path d="M 88.892352261675285,349.10764773832477 A 184,184 0 0,1 49.006166017923277,289.41375155517665" />
    <path d="M 42.922978225273567,272.41238061482107 A 184,184 0 0,1 38.535508405805587,183.1033807490324" />
    <path d="M 42.922978225273539,165.58761938517898 A 184,184 0 0,1 49.006166017923249,148.58624844482344" />
    <path d="M 56.726487359902677,132.26300042401647 A 184,184 0 0,1 76.766076581256414,102.27163571388921" />
    <path d="M 199.39657193408789,19.963054665560634 A 200,200 0 0,1 219,19" />
    <path d="M 277.05693545089247,27.611932853558216 A 200,200 0 0,1 295.53668647301794,34.224093497742643" />
    <path d="M 313.27934736519956,42.615747130329 A 200,200 0 0,1 330.11404660392043,52.706077539490963" />
    <path d="M 345.87865683272912,64.3979093274526 A 200,200 0 0,1 373.60209067254738,92.1213431672709" />
    <path d="M 410.38806714644181,160.94306454910753 A 200,200 0 0,1 418.03694533443934,199.39657193408783" />
    <path d="M 419,219 A 200,200 0 0,1 410.38806714644181,277.05693545089241" />
    <path d="M 395.384252869671,313.27934736519956 A 200,200 0 0,1 330.11404660392043,385.29392246050907" />
    <path d="M 313.27934736519956,395.38425286967095 A 200,200 0 0,1 219.00000000000003,419" />
    <path d="M 160.94306454910759,410.38806714644181 A 200,200 0 0,1 124.72065263480047,395.384252869671" />
    <path d="M 107.88595339607961,385.29392246050907 A 200,200 0 0,1 92.121343167270936,373.60209067254743" />
    <path d="M 52.706077539490934,330.11404660392043 A 200,200 0 0,1 42.615747130329027,313.27934736519956" />
    <path d="M 27.611932853558244,277.05693545089247 A 200,200 0 0,1 22.842943919353928,258.01806440322571" />
    <path d="M 19.963054665560634,238.60342806591208 A 200,200 0 0,1 19,219.00000000000003" />
    <path d="M 27.611932853558216,160.94306454910759 A 200,200 0 0,1 34.224093497742672,142.463313526982" />
    <path d="M 64.397909327452624,92.121343167270879 A 200,200 0 0,1 77.578643762690461,77.578643762690518" />
    <path d="M 107.88595339607956,52.706077539490963 A 200,200 0 0,1 124.72065263480042,42.615747130329027" />
    <path d="M 142.46331352698192,34.2240934977427 A 200,200 0 0,1 160.9430645491075,27.611932853558244" />
    <path d="M 240.1717023111851,4.0400990388054652 A 216,216 0 1,1 219,3" />
  </g>
  <g fill="none" stroke="#000000" stroke-width="2" stroke-linecap="butt">
    <line x1="219" y1="3" x2="219" y2="19" />
    <line x1="219" y1="35" x2="219" y2="67" />
    <line x1="219" y1="83" x2="219" y2="131" />
    <line x1="219" y1="179" x2="219" y2="195" />
    <line x1="238.60342806591211" y1="19.963054665560605" x2="233.8986053300932" y2="67.731921545826054" />
    <line x1="258.01806440322565" y1="22.8429439193539" x2="254.8966192509676" y2="38.535508405805615" />
    <line x1="251.77517409870956" y1="54.228072892257273" x2="245.53228379419343" y2="85.613201865160647" />
    <line x1="239.28939348967734" y1="116.99833083806404" x2="233.04650318516124" y2="148.3834598109674" />
    <line x1="277.05693545089247" y1="27.611932853558244" x2="263.12327094267829" y2="73.545068968704271" />
    <line x1="295.53668647301794" y1="34.224093497742643" x2="283.29081663733507" y2="63.788238538103826" />
    <line x1="277.16788171949366" y1="78.5703110582844" x2="271.0449468016522" y2="93.352383578465009" />
    <line x1="258.79907696596933" y1="122.91652861882618" x2="252.6761420481279" y2="137.69860113900677" />
    <line x1="240.43027221244503" y1="167.26274617936795" x2="234.3073372946036" y2="182.04481869954853" />
    <line x1="313.27934736519956" y1="42.615747130329" x2="298.19465178676762" y2="70.837227589476356" />
    <line x1="294.55755169066589" y1="105.92013272685385" x2="259.00105677741135" y2="159.13418791421674" />
    <line x1="356.02894937934741" y1="52.029742073648805" x2="325.57807173949243" y2="89.134243835060175" />
    <line x1="360.42135623730951" y1="77.57864376269049" x2="349.10764773832477" y2="88.892352261675256" />
    <line x1="303.85281374238571" y1="134.14718625761429" x2="281.22539674441617" y2="156.77460325558383" />
    <line x1="247.2842712474619" y1="190.7157287525381" x2="235.97056274847714" y2="202.02943725152286" />
    <line x1="373.60209067254743" y1="92.121343167270908" x2="361.23392341874364" y2="102.27163571388923" />
    <line x1="336.497588911136" y1="122.57222080712589" x2="324.12942165733222" y2="132.72251335374421" />
    <line x1="385.29392246050907" y1="107.88595339607954" x2="358.68689486682763" y2="125.66420085270681" />
    <line x1="332.07986727314614" y1="143.44244830933408" x2="278.86581208578326" y2="178.99894322258865" />
    <line x1="409.49499309924465" y1="117.17830484558448" x2="395.384252869671" y2="124.72065263480044" />
    <line x1="367.16277241052364" y1="139.80534821323238" x2="338.94129195137629" y2="154.89004379166431" />
    <line x1="403.77590650225738" y1="142.46331352698203" x2="374.21176146189617" y2="154.7091833626649" />
    <line x1="359.4296889417156" y1="160.83211828050634" x2="344.64761642153496" y2="166.9550531983478" />
    <line x1="315.08347138117381" y1="179.20092303403067" x2="300.30139886099323" y2="185.3238579518721" />
    <line x1="270.73725382063208" y1="197.56972778755497" x2="255.95518130045147" y2="203.6926627053964" />
    <line x1="410.38806714644181" y1="160.94306454910753" x2="395.0770217747264" y2="165.58761938517893" />
    <line x1="379.76597640301111" y1="170.23217422125032" x2="364.45493103129576" y2="174.87672905732171" />
    <line x1="399.46449159419438" y1="183.1033807490324" x2="383.77192710774273" y2="186.22482590129044" />
    <line x1="368.079362621291" y1="189.34627105354849" x2="321.001669161936" y2="198.71060651032266" />
    <line x1="305.30910467548426" y1="201.83205166258071" x2="289.61654018903261" y2="204.95349681483876" />
    <line x1="418.03694533443934" y1="199.39657193408783" x2="370.26807845417392" y2="204.10139466990677" />
    <line x1="387" y1="219" x2="371" y2="219" />
    <line x1="323" y1="219" x2="307" y2="219" />
    <line x1="291" y1="219" x2="243" y2="219" />
    <line x1="418.03694533443939" y1="238.60342806591214" x2="402.11398970768425" y2="237.03515382063915" />
    <line x1="386.19103408092906" y1="235.46687957536619" x2="370.268078454174" y2="233.89860533009323" />
    <line x1="383.77192710774273" y1="251.77517409870953" x2="352.38679813483935" y2="245.53228379419343" />
    <line x1="336.69423364838764" y1="242.41083864193539" x2="305.30910467548426" y2="236.16794833741929" />
    <line x1="395.0770217747264" y1="272.412380614821" x2="379.76597640301111" y2="267.76782577874962" />
    <line x1="418.55797902243796" y1="301.6596213908594" x2="374.21176146189617" y2="283.29081663733507" />
    <line x1="359.4296889417156" y1="277.16788171949361" x2="300.30139886099323" y2="252.6761420481279" />
    <line x1="285.51932634081265" y1="246.55320713028647" x2="270.73725382063208" y2="240.43027221244503" />
    <line x1="395.384252869671" y1="313.27934736519956" x2="381.27351264009735" y2="305.73699957598359" />
    <line x1="398.59743625734984" y1="339.00317033223405" x2="385.29392246050907" y2="330.11404660392037" />
    <line x1="345.38338106998691" y1="303.44667541897951" x2="332.07986727314619" y2="294.55755169066583" />
    <line x1="305.47283967946476" y1="276.77930423403859" x2="278.86581208578326" y2="259.00105677741135" />
    <line x1="361.23392341874364" y1="335.72836428611072" x2="348.86575616493985" y2="325.57807173949243" />
    <line x1="360.42135623730951" y1="360.42135623730951" x2="326.48023074035524" y2="326.48023074035518" />
    <line x1="247.2842712474619" y1="247.2842712474619" x2="235.97056274847714" y2="235.97056274847714" />
    <line x1="335.72836428611078" y1="361.23392341874364" x2="305.2774866462558" y2="324.12942165733222" />
    <line x1="321.22492287560681" y1="371.99040866366835" x2="303.44667541897957" y2="345.38338106998691" />
    <line x1="294.55755169066589" y1="332.07986727314619" x2="267.89018050572497" y2="292.169325882624" />
    <line x1="313.27934736519956" y1="395.384252869671" x2="305.73699957598359" y2="381.27351264009729" />
    <line x1="298.19465178676762" y1="367.16277241052364" x2="283.10995620833569" y2="338.94129195137629" />
    <line x1="289.41375155517653" y1="388.99383398207675" x2="283.29081663733507" y2="374.21176146189617" />
    <line x1="277.16788171949366" y1="359.4296889417156" x2="271.0449468016522" y2="344.64761642153496" />
    <line x1="264.9220118838108" y1="329.86554390135439" x2="258.79907696596933" y2="315.08347138117381" />
    <line x1="252.6761420481279" y1="300.30139886099323" x2="234.3073372946036" y2="255.95518130045147" />
    <line x1="258.01806440322571" y1="415.1570560806461" x2="245.53228379419349" y2="352.38679813483935" />
    <line x1="239.28939348967737" y1="321.001669161936" x2="236.16794833741932" y2="305.30910467548426" />
    <line x1="238.60342806591217" y1="418.03694533443934" x2="235.46687957536622" y2="386.19103408092906" />
    <line x1="219.00000000000003" y1="403" x2="219.00000000000003" y2="371" />
    <line x1="219.00000000000003" y1="355" x2="219" y2="259" />
    <line x1="197.82829768881493" y1="433.95990096119453" x2="199.39657193408789" y2="418.03694533443939" />
    <line x1="202.53312042463381" y1="386.19103408092906" x2="205.66966891517976" y2="354.34512282741878" />
    <line x1="176.86049044451627" y1="430.84962056709776" x2="179.98193559677432" y2="415.1570560806461" />
    <line x1="192.46771620580654" y1="352.38679813483935" x2="195.58916135806459" y2="336.69423364838764" />
    <line x1="160.94306454910759" y1="410.38806714644181" x2="170.23217422125038" y2="379.76597640301111" />
    <line x1="174.87672905732177" y1="364.45493103129576" x2="179.52128389339316" y2="349.14388565958041" />
    <line x1="136.34037860914063" y1="418.55797902243796" x2="142.46331352698206" y2="403.77590650225738" />
    <line x1="166.9550531983478" y1="344.647616421535" x2="179.20092303403067" y2="315.08347138117381" />
    <line x1="132.26300042401644" y1="381.27351264009735" x2="139.80534821323238" y2="367.16277241052364" />
    <line x1="107.88595339607961" y1="385.29392246050907" x2="116.77507712439324" y2="371.9904086636684" />
    <line x1="125.66420085270687" y1="358.68689486682763" x2="134.55332458102049" y2="345.38338106998691" />
    <line x1="143.44244830933414" y1="332.07986727314619" x2="178.99894322258865" y2="278.86581208578326" />
    <line x1="92.12134316727095" y1="373.60209067254743" x2="112.4219282605076" y2="348.86575616493985" />
    <line x1="122.57222080712592" y1="336.49758891113606" x2="132.72251335374426" y2="324.12942165733227" />
    <line x1="77.578643762690518" y1="360.42135623730951" x2="111.51976925964479" y2="326.48023074035524" />
    <line x1="168.08831175456857" y1="269.91168824543144" x2="179.40202025355336" y2="258.59797974644664" />
    <line x1="190.7157287525381" y1="247.2842712474619" x2="202.02943725152286" y2="235.97056274847714" />
    <line x1="52.02974207364889" y1="356.02894937934752" x2="76.766076581256442" y2="335.72836428611083" />
    <line x1="101.50241108886402" y1="315.4277791928742" x2="113.87057834266781" y2="305.27748664625585" />
    <line x1="79.3131051331724" y1="312.33579914729319" x2="145.83067411737602" y2="267.89018050572497" />
    <line x1="28.505006900755347" y1="320.82169515441552" x2="42.615747130329" y2="313.27934736519956" />
    <line x1="56.726487359902706" y1="305.73699957598359" x2="70.837227589476356" y2="298.19465178676762" />
    <line x1="34.2240934977427" y1="295.53668647301805" x2="49.006166017923277" y2="289.41375155517665" />
    <line x1="63.788238538103855" y1="283.29081663733518" x2="93.352383578465037" y2="271.04494680165226" />
    <line x1="108.13445609864561" y1="264.92201188381085" x2="137.69860113900677" y2="252.67614204812796" />
    <line x1="12.300887481842892" y1="281.70149028696392" x2="58.234023596988919" y2="267.76782577874968" />
    <line x1="54.2280728922573" y1="251.77517409870961" x2="69.920637378708989" y2="248.65372894645157" />
    <line x1="85.613201865160676" y1="245.53228379419349" x2="101.30576635161236" y2="242.41083864193544" />
    <line x1="132.69089532451574" y1="236.16794833741932" x2="148.38345981096742" y2="233.04650318516127" />
    <line x1="19.963054665560605" y1="238.60342806591208" x2="35.886010292315774" y2="237.03515382063912" />
    <line x1="51" y1="219.00000000000003" x2="83" y2="219.00000000000003" />
    <line x1="115" y1="219.00000000000003" x2="131" y2="219.00000000000003" />
    <line x1="19.963054665560605" y1="199.39657193408797" x2="51.808965919070914" y2="202.53312042463389" />
    <line x1="7.1503794329022412" y1="176.8604904445163" x2="22.8429439193539" y2="179.98193559677435" />
    <line x1="38.535508405805615" y1="183.1033807490324" x2="54.228072892257273" y2="186.22482590129044" />
    <line x1="116.99833083806404" y1="198.71060651032266" x2="132.69089532451574" y2="201.83205166258071" />
    <line x1="42.922978225273567" y1="165.58761938517898" x2="73.545068968704243" y2="174.87672905732177" />
    <line x1="19.442020977562095" y1="136.34037860914054" x2="34.224093497742672" y2="142.463313526982" />
    <line x1="108.1344560986456" y1="173.0779881161892" x2="122.91652861882619" y2="179.20092303403064" />
    <line x1="137.69860113900677" y1="185.32385795187207" x2="167.26274617936795" y2="197.56972778755497" />
    <line x1="42.615747130329" y1="124.72065263480049" x2="70.837227589476356" y2="139.80534821323241" />
    <line x1="84.947967819050035" y1="147.34769600244837" x2="99.058708048623714" y2="154.89004379166431" />
    <line x1="39.402563742650187" y1="98.996829667766008" x2="52.706077539490906" y2="107.88595339607963" />
    <line x1="79.313105133172371" y1="125.66420085270688" x2="119.22364652369454" y2="152.33157203764779" />
    <line x1="132.52716032053527" y1="161.22069576596141" x2="159.13418791421674" y2="178.99894322258865" />
    <line x1="64.397909327452624" y1="92.121343167270879" x2="76.766076581256414" y2="102.27163571388921" />
    <line x1="89.1342438350602" y1="112.42192826050754" x2="101.502411088864" y2="122.57222080712587" />
    <line x1="77.578643762690461" y1="77.578643762690518" x2="122.83347775862951" y2="122.83347775862956" />
    <line x1="156.7746032555838" y1="156.77460325558383" x2="168.08831175456857" y2="168.08831175456859" />
    <line x1="190.7157287525381" y1="190.7157287525381" x2="202.02943725152286" y2="202.02943725152286" />
    <line x1="81.971050620652477" y1="52.02974207364889" x2="102.27163571388915" y2="76.766076581256442" />
    <line x1="134.55332458102046" y1="92.616618930013118" x2="143.44244830933411" y2="105.92013272685385" />
    <line x1="161.22069576596138" y1="132.5271603205353" x2="170.109819494275" y2="145.83067411737602" />
    <line x1="124.72065263480042" y1="42.615747130329027" x2="147.34769600244832" y2="84.947967819050064" />
    <line x1="136.34037860914049" y1="19.442020977562123" x2="142.46331352698192" y2="34.2240934977427" />
    <line x1="154.70918336266482" y1="63.788238538103855" x2="160.83211828050625" y2="78.57031105828446" />
    <line x1="173.07798811618915" y1="108.13445609864561" x2="179.20092303403061" y2="122.91652861882621" />
    <line x1="191.44679286971348" y1="152.48067365918737" x2="203.69266270539637" y2="182.04481869954856" />
    <line x1="170.23217422125032" y1="58.234023596988919" x2="179.5212838933931" y2="88.8561143404196" />
    <line x1="176.86049044451619" y1="7.1503794329022412" x2="179.98193559677426" y2="22.842943919353928" />
    <line x1="183.10338074903231" y1="38.535508405805615" x2="186.22482590129039" y2="54.2280728922573" />
    <line x1="192.46771620580648" y1="85.613201865160676" x2="195.58916135806456" y2="101.30576635161236" />
    <line x1="201.83205166258068" y1="132.69089532451574" x2="204.95349681483873" y2="148.38345981096742" />
  </g>
  <path fill="none" stroke="#ff0000" stroke-width="2" stroke-linecap="square" stroke-linejoin="round" d="M 229.59861765472229,3.2601814596827694 L 229.20607626010295,11.25054510932415 A 208,208 0 0,1 307.93145943349867,30.970227030323798 L 287.40881494884513,74.361713100249062 A 160,160 0 0,1 347.51320503690317,123.68811128121065 L 334.66188453321286,133.21930015308959 A 144,144 0 0,1 342.51291984003916,144.96920483617606 L 328.78926208003486,153.19484874326764 A 128,128 0 0,1 343.16400040890164,187.8985369723822 L 358.68450046001431,184.01085409393 A 144,144 0 0,0 354.582345386355,170.48786111152032 L 369.64705042928335,165.09762345724479 A 160,160 0 0,0 363.63828689975094,150.59118505115487 L 378.10211558972605,143.75030355627035 A 176,176 0 0,0 369.96023536004788,128.51791702199296 L 383.68389312005223,120.29227311490143 A 192,192 0 0,1 392.56594427970111,136.90942206138584 L 407.02977296967617,130.06854056650133 A 208,208 0 0,1 414.84116555806833,289.07308950558172 L 399.77646051514,283.68285185130622 A 192,192 0 0,0 408.92188991323792,247.17225109542943 L 393.09506575380146,244.82456350414364 A 176,176 0 0,1 389.72550056223974,261.76451166297443 L 374.205000511127,257.87682878452222 A 160,160 0 0,1 363.63828689975094,287.40881494884513 L 349.17445820977582,280.56793345396056 A 144,144 0 0,1 342.51291984003922,293.03079516382388 L 328.78926208003486,284.80515125673236 A 128,128 0 0,1 295.24951097503151,321.81056402952254 L 304.78069984691041,334.66188453321286 A 144,144 0 0,1 293.03079516382394,342.51291984003916 L 309.48208297800704,369.96023536004788 A 176,176 0 0,1 294.24969644372965,378.10211558972605 L 301.09057793861416,392.56594427970111 A 192,192 0 0,1 265.6521945414267,405.24600061335241 L 261.76451166297448,389.72550056223974 A 176,176 0 0,0 278.29261419703079,384.71175547221162 L 272.90237654275523,369.6470504292833 A 160,160 0 0,1 257.87682878452222,374.205000511127 L 253.98914590607,358.68450046001431 A 144,144 0 0,0 267.51213888847974,354.582345386355 L 262.12190123420419,339.51764034342665 A 128,128 0 0,1 231.54619396218379,346.38364501404118 L 229.9779197169108,330.46068938728604 A 112,112 0 0,0 251.51188385249978,326.17731760200741 L 242.222774180357,295.5552268585767 A 80,80 0 0,1 226.84137122636486,298.61477813377576 L 225.2730969810919,282.69182250702062 A 64,64 0 0,0 231.48578060903222,281.77025794580675 L 225.24289030451612,250.38512897290337 A 32,32 0 0,1 206.75413016431713,248.56414504036118 L 209.81559762323786,241.17310878027089" />
  <type>Circular</type>
</svg>