<?xml version="1.0" encoding="utf-8" standalone="no"?>
<!DOCTYPE svg PUBLIC "-//W3C//DTD SVG 1.1//EN" "http://www.w3.org/Graphics/SVG/1.1/DTD/svg11.dtd"[]>
<svg width="436" height="436" version="1.1" xmlns="http://www.w3.org/2000/svg">
  <title>27 cells diameter theta maze</title>
  <g fill="none" stroke="#000000" stroke-width="2" stroke-linecap="square">
    <path d="M 202.02943725152286,235.97056274847714 A 24,24 0 1,1 219,243" />
    <path d="M 203.69266270539637,182.04481869954856 A 40,40 0 0,1 247.2842712474619,190.7157287525381" />
    <path d="M 255.95518130045147,203.6926627053964 A 40,40 0 0,1 259,219" />
    <path d="M 255.95518130045147,234.3073372946036 A 40,40 0 0,1 234.3073372946036,255.95518130045147" />
    <path d="M 219,259 A 40,40 0 0,1 190.7157287525381,190.7157287525381" />
    <path d="M 197.56972778755494,167.26274617936795 A 56,56 0 0,1 240.43027221244503,167.26274617936795" />
    <path d="M 258.59797974644664,179.40202025355333 A 56,56 0 0,1 270.73725382063208,197.56972778755497" />
    <path d="M 270.73725382063208,240.43027221244503 A 56,56 0 0,1 219,275" />
    <path d="M 197.569727787555,270.73725382063208 A 56,56 0 0,1 179.40202025355336,258.59797974644664" />
    <path d="M 167.26274617936795,240.43027221244506 A 56,56 0 0,1 163,219" />
    <path d="M 152.48067365918735,191.44679286971353 A 72,72 0 0,1 219,147" />
    <path d="M 233.04650318516124,148.3834598109674 A 72,72 0 0,1 246.55320713028647,152.48067365918735" />
    <path d="M 269.91168824543144,168.08831175456857 A 72,72 0 0,1 285.51932634081265,191.44679286971353" />
    <path d="M 291,219 A 72,72 0 0,1 269.91168824543144,269.91168824543144" />
    <path d="M 259.00105677741135,278.86581208578326 A 72,72 0 0,1 233.04650318516127,289.61654018903261" />
    <path d="M 219,291 A 72,72 0 0,1 191.44679286971353,285.51932634081265" />
    <path d="M 178.99894322258865,278.86581208578326 A 72,72 0 0,1 168.08831175456859,269.91168824543144" />
    <path d="M 159.13418791421674,259.00105677741135 A 72,72 0 0,1 152.48067365918737,246.5532071302865" />
    <path d="M 148.3834598109674,233.04650318516127 A 72,72 0 0,1 148.3834598109674,204.95349681483876" />
    <path d="M 219,131 A 88,88 0 0,1 236.16794833741929,132.69089532451574" />
    <path d="M 252.6761420481279,137.69860113900677 A 88,88 0 0,1 292.169325882624,170.109819494275" />
    <path d="M 300.30139886099323,185.3238579518721 A 88,88 0 0,1 307,219" />
    <path d="M 281.22539674441617,281.22539674441617 A 88,88 0 0,1 267.89018050572497,292.169325882624" />
    <path d="M 236.16794833741932,305.30910467548426 A 88,88 0 0,1 156.77460325558383,281.22539674441617" />
    <path d="M 137.69860113900677,252.67614204812796 A 88,88 0 0,1 132.69089532451574,201.83205166258071" />
    <path d="M 156.7746032555838,156.77460325558383 A 88,88 0 0,1 170.109819494275,145.83067411737602" />
    <path d="M 185.32385795187204,137.69860113900677 A 88,88 0 0,1 201.83205166258068,132.69089532451574" />
    <path d="M 198.71060651032261,116.99833083806405 A 104,104 0 0,1 219,115" />
    <path d="M 239.28939348967734,116.99833083806404 A 104,104 0 0,1 258.79907696596933,122.91652861882618" />
    <path d="M 305.4728396794647,161.22069576596135 A 104,104 0 0,1 315.08347138117381,179.20092303403067" />
    <path d="M 321.001669161936,198.71060651032266 A 104,104 0 0,1 323,219" />
    <path d="M 321.001669161936,239.28939348967734 A 104,104 0 0,1 276.77930423403859,305.4728396794647" />
    <path d="M 258.79907696596933,315.08347138117381 A 104,104 0 0,1 239.28939348967737,321.001669161936" />
    <path d="M 219,323 A 104,104 0 0,1 179.20092303403067,315.08347138117381" />
    <path d="M 132.5271603205353,276.77930423403865 A 104,104 0 0,1 122.91652861882621,258.79907696596939" />
    <path d="M 116.99833083806404,239.28939348967737 A 104,104 0 0,1 115,219.00000000000003" />
    <path d="M 116.99833083806404,198.71060651032266 A 104,104 0 0,1 145.46089475659903,145.46089475659909" />
    <path d="M 161.22069576596135,132.5271603205353 A 104,104 0 0,1 179.20092303403061,122.91652861882621" />
    <path d="M 264.9220118838108,108.13445609864559 A 120,120 0 0,1 285.66842796235227,119.22364652369457" />
    <path d="M 303.85281374238571,134.14718625761429 A 120,120 0 0,1 336.69423364838764,195.58916135806459" />
    <path d="M 339,219 A 120,120 0 0,1 336.69423364838764,242.41083864193539" />
    <path d="M 329.86554390135439,264.92201188381074 A 120,120 0 0,1 303.85281374238571,303.85281374238571" />
    <path d="M 285.66842796235227,318.77635347630542 A 120,120 0 0,1 264.9220118838108,329.86554390135439" />
    <path d="M 242.41083864193544,336.69423364838764 A 120,120 0 0,1 219.00000000000003,339" />
    <path d="M 173.07798811618926,329.86554390135439 A 120,120 0 0,1 101.30576635161235,242.41083864193544" />
    <path d="M 99,219.00000000000003 A 120,120 0 0,1 173.07798811618915,108.13445609864561" />
    <path d="M 154.89004379166428,99.058708048623743 A 136,136 0 0,1 245.53228379419343,85.613201865160647" />
    <path d="M 258.4787161066069,88.8561143404196 A 136,136 0 0,1 271.0449468016522,93.352383578465" />
    <path d="M 283.10995620833569,99.058708048623714 A 136,136 0 0,1 324.12942165733222,132.72251335374421" />
    <path d="M 332.07986727314614,143.44244830933411 A 136,136 0 0,1 338.94129195137629,154.89004379166431" />
    <path d="M 349.14388565958041,179.52128389339313 A 136,136 0 0,1 354.34512282741878,205.66966891517973" />
    <path d="M 355,219 A 136,136 0 0,1 352.38679813483935,245.53228379419343" />
    <path d="M 349.14388565958041,258.47871610660684 A 136,136 0 0,1 344.647616421535,271.0449468016522" />
    <path d="M 324.12942165733227,305.27748664625574 A 136,136 0 0,1 271.0449468016522,344.64761642153496" />
    <path d="M 245.53228379419349,352.3867981348393 A 136,136 0 0,1 232.33033108482027,354.34512282741878" />
    <path d="M 219.00000000000003,355 A 136,136 0 0,1 205.66966891517976,354.34512282741878" />
    <path d="M 192.46771620580654,352.38679813483935 A 136,136 0 0,1 179.52128389339316,349.14388565958041" />
    <path d="M 166.9550531983478,344.647616421535 A 136,136 0 0,1 154.89004379166431,338.94129195137629" />
    <path d="M 132.72251335374423,324.12942165733227 A 136,136 0 0,1 113.87057834266781,305.27748664625585" />
    <path d="M 105.92013272685384,294.55755169066589 A 136,136 0 0,1 85.613201865160647,192.46771620580654" />
    <path d="M 93.352383578465009,166.95505319834777 A 136,136 0 0,1 122.83347775862951,122.83347775862956" />
    <path d="M 233.8986053300932,67.731921545826083 A 152,152 0 0,1 263.12327094267829,73.545068968704243" />
    <path d="M 277.16788171949366,78.5703110582844 A 152,152 0 0,1 290.65230399755166,84.947967819050035" />
    <path d="M 315.42777919287414,101.50241108886398 A 152,152 0 0,1 336.497588911136,122.57222080712587" />
    <path d="M 345.38338106998685,134.55332458102046 A 152,152 0 0,1 364.45493103129576,174.87672905732174" />
    <path d="M 368.079362621291,189.34627105354849 A 152,152 0 0,1 370.26807845417392,204.10139466990677" />
    <path d="M 368.079362621291,248.65372894645148 A 152,152 0 0,1 364.45493103129576,263.12327094267823" />
    <path d="M 345.38338106998691,303.44667541897951 A 152,152 0 0,1 336.49758891113606,315.42777919287408" />
    <path d="M 326.48023074035524,326.48023074035518 A 152,152 0 0,1 303.44667541897951,345.38338106998685" />
    <path d="M 290.65230399755166,353.05203218094994 A 152,152 0 0,1 277.16788171949366,359.42968894171554" />
    <path d="M 263.12327094267829,364.45493103129576 A 152,152 0 0,1 219.00000000000003,371" />
    <path d="M 204.1013946699068,370.26807845417392 A 152,152 0 0,1 189.34627105354849,368.079362621291" />
    <path d="M 174.87672905732177,364.45493103129576 A 152,152 0 0,1 160.83211828050636,359.4296889417156" />
    <path d="M 147.34769600244835,353.05203218094994 A 152,152 0 0,1 134.55332458102049,345.38338106998691" />
    <path d="M 122.57222080712592,336.49758891113606 A 152,152 0 0,1 111.51976925964479,326.48023074035524" />
    <path d="M 78.57031105828446,277.16788171949372 A 152,152 0 0,1 73.545068968704243,263.12327094267829" />
    <path d="M 69.920637378708989,248.65372894645157 A 152,152 0 0,1 67.731921545826083,233.89860533009318" />
    <path d="M 67,219.00000000000003 A 152,152 0 0,1 69.92063737870896,189.34627105354849" />
    <path d="M 73.545068968704243,174.87672905732177 A 152,152 0 0,1 78.570311058284432,160.83211828050634" />
    <path d="M 84.947967819050035,147.34769600244837 A 152,152 0 0,1 92.61661893001309,134.55332458102052" />
    <path d="M 111.51976925964475,111.5197692596448 A 152,152 0 0,1 122.57222080712582,101.50241108886404" />
    <path d="M 134.55332458102046,92.616618930013118 A 152,152 0 0,1 174.87672905732171,73.545068968704271" />
    <path d="M 202.53312042463384,51.808965919070914 A 168,168 0 0,1 219,51" />
    <path d="M 251.77517409870956,54.228072892257273 A 168,168 0 0,1 325.57807173949243,89.134243835060175" />
    <path d="M 348.8657561649398,112.42192826050756 A 168,168 0 0,1 367.16277241052364,139.80534821323238" />
    <path d="M 386.19103408092906,202.53312042463378 A 168,168 0 0,1 374.21176146189617,283.29081663733507" />
    <path d="M 367.16277241052364,298.19465178676762 A 168,168 0 0,1 358.68689486682763,312.33579914729313" />
    <path d="M 348.86575616493985,325.57807173949243 A 168,168 0 0,1 325.57807173949243,348.86575616493985" />
    <path d="M 312.33579914729319,358.68689486682763 A 168,168 0 0,1 298.19465178676762,367.16277241052364" />
    <path d="M 283.29081663733507,374.21176146189617 A 168,168 0 0,1 202.53312042463381,386.19103408092906" />
    <path d="M 186.22482590129044,383.77192710774273 A 168,168 0 0,1 170.23217422125038,379.76597640301111" />
    <path d="M 125.66420085270688,358.68689486682763 A 168,168 0 0,1 63.788238538103855,283.29081663733518" />
    <path d="M 58.234023596988919,267.76782577874968 A 168,168 0 0,1 51.808965919070914,235.46687957536616" />
    <path d="M 51.808965919070914,202.53312042463392 A 168,168 0 0,1 58.234023596988891,170.23217422125038" />
    <path d="M 63.788238538103855,154.70918336266487 A 168,168 0 0,1 70.837227589476356,139.80534821323241" />
    <path d="M 89.1342438350602,112.42192826050754 A 168,168 0 0,1 100.20606076066,100.20606076066004" />
    <path d="M 112.42192826050749,89.134243835060261 A 168,168 0 0,1 125.66420085270683,79.3131051331724" />
    <path d="M 170.23217422125032,58.234023596988919 A 168,168 0 0,1 186.22482590129039,54.2280728922573" />
    <path d="M 219,35 A 184,184 0 0,1 237.03515382063915,35.886010292315774" />
    <path d="M 272.41238061482107,42.922978225273567 A 184,184 0 0,1 349.10764773832477,88.892352261675256" />
    <path d="M 371.99040866366829,116.77507712439318 A 184,184 0 0,1 388.99383398207675,148.58624844482347" />
    <path d="M 395.0770217747264,165.58761938517893 A 184,184 0 0,1 399.46449159419444,183.1033807490324" />
    <path d="M 402.11398970768425,200.96484617936082 A 184,184 0 0,1 403,219" />
    <path d="M 402.11398970768425,237.03515382063915 A 184,184 0 0,1 395.0770217747264,272.412380614821" />
    <path d="M 381.27351264009735,305.73699957598359 A 184,184 0 0,1 335.72836428611078,361.23392341874364" />
    <path d="M 305.73699957598359,381.27351264009729 A 184,184 0 0,1 254.89661925096766,399.46449159419438" />
    <path d="M 237.03515382063918,402.11398970768425 A 184,184 0 0,1 219.00000000000003,403" />
    <path d="M 200.96484617936085,402.11398970768425 A 184,184 0 0,1 148.58624844482353,388.99383398207681" />
    <path d="M 132.26300042401644,381.27351264009735 A 184,184 0 0,1 88.892352261675285,349.10764773832477" />
    <path d="M 76.76607658125647,335.72836428611083 A 184,184 0 0,1 49.006166017923277,289.41375155517665" />
    <path d="M 35.886010292315774,237.03515382063912 A 184,184 0 0,1 35.886010292315774,200.96484617936093" />
    <path d="M 42.922978225273539,165.58761938517898 A 184,184 0 0,1 49.006166017923249,148.58624844482344" />
    <path d="M 76.766076581256414,102.27163571388921 A 184,184 0 0,1 88.892352261675228,88.892352261675285" />
    <path d="M 116.77507712439319,66.009591336331681 A 184,184 0 0,1 132.26300042401638,56.726487359902706" />
    <path d="M 148.58624844482335,49.006166017923277 A 184,184 0 0,1 165.5876193851789,42.922978225273567" />
    <path d="M 360.42135623730951,77.57864376269049 A 200,200 0 0,1 373.60209067254738,92.1213431672709" />
    <path d="M 403.77590650225738,142.46331352698203 A 200,200 0 0,1 415.1570560806461,179.98193559677435" />
    <path d="M 419,219 A 200,200 0 0,1 418.03694533443934,238.60342806591214" />
    <path d="M 410.38806714644181,277.05693545089241 A 200,200 0 0,1 395.384252869671,313.27934736519956" />
    <path d="M 385.29392246050907,330.11404660392043 A 200,200 0 0,1 373.60209067254743,345.87865683272906" />
    <path d="M 345.87865683272912,373.60209067254743 A 200,200 0 0,1 313.27934736519956,395.38425286967095" />
    <path d="M 295.536686473018,403.77590650225738 A 200,200 0 0,1 258.01806440322571,415.15705608064604" />
    <path d="M 219.00000000000003,419 A 200,200 0 0,1 199.39657193408789,418.03694533443934" />
    <path d="M 179.98193559677432,415.1570560806461 A 200,200 0 0,1 160.94306454910759,410.38806714644181" />
    <path d="M 142.46331352698206,403.77590650225738 A 200,200 0 0,1 124.72065263480047,395.384252869671" />
    <path d="M 92.121343167270936,373.60209067254743 A 200,200 0 0,1 64.39790932745268,345.87865683272918" />
    <path d="M 52.706077539490934,330.11404660392043 A 200,200 0 0,1 27.611932853558244,277.05693545089247" />
    <path d="M 22.842943919353928,258.01806440322571 A 200,200 0 0,1 19.963054665560634,238.60342806591208" />
    <path d="M 19,219.00000000000003 A 200,200 0 0,1 27.611932853558216,160.94306454910759" />
    <path d="M 52.706077539490906,107.88595339607963 A 200,200 0 0,1 64.397909327452624,92.121343167270879" />
    <path d="M 77.578643762690461,77.578643762690518 A 200,200 0 0,1 107.88595339607956,52.706077539490963" />
    <path d="M 179.98193559677426,22.842943919353928 A 200,200 0 0,1 199.39657193408789,19.963054665560634" />
    <path d="M 240.1717023111851,4.0400990388054652 A 216,216 0 1,1 219,3" />
  </g>
  <g fill="none" stroke="#000000" stroke-width="2" stroke-linecap="butt">
    <line x1="219" y1="3" x2="219" y2="19" />
    <line x1="219" y1="35" x2="219" y2="51" />
    <line x1="219" y1="67" x2="219" y2="83" />
    <line x1="219" y1="99" x2="219" y2="131" />
    <line x1="219" y1="179" x2="219" y2="195" />
    <line x1="240.1717023111851" y1="4.0400990388054652" x2="237.03515382063915" y2="35.886010292315774" />
    <line x1="235.46687957536619" y1="51.808965919070914" x2="233.8986053300932" y2="67.731921545826054" />
    <line x1="258.01806440322565" y1="22.8429439193539" x2="251.77517409870956" y2="54.228072892257273" />
    <line x1="248.65372894645151" y1="69.920637378708989" x2="242.41083864193539" y2="101.30576635161235" />
    <line x1="239.28939348967734" y1="116.99833083806404" x2="233.04650318516124" y2="148.3834598109674" />
    <line x1="281.70149028696386" y1="12.300887481842892" x2="272.41238061482107" y2="42.922978225273567" />
    <line x1="263.12327094267829" y1="73.545068968704271" x2="258.4787161066069" y2="88.8561143404196" />
    <line x1="295.53668647301794" y1="34.224093497742643" x2="289.41375155517653" y2="49.006166017923249" />
    <line x1="271.0449468016522" y1="93.352383578465009" x2="264.9220118838108" y2="108.13445609864559" />
    <line x1="246.55320713028647" y1="152.48067365918735" x2="240.43027221244503" y2="167.26274617936795" />
    <line x1="320.82169515441547" y1="28.505006900755319" x2="313.27934736519956" y2="42.615747130329" />
    <line x1="298.19465178676762" y1="70.837227589476356" x2="283.10995620833569" y2="99.058708048623714" />
    <line x1="330.11404660392043" y1="52.706077539490963" x2="321.22492287560681" y2="66.009591336331681" />
    <line x1="312.33579914729319" y1="79.3131051331724" x2="303.44667541897957" y2="92.616618930013118" />
    <line x1="294.55755169066589" y1="105.92013272685385" x2="259.00105677741135" y2="159.13418791421674" />
    <line x1="356.02894937934741" y1="52.029742073648805" x2="345.87865683272912" y2="64.3979093274526" />
    <line x1="349.10764773832477" y1="88.892352261675256" x2="326.48023074035518" y2="111.51976925964478" />
    <line x1="303.85281374238571" y1="134.14718625761429" x2="292.53910524340097" y2="145.46089475659903" />
    <line x1="258.59797974644664" y1="179.40202025355333" x2="247.2842712474619" y2="190.7157287525381" />
    <line x1="373.60209067254743" y1="92.121343167270908" x2="336.497588911136" y2="122.57222080712589" />
    <line x1="398.59743625734978" y1="98.996829667765908" x2="371.99040866366829" y2="116.77507712439318" />
    <line x1="332.07986727314614" y1="143.44244830933408" x2="318.77635347630542" y2="152.33157203764773" />
    <line x1="409.49499309924465" y1="117.17830484558448" x2="395.384252869671" y2="124.72065263480044" />
    <line x1="374.21176146189617" y1="154.7091833626649" x2="300.30139886099323" y2="185.3238579518721" />
    <line x1="285.51932634081265" y1="191.44679286971353" x2="270.73725382063208" y2="197.56972778755497" />
    <line x1="425.69911251815711" y1="156.29850971303614" x2="410.38806714644181" y2="160.94306454910753" />
    <line x1="395.0770217747264" y1="165.58761938517893" x2="364.45493103129576" y2="174.87672905732171" />
    <line x1="415.1570560806461" y1="179.98193559677435" x2="368.079362621291" y2="189.34627105354849" />
    <line x1="352.38679813483935" y1="192.46771620580654" x2="336.69423364838764" y2="195.58916135806459" />
    <line x1="305.30910467548426" y1="201.83205166258071" x2="289.61654018903261" y2="204.95349681483876" />
    <line x1="433.95990096119453" y1="197.82829768881487" x2="402.11398970768425" y2="200.96484617936082" />
    <line x1="419" y1="219" x2="403" y2="219" />
    <line x1="387" y1="219" x2="371" y2="219" />
    <line x1="355" y1="219" x2="323" y2="219" />
    <line x1="291" y1="219" x2="259" y2="219" />
    <line x1="402.11398970768425" y1="237.03515382063915" x2="386.19103408092906" y2="235.46687957536619" />
    <line x1="370.268078454174" y1="233.89860533009323" x2="354.34512282741878" y2="232.33033108482024" />
    <line x1="415.1570560806461" y1="258.01806440322565" x2="399.46449159419438" y2="254.8966192509676" />
    <line x1="383.77192710774273" y1="251.77517409870953" x2="352.38679813483935" y2="245.53228379419343" />
    <line x1="336.69423364838764" y1="242.41083864193539" x2="289.61654018903261" y2="233.04650318516124" />
    <line x1="403.77590650225738" y1="295.53668647301794" x2="388.99383398207675" y2="289.41375155517653" />
    <line x1="374.21176146189617" y1="283.29081663733507" x2="344.64761642153496" y2="271.0449468016522" />
    <line x1="329.86554390135439" y1="264.9220118838108" x2="315.08347138117381" y2="258.79907696596933" />
    <line x1="300.30139886099323" y1="252.6761420481279" x2="285.51932634081265" y2="246.55320713028647" />
    <line x1="409.49499309924465" y1="320.82169515441552" x2="395.384252869671" y2="313.27934736519956" />
    <line x1="367.16277241052364" y1="298.19465178676762" x2="338.94129195137629" y2="283.10995620833569" />
    <line x1="385.29392246050907" y1="330.11404660392037" x2="358.68689486682763" y2="312.33579914729313" />
    <line x1="345.38338106998691" y1="303.44667541897951" x2="318.77635347630547" y2="285.66842796235221" />
    <line x1="305.47283967946476" y1="276.77930423403859" x2="292.169325882624" y2="267.89018050572497" />
    <line x1="348.86575616493985" y1="325.57807173949243" x2="336.49758891113606" y2="315.42777919287408" />
    <line x1="371.73506473629425" y1="371.73506473629425" x2="360.42135623730951" y2="360.42135623730951" />
    <line x1="345.87865683272912" y1="373.60209067254743" x2="335.72836428611078" y2="361.23392341874364" />
    <line x1="330.11404660392043" y1="385.29392246050907" x2="321.22492287560681" y2="371.99040866366835" />
    <line x1="312.33579914729319" y1="358.68689486682763" x2="294.55755169066589" y2="332.07986727314619" />
    <line x1="276.77930423403865" y1="305.4728396794647" x2="259.00105677741135" y2="278.86581208578326" />
    <line x1="320.82169515441552" y1="409.49499309924465" x2="313.27934736519956" y2="395.384252869671" />
    <line x1="301.6596213908594" y1="418.55797902243796" x2="295.536686473018" y2="403.77590650225738" />
    <line x1="283.29081663733507" y1="374.21176146189617" x2="264.9220118838108" y2="329.86554390135439" />
    <line x1="258.79907696596933" y1="315.08347138117381" x2="252.6761420481279" y2="300.30139886099323" />
    <line x1="246.55320713028647" y1="285.51932634081265" x2="234.3073372946036" y2="255.95518130045147" />
    <line x1="277.05693545089247" y1="410.38806714644176" x2="267.76782577874968" y2="379.76597640301111" />
    <line x1="263.12327094267829" y1="364.4549310312957" x2="258.4787161066069" y2="349.14388565958041" />
    <line x1="245.53228379419349" y1="352.38679813483935" x2="239.28939348967737" y2="321.001669161936" />
    <line x1="236.16794833741932" y1="305.30910467548426" x2="233.04650318516127" y2="289.61654018903261" />
    <line x1="240.17170231118513" y1="433.95990096119453" x2="237.03515382063918" y2="402.11398970768425" />
    <line x1="233.89860533009323" y1="370.26807845417392" x2="232.33033108482027" y2="354.34512282741878" />
    <line x1="219.00000000000003" y1="419" x2="219.00000000000003" y2="403" />
    <line x1="219.00000000000003" y1="371" x2="219.00000000000003" y2="355" />
    <line x1="219.00000000000003" y1="339" x2="219" y2="323" />
    <line x1="219" y1="259" x2="219" y2="243" />
    <line x1="200.96484617936085" y1="402.11398970768425" x2="204.1013946699068" y2="370.268078454174" />
    <line x1="179.98193559677432" y1="415.1570560806461" x2="183.1033807490324" y2="399.46449159419438" />
    <line x1="189.34627105354849" y1="368.079362621291" x2="198.71060651032266" y2="321.001669161936" />
    <line x1="165.58761938517898" y1="395.0770217747264" x2="174.87672905732177" y2="364.45493103129576" />
    <line x1="154.70918336266493" y1="374.21176146189623" x2="173.07798811618923" y2="329.86554390135444" />
    <line x1="185.3238579518721" y1="300.30139886099323" x2="203.6926627053964" y2="255.95518130045147" />
    <line x1="117.17830484558451" y1="409.49499309924465" x2="124.72065263480047" y2="395.384252869671" />
    <line x1="132.26300042401644" y1="381.27351264009735" x2="147.34769600244835" y2="353.05203218094994" />
    <line x1="107.88595339607961" y1="385.29392246050907" x2="116.77507712439324" y2="371.9904086636684" />
    <line x1="134.55332458102049" y1="345.38338106998691" x2="143.44244830933414" y2="332.07986727314619" />
    <line x1="161.22069576596141" y1="305.47283967946476" x2="178.99894322258865" y2="278.86581208578326" />
    <line x1="81.971050620652619" y1="385.97025792635122" x2="92.12134316727095" y2="373.60209067254743" />
    <line x1="77.578643762690518" y1="360.42135623730951" x2="88.892352261675256" y2="349.10764773832477" />
    <line x1="111.51976925964479" y1="326.48023074035524" x2="145.46089475659906" y2="292.53910524340097" />
    <line x1="89.134243835060232" y1="325.57807173949254" x2="113.87057834266781" y2="305.27748664625585" />
    <line x1="52.706077539490963" y1="330.11404660392043" x2="92.616618930013118" y2="303.44667541897957" />
    <line x1="119.22364652369457" y1="285.66842796235227" x2="159.13418791421674" y2="259.00105677741135" />
    <line x1="84.947967819050064" y1="290.65230399755166" x2="99.058708048623728" y2="283.10995620833569" />
    <line x1="63.788238538103855" y1="283.29081663733518" x2="78.57031105828446" y2="277.16788171949372" />
    <line x1="122.91652861882621" y1="258.79907696596939" x2="137.69860113900677" y2="252.67614204812796" />
    <line x1="42.922978225273567" y1="272.41238061482107" x2="58.234023596988919" y2="267.76782577874968" />
    <line x1="7.1503794329022412" y1="261.13950955548381" x2="54.2280728922573" y2="251.77517409870961" />
    <line x1="69.920637378708989" y1="248.65372894645157" x2="116.99833083806405" y2="239.28939348967737" />
    <line x1="132.69089532451574" y1="236.16794833741932" x2="148.38345981096742" y2="233.04650318516127" />
    <line x1="19.963054665560605" y1="238.60342806591208" x2="35.886010292315774" y2="237.03515382063912" />
    <line x1="51" y1="219.00000000000003" x2="67" y2="219.00000000000003" />
    <line x1="147" y1="219" x2="163" y2="219" />
    <line x1="19.963054665560605" y1="199.39657193408797" x2="35.886010292315774" y2="200.96484617936093" />
    <line x1="22.8429439193539" y1="179.98193559677435" x2="38.535508405805615" y2="183.1033807490324" />
    <line x1="69.920637378708989" y1="189.34627105354849" x2="101.30576635161235" y2="195.58916135806462" />
    <line x1="42.922978225273567" y1="165.58761938517898" x2="58.234023596988891" y2="170.23217422125038" />
    <line x1="73.545068968704243" y1="174.87672905732177" x2="88.8561143404196" y2="179.52128389339316" />
    <line x1="19.442020977562095" y1="136.34037860914054" x2="49.006166017923249" y2="148.58624844482344" />
    <line x1="63.788238538103855" y1="154.70918336266487" x2="93.352383578465023" y2="166.95505319834777" />
    <line x1="122.91652861882619" y1="179.20092303403064" x2="137.69860113900677" y2="185.32385795187207" />
    <line x1="152.48067365918735" y1="191.44679286971353" x2="167.26274617936795" y2="197.56972778755497" />
    <line x1="28.505006900755319" y1="117.17830484558452" x2="70.837227589476356" y2="139.80534821323241" />
    <line x1="52.706077539490906" y1="107.88595339607963" x2="66.009591336331624" y2="116.77507712439326" />
    <line x1="79.313105133172371" y1="125.66420085270688" x2="105.92013272685382" y2="143.44244830933417" />
    <line x1="145.83067411737602" y1="170.10981949427503" x2="159.13418791421674" y2="178.99894322258865" />
    <line x1="52.029742073648833" y1="81.971050620652562" x2="64.397909327452624" y2="92.121343167270879" />
    <line x1="101.502411088864" y1="122.57222080712587" x2="113.87057834266778" y2="132.72251335374421" />
    <line x1="66.2649352637057" y1="66.26493526370578" x2="111.51976925964475" y2="111.5197692596448" />
    <line x1="145.46089475659903" y1="145.46089475659909" x2="156.7746032555838" y2="156.77460325558383" />
    <line x1="168.08831175456857" y1="168.08831175456859" x2="190.7157287525381" y2="190.7157287525381" />
    <line x1="92.121343167270808" y1="64.39790932745268" x2="102.27163571388915" y2="76.766076581256442" />
    <line x1="112.42192826050749" y1="89.134243835060232" x2="132.72251335374415" y2="113.87057834266781" />
    <line x1="116.77507712439319" y1="66.009591336331681" x2="125.66420085270684" y2="79.3131051331724" />
    <line x1="134.55332458102046" y1="92.616618930013118" x2="143.44244830933411" y2="105.92013272685385" />
    <line x1="152.33157203764773" y1="119.22364652369457" x2="161.22069576596138" y2="132.5271603205353" />
    <line x1="170.109819494275" y1="145.83067411737602" x2="178.99894322258865" y2="159.13418791421674" />
    <line x1="124.72065263480042" y1="42.615747130329027" x2="147.34769600244832" y2="84.947967819050064" />
    <line x1="142.46331352698192" y1="34.2240934977427" x2="160.83211828050625" y2="78.57031105828446" />
    <line x1="179.20092303403061" y1="122.91652861882621" x2="185.32385795187204" y2="137.69860113900677" />
    <line x1="197.56972778755494" y1="167.26274617936795" x2="203.69266270539637" y2="182.04481869954856" />
    <line x1="156.29850971303608" y1="12.300887481842892" x2="160.9430645491075" y2="27.611932853558244" />
    <line x1="170.23217422125032" y1="58.234023596988919" x2="174.87672905732171" y2="73.545068968704271" />
    <line x1="179.98193559677426" y1="22.842943919353928" x2="192.46771620580648" y2="85.613201865160676" />
    <line x1="195.58916135806456" y1="101.30576635161236" x2="201.83205166258068" y2="132.69089532451574" />
    <line x1="199.39657193408789" y1="19.963054665560605" x2="200.96484617936088" y2="35.886010292315774" />
    <line x1="202.53312042463384" y1="51.808965919070914" x2="204.1013946699068" y2="67.731921545826054" />
  </g>
  <path fill="none" stroke="#ff0000" stroke-width="2" stroke-linecap="square" stroke-linejoin="round" d="M 229.59861765472229,3.2601814596827694 L 228.42099347086426,27.231272408606912 A 192,192 0 0,0 209.57900652913574,27.231272408606912 L 210.36408931837443,43.211999707889646 A 176,176 0 0,0 193.17543649585622,44.904934246198565 L 197.87081167842783,76.558582565071561 A 144,144 0 0,1 211.9342548968518,75.17345430645517 L 211.14917210761311,59.192727007172408 A 160,160 0 0,1 226.85082789238689,59.192727007172408 L 227.63591068162558,43.211999707889646 A 176,176 0 0,1 244.82456350414367,44.904934246198536 L 249.51993868671525,13.251285927325569 A 208,208 0 0,1 269.53987741987891,17.233499335534844 L 261.76451166297443,48.274499437760255 A 176,176 0 0,1 337.19437605307525,88.592601937527178 L 326.44943277552295,100.44781994320654 A 160,160 0 0,0 314.31188871878931,90.486794963096827 L 304.78069984691041,103.33811546678713 A 144,144 0 0,1 334.66188453321286,133.21930015308959 L 321.81056402952254,142.75048902496852 A 128,128 0 0,0 300.20234037294665,120.05466196956967 L 279.90175527970996,144.79099647717726 A 96,96 0 0,1 303.66444137744207,173.7459132647042 L 289.55370114786842,181.28826105392017 A 80,80 0 0,1 295.5552268585767,195.777225819643 L 280.24418148686135,200.4217806557144 A 64,64 0 0,1 282.69182250702062,212.7269030189081 L 298.61477813377576,211.15862877363514 A 80,80 0 0,1 298.61477813377576,226.84137122636486 L 314.5377337605309,228.40964547163782 A 96,96 0 0,0 310.86627223029205,191.13267098357161 L 326.17731760200741,186.48811614750022 A 112,112 0 0,1 330.46068938728604,208.0220802830892 L 346.38364501404118,206.45380603781621 A 128,128 0 0,1 346.8458183942621,212.71933768609048 L 378.80727299282762,211.14917210761311 A 160,160 0 0,0 377.26824159436495,195.52312408714212 L 393.09506575380146,193.17543649585633 A 176,176 0 0,1 394.78800029211038,227.63591068162558 L 410.76872759139309,228.42099347086426 A 192,192 0 0,1 408.92188991323792,247.17225109542943 L 424.74871407267449,249.51993868671522 A 208,208 0 0,1 420.76650066446518,269.53987741987891 L 405.24600061335241,265.65219454142664 A 192,192 0 0,1 399.77646051514,283.68285185130622 L 384.71175547221168,278.29261419703073 A 176,176 0 0,1 378.10211558972605,294.24969644372959 L 334.71062951980076,273.72705195907611 A 128,128 0 0,1 328.78926208003486,284.80515125673236 L 356.23657760004357,301.25643907091546 A 160,160 0 0,1 347.51320503690317,314.31188871878931 L 360.36452554059349,323.84307759066826 A 176,176 0 0,1 323.84307759066826,360.36452554059349 L 314.31188871878936,347.51320503690317 A 160,160 0 0,0 337.55218005679342,326.44943277552295 L 325.6969620511141,315.70448949797066 A 144,144 0 0,0 334.66188453321286,304.78069984691041 L 321.81056402952254,295.24951097503146 A 128,128 0 0,1 300.20234037294665,317.94533803043032 L 290.05204782632831,305.57717077662653 A 112,112 0 0,1 271.79643452451177,317.77518160701572 L 256.71173894607983,289.55370114786842 A 80,80 0 0,1 242.222774180357,295.5552268585767 L 246.86732901642839,310.86627223029205 A 96,96 0 0,1 173.74591326470423,303.66444137744207 L 166.20356547548826,317.77518160701578 A 112,112 0 0,1 147.94795217367172,305.57717077662653 L 158.09824472029004,293.20900352282274 A 96,96 0 0,1 144.79099647717729,279.90175527971 L 169.52733098478484,259.60117018647333 A 64,64 0 0,1 165.7859448126371,254.55649491325454 L 179.08945860947785,245.66737118494092 A 48,48 0 0,1 171.92230654064494,209.63566454322583 L 156.22974205419325,206.51421939096778 A 64,64 0 0,1 157.75581851313862,200.42178065571443 L 127.13372776970795,191.13267098357164 A 96,96 0 0,0 123.46226623946909,209.59035452836224 L 107.53931061271395,208.02208028308928 A 112,112 0 0,1 147.94795217367164,132.4228292233735 L 158.09824472028998,144.79099647717729 A 96,96 0 0,1 173.7459132647042,134.33555862255793 L 181.28826105392017,148.44629885213161 A 80,80 0 0,1 226.84137122636486,139.38522186622424 L 225.27309698109187,155.30817749297938 A 64,64 0 0,0 183.44350508674546,165.7859448126371 L 201.22175254337273,192.39297240631856 A 32,32 0 0,0 206.75413016431713,248.56414504036118 L 209.81559762323786,241.17310878027089" />
  <type>Circular</type>
</svg>