<?xml version="1.0" encoding="utf-8" standalone="no"?>
<!DOCTYPE svg PUBLIC "-//W3C//DTD SVG 1.1//EN" "http://www.w3.org/Graphics/SVG/1.1/DTD/svg11.dtd"[]>
<svg width="436" height="436" version="1.1" xmlns="http://www.w3.org/2000/svg">
  <title>27 cells diameter theta maze</title>
  <g fill="none" stroke="#000000" stroke-width="2" stroke-linecap="square">
    <path d="M 202.02943725152286,235.97056274847714 A 24,24 0 1,1 219,243" />
    <path d="M 219,179 A 40,40 0 0,1 255.95518130045147,203.6926627053964" />
    <path d="M 259,219 A 40,40 0 0,1 203.6926627053964,255.95518130045147" />
    <path d="M 182.04481869954853,234.3073372946036 A 40,40 0 0,1 179,219" />
    <path d="M 182.04481869954853,203.6926627053964 A 40,40 0 0,1 203.69266270539637,182.04481869954856" />
    <path d="M 163,219 A 56,56 0 0,1 219,163" />
    <path d="M 240.43027221244503,167.26274617936795 A 56,56 0 0,1 258.59797974644664,179.40202025355333" />
    <path d="M 270.73725382063208,197.56972778755497 A 56,56 0 0,1 275,219" />
    <path d="M 270.73725382063208,240.43027221244503 A 56,56 0 0,1 258.59797974644664,258.59797974644664" />
    <path d="M 219,275 A 56,56 0 0,1 167.26274617936795,240.43027221244506" />
    <path d="M 233.04650318516124,148.3834598109674 A 72,72 0 0,1 246.55320713028647,152.48067365918735" />
    <path d="M 269.91168824543144,168.08831175456857 A 72,72 0 0,1 285.51932634081265,246.55320713028647" />
    <path d="M 269.91168824543144,269.91168824543144 A 72,72 0 0,1 219,291" />
    <path d="M 204.95349681483876,289.61654018903261 A 72,72 0 0,1 191.44679286971353,285.51932634081265" />
    <path d="M 178.99894322258865,278.86581208578326 A 72,72 0 0,1 159.13418791421674,259.00105677741135" />
    <path d="M 152.48067365918737,246.5532071302865 A 72,72 0 0,1 148.3834598109674,204.95349681483876" />
    <path d="M 152.48067365918735,191.44679286971353 A 72,72 0 0,1 159.13418791421674,178.99894322258865" />
    <path d="M 168.08831175456857,168.08831175456859 A 72,72 0 0,1 178.99894322258865,159.13418791421674" />
    <path d="M 201.83205166258068,132.69089532451574 A 88,88 0 0,1 252.6761420481279,137.69860113900677" />
    <path d="M 267.89018050572497,145.83067411737602 A 88,88 0 0,1 281.22539674441617,156.77460325558383" />
    <path d="M 292.169325882624,170.109819494275 A 88,88 0 0,1 300.30139886099323,252.6761420481279" />
    <path d="M 292.169325882624,267.89018050572497 A 88,88 0 0,1 281.22539674441617,281.22539674441617" />
    <path d="M 252.6761420481279,300.30139886099323 A 88,88 0 0,1 236.16794833741932,305.30910467548426" />
    <path d="M 219,307 A 88,88 0 0,1 201.83205166258071,305.30910467548426" />
    <path d="M 132.69089532451574,236.16794833741932 A 88,88 0 0,1 132.69089532451574,201.83205166258071" />
    <path d="M 137.69860113900677,185.32385795187207 A 88,88 0 0,1 156.7746032555838,156.77460325558383" />
    <path d="M 170.109819494275,145.83067411737602 A 88,88 0 0,1 185.32385795187204,137.69860113900677" />
    <path d="M 179.20092303403061,122.91652861882621 A 104,104 0 0,1 239.28939348967734,116.99833083806404" />
    <path d="M 258.79907696596933,122.91652861882618 A 104,104 0 0,1 292.53910524340097,145.46089475659906" />
    <path d="M 305.4728396794647,161.22069576596135 A 104,104 0 0,1 321.001669161936,198.71060651032266" />
    <path d="M 321.001669161936,239.28939348967734 A 104,104 0 0,1 305.47283967946476,276.77930423403859" />
    <path d="M 276.77930423403859,305.4728396794647 A 104,104 0 0,1 239.28939348967737,321.001669161936" />
    <path d="M 179.20092303403067,315.08347138117381 A 104,104 0 0,1 116.99833083806404,198.71060651032266" />
    <path d="M 173.07798811618915,108.13445609864561 A 120,120 0 0,1 219,99" />
    <path d="M 242.41083864193539,101.30576635161235 A 120,120 0 0,1 318.77635347630542,152.33157203764773" />
    <path d="M 329.86554390135439,173.07798811618923 A 120,120 0 0,1 336.69423364838764,195.58916135806459" />
    <path d="M 329.86554390135439,264.92201188381074 A 120,120 0 0,1 264.9220118838108,329.86554390135439" />
    <path d="M 219.00000000000003,339 A 120,120 0 0,1 119.22364652369457,285.66842796235227" />
    <path d="M 101.30576635161235,242.41083864193544 A 120,120 0 0,1 99,219.00000000000003" />
    <path d="M 101.30576635161235,195.58916135806462 A 120,120 0 0,1 108.1344560986456,173.0779881161892" />
    <path d="M 134.14718625761429,134.14718625761432 A 120,120 0 0,1 152.33157203764773,119.22364652369457" />
    <path d="M 219,83 A 136,136 0 0,1 245.53228379419343,85.613201865160647" />
    <path d="M 271.0449468016522,93.352383578465 A 136,136 0 0,1 283.10995620833569,99.058708048623714" />
    <path d="M 305.2774866462558,113.87057834266777 A 136,136 0 0,1 324.12942165733222,132.72251335374421" />
    <path d="M 332.07986727314614,143.44244830933411 A 136,136 0 0,1 344.64761642153496,166.9550531983478" />
    <path d="M 349.14388565958041,179.52128389339313 A 136,136 0 0,1 354.34512282741878,232.33033108482024" />
    <path d="M 349.14388565958041,258.47871610660684 A 136,136 0 0,1 338.94129195137629,283.10995620833569" />
    <path d="M 332.07986727314619,294.55755169066589 A 136,136 0 0,1 305.2774866462558,324.12942165733222" />
    <path d="M 271.0449468016522,344.64761642153496 A 136,136 0 0,1 245.53228379419349,352.3867981348393" />
    <path d="M 232.33033108482027,354.34512282741878 A 136,136 0 0,1 219.00000000000003,355" />
    <path d="M 205.66966891517976,354.34512282741878 A 136,136 0 0,1 179.52128389339316,349.14388565958041" />
    <path d="M 166.9550531983478,344.647616421535 A 136,136 0 0,1 122.83347775862956,315.16652224137044" />
    <path d="M 105.92013272685384,294.55755169066589 A 136,136 0 0,1 85.613201865160676,245.53228379419349" />
    <path d="M 83.654877172581223,232.33033108482022 A 136,136 0 0,1 83,219.00000000000003" />
    <path d="M 83.654877172581223,205.66966891517984 A 136,136 0 0,1 88.8561143404196,179.52128389339316" />
    <path d="M 93.352383578465009,166.95505319834777 A 136,136 0 0,1 113.87057834266778,132.72251335374421" />
    <path d="M 132.72251335374415,113.87057834266783 A 136,136 0 0,1 179.5212838933931,88.8561143404196" />
    <path d="M 192.46771620580648,85.613201865160676 A 136,136 0 0,1 205.66966891517978,83.654877172581223" />
    <path d="M 204.1013946699068,67.731921545826083 A 152,152 0 0,1 233.8986053300932,67.731921545826083" />
    <path d="M 248.65372894645151,69.92063737870896 A 152,152 0 0,1 277.16788171949366,78.5703110582844" />
    <path d="M 303.44667541897957,92.616618930013118 A 152,152 0 0,1 326.48023074035524,111.51976925964478" />
    <path d="M 336.497588911136,122.57222080712587 A 152,152 0 0,1 353.05203218094994,147.34769600244835" />
    <path d="M 359.4296889417156,160.83211828050634 A 152,152 0 0,1 371,219" />
    <path d="M 370.26807845417392,233.89860533009323 A 152,152 0 0,1 336.49758891113606,315.42777919287408" />
    <path d="M 303.44667541897951,345.38338106998685 A 152,152 0 0,1 233.89860533009323,370.26807845417392" />
    <path d="M 219.00000000000003,371 A 152,152 0 0,1 204.1013946699068,370.26807845417392" />
    <path d="M 174.87672905732177,364.45493103129576 A 152,152 0 0,1 160.83211828050636,359.4296889417156" />
    <path d="M 101.50241108886402,315.42777919287414 A 152,152 0 0,1 78.57031105828446,277.16788171949372" />
    <path d="M 69.920637378708989,248.65372894645157 A 152,152 0 0,1 67.731921545826083,233.89860533009318" />
    <path d="M 67,219.00000000000003 A 152,152 0 0,1 69.92063737870896,189.34627105354849" />
    <path d="M 78.570311058284432,160.83211828050634 A 152,152 0 0,1 84.947967819050035,147.34769600244837" />
    <path d="M 101.502411088864,122.57222080712587 A 152,152 0 0,1 122.57222080712582,101.50241108886404" />
    <path d="M 147.34769600244832,84.947967819050064 A 152,152 0 0,1 160.83211828050625,78.57031105828446" />
    <path d="M 219,51 A 168,168 0 0,1 251.77517409870956,54.228072892257273" />
    <path d="M 283.29081663733507,63.788238538103826 A 168,168 0 0,1 348.8657561649398,112.42192826050756" />
    <path d="M 367.16277241052364,139.80534821323238 A 168,168 0 0,1 379.76597640301111,170.23217422125032" />
    <path d="M 383.77192710774273,186.22482590129044 A 168,168 0 0,1 386.19103408092906,202.53312042463378" />
    <path d="M 387,219 A 168,168 0 0,1 386.19103408092906,235.46687957536619" />
    <path d="M 383.77192710774273,251.77517409870953 A 168,168 0 0,1 374.21176146189617,283.29081663733507" />
    <path d="M 367.16277241052364,298.19465178676762 A 168,168 0 0,1 358.68689486682763,312.33579914729313" />
    <path d="M 325.57807173949243,348.86575616493985 A 168,168 0 0,1 267.76782577874968,379.76597640301111" />
    <path d="M 235.46687957536622,386.19103408092906 A 168,168 0 0,1 112.42192826050759,348.86575616493985" />
    <path d="M 100.20606076066004,337.79393923934003 A 168,168 0 0,1 79.3131051331724,312.33579914729319" />
    <path d="M 70.837227589476385,298.19465178676762 A 168,168 0 0,1 54.2280728922573,251.77517409870961" />
    <path d="M 51.808965919070914,202.53312042463392 A 168,168 0 0,1 63.788238538103855,154.70918336266487" />
    <path d="M 79.313105133172371,125.66420085270688 A 168,168 0 0,1 89.1342438350602,112.42192826050754" />
    <path d="M 186.22482590129039,54.2280728922573 A 168,168 0 0,1 202.53312042463384,51.808965919070914" />
    <path d="M 200.96484617936088,35.886010292315774 A 184,184 0 0,1 219,35" />
    <path d="M 237.03515382063915,35.886010292315774 A 184,184 0 0,1 272.41238061482107,42.922978225273567" />
    <path d="M 305.73699957598353,56.726487359902677 A 184,184 0 0,1 335.72836428611078,76.766076581256385" />
    <path d="M 361.23392341874359,102.27163571388923 A 184,184 0 0,1 381.27351264009735,132.26300042401641" />
    <path d="M 402.11398970768425,200.96484617936082 A 184,184 0 0,1 403,219" />
    <path d="M 402.11398970768425,237.03515382063915 A 184,184 0 0,1 395.0770217747264,272.412380614821" />
    <path d="M 371.99040866366835,321.22492287560675 A 184,184 0 0,1 335.72836428611078,361.23392341874364" />
    <path d="M 305.73699957598359,381.27351264009729 A 184,184 0 0,1 289.41375155517653,388.99383398207675" />
    <path d="M 254.89661925096766,399.46449159419438 A 184,184 0 0,1 219.00000000000003,403" />
    <path d="M 148.58624844482353,388.99383398207681 A 184,184 0 0,1 88.892352261675285,349.10764773832477" />
    <path d="M 76.76607658125647,335.72836428611083 A 184,184 0 0,1 42.922978225273567,272.41238061482107" />
    <path d="M 38.535508405805615,254.89661925096766 A 184,184 0 0,1 35.886010292315774,237.03515382063912" />
    <path d="M 35,219.00000000000003 A 184,184 0 0,1 42.922978225273539,165.58761938517898" />
    <path d="M 56.726487359902677,132.26300042401647 A 184,184 0 0,1 66.009591336331624,116.77507712439326" />
    <path d="M 76.766076581256414,102.27163571388921 A 184,184 0 0,1 183.10338074903231,38.535508405805615" />
    <path d="M 219,19 A 200,200 0 0,1 238.60342806591211,19.963054665560634" />
    <path d="M 277.05693545089247,27.611932853558216 A 200,200 0 0,1 313.27934736519956,42.615747130329" />
    <path d="M 360.42135623730951,77.57864376269049 A 200,200 0 0,1 373.60209067254738,92.1213431672709" />
    <path d="M 395.384252869671,124.72065263480044 A 200,200 0 0,1 415.1570560806461,258.01806440322565" />
    <path d="M 403.77590650225738,295.53668647301794 A 200,200 0 0,1 395.384252869671,313.27934736519956" />
    <path d="M 385.29392246050907,330.11404660392043 A 200,200 0 0,1 330.11404660392043,385.29392246050907" />
    <path d="M 179.98193559677432,415.1570560806461 A 200,200 0 0,1 64.39790932745268,345.87865683272918" />
    <path d="M 42.615747130329027,313.27934736519956 A 200,200 0 0,1 27.611932853558216,160.94306454910759" />
    <path d="M 34.224093497742672,142.463313526982 A 200,200 0 0,1 42.615747130329,124.72065263480049" />
    <path d="M 52.706077539490906,107.88595339607963 A 200,200 0 0,1 77.578643762690461,77.578643762690518" />
    <path d="M 160.9430645491075,27.611932853558244 A 200,200 0 0,1 199.39657193408789,19.963054665560634" />
    <path d="M 240.1717023111851,4.0400990388054652 A 216,216 0 1,1 219,3" />
  </g>
  <g fill="none" stroke="#000000" stroke-width="2" stroke-linecap="butt">
    <line x1="219" y1="3" x2="219" y2="19" />
    <line x1="219" y1="83" x2="219" y2="99" />
    <line x1="219" y1="147" x2="219" y2="179" />
    <line x1="261.1395095554837" y1="7.1503794329022412" x2="254.8966192509676" y2="38.535508405805615" />
    <line x1="251.77517409870956" y1="54.228072892257273" x2="248.65372894645151" y2="69.920637378708989" />
    <line x1="245.53228379419343" y1="85.613201865160647" x2="242.41083864193539" y2="101.30576635161235" />
    <line x1="236.16794833741929" y1="132.69089532451574" x2="233.04650318516124" y2="148.3834598109674" />
    <line x1="272.41238061482107" y1="42.922978225273567" x2="267.76782577874968" y2="58.234023596988919" />
    <line x1="263.12327094267829" y1="73.545068968704271" x2="258.4787161066069" y2="88.8561143404196" />
    <line x1="295.53668647301794" y1="34.224093497742643" x2="277.16788171949366" y2="78.5703110582844" />
    <line x1="258.79907696596933" y1="122.91652861882618" x2="252.6761420481279" y2="137.69860113900677" />
    <line x1="246.55320713028647" y1="152.48067365918735" x2="240.43027221244503" y2="167.26274617936795" />
    <line x1="313.27934736519956" y1="42.615747130329" x2="305.73699957598353" y2="56.726487359902677" />
    <line x1="298.19465178676762" y1="70.837227589476356" x2="283.10995620833569" y2="99.058708048623714" />
    <line x1="339.00317033223405" y1="39.402563742650216" x2="330.11404660392043" y2="52.706077539490963" />
    <line x1="303.44667541897957" y1="92.616618930013118" x2="285.66842796235227" y2="119.22364652369457" />
    <line x1="267.89018050572497" y1="145.83067411737602" x2="259.00105677741135" y2="159.13418791421674" />
    <line x1="345.87865683272912" y1="64.3979093274526" x2="335.72836428611078" y2="76.766076581256385" />
    <line x1="371.73506473629425" y1="66.264935263705723" x2="337.79393923934" y2="100.20606076066001" />
    <line x1="326.48023074035518" y1="111.51976925964478" x2="315.16652224137044" y2="122.83347775862953" />
    <line x1="281.22539674441617" y1="156.77460325558383" x2="258.59797974644664" y2="179.40202025355333" />
    <line x1="398.59743625734978" y1="98.996829667765908" x2="358.68689486682763" y2="125.66420085270681" />
    <line x1="332.07986727314614" y1="143.44244830933408" x2="318.77635347630542" y2="152.33157203764773" />
    <line x1="305.4728396794647" y1="161.22069576596135" x2="292.169325882624" y2="170.109819494275" />
    <line x1="367.16277241052364" y1="139.80534821323238" x2="353.05203218094994" y2="147.34769600244835" />
    <line x1="403.77590650225738" y1="142.46331352698203" x2="374.21176146189617" y2="154.7091833626649" />
    <line x1="359.4296889417156" y1="160.83211828050634" x2="329.86554390135439" y2="173.0779881161892" />
    <line x1="270.73725382063208" y1="197.56972778755497" x2="255.95518130045147" y2="203.6926627053964" />
    <line x1="395.0770217747264" y1="165.58761938517893" x2="379.76597640301111" y2="170.23217422125032" />
    <line x1="415.1570560806461" y1="179.98193559677435" x2="368.079362621291" y2="189.34627105354849" />
    <line x1="336.69423364838764" y1="195.58916135806459" x2="321.001669161936" y2="198.71060651032266" />
    <line x1="419" y1="219" x2="387" y2="219" />
    <line x1="339" y1="219" x2="307" y2="219" />
    <line x1="275" y1="219" x2="259" y2="219" />
    <line x1="370.268078454174" y1="233.89860533009323" x2="354.34512282741878" y2="232.33033108482024" />
    <line x1="383.77192710774273" y1="251.77517409870953" x2="336.69423364838764" y2="242.41083864193539" />
    <line x1="425.69911251815711" y1="281.7014902869638" x2="395.0770217747264" y2="272.412380614821" />
    <line x1="403.77590650225738" y1="295.53668647301794" x2="374.21176146189617" y2="283.29081663733507" />
    <line x1="344.64761642153496" y1="271.0449468016522" x2="315.08347138117381" y2="258.79907696596933" />
    <line x1="285.51932634081265" y1="246.55320713028647" x2="270.73725382063208" y2="240.43027221244503" />
    <line x1="409.49499309924465" y1="320.82169515441552" x2="367.16277241052364" y2="298.19465178676762" />
    <line x1="345.38338106998691" y1="303.44667541897951" x2="332.07986727314619" y2="294.55755169066583" />
    <line x1="292.169325882624" y1="267.89018050572497" x2="278.86581208578326" y2="259.00105677741135" />
    <line x1="361.23392341874364" y1="335.72836428611072" x2="348.86575616493985" y2="325.57807173949243" />
    <line x1="349.10764773832477" y1="349.10764773832477" x2="315.16652224137044" y2="315.16652224137044" />
    <line x1="303.85281374238571" y1="303.85281374238571" x2="281.22539674441617" y2="281.22539674441617" />
    <line x1="269.91168824543144" y1="269.91168824543144" x2="258.59797974644664" y2="258.59797974644664" />
    <line x1="325.57807173949243" y1="348.86575616493985" x2="315.42777919287414" y2="336.497588911136" />
    <line x1="339.00317033223405" y1="398.59743625734978" x2="312.33579914729319" y2="358.68689486682763" />
    <line x1="303.44667541897957" y1="345.38338106998691" x2="285.66842796235227" y2="318.77635347630542" />
    <line x1="276.77930423403865" y1="305.4728396794647" x2="259.00105677741135" y2="278.86581208578326" />
    <line x1="313.27934736519956" y1="395.384252869671" x2="305.73699957598359" y2="381.27351264009729" />
    <line x1="290.65230399755166" y1="353.05203218094994" x2="283.10995620833569" y2="338.94129195137629" />
    <line x1="301.6596213908594" y1="418.55797902243796" x2="289.41375155517653" y2="388.99383398207675" />
    <line x1="240.43027221244503" y1="270.73725382063208" x2="234.3073372946036" y2="255.95518130045147" />
    <line x1="277.05693545089247" y1="410.38806714644176" x2="267.76782577874968" y2="379.76597640301111" />
    <line x1="258.01806440322571" y1="415.1570560806461" x2="248.65372894645154" y2="368.079362621291" />
    <line x1="245.53228379419349" y1="352.38679813483935" x2="236.16794833741932" y2="305.30910467548426" />
    <line x1="240.17170231118513" y1="433.95990096119453" x2="238.60342806591217" y2="418.03694533443934" />
    <line x1="233.89860533009323" y1="370.26807845417392" x2="232.33033108482027" y2="354.34512282741878" />
    <line x1="219.00000000000003" y1="419" x2="219.00000000000003" y2="403" />
    <line x1="219.00000000000003" y1="387" x2="219.00000000000003" y2="355" />
    <line x1="219.00000000000003" y1="339" x2="219" y2="323" />
    <line x1="219" y1="307" x2="219" y2="275" />
    <line x1="219" y1="259" x2="219" y2="243" />
    <line x1="199.39657193408789" y1="418.03694533443939" x2="202.53312042463381" y2="386.19103408092906" />
    <line x1="176.86049044451627" y1="430.84962056709776" x2="183.1033807490324" y2="399.46449159419438" />
    <line x1="186.22482590129044" y1="383.77192710774273" x2="189.34627105354849" y2="368.079362621291" />
    <line x1="192.46771620580654" y1="352.38679813483935" x2="195.58916135806459" y2="336.69423364838764" />
    <line x1="198.71060651032266" y1="321.001669161936" x2="201.83205166258071" y2="305.30910467548426" />
    <line x1="160.94306454910759" y1="410.38806714644181" x2="170.23217422125038" y2="379.76597640301111" />
    <line x1="174.87672905732177" y1="364.45493103129576" x2="179.52128389339316" y2="349.14388565958041" />
    <line x1="179.20092303403067" y1="315.08347138117381" x2="191.44679286971353" y2="285.51932634081265" />
    <line x1="147.34769600244835" y1="353.05203218094994" x2="154.89004379166431" y2="338.94129195137629" />
    <line x1="125.66420085270687" y1="358.68689486682763" x2="134.55332458102049" y2="345.38338106998691" />
    <line x1="170.10981949427503" y1="292.169325882624" x2="178.99894322258865" y2="278.86581208578326" />
    <line x1="102.27163571388927" y1="361.23392341874364" x2="112.4219282605076" y2="348.86575616493985" />
    <line x1="122.57222080712592" y1="336.49758891113606" x2="132.72251335374426" y2="324.12942165733227" />
    <line x1="100.20606076066002" y1="337.79393923934003" x2="122.83347775862954" y2="315.1665222413705" />
    <line x1="145.46089475659906" y1="292.53910524340097" x2="156.77460325558383" y2="281.22539674441617" />
    <line x1="168.08831175456857" y1="269.91168824543144" x2="202.02943725152286" y2="235.97056274847714" />
    <line x1="64.39790932745268" y1="345.87865683272918" x2="76.766076581256442" y2="335.72836428611083" />
    <line x1="101.50241108886402" y1="315.4277791928742" x2="113.87057834266781" y2="305.27748664625585" />
    <line x1="52.706077539490963" y1="330.11404660392043" x2="66.009591336331681" y2="321.22492287560681" />
    <line x1="79.3131051331724" y1="312.33579914729319" x2="92.616618930013118" y2="303.44667541897957" />
    <line x1="105.92013272685385" y1="294.55755169066589" x2="119.22364652369457" y2="285.66842796235227" />
    <line x1="145.83067411737602" y1="267.89018050572497" x2="159.13418791421674" y2="259.00105677741135" />
    <line x1="63.788238538103855" y1="283.29081663733518" x2="78.57031105828446" y2="277.16788171949372" />
    <line x1="108.13445609864561" y1="264.92201188381085" x2="152.48067365918737" y2="246.5532071302865" />
    <line x1="167.26274617936795" y1="240.43027221244506" x2="182.04481869954856" y2="234.3073372946036" />
    <line x1="42.922978225273567" y1="272.41238061482107" x2="58.234023596988919" y2="267.76782577874968" />
    <line x1="73.545068968704271" y1="263.12327094267829" x2="88.8561143404196" y2="258.4787161066069" />
    <line x1="22.842943919353928" y1="258.01806440322571" x2="38.535508405805615" y2="254.89661925096766" />
    <line x1="54.2280728922573" y1="251.77517409870961" x2="85.613201865160676" y2="245.53228379419349" />
    <line x1="35.886010292315774" y1="237.03515382063912" x2="67.731921545826054" y2="233.89860533009318" />
    <line x1="35" y1="219.00000000000003" x2="115" y2="219.00000000000003" />
    <line x1="85.613201865160647" y1="192.46771620580654" x2="116.99833083806404" y2="198.71060651032266" />
    <line x1="132.69089532451574" y1="201.83205166258071" x2="148.3834598109674" y2="204.95349681483876" />
    <line x1="58.234023596988891" y1="170.23217422125038" x2="88.8561143404196" y2="179.52128389339316" />
    <line x1="34.224093497742672" y1="142.463313526982" x2="63.788238538103855" y2="154.70918336266487" />
    <line x1="78.570311058284432" y1="160.83211828050634" x2="93.352383578465023" y2="166.95505319834777" />
    <line x1="108.1344560986456" y1="173.0779881161892" x2="137.69860113900677" y2="185.32385795187207" />
    <line x1="152.48067365918735" y1="191.44679286971353" x2="167.26274617936795" y2="197.56972778755497" />
    <line x1="28.505006900755319" y1="117.17830484558452" x2="42.615747130329" y2="124.72065263480049" />
    <line x1="56.726487359902677" y1="132.26300042401644" x2="84.947967819050035" y2="147.34769600244837" />
    <line x1="52.706077539490906" y1="107.88595339607963" x2="92.61661893001309" y2="134.55332458102052" />
    <line x1="105.92013272685382" y1="143.44244830933417" x2="132.52716032053527" y2="161.22069576596141" />
    <line x1="101.502411088864" y1="122.57222080712587" x2="113.87057834266778" y2="132.72251335374421" />
    <line x1="100.20606076066" y1="100.20606076066005" x2="111.51976925964475" y2="111.5197692596448" />
    <line x1="122.83347775862951" y1="122.83347775862956" x2="168.08831175456857" y2="168.08831175456859" />
    <line x1="190.7157287525381" y1="190.7157287525381" x2="202.02943725152286" y2="202.02943725152286" />
    <line x1="81.971050620652477" y1="52.02974207364889" x2="102.27163571388915" y2="76.766076581256442" />
    <line x1="112.42192826050749" y1="89.134243835060232" x2="132.72251335374415" y2="113.87057834266781" />
    <line x1="107.88595339607957" y1="52.706077539490963" x2="134.55332458102046" y2="92.616618930013118" />
    <line x1="152.33157203764773" y1="119.22364652369457" x2="170.109819494275" y2="145.83067411737602" />
    <line x1="117.17830484558445" y1="28.505006900755347" x2="124.72065263480042" y2="42.615747130329027" />
    <line x1="139.80534821323235" y1="70.837227589476385" x2="147.34769600244832" y2="84.947967819050064" />
    <line x1="142.46331352698192" y1="34.2240934977427" x2="160.83211828050625" y2="78.57031105828446" />
    <line x1="166.95505319834771" y1="93.352383578465037" x2="179.20092303403061" y2="122.91652861882621" />
    <line x1="185.32385795187204" y1="137.69860113900677" x2="197.56972778755494" y2="167.26274617936795" />
    <line x1="156.29850971303608" y1="12.300887481842892" x2="160.9430645491075" y2="27.611932853558244" />
    <line x1="170.23217422125032" y1="58.234023596988919" x2="179.5212838933931" y2="88.8561143404196" />
    <line x1="186.22482590129039" y1="54.2280728922573" x2="192.46771620580648" y2="85.613201865160676" />
    <line x1="198.71060651032261" y1="116.99833083806405" x2="204.95349681483873" y2="148.38345981096742" />
    <line x1="199.39657193408789" y1="19.963054665560605" x2="202.53312042463384" y2="51.808965919070914" />
    <line x1="204.1013946699068" y1="67.731921545826054" x2="205.66966891517978" y2="83.654877172581223" />
  </g>
  <path fill="none" stroke="#ff0000" stroke-width="2" stroke-linecap="square" stroke-linejoin="round" d="M 229.59861765472229,3.2601814596827694 L 229.20607626010295,11.25054510932415 A 208,208 0 0,1 249.51993868671525,13.251285927325569 L 247.17225109542946,29.078110086762052 A 192,192 0 0,0 228.42099347086426,27.231272408606912 L 227.63591068162558,43.211999707889646 A 176,176 0 0,0 210.36408931837443,43.211999707889646 L 211.14917210761311,59.192727007172408 A 160,160 0 0,1 242.47687591285788,60.731758405635048 L 240.12918832157209,76.558582565071532 A 144,144 0 0,0 211.9342548968518,75.17345430645517 L 212.71933768609048,91.154181605737932 A 128,128 0 0,0 187.89853697238218,94.835999591098371 L 176.23548833702552,48.274499437760284 A 176,176 0 0,0 159.70738580296927,53.288244527788351 L 170.48786111152032,83.417654613645 A 144,144 0 0,0 133.21930015308962,103.33811546678712 L 114.15692240933176,77.635474459406481 A 176,176 0 0,0 77.635474459406424,114.15692240933181 L 64.7841539557161,104.62573353745289 A 192,192 0 0,1 90.0606806693724,76.737383931847916 L 79.315737391820107,64.882165926168568 A 208,208 0 0,0 40.592449119943382,112.06662920780993 L 54.316106879947739,120.29227311490148 A 192,192 0 0,0 45.434055720298886,136.90942206138584 L 74.361713100249062,150.59118505115487 A 160,160 0 0,0 68.352949570716646,165.09762345724488 L 98.482359656573323,175.8780987657959 A 128,128 0 0,1 106.11407816341055,158.66121768627232 L 134.33555862255793,173.74591326470423 A 96,96 0 0,1 144.79099647717726,158.09824472029004 L 120.05466196956968,137.79765962705335 A 128,128 0 0,1 124.15825595456523,133.04045377958164 L 112.30303794888589,122.29551050202936 A 144,144 0 0,1 122.29551050202932,112.30303794888593 L 133.04045377958161,124.15825595456526 A 128,128 0 0,1 158.66121768627227,106.11407816341058 L 173.7459132647042,134.33555862255793 A 96,96 0 0,1 191.13267098357159,127.13372776970795 L 200.4217806557144,157.75581851313865 A 64,64 0 0,1 212.72690301890813,155.30817749297938 L 211.15862877363517,139.38522186622424 A 80,80 0 0,1 226.84137122636486,139.38522186622424 L 225.27309698109187,155.30817749297938 A 64,64 0 0,1 231.48578060903222,156.22974205419325 L 228.36433545677414,171.92230654064494 A 48,48 0 0,1 258.91054139052216,192.33262881505908 L 272.21405518736287,183.44350508674546 A 64,64 0 0,1 281.77025794580675,231.48578060903219 L 266.07769345935503,228.36433545677414 A 48,48 0 0,1 245.66737118494089,258.91054139052216 L 254.55649491325454,272.21405518736287 A 64,64 0 0,1 231.48578060903222,281.77025794580675 L 228.36433545677417,266.07769345935503 A 48,48 0 0,1 192.33262881505911,258.91054139052221 L 201.22175254337273,245.60702759368147 A 32,32 0 0,0 206.75413016431713,248.56414504036118 L 209.81559762323786,241.17310878027089" />
  <type>Circular</type>
</svg>