<?xml version="1.0" encoding="utf-8" standalone="no"?>
<!DOCTYPE svg PUBLIC "-//W3C//DTD SVG 1.1//EN" "http://www.w3.org/Graphics/SVG/1.1/DTD/svg11.dtd"[]>
<svg width="436" height="436" version="1.1" xmlns="http://www.w3.org/2000/svg">
  <title>27 cells diameter theta maze</title>
  <g fill="none" stroke="#000000" stroke-width="2" stroke-linecap="square">
    <path d="M 202.02943725152286,235.97056274847714 A 24,24 0 1,1 219,243" />
    <path d="M 219,179 A 40,40 0 0,1 255.95518130045147,203.6926627053964" />
    <path d="M 219,259 A 40,40 0 0,1 203.69266270539637,182.04481869954856" />
    <path d="M 179.40202025355333,179.40202025355336 A 56,56 0 0,1 240.43027221244503,167.26274617936795" />
    <path d="M 258.59797974644664,179.40202025355333 A 56,56 0 0,1 270.73725382063208,240.43027221244503" />
    <path d="M 258.59797974644664,258.59797974644664 A 56,56 0 0,1 240.43027221244503,270.73725382063208" />
    <path d="M 219,275 A 56,56 0 0,1 163,219" />
    <path d="M 219,147 A 72,72 0 0,1 278.86581208578326,178.99894322258865" />
    <path d="M 285.51932634081265,191.44679286971353 A 72,72 0 0,1 289.61654018903261,233.04650318516124" />
    <path d="M 233.04650318516127,289.61654018903261 A 72,72 0 0,1 219,291" />
    <path d="M 178.99894322258865,278.86581208578326 A 72,72 0 0,1 168.08831175456859,269.91168824543144" />
    <path d="M 148.3834598109674,233.04650318516127 A 72,72 0 0,1 168.08831175456857,168.08831175456859" />
    <path d="M 178.99894322258865,159.13418791421674 A 72,72 0 0,1 204.95349681483873,148.3834598109674" />
    <path d="M 185.32385795187204,137.69860113900677 A 88,88 0 0,1 219,131" />
    <path d="M 281.22539674441617,156.77460325558383 A 88,88 0 0,1 305.30910467548426,201.83205166258071" />
    <path d="M 300.30139886099323,252.6761420481279 A 88,88 0 0,1 292.169325882624,267.89018050572497" />
    <path d="M 252.6761420481279,300.30139886099323 A 88,88 0 0,1 236.16794833741932,305.30910467548426" />
    <path d="M 219,307 A 88,88 0 0,1 201.83205166258071,305.30910467548426" />
    <path d="M 145.83067411737602,267.89018050572497 A 88,88 0 0,1 132.69089532451574,236.16794833741932" />
    <path d="M 131,219.00000000000003 A 88,88 0 0,1 137.69860113900677,185.32385795187207" />
    <path d="M 145.830674117376,170.10981949427503 A 88,88 0 0,1 170.109819494275,145.83067411737602" />
    <path d="M 258.79907696596933,122.91652861882618 A 104,104 0 0,1 305.4728396794647,161.22069576596135" />
    <path d="M 321.001669161936,198.71060651032266 A 104,104 0 0,1 323,219" />
    <path d="M 315.08347138117381,258.79907696596933 A 104,104 0 0,1 292.53910524340097,292.53910524340097" />
    <path d="M 258.79907696596933,315.08347138117381 A 104,104 0 0,1 239.28939348967737,321.001669161936" />
    <path d="M 161.22069576596141,305.47283967946476 A 104,104 0 0,1 132.5271603205353,276.77930423403865" />
    <path d="M 122.91652861882621,258.79907696596939 A 104,104 0 0,1 116.99833083806404,198.71060651032266" />
    <path d="M 122.91652861882619,179.20092303403064 A 104,104 0 0,1 145.46089475659903,145.46089475659909" />
    <path d="M 179.20092303403061,122.91652861882621 A 104,104 0 0,1 198.71060651032261,116.99833083806405" />
    <path d="M 173.07798811618915,108.13445609864561 A 120,120 0 0,1 264.9220118838108,108.13445609864559" />
    <path d="M 285.66842796235227,119.22364652369457 A 120,120 0 0,1 303.85281374238571,134.14718625761429" />
    <path d="M 318.77635347630542,152.33157203764773 A 120,120 0 0,1 336.69423364838764,195.58916135806459" />
    <path d="M 339,219 A 120,120 0 0,1 303.85281374238571,303.85281374238571" />
    <path d="M 285.66842796235227,318.77635347630542 A 120,120 0 0,1 264.9220118838108,329.86554390135439" />
    <path d="M 219.00000000000003,339 A 120,120 0 0,1 195.58916135806459,336.69423364838764" />
    <path d="M 173.07798811618926,329.86554390135439 A 120,120 0 0,1 152.33157203764779,318.77635347630547" />
    <path d="M 101.30576635161235,242.41083864193544 A 120,120 0 0,1 99,219.00000000000003" />
    <path d="M 258.4787161066069,88.8561143404196 A 136,136 0 0,1 271.0449468016522,93.352383578465" />
    <path d="M 283.10995620833569,99.058708048623714 A 136,136 0 0,1 338.94129195137629,154.89004379166431" />
    <path d="M 349.14388565958041,179.52128389339313 A 136,136 0 0,1 352.38679813483935,192.46771620580654" />
    <path d="M 354.34512282741878,205.66966891517973 A 136,136 0 0,1 354.34512282741878,232.33033108482024" />
    <path d="M 352.38679813483935,245.53228379419343 A 136,136 0 0,1 332.07986727314619,294.55755169066589" />
    <path d="M 324.12942165733227,305.27748664625574 A 136,136 0 0,1 283.10995620833569,338.94129195137629" />
    <path d="M 271.0449468016522,344.64761642153496 A 136,136 0 0,1 205.66966891517976,354.34512282741878" />
    <path d="M 192.46771620580654,352.38679813483935 A 136,136 0 0,1 122.83347775862956,315.16652224137044" />
    <path d="M 113.87057834266781,305.27748664625585 A 136,136 0 0,1 83.654877172581223,232.33033108482022" />
    <path d="M 83,219.00000000000003 A 136,136 0 0,1 85.613201865160647,192.46771620580654" />
    <path d="M 93.352383578465009,166.95505319834777 A 136,136 0 0,1 99.058708048623714,154.89004379166431" />
    <path d="M 105.92013272685382,143.44244830933414 A 136,136 0 0,1 113.87057834266778,132.72251335374421" />
    <path d="M 122.83347775862951,122.83347775862956 A 136,136 0 0,1 143.44244830933411,105.92013272685385" />
    <path d="M 154.89004379166428,99.058708048623743 A 136,136 0 0,1 179.5212838933931,88.8561143404196" />
    <path d="M 204.1013946699068,67.731921545826083 A 152,152 0 0,1 233.8986053300932,67.731921545826083" />
    <path d="M 248.65372894645151,69.92063737870896 A 152,152 0 0,1 290.65230399755166,84.947967819050035" />
    <path d="M 303.44667541897957,92.616618930013118 A 152,152 0 0,1 315.42777919287414,101.50241108886398" />
    <path d="M 326.48023074035524,111.51976925964478 A 152,152 0 0,1 353.05203218094994,147.34769600244835" />
    <path d="M 359.4296889417156,160.83211828050634 A 152,152 0 0,1 364.45493103129576,174.87672905732174" />
    <path d="M 368.079362621291,189.34627105354849 A 152,152 0 0,1 371,219" />
    <path d="M 370.26807845417392,233.89860533009323 A 152,152 0 0,1 368.079362621291,248.65372894645148" />
    <path d="M 364.45493103129576,263.12327094267823 A 152,152 0 0,1 336.49758891113606,315.42777919287408" />
    <path d="M 263.12327094267829,364.45493103129576 A 152,152 0 0,1 248.65372894645154,368.079362621291" />
    <path d="M 219.00000000000003,371 A 152,152 0 0,1 147.34769600244835,353.05203218094994" />
    <path d="M 122.57222080712592,336.49758891113606 A 152,152 0 0,1 92.616618930013118,303.44667541897951" />
    <path d="M 73.545068968704243,263.12327094267829 A 152,152 0 0,1 69.920637378708989,248.65372894645157" />
    <path d="M 67.731921545826083,233.89860533009318 A 152,152 0 0,1 67,219.00000000000003" />
    <path d="M 67.731921545826054,204.10139466990688 A 152,152 0 0,1 92.61661893001309,134.55332458102052" />
    <path d="M 101.502411088864,122.57222080712587 A 152,152 0 0,1 134.55332458102046,92.616618930013118" />
    <path d="M 160.83211828050625,78.57031105828446 A 152,152 0 0,1 174.87672905732171,73.545068968704271" />
    <path d="M 219,51 A 168,168 0 0,1 312.33579914729319,79.3131051331724" />
    <path d="M 337.79393923934,100.20606076066001 A 168,168 0 0,1 348.8657561649398,112.42192826050756" />
    <path d="M 367.16277241052364,139.80534821323238 A 168,168 0 0,1 374.21176146189617,154.70918336266493" />
    <path d="M 379.76597640301111,170.23217422125032 A 168,168 0 0,1 386.19103408092906,202.53312042463378" />
    <path d="M 387,219 A 168,168 0 0,1 386.19103408092906,235.46687957536619" />
    <path d="M 379.76597640301111,267.76782577874962 A 168,168 0 0,1 374.21176146189617,283.29081663733507" />
    <path d="M 348.86575616493985,325.57807173949243 A 168,168 0 0,1 267.76782577874968,379.76597640301111" />
    <path d="M 251.77517409870961,383.77192710774273 A 168,168 0 0,1 219.00000000000003,387" />
    <path d="M 202.53312042463381,386.19103408092906 A 168,168 0 0,1 170.23217422125038,379.76597640301111" />
    <path d="M 139.80534821323241,367.16277241052364 A 168,168 0 0,1 112.42192826050759,348.86575616493985" />
    <path d="M 79.3131051331724,312.33579914729319 A 168,168 0 0,1 58.234023596988919,267.76782577874968" />
    <path d="M 54.2280728922573,251.77517409870961 A 168,168 0 0,1 51.808965919070914,202.53312042463392" />
    <path d="M 54.228072892257273,186.22482590129044 A 168,168 0 0,1 70.837227589476356,139.80534821323241" />
    <path d="M 125.66420085270683,79.3131051331724 A 168,168 0 0,1 139.80534821323235,70.837227589476385" />
    <path d="M 170.23217422125032,58.234023596988919 A 168,168 0 0,1 186.22482590129039,54.2280728922573" />
    <path d="M 200.96484617936088,35.886010292315774 A 184,184 0 0,1 237.03515382063915,35.886010292315774" />
    <path d="M 272.41238061482107,42.922978225273567 A 184,184 0 0,1 289.41375155517653,49.006166017923249" />
    <path d="M 321.22492287560681,66.009591336331681 A 184,184 0 0,1 335.72836428611078,76.766076581256385" />
    <path d="M 361.23392341874359,102.27163571388923 A 184,184 0 0,1 371.99040866366829,116.77507712439318" />
    <path d="M 381.27351264009735,132.26300042401641 A 184,184 0 0,1 403,219" />
    <path d="M 399.46449159419444,254.8966192509676 A 184,184 0 0,1 395.0770217747264,272.412380614821" />
    <path d="M 388.99383398207681,289.41375155517653 A 184,184 0 0,1 381.27351264009735,305.73699957598359" />
    <path d="M 361.23392341874364,335.72836428611072 A 184,184 0 0,1 349.10764773832477,349.10764773832477" />
    <path d="M 335.72836428611078,361.23392341874364 A 184,184 0 0,1 321.22492287560681,371.99040866366835" />
    <path d="M 289.41375155517653,388.99383398207675 A 184,184 0 0,1 272.41238061482107,395.0770217747264" />
    <path d="M 254.89661925096766,399.46449159419438 A 184,184 0 0,1 219.00000000000003,403" />
    <path d="M 183.1033807490324,399.46449159419444 A 184,184 0 0,1 165.58761938517898,395.0770217747264" />
    <path d="M 148.58624844482353,388.99383398207681 A 184,184 0 0,1 132.26300042401644,381.27351264009735" />
    <path d="M 116.77507712439325,371.99040866366835 A 184,184 0 0,1 88.892352261675285,349.10764773832477" />
    <path d="M 76.76607658125647,335.72836428611083 A 184,184 0 0,1 56.726487359902706,305.73699957598365" />
    <path d="M 49.006166017923277,289.41375155517665 A 184,184 0 0,1 38.535508405805615,254.89661925096766" />
    <path d="M 35.886010292315774,200.96484617936093 A 184,184 0 0,1 42.922978225273539,165.58761938517898" />
    <path d="M 56.726487359902677,132.26300042401647 A 184,184 0 0,1 102.27163571388915,76.76607658125647" />
    <path d="M 116.77507712439319,66.009591336331681 A 184,184 0 0,1 183.10338074903231,38.535508405805615" />
    <path d="M 179.98193559677426,22.842943919353928 A 200,200 0 0,1 219,19" />
    <path d="M 295.53668647301794,34.224093497742643 A 200,200 0 0,1 313.27934736519956,42.615747130329" />
    <path d="M 360.42135623730951,77.57864376269049 A 200,200 0 0,1 410.38806714644181,160.94306454910753" />
    <path d="M 415.1570560806461,179.98193559677435 A 200,200 0 0,1 418.03694533443934,238.60342806591214" />
    <path d="M 415.1570560806461,258.01806440322565 A 200,200 0 0,1 403.77590650225738,295.53668647301794" />
    <path d="M 395.384252869671,313.27934736519956 A 200,200 0 0,1 373.60209067254743,345.87865683272906" />
    <path d="M 360.42135623730951,360.42135623730951 A 200,200 0 0,1 345.87865683272912,373.60209067254743" />
    <path d="M 330.11404660392043,385.29392246050907 A 200,200 0 0,1 295.536686473018,403.77590650225738" />
    <path d="M 277.05693545089247,410.38806714644181 A 200,200 0 0,1 258.01806440322571,415.15705608064604" />
    <path d="M 238.60342806591217,418.03694533443934 A 200,200 0 0,1 142.46331352698206,403.77590650225738" />
    <path d="M 124.72065263480047,395.384252869671 A 200,200 0 0,1 52.706077539490934,330.11404660392043" />
    <path d="M 42.615747130329027,313.27934736519956 A 200,200 0 0,1 34.2240934977427,295.53668647301805" />
    <path d="M 27.611932853558244,277.05693545089247 A 200,200 0 0,1 19,219.00000000000003" />
    <path d="M 27.611932853558216,160.94306454910759 A 200,200 0 0,1 34.224093497742672,142.463313526982" />
    <path d="M 124.72065263480042,42.615747130329027 A 200,200 0 0,1 160.9430645491075,27.611932853558244" />
    <path d="M 240.1717023111851,4.0400990388054652 A 216,216 0 1,1 219,3" />
  </g>
  <g fill="none" stroke="#000000" stroke-width="2" stroke-linecap="butt">
    <line x1="219" y1="3" x2="219" y2="19" />
    <line x1="219" y1="51" x2="219" y2="67" />
    <line x1="219" y1="83" x2="219" y2="147" />
    <line x1="219" y1="163" x2="219" y2="179" />
    <line x1="238.60342806591211" y1="19.963054665560605" x2="237.03515382063915" y2="35.886010292315774" />
    <line x1="233.8986053300932" y1="67.731921545826054" x2="232.33033108482024" y2="83.654877172581223" />
    <line x1="258.01806440322565" y1="22.8429439193539" x2="239.28939348967734" y2="116.99833083806404" />
    <line x1="236.16794833741929" y1="132.69089532451574" x2="233.04650318516124" y2="148.3834598109674" />
    <line x1="281.70149028696386" y1="12.300887481842892" x2="272.41238061482107" y2="42.922978225273567" />
    <line x1="289.41375155517653" y1="49.006166017923249" x2="283.29081663733507" y2="63.788238538103826" />
    <line x1="271.0449468016522" y1="93.352383578465009" x2="252.6761420481279" y2="137.69860113900677" />
    <line x1="320.82169515441547" y1="28.505006900755319" x2="305.73699957598353" y2="56.726487359902677" />
    <line x1="290.65230399755166" y1="84.947967819050035" x2="283.10995620833569" y2="99.058708048623714" />
    <line x1="330.11404660392043" y1="52.706077539490963" x2="321.22492287560681" y2="66.009591336331681" />
    <line x1="312.33579914729319" y1="79.3131051331724" x2="303.44667541897957" y2="92.616618930013118" />
    <line x1="267.89018050572497" y1="145.83067411737602" x2="259.00105677741135" y2="159.13418791421674" />
    <line x1="356.02894937934741" y1="52.029742073648805" x2="325.57807173949243" y2="89.134243835060175" />
    <line x1="349.10764773832477" y1="88.892352261675256" x2="326.48023074035518" y2="111.51976925964478" />
    <line x1="315.16652224137044" y1="122.83347775862953" x2="303.85281374238571" y2="134.14718625761429" />
    <line x1="269.91168824543144" y1="168.08831175456857" x2="258.59797974644664" y2="179.40202025355333" />
    <line x1="247.2842712474619" y1="190.7157287525381" x2="235.97056274847714" y2="202.02943725152286" />
    <line x1="385.29392246050907" y1="107.88595339607954" x2="345.38338106998685" y2="134.55332458102043" />
    <line x1="318.77635347630542" y1="152.33157203764773" x2="305.4728396794647" y2="161.22069576596135" />
    <line x1="395.384252869671" y1="124.72065263480044" x2="381.27351264009729" y2="132.26300042401641" />
    <line x1="353.05203218094994" y1="147.34769600244835" x2="338.94129195137629" y2="154.89004379166431" />
    <line x1="374.21176146189617" y1="154.7091833626649" x2="344.64761642153496" y2="166.9550531983478" />
    <line x1="315.08347138117381" y1="179.20092303403067" x2="285.51932634081265" y2="191.44679286971353" />
    <line x1="395.0770217747264" y1="165.58761938517893" x2="379.76597640301111" y2="170.23217422125032" />
    <line x1="364.45493103129576" y1="174.87672905732171" x2="349.14388565958041" y2="179.52128389339313" />
    <line x1="430.84962056709776" y1="176.86049044451627" x2="415.1570560806461" y2="179.98193559677435" />
    <line x1="383.77192710774273" y1="186.22482590129044" x2="368.079362621291" y2="189.34627105354849" />
    <line x1="352.38679813483935" y1="192.46771620580654" x2="305.30910467548426" y2="201.83205166258071" />
    <line x1="403" y1="219" x2="387" y2="219" />
    <line x1="355" y1="219" x2="323" y2="219" />
    <line x1="307" y1="219" x2="291" y2="219" />
    <line x1="259" y1="219" x2="243" y2="219" />
    <line x1="418.03694533443939" y1="238.60342806591214" x2="402.11398970768425" y2="237.03515382063915" />
    <line x1="370.268078454174" y1="233.89860533009323" x2="354.34512282741878" y2="232.33033108482024" />
    <line x1="430.84962056709776" y1="261.1395095554837" x2="415.1570560806461" y2="258.01806440322565" />
    <line x1="399.46449159419438" y1="254.8966192509676" x2="352.38679813483935" y2="245.53228379419343" />
    <line x1="321.001669161936" y1="239.28939348967734" x2="289.61654018903261" y2="233.04650318516124" />
    <line x1="403.77590650225738" y1="295.53668647301794" x2="374.21176146189617" y2="283.29081663733507" />
    <line x1="315.08347138117381" y1="258.79907696596933" x2="255.95518130045147" y2="234.3073372946036" />
    <line x1="381.27351264009735" y1="305.73699957598359" x2="367.16277241052364" y2="298.19465178676762" />
    <line x1="385.29392246050907" y1="330.11404660392037" x2="345.38338106998691" y2="303.44667541897951" />
    <line x1="292.169325882624" y1="267.89018050572497" x2="278.86581208578326" y2="259.00105677741135" />
    <line x1="385.97025792635122" y1="356.02894937934741" x2="361.23392341874364" y2="335.72836428611072" />
    <line x1="336.49758891113606" y1="315.42777919287408" x2="324.12942165733227" y2="305.27748664625574" />
    <line x1="337.79393923934" y1="337.79393923934" x2="326.48023074035524" y2="326.48023074035518" />
    <line x1="292.53910524340097" y1="292.53910524340097" x2="269.91168824543144" y2="269.91168824543144" />
    <line x1="247.2842712474619" y1="247.2842712474619" x2="235.97056274847714" y2="235.97056274847714" />
    <line x1="356.02894937934741" y1="385.97025792635122" x2="335.72836428611078" y2="361.23392341874364" />
    <line x1="315.42777919287414" y1="336.497588911136" x2="305.2774866462558" y2="324.12942165733222" />
    <line x1="312.33579914729319" y1="358.68689486682763" x2="303.44667541897957" y2="345.38338106998691" />
    <line x1="294.55755169066589" y1="332.07986727314619" x2="259.00105677741135" y2="278.86581208578326" />
    <line x1="313.27934736519956" y1="395.384252869671" x2="298.19465178676762" y2="367.16277241052364" />
    <line x1="290.65230399755166" y1="353.05203218094994" x2="283.10995620833569" y2="338.94129195137629" />
    <line x1="283.29081663733507" y1="374.21176146189617" x2="271.0449468016522" y2="344.64761642153496" />
    <line x1="264.9220118838108" y1="329.86554390135439" x2="258.79907696596933" y2="315.08347138117381" />
    <line x1="252.6761420481279" y1="300.30139886099323" x2="234.3073372946036" y2="255.95518130045147" />
    <line x1="277.05693545089247" y1="410.38806714644176" x2="267.76782577874968" y2="379.76597640301111" />
    <line x1="258.01806440322571" y1="415.1570560806461" x2="254.89661925096766" y2="399.46449159419438" />
    <line x1="251.77517409870961" y1="383.77192710774273" x2="248.65372894645154" y2="368.079362621291" />
    <line x1="245.53228379419349" y1="352.38679813483935" x2="236.16794833741932" y2="305.30910467548426" />
    <line x1="233.89860533009323" y1="370.26807845417392" x2="232.33033108482027" y2="354.34512282741878" />
    <line x1="219.00000000000003" y1="403" x2="219.00000000000003" y2="371" />
    <line x1="219" y1="323" x2="219" y2="307" />
    <line x1="219" y1="291" x2="219" y2="275" />
    <line x1="219" y1="259" x2="219" y2="243" />
    <line x1="199.39657193408789" y1="418.03694533443939" x2="202.53312042463381" y2="386.19103408092906" />
    <line x1="192.46771620580654" y1="352.38679813483935" x2="204.95349681483876" y2="289.61654018903261" />
    <line x1="165.58761938517898" y1="395.0770217747264" x2="170.23217422125038" y2="379.76597640301111" />
    <line x1="136.34037860914063" y1="418.55797902243796" x2="142.46331352698206" y2="403.77590650225738" />
    <line x1="148.5862484448235" y1="388.99383398207681" x2="154.70918336266493" y2="374.21176146189623" />
    <line x1="166.9550531983478" y1="344.647616421535" x2="173.07798811618923" y2="329.86554390135444" />
    <line x1="179.20092303403067" y1="315.08347138117381" x2="197.56972778755497" y2="270.73725382063208" />
    <line x1="124.72065263480047" y1="395.384252869671" x2="139.80534821323238" y2="367.16277241052364" />
    <line x1="125.66420085270687" y1="358.68689486682763" x2="143.44244830933414" y2="332.07986727314619" />
    <line x1="152.33157203764776" y1="318.77635347630547" x2="178.99894322258865" y2="278.86581208578326" />
    <line x1="92.12134316727095" y1="373.60209067254743" x2="102.27163571388927" y2="361.23392341874364" />
    <line x1="88.892352261675256" y1="349.10764773832477" x2="100.20606076066002" y2="337.79393923934003" />
    <line x1="111.51976925964479" y1="326.48023074035524" x2="134.14718625761429" y2="303.85281374238571" />
    <line x1="156.77460325558383" y1="281.22539674441617" x2="168.08831175456857" y2="269.91168824543144" />
    <line x1="179.40202025355336" y1="258.59797974644664" x2="190.7157287525381" y2="247.2842712474619" />
    <line x1="76.766076581256442" y1="335.72836428611083" x2="101.50241108886402" y2="315.4277791928742" />
    <line x1="119.22364652369457" y1="285.66842796235227" x2="159.13418791421674" y2="259.00105677741135" />
    <line x1="28.505006900755347" y1="320.82169515441552" x2="42.615747130329" y2="313.27934736519956" />
    <line x1="70.837227589476356" y1="298.19465178676762" x2="99.058708048623728" y2="283.10995620833569" />
    <line x1="49.006166017923277" y1="289.41375155517665" x2="78.57031105828446" y2="277.16788171949372" />
    <line x1="93.352383578465037" y1="271.04494680165226" x2="122.91652861882621" y2="258.79907696596939" />
    <line x1="137.69860113900677" y1="252.67614204812796" x2="167.26274617936795" y2="240.43027221244506" />
    <line x1="27.611932853558244" y1="277.05693545089247" x2="42.922978225273567" y2="272.41238061482107" />
    <line x1="54.2280728922573" y1="251.77517409870961" x2="69.920637378708989" y2="248.65372894645157" />
    <line x1="101.30576635161236" y1="242.41083864193544" x2="116.99833083806405" y2="239.28939348967737" />
    <line x1="35.886010292315774" y1="237.03515382063912" x2="51.808965919070914" y2="235.46687957536616" />
    <line x1="67.731921545826054" y1="233.89860533009318" x2="83.654877172581223" y2="232.33033108482022" />
    <line x1="19" y1="219.00000000000003" x2="51" y2="219.00000000000003" />
    <line x1="115" y1="219.00000000000003" x2="147" y2="219" />
    <line x1="4.0400990388054652" y1="197.828297688815" x2="35.886010292315774" y2="200.96484617936093" />
    <line x1="51.808965919070914" y1="202.53312042463389" x2="67.731921545826054" y2="204.10139466990688" />
    <line x1="22.8429439193539" y1="179.98193559677435" x2="38.535508405805615" y2="183.1033807490324" />
    <line x1="85.613201865160647" y1="192.46771620580654" x2="116.99833083806404" y2="198.71060651032266" />
    <line x1="12.300887481842864" y1="156.2985097130362" x2="27.611932853558216" y2="160.94306454910759" />
    <line x1="73.545068968704243" y1="174.87672905732177" x2="88.8561143404196" y2="179.52128389339316" />
    <line x1="34.224093497742672" y1="142.463313526982" x2="63.788238538103855" y2="154.70918336266487" />
    <line x1="93.352383578465023" y1="166.95505319834777" x2="137.69860113900677" y2="185.32385795187207" />
    <line x1="167.26274617936795" y1="197.56972778755497" x2="182.04481869954853" y2="203.6926627053964" />
    <line x1="42.615747130329" y1="124.72065263480049" x2="56.726487359902677" y2="132.26300042401644" />
    <line x1="39.402563742650187" y1="98.996829667766008" x2="52.706077539490906" y2="107.88595339607963" />
    <line x1="66.009591336331624" y1="116.77507712439326" x2="79.313105133172371" y2="125.66420085270688" />
    <line x1="92.61661893001309" y1="134.55332458102052" x2="119.22364652369454" y2="152.33157203764779" />
    <line x1="145.83067411737602" y1="170.10981949427503" x2="159.13418791421674" y2="178.99894322258865" />
    <line x1="64.397909327452624" y1="92.121343167270879" x2="76.766076581256414" y2="102.27163571388921" />
    <line x1="89.1342438350602" y1="112.42192826050754" x2="113.87057834266778" y2="132.72251335374421" />
    <line x1="66.2649352637057" y1="66.26493526370578" x2="77.578643762690461" y2="77.578643762690518" />
    <line x1="88.892352261675228" y1="88.892352261675285" x2="100.20606076066" y2="100.20606076066005" />
    <line x1="122.83347775862951" y1="122.83347775862956" x2="145.46089475659903" y2="145.46089475659909" />
    <line x1="168.08831175456857" y1="168.08831175456859" x2="179.40202025355333" y2="179.40202025355336" />
    <line x1="81.971050620652477" y1="52.02974207364889" x2="102.27163571388915" y2="76.766076581256442" />
    <line x1="112.42192826050749" y1="89.134243835060232" x2="122.57222080712582" y2="101.50241108886402" />
    <line x1="107.88595339607957" y1="52.706077539490963" x2="125.66420085270684" y2="79.3131051331724" />
    <line x1="143.44244830933411" y1="105.92013272685385" x2="161.22069576596138" y2="132.5271603205353" />
    <line x1="124.72065263480042" y1="42.615747130329027" x2="132.26300042401638" y2="56.726487359902706" />
    <line x1="139.80534821323235" y1="70.837227589476385" x2="147.34769600244832" y2="84.947967819050064" />
    <line x1="148.58624844482335" y1="49.006166017923277" x2="154.70918336266482" y2="63.788238538103855" />
    <line x1="166.95505319834771" y1="93.352383578465037" x2="179.20092303403061" y2="122.91652861882621" />
    <line x1="191.44679286971348" y1="152.48067365918737" x2="197.56972778755494" y2="167.26274617936795" />
    <line x1="170.23217422125032" y1="58.234023596988919" x2="179.5212838933931" y2="88.8561143404196" />
    <line x1="179.98193559677426" y1="22.842943919353928" x2="183.10338074903231" y2="38.535508405805615" />
    <line x1="189.34627105354844" y1="69.920637378708989" x2="195.58916135806456" y2="101.30576635161236" />
    <line x1="201.83205166258068" y1="132.69089532451574" x2="204.95349681483873" y2="148.38345981096742" />
    <line x1="200.96484617936088" y1="35.886010292315774" x2="205.66966891517978" y2="83.654877172581223" />
  </g>
  <path fill="none" stroke="#ff0000" stroke-width="2" stroke-linecap="square" stroke-linejoin="round" d="M 229.59861765472229,3.2601814596827694 L 228.42099347086426,27.231272408606912 A 192,192 0 0,0 190.82774890457043,29.078110086762081 L 193.17543649585622,44.904934246198565 A 176,176 0 0,0 159.70738580296927,53.288244527788351 L 165.09762345724479,68.352949570716675 A 160,160 0 0,0 150.59118505115481,74.361713100249091 L 157.43206654603932,88.825541790224179 A 144,144 0 0,0 144.96920483617606,95.48708015996084 L 136.74356092908448,81.763422399956482 A 160,160 0 0,0 123.68811128121068,90.4867949630968 L 114.15692240933176,77.635474459406481 A 176,176 0 0,0 100.80562394692471,88.592601937527235 L 111.550567224477,100.44781994320658 A 160,160 0 0,0 100.44781994320654,111.55056722447706 L 88.5926019375272,100.80562394692477 A 176,176 0 0,0 77.635474459406424,114.15692240933181 L 90.48679496309677,123.68811128121074 A 160,160 0 0,0 60.731758405635048,195.52312408714209 L 44.904934246198565,193.1754364958563 A 176,176 0 0,0 43.211999707889646,210.36408931837448 L 11.25054510932415,208.79392373989714 A 208,208 0 0,0 23.158834441931674,289.07308950558172 L 38.22353948486,283.68285185130622 A 192,192 0 0,0 45.434055720298915,301.09057793861427 L 59.897884410274,294.2496964437297 A 176,176 0 0,0 77.635474459406481,323.84307759066826 L 90.4867949630968,314.31188871878931 A 160,160 0 0,1 81.763422399956482,301.25643907091546 L 95.487080159960826,293.03079516382394 A 144,144 0 0,0 112.30303794888592,315.70448949797071 L 124.15825595456526,304.95954622041836 A 128,128 0 0,1 106.11407816341057,279.33878231372773 L 134.33555862255793,264.2540867352958 A 96,96 0 0,1 123.4622662394691,228.40964547163782 L 139.38522186622424,226.84137122636483 A 80,80 0 0,0 142.4447731414233,242.222774180357 L 157.75581851313865,237.5782193442856 A 64,64 0 0,1 165.7859448126371,183.44350508674549 L 179.08945860947782,192.33262881505911 A 48,48 0 0,1 209.63566454322583,171.92230654064494 L 212.75710969548388,187.61487102709663 A 32,32 0 0,0 206.75413016431713,248.56414504036118 L 209.81559762323786,241.17310878027089" />
  <type>Circular</type>
</svg>