<?xml version="1.0" encoding="utf-8" standalone="no"?>
<!DOCTYPE svg PUBLIC "-//W3C//DTD SVG 1.1//EN" "http://www.w3.org/Graphics/SVG/1.1/DTD/svg11.dtd"[]>
<svg width="436" height="436" version="1.1" xmlns="http://www.w3.org/2000/svg">
  <title>27 cells diameter theta maze</title>
  <g fill="none" stroke="#000000" stroke-width="2" stroke-linecap="square">
    <path d="M 202.02943725152286,235.97056274847714 A 24,24 0 1,1 219,243" />
    <path d="M 182.04481869954853,203.6926627053964 A 40,40 0 0,1 247.2842712474619,190.7157287525381" />
    <path d="M 255.95518130045147,203.6926627053964 A 40,40 0 0,1 255.95518130045147,234.3073372946036" />
    <path d="M 247.2842712474619,247.2842712474619 A 40,40 0 0,1 234.3073372946036,255.95518130045147" />
    <path d="M 219,259 A 40,40 0 0,1 182.04481869954853,234.3073372946036" />
    <path d="M 240.43027221244503,167.26274617936795 A 56,56 0 0,1 270.73725382063208,197.56972778755497" />
    <path d="M 270.73725382063208,240.43027221244503 A 56,56 0 0,1 258.59797974644664,258.59797974644664" />
    <path d="M 219,275 A 56,56 0 0,1 197.569727787555,270.73725382063208" />
    <path d="M 179.40202025355336,258.59797974644664 A 56,56 0 0,1 167.26274617936795,240.43027221244506" />
    <path d="M 163,219 A 56,56 0 0,1 167.26274617936795,197.56972778755497" />
    <path d="M 179.40202025355333,179.40202025355336 A 56,56 0 0,1 197.56972778755494,167.26274617936795" />
    <path d="M 204.95349681483873,148.3834598109674 A 72,72 0 0,1 219,147" />
    <path d="M 259.00105677741135,159.13418791421674 A 72,72 0 0,1 269.91168824543144,168.08831175456857" />
    <path d="M 278.86581208578326,178.99894322258865 A 72,72 0 0,1 291,219" />
    <path d="M 289.61654018903261,233.04650318516124 A 72,72 0 0,1 269.91168824543144,269.91168824543144" />
    <path d="M 259.00105677741135,278.86581208578326 A 72,72 0 0,1 219,291" />
    <path d="M 204.95349681483876,289.61654018903261 A 72,72 0 0,1 191.44679286971353,285.51932634081265" />
    <path d="M 168.08831175456859,269.91168824543144 A 72,72 0 0,1 159.13418791421674,259.00105677741135" />
    <path d="M 152.48067365918737,246.5532071302865 A 72,72 0 0,1 159.13418791421674,178.99894322258865" />
    <path d="M 168.08831175456857,168.08831175456859 A 72,72 0 0,1 191.44679286971348,152.48067365918737" />
    <path d="M 201.83205166258068,132.69089532451574 A 88,88 0 0,1 267.89018050572497,145.83067411737602" />
    <path d="M 281.22539674441617,156.77460325558383 A 88,88 0 0,1 305.30910467548426,201.83205166258071" />
    <path d="M 300.30139886099323,252.6761420481279 A 88,88 0 0,1 281.22539674441617,281.22539674441617" />
    <path d="M 236.16794833741932,305.30910467548426 A 88,88 0 0,1 201.83205166258071,305.30910467548426" />
    <path d="M 185.32385795187213,300.30139886099323 A 88,88 0 0,1 156.77460325558383,281.22539674441617" />
    <path d="M 137.69860113900677,252.67614204812796 A 88,88 0 0,1 137.69860113900677,185.32385795187207" />
    <path d="M 145.830674117376,170.10981949427503 A 88,88 0 0,1 185.32385795187204,137.69860113900677" />
    <path d="M 198.71060651032261,116.99833083806405 A 104,104 0 0,1 239.28939348967734,116.99833083806404" />
    <path d="M 276.77930423403865,132.5271603205353 A 104,104 0 0,1 292.53910524340097,145.46089475659906" />
    <path d="M 305.4728396794647,161.22069576596135 A 104,104 0 0,1 321.001669161936,198.71060651032266" />
    <path d="M 321.001669161936,239.28939348967734 A 104,104 0 0,1 315.08347138117381,258.79907696596933" />
    <path d="M 292.53910524340097,292.53910524340097 A 104,104 0 0,1 258.79907696596933,315.08347138117381" />
    <path d="M 239.28939348967737,321.001669161936 A 104,104 0 0,1 161.22069576596141,305.47283967946476" />
    <path d="M 132.5271603205353,276.77930423403865 A 104,104 0 0,1 122.91652861882621,258.79907696596939" />
    <path d="M 115,219.00000000000003 A 104,104 0 0,1 132.52716032053527,161.22069576596141" />
    <path d="M 145.46089475659903,145.46089475659909 A 104,104 0 0,1 161.22069576596135,132.5271603205353" />
    <path d="M 219,99 A 120,120 0 0,1 264.9220118838108,108.13445609864559" />
    <path d="M 285.66842796235227,119.22364652369457 A 120,120 0 0,1 329.86554390135439,173.07798811618923" />
    <path d="M 285.66842796235227,318.77635347630542 A 120,120 0 0,1 195.58916135806459,336.69423364838764" />
    <path d="M 134.14718625761429,303.85281374238571 A 120,120 0 0,1 99,219.00000000000003" />
    <path d="M 101.30576635161235,195.58916135806462 A 120,120 0 0,1 108.1344560986456,173.0779881161892" />
    <path d="M 119.22364652369454,152.33157203764779 A 120,120 0 0,1 134.14718625761429,134.14718625761432" />
    <path d="M 205.66966891517978,83.654877172581223 A 136,136 0 0,1 245.53228379419343,85.613201865160647" />
    <path d="M 258.4787161066069,88.8561143404196 A 136,136 0 0,1 324.12942165733222,132.72251335374421" />
    <path d="M 349.14388565958041,179.52128389339313 A 136,136 0 0,1 352.38679813483935,192.46771620580654" />
    <path d="M 354.34512282741878,205.66966891517973 A 136,136 0 0,1 349.14388565958041,258.47871610660684" />
    <path d="M 332.07986727314619,294.55755169066589 A 136,136 0 0,1 258.4787161066069,349.14388565958041" />
    <path d="M 245.53228379419349,352.3867981348393 A 136,136 0 0,1 232.33033108482027,354.34512282741878" />
    <path d="M 219.00000000000003,355 A 136,136 0 0,1 205.66966891517976,354.34512282741878" />
    <path d="M 179.52128389339316,349.14388565958041 A 136,136 0 0,1 143.44244830933414,332.07986727314619" />
    <path d="M 132.72251335374423,324.12942165733227 A 136,136 0 0,1 93.352383578465037,271.04494680165226" />
    <path d="M 88.8561143404196,258.4787161066069 A 136,136 0 0,1 83.654877172581223,232.33033108482022" />
    <path d="M 83,219.00000000000003 A 136,136 0 0,1 83.654877172581223,205.66966891517984" />
    <path d="M 88.8561143404196,179.52128389339316 A 136,136 0 0,1 105.92013272685382,143.44244830933414" />
    <path d="M 122.83347775862951,122.83347775862956 A 136,136 0 0,1 132.72251335374415,113.87057834266783" />
    <path d="M 143.44244830933411,105.92013272685385 A 136,136 0 0,1 154.89004379166428,99.058708048623743" />
    <path d="M 166.95505319834771,93.352383578465037 A 136,136 0 0,1 192.46771620580648,85.613201865160676" />
    <path d="M 219,67 A 152,152 0 0,1 233.8986053300932,67.731921545826083" />
    <path d="M 303.44667541897957,92.616618930013118 A 152,152 0 0,1 345.38338106998685,134.55332458102046" />
    <path d="M 353.05203218094994,147.34769600244835 A 152,152 0 0,1 370.26807845417392,233.89860533009323" />
    <path d="M 364.45493103129576,263.12327094267823 A 152,152 0 0,1 353.05203218094994,290.65230399755166" />
    <path d="M 345.38338106998691,303.44667541897951 A 152,152 0 0,1 315.42777919287414,336.497588911136" />
    <path d="M 248.65372894645154,368.079362621291 A 152,152 0 0,1 233.89860533009323,370.26807845417392" />
    <path d="M 219.00000000000003,371 A 152,152 0 0,1 204.1013946699068,370.26807845417392" />
    <path d="M 160.83211828050636,359.4296889417156 A 152,152 0 0,1 134.55332458102049,345.38338106998691" />
    <path d="M 111.51976925964479,326.48023074035524 A 152,152 0 0,1 92.616618930013118,303.44667541897951" />
    <path d="M 84.947967819050064,290.65230399755171 A 152,152 0 0,1 73.545068968704243,263.12327094267829" />
    <path d="M 67,219.00000000000003 A 152,152 0 0,1 73.545068968704243,174.87672905732177" />
    <path d="M 78.570311058284432,160.83211828050634 A 152,152 0 0,1 92.61661893001309,134.55332458102052" />
    <path d="M 134.55332458102046,92.616618930013118 A 152,152 0 0,1 174.87672905732171,73.545068968704271" />
    <path d="M 186.22482590129039,54.2280728922573 A 168,168 0 0,1 219,51" />
    <path d="M 251.77517409870956,54.228072892257273 A 168,168 0 0,1 325.57807173949243,89.134243835060175" />
    <path d="M 358.68689486682763,125.66420085270683 A 168,168 0 0,1 367.16277241052364,139.80534821323238" />
    <path d="M 374.21176146189617,154.70918336266493 A 168,168 0 0,1 383.77192710774273,251.77517409870953" />
    <path d="M 379.76597640301111,267.76782577874962 A 168,168 0 0,1 374.21176146189617,283.29081663733507" />
    <path d="M 367.16277241052364,298.19465178676762 A 168,168 0 0,1 337.79393923934,337.79393923934" />
    <path d="M 325.57807173949243,348.86575616493985 A 168,168 0 0,1 312.33579914729319,358.68689486682763" />
    <path d="M 298.19465178676762,367.16277241052364 A 168,168 0 0,1 283.29081663733507,374.21176146189617" />
    <path d="M 251.77517409870961,383.77192710774273 A 168,168 0 0,1 235.46687957536622,386.19103408092906" />
    <path d="M 202.53312042463381,386.19103408092906 A 168,168 0 0,1 139.80534821323241,367.16277241052364" />
    <path d="M 125.66420085270688,358.68689486682763 A 168,168 0 0,1 112.42192826050759,348.86575616493985" />
    <path d="M 100.20606076066004,337.79393923934003 A 168,168 0 0,1 79.3131051331724,312.33579914729319" />
    <path d="M 51,219.00000000000003 A 168,168 0 0,1 58.234023596988891,170.23217422125038" />
    <path d="M 79.313105133172371,125.66420085270688 A 168,168 0 0,1 89.1342438350602,112.42192826050754" />
    <path d="M 100.20606076066,100.20606076066004 A 168,168 0 0,1 139.80534821323235,70.837227589476385" />
    <path d="M 219,35 A 184,184 0 0,1 237.03515382063915,35.886010292315774" />
    <path d="M 272.41238061482107,42.922978225273567 A 184,184 0 0,1 289.41375155517653,49.006166017923249" />
    <path d="M 335.72836428611078,76.766076581256385 A 184,184 0 0,1 349.10764773832477,88.892352261675256" />
    <path d="M 381.27351264009735,132.26300042401641 A 184,184 0 0,1 388.99383398207675,148.58624844482347" />
    <path d="M 399.46449159419444,183.1033807490324 A 184,184 0 0,1 402.11398970768425,200.96484617936082" />
    <path d="M 403,219 A 184,184 0 0,1 402.11398970768425,237.03515382063915" />
    <path d="M 399.46449159419444,254.8966192509676 A 184,184 0 0,1 395.0770217747264,272.412380614821" />
    <path d="M 388.99383398207681,289.41375155517653 A 184,184 0 0,1 371.99040866366835,321.22492287560675" />
    <path d="M 321.22492287560681,371.99040866366835 A 184,184 0 0,1 305.73699957598359,381.27351264009729" />
    <path d="M 289.41375155517653,388.99383398207675 A 184,184 0 0,1 272.41238061482107,395.0770217747264" />
    <path d="M 254.89661925096766,399.46449159419438 A 184,184 0 0,1 200.96484617936085,402.11398970768425" />
    <path d="M 165.58761938517898,395.0770217747264 A 184,184 0 0,1 132.26300042401644,381.27351264009735" />
    <path d="M 102.27163571388927,361.23392341874364 A 184,184 0 0,1 76.76607658125647,335.72836428611083" />
    <path d="M 66.009591336331681,321.22492287560681 A 184,184 0 0,1 42.922978225273567,272.41238061482107" />
    <path d="M 35.886010292315774,237.03515382063912 A 184,184 0 0,1 56.726487359902677,132.26300042401647" />
    <path d="M 66.009591336331624,116.77507712439326 A 184,184 0 0,1 88.892352261675228,88.892352261675285" />
    <path d="M 116.77507712439319,66.009591336331681 A 184,184 0 0,1 148.58624844482335,49.006166017923277" />
    <path d="M 165.5876193851789,42.922978225273567 A 184,184 0 0,1 200.96484617936088,35.886010292315774" />
    <path d="M 199.39657193408789,19.963054665560634 A 200,200 0 0,1 219,19" />
    <path d="M 238.60342806591211,19.963054665560634 A 200,200 0 0,1 277.05693545089247,27.611932853558216" />
    <path d="M 295.53668647301794,34.224093497742643 A 200,200 0 0,1 345.87865683272912,64.3979093274526" />
    <path d="M 360.42135623730951,77.57864376269049 A 200,200 0 0,1 373.60209067254738,92.1213431672709" />
    <path d="M 403.77590650225738,142.46331352698203 A 200,200 0 0,1 410.38806714644181,160.94306454910753" />
    <path d="M 418.03694533443934,238.60342806591214 A 200,200 0 0,1 415.1570560806461,258.01806440322565" />
    <path d="M 385.29392246050907,330.11404660392043 A 200,200 0 0,1 373.60209067254743,345.87865683272906" />
    <path d="M 360.42135623730951,360.42135623730951 A 200,200 0 0,1 330.11404660392043,385.29392246050907" />
    <path d="M 313.27934736519956,395.38425286967095 A 200,200 0 0,1 295.536686473018,403.77590650225738" />
    <path d="M 277.05693545089247,410.38806714644181 A 200,200 0 0,1 258.01806440322571,415.15705608064604" />
    <path d="M 238.60342806591217,418.03694533443934 A 200,200 0 0,1 142.46331352698206,403.77590650225738" />
    <path d="M 107.88595339607961,385.29392246050907 A 200,200 0 0,1 52.706077539490934,330.11404660392043" />
    <path d="M 42.615747130329027,313.27934736519956 A 200,200 0 0,1 34.2240934977427,295.53668647301805" />
    <path d="M 22.842943919353928,258.01806440322571 A 200,200 0 0,1 19.963054665560634,238.60342806591208" />
    <path d="M 34.224093497742672,142.463313526982 A 200,200 0 0,1 64.397909327452624,92.121343167270879" />
    <path d="M 92.121343167270808,64.39790932745268 A 200,200 0 0,1 107.88595339607956,52.706077539490963" />
    <path d="M 124.72065263480042,42.615747130329027 A 200,200 0 0,1 142.46331352698192,34.2240934977427" />
    <path d="M 160.9430645491075,27.611932853558244 A 200,200 0 0,1 179.98193559677426,22.842943919353928" />
    <path d="M 240.1717023111851,4.0400990388054652 A 216,216 0 1,1 219,3" />
  </g>
  <g fill="none" stroke="#000000" stroke-width="2" stroke-linecap="butt">
    <line x1="219" y1="83" x2="219" y2="99" />
    <line x1="219" y1="115" x2="219" y2="147" />
    <line x1="219" y1="163" x2="219" y2="179" />
    <line x1="238.60342806591211" y1="19.963054665560605" x2="232.33033108482024" y2="83.654877172581223" />
    <line x1="254.8966192509676" y1="38.535508405805615" x2="248.65372894645151" y2="69.920637378708989" />
    <line x1="236.16794833741929" y1="132.69089532451574" x2="233.04650318516124" y2="148.3834598109674" />
    <line x1="277.05693545089247" y1="27.611932853558244" x2="272.41238061482107" y2="42.922978225273567" />
    <line x1="263.12327094267829" y1="73.545068968704271" x2="258.4787161066069" y2="88.8561143404196" />
    <line x1="283.29081663733507" y1="63.788238538103826" x2="277.16788171949366" y2="78.5703110582844" />
    <line x1="271.0449468016522" y1="93.352383578465009" x2="246.55320713028647" y2="152.48067365918735" />
    <line x1="313.27934736519956" y1="42.615747130329" x2="298.19465178676762" y2="70.837227589476356" />
    <line x1="290.65230399755166" y1="84.947967819050035" x2="283.10995620833569" y2="99.058708048623714" />
    <line x1="330.11404660392043" y1="52.706077539490963" x2="321.22492287560681" y2="66.009591336331681" />
    <line x1="312.33579914729319" y1="79.3131051331724" x2="303.44667541897957" y2="92.616618930013118" />
    <line x1="371.73506473629425" y1="66.264935263705723" x2="337.79393923934" y2="100.20606076066001" />
    <line x1="303.85281374238571" y1="134.14718625761429" x2="269.91168824543144" y2="168.08831175456857" />
    <line x1="373.60209067254743" y1="92.121343167270908" x2="336.497588911136" y2="122.57222080712589" />
    <line x1="398.59743625734978" y1="98.996829667765908" x2="371.99040866366829" y2="116.77507712439318" />
    <line x1="345.38338106998685" y1="134.55332458102043" x2="318.77635347630542" y2="152.33157203764773" />
    <line x1="395.384252869671" y1="124.72065263480044" x2="381.27351264009729" y2="132.26300042401641" />
    <line x1="367.16277241052364" y1="139.80534821323238" x2="338.94129195137629" y2="154.89004379166431" />
    <line x1="418.55797902243796" y1="136.3403786091406" x2="403.77590650225738" y2="142.46331352698203" />
    <line x1="388.99383398207675" y1="148.58624844482347" x2="374.21176146189617" y2="154.7091833626649" />
    <line x1="344.64761642153496" y1="166.9550531983478" x2="329.86554390135439" y2="173.0779881161892" />
    <line x1="285.51932634081265" y1="191.44679286971353" x2="270.73725382063208" y2="197.56972778755497" />
    <line x1="410.38806714644181" y1="160.94306454910753" x2="395.0770217747264" y2="165.58761938517893" />
    <line x1="415.1570560806461" y1="179.98193559677435" x2="399.46449159419438" y2="183.1033807490324" />
    <line x1="368.079362621291" y1="189.34627105354849" x2="305.30910467548426" y2="201.83205166258071" />
    <line x1="433.95990096119453" y1="197.82829768881487" x2="418.03694533443934" y2="199.39657193408783" />
    <line x1="402.11398970768425" y1="200.96484617936082" x2="386.19103408092906" y2="202.53312042463378" />
    <line x1="419" y1="219" x2="403" y2="219" />
    <line x1="339" y1="219" x2="243" y2="219" />
    <line x1="433.95990096119453" y1="240.1717023111851" x2="402.11398970768425" y2="237.03515382063915" />
    <line x1="399.46449159419438" y1="254.8966192509676" x2="336.69423364838764" y2="242.41083864193539" />
    <line x1="321.001669161936" y1="239.28939348967734" x2="289.61654018903261" y2="233.04650318516124" />
    <line x1="410.38806714644181" y1="277.05693545089241" x2="379.76597640301111" y2="267.76782577874962" />
    <line x1="364.45493103129576" y1="263.12327094267823" x2="349.14388565958041" y2="258.47871610660684" />
    <line x1="418.55797902243796" y1="301.6596213908594" x2="388.99383398207675" y2="289.41375155517653" />
    <line x1="344.64761642153496" y1="271.0449468016522" x2="315.08347138117381" y2="258.79907696596933" />
    <line x1="270.73725382063208" y1="240.43027221244503" x2="255.95518130045147" y2="234.3073372946036" />
    <line x1="395.384252869671" y1="313.27934736519956" x2="381.27351264009735" y2="305.73699957598359" />
    <line x1="367.16277241052364" y1="298.19465178676762" x2="338.94129195137629" y2="283.10995620833569" />
    <line x1="398.59743625734984" y1="339.00317033223405" x2="385.29392246050907" y2="330.11404660392037" />
    <line x1="345.38338106998691" y1="303.44667541897951" x2="305.47283967946476" y2="276.77930423403859" />
    <line x1="373.60209067254743" y1="345.87865683272906" x2="361.23392341874364" y2="335.72836428611072" />
    <line x1="360.42135623730951" y1="360.42135623730951" x2="337.79393923934" y2="337.79393923934" />
    <line x1="303.85281374238571" y1="303.85281374238571" x2="269.91168824543144" y2="269.91168824543144" />
    <line x1="345.87865683272912" y1="373.60209067254743" x2="315.42777919287414" y2="336.497588911136" />
    <line x1="339.00317033223405" y1="398.59743625734978" x2="330.11404660392043" y2="385.29392246050907" />
    <line x1="303.44667541897957" y1="345.38338106998691" x2="285.66842796235227" y2="318.77635347630542" />
    <line x1="276.77930423403865" y1="305.4728396794647" x2="267.89018050572497" y2="292.169325882624" />
    <line x1="313.27934736519956" y1="395.384252869671" x2="290.65230399755166" y2="353.05203218094994" />
    <line x1="301.6596213908594" y1="418.55797902243796" x2="295.536686473018" y2="403.77590650225738" />
    <line x1="289.41375155517653" y1="388.99383398207675" x2="283.29081663733507" y2="374.21176146189617" />
    <line x1="277.16788171949366" y1="359.4296889417156" x2="271.0449468016522" y2="344.64761642153496" />
    <line x1="264.9220118838108" y1="329.86554390135439" x2="234.3073372946036" y2="255.95518130045147" />
    <line x1="277.05693545089247" y1="410.38806714644176" x2="267.76782577874968" y2="379.76597640301111" />
    <line x1="263.12327094267829" y1="364.4549310312957" x2="258.4787161066069" y2="349.14388565958041" />
    <line x1="251.77517409870961" y1="383.77192710774273" x2="242.41083864193544" y2="336.69423364838764" />
    <line x1="239.28939348967737" y1="321.001669161936" x2="236.16794833741932" y2="305.30910467548426" />
    <line x1="238.60342806591217" y1="418.03694533443934" x2="237.03515382063918" y2="402.11398970768425" />
    <line x1="219.00000000000003" y1="387" x2="219.00000000000003" y2="355" />
    <line x1="219" y1="259" x2="219" y2="243" />
    <line x1="202.53312042463381" y1="386.19103408092906" x2="204.1013946699068" y2="370.268078454174" />
    <line x1="179.98193559677432" y1="415.1570560806461" x2="198.71060651032266" y2="321.001669161936" />
    <line x1="174.87672905732177" y1="364.45493103129576" x2="179.52128389339316" y2="349.14388565958041" />
    <line x1="154.70918336266493" y1="374.21176146189623" x2="160.83211828050636" y2="359.4296889417156" />
    <line x1="166.9550531983478" y1="344.647616421535" x2="173.07798811618923" y2="329.86554390135444" />
    <line x1="185.3238579518721" y1="300.30139886099323" x2="203.6926627053964" y2="255.95518130045147" />
    <line x1="117.17830484558451" y1="409.49499309924465" x2="132.26300042401644" y2="381.27351264009735" />
    <line x1="107.88595339607961" y1="385.29392246050907" x2="125.66420085270687" y2="358.68689486682763" />
    <line x1="134.55332458102049" y1="345.38338106998691" x2="143.44244830933414" y2="332.07986727314619" />
    <line x1="152.33157203764776" y1="318.77635347630547" x2="161.22069576596141" y2="305.47283967946476" />
    <line x1="170.10981949427503" y1="292.169325882624" x2="178.99894322258865" y2="278.86581208578326" />
    <line x1="112.4219282605076" y1="348.86575616493985" x2="132.72251335374426" y2="324.12942165733227" />
    <line x1="88.892352261675256" y1="349.10764773832477" x2="100.20606076066002" y2="337.79393923934003" />
    <line x1="145.46089475659906" y1="292.53910524340097" x2="156.77460325558383" y2="281.22539674441617" />
    <line x1="168.08831175456857" y1="269.91168824543144" x2="179.40202025355336" y2="258.59797974644664" />
    <line x1="52.706077539490963" y1="330.11404660392043" x2="79.3131051331724" y2="312.33579914729319" />
    <line x1="92.616618930013118" y1="303.44667541897957" x2="105.92013272685385" y2="294.55755169066589" />
    <line x1="132.5271603205353" y1="276.77930423403865" x2="159.13418791421674" y2="259.00105677741135" />
    <line x1="28.505006900755347" y1="320.82169515441552" x2="42.615747130329" y2="313.27934736519956" />
    <line x1="70.837227589476356" y1="298.19465178676762" x2="84.947967819050064" y2="290.65230399755166" />
    <line x1="49.006166017923277" y1="289.41375155517665" x2="63.788238538103855" y2="283.29081663733518" />
    <line x1="78.57031105828446" y1="277.16788171949372" x2="93.352383578465037" y2="271.04494680165226" />
    <line x1="108.13445609864561" y1="264.92201188381085" x2="122.91652861882621" y2="258.79907696596939" />
    <line x1="167.26274617936795" y1="240.43027221244506" x2="182.04481869954856" y2="234.3073372946036" />
    <line x1="12.300887481842892" y1="281.70149028696392" x2="42.922978225273567" y2="272.41238061482107" />
    <line x1="58.234023596988919" y1="267.76782577874968" x2="73.545068968704271" y2="263.12327094267829" />
    <line x1="7.1503794329022412" y1="261.13950955548381" x2="69.920637378708989" y2="248.65372894645157" />
    <line x1="101.30576635161236" y1="242.41083864193544" x2="132.69089532451574" y2="236.16794833741932" />
    <line x1="35.886010292315774" y1="237.03515382063912" x2="83.654877172581223" y2="232.33033108482022" />
    <line x1="19" y1="219.00000000000003" x2="35" y2="219.00000000000003" />
    <line x1="83" y1="219.00000000000003" x2="99" y2="219.00000000000003" />
    <line x1="163" y1="219" x2="195" y2="219" />
    <line x1="4.0400990388054652" y1="197.828297688815" x2="19.963054665560605" y2="199.39657193408797" />
    <line x1="22.8429439193539" y1="179.98193559677435" x2="38.535508405805615" y2="183.1033807490324" />
    <line x1="54.228072892257273" y1="186.22482590129044" x2="101.30576635161235" y2="195.58916135806462" />
    <line x1="12.300887481842864" y1="156.2985097130362" x2="27.611932853558216" y2="160.94306454910759" />
    <line x1="42.922978225273567" y1="165.58761938517898" x2="58.234023596988891" y2="170.23217422125038" />
    <line x1="73.545068968704243" y1="174.87672905732177" x2="88.8561143404196" y2="179.52128389339316" />
    <line x1="63.788238538103855" y1="154.70918336266487" x2="78.570311058284432" y2="160.83211828050634" />
    <line x1="108.1344560986456" y1="173.0779881161892" x2="137.69860113900677" y2="185.32385795187207" />
    <line x1="152.48067365918735" y1="191.44679286971353" x2="182.04481869954853" y2="203.6926627053964" />
    <line x1="56.726487359902677" y1="132.26300042401644" x2="70.837227589476356" y2="139.80534821323241" />
    <line x1="52.706077539490906" y1="107.88595339607963" x2="92.61661893001309" y2="134.55332458102052" />
    <line x1="105.92013272685382" y1="143.44244830933417" x2="119.22364652369454" y2="152.33157203764779" />
    <line x1="145.83067411737602" y1="170.10981949427503" x2="159.13418791421674" y2="178.99894322258865" />
    <line x1="52.029742073648833" y1="81.971050620652562" x2="64.397909327452624" y2="92.121343167270879" />
    <line x1="89.1342438350602" y1="112.42192826050754" x2="113.87057834266778" y2="132.72251335374421" />
    <line x1="77.578643762690461" y1="77.578643762690518" x2="100.20606076066" y2="100.20606076066005" />
    <line x1="111.51976925964475" y1="111.5197692596448" x2="145.46089475659903" y2="145.46089475659909" />
    <line x1="168.08831175456857" y1="168.08831175456859" x2="179.40202025355333" y2="179.40202025355336" />
    <line x1="81.971050620652477" y1="52.02974207364889" x2="102.27163571388915" y2="76.766076581256442" />
    <line x1="112.42192826050749" y1="89.134243835060232" x2="132.72251335374415" y2="113.87057834266781" />
    <line x1="107.88595339607957" y1="52.706077539490963" x2="116.77507712439319" y2="66.009591336331681" />
    <line x1="134.55332458102046" y1="92.616618930013118" x2="143.44244830933411" y2="105.92013272685385" />
    <line x1="152.33157203764773" y1="119.22364652369457" x2="161.22069576596138" y2="132.5271603205353" />
    <line x1="136.34037860914049" y1="19.442020977562123" x2="142.46331352698192" y2="34.2240934977427" />
    <line x1="148.58624844482335" y1="49.006166017923277" x2="160.83211828050625" y2="78.57031105828446" />
    <line x1="166.95505319834771" y1="93.352383578465037" x2="191.44679286971348" y2="152.48067365918737" />
    <line x1="160.9430645491075" y1="27.611932853558244" x2="170.23217422125032" y2="58.234023596988919" />
    <line x1="176.86049044451619" y1="7.1503794329022412" x2="179.98193559677426" y2="22.842943919353928" />
    <line x1="186.22482590129039" y1="54.2280728922573" x2="198.71060651032261" y2="116.99833083806405" />
    <line x1="199.39657193408789" y1="19.963054665560605" x2="200.96484617936088" y2="35.886010292315774" />
    <line x1="204.1013946699068" y1="67.731921545826054" x2="205.66966891517978" y2="83.654877172581223" />
  </g>
  <path fill="none" stroke="#ff0000" stroke-width="2" stroke-linecap="square" stroke-linejoin="round" d="M 229.59861765472229,3.2601814596827694 L 228.42099347086426,27.231272408606912 A 192,192 0 0,0 209.57900652913574,27.231272408606912 L 210.36408931837443,43.211999707889646 A 176,176 0 0,0 176.23548833702552,48.274499437760284 L 184.01085409392996,79.315499539985666 A 144,144 0 0,0 157.43206654603932,88.825541790224179 L 164.27294804092384,103.28937048019928 A 128,128 0 0,0 158.66121768627227,106.11407816341058 L 173.7459132647042,134.33555862255793 A 96,96 0 0,0 134.33555862255793,173.74591326470423 L 148.44629885213158,181.2882610539202 A 80,80 0 0,0 148.44629885213161,256.71173894607983 L 162.55703908170528,249.16939115686387 A 64,64 0 0,1 156.22974205419325,231.48578060903225 L 187.61487102709663,225.24289030451612 A 32,32 0 0,0 206.75413016431713,248.56414504036118 L 209.81559762323786,241.17310878027089" />
  <type>Circular</type>
</svg>