<?xml version="1.0" encoding="utf-8" standalone="no"?>
<!DOCTYPE svg PUBLIC "-//W3C//DTD SVG 1.1//EN" "http://www.w3.org/Graphics/SVG/1.1/DTD/svg11.dtd"[]>
<svg width="436" height="436" version="1.1" xmlns="http://www.w3.org/2000/svg">
  <title>27 cells diameter theta maze</title>
  <g fill="none" stroke="#000000" stroke-width="2" stroke-linecap="square">
    <path d="M 202.02943725152286,235.97056274847714 A 24,24 0 1,1 219,243" />
    <path d="M 182.04481869954853,234.3073372946036 A 40,40 0 0,1 219,179" />
    <path d="M 234.3073372946036,182.04481869954853 A 40,40 0 0,1 255.95518130045147,203.6926627053964" />
    <path d="M 259,219 A 40,40 0 0,1 255.95518130045147,234.3073372946036" />
    <path d="M 247.2842712474619,247.2842712474619 A 40,40 0 0,1 234.3073372946036,255.95518130045147" />
    <path d="M 203.6926627053964,255.95518130045147 A 40,40 0 0,1 190.7157287525381,247.2842712474619" />
    <path d="M 179.40202025355333,179.40202025355336 A 56,56 0 0,1 240.43027221244503,167.26274617936795" />
    <path d="M 275,219 A 56,56 0 0,1 270.73725382063208,240.43027221244503" />
    <path d="M 240.43027221244503,270.73725382063208 A 56,56 0 0,1 219,275" />
    <path d="M 179.40202025355336,258.59797974644664 A 56,56 0 0,1 167.26274617936795,240.43027221244506" />
    <path d="M 163,219 A 56,56 0 0,1 167.26274617936795,197.56972778755497" />
    <path d="M 204.95349681483873,148.3834598109674 A 72,72 0 0,1 233.04650318516124,148.3834598109674" />
    <path d="M 246.55320713028647,152.48067365918735 A 72,72 0 0,1 278.86581208578326,178.99894322258865" />
    <path d="M 285.51932634081265,191.44679286971353 A 72,72 0 0,1 291,219" />
    <path d="M 289.61654018903261,233.04650318516124 A 72,72 0 0,1 259.00105677741135,278.86581208578326" />
    <path d="M 246.55320713028647,285.51932634081265 A 72,72 0 0,1 233.04650318516127,289.61654018903261" />
    <path d="M 219,291 A 72,72 0 0,1 204.95349681483876,289.61654018903261" />
    <path d="M 178.99894322258865,278.86581208578326 A 72,72 0 0,1 168.08831175456859,269.91168824543144" />
    <path d="M 152.48067365918737,246.5532071302865 A 72,72 0 0,1 147,219" />
    <path d="M 148.3834598109674,204.95349681483876 A 72,72 0 0,1 178.99894322258865,159.13418791421674" />
    <path d="M 137.69860113900677,252.67614204812796 A 88,88 0 0,1 252.6761420481279,137.69860113900677" />
    <path d="M 281.22539674441617,156.77460325558383 A 88,88 0 0,1 300.30139886099323,185.3238579518721" />
    <path d="M 305.30910467548426,201.83205166258071 A 88,88 0 0,1 307,219" />
    <path d="M 300.30139886099323,252.6761420481279 A 88,88 0 0,1 292.169325882624,267.89018050572497" />
    <path d="M 267.89018050572497,292.169325882624 A 88,88 0 0,1 252.6761420481279,300.30139886099323" />
    <path d="M 236.16794833741932,305.30910467548426 A 88,88 0 0,1 219,307" />
    <path d="M 201.83205166258071,305.30910467548426 A 88,88 0 0,1 145.83067411737602,267.89018050572497" />
    <path d="M 161.22069576596135,132.5271603205353 A 104,104 0 0,1 219,115" />
    <path d="M 239.28939348967734,116.99833083806404 A 104,104 0 0,1 276.77930423403865,132.5271603205353" />
    <path d="M 305.4728396794647,161.22069576596135 A 104,104 0 0,1 321.001669161936,198.71060651032266" />
    <path d="M 321.001669161936,239.28939348967734 A 104,104 0 0,1 315.08347138117381,258.79907696596933" />
    <path d="M 292.53910524340097,292.53910524340097 A 104,104 0 0,1 276.77930423403859,305.4728396794647" />
    <path d="M 258.79907696596933,315.08347138117381 A 104,104 0 0,1 219,323" />
    <path d="M 198.71060651032266,321.001669161936 A 104,104 0 0,1 179.20092303403067,315.08347138117381" />
    <path d="M 161.22069576596141,305.47283967946476 A 104,104 0 0,1 132.5271603205353,276.77930423403865" />
    <path d="M 122.91652861882621,258.79907696596939 A 104,104 0 0,1 116.99833083806404,239.28939348967737" />
    <path d="M 116.99833083806404,198.71060651032266 A 104,104 0 0,1 132.52716032053527,161.22069576596141" />
    <path d="M 195.58916135806456,101.30576635161236 A 120,120 0 0,1 303.85281374238571,134.14718625761429" />
    <path d="M 339,219 A 120,120 0 0,1 336.69423364838764,242.41083864193539" />
    <path d="M 303.85281374238571,303.85281374238571 A 120,120 0 0,1 242.41083864193544,336.69423364838764" />
    <path d="M 219.00000000000003,339 A 120,120 0 0,1 134.14718625761429,303.85281374238571" />
    <path d="M 119.22364652369457,285.66842796235227 A 120,120 0 0,1 108.13445609864561,264.92201188381085" />
    <path d="M 101.30576635161235,242.41083864193544 A 120,120 0 0,1 108.1344560986456,173.0779881161892" />
    <path d="M 119.22364652369454,152.33157203764779 A 120,120 0 0,1 134.14718625761429,134.14718625761432" />
    <path d="M 205.66966891517978,83.654877172581223 A 136,136 0 0,1 219,83" />
    <path d="M 232.33033108482024,83.654877172581223 A 136,136 0 0,1 258.4787161066069,88.8561143404196" />
    <path d="M 271.0449468016522,93.352383578465 A 136,136 0 0,1 294.55755169066589,105.92013272685385" />
    <path d="M 305.2774866462558,113.87057834266777 A 136,136 0 0,1 332.07986727314614,143.44244830933411" />
    <path d="M 338.94129195137629,154.89004379166431 A 136,136 0 0,1 349.14388565958041,179.52128389339313" />
    <path d="M 352.38679813483935,192.46771620580654 A 136,136 0 0,1 354.34512282741878,232.33033108482024" />
    <path d="M 349.14388565958041,258.47871610660684 A 136,136 0 0,1 344.647616421535,271.0449468016522" />
    <path d="M 338.94129195137629,283.10995620833569 A 136,136 0 0,1 332.07986727314619,294.55755169066589" />
    <path d="M 324.12942165733227,305.27748664625574 A 136,136 0 0,1 305.2774866462558,324.12942165733222" />
    <path d="M 294.55755169066589,332.07986727314619 A 136,136 0 0,1 245.53228379419349,352.3867981348393" />
    <path d="M 232.33033108482027,354.34512282741878 A 136,136 0 0,1 143.44244830933414,332.07986727314619" />
    <path d="M 132.72251335374423,324.12942165733227 A 136,136 0 0,1 122.83347775862956,315.16652224137044" />
    <path d="M 99.058708048623728,283.10995620833569 A 136,136 0 0,1 85.613201865160676,245.53228379419349" />
    <path d="M 83.654877172581223,205.66966891517984 A 136,136 0 0,1 105.92013272685382,143.44244830933414" />
    <path d="M 122.83347775862951,122.83347775862956 A 136,136 0 0,1 154.89004379166428,99.058708048623743" />
    <path d="M 179.5212838933931,88.8561143404196 A 136,136 0 0,1 192.46771620580648,85.613201865160676" />
    <path d="M 248.65372894645151,69.92063737870896 A 152,152 0 0,1 263.12327094267829,73.545068968704243" />
    <path d="M 277.16788171949366,78.5703110582844 A 152,152 0 0,1 290.65230399755166,84.947967819050035" />
    <path d="M 303.44667541897957,92.616618930013118 A 152,152 0 0,1 336.497588911136,122.57222080712587" />
    <path d="M 359.4296889417156,160.83211828050634 A 152,152 0 0,1 368.079362621291,189.34627105354849" />
    <path d="M 370.26807845417392,204.10139466990677 A 152,152 0 0,1 371,219" />
    <path d="M 370.26807845417392,233.89860533009323 A 152,152 0 0,1 315.42777919287414,336.497588911136" />
    <path d="M 263.12327094267829,364.45493103129576 A 152,152 0 0,1 219.00000000000003,371" />
    <path d="M 204.1013946699068,370.26807845417392 A 152,152 0 0,1 147.34769600244835,353.05203218094994" />
    <path d="M 122.57222080712592,336.49758891113606 A 152,152 0 0,1 111.51976925964479,326.48023074035524" />
    <path d="M 92.616618930013118,303.44667541897951 A 152,152 0 0,1 73.545068968704243,263.12327094267829" />
    <path d="M 67.731921545826083,233.89860533009318 A 152,152 0 0,1 73.545068968704243,174.87672905732177" />
    <path d="M 111.51976925964475,111.5197692596448 A 152,152 0 0,1 134.55332458102046,92.616618930013118" />
    <path d="M 160.83211828050625,78.57031105828446 A 152,152 0 0,1 174.87672905732171,73.545068968704271" />
    <path d="M 189.34627105354844,69.920637378708989 A 152,152 0 0,1 204.1013946699068,67.731921545826083" />
    <path d="M 202.53312042463384,51.808965919070914 A 168,168 0 0,1 219,51" />
    <path d="M 298.19465178676762,70.837227589476356 A 168,168 0 0,1 312.33579914729319,79.3131051331724" />
    <path d="M 325.57807173949243,89.134243835060175 A 168,168 0 0,1 348.8657561649398,112.42192826050756" />
    <path d="M 367.16277241052364,139.80534821323238 A 168,168 0 0,1 379.76597640301111,170.23217422125032" />
    <path d="M 386.19103408092906,202.53312042463378 A 168,168 0 0,1 386.19103408092906,235.46687957536619" />
    <path d="M 379.76597640301111,267.76782577874962 A 168,168 0 0,1 358.68689486682763,312.33579914729313" />
    <path d="M 312.33579914729319,358.68689486682763 A 168,168 0 0,1 298.19465178676762,367.16277241052364" />
    <path d="M 283.29081663733507,374.21176146189617 A 168,168 0 0,1 251.77517409870961,383.77192710774273" />
    <path d="M 170.23217422125038,379.76597640301111 A 168,168 0 0,1 154.70918336266493,374.21176146189617" />
    <path d="M 139.80534821323241,367.16277241052364 A 168,168 0 0,1 112.42192826050759,348.86575616493985" />
    <path d="M 100.20606076066004,337.79393923934003 A 168,168 0 0,1 89.134243835060232,325.57807173949249" />
    <path d="M 79.3131051331724,312.33579914729319 A 168,168 0 0,1 58.234023596988919,267.76782577874968" />
    <path d="M 54.2280728922573,251.77517409870961 A 168,168 0 0,1 51.808965919070914,235.46687957536616" />
    <path d="M 51.808965919070914,202.53312042463392 A 168,168 0 0,1 79.313105133172371,125.66420085270688" />
    <path d="M 112.42192826050749,89.134243835060261 A 168,168 0 0,1 125.66420085270683,79.3131051331724" />
    <path d="M 139.80534821323235,70.837227589476385 A 168,168 0 0,1 154.70918336266482,63.788238538103855" />
    <path d="M 219,35 A 184,184 0 0,1 272.41238061482107,42.922978225273567" />
    <path d="M 289.41375155517653,49.006166017923249 A 184,184 0 0,1 305.73699957598353,56.726487359902677" />
    <path d="M 321.22492287560681,66.009591336331681 A 184,184 0 0,1 381.27351264009735,132.26300042401641" />
    <path d="M 395.0770217747264,165.58761938517893 A 184,184 0 0,1 403,219" />
    <path d="M 402.11398970768425,237.03515382063915 A 184,184 0 0,1 395.0770217747264,272.412380614821" />
    <path d="M 388.99383398207681,289.41375155517653 A 184,184 0 0,1 381.27351264009735,305.73699957598359" />
    <path d="M 335.72836428611078,361.23392341874364 A 184,184 0 0,1 321.22492287560681,371.99040866366835" />
    <path d="M 305.73699957598359,381.27351264009729 A 184,184 0 0,1 289.41375155517653,388.99383398207675" />
    <path d="M 254.89661925096766,399.46449159419438 A 184,184 0 0,1 132.26300042401644,381.27351264009735" />
    <path d="M 102.27163571388927,361.23392341874364 A 184,184 0 0,1 88.892352261675285,349.10764773832477" />
    <path d="M 49.006166017923277,289.41375155517665 A 184,184 0 0,1 38.535508405805615,254.89661925096766" />
    <path d="M 35.886010292315774,237.03515382063912 A 184,184 0 0,1 35.886010292315774,200.96484617936093" />
    <path d="M 42.922978225273539,165.58761938517898 A 184,184 0 0,1 76.766076581256414,102.27163571388921" />
    <path d="M 88.892352261675228,88.892352261675285 A 184,184 0 0,1 132.26300042401638,56.726487359902706" />
    <path d="M 148.58624844482335,49.006166017923277 A 184,184 0 0,1 200.96484617936088,35.886010292315774" />
    <path d="M 219,19 A 200,200 0 0,1 238.60342806591211,19.963054665560634" />
    <path d="M 277.05693545089247,27.611932853558216 A 200,200 0 0,1 330.11404660392043,52.706077539490963" />
    <path d="M 345.87865683272912,64.3979093274526 A 200,200 0 0,1 360.42135623730951,77.57864376269049" />
    <path d="M 373.60209067254738,92.1213431672709 A 200,200 0 0,1 385.29392246050907,107.88595339607954" />
    <path d="M 395.384252869671,124.72065263480044 A 200,200 0 0,1 410.38806714644181,160.94306454910753" />
    <path d="M 415.1570560806461,179.98193559677435 A 200,200 0 0,1 418.03694533443934,238.60342806591214" />
    <path d="M 415.1570560806461,258.01806440322565 A 200,200 0 0,1 403.77590650225738,295.53668647301794" />
    <path d="M 373.60209067254743,345.87865683272906 A 200,200 0 0,1 313.27934736519956,395.38425286967095" />
    <path d="M 277.05693545089247,410.38806714644181 A 200,200 0 0,1 258.01806440322571,415.15705608064604" />
    <path d="M 238.60342806591217,418.03694533443934 A 200,200 0 0,1 179.98193559677432,415.1570560806461" />
    <path d="M 142.46331352698206,403.77590650225738 A 200,200 0 0,1 92.121343167270936,373.60209067254743" />
    <path d="M 77.578643762690518,360.42135623730951 A 200,200 0 0,1 52.706077539490934,330.11404660392043" />
    <path d="M 34.2240934977427,295.53668647301805 A 200,200 0 0,1 27.611932853558244,277.05693545089247" />
    <path d="M 22.842943919353928,258.01806440322571 A 200,200 0 0,1 19,219.00000000000003" />
    <path d="M 22.8429439193539,179.98193559677435 A 200,200 0 0,1 27.611932853558216,160.94306454910759" />
    <path d="M 42.615747130329,124.72065263480049 A 200,200 0 0,1 77.578643762690461,77.578643762690518" />
    <path d="M 107.88595339607956,52.706077539490963 A 200,200 0 0,1 142.46331352698192,34.2240934977427" />
    <path d="M 160.9430645491075,27.611932853558244 A 200,200 0 0,1 179.98193559677426,22.842943919353928" />
    <path d="M 240.1717023111851,4.0400990388054652 A 216,216 0 1,1 219,3" />
  </g>
  <g fill="none" stroke="#000000" stroke-width="2" stroke-linecap="butt">
    <line x1="219" y1="3" x2="219" y2="19" />
    <line x1="219" y1="35" x2="219" y2="67" />
    <line x1="219" y1="147" x2="219" y2="163" />
    <line x1="235.46687957536619" y1="51.808965919070914" x2="232.33033108482024" y2="83.654877172581223" />
    <line x1="261.1395095554837" y1="7.1503794329022412" x2="258.01806440322565" y2="22.8429439193539" />
    <line x1="254.8966192509676" y1="38.535508405805615" x2="251.77517409870956" y2="54.228072892257273" />
    <line x1="245.53228379419343" y1="85.613201865160647" x2="242.41083864193539" y2="101.30576635161235" />
    <line x1="239.28939348967734" y1="116.99833083806404" x2="236.16794833741929" y2="132.69089532451574" />
    <line x1="267.76782577874968" y1="58.234023596988919" x2="258.4787161066069" y2="88.8561143404196" />
    <line x1="295.53668647301794" y1="34.224093497742643" x2="277.16788171949366" y2="78.5703110582844" />
    <line x1="240.43027221244503" y1="167.26274617936795" x2="234.3073372946036" y2="182.04481869954853" />
    <line x1="330.11404660392043" y1="52.706077539490963" x2="321.22492287560681" y2="66.009591336331681" />
    <line x1="312.33579914729319" y1="79.3131051331724" x2="294.55755169066589" y2="105.92013272685385" />
    <line x1="276.77930423403865" y1="132.5271603205353" x2="259.00105677741135" y2="159.13418791421674" />
    <line x1="356.02894937934741" y1="52.029742073648805" x2="345.87865683272912" y2="64.3979093274526" />
    <line x1="326.48023074035518" y1="111.51976925964478" x2="315.16652224137044" y2="122.83347775862953" />
    <line x1="303.85281374238571" y1="134.14718625761429" x2="281.22539674441617" y2="156.77460325558383" />
    <line x1="269.91168824543144" y1="168.08831175456857" x2="258.59797974644664" y2="179.40202025355333" />
    <line x1="385.97025792635122" y1="81.971050620652562" x2="373.60209067254743" y2="92.121343167270908" />
    <line x1="348.86575616493985" y1="112.42192826050756" x2="336.497588911136" y2="122.57222080712589" />
    <line x1="371.99040866366829" y1="116.77507712439318" x2="305.4728396794647" y2="161.22069576596135" />
    <line x1="395.384252869671" y1="124.72065263480044" x2="381.27351264009729" y2="132.26300042401641" />
    <line x1="367.16277241052364" y1="139.80534821323238" x2="338.94129195137629" y2="154.89004379166431" />
    <line x1="403.77590650225738" y1="142.46331352698203" x2="374.21176146189617" y2="154.7091833626649" />
    <line x1="344.64761642153496" y1="166.9550531983478" x2="329.86554390135439" y2="173.0779881161892" />
    <line x1="300.30139886099323" y1="185.3238579518721" x2="255.95518130045147" y2="203.6926627053964" />
    <line x1="425.69911251815711" y1="156.29850971303614" x2="410.38806714644181" y2="160.94306454910753" />
    <line x1="399.46449159419438" y1="183.1033807490324" x2="383.77192710774273" y2="186.22482590129044" />
    <line x1="368.079362621291" y1="189.34627105354849" x2="321.001669161936" y2="198.71060651032266" />
    <line x1="386.19103408092906" y1="202.53312042463378" x2="370.26807845417392" y2="204.10139466990677" />
    <line x1="435" y1="219" x2="403" y2="219" />
    <line x1="339" y1="219" x2="323" y2="219" />
    <line x1="307" y1="219" x2="291" y2="219" />
    <line x1="259" y1="219" x2="243" y2="219" />
    <line x1="418.03694533443939" y1="238.60342806591214" x2="386.19103408092906" y2="235.46687957536619" />
    <line x1="370.268078454174" y1="233.89860533009323" x2="354.34512282741878" y2="232.33033108482024" />
    <line x1="383.77192710774273" y1="251.77517409870953" x2="368.079362621291" y2="248.65372894645148" />
    <line x1="352.38679813483935" y1="245.53228379419343" x2="321.001669161936" y2="239.28939348967734" />
    <line x1="305.30910467548426" y1="236.16794833741929" x2="289.61654018903261" y2="233.04650318516124" />
    <line x1="410.38806714644181" y1="277.05693545089241" x2="395.0770217747264" y2="272.412380614821" />
    <line x1="388.99383398207675" y1="289.41375155517653" x2="374.21176146189617" y2="283.29081663733507" />
    <line x1="359.4296889417156" y1="277.16788171949361" x2="315.08347138117381" y2="258.79907696596933" />
    <line x1="285.51932634081265" y1="246.55320713028647" x2="255.95518130045147" y2="234.3073372946036" />
    <line x1="409.49499309924465" y1="320.82169515441552" x2="381.27351264009735" y2="305.73699957598359" />
    <line x1="398.59743625734984" y1="339.00317033223405" x2="371.9904086636684" y2="321.22492287560675" />
    <line x1="345.38338106998691" y1="303.44667541897951" x2="292.169325882624" y2="267.89018050572497" />
    <line x1="361.23392341874364" y1="335.72836428611072" x2="324.12942165733227" y2="305.27748664625574" />
    <line x1="371.73506473629425" y1="371.73506473629425" x2="337.79393923934" y2="337.79393923934" />
    <line x1="292.53910524340097" y1="292.53910524340097" x2="281.22539674441617" y2="281.22539674441617" />
    <line x1="269.91168824543144" y1="269.91168824543144" x2="247.2842712474619" y2="247.2842712474619" />
    <line x1="335.72836428611078" y1="361.23392341874364" x2="325.57807173949243" y2="348.86575616493985" />
    <line x1="330.11404660392043" y1="385.29392246050907" x2="321.22492287560681" y2="371.99040866366835" />
    <line x1="312.33579914729319" y1="358.68689486682763" x2="294.55755169066589" y2="332.07986727314619" />
    <line x1="285.66842796235227" y1="318.77635347630542" x2="276.77930423403865" y2="305.4728396794647" />
    <line x1="267.89018050572497" y1="292.169325882624" x2="259.00105677741135" y2="278.86581208578326" />
    <line x1="305.73699957598359" y1="381.27351264009729" x2="290.65230399755166" y2="353.05203218094994" />
    <line x1="301.6596213908594" y1="418.55797902243796" x2="295.536686473018" y2="403.77590650225738" />
    <line x1="283.29081663733507" y1="374.21176146189617" x2="271.0449468016522" y2="344.64761642153496" />
    <line x1="258.79907696596933" y1="315.08347138117381" x2="252.6761420481279" y2="300.30139886099323" />
    <line x1="246.55320713028647" y1="285.51932634081265" x2="240.43027221244503" y2="270.73725382063208" />
    <line x1="277.05693545089247" y1="410.38806714644176" x2="267.76782577874968" y2="379.76597640301111" />
    <line x1="261.13950955548376" y1="430.84962056709776" x2="258.01806440322571" y2="415.1570560806461" />
    <line x1="245.53228379419349" y1="352.38679813483935" x2="242.41083864193544" y2="336.69423364838764" />
    <line x1="236.16794833741932" y1="305.30910467548426" x2="233.04650318516127" y2="289.61654018903261" />
    <line x1="238.60342806591217" y1="418.03694533443934" x2="235.46687957536622" y2="386.19103408092906" />
    <line x1="233.89860533009323" y1="370.26807845417392" x2="232.33033108482027" y2="354.34512282741878" />
    <line x1="219.00000000000003" y1="387" x2="219.00000000000003" y2="371" />
    <line x1="219.00000000000003" y1="355" x2="219" y2="323" />
    <line x1="219" y1="275" x2="219" y2="243" />
    <line x1="202.53312042463381" y1="386.19103408092906" x2="204.1013946699068" y2="370.268078454174" />
    <line x1="183.1033807490324" y1="399.46449159419438" x2="186.22482590129044" y2="383.77192710774273" />
    <line x1="201.83205166258071" y1="305.30910467548426" x2="204.95349681483876" y2="289.61654018903261" />
    <line x1="156.2985097130362" y1="425.69911251815711" x2="165.58761938517898" y2="395.0770217747264" />
    <line x1="170.23217422125038" y1="379.76597640301111" x2="174.87672905732177" y2="364.45493103129576" />
    <line x1="173.07798811618923" y1="329.86554390135444" x2="191.44679286971353" y2="285.51932634081265" />
    <line x1="197.56972778755497" y1="270.73725382063208" x2="203.6926627053964" y2="255.95518130045147" />
    <line x1="132.26300042401644" y1="381.27351264009735" x2="147.34769600244835" y2="353.05203218094994" />
    <line x1="107.88595339607961" y1="385.29392246050907" x2="116.77507712439324" y2="371.9904086636684" />
    <line x1="134.55332458102049" y1="345.38338106998691" x2="143.44244830933414" y2="332.07986727314619" />
    <line x1="92.12134316727095" y1="373.60209067254743" x2="122.57222080712592" y2="336.49758891113606" />
    <line x1="111.51976925964479" y1="326.48023074035524" x2="134.14718625761429" y2="303.85281374238571" />
    <line x1="168.08831175456857" y1="269.91168824543144" x2="179.40202025355336" y2="258.59797974644664" />
    <line x1="190.7157287525381" y1="247.2842712474619" x2="202.02943725152286" y2="235.97056274847714" />
    <line x1="52.02974207364889" y1="356.02894937934752" x2="113.87057834266781" y2="305.27748664625585" />
    <line x1="66.009591336331681" y1="321.22492287560681" x2="119.22364652369457" y2="285.66842796235227" />
    <line x1="132.5271603205353" y1="276.77930423403865" x2="159.13418791421674" y2="259.00105677741135" />
    <line x1="28.505006900755347" y1="320.82169515441552" x2="42.615747130329" y2="313.27934736519956" />
    <line x1="56.726487359902706" y1="305.73699957598359" x2="70.837227589476356" y2="298.19465178676762" />
    <line x1="34.2240934977427" y1="295.53668647301805" x2="49.006166017923277" y2="289.41375155517665" />
    <line x1="108.13445609864561" y1="264.92201188381085" x2="122.91652861882621" y2="258.79907696596939" />
    <line x1="137.69860113900677" y1="252.67614204812796" x2="167.26274617936795" y2="240.43027221244506" />
    <line x1="22.842943919353928" y1="258.01806440322571" x2="116.99833083806405" y2="239.28939348967737" />
    <line x1="67.731921545826054" y1="233.89860533009318" x2="83.654877172581223" y2="232.33033108482022" />
    <line x1="35" y1="219.00000000000003" x2="51" y2="219.00000000000003" />
    <line x1="67" y1="219.00000000000003" x2="131" y2="219.00000000000003" />
    <line x1="147" y1="219" x2="163" y2="219" />
    <line x1="4.0400990388054652" y1="197.828297688815" x2="19.963054665560605" y2="199.39657193408797" />
    <line x1="35.886010292315774" y1="200.96484617936093" x2="51.808965919070914" y2="202.53312042463389" />
    <line x1="22.8429439193539" y1="179.98193559677435" x2="54.228072892257273" y2="186.22482590129044" />
    <line x1="19.442020977562095" y1="136.34037860914054" x2="34.224093497742672" y2="142.463313526982" />
    <line x1="63.788238538103855" y1="154.70918336266487" x2="78.570311058284432" y2="160.83211828050634" />
    <line x1="137.69860113900677" y1="185.32385795187207" x2="152.48067365918735" y2="191.44679286971353" />
    <line x1="167.26274617936795" y1="197.56972778755497" x2="182.04481869954853" y2="203.6926627053964" />
    <line x1="42.615747130329" y1="124.72065263480049" x2="70.837227589476356" y2="139.80534821323241" />
    <line x1="84.947967819050035" y1="147.34769600244837" x2="99.058708048623714" y2="154.89004379166431" />
    <line x1="79.313105133172371" y1="125.66420085270688" x2="92.61661893001309" y2="134.55332458102052" />
    <line x1="105.92013272685382" y1="143.44244830933417" x2="132.52716032053527" y2="161.22069576596141" />
    <line x1="76.766076581256414" y1="102.27163571388921" x2="113.87057834266778" y2="132.72251335374421" />
    <line x1="66.2649352637057" y1="66.26493526370578" x2="111.51976925964475" y2="111.5197692596448" />
    <line x1="122.83347775862951" y1="122.83347775862956" x2="156.7746032555838" y2="156.77460325558383" />
    <line x1="168.08831175456857" y1="168.08831175456859" x2="179.40202025355333" y2="179.40202025355336" />
    <line x1="92.121343167270808" y1="64.39790932745268" x2="102.27163571388915" y2="76.766076581256442" />
    <line x1="125.66420085270684" y1="79.3131051331724" x2="134.55332458102046" y2="92.616618930013118" />
    <line x1="152.33157203764773" y1="119.22364652369457" x2="161.22069576596138" y2="132.5271603205353" />
    <line x1="132.26300042401638" y1="56.726487359902706" x2="154.89004379166428" y2="99.058708048623743" />
    <line x1="136.34037860914049" y1="19.442020977562123" x2="148.58624844482335" y2="49.006166017923277" />
    <line x1="160.83211828050625" y1="78.57031105828446" x2="179.20092303403061" y2="122.91652861882621" />
    <line x1="185.32385795187204" y1="137.69860113900677" x2="191.44679286971348" y2="152.48067365918737" />
    <line x1="165.5876193851789" y1="42.922978225273567" x2="170.23217422125032" y2="58.234023596988919" />
    <line x1="174.87672905732171" y1="73.545068968704271" x2="179.5212838933931" y2="88.8561143404196" />
    <line x1="176.86049044451619" y1="7.1503794329022412" x2="179.98193559677426" y2="22.842943919353928" />
    <line x1="186.22482590129039" y1="54.2280728922573" x2="195.58916135806456" y2="101.30576635161236" />
    <line x1="199.39657193408789" y1="19.963054665560605" x2="202.53312042463384" y2="51.808965919070914" />
    <line x1="204.1013946699068" y1="67.731921545826054" x2="205.66966891517978" y2="83.654877172581223" />
  </g>
  <path fill="none" stroke="#ff0000" stroke-width="2" stroke-linecap="square" stroke-linejoin="round" d="M 229.59861765472229,3.2601814596827694 L 229.20607626010295,11.25054510932415 A 208,208 0 0,1 249.51993868671525,13.251285927325569 L 247.17225109542946,29.078110086762052 A 192,192 0 0,1 283.68285185130628,38.22353948486 L 262.12190123420419,98.482359656573337 A 128,128 0 0,1 317.94533803043032,137.79765962705338 L 293.20900352282274,158.09824472029004 A 96,96 0 0,1 314.5377337605309,228.40964547163782 L 282.69182250702062,225.27309698109187 A 64,64 0 0,0 281.77025794580675,206.51421939096778 L 250.38512897290337,212.75710969548391 A 32,32 0 1,0 192.39297240631856,236.77824745662727 L 179.08945860947785,245.66737118494092 A 48,48 0 0,0 192.33262881505911,258.91054139052221 L 183.44350508674546,272.21405518736293 A 64,64 0 0,0 206.51421939096778,281.77025794580675 L 212.75710969548391,250.38512897290337 A 32,32 0 0,1 206.75413016431713,248.56414504036118 L 209.81559762323786,241.17310878027089" />
  <type>Circular</type>
</svg>