<?xml version="1.0" encoding="utf-8" standalone="no"?>
<!DOCTYPE svg PUBLIC "-//W3C//DTD SVG 1.1//EN" "http://www.w3.org/Graphics/SVG/1.1/DTD/svg11.dtd"[]>
<svg width="436" height="436" version="1.1" xmlns="http://www.w3.org/2000/svg">
  <title>27 cells diameter theta maze</title>
  <g fill="none" stroke="#000000" stroke-width="2" stroke-linecap="square">
    <path d="M 202.02943725152286,235.97056274847714 A 24,24 0 1,1 219,243" />
    <path d="M 234.3073372946036,182.04481869954853 A 40,40 0 0,1 247.2842712474619,247.2842712474619" />
    <path d="M 234.3073372946036,255.95518130045147 A 40,40 0 0,1 203.6926627053964,255.95518130045147" />
    <path d="M 190.7157287525381,247.2842712474619 A 40,40 0 0,1 182.04481869954853,234.3073372946036" />
    <path d="M 182.04481869954853,203.6926627053964 A 40,40 0 0,1 203.69266270539637,182.04481869954856" />
    <path d="M 219,163 A 56,56 0 0,1 258.59797974644664,179.40202025355333" />
    <path d="M 270.73725382063208,197.56972778755497 A 56,56 0 0,1 275,219" />
    <path d="M 258.59797974644664,258.59797974644664 A 56,56 0 0,1 219,275" />
    <path d="M 197.569727787555,270.73725382063208 A 56,56 0 0,1 167.26274617936795,197.56972778755497" />
    <path d="M 178.99894322258865,159.13418791421674 A 72,72 0 0,1 259.00105677741135,159.13418791421674" />
    <path d="M 278.86581208578326,178.99894322258865 A 72,72 0 0,1 289.61654018903261,204.95349681483876" />
    <path d="M 289.61654018903261,233.04650318516124 A 72,72 0 0,1 204.95349681483876,289.61654018903261" />
    <path d="M 191.44679286971353,285.51932634081265 A 72,72 0 0,1 168.08831175456859,269.91168824543144" />
    <path d="M 159.13418791421674,259.00105677741135 A 72,72 0 0,1 148.3834598109674,204.95349681483876" />
    <path d="M 201.83205166258068,132.69089532451574 A 88,88 0 0,1 219,131" />
    <path d="M 236.16794833741929,132.69089532451574 A 88,88 0 0,1 252.6761420481279,137.69860113900677" />
    <path d="M 267.89018050572497,145.83067411737602 A 88,88 0 0,1 281.22539674441617,156.77460325558383" />
    <path d="M 292.169325882624,170.109819494275 A 88,88 0 0,1 300.30139886099323,185.3238579518721" />
    <path d="M 307,219 A 88,88 0 0,1 300.30139886099323,252.6761420481279" />
    <path d="M 292.169325882624,267.89018050572497 A 88,88 0 0,1 252.6761420481279,300.30139886099323" />
    <path d="M 201.83205166258071,305.30910467548426 A 88,88 0 0,1 185.32385795187213,300.30139886099323" />
    <path d="M 170.10981949427503,292.169325882624 A 88,88 0 0,1 137.69860113900677,252.67614204812796" />
    <path d="M 132.69089532451574,236.16794833741932 A 88,88 0 0,1 132.69089532451574,201.83205166258071" />
    <path d="M 137.69860113900677,185.32385795187207 A 88,88 0 0,1 170.109819494275,145.83067411737602" />
    <path d="M 198.71060651032261,116.99833083806405 A 104,104 0 0,1 239.28939348967734,116.99833083806404" />
    <path d="M 276.77930423403865,132.5271603205353 A 104,104 0 0,1 292.53910524340097,145.46089475659906" />
    <path d="M 305.4728396794647,161.22069576596135 A 104,104 0 0,1 315.08347138117381,179.20092303403067" />
    <path d="M 321.001669161936,198.71060651032266 A 104,104 0 0,1 321.001669161936,239.28939348967734" />
    <path d="M 315.08347138117381,258.79907696596933 A 104,104 0 0,1 305.47283967946476,276.77930423403859" />
    <path d="M 276.77930423403859,305.4728396794647 A 104,104 0 0,1 239.28939348967737,321.001669161936" />
    <path d="M 219,323 A 104,104 0 0,1 161.22069576596141,305.47283967946476" />
    <path d="M 122.91652861882621,258.79907696596939 A 104,104 0 0,1 115,219.00000000000003" />
    <path d="M 122.91652861882619,179.20092303403064 A 104,104 0 0,1 145.46089475659903,145.46089475659909" />
    <path d="M 161.22069576596135,132.5271603205353 A 104,104 0 0,1 179.20092303403061,122.91652861882621" />
    <path d="M 242.41083864193539,101.30576635161235 A 120,120 0 0,1 264.9220118838108,108.13445609864559" />
    <path d="M 285.66842796235227,119.22364652369457 A 120,120 0 0,1 318.77635347630542,152.33157203764773" />
    <path d="M 339,219 A 120,120 0 0,1 329.86554390135439,264.92201188381074" />
    <path d="M 303.85281374238571,303.85281374238571 A 120,120 0 0,1 285.66842796235227,318.77635347630542" />
    <path d="M 264.9220118838108,329.86554390135439 A 120,120 0 0,1 173.07798811618926,329.86554390135439" />
    <path d="M 152.33157203764779,318.77635347630547 A 120,120 0 0,1 119.22364652369457,285.66842796235227" />
    <path d="M 101.30576635161235,242.41083864193544 A 120,120 0 0,1 101.30576635161235,195.58916135806462" />
    <path d="M 108.1344560986456,173.0779881161892 A 120,120 0 0,1 119.22364652369454,152.33157203764779" />
    <path d="M 134.14718625761429,134.14718625761432 A 120,120 0 0,1 152.33157203764773,119.22364652369457" />
    <path d="M 173.07798811618915,108.13445609864561 A 120,120 0 0,1 195.58916135806456,101.30576635161236" />
    <path d="M 179.5212838933931,88.8561143404196 A 136,136 0 0,1 245.53228379419343,85.613201865160647" />
    <path d="M 258.4787161066069,88.8561143404196 A 136,136 0 0,1 283.10995620833569,99.058708048623714" />
    <path d="M 305.2774866462558,113.87057834266777 A 136,136 0 0,1 332.07986727314614,143.44244830933411" />
    <path d="M 338.94129195137629,154.89004379166431 A 136,136 0 0,1 349.14388565958041,179.52128389339313" />
    <path d="M 352.38679813483935,192.46771620580654 A 136,136 0 0,1 349.14388565958041,258.47871610660684" />
    <path d="M 338.94129195137629,283.10995620833569 A 136,136 0 0,1 332.07986727314619,294.55755169066589" />
    <path d="M 324.12942165733227,305.27748664625574 A 136,136 0 0,1 315.16652224137044,315.16652224137044" />
    <path d="M 305.2774866462558,324.12942165733222 A 136,136 0 0,1 258.4787161066069,349.14388565958041" />
    <path d="M 245.53228379419349,352.3867981348393 A 136,136 0 0,1 192.46771620580654,352.38679813483935" />
    <path d="M 179.52128389339316,349.14388565958041 A 136,136 0 0,1 166.9550531983478,344.647616421535" />
    <path d="M 154.89004379166431,338.94129195137629 A 136,136 0 0,1 132.72251335374423,324.12942165733227" />
    <path d="M 122.83347775862956,315.16652224137044 A 136,136 0 0,1 113.87057834266781,305.27748664625585" />
    <path d="M 105.92013272685384,294.55755169066589 A 136,136 0 0,1 83.654877172581223,232.33033108482022" />
    <path d="M 83,219.00000000000003 A 136,136 0 0,1 99.058708048623714,154.89004379166431" />
    <path d="M 105.92013272685382,143.44244830933414 A 136,136 0 0,1 122.83347775862951,122.83347775862956" />
    <path d="M 154.89004379166428,99.058708048623743 A 136,136 0 0,1 166.95505319834771,93.352383578465037" />
    <path d="M 204.1013946699068,67.731921545826083 A 152,152 0 0,1 219,67" />
    <path d="M 233.8986053300932,67.731921545826083 A 152,152 0 0,1 263.12327094267829,73.545068968704243" />
    <path d="M 277.16788171949366,78.5703110582844 A 152,152 0 0,1 326.48023074035524,111.51976925964478" />
    <path d="M 353.05203218094994,147.34769600244835 A 152,152 0 0,1 359.4296889417156,160.83211828050634" />
    <path d="M 368.079362621291,189.34627105354849 A 152,152 0 0,1 370.26807845417392,204.10139466990677" />
    <path d="M 364.45493103129576,263.12327094267823 A 152,152 0 0,1 353.05203218094994,290.65230399755166" />
    <path d="M 345.38338106998691,303.44667541897951 A 152,152 0 0,1 336.49758891113606,315.42777919287408" />
    <path d="M 326.48023074035524,326.48023074035518 A 152,152 0 0,1 303.44667541897951,345.38338106998685" />
    <path d="M 290.65230399755166,353.05203218094994 A 152,152 0 0,1 277.16788171949366,359.42968894171554" />
    <path d="M 263.12327094267829,364.45493103129576 A 152,152 0 0,1 219.00000000000003,371" />
    <path d="M 204.1013946699068,370.26807845417392 A 152,152 0 0,1 174.87672905732177,364.45493103129576" />
    <path d="M 160.83211828050636,359.4296889417156 A 152,152 0 0,1 147.34769600244835,353.05203218094994" />
    <path d="M 84.947967819050064,290.65230399755171 A 152,152 0 0,1 73.545068968704243,263.12327094267829" />
    <path d="M 67.731921545826083,233.89860533009318 A 152,152 0 0,1 69.92063737870896,189.34627105354849" />
    <path d="M 78.570311058284432,160.83211828050634 A 152,152 0 0,1 122.57222080712582,101.50241108886404" />
    <path d="M 134.55332458102046,92.616618930013118 A 152,152 0 0,1 174.87672905732171,73.545068968704271" />
    <path d="M 219,51 A 168,168 0 0,1 251.77517409870956,54.228072892257273" />
    <path d="M 267.76782577874968,58.234023596988919 A 168,168 0 0,1 298.19465178676762,70.837227589476356" />
    <path d="M 312.33579914729319,79.3131051331724 A 168,168 0 0,1 367.16277241052364,139.80534821323238" />
    <path d="M 374.21176146189617,154.70918336266493 A 168,168 0 0,1 383.77192710774273,186.22482590129044" />
    <path d="M 387,219 A 168,168 0 0,1 386.19103408092906,235.46687957536619" />
    <path d="M 383.77192710774273,251.77517409870953 A 168,168 0 0,1 374.21176146189617,283.29081663733507" />
    <path d="M 367.16277241052364,298.19465178676762 A 168,168 0 0,1 337.79393923934,337.79393923934" />
    <path d="M 325.57807173949243,348.86575616493985 A 168,168 0 0,1 298.19465178676762,367.16277241052364" />
    <path d="M 283.29081663733507,374.21176146189617 A 168,168 0 0,1 267.76782577874968,379.76597640301111" />
    <path d="M 235.46687957536622,386.19103408092906 A 168,168 0 0,1 186.22482590129044,383.77192710774273" />
    <path d="M 170.23217422125038,379.76597640301111 A 168,168 0 0,1 89.134243835060232,325.57807173949249" />
    <path d="M 79.3131051331724,312.33579914729319 A 168,168 0 0,1 63.788238538103855,283.29081663733518" />
    <path d="M 58.234023596988919,267.76782577874968 A 168,168 0 0,1 54.2280728922573,251.77517409870961" />
    <path d="M 51,219.00000000000003 A 168,168 0 0,1 51.808965919070914,202.53312042463392" />
    <path d="M 58.234023596988891,170.23217422125038 A 168,168 0 0,1 79.313105133172371,125.66420085270688" />
    <path d="M 100.20606076066,100.20606076066004 A 168,168 0 0,1 112.42192826050749,89.134243835060261" />
    <path d="M 125.66420085270683,79.3131051331724 A 168,168 0 0,1 202.53312042463384,51.808965919070914" />
    <path d="M 200.96484617936088,35.886010292315774 A 184,184 0 0,1 219,35" />
    <path d="M 254.8966192509676,38.535508405805587 A 184,184 0 0,1 272.41238061482107,42.922978225273567" />
    <path d="M 381.27351264009735,132.26300042401641 A 184,184 0 0,1 388.99383398207675,148.58624844482347" />
    <path d="M 399.46449159419444,183.1033807490324 A 184,184 0 0,1 402.11398970768425,200.96484617936082" />
    <path d="M 403,219 A 184,184 0 0,1 399.46449159419444,254.8966192509676" />
    <path d="M 388.99383398207681,289.41375155517653 A 184,184 0 0,1 361.23392341874364,335.72836428611072" />
    <path d="M 321.22492287560681,371.99040866366835 A 184,184 0 0,1 289.41375155517653,388.99383398207675" />
    <path d="M 237.03515382063918,402.11398970768425 A 184,184 0 0,1 219.00000000000003,403" />
    <path d="M 183.1033807490324,399.46449159419444 A 184,184 0 0,1 165.58761938517898,395.0770217747264" />
    <path d="M 76.76607658125647,335.72836428611083 A 184,184 0 0,1 66.009591336331681,321.22492287560681" />
    <path d="M 56.726487359902706,305.73699957598365 A 184,184 0 0,1 49.006166017923277,289.41375155517665" />
    <path d="M 42.922978225273567,272.41238061482107 A 184,184 0 0,1 38.535508405805615,254.89661925096766" />
    <path d="M 35.886010292315774,200.96484617936093 A 184,184 0 0,1 49.006166017923249,148.58624844482344" />
    <path d="M 56.726487359902677,132.26300042401647 A 184,184 0 0,1 76.766076581256414,102.27163571388921" />
    <path d="M 102.27163571388915,76.76607658125647 A 184,184 0 0,1 165.5876193851789,42.922978225273567" />
    <path d="M 199.39657193408789,19.963054665560634 A 200,200 0 0,1 277.05693545089247,27.611932853558216" />
    <path d="M 313.27934736519956,42.615747130329 A 200,200 0 0,1 345.87865683272912,64.3979093274526" />
    <path d="M 360.42135623730951,77.57864376269049 A 200,200 0 0,1 373.60209067254738,92.1213431672709" />
    <path d="M 403.77590650225738,142.46331352698203 A 200,200 0 0,1 415.1570560806461,179.98193559677435" />
    <path d="M 418.03694533443934,199.39657193408783 A 200,200 0 0,1 419,219" />
    <path d="M 415.1570560806461,258.01806440322565 A 200,200 0 0,1 395.384252869671,313.27934736519956" />
    <path d="M 373.60209067254743,345.87865683272906 A 200,200 0 0,1 360.42135623730951,360.42135623730951" />
    <path d="M 345.87865683272912,373.60209067254743 A 200,200 0 0,1 313.27934736519956,395.38425286967095" />
    <path d="M 238.60342806591217,418.03694533443934 A 200,200 0 0,1 179.98193559677432,415.1570560806461" />
    <path d="M 142.46331352698206,403.77590650225738 A 200,200 0 0,1 92.121343167270936,373.60209067254743" />
    <path d="M 42.615747130329027,313.27934736519956 A 200,200 0 0,1 34.2240934977427,295.53668647301805" />
    <path d="M 22.842943919353928,258.01806440322571 A 200,200 0 0,1 19,219.00000000000003" />
    <path d="M 34.224093497742672,142.463313526982 A 200,200 0 0,1 42.615747130329,124.72065263480049" />
    <path d="M 52.706077539490906,107.88595339607963 A 200,200 0 0,1 64.397909327452624,92.121343167270879" />
    <path d="M 124.72065263480042,42.615747130329027 A 200,200 0 0,1 179.98193559677426,22.842943919353928" />
    <path d="M 240.1717023111851,4.0400990388054652 A 216,216 0 1,1 219,3" />
  </g>
  <g fill="none" stroke="#000000" stroke-width="2" stroke-linecap="butt">
    <line x1="219" y1="51" x2="219" y2="67" />
    <line x1="219" y1="83" x2="219" y2="99" />
    <line x1="219" y1="131" x2="219" y2="147" />
    <line x1="219" y1="163" x2="219" y2="179" />
    <line x1="238.60342806591211" y1="19.963054665560605" x2="235.46687957536619" y2="51.808965919070914" />
    <line x1="233.8986053300932" y1="67.731921545826054" x2="232.33033108482024" y2="83.654877172581223" />
    <line x1="254.8966192509676" y1="38.535508405805615" x2="251.77517409870956" y2="54.228072892257273" />
    <line x1="245.53228379419343" y1="85.613201865160647" x2="236.16794833741929" y2="132.69089532451574" />
    <line x1="281.70149028696386" y1="12.300887481842892" x2="277.05693545089247" y2="27.611932853558244" />
    <line x1="263.12327094267829" y1="73.545068968704271" x2="258.4787161066069" y2="88.8561143404196" />
    <line x1="301.6596213908594" y1="19.442020977562066" x2="277.16788171949366" y2="78.5703110582844" />
    <line x1="264.9220118838108" y1="108.13445609864559" x2="258.79907696596933" y2="122.91652861882618" />
    <line x1="313.27934736519956" y1="42.615747130329" x2="305.73699957598353" y2="56.726487359902677" />
    <line x1="339.00317033223405" y1="39.402563742650216" x2="330.11404660392043" y2="52.706077539490963" />
    <line x1="321.22492287560681" y1="66.009591336331681" x2="312.33579914729319" y2="79.3131051331724" />
    <line x1="303.44667541897957" y1="92.616618930013118" x2="294.55755169066589" y2="105.92013272685385" />
    <line x1="285.66842796235227" y1="119.22364652369457" x2="276.77930423403865" y2="132.5271603205353" />
    <line x1="267.89018050572497" y1="145.83067411737602" x2="259.00105677741135" y2="159.13418791421674" />
    <line x1="345.87865683272912" y1="64.3979093274526" x2="325.57807173949243" y2="89.134243835060175" />
    <line x1="360.42135623730951" y1="77.57864376269049" x2="349.10764773832477" y2="88.892352261675256" />
    <line x1="326.48023074035518" y1="111.51976925964478" x2="315.16652224137044" y2="122.83347775862953" />
    <line x1="292.53910524340097" y1="145.46089475659903" x2="281.22539674441617" y2="156.77460325558383" />
    <line x1="269.91168824543144" y1="168.08831175456857" x2="247.2842712474619" y2="190.7157287525381" />
    <line x1="373.60209067254743" y1="92.121343167270908" x2="336.497588911136" y2="122.57222080712589" />
    <line x1="385.29392246050907" y1="107.88595339607954" x2="358.68689486682763" y2="125.66420085270681" />
    <line x1="345.38338106998685" y1="134.55332458102043" x2="332.07986727314614" y2="143.44244830933408" />
    <line x1="318.77635347630542" y1="152.33157203764773" x2="305.4728396794647" y2="161.22069576596135" />
    <line x1="409.49499309924465" y1="117.17830484558448" x2="395.384252869671" y2="124.72065263480044" />
    <line x1="403.77590650225738" y1="142.46331352698203" x2="388.99383398207675" y2="148.58624844482347" />
    <line x1="374.21176146189617" y1="154.7091833626649" x2="300.30139886099323" y2="185.3238579518721" />
    <line x1="395.0770217747264" y1="165.58761938517893" x2="364.45493103129576" y2="174.87672905732171" />
    <line x1="430.84962056709776" y1="176.86049044451627" x2="368.079362621291" y2="189.34627105354849" />
    <line x1="336.69423364838764" y1="195.58916135806459" x2="289.61654018903261" y2="204.95349681483876" />
    <line x1="433.95990096119453" y1="197.82829768881487" x2="418.03694533443934" y2="199.39657193408783" />
    <line x1="402.11398970768425" y1="200.96484617936082" x2="386.19103408092906" y2="202.53312042463378" />
    <line x1="370.26807845417392" y1="204.10139466990677" x2="354.34512282741878" y2="205.66966891517973" />
    <line x1="403" y1="219" x2="371" y2="219" />
    <line x1="355" y1="219" x2="339" y2="219" />
    <line x1="307" y1="219" x2="291" y2="219" />
    <line x1="275" y1="219" x2="259" y2="219" />
    <line x1="433.95990096119453" y1="240.1717023111851" x2="418.03694533443939" y2="238.60342806591214" />
    <line x1="370.268078454174" y1="233.89860533009323" x2="354.34512282741878" y2="232.33033108482024" />
    <line x1="415.1570560806461" y1="258.01806440322565" x2="352.38679813483935" y2="245.53228379419343" />
    <line x1="321.001669161936" y1="239.28939348967734" x2="305.30910467548426" y2="236.16794833741929" />
    <line x1="410.38806714644181" y1="277.05693545089241" x2="395.0770217747264" y2="272.412380614821" />
    <line x1="344.64761642153496" y1="271.0449468016522" x2="315.08347138117381" y2="258.79907696596933" />
    <line x1="300.30139886099323" y1="252.6761420481279" x2="270.73725382063208" y2="240.43027221244503" />
    <line x1="395.384252869671" y1="313.27934736519956" x2="381.27351264009735" y2="305.73699957598359" />
    <line x1="367.16277241052364" y1="298.19465178676762" x2="338.94129195137629" y2="283.10995620833569" />
    <line x1="385.29392246050907" y1="330.11404660392037" x2="371.9904086636684" y2="321.22492287560675" />
    <line x1="345.38338106998691" y1="303.44667541897951" x2="318.77635347630547" y2="285.66842796235221" />
    <line x1="361.23392341874364" y1="335.72836428611072" x2="348.86575616493985" y2="325.57807173949243" />
    <line x1="360.42135623730951" y1="360.42135623730951" x2="326.48023074035524" y2="326.48023074035518" />
    <line x1="315.16652224137044" y1="315.16652224137044" x2="281.22539674441617" y2="281.22539674441617" />
    <line x1="258.59797974644664" y1="258.59797974644664" x2="247.2842712474619" y2="247.2842712474619" />
    <line x1="356.02894937934741" y1="385.97025792635122" x2="345.87865683272912" y2="373.60209067254743" />
    <line x1="335.72836428611078" y1="361.23392341874364" x2="325.57807173949243" y2="348.86575616493985" />
    <line x1="303.44667541897957" y1="345.38338106998691" x2="294.55755169066589" y2="332.07986727314619" />
    <line x1="285.66842796235227" y1="318.77635347630542" x2="276.77930423403865" y2="305.4728396794647" />
    <line x1="305.73699957598359" y1="381.27351264009729" x2="290.65230399755166" y2="353.05203218094994" />
    <line x1="295.536686473018" y1="403.77590650225738" x2="283.29081663733507" y2="374.21176146189617" />
    <line x1="271.0449468016522" y1="344.64761642153496" x2="264.9220118838108" y2="329.86554390135439" />
    <line x1="252.6761420481279" y1="300.30139886099323" x2="240.43027221244503" y2="270.73725382063208" />
    <line x1="277.05693545089247" y1="410.38806714644176" x2="258.4787161066069" y2="349.14388565958041" />
    <line x1="261.13950955548376" y1="430.84962056709776" x2="251.77517409870961" y2="383.77192710774273" />
    <line x1="239.28939348967737" y1="321.001669161936" x2="236.16794833741932" y2="305.30910467548426" />
    <line x1="237.03515382063918" y1="402.11398970768425" x2="235.46687957536622" y2="386.19103408092906" />
    <line x1="233.89860533009323" y1="370.26807845417392" x2="232.33033108482027" y2="354.34512282741878" />
    <line x1="219.00000000000003" y1="435" x2="219.00000000000003" y2="419" />
    <line x1="219" y1="323" x2="219" y2="291" />
    <line x1="219" y1="275" x2="219" y2="243" />
    <line x1="199.39657193408789" y1="418.03694533443939" x2="202.53312042463381" y2="386.19103408092906" />
    <line x1="183.1033807490324" y1="399.46449159419438" x2="186.22482590129044" y2="383.77192710774273" />
    <line x1="198.71060651032266" y1="321.001669161936" x2="201.83205166258071" y2="305.30910467548426" />
    <line x1="156.2985097130362" y1="425.69911251815711" x2="160.94306454910759" y2="410.38806714644181" />
    <line x1="170.23217422125038" y1="379.76597640301111" x2="179.52128389339316" y2="349.14388565958041" />
    <line x1="148.5862484448235" y1="388.99383398207681" x2="154.70918336266493" y2="374.21176146189623" />
    <line x1="160.83211828050636" y1="359.4296889417156" x2="179.20092303403067" y2="315.08347138117381" />
    <line x1="185.3238579518721" y1="300.30139886099323" x2="191.44679286971353" y2="285.51932634081265" />
    <line x1="132.26300042401644" y1="381.27351264009735" x2="139.80534821323238" y2="367.16277241052364" />
    <line x1="98.996829667765979" y1="398.59743625734984" x2="107.88595339607961" y2="385.29392246050907" />
    <line x1="116.77507712439324" y1="371.9904086636684" x2="134.55332458102049" y2="345.38338106998691" />
    <line x1="143.44244830933414" y1="332.07986727314619" x2="152.33157203764776" y2="318.77635347630547" />
    <line x1="92.12134316727095" y1="373.60209067254743" x2="102.27163571388927" y2="361.23392341874364" />
    <line x1="122.57222080712592" y1="336.49758891113606" x2="132.72251335374426" y2="324.12942165733227" />
    <line x1="77.578643762690518" y1="360.42135623730951" x2="122.83347775862954" y2="315.1665222413705" />
    <line x1="145.46089475659906" y1="292.53910524340097" x2="168.08831175456857" y2="269.91168824543144" />
    <line x1="179.40202025355336" y1="258.59797974644664" x2="202.02943725152286" y2="235.97056274847714" />
    <line x1="64.39790932745268" y1="345.87865683272918" x2="101.50241108886402" y2="315.4277791928742" />
    <line x1="52.706077539490963" y1="330.11404660392043" x2="66.009591336331681" y2="321.22492287560681" />
    <line x1="92.616618930013118" y1="303.44667541897957" x2="119.22364652369457" y2="285.66842796235227" />
    <line x1="132.5271603205353" y1="276.77930423403865" x2="159.13418791421674" y2="259.00105677741135" />
    <line x1="70.837227589476356" y1="298.19465178676762" x2="84.947967819050064" y2="290.65230399755166" />
    <line x1="34.2240934977427" y1="295.53668647301805" x2="63.788238538103855" y2="283.29081663733518" />
    <line x1="78.57031105828446" y1="277.16788171949372" x2="122.91652861882621" y2="258.79907696596939" />
    <line x1="12.300887481842892" y1="281.70149028696392" x2="27.611932853558244" y2="277.05693545089247" />
    <line x1="42.922978225273567" y1="272.41238061482107" x2="58.234023596988919" y2="267.76782577874968" />
    <line x1="22.842943919353928" y1="258.01806440322571" x2="38.535508405805615" y2="254.89661925096766" />
    <line x1="54.2280728922573" y1="251.77517409870961" x2="85.613201865160676" y2="245.53228379419349" />
    <line x1="116.99833083806405" y1="239.28939348967737" x2="132.69089532451574" y2="236.16794833741932" />
    <line x1="19.963054665560605" y1="238.60342806591208" x2="35.886010292315774" y2="237.03515382063912" />
    <line x1="51.808965919070914" y1="235.46687957536616" x2="67.731921545826054" y2="233.89860533009318" />
    <line x1="19" y1="219.00000000000003" x2="51" y2="219.00000000000003" />
    <line x1="67" y1="219.00000000000003" x2="99" y2="219.00000000000003" />
    <line x1="163" y1="219" x2="179" y2="219" />
    <line x1="19.963054665560605" y1="199.39657193408797" x2="35.886010292315774" y2="200.96484617936093" />
    <line x1="22.8429439193539" y1="179.98193559677435" x2="38.535508405805615" y2="183.1033807490324" />
    <line x1="54.228072892257273" y1="186.22482590129044" x2="69.920637378708989" y2="189.34627105354849" />
    <line x1="116.99833083806404" y1="198.71060651032266" x2="148.3834598109674" y2="204.95349681483876" />
    <line x1="12.300887481842864" y1="156.2985097130362" x2="27.611932853558216" y2="160.94306454910759" />
    <line x1="58.234023596988891" y1="170.23217422125038" x2="88.8561143404196" y2="179.52128389339316" />
    <line x1="34.224093497742672" y1="142.463313526982" x2="49.006166017923249" y2="148.58624844482344" />
    <line x1="93.352383578465023" y1="166.95505319834777" x2="108.1344560986456" y2="173.0779881161892" />
    <line x1="137.69860113900677" y1="185.32385795187207" x2="167.26274617936795" y2="197.56972778755497" />
    <line x1="42.615747130329" y1="124.72065263480049" x2="70.837227589476356" y2="139.80534821323241" />
    <line x1="105.92013272685382" y1="143.44244830933417" x2="119.22364652369454" y2="152.33157203764779" />
    <line x1="145.83067411737602" y1="170.10981949427503" x2="159.13418791421674" y2="178.99894322258865" />
    <line x1="64.397909327452624" y1="92.121343167270879" x2="89.1342438350602" y2="112.42192826050754" />
    <line x1="66.2649352637057" y1="66.26493526370578" x2="77.578643762690461" y2="77.578643762690518" />
    <line x1="88.892352261675228" y1="88.892352261675285" x2="100.20606076066" y2="100.20606076066005" />
    <line x1="111.51976925964475" y1="111.5197692596448" x2="145.46089475659903" y2="145.46089475659909" />
    <line x1="168.08831175456857" y1="168.08831175456859" x2="202.02943725152286" y2="202.02943725152286" />
    <line x1="92.121343167270808" y1="64.39790932745268" x2="132.72251335374415" y2="113.87057834266781" />
    <line x1="98.996829667765923" y1="39.402563742650216" x2="107.88595339607957" y2="52.706077539490963" />
    <line x1="125.66420085270684" y1="79.3131051331724" x2="143.44244830933411" y2="105.92013272685385" />
    <line x1="161.22069576596138" y1="132.5271603205353" x2="170.109819494275" y2="145.83067411737602" />
    <line x1="147.34769600244832" y1="84.947967819050064" x2="154.89004379166428" y2="99.058708048623743" />
    <line x1="166.95505319834771" y1="93.352383578465037" x2="185.32385795187204" y2="137.69860113900677" />
    <line x1="197.56972778755494" y1="167.26274617936795" x2="203.69266270539637" y2="182.04481869954856" />
    <line x1="160.9430645491075" y1="27.611932853558244" x2="165.5876193851789" y2="42.922978225273567" />
    <line x1="176.86049044451619" y1="7.1503794329022412" x2="179.98193559677426" y2="22.842943919353928" />
    <line x1="183.10338074903231" y1="38.535508405805615" x2="189.34627105354844" y2="69.920637378708989" />
    <line x1="199.39657193408789" y1="19.963054665560605" x2="200.96484617936088" y2="35.886010292315774" />
    <line x1="204.1013946699068" y1="67.731921545826054" x2="205.66966891517978" y2="83.654877172581223" />
  </g>
  <path fill="none" stroke="#ff0000" stroke-width="2" stroke-linecap="square" stroke-linejoin="round" d="M 229.59861765472229,3.2601814596827694 L 229.20607626010295,11.25054510932415 A 208,208 0 0,0 188.48006131328464,13.251285927325569 L 190.82774890457043,29.078110086762081 A 192,192 0 0,0 172.34780545857328,32.753999386647564 L 176.23548833702552,48.274499437760284 A 176,176 0 0,0 114.15692240933176,77.635474459406481 L 142.75048902496855,116.18943597047743 A 128,128 0 0,1 158.66121768627227,106.11407816341058 L 166.20356547548823,120.22481839298426 A 112,112 0 0,0 147.94795217367164,132.4228292233735 L 158.09824472028998,144.79099647717729 A 96,96 0 0,0 127.13372776970795,191.13267098357164 L 157.75581851313862,200.42178065571443 A 64,64 0 0,0 206.51421939096778,281.77025794580675 L 209.63566454322583,266.07769345935503 A 48,48 0 0,1 192.33262881505911,258.91054139052221 L 201.22175254337273,245.60702759368147 A 32,32 0 0,0 206.75413016431713,248.56414504036118 L 209.81559762323786,241.17310878027089" />
  <type>Circular</type>
</svg>