<?xml version="1.0" encoding="utf-8" standalone="no"?>
<!DOCTYPE svg PUBLIC "-//W3C//DTD SVG 1.1//EN" "http://www.w3.org/Graphics/SVG/1.1/DTD/svg11.dtd"[]>
<svg width="436" height="436" version="1.1" xmlns="http://www.w3.org/2000/svg">
  <title>27 cells diameter theta maze</title>
  <g fill="none" stroke="#000000" stroke-width="2" stroke-linecap="square">
    <path d="M 202.02943725152286,235.97056274847714 A 24,24 0 1,1 219,243" />
    <path d="M 219,179 A 40,40 0 0,1 255.95518130045147,234.3073372946036" />
    <path d="M 234.3073372946036,255.95518130045147 A 40,40 0 0,1 203.6926627053964,255.95518130045147" />
    <path d="M 182.04481869954853,234.3073372946036 A 40,40 0 0,1 179,219" />
    <path d="M 182.04481869954853,203.6926627053964 A 40,40 0 0,1 190.7157287525381,190.7157287525381" />
    <path d="M 179.40202025355333,179.40202025355336 A 56,56 0 0,1 270.73725382063208,240.43027221244503" />
    <path d="M 258.59797974644664,258.59797974644664 A 56,56 0 0,1 219,275" />
    <path d="M 197.569727787555,270.73725382063208 A 56,56 0 0,1 167.26274617936795,240.43027221244506" />
    <path d="M 163,219 A 56,56 0 0,1 167.26274617936795,197.56972778755497" />
    <path d="M 148.3834598109674,233.04650318516127 A 72,72 0 1,1 289.61654018903261,233.04650318516124" />
    <path d="M 285.51932634081265,246.55320713028647 A 72,72 0 0,1 259.00105677741135,278.86581208578326" />
    <path d="M 246.55320713028647,285.51932634081265 A 72,72 0 0,1 233.04650318516127,289.61654018903261" />
    <path d="M 219,291 A 72,72 0 0,1 191.44679286971353,285.51932634081265" />
    <path d="M 168.08831175456859,269.91168824543144 A 72,72 0 0,1 159.13418791421674,259.00105677741135" />
    <path d="M 201.83205166258068,132.69089532451574 A 88,88 0 0,1 219,131" />
    <path d="M 281.22539674441617,156.77460325558383 A 88,88 0 0,1 305.30910467548426,236.16794833741929" />
    <path d="M 300.30139886099323,252.6761420481279 A 88,88 0 0,1 292.169325882624,267.89018050572497" />
    <path d="M 281.22539674441617,281.22539674441617 A 88,88 0 0,1 252.6761420481279,300.30139886099323" />
    <path d="M 236.16794833741932,305.30910467548426 A 88,88 0 0,1 219,307" />
    <path d="M 201.83205166258071,305.30910467548426 A 88,88 0 0,1 156.77460325558383,281.22539674441617" />
    <path d="M 131,219.00000000000003 A 88,88 0 0,1 145.830674117376,170.10981949427503" />
    <path d="M 156.7746032555838,156.77460325558383 A 88,88 0 0,1 170.109819494275,145.83067411737602" />
    <path d="M 219,115 A 104,104 0 0,1 239.28939348967734,116.99833083806404" />
    <path d="M 258.79907696596933,122.91652861882618 A 104,104 0 0,1 292.53910524340097,145.46089475659906" />
    <path d="M 315.08347138117381,179.20092303403067 A 104,104 0 0,1 321.001669161936,198.71060651032266" />
    <path d="M 323,219 A 104,104 0 0,1 315.08347138117381,258.79907696596933" />
    <path d="M 292.53910524340097,292.53910524340097 A 104,104 0 0,1 219,323" />
    <path d="M 198.71060651032266,321.001669161936 A 104,104 0 0,1 179.20092303403067,315.08347138117381" />
    <path d="M 132.5271603205353,276.77930423403865 A 104,104 0 0,1 122.91652861882621,258.79907696596939" />
    <path d="M 116.99833083806404,198.71060651032266 A 104,104 0 0,1 122.91652861882619,179.20092303403064" />
    <path d="M 132.52716032053527,161.22069576596141 A 104,104 0 0,1 145.46089475659903,145.46089475659909" />
    <path d="M 161.22069576596135,132.5271603205353 A 104,104 0 0,1 198.71060651032261,116.99833083806405" />
    <path d="M 195.58916135806456,101.30576635161236 A 120,120 0 0,1 219,99" />
    <path d="M 242.41083864193539,101.30576635161235 A 120,120 0 0,1 285.66842796235227,119.22364652369457" />
    <path d="M 329.86554390135439,173.07798811618923 A 120,120 0 0,1 336.69423364838764,195.58916135806459" />
    <path d="M 336.69423364838764,242.41083864193539 A 120,120 0 0,1 329.86554390135439,264.92201188381074" />
    <path d="M 285.66842796235227,318.77635347630542 A 120,120 0 0,1 264.9220118838108,329.86554390135439" />
    <path d="M 219.00000000000003,339 A 120,120 0 0,1 195.58916135806459,336.69423364838764" />
    <path d="M 108.13445609864561,264.92201188381085 A 120,120 0 0,1 101.30576635161235,195.58916135806462" />
    <path d="M 119.22364652369454,152.33157203764779 A 120,120 0 0,1 152.33157203764773,119.22364652369457" />
    <path d="M 132.72251335374415,113.87057834266783 A 136,136 0 0,1 283.10995620833569,99.058708048623714" />
    <path d="M 294.55755169066589,105.92013272685385 A 136,136 0 0,1 344.64761642153496,166.9550531983478" />
    <path d="M 349.14388565958041,179.52128389339313 A 136,136 0 0,1 349.14388565958041,258.47871610660684" />
    <path d="M 344.647616421535,271.0449468016522 A 136,136 0 0,1 305.2774866462558,324.12942165733222" />
    <path d="M 294.55755169066589,332.07986727314619 A 136,136 0 0,1 283.10995620833569,338.94129195137629" />
    <path d="M 271.0449468016522,344.64761642153496 A 136,136 0 0,1 219.00000000000003,355" />
    <path d="M 192.46771620580654,352.38679813483935 A 136,136 0 0,1 132.72251335374423,324.12942165733227" />
    <path d="M 113.87057834266781,305.27748664625585 A 136,136 0 0,1 93.352383578465037,271.04494680165226" />
    <path d="M 88.8561143404196,258.4787161066069 A 136,136 0 0,1 85.613201865160676,245.53228379419349" />
    <path d="M 83.654877172581223,232.33033108482022 A 136,136 0 0,1 83.654877172581223,205.66966891517984" />
    <path d="M 88.8561143404196,179.52128389339316 A 136,136 0 0,1 99.058708048623714,154.89004379166431" />
    <path d="M 147.34769600244832,84.947967819050064 A 152,152 0 0,1 233.8986053300932,67.731921545826083" />
    <path d="M 263.12327094267829,73.545068968704243 A 152,152 0 0,1 277.16788171949366,78.5703110582844" />
    <path d="M 290.65230399755166,84.947967819050035 A 152,152 0 0,1 315.42777919287414,101.50241108886398" />
    <path d="M 326.48023074035524,111.51976925964478 A 152,152 0 0,1 336.497588911136,122.57222080712587" />
    <path d="M 345.38338106998685,134.55332458102046 A 152,152 0 0,1 353.05203218094994,147.34769600244835" />
    <path d="M 359.4296889417156,160.83211828050634 A 152,152 0 0,1 364.45493103129576,174.87672905732174" />
    <path d="M 368.079362621291,189.34627105354849 A 152,152 0 0,1 371,219" />
    <path d="M 359.4296889417156,277.16788171949361 A 152,152 0 0,1 345.38338106998691,303.44667541897951" />
    <path d="M 336.49758891113606,315.42777919287408 A 152,152 0 0,1 326.48023074035524,326.48023074035518" />
    <path d="M 315.42777919287414,336.497588911136 A 152,152 0 0,1 290.65230399755166,353.05203218094994" />
    <path d="M 263.12327094267829,364.45493103129576 A 152,152 0 0,1 248.65372894645154,368.079362621291" />
    <path d="M 233.89860533009323,370.26807845417392 A 152,152 0 0,1 204.1013946699068,370.26807845417392" />
    <path d="M 160.83211828050636,359.4296889417156 A 152,152 0 0,1 147.34769600244835,353.05203218094994" />
    <path d="M 101.50241108886402,315.42777919287414 A 152,152 0 0,1 92.616618930013118,303.44667541897951" />
    <path d="M 84.947967819050064,290.65230399755171 A 152,152 0 0,1 67.731921545826083,233.89860533009318" />
    <path d="M 67,219.00000000000003 A 152,152 0 0,1 67.731921545826054,204.10139466990688" />
    <path d="M 73.545068968704243,174.87672905732177 A 152,152 0 0,1 122.57222080712582,101.50241108886404" />
    <path d="M 219,51 A 168,168 0 0,1 251.77517409870956,54.228072892257273" />
    <path d="M 283.29081663733507,63.788238538103826 A 168,168 0 0,1 337.79393923934,100.20606076066001" />
    <path d="M 348.8657561649398,112.42192826050756 A 168,168 0 0,1 358.68689486682763,125.66420085270683" />
    <path d="M 367.16277241052364,139.80534821323238 A 168,168 0 0,1 374.21176146189617,154.70918336266493" />
    <path d="M 379.76597640301111,170.23217422125032 A 168,168 0 0,1 383.77192710774273,186.22482590129044" />
    <path d="M 386.19103408092906,202.53312042463378 A 168,168 0 0,1 383.77192710774273,251.77517409870953" />
    <path d="M 348.86575616493985,325.57807173949243 A 168,168 0 0,1 325.57807173949243,348.86575616493985" />
    <path d="M 312.33579914729319,358.68689486682763 A 168,168 0 0,1 283.29081663733507,374.21176146189617" />
    <path d="M 251.77517409870961,383.77192710774273 A 168,168 0 0,1 219.00000000000003,387" />
    <path d="M 202.53312042463381,386.19103408092906 A 168,168 0 0,1 154.70918336266493,374.21176146189617" />
    <path d="M 125.66420085270688,358.68689486682763 A 168,168 0 0,1 100.20606076066004,337.79393923934003" />
    <path d="M 79.3131051331724,312.33579914729319 A 168,168 0 0,1 70.837227589476385,298.19465178676762" />
    <path d="M 63.788238538103855,283.29081663733518 A 168,168 0 0,1 51,219.00000000000003" />
    <path d="M 51.808965919070914,202.53312042463392 A 168,168 0 0,1 58.234023596988891,170.23217422125038" />
    <path d="M 100.20606076066,100.20606076066004 A 168,168 0 0,1 125.66420085270683,79.3131051331724" />
    <path d="M 165.5876193851789,42.922978225273567 A 184,184 0 0,1 289.41375155517653,49.006166017923249" />
    <path d="M 321.22492287560681,66.009591336331681 A 184,184 0 0,1 335.72836428611078,76.766076581256385" />
    <path d="M 349.10764773832477,88.892352261675256 A 184,184 0 0,1 381.27351264009735,132.26300042401641" />
    <path d="M 388.99383398207675,148.58624844482347 A 184,184 0 0,1 395.0770217747264,165.58761938517893" />
    <path d="M 403,219 A 184,184 0 0,1 399.46449159419444,254.8966192509676" />
    <path d="M 395.0770217747264,272.412380614821 A 184,184 0 0,1 381.27351264009735,305.73699957598359" />
    <path d="M 361.23392341874364,335.72836428611072 A 184,184 0 0,1 349.10764773832477,349.10764773832477" />
    <path d="M 335.72836428611078,361.23392341874364 A 184,184 0 0,1 321.22492287560681,371.99040866366835" />
    <path d="M 289.41375155517653,388.99383398207675 A 184,184 0 0,1 254.89661925096766,399.46449159419438" />
    <path d="M 237.03515382063918,402.11398970768425 A 184,184 0 0,1 148.58624844482353,388.99383398207681" />
    <path d="M 132.26300042401644,381.27351264009735 A 184,184 0 0,1 116.77507712439325,371.99040866366835" />
    <path d="M 102.27163571388927,361.23392341874364 A 184,184 0 0,1 88.892352261675285,349.10764773832477" />
    <path d="M 76.76607658125647,335.72836428611083 A 184,184 0 0,1 66.009591336331681,321.22492287560681" />
    <path d="M 56.726487359902706,305.73699957598365 A 184,184 0 0,1 38.535508405805615,254.89661925096766" />
    <path d="M 35.886010292315774,237.03515382063912 A 184,184 0 0,1 35.886010292315774,200.96484617936093" />
    <path d="M 38.535508405805587,183.1033807490324 A 184,184 0 0,1 42.922978225273539,165.58761938517898" />
    <path d="M 49.006166017923249,148.58624844482344 A 184,184 0 0,1 56.726487359902677,132.26300042401647" />
    <path d="M 66.009591336331624,116.77507712439326 A 184,184 0 0,1 88.892352261675228,88.892352261675285" />
    <path d="M 107.88595339607956,52.706077539490963 A 200,200 0 0,1 277.05693545089247,27.611932853558216" />
    <path d="M 330.11404660392043,52.706077539490963 A 200,200 0 0,1 395.384252869671,124.72065263480044" />
    <path d="M 403.77590650225738,142.46331352698203 A 200,200 0 0,1 415.1570560806461,179.98193559677435" />
    <path d="M 418.03694533443934,199.39657193408783 A 200,200 0 0,1 418.03694533443934,238.60342806591214" />
    <path d="M 403.77590650225738,295.53668647301794 A 200,200 0 0,1 373.60209067254743,345.87865683272906" />
    <path d="M 360.42135623730951,360.42135623730951 A 200,200 0 0,1 345.87865683272912,373.60209067254743" />
    <path d="M 313.27934736519956,395.38425286967095 A 200,200 0 0,1 295.536686473018,403.77590650225738" />
    <path d="M 258.01806440322571,415.15705608064604 A 200,200 0 0,1 238.60342806591217,418.03694533443934" />
    <path d="M 219.00000000000003,419 A 200,200 0 0,1 179.98193559677432,415.1570560806461" />
    <path d="M 142.46331352698206,403.77590650225738 A 200,200 0 0,1 124.72065263480047,395.384252869671" />
    <path d="M 107.88595339607961,385.29392246050907 A 200,200 0 0,1 92.121343167270936,373.60209067254743" />
    <path d="M 52.706077539490934,330.11404660392043 A 200,200 0 0,1 42.615747130329027,313.27934736519956" />
    <path d="M 34.2240934977427,295.53668647301805 A 200,200 0 0,1 27.611932853558244,277.05693545089247" />
    <path d="M 19,219.00000000000003 A 200,200 0 0,1 22.8429439193539,179.98193559677435" />
    <path d="M 27.611932853558216,160.94306454910759 A 200,200 0 0,1 34.224093497742672,142.463313526982" />
    <path d="M 42.615747130329,124.72065263480049 A 200,200 0 0,1 52.706077539490906,107.88595339607963" />
    <path d="M 77.578643762690461,77.578643762690518 A 200,200 0 0,1 92.121343167270808,64.39790932745268" />
    <path d="M 240.1717023111851,4.0400990388054652 A 216,216 0 1,1 219,3" />
  </g>
  <g fill="none" stroke="#000000" stroke-width="2" stroke-linecap="butt">
    <line x1="219" y1="83" x2="219" y2="99" />
    <line x1="251.77517409870956" y1="54.228072892257273" x2="245.53228379419343" y2="85.613201865160647" />
    <line x1="242.41083864193539" y1="101.30576635161235" x2="233.04650318516124" y2="148.3834598109674" />
    <line x1="272.41238061482107" y1="42.922978225273567" x2="263.12327094267829" y2="73.545068968704271" />
    <line x1="301.6596213908594" y1="19.442020977562066" x2="289.41375155517653" y2="49.006166017923249" />
    <line x1="258.79907696596933" y1="122.91652861882618" x2="252.6761420481279" y2="137.69860113900677" />
    <line x1="313.27934736519956" y1="42.615747130329" x2="283.10995620833569" y2="99.058708048623714" />
    <line x1="330.11404660392043" y1="52.706077539490963" x2="321.22492287560681" y2="66.009591336331681" />
    <line x1="294.55755169066589" y1="105.92013272685385" x2="285.66842796235227" y2="119.22364652369457" />
    <line x1="267.89018050572497" y1="145.83067411737602" x2="259.00105677741135" y2="159.13418791421674" />
    <line x1="360.42135623730951" y1="77.57864376269049" x2="315.16652224137044" y2="122.83347775862953" />
    <line x1="303.85281374238571" y1="134.14718625761429" x2="281.22539674441617" y2="156.77460325558383" />
    <line x1="371.99040866366829" y1="116.77507712439318" x2="358.68689486682763" y2="125.66420085270681" />
    <line x1="332.07986727314614" y1="143.44244830933408" x2="305.4728396794647" y2="161.22069576596135" />
    <line x1="367.16277241052364" y1="139.80534821323238" x2="338.94129195137629" y2="154.89004379166431" />
    <line x1="388.99383398207675" y1="148.58624844482347" x2="374.21176146189617" y2="154.7091833626649" />
    <line x1="315.08347138117381" y1="179.20092303403067" x2="300.30139886099323" y2="185.3238579518721" />
    <line x1="395.0770217747264" y1="165.58761938517893" x2="364.45493103129576" y2="174.87672905732171" />
    <line x1="415.1570560806461" y1="179.98193559677435" x2="383.77192710774273" y2="186.22482590129044" />
    <line x1="368.079362621291" y1="189.34627105354849" x2="336.69423364838764" y2="195.58916135806459" />
    <line x1="418.03694533443934" y1="199.39657193408783" x2="370.26807845417392" y2="204.10139466990677" />
    <line x1="339" y1="219" x2="323" y2="219" />
    <line x1="370.268078454174" y1="233.89860533009323" x2="354.34512282741878" y2="232.33033108482024" />
    <line x1="430.84962056709776" y1="261.1395095554837" x2="399.46449159419438" y2="254.8966192509676" />
    <line x1="383.77192710774273" y1="251.77517409870953" x2="368.079362621291" y2="248.65372894645148" />
    <line x1="352.38679813483935" y1="245.53228379419343" x2="336.69423364838764" y2="242.41083864193539" />
    <line x1="305.30910467548426" y1="236.16794833741929" x2="289.61654018903261" y2="233.04650318516124" />
    <line x1="425.69911251815711" y1="281.7014902869638" x2="349.14388565958041" y2="258.47871610660684" />
    <line x1="374.21176146189617" y1="283.29081663733507" x2="344.64761642153496" y2="271.0449468016522" />
    <line x1="315.08347138117381" y1="258.79907696596933" x2="300.30139886099323" y2="252.6761420481279" />
    <line x1="285.51932634081265" y1="246.55320713028647" x2="255.95518130045147" y2="234.3073372946036" />
    <line x1="395.384252869671" y1="313.27934736519956" x2="367.16277241052364" y2="298.19465178676762" />
    <line x1="371.9904086636684" y1="321.22492287560675" x2="345.38338106998691" y2="303.44667541897951" />
    <line x1="332.07986727314619" y1="294.55755169066583" x2="292.169325882624" y2="267.89018050572497" />
    <line x1="373.60209067254743" y1="345.87865683272906" x2="361.23392341874364" y2="335.72836428611072" />
    <line x1="348.86575616493985" y1="325.57807173949243" x2="336.49758891113606" y2="315.42777919287408" />
    <line x1="371.73506473629425" y1="371.73506473629425" x2="360.42135623730951" y2="360.42135623730951" />
    <line x1="315.16652224137044" y1="315.16652224137044" x2="292.53910524340097" y2="292.53910524340097" />
    <line x1="258.59797974644664" y1="258.59797974644664" x2="235.97056274847714" y2="235.97056274847714" />
    <line x1="335.72836428611078" y1="361.23392341874364" x2="325.57807173949243" y2="348.86575616493985" />
    <line x1="315.42777919287414" y1="336.497588911136" x2="305.2774866462558" y2="324.12942165733222" />
    <line x1="339.00317033223405" y1="398.59743625734978" x2="321.22492287560681" y2="371.99040866366835" />
    <line x1="294.55755169066589" y1="332.07986727314619" x2="285.66842796235227" y2="318.77635347630542" />
    <line x1="267.89018050572497" y1="292.169325882624" x2="259.00105677741135" y2="278.86581208578326" />
    <line x1="313.27934736519956" y1="395.384252869671" x2="298.19465178676762" y2="367.16277241052364" />
    <line x1="295.536686473018" y1="403.77590650225738" x2="289.41375155517653" y2="388.99383398207675" />
    <line x1="283.29081663733507" y1="374.21176146189617" x2="264.9220118838108" y2="329.86554390135439" />
    <line x1="246.55320713028647" y1="285.51932634081265" x2="240.43027221244503" y2="270.73725382063208" />
    <line x1="281.70149028696386" y1="425.69911251815711" x2="277.05693545089247" y2="410.38806714644176" />
    <line x1="272.41238061482107" y1="395.0770217747264" x2="267.76782577874968" y2="379.76597640301111" />
    <line x1="258.01806440322571" y1="415.1570560806461" x2="254.89661925096766" y2="399.46449159419438" />
    <line x1="251.77517409870961" y1="383.77192710774273" x2="245.53228379419349" y2="352.38679813483935" />
    <line x1="242.41083864193544" y1="336.69423364838764" x2="239.28939348967737" y2="321.001669161936" />
    <line x1="236.16794833741932" y1="305.30910467548426" x2="233.04650318516127" y2="289.61654018903261" />
    <line x1="237.03515382063918" y1="402.11398970768425" x2="235.46687957536622" y2="386.19103408092906" />
    <line x1="219.00000000000003" y1="435" x2="219.00000000000003" y2="419" />
    <line x1="219.00000000000003" y1="355" x2="219.00000000000003" y2="339" />
    <line x1="219" y1="323" x2="219" y2="307" />
    <line x1="219" y1="259" x2="219" y2="243" />
    <line x1="202.53312042463381" y1="386.19103408092906" x2="205.66966891517976" y2="354.34512282741878" />
    <line x1="186.22482590129044" y1="383.77192710774273" x2="189.34627105354849" y2="368.079362621291" />
    <line x1="192.46771620580654" y1="352.38679813483935" x2="198.71060651032266" y2="321.001669161936" />
    <line x1="201.83205166258071" y1="305.30910467548426" x2="204.95349681483876" y2="289.61654018903261" />
    <line x1="160.94306454910759" y1="410.38806714644181" x2="165.58761938517898" y2="395.0770217747264" />
    <line x1="174.87672905732177" y1="364.45493103129576" x2="179.52128389339316" y2="349.14388565958041" />
    <line x1="136.34037860914063" y1="418.55797902243796" x2="142.46331352698206" y2="403.77590650225738" />
    <line x1="148.5862484448235" y1="388.99383398207681" x2="160.83211828050636" y2="359.4296889417156" />
    <line x1="173.07798811618923" y1="329.86554390135444" x2="179.20092303403067" y2="315.08347138117381" />
    <line x1="191.44679286971353" y1="285.51932634081265" x2="203.6926627053964" y2="255.95518130045147" />
    <line x1="124.72065263480047" y1="395.384252869671" x2="147.34769600244835" y2="353.05203218094994" />
    <line x1="98.996829667765979" y1="398.59743625734984" x2="107.88595339607961" y2="385.29392246050907" />
    <line x1="125.66420085270687" y1="358.68689486682763" x2="134.55332458102049" y2="345.38338106998691" />
    <line x1="143.44244830933414" y1="332.07986727314619" x2="161.22069576596141" y2="305.47283967946476" />
    <line x1="170.10981949427503" y1="292.169325882624" x2="178.99894322258865" y2="278.86581208578326" />
    <line x1="92.12134316727095" y1="373.60209067254743" x2="102.27163571388927" y2="361.23392341874364" />
    <line x1="122.57222080712592" y1="336.49758891113606" x2="132.72251335374426" y2="324.12942165733227" />
    <line x1="66.264935263705752" y1="371.73506473629431" x2="77.578643762690518" y2="360.42135623730951" />
    <line x1="100.20606076066002" y1="337.79393923934003" x2="156.77460325558383" y2="281.22539674441617" />
    <line x1="190.7157287525381" y1="247.2842712474619" x2="202.02943725152286" y2="235.97056274847714" />
    <line x1="64.39790932745268" y1="345.87865683272918" x2="89.134243835060232" y2="325.57807173949254" />
    <line x1="101.50241108886402" y1="315.4277791928742" x2="113.87057834266781" y2="305.27748664625585" />
    <line x1="52.706077539490963" y1="330.11404660392043" x2="66.009591336331681" y2="321.22492287560681" />
    <line x1="79.3131051331724" y1="312.33579914729319" x2="92.616618930013118" y2="303.44667541897957" />
    <line x1="105.92013272685385" y1="294.55755169066589" x2="159.13418791421674" y2="259.00105677741135" />
    <line x1="42.615747130329" y1="313.27934736519956" x2="70.837227589476356" y2="298.19465178676762" />
    <line x1="19.442020977562123" y1="301.65962139085951" x2="34.2240934977427" y2="295.53668647301805" />
    <line x1="108.13445609864561" y1="264.92201188381085" x2="122.91652861882621" y2="258.79907696596939" />
    <line x1="137.69860113900677" y1="252.67614204812796" x2="182.04481869954856" y2="234.3073372946036" />
    <line x1="73.545068968704271" y1="263.12327094267829" x2="88.8561143404196" y2="258.4787161066069" />
    <line x1="7.1503794329022412" y1="261.13950955548381" x2="54.2280728922573" y2="251.77517409870961" />
    <line x1="85.613201865160676" y1="245.53228379419349" x2="101.30576635161236" y2="242.41083864193544" />
    <line x1="116.99833083806405" y1="239.28939348967737" x2="148.38345981096742" y2="233.04650318516127" />
    <line x1="4.0400990388054652" y1="240.17170231118507" x2="19.963054665560605" y2="238.60342806591208" />
    <line x1="67.731921545826054" y1="233.89860533009318" x2="83.654877172581223" y2="232.33033108482022" />
    <line x1="19" y1="219.00000000000003" x2="35" y2="219.00000000000003" />
    <line x1="115" y1="219.00000000000003" x2="131" y2="219.00000000000003" />
    <line x1="163" y1="219" x2="179" y2="219" />
    <line x1="35.886010292315774" y1="200.96484617936093" x2="67.731921545826054" y2="204.10139466990688" />
    <line x1="22.8429439193539" y1="179.98193559677435" x2="38.535508405805615" y2="183.1033807490324" />
    <line x1="69.920637378708989" y1="189.34627105354849" x2="116.99833083806404" y2="198.71060651032266" />
    <line x1="27.611932853558216" y1="160.94306454910759" x2="42.922978225273567" y2="165.58761938517898" />
    <line x1="58.234023596988891" y1="170.23217422125038" x2="73.545068968704243" y2="174.87672905732177" />
    <line x1="49.006166017923249" y1="148.58624844482344" x2="78.570311058284432" y2="160.83211828050634" />
    <line x1="93.352383578465023" y1="166.95505319834777" x2="122.91652861882619" y2="179.20092303403064" />
    <line x1="152.48067365918735" y1="191.44679286971353" x2="167.26274617936795" y2="197.56972778755497" />
    <line x1="42.615747130329" y1="124.72065263480049" x2="70.837227589476356" y2="139.80534821323241" />
    <line x1="52.706077539490906" y1="107.88595339607963" x2="79.313105133172371" y2="125.66420085270688" />
    <line x1="105.92013272685382" y1="143.44244830933417" x2="119.22364652369454" y2="152.33157203764779" />
    <line x1="132.52716032053527" y1="161.22069576596141" x2="145.83067411737602" y2="170.10981949427503" />
    <line x1="52.029742073648833" y1="81.971050620652562" x2="64.397909327452624" y2="92.121343167270879" />
    <line x1="89.1342438350602" y1="112.42192826050754" x2="113.87057834266778" y2="132.72251335374421" />
    <line x1="77.578643762690461" y1="77.578643762690518" x2="88.892352261675228" y2="88.892352261675285" />
    <line x1="122.83347775862951" y1="122.83347775862956" x2="145.46089475659903" y2="145.46089475659909" />
    <line x1="179.40202025355333" y1="179.40202025355336" x2="202.02943725152286" y2="202.02943725152286" />
    <line x1="102.27163571388915" y1="76.766076581256442" x2="112.42192826050749" y2="89.134243835060232" />
    <line x1="122.57222080712582" y1="101.50241108886402" x2="132.72251335374415" y2="113.87057834266781" />
    <line x1="98.996829667765923" y1="39.402563742650216" x2="134.55332458102046" y2="92.616618930013118" />
    <line x1="143.44244830933411" y1="105.92013272685385" x2="152.33157203764773" y2="119.22364652369457" />
    <line x1="161.22069576596138" y1="132.5271603205353" x2="170.109819494275" y2="145.83067411737602" />
    <line x1="132.26300042401638" y1="56.726487359902706" x2="154.89004379166428" y2="99.058708048623743" />
    <line x1="142.46331352698192" y1="34.2240934977427" x2="154.70918336266482" y2="63.788238538103855" />
    <line x1="166.95505319834771" y1="93.352383578465037" x2="173.07798811618915" y2="108.13445609864561" />
    <line x1="185.32385795187204" y1="137.69860113900677" x2="191.44679286971348" y2="152.48067365918737" />
    <line x1="197.56972778755494" y1="167.26274617936795" x2="203.69266270539637" y2="182.04481869954856" />
    <line x1="165.5876193851789" y1="42.922978225273567" x2="174.87672905732171" y2="73.545068968704271" />
    <line x1="183.10338074903231" y1="38.535508405805615" x2="186.22482590129039" y2="54.2280728922573" />
    <line x1="195.58916135806456" y1="101.30576635161236" x2="201.83205166258068" y2="132.69089532451574" />
    <line x1="202.53312042463384" y1="51.808965919070914" x2="204.1013946699068" y2="67.731921545826054" />
  </g>
  <path fill="none" stroke="#ff0000" stroke-width="2" stroke-linecap="square" stroke-linejoin="round" d="M 229.59861765472229,3.2601814596827694 L 229.20607626010295,11.25054510932415 A 208,208 0 0,1 289.07308950558178,23.158834441931674 L 283.68285185130628,38.22353948486 A 192,192 0 0,0 154.31714814869378,38.22353948486 L 165.09762345724479,68.352949570716675 A 160,160 0 0,0 150.59118505115481,74.361713100249091 L 136.90942206138575,45.434055720298915 A 192,192 0 0,0 120.29227311490141,54.316106879947768 L 144.96920483617606,95.48708015996084 A 144,144 0 0,0 133.21930015308962,103.33811546678712 L 123.68811128121068,90.4867949630968 A 160,160 0 0,0 100.44781994320654,111.55056722447706 L 88.5926019375272,100.80562394692477 A 176,176 0 0,1 100.80562394692471,88.592601937527235 L 90.0606806693724,76.737383931847916 A 192,192 0 0,1 104.62573353745283,64.784153955716164 L 95.094544665573892,51.932833452025847 A 208,208 0 0,0 64.882165926168511,79.315737391820193 L 76.737383931847859,90.060680669372488 A 192,192 0 0,0 64.7841539557161,104.62573353745289 L 51.93283345202579,95.094544665573963 A 208,208 0 0,0 11.25054510932415,229.20607626010295 L 27.231272408606912,228.42099347086426 A 192,192 0 0,0 29.078110086762081,247.17225109542957 L 44.904934246198565,244.82456350414378 A 176,176 0 0,1 43.211999707889646,210.36408931837448 L 59.192727007172408,211.14917210761317 A 160,160 0 0,0 59.192727007172408,226.85082789238689 L 75.17345430645517,226.0657451031482 A 144,144 0 0,1 76.558582565071532,197.87081167842788 L 60.731758405635048,195.52312408714209 A 160,160 0 0,1 63.794999488872946,180.12317121547778 L 79.315499539985666,184.01085409393002 A 144,144 0 0,1 95.4870801599608,144.96920483617612 L 109.21073791996516,153.19484874326764 A 128,128 0 0,0 106.11407816341055,158.66121768627232 L 134.33555862255793,173.74591326470423 A 96,96 0 0,0 123.46226623946909,209.59035452836224 L 107.53931061271395,208.02208028308928 A 112,112 0 0,0 111.82268239799261,251.51188385249981 L 127.13372776970795,246.86732901642839 A 96,96 0 0,0 134.33555862255793,264.2540867352958 L 162.55703908170528,249.16939115686387 A 64,64 0 0,0 178.3988298135267,268.47266901521516 L 168.24853726690839,280.84083626901895 A 80,80 0 0,1 157.15916373098108,269.75146273309167 L 120.05466196956971,300.20234037294665 A 128,128 0 0,0 124.15825595456526,304.95954622041836 L 88.592601937527235,337.1943760530753 A 176,176 0 0,0 128.51791702199301,369.96023536004793 L 144.96920483617609,342.51291984003922 A 144,144 0 0,1 133.21930015308959,334.66188453321286 L 123.68811128121068,347.51320503690317 A 160,160 0 0,1 111.55056722447705,337.55218005679342 L 133.04045377958164,313.84174404543478 A 128,128 0 0,0 137.79765962705341,317.94533803043032 L 158.09824472029004,293.20900352282274 A 96,96 0 0,0 209.59035452836218,314.5377337605309 L 208.02208028308922,330.46068938728604 A 112,112 0 0,0 229.9779197169108,330.46068938728604 L 231.54619396218379,346.38364501404118 A 128,128 0 0,0 256.1564386885712,341.4883629737227 L 251.51188385249978,326.17731760200741 A 112,112 0 0,0 290.05204782632831,305.57717077662653 L 300.20234037294665,317.94533803043032 A 128,128 0 0,1 295.24951097503151,321.81056402952254 L 304.78069984691041,334.66188453321286 A 144,144 0 0,1 280.56793345396062,349.17445820977582 L 287.40881494884513,363.63828689975094 A 160,160 0 0,0 326.44943277552295,337.55218005679342 L 315.70448949797071,325.6969620511141 A 144,144 0 0,0 334.66188453321286,304.78069984691041 L 373.21584604428381,333.37426646254721 A 192,192 0 0,0 383.68389312005229,317.70772688509857 L 356.23657760004357,301.25643907091546 A 160,160 0 0,0 363.63828689975094,287.40881494884513 L 378.10211558972605,294.24969644372959 A 176,176 0 0,0 384.71175547221168,278.29261419703073 L 339.51764034342665,262.12190123420413 A 128,128 0 0,1 331.88592183658943,279.33878231372773 L 317.77518160701578,271.79643452451171 A 112,112 0 0,0 330.46068938728604,229.9779197169108 L 346.38364501404124,231.54619396218376 A 128,128 0 0,0 346.38364501404118,206.45380603781621 L 314.5377337605309,209.59035452836216 A 96,96 0 0,1 310.86627223029205,246.86732901642836 L 280.24418148686135,237.57821934428557 A 64,64 0 0,0 165.7859448126371,183.44350508674549 L 179.08945860947782,192.33262881505911 A 48,48 0 0,0 171.92230654064494,209.63566454322583 L 187.61487102709663,212.75710969548391 A 32,32 0 0,0 192.39297240631856,236.77824745662727 L 179.08945860947785,245.66737118494092 A 48,48 0 0,0 192.33262881505911,258.91054139052221 L 201.22175254337273,245.60702759368147 A 32,32 0 0,0 206.75413016431713,248.56414504036118 L 209.81559762323786,241.17310878027089" />
  <type>Circular</type>
</svg>