<?xml version="1.0" encoding="utf-8" standalone="no"?>
<!DOCTYPE svg PUBLIC "-//W3C//DTD SVG 1.1//EN" "http://www.w3.org/Graphics/SVG/1.1/DTD/svg11.dtd"[]>
<svg width="436" height="436" version="1.1" xmlns="http://www.w3.org/2000/svg">
  <title>27 cells diameter theta maze</title>
  <g fill="none" stroke="#000000" stroke-width="2" stroke-linecap="square">
    <path d="M 202.02943725152286,235.97056274847714 A 24,24 0 1,1 219,243" />
    <path d="M 203.69266270539637,182.04481869954856 A 40,40 0 0,1 234.3073372946036,182.04481869954853" />
    <path d="M 247.2842712474619,190.7157287525381 A 40,40 0 0,1 247.2842712474619,247.2842712474619" />
    <path d="M 234.3073372946036,255.95518130045147 A 40,40 0 0,1 203.6926627053964,255.95518130045147" />
    <path d="M 182.04481869954853,234.3073372946036 A 40,40 0 0,1 182.04481869954853,203.6926627053964" />
    <path d="M 240.43027221244503,167.26274617936795 A 56,56 0 0,1 258.59797974644664,179.40202025355333" />
    <path d="M 258.59797974644664,258.59797974644664 A 56,56 0 0,1 240.43027221244503,270.73725382063208" />
    <path d="M 197.569727787555,270.73725382063208 A 56,56 0 0,1 179.40202025355336,258.59797974644664" />
    <path d="M 167.26274617936795,240.43027221244506 A 56,56 0 0,1 163,219" />
    <path d="M 167.26274617936795,197.56972778755497 A 56,56 0 0,1 197.56972778755494,167.26274617936795" />
    <path d="M 204.95349681483873,148.3834598109674 A 72,72 0 0,1 219,147" />
    <path d="M 233.04650318516124,148.3834598109674 A 72,72 0 0,1 246.55320713028647,152.48067365918735" />
    <path d="M 259.00105677741135,159.13418791421674 A 72,72 0 0,1 289.61654018903261,204.95349681483876" />
    <path d="M 291,219 A 72,72 0 0,1 178.99894322258865,278.86581208578326" />
    <path d="M 168.08831175456859,269.91168824543144 A 72,72 0 0,1 159.13418791421674,259.00105677741135" />
    <path d="M 152.48067365918737,246.5532071302865 A 72,72 0 0,1 148.3834598109674,233.04650318516127" />
    <path d="M 178.99894322258865,159.13418791421674 A 72,72 0 0,1 191.44679286971348,152.48067365918737" />
    <path d="M 219,131 A 88,88 0 0,1 236.16794833741929,132.69089532451574" />
    <path d="M 267.89018050572497,145.83067411737602 A 88,88 0 0,1 281.22539674441617,156.77460325558383" />
    <path d="M 300.30139886099323,185.3238579518721 A 88,88 0 0,1 307,219" />
    <path d="M 300.30139886099323,252.6761420481279 A 88,88 0 0,1 252.6761420481279,300.30139886099323" />
    <path d="M 236.16794833741932,305.30910467548426 A 88,88 0 0,1 201.83205166258071,305.30910467548426" />
    <path d="M 145.83067411737602,267.89018050572497 A 88,88 0 0,1 137.69860113900677,252.67614204812796" />
    <path d="M 132.69089532451574,236.16794833741932 A 88,88 0 0,1 131,219.00000000000003" />
    <path d="M 132.69089532451574,201.83205166258071 A 88,88 0 0,1 156.7746032555838,156.77460325558383" />
    <path d="M 185.32385795187204,137.69860113900677 A 88,88 0 0,1 201.83205166258068,132.69089532451574" />
    <path d="M 198.71060651032261,116.99833083806405 A 104,104 0 0,1 219,115" />
    <path d="M 292.53910524340097,145.46089475659906 A 104,104 0 0,1 315.08347138117381,179.20092303403067" />
    <path d="M 321.001669161936,198.71060651032266 A 104,104 0 0,1 321.001669161936,239.28939348967734" />
    <path d="M 305.47283967946476,276.77930423403859 A 104,104 0 0,1 292.53910524340097,292.53910524340097" />
    <path d="M 276.77930423403859,305.4728396794647 A 104,104 0 0,1 219,323" />
    <path d="M 179.20092303403067,315.08347138117381 A 104,104 0 0,1 161.22069576596141,305.47283967946476" />
    <path d="M 122.91652861882621,258.79907696596939 A 104,104 0 0,1 116.99833083806404,239.28939348967737" />
    <path d="M 132.52716032053527,161.22069576596141 A 104,104 0 0,1 161.22069576596135,132.5271603205353" />
    <path d="M 219,99 A 120,120 0 0,1 242.41083864193539,101.30576635161235" />
    <path d="M 285.66842796235227,119.22364652369457 A 120,120 0 0,1 303.85281374238571,134.14718625761429" />
    <path d="M 329.86554390135439,173.07798811618923 A 120,120 0 0,1 336.69423364838764,195.58916135806459" />
    <path d="M 318.77635347630542,285.66842796235221 A 120,120 0 0,1 285.66842796235227,318.77635347630542" />
    <path d="M 219.00000000000003,339 A 120,120 0 0,1 173.07798811618926,329.86554390135439" />
    <path d="M 152.33157203764779,318.77635347630547 A 120,120 0 0,1 134.14718625761429,303.85281374238571" />
    <path d="M 119.22364652369457,285.66842796235227 A 120,120 0 0,1 101.30576635161235,242.41083864193544" />
    <path d="M 99,219.00000000000003 A 120,120 0 0,1 101.30576635161235,195.58916135806462" />
    <path d="M 219,83 A 136,136 0 0,1 232.33033108482024,83.654877172581223" />
    <path d="M 258.4787161066069,88.8561143404196 A 136,136 0 0,1 283.10995620833569,99.058708048623714" />
    <path d="M 315.16652224137044,122.83347775862953 A 136,136 0 0,1 324.12942165733222,132.72251335374421" />
    <path d="M 338.94129195137629,154.89004379166431 A 136,136 0 0,1 349.14388565958041,179.52128389339313" />
    <path d="M 352.38679813483935,192.46771620580654 A 136,136 0 0,1 338.94129195137629,283.10995620833569" />
    <path d="M 324.12942165733227,305.27748664625574 A 136,136 0 0,1 305.2774866462558,324.12942165733222" />
    <path d="M 294.55755169066589,332.07986727314619 A 136,136 0 0,1 283.10995620833569,338.94129195137629" />
    <path d="M 258.4787161066069,349.14388565958041 A 136,136 0 0,1 245.53228379419349,352.3867981348393" />
    <path d="M 232.33033108482027,354.34512282741878 A 136,136 0 0,1 205.66966891517976,354.34512282741878" />
    <path d="M 192.46771620580654,352.38679813483935 A 136,136 0 0,1 143.44244830933414,332.07986727314619" />
    <path d="M 132.72251335374423,324.12942165733227 A 136,136 0 0,1 105.92013272685384,294.55755169066589" />
    <path d="M 99.058708048623728,283.10995620833569 A 136,136 0 0,1 88.8561143404196,258.4787161066069" />
    <path d="M 83.654877172581223,232.33033108482022 A 136,136 0 0,1 83.654877172581223,205.66966891517984" />
    <path d="M 85.613201865160647,192.46771620580654 A 136,136 0 0,1 93.352383578465009,166.95505319834777" />
    <path d="M 99.058708048623714,154.89004379166431 A 136,136 0 0,1 113.87057834266778,132.72251335374421" />
    <path d="M 122.83347775862951,122.83347775862956 A 136,136 0 0,1 132.72251335374415,113.87057834266783" />
    <path d="M 143.44244830933411,105.92013272685385 A 136,136 0 0,1 154.89004379166428,99.058708048623743" />
    <path d="M 166.95505319834771,93.352383578465037 A 136,136 0 0,1 179.5212838933931,88.8561143404196" />
    <path d="M 192.46771620580648,85.613201865160676 A 136,136 0 0,1 205.66966891517978,83.654877172581223" />
    <path d="M 204.1013946699068,67.731921545826083 A 152,152 0 0,1 219,67" />
    <path d="M 248.65372894645151,69.92063737870896 A 152,152 0 0,1 263.12327094267829,73.545068968704243" />
    <path d="M 277.16788171949366,78.5703110582844 A 152,152 0 0,1 315.42777919287414,101.50241108886398" />
    <path d="M 345.38338106998685,134.55332458102046 A 152,152 0 0,1 353.05203218094994,147.34769600244835" />
    <path d="M 364.45493103129576,174.87672905732174 A 152,152 0 0,1 368.079362621291,189.34627105354849" />
    <path d="M 370.26807845417392,204.10139466990677 A 152,152 0 0,1 370.26807845417392,233.89860533009323" />
    <path d="M 368.079362621291,248.65372894645148 A 152,152 0 0,1 359.4296889417156,277.16788171949361" />
    <path d="M 353.05203218094994,290.65230399755166 A 152,152 0 0,1 336.49758891113606,315.42777919287408" />
    <path d="M 315.42777919287414,336.497588911136 A 152,152 0 0,1 277.16788171949366,359.42968894171554" />
    <path d="M 263.12327094267829,364.45493103129576 A 152,152 0 0,1 219.00000000000003,371" />
    <path d="M 204.1013946699068,370.26807845417392 A 152,152 0 0,1 189.34627105354849,368.079362621291" />
    <path d="M 160.83211828050636,359.4296889417156 A 152,152 0 0,1 147.34769600244835,353.05203218094994" />
    <path d="M 134.55332458102049,345.38338106998691 A 152,152 0 0,1 101.50241108886402,315.42777919287414" />
    <path d="M 92.616618930013118,303.44667541897951 A 152,152 0 0,1 73.545068968704243,263.12327094267829" />
    <path d="M 69.920637378708989,248.65372894645157 A 152,152 0 0,1 67.731921545826083,233.89860533009318" />
    <path d="M 67,219.00000000000003 A 152,152 0 0,1 69.92063737870896,189.34627105354849" />
    <path d="M 73.545068968704243,174.87672905732177 A 152,152 0 0,1 92.61661893001309,134.55332458102052" />
    <path d="M 134.55332458102046,92.616618930013118 A 152,152 0 0,1 174.87672905732171,73.545068968704271" />
    <path d="M 219,51 A 168,168 0 0,1 235.46687957536619,51.808965919070914" />
    <path d="M 267.76782577874968,58.234023596988919 A 168,168 0 0,1 325.57807173949243,89.134243835060175" />
    <path d="M 337.79393923934,100.20606076066001 A 168,168 0 0,1 348.8657561649398,112.42192826050756" />
    <path d="M 374.21176146189617,154.70918336266493 A 168,168 0 0,1 379.76597640301111,170.23217422125032" />
    <path d="M 383.77192710774273,186.22482590129044 A 168,168 0 0,1 386.19103408092906,235.46687957536619" />
    <path d="M 383.77192710774273,251.77517409870953 A 168,168 0 0,1 337.79393923934,337.79393923934" />
    <path d="M 325.57807173949243,348.86575616493985 A 168,168 0 0,1 312.33579914729319,358.68689486682763" />
    <path d="M 283.29081663733507,374.21176146189617 A 168,168 0 0,1 267.76782577874968,379.76597640301111" />
    <path d="M 219.00000000000003,387 A 168,168 0 0,1 202.53312042463381,386.19103408092906" />
    <path d="M 186.22482590129044,383.77192710774273 A 168,168 0 0,1 139.80534821323241,367.16277241052364" />
    <path d="M 112.42192826050759,348.86575616493985 A 168,168 0 0,1 89.134243835060232,325.57807173949249" />
    <path d="M 58.234023596988919,267.76782577874968 A 168,168 0 0,1 51.808965919070914,202.53312042463392" />
    <path d="M 54.228072892257273,186.22482590129044 A 168,168 0 0,1 63.788238538103855,154.70918336266487" />
    <path d="M 79.313105133172371,125.66420085270688 A 168,168 0 0,1 139.80534821323235,70.837227589476385" />
    <path d="M 170.23217422125032,58.234023596988919 A 168,168 0 0,1 186.22482590129039,54.2280728922573" />
    <path d="M 102.27163571388915,76.76607658125647 A 184,184 0 0,1 254.8966192509676,38.535508405805587" />
    <path d="M 289.41375155517653,49.006166017923249 A 184,184 0 0,1 371.99040866366829,116.77507712439318" />
    <path d="M 381.27351264009735,132.26300042401641 A 184,184 0 0,1 388.99383398207675,148.58624844482347" />
    <path d="M 395.0770217747264,165.58761938517893 A 184,184 0 0,1 402.11398970768425,200.96484617936082" />
    <path d="M 403,219 A 184,184 0 0,1 402.11398970768425,237.03515382063915" />
    <path d="M 395.0770217747264,272.412380614821 A 184,184 0 0,1 371.99040866366835,321.22492287560675" />
    <path d="M 349.10764773832477,349.10764773832477 A 184,184 0 0,1 335.72836428611078,361.23392341874364" />
    <path d="M 321.22492287560681,371.99040866366835 A 184,184 0 0,1 289.41375155517653,388.99383398207675" />
    <path d="M 272.41238061482107,395.0770217747264 A 184,184 0 0,1 219.00000000000003,403" />
    <path d="M 200.96484617936085,402.11398970768425 A 184,184 0 0,1 165.58761938517898,395.0770217747264" />
    <path d="M 102.27163571388927,361.23392341874364 A 184,184 0 0,1 88.892352261675285,349.10764773832477" />
    <path d="M 76.76607658125647,335.72836428611083 A 184,184 0 0,1 38.535508405805615,254.89661925096766" />
    <path d="M 35,219.00000000000003 A 184,184 0 0,1 38.535508405805587,183.1033807490324" />
    <path d="M 42.922978225273539,165.58761938517898 A 184,184 0 0,1 66.009591336331624,116.77507712439326" />
    <path d="M 258.01806440322565,22.8429439193539 A 200,200 0 0,1 313.27934736519956,42.615747130329" />
    <path d="M 345.87865683272912,64.3979093274526 A 200,200 0 0,1 360.42135623730951,77.57864376269049" />
    <path d="M 373.60209067254738,92.1213431672709 A 200,200 0 0,1 418.03694533443934,199.39657193408783" />
    <path d="M 418.03694533443934,238.60342806591214 A 200,200 0 0,1 415.1570560806461,258.01806440322565" />
    <path d="M 373.60209067254743,345.87865683272906 A 200,200 0 0,1 345.87865683272912,373.60209067254743" />
    <path d="M 313.27934736519956,395.38425286967095 A 200,200 0 0,1 295.536686473018,403.77590650225738" />
    <path d="M 258.01806440322571,415.15705608064604 A 200,200 0 0,1 179.98193559677432,415.1570560806461" />
    <path d="M 160.94306454910759,410.38806714644181 A 200,200 0 0,1 142.46331352698206,403.77590650225738" />
    <path d="M 107.88595339607961,385.29392246050907 A 200,200 0 0,1 92.121343167270936,373.60209067254743" />
    <path d="M 52.706077539490934,330.11404660392043 A 200,200 0 0,1 19.963054665560605,199.39657193408797" />
    <path d="M 64.397909327452624,92.121343167270879 A 200,200 0 0,1 92.121343167270808,64.39790932745268" />
    <path d="M 107.88595339607956,52.706077539490963 A 200,200 0 0,1 124.72065263480042,42.615747130329027" />
    <path d="M 160.9430645491075,27.611932853558244 A 200,200 0 0,1 179.98193559677426,22.842943919353928" />
    <path d="M 240.1717023111851,4.0400990388054652 A 216,216 0 1,1 219,3" />
  </g>
  <g fill="none" stroke="#000000" stroke-width="2" stroke-linecap="butt">
    <line x1="219" y1="3" x2="219" y2="19" />
    <line x1="219" y1="83" x2="219" y2="99" />
    <line x1="219" y1="147" x2="219" y2="195" />
    <line x1="238.60342806591211" y1="19.963054665560605" x2="237.03515382063915" y2="35.886010292315774" />
    <line x1="235.46687957536619" y1="51.808965919070914" x2="232.33033108482024" y2="83.654877172581223" />
    <line x1="254.8966192509676" y1="38.535508405805615" x2="251.77517409870956" y2="54.228072892257273" />
    <line x1="248.65372894645151" y1="69.920637378708989" x2="245.53228379419343" y2="85.613201865160647" />
    <line x1="242.41083864193539" y1="101.30576635161235" x2="233.04650318516124" y2="148.3834598109674" />
    <line x1="277.05693545089247" y1="27.611932853558244" x2="267.76782577874968" y2="58.234023596988919" />
    <line x1="263.12327094267829" y1="73.545068968704271" x2="258.4787161066069" y2="88.8561143404196" />
    <line x1="271.0449468016522" y1="93.352383578465009" x2="240.43027221244503" y2="167.26274617936795" />
    <line x1="320.82169515441547" y1="28.505006900755319" x2="313.27934736519956" y2="42.615747130329" />
    <line x1="290.65230399755166" y1="84.947967819050035" x2="283.10995620833569" y2="99.058708048623714" />
    <line x1="330.11404660392043" y1="52.706077539490963" x2="321.22492287560681" y2="66.009591336331681" />
    <line x1="294.55755169066589" y1="105.92013272685385" x2="259.00105677741135" y2="159.13418791421674" />
    <line x1="325.57807173949243" y1="89.134243835060175" x2="305.2774866462558" y2="113.87057834266777" />
    <line x1="371.73506473629425" y1="66.264935263705723" x2="360.42135623730951" y2="77.57864376269049" />
    <line x1="337.79393923934" y1="100.20606076066001" x2="303.85281374238571" y2="134.14718625761429" />
    <line x1="258.59797974644664" y1="179.40202025355333" x2="247.2842712474619" y2="190.7157287525381" />
    <line x1="373.60209067254743" y1="92.121343167270908" x2="336.497588911136" y2="122.57222080712589" />
    <line x1="358.68689486682763" y1="125.66420085270681" x2="345.38338106998685" y2="134.55332458102043" />
    <line x1="332.07986727314614" y1="143.44244830933408" x2="278.86581208578326" y2="178.99894322258865" />
    <line x1="381.27351264009729" y1="132.26300042401641" x2="338.94129195137629" y2="154.89004379166431" />
    <line x1="374.21176146189617" y1="154.7091833626649" x2="329.86554390135439" y2="173.0779881161892" />
    <line x1="285.51932634081265" y1="191.44679286971353" x2="270.73725382063208" y2="197.56972778755497" />
    <line x1="395.0770217747264" y1="165.58761938517893" x2="379.76597640301111" y2="170.23217422125032" />
    <line x1="383.77192710774273" y1="186.22482590129044" x2="352.38679813483935" y2="192.46771620580654" />
    <line x1="336.69423364838764" y1="195.58916135806459" x2="321.001669161936" y2="198.71060651032266" />
    <line x1="305.30910467548426" y1="201.83205166258071" x2="289.61654018903261" y2="204.95349681483876" />
    <line x1="418.03694533443934" y1="199.39657193408783" x2="402.11398970768425" y2="200.96484617936082" />
    <line x1="435" y1="219" x2="419" y2="219" />
    <line x1="403" y1="219" x2="387" y2="219" />
    <line x1="355" y1="219" x2="339" y2="219" />
    <line x1="275" y1="219" x2="259" y2="219" />
    <line x1="418.03694533443939" y1="238.60342806591214" x2="402.11398970768425" y2="237.03515382063915" />
    <line x1="370.268078454174" y1="233.89860533009323" x2="354.34512282741878" y2="232.33033108482024" />
    <line x1="415.1570560806461" y1="258.01806440322565" x2="383.77192710774273" y2="251.77517409870953" />
    <line x1="336.69423364838764" y1="242.41083864193539" x2="289.61654018903261" y2="233.04650318516124" />
    <line x1="425.69911251815711" y1="281.7014902869638" x2="395.0770217747264" y2="272.412380614821" />
    <line x1="403.77590650225738" y1="295.53668647301794" x2="388.99383398207675" y2="289.41375155517653" />
    <line x1="374.21176146189617" y1="283.29081663733507" x2="359.4296889417156" y2="277.16788171949361" />
    <line x1="344.64761642153496" y1="271.0449468016522" x2="300.30139886099323" y2="252.6761420481279" />
    <line x1="285.51932634081265" y1="246.55320713028647" x2="270.73725382063208" y2="240.43027221244503" />
    <line x1="409.49499309924465" y1="320.82169515441552" x2="395.384252869671" y2="313.27934736519956" />
    <line x1="385.29392246050907" y1="330.11404660392037" x2="371.9904086636684" y2="321.22492287560675" />
    <line x1="345.38338106998691" y1="303.44667541897951" x2="318.77635347630547" y2="285.66842796235221" />
    <line x1="373.60209067254743" y1="345.87865683272906" x2="348.86575616493985" y2="325.57807173949243" />
    <line x1="326.48023074035524" y1="326.48023074035518" x2="315.16652224137044" y2="315.16652224137044" />
    <line x1="292.53910524340097" y1="292.53910524340097" x2="281.22539674441617" y2="281.22539674441617" />
    <line x1="258.59797974644664" y1="258.59797974644664" x2="247.2842712474619" y2="247.2842712474619" />
    <line x1="345.87865683272912" y1="373.60209067254743" x2="325.57807173949243" y2="348.86575616493985" />
    <line x1="315.42777919287414" y1="336.497588911136" x2="305.2774866462558" y2="324.12942165733222" />
    <line x1="339.00317033223405" y1="398.59743625734978" x2="321.22492287560681" y2="371.99040866366835" />
    <line x1="312.33579914729319" y1="358.68689486682763" x2="303.44667541897957" y2="345.38338106998691" />
    <line x1="294.55755169066589" y1="332.07986727314619" x2="276.77930423403865" y2="305.4728396794647" />
    <line x1="305.73699957598359" y1="381.27351264009729" x2="298.19465178676762" y2="367.16277241052364" />
    <line x1="295.536686473018" y1="403.77590650225738" x2="289.41375155517653" y2="388.99383398207675" />
    <line x1="277.16788171949366" y1="359.4296889417156" x2="264.9220118838108" y2="329.86554390135439" />
    <line x1="258.79907696596933" y1="315.08347138117381" x2="252.6761420481279" y2="300.30139886099323" />
    <line x1="281.70149028696386" y1="425.69911251815711" x2="267.76782577874968" y2="379.76597640301111" />
    <line x1="251.77517409870961" y1="383.77192710774273" x2="239.28939348967737" y2="321.001669161936" />
    <line x1="237.03515382063918" y1="402.11398970768425" x2="233.89860533009323" y2="370.26807845417392" />
    <line x1="219.00000000000003" y1="355" x2="219.00000000000003" y2="339" />
    <line x1="219" y1="323" x2="219" y2="307" />
    <line x1="219" y1="291" x2="219" y2="243" />
    <line x1="200.96484617936085" y1="402.11398970768425" x2="205.66966891517976" y2="354.34512282741878" />
    <line x1="179.98193559677432" y1="415.1570560806461" x2="183.1033807490324" y2="399.46449159419438" />
    <line x1="195.58916135806459" y1="336.69423364838764" x2="198.71060651032266" y2="321.001669161936" />
    <line x1="156.2985097130362" y1="425.69911251815711" x2="160.94306454910759" y2="410.38806714644181" />
    <line x1="170.23217422125038" y1="379.76597640301111" x2="179.52128389339316" y2="349.14388565958041" />
    <line x1="142.46331352698206" y1="403.77590650225738" x2="154.70918336266493" y2="374.21176146189623" />
    <line x1="173.07798811618923" y1="329.86554390135444" x2="185.3238579518721" y2="300.30139886099323" />
    <line x1="117.17830484558451" y1="409.49499309924465" x2="124.72065263480047" y2="395.384252869671" />
    <line x1="132.26300042401644" y1="381.27351264009735" x2="139.80534821323238" y2="367.16277241052364" />
    <line x1="147.34769600244835" y1="353.05203218094994" x2="154.89004379166431" y2="338.94129195137629" />
    <line x1="107.88595339607961" y1="385.29392246050907" x2="134.55332458102049" y2="345.38338106998691" />
    <line x1="143.44244830933414" y1="332.07986727314619" x2="152.33157203764776" y2="318.77635347630547" />
    <line x1="161.22069576596141" y1="305.47283967946476" x2="178.99894322258865" y2="278.86581208578326" />
    <line x1="122.57222080712592" y1="336.49758891113606" x2="132.72251335374426" y2="324.12942165733227" />
    <line x1="66.264935263705752" y1="371.73506473629431" x2="100.20606076066002" y2="337.79393923934003" />
    <line x1="134.14718625761429" y1="303.85281374238571" x2="202.02943725152286" y2="235.97056274847714" />
    <line x1="52.02974207364889" y1="356.02894937934752" x2="76.766076581256442" y2="335.72836428611083" />
    <line x1="66.009591336331681" y1="321.22492287560681" x2="79.3131051331724" y2="312.33579914729319" />
    <line x1="92.616618930013118" y1="303.44667541897957" x2="119.22364652369457" y2="285.66842796235227" />
    <line x1="132.5271603205353" y1="276.77930423403865" x2="145.83067411737602" y2="267.89018050572497" />
    <line x1="70.837227589476356" y1="298.19465178676762" x2="84.947967819050064" y2="290.65230399755166" />
    <line x1="49.006166017923277" y1="289.41375155517665" x2="78.57031105828446" y2="277.16788171949372" />
    <line x1="122.91652861882621" y1="258.79907696596939" x2="167.26274617936795" y2="240.43027221244506" />
    <line x1="73.545068968704271" y1="263.12327094267829" x2="88.8561143404196" y2="258.4787161066069" />
    <line x1="85.613201865160676" y1="245.53228379419349" x2="116.99833083806405" y2="239.28939348967737" />
    <line x1="19.963054665560605" y1="238.60342806591208" x2="83.654877172581223" y2="232.33033108482022" />
    <line x1="83" y1="219.00000000000003" x2="147" y2="219" />
    <line x1="179" y1="219" x2="195" y2="219" />
    <line x1="22.8429439193539" y1="179.98193559677435" x2="85.613201865160647" y2="192.46771620580654" />
    <line x1="101.30576635161235" y1="195.58916135806462" x2="148.3834598109674" y2="204.95349681483876" />
    <line x1="12.300887481842864" y1="156.2985097130362" x2="27.611932853558216" y2="160.94306454910759" />
    <line x1="34.224093497742672" y1="142.463313526982" x2="49.006166017923249" y2="148.58624844482344" />
    <line x1="78.570311058284432" y1="160.83211828050634" x2="122.91652861882619" y2="179.20092303403064" />
    <line x1="152.48067365918735" y1="191.44679286971353" x2="182.04481869954853" y2="203.6926627053964" />
    <line x1="28.505006900755319" y1="117.17830484558452" x2="42.615747130329" y2="124.72065263480049" />
    <line x1="56.726487359902677" y1="132.26300042401644" x2="70.837227589476356" y2="139.80534821323241" />
    <line x1="39.402563742650187" y1="98.996829667766008" x2="92.61661893001309" y2="134.55332458102052" />
    <line x1="105.92013272685382" y1="143.44244830933417" x2="159.13418791421674" y2="178.99894322258865" />
    <line x1="64.397909327452624" y1="92.121343167270879" x2="76.766076581256414" y2="102.27163571388921" />
    <line x1="101.502411088864" y1="122.57222080712587" x2="113.87057834266778" y2="132.72251335374421" />
    <line x1="88.892352261675228" y1="88.892352261675285" x2="100.20606076066" y2="100.20606076066005" />
    <line x1="111.51976925964475" y1="111.5197692596448" x2="134.14718625761429" y2="134.14718625761432" />
    <line x1="168.08831175456857" y1="168.08831175456859" x2="190.7157287525381" y2="190.7157287525381" />
    <line x1="92.121343167270808" y1="64.39790932745268" x2="102.27163571388915" y2="76.766076581256442" />
    <line x1="112.42192826050749" y1="89.134243835060232" x2="132.72251335374415" y2="113.87057834266781" />
    <line x1="134.55332458102046" y1="92.616618930013118" x2="178.99894322258865" y2="159.13418791421674" />
    <line x1="117.17830484558445" y1="28.505006900755347" x2="124.72065263480042" y2="42.615747130329027" />
    <line x1="142.46331352698192" y1="34.2240934977427" x2="173.07798811618915" y2="108.13445609864561" />
    <line x1="179.20092303403061" y1="122.91652861882621" x2="185.32385795187204" y2="137.69860113900677" />
    <line x1="176.86049044451619" y1="7.1503794329022412" x2="179.98193559677426" y2="22.842943919353928" />
    <line x1="186.22482590129039" y1="54.2280728922573" x2="204.95349681483873" y2="148.38345981096742" />
    <line x1="199.39657193408789" y1="19.963054665560605" x2="205.66966891517978" y2="83.654877172581223" />
  </g>
  <path fill="none" stroke="#ff0000" stroke-width="2" stroke-linecap="square" stroke-linejoin="round" d="M 229.59861765472229,3.2601814596827694 L 229.20607626010295,11.25054510932415 A 208,208 0 0,1 249.51993868671525,13.251285927325569 L 247.17225109542946,29.078110086762052 A 192,192 0 0,1 265.65219454142664,32.753999386647564 L 257.87682878452222,63.794999488872975 A 160,160 0 0,0 242.47687591285788,60.731758405635048 L 244.82456350414367,44.904934246198536 A 176,176 0 0,0 210.36408931837443,43.211999707889646 L 211.14917210761311,59.192727007172408 A 160,160 0 0,1 226.85082789238689,59.192727007172408 L 226.0657451031482,75.17345430645517 A 144,144 0 0,0 211.9342548968518,75.17345430645517 L 212.71933768609048,91.154181605737932 A 128,128 0 0,0 206.45380603781626,91.6163549859588 L 208.02208028308922,107.53931061271395 A 112,112 0 0,1 229.97791971691078,107.53931061271395 L 228.40964547163782,123.4622662394691 A 96,96 0 0,0 209.59035452836218,123.4622662394691 L 211.15862877363517,139.38522186622424 A 80,80 0 0,1 226.84137122636486,139.38522186622424 L 225.27309698109187,155.30817749297938 A 64,64 0 0,1 231.48578060903222,156.22974205419325 L 228.36433545677414,171.92230654064494 A 48,48 0 0,1 245.66737118494092,179.08945860947785 L 236.77824745662727,192.39297240631856 A 32,32 0 0,1 236.77824745662727,245.60702759368144 L 245.66737118494089,258.91054139052216 A 48,48 0 0,1 228.36433545677417,266.07769345935503 L 231.48578060903222,281.77025794580675 A 64,64 0 0,0 272.21405518736293,254.55649491325454 L 258.91054139052216,245.66737118494089 A 48,48 0 0,0 266.07769345935503,228.36433545677414 L 281.77025794580675,231.48578060903219 A 64,64 0 0,0 281.77025794580675,206.51421939096778 L 266.07769345935503,209.63566454322583 A 48,48 0 0,0 258.91054139052216,192.33262881505908 L 272.21405518736287,183.44350508674546 A 64,64 0 0,0 249.16939115686384,162.55703908170528 L 279.33878231372768,106.11407816341055 A 128,128 0 0,1 284.80515125673236,109.21073791996517 L 293.03079516382394,95.487080159960811 A 144,144 0 0,1 304.78069984691041,103.33811546678713 L 295.24951097503146,116.18943597047745 A 128,128 0 0,1 304.95954622041836,124.15825595456523 L 337.19437605307525,88.592601937527178 A 176,176 0 0,0 278.29261419703073,53.288244527788351 L 283.68285185130628,38.22353948486 A 192,192 0 0,1 317.70772688509857,54.316106879947768 L 325.93337079219009,40.59244911994341 A 208,208 0 0,1 342.90545533442616,51.932833452025875 L 333.37426646254721,64.784153955716192 A 192,192 0 0,1 361.26261606815217,90.060680669372459 L 373.11783407383149,79.315737391820164 A 208,208 0 0,1 426.74945489067585,208.79392373989703 L 394.78800029211038,210.3640893183744 A 176,176 0 0,0 389.72550056223974,176.23548833702554 L 374.205000511127,180.12317121547775 A 160,160 0 0,0 369.64705042928335,165.09762345724479 L 354.582345386355,170.48786111152032 A 144,144 0 0,1 358.68450046001431,184.01085409393 L 343.16400040890164,187.8985369723822 A 128,128 0 0,1 346.38364501404118,206.45380603781621 L 330.46068938728604,208.0220802830892 A 112,112 0 0,1 330.46068938728604,229.9779197169108 L 346.38364501404124,231.54619396218376 A 128,128 0 0,1 341.48836297372276,256.15643868857114 L 295.5552268585767,242.22277418035696 A 80,80 0 0,1 195.77722581964304,295.5552268585767 L 191.13267098357164,310.86627223029205 A 96,96 0 0,0 209.59035452836218,314.5377337605309 L 208.02208028308922,330.46068938728604 A 112,112 0 0,0 229.9779197169108,330.46068938728604 L 231.54619396218379,346.38364501404118 A 128,128 0 0,0 237.78150073028633,345.614593275492 L 240.12918832157209,361.44141743492844 A 144,144 0 0,1 211.93425489685185,362.82654569354486 L 211.14917210761317,378.80727299282762 A 160,160 0 0,0 226.85082789238689,378.80727299282762 L 227.63591068162558,394.78800029211038 A 176,176 0 0,1 210.36408931837448,394.78800029211038 L 209.5790065291358,410.76872759139314 A 192,192 0 0,0 265.6521945414267,405.24600061335241 L 269.53987741987891,420.76650066446518 A 208,208 0 0,1 168.46012258012112,420.76650066446518 L 172.34780545857336,405.24600061335241 A 192,192 0 0,1 154.31714814869375,399.77646051514 L 159.70738580296927,384.71175547221162 A 176,176 0 0,0 193.17543649585636,393.09506575380146 L 195.52312408714215,377.26824159436495 A 160,160 0 0,1 180.12317121547778,374.20500051112708 L 184.01085409393,358.68450046001431 A 144,144 0 0,0 197.87081167842794,361.44141743492844 L 200.21849926971373,345.614593275492 A 128,128 0 0,1 158.6612176862723,331.88592183658943 L 166.20356547548826,317.77518160701578 A 112,112 0 0,1 147.94795217367172,305.57717077662653 L 178.3988298135267,268.47266901521516 A 64,64 0 0,0 206.51421939096778,281.77025794580675 L 209.63566454322583,266.07769345935503 A 48,48 0 0,1 192.33262881505911,258.91054139052221 L 201.22175254337273,245.60702759368147 A 32,32 0 0,0 206.75413016431713,248.56414504036118 L 209.81559762323786,241.17310878027089" />
  <type>Circular</type>
</svg>