<?xml version="1.0" encoding="utf-8" standalone="no"?>
<!DOCTYPE svg PUBLIC "-//W3C//DTD SVG 1.1//EN" "http://www.w3.org/Graphics/SVG/1.1/DTD/svg11.dtd"[]>
<svg width="436" height="436" version="1.1" xmlns="http://www.w3.org/2000/svg">
  <title>27 cells diameter theta maze</title>
  <g fill="none" stroke="#000000" stroke-width="2" stroke-linecap="square">
    <path d="M 202.02943725152286,235.97056274847714 A 24,24 0 1,1 219,243" />
    <path d="M 182.04481869954853,203.6926627053964 A 40,40 0 0,1 219,179" />
    <path d="M 234.3073372946036,182.04481869954853 A 40,40 0 0,1 203.6926627053964,255.95518130045147" />
    <path d="M 182.04481869954853,234.3073372946036 A 40,40 0 0,1 179,219" />
    <path d="M 258.59797974644664,179.40202025355333 A 56,56 0 0,1 275,219" />
    <path d="M 258.59797974644664,258.59797974644664 A 56,56 0 0,1 167.26274617936795,240.43027221244506" />
    <path d="M 163,219 A 56,56 0 0,1 197.56972778755494,167.26274617936795" />
    <path d="M 204.95349681483873,148.3834598109674 A 72,72 0 0,1 219,147" />
    <path d="M 233.04650318516124,148.3834598109674 A 72,72 0 0,1 259.00105677741135,159.13418791421674" />
    <path d="M 269.91168824543144,168.08831175456857 A 72,72 0 0,1 278.86581208578326,178.99894322258865" />
    <path d="M 289.61654018903261,204.95349681483876 A 72,72 0 0,1 246.55320713028647,285.51932634081265" />
    <path d="M 233.04650318516127,289.61654018903261 A 72,72 0 0,1 219,291" />
    <path d="M 204.95349681483876,289.61654018903261 A 72,72 0 0,1 178.99894322258865,278.86581208578326" />
    <path d="M 168.08831175456859,269.91168824543144 A 72,72 0 0,1 148.3834598109674,204.95349681483876" />
    <path d="M 152.48067365918735,191.44679286971353 A 72,72 0 0,1 178.99894322258865,159.13418791421674" />
    <path d="M 156.7746032555838,156.77460325558383 A 88,88 0 0,1 281.22539674441617,156.77460325558383" />
    <path d="M 300.30139886099323,185.3238579518721 A 88,88 0 0,1 305.30910467548426,236.16794833741929" />
    <path d="M 300.30139886099323,252.6761420481279 A 88,88 0 0,1 292.169325882624,267.89018050572497" />
    <path d="M 252.6761420481279,300.30139886099323 A 88,88 0 0,1 236.16794833741932,305.30910467548426" />
    <path d="M 219,307 A 88,88 0 0,1 185.32385795187213,300.30139886099323" />
    <path d="M 170.10981949427503,292.169325882624 A 88,88 0 0,1 131,219.00000000000003" />
    <path d="M 179.20092303403061,122.91652861882621 A 104,104 0 0,1 219,115" />
    <path d="M 276.77930423403865,132.5271603205353 A 104,104 0 0,1 292.53910524340097,145.46089475659906" />
    <path d="M 305.4728396794647,161.22069576596135 A 104,104 0 0,1 321.001669161936,198.71060651032266" />
    <path d="M 321.001669161936,239.28939348967734 A 104,104 0 0,1 315.08347138117381,258.79907696596933" />
    <path d="M 305.47283967946476,276.77930423403859 A 104,104 0 0,1 292.53910524340097,292.53910524340097" />
    <path d="M 239.28939348967737,321.001669161936 A 104,104 0 0,1 198.71060651032266,321.001669161936" />
    <path d="M 179.20092303403067,315.08347138117381 A 104,104 0 0,1 161.22069576596141,305.47283967946476" />
    <path d="M 116.99833083806404,239.28939348967737 A 104,104 0 0,1 122.91652861882619,179.20092303403064" />
    <path d="M 132.52716032053527,161.22069576596141 A 104,104 0 0,1 145.46089475659903,145.46089475659909" />
    <path d="M 219,99 A 120,120 0 0,1 336.69423364838764,242.41083864193539" />
    <path d="M 303.85281374238571,303.85281374238571 A 120,120 0 0,1 285.66842796235227,318.77635347630542" />
    <path d="M 264.9220118838108,329.86554390135439 A 120,120 0 0,1 195.58916135806459,336.69423364838764" />
    <path d="M 152.33157203764779,318.77635347630547 A 120,120 0 0,1 119.22364652369457,285.66842796235227" />
    <path d="M 108.13445609864561,264.92201188381085 A 120,120 0 0,1 101.30576635161235,242.41083864193544" />
    <path d="M 101.30576635161235,195.58916135806462 A 120,120 0 0,1 108.1344560986456,173.0779881161892" />
    <path d="M 119.22364652369454,152.33157203764779 A 120,120 0 0,1 152.33157203764773,119.22364652369457" />
    <path d="M 173.07798811618915,108.13445609864561 A 120,120 0 0,1 195.58916135806456,101.30576635161236" />
    <path d="M 192.46771620580648,85.613201865160676 A 136,136 0 0,1 283.10995620833569,99.058708048623714" />
    <path d="M 294.55755169066589,105.92013272685385 A 136,136 0 0,1 349.14388565958041,179.52128389339313" />
    <path d="M 352.38679813483935,192.46771620580654 A 136,136 0 0,1 352.38679813483935,245.53228379419343" />
    <path d="M 349.14388565958041,258.47871610660684 A 136,136 0 0,1 344.647616421535,271.0449468016522" />
    <path d="M 338.94129195137629,283.10995620833569 A 136,136 0 0,1 258.4787161066069,349.14388565958041" />
    <path d="M 245.53228379419349,352.3867981348393 A 136,136 0 0,1 219.00000000000003,355" />
    <path d="M 205.66966891517976,354.34512282741878 A 136,136 0 0,1 143.44244830933414,332.07986727314619" />
    <path d="M 132.72251335374423,324.12942165733227 A 136,136 0 0,1 105.92013272685384,294.55755169066589" />
    <path d="M 99.058708048623728,283.10995620833569 A 136,136 0 0,1 88.8561143404196,258.4787161066069" />
    <path d="M 85.613201865160676,245.53228379419349 A 136,136 0 0,1 85.613201865160647,192.46771620580654" />
    <path d="M 88.8561143404196,179.52128389339316 A 136,136 0 0,1 113.87057834266778,132.72251335374421" />
    <path d="M 122.83347775862951,122.83347775862956 A 136,136 0 0,1 132.72251335374415,113.87057834266783" />
    <path d="M 143.44244830933411,105.92013272685385 A 136,136 0 0,1 179.5212838933931,88.8561143404196" />
    <path d="M 233.8986053300932,67.731921545826083 A 152,152 0 0,1 303.44667541897957,92.616618930013118" />
    <path d="M 315.42777919287414,101.50241108886398 A 152,152 0 0,1 336.497588911136,122.57222080712587" />
    <path d="M 345.38338106998685,134.55332458102046 A 152,152 0 0,1 353.05203218094994,147.34769600244835" />
    <path d="M 364.45493103129576,174.87672905732174 A 152,152 0 0,1 368.079362621291,189.34627105354849" />
    <path d="M 371,219 A 152,152 0 0,1 345.38338106998691,303.44667541897951" />
    <path d="M 326.48023074035524,326.48023074035518 A 152,152 0 0,1 315.42777919287414,336.497588911136" />
    <path d="M 303.44667541897951,345.38338106998685 A 152,152 0 0,1 290.65230399755166,353.05203218094994" />
    <path d="M 277.16788171949366,359.42968894171554 A 152,152 0 0,1 248.65372894645154,368.079362621291" />
    <path d="M 204.1013946699068,370.26807845417392 A 152,152 0 0,1 189.34627105354849,368.079362621291" />
    <path d="M 174.87672905732177,364.45493103129576 A 152,152 0 0,1 147.34769600244835,353.05203218094994" />
    <path d="M 101.50241108886402,315.42777919287414 A 152,152 0 0,1 92.616618930013118,303.44667541897951" />
    <path d="M 84.947967819050064,290.65230399755171 A 152,152 0 0,1 78.57031105828446,277.16788171949372" />
    <path d="M 73.545068968704243,263.12327094267829 A 152,152 0 0,1 69.920637378708989,248.65372894645157" />
    <path d="M 69.92063737870896,189.34627105354849 A 152,152 0 0,1 73.545068968704243,174.87672905732177" />
    <path d="M 122.57222080712582,101.50241108886404 A 152,152 0 0,1 134.55332458102046,92.616618930013118" />
    <path d="M 174.87672905732171,73.545068968704271 A 152,152 0 0,1 189.34627105354844,69.920637378708989" />
    <path d="M 235.46687957536619,51.808965919070914 A 168,168 0 0,1 267.76782577874968,58.234023596988919" />
    <path d="M 283.29081663733507,63.788238538103826 A 168,168 0 0,1 312.33579914729319,79.3131051331724" />
    <path d="M 337.79393923934,100.20606076066001 A 168,168 0 0,1 358.68689486682763,125.66420085270683" />
    <path d="M 367.16277241052364,139.80534821323238 A 168,168 0 0,1 374.21176146189617,154.70918336266493" />
    <path d="M 386.19103408092906,202.53312042463378 A 168,168 0 0,1 298.19465178676762,367.16277241052364" />
    <path d="M 283.29081663733507,374.21176146189617 A 168,168 0 0,1 235.46687957536622,386.19103408092906" />
    <path d="M 219.00000000000003,387 A 168,168 0 0,1 170.23217422125038,379.76597640301111" />
    <path d="M 154.70918336266493,374.21176146189617 A 168,168 0 0,1 139.80534821323241,367.16277241052364" />
    <path d="M 112.42192826050759,348.86575616493985 A 168,168 0 0,1 63.788238538103855,283.29081663733518" />
    <path d="M 51.808965919070914,202.53312042463392 A 168,168 0 0,1 63.788238538103855,154.70918336266487" />
    <path d="M 79.313105133172371,125.66420085270688 A 168,168 0 0,1 100.20606076066,100.20606076066004" />
    <path d="M 112.42192826050749,89.134243835060261 A 168,168 0 0,1 125.66420085270683,79.3131051331724" />
    <path d="M 186.22482590129039,54.2280728922573 A 168,168 0 0,1 202.53312042463384,51.808965919070914" />
    <path d="M 219,35 A 184,184 0 0,1 289.41375155517653,49.006166017923249" />
    <path d="M 321.22492287560681,66.009591336331681 A 184,184 0 0,1 361.23392341874359,102.27163571388923" />
    <path d="M 371.99040866366829,116.77507712439318 A 184,184 0 0,1 395.0770217747264,165.58761938517893" />
    <path d="M 399.46449159419444,183.1033807490324 A 184,184 0 0,1 402.11398970768425,200.96484617936082" />
    <path d="M 403,219 A 184,184 0 0,1 402.11398970768425,237.03515382063915" />
    <path d="M 395.0770217747264,272.412380614821 A 184,184 0 0,1 381.27351264009735,305.73699957598359" />
    <path d="M 349.10764773832477,349.10764773832477 A 184,184 0 0,1 321.22492287560681,371.99040866366835" />
    <path d="M 305.73699957598359,381.27351264009729 A 184,184 0 0,1 289.41375155517653,388.99383398207675" />
    <path d="M 237.03515382063918,402.11398970768425 A 184,184 0 0,1 148.58624844482353,388.99383398207681" />
    <path d="M 102.27163571388927,361.23392341874364 A 184,184 0 0,1 56.726487359902706,305.73699957598365" />
    <path d="M 49.006166017923277,289.41375155517665 A 184,184 0 0,1 38.535508405805615,254.89661925096766" />
    <path d="M 35.886010292315774,237.03515382063912 A 184,184 0 0,1 35.886010292315774,200.96484617936093" />
    <path d="M 42.922978225273539,165.58761938517898 A 184,184 0 0,1 56.726487359902677,132.26300042401647" />
    <path d="M 88.892352261675228,88.892352261675285 A 184,184 0 0,1 183.10338074903231,38.535508405805615" />
    <path d="M 295.53668647301794,34.224093497742643 A 200,200 0 0,1 345.87865683272912,64.3979093274526" />
    <path d="M 373.60209067254738,92.1213431672709 A 200,200 0 0,1 385.29392246050907,107.88595339607954" />
    <path d="M 395.384252869671,124.72065263480044 A 200,200 0 0,1 415.1570560806461,179.98193559677435" />
    <path d="M 418.03694533443934,199.39657193408783 A 200,200 0 0,1 419,219" />
    <path d="M 418.03694533443934,238.60342806591214 A 200,200 0 0,1 410.38806714644181,277.05693545089241" />
    <path d="M 395.384252869671,313.27934736519956 A 200,200 0 0,1 373.60209067254743,345.87865683272906" />
    <path d="M 345.87865683272912,373.60209067254743 A 200,200 0 0,1 313.27934736519956,395.38425286967095" />
    <path d="M 295.536686473018,403.77590650225738 A 200,200 0 0,1 219.00000000000003,419" />
    <path d="M 179.98193559677432,415.1570560806461 A 200,200 0 0,1 124.72065263480047,395.384252869671" />
    <path d="M 107.88595339607961,385.29392246050907 A 200,200 0 0,1 64.39790932745268,345.87865683272918" />
    <path d="M 42.615747130329027,313.27934736519956 A 200,200 0 0,1 19.963054665560634,238.60342806591208" />
    <path d="M 19,219.00000000000003 A 200,200 0 0,1 22.8429439193539,179.98193559677435" />
    <path d="M 27.611932853558216,160.94306454910759 A 200,200 0 0,1 52.706077539490906,107.88595339607963" />
    <path d="M 77.578643762690461,77.578643762690518 A 200,200 0 0,1 124.72065263480042,42.615747130329027" />
    <path d="M 142.46331352698192,34.2240934977427 A 200,200 0 0,1 199.39657193408789,19.963054665560634" />
    <path d="M 240.1717023111851,4.0400990388054652 A 216,216 0 1,1 219,3" />
  </g>
  <g fill="none" stroke="#000000" stroke-width="2" stroke-linecap="butt">
    <line x1="219" y1="19" x2="219" y2="83" />
    <line x1="219" y1="99" x2="219" y2="115" />
    <line x1="219" y1="147" x2="219" y2="179" />
    <line x1="240.1717023111851" y1="4.0400990388054652" x2="238.60342806591211" y2="19.963054665560605" />
    <line x1="258.01806440322565" y1="22.8429439193539" x2="254.8966192509676" y2="38.535508405805615" />
    <line x1="239.28939348967734" y1="116.99833083806404" x2="236.16794833741929" y2="132.69089532451574" />
    <line x1="281.70149028696386" y1="12.300887481842892" x2="277.05693545089247" y2="27.611932853558244" />
    <line x1="272.41238061482107" y1="42.922978225273567" x2="267.76782577874968" y2="58.234023596988919" />
    <line x1="295.53668647301794" y1="34.224093497742643" x2="289.41375155517653" y2="49.006166017923249" />
    <line x1="283.29081663733507" y1="63.788238538103826" x2="277.16788171949366" y2="78.5703110582844" />
    <line x1="271.0449468016522" y1="93.352383578465009" x2="258.79907696596933" y2="122.91652861882618" />
    <line x1="246.55320713028647" y1="152.48067365918735" x2="234.3073372946036" y2="182.04481869954853" />
    <line x1="313.27934736519956" y1="42.615747130329" x2="305.73699957598353" y2="56.726487359902677" />
    <line x1="321.22492287560681" y1="66.009591336331681" x2="312.33579914729319" y2="79.3131051331724" />
    <line x1="303.44667541897957" y1="92.616618930013118" x2="294.55755169066589" y2="105.92013272685385" />
    <line x1="267.89018050572497" y1="145.83067411737602" x2="259.00105677741135" y2="159.13418791421674" />
    <line x1="325.57807173949243" y1="89.134243835060175" x2="315.42777919287414" y2="101.50241108886398" />
    <line x1="371.73506473629425" y1="66.264935263705723" x2="349.10764773832477" y2="88.892352261675256" />
    <line x1="292.53910524340097" y1="145.46089475659903" x2="281.22539674441617" y2="156.77460325558383" />
    <line x1="269.91168824543144" y1="168.08831175456857" x2="258.59797974644664" y2="179.40202025355333" />
    <line x1="373.60209067254743" y1="92.121343167270908" x2="361.23392341874364" y2="102.27163571388923" />
    <line x1="336.497588911136" y1="122.57222080712589" x2="324.12942165733222" y2="132.72251335374421" />
    <line x1="371.99040866366829" y1="116.77507712439318" x2="345.38338106998685" y2="134.55332458102043" />
    <line x1="305.4728396794647" y1="161.22069576596135" x2="278.86581208578326" y2="178.99894322258865" />
    <line x1="395.384252869671" y1="124.72065263480044" x2="381.27351264009729" y2="132.26300042401641" />
    <line x1="374.21176146189617" y1="154.7091833626649" x2="344.64761642153496" y2="166.9550531983478" />
    <line x1="300.30139886099323" y1="185.3238579518721" x2="270.73725382063208" y2="197.56972778755497" />
    <line x1="395.0770217747264" y1="165.58761938517893" x2="364.45493103129576" y2="174.87672905732171" />
    <line x1="399.46449159419438" y1="183.1033807490324" x2="352.38679813483935" y2="192.46771620580654" />
    <line x1="418.03694533443934" y1="199.39657193408783" x2="402.11398970768425" y2="200.96484617936082" />
    <line x1="386.19103408092906" y1="202.53312042463378" x2="370.26807845417392" y2="204.10139466990677" />
    <line x1="435" y1="219" x2="419" y2="219" />
    <line x1="403" y1="219" x2="387" y2="219" />
    <line x1="371" y1="219" x2="355" y2="219" />
    <line x1="339" y1="219" x2="307" y2="219" />
    <line x1="418.03694533443939" y1="238.60342806591214" x2="402.11398970768425" y2="237.03515382063915" />
    <line x1="399.46449159419438" y1="254.8966192509676" x2="383.77192710774273" y2="251.77517409870953" />
    <line x1="410.38806714644181" y1="277.05693545089241" x2="395.0770217747264" y2="272.412380614821" />
    <line x1="418.55797902243796" y1="301.6596213908594" x2="403.77590650225738" y2="295.53668647301794" />
    <line x1="359.4296889417156" y1="277.16788171949361" x2="300.30139886099323" y2="252.6761420481279" />
    <line x1="285.51932634081265" y1="246.55320713028647" x2="255.95518130045147" y2="234.3073372946036" />
    <line x1="395.384252869671" y1="313.27934736519956" x2="381.27351264009735" y2="305.73699957598359" />
    <line x1="371.9904086636684" y1="321.22492287560675" x2="358.68689486682763" y2="312.33579914729313" />
    <line x1="332.07986727314619" y1="294.55755169066583" x2="305.47283967946476" y2="276.77930423403859" />
    <line x1="292.169325882624" y1="267.89018050572497" x2="278.86581208578326" y2="259.00105677741135" />
    <line x1="373.60209067254743" y1="345.87865683272906" x2="361.23392341874364" y2="335.72836428611072" />
    <line x1="348.86575616493985" y1="325.57807173949243" x2="324.12942165733227" y2="305.27748664625574" />
    <line x1="371.73506473629425" y1="371.73506473629425" x2="349.10764773832477" y2="349.10764773832477" />
    <line x1="292.53910524340097" y1="292.53910524340097" x2="281.22539674441617" y2="281.22539674441617" />
    <line x1="315.42777919287414" y1="336.497588911136" x2="305.2774866462558" y2="324.12942165733222" />
    <line x1="330.11404660392043" y1="385.29392246050907" x2="321.22492287560681" y2="371.99040866366835" />
    <line x1="285.66842796235227" y1="318.77635347630542" x2="259.00105677741135" y2="278.86581208578326" />
    <line x1="305.73699957598359" y1="381.27351264009729" x2="290.65230399755166" y2="353.05203218094994" />
    <line x1="295.536686473018" y1="403.77590650225738" x2="289.41375155517653" y2="388.99383398207675" />
    <line x1="271.0449468016522" y1="344.64761642153496" x2="252.6761420481279" y2="300.30139886099323" />
    <line x1="272.41238061482107" y1="395.0770217747264" x2="267.76782577874968" y2="379.76597640301111" />
    <line x1="258.01806440322571" y1="415.1570560806461" x2="251.77517409870961" y2="383.77192710774273" />
    <line x1="248.65372894645154" y1="368.079362621291" x2="245.53228379419349" y2="352.38679813483935" />
    <line x1="239.28939348967737" y1="321.001669161936" x2="233.04650318516127" y2="289.61654018903261" />
    <line x1="235.46687957536622" y1="386.19103408092906" x2="233.89860533009323" y2="370.26807845417392" />
    <line x1="219.00000000000003" y1="403" x2="219.00000000000003" y2="355" />
    <line x1="219" y1="291" x2="219" y2="275" />
    <line x1="219" y1="259" x2="219" y2="243" />
    <line x1="197.82829768881493" y1="433.95990096119453" x2="200.96484617936085" y2="402.11398970768425" />
    <line x1="204.1013946699068" y1="370.268078454174" x2="205.66966891517976" y2="354.34512282741878" />
    <line x1="192.46771620580654" y1="352.38679813483935" x2="195.58916135806459" y2="336.69423364838764" />
    <line x1="201.83205166258071" y1="305.30910467548426" x2="204.95349681483876" y2="289.61654018903261" />
    <line x1="170.23217422125038" y1="379.76597640301111" x2="174.87672905732177" y2="364.45493103129576" />
    <line x1="173.07798811618923" y1="329.86554390135444" x2="185.3238579518721" y2="300.30139886099323" />
    <line x1="124.72065263480047" y1="395.384252869671" x2="147.34769600244835" y2="353.05203218094994" />
    <line x1="107.88595339607961" y1="385.29392246050907" x2="152.33157203764776" y2="318.77635347630547" />
    <line x1="170.10981949427503" y1="292.169325882624" x2="178.99894322258865" y2="278.86581208578326" />
    <line x1="112.4219282605076" y1="348.86575616493985" x2="132.72251335374426" y2="324.12942165733227" />
    <line x1="100.20606076066002" y1="337.79393923934003" x2="111.51976925964479" y2="326.48023074035524" />
    <line x1="134.14718625761429" y1="303.85281374238571" x2="145.46089475659906" y2="292.53910524340097" />
    <line x1="179.40202025355336" y1="258.59797974644664" x2="202.02943725152286" y2="235.97056274847714" />
    <line x1="64.39790932745268" y1="345.87865683272918" x2="76.766076581256442" y2="335.72836428611083" />
    <line x1="39.402563742650216" y1="339.00317033223405" x2="52.706077539490963" y2="330.11404660392043" />
    <line x1="92.616618930013118" y1="303.44667541897957" x2="105.92013272685385" y2="294.55755169066589" />
    <line x1="119.22364652369457" y1="285.66842796235227" x2="145.83067411737602" y2="267.89018050572497" />
    <line x1="42.615747130329" y1="313.27934736519956" x2="56.726487359902706" y2="305.73699957598359" />
    <line x1="84.947967819050064" y1="290.65230399755166" x2="99.058708048623728" y2="283.10995620833569" />
    <line x1="49.006166017923277" y1="289.41375155517665" x2="63.788238538103855" y2="283.29081663733518" />
    <line x1="93.352383578465037" y1="271.04494680165226" x2="122.91652861882621" y2="258.79907696596939" />
    <line x1="167.26274617936795" y1="240.43027221244506" x2="182.04481869954856" y2="234.3073372946036" />
    <line x1="58.234023596988919" y1="267.76782577874968" x2="88.8561143404196" y2="258.4787161066069" />
    <line x1="38.535508405805615" y1="254.89661925096766" x2="69.920637378708989" y2="248.65372894645157" />
    <line x1="101.30576635161236" y1="242.41083864193544" x2="116.99833083806405" y2="239.28939348967737" />
    <line x1="19.963054665560605" y1="238.60342806591208" x2="35.886010292315774" y2="237.03515382063912" />
    <line x1="51.808965919070914" y1="235.46687957536616" x2="83.654877172581223" y2="232.33033108482022" />
    <line x1="3" y1="219.00000000000003" x2="19" y2="219.00000000000003" />
    <line x1="35" y1="219.00000000000003" x2="99" y2="219.00000000000003" />
    <line x1="147" y1="219" x2="163" y2="219" />
    <line x1="51.808965919070914" y1="202.53312042463389" x2="67.731921545826054" y2="204.10139466990688" />
    <line x1="22.8429439193539" y1="179.98193559677435" x2="54.228072892257273" y2="186.22482590129044" />
    <line x1="69.920637378708989" y1="189.34627105354849" x2="85.613201865160647" y2="192.46771620580654" />
    <line x1="116.99833083806404" y1="198.71060651032266" x2="148.3834598109674" y2="204.95349681483876" />
    <line x1="27.611932853558216" y1="160.94306454910759" x2="42.922978225273567" y2="165.58761938517898" />
    <line x1="73.545068968704243" y1="174.87672905732177" x2="88.8561143404196" y2="179.52128389339316" />
    <line x1="63.788238538103855" y1="154.70918336266487" x2="78.570311058284432" y2="160.83211828050634" />
    <line x1="108.1344560986456" y1="173.0779881161892" x2="122.91652861882619" y2="179.20092303403064" />
    <line x1="137.69860113900677" y1="185.32385795187207" x2="152.48067365918735" y2="191.44679286971353" />
    <line x1="167.26274617936795" y1="197.56972778755497" x2="182.04481869954853" y2="203.6926627053964" />
    <line x1="56.726487359902677" y1="132.26300042401644" x2="99.058708048623714" y2="154.89004379166431" />
    <line x1="52.706077539490906" y1="107.88595339607963" x2="66.009591336331624" y2="116.77507712439326" />
    <line x1="79.313105133172371" y1="125.66420085270688" x2="92.61661893001309" y2="134.55332458102052" />
    <line x1="105.92013272685382" y1="143.44244830933417" x2="119.22364652369454" y2="152.33157203764779" />
    <line x1="132.52716032053527" y1="161.22069576596141" x2="159.13418791421674" y2="178.99894322258865" />
    <line x1="52.029742073648833" y1="81.971050620652562" x2="89.1342438350602" y2="112.42192826050754" />
    <line x1="101.502411088864" y1="122.57222080712587" x2="113.87057834266778" y2="132.72251335374421" />
    <line x1="77.578643762690461" y1="77.578643762690518" x2="88.892352261675228" y2="88.892352261675285" />
    <line x1="100.20606076066" y1="100.20606076066005" x2="122.83347775862951" y2="122.83347775862956" />
    <line x1="134.14718625761429" y1="134.14718625761432" x2="145.46089475659903" y2="145.46089475659909" />
    <line x1="122.57222080712582" y1="101.50241108886402" x2="132.72251335374415" y2="113.87057834266781" />
    <line x1="125.66420085270684" y1="79.3131051331724" x2="134.55332458102046" y2="92.616618930013118" />
    <line x1="143.44244830933411" y1="105.92013272685385" x2="152.33157203764773" y2="119.22364652369457" />
    <line x1="161.22069576596138" y1="132.5271603205353" x2="170.109819494275" y2="145.83067411737602" />
    <line x1="132.26300042401638" y1="56.726487359902706" x2="154.89004379166428" y2="99.058708048623743" />
    <line x1="136.34037860914049" y1="19.442020977562123" x2="142.46331352698192" y2="34.2240934977427" />
    <line x1="154.70918336266482" y1="63.788238538103855" x2="166.95505319834771" y2="93.352383578465037" />
    <line x1="173.07798811618915" y1="108.13445609864561" x2="179.20092303403061" y2="122.91652861882621" />
    <line x1="185.32385795187204" y1="137.69860113900677" x2="197.56972778755494" y2="167.26274617936795" />
    <line x1="165.5876193851789" y1="42.922978225273567" x2="174.87672905732171" y2="73.545068968704271" />
    <line x1="189.34627105354844" y1="69.920637378708989" x2="192.46771620580648" y2="85.613201865160676" />
    <line x1="199.39657193408789" y1="19.963054665560605" x2="204.1013946699068" y2="67.731921545826054" />
  </g>
  <path fill="none" stroke="#ff0000" stroke-width="2" stroke-linecap="square" stroke-linejoin="round" d="M 229.59861765472229,3.2601814596827694 L 229.20607626010295,11.25054510932415 A 208,208 0 0,0 208.79392373989703,11.25054510932415 L 211.9342548968518,75.17345430645517 A 144,144 0 0,0 197.87081167842783,76.558582565071561 L 195.523124087142,60.731758405635048 A 160,160 0 0,0 180.12317121547773,63.794999488872975 L 176.23548833702552,48.274499437760284 A 176,176 0 0,1 193.17543649585622,44.904934246198565 L 190.82774890457043,29.078110086762081 A 192,192 0 0,0 136.90942206138575,45.434055720298915 L 130.06854056650121,30.970227030323827 A 208,208 0 0,0 64.882165926168511,79.315737391820193 L 88.5926019375272,100.80562394692477 A 176,176 0 0,1 128.51791702199296,68.039764639952125 L 144.96920483617606,95.48708015996084 A 144,144 0 0,0 133.21930015308962,103.33811546678712 L 142.75048902496855,116.18943597047743 A 128,128 0 0,0 124.15825595456523,133.04045377958164 L 100.44781994320654,111.55056722447706 A 160,160 0 0,0 90.48679496309677,123.68811128121074 L 103.33811546678709,133.21930015308965 A 144,144 0 0,0 95.4870801599608,144.96920483617612 L 68.0397646399521,128.51791702199301 A 176,176 0 0,1 77.635474459406424,114.15692240933181 L 51.93283345202579,95.094544665573963 A 208,208 0 0,0 17.233499335534844,168.46012258012115 L 48.274499437760255,176.23548833702557 A 176,176 0 0,1 59.897884410273974,143.75030355627035 L 88.825541790224179,157.43206654603938 A 144,144 0 0,0 83.417654613645,170.48786111152037 L 68.352949570716646,165.09762345724488 A 160,160 0 0,0 60.731758405635048,195.52312408714209 L 76.558582565071532,197.87081167842788 A 144,144 0 0,0 75.17345430645517,211.93425489685185 L 43.211999707889646,210.36408931837448 A 176,176 0 0,1 44.904934246198565,193.1754364958563 L 29.078110086762052,190.82774890457051 A 192,192 0 0,0 27.231272408606912,228.42099347086426 L 11.25054510932415,229.20607626010295 A 208,208 0 0,0 40.59244911994341,325.93337079219015 L 54.316106879947768,317.70772688509862 A 192,192 0 0,0 64.784153955716164,333.37426646254715 L 51.932833452025818,342.90545533442611 A 208,208 0 0,0 112.06662920780991,397.40755088005665 L 144.96920483617609,342.51291984003922 A 144,144 0 0,0 184.01085409393,358.68450046001431 L 180.12317121547778,374.20500051112708 A 160,160 0 0,0 211.14917210761317,378.80727299282762 L 212.71933768609054,346.8458183942621 A 128,128 0 0,0 250.1014630276178,343.16400040890164 L 253.98914590607,358.68450046001431 A 144,144 0 0,0 280.56793345396062,349.17445820977582 L 287.40881494884513,363.63828689975094 A 160,160 0 0,1 242.47687591285788,377.26824159436495 L 240.12918832157209,361.44141743492844 A 144,144 0 0,1 226.06574510314817,362.82654569354486 L 227.63591068162558,394.78800029211038 A 176,176 0 0,0 244.82456350414367,393.09506575380146 L 247.17225109542946,408.92188991323792 A 192,192 0 0,1 209.5790065291358,410.76872759139314 L 208.79392373989711,426.74945489067585 A 208,208 0 0,0 307.93145943349867,407.02977296967623 L 301.09057793861416,392.56594427970111 A 192,192 0 0,0 317.70772688509857,383.68389312005223 L 309.48208297800704,369.96023536004788 A 176,176 0 0,0 349.40739806247279,337.19437605307525 L 373.11783407383149,358.68426260817984 A 208,208 0 0,0 407.02977296967623,307.93145943349862 L 392.56594427970117,301.0905779386141 A 192,192 0 0,0 399.77646051514,283.68285185130622 L 414.84116555806833,289.07308950558172 A 208,208 0 0,0 426.74945489067585,229.20607626010295 L 410.76872759139309,228.42099347086426 A 192,192 0 0,0 410.76872759139309,209.57900652913571 L 394.78800029211038,210.3640893183744 A 176,176 0 0,0 393.09506575380146,193.17543649585633 L 361.44141743492844,197.87081167842791 A 144,144 0 0,1 362.82654569354486,211.9342548968518 L 378.80727299282762,211.14917210761311 A 160,160 0 0,1 347.51320503690317,314.31188871878931 L 334.66188453321286,304.78069984691041 A 144,144 0 0,0 349.17445820977582,280.56793345396056 L 334.71062951980076,273.72705195907611 A 128,128 0 0,1 331.88592183658943,279.33878231372773 L 303.66444137744207,264.2540867352958 A 96,96 0 0,1 293.20900352282274,279.90175527970996 L 280.84083626901895,269.75146273309161 A 80,80 0 0,1 269.75146273309161,280.84083626901895 L 290.05204782632831,305.57717077662653 A 112,112 0 0,0 305.57717077662653,290.05204782632825 L 317.94533803043032,300.20234037294659 A 128,128 0 0,1 279.33878231372773,331.88592183658943 L 256.71173894607983,289.55370114786842 A 80,80 0 0,1 242.222774180357,295.5552268585767 L 237.5782193442856,280.24418148686135 A 64,64 0 0,0 272.21405518736293,254.55649491325454 L 258.91054139052216,245.66737118494089 A 48,48 0 0,1 192.33262881505911,258.91054139052221 L 201.22175254337273,245.60702759368147 A 32,32 0 0,0 206.75413016431713,248.56414504036118 L 209.81559762323786,241.17310878027089" />
  <type>Circular</type>
</svg>