<?xml version="1.0" encoding="utf-8" standalone="no"?>
<!DOCTYPE svg PUBLIC "-//W3C//DTD SVG 1.1//EN" "http://www.w3.org/Graphics/SVG/1.1/DTD/svg11.dtd"[]>
<svg width="436" height="436" version="1.1" xmlns="http://www.w3.org/2000/svg">
  <title>27 cells diameter theta maze</title>
  <g fill="none" stroke="#000000" stroke-width="2" stroke-linecap="square">
    <path d="M 202.02943725152286,235.97056274847714 A 24,24 0 1,1 219,243" />
    <path d="M 190.7157287525381,190.7157287525381 A 40,40 0 0,1 259,219" />
    <path d="M 255.95518130045147,234.3073372946036 A 40,40 0 0,1 182.04481869954853,234.3073372946036" />
    <path d="M 179,219 A 40,40 0 0,1 182.04481869954853,203.6926627053964" />
    <path d="M 219,163 A 56,56 0 0,1 258.59797974644664,179.40202025355333" />
    <path d="M 270.73725382063208,197.56972778755497 A 56,56 0 0,1 240.43027221244503,270.73725382063208" />
    <path d="M 179.40202025355336,258.59797974644664 A 56,56 0 0,1 163,219" />
    <path d="M 167.26274617936795,197.56972778755497 A 56,56 0 0,1 197.56972778755494,167.26274617936795" />
    <path d="M 204.95349681483873,148.3834598109674 A 72,72 0 0,1 233.04650318516124,148.3834598109674" />
    <path d="M 259.00105677741135,159.13418791421674 A 72,72 0 0,1 289.61654018903261,204.95349681483876" />
    <path d="M 291,219 A 72,72 0 0,1 233.04650318516127,289.61654018903261" />
    <path d="M 219,291 A 72,72 0 0,1 204.95349681483876,289.61654018903261" />
    <path d="M 191.44679286971353,285.51932634081265 A 72,72 0 0,1 168.08831175456859,269.91168824543144" />
    <path d="M 159.13418791421674,259.00105677741135 A 72,72 0 0,1 152.48067365918737,246.5532071302865" />
    <path d="M 148.3834598109674,233.04650318516127 A 72,72 0 0,1 148.3834598109674,204.95349681483876" />
    <path d="M 152.48067365918735,191.44679286971353 A 72,72 0 0,1 159.13418791421674,178.99894322258865" />
    <path d="M 178.99894322258865,159.13418791421674 A 72,72 0 0,1 191.44679286971348,152.48067365918737" />
    <path d="M 145.830674117376,170.10981949427503 A 88,88 0 0,1 267.89018050572497,145.83067411737602" />
    <path d="M 281.22539674441617,156.77460325558383 A 88,88 0 0,1 300.30139886099323,185.3238579518721" />
    <path d="M 305.30910467548426,236.16794833741929 A 88,88 0 0,1 267.89018050572497,292.169325882624" />
    <path d="M 252.6761420481279,300.30139886099323 A 88,88 0 0,1 185.32385795187213,300.30139886099323" />
    <path d="M 170.10981949427503,292.169325882624 A 88,88 0 0,1 156.77460325558383,281.22539674441617" />
    <path d="M 145.83067411737602,267.89018050572497 A 88,88 0 0,1 137.69860113900677,185.32385795187207" />
    <path d="M 122.91652861882619,179.20092303403064 A 104,104 0 0,1 219,115" />
    <path d="M 239.28939348967734,116.99833083806404 A 104,104 0 0,1 258.79907696596933,122.91652861882618" />
    <path d="M 292.53910524340097,145.46089475659906 A 104,104 0 0,1 321.001669161936,239.28939348967734" />
    <path d="M 305.47283967946476,276.77930423403859 A 104,104 0 0,1 258.79907696596933,315.08347138117381" />
    <path d="M 198.71060651032266,321.001669161936 A 104,104 0 0,1 179.20092303403067,315.08347138117381" />
    <path d="M 145.46089475659909,292.53910524340097 A 104,104 0 0,1 132.5271603205353,276.77930423403865" />
    <path d="M 122.91652861882621,258.79907696596939 A 104,104 0 0,1 116.99833083806404,198.71060651032266" />
    <path d="M 173.07798811618915,108.13445609864561 A 120,120 0 0,1 242.41083864193539,101.30576635161235" />
    <path d="M 318.77635347630542,152.33157203764773 A 120,120 0 0,1 339,219" />
    <path d="M 336.69423364838764,242.41083864193539 A 120,120 0 0,1 318.77635347630542,285.66842796235221" />
    <path d="M 285.66842796235227,318.77635347630542 A 120,120 0 0,1 195.58916135806459,336.69423364838764" />
    <path d="M 173.07798811618926,329.86554390135439 A 120,120 0 0,1 134.14718625761429,303.85281374238571" />
    <path d="M 99,219.00000000000003 A 120,120 0 0,1 108.1344560986456,173.0779881161892" />
    <path d="M 134.14718625761429,134.14718625761432 A 120,120 0 0,1 152.33157203764773,119.22364652369457" />
    <path d="M 192.46771620580648,85.613201865160676 A 136,136 0 0,1 283.10995620833569,99.058708048623714" />
    <path d="M 305.2774866462558,113.87057834266777 A 136,136 0 0,1 315.16652224137044,122.83347775862953" />
    <path d="M 324.12942165733222,132.72251335374421 A 136,136 0 0,1 344.64761642153496,166.9550531983478" />
    <path d="M 349.14388565958041,179.52128389339313 A 136,136 0 0,1 354.34512282741878,205.66966891517973" />
    <path d="M 354.34512282741878,232.33033108482024 A 136,136 0 0,1 349.14388565958041,258.47871610660684" />
    <path d="M 344.647616421535,271.0449468016522 A 136,136 0 0,1 338.94129195137629,283.10995620833569" />
    <path d="M 332.07986727314619,294.55755169066589 A 136,136 0 0,1 324.12942165733227,305.27748664625574" />
    <path d="M 315.16652224137044,315.16652224137044 A 136,136 0 0,1 271.0449468016522,344.64761642153496" />
    <path d="M 258.4787161066069,349.14388565958041 A 136,136 0 0,1 205.66966891517976,354.34512282741878" />
    <path d="M 192.46771620580654,352.38679813483935 A 136,136 0 0,1 93.352383578465037,271.04494680165226" />
    <path d="M 88.8561143404196,258.4787161066069 A 136,136 0 0,1 83,219.00000000000003" />
    <path d="M 83.654877172581223,205.66966891517984 A 136,136 0 0,1 85.613201865160647,192.46771620580654" />
    <path d="M 88.8561143404196,179.52128389339316 A 136,136 0 0,1 122.83347775862951,122.83347775862956" />
    <path d="M 132.72251335374415,113.87057834266783 A 136,136 0 0,1 143.44244830933411,105.92013272685385" />
    <path d="M 154.89004379166428,99.058708048623743 A 136,136 0 0,1 179.5212838933931,88.8561143404196" />
    <path d="M 248.65372894645151,69.92063737870896 A 152,152 0 0,1 315.42777919287414,101.50241108886398" />
    <path d="M 326.48023074035524,111.51976925964478 A 152,152 0 0,1 353.05203218094994,147.34769600244835" />
    <path d="M 359.4296889417156,160.83211828050634 A 152,152 0 0,1 364.45493103129576,174.87672905732174" />
    <path d="M 370.26807845417392,204.10139466990677 A 152,152 0 0,1 371,219" />
    <path d="M 368.079362621291,248.65372894645148 A 152,152 0 0,1 359.4296889417156,277.16788171949361" />
    <path d="M 336.49758891113606,315.42777919287408 A 152,152 0 0,1 326.48023074035524,326.48023074035518" />
    <path d="M 315.42777919287414,336.497588911136 A 152,152 0 0,1 290.65230399755166,353.05203218094994" />
    <path d="M 248.65372894645154,368.079362621291 A 152,152 0 0,1 160.83211828050636,359.4296889417156" />
    <path d="M 147.34769600244835,353.05203218094994 A 152,152 0 0,1 134.55332458102049,345.38338106998691" />
    <path d="M 111.51976925964479,326.48023074035524 A 152,152 0 0,1 78.57031105828446,277.16788171949372" />
    <path d="M 67,219.00000000000003 A 152,152 0 0,1 67.731921545826054,204.10139466990688" />
    <path d="M 69.92063737870896,189.34627105354849 A 152,152 0 0,1 78.570311058284432,160.83211828050634" />
    <path d="M 111.51976925964475,111.5197692596448 A 152,152 0 0,1 122.57222080712582,101.50241108886404" />
    <path d="M 134.55332458102046,92.616618930013118 A 152,152 0 0,1 160.83211828050625,78.57031105828446" />
    <path d="M 174.87672905732171,73.545068968704271 A 152,152 0 0,1 189.34627105354844,69.920637378708989" />
    <path d="M 186.22482590129039,54.2280728922573 A 168,168 0 0,1 251.77517409870956,54.228072892257273" />
    <path d="M 348.8657561649398,112.42192826050756 A 168,168 0 0,1 374.21176146189617,154.70918336266493" />
    <path d="M 379.76597640301111,170.23217422125032 A 168,168 0 0,1 386.19103408092906,202.53312042463378" />
    <path d="M 386.19103408092906,235.46687957536619 A 168,168 0 0,1 383.77192710774273,251.77517409870953" />
    <path d="M 374.21176146189617,283.29081663733507 A 168,168 0 0,1 337.79393923934,337.79393923934" />
    <path d="M 325.57807173949243,348.86575616493985 A 168,168 0 0,1 283.29081663733507,374.21176146189617" />
    <path d="M 267.76782577874968,379.76597640301111 A 168,168 0 0,1 251.77517409870961,383.77192710774273" />
    <path d="M 219.00000000000003,387 A 168,168 0 0,1 139.80534821323241,367.16277241052364" />
    <path d="M 112.42192826050759,348.86575616493985 A 168,168 0 0,1 100.20606076066004,337.79393923934003" />
    <path d="M 63.788238538103855,283.29081663733518 A 168,168 0 0,1 58.234023596988919,267.76782577874968" />
    <path d="M 51.808965919070914,235.46687957536616 A 168,168 0 0,1 51,219.00000000000003" />
    <path d="M 58.234023596988891,170.23217422125038 A 168,168 0 0,1 70.837227589476356,139.80534821323241" />
    <path d="M 89.1342438350602,112.42192826050754 A 168,168 0 0,1 100.20606076066,100.20606076066004" />
    <path d="M 139.80534821323235,70.837227589476385 A 168,168 0 0,1 170.23217422125032,58.234023596988919" />
    <path d="M 254.8966192509676,38.535508405805587 A 184,184 0 0,1 349.10764773832477,88.892352261675256" />
    <path d="M 388.99383398207675,148.58624844482347 A 184,184 0 0,1 395.0770217747264,165.58761938517893" />
    <path d="M 403,219 A 184,184 0 0,1 402.11398970768425,237.03515382063915" />
    <path d="M 399.46449159419444,254.8966192509676 A 184,184 0 0,1 381.27351264009735,305.73699957598359" />
    <path d="M 371.99040866366835,321.22492287560675 A 184,184 0 0,1 305.73699957598359,381.27351264009729" />
    <path d="M 289.41375155517653,388.99383398207675 A 184,184 0 0,1 272.41238061482107,395.0770217747264" />
    <path d="M 254.89661925096766,399.46449159419438 A 184,184 0 0,1 200.96484617936085,402.11398970768425" />
    <path d="M 165.58761938517898,395.0770217747264 A 184,184 0 0,1 102.27163571388927,361.23392341874364" />
    <path d="M 88.892352261675285,349.10764773832477 A 184,184 0 0,1 76.76607658125647,335.72836428611083" />
    <path d="M 66.009591336331681,321.22492287560681 A 184,184 0 0,1 49.006166017923277,289.41375155517665" />
    <path d="M 42.922978225273567,272.41238061482107 A 184,184 0 0,1 38.535508405805615,254.89661925096766" />
    <path d="M 35.886010292315774,237.03515382063912 A 184,184 0 0,1 35.886010292315774,200.96484617936093" />
    <path d="M 38.535508405805587,183.1033807490324 A 184,184 0 0,1 42.922978225273539,165.58761938517898" />
    <path d="M 56.726487359902677,132.26300042401647 A 184,184 0 0,1 76.766076581256414,102.27163571388921" />
    <path d="M 88.892352261675228,88.892352261675285 A 184,184 0 0,1 132.26300042401638,56.726487359902706" />
    <path d="M 165.5876193851789,42.922978225273567 A 184,184 0 0,1 183.10338074903231,38.535508405805615" />
    <path d="M 238.60342806591211,19.963054665560634 A 200,200 0 0,1 277.05693545089247,27.611932853558216" />
    <path d="M 395.384252869671,124.72065263480044 A 200,200 0 0,1 415.1570560806461,179.98193559677435" />
    <path d="M 418.03694533443934,238.60342806591214 A 200,200 0 0,1 395.384252869671,313.27934736519956" />
    <path d="M 385.29392246050907,330.11404660392043 A 200,200 0 0,1 373.60209067254743,345.87865683272906" />
    <path d="M 360.42135623730951,360.42135623730951 A 200,200 0 0,1 345.87865683272912,373.60209067254743" />
    <path d="M 330.11404660392043,385.29392246050907 A 200,200 0 0,1 295.536686473018,403.77590650225738" />
    <path d="M 258.01806440322571,415.15705608064604 A 200,200 0 0,1 238.60342806591217,418.03694533443934" />
    <path d="M 219.00000000000003,419 A 200,200 0 0,1 142.46331352698206,403.77590650225738" />
    <path d="M 124.72065263480047,395.384252869671 A 200,200 0 0,1 107.88595339607961,385.29392246050907" />
    <path d="M 64.39790932745268,345.87865683272918 A 200,200 0 0,1 42.615747130329027,313.27934736519956" />
    <path d="M 22.842943919353928,258.01806440322571 A 200,200 0 0,1 19.963054665560634,238.60342806591208" />
    <path d="M 19.963054665560605,199.39657193408797 A 200,200 0 0,1 22.8429439193539,179.98193559677435" />
    <path d="M 34.224093497742672,142.463313526982 A 200,200 0 0,1 42.615747130329,124.72065263480049" />
    <path d="M 77.578643762690461,77.578643762690518 A 200,200 0 0,1 199.39657193408789,19.963054665560634" />
    <path d="M 240.1717023111851,4.0400990388054652 A 216,216 0 1,1 219,3" />
  </g>
  <g fill="none" stroke="#000000" stroke-width="2" stroke-linecap="butt">
    <line x1="219" y1="3" x2="219" y2="51" />
    <line x1="219" y1="67" x2="219" y2="83" />
    <line x1="219" y1="115" x2="219" y2="131" />
    <line x1="219" y1="147" x2="219" y2="163" />
    <line x1="238.60342806591211" y1="19.963054665560605" x2="237.03515382063915" y2="35.886010292315774" />
    <line x1="235.46687957536619" y1="51.808965919070914" x2="233.8986053300932" y2="67.731921545826054" />
    <line x1="254.8966192509676" y1="38.535508405805615" x2="251.77517409870956" y2="54.228072892257273" />
    <line x1="242.41083864193539" y1="101.30576635161235" x2="239.28939348967734" y2="116.99833083806404" />
    <line x1="277.05693545089247" y1="27.611932853558244" x2="272.41238061482107" y2="42.922978225273567" />
    <line x1="267.76782577874968" y1="58.234023596988919" x2="263.12327094267829" y2="73.545068968704271" />
    <line x1="301.6596213908594" y1="19.442020977562066" x2="295.53668647301794" y2="34.224093497742643" />
    <line x1="289.41375155517653" y1="49.006166017923249" x2="283.29081663733507" y2="63.788238538103826" />
    <line x1="271.0449468016522" y1="93.352383578465009" x2="258.79907696596933" y2="122.91652861882618" />
    <line x1="252.6761420481279" y1="137.69860113900677" x2="246.55320713028647" y2="152.48067365918735" />
    <line x1="313.27934736519956" y1="42.615747130329" x2="305.73699957598353" y2="56.726487359902677" />
    <line x1="298.19465178676762" y1="70.837227589476356" x2="283.10995620833569" y2="99.058708048623714" />
    <line x1="339.00317033223405" y1="39.402563742650216" x2="330.11404660392043" y2="52.706077539490963" />
    <line x1="321.22492287560681" y1="66.009591336331681" x2="312.33579914729319" y2="79.3131051331724" />
    <line x1="294.55755169066589" y1="105.92013272685385" x2="267.89018050572497" y2="145.83067411737602" />
    <line x1="345.87865683272912" y1="64.3979093274526" x2="335.72836428611078" y2="76.766076581256385" />
    <line x1="325.57807173949243" y1="89.134243835060175" x2="305.2774866462558" y2="113.87057834266777" />
    <line x1="360.42135623730951" y1="77.57864376269049" x2="326.48023074035518" y2="111.51976925964478" />
    <line x1="303.85281374238571" y1="134.14718625761429" x2="292.53910524340097" y2="145.46089475659903" />
    <line x1="281.22539674441617" y1="156.77460325558383" x2="258.59797974644664" y2="179.40202025355333" />
    <line x1="385.97025792635122" y1="81.971050620652562" x2="361.23392341874364" y2="102.27163571388923" />
    <line x1="336.497588911136" y1="122.57222080712589" x2="324.12942165733222" y2="132.72251335374421" />
    <line x1="385.29392246050907" y1="107.88595339607954" x2="358.68689486682763" y2="125.66420085270681" />
    <line x1="395.384252869671" y1="124.72065263480044" x2="367.16277241052364" y2="139.80534821323238" />
    <line x1="388.99383398207675" y1="148.58624844482347" x2="359.4296889417156" y2="160.83211828050634" />
    <line x1="315.08347138117381" y1="179.20092303403067" x2="300.30139886099323" y2="185.3238579518721" />
    <line x1="364.45493103129576" y1="174.87672905732171" x2="349.14388565958041" y2="179.52128389339313" />
    <line x1="415.1570560806461" y1="179.98193559677435" x2="368.079362621291" y2="189.34627105354849" />
    <line x1="305.30910467548426" y1="201.83205166258071" x2="289.61654018903261" y2="204.95349681483876" />
    <line x1="433.95990096119453" y1="197.82829768881487" x2="402.11398970768425" y2="200.96484617936082" />
    <line x1="370.26807845417392" y1="204.10139466990677" x2="354.34512282741878" y2="205.66966891517973" />
    <line x1="419" y1="219" x2="339" y2="219" />
    <line x1="323" y1="219" x2="291" y2="219" />
    <line x1="275" y1="219" x2="259" y2="219" />
    <line x1="418.03694533443939" y1="238.60342806591214" x2="402.11398970768425" y2="237.03515382063915" />
    <line x1="386.19103408092906" y1="235.46687957536619" x2="354.34512282741878" y2="232.33033108482024" />
    <line x1="399.46449159419438" y1="254.8966192509676" x2="383.77192710774273" y2="251.77517409870953" />
    <line x1="352.38679813483935" y1="245.53228379419343" x2="321.001669161936" y2="239.28939348967734" />
    <line x1="379.76597640301111" y1="267.76782577874962" x2="364.45493103129576" y2="263.12327094267823" />
    <line x1="374.21176146189617" y1="283.29081663733507" x2="344.64761642153496" y2="271.0449468016522" />
    <line x1="329.86554390135439" y1="264.9220118838108" x2="300.30139886099323" y2="252.6761420481279" />
    <line x1="409.49499309924465" y1="320.82169515441552" x2="395.384252869671" y2="313.27934736519956" />
    <line x1="353.05203218094994" y1="290.65230399755166" x2="338.94129195137629" y2="283.10995620833569" />
    <line x1="345.38338106998691" y1="303.44667541897951" x2="318.77635347630547" y2="285.66842796235221" />
    <line x1="373.60209067254743" y1="345.87865683272906" x2="361.23392341874364" y2="335.72836428611072" />
    <line x1="348.86575616493985" y1="325.57807173949243" x2="336.49758891113606" y2="315.42777919287408" />
    <line x1="371.73506473629425" y1="371.73506473629425" x2="360.42135623730951" y2="360.42135623730951" />
    <line x1="349.10764773832477" y1="349.10764773832477" x2="337.79393923934" y2="337.79393923934" />
    <line x1="326.48023074035524" y1="326.48023074035518" x2="292.53910524340097" y2="292.53910524340097" />
    <line x1="339.00317033223405" y1="398.59743625734978" x2="330.11404660392043" y2="385.29392246050907" />
    <line x1="312.33579914729319" y1="358.68689486682763" x2="303.44667541897957" y2="345.38338106998691" />
    <line x1="289.41375155517653" y1="388.99383398207675" x2="277.16788171949366" y2="359.4296889417156" />
    <line x1="258.79907696596933" y1="315.08347138117381" x2="246.55320713028647" y2="285.51932634081265" />
    <line x1="281.70149028696386" y1="425.69911251815711" x2="272.41238061482107" y2="395.0770217747264" />
    <line x1="267.76782577874968" y1="379.76597640301111" x2="258.4787161066069" y2="349.14388565958041" />
    <line x1="254.89661925096766" y1="399.46449159419438" x2="251.77517409870961" y2="383.77192710774273" />
    <line x1="245.53228379419349" y1="352.38679813483935" x2="239.28939348967737" y2="321.001669161936" />
    <line x1="240.17170231118513" y1="433.95990096119453" x2="238.60342806591217" y2="418.03694533443934" />
    <line x1="235.46687957536622" y1="386.19103408092906" x2="233.89860533009323" y2="370.26807845417392" />
    <line x1="219.00000000000003" y1="419" x2="219.00000000000003" y2="403" />
    <line x1="219.00000000000003" y1="387" x2="219.00000000000003" y2="371" />
    <line x1="219" y1="323" x2="219" y2="307" />
    <line x1="219" y1="291" x2="219" y2="243" />
    <line x1="183.1033807490324" y1="399.46449159419438" x2="186.22482590129044" y2="383.77192710774273" />
    <line x1="192.46771620580654" y1="352.38679813483935" x2="198.71060651032266" y2="321.001669161936" />
    <line x1="160.83211828050636" y1="359.4296889417156" x2="166.9550531983478" y2="344.647616421535" />
    <line x1="179.20092303403067" y1="315.08347138117381" x2="185.3238579518721" y2="300.30139886099323" />
    <line x1="191.44679286971353" y1="285.51932634081265" x2="203.6926627053964" y2="255.95518130045147" />
    <line x1="117.17830484558451" y1="409.49499309924465" x2="124.72065263480047" y2="395.384252869671" />
    <line x1="116.77507712439324" y1="371.9904086636684" x2="134.55332458102049" y2="345.38338106998691" />
    <line x1="152.33157203764776" y1="318.77635347630547" x2="170.10981949427503" y2="292.169325882624" />
    <line x1="81.971050620652619" y1="385.97025792635122" x2="102.27163571388927" y2="361.23392341874364" />
    <line x1="122.57222080712592" y1="336.49758891113606" x2="132.72251335374426" y2="324.12942165733227" />
    <line x1="66.264935263705752" y1="371.73506473629431" x2="88.892352261675256" y2="349.10764773832477" />
    <line x1="100.20606076066002" y1="337.79393923934003" x2="111.51976925964479" y2="326.48023074035524" />
    <line x1="122.83347775862954" y1="315.1665222413705" x2="134.14718625761429" y2="303.85281374238571" />
    <line x1="156.77460325558383" y1="281.22539674441617" x2="168.08831175456857" y2="269.91168824543144" />
    <line x1="64.39790932745268" y1="345.87865683272918" x2="89.134243835060232" y2="325.57807173949254" />
    <line x1="79.3131051331724" y1="312.33579914729319" x2="92.616618930013118" y2="303.44667541897957" />
    <line x1="119.22364652369457" y1="285.66842796235227" x2="159.13418791421674" y2="259.00105677741135" />
    <line x1="56.726487359902706" y1="305.73699957598359" x2="70.837227589476356" y2="298.19465178676762" />
    <line x1="19.442020977562123" y1="301.65962139085951" x2="49.006166017923277" y2="289.41375155517665" />
    <line x1="63.788238538103855" y1="283.29081663733518" x2="78.57031105828446" y2="277.16788171949372" />
    <line x1="93.352383578465037" y1="271.04494680165226" x2="122.91652861882621" y2="258.79907696596939" />
    <line x1="152.48067365918737" y1="246.5532071302865" x2="167.26274617936795" y2="240.43027221244506" />
    <line x1="12.300887481842892" y1="281.70149028696392" x2="27.611932853558244" y2="277.05693545089247" />
    <line x1="42.922978225273567" y1="272.41238061482107" x2="88.8561143404196" y2="258.4787161066069" />
    <line x1="22.842943919353928" y1="258.01806440322571" x2="69.920637378708989" y2="248.65372894645157" />
    <line x1="85.613201865160676" y1="245.53228379419349" x2="101.30576635161236" y2="242.41083864193544" />
    <line x1="19.963054665560605" y1="238.60342806591208" x2="35.886010292315774" y2="237.03515382063912" />
    <line x1="51.808965919070914" y1="235.46687957536616" x2="83.654877172581223" y2="232.33033108482022" />
    <line x1="3" y1="219.00000000000003" x2="35" y2="219.00000000000003" />
    <line x1="163" y1="219" x2="195" y2="219" />
    <line x1="35.886010292315774" y1="200.96484617936093" x2="83.654877172581223" y2="205.66966891517984" />
    <line x1="22.8429439193539" y1="179.98193559677435" x2="69.920637378708989" y2="189.34627105354849" />
    <line x1="85.613201865160647" y1="192.46771620580654" x2="116.99833083806404" y2="198.71060651032266" />
    <line x1="132.69089532451574" y1="201.83205166258071" x2="148.3834598109674" y2="204.95349681483876" />
    <line x1="12.300887481842864" y1="156.2985097130362" x2="27.611932853558216" y2="160.94306454910759" />
    <line x1="73.545068968704243" y1="174.87672905732177" x2="88.8561143404196" y2="179.52128389339316" />
    <line x1="34.224093497742672" y1="142.463313526982" x2="63.788238538103855" y2="154.70918336266487" />
    <line x1="122.91652861882619" y1="179.20092303403064" x2="137.69860113900677" y2="185.32385795187207" />
    <line x1="152.48067365918735" y1="191.44679286971353" x2="167.26274617936795" y2="197.56972778755497" />
    <line x1="42.615747130329" y1="124.72065263480049" x2="56.726487359902677" y2="132.26300042401644" />
    <line x1="70.837227589476356" y1="139.80534821323241" x2="99.058708048623714" y2="154.89004379166431" />
    <line x1="39.402563742650187" y1="98.996829667766008" x2="52.706077539490906" y2="107.88595339607963" />
    <line x1="66.009591336331624" y1="116.77507712439326" x2="92.61661893001309" y2="134.55332458102052" />
    <line x1="105.92013272685382" y1="143.44244830933417" x2="132.52716032053527" y2="161.22069576596141" />
    <line x1="145.83067411737602" y1="170.10981949427503" x2="159.13418791421674" y2="178.99894322258865" />
    <line x1="64.397909327452624" y1="92.121343167270879" x2="76.766076581256414" y2="102.27163571388921" />
    <line x1="89.1342438350602" y1="112.42192826050754" x2="101.502411088864" y2="122.57222080712587" />
    <line x1="88.892352261675228" y1="88.892352261675285" x2="100.20606076066" y2="100.20606076066005" />
    <line x1="111.51976925964475" y1="111.5197692596448" x2="122.83347775862951" y2="122.83347775862956" />
    <line x1="156.7746032555838" y1="156.77460325558383" x2="168.08831175456857" y2="168.08831175456859" />
    <line x1="179.40202025355333" y1="179.40202025355336" x2="190.7157287525381" y2="190.7157287525381" />
    <line x1="102.27163571388915" y1="76.766076581256442" x2="122.57222080712582" y2="101.50241108886402" />
    <line x1="125.66420085270684" y1="79.3131051331724" x2="152.33157203764773" y2="119.22364652369457" />
    <line x1="132.26300042401638" y1="56.726487359902706" x2="139.80534821323235" y2="70.837227589476385" />
    <line x1="142.46331352698192" y1="34.2240934977427" x2="148.58624844482335" y2="49.006166017923277" />
    <line x1="154.70918336266482" y1="63.788238538103855" x2="160.83211828050625" y2="78.57031105828446" />
    <line x1="166.95505319834771" y1="93.352383578465037" x2="173.07798811618915" y2="108.13445609864561" />
    <line x1="191.44679286971348" y1="152.48067365918737" x2="197.56972778755494" y2="167.26274617936795" />
    <line x1="160.9430645491075" y1="27.611932853558244" x2="165.5876193851789" y2="42.922978225273567" />
    <line x1="174.87672905732171" y1="73.545068968704271" x2="179.5212838933931" y2="88.8561143404196" />
    <line x1="183.10338074903231" y1="38.535508405805615" x2="189.34627105354844" y2="69.920637378708989" />
    <line x1="199.39657193408789" y1="19.963054665560605" x2="200.96484617936088" y2="35.886010292315774" />
    <line x1="202.53312042463384" y1="51.808965919070914" x2="204.1013946699068" y2="67.731921545826054" />
  </g>
  <path fill="none" stroke="#ff0000" stroke-width="2" stroke-linecap="square" stroke-linejoin="round" d="M 229.59861765472229,3.2601814596827694 L 229.20607626010295,11.25054510932415 A 208,208 0 0,1 289.07308950558178,23.158834441931674 L 283.68285185130628,38.22353948486 A 192,192 0 0,1 301.09057793861416,45.434055720298886 L 307.93145943349867,30.970227030323798 A 208,208 0 0,1 325.93337079219009,40.59244911994341 L 317.70772688509857,54.316106879947768 A 192,192 0 0,1 333.37426646254721,64.784153955716192 L 342.90545533442616,51.932833452025875 A 208,208 0 0,1 373.11783407383149,79.315737391820164 L 337.55218005679347,111.55056722447706 A 160,160 0 0,1 363.63828689975094,150.59118505115487 L 349.17445820977582,157.43206654603938 A 144,144 0 0,1 354.582345386355,170.48786111152032 L 339.51764034342665,175.87809876579584 A 128,128 0 0,0 295.24951097503146,116.18943597047745 L 304.78069984691041,103.33811546678713 A 144,144 0 0,0 293.03079516382394,95.487080159960811 L 284.80515125673236,109.21073791996517 A 128,128 0 0,0 279.33878231372768,106.11407816341055 L 264.2540867352958,134.33555862255793 A 96,96 0 0,0 228.40964547163782,123.4622662394691 L 229.97791971691078,107.53931061271395 A 112,112 0 0,0 166.20356547548823,120.22481839298426 L 158.66121768627227,106.11407816341058 A 128,128 0 0,0 153.19484874326759,109.21073791996518 L 144.96920483617606,95.48708015996084 A 144,144 0 0,1 170.48786111152032,83.417654613645 L 165.09762345724479,68.352949570716675 A 160,160 0 0,1 180.12317121547773,63.794999488872975 L 176.23548833702552,48.274499437760284 A 176,176 0 0,0 143.75030355627027,59.897884410274 L 136.90942206138575,45.434055720298915 A 192,192 0 0,0 76.737383931847859,90.060680669372488 L 64.882165926168511,79.315737391820193 A 208,208 0 0,0 51.93283345202579,95.094544665573963 L 64.7841539557161,104.62573353745289 A 192,192 0 0,0 54.316106879947739,120.29227311490148 L 40.592449119943382,112.06662920780993 A 208,208 0 0,0 23.158834441931646,148.92691049441834 L 38.22353948485997,154.31714814869383 A 192,192 0 0,0 32.753999386647536,172.34780545857336 L 17.233499335534844,168.46012258012115 A 208,208 0 0,0 11.25054510932415,208.79392373989714 L 27.231272408606884,209.5790065291358 A 192,192 0 0,1 29.078110086762052,190.82774890457051 L 76.558582565071532,197.87081167842788 A 144,144 0 0,1 79.315499539985666,184.01085409393002 L 94.835999591098371,187.89853697238223 A 128,128 0 0,1 106.11407816341055,158.66121768627232 L 120.22481839298423,166.20356547548829 A 112,112 0 0,0 111.82268239799259,186.48811614750025 L 127.13372776970795,191.13267098357164 A 96,96 0 0,0 134.33555862255793,264.2540867352958 L 106.11407816341057,279.33878231372773 A 128,128 0 0,0 120.05466196956971,300.20234037294665 L 132.4228292233735,290.05204782632836 A 112,112 0 0,0 147.94795217367172,305.57717077662653 L 158.09824472029004,293.20900352282274 A 96,96 0 0,1 144.79099647717729,279.90175527971 L 169.52733098478484,259.60117018647333 A 64,64 0 0,0 183.44350508674546,272.21405518736293 L 192.33262881505911,258.91054139052221 A 48,48 0 0,1 171.92230654064494,228.36433545677417 L 187.61487102709663,225.24289030451612 A 32,32 0 0,0 206.75413016431713,248.56414504036118 L 209.81559762323786,241.17310878027089" />
  <type>Circular</type>
</svg>