<?xml version="1.0" encoding="utf-8" standalone="no"?>
<!DOCTYPE svg PUBLIC "-//W3C//DTD SVG 1.1//EN" "http://www.w3.org/Graphics/SVG/1.1/DTD/svg11.dtd"[]>
<svg width="436" height="436" version="1.1" xmlns="http://www.w3.org/2000/svg">
  <title>27 cells diameter theta maze</title>
  <g fill="none" stroke="#000000" stroke-width="2" stroke-linecap="square">
    <path d="M 202.02943725152286,235.97056274847714 A 24,24 0 1,1 219,243" />
    <path d="M 203.69266270539637,182.04481869954856 A 40,40 0 0,1 255.95518130045147,203.6926627053964" />
    <path d="M 259,219 A 40,40 0 0,1 190.7157287525381,247.2842712474619" />
    <path d="M 182.04481869954853,234.3073372946036 A 40,40 0 0,1 190.7157287525381,190.7157287525381" />
    <path d="M 219,163 A 56,56 0 0,1 258.59797974644664,179.40202025355333" />
    <path d="M 270.73725382063208,197.56972778755497 A 56,56 0 0,1 275,219" />
    <path d="M 258.59797974644664,258.59797974644664 A 56,56 0 0,1 240.43027221244503,270.73725382063208" />
    <path d="M 219,275 A 56,56 0 0,1 197.569727787555,270.73725382063208" />
    <path d="M 163,219 A 56,56 0 0,1 197.56972778755494,167.26274617936795" />
    <path d="M 219,147 A 72,72 0 0,1 246.55320713028647,152.48067365918735" />
    <path d="M 259.00105677741135,159.13418791421674 A 72,72 0 0,1 278.86581208578326,178.99894322258865" />
    <path d="M 285.51932634081265,191.44679286971353 A 72,72 0 0,1 289.61654018903261,204.95349681483876" />
    <path d="M 291,219 A 72,72 0 0,1 269.91168824543144,269.91168824543144" />
    <path d="M 259.00105677741135,278.86581208578326 A 72,72 0 0,1 233.04650318516127,289.61654018903261" />
    <path d="M 204.95349681483876,289.61654018903261 A 72,72 0 0,1 168.08831175456859,269.91168824543144" />
    <path d="M 159.13418791421674,259.00105677741135 A 72,72 0 0,1 148.3834598109674,204.95349681483876" />
    <path d="M 152.48067365918735,191.44679286971353 A 72,72 0 0,1 178.99894322258865,159.13418791421674" />
    <path d="M 191.44679286971348,152.48067365918737 A 72,72 0 0,1 204.95349681483873,148.3834598109674" />
    <path d="M 201.83205166258068,132.69089532451574 A 88,88 0 0,1 219,131" />
    <path d="M 236.16794833741929,132.69089532451574 A 88,88 0 0,1 281.22539674441617,156.77460325558383" />
    <path d="M 292.169325882624,170.109819494275 A 88,88 0 0,1 305.30910467548426,201.83205166258071" />
    <path d="M 307,219 A 88,88 0 0,1 300.30139886099323,252.6761420481279" />
    <path d="M 292.169325882624,267.89018050572497 A 88,88 0 0,1 252.6761420481279,300.30139886099323" />
    <path d="M 236.16794833741932,305.30910467548426 A 88,88 0 0,1 201.83205166258071,305.30910467548426" />
    <path d="M 137.69860113900677,252.67614204812796 A 88,88 0 0,1 132.69089532451574,236.16794833741932" />
    <path d="M 131,219.00000000000003 A 88,88 0 0,1 132.69089532451574,201.83205166258071" />
    <path d="M 137.69860113900677,185.32385795187207 A 88,88 0 0,1 185.32385795187204,137.69860113900677" />
    <path d="M 239.28939348967734,116.99833083806404 A 104,104 0 0,1 276.77930423403865,132.5271603205353" />
    <path d="M 305.4728396794647,161.22069576596135 A 104,104 0 0,1 315.08347138117381,179.20092303403067" />
    <path d="M 321.001669161936,198.71060651032266 A 104,104 0 0,1 323,219" />
    <path d="M 321.001669161936,239.28939348967734 A 104,104 0 0,1 292.53910524340097,292.53910524340097" />
    <path d="M 219,323 A 104,104 0 0,1 179.20092303403067,315.08347138117381" />
    <path d="M 161.22069576596141,305.47283967946476 A 104,104 0 0,1 145.46089475659909,292.53910524340097" />
    <path d="M 122.91652861882621,258.79907696596939 A 104,104 0 0,1 145.46089475659903,145.46089475659909" />
    <path d="M 179.20092303403061,122.91652861882621 A 104,104 0 0,1 198.71060651032261,116.99833083806405" />
    <path d="M 219,99 A 120,120 0 0,1 242.41083864193539,101.30576635161235" />
    <path d="M 264.9220118838108,108.13445609864559 A 120,120 0 0,1 336.69423364838764,242.41083864193539" />
    <path d="M 329.86554390135439,264.92201188381074 A 120,120 0 0,1 318.77635347630542,285.66842796235221" />
    <path d="M 285.66842796235227,318.77635347630542 A 120,120 0 0,1 264.9220118838108,329.86554390135439" />
    <path d="M 242.41083864193544,336.69423364838764 A 120,120 0 0,1 195.58916135806459,336.69423364838764" />
    <path d="M 152.33157203764779,318.77635347630547 A 120,120 0 0,1 101.30576635161235,242.41083864193544" />
    <path d="M 99,219.00000000000003 A 120,120 0 0,1 101.30576635161235,195.58916135806462" />
    <path d="M 119.22364652369454,152.33157203764779 A 120,120 0 0,1 195.58916135806456,101.30576635161236" />
    <path d="M 205.66966891517978,83.654877172581223 A 136,136 0 0,1 219,83" />
    <path d="M 232.33033108482024,83.654877172581223 A 136,136 0 0,1 245.53228379419343,85.613201865160647" />
    <path d="M 258.4787161066069,88.8561143404196 A 136,136 0 0,1 283.10995620833569,99.058708048623714" />
    <path d="M 294.55755169066589,105.92013272685385 A 136,136 0 0,1 344.64761642153496,166.9550531983478" />
    <path d="M 349.14388565958041,179.52128389339313 A 136,136 0 0,1 338.94129195137629,283.10995620833569" />
    <path d="M 332.07986727314619,294.55755169066589 A 136,136 0 0,1 324.12942165733227,305.27748664625574" />
    <path d="M 315.16652224137044,315.16652224137044 A 136,136 0 0,1 283.10995620833569,338.94129195137629" />
    <path d="M 271.0449468016522,344.64761642153496 A 136,136 0 0,1 245.53228379419349,352.3867981348393" />
    <path d="M 232.33033108482027,354.34512282741878 A 136,136 0 0,1 219.00000000000003,355" />
    <path d="M 205.66966891517976,354.34512282741878 A 136,136 0 0,1 154.89004379166431,338.94129195137629" />
    <path d="M 132.72251335374423,324.12942165733227 A 136,136 0 0,1 122.83347775862956,315.16652224137044" />
    <path d="M 113.87057834266781,305.27748664625585 A 136,136 0 0,1 99.058708048623728,283.10995620833569" />
    <path d="M 88.8561143404196,258.4787161066069 A 136,136 0 0,1 83.654877172581223,205.66966891517984" />
    <path d="M 85.613201865160647,192.46771620580654 A 136,136 0 0,1 88.8561143404196,179.52128389339316" />
    <path d="M 93.352383578465009,166.95505319834777 A 136,136 0 0,1 132.72251335374415,113.87057834266783" />
    <path d="M 143.44244830933411,105.92013272685385 A 136,136 0 0,1 154.89004379166428,99.058708048623743" />
    <path d="M 166.95505319834771,93.352383578465037 A 136,136 0 0,1 179.5212838933931,88.8561143404196" />
    <path d="M 219,67 A 152,152 0 0,1 233.8986053300932,67.731921545826083" />
    <path d="M 248.65372894645151,69.92063737870896 A 152,152 0 0,1 277.16788171949366,78.5703110582844" />
    <path d="M 290.65230399755166,84.947967819050035 A 152,152 0 0,1 303.44667541897957,92.616618930013118" />
    <path d="M 364.45493103129576,174.87672905732174 A 152,152 0 0,1 370.26807845417392,204.10139466990677" />
    <path d="M 370.26807845417392,233.89860533009323 A 152,152 0 0,1 368.079362621291,248.65372894645148" />
    <path d="M 353.05203218094994,290.65230399755166 A 152,152 0 0,1 345.38338106998691,303.44667541897951" />
    <path d="M 336.49758891113606,315.42777919287408 A 152,152 0 0,1 326.48023074035524,326.48023074035518" />
    <path d="M 315.42777919287414,336.497588911136 A 152,152 0 0,1 303.44667541897951,345.38338106998685" />
    <path d="M 277.16788171949366,359.42968894171554 A 152,152 0 0,1 263.12327094267829,364.45493103129576" />
    <path d="M 219.00000000000003,371 A 152,152 0 0,1 204.1013946699068,370.26807845417392" />
    <path d="M 189.34627105354849,368.079362621291 A 152,152 0 0,1 174.87672905732177,364.45493103129576" />
    <path d="M 160.83211828050636,359.4296889417156 A 152,152 0 0,1 122.57222080712592,336.49758891113606" />
    <path d="M 111.51976925964479,326.48023074035524 A 152,152 0 0,1 84.947967819050064,290.65230399755171" />
    <path d="M 78.57031105828446,277.16788171949372 A 152,152 0 0,1 69.920637378708989,248.65372894645157" />
    <path d="M 67.731921545826083,233.89860533009318 A 152,152 0 0,1 69.92063737870896,189.34627105354849" />
    <path d="M 73.545068968704243,174.87672905732177 A 152,152 0 0,1 92.61661893001309,134.55332458102052" />
    <path d="M 111.51976925964475,111.5197692596448 A 152,152 0 0,1 122.57222080712582,101.50241108886404" />
    <path d="M 134.55332458102046,92.616618930013118 A 152,152 0 0,1 189.34627105354844,69.920637378708989" />
    <path d="M 186.22482590129039,54.2280728922573 A 168,168 0 0,1 219,51" />
    <path d="M 235.46687957536619,51.808965919070914 A 168,168 0 0,1 267.76782577874968,58.234023596988919" />
    <path d="M 283.29081663733507,63.788238538103826 A 168,168 0 0,1 298.19465178676762,70.837227589476356" />
    <path d="M 325.57807173949243,89.134243835060175 A 168,168 0 0,1 348.8657561649398,112.42192826050756" />
    <path d="M 358.68689486682763,125.66420085270683 A 168,168 0 0,1 367.16277241052364,139.80534821323238" />
    <path d="M 379.76597640301111,170.23217422125032 A 168,168 0 0,1 383.77192710774273,186.22482590129044" />
    <path d="M 386.19103408092906,202.53312042463378 A 168,168 0 0,1 387,219" />
    <path d="M 386.19103408092906,235.46687957536619 A 168,168 0 0,1 383.77192710774273,251.77517409870953" />
    <path d="M 379.76597640301111,267.76782577874962 A 168,168 0 0,1 367.16277241052364,298.19465178676762" />
    <path d="M 358.68689486682763,312.33579914729313 A 168,168 0 0,1 348.86575616493985,325.57807173949243" />
    <path d="M 337.79393923934,337.79393923934 A 168,168 0 0,1 325.57807173949243,348.86575616493985" />
    <path d="M 312.33579914729319,358.68689486682763 A 168,168 0 0,1 283.29081663733507,374.21176146189617" />
    <path d="M 235.46687957536622,386.19103408092906 A 168,168 0 0,1 219.00000000000003,387" />
    <path d="M 202.53312042463381,386.19103408092906 A 168,168 0 0,1 170.23217422125038,379.76597640301111" />
    <path d="M 139.80534821323241,367.16277241052364 A 168,168 0 0,1 58.234023596988919,267.76782577874968" />
    <path d="M 51.808965919070914,202.53312042463392 A 168,168 0 0,1 58.234023596988891,170.23217422125038" />
    <path d="M 63.788238538103855,154.70918336266487 A 168,168 0 0,1 70.837227589476356,139.80534821323241" />
    <path d="M 89.1342438350602,112.42192826050754 A 168,168 0 0,1 112.42192826050749,89.134243835060261" />
    <path d="M 139.80534821323235,70.837227589476385 A 168,168 0 0,1 170.23217422125032,58.234023596988919" />
    <path d="M 219,35 A 184,184 0 0,1 254.8966192509676,38.535508405805587" />
    <path d="M 272.41238061482107,42.922978225273567 A 184,184 0 0,1 289.41375155517653,49.006166017923249" />
    <path d="M 305.73699957598353,56.726487359902677 A 184,184 0 0,1 335.72836428611078,76.766076581256385" />
    <path d="M 349.10764773832477,88.892352261675256 A 184,184 0 0,1 371.99040866366829,116.77507712439318" />
    <path d="M 388.99383398207675,148.58624844482347 A 184,184 0 0,1 399.46449159419444,183.1033807490324" />
    <path d="M 402.11398970768425,200.96484617936082 A 184,184 0 0,1 402.11398970768425,237.03515382063915" />
    <path d="M 399.46449159419444,254.8966192509676 A 184,184 0 0,1 388.99383398207681,289.41375155517653" />
    <path d="M 381.27351264009735,305.73699957598359 A 184,184 0 0,1 289.41375155517653,388.99383398207675" />
    <path d="M 272.41238061482107,395.0770217747264 A 184,184 0 0,1 200.96484617936085,402.11398970768425" />
    <path d="M 183.1033807490324,399.46449159419444 A 184,184 0 0,1 76.76607658125647,335.72836428611083" />
    <path d="M 66.009591336331681,321.22492287560681 A 184,184 0 0,1 56.726487359902706,305.73699957598365" />
    <path d="M 35.886010292315774,237.03515382063912 A 184,184 0 0,1 38.535508405805587,183.1033807490324" />
    <path d="M 88.892352261675228,88.892352261675285 A 184,184 0 0,1 116.77507712439319,66.009591336331681" />
    <path d="M 148.58624844482335,49.006166017923277 A 184,184 0 0,1 200.96484617936088,35.886010292315774" />
    <path d="M 199.39657193408789,19.963054665560634 A 200,200 0 0,1 277.05693545089247,27.611932853558216" />
    <path d="M 295.53668647301794,34.224093497742643 A 200,200 0 0,1 313.27934736519956,42.615747130329" />
    <path d="M 330.11404660392043,52.706077539490963 A 200,200 0 0,1 373.60209067254738,92.1213431672709" />
    <path d="M 403.77590650225738,142.46331352698203 A 200,200 0 0,1 410.38806714644181,160.94306454910753" />
    <path d="M 415.1570560806461,179.98193559677435 A 200,200 0 0,1 418.03694533443934,238.60342806591214" />
    <path d="M 415.1570560806461,258.01806440322565 A 200,200 0 0,1 410.38806714644181,277.05693545089241" />
    <path d="M 395.384252869671,313.27934736519956 A 200,200 0 0,1 385.29392246050907,330.11404660392043" />
    <path d="M 373.60209067254743,345.87865683272906 A 200,200 0 0,1 360.42135623730951,360.42135623730951" />
    <path d="M 330.11404660392043,385.29392246050907 A 200,200 0 0,1 219.00000000000003,419" />
    <path d="M 142.46331352698206,403.77590650225738 A 200,200 0 0,1 124.72065263480047,395.384252869671" />
    <path d="M 107.88595339607961,385.29392246050907 A 200,200 0 0,1 77.578643762690518,360.42135623730951" />
    <path d="M 64.39790932745268,345.87865683272918 A 200,200 0 0,1 52.706077539490934,330.11404660392043" />
    <path d="M 22.842943919353928,258.01806440322571 A 200,200 0 0,1 19.963054665560634,238.60342806591208" />
    <path d="M 19.963054665560605,199.39657193408797 A 200,200 0 0,1 22.8429439193539,179.98193559677435" />
    <path d="M 34.224093497742672,142.463313526982 A 200,200 0 0,1 64.397909327452624,92.121343167270879" />
    <path d="M 77.578643762690461,77.578643762690518 A 200,200 0 0,1 142.46331352698192,34.2240934977427" />
    <path d="M 160.9430645491075,27.611932853558244 A 200,200 0 0,1 179.98193559677426,22.842943919353928" />
    <path d="M 240.1717023111851,4.0400990388054652 A 216,216 0 1,1 219,3" />
  </g>
  <g fill="none" stroke="#000000" stroke-width="2" stroke-linecap="butt">
    <line x1="219" y1="83" x2="219" y2="115" />
    <line x1="219" y1="131" x2="219" y2="163" />
    <line x1="237.03515382063915" y1="35.886010292315774" x2="232.33033108482024" y2="83.654877172581223" />
    <line x1="261.1395095554837" y1="7.1503794329022412" x2="258.01806440322565" y2="22.8429439193539" />
    <line x1="251.77517409870956" y1="54.228072892257273" x2="248.65372894645151" y2="69.920637378708989" />
    <line x1="242.41083864193539" y1="101.30576635161235" x2="239.28939348967734" y2="116.99833083806404" />
    <line x1="272.41238061482107" y1="42.922978225273567" x2="267.76782577874968" y2="58.234023596988919" />
    <line x1="301.6596213908594" y1="19.442020977562066" x2="295.53668647301794" y2="34.224093497742643" />
    <line x1="277.16788171949366" y1="78.5703110582844" x2="264.9220118838108" y2="108.13445609864559" />
    <line x1="252.6761420481279" y1="137.69860113900677" x2="246.55320713028647" y2="152.48067365918735" />
    <line x1="313.27934736519956" y1="42.615747130329" x2="290.65230399755166" y2="84.947967819050035" />
    <line x1="321.22492287560681" y1="66.009591336331681" x2="312.33579914729319" y2="79.3131051331724" />
    <line x1="303.44667541897957" y1="92.616618930013118" x2="294.55755169066589" y2="105.92013272685385" />
    <line x1="276.77930423403865" y1="132.5271603205353" x2="267.89018050572497" y2="145.83067411737602" />
    <line x1="356.02894937934741" y1="52.029742073648805" x2="345.87865683272912" y2="64.3979093274526" />
    <line x1="325.57807173949243" y1="89.134243835060175" x2="315.42777919287414" y2="101.50241108886398" />
    <line x1="360.42135623730951" y1="77.57864376269049" x2="337.79393923934" y2="100.20606076066001" />
    <line x1="326.48023074035518" y1="111.51976925964478" x2="315.16652224137044" y2="122.83347775862953" />
    <line x1="292.53910524340097" y1="145.46089475659903" x2="269.91168824543144" y2="168.08831175456857" />
    <line x1="247.2842712474619" y1="190.7157287525381" x2="235.97056274847714" y2="202.02943725152286" />
    <line x1="348.86575616493985" y1="112.42192826050756" x2="336.497588911136" y2="122.57222080712589" />
    <line x1="385.29392246050907" y1="107.88595339607954" x2="358.68689486682763" y2="125.66420085270681" />
    <line x1="345.38338106998685" y1="134.55332458102043" x2="332.07986727314614" y2="143.44244830933408" />
    <line x1="305.4728396794647" y1="161.22069576596135" x2="292.169325882624" y2="170.109819494275" />
    <line x1="395.384252869671" y1="124.72065263480044" x2="353.05203218094994" y2="147.34769600244835" />
    <line x1="403.77590650225738" y1="142.46331352698203" x2="344.64761642153496" y2="166.9550531983478" />
    <line x1="329.86554390135439" y1="173.0779881161892" x2="315.08347138117381" y2="179.20092303403067" />
    <line x1="270.73725382063208" y1="197.56972778755497" x2="255.95518130045147" y2="203.6926627053964" />
    <line x1="395.0770217747264" y1="165.58761938517893" x2="379.76597640301111" y2="170.23217422125032" />
    <line x1="415.1570560806461" y1="179.98193559677435" x2="399.46449159419438" y2="183.1033807490324" />
    <line x1="383.77192710774273" y1="186.22482590129044" x2="368.079362621291" y2="189.34627105354849" />
    <line x1="321.001669161936" y1="198.71060651032266" x2="289.61654018903261" y2="204.95349681483876" />
    <line x1="418.03694533443934" y1="199.39657193408783" x2="402.11398970768425" y2="200.96484617936082" />
    <line x1="387" y1="219" x2="339" y2="219" />
    <line x1="291" y1="219" x2="275" y2="219" />
    <line x1="402.11398970768425" y1="237.03515382063915" x2="370.268078454174" y2="233.89860533009323" />
    <line x1="415.1570560806461" y1="258.01806440322565" x2="383.77192710774273" y2="251.77517409870953" />
    <line x1="395.0770217747264" y1="272.412380614821" x2="379.76597640301111" y2="267.76782577874962" />
    <line x1="364.45493103129576" y1="263.12327094267823" x2="349.14388565958041" y2="258.47871610660684" />
    <line x1="418.55797902243796" y1="301.6596213908594" x2="403.77590650225738" y2="295.53668647301794" />
    <line x1="374.21176146189617" y1="283.29081663733507" x2="359.4296889417156" y2="277.16788171949361" />
    <line x1="344.64761642153496" y1="271.0449468016522" x2="329.86554390135439" y2="264.9220118838108" />
    <line x1="300.30139886099323" y1="252.6761420481279" x2="285.51932634081265" y2="246.55320713028647" />
    <line x1="270.73725382063208" y1="240.43027221244503" x2="255.95518130045147" y2="234.3073372946036" />
    <line x1="395.384252869671" y1="313.27934736519956" x2="353.05203218094994" y2="290.65230399755166" />
    <line x1="332.07986727314619" y1="294.55755169066583" x2="318.77635347630547" y2="285.66842796235221" />
    <line x1="348.86575616493985" y1="325.57807173949243" x2="324.12942165733227" y2="305.27748664625574" />
    <line x1="371.73506473629425" y1="371.73506473629425" x2="360.42135623730951" y2="360.42135623730951" />
    <line x1="349.10764773832477" y1="349.10764773832477" x2="337.79393923934" y2="337.79393923934" />
    <line x1="326.48023074035524" y1="326.48023074035518" x2="292.53910524340097" y2="292.53910524340097" />
    <line x1="269.91168824543144" y1="269.91168824543144" x2="258.59797974644664" y2="258.59797974644664" />
    <line x1="345.87865683272912" y1="373.60209067254743" x2="335.72836428611078" y2="361.23392341874364" />
    <line x1="325.57807173949243" y1="348.86575616493985" x2="315.42777919287414" y2="336.497588911136" />
    <line x1="312.33579914729319" y1="358.68689486682763" x2="303.44667541897957" y2="345.38338106998691" />
    <line x1="294.55755169066589" y1="332.07986727314619" x2="276.77930423403865" y2="305.4728396794647" />
    <line x1="290.65230399755166" y1="353.05203218094994" x2="283.10995620833569" y2="338.94129195137629" />
    <line x1="283.29081663733507" y1="374.21176146189617" x2="271.0449468016522" y2="344.64761642153496" />
    <line x1="264.9220118838108" y1="329.86554390135439" x2="240.43027221244503" y2="270.73725382063208" />
    <line x1="267.76782577874968" y1="379.76597640301111" x2="263.12327094267829" y2="364.4549310312957" />
    <line x1="254.89661925096766" y1="399.46449159419438" x2="236.16794833741932" y2="305.30910467548426" />
    <line x1="235.46687957536622" y1="386.19103408092906" x2="233.89860533009323" y2="370.26807845417392" />
    <line x1="219.00000000000003" y1="419" x2="219.00000000000003" y2="403" />
    <line x1="219.00000000000003" y1="387" x2="219.00000000000003" y2="355" />
    <line x1="219.00000000000003" y1="339" x2="219" y2="323" />
    <line x1="219" y1="307" x2="219" y2="259" />
    <line x1="199.39657193408789" y1="418.03694533443939" x2="200.96484617936085" y2="402.11398970768425" />
    <line x1="202.53312042463381" y1="386.19103408092906" x2="205.66966891517976" y2="354.34512282741878" />
    <line x1="179.98193559677432" y1="415.1570560806461" x2="186.22482590129044" y2="383.77192710774273" />
    <line x1="189.34627105354849" y1="368.079362621291" x2="192.46771620580654" y2="352.38679813483935" />
    <line x1="201.83205166258071" y1="305.30910467548426" x2="204.95349681483876" y2="289.61654018903261" />
    <line x1="156.2985097130362" y1="425.69911251815711" x2="160.94306454910759" y2="410.38806714644181" />
    <line x1="136.34037860914063" y1="418.55797902243796" x2="142.46331352698206" y2="403.77590650225738" />
    <line x1="148.5862484448235" y1="388.99383398207681" x2="160.83211828050636" y2="359.4296889417156" />
    <line x1="166.9550531983478" y1="344.647616421535" x2="173.07798811618923" y2="329.86554390135444" />
    <line x1="179.20092303403067" y1="315.08347138117381" x2="185.3238579518721" y2="300.30139886099323" />
    <line x1="107.88595339607961" y1="385.29392246050907" x2="116.77507712439324" y2="371.9904086636684" />
    <line x1="134.55332458102049" y1="345.38338106998691" x2="152.33157203764776" y2="318.77635347630547" />
    <line x1="161.22069576596141" y1="305.47283967946476" x2="178.99894322258865" y2="278.86581208578326" />
    <line x1="122.57222080712592" y1="336.49758891113606" x2="132.72251335374426" y2="324.12942165733227" />
    <line x1="100.20606076066002" y1="337.79393923934003" x2="111.51976925964479" y2="326.48023074035524" />
    <line x1="134.14718625761429" y1="303.85281374238571" x2="156.77460325558383" y2="281.22539674441617" />
    <line x1="179.40202025355336" y1="258.59797974644664" x2="202.02943725152286" y2="235.97056274847714" />
    <line x1="64.39790932745268" y1="345.87865683272918" x2="76.766076581256442" y2="335.72836428611083" />
    <line x1="101.50241108886402" y1="315.4277791928742" x2="113.87057834266781" y2="305.27748664625585" />
    <line x1="66.009591336331681" y1="321.22492287560681" x2="79.3131051331724" y2="312.33579914729319" />
    <line x1="119.22364652369457" y1="285.66842796235227" x2="145.83067411737602" y2="267.89018050572497" />
    <line x1="28.505006900755347" y1="320.82169515441552" x2="42.615747130329" y2="313.27934736519956" />
    <line x1="19.442020977562123" y1="301.65962139085951" x2="49.006166017923277" y2="289.41375155517665" />
    <line x1="63.788238538103855" y1="283.29081663733518" x2="78.57031105828446" y2="277.16788171949372" />
    <line x1="93.352383578465037" y1="271.04494680165226" x2="108.13445609864561" y2="264.92201188381085" />
    <line x1="137.69860113900677" y1="252.67614204812796" x2="152.48067365918737" y2="246.5532071302865" />
    <line x1="167.26274617936795" y1="240.43027221244506" x2="182.04481869954856" y2="234.3073372946036" />
    <line x1="12.300887481842892" y1="281.70149028696392" x2="27.611932853558244" y2="277.05693545089247" />
    <line x1="42.922978225273567" y1="272.41238061482107" x2="58.234023596988919" y2="267.76782577874968" />
    <line x1="73.545068968704271" y1="263.12327094267829" x2="88.8561143404196" y2="258.4787161066069" />
    <line x1="22.842943919353928" y1="258.01806440322571" x2="69.920637378708989" y2="248.65372894645157" />
    <line x1="51.808965919070914" y1="235.46687957536616" x2="67.731921545826054" y2="233.89860533009318" />
    <line x1="3" y1="219.00000000000003" x2="19" y2="219.00000000000003" />
    <line x1="35" y1="219.00000000000003" x2="51" y2="219.00000000000003" />
    <line x1="83" y1="219.00000000000003" x2="147" y2="219" />
    <line x1="4.0400990388054652" y1="197.828297688815" x2="19.963054665560605" y2="199.39657193408797" />
    <line x1="35.886010292315774" y1="200.96484617936093" x2="51.808965919070914" y2="202.53312042463389" />
    <line x1="67.731921545826054" y1="204.10139466990688" x2="83.654877172581223" y2="205.66966891517984" />
    <line x1="22.8429439193539" y1="179.98193559677435" x2="38.535508405805615" y2="183.1033807490324" />
    <line x1="85.613201865160647" y1="192.46771620580654" x2="101.30576635161235" y2="195.58916135806462" />
    <line x1="27.611932853558216" y1="160.94306454910759" x2="73.545068968704243" y2="174.87672905732177" />
    <line x1="34.224093497742672" y1="142.463313526982" x2="63.788238538103855" y2="154.70918336266487" />
    <line x1="93.352383578465023" y1="166.95505319834777" x2="122.91652861882619" y2="179.20092303403064" />
    <line x1="167.26274617936795" y1="197.56972778755497" x2="182.04481869954853" y2="203.6926627053964" />
    <line x1="56.726487359902677" y1="132.26300042401644" x2="84.947967819050035" y2="147.34769600244837" />
    <line x1="66.009591336331624" y1="116.77507712439326" x2="92.61661893001309" y2="134.55332458102052" />
    <line x1="64.397909327452624" y1="92.121343167270879" x2="76.766076581256414" y2="102.27163571388921" />
    <line x1="89.1342438350602" y1="112.42192826050754" x2="113.87057834266778" y2="132.72251335374421" />
    <line x1="66.2649352637057" y1="66.26493526370578" x2="77.578643762690461" y2="77.578643762690518" />
    <line x1="88.892352261675228" y1="88.892352261675285" x2="100.20606076066" y2="100.20606076066005" />
    <line x1="111.51976925964475" y1="111.5197692596448" x2="122.83347775862951" y2="122.83347775862956" />
    <line x1="134.14718625761429" y1="134.14718625761432" x2="145.46089475659903" y2="145.46089475659909" />
    <line x1="168.08831175456857" y1="168.08831175456859" x2="179.40202025355333" y2="179.40202025355336" />
    <line x1="116.77507712439319" y1="66.009591336331681" x2="125.66420085270684" y2="79.3131051331724" />
    <line x1="134.55332458102046" y1="92.616618930013118" x2="143.44244830933411" y2="105.92013272685385" />
    <line x1="161.22069576596138" y1="132.5271603205353" x2="178.99894322258865" y2="159.13418791421674" />
    <line x1="124.72065263480042" y1="42.615747130329027" x2="132.26300042401638" y2="56.726487359902706" />
    <line x1="148.58624844482335" y1="49.006166017923277" x2="154.70918336266482" y2="63.788238538103855" />
    <line x1="160.83211828050625" y1="78.57031105828446" x2="166.95505319834771" y2="93.352383578465037" />
    <line x1="173.07798811618915" y1="108.13445609864561" x2="179.20092303403061" y2="122.91652861882621" />
    <line x1="197.56972778755494" y1="167.26274617936795" x2="203.69266270539637" y2="182.04481869954856" />
    <line x1="160.9430645491075" y1="27.611932853558244" x2="165.5876193851789" y2="42.922978225273567" />
    <line x1="176.86049044451619" y1="7.1503794329022412" x2="179.98193559677426" y2="22.842943919353928" />
    <line x1="183.10338074903231" y1="38.535508405805615" x2="189.34627105354844" y2="69.920637378708989" />
    <line x1="192.46771620580648" y1="85.613201865160676" x2="195.58916135806456" y2="101.30576635161236" />
    <line x1="198.71060651032261" y1="116.99833083806405" x2="204.95349681483873" y2="148.38345981096742" />
    <line x1="202.53312042463384" y1="51.808965919070914" x2="205.66966891517978" y2="83.654877172581223" />
  </g>
  <path fill="none" stroke="#ff0000" stroke-width="2" stroke-linecap="square" stroke-linejoin="round" d="M 229.59861765472229,3.2601814596827694 L 229.20607626010295,11.25054510932415 A 208,208 0 0,0 188.48006131328464,13.251285927325569 L 190.82774890457043,29.078110086762081 A 192,192 0 0,1 301.09057793861416,45.434055720298886 L 294.24969644372965,59.897884410273974 A 176,176 0 0,0 278.29261419703073,53.288244527788351 L 272.90237654275518,68.352949570716675 A 160,160 0 0,1 287.40881494884513,74.361713100249062 L 280.56793345396062,88.82554179022415 A 144,144 0 0,1 293.03079516382394,95.487080159960811 L 284.80515125673236,109.21073791996517 A 128,128 0 0,1 339.51764034342665,175.87809876579584 L 354.582345386355,170.48786111152032 A 144,144 0 0,1 362.82654569354486,211.9342548968518 L 378.80727299282762,211.14917210761311 A 160,160 0 0,0 377.26824159436495,195.52312408714212 L 393.09506575380146,193.17543649585633 A 176,176 0 0,1 394.78800029211038,227.63591068162558 L 362.82654569354486,226.0657451031482 A 144,144 0 0,1 358.68450046001431,253.98914590607 L 374.205000511127,257.87682878452222 A 160,160 0 0,1 369.64705042928335,272.90237654275518 L 354.582345386355,267.51213888847968 A 144,144 0 0,1 334.66188453321286,304.78069984691041 L 347.51320503690317,314.31188871878931 A 160,160 0 0,0 356.23657760004357,301.25643907091546 L 369.96023536004793,309.482082978007 A 176,176 0 0,1 349.40739806247279,337.19437605307525 L 337.55218005679342,326.44943277552295 A 160,160 0 0,1 326.44943277552295,337.55218005679342 L 315.70448949797071,325.6969620511141 A 144,144 0 0,1 293.03079516382394,342.51291984003916 L 301.25643907091546,356.23657760004352 A 160,160 0 0,1 287.40881494884513,363.63828689975094 L 273.72705195907611,334.71062951980076 A 128,128 0 0,1 256.1564386885712,341.4883629737227 L 242.222774180357,295.5552268585767 A 80,80 0 0,1 226.84137122636486,298.61477813377576 L 225.2730969810919,282.69182250702062 A 64,64 0 0,0 231.48578060903222,281.77025794580675 L 228.36433545677417,266.07769345935503 A 48,48 0 0,0 258.91054139052216,245.66737118494089 L 272.21405518736293,254.55649491325454 A 64,64 0 0,0 281.77025794580675,231.48578060903219 L 266.07769345935503,228.36433545677414 A 48,48 0 0,0 266.07769345935503,209.63566454322583 L 250.38512897290337,212.75710969548391 A 32,32 0 0,1 206.75413016431713,248.56414504036118 L 209.81559762323786,241.17310878027089" />
  <type>Circular</type>
</svg>