<?xml version="1.0" encoding="utf-8" standalone="no"?>
<!DOCTYPE svg PUBLIC "-//W3C//DTD SVG 1.1//EN" "http://www.w3.org/Graphics/SVG/1.1/DTD/svg11.dtd"[]>
<svg width="455" height="480.31397208144125" version="1.1" xmlns="http://www.w3.org/2000/svg">
  <title>40 by 25 delta maze</title>
  <g fill="none" stroke="#000000" stroke-width="2" stroke-linecap="round" stroke-linejoin="round">
    <line x1="13" y1="1.9999999999999911" x2="211" y2="1.9999999999999911" />
    <line x1="233" y1="1.9999999999999911" x2="453" y2="1.9999999999999911" />
    <line x1="46" y1="21.052558883257639" x2="90" y2="21.052558883257639" />
    <line x1="156" y1="21.052558883257639" x2="244" y2="21.052558883257639" />
    <line x1="310" y1="21.052558883257639" x2="332" y2="21.052558883257639" />
    <line x1="376" y1="21.052558883257639" x2="442" y2="21.052558883257639" />
    <line x1="123" y1="40.105117766515292" x2="167" y2="40.105117766515292" />
    <line x1="211" y1="40.105117766515292" x2="233" y2="40.105117766515292" />
    <line x1="299" y1="40.105117766515292" x2="321" y2="40.105117766515292" />
    <line x1="365" y1="40.105117766515292" x2="387" y2="40.105117766515292" />
    <line x1="90" y1="59.157676649772938" x2="112" y2="59.157676649772938" />
    <line x1="134" y1="59.157676649772938" x2="156" y2="59.157676649772938" />
    <line x1="244" y1="59.157676649772938" x2="266" y2="59.157676649772938" />
    <line x1="332" y1="59.157676649772938" x2="354" y2="59.157676649772938" />
    <line x1="35" y1="78.210235533030584" x2="57" y2="78.210235533030584" />
    <line x1="101" y1="78.210235533030584" x2="123" y2="78.210235533030584" />
    <line x1="167" y1="78.210235533030584" x2="189" y2="78.210235533030584" />
    <line x1="233" y1="78.210235533030584" x2="299" y2="78.210235533030584" />
    <line x1="321" y1="78.210235533030584" x2="343" y2="78.210235533030584" />
    <line x1="409" y1="78.210235533030584" x2="431" y2="78.210235533030584" />
    <line x1="90" y1="97.262794416288244" x2="134" y2="97.262794416288244" />
    <line x1="156" y1="97.262794416288244" x2="178" y2="97.262794416288244" />
    <line x1="266" y1="97.262794416288244" x2="288" y2="97.262794416288244" />
    <line x1="310" y1="97.262794416288244" x2="354" y2="97.262794416288244" />
    <line x1="420" y1="97.262794416288244" x2="442" y2="97.262794416288244" />
    <line x1="13" y1="116.31535329954589" x2="35" y2="116.31535329954589" />
    <line x1="79" y1="116.31535329954589" x2="123" y2="116.31535329954589" />
    <line x1="233" y1="116.31535329954589" x2="277" y2="116.31535329954589" />
    <line x1="299" y1="116.31535329954589" x2="343" y2="116.31535329954589" />
    <line x1="409" y1="116.31535329954589" x2="431" y2="116.31535329954589" />
    <line x1="178" y1="135.36791218280354" x2="200" y2="135.36791218280354" />
    <line x1="244" y1="135.36791218280354" x2="288" y2="135.36791218280354" />
    <line x1="332" y1="135.36791218280354" x2="354" y2="135.36791218280354" />
    <line x1="35" y1="154.4204710660612" x2="79" y2="154.4204710660612" />
    <line x1="189" y1="154.4204710660612" x2="211" y2="154.4204710660612" />
    <line x1="277" y1="154.4204710660612" x2="299" y2="154.4204710660612" />
    <line x1="321" y1="154.4204710660612" x2="343" y2="154.4204710660612" />
    <line x1="24" y1="173.47302994931883" x2="46" y2="173.47302994931883" />
    <line x1="68" y1="173.47302994931883" x2="112" y2="173.47302994931883" />
    <line x1="134" y1="173.47302994931883" x2="156" y2="173.47302994931883" />
    <line x1="266" y1="173.47302994931883" x2="288" y2="173.47302994931883" />
    <line x1="332" y1="173.47302994931883" x2="354" y2="173.47302994931883" />
    <line x1="398" y1="173.47302994931883" x2="420" y2="173.47302994931883" />
    <line x1="13" y1="192.52558883257649" x2="57" y2="192.52558883257649" />
    <line x1="101" y1="192.52558883257649" x2="123" y2="192.52558883257649" />
    <line x1="189" y1="192.52558883257649" x2="211" y2="192.52558883257649" />
    <line x1="233" y1="192.52558883257649" x2="255" y2="192.52558883257649" />
    <line x1="299" y1="192.52558883257649" x2="321" y2="192.52558883257649" />
    <line x1="46" y1="211.57814771583415" x2="90" y2="211.57814771583415" />
    <line x1="156" y1="211.57814771583415" x2="178" y2="211.57814771583415" />
    <line x1="200" y1="211.57814771583415" x2="244" y2="211.57814771583415" />
    <line x1="310" y1="211.57814771583415" x2="354" y2="211.57814771583415" />
    <line x1="420" y1="211.57814771583415" x2="442" y2="211.57814771583415" />
    <line x1="79" y1="230.63070659909178" x2="101" y2="230.63070659909178" />
    <line x1="123" y1="230.63070659909178" x2="167" y2="230.63070659909178" />
    <line x1="211" y1="230.63070659909178" x2="233" y2="230.63070659909178" />
    <line x1="321" y1="230.63070659909178" x2="343" y2="230.63070659909178" />
    <line x1="387" y1="230.63070659909178" x2="409" y2="230.63070659909178" />
    <line x1="46" y1="249.68326548234944" x2="68" y2="249.68326548234944" />
    <line x1="134" y1="249.68326548234944" x2="156" y2="249.68326548234944" />
    <line x1="200" y1="249.68326548234944" x2="266" y2="249.68326548234944" />
    <line x1="354" y1="249.68326548234944" x2="376" y2="249.68326548234944" />
    <line x1="35" y1="268.73582436560707" x2="79" y2="268.73582436560707" />
    <line x1="189" y1="268.73582436560707" x2="211" y2="268.73582436560707" />
    <line x1="233" y1="268.73582436560707" x2="255" y2="268.73582436560707" />
    <line x1="343" y1="268.73582436560707" x2="365" y2="268.73582436560707" />
    <line x1="387" y1="268.73582436560707" x2="409" y2="268.73582436560707" />
    <line x1="46" y1="287.78838324886476" x2="68" y2="287.78838324886476" />
    <line x1="244" y1="287.78838324886476" x2="266" y2="287.78838324886476" />
    <line x1="376" y1="287.78838324886476" x2="398" y2="287.78838324886476" />
    <line x1="35" y1="306.84094213212234" x2="101" y2="306.84094213212234" />
    <line x1="123" y1="306.84094213212234" x2="145" y2="306.84094213212234" />
    <line x1="211" y1="306.84094213212234" x2="277" y2="306.84094213212234" />
    <line x1="409" y1="306.84094213212234" x2="431" y2="306.84094213212234" />
    <line x1="2" y1="325.89350101538" x2="24" y2="325.89350101538" />
    <line x1="112" y1="325.89350101538" x2="134" y2="325.89350101538" />
    <line x1="310" y1="325.89350101538" x2="332" y2="325.89350101538" />
    <line x1="420" y1="325.89350101538" x2="442" y2="325.89350101538" />
    <line x1="13" y1="344.94605989863771" x2="35" y2="344.94605989863771" />
    <line x1="101" y1="344.94605989863771" x2="123" y2="344.94605989863771" />
    <line x1="145" y1="344.94605989863771" x2="189" y2="344.94605989863771" />
    <line x1="277" y1="344.94605989863771" x2="299" y2="344.94605989863771" />
    <line x1="409" y1="344.94605989863771" x2="431" y2="344.94605989863771" />
    <line x1="46" y1="363.99861878189529" x2="68" y2="363.99861878189529" />
    <line x1="178" y1="363.99861878189529" x2="200" y2="363.99861878189529" />
    <line x1="222" y1="363.99861878189529" x2="244" y2="363.99861878189529" />
    <line x1="376" y1="363.99861878189529" x2="420" y2="363.99861878189529" />
    <line x1="57" y1="383.051177665153" x2="79" y2="383.051177665153" />
    <line x1="123" y1="383.051177665153" x2="145" y2="383.051177665153" />
    <line x1="189" y1="383.051177665153" x2="211" y2="383.051177665153" />
    <line x1="277" y1="383.051177665153" x2="299" y2="383.051177665153" />
    <line x1="321" y1="383.051177665153" x2="343" y2="383.051177665153" />
    <line x1="365" y1="383.051177665153" x2="387" y2="383.051177665153" />
    <line x1="431" y1="383.051177665153" x2="453" y2="383.051177665153" />
    <line x1="68" y1="402.10373654841067" x2="90" y2="402.10373654841067" />
    <line x1="156" y1="402.10373654841067" x2="222" y2="402.10373654841067" />
    <line x1="244" y1="402.10373654841067" x2="288" y2="402.10373654841067" />
    <line x1="398" y1="402.10373654841067" x2="420" y2="402.10373654841067" />
    <line x1="123" y1="421.15629543166824" x2="189" y2="421.15629543166824" />
    <line x1="255" y1="421.15629543166824" x2="277" y2="421.15629543166824" />
    <line x1="299" y1="421.15629543166824" x2="321" y2="421.15629543166824" />
    <line x1="387" y1="421.15629543166824" x2="431" y2="421.15629543166824" />
    <line x1="24" y1="440.20885431492593" x2="46" y2="440.20885431492593" />
    <line x1="90" y1="440.20885431492593" x2="112" y2="440.20885431492593" />
    <line x1="134" y1="440.20885431492593" x2="156" y2="440.20885431492593" />
    <line x1="200" y1="440.20885431492593" x2="222" y2="440.20885431492593" />
    <line x1="288" y1="440.20885431492593" x2="310" y2="440.20885431492593" />
    <line x1="420" y1="440.20885431492593" x2="442" y2="440.20885431492593" />
    <line x1="79" y1="459.26141319818362" x2="101" y2="459.26141319818362" />
    <line x1="145" y1="459.26141319818362" x2="167" y2="459.26141319818362" />
    <line x1="189" y1="459.26141319818362" x2="299" y2="459.26141319818362" />
    <line x1="321" y1="459.26141319818362" x2="343" y2="459.26141319818362" />
    <line x1="387" y1="459.26141319818362" x2="453" y2="459.26141319818362" />
    <line x1="2" y1="478.31397208144119" x2="222" y2="478.31397208144119" />
    <line x1="244" y1="478.31397208144119" x2="442" y2="478.31397208144119" />
    <polyline points="13,1.9999999999999911 2,21.052558883257639 13,40.105117766515292 2,59.157676649772938" />
    <line x1="2" y1="59.157676649772945" x2="13" y2="78.2102355330306" />
    <line x1="13" y1="78.210235533030584" x2="2" y2="97.262794416288244" />
    <polyline points="2,97.26279441628823 13,116.31535329954589 2,135.36791218280354 13,154.42047106606117" />
    <line x1="13" y1="154.4204710660612" x2="2" y2="173.47302994931883" />
    <polyline points="2,173.47302994931886 13,192.52558883257649 2,211.57814771583412" />
    <line x1="2" y1="211.57814771583415" x2="13" y2="230.63070659909178" />
    <line x1="13" y1="230.63070659909181" x2="2" y2="249.68326548234944" />
    <polyline points="2,249.68326548234941 13,268.73582436560707 2,287.78838324886476 13,306.84094213212245" />
    <polyline points="13,306.84094213212234 2,325.89350101538 13,344.94605989863771 2,363.9986187818954" />
    <polyline points="2,363.99861878189529 13,383.051177665153 2,402.10373654841067 13,421.15629543166835" />
    <polyline points="13,421.15629543166824 2,440.20885431492593 13,459.26141319818362 2,478.31397208144131" />
    <line x1="24" y1="21.052558883257639" x2="13" y2="40.105117766515292" />
    <line x1="24" y1="59.157676649772945" x2="13" y2="78.2102355330306" />
    <line x1="13" y1="154.4204710660612" x2="24" y2="173.47302994931883" />
    <line x1="13" y1="192.52558883257649" x2="24" y2="211.57814771583412" />
    <line x1="24" y1="287.78838324886476" x2="13" y2="306.84094213212245" />
    <line x1="24" y1="363.99861878189529" x2="13" y2="383.051177665153" />
    <line x1="24" y1="402.10373654841067" x2="13" y2="421.15629543166835" />
    <line x1="24" y1="21.052558883257639" x2="35" y2="40.105117766515292" />
    <line x1="35" y1="78.210235533030584" x2="24" y2="97.262794416288244" />
    <line x1="24" y1="135.36791218280354" x2="35" y2="154.42047106606117" />
    <line x1="35" y1="230.63070659909181" x2="24" y2="249.68326548234944" />
    <polyline points="24,249.68326548234941 35,268.73582436560707 24,287.78838324886476" />
    <line x1="35" y1="421.15629543166824" x2="24" y2="440.20885431492593" />
    <line x1="35" y1="1.9999999999999911" x2="46" y2="21.052558883257639" />
    <line x1="46" y1="59.157676649772945" x2="35" y2="78.2102355330306" />
    <line x1="35" y1="116.31535329954589" x2="46" y2="135.36791218280354" />
    <line x1="46" y1="211.57814771583415" x2="35" y2="230.63070659909178" />
    <line x1="46" y1="249.68326548234941" x2="35" y2="268.73582436560707" />
    <line x1="35" y1="306.84094213212234" x2="46" y2="325.89350101538" />
    <polyline points="35,383.051177665153 46,402.10373654841067 35,421.15629543166835" />
    <polyline points="46,440.20885431492593 35,459.26141319818362 46,478.31397208144131" />
    <polyline points="46,21.052558883257639 57,40.105117766515292 46,59.157676649772938" />
    <line x1="46" y1="97.26279441628823" x2="57" y2="116.31535329954589" />
    <line x1="46" y1="325.89350101538" x2="57" y2="344.94605989863771" />
    <line x1="57" y1="383.051177665153" x2="46" y2="402.10373654841067" />
    <line x1="57" y1="421.15629543166824" x2="46" y2="440.20885431492593" />
    <line x1="57" y1="459.26141319818362" x2="46" y2="478.31397208144131" />
    <line x1="57" y1="78.210235533030584" x2="68" y2="97.262794416288244" />
    <polyline points="68,97.26279441628823 57,116.31535329954589 68,135.36791218280354" />
    <line x1="68" y1="173.47302994931886" x2="57" y2="192.52558883257649" />
    <line x1="68" y1="211.57814771583415" x2="57" y2="230.63070659909178" />
    <line x1="57" y1="306.84094213212234" x2="68" y2="325.89350101538" />
    <line x1="57" y1="344.94605989863771" x2="68" y2="363.9986187818954" />
    <line x1="68" y1="402.10373654841067" x2="57" y2="421.15629543166835" />
    <line x1="57" y1="421.15629543166824" x2="68" y2="440.20885431492593" />
    <line x1="79" y1="40.105117766515292" x2="68" y2="59.157676649772938" />
    <line x1="68" y1="135.36791218280354" x2="79" y2="154.42047106606117" />
    <line x1="79" y1="192.52558883257649" x2="68" y2="211.57814771583412" />
    <line x1="79" y1="230.63070659909181" x2="68" y2="249.68326548234944" />
    <line x1="68" y1="287.78838324886476" x2="79" y2="306.84094213212245" />
    <line x1="68" y1="325.89350101538" x2="79" y2="344.94605989863771" />
    <line x1="79" y1="421.15629543166824" x2="68" y2="440.20885431492593" />
    <line x1="79" y1="40.105117766515292" x2="90" y2="59.157676649772938" />
    <line x1="90" y1="59.157676649772945" x2="79" y2="78.2102355330306" />
    <line x1="79" y1="78.210235533030584" x2="90" y2="97.262794416288244" />
    <line x1="90" y1="97.26279441628823" x2="79" y2="116.31535329954589" />
    <line x1="79" y1="268.73582436560707" x2="90" y2="287.78838324886476" />
    <line x1="79" y1="306.84094213212234" x2="90" y2="325.89350101538" />
    <line x1="79" y1="344.94605989863771" x2="90" y2="363.9986187818954" />
    <line x1="90" y1="363.99861878189529" x2="79" y2="383.051177665153" />
    <line x1="101" y1="40.105117766515292" x2="90" y2="59.157676649772938" />
    <line x1="101" y1="116.31535329954589" x2="90" y2="135.36791218280354" />
    <polyline points="90,249.68326548234941 101,268.73582436560707 90,287.78838324886476" />
    <line x1="101" y1="344.94605989863771" x2="90" y2="363.9986187818954" />
    <line x1="112" y1="21.052558883257639" x2="101" y2="40.105117766515292" />
    <line x1="112" y1="135.36791218280354" x2="101" y2="154.42047106606117" />
    <line x1="101" y1="192.52558883257649" x2="112" y2="211.57814771583412" />
    <line x1="101" y1="230.63070659909181" x2="112" y2="249.68326548234944" />
    <polyline points="112,363.99861878189529 101,383.051177665153 112,402.10373654841067 101,421.15629543166835" />
    <line x1="101" y1="459.26141319818362" x2="112" y2="478.31397208144131" />
    <line x1="123" y1="1.9999999999999911" x2="112" y2="21.052558883257639" />
    <line x1="112" y1="59.157676649772945" x2="123" y2="78.2102355330306" />
    <line x1="123" y1="116.31535329954589" x2="112" y2="135.36791218280354" />
    <line x1="123" y1="154.4204710660612" x2="112" y2="173.47302994931883" />
    <line x1="112" y1="211.57814771583415" x2="123" y2="230.63070659909178" />
    <polyline points="112,249.68326548234941 123,268.73582436560707 112,287.78838324886476 123,306.84094213212245" />
    <line x1="112" y1="402.10373654841067" x2="123" y2="421.15629543166835" />
    <line x1="112" y1="440.20885431492593" x2="123" y2="459.26141319818362" />
    <line x1="134" y1="59.157676649772945" x2="123" y2="78.2102355330306" />
    <line x1="123" y1="154.4204710660612" x2="134" y2="173.47302994931883" />
    <polyline points="134,173.47302994931886 123,192.52558883257649 134,211.57814771583412" />
    <line x1="123" y1="344.94605989863771" x2="134" y2="363.9986187818954" />
    <line x1="134" y1="363.99861878189529" x2="123" y2="383.051177665153" />
    <line x1="134" y1="440.20885431492593" x2="123" y2="459.26141319818362" />
    <line x1="145" y1="1.9999999999999911" x2="134" y2="21.052558883257639" />
    <line x1="134" y1="59.157676649772945" x2="145" y2="78.2102355330306" />
    <polyline points="134,97.26279441628823 145,116.31535329954589 134,135.36791218280354 145,154.42047106606117" />
    <line x1="134" y1="287.78838324886476" x2="145" y2="306.84094213212245" />
    <line x1="134" y1="325.89350101538" x2="145" y2="344.94605989863771" />
    <line x1="134" y1="402.10373654841067" x2="145" y2="421.15629543166835" />
    <line x1="134" y1="440.20885431492593" x2="145" y2="459.26141319818362" />
    <line x1="156" y1="21.052558883257639" x2="145" y2="40.105117766515292" />
    <line x1="156" y1="135.36791218280354" x2="145" y2="154.42047106606117" />
    <line x1="156" y1="173.47302994931886" x2="145" y2="192.52558883257649" />
    <line x1="145" y1="268.73582436560707" x2="156" y2="287.78838324886476" />
    <line x1="145" y1="306.84094213212234" x2="156" y2="325.89350101538" />
    <line x1="156" y1="59.157676649772945" x2="167" y2="78.2102355330306" />
    <line x1="167" y1="78.210235533030584" x2="156" y2="97.262794416288244" />
    <line x1="167" y1="116.31535329954589" x2="156" y2="135.36791218280354" />
    <line x1="167" y1="230.63070659909181" x2="156" y2="249.68326548234944" />
    <line x1="156" y1="249.68326548234941" x2="167" y2="268.73582436560707" />
    <line x1="156" y1="287.78838324886476" x2="167" y2="306.84094213212245" />
    <line x1="167" y1="306.84094213212234" x2="156" y2="325.89350101538" />
    <line x1="167" y1="344.94605989863771" x2="156" y2="363.9986187818954" />
    <line x1="156" y1="363.99861878189529" x2="167" y2="383.051177665153" />
    <line x1="167" y1="1.9999999999999911" x2="178" y2="21.052558883257639" />
    <line x1="167" y1="40.105117766515292" x2="178" y2="59.157676649772938" />
    <line x1="178" y1="135.36791218280354" x2="167" y2="154.42047106606117" />
    <line x1="178" y1="173.47302994931886" x2="167" y2="192.52558883257649" />
    <line x1="167" y1="230.63070659909181" x2="178" y2="249.68326548234944" />
    <line x1="167" y1="306.84094213212234" x2="178" y2="325.89350101538" />
    <line x1="178" y1="363.99861878189529" x2="167" y2="383.051177665153" />
    <line x1="178" y1="402.10373654841067" x2="167" y2="421.15629543166835" />
    <line x1="178" y1="440.20885431492593" x2="167" y2="459.26141319818362" />
    <line x1="178" y1="21.052558883257639" x2="189" y2="40.105117766515292" />
    <line x1="189" y1="116.31535329954589" x2="178" y2="135.36791218280354" />
    <line x1="189" y1="154.4204710660612" x2="178" y2="173.47302994931883" />
    <line x1="189" y1="192.52558883257649" x2="178" y2="211.57814771583412" />
    <polyline points="178,249.68326548234941 189,268.73582436560707 178,287.78838324886476" />
    <line x1="178" y1="363.99861878189529" x2="189" y2="383.051177665153" />
    <line x1="178" y1="440.20885431492593" x2="189" y2="459.26141319818362" />
    <line x1="189" y1="78.210235533030584" x2="200" y2="97.262794416288244" />
    <line x1="189" y1="154.4204710660612" x2="200" y2="173.47302994931883" />
    <line x1="189" y1="192.52558883257649" x2="200" y2="211.57814771583412" />
    <line x1="200" y1="211.57814771583415" x2="189" y2="230.63070659909178" />
    <line x1="189" y1="306.84094213212234" x2="200" y2="325.89350101538" />
    <line x1="189" y1="421.15629543166824" x2="200" y2="440.20885431492593" />
    <line x1="211" y1="40.105117766515292" x2="200" y2="59.157676649772938" />
    <line x1="200" y1="59.157676649772945" x2="211" y2="78.2102355330306" />
    <line x1="200" y1="135.36791218280354" x2="211" y2="154.42047106606117" />
    <line x1="200" y1="287.78838324886476" x2="211" y2="306.84094213212245" />
    <line x1="211" y1="306.84094213212234" x2="200" y2="325.89350101538" />
    <line x1="211" y1="383.051177665153" x2="200" y2="402.10373654841067" />
    <line x1="211" y1="78.210235533030584" x2="222" y2="97.262794416288244" />
    <line x1="211" y1="116.31535329954589" x2="222" y2="135.36791218280354" />
    <line x1="211" y1="154.4204710660612" x2="222" y2="173.47302994931883" />
    <line x1="222" y1="173.47302994931886" x2="211" y2="192.52558883257649" />
    <polyline points="222,325.89350101538 211,344.94605989863771 222,363.9986187818954" />
    <line x1="222" y1="402.10373654841067" x2="211" y2="421.15629543166835" />
    <line x1="222" y1="59.157676649772945" x2="233" y2="78.2102355330306" />
    <polyline points="222,97.26279441628823 233,116.31535329954589 222,135.36791218280354" />
    <line x1="233" y1="154.4204710660612" x2="222" y2="173.47302994931883" />
    <line x1="233" y1="192.52558883257649" x2="222" y2="211.57814771583412" />
    <line x1="233" y1="230.63070659909181" x2="222" y2="249.68326548234944" />
    <polyline points="222,249.68326548234941 233,268.73582436560707 222,287.78838324886476" />
    <polyline points="222,363.99861878189529 233,383.051177665153 222,402.10373654841067" />
    <line x1="233" y1="40.105117766515292" x2="244" y2="59.157676649772938" />
    <line x1="233" y1="78.210235533030584" x2="244" y2="97.262794416288244" />
    <line x1="244" y1="135.36791218280354" x2="233" y2="154.42047106606117" />
    <line x1="233" y1="154.4204710660612" x2="244" y2="173.47302994931883" />
    <line x1="233" y1="344.94605989863771" x2="244" y2="363.9986187818954" />
    <line x1="233" y1="421.15629543166824" x2="244" y2="440.20885431492593" />
    <line x1="233" y1="459.26141319818362" x2="244" y2="478.31397208144131" />
    <line x1="255" y1="230.63070659909181" x2="244" y2="249.68326548234944" />
    <line x1="255" y1="268.73582436560707" x2="244" y2="287.78838324886476" />
    <polyline points="255,306.84094213212234 244,325.89350101538 255,344.94605989863771" />
    <line x1="244" y1="363.99861878189529" x2="255" y2="383.051177665153" />
    <line x1="244" y1="440.20885431492593" x2="255" y2="459.26141319818362" />
    <polyline points="266,21.052558883257639 255,40.105117766515292 266,59.157676649772938" />
    <line x1="266" y1="135.36791218280354" x2="255" y2="154.42047106606117" />
    <line x1="255" y1="306.84094213212234" x2="266" y2="325.89350101538" />
    <line x1="255" y1="344.94605989863771" x2="266" y2="363.9986187818954" />
    <line x1="266" y1="363.99861878189529" x2="255" y2="383.051177665153" />
    <line x1="266" y1="440.20885431492593" x2="255" y2="459.26141319818362" />
    <line x1="277" y1="1.9999999999999911" x2="266" y2="21.052558883257639" />
    <line x1="266" y1="59.157676649772945" x2="277" y2="78.2102355330306" />
    <line x1="277" y1="192.52558883257649" x2="266" y2="211.57814771583412" />
    <line x1="266" y1="211.57814771583415" x2="277" y2="230.63070659909178" />
    <line x1="277" y1="230.63070659909181" x2="266" y2="249.68326548234944" />
    <line x1="266" y1="287.78838324886476" x2="277" y2="306.84094213212245" />
    <line x1="277" y1="344.94605989863771" x2="266" y2="363.9986187818954" />
    <line x1="266" y1="363.99861878189529" x2="277" y2="383.051177665153" />
    <polyline points="288,21.052558883257639 277,40.105117766515292 288,59.157676649772938" />
    <polyline points="277,116.31535329954589 288,135.36791218280354 277,154.42047106606117" />
    <line x1="277" y1="154.4204710660612" x2="288" y2="173.47302994931883" />
    <polyline points="288,249.68326548234941 277,268.73582436560707 288,287.78838324886476 277,306.84094213212245" />
    <line x1="288" y1="402.10373654841067" x2="277" y2="421.15629543166835" />
    <line x1="299" y1="1.9999999999999911" x2="288" y2="21.052558883257639" />
    <line x1="288" y1="97.26279441628823" x2="299" y2="116.31535329954589" />
    <line x1="299" y1="192.52558883257649" x2="288" y2="211.57814771583412" />
    <line x1="288" y1="211.57814771583415" x2="299" y2="230.63070659909178" />
    <line x1="299" y1="230.63070659909181" x2="288" y2="249.68326548234944" />
    <line x1="299" y1="268.73582436560707" x2="288" y2="287.78838324886476" />
    <line x1="299" y1="306.84094213212234" x2="288" y2="325.89350101538" />
    <line x1="299" y1="344.94605989863771" x2="288" y2="363.9986187818954" />
    <line x1="299" y1="383.051177665153" x2="288" y2="402.10373654841067" />
    <line x1="310" y1="21.052558883257639" x2="299" y2="40.105117766515292" />
    <line x1="310" y1="135.36791218280354" x2="299" y2="154.42047106606117" />
    <line x1="299" y1="154.4204710660612" x2="310" y2="173.47302994931883" />
    <line x1="310" y1="173.47302994931886" x2="299" y2="192.52558883257649" />
    <line x1="299" y1="230.63070659909181" x2="310" y2="249.68326548234944" />
    <line x1="310" y1="287.78838324886476" x2="299" y2="306.84094213212245" />
    <polyline points="299,306.84094213212234 310,325.89350101538 299,344.94605989863771 310,363.9986187818954" />
    <line x1="299" y1="383.051177665153" x2="310" y2="402.10373654841067" />
    <line x1="310" y1="440.20885431492593" x2="299" y2="459.26141319818362" />
    <line x1="310" y1="59.157676649772945" x2="321" y2="78.2102355330306" />
    <line x1="321" y1="230.63070659909181" x2="310" y2="249.68326548234944" />
    <line x1="310" y1="249.68326548234941" x2="321" y2="268.73582436560707" />
    <line x1="321" y1="344.94605989863771" x2="310" y2="363.9986187818954" />
    <line x1="310" y1="402.10373654841067" x2="321" y2="421.15629543166835" />
    <line x1="321" y1="1.9999999999999911" x2="332" y2="21.052558883257639" />
    <line x1="321" y1="40.105117766515292" x2="332" y2="59.157676649772938" />
    <line x1="332" y1="135.36791218280354" x2="321" y2="154.42047106606117" />
    <polyline points="332,249.68326548234941 321,268.73582436560707 332,287.78838324886476 321,306.84094213212245" />
    <polyline points="321,383.051177665153 332,402.10373654841067 321,421.15629543166835" />
    <polyline points="321,421.15629543166824 332,440.20885431492593 321,459.26141319818362" />
    <line x1="332" y1="21.052558883257639" x2="343" y2="40.105117766515292" />
    <polyline points="343,306.84094213212234 332,325.89350101538 343,344.94605989863771 332,363.9986187818954" />
    <line x1="354" y1="59.157676649772945" x2="343" y2="78.2102355330306" />
    <line x1="354" y1="97.26279441628823" x2="343" y2="116.31535329954589" />
    <line x1="343" y1="192.52558883257649" x2="354" y2="211.57814771583412" />
    <line x1="354" y1="211.57814771583415" x2="343" y2="230.63070659909178" />
    <line x1="343" y1="230.63070659909181" x2="354" y2="249.68326548234944" />
    <line x1="354" y1="249.68326548234941" x2="343" y2="268.73582436560707" />
    <line x1="354" y1="287.78838324886476" x2="343" y2="306.84094213212245" />
    <line x1="343" y1="306.84094213212234" x2="354" y2="325.89350101538" />
    <line x1="354" y1="363.99861878189529" x2="343" y2="383.051177665153" />
    <line x1="354" y1="402.10373654841067" x2="343" y2="421.15629543166835" />
    <polyline points="343,421.15629543166824 354,440.20885431492593 343,459.26141319818362" />
    <line x1="354" y1="21.052558883257639" x2="365" y2="40.105117766515292" />
    <line x1="354" y1="59.157676649772945" x2="365" y2="78.2102355330306" />
    <line x1="365" y1="78.210235533030584" x2="354" y2="97.262794416288244" />
    <polyline points="354,97.26279441628823 365,116.31535329954589 354,135.36791218280354 365,154.42047106606117" />
    <line x1="365" y1="154.4204710660612" x2="354" y2="173.47302994931883" />
    <line x1="365" y1="230.63070659909181" x2="354" y2="249.68326548234944" />
    <line x1="354" y1="363.99861878189529" x2="365" y2="383.051177665153" />
    <line x1="365" y1="459.26141319818362" x2="354" y2="478.31397208144131" />
    <line x1="365" y1="40.105117766515292" x2="376" y2="59.157676649772938" />
    <line x1="365" y1="154.4204710660612" x2="376" y2="173.47302994931883" />
    <line x1="365" y1="192.52558883257649" x2="376" y2="211.57814771583412" />
    <polyline points="365,268.73582436560707 376,287.78838324886476 365,306.84094213212245" />
    <line x1="365" y1="344.94605989863771" x2="376" y2="363.9986187818954" />
    <polyline points="365,383.051177665153 376,402.10373654841067 365,421.15629543166835" />
    <line x1="365" y1="421.15629543166824" x2="376" y2="440.20885431492593" />
    <line x1="376" y1="59.157676649772945" x2="387" y2="78.2102355330306" />
    <line x1="387" y1="78.210235533030584" x2="376" y2="97.262794416288244" />
    <polyline points="387,116.31535329954589 376,135.36791218280354 387,154.42047106606117" />
    <line x1="376" y1="211.57814771583415" x2="387" y2="230.63070659909178" />
    <polyline points="387,306.84094213212234 376,325.89350101538 387,344.94605989863771" />
    <line x1="387" y1="40.105117766515292" x2="398" y2="59.157676649772938" />
    <line x1="398" y1="97.26279441628823" x2="387" y2="116.31535329954589" />
    <line x1="398" y1="135.36791218280354" x2="387" y2="154.42047106606117" />
    <line x1="387" y1="154.4204710660612" x2="398" y2="173.47302994931883" />
    <polyline points="398,173.47302994931886 387,192.52558883257649 398,211.57814771583412" />
    <line x1="387" y1="268.73582436560707" x2="398" y2="287.78838324886476" />
    <line x1="387" y1="306.84094213212234" x2="398" y2="325.89350101538" />
    <line x1="409" y1="40.105117766515292" x2="398" y2="59.157676649772938" />
    <line x1="398" y1="59.157676649772945" x2="409" y2="78.2102355330306" />
    <line x1="409" y1="78.210235533030584" x2="398" y2="97.262794416288244" />
    <line x1="398" y1="249.68326548234941" x2="409" y2="268.73582436560707" />
    <line x1="398" y1="325.89350101538" x2="409" y2="344.94605989863771" />
    <line x1="398" y1="402.10373654841067" x2="409" y2="421.15629543166835" />
    <line x1="398" y1="440.20885431492593" x2="409" y2="459.26141319818362" />
    <line x1="420" y1="135.36791218280354" x2="409" y2="154.42047106606117" />
    <line x1="409" y1="192.52558883257649" x2="420" y2="211.57814771583412" />
    <line x1="420" y1="211.57814771583415" x2="409" y2="230.63070659909178" />
    <line x1="409" y1="230.63070659909181" x2="420" y2="249.68326548234944" />
    <line x1="409" y1="306.84094213212234" x2="420" y2="325.89350101538" />
    <line x1="409" y1="383.051177665153" x2="420" y2="402.10373654841067" />
    <polyline points="420,21.052558883257639 431,40.105117766515292 420,59.157676649772938" />
    <line x1="420" y1="59.157676649772945" x2="431" y2="78.2102355330306" />
    <line x1="431" y1="116.31535329954589" x2="420" y2="135.36791218280354" />
    <line x1="431" y1="154.4204710660612" x2="420" y2="173.47302994931883" />
    <line x1="420" y1="173.47302994931886" x2="431" y2="192.52558883257649" />
    <polyline points="420,249.68326548234941 431,268.73582436560707 420,287.78838324886476" />
    <line x1="420" y1="325.89350101538" x2="431" y2="344.94605989863771" />
    <line x1="420" y1="363.99861878189529" x2="431" y2="383.051177665153" />
    <line x1="442" y1="97.26279441628823" x2="431" y2="116.31535329954589" />
    <line x1="442" y1="211.57814771583415" x2="431" y2="230.63070659909178" />
    <line x1="431" y1="421.15629543166824" x2="442" y2="440.20885431492593" />
    <polyline points="453,1.9999999999999911 442,21.052558883257639 453,40.105117766515292 442,59.157676649772938" />
    <line x1="442" y1="59.157676649772945" x2="453" y2="78.2102355330306" />
    <line x1="453" y1="78.210235533030584" x2="442" y2="97.262794416288244" />
    <polyline points="442,97.26279441628823 453,116.31535329954589 442,135.36791218280354 453,154.42047106606117" />
    <line x1="453" y1="154.4204710660612" x2="442" y2="173.47302994931883" />
    <polyline points="442,173.47302994931886 453,192.52558883257649 442,211.57814771583412" />
    <line x1="442" y1="211.57814771583415" x2="453" y2="230.63070659909178" />
    <line x1="453" y1="230.63070659909181" x2="442" y2="249.68326548234944" />
    <polyline points="442,249.68326548234941 453,268.73582436560707 442,287.78838324886476 453,306.84094213212245" />
    <polyline points="453,306.84094213212234 442,325.89350101538 453,344.94605989863771 442,363.9986187818954" />
    <polyline points="442,363.99861878189529 453,383.051177665153 442,402.10373654841067 453,421.15629543166835" />
    <polyline points="453,421.15629543166824 442,440.20885431492593 453,459.26141319818362 442,478.31397208144131" />
  </g>
  <polyline fill="none" stroke="#ff0000" stroke-width="2" stroke-linecap="square" stroke-linejoin="round" points="222,1.9999999999999911 227.5,11.526279441628816 249.5,11.526279441628816 255,21.052558883257639 249.5,30.578838324886465 205.5,30.578838324886465 189,59.157676649772938 211,97.262794416288244 205.5,106.78907385791706 183.5,106.78907385791706 156,154.4204710660612 167,173.47302994931883 145,211.57814771583415 150.5,221.10442715746297 172.5,221.10442715746297 194.5,259.20954492397823 216.5,259.20954492397823 222,268.73582436560707 216.5,278.26210380723592 194.5,278.26210380723592 178,306.84094213212234 189,325.89350101538 183.5,335.41978045700887 150.5,335.41978045700887 139.5,316.36722157375118 106.5,316.36722157375118 101,325.89350101538 106.5,335.41978045700887 128.5,335.41978045700887 156,383.051177665153 150.5,392.57745710678182 117.5,392.57745710678182 112,383.051177665153 123,363.99861878189529 117.5,354.47233934026656 106.5,354.47233934026656 90,383.051177665153 101,402.10373654841067 79,440.20885431492593 84.5,449.73513375655477 106.5,449.73513375655477 117.5,468.78769263981246 227.5,468.78769263981246 233,478.31397208144119" />
  <type>Rectangular</type>
</svg>