<?xml version="1.0" encoding="utf-8" standalone="no"?>
<!DOCTYPE svg PUBLIC "-//W3C//DTD SVG 1.1//EN" "http://www.w3.org/Graphics/SVG/1.1/DTD/svg11.dtd"[]>
<svg width="724" height="724" version="1.1" xmlns="http://www.w3.org/2000/svg">
  <title>45 cells diameter theta maze</title>
  <g fill="none" stroke="#000000" stroke-width="2" stroke-linecap="square">
    <path d="M 346.02943725152284,379.97056274847716 A 24,24 0 1,1 363,387" />
    <path d="M 363,323 A 40,40 0 0,1 399.9551813004515,347.6926627053964" />
    <path d="M 403,363 A 40,40 0 0,1 399.9551813004515,378.3073372946036" />
    <path d="M 378.3073372946036,399.9551813004515 A 40,40 0 0,1 326.04481869954856,378.3073372946036" />
    <path d="M 326.04481869954856,347.6926627053964 A 40,40 0 0,1 347.6926627053964,326.04481869954856" />
    <path d="M 363,307 A 56,56 0 0,1 414.73725382063208,384.430272212445" />
    <path d="M 384.43027221244506,414.73725382063208 A 56,56 0 0,1 363,419" />
    <path d="M 341.569727787555,414.73725382063208 A 56,56 0 0,1 323.40202025355336,402.59797974644664" />
    <path d="M 307,363 A 56,56 0 0,1 323.40202025355336,323.40202025355336" />
    <path d="M 322.99894322258865,303.13418791421674 A 72,72 0 0,1 377.04650318516121,292.38345981096739" />
    <path d="M 390.55320713028647,296.48067365918735 A 72,72 0 0,1 403.00105677741135,303.13418791421674" />
    <path d="M 413.91168824543144,312.08831175456856 A 72,72 0 0,1 422.86581208578326,322.99894322258865" />
    <path d="M 433.61654018903261,348.95349681483879 A 72,72 0 0,1 390.55320713028647,429.51932634081265" />
    <path d="M 363,435 A 72,72 0 0,1 322.99894322258865,422.86581208578326" />
    <path d="M 303.13418791421674,403.00105677741135 A 72,72 0 0,1 292.38345981096739,348.95349681483879" />
    <path d="M 296.48067365918735,335.44679286971353 A 72,72 0 0,1 312.08831175456856,312.08831175456856" />
    <path d="M 363,275 A 88,88 0 0,1 425.22539674441617,300.77460325558383" />
    <path d="M 436.169325882624,314.10981949427503 A 88,88 0 0,1 449.30910467548426,345.83205166258068" />
    <path d="M 451,363 A 88,88 0 0,1 411.89018050572497,436.169325882624" />
    <path d="M 380.16794833741932,449.30910467548426 A 88,88 0 0,1 329.32385795187213,444.30139886099323" />
    <path d="M 300.77460325558383,425.22539674441617 A 88,88 0 0,1 289.830674117376,411.89018050572497" />
    <path d="M 289.830674117376,314.10981949427503 A 88,88 0 0,1 314.10981949427503,289.830674117376" />
    <path d="M 305.22069576596135,276.5271603205353 A 104,104 0 0,1 402.79907696596933,266.91652861882619" />
    <path d="M 420.77930423403865,276.5271603205353 A 104,104 0 0,1 459.08347138117381,323.20092303403067" />
    <path d="M 465.001669161936,383.28939348967731 A 104,104 0 0,1 459.08347138117381,402.79907696596933" />
    <path d="M 449.47283967946476,420.77930423403859 A 104,104 0 0,1 363,467" />
    <path d="M 342.71060651032263,465.001669161936 A 104,104 0 0,1 323.20092303403067,459.08347138117381" />
    <path d="M 305.22069576596141,449.47283967946476 A 104,104 0 0,1 289.46089475659909,436.53910524340097" />
    <path d="M 276.5271603205353,420.77930423403865 A 104,104 0 0,1 260.998330838064,342.71060651032263" />
    <path d="M 266.91652861882619,323.20092303403067 A 104,104 0 0,1 276.52716032053524,305.22069576596141" />
    <path d="M 317.07798811618915,252.13445609864561 A 120,120 0 0,1 363,243" />
    <path d="M 408.9220118838108,252.13445609864559 A 120,120 0 0,1 429.66842796235227,263.22364652369458" />
    <path d="M 447.85281374238571,278.14718625761429 A 120,120 0 0,1 473.86554390135439,408.92201188381074" />
    <path d="M 462.77635347630542,429.66842796235221 A 120,120 0 0,1 408.9220118838108,473.86554390135439" />
    <path d="M 317.07798811618926,473.86554390135439 A 120,120 0 0,1 263.22364652369458,429.66842796235227" />
    <path d="M 245.30576635161236,386.41083864193541 A 120,120 0 0,1 243,363" />
    <path d="M 245.30576635161236,339.58916135806459 A 120,120 0 0,1 252.13445609864561,317.0779881161892" />
    <path d="M 336.46771620580648,229.61320186516068 A 136,136 0 0,1 389.53228379419346,229.61320186516065" />
    <path d="M 402.4787161066069,232.8561143404196 A 136,136 0 0,1 438.55755169066589,249.92013272685387" />
    <path d="M 459.16652224137044,266.83347775862956 A 136,136 0 0,1 482.94129195137629,298.89004379166431" />
    <path d="M 493.14388565958041,323.5212838933931 A 136,136 0 0,1 498.34512282741878,376.33033108482027" />
    <path d="M 493.14388565958041,402.47871610660684 A 136,136 0 0,1 468.12942165733227,449.27748664625574" />
    <path d="M 459.16652224137044,459.16652224137044 A 136,136 0 0,1 449.2774866462558,468.12942165733222" />
    <path d="M 438.55755169066589,476.07986727314619 A 136,136 0 0,1 427.10995620833569,482.94129195137629" />
    <path d="M 415.0449468016522,488.64761642153496 A 136,136 0 0,1 376.33033108482027,498.34512282741878" />
    <path d="M 363,499 A 136,136 0 0,1 349.66966891517978,498.34512282741878" />
    <path d="M 336.46771620580654,496.38679813483935 A 136,136 0 0,1 310.9550531983478,488.647616421535" />
    <path d="M 298.89004379166431,482.94129195137629 A 136,136 0 0,1 257.87057834266784,449.27748664625585" />
    <path d="M 249.92013272685384,438.55755169066589 A 136,136 0 0,1 227.65487717258122,376.33033108482022" />
    <path d="M 227.65487717258122,349.66966891517984 A 136,136 0 0,1 232.8561143404196,323.52128389339316" />
    <path d="M 237.352383578465,310.95505319834774 A 136,136 0 0,1 257.87057834266778,276.7225133537442" />
    <path d="M 298.89004379166431,243.05870804862374 A 136,136 0 0,1 323.5212838933931,232.8561143404196" />
    <path d="M 348.10139466990682,211.73192154582608 A 152,152 0 0,1 434.65230399755166,228.94796781905004" />
    <path d="M 459.42777919287414,245.502411088864 A 152,152 0 0,1 503.4296889417156,304.83211828050634" />
    <path d="M 512.079362621291,333.34627105354849 A 152,152 0 0,1 515,363" />
    <path d="M 503.4296889417156,421.16788171949361 A 152,152 0 0,1 489.38338106998691,447.44667541897951" />
    <path d="M 470.48023074035524,470.48023074035518 A 152,152 0 0,1 377.89860533009323,514.268078454174" />
    <path d="M 333.34627105354849,512.079362621291 A 152,152 0 0,1 291.34769600244834,497.05203218094994" />
    <path d="M 278.55332458102049,489.38338106998691 A 152,152 0 0,1 255.51976925964479,470.48023074035524" />
    <path d="M 245.50241108886402,459.42777919287414 A 152,152 0 0,1 236.61661893001312,447.44667541897951" />
    <path d="M 222.57031105828446,421.16788171949372 A 152,152 0 0,1 211,363" />
    <path d="M 211.73192154582605,348.10139466990688 A 152,152 0 0,1 213.92063737870896,333.34627105354849" />
    <path d="M 228.94796781905004,291.3476960024484 A 152,152 0 0,1 255.51976925964476,255.51976925964482" />
    <path d="M 266.5722208071258,245.50241108886405 A 152,152 0 0,1 304.83211828050628,222.57031105828446" />
    <path d="M 318.87672905732171,217.54506896870427 A 152,152 0 0,1 333.34627105354843,213.920637378709" />
    <path d="M 363,195 A 168,168 0 0,1 395.77517409870956,198.22807289225727" />
    <path d="M 427.29081663733507,207.78823853810383 A 168,168 0 0,1 469.57807173949243,233.13424383506018" />
    <path d="M 518.21176146189623,298.70918336266493 A 168,168 0 0,1 527.77192710774273,330.22482590129044" />
    <path d="M 530.19103408092906,346.53312042463381 A 168,168 0 0,1 531,363" />
    <path d="M 518.21176146189623,427.29081663733507 A 168,168 0 0,1 502.68689486682763,456.33579914729313" />
    <path d="M 481.79393923934,481.79393923934 A 168,168 0 0,1 469.57807173949243,492.86575616493985" />
    <path d="M 395.77517409870961,527.77192710774273 A 168,168 0 0,1 363,531" />
    <path d="M 346.53312042463381,530.19103408092906 A 168,168 0 0,1 244.20606076066002,481.79393923934003" />
    <path d="M 233.13424383506023,469.57807173949249 A 168,168 0 0,1 223.3131051331724,456.33579914729319" />
    <path d="M 214.83722758947639,442.19465178676762 A 168,168 0 0,1 195.80896591907091,346.53312042463392" />
    <path d="M 214.83722758947636,283.80534821323238 A 168,168 0 0,1 223.31310513317237,269.66420085270687" />
    <path d="M 244.20606076066,244.20606076066002 A 168,168 0 0,1 269.66420085270681,223.3131051331724" />
    <path d="M 298.70918336266482,207.78823853810386 A 168,168 0 0,1 314.23217422125032,202.23402359698892" />
    <path d="M 292.58624844482335,193.00616601792328 A 184,184 0 0,1 363,179" />
    <path d="M 381.03515382063915,179.88601029231577 A 184,184 0 0,1 433.41375155517653,193.00616601792325" />
    <path d="M 465.22492287560681,210.00959133633168 A 184,184 0 0,1 515.99040866366829,260.77507712439319" />
    <path d="M 525.27351264009735,276.26300042401641 A 184,184 0 0,1 539.0770217747264,309.58761938517893" />
    <path d="M 546.11398970768425,344.96484617936085 A 184,184 0 0,1 547,363" />
    <path d="M 546.11398970768425,381.03515382063915 A 184,184 0 0,1 539.0770217747264,416.412380614821" />
    <path d="M 515.9904086636684,465.22492287560675 A 184,184 0 0,1 493.10764773832477,493.10764773832477" />
    <path d="M 465.22492287560681,515.9904086636684 A 184,184 0 0,1 416.41238061482107,539.0770217747264" />
    <path d="M 363,547 A 184,184 0 0,1 327.1033807490324,543.46449159419444" />
    <path d="M 309.587619385179,539.0770217747264 A 184,184 0 0,1 276.26300042401647,525.27351264009735" />
    <path d="M 232.89235226167529,493.10764773832477 A 184,184 0 0,1 193.00616601792328,433.41375155517665" />
    <path d="M 182.53550840580562,398.89661925096766 A 184,184 0 0,1 179.88601029231577,381.03515382063915" />
    <path d="M 179,363.00000000000006 A 184,184 0 0,1 179.88601029231577,344.96484617936096" />
    <path d="M 182.53550840580559,327.1033807490324 A 184,184 0 0,1 193.00616601792325,292.58624844482347" />
    <path d="M 232.89235226167523,232.89235226167529 A 184,184 0 0,1 246.27163571388917,220.76607658125647" />
    <path d="M 343.39657193408789,163.96305466556063 A 200,200 0 0,1 382.60342806591211,163.96305466556063" />
    <path d="M 439.53668647301794,178.22409349774264 A 200,200 0 0,1 457.27934736519956,186.615747130329" />
    <path d="M 489.87865683272912,208.3979093274526 A 200,200 0 0,1 517.60209067254732,236.12134316727088" />
    <path d="M 529.29392246050907,251.88595339607954 A 200,200 0 0,1 539.384252869671,268.72065263480044" />
    <path d="M 559.157056080646,323.98193559677435 A 200,200 0 0,1 562.03694533443934,382.60342806591211" />
    <path d="M 559.157056080646,402.01806440322565 A 200,200 0 0,1 547.77590650225738,439.53668647301794" />
    <path d="M 539.384252869671,457.27934736519956 A 200,200 0 0,1 474.11404660392043,529.29392246050907" />
    <path d="M 457.27934736519956,539.384252869671 A 200,200 0 0,1 439.536686473018,547.77590650225738" />
    <path d="M 421.05693545089247,554.38806714644181 A 200,200 0 0,1 363,563" />
    <path d="M 343.39657193408789,562.03694533443934 A 200,200 0 0,1 304.94306454910759,554.38806714644181" />
    <path d="M 286.46331352698206,547.77590650225738 A 200,200 0 0,1 221.57864376269052,504.42135623730951" />
    <path d="M 208.39790932745268,489.87865683272918 A 200,200 0 0,1 196.70607753949093,474.11404660392043" />
    <path d="M 163.96305466556063,382.60342806591211 A 200,200 0 0,1 166.8429439193539,323.98193559677435" />
    <path d="M 186.615747130329,268.7206526348005 A 200,200 0 0,1 196.70607753949091,251.88595339607963" />
    <path d="M 208.39790932745262,236.12134316727088 A 200,200 0 0,1 221.57864376269046,221.57864376269052" />
    <path d="M 236.12134316727082,208.39790932745268 A 200,200 0 0,1 304.94306454910748,171.61193285355824" />
    <path d="M 363,147 A 216,216 0 0,1 445.6596213908594,163.44202097756207" />
    <path d="M 529.97025792635122,225.97105062065256 A 216,216 0 0,1 542.59743625734973,242.99682966776589" />
    <path d="M 553.49499309924465,261.17830484558448 A 216,216 0 0,1 569.69911251815711,300.29850971303614" />
    <path d="M 577.95990096119453,384.17170231118507 A 216,216 0 0,1 574.84962056709776,405.1395095554837" />
    <path d="M 569.69911251815711,425.7014902869638 A 216,216 0 0,1 562.557979022438,445.65962139085934" />
    <path d="M 553.49499309924465,464.82169515441547 A 216,216 0 0,1 542.59743625734984,483.00317033223405" />
    <path d="M 529.97025792635122,500.02894937934741 A 216,216 0 0,1 515.73506473629425,515.73506473629425" />
    <path d="M 483.00317033223405,542.59743625734973 A 216,216 0 0,1 445.6596213908594,562.557979022438" />
    <path d="M 425.70149028696386,569.69911251815711 A 216,216 0 0,1 405.13950955548376,574.84962056709776" />
    <path d="M 341.82829768881493,577.95990096119453 A 216,216 0 0,1 320.86049044451624,574.84962056709776" />
    <path d="M 300.2985097130362,569.69911251815711 A 216,216 0 0,1 280.34037860914066,562.557979022438" />
    <path d="M 261.17830484558453,553.49499309924465 A 216,216 0 0,1 225.97105062065262,529.97025792635122" />
    <path d="M 210.26493526370575,515.73506473629425 A 216,216 0 0,1 196.02974207364889,500.02894937934752" />
    <path d="M 183.40256374265022,483.00317033223405 A 216,216 0 0,1 172.50500690075535,464.82169515441558" />
    <path d="M 163.44202097756212,445.65962139085951 A 216,216 0 0,1 151.15037943290224,405.13950955548381" />
    <path d="M 183.40256374265019,242.996829667766 A 216,216 0 0,1 196.02974207364883,225.97105062065256" />
    <path d="M 210.2649352637057,210.26493526370578 A 216,216 0 0,1 242.99682966776592,183.40256374265022" />
    <path d="M 280.34037860914049,163.44202097756212 A 216,216 0 0,1 341.82829768881493,148.04009903880547" />
    <path d="M 340.26002344354197,132.11714341205033 A 232,232 0 0,1 385.73997655645803,132.11714341205033" />
    <path d="M 472.36404294363143,158.39426667118164 A 232,232 0 0,1 510.17924192596575,183.66157481984502" />
    <path d="M 567.60573332881836,253.63595705636851 A 232,232 0 0,1 577.34005154261854,274.2174436912992" />
    <path d="M 593.88285658794962,340.26002344354191 A 232,232 0 0,1 595,363" />
    <path d="M 590.54218505354947,408.26095470774175 A 232,232 0 0,1 585.01015788987252,430.3460451230352" />
    <path d="M 567.60573332881836,472.36404294363149 A 232,232 0 0,1 555.9009500541905,491.89229406054767" />
    <path d="M 542.338425180155,510.1792419259657 A 232,232 0 0,1 510.17924192596575,542.338425180155" />
    <path d="M 491.89229406054767,555.9009500541905 A 232,232 0 0,1 295.6539548769648,585.01015788987252" />
    <path d="M 274.2174436912992,577.34005154261854 A 232,232 0 0,1 198.95122676472099,527.048773235279" />
    <path d="M 170.0990499458095,491.89229406054767 A 232,232 0 0,1 158.39426667118167,472.36404294363149" />
    <path d="M 140.98984211012754,430.34604512303531 A 232,232 0 0,1 132.11714341205033,385.73997655645803" />
    <path d="M 131,363.00000000000006 A 232,232 0 0,1 132.1171434120503,340.26002344354208" />
    <path d="M 140.98984211012751,295.6539548769648 A 232,232 0 0,1 148.65994845738149,274.21744369129914" />
    <path d="M 158.39426667118161,253.63595705636857 A 232,232 0 0,1 170.09904994580944,234.10770593945236" />
    <path d="M 183.66157481984504,215.82075807403422 A 232,232 0 0,1 198.95122676472093,198.951226764721" />
    <path d="M 215.82075807403413,183.6615748198451 A 232,232 0 0,1 317.73904529225814,135.45781494645055" />
    <path d="M 338.691749198269,116.19418778529516 A 248,248 0 0,1 411.38239985999979,119.76525045999884" />
    <path d="M 434.99059995910665,125.67879673841219 A 248,248 0 0,1 500.78141778886135,156.79553614896878" />
    <path d="M 538.36248173426384,187.63751826573622 A 248,248 0 0,1 569.20446385103128,225.21858221113865" />
    <path d="M 581.71647355839207,246.09360926715254 A 248,248 0 0,1 600.32120326158781,291.00940004089335" />
    <path d="M 611,363 A 248,248 0 0,1 609.80581221470482,387.30825080173105" />
    <path d="M 592.12212406279912,457.90549122654227 A 248,248 0 0,1 538.36248173426384,538.36248173426384" />
    <path d="M 520.3295344725841,554.7065924339588 A 248,248 0 0,1 457.90549122654227,592.12212406279912" />
    <path d="M 411.38239985999991,606.23474954000108 A 248,248 0 0,1 387.30825080173111,609.80581221470482" />
    <path d="M 338.69174919826895,609.80581221470482 A 248,248 0 0,1 314.61760014000015,606.23474954000119" />
    <path d="M 291.00940004089341,600.32120326158781 A 248,248 0 0,1 225.21858221113874,569.20446385103128" />
    <path d="M 205.67046552741596,554.7065924339588 A 248,248 0 0,1 156.79553614896878,500.78141778886135" />
    <path d="M 144.283526441608,479.90639073284751 A 248,248 0 0,1 133.87787593720094,457.90549122654238" />
    <path d="M 125.67879673841222,434.9905999591067 A 248,248 0 0,1 115,363.00000000000006" />
    <path d="M 116.19418778529516,338.69174919826912 A 248,248 0 0,1 119.76525045999884,314.61760014000021" />
    <path d="M 125.67879673841219,291.00940004089341 A 248,248 0 0,1 133.87787593720091,268.09450877345768" />
    <path d="M 144.28352644160793,246.0936092671526 A 248,248 0 0,1 187.63751826573619,187.63751826573625" />
    <path d="M 205.67046552741581,171.29340756604131 A 248,248 0 0,1 225.21858221113865,156.79553614896878" />
    <path d="M 246.09360926715252,144.283526441608 A 248,248 0 0,1 268.09450877345756,133.87787593720094" />
    <path d="M 291.0094000408933,125.67879673841222 A 248,248 0 0,1 314.61760014000009,119.76525045999887" />
    <path d="M 337.12347495299605,100.27123215854005 A 264,264 0 0,1 388.876525047004,100.27123215854005" />
    <path d="M 401.73684525621547,101.8574013692978 A 264,264 0 0,1 427.14676749446164,106.91174915664038" />
    <path d="M 464.02842614438373,119.09580341702031 A 264,264 0 0,1 475.8745446655945,124.34682661541095" />
    <path d="M 487.44873852206337,130.17278621203428 A 264,264 0 0,1 509.670541517175,143.49202235212806" />
    <path d="M 540.29156407961284,167.38890290629078 A 264,264 0 0,1 558.61109709370919,185.70843592038716" />
    <path d="M 575.04678831089018,205.73538361399758 A 264,264 0 0,1 582.50797764787194,216.329458482825" />
    <path d="M 589.44035304007184,227.27687553298947 A 264,264 0 0,1 619.08825084335967,298.8532325055383" />
    <path d="M 621.9273140264529,311.4961549877421 A 264,264 0 0,1 626.68200043816546,350.04613397756162" />
    <path d="M 627,363 A 264,264 0 0,1 626.68200043816546,375.95386602243838" />
    <path d="M 625.72876784146,388.876525047004 A 264,264 0 0,1 621.9273140264529,414.50384501225784" />
    <path d="M 619.08825084335967,427.14676749446164 A 264,264 0 0,1 575.04678831089029,520.26461638600244" />
    <path d="M 549.67619023324858,549.67619023324846 A 264,264 0 0,1 530.47982701920239,567.07475968776259" />
    <path d="M 520.26461638600244,575.04678831089018 A 264,264 0 0,1 475.87454466559444,601.65317338458908" />
    <path d="M 464.02842614438373,606.90419658297969 A 264,264 0 0,1 401.73684525621553,624.1425986307022" />
    <path d="M 388.87652504700407,625.72876784146 A 264,264 0 0,1 375.95386602243832,626.68200043816546" />
    <path d="M 363.00000000000006,627 A 264,264 0 0,1 337.123474952996,625.72876784146" />
    <path d="M 324.26315474378453,624.1425986307022 A 264,264 0 0,1 286.364845204822,615.63224863330311" />
    <path d="M 274.06107870445391,611.56763320831749 A 264,264 0 0,1 205.73538361399761,575.04678831089029" />
    <path d="M 195.52017298079764,567.07475968776259 A 264,264 0 0,1 167.38890290629087,540.291564079613" />
    <path d="M 158.92524031223752,530.4798270192025 A 264,264 0 0,1 130.17278621203431,487.44873852206342" />
    <path d="M 124.346826615411,475.87454466559461 A 264,264 0 0,1 119.09580341702036,464.02842614438384" />
    <path d="M 114.43236679168251,451.93892129554604 A 264,264 0 0,1 110.36775136669687,439.6351547951781" />
    <path d="M 104.07268597354721,414.50384501225795 A 264,264 0 0,1 101.85740136929786,401.73684525621564" />
    <path d="M 100.27123215854005,388.87652504700395 A 264,264 0 0,1 99,363.00000000000006" />
    <path d="M 99.317999561834483,350.04613397756174 A 264,264 0 0,1 110.36775136669684,286.364845204822" />
    <path d="M 114.43236679168248,274.061078704454 A 264,264 0 0,1 130.17278621203425,238.55126147793663" />
    <path d="M 136.55964695992813,227.27687553298952 A 264,264 0 0,1 143.492022352128,216.32945848282512" />
    <path d="M 150.95321168910965,205.73538361399773 A 264,264 0 0,1 176.32380976675142,176.32380976675148" />
    <path d="M 185.70843592038708,167.38890290629087 A 264,264 0 0,1 205.73538361399764,150.95321168910971" />
    <path d="M 216.329458482825,143.49202235212806 A 264,264 0 0,1 238.55126147793655,130.17278621203431" />
    <path d="M 261.97157385561616,119.09580341702036 A 264,264 0 0,1 298.85323250553824,106.91174915664038" />
    <path d="M 321.91546715249854,86.030577209861349 A 280,280 0 0,1 363,83" />
    <path d="M 376.73894881167706,83.337272262551721 A 280,280 0 0,1 390.44479929227697,84.348276531784848" />
    <path d="M 431.03445037291385,91.391249105527663 A 280,280 0 0,1 470.15136106222513,104.31373089683973" />
    <path d="M 482.71542616047896,109.88299792543586 A 280,280 0 0,1 518.55966524548865,130.18850855528734" />
    <path d="M 540.63011956582068,146.55707305843365 A 280,280 0 0,1 560.98989873223331,165.01010126776669" />
    <path d="M 570.46631509938857,174.96349264283487 A 280,280 0 0,1 579.44292694156638,185.36988043417927" />
    <path d="M 587.89810881458061,196.20419474211863 A 280,280 0 0,1 603.1640108000762,219.05123162589791" />
    <path d="M 616.11700207456408,243.284573839521 A 280,280 0 0,1 634.60875089447234,294.96554962708609" />
    <path d="M 639.96942279013865,321.91546715249871 A 280,280 0 0,1 643,363" />
    <path d="M 642.66272773744822,376.73894881167706 A 280,280 0 0,1 634.60875089447234,431.03445037291385" />
    <path d="M 603.1640108000762,506.94876837410209 A 280,280 0 0,1 595.81149144471271,518.55966524548853" />
    <path d="M 540.63011956582068,579.44292694156638 A 280,280 0 0,1 529.7958052578814,587.89810881458061" />
    <path d="M 518.55966524548853,595.81149144471271 A 280,280 0 0,1 506.94876837410209,603.1640108000762" />
    <path d="M 457.3291589498217,626.63233825124576 A 280,280 0 0,1 417.625290164516,637.61987851290451" />
    <path d="M 404.08453284750129,639.96942279013865 A 280,280 0 0,1 390.444799292277,641.6517234682151" />
    <path d="M 376.738948811677,642.66272773744822 A 280,280 0 0,1 349.26105118832305,642.66272773744822" />
    <path d="M 308.37470983548405,637.61987851290451 A 280,280 0 0,1 255.84863893777489,621.68626910316038" />
    <path d="M 243.2845738395211,616.1170020745642 A 280,280 0 0,1 231.00891368872067,609.93795401753937" />
    <path d="M 165.01010126776671,560.98989873223331 A 280,280 0 0,1 155.53368490061152,551.03650735716519" />
    <path d="M 146.55707305843373,540.63011956582091 A 280,280 0 0,1 138.10189118541939,529.79580525788128" />
    <path d="M 122.83598919992383,506.94876837410209 A 280,280 0 0,1 109.88299792543592,482.71542616047907" />
    <path d="M 104.31373089683979,470.15136106222531 A 280,280 0 0,1 95.056705994981542,444.27970963124949" />
    <path d="M 91.39124910552772,431.03445037291397 A 280,280 0 0,1 84.348276531784848,390.44479929227691" />
    <path d="M 83,363.00000000000006 A 280,280 0 0,1 83.337272262551721,349.26105118832305" />
    <path d="M 84.348276531784848,335.5552007077232 A 280,280 0 0,1 88.3801214870955,308.37470983548405" />
    <path d="M 95.056705994981485,281.72029036875063 A 280,280 0 0,1 104.31373089683973,255.84863893777481" />
    <path d="M 109.88299792543589,243.284573839521 A 280,280 0 0,1 122.83598919992377,219.05123162589797" />
    <path d="M 130.18850855528726,207.44033475451147 A 280,280 0 0,1 146.55707305843367,185.36988043417924" />
    <path d="M 165.01010126776666,165.01010126776674 A 280,280 0 0,1 174.96349264283478,155.53368490061152" />
    <path d="M 185.36988043417915,146.55707305843376 A 280,280 0 0,1 219.05123162589788,122.83598919992386" />
    <path d="M 268.67084105017841,99.367661748754188 A 280,280 0 0,1 281.72029036875051,95.056705994981542" />
    <path d="M 363,67 A 296,296 0 0,1 377.52403160091575,67.356544963268959" />
    <path d="M 406.43222043878706,70.203753050424837 A 296,296 0 0,1 434.92213325136612,75.870749054415" />
    <path d="M 448.92426446732088,79.74566062326619 A 296,296 0 0,1 462.71939660409714,84.302956705825864" />
    <path d="M 476.27429598006654,89.5316583766591 A 296,296 0 0,1 502.5334341004953,101.95130575288692" />
    <path d="M 527.44878897380227,116.8849947584466 A 296,296 0 0,1 539.32699412976024,125.2505706817291" />
    <path d="M 572.303607231218,153.69639276878192 A 296,296 0 0,1 609.11500524155338,198.55121102619773" />
    <path d="M 616.88766856008056,210.82558771880636 A 296,296 0 0,1 630.5808307645392,236.44369234463647" />
    <path d="M 650.129250945585,291.07786674863382 A 296,296 0 0,1 657.57467909497029,333.98692646245" />
    <path d="M 658.643455036731,348.47596839908425 A 296,296 0 0,1 658.643455036731,377.52403160091575" />
    <path d="M 653.31244299935622,420.74673531677394 A 296,296 0 0,1 641.69704329417414,462.71939660409708" />
    <path d="M 636.46834162334085,476.27429598006654 A 296,296 0 0,1 630.58083076453931,489.55630765536341" />
    <path d="M 600.74942931827093,539.32699412976024 A 296,296 0 0,1 591.81109419537017,550.78041211243908" />
    <path d="M 572.303607231218,572.303607231218 A 296,296 0 0,1 515.17441228119367,616.88766856008056" />
    <path d="M 502.53343410049536,624.04869424711308 A 296,296 0 0,1 476.2742959800666,636.46834162334085" />
    <path d="M 448.92426446732088,646.25433937673381 A 296,296 0 0,1 406.43222043878711,655.79624694957511" />
    <path d="M 392.01307353755,657.57467909497029 A 296,296 0 0,1 348.47596839908437,658.643455036731" />
    <path d="M 319.567779561213,655.79624694957511 A 296,296 0 0,1 291.07786674863394,650.129250945585" />
    <path d="M 249.72570401993346,636.46834162334085 A 296,296 0 0,1 236.44369234463659,630.58083076453931" />
    <path d="M 223.4665658995047,624.04869424711308 A 296,296 0 0,1 198.55121102619782,609.11500524155349" />
    <path d="M 164.21854936528254,582.32153310506783 A 296,296 0 0,1 153.69639276878198,572.30360723121817" />
    <path d="M 134.18890580462994,550.78041211243919 A 296,296 0 0,1 125.25057068172907,539.32699412976024" />
    <path d="M 95.419169235460856,489.55630765536364 A 296,296 0 0,1 89.531658376659209,476.27429598006677" />
    <path d="M 84.302956705825864,462.71939660409708 A 296,296 0 0,1 75.870749054415,434.92213325136618" />
    <path d="M 70.203753050424837,406.43222043878723 A 296,296 0 0,1 67,363.00000000000006" />
    <path d="M 67.356544963268959,348.47596839908437 A 296,296 0 0,1 70.203753050424837,319.56777956121289" />
    <path d="M 75.870749054414944,291.07786674863394 A 296,296 0 0,1 79.745660623266133,277.07573553267923" />
    <path d="M 84.3029567058258,263.280603395903 A 296,296 0 0,1 95.4191692354608,236.44369234463647" />
    <path d="M 109.11233143991942,210.82558771880645 A 296,296 0 0,1 116.88499475844654,198.55121102619785" />
    <path d="M 125.25057068172899,186.67300587023988 A 296,296 0 0,1 175.21958788756081,134.18890580462997" />
    <path d="M 186.67300587023976,125.25057068172907 A 296,296 0 0,1 198.55121102619773,116.88499475844662" />
    <path d="M 210.82558771880633,109.1123314399195 A 296,296 0 0,1 236.44369234463636,95.419169235460856" />
    <path d="M 263.28060339590286,84.302956705825864 A 296,296 0 0,1 277.07573553267912,79.74566062326619" />
    <path d="M 305.25326468322589,72.687557000643835 A 296,296 0 0,1 333.98692646245007,68.425320905029707" />
    <path d="M 378.30911439015443,51.3758176639862 A 312,312 0 0,1 438.80981612981833,60.350249003302281" />
    <path d="M 468.10963425837264,69.23825166289754 A 312,312 0 0,1 510.07578188971127,87.840565523313217" />
    <path d="M 536.33791270211589,103.58148096160591 A 312,312 0 0,1 583.61731573020279,142.38268426979715" />
    <path d="M 604.179261449174,165.0692953409426 A 312,312 0 0,1 622.41851903839415,189.66208729788409" />
    <path d="M 638.15943447668678,215.92421811028868 A 312,312 0 0,1 651.25041414352154,243.602769102092" />
    <path d="M 661.56538474844911,272.43118069660773 A 312,312 0 0,1 671.62307110901168,317.22009196992713" />
    <path d="M 673.49763472172549,332.41865221717705 A 312,312 0 0,1 674.62418233601375,347.69088560984557" />
    <path d="M 675,363 A 312,312 0 0,1 671.62307110901168,408.77990803007282" />
    <path d="M 669.00500748580794,423.868180469032 A 312,312 0 0,1 651.25041414352154,482.397230897908" />
    <path d="M 645.04465945451443,496.397189150248 A 312,312 0 0,1 622.41851903839415,536.33791270211577" />
    <path d="M 604.179261449174,560.93070465905737 A 312,312 0 0,1 560.93070465905737,604.179261449174" />
    <path d="M 548.85818300163919,613.60074982196124 A 312,312 0 0,1 536.33791270211589,622.41851903839415" />
    <path d="M 523.40005618828513,630.6113263200848 A 312,312 0 0,1 510.07578188971132,638.15943447668678" />
    <path d="M 496.397189150248,645.04465945451432 A 312,312 0 0,1 453.56881930339227,661.56538474844911" />
    <path d="M 438.80981612981839,665.64975099669778 A 312,312 0 0,1 423.86818046903215,669.00500748580794" />
    <path d="M 408.77990803007287,671.62307110901168 A 312,312 0 0,1 393.581347782823,673.49763472172549" />
    <path d="M 378.30911439015438,674.62418233601375 A 312,312 0 0,1 347.69088560984568,674.62418233601375" />
    <path d="M 302.13181953096796,669.00500748580794 A 312,312 0 0,1 229.60281084975208,645.04465945451443" />
    <path d="M 215.92421811028873,638.15943447668678 A 312,312 0 0,1 153.47360608773025,594.1767511107472" />
    <path d="M 112.39925017803876,548.85818300163919 A 312,312 0 0,1 95.388673679915144,523.40005618828525" />
    <path d="M 87.840565523313273,510.07578188971138 A 312,312 0 0,1 74.749585856478632,482.39723089790817" />
    <path d="M 64.434615251550838,453.56881930339227 A 312,312 0 0,1 54.376928890988381,408.77990803007305" />
    <path d="M 52.502365278274567,393.58134778282283 A 312,312 0 0,1 52.502365278274567,332.41865221717728" />
    <path d="M 54.376928890988324,317.22009196992707 A 312,312 0 0,1 69.238251662897483,257.89036574162748" />
    <path d="M 74.749585856478575,243.60276910209194 A 312,312 0 0,1 87.840565523313217,215.92421811028876" />
    <path d="M 103.58148096160579,189.66208729788423 A 312,312 0 0,1 153.47360608773016,131.82324888925285" />
    <path d="M 165.06929534094246,121.82073855082618 A 312,312 0 0,1 177.14181699836084,112.39925017803876" />
    <path d="M 189.66208729788411,103.58148096160591 A 312,312 0 0,1 215.92421811028865,87.840565523313273" />
    <path d="M 229.60281084975185,80.95534054548574 A 312,312 0 0,1 287.19018387018161,60.350249003302281" />
    <path d="M 332.41865221717711,52.502365278274567 A 312,312 0 0,1 347.69088560984557,51.3758176639862" />
    <path d="M 314.87240437864114,38.550104731551869 A 328,328 0 0,1 363,35" />
    <path d="M 395.14962202809591,36.579409651519427 A 328,328 0 0,1 426.98962562129009,41.302428027740405" />
    <path d="M 458.21337413946367,49.123569879835486 A 328,328 0 0,1 488.52016581574946,59.967513336297941" />
    <path d="M 517.61812967892729,73.729825293739566 A 328,328 0 0,1 545.22703643042951,90.27796716476513" />
    <path d="M 583.271337189822,119.96803088357339 A 328,328 0 0,1 606.03196911642658,142.72866281017798" />
    <path d="M 616.54742870297775,154.91900279432426 A 328,328 0 0,1 659.50848814448932,222.76192935486745" />
    <path d="M 671.8264533800309,252.50012808735181 A 328,328 0 0,1 676.87643012016451,267.78662586053633" />
    <path d="M 681.17025104781044,283.3025009917294 A 328,328 0 0,1 689.42059034848057,330.85037797190409" />
    <path d="M 691,363 A 328,328 0 0,1 689.42059034848057,395.14962202809591" />
    <path d="M 687.44989526844824,411.12759562135864 A 328,328 0 0,1 684.69757197225954,426.98962562129003" />
    <path d="M 681.17025104781044,442.69749900827054 A 328,328 0 0,1 659.50848814448943,503.23807064513244" />
    <path d="M 652.27017470626038,517.61812967892729 A 328,328 0 0,1 635.72203283523481,545.22703643042951" />
    <path d="M 606.03196911642658,583.271337189822 A 328,328 0 0,1 594.93102422918764,594.93102422918753" />
    <path d="M 558.38937187351814,626.45207032565145 A 328,328 0 0,1 531.62570009537671,644.33498408008927" />
    <path d="M 517.61812967892729,652.27017470626038 A 328,328 0 0,1 503.2380706451325,659.50848814448943" />
    <path d="M 473.49987191264825,671.82645338003078 A 328,328 0 0,1 458.21337413946367,676.87643012016451" />
    <path d="M 426.9896256212902,684.69757197225954 A 328,328 0 0,1 411.12759562135869,687.44989526844813" />
    <path d="M 363.00000000000006,691 A 328,328 0 0,1 346.905802820607,690.60490963529651" />
    <path d="M 330.85037797190415,689.42059034848057 A 328,328 0 0,1 299.01037437870991,684.69757197225954" />
    <path d="M 283.30250099172946,681.17025104781044 A 328,328 0 0,1 252.50012808735181,671.82645338003078" />
    <path d="M 237.47983418425059,666.032486663702 A 328,328 0 0,1 208.38187032107277,652.27017470626038" />
    <path d="M 180.77296356957058,635.72203283523493 A 328,328 0 0,1 119.96803088357348,583.27133718982213" />
    <path d="M 109.45257129702239,571.08099720567589 A 328,328 0 0,1 81.665015919910786,531.62570009537671" />
    <path d="M 73.729825293739566,517.61812967892729 A 328,328 0 0,1 66.491511855510623,503.23807064513267" />
    <path d="M 59.967513336298,488.52016581574964 A 328,328 0 0,1 49.123569879835486,458.21337413946367" />
    <path d="M 41.302428027740461,426.9896256212902 A 328,328 0 0,1 38.550104731551869,411.12759562135886" />
    <path d="M 35,363.00000000000006 A 328,328 0 0,1 35.395090364703435,346.905802820607" />
    <path d="M 38.550104731551869,314.87240437864125 A 328,328 0 0,1 49.123569879835486,267.78662586053645" />
    <path d="M 54.173546619969159,252.50012808735198 A 328,328 0 0,1 59.967513336298,237.47983418425048" />
    <path d="M 73.729825293739509,208.3818703210728 A 328,328 0 0,1 81.665015919910729,194.37429990462334" />
    <path d="M 109.4525712970223,154.91900279432426 A 328,328 0 0,1 119.96803088357342,142.72866281017798" />
    <path d="M 131.06897577081236,131.06897577081247 A 328,328 0 0,1 142.72866281017787,119.96803088357351" />
    <path d="M 167.61062812648191,99.547929674348438 A 328,328 0 0,1 194.37429990462323,81.665015919910786" />
    <path d="M 208.38187032107268,73.729825293739623 A 328,328 0 0,1 222.76192935486733,66.49151185551068" />
    <path d="M 252.50012808735184,54.173546619969159 A 328,328 0 0,1 267.78662586053633,49.123569879835486" />
    <path d="M 283.30250099172935,44.829748952189618 A 328,328 0 0,1 299.0103743787098,41.302428027740461" />
    <path d="M 363,19 A 344,344 0 0,1 396.71789627336886,20.656454024764287" />
    <path d="M 462.85792897553506,33.812524508120134 A 344,344 0 0,1 478.89010956692368,39.108841577040835" />
    <path d="M 510.078952140017,52.027683165535507 A 344,344 0 0,1 525.1604774681432,59.619085064165859" />
    <path d="M 554.11616015874313,76.974453367924411 A 344,344 0 0,1 658.05864184009351,186.14865599753173" />
    <path d="M 666.38091493583408,200.83952253185677 A 344,344 0 0,1 680.81455918388269,231.3568992664091" />
    <path d="M 692.18747549187992,263.14207102446494 A 344,344 0 0,1 696.6907510989231,279.41481811327719" />
    <path d="M 700.39013645871125,295.88892922645186 A 344,344 0 0,1 703.2767194278847,312.52471678735554" />
    <path d="M 705.34354597523566,329.28210372663108 A 344,344 0 0,1 706.58563693457927,346.12072003136814" />
    <path d="M 706.58563693457927,379.87927996863181 A 344,344 0 0,1 680.81455918388269,494.64310073359087" />
    <path d="M 673.97231683446455,510.07895214001695 A 344,344 0 0,1 666.3809149358342,525.1604774681432" />
    <path d="M 658.05864184009363,539.8513440024683 A 344,344 0 0,1 649.0255466320757,554.116160158743" />
    <path d="M 628.91559595678154,581.23128975229406 A 344,344 0 0,1 617.88718712210584,594.01628046737437" />
    <path d="M 606.24473272817238,606.24473272817227 A 344,344 0 0,1 594.01628046737437,617.88718712210584" />
    <path d="M 567.9205607453971,639.30339082934188 A 344,344 0 0,1 539.8513440024683,658.05864184009351" />
    <path d="M 494.64310073359093,680.81455918388269 A 344,344 0 0,1 462.85792897553506,692.18747549187992" />
    <path d="M 363.00000000000006,707 A 344,344 0 0,1 329.28210372663114,705.34354597523566" />
    <path d="M 295.88892922645186,700.39013645871125 A 344,344 0 0,1 279.41481811327725,696.6907510989231" />
    <path d="M 263.14207102446505,692.18747549187992 A 344,344 0 0,1 247.10989043307629,686.89115842295917" />
    <path d="M 215.92104785998305,673.97231683446455 A 344,344 0 0,1 131.98371953262566,617.887187122106" />
    <path d="M 86.696609170658121,567.920560745397 A 344,344 0 0,1 76.974453367924411,554.11616015874313" />
    <path d="M 67.941358159906429,539.8513440024683 A 344,344 0 0,1 59.619085064165915,525.16047746814331" />
    <path d="M 52.027683165535564,510.07895214001718 A 344,344 0 0,1 45.185440816117421,494.64310073359104" />
    <path d="M 39.108841577040835,478.89010956692368 A 344,344 0 0,1 29.3092489010769,446.58518188672286" />
    <path d="M 20.656454024764287,396.71789627336881 A 344,344 0 0,1 19,363.00000000000006" />
    <path d="M 20.65645402476423,329.28210372663136 A 344,344 0 0,1 29.309248901076842,279.41481811327725" />
    <path d="M 33.812524508120134,263.14207102446505 A 344,344 0 0,1 39.108841577040778,247.10989043307646" />
    <path d="M 52.027683165535507,215.92104785998293 A 344,344 0 0,1 59.619085064165859,200.83952253185683" />
    <path d="M 76.974453367924355,171.88383984125696 A 344,344 0 0,1 119.75526727182759,119.75526727182771" />
    <path d="M 131.98371953262557,108.11281287789416 A 344,344 0 0,1 158.079439254603,86.696609170658121" />
    <path d="M 200.83952253185672,59.619085064165915 A 344,344 0 0,1 215.92104785998279,52.027683165535564" />
    <path d="M 295.88892922645175,25.609863541288746 A 344,344 0 0,1 312.52471678735537,22.723280572115357" />
    <path d="M 329.28210372663119,20.656454024764287 A 344,344 0 0,1 346.12072003136819,19.414363065420673" />
    <path d="M 380.66436275787049,3.4336357661379111 A 360,360 0 1,1 363,3" />
  </g>
  <g fill="none" stroke="#000000" stroke-width="2" stroke-linecap="butt">
    <line x1="363" y1="35" x2="363" y2="51" />
    <line x1="363" y1="83" x2="363" y2="99" />
    <line x1="363" y1="275" x2="363" y2="307" />
    <line x1="379.87927996863181" y1="19.414363065420673" x2="378.30911439015443" y2="51.3758176639862" />
    <line x1="377.52403160091575" y1="67.356544963268959" x2="376.73894881167706" y2="83.337272262551721" />
    <line x1="393.58134778282289" y1="52.502365278274567" x2="392.01307353754993" y2="68.425320905029707" />
    <line x1="390.44479929227697" y1="84.348276531784848" x2="388.876525047004" y2="100.27123215853999" />
    <line x1="385.73997655645803" y1="132.11714341205033" x2="384.17170231118507" y2="148.04009903880547" />
    <line x1="382.60342806591211" y1="163.96305466556061" x2="379.46687957536619" y2="195.80896591907091" />
    <line x1="415.82297080393022" y1="6.8964564126788446" x2="411.12759562135864" y2="38.550104731551812" />
    <line x1="404.08453284750129" y1="86.030577209861292" x2="401.73684525621547" y2="101.8574013692978" />
    <line x1="430.11107077354814" y1="25.609863541288746" x2="426.98962562129009" y2="41.302428027740405" />
    <line x1="420.746735316774" y1="72.687557000643778" x2="417.62529016451589" y2="88.3801214870955" />
    <line x1="414.50384501225784" y1="104.07268597354715" x2="408.26095470774175" y2="135.45781494645053" />
    <line x1="405.1395095554837" y1="151.15037943290224" x2="402.01806440322565" y2="166.8429439193539" />
    <line x1="392.65372894645151" y1="213.920637378709" x2="389.53228379419346" y2="229.61320186516065" />
    <line x1="386.41083864193541" y1="245.30576635161236" x2="383.28939348967731" y2="260.998330838064" />
    <line x1="450.472864765175" y1="13.788748849964179" x2="438.80981612981833" y2="60.350249003302281" />
    <line x1="434.92213325136612" y1="75.870749054415" x2="427.14676749446164" y2="106.91174915664038" />
    <line x1="462.85792897553506" y1="33.812524508120191" x2="453.56881930339227" y2="64.434615251550838" />
    <line x1="439.63515479517804" y1="110.36775136669687" x2="421.05693545089247" y2="171.61193285355824" />
    <line x1="416.41238061482107" y1="186.92297822527357" x2="407.12327094267829" y2="217.54506896870427" />
    <line x1="473.49987191264819" y1="54.173546619969159" x2="468.10963425837264" y2="69.238251662897483" />
    <line x1="462.71939660409714" y1="84.302956705825864" x2="451.93892129554609" y2="114.43236679168251" />
    <line x1="494.64310073359093" y1="45.185440816117364" x2="488.52016581574946" y2="59.967513336297941" />
    <line x1="482.397230897908" y1="74.749585856478518" x2="476.27429598006654" y2="89.531658376659152" />
    <line x1="464.02842614438373" y1="119.09580341702031" x2="457.90549122654227" y2="133.87787593720088" />
    <line x1="451.7825563087008" y1="148.65994845738149" x2="445.6596213908594" y2="163.44202097756207" />
    <line x1="433.41375155517653" y1="193.00616601792325" x2="427.29081663733507" y2="207.78823853810383" />
    <line x1="415.0449468016522" y1="237.352383578465" x2="408.9220118838108" y2="252.13445609864559" />
    <line x1="396.67614204812787" y1="281.69860113900677" x2="390.55320713028647" y2="296.48067365918735" />
    <line x1="384.430272212445" y1="311.26274617936792" x2="378.3073372946036" y2="326.0448186995485" />
    <line x1="516.91983363490158" y1="37.56385447556039" x2="496.397189150248" y2="80.955340545485683" />
    <line x1="479.9063907328474" y1="144.28352644160796" x2="449.73699957598353" y2="200.72648735990268" />
    <line x1="548.07698790955976" y1="54.217700399902014" x2="506.94876837410209" y2="122.8359891999238" />
    <line x1="527.44878897380227" y1="116.88499475844662" x2="500.78141778886135" y2="156.79553614896878" />
    <line x1="491.89229406054767" y1="170.0990499458095" x2="474.11404660392043" y2="196.70607753949096" />
    <line x1="447.44667541897957" y1="236.61661893001312" x2="438.55755169066589" y2="249.92013272685387" />
    <line x1="429.66842796235227" y1="263.22364652369458" x2="411.89018050572497" y2="289.830674117376" />
    <line x1="567.9205607453971" y1="86.696609170658121" x2="558.38937187351814" y2="99.547929674348438" />
    <line x1="539.32699412976024" y1="125.2505706817291" x2="520.26461638600244" y2="150.95321168910974" />
    <line x1="571.08099720567566" y1="109.45257129702227" x2="560.93070465905737" y2="121.82073855082606" />
    <line x1="550.78041211243908" y1="134.18890580462985" x2="540.63011956582068" y2="146.55707305843365" />
    <line x1="530.47982701920239" y1="158.92524031223744" x2="489.87865683272912" y2="208.3979093274526" />
    <line x1="469.57807173949243" y1="233.13424383506018" x2="449.2774866462558" y2="257.87057834266778" />
    <line x1="594.01628046737437" y1="108.11281287789407" x2="583.271337189822" y2="119.96803088357342" />
    <line x1="572.52639391226967" y1="131.82324888925277" x2="561.78145063471743" y2="143.67846689493211" />
    <line x1="551.03650735716519" y1="155.53368490061146" x2="540.29156407961284" y2="167.38890290629081" />
    <line x1="617.55844122715712" y1="108.44155877284288" x2="606.24473272817227" y2="119.75526727182765" />
    <line x1="594.93102422918753" y1="131.06897577081239" x2="583.61731573020279" y2="142.38268426979715" />
    <line x1="572.303607231218" y1="153.69639276878192" x2="560.98989873223331" y2="165.01010126776669" />
    <line x1="538.36248173426384" y1="187.63751826573619" x2="515.73506473629425" y2="210.26493526370572" />
    <line x1="481.79393923934" y1="244.20606076066002" x2="470.48023074035518" y2="255.51976925964476" />
    <line x1="425.22539674441617" y1="300.77460325558383" x2="413.91168824543144" y2="312.08831175456856" />
    <line x1="391.2842712474619" y1="334.7157287525381" x2="379.97056274847716" y2="346.02943725152284" />
    <line x1="606.03196911642658" y1="142.72866281017798" x2="582.32153310506783" y2="164.21854936528257" />
    <line x1="570.46631509938857" y1="174.96349264283487" x2="558.61109709370919" y2="185.70843592038716" />
    <line x1="628.91559595678154" y1="144.76871024770594" x2="604.179261449174" y2="165.0692953409426" />
    <line x1="579.44292694156638" y1="185.36988043417927" x2="542.338425180155" y2="215.82075807403425" />
    <line x1="529.97025792635122" y1="225.97105062065256" x2="517.60209067254743" y2="236.12134316727091" />
    <line x1="505.23392341874364" y1="246.27163571388923" x2="492.86575616493985" y2="256.42192826050757" />
    <line x1="600.74942931827081" y1="186.67300587023971" x2="575.04678831089018" y2="205.73538361399756" />
    <line x1="555.9009500541905" y1="234.10770593945227" x2="529.29392246050907" y2="251.88595339607954" />
    <line x1="515.99040866366829" y1="260.77507712439319" x2="489.38338106998685" y2="278.55332458102043" />
    <line x1="644.33498408008927" y1="194.37429990462329" x2="616.88766856008056" y2="210.82558771880639" />
    <line x1="603.1640108000762" y1="219.05123162589794" x2="589.44035304007184" y2="227.27687553298949" />
    <line x1="624.04869424711308" y1="223.46656589950464" x2="609.93795401753937" y2="231.00891368872061" />
    <line x1="567.60573332881836" y1="253.63595705636851" x2="553.49499309924465" y2="261.17830484558448" />
    <line x1="539.384252869671" y1="268.72065263480044" x2="511.16277241052364" y2="283.80534821323238" />
    <line x1="497.05203218094994" y1="291.34769600244834" x2="482.94129195137629" y2="298.89004379166431" />
    <line x1="688.43614552443955" y1="209.08016636509842" x2="673.97231683446444" y2="215.92104785998293" />
    <line x1="659.50848814448943" y1="222.76192935486745" x2="645.04465945451432" y2="229.60281084975196" />
    <line x1="680.81455918388269" y1="231.3568992664091" x2="666.032486663702" y2="237.47983418425054" />
    <line x1="651.25041414352154" y1="243.60276910209197" x2="636.46834162334085" y2="249.7257040199334" />
    <line x1="562.557979022438" y1="280.3403786091406" x2="547.77590650225738" y2="286.463313526982" />
    <line x1="518.21176146189623" y1="298.70918336266493" x2="503.4296889417156" y2="304.83211828050634" />
    <line x1="488.64761642153496" y1="310.9550531983478" x2="459.08347138117381" y2="323.20092303403067" />
    <line x1="444.30139886099323" y1="329.32385795187207" x2="414.73725382063208" y2="341.56972778755494" />
    <line x1="701.95586346588743" y1="241.71965277880076" x2="656.76174833710252" y2="257.89036574162736" />
    <line x1="641.69704329417414" y1="263.28060339590286" x2="626.63233825124576" y2="268.67084105017841" />
    <line x1="661.56538474844911" y1="272.43118069660773" x2="630.94329400501852" y2="281.72029036875057" />
    <line x1="615.63224863330311" y1="286.36484520482196" x2="569.69911251815711" y2="300.29850971303614" />
    <line x1="554.38806714644181" y1="304.94306454910753" x2="539.0770217747264" y2="309.58761938517893" />
    <line x1="523.76597640301111" y1="314.23217422125032" x2="493.14388565958041" y2="323.5212838933931" />
    <line x1="712.21125115003588" y1="275.527135234825" x2="665.64975099669778" y2="287.19018387018161" />
    <line x1="650.129250945585" y1="291.07786674863388" x2="634.60875089447234" y2="294.96554962708609" />
    <line x1="716.082700945163" y1="292.76748407419382" x2="700.39013645871125" y2="295.88892922645186" />
    <line x1="653.31244299935622" y1="305.253264683226" x2="621.9273140264529" y2="311.4961549877421" />
    <line x1="606.23474954000108" y1="314.61760014000015" x2="543.46449159419444" y2="327.1033807490324" />
    <line x1="527.77192710774273" y1="330.22482590129044" x2="512.079362621291" y2="333.34627105354849" />
    <line x1="465.001669161936" y1="342.71060651032263" x2="433.61654018903261" y2="348.95349681483879" />
    <line x1="625.72876784146" y1="337.12347495299593" x2="593.88285658794962" y2="340.26002344354191" />
    <line x1="577.95990096119453" y1="341.82829768881487" x2="546.11398970768425" y2="344.96484617936085" />
    <line x1="706.58563693457927" y1="346.12072003136814" x2="658.643455036731" y2="348.47596839908425" />
    <line x1="642.66272773744822" y1="349.26105118832294" x2="626.68200043816546" y2="350.04613397756162" />
    <line x1="723" y1="363" x2="707" y2="363" />
    <line x1="659" y1="363" x2="643" y2="363" />
    <line x1="627" y1="363" x2="611" y2="363" />
    <line x1="595" y1="363" x2="563" y2="363" />
    <line x1="531" y1="363" x2="515" y2="363" />
    <line x1="483" y1="363" x2="451" y2="363" />
    <line x1="642.66272773744822" y1="376.73894881167706" x2="626.68200043816546" y2="375.95386602243838" />
    <line x1="705.34354597523577" y1="396.71789627336886" x2="689.42059034848057" y2="395.14962202809591" />
    <line x1="673.49763472172549" y1="393.58134778282295" x2="625.72876784146" y2="388.876525047004" />
    <line x1="609.80581221470482" y1="387.30825080173105" x2="577.95990096119453" y2="384.17170231118507" />
    <line x1="562.03694533443945" y1="382.60342806591211" x2="530.19103408092906" y2="379.46687957536619" />
    <line x1="514.268078454174" y1="377.89860533009323" x2="498.34512282741878" y2="376.33033108482027" />
    <line x1="687.44989526844824" y1="411.12759562135864" x2="671.62307110901168" y2="408.77990803007282" />
    <line x1="655.79624694957511" y1="406.43222043878706" x2="639.96942279013865" y2="404.08453284750124" />
    <line x1="684.69757197225954" y1="426.98962562129003" x2="653.31244299935622" y2="420.74673531677394" />
    <line x1="621.9273140264529" y1="414.50384501225784" x2="590.54218505354947" y2="408.26095470774175" />
    <line x1="559.157056080646" y1="402.01806440322565" x2="543.46449159419444" y2="398.8966192509676" />
    <line x1="527.77192710774273" y1="395.77517409870956" x2="465.001669161936" y2="383.28939348967731" />
    <line x1="696.6907510989231" y1="446.58518188672275" x2="681.17025104781044" y2="442.69749900827054" />
    <line x1="646.25433937673392" y1="448.92426446732077" x2="630.94329400501852" y2="444.27970963124937" />
    <line x1="615.63224863330311" y1="439.635154795178" x2="600.32120326158781" y2="434.99059995910659" />
    <line x1="539.0770217747264" y1="416.412380614821" x2="523.76597640301111" y2="411.76782577874962" />
    <line x1="508.45493103129576" y1="407.12327094267823" x2="493.14388565958041" y2="402.47871610660684" />
    <line x1="641.69704329417414" y1="462.71939660409708" x2="611.56763320831749" y2="451.93892129554604" />
    <line x1="666.032486663702" y1="488.52016581574946" x2="651.25041414352154" y2="482.397230897908" />
    <line x1="636.46834162334085" y1="476.27429598006654" x2="606.90419658297969" y2="464.02842614438367" />
    <line x1="592.12212406279912" y1="457.90549122654227" x2="518.21176146189623" y2="427.29081663733507" />
    <line x1="414.73725382063208" y1="384.430272212445" x2="399.9551813004515" y2="378.3073372946036" />
    <line x1="630.58083076453931" y1="489.55630765536341" x2="616.1170020745642" y2="482.71542616047896" />
    <line x1="666.3809149358342" y1="525.1604774681432" x2="652.27017470626038" y2="517.61812967892729" />
    <line x1="638.15943447668678" y1="510.07578188971127" x2="595.82721378796577" y2="487.44873852206342" />
    <line x1="581.71647355839207" y1="479.9063907328474" x2="567.60573332881836" y2="472.36404294363149" />
    <line x1="553.49499309924465" y1="464.82169515441552" x2="511.16277241052364" y2="442.19465178676762" />
    <line x1="671.782299600098" y1="548.07698790955976" x2="658.05864184009363" y2="539.8513440024683" />
    <line x1="616.88766856008056" y1="515.17441228119355" x2="603.1640108000762" y2="506.94876837410209" />
    <line x1="649.0255466320757" y1="554.116160158743" x2="595.81149144471271" y2="518.55966524548853" />
    <line x1="502.68689486682763" y1="456.33579914729313" x2="489.38338106998691" y2="447.44667541897951" />
    <line x1="476.07986727314619" y1="438.55755169066583" x2="462.77635347630547" y2="429.66842796235221" />
    <line x1="652.1547113330322" y1="577.451749617276" x2="600.74942931827093" y2="539.32699412976024" />
    <line x1="587.89810881458061" y1="529.79580525788128" x2="575.04678831089029" y2="520.26461638600244" />
    <line x1="628.91559595678154" y1="581.23128975229406" x2="604.179261449174" y2="560.93070465905737" />
    <line x1="591.81109419537017" y1="550.78041211243908" x2="567.07475968776259" y2="530.47982701920239" />
    <line x1="529.97025792635122" y1="500.02894937934741" x2="517.60209067254743" y2="489.87865683272906" />
    <line x1="505.23392341874364" y1="479.72836428611072" x2="468.12942165733227" y2="449.27748664625574" />
    <line x1="629.74240512778522" y1="604.76122374492661" x2="606.03196911642658" y2="583.271337189822" />
    <line x1="594.1767511107472" y1="572.52639391226978" x2="558.61109709370919" y2="540.29156407961284" />
    <line x1="606.24473272817238" y1="606.24473272817227" x2="594.93102422918764" y2="594.93102422918753" />
    <line x1="572.303607231218" y1="572.303607231218" x2="560.98989873223331" y2="560.98989873223331" />
    <line x1="549.67619023324858" y1="549.67619023324846" x2="538.36248173426384" y2="538.36248173426384" />
    <line x1="459.16652224137044" y1="459.16652224137044" x2="447.85281374238571" y2="447.85281374238571" />
    <line x1="436.53910524340097" y1="436.53910524340097" x2="425.22539674441617" y2="425.22539674441617" />
    <line x1="413.91168824543144" y1="413.91168824543144" x2="391.2842712474619" y2="391.2842712474619" />
    <line x1="583.27133718982213" y1="606.03196911642658" x2="572.52639391226978" y2="594.1767511107472" />
    <line x1="551.03650735716519" y1="570.46631509938845" x2="540.291564079613" y2="558.61109709370908" />
    <line x1="591.38158229891235" y1="641.28376321058533" x2="581.23128975229406" y2="628.91559595678154" />
    <line x1="571.08099720567566" y1="616.54742870297775" x2="560.93070465905737" y2="604.179261449174" />
    <line x1="550.78041211243908" y1="591.81109419537017" x2="540.63011956582068" y2="579.44292694156638" />
    <line x1="520.3295344725841" y1="554.7065924339588" x2="469.57807173949243" y2="492.86575616493985" />
    <line x1="558.38937187351814" y1="626.45207032565145" x2="548.85818300163919" y2="613.60074982196124" />
    <line x1="529.7958052578814" y1="587.89810881458061" x2="520.26461638600244" y2="575.04678831089018" />
    <line x1="518.55966524548865" y1="595.81149144471271" x2="509.67054151717497" y2="582.50797764787194" />
    <line x1="500.78141778886135" y1="569.20446385103128" x2="491.89229406054767" y2="555.9009500541905" />
    <line x1="483.00317033223405" y1="542.59743625734973" x2="474.11404660392043" y2="529.29392246050907" />
    <line x1="465.22492287560681" y1="515.9904086636684" x2="456.33579914729319" y2="502.68689486682763" />
    <line x1="438.55755169066589" y1="476.07986727314619" x2="429.66842796235227" y2="462.77635347630542" />
    <line x1="548.07698790955988" y1="671.782299600098" x2="539.8513440024683" y2="658.05864184009351" />
    <line x1="531.62570009537671" y1="644.33498408008927" x2="515.17441228119367" y2="616.88766856008056" />
    <line x1="525.1604774681432" y1="666.38091493583408" x2="517.61812967892729" y2="652.27017470626038" />
    <line x1="502.53343410049536" y1="624.04869424711308" x2="494.99108631127939" y2="609.93795401753937" />
    <line x1="457.27934736519956" y1="539.384252869671" x2="434.65230399755166" y2="497.05203218094994" />
    <line x1="516.91983363490158" y1="688.43614552443955" x2="510.078952140017" y2="673.97231683446444" />
    <line x1="503.2380706451325" y1="659.50848814448943" x2="475.87454466559444" y2="601.65317338458908" />
    <line x1="494.64310073359093" y1="680.81455918388269" x2="488.52016581574946" y2="666.032486663702" />
    <line x1="470.15136106222519" y1="621.68626910316027" x2="457.90549122654227" y2="592.12212406279912" />
    <line x1="433.41375155517653" y1="532.99383398207669" x2="427.29081663733507" y2="518.21176146189623" />
    <line x1="408.9220118838108" y1="473.86554390135439" x2="402.79907696596933" y2="459.08347138117381" />
    <line x1="396.67614204812793" y1="444.30139886099323" x2="384.43027221244506" y2="414.73725382063208" />
    <line x1="478.8901095669238" y1="686.891158422959" x2="451.93892129554615" y2="611.56763320831749" />
    <line x1="434.9905999591067" y1="600.32120326158781" x2="425.70149028696386" y2="569.69911251815711" />
    <line x1="421.05693545089247" y1="554.3880671464417" x2="411.76782577874968" y2="523.76597640301111" />
    <line x1="446.58518188672281" y1="696.6907510989231" x2="438.80981612981839" y2="665.64975099669778" />
    <line x1="433.2325159258063" y1="716.082700945163" x2="430.11107077354825" y2="700.39013645871125" />
    <line x1="426.9896256212902" y1="684.69757197225954" x2="423.86818046903215" y2="669.00500748580794" />
    <line x1="420.74673531677405" y1="653.31244299935622" x2="417.625290164516" y2="637.61987851290451" />
    <line x1="398.89661925096766" y1="543.46449159419444" x2="395.77517409870961" y2="527.77192710774273" />
    <line x1="392.65372894645157" y1="512.079362621291" x2="386.41083864193541" y2="480.69423364838764" />
    <line x1="383.28939348967737" y1="465.001669161936" x2="377.04650318516127" y2="433.61654018903261" />
    <line x1="415.82297080393028" y1="719.10354358732116" x2="411.12759562135869" y2="687.44989526844824" />
    <line x1="408.77990803007287" y1="671.62307110901168" x2="406.43222043878711" y2="655.79624694957511" />
    <line x1="404.08453284750129" y1="639.96942279013865" x2="401.73684525621553" y2="624.1425986307022" />
    <line x1="396.71789627336892" y1="705.34354597523566" x2="393.581347782823" y2="673.49763472172549" />
    <line x1="388.87652504700407" y1="625.72876784146" x2="387.30825080173111" y2="609.80581221470482" />
    <line x1="385.73997655645809" y1="593.88285658794962" x2="381.03515382063921" y2="546.11398970768425" />
    <line x1="380.66436275787049" y1="722.566364233862" x2="378.30911439015438" y2="674.62418233601375" />
    <line x1="377.52403160091569" y1="658.643455036731" x2="375.95386602243832" y2="626.68200043816546" />
    <line x1="363.00000000000006" y1="691" x2="363.00000000000006" y2="675" />
    <line x1="363.00000000000006" y1="627" x2="363" y2="595" />
    <line x1="363" y1="579" x2="363" y2="563" />
    <line x1="363" y1="547" x2="363" y2="499" />
    <line x1="363" y1="483" x2="363" y2="467" />
    <line x1="363" y1="435" x2="363" y2="419" />
    <line x1="363" y1="403" x2="363" y2="387" />
    <line x1="345.33563724212962" y1="722.566364233862" x2="346.12072003136831" y2="706.58563693457927" />
    <line x1="349.26105118832305" y1="642.66272773744822" x2="350.04613397756174" y2="626.68200043816546" />
    <line x1="329.28210372663114" y1="705.34354597523577" x2="332.41865221717711" y2="673.49763472172549" />
    <line x1="333.98692646245007" y1="657.57467909497029" x2="337.123474952996" y2="625.72876784146" />
    <line x1="338.69174919826895" y1="609.80581221470482" x2="340.26002344354197" y2="593.88285658794962" />
    <line x1="341.82829768881493" y1="577.95990096119453" x2="344.96484617936085" y2="546.11398970768425" />
    <line x1="348.10139466990677" y1="514.268078454174" x2="349.66966891517978" y2="498.34512282741878" />
    <line x1="312.5247167873556" y1="703.2767194278847" x2="314.87240437864142" y2="687.44989526844824" />
    <line x1="317.22009196992718" y1="671.62307110901168" x2="319.567779561213" y2="655.79624694957511" />
    <line x1="321.91546715249876" y1="639.96942279013865" x2="324.26315474378453" y2="624.1425986307022" />
    <line x1="292.76748407419382" y1="716.082700945163" x2="295.88892922645186" y2="700.39013645871125" />
    <line x1="308.37470983548405" y1="637.61987851290451" x2="314.61760014000015" y2="606.23474954000108" />
    <line x1="317.7390452922582" y1="590.54218505354947" x2="320.86049044451624" y2="574.84962056709776" />
    <line x1="336.46771620580654" y1="496.38679813483935" x2="342.71060651032263" y2="465.001669161936" />
    <line x1="279.41481811327725" y1="696.6907510989231" x2="283.30250099172946" y2="681.17025104781044" />
    <line x1="291.07786674863394" y1="650.129250945585" x2="294.96554962708615" y2="634.60875089447234" />
    <line x1="258.49751618839366" y1="707.49852086359522" x2="263.14207102446505" y2="692.18747549187992" />
    <line x1="277.07573553267923" y1="646.25433937673392" x2="281.72029036875063" y2="630.94329400501852" />
    <line x1="286.364845204822" y1="615.63224863330311" x2="291.00940004089341" y2="600.32120326158781" />
    <line x1="300.2985097130362" y1="569.69911251815711" x2="314.23217422125038" y2="523.76597640301111" />
    <line x1="252.50012808735181" y1="671.8264533800309" x2="263.28060339590286" y2="641.69704329417414" />
    <line x1="225.23396434856772" y1="695.59663170406327" x2="237.47983418425059" y2="666.032486663702" />
    <line x1="249.72570401993346" y1="636.46834162334085" x2="261.97157385561633" y2="606.90419658297969" />
    <line x1="304.83211828050639" y1="503.4296889417156" x2="317.07798811618926" y2="473.86554390135444" />
    <line x1="243.2845738395211" y1="616.1170020745642" x2="250.12545533440562" y2="601.65317338458908" />
    <line x1="215.92421811028873" y1="638.15943447668678" x2="231.00891368872067" y2="609.93795401753937" />
    <line x1="291.34769600244834" y1="497.05203218094994" x2="298.89004379166431" y2="482.94129195137629" />
    <line x1="186.14865599753179" y1="658.05864184009363" x2="194.37429990462334" y2="644.33498408008927" />
    <line x1="219.05123162589797" y1="603.1640108000762" x2="227.27687553298952" y2="589.44035304007184" />
    <line x1="207.44033475451144" y1="595.81149144471271" x2="216.32945848282509" y2="582.50797764787194" />
    <line x1="225.21858221113871" y1="569.20446385103128" x2="234.10770593945236" y2="555.90095005419062" />
    <line x1="251.88595339607963" y1="529.29392246050907" x2="269.66420085270687" y2="502.68689486682763" />
    <line x1="305.22069576596141" y1="449.47283967946476" x2="322.99894322258865" y2="422.86581208578326" />
    <line x1="186.67300587023976" y1="600.74942931827093" x2="205.73538361399761" y2="575.04678831089029" />
    <line x1="165.06929534094269" y1="604.179261449174" x2="185.36988043417932" y2="579.44292694156638" />
    <line x1="215.8207580740343" y1="542.338425180155" x2="225.97105062065262" y2="529.97025792635122" />
    <line x1="236.12134316727094" y1="517.60209067254743" x2="246.27163571388928" y2="505.23392341874364" />
    <line x1="256.42192826050757" y1="492.86575616493985" x2="266.57222080712592" y2="480.49758891113606" />
    <line x1="121.23877625507336" y1="629.74240512778533" x2="131.98371953262566" y2="617.887187122106" />
    <line x1="164.21854936528254" y1="582.32153310506783" x2="174.96349264283484" y2="570.46631509938857" />
    <line x1="108.44155877284291" y1="617.55844122715712" x2="119.75526727182768" y2="606.24473272817238" />
    <line x1="131.06897577081244" y1="594.93102422918764" x2="153.69639276878195" y2="572.30360723121817" />
    <line x1="176.32380976675148" y1="549.67619023324858" x2="187.63751826573622" y2="538.36248173426384" />
    <line x1="221.57864376269052" y1="504.42135623730951" x2="232.89235226167526" y2="493.10764773832477" />
    <line x1="255.51976925964479" y1="470.48023074035524" x2="266.83347775862956" y2="459.1665222413705" />
    <line x1="300.77460325558383" y1="425.22539674441617" x2="323.40202025355336" y2="402.59797974644664" />
    <line x1="108.11281287789416" y1="594.01628046737437" x2="167.38890290629087" y2="540.291564079613" />
    <line x1="84.716236789414779" y1="591.38158229891258" x2="97.084404043218569" y2="581.23128975229417" />
    <line x1="109.45257129702239" y1="571.08099720567589" x2="146.55707305843373" y2="540.63011956582091" />
    <line x1="171.29340756604131" y1="520.32953447258421" x2="196.02974207364889" y2="500.02894937934752" />
    <line x1="245.50241108886402" y1="459.4277791928742" x2="257.87057834266784" y2="449.27748664625585" />
    <line x1="138.10189118541939" y1="529.79580525788128" x2="150.95321168910971" y2="520.26461638600233" />
    <line x1="76.974453367924411" y1="554.11616015874313" x2="90.277967164765187" y2="545.22703643042951" />
    <line x1="103.58148096160591" y1="536.33791270211589" x2="143.49202235212806" y2="509.67054151717497" />
    <line x1="156.79553614896878" y1="500.78141778886135" x2="170.0990499458095" y2="491.89229406054767" />
    <line x1="196.70607753949096" y1="474.11404660392043" x2="223.3131051331724" y2="456.33579914729319" />
    <line x1="289.830674117376" y1="411.89018050572497" x2="303.13418791421674" y2="403.00105677741135" />
    <line x1="67.941358159906429" y1="539.8513440024683" x2="81.665015919910786" y2="531.62570009537671" />
    <line x1="95.388673679915144" y1="523.40005618828513" x2="122.83598919992383" y2="506.94876837410209" />
    <line x1="73.729825293739566" y1="517.61812967892729" x2="116.06204598246063" y2="494.99108631127939" />
    <line x1="130.17278621203428" y1="487.44873852206342" x2="144.283526441608" y2="479.90639073284746" />
    <line x1="158.39426667118164" y1="472.36404294363149" x2="200.72648735990271" y2="449.73699957598359" />
    <line x1="214.83722758947636" y1="442.19465178676762" x2="243.05870804862371" y2="427.10995620833569" />
    <line x1="52.027683165535564" y1="510.07895214001718" x2="66.49151185551068" y2="503.23807064513267" />
    <line x1="109.88299792543592" y1="482.71542616047907" x2="124.346826615411" y2="475.87454466559456" />
    <line x1="30.403368295936843" y1="500.7660356514325" x2="45.185440816117421" y2="494.64310073359104" />
    <line x1="59.967513336298" y1="488.52016581574964" x2="74.749585856478632" y2="482.39723089790817" />
    <line x1="89.531658376659209" y1="476.27429598006677" x2="104.31373089683979" y2="470.15136106222531" />
    <line x1="133.87787593720094" y1="457.90549122654238" x2="148.65994845738152" y2="451.782556308701" />
    <line x1="163.44202097756212" y1="445.65962139085951" x2="178.2240934977427" y2="439.53668647301805" />
    <line x1="237.35238357846504" y1="415.04494680165226" x2="281.69860113900677" y2="396.67614204812793" />
    <line x1="296.48067365918735" y1="390.55320713028652" x2="326.04481869954856" y2="378.3073372946036" />
    <line x1="24.044136534112511" y1="484.28034722119918" x2="39.108841577040835" y2="478.89010956692368" />
    <line x1="54.173546619969159" y1="473.49987191264813" x2="84.302956705825864" y2="462.71939660409708" />
    <line x1="99.367661748754188" y1="457.32915894982159" x2="114.43236679168251" y2="451.93892129554604" />
    <line x1="110.36775136669687" y1="439.6351547951781" x2="140.98984211012754" y2="430.34604512303531" />
    <line x1="156.30088748184289" y1="425.70149028696392" x2="202.23402359698892" y2="411.76782577874968" />
    <line x1="29.3092489010769" y1="446.58518188672286" x2="44.829748952189561" y2="442.6974990082706" />
    <line x1="75.870749054415" y1="434.92213325136618" x2="106.91174915664038" y2="427.14676749446176" />
    <line x1="25.609863541288746" y1="430.11107077354825" x2="72.687557000643835" y2="420.74673531677411" />
    <line x1="151.15037943290224" y1="405.13950955548381" x2="182.53550840580562" y2="398.89661925096766" />
    <line x1="229.61320186516068" y1="389.53228379419352" x2="245.30576635161236" y2="386.41083864193541" />
    <line x1="260.998330838064" y1="383.28939348967737" x2="276.69089532451574" y2="380.16794833741932" />
    <line x1="6.8964564126789014" y1="415.82297080393045" x2="22.723280572115357" y2="413.47528321264463" />
    <line x1="54.376928890988381" y1="408.77990803007305" x2="70.203753050424837" y2="406.43222043878723" />
    <line x1="86.030577209861349" y1="404.08453284750146" x2="101.85740136929786" y2="401.73684525621564" />
    <line x1="20.65645402476423" y1="396.71789627336881" x2="52.502365278274567" y2="393.58134778282283" />
    <line x1="132.11714341205033" y1="385.73997655645803" x2="163.96305466556061" y2="382.60342806591211" />
    <line x1="35.395090364703435" y1="379.09419717939312" x2="51.3758176639862" y2="378.30911439015443" />
    <line x1="67.356544963268959" y1="377.52403160091575" x2="83.337272262551721" y2="376.73894881167706" />
    <line x1="35" y1="363.00000000000006" x2="67" y2="363.00000000000006" />
    <line x1="83" y1="363.00000000000006" x2="147" y2="363.00000000000006" />
    <line x1="211" y1="363" x2="243" y2="363" />
    <line x1="275" y1="363" x2="291" y2="363" />
    <line x1="307" y1="363" x2="339" y2="363" />
    <line x1="19.414363065420673" y1="346.12072003136831" x2="35.395090364703435" y2="346.905802820607" />
    <line x1="67.356544963268959" y1="348.47596839908437" x2="99.317999561834483" y2="350.04613397756174" />
    <line x1="4.73349839800909" y1="327.71382948135835" x2="36.579409651519427" y2="330.85037797190432" />
    <line x1="52.502365278274567" y1="332.41865221717723" x2="68.425320905029707" y2="333.98692646245024" />
    <line x1="100.27123215853999" y1="337.12347495299616" x2="116.19418778529516" y2="338.69174919826912" />
    <line x1="132.11714341205033" y1="340.26002344354208" x2="148.04009903880547" y2="341.82829768881504" />
    <line x1="179.88601029231577" y1="344.96484617936096" x2="195.80896591907091" y2="346.53312042463392" />
    <line x1="211.73192154582605" y1="348.10139466990688" x2="227.65487717258122" y2="349.66966891517984" />
    <line x1="70.203753050424837" y1="319.56777956121289" x2="86.030577209861349" y2="321.91546715249865" />
    <line x1="25.609863541288746" y1="295.88892922645186" x2="41.302428027740405" y2="299.01037437870991" />
    <line x1="56.99499251419212" y1="302.13181953096796" x2="72.687557000643778" y2="305.253264683226" />
    <line x1="135.45781494645053" y1="317.73904529225825" x2="182.53550840580562" y2="327.1033807490324" />
    <line x1="198.22807289225727" y1="330.22482590129044" x2="213.920637378709" y2="333.34627105354849" />
    <line x1="245.30576635161236" y1="339.58916135806459" x2="292.38345981096739" y2="348.95349681483879" />
    <line x1="75.870749054415" y1="291.07786674863394" x2="106.91174915664038" y2="298.85323250553836" />
    <line x1="18.501479136404782" y1="258.49751618839366" x2="33.812524508120134" y2="263.14207102446505" />
    <line x1="140.98984211012754" y1="295.6539548769648" x2="232.8561143404196" y2="323.52128389339316" />
    <line x1="54.173546619969159" y1="252.50012808735198" x2="69.238251662897483" y2="257.89036574162748" />
    <line x1="45.185440816117421" y1="231.35689926640904" x2="74.749585856478575" y2="243.60276910209191" />
    <line x1="104.31373089683973" y1="255.84863893777481" x2="148.65994845738149" y2="274.21744369129914" />
    <line x1="163.4420209775621" y1="280.34037860914054" x2="237.35238357846504" y2="310.95505319834774" />
    <line x1="266.91652861882619" y1="323.20092303403067" x2="296.48067365918735" y2="335.44679286971353" />
    <line x1="52.027683165535507" y1="215.92104785998293" x2="66.491511855510566" y2="222.76192935486745" />
    <line x1="95.4191692354608" y1="236.44369234463647" x2="109.88299792543586" y2="243.284573839521" />
    <line x1="59.619085064165859" y1="200.83952253185683" x2="101.95130575288692" y2="223.4665658995047" />
    <line x1="158.39426667118164" y1="253.63595705636857" x2="186.615747130329" y2="268.7206526348005" />
    <line x1="200.72648735990268" y1="276.26300042401647" x2="214.83722758947636" y2="283.80534821323238" />
    <line x1="54.217700399902014" y1="177.92301209044024" x2="67.941358159906372" y2="186.14865599753179" />
    <line x1="81.665015919910729" y1="194.37429990462334" x2="122.83598919992377" y2="219.05123162589797" />
    <line x1="76.974453367924355" y1="171.88383984125696" x2="103.58148096160579" y2="189.66208729788423" />
    <line x1="116.88499475844654" y1="198.55121102619785" x2="143.492022352128" y2="216.32945848282512" />
    <line x1="183.40256374265019" y1="242.996829667766" x2="223.31310513317237" y2="269.66420085270687" />
    <line x1="249.92013272685381" y1="287.44244830933417" x2="289.830674117376" y2="314.10981949427503" />
    <line x1="86.696609170658007" y1="158.07943925460307" x2="99.547929674348325" y2="167.610628126482" />
    <line x1="138.10189118541933" y1="196.20419474211877" x2="150.95321168910965" y2="205.7353836139977" />
    <line x1="109.4525712970223" y1="154.91900279432426" x2="121.82073855082609" y2="165.06929534094257" />
    <line x1="134.18890580462988" y1="175.21958788756089" x2="146.55707305843367" y2="185.36988043417924" />
    <line x1="196.02974207364883" y1="225.97105062065256" x2="257.87057834266778" y2="276.7225133537442" />
    <line x1="155.53368490061146" y1="174.96349264283487" x2="167.38890290629081" y2="185.70843592038716" />
    <line x1="131.06897577081236" y1="131.06897577081247" x2="142.38268426979712" y2="142.38268426979724" />
    <line x1="153.69639276878189" y1="153.69639276878198" x2="165.01010126776666" y2="165.01010126776674" />
    <line x1="187.63751826573616" y1="187.63751826573625" x2="210.2649352637057" y2="210.26493526370578" />
    <line x1="221.57864376269046" y1="221.57864376269052" x2="232.89235226167523" y2="232.89235226167529" />
    <line x1="266.8334777586295" y1="266.83347775862956" x2="300.77460325558383" y2="300.77460325558383" />
    <line x1="312.08831175456856" y1="312.08831175456862" x2="323.40202025355336" y2="323.40202025355336" />
    <line x1="334.7157287525381" y1="334.7157287525381" x2="346.02943725152284" y2="346.02943725152284" />
    <line x1="131.98371953262557" y1="108.11281287789416" x2="142.72866281017787" y2="119.96803088357348" />
    <line x1="174.96349264283478" y1="155.53368490061152" x2="185.70843592038708" y2="167.38890290629087" />
    <line x1="144.7687102477058" y1="97.084404043218569" x2="185.36988043417915" y2="146.55707305843373" />
    <line x1="195.52017298079747" y1="158.92524031223752" x2="225.97105062065248" y2="196.02974207364889" />
    <line x1="246.27163571388917" y1="220.76607658125644" x2="256.42192826050746" y2="233.13424383506023" />
    <line x1="266.5722208071258" y1="245.50241108886402" x2="276.72251335374415" y2="257.87057834266784" />
    <line x1="162.99471611294322" y1="63.670939571083693" x2="180.77296356957049" y2="90.277967164765187" />
    <line x1="189.66208729788411" y1="103.58148096160591" x2="198.55121102619776" y2="116.88499475844662" />
    <line x1="251.88595339607957" y1="196.70607753949096" x2="260.77507712439319" y2="210.00959133633168" />
    <line x1="287.44244830933411" y1="249.92013272685387" x2="314.10981949427503" y2="289.830674117376" />
    <line x1="177.92301209044013" y1="54.217700399902071" x2="186.14865599753168" y2="67.941358159906429" />
    <line x1="202.59994381171478" y1="95.388673679915144" x2="210.82558771880633" y2="109.11233143991947" />
    <line x1="193.29717474264075" y1="45.508344834592265" x2="200.83952253185672" y2="59.619085064165915" />
    <line x1="208.38187032107268" y1="73.729825293739623" x2="215.92421811028865" y2="87.840565523313273" />
    <line x1="223.46656589950462" y1="101.95130575288698" x2="246.09360926715252" y2="144.283526441608" />
    <line x1="253.63595705636848" y1="158.39426667118167" x2="276.26300042401635" y2="200.72648735990271" />
    <line x1="283.80534821323238" y1="214.83722758947639" x2="291.34769600244829" y2="228.94796781905006" />
    <line x1="222.76192935486733" y1="66.49151185551068" x2="229.60281084975185" y2="80.95534054548574" />
    <line x1="236.44369234463636" y1="95.419169235460856" x2="250.12545533440542" y2="124.346826615411" />
    <line x1="225.23396434856747" y1="30.403368295936843" x2="261.97157385561616" y2="119.09580341702036" />
    <line x1="280.34037860914049" y1="163.44202097756212" x2="286.46331352698189" y2="178.2240934977427" />
    <line x1="298.70918336266482" y1="207.78823853810386" x2="323.20092303403061" y2="266.91652861882619" />
    <line x1="329.323857951872" y1="281.69860113900677" x2="335.44679286971348" y2="296.48067365918735" />
    <line x1="341.56972778755494" y1="311.26274617936792" x2="347.6926627053964" y2="326.04481869954856" />
    <line x1="241.71965277880082" y1="24.044136534112511" x2="252.50012808735184" y2="54.173546619969159" />
    <line x1="263.28060339590286" y1="84.302956705825864" x2="274.06107870445391" y2="114.43236679168251" />
    <line x1="263.14207102446488" y1="33.812524508120191" x2="267.78662586053633" y2="49.123569879835486" />
    <line x1="286.3648452048219" y1="110.36775136669687" x2="291.0094000408933" y2="125.67879673841222" />
    <line x1="309.58761938517887" y1="186.92297822527357" x2="314.23217422125032" y2="202.23402359698892" />
    <line x1="318.87672905732171" y1="217.54506896870427" x2="323.5212838933931" y2="232.8561143404196" />
    <line x1="275.52713523482487" y1="13.788748849964179" x2="283.30250099172935" y2="44.829748952189561" />
    <line x1="287.19018387018156" y1="60.350249003302281" x2="294.96554962708603" y2="91.391249105527663" />
    <line x1="299.0103743787098" y1="41.302428027740461" x2="302.13181953096785" y2="56.99499251419212" />
    <line x1="305.25326468322589" y1="72.687557000643835" x2="311.496154987742" y2="104.07268597354721" />
    <line x1="320.86049044451619" y1="151.15037943290224" x2="327.10338074903234" y2="182.53550840580562" />
    <line x1="330.22482590129039" y1="198.2280728922573" x2="336.46771620580648" y2="229.61320186516068" />
    <line x1="342.71060651032263" y1="260.998330838064" x2="345.83205166258068" y2="276.69089532451574" />
    <line x1="312.52471678735532" y1="22.723280572115357" x2="319.56777956121272" y2="70.203753050424837" />
    <line x1="321.91546715249854" y1="86.030577209861349" x2="324.2631547437843" y2="101.85740136929786" />
    <line x1="327.71382948135823" y1="4.73349839800909" x2="329.28210372663119" y2="20.65645402476423" />
    <line x1="332.41865221717711" y1="52.502365278274567" x2="333.98692646245007" y2="68.425320905029707" />
    <line x1="338.691749198269" y1="116.19418778529516" x2="341.82829768881493" y2="148.04009903880547" />
    <line x1="344.96484617936085" y1="179.88601029231577" x2="346.53312042463381" y2="195.80896591907091" />
    <line x1="346.12072003136819" y1="19.414363065420673" x2="346.90580282060688" y2="35.395090364703435" />
    <line x1="347.69088560984557" y1="51.3758176639862" x2="349.26105118832294" y2="83.337272262551721" />
  </g>
  <path fill="none" stroke="#ff0000" stroke-width="2" stroke-linecap="square" stroke-linejoin="round" d="M 371.83484226824839,3.108425269366478 L 371.63851244006514,11.1060158189361 A 352,352 0 0,0 354.3614875599348,11.1060158189361 L 354.75414721630142,27.101196918075402 A 336,336 0 0,1 371.24585278369852,27.101196918075402 L 370.46053347096534,59.091559116353892 A 304,304 0 0,1 385.36362733429888,59.8237011696782 L 384.1865943167042,75.7803484765372 A 288,288 0 0,1 398.25427445737427,77.165894035571512 L 394.33713285099935,108.92523914273025 A 256,256 0 0,0 325.43699853942724,109.77081344901609 L 327.78468613071306,125.5976376084526 A 240,240 0 0,0 239.61534139362675,157.14513359993472 L 231.3896974865352,143.42147583993037 A 256,256 0 0,0 215.59310299703162,153.69828783319457 L 206.3801719343461,140.61693082276923 A 272,272 0 0,1 228.93169171349868,126.33633841843053 L 221.04532063782213,112.41494656069114 A 288,288 0 0,0 185.81330191277934,135.9562288435375 L 175.9695964634893,123.34268600151182 A 304,304 0 0,1 187.95430980897504,114.45421680191853 L 178.74137874628951,101.37285979149323 A 320,320 0 0,0 166.12589101419925,110.72914315948611 L 156.28218556490921,98.1156003174604 A 336,336 0 0,1 169.528447683604,88.291502781067834 L 160.31551662091849,75.2101457706425 A 352,352 0 0,0 65.611545032103038,174.68083779974188 L 79.129202076098352,183.24079971793543 A 336,336 0 0,0 70.650770987472924,197.38620741079262 L 56.729379129733559,189.49983633511607 A 352,352 0 0,0 34.586534810171827,236.31694713968437 L 49.514419591527655,242.07526772424416 A 336,336 0 0,0 43.958531320739667,257.6029352259726 L 59.150982210228221,262.62184307235486 A 320,320 0 0,0 43.867053862819148,339.45933964810655 L 11.95375924910104,337.10527361291724 A 352,352 0 0,0 13.647203821254095,406.08855767012403 L 29.526876374833421,404.12998686693658 A 336,336 0 0,0 31.946712157315744,420.44319462346135 L 16.1822698790927,423.1785848436262 A 352,352 0 0,0 19.552850226437954,440.12363653521828 L 50.775318387670893,433.11239685019842 A 320,320 0 0,0 59.150982210228278,463.37815692764525 L 74.343433099716833,458.359249081263 A 304,304 0 0,1 66.386552468287334,429.60677700768849 L 81.997786548903775,426.10115716517862 A 288,288 0 0,1 75.7803484765372,384.1865943167042 L 91.736995783396253,383.00956129910952 A 272,272 0 0,0 93.0455665891509,396.29570365418675 L 108.92523914273022,394.3371328509993 A 256,256 0 0,0 116.2733271563674,431.278465913574 L 85.432493050913308,439.81327415277076 A 288,288 0 0,0 94.2980739355952,466.64977052207655 L 79.37018915423937,472.40809110663633 A 304,304 0 0,0 91.459812436563368,499.68184421500052 L 105.75140125569163,492.48806294052679 A 288,288 0 0,1 99.707590357383253,479.7094984334372 L 114.33494644863973,473.22563740935738 A 272,272 0 0,1 109.225958716951,460.89144993751671 L 124.15384349830683,455.13312935295693 A 256,256 0 0,1 121.96471931314667,449.24380246840832 L 152.09412939900335,438.46332715985727 A 224,224 0 0,1 141.42446176788909,395.86762627800118 L 173.07811008676208,391.17225109542954 A 192,192 0 0,1 173.07811008676205,334.82774890457051 L 204.73175840563505,339.52312408714209 A 160,160 0 0,0 203.19272700717241,355.1491721076132 L 235.15418160573793,356.71933768609051 A 128,128 0 0,1 250.11407816341057,302.66121768627232 L 264.22481839298422,310.20356547548829 A 112,112 0 0,0 255.82268239799259,330.48811614750025 L 301.75581851313865,344.42178065571443 A 64,64 0 0,0 300.22974205419325,375.48578060903225 L 331.61487102709663,369.2428903045161 A 32,32 0 0,0 350.75413016431713,392.56414504036115 L 353.81559762323786,385.17310878027087" />
  <type>Circular</type>
</svg>