<?xml version="1.0" encoding="utf-8" standalone="no"?>
<!DOCTYPE svg PUBLIC "-//W3C//DTD SVG 1.1//EN" "http://www.w3.org/Graphics/SVG/1.1/DTD/svg11.dtd"[]>
<svg width="724" height="724" version="1.1" xmlns="http://www.w3.org/2000/svg">
  <title>45 cells diameter theta maze</title>
  <g fill="none" stroke="#000000" stroke-width="2" stroke-linecap="square">
    <path d="M 346.02943725152284,379.97056274847716 A 24,24 0 1,1 363,387" />
    <path d="M 347.6926627053964,326.04481869954856 A 40,40 0 0,1 363,323" />
    <path d="M 391.2842712474619,334.7157287525381 A 40,40 0 0,1 399.9551813004515,378.3073372946036" />
    <path d="M 391.2842712474619,391.2842712474619 A 40,40 0 0,1 323,363" />
    <path d="M 326.04481869954856,347.6926627053964 A 40,40 0 0,1 334.7157287525381,334.7157287525381" />
    <path d="M 384.430272212445,311.26274617936792 A 56,56 0 0,1 414.73725382063208,341.569727787555" />
    <path d="M 414.73725382063208,384.430272212445 A 56,56 0 0,1 341.569727787555,414.73725382063208" />
    <path d="M 323.40202025355336,402.59797974644664 A 56,56 0 0,1 311.26274617936792,341.56972778755494" />
    <path d="M 312.08831175456856,312.08831175456856 A 72,72 0 0,1 377.04650318516121,292.38345981096739" />
    <path d="M 390.55320713028647,296.48067365918735 A 72,72 0 0,1 433.61654018903261,377.04650318516121" />
    <path d="M 429.51932634081265,390.55320713028647 A 72,72 0 0,1 422.86581208578326,403.00105677741135" />
    <path d="M 413.91168824543144,413.91168824543144 A 72,72 0 0,1 403.00105677741135,422.86581208578326" />
    <path d="M 390.55320713028647,429.51932634081265 A 72,72 0 0,1 377.04650318516127,433.61654018903261" />
    <path d="M 363,435 A 72,72 0 0,1 348.95349681483879,433.61654018903261" />
    <path d="M 335.44679286971353,429.51932634081265 A 72,72 0 0,1 291,363" />
    <path d="M 292.38345981096739,348.95349681483879 A 72,72 0 0,1 303.13418791421674,322.99894322258865" />
    <path d="M 411.89018050572497,289.830674117376 A 88,88 0 0,1 449.30910467548426,345.83205166258068" />
    <path d="M 449.30910467548426,380.16794833741926 A 88,88 0 0,1 425.22539674441617,425.22539674441617" />
    <path d="M 411.89018050572497,436.169325882624 A 88,88 0 0,1 396.67614204812793,444.30139886099323" />
    <path d="M 380.16794833741932,449.30910467548426 A 88,88 0 0,1 314.10981949427503,436.169325882624" />
    <path d="M 300.77460325558383,425.22539674441617 A 88,88 0 0,1 289.830674117376,411.89018050572497" />
    <path d="M 276.69089532451574,380.16794833741932 A 88,88 0 0,1 300.77460325558383,300.77460325558383" />
    <path d="M 314.10981949427503,289.830674117376 A 88,88 0 0,1 329.323857951872,281.69860113900677" />
    <path d="M 363,259 A 104,104 0 0,1 420.77930423403865,276.5271603205353" />
    <path d="M 465.001669161936,383.28939348967731 A 104,104 0 0,1 449.47283967946476,420.77930423403859" />
    <path d="M 402.79907696596933,459.08347138117381 A 104,104 0 0,1 383.28939348967737,465.001669161936" />
    <path d="M 363,467 A 104,104 0 0,1 323.20092303403067,459.08347138117381" />
    <path d="M 276.5271603205353,420.77930423403865 A 104,104 0 0,1 260.998330838064,383.28939348967737" />
    <path d="M 317.07798811618915,252.13445609864561 A 120,120 0 0,1 408.9220118838108,252.13445609864559" />
    <path d="M 462.77635347630542,296.33157203764773 A 120,120 0 0,1 480.69423364838764,339.58916135806459" />
    <path d="M 462.77635347630542,429.66842796235221 A 120,120 0 0,1 363,483" />
    <path d="M 317.07798811618926,473.86554390135439 A 120,120 0 0,1 263.22364652369458,429.66842796235227" />
    <path d="M 245.30576635161236,339.58916135806459 A 120,120 0 0,1 263.22364652369453,296.33157203764779" />
    <path d="M 278.14718625761429,278.14718625761429 A 120,120 0 0,1 296.33157203764773,263.22364652369458" />
    <path d="M 323.5212838933931,232.8561143404196 A 136,136 0 0,1 376.33033108482022,227.65487717258122" />
    <path d="M 389.53228379419346,229.61320186516065 A 136,136 0 0,1 402.4787161066069,232.8561143404196" />
    <path d="M 415.0449468016522,237.35238357846498 A 136,136 0 0,1 427.10995620833569,243.05870804862371" />
    <path d="M 438.55755169066589,249.92013272685387 A 136,136 0 0,1 449.2774866462558,257.87057834266778" />
    <path d="M 459.16652224137044,266.83347775862956 A 136,136 0 0,1 488.64761642153496,310.9550531983478" />
    <path d="M 498.34512282741878,349.66966891517973 A 136,136 0 0,1 488.647616421535,415.0449468016522" />
    <path d="M 482.94129195137629,427.10995620833569 A 136,136 0 0,1 468.12942165733227,449.27748664625574" />
    <path d="M 459.16652224137044,459.16652224137044 A 136,136 0 0,1 415.0449468016522,488.64761642153496" />
    <path d="M 402.4787161066069,493.14388565958041 A 136,136 0 0,1 389.53228379419352,496.3867981348393" />
    <path d="M 376.33033108482027,498.34512282741878 A 136,136 0 0,1 310.9550531983478,488.647616421535" />
    <path d="M 298.89004379166431,482.94129195137629 A 136,136 0 0,1 237.35238357846504,415.04494680165226" />
    <path d="M 232.8561143404196,402.4787161066069 A 136,136 0 0,1 227,363" />
    <path d="M 227.65487717258122,349.66966891517984 A 136,136 0 0,1 237.352383578465,310.95505319834774" />
    <path d="M 243.05870804862371,298.89004379166431 A 136,136 0 0,1 298.89004379166431,243.05870804862374" />
    <path d="M 348.10139466990682,211.73192154582608 A 152,152 0 0,1 363,211" />
    <path d="M 377.89860533009323,211.73192154582608 A 152,152 0 0,1 407.12327094267829,217.54506896870424" />
    <path d="M 421.16788171949366,222.5703110582844 A 152,152 0 0,1 447.44667541897957,236.61661893001312" />
    <path d="M 459.42777919287414,245.502411088864 A 152,152 0 0,1 470.48023074035524,255.51976925964476" />
    <path d="M 497.05203218094994,291.34769600244834 A 152,152 0 0,1 508.45493103129576,318.87672905732171" />
    <path d="M 514.268078454174,348.10139466990677 A 152,152 0 0,1 515,363" />
    <path d="M 514.268078454174,377.89860533009323 A 152,152 0 0,1 512.079362621291,392.65372894645151" />
    <path d="M 508.45493103129576,407.12327094267823 A 152,152 0 0,1 497.05203218094994,434.65230399755166" />
    <path d="M 480.49758891113606,459.42777919287408 A 152,152 0 0,1 459.42777919287414,480.497588911136" />
    <path d="M 434.65230399755166,497.05203218094994 A 152,152 0 0,1 421.16788171949366,503.42968894171554" />
    <path d="M 392.65372894645157,512.079362621291 A 152,152 0 0,1 377.89860533009323,514.268078454174" />
    <path d="M 363,515 A 152,152 0 0,1 333.34627105354849,512.079362621291" />
    <path d="M 318.87672905732177,508.45493103129576 A 152,152 0 0,1 291.34769600244834,497.05203218094994" />
    <path d="M 266.57222080712592,480.49758891113606 A 152,152 0 0,1 245.50241108886402,459.42777919287414" />
    <path d="M 236.61661893001312,447.44667541897951 A 152,152 0 0,1 228.94796781905006,434.65230399755171" />
    <path d="M 222.57031105828446,421.16788171949372 A 152,152 0 0,1 213.920637378709,392.65372894645157" />
    <path d="M 211.73192154582608,377.89860533009318 A 152,152 0 0,1 211.73192154582605,348.10139466990688" />
    <path d="M 213.92063737870896,333.34627105354849 A 152,152 0 0,1 217.54506896870424,318.87672905732177" />
    <path d="M 222.57031105828443,304.83211828050634 A 152,152 0 0,1 228.94796781905004,291.3476960024484" />
    <path d="M 245.502411088864,266.57222080712586 A 152,152 0 0,1 333.34627105354843,213.920637378709" />
    <path d="M 256.42192826050746,233.13424383506026 A 168,168 0 0,1 395.77517409870956,198.22807289225727" />
    <path d="M 411.76782577874968,202.23402359698892 A 168,168 0 0,1 427.29081663733507,207.78823853810383" />
    <path d="M 442.19465178676762,214.83722758947636 A 168,168 0 0,1 469.57807173949243,233.13424383506018" />
    <path d="M 481.79393923934,244.20606076066002 A 168,168 0 0,1 492.8657561649398,256.42192826050757" />
    <path d="M 502.68689486682763,269.66420085270681 A 168,168 0 0,1 518.21176146189623,298.70918336266493" />
    <path d="M 523.76597640301111,314.23217422125032 A 168,168 0 0,1 530.19103408092906,346.53312042463381" />
    <path d="M 527.77192710774273,395.77517409870956 A 168,168 0 0,1 523.76597640301111,411.76782577874962" />
    <path d="M 518.21176146189623,427.29081663733507 A 168,168 0 0,1 481.79393923934,481.79393923934" />
    <path d="M 469.57807173949243,492.86575616493985 A 168,168 0 0,1 363,531" />
    <path d="M 214.83722758947639,442.19465178676762 A 168,168 0 0,1 198.22807289225727,330.22482590129044" />
    <path d="M 202.23402359698889,314.23217422125038 A 168,168 0 0,1 207.78823853810386,298.70918336266487" />
    <path d="M 223.31310513317237,269.66420085270687 A 168,168 0 0,1 233.1342438350602,256.42192826050757" />
    <path d="M 344.96484617936085,179.88601029231577 A 184,184 0 0,1 398.8966192509676,182.53550840580559" />
    <path d="M 433.41375155517653,193.00616601792325 A 184,184 0 0,1 465.22492287560681,210.00959133633168" />
    <path d="M 479.72836428611078,220.76607658125639 A 184,184 0 0,1 493.10764773832477,232.89235226167526" />
    <path d="M 505.23392341874359,246.27163571388923 A 184,184 0 0,1 539.0770217747264,309.58761938517893" />
    <path d="M 546.11398970768425,344.96484617936085 A 184,184 0 0,1 546.11398970768425,381.03515382063915" />
    <path d="M 539.0770217747264,416.412380614821 A 184,184 0 0,1 525.27351264009735,449.73699957598359" />
    <path d="M 515.9904086636684,465.22492287560675 A 184,184 0 0,1 505.23392341874364,479.72836428611072" />
    <path d="M 493.10764773832477,493.10764773832477 A 184,184 0 0,1 479.72836428611078,505.23392341874364" />
    <path d="M 465.22492287560681,515.9904086636684 A 184,184 0 0,1 433.41375155517653,532.99383398207669" />
    <path d="M 398.89661925096766,543.46449159419444 A 184,184 0 0,1 381.03515382063921,546.11398970768425" />
    <path d="M 363,547 A 184,184 0 0,1 344.96484617936085,546.11398970768425" />
    <path d="M 327.1033807490324,543.46449159419444 A 184,184 0 0,1 309.587619385179,539.0770217747264" />
    <path d="M 292.58624844482352,532.99383398207681 A 184,184 0 0,1 260.77507712439325,515.9904086636684" />
    <path d="M 232.89235226167529,493.10764773832477 A 184,184 0 0,1 220.76607658125647,479.72836428611083" />
    <path d="M 210.00959133633168,465.22492287560681 A 184,184 0 0,1 193.00616601792328,433.41375155517665" />
    <path d="M 186.92297822527357,416.41238061482107 A 184,184 0 0,1 182.53550840580562,398.89661925096766" />
    <path d="M 179.88601029231577,381.03515382063915 A 184,184 0 0,1 179.88601029231577,344.96484617936096" />
    <path d="M 182.53550840580559,327.1033807490324 A 184,184 0 0,1 210.00959133633162,260.77507712439325" />
    <path d="M 220.76607658125641,246.27163571388923 A 184,184 0 0,1 309.58761938517893,186.92297822527357" />
    <path d="M 323.98193559677424,166.84294391935393 A 200,200 0 0,1 457.27934736519956,186.615747130329" />
    <path d="M 474.11404660392043,196.70607753949096 A 200,200 0 0,1 489.87865683272912,208.3979093274526" />
    <path d="M 504.42135623730951,221.57864376269049 A 200,200 0 0,1 517.60209067254732,236.12134316727088" />
    <path d="M 554.38806714644181,304.94306454910753 A 200,200 0 0,1 562.03694533443934,343.39657193408783" />
    <path d="M 562.03694533443934,382.60342806591211 A 200,200 0 0,1 559.157056080646,402.01806440322565" />
    <path d="M 547.77590650225738,439.53668647301794 A 200,200 0 0,1 517.60209067254743,489.87865683272906" />
    <path d="M 504.42135623730951,504.42135623730951 A 200,200 0 0,1 474.11404660392043,529.29392246050907" />
    <path d="M 457.27934736519956,539.384252869671 A 200,200 0 0,1 402.01806440322571,559.157056080646" />
    <path d="M 382.60342806591217,562.03694533443934 A 200,200 0 0,1 363,563" />
    <path d="M 343.39657193408789,562.03694533443934 A 200,200 0 0,1 304.94306454910759,554.38806714644181" />
    <path d="M 286.46331352698206,547.77590650225738 A 200,200 0 0,1 268.72065263480044,539.384252869671" />
    <path d="M 251.88595339607963,529.29392246050907 A 200,200 0 0,1 208.39790932745268,489.87865683272918" />
    <path d="M 186.61574713032903,457.27934736519956 A 200,200 0 0,1 171.61193285355824,421.05693545089247" />
    <path d="M 166.84294391935393,402.01806440322571 A 200,200 0 0,1 163,363.00000000000006" />
    <path d="M 186.615747130329,268.7206526348005 A 200,200 0 0,1 208.39790932745262,236.12134316727088" />
    <path d="M 236.12134316727082,208.39790932745268 A 200,200 0 0,1 268.72065263480044,186.61574713032903" />
    <path d="M 384.17170231118507,148.04009903880547 A 216,216 0 0,1 405.1395095554837,151.15037943290221" />
    <path d="M 464.82169515441547,172.50500690075532 A 216,216 0 0,1 515.73506473629425,210.26493526370572" />
    <path d="M 529.97025792635122,225.97105062065256 A 216,216 0 0,1 542.59743625734973,242.99682966776589" />
    <path d="M 553.49499309924465,261.17830484558448 A 216,216 0 0,1 569.69911251815711,300.29850971303614" />
    <path d="M 574.84962056709776,320.8604904445163 A 216,216 0 0,1 579,363" />
    <path d="M 577.95990096119453,384.17170231118507 A 216,216 0 0,1 569.69911251815711,425.7014902869638" />
    <path d="M 562.557979022438,445.65962139085934 A 216,216 0 0,1 542.59743625734984,483.00317033223405" />
    <path d="M 483.00317033223405,542.59743625734973 A 216,216 0 0,1 464.82169515441552,553.49499309924465" />
    <path d="M 425.70149028696386,569.69911251815711 A 216,216 0 0,1 384.17170231118513,577.95990096119453" />
    <path d="M 363,579 A 216,216 0 0,1 341.82829768881493,577.95990096119453" />
    <path d="M 300.2985097130362,569.69911251815711 A 216,216 0 0,1 280.34037860914066,562.557979022438" />
    <path d="M 225.97105062065262,529.97025792635122 A 216,216 0 0,1 183.40256374265022,483.00317033223405" />
    <path d="M 156.30088748184289,425.70149028696386 A 216,216 0 0,1 151.15037943290224,405.13950955548381" />
    <path d="M 148.04009903880547,341.82829768881504 A 216,216 0 0,1 151.15037943290221,320.8604904445163" />
    <path d="M 156.30088748184286,300.2985097130362 A 216,216 0 0,1 172.50500690075529,261.17830484558453" />
    <path d="M 183.40256374265019,242.996829667766 A 216,216 0 0,1 225.97105062065248,196.02974207364889" />
    <path d="M 261.17830484558442,172.50500690075535 A 216,216 0 0,1 280.34037860914049,163.44202097756212" />
    <path d="M 300.29850971303608,156.30088748184289 A 216,216 0 0,1 341.82829768881493,148.04009903880547" />
    <path d="M 340.26002344354197,132.11714341205033 A 232,232 0 0,1 385.73997655645803,132.11714341205033" />
    <path d="M 430.34604512303525,140.98984211012754 A 232,232 0 0,1 451.7825563087008,148.65994845738146" />
    <path d="M 472.36404294363143,158.39426667118164 A 232,232 0 0,1 491.89229406054767,170.0990499458095" />
    <path d="M 527.048773235279,198.95122676472096 A 232,232 0 0,1 590.54218505354947,317.73904529225825" />
    <path d="M 585.01015788987252,430.3460451230352 A 232,232 0 0,1 577.34005154261854,451.7825563087008" />
    <path d="M 527.048773235279,527.048773235279 A 232,232 0 0,1 472.36404294363149,567.60573332881836" />
    <path d="M 451.78255630870086,577.34005154261854 A 232,232 0 0,1 430.34604512303525,585.01015788987252" />
    <path d="M 385.73997655645809,593.88285658794962 A 232,232 0 0,1 363,595" />
    <path d="M 317.7390452922582,590.54218505354947 A 232,232 0 0,1 253.63595705636857,567.60573332881836" />
    <path d="M 198.95122676472099,527.048773235279 A 232,232 0 0,1 170.0990499458095,491.89229406054767" />
    <path d="M 148.65994845738152,451.782556308701 A 232,232 0 0,1 140.98984211012754,430.34604512303531" />
    <path d="M 135.45781494645055,408.26095470774186 A 232,232 0 0,1 132.11714341205033,385.73997655645803" />
    <path d="M 131,363.00000000000006 A 232,232 0 0,1 132.1171434120503,340.26002344354208" />
    <path d="M 135.45781494645053,317.73904529225825 A 232,232 0 0,1 140.98984211012751,295.6539548769648" />
    <path d="M 148.65994845738149,274.21744369129914 A 232,232 0 0,1 170.09904994580944,234.10770593945236" />
    <path d="M 253.63595705636848,158.39426667118167 A 232,232 0 0,1 317.73904529225814,135.45781494645055" />
    <path d="M 363,115 A 248,248 0 0,1 387.30825080173105,116.19418778529519" />
    <path d="M 434.99059995910665,125.67879673841219 A 248,248 0 0,1 457.90549122654227,133.87787593720088" />
    <path d="M 500.78141778886135,156.79553614896878 A 248,248 0 0,1 554.7065924339588,205.6704655274159" />
    <path d="M 569.20446385103128,225.21858221113865 A 248,248 0 0,1 600.32120326158781,291.00940004089335" />
    <path d="M 606.23474954000119,314.61760014000015 A 248,248 0 0,1 609.80581221470482,387.30825080173105" />
    <path d="M 606.23474954000119,411.38239985999979 A 248,248 0 0,1 600.32120326158781,434.99059995910659" />
    <path d="M 592.12212406279912,457.90549122654227 A 248,248 0 0,1 581.71647355839207,479.9063907328474" />
    <path d="M 569.20446385103128,500.78141778886129 A 248,248 0 0,1 479.90639073284746,581.716473558392" />
    <path d="M 434.99059995910665,600.32120326158781 A 248,248 0 0,1 268.09450877345773,592.12212406279912" />
    <path d="M 225.21858221113874,569.20446385103128 A 248,248 0 0,1 171.29340756604131,520.32953447258421" />
    <path d="M 144.283526441608,479.90639073284751 A 248,248 0 0,1 119.76525045999887,411.38239985999991" />
    <path d="M 115,363.00000000000006 A 248,248 0 0,1 125.67879673841219,291.00940004089341" />
    <path d="M 156.79553614896872,225.21858221113874 A 248,248 0 0,1 205.67046552741581,171.29340756604131" />
    <path d="M 225.21858221113865,156.79553614896878 A 248,248 0 0,1 246.09360926715252,144.283526441608" />
    <path d="M 268.09450877345756,133.87787593720094 A 248,248 0 0,1 338.691749198269,116.19418778529516" />
    <path d="M 337.12347495299605,100.27123215854005 A 264,264 0 0,1 414.50384501225784,104.07268597354715" />
    <path d="M 464.02842614438373,119.09580341702031 A 264,264 0 0,1 475.8745446655945,124.34682661541095" />
    <path d="M 487.44873852206337,130.17278621203428 A 264,264 0 0,1 520.26461638600244,150.95321168910974" />
    <path d="M 540.29156407961284,167.38890290629078 A 264,264 0 0,1 549.67619023324858,176.32380976675145" />
    <path d="M 558.61109709370919,185.70843592038716 A 264,264 0 0,1 582.50797764787194,216.329458482825" />
    <path d="M 589.44035304007184,227.27687553298947 A 264,264 0 0,1 601.65317338458908,250.1254553344055" />
    <path d="M 611.56763320831749,274.06107870445391 A 264,264 0 0,1 621.9273140264529,311.4961549877421" />
    <path d="M 624.1425986307022,324.26315474378453 A 264,264 0 0,1 627,363" />
    <path d="M 626.68200043816546,375.95386602243838 A 264,264 0 0,1 621.9273140264529,414.50384501225784" />
    <path d="M 619.08825084335967,427.14676749446164 A 264,264 0 0,1 606.90419658297969,464.02842614438367" />
    <path d="M 601.65317338458908,475.87454466559439 A 264,264 0 0,1 595.82721378796577,487.44873852206337" />
    <path d="M 589.44035304007184,498.72312446701051 A 264,264 0 0,1 582.50797764787194,509.67054151717491" />
    <path d="M 575.04678831089029,520.26461638600244 A 264,264 0 0,1 567.07475968776259,530.47982701920239" />
    <path d="M 549.67619023324858,549.67619023324846 A 264,264 0 0,1 540.291564079613,558.61109709370919" />
    <path d="M 530.47982701920239,567.07475968776259 A 264,264 0 0,1 520.26461638600244,575.04678831089018" />
    <path d="M 509.67054151717497,582.50797764787194 A 264,264 0 0,1 401.73684525621553,624.1425986307022" />
    <path d="M 388.87652504700407,625.72876784146 A 264,264 0 0,1 363.00000000000006,627" />
    <path d="M 350.04613397756174,626.68200043816546 A 264,264 0 0,1 250.12545533440562,601.65317338458908" />
    <path d="M 238.55126147793663,595.82721378796577 A 264,264 0 0,1 176.32380976675148,549.67619023324858" />
    <path d="M 167.38890290629087,540.291564079613 A 264,264 0 0,1 158.92524031223752,530.4798270192025" />
    <path d="M 150.95321168910971,520.26461638600233 A 264,264 0 0,1 143.49202235212806,509.67054151717497" />
    <path d="M 130.17278621203431,487.44873852206342 A 264,264 0 0,1 124.346826615411,475.87454466559461" />
    <path d="M 114.43236679168251,451.93892129554604 A 264,264 0 0,1 99.317999561834483,375.95386602243838" />
    <path d="M 99,363.00000000000006 A 264,264 0 0,1 100.27123215853999,337.12347495299616" />
    <path d="M 101.8574013692978,324.26315474378447 A 264,264 0 0,1 114.43236679168248,274.061078704454" />
    <path d="M 124.34682661541098,250.1254553344055 A 264,264 0 0,1 143.492022352128,216.32945848282512" />
    <path d="M 150.95321168910965,205.73538361399773 A 264,264 0 0,1 167.38890290629078,185.70843592038716" />
    <path d="M 185.70843592038708,167.38890290629087 A 264,264 0 0,1 216.329458482825,143.49202235212806" />
    <path d="M 238.55126147793655,130.17278621203431 A 264,264 0 0,1 311.496154987742,104.07268597354721" />
    <path d="M 363,83 A 280,280 0 0,1 390.44479929227697,84.348276531784848" />
    <path d="M 404.08453284750129,86.030577209861349 A 280,280 0 0,1 506.94876837410209,122.8359891999238" />
    <path d="M 540.63011956582068,146.55707305843365 A 280,280 0 0,1 551.03650735716519,155.53368490061143" />
    <path d="M 579.44292694156638,185.36988043417927 A 280,280 0 0,1 603.1640108000762,219.05123162589791" />
    <path d="M 609.93795401753937,231.00891368872061 A 280,280 0 0,1 630.94329400501852,281.72029036875057" />
    <path d="M 637.61987851290451,308.37470983548405 A 280,280 0 0,1 639.96942279013865,321.91546715249871" />
    <path d="M 641.6517234682151,335.555200707723 A 280,280 0 0,1 642.66272773744822,349.26105118832294" />
    <path d="M 641.6517234682151,390.44479929227697 A 280,280 0 0,1 639.96942279013865,404.08453284750124" />
    <path d="M 637.61987851290451,417.62529016451589 A 280,280 0 0,1 630.94329400501852,444.27970963124943" />
    <path d="M 609.93795401753937,494.99108631127933 A 280,280 0 0,1 603.1640108000762,506.94876837410209" />
    <path d="M 540.63011956582068,579.44292694156638 A 280,280 0 0,1 494.99108631127939,609.93795401753937" />
    <path d="M 470.15136106222519,621.68626910316027 A 280,280 0 0,1 457.3291589498217,626.63233825124576" />
    <path d="M 444.27970963124949,630.94329400501852 A 280,280 0 0,1 431.03445037291397,634.60875089447222" />
    <path d="M 404.08453284750129,639.96942279013865 A 280,280 0 0,1 390.444799292277,641.6517234682151" />
    <path d="M 376.738948811677,642.66272773744822 A 280,280 0 0,1 321.91546715249876,639.96942279013865" />
    <path d="M 294.96554962708615,634.60875089447234 A 280,280 0 0,1 255.84863893777489,621.68626910316038" />
    <path d="M 243.2845738395211,616.1170020745642 A 280,280 0 0,1 231.00891368872067,609.93795401753937" />
    <path d="M 207.44033475451147,595.81149144471271 A 280,280 0 0,1 165.01010126776671,560.98989873223331" />
    <path d="M 155.53368490061152,551.03650735716519 A 280,280 0 0,1 138.10189118541939,529.79580525788128" />
    <path d="M 130.18850855528731,518.55966524548865 A 280,280 0 0,1 109.88299792543592,482.71542616047907" />
    <path d="M 104.31373089683979,470.15136106222531 A 280,280 0 0,1 99.367661748754188,457.32915894982159" />
    <path d="M 88.3801214870955,417.625290164516 A 280,280 0 0,1 83,363.00000000000006" />
    <path d="M 84.348276531784848,335.5552007077232 A 280,280 0 0,1 88.3801214870955,308.37470983548405" />
    <path d="M 95.056705994981485,281.72029036875063 A 280,280 0 0,1 109.88299792543589,243.284573839521" />
    <path d="M 122.83598919992377,219.05123162589797 A 280,280 0 0,1 138.10189118541933,196.2041947421188" />
    <path d="M 146.55707305843367,185.36988043417924 A 280,280 0 0,1 165.01010126776666,165.01010126776674" />
    <path d="M 207.44033475451138,130.18850855528734 A 280,280 0 0,1 231.00891368872058,116.06204598246063" />
    <path d="M 255.8486389377747,104.31373089683979 A 280,280 0 0,1 281.72029036875051,95.056705994981542" />
    <path d="M 294.96554962708603,91.39124910552772 A 280,280 0 0,1 308.37470983548394,88.3801214870955" />
    <path d="M 335.55520070772303,84.348276531784848 A 280,280 0 0,1 349.26105118832294,83.337272262551721" />
    <path d="M 305.25326468322589,72.687557000643835 A 296,296 0 0,1 377.52403160091575,67.356544963268959" />
    <path d="M 392.01307353754993,68.425320905029707 A 296,296 0 0,1 502.5334341004953,101.95130575288692" />
    <path d="M 515.17441228119355,109.11233143991944 A 296,296 0 0,1 572.303607231218,153.69639276878192" />
    <path d="M 591.81109419537017,175.21958788756092 A 296,296 0 0,1 609.11500524155338,198.55121102619773" />
    <path d="M 624.04869424711308,223.46656589950464 A 296,296 0 0,1 630.5808307645392,236.44369234463647" />
    <path d="M 646.25433937673381,277.07573553267918 A 296,296 0 0,1 657.57467909497029,333.98692646245" />
    <path d="M 659,363 A 296,296 0 0,1 657.57467909497029,392.01307353754993" />
    <path d="M 655.79624694957511,406.43222043878706 A 296,296 0 0,1 653.31244299935622,420.74673531677394" />
    <path d="M 646.25433937673392,448.92426446732082 A 296,296 0 0,1 636.46834162334085,476.27429598006654" />
    <path d="M 630.58083076453931,489.55630765536341 A 296,296 0 0,1 582.32153310506783,561.78145063471743" />
    <path d="M 572.303607231218,572.303607231218 A 296,296 0 0,1 539.32699412976035,600.74942931827081" />
    <path d="M 527.44878897380227,609.11500524155338 A 296,296 0 0,1 476.2742959800666,636.46834162334085" />
    <path d="M 462.7193966040972,641.69704329417414 A 296,296 0 0,1 448.92426446732088,646.25433937673381" />
    <path d="M 434.92213325136618,650.129250945585 A 296,296 0 0,1 406.43222043878711,655.79624694957511" />
    <path d="M 363.00000000000006,659 A 296,296 0 0,1 319.567779561213,655.79624694957511" />
    <path d="M 305.253264683226,653.31244299935622 A 296,296 0 0,1 263.28060339590286,641.69704329417414" />
    <path d="M 236.44369234463659,630.58083076453931 A 296,296 0 0,1 186.67300587023976,600.74942931827093" />
    <path d="M 175.219587887561,591.81109419537017 A 296,296 0 0,1 143.67846689493217,561.78145063471754" />
    <path d="M 125.25057068172907,539.32699412976024 A 296,296 0 0,1 116.8849947584466,527.44878897380227" />
    <path d="M 109.11233143991947,515.17441228119367 A 296,296 0 0,1 101.95130575288692,502.53343410049536" />
    <path d="M 95.419169235460856,489.55630765536364 A 296,296 0 0,1 84.302956705825864,462.71939660409708" />
    <path d="M 79.74566062326619,448.92426446732088 A 296,296 0 0,1 75.870749054415,434.92213325136618" />
    <path d="M 72.687557000643835,420.74673531677411 A 296,296 0 0,1 67.356544963268959,377.52403160091575" />
    <path d="M 68.425320905029707,333.98692646245024 A 296,296 0 0,1 75.870749054414944,291.07786674863394" />
    <path d="M 89.531658376659152,249.72570401993335 A 296,296 0 0,1 101.95130575288692,223.46656589950473" />
    <path d="M 109.11233143991942,210.82558771880645 A 296,296 0 0,1 116.88499475844654,198.55121102619785" />
    <path d="M 153.69639276878189,153.69639276878198 A 296,296 0 0,1 210.82558771880633,109.1123314399195" />
    <path d="M 223.46656589950462,101.95130575288698 A 296,296 0 0,1 236.44369234463636,95.419169235460856" />
    <path d="M 249.72570401993323,89.531658376659209 A 296,296 0 0,1 291.07786674863382,75.870749054415" />
    <path d="M 363,51 A 312,312 0 0,1 393.58134778282289,52.502365278274567" />
    <path d="M 408.77990803007287,54.376928890988324 A 312,312 0 0,1 510.07578188971127,87.840565523313217" />
    <path d="M 523.40005618828513,95.388673679915087 A 312,312 0 0,1 536.33791270211589,103.58148096160591" />
    <path d="M 613.60074982196124,177.14181699836078 A 312,312 0 0,1 630.61132632008491,202.59994381171484" />
    <path d="M 645.04465945451432,229.60281084975196 A 312,312 0 0,1 651.25041414352154,243.602769102092" />
    <path d="M 661.56538474844911,272.43118069660773 A 312,312 0 0,1 674.62418233601375,347.69088560984557" />
    <path d="M 669.00500748580794,423.868180469032 A 312,312 0 0,1 661.56538474844911,453.56881930339222" />
    <path d="M 651.25041414352154,482.397230897908 A 312,312 0 0,1 638.15943447668678,510.07578188971127" />
    <path d="M 622.41851903839415,536.33791270211577 A 312,312 0 0,1 604.179261449174,560.93070465905737" />
    <path d="M 572.52639391226978,594.1767511107472 A 312,312 0 0,1 536.33791270211589,622.41851903839415" />
    <path d="M 523.40005618828513,630.6113263200848 A 312,312 0 0,1 510.07578188971132,638.15943447668678" />
    <path d="M 482.39723089790806,651.25041414352154 A 312,312 0 0,1 468.10963425837275,656.76174833710252" />
    <path d="M 453.56881930339227,661.56538474844911 A 312,312 0 0,1 423.86818046903215,669.00500748580794" />
    <path d="M 408.77990803007287,671.62307110901168 A 312,312 0 0,1 378.30911439015438,674.62418233601375" />
    <path d="M 363.00000000000006,675 A 312,312 0 0,1 332.41865221717711,673.49763472172549" />
    <path d="M 287.19018387018167,665.64975099669778 A 312,312 0 0,1 243.60276910209203,651.25041414352154" />
    <path d="M 229.60281084975208,645.04465945451443 A 312,312 0 0,1 189.6620872978842,622.41851903839415" />
    <path d="M 165.06929534094266,604.179261449174 A 312,312 0 0,1 112.39925017803876,548.85818300163919" />
    <path d="M 103.58148096160585,536.33791270211589 A 312,312 0 0,1 95.388673679915144,523.40005618828525" />
    <path d="M 87.840565523313273,510.07578188971138 A 312,312 0 0,1 60.350249003302281,438.80981612981839" />
    <path d="M 52.502365278274567,393.58134778282283 A 312,312 0 0,1 51.3758176639862,378.30911439015443" />
    <path d="M 51.3758176639862,347.69088560984568 A 312,312 0 0,1 56.99499251419212,302.13181953096796" />
    <path d="M 60.350249003302281,287.19018387018173 A 312,312 0 0,1 74.749585856478575,243.60276910209194" />
    <path d="M 80.955340545485683,229.60281084975196 A 312,312 0 0,1 103.58148096160579,189.66208729788423" />
    <path d="M 112.39925017803867,177.14181699836095 A 312,312 0 0,1 142.38268426979712,142.38268426979721" />
    <path d="M 153.47360608773016,131.82324888925285 A 312,312 0 0,1 165.06929534094246,121.82073855082618" />
    <path d="M 215.92421811028865,87.840565523313273 A 312,312 0 0,1 257.89036574162736,69.23825166289754" />
    <path d="M 272.43118069660773,64.434615251550838 A 312,312 0 0,1 302.13181953096785,56.99499251419212" />
    <path d="M 317.22009196992695,54.376928890988381 A 312,312 0 0,1 332.41865221717711,52.502365278274567" />
    <path d="M 299.0103743787098,41.302428027740461 A 328,328 0 0,1 363,35" />
    <path d="M 442.69749900827054,44.829748952189561 A 328,328 0 0,1 503.23807064513255,66.491511855510566" />
    <path d="M 545.22703643042951,90.27796716476513 A 328,328 0 0,1 571.08099720567566,109.45257129702227" />
    <path d="M 583.271337189822,119.96803088357339 A 328,328 0 0,1 594.93102422918764,131.06897577081242" />
    <path d="M 616.54742870297775,154.91900279432426 A 328,328 0 0,1 626.45207032565145,167.61062812648183" />
    <path d="M 635.72203283523481,180.77296356957046 A 328,328 0 0,1 652.27017470626038,208.38187032107274" />
    <path d="M 659.50848814448932,222.76192935486745 A 328,328 0 0,1 681.17025104781044,283.3025009917294" />
    <path d="M 687.44989526844813,314.87240437864136 A 328,328 0 0,1 689.42059034848057,330.85037797190409" />
    <path d="M 690.60490963529651,346.90580282060688 A 328,328 0 0,1 691,363" />
    <path d="M 689.42059034848057,395.14962202809591 A 328,328 0 0,1 659.50848814448943,503.23807064513244" />
    <path d="M 626.45207032565156,558.38937187351814 A 328,328 0 0,1 594.93102422918764,594.93102422918753" />
    <path d="M 558.38937187351814,626.45207032565145 A 328,328 0 0,1 531.62570009537671,644.33498408008927" />
    <path d="M 503.2380706451325,659.50848814448943 A 328,328 0 0,1 488.52016581574946,666.032486663702" />
    <path d="M 473.49987191264825,671.82645338003078 A 328,328 0 0,1 458.21337413946367,676.87643012016451" />
    <path d="M 442.6974990082706,681.17025104781044 A 328,328 0 0,1 363.00000000000006,691" />
    <path d="M 330.85037797190415,689.42059034848057 A 328,328 0 0,1 283.30250099172946,681.17025104781044" />
    <path d="M 267.78662586053645,676.87643012016451 A 328,328 0 0,1 208.38187032107277,652.27017470626038" />
    <path d="M 154.91900279432434,616.54742870297775 A 328,328 0 0,1 142.72866281017795,606.03196911642658" />
    <path d="M 131.06897577081244,594.93102422918764 A 328,328 0 0,1 109.45257129702239,571.08099720567589" />
    <path d="M 81.665015919910786,531.62570009537671 A 328,328 0 0,1 66.491511855510623,503.23807064513267" />
    <path d="M 35.395090364703435,379.09419717939312 A 328,328 0 0,1 36.579409651519427,330.85037797190432" />
    <path d="M 38.550104731551869,314.87240437864125 A 328,328 0 0,1 44.829748952189561,283.30250099172952" />
    <path d="M 49.123569879835486,267.78662586053645 A 328,328 0 0,1 73.729825293739509,208.3818703210728" />
    <path d="M 81.665015919910729,194.37429990462334 A 328,328 0 0,1 99.547929674348325,167.61062812648203" />
    <path d="M 131.06897577081236,131.06897577081247 A 328,328 0 0,1 142.72866281017787,119.96803088357351" />
    <path d="M 154.91900279432414,109.45257129702239 A 328,328 0 0,1 194.37429990462323,81.665015919910786" />
    <path d="M 222.76192935486733,66.49151185551068 A 328,328 0 0,1 237.47983418425037,59.967513336298055" />
    <path d="M 252.50012808735184,54.173546619969159 A 328,328 0 0,1 267.78662586053633,49.123569879835486" />
    <path d="M 231.3568992664089,45.185440816117421 A 344,344 0 0,1 363,19" />
    <path d="M 413.47528321264446,22.723280572115357 A 344,344 0 0,1 462.85792897553506,33.812524508120134" />
    <path d="M 494.64310073359087,45.185440816117364 A 344,344 0 0,1 510.078952140017,52.027683165535507" />
    <path d="M 539.8513440024683,67.941358159906372 A 344,344 0 0,1 594.01628046737437,108.11281287789404" />
    <path d="M 606.24473272817238,119.75526727182765 A 344,344 0 0,1 658.05864184009351,186.14865599753173" />
    <path d="M 666.38091493583408,200.83952253185677 A 344,344 0 0,1 680.81455918388269,231.3568992664091" />
    <path d="M 686.89115842295917,247.10989043307632 A 344,344 0 0,1 703.2767194278847,312.52471678735554" />
    <path d="M 706.58563693457927,346.12072003136814 A 344,344 0 0,1 707,363" />
    <path d="M 706.58563693457927,379.87927996863181 A 344,344 0 0,1 703.2767194278847,413.4752832126444" />
    <path d="M 696.6907510989231,446.58518188672281 A 344,344 0 0,1 680.81455918388269,494.64310073359087" />
    <path d="M 673.97231683446455,510.07895214001695 A 344,344 0 0,1 649.0255466320757,554.116160158743" />
    <path d="M 639.30339082934188,567.9205607453971 A 344,344 0 0,1 628.91559595678154,581.23128975229406" />
    <path d="M 606.24473272817238,606.24473272817227 A 344,344 0 0,1 594.01628046737437,617.88718712210584" />
    <path d="M 581.23128975229406,628.91559595678154 A 344,344 0 0,1 567.9205607453971,639.30339082934188" />
    <path d="M 525.1604774681432,666.38091493583408 A 344,344 0 0,1 430.11107077354825,700.39013645871125" />
    <path d="M 413.47528321264446,703.2767194278847 A 344,344 0 0,1 396.71789627336892,705.34354597523566" />
    <path d="M 363.00000000000006,707 A 344,344 0 0,1 295.88892922645186,700.39013645871125" />
    <path d="M 231.35689926640916,680.81455918388269 A 344,344 0 0,1 215.92104785998305,673.97231683446455" />
    <path d="M 200.83952253185683,666.3809149358342 A 344,344 0 0,1 186.14865599753179,658.05864184009363" />
    <path d="M 171.88383984125693,649.0255466320757 A 344,344 0 0,1 158.07943925460296,639.30339082934188" />
    <path d="M 131.98371953262566,617.887187122106 A 344,344 0 0,1 119.75526727182768,606.24473272817238" />
    <path d="M 97.084404043218569,581.23128975229417 A 344,344 0 0,1 86.696609170658121,567.920560745397" />
    <path d="M 67.941358159906429,539.8513440024683 A 344,344 0 0,1 52.027683165535564,510.07895214001718" />
    <path d="M 25.609863541288746,430.11107077354825 A 344,344 0 0,1 25.609863541288746,295.88892922645186" />
    <path d="M 33.812524508120134,263.14207102446505 A 344,344 0 0,1 45.185440816117364,231.35689926640904" />
    <path d="M 52.027683165535507,215.92104785998293 A 344,344 0 0,1 67.941358159906372,186.14865599753179" />
    <path d="M 76.974453367924355,171.88383984125696 A 344,344 0 0,1 97.084404043218512,144.76871024770591" />
    <path d="M 108.11281287789407,131.98371953262569 A 344,344 0 0,1 200.83952253185672,59.619085064165915" />
    <path d="M 380.66436275787049,3.4336357661379111 A 360,360 0 1,1 363,3" />
  </g>
  <g fill="none" stroke="#000000" stroke-width="2" stroke-linecap="butt">
    <line x1="363" y1="147" x2="363" y2="163" />
    <line x1="363" y1="195" x2="363" y2="211" />
    <line x1="363" y1="227" x2="363" y2="243" />
    <line x1="363" y1="259" x2="363" y2="275" />
    <line x1="363" y1="291" x2="363" y2="307" />
    <line x1="363" y1="323" x2="363" y2="339" />
    <line x1="380.66436275787049" y1="3.4336357661379111" x2="379.09419717939312" y2="35.395090364703435" />
    <line x1="396.71789627336886" y1="20.65645402476423" x2="390.44479929227697" y2="84.348276531784848" />
    <line x1="387.30825080173105" y1="116.19418778529516" x2="384.17170231118507" y2="148.04009903880547" />
    <line x1="377.89860533009323" y1="211.73192154582605" x2="376.33033108482022" y2="227.65487717258122" />
    <line x1="413.47528321264446" y1="22.723280572115357" x2="411.12759562135864" y2="38.550104731551812" />
    <line x1="406.43222043878706" y1="70.203753050424837" x2="401.73684525621547" y2="101.8574013692978" />
    <line x1="430.11107077354814" y1="25.609863541288746" x2="423.86818046903204" y2="56.99499251419212" />
    <line x1="414.50384501225784" y1="104.07268597354715" x2="411.38239985999979" y2="119.76525045999887" />
    <line x1="408.26095470774175" y1="135.45781494645053" x2="405.1395095554837" y2="151.15037943290224" />
    <line x1="398.8966192509676" y1="182.53550840580562" x2="395.77517409870956" y2="198.22807289225727" />
    <line x1="380.16794833741926" y1="276.69089532451574" x2="377.04650318516121" y2="292.38345981096739" />
    <line x1="431.03445037291385" y1="91.391249105527663" x2="427.14676749446164" y2="106.91174915664038" />
    <line x1="439.63515479517804" y1="110.36775136669687" x2="416.41238061482107" y2="186.92297822527357" />
    <line x1="411.76782577874968" y1="202.23402359698892" x2="402.4787161066069" y2="232.8561143404196" />
    <line x1="484.28034722119924" y1="24.044136534112511" x2="473.49987191264819" y2="54.173546619969159" />
    <line x1="457.32915894982159" y1="99.367661748754188" x2="451.93892129554609" y2="114.43236679168251" />
    <line x1="464.02842614438373" y1="119.09580341702031" x2="457.90549122654227" y2="133.87787593720088" />
    <line x1="451.7825563087008" y1="148.65994845738149" x2="445.6596213908594" y2="163.44202097756207" />
    <line x1="433.41375155517653" y1="193.00616601792325" x2="427.29081663733507" y2="207.78823853810383" />
    <line x1="415.0449468016522" y1="237.352383578465" x2="408.9220118838108" y2="252.13445609864559" />
    <line x1="402.79907696596933" y1="266.91652861882619" x2="378.3073372946036" y2="326.0448186995485" />
    <line x1="510.078952140017" y1="52.027683165535507" x2="503.23807064513255" y2="66.491511855510566" />
    <line x1="482.71542616047896" y1="109.88299792543586" x2="475.8745446655945" y2="124.34682661541095" />
    <line x1="532.70282525735911" y1="45.508344834592208" x2="510.07578188971127" y2="87.840565523313217" />
    <line x1="487.44873852206337" y1="130.17278621203425" x2="472.36404294363143" y2="158.39426667118164" />
    <line x1="464.82169515441547" y1="172.50500690075532" x2="457.27934736519956" y2="186.615747130329" />
    <line x1="539.8513440024683" y1="67.941358159906372" x2="506.94876837410209" y2="122.8359891999238" />
    <line x1="545.22703643042951" y1="90.277967164765187" x2="536.33791270211589" y2="103.58148096160591" />
    <line x1="518.55966524548865" y1="130.18850855528734" x2="509.67054151717497" y2="143.49202235212806" />
    <line x1="474.11404660392043" y1="196.70607753949096" x2="465.22492287560681" y2="210.00959133633168" />
    <line x1="447.44667541897957" y1="236.61661893001312" x2="420.77930423403865" y2="276.5271603205353" />
    <line x1="548.85818300163919" y1="112.39925017803878" x2="520.26461638600244" y2="150.95321168910974" />
    <line x1="571.08099720567566" y1="109.45257129702227" x2="560.93070465905737" y2="121.82073855082606" />
    <line x1="540.63011956582068" y1="146.55707305843365" x2="500.02894937934741" y2="196.02974207364881" />
    <line x1="479.72836428611078" y1="220.76607658125639" x2="459.42777919287414" y2="245.502411088864" />
    <line x1="572.52639391226967" y1="131.82324888925277" x2="561.78145063471743" y2="143.67846689493211" />
    <line x1="617.55844122715712" y1="108.44155877284288" x2="583.61731573020279" y2="142.38268426979715" />
    <line x1="572.303607231218" y1="153.69639276878192" x2="549.67619023324846" y2="176.32380976675145" />
    <line x1="515.73506473629425" y1="210.26493526370572" x2="504.42135623730951" y2="221.57864376269049" />
    <line x1="481.79393923934" y1="244.20606076066002" x2="470.48023074035518" y2="255.51976925964476" />
    <line x1="459.16652224137044" y1="266.83347775862956" x2="425.22539674441617" y2="300.77460325558383" />
    <line x1="617.887187122106" y1="131.98371953262569" x2="558.61109709370919" y2="185.70843592038716" />
    <line x1="616.54742870297775" y1="154.91900279432429" x2="579.44292694156638" y2="185.36988043417927" />
    <line x1="542.338425180155" y1="215.82075807403425" x2="529.97025792635122" y2="225.97105062065256" />
    <line x1="517.60209067254743" y1="236.12134316727091" x2="480.497588911136" y2="266.57222080712586" />
    <line x1="626.45207032565145" y1="167.61062812648183" x2="613.60074982196124" y2="177.14181699836075" />
    <line x1="649.02554663207559" y1="171.88383984125682" x2="635.72203283523481" y2="180.77296356957044" />
    <line x1="582.50797764787194" y1="216.329458482825" x2="569.20446385103128" y2="225.21858221113862" />
    <line x1="542.59743625734973" y1="242.99682966776589" x2="529.29392246050907" y2="251.88595339607954" />
    <line x1="502.68689486682763" y1="269.66420085270681" x2="476.07986727314614" y2="287.44244830933405" />
    <line x1="462.77635347630542" y1="296.33157203764773" x2="449.4728396794647" y2="305.22069576596135" />
    <line x1="616.88766856008056" y1="210.82558771880639" x2="589.44035304007184" y2="227.27687553298949" />
    <line x1="666.38091493583408" y1="200.83952253185674" x2="624.04869424711308" y2="223.46656589950464" />
    <line x1="553.49499309924465" y1="261.17830484558448" x2="525.27351264009735" y2="276.26300042401641" />
    <line x1="659.50848814448943" y1="222.76192935486745" x2="645.04465945451432" y2="229.60281084975196" />
    <line x1="616.1170020745642" y1="243.284573839521" x2="601.65317338458908" y2="250.1254553344055" />
    <line x1="651.25041414352154" y1="243.60276910209197" x2="621.68626910316027" y2="255.84863893777487" />
    <line x1="606.90419658297969" y1="261.97157385561627" x2="592.12212406279912" y2="268.09450877345773" />
    <line x1="547.77590650225738" y1="286.463313526982" x2="518.21176146189623" y2="298.70918336266493" />
    <line x1="459.08347138117381" y1="323.20092303403067" x2="444.30139886099323" y2="329.32385795187207" />
    <line x1="701.95586346588743" y1="241.71965277880076" x2="686.89115842295917" y2="247.10989043307632" />
    <line x1="671.8264533800309" y1="252.50012808735181" x2="641.69704329417414" y2="263.28060339590286" />
    <line x1="626.63233825124576" y1="268.67084105017841" x2="611.56763320831749" y2="274.06107870445391" />
    <line x1="646.25433937673392" y1="277.07573553267912" x2="630.94329400501852" y2="281.72029036875057" />
    <line x1="600.32120326158781" y1="291.00940004089335" x2="585.01015788987252" y2="295.65395487696475" />
    <line x1="569.69911251815711" y1="300.29850971303614" x2="554.38806714644181" y2="304.94306454910753" />
    <line x1="523.76597640301111" y1="314.23217422125032" x2="493.14388565958041" y2="323.5212838933931" />
    <line x1="634.60875089447234" y1="294.96554962708609" x2="619.08825084335967" y2="298.8532325055383" />
    <line x1="700.39013645871125" y1="295.88892922645186" x2="684.69757197225954" y2="299.01037437870991" />
    <line x1="621.9273140264529" y1="311.4961549877421" x2="606.23474954000108" y2="314.61760014000015" />
    <line x1="590.54218505354947" y1="317.7390452922582" x2="574.84962056709776" y2="320.8604904445163" />
    <line x1="543.46449159419444" y1="327.1033807490324" x2="480.69423364838764" y2="339.58916135806459" />
    <line x1="465.001669161936" y1="342.71060651032263" x2="449.30910467548426" y2="345.83205166258068" />
    <line x1="687.44989526844824" y1="314.87240437864136" x2="671.62307110901168" y2="317.22009196992713" />
    <line x1="655.79624694957511" y1="319.56777956121294" x2="624.1425986307022" y2="324.26315474378453" />
    <line x1="721.26650160199085" y1="327.71382948135812" x2="689.42059034848057" y2="330.85037797190409" />
    <line x1="609.80581221470482" y1="338.69174919826895" x2="593.88285658794962" y2="340.26002344354191" />
    <line x1="562.03694533443934" y1="343.39657193408783" x2="546.11398970768425" y2="344.96484617936085" />
    <line x1="530.19103408092906" y1="346.53312042463381" x2="498.34512282741878" y2="349.66966891517973" />
    <line x1="690.60490963529651" y1="346.90580282060688" x2="642.66272773744822" y2="349.26105118832294" />
    <line x1="723" y1="363" x2="707" y2="363" />
    <line x1="675" y1="363" x2="627" y2="363" />
    <line x1="595" y1="363" x2="531" y2="363" />
    <line x1="499" y1="363" x2="387" y2="363" />
    <line x1="706.58563693457927" y1="379.87927996863181" x2="674.62418233601375" y2="378.30911439015443" />
    <line x1="642.66272773744822" y1="376.73894881167706" x2="626.68200043816546" y2="375.95386602243838" />
    <line x1="689.42059034848057" y1="395.14962202809591" x2="657.57467909497029" y2="392.01307353754993" />
    <line x1="625.72876784146" y1="388.876525047004" x2="562.03694533443945" y2="382.60342806591211" />
    <line x1="546.11398970768425" y1="381.03515382063915" x2="514.268078454174" y2="377.89860533009323" />
    <line x1="719.10354358732116" y1="415.82297080393016" x2="703.2767194278847" y2="413.4752832126444" />
    <line x1="687.44989526844824" y1="411.12759562135864" x2="639.96942279013865" y2="404.08453284750124" />
    <line x1="700.39013645871125" y1="430.11107077354808" x2="684.69757197225954" y2="426.98962562129003" />
    <line x1="637.61987851290451" y1="417.62529016451589" x2="621.9273140264529" y2="414.50384501225784" />
    <line x1="606.23474954000108" y1="411.38239985999979" x2="590.54218505354947" y2="408.26095470774175" />
    <line x1="559.157056080646" y1="402.01806440322565" x2="527.77192710774273" y2="395.77517409870956" />
    <line x1="512.079362621291" y1="392.65372894645151" x2="496.38679813483935" y2="389.5322837941934" />
    <line x1="480.69423364838764" y1="386.41083864193536" x2="449.30910467548426" y2="380.16794833741926" />
    <line x1="712.21125115003588" y1="450.472864765175" x2="696.6907510989231" y2="446.58518188672275" />
    <line x1="665.64975099669778" y1="438.80981612981833" x2="634.60875089447234" y2="431.03445037291385" />
    <line x1="661.56538474844911" y1="453.56881930339216" x2="646.25433937673392" y2="448.92426446732077" />
    <line x1="615.63224863330311" y1="439.635154795178" x2="554.38806714644181" y2="421.05693545089241" />
    <line x1="539.0770217747264" y1="416.412380614821" x2="508.45493103129576" y2="407.12327094267823" />
    <line x1="671.8264533800309" y1="473.49987191264813" x2="656.76174833710252" y2="468.10963425837264" />
    <line x1="626.63233825124576" y1="457.32915894982159" x2="611.56763320831749" y2="451.93892129554604" />
    <line x1="621.68626910316027" y1="470.15136106222513" x2="606.90419658297969" y2="464.02842614438367" />
    <line x1="577.34005154261854" y1="451.7825563087008" x2="562.557979022438" y2="445.6596213908594" />
    <line x1="488.64761642153496" y1="415.0449468016522" x2="473.86554390135439" y2="408.9220118838108" />
    <line x1="444.30139886099323" y1="396.67614204812787" x2="414.73725382063208" y2="384.430272212445" />
    <line x1="673.97231683446455" y1="510.07895214001695" x2="659.50848814448943" y2="503.23807064513244" />
    <line x1="616.1170020745642" y1="482.71542616047896" x2="601.65317338458908" y2="475.87454466559439" />
    <line x1="666.3809149358342" y1="525.1604774681432" x2="638.15943447668678" y2="510.07578188971127" />
    <line x1="609.93795401753937" y1="494.99108631127933" x2="567.60573332881836" y2="472.36404294363149" />
    <line x1="497.05203218094994" y1="434.65230399755166" x2="482.94129195137629" y2="427.10995620833569" />
    <line x1="644.33498408008927" y1="531.62570009537671" x2="603.1640108000762" y2="506.94876837410209" />
    <line x1="649.0255466320757" y1="554.116160158743" x2="635.72203283523493" y2="545.22703643042951" />
    <line x1="595.81149144471271" y1="518.55966524548853" x2="542.59743625734984" y2="483.00317033223405" />
    <line x1="529.29392246050907" y1="474.11404660392037" x2="489.38338106998691" y2="447.44667541897951" />
    <line x1="476.07986727314619" y1="438.55755169066583" x2="462.77635347630547" y2="429.66842796235221" />
    <line x1="652.1547113330322" y1="577.451749617276" x2="639.30339082934188" y2="567.9205607453971" />
    <line x1="626.45207032565156" y1="558.38937187351814" x2="613.60074982196124" y2="548.85818300163919" />
    <line x1="587.89810881458061" y1="529.79580525788128" x2="575.04678831089029" y2="520.26461638600244" />
    <line x1="591.81109419537017" y1="550.78041211243908" x2="567.07475968776259" y2="530.47982701920239" />
    <line x1="554.7065924339588" y1="520.3295344725841" x2="517.60209067254743" y2="489.87865683272906" />
    <line x1="629.74240512778522" y1="604.76122374492661" x2="558.61109709370919" y2="540.29156407961284" />
    <line x1="583.61731573020279" y1="583.61731573020279" x2="538.36248173426384" y2="538.36248173426384" />
    <line x1="527.048773235279" y1="527.048773235279" x2="493.10764773832477" y2="493.10764773832477" />
    <line x1="481.79393923934" y1="481.79393923934" x2="459.16652224137044" y2="459.16652224137044" />
    <line x1="447.85281374238571" y1="447.85281374238571" x2="413.91168824543144" y2="413.91168824543144" />
    <line x1="402.59797974644664" y1="402.59797974644664" x2="391.2842712474619" y2="391.2842712474619" />
    <line x1="594.01628046737437" y1="617.88718712210584" x2="572.52639391226978" y2="594.1767511107472" />
    <line x1="561.78145063471743" y1="582.32153310506783" x2="551.03650735716519" y2="570.46631509938845" />
    <line x1="591.38158229891235" y1="641.28376321058533" x2="571.08099720567566" y2="616.54742870297775" />
    <line x1="540.63011956582068" y1="579.44292694156638" x2="530.47982701920239" y2="567.07475968776259" />
    <line x1="510.17924192596575" y1="542.338425180155" x2="500.02894937934741" y2="529.97025792635122" />
    <line x1="479.72836428611078" y1="505.23392341874364" x2="469.57807173949243" y2="492.86575616493985" />
    <line x1="558.38937187351814" y1="626.45207032565145" x2="548.85818300163919" y2="613.60074982196124" />
    <line x1="539.32699412976035" y1="600.74942931827081" x2="529.7958052578814" y2="587.89810881458061" />
    <line x1="563.00528388705675" y1="662.32906042891636" x2="545.22703643042951" y2="635.72203283523481" />
    <line x1="509.67054151717497" y1="582.50797764787194" x2="500.78141778886135" y2="569.20446385103128" />
    <line x1="483.00317033223405" y1="542.59743625734973" x2="465.22492287560681" y2="515.9904086636684" />
    <line x1="447.44667541897957" y1="489.38338106998691" x2="438.55755169066589" y2="476.07986727314619" />
    <line x1="420.77930423403865" y1="449.4728396794647" x2="403.00105677741135" y2="422.86581208578326" />
    <line x1="539.8513440024683" y1="658.05864184009351" x2="515.17441228119367" y2="616.88766856008056" />
    <line x1="525.1604774681432" y1="666.38091493583408" x2="517.61812967892729" y2="652.27017470626038" />
    <line x1="442.19465178676762" y1="511.16277241052364" x2="434.65230399755166" y2="497.05203218094994" />
    <line x1="503.2380706451325" y1="659.50848814448943" x2="496.397189150248" y2="645.04465945451432" />
    <line x1="482.71542616047896" y1="616.1170020745642" x2="475.87454466559444" y2="601.65317338458908" />
    <line x1="488.52016581574946" y1="666.032486663702" x2="482.39723089790806" y2="651.25041414352154" />
    <line x1="476.2742959800666" y1="636.46834162334085" x2="470.15136106222519" y2="621.68626910316027" />
    <line x1="464.02842614438373" y1="606.90419658297969" x2="439.536686473018" y2="547.77590650225738" />
    <line x1="468.10963425837275" y1="656.76174833710252" x2="457.3291589498217" y2="626.63233825124576" />
    <line x1="462.85792897553506" y1="692.18747549187981" x2="453.56881930339227" y2="661.56538474844911" />
    <line x1="444.27970963124949" y1="630.94329400501852" x2="439.6351547951781" y2="615.63224863330311" />
    <line x1="421.05693545089247" y1="554.3880671464417" x2="402.4787161066069" y2="493.14388565958041" />
    <line x1="434.92213325136618" y1="650.129250945585" x2="431.03445037291397" y2="634.60875089447234" />
    <line x1="433.2325159258063" y1="716.082700945163" x2="430.11107077354825" y2="700.39013645871125" />
    <line x1="417.625290164516" y1="637.61987851290451" x2="414.50384501225795" y2="621.9273140264529" />
    <line x1="411.38239985999991" y1="606.23474954000108" x2="405.13950955548376" y2="574.84962056709776" />
    <line x1="386.41083864193541" y1="480.69423364838764" x2="377.04650318516127" y2="433.61654018903261" />
    <line x1="408.77990803007287" y1="671.62307110901168" x2="406.43222043878711" y2="655.79624694957511" />
    <line x1="396.71789627336892" y1="705.34354597523566" x2="395.14962202809596" y2="689.42059034848057" />
    <line x1="392.01307353755" y1="657.57467909497018" x2="388.87652504700407" y2="625.72876784146" />
    <line x1="385.73997655645809" y1="593.88285658794962" x2="381.03515382063921" y2="546.11398970768425" />
    <line x1="377.89860533009323" y1="514.268078454174" x2="376.33033108482027" y2="498.34512282741878" />
    <line x1="380.66436275787049" y1="722.566364233862" x2="379.87927996863181" y2="706.58563693457927" />
    <line x1="379.09419717939306" y1="690.60490963529651" x2="376.738948811677" y2="642.66272773744822" />
    <line x1="363.00000000000006" y1="707" x2="363.00000000000006" y2="691" />
    <line x1="363.00000000000006" y1="643" x2="363.00000000000006" y2="627" />
    <line x1="363" y1="547" x2="363" y2="515" />
    <line x1="363" y1="499" x2="363" y2="483" />
    <line x1="363" y1="435" x2="363" y2="419" />
    <line x1="346.905802820607" y1="690.60490963529651" x2="347.69088560984568" y2="674.62418233601375" />
    <line x1="329.28210372663114" y1="705.34354597523577" x2="332.41865221717711" y2="673.49763472172549" />
    <line x1="337.123474952996" y1="625.72876784146" x2="341.82829768881493" y2="577.95990096119453" />
    <line x1="343.39657193408789" y1="562.03694533443945" x2="346.53312042463381" y2="530.19103408092906" />
    <line x1="317.22009196992718" y1="671.62307110901168" x2="321.91546715249876" y2="639.96942279013865" />
    <line x1="299.01037437870991" y1="684.69757197225954" x2="308.37470983548405" y2="637.61987851290451" />
    <line x1="317.7390452922582" y1="590.54218505354947" x2="323.98193559677435" y2="559.157056080646" />
    <line x1="327.1033807490324" y1="543.46449159419444" x2="333.34627105354849" y2="512.079362621291" />
    <line x1="339.58916135806459" y1="480.69423364838764" x2="342.71060651032263" y2="465.001669161936" />
    <line x1="275.52713523482504" y1="712.21125115003588" x2="279.41481811327725" y2="696.6907510989231" />
    <line x1="283.30250099172946" y1="681.17025104781044" x2="287.19018387018167" y2="665.64975099669778" />
    <line x1="294.96554962708615" y1="634.60875089447234" x2="298.85323250553836" y2="619.08825084335967" />
    <line x1="263.14207102446505" y1="692.18747549187992" x2="267.78662586053645" y2="676.87643012016451" />
    <line x1="300.2985097130362" y1="569.69911251815711" x2="304.94306454910759" y2="554.38806714644181" />
    <line x1="309.587619385179" y1="539.0770217747264" x2="314.23217422125038" y2="523.76597640301111" />
    <line x1="241.71965277880076" y1="701.95586346588743" x2="252.50012808735181" y2="671.8264533800309" />
    <line x1="249.72570401993346" y1="636.46834162334085" x2="255.84863893777489" y2="621.68626910316038" />
    <line x1="292.58624844482347" y1="532.99383398207681" x2="323.20092303403067" y2="459.08347138117381" />
    <line x1="209.08016636509856" y1="688.43614552443967" x2="215.92104785998305" y2="673.97231683446455" />
    <line x1="222.76192935486756" y1="659.50848814448943" x2="229.60281084975208" y2="645.04465945451443" />
    <line x1="243.2845738395211" y1="616.1170020745642" x2="250.12545533440562" y2="601.65317338458908" />
    <line x1="223.4665658995047" y1="624.04869424711308" x2="231.00891368872067" y2="609.93795401753937" />
    <line x1="238.55126147793663" y1="595.82721378796577" x2="268.72065263480044" y2="539.384252869671" />
    <line x1="276.26300042401647" y1="525.27351264009735" x2="283.80534821323238" y2="511.16277241052364" />
    <line x1="186.14865599753179" y1="658.05864184009363" x2="202.59994381171487" y2="630.61132632008491" />
    <line x1="219.05123162589797" y1="603.1640108000762" x2="227.27687553298952" y2="589.44035304007184" />
    <line x1="162.99471611294331" y1="662.32906042891636" x2="171.88383984125693" y2="649.0255466320757" />
    <line x1="180.77296356957055" y1="635.72203283523493" x2="189.6620872978842" y2="622.41851903839415" />
    <line x1="198.55121102619782" y1="609.11500524155349" x2="207.44033475451144" y2="595.81149144471271" />
    <line x1="225.21858221113871" y1="569.20446385103128" x2="242.99682966776598" y2="542.59743625734984" />
    <line x1="251.88595339607963" y1="529.29392246050907" x2="260.77507712439325" y2="515.9904086636684" />
    <line x1="269.66420085270687" y1="502.68689486682763" x2="287.44244830933417" y2="476.07986727314619" />
    <line x1="305.22069576596141" y1="449.47283967946476" x2="314.10981949427503" y2="436.169325882624" />
    <line x1="158.07943925460296" y1="639.30339082934188" x2="186.67300587023976" y2="600.74942931827093" />
    <line x1="134.61841770108771" y1="641.28376321058533" x2="154.91900279432434" y2="616.54742870297775" />
    <line x1="215.8207580740343" y1="542.338425180155" x2="236.12134316727094" y2="517.60209067254743" />
    <line x1="246.27163571388928" y1="505.23392341874364" x2="266.57222080712592" y2="480.49758891113606" />
    <line x1="119.75526727182768" y1="606.24473272817238" x2="142.38268426979718" y2="583.6173157302029" />
    <line x1="153.69639276878195" y1="572.30360723121817" x2="165.01010126776671" y2="560.98989873223331" />
    <line x1="187.63751826573622" y1="538.36248173426384" x2="198.95122676472099" y2="527.0487732352791" />
    <line x1="221.57864376269052" y1="504.42135623730951" x2="244.20606076066002" y2="481.79393923934003" />
    <line x1="255.51976925964479" y1="470.48023074035524" x2="266.83347775862956" y2="459.1665222413705" />
    <line x1="289.46089475659903" y1="436.53910524340097" x2="312.08831175456856" y2="413.91168824543144" />
    <line x1="334.7157287525381" y1="391.2842712474619" x2="346.02943725152284" y2="379.97056274847716" />
    <line x1="96.257594872214781" y1="604.76122374492672" x2="108.11281287789416" y2="594.01628046737437" />
    <line x1="155.53368490061152" y1="551.03650735716519" x2="167.38890290629087" y2="540.291564079613" />
    <line x1="97.084404043218569" y1="581.23128975229417" x2="109.45257129702239" y2="571.08099720567589" />
    <line x1="121.82073855082615" y1="560.93070465905748" x2="146.55707305843373" y2="540.63011956582091" />
    <line x1="158.92524031223752" y1="530.4798270192025" x2="171.29340756604131" y2="520.32953447258421" />
    <line x1="183.6615748198451" y1="510.17924192596587" x2="196.02974207364889" y2="500.02894937934752" />
    <line x1="233.13424383506023" y1="469.57807173949254" x2="245.50241108886402" y2="459.4277791928742" />
    <line x1="86.696609170658121" y1="567.920560745397" x2="99.547929674348438" y2="558.389371873518" />
    <line x1="112.39925017803876" y1="548.85818300163919" x2="125.25057068172907" y2="539.32699412976024" />
    <line x1="138.10189118541939" y1="529.79580525788128" x2="150.95321168910971" y2="520.26461638600233" />
    <line x1="63.670939571083693" y1="563.00528388705675" x2="103.58148096160591" y2="536.33791270211589" />
    <line x1="116.88499475844662" y1="527.44878897380227" x2="130.18850855528734" y2="518.55966524548865" />
    <line x1="143.49202235212806" y1="509.67054151717497" x2="156.79553614896878" y2="500.78141778886135" />
    <line x1="183.40256374265022" y1="483.00317033223405" x2="236.61661893001312" y2="447.44667541897957" />
    <line x1="263.22364652369458" y1="429.66842796235227" x2="276.5271603205353" y2="420.77930423403865" />
    <line x1="81.665015919910786" y1="531.62570009537671" x2="95.388673679915144" y2="523.40005618828513" />
    <line x1="122.83598919992383" y1="506.94876837410209" x2="136.55964695992819" y2="498.72312446701051" />
    <line x1="87.840565523313273" y1="510.07578188971132" x2="101.95130575288692" y2="502.53343410049536" />
    <line x1="144.283526441608" y1="479.90639073284746" x2="186.615747130329" y2="457.27934736519956" />
    <line x1="52.027683165535564" y1="510.07895214001718" x2="80.95534054548574" y2="496.3971891502481" />
    <line x1="95.419169235460856" y1="489.55630765536364" x2="124.346826615411" y2="475.87454466559456" />
    <line x1="30.403368295936843" y1="500.7660356514325" x2="59.967513336298" y2="488.52016581574964" />
    <line x1="104.31373089683979" y1="470.15136106222531" x2="133.87787593720094" y2="457.90549122654238" />
    <line x1="148.65994845738152" y1="451.782556308701" x2="163.44202097756212" y2="445.65962139085951" />
    <line x1="222.57031105828446" y1="421.16788171949372" x2="252.13445609864561" y2="408.92201188381085" />
    <line x1="266.91652861882619" y1="402.79907696596939" x2="296.48067365918735" y2="390.55320713028652" />
    <line x1="39.108841577040835" y1="478.89010956692368" x2="69.238251662897483" y2="468.10963425837264" />
    <line x1="84.302956705825864" y1="462.71939660409708" x2="99.367661748754188" y2="457.32915894982159" />
    <line x1="18.501479136404839" y1="467.50248381160645" x2="49.123569879835486" y2="458.21337413946367" />
    <line x1="95.056705994981542" y1="444.27970963124949" x2="110.36775136669687" y2="439.6351547951781" />
    <line x1="125.67879673841222" y1="434.9905999591067" x2="140.98984211012754" y2="430.34604512303531" />
    <line x1="156.30088748184289" y1="425.70149028696392" x2="186.92297822527357" y2="416.41238061482107" />
    <line x1="217.54506896870427" y1="407.12327094267829" x2="232.8561143404196" y2="402.4787161066069" />
    <line x1="29.3092489010769" y1="446.58518188672286" x2="91.391249105527663" y2="431.03445037291397" />
    <line x1="25.609863541288746" y1="430.11107077354825" x2="72.687557000643835" y2="420.74673531677411" />
    <line x1="88.3801214870955" y1="417.625290164516" x2="104.07268597354721" y2="414.50384501225795" />
    <line x1="135.45781494645055" y1="408.26095470774186" x2="151.15037943290224" y2="405.13950955548381" />
    <line x1="182.53550840580562" y1="398.89661925096766" x2="198.2280728922573" y2="395.77517409870961" />
    <line x1="245.30576635161236" y1="386.41083864193541" x2="260.998330838064" y2="383.28939348967737" />
    <line x1="38.550104731551869" y1="411.12759562135886" x2="70.203753050424837" y2="406.43222043878723" />
    <line x1="4.73349839800909" y1="398.28617051864177" x2="52.502365278274567" y2="393.58134778282283" />
    <line x1="100.27123215853999" y1="388.87652504700395" x2="148.04009903880547" y2="384.17170231118507" />
    <line x1="211.73192154582605" y1="377.89860533009318" x2="227.65487717258122" y2="376.33033108482022" />
    <line x1="35" y1="363.00000000000006" x2="99" y2="363.00000000000006" />
    <line x1="131" y1="363.00000000000006" x2="163" y2="363.00000000000006" />
    <line x1="227" y1="363" x2="291" y2="363" />
    <line x1="51.3758176639862" y1="347.69088560984568" x2="83.337272262551721" y2="349.26105118832305" />
    <line x1="68.425320905029707" y1="333.98692646245024" x2="100.27123215853999" y2="337.12347495299616" />
    <line x1="132.11714341205033" y1="340.26002344354208" x2="195.80896591907091" y2="346.53312042463392" />
    <line x1="41.302428027740405" y1="299.01037437870991" x2="56.99499251419212" y2="302.13181953096796" />
    <line x1="119.76525045999887" y1="314.61760014000015" x2="135.45781494645053" y2="317.73904529225825" />
    <line x1="166.8429439193539" y1="323.98193559677435" x2="182.53550840580562" y2="327.1033807490324" />
    <line x1="198.22807289225727" y1="330.22482590129044" x2="260.998330838064" y2="342.71060651032263" />
    <line x1="13.788748849964179" y1="275.52713523482504" x2="44.829748952189561" y2="283.30250099172952" />
    <line x1="60.350249003302281" y1="287.19018387018173" x2="106.91174915664038" y2="298.85323250553836" />
    <line x1="49.123569879835486" y1="267.78662586053645" x2="64.434615251550838" y2="272.43118069660784" />
    <line x1="79.745660623266133" y1="277.07573553267923" x2="95.056705994981485" y2="281.72029036875063" />
    <line x1="140.98984211012754" y1="295.6539548769648" x2="171.61193285355822" y2="304.94306454910759" />
    <line x1="186.92297822527357" y1="309.587619385179" x2="202.23402359698889" y2="314.23217422125038" />
    <line x1="69.238251662897483" y1="257.89036574162748" x2="84.3029567058258" y2="263.280603395903" />
    <line x1="30.403368295936787" y1="225.23396434856761" x2="45.185440816117421" y2="231.35689926640904" />
    <line x1="104.31373089683973" y1="255.84863893777481" x2="148.65994845738149" y2="274.21744369129914" />
    <line x1="178.22409349774267" y1="286.463313526982" x2="193.00616601792325" y2="292.58624844482347" />
    <line x1="207.78823853810386" y1="298.70918336266487" x2="237.35238357846504" y2="310.95505319834774" />
    <line x1="266.91652861882619" y1="323.20092303403067" x2="281.69860113900677" y2="329.32385795187207" />
    <line x1="296.48067365918735" y1="335.44679286971353" x2="326.04481869954856" y2="347.6926627053964" />
    <line x1="52.027683165535507" y1="215.92104785998293" x2="66.491511855510566" y2="222.76192935486745" />
    <line x1="80.955340545485683" y1="229.60281084975196" x2="95.4191692354608" y2="236.44369234463647" />
    <line x1="109.88299792543586" y1="243.284573839521" x2="124.34682661541095" y2="250.1254553344055" />
    <line x1="101.95130575288692" y1="223.4665658995047" x2="116.06204598246058" y2="231.00891368872067" />
    <line x1="130.17278621203425" y1="238.55126147793663" x2="144.28352644160796" y2="246.0936092671526" />
    <line x1="158.39426667118164" y1="253.63595705636857" x2="186.615747130329" y2="268.7206526348005" />
    <line x1="214.83722758947636" y1="283.80534821323238" x2="228.94796781905004" y2="291.3476960024484" />
    <line x1="67.941358159906372" y1="186.14865599753179" x2="95.388673679915087" y2="202.59994381171487" />
    <line x1="109.11233143991942" y1="210.82558771880642" x2="122.83598919992377" y2="219.05123162589797" />
    <line x1="156.79553614896872" y1="225.21858221113874" x2="170.09904994580944" y2="234.10770593945236" />
    <line x1="210.00959133633162" y1="260.77507712439325" x2="249.92013272685381" y2="287.44244830933417" />
    <line x1="263.22364652369453" y1="296.33157203764779" x2="276.52716032053524" y2="305.22069576596141" />
    <line x1="99.547929674348325" y1="167.610628126482" x2="150.95321168910965" y2="205.7353836139977" />
    <line x1="84.716236789414722" y1="134.61841770108759" x2="109.4525712970223" y2="154.91900279432426" />
    <line x1="134.18890580462988" y1="175.21958788756089" x2="146.55707305843367" y2="185.36988043417924" />
    <line x1="158.92524031223746" y1="195.52017298079755" x2="171.29340756604125" y2="205.6704655274159" />
    <line x1="183.66157481984504" y1="215.82075807403422" x2="196.02974207364883" y2="225.97105062065256" />
    <line x1="233.1342438350602" y1="256.42192826050757" x2="245.502411088864" y2="266.57222080712586" />
    <line x1="108.11281287789407" y1="131.98371953262569" x2="143.67846689493211" y2="164.21854936528257" />
    <line x1="131.06897577081236" y1="131.06897577081247" x2="142.38268426979712" y2="142.38268426979724" />
    <line x1="153.69639276878189" y1="153.69639276878198" x2="176.32380976675142" y2="176.32380976675151" />
    <line x1="198.95122676472093" y1="198.951226764721" x2="244.20606076066" y2="244.20606076066005" />
    <line x1="289.46089475659903" y1="289.46089475659909" x2="300.77460325558383" y2="300.77460325558383" />
    <line x1="312.08831175456856" y1="312.08831175456862" x2="323.40202025355336" y2="323.40202025355336" />
    <line x1="334.7157287525381" y1="334.7157287525381" x2="346.02943725152284" y2="346.02943725152284" />
    <line x1="153.47360608773019" y1="131.82324888925282" x2="164.21854936528249" y2="143.67846689493217" />
    <line x1="174.96349264283478" y1="155.53368490061152" x2="185.70843592038708" y2="167.38890290629087" />
    <line x1="154.91900279432414" y1="109.45257129702239" x2="165.06929534094246" y2="121.82073855082615" />
    <line x1="175.21958788756081" y1="134.18890580462994" x2="185.36988043417915" y2="146.55707305843373" />
    <line x1="195.52017298079747" y1="158.92524031223752" x2="215.82075807403413" y2="183.6615748198451" />
    <line x1="177.14181699836084" y1="112.39925017803876" x2="186.67300587023976" y2="125.25057068172907" />
    <line x1="196.20419474211869" y1="138.10189118541939" x2="205.73538361399761" y2="150.95321168910971" />
    <line x1="180.77296356957049" y1="90.277967164765187" x2="189.66208729788411" y2="103.58148096160591" />
    <line x1="225.21858221113865" y1="156.79553614896878" x2="251.88595339607957" y2="196.70607753949096" />
    <line x1="287.44244830933411" y1="249.92013272685387" x2="296.33157203764773" y2="263.22364652369458" />
    <line x1="305.22069576596135" y1="276.5271603205353" x2="314.10981949427503" y2="289.830674117376" />
    <line x1="202.59994381171478" y1="95.388673679915144" x2="227.27687553298944" y2="136.55964695992819" />
    <line x1="200.83952253185672" y1="59.619085064165915" x2="215.92421811028865" y2="87.840565523313273" />
    <line x1="231.00891368872058" y1="116.06204598246066" x2="246.09360926715252" y2="144.283526441608" />
    <line x1="209.08016636509828" y1="37.563854475560504" x2="215.92104785998282" y2="52.027683165535564" />
    <line x1="229.60281084975185" y1="80.95534054548574" x2="243.28457383952087" y2="109.88299792543592" />
    <line x1="225.23396434856747" y1="30.403368295936843" x2="237.47983418425037" y2="59.967513336298" />
    <line x1="255.8486389377747" y1="104.31373089683979" x2="261.97157385561616" y2="119.09580341702036" />
    <line x1="268.09450877345756" y1="133.87787593720094" x2="286.46331352698189" y2="178.2240934977427" />
    <line x1="304.83211828050628" y1="222.57031105828446" x2="310.95505319834768" y2="237.35238357846504" />
    <line x1="317.07798811618915" y1="252.13445609864561" x2="329.323857951872" y2="281.69860113900677" />
    <line x1="341.56972778755494" y1="311.26274617936792" x2="347.6926627053964" y2="326.04481869954856" />
    <line x1="252.50012808735184" y1="54.173546619969159" x2="263.28060339590286" y2="84.302956705825864" />
    <line x1="300.29850971303608" y1="156.30088748184289" x2="309.58761938517887" y2="186.92297822527357" />
    <line x1="279.41481811327714" y1="29.3092489010769" x2="287.19018387018156" y2="60.350249003302281" />
    <line x1="291.07786674863382" y1="75.870749054415" x2="298.85323250553824" y2="106.91174915664038" />
    <line x1="302.13181953096785" y1="56.99499251419212" x2="305.25326468322589" y2="72.687557000643835" />
    <line x1="323.98193559677424" y1="166.84294391935393" x2="330.22482590129039" y2="198.2280728922573" />
    <line x1="333.34627105354843" y1="213.920637378709" x2="336.46771620580648" y2="229.61320186516068" />
    <line x1="339.58916135806453" y1="245.30576635161236" x2="348.95349681483873" y2="292.38345981096745" />
    <line x1="314.87240437864114" y1="38.550104731551869" x2="317.22009196992695" y2="54.376928890988381" />
    <line x1="319.56777956121272" y1="70.203753050424837" x2="324.2631547437843" y2="101.85740136929786" />
    <line x1="335.55520070772309" y1="84.348276531784848" x2="341.82829768881493" y2="148.04009903880547" />
    <line x1="346.90580282060688" y1="35.395090364703435" x2="348.47596839908425" y2="67.356544963268959" />
  </g>
  <path fill="none" stroke="#ff0000" stroke-width="2" stroke-linecap="square" stroke-linejoin="round" d="M 371.83484226824839,3.108425269366478 L 370.85319312733191,43.096378017214647 A 320,320 0 0,0 355.14680687266804,43.096378017214647 L 355.5394665290346,59.091559116353892 A 304,304 0 0,1 385.36362733429888,59.8237011696782 L 384.1865943167042,75.7803484765372 A 288,288 0 0,0 327.74572554262579,77.165894035571512 L 331.6628671490007,108.92523914273025 A 256,256 0 0,0 319.23375647736276,110.76892354843108 L 313.76297603703307,79.240038991984932 A 288,288 0 0,0 299.89884283482138,81.997786548903775 L 296.39322299231145,66.386552468287334 A 304,304 0 0,0 267.640750918737,74.343433099716833 L 262.62184307235475,59.150982210228278 A 320,320 0 0,1 277.65191760803248,54.591658945459244 L 273.3845134884341,39.171241892732212 A 336,336 0 0,0 242.07526772424404,49.514419591527712 L 247.83358830880383,64.442304372883541 A 320,320 0 0,0 219.12437451052577,77.16822361743516 L 204.73681196157835,48.585045979178688 A 352,352 0 0,0 96.462486029717468,133.08315928027056 L 120.69316911792495,153.98469025479142 A 320,320 0 0,0 110.72914315948603,166.12589101419937 L 98.115600317460348,156.28218556490933 A 336,336 0 0,0 79.129202076098352,183.24079971793543 L 65.611545032103038,174.68083779974188 A 352,352 0 0,0 41.198165992357247,220.35505747024351 L 55.825522083613748,226.83891849432337 A 336,336 0 0,0 39.171241892732212,273.38451348843421 L 54.591658945459244,277.65191760803259 A 320,320 0 0,0 50.775318387670836,292.88760314980169 L 66.386552468287334,296.39322299231162 A 304,304 0 0,0 59.823701169678145,340.63637266570123 L 91.736995783396253,342.99043870089059 A 272,272 0 0,0 91.081921314632439,356.32478584176795 L 43.096378017214647,355.14680687266815 A 320,320 0 0,1 45.4065489284128,323.828583936251 L 29.526876374833421,321.87001313306354 A 336,336 0 0,0 27.910406555960094,387.71769336948825 L 43.867053862819148,386.54066035189356 A 320,320 0 0,1 43.096378017214647,370.85319312733196 L 75.0867402154932,370.06787381459878 A 288,288 0 0,0 81.997786548903775,426.10115716517862 L 97.609020629520273,422.59553732266869 A 272,272 0 0,0 100.85291010364034,435.54587003317238 L 85.432493050913308,439.81327415277076 A 288,288 0 0,0 89.535883989205445,453.34034123488073 L 74.343433099716833,458.359249081263 A 304,304 0 0,0 91.459812436563368,499.68184421500052 L 105.75140125569163,492.48806294052679 A 288,288 0 0,0 119.68217320808438,517.079314527484 L 106.16451616408904,525.63927644567752 A 304,304 0 0,0 114.45421680191853,538.045690191025 L 75.2101457706425,565.68448337908148 A 352,352 0 0,0 96.462486029717525,592.91684071972952 L 108.57782757382128,582.46607523246917 A 336,336 0 0,0 119.65298012830718,594.68562303165459 L 108.06502680108369,605.7182717474476 A 352,352 0 0,0 133.08315928027068,629.53751397028259 L 143.53392476753109,617.42217242617892 A 336,336 0 0,1 131.31437696834553,606.347019871693 L 142.3470256841386,594.75906654446942 A 320,320 0 0,0 166.12589101419945,615.270856840514 L 175.9695964634895,602.65731399848835 A 304,304 0 0,1 132.80851066202877,561.56454425794823 L 144.92385220613252,551.11377877068776 A 288,288 0 0,0 154.41684010997759,561.58767688427531 L 166.00479343720105,550.55502816848229 A 272,272 0 0,0 217.48064739070964,592.80016974792034 L 208.92068547251608,606.31782679191565 A 288,288 0 0,0 221.04532063782222,613.58505343930892 L 228.93169171349877,599.6636615815695 A 272,272 0 0,0 240.705718333947,605.95700992518016 L 247.89949960842068,591.66542110605189 A 256,256 0 0,0 253.54589608184784,594.42125903960152 L 260.38677757673236,579.95743034962641 A 240,240 0 0,0 327.78468613071323,600.4023623915474 L 332.48006131328481,568.74871407267449 A 208,208 0 0,0 352.79392373989714,570.74945489067591 L 353.57900652913577,554.76872759139314 A 192,192 0 0,0 372.42099347086423,554.76872759139314 L 371.63591068162555,538.78800029211038 A 176,176 0 0,0 405.76451166297448,533.72550056223974 L 409.6521945414267,549.24600061335241 A 192,192 0 0,1 391.17225109542949,552.92188991323792 L 393.51993868671525,568.74871407267437 A 208,208 0 0,0 433.07308950558183,558.84116555806827 L 438.46332715985733,573.90587060099665 A 224,224 0 0,1 417.42756029833117,580.28700071557785 L 421.31524317678338,595.80750076669051 A 240,240 0 0,0 443.85356481413288,588.970575643925 L 449.24380246840838,604.0352806868533 A 256,256 0 0,1 356.71744549813451,618.92289758622826 L 356.32478584176789,634.91807868536762 A 272,272 0 0,1 303.40446267733142,628.39097937047973 L 299.89884283482149,644.00221345109617 A 288,288 0 0,1 259.35022947792345,631.7019260644048 L 253.59190889336361,646.62981084576063 A 304,304 0 0,1 239.80664054248314,640.91976573387342 L 233.32277951840331,655.54712182512981 A 320,320 0 0,0 277.65191760803259,671.40834105454076 L 273.38451348843421,686.82875810726773 A 336,336 0 0,0 289.38198330729176,690.8359156929456 L 285.87636346478183,706.447149773562 A 352,352 0 0,0 371.63851244006514,714.89398418106384 L 371.24585278369852,698.8988030819246 A 336,336 0 0,0 387.71769336948836,698.08959344403991 L 388.89472638708304,714.046240750899 A 352,352 0 0,0 423.178584843626,709.8177301209073 L 420.44319462346118,694.05328784268431 A 336,336 0 0,0 452.6154865115659,686.82875810726773 L 448.34808239196752,671.40834105454076 A 320,320 0 0,1 417.70780440329639,678.28884556446121 L 414.97241418313155,662.52440328623811 A 304,304 0 0,0 444.08067827236914,655.98792400181378 L 439.81327415277076,640.56750694908669 A 288,288 0 0,0 453.34034123488073,636.46411601079456 L 448.32143338849846,621.271665121306 A 272,272 0 0,0 473.22563740935726,611.6650535513603 L 479.70949843343709,626.2924096426168 A 288,288 0 0,0 528.83275912833949,598.464426187656 L 538.045690191025,611.54578319808138 A 304,304 0 0,0 572.62032560006833,583.17111321724587 L 583.65297431586146,594.75906654446931 A 320,320 0 0,0 594.75906654446942,583.65297431586146 L 548.40725323557558,539.52237945268917 A 256,256 0 0,0 572.30171216680537,510.40689700296844 L 598.464426187656,528.83275912833949 A 288,288 0 0,0 606.31782679191565,517.07931452748392 L 592.80016974792034,508.51935260929042 A 272,272 0 0,0 599.6636615815695,497.06830828650124 L 585.74226972383008,489.18193721082469 A 256,256 0 0,1 582.57852416006972,494.61030251346472 L 555.131208640061,478.15901469928167 A 224,224 0 0,0 565.49360165965129,458.77234092838313 L 579.95743034962641,465.61322242326764 A 240,240 0 0,0 588.970575643925,443.85356481413277 L 604.0352806868533,449.24380246840832 A 256,256 0 0,1 597.0376974601038,466.74177638527738 L 640.91976573387342,486.19335945751686 A 304,304 0 0,1 627.50644529704823,512.84105043785439 L 655.34922901252708,528.61379258920738 A 336,336 0 0,1 646.87079792390159,542.75920028206463 L 633.35314087990628,534.199238363871 A 320,320 0 0,1 624.62714020850672,547.25862125371054 L 650.78985422935739,565.6844833790816 A 352,352 0 0,0 684.80183400764281,505.64494252975635 L 670.17447791638631,499.16108150567652 A 336,336 0 0,0 690.8359156929456,436.61801669270818 L 706.447149773562,440.12363653521811 A 352,352 0 0,0 709.8177301209073,423.178584843626 L 694.05328784268431,420.44319462346124 A 336,336 0 0,0 698.08959344403991,387.71769336948825 L 666.17629883032191,385.36362733429888 A 304,304 0 0,0 666.90844088364611,370.46053347096529 L 682.90362198278535,370.85319312733191 A 320,320 0 0,0 682.90362198278535,355.14680687266809 L 634.91807868536762,356.32478584176789 A 272,272 0 0,0 632.95443341084911,329.70429634581319 L 648.83410596442855,327.74572554262573 A 288,288 0 0,1 650.21965152346274,341.8134056832958 L 666.1762988303218,340.63637266570112 A 304,304 0 0,0 651.65656690028322,267.64075091873696 L 666.84901778977178,262.62184307235469 A 320,320 0 0,1 675.22468161232916,292.88760314980169 L 690.8359156929456,289.38198330729176 A 336,336 0 0,0 663.1233652016931,211.93059323605218 L 634.54018756343658,226.31815578499959 A 304,304 0 0,1 640.91976573387331,239.80664054248308 L 626.2924096426168,246.29050156656291 A 288,288 0 0,0 613.58505343930892,221.04532063782219 L 641.42783715478765,205.27257848646909 A 320,320 0 0,0 624.62714020850672,178.74137874628949 L 637.708497218932,169.52844768360396 A 336,336 0 0,0 617.4221724261788,143.533924767531 L 568.96080624976378,185.33698671657271 A 272,272 0 0,1 592.80016974792034,217.48064739070952 L 579.282512703925,226.0406093089031 A 256,256 0 0,1 597.0376974601038,259.25822361472262 L 611.6650535513603,252.77436259064277 A 272,272 0 0,1 616.774041283049,265.10855006248318 L 601.84615650169314,270.866870647043 A 256,256 0 0,1 611.32800081780329,300.79707394476441 L 595.80750076669051,304.68475682321662 A 240,240 0 0,1 600.4023623915474,327.78468613071317 L 584.575538232111,330.132373721999 A 224,224 0 0,1 586.73018218995867,352.00884095065834 L 602.71090948924143,351.22375816141965 A 240,240 0 0,1 602.71090948924143,374.77624183858035 L 554.76872759139314,372.42099347086423 A 192,192 0 0,1 552.92188991323792,391.17225109542943 L 521.268241594365,386.47687591285785 A 160,160 0 0,1 518.20500051112708,401.87682878452222 L 502.68450046001431,397.98914590607 A 144,144 0 0,1 493.17445820977582,424.56793345396056 L 478.71062951980076,417.72705195907611 A 128,128 0 0,1 475.88592183658943,423.33878231372773 L 461.77518160701578,415.79643452451171 A 112,112 0 0,0 470.17731760200741,395.51188385249975 L 485.48836297372276,400.15643868857114 A 128,128 0 0,0 490.38364501404124,375.54619396218374 L 442.61477813377576,370.84137122636486 A 80,80 0 0,1 439.5552268585767,386.22277418035696 L 424.24418148686135,381.57821934428557 A 64,64 0 0,0 425.77025794580675,375.48578060903219 L 410.07769345935503,372.36433545677414 A 48,48 0 0,1 402.91054139052216,389.66737118494092 L 389.60702759368144,380.77824745662724 A 32,32 0 0,1 350.75413016431713,392.56414504036115 L 353.81559762323786,385.17310878027087" />
  <type>Circular</type>
</svg>