<?xml version="1.0" encoding="utf-8" standalone="no"?>
<!DOCTYPE svg PUBLIC "-//W3C//DTD SVG 1.1//EN" "http://www.w3.org/Graphics/SVG/1.1/DTD/svg11.dtd"[]>
<svg width="724" height="724" version="1.1" xmlns="http://www.w3.org/2000/svg">
  <title>45 cells diameter theta maze</title>
  <g fill="none" stroke="#000000" stroke-width="2" stroke-linecap="square">
    <path d="M 346.02943725152284,379.97056274847716 A 24,24 0 1,1 363,387" />
    <path d="M 347.6926627053964,326.04481869954856 A 40,40 0 0,1 378.3073372946036,326.0448186995485" />
    <path d="M 391.2842712474619,334.7157287525381 A 40,40 0 0,1 399.9551813004515,347.6926627053964" />
    <path d="M 403,363 A 40,40 0 0,1 399.9551813004515,378.3073372946036" />
    <path d="M 391.2842712474619,391.2842712474619 A 40,40 0 0,1 378.3073372946036,399.9551813004515" />
    <path d="M 347.6926627053964,399.9551813004515 A 40,40 0 0,1 334.7157287525381,391.2842712474619" />
    <path d="M 326.04481869954856,378.3073372946036 A 40,40 0 0,1 323,363" />
    <path d="M 311.26274617936792,341.56972778755494 A 56,56 0 0,1 363,307" />
    <path d="M 384.430272212445,311.26274617936792 A 56,56 0 0,1 419,363" />
    <path d="M 414.73725382063208,384.430272212445 A 56,56 0 0,1 402.59797974644664,402.59797974644664" />
    <path d="M 384.43027221244506,414.73725382063208 A 56,56 0 0,1 341.569727787555,414.73725382063208" />
    <path d="M 323.40202025355336,402.59797974644664 A 56,56 0 0,1 311.26274617936792,384.43027221244506" />
    <path d="M 348.95349681483873,292.38345981096739 A 72,72 0 0,1 390.55320713028647,296.48067365918735" />
    <path d="M 403.00105677741135,303.13418791421674 A 72,72 0 0,1 413.91168824543144,312.08831175456856" />
    <path d="M 422.86581208578326,322.99894322258865 A 72,72 0 0,1 435,363" />
    <path d="M 433.61654018903261,377.04650318516121 A 72,72 0 0,1 429.51932634081265,390.55320713028647" />
    <path d="M 422.86581208578326,403.00105677741135 A 72,72 0 0,1 390.55320713028647,429.51932634081265" />
    <path d="M 377.04650318516127,433.61654018903261 A 72,72 0 0,1 348.95349681483879,433.61654018903261" />
    <path d="M 335.44679286971353,429.51932634081265 A 72,72 0 0,1 292.38345981096739,348.95349681483879" />
    <path d="M 303.13418791421674,322.99894322258865 A 72,72 0 0,1 322.99894322258865,303.13418791421674" />
    <path d="M 300.77460325558383,300.77460325558383 A 88,88 0 0,1 380.16794833741926,276.69089532451574" />
    <path d="M 411.89018050572497,289.830674117376 A 88,88 0 0,1 444.30139886099323,329.32385795187213" />
    <path d="M 451,363 A 88,88 0 0,1 363,451" />
    <path d="M 345.83205166258068,449.30910467548426 A 88,88 0 0,1 314.10981949427503,436.169325882624" />
    <path d="M 289.830674117376,411.89018050572497 A 88,88 0 0,1 281.69860113900677,396.67614204812793" />
    <path d="M 276.69089532451574,345.83205166258074 A 88,88 0 0,1 281.69860113900677,329.32385795187207" />
    <path d="M 323.20092303403061,266.91652861882619 A 104,104 0 0,1 383.28939348967731,260.998330838064" />
    <path d="M 402.79907696596933,266.91652861882619 A 104,104 0 0,1 467,363" />
    <path d="M 465.001669161936,383.28939348967731 A 104,104 0 0,1 342.71060651032263,465.001669161936" />
    <path d="M 305.22069576596141,449.47283967946476 A 104,104 0 0,1 289.46089475659909,436.53910524340097" />
    <path d="M 260.998330838064,383.28939348967737 A 104,104 0 0,1 259,363" />
    <path d="M 266.91652861882619,323.20092303403067 A 104,104 0 0,1 276.52716032053524,305.22069576596141" />
    <path d="M 289.46089475659903,289.46089475659909 A 104,104 0 0,1 305.22069576596135,276.5271603205353" />
    <path d="M 429.66842796235227,263.22364652369458 A 120,120 0 0,1 473.86554390135439,317.0779881161892" />
    <path d="M 483,363 A 120,120 0 0,1 473.86554390135439,408.92201188381074" />
    <path d="M 447.85281374238571,447.85281374238571 A 120,120 0 0,1 386.41083864193541,480.69423364838764" />
    <path d="M 339.58916135806459,480.69423364838764 A 120,120 0 0,1 263.22364652369458,429.66842796235227" />
    <path d="M 252.13445609864561,408.92201188381085 A 120,120 0 0,1 252.13445609864561,317.0779881161892" />
    <path d="M 263.22364652369453,296.33157203764779 A 120,120 0 0,1 339.58916135806453,245.30576635161236" />
    <path d="M 363,227 A 136,136 0 0,1 415.0449468016522,237.35238357846498" />
    <path d="M 427.10995620833569,243.05870804862371 A 136,136 0 0,1 449.2774866462558,257.87057834266778" />
    <path d="M 468.12942165733222,276.7225133537442 A 136,136 0 0,1 476.07986727314614,287.44244830933411" />
    <path d="M 482.94129195137629,298.89004379166431 A 136,136 0 0,1 496.38679813483935,336.46771620580654" />
    <path d="M 498.34512282741878,349.66966891517973 A 136,136 0 0,1 499,363" />
    <path d="M 498.34512282741878,376.33033108482027 A 136,136 0 0,1 496.38679813483935,389.53228379419346" />
    <path d="M 493.14388565958041,402.47871610660684 A 136,136 0 0,1 488.647616421535,415.0449468016522" />
    <path d="M 482.94129195137629,427.10995620833569 A 136,136 0 0,1 468.12942165733227,449.27748664625574" />
    <path d="M 459.16652224137044,459.16652224137044 A 136,136 0 0,1 415.0449468016522,488.64761642153496" />
    <path d="M 402.4787161066069,493.14388565958041 A 136,136 0 0,1 389.53228379419352,496.3867981348393" />
    <path d="M 376.33033108482027,498.34512282741878 A 136,136 0 0,1 363,499" />
    <path d="M 349.66966891517978,498.34512282741878 A 136,136 0 0,1 336.46771620580654,496.38679813483935" />
    <path d="M 323.52128389339316,493.14388565958041 A 136,136 0 0,1 310.9550531983478,488.647616421535" />
    <path d="M 298.89004379166431,482.94129195137629 A 136,136 0 0,1 287.44244830933417,476.07986727314619" />
    <path d="M 276.72251335374426,468.12942165733227 A 136,136 0 0,1 249.92013272685384,438.55755169066589" />
    <path d="M 243.05870804862371,427.10995620833569 A 136,136 0 0,1 232.8561143404196,402.4787161066069" />
    <path d="M 227.65487717258122,376.33033108482022 A 136,136 0 0,1 227.65487717258122,349.66966891517984" />
    <path d="M 232.8561143404196,323.52128389339316 A 136,136 0 0,1 266.8334777586295,266.83347775862956" />
    <path d="M 276.72251335374415,257.87057834266784 A 136,136 0 0,1 287.44244830933411,249.92013272685387" />
    <path d="M 336.46771620580648,229.61320186516068 A 136,136 0 0,1 349.66966891517978,227.65487717258122" />
    <path d="M 348.10139466990682,211.73192154582608 A 152,152 0 0,1 392.65372894645151,213.92063737870896" />
    <path d="M 421.16788171949366,222.5703110582844 A 152,152 0 0,1 447.44667541897957,236.61661893001312" />
    <path d="M 470.48023074035524,255.51976925964476 A 152,152 0 0,1 508.45493103129576,318.87672905732171" />
    <path d="M 514.268078454174,348.10139466990677 A 152,152 0 0,1 508.45493103129576,407.12327094267823" />
    <path d="M 503.4296889417156,421.16788171949361 A 152,152 0 0,1 434.65230399755166,497.05203218094994" />
    <path d="M 407.12327094267829,508.45493103129576 A 152,152 0 0,1 392.65372894645157,512.079362621291" />
    <path d="M 377.89860533009323,514.268078454174 A 152,152 0 0,1 333.34627105354849,512.079362621291" />
    <path d="M 318.87672905732177,508.45493103129576 A 152,152 0 0,1 266.57222080712592,480.49758891113606" />
    <path d="M 255.51976925964479,470.48023074035524 A 152,152 0 0,1 245.50241108886402,459.42777919287414" />
    <path d="M 236.61661893001312,447.44667541897951 A 152,152 0 0,1 228.94796781905006,434.65230399755171" />
    <path d="M 213.920637378709,392.65372894645157 A 152,152 0 0,1 211.73192154582608,377.89860533009318" />
    <path d="M 211.73192154582605,348.10139466990688 A 152,152 0 0,1 213.92063737870896,333.34627105354849" />
    <path d="M 222.57031105828443,304.83211828050634 A 152,152 0 0,1 236.61661893001309,278.55332458102055" />
    <path d="M 255.51976925964476,255.51976925964482 A 152,152 0 0,1 278.55332458102043,236.61661893001312" />
    <path d="M 304.83211828050628,222.57031105828446 A 152,152 0 0,1 318.87672905732171,217.54506896870427" />
    <path d="M 379.46687957536619,195.80896591907091 A 168,168 0 0,1 395.77517409870956,198.22807289225727" />
    <path d="M 411.76782577874968,202.23402359698892 A 168,168 0 0,1 442.19465178676762,214.83722758947636" />
    <path d="M 492.8657561649398,256.42192826050757 A 168,168 0 0,1 502.68689486682763,269.66420085270681" />
    <path d="M 511.16277241052364,283.80534821323238 A 168,168 0 0,1 531,363" />
    <path d="M 530.19103408092906,379.46687957536619 A 168,168 0 0,1 527.77192710774273,395.77517409870956" />
    <path d="M 523.76597640301111,411.76782577874962 A 168,168 0 0,1 511.16277241052364,442.19465178676762" />
    <path d="M 456.33579914729319,502.68689486682763 A 168,168 0 0,1 411.76782577874968,523.76597640301111" />
    <path d="M 395.77517409870961,527.77192710774273 A 168,168 0 0,1 379.46687957536619,530.19103408092906" />
    <path d="M 363,531 A 168,168 0 0,1 346.53312042463381,530.19103408092906" />
    <path d="M 330.22482590129044,527.77192710774273 A 168,168 0 0,1 283.80534821323238,511.16277241052364" />
    <path d="M 269.66420085270687,502.68689486682763 A 168,168 0 0,1 207.78823853810386,427.29081663733518" />
    <path d="M 202.23402359698892,411.76782577874968 A 168,168 0 0,1 195.80896591907091,346.53312042463392" />
    <path d="M 198.22807289225727,330.22482590129044 A 168,168 0 0,1 207.78823853810386,298.70918336266487" />
    <path d="M 233.1342438350602,256.42192826050757 A 168,168 0 0,1 256.42192826050746,233.13424383506026" />
    <path d="M 269.66420085270681,223.3131051331724 A 168,168 0 0,1 283.80534821323238,214.83722758947639" />
    <path d="M 298.70918336266482,207.78823853810386 A 168,168 0 0,1 346.53312042463381,195.80896591907091" />
    <path d="M 398.8966192509676,182.53550840580559 A 184,184 0 0,1 416.41238061482107,186.92297822527357" />
    <path d="M 433.41375155517653,193.00616601792325 A 184,184 0 0,1 449.73699957598353,200.72648735990268" />
    <path d="M 479.72836428611078,220.76607658125639 A 184,184 0 0,1 493.10764773832477,232.89235226167526" />
    <path d="M 515.99040866366829,260.77507712439319 A 184,184 0 0,1 525.27351264009735,276.26300042401641" />
    <path d="M 532.99383398207669,292.58624844482347 A 184,184 0 0,1 546.11398970768425,344.96484617936085" />
    <path d="M 543.46449159419444,398.8966192509676 A 184,184 0 0,1 525.27351264009735,449.73699957598359" />
    <path d="M 515.9904086636684,465.22492287560675 A 184,184 0 0,1 505.23392341874364,479.72836428611072" />
    <path d="M 493.10764773832477,493.10764773832477 A 184,184 0 0,1 479.72836428611078,505.23392341874364" />
    <path d="M 465.22492287560681,515.9904086636684 A 184,184 0 0,1 449.73699957598359,525.27351264009735" />
    <path d="M 381.03515382063921,546.11398970768425 A 184,184 0 0,1 363,547" />
    <path d="M 327.1033807490324,543.46449159419444 A 184,184 0 0,1 292.58624844482352,532.99383398207681" />
    <path d="M 276.26300042401647,525.27351264009735 A 184,184 0 0,1 260.77507712439325,515.9904086636684" />
    <path d="M 246.27163571388928,505.23392341874364 A 184,184 0 0,1 232.89235226167529,493.10764773832477" />
    <path d="M 200.72648735990271,449.73699957598365 A 184,184 0 0,1 182.53550840580562,398.89661925096766" />
    <path d="M 179.88601029231577,381.03515382063915 A 184,184 0 0,1 179,363.00000000000006" />
    <path d="M 179.88601029231577,344.96484617936096 A 184,184 0 0,1 182.53550840580559,327.1033807490324" />
    <path d="M 193.00616601792325,292.58624844482347 A 184,184 0 0,1 210.00959133633162,260.77507712439325" />
    <path d="M 220.76607658125641,246.27163571388923 A 184,184 0 0,1 260.77507712439319,210.00959133633168" />
    <path d="M 276.26300042401635,200.72648735990271 A 184,184 0 0,1 292.58624844482335,193.00616601792328" />
    <path d="M 327.10338074903234,182.53550840580562 A 184,184 0 0,1 344.96484617936085,179.88601029231577" />
    <path d="M 343.39657193408789,163.96305466556063 A 200,200 0 0,1 363,163" />
    <path d="M 382.60342806591211,163.96305466556063 A 200,200 0 0,1 421.05693545089247,171.61193285355822" />
    <path d="M 504.42135623730951,221.57864376269049 A 200,200 0 0,1 529.29392246050907,251.88595339607954" />
    <path d="M 547.77590650225738,286.463313526982 A 200,200 0 0,1 559.157056080646,323.98193559677435" />
    <path d="M 562.03694533443934,343.39657193408783 A 200,200 0 0,1 562.03694533443934,382.60342806591211" />
    <path d="M 559.157056080646,402.01806440322565 A 200,200 0 0,1 554.38806714644181,421.05693545089241" />
    <path d="M 539.384252869671,457.27934736519956 A 200,200 0 0,1 504.42135623730951,504.42135623730951" />
    <path d="M 474.11404660392043,529.29392246050907 A 200,200 0 0,1 382.60342806591217,562.03694533443934" />
    <path d="M 363,563 A 200,200 0 0,1 304.94306454910759,554.38806714644181" />
    <path d="M 268.72065263480044,539.384252869671 A 200,200 0 0,1 236.12134316727094,517.60209067254743" />
    <path d="M 221.57864376269052,504.42135623730951 A 200,200 0 0,1 208.39790932745268,489.87865683272918" />
    <path d="M 178.2240934977427,439.53668647301805 A 200,200 0 0,1 171.61193285355824,421.05693545089247" />
    <path d="M 163.96305466556063,382.60342806591211 A 200,200 0 0,1 166.8429439193539,323.98193559677435" />
    <path d="M 186.615747130329,268.7206526348005 A 200,200 0 0,1 221.57864376269046,221.57864376269052" />
    <path d="M 236.12134316727082,208.39790932745268 A 200,200 0 0,1 268.72065263480044,186.61574713032903" />
    <path d="M 304.94306454910748,171.61193285355824 A 200,200 0 0,1 323.98193559677424,166.84294391935393" />
    <path d="M 363,147 A 216,216 0 0,1 464.82169515441547,172.50500690075532" />
    <path d="M 483.00317033223405,183.40256374265022 A 216,216 0 0,1 500.02894937934741,196.02974207364881" />
    <path d="M 515.73506473629425,210.26493526370572 A 216,216 0 0,1 553.49499309924465,261.17830484558448" />
    <path d="M 569.69911251815711,300.29850971303614 A 216,216 0 0,1 574.84962056709776,320.8604904445163" />
    <path d="M 577.95990096119453,384.17170231118507 A 216,216 0 0,1 574.84962056709776,405.1395095554837" />
    <path d="M 569.69911251815711,425.7014902869638 A 216,216 0 0,1 553.49499309924465,464.82169515441547" />
    <path d="M 515.73506473629425,515.73506473629425 A 216,216 0 0,1 500.02894937934741,529.97025792635122" />
    <path d="M 464.82169515441552,553.49499309924465 A 216,216 0 0,1 425.70149028696386,569.69911251815711" />
    <path d="M 384.17170231118513,577.95990096119453 A 216,216 0 0,1 320.86049044451624,574.84962056709776" />
    <path d="M 261.17830484558453,553.49499309924465 A 216,216 0 0,1 242.99682966776598,542.59743625734984" />
    <path d="M 225.97105062065262,529.97025792635122 A 216,216 0 0,1 210.26493526370575,515.73506473629425" />
    <path d="M 196.02974207364889,500.02894937934752 A 216,216 0 0,1 163.44202097756212,445.65962139085951" />
    <path d="M 156.30088748184289,425.70149028696386 A 216,216 0 0,1 147,363.00000000000006" />
    <path d="M 148.04009903880547,341.82829768881504 A 216,216 0 0,1 156.30088748184286,300.2985097130362" />
    <path d="M 163.4420209775621,280.34037860914054 A 216,216 0 0,1 280.34037860914049,163.44202097756212" />
    <path d="M 300.29850971303608,156.30088748184289 A 216,216 0 0,1 320.86049044451619,151.15037943290224" />
    <path d="M 317.73904529225814,135.45781494645055 A 232,232 0 0,1 385.73997655645803,132.11714341205033" />
    <path d="M 472.36404294363143,158.39426667118164 A 232,232 0 0,1 491.89229406054767,170.0990499458095" />
    <path d="M 542.3384251801549,215.82075807403425 A 232,232 0 0,1 585.01015788987252,295.65395487696475" />
    <path d="M 590.54218505354947,317.73904529225825 A 232,232 0 0,1 595,363" />
    <path d="M 590.54218505354947,408.26095470774175 A 232,232 0 0,1 585.01015788987252,430.3460451230352" />
    <path d="M 577.34005154261854,451.7825563087008 A 232,232 0 0,1 567.60573332881836,472.36404294363149" />
    <path d="M 542.338425180155,510.1792419259657 A 232,232 0 0,1 491.89229406054767,555.9009500541905" />
    <path d="M 430.34604512303525,585.01015788987252 A 232,232 0 0,1 408.2609547077418,590.54218505354947" />
    <path d="M 385.73997655645809,593.88285658794962 A 232,232 0 0,1 317.7390452922582,590.54218505354947" />
    <path d="M 295.6539548769648,585.01015788987252 A 232,232 0 0,1 253.63595705636857,567.60573332881836" />
    <path d="M 215.8207580740343,542.338425180155 A 232,232 0 0,1 170.0990499458095,491.89229406054767" />
    <path d="M 148.65994845738152,451.782556308701 A 232,232 0 0,1 135.45781494645055,408.26095470774186" />
    <path d="M 158.39426667118161,253.63595705636857 A 232,232 0 0,1 198.95122676472093,198.951226764721" />
    <path d="M 253.63595705636848,158.39426667118167 A 232,232 0 0,1 295.65395487696469,140.98984211012754" />
    <path d="M 387.30825080173105,116.19418778529519 A 248,248 0 0,1 434.99059995910665,125.67879673841219" />
    <path d="M 457.90549122654227,133.87787593720088 A 248,248 0 0,1 479.9063907328474,144.28352644160796" />
    <path d="M 520.3295344725841,171.29340756604123 A 248,248 0 0,1 538.36248173426384,187.63751826573622" />
    <path d="M 600.32120326158781,291.00940004089335 A 248,248 0 0,1 609.80581221470482,338.69174919826895" />
    <path d="M 611,363 A 248,248 0 0,1 606.23474954000119,411.38239985999979" />
    <path d="M 600.32120326158781,434.99059995910659 A 248,248 0 0,1 592.12212406279912,457.90549122654227" />
    <path d="M 581.71647355839207,479.9063907328474 A 248,248 0 0,1 569.20446385103128,500.78141778886129" />
    <path d="M 554.7065924339588,520.3295344725841 A 248,248 0 0,1 538.36248173426384,538.36248173426384" />
    <path d="M 500.78141778886129,569.20446385103128 A 248,248 0 0,1 434.99059995910665,600.32120326158781" />
    <path d="M 411.38239985999991,606.23474954000108 A 248,248 0 0,1 363.00000000000006,611" />
    <path d="M 291.00940004089341,600.32120326158781 A 248,248 0 0,1 268.09450877345773,592.12212406279912" />
    <path d="M 246.0936092671526,581.71647355839207 A 248,248 0 0,1 171.29340756604131,520.32953447258421" />
    <path d="M 125.67879673841222,434.9905999591067 A 248,248 0 0,1 116.19418778529516,387.308250801731" />
    <path d="M 116.19418778529516,338.69174919826912 A 248,248 0 0,1 119.76525045999884,314.61760014000021" />
    <path d="M 133.87787593720091,268.09450877345768 A 248,248 0 0,1 156.79553614896872,225.21858221113874" />
    <path d="M 187.63751826573619,187.63751826573625 A 248,248 0 0,1 205.67046552741581,171.29340756604131" />
    <path d="M 225.21858221113865,156.79553614896878 A 248,248 0 0,1 268.09450877345756,133.87787593720094" />
    <path d="M 350.04613397756162,99.317999561834483 A 264,264 0 0,1 375.95386602243838,99.317999561834483" />
    <path d="M 401.73684525621547,101.8574013692978 A 264,264 0 0,1 427.14676749446164,106.91174915664038" />
    <path d="M 439.6351547951781,110.36775136669687 A 264,264 0 0,1 487.44873852206337,130.17278621203428" />
    <path d="M 498.72312446701051,136.55964695992816 A 264,264 0 0,1 530.47982701920239,158.92524031223744" />
    <path d="M 558.61109709370919,185.70843592038716 A 264,264 0 0,1 575.04678831089018,205.73538361399758" />
    <path d="M 582.50797764787194,216.329458482825 A 264,264 0 0,1 621.9273140264529,311.4961549877421" />
    <path d="M 625.72876784146,337.12347495299593 A 264,264 0 0,1 625.72876784146,388.876525047004" />
    <path d="M 624.1425986307022,401.73684525621547 A 264,264 0 0,1 611.56763320831749,451.93892129554604" />
    <path d="M 606.90419658297969,464.02842614438367 A 264,264 0 0,1 589.44035304007184,498.72312446701051" />
    <path d="M 582.50797764787194,509.67054151717491 A 264,264 0 0,1 575.04678831089029,520.26461638600244" />
    <path d="M 558.61109709370919,540.29156407961284 A 264,264 0 0,1 487.44873852206342,595.82721378796566" />
    <path d="M 451.93892129554615,611.56763320831749 A 264,264 0 0,1 414.50384501225795,621.9273140264529" />
    <path d="M 375.95386602243832,626.68200043816546 A 264,264 0 0,1 350.04613397756174,626.68200043816546" />
    <path d="M 337.123474952996,625.72876784146 A 264,264 0 0,1 286.364845204822,615.63224863330311" />
    <path d="M 274.06107870445391,611.56763320831749 A 264,264 0 0,1 250.12545533440562,601.65317338458908" />
    <path d="M 238.55126147793663,595.82721378796577 A 264,264 0 0,1 227.27687553298952,589.44035304007184" />
    <path d="M 185.70843592038713,558.61109709370919 A 264,264 0 0,1 158.92524031223752,530.4798270192025" />
    <path d="M 150.95321168910971,520.26461638600233 A 264,264 0 0,1 130.17278621203431,487.44873852206342" />
    <path d="M 124.346826615411,475.87454466559461 A 264,264 0 0,1 119.09580341702036,464.02842614438384" />
    <path d="M 114.43236679168251,451.93892129554604 A 264,264 0 0,1 106.91174915664038,427.14676749446176" />
    <path d="M 104.07268597354721,414.50384501225795 A 264,264 0 0,1 99.317999561834483,350.04613397756174" />
    <path d="M 106.91174915664038,298.85323250553836 A 264,264 0 0,1 158.92524031223746,195.52017298079755" />
    <path d="M 167.38890290629078,185.70843592038716 A 264,264 0 0,1 185.70843592038708,167.38890290629087" />
    <path d="M 195.52017298079747,158.92524031223755 A 264,264 0 0,1 205.73538361399764,150.95321168910971" />
    <path d="M 216.329458482825,143.49202235212806 A 264,264 0 0,1 227.27687553298944,136.55964695992819" />
    <path d="M 238.55126147793655,130.17278621203431 A 264,264 0 0,1 250.12545533440539,124.346826615411" />
    <path d="M 274.06107870445391,114.43236679168251 A 264,264 0 0,1 337.12347495299605,100.27123215854005" />
    <path d="M 376.73894881167706,83.337272262551721 A 280,280 0 0,1 431.03445037291385,91.391249105527663" />
    <path d="M 444.27970963124949,95.056705994981542 A 280,280 0 0,1 457.32915894982159,99.367661748754188" />
    <path d="M 494.99108631127933,116.0620459824606 A 280,280 0 0,1 518.55966524548865,130.18850855528734" />
    <path d="M 551.03650735716519,155.53368490061143 A 280,280 0 0,1 570.46631509938857,174.96349264283487" />
    <path d="M 595.8114914447126,207.44033475451136 A 280,280 0 0,1 609.93795401753937,231.00891368872061" />
    <path d="M 621.68626910316027,255.84863893777487 A 280,280 0 0,1 630.94329400501852,281.72029036875057" />
    <path d="M 639.96942279013865,321.91546715249871 A 280,280 0 0,1 641.6517234682151,335.555200707723" />
    <path d="M 642.66272773744822,349.26105118832294 A 280,280 0 0,1 643,363" />
    <path d="M 641.6517234682151,390.44479929227697 A 280,280 0 0,1 639.96942279013865,404.08453284750124" />
    <path d="M 637.61987851290451,417.62529016451589 A 280,280 0 0,1 634.60875089447234,431.03445037291385" />
    <path d="M 630.94329400501852,444.27970963124943 A 280,280 0 0,1 616.1170020745642,482.71542616047896" />
    <path d="M 609.93795401753937,494.99108631127933 A 280,280 0 0,1 603.1640108000762,506.94876837410209" />
    <path d="M 587.89810881458061,529.79580525788128 A 280,280 0 0,1 570.46631509938857,551.03650735716519" />
    <path d="M 529.7958052578814,587.89810881458061 A 280,280 0 0,1 506.94876837410209,603.1640108000762" />
    <path d="M 470.15136106222519,621.68626910316027 A 280,280 0 0,1 457.3291589498217,626.63233825124576" />
    <path d="M 444.27970963124949,630.94329400501852 A 280,280 0 0,1 390.444799292277,641.6517234682151" />
    <path d="M 349.26105118832305,642.66272773744822 A 280,280 0 0,1 335.55520070772303,641.6517234682151" />
    <path d="M 321.91546715249876,639.96942279013865 A 280,280 0 0,1 308.37470983548405,637.61987851290451" />
    <path d="M 231.00891368872067,609.93795401753937 A 280,280 0 0,1 219.05123162589797,603.1640108000762" />
    <path d="M 146.55707305843373,540.63011956582091 A 280,280 0 0,1 116.06204598246063,494.99108631127945" />
    <path d="M 99.367661748754188,457.32915894982159 A 280,280 0 0,1 95.056705994981542,444.27970963124949" />
    <path d="M 86.030577209861349,404.08453284750146 A 280,280 0 0,1 84.348276531784848,335.5552007077232" />
    <path d="M 88.3801214870955,308.37470983548405 A 280,280 0 0,1 91.391249105527663,294.96554962708615" />
    <path d="M 99.367661748754131,268.67084105017852 A 280,280 0 0,1 130.18850855528726,207.44033475451147" />
    <path d="M 155.53368490061143,174.96349264283487 A 280,280 0 0,1 185.36988043417915,146.55707305843376" />
    <path d="M 196.20419474211869,138.10189118541939 A 280,280 0 0,1 243.28457383952087,109.88299792543592" />
    <path d="M 294.96554962708603,91.39124910552772 A 280,280 0 0,1 308.37470983548394,88.3801214870955" />
    <path d="M 335.55520070772303,84.348276531784848 A 280,280 0 0,1 349.26105118832294,83.337272262551721" />
    <path d="M 363,67 A 296,296 0 0,1 377.52403160091575,67.356544963268959" />
    <path d="M 392.01307353754993,68.425320905029707 A 296,296 0 0,1 406.43222043878706,70.203753050424837" />
    <path d="M 462.71939660409714,84.302956705825864 A 296,296 0 0,1 502.5334341004953,101.95130575288692" />
    <path d="M 515.17441228119355,109.11233143991944 A 296,296 0 0,1 539.32699412976024,125.2505706817291" />
    <path d="M 550.78041211243908,134.18890580462985 A 296,296 0 0,1 572.303607231218,153.69639276878192" />
    <path d="M 582.32153310506783,164.21854936528257 A 296,296 0 0,1 616.88766856008056,210.82558771880636" />
    <path d="M 624.04869424711308,223.46656589950464 A 296,296 0 0,1 636.46834162334085,249.7257040199334" />
    <path d="M 653.31244299935622,305.253264683226 A 296,296 0 0,1 655.79624694957511,319.56777956121294" />
    <path d="M 657.57467909497029,333.98692646245 A 296,296 0 0,1 653.31244299935622,420.74673531677394" />
    <path d="M 650.129250945585,434.92213325136612 A 296,296 0 0,1 646.25433937673392,448.92426446732082" />
    <path d="M 630.58083076453931,489.55630765536341 A 296,296 0 0,1 624.04869424711308,502.5334341004953" />
    <path d="M 616.88766856008056,515.17441228119355 A 296,296 0 0,1 600.74942931827093,539.32699412976024" />
    <path d="M 572.303607231218,572.303607231218 A 296,296 0 0,1 561.78145063471754,582.32153310506783" />
    <path d="M 550.78041211243908,591.81109419537017 A 296,296 0 0,1 539.32699412976035,600.74942931827081" />
    <path d="M 527.44878897380227,609.11500524155338 A 296,296 0 0,1 502.53343410049536,624.04869424711308" />
    <path d="M 489.55630765536347,630.58083076453931 A 296,296 0 0,1 476.2742959800666,636.46834162334085" />
    <path d="M 462.7193966040972,641.69704329417414 A 296,296 0 0,1 448.92426446732088,646.25433937673381" />
    <path d="M 434.92213325136618,650.129250945585 A 296,296 0 0,1 406.43222043878711,655.79624694957511" />
    <path d="M 377.52403160091569,658.643455036731 A 296,296 0 0,1 348.47596839908437,658.643455036731" />
    <path d="M 305.253264683226,653.31244299935622 A 296,296 0 0,1 291.07786674863394,650.129250945585" />
    <path d="M 263.28060339590286,641.69704329417414 A 296,296 0 0,1 236.44369234463659,630.58083076453931" />
    <path d="M 223.4665658995047,624.04869424711308 A 296,296 0 0,1 198.55121102619782,609.11500524155349" />
    <path d="M 175.219587887561,591.81109419537017 A 296,296 0 0,1 125.25057068172907,539.32699412976024" />
    <path d="M 116.8849947584466,527.44878897380227 A 296,296 0 0,1 95.419169235460856,489.55630765536364" />
    <path d="M 89.531658376659209,476.27429598006677 A 296,296 0 0,1 84.302956705825864,462.71939660409708" />
    <path d="M 79.74566062326619,448.92426446732088 A 296,296 0 0,1 72.687557000643835,420.74673531677411" />
    <path d="M 70.203753050424837,406.43222043878723 A 296,296 0 0,1 68.425320905029707,392.01307353754987" />
    <path d="M 67.356544963268959,377.52403160091575 A 296,296 0 0,1 67,363.00000000000006" />
    <path d="M 67.356544963268959,348.47596839908437 A 296,296 0 0,1 70.203753050424837,319.56777956121289" />
    <path d="M 72.687557000643778,305.253264683226 A 296,296 0 0,1 75.870749054414944,291.07786674863394" />
    <path d="M 84.3029567058258,263.280603395903 A 296,296 0 0,1 89.531658376659152,249.72570401993335" />
    <path d="M 95.4191692354608,236.44369234463647 A 296,296 0 0,1 125.25057068172899,186.67300587023988" />
    <path d="M 134.18890580462988,175.21958788756089 A 296,296 0 0,1 153.69639276878189,153.69639276878198" />
    <path d="M 164.21854936528246,143.67846689493217 A 296,296 0 0,1 186.67300587023976,125.25057068172907" />
    <path d="M 198.55121102619773,116.88499475844662 A 296,296 0 0,1 249.72570401993323,89.531658376659209" />
    <path d="M 277.07573553267912,79.74566062326619 A 296,296 0 0,1 291.07786674863382,75.870749054415" />
    <path d="M 305.25326468322589,72.687557000643835 A 296,296 0 0,1 333.98692646245007,68.425320905029707" />
    <path d="M 243.6027691020918,74.749585856478632 A 312,312 0 0,1 363,51" />
    <path d="M 378.30911439015443,51.3758176639862 A 312,312 0 0,1 393.58134778282289,52.502365278274567" />
    <path d="M 423.86818046903204,56.99499251419212 A 312,312 0 0,1 468.10963425837264,69.23825166289754" />
    <path d="M 482.397230897908,74.749585856478518 A 312,312 0 0,1 496.397189150248,80.955340545485683" />
    <path d="M 536.33791270211589,103.58148096160591 A 312,312 0 0,1 560.93070465905737,121.82073855082606" />
    <path d="M 572.52639391226967,131.82324888925274 A 312,312 0 0,1 583.61731573020279,142.38268426979715" />
    <path d="M 594.1767511107472,153.47360608773028 A 312,312 0 0,1 604.179261449174,165.0692953409426" />
    <path d="M 622.41851903839415,189.66208729788409 A 312,312 0 0,1 630.61132632008491,202.59994381171484" />
    <path d="M 651.25041414352154,243.602769102092 A 312,312 0 0,1 661.56538474844911,272.43118069660773" />
    <path d="M 669.00500748580794,302.13181953096796 A 312,312 0 0,1 673.49763472172549,332.41865221717705" />
    <path d="M 675,363 A 312,312 0 0,1 671.62307110901168,408.77990803007282" />
    <path d="M 669.00500748580794,423.868180469032 A 312,312 0 0,1 665.64975099669778,438.80981612981833" />
    <path d="M 656.76174833710252,468.10963425837264 A 312,312 0 0,1 630.61132632008491,523.40005618828513" />
    <path d="M 622.41851903839415,536.33791270211577 A 312,312 0 0,1 604.179261449174,560.93070465905737" />
    <path d="M 583.61731573020279,583.61731573020279 A 312,312 0 0,1 572.52639391226978,594.1767511107472" />
    <path d="M 560.93070465905737,604.179261449174 A 312,312 0 0,1 548.85818300163919,613.60074982196124" />
    <path d="M 536.33791270211589,622.41851903839415 A 312,312 0 0,1 482.39723089790806,651.25041414352154" />
    <path d="M 453.56881930339227,661.56538474844911 A 312,312 0 0,1 423.86818046903215,669.00500748580794" />
    <path d="M 393.581347782823,673.49763472172549 A 312,312 0 0,1 363.00000000000006,675" />
    <path d="M 347.69088560984568,674.62418233601375 A 312,312 0 0,1 317.22009196992718,671.62307110901168" />
    <path d="M 302.13181953096796,669.00500748580794 A 312,312 0 0,1 177.14181699836081,613.60074982196124" />
    <path d="M 165.06929534094266,604.179261449174 A 312,312 0 0,1 153.47360608773025,594.1767511107472" />
    <path d="M 142.38268426979721,583.6173157302029 A 312,312 0 0,1 103.58148096160585,536.33791270211589" />
    <path d="M 87.840565523313273,510.07578188971138 A 312,312 0 0,1 74.749585856478632,482.39723089790817" />
    <path d="M 69.238251662897483,468.10963425837264 A 312,312 0 0,1 64.434615251550838,453.56881930339227" />
    <path d="M 60.350249003302281,438.80981612981839 A 312,312 0 0,1 54.376928890988381,408.77990803007305" />
    <path d="M 51,363.00000000000006 A 312,312 0 0,1 69.238251662897483,257.89036574162748" />
    <path d="M 80.955340545485683,229.60281084975196 A 312,312 0 0,1 112.39925017803867,177.14181699836095" />
    <path d="M 131.82324888925277,153.47360608773028 A 312,312 0 0,1 202.59994381171478,95.388673679915144" />
    <path d="M 346.90580282060688,35.395090364703435 A 328,328 0 0,1 442.69749900827054,44.829748952189561" />
    <path d="M 488.52016581574946,59.967513336297941 A 328,328 0 0,1 531.62570009537671,81.665015919910729" />
    <path d="M 571.08099720567566,109.45257129702227 A 328,328 0 0,1 616.54742870297775,154.91900279432426" />
    <path d="M 626.45207032565145,167.61062812648183 A 328,328 0 0,1 635.72203283523481,180.77296356957046" />
    <path d="M 644.33498408008927,194.37429990462329 A 328,328 0 0,1 671.8264533800309,252.50012808735181" />
    <path d="M 691,363 A 328,328 0 0,1 689.42059034848057,395.14962202809591" />
    <path d="M 687.44989526844824,411.12759562135864 A 328,328 0 0,1 684.69757197225954,426.98962562129003" />
    <path d="M 676.87643012016451,458.21337413946361 A 328,328 0 0,1 671.8264533800309,473.49987191264813" />
    <path d="M 635.72203283523481,545.22703643042951 A 328,328 0 0,1 626.45207032565156,558.38937187351814" />
    <path d="M 616.54742870297775,571.08099720567566 A 328,328 0 0,1 594.93102422918764,594.93102422918753" />
    <path d="M 583.27133718982213,606.03196911642658 A 328,328 0 0,1 571.08099720567566,616.54742870297775" />
    <path d="M 558.38937187351814,626.45207032565145 A 328,328 0 0,1 545.22703643042951,635.72203283523481" />
    <path d="M 531.62570009537671,644.33498408008927 A 328,328 0 0,1 517.61812967892729,652.27017470626038" />
    <path d="M 488.52016581574946,666.032486663702 A 328,328 0 0,1 473.49987191264825,671.82645338003078" />
    <path d="M 426.9896256212902,684.69757197225954 A 328,328 0 0,1 395.14962202809596,689.42059034848057" />
    <path d="M 379.09419717939312,690.60490963529651 A 328,328 0 0,1 330.85037797190415,689.42059034848057" />
    <path d="M 314.87240437864142,687.44989526844824 A 328,328 0 0,1 299.01037437870991,684.69757197225954" />
    <path d="M 252.50012808735181,671.82645338003078 A 328,328 0 0,1 194.37429990462334,644.33498408008927" />
    <path d="M 167.61062812648189,626.45207032565156 A 328,328 0 0,1 154.91900279432434,616.54742870297775" />
    <path d="M 142.72866281017795,606.03196911642658 A 328,328 0 0,1 131.06897577081244,594.93102422918764" />
    <path d="M 109.45257129702239,571.08099720567589 A 328,328 0 0,1 81.665015919910786,531.62570009537671" />
    <path d="M 73.729825293739566,517.61812967892729 A 328,328 0 0,1 66.491511855510623,503.23807064513267" />
    <path d="M 59.967513336298,488.52016581574964 A 328,328 0 0,1 54.173546619969159,473.49987191264813" />
    <path d="M 49.123569879835486,458.21337413946367 A 328,328 0 0,1 36.579409651519427,395.14962202809585" />
    <path d="M 35.395090364703435,379.09419717939312 A 328,328 0 0,1 36.579409651519427,330.85037797190432" />
    <path d="M 44.829748952189561,283.30250099172952 A 328,328 0 0,1 59.967513336298,237.47983418425048" />
    <path d="M 73.729825293739509,208.3818703210728 A 328,328 0 0,1 90.277967164765073,180.77296356957058" />
    <path d="M 131.06897577081236,131.06897577081247 A 328,328 0 0,1 154.91900279432414,109.45257129702239" />
    <path d="M 180.77296356957046,90.277967164765187 A 328,328 0 0,1 208.38187032107268,73.729825293739623" />
    <path d="M 237.47983418425037,59.967513336298055 A 328,328 0 0,1 299.0103743787098,41.302428027740461" />
    <path d="M 314.87240437864114,38.550104731551869 A 328,328 0 0,1 330.85037797190415,36.579409651519427" />
    <path d="M 363,19 A 344,344 0 0,1 379.87927996863181,19.414363065420673" />
    <path d="M 396.71789627336886,20.656454024764287 A 344,344 0 0,1 462.85792897553506,33.812524508120134" />
    <path d="M 494.64310073359087,45.185440816117364 A 344,344 0 0,1 525.1604774681432,59.619085064165859" />
    <path d="M 567.9205607453971,86.696609170658178 A 344,344 0 0,1 594.01628046737437,108.11281287789404" />
    <path d="M 617.887187122106,131.98371953262569 A 344,344 0 0,1 666.38091493583408,200.83952253185677" />
    <path d="M 680.81455918388269,231.3568992664091 A 344,344 0 0,1 700.39013645871125,295.88892922645186" />
    <path d="M 703.2767194278847,312.52471678735554 A 344,344 0 0,1 705.34354597523566,329.28210372663108" />
    <path d="M 706.58563693457927,346.12072003136814 A 344,344 0 0,1 707,363" />
    <path d="M 705.34354597523566,396.71789627336886 A 344,344 0 0,1 703.2767194278847,413.4752832126444" />
    <path d="M 696.6907510989231,446.58518188672281 A 344,344 0 0,1 692.18747549187992,462.857928975535" />
    <path d="M 686.89115842295917,478.89010956692368 A 344,344 0 0,1 680.81455918388269,494.64310073359087" />
    <path d="M 673.97231683446455,510.07895214001695 A 344,344 0 0,1 649.0255466320757,554.116160158743" />
    <path d="M 639.30339082934188,567.9205607453971 A 344,344 0 0,1 617.88718712210584,594.01628046737437" />
    <path d="M 606.24473272817238,606.24473272817227 A 344,344 0 0,1 581.23128975229406,628.91559595678154" />
    <path d="M 539.8513440024683,658.05864184009351 A 344,344 0 0,1 525.1604774681432,666.38091493583408" />
    <path d="M 494.64310073359093,680.81455918388269 A 344,344 0 0,1 462.85792897553506,692.18747549187992" />
    <path d="M 446.58518188672281,696.6907510989231 A 344,344 0 0,1 430.11107077354825,700.39013645871125" />
    <path d="M 396.71789627336892,705.34354597523566 A 344,344 0 0,1 346.12072003136831,706.58563693457927" />
    <path d="M 329.28210372663114,705.34354597523566 A 344,344 0 0,1 263.14207102446505,692.18747549187992" />
    <path d="M 247.10989043307629,686.89115842295917 A 344,344 0 0,1 215.92104785998305,673.97231683446455" />
    <path d="M 200.83952253185683,666.3809149358342 A 344,344 0 0,1 144.76871024770603,628.91559595678154" />
    <path d="M 119.75526727182768,606.24473272817238 A 344,344 0 0,1 97.084404043218569,581.23128975229417" />
    <path d="M 76.974453367924411,554.11616015874313 A 344,344 0 0,1 33.812524508120134,462.85792897553506" />
    <path d="M 29.3092489010769,446.58518188672286 A 344,344 0 0,1 25.609863541288746,430.11107077354825" />
    <path d="M 20.656454024764287,396.71789627336881 A 344,344 0 0,1 22.723280572115357,312.52471678735549" />
    <path d="M 25.609863541288746,295.88892922645186 A 344,344 0 0,1 29.309248901076842,279.41481811327725" />
    <path d="M 45.185440816117364,231.35689926640904 A 344,344 0 0,1 67.941358159906372,186.14865599753179" />
    <path d="M 97.084404043218512,144.76871024770591 A 344,344 0 0,1 119.75526727182759,119.75526727182771" />
    <path d="M 131.98371953262557,108.11281287789416 A 344,344 0 0,1 215.92104785998279,52.027683165535564" />
    <path d="M 231.3568992664089,45.185440816117421 A 344,344 0 0,1 247.10989043307632,39.108841577040835" />
    <path d="M 279.41481811327714,29.3092489010769 A 344,344 0 0,1 312.52471678735537,22.723280572115357" />
    <path d="M 329.28210372663119,20.656454024764287 A 344,344 0 0,1 346.12072003136819,19.414363065420673" />
    <path d="M 380.66436275787049,3.4336357661379111 A 360,360 0 1,1 363,3" />
  </g>
  <g fill="none" stroke="#000000" stroke-width="2" stroke-linecap="butt">
    <line x1="363" y1="67" x2="363" y2="83" />
    <line x1="363" y1="99" x2="363" y2="131" />
    <line x1="363" y1="163" x2="363" y2="211" />
    <line x1="363" y1="227" x2="363" y2="243" />
    <line x1="379.87927996863181" y1="19.414363065420673" x2="377.52403160091575" y2="67.356544963268959" />
    <line x1="376.73894881167706" y1="83.337272262551721" x2="375.95386602243838" y2="99.317999561834483" />
    <line x1="398.28617051864182" y1="4.73349839800909" x2="396.71789627336886" y2="20.65645402476423" />
    <line x1="388.876525047004" y1="100.27123215853999" x2="387.30825080173105" y2="116.19418778529516" />
    <line x1="382.60342806591211" y1="163.96305466556061" x2="379.46687957536619" y2="195.80896591907091" />
    <line x1="377.89860533009323" y1="211.73192154582605" x2="376.33033108482022" y2="227.65487717258122" />
    <line x1="411.12759562135864" y1="38.550104731551812" x2="406.43222043878706" y2="70.203753050424837" />
    <line x1="420.746735316774" y1="72.687557000643778" x2="417.62529016451589" y2="88.3801214870955" />
    <line x1="414.50384501225784" y1="104.07268597354715" x2="408.26095470774175" y2="135.45781494645053" />
    <line x1="386.41083864193541" y1="245.30576635161236" x2="383.28939348967731" y2="260.998330838064" />
    <line x1="442.69749900827054" y1="44.829748952189561" x2="438.80981612981833" y2="60.350249003302281" />
    <line x1="434.92213325136612" y1="75.870749054415" x2="431.03445037291385" y2="91.391249105527663" />
    <line x1="462.85792897553506" y1="33.812524508120191" x2="458.21337413946367" y2="49.123569879835486" />
    <line x1="453.56881930339227" y1="64.434615251550838" x2="444.27970963124943" y2="95.056705994981542" />
    <line x1="434.99059995910665" y1="125.67879673841222" x2="425.70149028696386" y2="156.30088748184289" />
    <line x1="421.05693545089247" y1="171.61193285355824" x2="402.4787161066069" y2="232.8561143404196" />
    <line x1="484.28034722119924" y1="24.044136534112511" x2="468.10963425837264" y2="69.238251662897483" />
    <line x1="494.64310073359093" y1="45.185440816117364" x2="482.397230897908" y2="74.749585856478518" />
    <line x1="470.15136106222513" y1="104.31373089683973" x2="464.02842614438373" y2="119.09580341702031" />
    <line x1="457.90549122654227" y1="133.87787593720088" x2="451.7825563087008" y2="148.65994845738149" />
    <line x1="445.6596213908594" y1="163.44202097756207" x2="439.53668647301794" y2="178.22409349774264" />
    <line x1="421.16788171949366" y1="222.5703110582844" x2="390.55320713028647" y2="296.48067365918735" />
    <line x1="489.55630765536353" y1="95.4191692354608" x2="482.71542616047896" y2="109.88299792543586" />
    <line x1="532.70282525735911" y1="45.508344834592208" x2="525.1604774681432" y2="59.619085064165859" />
    <line x1="517.61812967892729" y1="73.729825293739566" x2="487.44873852206337" y2="130.17278621203425" />
    <line x1="479.9063907328474" y1="144.28352644160796" x2="472.36404294363143" y2="158.39426667118164" />
    <line x1="464.82169515441547" y1="172.50500690075532" x2="442.19465178676762" y2="214.83722758947636" />
    <line x1="539.8513440024683" y1="67.941358159906372" x2="515.17441228119355" y2="109.11233143991944" />
    <line x1="563.00528388705675" y1="63.670939571083693" x2="536.33791270211589" y2="103.58148096160591" />
    <line x1="518.55966524548865" y1="130.18850855528734" x2="500.78141778886135" y2="156.79553614896878" />
    <line x1="491.89229406054767" y1="170.0990499458095" x2="456.33579914729319" y2="223.3131051331724" />
    <line x1="438.55755169066589" y1="249.92013272685387" x2="429.66842796235227" y2="263.22364652369458" />
    <line x1="411.89018050572497" y1="289.830674117376" x2="403.00105677741135" y2="303.13418791421674" />
    <line x1="567.9205607453971" y1="86.696609170658121" x2="558.38937187351814" y2="99.547929674348438" />
    <line x1="539.32699412976024" y1="125.2505706817291" x2="529.79580525788128" y2="138.10189118541942" />
    <line x1="571.08099720567566" y1="109.45257129702227" x2="560.93070465905737" y2="121.82073855082606" />
    <line x1="550.78041211243908" y1="134.18890580462985" x2="530.47982701920239" y2="158.92524031223744" />
    <line x1="520.3295344725841" y1="171.29340756604123" x2="510.17924192596575" y2="183.66157481984502" />
    <line x1="500.02894937934741" y1="196.02974207364881" x2="479.72836428611078" y2="220.76607658125639" />
    <line x1="469.57807173949243" y1="233.13424383506018" x2="449.2774866462558" y2="257.87057834266778" />
    <line x1="594.01628046737437" y1="108.11281287789407" x2="583.271337189822" y2="119.96803088357342" />
    <line x1="572.52639391226967" y1="131.82324888925277" x2="561.78145063471743" y2="143.67846689493211" />
    <line x1="551.03650735716519" y1="155.53368490061146" x2="540.29156407961284" y2="167.38890290629081" />
    <line x1="606.24473272817227" y1="119.75526727182765" x2="594.93102422918753" y2="131.06897577081239" />
    <line x1="560.98989873223331" y1="165.01010126776669" x2="504.42135623730951" y2="221.57864376269049" />
    <line x1="493.10764773832477" y1="232.89235226167526" x2="459.16652224137044" y2="266.83347775862956" />
    <line x1="413.91168824543144" y1="312.08831175456856" x2="391.2842712474619" y2="334.7157287525381" />
    <line x1="606.03196911642658" y1="142.72866281017798" x2="570.46631509938857" y2="174.96349264283487" />
    <line x1="579.44292694156638" y1="185.36988043417927" x2="542.338425180155" y2="215.82075807403425" />
    <line x1="517.60209067254743" y1="236.12134316727091" x2="492.86575616493985" y2="256.42192826050757" />
    <line x1="626.45207032565145" y1="167.61062812648183" x2="587.89810881458061" y2="196.20419474211863" />
    <line x1="649.02554663207559" y1="171.88383984125682" x2="635.72203283523481" y2="180.77296356957044" />
    <line x1="595.8114914447126" y1="207.44033475451136" x2="569.20446385103128" y2="225.21858221113862" />
    <line x1="476.07986727314614" y1="287.44244830933405" x2="462.77635347630542" y2="296.33157203764773" />
    <line x1="644.33498408008927" y1="194.37429990462329" x2="630.61132632008491" y2="202.59994381171484" />
    <line x1="616.88766856008056" y1="210.82558771880639" x2="603.1640108000762" y2="219.05123162589794" />
    <line x1="652.27017470626038" y1="208.38187032107271" x2="624.04869424711308" y2="223.46656589950464" />
    <line x1="581.716473558392" y1="246.09360926715254" x2="567.60573332881836" y2="253.63595705636851" />
    <line x1="553.49499309924465" y1="261.17830484558448" x2="525.27351264009735" y2="276.26300042401641" />
    <line x1="511.16277241052364" y1="283.80534821323238" x2="497.05203218094994" y2="291.34769600244834" />
    <line x1="688.43614552443955" y1="209.08016636509842" x2="645.04465945451432" y2="229.60281084975196" />
    <line x1="616.1170020745642" y1="243.284573839521" x2="601.65317338458908" y2="250.1254553344055" />
    <line x1="651.25041414352154" y1="243.60276910209197" x2="636.46834162334085" y2="249.7257040199334" />
    <line x1="606.90419658297969" y1="261.97157385561627" x2="592.12212406279912" y2="268.09450877345773" />
    <line x1="562.557979022438" y1="280.3403786091406" x2="547.77590650225738" y2="286.463313526982" />
    <line x1="473.86554390135439" y1="317.0779881161892" x2="459.08347138117381" y2="323.20092303403067" />
    <line x1="641.69704329417414" y1="263.28060339590286" x2="626.63233825124576" y2="268.67084105017841" />
    <line x1="692.18747549187992" y1="263.14207102446494" x2="630.94329400501852" y2="281.72029036875057" />
    <line x1="600.32120326158781" y1="291.00940004089335" x2="569.69911251815711" y2="300.29850971303614" />
    <line x1="681.17025104781044" y1="283.3025009917294" x2="619.08825084335967" y2="298.8532325055383" />
    <line x1="700.39013645871125" y1="295.88892922645186" x2="669.00500748580794" y2="302.13181953096796" />
    <line x1="653.31244299935622" y1="305.253264683226" x2="621.9273140264529" y2="311.4961549877421" />
    <line x1="574.84962056709776" y1="320.8604904445163" x2="559.157056080646" y2="323.98193559677435" />
    <line x1="527.77192710774273" y1="330.22482590129044" x2="465.001669161936" y2="342.71060651032263" />
    <line x1="449.30910467548426" y1="345.83205166258068" x2="433.61654018903261" y2="348.95349681483879" />
    <line x1="703.2767194278847" y1="312.52471678735554" x2="687.44989526844824" y2="314.87240437864136" />
    <line x1="639.96942279013865" y1="321.91546715249871" x2="624.1425986307022" y2="324.26315474378453" />
    <line x1="721.26650160199085" y1="327.71382948135812" x2="705.34354597523566" y2="329.28210372663108" />
    <line x1="689.42059034848057" y1="330.85037797190409" x2="673.49763472172549" y2="332.41865221717705" />
    <line x1="657.57467909497018" y1="333.98692646245" x2="641.6517234682151" y2="335.555200707723" />
    <line x1="625.72876784146" y1="337.12347495299593" x2="609.80581221470482" y2="338.69174919826895" />
    <line x1="577.95990096119453" y1="341.82829768881487" x2="546.11398970768425" y2="344.96484617936085" />
    <line x1="514.268078454174" y1="348.10139466990677" x2="498.34512282741878" y2="349.66966891517973" />
    <line x1="706.58563693457927" y1="346.12072003136814" x2="658.643455036731" y2="348.47596839908425" />
    <line x1="642.66272773744822" y1="349.26105118832294" x2="626.68200043816546" y2="350.04613397756162" />
    <line x1="691" y1="363" x2="675" y2="363" />
    <line x1="611" y1="363" x2="579" y2="363" />
    <line x1="547" y1="363" x2="531" y2="363" />
    <line x1="499" y1="363" x2="483" y2="363" />
    <line x1="467" y1="363" x2="451" y2="363" />
    <line x1="435" y1="363" x2="387" y2="363" />
    <line x1="706.58563693457927" y1="379.87927996863181" x2="690.60490963529651" y2="379.09419717939312" />
    <line x1="658.643455036731" y1="377.52403160091575" x2="626.68200043816546" y2="375.95386602243838" />
    <line x1="705.34354597523577" y1="396.71789627336886" x2="689.42059034848057" y2="395.14962202809591" />
    <line x1="609.80581221470482" y1="387.30825080173105" x2="593.88285658794962" y2="385.73997655645809" />
    <line x1="562.03694533443945" y1="382.60342806591211" x2="530.19103408092906" y2="379.46687957536619" />
    <line x1="719.10354358732116" y1="415.82297080393016" x2="703.2767194278847" y2="413.4752832126444" />
    <line x1="687.44989526844824" y1="411.12759562135864" x2="671.62307110901168" y2="408.77990803007282" />
    <line x1="639.96942279013865" y1="404.08453284750124" x2="624.1425986307022" y2="401.73684525621547" />
    <line x1="700.39013645871125" y1="430.11107077354808" x2="637.61987851290451" y2="417.62529016451589" />
    <line x1="621.9273140264529" y1="414.50384501225784" x2="606.23474954000108" y2="411.38239985999979" />
    <line x1="574.84962056709776" y1="405.1395095554837" x2="527.77192710774273" y2="395.77517409870956" />
    <line x1="512.079362621291" y1="392.65372894645151" x2="496.38679813483935" y2="389.5322837941934" />
    <line x1="480.69423364838764" y1="386.41083864193536" x2="465.001669161936" y2="383.28939348967731" />
    <line x1="712.21125115003588" y1="450.472864765175" x2="681.17025104781044" y2="442.69749900827054" />
    <line x1="676.87643012016451" y1="458.21337413946361" x2="569.69911251815711" y2="425.7014902869638" />
    <line x1="523.76597640301111" y1="411.76782577874962" x2="508.45493103129576" y2="407.12327094267823" />
    <line x1="701.95586346588743" y1="484.28034722119918" x2="686.89115842295917" y2="478.89010956692368" />
    <line x1="656.76174833710252" y1="468.10963425837264" x2="641.69704329417414" y2="462.71939660409708" />
    <line x1="680.81455918388269" y1="494.64310073359087" x2="666.032486663702" y2="488.52016581574946" />
    <line x1="636.46834162334085" y1="476.27429598006654" x2="621.68626910316027" y2="470.15136106222513" />
    <line x1="547.77590650225738" y1="439.53668647301794" x2="532.99383398207669" y2="433.41375155517653" />
    <line x1="518.21176146189623" y1="427.29081663733507" x2="503.4296889417156" y2="421.16788171949361" />
    <line x1="488.64761642153496" y1="415.0449468016522" x2="473.86554390135439" y2="408.9220118838108" />
    <line x1="444.30139886099323" y1="396.67614204812787" x2="414.73725382063208" y2="384.430272212445" />
    <line x1="659.50848814448943" y1="503.23807064513244" x2="630.58083076453931" y2="489.55630765536341" />
    <line x1="616.1170020745642" y1="482.71542616047896" x2="601.65317338458908" y2="475.87454466559439" />
    <line x1="666.3809149358342" y1="525.1604774681432" x2="638.15943447668678" y2="510.07578188971127" />
    <line x1="624.04869424711308" y1="502.53343410049536" x2="609.93795401753937" y2="494.99108631127933" />
    <line x1="595.82721378796577" y1="487.44873852206342" x2="581.71647355839207" y2="479.9063907328474" />
    <line x1="567.60573332881836" y1="472.36404294363149" x2="553.49499309924465" y2="464.82169515441552" />
    <line x1="539.384252869671" y1="457.27934736519956" x2="525.27351264009735" y2="449.73699957598359" />
    <line x1="658.05864184009363" y1="539.8513440024683" x2="644.33498408008927" y2="531.62570009537671" />
    <line x1="630.61132632008491" y1="523.40005618828513" x2="616.88766856008056" y2="515.17441228119355" />
    <line x1="603.1640108000762" y1="506.94876837410209" x2="589.44035304007184" y2="498.72312446701051" />
    <line x1="662.32906042891636" y1="563.00528388705675" x2="635.72203283523493" y2="545.22703643042951" />
    <line x1="609.11500524155349" y1="527.44878897380215" x2="582.50797764787194" y2="509.67054151717491" />
    <line x1="569.20446385103128" y1="500.78141778886129" x2="529.29392246050907" y2="474.11404660392037" />
    <line x1="502.68689486682763" y1="456.33579914729313" x2="489.38338106998691" y2="447.44667541897951" />
    <line x1="476.07986727314619" y1="438.55755169066583" x2="449.47283967946476" y2="420.77930423403859" />
    <line x1="613.60074982196124" y1="548.85818300163919" x2="600.74942931827093" y2="539.32699412976024" />
    <line x1="587.89810881458061" y1="529.79580525788128" x2="575.04678831089029" y2="520.26461638600244" />
    <line x1="628.91559595678154" y1="581.23128975229406" x2="591.81109419537017" y2="550.78041211243908" />
    <line x1="579.44292694156638" y1="540.63011956582068" x2="554.7065924339588" y2="520.3295344725841" />
    <line x1="542.338425180155" y1="510.1792419259657" x2="529.97025792635122" y2="500.02894937934741" />
    <line x1="517.60209067254743" y1="489.87865683272906" x2="492.86575616493985" y2="469.57807173949243" />
    <line x1="594.1767511107472" y1="572.52639391226978" x2="570.46631509938857" y2="551.03650735716519" />
    <line x1="606.24473272817238" y1="606.24473272817227" x2="560.98989873223331" y2="560.98989873223331" />
    <line x1="527.048773235279" y1="527.048773235279" x2="515.73506473629425" y2="515.73506473629425" />
    <line x1="493.10764773832477" y1="493.10764773832477" x2="470.48023074035524" y2="470.48023074035518" />
    <line x1="459.16652224137044" y1="459.16652224137044" x2="447.85281374238571" y2="447.85281374238571" />
    <line x1="402.59797974644664" y1="402.59797974644664" x2="391.2842712474619" y2="391.2842712474619" />
    <line x1="551.03650735716519" y1="570.46631509938845" x2="540.291564079613" y2="558.61109709370908" />
    <line x1="581.23128975229406" y1="628.91559595678154" x2="571.08099720567566" y2="616.54742870297775" />
    <line x1="560.93070465905737" y1="604.179261449174" x2="540.63011956582068" y2="579.44292694156638" />
    <line x1="520.3295344725841" y1="554.7065924339588" x2="510.17924192596575" y2="542.338425180155" />
    <line x1="500.02894937934741" y1="529.97025792635122" x2="469.57807173949243" y2="492.86575616493985" />
    <line x1="577.451749617276" y1="652.15471133303208" x2="548.85818300163919" y2="613.60074982196124" />
    <line x1="554.11616015874313" y1="649.02554663207559" x2="545.22703643042951" y2="635.72203283523481" />
    <line x1="500.78141778886135" y1="569.20446385103128" x2="474.11404660392043" y2="529.29392246050907" />
    <line x1="465.22492287560681" y1="515.9904086636684" x2="456.33579914729319" y2="502.68689486682763" />
    <line x1="548.07698790955988" y1="671.782299600098" x2="539.8513440024683" y2="658.05864184009351" />
    <line x1="515.17441228119367" y1="616.88766856008056" x2="506.94876837410209" y2="603.1640108000762" />
    <line x1="525.1604774681432" y1="666.38091493583408" x2="517.61812967892729" y2="652.27017470626038" />
    <line x1="510.07578188971132" y1="638.15943447668678" x2="487.44873852206342" y2="595.82721378796577" />
    <line x1="472.36404294363149" y1="567.60573332881836" x2="464.82169515441552" y2="553.49499309924465" />
    <line x1="510.078952140017" y1="673.97231683446444" x2="496.397189150248" y2="645.04465945451432" />
    <line x1="489.55630765536347" y1="630.5808307645392" x2="475.87454466559444" y2="601.65317338458908" />
    <line x1="500.76603565143239" y1="695.59663170406316" x2="494.64310073359093" y2="680.81455918388269" />
    <line x1="482.39723089790806" y1="651.25041414352154" x2="451.78255630870086" y2="577.34005154261854" />
    <line x1="439.536686473018" y1="547.77590650225738" x2="415.0449468016522" y2="488.64761642153496" />
    <line x1="396.67614204812793" y1="444.30139886099323" x2="390.55320713028647" y2="429.51932634081265" />
    <line x1="473.49987191264825" y1="671.82645338003078" x2="462.7193966040972" y2="641.69704329417414" />
    <line x1="462.85792897553506" y1="692.18747549187981" x2="453.56881930339227" y2="661.56538474844911" />
    <line x1="448.92426446732088" y1="646.25433937673381" x2="439.6351547951781" y2="615.63224863330311" />
    <line x1="434.9905999591067" y1="600.32120326158781" x2="430.34604512303525" y2="585.01015788987252" />
    <line x1="425.70149028696386" y1="569.69911251815711" x2="421.05693545089247" y2="554.3880671464417" />
    <line x1="416.41238061482107" y1="539.0770217747264" x2="411.76782577874968" y2="523.76597640301111" />
    <line x1="446.58518188672281" y1="696.6907510989231" x2="438.80981612981839" y2="665.64975099669778" />
    <line x1="408.26095470774186" y1="590.54218505354947" x2="405.13950955548376" y2="574.84962056709776" />
    <line x1="402.01806440322571" y1="559.157056080646" x2="392.65372894645157" y2="512.079362621291" />
    <line x1="389.53228379419352" y1="496.38679813483935" x2="386.41083864193541" y2="480.69423364838764" />
    <line x1="413.47528321264446" y1="703.2767194278847" x2="406.43222043878711" y2="655.79624694957511" />
    <line x1="404.08453284750129" y1="639.96942279013865" x2="401.73684525621553" y2="624.1425986307022" />
    <line x1="398.28617051864188" y1="721.26650160199085" x2="395.14962202809596" y2="689.42059034848057" />
    <line x1="393.581347782823" y1="673.49763472172549" x2="388.87652504700407" y2="625.72876784146" />
    <line x1="384.17170231118513" y1="577.95990096119453" x2="382.60342806591217" y2="562.03694533443934" />
    <line x1="377.89860533009323" y1="514.268078454174" x2="376.33033108482027" y2="498.34512282741878" />
    <line x1="377.52403160091569" y1="658.643455036731" x2="375.95386602243832" y2="626.68200043816546" />
    <line x1="363.00000000000006" y1="691" x2="363.00000000000006" y2="675" />
    <line x1="363.00000000000006" y1="643" x2="363" y2="595" />
    <line x1="363" y1="563" x2="363" y2="547" />
    <line x1="363" y1="499" x2="363" y2="467" />
    <line x1="363" y1="451" x2="363" y2="387" />
    <line x1="347.69088560984568" y1="674.62418233601375" x2="349.26105118832305" y2="642.66272773744822" />
    <line x1="329.28210372663114" y1="705.34354597523577" x2="330.85037797190409" y2="689.42059034848057" />
    <line x1="333.98692646245007" y1="657.57467909497029" x2="338.69174919826895" y2="609.80581221470482" />
    <line x1="343.39657193408789" y1="562.03694533443945" x2="346.53312042463381" y2="530.19103408092906" />
    <line x1="314.87240437864142" y1="687.44989526844824" x2="321.91546715249876" y2="639.96942279013865" />
    <line x1="314.61760014000015" y1="606.23474954000108" x2="317.7390452922582" y2="590.54218505354947" />
    <line x1="327.1033807490324" y1="543.46449159419444" x2="339.58916135806459" y2="480.69423364838764" />
    <line x1="342.71060651032263" y1="465.001669161936" x2="345.83205166258068" y2="449.30910467548426" />
    <line x1="279.41481811327725" y1="696.6907510989231" x2="287.19018387018167" y2="665.64975099669778" />
    <line x1="291.07786674863394" y1="650.129250945585" x2="298.85323250553836" y2="619.08825084335967" />
    <line x1="267.78662586053645" y1="676.87643012016451" x2="281.72029036875063" y2="630.94329400501852" />
    <line x1="286.364845204822" y1="615.63224863330311" x2="304.94306454910759" y2="554.38806714644181" />
    <line x1="318.87672905732177" y1="508.45493103129576" x2="323.52128389339316" y2="493.14388565958041" />
    <line x1="241.71965277880076" y1="701.95586346588743" x2="247.10989043307629" y2="686.89115842295917" />
    <line x1="252.50012808735181" y1="671.8264533800309" x2="257.89036574162731" y2="656.76174833710252" />
    <line x1="263.28060339590286" y1="641.69704329417414" x2="274.06107870445391" y2="611.56763320831749" />
    <line x1="249.72570401993346" y1="636.46834162334085" x2="255.84863893777489" y2="621.68626910316038" />
    <line x1="261.97157385561633" y1="606.90419658297969" x2="268.09450877345773" y2="592.12212406279912" />
    <line x1="280.34037860914066" y1="562.557979022438" x2="292.58624844482347" y2="532.99383398207681" />
    <line x1="323.20092303403067" y1="459.08347138117381" x2="335.44679286971353" y2="429.51932634081265" />
    <line x1="229.60281084975208" y1="645.04465945451443" x2="236.44369234463659" y2="630.58083076453931" />
    <line x1="243.2845738395211" y1="616.1170020745642" x2="250.12545533440562" y2="601.65317338458908" />
    <line x1="193.29717474264086" y1="680.49165516540779" x2="200.8395225318568" y2="666.3809149358342" />
    <line x1="238.55126147793663" y1="595.82721378796577" x2="246.0936092671526" y2="581.71647355839207" />
    <line x1="253.63595705636857" y1="567.60573332881836" x2="261.17830484558453" y2="553.49499309924465" />
    <line x1="276.26300042401647" y1="525.27351264009735" x2="283.80534821323238" y2="511.16277241052364" />
    <line x1="219.05123162589797" y1="603.1640108000762" x2="227.27687553298952" y2="589.44035304007184" />
    <line x1="171.88383984125693" y1="649.0255466320757" x2="180.77296356957055" y2="635.72203283523493" />
    <line x1="198.55121102619782" y1="609.11500524155349" x2="234.10770593945236" y2="555.90095005419062" />
    <line x1="242.99682966776598" y1="542.59743625734984" x2="260.77507712439325" y2="515.9904086636684" />
    <line x1="278.55332458102049" y1="489.38338106998691" x2="287.44244830933417" y2="476.07986727314619" />
    <line x1="296.33157203764779" y1="462.77635347630547" x2="305.22069576596141" y2="449.47283967946476" />
    <line x1="167.61062812648189" y1="626.45207032565156" x2="205.73538361399761" y2="575.04678831089029" />
    <line x1="144.76871024770603" y1="628.91559595678154" x2="154.91900279432434" y2="616.54742870297775" />
    <line x1="175.219587887561" y1="591.81109419537017" x2="205.67046552741599" y2="554.7065924339588" />
    <line x1="215.8207580740343" y1="542.338425180155" x2="236.12134316727094" y2="517.60209067254743" />
    <line x1="256.42192826050757" y1="492.86575616493985" x2="266.57222080712592" y2="480.49758891113606" />
    <line x1="121.23877625507336" y1="629.74240512778533" x2="142.72866281017795" y2="606.03196911642658" />
    <line x1="153.47360608773025" y1="594.1767511107472" x2="185.70843592038713" y2="558.61109709370919" />
    <line x1="131.06897577081244" y1="594.93102422918764" x2="142.38268426979718" y2="583.6173157302029" />
    <line x1="165.01010126776671" y1="560.98989873223331" x2="176.32380976675148" y2="549.67619023324858" />
    <line x1="221.57864376269052" y1="504.42135623730951" x2="244.20606076066002" y2="481.79393923934003" />
    <line x1="255.51976925964479" y1="470.48023074035524" x2="266.83347775862956" y2="459.1665222413705" />
    <line x1="300.77460325558383" y1="425.22539674441617" x2="346.02943725152284" y2="379.97056274847716" />
    <line x1="119.96803088357348" y1="583.27133718982213" x2="131.82324888925282" y2="572.52639391226978" />
    <line x1="143.67846689493217" y1="561.78145063471754" x2="155.53368490061152" y2="551.03650735716519" />
    <line x1="97.084404043218569" y1="581.23128975229417" x2="109.45257129702239" y2="571.08099720567589" />
    <line x1="183.6615748198451" y1="510.17924192596587" x2="220.76607658125644" y2="479.72836428611083" />
    <line x1="233.13424383506023" y1="469.57807173949254" x2="245.50241108886402" y2="459.4277791928742" />
    <line x1="73.8452886669678" y1="577.45174961727594" x2="99.547929674348438" y2="558.389371873518" />
    <line x1="125.25057068172907" y1="539.32699412976024" x2="138.10189118541939" y2="529.79580525788128" />
    <line x1="130.18850855528734" y1="518.55966524548865" x2="170.0990499458095" y2="491.89229406054767" />
    <line x1="196.70607753949096" y1="474.11404660392043" x2="223.3131051331724" y2="456.33579914729319" />
    <line x1="263.22364652369458" y1="429.66842796235227" x2="289.830674117376" y2="411.89018050572497" />
    <line x1="81.665015919910786" y1="531.62570009537671" x2="109.11233143991947" y2="515.17441228119367" />
    <line x1="130.17278621203428" y1="487.44873852206342" x2="144.283526441608" y2="479.90639073284746" />
    <line x1="158.39426667118164" y1="472.36404294363149" x2="172.50500690075535" y2="464.82169515441552" />
    <line x1="186.615747130329" y1="457.27934736519956" x2="200.72648735990271" y2="449.73699957598359" />
    <line x1="228.94796781905006" y1="434.65230399755166" x2="243.05870804862371" y2="427.10995620833569" />
    <line x1="52.027683165535564" y1="510.07895214001718" x2="66.49151185551068" y2="503.23807064513267" />
    <line x1="95.419169235460856" y1="489.55630765536364" x2="124.346826615411" y2="475.87454466559456" />
    <line x1="74.749585856478632" y1="482.39723089790817" x2="89.531658376659209" y2="476.27429598006677" />
    <line x1="104.31373089683979" y1="470.15136106222531" x2="148.65994845738152" y2="451.782556308701" />
    <line x1="163.44202097756212" y1="445.65962139085951" x2="178.2240934977427" y2="439.53668647301805" />
    <line x1="207.78823853810386" y1="427.29081663733518" x2="222.57031105828446" y2="421.16788171949372" />
    <line x1="252.13445609864561" y1="408.92201188381085" x2="281.69860113900677" y2="396.67614204812793" />
    <line x1="54.173546619969159" y1="473.49987191264813" x2="69.238251662897483" y2="468.10963425837264" />
    <line x1="84.302956705825864" y1="462.71939660409708" x2="114.43236679168251" y2="451.93892129554604" />
    <line x1="33.812524508120191" y1="462.85792897553506" x2="49.123569879835486" y2="458.21337413946367" />
    <line x1="64.434615251550838" y1="453.56881930339227" x2="79.74566062326619" y2="448.92426446732088" />
    <line x1="110.36775136669687" y1="439.6351547951781" x2="125.67879673841222" y2="434.9905999591067" />
    <line x1="171.61193285355824" y1="421.05693545089247" x2="232.8561143404196" y2="402.4787161066069" />
    <line x1="13.788748849964179" y1="450.47286476517507" x2="29.3092489010769" y2="446.58518188672286" />
    <line x1="91.391249105527663" y1="431.03445037291397" x2="106.91174915664038" y2="427.14676749446176" />
    <line x1="56.99499251419212" y1="423.86818046903215" x2="104.07268597354721" y2="414.50384501225795" />
    <line x1="135.45781494645055" y1="408.26095470774186" x2="166.84294391935393" y2="402.01806440322571" />
    <line x1="213.920637378709" y1="392.65372894645157" x2="245.30576635161236" y2="386.41083864193541" />
    <line x1="260.998330838064" y1="383.28939348967737" x2="276.69089532451574" y2="380.16794833741932" />
    <line x1="6.8964564126789014" y1="415.82297080393045" x2="38.550104731551869" y2="411.12759562135886" />
    <line x1="54.376928890988381" y1="408.77990803007305" x2="86.030577209861349" y2="404.08453284750146" />
    <line x1="20.65645402476423" y1="396.71789627336881" x2="68.425320905029707" y2="392.01307353754987" />
    <line x1="116.19418778529516" y1="387.308250801731" x2="148.04009903880547" y2="384.17170231118507" />
    <line x1="211.73192154582605" y1="377.89860533009318" x2="227.65487717258122" y2="376.33033108482022" />
    <line x1="51.3758176639862" y1="378.30911439015443" x2="67.356544963268959" y2="377.52403160091575" />
    <line x1="35" y1="363.00000000000006" x2="51" y2="363.00000000000006" />
    <line x1="67" y1="363.00000000000006" x2="83" y2="363.00000000000006" />
    <line x1="99" y1="363.00000000000006" x2="131" y2="363.00000000000006" />
    <line x1="163" y1="363.00000000000006" x2="179" y2="363.00000000000006" />
    <line x1="195" y1="363.00000000000006" x2="211" y2="363" />
    <line x1="259" y1="363" x2="323" y2="363" />
    <line x1="51.3758176639862" y1="347.69088560984568" x2="67.356544963268959" y2="348.47596839908437" />
    <line x1="84.348276531784848" y1="335.5552007077232" x2="100.27123215853999" y2="337.12347495299616" />
    <line x1="116.19418778529516" y1="338.69174919826912" x2="148.04009903880547" y2="341.82829768881504" />
    <line x1="211.73192154582605" y1="348.10139466990688" x2="227.65487717258122" y2="349.66966891517984" />
    <line x1="22.723280572115357" y1="312.52471678735549" x2="54.376928890988381" y2="317.22009196992707" />
    <line x1="70.203753050424837" y1="319.56777956121289" x2="101.85740136929786" y2="324.26315474378447" />
    <line x1="25.609863541288746" y1="295.88892922645186" x2="72.687557000643778" y2="305.253264683226" />
    <line x1="88.3801214870955" y1="308.37470983548405" x2="119.76525045999887" y2="314.61760014000015" />
    <line x1="135.45781494645053" y1="317.73904529225825" x2="151.15037943290224" y2="320.8604904445163" />
    <line x1="166.8429439193539" y1="323.98193559677435" x2="229.61320186516065" y2="336.46771620580654" />
    <line x1="245.30576635161236" y1="339.58916135806459" x2="276.69089532451574" y2="345.83205166258074" />
    <line x1="75.870749054415" y1="291.07786674863394" x2="91.391249105527663" y2="294.96554962708615" />
    <line x1="18.501479136404782" y1="258.49751618839366" x2="49.123569879835486" y2="267.78662586053645" />
    <line x1="64.434615251550838" y1="272.43118069660784" x2="140.98984211012754" y2="295.6539548769648" />
    <line x1="156.30088748184286" y1="300.2985097130362" x2="186.92297822527357" y2="309.587619385179" />
    <line x1="217.54506896870424" y1="318.87672905732177" x2="232.8561143404196" y2="323.52128389339316" />
    <line x1="24.044136534112454" y1="241.71965277880094" x2="39.108841577040778" y2="247.10989043307646" />
    <line x1="69.238251662897483" y1="257.89036574162748" x2="84.3029567058258" y2="263.280603395903" />
    <line x1="59.967513336298" y1="237.47983418425048" x2="74.749585856478575" y2="243.60276910209191" />
    <line x1="89.531658376659152" y1="249.72570401993335" x2="104.31373089683973" y2="255.84863893777481" />
    <line x1="133.87787593720091" y1="268.09450877345768" x2="193.00616601792325" y2="292.58624844482347" />
    <line x1="207.78823853810386" y1="298.70918336266487" x2="222.57031105828443" y2="304.83211828050634" />
    <line x1="237.35238357846504" y1="310.95505319834774" x2="266.91652861882619" y2="323.20092303403067" />
    <line x1="281.69860113900677" y1="329.32385795187207" x2="326.04481869954856" y2="347.6926627053964" />
    <line x1="52.027683165535507" y1="215.92104785998293" x2="80.955340545485683" y2="229.60281084975196" />
    <line x1="200.72648735990268" y1="276.26300042401647" x2="214.83722758947636" y2="283.80534821323238" />
    <line x1="63.670939571083636" y1="162.99471611294334" x2="90.277967164765073" y2="180.77296356957061" />
    <line x1="210.00959133633162" y1="260.77507712439325" x2="223.31310513317237" y2="269.66420085270687" />
    <line x1="276.52716032053524" y1="305.22069576596141" x2="289.830674117376" y2="314.10981949427503" />
    <line x1="73.84528866696769" y1="148.54825038272415" x2="112.39925017803867" y2="177.14181699836092" />
    <line x1="125.25057068172899" y1="186.67300587023985" x2="150.95321168910965" y2="205.7353836139977" />
    <line x1="97.084404043218512" y1="144.76871024770591" x2="134.18890580462988" y2="175.21958788756089" />
    <line x1="146.55707305843367" y1="185.36988043417924" x2="183.66157481984504" y2="215.82075807403422" />
    <line x1="208.39790932745262" y1="236.12134316727088" x2="220.76607658125641" y2="246.27163571388923" />
    <line x1="233.1342438350602" y1="256.42192826050757" x2="257.87057834266778" y2="276.7225133537442" />
    <line x1="119.96803088357342" y1="142.72866281017798" x2="131.82324888925277" y2="153.47360608773028" />
    <line x1="155.53368490061146" y1="174.96349264283487" x2="167.38890290629081" y2="185.70843592038716" />
    <line x1="108.44155877284283" y1="108.44155877284297" x2="119.75526727182759" y2="119.75526727182771" />
    <line x1="176.32380976675142" y1="176.32380976675151" x2="187.63751826573616" y2="187.63751826573625" />
    <line x1="334.7157287525381" y1="334.7157287525381" x2="346.02943725152284" y2="346.02943725152284" />
    <line x1="131.98371953262557" y1="108.11281287789416" x2="142.72866281017787" y2="119.96803088357348" />
    <line x1="195.52017298079747" y1="158.92524031223752" x2="215.82075807403413" y2="183.6615748198451" />
    <line x1="225.97105062065248" y1="196.02974207364889" x2="236.12134316727082" y2="208.39790932745268" />
    <line x1="158.07943925460296" y1="86.696609170658121" x2="205.73538361399761" y2="150.95321168910971" />
    <line x1="189.66208729788411" y1="103.58148096160591" x2="198.55121102619776" y2="116.88499475844662" />
    <line x1="216.32945848282503" y1="143.49202235212806" x2="242.99682966776592" y2="183.40256374265022" />
    <line x1="260.77507712439319" y1="210.00959133633168" x2="296.33157203764773" y2="263.22364652369458" />
    <line x1="305.22069576596135" y1="276.5271603205353" x2="322.99894322258865" y2="303.13418791421674" />
    <line x1="219.05123162589788" y1="122.83598919992383" x2="227.27687553298944" y2="136.55964695992819" />
    <line x1="208.38187032107268" y1="73.729825293739623" x2="223.46656589950462" y2="101.95130575288698" />
    <line x1="268.72065263480044" y1="186.61574713032903" x2="276.26300042401635" y2="200.72648735990271" />
    <line x1="283.80534821323238" y1="214.83722758947639" x2="298.89004379166431" y2="243.05870804862374" />
    <line x1="209.08016636509828" y1="37.563854475560504" x2="229.60281084975185" y2="80.95534054548574" />
    <line x1="243.28457383952087" y1="109.88299792543592" x2="250.12545533440542" y2="124.346826615411" />
    <line x1="231.3568992664089" y1="45.185440816117421" x2="237.47983418425037" y2="59.967513336298" />
    <line x1="243.6027691020918" y1="74.749585856478632" x2="255.8486389377747" y2="104.31373089683979" />
    <line x1="261.97157385561616" y1="119.09580341702036" x2="274.217443691299" y2="148.65994845738152" />
    <line x1="280.34037860914049" y1="163.44202097756212" x2="286.46331352698189" y2="178.2240934977427" />
    <line x1="292.58624844482335" y1="193.00616601792328" x2="304.83211828050628" y2="222.57031105828446" />
    <line x1="310.95505319834768" y1="237.35238357846504" x2="323.20092303403061" y2="266.91652861882619" />
    <line x1="329.323857951872" y1="281.69860113900677" x2="347.6926627053964" y2="326.04481869954856" />
    <line x1="263.28060339590286" y1="84.302956705825864" x2="274.06107870445391" y2="114.43236679168251" />
    <line x1="258.49751618839349" y1="18.501479136404839" x2="263.14207102446488" y2="33.812524508120191" />
    <line x1="272.43118069660773" y1="64.434615251550838" x2="277.07573553267912" y2="79.74566062326619" />
    <line x1="281.72029036875051" y1="95.056705994981542" x2="291.0094000408933" y2="125.67879673841222" />
    <line x1="295.65395487696469" y1="140.98984211012754" x2="309.58761938517887" y2="186.92297822527357" />
    <line x1="318.87672905732171" y1="217.54506896870427" x2="323.5212838933931" y2="232.8561143404196" />
    <line x1="279.41481811327714" y1="29.3092489010769" x2="283.30250099172935" y2="44.829748952189561" />
    <line x1="291.07786674863382" y1="75.870749054415" x2="294.96554962708603" y2="91.391249105527663" />
    <line x1="302.13181953096785" y1="56.99499251419212" x2="305.25326468322589" y2="72.687557000643835" />
    <line x1="314.61760014000009" y1="119.76525045999887" x2="317.73904529225814" y2="135.45781494645055" />
    <line x1="330.22482590129039" y1="198.2280728922573" x2="333.34627105354843" y2="213.920637378709" />
    <line x1="336.46771620580648" y1="229.61320186516068" x2="339.58916135806453" y2="245.30576635161236" />
    <line x1="312.52471678735532" y1="22.723280572115357" x2="314.87240437864114" y2="38.550104731551869" />
    <line x1="319.56777956121272" y1="70.203753050424837" x2="324.2631547437843" y2="101.85740136929786" />
    <line x1="330.85037797190415" y1="36.579409651519427" x2="332.41865221717711" y2="52.502365278274567" />
    <line x1="337.12347495299605" y1="100.27123215853999" x2="338.691749198269" y2="116.19418778529516" />
    <line x1="340.26002344354197" y1="132.11714341205033" x2="344.96484617936085" y2="179.88601029231577" />
    <line x1="348.10139466990682" y1="211.73192154582605" x2="349.66966891517978" y2="227.65487717258122" />
    <line x1="346.12072003136819" y1="19.414363065420673" x2="346.90580282060688" y2="35.395090364703435" />
    <line x1="347.69088560984557" y1="51.3758176639862" x2="348.47596839908425" y2="67.356544963268959" />
    <line x1="349.26105118832294" y1="83.337272262551721" x2="350.04613397756162" y2="99.317999561834483" />
  </g>
  <path fill="none" stroke="#ff0000" stroke-width="2" stroke-linecap="square" stroke-linejoin="round" d="M 371.83484226824839,3.108425269366478 L 371.63851244006514,11.1060158189361 A 352,352 0 0,0 319.91144232987597,13.647203821254095 L 321.87001313306342,29.526876374833421 A 336,336 0 0,1 338.28230663051175,27.910406555960094 L 339.45933964810644,43.867053862819148 A 320,320 0 0,1 370.85319312733191,43.096378017214647 L 370.46053347096534,59.091559116353892 A 304,304 0 0,0 355.5394665290346,59.091559116353892 L 356.32478584176783,91.081921314632439 A 272,272 0 0,1 369.67521415823217,91.081921314632439 L 370.06787381459873,75.0867402154932 A 288,288 0 0,1 412.23702396296676,79.240038991984932 L 414.97241418313155,63.475596713761888 A 304,304 0 0,1 444.08067827236908,70.012075998186276 L 431.278465913574,116.2733271563674 A 256,256 0 0,1 494.61030251346472,143.42147583993034 L 486.38465860637319,157.1451335999347 A 240,240 0 0,1 505.967833078184,170.23019244464521 L 496.43664420630506,183.08151294833556 A 224,224 0 0,1 513.42920588573213,197.02694792048916 L 491.93931933062754,220.73738393184783 A 192,192 0 0,1 505.26261606815217,234.06068066937246 L 481.55218005679347,255.55056722447705 A 160,160 0 0,1 500.23657760004357,280.74356092908454 L 513.96023536004782,272.51791702199296 A 176,176 0 0,1 538.78800029211038,354.3640893183744 L 554.76872759139314,353.57900652913571 A 192,192 0 0,1 554.76872759139314,372.42099347086423 L 522.80727299282762,370.85082789238686 A 160,160 0 0,0 521.268241594365,339.52312408714209 L 489.614593275492,344.21849926971367 A 128,128 0 0,1 490.38364501404118,350.45380603781621 L 474.46068938728604,352.02208028308917 A 112,112 0 0,1 474.46068938728604,373.97791971691078 L 458.5377337605309,372.40964547163782 A 96,96 0 0,1 353.59035452836218,458.5377337605309 L 355.15862877363514,442.61477813377576 A 80,80 0 0,1 339.77722581964304,439.5552268585767 L 344.42178065571443,424.24418148686135 A 64,64 0 0,1 327.44350508674546,416.21405518736293 L 336.33262881505908,402.91054139052221 A 48,48 0 0,0 353.63566454322586,410.07769345935503 L 356.7571096954839,394.38512897290337 A 32,32 0 0,1 350.75413016431713,392.56414504036115 L 353.81559762323786,385.17310878027087" />
  <type>Circular</type>
</svg>