<?xml version="1.0" encoding="utf-8" standalone="no"?>
<!DOCTYPE svg PUBLIC "-//W3C//DTD SVG 1.1//EN" "http://www.w3.org/Graphics/SVG/1.1/DTD/svg11.dtd"[]>
<svg width="724" height="724" version="1.1" xmlns="http://www.w3.org/2000/svg">
  <title>45 cells diameter theta maze</title>
  <g fill="none" stroke="#000000" stroke-width="2" stroke-linecap="square">
    <path d="M 346.02943725152284,379.97056274847716 A 24,24 0 1,1 363,387" />
    <path d="M 323,363 A 40,40 0 0,1 378.3073372946036,326.0448186995485" />
    <path d="M 391.2842712474619,334.7157287525381 A 40,40 0 0,1 399.9551813004515,378.3073372946036" />
    <path d="M 363,403 A 40,40 0 0,1 326.04481869954856,378.3073372946036" />
    <path d="M 384.430272212445,311.26274617936792 A 56,56 0 0,1 402.59797974644664,323.40202025355336" />
    <path d="M 402.59797974644664,402.59797974644664 A 56,56 0 0,1 363,419" />
    <path d="M 341.569727787555,414.73725382063208 A 56,56 0 0,1 323.40202025355336,402.59797974644664" />
    <path d="M 311.26274617936792,384.43027221244506 A 56,56 0 0,1 311.26274617936792,341.56972778755494" />
    <path d="M 296.48067365918735,390.55320713028652 A 72,72 0 0,1 363,291" />
    <path d="M 377.04650318516121,292.38345981096739 A 72,72 0 0,1 390.55320713028647,296.48067365918735" />
    <path d="M 422.86581208578326,322.99894322258865 A 72,72 0 0,1 433.61654018903261,348.95349681483879" />
    <path d="M 435,363 A 72,72 0 0,1 422.86581208578326,403.00105677741135" />
    <path d="M 403.00105677741135,422.86581208578326 A 72,72 0 0,1 377.04650318516127,433.61654018903261" />
    <path d="M 348.95349681483879,433.61654018903261 A 72,72 0 0,1 335.44679286971353,429.51932634081265" />
    <path d="M 322.99894322258865,422.86581208578326 A 72,72 0 0,1 303.13418791421674,403.00105677741135" />
    <path d="M 329.323857951872,281.69860113900677 A 88,88 0 0,1 411.89018050572497,289.830674117376" />
    <path d="M 425.22539674441617,300.77460325558383 A 88,88 0 0,1 436.169325882624,314.10981949427503" />
    <path d="M 444.30139886099323,329.32385795187213 A 88,88 0 0,1 449.30910467548426,380.16794833741926" />
    <path d="M 444.30139886099323,396.67614204812787 A 88,88 0 0,1 425.22539674441617,425.22539674441617" />
    <path d="M 396.67614204812793,444.30139886099323 A 88,88 0 0,1 314.10981949427503,436.169325882624" />
    <path d="M 281.69860113900677,396.67614204812793 A 88,88 0 0,1 275,363" />
    <path d="M 281.69860113900677,329.32385795187207 A 88,88 0 0,1 289.830674117376,314.10981949427503" />
    <path d="M 300.77460325558383,300.77460325558383 A 88,88 0 0,1 314.10981949427503,289.830674117376" />
    <path d="M 342.71060651032263,260.998330838064 A 104,104 0 0,1 383.28939348967731,260.998330838064" />
    <path d="M 449.4728396794647,305.22069576596135 A 104,104 0 0,1 459.08347138117381,323.20092303403067" />
    <path d="M 465.001669161936,383.28939348967731 A 104,104 0 0,1 436.53910524340097,436.53910524340097" />
    <path d="M 420.77930423403859,449.4728396794647 A 104,104 0 0,1 383.28939348967737,465.001669161936" />
    <path d="M 363,467 A 104,104 0 0,1 276.5271603205353,420.77930423403865" />
    <path d="M 260.998330838064,383.28939348967737 A 104,104 0 0,1 266.91652861882619,323.20092303403067" />
    <path d="M 276.52716032053524,305.22069576596141 A 104,104 0 0,1 305.22069576596135,276.5271603205353" />
    <path d="M 363,243 A 120,120 0 0,1 447.85281374238571,278.14718625761429" />
    <path d="M 473.86554390135439,317.0779881161892 A 120,120 0 0,1 480.69423364838764,339.58916135806459" />
    <path d="M 473.86554390135439,408.92201188381074 A 120,120 0 0,1 429.66842796235227,462.77635347630542" />
    <path d="M 408.9220118838108,473.86554390135439 A 120,120 0 0,1 363,483" />
    <path d="M 339.58916135806459,480.69423364838764 A 120,120 0 0,1 296.33157203764779,462.77635347630547" />
    <path d="M 278.14718625761429,447.85281374238571 A 120,120 0 0,1 245.30576635161236,386.41083864193541" />
    <path d="M 243,363 A 120,120 0 0,1 245.30576635161236,339.58916135806459" />
    <path d="M 252.13445609864561,317.0779881161892 A 120,120 0 0,1 263.22364652369453,296.33157203764779" />
    <path d="M 278.14718625761429,278.14718625761429 A 120,120 0 0,1 296.33157203764773,263.22364652369458" />
    <path d="M 317.07798811618915,252.13445609864561 A 120,120 0 0,1 339.58916135806453,245.30576635161236" />
    <path d="M 336.46771620580648,229.61320186516068 A 136,136 0 0,1 427.10995620833569,243.05870804862371" />
    <path d="M 459.16652224137044,266.83347775862956 A 136,136 0 0,1 468.12942165733222,276.7225133537442" />
    <path d="M 496.38679813483935,336.46771620580654 A 136,136 0 0,1 498.34512282741878,349.66966891517973" />
    <path d="M 499,363 A 136,136 0 0,1 498.34512282741878,376.33033108482027" />
    <path d="M 496.38679813483935,389.53228379419346 A 136,136 0 0,1 488.647616421535,415.0449468016522" />
    <path d="M 482.94129195137629,427.10995620833569 A 136,136 0 0,1 468.12942165733227,449.27748664625574" />
    <path d="M 459.16652224137044,459.16652224137044 A 136,136 0 0,1 415.0449468016522,488.64761642153496" />
    <path d="M 402.4787161066069,493.14388565958041 A 136,136 0 0,1 389.53228379419352,496.3867981348393" />
    <path d="M 363,499 A 136,136 0 0,1 310.9550531983478,488.647616421535" />
    <path d="M 298.89004379166431,482.94129195137629 A 136,136 0 0,1 257.87057834266784,449.27748664625585" />
    <path d="M 249.92013272685384,438.55755169066589 A 136,136 0 0,1 243.05870804862371,427.10995620833569" />
    <path d="M 232.8561143404196,402.4787161066069 A 136,136 0 0,1 229.61320186516068,389.53228379419352" />
    <path d="M 227.65487717258122,376.33033108482022 A 136,136 0 0,1 227,363" />
    <path d="M 227.65487717258122,349.66966891517984 A 136,136 0 0,1 243.05870804862371,298.89004379166431" />
    <path d="M 249.92013272685381,287.44244830933417 A 136,136 0 0,1 266.8334777586295,266.83347775862956" />
    <path d="M 287.44244830933411,249.92013272685387 A 136,136 0 0,1 323.5212838933931,232.8561143404196" />
    <path d="M 348.10139466990682,211.73192154582608 A 152,152 0 0,1 407.12327094267829,217.54506896870424" />
    <path d="M 421.16788171949366,222.5703110582844 A 152,152 0 0,1 459.42777919287414,245.502411088864" />
    <path d="M 480.497588911136,266.57222080712586 A 152,152 0 0,1 503.4296889417156,304.83211828050634" />
    <path d="M 508.45493103129576,318.87672905732171 A 152,152 0 0,1 514.268078454174,348.10139466990677" />
    <path d="M 515,363 A 152,152 0 0,1 508.45493103129576,407.12327094267823" />
    <path d="M 503.4296889417156,421.16788171949361 A 152,152 0 0,1 470.48023074035524,470.48023074035518" />
    <path d="M 434.65230399755166,497.05203218094994 A 152,152 0 0,1 407.12327094267829,508.45493103129576" />
    <path d="M 377.89860533009323,514.268078454174 A 152,152 0 0,1 363,515" />
    <path d="M 333.34627105354849,512.079362621291 A 152,152 0 0,1 318.87672905732177,508.45493103129576" />
    <path d="M 304.83211828050639,503.4296889417156 A 152,152 0 0,1 278.55332458102049,489.38338106998691" />
    <path d="M 255.51976925964479,470.48023074035524 A 152,152 0 0,1 228.94796781905006,434.65230399755171" />
    <path d="M 217.54506896870424,407.12327094267829 A 152,152 0 0,1 211.73192154582608,377.89860533009318" />
    <path d="M 217.54506896870424,318.87672905732177 A 152,152 0 0,1 222.57031105828443,304.83211828050634" />
    <path d="M 228.94796781905004,291.3476960024484 A 152,152 0 0,1 245.502411088864,266.57222080712586" />
    <path d="M 255.51976925964476,255.51976925964482 A 152,152 0 0,1 278.55332458102043,236.61661893001312" />
    <path d="M 318.87672905732171,217.54506896870427 A 152,152 0 0,1 333.34627105354843,213.920637378709" />
    <path d="M 363,195 A 168,168 0 0,1 379.46687957536619,195.80896591907091" />
    <path d="M 411.76782577874968,202.23402359698892 A 168,168 0 0,1 427.29081663733507,207.78823853810383" />
    <path d="M 442.19465178676762,214.83722758947636 A 168,168 0 0,1 492.8657561649398,256.42192826050757" />
    <path d="M 518.21176146189623,298.70918336266493 A 168,168 0 0,1 531,363" />
    <path d="M 530.19103408092906,379.46687957536619 A 168,168 0 0,1 523.76597640301111,411.76782577874962" />
    <path d="M 511.16277241052364,442.19465178676762 A 168,168 0 0,1 502.68689486682763,456.33579914729313" />
    <path d="M 492.86575616493985,469.57807173949243 A 168,168 0 0,1 481.79393923934,481.79393923934" />
    <path d="M 456.33579914729319,502.68689486682763 A 168,168 0 0,1 442.19465178676762,511.16277241052364" />
    <path d="M 411.76782577874968,523.76597640301111 A 168,168 0 0,1 363,531" />
    <path d="M 346.53312042463381,530.19103408092906 A 168,168 0 0,1 330.22482590129044,527.77192710774273" />
    <path d="M 283.80534821323238,511.16277241052364 A 168,168 0 0,1 244.20606076066002,481.79393923934003" />
    <path d="M 214.83722758947639,442.19465178676762 A 168,168 0 0,1 198.2280728922573,395.77517409870961" />
    <path d="M 195.80896591907091,379.46687957536614 A 168,168 0 0,1 195,363.00000000000006" />
    <path d="M 198.22807289225727,330.22482590129044 A 168,168 0 0,1 202.23402359698889,314.23217422125038" />
    <path d="M 233.1342438350602,256.42192826050757 A 168,168 0 0,1 256.42192826050746,233.13424383506026" />
    <path d="M 269.66420085270681,223.3131051331724 A 168,168 0 0,1 346.53312042463381,195.80896591907091" />
    <path d="M 344.96484617936085,179.88601029231577 A 184,184 0 0,1 363,179" />
    <path d="M 416.41238061482107,186.92297822527357 A 184,184 0 0,1 433.41375155517653,193.00616601792325" />
    <path d="M 465.22492287560681,210.00959133633168 A 184,184 0 0,1 493.10764773832477,232.89235226167526" />
    <path d="M 515.99040866366829,260.77507712439319 A 184,184 0 0,1 543.46449159419444,327.1033807490324" />
    <path d="M 547,363 A 184,184 0 0,1 543.46449159419444,398.8966192509676" />
    <path d="M 539.0770217747264,416.412380614821 A 184,184 0 0,1 525.27351264009735,449.73699957598359" />
    <path d="M 515.9904086636684,465.22492287560675 A 184,184 0 0,1 505.23392341874364,479.72836428611072" />
    <path d="M 493.10764773832477,493.10764773832477 A 184,184 0 0,1 465.22492287560681,515.9904086636684" />
    <path d="M 398.89661925096766,543.46449159419444 A 184,184 0 0,1 381.03515382063921,546.11398970768425" />
    <path d="M 363,547 A 184,184 0 0,1 344.96484617936085,546.11398970768425" />
    <path d="M 327.1033807490324,543.46449159419444 A 184,184 0 0,1 276.26300042401647,525.27351264009735" />
    <path d="M 260.77507712439325,515.9904086636684 A 184,184 0 0,1 246.27163571388928,505.23392341874364" />
    <path d="M 210.00959133633168,465.22492287560681 A 184,184 0 0,1 182.53550840580562,398.89661925096766" />
    <path d="M 179.88601029231577,381.03515382063915 A 184,184 0 0,1 182.53550840580559,327.1033807490324" />
    <path d="M 220.76607658125641,246.27163571388923 A 184,184 0 0,1 232.89235226167523,232.89235226167529" />
    <path d="M 246.27163571388917,220.76607658125647 A 184,184 0 0,1 276.26300042401635,200.72648735990271" />
    <path d="M 363,163 A 200,200 0 0,1 421.05693545089247,171.61193285355822" />
    <path d="M 457.27934736519956,186.615747130329 A 200,200 0 0,1 504.42135623730951,221.57864376269049" />
    <path d="M 517.60209067254732,236.12134316727088 A 200,200 0 0,1 529.29392246050907,251.88595339607954" />
    <path d="M 547.77590650225738,286.463313526982 A 200,200 0 0,1 554.38806714644181,304.94306454910753" />
    <path d="M 559.157056080646,323.98193559677435 A 200,200 0 0,1 559.157056080646,402.01806440322565" />
    <path d="M 554.38806714644181,421.05693545089241 A 200,200 0 0,1 547.77590650225738,439.53668647301794" />
    <path d="M 539.384252869671,457.27934736519956 A 200,200 0 0,1 504.42135623730951,504.42135623730951" />
    <path d="M 489.87865683272912,517.60209067254743 A 200,200 0 0,1 439.536686473018,547.77590650225738" />
    <path d="M 421.05693545089247,554.38806714644181 A 200,200 0 0,1 402.01806440322571,559.157056080646" />
    <path d="M 382.60342806591217,562.03694533443934 A 200,200 0 0,1 323.98193559677435,559.157056080646" />
    <path d="M 304.94306454910759,554.38806714644181 A 200,200 0 0,1 208.39790932745268,489.87865683272918" />
    <path d="M 186.61574713032903,457.27934736519956 A 200,200 0 0,1 163.96305466556063,382.60342806591211" />
    <path d="M 163,363.00000000000006 A 200,200 0 0,1 163.96305466556061,343.396571934088" />
    <path d="M 178.22409349774267,286.463313526982 A 200,200 0 0,1 196.70607753949091,251.88595339607963" />
    <path d="M 208.39790932745262,236.12134316727088 A 200,200 0 0,1 323.98193559677424,166.84294391935393" />
    <path d="M 363,147 A 216,216 0 0,1 529.97025792635122,225.97105062065256" />
    <path d="M 542.59743625734973,242.99682966776589 A 216,216 0 0,1 574.84962056709776,320.8604904445163" />
    <path d="M 577.95990096119453,341.82829768881487 A 216,216 0 0,1 579,363" />
    <path d="M 577.95990096119453,384.17170231118507 A 216,216 0 0,1 553.49499309924465,464.82169515441547" />
    <path d="M 529.97025792635122,500.02894937934741 A 216,216 0 0,1 500.02894937934741,529.97025792635122" />
    <path d="M 483.00317033223405,542.59743625734973 A 216,216 0 0,1 464.82169515441552,553.49499309924465" />
    <path d="M 405.13950955548376,574.84962056709776 A 216,216 0 0,1 341.82829768881493,577.95990096119453" />
    <path d="M 261.17830484558453,553.49499309924465 A 216,216 0 0,1 225.97105062065262,529.97025792635122" />
    <path d="M 210.26493526370575,515.73506473629425 A 216,216 0 0,1 163.44202097756212,445.65962139085951" />
    <path d="M 156.30088748184289,425.70149028696386 A 216,216 0 0,1 151.15037943290224,405.13950955548381" />
    <path d="M 156.30088748184286,300.2985097130362 A 216,216 0 0,1 163.4420209775621,280.34037860914054" />
    <path d="M 210.2649352637057,210.26493526370578 A 216,216 0 0,1 225.97105062065248,196.02974207364889" />
    <path d="M 280.34037860914049,163.44202097756212 A 216,216 0 0,1 300.29850971303608,156.30088748184289" />
    <path d="M 363,131 A 232,232 0 0,1 408.26095470774175,135.45781494645053" />
    <path d="M 451.7825563087008,148.65994845738146 A 232,232 0 0,1 542.3384251801549,215.82075807403425" />
    <path d="M 555.9009500541905,234.10770593945227 A 232,232 0 0,1 567.60573332881836,253.63595705636851" />
    <path d="M 577.34005154261854,274.2174436912992 A 232,232 0 0,1 585.01015788987252,295.65395487696475" />
    <path d="M 590.54218505354947,317.73904529225825 A 232,232 0 0,1 593.88285658794962,340.26002344354191" />
    <path d="M 593.88285658794962,385.73997655645809 A 232,232 0 0,1 567.60573332881836,472.36404294363149" />
    <path d="M 491.89229406054767,555.9009500541905 A 232,232 0 0,1 430.34604512303525,585.01015788987252" />
    <path d="M 385.73997655645809,593.88285658794962 A 232,232 0 0,1 363,595" />
    <path d="M 295.6539548769648,585.01015788987252 A 232,232 0 0,1 274.2174436912992,577.34005154261854" />
    <path d="M 234.10770593945236,555.9009500541905 A 232,232 0 0,1 132.11714341205033,385.73997655645803" />
    <path d="M 132.1171434120503,340.26002344354208 A 232,232 0 0,1 140.98984211012751,295.6539548769648" />
    <path d="M 148.65994845738149,274.21744369129914 A 232,232 0 0,1 198.95122676472093,198.951226764721" />
    <path d="M 215.82075807403413,183.6615748198451 A 232,232 0 0,1 274.217443691299,148.65994845738155" />
    <path d="M 295.65395487696469,140.98984211012754 A 232,232 0 0,1 317.73904529225814,135.45781494645055" />
    <path d="M 338.691749198269,116.19418778529516 A 248,248 0 0,1 387.30825080173105,116.19418778529519" />
    <path d="M 434.99059995910665,125.67879673841219 A 248,248 0 0,1 479.9063907328474,144.28352644160796" />
    <path d="M 500.78141778886135,156.79553614896878 A 248,248 0 0,1 538.36248173426384,187.63751826573622" />
    <path d="M 554.7065924339588,205.6704655274159 A 248,248 0 0,1 569.20446385103128,225.21858221113865" />
    <path d="M 592.12212406279912,268.09450877345773 A 248,248 0 0,1 606.23474954000119,314.61760014000015" />
    <path d="M 609.80581221470482,338.69174919826895 A 248,248 0 0,1 606.23474954000119,411.38239985999979" />
    <path d="M 600.32120326158781,434.99059995910659 A 248,248 0 0,1 538.36248173426384,538.36248173426384" />
    <path d="M 520.3295344725841,554.7065924339588 A 248,248 0 0,1 500.78141778886129,569.20446385103128" />
    <path d="M 479.90639073284746,581.716473558392 A 248,248 0 0,1 434.99059995910665,600.32120326158781" />
    <path d="M 411.38239985999991,606.23474954000108 A 248,248 0 0,1 387.30825080173111,609.80581221470482" />
    <path d="M 314.61760014000015,606.23474954000119 A 248,248 0 0,1 291.00940004089341,600.32120326158781" />
    <path d="M 268.09450877345773,592.12212406279912 A 248,248 0 0,1 225.21858221113874,569.20446385103128" />
    <path d="M 187.63751826573625,538.36248173426384 A 248,248 0 0,1 171.29340756604131,520.32953447258421" />
    <path d="M 156.79553614896878,500.78141778886135 A 248,248 0 0,1 144.283526441608,479.90639073284751" />
    <path d="M 133.87787593720094,457.90549122654238 A 248,248 0 0,1 119.76525045999887,411.38239985999991" />
    <path d="M 115,363.00000000000006 A 248,248 0 0,1 116.19418778529516,338.69174919826912" />
    <path d="M 125.67879673841219,291.00940004089341 A 248,248 0 0,1 171.29340756604125,205.6704655274159" />
    <path d="M 225.21858221113865,156.79553614896878 A 248,248 0 0,1 246.09360926715252,144.283526441608" />
    <path d="M 268.09450877345756,133.87787593720094 A 248,248 0 0,1 291.0094000408933,125.67879673841222" />
    <path d="M 350.04613397756162,99.317999561834483 A 264,264 0 0,1 388.876525047004,100.27123215854005" />
    <path d="M 401.73684525621547,101.8574013692978 A 264,264 0 0,1 475.8745446655945,124.34682661541095" />
    <path d="M 487.44873852206337,130.17278621203428 A 264,264 0 0,1 520.26461638600244,150.95321168910974" />
    <path d="M 530.47982701920239,158.92524031223744 A 264,264 0 0,1 540.29156407961284,167.38890290629078" />
    <path d="M 558.61109709370919,185.70843592038716 A 264,264 0 0,1 567.07475968776259,195.52017298079758" />
    <path d="M 575.04678831089018,205.73538361399758 A 264,264 0 0,1 606.90419658297969,261.97157385561627" />
    <path d="M 611.56763320831749,274.06107870445391 A 264,264 0 0,1 615.63224863330311,286.36484520482196" />
    <path d="M 619.08825084335967,298.8532325055383 A 264,264 0 0,1 621.9273140264529,311.4961549877421" />
    <path d="M 624.1425986307022,324.26315474378453 A 264,264 0 0,1 627,363" />
    <path d="M 626.68200043816546,375.95386602243838 A 264,264 0 0,1 625.72876784146,388.876525047004" />
    <path d="M 624.1425986307022,401.73684525621547 A 264,264 0 0,1 615.63224863330311,439.63515479517804" />
    <path d="M 606.90419658297969,464.02842614438367 A 264,264 0 0,1 601.65317338458908,475.87454466559439" />
    <path d="M 589.44035304007184,498.72312446701051 A 264,264 0 0,1 582.50797764787194,509.67054151717491" />
    <path d="M 567.07475968776259,530.47982701920239 A 264,264 0 0,1 558.61109709370919,540.29156407961284" />
    <path d="M 549.67619023324858,549.67619023324846 A 264,264 0 0,1 530.47982701920239,567.07475968776259" />
    <path d="M 509.67054151717497,582.50797764787194 A 264,264 0 0,1 498.72312446701051,589.44035304007184" />
    <path d="M 487.44873852206342,595.82721378796566 A 264,264 0 0,1 475.87454466559444,601.65317338458908" />
    <path d="M 451.93892129554615,611.56763320831749 A 264,264 0 0,1 401.73684525621553,624.1425986307022" />
    <path d="M 388.87652504700407,625.72876784146 A 264,264 0 0,1 375.95386602243832,626.68200043816546" />
    <path d="M 350.04613397756174,626.68200043816546 A 264,264 0 0,1 311.4961549877421,621.9273140264529" />
    <path d="M 298.85323250553836,619.08825084335967 A 264,264 0 0,1 261.97157385561633,606.90419658297969" />
    <path d="M 250.12545533440562,601.65317338458908 A 264,264 0 0,1 176.32380976675148,549.67619023324858" />
    <path d="M 167.38890290629087,540.291564079613 A 264,264 0 0,1 143.49202235212806,509.67054151717497" />
    <path d="M 130.17278621203431,487.44873852206342 A 264,264 0 0,1 104.07268597354721,414.50384501225795" />
    <path d="M 99.317999561834483,375.95386602243838 A 264,264 0 0,1 101.8574013692978,324.26315474378447" />
    <path d="M 104.07268597354715,311.4961549877421 A 264,264 0 0,1 185.70843592038708,167.38890290629087" />
    <path d="M 195.52017298079747,158.92524031223755 A 264,264 0 0,1 227.27687553298944,136.55964695992819" />
    <path d="M 261.97157385561616,119.09580341702036 A 264,264 0 0,1 274.06107870445391,114.43236679168251" />
    <path d="M 286.3648452048219,110.36775136669687 A 264,264 0 0,1 311.496154987742,104.07268597354721" />
    <path d="M 324.26315474378436,101.85740136929786 A 264,264 0 0,1 337.12347495299605,100.27123215854005" />
    <path d="M 335.55520070772303,84.348276531784848 A 280,280 0 0,1 404.08453284750129,86.030577209861349" />
    <path d="M 417.62529016451589,88.3801214870955 A 280,280 0 0,1 444.27970963124949,95.056705994981542" />
    <path d="M 470.15136106222513,104.31373089683973 A 280,280 0 0,1 506.94876837410209,122.8359891999238" />
    <path d="M 529.79580525788128,138.10189118541942 A 280,280 0 0,1 540.63011956582068,146.55707305843365" />
    <path d="M 551.03650735716519,155.53368490061143 A 280,280 0 0,1 570.46631509938857,174.96349264283487" />
    <path d="M 579.44292694156638,185.36988043417927 A 280,280 0 0,1 603.1640108000762,219.05123162589791" />
    <path d="M 616.11700207456408,243.284573839521 A 280,280 0 0,1 621.68626910316027,255.84863893777487" />
    <path d="M 637.61987851290451,308.37470983548405 A 280,280 0 0,1 639.96942279013865,321.91546715249871" />
    <path d="M 641.6517234682151,335.555200707723 A 280,280 0 0,1 642.66272773744822,349.26105118832294" />
    <path d="M 642.66272773744822,376.73894881167706 A 280,280 0 0,1 637.61987851290451,417.62529016451589" />
    <path d="M 626.63233825124576,457.32915894982159 A 280,280 0 0,1 621.68626910316038,470.15136106222513" />
    <path d="M 616.1170020745642,482.71542616047896 A 280,280 0 0,1 609.93795401753937,494.99108631127933" />
    <path d="M 603.1640108000762,506.94876837410209 A 280,280 0 0,1 579.44292694156638,540.63011956582068" />
    <path d="M 560.98989873223331,560.98989873223331 A 280,280 0 0,1 494.99108631127939,609.93795401753937" />
    <path d="M 470.15136106222519,621.68626910316027 A 280,280 0 0,1 444.27970963124949,630.94329400501852" />
    <path d="M 417.625290164516,637.61987851290451 A 280,280 0 0,1 404.08453284750129,639.96942279013865" />
    <path d="M 363.00000000000006,643 A 280,280 0 0,1 349.26105118832305,642.66272773744822" />
    <path d="M 335.55520070772303,641.6517234682151 A 280,280 0 0,1 294.96554962708615,634.60875089447234" />
    <path d="M 268.67084105017841,626.63233825124576 A 280,280 0 0,1 231.00891368872067,609.93795401753937" />
    <path d="M 219.05123162589797,603.1640108000762 A 280,280 0 0,1 185.36988043417932,579.44292694156638" />
    <path d="M 165.01010126776671,560.98989873223331 A 280,280 0 0,1 116.06204598246063,494.99108631127945" />
    <path d="M 109.88299792543592,482.71542616047907 A 280,280 0 0,1 91.39124910552772,431.03445037291397" />
    <path d="M 86.030577209861349,404.08453284750146 A 280,280 0 0,1 84.348276531784848,390.44479929227691" />
    <path d="M 86.030577209861349,321.91546715249865 A 280,280 0 0,1 91.391249105527663,294.96554962708615" />
    <path d="M 95.056705994981485,281.72029036875063 A 280,280 0 0,1 99.367661748754131,268.67084105017852" />
    <path d="M 116.06204598246058,231.00891368872067 A 280,280 0 0,1 146.55707305843367,185.36988043417924" />
    <path d="M 207.44033475451138,130.18850855528734 A 280,280 0 0,1 243.28457383952087,109.88299792543592" />
    <path d="M 255.8486389377747,104.31373089683979 A 280,280 0 0,1 268.67084105017841,99.367661748754188" />
    <path d="M 281.72029036875051,95.056705994981542 A 280,280 0 0,1 294.96554962708603,91.39124910552772" />
    <path d="M 363,67 A 296,296 0 0,1 377.52403160091575,67.356544963268959" />
    <path d="M 406.43222043878706,70.203753050424837 A 296,296 0 0,1 420.746735316774,72.687557000643778" />
    <path d="M 448.92426446732088,79.74566062326619 A 296,296 0 0,1 476.27429598006654,89.5316583766591" />
    <path d="M 502.5334341004953,101.95130575288692 A 296,296 0 0,1 539.32699412976024,125.2505706817291" />
    <path d="M 572.303607231218,153.69639276878192 A 296,296 0 0,1 591.81109419537017,175.21958788756092" />
    <path d="M 600.74942931827081,186.67300587023971 A 296,296 0 0,1 609.11500524155338,198.55121102619773" />
    <path d="M 616.88766856008056,210.82558771880636 A 296,296 0 0,1 624.04869424711308,223.46656589950464" />
    <path d="M 630.5808307645392,236.44369234463647 A 296,296 0 0,1 641.69704329417414,263.28060339590286" />
    <path d="M 646.25433937673381,277.07573553267918 A 296,296 0 0,1 657.57467909497029,333.98692646245" />
    <path d="M 658.643455036731,348.47596839908425 A 296,296 0 0,1 650.129250945585,434.92213325136612" />
    <path d="M 646.25433937673392,448.92426446732082 A 296,296 0 0,1 641.69704329417414,462.71939660409708" />
    <path d="M 636.46834162334085,476.27429598006654 A 296,296 0 0,1 630.58083076453931,489.55630765536341" />
    <path d="M 616.88766856008056,515.17441228119355 A 296,296 0 0,1 600.74942931827093,539.32699412976024" />
    <path d="M 561.78145063471754,582.32153310506783 A 296,296 0 0,1 515.17441228119367,616.88766856008056" />
    <path d="M 489.55630765536347,630.58083076453931 A 296,296 0 0,1 476.2742959800666,636.46834162334085" />
    <path d="M 448.92426446732088,646.25433937673381 A 296,296 0 0,1 434.92213325136618,650.129250945585" />
    <path d="M 406.43222043878711,655.79624694957511 A 296,296 0 0,1 377.52403160091569,658.643455036731" />
    <path d="M 348.47596839908437,658.643455036731 A 296,296 0 0,1 305.253264683226,653.31244299935622" />
    <path d="M 291.07786674863394,650.129250945585 A 296,296 0 0,1 277.07573553267923,646.25433937673392" />
    <path d="M 263.28060339590286,641.69704329417414 A 296,296 0 0,1 210.82558771880642,616.88766856008056" />
    <path d="M 198.55121102619782,609.11500524155349 A 296,296 0 0,1 175.219587887561,591.81109419537017" />
    <path d="M 164.21854936528254,582.32153310506783 A 296,296 0 0,1 153.69639276878198,572.30360723121817" />
    <path d="M 95.419169235460856,489.55630765536364 A 296,296 0 0,1 89.531658376659209,476.27429598006677" />
    <path d="M 84.302956705825864,462.71939660409708 A 296,296 0 0,1 79.74566062326619,448.92426446732088" />
    <path d="M 72.687557000643835,420.74673531677411 A 296,296 0 0,1 68.425320905029707,333.98692646245024" />
    <path d="M 70.203753050424837,319.56777956121289 A 296,296 0 0,1 72.687557000643778,305.253264683226" />
    <path d="M 75.870749054414944,291.07786674863394 A 296,296 0 0,1 79.745660623266133,277.07573553267923" />
    <path d="M 84.3029567058258,263.280603395903 A 296,296 0 0,1 89.531658376659152,249.72570401993335" />
    <path d="M 109.11233143991942,210.82558771880645 A 296,296 0 0,1 116.88499475844654,198.55121102619785" />
    <path d="M 153.69639276878189,153.69639276878198 A 296,296 0 0,1 164.21854936528246,143.67846689493217" />
    <path d="M 175.21958788756081,134.18890580462997 A 296,296 0 0,1 198.55121102619773,116.88499475844662" />
    <path d="M 210.82558771880633,109.1123314399195 A 296,296 0 0,1 249.72570401993323,89.531658376659209" />
    <path d="M 263.28060339590286,84.302956705825864 A 296,296 0 0,1 277.07573553267912,79.74566062326619" />
    <path d="M 291.07786674863382,75.870749054415 A 296,296 0 0,1 348.47596839908425,67.356544963268959" />
    <path d="M 332.41865221717711,52.502365278274567 A 312,312 0 0,1 363,51" />
    <path d="M 378.30911439015443,51.3758176639862 A 312,312 0 0,1 408.77990803007287,54.376928890988324" />
    <path d="M 438.80981612981833,60.350249003302281 A 312,312 0 0,1 453.56881930339227,64.434615251550838" />
    <path d="M 496.397189150248,80.955340545485683 A 312,312 0 0,1 613.60074982196124,177.14181699836078" />
    <path d="M 622.41851903839415,189.66208729788409 A 312,312 0 0,1 630.61132632008491,202.59994381171484" />
    <path d="M 656.76174833710252,257.89036574162736 A 312,312 0 0,1 669.00500748580794,302.13181953096796" />
    <path d="M 671.62307110901168,317.22009196992713 A 312,312 0 0,1 674.62418233601375,378.30911439015443" />
    <path d="M 669.00500748580794,423.868180469032 A 312,312 0 0,1 661.56538474844911,453.56881930339222" />
    <path d="M 645.04465945451443,496.397189150248 A 312,312 0 0,1 630.61132632008491,523.40005618828513" />
    <path d="M 613.60074982196124,548.85818300163919 A 312,312 0 0,1 594.1767511107472,572.52639391226978" />
    <path d="M 583.61731573020279,583.61731573020279 A 312,312 0 0,1 560.93070465905737,604.179261449174" />
    <path d="M 536.33791270211589,622.41851903839415 A 312,312 0 0,1 523.40005618828513,630.6113263200848" />
    <path d="M 510.07578188971132,638.15943447668678 A 312,312 0 0,1 496.397189150248,645.04465945451432" />
    <path d="M 438.80981612981839,665.64975099669778 A 312,312 0 0,1 393.581347782823,673.49763472172549" />
    <path d="M 378.30911439015438,674.62418233601375 A 312,312 0 0,1 363.00000000000006,675" />
    <path d="M 332.41865221717711,673.49763472172549 A 312,312 0 0,1 287.19018387018167,665.64975099669778" />
    <path d="M 229.60281084975208,645.04465945451443 A 312,312 0 0,1 215.92421811028873,638.15943447668678" />
    <path d="M 202.59994381171487,630.61132632008491 A 312,312 0 0,1 177.14181699836081,613.60074982196124" />
    <path d="M 165.06929534094266,604.179261449174 A 312,312 0 0,1 103.58148096160585,536.33791270211589" />
    <path d="M 87.840565523313273,510.07578188971138 A 312,312 0 0,1 80.95534054548574,496.39718915024815" />
    <path d="M 74.749585856478632,482.39723089790817 A 312,312 0 0,1 69.238251662897483,468.10963425837264" />
    <path d="M 64.434615251550838,453.56881930339227 A 312,312 0 0,1 51.3758176639862,378.30911439015443" />
    <path d="M 51,363.00000000000006 A 312,312 0 0,1 51.3758176639862,347.69088560984568" />
    <path d="M 56.99499251419212,302.13181953096796 A 312,312 0 0,1 60.350249003302281,287.19018387018173" />
    <path d="M 64.434615251550781,272.43118069660784 A 312,312 0 0,1 69.238251662897483,257.89036574162748" />
    <path d="M 74.749585856478575,243.60276910209194 A 312,312 0 0,1 80.955340545485683,229.60281084975196" />
    <path d="M 87.840565523313217,215.92421811028876 A 312,312 0 0,1 112.39925017803867,177.14181699836095" />
    <path d="M 131.82324888925277,153.47360608773028 A 312,312 0 0,1 202.59994381171478,95.388673679915144" />
    <path d="M 215.92421811028865,87.840565523313273 A 312,312 0 0,1 229.60281084975185,80.95534054548574" />
    <path d="M 243.6027691020918,74.749585856478632 A 312,312 0 0,1 302.13181953096785,56.99499251419212" />
    <path d="M 314.87240437864114,38.550104731551869 A 328,328 0 0,1 363,35" />
    <path d="M 411.12759562135864,38.550104731551812 A 328,328 0 0,1 442.69749900827054,44.829748952189561" />
    <path d="M 488.52016581574946,59.967513336297941 A 328,328 0 0,1 503.23807064513255,66.491511855510566" />
    <path d="M 545.22703643042951,90.27796716476513 A 328,328 0 0,1 558.38937187351814,99.5479296743485" />
    <path d="M 571.08099720567566,109.45257129702227 A 328,328 0 0,1 594.93102422918764,131.06897577081242" />
    <path d="M 616.54742870297775,154.91900279432426 A 328,328 0 0,1 635.72203283523481,180.77296356957046" />
    <path d="M 644.33498408008927,194.37429990462329 A 328,328 0 0,1 666.032486663702,237.47983418425054" />
    <path d="M 676.87643012016451,267.78662586053633 A 328,328 0 0,1 687.44989526844813,314.87240437864136" />
    <path d="M 689.42059034848057,330.85037797190409 A 328,328 0 0,1 690.60490963529651,379.09419717939312" />
    <path d="M 666.032486663702,488.52016581574941 A 328,328 0 0,1 659.50848814448943,503.23807064513244" />
    <path d="M 644.33498408008927,531.62570009537671 A 328,328 0 0,1 616.54742870297775,571.08099720567566" />
    <path d="M 606.03196911642658,583.271337189822 A 328,328 0 0,1 594.93102422918764,594.93102422918753" />
    <path d="M 583.27133718982213,606.03196911642658 A 328,328 0 0,1 545.22703643042951,635.72203283523481" />
    <path d="M 531.62570009537671,644.33498408008927 A 328,328 0 0,1 517.61812967892729,652.27017470626038" />
    <path d="M 503.2380706451325,659.50848814448943 A 328,328 0 0,1 473.49987191264825,671.82645338003078" />
    <path d="M 442.6974990082706,681.17025104781044 A 328,328 0 0,1 411.12759562135869,687.44989526844813" />
    <path d="M 363.00000000000006,691 A 328,328 0 0,1 299.01037437870991,684.69757197225954" />
    <path d="M 283.30250099172946,681.17025104781044 A 328,328 0 0,1 267.78662586053645,676.87643012016451" />
    <path d="M 252.50012808735181,671.82645338003078 A 328,328 0 0,1 180.77296356957058,635.72203283523493" />
    <path d="M 167.61062812648189,626.45207032565156 A 328,328 0 0,1 142.72866281017795,606.03196911642658" />
    <path d="M 131.06897577081244,594.93102422918764 A 328,328 0 0,1 99.547929674348438,558.389371873518" />
    <path d="M 90.27796716476513,545.22703643042951 A 328,328 0 0,1 81.665015919910786,531.62570009537671" />
    <path d="M 66.491511855510623,503.23807064513267 A 328,328 0 0,1 54.173546619969159,473.49987191264813" />
    <path d="M 49.123569879835486,458.21337413946367 A 328,328 0 0,1 38.550104731551869,411.12759562135886" />
    <path d="M 36.579409651519427,395.14962202809585 A 328,328 0 0,1 35,363.00000000000006" />
    <path d="M 35.395090364703435,346.905802820607 A 328,328 0 0,1 36.579409651519427,330.85037797190432" />
    <path d="M 38.550104731551869,314.87240437864125 A 328,328 0 0,1 41.302428027740405,299.01037437870991" />
    <path d="M 54.173546619969159,252.50012808735198 A 328,328 0 0,1 66.491511855510623,222.76192935486745" />
    <path d="M 90.277967164765073,180.77296356957058 A 328,328 0 0,1 109.4525712970223,154.91900279432426" />
    <path d="M 119.96803088357342,142.72866281017798 A 328,328 0 0,1 167.61062812648191,99.547929674348438" />
    <path d="M 194.37429990462323,81.665015919910786 A 328,328 0 0,1 208.38187032107268,73.729825293739623" />
    <path d="M 237.47983418425037,59.967513336298055 A 328,328 0 0,1 267.78662586053633,49.123569879835486" />
    <path d="M 283.30250099172935,44.829748952189618 A 328,328 0 0,1 299.0103743787098,41.302428027740461" />
    <path d="M 363,19 A 344,344 0 0,1 462.85792897553506,33.812524508120134" />
    <path d="M 478.89010956692368,39.108841577040835 A 344,344 0 0,1 494.64310073359087,45.185440816117364" />
    <path d="M 510.078952140017,52.027683165535507 A 344,344 0 0,1 554.11616015874313,76.974453367924411" />
    <path d="M 581.23128975229406,97.084404043218456 A 344,344 0 0,1 594.01628046737437,108.11281287789404" />
    <path d="M 606.24473272817238,119.75526727182765 A 344,344 0 0,1 628.91559595678154,144.76871024770594" />
    <path d="M 658.05864184009351,186.14865599753173 A 344,344 0 0,1 673.97231683446444,215.92104785998293" />
    <path d="M 686.89115842295917,247.10989043307632 A 344,344 0 0,1 692.18747549187992,263.14207102446494" />
    <path d="M 700.39013645871125,295.88892922645186 A 344,344 0 0,1 706.58563693457927,346.12072003136814" />
    <path d="M 707,363 A 344,344 0 0,1 705.34354597523566,396.71789627336886" />
    <path d="M 703.2767194278847,413.4752832126444 A 344,344 0 0,1 696.6907510989231,446.58518188672281" />
    <path d="M 692.18747549187992,462.857928975535 A 344,344 0 0,1 686.89115842295917,478.89010956692368" />
    <path d="M 673.97231683446455,510.07895214001695 A 344,344 0 0,1 666.3809149358342,525.1604774681432" />
    <path d="M 658.05864184009363,539.8513440024683 A 344,344 0 0,1 649.0255466320757,554.116160158743" />
    <path d="M 639.30339082934188,567.9205607453971 A 344,344 0 0,1 606.24473272817238,606.24473272817227" />
    <path d="M 581.23128975229406,628.91559595678154 A 344,344 0 0,1 567.9205607453971,639.30339082934188" />
    <path d="M 525.1604774681432,666.38091493583408 A 344,344 0 0,1 494.64310073359093,680.81455918388269" />
    <path d="M 478.8901095669238,686.891158422959 A 344,344 0 0,1 462.85792897553506,692.18747549187992" />
    <path d="M 430.11107077354825,700.39013645871125 A 344,344 0 0,1 379.87927996863181,706.58563693457927" />
    <path d="M 329.28210372663114,705.34354597523566 A 344,344 0 0,1 295.88892922645186,700.39013645871125" />
    <path d="M 263.14207102446505,692.18747549187992 A 344,344 0 0,1 215.92104785998305,673.97231683446455" />
    <path d="M 171.88383984125693,649.0255466320757 A 344,344 0 0,1 131.98371953262566,617.887187122106" />
    <path d="M 108.11281287789416,594.01628046737437 A 344,344 0 0,1 52.027683165535564,510.07895214001718" />
    <path d="M 39.108841577040835,478.89010956692368 A 344,344 0 0,1 33.812524508120134,462.85792897553506" />
    <path d="M 25.609863541288746,430.11107077354825 A 344,344 0 0,1 22.723280572115357,413.47528321264463" />
    <path d="M 19.414363065420673,379.87927996863181 A 344,344 0 0,1 19.414363065420673,346.12072003136831" />
    <path d="M 20.65645402476423,329.28210372663136 A 344,344 0 0,1 39.108841577040778,247.10989043307646" />
    <path d="M 45.185440816117364,231.35689926640904 A 344,344 0 0,1 76.974453367924355,171.88383984125696" />
    <path d="M 86.696609170658007,158.0794392546031 A 344,344 0 0,1 97.084404043218512,144.76871024770591" />
    <path d="M 131.98371953262557,108.11281287789416 A 344,344 0 0,1 231.3568992664089,45.185440816117421" />
    <path d="M 263.14207102446494,33.812524508120191 A 344,344 0 0,1 312.52471678735537,22.723280572115357" />
    <path d="M 380.66436275787049,3.4336357661379111 A 360,360 0 1,1 363,3" />
  </g>
  <g fill="none" stroke="#000000" stroke-width="2" stroke-linecap="butt">
    <line x1="363" y1="19" x2="363" y2="67" />
    <line x1="363" y1="83" x2="363" y2="99" />
    <line x1="363" y1="131" x2="363" y2="147" />
    <line x1="363" y1="163" x2="363" y2="195" />
    <line x1="363" y1="291" x2="363" y2="307" />
    <line x1="379.09419717939312" y1="35.395090364703435" x2="378.30911439015443" y2="51.3758176639862" />
    <line x1="396.71789627336886" y1="20.65645402476423" x2="395.14962202809591" y2="36.579409651519427" />
    <line x1="393.58134778282289" y1="52.502365278274567" x2="390.44479929227697" y2="84.348276531784848" />
    <line x1="381.03515382063915" y1="179.88601029231577" x2="379.46687957536619" y2="195.80896591907091" />
    <line x1="408.77990803007287" y1="54.376928890988324" x2="406.43222043878706" y2="70.203753050424837" />
    <line x1="404.08453284750129" y1="86.030577209861292" x2="401.73684525621547" y2="101.8574013692978" />
    <line x1="423.86818046903204" y1="56.99499251419212" x2="417.62529016451589" y2="88.3801214870955" />
    <line x1="414.50384501225784" y1="104.07268597354715" x2="408.26095470774175" y2="135.45781494645053" />
    <line x1="402.01806440322565" y1="166.8429439193539" x2="392.65372894645151" y2="213.920637378709" />
    <line x1="386.41083864193541" y1="245.30576635161236" x2="383.28939348967731" y2="260.998330838064" />
    <line x1="446.58518188672275" y1="29.3092489010769" x2="434.92213325136612" y2="75.870749054415" />
    <line x1="467.50248381160645" y1="18.501479136404839" x2="458.21337413946367" y2="49.123569879835486" />
    <line x1="453.56881930339227" y1="64.434615251550838" x2="448.92426446732088" y2="79.74566062326619" />
    <line x1="434.99059995910665" y1="125.67879673841222" x2="425.70149028696386" y2="156.30088748184289" />
    <line x1="478.89010956692368" y1="39.108841577040835" x2="468.10963425837264" y2="69.238251662897483" />
    <line x1="462.71939660409714" y1="84.302956705825864" x2="451.93892129554609" y2="114.43236679168251" />
    <line x1="500.76603565143233" y1="30.403368295936787" x2="494.64310073359093" y2="45.185440816117364" />
    <line x1="482.397230897908" y1="74.749585856478518" x2="476.27429598006654" y2="89.531658376659152" />
    <line x1="445.6596213908594" y1="163.44202097756207" x2="433.41375155517653" y2="193.00616601792325" />
    <line x1="427.29081663733507" y1="207.78823853810383" x2="415.0449468016522" y2="237.352383578465" />
    <line x1="402.79907696596933" y1="266.91652861882619" x2="396.67614204812787" y2="281.69860113900677" />
    <line x1="390.55320713028647" y1="296.48067365918735" x2="378.3073372946036" y2="326.0448186995485" />
    <line x1="503.23807064513255" y1="66.491511855510566" x2="475.8745446655945" y2="124.34682661541095" />
    <line x1="525.1604774681432" y1="59.619085064165859" x2="517.61812967892729" y2="73.729825293739566" />
    <line x1="487.44873852206337" y1="130.17278621203425" x2="479.9063907328474" y2="144.28352644160796" />
    <line x1="457.27934736519956" y1="186.615747130329" x2="442.19465178676762" y2="214.83722758947636" />
    <line x1="539.8513440024683" y1="67.941358159906372" x2="523.40005618828513" y2="95.388673679915087" />
    <line x1="527.44878897380227" y1="116.88499475844662" x2="509.67054151717497" y2="143.49202235212806" />
    <line x1="438.55755169066589" y1="249.92013272685387" x2="420.77930423403865" y2="276.5271603205353" />
    <line x1="411.89018050572497" y1="289.830674117376" x2="403.00105677741135" y2="303.13418791421674" />
    <line x1="577.451749617276" y1="73.8452886669678" x2="558.38937187351814" y2="99.547929674348438" />
    <line x1="560.93070465905737" y1="121.82073855082606" x2="540.63011956582068" y2="146.55707305843365" />
    <line x1="530.47982701920239" y1="158.92524031223744" x2="520.3295344725841" y2="171.29340756604123" />
    <line x1="459.42777919287414" y1="245.502411088864" x2="449.2774866462558" y2="257.87057834266778" />
    <line x1="604.76122374492661" y1="96.257594872214725" x2="594.01628046737437" y2="108.11281287789407" />
    <line x1="561.78145063471743" y1="143.67846689493211" x2="551.03650735716519" y2="155.53368490061146" />
    <line x1="606.24473272817227" y1="119.75526727182765" x2="594.93102422918753" y2="131.06897577081239" />
    <line x1="560.98989873223331" y1="165.01010126776669" x2="527.048773235279" y2="198.95122676472096" />
    <line x1="504.42135623730951" y1="221.57864376269049" x2="493.10764773832477" y2="232.89235226167526" />
    <line x1="481.79393923934" y1="244.20606076066002" x2="436.53910524340097" y2="289.46089475659903" />
    <line x1="413.91168824543144" y1="312.08831175456856" x2="402.59797974644664" y2="323.40202025355336" />
    <line x1="391.2842712474619" y1="334.7157287525381" x2="379.97056274847716" y2="346.02943725152284" />
    <line x1="617.887187122106" y1="131.98371953262569" x2="594.1767511107472" y2="153.47360608773028" />
    <line x1="582.32153310506783" y1="164.21854936528257" x2="570.46631509938857" y2="174.96349264283487" />
    <line x1="604.179261449174" y1="165.0692953409426" x2="591.81109419537017" y2="175.21958788756095" />
    <line x1="579.44292694156638" y1="185.36988043417927" x2="554.7065924339588" y2="205.67046552741593" />
    <line x1="529.97025792635122" y1="225.97105062065256" x2="517.60209067254743" y2="236.12134316727091" />
    <line x1="505.23392341874364" y1="246.27163571388923" x2="492.86575616493985" y2="256.42192826050757" />
    <line x1="652.15471133303208" y1="148.54825038272395" x2="639.30339082934188" y2="158.07943925460288" />
    <line x1="626.45207032565145" y1="167.61062812648183" x2="613.60074982196124" y2="177.14181699836075" />
    <line x1="600.74942931827081" y1="186.67300587023971" x2="587.89810881458061" y2="196.20419474211863" />
    <line x1="649.02554663207559" y1="171.88383984125682" x2="635.72203283523481" y2="180.77296356957044" />
    <line x1="622.41851903839415" y1="189.66208729788409" x2="609.11500524155338" y2="198.55121102619773" />
    <line x1="569.20446385103128" y1="225.21858221113862" x2="542.59743625734973" y2="242.99682966776589" />
    <line x1="515.99040866366829" y1="260.77507712439319" x2="502.68689486682763" y2="269.66420085270681" />
    <line x1="489.38338106998685" y1="278.55332458102043" x2="436.169325882624" y2="314.10981949427503" />
    <line x1="671.782299600098" y1="177.92301209044021" x2="658.05864184009363" y2="186.14865599753176" />
    <line x1="644.33498408008927" y1="194.37429990462329" x2="630.61132632008491" y2="202.59994381171484" />
    <line x1="638.15943447668678" y1="215.92421811028868" x2="567.60573332881836" y2="253.63595705636851" />
    <line x1="553.49499309924465" y1="261.17830484558448" x2="539.384252869671" y2="268.72065263480044" />
    <line x1="525.27351264009735" y1="276.26300042401641" x2="511.16277241052364" y2="283.80534821323238" />
    <line x1="497.05203218094994" y1="291.34769600244834" x2="482.94129195137629" y2="298.89004379166431" />
    <line x1="645.04465945451432" y1="229.60281084975196" x2="630.5808307645392" y2="236.44369234463647" />
    <line x1="695.59663170406316" y1="225.23396434856767" x2="651.25041414352154" y2="243.60276910209197" />
    <line x1="621.68626910316027" y1="255.84863893777487" x2="606.90419658297969" y2="261.97157385561627" />
    <line x1="577.34005154261854" y1="274.21744369129914" x2="562.557979022438" y2="280.3403786091406" />
    <line x1="547.77590650225738" y1="286.463313526982" x2="532.99383398207669" y2="292.58624844482347" />
    <line x1="518.21176146189623" y1="298.70918336266493" x2="473.86554390135439" y2="317.0779881161892" />
    <line x1="429.51932634081265" y1="335.44679286971353" x2="399.9551813004515" y2="347.6926627053964" />
    <line x1="686.89115842295917" y1="247.10989043307632" x2="641.69704329417414" y2="263.28060339590286" />
    <line x1="626.63233825124576" y1="268.67084105017841" x2="611.56763320831749" y2="274.06107870445391" />
    <line x1="646.25433937673392" y1="277.07573553267912" x2="600.32120326158781" y2="291.00940004089335" />
    <line x1="569.69911251815711" y1="300.29850971303614" x2="554.38806714644181" y2="304.94306454910753" />
    <line x1="508.45493103129576" y1="318.87672905732171" x2="493.14388565958041" y2="323.5212838933931" />
    <line x1="712.21125115003588" y1="275.527135234825" x2="681.17025104781044" y2="283.3025009917294" />
    <line x1="650.129250945585" y1="291.07786674863388" x2="634.60875089447234" y2="294.96554962708609" />
    <line x1="669.00500748580794" y1="302.13181953096796" x2="653.31244299935622" y2="305.253264683226" />
    <line x1="637.61987851290451" y1="308.37470983548405" x2="621.9273140264529" y2="311.4961549877421" />
    <line x1="606.23474954000108" y1="314.61760014000015" x2="590.54218505354947" y2="317.7390452922582" />
    <line x1="496.38679813483935" y1="336.46771620580654" x2="480.69423364838764" y2="339.58916135806459" />
    <line x1="465.001669161936" y1="342.71060651032263" x2="449.30910467548426" y2="345.83205166258068" />
    <line x1="687.44989526844824" y1="314.87240437864136" x2="671.62307110901168" y2="317.22009196992713" />
    <line x1="639.96942279013865" y1="321.91546715249871" x2="624.1425986307022" y2="324.26315474378453" />
    <line x1="673.49763472172549" y1="332.41865221717705" x2="657.57467909497018" y2="333.98692646245" />
    <line x1="562.03694533443934" y1="343.39657193408783" x2="530.19103408092906" y2="346.53312042463381" />
    <line x1="514.268078454174" y1="348.10139466990677" x2="498.34512282741878" y2="349.66966891517973" />
    <line x1="706.58563693457927" y1="346.12072003136814" x2="690.60490963529651" y2="346.90580282060688" />
    <line x1="658.643455036731" y1="348.47596839908425" x2="642.66272773744822" y2="349.26105118832294" />
    <line x1="723" y1="363" x2="707" y2="363" />
    <line x1="659" y1="363" x2="627" y2="363" />
    <line x1="611" y1="363" x2="579" y2="363" />
    <line x1="531" y1="363" x2="467" y2="363" />
    <line x1="435" y1="363" x2="419" y2="363" />
    <line x1="690.60490963529651" y1="379.09419717939312" x2="674.62418233601375" y2="378.30911439015443" />
    <line x1="705.34354597523577" y1="396.71789627336886" x2="657.57467909497029" y2="392.01307353754993" />
    <line x1="641.6517234682151" y1="390.44479929227697" x2="609.80581221470482" y2="387.30825080173105" />
    <line x1="577.95990096119453" y1="384.17170231118507" x2="562.03694533443945" y2="382.60342806591211" />
    <line x1="703.2767194278847" y1="413.4752832126444" x2="655.79624694957511" y2="406.43222043878706" />
    <line x1="639.96942279013865" y1="404.08453284750124" x2="624.1425986307022" y2="401.73684525621547" />
    <line x1="684.69757197225954" y1="426.98962562129003" x2="669.00500748580794" y2="423.868180469032" />
    <line x1="559.157056080646" y1="402.01806440322565" x2="543.46449159419444" y2="398.8966192509676" />
    <line x1="496.38679813483935" y1="389.5322837941934" x2="449.30910467548426" y2="380.16794833741926" />
    <line x1="696.6907510989231" y1="446.58518188672275" x2="681.17025104781044" y2="442.69749900827054" />
    <line x1="634.60875089447234" y1="431.03445037291385" x2="619.08825084335967" y2="427.14676749446164" />
    <line x1="707.49852086359522" y1="467.5024838116064" x2="615.63224863330311" y2="439.635154795178" />
    <line x1="554.38806714644181" y1="421.05693545089241" x2="523.76597640301111" y2="411.76782577874962" />
    <line x1="508.45493103129576" y1="407.12327094267823" x2="493.14388565958041" y2="402.47871610660684" />
    <line x1="686.89115842295917" y1="478.89010956692368" x2="656.76174833710252" y2="468.10963425837264" />
    <line x1="626.63233825124576" y1="457.32915894982159" x2="611.56763320831749" y2="451.93892129554604" />
    <line x1="695.59663170406316" y1="500.76603565143228" x2="621.68626910316027" y2="470.15136106222513" />
    <line x1="606.90419658297969" y1="464.02842614438367" x2="592.12212406279912" y2="457.90549122654227" />
    <line x1="518.21176146189623" y1="427.29081663733507" x2="503.4296889417156" y2="421.16788171949361" />
    <line x1="444.30139886099323" y1="396.67614204812787" x2="399.9551813004515" y2="378.3073372946036" />
    <line x1="659.50848814448943" y1="503.23807064513244" x2="645.04465945451443" y2="496.397189150248" />
    <line x1="616.1170020745642" y1="482.71542616047896" x2="601.65317338458908" y2="475.87454466559439" />
    <line x1="680.49165516540779" y1="532.70282525735911" x2="652.27017470626038" y2="517.61812967892729" />
    <line x1="638.15943447668678" y1="510.07578188971127" x2="595.82721378796577" y2="487.44873852206342" />
    <line x1="581.71647355839207" y1="479.9063907328474" x2="553.49499309924465" y2="464.82169515441552" />
    <line x1="539.384252869671" y1="457.27934736519956" x2="511.16277241052364" y2="442.19465178676762" />
    <line x1="644.33498408008927" y1="531.62570009537671" x2="630.61132632008491" y2="523.40005618828513" />
    <line x1="603.1640108000762" y1="506.94876837410209" x2="589.44035304007184" y2="498.72312446701051" />
    <line x1="662.32906042891636" y1="563.00528388705675" x2="649.0255466320757" y2="554.116160158743" />
    <line x1="635.72203283523493" y1="545.22703643042951" x2="622.41851903839415" y2="536.33791270211577" />
    <line x1="582.50797764787194" y1="509.67054151717491" x2="555.90095005419062" y2="491.89229406054767" />
    <line x1="542.59743625734984" y1="483.00317033223405" x2="529.29392246050907" y2="474.11404660392037" />
    <line x1="476.07986727314619" y1="438.55755169066583" x2="462.77635347630547" y2="429.66842796235221" />
    <line x1="639.30339082934188" y1="567.9205607453971" x2="626.45207032565156" y2="558.38937187351814" />
    <line x1="613.60074982196124" y1="548.85818300163919" x2="600.74942931827093" y2="539.32699412976024" />
    <line x1="587.89810881458061" y1="529.79580525788128" x2="575.04678831089029" y2="520.26461638600244" />
    <line x1="591.81109419537017" y1="550.78041211243908" x2="579.44292694156638" y2="540.63011956582068" />
    <line x1="542.338425180155" y1="510.1792419259657" x2="529.97025792635122" y2="500.02894937934741" />
    <line x1="505.23392341874364" y1="479.72836428611072" x2="492.86575616493985" y2="469.57807173949243" />
    <line x1="480.49758891113606" y1="459.42777919287408" x2="468.12942165733227" y2="449.27748664625574" />
    <line x1="617.88718712210584" y1="594.01628046737437" x2="558.61109709370919" y2="540.29156407961284" />
    <line x1="583.61731573020279" y1="583.61731573020279" x2="549.67619023324858" y2="549.67619023324846" />
    <line x1="538.36248173426384" y1="538.36248173426384" x2="527.048773235279" y2="527.048773235279" />
    <line x1="504.42135623730951" y1="504.42135623730951" x2="493.10764773832477" y2="493.10764773832477" />
    <line x1="481.79393923934" y1="481.79393923934" x2="470.48023074035524" y2="470.48023074035518" />
    <line x1="447.85281374238571" y1="447.85281374238571" x2="436.53910524340097" y2="436.53910524340097" />
    <line x1="425.22539674441617" y1="425.22539674441617" x2="413.91168824543144" y2="413.91168824543144" />
    <line x1="402.59797974644664" y1="402.59797974644664" x2="379.97056274847716" y2="379.97056274847716" />
    <line x1="604.76122374492661" y1="629.74240512778522" x2="594.01628046737437" y2="617.88718712210584" />
    <line x1="583.27133718982213" y1="606.03196911642658" x2="572.52639391226978" y2="594.1767511107472" />
    <line x1="530.47982701920239" y1="567.07475968776259" x2="489.87865683272912" y2="517.60209067254743" />
    <line x1="479.72836428611078" y1="505.23392341874364" x2="449.2774866462558" y2="468.12942165733222" />
    <line x1="577.451749617276" y1="652.15471133303208" x2="539.32699412976035" y2="600.74942931827081" />
    <line x1="529.7958052578814" y1="587.89810881458061" x2="520.26461638600244" y2="575.04678831089018" />
    <line x1="554.11616015874313" y1="649.02554663207559" x2="536.33791270211589" y2="622.41851903839415" />
    <line x1="491.89229406054767" y1="555.9009500541905" x2="483.00317033223405" y2="542.59743625734973" />
    <line x1="465.22492287560681" y1="515.9904086636684" x2="456.33579914729319" y2="502.68689486682763" />
    <line x1="447.44667541897957" y1="489.38338106998691" x2="438.55755169066589" y2="476.07986727314619" />
    <line x1="420.77930423403865" y1="449.4728396794647" x2="403.00105677741135" y2="422.86581208578326" />
    <line x1="539.8513440024683" y1="658.05864184009351" x2="531.62570009537671" y2="644.33498408008927" />
    <line x1="506.94876837410209" y1="603.1640108000762" x2="498.72312446701051" y2="589.44035304007184" />
    <line x1="517.61812967892729" y1="652.27017470626038" x2="479.90639073284746" y2="581.716473558392" />
    <line x1="457.27934736519956" y1="539.384252869671" x2="434.65230399755166" y2="497.05203218094994" />
    <line x1="482.71542616047896" y1="616.1170020745642" x2="475.87454466559444" y2="601.65317338458908" />
    <line x1="500.76603565143239" y1="695.59663170406316" x2="494.64310073359093" y2="680.81455918388269" />
    <line x1="488.52016581574946" y1="666.032486663702" x2="476.2742959800666" y2="636.46834162334085" />
    <line x1="470.15136106222519" y1="621.68626910316027" x2="464.02842614438373" y2="606.90419658297969" />
    <line x1="451.78255630870086" y1="577.34005154261854" x2="427.29081663733507" y2="518.21176146189623" />
    <line x1="408.9220118838108" y1="473.86554390135439" x2="402.79907696596933" y2="459.08347138117381" />
    <line x1="384.43027221244506" y1="414.73725382063208" x2="378.3073372946036" y2="399.9551813004515" />
    <line x1="478.8901095669238" y1="686.891158422959" x2="457.3291589498217" y2="626.63233825124576" />
    <line x1="462.85792897553506" y1="692.18747549187981" x2="458.21337413946367" y2="676.87643012016451" />
    <line x1="453.56881930339227" y1="661.56538474844911" x2="448.92426446732088" y2="646.25433937673381" />
    <line x1="444.27970963124949" y1="630.94329400501852" x2="434.9905999591067" y2="600.32120326158781" />
    <line x1="425.70149028696386" y1="569.69911251815711" x2="421.05693545089247" y2="554.3880671464417" />
    <line x1="416.41238061482107" y1="539.0770217747264" x2="407.12327094267829" y2="508.4549310312957" />
    <line x1="450.47286476517507" y1="712.21125115003588" x2="438.80981612981839" y2="665.64975099669778" />
    <line x1="434.92213325136618" y1="650.129250945585" x2="427.1467674944617" y2="619.08825084335967" />
    <line x1="420.74673531677405" y1="653.31244299935622" x2="417.625290164516" y2="637.61987851290451" />
    <line x1="411.38239985999991" y1="606.23474954000108" x2="405.13950955548376" y2="574.84962056709776" />
    <line x1="402.01806440322571" y1="559.157056080646" x2="398.89661925096766" y2="543.46449159419444" />
    <line x1="395.77517409870961" y1="527.77192710774273" x2="386.41083864193541" y2="480.69423364838764" />
    <line x1="408.77990803007287" y1="671.62307110901168" x2="406.43222043878711" y2="655.79624694957511" />
    <line x1="404.08453284750129" y1="639.96942279013865" x2="401.73684525621553" y2="624.1425986307022" />
    <line x1="396.71789627336892" y1="705.34354597523566" x2="393.581347782823" y2="673.49763472172549" />
    <line x1="392.01307353755" y1="657.57467909497018" x2="387.30825080173111" y2="609.80581221470482" />
    <line x1="382.60342806591217" y1="562.03694533443934" x2="381.03515382063921" y2="546.11398970768425" />
    <line x1="377.89860533009323" y1="514.268078454174" x2="376.33033108482027" y2="498.34512282741878" />
    <line x1="379.09419717939306" y1="690.60490963529651" x2="378.30911439015438" y2="674.62418233601375" />
    <line x1="377.52403160091569" y1="658.643455036731" x2="376.738948811677" y2="642.66272773744822" />
    <line x1="363.00000000000006" y1="723" x2="363.00000000000006" y2="707" />
    <line x1="363.00000000000006" y1="675" x2="363" y2="595" />
    <line x1="363" y1="547" x2="363" y2="515" />
    <line x1="363" y1="499" x2="363" y2="467" />
    <line x1="363" y1="451" x2="363" y2="419" />
    <line x1="363" y1="403" x2="363" y2="387" />
    <line x1="346.12072003136831" y1="706.58563693457927" x2="346.905802820607" y2="690.60490963529651" />
    <line x1="347.69088560984568" y1="674.62418233601375" x2="348.47596839908437" y2="658.643455036731" />
    <line x1="349.26105118832305" y1="642.66272773744822" x2="350.04613397756174" y2="626.68200043816546" />
    <line x1="327.71382948135818" y1="721.266501601991" x2="329.28210372663114" y2="705.34354597523577" />
    <line x1="333.98692646245007" y1="657.57467909497029" x2="335.55520070772303" y2="641.6517234682151" />
    <line x1="338.69174919826895" y1="609.80581221470482" x2="341.82829768881493" y2="577.95990096119453" />
    <line x1="344.96484617936085" y1="546.11398970768425" x2="348.10139466990677" y2="514.268078454174" />
    <line x1="295.88892922645186" y1="700.39013645871125" x2="305.253264683226" y2="653.31244299935622" />
    <line x1="308.37470983548405" y1="637.61987851290451" x2="314.61760014000015" y2="606.23474954000108" />
    <line x1="317.7390452922582" y1="590.54218505354947" x2="327.1033807490324" y2="543.46449159419444" />
    <line x1="275.52713523482504" y1="712.21125115003588" x2="279.41481811327725" y2="696.6907510989231" />
    <line x1="291.07786674863394" y1="650.129250945585" x2="294.96554962708615" y2="634.60875089447234" />
    <line x1="263.14207102446505" y1="692.18747549187992" x2="267.78662586053645" y2="676.87643012016451" />
    <line x1="272.43118069660784" y1="661.56538474844911" x2="277.07573553267923" y2="646.25433937673392" />
    <line x1="281.72029036875063" y1="630.94329400501852" x2="286.364845204822" y2="615.63224863330311" />
    <line x1="291.00940004089341" y1="600.32120326158781" x2="295.6539548769648" y2="585.01015788987252" />
    <line x1="300.2985097130362" y1="569.69911251815711" x2="304.94306454910759" y2="554.38806714644181" />
    <line x1="309.587619385179" y1="539.0770217747264" x2="318.87672905732177" y2="508.45493103129576" />
    <line x1="252.50012808735181" y1="671.8264533800309" x2="263.28060339590286" y2="641.69704329417414" />
    <line x1="225.23396434856772" y1="695.59663170406327" x2="231.35689926640916" y2="680.81455918388269" />
    <line x1="243.60276910209203" y1="651.25041414352154" x2="249.72570401993346" y2="636.46834162334085" />
    <line x1="261.97157385561633" y1="606.90419658297969" x2="268.09450877345773" y2="592.12212406279912" />
    <line x1="274.2174436912992" y1="577.34005154261854" x2="280.34037860914066" y2="562.557979022438" />
    <line x1="292.58624844482347" y1="532.99383398207681" x2="310.9550531983478" y2="488.647616421535" />
    <line x1="335.44679286971353" y1="429.51932634081265" x2="341.569727787555" y2="414.73725382063208" />
    <line x1="243.2845738395211" y1="616.1170020745642" x2="250.12545533440562" y2="601.65317338458908" />
    <line x1="193.29717474264086" y1="680.49165516540779" x2="215.92421811028873" y2="638.15943447668678" />
    <line x1="246.0936092671526" y1="581.71647355839207" x2="261.17830484558453" y2="553.49499309924465" />
    <line x1="276.26300042401647" y1="525.27351264009735" x2="283.80534821323238" y2="511.16277241052364" />
    <line x1="177.92301209044024" y1="671.782299600098" x2="186.14865599753179" y2="658.05864184009363" />
    <line x1="210.82558771880642" y1="616.88766856008056" x2="219.05123162589797" y2="603.1640108000762" />
    <line x1="189.6620872978842" y1="622.41851903839415" x2="198.55121102619782" y2="609.11500524155349" />
    <line x1="251.88595339607963" y1="529.29392246050907" x2="260.77507712439325" y2="515.9904086636684" />
    <line x1="287.44244830933417" y1="476.07986727314619" x2="305.22069576596141" y2="449.47283967946476" />
    <line x1="167.61062812648189" y1="626.45207032565156" x2="177.14181699836084" y2="613.60074982196124" />
    <line x1="134.61841770108771" y1="641.28376321058533" x2="144.76871024770603" y2="628.91559595678154" />
    <line x1="185.36988043417932" y1="579.44292694156638" x2="225.97105062065262" y2="529.97025792635122" />
    <line x1="266.57222080712592" y1="480.49758891113606" x2="276.72251335374426" y2="468.12942165733227" />
    <line x1="131.98371953262566" y1="617.887187122106" x2="142.72866281017795" y2="606.03196911642658" />
    <line x1="153.47360608773025" y1="594.1767511107472" x2="174.96349264283484" y2="570.46631509938857" />
    <line x1="108.44155877284291" y1="617.55844122715712" x2="142.38268426979718" y2="583.6173157302029" />
    <line x1="165.01010126776671" y1="560.98989873223331" x2="176.32380976675148" y2="549.67619023324858" />
    <line x1="221.57864376269052" y1="504.42135623730951" x2="244.20606076066002" y2="481.79393923934003" />
    <line x1="300.77460325558383" y1="425.22539674441617" x2="334.7157287525381" y2="391.2842712474619" />
    <line x1="143.67846689493217" y1="561.78145063471754" x2="155.53368490061152" y2="551.03650735716519" />
    <line x1="121.82073855082615" y1="560.93070465905748" x2="134.18890580462994" y2="550.78041211243919" />
    <line x1="158.92524031223752" y1="530.4798270192025" x2="183.6615748198451" y2="510.17924192596587" />
    <line x1="208.39790932745268" y1="489.87865683272918" x2="245.50241108886402" y2="459.4277791928742" />
    <line x1="125.25057068172907" y1="539.32699412976024" x2="138.10189118541939" y2="529.79580525788128" />
    <line x1="90.277967164765187" y1="545.22703643042951" x2="116.88499475844662" y2="527.44878897380227" />
    <line x1="183.40256374265022" y1="483.00317033223405" x2="223.3131051331724" y2="456.33579914729319" />
    <line x1="236.61661893001312" y1="447.44667541897957" x2="263.22364652369458" y2="429.66842796235227" />
    <line x1="289.830674117376" y1="411.89018050572497" x2="303.13418791421674" y2="403.00105677741135" />
    <line x1="81.665015919910786" y1="531.62570009537671" x2="109.11233143991947" y2="515.17441228119367" />
    <line x1="122.83598919992383" y1="506.94876837410209" x2="136.55964695992819" y2="498.72312446701051" />
    <line x1="59.619085064165915" y1="525.1604774681432" x2="101.95130575288692" y2="502.53343410049536" />
    <line x1="130.17278621203428" y1="487.44873852206342" x2="144.283526441608" y2="479.90639073284746" />
    <line x1="186.615747130329" y1="457.27934736519956" x2="200.72648735990271" y2="449.73699957598359" />
    <line x1="66.49151185551068" y1="503.23807064513267" x2="80.95534054548574" y2="496.3971891502481" />
    <line x1="95.419169235460856" y1="489.55630765536364" x2="124.346826615411" y2="475.87454466559456" />
    <line x1="30.403368295936843" y1="500.7660356514325" x2="45.185440816117421" y2="494.64310073359104" />
    <line x1="74.749585856478632" y1="482.39723089790817" x2="89.531658376659209" y2="476.27429598006677" />
    <line x1="207.78823853810386" y1="427.29081663733518" x2="237.35238357846504" y2="415.04494680165226" />
    <line x1="252.13445609864561" y1="408.92201188381085" x2="266.91652861882619" y2="402.79907696596939" />
    <line x1="296.48067365918735" y1="390.55320713028652" x2="311.26274617936792" y2="384.43027221244506" />
    <line x1="39.108841577040835" y1="478.89010956692368" x2="69.238251662897483" y2="468.10963425837264" />
    <line x1="33.812524508120191" y1="462.85792897553506" x2="49.123569879835486" y2="458.21337413946367" />
    <line x1="64.434615251550838" y1="453.56881930339227" x2="79.74566062326619" y2="448.92426446732088" />
    <line x1="125.67879673841222" y1="434.9905999591067" x2="140.98984211012754" y2="430.34604512303531" />
    <line x1="202.23402359698892" y1="411.76782577874968" x2="217.54506896870427" y2="407.12327094267829" />
    <line x1="13.788748849964179" y1="450.47286476517507" x2="44.829748952189561" y2="442.6974990082706" />
    <line x1="75.870749054415" y1="434.92213325136618" x2="91.391249105527663" y2="431.03445037291397" />
    <line x1="88.3801214870955" y1="417.625290164516" x2="104.07268597354721" y2="414.50384501225795" />
    <line x1="135.45781494645055" y1="408.26095470774186" x2="151.15037943290224" y2="405.13950955548381" />
    <line x1="229.61320186516068" y1="389.53228379419352" x2="245.30576635161236" y2="386.41083864193541" />
    <line x1="22.723280572115357" y1="413.47528321264463" x2="38.550104731551869" y2="411.12759562135886" />
    <line x1="70.203753050424837" y1="406.43222043878723" x2="101.85740136929786" y2="401.73684525621564" />
    <line x1="4.73349839800909" y1="398.28617051864177" x2="36.579409651519427" y2="395.14962202809585" />
    <line x1="84.348276531784848" y1="390.44479929227691" x2="116.19418778529516" y2="387.308250801731" />
    <line x1="132.11714341205033" y1="385.73997655645803" x2="179.88601029231577" y2="381.03515382063915" />
    <line x1="195.80896591907091" y1="379.46687957536614" x2="227.65487717258122" y2="376.33033108482022" />
    <line x1="51.3758176639862" y1="378.30911439015443" x2="67.356544963268959" y2="377.52403160091575" />
    <line x1="83.337272262551721" y1="376.73894881167706" x2="99.317999561834483" y2="375.95386602243838" />
    <line x1="19" y1="363.00000000000006" x2="51" y2="363.00000000000006" />
    <line x1="67" y1="363.00000000000006" x2="83" y2="363.00000000000006" />
    <line x1="99" y1="363.00000000000006" x2="163" y2="363.00000000000006" />
    <line x1="211" y1="363" x2="243" y2="363" />
    <line x1="259" y1="363" x2="291" y2="363" />
    <line x1="323" y1="363" x2="339" y2="363" />
    <line x1="83.337272262551721" y1="349.26105118832305" x2="99.317999561834483" y2="350.04613397756174" />
    <line x1="4.73349839800909" y1="327.71382948135835" x2="100.27123215853999" y2="337.12347495299616" />
    <line x1="148.04009903880547" y1="341.82829768881504" x2="163.96305466556061" y2="343.396571934088" />
    <line x1="179.88601029231577" y1="344.96484617936096" x2="211.73192154582605" y2="348.10139466990688" />
    <line x1="38.550104731551869" y1="314.87240437864131" x2="54.376928890988381" y2="317.22009196992707" />
    <line x1="70.203753050424837" y1="319.56777956121289" x2="86.030577209861349" y2="321.91546715249865" />
    <line x1="25.609863541288746" y1="295.88892922645186" x2="41.302428027740405" y2="299.01037437870991" />
    <line x1="56.99499251419212" y1="302.13181953096796" x2="72.687557000643778" y2="305.253264683226" />
    <line x1="88.3801214870955" y1="308.37470983548405" x2="135.45781494645053" y2="317.73904529225825" />
    <line x1="151.15037943290224" y1="320.8604904445163" x2="182.53550840580562" y2="327.1033807490324" />
    <line x1="198.22807289225727" y1="330.22482590129044" x2="245.30576635161236" y2="339.58916135806459" />
    <line x1="276.69089532451574" y1="345.83205166258074" x2="292.38345981096739" y2="348.95349681483879" />
    <line x1="44.829748952189561" y1="283.30250099172952" x2="60.350249003302281" y2="287.19018387018173" />
    <line x1="33.812524508120134" y1="263.14207102446505" x2="64.434615251550838" y2="272.43118069660784" />
    <line x1="79.745660623266133" y1="277.07573553267923" x2="95.056705994981485" y2="281.72029036875063" />
    <line x1="140.98984211012754" y1="295.6539548769648" x2="186.92297822527357" y2="309.587619385179" />
    <line x1="54.173546619969159" y1="252.50012808735198" x2="69.238251662897483" y2="257.89036574162748" />
    <line x1="99.367661748754131" y1="268.67084105017852" x2="114.43236679168248" y2="274.061078704454" />
    <line x1="30.403368295936787" y1="225.23396434856761" x2="45.185440816117421" y2="231.35689926640904" />
    <line x1="74.749585856478575" y1="243.60276910209191" x2="104.31373089683973" y2="255.84863893777481" />
    <line x1="133.87787593720091" y1="268.09450877345768" x2="148.65994845738149" y2="274.21744369129914" />
    <line x1="178.22409349774267" y1="286.463313526982" x2="222.57031105828443" y2="304.83211828050634" />
    <line x1="252.13445609864561" y1="317.0779881161892" x2="266.91652861882619" y2="323.20092303403067" />
    <line x1="311.26274617936792" y1="341.56972778755494" x2="326.04481869954856" y2="347.6926627053964" />
    <line x1="66.491511855510566" y1="222.76192935486745" x2="124.34682661541095" y2="250.1254553344055" />
    <line x1="59.619085064165859" y1="200.83952253185683" x2="87.840565523313217" y2="215.92421811028876" />
    <line x1="101.95130575288692" y1="223.4665658995047" x2="116.06204598246058" y2="231.00891368872067" />
    <line x1="158.39426667118164" y1="253.63595705636857" x2="186.615747130329" y2="268.7206526348005" />
    <line x1="200.72648735990268" y1="276.26300042401647" x2="243.05870804862371" y2="298.89004379166431" />
    <line x1="67.941358159906372" y1="186.14865599753179" x2="81.665015919910729" y2="194.37429990462334" />
    <line x1="109.11233143991942" y1="210.82558771880642" x2="122.83598919992377" y2="219.05123162589797" />
    <line x1="90.277967164765073" y1="180.77296356957061" x2="103.58148096160579" y2="189.66208729788423" />
    <line x1="183.40256374265019" y1="242.996829667766" x2="223.31310513317237" y2="269.66420085270687" />
    <line x1="249.92013272685381" y1="287.44244830933417" x2="263.22364652369453" y2="296.33157203764779" />
    <line x1="276.52716032053524" y1="305.22069576596141" x2="289.830674117376" y2="314.10981949427503" />
    <line x1="112.39925017803867" y1="177.14181699836092" x2="125.25057068172899" y2="186.67300587023985" />
    <line x1="97.084404043218512" y1="144.76871024770591" x2="146.55707305843367" y2="185.36988043417924" />
    <line x1="196.02974207364883" y1="225.97105062065256" x2="208.39790932745262" y2="236.12134316727088" />
    <line x1="220.76607658125641" y1="246.27163571388923" x2="245.502411088864" y2="266.57222080712586" />
    <line x1="96.257594872214725" y1="121.23877625507339" x2="108.11281287789407" y2="131.98371953262569" />
    <line x1="131.82324888925277" y1="153.47360608773028" x2="155.53368490061146" y2="174.96349264283487" />
    <line x1="108.44155877284283" y1="108.44155877284297" x2="131.06897577081236" y2="131.06897577081247" />
    <line x1="153.69639276878189" y1="153.69639276878198" x2="210.2649352637057" y2="210.26493526370578" />
    <line x1="255.51976925964476" y1="255.51976925964482" x2="278.14718625761429" y2="278.14718625761429" />
    <line x1="300.77460325558383" y1="300.77460325558383" x2="323.40202025355336" y2="323.40202025355336" />
    <line x1="174.96349264283478" y1="155.53368490061152" x2="185.70843592038708" y2="167.38890290629087" />
    <line x1="165.06929534094246" y1="121.82073855082615" x2="195.52017298079747" y2="158.92524031223752" />
    <line x1="205.67046552741581" y1="171.29340756604131" x2="215.82075807403413" y2="183.6615748198451" />
    <line x1="236.12134316727082" y1="208.39790932745268" x2="256.42192826050746" y2="233.13424383506023" />
    <line x1="266.5722208071258" y1="245.50241108886402" x2="276.72251335374415" y2="257.87057834266784" />
    <line x1="196.20419474211869" y1="138.10189118541939" x2="205.73538361399761" y2="150.95321168910971" />
    <line x1="171.88383984125684" y1="76.974453367924411" x2="189.66208729788411" y2="103.58148096160591" />
    <line x1="198.55121102619776" y1="116.88499475844662" x2="207.44033475451138" y2="130.18850855528734" />
    <line x1="242.99682966776592" y1="183.40256374265022" x2="251.88595339607957" y2="196.70607753949096" />
    <line x1="269.66420085270681" y1="223.3131051331724" x2="278.55332458102043" y2="236.61661893001312" />
    <line x1="287.44244830933411" y1="249.92013272685387" x2="305.22069576596135" y2="276.5271603205353" />
    <line x1="202.59994381171478" y1="95.388673679915144" x2="210.82558771880633" y2="109.11233143991947" />
    <line x1="200.83952253185672" y1="59.619085064165915" x2="208.38187032107268" y2="73.729825293739623" />
    <line x1="231.00891368872058" y1="116.06204598246066" x2="246.09360926715252" y2="144.283526441608" />
    <line x1="261.17830484558442" y1="172.50500690075535" x2="268.72065263480044" y2="186.61574713032903" />
    <line x1="283.80534821323238" y1="214.83722758947639" x2="291.34769600244829" y2="228.94796781905006" />
    <line x1="222.76192935486733" y1="66.49151185551068" x2="236.44369234463636" y2="95.419169235460856" />
    <line x1="243.28457383952087" y1="109.88299792543592" x2="250.12545533440542" y2="124.346826615411" />
    <line x1="231.3568992664089" y1="45.185440816117421" x2="243.6027691020918" y2="74.749585856478632" />
    <line x1="261.97157385561616" y1="119.09580341702036" x2="274.217443691299" y2="148.65994845738152" />
    <line x1="280.34037860914049" y1="163.44202097756212" x2="286.46331352698189" y2="178.2240934977427" />
    <line x1="292.58624844482335" y1="193.00616601792328" x2="298.70918336266482" y2="207.78823853810386" />
    <line x1="304.83211828050628" y1="222.57031105828446" x2="310.95505319834768" y2="237.35238357846504" />
    <line x1="323.20092303403061" y1="266.91652861882619" x2="329.323857951872" y2="281.69860113900677" />
    <line x1="341.56972778755494" y1="311.26274617936792" x2="347.6926627053964" y2="326.04481869954856" />
    <line x1="241.71965277880082" y1="24.044136534112511" x2="252.50012808735184" y2="54.173546619969159" />
    <line x1="263.28060339590286" y1="84.302956705825864" x2="274.06107870445391" y2="114.43236679168251" />
    <line x1="272.43118069660773" y1="64.434615251550838" x2="277.07573553267912" y2="79.74566062326619" />
    <line x1="281.72029036875051" y1="95.056705994981542" x2="286.3648452048219" y2="110.36775136669687" />
    <line x1="295.65395487696469" y1="140.98984211012754" x2="300.29850971303608" y2="156.30088748184289" />
    <line x1="304.94306454910748" y1="171.61193285355824" x2="309.58761938517887" y2="186.92297822527357" />
    <line x1="283.30250099172935" y1="44.829748952189561" x2="287.19018387018156" y2="60.350249003302281" />
    <line x1="291.07786674863382" y1="75.870749054415" x2="294.96554962708603" y2="91.391249105527663" />
    <line x1="308.37470983548394" y1="88.3801214870955" x2="320.86049044451619" y2="151.15037943290224" />
    <line x1="323.98193559677424" y1="166.84294391935393" x2="342.71060651032263" y2="260.998330838064" />
    <line x1="345.83205166258068" y1="276.69089532451574" x2="348.95349681483873" y2="292.38345981096745" />
    <line x1="312.52471678735532" y1="22.723280572115357" x2="317.22009196992695" y2="54.376928890988381" />
    <line x1="319.56777956121272" y1="70.203753050424837" x2="324.2631547437843" y2="101.85740136929786" />
    <line x1="327.71382948135823" y1="4.73349839800909" x2="329.28210372663119" y2="20.65645402476423" />
    <line x1="332.41865221717711" y1="52.502365278274567" x2="333.98692646245007" y2="68.425320905029707" />
    <line x1="337.12347495299605" y1="100.27123215853999" x2="343.39657193408789" y2="163.96305466556061" />
    <line x1="346.53312042463381" y1="195.80896591907091" x2="348.10139466990682" y2="211.73192154582605" />
    <line x1="346.12072003136819" y1="19.414363065420673" x2="346.90580282060688" y2="35.395090364703435" />
  </g>
  <path fill="none" stroke="#ff0000" stroke-width="2" stroke-linecap="square" stroke-linejoin="round" d="M 371.83484226824839,3.108425269366478 L 371.63851244006514,11.1060158189361 A 352,352 0 0,0 337.10527361291707,11.95375924910104 L 338.28230663051175,27.910406555960094 A 336,336 0 0,0 321.87001313306342,29.526876374833421 L 319.91144232987597,13.647203821254095 A 352,352 0 0,0 252.58402737959017,28.766080431251112 L 257.60293522597243,43.958531320739667 A 336,336 0 0,1 305.55680537653859,31.9467121573158 L 311.02758581686828,63.475596713761888 A 304,304 0 0,0 281.91932172763086,70.012075998186276 L 286.18672584722924,85.432493050913308 A 288,288 0 0,0 272.65965876511927,89.535883989205445 L 282.6974744578838,119.92078576818261 A 256,256 0 0,1 300.79707394476435,114.67199918219674 L 304.68475682321662,130.19249923330946 A 240,240 0 0,0 282.14643518586718,137.029424356075 L 287.53667284014273,152.09412939900335 A 224,224 0 0,0 229.56335579369497,183.08151294833553 L 239.09454466557389,195.93283345202585 A 208,208 0 0,0 208.88216592616851,223.31573739182019 L 197.02694792048916,212.5707941142679 A 224,224 0 0,0 183.08151294833547,229.56335579369505 L 234.48679496309677,267.68811128121075 A 160,160 0 0,0 225.76342239995645,280.74356092908454 L 198.31610687994774,264.29227311490149 A 192,192 0 0,0 189.43405572029889,280.90942206138584 L 232.82554179022418,301.43206654603938 A 144,144 0 0,0 223.31549953998567,328.01085409393 L 207.79499948887295,324.12317121547778 A 160,160 0 0,1 212.35294957071665,309.09762345724488 L 197.28824452778832,303.70738580296933 A 176,176 0 0,0 188.90493424619857,337.17543649585627 L 220.55858256507153,341.87081167842786 A 144,144 0 0,0 219.17345430645517,355.93425489685188 L 187.21199970788965,354.36408931837451 A 176,176 0 0,0 212.03976463995213,453.48208297800704 L 225.76342239995648,445.25643907091546 A 160,160 0 0,1 218.36171310024909,431.40881494884519 L 247.2893704801993,417.72705195907616 A 128,128 0 0,1 242.48235965657335,406.12190123420413 L 227.417654613645,411.51213888847968 A 144,144 0 0,1 220.55858256507156,384.1291883215722 L 236.38540672450804,381.78150073028638 A 128,128 0 0,1 235.61635498595879,375.54619396218374 L 251.53931061271396,373.97791971691078 A 112,112 0 0,0 255.82268239799259,395.51188385249981 L 271.13372776970795,390.86732901642841 A 96,96 0 0,0 278.33555862255793,408.2540867352958 L 306.55703908170528,393.16939115686387 A 64,64 0 0,0 309.78594481263713,398.55649491325454 L 323.08945860947784,389.66737118494092 A 48,48 0 0,1 315.92230654064497,372.3643354567742 L 331.61487102709663,369.2428903045161 A 32,32 0 0,0 350.75413016431713,392.56414504036115 L 353.81559762323786,385.17310878027087" />
  <type>Circular</type>
</svg>