<?xml version="1.0" encoding="utf-8" standalone="no"?>
<!DOCTYPE svg PUBLIC "-//W3C//DTD SVG 1.1//EN" "http://www.w3.org/Graphics/SVG/1.1/DTD/svg11.dtd"[]>
<svg width="221" height="331.35760263051782" version="1.1" xmlns="http://www.w3.org/2000/svg">
  <title>10 by 13 sigma maze</title>
  <g fill="none" stroke="#000000" stroke-width="2" stroke-linecap="round" stroke-linejoin="round">
    <polyline points="9,38.373066958946431 2,26.248711305964292 9,14.124355652982152 23,14.124355652982152 30,2.0000000000000107 44,2.0000000000000107 51,14.124355652982152 65,14.124355652982152 72,2.0000000000000107 86,2.0000000000000107 93,14.124355652982152 86,26.248711305964292" />
    <polyline points="114,26.248711305964292 107,14.124355652982152 114,2.0000000000000107 128,2.0000000000000107 135,14.124355652982152 149,14.124355652982152 156,2.0000000000000107 170,2.0000000000000107 177,14.124355652982152 170,26.248711305964292" />
    <polyline points="177,14.124355652982152 191,14.124355652982152 198,2.0000000000000107 212,2.0000000000000107 219,14.124355652982152 212,26.248711305964292" />
    <polyline points="9,62.621778264910709 2,50.49742261192857 9,38.373066958946431" />
    <polyline points="23,38.373066958946431 30,26.248711305964292 44,26.248711305964292 51,38.373066958946431 44,50.49742261192857" />
    <polyline points="51,38.373066958946431 65,38.373066958946431 72,50.49742261192857" />
    <line x1="65" y1="38.373066958946431" x2="72" y2="26.248711305964292" />
    <line x1="86" y1="26.248711305964292" x2="93" y2="38.373066958946431" />
    <line x1="107" y1="38.373066958946431" x2="114" y2="50.49742261192857" />
    <line x1="114" y1="26.248711305964292" x2="128" y2="26.248711305964292" />
    <polyline points="128,50.49742261192857 135,38.373066958946431 149,38.373066958946431 156,26.248711305964292 170,26.248711305964292 177,38.373066958946431" />
    <polyline points="191,38.373066958946431 198,26.248711305964292 212,26.248711305964292 219,38.373066958946431 212,50.49742261192857" />
    <polyline points="9,86.870489570875 2,74.746133917892848 9,62.621778264910709 23,62.621778264910709 30,74.746133917892848" />
    <line x1="23" y1="62.621778264910709" x2="30" y2="50.49742261192857" />
    <polyline points="44,50.49742261192857 51,62.621778264910709 44,74.746133917892848" />
    <polyline points="72,74.746133917892848 65,62.621778264910709 72,50.49742261192857 86,50.49742261192857" />
    <polyline points="86,74.746133917892848 93,62.621778264910709 107,62.621778264910709 114,74.746133917892848" />
    <polyline points="107,62.621778264910709 114,50.49742261192857 128,50.49742261192857 135,62.621778264910709 128,74.746133917892848" />
    <polyline points="135,62.621778264910709 149,62.621778264910709 156,74.746133917892848" />
    <polyline points="156,50.49742261192857 170,50.49742261192857 177,62.621778264910709 170,74.746133917892848" />
    <polyline points="177,62.621778264910709 191,62.621778264910709 198,50.49742261192857 212,50.49742261192857 219,62.621778264910709 212,74.746133917892848" />
    <polyline points="9,111.11920087683929 2,98.994845223857141 9,86.870489570875" />
    <line x1="23" y1="86.870489570875" x2="30" y2="98.994845223857141" />
    <polyline points="30,74.746133917892848 44,74.746133917892848 51,86.870489570875 44,98.994845223857141" />
    <polyline points="72,98.994845223857141 65,86.870489570875 72,74.746133917892848" />
    <line x1="86" y1="98.994845223857141" x2="93" y2="86.870489570875" />
    <polyline points="114,98.994845223857141 107,86.870489570875 114,74.746133917892848" />
    <polyline points="135,86.870489570875 149,86.870489570875 156,98.994845223857141" />
    <polyline points="170,74.746133917892848 177,86.870489570875 170,98.994845223857141" />
    <polyline points="177,86.870489570875 191,86.870489570875 198,98.994845223857141" />
    <polyline points="198,74.746133917892848 212,74.746133917892848 219,86.870489570875 212,98.994845223857141" />
    <polyline points="9,135.36791218280357 2,123.24355652982142 9,111.11920087683927" />
    <polyline points="30,123.24355652982142 23,111.11920087683927 30,98.994845223857126" />
    <polyline points="44,98.994845223857126 51,111.11920087683927 65,111.11920087683927 72,123.24355652982142" />
    <line x1="72" y1="98.994845223857126" x2="86" y2="98.994845223857126" />
    <line x1="86" y1="123.24355652982142" x2="93" y2="111.11920087683927" />
    <line x1="107" y1="111.11920087683927" x2="114" y2="123.24355652982142" />
    <polyline points="114,98.994845223857126 128,98.994845223857126 135,111.11920087683927 149,111.11920087683927 156,123.24355652982142" />
    <polyline points="156,98.994845223857126 170,98.994845223857126 177,111.11920087683927 170,123.24355652982142" />
    <line x1="177" y1="111.11920087683927" x2="191" y2="111.11920087683927" />
    <polyline points="212,98.994845223857126 219,111.11920087683927 212,123.24355652982142" />
    <polyline points="9,159.61662348876783 2,147.4922678357857 9,135.36791218280357" />
    <polyline points="30,147.4922678357857 23,135.36791218280357 30,123.24355652982142 44,123.24355652982142 51,135.36791218280357" />
    <polyline points="72,147.4922678357857 65,135.36791218280357 72,123.24355652982142 86,123.24355652982142" />
    <polyline points="93,135.36791218280357 107,135.36791218280357 114,123.24355652982142 128,123.24355652982142 135,135.36791218280357 128,147.4922678357857" />
    <polyline points="156,147.4922678357857 149,135.36791218280357 156,123.24355652982142" />
    <polyline points="170,123.24355652982142 177,135.36791218280357 170,147.4922678357857" />
    <polyline points="198,147.4922678357857 191,135.36791218280357 198,123.24355652982142 212,123.24355652982142 219,135.36791218280357 212,147.4922678357857" />
    <polyline points="9,183.86533479473212 2,171.74097914175 9,159.61662348876786" />
    <line x1="23" y1="159.61662348876786" x2="30" y2="171.74097914175" />
    <polyline points="30,147.49226783578573 44,147.49226783578573 51,159.61662348876786 44,171.74097914175" />
    <line x1="65" y1="159.61662348876786" x2="72" y2="171.74097914175" />
    <line x1="72" y1="147.49226783578573" x2="86" y2="147.49226783578573" />
    <polyline points="86,171.74097914175 93,159.61662348876786 107,159.61662348876786 114,147.49226783578573 128,147.49226783578573 135,159.61662348876786 128,171.74097914175" />
    <polyline points="135,159.61662348876786 149,159.61662348876786 156,171.74097914175" />
    <line x1="170" y1="171.74097914175" x2="177" y2="159.61662348876786" />
    <line x1="191" y1="159.61662348876786" x2="198" y2="147.49226783578573" />
    <polyline points="212,147.49226783578573 219,159.61662348876786 212,171.74097914175" />
    <polyline points="9,208.11404610069639 2,195.98969044771425 9,183.86533479473212" />
    <line x1="23" y1="183.86533479473212" x2="30" y2="195.98969044771425" />
    <polyline points="30,171.74097914175 44,171.74097914175 51,183.86533479473212 44,195.98969044771425" />
    <polyline points="72,195.98969044771425 65,183.86533479473212 72,171.74097914175 86,171.74097914175 93,183.86533479473212 86,195.98969044771425" />
    <polyline points="114,195.98969044771425 107,183.86533479473212 114,171.74097914175" />
    <line x1="128" y1="195.98969044771425" x2="135" y2="183.86533479473212" />
    <line x1="149" y1="183.86533479473212" x2="156" y2="195.98969044771425" />
    <polyline points="156,171.74097914175 170,171.74097914175 177,183.86533479473212 191,183.86533479473212 198,195.98969044771425" />
    <line x1="191" y1="183.86533479473212" x2="198" y2="171.74097914175" />
    <polyline points="212,171.74097914175 219,183.86533479473212 212,195.98969044771425" />
    <polyline points="9,232.36275740666068 2,220.23840175367855 9,208.11404610069641 23,208.11404610069641 30,220.23840175367855" />
    <polyline points="30,195.98969044771428 44,195.98969044771428 51,208.11404610069641 44,220.23840175367855" />
    <polyline points="51,208.11404610069641 65,208.11404610069641 72,195.98969044771428" />
    <polyline points="86,220.23840175367855 93,208.11404610069641 107,208.11404610069641 114,220.23840175367855" />
    <polyline points="114,195.98969044771428 128,195.98969044771428 135,208.11404610069641 128,220.23840175367855" />
    <polyline points="149,208.11404610069641 156,195.98969044771428 170,195.98969044771428 177,208.11404610069641 170,220.23840175367855" />
    <polyline points="191,208.11404610069641 198,195.98969044771428 212,195.98969044771428 219,208.11404610069641 212,220.23840175367855" />
    <polyline points="9,256.61146871262497 2,244.48711305964284 9,232.36275740666071" />
    <line x1="23" y1="232.36275740666071" x2="30" y2="244.48711305964284" />
    <polyline points="44,220.23840175367857 51,232.36275740666071 44,244.48711305964284" />
    <polyline points="65,232.36275740666071 72,220.23840175367857 86,220.23840175367857" />
    <polyline points="93,232.36275740666071 107,232.36275740666071 114,244.48711305964284" />
    <polyline points="107,232.36275740666071 114,220.23840175367857 128,220.23840175367857 135,232.36275740666071 128,244.48711305964284" />
    <polyline points="135,232.36275740666071 149,232.36275740666071 156,220.23840175367857 170,220.23840175367857 177,232.36275740666071 170,244.48711305964284" />
    <polyline points="177,232.36275740666071 191,232.36275740666071 198,220.23840175367857" />
    <polyline points="212,220.23840175367857 219,232.36275740666071 212,244.48711305964284" />
    <polyline points="9,280.86018001858923 2,268.73582436560707 9,256.61146871262491" />
    <polyline points="30,268.73582436560707 23,256.61146871262491 30,244.48711305964278" />
    <polyline points="44,244.48711305964278 51,256.61146871262491 65,256.61146871262491 72,244.48711305964278 86,244.48711305964278" />
    <polyline points="93,256.61146871262491 107,256.61146871262491 114,244.48711305964278" />
    <polyline points="128,244.48711305964278 135,256.61146871262491 128,268.73582436560707" />
    <polyline points="156,268.73582436560707 149,256.61146871262491 156,244.48711305964278" />
    <polyline points="177,256.61146871262491 191,256.61146871262491 198,268.73582436560707" />
    <line x1="191" y1="256.61146871262491" x2="198" y2="244.48711305964278" />
    <polyline points="212,244.48711305964278 219,256.61146871262491 212,268.73582436560707" />
    <polyline points="9,305.10889132455355 2,292.98453567157139 9,280.86018001858923" />
    <polyline points="30,292.98453567157139 23,280.86018001858923 30,268.73582436560707" />
    <polyline points="44,268.73582436560707 51,280.86018001858923 44,292.98453567157139" />
    <polyline points="65,280.86018001858923 72,268.73582436560707 86,268.73582436560707 93,280.86018001858923 86,292.98453567157139" />
    <polyline points="114,292.98453567157139 107,280.86018001858923 114,268.73582436560707 128,268.73582436560707" />
    <polyline points="128,292.98453567157139 135,280.86018001858923 149,280.86018001858923 156,268.73582436560707 170,268.73582436560707" />
    <polyline points="170,292.98453567157139 177,280.86018001858923 191,280.86018001858923 198,268.73582436560707" />
    <polyline points="212,268.73582436560707 219,280.86018001858923 212,292.98453567157139" />
    <polyline points="9,329.35760263051787 2,317.23324697753571 9,305.10889132455355" />
    <polyline points="30,317.23324697753571 23,305.10889132455355 30,292.98453567157139" />
    <polyline points="44,292.98453567157139 51,305.10889132455355 65,305.10889132455355 72,317.23324697753571" />
    <polyline points="65,305.10889132455355 72,292.98453567157139 86,292.98453567157139" />
    <polyline points="93,305.10889132455355 107,305.10889132455355 114,292.98453567157139 128,292.98453567157139 135,305.10889132455355 128,317.23324697753571" />
    <polyline points="135,305.10889132455355 149,305.10889132455355 156,292.98453567157139 170,292.98453567157139" />
    <polyline points="177,305.10889132455355 191,305.10889132455355 198,292.98453567157139 212,292.98453567157139 219,305.10889132455355 212,317.23324697753571" />
    <polyline points="30,317.23324697753571 23,329.35760263051787 9,329.35760263051787" />
    <line x1="44" y1="317.23324697753571" x2="30" y2="317.23324697753571" />
    <polyline points="72,317.23324697753571 65,329.35760263051787 51,329.35760263051787 44,317.23324697753571" />
    <line x1="86" y1="317.23324697753571" x2="72" y2="317.23324697753571" />
    <polyline points="114,317.23324697753571 107,329.35760263051787 93,329.35760263051787 86,317.23324697753571" />
    <polyline points="156,317.23324697753571 149,329.35760263051787 135,329.35760263051787 128,317.23324697753571" />
    <line x1="170" y1="317.23324697753571" x2="156" y2="317.23324697753571" />
    <polyline points="198,317.23324697753571 191,329.35760263051787 177,329.35760263051787 170,317.23324697753571" />
    <line x1="212" y1="317.23324697753571" x2="198" y2="317.23324697753571" />
  </g>
  <polyline fill="none" stroke="#ff0000" stroke-width="2" stroke-linecap="square" stroke-linejoin="round" points="100,14.124355652982152 100,50.49742261192857 79,62.621778264910709 79,86.870489570875 100,74.746133917892848 100,123.24355652982142 79,135.36791218280357 100,147.4922678357857 79,159.61662348876786 58,147.4922678357857 58,123.24355652982142 37,111.11920087683927 37,86.870489570875 16,74.746133917892848 16,195.98969044771425 37,208.11404610069641 37,256.61146871262491 58,268.73582436560707 79,256.61146871262491 100,268.73582436560707 100,292.98453567157139 79,305.10889132455355 100,317.23324697753571 121,305.10889132455355 121,317.23324697753571" />
  <type>Rectangular</type>
</svg>