<?xml version="1.0" encoding="utf-8" standalone="no"?>
<!DOCTYPE svg PUBLIC "-//W3C//DTD SVG 1.1//EN" "http://www.w3.org/Graphics/SVG/1.1/DTD/svg11.dtd"[]>
<svg width="276" height="276" version="1.1" xmlns="http://www.w3.org/2000/svg">
  <title>17 cells diameter theta maze</title>
  <g fill="none" stroke="#000000" stroke-width="2" stroke-linecap="square">
    <path d="M 122.02943725152286,155.97056274847714 A 24,24 0 1,1 139,163" />
    <path d="M 102.04481869954853,123.6926627053964 A 40,40 0 0,1 154.3073372946036,102.04481869954853" />
    <path d="M 167.2842712474619,110.7157287525381 A 40,40 0 0,1 179,139" />
    <path d="M 175.95518130045147,154.3073372946036 A 40,40 0 0,1 167.2842712474619,167.2842712474619" />
    <path d="M 154.3073372946036,175.95518130045147 A 40,40 0 0,1 123.69266270539642,175.95518130045147" />
    <path d="M 110.7157287525381,167.2842712474619 A 40,40 0 0,1 99,139" />
    <path d="M 139,83 A 56,56 0 0,1 190.73725382063205,117.56972778755497" />
    <path d="M 195,139 A 56,56 0 0,1 190.73725382063208,160.43027221244503" />
    <path d="M 178.59797974644667,178.59797974644664 A 56,56 0 0,1 160.43027221244503,190.73725382063205" />
    <path d="M 87.262746179367952,160.43027221244506 A 56,56 0 0,1 83,139" />
    <path d="M 87.262746179367952,117.56972778755497 A 56,56 0 0,1 99.402020253553331,99.402020253553346" />
    <path d="M 124.95349681483873,68.383459810967409 A 72,72 0 0,1 166.55320713028647,72.48067365918736" />
    <path d="M 205.51932634081265,111.44679286971353 A 72,72 0 0,1 209.61654018903261,153.04650318516124" />
    <path d="M 198.86581208578326,179.00105677741135 A 72,72 0 0,1 179.00105677741135,198.86581208578326" />
    <path d="M 139,211 A 72,72 0 0,1 124.95349681483876,209.61654018903261" />
    <path d="M 111.44679286971355,205.51932634081265 A 72,72 0 0,1 98.998943222588665,198.86581208578326" />
    <path d="M 88.0883117545686,189.91168824543144 A 72,72 0 0,1 68.383459810967409,153.04650318516127" />
    <path d="M 67,139 A 72,72 0 0,1 68.383459810967409,124.95349681483876" />
    <path d="M 79.134187914216724,98.998943222588665 A 72,72 0 0,1 111.44679286971349,72.480673659187374" />
    <path d="M 90.109819494275,65.83067411737602 A 88,88 0 0,1 139,51" />
    <path d="M 172.6761420481279,57.698601139006769 A 88,88 0 0,1 187.890180505725,65.83067411737602" />
    <path d="M 220.30139886099323,105.3238579518721 A 88,88 0 0,1 225.30910467548426,121.83205166258071" />
    <path d="M 225.30910467548426,156.16794833741929 A 88,88 0 0,1 201.22539674441617,201.22539674441617" />
    <path d="M 172.6761420481279,220.30139886099323 A 88,88 0 0,1 156.16794833741932,225.30910467548426" />
    <path d="M 121.83205166258071,225.30910467548426 A 88,88 0 0,1 105.32385795187211,220.30139886099323" />
    <path d="M 90.10981949427503,212.16932588262398 A 88,88 0 0,1 65.83067411737602,187.890180505725" />
    <path d="M 52.690895324515722,121.83205166258071 A 88,88 0 0,1 65.830674117375992,90.10981949427503" />
    <path d="M 159.28939348967734,36.998330838064035 A 104,104 0 0,1 196.77930423403862,52.527160320535287" />
    <path d="M 225.4728396794647,81.220695765961366 A 104,104 0 0,1 241.00166916193598,118.71060651032266" />
    <path d="M 241.00166916193598,159.28939348967734 A 104,104 0 0,1 235.08347138117381,178.79907696596933" />
    <path d="M 225.47283967946473,196.77930423403859 A 104,104 0 0,1 178.79907696596933,235.08347138117381" />
    <path d="M 139,243 A 104,104 0 0,1 99.20092303403068,235.08347138117381" />
    <path d="M 81.220695765961409,225.47283967946473 A 104,104 0 0,1 65.460894756599075,212.53910524340097" />
    <path d="M 42.916528618826206,178.79907696596939 A 104,104 0 0,1 36.998330838064035,159.28939348967737" />
    <path d="M 35,139.00000000000003 A 104,104 0 0,1 42.916528618826192,99.200923034030637" />
    <path d="M 52.527160320535273,81.220695765961409 A 104,104 0 0,1 99.200923034030609,42.916528618826206" />
    <path d="M 205.66842796235227,39.223646523694569 A 120,120 0 0,1 238.77635347630542,72.331572037647732" />
    <path d="M 249.86554390135441,93.077988116189232 A 120,120 0 0,1 256.69423364838764,115.5891613580646" />
    <path d="M 256.69423364838764,162.41083864193539 A 120,120 0 0,1 249.86554390135441,184.92201188381077" />
    <path d="M 238.77635347630545,205.66842796235224 A 120,120 0 0,1 223.85281374238571,223.85281374238571" />
    <path d="M 205.66842796235227,238.77635347630542 A 120,120 0 0,1 162.41083864193544,256.69423364838764" />
    <path d="M 72.331572037647774,238.77635347630547 A 120,120 0 0,1 21.305766351612348,115.5891613580646" />
    <path d="M 28.1344560986456,93.0779881161892 A 120,120 0 0,1 39.223646523694541,72.331572037647774" />
    <path d="M 72.331572037647732,39.223646523694569 A 120,120 0 0,1 93.077988116189147,28.134456098645614" />
    <path d="M 152.33033108482024,3.654877172581223 A 136,136 0 1,1 139,3" />
  </g>
  <g fill="none" stroke="#000000" stroke-width="2" stroke-linecap="butt">
    <line x1="139" y1="19" x2="139" y2="51" />
    <line x1="165.53228379419343" y1="5.6132018651606472" x2="162.41083864193539" y2="21.305766351612348" />
    <line x1="159.28939348967734" y1="36.998330838064035" x2="156.16794833741929" y2="52.690895324515722" />
    <line x1="184.92201188381077" y1="28.134456098645586" x2="166.55320713028647" y2="72.48067365918736" />
    <line x1="205.66842796235227" y1="39.223646523694569" x2="196.77930423403862" y2="52.5271603205353" />
    <line x1="187.890180505725" y1="65.83067411737602" x2="179.00105677741135" y2="79.134187914216739" />
    <line x1="223.85281374238571" y1="54.147186257614294" x2="201.22539674441617" y2="76.774603255583813" />
    <line x1="189.91168824543144" y1="88.088311754568565" x2="155.97056274847714" y2="122.02943725152286" />
    <line x1="238.77635347630542" y1="72.331572037647732" x2="198.86581208578326" y2="98.998943222588636" />
    <line x1="272.38679813483935" y1="112.46771620580654" x2="256.69423364838764" y2="115.5891613580646" />
    <line x1="241.00166916193598" y1="118.71060651032265" x2="225.30910467548426" y2="121.83205166258071" />
    <line x1="275" y1="139" x2="211" y2="139" />
    <line x1="256.69423364838764" y1="162.41083864193539" x2="241.00166916193598" y2="159.28939348967734" />
    <line x1="264.64761642153496" y1="191.0449468016522" x2="249.86554390135441" y2="184.92201188381077" />
    <line x1="220.30139886099323" y1="172.6761420481279" x2="190.73725382063205" y2="160.43027221244503" />
    <line x1="252.07986727314619" y1="214.55755169066586" x2="225.47283967946473" y2="196.77930423403859" />
    <line x1="212.53910524340097" y1="212.53910524340094" x2="201.22539674441617" y2="201.22539674441617" />
    <line x1="167.2842712474619" y1="167.2842712474619" x2="155.97056274847714" y2="155.97056274847714" />
    <line x1="214.55755169066589" y1="252.07986727314616" x2="205.66842796235227" y2="238.77635347630545" />
    <line x1="196.77930423403862" y1="225.4728396794647" x2="179.00105677741135" y2="198.86581208578326" />
    <line x1="172.6761420481279" y1="220.30139886099323" x2="166.55320713028647" y2="205.51932634081265" />
    <line x1="160.43027221244503" y1="190.73725382063205" x2="154.3073372946036" y2="175.95518130045147" />
    <line x1="162.41083864193544" y1="256.69423364838764" x2="153.04650318516127" y2="209.61654018903261" />
    <line x1="139.00000000000003" y1="259" x2="139" y2="195" />
    <line x1="139" y1="179" x2="139" y2="163" />
    <line x1="112.46771620580654" y1="272.38679813483935" x2="118.71060651032265" y2="241.00166916193598" />
    <line x1="93.077988116189232" y1="249.86554390135444" x2="99.200923034030666" y2="235.08347138117384" />
    <line x1="105.3238579518721" y1="220.30139886099323" x2="111.44679286971355" y2="205.51932634081265" />
    <line x1="117.56972778755498" y1="190.73725382063208" x2="123.69266270539642" y2="175.95518130045147" />
    <line x1="90.10981949427503" y1="212.16932588262398" x2="98.99894322258865" y2="198.86581208578326" />
    <line x1="65.46089475659906" y1="212.53910524340097" x2="76.774603255583827" y2="201.2253967444162" />
    <line x1="99.402020253553346" y1="178.59797974644667" x2="122.02943725152286" y2="155.97056274847714" />
    <line x1="52.5271603205353" y1="196.77930423403862" x2="79.134187914216739" y2="179.00105677741135" />
    <line x1="28.134456098645614" y1="184.92201188381085" x2="72.480673659187374" y2="166.5532071302865" />
    <line x1="36.998330838064049" y1="159.28939348967737" x2="52.690895324515736" y2="156.16794833741932" />
    <line x1="3" y1="139.00000000000003" x2="19" y2="139.00000000000003" />
    <line x1="35" y1="139.00000000000003" x2="51" y2="139.00000000000003" />
    <line x1="67" y1="139" x2="99" y2="139" />
    <line x1="21.305766351612348" y1="115.5891613580646" x2="68.383459810967409" y2="124.95349681483876" />
    <line x1="57.698601139006783" y1="105.32385795187207" x2="87.262746179367952" y2="117.56972778755497" />
    <line x1="39.223646523694541" y1="72.331572037647774" x2="79.134187914216724" y2="98.998943222588665" />
    <line x1="42.833477758629513" y1="42.833477758629556" x2="54.14718625761428" y2="54.147186257614322" />
    <line x1="65.460894756599046" y1="65.460894756599075" x2="76.7746032555838" y2="76.774603255583827" />
    <line x1="90.109819494275" y1="65.83067411737602" x2="98.99894322258865" y2="79.134187914216739" />
    <line x1="93.077988116189147" y1="28.134456098645614" x2="99.200923034030609" y2="42.916528618826206" />
    <line x1="111.44679286971349" y1="72.480673659187374" x2="123.69266270539639" y2="102.04481869954854" />
    <line x1="115.58916135806456" y1="21.305766351612363" x2="124.95349681483873" y2="68.383459810967423" />
  </g>
  <path fill="none" stroke="#ff0000" stroke-width="2" stroke-linecap="square" stroke-linejoin="round" d="M 145.67320370852886,3.1638179560965511 L 145.28066231390952,11.154181605737932 A 128,128 0 0,1 151.54619396218376,11.616354985958793 L 149.97791971691078,27.539310612713948 A 112,112 0 0,1 171.51188385249978,31.822682397992608 L 176.15643868857117,16.51163702627727 A 128,128 0 0,1 251.88592183658943,78.66121768627228 L 237.77518160701575,86.203565475488247 A 112,112 0 0,1 250.46068938728604,128.0220802830892 L 218.61477813377576,131.15862877363514 A 80,80 0 0,0 209.5537011478684,101.28826105392018 L 195.44296091829472,108.83060884313613 A 64,64 0 0,1 201.77025794580675,126.51421939096778 L 186.07769345935506,129.63566454322583 A 48,48 0 0,1 178.91054139052218,165.66737118494089 L 192.2140551873629,174.55649491325454 A 64,64 0 0,1 151.48578060903222,201.77025794580675 L 148.36433545677417,186.07769345935506 A 48,48 0 0,1 129.63566454322583,186.07769345935506 L 126.51421939096778,201.77025794580675 A 64,64 0 0,1 103.44350508674548,192.2140551873629 L 121.22175254337273,165.60702759368147 A 32,32 0 0,0 126.75413016431713,168.56414504036118 L 129.81559762323786,161.17310878027089" />
  <type>Circular</type>
</svg>