<?xml version="1.0" encoding="utf-8" standalone="no"?>
<!DOCTYPE svg PUBLIC "-//W3C//DTD SVG 1.1//EN" "http://www.w3.org/Graphics/SVG/1.1/DTD/svg11.dtd"[]>
<svg width="276" height="276" version="1.1" xmlns="http://www.w3.org/2000/svg">
  <title>17 cells diameter theta maze</title>
  <g fill="none" stroke="#000000" stroke-width="2" stroke-linecap="square">
    <path d="M 122.02943725152286,155.97056274847714 A 24,24 0 1,1 139,163" />
    <path d="M 123.69266270539639,102.04481869954854 A 40,40 0 0,1 139,99" />
    <path d="M 154.3073372946036,102.04481869954853 A 40,40 0 0,1 175.95518130045147,154.3073372946036" />
    <path d="M 154.3073372946036,175.95518130045147 A 40,40 0 0,1 110.7157287525381,167.2842712474619" />
    <path d="M 102.04481869954853,154.3073372946036 A 40,40 0 0,1 99,139" />
    <path d="M 102.04481869954853,123.6926627053964 A 40,40 0 0,1 110.7157287525381,110.7157287525381" />
    <path d="M 83,139 A 56,56 0 0,1 139,83" />
    <path d="M 178.59797974644667,99.402020253553331 A 56,56 0 0,1 190.73725382063208,160.43027221244503" />
    <path d="M 178.59797974644667,178.59797974644664 A 56,56 0 0,1 160.43027221244503,190.73725382063205" />
    <path d="M 139,195 A 56,56 0 0,1 117.56972778755498,190.73725382063208" />
    <path d="M 124.95349681483873,68.383459810967409 A 72,72 0 0,1 139,67" />
    <path d="M 153.04650318516124,68.383459810967409 A 72,72 0 0,1 189.91168824543144,88.088311754568579" />
    <path d="M 198.86581208578326,98.998943222588636 A 72,72 0 0,1 139,211" />
    <path d="M 124.95349681483876,209.61654018903261 A 72,72 0 0,1 98.998943222588665,198.86581208578326" />
    <path d="M 88.0883117545686,189.91168824543144 A 72,72 0 0,1 68.383459810967409,153.04650318516127" />
    <path d="M 67,139 A 72,72 0 0,1 68.383459810967409,124.95349681483876" />
    <path d="M 72.48067365918736,111.44679286971352 A 72,72 0 0,1 111.44679286971349,72.480673659187374" />
    <path d="M 172.6761420481279,57.698601139006769 A 88,88 0 0,1 227,139" />
    <path d="M 201.22539674441617,201.22539674441617 A 88,88 0 0,1 187.89018050572497,212.16932588262398" />
    <path d="M 172.6761420481279,220.30139886099323 A 88,88 0 0,1 105.32385795187211,220.30139886099323" />
    <path d="M 90.10981949427503,212.16932588262398 A 88,88 0 0,1 76.774603255583827,201.2253967444162" />
    <path d="M 57.698601139006783,172.67614204812796 A 88,88 0 0,1 52.690895324515722,156.16794833741932" />
    <path d="M 65.830674117375992,90.10981949427503 A 88,88 0 0,1 105.32385795187204,57.698601139006783" />
    <path d="M 178.79907696596933,42.916528618826177 A 104,104 0 0,1 241.00166916193598,118.71060651032266" />
    <path d="M 235.08347138117381,178.79907696596933 A 104,104 0 0,1 225.47283967946473,196.77930423403859" />
    <path d="M 196.77930423403862,225.4728396794647 A 104,104 0 0,1 118.71060651032265,241.00166916193598" />
    <path d="M 99.20092303403068,235.08347138117381 A 104,104 0 0,1 81.220695765961409,225.47283967946473" />
    <path d="M 65.460894756599075,212.53910524340097 A 104,104 0 0,1 52.527160320535273,81.220695765961409" />
    <path d="M 65.460894756599046,65.460894756599075 A 104,104 0 0,1 81.220695765961366,52.5271603205353" />
    <path d="M 99.200923034030609,42.916528618826206 A 104,104 0 0,1 118.71060651032261,36.998330838064049" />
    <path d="M 162.41083864193539,21.305766351612348 A 120,120 0 0,1 184.92201188381077,28.134456098645586" />
    <path d="M 223.85281374238571,54.147186257614294 A 120,120 0 0,1 259,139" />
    <path d="M 256.69423364838764,162.41083864193539 A 120,120 0 0,1 238.77635347630545,205.66842796235224" />
    <path d="M 205.66842796235227,238.77635347630542 A 120,120 0 0,1 184.9220118838108,249.86554390135439" />
    <path d="M 139.00000000000003,259 A 120,120 0 0,1 39.223646523694569,205.66842796235227" />
    <path d="M 28.134456098645614,184.92201188381085 A 120,120 0 0,1 21.305766351612348,162.41083864193544" />
    <path d="M 28.1344560986456,93.0779881161892 A 120,120 0 0,1 39.223646523694541,72.331572037647774" />
    <path d="M 72.331572037647732,39.223646523694569 A 120,120 0 0,1 93.077988116189147,28.134456098645614" />
    <path d="M 152.33033108482024,3.654877172581223 A 136,136 0 1,1 139,3" />
  </g>
  <g fill="none" stroke="#000000" stroke-width="2" stroke-linecap="butt">
    <line x1="139" y1="3" x2="139" y2="51" />
    <line x1="139" y1="67" x2="139" y2="99" />
    <line x1="162.41083864193539" y1="21.305766351612348" x2="156.16794833741929" y2="52.690895324515722" />
    <line x1="191.0449468016522" y1="13.352383578465009" x2="184.92201188381077" y2="28.134456098645586" />
    <line x1="160.43027221244503" y1="87.262746179367952" x2="154.3073372946036" y2="102.04481869954853" />
    <line x1="214.55755169066589" y1="25.920132726853851" x2="196.77930423403862" y2="52.5271603205353" />
    <line x1="201.22539674441617" y1="76.774603255583813" x2="189.91168824543144" y2="88.088311754568565" />
    <line x1="167.2842712474619" y1="110.7157287525381" x2="155.97056274847714" y2="122.02943725152286" />
    <line x1="264.64761642153496" y1="86.955053198347784" x2="249.86554390135441" y2="93.077988116189218" />
    <line x1="259" y1="139" x2="227" y2="139" />
    <line x1="256.69423364838764" y1="162.41083864193539" x2="225.30910467548426" y2="156.16794833741929" />
    <line x1="264.64761642153496" y1="191.0449468016522" x2="249.86554390135441" y2="184.92201188381077" />
    <line x1="235.08347138117381" y1="178.79907696596933" x2="220.30139886099323" y2="172.6761420481279" />
    <line x1="205.51932634081265" y1="166.55320713028647" x2="190.73725382063205" y2="160.43027221244503" />
    <line x1="238.77635347630547" y1="205.66842796235224" x2="225.47283967946473" y2="196.77930423403859" />
    <line x1="212.16932588262398" y1="187.89018050572497" x2="198.86581208578326" y2="179.00105677741135" />
    <line x1="223.85281374238571" y1="223.85281374238571" x2="201.22539674441617" y2="201.22539674441617" />
    <line x1="178.59797974644667" y1="178.59797974644664" x2="155.97056274847714" y2="155.97056274847714" />
    <line x1="205.66842796235227" y1="238.77635347630545" x2="179.00105677741135" y2="198.86581208578326" />
    <line x1="191.04494680165223" y1="264.64761642153496" x2="184.9220118838108" y2="249.86554390135441" />
    <line x1="162.41083864193544" y1="256.69423364838764" x2="159.28939348967737" y2="241.00166916193598" />
    <line x1="139.00000000000003" y1="275" x2="139.00000000000003" y2="259" />
    <line x1="139" y1="227" x2="139" y2="179" />
    <line x1="99.200923034030666" y1="235.08347138117384" x2="111.44679286971355" y2="205.51932634081265" />
    <line x1="81.2206957659614" y1="225.47283967946473" x2="90.10981949427503" y2="212.16932588262398" />
    <line x1="76.774603255583827" y1="201.2253967444162" x2="88.088311754568579" y2="189.91168824543144" />
    <line x1="99.402020253553346" y1="178.59797974644667" x2="122.02943725152286" y2="155.97056274847714" />
    <line x1="52.5271603205353" y1="196.77930423403862" x2="79.134187914216739" y2="179.00105677741135" />
    <line x1="72.480673659187374" y1="166.5532071302865" x2="102.04481869954854" y2="154.3073372946036" />
    <line x1="21.305766351612363" y1="162.41083864193544" x2="52.690895324515736" y2="156.16794833741932" />
    <line x1="3" y1="139.00000000000003" x2="19" y2="139.00000000000003" />
    <line x1="35" y1="139.00000000000003" x2="83" y2="139" />
    <line x1="5.6132018651606472" y1="112.46771620580655" x2="21.305766351612348" y2="115.5891613580646" />
    <line x1="36.998330838064035" y1="118.71060651032266" x2="52.690895324515722" y2="121.83205166258071" />
    <line x1="28.1344560986456" y1="93.0779881161892" x2="72.48067365918736" y2="111.44679286971352" />
    <line x1="87.262746179367952" y1="117.56972778755497" x2="102.04481869954853" y2="123.6926627053964" />
    <line x1="52.527160320535273" y1="81.220695765961409" x2="65.830674117376" y2="90.10981949427503" />
    <line x1="54.14718625761428" y1="54.147186257614322" x2="65.460894756599046" y2="65.460894756599075" />
    <line x1="72.331572037647732" y1="39.223646523694569" x2="90.109819494275" y2="65.83067411737602" />
    <line x1="115.58916135806456" y1="21.305766351612363" x2="124.95349681483873" y2="68.383459810967423" />
  </g>
  <path fill="none" stroke="#ff0000" stroke-width="2" stroke-linecap="square" stroke-linejoin="round" d="M 145.67320370852886,3.1638179560965511 L 145.28066231390952,11.154181605737932 A 128,128 0 0,1 151.54619396218376,11.616354985958793 L 145.27309698109187,75.3081774929794 A 64,64 0 0,1 174.55649491325454,85.7859448126371 L 165.66737118494092,99.08945860947783 A 48,48 0 0,1 178.91054139052218,165.66737118494089 L 192.2140551873629,174.55649491325454 A 64,64 0 0,1 151.48578060903222,201.77025794580675 L 148.36433545677417,186.07769345935506 A 48,48 0 0,0 165.66737118494089,178.91054139052218 L 156.77824745662727,165.60702759368144 A 32,32 0 0,1 126.75413016431713,168.56414504036118 L 129.81559762323786,161.17310878027089" />
  <type>Circular</type>
</svg>