<?xml version="1.0" encoding="utf-8" standalone="no"?>
<!DOCTYPE svg PUBLIC "-//W3C//DTD SVG 1.1//EN" "http://www.w3.org/Graphics/SVG/1.1/DTD/svg11.dtd"[]>
<svg width="276" height="276" version="1.1" xmlns="http://www.w3.org/2000/svg">
  <title>17 cells diameter theta maze</title>
  <g fill="none" stroke="#000000" stroke-width="2" stroke-linecap="square">
    <path d="M 122.02943725152286,155.97056274847714 A 24,24 0 1,1 139,163" />
    <path d="M 123.69266270539639,102.04481869954854 A 40,40 0 0,1 175.95518130045147,123.6926627053964" />
    <path d="M 154.3073372946036,175.95518130045147 A 40,40 0 0,1 102.04481869954853,123.6926627053964" />
    <path d="M 99.402020253553331,99.402020253553346 A 56,56 0 0,1 178.59797974644667,99.402020253553331" />
    <path d="M 195,139 A 56,56 0 0,1 160.43027221244503,190.73725382063205" />
    <path d="M 117.56972778755498,190.73725382063208 A 56,56 0 0,1 99.402020253553346,178.59797974644667" />
    <path d="M 87.262746179367952,160.43027221244506 A 56,56 0 0,1 87.262746179367952,117.56972778755497" />
    <path d="M 153.04650318516124,68.383459810967409 A 72,72 0 0,1 211,139" />
    <path d="M 205.51932634081265,166.55320713028647 A 72,72 0 0,1 124.95349681483876,209.61654018903261" />
    <path d="M 98.998943222588665,198.86581208578326 A 72,72 0 0,1 68.383459810967409,124.95349681483876" />
    <path d="M 72.48067365918736,111.44679286971352 A 72,72 0 0,1 98.99894322258865,79.134187914216739" />
    <path d="M 111.44679286971349,72.480673659187374 A 72,72 0 0,1 124.95349681483873,68.383459810967409" />
    <path d="M 76.7746032555838,76.774603255583827 A 88,88 0 0,1 201.22539674441617,76.774603255583813" />
    <path d="M 220.30139886099323,105.3238579518721 A 88,88 0 0,1 225.30910467548426,156.16794833741929" />
    <path d="M 220.30139886099323,172.6761420481279 A 88,88 0 0,1 187.89018050572497,212.16932588262398" />
    <path d="M 121.83205166258071,225.30910467548426 A 88,88 0 0,1 90.10981949427503,212.16932588262398" />
    <path d="M 65.83067411737602,187.890180505725 A 88,88 0 0,1 52.690895324515722,156.16794833741932" />
    <path d="M 51,139.00000000000003 A 88,88 0 0,1 52.690895324515722,121.83205166258071" />
    <path d="M 57.698601139006769,105.32385795187207 A 88,88 0 0,1 65.830674117375992,90.10981949427503" />
    <path d="M 81.220695765961366,52.5271603205353 A 104,104 0 0,1 159.28939348967734,36.998330838064035" />
    <path d="M 212.53910524340094,65.46089475659906 A 104,104 0 0,1 235.08347138117381,99.200923034030666" />
    <path d="M 241.00166916193598,118.71060651032266 A 104,104 0 0,1 243,139" />
    <path d="M 241.00166916193598,159.28939348967734 A 104,104 0 0,1 235.08347138117381,178.79907696596933" />
    <path d="M 212.53910524340097,212.53910524340094 A 104,104 0 0,1 159.28939348967737,241.00166916193598" />
    <path d="M 139,243 A 104,104 0 0,1 118.71060651032265,241.00166916193598" />
    <path d="M 81.220695765961409,225.47283967946473 A 104,104 0 0,1 65.460894756599075,212.53910524340097" />
    <path d="M 42.916528618826206,178.79907696596939 A 104,104 0 0,1 65.460894756599046,65.460894756599075" />
    <path d="M 162.41083864193539,21.305766351612348 A 120,120 0 0,1 184.92201188381077,28.134456098645586" />
    <path d="M 205.66842796235227,39.223646523694569 A 120,120 0 0,1 256.69423364838764,115.5891613580646" />
    <path d="M 256.69423364838764,162.41083864193539 A 120,120 0 0,1 205.66842796235227,238.77635347630542" />
    <path d="M 184.9220118838108,249.86554390135439 A 120,120 0 0,1 162.41083864193544,256.69423364838764" />
    <path d="M 115.5891613580646,256.69423364838764 A 120,120 0 0,1 93.077988116189246,249.86554390135441" />
    <path d="M 54.147186257614308,223.85281374238571 A 120,120 0 0,1 28.134456098645614,184.92201188381085" />
    <path d="M 21.305766351612348,115.5891613580646 A 120,120 0 0,1 115.58916135806456,21.305766351612363" />
    <path d="M 152.33033108482024,3.654877172581223 A 136,136 0 1,1 139,3" />
  </g>
  <g fill="none" stroke="#000000" stroke-width="2" stroke-linecap="butt">
    <line x1="139" y1="19" x2="139" y2="35" />
    <line x1="139" y1="51" x2="139" y2="83" />
    <line x1="162.41083864193539" y1="21.305766351612348" x2="159.28939348967734" y2="36.998330838064035" />
    <line x1="184.92201188381077" y1="28.134456098645586" x2="178.79907696596933" y2="42.916528618826177" />
    <line x1="205.66842796235227" y1="39.223646523694569" x2="187.890180505725" y2="65.83067411737602" />
    <line x1="167.2842712474619" y1="110.7157287525381" x2="155.97056274847714" y2="122.02943725152286" />
    <line x1="212.16932588262398" y1="90.109819494275" x2="198.86581208578326" y2="98.998943222588636" />
    <line x1="235.08347138117381" y1="99.200923034030666" x2="175.95518130045147" y2="123.6926627053964" />
    <line x1="241.00166916193598" y1="118.71060651032265" x2="225.30910467548426" y2="121.83205166258071" />
    <line x1="259" y1="139" x2="243" y2="139" />
    <line x1="195" y1="139" x2="179" y2="139" />
    <line x1="225.30910467548426" y1="156.16794833741929" x2="209.61654018903261" y2="153.04650318516124" />
    <line x1="235.08347138117381" y1="178.79907696596933" x2="220.30139886099323" y2="172.6761420481279" />
    <line x1="190.73725382063205" y1="160.43027221244503" x2="175.95518130045147" y2="154.3073372946036" />
    <line x1="238.77635347630547" y1="205.66842796235224" x2="198.86581208578326" y2="179.00105677741135" />
    <line x1="167.2842712474619" y1="167.2842712474619" x2="155.97056274847714" y2="155.97056274847714" />
    <line x1="205.66842796235227" y1="238.77635347630545" x2="196.77930423403862" y2="225.4728396794647" />
    <line x1="191.04494680165223" y1="264.64761642153496" x2="184.9220118838108" y2="249.86554390135441" />
    <line x1="178.79907696596933" y1="235.08347138117381" x2="172.6761420481279" y2="220.30139886099323" />
    <line x1="160.43027221244503" y1="190.73725382063205" x2="154.3073372946036" y2="175.95518130045147" />
    <line x1="162.41083864193544" y1="256.69423364838764" x2="159.28939348967737" y2="241.00166916193598" />
    <line x1="156.16794833741932" y1="225.30910467548426" x2="153.04650318516127" y2="209.61654018903261" />
    <line x1="139.00000000000003" y1="275" x2="139" y2="227" />
    <line x1="139" y1="195" x2="139" y2="179" />
    <line x1="121.83205166258071" y1="225.30910467548426" x2="124.95349681483876" y2="209.61654018903261" />
    <line x1="86.9550531983478" y1="264.647616421535" x2="99.200923034030666" y2="235.08347138117384" />
    <line x1="105.3238579518721" y1="220.30139886099323" x2="117.56972778755498" y2="190.73725382063208" />
    <line x1="72.33157203764776" y1="238.77635347630547" x2="81.2206957659614" y2="225.47283967946473" />
    <line x1="54.147186257614308" y1="223.85281374238571" x2="76.774603255583827" y2="201.2253967444162" />
    <line x1="110.7157287525381" y1="167.2842712474619" x2="122.02943725152286" y2="155.97056274847714" />
    <line x1="52.5271603205353" y1="196.77930423403862" x2="65.83067411737602" y2="187.890180505725" />
    <line x1="28.134456098645614" y1="184.92201188381085" x2="42.916528618826206" y2="178.79907696596939" />
    <line x1="57.698601139006783" y1="172.67614204812796" x2="72.480673659187374" y2="166.5532071302865" />
    <line x1="5.6132018651606757" y1="165.53228379419349" x2="21.305766351612363" y2="162.41083864193544" />
    <line x1="3" y1="139.00000000000003" x2="51" y2="139.00000000000003" />
    <line x1="52.690895324515722" y1="121.83205166258071" x2="68.383459810967409" y2="124.95349681483876" />
    <line x1="57.698601139006783" y1="105.32385795187207" x2="87.262746179367952" y2="117.56972778755497" />
    <line x1="52.527160320535273" y1="81.220695765961409" x2="65.830674117376" y2="90.10981949427503" />
    <line x1="54.14718625761428" y1="54.147186257614322" x2="65.460894756599046" y2="65.460894756599075" />
    <line x1="76.7746032555838" y1="76.774603255583827" x2="88.088311754568565" y2="88.0883117545686" />
    <line x1="110.7157287525381" y1="110.7157287525381" x2="122.02943725152286" y2="122.02943725152286" />
    <line x1="81.220695765961381" y1="52.5271603205353" x2="90.109819494275" y2="65.83067411737602" />
    <line x1="105.32385795187204" y1="57.698601139006783" x2="111.44679286971349" y2="72.480673659187374" />
    <line x1="117.56972778755494" y1="87.262746179367952" x2="123.69266270539639" y2="102.04481869954854" />
  </g>
  <path fill="none" stroke="#ff0000" stroke-width="2" stroke-linecap="square" stroke-linejoin="round" d="M 145.67320370852886,3.1638179560965511 L 145.28066231390952,11.154181605737932 A 128,128 0 0,1 266.38364501404124,151.54619396218376 L 234.5377337605309,148.40964547163782 A 96,96 0 0,1 230.86627223029205,166.86732901642836 L 200.24418148686138,157.57821934428557 A 64,64 0 0,0 201.77025794580675,126.51421939096778 L 170.38512897290337,132.75710969548391 A 32,32 0 0,1 165.60702759368147,156.77824745662727 L 178.91054139052218,165.66737118494089 A 48,48 0 0,1 165.66737118494089,178.91054139052218 L 156.77824745662727,165.60702759368144 A 32,32 0 0,1 126.75413016431713,168.56414504036118 L 129.81559762323786,161.17310878027089" />
  <type>Circular</type>
</svg>