<?xml version="1.0" encoding="utf-8" standalone="no"?>
<!DOCTYPE svg PUBLIC "-//W3C//DTD SVG 1.1//EN" "http://www.w3.org/Graphics/SVG/1.1/DTD/svg11.dtd"[]>
<svg width="276" height="276" version="1.1" xmlns="http://www.w3.org/2000/svg">
  <title>17 cells diameter theta maze</title>
  <g fill="none" stroke="#000000" stroke-width="2" stroke-linecap="square">
    <path d="M 122.02943725152286,155.97056274847714 A 24,24 0 1,1 139,163" />
    <path d="M 139,99 A 40,40 0 0,1 154.3073372946036,102.04481869954853" />
    <path d="M 175.95518130045147,123.6926627053964 A 40,40 0 0,1 179,139" />
    <path d="M 175.95518130045147,154.3073372946036 A 40,40 0 0,1 167.2842712474619,167.2842712474619" />
    <path d="M 139,179 A 40,40 0 0,1 123.69266270539639,102.04481869954854" />
    <path d="M 99.402020253553331,99.402020253553346 A 56,56 0 0,1 160.43027221244503,87.262746179367952" />
    <path d="M 178.59797974644667,99.402020253553331 A 56,56 0 0,1 190.73725382063205,117.56972778755497" />
    <path d="M 195,139 A 56,56 0 0,1 160.43027221244503,190.73725382063205" />
    <path d="M 139,195 A 56,56 0 0,1 117.56972778755498,190.73725382063208" />
    <path d="M 87.262746179367952,160.43027221244506 A 56,56 0 0,1 83,139" />
    <path d="M 111.44679286971349,72.480673659187374 A 72,72 0 0,1 209.61654018903261,153.04650318516124" />
    <path d="M 198.86581208578326,179.00105677741135 A 72,72 0 0,1 67,139" />
    <path d="M 68.383459810967409,124.95349681483876 A 72,72 0 0,1 72.48067365918736,111.44679286971352" />
    <path d="M 79.134187914216724,98.998943222588665 A 72,72 0 0,1 88.088311754568565,88.0883117545686" />
    <path d="M 105.32385795187204,57.698601139006783 A 88,88 0 0,1 201.22539674441617,76.774603255583813" />
    <path d="M 212.16932588262398,90.109819494275 A 88,88 0 0,1 220.30139886099323,105.3238579518721" />
    <path d="M 212.16932588262398,187.89018050572497 A 88,88 0 0,1 172.6761420481279,220.30139886099323" />
    <path d="M 156.16794833741932,225.30910467548426 A 88,88 0 0,1 121.83205166258071,225.30910467548426" />
    <path d="M 90.10981949427503,212.16932588262398 A 88,88 0 0,1 65.83067411737602,187.890180505725" />
    <path d="M 57.698601139006783,172.67614204812796 A 88,88 0 0,1 52.690895324515722,156.16794833741932" />
    <path d="M 52.690895324515722,121.83205166258071 A 88,88 0 0,1 57.698601139006769,105.32385795187207" />
    <path d="M 42.916528618826192,99.200923034030637 A 104,104 0 0,1 139,35" />
    <path d="M 178.79907696596933,42.916528618826177 A 104,104 0 0,1 225.4728396794647,81.220695765961366" />
    <path d="M 235.08347138117381,99.200923034030666 A 104,104 0 0,1 241.00166916193598,118.71060651032266" />
    <path d="M 235.08347138117381,178.79907696596933 A 104,104 0 0,1 225.47283967946473,196.77930423403859" />
    <path d="M 196.77930423403862,225.4728396794647 A 104,104 0 0,1 159.28939348967737,241.00166916193598" />
    <path d="M 118.71060651032265,241.00166916193598 A 104,104 0 0,1 65.460894756599075,212.53910524340097" />
    <path d="M 52.527160320535287,196.77930423403862 A 104,104 0 0,1 42.916528618826206,178.79907696596939" />
    <path d="M 36.998330838064035,159.28939348967737 A 104,104 0 0,1 36.998330838064035,118.71060651032266" />
    <path d="M 238.77635347630542,72.331572037647732 A 120,120 0 0,1 249.86554390135441,184.92201188381077" />
    <path d="M 238.77635347630545,205.66842796235224 A 120,120 0 0,1 223.85281374238571,223.85281374238571" />
    <path d="M 205.66842796235227,238.77635347630542 A 120,120 0 0,1 139.00000000000003,259" />
    <path d="M 93.077988116189246,249.86554390135441 A 120,120 0 0,1 54.147186257614308,223.85281374238571" />
    <path d="M 28.134456098645614,184.92201188381085 A 120,120 0 0,1 21.305766351612348,162.41083864193544" />
    <path d="M 21.305766351612348,115.5891613580646 A 120,120 0 0,1 39.223646523694541,72.331572037647774" />
    <path d="M 54.14718625761428,54.147186257614322 A 120,120 0 0,1 72.331572037647732,39.223646523694569" />
    <path d="M 152.33033108482024,3.654877172581223 A 136,136 0 1,1 139,3" />
  </g>
  <g fill="none" stroke="#000000" stroke-width="2" stroke-linecap="butt">
    <line x1="139" y1="19" x2="139" y2="35" />
    <line x1="139" y1="83" x2="139" y2="115" />
    <line x1="165.53228379419343" y1="5.6132018651606472" x2="156.16794833741929" y2="52.690895324515722" />
    <line x1="184.92201188381077" y1="28.134456098645586" x2="178.79907696596933" y2="42.916528618826177" />
    <line x1="166.55320713028647" y1="72.48067365918736" x2="160.43027221244503" y2="87.262746179367952" />
    <line x1="214.55755169066589" y1="25.920132726853851" x2="205.66842796235227" y2="39.223646523694569" />
    <line x1="223.85281374238571" y1="54.147186257614294" x2="212.53910524340094" y2="65.460894756599046" />
    <line x1="178.59797974644664" y1="99.402020253553331" x2="155.97056274847714" y2="122.02943725152286" />
    <line x1="225.4728396794647" y1="81.220695765961352" x2="198.86581208578326" y2="98.998943222588636" />
    <line x1="241.00166916193598" y1="118.71060651032265" x2="209.61654018903261" y2="124.95349681483876" />
    <line x1="259" y1="139" x2="227" y2="139" />
    <line x1="195" y1="139" x2="179" y2="139" />
    <line x1="256.69423364838764" y1="162.41083864193539" x2="209.61654018903261" y2="153.04650318516124" />
    <line x1="235.08347138117381" y1="178.79907696596933" x2="190.73725382063205" y2="160.43027221244503" />
    <line x1="238.77635347630547" y1="205.66842796235224" x2="225.47283967946473" y2="196.77930423403859" />
    <line x1="223.85281374238571" y1="223.85281374238571" x2="201.22539674441617" y2="201.22539674441617" />
    <line x1="167.2842712474619" y1="167.2842712474619" x2="155.97056274847714" y2="155.97056274847714" />
    <line x1="184.9220118838108" y1="249.86554390135441" x2="178.79907696596933" y2="235.08347138117381" />
    <line x1="172.6761420481279" y1="220.30139886099323" x2="166.55320713028647" y2="205.51932634081265" />
    <line x1="160.43027221244503" y1="190.73725382063205" x2="154.3073372946036" y2="175.95518130045147" />
    <line x1="159.28939348967737" y1="241.00166916193598" x2="156.16794833741932" y2="225.30910467548426" />
    <line x1="139.00000000000003" y1="259" x2="139" y2="243" />
    <line x1="139" y1="179" x2="139" y2="163" />
    <line x1="112.46771620580654" y1="272.38679813483935" x2="121.83205166258071" y2="225.30910467548426" />
    <line x1="105.3238579518721" y1="220.30139886099323" x2="111.44679286971355" y2="205.51932634081265" />
    <line x1="117.56972778755498" y1="190.73725382063208" x2="123.69266270539642" y2="175.95518130045147" />
    <line x1="54.147186257614308" y1="223.85281374238571" x2="65.46089475659906" y2="212.53910524340097" />
    <line x1="88.088311754568579" y1="189.91168824543144" x2="99.402020253553346" y2="178.59797974644667" />
    <line x1="25.920132726853851" y1="214.55755169066589" x2="39.223646523694569" y2="205.66842796235227" />
    <line x1="52.5271603205353" y1="196.77930423403862" x2="79.134187914216739" y2="179.00105677741135" />
    <line x1="28.134456098645614" y1="184.92201188381085" x2="57.698601139006783" y2="172.67614204812796" />
    <line x1="87.262746179367952" y1="160.43027221244506" x2="102.04481869954854" y2="154.3073372946036" />
    <line x1="3" y1="139.00000000000003" x2="67" y2="139" />
    <line x1="36.998330838064035" y1="118.71060651032266" x2="52.690895324515722" y2="121.83205166258071" />
    <line x1="57.698601139006783" y1="105.32385795187207" x2="102.04481869954853" y2="123.6926627053964" />
    <line x1="39.223646523694541" y1="72.331572037647774" x2="79.134187914216724" y2="98.998943222588665" />
    <line x1="42.833477758629513" y1="42.833477758629556" x2="54.14718625761428" y2="54.147186257614322" />
    <line x1="76.7746032555838" y1="76.774603255583827" x2="99.402020253553331" y2="99.402020253553346" />
    <line x1="81.220695765961381" y1="52.5271603205353" x2="98.99894322258865" y2="79.134187914216739" />
    <line x1="93.077988116189147" y1="28.134456098645614" x2="99.200923034030609" y2="42.916528618826206" />
    <line x1="112.4677162058065" y1="5.6132018651606757" x2="115.58916135806456" y2="21.305766351612363" />
  </g>
  <path fill="none" stroke="#ff0000" stroke-width="2" stroke-linecap="square" stroke-linejoin="round" d="M 145.67320370852886,3.1638179560965511 L 145.28066231390952,11.154181605737932 A 128,128 0 0,0 126.45380603781625,11.616354985958793 L 128.02208028308922,27.539310612713948 A 112,112 0 0,0 106.48811614750019,31.822682397992608 L 101.8435613114288,16.51163702627727 A 128,128 0 0,0 78.661217686272266,26.114078163410582 L 86.203565475488233,40.224818392984261 A 112,112 0 0,0 52.422829223373469,67.9479521736717 L 40.054661969569679,57.797659627053363 A 128,128 0 0,0 11.616354985958793,126.45380603781631 L 27.539310612713948,128.02208028308928 A 112,112 0 0,1 31.822682397992594,106.48811614750025 L 47.133727769707946,111.13267098357164 A 96,96 0 0,1 54.335558622557912,93.745913264704228 L 82.557039081705284,108.83060884313616 A 64,64 0 0,1 85.7859448126371,103.44350508674549 L 99.089458609477816,112.33262881505911 A 48,48 0 0,1 129.63566454322583,91.922306540644939 L 132.75710969548388,107.61487102709663 A 32,32 0 0,0 126.75413016431713,168.56414504036118 L 129.81559762323786,161.17310878027089" />
  <type>Circular</type>
</svg>