<?xml version="1.0" encoding="utf-8" standalone="no"?>
<!DOCTYPE svg PUBLIC "-//W3C//DTD SVG 1.1//EN" "http://www.w3.org/Graphics/SVG/1.1/DTD/svg11.dtd"[]>
<svg width="276" height="276" version="1.1" xmlns="http://www.w3.org/2000/svg">
  <title>17 cells diameter theta maze</title>
  <g fill="none" stroke="#000000" stroke-width="2" stroke-linecap="square">
    <path d="M 122.02943725152286,155.97056274847714 A 24,24 0 1,1 139,163" />
    <path d="M 154.3073372946036,102.04481869954853 A 40,40 0 0,1 167.2842712474619,167.2842712474619" />
    <path d="M 154.3073372946036,175.95518130045147 A 40,40 0 0,1 139,179" />
    <path d="M 123.69266270539642,175.95518130045147 A 40,40 0 0,1 110.7157287525381,167.2842712474619" />
    <path d="M 102.04481869954853,154.3073372946036 A 40,40 0 0,1 123.69266270539639,102.04481869954854" />
    <path d="M 178.59797974644667,99.402020253553331 A 56,56 0 0,1 195,139" />
    <path d="M 178.59797974644667,178.59797974644664 A 56,56 0 0,1 160.43027221244503,190.73725382063205" />
    <path d="M 139,195 A 56,56 0 0,1 87.262746179367952,117.56972778755497" />
    <path d="M 124.95349681483873,68.383459810967409 A 72,72 0 0,1 139,67" />
    <path d="M 153.04650318516124,68.383459810967409 A 72,72 0 0,1 189.91168824543144,88.088311754568579" />
    <path d="M 198.86581208578326,98.998943222588636 A 72,72 0 0,1 205.51932634081265,111.44679286971353" />
    <path d="M 209.61654018903261,124.95349681483876 A 72,72 0 0,1 189.91168824543144,189.91168824543141" />
    <path d="M 179.00105677741135,198.86581208578326 A 72,72 0 0,1 153.04650318516127,209.61654018903261" />
    <path d="M 124.95349681483876,209.61654018903261 A 72,72 0 0,1 98.998943222588665,198.86581208578326" />
    <path d="M 79.134187914216739,179.00105677741135 A 72,72 0 0,1 72.480673659187374,166.5532071302865" />
    <path d="M 68.383459810967409,153.04650318516127 A 72,72 0 0,1 79.134187914216724,98.998943222588665" />
    <path d="M 139,51 A 88,88 0 0,1 172.6761420481279,57.698601139006769" />
    <path d="M 187.890180505725,65.83067411737602 A 88,88 0 0,1 220.30139886099323,105.3238579518721" />
    <path d="M 227,139 A 88,88 0 0,1 220.30139886099323,172.6761420481279" />
    <path d="M 212.16932588262398,187.89018050572497 A 88,88 0 0,1 201.22539674441617,201.22539674441617" />
    <path d="M 156.16794833741932,225.30910467548426 A 88,88 0 0,1 139,227" />
    <path d="M 105.32385795187211,220.30139886099323 A 88,88 0 0,1 90.10981949427503,212.16932588262398" />
    <path d="M 57.698601139006783,172.67614204812796 A 88,88 0 0,1 52.690895324515722,156.16794833741932" />
    <path d="M 52.690895324515722,121.83205166258071 A 88,88 0 0,1 65.830674117375992,90.10981949427503" />
    <path d="M 76.7746032555838,76.774603255583827 A 88,88 0 0,1 90.109819494275,65.83067411737602" />
    <path d="M 105.32385795187204,57.698601139006783 A 88,88 0 0,1 121.83205166258067,52.690895324515722" />
    <path d="M 196.77930423403862,52.527160320535287 A 104,104 0 0,1 212.53910524340094,65.46089475659906" />
    <path d="M 235.08347138117381,99.200923034030666 A 104,104 0 0,1 212.53910524340097,212.53910524340094" />
    <path d="M 178.79907696596933,235.08347138117381 A 104,104 0 0,1 139,243" />
    <path d="M 118.71060651032265,241.00166916193598 A 104,104 0 0,1 99.20092303403068,235.08347138117381" />
    <path d="M 81.220695765961409,225.47283967946473 A 104,104 0 0,1 65.460894756599075,212.53910524340097" />
    <path d="M 52.527160320535287,196.77930423403862 A 104,104 0 0,1 42.916528618826206,178.79907696596939" />
    <path d="M 35,139.00000000000003 A 104,104 0 0,1 36.998330838064035,118.71060651032266" />
    <path d="M 52.527160320535273,81.220695765961409 A 104,104 0 0,1 65.460894756599046,65.460894756599075" />
    <path d="M 99.200923034030609,42.916528618826206 A 104,104 0 0,1 118.71060651032261,36.998330838064049" />
    <path d="M 115.58916135806456,21.305766351612363 A 120,120 0 0,1 139,19" />
    <path d="M 238.77635347630542,72.331572037647732 A 120,120 0 0,1 256.69423364838764,162.41083864193539" />
    <path d="M 249.86554390135441,184.92201188381077 A 120,120 0 0,1 223.85281374238571,223.85281374238571" />
    <path d="M 205.66842796235227,238.77635347630542 A 120,120 0 0,1 139.00000000000003,259" />
    <path d="M 93.077988116189246,249.86554390135441 A 120,120 0 0,1 54.147186257614308,223.85281374238571" />
    <path d="M 21.305766351612348,162.41083864193544 A 120,120 0 0,1 21.305766351612348,115.5891613580646" />
    <path d="M 39.223646523694541,72.331572037647774 A 120,120 0 0,1 72.331572037647732,39.223646523694569" />
    <path d="M 152.33033108482024,3.654877172581223 A 136,136 0 1,1 139,3" />
  </g>
  <g fill="none" stroke="#000000" stroke-width="2" stroke-linecap="butt">
    <line x1="139" y1="19" x2="139" y2="83" />
    <line x1="139" y1="99" x2="139" y2="115" />
    <line x1="165.53228379419343" y1="5.6132018651606472" x2="156.16794833741929" y2="52.690895324515722" />
    <line x1="191.0449468016522" y1="13.352383578465009" x2="178.79907696596933" y2="42.916528618826177" />
    <line x1="166.55320713028647" y1="72.48067365918736" x2="154.3073372946036" y2="102.04481869954853" />
    <line x1="214.55755169066589" y1="25.920132726853851" x2="196.77930423403862" y2="52.5271603205353" />
    <line x1="187.890180505725" y1="65.83067411737602" x2="179.00105677741135" y2="79.134187914216739" />
    <line x1="235.16652224137044" y1="42.833477758629527" x2="223.85281374238571" y2="54.147186257614294" />
    <line x1="252.07986727314614" y1="63.442448309334083" x2="212.16932588262398" y2="90.109819494275" />
    <line x1="220.30139886099323" y1="105.3238579518721" x2="190.73725382063205" y2="117.56972778755497" />
    <line x1="225.30910467548426" y1="121.83205166258071" x2="209.61654018903261" y2="124.95349681483876" />
    <line x1="211" y1="139" x2="195" y2="139" />
    <line x1="264.64761642153496" y1="191.0449468016522" x2="235.08347138117381" y2="178.79907696596933" />
    <line x1="220.30139886099323" y1="172.6761420481279" x2="205.51932634081265" y2="166.55320713028647" />
    <line x1="190.73725382063205" y1="160.43027221244503" x2="175.95518130045147" y2="154.3073372946036" />
    <line x1="212.53910524340097" y1="212.53910524340094" x2="201.22539674441617" y2="201.22539674441617" />
    <line x1="214.55755169066589" y1="252.07986727314616" x2="187.890180505725" y2="212.16932588262398" />
    <line x1="184.9220118838108" y1="249.86554390135441" x2="178.79907696596933" y2="235.08347138117381" />
    <line x1="172.6761420481279" y1="220.30139886099323" x2="154.3073372946036" y2="175.95518130045147" />
    <line x1="139" y1="243" x2="139" y2="195" />
    <line x1="139" y1="179" x2="139" y2="163" />
    <line x1="112.46771620580654" y1="272.38679813483935" x2="115.5891613580646" y2="256.69423364838764" />
    <line x1="118.71060651032265" y1="241.00166916193598" x2="124.95349681483876" y2="209.61654018903261" />
    <line x1="93.077988116189232" y1="249.86554390135444" x2="105.3238579518721" y2="220.30139886099323" />
    <line x1="111.44679286971355" y1="205.51932634081265" x2="117.56972778755498" y2="190.73725382063208" />
    <line x1="54.147186257614308" y1="223.85281374238571" x2="88.088311754568579" y2="189.91168824543144" />
    <line x1="99.402020253553346" y1="178.59797974644667" x2="122.02943725152286" y2="155.97056274847714" />
    <line x1="25.920132726853851" y1="214.55755169066589" x2="39.223646523694569" y2="205.66842796235227" />
    <line x1="52.5271603205353" y1="196.77930423403862" x2="79.134187914216739" y2="179.00105677741135" />
    <line x1="13.352383578465037" y1="191.04494680165229" x2="42.916528618826206" y2="178.79907696596939" />
    <line x1="87.262746179367952" y1="160.43027221244506" x2="102.04481869954854" y2="154.3073372946036" />
    <line x1="21.305766351612363" y1="162.41083864193544" x2="68.383459810967423" y2="153.04650318516127" />
    <line x1="35" y1="139.00000000000003" x2="83" y2="139" />
    <line x1="13.352383578465023" y1="86.95505319834777" x2="57.698601139006783" y2="105.32385795187207" />
    <line x1="39.223646523694541" y1="72.331572037647774" x2="52.527160320535273" y2="81.220695765961409" />
    <line x1="65.460894756599046" y1="65.460894756599075" x2="88.088311754568565" y2="88.0883117545686" />
    <line x1="99.402020253553331" y1="99.402020253553346" x2="110.7157287525381" y2="110.7157287525381" />
    <line x1="63.442448309334111" y1="25.920132726853851" x2="81.220695765961381" y2="52.5271603205353" />
    <line x1="90.109819494275" y1="65.83067411737602" x2="98.99894322258865" y2="79.134187914216739" />
    <line x1="86.955053198347713" y1="13.352383578465037" x2="117.56972778755494" y2="87.262746179367952" />
  </g>
  <path fill="none" stroke="#ff0000" stroke-width="2" stroke-linecap="square" stroke-linejoin="round" d="M 145.67320370852886,3.1638179560965511 L 145.28066231390952,11.154181605737932 A 128,128 0 0,0 101.8435613114288,16.51163702627727 L 106.48811614750019,31.822682397992608 A 112,112 0 0,1 128.02208028308922,27.539310612713948 L 131.15862877363517,59.385221866224242 A 80,80 0 0,0 115.77722581964301,62.4447731414233 L 120.4217806557144,77.755818513138635 A 64,64 0 0,1 126.51421939096777,76.229742054193252 L 129.63566454322583,91.922306540644939 A 48,48 0 0,1 148.36433545677414,91.922306540644939 L 145.2428903045161,107.61487102709663 A 32,32 0 0,1 156.77824745662727,165.60702759368144 L 165.66737118494089,178.91054139052218 A 48,48 0 0,0 178.91054139052218,165.66737118494089 L 192.2140551873629,174.55649491325454 A 64,64 0 0,1 179.60117018647333,188.47266901521516 L 189.75146273309164,200.84083626901895 A 80,80 0 0,1 176.71173894607983,209.5537011478684 L 184.2540867352958,223.66444137744207 A 96,96 0 0,1 166.86732901642839,230.86627223029205 L 162.222774180357,215.5552268585767 A 80,80 0 0,1 146.84137122636486,218.61477813377576 L 145.2730969810919,202.69182250702059 A 64,64 0 0,0 151.48578060903222,201.77025794580675 L 148.36433545677417,186.07769345935506 A 48,48 0 0,1 129.63566454322583,186.07769345935506 L 132.75710969548391,170.38512897290337 A 32,32 0 0,1 126.75413016431713,168.56414504036118 L 129.81559762323786,161.17310878027089" />
  <type>Circular</type>
</svg>