<?xml version="1.0" encoding="utf-8" standalone="no"?>
<!DOCTYPE svg PUBLIC "-//W3C//DTD SVG 1.1//EN" "http://www.w3.org/Graphics/SVG/1.1/DTD/svg11.dtd"[]>
<svg width="276" height="276" version="1.1" xmlns="http://www.w3.org/2000/svg">
  <title>17 cells diameter theta maze</title>
  <g fill="none" stroke="#000000" stroke-width="2" stroke-linecap="square">
    <path d="M 122.02943725152286,155.97056274847714 A 24,24 0 1,1 139,163" />
    <path d="M 139,99 A 40,40 0 0,1 175.95518130045147,123.6926627053964" />
    <path d="M 179,139 A 40,40 0 0,1 99,139" />
    <path d="M 102.04481869954853,123.6926627053964 A 40,40 0 0,1 123.69266270539639,102.04481869954854" />
    <path d="M 117.56972778755494,87.262746179367952 A 56,56 0 0,1 139,83" />
    <path d="M 160.43027221244503,87.262746179367952 A 56,56 0 0,1 195,139" />
    <path d="M 190.73725382063208,160.43027221244503 A 56,56 0 0,1 178.59797974644667,178.59797974644664" />
    <path d="M 160.43027221244503,190.73725382063205 A 56,56 0 0,1 87.262746179367952,117.56972778755497" />
    <path d="M 68.383459810967409,124.95349681483876 A 72,72 0 0,1 209.61654018903261,124.95349681483876" />
    <path d="M 209.61654018903261,153.04650318516124 A 72,72 0 0,1 205.51932634081265,166.55320713028647" />
    <path d="M 189.91168824543144,189.91168824543141 A 72,72 0 0,1 166.55320713028647,205.51932634081265" />
    <path d="M 153.04650318516127,209.61654018903261 A 72,72 0 0,1 124.95349681483876,209.61654018903261" />
    <path d="M 98.998943222588665,198.86581208578326 A 72,72 0 0,1 72.480673659187374,166.5532071302865" />
    <path d="M 139,51 A 88,88 0 0,1 156.16794833741929,52.690895324515722" />
    <path d="M 187.890180505725,65.83067411737602 A 88,88 0 0,1 220.30139886099323,105.3238579518721" />
    <path d="M 225.30910467548426,121.83205166258071 A 88,88 0 0,1 187.89018050572497,212.16932588262398" />
    <path d="M 172.6761420481279,220.30139886099323 A 88,88 0 0,1 156.16794833741932,225.30910467548426" />
    <path d="M 105.32385795187211,220.30139886099323 A 88,88 0 0,1 90.10981949427503,212.16932588262398" />
    <path d="M 76.774603255583827,201.2253967444162 A 88,88 0 0,1 65.83067411737602,187.890180505725" />
    <path d="M 52.690895324515722,156.16794833741932 A 88,88 0 0,1 105.32385795187204,57.698601139006783" />
    <path d="M 159.28939348967734,36.998330838064035 A 104,104 0 0,1 196.77930423403862,52.527160320535287" />
    <path d="M 212.53910524340094,65.46089475659906 A 104,104 0 0,1 241.00166916193598,118.71060651032266" />
    <path d="M 243,139 A 104,104 0 0,1 212.53910524340097,212.53910524340094" />
    <path d="M 196.77930423403862,225.4728396794647 A 104,104 0 0,1 159.28939348967737,241.00166916193598" />
    <path d="M 139,243 A 104,104 0 0,1 118.71060651032265,241.00166916193598" />
    <path d="M 81.220695765961409,225.47283967946473 A 104,104 0 0,1 65.460894756599075,212.53910524340097" />
    <path d="M 52.527160320535287,196.77930423403862 A 104,104 0 0,1 42.916528618826206,178.79907696596939" />
    <path d="M 42.916528618826192,99.200923034030637 A 104,104 0 0,1 52.527160320535273,81.220695765961409" />
    <path d="M 81.220695765961366,52.5271603205353 A 104,104 0 0,1 99.200923034030609,42.916528618826206" />
    <path d="M 184.92201188381077,28.134456098645586 A 120,120 0 0,1 223.85281374238571,54.147186257614294" />
    <path d="M 238.77635347630542,72.331572037647732 A 120,120 0 0,1 259,139" />
    <path d="M 205.66842796235227,238.77635347630542 A 120,120 0 0,1 184.9220118838108,249.86554390135439" />
    <path d="M 162.41083864193544,256.69423364838764 A 120,120 0 0,1 139.00000000000003,259" />
    <path d="M 93.077988116189246,249.86554390135441 A 120,120 0 0,1 72.331572037647774,238.77635347630547" />
    <path d="M 54.147186257614308,223.85281374238571 A 120,120 0 0,1 28.1344560986456,93.0779881161892" />
    <path d="M 39.223646523694541,72.331572037647774 A 120,120 0 0,1 72.331572037647732,39.223646523694569" />
    <path d="M 93.077988116189147,28.134456098645614 A 120,120 0 0,1 115.58916135806456,21.305766351612363" />
    <path d="M 152.33033108482024,3.654877172581223 A 136,136 0 1,1 139,3" />
  </g>
  <g fill="none" stroke="#000000" stroke-width="2" stroke-linecap="butt">
    <line x1="139" y1="3" x2="139" y2="35" />
    <line x1="139" y1="83" x2="139" y2="99" />
    <line x1="162.41083864193539" y1="21.305766351612348" x2="156.16794833741929" y2="52.690895324515722" />
    <line x1="172.6761420481279" y1="57.698601139006769" x2="160.43027221244503" y2="87.262746179367952" />
    <line x1="196.77930423403862" y1="52.5271603205353" x2="187.890180505725" y2="65.83067411737602" />
    <line x1="223.85281374238571" y1="54.147186257614294" x2="201.22539674441617" y2="76.774603255583813" />
    <line x1="167.2842712474619" y1="110.7157287525381" x2="155.97056274847714" y2="122.02943725152286" />
    <line x1="241.00166916193598" y1="118.71060651032265" x2="225.30910467548426" y2="121.83205166258071" />
    <line x1="259" y1="139" x2="243" y2="139" />
    <line x1="227" y1="139" x2="211" y2="139" />
    <line x1="195" y1="139" x2="179" y2="139" />
    <line x1="272.38679813483935" y1="165.53228379419343" x2="256.69423364838764" y2="162.41083864193539" />
    <line x1="225.30910467548426" y1="156.16794833741929" x2="209.61654018903261" y2="153.04650318516124" />
    <line x1="249.86554390135441" y1="184.92201188381077" x2="235.08347138117381" y2="178.79907696596933" />
    <line x1="205.51932634081265" y1="166.55320713028647" x2="190.73725382063205" y2="160.43027221244503" />
    <line x1="252.07986727314619" y1="214.55755169066586" x2="238.77635347630547" y2="205.66842796235224" />
    <line x1="212.16932588262398" y1="187.89018050572497" x2="198.86581208578326" y2="179.00105677741135" />
    <line x1="235.16652224137047" y1="235.16652224137044" x2="212.53910524340097" y2="212.53910524340094" />
    <line x1="196.77930423403862" y1="225.4728396794647" x2="179.00105677741135" y2="198.86581208578326" />
    <line x1="191.04494680165223" y1="264.64761642153496" x2="184.9220118838108" y2="249.86554390135441" />
    <line x1="166.55320713028647" y1="205.51932634081265" x2="160.43027221244503" y2="190.73725382063205" />
    <line x1="156.16794833741932" y1="225.30910467548426" x2="153.04650318516127" y2="209.61654018903261" />
    <line x1="139.00000000000003" y1="259" x2="139" y2="211" />
    <line x1="112.46771620580654" y1="272.38679813483935" x2="121.83205166258071" y2="225.30910467548426" />
    <line x1="93.077988116189232" y1="249.86554390135444" x2="99.200923034030666" y2="235.08347138117384" />
    <line x1="105.3238579518721" y1="220.30139886099323" x2="117.56972778755498" y2="190.73725382063208" />
    <line x1="63.442448309334139" y1="252.07986727314619" x2="72.33157203764776" y2="238.77635347630547" />
    <line x1="81.2206957659614" y1="225.47283967946473" x2="90.10981949427503" y2="212.16932588262398" />
    <line x1="76.774603255583827" y1="201.2253967444162" x2="88.088311754568579" y2="189.91168824543144" />
    <line x1="110.7157287525381" y1="167.2842712474619" x2="122.02943725152286" y2="155.97056274847714" />
    <line x1="39.223646523694569" y1="205.66842796235227" x2="52.5271603205353" y2="196.77930423403862" />
    <line x1="42.916528618826206" y1="178.79907696596939" x2="72.480673659187374" y2="166.5532071302865" />
    <line x1="36.998330838064049" y1="159.28939348967737" x2="68.383459810967423" y2="153.04650318516127" />
    <line x1="35" y1="139.00000000000003" x2="83" y2="139" />
    <line x1="5.6132018651606472" y1="112.46771620580655" x2="36.998330838064035" y2="118.71060651032266" />
    <line x1="87.262746179367952" y1="117.56972778755497" x2="102.04481869954853" y2="123.6926627053964" />
    <line x1="39.223646523694541" y1="72.331572037647774" x2="52.527160320535273" y2="81.220695765961409" />
    <line x1="54.14718625761428" y1="54.147186257614322" x2="65.460894756599046" y2="65.460894756599075" />
    <line x1="88.088311754568565" y1="88.0883117545686" x2="99.402020253553331" y2="99.402020253553346" />
    <line x1="72.331572037647732" y1="39.223646523694569" x2="81.220695765961381" y2="52.5271603205353" />
    <line x1="86.955053198347713" y1="13.352383578465037" x2="93.077988116189147" y2="28.134456098645614" />
    <line x1="99.200923034030609" y1="42.916528618826206" x2="105.32385795187204" y2="57.698601139006783" />
    <line x1="117.56972778755494" y1="87.262746179367952" x2="123.69266270539639" y2="102.04481869954854" />
    <line x1="115.58916135806456" y1="21.305766351612363" x2="124.95349681483873" y2="68.383459810967423" />
  </g>
  <path fill="none" stroke="#ff0000" stroke-width="2" stroke-linecap="square" stroke-linejoin="round" d="M 145.67320370852886,3.1638179560965511 L 145.28066231390952,11.154181605737932 A 128,128 0 0,1 237.94533803043032,57.797659627053378 L 225.57717077662653,67.9479521736717 A 112,112 0 0,1 250.46068938728604,128.0220802830892 L 234.5377337605309,129.59035452836216 A 96,96 0 0,1 199.90175527970996,213.20900352282274 L 210.05204782632831,225.57717077662653 A 112,112 0 0,1 149.9779197169108,250.46068938728604 L 148.40964547163785,234.5377337605309 A 96,96 0 0,0 184.2540867352958,223.66444137744207 L 176.71173894607983,209.5537011478684 A 80,80 0 0,1 162.222774180357,215.5552268585767 L 157.5782193442856,200.24418148686135 A 64,64 0 0,1 120.42178065571443,200.24418148686138 L 111.13267098357164,230.86627223029205 A 96,96 0 0,1 93.745913264704228,223.66444137744207 L 86.203565475488261,237.77518160701578 A 112,112 0 0,1 52.4228292233735,210.05204782632833 L 64.790996477177288,199.90175527971002 A 96,96 0 0,0 78.098244720290054,213.20900352282277 L 88.248537266908386,200.84083626901898 A 80,80 0 0,0 101.2882610539202,209.55370114786842 L 108.83060884313615,195.44296091829472 A 64,64 0 0,1 77.755818513138635,157.5782193442856 L 31.822682397992608,171.51188385249981 A 112,112 0 0,1 27.539310612713948,128.02208028308928 L 43.462266239469088,129.59035452836224 A 96,96 0 0,1 47.133727769707946,111.13267098357164 L 31.822682397992594,106.48811614750025 A 112,112 0 0,1 40.224818392984233,86.203565475488276 L 26.114078163410554,78.661217686272309 A 128,128 0 0,1 78.661217686272266,26.114078163410582 L 86.203565475488233,40.224818392984261 A 112,112 0 0,1 106.48811614750019,31.822682397992608 L 115.77722581964301,62.4447731414233 A 80,80 0 0,0 59.385221866224242,131.1586287736352 L 75.3081774929794,132.72690301890816 A 64,64 0 0,1 85.7859448126371,103.44350508674549 L 99.089458609477816,112.33262881505911 A 48,48 0 0,1 112.3326288150591,99.08945860947783 L 103.44350508674546,85.7859448126371 A 64,64 0 0,1 151.48578060903222,76.229742054193252 L 148.36433545677414,91.922306540644939 A 48,48 0 0,1 186.07769345935506,129.63566454322583 L 170.38512897290337,132.75710969548391 A 32,32 0 0,1 126.75413016431713,168.56414504036118 L 129.81559762323786,161.17310878027089" />
  <type>Circular</type>
</svg>