<?xml version="1.0" encoding="utf-8" standalone="no"?>
<!DOCTYPE svg PUBLIC "-//W3C//DTD SVG 1.1//EN" "http://www.w3.org/Graphics/SVG/1.1/DTD/svg11.dtd"[]>
<svg width="276" height="276" version="1.1" xmlns="http://www.w3.org/2000/svg">
  <title>17 cells diameter theta maze</title>
  <g fill="none" stroke="#000000" stroke-width="2" stroke-linecap="square">
    <path d="M 122.02943725152286,155.97056274847714 A 24,24 0 1,1 139,163" />
    <path d="M 154.3073372946036,175.95518130045147 A 40,40 0 1,1 167.2842712474619,110.7157287525381" />
    <path d="M 175.95518130045147,123.6926627053964 A 40,40 0 0,1 179,139" />
    <path d="M 175.95518130045147,154.3073372946036 A 40,40 0 0,1 167.2842712474619,167.2842712474619" />
    <path d="M 160.43027221244503,87.262746179367952 A 56,56 0 0,1 178.59797974644667,99.402020253553331" />
    <path d="M 190.73725382063205,117.56972778755497 A 56,56 0 0,1 190.73725382063208,160.43027221244503" />
    <path d="M 178.59797974644667,178.59797974644664 A 56,56 0 0,1 87.262746179367952,117.56972778755497" />
    <path d="M 99.402020253553331,99.402020253553346 A 56,56 0 0,1 117.56972778755494,87.262746179367952" />
    <path d="M 111.44679286971349,72.480673659187374 A 72,72 0 0,1 166.55320713028647,72.48067365918736" />
    <path d="M 198.86581208578326,98.998943222588636 A 72,72 0 0,1 205.51932634081265,111.44679286971353" />
    <path d="M 209.61654018903261,124.95349681483876 A 72,72 0 0,1 189.91168824543144,189.91168824543141" />
    <path d="M 179.00105677741135,198.86581208578326 A 72,72 0 0,1 153.04650318516127,209.61654018903261" />
    <path d="M 139,211 A 72,72 0 0,1 124.95349681483876,209.61654018903261" />
    <path d="M 111.44679286971355,205.51932634081265 A 72,72 0 0,1 79.134187914216739,179.00105677741135" />
    <path d="M 72.480673659187374,166.5532071302865 A 72,72 0 0,1 72.48067365918736,111.44679286971352" />
    <path d="M 79.134187914216724,98.998943222588665 A 72,72 0 0,1 98.99894322258865,79.134187914216739" />
    <path d="M 121.83205166258067,52.690895324515722 A 88,88 0 0,1 139,51" />
    <path d="M 156.16794833741929,52.690895324515722 A 88,88 0 0,1 212.16932588262398,90.109819494275" />
    <path d="M 220.30139886099323,105.3238579518721 A 88,88 0 0,1 225.30910467548426,156.16794833741929" />
    <path d="M 201.22539674441617,201.22539674441617 A 88,88 0 0,1 187.89018050572497,212.16932588262398" />
    <path d="M 139,227 A 88,88 0 0,1 105.32385795187211,220.30139886099323" />
    <path d="M 90.10981949427503,212.16932588262398 A 88,88 0 0,1 65.83067411737602,187.890180505725" />
    <path d="M 57.698601139006783,172.67614204812796 A 88,88 0 0,1 52.690895324515722,121.83205166258071" />
    <path d="M 57.698601139006769,105.32385795187207 A 88,88 0 0,1 65.830674117375992,90.10981949427503" />
    <path d="M 76.7746032555838,76.774603255583827 A 88,88 0 0,1 105.32385795187204,57.698601139006783" />
    <path d="M 118.71060651032261,36.998330838064049 A 104,104 0 0,1 178.79907696596933,42.916528618826177" />
    <path d="M 241.00166916193598,118.71060651032266 A 104,104 0 0,1 243,139" />
    <path d="M 225.47283967946473,196.77930423403859 A 104,104 0 0,1 212.53910524340097,212.53910524340094" />
    <path d="M 196.77930423403862,225.4728396794647 A 104,104 0 0,1 178.79907696596933,235.08347138117381" />
    <path d="M 159.28939348967737,241.00166916193598 A 104,104 0 0,1 139,243" />
    <path d="M 118.71060651032265,241.00166916193598 A 104,104 0 0,1 99.20092303403068,235.08347138117381" />
    <path d="M 81.220695765961409,225.47283967946473 A 104,104 0 0,1 65.460894756599075,212.53910524340097" />
    <path d="M 42.916528618826206,178.79907696596939 A 104,104 0 0,1 35,139.00000000000003" />
    <path d="M 42.916528618826192,99.200923034030637 A 104,104 0 0,1 81.220695765961366,52.5271603205353" />
    <path d="M 184.92201188381077,28.134456098645586 A 120,120 0 0,1 205.66842796235227,39.223646523694569" />
    <path d="M 238.77635347630542,72.331572037647732 A 120,120 0 0,1 256.69423364838764,115.5891613580646" />
    <path d="M 259,139 A 120,120 0 0,1 238.77635347630545,205.66842796235224" />
    <path d="M 205.66842796235227,238.77635347630542 A 120,120 0 0,1 162.41083864193544,256.69423364838764" />
    <path d="M 139.00000000000003,259 A 120,120 0 0,1 72.331572037647774,238.77635347630547" />
    <path d="M 54.147186257614308,223.85281374238571 A 120,120 0 0,1 28.134456098645614,184.92201188381085" />
    <path d="M 19,139.00000000000003 A 120,120 0 0,1 21.305766351612348,115.5891613580646" />
    <path d="M 39.223646523694541,72.331572037647774 A 120,120 0 0,1 54.14718625761428,54.147186257614322" />
    <path d="M 152.33033108482024,3.654877172581223 A 136,136 0 1,1 139,3" />
  </g>
  <g fill="none" stroke="#000000" stroke-width="2" stroke-linecap="butt">
    <line x1="139" y1="3" x2="139" y2="19" />
    <line x1="139" y1="51" x2="139" y2="83" />
    <line x1="162.41083864193539" y1="21.305766351612348" x2="156.16794833741929" y2="52.690895324515722" />
    <line x1="166.55320713028647" y1="72.48067365918736" x2="160.43027221244503" y2="87.262746179367952" />
    <line x1="205.66842796235227" y1="39.223646523694569" x2="179.00105677741135" y2="79.134187914216739" />
    <line x1="235.16652224137044" y1="42.833477758629527" x2="212.53910524340094" y2="65.460894756599046" />
    <line x1="189.91168824543144" y1="88.088311754568565" x2="167.2842712474619" y2="110.7157287525381" />
    <line x1="238.77635347630542" y1="72.331572037647732" x2="225.4728396794647" y2="81.220695765961352" />
    <line x1="212.16932588262398" y1="90.109819494275" x2="198.86581208578326" y2="98.998943222588636" />
    <line x1="249.86554390135441" y1="93.077988116189218" x2="175.95518130045147" y2="123.6926627053964" />
    <line x1="259" y1="139" x2="243" y2="139" />
    <line x1="179" y1="139" x2="163" y2="139" />
    <line x1="241.00166916193598" y1="159.28939348967734" x2="225.30910467548426" y2="156.16794833741929" />
    <line x1="249.86554390135441" y1="184.92201188381077" x2="205.51932634081265" y2="166.55320713028647" />
    <line x1="190.73725382063205" y1="160.43027221244503" x2="175.95518130045147" y2="154.3073372946036" />
    <line x1="225.47283967946473" y1="196.77930423403859" x2="212.16932588262398" y2="187.89018050572497" />
    <line x1="235.16652224137047" y1="235.16652224137044" x2="212.53910524340097" y2="212.53910524340094" />
    <line x1="201.22539674441617" y1="201.22539674441617" x2="178.59797974644667" y2="178.59797974644664" />
    <line x1="184.9220118838108" y1="249.86554390135441" x2="172.6761420481279" y2="220.30139886099323" />
    <line x1="165.53228379419349" y1="272.38679813483935" x2="162.41083864193544" y2="256.69423364838764" />
    <line x1="159.28939348967737" y1="241.00166916193598" x2="153.04650318516127" y2="209.61654018903261" />
    <line x1="139" y1="243" x2="139" y2="227" />
    <line x1="139" y1="211" x2="139" y2="195" />
    <line x1="139" y1="179" x2="139" y2="163" />
    <line x1="115.5891613580646" y1="256.69423364838764" x2="118.71060651032265" y2="241.00166916193598" />
    <line x1="121.83205166258071" y1="225.30910467548426" x2="124.95349681483876" y2="209.61654018903261" />
    <line x1="111.44679286971355" y1="205.51932634081265" x2="117.56972778755498" y2="190.73725382063208" />
    <line x1="63.442448309334139" y1="252.07986727314619" x2="72.33157203764776" y2="238.77635347630547" />
    <line x1="54.147186257614308" y1="223.85281374238571" x2="65.46089475659906" y2="212.53910524340097" />
    <line x1="52.5271603205353" y1="196.77930423403862" x2="79.134187914216739" y2="179.00105677741135" />
    <line x1="28.134456098645614" y1="184.92201188381085" x2="42.916528618826206" y2="178.79907696596939" />
    <line x1="57.698601139006783" y1="172.67614204812796" x2="72.480673659187374" y2="166.5532071302865" />
    <line x1="87.262746179367952" y1="160.43027221244506" x2="102.04481869954854" y2="154.3073372946036" />
    <line x1="5.6132018651606757" y1="165.53228379419349" x2="36.998330838064049" y2="159.28939348967737" />
    <line x1="21.305766351612348" y1="115.5891613580646" x2="52.690895324515722" y2="121.83205166258071" />
    <line x1="13.352383578465023" y1="86.95505319834777" x2="28.1344560986456" y2="93.0779881161892" />
    <line x1="42.916528618826192" y1="99.200923034030637" x2="72.48067365918736" y2="111.44679286971352" />
    <line x1="54.14718625761428" y1="54.147186257614322" x2="76.7746032555838" y2="76.774603255583827" />
    <line x1="88.088311754568565" y1="88.0883117545686" x2="99.402020253553331" y2="99.402020253553346" />
    <line x1="63.442448309334111" y1="25.920132726853851" x2="72.331572037647732" y2="39.223646523694569" />
    <line x1="86.955053198347713" y1="13.352383578465037" x2="105.32385795187204" y2="57.698601139006783" />
    <line x1="117.56972778755494" y1="87.262746179367952" x2="123.69266270539639" y2="102.04481869954854" />
    <line x1="112.4677162058065" y1="5.6132018651606757" x2="118.71060651032261" y2="36.998330838064049" />
  </g>
  <path fill="none" stroke="#ff0000" stroke-width="2" stroke-linecap="square" stroke-linejoin="round" d="M 145.67320370852886,3.1638179560965511 L 145.28066231390952,11.154181605737932 A 128,128 0 0,1 220.20234037294662,40.054661969569665 L 199.90175527970996,64.790996477177245 A 96,96 0 0,1 213.20900352282274,78.098244720290026 L 237.94533803043032,57.797659627053378 A 128,128 0 0,1 237.94533803043035,220.20234037294659 L 225.57717077662656,210.05204782632828 A 112,112 0 0,0 237.77518160701578,191.79643452451174 L 209.5537011478684,176.71173894607981 A 80,80 0 0,1 200.84083626901895,189.75146273309161 L 213.20900352282274,199.90175527970996 A 96,96 0 0,1 184.2540867352958,223.66444137744207 L 176.71173894607983,209.5537011478684 A 80,80 0 0,1 162.222774180357,215.5552268585767 L 171.51188385249978,246.17731760200741 A 112,112 0 0,1 128.02208028308922,250.46068938728604 L 129.59035452836218,234.5377337605309 A 96,96 0 0,1 64.790996477177288,199.90175527971002 L 52.4228292233735,210.05204782632833 A 112,112 0 0,1 40.224818392984247,191.79643452451177 L 82.557039081705284,169.16939115686387 A 64,64 0 0,1 82.557039081705284,108.83060884313616 L 68.446298852131591,101.2882610539202 A 80,80 0 0,1 115.77722581964301,62.4447731414233 L 111.1326709835716,47.133727769707946 A 96,96 0 0,1 148.40964547163782,43.4622662394691 L 146.84137122636486,59.385221866224242 A 80,80 0 0,1 176.71173894607981,68.446298852131591 L 169.16939115686384,82.557039081705284 A 64,64 0 0,1 179.60117018647333,89.52733098478484 L 189.75146273309164,77.159163730981049 A 80,80 0 0,1 200.84083626901895,88.248537266908357 L 188.47266901521516,98.398829813526689 A 64,64 0 0,1 192.2140551873629,103.44350508674546 L 165.60702759368144,121.22175254337273 A 32,32 0 1,0 126.75413016431713,168.56414504036118 L 129.81559762323786,161.17310878027089" />
  <type>Circular</type>
</svg>