<?xml version="1.0" encoding="utf-8" standalone="no"?>
<!DOCTYPE svg PUBLIC "-//W3C//DTD SVG 1.1//EN" "http://www.w3.org/Graphics/SVG/1.1/DTD/svg11.dtd"[]>
<svg width="276" height="276" version="1.1" xmlns="http://www.w3.org/2000/svg">
  <title>17 cells diameter theta maze</title>
  <g fill="none" stroke="#000000" stroke-width="2" stroke-linecap="square">
    <path d="M 122.02943725152286,155.97056274847714 A 24,24 0 1,1 139,163" />
    <path d="M 139,99 A 40,40 0 0,1 154.3073372946036,102.04481869954853" />
    <path d="M 175.95518130045147,123.6926627053964 A 40,40 0 0,1 154.3073372946036,175.95518130045147" />
    <path d="M 139,179 A 40,40 0 0,1 123.69266270539642,175.95518130045147" />
    <path d="M 102.04481869954853,154.3073372946036 A 40,40 0 0,1 102.04481869954853,123.6926627053964" />
    <path d="M 110.7157287525381,110.7157287525381 A 40,40 0 0,1 123.69266270539639,102.04481869954854" />
    <path d="M 117.56972778755494,87.262746179367952 A 56,56 0 0,1 139,83" />
    <path d="M 160.43027221244503,87.262746179367952 A 56,56 0 0,1 190.73725382063205,117.56972778755497" />
    <path d="M 195,139 A 56,56 0 0,1 190.73725382063208,160.43027221244503" />
    <path d="M 99.402020253553346,178.59797974644667 A 56,56 0 0,1 87.262746179367952,117.56972778755497" />
    <path d="M 124.95349681483873,68.383459810967409 A 72,72 0 0,1 179.00105677741135,79.134187914216739" />
    <path d="M 189.91168824543144,88.088311754568579 A 72,72 0 0,1 209.61654018903261,153.04650318516124" />
    <path d="M 205.51932634081265,166.55320713028647 A 72,72 0 0,1 153.04650318516127,209.61654018903261" />
    <path d="M 124.95349681483876,209.61654018903261 A 72,72 0 0,1 98.998943222588665,198.86581208578326" />
    <path d="M 72.480673659187374,166.5532071302865 A 72,72 0 0,1 68.383459810967409,153.04650318516127" />
    <path d="M 68.383459810967409,124.95349681483876 A 72,72 0 0,1 111.44679286971349,72.480673659187374" />
    <path d="M 76.7746032555838,76.774603255583827 A 88,88 0 0,1 172.6761420481279,57.698601139006769" />
    <path d="M 212.16932588262398,90.109819494275 A 88,88 0 0,1 227,139" />
    <path d="M 220.30139886099323,172.6761420481279 A 88,88 0 0,1 212.16932588262398,187.89018050572497" />
    <path d="M 156.16794833741932,225.30910467548426 A 88,88 0 0,1 121.83205166258071,225.30910467548426" />
    <path d="M 105.32385795187211,220.30139886099323 A 88,88 0 0,1 76.774603255583827,201.2253967444162" />
    <path d="M 52.690895324515722,156.16794833741932 A 88,88 0 0,1 51,139.00000000000003" />
    <path d="M 52.690895324515722,121.83205166258071 A 88,88 0 0,1 65.830674117375992,90.10981949427503" />
    <path d="M 118.71060651032261,36.998330838064049 A 104,104 0 0,1 139,35" />
    <path d="M 178.79907696596933,42.916528618826177 A 104,104 0 0,1 225.4728396794647,81.220695765961366" />
    <path d="M 241.00166916193598,118.71060651032266 A 104,104 0 0,1 241.00166916193598,159.28939348967734" />
    <path d="M 178.79907696596933,235.08347138117381 A 104,104 0 0,1 159.28939348967737,241.00166916193598" />
    <path d="M 65.460894756599075,212.53910524340097 A 104,104 0 0,1 42.916528618826192,99.200923034030637" />
    <path d="M 162.41083864193539,21.305766351612348 A 120,120 0 0,1 205.66842796235227,39.223646523694569" />
    <path d="M 238.77635347630542,72.331572037647732 A 120,120 0 0,1 249.86554390135441,93.077988116189232" />
    <path d="M 259,139 A 120,120 0 0,1 249.86554390135441,184.92201188381077" />
    <path d="M 238.77635347630545,205.66842796235224 A 120,120 0 0,1 223.85281374238571,223.85281374238571" />
    <path d="M 205.66842796235227,238.77635347630542 A 120,120 0 0,1 139.00000000000003,259" />
    <path d="M 72.331572037647774,238.77635347630547 A 120,120 0 0,1 21.305766351612348,162.41083864193544" />
    <path d="M 19,139.00000000000003 A 120,120 0 0,1 21.305766351612348,115.5891613580646" />
    <path d="M 54.14718625761428,54.147186257614322 A 120,120 0 0,1 72.331572037647732,39.223646523694569" />
    <path d="M 93.077988116189147,28.134456098645614 A 120,120 0 0,1 115.58916135806456,21.305766351612363" />
    <path d="M 152.33033108482024,3.654877172581223 A 136,136 0 1,1 139,3" />
  </g>
  <g fill="none" stroke="#000000" stroke-width="2" stroke-linecap="butt">
    <line x1="139" y1="19" x2="139" y2="35" />
    <line x1="139" y1="67" x2="139" y2="115" />
    <line x1="165.53228379419343" y1="5.6132018651606472" x2="156.16794833741929" y2="52.690895324515722" />
    <line x1="187.890180505725" y1="65.83067411737602" x2="179.00105677741135" y2="79.134187914216739" />
    <line x1="235.16652224137044" y1="42.833477758629527" x2="201.22539674441617" y2="76.774603255583813" />
    <line x1="178.59797974644664" y1="99.402020253553331" x2="155.97056274847714" y2="122.02943725152286" />
    <line x1="238.77635347630542" y1="72.331572037647732" x2="212.16932588262398" y2="90.109819494275" />
    <line x1="235.08347138117381" y1="99.200923034030666" x2="220.30139886099323" y2="105.3238579518721" />
    <line x1="190.73725382063205" y1="117.56972778755497" x2="175.95518130045147" y2="123.6926627053964" />
    <line x1="272.38679813483935" y1="112.46771620580654" x2="241.00166916193598" y2="118.71060651032265" />
    <line x1="225.30910467548426" y1="121.83205166258071" x2="209.61654018903261" y2="124.95349681483876" />
    <line x1="259" y1="139" x2="243" y2="139" />
    <line x1="211" y1="139" x2="195" y2="139" />
    <line x1="241.00166916193598" y1="159.28939348967734" x2="225.30910467548426" y2="156.16794833741929" />
    <line x1="249.86554390135441" y1="184.92201188381077" x2="235.08347138117381" y2="178.79907696596933" />
    <line x1="220.30139886099323" y1="172.6761420481279" x2="205.51932634081265" y2="166.55320713028647" />
    <line x1="252.07986727314619" y1="214.55755169066586" x2="225.47283967946473" y2="196.77930423403859" />
    <line x1="223.85281374238571" y1="223.85281374238571" x2="178.59797974644667" y2="178.59797974644664" />
    <line x1="205.66842796235227" y1="238.77635347630545" x2="187.890180505725" y2="212.16932588262398" />
    <line x1="178.79907696596933" y1="235.08347138117381" x2="166.55320713028647" y2="205.51932634081265" />
    <line x1="160.43027221244503" y1="190.73725382063205" x2="154.3073372946036" y2="175.95518130045147" />
    <line x1="162.41083864193544" y1="256.69423364838764" x2="159.28939348967737" y2="241.00166916193598" />
    <line x1="139.00000000000003" y1="259" x2="139" y2="211" />
    <line x1="139" y1="195" x2="139" y2="163" />
    <line x1="115.5891613580646" y1="256.69423364838764" x2="121.83205166258071" y2="225.30910467548426" />
    <line x1="93.077988116189232" y1="249.86554390135444" x2="117.56972778755498" y2="190.73725382063208" />
    <line x1="72.33157203764776" y1="238.77635347630547" x2="81.2206957659614" y2="225.47283967946473" />
    <line x1="76.774603255583827" y1="201.2253967444162" x2="99.402020253553346" y2="178.59797974644667" />
    <line x1="110.7157287525381" y1="167.2842712474619" x2="122.02943725152286" y2="155.97056274847714" />
    <line x1="25.920132726853851" y1="214.55755169066589" x2="39.223646523694569" y2="205.66842796235227" />
    <line x1="52.5271603205353" y1="196.77930423403862" x2="79.134187914216739" y2="179.00105677741135" />
    <line x1="57.698601139006783" y1="172.67614204812796" x2="87.262746179367952" y2="160.43027221244506" />
    <line x1="36.998330838064049" y1="159.28939348967737" x2="68.383459810967423" y2="153.04650318516127" />
    <line x1="19" y1="139.00000000000003" x2="35" y2="139.00000000000003" />
    <line x1="51" y1="139.00000000000003" x2="67" y2="139" />
    <line x1="83" y1="139" x2="99" y2="139" />
    <line x1="13.352383578465023" y1="86.95505319834777" x2="42.916528618826192" y2="99.200923034030637" />
    <line x1="39.223646523694541" y1="72.331572037647774" x2="79.134187914216724" y2="98.998943222588665" />
    <line x1="65.460894756599046" y1="65.460894756599075" x2="76.7746032555838" y2="76.774603255583827" />
    <line x1="99.402020253553331" y1="99.402020253553346" x2="122.02943725152286" y2="122.02943725152286" />
    <line x1="63.442448309334111" y1="25.920132726853851" x2="81.220695765961381" y2="52.5271603205353" />
    <line x1="99.200923034030609" y1="42.916528618826206" x2="111.44679286971349" y2="72.480673659187374" />
    <line x1="112.4677162058065" y1="5.6132018651606757" x2="115.58916135806456" y2="21.305766351612363" />
    <line x1="118.71060651032261" y1="36.998330838064049" x2="124.95349681483873" y2="68.383459810967423" />
  </g>
  <path fill="none" stroke="#ff0000" stroke-width="2" stroke-linecap="square" stroke-linejoin="round" d="M 145.67320370852886,3.1638179560965511 L 145.28066231390952,11.154181605737932 A 128,128 0 0,0 126.45380603781625,11.616354985958793 L 128.02208028308922,27.539310612713948 A 112,112 0 0,0 86.203565475488233,40.224818392984261 L 93.7459132647042,54.335558622557926 A 96,96 0 0,0 78.098244720289983,64.790996477177288 L 67.947952173671652,52.4228292233735 A 112,112 0 0,0 52.422829223373469,67.9479521736717 L 40.054661969569679,57.797659627053363 A 128,128 0 0,0 26.114078163410554,78.661217686272309 L 54.335558622557912,93.745913264704228 A 96,96 0 0,0 43.462266239469088,129.59035452836224 L 75.3081774929794,132.72690301890816 A 64,64 0 0,1 85.7859448126371,103.44350508674549 L 112.39297240631855,121.22175254337275 A 32,32 0 0,0 112.39297240631855,156.77824745662727 L 99.08945860947783,165.66737118494092 A 48,48 0 0,0 112.33262881505911,178.91054139052218 L 121.22175254337273,165.60702759368147 A 32,32 0 0,0 126.75413016431713,168.56414504036118 L 129.81559762323786,161.17310878027089" />
  <type>Circular</type>
</svg>