<?xml version="1.0" encoding="utf-8" standalone="no"?>
<!DOCTYPE svg PUBLIC "-//W3C//DTD SVG 1.1//EN" "http://www.w3.org/Graphics/SVG/1.1/DTD/svg11.dtd"[]>
<svg width="276" height="276" version="1.1" xmlns="http://www.w3.org/2000/svg">
  <title>17 cells diameter theta maze</title>
  <g fill="none" stroke="#000000" stroke-width="2" stroke-linecap="square">
    <path d="M 122.02943725152286,155.97056274847714 A 24,24 0 1,1 139,163" />
    <path d="M 123.69266270539639,102.04481869954854 A 40,40 0 0,1 154.3073372946036,102.04481869954853" />
    <path d="M 167.2842712474619,110.7157287525381 A 40,40 0 0,1 154.3073372946036,175.95518130045147" />
    <path d="M 139,179 A 40,40 0 0,1 110.7157287525381,110.7157287525381" />
    <path d="M 139,83 A 56,56 0 0,1 178.59797974644667,99.402020253553331" />
    <path d="M 190.73725382063205,117.56972778755497 A 56,56 0 0,1 178.59797974644667,178.59797974644664" />
    <path d="M 160.43027221244503,190.73725382063205 A 56,56 0 0,1 117.56972778755498,190.73725382063208" />
    <path d="M 99.402020253553346,178.59797974644667 A 56,56 0 0,1 87.262746179367952,160.43027221244506" />
    <path d="M 83,139 A 56,56 0 0,1 87.262746179367952,117.56972778755497" />
    <path d="M 99.402020253553331,99.402020253553346 A 56,56 0 0,1 117.56972778755494,87.262746179367952" />
    <path d="M 124.95349681483873,68.383459810967409 A 72,72 0 0,1 139,67" />
    <path d="M 153.04650318516124,68.383459810967409 A 72,72 0 0,1 209.61654018903261,153.04650318516124" />
    <path d="M 205.51932634081265,166.55320713028647 A 72,72 0 0,1 198.86581208578326,179.00105677741135" />
    <path d="M 189.91168824543144,189.91168824543141 A 72,72 0 0,1 166.55320713028647,205.51932634081265" />
    <path d="M 153.04650318516127,209.61654018903261 A 72,72 0 0,1 124.95349681483876,209.61654018903261" />
    <path d="M 111.44679286971355,205.51932634081265 A 72,72 0 0,1 79.134187914216739,179.00105677741135" />
    <path d="M 72.480673659187374,166.5532071302865 A 72,72 0 0,1 68.383459810967409,153.04650318516127" />
    <path d="M 68.383459810967409,124.95349681483876 A 72,72 0 0,1 72.48067365918736,111.44679286971352" />
    <path d="M 79.134187914216724,98.998943222588665 A 72,72 0 0,1 111.44679286971349,72.480673659187374" />
    <path d="M 172.6761420481279,57.698601139006769 A 88,88 0 0,1 187.890180505725,65.83067411737602" />
    <path d="M 201.22539674441617,76.774603255583813 A 88,88 0 0,1 212.16932588262398,90.109819494275" />
    <path d="M 220.30139886099323,105.3238579518721 A 88,88 0 0,1 227,139" />
    <path d="M 212.16932588262398,187.89018050572497 A 88,88 0 0,1 201.22539674441617,201.22539674441617" />
    <path d="M 172.6761420481279,220.30139886099323 A 88,88 0 0,1 156.16794833741932,225.30910467548426" />
    <path d="M 90.10981949427503,212.16932588262398 A 88,88 0 0,1 52.690895324515722,156.16794833741932" />
    <path d="M 57.698601139006769,105.32385795187207 A 88,88 0 0,1 90.109819494275,65.83067411737602" />
    <path d="M 105.32385795187204,57.698601139006783 A 88,88 0 0,1 121.83205166258067,52.690895324515722" />
    <path d="M 118.71060651032261,36.998330838064049 A 104,104 0 0,1 139,35" />
    <path d="M 225.4728396794647,81.220695765961366 A 104,104 0 0,1 235.08347138117381,99.200923034030666" />
    <path d="M 243,139 A 104,104 0 0,1 225.47283967946473,196.77930423403859" />
    <path d="M 212.53910524340097,212.53910524340094 A 104,104 0 0,1 178.79907696596933,235.08347138117381" />
    <path d="M 159.28939348967737,241.00166916193598 A 104,104 0 0,1 81.220695765961409,225.47283967946473" />
    <path d="M 42.916528618826206,178.79907696596939 A 104,104 0 0,1 52.527160320535273,81.220695765961409" />
    <path d="M 65.460894756599046,65.460894756599075 A 104,104 0 0,1 99.200923034030609,42.916528618826206" />
    <path d="M 139,19 A 120,120 0 0,1 223.85281374238571,54.147186257614294" />
    <path d="M 256.69423364838764,115.5891613580646 A 120,120 0 0,1 256.69423364838764,162.41083864193539" />
    <path d="M 238.77635347630545,205.66842796235224 A 120,120 0 0,1 223.85281374238571,223.85281374238571" />
    <path d="M 205.66842796235227,238.77635347630542 A 120,120 0 0,1 184.9220118838108,249.86554390135439" />
    <path d="M 39.223646523694569,205.66842796235227 A 120,120 0 0,1 19,139.00000000000003" />
    <path d="M 28.1344560986456,93.0779881161892 A 120,120 0 0,1 54.14718625761428,54.147186257614322" />
    <path d="M 93.077988116189147,28.134456098645614 A 120,120 0 0,1 115.58916135806456,21.305766351612363" />
    <path d="M 152.33033108482024,3.654877172581223 A 136,136 0 1,1 139,3" />
  </g>
  <g fill="none" stroke="#000000" stroke-width="2" stroke-linecap="butt">
    <line x1="139" y1="3" x2="139" y2="19" />
    <line x1="139" y1="51" x2="139" y2="83" />
    <line x1="139" y1="99" x2="139" y2="115" />
    <line x1="162.41083864193539" y1="21.305766351612348" x2="153.04650318516124" y2="68.383459810967409" />
    <line x1="178.79907696596933" y1="42.916528618826177" x2="172.6761420481279" y2="57.698601139006769" />
    <line x1="205.66842796235227" y1="39.223646523694569" x2="196.77930423403862" y2="52.5271603205353" />
    <line x1="187.890180505725" y1="65.83067411737602" x2="179.00105677741135" y2="79.134187914216739" />
    <line x1="223.85281374238571" y1="54.147186257614294" x2="212.53910524340094" y2="65.460894756599046" />
    <line x1="178.59797974644664" y1="99.402020253553331" x2="167.2842712474619" y2="110.7157287525381" />
    <line x1="238.77635347630542" y1="72.331572037647732" x2="212.16932588262398" y2="90.109819494275" />
    <line x1="264.64761642153496" y1="86.955053198347784" x2="235.08347138117381" y2="99.200923034030666" />
    <line x1="205.51932634081265" y1="111.44679286971353" x2="190.73725382063205" y2="117.56972778755497" />
    <line x1="256.69423364838764" y1="115.5891613580646" x2="241.00166916193598" y2="118.71060651032265" />
    <line x1="275" y1="139" x2="259" y2="139" />
    <line x1="243" y1="139" x2="227" y2="139" />
    <line x1="256.69423364838764" y1="162.41083864193539" x2="241.00166916193598" y2="159.28939348967734" />
    <line x1="225.30910467548426" y1="156.16794833741929" x2="209.61654018903261" y2="153.04650318516124" />
    <line x1="264.64761642153496" y1="191.0449468016522" x2="249.86554390135441" y2="184.92201188381077" />
    <line x1="235.08347138117381" y1="178.79907696596933" x2="220.30139886099323" y2="172.6761420481279" />
    <line x1="205.51932634081265" y1="166.55320713028647" x2="190.73725382063205" y2="160.43027221244503" />
    <line x1="235.16652224137047" y1="235.16652224137044" x2="223.85281374238571" y2="223.85281374238571" />
    <line x1="212.53910524340097" y1="212.53910524340094" x2="189.91168824543144" y2="189.91168824543144" />
    <line x1="167.2842712474619" y1="167.2842712474619" x2="155.97056274847714" y2="155.97056274847714" />
    <line x1="205.66842796235227" y1="238.77635347630545" x2="187.890180505725" y2="212.16932588262398" />
    <line x1="166.55320713028647" y1="205.51932634081265" x2="154.3073372946036" y2="175.95518130045147" />
    <line x1="165.53228379419349" y1="272.38679813483935" x2="162.41083864193544" y2="256.69423364838764" />
    <line x1="159.28939348967737" y1="241.00166916193598" x2="153.04650318516127" y2="209.61654018903261" />
    <line x1="139.00000000000003" y1="259" x2="139" y2="227" />
    <line x1="139" y1="179" x2="139" y2="163" />
    <line x1="112.46771620580654" y1="272.38679813483935" x2="115.5891613580646" y2="256.69423364838764" />
    <line x1="121.83205166258071" y1="225.30910467548426" x2="124.95349681483876" y2="209.61654018903261" />
    <line x1="86.9550531983478" y1="264.647616421535" x2="93.077988116189232" y2="249.86554390135444" />
    <line x1="99.200923034030666" y1="235.08347138117384" x2="117.56972778755498" y2="190.73725382063208" />
    <line x1="72.33157203764776" y1="238.77635347630547" x2="81.2206957659614" y2="225.47283967946473" />
    <line x1="42.833477758629542" y1="235.1665222413705" x2="54.147186257614308" y2="223.85281374238571" />
    <line x1="65.46089475659906" y1="212.53910524340097" x2="76.774603255583827" y2="201.2253967444162" />
    <line x1="99.402020253553346" y1="178.59797974644667" x2="110.7157287525381" y2="167.2842712474619" />
    <line x1="39.223646523694569" y1="205.66842796235227" x2="65.83067411737602" y2="187.890180505725" />
    <line x1="57.698601139006783" y1="172.67614204812796" x2="87.262746179367952" y2="160.43027221244506" />
    <line x1="35" y1="139.00000000000003" x2="67" y2="139" />
    <line x1="83" y1="139" x2="99" y2="139" />
    <line x1="5.6132018651606472" y1="112.46771620580655" x2="36.998330838064035" y2="118.71060651032266" />
    <line x1="52.690895324515722" y1="121.83205166258071" x2="68.383459810967409" y2="124.95349681483876" />
    <line x1="57.698601139006783" y1="105.32385795187207" x2="87.262746179367952" y2="117.56972778755497" />
    <line x1="52.527160320535273" y1="81.220695765961409" x2="65.830674117376" y2="90.10981949427503" />
    <line x1="54.14718625761428" y1="54.147186257614322" x2="65.460894756599046" y2="65.460894756599075" />
    <line x1="88.088311754568565" y1="88.0883117545686" x2="99.402020253553331" y2="99.402020253553346" />
    <line x1="63.442448309334111" y1="25.920132726853851" x2="72.331572037647732" y2="39.223646523694569" />
    <line x1="93.077988116189147" y1="28.134456098645614" x2="111.44679286971349" y2="72.480673659187374" />
    <line x1="117.56972778755494" y1="87.262746179367952" x2="123.69266270539639" y2="102.04481869954854" />
    <line x1="115.58916135806456" y1="21.305766351612363" x2="118.71060651032261" y2="36.998330838064049" />
  </g>
  <path fill="none" stroke="#ff0000" stroke-width="2" stroke-linecap="square" stroke-linejoin="round" d="M 145.67320370852886,3.1638179560965511 L 145.28066231390952,11.154181605737932 A 128,128 0 0,1 237.94533803043032,57.797659627053378 L 213.20900352282274,78.098244720290026 A 96,96 0 0,0 199.90175527970996,64.790996477177245 L 189.75146273309164,77.159163730981049 A 80,80 0 0,1 218.61477813377576,146.84137122636486 L 234.5377337605309,148.40964547163782 A 96,96 0 0,1 230.86627223029205,166.86732901642836 L 215.5552268585767,162.22277418035696 A 80,80 0 0,1 200.84083626901895,189.75146273309161 L 188.47266901521516,179.6011701864733 A 64,64 0 0,1 174.55649491325454,192.2140551873629 L 165.66737118494089,178.91054139052218 A 48,48 0 0,0 178.91054139052216,112.3326288150591 L 192.2140551873629,103.44350508674546 A 64,64 0 0,0 145.27309698109187,75.3081774929794 L 149.97791971691078,27.539310612713948 A 112,112 0 0,0 128.02208028308922,27.539310612713948 L 126.45380603781625,11.616354985958793 A 128,128 0 0,0 78.661217686272266,26.114078163410582 L 86.203565475488233,40.224818392984261 A 112,112 0 0,0 67.947952173671652,52.4228292233735 L 57.797659627053321,40.054661969569707 A 128,128 0 0,0 16.511637026277256,101.84356131142886 L 31.822682397992594,106.48811614750025 A 112,112 0 0,1 52.422829223373469,67.9479521736717 L 64.790996477177259,78.098244720290026 A 96,96 0 0,1 93.7459132647042,54.335558622557926 L 101.28826105392017,68.4462988521316 A 80,80 0 0,0 68.446298852131591,101.2882610539202 L 82.557039081705284,108.83060884313616 A 64,64 0 0,1 85.7859448126371,103.44350508674549 L 99.089458609477816,112.33262881505911 A 48,48 0 0,1 112.3326288150591,99.08945860947783 L 121.22175254337273,112.39297240631855 A 32,32 0 0,0 126.75413016431713,168.56414504036118 L 129.81559762323786,161.17310878027089" />
  <type>Circular</type>
</svg>