<?xml version="1.0" encoding="utf-8" standalone="no"?>
<!DOCTYPE svg PUBLIC "-//W3C//DTD SVG 1.1//EN" "http://www.w3.org/Graphics/SVG/1.1/DTD/svg11.dtd"[]>
<svg width="276" height="276" version="1.1" xmlns="http://www.w3.org/2000/svg">
  <title>17 cells diameter theta maze</title>
  <g fill="none" stroke="#000000" stroke-width="2" stroke-linecap="square">
    <path d="M 122.02943725152286,155.97056274847714 A 24,24 0 1,1 139,163" />
    <path d="M 139,99 A 40,40 0 0,1 167.2842712474619,110.7157287525381" />
    <path d="M 175.95518130045147,123.6926627053964 A 40,40 0 0,1 175.95518130045147,154.3073372946036" />
    <path d="M 167.2842712474619,167.2842712474619 A 40,40 0 0,1 154.3073372946036,175.95518130045147" />
    <path d="M 139,179 A 40,40 0 0,1 110.7157287525381,167.2842712474619" />
    <path d="M 102.04481869954853,154.3073372946036 A 40,40 0 0,1 102.04481869954853,123.6926627053964" />
    <path d="M 110.7157287525381,110.7157287525381 A 40,40 0 0,1 123.69266270539639,102.04481869954854" />
    <path d="M 117.56972778755494,87.262746179367952 A 56,56 0 0,1 139,83" />
    <path d="M 160.43027221244503,87.262746179367952 A 56,56 0 0,1 190.73725382063205,117.56972778755497" />
    <path d="M 178.59797974644667,178.59797974644664 A 56,56 0 0,1 139,195" />
    <path d="M 99.402020253553346,178.59797974644667 A 56,56 0 0,1 83,139" />
    <path d="M 87.262746179367952,117.56972778755497 A 56,56 0 0,1 99.402020253553331,99.402020253553346" />
    <path d="M 124.95349681483873,68.383459810967409 A 72,72 0 0,1 166.55320713028647,72.48067365918736" />
    <path d="M 179.00105677741135,79.134187914216739 A 72,72 0 0,1 205.51932634081265,111.44679286971353" />
    <path d="M 211,139 A 72,72 0 0,1 189.91168824543144,189.91168824543141" />
    <path d="M 179.00105677741135,198.86581208578326 A 72,72 0 0,1 166.55320713028647,205.51932634081265" />
    <path d="M 153.04650318516127,209.61654018903261 A 72,72 0 0,1 79.134187914216739,179.00105677741135" />
    <path d="M 72.480673659187374,166.5532071302865 A 72,72 0 0,1 72.48067365918736,111.44679286971352" />
    <path d="M 79.134187914216724,98.998943222588665 A 72,72 0 0,1 111.44679286971349,72.480673659187374" />
    <path d="M 121.83205166258067,52.690895324515722 A 88,88 0 0,1 139,51" />
    <path d="M 156.16794833741929,52.690895324515722 A 88,88 0 0,1 172.6761420481279,57.698601139006769" />
    <path d="M 201.22539674441617,76.774603255583813 A 88,88 0 0,1 212.16932588262398,90.109819494275" />
    <path d="M 225.30910467548426,121.83205166258071 A 88,88 0 0,1 201.22539674441617,201.22539674441617" />
    <path d="M 172.6761420481279,220.30139886099323 A 88,88 0 0,1 156.16794833741932,225.30910467548426" />
    <path d="M 76.774603255583827,201.2253967444162 A 88,88 0 0,1 65.83067411737602,187.890180505725" />
    <path d="M 57.698601139006783,172.67614204812796 A 88,88 0 0,1 52.690895324515722,156.16794833741932" />
    <path d="M 51,139.00000000000003 A 88,88 0 0,1 52.690895324515722,121.83205166258071" />
    <path d="M 57.698601139006769,105.32385795187207 A 88,88 0 0,1 65.830674117375992,90.10981949427503" />
    <path d="M 90.109819494275,65.83067411737602 A 88,88 0 0,1 105.32385795187204,57.698601139006783" />
    <path d="M 118.71060651032261,36.998330838064049 A 104,104 0 0,1 159.28939348967734,36.998330838064035" />
    <path d="M 225.4728396794647,81.220695765961366 A 104,104 0 0,1 235.08347138117381,99.200923034030666" />
    <path d="M 241.00166916193598,118.71060651032266 A 104,104 0 0,1 212.53910524340097,212.53910524340094" />
    <path d="M 159.28939348967737,241.00166916193598 A 104,104 0 0,1 99.20092303403068,235.08347138117381" />
    <path d="M 81.220695765961409,225.47283967946473 A 104,104 0 0,1 42.916528618826206,178.79907696596939" />
    <path d="M 36.998330838064035,159.28939348967737 A 104,104 0 0,1 35,139.00000000000003" />
    <path d="M 36.998330838064035,118.71060651032266 A 104,104 0 0,1 99.200923034030609,42.916528618826206" />
    <path d="M 162.41083864193539,21.305766351612348 A 120,120 0 0,1 184.92201188381077,28.134456098645586" />
    <path d="M 249.86554390135441,184.92201188381077 A 120,120 0 0,1 238.77635347630545,205.66842796235224" />
    <path d="M 223.85281374238571,223.85281374238571 A 120,120 0 0,1 184.9220118838108,249.86554390135439" />
    <path d="M 139.00000000000003,259 A 120,120 0 0,1 115.5891613580646,256.69423364838764" />
    <path d="M 39.223646523694569,205.66842796235227 A 120,120 0 0,1 21.305766351612348,162.41083864193544" />
    <path d="M 21.305766351612348,115.5891613580646 A 120,120 0 0,1 39.223646523694541,72.331572037647774" />
    <path d="M 54.14718625761428,54.147186257614322 A 120,120 0 0,1 115.58916135806456,21.305766351612363" />
    <path d="M 152.33033108482024,3.654877172581223 A 136,136 0 1,1 139,3" />
  </g>
  <g fill="none" stroke="#000000" stroke-width="2" stroke-linecap="butt">
    <line x1="139" y1="3" x2="139" y2="19" />
    <line x1="139" y1="35" x2="139" y2="67" />
    <line x1="165.53228379419343" y1="5.6132018651606472" x2="156.16794833741929" y2="52.690895324515722" />
    <line x1="184.92201188381077" y1="28.134456098645586" x2="178.79907696596933" y2="42.916528618826177" />
    <line x1="160.43027221244503" y1="87.262746179367952" x2="154.3073372946036" y2="102.04481869954853" />
    <line x1="214.55755169066589" y1="25.920132726853851" x2="196.77930423403862" y2="52.5271603205353" />
    <line x1="187.890180505725" y1="65.83067411737602" x2="179.00105677741135" y2="79.134187914216739" />
    <line x1="223.85281374238571" y1="54.147186257614294" x2="201.22539674441617" y2="76.774603255583813" />
    <line x1="167.2842712474619" y1="110.7157287525381" x2="155.97056274847714" y2="122.02943725152286" />
    <line x1="238.77635347630542" y1="72.331572037647732" x2="212.16932588262398" y2="90.109819494275" />
    <line x1="264.64761642153496" y1="86.955053198347784" x2="249.86554390135441" y2="93.077988116189218" />
    <line x1="235.08347138117381" y1="99.200923034030666" x2="190.73725382063205" y2="117.56972778755497" />
    <line x1="272.38679813483935" y1="112.46771620580654" x2="256.69423364838764" y2="115.5891613580646" />
    <line x1="225.30910467548426" y1="121.83205166258071" x2="209.61654018903261" y2="124.95349681483876" />
    <line x1="275" y1="139" x2="259" y2="139" />
    <line x1="211" y1="139" x2="179" y2="139" />
    <line x1="256.69423364838764" y1="162.41083864193539" x2="241.00166916193598" y2="159.28939348967734" />
    <line x1="264.64761642153496" y1="191.0449468016522" x2="249.86554390135441" y2="184.92201188381077" />
    <line x1="190.73725382063205" y1="160.43027221244503" x2="175.95518130045147" y2="154.3073372946036" />
    <line x1="235.16652224137047" y1="235.16652224137044" x2="201.22539674441617" y2="201.22539674441617" />
    <line x1="189.91168824543144" y1="189.91168824543144" x2="178.59797974644667" y2="178.59797974644664" />
    <line x1="196.77930423403862" y1="225.4728396794647" x2="179.00105677741135" y2="198.86581208578326" />
    <line x1="184.9220118838108" y1="249.86554390135441" x2="172.6761420481279" y2="220.30139886099323" />
    <line x1="166.55320713028647" y1="205.51932634081265" x2="154.3073372946036" y2="175.95518130045147" />
    <line x1="162.41083864193544" y1="256.69423364838764" x2="159.28939348967737" y2="241.00166916193598" />
    <line x1="139.00000000000003" y1="275" x2="139.00000000000003" y2="259" />
    <line x1="139" y1="243" x2="139" y2="227" />
    <line x1="139" y1="211" x2="139" y2="195" />
    <line x1="139" y1="179" x2="139" y2="163" />
    <line x1="115.5891613580646" y1="256.69423364838764" x2="121.83205166258071" y2="225.30910467548426" />
    <line x1="93.077988116189232" y1="249.86554390135444" x2="99.200923034030666" y2="235.08347138117384" />
    <line x1="105.3238579518721" y1="220.30139886099323" x2="123.69266270539642" y2="175.95518130045147" />
    <line x1="72.33157203764776" y1="238.77635347630547" x2="81.2206957659614" y2="225.47283967946473" />
    <line x1="90.10981949427503" y1="212.16932588262398" x2="98.99894322258865" y2="198.86581208578326" />
    <line x1="42.833477758629542" y1="235.1665222413705" x2="54.147186257614308" y2="223.85281374238571" />
    <line x1="65.46089475659906" y1="212.53910524340097" x2="88.088311754568579" y2="189.91168824543144" />
    <line x1="57.698601139006783" y1="172.67614204812796" x2="72.480673659187374" y2="166.5532071302865" />
    <line x1="87.262746179367952" y1="160.43027221244506" x2="102.04481869954854" y2="154.3073372946036" />
    <line x1="5.6132018651606757" y1="165.53228379419349" x2="21.305766351612363" y2="162.41083864193544" />
    <line x1="36.998330838064049" y1="159.28939348967737" x2="52.690895324515736" y2="156.16794833741932" />
    <line x1="3" y1="139.00000000000003" x2="35" y2="139.00000000000003" />
    <line x1="67" y1="139" x2="83" y2="139" />
    <line x1="99" y1="139" x2="115" y2="139" />
    <line x1="36.998330838064035" y1="118.71060651032266" x2="52.690895324515722" y2="121.83205166258071" />
    <line x1="13.352383578465023" y1="86.95505319834777" x2="28.1344560986456" y2="93.0779881161892" />
    <line x1="52.527160320535273" y1="81.220695765961409" x2="65.830674117376" y2="90.10981949427503" />
    <line x1="42.833477758629513" y1="42.833477758629556" x2="54.14718625761428" y2="54.147186257614322" />
    <line x1="65.460894756599046" y1="65.460894756599075" x2="122.02943725152286" y2="122.02943725152286" />
    <line x1="99.200923034030609" y1="42.916528618826206" x2="105.32385795187204" y2="57.698601139006783" />
    <line x1="117.56972778755494" y1="87.262746179367952" x2="123.69266270539639" y2="102.04481869954854" />
  </g>
  <path fill="none" stroke="#ff0000" stroke-width="2" stroke-linecap="square" stroke-linejoin="round" d="M 145.67320370852886,3.1638179560965511 L 145.28066231390952,11.154181605737932 A 128,128 0 0,1 151.54619396218376,11.616354985958793 L 149.97791971691078,27.539310612713948 A 112,112 0 0,0 106.48811614750019,31.822682397992608 L 120.4217806557144,77.755818513138635 A 64,64 0 0,1 169.16939115686384,82.557039081705284 L 184.25408673529577,54.335558622557912 A 96,96 0 0,1 199.90175527970996,64.790996477177245 L 220.20234037294662,40.054661969569665 A 128,128 0 0,1 251.88592183658943,78.66121768627228 L 237.77518160701575,86.203565475488247 A 112,112 0 0,1 246.17731760200741,106.48811614750022 L 200.24418148686138,120.42178065571441 A 64,64 0 0,1 202.69182250702059,132.7269030189081 L 218.61477813377576,131.15862877363514 A 80,80 0 0,1 189.75146273309164,200.84083626901895 L 210.05204782632831,225.57717077662653 A 112,112 0 0,1 191.79643452451177,237.77518160701575 L 176.71173894607983,209.5537011478684 A 80,80 0 0,1 115.77722581964304,215.5552268585767 L 111.13267098357164,230.86627223029205 A 96,96 0 0,1 93.745913264704228,223.66444137744207 L 78.6612176862723,251.88592183658943 A 128,128 0 0,1 57.797659627053406,237.94533803043035 L 67.947952173671723,225.57717077662656 A 112,112 0 0,1 31.822682397992608,171.51188385249981 L 47.133727769707946,166.86732901642839 A 96,96 0 0,0 54.335558622557926,184.2540867352958 L 82.557039081705284,169.16939115686387 A 64,64 0 0,0 103.44350508674548,192.2140551873629 L 112.33262881505911,178.91054139052218 A 48,48 0 0,1 99.08945860947783,165.66737118494092 L 112.39297240631855,156.77824745662727 A 32,32 0 0,0 126.75413016431713,168.56414504036118 L 129.81559762323786,161.17310878027089" />
  <type>Circular</type>
</svg>