<?xml version="1.0" encoding="utf-8" standalone="no"?>
<!DOCTYPE svg PUBLIC "-//W3C//DTD SVG 1.1//EN" "http://www.w3.org/Graphics/SVG/1.1/DTD/svg11.dtd"[]>
<svg width="746" height="864.829251361732" version="1.1" xmlns="http://www.w3.org/2000/svg">
  <title>Hexagonal sigma maze with 18 cells side</title>
  <g fill="none" stroke="#000000" stroke-width="2" stroke-linecap="round" stroke-linejoin="round">
    <polyline points="338,26.248711305964264 345,14.124355652982123 359,14.124355652982123 366,26.248711305964264" />
    <line x1="359" y1="14.124355652982123" x2="366" y2="1.9999999999999822" />
    <polyline points="380,1.9999999999999822 387,14.124355652982123 401,14.124355652982123 408,26.248711305964264" />
    <polyline points="296,50.497422611928542 303,38.3730669589464 317,38.3730669589464 324,50.497422611928542" />
    <polyline points="317,38.3730669589464 324,26.248711305964264 338,26.248711305964264" />
    <polyline points="345,38.3730669589464 359,38.3730669589464 366,50.497422611928542" />
    <line x1="359" y1="38.3730669589464" x2="366" y2="26.248711305964264" />
    <polyline points="380,26.248711305964264 387,38.3730669589464 401,38.3730669589464 408,26.248711305964264 422,26.248711305964264 429,38.3730669589464 422,50.497422611928542" />
    <polyline points="429,38.3730669589464 443,38.3730669589464 450,50.497422611928542" />
    <polyline points="254,74.74613391789282 261,62.621778264910681 275,62.621778264910681 282,50.497422611928542 296,50.497422611928542" />
    <line x1="296" y1="74.74613391789282" x2="303" y2="62.621778264910681" />
    <polyline points="317,62.621778264910681 324,50.497422611928542 338,50.497422611928542 345,62.621778264910681 359,62.621778264910681 366,74.74613391789282" />
    <polyline points="380,50.497422611928542 387,62.621778264910681 401,62.621778264910681 408,74.74613391789282" />
    <polyline points="408,50.497422611928542 422,50.497422611928542 429,62.621778264910681 422,74.74613391789282" />
    <line x1="443" y1="62.621778264910681" x2="450" y2="74.74613391789282" />
    <polyline points="450,50.497422611928542 464,50.497422611928542 471,62.621778264910681 485,62.621778264910681 492,74.74613391789282" />
    <polyline points="212,98.994845223857112 219,86.870489570874966 233,86.870489570874966 240,98.994845223857112" />
    <polyline points="233,86.870489570874966 240,74.74613391789282 254,74.74613391789282" />
    <polyline points="261,86.870489570874966 275,86.870489570874966 282,98.994845223857112" />
    <polyline points="275,86.870489570874966 282,74.74613391789282 296,74.74613391789282 303,86.870489570874966 296,98.994845223857112" />
    <polyline points="317,86.870489570874966 324,74.74613391789282 338,74.74613391789282 345,86.870489570874966 338,98.994845223857112" />
    <polyline points="359,86.870489570874966 366,74.74613391789282 380,74.74613391789282" />
    <polyline points="380,98.994845223857112 387,86.870489570874966 401,86.870489570874966 408,98.994845223857112" />
    <line x1="401" y1="86.870489570874966" x2="408" y2="74.74613391789282" />
    <polyline points="422,74.74613391789282 429,86.870489570874966 422,98.994845223857112" />
    <polyline points="429,86.870489570874966 443,86.870489570874966 450,74.74613391789282 464,74.74613391789282 471,86.870489570874966 485,86.870489570874966 492,98.994845223857112" />
    <polyline points="492,74.74613391789282 506,74.74613391789282 513,86.870489570874966 506,98.994845223857112" />
    <polyline points="513,86.870489570874966 527,86.870489570874966 534,98.994845223857112" />
    <polyline points="170,123.24355652982139 177,111.11920087683924 191,111.11920087683924 198,123.24355652982139" />
    <polyline points="191,111.11920087683924 198,98.9948452238571 212,98.9948452238571" />
    <polyline points="212,123.24355652982139 219,111.11920087683924 233,111.11920087683924 240,123.24355652982139" />
    <line x1="240" y1="98.9948452238571" x2="254" y2="98.9948452238571" />
    <polyline points="254,123.24355652982139 261,111.11920087683924 275,111.11920087683924 282,123.24355652982139" />
    <line x1="275" y1="111.11920087683924" x2="282" y2="98.9948452238571" />
    <polyline points="296,98.9948452238571 303,111.11920087683924 296,123.24355652982139" />
    <polyline points="303,111.11920087683924 317,111.11920087683924 324,98.9948452238571 338,98.9948452238571 345,111.11920087683924" />
    <line x1="359" y1="111.11920087683924" x2="366" y2="123.24355652982139" />
    <line x1="366" y1="98.9948452238571" x2="380" y2="98.9948452238571" />
    <polyline points="380,123.24355652982139 387,111.11920087683924 401,111.11920087683924 408,123.24355652982139" />
    <line x1="401" y1="111.11920087683924" x2="408" y2="98.9948452238571" />
    <polyline points="422,123.24355652982139 429,111.11920087683924 443,111.11920087683924 450,98.9948452238571 464,98.9948452238571 471,111.11920087683924 464,123.24355652982139" />
    <polyline points="492,123.24355652982139 485,111.11920087683924 492,98.9948452238571" />
    <line x1="506" y1="98.9948452238571" x2="513" y2="111.11920087683924" />
    <line x1="527" y1="111.11920087683924" x2="534" y2="123.24355652982139" />
    <polyline points="534,98.9948452238571 548,98.9948452238571 555,111.11920087683924 548,123.24355652982139" />
    <polyline points="555,111.11920087683924 569,111.11920087683924 576,123.24355652982139" />
    <polyline points="128,147.49226783578567 135,135.36791218280354 149,135.36791218280354 156,123.24355652982139 170,123.24355652982139 177,135.36791218280354" />
    <polyline points="198,147.49226783578567 191,135.36791218280354 198,123.24355652982139" />
    <polyline points="212,123.24355652982139 219,135.36791218280354 212,147.49226783578567" />
    <line x1="233" y1="135.36791218280354" x2="240" y2="147.49226783578567" />
    <polyline points="240,123.24355652982139 254,123.24355652982139 261,135.36791218280354" />
    <line x1="275" y1="135.36791218280354" x2="282" y2="147.49226783578567" />
    <line x1="296" y1="123.24355652982139" x2="303" y2="135.36791218280354" />
    <line x1="317" y1="135.36791218280354" x2="324" y2="147.49226783578567" />
    <polyline points="324,123.24355652982139 338,123.24355652982139 345,135.36791218280354 359,135.36791218280354 366,147.49226783578567" />
    <polyline points="359,135.36791218280354 366,123.24355652982139 380,123.24355652982139" />
    <polyline points="380,147.49226783578567 387,135.36791218280354 401,135.36791218280354 408,147.49226783578567" />
    <polyline points="408,123.24355652982139 422,123.24355652982139 429,135.36791218280354 422,147.49226783578567" />
    <polyline points="450,147.49226783578567 443,135.36791218280354 450,123.24355652982139 464,123.24355652982139" />
    <polyline points="471,135.36791218280354 485,135.36791218280354 492,147.49226783578567" />
    <polyline points="485,135.36791218280354 492,123.24355652982139 506,123.24355652982139 513,135.36791218280354 527,135.36791218280354 534,123.24355652982139" />
    <line x1="548" y1="147.49226783578567" x2="555" y2="135.36791218280354" />
    <polyline points="576,147.49226783578567 569,135.36791218280354 576,123.24355652982139 590,123.24355652982139 597,135.36791218280354 611,135.36791218280354 618,147.49226783578567" />
    <polyline points="86,171.74097914174996 93,159.61662348876783 107,159.61662348876783 114,171.74097914174996" />
    <polyline points="107,159.61662348876783 114,147.4922678357857 128,147.4922678357857" />
    <polyline points="128,171.74097914174996 135,159.61662348876783 149,159.61662348876783 156,171.74097914174996" />
    <polyline points="149,159.61662348876783 156,147.4922678357857 170,147.4922678357857" />
    <polyline points="170,171.74097914174996 177,159.61662348876783 191,159.61662348876783 198,147.4922678357857 212,147.4922678357857 219,159.61662348876783 233,159.61662348876783 240,147.4922678357857 254,147.4922678357857" />
    <polyline points="254,171.74097914174996 261,159.61662348876783 275,159.61662348876783 282,147.4922678357857 296,147.4922678357857 303,159.61662348876783 317,159.61662348876783 324,171.74097914174996" />
    <line x1="317" y1="159.61662348876783" x2="324" y2="147.4922678357857" />
    <polyline points="338,147.4922678357857 345,159.61662348876783 338,171.74097914174996" />
    <line x1="359" y1="159.61662348876783" x2="366" y2="147.4922678357857" />
    <polyline points="380,147.4922678357857 387,159.61662348876783 380,171.74097914174996" />
    <line x1="401" y1="159.61662348876783" x2="408" y2="171.74097914174996" />
    <polyline points="422,171.74097914174996 429,159.61662348876783 443,159.61662348876783 450,171.74097914174996" />
    <polyline points="443,159.61662348876783 450,147.4922678357857 464,147.4922678357857" />
    <polyline points="471,159.61662348876783 485,159.61662348876783 492,147.4922678357857 506,147.4922678357857 513,159.61662348876783 506,171.74097914174996" />
    <polyline points="513,159.61662348876783 527,159.61662348876783 534,171.74097914174996" />
    <polyline points="527,159.61662348876783 534,147.4922678357857 548,147.4922678357857" />
    <polyline points="555,159.61662348876783 569,159.61662348876783 576,171.74097914174996" />
    <polyline points="569,159.61662348876783 576,147.4922678357857 590,147.4922678357857" />
    <polyline points="597,159.61662348876783 611,159.61662348876783 618,171.74097914174996" />
    <polyline points="611,159.61662348876783 618,147.4922678357857 632,147.4922678357857 639,159.61662348876783 653,159.61662348876783 660,171.74097914174996" />
    <polyline points="44,195.98969044771422 51,183.86533479473209 65,183.86533479473209 72,171.74097914174996 86,171.74097914174996" />
    <polyline points="86,195.98969044771422 93,183.86533479473209 107,183.86533479473209 114,195.98969044771422" />
    <polyline points="128,171.74097914174996 135,183.86533479473209 128,195.98969044771422" />
    <polyline points="135,183.86533479473209 149,183.86533479473209 156,195.98969044771422" />
    <polyline points="170,171.74097914174996 177,183.86533479473209 170,195.98969044771422" />
    <polyline points="177,183.86533479473209 191,183.86533479473209 198,195.98969044771422" />
    <polyline points="198,171.74097914174996 212,171.74097914174996 219,183.86533479473209 233,183.86533479473209 240,195.98969044771422" />
    <line x1="233" y1="183.86533479473209" x2="240" y2="171.74097914174996" />
    <polyline points="254,171.74097914174996 261,183.86533479473209 254,195.98969044771422" />
    <polyline points="282,195.98969044771422 275,183.86533479473209 282,171.74097914174996 296,171.74097914174996 303,183.86533479473209 317,183.86533479473209 324,195.98969044771422" />
    <polyline points="324,171.74097914174996 338,171.74097914174996 345,183.86533479473209 359,183.86533479473209 366,171.74097914174996 380,171.74097914174996 387,183.86533479473209 401,183.86533479473209 408,195.98969044771422" />
    <polyline points="408,171.74097914174996 422,171.74097914174996 429,183.86533479473209 422,195.98969044771422" />
    <line x1="443" y1="183.86533479473209" x2="450" y2="195.98969044771422" />
    <polyline points="450,171.74097914174996 464,171.74097914174996 471,183.86533479473209 485,183.86533479473209 492,195.98969044771422" />
    <line x1="485" y1="183.86533479473209" x2="492" y2="171.74097914174996" />
    <polyline points="506,171.74097914174996 513,183.86533479473209 506,195.98969044771422" />
    <polyline points="513,183.86533479473209 527,183.86533479473209 534,195.98969044771422" />
    <polyline points="534,171.74097914174996 548,171.74097914174996 555,183.86533479473209 569,183.86533479473209 576,195.98969044771422" />
    <polyline points="576,171.74097914174996 590,171.74097914174996 597,183.86533479473209 590,195.98969044771422" />
    <polyline points="597,183.86533479473209 611,183.86533479473209 618,195.98969044771422" />
    <polyline points="632,171.74097914174996 639,183.86533479473209 632,195.98969044771422" />
    <line x1="639" y1="183.86533479473209" x2="653" y2="183.86533479473209" />
    <polyline points="660,171.74097914174996 674,171.74097914174996 681,183.86533479473209 674,195.98969044771422" />
    <polyline points="681,183.86533479473209 695,183.86533479473209 702,195.98969044771422" />
    <polyline points="9,232.36275740666065 2,220.23840175367852 9,208.11404610069639 23,208.11404610069639 30,195.98969044771425 44,195.98969044771425 51,208.11404610069639 44,220.23840175367852" />
    <polyline points="72,220.23840175367852 65,208.11404610069639 72,195.98969044771425 86,195.98969044771425" />
    <polyline points="93,208.11404610069639 107,208.11404610069639 114,220.23840175367852" />
    <line x1="114" y1="195.98969044771425" x2="128" y2="195.98969044771425" />
    <line x1="128" y1="220.23840175367852" x2="135" y2="208.11404610069639" />
    <polyline points="149,208.11404610069639 156,195.98969044771425 170,195.98969044771425 177,208.11404610069639 170,220.23840175367852" />
    <line x1="191" y1="208.11404610069639" x2="198" y2="220.23840175367852" />
    <polyline points="198,195.98969044771425 212,195.98969044771425 219,208.11404610069639 212,220.23840175367852" />
    <polyline points="219,208.11404610069639 233,208.11404610069639 240,220.23840175367852" />
    <line x1="233" y1="208.11404610069639" x2="240" y2="195.98969044771425" />
    <polyline points="254,195.98969044771425 261,208.11404610069639 275,208.11404610069639" />
    <polyline points="282,195.98969044771425 296,195.98969044771425 303,208.11404610069639 296,220.23840175367852" />
    <polyline points="303,208.11404610069639 317,208.11404610069639 324,220.23840175367852" />
    <line x1="324" y1="195.98969044771425" x2="338" y2="195.98969044771425" />
    <polyline points="338,220.23840175367852 345,208.11404610069639 359,208.11404610069639 366,195.98969044771425 380,195.98969044771425" />
    <polyline points="387,208.11404610069639 401,208.11404610069639 408,220.23840175367852" />
    <line x1="401" y1="208.11404610069639" x2="408" y2="195.98969044771425" />
    <polyline points="422,220.23840175367852 429,208.11404610069639 443,208.11404610069639 450,195.98969044771425 464,195.98969044771425 471,208.11404610069639 464,220.23840175367852" />
    <polyline points="492,220.23840175367852 485,208.11404610069639 492,195.98969044771425" />
    <line x1="506" y1="195.98969044771425" x2="513" y2="208.11404610069639" />
    <line x1="527" y1="208.11404610069639" x2="534" y2="220.23840175367852" />
    <polyline points="534,195.98969044771425 548,195.98969044771425 555,208.11404610069639 548,220.23840175367852" />
    <polyline points="576,220.23840175367852 569,208.11404610069639 576,195.98969044771425" />
    <polyline points="590,195.98969044771425 597,208.11404610069639 590,220.23840175367852" />
    <line x1="611" y1="208.11404610069639" x2="618" y2="220.23840175367852" />
    <polyline points="618,195.98969044771425 632,195.98969044771425 639,208.11404610069639" />
    <polyline points="660,220.23840175367852 653,208.11404610069639 660,195.98969044771425 674,195.98969044771425 681,208.11404610069639" />
    <line x1="695" y1="208.11404610069639" x2="702" y2="220.23840175367852" />
    <polyline points="702,195.98969044771425 716,195.98969044771425 723,208.11404610069639 716,220.23840175367852" />
    <polyline points="723,208.11404610069639 737,208.11404610069639 744,220.23840175367852 737,232.36275740666065" />
    <polyline points="9,256.61146871262497 2,244.48711305964281 9,232.36275740666068" />
    <polyline points="30,244.48711305964281 23,232.36275740666068 30,220.23840175367855" />
    <polyline points="44,220.23840175367855 51,232.36275740666068 44,244.48711305964281" />
    <polyline points="72,244.48711305964281 65,232.36275740666068 72,220.23840175367855 86,220.23840175367855" />
    <polyline points="86,244.48711305964281 93,232.36275740666068 107,232.36275740666068 114,220.23840175367855 128,220.23840175367855 135,232.36275740666068 149,232.36275740666068 156,244.48711305964281" />
    <line x1="149" y1="232.36275740666068" x2="156" y2="220.23840175367855" />
    <polyline points="170,220.23840175367855 177,232.36275740666068 170,244.48711305964281" />
    <polyline points="198,244.48711305964281 191,232.36275740666068 198,220.23840175367855 212,220.23840175367855" />
    <polyline points="219,232.36275740666068 233,232.36275740666068 240,244.48711305964281" />
    <polyline points="240,220.23840175367855 254,220.23840175367855 261,232.36275740666068 254,244.48711305964281" />
    <polyline points="261,232.36275740666068 275,232.36275740666068 282,220.23840175367855 296,220.23840175367855 303,232.36275740666068" />
    <line x1="317" y1="232.36275740666068" x2="324" y2="244.48711305964281" />
    <polyline points="324,220.23840175367855 338,220.23840175367855 345,232.36275740666068 338,244.48711305964281" />
    <polyline points="345,232.36275740666068 359,232.36275740666068 366,244.48711305964281" />
    <polyline points="366,220.23840175367855 380,220.23840175367855 387,232.36275740666068 380,244.48711305964281" />
    <polyline points="387,232.36275740666068 401,232.36275740666068 408,244.48711305964281" />
    <polyline points="408,220.23840175367855 422,220.23840175367855 429,232.36275740666068" />
    <polyline points="450,244.48711305964281 443,232.36275740666068 450,220.23840175367855 464,220.23840175367855 471,232.36275740666068" />
    <line x1="485" y1="232.36275740666068" x2="492" y2="244.48711305964281" />
    <polyline points="492,220.23840175367855 506,220.23840175367855 513,232.36275740666068 506,244.48711305964281" />
    <polyline points="513,232.36275740666068 527,232.36275740666068 534,244.48711305964281" />
    <line x1="527" y1="232.36275740666068" x2="534" y2="220.23840175367855" />
    <polyline points="548,244.48711305964281 555,232.36275740666068 569,232.36275740666068 576,220.23840175367855" />
    <polyline points="590,220.23840175367855 597,232.36275740666068 611,232.36275740666068 618,244.48711305964281" />
    <polyline points="618,220.23840175367855 632,220.23840175367855 639,232.36275740666068 653,232.36275740666068 660,220.23840175367855 674,220.23840175367855 681,232.36275740666068 695,232.36275740666068 702,244.48711305964281" />
    <line x1="702" y1="220.23840175367855" x2="716" y2="220.23840175367855" />
    <line x1="716" y1="244.48711305964281" x2="723" y2="232.36275740666068" />
    <polyline points="737,232.36275740666068 744,244.48711305964281 737,256.61146871262497" />
    <polyline points="9,280.86018001858923 2,268.73582436560707 9,256.61146871262491 23,256.61146871262491 30,268.73582436560707" />
    <polyline points="30,244.48711305964278 44,244.48711305964278 51,256.61146871262491 65,256.61146871262491 72,268.73582436560707" />
    <polyline points="86,244.48711305964278 93,256.61146871262491 86,268.73582436560707" />
    <polyline points="93,256.61146871262491 107,256.61146871262491 114,268.73582436560707" />
    <polyline points="114,244.48711305964278 128,244.48711305964278 135,256.61146871262491 128,268.73582436560707" />
    <polyline points="135,256.61146871262491 149,256.61146871262491 156,268.73582436560707" />
    <polyline points="170,244.48711305964278 177,256.61146871262491 191,256.61146871262491 198,268.73582436560707" />
    <line x1="198" y1="244.48711305964278" x2="212" y2="244.48711305964278" />
    <polyline points="212,268.73582436560707 219,256.61146871262491 233,256.61146871262491 240,244.48711305964278" />
    <polyline points="254,244.48711305964278 261,256.61146871262491 254,268.73582436560707" />
    <line x1="261" y1="256.61146871262491" x2="275" y2="256.61146871262491" />
    <polyline points="282,244.48711305964278 296,244.48711305964278 303,256.61146871262491 296,268.73582436560707" />
    <polyline points="324,268.73582436560707 317,256.61146871262491 324,244.48711305964278" />
    <polyline points="338,244.48711305964278 345,256.61146871262491 338,268.73582436560707" />
    <line x1="359" y1="256.61146871262491" x2="366" y2="268.73582436560707" />
    <polyline points="380,268.73582436560707 387,256.61146871262491 401,256.61146871262491 408,268.73582436560707" />
    <polyline points="401,256.61146871262491 408,244.48711305964278 422,244.48711305964278 429,256.61146871262491 443,256.61146871262491 450,268.73582436560707" />
    <polyline points="443,256.61146871262491 450,244.48711305964278 464,244.48711305964278 471,256.61146871262491 485,256.61146871262491 492,268.73582436560707" />
    <polyline points="485,256.61146871262491 492,244.48711305964278 506,244.48711305964278 513,256.61146871262491 527,256.61146871262491 534,268.73582436560707" />
    <polyline points="534,244.48711305964278 548,244.48711305964278 555,256.61146871262491" />
    <line x1="569" y1="256.61146871262491" x2="576" y2="268.73582436560707" />
    <polyline points="576,244.48711305964278 590,244.48711305964278 597,256.61146871262491 611,256.61146871262491 618,268.73582436560707" />
    <polyline points="618,244.48711305964278 632,244.48711305964278 639,256.61146871262491 632,268.73582436560707" />
    <polyline points="660,268.73582436560707 653,256.61146871262491 660,244.48711305964278 674,244.48711305964278 681,256.61146871262491 674,268.73582436560707" />
    <polyline points="681,256.61146871262491 695,256.61146871262491 702,244.48711305964278 716,244.48711305964278" />
    <line x1="716" y1="268.73582436560707" x2="723" y2="256.61146871262491" />
    <polyline points="737,256.61146871262491 744,268.73582436560707 737,280.86018001858923" />
    <polyline points="9,305.1088913245535 2,292.98453567157134 9,280.86018001858918 23,280.86018001858918 30,292.98453567157134" />
    <polyline points="44,268.735824365607 51,280.86018001858918 44,292.98453567157134" />
    <polyline points="72,292.98453567157134 65,280.86018001858918 72,268.735824365607 86,268.735824365607" />
    <polyline points="93,280.86018001858918 107,280.86018001858918 114,292.98453567157134" />
    <line x1="107" y1="280.86018001858918" x2="114" y2="268.735824365607" />
    <line x1="128" y1="268.735824365607" x2="135" y2="280.86018001858918" />
    <polyline points="149,280.86018001858918 156,268.735824365607 170,268.735824365607 177,280.86018001858918 191,280.86018001858918 198,292.98453567157134" />
    <polyline points="198,268.735824365607 212,268.735824365607 219,280.86018001858918 212,292.98453567157134" />
    <line x1="219" y1="280.86018001858918" x2="233" y2="280.86018001858918" />
    <polyline points="240,268.735824365607 254,268.735824365607 261,280.86018001858918 275,280.86018001858918 282,292.98453567157134" />
    <polyline points="275,280.86018001858918 282,268.735824365607 296,268.735824365607" />
    <polyline points="303,280.86018001858918 317,280.86018001858918 324,268.735824365607 338,268.735824365607 345,280.86018001858918" />
    <polyline points="359,280.86018001858918 366,268.735824365607 380,268.735824365607" />
    <line x1="380" y1="292.98453567157134" x2="387" y2="280.86018001858918" />
    <polyline points="408,292.98453567157134 401,280.86018001858918 408,268.735824365607" />
    <polyline points="422,268.735824365607 429,280.86018001858918 443,280.86018001858918 450,268.735824365607 464,268.735824365607 471,280.86018001858918 485,280.86018001858918 492,292.98453567157134" />
    <polyline points="506,268.735824365607 513,280.86018001858918 506,292.98453567157134" />
    <line x1="513" y1="280.86018001858918" x2="527" y2="280.86018001858918" />
    <polyline points="534,268.735824365607 548,268.735824365607 555,280.86018001858918 548,292.98453567157134" />
    <polyline points="555,280.86018001858918 569,280.86018001858918 576,292.98453567157134" />
    <polyline points="569,280.86018001858918 576,268.735824365607 590,268.735824365607 597,280.86018001858918 590,292.98453567157134" />
    <polyline points="618,292.98453567157134 611,280.86018001858918 618,268.735824365607" />
    <polyline points="632,292.98453567157134 639,280.86018001858918 653,280.86018001858918 660,292.98453567157134" />
    <line x1="653" y1="280.86018001858918" x2="660" y2="268.735824365607" />
    <polyline points="674,292.98453567157134 681,280.86018001858918 695,280.86018001858918 702,268.735824365607 716,268.735824365607 723,280.86018001858918 716,292.98453567157134" />
    <polyline points="737,280.86018001858918 744,292.98453567157134 737,305.1088913245535" />
    <polyline points="9,329.35760263051782 2,317.23324697753566 9,305.1088913245535" />
    <line x1="23" y1="305.1088913245535" x2="30" y2="317.23324697753566" />
    <polyline points="30,292.98453567157134 44,292.98453567157134 51,305.1088913245535 65,305.1088913245535 72,317.23324697753566" />
    <polyline points="72,292.98453567157134 86,292.98453567157134 93,305.1088913245535 107,305.1088913245535 114,317.23324697753566" />
    <line x1="114" y1="292.98453567157134" x2="128" y2="292.98453567157134" />
    <polyline points="135,305.1088913245535 149,305.1088913245535 156,317.23324697753566" />
    <polyline points="149,305.1088913245535 156,292.98453567157134 170,292.98453567157134 177,305.1088913245535 191,305.1088913245535 198,317.23324697753566" />
    <line x1="191" y1="305.1088913245535" x2="198" y2="292.98453567157134" />
    <polyline points="212,292.98453567157134 219,305.1088913245535 233,305.1088913245535 240,317.23324697753566" />
    <polyline points="240,292.98453567157134 254,292.98453567157134 261,305.1088913245535 254,317.23324697753566" />
    <polyline points="261,305.1088913245535 275,305.1088913245535 282,317.23324697753566" />
    <polyline points="282,292.98453567157134 296,292.98453567157134 303,305.1088913245535 317,305.1088913245535" />
    <polyline points="324,292.98453567157134 338,292.98453567157134 345,305.1088913245535 338,317.23324697753566" />
    <polyline points="345,305.1088913245535 359,305.1088913245535 366,292.98453567157134 380,292.98453567157134 387,305.1088913245535 380,317.23324697753566" />
    <polyline points="401,305.1088913245535 408,292.98453567157134 422,292.98453567157134 429,305.1088913245535 443,305.1088913245535 450,317.23324697753566" />
    <polyline points="443,305.1088913245535 450,292.98453567157134 464,292.98453567157134" />
    <polyline points="471,305.1088913245535 485,305.1088913245535 492,317.23324697753566" />
    <line x1="485" y1="305.1088913245535" x2="492" y2="292.98453567157134" />
    <polyline points="506,292.98453567157134 513,305.1088913245535 527,305.1088913245535 534,317.23324697753566" />
    <line x1="534" y1="292.98453567157134" x2="548" y2="292.98453567157134" />
    <line x1="548" y1="317.23324697753566" x2="555" y2="305.1088913245535" />
    <polyline points="576,317.23324697753566 569,305.1088913245535 576,292.98453567157134" />
    <polyline points="590,317.23324697753566 597,305.1088913245535 611,305.1088913245535 618,317.23324697753566" />
    <polyline points="618,292.98453567157134 632,292.98453567157134 639,305.1088913245535" />
    <line x1="653" y1="305.1088913245535" x2="660" y2="317.23324697753566" />
    <line x1="660" y1="292.98453567157134" x2="674" y2="292.98453567157134" />
    <polyline points="674,317.23324697753566 681,305.1088913245535 695,305.1088913245535 702,292.98453567157134" />
    <line x1="716" y1="292.98453567157134" x2="723" y2="305.1088913245535" />
    <polyline points="737,305.1088913245535 744,317.23324697753566 737,329.35760263051782" />
    <polyline points="9,353.60631393648208 2,341.48195828349992 9,329.35760263051776 23,329.35760263051776 30,341.48195828349992" />
    <polyline points="23,329.35760263051776 30,317.2332469775356 44,317.2332469775356 51,329.35760263051776" />
    <polyline points="65,329.35760263051776 72,317.2332469775356 86,317.2332469775356 93,329.35760263051776 86,341.48195828349992" />
    <polyline points="93,329.35760263051776 107,329.35760263051776 114,341.48195828349992" />
    <polyline points="114,317.2332469775356 128,317.2332469775356 135,329.35760263051776 128,341.48195828349992" />
    <polyline points="135,329.35760263051776 149,329.35760263051776 156,341.48195828349992" />
    <polyline points="156,317.2332469775356 170,317.2332469775356 177,329.35760263051776 191,329.35760263051776 198,341.48195828349992" />
    <polyline points="198,317.2332469775356 212,317.2332469775356 219,329.35760263051776 233,329.35760263051776 240,341.48195828349992" />
    <line x1="240" y1="317.2332469775356" x2="254" y2="317.2332469775356" />
    <line x1="254" y1="341.48195828349992" x2="261" y2="329.35760263051776" />
    <polyline points="282,341.48195828349992 275,329.35760263051776 282,317.2332469775356 296,317.2332469775356 303,329.35760263051776" />
    <polyline points="324,341.48195828349992 317,329.35760263051776 324,317.2332469775356 338,317.2332469775356" />
    <polyline points="338,341.48195828349992 345,329.35760263051776 359,329.35760263051776 366,341.48195828349992" />
    <polyline points="359,329.35760263051776 366,317.2332469775356 380,317.2332469775356 387,329.35760263051776 401,329.35760263051776 408,317.2332469775356 422,317.2332469775356 429,329.35760263051776 422,341.48195828349992" />
    <line x1="429" y1="329.35760263051776" x2="443" y2="329.35760263051776" />
    <polyline points="450,317.2332469775356 464,317.2332469775356 471,329.35760263051776 464,341.48195828349992" />
    <line x1="471" y1="329.35760263051776" x2="485" y2="329.35760263051776" />
    <line x1="492" y1="317.2332469775356" x2="506" y2="317.2332469775356" />
    <polyline points="506,341.48195828349992 513,329.35760263051776 527,329.35760263051776 534,341.48195828349992" />
    <polyline points="527,329.35760263051776 534,317.2332469775356 548,317.2332469775356" />
    <polyline points="548,341.48195828349992 555,329.35760263051776 569,329.35760263051776 576,317.2332469775356 590,317.2332469775356" />
    <polyline points="590,341.48195828349992 597,329.35760263051776 611,329.35760263051776 618,341.48195828349992" />
    <polyline points="618,317.2332469775356 632,317.2332469775356 639,329.35760263051776 632,341.48195828349992" />
    <polyline points="660,341.48195828349992 653,329.35760263051776 660,317.2332469775356 674,317.2332469775356 681,329.35760263051776 674,341.48195828349992" />
    <line x1="695" y1="329.35760263051776" x2="702" y2="341.48195828349992" />
    <polyline points="702,317.2332469775356 716,317.2332469775356 723,329.35760263051776 716,341.48195828349992" />
    <polyline points="723,329.35760263051776 737,329.35760263051776 744,341.48195828349992 737,353.60631393648208" />
    <polyline points="9,377.85502524244635 2,365.73066958946418 9,353.606313936482" />
    <line x1="23" y1="353.606313936482" x2="30" y2="365.73066958946418" />
    <polyline points="44,341.48195828349986 51,353.606313936482 44,365.73066958946418" />
    <polyline points="51,353.606313936482 65,353.606313936482 72,365.73066958946418" />
    <line x1="65" y1="353.606313936482" x2="72" y2="341.48195828349986" />
    <polyline points="86,365.73066958946418 93,353.606313936482 107,353.606313936482 114,365.73066958946418" />
    <polyline points="128,341.48195828349986 135,353.606313936482 128,365.73066958946418" />
    <line x1="149" y1="353.606313936482" x2="156" y2="365.73066958946418" />
    <polyline points="156,341.48195828349986 170,341.48195828349986 177,353.606313936482 170,365.73066958946418" />
    <polyline points="191,353.606313936482 198,341.48195828349986 212,341.48195828349986 219,353.606313936482 212,365.73066958946418" />
    <line x1="233" y1="353.606313936482" x2="240" y2="365.73066958946418" />
    <polyline points="240,341.48195828349986 254,341.48195828349986 261,353.606313936482 254,365.73066958946418" />
    <line x1="275" y1="353.606313936482" x2="282" y2="341.48195828349986" />
    <polyline points="296,341.48195828349986 303,353.606313936482 296,365.73066958946418" />
    <polyline points="303,353.606313936482 317,353.606313936482 324,341.48195828349986" />
    <polyline points="338,341.48195828349986 345,353.606313936482 338,365.73066958946418" />
    <line x1="359" y1="353.606313936482" x2="366" y2="365.73066958946418" />
    <polyline points="380,341.48195828349986 387,353.606313936482 380,365.73066958946418" />
    <polyline points="387,353.606313936482 401,353.606313936482 408,365.73066958946418" />
    <polyline points="401,353.606313936482 408,341.48195828349986 422,341.48195828349986" />
    <polyline points="422,365.73066958946418 429,353.606313936482 443,353.606313936482 450,341.48195828349986 464,341.48195828349986" />
    <polyline points="464,365.73066958946418 471,353.606313936482 485,353.606313936482 492,341.48195828349986 506,341.48195828349986" />
    <line x1="506" y1="365.73066958946418" x2="513" y2="353.606313936482" />
    <line x1="527" y1="353.606313936482" x2="534" y2="341.48195828349986" />
    <polyline points="548,341.48195828349986 555,353.606313936482 548,365.73066958946418" />
    <polyline points="576,365.73066958946418 569,353.606313936482 576,341.48195828349986 590,341.48195828349986 597,353.606313936482 590,365.73066958946418" />
    <line x1="611" y1="353.606313936482" x2="618" y2="365.73066958946418" />
    <polyline points="639,353.606313936482 653,353.606313936482 660,365.73066958946418" />
    <line x1="653" y1="353.606313936482" x2="660" y2="341.48195828349986" />
    <line x1="674" y1="365.73066958946418" x2="681" y2="353.606313936482" />
    <polyline points="702,365.73066958946418 695,353.606313936482 702,341.48195828349986" />
    <line x1="716" y1="365.73066958946418" x2="723" y2="353.606313936482" />
    <polyline points="737,353.606313936482 744,365.73066958946418 737,377.85502524244635" />
    <polyline points="9,402.10373654841067 2,389.97938089542851 9,377.85502524244635" />
    <polyline points="23,377.85502524244635 30,365.73066958946418 44,365.73066958946418 51,377.85502524244635" />
    <line x1="65" y1="377.85502524244635" x2="72" y2="389.97938089542851" />
    <line x1="72" y1="365.73066958946418" x2="86" y2="365.73066958946418" />
    <line x1="86" y1="389.97938089542851" x2="93" y2="377.85502524244635" />
    <polyline points="114,389.97938089542851 107,377.85502524244635 114,365.73066958946418 128,365.73066958946418" />
    <polyline points="135,377.85502524244635 149,377.85502524244635 156,389.97938089542851" />
    <line x1="149" y1="377.85502524244635" x2="156" y2="365.73066958946418" />
    <polyline points="170,389.97938089542851 177,377.85502524244635 191,377.85502524244635 198,389.97938089542851" />
    <polyline points="191,377.85502524244635 198,365.73066958946418 212,365.73066958946418 219,377.85502524244635" />
    <polyline points="240,389.97938089542851 233,377.85502524244635 240,365.73066958946418 254,365.73066958946418 261,377.85502524244635 275,377.85502524244635 282,365.73066958946418 296,365.73066958946418 303,377.85502524244635 296,389.97938089542851" />
    <polyline points="303,377.85502524244635 317,377.85502524244635 324,389.97938089542851" />
    <polyline points="324,365.73066958946418 338,365.73066958946418 345,377.85502524244635" />
    <polyline points="366,389.97938089542851 359,377.85502524244635 366,365.73066958946418" />
    <line x1="380" y1="389.97938089542851" x2="387" y2="377.85502524244635" />
    <polyline points="401,377.85502524244635 408,365.73066958946418 422,365.73066958946418 429,377.85502524244635 443,377.85502524244635 450,389.97938089542851" />
    <polyline points="450,365.73066958946418 464,365.73066958946418 471,377.85502524244635 464,389.97938089542851" />
    <polyline points="485,377.85502524244635 492,365.73066958946418 506,365.73066958946418 513,377.85502524244635 527,377.85502524244635 534,389.97938089542851" />
    <polyline points="527,377.85502524244635 534,365.73066958946418 548,365.73066958946418" />
    <polyline points="548,389.97938089542851 555,377.85502524244635 569,377.85502524244635 576,365.73066958946418" />
    <polyline points="590,365.73066958946418 597,377.85502524244635 590,389.97938089542851" />
    <polyline points="597,377.85502524244635 611,377.85502524244635 618,389.97938089542851" />
    <polyline points="618,365.73066958946418 632,365.73066958946418 639,377.85502524244635 653,377.85502524244635 660,365.73066958946418 674,365.73066958946418 681,377.85502524244635 695,377.85502524244635 702,389.97938089542851" />
    <polyline points="695,377.85502524244635 702,365.73066958946418 716,365.73066958946418 723,377.85502524244635" />
    <polyline points="737,377.85502524244635 744,389.97938089542851 737,402.10373654841067" />
    <polyline points="9,426.35244785437493 2,414.22809220139277 9,402.10373654841061 23,402.10373654841061 30,414.22809220139277" />
    <polyline points="30,389.97938089542845 44,389.97938089542845 51,402.10373654841061 44,414.22809220139277" />
    <polyline points="51,402.10373654841061 65,402.10373654841061 72,414.22809220139277" />
    <polyline points="65,402.10373654841061 72,389.97938089542845 86,389.97938089542845 93,402.10373654841061 107,402.10373654841061 114,414.22809220139277" />
    <polyline points="107,402.10373654841061 114,389.97938089542845 128,389.97938089542845 135,402.10373654841061" />
    <polyline points="156,414.22809220139277 149,402.10373654841061 156,389.97938089542845 170,389.97938089542845" />
    <polyline points="170,414.22809220139277 177,402.10373654841061 191,402.10373654841061 198,414.22809220139277" />
    <line x1="191" y1="402.10373654841061" x2="198" y2="389.97938089542845" />
    <polyline points="212,389.97938089542845 219,402.10373654841061 233,402.10373654841061 240,414.22809220139277" />
    <line x1="233" y1="402.10373654841061" x2="240" y2="389.97938089542845" />
    <polyline points="254,389.97938089542845 261,402.10373654841061 254,414.22809220139277" />
    <polyline points="261,402.10373654841061 275,402.10373654841061 282,389.97938089542845 296,389.97938089542845" />
    <polyline points="296,414.22809220139277 303,402.10373654841061 317,402.10373654841061 324,414.22809220139277" />
    <polyline points="324,389.97938089542845 338,389.97938089542845 345,402.10373654841061 359,402.10373654841061 366,389.97938089542845 380,389.97938089542845 387,402.10373654841061 401,402.10373654841061 408,389.97938089542845 422,389.97938089542845" />
    <polyline points="422,414.22809220139277 429,402.10373654841061 443,402.10373654841061 450,389.97938089542845" />
    <polyline points="464,389.97938089542845 471,402.10373654841061 464,414.22809220139277" />
    <polyline points="471,402.10373654841061 485,402.10373654841061 492,414.22809220139277" />
    <polyline points="485,402.10373654841061 492,389.97938089542845 506,389.97938089542845" />
    <polyline points="506,414.22809220139277 513,402.10373654841061 527,402.10373654841061 534,389.97938089542845" />
    <polyline points="548,414.22809220139277 555,402.10373654841061 569,402.10373654841061 576,414.22809220139277" />
    <polyline points="569,402.10373654841061 576,389.97938089542845 590,389.97938089542845 597,402.10373654841061 590,414.22809220139277" />
    <polyline points="618,414.22809220139277 611,402.10373654841061 618,389.97938089542845 632,389.97938089542845 639,402.10373654841061" />
    <polyline points="653,402.10373654841061 660,389.97938089542845 674,389.97938089542845 681,402.10373654841061 674,414.22809220139277" />
    <polyline points="702,414.22809220139277 695,402.10373654841061 702,389.97938089542845" />
    <polyline points="716,389.97938089542845 723,402.10373654841061 716,414.22809220139277" />
    <polyline points="723,402.10373654841061 737,402.10373654841061 744,414.22809220139277 737,426.35244785437493" />
    <polyline points="9,450.60115916033919 2,438.47680350735703 9,426.35244785437487" />
    <line x1="23" y1="426.35244785437487" x2="30" y2="414.22809220139271" />
    <polyline points="44,414.22809220139271 51,426.35244785437487 44,438.47680350735703" />
    <polyline points="72,438.47680350735703 65,426.35244785437487 72,414.22809220139271 86,414.22809220139271" />
    <polyline points="86,438.47680350735703 93,426.35244785437487 107,426.35244785437487 114,438.47680350735703" />
    <polyline points="128,414.22809220139271 135,426.35244785437487 128,438.47680350735703" />
    <polyline points="135,426.35244785437487 149,426.35244785437487 156,438.47680350735703" />
    <line x1="149" y1="426.35244785437487" x2="156" y2="414.22809220139271" />
    <polyline points="170,414.22809220139271 177,426.35244785437487 170,438.47680350735703" />
    <line x1="191" y1="426.35244785437487" x2="198" y2="438.47680350735703" />
    <polyline points="212,414.22809220139271 219,426.35244785437487 212,438.47680350735703" />
    <polyline points="240,438.47680350735703 233,426.35244785437487 240,414.22809220139271" />
    <polyline points="261,426.35244785437487 275,426.35244785437487 282,438.47680350735703" />
    <polyline points="275,426.35244785437487 282,414.22809220139271 296,414.22809220139271" />
    <line x1="296" y1="438.47680350735703" x2="303" y2="426.35244785437487" />
    <polyline points="317,426.35244785437487 324,414.22809220139271 338,414.22809220139271" />
    <polyline points="338,438.47680350735703 345,426.35244785437487 359,426.35244785437487 366,414.22809220139271 380,414.22809220139271 387,426.35244785437487 401,426.35244785437487 408,438.47680350735703" />
    <polyline points="401,426.35244785437487 408,414.22809220139271 422,414.22809220139271 429,426.35244785437487" />
    <line x1="443" y1="426.35244785437487" x2="450" y2="438.47680350735703" />
    <polyline points="450,414.22809220139271 464,414.22809220139271 471,426.35244785437487 464,438.47680350735703" />
    <line x1="485" y1="426.35244785437487" x2="492" y2="438.47680350735703" />
    <line x1="492" y1="414.22809220139271" x2="506" y2="414.22809220139271" />
    <polyline points="506,438.47680350735703 513,426.35244785437487 527,426.35244785437487 534,414.22809220139271 548,414.22809220139271 555,426.35244785437487" />
    <line x1="569" y1="426.35244785437487" x2="576" y2="438.47680350735703" />
    <polyline points="590,414.22809220139271 597,426.35244785437487 590,438.47680350735703" />
    <line x1="611" y1="426.35244785437487" x2="618" y2="414.22809220139271" />
    <polyline points="632,414.22809220139271 639,426.35244785437487 632,438.47680350735703" />
    <polyline points="639,426.35244785437487 653,426.35244785437487 660,438.47680350735703" />
    <polyline points="653,426.35244785437487 660,414.22809220139271 674,414.22809220139271" />
    <polyline points="681,426.35244785437487 695,426.35244785437487 702,414.22809220139271 716,414.22809220139271 723,426.35244785437487" />
    <polyline points="737,426.35244785437487 744,438.47680350735703 737,450.60115916033919" />
    <polyline points="9,474.84987046630351 2,462.72551481332135 9,450.60115916033919" />
    <polyline points="30,462.72551481332135 23,450.60115916033919 30,438.47680350735703 44,438.47680350735703" />
    <polyline points="51,450.60115916033919 65,450.60115916033919 72,438.47680350735703" />
    <polyline points="93,450.60115916033919 107,450.60115916033919 114,462.72551481332135" />
    <line x1="114" y1="438.47680350735703" x2="128" y2="438.47680350735703" />
    <polyline points="135,450.60115916033919 149,450.60115916033919 156,462.72551481332135" />
    <line x1="149" y1="450.60115916033919" x2="156" y2="438.47680350735703" />
    <polyline points="170,438.47680350735703 177,450.60115916033919 170,462.72551481332135" />
    <polyline points="177,450.60115916033919 191,450.60115916033919 198,462.72551481332135" />
    <line x1="191" y1="450.60115916033919" x2="198" y2="438.47680350735703" />
    <polyline points="212,438.47680350735703 219,450.60115916033919 233,450.60115916033919 240,462.72551481332135" />
    <polyline points="240,438.47680350735703 254,438.47680350735703 261,450.60115916033919 254,462.72551481332135" />
    <polyline points="282,462.72551481332135 275,450.60115916033919 282,438.47680350735703" />
    <polyline points="296,438.47680350735703 303,450.60115916033919 296,462.72551481332135" />
    <polyline points="303,450.60115916033919 317,450.60115916033919 324,462.72551481332135" />
    <line x1="324" y1="438.47680350735703" x2="338" y2="438.47680350735703" />
    <polyline points="338,462.72551481332135 345,450.60115916033919 359,450.60115916033919 366,462.72551481332135" />
    <polyline points="359,450.60115916033919 366,438.47680350735703 380,438.47680350735703 387,450.60115916033919 401,450.60115916033919 408,462.72551481332135" />
    <line x1="401" y1="450.60115916033919" x2="408" y2="438.47680350735703" />
    <polyline points="422,438.47680350735703 429,450.60115916033919 422,462.72551481332135" />
    <line x1="429" y1="450.60115916033919" x2="443" y2="450.60115916033919" />
    <polyline points="450,438.47680350735703 464,438.47680350735703 471,450.60115916033919 464,462.72551481332135" />
    <polyline points="492,462.72551481332135 485,450.60115916033919 492,438.47680350735703" />
    <polyline points="506,438.47680350735703 513,450.60115916033919 506,462.72551481332135" />
    <polyline points="527,450.60115916033919 534,438.47680350735703 548,438.47680350735703 555,450.60115916033919 548,462.72551481332135" />
    <polyline points="555,450.60115916033919 569,450.60115916033919 576,462.72551481332135" />
    <polyline points="569,450.60115916033919 576,438.47680350735703 590,438.47680350735703 597,450.60115916033919" />
    <polyline points="618,462.72551481332135 611,450.60115916033919 618,438.47680350735703 632,438.47680350735703" />
    <polyline points="632,462.72551481332135 639,450.60115916033919 653,450.60115916033919 660,462.72551481332135" />
    <polyline points="660,438.47680350735703 674,438.47680350735703 681,450.60115916033919 695,450.60115916033919 702,462.72551481332135" />
    <polyline points="695,450.60115916033919 702,438.47680350735703 716,438.47680350735703" />
    <polyline points="723,450.60115916033919 737,450.60115916033919 744,462.72551481332135 737,474.84987046630351" />
    <polyline points="9,499.09858177226778 2,486.97422611928562 9,474.84987046630346 23,474.84987046630346" />
    <polyline points="44,462.7255148133213 51,474.84987046630346 44,486.97422611928562" />
    <polyline points="51,474.84987046630346 65,474.84987046630346 72,486.97422611928562" />
    <polyline points="72,462.7255148133213 86,462.7255148133213 93,474.84987046630346 86,486.97422611928562" />
    <polyline points="93,474.84987046630346 107,474.84987046630346 114,486.97422611928562" />
    <polyline points="114,462.7255148133213 128,462.7255148133213 135,474.84987046630346 128,486.97422611928562" />
    <polyline points="135,474.84987046630346 149,474.84987046630346 156,486.97422611928562" />
    <line x1="149" y1="474.84987046630346" x2="156" y2="462.7255148133213" />
    <polyline points="170,486.97422611928562 177,474.84987046630346 191,474.84987046630346 198,486.97422611928562" />
    <polyline points="198,462.7255148133213 212,462.7255148133213 219,474.84987046630346 212,486.97422611928562" />
    <polyline points="240,486.97422611928562 233,474.84987046630346 240,462.7255148133213" />
    <polyline points="254,462.7255148133213 261,474.84987046630346 275,474.84987046630346 282,486.97422611928562" />
    <line x1="275" y1="474.84987046630346" x2="282" y2="462.7255148133213" />
    <polyline points="296,462.7255148133213 303,474.84987046630346 296,486.97422611928562" />
    <line x1="317" y1="474.84987046630346" x2="324" y2="486.97422611928562" />
    <line x1="324" y1="462.7255148133213" x2="338" y2="462.7255148133213" />
    <polyline points="338,486.97422611928562 345,474.84987046630346 359,474.84987046630346 366,486.97422611928562" />
    <polyline points="380,462.7255148133213 387,474.84987046630346 380,486.97422611928562" />
    <polyline points="387,474.84987046630346 401,474.84987046630346 408,486.97422611928562" />
    <line x1="408" y1="462.7255148133213" x2="422" y2="462.7255148133213" />
    <polyline points="422,486.97422611928562 429,474.84987046630346 443,474.84987046630346 450,462.7255148133213 464,462.7255148133213 471,474.84987046630346 464,486.97422611928562" />
    <polyline points="492,486.97422611928562 485,474.84987046630346 492,462.7255148133213" />
    <polyline points="506,462.7255148133213 513,474.84987046630346 527,474.84987046630346 534,486.97422611928562" />
    <line x1="527" y1="474.84987046630346" x2="534" y2="462.7255148133213" />
    <polyline points="548,486.97422611928562 555,474.84987046630346 569,474.84987046630346 576,486.97422611928562" />
    <polyline points="576,462.7255148133213 590,462.7255148133213 597,474.84987046630346 611,474.84987046630346 618,462.7255148133213 632,462.7255148133213 639,474.84987046630346 632,486.97422611928562" />
    <line x1="653" y1="474.84987046630346" x2="660" y2="486.97422611928562" />
    <polyline points="660,462.7255148133213 674,462.7255148133213 681,474.84987046630346 674,486.97422611928562" />
    <polyline points="695,474.84987046630346 702,462.7255148133213 716,462.7255148133213" />
    <polyline points="716,486.97422611928562 723,474.84987046630346 737,474.84987046630346 744,486.97422611928562 737,499.09858177226778" />
    <polyline points="9,523.347293078232 2,511.22293742524988 9,499.09858177226772" />
    <polyline points="23,499.09858177226772 30,486.97422611928556 44,486.97422611928556" />
    <polyline points="44,511.22293742524988 51,499.09858177226772 65,499.09858177226772 72,486.97422611928556" />
    <polyline points="86,486.97422611928556 93,499.09858177226772 86,511.22293742524988" />
    <polyline points="114,511.22293742524988 107,499.09858177226772 114,486.97422611928556 128,486.97422611928556 135,499.09858177226772" />
    <line x1="149" y1="499.09858177226772" x2="156" y2="511.22293742524988" />
    <polyline points="170,486.97422611928556 177,499.09858177226772 170,511.22293742524988" />
    <line x1="177" y1="499.09858177226772" x2="191" y2="499.09858177226772" />
    <polyline points="198,486.97422611928556 212,486.97422611928556 219,499.09858177226772 212,511.22293742524988" />
    <line x1="219" y1="499.09858177226772" x2="233" y2="499.09858177226772" />
    <polyline points="240,486.97422611928556 254,486.97422611928556 261,499.09858177226772 254,511.22293742524988" />
    <polyline points="261,499.09858177226772 275,499.09858177226772 282,511.22293742524988" />
    <polyline points="296,511.22293742524988 303,499.09858177226772 317,499.09858177226772 324,486.97422611928556 338,486.97422611928556" />
    <line x1="338" y1="511.22293742524988" x2="345" y2="499.09858177226772" />
    <line x1="359" y1="499.09858177226772" x2="366" y2="511.22293742524988" />
    <polyline points="380,511.22293742524988 387,499.09858177226772 401,499.09858177226772 408,511.22293742524988" />
    <line x1="401" y1="499.09858177226772" x2="408" y2="486.97422611928556" />
    <line x1="422" y1="486.97422611928556" x2="429" y2="499.09858177226772" />
    <polyline points="443,499.09858177226772 450,486.97422611928556 464,486.97422611928556 471,499.09858177226772 464,511.22293742524988" />
    <polyline points="471,499.09858177226772 485,499.09858177226772 492,511.22293742524988" />
    <polyline points="485,499.09858177226772 492,486.97422611928556 506,486.97422611928556 513,499.09858177226772 506,511.22293742524988" />
    <polyline points="513,499.09858177226772 527,499.09858177226772 534,511.22293742524988" />
    <polyline points="527,499.09858177226772 534,486.97422611928556 548,486.97422611928556" />
    <polyline points="548,511.22293742524988 555,499.09858177226772 569,499.09858177226772 576,511.22293742524988" />
    <polyline points="590,486.97422611928556 597,499.09858177226772 590,511.22293742524988" />
    <polyline points="611,499.09858177226772 618,486.97422611928556 632,486.97422611928556 639,499.09858177226772 653,499.09858177226772 660,511.22293742524988" />
    <line x1="653" y1="499.09858177226772" x2="660" y2="486.97422611928556" />
    <polyline points="674,486.97422611928556 681,499.09858177226772 695,499.09858177226772" />
    <polyline points="702,486.97422611928556 716,486.97422611928556 723,499.09858177226772 716,511.22293742524988" />
    <polyline points="737,499.09858177226772 744,511.22293742524988 737,523.347293078232" />
    <polyline points="9,547.59600438419625 2,535.47164873121415 9,523.347293078232 23,523.347293078232 30,511.22293742524988 44,511.22293742524988" />
    <polyline points="51,523.347293078232 65,523.347293078232 72,535.47164873121415" />
    <polyline points="65,523.347293078232 72,511.22293742524988 86,511.22293742524988" />
    <polyline points="86,535.47164873121415 93,523.347293078232 107,523.347293078232 114,511.22293742524988" />
    <polyline points="128,511.22293742524988 135,523.347293078232 128,535.47164873121415" />
    <polyline points="135,523.347293078232 149,523.347293078232 156,535.47164873121415" />
    <polyline points="149,523.347293078232 156,511.22293742524988 170,511.22293742524988" />
    <polyline points="170,535.47164873121415 177,523.347293078232 191,523.347293078232" />
    <polyline points="198,511.22293742524988 212,511.22293742524988 219,523.347293078232 212,535.47164873121415" />
    <polyline points="219,523.347293078232 233,523.347293078232 240,535.47164873121415" />
    <polyline points="240,511.22293742524988 254,511.22293742524988 261,523.347293078232 254,535.47164873121415" />
    <line x1="275" y1="523.347293078232" x2="282" y2="535.47164873121415" />
    <polyline points="282,511.22293742524988 296,511.22293742524988 303,523.347293078232 317,523.347293078232" />
    <polyline points="324,511.22293742524988 338,511.22293742524988 345,523.347293078232 338,535.47164873121415" />
    <polyline points="345,523.347293078232 359,523.347293078232 366,535.47164873121415" />
    <line x1="366" y1="511.22293742524988" x2="380" y2="511.22293742524988" />
    <polyline points="387,523.347293078232 401,523.347293078232 408,535.47164873121415" />
    <polyline points="408,511.22293742524988 422,511.22293742524988 429,523.347293078232 443,523.347293078232 450,535.47164873121415" />
    <line x1="443" y1="523.347293078232" x2="450" y2="511.22293742524988" />
    <line x1="464" y1="535.47164873121415" x2="471" y2="523.347293078232" />
    <polyline points="492,535.47164873121415 485,523.347293078232 492,511.22293742524988" />
    <line x1="506" y1="535.47164873121415" x2="513" y2="523.347293078232" />
    <line x1="527" y1="523.347293078232" x2="534" y2="511.22293742524988" />
    <polyline points="548,511.22293742524988 555,523.347293078232 548,535.47164873121415" />
    <polyline points="555,523.347293078232 569,523.347293078232 576,535.47164873121415" />
    <polyline points="576,511.22293742524988 590,511.22293742524988 597,523.347293078232 611,523.347293078232 618,511.22293742524988 632,511.22293742524988 639,523.347293078232 632,535.47164873121415" />
    <line x1="639" y1="523.347293078232" x2="653" y2="523.347293078232" />
    <polyline points="660,511.22293742524988 674,511.22293742524988 681,523.347293078232 674,535.47164873121415" />
    <polyline points="681,523.347293078232 695,523.347293078232 702,535.47164873121415" />
    <polyline points="702,511.22293742524988 716,511.22293742524988 723,523.347293078232 716,535.47164873121415" />
    <polyline points="737,523.347293078232 744,535.47164873121415 737,547.59600438419625" />
    <polyline points="9,571.84471569016046 2,559.72036003717835 9,547.59600438419625" />
    <polyline points="30,559.72036003717835 23,547.59600438419625 30,535.47164873121415 44,535.47164873121415" />
    <polyline points="44,559.72036003717835 51,547.59600438419625 65,547.59600438419625 72,559.72036003717835" />
    <line x1="65" y1="547.59600438419625" x2="72" y2="535.47164873121415" />
    <line x1="86" y1="559.72036003717835" x2="93" y2="547.59600438419625" />
    <polyline points="114,559.72036003717835 107,547.59600438419625 114,535.47164873121415 128,535.47164873121415 135,547.59600438419625" />
    <line x1="149" y1="547.59600438419625" x2="156" y2="559.72036003717835" />
    <polyline points="170,535.47164873121415 177,547.59600438419625 170,559.72036003717835" />
    <polyline points="198,559.72036003717835 191,547.59600438419625 198,535.47164873121415 212,535.47164873121415" />
    <line x1="212" y1="559.72036003717835" x2="219" y2="547.59600438419625" />
    <polyline points="240,559.72036003717835 233,547.59600438419625 240,535.47164873121415 254,535.47164873121415" />
    <line x1="254" y1="559.72036003717835" x2="261" y2="547.59600438419625" />
    <line x1="275" y1="547.59600438419625" x2="282" y2="559.72036003717835" />
    <polyline points="282,535.47164873121415 296,535.47164873121415 303,547.59600438419625 317,547.59600438419625 324,559.72036003717835" />
    <polyline points="317,547.59600438419625 324,535.47164873121415 338,535.47164873121415" />
    <polyline points="338,559.72036003717835 345,547.59600438419625 359,547.59600438419625 366,535.47164873121415 380,535.47164873121415 387,547.59600438419625" />
    <polyline points="408,559.72036003717835 401,547.59600438419625 408,535.47164873121415 422,535.47164873121415 429,547.59600438419625 443,547.59600438419625 450,559.72036003717835" />
    <polyline points="450,535.47164873121415 464,535.47164873121415 471,547.59600438419625 464,559.72036003717835" />
    <polyline points="471,547.59600438419625 485,547.59600438419625 492,535.47164873121415" />
    <polyline points="506,535.47164873121415 513,547.59600438419625 506,559.72036003717835" />
    <polyline points="513,547.59600438419625 527,547.59600438419625 534,535.47164873121415 548,535.47164873121415 555,547.59600438419625" />
    <line x1="569" y1="547.59600438419625" x2="576" y2="559.72036003717835" />
    <line x1="576" y1="535.47164873121415" x2="590" y2="535.47164873121415" />
    <polyline points="590,559.72036003717835 597,547.59600438419625 611,547.59600438419625 618,535.47164873121415 632,535.47164873121415 639,547.59600438419625 632,559.72036003717835" />
    <polyline points="653,547.59600438419625 660,535.47164873121415 674,535.47164873121415" />
    <polyline points="674,559.72036003717835 681,547.59600438419625 695,547.59600438419625 702,559.72036003717835" />
    <line x1="716" y1="559.72036003717835" x2="723" y2="547.59600438419625" />
    <polyline points="737,547.59600438419625 744,559.72036003717835 737,571.84471569016046" />
    <polyline points="9,596.09342699612489 2,583.96907134314279 9,571.84471569016068" />
    <polyline points="30,583.96907134314279 23,571.84471569016068 30,559.72036003717858" />
    <line x1="44" y1="559.72036003717858" x2="51" y2="571.84471569016068" />
    <line x1="65" y1="571.84471569016068" x2="72" y2="583.96907134314279" />
    <polyline points="72,559.72036003717858 86,559.72036003717858 93,571.84471569016068 107,571.84471569016068 114,583.96907134314279" />
    <polyline points="114,559.72036003717858 128,559.72036003717858 135,571.84471569016068 149,571.84471569016068 156,583.96907134314279" />
    <line x1="149" y1="571.84471569016068" x2="156" y2="559.72036003717858" />
    <polyline points="170,559.72036003717858 177,571.84471569016068 170,583.96907134314279" />
    <polyline points="191,571.84471569016068 198,559.72036003717858 212,559.72036003717858 219,571.84471569016068" />
    <line x1="233" y1="571.84471569016068" x2="240" y2="583.96907134314279" />
    <polyline points="240,559.72036003717858 254,559.72036003717858 261,571.84471569016068 275,571.84471569016068 282,583.96907134314279" />
    <polyline points="275,571.84471569016068 282,559.72036003717858 296,559.72036003717858" />
    <polyline points="303,571.84471569016068 317,571.84471569016068 324,583.96907134314279" />
    <polyline points="338,559.72036003717858 345,571.84471569016068 359,571.84471569016068 366,583.96907134314279" />
    <polyline points="359,571.84471569016068 366,559.72036003717858 380,559.72036003717858 387,571.84471569016068 380,583.96907134314279" />
    <polyline points="387,571.84471569016068 401,571.84471569016068 408,559.72036003717858" />
    <polyline points="422,559.72036003717858 429,571.84471569016068 422,583.96907134314279" />
    <polyline points="450,583.96907134314279 443,571.84471569016068 450,559.72036003717858" />
    <line x1="464" y1="559.72036003717858" x2="471" y2="571.84471569016068" />
    <polyline points="492,583.96907134314279 485,571.84471569016068 492,559.72036003717858 506,559.72036003717858" />
    <polyline points="513,571.84471569016068 527,571.84471569016068 534,559.72036003717858 548,559.72036003717858 555,571.84471569016068 569,571.84471569016068 576,583.96907134314279" />
    <polyline points="569,571.84471569016068 576,559.72036003717858 590,559.72036003717858" />
    <polyline points="597,571.84471569016068 611,571.84471569016068 618,583.96907134314279" />
    <line x1="611" y1="571.84471569016068" x2="618" y2="559.72036003717858" />
    <polyline points="632,559.72036003717858 639,571.84471569016068 653,571.84471569016068" />
    <polyline points="660,559.72036003717858 674,559.72036003717858 681,571.84471569016068 674,583.96907134314279" />
    <polyline points="702,583.96907134314279 695,571.84471569016068 702,559.72036003717858" />
    <polyline points="716,559.72036003717858 723,571.84471569016068 716,583.96907134314279" />
    <polyline points="737,571.84471569016068 744,583.96907134314279 737,596.09342699612489" />
    <polyline points="9,620.3421383020891 2,608.217782649107 9,596.09342699612489" />
    <polyline points="30,608.217782649107 23,596.09342699612489 30,583.96907134314279 44,583.96907134314279 51,596.09342699612489 65,596.09342699612489 72,608.217782649107" />
    <polyline points="65,596.09342699612489 72,583.96907134314279 86,583.96907134314279 93,596.09342699612489 86,608.217782649107" />
    <line x1="107" y1="596.09342699612489" x2="114" y2="608.217782649107" />
    <polyline points="114,583.96907134314279 128,583.96907134314279 135,596.09342699612489 128,608.217782649107" />
    <polyline points="156,608.217782649107 149,596.09342699612489 156,583.96907134314279" />
    <polyline points="170,583.96907134314279 177,596.09342699612489 170,608.217782649107" />
    <polyline points="191,596.09342699612489 198,583.96907134314279 212,583.96907134314279 219,596.09342699612489 212,608.217782649107" />
    <polyline points="219,596.09342699612489 233,596.09342699612489 240,608.217782649107" />
    <polyline points="233,596.09342699612489 240,583.96907134314279 254,583.96907134314279 261,596.09342699612489 254,608.217782649107" />
    <polyline points="261,596.09342699612489 275,596.09342699612489 282,608.217782649107" />
    <polyline points="282,583.96907134314279 296,583.96907134314279 303,596.09342699612489 296,608.217782649107" />
    <polyline points="317,596.09342699612489 324,583.96907134314279 338,583.96907134314279 345,596.09342699612489 338,608.217782649107" />
    <polyline points="345,596.09342699612489 359,596.09342699612489 366,608.217782649107" />
    <polyline points="380,583.96907134314279 387,596.09342699612489 380,608.217782649107" />
    <polyline points="408,608.217782649107 401,596.09342699612489 408,583.96907134314279 422,583.96907134314279" />
    <polyline points="422,608.217782649107 429,596.09342699612489 443,596.09342699612489 450,583.96907134314279 464,583.96907134314279 471,596.09342699612489 464,608.217782649107" />
    <polyline points="471,596.09342699612489 485,596.09342699612489 492,583.96907134314279 506,583.96907134314279 513,596.09342699612489 527,596.09342699612489 534,608.217782649107" />
    <polyline points="527,596.09342699612489 534,583.96907134314279 548,583.96907134314279" />
    <polyline points="548,608.217782649107 555,596.09342699612489 569,596.09342699612489 576,608.217782649107" />
    <polyline points="569,596.09342699612489 576,583.96907134314279 590,583.96907134314279" />
    <polyline points="597,596.09342699612489 611,596.09342699612489 618,608.217782649107" />
    <polyline points="618,583.96907134314279 632,583.96907134314279 639,596.09342699612489 632,608.217782649107" />
    <polyline points="660,608.217782649107 653,596.09342699612489 660,583.96907134314279 674,583.96907134314279" />
    <line x1="674" y1="608.217782649107" x2="681" y2="596.09342699612489" />
    <line x1="695" y1="596.09342699612489" x2="702" y2="583.96907134314279" />
    <polyline points="716,583.96907134314279 723,596.09342699612489 737,596.09342699612489 744,608.217782649107 737,620.3421383020891" />
    <polyline points="9,644.5908496080533 2,632.4664939550712 9,620.3421383020891" />
    <line x1="23" y1="620.3421383020891" x2="30" y2="608.217782649107" />
    <polyline points="44,608.217782649107 51,620.3421383020891 44,632.4664939550712" />
    <polyline points="51,620.3421383020891 65,620.3421383020891 72,608.217782649107" />
    <polyline points="86,608.217782649107 93,620.3421383020891 86,632.4664939550712" />
    <polyline points="93,620.3421383020891 107,620.3421383020891 114,608.217782649107" />
    <polyline points="128,608.217782649107 135,620.3421383020891 128,632.4664939550712" />
    <polyline points="135,620.3421383020891 149,620.3421383020891 156,632.4664939550712" />
    <polyline points="156,608.217782649107 170,608.217782649107 177,620.3421383020891 191,620.3421383020891 198,608.217782649107" />
    <polyline points="212,608.217782649107 219,620.3421383020891 212,632.4664939550712" />
    <line x1="219" y1="620.3421383020891" x2="233" y2="620.3421383020891" />
    <polyline points="254,608.217782649107 261,620.3421383020891 254,632.4664939550712" />
    <line x1="261" y1="620.3421383020891" x2="275" y2="620.3421383020891" />
    <polyline points="282,608.217782649107 296,608.217782649107 303,620.3421383020891 296,632.4664939550712" />
    <polyline points="303,620.3421383020891 317,620.3421383020891 324,632.4664939550712" />
    <line x1="317" y1="620.3421383020891" x2="324" y2="608.217782649107" />
    <polyline points="338,632.4664939550712 345,620.3421383020891 359,620.3421383020891" />
    <polyline points="366,608.217782649107 380,608.217782649107 387,620.3421383020891 380,632.4664939550712" />
    <polyline points="408,632.4664939550712 401,620.3421383020891 408,608.217782649107" />
    <polyline points="422,608.217782649107 429,620.3421383020891 422,632.4664939550712" />
    <polyline points="429,620.3421383020891 443,620.3421383020891 450,632.4664939550712" />
    <line x1="450" y1="608.217782649107" x2="464" y2="608.217782649107" />
    <polyline points="464,632.4664939550712 471,620.3421383020891 485,620.3421383020891 492,608.217782649107 506,608.217782649107" />
    <polyline points="506,632.4664939550712 513,620.3421383020891 527,620.3421383020891 534,608.217782649107" />
    <polyline points="548,608.217782649107 555,620.3421383020891 548,632.4664939550712" />
    <line x1="569" y1="620.3421383020891" x2="576" y2="632.4664939550712" />
    <polyline points="576,608.217782649107 590,608.217782649107 597,620.3421383020891 590,632.4664939550712" />
    <polyline points="618,632.4664939550712 611,620.3421383020891 618,608.217782649107" />
    <polyline points="632,608.217782649107 639,620.3421383020891 632,632.4664939550712" />
    <polyline points="639,620.3421383020891 653,620.3421383020891 660,608.217782649107 674,608.217782649107 681,620.3421383020891 695,620.3421383020891 702,632.4664939550712" />
    <polyline points="695,620.3421383020891 702,608.217782649107 716,608.217782649107 723,620.3421383020891" />
    <polyline points="737,620.3421383020891 744,632.4664939550712 737,644.5908496080533" />
    <polyline points="9,644.59084960805353 23,644.59084960805353 30,656.71520526103563" />
    <polyline points="30,632.46649395507143 44,632.46649395507143 51,644.59084960805353 44,656.71520526103563" />
    <line x1="51" y1="644.59084960805353" x2="65" y2="644.59084960805353" />
    <polyline points="72,632.46649395507143 86,632.46649395507143 93,644.59084960805353 86,656.71520526103563" />
    <polyline points="114,656.71520526103563 107,644.59084960805353 114,632.46649395507143 128,632.46649395507143" />
    <polyline points="135,644.59084960805353 149,644.59084960805353 156,656.71520526103563" />
    <polyline points="156,632.46649395507143 170,632.46649395507143 177,644.59084960805353 191,644.59084960805353 198,656.71520526103563" />
    <line x1="191" y1="644.59084960805353" x2="198" y2="632.46649395507143" />
    <polyline points="212,632.46649395507143 219,644.59084960805353 212,656.71520526103563" />
    <polyline points="233,644.59084960805353 240,632.46649395507143 254,632.46649395507143" />
    <polyline points="254,656.71520526103563 261,644.59084960805353 275,644.59084960805353" />
    <polyline points="282,632.46649395507143 296,632.46649395507143 303,644.59084960805353 296,656.71520526103563" />
    <polyline points="317,644.59084960805353 324,632.46649395507143 338,632.46649395507143 345,644.59084960805353 338,656.71520526103563" />
    <line x1="345" y1="644.59084960805353" x2="359" y2="644.59084960805353" />
    <polyline points="366,632.46649395507143 380,632.46649395507143 387,644.59084960805353 380,656.71520526103563" />
    <polyline points="408,656.71520526103563 401,644.59084960805353 408,632.46649395507143" />
    <line x1="422" y1="656.71520526103563" x2="429" y2="644.59084960805353" />
    <polyline points="450,656.71520526103563 443,644.59084960805353 450,632.46649395507143 464,632.46649395507143" />
    <polyline points="471,644.59084960805353 485,644.59084960805353 492,656.71520526103563" />
    <polyline points="485,644.59084960805353 492,632.46649395507143 506,632.46649395507143" />
    <polyline points="506,656.71520526103563 513,644.59084960805353 527,644.59084960805353 534,656.71520526103563" />
    <line x1="527" y1="644.59084960805353" x2="534" y2="632.46649395507143" />
    <line x1="548" y1="656.71520526103563" x2="555" y2="644.59084960805353" />
    <polyline points="576,656.71520526103563 569,644.59084960805353 576,632.46649395507143" />
    <polyline points="590,656.71520526103563 597,644.59084960805353 611,644.59084960805353 618,656.71520526103563" />
    <polyline points="611,644.59084960805353 618,632.46649395507143 632,632.46649395507143 639,644.59084960805353 653,644.59084960805353 660,656.71520526103563" />
    <polyline points="660,632.46649395507143 674,632.46649395507143 681,644.59084960805353 674,656.71520526103563" />
    <polyline points="702,656.71520526103563 695,644.59084960805353 702,632.46649395507143" />
    <polyline points="716,632.46649395507143 723,644.59084960805353 716,656.71520526103563" />
    <line x1="723" y1="644.59084960805353" x2="737" y2="644.59084960805353" />
    <polyline points="30,656.71520526103563 44,656.71520526103563 51,668.83956091401774 65,668.83956091401774 72,680.96391656699984" />
    <polyline points="72,656.71520526103563 86,656.71520526103563 93,668.83956091401774" />
    <polyline points="114,680.96391656699984 107,668.83956091401774 114,656.71520526103563 128,656.71520526103563" />
    <line x1="128" y1="680.96391656699984" x2="135" y2="668.83956091401774" />
    <polyline points="156,680.96391656699984 149,668.83956091401774 156,656.71520526103563 170,656.71520526103563" />
    <polyline points="177,668.83956091401774 191,668.83956091401774 198,680.96391656699984" />
    <line x1="191" y1="668.83956091401774" x2="198" y2="656.71520526103563" />
    <polyline points="212,680.96391656699984 219,668.83956091401774 233,668.83956091401774 240,680.96391656699984" />
    <polyline points="240,656.71520526103563 254,656.71520526103563 261,668.83956091401774 254,680.96391656699984" />
    <polyline points="275,668.83956091401774 282,656.71520526103563 296,656.71520526103563 303,668.83956091401774 296,680.96391656699984" />
    <polyline points="324,680.96391656699984 317,668.83956091401774 324,656.71520526103563" />
    <polyline points="338,680.96391656699984 345,668.83956091401774 359,668.83956091401774 366,680.96391656699984" />
    <polyline points="359,668.83956091401774 366,656.71520526103563 380,656.71520526103563 387,668.83956091401774" />
    <polyline points="408,680.96391656699984 401,668.83956091401774 408,656.71520526103563 422,656.71520526103563" />
    <polyline points="422,680.96391656699984 429,668.83956091401774 443,668.83956091401774 450,656.71520526103563 464,656.71520526103563" />
    <polyline points="464,680.96391656699984 471,668.83956091401774 485,668.83956091401774 492,680.96391656699984" />
    <line x1="485" y1="668.83956091401774" x2="492" y2="656.71520526103563" />
    <polyline points="506,680.96391656699984 513,668.83956091401774 527,668.83956091401774" />
    <polyline points="534,656.71520526103563 548,656.71520526103563 555,668.83956091401774 548,680.96391656699984" />
    <polyline points="576,680.96391656699984 569,668.83956091401774 576,656.71520526103563 590,656.71520526103563" />
    <polyline points="597,668.83956091401774 611,668.83956091401774 618,656.71520526103563" />
    <polyline points="632,656.71520526103563 639,668.83956091401774 632,680.96391656699984" />
    <line x1="653" y1="668.83956091401774" x2="660" y2="680.96391656699984" />
    <polyline points="674,656.71520526103563 681,668.83956091401774 674,680.96391656699984" />
    <polyline points="681,668.83956091401774 695,668.83956091401774 702,656.71520526103563 716,656.71520526103563" />
    <polyline points="72,680.96391656699984 86,680.96391656699984 93,693.088272219982 107,693.088272219982 114,705.212627872964" />
    <polyline points="114,680.96391656699984 128,680.96391656699984 135,693.088272219982 149,693.088272219982 156,680.96391656699984 170,680.96391656699984 177,693.088272219982 170,705.212627872964" />
    <polyline points="198,705.212627872964 191,693.088272219982 198,680.96391656699984 212,680.96391656699984" />
    <polyline points="219,693.088272219982 233,693.088272219982 240,680.96391656699984" />
    <polyline points="254,680.96391656699984 261,693.088272219982 254,705.212627872964" />
    <polyline points="261,693.088272219982 275,693.088272219982 282,705.212627872964" />
    <line x1="275" y1="693.088272219982" x2="282" y2="680.96391656699984" />
    <polyline points="296,680.96391656699984 303,693.088272219982 296,705.212627872964" />
    <polyline points="324,705.212627872964 317,693.088272219982 324,680.96391656699984 338,680.96391656699984" />
    <polyline points="338,705.212627872964 345,693.088272219982 359,693.088272219982" />
    <polyline points="366,680.96391656699984 380,680.96391656699984 387,693.088272219982 380,705.212627872964" />
    <polyline points="408,705.212627872964 401,693.088272219982 408,680.96391656699984" />
    <polyline points="422,705.212627872964 429,693.088272219982 443,693.088272219982 450,705.212627872964" />
    <line x1="450" y1="680.96391656699984" x2="464" y2="680.96391656699984" />
    <polyline points="464,705.212627872964 471,693.088272219982 485,693.088272219982" />
    <line x1="492" y1="680.96391656699984" x2="506" y2="680.96391656699984" />
    <polyline points="506,705.212627872964 513,693.088272219982 527,693.088272219982 534,680.96391656699984 548,680.96391656699984 555,693.088272219982 548,705.212627872964" />
    <polyline points="555,693.088272219982 569,693.088272219982 576,705.212627872964" />
    <polyline points="576,680.96391656699984 590,680.96391656699984 597,693.088272219982 611,693.088272219982 618,680.96391656699984 632,680.96391656699984" />
    <polyline points="632,705.212627872964 639,693.088272219982 653,693.088272219982 660,680.96391656699984 674,680.96391656699984" />
    <polyline points="114,705.21262787296428 128,705.21262787296428 135,717.33698352594638 149,717.33698352594638 156,729.46133917892848" />
    <line x1="149" y1="717.33698352594638" x2="156" y2="705.21262787296428" />
    <line x1="170" y1="705.21262787296428" x2="177" y2="717.33698352594638" />
    <line x1="191" y1="717.33698352594638" x2="198" y2="705.21262787296428" />
    <polyline points="212,705.21262787296428 219,717.33698352594638 212,729.46133917892848" />
    <polyline points="219,717.33698352594638 233,717.33698352594638 240,729.46133917892848" />
    <polyline points="233,717.33698352594638 240,705.21262787296428 254,705.21262787296428 261,717.33698352594638 275,717.33698352594638 282,729.46133917892848" />
    <line x1="282" y1="705.21262787296428" x2="296" y2="705.21262787296428" />
    <polyline points="303,717.33698352594638 317,717.33698352594638 324,729.46133917892848" />
    <line x1="317" y1="717.33698352594638" x2="324" y2="705.21262787296428" />
    <polyline points="338,705.21262787296428 345,717.33698352594638 338,729.46133917892848" />
    <polyline points="345,717.33698352594638 359,717.33698352594638 366,729.46133917892848" />
    <polyline points="359,717.33698352594638 366,705.21262787296428 380,705.21262787296428" />
    <polyline points="387,717.33698352594638 401,717.33698352594638 408,729.46133917892848" />
    <polyline points="401,717.33698352594638 408,705.21262787296428 422,705.21262787296428 429,717.33698352594638 443,717.33698352594638 450,729.46133917892848" />
    <polyline points="450,705.21262787296428 464,705.21262787296428 471,717.33698352594638 464,729.46133917892848" />
    <polyline points="471,717.33698352594638 485,717.33698352594638 492,729.46133917892848" />
    <line x1="492" y1="705.21262787296428" x2="506" y2="705.21262787296428" />
    <polyline points="506,729.46133917892848 513,717.33698352594638 527,717.33698352594638 534,705.21262787296428 548,705.21262787296428 555,717.33698352594638" />
    <line x1="569" y1="717.33698352594638" x2="576" y2="729.46133917892848" />
    <line x1="576" y1="705.21262787296428" x2="590" y2="705.21262787296428" />
    <polyline points="590,729.46133917892848 597,717.33698352594638 611,717.33698352594638 618,705.21262787296428 632,705.21262787296428" />
    <polyline points="156,729.46133917892848 170,729.46133917892848 177,741.58569483191059 191,741.58569483191059 198,753.71005048489269" />
    <line x1="191" y1="741.58569483191059" x2="198" y2="729.46133917892848" />
    <line x1="212" y1="753.71005048489269" x2="219" y2="741.58569483191059" />
    <polyline points="240,753.71005048489269 233,741.58569483191059 240,729.46133917892848 254,729.46133917892848" />
    <polyline points="261,741.58569483191059 275,741.58569483191059 282,729.46133917892848 296,729.46133917892848" />
    <polyline points="296,753.71005048489269 303,741.58569483191059 317,741.58569483191059 324,753.71005048489269" />
    <line x1="317" y1="741.58569483191059" x2="324" y2="729.46133917892848" />
    <polyline points="338,753.71005048489269 345,741.58569483191059 359,741.58569483191059 366,753.71005048489269" />
    <line x1="366" y1="729.46133917892848" x2="380" y2="729.46133917892848" />
    <polyline points="387,741.58569483191059 401,741.58569483191059 408,729.46133917892848" />
    <polyline points="422,729.46133917892848 429,741.58569483191059 422,753.71005048489269" />
    <polyline points="429,741.58569483191059 443,741.58569483191059 450,753.71005048489269" />
    <polyline points="464,753.71005048489269 471,741.58569483191059 485,741.58569483191059 492,729.46133917892848 506,729.46133917892848 513,741.58569483191059 506,753.71005048489269" />
    <line x1="513" y1="741.58569483191059" x2="527" y2="741.58569483191059" />
    <polyline points="534,729.46133917892848 548,729.46133917892848 555,741.58569483191059 548,753.71005048489269" />
    <polyline points="555,741.58569483191059 569,741.58569483191059 576,729.46133917892848 590,729.46133917892848" />
    <polyline points="198,753.71005048489269 212,753.71005048489269 219,765.83440613787479 233,765.83440613787479 240,777.9587617908569" />
    <polyline points="254,753.71005048489269 261,765.83440613787479 254,777.9587617908569" />
    <line x1="275" y1="765.83440613787479" x2="282" y2="777.9587617908569" />
    <polyline points="282,753.71005048489269 296,753.71005048489269 303,765.83440613787479 296,777.9587617908569" />
    <line x1="317" y1="765.83440613787479" x2="324" y2="777.9587617908569" />
    <line x1="324" y1="753.71005048489269" x2="338" y2="753.71005048489269" />
    <polyline points="338,777.9587617908569 345,765.83440613787479 359,765.83440613787479" />
    <polyline points="366,753.71005048489269 380,753.71005048489269 387,765.83440613787479 380,777.9587617908569" />
    <polyline points="387,765.83440613787479 401,765.83440613787479 408,753.71005048489269 422,753.71005048489269" />
    <polyline points="422,777.9587617908569 429,765.83440613787479 443,765.83440613787479" />
    <polyline points="450,753.71005048489269 464,753.71005048489269 471,765.83440613787479 464,777.9587617908569" />
    <line x1="471" y1="765.83440613787479" x2="485" y2="765.83440613787479" />
    <line x1="492" y1="753.71005048489269" x2="506" y2="753.71005048489269" />
    <polyline points="506,777.9587617908569 513,765.83440613787479 527,765.83440613787479 534,753.71005048489269 548,753.71005048489269" />
    <polyline points="240,777.95876179085712 254,777.95876179085712 261,790.08311744383923 275,790.08311744383923 282,802.20747309682133" />
    <line x1="282" y1="777.95876179085712" x2="296" y2="777.95876179085712" />
    <line x1="296" y1="802.20747309682133" x2="303" y2="790.08311744383923" />
    <polyline points="317,790.08311744383923 324,777.95876179085712 338,777.95876179085712 345,790.08311744383923 338,802.20747309682133" />
    <polyline points="345,790.08311744383923 359,790.08311744383923 366,802.20747309682133" />
    <polyline points="366,777.95876179085712 380,777.95876179085712 387,790.08311744383923 401,790.08311744383923" />
    <polyline points="408,777.95876179085712 422,777.95876179085712 429,790.08311744383923 422,802.20747309682133" />
    <polyline points="429,790.08311744383923 443,790.08311744383923 450,777.95876179085712" />
    <polyline points="464,777.95876179085712 471,790.08311744383923 464,802.20747309682133" />
    <polyline points="471,790.08311744383923 485,790.08311744383923 492,777.95876179085712 506,777.95876179085712" />
    <polyline points="282,802.20747309682133 296,802.20747309682133 303,814.33182874980344 317,814.33182874980344 324,826.45618440278554" />
    <line x1="317" y1="814.33182874980344" x2="324" y2="802.20747309682133" />
    <line x1="338" y1="826.45618440278554" x2="345" y2="814.33182874980344" />
    <line x1="359" y1="814.33182874980344" x2="366" y2="826.45618440278554" />
    <polyline points="366,802.20747309682133 380,802.20747309682133 387,814.33182874980344 380,826.45618440278554" />
    <polyline points="387,814.33182874980344 401,814.33182874980344 408,802.20747309682133 422,802.20747309682133" />
    <polyline points="422,826.45618440278554 429,814.33182874980344 443,814.33182874980344 450,802.20747309682133 464,802.20747309682133" />
    <polyline points="324,826.45618440278554 338,826.45618440278554 345,838.58054005576764 359,838.58054005576764 366,850.70489570874975" />
    <polyline points="359,838.58054005576764 366,826.45618440278554 380,826.45618440278554" />
    <polyline points="380,850.70489570874975 387,838.58054005576764 401,838.58054005576764 408,826.45618440278554 422,826.45618440278554" />
  </g>
  <polyline fill="none" stroke="#ff0000" stroke-width="2" stroke-linecap="square" stroke-linejoin="round" points="373,1.9999999999999822 373,62.621778264910681 394,74.74613391789282 352,98.994845223857112 352,123.24355652982139 331,111.11920087683924 310,123.24355652982139 310,147.49226783578567 268,123.24355652982139 268,147.49226783578567 247,159.61662348876783 247,208.11404610069639 268,220.23840175367852 289,208.11404610069639 268,195.98969044771422 268,171.74097914174996 289,159.61662348876783 352,195.98969044771422 373,183.86533479473209 394,195.98969044771422 352,220.23840175367852 373,232.36275740666068 373,256.61146871262491 352,244.48711305964281 352,292.98453567157134 331,280.86018001858918 310,292.98453567157134 331,305.1088913245535 310,317.23324697753566 310,341.48195828349992 289,329.35760263051776 289,353.606313936482 268,365.73066958946418 268,317.23324697753566 247,329.35760263051776 205,305.1088913245535 205,280.86018001858918 121,232.36275740666068 100,244.48711305964281 121,256.61146871262491 121,280.86018001858918 142,292.98453567157134 121,305.1088913245535 184,341.48195828349992 184,365.73066958946418 163,377.85502524244635 163,353.606313936482 142,341.48195828349992 142,365.73066958946418 121,377.85502524244635 142,389.97938089542851 142,414.22809220139277 121,402.10373654841061 121,426.35244785437487 100,414.22809220139277 79,426.35244785437487 79,450.60115916033919 58,462.72551481332135 79,474.84987046630346 79,499.09858177226772 37,523.347293078232 58,535.47164873121415 37,547.59600438419625 37,571.84471569016068 58,583.96907134314279 58,559.72036003717835 121,596.09342699612489 121,620.3421383020891 100,632.4664939550712 100,680.96391656699984 142,705.212627872964 163,693.088272219982 163,717.33698352594638 184,729.46133917892848 205,717.33698352594638 205,741.58569483191059 226,729.46133917892848 226,753.71005048489269 247,765.83440613787479 247,741.58569483191059 268,753.71005048489269 268,777.9587617908569 289,790.08311744383923 310,777.9587617908569 310,753.71005048489269 331,765.83440613787479 352,753.71005048489269 373,765.83440613787479 352,777.9587617908569 394,802.20747309682133 415,790.08311744383923 394,777.9587617908569 436,753.71005048489269 457,765.83440613787479 457,790.08311744383923 373,838.58054005576764 373,850.70489570874975" />
  <type>Hexagonal</type>
</svg>