<?xml version="1.0" encoding="utf-8" standalone="no"?>
<!DOCTYPE svg PUBLIC "-//W3C//DTD SVG 1.1//EN" "http://www.w3.org/Graphics/SVG/1.1/DTD/svg11.dtd"[]>
<svg width="372" height="372" version="1.1" xmlns="http://www.w3.org/2000/svg">
  <title>23 cells diameter theta maze</title>
  <g fill="none" stroke="#000000" stroke-width="2" stroke-linecap="square">
    <path d="M 170.02943725152286,203.97056274847714 A 24,24 0 1,1 187,211" />
    <path d="M 150.04481869954853,171.6926627053964 A 40,40 0 0,1 187,147" />
    <path d="M 202.3073372946036,150.04481869954853 A 40,40 0 0,1 227,187" />
    <path d="M 215.2842712474619,215.2842712474619 A 40,40 0 0,1 158.7157287525381,215.2842712474619" />
    <path d="M 226.59797974644667,147.40202025355333 A 56,56 0 0,1 238.73725382063205,165.56972778755497" />
    <path d="M 243,187 A 56,56 0 0,1 208.43027221244503,238.73725382063205" />
    <path d="M 147.40202025355336,226.59797974644667 A 56,56 0 0,1 135.26274617936795,208.43027221244506" />
    <path d="M 135.26274617936795,165.56972778755497 A 56,56 0 0,1 147.40202025355333,147.40202025355336" />
    <path d="M 172.95349681483873,116.38345981096741 A 72,72 0 0,1 246.86581208578326,146.99894322258865" />
    <path d="M 253.51932634081265,159.44679286971353 A 72,72 0 0,1 257.61654018903261,201.04650318516124" />
    <path d="M 253.51932634081265,214.55320713028647 A 72,72 0 0,1 246.86581208578326,227.00105677741135" />
    <path d="M 237.91168824543144,237.91168824543141 A 72,72 0 0,1 214.55320713028647,253.51932634081265" />
    <path d="M 201.04650318516127,257.61654018903261 A 72,72 0 0,1 136.08831175456859,237.91168824543144" />
    <path d="M 127.13418791421674,227.00105677741135 A 72,72 0 0,1 120.48067365918737,214.5532071302865" />
    <path d="M 116.38345981096741,201.04650318516127 A 72,72 0 0,1 116.38345981096741,172.95349681483876" />
    <path d="M 120.48067365918736,159.44679286971353 A 72,72 0 0,1 127.13418791421672,146.99894322258865" />
    <path d="M 136.08831175456857,136.08831175456859 A 72,72 0 0,1 159.44679286971348,120.48067365918737" />
    <path d="M 153.32385795187204,105.69860113900678 A 88,88 0 0,1 187,99" />
    <path d="M 204.16794833741929,100.69089532451572 A 88,88 0 0,1 220.6761420481279,105.69860113900677" />
    <path d="M 249.22539674441617,124.77460325558381 A 88,88 0 0,1 260.169325882624,138.109819494275" />
    <path d="M 273.30910467548426,169.83205166258071 A 88,88 0 0,1 273.30910467548426,204.16794833741929" />
    <path d="M 260.169325882624,235.89018050572497 A 88,88 0 0,1 249.22539674441617,249.22539674441617" />
    <path d="M 235.89018050572497,260.169325882624 A 88,88 0 0,1 220.6761420481279,268.30139886099323" />
    <path d="M 169.83205166258071,273.30910467548426 A 88,88 0 0,1 138.10981949427503,260.169325882624" />
    <path d="M 105.69860113900678,220.67614204812796 A 88,88 0 0,1 99,187.00000000000003" />
    <path d="M 100.69089532451572,169.83205166258071 A 88,88 0 0,1 105.69860113900677,153.32385795187207" />
    <path d="M 113.83067411737599,138.10981949427503 A 88,88 0 0,1 124.7746032555838,124.77460325558383" />
    <path d="M 147.20092303403061,90.9165286188262 A 104,104 0 0,1 207.28939348967734,84.998330838064035" />
    <path d="M 226.79907696596933,90.916528618826177 A 104,104 0 0,1 273.4728396794647,129.22069576596135" />
    <path d="M 289.001669161936,166.71060651032266 A 104,104 0 0,1 291,187" />
    <path d="M 283.08347138117381,226.79907696596933 A 104,104 0 0,1 207.28939348967737,289.001669161936" />
    <path d="M 187,291 A 104,104 0 0,1 166.71060651032266,289.001669161936" />
    <path d="M 147.20092303403067,283.08347138117381 A 104,104 0 0,1 129.22069576596141,273.47283967946476" />
    <path d="M 100.52716032053529,244.77930423403862 A 104,104 0 0,1 90.9165286188262,226.79907696596939" />
    <path d="M 84.998330838064035,207.28939348967737 A 104,104 0 0,1 83,187.00000000000003" />
    <path d="M 84.998330838064035,166.71060651032266 A 104,104 0 0,1 90.916528618826192,147.20092303403064" />
    <path d="M 113.46089475659905,113.46089475659908 A 104,104 0 0,1 129.22069576596135,100.5271603205353" />
    <path d="M 210.41083864193539,69.305766351612348 A 120,120 0 0,1 253.66842796235227,87.223646523694569" />
    <path d="M 271.85281374238571,102.14718625761429 A 120,120 0 0,1 304.69423364838764,163.58916135806459" />
    <path d="M 307,187 A 120,120 0 0,1 232.9220118838108,297.86554390135439" />
    <path d="M 210.41083864193544,304.69423364838764 A 120,120 0 0,1 187.00000000000003,307" />
    <path d="M 141.07798811618926,297.86554390135439 A 120,120 0 0,1 87.223646523694569,253.66842796235227" />
    <path d="M 76.1344560986456,141.0779881161892 A 120,120 0 0,1 87.223646523694541,120.33157203764777" />
    <path d="M 102.14718625761428,102.14718625761432 A 120,120 0 0,1 120.33157203764773,87.223646523694569" />
    <path d="M 147.5212838933931,56.856114340419595 A 136,136 0 0,1 187,51" />
    <path d="M 200.33033108482024,51.654877172581223 A 136,136 0 0,1 226.4787161066069,56.856114340419595" />
    <path d="M 239.0449468016522,61.352383578464995 A 136,136 0 0,1 251.10995620833569,67.058708048623714" />
    <path d="M 262.55755169066589,73.920132726853851 A 136,136 0 0,1 273.2774866462558,81.87057834266777" />
    <path d="M 283.16652224137044,90.833477758629527 A 136,136 0 0,1 306.94129195137629,122.8900437916643" />
    <path d="M 312.64761642153496,134.9550531983478 A 136,136 0 0,1 317.14388565958041,147.52128389339313" />
    <path d="M 320.38679813483935,160.46771620580654 A 136,136 0 0,1 322.34512282741878,200.33033108482024" />
    <path d="M 320.38679813483935,213.53228379419343 A 136,136 0 0,1 262.55755169066589,300.07986727314619" />
    <path d="M 251.10995620833569,306.94129195137629 A 136,136 0 0,1 239.04494680165223,312.64761642153496" />
    <path d="M 226.4787161066069,317.14388565958041 A 136,136 0 0,1 213.53228379419349,320.3867981348393" />
    <path d="M 187.00000000000003,323 A 136,136 0 0,1 173.66966891517976,322.34512282741878" />
    <path d="M 147.52128389339316,317.14388565958041 A 136,136 0 0,1 134.9550531983478,312.647616421535" />
    <path d="M 122.89004379166433,306.94129195137629 A 136,136 0 0,1 100.72251335374423,292.12942165733227" />
    <path d="M 90.833477758629556,283.16652224137044 A 136,136 0 0,1 53.613201865160676,213.53228379419349" />
    <path d="M 51.654877172581223,200.33033108482022 A 136,136 0 0,1 51,187.00000000000003" />
    <path d="M 51.654877172581223,173.66966891517984 A 136,136 0 0,1 67.058708048623714,122.89004379166433" />
    <path d="M 73.920132726853822,111.44244830933414 A 136,136 0 0,1 100.72251335374415,81.870578342667827" />
    <path d="M 111.4424483093341,73.920132726853851 A 136,136 0 0,1 134.95505319834771,61.352383578465037" />
    <path d="M 187,35 A 152,152 0 0,1 201.8986053300932,35.731921545826083" />
    <path d="M 216.65372894645151,37.92063737870896 A 152,152 0 0,1 271.44667541897957,60.616618930013118" />
    <path d="M 283.42777919287414,69.50241108886398 A 152,152 0 0,1 304.497588911136,90.572220807125873" />
    <path d="M 313.38338106998685,102.55332458102046 A 152,152 0 0,1 327.4296889417156,245.16788171949364" />
    <path d="M 321.05203218094994,258.65230399755166 A 152,152 0 0,1 304.49758891113606,283.42777919287408" />
    <path d="M 294.48023074035524,294.48023074035518 A 152,152 0 0,1 231.12327094267829,332.45493103129576" />
    <path d="M 201.89860533009323,338.26807845417392 A 152,152 0 0,1 187.00000000000003,339" />
    <path d="M 172.1013946699068,338.26807845417392 A 152,152 0 0,1 157.34627105354849,336.079362621291" />
    <path d="M 128.83211828050636,327.4296889417156 A 152,152 0 0,1 115.34769600244836,321.05203218094994" />
    <path d="M 102.55332458102051,313.38338106998691 A 152,152 0 0,1 60.616618930013118,271.44667541897951" />
    <path d="M 46.57031105828446,245.16788171949372 A 152,152 0 0,1 37.920637378708989,216.65372894645157" />
    <path d="M 35,187.00000000000003 A 152,152 0 0,1 41.545068968704243,142.87672905732177" />
    <path d="M 69.502411088864,90.572220807125873 A 152,152 0 0,1 79.519769259644747,79.5197692596448" />
    <path d="M 90.572220807125817,69.502411088864037 A 152,152 0 0,1 115.34769600244832,52.947967819050064" />
    <path d="M 128.83211828050625,46.57031105828446 A 152,152 0 0,1 142.87672905732171,41.545068968704271" />
    <path d="M 157.34627105354844,37.920637378708989 A 152,152 0 0,1 172.1013946699068,35.731921545826083" />
    <path d="M 170.53312042463384,19.808965919070914 A 168,168 0 0,1 219.77517409870956,22.228072892257273" />
    <path d="M 235.76782577874968,26.234023596988919 A 168,168 0 0,1 305.79393923934,68.206060760660009" />
    <path d="M 326.68689486682763,93.664200852706827 A 168,168 0 0,1 342.21176146189617,122.70918336266492" />
    <path d="M 351.77192710774273,154.22482590129044 A 168,168 0 0,1 355,187" />
    <path d="M 351.77192710774273,219.77517409870953 A 168,168 0 0,1 335.16277241052364,266.19465178676762" />
    <path d="M 316.86575616493985,293.57807173949243 A 168,168 0 0,1 305.79393923934,305.79393923934" />
    <path d="M 293.57807173949243,316.86575616493985 A 168,168 0 0,1 251.2908166373351,342.21176146189617" />
    <path d="M 203.46687957536622,354.19103408092906 A 168,168 0 0,1 170.53312042463381,354.19103408092906" />
    <path d="M 154.22482590129044,351.77192710774273 A 168,168 0 0,1 107.80534821323241,335.16277241052364" />
    <path d="M 57.134243835060232,293.57807173949249 A 168,168 0 0,1 38.837227589476385,266.19465178676762" />
    <path d="M 26.234023596988919,235.76782577874968 A 168,168 0 0,1 19.808965919070914,170.53312042463392" />
    <path d="M 22.228072892257273,154.22482590129044 A 168,168 0 0,1 31.788238538103855,122.70918336266487" />
    <path d="M 38.837227589476356,107.80534821323241 A 168,168 0 0,1 68.20606076066,68.206060760660037" />
    <path d="M 80.421928260507485,57.134243835060261 A 168,168 0 0,1 122.70918336266482,31.788238538103855" />
    <path d="M 205.03515382063915,3.886010292315774 A 184,184 0 1,1 187,3" />
  </g>
  <g fill="none" stroke="#000000" stroke-width="2" stroke-linecap="butt">
    <line x1="187" y1="3" x2="187" y2="19" />
    <line x1="187" y1="35" x2="187" y2="83" />
    <line x1="187" y1="115" x2="187" y2="131" />
    <line x1="203.46687957536619" y1="19.808965919070914" x2="200.33033108482024" y2="51.654877172581223" />
    <line x1="207.28939348967734" y1="84.998330838064035" x2="204.16794833741929" y2="100.69089532451572" />
    <line x1="235.76782577874968" y1="26.234023596988919" x2="231.12327094267829" y2="41.545068968704271" />
    <line x1="257.41375155517653" y1="17.006166017923249" x2="251.29081663733507" y2="31.788238538103826" />
    <line x1="232.92201188381077" y1="76.134456098645586" x2="226.79907696596933" y2="90.916528618826177" />
    <line x1="214.55320713028647" y1="120.48067365918736" x2="202.3073372946036" y2="150.04481869954853" />
    <line x1="258.65230399755166" y1="52.947967819050035" x2="251.10995620833569" y2="67.058708048623714" />
    <line x1="262.55755169066589" y1="73.920132726853851" x2="253.66842796235227" y2="87.223646523694569" />
    <line x1="244.77930423403862" y1="100.5271603205353" x2="227.00105677741135" y2="127.13418791421674" />
    <line x1="283.42777919287414" y1="69.50241108886398" x2="273.2774866462558" y2="81.87057834266777" />
    <line x1="294.48023074035518" y1="79.519769259644775" x2="271.85281374238571" y2="102.14718625761429" />
    <line x1="237.91168824543144" y1="136.08831175456857" x2="226.59797974644664" y2="147.40202025355333" />
    <line x1="215.2842712474619" y1="158.7157287525381" x2="203.97056274847714" y2="170.02943725152286" />
    <line x1="316.86575616493985" y1="80.421928260507556" x2="304.497588911136" y2="90.572220807125888" />
    <line x1="260.169325882624" y1="138.109819494275" x2="246.86581208578326" y2="146.99894322258865" />
    <line x1="356.99383398207675" y1="116.58624844482347" x2="342.21176146189617" y2="122.7091833626649" />
    <line x1="312.64761642153496" y1="134.9550531983478" x2="253.51932634081265" y2="159.44679286971353" />
    <line x1="347.76597640301111" y1="138.23217422125032" x2="332.45493103129576" y2="142.87672905732171" />
    <line x1="336.079362621291" y1="157.34627105354849" x2="320.38679813483935" y2="160.46771620580654" />
    <line x1="304.69423364838764" y1="163.58916135806459" x2="273.30910467548426" y2="169.83205166258071" />
    <line x1="371" y1="187" x2="355" y2="187" />
    <line x1="323" y1="187" x2="307" y2="187" />
    <line x1="243" y1="187" x2="227" y2="187" />
    <line x1="370.11398970768425" y1="205.03515382063915" x2="354.19103408092906" y2="203.46687957536619" />
    <line x1="304.69423364838764" y1="210.41083864193539" x2="273.30910467548426" y2="204.16794833741929" />
    <line x1="327.4296889417156" y1="245.16788171949364" x2="312.64761642153496" y2="239.0449468016522" />
    <line x1="268.30139886099323" y1="220.6761420481279" x2="223.95518130045147" y2="202.3073372946036" />
    <line x1="349.27351264009735" y1="273.73699957598359" x2="335.16277241052364" y2="266.19465178676762" />
    <line x1="339.9904086636684" y1="289.22492287560675" x2="300.07986727314619" y2="262.55755169066583" />
    <line x1="273.47283967946476" y1="244.77930423403859" x2="260.169325882624" y2="235.89018050572497" />
    <line x1="305.79393923934" y1="305.79393923934" x2="294.48023074035524" y2="294.48023074035518" />
    <line x1="303.72836428611078" y1="329.23392341874364" x2="293.57807173949243" y2="316.86575616493985" />
    <line x1="244.77930423403862" y1="273.4728396794647" x2="227.00105677741135" y2="246.86581208578326" />
    <line x1="239.04494680165223" y1="312.64761642153496" x2="232.9220118838108" y2="297.86554390135439" />
    <line x1="214.55320713028647" y1="253.51932634081265" x2="208.43027221244503" y2="238.73725382063205" />
    <line x1="240.41238061482108" y1="363.0770217747264" x2="235.76782577874968" y2="347.76597640301111" />
    <line x1="231.12327094267829" y1="332.4549310312957" x2="226.4787161066069" y2="317.14388565958041" />
    <line x1="219.77517409870961" y1="351.77192710774273" x2="201.04650318516127" y2="257.61654018903261" />
    <line x1="203.46687957536622" y1="354.19103408092906" x2="200.33033108482027" y2="322.34512282741878" />
    <line x1="187.00000000000003" y1="323" x2="187.00000000000003" y2="307" />
    <line x1="187" y1="275" x2="187" y2="243" />
    <line x1="170.53312042463381" y1="354.19103408092906" x2="173.66966891517976" y2="322.34512282741878" />
    <line x1="151.1033807490324" y1="367.46449159419438" x2="154.22482590129044" y2="351.77192710774273" />
    <line x1="157.34627105354849" y1="336.079362621291" x2="166.71060651032266" y2="289.001669161936" />
    <line x1="138.23217422125038" y1="347.76597640301111" x2="147.52128389339316" y2="317.14388565958041" />
    <line x1="134.9550531983478" y1="312.647616421535" x2="153.3238579518721" y2="268.30139886099323" />
    <line x1="165.56972778755497" y1="238.73725382063208" x2="171.6926627053964" y2="223.95518130045147" />
    <line x1="115.34769600244836" y1="321.05203218094994" x2="122.89004379166433" y2="306.94129195137629" />
    <line x1="84.775077124393235" y1="339.9904086636684" x2="93.66420085270687" y2="326.68689486682763" />
    <line x1="111.44244830933414" y1="300.07986727314619" x2="120.33157203764776" y2="286.77635347630547" />
    <line x1="80.4219282605076" y1="316.86575616493985" x2="90.572220807125916" y2="304.49758891113606" />
    <line x1="56.892352261675256" y1="317.10764773832477" x2="68.206060760660023" y2="305.79393923934003" />
    <line x1="102.14718625761431" y1="271.85281374238571" x2="113.46089475659906" y2="260.53910524340097" />
    <line x1="124.77460325558383" y1="249.2253967444162" x2="147.40202025355336" y2="226.59797974644667" />
    <line x1="158.7157287525381" y1="215.2842712474619" x2="170.02943725152286" y2="203.97056274847714" />
    <line x1="57.134243835060232" y1="293.57807173949254" x2="69.502411088864022" y2="283.4277791928742" />
    <line x1="100.5271603205353" y1="244.77930423403862" x2="113.83067411737602" y2="235.890180505725" />
    <line x1="38.837227589476356" y1="266.19465178676762" x2="67.058708048623728" y2="251.10995620833569" />
    <line x1="17.006166017923277" y1="257.41375155517665" x2="46.57031105828446" y2="245.16788171949372" />
    <line x1="61.352383578465037" y1="239.04494680165229" x2="120.48067365918737" y2="214.5532071302865" />
    <line x1="135.26274617936795" y1="208.43027221244506" x2="150.04481869954856" y2="202.3073372946036" />
    <line x1="53.613201865160676" y1="213.53228379419349" x2="84.998330838064049" y2="207.28939348967737" />
    <line x1="19.808965919070914" y1="203.46687957536616" x2="51.654877172581223" y2="200.33033108482022" />
    <line x1="51" y1="187.00000000000003" x2="67" y2="187.00000000000003" />
    <line x1="99" y1="187.00000000000003" x2="147" y2="187" />
    <line x1="3.886010292315774" y1="168.96484617936093" x2="19.808965919070914" y2="170.53312042463389" />
    <line x1="53.613201865160647" y1="160.46771620580654" x2="69.305766351612348" y2="163.58916135806462" />
    <line x1="84.998330838064035" y1="166.71060651032266" x2="116.38345981096741" y2="172.95349681483876" />
    <line x1="10.922978225273567" y1="133.58761938517898" x2="26.234023596988891" y2="138.23217422125038" />
    <line x1="41.545068968704243" y1="142.87672905732177" x2="56.856114340419595" y2="147.52128389339316" />
    <line x1="31.788238538103855" y1="122.70918336266487" x2="46.570311058284432" y2="128.83211828050634" />
    <line x1="61.352383578465023" y1="134.95505319834777" x2="90.916528618826192" y2="147.20092303403064" />
    <line x1="120.48067365918736" y1="159.44679286971353" x2="150.04481869954853" y2="171.6926627053964" />
    <line x1="38.837227589476356" y1="107.80534821323241" x2="52.947967819050035" y2="115.34769600244837" />
    <line x1="60.61661893001309" y1="102.55332458102052" x2="87.223646523694541" y2="120.33157203764777" />
    <line x1="100.52716032053527" y1="129.22069576596141" x2="127.13418791421672" y2="146.99894322258865" />
    <line x1="69.502411088864" y1="90.572220807125873" x2="81.870578342667784" y2="100.72251335374421" />
    <line x1="68.20606076066" y1="68.206060760660051" x2="79.519769259644747" y2="79.5197692596448" />
    <line x1="90.833477758629513" y1="90.833477758629556" x2="102.14718625761428" y2="102.14718625761432" />
    <line x1="70.271635713889154" y1="44.766076581256442" x2="80.421928260507485" y2="57.134243835060232" />
    <line x1="90.572220807125817" y1="69.502411088864022" x2="100.72251335374415" y2="81.870578342667812" />
    <line x1="120.33157203764773" y1="87.223646523694569" x2="146.99894322258865" y2="127.13418791421674" />
    <line x1="115.34769600244832" y1="52.947967819050064" x2="122.89004379166428" y2="67.058708048623743" />
    <line x1="122.70918336266482" y1="31.788238538103855" x2="141.07798811618915" y2="76.134456098645614" />
    <line x1="159.44679286971348" y1="120.48067365918737" x2="171.69266270539637" y2="150.04481869954856" />
    <line x1="133.5876193851789" y1="10.922978225273567" x2="138.23217422125032" y2="26.234023596988919" />
    <line x1="151.10338074903231" y1="6.535508405805615" x2="157.34627105354844" y2="37.920637378708989" />
    <line x1="160.46771620580648" y1="53.613201865160676" x2="163.58916135806456" y2="69.305766351612363" />
    <line x1="169.83205166258068" y1="100.69089532451574" x2="172.95349681483873" y2="116.38345981096742" />
  </g>
  <path fill="none" stroke="#ff0000" stroke-width="2" stroke-linecap="square" stroke-linejoin="round" d="M 196.02845207624492,3.2216360582482935 L 195.63591068162558,11.211999707889646 A 176,176 0 0,1 229.76451166297443,16.274499437760255 L 225.87682878452222,31.794999488872975 A 160,160 0 0,0 210.47687591285788,28.731758405635048 L 208.12918832157209,44.558582565071532 A 144,144 0 0,1 235.51213888847968,51.417654613645 L 230.12190123420416,66.482359656573337 A 128,128 0 0,0 199.54619396218376,59.616354985958793 L 197.97791971691078,75.539310612713948 A 112,112 0 0,1 219.51188385249978,79.822682397992608 L 214.86732901642839,95.133727769707946 A 96,96 0 0,1 232.25408673529577,102.33555862255791 L 224.71173894607981,116.44629885213159 A 80,80 0 0,0 194.84137122636486,107.38522186622424 L 196.40964547163782,91.4622662394691 A 96,96 0 0,0 141.7459132647042,102.33555862255793 L 149.28826105392017,116.44629885213161 A 80,80 0 0,1 163.777225819643,110.4447731414233 L 168.4217806557144,125.75581851313864 A 64,64 0 0,1 174.51421939096775,124.22974205419325 L 177.63566454322583,139.92230654064494 A 48,48 0 0,1 196.36433545677414,139.92230654064494 L 193.2428903045161,155.61487102709663 A 32,32 0 0,0 160.39297240631856,204.77824745662727 L 147.08945860947785,213.66737118494092 A 48,48 0 0,0 160.33262881505911,226.91054139052218 L 151.44350508674546,240.2140551873629 A 64,64 0 0,0 174.51421939096778,249.77025794580675 L 177.63566454322583,234.07769345935506 A 48,48 0 0,0 226.91054139052218,213.66737118494089 L 213.60702759368147,204.77824745662727 A 32,32 0 0,1 174.75413016431713,216.56414504036118 L 177.81559762323786,209.17310878027089" />
  <type>Circular</type>
</svg>