<?xml version="1.0" encoding="utf-8" standalone="no"?>
<!DOCTYPE svg PUBLIC "-//W3C//DTD SVG 1.1//EN" "http://www.w3.org/Graphics/SVG/1.1/DTD/svg11.dtd"[]>
<svg width="372" height="372" version="1.1" xmlns="http://www.w3.org/2000/svg">
  <title>23 cells diameter theta maze</title>
  <g fill="none" stroke="#000000" stroke-width="2" stroke-linecap="square">
    <path d="M 170.02943725152286,203.97056274847714 A 24,24 0 1,1 187,211" />
    <path d="M 158.7157287525381,158.7157287525381 A 40,40 0 0,1 223.95518130045147,171.6926627053964" />
    <path d="M 227,187 A 40,40 0 0,1 223.95518130045147,202.3073372946036" />
    <path d="M 215.2842712474619,215.2842712474619 A 40,40 0 0,1 158.7157287525381,215.2842712474619" />
    <path d="M 150.04481869954853,202.3073372946036 A 40,40 0 0,1 150.04481869954853,171.6926627053964" />
    <path d="M 135.26274617936795,165.56972778755497 A 56,56 0 0,1 208.43027221244503,135.26274617936795" />
    <path d="M 238.73725382063205,165.56972778755497 A 56,56 0 0,1 243,187" />
    <path d="M 238.73725382063208,208.43027221244503 A 56,56 0 0,1 226.59797974644667,226.59797974644664" />
    <path d="M 208.43027221244503,238.73725382063205 A 56,56 0 0,1 147.40202025355336,226.59797974644667" />
    <path d="M 135.26274617936795,208.43027221244506 A 56,56 0 0,1 131,187" />
    <path d="M 187,115 A 72,72 0 0,1 201.04650318516124,116.38345981096741" />
    <path d="M 227.00105677741135,127.13418791421674 A 72,72 0 0,1 257.61654018903261,172.95349681483876" />
    <path d="M 259,187 A 72,72 0 0,1 246.86581208578326,227.00105677741135" />
    <path d="M 237.91168824543144,237.91168824543141 A 72,72 0 0,1 227.00105677741135,246.86581208578326" />
    <path d="M 214.55320713028647,253.51932634081265 A 72,72 0 0,1 136.08831175456859,237.91168824543144" />
    <path d="M 127.13418791421674,227.00105677741135 A 72,72 0 0,1 120.48067365918737,214.5532071302865" />
    <path d="M 115,187 A 72,72 0 0,1 120.48067365918736,159.44679286971353" />
    <path d="M 159.44679286971348,120.48067365918737 A 72,72 0 0,1 172.95349681483873,116.38345981096741" />
    <path d="M 187,99 A 88,88 0 0,1 249.22539674441617,124.77460325558381" />
    <path d="M 260.169325882624,138.109819494275 A 88,88 0 0,1 268.30139886099323,153.3238579518721" />
    <path d="M 273.30910467548426,204.16794833741929 A 88,88 0 0,1 268.30139886099323,220.6761420481279" />
    <path d="M 260.169325882624,235.89018050572497 A 88,88 0 0,1 235.89018050572497,260.169325882624" />
    <path d="M 204.16794833741932,273.30910467548426 A 88,88 0 0,1 169.83205166258071,273.30910467548426" />
    <path d="M 153.32385795187213,268.30139886099323 A 88,88 0 0,1 124.77460325558383,249.2253967444162" />
    <path d="M 113.83067411737602,235.890180505725 A 88,88 0 0,1 100.69089532451572,169.83205166258071" />
    <path d="M 124.7746032555838,124.77460325558383 A 88,88 0 0,1 169.83205166258068,100.69089532451572" />
    <path d="M 129.22069576596135,100.5271603205353 A 104,104 0 0,1 260.53910524340097,113.46089475659906" />
    <path d="M 273.4728396794647,129.22069576596135 A 104,104 0 0,1 283.08347138117381,147.20092303403067" />
    <path d="M 289.001669161936,166.71060651032266 A 104,104 0 0,1 291,187" />
    <path d="M 289.001669161936,207.28939348967734 A 104,104 0 0,1 273.47283967946476,244.77930423403859" />
    <path d="M 187,291 A 104,104 0 0,1 147.20092303403067,283.08347138117381" />
    <path d="M 113.46089475659908,260.53910524340097 A 104,104 0 0,1 90.9165286188262,226.79907696596939" />
    <path d="M 83,187.00000000000003 A 104,104 0 0,1 90.916528618826192,147.20092303403064" />
    <path d="M 100.52716032053527,129.22069576596141 A 104,104 0 0,1 113.46089475659905,113.46089475659908" />
    <path d="M 163.58916135806456,69.305766351612363 A 120,120 0 0,1 187,67" />
    <path d="M 232.92201188381077,76.134456098645586 A 120,120 0 0,1 286.77635347630542,120.33157203764773" />
    <path d="M 297.86554390135439,141.07798811618923 A 120,120 0 0,1 304.69423364838764,163.58916135806459" />
    <path d="M 304.69423364838764,210.41083864193539 A 120,120 0 0,1 297.86554390135439,232.92201188381077" />
    <path d="M 253.66842796235227,286.77635347630542 A 120,120 0 0,1 232.9220118838108,297.86554390135439" />
    <path d="M 187.00000000000003,307 A 120,120 0 0,1 120.33157203764777,286.77635347630547" />
    <path d="M 87.223646523694569,253.66842796235227 A 120,120 0 0,1 69.305766351612348,163.58916135806462" />
    <path d="M 102.14718625761428,102.14718625761432 A 120,120 0 0,1 141.07798811618915,76.134456098645614" />
    <path d="M 147.5212838933931,56.856114340419595 A 136,136 0 0,1 187,51" />
    <path d="M 213.53228379419343,53.613201865160647 A 136,136 0 0,1 239.0449468016522,61.352383578464995" />
    <path d="M 262.55755169066589,73.920132726853851 A 136,136 0 0,1 273.2774866462558,81.87057834266777" />
    <path d="M 292.12942165733222,100.72251335374421 A 136,136 0 0,1 312.64761642153496,134.9550531983478" />
    <path d="M 317.14388565958041,147.52128389339313 A 136,136 0 0,1 320.38679813483935,160.46771620580654" />
    <path d="M 322.34512282741878,173.66966891517973 A 136,136 0 0,1 323,187" />
    <path d="M 322.34512282741878,200.33033108482024 A 136,136 0 0,1 320.38679813483935,213.53228379419343" />
    <path d="M 317.14388565958041,226.47871610660687 A 136,136 0 0,1 292.12942165733227,273.27748664625574" />
    <path d="M 283.16652224137044,283.16652224137044 A 136,136 0 0,1 226.4787161066069,317.14388565958041" />
    <path d="M 213.53228379419349,320.3867981348393 A 136,136 0 0,1 160.46771620580654,320.38679813483935" />
    <path d="M 147.52128389339316,317.14388565958041 A 136,136 0 0,1 134.9550531983478,312.647616421535" />
    <path d="M 111.44244830933414,300.07986727314619 A 136,136 0 0,1 56.856114340419595,226.4787161066069" />
    <path d="M 53.613201865160676,213.53228379419349 A 136,136 0 0,1 51.654877172581223,200.33033108482022" />
    <path d="M 56.856114340419595,147.52128389339316 A 136,136 0 0,1 61.352383578465009,134.95505319834777" />
    <path d="M 67.058708048623714,122.89004379166433 A 136,136 0 0,1 122.89004379166428,67.058708048623743" />
    <path d="M 157.34627105354844,37.920637378708989 A 152,152 0 0,1 271.44667541897957,60.616618930013118" />
    <path d="M 283.42777919287414,69.50241108886398 A 152,152 0 0,1 294.48023074035524,79.519769259644775" />
    <path d="M 313.38338106998685,102.55332458102046 A 152,152 0 0,1 321.05203218094994,115.34769600244833" />
    <path d="M 327.4296889417156,128.83211828050634 A 152,152 0 0,1 332.45493103129576,142.87672905732174" />
    <path d="M 339,187 A 152,152 0 0,1 338.26807845417392,201.89860533009323" />
    <path d="M 336.079362621291,216.65372894645148 A 152,152 0 0,1 332.45493103129576,231.12327094267826" />
    <path d="M 304.49758891113606,283.42777919287408 A 152,152 0 0,1 294.48023074035524,294.48023074035518" />
    <path d="M 258.65230399755166,321.05203218094994 A 152,152 0 0,1 245.16788171949366,327.42968894171554" />
    <path d="M 216.65372894645154,336.079362621291 A 152,152 0 0,1 187.00000000000003,339" />
    <path d="M 172.1013946699068,338.26807845417392 A 152,152 0 0,1 157.34627105354849,336.079362621291" />
    <path d="M 142.87672905732177,332.45493103129576 A 152,152 0 0,1 128.83211828050636,327.4296889417156" />
    <path d="M 102.55332458102051,313.38338106998691 A 152,152 0 0,1 69.502411088864022,283.42777919287414" />
    <path d="M 46.57031105828446,245.16788171949372 A 152,152 0 0,1 37.920637378708989,216.65372894645157" />
    <path d="M 35.731921545826083,201.89860533009318 A 152,152 0 0,1 35.731921545826054,172.10139466990688" />
    <path d="M 52.947967819050035,115.34769600244837 A 152,152 0 0,1 69.502411088864,90.572220807125873" />
    <path d="M 115.34769600244832,52.947967819050064 A 152,152 0 0,1 128.83211828050625,46.57031105828446" />
    <path d="M 138.23217422125032,26.234023596988919 A 168,168 0 0,1 187,19" />
    <path d="M 203.46687957536619,19.808965919070914 A 168,168 0 0,1 235.76782577874968,26.234023596988919" />
    <path d="M 251.29081663733507,31.788238538103826 A 168,168 0 0,1 293.57807173949243,57.134243835060175" />
    <path d="M 316.8657561649398,80.421928260507556 A 168,168 0 0,1 326.68689486682763,93.664200852706827" />
    <path d="M 342.21176146189617,122.70918336266492 A 168,168 0 0,1 354.19103408092906,170.53312042463378" />
    <path d="M 347.76597640301111,235.76782577874965 A 168,168 0 0,1 342.21176146189617,251.29081663733507" />
    <path d="M 326.68689486682763,280.33579914729313 A 168,168 0 0,1 316.86575616493985,293.57807173949243" />
    <path d="M 293.57807173949243,316.86575616493985 A 168,168 0 0,1 280.33579914729319,326.68689486682763" />
    <path d="M 251.2908166373351,342.21176146189617 A 168,168 0 0,1 203.46687957536622,354.19103408092906" />
    <path d="M 187.00000000000003,355 A 168,168 0 0,1 170.53312042463381,354.19103408092906" />
    <path d="M 138.23217422125038,347.76597640301111 A 168,168 0 0,1 68.206060760660037,305.79393923934003" />
    <path d="M 57.134243835060232,293.57807173949249 A 168,168 0 0,1 26.234023596988919,235.76782577874968" />
    <path d="M 19.808965919070914,203.46687957536616 A 168,168 0 0,1 22.228072892257273,154.22482590129044" />
    <path d="M 80.421928260507485,57.134243835060261 A 168,168 0 0,1 122.70918336266482,31.788238538103855" />
    <path d="M 205.03515382063915,3.886010292315774 A 184,184 0 1,1 187,3" />
  </g>
  <g fill="none" stroke="#000000" stroke-width="2" stroke-linecap="butt">
    <line x1="187" y1="51" x2="187" y2="67" />
    <line x1="187" y1="115" x2="187" y2="131" />
    <line x1="203.46687957536619" y1="19.808965919070914" x2="200.33033108482024" y2="51.654877172581223" />
    <line x1="216.65372894645151" y1="37.920637378708989" x2="210.41083864193539" y2="69.305766351612348" />
    <line x1="257.41375155517653" y1="17.006166017923249" x2="245.16788171949366" y2="46.5703110582844" />
    <line x1="220.6761420481279" y1="105.69860113900677" x2="208.43027221244503" y2="135.26274617936795" />
    <line x1="258.65230399755166" y1="52.947967819050035" x2="251.10995620833569" y2="67.058708048623714" />
    <line x1="235.890180505725" y1="113.83067411737602" x2="227.00105677741135" y2="127.13418791421674" />
    <line x1="293.57807173949243" y1="57.134243835060175" x2="273.2774866462558" y2="81.87057834266777" />
    <line x1="317.10764773832477" y1="56.892352261675256" x2="305.79393923934" y2="68.206060760660009" />
    <line x1="283.16652224137044" y1="90.833477758629527" x2="271.85281374238571" y2="102.14718625761429" />
    <line x1="237.91168824543144" y1="136.08831175456857" x2="226.59797974644664" y2="147.40202025355333" />
    <line x1="215.2842712474619" y1="158.7157287525381" x2="203.97056274847714" y2="170.02943725152286" />
    <line x1="316.86575616493985" y1="80.421928260507556" x2="292.12942165733222" y2="100.72251335374422" />
    <line x1="313.38338106998685" y1="102.55332458102045" x2="273.4728396794647" y2="129.22069576596135" />
    <line x1="260.169325882624" y1="138.109819494275" x2="246.86581208578326" y2="146.99894322258865" />
    <line x1="349.27351264009729" y1="100.2630004240164" x2="335.16277241052364" y2="107.80534821323236" />
    <line x1="342.21176146189617" y1="122.7091833626649" x2="312.64761642153496" y2="134.9550531983478" />
    <line x1="253.51932634081265" y1="159.44679286971353" x2="238.73725382063205" y2="165.56972778755497" />
    <line x1="351.77192710774273" y1="154.22482590129044" x2="257.61654018903261" y2="172.95349681483876" />
    <line x1="354.19103408092906" y1="170.53312042463378" x2="338.26807845417392" y2="172.10139466990677" />
    <line x1="355" y1="187" x2="307" y2="187" />
    <line x1="291" y1="187" x2="275" y2="187" />
    <line x1="243" y1="187" x2="227" y2="187" />
    <line x1="370.11398970768425" y1="205.03515382063915" x2="322.34512282741878" y2="200.33033108482024" />
    <line x1="351.77192710774273" y1="219.77517409870953" x2="336.079362621291" y2="216.65372894645148" />
    <line x1="320.38679813483935" y1="213.53228379419343" x2="304.69423364838764" y2="210.41083864193539" />
    <line x1="289.001669161936" y1="207.28939348967734" x2="273.30910467548426" y2="204.16794833741929" />
    <line x1="363.0770217747264" y1="240.41238061482105" x2="347.76597640301111" y2="235.76782577874965" />
    <line x1="332.45493103129576" y1="231.12327094267823" x2="317.14388565958041" y2="226.47871610660684" />
    <line x1="342.21176146189617" y1="251.29081663733507" x2="327.4296889417156" y2="245.16788171949364" />
    <line x1="253.51932634081265" y1="214.55320713028647" x2="223.95518130045147" y2="202.3073372946036" />
    <line x1="335.16277241052364" y1="266.19465178676762" x2="306.94129195137629" y2="251.10995620833569" />
    <line x1="339.9904086636684" y1="289.22492287560675" x2="300.07986727314619" y2="262.55755169066583" />
    <line x1="286.77635347630547" y1="253.66842796235224" x2="246.86581208578326" y2="227.00105677741135" />
    <line x1="317.10764773832477" y1="317.10764773832477" x2="260.53910524340097" y2="260.53910524340097" />
    <line x1="249.22539674441617" y1="249.22539674441617" x2="237.91168824543144" y2="237.91168824543144" />
    <line x1="226.59797974644667" y1="226.59797974644664" x2="215.2842712474619" y2="215.2842712474619" />
    <line x1="283.42777919287414" y1="304.497588911136" x2="273.2774866462558" y2="292.12942165733222" />
    <line x1="280.33579914729319" y1="326.68689486682763" x2="262.55755169066589" y2="300.07986727314619" />
    <line x1="253.66842796235227" y1="286.77635347630542" x2="235.890180505725" y2="260.169325882624" />
    <line x1="266.19465178676762" y1="335.16277241052364" x2="258.65230399755166" y2="321.05203218094994" />
    <line x1="245.16788171949366" y1="327.4296889417156" x2="239.04494680165223" y2="312.64761642153496" />
    <line x1="226.79907696596933" y1="283.08347138117381" x2="214.55320713028647" y2="253.51932634081265" />
    <line x1="235.76782577874968" y1="347.76597640301111" x2="226.4787161066069" y2="317.14388565958041" />
    <line x1="210.41083864193544" y1="304.69423364838764" x2="204.16794833741932" y2="273.30910467548426" />
    <line x1="187.00000000000003" y1="371" x2="187.00000000000003" y2="339" />
    <line x1="187.00000000000003" y1="323" x2="187.00000000000003" y2="307" />
    <line x1="151.1033807490324" y1="367.46449159419438" x2="157.34627105354849" y2="336.079362621291" />
    <line x1="169.83205166258071" y1="273.30910467548426" x2="172.95349681483876" y2="257.61654018903261" />
    <line x1="122.70918336266493" y1="342.21176146189623" x2="141.07798811618923" y2="297.86554390135444" />
    <line x1="147.20092303403067" y1="283.08347138117381" x2="153.3238579518721" y2="268.30139886099323" />
    <line x1="159.44679286971353" y1="253.51932634081265" x2="165.56972778755497" y2="238.73725382063208" />
    <line x1="107.80534821323239" y1="335.16277241052364" x2="122.89004379166433" y2="306.94129195137629" />
    <line x1="102.55332458102051" y1="313.38338106998691" x2="138.10981949427503" y2="260.169325882624" />
    <line x1="90.833477758629542" y1="283.1665222413705" x2="113.46089475659906" y2="260.53910524340097" />
    <line x1="124.77460325558383" y1="249.2253967444162" x2="136.08831175456857" y2="237.91168824543144" />
    <line x1="147.40202025355336" y1="226.59797974644667" x2="170.02943725152286" y2="203.97056274847714" />
    <line x1="47.3131051331724" y1="280.33579914729319" x2="73.920132726853851" y2="262.55755169066589" />
    <line x1="113.83067411737602" y1="235.890180505725" x2="127.13418791421674" y2="227.00105677741135" />
    <line x1="38.837227589476356" y1="266.19465178676762" x2="52.947967819050064" y2="258.65230399755166" />
    <line x1="46.57031105828446" y1="245.16788171949372" x2="61.352383578465037" y2="239.04494680165229" />
    <line x1="120.48067365918737" y1="214.5532071302865" x2="150.04481869954856" y2="202.3073372946036" />
    <line x1="6.535508405805615" y1="222.89661925096766" x2="53.613201865160676" y2="213.53228379419349" />
    <line x1="69.305766351612363" y1="210.41083864193544" x2="116.38345981096742" y2="201.04650318516127" />
    <line x1="35.731921545826054" y1="201.89860533009318" x2="51.654877172581223" y2="200.33033108482022" />
    <line x1="51" y1="187.00000000000003" x2="67" y2="187.00000000000003" />
    <line x1="99" y1="187.00000000000003" x2="115" y2="187" />
    <line x1="3.886010292315774" y1="168.96484617936093" x2="19.808965919070914" y2="170.53312042463389" />
    <line x1="35.731921545826054" y1="172.10139466990688" x2="51.654877172581223" y2="173.66966891517984" />
    <line x1="22.228072892257273" y1="154.22482590129044" x2="53.613201865160647" y2="160.46771620580654" />
    <line x1="10.922978225273567" y1="133.58761938517898" x2="26.234023596988891" y2="138.23217422125038" />
    <line x1="41.545068968704243" y1="142.87672905732177" x2="56.856114340419595" y2="147.52128389339316" />
    <line x1="31.788238538103855" y1="122.70918336266487" x2="120.48067365918736" y2="159.44679286971353" />
    <line x1="135.26274617936795" y1="165.56972778755497" x2="150.04481869954853" y2="171.6926627053964" />
    <line x1="38.837227589476356" y1="107.80534821323241" x2="67.058708048623714" y2="122.89004379166433" />
    <line x1="47.313105133172371" y1="93.664200852706884" x2="60.61661893001309" y2="102.55332458102052" />
    <line x1="73.920132726853822" y1="111.44244830933415" x2="127.13418791421672" y2="146.99894322258865" />
    <line x1="57.134243835060204" y1="80.421928260507542" x2="69.502411088864" y2="90.572220807125873" />
    <line x1="56.892352261675228" y1="56.892352261675285" x2="79.519769259644747" y2="79.5197692596448" />
    <line x1="124.7746032555838" y1="124.77460325558383" x2="136.08831175456857" y2="136.08831175456859" />
    <line x1="90.572220807125817" y1="69.502411088864022" x2="100.72251335374415" y2="81.870578342667812" />
    <line x1="93.664200852706841" y1="47.3131051331724" x2="102.55332458102046" y2="60.616618930013118" />
    <line x1="120.33157203764773" y1="87.223646523694569" x2="129.22069576596138" y2="100.5271603205353" />
    <line x1="138.109819494275" y1="113.83067411737602" x2="146.99894322258865" y2="127.13418791421674" />
    <line x1="115.34769600244832" y1="52.947967819050064" x2="122.89004379166428" y2="67.058708048623743" />
    <line x1="116.58624844482337" y1="17.006166017923277" x2="128.83211828050625" y2="46.57031105828446" />
    <line x1="134.95505319834771" y1="61.352383578465037" x2="141.07798811618915" y2="76.134456098645614" />
    <line x1="142.87672905732171" y1="41.545068968704271" x2="147.5212838933931" y2="56.856114340419595" />
    <line x1="154.22482590129039" y1="22.228072892257302" x2="157.34627105354844" y2="37.920637378708989" />
    <line x1="163.58916135806456" y1="69.305766351612363" x2="172.95349681483873" y2="116.38345981096742" />
    <line x1="172.1013946699068" y1="35.731921545826054" x2="173.66966891517978" y2="51.654877172581223" />
  </g>
  <path fill="none" stroke="#ff0000" stroke-width="2" stroke-linecap="square" stroke-linejoin="round" d="M 196.02845207624492,3.2216360582482935 L 195.63591068162558,11.211999707889646 A 176,176 0 0,0 127.70738580296927,21.288244527788351 L 138.48786111152032,51.417654613645 A 144,144 0 0,0 125.43206654603932,56.825541790224179 L 132.27294804092384,71.289370480199281 A 128,128 0 0,0 88.054661969569679,105.79765962705336 L 100.42282922337347,115.9479521736717 A 112,112 0 0,1 115.94795217367165,100.4228292233735 L 126.09824472028998,112.79099647717729 A 96,96 0 0,0 112.79099647717726,126.09824472029003 L 137.52733098478484,146.39882981352668 A 64,64 0 0,0 130.55703908170528,156.83060884313616 L 74.114078163410554,126.66121768627231 A 128,128 0 0,0 71.289370480199253,132.27294804092389 L 27.897884410273974,111.75030355627034 A 176,176 0 0,0 21.288244527788322,127.70738580296936 L 36.352949570716646,133.09762345724488 A 160,160 0 0,0 31.794999488872946,148.12317121547778 L 62.835999591098371,155.89853697238223 A 128,128 0 0,0 59.154181605737932,180.71933768609054 L 43.17345430645517,179.93425489685185 A 144,144 0 0,0 43.17345430645517,194.0657451031482 L 59.154181605737932,193.28066231390952 A 128,128 0 0,0 88.054661969569707,268.20234037294665 L 100.4228292233735,258.05204782632836 A 112,112 0 0,1 79.822682397992608,219.51188385249981 L 95.133727769707946,214.86732901642839 A 96,96 0 0,0 112.79099647717729,247.90175527971002 L 137.52733098478484,227.60117018647333 A 64,64 0 0,1 133.7859448126371,222.55649491325454 L 160.39297240631856,204.77824745662727 A 32,32 0 0,1 160.39297240631854,169.22175254337273 L 147.08945860947782,160.33262881505911 A 48,48 0 0,1 234.07769345935506,177.63566454322583 L 218.38512897290337,180.75710969548391 A 32,32 0 0,1 174.75413016431713,216.56414504036118 L 177.81559762323786,209.17310878027089" />
  <type>Circular</type>
</svg>