<?xml version="1.0" encoding="utf-8" standalone="no"?>
<!DOCTYPE svg PUBLIC "-//W3C//DTD SVG 1.1//EN" "http://www.w3.org/Graphics/SVG/1.1/DTD/svg11.dtd"[]>
<svg width="372" height="372" version="1.1" xmlns="http://www.w3.org/2000/svg">
  <title>23 cells diameter theta maze</title>
  <g fill="none" stroke="#000000" stroke-width="2" stroke-linecap="square">
    <path d="M 170.02943725152286,203.97056274847714 A 24,24 0 1,1 187,211" />
    <path d="M 187,147 A 40,40 0 0,1 223.95518130045147,171.6926627053964" />
    <path d="M 227,187 A 40,40 0 0,1 223.95518130045147,202.3073372946036" />
    <path d="M 215.2842712474619,215.2842712474619 A 40,40 0 0,1 202.3073372946036,223.95518130045147" />
    <path d="M 187,227 A 40,40 0 0,1 150.04481869954853,202.3073372946036" />
    <path d="M 150.04481869954853,171.6926627053964 A 40,40 0 0,1 171.69266270539637,150.04481869954856" />
    <path d="M 165.56972778755494,135.26274617936795 A 56,56 0 0,1 187,131" />
    <path d="M 238.73725382063205,165.56972778755497 A 56,56 0 0,1 243,187" />
    <path d="M 238.73725382063208,208.43027221244503 A 56,56 0 0,1 208.43027221244503,238.73725382063205" />
    <path d="M 131,187 A 56,56 0 0,1 147.40202025355333,147.40202025355336" />
    <path d="M 187,115 A 72,72 0 0,1 214.55320713028647,120.48067365918736" />
    <path d="M 227.00105677741135,127.13418791421674 A 72,72 0 0,1 237.91168824543144,136.08831175456857" />
    <path d="M 246.86581208578326,146.99894322258865 A 72,72 0 0,1 253.51932634081265,159.44679286971353" />
    <path d="M 253.51932634081265,214.55320713028647 A 72,72 0 0,1 246.86581208578326,227.00105677741135" />
    <path d="M 227.00105677741135,246.86581208578326 A 72,72 0 0,1 187,259" />
    <path d="M 172.95349681483876,257.61654018903261 A 72,72 0 0,1 146.99894322258865,246.86581208578326" />
    <path d="M 127.13418791421674,227.00105677741135 A 72,72 0 0,1 120.48067365918736,159.44679286971353" />
    <path d="M 127.13418791421672,146.99894322258865 A 72,72 0 0,1 172.95349681483873,116.38345981096741" />
    <path d="M 153.32385795187204,105.69860113900678 A 88,88 0 0,1 220.6761420481279,105.69860113900677" />
    <path d="M 268.30139886099323,153.3238579518721 A 88,88 0 0,1 249.22539674441617,249.22539674441617" />
    <path d="M 204.16794833741932,273.30910467548426 A 88,88 0 0,1 169.83205166258071,273.30910467548426" />
    <path d="M 124.77460325558383,249.2253967444162 A 88,88 0 0,1 113.83067411737602,235.890180505725" />
    <path d="M 105.69860113900678,220.67614204812796 A 88,88 0 0,1 113.83067411737599,138.10981949427503" />
    <path d="M 124.7746032555838,124.77460325558383 A 88,88 0 0,1 138.109819494275,113.83067411737602" />
    <path d="M 113.46089475659905,113.46089475659908 A 104,104 0 0,1 207.28939348967734,84.998330838064035" />
    <path d="M 226.79907696596933,90.916528618826177 A 104,104 0 0,1 244.77930423403862,100.52716032053529" />
    <path d="M 260.53910524340097,113.46089475659906 A 104,104 0 0,1 289.001669161936,166.71060651032266" />
    <path d="M 289.001669161936,207.28939348967734 A 104,104 0 0,1 283.08347138117381,226.79907696596933" />
    <path d="M 273.47283967946476,244.77930423403859 A 104,104 0 0,1 226.79907696596933,283.08347138117381" />
    <path d="M 187,291 A 104,104 0 0,1 166.71060651032266,289.001669161936" />
    <path d="M 147.20092303403067,283.08347138117381 A 104,104 0 0,1 129.22069576596141,273.47283967946476" />
    <path d="M 100.52716032053529,244.77930423403862 A 104,104 0 0,1 83,187.00000000000003" />
    <path d="M 90.916528618826192,147.20092303403064 A 104,104 0 0,1 100.52716032053527,129.22069576596141" />
    <path d="M 163.58916135806456,69.305766351612363 A 120,120 0 0,1 187,67" />
    <path d="M 210.41083864193539,69.305766351612348 A 120,120 0 0,1 232.92201188381077,76.134456098645586" />
    <path d="M 253.66842796235227,87.223646523694569 A 120,120 0 0,1 271.85281374238571,102.14718625761429" />
    <path d="M 286.77635347630542,120.33157203764773 A 120,120 0 0,1 297.86554390135439,141.07798811618923" />
    <path d="M 304.69423364838764,163.58916135806459 A 120,120 0 0,1 307,187" />
    <path d="M 297.86554390135439,232.92201188381077 A 120,120 0 0,1 286.77635347630542,253.66842796235224" />
    <path d="M 271.85281374238571,271.85281374238571 A 120,120 0 0,1 253.66842796235227,286.77635347630542" />
    <path d="M 232.9220118838108,297.86554390135439 A 120,120 0 0,1 187.00000000000003,307" />
    <path d="M 163.58916135806459,304.69423364838764 A 120,120 0 0,1 141.07798811618926,297.86554390135439" />
    <path d="M 102.14718625761431,271.85281374238571 A 120,120 0 0,1 87.223646523694569,253.66842796235227" />
    <path d="M 67,187.00000000000003 A 120,120 0 0,1 76.1344560986456,141.0779881161892" />
    <path d="M 87.223646523694541,120.33157203764777 A 120,120 0 0,1 141.07798811618915,76.134456098645614" />
    <path d="M 134.95505319834771,61.352383578465037 A 136,136 0 0,1 200.33033108482024,51.654877172581223" />
    <path d="M 226.4787161066069,56.856114340419595 A 136,136 0 0,1 273.2774866462558,81.87057834266777" />
    <path d="M 283.16652224137044,90.833477758629527 A 136,136 0 0,1 300.07986727314614,111.4424483093341" />
    <path d="M 306.94129195137629,122.8900437916643 A 136,136 0 0,1 312.64761642153496,134.9550531983478" />
    <path d="M 317.14388565958041,147.52128389339313 A 136,136 0 0,1 320.38679813483935,160.46771620580654" />
    <path d="M 322.34512282741878,173.66966891517973 A 136,136 0 0,1 322.34512282741878,200.33033108482024" />
    <path d="M 320.38679813483935,213.53228379419343 A 136,136 0 0,1 312.647616421535,239.0449468016522" />
    <path d="M 306.94129195137629,251.10995620833569 A 136,136 0 0,1 273.2774866462558,292.12942165733222" />
    <path d="M 262.55755169066589,300.07986727314619 A 136,136 0 0,1 226.4787161066069,317.14388565958041" />
    <path d="M 213.53228379419349,320.3867981348393 A 136,136 0 0,1 173.66966891517976,322.34512282741878" />
    <path d="M 160.46771620580654,320.38679813483935 A 136,136 0 0,1 147.52128389339316,317.14388565958041" />
    <path d="M 111.44244830933414,300.07986727314619 A 136,136 0 0,1 90.833477758629556,283.16652224137044" />
    <path d="M 73.920132726853836,262.55755169066589 A 136,136 0 0,1 61.352383578465037,239.04494680165229" />
    <path d="M 53.613201865160676,213.53228379419349 A 136,136 0 0,1 51.654877172581223,173.66966891517984" />
    <path d="M 53.613201865160647,160.46771620580654 A 136,136 0 0,1 90.833477758629513,90.833477758629556" />
    <path d="M 100.72251335374415,81.870578342667827 A 136,136 0 0,1 122.89004379166428,67.058708048623743" />
    <path d="M 187,35 A 152,152 0 0,1 231.12327094267829,41.545068968704243" />
    <path d="M 245.16788171949364,46.5703110582844 A 152,152 0 0,1 258.65230399755166,52.947967819050035" />
    <path d="M 294.48023074035524,79.519769259644775 A 152,152 0 0,1 321.05203218094994,115.34769600244833" />
    <path d="M 327.4296889417156,128.83211828050634 A 152,152 0 0,1 336.079362621291,157.34627105354849" />
    <path d="M 338.26807845417392,201.89860533009323 A 152,152 0 0,1 336.079362621291,216.65372894645148" />
    <path d="M 294.48023074035524,294.48023074035518 A 152,152 0 0,1 283.42777919287414,304.497588911136" />
    <path d="M 258.65230399755166,321.05203218094994 A 152,152 0 0,1 231.12327094267829,332.45493103129576" />
    <path d="M 187.00000000000003,339 A 152,152 0 0,1 142.87672905732177,332.45493103129576" />
    <path d="M 128.83211828050636,327.4296889417156 A 152,152 0 0,1 115.34769600244836,321.05203218094994" />
    <path d="M 102.55332458102051,313.38338106998691 A 152,152 0 0,1 69.502411088864022,283.42777919287414" />
    <path d="M 60.616618930013118,271.44667541897951 A 152,152 0 0,1 46.57031105828446,245.16788171949372" />
    <path d="M 35.731921545826054,172.10139466990688 A 152,152 0 0,1 37.92063737870896,157.34627105354849" />
    <path d="M 41.545068968704243,142.87672905732177 A 152,152 0 0,1 46.570311058284432,128.83211828050634" />
    <path d="M 52.947967819050035,115.34769600244837 A 152,152 0 0,1 60.61661893001309,102.55332458102052" />
    <path d="M 69.502411088864,90.572220807125873 A 152,152 0 0,1 115.34769600244832,52.947967819050064" />
    <path d="M 142.87672905732171,41.545068968704271 A 152,152 0 0,1 157.34627105354844,37.920637378708989" />
    <path d="M 187,19 A 168,168 0 0,1 219.77517409870956,22.228072892257273" />
    <path d="M 235.76782577874968,26.234023596988919 A 168,168 0 0,1 251.29081663733507,31.788238538103826" />
    <path d="M 266.19465178676762,38.837227589476356 A 168,168 0 0,1 280.33579914729319,47.3131051331724" />
    <path d="M 305.79393923934,68.206060760660009 A 168,168 0 0,1 326.68689486682763,93.664200852706827" />
    <path d="M 335.16277241052364,107.80534821323238 A 168,168 0 0,1 342.21176146189617,122.70918336266492" />
    <path d="M 354.19103408092906,170.53312042463378 A 168,168 0 0,1 355,187" />
    <path d="M 351.77192710774273,219.77517409870953 A 168,168 0 0,1 316.86575616493985,293.57807173949243" />
    <path d="M 305.79393923934,305.79393923934 A 168,168 0 0,1 280.33579914729319,326.68689486682763" />
    <path d="M 235.76782577874968,347.76597640301111 A 168,168 0 0,1 170.53312042463381,354.19103408092906" />
    <path d="M 138.23217422125038,347.76597640301111 A 168,168 0 0,1 93.664200852706884,326.68689486682763" />
    <path d="M 80.421928260507585,316.86575616493985 A 168,168 0 0,1 47.3131051331724,280.33579914729319" />
    <path d="M 38.837227589476385,266.19465178676762 A 168,168 0 0,1 26.234023596988919,235.76782577874968" />
    <path d="M 22.228072892257302,219.77517409870961 A 168,168 0 0,1 19.808965919070914,203.46687957536616" />
    <path d="M 19,187.00000000000003 A 168,168 0 0,1 19.808965919070914,170.53312042463392" />
    <path d="M 26.234023596988891,138.23217422125038 A 168,168 0 0,1 38.837227589476356,107.80534821323241" />
    <path d="M 47.313105133172371,93.664200852706884 A 168,168 0 0,1 57.134243835060204,80.421928260507542" />
    <path d="M 122.70918336266482,31.788238538103855 A 168,168 0 0,1 154.22482590129039,22.228072892257302" />
    <path d="M 205.03515382063915,3.886010292315774 A 184,184 0 1,1 187,3" />
  </g>
  <g fill="none" stroke="#000000" stroke-width="2" stroke-linecap="butt">
    <line x1="187" y1="19" x2="187" y2="35" />
    <line x1="187" y1="67" x2="187" y2="83" />
    <line x1="187" y1="131" x2="187" y2="147" />
    <line x1="222.8966192509676" y1="6.535508405805615" x2="219.77517409870956" y2="22.228072892257273" />
    <line x1="213.53228379419343" y1="53.613201865160647" x2="207.28939348967734" y2="84.998330838064035" />
    <line x1="235.76782577874968" y1="26.234023596988919" x2="231.12327094267829" y2="41.545068968704271" />
    <line x1="251.29081663733507" y1="31.788238538103826" x2="245.16788171949366" y2="46.5703110582844" />
    <line x1="239.0449468016522" y1="61.352383578465009" x2="226.79907696596933" y2="90.916528618826177" />
    <line x1="220.6761420481279" y1="105.69860113900677" x2="202.3073372946036" y2="150.04481869954853" />
    <line x1="289.22492287560681" y1="34.009591336331681" x2="271.44667541897957" y2="60.616618930013118" />
    <line x1="244.77930423403862" y1="100.5271603205353" x2="227.00105677741135" y2="127.13418791421674" />
    <line x1="293.57807173949243" y1="57.134243835060175" x2="273.2774866462558" y2="81.87057834266777" />
    <line x1="305.79393923934" y1="68.206060760660009" x2="226.59797974644664" y2="147.40202025355333" />
    <line x1="273.4728396794647" y1="129.22069576596135" x2="260.169325882624" y2="138.109819494275" />
    <line x1="349.27351264009729" y1="100.2630004240164" x2="306.94129195137629" y2="122.8900437916643" />
    <line x1="312.64761642153496" y1="134.9550531983478" x2="297.86554390135439" y2="141.0779881161892" />
    <line x1="268.30139886099323" y1="153.3238579518721" x2="238.73725382063205" y2="165.56972778755497" />
    <line x1="363.0770217747264" y1="133.58761938517893" x2="347.76597640301111" y2="138.23217422125032" />
    <line x1="332.45493103129576" y1="142.87672905732171" x2="317.14388565958041" y2="147.52128389339313" />
    <line x1="367.46449159419438" y1="151.1033807490324" x2="336.079362621291" y2="157.34627105354849" />
    <line x1="320.38679813483935" y1="160.46771620580654" x2="304.69423364838764" y2="163.58916135806459" />
    <line x1="273.30910467548426" y1="169.83205166258071" x2="257.61654018903261" y2="172.95349681483876" />
    <line x1="354.19103408092906" y1="170.53312042463378" x2="322.34512282741878" y2="173.66966891517973" />
    <line x1="371" y1="187" x2="355" y2="187" />
    <line x1="339" y1="187" x2="323" y2="187" />
    <line x1="307" y1="187" x2="259" y2="187" />
    <line x1="243" y1="187" x2="211" y2="187" />
    <line x1="370.11398970768425" y1="205.03515382063915" x2="338.268078454174" y2="201.89860533009323" />
    <line x1="304.69423364838764" y1="210.41083864193539" x2="289.001669161936" y2="207.28939348967734" />
    <line x1="273.30910467548426" y1="204.16794833741929" x2="257.61654018903261" y2="201.04650318516124" />
    <line x1="363.0770217747264" y1="240.41238061482105" x2="347.76597640301111" y2="235.76782577874965" />
    <line x1="332.45493103129576" y1="231.12327094267823" x2="317.14388565958041" y2="226.47871610660684" />
    <line x1="342.21176146189617" y1="251.29081663733507" x2="283.08347138117381" y2="226.79907696596933" />
    <line x1="268.30139886099323" y1="220.6761420481279" x2="238.73725382063205" y2="208.43027221244503" />
    <line x1="335.16277241052364" y1="266.19465178676762" x2="306.94129195137629" y2="251.10995620833569" />
    <line x1="326.68689486682763" y1="280.33579914729313" x2="313.38338106998691" y2="271.44667541897951" />
    <line x1="273.47283967946476" y1="244.77930423403859" x2="260.169325882624" y2="235.89018050572497" />
    <line x1="316.86575616493985" y1="293.57807173949243" x2="304.49758891113606" y2="283.42777919287408" />
    <line x1="317.10764773832477" y1="317.10764773832477" x2="305.79393923934" y2="305.79393923934" />
    <line x1="249.22539674441617" y1="249.22539674441617" x2="237.91168824543144" y2="237.91168824543144" />
    <line x1="215.2842712474619" y1="215.2842712474619" x2="203.97056274847714" y2="203.97056274847714" />
    <line x1="283.42777919287414" y1="304.497588911136" x2="273.2774866462558" y2="292.12942165733222" />
    <line x1="280.33579914729319" y1="326.68689486682763" x2="271.44667541897957" y2="313.38338106998691" />
    <line x1="253.66842796235227" y1="286.77635347630542" x2="235.890180505725" y2="260.169325882624" />
    <line x1="273.73699957598359" y1="349.27351264009729" x2="258.65230399755166" y2="321.05203218094994" />
    <line x1="251.2908166373351" y1="342.21176146189617" x2="245.16788171949366" y2="327.4296889417156" />
    <line x1="239.04494680165223" y1="312.64761642153496" x2="232.9220118838108" y2="297.86554390135439" />
    <line x1="220.6761420481279" y1="268.30139886099323" x2="208.43027221244503" y2="238.73725382063205" />
    <line x1="219.77517409870961" y1="351.77192710774273" x2="216.65372894645154" y2="336.079362621291" />
    <line x1="210.41083864193544" y1="304.69423364838764" x2="207.28939348967737" y2="289.001669161936" />
    <line x1="203.46687957536622" y1="354.19103408092906" x2="200.33033108482027" y2="322.34512282741878" />
    <line x1="187.00000000000003" y1="323" x2="187" y2="275" />
    <line x1="187" y1="243" x2="187" y2="211" />
    <line x1="168.96484617936085" y1="370.11398970768425" x2="170.53312042463381" y2="354.19103408092906" />
    <line x1="151.1033807490324" y1="367.46449159419438" x2="157.34627105354849" y2="336.079362621291" />
    <line x1="169.83205166258071" y1="273.30910467548426" x2="172.95349681483876" y2="257.61654018903261" />
    <line x1="133.58761938517898" y1="363.0770217747264" x2="138.23217422125038" y2="347.76597640301111" />
    <line x1="142.87672905732177" y1="332.45493103129576" x2="147.52128389339316" y2="317.14388565958041" />
    <line x1="128.83211828050636" y1="327.4296889417156" x2="153.3238579518721" y2="268.30139886099323" />
    <line x1="159.44679286971353" y1="253.51932634081265" x2="165.56972778755497" y2="238.73725382063208" />
    <line x1="107.80534821323239" y1="335.16277241052364" x2="122.89004379166433" y2="306.94129195137629" />
    <line x1="93.66420085270687" y1="326.68689486682763" x2="120.33157203764776" y2="286.77635347630547" />
    <line x1="129.22069576596141" y1="273.47283967946476" x2="138.10981949427503" y2="260.169325882624" />
    <line x1="70.271635713889268" y1="329.23392341874364" x2="80.4219282605076" y2="316.86575616493985" />
    <line x1="90.833477758629542" y1="283.1665222413705" x2="147.40202025355336" y2="226.59797974644667" />
    <line x1="69.502411088864022" y1="283.4277791928742" x2="81.870578342667812" y2="273.27748664625585" />
    <line x1="60.616618930013118" y1="271.44667541897957" x2="87.223646523694569" y2="253.66842796235227" />
    <line x1="100.5271603205353" y1="244.77930423403862" x2="113.83067411737602" y2="235.890180505725" />
    <line x1="76.134456098645614" y1="232.92201188381085" x2="90.9165286188262" y2="226.79907696596939" />
    <line x1="105.69860113900678" y1="220.67614204812796" x2="135.26274617936795" y2="208.43027221244506" />
    <line x1="10.922978225273567" y1="240.41238061482108" x2="56.856114340419595" y2="226.4787161066069" />
    <line x1="6.535508405805615" y1="222.89661925096766" x2="22.228072892257302" y2="219.77517409870961" />
    <line x1="37.920637378708989" y1="216.65372894645157" x2="69.305766351612363" y2="210.41083864193544" />
    <line x1="19.808965919070914" y1="203.46687957536616" x2="35.731921545826054" y2="201.89860533009318" />
    <line x1="19" y1="187.00000000000003" x2="51" y2="187.00000000000003" />
    <line x1="67" y1="187.00000000000003" x2="83" y2="187.00000000000003" />
    <line x1="115" y1="187" x2="131" y2="187" />
    <line x1="147" y1="187" x2="163" y2="187" />
    <line x1="19.808965919070914" y1="170.53312042463389" x2="35.731921545826054" y2="172.10139466990688" />
    <line x1="6.535508405805615" y1="151.1033807490324" x2="37.920637378708989" y2="157.34627105354849" />
    <line x1="69.305766351612348" y1="163.58916135806462" x2="84.998330838064035" y2="166.71060651032266" />
    <line x1="10.922978225273567" y1="133.58761938517898" x2="41.545068968704243" y2="142.87672905732177" />
    <line x1="76.1344560986456" y1="141.0779881161892" x2="90.916528618826192" y2="147.20092303403064" />
    <line x1="60.61661893001309" y1="102.55332458102052" x2="73.920132726853822" y2="111.44244830933415" />
    <line x1="113.830674117376" y1="138.10981949427503" x2="127.13418791421672" y2="146.99894322258865" />
    <line x1="57.134243835060204" y1="80.421928260507542" x2="69.502411088864" y2="90.572220807125873" />
    <line x1="56.892352261675228" y1="56.892352261675285" x2="90.833477758629513" y2="90.833477758629556" />
    <line x1="80.421928260507485" y1="57.134243835060232" x2="100.72251335374415" y2="81.870578342667812" />
    <line x1="84.775077124393192" y1="34.009591336331681" x2="93.664200852706841" y2="47.3131051331724" />
    <line x1="129.22069576596138" y1="100.5271603205353" x2="138.109819494275" y2="113.83067411737602" />
    <line x1="107.80534821323235" y1="38.837227589476385" x2="115.34769600244832" y2="52.947967819050064" />
    <line x1="128.83211828050625" y1="46.57031105828446" x2="141.07798811618915" y2="76.134456098645614" />
    <line x1="159.44679286971348" y1="120.48067365918737" x2="171.69266270539637" y2="150.04481869954856" />
    <line x1="151.10338074903231" y1="6.535508405805615" x2="160.46771620580648" y2="53.613201865160676" />
    <line x1="166.71060651032261" y1="84.998330838064049" x2="169.83205166258068" y2="100.69089532451574" />
    <line x1="168.96484617936088" y1="3.886010292315774" x2="170.53312042463384" y2="19.808965919070914" />
    <line x1="172.1013946699068" y1="35.731921545826054" x2="173.66966891517978" y2="51.654877172581223" />
  </g>
  <path fill="none" stroke="#ff0000" stroke-width="2" stroke-linecap="square" stroke-linejoin="round" d="M 196.02845207624492,3.2216360582482935 L 195.63591068162558,11.211999707889646 A 176,176 0 0,0 178.36408931837443,11.211999707889646 L 179.9342548968518,43.17345430645517 A 144,144 0 0,1 208.12918832157209,44.558582565071532 L 205.7815007302863,60.38540672450803 A 128,128 0 0,0 149.8435613114288,64.51163702627727 L 154.48811614750019,79.822682397992608 A 112,112 0 0,0 100.42282922337347,115.9479521736717 L 112.79099647717726,126.09824472029003 A 96,96 0 0,0 102.33555862255793,232.2540867352958 L 116.44629885213161,224.71173894607983 A 80,80 0 0,0 125.15916373098108,237.75146273309167 L 137.52733098478484,227.60117018647333 A 64,64 0 0,1 133.7859448126371,222.55649491325454 L 147.08945860947785,213.66737118494092 A 48,48 0 0,1 139.92230654064494,196.36433545677417 L 155.61487102709663,193.24289030451612 A 32,32 0 0,0 174.75413016431713,216.56414504036118 L 177.81559762323786,209.17310878027089" />
  <type>Circular</type>
</svg>