<?xml version="1.0" encoding="utf-8" standalone="no"?>
<!DOCTYPE svg PUBLIC "-//W3C//DTD SVG 1.1//EN" "http://www.w3.org/Graphics/SVG/1.1/DTD/svg11.dtd"[]>
<svg width="372" height="372" version="1.1" xmlns="http://www.w3.org/2000/svg">
  <title>23 cells diameter theta maze</title>
  <g fill="none" stroke="#000000" stroke-width="2" stroke-linecap="square">
    <path d="M 170.02943725152286,203.97056274847714 A 24,24 0 1,1 187,211" />
    <path d="M 187,147 A 40,40 0 0,1 202.3073372946036,150.04481869954853" />
    <path d="M 215.2842712474619,158.7157287525381 A 40,40 0 0,1 223.95518130045147,202.3073372946036" />
    <path d="M 171.6926627053964,223.95518130045147 A 40,40 0 0,1 147,187" />
    <path d="M 150.04481869954853,171.6926627053964 A 40,40 0 0,1 158.7157287525381,158.7157287525381" />
    <path d="M 187,131 A 56,56 0 0,1 208.43027221244503,135.26274617936795" />
    <path d="M 238.73725382063205,165.56972778755497 A 56,56 0 0,1 238.73725382063208,208.43027221244503" />
    <path d="M 187,243 A 56,56 0 0,1 165.569727787555,238.73725382063208" />
    <path d="M 131,187 A 56,56 0 0,1 135.26274617936795,165.56972778755497" />
    <path d="M 172.95349681483873,116.38345981096741 A 72,72 0 0,1 187,115" />
    <path d="M 201.04650318516124,116.38345981096741 A 72,72 0 0,1 257.61654018903261,201.04650318516124" />
    <path d="M 253.51932634081265,214.55320713028647 A 72,72 0 0,1 246.86581208578326,227.00105677741135" />
    <path d="M 227.00105677741135,246.86581208578326 A 72,72 0 0,1 127.13418791421674,227.00105677741135" />
    <path d="M 120.48067365918737,214.5532071302865 A 72,72 0 0,1 115,187" />
    <path d="M 120.48067365918736,159.44679286971353 A 72,72 0 0,1 159.44679286971348,120.48067365918737" />
    <path d="M 187,99 A 88,88 0 0,1 275,187" />
    <path d="M 268.30139886099323,220.6761420481279 A 88,88 0 0,1 235.89018050572497,260.169325882624" />
    <path d="M 220.6761420481279,268.30139886099323 A 88,88 0 0,1 204.16794833741932,273.30910467548426" />
    <path d="M 187,275 A 88,88 0 0,1 124.77460325558383,249.2253967444162" />
    <path d="M 105.69860113900678,220.67614204812796 A 88,88 0 0,1 100.69089532451572,204.16794833741932" />
    <path d="M 99,187.00000000000003 A 88,88 0 0,1 100.69089532451572,169.83205166258071" />
    <path d="M 113.46089475659905,113.46089475659908 A 104,104 0 0,1 187,83" />
    <path d="M 226.79907696596933,90.916528618826177 A 104,104 0 0,1 260.53910524340097,113.46089475659906" />
    <path d="M 273.4728396794647,129.22069576596135 A 104,104 0 0,1 283.08347138117381,147.20092303403067" />
    <path d="M 289.001669161936,166.71060651032266 A 104,104 0 0,1 289.001669161936,207.28939348967734" />
    <path d="M 283.08347138117381,226.79907696596933 A 104,104 0 0,1 273.47283967946476,244.77930423403859" />
    <path d="M 244.77930423403862,273.4728396794647 A 104,104 0 0,1 166.71060651032266,289.001669161936" />
    <path d="M 147.20092303403067,283.08347138117381 A 104,104 0 0,1 129.22069576596141,273.47283967946476" />
    <path d="M 100.52716032053529,244.77930423403862 A 104,104 0 0,1 84.998330838064035,166.71060651032266" />
    <path d="M 187,67 A 120,120 0 0,1 253.66842796235227,87.223646523694569" />
    <path d="M 271.85281374238571,102.14718625761429 A 120,120 0 0,1 286.77635347630542,120.33157203764773" />
    <path d="M 304.69423364838764,163.58916135806459 A 120,120 0 0,1 307,187" />
    <path d="M 304.69423364838764,210.41083864193539 A 120,120 0 0,1 297.86554390135439,232.92201188381077" />
    <path d="M 286.77635347630542,253.66842796235224 A 120,120 0 0,1 253.66842796235227,286.77635347630542" />
    <path d="M 210.41083864193544,304.69423364838764 A 120,120 0 0,1 141.07798811618926,297.86554390135439" />
    <path d="M 102.14718625761431,271.85281374238571 A 120,120 0 0,1 76.134456098645614,232.92201188381085" />
    <path d="M 67,187.00000000000003 A 120,120 0 0,1 76.1344560986456,141.0779881161892" />
    <path d="M 87.223646523694541,120.33157203764777 A 120,120 0 0,1 163.58916135806456,69.305766351612363" />
    <path d="M 160.46771620580648,53.613201865160676 A 136,136 0 0,1 187,51" />
    <path d="M 200.33033108482024,51.654877172581223 A 136,136 0 0,1 239.0449468016522,61.352383578464995" />
    <path d="M 251.10995620833569,67.058708048623714 A 136,136 0 0,1 292.12942165733222,100.72251335374421" />
    <path d="M 306.94129195137629,122.8900437916643 A 136,136 0 0,1 322.34512282741878,173.66966891517973" />
    <path d="M 323,187 A 136,136 0 0,1 320.38679813483935,213.53228379419343" />
    <path d="M 312.647616421535,239.0449468016522 A 136,136 0 0,1 292.12942165733227,273.27748664625574" />
    <path d="M 283.16652224137044,283.16652224137044 A 136,136 0 0,1 213.53228379419349,320.3867981348393" />
    <path d="M 200.33033108482027,322.34512282741878 A 136,136 0 0,1 81.870578342667812,273.27748664625585" />
    <path d="M 73.920132726853836,262.55755169066589 A 136,136 0 0,1 67.058708048623728,251.10995620833572" />
    <path d="M 61.352383578465037,239.04494680165229 A 136,136 0 0,1 56.856114340419595,226.4787161066069" />
    <path d="M 51.654877172581223,200.33033108482022 A 136,136 0 0,1 81.870578342667784,100.72251335374421" />
    <path d="M 90.833477758629513,90.833477758629556 A 136,136 0 0,1 100.72251335374415,81.870578342667827" />
    <path d="M 134.95505319834771,61.352383578465037 A 136,136 0 0,1 147.5212838933931,56.856114340419595" />
    <path d="M 187,35 A 152,152 0 0,1 231.12327094267829,41.545068968704243" />
    <path d="M 245.16788171949364,46.5703110582844 A 152,152 0 0,1 283.42777919287414,69.50241108886398" />
    <path d="M 294.48023074035524,79.519769259644775 A 152,152 0 0,1 332.45493103129576,142.87672905732174" />
    <path d="M 336.079362621291,157.34627105354849 A 152,152 0 0,1 339,187" />
    <path d="M 338.26807845417392,201.89860533009323 A 152,152 0 0,1 336.079362621291,216.65372894645148" />
    <path d="M 327.4296889417156,245.16788171949364 A 152,152 0 0,1 313.38338106998691,271.44667541897951" />
    <path d="M 304.49758891113606,283.42777919287408 A 152,152 0 0,1 294.48023074035524,294.48023074035518" />
    <path d="M 283.42777919287414,304.497588911136 A 152,152 0 0,1 271.44667541897951,313.38338106998685" />
    <path d="M 245.16788171949366,327.42968894171554 A 152,152 0 0,1 231.12327094267829,332.45493103129576" />
    <path d="M 216.65372894645154,336.079362621291 A 152,152 0 0,1 172.1013946699068,338.26807845417392" />
    <path d="M 157.34627105354849,336.079362621291 A 152,152 0 0,1 142.87672905732177,332.45493103129576" />
    <path d="M 115.34769600244836,321.05203218094994 A 152,152 0 0,1 79.519769259644789,294.48023074035524" />
    <path d="M 52.947967819050064,258.65230399755171 A 152,152 0 0,1 46.57031105828446,245.16788171949372" />
    <path d="M 41.545068968704243,231.12327094267829 A 152,152 0 0,1 35.731921545826083,201.89860533009318" />
    <path d="M 35,187.00000000000003 A 152,152 0 0,1 41.545068968704243,142.87672905732177" />
    <path d="M 46.570311058284432,128.83211828050634 A 152,152 0 0,1 60.61661893001309,102.55332458102052" />
    <path d="M 90.572220807125817,69.502411088864037 A 152,152 0 0,1 102.55332458102046,60.616618930013118" />
    <path d="M 115.34769600244832,52.947967819050064 A 152,152 0 0,1 142.87672905732171,41.545068968704271" />
    <path d="M 219.77517409870956,22.228072892257273 A 168,168 0 0,1 266.19465178676762,38.837227589476356" />
    <path d="M 305.79393923934,68.206060760660009 A 168,168 0 0,1 326.68689486682763,93.664200852706827" />
    <path d="M 335.16277241052364,107.80534821323238 A 168,168 0 0,1 347.76597640301111,138.23217422125032" />
    <path d="M 351.77192710774273,154.22482590129044 A 168,168 0 0,1 354.19103408092906,170.53312042463378" />
    <path d="M 355,187 A 168,168 0 0,1 354.19103408092906,203.46687957536619" />
    <path d="M 347.76597640301111,235.76782577874965 A 168,168 0 0,1 342.21176146189617,251.29081663733507" />
    <path d="M 335.16277241052364,266.19465178676762 A 168,168 0 0,1 326.68689486682763,280.33579914729313" />
    <path d="M 305.79393923934,305.79393923934 A 168,168 0 0,1 293.57807173949243,316.86575616493985" />
    <path d="M 280.33579914729319,326.68689486682763 A 168,168 0 0,1 266.19465178676762,335.16277241052364" />
    <path d="M 170.53312042463381,354.19103408092906 A 168,168 0 0,1 154.22482590129044,351.77192710774273" />
    <path d="M 138.23217422125038,347.76597640301111 A 168,168 0 0,1 122.70918336266495,342.21176146189617" />
    <path d="M 80.421928260507585,316.86575616493985 A 168,168 0 0,1 38.837227589476385,266.19465178676762" />
    <path d="M 26.234023596988919,235.76782577874968 A 168,168 0 0,1 22.228072892257302,219.77517409870961" />
    <path d="M 19.808965919070914,203.46687957536616 A 168,168 0 0,1 19,187.00000000000003" />
    <path d="M 22.228072892257273,154.22482590129044 A 168,168 0 0,1 26.234023596988891,138.23217422125038" />
    <path d="M 38.837227589476356,107.80534821323241 A 168,168 0 0,1 47.313105133172371,93.664200852706884" />
    <path d="M 57.134243835060204,80.421928260507542 A 168,168 0 0,1 80.421928260507485,57.134243835060261" />
    <path d="M 93.664200852706827,47.3131051331724 A 168,168 0 0,1 107.80534821323235,38.837227589476385" />
    <path d="M 154.22482590129039,22.228072892257302 A 168,168 0 0,1 170.53312042463384,19.808965919070914" />
    <path d="M 205.03515382063915,3.886010292315774 A 184,184 0 1,1 187,3" />
  </g>
  <g fill="none" stroke="#000000" stroke-width="2" stroke-linecap="butt">
    <line x1="187" y1="3" x2="187" y2="19" />
    <line x1="187" y1="35" x2="187" y2="51" />
    <line x1="187" y1="99" x2="187" y2="115" />
    <line x1="187" y1="147" x2="187" y2="163" />
    <line x1="203.46687957536619" y1="19.808965919070914" x2="201.8986053300932" y2="35.731921545826054" />
    <line x1="210.41083864193539" y1="69.305766351612348" x2="204.16794833741929" y2="100.69089532451572" />
    <line x1="235.76782577874968" y1="26.234023596988919" x2="231.12327094267829" y2="41.545068968704271" />
    <line x1="245.16788171949366" y1="46.5703110582844" x2="239.0449468016522" y2="61.352383578465009" />
    <line x1="214.55320713028647" y1="120.48067365918736" x2="202.3073372946036" y2="150.04481869954853" />
    <line x1="273.73699957598353" y1="24.726487359902677" x2="258.65230399755166" y2="52.947967819050035" />
    <line x1="280.33579914729319" y1="47.3131051331724" x2="271.44667541897957" y2="60.616618930013118" />
    <line x1="262.55755169066589" y1="73.920132726853851" x2="253.66842796235227" y2="87.223646523694569" />
    <line x1="303.72836428611078" y1="44.766076581256385" x2="293.57807173949243" y2="57.134243835060175" />
    <line x1="294.48023074035518" y1="79.519769259644775" x2="283.16652224137044" y2="90.833477758629527" />
    <line x1="271.85281374238571" y1="102.14718625761429" x2="260.53910524340097" y2="113.46089475659905" />
    <line x1="237.91168824543144" y1="136.08831175456857" x2="226.59797974644664" y2="147.40202025355333" />
    <line x1="329.23392341874364" y1="70.271635713889225" x2="316.86575616493985" y2="80.421928260507556" />
    <line x1="313.38338106998685" y1="102.55332458102045" x2="286.77635347630542" y2="120.33157203764773" />
    <line x1="273.4728396794647" y1="129.22069576596135" x2="260.169325882624" y2="138.109819494275" />
    <line x1="335.16277241052364" y1="107.80534821323236" x2="321.05203218094994" y2="115.34769600244833" />
    <line x1="327.4296889417156" y1="128.83211828050634" x2="312.64761642153496" y2="134.9550531983478" />
    <line x1="297.86554390135439" y1="141.0779881161892" x2="283.08347138117381" y2="147.20092303403067" />
    <line x1="238.73725382063205" y1="165.56972778755497" x2="223.95518130045147" y2="171.6926627053964" />
    <line x1="363.0770217747264" y1="133.58761938517893" x2="347.76597640301111" y2="138.23217422125032" />
    <line x1="351.77192710774273" y1="154.22482590129044" x2="304.69423364838764" y2="163.58916135806459" />
    <line x1="289.001669161936" y1="166.71060651032266" x2="273.30910467548426" y2="169.83205166258071" />
    <line x1="339" y1="187" x2="323" y2="187" />
    <line x1="275" y1="187" x2="259" y2="187" />
    <line x1="354.19103408092906" y1="203.46687957536619" x2="322.34512282741878" y2="200.33033108482024" />
    <line x1="351.77192710774273" y1="219.77517409870953" x2="336.079362621291" y2="216.65372894645148" />
    <line x1="273.30910467548426" y1="204.16794833741929" x2="257.61654018903261" y2="201.04650318516124" />
    <line x1="347.76597640301111" y1="235.76782577874965" x2="317.14388565958041" y2="226.47871610660684" />
    <line x1="356.99383398207675" y1="257.41375155517653" x2="342.21176146189617" y2="251.29081663733507" />
    <line x1="297.86554390135439" y1="232.92201188381077" x2="268.30139886099323" y2="220.6761420481279" />
    <line x1="253.51932634081265" y1="214.55320713028647" x2="238.73725382063205" y2="208.43027221244503" />
    <line x1="335.16277241052364" y1="266.19465178676762" x2="321.05203218094994" y2="258.65230399755166" />
    <line x1="339.9904086636684" y1="289.22492287560675" x2="326.68689486682763" y2="280.33579914729313" />
    <line x1="313.38338106998691" y1="271.44667541897951" x2="286.77635347630547" y2="253.66842796235224" />
    <line x1="260.169325882624" y1="235.89018050572497" x2="246.86581208578326" y2="227.00105677741135" />
    <line x1="329.23392341874364" y1="303.72836428611072" x2="316.86575616493985" y2="293.57807173949243" />
    <line x1="304.49758891113606" y1="283.42777919287408" x2="292.12942165733227" y2="273.27748664625574" />
    <line x1="260.53910524340097" y1="260.53910524340097" x2="249.22539674441617" y2="249.22539674441617" />
    <line x1="237.91168824543144" y1="237.91168824543144" x2="203.97056274847714" y2="203.97056274847714" />
    <line x1="293.57807173949243" y1="316.86575616493985" x2="273.2774866462558" y2="292.12942165733222" />
    <line x1="253.66842796235227" y1="286.77635347630542" x2="244.77930423403862" y2="273.4728396794647" />
    <line x1="235.890180505725" y1="260.169325882624" x2="227.00105677741135" y2="246.86581208578326" />
    <line x1="273.73699957598359" y1="349.27351264009729" x2="258.65230399755166" y2="321.05203218094994" />
    <line x1="251.2908166373351" y1="342.21176146189617" x2="245.16788171949366" y2="327.4296889417156" />
    <line x1="239.04494680165223" y1="312.64761642153496" x2="226.79907696596933" y2="283.08347138117381" />
    <line x1="214.55320713028647" y1="253.51932634081265" x2="202.3073372946036" y2="223.95518130045147" />
    <line x1="235.76782577874968" y1="347.76597640301111" x2="226.4787161066069" y2="317.14388565958041" />
    <line x1="219.77517409870961" y1="351.77192710774273" x2="213.53228379419349" y2="320.38679813483935" />
    <line x1="204.16794833741932" y1="273.30910467548426" x2="201.04650318516127" y2="257.61654018903261" />
    <line x1="203.46687957536622" y1="354.19103408092906" x2="200.33033108482027" y2="322.34512282741878" />
    <line x1="187.00000000000003" y1="371" x2="187.00000000000003" y2="355" />
    <line x1="187" y1="259" x2="187" y2="211" />
    <line x1="170.53312042463381" y1="354.19103408092906" x2="172.1013946699068" y2="338.268078454174" />
    <line x1="157.34627105354849" y1="336.079362621291" x2="160.46771620580654" y2="320.38679813483935" />
    <line x1="163.58916135806459" y1="304.69423364838764" x2="166.71060651032266" y2="289.001669161936" />
    <line x1="116.5862484448235" y1="356.99383398207681" x2="128.83211828050636" y2="327.4296889417156" />
    <line x1="141.07798811618923" y1="297.86554390135444" x2="147.20092303403067" y2="283.08347138117381" />
    <line x1="100.26300042401644" y1="349.27351264009735" x2="107.80534821323239" y2="335.16277241052364" />
    <line x1="115.34769600244836" y1="321.05203218094994" x2="122.89004379166433" y2="306.94129195137629" />
    <line x1="93.66420085270687" y1="326.68689486682763" x2="102.55332458102051" y2="313.38338106998691" />
    <line x1="111.44244830933414" y1="300.07986727314619" x2="120.33157203764776" y2="286.77635347630547" />
    <line x1="129.22069576596141" y1="273.47283967946476" x2="138.10981949427503" y2="260.169325882624" />
    <line x1="80.4219282605076" y1="316.86575616493985" x2="90.572220807125916" y2="304.49758891113606" />
    <line x1="102.14718625761431" y1="271.85281374238571" x2="113.46089475659906" y2="260.53910524340097" />
    <line x1="147.40202025355336" y1="226.59797974644667" x2="170.02943725152286" y2="203.97056274847714" />
    <line x1="57.134243835060232" y1="293.57807173949254" x2="69.502411088864022" y2="283.4277791928742" />
    <line x1="47.3131051331724" y1="280.33579914729319" x2="60.616618930013118" y2="271.44667541897957" />
    <line x1="73.920132726853851" y1="262.55755169066589" x2="87.223646523694569" y2="253.66842796235227" />
    <line x1="100.5271603205353" y1="244.77930423403862" x2="113.83067411737602" y2="235.890180505725" />
    <line x1="52.947967819050064" y1="258.65230399755166" x2="67.058708048623728" y2="251.10995620833569" />
    <line x1="31.788238538103855" y1="251.29081663733518" x2="46.57031105828446" y2="245.16788171949372" />
    <line x1="61.352383578465037" y1="239.04494680165229" x2="76.134456098645614" y2="232.92201188381085" />
    <line x1="105.69860113900678" y1="220.67614204812796" x2="135.26274617936795" y2="208.43027221244506" />
    <line x1="26.234023596988919" y1="235.76782577874968" x2="56.856114340419595" y2="226.4787161066069" />
    <line x1="37.920637378708989" y1="216.65372894645157" x2="69.305766351612363" y2="210.41083864193544" />
    <line x1="84.998330838064049" y1="207.28939348967737" x2="100.69089532451574" y2="204.16794833741932" />
    <line x1="3.886010292315774" y1="205.03515382063912" x2="35.731921545826054" y2="201.89860533009318" />
    <line x1="51" y1="187.00000000000003" x2="83" y2="187.00000000000003" />
    <line x1="99" y1="187.00000000000003" x2="115" y2="187" />
    <line x1="3.886010292315774" y1="168.96484617936093" x2="35.731921545826054" y2="172.10139466990688" />
    <line x1="100.69089532451572" y1="169.83205166258071" x2="116.38345981096741" y2="172.95349681483876" />
    <line x1="26.234023596988891" y1="138.23217422125038" x2="41.545068968704243" y2="142.87672905732177" />
    <line x1="17.006166017923249" y1="116.58624844482344" x2="46.570311058284432" y2="128.83211828050634" />
    <line x1="76.1344560986456" y1="141.0779881161892" x2="135.26274617936795" y2="165.56972778755497" />
    <line x1="34.009591336331624" y1="84.775077124393263" x2="47.313105133172371" y2="93.664200852706884" />
    <line x1="87.223646523694541" y1="120.33157203764777" x2="100.52716032053527" y2="129.22069576596141" />
    <line x1="113.830674117376" y1="138.10981949427503" x2="127.13418791421672" y2="146.99894322258865" />
    <line x1="57.134243835060204" y1="80.421928260507542" x2="81.870578342667784" y2="100.72251335374421" />
    <line x1="68.20606076066" y1="68.206060760660051" x2="79.519769259644747" y2="79.5197692596448" />
    <line x1="113.46089475659905" y1="113.46089475659908" x2="124.7746032555838" y2="124.77460325558383" />
    <line x1="147.40202025355333" y1="147.40202025355336" x2="170.02943725152286" y2="170.02943725152286" />
    <line x1="70.271635713889154" y1="44.766076581256442" x2="80.421928260507485" y2="57.134243835060232" />
    <line x1="90.572220807125817" y1="69.502411088864022" x2="100.72251335374415" y2="81.870578342667812" />
    <line x1="93.664200852706841" y1="47.3131051331724" x2="111.44244830933411" y2="73.920132726853851" />
    <line x1="138.109819494275" y1="113.83067411737602" x2="146.99894322258865" y2="127.13418791421674" />
    <line x1="100.26300042401638" y1="24.726487359902706" x2="107.80534821323235" y2="38.837227589476385" />
    <line x1="115.34769600244832" y1="52.947967819050064" x2="122.89004379166428" y2="67.058708048623743" />
    <line x1="116.58624844482337" y1="17.006166017923277" x2="134.95505319834771" y2="61.352383578465037" />
    <line x1="153.32385795187204" y1="105.69860113900678" x2="171.69266270539637" y2="150.04481869954856" />
    <line x1="138.23217422125032" y1="26.234023596988919" x2="142.87672905732171" y2="41.545068968704271" />
    <line x1="151.10338074903231" y1="6.535508405805615" x2="154.22482590129039" y2="22.228072892257302" />
    <line x1="157.34627105354844" y1="37.920637378708989" x2="166.71060651032261" y2="84.998330838064049" />
    <line x1="169.83205166258068" y1="100.69089532451574" x2="172.95349681483873" y2="116.38345981096742" />
    <line x1="170.53312042463384" y1="19.808965919070914" x2="172.1013946699068" y2="35.731921545826054" />
  </g>
  <path fill="none" stroke="#ff0000" stroke-width="2" stroke-linecap="square" stroke-linejoin="round" d="M 196.02845207624492,3.2216360582482935 L 194.85082789238689,27.192727007172408 A 160,160 0 0,0 179.14917210761311,27.192727007172408 L 179.9342548968518,43.17345430645517 A 144,144 0 0,0 165.87081167842783,44.558582565071561 L 163.523124087142,28.731758405635048 A 160,160 0 0,0 148.12317121547773,31.794999488872975 L 155.89853697238218,62.835999591098371 A 128,128 0 0,0 74.114078163410554,126.66121768627231 L 102.33555862255791,141.74591326470423 A 96,96 0 0,1 112.79099647717726,126.09824472029003 L 125.15916373098105,136.24853726690836 A 80,80 0 0,1 136.24853726690833,125.15916373098108 L 126.09824472028998,112.79099647717729 A 96,96 0 0,1 159.13267098357159,95.133727769707946 L 168.4217806557144,125.75581851313864 A 64,64 0 0,1 174.51421939096775,124.22974205419325 L 180.75710969548388,155.61487102709663 A 32,32 0 0,0 169.22175254337273,160.39297240631856 L 151.44350508674546,133.7859448126371 A 64,64 0 0,0 133.7859448126371,151.44350508674549 L 147.08945860947782,160.33262881505911 A 48,48 0 0,0 147.08945860947785,213.66737118494092 L 133.7859448126371,222.55649491325454 A 64,64 0 0,0 151.44350508674546,240.2140551873629 L 160.33262881505911,226.91054139052218 A 48,48 0 0,0 177.63566454322583,234.07769345935506 L 180.75710969548391,218.38512897290337 A 32,32 0 0,1 174.75413016431713,216.56414504036118 L 177.81559762323786,209.17310878027089" />
  <type>Circular</type>
</svg>