<?xml version="1.0" encoding="utf-8" standalone="no"?>
<!DOCTYPE svg PUBLIC "-//W3C//DTD SVG 1.1//EN" "http://www.w3.org/Graphics/SVG/1.1/DTD/svg11.dtd"[]>
<svg width="372" height="372" version="1.1" xmlns="http://www.w3.org/2000/svg">
  <title>23 cells diameter theta maze</title>
  <g fill="none" stroke="#000000" stroke-width="2" stroke-linecap="square">
    <path d="M 170.02943725152286,203.97056274847714 A 24,24 0 1,1 187,211" />
    <path d="M 202.3073372946036,150.04481869954853 A 40,40 0 0,1 223.95518130045147,171.6926627053964" />
    <path d="M 223.95518130045147,202.3073372946036 A 40,40 0 0,1 215.2842712474619,215.2842712474619" />
    <path d="M 202.3073372946036,223.95518130045147 A 40,40 0 0,1 171.6926627053964,223.95518130045147" />
    <path d="M 158.7157287525381,215.2842712474619 A 40,40 0 0,1 150.04481869954853,171.6926627053964" />
    <path d="M 158.7157287525381,158.7157287525381 A 40,40 0 0,1 171.69266270539637,150.04481869954856" />
    <path d="M 243,187 A 56,56 0 0,1 238.73725382063208,208.43027221244503" />
    <path d="M 226.59797974644667,226.59797974644664 A 56,56 0 0,1 187,243" />
    <path d="M 165.569727787555,238.73725382063208 A 56,56 0 0,1 135.26274617936795,208.43027221244506" />
    <path d="M 147.40202025355333,147.40202025355336 A 56,56 0 0,1 165.56972778755494,135.26274617936795" />
    <path d="M 159.44679286971348,120.48067365918737 A 72,72 0 0,1 187,115" />
    <path d="M 201.04650318516124,116.38345981096741 A 72,72 0 0,1 214.55320713028647,120.48067365918736" />
    <path d="M 227.00105677741135,127.13418791421674 A 72,72 0 0,1 237.91168824543144,136.08831175456857" />
    <path d="M 246.86581208578326,146.99894322258865 A 72,72 0 0,1 257.61654018903261,172.95349681483876" />
    <path d="M 257.61654018903261,201.04650318516124 A 72,72 0 0,1 237.91168824543144,237.91168824543141" />
    <path d="M 227.00105677741135,246.86581208578326 A 72,72 0 0,1 214.55320713028647,253.51932634081265" />
    <path d="M 201.04650318516127,257.61654018903261 A 72,72 0 0,1 172.95349681483876,257.61654018903261" />
    <path d="M 159.44679286971353,253.51932634081265 A 72,72 0 0,1 136.08831175456859,237.91168824543144" />
    <path d="M 120.48067365918737,214.5532071302865 A 72,72 0 0,1 116.38345981096741,201.04650318516127" />
    <path d="M 115,187 A 72,72 0 0,1 146.99894322258865,127.13418791421674" />
    <path d="M 235.890180505725,113.83067411737602 A 88,88 0 0,1 249.22539674441617,124.77460325558381" />
    <path d="M 268.30139886099323,153.3238579518721 A 88,88 0 0,1 273.30910467548426,169.83205166258071" />
    <path d="M 275,187 A 88,88 0 0,1 268.30139886099323,220.6761420481279" />
    <path d="M 220.6761420481279,268.30139886099323 A 88,88 0 0,1 187,275" />
    <path d="M 169.83205166258071,273.30910467548426 A 88,88 0 0,1 138.10981949427503,260.169325882624" />
    <path d="M 124.77460325558383,249.2253967444162 A 88,88 0 0,1 105.69860113900678,220.67614204812796" />
    <path d="M 100.69089532451572,204.16794833741932 A 88,88 0 0,1 105.69860113900677,153.32385795187207" />
    <path d="M 113.83067411737599,138.10981949427503 A 88,88 0 0,1 124.7746032555838,124.77460325558383" />
    <path d="M 138.109819494275,113.83067411737602 A 88,88 0 0,1 153.32385795187204,105.69860113900678" />
    <path d="M 113.46089475659905,113.46089475659908 A 104,104 0 0,1 207.28939348967734,84.998330838064035" />
    <path d="M 226.79907696596933,90.916528618826177 A 104,104 0 0,1 244.77930423403862,100.52716032053529" />
    <path d="M 260.53910524340097,113.46089475659906 A 104,104 0 0,1 289.001669161936,207.28939348967734" />
    <path d="M 283.08347138117381,226.79907696596933 A 104,104 0 0,1 226.79907696596933,283.08347138117381" />
    <path d="M 207.28939348967737,289.001669161936 A 104,104 0 0,1 147.20092303403067,283.08347138117381" />
    <path d="M 129.22069576596141,273.47283967946476 A 104,104 0 0,1 113.46089475659908,260.53910524340097" />
    <path d="M 100.52716032053529,244.77930423403862 A 104,104 0 0,1 84.998330838064035,207.28939348967737" />
    <path d="M 83,187.00000000000003 A 104,104 0 0,1 84.998330838064035,166.71060651032266" />
    <path d="M 90.916528618826192,147.20092303403064 A 104,104 0 0,1 100.52716032053527,129.22069576596141" />
    <path d="M 163.58916135806456,69.305766351612363 A 120,120 0 0,1 187,67" />
    <path d="M 210.41083864193539,69.305766351612348 A 120,120 0 0,1 271.85281374238571,102.14718625761429" />
    <path d="M 297.86554390135439,141.07798811618923 A 120,120 0 0,1 307,187" />
    <path d="M 304.69423364838764,210.41083864193539 A 120,120 0 0,1 286.77635347630542,253.66842796235224" />
    <path d="M 271.85281374238571,271.85281374238571 A 120,120 0 0,1 253.66842796235227,286.77635347630542" />
    <path d="M 232.9220118838108,297.86554390135439 A 120,120 0 0,1 187.00000000000003,307" />
    <path d="M 141.07798811618926,297.86554390135439 A 120,120 0 0,1 120.33157203764777,286.77635347630547" />
    <path d="M 102.14718625761431,271.85281374238571 A 120,120 0 0,1 76.134456098645614,232.92201188381085" />
    <path d="M 69.305766351612348,210.41083864193544 A 120,120 0 0,1 67,187.00000000000003" />
    <path d="M 69.305766351612348,163.58916135806462 A 120,120 0 0,1 76.1344560986456,141.0779881161892" />
    <path d="M 87.223646523694541,120.33157203764777 A 120,120 0 0,1 141.07798811618915,76.134456098645614" />
    <path d="M 122.89004379166428,67.058708048623743 A 136,136 0 0,1 213.53228379419343,53.613201865160647" />
    <path d="M 226.4787161066069,56.856114340419595 A 136,136 0 0,1 239.0449468016522,61.352383578464995" />
    <path d="M 251.10995620833569,67.058708048623714 A 136,136 0 0,1 273.2774866462558,81.87057834266777" />
    <path d="M 283.16652224137044,90.833477758629527 A 136,136 0 0,1 312.64761642153496,134.9550531983478" />
    <path d="M 317.14388565958041,147.52128389339313 A 136,136 0 0,1 320.38679813483935,160.46771620580654" />
    <path d="M 322.34512282741878,173.66966891517973 A 136,136 0 0,1 317.14388565958041,226.47871610660687" />
    <path d="M 300.07986727314619,262.55755169066589 A 136,136 0 0,1 292.12942165733227,273.27748664625574" />
    <path d="M 273.2774866462558,292.12942165733222 A 136,136 0 0,1 226.4787161066069,317.14388565958041" />
    <path d="M 187.00000000000003,323 A 136,136 0 0,1 100.72251335374423,292.12942165733227" />
    <path d="M 90.833477758629556,283.16652224137044 A 136,136 0 0,1 81.870578342667812,273.27748664625585" />
    <path d="M 56.856114340419595,226.4787161066069 A 136,136 0 0,1 53.613201865160676,213.53228379419349" />
    <path d="M 51.654877172581223,200.33033108482022 A 136,136 0 0,1 56.856114340419595,147.52128389339316" />
    <path d="M 61.352383578465009,134.95505319834777 A 136,136 0 0,1 67.058708048623714,122.89004379166433" />
    <path d="M 90.833477758629513,90.833477758629556 A 136,136 0 0,1 111.4424483093341,73.920132726853851" />
    <path d="M 187,35 A 152,152 0 0,1 283.42777919287414,69.50241108886398" />
    <path d="M 304.497588911136,90.572220807125873 A 152,152 0 0,1 321.05203218094994,115.34769600244833" />
    <path d="M 327.4296889417156,128.83211828050634 A 152,152 0 0,1 332.45493103129576,142.87672905732174" />
    <path d="M 336.079362621291,157.34627105354849 A 152,152 0 0,1 332.45493103129576,231.12327094267826" />
    <path d="M 321.05203218094994,258.65230399755166 A 152,152 0 0,1 271.44667541897951,313.38338106998685" />
    <path d="M 258.65230399755166,321.05203218094994 A 152,152 0 0,1 216.65372894645154,336.079362621291" />
    <path d="M 201.89860533009323,338.26807845417392 A 152,152 0 0,1 187.00000000000003,339" />
    <path d="M 157.34627105354849,336.079362621291 A 152,152 0 0,1 142.87672905732177,332.45493103129576" />
    <path d="M 128.83211828050636,327.4296889417156 A 152,152 0 0,1 102.55332458102051,313.38338106998691" />
    <path d="M 90.572220807125916,304.49758891113606 A 152,152 0 0,1 60.616618930013118,271.44667541897951" />
    <path d="M 52.947967819050064,258.65230399755171 A 152,152 0 0,1 46.57031105828446,245.16788171949372" />
    <path d="M 35.731921545826083,201.89860533009318 A 152,152 0 0,1 35,187.00000000000003" />
    <path d="M 37.92063737870896,157.34627105354849 A 152,152 0 0,1 90.572220807125817,69.502411088864037" />
    <path d="M 102.55332458102046,60.616618930013118 A 152,152 0 0,1 128.83211828050625,46.57031105828446" />
    <path d="M 142.87672905732171,41.545068968704271 A 152,152 0 0,1 172.1013946699068,35.731921545826083" />
    <path d="M 170.53312042463384,19.808965919070914 A 168,168 0 0,1 187,19" />
    <path d="M 203.46687957536619,19.808965919070914 A 168,168 0 0,1 235.76782577874968,26.234023596988919" />
    <path d="M 280.33579914729319,47.3131051331724 A 168,168 0 0,1 316.8657561649398,80.421928260507556" />
    <path d="M 347.76597640301111,138.23217422125032 A 168,168 0 0,1 351.77192710774273,154.22482590129044" />
    <path d="M 347.76597640301111,235.76782577874965 A 168,168 0 0,1 326.68689486682763,280.33579914729313" />
    <path d="M 316.86575616493985,293.57807173949243 A 168,168 0 0,1 266.19465178676762,335.16277241052364" />
    <path d="M 235.76782577874968,347.76597640301111 A 168,168 0 0,1 203.46687957536622,354.19103408092906" />
    <path d="M 170.53312042463381,354.19103408092906 A 168,168 0 0,1 154.22482590129044,351.77192710774273" />
    <path d="M 93.664200852706884,326.68689486682763 A 168,168 0 0,1 80.421928260507585,316.86575616493985" />
    <path d="M 68.206060760660037,305.79393923934003 A 168,168 0 0,1 57.134243835060232,293.57807173949249" />
    <path d="M 47.3131051331724,280.33579914729319 A 168,168 0 0,1 38.837227589476385,266.19465178676762" />
    <path d="M 31.788238538103855,251.29081663733518 A 168,168 0 0,1 19.808965919070914,203.46687957536616" />
    <path d="M 19,187.00000000000003 A 168,168 0 0,1 22.228072892257273,154.22482590129044" />
    <path d="M 26.234023596988891,138.23217422125038 A 168,168 0 0,1 31.788238538103855,122.70918336266487" />
    <path d="M 57.134243835060204,80.421928260507542 A 168,168 0 0,1 68.20606076066,68.206060760660037" />
    <path d="M 80.421928260507485,57.134243835060261 A 168,168 0 0,1 93.664200852706827,47.3131051331724" />
    <path d="M 122.70918336266482,31.788238538103855 A 168,168 0 0,1 154.22482590129039,22.228072892257302" />
    <path d="M 205.03515382063915,3.886010292315774 A 184,184 0 1,1 187,3" />
  </g>
  <g fill="none" stroke="#000000" stroke-width="2" stroke-linecap="butt">
    <line x1="187" y1="51" x2="187" y2="67" />
    <line x1="187" y1="99" x2="187" y2="147" />
    <line x1="205.03515382063915" y1="3.886010292315774" x2="203.46687957536619" y2="19.808965919070914" />
    <line x1="210.41083864193539" y1="69.305766351612348" x2="204.16794833741929" y2="100.69089532451572" />
    <line x1="231.12327094267829" y1="41.545068968704271" x2="226.47871610660687" y2="56.856114340419595" />
    <line x1="257.41375155517653" y1="17.006166017923249" x2="245.16788171949366" y2="46.5703110582844" />
    <line x1="239.0449468016522" y1="61.352383578465009" x2="232.92201188381077" y2="76.134456098645586" />
    <line x1="226.79907696596933" y1="90.916528618826177" x2="202.3073372946036" y2="150.04481869954853" />
    <line x1="266.19465178676762" y1="38.837227589476356" x2="251.10995620833569" y2="67.058708048623714" />
    <line x1="289.22492287560681" y1="34.009591336331681" x2="280.33579914729319" y2="47.3131051331724" />
    <line x1="244.77930423403862" y1="100.5271603205353" x2="235.890180505725" y2="113.83067411737602" />
    <line x1="305.79393923934" y1="68.206060760660009" x2="283.16652224137044" y2="90.833477758629527" />
    <line x1="271.85281374238571" y1="102.14718625761429" x2="260.53910524340097" y2="113.46089475659905" />
    <line x1="249.22539674441617" y1="124.77460325558381" x2="226.59797974644664" y2="147.40202025355333" />
    <line x1="215.2842712474619" y1="158.7157287525381" x2="203.97056274847714" y2="170.02943725152286" />
    <line x1="339.99040866366829" y1="84.775077124393178" x2="326.68689486682763" y2="93.664200852706813" />
    <line x1="300.07986727314614" y1="111.44244830933408" x2="286.77635347630542" y2="120.33157203764773" />
    <line x1="260.169325882624" y1="138.109819494275" x2="246.86581208578326" y2="146.99894322258865" />
    <line x1="349.27351264009729" y1="100.2630004240164" x2="321.05203218094994" y2="115.34769600244833" />
    <line x1="342.21176146189617" y1="122.7091833626649" x2="327.4296889417156" y2="128.83211828050634" />
    <line x1="253.51932634081265" y1="159.44679286971353" x2="223.95518130045147" y2="171.6926627053964" />
    <line x1="332.45493103129576" y1="142.87672905732171" x2="317.14388565958041" y2="147.52128389339313" />
    <line x1="351.77192710774273" y1="154.22482590129044" x2="320.38679813483935" y2="160.46771620580654" />
    <line x1="273.30910467548426" y1="169.83205166258071" x2="257.61654018903261" y2="172.95349681483876" />
    <line x1="370.11398970768425" y1="168.96484617936082" x2="354.19103408092906" y2="170.53312042463378" />
    <line x1="355" y1="187" x2="339" y2="187" />
    <line x1="323" y1="187" x2="307" y2="187" />
    <line x1="275" y1="187" x2="227" y2="187" />
    <line x1="370.11398970768425" y1="205.03515382063915" x2="354.19103408092906" y2="203.46687957536619" />
    <line x1="367.46449159419438" y1="222.8966192509676" x2="336.079362621291" y2="216.65372894645148" />
    <line x1="304.69423364838764" y1="210.41083864193539" x2="289.001669161936" y2="207.28939348967734" />
    <line x1="332.45493103129576" y1="231.12327094267823" x2="317.14388565958041" y2="226.47871610660684" />
    <line x1="342.21176146189617" y1="251.29081663733507" x2="297.86554390135439" y2="232.92201188381077" />
    <line x1="253.51932634081265" y1="214.55320713028647" x2="238.73725382063205" y2="208.43027221244503" />
    <line x1="321.05203218094994" y1="258.65230399755166" x2="306.94129195137629" y2="251.10995620833569" />
    <line x1="300.07986727314619" y1="262.55755169066583" x2="286.77635347630547" y2="253.66842796235224" />
    <line x1="273.47283967946476" y1="244.77930423403859" x2="246.86581208578326" y2="227.00105677741135" />
    <line x1="294.48023074035524" y1="294.48023074035518" x2="249.22539674441617" y2="249.22539674441617" />
    <line x1="226.59797974644667" y1="226.59797974644664" x2="215.2842712474619" y2="215.2842712474619" />
    <line x1="271.44667541897957" y1="313.38338106998691" x2="262.55755169066589" y2="300.07986727314619" />
    <line x1="235.890180505725" y1="260.169325882624" x2="227.00105677741135" y2="246.86581208578326" />
    <line x1="266.19465178676762" y1="335.16277241052364" x2="258.65230399755166" y2="321.05203218094994" />
    <line x1="257.41375155517653" y1="356.99383398207675" x2="251.2908166373351" y2="342.21176146189617" />
    <line x1="239.04494680165223" y1="312.64761642153496" x2="232.9220118838108" y2="297.86554390135439" />
    <line x1="226.79907696596933" y1="283.08347138117381" x2="220.6761420481279" y2="268.30139886099323" />
    <line x1="214.55320713028647" y1="253.51932634081265" x2="208.43027221244503" y2="238.73725382063205" />
    <line x1="235.76782577874968" y1="347.76597640301111" x2="231.12327094267829" y2="332.4549310312957" />
    <line x1="216.65372894645154" y1="336.079362621291" x2="210.41083864193544" y2="304.69423364838764" />
    <line x1="207.28939348967737" y1="289.001669161936" x2="204.16794833741932" y2="273.30910467548426" />
    <line x1="203.46687957536622" y1="354.19103408092906" x2="200.33033108482027" y2="322.34512282741878" />
    <line x1="187.00000000000003" y1="371" x2="187.00000000000003" y2="355" />
    <line x1="187" y1="259" x2="187" y2="211" />
    <line x1="172.1013946699068" y1="338.268078454174" x2="173.66966891517976" y2="322.34512282741878" />
    <line x1="154.22482590129044" y1="351.77192710774273" x2="157.34627105354849" y2="336.079362621291" />
    <line x1="160.46771620580654" y1="320.38679813483935" x2="166.71060651032266" y2="289.001669161936" />
    <line x1="169.83205166258071" y1="273.30910467548426" x2="172.95349681483876" y2="257.61654018903261" />
    <line x1="133.58761938517898" y1="363.0770217747264" x2="138.23217422125038" y2="347.76597640301111" />
    <line x1="142.87672905732177" y1="332.45493103129576" x2="147.52128389339316" y2="317.14388565958041" />
    <line x1="122.70918336266493" y1="342.21176146189623" x2="128.83211828050636" y2="327.4296889417156" />
    <line x1="147.20092303403067" y1="283.08347138117381" x2="153.3238579518721" y2="268.30139886099323" />
    <line x1="165.56972778755497" y1="238.73725382063208" x2="171.6926627053964" y2="223.95518130045147" />
    <line x1="100.26300042401644" y1="349.27351264009735" x2="115.34769600244836" y2="321.05203218094994" />
    <line x1="120.33157203764776" y1="286.77635347630547" x2="129.22069576596141" y2="273.47283967946476" />
    <line x1="138.10981949427503" y1="260.169325882624" x2="146.99894322258865" y2="246.86581208578326" />
    <line x1="80.4219282605076" y1="316.86575616493985" x2="100.72251335374425" y2="292.12942165733227" />
    <line x1="113.46089475659906" y1="260.53910524340097" x2="124.77460325558383" y2="249.2253967444162" />
    <line x1="158.7157287525381" y1="215.2842712474619" x2="170.02943725152286" y2="203.97056274847714" />
    <line x1="44.766076581256442" y1="303.72836428611083" x2="57.134243835060232" y2="293.57807173949254" />
    <line x1="69.502411088864022" y1="283.4277791928742" x2="81.870578342667812" y2="273.27748664625585" />
    <line x1="60.616618930013118" y1="271.44667541897957" x2="87.223646523694569" y2="253.66842796235227" />
    <line x1="113.83067411737602" y1="235.890180505725" x2="127.13418791421674" y2="227.00105677741135" />
    <line x1="24.726487359902706" y1="273.73699957598359" x2="38.837227589476356" y2="266.19465178676762" />
    <line x1="52.947967819050064" y1="258.65230399755166" x2="67.058708048623728" y2="251.10995620833569" />
    <line x1="46.57031105828446" y1="245.16788171949372" x2="76.134456098645614" y2="232.92201188381085" />
    <line x1="90.9165286188262" y1="226.79907696596939" x2="105.69860113900678" y2="220.67614204812796" />
    <line x1="120.48067365918737" y1="214.5532071302865" x2="135.26274617936795" y2="208.43027221244506" />
    <line x1="26.234023596988919" y1="235.76782577874968" x2="56.856114340419595" y2="226.4787161066069" />
    <line x1="22.228072892257302" y1="219.77517409870961" x2="37.920637378708989" y2="216.65372894645157" />
    <line x1="69.305766351612363" y1="210.41083864193544" x2="116.38345981096742" y2="201.04650318516127" />
    <line x1="3.886010292315774" y1="205.03515382063912" x2="19.808965919070914" y2="203.46687957536616" />
    <line x1="35.731921545826054" y1="201.89860533009318" x2="51.654877172581223" y2="200.33033108482022" />
    <line x1="51" y1="187.00000000000003" x2="67" y2="187.00000000000003" />
    <line x1="83" y1="187.00000000000003" x2="99" y2="187.00000000000003" />
    <line x1="131" y1="187" x2="147" y2="187" />
    <line x1="19.808965919070914" y1="170.53312042463389" x2="35.731921545826054" y2="172.10139466990688" />
    <line x1="22.228072892257273" y1="154.22482590129044" x2="37.920637378708989" y2="157.34627105354849" />
    <line x1="53.613201865160647" y1="160.46771620580654" x2="69.305766351612348" y2="163.58916135806462" />
    <line x1="31.788238538103855" y1="122.70918336266487" x2="46.570311058284432" y2="128.83211828050634" />
    <line x1="90.916528618826192" y1="147.20092303403064" x2="105.69860113900678" y2="153.32385795187207" />
    <line x1="120.48067365918736" y1="159.44679286971353" x2="150.04481869954853" y2="171.6926627053964" />
    <line x1="24.726487359902677" y1="100.26300042401644" x2="38.837227589476356" y2="107.80534821323241" />
    <line x1="52.947967819050035" y1="115.34769600244837" x2="67.058708048623714" y2="122.89004379166433" />
    <line x1="34.009591336331624" y1="84.775077124393263" x2="60.61661893001309" y2="102.55332458102052" />
    <line x1="73.920132726853822" y1="111.44244830933415" x2="100.52716032053527" y2="129.22069576596141" />
    <line x1="113.830674117376" y1="138.10981949427503" x2="127.13418791421672" y2="146.99894322258865" />
    <line x1="69.502411088864" y1="90.572220807125873" x2="81.870578342667784" y2="100.72251335374421" />
    <line x1="56.892352261675228" y1="56.892352261675285" x2="68.20606076066" y2="68.206060760660051" />
    <line x1="113.46089475659905" y1="113.46089475659908" x2="124.7746032555838" y2="124.77460325558383" />
    <line x1="147.40202025355333" y1="147.40202025355336" x2="170.02943725152286" y2="170.02943725152286" />
    <line x1="80.421928260507485" y1="57.134243835060232" x2="90.572220807125817" y2="69.502411088864022" />
    <line x1="102.55332458102046" y1="60.616618930013118" x2="111.44244830933411" y2="73.920132726853851" />
    <line x1="100.26300042401638" y1="24.726487359902706" x2="107.80534821323235" y2="38.837227589476385" />
    <line x1="122.70918336266482" y1="31.788238538103855" x2="128.83211828050625" y2="46.57031105828446" />
    <line x1="134.95505319834771" y1="61.352383578465037" x2="141.07798811618915" y2="76.134456098645614" />
    <line x1="153.32385795187204" y1="105.69860113900678" x2="165.56972778755494" y2="135.26274617936795" />
    <line x1="142.87672905732171" y1="41.545068968704271" x2="147.5212838933931" y2="56.856114340419595" />
    <line x1="154.22482590129039" y1="22.228072892257302" x2="157.34627105354844" y2="37.920637378708989" />
    <line x1="166.71060651032261" y1="84.998330838064049" x2="169.83205166258068" y2="100.69089532451574" />
    <line x1="170.53312042463384" y1="19.808965919070914" x2="172.1013946699068" y2="35.731921545826054" />
  </g>
  <path fill="none" stroke="#ff0000" stroke-width="2" stroke-linecap="square" stroke-linejoin="round" d="M 196.02845207624492,3.2216360582482935 L 194.85082789238689,27.192727007172408 A 160,160 0 0,0 179.14917210761311,27.192727007172408 L 179.9342548968518,43.17345430645517 A 144,144 0 0,1 221.98914590607,47.315499539985666 L 218.10146302761777,62.835999591098371 A 128,128 0 0,0 199.54619396218376,59.616354985958793 L 197.97791971691078,75.539310612713948 A 112,112 0 0,0 100.42282922337347,115.9479521736717 L 112.79099647717726,126.09824472029003 A 96,96 0 0,0 102.33555862255791,141.74591326470423 L 116.44629885213159,149.2882610539202 A 80,80 0 0,0 107.38522186622424,194.84137122636483 L 123.3081774929794,193.27309698109187 A 64,64 0 0,0 124.22974205419325,199.48578060903225 L 139.92230654064494,196.36433545677417 A 48,48 0 0,0 160.33262881505911,226.91054139052218 L 169.22175254337273,213.60702759368147 A 32,32 0 0,0 174.75413016431713,216.56414504036118 L 177.81559762323786,209.17310878027089" />
  <type>Circular</type>
</svg>