<?xml version="1.0" encoding="utf-8" standalone="no"?>
<!DOCTYPE svg PUBLIC "-//W3C//DTD SVG 1.1//EN" "http://www.w3.org/Graphics/SVG/1.1/DTD/svg11.dtd"[]>
<svg width="372" height="372" version="1.1" xmlns="http://www.w3.org/2000/svg">
  <title>23 cells diameter theta maze</title>
  <g fill="none" stroke="#000000" stroke-width="2" stroke-linecap="square">
    <path d="M 170.02943725152286,203.97056274847714 A 24,24 0 1,1 187,211" />
    <path d="M 187,227 A 40,40 0 0,1 187,147" />
    <path d="M 202.3073372946036,150.04481869954853 A 40,40 0 0,1 227,187" />
    <path d="M 223.95518130045147,202.3073372946036 A 40,40 0 0,1 202.3073372946036,223.95518130045147" />
    <path d="M 147.40202025355333,147.40202025355336 A 56,56 0 0,1 208.43027221244503,135.26274617936795" />
    <path d="M 243,187 A 56,56 0 0,1 226.59797974644667,226.59797974644664" />
    <path d="M 208.43027221244503,238.73725382063205 A 56,56 0 0,1 187,243" />
    <path d="M 165.569727787555,238.73725382063208 A 56,56 0 0,1 135.26274617936795,208.43027221244506" />
    <path d="M 187,115 A 72,72 0 0,1 227.00105677741135,127.13418791421674" />
    <path d="M 237.91168824543144,136.08831175456857 A 72,72 0 0,1 253.51932634081265,159.44679286971353" />
    <path d="M 257.61654018903261,172.95349681483876 A 72,72 0 0,1 257.61654018903261,201.04650318516124" />
    <path d="M 237.91168824543144,237.91168824543141 A 72,72 0 0,1 214.55320713028647,253.51932634081265" />
    <path d="M 201.04650318516127,257.61654018903261 A 72,72 0 0,1 136.08831175456859,237.91168824543144" />
    <path d="M 127.13418791421674,227.00105677741135 A 72,72 0 0,1 115,187" />
    <path d="M 116.38345981096741,172.95349681483876 A 72,72 0 0,1 146.99894322258865,127.13418791421674" />
    <path d="M 159.44679286971348,120.48067365918737 A 72,72 0 0,1 172.95349681483873,116.38345981096741" />
    <path d="M 187,99 A 88,88 0 0,1 260.169325882624,138.109819494275" />
    <path d="M 268.30139886099323,153.3238579518721 A 88,88 0 0,1 273.30910467548426,169.83205166258071" />
    <path d="M 268.30139886099323,220.6761420481279 A 88,88 0 0,1 260.169325882624,235.89018050572497" />
    <path d="M 220.6761420481279,268.30139886099323 A 88,88 0 0,1 204.16794833741932,273.30910467548426" />
    <path d="M 187,275 A 88,88 0 0,1 153.32385795187213,268.30139886099323" />
    <path d="M 113.83067411737602,235.890180505725 A 88,88 0 0,1 100.69089532451572,204.16794833741932" />
    <path d="M 100.69089532451572,169.83205166258071 A 88,88 0 0,1 105.69860113900677,153.32385795187207" />
    <path d="M 113.83067411737599,138.10981949427503 A 88,88 0 0,1 124.7746032555838,124.77460325558383" />
    <path d="M 138.109819494275,113.83067411737602 A 88,88 0 0,1 169.83205166258068,100.69089532451572" />
    <path d="M 166.71060651032261,84.998330838064049 A 104,104 0 0,1 187,83" />
    <path d="M 207.28939348967734,84.998330838064035 A 104,104 0 0,1 273.4728396794647,129.22069576596135" />
    <path d="M 291,187 A 104,104 0 0,1 273.47283967946476,244.77930423403859" />
    <path d="M 244.77930423403862,273.4728396794647 A 104,104 0 0,1 226.79907696596933,283.08347138117381" />
    <path d="M 207.28939348967737,289.001669161936 A 104,104 0 0,1 166.71060651032266,289.001669161936" />
    <path d="M 147.20092303403067,283.08347138117381 A 104,104 0 0,1 100.52716032053529,244.77930423403862" />
    <path d="M 90.9165286188262,226.79907696596939 A 104,104 0 0,1 84.998330838064035,166.71060651032266" />
    <path d="M 90.916528618826192,147.20092303403064 A 104,104 0 0,1 129.22069576596135,100.5271603205353" />
    <path d="M 141.07798811618915,76.134456098645614 A 120,120 0 0,1 253.66842796235227,87.223646523694569" />
    <path d="M 271.85281374238571,102.14718625761429 A 120,120 0 0,1 297.86554390135439,141.07798811618923" />
    <path d="M 304.69423364838764,210.41083864193539 A 120,120 0 0,1 286.77635347630542,253.66842796235224" />
    <path d="M 271.85281374238571,271.85281374238571 A 120,120 0 0,1 253.66842796235227,286.77635347630542" />
    <path d="M 210.41083864193544,304.69423364838764 A 120,120 0 0,1 102.14718625761431,271.85281374238571" />
    <path d="M 87.223646523694569,253.66842796235227 A 120,120 0 0,1 67,187.00000000000003" />
    <path d="M 69.305766351612348,163.58916135806462 A 120,120 0 0,1 87.223646523694541,120.33157203764777" />
    <path d="M 187,51 A 136,136 0 0,1 200.33033108482024,51.654877172581223" />
    <path d="M 213.53228379419343,53.613201865160647 A 136,136 0 0,1 251.10995620833569,67.058708048623714" />
    <path d="M 262.55755169066589,73.920132726853851 A 136,136 0 0,1 306.94129195137629,122.8900437916643" />
    <path d="M 317.14388565958041,147.52128389339313 A 136,136 0 0,1 322.34512282741878,173.66966891517973" />
    <path d="M 322.34512282741878,200.33033108482024 A 136,136 0 0,1 317.14388565958041,226.47871610660687" />
    <path d="M 312.647616421535,239.0449468016522 A 136,136 0 0,1 306.94129195137629,251.10995620833569" />
    <path d="M 300.07986727314619,262.55755169066589 A 136,136 0 0,1 292.12942165733227,273.27748664625574" />
    <path d="M 273.2774866462558,292.12942165733222 A 136,136 0 0,1 239.04494680165223,312.64761642153496" />
    <path d="M 226.4787161066069,317.14388565958041 A 136,136 0 0,1 213.53228379419349,320.3867981348393" />
    <path d="M 200.33033108482027,322.34512282741878 A 136,136 0 0,1 160.46771620580654,320.38679813483935" />
    <path d="M 147.52128389339316,317.14388565958041 A 136,136 0 0,1 134.9550531983478,312.647616421535" />
    <path d="M 122.89004379166433,306.94129195137629 A 136,136 0 0,1 111.44244830933414,300.07986727314619" />
    <path d="M 100.72251335374423,292.12942165733227 A 136,136 0 0,1 56.856114340419595,226.4787161066069" />
    <path d="M 53.613201865160676,213.53228379419349 A 136,136 0 0,1 51.654877172581223,200.33033108482022" />
    <path d="M 51,187.00000000000003 A 136,136 0 0,1 51.654877172581223,173.66966891517984" />
    <path d="M 56.856114340419595,147.52128389339316 A 136,136 0 0,1 67.058708048623714,122.89004379166433" />
    <path d="M 73.920132726853822,111.44244830933414 A 136,136 0 0,1 81.870578342667784,100.72251335374421" />
    <path d="M 90.833477758629513,90.833477758629556 A 136,136 0 0,1 134.95505319834771,61.352383578465037" />
    <path d="M 172.1013946699068,35.731921545826083 A 152,152 0 0,1 231.12327094267829,41.545068968704243" />
    <path d="M 245.16788171949364,46.5703110582844 A 152,152 0 0,1 283.42777919287414,69.50241108886398" />
    <path d="M 294.48023074035524,79.519769259644775 A 152,152 0 0,1 304.497588911136,90.572220807125873" />
    <path d="M 327.4296889417156,128.83211828050634 A 152,152 0 0,1 336.079362621291,157.34627105354849" />
    <path d="M 338.26807845417392,201.89860533009323 A 152,152 0 0,1 336.079362621291,216.65372894645148" />
    <path d="M 332.45493103129576,231.12327094267826 A 152,152 0 0,1 321.05203218094994,258.65230399755166" />
    <path d="M 313.38338106998691,271.44667541897951 A 152,152 0 0,1 294.48023074035524,294.48023074035518" />
    <path d="M 271.44667541897951,313.38338106998685 A 152,152 0 0,1 201.89860533009323,338.26807845417392" />
    <path d="M 187.00000000000003,339 A 152,152 0 0,1 142.87672905732177,332.45493103129576" />
    <path d="M 115.34769600244836,321.05203218094994 A 152,152 0 0,1 90.572220807125916,304.49758891113606" />
    <path d="M 35.731921545826083,201.89860533009318 A 152,152 0 0,1 37.92063737870896,157.34627105354849" />
    <path d="M 52.947967819050035,115.34769600244837 A 152,152 0 0,1 90.572220807125817,69.502411088864037" />
    <path d="M 102.55332458102046,60.616618930013118 A 152,152 0 0,1 115.34769600244832,52.947967819050064" />
    <path d="M 128.83211828050625,46.57031105828446 A 152,152 0 0,1 157.34627105354844,37.920637378708989" />
    <path d="M 170.53312042463384,19.808965919070914 A 168,168 0 0,1 219.77517409870956,22.228072892257273" />
    <path d="M 235.76782577874968,26.234023596988919 A 168,168 0 0,1 280.33579914729319,47.3131051331724" />
    <path d="M 316.8657561649398,80.421928260507556 A 168,168 0 0,1 335.16277241052364,107.80534821323238" />
    <path d="M 347.76597640301111,138.23217422125032 A 168,168 0 0,1 354.19103408092906,170.53312042463378" />
    <path d="M 355,187 A 168,168 0 0,1 354.19103408092906,203.46687957536619" />
    <path d="M 351.77192710774273,219.77517409870953 A 168,168 0 0,1 347.76597640301111,235.76782577874965" />
    <path d="M 335.16277241052364,266.19465178676762 A 168,168 0 0,1 316.86575616493985,293.57807173949243" />
    <path d="M 266.19465178676762,335.16277241052364 A 168,168 0 0,1 251.2908166373351,342.21176146189617" />
    <path d="M 219.77517409870961,351.77192710774273 A 168,168 0 0,1 203.46687957536622,354.19103408092906" />
    <path d="M 138.23217422125038,347.76597640301111 A 168,168 0 0,1 93.664200852706884,326.68689486682763" />
    <path d="M 68.206060760660037,305.79393923934003 A 168,168 0 0,1 57.134243835060232,293.57807173949249" />
    <path d="M 47.3131051331724,280.33579914729319 A 168,168 0 0,1 26.234023596988919,235.76782577874968" />
    <path d="M 22.228072892257302,219.77517409870961 A 168,168 0 0,1 19.808965919070914,203.46687957536616" />
    <path d="M 22.228072892257273,154.22482590129044 A 168,168 0 0,1 26.234023596988891,138.23217422125038" />
    <path d="M 57.134243835060204,80.421928260507542 A 168,168 0 0,1 68.20606076066,68.206060760660037" />
    <path d="M 80.421928260507485,57.134243835060261 A 168,168 0 0,1 93.664200852706827,47.3131051331724" />
    <path d="M 205.03515382063915,3.886010292315774 A 184,184 0 1,1 187,3" />
  </g>
  <g fill="none" stroke="#000000" stroke-width="2" stroke-linecap="butt">
    <line x1="187" y1="51" x2="187" y2="83" />
    <line x1="187" y1="115" x2="187" y2="147" />
    <line x1="240.41238061482108" y1="10.922978225273567" x2="231.12327094267829" y2="41.545068968704271" />
    <line x1="258.65230399755166" y1="52.947967819050035" x2="251.10995620833569" y2="67.058708048623714" />
    <line x1="235.890180505725" y1="113.83067411737602" x2="227.00105677741135" y2="127.13418791421674" />
    <line x1="303.72836428611078" y1="44.766076581256385" x2="283.42777919287414" y2="69.50241108886398" />
    <line x1="305.79393923934" y1="68.206060760660009" x2="294.48023074035518" y2="79.519769259644775" />
    <line x1="226.59797974644664" y1="147.40202025355333" x2="203.97056274847714" y2="170.02943725152286" />
    <line x1="329.23392341874364" y1="70.271635713889225" x2="316.86575616493985" y2="80.421928260507556" />
    <line x1="304.497588911136" y1="90.572220807125888" x2="292.12942165733222" y2="100.72251335374422" />
    <line x1="326.68689486682763" y1="93.664200852706813" x2="286.77635347630542" y2="120.33157203764773" />
    <line x1="273.4728396794647" y1="129.22069576596135" x2="246.86581208578326" y2="146.99894322258865" />
    <line x1="321.05203218094994" y1="115.34769600244833" x2="306.94129195137629" y2="122.8900437916643" />
    <line x1="356.99383398207675" y1="116.58624844482347" x2="312.64761642153496" y2="134.9550531983478" />
    <line x1="297.86554390135439" y1="141.0779881161892" x2="283.08347138117381" y2="147.20092303403067" />
    <line x1="268.30139886099323" y1="153.3238579518721" x2="238.73725382063205" y2="165.56972778755497" />
    <line x1="332.45493103129576" y1="142.87672905732171" x2="317.14388565958041" y2="147.52128389339313" />
    <line x1="351.77192710774273" y1="154.22482590129044" x2="336.079362621291" y2="157.34627105354849" />
    <line x1="320.38679813483935" y1="160.46771620580654" x2="289.001669161936" y2="166.71060651032266" />
    <line x1="273.30910467548426" y1="169.83205166258071" x2="257.61654018903261" y2="172.95349681483876" />
    <line x1="338.26807845417392" y1="172.10139466990677" x2="322.34512282741878" y2="173.66966891517973" />
    <line x1="355" y1="187" x2="307" y2="187" />
    <line x1="291" y1="187" x2="275" y2="187" />
    <line x1="370.11398970768425" y1="205.03515382063915" x2="354.19103408092906" y2="203.46687957536619" />
    <line x1="338.268078454174" y1="201.89860533009323" x2="322.34512282741878" y2="200.33033108482024" />
    <line x1="351.77192710774273" y1="219.77517409870953" x2="336.079362621291" y2="216.65372894645148" />
    <line x1="289.001669161936" y1="207.28939348967734" x2="257.61654018903261" y2="201.04650318516124" />
    <line x1="332.45493103129576" y1="231.12327094267823" x2="317.14388565958041" y2="226.47871610660684" />
    <line x1="356.99383398207675" y1="257.41375155517653" x2="327.4296889417156" y2="245.16788171949364" />
    <line x1="312.64761642153496" y1="239.0449468016522" x2="297.86554390135439" y2="232.92201188381077" />
    <line x1="268.30139886099323" y1="220.6761420481279" x2="223.95518130045147" y2="202.3073372946036" />
    <line x1="321.05203218094994" y1="258.65230399755166" x2="306.94129195137629" y2="251.10995620833569" />
    <line x1="326.68689486682763" y1="280.33579914729313" x2="313.38338106998691" y2="271.44667541897951" />
    <line x1="300.07986727314619" y1="262.55755169066583" x2="273.47283967946476" y2="244.77930423403859" />
    <line x1="260.169325882624" y1="235.89018050572497" x2="246.86581208578326" y2="227.00105677741135" />
    <line x1="305.79393923934" y1="305.79393923934" x2="226.59797974644667" y2="226.59797974644664" />
    <line x1="215.2842712474619" y1="215.2842712474619" x2="203.97056274847714" y2="203.97056274847714" />
    <line x1="293.57807173949243" y1="316.86575616493985" x2="273.2774866462558" y2="292.12942165733222" />
    <line x1="280.33579914729319" y1="326.68689486682763" x2="262.55755169066589" y2="300.07986727314619" />
    <line x1="253.66842796235227" y1="286.77635347630542" x2="235.890180505725" y2="260.169325882624" />
    <line x1="251.2908166373351" y1="342.21176146189617" x2="245.16788171949366" y2="327.4296889417156" />
    <line x1="239.04494680165223" y1="312.64761642153496" x2="232.9220118838108" y2="297.86554390135439" />
    <line x1="220.6761420481279" y1="268.30139886099323" x2="214.55320713028647" y2="253.51932634081265" />
    <line x1="240.41238061482108" y1="363.0770217747264" x2="235.76782577874968" y2="347.76597640301111" />
    <line x1="213.53228379419349" y1="320.38679813483935" x2="210.41083864193544" y2="304.69423364838764" />
    <line x1="203.46687957536622" y1="354.19103408092906" x2="200.33033108482027" y2="322.34512282741878" />
    <line x1="187.00000000000003" y1="371" x2="187.00000000000003" y2="355" />
    <line x1="187.00000000000003" y1="339" x2="187.00000000000003" y2="323" />
    <line x1="187.00000000000003" y1="307" x2="187" y2="291" />
    <line x1="187" y1="259" x2="187" y2="243" />
    <line x1="187" y1="227" x2="187" y2="211" />
    <line x1="170.53312042463381" y1="354.19103408092906" x2="172.1013946699068" y2="338.268078454174" />
    <line x1="151.1033807490324" y1="367.46449159419438" x2="154.22482590129044" y2="351.77192710774273" />
    <line x1="138.23217422125038" y1="347.76597640301111" x2="147.52128389339316" y2="317.14388565958041" />
    <line x1="128.83211828050636" y1="327.4296889417156" x2="134.9550531983478" y2="312.647616421535" />
    <line x1="147.20092303403067" y1="283.08347138117381" x2="159.44679286971353" y2="253.51932634081265" />
    <line x1="100.26300042401644" y1="349.27351264009735" x2="122.89004379166433" y2="306.94129195137629" />
    <line x1="111.44244830933414" y1="300.07986727314619" x2="120.33157203764776" y2="286.77635347630547" />
    <line x1="129.22069576596141" y1="273.47283967946476" x2="138.10981949427503" y2="260.169325882624" />
    <line x1="80.4219282605076" y1="316.86575616493985" x2="90.572220807125916" y2="304.49758891113606" />
    <line x1="56.892352261675256" y1="317.10764773832477" x2="68.206060760660023" y2="305.79393923934003" />
    <line x1="79.519769259644789" y1="294.48023074035524" x2="90.833477758629542" y2="283.1665222413705" />
    <line x1="124.77460325558383" y1="249.2253967444162" x2="147.40202025355336" y2="226.59797974644667" />
    <line x1="57.134243835060232" y1="293.57807173949254" x2="81.870578342667812" y2="273.27748664625585" />
    <line x1="47.3131051331724" y1="280.33579914729319" x2="60.616618930013118" y2="271.44667541897957" />
    <line x1="87.223646523694569" y1="253.66842796235227" x2="113.83067411737602" y2="235.890180505725" />
    <line x1="52.947967819050064" y1="258.65230399755166" x2="67.058708048623728" y2="251.10995620833569" />
    <line x1="31.788238538103855" y1="251.29081663733518" x2="46.57031105828446" y2="245.16788171949372" />
    <line x1="26.234023596988919" y1="235.76782577874968" x2="56.856114340419595" y2="226.4787161066069" />
    <line x1="22.228072892257302" y1="219.77517409870961" x2="53.613201865160676" y2="213.53228379419349" />
    <line x1="100.69089532451574" y1="204.16794833741932" x2="116.38345981096742" y2="201.04650318516127" />
    <line x1="3.886010292315774" y1="205.03515382063912" x2="19.808965919070914" y2="203.46687957536616" />
    <line x1="19" y1="187.00000000000003" x2="35" y2="187.00000000000003" />
    <line x1="51" y1="187.00000000000003" x2="67" y2="187.00000000000003" />
    <line x1="99" y1="187.00000000000003" x2="147" y2="187" />
    <line x1="3.886010292315774" y1="168.96484617936093" x2="19.808965919070914" y2="170.53312042463389" />
    <line x1="35.731921545826054" y1="172.10139466990688" x2="51.654877172581223" y2="173.66966891517984" />
    <line x1="22.228072892257273" y1="154.22482590129044" x2="53.613201865160647" y2="160.46771620580654" />
    <line x1="69.305766351612348" y1="163.58916135806462" x2="84.998330838064035" y2="166.71060651032266" />
    <line x1="41.545068968704243" y1="142.87672905732177" x2="56.856114340419595" y2="147.52128389339316" />
    <line x1="17.006166017923249" y1="116.58624844482344" x2="76.1344560986456" y2="141.0779881161892" />
    <line x1="90.916528618826192" y1="147.20092303403064" x2="105.69860113900678" y2="153.32385795187207" />
    <line x1="135.26274617936795" y1="165.56972778755497" x2="150.04481869954853" y2="171.6926627053964" />
    <line x1="38.837227589476356" y1="107.80534821323241" x2="67.058708048623714" y2="122.89004379166433" />
    <line x1="34.009591336331624" y1="84.775077124393263" x2="47.313105133172371" y2="93.664200852706884" />
    <line x1="73.920132726853822" y1="111.44244830933415" x2="87.223646523694541" y2="120.33157203764777" />
    <line x1="57.134243835060204" y1="80.421928260507542" x2="69.502411088864" y2="90.572220807125873" />
    <line x1="90.833477758629513" y1="90.833477758629556" x2="124.7746032555838" y2="124.77460325558383" />
    <line x1="136.08831175456857" y1="136.08831175456859" x2="147.40202025355333" y2="147.40202025355336" />
    <line x1="80.421928260507485" y1="57.134243835060232" x2="90.572220807125817" y2="69.502411088864022" />
    <line x1="120.33157203764773" y1="87.223646523694569" x2="129.22069576596138" y2="100.5271603205353" />
    <line x1="100.26300042401638" y1="24.726487359902706" x2="115.34769600244832" y2="52.947967819050064" />
    <line x1="122.70918336266482" y1="31.788238538103855" x2="159.44679286971348" y2="120.48067365918737" />
    <line x1="133.5876193851789" y1="10.922978225273567" x2="138.23217422125032" y2="26.234023596988919" />
    <line x1="142.87672905732171" y1="41.545068968704271" x2="147.5212838933931" y2="56.856114340419595" />
    <line x1="151.10338074903231" y1="6.535508405805615" x2="157.34627105354844" y2="37.920637378708989" />
    <line x1="160.46771620580648" y1="53.613201865160676" x2="163.58916135806456" y2="69.305766351612363" />
    <line x1="170.53312042463384" y1="19.808965919070914" x2="173.66966891517978" y2="51.654877172581223" />
  </g>
  <path fill="none" stroke="#ff0000" stroke-width="2" stroke-linecap="square" stroke-linejoin="round" d="M 196.02845207624492,3.2216360582482935 L 195.63591068162558,11.211999707889646 A 176,176 0 0,0 161.17543649585622,12.904934246198565 L 168.21849926971362,60.385406724508044 A 128,128 0 0,1 180.71933768609048,59.154181605737932 L 179.9342548968518,43.17345430645517 A 144,144 0 0,1 208.12918832157209,44.558582565071532 L 205.7815007302863,60.38540672450803 A 128,128 0 0,1 268.20234037294665,88.054661969569665 L 258.05204782632831,100.42282922337346 A 112,112 0 0,0 197.97791971691078,75.539310612713948 L 196.40964547163782,91.4622662394691 A 96,96 0 0,0 177.59035452836218,91.4622662394691 L 180.72690301890813,123.3081774929794 A 64,64 0 0,0 156.83060884313613,130.55703908170528 L 149.28826105392017,116.44629885213161 A 80,80 0 0,0 107.38522186622424,179.1586287736352 L 91.462266239469088,177.59035452836224 A 96,96 0 0,0 102.33555862255793,232.2540867352958 L 88.224818392984247,239.79643452451177 A 112,112 0 0,1 75.539310612713948,176.02208028308928 L 59.616354985958793,174.45380603781632 A 128,128 0 0,1 62.835999591098371,155.89853697238223 L 31.794999488872946,148.12317121547778 A 160,160 0 0,1 36.352949570716646,133.09762345724488 L 21.288244527788322,127.70738580296936 A 176,176 0 0,0 12.904934246198565,161.1754364958563 L 28.731758405635048,163.52312408714209 A 160,160 0 0,0 27.192727007172408,179.14917210761317 L 11.211999707889646,178.36408931837448 A 176,176 0 0,0 11.211999707889646,195.63591068162558 L 27.192727007172408,194.85082789238689 A 160,160 0 0,0 28.731758405635048,210.47687591285796 L 44.558582565071561,208.12918832157217 A 144,144 0 0,1 43.17345430645517,194.0657451031482 L 59.154181605737932,193.28066231390952 A 128,128 0 0,0 88.054661969569707,268.20234037294665 L 100.4228292233735,258.05204782632836 A 112,112 0 0,0 154.48811614750025,294.17731760200741 L 159.13267098357164,278.86627223029205 A 96,96 0 0,0 214.86732901642839,278.86627223029205 L 219.51188385249978,294.17731760200741 A 112,112 0 0,0 239.79643452451177,285.77518160701572 L 247.33878231372773,299.88592183658943 A 128,128 0 0,0 272.95954622041836,281.84174404543472 L 305.1943760530753,317.40739806247279 A 176,176 0 0,0 346.10211558972605,262.24969644372959 L 331.63828689975094,255.40881494884511 A 160,160 0 0,1 324.23657760004357,269.25643907091546 L 310.51291984003922,261.03079516382388 A 144,144 0 0,1 293.6969620511141,283.70448949797066 L 281.84174404543478,272.95954622041836 A 128,128 0 0,0 285.94533803043032,268.20234037294659 L 261.20900352282274,247.90175527970996 A 96,96 0 0,0 278.86627223029205,214.86732901642836 L 248.24418148686138,205.57821934428557 A 64,64 0 0,0 249.77025794580675,174.51421939096778 L 234.07769345935506,177.63566454322583 A 48,48 0 0,0 226.91054139052216,160.33262881505908 L 240.2140551873629,151.44350508674546 A 64,64 0 0,0 222.55649491325454,133.7859448126371 L 213.66737118494092,147.08945860947785 A 48,48 0 0,0 196.36433545677414,139.92230654064494 L 193.2428903045161,155.61487102709663 A 32,32 0 0,0 174.75413016431713,216.56414504036118 L 177.81559762323786,209.17310878027089" />
  <type>Circular</type>
</svg>