<?xml version="1.0" encoding="utf-8" standalone="no"?>
<!DOCTYPE svg PUBLIC "-//W3C//DTD SVG 1.1//EN" "http://www.w3.org/Graphics/SVG/1.1/DTD/svg11.dtd"[]>
<svg width="372" height="372" version="1.1" xmlns="http://www.w3.org/2000/svg">
  <title>23 cells diameter theta maze</title>
  <g fill="none" stroke="#000000" stroke-width="2" stroke-linecap="square">
    <path d="M 170.02943725152286,203.97056274847714 A 24,24 0 1,1 187,211" />
    <path d="M 202.3073372946036,150.04481869954853 A 40,40 0 0,1 202.3073372946036,223.95518130045147" />
    <path d="M 187,227 A 40,40 0 0,1 150.04481869954853,171.6926627053964" />
    <path d="M 158.7157287525381,158.7157287525381 A 40,40 0 0,1 171.69266270539637,150.04481869954856" />
    <path d="M 131,187 A 56,56 0 0,1 208.43027221244503,135.26274617936795" />
    <path d="M 226.59797974644667,147.40202025355333 A 56,56 0 0,1 238.73725382063205,165.56972778755497" />
    <path d="M 243,187 A 56,56 0 0,1 226.59797974644667,226.59797974644664" />
    <path d="M 208.43027221244503,238.73725382063205 A 56,56 0 0,1 147.40202025355336,226.59797974644667" />
    <path d="M 187,115 A 72,72 0 0,1 201.04650318516124,116.38345981096741" />
    <path d="M 227.00105677741135,127.13418791421674 A 72,72 0 0,1 246.86581208578326,146.99894322258865" />
    <path d="M 253.51932634081265,159.44679286971353 A 72,72 0 0,1 246.86581208578326,227.00105677741135" />
    <path d="M 237.91168824543144,237.91168824543141 A 72,72 0 0,1 187,259" />
    <path d="M 172.95349681483876,257.61654018903261 A 72,72 0 0,1 146.99894322258865,246.86581208578326" />
    <path d="M 136.08831175456859,237.91168824543144 A 72,72 0 0,1 120.48067365918737,214.5532071302865" />
    <path d="M 116.38345981096741,201.04650318516127 A 72,72 0 0,1 116.38345981096741,172.95349681483876" />
    <path d="M 127.13418791421672,146.99894322258865 A 72,72 0 0,1 172.95349681483873,116.38345981096741" />
    <path d="M 169.83205166258068,100.69089532451572 A 88,88 0 0,1 204.16794833741929,100.69089532451572" />
    <path d="M 220.6761420481279,105.69860113900677 A 88,88 0 0,1 235.890180505725,113.83067411737602" />
    <path d="M 268.30139886099323,153.3238579518721 A 88,88 0 0,1 273.30910467548426,169.83205166258071" />
    <path d="M 275,187 A 88,88 0 0,1 260.169325882624,235.89018050572497" />
    <path d="M 235.89018050572497,260.169325882624 A 88,88 0 0,1 169.83205166258071,273.30910467548426" />
    <path d="M 153.32385795187213,268.30139886099323 A 88,88 0 0,1 113.83067411737602,235.890180505725" />
    <path d="M 100.69089532451572,204.16794833741932 A 88,88 0 0,1 113.83067411737599,138.10981949427503" />
    <path d="M 124.7746032555838,124.77460325558383 A 88,88 0 0,1 138.109819494275,113.83067411737602" />
    <path d="M 207.28939348967734,84.998330838064035 A 104,104 0 0,1 226.79907696596933,90.916528618826177" />
    <path d="M 244.77930423403862,100.52716032053529 A 104,104 0 0,1 260.53910524340097,113.46089475659906" />
    <path d="M 273.4728396794647,129.22069576596135 A 104,104 0 0,1 291,187" />
    <path d="M 289.001669161936,207.28939348967734 A 104,104 0 0,1 283.08347138117381,226.79907696596933" />
    <path d="M 273.47283967946476,244.77930423403859 A 104,104 0 0,1 260.53910524340097,260.53910524340097" />
    <path d="M 207.28939348967737,289.001669161936 A 104,104 0 0,1 187,291" />
    <path d="M 166.71060651032266,289.001669161936 A 104,104 0 0,1 147.20092303403067,283.08347138117381" />
    <path d="M 113.46089475659908,260.53910524340097 A 104,104 0 0,1 100.52716032053529,244.77930423403862" />
    <path d="M 90.9165286188262,226.79907696596939 A 104,104 0 0,1 84.998330838064035,207.28939348967737" />
    <path d="M 83,187.00000000000003 A 104,104 0 0,1 166.71060651032261,84.998330838064049" />
    <path d="M 163.58916135806456,69.305766351612363 A 120,120 0 0,1 187,67" />
    <path d="M 210.41083864193539,69.305766351612348 A 120,120 0 0,1 297.86554390135439,141.07798811618923" />
    <path d="M 304.69423364838764,163.58916135806459 A 120,120 0 0,1 286.77635347630542,253.66842796235224" />
    <path d="M 271.85281374238571,271.85281374238571 A 120,120 0 0,1 253.66842796235227,286.77635347630542" />
    <path d="M 163.58916135806459,304.69423364838764 A 120,120 0 0,1 102.14718625761431,271.85281374238571" />
    <path d="M 69.305766351612348,210.41083864193544 A 120,120 0 0,1 67,187.00000000000003" />
    <path d="M 87.223646523694541,120.33157203764777 A 120,120 0 0,1 102.14718625761428,102.14718625761432" />
    <path d="M 120.33157203764773,87.223646523694569 A 120,120 0 0,1 141.07798811618915,76.134456098645614" />
    <path d="M 90.833477758629513,90.833477758629556 A 136,136 0 0,1 213.53228379419343,53.613201865160647" />
    <path d="M 239.0449468016522,61.352383578464995 A 136,136 0 0,1 251.10995620833569,67.058708048623714" />
    <path d="M 262.55755169066589,73.920132726853851 A 136,136 0 0,1 317.14388565958041,147.52128389339313" />
    <path d="M 320.38679813483935,160.46771620580654 A 136,136 0 0,1 322.34512282741878,173.66966891517973" />
    <path d="M 317.14388565958041,226.47871610660687 A 136,136 0 0,1 273.2774866462558,292.12942165733222" />
    <path d="M 262.55755169066589,300.07986727314619 A 136,136 0 0,1 239.04494680165223,312.64761642153496" />
    <path d="M 213.53228379419349,320.3867981348393 A 136,136 0 0,1 187.00000000000003,323" />
    <path d="M 160.46771620580654,320.38679813483935 A 136,136 0 0,1 100.72251335374423,292.12942165733227" />
    <path d="M 90.833477758629556,283.16652224137044 A 136,136 0 0,1 56.856114340419595,226.4787161066069" />
    <path d="M 51,187.00000000000003 A 136,136 0 0,1 51.654877172581223,173.66966891517984" />
    <path d="M 56.856114340419595,147.52128389339316 A 136,136 0 0,1 67.058708048623714,122.89004379166433" />
    <path d="M 157.34627105354844,37.920637378708989 A 152,152 0 0,1 187,35" />
    <path d="M 216.65372894645151,37.92063737870896 A 152,152 0 0,1 231.12327094267829,41.545068968704243" />
    <path d="M 271.44667541897957,60.616618930013118 A 152,152 0 0,1 304.497588911136,90.572220807125873" />
    <path d="M 332.45493103129576,142.87672905732174 A 152,152 0 0,1 336.079362621291,157.34627105354849" />
    <path d="M 338.26807845417392,172.10139466990677 A 152,152 0 0,1 339,187" />
    <path d="M 336.079362621291,216.65372894645148 A 152,152 0 0,1 321.05203218094994,258.65230399755166" />
    <path d="M 304.49758891113606,283.42777919287408 A 152,152 0 0,1 294.48023074035524,294.48023074035518" />
    <path d="M 258.65230399755166,321.05203218094994 A 152,152 0 0,1 231.12327094267829,332.45493103129576" />
    <path d="M 187.00000000000003,339 A 152,152 0 0,1 128.83211828050636,327.4296889417156" />
    <path d="M 115.34769600244836,321.05203218094994 A 152,152 0 0,1 102.55332458102051,313.38338106998691" />
    <path d="M 90.572220807125916,304.49758891113606 A 152,152 0 0,1 69.502411088864022,283.42777919287414" />
    <path d="M 60.616618930013118,271.44667541897951 A 152,152 0 0,1 52.947967819050064,258.65230399755171" />
    <path d="M 41.545068968704243,231.12327094267829 A 152,152 0 0,1 35,187.00000000000003" />
    <path d="M 35.731921545826054,172.10139466990688 A 152,152 0 0,1 37.92063737870896,157.34627105354849" />
    <path d="M 52.947967819050035,115.34769600244837 A 152,152 0 0,1 69.502411088864,90.572220807125873" />
    <path d="M 68.20606076066,68.206060760660037 A 168,168 0 0,1 219.77517409870956,22.228072892257273" />
    <path d="M 235.76782577874968,26.234023596988919 A 168,168 0 0,1 293.57807173949243,57.134243835060175" />
    <path d="M 305.79393923934,68.206060760660009 A 168,168 0 0,1 335.16277241052364,107.80534821323238" />
    <path d="M 342.21176146189617,122.70918336266492 A 168,168 0 0,1 347.76597640301111,138.23217422125032" />
    <path d="M 351.77192710774273,154.22482590129044 A 168,168 0 0,1 354.19103408092906,170.53312042463378" />
    <path d="M 355,187 A 168,168 0 0,1 351.77192710774273,219.77517409870953" />
    <path d="M 335.16277241052364,266.19465178676762 A 168,168 0 0,1 326.68689486682763,280.33579914729313" />
    <path d="M 316.86575616493985,293.57807173949243 A 168,168 0 0,1 293.57807173949243,316.86575616493985" />
    <path d="M 280.33579914729319,326.68689486682763 A 168,168 0 0,1 266.19465178676762,335.16277241052364" />
    <path d="M 251.2908166373351,342.21176146189617 A 168,168 0 0,1 170.53312042463381,354.19103408092906" />
    <path d="M 138.23217422125038,347.76597640301111 A 168,168 0 0,1 107.80534821323241,335.16277241052364" />
    <path d="M 80.421928260507585,316.86575616493985 A 168,168 0 0,1 57.134243835060232,293.57807173949249" />
    <path d="M 38.837227589476385,266.19465178676762 A 168,168 0 0,1 31.788238538103855,251.29081663733518" />
    <path d="M 26.234023596988919,235.76782577874968 A 168,168 0 0,1 19.808965919070914,203.46687957536616" />
    <path d="M 19,187.00000000000003 A 168,168 0 0,1 19.808965919070914,170.53312042463392" />
    <path d="M 31.788238538103855,122.70918336266487 A 168,168 0 0,1 47.313105133172371,93.664200852706884" />
    <path d="M 205.03515382063915,3.886010292315774 A 184,184 0 1,1 187,3" />
  </g>
  <g fill="none" stroke="#000000" stroke-width="2" stroke-linecap="butt">
    <line x1="187" y1="67" x2="187" y2="99" />
    <line x1="187" y1="115" x2="187" y2="131" />
    <line x1="187" y1="147" x2="187" y2="163" />
    <line x1="203.46687957536619" y1="19.808965919070914" x2="201.8986053300932" y2="35.731921545826054" />
    <line x1="240.41238061482108" y1="10.922978225273567" x2="226.47871610660687" y2="56.856114340419595" />
    <line x1="251.29081663733507" y1="31.788238538103826" x2="245.16788171949366" y2="46.5703110582844" />
    <line x1="239.0449468016522" y1="61.352383578465009" x2="214.55320713028647" y2="120.48067365918736" />
    <line x1="266.19465178676762" y1="38.837227589476356" x2="251.10995620833569" y2="67.058708048623714" />
    <line x1="271.44667541897957" y1="60.616618930013118" x2="262.55755169066589" y2="73.920132726853851" />
    <line x1="317.10764773832477" y1="56.892352261675256" x2="305.79393923934" y2="68.206060760660009" />
    <line x1="271.85281374238571" y1="102.14718625761429" x2="249.22539674441617" y2="124.77460325558381" />
    <line x1="237.91168824543144" y1="136.08831175456857" x2="215.2842712474619" y2="158.7157287525381" />
    <line x1="313.38338106998685" y1="102.55332458102045" x2="300.07986727314614" y2="111.44244830933408" />
    <line x1="273.4728396794647" y1="129.22069576596135" x2="260.169325882624" y2="138.109819494275" />
    <line x1="321.05203218094994" y1="115.34769600244833" x2="306.94129195137629" y2="122.8900437916643" />
    <line x1="342.21176146189617" y1="122.7091833626649" x2="312.64761642153496" y2="134.9550531983478" />
    <line x1="297.86554390135439" y1="141.0779881161892" x2="283.08347138117381" y2="147.20092303403067" />
    <line x1="347.76597640301111" y1="138.23217422125032" x2="332.45493103129576" y2="142.87672905732171" />
    <line x1="336.079362621291" y1="157.34627105354849" x2="304.69423364838764" y2="163.58916135806459" />
    <line x1="273.30910467548426" y1="169.83205166258071" x2="257.61654018903261" y2="172.95349681483876" />
    <line x1="354.19103408092906" y1="170.53312042463378" x2="322.34512282741878" y2="173.66966891517973" />
    <line x1="371" y1="187" x2="355" y2="187" />
    <line x1="339" y1="187" x2="323" y2="187" />
    <line x1="291" y1="187" x2="275" y2="187" />
    <line x1="259" y1="187" x2="243" y2="187" />
    <line x1="354.19103408092906" y1="203.46687957536619" x2="322.34512282741878" y2="200.33033108482024" />
    <line x1="336.079362621291" y1="216.65372894645148" x2="289.001669161936" y2="207.28939348967734" />
    <line x1="363.0770217747264" y1="240.41238061482105" x2="347.76597640301111" y2="235.76782577874965" />
    <line x1="356.99383398207675" y1="257.41375155517653" x2="342.21176146189617" y2="251.29081663733507" />
    <line x1="335.16277241052364" y1="266.19465178676762" x2="306.94129195137629" y2="251.10995620833569" />
    <line x1="313.38338106998691" y1="271.44667541897951" x2="300.07986727314619" y2="262.55755169066583" />
    <line x1="286.77635347630547" y1="253.66842796235224" x2="273.47283967946476" y2="244.77930423403859" />
    <line x1="260.169325882624" y1="235.89018050572497" x2="246.86581208578326" y2="227.00105677741135" />
    <line x1="316.86575616493985" y1="293.57807173949243" x2="304.49758891113606" y2="283.42777919287408" />
    <line x1="283.16652224137044" y1="283.16652224137044" x2="271.85281374238571" y2="271.85281374238571" />
    <line x1="260.53910524340097" y1="260.53910524340097" x2="237.91168824543144" y2="237.91168824543144" />
    <line x1="226.59797974644667" y1="226.59797974644664" x2="203.97056274847714" y2="203.97056274847714" />
    <line x1="293.57807173949243" y1="316.86575616493985" x2="273.2774866462558" y2="292.12942165733222" />
    <line x1="280.33579914729319" y1="326.68689486682763" x2="244.77930423403862" y2="273.4728396794647" />
    <line x1="266.19465178676762" y1="335.16277241052364" x2="258.65230399755166" y2="321.05203218094994" />
    <line x1="232.9220118838108" y1="297.86554390135439" x2="220.6761420481279" y2="268.30139886099323" />
    <line x1="214.55320713028647" y1="253.51932634081265" x2="208.43027221244503" y2="238.73725382063205" />
    <line x1="231.12327094267829" y1="332.4549310312957" x2="226.4787161066069" y2="317.14388565958041" />
    <line x1="216.65372894645154" y1="336.079362621291" x2="213.53228379419349" y2="320.38679813483935" />
    <line x1="210.41083864193544" y1="304.69423364838764" x2="207.28939348967737" y2="289.001669161936" />
    <line x1="201.89860533009323" y1="338.26807845417392" x2="200.33033108482027" y2="322.34512282741878" />
    <line x1="187.00000000000003" y1="355" x2="187.00000000000003" y2="307" />
    <line x1="187" y1="291" x2="187" y2="275" />
    <line x1="187" y1="243" x2="187" y2="227" />
    <line x1="172.1013946699068" y1="338.268078454174" x2="173.66966891517976" y2="322.34512282741878" />
    <line x1="151.1033807490324" y1="367.46449159419438" x2="157.34627105354849" y2="336.079362621291" />
    <line x1="166.71060651032266" y1="289.001669161936" x2="169.83205166258071" y2="273.30910467548426" />
    <line x1="138.23217422125038" y1="347.76597640301111" x2="147.52128389339316" y2="317.14388565958041" />
    <line x1="141.07798811618923" y1="297.86554390135444" x2="147.20092303403067" y2="283.08347138117381" />
    <line x1="159.44679286971353" y1="253.51932634081265" x2="165.56972778755497" y2="238.73725382063208" />
    <line x1="115.34769600244836" y1="321.05203218094994" x2="122.89004379166433" y2="306.94129195137629" />
    <line x1="93.66420085270687" y1="326.68689486682763" x2="102.55332458102051" y2="313.38338106998691" />
    <line x1="111.44244830933414" y1="300.07986727314619" x2="129.22069576596141" y2="273.47283967946476" />
    <line x1="68.206060760660023" y1="305.79393923934003" x2="79.519769259644789" y2="294.48023074035524" />
    <line x1="90.833477758629542" y1="283.1665222413705" x2="102.14718625761431" y2="271.85281374238571" />
    <line x1="158.7157287525381" y1="215.2842712474619" x2="170.02943725152286" y2="203.97056274847714" />
    <line x1="44.766076581256442" y1="303.72836428611083" x2="57.134243835060232" y2="293.57807173949254" />
    <line x1="34.009591336331681" y1="289.22492287560681" x2="47.3131051331724" y2="280.33579914729319" />
    <line x1="60.616618930013118" y1="271.44667541897957" x2="113.83067411737602" y2="235.890180505725" />
    <line x1="38.837227589476356" y1="266.19465178676762" x2="52.947967819050064" y2="258.65230399755166" />
    <line x1="46.57031105828446" y1="245.16788171949372" x2="61.352383578465037" y2="239.04494680165229" />
    <line x1="76.134456098645614" y1="232.92201188381085" x2="90.9165286188262" y2="226.79907696596939" />
    <line x1="105.69860113900678" y1="220.67614204812796" x2="150.04481869954856" y2="202.3073372946036" />
    <line x1="10.922978225273567" y1="240.41238061482108" x2="41.545068968704271" y2="231.12327094267829" />
    <line x1="37.920637378708989" y1="216.65372894645157" x2="69.305766351612363" y2="210.41083864193544" />
    <line x1="84.998330838064049" y1="207.28939348967737" x2="100.69089532451574" y2="204.16794833741932" />
    <line x1="35.731921545826054" y1="201.89860533009318" x2="51.654877172581223" y2="200.33033108482022" />
    <line x1="3" y1="187.00000000000003" x2="19" y2="187.00000000000003" />
    <line x1="115" y1="187" x2="131" y2="187" />
    <line x1="19.808965919070914" y1="170.53312042463389" x2="51.654877172581223" y2="173.66966891517984" />
    <line x1="22.228072892257273" y1="154.22482590129044" x2="37.920637378708989" y2="157.34627105354849" />
    <line x1="53.613201865160647" y1="160.46771620580654" x2="84.998330838064035" y2="166.71060651032266" />
    <line x1="10.922978225273567" y1="133.58761938517898" x2="26.234023596988891" y2="138.23217422125038" />
    <line x1="41.545068968704243" y1="142.87672905732177" x2="56.856114340419595" y2="147.52128389339316" />
    <line x1="31.788238538103855" y1="122.70918336266487" x2="90.916528618826192" y2="147.20092303403064" />
    <line x1="105.69860113900678" y1="153.32385795187207" x2="150.04481869954853" y2="171.6926627053964" />
    <line x1="73.920132726853822" y1="111.44244830933415" x2="87.223646523694541" y2="120.33157203764777" />
    <line x1="113.830674117376" y1="138.10981949427503" x2="127.13418791421672" y2="146.99894322258865" />
    <line x1="44.766076581256414" y1="70.271635713889211" x2="81.870578342667784" y2="100.72251335374421" />
    <line x1="68.20606076066" y1="68.206060760660051" x2="124.7746032555838" y2="124.77460325558383" />
    <line x1="158.7157287525381" y1="158.7157287525381" x2="170.02943725152286" y2="170.02943725152286" />
    <line x1="90.572220807125817" y1="69.502411088864022" x2="100.72251335374415" y2="81.870578342667812" />
    <line x1="93.664200852706841" y1="47.3131051331724" x2="102.55332458102046" y2="60.616618930013118" />
    <line x1="120.33157203764773" y1="87.223646523694569" x2="129.22069576596138" y2="100.5271603205353" />
    <line x1="115.34769600244832" y1="52.947967819050064" x2="122.89004379166428" y2="67.058708048623743" />
    <line x1="116.58624844482337" y1="17.006166017923277" x2="128.83211828050625" y2="46.57031105828446" />
    <line x1="153.32385795187204" y1="105.69860113900678" x2="159.44679286971348" y2="120.48067365918737" />
    <line x1="142.87672905732171" y1="41.545068968704271" x2="147.5212838933931" y2="56.856114340419595" />
    <line x1="157.34627105354844" y1="37.920637378708989" x2="163.58916135806456" y2="69.305766351612363" />
  </g>
  <path fill="none" stroke="#ff0000" stroke-width="2" stroke-linecap="square" stroke-linejoin="round" d="M 196.02845207624492,3.2216360582482935 L 195.63591068162558,11.211999707889646 A 176,176 0 0,1 229.76451166297443,16.274499437760255 L 225.87682878452222,31.794999488872975 A 160,160 0 0,0 210.47687591285788,28.731758405635048 L 208.12918832157209,44.558582565071532 A 144,144 0 0,1 221.98914590607,47.315499539985666 L 218.10146302761777,62.835999591098371 A 128,128 0 0,0 199.54619396218376,59.616354985958793 L 196.40964547163782,91.4622662394691 A 96,96 0 0,1 214.86732901642839,95.133727769707946 L 210.222774180357,110.4447731414233 A 80,80 0 0,0 163.777225819643,110.4447731414233 L 159.13267098357159,95.133727769707946 A 96,96 0 0,0 141.7459132647042,102.33555862255793 L 149.28826105392017,116.44629885213161 A 80,80 0 0,0 125.15916373098105,136.24853726690836 L 112.79099647717726,126.09824472029003 A 96,96 0 0,0 91.4622662394691,196.40964547163782 L 75.539310612713948,197.97791971691078 A 112,112 0 0,0 79.822682397992608,219.51188385249981 L 64.51163702627727,224.1564386885712 A 128,128 0 0,0 74.114078163410568,247.33878231372773 L 116.44629885213161,224.71173894607983 A 80,80 0 0,0 237.75146273309164,248.84083626901895 L 247.90175527970996,261.20900352282274 A 96,96 0 0,1 232.2540867352958,271.66444137744207 L 247.33878231372773,299.88592183658943 A 128,128 0 0,1 218.1014630276178,311.16400040890164 L 225.87682878452225,342.205000511127 A 160,160 0 0,0 255.40881494884513,331.63828689975094 L 262.24969644372965,346.10211558972605 A 176,176 0 0,0 346.10211558972605,262.24969644372959 L 331.63828689975094,255.40881494884511 A 160,160 0 0,0 345.26824159436495,210.47687591285785 L 313.614593275492,205.7815007302863 A 128,128 0 0,0 314.8458183942621,193.28066231390952 L 346.80727299282762,194.85082789238689 A 160,160 0 0,0 346.80727299282762,179.14917210761311 L 362.78800029211038,178.3640893183744 A 176,176 0 0,0 346.10211558972605,111.75030355627034 L 331.63828689975094,118.59118505115485 A 160,160 0 0,0 269.25643907091546,49.763422399956454 L 252.80515125673236,77.210737919965169 A 128,128 0 0,1 309.48836297372276,149.84356131142883 L 294.17731760200741,154.48811614750022 A 112,112 0 0,1 298.46068938728604,197.9779197169108 L 282.5377337605309,196.40964547163782 A 96,96 0 0,1 261.20900352282274,247.90175527970996 L 236.47266901521516,227.6011701864733 A 64,64 0 0,1 222.55649491325454,240.2140551873629 L 213.66737118494089,226.91054139052218 A 48,48 0 0,1 196.36433545677417,234.07769345935506 L 193.24289030451612,218.38512897290337 A 32,32 0 0,1 174.75413016431713,216.56414504036118 L 177.81559762323786,209.17310878027089" />
  <type>Circular</type>
</svg>