<?xml version="1.0" encoding="utf-8" standalone="no"?>
<!DOCTYPE svg PUBLIC "-//W3C//DTD SVG 1.1//EN" "http://www.w3.org/Graphics/SVG/1.1/DTD/svg11.dtd"[]>
<svg width="372" height="372" version="1.1" xmlns="http://www.w3.org/2000/svg">
  <title>23 cells diameter theta maze</title>
  <g fill="none" stroke="#000000" stroke-width="2" stroke-linecap="square">
    <path d="M 170.02943725152286,203.97056274847714 A 24,24 0 1,1 187,211" />
    <path d="M 187,227 A 40,40 0 0,1 187,147" />
    <path d="M 202.3073372946036,150.04481869954853 A 40,40 0 0,1 223.95518130045147,171.6926627053964" />
    <path d="M 227,187 A 40,40 0 0,1 223.95518130045147,202.3073372946036" />
    <path d="M 215.2842712474619,215.2842712474619 A 40,40 0 0,1 202.3073372946036,223.95518130045147" />
    <path d="M 135.26274617936795,165.56972778755497 A 56,56 0 0,1 243,187" />
    <path d="M 208.43027221244503,238.73725382063205 A 56,56 0 0,1 147.40202025355336,226.59797974644667" />
    <path d="M 146.99894322258865,127.13418791421674 A 72,72 0 0,1 187,115" />
    <path d="M 201.04650318516124,116.38345981096741 A 72,72 0 0,1 227.00105677741135,127.13418791421674" />
    <path d="M 237.91168824543144,136.08831175456857 A 72,72 0 0,1 246.86581208578326,146.99894322258865" />
    <path d="M 257.61654018903261,172.95349681483876 A 72,72 0 0,1 259,187" />
    <path d="M 257.61654018903261,201.04650318516124 A 72,72 0 0,1 227.00105677741135,246.86581208578326" />
    <path d="M 187,259 A 72,72 0 0,1 159.44679286971353,253.51932634081265" />
    <path d="M 146.99894322258865,246.86581208578326 A 72,72 0 0,1 136.08831175456859,237.91168824543144" />
    <path d="M 127.13418791421674,227.00105677741135 A 72,72 0 0,1 116.38345981096741,201.04650318516127" />
    <path d="M 115,187 A 72,72 0 0,1 136.08831175456857,136.08831175456859" />
    <path d="M 187,99 A 88,88 0 0,1 204.16794833741929,100.69089532451572" />
    <path d="M 220.6761420481279,105.69860113900677 A 88,88 0 0,1 249.22539674441617,124.77460325558381" />
    <path d="M 260.169325882624,138.109819494275 A 88,88 0 0,1 273.30910467548426,169.83205166258071" />
    <path d="M 275,187 A 88,88 0 0,1 268.30139886099323,220.6761420481279" />
    <path d="M 235.89018050572497,260.169325882624 A 88,88 0 0,1 204.16794833741932,273.30910467548426" />
    <path d="M 187,275 A 88,88 0 0,1 169.83205166258071,273.30910467548426" />
    <path d="M 124.77460325558383,249.2253967444162 A 88,88 0 0,1 105.69860113900678,220.67614204812796" />
    <path d="M 100.69089532451572,204.16794833741932 A 88,88 0 0,1 99,187.00000000000003" />
    <path d="M 100.69089532451572,169.83205166258071 A 88,88 0 0,1 113.83067411737599,138.10981949427503" />
    <path d="M 124.7746032555838,124.77460325558383 A 88,88 0 0,1 138.109819494275,113.83067411737602" />
    <path d="M 166.71060651032261,84.998330838064049 A 104,104 0 0,1 207.28939348967734,84.998330838064035" />
    <path d="M 273.4728396794647,129.22069576596135 A 104,104 0 0,1 283.08347138117381,147.20092303403067" />
    <path d="M 289.001669161936,166.71060651032266 A 104,104 0 0,1 226.79907696596933,283.08347138117381" />
    <path d="M 207.28939348967737,289.001669161936 A 104,104 0 0,1 187,291" />
    <path d="M 166.71060651032266,289.001669161936 A 104,104 0 0,1 113.46089475659908,260.53910524340097" />
    <path d="M 90.9165286188262,226.79907696596939 A 104,104 0 0,1 84.998330838064035,166.71060651032266" />
    <path d="M 90.916528618826192,147.20092303403064 A 104,104 0 0,1 113.46089475659905,113.46089475659908" />
    <path d="M 163.58916135806456,69.305766351612363 A 120,120 0 0,1 187,67" />
    <path d="M 210.41083864193539,69.305766351612348 A 120,120 0 0,1 232.92201188381077,76.134456098645586" />
    <path d="M 271.85281374238571,102.14718625761429 A 120,120 0 0,1 286.77635347630542,120.33157203764773" />
    <path d="M 297.86554390135439,141.07798811618923 A 120,120 0 0,1 304.69423364838764,163.58916135806459" />
    <path d="M 307,187 A 120,120 0 0,1 304.69423364838764,210.41083864193539" />
    <path d="M 297.86554390135439,232.92201188381077 A 120,120 0 0,1 271.85281374238571,271.85281374238571" />
    <path d="M 232.9220118838108,297.86554390135439 A 120,120 0 0,1 141.07798811618926,297.86554390135439" />
    <path d="M 120.33157203764777,286.77635347630547 A 120,120 0 0,1 76.134456098645614,232.92201188381085" />
    <path d="M 69.305766351612348,210.41083864193544 A 120,120 0 0,1 76.1344560986456,141.0779881161892" />
    <path d="M 120.33157203764773,87.223646523694569 A 120,120 0 0,1 141.07798811618915,76.134456098645614" />
    <path d="M 173.66966891517978,51.654877172581223 A 136,136 0 0,1 226.4787161066069,56.856114340419595" />
    <path d="M 239.0449468016522,61.352383578464995 A 136,136 0 0,1 251.10995620833569,67.058708048623714" />
    <path d="M 262.55755169066589,73.920132726853851 A 136,136 0 0,1 317.14388565958041,147.52128389339313" />
    <path d="M 320.38679813483935,160.46771620580654 A 136,136 0 0,1 306.94129195137629,251.10995620833569" />
    <path d="M 300.07986727314619,262.55755169066589 A 136,136 0 0,1 147.52128389339316,317.14388565958041" />
    <path d="M 134.9550531983478,312.647616421535 A 136,136 0 0,1 100.72251335374423,292.12942165733227" />
    <path d="M 90.833477758629556,283.16652224137044 A 136,136 0 0,1 67.058708048623728,251.10995620833572" />
    <path d="M 61.352383578465037,239.04494680165229 A 136,136 0 0,1 56.856114340419595,226.4787161066069" />
    <path d="M 51.654877172581223,200.33033108482022 A 136,136 0 0,1 51.654877172581223,173.66966891517984" />
    <path d="M 67.058708048623714,122.89004379166433 A 136,136 0 0,1 100.72251335374415,81.870578342667827" />
    <path d="M 134.95505319834771,61.352383578465037 A 136,136 0 0,1 160.46771620580648,53.613201865160676" />
    <path d="M 142.87672905732171,41.545068968704271 A 152,152 0 0,1 201.8986053300932,35.731921545826083" />
    <path d="M 231.12327094267829,41.545068968704243 A 152,152 0 0,1 245.16788171949364,46.5703110582844" />
    <path d="M 271.44667541897957,60.616618930013118 A 152,152 0 0,1 283.42777919287414,69.50241108886398" />
    <path d="M 304.497588911136,90.572220807125873 A 152,152 0 0,1 313.38338106998685,102.55332458102046" />
    <path d="M 321.05203218094994,115.34769600244833 A 152,152 0 0,1 336.079362621291,157.34627105354849" />
    <path d="M 339,187 A 152,152 0 0,1 338.26807845417392,201.89860533009323" />
    <path d="M 327.4296889417156,245.16788171949364 A 152,152 0 0,1 294.48023074035524,294.48023074035518" />
    <path d="M 271.44667541897951,313.38338106998685 A 152,152 0 0,1 142.87672905732177,332.45493103129576" />
    <path d="M 102.55332458102051,313.38338106998691 A 152,152 0 0,1 79.519769259644789,294.48023074035524" />
    <path d="M 52.947967819050064,258.65230399755171 A 152,152 0 0,1 37.92063737870896,157.34627105354849" />
    <path d="M 41.545068968704243,142.87672905732177 A 152,152 0 0,1 46.570311058284432,128.83211828050634" />
    <path d="M 60.61661893001309,102.55332458102052 A 152,152 0 0,1 79.519769259644747,79.5197692596448" />
    <path d="M 102.55332458102046,60.616618930013118 A 152,152 0 0,1 115.34769600244832,52.947967819050064" />
    <path d="M 80.421928260507485,57.134243835060261 A 168,168 0 0,1 187,19" />
    <path d="M 203.46687957536619,19.808965919070914 A 168,168 0 0,1 235.76782577874968,26.234023596988919" />
    <path d="M 266.19465178676762,38.837227589476356 A 168,168 0 0,1 280.33579914729319,47.3131051331724" />
    <path d="M 293.57807173949243,57.134243835060175 A 168,168 0 0,1 316.8657561649398,80.421928260507556" />
    <path d="M 326.68689486682763,93.664200852706827 A 168,168 0 0,1 335.16277241052364,107.80534821323238" />
    <path d="M 347.76597640301111,138.23217422125032 A 168,168 0 0,1 351.77192710774273,154.22482590129044" />
    <path d="M 355,187 A 168,168 0 0,1 354.19103408092906,203.46687957536619" />
    <path d="M 316.86575616493985,293.57807173949243 A 168,168 0 0,1 293.57807173949243,316.86575616493985" />
    <path d="M 266.19465178676762,335.16277241052364 A 168,168 0 0,1 187.00000000000003,355" />
    <path d="M 154.22482590129044,351.77192710774273 A 168,168 0 0,1 122.70918336266495,342.21176146189617" />
    <path d="M 93.664200852706884,326.68689486682763 A 168,168 0 0,1 57.134243835060232,293.57807173949249" />
    <path d="M 47.3131051331724,280.33579914729319 A 168,168 0 0,1 38.837227589476385,266.19465178676762" />
    <path d="M 19.808965919070914,203.46687957536616 A 168,168 0 0,1 19,187.00000000000003" />
    <path d="M 38.837227589476356,107.80534821323241 A 168,168 0 0,1 68.20606076066,68.206060760660037" />
    <path d="M 205.03515382063915,3.886010292315774 A 184,184 0 1,1 187,3" />
  </g>
  <g fill="none" stroke="#000000" stroke-width="2" stroke-linecap="butt">
    <line x1="187" y1="19" x2="187" y2="35" />
    <line x1="187" y1="83" x2="187" y2="99" />
    <line x1="187" y1="131" x2="187" y2="147" />
    <line x1="201.8986053300932" y1="35.731921545826054" x2="200.33033108482024" y2="51.654877172581223" />
    <line x1="216.65372894645151" y1="37.920637378708989" x2="213.53228379419343" y2="53.613201865160647" />
    <line x1="204.16794833741929" y1="100.69089532451572" x2="201.04650318516124" y2="116.38345981096741" />
    <line x1="235.76782577874968" y1="26.234023596988919" x2="231.12327094267829" y2="41.545068968704271" />
    <line x1="257.41375155517653" y1="17.006166017923249" x2="251.29081663733507" y2="31.788238538103826" />
    <line x1="245.16788171949366" y1="46.5703110582844" x2="220.6761420481279" y2="105.69860113900677" />
    <line x1="214.55320713028647" y1="120.48067365918736" x2="208.43027221244503" y2="135.26274617936795" />
    <line x1="266.19465178676762" y1="38.837227589476356" x2="251.10995620833569" y2="67.058708048623714" />
    <line x1="289.22492287560681" y1="34.009591336331681" x2="280.33579914729319" y2="47.3131051331724" />
    <line x1="271.44667541897957" y1="60.616618930013118" x2="244.77930423403862" y2="100.5271603205353" />
    <line x1="293.57807173949243" y1="57.134243835060175" x2="283.42777919287414" y2="69.50241108886398" />
    <line x1="294.48023074035518" y1="79.519769259644775" x2="283.16652224137044" y2="90.833477758629527" />
    <line x1="271.85281374238571" y1="102.14718625761429" x2="237.91168824543144" y2="136.08831175456857" />
    <line x1="215.2842712474619" y1="158.7157287525381" x2="203.97056274847714" y2="170.02943725152286" />
    <line x1="326.68689486682763" y1="93.664200852706813" x2="313.38338106998685" y2="102.55332458102045" />
    <line x1="286.77635347630542" y1="120.33157203764773" x2="273.4728396794647" y2="129.22069576596135" />
    <line x1="349.27351264009729" y1="100.2630004240164" x2="335.16277241052364" y2="107.80534821323236" />
    <line x1="321.05203218094994" y1="115.34769600244833" x2="306.94129195137629" y2="122.8900437916643" />
    <line x1="342.21176146189617" y1="122.7091833626649" x2="327.4296889417156" y2="128.83211828050634" />
    <line x1="312.64761642153496" y1="134.9550531983478" x2="297.86554390135439" y2="141.0779881161892" />
    <line x1="283.08347138117381" y1="147.20092303403067" x2="253.51932634081265" y2="159.44679286971353" />
    <line x1="363.0770217747264" y1="133.58761938517893" x2="347.76597640301111" y2="138.23217422125032" />
    <line x1="304.69423364838764" y1="163.58916135806459" x2="289.001669161936" y2="166.71060651032266" />
    <line x1="273.30910467548426" y1="169.83205166258071" x2="257.61654018903261" y2="172.95349681483876" />
    <line x1="370.11398970768425" y1="168.96484617936082" x2="322.34512282741878" y2="173.66966891517973" />
    <line x1="339" y1="187" x2="323" y2="187" />
    <line x1="291" y1="187" x2="275" y2="187" />
    <line x1="259" y1="187" x2="227" y2="187" />
    <line x1="370.11398970768425" y1="205.03515382063915" x2="354.19103408092906" y2="203.46687957536619" />
    <line x1="351.77192710774273" y1="219.77517409870953" x2="304.69423364838764" y2="210.41083864193539" />
    <line x1="273.30910467548426" y1="204.16794833741929" x2="257.61654018903261" y2="201.04650318516124" />
    <line x1="363.0770217747264" y1="240.41238061482105" x2="347.76597640301111" y2="235.76782577874965" />
    <line x1="332.45493103129576" y1="231.12327094267823" x2="317.14388565958041" y2="226.47871610660684" />
    <line x1="342.21176146189617" y1="251.29081663733507" x2="327.4296889417156" y2="245.16788171949364" />
    <line x1="312.64761642153496" y1="239.0449468016522" x2="297.86554390135439" y2="232.92201188381077" />
    <line x1="238.73725382063205" y1="208.43027221244503" x2="223.95518130045147" y2="202.3073372946036" />
    <line x1="349.27351264009735" y1="273.73699957598359" x2="335.16277241052364" y2="266.19465178676762" />
    <line x1="326.68689486682763" y1="280.33579914729313" x2="313.38338106998691" y2="271.44667541897951" />
    <line x1="273.47283967946476" y1="244.77930423403859" x2="260.169325882624" y2="235.89018050572497" />
    <line x1="316.86575616493985" y1="293.57807173949243" x2="304.49758891113606" y2="283.42777919287408" />
    <line x1="283.16652224137044" y1="283.16652224137044" x2="271.85281374238571" y2="271.85281374238571" />
    <line x1="249.22539674441617" y1="249.22539674441617" x2="203.97056274847714" y2="203.97056274847714" />
    <line x1="303.72836428611078" y1="329.23392341874364" x2="283.42777919287414" y2="304.497588911136" />
    <line x1="280.33579914729319" y1="326.68689486682763" x2="271.44667541897957" y2="313.38338106998691" />
    <line x1="262.55755169066589" y1="300.07986727314619" x2="253.66842796235227" y2="286.77635347630542" />
    <line x1="244.77930423403862" y1="273.4728396794647" x2="235.890180505725" y2="260.169325882624" />
    <line x1="232.9220118838108" y1="297.86554390135439" x2="226.79907696596933" y2="283.08347138117381" />
    <line x1="214.55320713028647" y1="253.51932634081265" x2="208.43027221244503" y2="238.73725382063205" />
    <line x1="207.28939348967737" y1="289.001669161936" x2="201.04650318516127" y2="257.61654018903261" />
    <line x1="187.00000000000003" y1="371" x2="187.00000000000003" y2="355" />
    <line x1="187" y1="291" x2="187" y2="259" />
    <line x1="187" y1="227" x2="187" y2="211" />
    <line x1="170.53312042463381" y1="354.19103408092906" x2="172.1013946699068" y2="338.268078454174" />
    <line x1="133.58761938517898" y1="363.0770217747264" x2="138.23217422125038" y2="347.76597640301111" />
    <line x1="142.87672905732177" y1="332.45493103129576" x2="147.52128389339316" y2="317.14388565958041" />
    <line x1="122.70918336266493" y1="342.21176146189623" x2="128.83211828050636" y2="327.4296889417156" />
    <line x1="134.9550531983478" y1="312.647616421535" x2="147.20092303403067" y2="283.08347138117381" />
    <line x1="153.3238579518721" y1="268.30139886099323" x2="159.44679286971353" y2="253.51932634081265" />
    <line x1="100.26300042401644" y1="349.27351264009735" x2="107.80534821323239" y2="335.16277241052364" />
    <line x1="115.34769600244836" y1="321.05203218094994" x2="122.89004379166433" y2="306.94129195137629" />
    <line x1="84.775077124393235" y1="339.9904086636684" x2="93.66420085270687" y2="326.68689486682763" />
    <line x1="111.44244830933414" y1="300.07986727314619" x2="120.33157203764776" y2="286.77635347630547" />
    <line x1="129.22069576596141" y1="273.47283967946476" x2="146.99894322258865" y2="246.86581208578326" />
    <line x1="90.572220807125916" y1="304.49758891113606" x2="100.72251335374425" y2="292.12942165733227" />
    <line x1="136.08831175456857" y1="237.91168824543144" x2="147.40202025355336" y2="226.59797974644667" />
    <line x1="57.134243835060232" y1="293.57807173949254" x2="81.870578342667812" y2="273.27748664625585" />
    <line x1="60.616618930013118" y1="271.44667541897957" x2="73.920132726853851" y2="262.55755169066589" />
    <line x1="87.223646523694569" y1="253.66842796235227" x2="100.5271603205353" y2="244.77930423403862" />
    <line x1="38.837227589476356" y1="266.19465178676762" x2="52.947967819050064" y2="258.65230399755166" />
    <line x1="31.788238538103855" y1="251.29081663733518" x2="76.134456098645614" y2="232.92201188381085" />
    <line x1="90.9165286188262" y1="226.79907696596939" x2="105.69860113900678" y2="220.67614204812796" />
    <line x1="120.48067365918737" y1="214.5532071302865" x2="135.26274617936795" y2="208.43027221244506" />
    <line x1="10.922978225273567" y1="240.41238061482108" x2="26.234023596988919" y2="235.76782577874968" />
    <line x1="22.228072892257302" y1="219.77517409870961" x2="53.613201865160676" y2="213.53228379419349" />
    <line x1="69.305766351612363" y1="210.41083864193544" x2="84.998330838064049" y2="207.28939348967737" />
    <line x1="100.69089532451574" y1="204.16794833741932" x2="116.38345981096742" y2="201.04650318516127" />
    <line x1="3.886010292315774" y1="205.03515382063912" x2="19.808965919070914" y2="203.46687957536616" />
    <line x1="35.731921545826054" y1="201.89860533009318" x2="51.654877172581223" y2="200.33033108482022" />
    <line x1="99" y1="187.00000000000003" x2="115" y2="187" />
    <line x1="131" y1="187" x2="147" y2="187" />
    <line x1="3.886010292315774" y1="168.96484617936093" x2="19.808965919070914" y2="170.53312042463389" />
    <line x1="22.228072892257273" y1="154.22482590129044" x2="69.305766351612348" y2="163.58916135806462" />
    <line x1="84.998330838064035" y1="166.71060651032266" x2="100.69089532451572" y2="169.83205166258071" />
    <line x1="26.234023596988891" y1="138.23217422125038" x2="56.856114340419595" y2="147.52128389339316" />
    <line x1="17.006166017923249" y1="116.58624844482344" x2="46.570311058284432" y2="128.83211828050634" />
    <line x1="61.352383578465023" y1="134.95505319834777" x2="76.1344560986456" y2="141.0779881161892" />
    <line x1="38.837227589476356" y1="107.80534821323241" x2="67.058708048623714" y2="122.89004379166433" />
    <line x1="34.009591336331624" y1="84.775077124393263" x2="47.313105133172371" y2="93.664200852706884" />
    <line x1="60.61661893001309" y1="102.55332458102052" x2="100.52716032053527" y2="129.22069576596141" />
    <line x1="90.833477758629513" y1="90.833477758629556" x2="102.14718625761428" y2="102.14718625761432" />
    <line x1="113.46089475659905" y1="113.46089475659908" x2="136.08831175456857" y2="136.08831175456859" />
    <line x1="80.421928260507485" y1="57.134243835060232" x2="100.72251335374415" y2="81.870578342667812" />
    <line x1="93.664200852706841" y1="47.3131051331724" x2="102.55332458102046" y2="60.616618930013118" />
    <line x1="111.44244830933411" y1="73.920132726853851" x2="129.22069576596138" y2="100.5271603205353" />
    <line x1="138.109819494275" y1="113.83067411737602" x2="146.99894322258865" y2="127.13418791421674" />
    <line x1="115.34769600244832" y1="52.947967819050064" x2="122.89004379166428" y2="67.058708048623743" />
    <line x1="122.70918336266482" y1="31.788238538103855" x2="128.83211828050625" y2="46.57031105828446" />
    <line x1="134.95505319834771" y1="61.352383578465037" x2="153.32385795187204" y2="105.69860113900678" />
    <line x1="160.46771620580648" y1="53.613201865160676" x2="166.71060651032261" y2="84.998330838064049" />
    <line x1="169.83205166258068" y1="100.69089532451574" x2="172.95349681483873" y2="116.38345981096742" />
  </g>
  <path fill="none" stroke="#ff0000" stroke-width="2" stroke-linecap="square" stroke-linejoin="round" d="M 196.02845207624492,3.2216360582482935 L 194.85082789238689,27.192727007172408 A 160,160 0 0,1 225.87682878452222,31.794999488872975 L 221.98914590607,47.315499539985666 A 144,144 0 0,1 235.51213888847968,51.417654613645 L 230.12190123420416,66.482359656573337 A 128,128 0 0,0 168.21849926971362,60.385406724508044 L 165.87081167842783,44.558582565071561 A 144,144 0 0,0 125.43206654603932,56.825541790224179 L 132.27294804092384,71.289370480199281 A 128,128 0 0,0 121.1948487432676,77.210737919965183 L 112.96920483617605,63.48708015996084 A 144,144 0 0,0 101.21930015308962,71.338115466787116 L 110.75048902496855,84.189435970477433 A 128,128 0 0,0 105.79765962705332,88.054661969569707 L 126.09824472028998,112.79099647717729 A 96,96 0 0,1 141.7459132647042,102.33555862255793 L 149.28826105392017,116.44629885213161 A 80,80 0 0,1 163.777225819643,110.4447731414233 L 159.13267098357159,95.133727769707946 A 96,96 0 0,1 177.59035452836218,91.4622662394691 L 179.15862877363517,107.38522186622424 A 80,80 0 0,1 194.84137122636486,107.38522186622424 L 193.27309698109187,123.3081774929794 A 64,64 0 0,0 124.22974205419325,199.48578060903225 L 139.92230654064494,196.36433545677417 A 48,48 0 0,0 147.08945860947785,213.66737118494092 L 133.7859448126371,222.55649491325454 A 64,64 0 0,0 137.52733098478484,227.60117018647333 L 125.15916373098108,237.75146273309167 A 80,80 0 0,1 110.4447731414233,210.222774180357 L 95.133727769707946,214.86732901642839 A 96,96 0 0,1 91.462266239469088,177.59035452836224 L 107.38522186622424,179.1586287736352 A 80,80 0 0,1 125.15916373098105,136.24853726690836 L 112.79099647717726,126.09824472029003 A 96,96 0 0,0 95.133727769707946,159.13267098357164 L 79.8226823979926,154.48811614750025 A 112,112 0 0,1 88.224818392984233,134.20356547548829 L 74.114078163410554,126.66121768627231 A 128,128 0 0,0 71.289370480199253,132.27294804092389 L 56.825541790224179,125.43206654603937 A 144,144 0 0,0 51.417654613645,138.48786111152037 L 66.482359656573323,143.8780987657959 A 128,128 0 0,0 62.835999591098371,155.89853697238223 L 16.274499437760255,144.23548833702557 A 176,176 0 0,0 12.904934246198565,161.1754364958563 L 28.731758405635048,163.52312408714209 A 160,160 0 0,0 28.731758405635048,210.47687591285796 L 12.904934246198565,212.82456350414378 A 176,176 0 0,0 16.274499437760255,229.76451166297449 L 31.794999488872975,225.87682878452227 A 160,160 0 0,0 36.352949570716675,240.90237654275518 L 21.288244527788351,246.2926141970307 A 176,176 0 0,0 45.635474459406481,291.84307759066826 L 58.4867949630968,282.31188871878931 A 160,160 0 0,1 49.763422399956482,269.25643907091546 L 63.487080159960826,261.03079516382394 A 144,144 0 0,1 56.825541790224179,248.56793345396068 L 71.289370480199281,241.72705195907616 A 128,128 0 0,0 101.04045377958164,281.84174404543478 L 90.295510502029344,293.6969620511141 A 144,144 0 0,1 80.303037948885915,283.70448949797071 L 68.447819943206582,294.44943277552295 A 160,160 0 0,0 118.59118505115491,331.63828689975094 L 125.43206654603941,317.17445820977582 A 144,144 0 0,0 138.48786111152032,322.582345386355 L 143.87809876579581,307.51764034342665 A 128,128 0 0,0 247.33878231372773,299.88592183658943 L 239.79643452451177,285.77518160701572 A 112,112 0 0,0 298.46068938728604,176.0220802830892 L 314.38364501404118,174.45380603781621 A 128,128 0 0,0 311.16400040890164,155.8985369723822 L 326.68450046001431,152.01085409393 A 144,144 0 0,1 329.44141743492844,165.87081167842791 L 345.26824159436495,163.52312408714212 A 160,160 0 0,0 337.64705042928335,133.09762345724479 L 352.71175547221162,127.70738580296927 A 176,176 0 0,0 346.10211558972605,111.75030355627034 L 331.63828689975094,118.59118505115485 A 160,160 0 0,0 324.23657760004357,104.74356092908452 L 310.51291984003916,112.96920483617608 A 144,144 0 0,0 293.6969620511141,90.295510502029359 L 305.55218005679347,79.550567224477064 A 160,160 0 0,1 315.51320503690317,91.688111281210652 L 328.36452554059349,82.156922409331713 A 176,176 0 0,0 291.84307759066826,45.63547445940651 L 282.31188871878931,58.486794963096827 A 160,160 0 0,0 269.25643907091546,49.763422399956454 L 252.80515125673236,77.210737919965169 A 128,128 0 0,0 247.33878231372771,74.114078163410554 L 232.25408673529577,102.33555862255791 A 96,96 0 0,1 247.90175527970996,112.79099647717725 L 268.20234037294665,88.054661969569665 A 128,128 0 0,1 299.88592183658943,126.66121768627228 L 285.77518160701572,134.20356547548823 A 112,112 0 0,1 294.17731760200741,154.48811614750022 L 278.86627223029205,159.13267098357161 A 96,96 0 0,1 282.5377337605309,177.59035452836216 L 266.61477813377576,179.15862877363514 A 80,80 0 0,1 266.61477813377576,194.84137122636486 L 250.69182250702062,193.27309698109187 A 64,64 0 0,1 240.2140551873629,222.55649491325454 L 213.60702759368147,204.77824745662727 A 32,32 0 0,0 218.38512897290337,180.75710969548391 L 234.07769345935506,177.63566454322583 A 48,48 0 0,0 196.36433545677414,139.92230654064494 L 193.2428903045161,155.61487102709663 A 32,32 0 0,0 174.75413016431713,216.56414504036118 L 177.81559762323786,209.17310878027089" />
  <type>Circular</type>
</svg>