<?xml version="1.0" encoding="utf-8" standalone="no"?>
<!DOCTYPE svg PUBLIC "-//W3C//DTD SVG 1.1//EN" "http://www.w3.org/Graphics/SVG/1.1/DTD/svg11.dtd"[]>
<svg width="372" height="372" version="1.1" xmlns="http://www.w3.org/2000/svg">
  <title>23 cells diameter theta maze</title>
  <g fill="none" stroke="#000000" stroke-width="2" stroke-linecap="square">
    <path d="M 170.02943725152286,203.97056274847714 A 24,24 0 1,1 187,211" />
    <path d="M 202.3073372946036,150.04481869954853 A 40,40 0 0,1 223.95518130045147,171.6926627053964" />
    <path d="M 227,187 A 40,40 0 1,1 158.7157287525381,158.7157287525381" />
    <path d="M 187,131 A 56,56 0 0,1 226.59797974644667,147.40202025355333" />
    <path d="M 238.73725382063205,165.56972778755497 A 56,56 0 0,1 238.73725382063208,208.43027221244503" />
    <path d="M 226.59797974644667,226.59797974644664 A 56,56 0 0,1 165.569727787555,238.73725382063208" />
    <path d="M 147.40202025355336,226.59797974644667 A 56,56 0 0,1 131,187" />
    <path d="M 135.26274617936795,165.56972778755497 A 56,56 0 0,1 165.56972778755494,135.26274617936795" />
    <path d="M 115,187 A 72,72 0 0,1 201.04650318516124,116.38345981096741" />
    <path d="M 214.55320713028647,120.48067365918736 A 72,72 0 0,1 253.51932634081265,159.44679286971353" />
    <path d="M 259,187 A 72,72 0 0,1 257.61654018903261,201.04650318516124" />
    <path d="M 253.51932634081265,214.55320713028647 A 72,72 0 0,1 227.00105677741135,246.86581208578326" />
    <path d="M 214.55320713028647,253.51932634081265 A 72,72 0 0,1 187,259" />
    <path d="M 172.95349681483876,257.61654018903261 A 72,72 0 0,1 120.48067365918737,214.5532071302865" />
    <path d="M 138.109819494275,113.83067411737602 A 88,88 0 0,1 187,99" />
    <path d="M 204.16794833741929,100.69089532451572 A 88,88 0 0,1 220.6761420481279,105.69860113900677" />
    <path d="M 249.22539674441617,124.77460325558381 A 88,88 0 0,1 268.30139886099323,153.3238579518721" />
    <path d="M 260.169325882624,235.89018050572497 A 88,88 0 0,1 220.6761420481279,268.30139886099323" />
    <path d="M 204.16794833741932,273.30910467548426 A 88,88 0 0,1 169.83205166258071,273.30910467548426" />
    <path d="M 153.32385795187213,268.30139886099323 A 88,88 0 0,1 100.69089532451572,204.16794833741932" />
    <path d="M 99,187.00000000000003 A 88,88 0 0,1 113.83067411737599,138.10981949427503" />
    <path d="M 187,83 A 104,104 0 0,1 273.4728396794647,129.22069576596135" />
    <path d="M 283.08347138117381,147.20092303403067 A 104,104 0 0,1 273.47283967946476,244.77930423403859" />
    <path d="M 244.77930423403862,273.4728396794647 A 104,104 0 0,1 226.79907696596933,283.08347138117381" />
    <path d="M 187,291 A 104,104 0 0,1 166.71060651032266,289.001669161936" />
    <path d="M 147.20092303403067,283.08347138117381 A 104,104 0 0,1 113.46089475659908,260.53910524340097" />
    <path d="M 100.52716032053529,244.77930423403862 A 104,104 0 0,1 84.998330838064035,207.28939348967737" />
    <path d="M 84.998330838064035,166.71060651032266 A 104,104 0 0,1 129.22069576596135,100.5271603205353" />
    <path d="M 147.20092303403061,90.9165286188262 A 104,104 0 0,1 166.71060651032261,84.998330838064049" />
    <path d="M 87.223646523694541,120.33157203764777 A 120,120 0 0,1 210.41083864193539,69.305766351612348" />
    <path d="M 232.92201188381077,76.134456098645586 A 120,120 0 0,1 286.77635347630542,120.33157203764773" />
    <path d="M 304.69423364838764,163.58916135806459 A 120,120 0 0,1 297.86554390135439,232.92201188381077" />
    <path d="M 271.85281374238571,271.85281374238571 A 120,120 0 0,1 163.58916135806459,304.69423364838764" />
    <path d="M 87.223646523694569,253.66842796235227 A 120,120 0 0,1 76.134456098645614,232.92201188381085" />
    <path d="M 67,187.00000000000003 A 120,120 0 0,1 69.305766351612348,163.58916135806462" />
    <path d="M 187,51 A 136,136 0 0,1 200.33033108482024,51.654877172581223" />
    <path d="M 213.53228379419343,53.613201865160647 A 136,136 0 0,1 226.4787161066069,56.856114340419595" />
    <path d="M 251.10995620833569,67.058708048623714 A 136,136 0 0,1 306.94129195137629,122.8900437916643" />
    <path d="M 312.64761642153496,134.9550531983478 A 136,136 0 0,1 322.34512282741878,200.33033108482024" />
    <path d="M 320.38679813483935,213.53228379419343 A 136,136 0 0,1 239.04494680165223,312.64761642153496" />
    <path d="M 200.33033108482027,322.34512282741878 A 136,136 0 0,1 147.52128389339316,317.14388565958041" />
    <path d="M 134.9550531983478,312.647616421535 A 136,136 0 0,1 111.44244830933414,300.07986727314619" />
    <path d="M 100.72251335374423,292.12942165733227 A 136,136 0 0,1 81.870578342667812,273.27748664625585" />
    <path d="M 73.920132726853836,262.55755169066589 A 136,136 0 0,1 56.856114340419595,226.4787161066069" />
    <path d="M 53.613201865160676,213.53228379419349 A 136,136 0 0,1 51,187.00000000000003" />
    <path d="M 51.654877172581223,173.66966891517984 A 136,136 0 0,1 53.613201865160647,160.46771620580654" />
    <path d="M 56.856114340419595,147.52128389339316 A 136,136 0 0,1 81.870578342667784,100.72251335374421" />
    <path d="M 90.833477758629513,90.833477758629556 A 136,136 0 0,1 160.46771620580648,53.613201865160676" />
    <path d="M 142.87672905732171,41.545068968704271 A 152,152 0 0,1 258.65230399755166,52.947967819050035" />
    <path d="M 283.42777919287414,69.50241108886398 A 152,152 0 0,1 294.48023074035524,79.519769259644775" />
    <path d="M 304.497588911136,90.572220807125873 A 152,152 0 0,1 313.38338106998685,102.55332458102046" />
    <path d="M 327.4296889417156,128.83211828050634 A 152,152 0 0,1 339,187" />
    <path d="M 332.45493103129576,231.12327094267826 A 152,152 0 0,1 283.42777919287414,304.497588911136" />
    <path d="M 258.65230399755166,321.05203218094994 A 152,152 0 0,1 245.16788171949366,327.42968894171554" />
    <path d="M 231.12327094267829,332.45493103129576 A 152,152 0 0,1 201.89860533009323,338.26807845417392" />
    <path d="M 128.83211828050636,327.4296889417156 A 152,152 0 0,1 90.572220807125916,304.49758891113606" />
    <path d="M 69.502411088864022,283.42777919287414 A 152,152 0 0,1 60.616618930013118,271.44667541897951" />
    <path d="M 46.57031105828446,245.16788171949372 A 152,152 0 0,1 41.545068968704243,231.12327094267829" />
    <path d="M 35.731921545826083,201.89860533009318 A 152,152 0 0,1 35.731921545826054,172.10139466990688" />
    <path d="M 46.570311058284432,128.83211828050634 A 152,152 0 0,1 69.502411088864,90.572220807125873" />
    <path d="M 79.519769259644747,79.5197692596448 A 152,152 0 0,1 128.83211828050625,46.57031105828446" />
    <path d="M 187,19 A 168,168 0 0,1 219.77517409870956,22.228072892257273" />
    <path d="M 235.76782577874968,26.234023596988919 A 168,168 0 0,1 251.29081663733507,31.788238538103826" />
    <path d="M 266.19465178676762,38.837227589476356 A 168,168 0 0,1 305.79393923934,68.206060760660009" />
    <path d="M 335.16277241052364,107.80534821323238 A 168,168 0 0,1 355,187" />
    <path d="M 351.77192710774273,219.77517409870953 A 168,168 0 0,1 347.76597640301111,235.76782577874965" />
    <path d="M 342.21176146189617,251.29081663733507 A 168,168 0 0,1 335.16277241052364,266.19465178676762" />
    <path d="M 326.68689486682763,280.33579914729313 A 168,168 0 0,1 316.86575616493985,293.57807173949243" />
    <path d="M 280.33579914729319,326.68689486682763 A 168,168 0 0,1 219.77517409870961,351.77192710774273" />
    <path d="M 203.46687957536622,354.19103408092906 A 168,168 0 0,1 187.00000000000003,355" />
    <path d="M 170.53312042463381,354.19103408092906 A 168,168 0 0,1 154.22482590129044,351.77192710774273" />
    <path d="M 138.23217422125038,347.76597640301111 A 168,168 0 0,1 122.70918336266495,342.21176146189617" />
    <path d="M 107.80534821323241,335.16277241052364 A 168,168 0 0,1 80.421928260507585,316.86575616493985" />
    <path d="M 57.134243835060232,293.57807173949249 A 168,168 0 0,1 31.788238538103855,251.29081663733518" />
    <path d="M 26.234023596988919,235.76782577874968 A 168,168 0 0,1 19.808965919070914,203.46687957536616" />
    <path d="M 19,187.00000000000003 A 168,168 0 0,1 19.808965919070914,170.53312042463392" />
    <path d="M 22.228072892257273,154.22482590129044 A 168,168 0 0,1 26.234023596988891,138.23217422125038" />
    <path d="M 31.788238538103855,122.70918336266487 A 168,168 0 0,1 93.664200852706827,47.3131051331724" />
    <path d="M 138.23217422125032,26.234023596988919 A 168,168 0 0,1 170.53312042463384,19.808965919070914" />
    <path d="M 205.03515382063915,3.886010292315774 A 184,184 0 1,1 187,3" />
  </g>
  <g fill="none" stroke="#000000" stroke-width="2" stroke-linecap="butt">
    <line x1="187" y1="83" x2="187" y2="99" />
    <line x1="187" y1="115" x2="187" y2="147" />
    <line x1="205.03515382063915" y1="3.886010292315774" x2="203.46687957536619" y2="19.808965919070914" />
    <line x1="201.8986053300932" y1="35.731921545826054" x2="200.33033108482024" y2="51.654877172581223" />
    <line x1="204.16794833741929" y1="100.69089532451572" x2="201.04650318516124" y2="116.38345981096741" />
    <line x1="240.41238061482108" y1="10.922978225273567" x2="226.47871610660687" y2="56.856114340419595" />
    <line x1="245.16788171949366" y1="46.5703110582844" x2="239.0449468016522" y2="61.352383578465009" />
    <line x1="232.92201188381077" y1="76.134456098645586" x2="226.79907696596933" y2="90.916528618826177" />
    <line x1="208.43027221244503" y1="135.26274617936795" x2="202.3073372946036" y2="150.04481869954853" />
    <line x1="266.19465178676762" y1="38.837227589476356" x2="258.65230399755166" y2="52.947967819050035" />
    <line x1="280.33579914729319" y1="47.3131051331724" x2="262.55755169066589" y2="73.920132726853851" />
    <line x1="244.77930423403862" y1="100.5271603205353" x2="227.00105677741135" y2="127.13418791421674" />
    <line x1="293.57807173949243" y1="57.134243835060175" x2="283.42777919287414" y2="69.50241108886398" />
    <line x1="215.2842712474619" y1="158.7157287525381" x2="203.97056274847714" y2="170.02943725152286" />
    <line x1="316.86575616493985" y1="80.421928260507556" x2="304.497588911136" y2="90.572220807125888" />
    <line x1="339.99040866366829" y1="84.775077124393178" x2="326.68689486682763" y2="93.664200852706813" />
    <line x1="313.38338106998685" y1="102.55332458102045" x2="300.07986727314614" y2="111.44244830933408" />
    <line x1="273.4728396794647" y1="129.22069576596135" x2="260.169325882624" y2="138.109819494275" />
    <line x1="335.16277241052364" y1="107.80534821323236" x2="321.05203218094994" y2="115.34769600244833" />
    <line x1="327.4296889417156" y1="128.83211828050634" x2="283.08347138117381" y2="147.20092303403067" />
    <line x1="253.51932634081265" y1="159.44679286971353" x2="223.95518130045147" y2="171.6926627053964" />
    <line x1="289.001669161936" y1="166.71060651032266" x2="257.61654018903261" y2="172.95349681483876" />
    <line x1="370.11398970768425" y1="168.96484617936082" x2="354.19103408092906" y2="170.53312042463378" />
    <line x1="323" y1="187" x2="307" y2="187" />
    <line x1="275" y1="187" x2="259" y2="187" />
    <line x1="370.11398970768425" y1="205.03515382063915" x2="322.34512282741878" y2="200.33033108482024" />
    <line x1="351.77192710774273" y1="219.77517409870953" x2="320.38679813483935" y2="213.53228379419343" />
    <line x1="289.001669161936" y1="207.28939348967734" x2="257.61654018903261" y2="201.04650318516124" />
    <line x1="342.21176146189617" y1="251.29081663733507" x2="327.4296889417156" y2="245.16788171949364" />
    <line x1="268.30139886099323" y1="220.6761420481279" x2="238.73725382063205" y2="208.43027221244503" />
    <line x1="326.68689486682763" y1="280.33579914729313" x2="313.38338106998691" y2="271.44667541897951" />
    <line x1="300.07986727314619" y1="262.55755169066583" x2="286.77635347630547" y2="253.66842796235224" />
    <line x1="273.47283967946476" y1="244.77930423403859" x2="260.169325882624" y2="235.89018050572497" />
    <line x1="317.10764773832477" y1="317.10764773832477" x2="294.48023074035524" y2="294.48023074035518" />
    <line x1="283.16652224137044" y1="283.16652224137044" x2="260.53910524340097" y2="260.53910524340097" />
    <line x1="293.57807173949243" y1="316.86575616493985" x2="283.42777919287414" y2="304.497588911136" />
    <line x1="280.33579914729319" y1="326.68689486682763" x2="271.44667541897957" y2="313.38338106998691" />
    <line x1="244.77930423403862" y1="273.4728396794647" x2="227.00105677741135" y2="246.86581208578326" />
    <line x1="251.2908166373351" y1="342.21176146189617" x2="245.16788171949366" y2="327.4296889417156" />
    <line x1="214.55320713028647" y1="253.51932634081265" x2="208.43027221244503" y2="238.73725382063205" />
    <line x1="231.12327094267829" y1="332.4549310312957" x2="226.4787161066069" y2="317.14388565958041" />
    <line x1="222.89661925096766" y1="367.46449159419438" x2="219.77517409870961" y2="351.77192710774273" />
    <line x1="213.53228379419349" y1="320.38679813483935" x2="201.04650318516127" y2="257.61654018903261" />
    <line x1="203.46687957536622" y1="354.19103408092906" x2="201.89860533009323" y2="338.26807845417392" />
    <line x1="187.00000000000003" y1="371" x2="187.00000000000003" y2="339" />
    <line x1="187" y1="227" x2="187" y2="211" />
    <line x1="170.53312042463381" y1="354.19103408092906" x2="173.66966891517976" y2="322.34512282741878" />
    <line x1="154.22482590129044" y1="351.77192710774273" x2="157.34627105354849" y2="336.079362621291" />
    <line x1="166.71060651032266" y1="289.001669161936" x2="172.95349681483876" y2="257.61654018903261" />
    <line x1="133.58761938517898" y1="363.0770217747264" x2="147.52128389339316" y2="317.14388565958041" />
    <line x1="128.83211828050636" y1="327.4296889417156" x2="141.07798811618923" y2="297.86554390135444" />
    <line x1="100.26300042401644" y1="349.27351264009735" x2="107.80534821323239" y2="335.16277241052364" />
    <line x1="111.44244830933414" y1="300.07986727314619" x2="129.22069576596141" y2="273.47283967946476" />
    <line x1="56.892352261675256" y1="317.10764773832477" x2="124.77460325558383" y2="249.2253967444162" />
    <line x1="136.08831175456857" y1="237.91168824543144" x2="147.40202025355336" y2="226.59797974644667" />
    <line x1="44.766076581256442" y1="303.72836428611083" x2="57.134243835060232" y2="293.57807173949254" />
    <line x1="60.616618930013118" y1="271.44667541897957" x2="87.223646523694569" y2="253.66842796235227" />
    <line x1="38.837227589476356" y1="266.19465178676762" x2="52.947967819050064" y2="258.65230399755166" />
    <line x1="31.788238538103855" y1="251.29081663733518" x2="61.352383578465037" y2="239.04494680165229" />
    <line x1="37.920637378708989" y1="216.65372894645157" x2="116.38345981096742" y2="201.04650318516127" />
    <line x1="19.808965919070914" y1="203.46687957536616" x2="35.731921545826054" y2="201.89860533009318" />
    <line x1="67" y1="187.00000000000003" x2="99" y2="187.00000000000003" />
    <line x1="115" y1="187" x2="131" y2="187" />
    <line x1="19.808965919070914" y1="170.53312042463389" x2="51.654877172581223" y2="173.66966891517984" />
    <line x1="22.228072892257273" y1="154.22482590129044" x2="37.920637378708989" y2="157.34627105354849" />
    <line x1="53.613201865160647" y1="160.46771620580654" x2="69.305766351612348" y2="163.58916135806462" />
    <line x1="26.234023596988891" y1="138.23217422125038" x2="56.856114340419595" y2="147.52128389339316" />
    <line x1="17.006166017923249" y1="116.58624844482344" x2="31.788238538103855" y2="122.70918336266487" />
    <line x1="61.352383578465023" y1="134.95505319834777" x2="90.916528618826192" y2="147.20092303403064" />
    <line x1="105.69860113900678" y1="153.32385795187207" x2="120.48067365918736" y2="159.44679286971353" />
    <line x1="73.920132726853822" y1="111.44244830933415" x2="87.223646523694541" y2="120.33157203764777" />
    <line x1="69.502411088864" y1="90.572220807125873" x2="81.870578342667784" y2="100.72251335374421" />
    <line x1="124.7746032555838" y1="124.77460325558383" x2="136.08831175456857" y2="136.08831175456859" />
    <line x1="147.40202025355333" y1="147.40202025355336" x2="158.7157287525381" y2="158.7157287525381" />
    <line x1="129.22069576596138" y1="100.5271603205353" x2="138.109819494275" y2="113.83067411737602" />
    <line x1="100.26300042401638" y1="24.726487359902706" x2="115.34769600244832" y2="52.947967819050064" />
    <line x1="122.70918336266482" y1="31.788238538103855" x2="128.83211828050625" y2="46.57031105828446" />
    <line x1="165.56972778755494" y1="135.26274617936795" x2="171.69266270539637" y2="150.04481869954856" />
    <line x1="142.87672905732171" y1="41.545068968704271" x2="147.5212838933931" y2="56.856114340419595" />
    <line x1="163.58916135806456" y1="69.305766351612363" x2="166.71060651032261" y2="84.998330838064049" />
    <line x1="168.96484617936088" y1="3.886010292315774" x2="170.53312042463384" y2="19.808965919070914" />
    <line x1="172.1013946699068" y1="35.731921545826054" x2="173.66966891517978" y2="51.654877172581223" />
  </g>
  <path fill="none" stroke="#ff0000" stroke-width="2" stroke-linecap="square" stroke-linejoin="round" d="M 196.02845207624492,3.2216360582482935 L 195.63591068162558,11.211999707889646 A 176,176 0 0,0 178.36408931837443,11.211999707889646 L 179.14917210761311,27.192727007172408 A 160,160 0 0,0 133.09762345724479,36.352949570716675 L 138.48786111152032,51.417654613645 A 144,144 0 0,0 80.303037948885887,90.295510502029359 L 68.44781994320654,79.550567224477064 A 160,160 0 0,0 36.352949570716646,133.09762345724488 L 21.288244527788322,127.70738580296936 A 176,176 0 0,0 21.288244527788351,246.2926141970307 L 36.352949570716675,240.90237654275518 A 160,160 0 0,1 28.731758405635048,210.47687591285796 L 44.558582565071561,208.12918832157217 A 144,144 0 0,1 43.17345430645517,179.93425489685185 L 59.154181605737932,180.71933768609054 A 128,128 0 0,0 59.616354985958793,199.54619396218374 L 123.3081774929794,193.27309698109187 A 64,64 0 0,0 125.75581851313864,205.5782193442856 L 110.4447731414233,210.222774180357 A 80,80 0 0,0 163.77722581964304,263.5552268585767 L 149.84356131142886,309.48836297372276 A 128,128 0 0,0 205.78150073028633,313.614593275492 L 208.12918832157209,329.44141743492844 A 144,144 0 0,0 221.98914590607,326.68450046001431 L 218.1014630276178,311.16400040890164 A 128,128 0 0,0 230.12190123420419,307.51764034342665 L 235.51213888847974,322.582345386355 A 144,144 0 0,0 326.68450046001431,221.98914590607 L 342.205000511127,225.87682878452222 A 160,160 0 0,1 337.64705042928335,240.90237654275518 L 352.71175547221168,246.2926141970307 A 176,176 0 0,0 361.09506575380146,212.82456350414364 L 313.614593275492,205.7815007302863 A 128,128 0 0,1 299.88592183658943,247.33878231372771 L 285.77518160701578,239.79643452451174 A 112,112 0 0,1 273.57717077662653,258.05204782632825 L 261.20900352282274,247.90175527970996 A 96,96 0 0,1 247.90175527970996,261.20900352282274 L 258.05204782632831,273.57717077662653 A 112,112 0 0,1 219.51188385249978,294.17731760200741 L 210.222774180357,263.5552268585767 A 80,80 0 0,0 224.71173894607983,257.55370114786842 L 217.16939115686387,243.44296091829472 A 64,64 0 0,0 240.2140551873629,222.55649491325454 L 226.91054139052218,213.66737118494089 A 48,48 0 0,1 139.92230654064494,177.63566454322583 L 124.22974205419325,174.51421939096778 A 64,64 0 0,1 174.51421939096775,124.22974205419325 L 180.75710969548388,155.61487102709663 A 32,32 0 0,0 174.75413016431713,216.56414504036118 L 177.81559762323786,209.17310878027089" />
  <type>Circular</type>
</svg>