<?xml version="1.0" encoding="utf-8" standalone="no"?>
<!DOCTYPE svg PUBLIC "-//W3C//DTD SVG 1.1//EN" "http://www.w3.org/Graphics/SVG/1.1/DTD/svg11.dtd"[]>
<svg width="372" height="372" version="1.1" xmlns="http://www.w3.org/2000/svg">
  <title>23 cells diameter theta maze</title>
  <g fill="none" stroke="#000000" stroke-width="2" stroke-linecap="square">
    <path d="M 170.02943725152286,203.97056274847714 A 24,24 0 1,1 187,211" />
    <path d="M 147,187 A 40,40 0 0,1 202.3073372946036,150.04481869954853" />
    <path d="M 215.2842712474619,158.7157287525381 A 40,40 0 0,1 223.95518130045147,171.6926627053964" />
    <path d="M 227,187 A 40,40 0 0,1 187,227" />
    <path d="M 171.6926627053964,223.95518130045147 A 40,40 0 0,1 150.04481869954853,202.3073372946036" />
    <path d="M 135.26274617936795,165.56972778755497 A 56,56 0 0,1 226.59797974644667,147.40202025355333" />
    <path d="M 238.73725382063205,165.56972778755497 A 56,56 0 0,1 226.59797974644667,226.59797974644664" />
    <path d="M 187,243 A 56,56 0 0,1 165.569727787555,238.73725382063208" />
    <path d="M 147.40202025355336,226.59797974644667 A 56,56 0 0,1 131,187" />
    <path d="M 115,187 A 72,72 0 0,1 227.00105677741135,127.13418791421674" />
    <path d="M 237.91168824543144,136.08831175456857 A 72,72 0 0,1 246.86581208578326,146.99894322258865" />
    <path d="M 253.51932634081265,159.44679286971353 A 72,72 0 0,1 253.51932634081265,214.55320713028647" />
    <path d="M 246.86581208578326,227.00105677741135 A 72,72 0 0,1 187,259" />
    <path d="M 172.95349681483876,257.61654018903261 A 72,72 0 0,1 127.13418791421674,227.00105677741135" />
    <path d="M 138.109819494275,113.83067411737602 A 88,88 0 0,1 187,99" />
    <path d="M 235.890180505725,113.83067411737602 A 88,88 0 0,1 260.169325882624,138.109819494275" />
    <path d="M 268.30139886099323,153.3238579518721 A 88,88 0 0,1 275,187" />
    <path d="M 249.22539674441617,249.22539674441617 A 88,88 0 0,1 235.89018050572497,260.169325882624" />
    <path d="M 220.6761420481279,268.30139886099323 A 88,88 0 0,1 187,275" />
    <path d="M 153.32385795187213,268.30139886099323 A 88,88 0 0,1 124.77460325558383,249.2253967444162" />
    <path d="M 100.69089532451572,204.16794833741932 A 88,88 0 0,1 99,187.00000000000003" />
    <path d="M 100.69089532451572,169.83205166258071 A 88,88 0 0,1 124.7746032555838,124.77460325558383" />
    <path d="M 207.28939348967734,84.998330838064035 A 104,104 0 0,1 226.79907696596933,90.916528618826177" />
    <path d="M 244.77930423403862,100.52716032053529 A 104,104 0 0,1 289.001669161936,166.71060651032266" />
    <path d="M 291,187 A 104,104 0 0,1 260.53910524340097,260.53910524340097" />
    <path d="M 147.20092303403067,283.08347138117381 A 104,104 0 0,1 100.52716032053529,244.77930423403862" />
    <path d="M 84.998330838064035,207.28939348967737 A 104,104 0 0,1 84.998330838064035,166.71060651032266" />
    <path d="M 113.46089475659905,113.46089475659908 A 104,104 0 0,1 166.71060651032261,84.998330838064049" />
    <path d="M 187,67 A 120,120 0 0,1 210.41083864193539,69.305766351612348" />
    <path d="M 232.92201188381077,76.134456098645586 A 120,120 0 0,1 271.85281374238571,102.14718625761429" />
    <path d="M 297.86554390135439,141.07798811618923 A 120,120 0 0,1 297.86554390135439,232.92201188381077" />
    <path d="M 271.85281374238571,271.85281374238571 A 120,120 0 0,1 232.9220118838108,297.86554390135439" />
    <path d="M 210.41083864193544,304.69423364838764 A 120,120 0 0,1 187.00000000000003,307" />
    <path d="M 163.58916135806459,304.69423364838764 A 120,120 0 0,1 141.07798811618926,297.86554390135439" />
    <path d="M 120.33157203764777,286.77635347630547 A 120,120 0 0,1 102.14718625761431,271.85281374238571" />
    <path d="M 87.223646523694569,253.66842796235227 A 120,120 0 0,1 76.134456098645614,232.92201188381085" />
    <path d="M 67,187.00000000000003 A 120,120 0 0,1 69.305766351612348,163.58916135806462" />
    <path d="M 76.1344560986456,141.0779881161892 A 120,120 0 0,1 163.58916135806456,69.305766351612363" />
    <path d="M 160.46771620580648,53.613201865160676 A 136,136 0 0,1 187,51" />
    <path d="M 200.33033108482024,51.654877172581223 A 136,136 0 0,1 213.53228379419343,53.613201865160647" />
    <path d="M 226.4787161066069,56.856114340419595 A 136,136 0 0,1 239.0449468016522,61.352383578464995" />
    <path d="M 251.10995620833569,67.058708048623714 A 136,136 0 0,1 262.55755169066589,73.920132726853851" />
    <path d="M 273.2774866462558,81.87057834266777 A 136,136 0 0,1 283.16652224137044,90.833477758629527" />
    <path d="M 292.12942165733222,100.72251335374421 A 136,136 0 0,1 322.34512282741878,173.66966891517973" />
    <path d="M 323,187 A 136,136 0 0,1 322.34512282741878,200.33033108482024" />
    <path d="M 320.38679813483935,213.53228379419343 A 136,136 0 0,1 292.12942165733227,273.27748664625574" />
    <path d="M 273.2774866462558,292.12942165733222 A 136,136 0 0,1 251.10995620833569,306.94129195137629" />
    <path d="M 239.04494680165223,312.64761642153496 A 136,136 0 0,1 213.53228379419349,320.3867981348393" />
    <path d="M 200.33033108482027,322.34512282741878 A 136,136 0 0,1 173.66966891517976,322.34512282741878" />
    <path d="M 160.46771620580654,320.38679813483935 A 136,136 0 0,1 111.44244830933414,300.07986727314619" />
    <path d="M 100.72251335374423,292.12942165733227 A 136,136 0 0,1 81.870578342667812,273.27748664625585" />
    <path d="M 67.058708048623728,251.10995620833572 A 136,136 0 0,1 56.856114340419595,226.4787161066069" />
    <path d="M 53.613201865160676,213.53228379419349 A 136,136 0 0,1 51.654877172581223,200.33033108482022" />
    <path d="M 51,187.00000000000003 A 136,136 0 0,1 51.654877172581223,173.66966891517984" />
    <path d="M 56.856114340419595,147.52128389339316 A 136,136 0 0,1 61.352383578465009,134.95505319834777" />
    <path d="M 67.058708048623714,122.89004379166433 A 136,136 0 0,1 81.870578342667784,100.72251335374421" />
    <path d="M 90.833477758629513,90.833477758629556 A 136,136 0 0,1 100.72251335374415,81.870578342667827" />
    <path d="M 111.4424483093341,73.920132726853851 A 136,136 0 0,1 147.5212838933931,56.856114340419595" />
    <path d="M 157.34627105354844,37.920637378708989 A 152,152 0 0,1 201.8986053300932,35.731921545826083" />
    <path d="M 216.65372894645151,37.92063737870896 A 152,152 0 0,1 258.65230399755166,52.947967819050035" />
    <path d="M 271.44667541897957,60.616618930013118 A 152,152 0 0,1 283.42777919287414,69.50241108886398" />
    <path d="M 294.48023074035524,79.519769259644775 A 152,152 0 0,1 313.38338106998685,102.55332458102046" />
    <path d="M 321.05203218094994,115.34769600244833 A 152,152 0 0,1 332.45493103129576,142.87672905732174" />
    <path d="M 338.26807845417392,172.10139466990677 A 152,152 0 0,1 339,187" />
    <path d="M 338.26807845417392,201.89860533009323 A 152,152 0 0,1 336.079362621291,216.65372894645148" />
    <path d="M 332.45493103129576,231.12327094267826 A 152,152 0 0,1 327.4296889417156,245.16788171949364" />
    <path d="M 321.05203218094994,258.65230399755166 A 152,152 0 0,1 313.38338106998691,271.44667541897951" />
    <path d="M 304.49758891113606,283.42777919287408 A 152,152 0 0,1 294.48023074035524,294.48023074035518" />
    <path d="M 283.42777919287414,304.497588911136 A 152,152 0 0,1 271.44667541897951,313.38338106998685" />
    <path d="M 258.65230399755166,321.05203218094994 A 152,152 0 0,1 245.16788171949366,327.42968894171554" />
    <path d="M 201.89860533009323,338.26807845417392 A 152,152 0 0,1 142.87672905732177,332.45493103129576" />
    <path d="M 128.83211828050636,327.4296889417156 A 152,152 0 0,1 115.34769600244836,321.05203218094994" />
    <path d="M 79.519769259644789,294.48023074035524 A 152,152 0 0,1 60.616618930013118,271.44667541897951" />
    <path d="M 52.947967819050064,258.65230399755171 A 152,152 0 0,1 46.57031105828446,245.16788171949372" />
    <path d="M 41.545068968704243,231.12327094267829 A 152,152 0 0,1 35,187.00000000000003" />
    <path d="M 35.731921545826054,172.10139466990688 A 152,152 0 0,1 41.545068968704243,142.87672905732177" />
    <path d="M 46.570311058284432,128.83211828050634 A 152,152 0 0,1 52.947967819050035,115.34769600244837" />
    <path d="M 69.502411088864,90.572220807125873 A 152,152 0 0,1 79.519769259644747,79.5197692596448" />
    <path d="M 90.572220807125817,69.502411088864037 A 152,152 0 0,1 115.34769600244832,52.947967819050064" />
    <path d="M 187,19 A 168,168 0 0,1 293.57807173949243,57.134243835060175" />
    <path d="M 326.68689486682763,93.664200852706827 A 168,168 0 0,1 342.21176146189617,122.70918336266492" />
    <path d="M 347.76597640301111,138.23217422125032 A 168,168 0 0,1 351.77192710774273,154.22482590129044" />
    <path d="M 355,187 A 168,168 0 0,1 354.19103408092906,203.46687957536619" />
    <path d="M 351.77192710774273,219.77517409870953 A 168,168 0 0,1 347.76597640301111,235.76782577874965" />
    <path d="M 342.21176146189617,251.29081663733507 A 168,168 0 0,1 335.16277241052364,266.19465178676762" />
    <path d="M 316.86575616493985,293.57807173949243 A 168,168 0 0,1 305.79393923934,305.79393923934" />
    <path d="M 293.57807173949243,316.86575616493985 A 168,168 0 0,1 219.77517409870961,351.77192710774273" />
    <path d="M 187.00000000000003,355 A 168,168 0 0,1 154.22482590129044,351.77192710774273" />
    <path d="M 138.23217422125038,347.76597640301111 A 168,168 0 0,1 122.70918336266495,342.21176146189617" />
    <path d="M 93.664200852706884,326.68689486682763 A 168,168 0 0,1 38.837227589476385,266.19465178676762" />
    <path d="M 19.808965919070914,203.46687957536616 A 168,168 0 0,1 19,187.00000000000003" />
    <path d="M 19.808965919070914,170.53312042463392 A 168,168 0 0,1 26.234023596988891,138.23217422125038" />
    <path d="M 38.837227589476356,107.80534821323241 A 168,168 0 0,1 68.20606076066,68.206060760660037" />
    <path d="M 93.664200852706827,47.3131051331724 A 168,168 0 0,1 170.53312042463384,19.808965919070914" />
    <path d="M 205.03515382063915,3.886010292315774 A 184,184 0 1,1 187,3" />
  </g>
  <g fill="none" stroke="#000000" stroke-width="2" stroke-linecap="butt">
    <line x1="187" y1="19" x2="187" y2="35" />
    <line x1="187" y1="83" x2="187" y2="115" />
    <line x1="187" y1="147" x2="187" y2="163" />
    <line x1="201.8986053300932" y1="35.731921545826054" x2="200.33033108482024" y2="51.654877172581223" />
    <line x1="213.53228379419343" y1="53.613201865160647" x2="207.28939348967734" y2="84.998330838064035" />
    <line x1="204.16794833741929" y1="100.69089532451572" x2="201.04650318516124" y2="116.38345981096741" />
    <line x1="235.76782577874968" y1="26.234023596988919" x2="226.47871610660687" y2="56.856114340419595" />
    <line x1="220.6761420481279" y1="105.69860113900677" x2="214.55320713028647" y2="120.48067365918736" />
    <line x1="271.44667541897957" y1="60.616618930013118" x2="244.77930423403862" y2="100.5271603205353" />
    <line x1="235.890180505725" y1="113.83067411737602" x2="227.00105677741135" y2="127.13418791421674" />
    <line x1="293.57807173949243" y1="57.134243835060175" x2="283.42777919287414" y2="69.50241108886398" />
    <line x1="305.79393923934" y1="68.206060760660009" x2="283.16652224137044" y2="90.833477758629527" />
    <line x1="237.91168824543144" y1="136.08831175456857" x2="215.2842712474619" y2="158.7157287525381" />
    <line x1="329.23392341874364" y1="70.271635713889225" x2="304.497588911136" y2="90.572220807125888" />
    <line x1="300.07986727314614" y1="111.44244830933408" x2="286.77635347630542" y2="120.33157203764773" />
    <line x1="273.4728396794647" y1="129.22069576596135" x2="260.169325882624" y2="138.109819494275" />
    <line x1="349.27351264009729" y1="100.2630004240164" x2="335.16277241052364" y2="107.80534821323236" />
    <line x1="327.4296889417156" y1="128.83211828050634" x2="312.64761642153496" y2="134.9550531983478" />
    <line x1="268.30139886099323" y1="153.3238579518721" x2="253.51932634081265" y2="159.44679286971353" />
    <line x1="238.73725382063205" y1="165.56972778755497" x2="223.95518130045147" y2="171.6926627053964" />
    <line x1="363.0770217747264" y1="133.58761938517893" x2="347.76597640301111" y2="138.23217422125032" />
    <line x1="351.77192710774273" y1="154.22482590129044" x2="336.079362621291" y2="157.34627105354849" />
    <line x1="320.38679813483935" y1="160.46771620580654" x2="289.001669161936" y2="166.71060651032266" />
    <line x1="370.11398970768425" y1="168.96484617936082" x2="338.26807845417392" y2="172.10139466990677" />
    <line x1="355" y1="187" x2="323" y2="187" />
    <line x1="291" y1="187" x2="275" y2="187" />
    <line x1="354.19103408092906" y1="203.46687957536619" x2="338.268078454174" y2="201.89860533009323" />
    <line x1="320.38679813483935" y1="213.53228379419343" x2="304.69423364838764" y2="210.41083864193539" />
    <line x1="289.001669161936" y1="207.28939348967734" x2="273.30910467548426" y2="204.16794833741929" />
    <line x1="347.76597640301111" y1="235.76782577874965" x2="332.45493103129576" y2="231.12327094267823" />
    <line x1="327.4296889417156" y1="245.16788171949364" x2="312.64761642153496" y2="239.0449468016522" />
    <line x1="268.30139886099323" y1="220.6761420481279" x2="238.73725382063205" y2="208.43027221244503" />
    <line x1="349.27351264009735" y1="273.73699957598359" x2="321.05203218094994" y2="258.65230399755166" />
    <line x1="339.9904086636684" y1="289.22492287560675" x2="326.68689486682763" y2="280.33579914729313" />
    <line x1="300.07986727314619" y1="262.55755169066583" x2="286.77635347630547" y2="253.66842796235224" />
    <line x1="273.47283967946476" y1="244.77930423403859" x2="260.169325882624" y2="235.89018050572497" />
    <line x1="304.49758891113606" y1="283.42777919287408" x2="292.12942165733227" y2="273.27748664625574" />
    <line x1="317.10764773832477" y1="317.10764773832477" x2="305.79393923934" y2="305.79393923934" />
    <line x1="294.48023074035524" y1="294.48023074035518" x2="283.16652224137044" y2="283.16652224137044" />
    <line x1="271.85281374238571" y1="271.85281374238571" x2="249.22539674441617" y2="249.22539674441617" />
    <line x1="237.91168824543144" y1="237.91168824543144" x2="226.59797974644667" y2="226.59797974644664" />
    <line x1="283.42777919287414" y1="304.497588911136" x2="273.2774866462558" y2="292.12942165733222" />
    <line x1="280.33579914729319" y1="326.68689486682763" x2="271.44667541897957" y2="313.38338106998691" />
    <line x1="262.55755169066589" y1="300.07986727314619" x2="253.66842796235227" y2="286.77635347630542" />
    <line x1="244.77930423403862" y1="273.4728396794647" x2="235.890180505725" y2="260.169325882624" />
    <line x1="258.65230399755166" y1="321.05203218094994" x2="251.10995620833569" y2="306.94129195137629" />
    <line x1="257.41375155517653" y1="356.99383398207675" x2="251.2908166373351" y2="342.21176146189617" />
    <line x1="245.16788171949366" y1="327.4296889417156" x2="239.04494680165223" y2="312.64761642153496" />
    <line x1="232.9220118838108" y1="297.86554390135439" x2="226.79907696596933" y2="283.08347138117381" />
    <line x1="220.6761420481279" y1="268.30139886099323" x2="214.55320713028647" y2="253.51932634081265" />
    <line x1="208.43027221244503" y1="238.73725382063205" x2="202.3073372946036" y2="223.95518130045147" />
    <line x1="231.12327094267829" y1="332.4549310312957" x2="226.4787161066069" y2="317.14388565958041" />
    <line x1="219.77517409870961" y1="351.77192710774273" x2="216.65372894645154" y2="336.079362621291" />
    <line x1="210.41083864193544" y1="304.69423364838764" x2="204.16794833741932" y2="273.30910467548426" />
    <line x1="205.03515382063918" y1="370.11398970768425" x2="203.46687957536622" y2="354.19103408092906" />
    <line x1="187.00000000000003" y1="323" x2="187.00000000000003" y2="307" />
    <line x1="187" y1="291" x2="187" y2="275" />
    <line x1="187" y1="259" x2="187" y2="243" />
    <line x1="187" y1="227" x2="187" y2="211" />
    <line x1="170.53312042463381" y1="354.19103408092906" x2="172.1013946699068" y2="338.268078454174" />
    <line x1="157.34627105354849" y1="336.079362621291" x2="172.95349681483876" y2="257.61654018903261" />
    <line x1="138.23217422125038" y1="347.76597640301111" x2="142.87672905732177" y2="332.45493103129576" />
    <line x1="128.83211828050636" y1="327.4296889417156" x2="134.9550531983478" y2="312.647616421535" />
    <line x1="165.56972778755497" y1="238.73725382063208" x2="171.6926627053964" y2="223.95518130045147" />
    <line x1="107.80534821323239" y1="335.16277241052364" x2="115.34769600244836" y2="321.05203218094994" />
    <line x1="93.66420085270687" y1="326.68689486682763" x2="120.33157203764776" y2="286.77635347630547" />
    <line x1="90.572220807125916" y1="304.49758891113606" x2="100.72251335374425" y2="292.12942165733227" />
    <line x1="90.833477758629542" y1="283.1665222413705" x2="102.14718625761431" y2="271.85281374238571" />
    <line x1="113.46089475659906" y1="260.53910524340097" x2="124.77460325558383" y2="249.2253967444162" />
    <line x1="158.7157287525381" y1="215.2842712474619" x2="170.02943725152286" y2="203.97056274847714" />
    <line x1="57.134243835060232" y1="293.57807173949254" x2="69.502411088864022" y2="283.4277791928742" />
    <line x1="60.616618930013118" y1="271.44667541897957" x2="100.5271603205353" y2="244.77930423403862" />
    <line x1="113.83067411737602" y1="235.890180505725" x2="127.13418791421674" y2="227.00105677741135" />
    <line x1="24.726487359902706" y1="273.73699957598359" x2="52.947967819050064" y2="258.65230399755166" />
    <line x1="31.788238538103855" y1="251.29081663733518" x2="61.352383578465037" y2="239.04494680165229" />
    <line x1="90.9165286188262" y1="226.79907696596939" x2="135.26274617936795" y2="208.43027221244506" />
    <line x1="10.922978225273567" y1="240.41238061482108" x2="41.545068968704271" y2="231.12327094267829" />
    <line x1="6.535508405805615" y1="222.89661925096766" x2="22.228072892257302" y2="219.77517409870961" />
    <line x1="37.920637378708989" y1="216.65372894645157" x2="84.998330838064049" y2="207.28939348967737" />
    <line x1="100.69089532451574" y1="204.16794833741932" x2="116.38345981096742" y2="201.04650318516127" />
    <line x1="3" y1="187.00000000000003" x2="19" y2="187.00000000000003" />
    <line x1="35" y1="187.00000000000003" x2="51" y2="187.00000000000003" />
    <line x1="67" y1="187.00000000000003" x2="99" y2="187.00000000000003" />
    <line x1="115" y1="187" x2="147" y2="187" />
    <line x1="6.535508405805615" y1="151.1033807490324" x2="22.228072892257273" y2="154.22482590129044" />
    <line x1="53.613201865160647" y1="160.46771620580654" x2="69.305766351612348" y2="163.58916135806462" />
    <line x1="41.545068968704243" y1="142.87672905732177" x2="56.856114340419595" y2="147.52128389339316" />
    <line x1="17.006166017923249" y1="116.58624844482344" x2="31.788238538103855" y2="122.70918336266487" />
    <line x1="61.352383578465023" y1="134.95505319834777" x2="76.1344560986456" y2="141.0779881161892" />
    <line x1="90.916528618826192" y1="147.20092303403064" x2="105.69860113900678" y2="153.32385795187207" />
    <line x1="52.947967819050035" y1="115.34769600244837" x2="67.058708048623714" y2="122.89004379166433" />
    <line x1="47.313105133172371" y1="93.664200852706884" x2="73.920132726853822" y2="111.44244830933415" />
    <line x1="87.223646523694541" y1="120.33157203764777" x2="100.52716032053527" y2="129.22069576596141" />
    <line x1="68.20606076066" y1="68.206060760660051" x2="102.14718625761428" y2="102.14718625761432" />
    <line x1="113.46089475659905" y1="113.46089475659908" x2="124.7746032555838" y2="124.77460325558383" />
    <line x1="80.421928260507485" y1="57.134243835060232" x2="90.572220807125817" y2="69.502411088864022" />
    <line x1="93.664200852706841" y1="47.3131051331724" x2="102.55332458102046" y2="60.616618930013118" />
    <line x1="122.70918336266482" y1="31.788238538103855" x2="128.83211828050625" y2="46.57031105828446" />
    <line x1="138.23217422125032" y1="26.234023596988919" x2="147.5212838933931" y2="56.856114340419595" />
    <line x1="157.34627105354844" y1="37.920637378708989" x2="163.58916135806456" y2="69.305766351612363" />
    <line x1="166.71060651032261" y1="84.998330838064049" x2="169.83205166258068" y2="100.69089532451574" />
    <line x1="168.96484617936088" y1="3.886010292315774" x2="170.53312042463384" y2="19.808965919070914" />
  </g>
  <path fill="none" stroke="#ff0000" stroke-width="2" stroke-linecap="square" stroke-linejoin="round" d="M 196.02845207624492,3.2216360582482935 L 195.63591068162558,11.211999707889646 A 176,176 0 0,1 305.19437605307525,56.592601937527178 L 283.70448949797066,80.303037948885887 A 144,144 0 0,0 272.78069984691041,71.33811546678713 L 263.24951097503146,84.189435970477447 A 128,128 0 0,1 281.84174404543478,101.04045377958165 L 293.6969620511141,90.295510502029359 A 144,144 0 0,1 310.51291984003916,112.96920483617608 L 324.23657760004357,104.74356092908452 A 160,160 0 0,1 342.205000511127,148.12317121547775 L 326.68450046001431,152.01085409393 A 144,144 0 0,1 330.82654569354486,179.9342548968518 L 314.8458183942621,180.71933768609048 A 128,128 0 0,1 313.614593275492,205.7815007302863 L 329.44141743492844,208.12918832157209 A 144,144 0 0,1 326.68450046001431,221.98914590607 L 342.205000511127,225.87682878452222 A 160,160 0 0,0 345.26824159436495,210.47687591285785 L 361.09506575380146,212.82456350414364 A 176,176 0 0,1 352.71175547221168,246.2926141970307 L 337.64705042928335,240.90237654275518 A 160,160 0 0,1 331.63828689975094,255.40881494884511 L 317.17445820977582,248.56793345396059 A 144,144 0 0,1 302.66188453321286,272.78069984691041 L 315.51320503690317,282.31188871878931 A 160,160 0 0,1 294.44943277552295,305.55218005679342 L 272.95954622041836,281.84174404543472 A 128,128 0 0,0 285.94533803043032,268.20234037294659 L 273.57717077662653,258.05204782632825 A 112,112 0 0,0 298.46068938728604,176.0220802830892 L 282.5377337605309,177.59035452836216 A 96,96 0 0,0 271.66444137744207,141.7459132647042 L 257.55370114786842,149.28826105392017 A 80,80 0 0,0 237.75146273309164,125.15916373098105 L 227.60117018647333,137.52733098478484 A 64,64 0 0,0 124.22974205419325,174.51421939096778 L 139.92230654064494,177.63566454322583 A 48,48 0 0,1 213.66737118494092,147.08945860947785 L 204.77824745662727,160.39297240631856 A 32,32 0 0,1 218.38512897290337,180.75710969548391 L 234.07769345935506,177.63566454322583 A 48,48 0 0,1 213.66737118494089,226.91054139052218 L 222.55649491325454,240.2140551873629 A 64,64 0 0,1 199.48578060903222,249.77025794580675 L 196.36433545677417,234.07769345935506 A 48,48 0 0,1 177.63566454322583,234.07769345935506 L 180.75710969548391,218.38512897290337 A 32,32 0 0,1 174.75413016431713,216.56414504036118 L 177.81559762323786,209.17310878027089" />
  <type>Circular</type>
</svg>