<?xml version="1.0" encoding="utf-8" standalone="no"?>
<!DOCTYPE svg PUBLIC "-//W3C//DTD SVG 1.1//EN" "http://www.w3.org/Graphics/SVG/1.1/DTD/svg11.dtd"[]>
<svg width="372" height="372" version="1.1" xmlns="http://www.w3.org/2000/svg">
  <title>23 cells diameter theta maze</title>
  <g fill="none" stroke="#000000" stroke-width="2" stroke-linecap="square">
    <path d="M 170.02943725152286,203.97056274847714 A 24,24 0 1,1 187,211" />
    <path d="M 171.69266270539637,150.04481869954856 A 40,40 0 0,1 202.3073372946036,150.04481869954853" />
    <path d="M 215.2842712474619,158.7157287525381 A 40,40 0 0,1 223.95518130045147,171.6926627053964" />
    <path d="M 227,187 A 40,40 0 0,1 215.2842712474619,215.2842712474619" />
    <path d="M 202.3073372946036,223.95518130045147 A 40,40 0 0,1 158.7157287525381,158.7157287525381" />
    <path d="M 165.56972778755494,135.26274617936795 A 56,56 0 0,1 208.43027221244503,135.26274617936795" />
    <path d="M 238.73725382063205,165.56972778755497 A 56,56 0 0,1 208.43027221244503,238.73725382063205" />
    <path d="M 165.569727787555,238.73725382063208 A 56,56 0 0,1 135.26274617936795,208.43027221244506" />
    <path d="M 135.26274617936795,165.56972778755497 A 56,56 0 0,1 147.40202025355333,147.40202025355336" />
    <path d="M 172.95349681483873,116.38345981096741 A 72,72 0 0,1 187,115" />
    <path d="M 201.04650318516124,116.38345981096741 A 72,72 0 0,1 227.00105677741135,127.13418791421674" />
    <path d="M 237.91168824543144,136.08831175456857 A 72,72 0 0,1 259,187" />
    <path d="M 253.51932634081265,214.55320713028647 A 72,72 0 0,1 246.86581208578326,227.00105677741135" />
    <path d="M 237.91168824543144,237.91168824543141 A 72,72 0 0,1 136.08831175456859,237.91168824543144" />
    <path d="M 127.13418791421674,227.00105677741135 A 72,72 0 0,1 116.38345981096741,201.04650318516127" />
    <path d="M 115,187 A 72,72 0 0,1 120.48067365918736,159.44679286971353" />
    <path d="M 136.08831175456857,136.08831175456859 A 72,72 0 0,1 159.44679286971348,120.48067365918737" />
    <path d="M 187,99 A 88,88 0 0,1 204.16794833741929,100.69089532451572" />
    <path d="M 235.890180505725,113.83067411737602 A 88,88 0 0,1 249.22539674441617,124.77460325558381" />
    <path d="M 275,187 A 88,88 0 0,1 260.169325882624,235.89018050572497" />
    <path d="M 249.22539674441617,249.22539674441617 A 88,88 0 0,1 235.89018050572497,260.169325882624" />
    <path d="M 220.6761420481279,268.30139886099323 A 88,88 0 0,1 204.16794833741932,273.30910467548426" />
    <path d="M 187,275 A 88,88 0 0,1 169.83205166258071,273.30910467548426" />
    <path d="M 153.32385795187213,268.30139886099323 A 88,88 0 0,1 113.83067411737602,235.890180505725" />
    <path d="M 105.69860113900678,220.67614204812796 A 88,88 0 0,1 100.69089532451572,169.83205166258071" />
    <path d="M 105.69860113900677,153.32385795187207 A 88,88 0 0,1 113.83067411737599,138.10981949427503" />
    <path d="M 166.71060651032261,84.998330838064049 A 104,104 0 0,1 226.79907696596933,90.916528618826177" />
    <path d="M 283.08347138117381,147.20092303403067 A 104,104 0 0,1 244.77930423403862,273.4728396794647" />
    <path d="M 207.28939348967737,289.001669161936 A 104,104 0 0,1 187,291" />
    <path d="M 166.71060651032266,289.001669161936 A 104,104 0 0,1 147.20092303403067,283.08347138117381" />
    <path d="M 100.52716032053529,244.77930423403862 A 104,104 0 0,1 84.998330838064035,207.28939348967737" />
    <path d="M 83,187.00000000000003 A 104,104 0 0,1 100.52716032053527,129.22069576596141" />
    <path d="M 113.46089475659905,113.46089475659908 A 104,104 0 0,1 129.22069576596135,100.5271603205353" />
    <path d="M 141.07798811618915,76.134456098645614 A 120,120 0 0,1 210.41083864193539,69.305766351612348" />
    <path d="M 253.66842796235227,87.223646523694569 A 120,120 0 0,1 271.85281374238571,102.14718625761429" />
    <path d="M 286.77635347630542,120.33157203764773 A 120,120 0 0,1 304.69423364838764,163.58916135806459" />
    <path d="M 307,187 A 120,120 0 0,1 286.77635347630542,253.66842796235224" />
    <path d="M 271.85281374238571,271.85281374238571 A 120,120 0 0,1 210.41083864193544,304.69423364838764" />
    <path d="M 187.00000000000003,307 A 120,120 0 0,1 163.58916135806459,304.69423364838764" />
    <path d="M 141.07798811618926,297.86554390135439 A 120,120 0 0,1 120.33157203764777,286.77635347630547" />
    <path d="M 102.14718625761431,271.85281374238571 A 120,120 0 0,1 87.223646523694569,253.66842796235227" />
    <path d="M 69.305766351612348,210.41083864193544 A 120,120 0 0,1 87.223646523694541,120.33157203764777" />
    <path d="M 102.14718625761428,102.14718625761432 A 120,120 0 0,1 120.33157203764773,87.223646523694569" />
    <path d="M 200.33033108482024,51.654877172581223 A 136,136 0 0,1 273.2774866462558,81.87057834266777" />
    <path d="M 283.16652224137044,90.833477758629527 A 136,136 0 0,1 300.07986727314614,111.4424483093341" />
    <path d="M 306.94129195137629,122.8900437916643 A 136,136 0 0,1 317.14388565958041,147.52128389339313" />
    <path d="M 320.38679813483935,160.46771620580654 A 136,136 0 0,1 322.34512282741878,173.66966891517973" />
    <path d="M 323,187 A 136,136 0 0,1 322.34512282741878,200.33033108482024" />
    <path d="M 320.38679813483935,213.53228379419343 A 136,136 0 0,1 306.94129195137629,251.10995620833569" />
    <path d="M 300.07986727314619,262.55755169066589 A 136,136 0 0,1 239.04494680165223,312.64761642153496" />
    <path d="M 226.4787161066069,317.14388565958041 A 136,136 0 0,1 173.66966891517976,322.34512282741878" />
    <path d="M 160.46771620580654,320.38679813483935 A 136,136 0 0,1 111.44244830933414,300.07986727314619" />
    <path d="M 100.72251335374423,292.12942165733227 A 136,136 0 0,1 90.833477758629556,283.16652224137044" />
    <path d="M 73.920132726853836,262.55755169066589 A 136,136 0 0,1 67.058708048623728,251.10995620833572" />
    <path d="M 61.352383578465037,239.04494680165229 A 136,136 0 0,1 56.856114340419595,226.4787161066069" />
    <path d="M 53.613201865160676,213.53228379419349 A 136,136 0 0,1 51.654877172581223,200.33033108482022" />
    <path d="M 51,187.00000000000003 A 136,136 0 0,1 61.352383578465009,134.95505319834777" />
    <path d="M 67.058708048623714,122.89004379166433 A 136,136 0 0,1 73.920132726853822,111.44244830933414" />
    <path d="M 81.870578342667784,100.72251335374421 A 136,136 0 0,1 90.833477758629513,90.833477758629556" />
    <path d="M 100.72251335374415,81.870578342667827 A 136,136 0 0,1 134.95505319834771,61.352383578465037" />
    <path d="M 147.5212838933931,56.856114340419595 A 136,136 0 0,1 173.66966891517978,51.654877172581223" />
    <path d="M 216.65372894645151,37.92063737870896 A 152,152 0 0,1 231.12327094267829,41.545068968704243" />
    <path d="M 245.16788171949364,46.5703110582844 A 152,152 0 0,1 271.44667541897957,60.616618930013118" />
    <path d="M 313.38338106998685,102.55332458102046 A 152,152 0 0,1 321.05203218094994,115.34769600244833" />
    <path d="M 332.45493103129576,142.87672905732174 A 152,152 0 0,1 336.079362621291,157.34627105354849" />
    <path d="M 338.26807845417392,172.10139466990677 A 152,152 0 0,1 321.05203218094994,258.65230399755166" />
    <path d="M 313.38338106998691,271.44667541897951 A 152,152 0 0,1 304.49758891113606,283.42777919287408" />
    <path d="M 283.42777919287414,304.497588911136 A 152,152 0 0,1 271.44667541897951,313.38338106998685" />
    <path d="M 258.65230399755166,321.05203218094994 A 152,152 0 0,1 201.89860533009323,338.26807845417392" />
    <path d="M 187.00000000000003,339 A 152,152 0 0,1 157.34627105354849,336.079362621291" />
    <path d="M 142.87672905732177,332.45493103129576 A 152,152 0 0,1 115.34769600244836,321.05203218094994" />
    <path d="M 102.55332458102051,313.38338106998691 A 152,152 0 0,1 90.572220807125916,304.49758891113606" />
    <path d="M 79.519769259644789,294.48023074035524 A 152,152 0 0,1 69.502411088864022,283.42777919287414" />
    <path d="M 60.616618930013118,271.44667541897951 A 152,152 0 0,1 46.57031105828446,245.16788171949372" />
    <path d="M 35,187.00000000000003 A 152,152 0 0,1 35.731921545826054,172.10139466990688" />
    <path d="M 37.92063737870896,157.34627105354849 A 152,152 0 0,1 46.570311058284432,128.83211828050634" />
    <path d="M 52.947967819050035,115.34769600244837 A 152,152 0 0,1 69.502411088864,90.572220807125873" />
    <path d="M 79.519769259644747,79.5197692596448 A 152,152 0 0,1 90.572220807125817,69.502411088864037" />
    <path d="M 115.34769600244832,52.947967819050064 A 152,152 0 0,1 172.1013946699068,35.731921545826083" />
    <path d="M 203.46687957536619,19.808965919070914 A 168,168 0 0,1 235.76782577874968,26.234023596988919" />
    <path d="M 280.33579914729319,47.3131051331724 A 168,168 0 0,1 305.79393923934,68.206060760660009" />
    <path d="M 316.8657561649398,80.421928260507556 A 168,168 0 0,1 342.21176146189617,122.70918336266492" />
    <path d="M 347.76597640301111,138.23217422125032 A 168,168 0 0,1 354.19103408092906,170.53312042463378" />
    <path d="M 355,187 A 168,168 0 0,1 342.21176146189617,251.29081663733507" />
    <path d="M 335.16277241052364,266.19465178676762 A 168,168 0 0,1 316.86575616493985,293.57807173949243" />
    <path d="M 266.19465178676762,335.16277241052364 A 168,168 0 0,1 251.2908166373351,342.21176146189617" />
    <path d="M 235.76782577874968,347.76597640301111 A 168,168 0 0,1 219.77517409870961,351.77192710774273" />
    <path d="M 203.46687957536622,354.19103408092906 A 168,168 0 0,1 138.23217422125038,347.76597640301111" />
    <path d="M 122.70918336266495,342.21176146189617 A 168,168 0 0,1 93.664200852706884,326.68689486682763" />
    <path d="M 57.134243835060232,293.57807173949249 A 168,168 0 0,1 38.837227589476385,266.19465178676762" />
    <path d="M 26.234023596988919,235.76782577874968 A 168,168 0 0,1 19.808965919070914,203.46687957536616" />
    <path d="M 22.228072892257273,154.22482590129044 A 168,168 0 0,1 57.134243835060204,80.421928260507542" />
    <path d="M 68.20606076066,68.206060760660037 A 168,168 0 0,1 107.80534821323235,38.837227589476385" />
    <path d="M 154.22482590129039,22.228072892257302 A 168,168 0 0,1 170.53312042463384,19.808965919070914" />
    <path d="M 205.03515382063915,3.886010292315774 A 184,184 0 1,1 187,3" />
  </g>
  <g fill="none" stroke="#000000" stroke-width="2" stroke-linecap="butt">
    <line x1="187" y1="3" x2="187" y2="67" />
    <line x1="187" y1="83" x2="187" y2="99" />
    <line x1="187" y1="115" x2="187" y2="131" />
    <line x1="187" y1="147" x2="187" y2="163" />
    <line x1="203.46687957536619" y1="19.808965919070914" x2="200.33033108482024" y2="51.654877172581223" />
    <line x1="235.76782577874968" y1="26.234023596988919" x2="231.12327094267829" y2="41.545068968704271" />
    <line x1="257.41375155517653" y1="17.006166017923249" x2="245.16788171949366" y2="46.5703110582844" />
    <line x1="239.0449468016522" y1="61.352383578465009" x2="226.79907696596933" y2="90.916528618826177" />
    <line x1="220.6761420481279" y1="105.69860113900677" x2="208.43027221244503" y2="135.26274617936795" />
    <line x1="266.19465178676762" y1="38.837227589476356" x2="258.65230399755166" y2="52.947967819050035" />
    <line x1="253.66842796235227" y1="87.223646523694569" x2="235.890180505725" y2="113.83067411737602" />
    <line x1="293.57807173949243" y1="57.134243835060175" x2="273.2774866462558" y2="81.87057834266777" />
    <line x1="305.79393923934" y1="68.206060760660009" x2="283.16652224137044" y2="90.833477758629527" />
    <line x1="271.85281374238571" y1="102.14718625761429" x2="260.53910524340097" y2="113.46089475659905" />
    <line x1="249.22539674441617" y1="124.77460325558381" x2="226.59797974644664" y2="147.40202025355333" />
    <line x1="329.23392341874364" y1="70.271635713889225" x2="304.497588911136" y2="90.572220807125888" />
    <line x1="313.38338106998685" y1="102.55332458102045" x2="260.169325882624" y2="138.109819494275" />
    <line x1="342.21176146189617" y1="122.7091833626649" x2="312.64761642153496" y2="134.9550531983478" />
    <line x1="268.30139886099323" y1="153.3238579518721" x2="253.51932634081265" y2="159.44679286971353" />
    <line x1="238.73725382063205" y1="165.56972778755497" x2="223.95518130045147" y2="171.6926627053964" />
    <line x1="332.45493103129576" y1="142.87672905732171" x2="317.14388565958041" y2="147.52128389339313" />
    <line x1="320.38679813483935" y1="160.46771620580654" x2="257.61654018903261" y2="172.95349681483876" />
    <line x1="354.19103408092906" y1="170.53312042463378" x2="322.34512282741878" y2="173.66966891517973" />
    <line x1="371" y1="187" x2="355" y2="187" />
    <line x1="323" y1="187" x2="307" y2="187" />
    <line x1="227" y1="187" x2="211" y2="187" />
    <line x1="273.30910467548426" y1="204.16794833741929" x2="257.61654018903261" y2="201.04650318516124" />
    <line x1="253.51932634081265" y1="214.55320713028647" x2="238.73725382063205" y2="208.43027221244503" />
    <line x1="335.16277241052364" y1="266.19465178676762" x2="306.94129195137629" y2="251.10995620833569" />
    <line x1="300.07986727314619" y1="262.55755169066583" x2="286.77635347630547" y2="253.66842796235224" />
    <line x1="260.169325882624" y1="235.89018050572497" x2="246.86581208578326" y2="227.00105677741135" />
    <line x1="316.86575616493985" y1="293.57807173949243" x2="304.49758891113606" y2="283.42777919287408" />
    <line x1="317.10764773832477" y1="317.10764773832477" x2="283.16652224137044" y2="283.16652224137044" />
    <line x1="271.85281374238571" y1="271.85281374238571" x2="260.53910524340097" y2="260.53910524340097" />
    <line x1="249.22539674441617" y1="249.22539674441617" x2="237.91168824543144" y2="237.91168824543144" />
    <line x1="293.57807173949243" y1="316.86575616493985" x2="283.42777919287414" y2="304.497588911136" />
    <line x1="289.22492287560681" y1="339.99040866366835" x2="280.33579914729319" y2="326.68689486682763" />
    <line x1="271.44667541897957" y1="313.38338106998691" x2="262.55755169066589" y2="300.07986727314619" />
    <line x1="257.41375155517653" y1="356.99383398207675" x2="251.2908166373351" y2="342.21176146189617" />
    <line x1="245.16788171949366" y1="327.4296889417156" x2="239.04494680165223" y2="312.64761642153496" />
    <line x1="232.9220118838108" y1="297.86554390135439" x2="226.79907696596933" y2="283.08347138117381" />
    <line x1="220.6761420481279" y1="268.30139886099323" x2="214.55320713028647" y2="253.51932634081265" />
    <line x1="208.43027221244503" y1="238.73725382063205" x2="202.3073372946036" y2="223.95518130045147" />
    <line x1="222.89661925096766" y1="367.46449159419438" x2="219.77517409870961" y2="351.77192710774273" />
    <line x1="213.53228379419349" y1="320.38679813483935" x2="210.41083864193544" y2="304.69423364838764" />
    <line x1="207.28939348967737" y1="289.001669161936" x2="204.16794833741932" y2="273.30910467548426" />
    <line x1="203.46687957536622" y1="354.19103408092906" x2="201.89860533009323" y2="338.26807845417392" />
    <line x1="187.00000000000003" y1="339" x2="187.00000000000003" y2="323" />
    <line x1="187.00000000000003" y1="307" x2="187" y2="291" />
    <line x1="187" y1="259" x2="187" y2="243" />
    <line x1="187" y1="227" x2="187" y2="211" />
    <line x1="157.34627105354849" y1="336.079362621291" x2="160.46771620580654" y2="320.38679813483935" />
    <line x1="166.71060651032266" y1="289.001669161936" x2="172.95349681483876" y2="257.61654018903261" />
    <line x1="138.23217422125038" y1="347.76597640301111" x2="142.87672905732177" y2="332.45493103129576" />
    <line x1="141.07798811618923" y1="297.86554390135444" x2="147.20092303403067" y2="283.08347138117381" />
    <line x1="165.56972778755497" y1="238.73725382063208" x2="171.6926627053964" y2="223.95518130045147" />
    <line x1="107.80534821323239" y1="335.16277241052364" x2="115.34769600244836" y2="321.05203218094994" />
    <line x1="102.55332458102051" y1="313.38338106998691" x2="129.22069576596141" y2="273.47283967946476" />
    <line x1="80.4219282605076" y1="316.86575616493985" x2="90.572220807125916" y2="304.49758891113606" />
    <line x1="56.892352261675256" y1="317.10764773832477" x2="124.77460325558383" y2="249.2253967444162" />
    <line x1="69.502411088864022" y1="283.4277791928742" x2="81.870578342667812" y2="273.27748664625585" />
    <line x1="60.616618930013118" y1="271.44667541897957" x2="73.920132726853851" y2="262.55755169066589" />
    <line x1="87.223646523694569" y1="253.66842796235227" x2="100.5271603205353" y2="244.77930423403862" />
    <line x1="113.83067411737602" y1="235.890180505725" x2="127.13418791421674" y2="227.00105677741135" />
    <line x1="38.837227589476356" y1="266.19465178676762" x2="52.947967819050064" y2="258.65230399755166" />
    <line x1="17.006166017923277" y1="257.41375155517665" x2="46.57031105828446" y2="245.16788171949372" />
    <line x1="76.134456098645614" y1="232.92201188381085" x2="90.9165286188262" y2="226.79907696596939" />
    <line x1="26.234023596988919" y1="235.76782577874968" x2="56.856114340419595" y2="226.4787161066069" />
    <line x1="22.228072892257302" y1="219.77517409870961" x2="37.920637378708989" y2="216.65372894645157" />
    <line x1="53.613201865160676" y1="213.53228379419349" x2="69.305766351612363" y2="210.41083864193544" />
    <line x1="100.69089532451574" y1="204.16794833741932" x2="116.38345981096742" y2="201.04650318516127" />
    <line x1="19.808965919070914" y1="203.46687957536616" x2="51.654877172581223" y2="200.33033108482022" />
    <line x1="19" y1="187.00000000000003" x2="35" y2="187.00000000000003" />
    <line x1="115" y1="187" x2="147" y2="187" />
    <line x1="3.886010292315774" y1="168.96484617936093" x2="51.654877172581223" y2="173.66966891517984" />
    <line x1="22.228072892257273" y1="154.22482590129044" x2="37.920637378708989" y2="157.34627105354849" />
    <line x1="84.998330838064035" y1="166.71060651032266" x2="100.69089532451572" y2="169.83205166258071" />
    <line x1="76.1344560986456" y1="141.0779881161892" x2="105.69860113900678" y2="153.32385795187207" />
    <line x1="47.313105133172371" y1="93.664200852706884" x2="87.223646523694541" y2="120.33157203764777" />
    <line x1="113.830674117376" y1="138.10981949427503" x2="127.13418791421672" y2="146.99894322258865" />
    <line x1="79.519769259644747" y1="79.5197692596448" x2="102.14718625761428" y2="102.14718625761432" />
    <line x1="113.46089475659905" y1="113.46089475659908" x2="158.7157287525381" y2="158.7157287525381" />
    <line x1="80.421928260507485" y1="57.134243835060232" x2="90.572220807125817" y2="69.502411088864022" />
    <line x1="102.55332458102046" y1="60.616618930013118" x2="111.44244830933411" y2="73.920132726853851" />
    <line x1="120.33157203764773" y1="87.223646523694569" x2="138.109819494275" y2="113.83067411737602" />
    <line x1="107.80534821323235" y1="38.837227589476385" x2="115.34769600244832" y2="52.947967819050064" />
    <line x1="116.58624844482337" y1="17.006166017923277" x2="122.70918336266482" y2="31.788238538103855" />
    <line x1="134.95505319834771" y1="61.352383578465037" x2="159.44679286971348" y2="120.48067365918737" />
    <line x1="165.56972778755494" y1="135.26274617936795" x2="171.69266270539637" y2="150.04481869954856" />
    <line x1="133.5876193851789" y1="10.922978225273567" x2="138.23217422125032" y2="26.234023596988919" />
    <line x1="166.71060651032261" y1="84.998330838064049" x2="172.95349681483873" y2="116.38345981096742" />
    <line x1="170.53312042463384" y1="19.808965919070914" x2="173.66966891517978" y2="51.654877172581223" />
  </g>
  <path fill="none" stroke="#ff0000" stroke-width="2" stroke-linecap="square" stroke-linejoin="round" d="M 196.02845207624492,3.2216360582482935 L 193.28066231390952,59.154181605737932 A 128,128 0 0,1 224.15643868857117,64.51163702627727 L 219.51188385249978,79.822682397992608 A 112,112 0 0,0 154.48811614750019,79.822682397992608 L 168.4217806557144,125.75581851313864 A 64,64 0 0,0 151.44350508674546,133.7859448126371 L 169.22175254337273,160.39297240631856 A 32,32 0 0,0 174.75413016431713,216.56414504036118 L 177.81559762323786,209.17310878027089" />
  <type>Circular</type>
</svg>