<?xml version="1.0" encoding="utf-8" standalone="no"?>
<!DOCTYPE svg PUBLIC "-//W3C//DTD SVG 1.1//EN" "http://www.w3.org/Graphics/SVG/1.1/DTD/svg11.dtd"[]>
<svg width="158" height="234.36275740666068" version="1.1" xmlns="http://www.w3.org/2000/svg">
  <title>7 by 9 sigma maze</title>
  <g fill="none" stroke="#000000" stroke-width="2" stroke-linecap="round" stroke-linejoin="round">
    <polyline points="9,38.373066958946417 2,26.248711305964278 9,14.124355652982137 23,14.124355652982137 30,26.248711305964278" />
    <polyline points="23,14.124355652982137 30,1.9999999999999965 44,1.9999999999999965 51,14.124355652982137 44,26.248711305964278" />
    <polyline points="51,14.124355652982137 65,14.124355652982137 72,26.248711305964278" />
    <line x1="65" y1="14.124355652982137" x2="72" y2="1.9999999999999965" />
    <polyline points="86,1.9999999999999965 93,14.124355652982137 107,14.124355652982137 114,26.248711305964278" />
    <polyline points="107,14.124355652982137 114,1.9999999999999965 128,1.9999999999999965 135,14.124355652982137 149,14.124355652982137 156,26.248711305964278 149,38.373066958946417" />
    <polyline points="9,62.621778264910695 2,50.497422611928556 9,38.373066958946417" />
    <line x1="23" y1="38.373066958946417" x2="30" y2="50.497422611928556" />
    <line x1="44" y1="50.497422611928556" x2="51" y2="38.373066958946417" />
    <line x1="65" y1="38.373066958946417" x2="72" y2="26.248711305964278" />
    <polyline points="86,26.248711305964278 93,38.373066958946417 107,38.373066958946417 114,50.497422611928556" />
    <line x1="107" y1="38.373066958946417" x2="114" y2="26.248711305964278" />
    <polyline points="128,26.248711305964278 135,38.373066958946417 128,50.497422611928556" />
    <polyline points="149,38.373066958946417 156,50.497422611928556 149,62.621778264910695" />
    <polyline points="9,86.870489570875 2,74.746133917892848 9,62.621778264910709 23,62.621778264910709 30,50.49742261192857 44,50.49742261192857" />
    <polyline points="51,62.621778264910709 65,62.621778264910709 72,74.746133917892848" />
    <polyline points="65,62.621778264910709 72,50.49742261192857 86,50.49742261192857" />
    <polyline points="93,62.621778264910709 107,62.621778264910709 114,50.49742261192857" />
    <polyline points="128,50.49742261192857 135,62.621778264910709 149,62.621778264910709 156,74.746133917892848 149,86.870489570875" />
    <polyline points="9,111.11920087683927 2,98.994845223857126 9,86.87048957087498" />
    <polyline points="30,98.994845223857126 23,86.87048957087498 30,74.746133917892834 44,74.746133917892834" />
    <polyline points="44,98.994845223857126 51,86.87048957087498 65,86.87048957087498 72,98.994845223857126" />
    <polyline points="65,86.87048957087498 72,74.746133917892834 86,74.746133917892834 93,86.87048957087498 107,86.87048957087498 114,98.994845223857126" />
    <polyline points="107,86.87048957087498 114,74.746133917892834 128,74.746133917892834" />
    <polyline points="128,98.994845223857126 135,86.87048957087498 149,86.87048957087498 156,98.994845223857126 149,111.11920087683927" />
    <polyline points="9,135.36791218280354 2,123.2435565298214 9,111.11920087683926" />
    <polyline points="30,123.2435565298214 23,111.11920087683926 30,98.994845223857112" />
    <line x1="44" y1="123.2435565298214" x2="51" y2="111.11920087683926" />
    <line x1="65" y1="111.11920087683926" x2="72" y2="123.2435565298214" />
    <polyline points="72,98.994845223857112 86,98.994845223857112 93,111.11920087683926 86,123.2435565298214" />
    <polyline points="114,123.2435565298214 107,111.11920087683926 114,98.994845223857112" />
    <line x1="128" y1="123.2435565298214" x2="135" y2="111.11920087683926" />
    <polyline points="149,111.11920087683926 156,123.2435565298214 149,135.36791218280354" />
    <polyline points="9,159.61662348876783 2,147.4922678357857 9,135.36791218280357 23,135.36791218280357" />
    <polyline points="30,123.24355652982142 44,123.24355652982142 51,135.36791218280357 44,147.4922678357857" />
    <polyline points="72,147.4922678357857 65,135.36791218280357 72,123.24355652982142" />
    <polyline points="86,123.24355652982142 93,135.36791218280357 107,135.36791218280357 114,147.4922678357857" />
    <line x1="114" y1="123.24355652982142" x2="128" y2="123.24355652982142" />
    <polyline points="128,147.4922678357857 135,135.36791218280357 149,135.36791218280357 156,147.4922678357857 149,159.61662348876783" />
    <polyline points="9,183.86533479473209 2,171.74097914174996 9,159.61662348876783" />
    <polyline points="30,171.74097914174996 23,159.61662348876783 30,147.4922678357857 44,147.4922678357857 51,159.61662348876783 65,159.61662348876783 72,171.74097914174996" />
    <line x1="65" y1="159.61662348876783" x2="72" y2="147.4922678357857" />
    <polyline points="86,147.4922678357857 93,159.61662348876783 86,171.74097914174996" />
    <polyline points="93,159.61662348876783 107,159.61662348876783 114,171.74097914174996" />
    <line x1="114" y1="147.4922678357857" x2="128" y2="147.4922678357857" />
    <line x1="128" y1="171.74097914174996" x2="135" y2="159.61662348876783" />
    <polyline points="149,159.61662348876783 156,171.74097914174996 149,183.86533479473209" />
    <polyline points="9,208.11404610069636 2,195.98969044771422 9,183.86533479473209" />
    <polyline points="30,195.98969044771422 23,183.86533479473209 30,171.74097914174996" />
    <polyline points="44,171.74097914174996 51,183.86533479473209 44,195.98969044771422" />
    <line x1="51" y1="183.86533479473209" x2="65" y2="183.86533479473209" />
    <polyline points="93,183.86533479473209 107,183.86533479473209 114,171.74097914174996 128,171.74097914174996 135,183.86533479473209 128,195.98969044771422" />
    <polyline points="149,183.86533479473209 156,195.98969044771422 149,208.11404610069636" />
    <polyline points="9,232.36275740666068 2,220.23840175367855 9,208.11404610069641" />
    <polyline points="30,220.23840175367855 23,208.11404610069641 30,195.98969044771428" />
    <polyline points="44,195.98969044771428 51,208.11404610069641 65,208.11404610069641 72,220.23840175367855" />
    <line x1="65" y1="208.11404610069641" x2="72" y2="195.98969044771428" />
    <polyline points="86,195.98969044771428 93,208.11404610069641 86,220.23840175367855" />
    <line x1="93" y1="208.11404610069641" x2="107" y2="208.11404610069641" />
    <polyline points="114,195.98969044771428 128,195.98969044771428 135,208.11404610069641 128,220.23840175367855" />
    <polyline points="149,208.11404610069641 156,220.23840175367855 149,232.36275740666068" />
    <polyline points="30,220.23840175367855 23,232.36275740666068 9,232.36275740666068" />
    <line x1="44" y1="220.23840175367855" x2="30" y2="220.23840175367855" />
    <polyline points="72,220.23840175367855 65,232.36275740666068 51,232.36275740666068 44,220.23840175367855" />
    <polyline points="114,220.23840175367855 107,232.36275740666068 93,232.36275740666068 86,220.23840175367855" />
    <line x1="128" y1="220.23840175367855" x2="114" y2="220.23840175367855" />
    <polyline points="149,232.36275740666068 135,232.36275740666068 128,220.23840175367855" />
  </g>
  <polyline fill="none" stroke="#ff0000" stroke-width="2" stroke-linecap="square" stroke-linejoin="round" points="79,1.9999999999999965 79,38.373066958946417 37,62.621778264910709 58,74.746133917892848 37,86.87048957087498 37,111.11920087683926 58,98.994845223857126 79,111.11920087683926 79,220.23840175367855" />
  <type>Rectangular</type>
</svg>