<?xml version="1.0" encoding="utf-8" standalone="no"?>
<!DOCTYPE svg PUBLIC "-//W3C//DTD SVG 1.1//EN" "http://www.w3.org/Graphics/SVG/1.1/DTD/svg11.dtd"[]>
<svg width="347" height="525.347293078232" version="1.1" xmlns="http://www.w3.org/2000/svg">
  <title>16 by 21 sigma maze</title>
  <g fill="none" stroke="#000000" stroke-width="2" stroke-linecap="round" stroke-linejoin="round">
    <polyline points="9,38.3730669589464 2,26.248711305964264 9,14.124355652982123 23,14.124355652982123 30,26.248711305964264" />
    <polyline points="23,14.124355652982123 30,1.9999999999999822 44,1.9999999999999822 51,14.124355652982123 65,14.124355652982123 72,26.248711305964264" />
    <polyline points="65,14.124355652982123 72,1.9999999999999822 86,1.9999999999999822 93,14.124355652982123 107,14.124355652982123 114,1.9999999999999822 128,1.9999999999999822 135,14.124355652982123 128,26.248711305964264" />
    <polyline points="135,14.124355652982123 149,14.124355652982123 156,26.248711305964264" />
    <line x1="149" y1="14.124355652982123" x2="156" y2="1.9999999999999822" />
    <polyline points="170,1.9999999999999822 177,14.124355652982123 191,14.124355652982123 198,1.9999999999999822 212,1.9999999999999822 219,14.124355652982123 233,14.124355652982123 240,1.9999999999999822 254,1.9999999999999822 261,14.124355652982123 275,14.124355652982123 282,26.248711305964264" />
    <polyline points="275,14.124355652982123 282,1.9999999999999822 296,1.9999999999999822 303,14.124355652982123 317,14.124355652982123 324,1.9999999999999822 338,1.9999999999999822 345,14.124355652982123 338,26.248711305964264" />
    <polyline points="9,62.621778264910681 2,50.497422611928542 9,38.3730669589464" />
    <line x1="23" y1="38.3730669589464" x2="30" y2="50.497422611928542" />
    <polyline points="44,26.248711305964264 51,38.3730669589464 44,50.497422611928542" />
    <polyline points="72,50.497422611928542 65,38.3730669589464 72,26.248711305964264" />
    <polyline points="86,26.248711305964264 93,38.3730669589464 86,50.497422611928542" />
    <line x1="93" y1="38.3730669589464" x2="107" y2="38.3730669589464" />
    <polyline points="114,26.248711305964264 128,26.248711305964264 135,38.3730669589464 128,50.497422611928542" />
    <polyline points="135,38.3730669589464 149,38.3730669589464 156,50.497422611928542" />
    <polyline points="170,26.248711305964264 177,38.3730669589464 191,38.3730669589464 198,26.248711305964264 212,26.248711305964264 219,38.3730669589464 233,38.3730669589464 240,50.497422611928542" />
    <polyline points="233,38.3730669589464 240,26.248711305964264 254,26.248711305964264" />
    <polyline points="254,50.497422611928542 261,38.3730669589464 275,38.3730669589464 282,26.248711305964264 296,26.248711305964264 303,38.3730669589464 296,50.497422611928542" />
    <polyline points="324,50.497422611928542 317,38.3730669589464 324,26.248711305964264" />
    <polyline points="338,26.248711305964264 345,38.3730669589464 338,50.497422611928542" />
    <polyline points="9,86.870489570874966 2,74.74613391789282 9,62.621778264910681 23,62.621778264910681 30,74.74613391789282" />
    <polyline points="30,50.497422611928542 44,50.497422611928542 51,62.621778264910681 44,74.74613391789282" />
    <polyline points="72,74.74613391789282 65,62.621778264910681 72,50.497422611928542 86,50.497422611928542 93,62.621778264910681 107,62.621778264910681" />
    <polyline points="114,50.497422611928542 128,50.497422611928542 135,62.621778264910681 128,74.74613391789282" />
    <line x1="135" y1="62.621778264910681" x2="149" y2="62.621778264910681" />
    <polyline points="156,50.497422611928542 170,50.497422611928542 177,62.621778264910681 170,74.74613391789282" />
    <polyline points="177,62.621778264910681 191,62.621778264910681 198,74.74613391789282" />
    <polyline points="191,62.621778264910681 198,50.497422611928542 212,50.497422611928542" />
    <polyline points="219,62.621778264910681 233,62.621778264910681 240,50.497422611928542 254,50.497422611928542" />
    <line x1="254" y1="74.74613391789282" x2="261" y2="62.621778264910681" />
    <polyline points="275,62.621778264910681 282,50.497422611928542 296,50.497422611928542 303,62.621778264910681 296,74.74613391789282" />
    <polyline points="303,62.621778264910681 317,62.621778264910681 324,50.497422611928542" />
    <polyline points="338,50.497422611928542 345,62.621778264910681 338,74.74613391789282" />
    <polyline points="9,111.11920087683926 2,98.994845223857112 9,86.870489570874966" />
    <line x1="23" y1="86.870489570874966" x2="30" y2="98.994845223857112" />
    <line x1="30" y1="74.74613391789282" x2="44" y2="74.74613391789282" />
    <polyline points="51,86.870489570874966 65,86.870489570874966 72,74.74613391789282" />
    <polyline points="86,74.74613391789282 93,86.870489570874966 86,98.994845223857112" />
    <polyline points="93,86.870489570874966 107,86.870489570874966 114,98.994845223857112" />
    <polyline points="107,86.870489570874966 114,74.74613391789282 128,74.74613391789282 135,86.870489570874966 128,98.994845223857112" />
    <line x1="135" y1="86.870489570874966" x2="149" y2="86.870489570874966" />
    <line x1="156" y1="74.74613391789282" x2="170" y2="74.74613391789282" />
    <line x1="170" y1="98.994845223857112" x2="177" y2="86.870489570874966" />
    <polyline points="191,86.870489570874966 198,74.74613391789282 212,74.74613391789282 219,86.870489570874966 212,98.994845223857112" />
    <polyline points="219,86.870489570874966 233,86.870489570874966 240,98.994845223857112" />
    <polyline points="240,74.74613391789282 254,74.74613391789282 261,86.870489570874966 254,98.994845223857112" />
    <polyline points="275,86.870489570874966 282,74.74613391789282 296,74.74613391789282 303,86.870489570874966 317,86.870489570874966 324,98.994845223857112" />
    <polyline points="324,74.74613391789282 338,74.74613391789282 345,86.870489570874966 338,98.994845223857112" />
    <polyline points="9,135.36791218280354 2,123.24355652982139 9,111.11920087683924 23,111.11920087683924 30,123.24355652982139" />
    <polyline points="30,98.9948452238571 44,98.9948452238571 51,111.11920087683924 65,111.11920087683924 72,123.24355652982139" />
    <polyline points="65,111.11920087683924 72,98.9948452238571 86,98.9948452238571" />
    <polyline points="86,123.24355652982139 93,111.11920087683924 107,111.11920087683924 114,123.24355652982139" />
    <polyline points="128,98.9948452238571 135,111.11920087683924 128,123.24355652982139" />
    <polyline points="156,123.24355652982139 149,111.11920087683924 156,98.9948452238571 170,98.9948452238571 177,111.11920087683924 170,123.24355652982139" />
    <polyline points="198,123.24355652982139 191,111.11920087683924 198,98.9948452238571" />
    <polyline points="212,123.24355652982139 219,111.11920087683924 233,111.11920087683924 240,123.24355652982139" />
    <polyline points="254,98.9948452238571 261,111.11920087683924 254,123.24355652982139" />
    <line x1="261" y1="111.11920087683924" x2="275" y2="111.11920087683924" />
    <polyline points="282,98.9948452238571 296,98.9948452238571 303,111.11920087683924 296,123.24355652982139" />
    <polyline points="303,111.11920087683924 317,111.11920087683924 324,123.24355652982139" />
    <line x1="317" y1="111.11920087683924" x2="324" y2="98.9948452238571" />
    <polyline points="338,98.9948452238571 345,111.11920087683924 338,123.24355652982139" />
    <polyline points="9,159.6166234887678 2,147.49226783578567 9,135.36791218280354" />
    <polyline points="23,135.36791218280354 30,123.24355652982139 44,123.24355652982139 51,135.36791218280354 65,135.36791218280354 72,147.49226783578567" />
    <polyline points="86,147.49226783578567 93,135.36791218280354 107,135.36791218280354" />
    <polyline points="114,123.24355652982139 128,123.24355652982139 135,135.36791218280354 128,147.49226783578567" />
    <polyline points="135,135.36791218280354 149,135.36791218280354 156,147.49226783578567" />
    <polyline points="170,123.24355652982139 177,135.36791218280354 170,147.49226783578567" />
    <polyline points="177,135.36791218280354 191,135.36791218280354 198,123.24355652982139 212,123.24355652982139 219,135.36791218280354 212,147.49226783578567" />
    <line x1="233" y1="135.36791218280354" x2="240" y2="147.49226783578567" />
    <line x1="240" y1="123.24355652982139" x2="254" y2="123.24355652982139" />
    <polyline points="261,135.36791218280354 275,135.36791218280354 282,147.49226783578567" />
    <polyline points="275,135.36791218280354 282,123.24355652982139 296,123.24355652982139" />
    <line x1="296" y1="147.49226783578567" x2="303" y2="135.36791218280354" />
    <line x1="317" y1="135.36791218280354" x2="324" y2="123.24355652982139" />
    <polyline points="338,123.24355652982139 345,135.36791218280354 338,147.49226783578567" />
    <polyline points="9,183.86533479473209 2,171.74097914174996 9,159.61662348876783 23,159.61662348876783 30,147.4922678357857 44,147.4922678357857 51,159.61662348876783" />
    <polyline points="72,171.74097914174996 65,159.61662348876783 72,147.4922678357857 86,147.4922678357857" />
    <polyline points="86,171.74097914174996 93,159.61662348876783 107,159.61662348876783 114,171.74097914174996" />
    <line x1="114" y1="147.4922678357857" x2="128" y2="147.4922678357857" />
    <polyline points="128,171.74097914174996 135,159.61662348876783 149,159.61662348876783" />
    <polyline points="156,147.4922678357857 170,147.4922678357857 177,159.61662348876783 191,159.61662348876783 198,171.74097914174996" />
    <polyline points="198,147.4922678357857 212,147.4922678357857 219,159.61662348876783 212,171.74097914174996" />
    <line x1="219" y1="159.61662348876783" x2="233" y2="159.61662348876783" />
    <polyline points="240,147.4922678357857 254,147.4922678357857 261,159.61662348876783 254,171.74097914174996" />
    <polyline points="275,159.61662348876783 282,147.4922678357857 296,147.4922678357857" />
    <polyline points="296,171.74097914174996 303,159.61662348876783 317,159.61662348876783 324,171.74097914174996" />
    <polyline points="317,159.61662348876783 324,147.4922678357857 338,147.4922678357857 345,159.61662348876783 338,171.74097914174996" />
    <polyline points="9,208.11404610069636 2,195.98969044771422 9,183.86533479473209 23,183.86533479473209 30,195.98969044771422" />
    <polyline points="30,171.74097914174996 44,171.74097914174996 51,183.86533479473209 44,195.98969044771422" />
    <polyline points="51,183.86533479473209 65,183.86533479473209 72,195.98969044771422" />
    <polyline points="72,171.74097914174996 86,171.74097914174996 93,183.86533479473209 86,195.98969044771422" />
    <line x1="93" y1="183.86533479473209" x2="107" y2="183.86533479473209" />
    <polyline points="114,171.74097914174996 128,171.74097914174996 135,183.86533479473209 128,195.98969044771422" />
    <polyline points="156,195.98969044771422 149,183.86533479473209 156,171.74097914174996 170,171.74097914174996 177,183.86533479473209 170,195.98969044771422" />
    <line x1="177" y1="183.86533479473209" x2="191" y2="183.86533479473209" />
    <line x1="212" y1="171.74097914174996" x2="219" y2="183.86533479473209" />
    <polyline points="233,183.86533479473209 240,171.74097914174996 254,171.74097914174996 261,183.86533479473209 254,195.98969044771422" />
    <polyline points="261,183.86533479473209 275,183.86533479473209 282,195.98969044771422" />
    <line x1="282" y1="171.74097914174996" x2="296" y2="171.74097914174996" />
    <polyline points="303,183.86533479473209 317,183.86533479473209 324,171.74097914174996" />
    <polyline points="338,171.74097914174996 345,183.86533479473209 338,195.98969044771422" />
    <polyline points="9,232.36275740666065 2,220.23840175367852 9,208.11404610069639" />
    <polyline points="30,220.23840175367852 23,208.11404610069639 30,195.98969044771425" />
    <polyline points="44,195.98969044771425 51,208.11404610069639 44,220.23840175367852" />
    <line x1="51" y1="208.11404610069639" x2="65" y2="208.11404610069639" />
    <polyline points="86,220.23840175367852 93,208.11404610069639 107,208.11404610069639 114,220.23840175367852" />
    <polyline points="107,208.11404610069639 114,195.98969044771425 128,195.98969044771425" />
    <polyline points="128,220.23840175367852 135,208.11404610069639 149,208.11404610069639 156,220.23840175367852" />
    <line x1="149" y1="208.11404610069639" x2="156" y2="195.98969044771425" />
    <polyline points="170,195.98969044771425 177,208.11404610069639 170,220.23840175367852" />
    <line x1="177" y1="208.11404610069639" x2="191" y2="208.11404610069639" />
    <polyline points="198,195.98969044771425 212,195.98969044771425 219,208.11404610069639 212,220.23840175367852" />
    <polyline points="219,208.11404610069639 233,208.11404610069639 240,195.98969044771425" />
    <polyline points="254,195.98969044771425 261,208.11404610069639 254,220.23840175367852" />
    <line x1="261" y1="208.11404610069639" x2="275" y2="208.11404610069639" />
    <polyline points="282,195.98969044771425 296,195.98969044771425 303,208.11404610069639 296,220.23840175367852" />
    <polyline points="303,208.11404610069639 317,208.11404610069639 324,220.23840175367852" />
    <line x1="317" y1="208.11404610069639" x2="324" y2="195.98969044771425" />
    <polyline points="338,195.98969044771425 345,208.11404610069639 338,220.23840175367852" />
    <polyline points="9,256.61146871262497 2,244.48711305964281 9,232.36275740666068 23,232.36275740666068" />
    <polyline points="30,220.23840175367855 44,220.23840175367855 51,232.36275740666068 44,244.48711305964281" />
    <polyline points="65,232.36275740666068 72,220.23840175367855 86,220.23840175367855" />
    <polyline points="86,244.48711305964281 93,232.36275740666068 107,232.36275740666068 114,220.23840175367855 128,220.23840175367855" />
    <polyline points="128,244.48711305964281 135,232.36275740666068 149,232.36275740666068 156,244.48711305964281" />
    <polyline points="170,244.48711305964281 177,232.36275740666068 191,232.36275740666068 198,244.48711305964281" />
    <polyline points="191,232.36275740666068 198,220.23840175367855 212,220.23840175367855 219,232.36275740666068 233,232.36275740666068 240,244.48711305964281" />
    <line x1="240" y1="220.23840175367855" x2="254" y2="220.23840175367855" />
    <polyline points="254,244.48711305964281 261,232.36275740666068 275,232.36275740666068 282,244.48711305964281" />
    <polyline points="282,220.23840175367855 296,220.23840175367855 303,232.36275740666068 296,244.48711305964281" />
    <line x1="317" y1="232.36275740666068" x2="324" y2="220.23840175367855" />
    <polyline points="338,220.23840175367855 345,232.36275740666068 338,244.48711305964281" />
    <polyline points="9,280.86018001858923 2,268.73582436560707 9,256.61146871262491" />
    <polyline points="30,268.73582436560707 23,256.61146871262491 30,244.48711305964278 44,244.48711305964278" />
    <polyline points="51,256.61146871262491 65,256.61146871262491 72,244.48711305964278 86,244.48711305964278 93,256.61146871262491 107,256.61146871262491 114,268.73582436560707" />
    <line x1="114" y1="244.48711305964278" x2="128" y2="244.48711305964278" />
    <polyline points="128,268.73582436560707 135,256.61146871262491 149,256.61146871262491 156,244.48711305964278 170,244.48711305964278" />
    <polyline points="177,256.61146871262491 191,256.61146871262491 198,244.48711305964278" />
    <polyline points="212,244.48711305964278 219,256.61146871262491 212,268.73582436560707" />
    <polyline points="219,256.61146871262491 233,256.61146871262491 240,268.73582436560707" />
    <polyline points="233,256.61146871262491 240,244.48711305964278 254,244.48711305964278 261,256.61146871262491 275,256.61146871262491" />
    <polyline points="296,244.48711305964278 303,256.61146871262491 296,268.73582436560707" />
    <polyline points="303,256.61146871262491 317,256.61146871262491 324,268.73582436560707" />
    <line x1="317" y1="256.61146871262491" x2="324" y2="244.48711305964278" />
    <polyline points="338,244.48711305964278 345,256.61146871262491 338,268.73582436560707" />
    <polyline points="9,305.1088913245535 2,292.98453567157134 9,280.86018001858918" />
    <polyline points="30,292.98453567157134 23,280.86018001858918 30,268.735824365607 44,268.735824365607 51,280.86018001858918" />
    <polyline points="72,292.98453567157134 65,280.86018001858918 72,268.735824365607 86,268.735824365607 93,280.86018001858918 86,292.98453567157134" />
    <polyline points="93,280.86018001858918 107,280.86018001858918 114,292.98453567157134" />
    <line x1="114" y1="268.735824365607" x2="128" y2="268.735824365607" />
    <polyline points="128,292.98453567157134 135,280.86018001858918 149,280.86018001858918 156,292.98453567157134" />
    <polyline points="149,280.86018001858918 156,268.735824365607 170,268.735824365607 177,280.86018001858918 191,280.86018001858918 198,268.735824365607 212,268.735824365607" />
    <polyline points="212,292.98453567157134 219,280.86018001858918 233,280.86018001858918 240,292.98453567157134" />
    <polyline points="254,268.735824365607 261,280.86018001858918 254,292.98453567157134" />
    <polyline points="282,292.98453567157134 275,280.86018001858918 282,268.735824365607 296,268.735824365607" />
    <polyline points="296,292.98453567157134 303,280.86018001858918 317,280.86018001858918 324,292.98453567157134" />
    <line x1="317" y1="280.86018001858918" x2="324" y2="268.735824365607" />
    <polyline points="338,268.735824365607 345,280.86018001858918 338,292.98453567157134" />
    <polyline points="9,329.35760263051782 2,317.23324697753566 9,305.1088913245535" />
    <polyline points="30,317.23324697753566 23,305.1088913245535 30,292.98453567157134" />
    <polyline points="44,292.98453567157134 51,305.1088913245535 65,305.1088913245535 72,292.98453567157134" />
    <polyline points="86,292.98453567157134 93,305.1088913245535 86,317.23324697753566" />
    <polyline points="107,305.1088913245535 114,292.98453567157134 128,292.98453567157134 135,305.1088913245535 149,305.1088913245535 156,317.23324697753566" />
    <polyline points="156,292.98453567157134 170,292.98453567157134 177,305.1088913245535 170,317.23324697753566" />
    <polyline points="177,305.1088913245535 191,305.1088913245535 198,292.98453567157134 212,292.98453567157134" />
    <polyline points="212,317.23324697753566 219,305.1088913245535 233,305.1088913245535 240,317.23324697753566" />
    <polyline points="254,292.98453567157134 261,305.1088913245535 254,317.23324697753566" />
    <polyline points="261,305.1088913245535 275,305.1088913245535 282,317.23324697753566" />
    <line x1="275" y1="305.1088913245535" x2="282" y2="292.98453567157134" />
    <line x1="296" y1="317.23324697753566" x2="303" y2="305.1088913245535" />
    <polyline points="324,317.23324697753566 317,305.1088913245535 324,292.98453567157134" />
    <polyline points="338,292.98453567157134 345,305.1088913245535 338,317.23324697753566" />
    <polyline points="9,353.60631393648208 2,341.48195828349992 9,329.35760263051776" />
    <polyline points="23,329.35760263051776 30,317.2332469775356 44,317.2332469775356" />
    <polyline points="44,341.48195828349992 51,329.35760263051776 65,329.35760263051776 72,317.2332469775356 86,317.2332469775356 93,329.35760263051776 86,341.48195828349992" />
    <polyline points="93,329.35760263051776 107,329.35760263051776 114,317.2332469775356 128,317.2332469775356 135,329.35760263051776" />
    <line x1="149" y1="329.35760263051776" x2="156" y2="317.2332469775356" />
    <polyline points="170,317.2332469775356 177,329.35760263051776 191,329.35760263051776 198,341.48195828349992" />
    <polyline points="198,317.2332469775356 212,317.2332469775356 219,329.35760263051776 233,329.35760263051776 240,341.48195828349992" />
    <polyline points="240,317.2332469775356 254,317.2332469775356 261,329.35760263051776 275,329.35760263051776 282,341.48195828349992" />
    <line x1="282" y1="317.2332469775356" x2="296" y2="317.2332469775356" />
    <polyline points="296,341.48195828349992 303,329.35760263051776 317,329.35760263051776 324,317.2332469775356 338,317.2332469775356 345,329.35760263051776 338,341.48195828349992" />
    <polyline points="9,377.85502524244635 2,365.73066958946418 9,353.606313936482 23,353.606313936482" />
    <line x1="30" y1="341.48195828349986" x2="44" y2="341.48195828349986" />
    <polyline points="44,365.73066958946418 51,353.606313936482 65,353.606313936482 72,341.48195828349986" />
    <polyline points="86,341.48195828349986 93,353.606313936482 86,365.73066958946418" />
    <polyline points="114,365.73066958946418 107,353.606313936482 114,341.48195828349986 128,341.48195828349986 135,353.606313936482 128,365.73066958946418" />
    <line x1="135" y1="353.606313936482" x2="149" y2="353.606313936482" />
    <polyline points="156,341.48195828349986 170,341.48195828349986 177,353.606313936482 170,365.73066958946418" />
    <polyline points="177,353.606313936482 191,353.606313936482 198,365.73066958946418" />
    <line x1="198" y1="341.48195828349986" x2="212" y2="341.48195828349986" />
    <polyline points="212,365.73066958946418 219,353.606313936482 233,353.606313936482 240,341.48195828349986 254,341.48195828349986" />
    <polyline points="261,353.606313936482 275,353.606313936482 282,365.73066958946418" />
    <line x1="275" y1="353.606313936482" x2="282" y2="341.48195828349986" />
    <line x1="296" y1="341.48195828349986" x2="303" y2="353.606313936482" />
    <polyline points="324,365.73066958946418 317,353.606313936482 324,341.48195828349986" />
    <polyline points="338,341.48195828349986 345,353.606313936482 338,365.73066958946418" />
    <polyline points="9,402.10373654841067 2,389.97938089542851 9,377.85502524244635 23,377.85502524244635" />
    <polyline points="30,365.73066958946418 44,365.73066958946418 51,377.85502524244635 44,389.97938089542851" />
    <polyline points="51,377.85502524244635 65,377.85502524244635 72,365.73066958946418 86,365.73066958946418 93,377.85502524244635 107,377.85502524244635 114,389.97938089542851" />
    <polyline points="128,365.73066958946418 135,377.85502524244635 128,389.97938089542851" />
    <line x1="149" y1="377.85502524244635" x2="156" y2="389.97938089542851" />
    <polyline points="156,365.73066958946418 170,365.73066958946418 177,377.85502524244635" />
    <line x1="191" y1="377.85502524244635" x2="198" y2="389.97938089542851" />
    <polyline points="198,365.73066958946418 212,365.73066958946418 219,377.85502524244635 233,377.85502524244635 240,389.97938089542851" />
    <polyline points="233,377.85502524244635 240,365.73066958946418 254,365.73066958946418 261,377.85502524244635 275,377.85502524244635" />
    <polyline points="282,365.73066958946418 296,365.73066958946418 303,377.85502524244635 317,377.85502524244635 324,365.73066958946418" />
    <polyline points="338,365.73066958946418 345,377.85502524244635 338,389.97938089542851" />
    <polyline points="9,426.35244785437493 2,414.22809220139277 9,402.10373654841061" />
    <polyline points="23,402.10373654841061 30,389.97938089542845 44,389.97938089542845 51,402.10373654841061" />
    <polyline points="65,402.10373654841061 72,389.97938089542845 86,389.97938089542845 93,402.10373654841061 86,414.22809220139277" />
    <polyline points="93,402.10373654841061 107,402.10373654841061 114,414.22809220139277" />
    <polyline points="114,389.97938089542845 128,389.97938089542845 135,402.10373654841061 128,414.22809220139277" />
    <polyline points="156,414.22809220139277 149,402.10373654841061 156,389.97938089542845 170,389.97938089542845 177,402.10373654841061 191,402.10373654841061 198,389.97938089542845 212,389.97938089542845 219,402.10373654841061" />
    <polyline points="240,414.22809220139277 233,402.10373654841061 240,389.97938089542845" />
    <polyline points="254,389.97938089542845 261,402.10373654841061 254,414.22809220139277" />
    <polyline points="261,402.10373654841061 275,402.10373654841061 282,389.97938089542845 296,389.97938089542845 303,402.10373654841061 317,402.10373654841061 324,414.22809220139277" />
    <line x1="317" y1="402.10373654841061" x2="324" y2="389.97938089542845" />
    <polyline points="338,389.97938089542845 345,402.10373654841061 338,414.22809220139277" />
    <polyline points="9,450.60115916033919 2,438.47680350735703 9,426.35244785437487" />
    <polyline points="23,426.35244785437487 30,414.22809220139271 44,414.22809220139271 51,426.35244785437487 65,426.35244785437487 72,414.22809220139271 86,414.22809220139271" />
    <line x1="86" y1="438.47680350735703" x2="93" y2="426.35244785437487" />
    <polyline points="114,438.47680350735703 107,426.35244785437487 114,414.22809220139271" />
    <polyline points="128,414.22809220139271 135,426.35244785437487 128,438.47680350735703" />
    <polyline points="135,426.35244785437487 149,426.35244785437487 156,438.47680350735703" />
    <polyline points="156,414.22809220139271 170,414.22809220139271 177,426.35244785437487 170,438.47680350735703" />
    <polyline points="177,426.35244785437487 191,426.35244785437487 198,414.22809220139271" />
    <polyline points="212,414.22809220139271 219,426.35244785437487 212,438.47680350735703" />
    <line x1="219" y1="426.35244785437487" x2="233" y2="426.35244785437487" />
    <polyline points="254,414.22809220139271 261,426.35244785437487 254,438.47680350735703" />
    <polyline points="282,438.47680350735703 275,426.35244785437487 282,414.22809220139271 296,414.22809220139271 303,426.35244785437487 317,426.35244785437487 324,438.47680350735703" />
    <line x1="317" y1="426.35244785437487" x2="324" y2="414.22809220139271" />
    <polyline points="338,414.22809220139271 345,426.35244785437487 338,438.47680350735703" />
    <polyline points="9,474.84987046630351 2,462.72551481332135 9,450.60115916033919 23,450.60115916033919 30,438.47680350735703" />
    <polyline points="44,438.47680350735703 51,450.60115916033919 44,462.72551481332135" />
    <polyline points="51,450.60115916033919 65,450.60115916033919 72,438.47680350735703 86,438.47680350735703 93,450.60115916033919 107,450.60115916033919 114,462.72551481332135" />
    <line x1="107" y1="450.60115916033919" x2="114" y2="438.47680350735703" />
    <line x1="128" y1="462.72551481332135" x2="135" y2="450.60115916033919" />
    <line x1="149" y1="450.60115916033919" x2="156" y2="438.47680350735703" />
    <polyline points="170,438.47680350735703 177,450.60115916033919 170,462.72551481332135" />
    <line x1="177" y1="450.60115916033919" x2="191" y2="450.60115916033919" />
    <polyline points="198,438.47680350735703 212,438.47680350735703 219,450.60115916033919 212,462.72551481332135" />
    <polyline points="233,450.60115916033919 240,438.47680350735703 254,438.47680350735703 261,450.60115916033919" />
    <line x1="275" y1="450.60115916033919" x2="282" y2="462.72551481332135" />
    <line x1="282" y1="438.47680350735703" x2="296" y2="438.47680350735703" />
    <line x1="296" y1="462.72551481332135" x2="303" y2="450.60115916033919" />
    <polyline points="324,462.72551481332135 317,450.60115916033919 324,438.47680350735703" />
    <polyline points="338,438.47680350735703 345,450.60115916033919 338,462.72551481332135" />
    <polyline points="9,499.09858177226778 2,486.97422611928562 9,474.84987046630346" />
    <polyline points="30,486.97422611928562 23,474.84987046630346 30,462.7255148133213 44,462.7255148133213" />
    <polyline points="51,474.84987046630346 65,474.84987046630346 72,486.97422611928562" />
    <polyline points="65,474.84987046630346 72,462.7255148133213 86,462.7255148133213 93,474.84987046630346 107,474.84987046630346 114,486.97422611928562" />
    <line x1="114" y1="462.7255148133213" x2="128" y2="462.7255148133213" />
    <polyline points="128,486.97422611928562 135,474.84987046630346 149,474.84987046630346 156,462.7255148133213 170,462.7255148133213 177,474.84987046630346 170,486.97422611928562" />
    <polyline points="177,474.84987046630346 191,474.84987046630346 198,486.97422611928562" />
    <polyline points="191,474.84987046630346 198,462.7255148133213 212,462.7255148133213" />
    <polyline points="212,486.97422611928562 219,474.84987046630346 233,474.84987046630346 240,486.97422611928562" />
    <polyline points="233,474.84987046630346 240,462.7255148133213 254,462.7255148133213 261,474.84987046630346 275,474.84987046630346 282,462.7255148133213 296,462.7255148133213 303,474.84987046630346" />
    <polyline points="324,486.97422611928562 317,474.84987046630346 324,462.7255148133213" />
    <polyline points="338,462.7255148133213 345,474.84987046630346 338,486.97422611928562" />
    <polyline points="9,523.347293078232 2,511.22293742524988 9,499.09858177226772" />
    <line x1="23" y1="499.09858177226772" x2="30" y2="511.22293742524988" />
    <polyline points="30,486.97422611928556 44,486.97422611928556 51,499.09858177226772 65,499.09858177226772 72,511.22293742524988" />
    <polyline points="86,486.97422611928556 93,499.09858177226772 86,511.22293742524988" />
    <polyline points="107,499.09858177226772 114,486.97422611928556 128,486.97422611928556 135,499.09858177226772" />
    <polyline points="156,511.22293742524988 149,499.09858177226772 156,486.97422611928556" />
    <line x1="170" y1="511.22293742524988" x2="177" y2="499.09858177226772" />
    <polyline points="198,511.22293742524988 191,499.09858177226772 198,486.97422611928556" />
    <polyline points="212,486.97422611928556 219,499.09858177226772 212,511.22293742524988" />
    <line x1="233" y1="499.09858177226772" x2="240" y2="486.97422611928556" />
    <polyline points="254,486.97422611928556 261,499.09858177226772 254,511.22293742524988" />
    <polyline points="261,499.09858177226772 275,499.09858177226772 282,486.97422611928556 296,486.97422611928556 303,499.09858177226772" />
    <polyline points="324,511.22293742524988 317,499.09858177226772 324,486.97422611928556" />
    <polyline points="338,486.97422611928556 345,499.09858177226772 338,511.22293742524988" />
    <polyline points="30,511.22293742524988 23,523.347293078232 9,523.347293078232" />
    <line x1="44" y1="511.22293742524988" x2="30" y2="511.22293742524988" />
    <polyline points="72,511.22293742524988 65,523.347293078232 51,523.347293078232 44,511.22293742524988" />
    <line x1="86" y1="511.22293742524988" x2="72" y2="511.22293742524988" />
    <polyline points="114,511.22293742524988 107,523.347293078232 93,523.347293078232 86,511.22293742524988" />
    <line x1="128" y1="511.22293742524988" x2="114" y2="511.22293742524988" />
    <polyline points="156,511.22293742524988 149,523.347293078232 135,523.347293078232 128,511.22293742524988" />
    <line x1="170" y1="511.22293742524988" x2="156" y2="511.22293742524988" />
    <line x1="198" y1="511.22293742524988" x2="191" y2="523.347293078232" />
    <line x1="177" y1="523.347293078232" x2="170" y2="511.22293742524988" />
    <line x1="212" y1="511.22293742524988" x2="198" y2="511.22293742524988" />
    <polyline points="240,511.22293742524988 233,523.347293078232 219,523.347293078232 212,511.22293742524988" />
    <line x1="254" y1="511.22293742524988" x2="240" y2="511.22293742524988" />
    <polyline points="282,511.22293742524988 275,523.347293078232 261,523.347293078232 254,511.22293742524988" />
    <line x1="296" y1="511.22293742524988" x2="282" y2="511.22293742524988" />
    <polyline points="324,511.22293742524988 317,523.347293078232 303,523.347293078232 296,511.22293742524988" />
    <line x1="338" y1="511.22293742524988" x2="324" y2="511.22293742524988" />
  </g>
  <polyline fill="none" stroke="#ff0000" stroke-width="2" stroke-linecap="square" stroke-linejoin="round" points="163,1.9999999999999822 163,38.3730669589464 184,50.497422611928542 205,38.3730669589464 226,50.497422611928542 205,62.621778264910681 226,74.74613391789282 268,50.497422611928542 268,98.994845223857112 289,111.11920087683924 247,135.36791218280354 226,123.24355652982139 226,147.49226783578567 247,159.61662348876783 226,171.74097914174996 226,195.98969044771422 247,183.86533479473209 247,208.11404610069639 226,220.23840175367852 247,232.36275740666068 268,220.23840175367852 289,232.36275740666068 289,256.61146871262491 268,268.73582436560707 247,256.61146871262491 247,305.1088913245535 226,292.98453567157134 184,317.23324697753566 226,341.48195828349992 205,353.606313936482 163,329.35760263051776 142,341.48195828349992 163,353.606313936482 142,365.73066958946418 142,414.22809220139277 163,426.35244785437487 163,450.60115916033919 121,474.84987046630346 79,450.60115916033919 37,474.84987046630346 79,499.09858177226772 79,474.84987046630346 100,486.97422611928562 100,511.22293742524988 121,499.09858177226772 142,511.22293742524988 142,486.97422611928562 163,474.84987046630346 163,499.09858177226772 184,486.97422611928562 184,523.347293078232" />
  <type>Rectangular</type>
</svg>