<?xml version="1.0" encoding="utf-8" standalone="no"?>
<!DOCTYPE svg PUBLIC "-//W3C//DTD SVG 1.1//EN" "http://www.w3.org/Graphics/SVG/1.1/DTD/svg11.dtd"[]>
<svg width="347" height="525.347293078232" version="1.1" xmlns="http://www.w3.org/2000/svg">
  <title>16 by 21 sigma maze</title>
  <g fill="none" stroke="#000000" stroke-width="2" stroke-linecap="round" stroke-linejoin="round">
    <polyline points="9,38.3730669589464 2,26.248711305964264 9,14.124355652982123 23,14.124355652982123 30,1.9999999999999822 44,1.9999999999999822 51,14.124355652982123 44,26.248711305964264" />
    <polyline points="51,14.124355652982123 65,14.124355652982123 72,1.9999999999999822 86,1.9999999999999822 93,14.124355652982123 86,26.248711305964264" />
    <polyline points="93,14.124355652982123 107,14.124355652982123 114,26.248711305964264" />
    <polyline points="107,14.124355652982123 114,1.9999999999999822 128,1.9999999999999822 135,14.124355652982123 149,14.124355652982123 156,26.248711305964264" />
    <line x1="149" y1="14.124355652982123" x2="156" y2="1.9999999999999822" />
    <polyline points="170,1.9999999999999822 177,14.124355652982123 170,26.248711305964264" />
    <polyline points="177,14.124355652982123 191,14.124355652982123 198,1.9999999999999822 212,1.9999999999999822 219,14.124355652982123 212,26.248711305964264" />
    <polyline points="219,14.124355652982123 233,14.124355652982123 240,1.9999999999999822 254,1.9999999999999822 261,14.124355652982123 254,26.248711305964264" />
    <polyline points="261,14.124355652982123 275,14.124355652982123 282,26.248711305964264" />
    <polyline points="275,14.124355652982123 282,1.9999999999999822 296,1.9999999999999822 303,14.124355652982123 317,14.124355652982123 324,1.9999999999999822 338,1.9999999999999822 345,14.124355652982123 338,26.248711305964264" />
    <polyline points="9,62.621778264910681 2,50.497422611928542 9,38.3730669589464" />
    <polyline points="30,50.497422611928542 23,38.3730669589464 30,26.248711305964264" />
    <line x1="44" y1="50.497422611928542" x2="51" y2="38.3730669589464" />
    <polyline points="72,50.497422611928542 65,38.3730669589464 72,26.248711305964264" />
    <polyline points="86,50.497422611928542 93,38.3730669589464 107,38.3730669589464" />
    <polyline points="114,26.248711305964264 128,26.248711305964264 135,38.3730669589464 128,50.497422611928542" />
    <line x1="135" y1="38.3730669589464" x2="149" y2="38.3730669589464" />
    <polyline points="170,26.248711305964264 177,38.3730669589464 170,50.497422611928542" />
    <line x1="177" y1="38.3730669589464" x2="191" y2="38.3730669589464" />
    <polyline points="198,26.248711305964264 212,26.248711305964264 219,38.3730669589464 212,50.497422611928542" />
    <polyline points="219,38.3730669589464 233,38.3730669589464 240,50.497422611928542" />
    <line x1="240" y1="26.248711305964264" x2="254" y2="26.248711305964264" />
    <polyline points="254,50.497422611928542 261,38.3730669589464 275,38.3730669589464" />
    <polyline points="296,26.248711305964264 303,38.3730669589464 296,50.497422611928542" />
    <polyline points="303,38.3730669589464 317,38.3730669589464 324,26.248711305964264" />
    <polyline points="338,26.248711305964264 345,38.3730669589464 338,50.497422611928542" />
    <polyline points="9,86.870489570874966 2,74.74613391789282 9,62.621778264910681" />
    <polyline points="30,74.74613391789282 23,62.621778264910681 30,50.497422611928542 44,50.497422611928542 51,62.621778264910681 65,62.621778264910681 72,74.74613391789282" />
    <polyline points="72,50.497422611928542 86,50.497422611928542 93,62.621778264910681 86,74.74613391789282" />
    <polyline points="114,74.74613391789282 107,62.621778264910681 114,50.497422611928542 128,50.497422611928542 135,62.621778264910681" />
    <polyline points="156,74.74613391789282 149,62.621778264910681 156,50.497422611928542 170,50.497422611928542 177,62.621778264910681" />
    <polyline points="198,74.74613391789282 191,62.621778264910681 198,50.497422611928542 212,50.497422611928542" />
    <polyline points="212,74.74613391789282 219,62.621778264910681 233,62.621778264910681 240,74.74613391789282" />
    <line x1="240" y1="50.497422611928542" x2="254" y2="50.497422611928542" />
    <polyline points="254,74.74613391789282 261,62.621778264910681 275,62.621778264910681 282,50.497422611928542 296,50.497422611928542 303,62.621778264910681 296,74.74613391789282" />
    <polyline points="303,62.621778264910681 317,62.621778264910681 324,74.74613391789282" />
    <polyline points="317,62.621778264910681 324,50.497422611928542 338,50.497422611928542 345,62.621778264910681 338,74.74613391789282" />
    <polyline points="9,111.11920087683926 2,98.994845223857112 9,86.870489570874966" />
    <polyline points="30,98.994845223857112 23,86.870489570874966 30,74.74613391789282" />
    <polyline points="44,74.74613391789282 51,86.870489570874966 65,86.870489570874966 72,98.994845223857112" />
    <line x1="72" y1="74.74613391789282" x2="86" y2="74.74613391789282" />
    <polyline points="93,86.870489570874966 107,86.870489570874966 114,74.74613391789282" />
    <polyline points="128,74.74613391789282 135,86.870489570874966 149,86.870489570874966 156,74.74613391789282 170,74.74613391789282 177,86.870489570874966 170,98.994845223857112" />
    <polyline points="198,98.994845223857112 191,86.870489570874966 198,74.74613391789282" />
    <line x1="212" y1="74.74613391789282" x2="219" y2="86.870489570874966" />
    <line x1="233" y1="86.870489570874966" x2="240" y2="98.994845223857112" />
    <line x1="240" y1="74.74613391789282" x2="254" y2="74.74613391789282" />
    <polyline points="254,98.994845223857112 261,86.870489570874966 275,86.870489570874966 282,74.74613391789282 296,74.74613391789282" />
    <polyline points="296,98.994845223857112 303,86.870489570874966 317,86.870489570874966 324,74.74613391789282" />
    <polyline points="338,74.74613391789282 345,86.870489570874966 338,98.994845223857112" />
    <polyline points="9,135.36791218280354 2,123.24355652982139 9,111.11920087683924 23,111.11920087683924 30,98.9948452238571 44,98.9948452238571 51,111.11920087683924" />
    <polyline points="65,111.11920087683924 72,98.9948452238571 86,98.9948452238571 93,111.11920087683924 107,111.11920087683924 114,123.24355652982139" />
    <polyline points="107,111.11920087683924 114,98.9948452238571 128,98.9948452238571 135,111.11920087683924 128,123.24355652982139" />
    <polyline points="135,111.11920087683924 149,111.11920087683924 156,123.24355652982139" />
    <line x1="149" y1="111.11920087683924" x2="156" y2="98.9948452238571" />
    <line x1="170" y1="98.9948452238571" x2="177" y2="111.11920087683924" />
    <polyline points="198,123.24355652982139 191,111.11920087683924 198,98.9948452238571 212,98.9948452238571 219,111.11920087683924 212,123.24355652982139" />
    <line x1="233" y1="111.11920087683924" x2="240" y2="123.24355652982139" />
    <polyline points="240,98.9948452238571 254,98.9948452238571 261,111.11920087683924" />
    <polyline points="275,111.11920087683924 282,98.9948452238571 296,98.9948452238571 303,111.11920087683924 296,123.24355652982139" />
    <line x1="303" y1="111.11920087683924" x2="317" y2="111.11920087683924" />
    <polyline points="324,98.9948452238571 338,98.9948452238571 345,111.11920087683924 338,123.24355652982139" />
    <polyline points="9,159.6166234887678 2,147.49226783578567 9,135.36791218280354" />
    <line x1="23" y1="135.36791218280354" x2="30" y2="147.49226783578567" />
    <polyline points="30,123.24355652982139 44,123.24355652982139 51,135.36791218280354 44,147.49226783578567" />
    <polyline points="51,135.36791218280354 65,135.36791218280354 72,123.24355652982139 86,123.24355652982139 93,135.36791218280354 86,147.49226783578567" />
    <line x1="107" y1="135.36791218280354" x2="114" y2="123.24355652982139" />
    <polyline points="128,123.24355652982139 135,135.36791218280354 128,147.49226783578567" />
    <polyline points="135,135.36791218280354 149,135.36791218280354 156,147.49226783578567" />
    <polyline points="156,123.24355652982139 170,123.24355652982139 177,135.36791218280354 170,147.49226783578567" />
    <polyline points="177,135.36791218280354 191,135.36791218280354 198,123.24355652982139" />
    <polyline points="212,123.24355652982139 219,135.36791218280354 212,147.49226783578567" />
    <polyline points="219,135.36791218280354 233,135.36791218280354 240,147.49226783578567" />
    <polyline points="233,135.36791218280354 240,123.24355652982139 254,123.24355652982139" />
    <line x1="254" y1="147.49226783578567" x2="261" y2="135.36791218280354" />
    <polyline points="282,147.49226783578567 275,135.36791218280354 282,123.24355652982139" />
    <polyline points="303,135.36791218280354 317,135.36791218280354 324,123.24355652982139 338,123.24355652982139 345,135.36791218280354 338,147.49226783578567" />
    <polyline points="9,183.86533479473209 2,171.74097914174996 9,159.61662348876783" />
    <polyline points="30,171.74097914174996 23,159.61662348876783 30,147.4922678357857 44,147.4922678357857 51,159.61662348876783 44,171.74097914174996" />
    <polyline points="51,159.61662348876783 65,159.61662348876783 72,171.74097914174996" />
    <line x1="65" y1="159.61662348876783" x2="72" y2="147.4922678357857" />
    <polyline points="86,147.4922678357857 93,159.61662348876783 86,171.74097914174996" />
    <polyline points="93,159.61662348876783 107,159.61662348876783 114,171.74097914174996" />
    <line x1="114" y1="147.4922678357857" x2="128" y2="147.4922678357857" />
    <polyline points="135,159.61662348876783 149,159.61662348876783 156,171.74097914174996" />
    <line x1="149" y1="159.61662348876783" x2="156" y2="147.4922678357857" />
    <polyline points="170,171.74097914174996 177,159.61662348876783 191,159.61662348876783 198,171.74097914174996" />
    <line x1="191" y1="159.61662348876783" x2="198" y2="147.4922678357857" />
    <line x1="212" y1="171.74097914174996" x2="219" y2="159.61662348876783" />
    <polyline points="240,171.74097914174996 233,159.61662348876783 240,147.4922678357857 254,147.4922678357857 261,159.61662348876783 254,171.74097914174996" />
    <polyline points="282,171.74097914174996 275,159.61662348876783 282,147.4922678357857 296,147.4922678357857 303,159.61662348876783 296,171.74097914174996" />
    <polyline points="303,159.61662348876783 317,159.61662348876783 324,147.4922678357857" />
    <polyline points="338,147.4922678357857 345,159.61662348876783 338,171.74097914174996" />
    <polyline points="9,208.11404610069636 2,195.98969044771422 9,183.86533479473209" />
    <line x1="23" y1="183.86533479473209" x2="30" y2="171.74097914174996" />
    <polyline points="44,171.74097914174996 51,183.86533479473209 44,195.98969044771422" />
    <polyline points="72,195.98969044771422 65,183.86533479473209 72,171.74097914174996" />
    <line x1="86" y1="195.98969044771422" x2="93" y2="183.86533479473209" />
    <polyline points="114,195.98969044771422 107,183.86533479473209 114,171.74097914174996 128,171.74097914174996 135,183.86533479473209 128,195.98969044771422" />
    <polyline points="149,183.86533479473209 156,171.74097914174996 170,171.74097914174996 177,183.86533479473209 170,195.98969044771422" />
    <polyline points="198,195.98969044771422 191,183.86533479473209 198,171.74097914174996 212,171.74097914174996 219,183.86533479473209" />
    <polyline points="240,195.98969044771422 233,183.86533479473209 240,171.74097914174996" />
    <polyline points="254,171.74097914174996 261,183.86533479473209 254,195.98969044771422" />
    <polyline points="261,183.86533479473209 275,183.86533479473209 282,171.74097914174996" />
    <polyline points="296,171.74097914174996 303,183.86533479473209 296,195.98969044771422" />
    <polyline points="303,183.86533479473209 317,183.86533479473209 324,195.98969044771422" />
    <polyline points="324,171.74097914174996 338,171.74097914174996 345,183.86533479473209 338,195.98969044771422" />
    <polyline points="9,232.36275740666065 2,220.23840175367852 9,208.11404610069639 23,208.11404610069639 30,220.23840175367852" />
    <line x1="30" y1="195.98969044771425" x2="44" y2="195.98969044771425" />
    <polyline points="44,220.23840175367852 51,208.11404610069639 65,208.11404610069639 72,220.23840175367852" />
    <polyline points="65,208.11404610069639 72,195.98969044771425 86,195.98969044771425" />
    <line x1="86" y1="220.23840175367852" x2="93" y2="208.11404610069639" />
    <polyline points="114,220.23840175367852 107,208.11404610069639 114,195.98969044771425" />
    <polyline points="128,195.98969044771425 135,208.11404610069639 128,220.23840175367852" />
    <polyline points="135,208.11404610069639 149,208.11404610069639 156,220.23840175367852" />
    <line x1="156" y1="195.98969044771425" x2="170" y2="195.98969044771425" />
    <polyline points="177,208.11404610069639 191,208.11404610069639 198,195.98969044771425" />
    <polyline points="212,195.98969044771425 219,208.11404610069639 212,220.23840175367852" />
    <polyline points="219,208.11404610069639 233,208.11404610069639 240,195.98969044771425" />
    <polyline points="254,195.98969044771425 261,208.11404610069639 254,220.23840175367852" />
    <polyline points="261,208.11404610069639 275,208.11404610069639 282,220.23840175367852" />
    <polyline points="282,195.98969044771425 296,195.98969044771425 303,208.11404610069639" />
    <line x1="317" y1="208.11404610069639" x2="324" y2="220.23840175367852" />
    <polyline points="338,195.98969044771425 345,208.11404610069639 338,220.23840175367852" />
    <polyline points="9,256.61146871262497 2,244.48711305964281 9,232.36275740666068 23,232.36275740666068 30,244.48711305964281" />
    <polyline points="30,220.23840175367855 44,220.23840175367855 51,232.36275740666068 44,244.48711305964281" />
    <line x1="65" y1="232.36275740666068" x2="72" y2="244.48711305964281" />
    <polyline points="72,220.23840175367855 86,220.23840175367855 93,232.36275740666068 86,244.48711305964281" />
    <polyline points="93,232.36275740666068 107,232.36275740666068 114,244.48711305964281" />
    <polyline points="128,220.23840175367855 135,232.36275740666068 149,232.36275740666068 156,244.48711305964281" />
    <polyline points="156,220.23840175367855 170,220.23840175367855 177,232.36275740666068" />
    <polyline points="198,244.48711305964281 191,232.36275740666068 198,220.23840175367855 212,220.23840175367855" />
    <polyline points="212,244.48711305964281 219,232.36275740666068 233,232.36275740666068" />
    <polyline points="240,220.23840175367855 254,220.23840175367855 261,232.36275740666068 254,244.48711305964281" />
    <polyline points="275,232.36275740666068 282,220.23840175367855 296,220.23840175367855 303,232.36275740666068 296,244.48711305964281" />
    <line x1="303" y1="232.36275740666068" x2="317" y2="232.36275740666068" />
    <polyline points="324,220.23840175367855 338,220.23840175367855 345,232.36275740666068 338,244.48711305964281" />
    <polyline points="9,280.86018001858923 2,268.73582436560707 9,256.61146871262491" />
    <polyline points="30,268.73582436560707 23,256.61146871262491 30,244.48711305964278" />
    <polyline points="44,244.48711305964278 51,256.61146871262491 44,268.73582436560707" />
    <polyline points="65,256.61146871262491 72,244.48711305964278 86,244.48711305964278 93,256.61146871262491 107,256.61146871262491 114,268.73582436560707" />
    <polyline points="114,244.48711305964278 128,244.48711305964278 135,256.61146871262491 128,268.73582436560707" />
    <line x1="149" y1="256.61146871262491" x2="156" y2="244.48711305964278" />
    <polyline points="170,244.48711305964278 177,256.61146871262491 170,268.73582436560707" />
    <line x1="177" y1="256.61146871262491" x2="191" y2="256.61146871262491" />
    <polyline points="198,244.48711305964278 212,244.48711305964278 219,256.61146871262491 212,268.73582436560707" />
    <polyline points="240,268.73582436560707 233,256.61146871262491 240,244.48711305964278 254,244.48711305964278" />
    <polyline points="261,256.61146871262491 275,256.61146871262491 282,244.48711305964278 296,244.48711305964278" />
    <line x1="296" y1="268.73582436560707" x2="303" y2="256.61146871262491" />
    <polyline points="324,268.73582436560707 317,256.61146871262491 324,244.48711305964278 338,244.48711305964278 345,256.61146871262491 338,268.73582436560707" />
    <polyline points="9,305.1088913245535 2,292.98453567157134 9,280.86018001858918" />
    <polyline points="30,292.98453567157134 23,280.86018001858918 30,268.735824365607" />
    <polyline points="44,268.735824365607 51,280.86018001858918 65,280.86018001858918 72,292.98453567157134" />
    <polyline points="65,280.86018001858918 72,268.735824365607 86,268.735824365607" />
    <polyline points="93,280.86018001858918 107,280.86018001858918 114,292.98453567157134" />
    <line x1="107" y1="280.86018001858918" x2="114" y2="268.735824365607" />
    <polyline points="128,292.98453567157134 135,280.86018001858918 149,280.86018001858918 156,292.98453567157134" />
    <polyline points="156,268.735824365607 170,268.735824365607 177,280.86018001858918 170,292.98453567157134" />
    <polyline points="177,280.86018001858918 191,280.86018001858918 198,292.98453567157134" />
    <line x1="198" y1="268.735824365607" x2="212" y2="268.735824365607" />
    <polyline points="212,292.98453567157134 219,280.86018001858918 233,280.86018001858918 240,268.735824365607 254,268.735824365607 261,280.86018001858918" />
    <polyline points="282,292.98453567157134 275,280.86018001858918 282,268.735824365607 296,268.735824365607 303,280.86018001858918 317,280.86018001858918" />
    <polyline points="338,268.735824365607 345,280.86018001858918 338,292.98453567157134" />
    <polyline points="9,329.35760263051782 2,317.23324697753566 9,305.1088913245535" />
    <polyline points="30,317.23324697753566 23,305.1088913245535 30,292.98453567157134 44,292.98453567157134 51,305.1088913245535 44,317.23324697753566" />
    <polyline points="72,317.23324697753566 65,305.1088913245535 72,292.98453567157134 86,292.98453567157134" />
    <polyline points="93,305.1088913245535 107,305.1088913245535 114,292.98453567157134 128,292.98453567157134 135,305.1088913245535 128,317.23324697753566" />
    <line x1="149" y1="305.1088913245535" x2="156" y2="292.98453567157134" />
    <polyline points="170,292.98453567157134 177,305.1088913245535 170,317.23324697753566" />
    <polyline points="198,317.23324697753566 191,305.1088913245535 198,292.98453567157134" />
    <polyline points="212,292.98453567157134 219,305.1088913245535 212,317.23324697753566" />
    <polyline points="219,305.1088913245535 233,305.1088913245535 240,317.23324697753566" />
    <polyline points="240,292.98453567157134 254,292.98453567157134 261,305.1088913245535 275,305.1088913245535 282,317.23324697753566" />
    <line x1="275" y1="305.1088913245535" x2="282" y2="292.98453567157134" />
    <polyline points="296,292.98453567157134 303,305.1088913245535 296,317.23324697753566" />
    <polyline points="303,305.1088913245535 317,305.1088913245535 324,292.98453567157134 338,292.98453567157134 345,305.1088913245535 338,317.23324697753566" />
    <polyline points="9,353.60631393648208 2,341.48195828349992 9,329.35760263051776 23,329.35760263051776" />
    <polyline points="44,317.2332469775356 51,329.35760263051776 65,329.35760263051776 72,341.48195828349992" />
    <polyline points="72,317.2332469775356 86,317.2332469775356 93,329.35760263051776 86,341.48195828349992" />
    <polyline points="93,329.35760263051776 107,329.35760263051776 114,341.48195828349992" />
    <line x1="107" y1="329.35760263051776" x2="114" y2="317.2332469775356" />
    <polyline points="128,317.2332469775356 135,329.35760263051776 128,341.48195828349992" />
    <line x1="149" y1="329.35760263051776" x2="156" y2="341.48195828349992" />
    <polyline points="156,317.2332469775356 170,317.2332469775356 177,329.35760263051776" />
    <polyline points="198,341.48195828349992 191,329.35760263051776 198,317.2332469775356" />
    <line x1="212" y1="317.2332469775356" x2="219" y2="329.35760263051776" />
    <line x1="233" y1="329.35760263051776" x2="240" y2="341.48195828349992" />
    <polyline points="254,317.2332469775356 261,329.35760263051776 254,341.48195828349992" />
    <polyline points="261,329.35760263051776 275,329.35760263051776 282,341.48195828349992" />
    <line x1="275" y1="329.35760263051776" x2="282" y2="317.2332469775356" />
    <polyline points="303,329.35760263051776 317,329.35760263051776 324,341.48195828349992" />
    <line x1="317" y1="329.35760263051776" x2="324" y2="317.2332469775356" />
    <polyline points="338,317.2332469775356 345,329.35760263051776 338,341.48195828349992" />
    <polyline points="9,377.85502524244635 2,365.73066958946418 9,353.606313936482" />
    <polyline points="30,365.73066958946418 23,353.606313936482 30,341.48195828349986 44,341.48195828349986 51,353.606313936482 65,353.606313936482" />
    <polyline points="86,365.73066958946418 93,353.606313936482 107,353.606313936482 114,341.48195828349986" />
    <line x1="128" y1="341.48195828349986" x2="135" y2="353.606313936482" />
    <polyline points="149,353.606313936482 156,341.48195828349986 170,341.48195828349986 177,353.606313936482 191,353.606313936482 198,341.48195828349986 212,341.48195828349986 219,353.606313936482 212,365.73066958946418" />
    <polyline points="233,353.606313936482 240,341.48195828349986 254,341.48195828349986" />
    <line x1="254" y1="365.73066958946418" x2="261" y2="353.606313936482" />
    <polyline points="282,365.73066958946418 275,353.606313936482 282,341.48195828349986 296,341.48195828349986 303,353.606313936482 296,365.73066958946418" />
    <polyline points="303,353.606313936482 317,353.606313936482 324,341.48195828349986 338,341.48195828349986 345,353.606313936482 338,365.73066958946418" />
    <polyline points="9,402.10373654841067 2,389.97938089542851 9,377.85502524244635 23,377.85502524244635 30,389.97938089542851" />
    <line x1="23" y1="377.85502524244635" x2="30" y2="365.73066958946418" />
    <polyline points="44,365.73066958946418 51,377.85502524244635 65,377.85502524244635 72,365.73066958946418 86,365.73066958946418 93,377.85502524244635 107,377.85502524244635" />
    <polyline points="114,365.73066958946418 128,365.73066958946418 135,377.85502524244635 128,389.97938089542851" />
    <polyline points="135,377.85502524244635 149,377.85502524244635 156,389.97938089542851" />
    <polyline points="156,365.73066958946418 170,365.73066958946418 177,377.85502524244635 191,377.85502524244635 198,389.97938089542851" />
    <polyline points="191,377.85502524244635 198,365.73066958946418 212,365.73066958946418 219,377.85502524244635 212,389.97938089542851" />
    <polyline points="219,377.85502524244635 233,377.85502524244635 240,389.97938089542851" />
    <polyline points="233,377.85502524244635 240,365.73066958946418 254,365.73066958946418" />
    <polyline points="254,389.97938089542851 261,377.85502524244635 275,377.85502524244635 282,365.73066958946418" />
    <polyline points="296,365.73066958946418 303,377.85502524244635 296,389.97938089542851" />
    <polyline points="303,377.85502524244635 317,377.85502524244635 324,389.97938089542851" />
    <line x1="317" y1="377.85502524244635" x2="324" y2="365.73066958946418" />
    <polyline points="338,365.73066958946418 345,377.85502524244635 338,389.97938089542851" />
    <polyline points="9,426.35244785437493 2,414.22809220139277 9,402.10373654841061" />
    <polyline points="23,402.10373654841061 30,389.97938089542845 44,389.97938089542845 51,402.10373654841061" />
    <polyline points="65,402.10373654841061 72,389.97938089542845 86,389.97938089542845 93,402.10373654841061 86,414.22809220139277" />
    <polyline points="93,402.10373654841061 107,402.10373654841061 114,414.22809220139277" />
    <polyline points="107,402.10373654841061 114,389.97938089542845 128,389.97938089542845 135,402.10373654841061" />
    <line x1="149" y1="402.10373654841061" x2="156" y2="414.22809220139277" />
    <polyline points="156,389.97938089542845 170,389.97938089542845 177,402.10373654841061 170,414.22809220139277" />
    <line x1="191" y1="402.10373654841061" x2="198" y2="389.97938089542845" />
    <polyline points="212,389.97938089542845 219,402.10373654841061 233,402.10373654841061 240,414.22809220139277" />
    <polyline points="254,389.97938089542845 261,402.10373654841061 275,402.10373654841061 282,414.22809220139277" />
    <line x1="282" y1="389.97938089542845" x2="296" y2="389.97938089542845" />
    <polyline points="296,414.22809220139277 303,402.10373654841061 317,402.10373654841061 324,414.22809220139277" />
    <polyline points="338,389.97938089542845 345,402.10373654841061 338,414.22809220139277" />
    <polyline points="9,450.60115916033919 2,438.47680350735703 9,426.35244785437487 23,426.35244785437487 30,438.47680350735703" />
    <polyline points="23,426.35244785437487 30,414.22809220139271 44,414.22809220139271" />
    <polyline points="51,426.35244785437487 65,426.35244785437487 72,438.47680350735703" />
    <polyline points="65,426.35244785437487 72,414.22809220139271 86,414.22809220139271" />
    <line x1="86" y1="438.47680350735703" x2="93" y2="426.35244785437487" />
    <polyline points="114,438.47680350735703 107,426.35244785437487 114,414.22809220139271" />
    <polyline points="128,414.22809220139271 135,426.35244785437487 128,438.47680350735703" />
    <polyline points="149,426.35244785437487 156,414.22809220139271 170,414.22809220139271 177,426.35244785437487" />
    <polyline points="198,438.47680350735703 191,426.35244785437487 198,414.22809220139271" />
    <polyline points="212,414.22809220139271 219,426.35244785437487 212,438.47680350735703" />
    <line x1="233" y1="426.35244785437487" x2="240" y2="438.47680350735703" />
    <polyline points="240,414.22809220139271 254,414.22809220139271 261,426.35244785437487 275,426.35244785437487 282,414.22809220139271 296,414.22809220139271" />
    <polyline points="303,426.35244785437487 317,426.35244785437487 324,438.47680350735703" />
    <polyline points="338,414.22809220139271 345,426.35244785437487 338,438.47680350735703" />
    <polyline points="9,474.84987046630351 2,462.72551481332135 9,450.60115916033919" />
    <polyline points="30,462.72551481332135 23,450.60115916033919 30,438.47680350735703" />
    <polyline points="44,438.47680350735703 51,450.60115916033919 44,462.72551481332135" />
    <line x1="65" y1="450.60115916033919" x2="72" y2="462.72551481332135" />
    <line x1="72" y1="438.47680350735703" x2="86" y2="438.47680350735703" />
    <polyline points="86,462.72551481332135 93,450.60115916033919 107,450.60115916033919 114,438.47680350735703" />
    <polyline points="128,438.47680350735703 135,450.60115916033919 128,462.72551481332135" />
    <polyline points="156,462.72551481332135 149,450.60115916033919 156,438.47680350735703 170,438.47680350735703 177,450.60115916033919 191,450.60115916033919 198,462.72551481332135" />
    <line x1="191" y1="450.60115916033919" x2="198" y2="438.47680350735703" />
    <polyline points="212,438.47680350735703 219,450.60115916033919 212,462.72551481332135" />
    <line x1="219" y1="450.60115916033919" x2="233" y2="450.60115916033919" />
    <polyline points="240,438.47680350735703 254,438.47680350735703 261,450.60115916033919 254,462.72551481332135" />
    <line x1="261" y1="450.60115916033919" x2="275" y2="450.60115916033919" />
    <polyline points="282,438.47680350735703 296,438.47680350735703 303,450.60115916033919 296,462.72551481332135" />
    <polyline points="317,450.60115916033919 324,438.47680350735703 338,438.47680350735703 345,450.60115916033919 338,462.72551481332135" />
    <polyline points="9,499.09858177226778 2,486.97422611928562 9,474.84987046630346 23,474.84987046630346" />
    <line x1="30" y1="462.7255148133213" x2="44" y2="462.7255148133213" />
    <polyline points="51,474.84987046630346 65,474.84987046630346 72,486.97422611928562" />
    <polyline points="65,474.84987046630346 72,462.7255148133213 86,462.7255148133213 93,474.84987046630346 86,486.97422611928562" />
    <polyline points="107,474.84987046630346 114,462.7255148133213 128,462.7255148133213 135,474.84987046630346 128,486.97422611928562" />
    <polyline points="135,474.84987046630346 149,474.84987046630346 156,462.7255148133213" />
    <polyline points="170,462.7255148133213 177,474.84987046630346 191,474.84987046630346 198,486.97422611928562" />
    <line x1="191" y1="474.84987046630346" x2="198" y2="462.7255148133213" />
    <polyline points="212,462.7255148133213 219,474.84987046630346 233,474.84987046630346 240,486.97422611928562" />
    <polyline points="233,474.84987046630346 240,462.7255148133213 254,462.7255148133213 261,474.84987046630346 254,486.97422611928562" />
    <polyline points="282,486.97422611928562 275,474.84987046630346 282,462.7255148133213 296,462.7255148133213 303,474.84987046630346 296,486.97422611928562" />
    <line x1="303" y1="474.84987046630346" x2="317" y2="474.84987046630346" />
    <polyline points="324,462.7255148133213 338,462.7255148133213 345,474.84987046630346 338,486.97422611928562" />
    <polyline points="9,523.347293078232 2,511.22293742524988 9,499.09858177226772 23,499.09858177226772" />
    <polyline points="30,486.97422611928556 44,486.97422611928556 51,499.09858177226772 44,511.22293742524988" />
    <line x1="65" y1="499.09858177226772" x2="72" y2="486.97422611928556" />
    <polyline points="86,486.97422611928556 93,499.09858177226772 86,511.22293742524988" />
    <polyline points="93,499.09858177226772 107,499.09858177226772 114,486.97422611928556" />
    <line x1="128" y1="486.97422611928556" x2="135" y2="499.09858177226772" />
    <polyline points="149,499.09858177226772 156,486.97422611928556 170,486.97422611928556 177,499.09858177226772 170,511.22293742524988" />
    <polyline points="198,511.22293742524988 191,499.09858177226772 198,486.97422611928556 212,486.97422611928556" />
    <polyline points="219,499.09858177226772 233,499.09858177226772 240,486.97422611928556" />
    <polyline points="254,486.97422611928556 261,499.09858177226772 254,511.22293742524988" />
    <polyline points="282,511.22293742524988 275,499.09858177226772 282,486.97422611928556" />
    <line x1="296" y1="486.97422611928556" x2="303" y2="499.09858177226772" />
    <line x1="317" y1="499.09858177226772" x2="324" y2="511.22293742524988" />
    <polyline points="324,486.97422611928556 338,486.97422611928556 345,499.09858177226772 338,511.22293742524988" />
    <polyline points="30,511.22293742524988 23,523.347293078232 9,523.347293078232" />
    <line x1="44" y1="511.22293742524988" x2="30" y2="511.22293742524988" />
    <polyline points="72,511.22293742524988 65,523.347293078232 51,523.347293078232 44,511.22293742524988" />
    <line x1="86" y1="511.22293742524988" x2="72" y2="511.22293742524988" />
    <polyline points="114,511.22293742524988 107,523.347293078232 93,523.347293078232 86,511.22293742524988" />
    <line x1="128" y1="511.22293742524988" x2="114" y2="511.22293742524988" />
    <polyline points="156,511.22293742524988 149,523.347293078232 135,523.347293078232 128,511.22293742524988" />
    <line x1="170" y1="511.22293742524988" x2="156" y2="511.22293742524988" />
    <line x1="198" y1="511.22293742524988" x2="191" y2="523.347293078232" />
    <line x1="177" y1="523.347293078232" x2="170" y2="511.22293742524988" />
    <line x1="212" y1="511.22293742524988" x2="198" y2="511.22293742524988" />
    <polyline points="240,511.22293742524988 233,523.347293078232 219,523.347293078232 212,511.22293742524988" />
    <line x1="254" y1="511.22293742524988" x2="240" y2="511.22293742524988" />
    <polyline points="282,511.22293742524988 275,523.347293078232 261,523.347293078232 254,511.22293742524988" />
    <line x1="296" y1="511.22293742524988" x2="282" y2="511.22293742524988" />
    <polyline points="324,511.22293742524988 317,523.347293078232 303,523.347293078232 296,511.22293742524988" />
    <line x1="338" y1="511.22293742524988" x2="324" y2="511.22293742524988" />
  </g>
  <polyline fill="none" stroke="#ff0000" stroke-width="2" stroke-linecap="square" stroke-linejoin="round" points="163,1.9999999999999822 163,38.3730669589464 142,50.497422611928542 142,74.74613391789282 121,62.621778264910681 121,86.870489570874966 100,98.994845223857112 37,62.621778264910681 37,86.870489570874966 58,98.994845223857112 58,123.24355652982139 79,111.11920087683924 100,123.24355652982139 100,147.49226783578567 142,171.74097914174996 142,195.98969044771422 184,220.23840175367852 184,244.48711305964281 163,232.36275740666068 163,256.61146871262491 142,268.73582436560707 163,280.86018001858918 163,305.1088913245535 142,317.23324697753566 142,365.73066958946418 184,389.97938089542851 184,438.47680350735703 163,426.35244785437487 142,438.47680350735703 142,414.22809220139277 121,402.10373654841061 121,450.60115916033919 100,462.72551481332135 100,486.97422611928562 121,474.84987046630346 121,499.09858177226772 142,511.22293742524988 142,486.97422611928562 163,474.84987046630346 184,486.97422611928562 184,523.347293078232" />
  <type>Rectangular</type>
</svg>