<?xml version="1.0" encoding="utf-8" standalone="no"?>
<!DOCTYPE svg PUBLIC "-//W3C//DTD SVG 1.1//EN" "http://www.w3.org/Graphics/SVG/1.1/DTD/svg11.dtd"[]>
<svg width="301" height="327.89350101538" version="1.1" xmlns="http://www.w3.org/2000/svg">
  <title>26 by 17 delta maze</title>
  <g fill="none" stroke="#000000" stroke-width="2" stroke-linecap="round" stroke-linejoin="round">
    <line x1="13" y1="1.9999999999999911" x2="145" y2="1.9999999999999911" />
    <line x1="167" y1="1.9999999999999911" x2="299" y2="1.9999999999999911" />
    <line x1="2" y1="21.052558883257639" x2="68" y2="21.052558883257639" />
    <line x1="156" y1="21.052558883257639" x2="200" y2="21.052558883257639" />
    <line x1="189" y1="40.105117766515292" x2="211" y2="40.105117766515292" />
    <line x1="233" y1="40.105117766515292" x2="277" y2="40.105117766515292" />
    <line x1="24" y1="59.157676649772938" x2="46" y2="59.157676649772938" />
    <line x1="112" y1="59.157676649772938" x2="134" y2="59.157676649772938" />
    <line x1="156" y1="59.157676649772938" x2="178" y2="59.157676649772938" />
    <line x1="244" y1="59.157676649772938" x2="288" y2="59.157676649772938" />
    <line x1="35" y1="78.210235533030584" x2="57" y2="78.210235533030584" />
    <line x1="79" y1="78.210235533030584" x2="101" y2="78.210235533030584" />
    <line x1="167" y1="78.210235533030584" x2="189" y2="78.210235533030584" />
    <line x1="233" y1="78.210235533030584" x2="255" y2="78.210235533030584" />
    <line x1="24" y1="97.262794416288244" x2="46" y2="97.262794416288244" />
    <line x1="68" y1="97.262794416288244" x2="156" y2="97.262794416288244" />
    <line x1="266" y1="97.262794416288244" x2="288" y2="97.262794416288244" />
    <line x1="13" y1="116.31535329954589" x2="79" y2="116.31535329954589" />
    <line x1="101" y1="116.31535329954589" x2="123" y2="116.31535329954589" />
    <line x1="145" y1="116.31535329954589" x2="167" y2="116.31535329954589" />
    <line x1="233" y1="116.31535329954589" x2="255" y2="116.31535329954589" />
    <line x1="277" y1="116.31535329954589" x2="299" y2="116.31535329954589" />
    <line x1="24" y1="135.36791218280354" x2="68" y2="135.36791218280354" />
    <line x1="90" y1="135.36791218280354" x2="112" y2="135.36791218280354" />
    <line x1="200" y1="135.36791218280354" x2="222" y2="135.36791218280354" />
    <line x1="35" y1="154.4204710660612" x2="57" y2="154.4204710660612" />
    <line x1="79" y1="154.4204710660612" x2="101" y2="154.4204710660612" />
    <line x1="123" y1="154.4204710660612" x2="145" y2="154.4204710660612" />
    <line x1="189" y1="154.4204710660612" x2="211" y2="154.4204710660612" />
    <line x1="2" y1="173.47302994931883" x2="24" y2="173.47302994931883" />
    <line x1="46" y1="173.47302994931883" x2="68" y2="173.47302994931883" />
    <line x1="134" y1="173.47302994931883" x2="178" y2="173.47302994931883" />
    <line x1="200" y1="173.47302994931883" x2="222" y2="173.47302994931883" />
    <line x1="266" y1="173.47302994931883" x2="288" y2="173.47302994931883" />
    <line x1="57" y1="192.52558883257649" x2="79" y2="192.52558883257649" />
    <line x1="90" y1="211.57814771583415" x2="112" y2="211.57814771583415" />
    <line x1="222" y1="211.57814771583415" x2="244" y2="211.57814771583415" />
    <line x1="35" y1="230.63070659909178" x2="145" y2="230.63070659909178" />
    <line x1="167" y1="230.63070659909178" x2="233" y2="230.63070659909178" />
    <line x1="46" y1="249.68326548234944" x2="134" y2="249.68326548234944" />
    <line x1="178" y1="249.68326548234944" x2="200" y2="249.68326548234944" />
    <line x1="222" y1="249.68326548234944" x2="244" y2="249.68326548234944" />
    <line x1="101" y1="268.73582436560707" x2="123" y2="268.73582436560707" />
    <line x1="167" y1="268.73582436560707" x2="189" y2="268.73582436560707" />
    <line x1="90" y1="287.78838324886476" x2="112" y2="287.78838324886476" />
    <line x1="156" y1="287.78838324886476" x2="178" y2="287.78838324886476" />
    <line x1="233" y1="306.84094213212234" x2="277" y2="306.84094213212234" />
    <line x1="2" y1="325.89350101538" x2="134" y2="325.89350101538" />
    <line x1="156" y1="325.89350101538" x2="288" y2="325.89350101538" />
    <polyline points="13,1.9999999999999911 2,21.052558883257639 13,40.105117766515292 2,59.157676649772938" />
    <line x1="2" y1="59.157676649772945" x2="13" y2="78.2102355330306" />
    <line x1="13" y1="78.210235533030584" x2="2" y2="97.262794416288244" />
    <polyline points="2,97.26279441628823 13,116.31535329954589 2,135.36791218280354 13,154.42047106606117" />
    <line x1="13" y1="154.4204710660612" x2="2" y2="173.47302994931883" />
    <polyline points="2,173.47302994931886 13,192.52558883257649 2,211.57814771583412" />
    <line x1="2" y1="211.57814771583415" x2="13" y2="230.63070659909178" />
    <line x1="13" y1="230.63070659909181" x2="2" y2="249.68326548234944" />
    <polyline points="2,249.68326548234941 13,268.73582436560707 2,287.78838324886476 13,306.84094213212245" />
    <line x1="13" y1="306.84094213212234" x2="2" y2="325.89350101538" />
    <line x1="24" y1="59.157676649772945" x2="13" y2="78.2102355330306" />
    <line x1="13" y1="268.73582436560707" x2="24" y2="287.78838324886476" />
    <line x1="35" y1="40.105117766515292" x2="24" y2="59.157676649772938" />
    <line x1="35" y1="78.210235533030584" x2="24" y2="97.262794416288244" />
    <line x1="35" y1="192.52558883257649" x2="24" y2="211.57814771583412" />
    <line x1="35" y1="230.63070659909181" x2="24" y2="249.68326548234944" />
    <line x1="24" y1="287.78838324886476" x2="35" y2="306.84094213212245" />
    <line x1="35" y1="154.4204710660612" x2="46" y2="173.47302994931883" />
    <line x1="46" y1="173.47302994931886" x2="35" y2="192.52558883257649" />
    <line x1="46" y1="211.57814771583415" x2="35" y2="230.63070659909178" />
    <polyline points="46,249.68326548234941 35,268.73582436560707 46,287.78838324886476 35,306.84094213212245" />
    <line x1="46" y1="21.052558883257639" x2="57" y2="40.105117766515292" />
    <line x1="46" y1="173.47302994931886" x2="57" y2="192.52558883257649" />
    <line x1="46" y1="249.68326548234941" x2="57" y2="268.73582436560707" />
    <line x1="68" y1="59.157676649772945" x2="57" y2="78.2102355330306" />
    <line x1="57" y1="78.210235533030584" x2="68" y2="97.262794416288244" />
    <line x1="68" y1="135.36791218280354" x2="57" y2="154.42047106606117" />
    <line x1="57" y1="192.52558883257649" x2="68" y2="211.57814771583412" />
    <line x1="68" y1="287.78838324886476" x2="57" y2="306.84094213212245" />
    <line x1="57" y1="306.84094213212234" x2="68" y2="325.89350101538" />
    <line x1="68" y1="135.36791218280354" x2="79" y2="154.42047106606117" />
    <line x1="79" y1="268.73582436560707" x2="68" y2="287.78838324886476" />
    <line x1="90" y1="21.052558883257639" x2="79" y2="40.105117766515292" />
    <line x1="90" y1="59.157676649772945" x2="79" y2="78.2102355330306" />
    <line x1="79" y1="116.31535329954589" x2="90" y2="135.36791218280354" />
    <line x1="79" y1="192.52558883257649" x2="90" y2="211.57814771583412" />
    <line x1="79" y1="306.84094213212234" x2="90" y2="325.89350101538" />
    <line x1="101" y1="1.9999999999999911" x2="90" y2="21.052558883257639" />
    <line x1="101" y1="40.105117766515292" x2="90" y2="59.157676649772938" />
    <line x1="101" y1="78.210235533030584" x2="90" y2="97.262794416288244" />
    <line x1="90" y1="173.47302994931886" x2="101" y2="192.52558883257649" />
    <line x1="112" y1="21.052558883257639" x2="101" y2="40.105117766515292" />
    <line x1="101" y1="154.4204710660612" x2="112" y2="173.47302994931883" />
    <line x1="101" y1="192.52558883257649" x2="112" y2="211.57814771583412" />
    <polyline points="112,249.68326548234941 101,268.73582436560707 112,287.78838324886476" />
    <line x1="101" y1="306.84094213212234" x2="112" y2="325.89350101538" />
    <line x1="123" y1="78.210235533030584" x2="112" y2="97.262794416288244" />
    <line x1="123" y1="192.52558883257649" x2="112" y2="211.57814771583412" />
    <line x1="112" y1="287.78838324886476" x2="123" y2="306.84094213212245" />
    <polyline points="134,21.052558883257639 123,40.105117766515292 134,59.157676649772938" />
    <line x1="123" y1="116.31535329954589" x2="134" y2="135.36791218280354" />
    <line x1="134" y1="173.47302994931886" x2="123" y2="192.52558883257649" />
    <line x1="123" y1="268.73582436560707" x2="134" y2="287.78838324886476" />
    <line x1="145" y1="40.105117766515292" x2="134" y2="59.157676649772938" />
    <line x1="145" y1="78.210235533030584" x2="134" y2="97.262794416288244" />
    <polyline points="145,116.31535329954589 134,135.36791218280354 145,154.42047106606117" />
    <line x1="145" y1="192.52558883257649" x2="134" y2="211.57814771583412" />
    <line x1="145" y1="306.84094213212234" x2="134" y2="325.89350101538" />
    <line x1="156" y1="21.052558883257639" x2="145" y2="40.105117766515292" />
    <line x1="156" y1="59.157676649772945" x2="145" y2="78.2102355330306" />
    <line x1="156" y1="97.26279441628823" x2="145" y2="116.31535329954589" />
    <line x1="145" y1="192.52558883257649" x2="156" y2="211.57814771583412" />
    <line x1="156" y1="211.57814771583415" x2="145" y2="230.63070659909178" />
    <line x1="156" y1="249.68326548234941" x2="145" y2="268.73582436560707" />
    <line x1="156" y1="287.78838324886476" x2="145" y2="306.84094213212245" />
    <line x1="156" y1="21.052558883257639" x2="167" y2="40.105117766515292" />
    <polyline points="167,116.31535329954589 156,135.36791218280354 167,154.42047106606117" />
    <line x1="167" y1="192.52558883257649" x2="156" y2="211.57814771583412" />
    <line x1="167" y1="230.63070659909181" x2="156" y2="249.68326548234944" />
    <line x1="156" y1="249.68326548234941" x2="167" y2="268.73582436560707" />
    <line x1="167" y1="306.84094213212234" x2="156" y2="325.89350101538" />
    <line x1="167" y1="40.105117766515292" x2="178" y2="59.157676649772938" />
    <line x1="167" y1="78.210235533030584" x2="178" y2="97.262794416288244" />
    <line x1="167" y1="154.4204710660612" x2="178" y2="173.47302994931883" />
    <line x1="167" y1="192.52558883257649" x2="178" y2="211.57814771583412" />
    <polyline points="178,97.26279441628823 189,116.31535329954589 178,135.36791218280354 189,154.42047106606117" />
    <line x1="178" y1="173.47302994931886" x2="189" y2="192.52558883257649" />
    <line x1="178" y1="211.57814771583415" x2="189" y2="230.63070659909178" />
    <polyline points="189,268.73582436560707 178,287.78838324886476 189,306.84094213212245" />
    <line x1="189" y1="40.105117766515292" x2="200" y2="59.157676649772938" />
    <line x1="200" y1="59.157676649772945" x2="189" y2="78.2102355330306" />
    <polyline points="200,173.47302994931886 189,192.52558883257649 200,211.57814771583412" />
    <line x1="211" y1="1.9999999999999911" x2="200" y2="21.052558883257639" />
    <polyline points="200,97.26279441628823 211,116.31535329954589 200,135.36791218280354 211,154.42047106606117" />
    <polyline points="200,249.68326548234941 211,268.73582436560707 200,287.78838324886476 211,306.84094213212245" />
    <line x1="211" y1="306.84094213212234" x2="200" y2="325.89350101538" />
    <line x1="211" y1="1.9999999999999911" x2="222" y2="21.052558883257639" />
    <line x1="211" y1="40.105117766515292" x2="222" y2="59.157676649772938" />
    <line x1="211" y1="78.210235533030584" x2="222" y2="97.262794416288244" />
    <line x1="211" y1="192.52558883257649" x2="222" y2="211.57814771583412" />
    <line x1="211" y1="230.63070659909181" x2="222" y2="249.68326548234944" />
    <line x1="211" y1="268.73582436560707" x2="222" y2="287.78838324886476" />
    <line x1="222" y1="59.157676649772945" x2="233" y2="78.2102355330306" />
    <line x1="222" y1="97.26279441628823" x2="233" y2="116.31535329954589" />
    <line x1="233" y1="154.4204710660612" x2="222" y2="173.47302994931883" />
    <line x1="222" y1="249.68326548234941" x2="233" y2="268.73582436560707" />
    <line x1="233" y1="116.31535329954589" x2="244" y2="135.36791218280354" />
    <line x1="244" y1="173.47302994931886" x2="233" y2="192.52558883257649" />
    <polyline points="233,268.73582436560707 244,287.78838324886476 233,306.84094213212245" />
    <polyline points="244,21.052558883257639 255,40.105117766515292 244,59.157676649772938" />
    <line x1="255" y1="78.210235533030584" x2="244" y2="97.262794416288244" />
    <line x1="244" y1="97.26279441628823" x2="255" y2="116.31535329954589" />
    <line x1="244" y1="135.36791218280354" x2="255" y2="154.42047106606117" />
    <line x1="255" y1="154.4204710660612" x2="244" y2="173.47302994931883" />
    <polyline points="244,173.47302994931886 255,192.52558883257649 244,211.57814771583412" />
    <line x1="244" y1="211.57814771583415" x2="255" y2="230.63070659909178" />
    <line x1="255" y1="1.9999999999999911" x2="266" y2="21.052558883257639" />
    <line x1="255" y1="230.63070659909181" x2="266" y2="249.68326548234944" />
    <line x1="255" y1="268.73582436560707" x2="266" y2="287.78838324886476" />
    <line x1="266" y1="135.36791218280354" x2="277" y2="154.42047106606117" />
    <line x1="277" y1="154.4204710660612" x2="266" y2="173.47302994931883" />
    <line x1="266" y1="211.57814771583415" x2="277" y2="230.63070659909178" />
    <polyline points="266,249.68326548234941 277,268.73582436560707 266,287.78838324886476 277,306.84094213212245" />
    <line x1="277" y1="78.210235533030584" x2="288" y2="97.262794416288244" />
    <line x1="277" y1="192.52558883257649" x2="288" y2="211.57814771583412" />
    <line x1="277" y1="230.63070659909181" x2="288" y2="249.68326548234944" />
    <polyline points="299,1.9999999999999911 288,21.052558883257639 299,40.105117766515292 288,59.157676649772938" />
    <line x1="288" y1="59.157676649772945" x2="299" y2="78.2102355330306" />
    <line x1="299" y1="78.210235533030584" x2="288" y2="97.262794416288244" />
    <polyline points="288,97.26279441628823 299,116.31535329954589 288,135.36791218280354 299,154.42047106606117" />
    <line x1="299" y1="154.4204710660612" x2="288" y2="173.47302994931883" />
    <polyline points="288,173.47302994931886 299,192.52558883257649 288,211.57814771583412" />
    <line x1="288" y1="211.57814771583415" x2="299" y2="230.63070659909178" />
    <line x1="299" y1="230.63070659909181" x2="288" y2="249.68326548234944" />
    <polyline points="288,249.68326548234941 299,268.73582436560707 288,287.78838324886476 299,306.84094213212245" />
    <line x1="299" y1="306.84094213212234" x2="288" y2="325.89350101538" />
  </g>
  <polyline fill="none" stroke="#ff0000" stroke-width="2" stroke-linecap="square" stroke-linejoin="round" points="156,1.9999999999999911 150.5,11.526279441628816 106.5,11.526279441628816 84.5,49.631397208144115 62.5,49.631397208144115 51.5,68.683956091401768 29.5,68.683956091401768 13,97.262794416288244 18.5,106.78907385791706 84.5,106.78907385791706 95.5,125.84163274117472 117.5,125.84163274117472 123,135.36791218280354 117.5,144.89419162443235 84.5,144.89419162443235 73.5,125.84163274117472 18.5,125.84163274117472 13,135.36791218280354 35,173.47302994931883 13,211.57814771583415 18.5,221.10442715746297 29.5,221.10442715746297 40.5,202.0518682742053 51.5,202.0518682742053 62.5,221.10442715746297 117.5,221.10442715746297 139.5,182.99930939094767 172.5,182.99930939094767 194.5,221.10442715746297 205.5,221.10442715746297 211,211.57814771583415 200,192.52558883257649 205.5,182.99930939094767 227.5,182.99930939094767 244,154.4204710660612 238.5,144.89419162443235 227.5,144.89419162443235 216.5,163.94675050769 183.5,163.94675050769 167,135.36791218280354 178,116.31535329954589 156,78.210235533030584 161.5,68.683956091401768 183.5,68.683956091401768 189,59.157676649772938 178,40.105117766515292 183.5,30.578838324886465 216.5,30.578838324886465 238.5,68.683956091401768 260.5,68.683956091401768 266,78.210235533030584 255,97.262794416288244 266,116.31535329954589 255,135.36791218280354 266,154.4204710660612 255,173.47302994931883 266,192.52558883257649 255,211.57814771583415 288,268.73582436560707 277,287.78838324886476 288,306.84094213212234 282.5,316.36722157375118 227.5,316.36722157375118 222,306.84094213212234 233,287.78838324886476 205.5,240.15698604072063 172.5,240.15698604072063 167,249.68326548234944 172.5,259.20954492397823 194.5,259.20954492397823 200,268.73582436560707 189,287.78838324886476 200,306.84094213212234 194.5,316.36722157375118 183.5,316.36722157375118 172.5,297.31466269049361 161.5,297.31466269049361 145,325.89350101538" />
  <type>Rectangular</type>
</svg>