<?xml version="1.0" encoding="utf-8" standalone="no"?>
<!DOCTYPE svg PUBLIC "-//W3C//DTD SVG 1.1//EN" "http://www.w3.org/Graphics/SVG/1.1/DTD/svg11.dtd"[]>
<svg width="244" height="244" version="1.1" xmlns="http://www.w3.org/2000/svg">
  <title>15 cells diameter theta maze</title>
  <g fill="none" stroke="#000000" stroke-width="2" stroke-linecap="square">
    <path d="M 106.02943725152286,139.97056274847714 A 24,24 0 1,1 123,147" />
    <path d="M 107.69266270539639,86.044818699548543 A 40,40 0 0,1 123,83" />
    <path d="M 138.3073372946036,86.044818699548529 A 40,40 0 0,1 151.2842712474619,94.7157287525381" />
    <path d="M 159.95518130045147,107.6926627053964 A 40,40 0 0,1 159.95518130045147,138.3073372946036" />
    <path d="M 138.3073372946036,159.95518130045147 A 40,40 0 0,1 94.7157287525381,151.2842712474619" />
    <path d="M 86.044818699548529,138.3073372946036 A 40,40 0 0,1 94.7157287525381,94.7157287525381" />
    <path d="M 123,67 A 56,56 0 0,1 162.59797974644667,83.402020253553331" />
    <path d="M 174.73725382063205,101.56972778755497 A 56,56 0 0,1 162.59797974644667,162.59797974644664" />
    <path d="M 144.43027221244503,174.73725382063205 A 56,56 0 0,1 83.402020253553346,162.59797974644667" />
    <path d="M 71.262746179367952,144.43027221244506 A 56,56 0 0,1 71.262746179367952,101.56972778755497" />
    <path d="M 95.446792869713491,56.480673659187374 A 72,72 0 0,1 137.04650318516124,52.383459810967409" />
    <path d="M 150.55320713028647,56.48067365918736 A 72,72 0 0,1 189.51932634081265,95.446792869713533" />
    <path d="M 193.61654018903261,108.95349681483876 A 72,72 0 0,1 195,123" />
    <path d="M 193.61654018903261,137.04650318516124 A 72,72 0 0,1 189.51932634081265,150.55320713028647" />
    <path d="M 173.91168824543144,173.91168824543141 A 72,72 0 0,1 123.00000000000001,195" />
    <path d="M 108.95349681483876,193.61654018903261 A 72,72 0 0,1 95.446792869713548,189.51932634081265" />
    <path d="M 82.998943222588665,182.86581208578326 A 72,72 0 0,1 72.0883117545686,173.91168824543144" />
    <path d="M 63.134187914216739,163.00105677741135 A 72,72 0 0,1 56.480673659187374,150.5532071302865" />
    <path d="M 51,123.00000000000001 A 72,72 0 0,1 52.383459810967409,108.95349681483876" />
    <path d="M 56.48067365918736,95.446792869713519 A 72,72 0 0,1 63.134187914216724,82.998943222588665" />
    <path d="M 72.088311754568565,72.0883117545686 A 72,72 0 0,1 82.99894322258865,63.134187914216746" />
    <path d="M 89.323857951872043,41.698601139006783 A 88,88 0 0,1 123,35" />
    <path d="M 140.16794833741929,36.690895324515722 A 88,88 0 0,1 171.890180505725,49.83067411737602" />
    <path d="M 204.30139886099323,89.3238579518721 A 88,88 0 0,1 209.30910467548426,105.83205166258071" />
    <path d="M 211,123 A 88,88 0 0,1 209.30910467548426,140.16794833741929" />
    <path d="M 196.16932588262398,171.89018050572497 A 88,88 0 0,1 185.22539674441617,185.22539674441617" />
    <path d="M 171.89018050572497,196.16932588262398 A 88,88 0 0,1 74.10981949427503,196.16932588262398" />
    <path d="M 41.698601139006783,156.67614204812796 A 88,88 0 0,1 35,123.00000000000001" />
    <path d="M 49.830674117375992,74.10981949427503 A 88,88 0 0,1 74.109819494275,49.83067411737602" />
    <path d="M 123,19 A 104,104 0 0,1 162.79907696596933,26.916528618826177" />
    <path d="M 180.77930423403862,36.527160320535287 A 104,104 0 0,1 196.53910524340094,49.46089475659906" />
    <path d="M 209.4728396794647,65.220695765961366 A 104,104 0 0,1 219.08347138117381,83.200923034030666" />
    <path d="M 225.00166916193598,102.71060651032266 A 104,104 0 0,1 227,123" />
    <path d="M 196.53910524340097,196.53910524340094 A 104,104 0 0,1 180.77930423403862,209.4728396794647" />
    <path d="M 162.79907696596933,219.08347138117381 A 104,104 0 0,1 123.00000000000001,227" />
    <path d="M 83.20092303403068,219.08347138117381 A 104,104 0 0,1 65.220695765961409,209.47283967946473" />
    <path d="M 36.527160320535287,180.77930423403862 A 104,104 0 0,1 36.527160320535273,65.220695765961409" />
    <path d="M 49.460894756599046,49.460894756599075 A 104,104 0 0,1 65.220695765961366,36.5271603205353" />
    <path d="M 83.200923034030609,26.916528618826206 A 104,104 0 0,1 102.71060651032261,20.998330838064049" />
    <path d="M 146.41083864193539,5.3057663516123483 A 120,120 0 1,1 123,3" />
  </g>
  <g fill="none" stroke="#000000" stroke-width="2" stroke-linecap="butt">
    <line x1="123" y1="3" x2="123" y2="35" />
    <line x1="123" y1="83" x2="123" y2="99" />
    <line x1="140.16794833741929" y1="36.690895324515722" x2="137.04650318516124" y2="52.383459810967409" />
    <line x1="180.77930423403862" y1="36.5271603205353" x2="171.890180505725" y2="49.83067411737602" />
    <line x1="207.85281374238571" y1="38.147186257614294" x2="185.22539674441617" y2="60.774603255583813" />
    <line x1="173.91168824543144" y1="72.088311754568565" x2="151.2842712474619" y2="94.7157287525381" />
    <line x1="209.4728396794647" y1="65.220695765961352" x2="182.86581208578326" y2="82.998943222588636" />
    <line x1="189.51932634081265" y1="95.446792869713533" x2="174.73725382063205" y2="101.56972778755497" />
    <line x1="209.30910467548426" y1="105.83205166258071" x2="193.61654018903261" y2="108.95349681483876" />
    <line x1="243" y1="122.99999999999999" x2="211" y2="123" />
    <line x1="195" y1="123" x2="179" y2="123" />
    <line x1="163" y1="123" x2="147" y2="123" />
    <line x1="225.00166916193598" y1="143.28939348967734" x2="193.61654018903261" y2="137.04650318516124" />
    <line x1="233.86554390135441" y1="168.92201188381077" x2="219.08347138117381" y2="162.79907696596933" />
    <line x1="204.30139886099323" y1="156.6761420481279" x2="189.51932634081265" y2="150.55320713028647" />
    <line x1="209.47283967946473" y1="180.77930423403859" x2="182.86581208578326" y2="163.00105677741135" />
    <line x1="196.53910524340097" y1="196.53910524340094" x2="185.22539674441617" y2="185.22539674441617" />
    <line x1="173.91168824543144" y1="173.91168824543144" x2="151.2842712474619" y2="151.2842712474619" />
    <line x1="189.66842796235227" y1="222.77635347630545" x2="171.890180505725" y2="196.16932588262398" />
    <line x1="123.00000000000001" y1="243" x2="123.00000000000001" y2="227" />
    <line x1="123.00000000000001" y1="211" x2="123.00000000000001" y2="195" />
    <line x1="123" y1="179" x2="123" y2="147" />
    <line x1="99.5891613580646" y1="240.69423364838764" x2="102.71060651032265" y2="225.00166916193598" />
    <line x1="105.83205166258071" y1="209.30910467548426" x2="108.95349681483876" y2="193.61654018903261" />
    <line x1="83.200923034030666" y1="219.08347138117384" x2="89.3238579518721" y2="204.30139886099323" />
    <line x1="74.10981949427503" y1="196.16932588262398" x2="82.99894322258865" y2="182.86581208578326" />
    <line x1="49.46089475659906" y1="196.53910524340097" x2="83.402020253553346" y2="162.59797974644667" />
    <line x1="36.5271603205353" y1="180.77930423403862" x2="63.134187914216746" y2="163.00105677741135" />
    <line x1="56.480673659187374" y1="150.5532071302865" x2="71.262746179367952" y2="144.43027221244506" />
    <line x1="36.690895324515736" y1="140.16794833741932" x2="52.383459810967423" y2="137.04650318516127" />
    <line x1="19" y1="123.00000000000001" x2="35" y2="123.00000000000001" />
    <line x1="5.3057663516123483" y1="99.5891613580646" x2="52.383459810967409" y2="108.95349681483876" />
    <line x1="26.916528618826192" y1="83.200923034030637" x2="41.698601139006783" y2="89.323857951872071" />
    <line x1="36.527160320535273" y1="65.220695765961409" x2="63.134187914216724" y2="82.998943222588665" />
    <line x1="38.14718625761428" y1="38.147186257614322" x2="49.460894756599046" y2="49.460894756599075" />
    <line x1="72.088311754568565" y1="72.0883117545686" x2="94.7157287525381" y2="94.7157287525381" />
    <line x1="74.109819494275" y1="49.83067411737602" x2="82.99894322258865" y2="63.134187914216746" />
    <line x1="95.446792869713491" y1="56.480673659187374" x2="101.56972778755494" y2="71.262746179367952" />
    <line x1="99.589161358064558" y1="5.3057663516123625" x2="102.71060651032261" y2="20.998330838064049" />
  </g>
  <path fill="none" stroke="#ff0000" stroke-width="2" stroke-linecap="square" stroke-linejoin="round" d="M 134.76205683954728,3.5778327993363774 L 133.97791971691078,11.539310612713948 A 112,112 0 0,1 175.79643452451174,24.224818392984233 L 168.25408673529577,38.335558622557912 A 96,96 0 0,0 132.40964547163782,27.462266239469102 L 130.84137122636486,43.385221866224242 A 80,80 0 0,0 85.288261053920166,52.446298852131605 L 92.830608843136133,66.557039081705284 A 64,64 0 0,0 87.443505086745461,69.7859448126371 L 105.22175254337273,96.392972406318549 A 32,32 0 0,0 110.75413016431713,152.56414504036118 L 113.81559762323785,145.17310878027089" />
  <type>Circular</type>
</svg>