<?xml version="1.0" encoding="utf-8" standalone="no"?>
<!DOCTYPE svg PUBLIC "-//W3C//DTD SVG 1.1//EN" "http://www.w3.org/Graphics/SVG/1.1/DTD/svg11.dtd"[]>
<svg width="244" height="244" version="1.1" xmlns="http://www.w3.org/2000/svg">
  <title>15 cells diameter theta maze</title>
  <g fill="none" stroke="#000000" stroke-width="2" stroke-linecap="square">
    <path d="M 106.02943725152286,139.97056274847714 A 24,24 0 1,1 123,147" />
    <path d="M 123,163 A 40,40 0 1,1 138.3073372946036,86.044818699548529" />
    <path d="M 159.95518130045147,107.6926627053964 A 40,40 0 0,1 163,123" />
    <path d="M 151.2842712474619,151.2842712474619 A 40,40 0 0,1 138.3073372946036,159.95518130045147" />
    <path d="M 123,67 A 56,56 0 0,1 144.43027221244503,71.262746179367952" />
    <path d="M 174.73725382063205,101.56972778755497 A 56,56 0 0,1 162.59797974644667,162.59797974644664" />
    <path d="M 144.43027221244503,174.73725382063205 A 56,56 0 0,1 67,123.00000000000001" />
    <path d="M 150.55320713028647,56.48067365918736 A 72,72 0 0,1 182.86581208578326,82.998943222588636" />
    <path d="M 193.61654018903261,137.04650318516124 A 72,72 0 0,1 189.51932634081265,150.55320713028647" />
    <path d="M 173.91168824543144,173.91168824543141 A 72,72 0 0,1 95.446792869713548,189.51932634081265" />
    <path d="M 72.0883117545686,173.91168824543144 A 72,72 0 0,1 52.383459810967409,137.04650318516127" />
    <path d="M 51,123.00000000000001 A 72,72 0 0,1 52.383459810967409,108.95349681483876" />
    <path d="M 56.48067365918736,95.446792869713519 A 72,72 0 0,1 63.134187914216724,82.998943222588665" />
    <path d="M 72.088311754568565,72.0883117545686 A 72,72 0 0,1 108.95349681483873,52.383459810967409" />
    <path d="M 123,35 A 88,88 0 0,1 140.16794833741929,36.690895324515722" />
    <path d="M 156.6761420481279,41.698601139006769 A 88,88 0 0,1 171.890180505725,49.83067411737602" />
    <path d="M 185.22539674441617,60.774603255583813 A 88,88 0 0,1 209.30910467548426,140.16794833741929" />
    <path d="M 185.22539674441617,185.22539674441617 A 88,88 0 0,1 156.6761420481279,204.30139886099323" />
    <path d="M 89.323857951872114,204.30139886099323 A 88,88 0 0,1 60.774603255583827,185.2253967444162" />
    <path d="M 49.83067411737602,171.890180505725 A 88,88 0 0,1 35,123.00000000000001" />
    <path d="M 36.690895324515722,105.83205166258071 A 88,88 0 0,1 41.698601139006769,89.323857951872071" />
    <path d="M 49.830674117375992,74.10981949427503 A 88,88 0 0,1 74.109819494275,49.83067411737602" />
    <path d="M 89.323857951872043,41.698601139006783 A 88,88 0 0,1 105.83205166258067,36.690895324515722" />
    <path d="M 143.28939348967734,20.998330838064035 A 104,104 0 0,1 162.79907696596933,26.916528618826177" />
    <path d="M 180.77930423403862,36.527160320535287 A 104,104 0 0,1 219.08347138117381,83.200923034030666" />
    <path d="M 225.00166916193598,143.28939348967734 A 104,104 0 0,1 219.08347138117381,162.79907696596933" />
    <path d="M 143.28939348967737,225.00166916193598 A 104,104 0 0,1 123.00000000000001,227" />
    <path d="M 102.71060651032265,225.00166916193598 A 104,104 0 0,1 36.527160320535287,180.77930423403862" />
    <path d="M 20.998330838064035,143.28939348967737 A 104,104 0 0,1 20.998330838064035,102.71060651032266" />
    <path d="M 26.916528618826192,83.200923034030637 A 104,104 0 0,1 65.220695765961366,36.5271603205353" />
    <path d="M 146.41083864193539,5.3057663516123483 A 120,120 0 1,1 123,3" />
  </g>
  <g fill="none" stroke="#000000" stroke-width="2" stroke-linecap="butt">
    <line x1="123" y1="19" x2="123" y2="67" />
    <line x1="143.28939348967734" y1="20.998330838064035" x2="137.04650318516124" y2="52.383459810967409" />
    <line x1="168.92201188381077" y1="12.134456098645586" x2="162.79907696596933" y2="26.916528618826177" />
    <line x1="156.6761420481279" y1="41.698601139006769" x2="144.43027221244503" y2="71.262746179367952" />
    <line x1="180.77930423403862" y1="36.5271603205353" x2="171.890180505725" y2="49.83067411737602" />
    <line x1="185.22539674441617" y1="60.774603255583813" x2="151.2842712474619" y2="94.7157287525381" />
    <line x1="189.51932634081265" y1="95.446792869713533" x2="174.73725382063205" y2="101.56972778755497" />
    <line x1="225.00166916193598" y1="102.71060651032265" x2="193.61654018903261" y2="108.95349681483876" />
    <line x1="243" y1="122.99999999999999" x2="227" y2="123" />
    <line x1="211" y1="123" x2="195" y2="123" />
    <line x1="163" y1="123" x2="147" y2="123" />
    <line x1="225.00166916193598" y1="143.28939348967734" x2="209.30910467548426" y2="140.16794833741929" />
    <line x1="219.08347138117381" y1="162.79907696596933" x2="189.51932634081265" y2="150.55320713028647" />
    <line x1="174.73725382063205" y1="144.43027221244503" x2="159.95518130045147" y2="138.3073372946036" />
    <line x1="222.77635347630547" y1="189.66842796235224" x2="182.86581208578326" y2="163.00105677741135" />
    <line x1="196.53910524340097" y1="196.53910524340094" x2="185.22539674441617" y2="185.22539674441617" />
    <line x1="173.91168824543144" y1="173.91168824543144" x2="151.2842712474619" y2="151.2842712474619" />
    <line x1="189.66842796235227" y1="222.77635347630545" x2="180.77930423403862" y2="209.4728396794647" />
    <line x1="168.9220118838108" y1="233.86554390135441" x2="156.6761420481279" y2="204.30139886099323" />
    <line x1="143.28939348967737" y1="225.00166916193598" x2="140.16794833741932" y2="209.30910467548426" />
    <line x1="123.00000000000001" y1="227" x2="123.00000000000001" y2="195" />
    <line x1="123" y1="179" x2="123" y2="163" />
    <line x1="102.71060651032265" y1="225.00166916193598" x2="108.95349681483876" y2="193.61654018903261" />
    <line x1="89.3238579518721" y1="204.30139886099323" x2="101.56972778755498" y2="174.73725382063208" />
    <line x1="74.10981949427503" y1="196.16932588262398" x2="82.99894322258865" y2="182.86581208578326" />
    <line x1="94.7157287525381" y1="151.2842712474619" x2="106.02943725152286" y2="139.97056274847714" />
    <line x1="12.134456098645615" y1="168.92201188381085" x2="41.698601139006783" y2="156.67614204812796" />
    <line x1="56.480673659187374" y1="150.5532071302865" x2="71.262746179367952" y2="144.43027221244506" />
    <line x1="51" y1="123.00000000000001" x2="67" y2="123.00000000000001" />
    <line x1="20.998330838064035" y1="102.71060651032266" x2="36.690895324515722" y2="105.83205166258071" />
    <line x1="12.1344560986456" y1="77.0779881161892" x2="26.916528618826192" y2="83.200923034030637" />
    <line x1="41.698601139006783" y1="89.323857951872071" x2="86.044818699548529" y2="107.6926627053964" />
    <line x1="36.527160320535273" y1="65.220695765961409" x2="49.830674117376006" y2="74.10981949427503" />
    <line x1="72.088311754568565" y1="72.0883117545686" x2="83.402020253553331" y2="83.402020253553346" />
    <line x1="77.077988116189147" y1="12.134456098645615" x2="89.323857951872043" y2="41.698601139006783" />
    <line x1="95.446792869713491" y1="56.480673659187374" x2="107.69266270539639" y2="86.044818699548543" />
    <line x1="99.589161358064558" y1="5.3057663516123625" x2="102.71060651032261" y2="20.998330838064049" />
    <line x1="105.83205166258067" y1="36.690895324515736" x2="108.95349681483873" y2="52.383459810967423" />
  </g>
  <path fill="none" stroke="#ff0000" stroke-width="2" stroke-linecap="square" stroke-linejoin="round" d="M 134.76205683954728,3.5778327993363774 L 133.97791971691078,11.539310612713948 A 112,112 0 0,0 112.02208028308922,11.539310612713948 L 116.72690301890813,59.3081774929794 A 64,64 0 0,0 110.51421939096777,60.22974205419326 L 113.63566454322583,75.922306540644939 A 48,48 0 0,1 149.66737118494092,83.08945860947783 L 140.77824745662727,96.392972406318549 A 32,32 0 0,1 149.60702759368144,105.22175254337273 L 162.91054139052216,96.3326288150591 A 48,48 0 0,1 170.07769345935506,132.36433545677414 L 154.38512897290337,129.2428903045161 A 32,32 0 0,1 110.75413016431713,152.56414504036118 L 113.81559762323785,145.17310878027089" />
  <type>Circular</type>
</svg>