<?xml version="1.0" encoding="utf-8" standalone="no"?>
<!DOCTYPE svg PUBLIC "-//W3C//DTD SVG 1.1//EN" "http://www.w3.org/Graphics/SVG/1.1/DTD/svg11.dtd"[]>
<svg width="244" height="244" version="1.1" xmlns="http://www.w3.org/2000/svg">
  <title>15 cells diameter theta maze</title>
  <g fill="none" stroke="#000000" stroke-width="2" stroke-linecap="square">
    <path d="M 106.02943725152286,139.97056274847714 A 24,24 0 1,1 123,147" />
    <path d="M 123,83 A 40,40 0 0,1 138.3073372946036,86.044818699548529" />
    <path d="M 151.2842712474619,94.7157287525381 A 40,40 0 0,1 163,123" />
    <path d="M 159.95518130045147,138.3073372946036 A 40,40 0 0,1 94.7157287525381,151.2842712474619" />
    <path d="M 83,123.00000000000001 A 40,40 0 0,1 107.69266270539639,86.044818699548543" />
    <path d="M 101.56972778755494,71.262746179367952 A 56,56 0 0,1 174.73725382063205,101.56972778755497" />
    <path d="M 162.59797974644667,162.59797974644664 A 56,56 0 0,1 123,179" />
    <path d="M 101.56972778755498,174.73725382063208 A 56,56 0 0,1 83.402020253553346,162.59797974644667" />
    <path d="M 71.262746179367952,144.43027221244506 A 56,56 0 0,1 71.262746179367952,101.56972778755497" />
    <path d="M 123,51 A 72,72 0 0,1 150.55320713028647,56.48067365918736" />
    <path d="M 163.00105677741135,63.134187914216739 A 72,72 0 0,1 193.61654018903261,108.95349681483876" />
    <path d="M 193.61654018903261,137.04650318516124 A 72,72 0 0,1 189.51932634081265,150.55320713028647" />
    <path d="M 182.86581208578326,163.00105677741135 A 72,72 0 0,1 173.91168824543144,173.91168824543141" />
    <path d="M 150.55320713028647,189.51932634081265 A 72,72 0 0,1 137.04650318516127,193.61654018903261" />
    <path d="M 123.00000000000001,195 A 72,72 0 0,1 108.95349681483876,193.61654018903261" />
    <path d="M 95.446792869713548,189.51932634081265 A 72,72 0 0,1 72.0883117545686,173.91168824543144" />
    <path d="M 52.383459810967409,108.95349681483876 A 72,72 0 0,1 82.99894322258865,63.134187914216746" />
    <path d="M 95.446792869713491,56.480673659187374 A 72,72 0 0,1 108.95349681483873,52.383459810967409" />
    <path d="M 74.109819494275,49.83067411737602 A 88,88 0 0,1 171.890180505725,49.83067411737602" />
    <path d="M 185.22539674441617,60.774603255583813 A 88,88 0 0,1 204.30139886099323,89.3238579518721" />
    <path d="M 204.30139886099323,156.6761420481279 A 88,88 0 0,1 185.22539674441617,185.22539674441617" />
    <path d="M 171.89018050572497,196.16932588262398 A 88,88 0 0,1 89.323857951872114,204.30139886099323" />
    <path d="M 60.774603255583827,185.2253967444162 A 88,88 0 0,1 36.690895324515722,140.16794833741932" />
    <path d="M 35,123.00000000000001 A 88,88 0 0,1 36.690895324515722,105.83205166258071" />
    <path d="M 49.830674117375992,74.10981949427503 A 88,88 0 0,1 60.774603255583806,60.774603255583834" />
    <path d="M 162.79907696596933,26.916528618826177 A 104,104 0 0,1 225.00166916193598,143.28939348967734" />
    <path d="M 219.08347138117381,162.79907696596933 A 104,104 0 0,1 209.47283967946473,180.77930423403859" />
    <path d="M 196.53910524340097,196.53910524340094 A 104,104 0 0,1 180.77930423403862,209.4728396794647" />
    <path d="M 123.00000000000001,227 A 104,104 0 0,1 102.71060651032265,225.00166916193598" />
    <path d="M 83.20092303403068,219.08347138117381 A 104,104 0 0,1 36.527160320535287,180.77930423403862" />
    <path d="M 26.916528618826206,162.79907696596939 A 104,104 0 0,1 19,123.00000000000001" />
    <path d="M 20.998330838064035,102.71060651032266 A 104,104 0 0,1 36.527160320535273,65.220695765961409" />
    <path d="M 49.460894756599046,49.460894756599075 A 104,104 0 0,1 102.71060651032261,20.998330838064049" />
    <path d="M 146.41083864193539,5.3057663516123483 A 120,120 0 1,1 123,3" />
  </g>
  <g fill="none" stroke="#000000" stroke-width="2" stroke-linecap="butt">
    <line x1="123" y1="3" x2="123" y2="19" />
    <line x1="123" y1="51" x2="123" y2="67" />
    <line x1="123" y1="83" x2="123" y2="99" />
    <line x1="143.28939348967734" y1="20.998330838064035" x2="140.16794833741929" y2="36.690895324515722" />
    <line x1="144.43027221244503" y1="71.262746179367952" x2="138.3073372946036" y2="86.044818699548529" />
    <line x1="180.77930423403862" y1="36.5271603205353" x2="171.890180505725" y2="49.83067411737602" />
    <line x1="185.22539674441617" y1="60.774603255583813" x2="173.91168824543144" y2="72.088311754568565" />
    <line x1="225.00166916193598" y1="102.71060651032265" x2="193.61654018903261" y2="108.95349681483876" />
    <line x1="227" y1="123" x2="147" y2="123" />
    <line x1="240.69423364838764" y1="146.41083864193539" x2="209.30910467548426" y2="140.16794833741929" />
    <line x1="219.08347138117381" y1="162.79907696596933" x2="159.95518130045147" y2="138.3073372946036" />
    <line x1="196.53910524340097" y1="196.53910524340094" x2="162.59797974644667" y2="162.59797974644664" />
    <line x1="180.77930423403862" y1="209.4728396794647" x2="163.00105677741135" y2="182.86581208578326" />
    <line x1="162.79907696596933" y1="219.08347138117381" x2="156.6761420481279" y2="204.30139886099323" />
    <line x1="150.55320713028647" y1="189.51932634081265" x2="144.43027221244503" y2="174.73725382063205" />
    <line x1="146.41083864193544" y1="240.69423364838764" x2="143.28939348967737" y2="225.00166916193598" />
    <line x1="123.00000000000001" y1="227" x2="123.00000000000001" y2="211" />
    <line x1="123.00000000000001" y1="195" x2="123" y2="179" />
    <line x1="89.3238579518721" y1="204.30139886099323" x2="95.446792869713548" y2="189.51932634081265" />
    <line x1="65.2206957659614" y1="209.47283967946473" x2="82.99894322258865" y2="182.86581208578326" />
    <line x1="72.088311754568579" y1="173.91168824543144" x2="83.402020253553346" y2="162.59797974644667" />
    <line x1="94.7157287525381" y1="151.2842712474619" x2="106.02943725152286" y2="139.97056274847714" />
    <line x1="36.5271603205353" y1="180.77930423403862" x2="63.134187914216746" y2="163.00105677741135" />
    <line x1="12.134456098645615" y1="168.92201188381085" x2="26.916528618826206" y2="162.79907696596939" />
    <line x1="41.698601139006783" y1="156.67614204812796" x2="86.044818699548543" y2="138.3073372946036" />
    <line x1="36.690895324515736" y1="140.16794833741932" x2="52.383459810967423" y2="137.04650318516127" />
    <line x1="19" y1="123.00000000000001" x2="51" y2="123.00000000000001" />
    <line x1="26.916528618826192" y1="83.200923034030637" x2="56.48067365918736" y2="95.446792869713519" />
    <line x1="36.527160320535273" y1="65.220695765961409" x2="49.830674117376006" y2="74.10981949427503" />
    <line x1="49.460894756599046" y1="49.460894756599075" x2="60.774603255583806" y2="60.774603255583834" />
    <line x1="72.088311754568565" y1="72.0883117545686" x2="94.7157287525381" y2="94.7157287525381" />
    <line x1="95.446792869713491" y1="56.480673659187374" x2="101.56972778755494" y2="71.262746179367952" />
    <line x1="102.71060651032261" y1="20.998330838064049" x2="105.83205166258067" y2="36.690895324515736" />
  </g>
  <path fill="none" stroke="#ff0000" stroke-width="2" stroke-linecap="square" stroke-linejoin="round" d="M 134.76205683954728,3.5778327993363774 L 132.40964547163782,27.462266239469102 A 96,96 0 0,0 113.59035452836218,27.462266239469102 L 112.02208028308922,11.539310612713948 A 112,112 0 0,0 11.539310612713948,112.02208028308927 L 27.462266239469088,113.59035452836223 A 96,96 0 0,1 31.133727769707946,95.132670983571643 L 46.444773141423283,99.777225819643036 A 80,80 0 0,0 43.385221866224242,115.1586287736352 L 59.3081774929794,116.72690301890816 A 64,64 0 0,0 59.3081774929794,129.27309698109187 L 27.462266239469102,132.40964547163782 A 96,96 0 0,0 38.335558622557926,168.2540867352958 L 24.224818392984247,175.79643452451177 A 112,112 0 0,0 133.9779197169108,234.46068938728604 L 132.40964547163785,218.5377337605309 A 96,96 0 0,0 150.86732901642839,214.86627223029205 L 155.51188385249978,230.17731760200741 A 112,112 0 0,0 230.17731760200741,155.51188385249975 L 199.5552268585767,146.22277418035696 A 80,80 0 0,0 202.61477813377576,130.84137122636486 L 186.69182250702062,129.27309698109187 A 64,64 0 0,1 185.77025794580675,135.48578060903219 L 154.38512897290337,129.2428903045161 A 32,32 0 0,1 110.75413016431713,152.56414504036118 L 113.81559762323785,145.17310878027089" />
  <type>Circular</type>
</svg>