<?xml version="1.0" encoding="utf-8" standalone="no"?>
<!DOCTYPE svg PUBLIC "-//W3C//DTD SVG 1.1//EN" "http://www.w3.org/Graphics/SVG/1.1/DTD/svg11.dtd"[]>
<svg width="244" height="244" version="1.1" xmlns="http://www.w3.org/2000/svg">
  <title>15 cells diameter theta maze</title>
  <g fill="none" stroke="#000000" stroke-width="2" stroke-linecap="square">
    <path d="M 106.02943725152286,139.97056274847714 A 24,24 0 1,1 123,147" />
    <path d="M 94.7157287525381,94.7157287525381 A 40,40 0 0,1 151.2842712474619,94.7157287525381" />
    <path d="M 159.95518130045147,107.6926627053964 A 40,40 0 0,1 163,123" />
    <path d="M 159.95518130045147,138.3073372946036 A 40,40 0 0,1 151.2842712474619,151.2842712474619" />
    <path d="M 123,163 A 40,40 0 0,1 107.69266270539642,159.95518130045147" />
    <path d="M 94.7157287525381,151.2842712474619 A 40,40 0 0,1 86.044818699548529,138.3073372946036" />
    <path d="M 83,123.00000000000001 A 40,40 0 0,1 86.044818699548529,107.6926627053964" />
    <path d="M 101.56972778755494,71.262746179367952 A 56,56 0 0,1 123,67" />
    <path d="M 144.43027221244503,71.262746179367952 A 56,56 0 0,1 179,123" />
    <path d="M 162.59797974644667,162.59797974644664 A 56,56 0 0,1 123,179" />
    <path d="M 101.56972778755498,174.73725382063208 A 56,56 0 0,1 83.402020253553346,162.59797974644667" />
    <path d="M 67,123.00000000000001 A 56,56 0 0,1 83.402020253553331,83.402020253553346" />
    <path d="M 123,51 A 72,72 0 0,1 193.61654018903261,108.95349681483876" />
    <path d="M 195,123 A 72,72 0 0,1 150.55320713028647,189.51932634081265" />
    <path d="M 108.95349681483876,193.61654018903261 A 72,72 0 0,1 82.998943222588665,182.86581208578326" />
    <path d="M 72.0883117545686,173.91168824543144 A 72,72 0 0,1 56.480673659187374,150.5532071302865" />
    <path d="M 52.383459810967409,137.04650318516127 A 72,72 0 0,1 63.134187914216724,82.998943222588665" />
    <path d="M 72.088311754568565,72.0883117545686 A 72,72 0 0,1 108.95349681483873,52.383459810967409" />
    <path d="M 74.109819494275,49.83067411737602 A 88,88 0 0,1 140.16794833741929,36.690895324515722" />
    <path d="M 156.6761420481279,41.698601139006769 A 88,88 0 0,1 185.22539674441617,60.774603255583813" />
    <path d="M 209.30910467548426,140.16794833741929 A 88,88 0 0,1 196.16932588262398,171.89018050572497" />
    <path d="M 185.22539674441617,185.22539674441617 A 88,88 0 0,1 123.00000000000001,211" />
    <path d="M 89.323857951872114,204.30139886099323 A 88,88 0 0,1 49.83067411737602,171.890180505725" />
    <path d="M 36.690895324515722,140.16794833741932 A 88,88 0 0,1 41.698601139006769,89.323857951872071" />
    <path d="M 49.830674117375992,74.10981949427503 A 88,88 0 0,1 60.774603255583806,60.774603255583834" />
    <path d="M 123,19 A 104,104 0 0,1 162.79907696596933,26.916528618826177" />
    <path d="M 209.4728396794647,65.220695765961366 A 104,104 0 0,1 219.08347138117381,83.200923034030666" />
    <path d="M 227,123 A 104,104 0 0,1 225.00166916193598,143.28939348967734" />
    <path d="M 219.08347138117381,162.79907696596933 A 104,104 0 0,1 180.77930423403862,209.4728396794647" />
    <path d="M 162.79907696596933,219.08347138117381 A 104,104 0 0,1 143.28939348967737,225.00166916193598" />
    <path d="M 123.00000000000001,227 A 104,104 0 0,1 83.20092303403068,219.08347138117381" />
    <path d="M 49.460894756599075,196.53910524340097 A 104,104 0 0,1 20.998330838064035,143.28939348967737" />
    <path d="M 19,123.00000000000001 A 104,104 0 0,1 20.998330838064035,102.71060651032266" />
    <path d="M 26.916528618826192,83.200923034030637 A 104,104 0 0,1 36.527160320535273,65.220695765961409" />
    <path d="M 49.460894756599046,49.460894756599075 A 104,104 0 0,1 65.220695765961366,36.5271603205353" />
    <path d="M 146.41083864193539,5.3057663516123483 A 120,120 0 1,1 123,3" />
  </g>
  <g fill="none" stroke="#000000" stroke-width="2" stroke-linecap="butt">
    <line x1="123" y1="19" x2="123" y2="35" />
    <line x1="162.79907696596933" y1="26.916528618826177" x2="156.6761420481279" y2="41.698601139006769" />
    <line x1="189.66842796235227" y1="23.223646523694569" x2="180.77930423403862" y2="36.5271603205353" />
    <line x1="207.85281374238571" y1="38.147186257614294" x2="196.53910524340094" y2="49.460894756599046" />
    <line x1="185.22539674441617" y1="60.774603255583813" x2="173.91168824543144" y2="72.088311754568565" />
    <line x1="162.59797974644664" y1="83.402020253553331" x2="151.2842712474619" y2="94.7157287525381" />
    <line x1="209.4728396794647" y1="65.220695765961352" x2="182.86581208578326" y2="82.998943222588636" />
    <line x1="219.08347138117381" y1="83.200923034030666" x2="204.30139886099323" y2="89.3238579518721" />
    <line x1="174.73725382063205" y1="101.56972778755497" x2="159.95518130045147" y2="107.6926627053964" />
    <line x1="240.69423364838764" y1="99.5891613580646" x2="209.30910467548426" y2="105.83205166258071" />
    <line x1="243" y1="122.99999999999999" x2="227" y2="123" />
    <line x1="211" y1="123" x2="179" y2="123" />
    <line x1="219.08347138117381" y1="162.79907696596933" x2="174.73725382063205" y2="144.43027221244503" />
    <line x1="162.59797974644667" y1="162.59797974644664" x2="151.2842712474619" y2="151.2842712474619" />
    <line x1="189.66842796235227" y1="222.77635347630545" x2="180.77930423403862" y2="209.4728396794647" />
    <line x1="144.43027221244503" y1="174.73725382063205" x2="138.3073372946036" y2="159.95518130045147" />
    <line x1="146.41083864193544" y1="240.69423364838764" x2="143.28939348967737" y2="225.00166916193598" />
    <line x1="140.16794833741932" y1="209.30910467548426" x2="137.04650318516127" y2="193.61654018903261" />
    <line x1="123.00000000000001" y1="227" x2="123" y2="179" />
    <line x1="123" y1="163" x2="123" y2="147" />
    <line x1="102.71060651032265" y1="225.00166916193598" x2="108.95349681483876" y2="193.61654018903261" />
    <line x1="95.446792869713548" y1="189.51932634081265" x2="107.69266270539642" y2="159.95518130045147" />
    <line x1="56.33157203764776" y1="222.77635347630547" x2="74.10981949427503" y2="196.16932588262398" />
    <line x1="60.774603255583827" y1="185.2253967444162" x2="72.088311754568579" y2="173.91168824543144" />
    <line x1="94.7157287525381" y1="151.2842712474619" x2="106.02943725152286" y2="139.97056274847714" />
    <line x1="26.916528618826206" y1="162.79907696596939" x2="86.044818699548543" y2="138.3073372946036" />
    <line x1="20.998330838064049" y1="143.28939348967737" x2="36.690895324515736" y2="140.16794833741932" />
    <line x1="19" y1="123.00000000000001" x2="35" y2="123.00000000000001" />
    <line x1="51" y1="123.00000000000001" x2="67" y2="123.00000000000001" />
    <line x1="83" y1="123.00000000000001" x2="99" y2="123" />
    <line x1="26.916528618826192" y1="83.200923034030637" x2="41.698601139006783" y2="89.323857951872071" />
    <line x1="49.460894756599046" y1="49.460894756599075" x2="94.7157287525381" y2="94.7157287525381" />
    <line x1="77.077988116189147" y1="12.134456098645615" x2="83.200923034030609" y2="26.916528618826206" />
    <line x1="95.446792869713491" y1="56.480673659187374" x2="101.56972778755494" y2="71.262746179367952" />
    <line x1="99.589161358064558" y1="5.3057663516123625" x2="102.71060651032261" y2="20.998330838064049" />
    <line x1="105.83205166258067" y1="36.690895324515736" x2="108.95349681483873" y2="52.383459810967423" />
  </g>
  <path fill="none" stroke="#ff0000" stroke-width="2" stroke-linecap="square" stroke-linejoin="round" d="M 134.76205683954728,3.5778327993363774 L 133.97791971691078,11.539310612713948 A 112,112 0 0,0 112.02208028308922,11.539310612713948 L 113.59035452836218,27.462266239469102 A 96,96 0 0,0 77.7459132647042,38.335558622557926 L 70.203565475488233,24.224818392984261 A 112,112 0 0,0 36.422829223373469,51.947952173671695 L 48.790996477177259,62.098244720290026 A 96,96 0 0,0 38.335558622557912,77.745913264704228 L 52.446298852131591,85.2882610539202 A 80,80 0 0,0 46.4447731414233,146.222774180357 L 61.755818513138635,141.5782193442856 A 64,64 0 0,1 60.22974205419326,135.48578060903225 L 75.922306540644939,132.36433545677417 A 48,48 0 0,1 83.089458609477816,96.33262881505911 L 96.392972406318549,105.22175254337275 A 32,32 0 0,1 154.38512897290337,129.2428903045161 L 170.07769345935506,132.36433545677414 A 48,48 0 0,1 162.91054139052218,149.66737118494089 L 176.2140551873629,158.55649491325454 A 64,64 0 0,1 141.5782193442856,184.24418148686135 L 146.222774180357,199.5552268585767 A 80,80 0 0,0 184.84083626901895,173.75146273309161 L 197.20900352282274,183.90175527970996 A 96,96 0 0,1 132.40964547163785,218.5377337605309 L 133.9779197169108,234.46068938728604 A 112,112 0 0,1 70.203565475488261,221.77518160701578 L 77.745913264704228,207.66444137744207 A 96,96 0 0,0 95.132670983571643,214.86627223029205 L 99.777225819643036,199.5552268585767 A 80,80 0 0,1 72.248537266908386,184.84083626901898 L 82.3988298135267,172.47266901521516 A 64,64 0 0,1 69.7859448126371,158.55649491325454 L 83.08945860947783,149.66737118494092 A 48,48 0 0,0 96.33262881505911,162.91054139052218 L 105.22175254337273,149.60702759368147 A 32,32 0 0,0 110.75413016431713,152.56414504036118 L 113.81559762323785,145.17310878027089" />
  <type>Circular</type>
</svg>