<?xml version="1.0" encoding="utf-8" standalone="no"?>
<!DOCTYPE svg PUBLIC "-//W3C//DTD SVG 1.1//EN" "http://www.w3.org/Graphics/SVG/1.1/DTD/svg11.dtd"[]>
<svg width="244" height="244" version="1.1" xmlns="http://www.w3.org/2000/svg">
  <title>15 cells diameter theta maze</title>
  <g fill="none" stroke="#000000" stroke-width="2" stroke-linecap="square">
    <path d="M 106.02943725152286,139.97056274847714 A 24,24 0 1,1 123,147" />
    <path d="M 123,83 A 40,40 0 0,1 151.2842712474619,151.2842712474619" />
    <path d="M 138.3073372946036,159.95518130045147 A 40,40 0 0,1 123,163" />
    <path d="M 107.69266270539642,159.95518130045147 A 40,40 0 0,1 83,123.00000000000001" />
    <path d="M 86.044818699548529,107.6926627053964 A 40,40 0 0,1 94.7157287525381,94.7157287525381" />
    <path d="M 174.73725382063205,101.56972778755497 A 56,56 0 0,1 179,123" />
    <path d="M 174.73725382063208,144.43027221244503 A 56,56 0 0,1 123,179" />
    <path d="M 83.402020253553346,162.59797974644667 A 56,56 0 0,1 71.262746179367952,144.43027221244506" />
    <path d="M 67,123.00000000000001 A 56,56 0 0,1 71.262746179367952,101.56972778755497" />
    <path d="M 83.402020253553331,83.402020253553346 A 56,56 0 0,1 101.56972778755494,71.262746179367952" />
    <path d="M 137.04650318516124,52.383459810967409 A 72,72 0 0,1 150.55320713028647,56.48067365918736" />
    <path d="M 173.91168824543144,72.088311754568579 A 72,72 0 0,1 193.61654018903261,108.95349681483876" />
    <path d="M 193.61654018903261,137.04650318516124 A 72,72 0 0,1 182.86581208578326,163.00105677741135" />
    <path d="M 163.00105677741135,182.86581208578326 A 72,72 0 0,1 72.0883117545686,173.91168824543144" />
    <path d="M 63.134187914216739,163.00105677741135 A 72,72 0 0,1 56.480673659187374,150.5532071302865" />
    <path d="M 52.383459810967409,137.04650318516127 A 72,72 0 0,1 51,123.00000000000001" />
    <path d="M 52.383459810967409,108.95349681483876 A 72,72 0 0,1 56.48067365918736,95.446792869713519" />
    <path d="M 72.088311754568565,72.0883117545686 A 72,72 0 0,1 108.95349681483873,52.383459810967409" />
    <path d="M 89.323857951872043,41.698601139006783 A 88,88 0 0,1 156.6761420481279,41.698601139006769" />
    <path d="M 171.890180505725,49.83067411737602 A 88,88 0 0,1 204.30139886099323,89.3238579518721" />
    <path d="M 209.30910467548426,105.83205166258071 A 88,88 0 0,1 209.30910467548426,140.16794833741929" />
    <path d="M 196.16932588262398,171.89018050572497 A 88,88 0 0,1 185.22539674441617,185.22539674441617" />
    <path d="M 140.16794833741932,209.30910467548426 A 88,88 0 0,1 105.83205166258071,209.30910467548426" />
    <path d="M 74.10981949427503,196.16932588262398 A 88,88 0 0,1 49.83067411737602,171.890180505725" />
    <path d="M 35,123.00000000000001 A 88,88 0 0,1 74.109819494275,49.83067411737602" />
    <path d="M 65.220695765961366,36.5271603205353 A 104,104 0 0,1 209.4728396794647,65.220695765961366" />
    <path d="M 227,123 A 104,104 0 0,1 209.47283967946473,180.77930423403859" />
    <path d="M 162.79907696596933,219.08347138117381 A 104,104 0 0,1 143.28939348967737,225.00166916193598" />
    <path d="M 123.00000000000001,227 A 104,104 0 0,1 83.20092303403068,219.08347138117381" />
    <path d="M 65.220695765961409,209.47283967946473 A 104,104 0 0,1 49.460894756599075,196.53910524340097" />
    <path d="M 26.916528618826206,162.79907696596939 A 104,104 0 0,1 36.527160320535273,65.220695765961409" />
    <path d="M 146.41083864193539,5.3057663516123483 A 120,120 0 1,1 123,3" />
  </g>
  <g fill="none" stroke="#000000" stroke-width="2" stroke-linecap="butt">
    <line x1="123" y1="51" x2="123" y2="83" />
    <line x1="140.16794833741929" y1="36.690895324515722" x2="137.04650318516124" y2="52.383459810967409" />
    <line x1="162.79907696596933" y1="26.916528618826177" x2="156.6761420481279" y2="41.698601139006769" />
    <line x1="150.55320713028647" y1="56.48067365918736" x2="144.43027221244503" y2="71.262746179367952" />
    <line x1="189.66842796235227" y1="23.223646523694569" x2="180.77930423403862" y2="36.5271603205353" />
    <line x1="171.890180505725" y1="49.83067411737602" x2="163.00105677741135" y2="63.134187914216746" />
    <line x1="173.91168824543144" y1="72.088311754568565" x2="151.2842712474619" y2="94.7157287525381" />
    <line x1="233.86554390135441" y1="77.077988116189218" x2="204.30139886099323" y2="89.3238579518721" />
    <line x1="189.51932634081265" y1="95.446792869713533" x2="174.73725382063205" y2="101.56972778755497" />
    <line x1="225.00166916193598" y1="102.71060651032265" x2="193.61654018903261" y2="108.95349681483876" />
    <line x1="195" y1="123" x2="179" y2="123" />
    <line x1="209.30910467548426" y1="140.16794833741929" x2="193.61654018903261" y2="137.04650318516124" />
    <line x1="219.08347138117381" y1="162.79907696596933" x2="189.51932634081265" y2="150.55320713028647" />
    <line x1="207.85281374238571" y1="207.85281374238571" x2="151.2842712474619" y2="151.2842712474619" />
    <line x1="180.77930423403862" y1="209.4728396794647" x2="163.00105677741135" y2="182.86581208578326" />
    <line x1="162.79907696596933" y1="219.08347138117381" x2="150.55320713028647" y2="189.51932634081265" />
    <line x1="123" y1="179" x2="123" y2="147" />
    <line x1="105.83205166258071" y1="209.30910467548426" x2="108.95349681483876" y2="193.61654018903261" />
    <line x1="83.200923034030666" y1="219.08347138117384" x2="107.69266270539642" y2="159.95518130045147" />
    <line x1="65.2206957659614" y1="209.47283967946473" x2="74.10981949427503" y2="196.16932588262398" />
    <line x1="94.7157287525381" y1="151.2842712474619" x2="106.02943725152286" y2="139.97056274847714" />
    <line x1="23.223646523694569" y1="189.66842796235227" x2="63.134187914216746" y2="163.00105677741135" />
    <line x1="41.698601139006783" y1="156.67614204812796" x2="71.262746179367952" y2="144.43027221244506" />
    <line x1="20.998330838064049" y1="143.28939348967737" x2="36.690895324515736" y2="140.16794833741932" />
    <line x1="35" y1="123.00000000000001" x2="67" y2="123.00000000000001" />
    <line x1="5.3057663516123483" y1="99.5891613580646" x2="20.998330838064035" y2="102.71060651032266" />
    <line x1="56.48067365918736" y1="95.446792869713519" x2="86.044818699548529" y2="107.6926627053964" />
    <line x1="49.830674117376006" y1="74.10981949427503" x2="63.134187914216724" y2="82.998943222588665" />
    <line x1="38.14718625761428" y1="38.147186257614322" x2="60.774603255583806" y2="60.774603255583834" />
    <line x1="83.402020253553331" y1="83.402020253553346" x2="94.7157287525381" y2="94.7157287525381" />
    <line x1="101.56972778755494" y1="71.262746179367952" x2="107.69266270539639" y2="86.044818699548543" />
    <line x1="105.83205166258067" y1="36.690895324515736" x2="108.95349681483873" y2="52.383459810967423" />
  </g>
  <path fill="none" stroke="#ff0000" stroke-width="2" stroke-linecap="square" stroke-linejoin="round" d="M 134.76205683954728,3.5778327993363774 L 133.97791971691078,11.539310612713948 A 112,112 0 0,0 51.947952173671652,36.4228292233735 L 62.098244720289991,48.790996477177288 A 96,96 0 0,1 77.7459132647042,38.335558622557926 L 85.288261053920166,52.446298852131605 A 80,80 0 0,0 61.159163730981049,72.248537266908357 L 73.52733098478484,82.398829813526675 A 64,64 0 0,1 110.51421939096777,60.22974205419326 L 116.75710969548388,91.614871027096626 A 32,32 0 0,0 91.614871027096626,116.75710969548389 L 75.922306540644939,113.63566454322584 A 48,48 0 0,0 96.33262881505911,162.91054139052218 L 87.443505086745475,176.2140551873629 A 64,64 0 0,1 73.527330984784854,163.60117018647333 L 61.159163730981071,173.75146273309167 A 80,80 0 0,0 85.2882610539202,193.55370114786842 L 70.203565475488261,221.77518160701578 A 112,112 0 0,0 194.05204782632831,209.57717077662653 L 163.60117018647333,172.47266901521516 A 64,64 0 0,1 110.51421939096778,185.77025794580675 L 116.75710969548389,154.38512897290337 A 32,32 0 0,1 110.75413016431713,152.56414504036118 L 113.81559762323785,145.17310878027089" />
  <type>Circular</type>
</svg>