<?xml version="1.0" encoding="utf-8" standalone="no"?>
<!DOCTYPE svg PUBLIC "-//W3C//DTD SVG 1.1//EN" "http://www.w3.org/Graphics/SVG/1.1/DTD/svg11.dtd"[]>
<svg width="244" height="244" version="1.1" xmlns="http://www.w3.org/2000/svg">
  <title>15 cells diameter theta maze</title>
  <g fill="none" stroke="#000000" stroke-width="2" stroke-linecap="square">
    <path d="M 106.02943725152286,139.97056274847714 A 24,24 0 1,1 123,147" />
    <path d="M 107.69266270539639,86.044818699548543 A 40,40 0 0,1 159.95518130045147,107.6926627053964" />
    <path d="M 159.95518130045147,138.3073372946036 A 40,40 0 0,1 83,123.00000000000001" />
    <path d="M 86.044818699548529,107.6926627053964 A 40,40 0 0,1 94.7157287525381,94.7157287525381" />
    <path d="M 83.402020253553331,83.402020253553346 A 56,56 0 0,1 123,67" />
    <path d="M 95.446792869713491,56.480673659187374 A 72,72 0 0,1 150.55320713028647,56.48067365918736" />
    <path d="M 163.00105677741135,63.134187914216739 A 72,72 0 0,1 182.86581208578326,82.998943222588636" />
    <path d="M 189.51932634081265,95.446792869713533 A 72,72 0 0,1 193.61654018903261,108.95349681483876" />
    <path d="M 195,123 A 72,72 0 0,1 163.00105677741135,182.86581208578326" />
    <path d="M 150.55320713028647,189.51932634081265 A 72,72 0 0,1 108.95349681483876,193.61654018903261" />
    <path d="M 82.998943222588665,182.86581208578326 A 72,72 0 0,1 51,123.00000000000001" />
    <path d="M 52.383459810967409,108.95349681483876 A 72,72 0 0,1 82.99894322258865,63.134187914216746" />
    <path d="M 105.83205166258067,36.690895324515722 A 88,88 0 0,1 156.6761420481279,41.698601139006769" />
    <path d="M 171.890180505725,49.83067411737602 A 88,88 0 0,1 196.16932588262398,74.109819494275" />
    <path d="M 209.30910467548426,105.83205166258071 A 88,88 0 0,1 211,123" />
    <path d="M 209.30910467548426,140.16794833741929 A 88,88 0 0,1 196.16932588262398,171.89018050572497" />
    <path d="M 171.89018050572497,196.16932588262398 A 88,88 0 0,1 156.6761420481279,204.30139886099323" />
    <path d="M 89.323857951872114,204.30139886099323 A 88,88 0 0,1 49.83067411737602,171.890180505725" />
    <path d="M 41.698601139006783,156.67614204812796 A 88,88 0 0,1 41.698601139006769,89.323857951872071" />
    <path d="M 162.79907696596933,26.916528618826177 A 104,104 0 0,1 180.77930423403862,36.527160320535287" />
    <path d="M 209.4728396794647,65.220695765961366 A 104,104 0 0,1 225.00166916193598,102.71060651032266" />
    <path d="M 196.53910524340097,196.53910524340094 A 104,104 0 0,1 180.77930423403862,209.4728396794647" />
    <path d="M 162.79907696596933,219.08347138117381 A 104,104 0 0,1 143.28939348967737,225.00166916193598" />
    <path d="M 102.71060651032265,225.00166916193598 A 104,104 0 0,1 83.20092303403068,219.08347138117381" />
    <path d="M 65.220695765961409,209.47283967946473 A 104,104 0 0,1 49.460894756599075,196.53910524340097" />
    <path d="M 36.527160320535287,180.77930423403862 A 104,104 0 0,1 26.916528618826206,162.79907696596939" />
    <path d="M 20.998330838064035,143.28939348967737 A 104,104 0 0,1 36.527160320535273,65.220695765961409" />
    <path d="M 83.200923034030609,26.916528618826206 A 104,104 0 0,1 102.71060651032261,20.998330838064049" />
    <path d="M 146.41083864193539,5.3057663516123483 A 120,120 0 1,1 123,3" />
  </g>
  <g fill="none" stroke="#000000" stroke-width="2" stroke-linecap="butt">
    <line x1="123" y1="3" x2="123" y2="35" />
    <line x1="146.41083864193539" y1="5.3057663516123483" x2="143.28939348967734" y2="20.998330838064035" />
    <line x1="140.16794833741929" y1="36.690895324515722" x2="137.04650318516124" y2="52.383459810967409" />
    <line x1="162.79907696596933" y1="26.916528618826177" x2="156.6761420481279" y2="41.698601139006769" />
    <line x1="150.55320713028647" y1="56.48067365918736" x2="138.3073372946036" y2="86.044818699548529" />
    <line x1="207.85281374238571" y1="38.147186257614294" x2="196.53910524340094" y2="49.460894756599046" />
    <line x1="173.91168824543144" y1="72.088311754568565" x2="162.59797974644664" y2="83.402020253553331" />
    <line x1="209.4728396794647" y1="65.220695765961352" x2="182.86581208578326" y2="82.998943222588636" />
    <line x1="219.08347138117381" y1="83.200923034030666" x2="159.95518130045147" y2="107.6926627053964" />
    <line x1="227" y1="123" x2="147" y2="123" />
    <line x1="240.69423364838764" y1="146.41083864193539" x2="209.30910467548426" y2="140.16794833741929" />
    <line x1="233.86554390135441" y1="168.92201188381077" x2="219.08347138117381" y2="162.79907696596933" />
    <line x1="174.73725382063205" y1="144.43027221244503" x2="159.95518130045147" y2="138.3073372946036" />
    <line x1="209.47283967946473" y1="180.77930423403859" x2="196.16932588262398" y2="171.89018050572497" />
    <line x1="207.85281374238571" y1="207.85281374238571" x2="196.53910524340097" y2="196.53910524340094" />
    <line x1="185.22539674441617" y1="185.22539674441617" x2="162.59797974644667" y2="162.59797974644664" />
    <line x1="171.890180505725" y1="196.16932588262398" x2="163.00105677741135" y2="182.86581208578326" />
    <line x1="168.9220118838108" y1="233.86554390135441" x2="162.79907696596933" y2="219.08347138117381" />
    <line x1="156.6761420481279" y1="204.30139886099323" x2="150.55320713028647" y2="189.51932634081265" />
    <line x1="144.43027221244503" y1="174.73725382063205" x2="138.3073372946036" y2="159.95518130045147" />
    <line x1="143.28939348967737" y1="225.00166916193598" x2="140.16794833741932" y2="209.30910467548426" />
    <line x1="123.00000000000001" y1="243" x2="123.00000000000001" y2="211" />
    <line x1="123.00000000000001" y1="195" x2="123" y2="179" />
    <line x1="102.71060651032265" y1="225.00166916193598" x2="108.95349681483876" y2="193.61654018903261" />
    <line x1="77.077988116189232" y1="233.86554390135444" x2="83.200923034030666" y2="219.08347138117384" />
    <line x1="89.3238579518721" y1="204.30139886099323" x2="107.69266270539642" y2="159.95518130045147" />
    <line x1="65.2206957659614" y1="209.47283967946473" x2="74.10981949427503" y2="196.16932588262398" />
    <line x1="72.088311754568579" y1="173.91168824543144" x2="83.402020253553346" y2="162.59797974644667" />
    <line x1="94.7157287525381" y1="151.2842712474619" x2="106.02943725152286" y2="139.97056274847714" />
    <line x1="36.5271603205353" y1="180.77930423403862" x2="49.83067411737602" y2="171.890180505725" />
    <line x1="26.916528618826206" y1="162.79907696596939" x2="41.698601139006783" y2="156.67614204812796" />
    <line x1="71.262746179367952" y1="144.43027221244506" x2="86.044818699548543" y2="138.3073372946036" />
    <line x1="5.3057663516123625" y1="146.41083864193544" x2="20.998330838064049" y2="143.28939348967737" />
    <line x1="35" y1="123.00000000000001" x2="67" y2="123.00000000000001" />
    <line x1="56.48067365918736" y1="95.446792869713519" x2="71.262746179367952" y2="101.56972778755497" />
    <line x1="36.527160320535273" y1="65.220695765961409" x2="49.830674117376006" y2="74.10981949427503" />
    <line x1="38.14718625761428" y1="38.147186257614322" x2="72.088311754568565" y2="72.0883117545686" />
    <line x1="83.402020253553331" y1="83.402020253553346" x2="106.02943725152286" y2="106.02943725152286" />
    <line x1="65.220695765961381" y1="36.5271603205353" x2="82.99894322258865" y2="63.134187914216746" />
    <line x1="83.200923034030609" y1="26.916528618826206" x2="95.446792869713491" y2="56.480673659187374" />
  </g>
  <path fill="none" stroke="#ff0000" stroke-width="2" stroke-linecap="square" stroke-linejoin="round" d="M 134.76205683954728,3.5778327993363774 L 132.40964547163782,27.462266239469102 A 96,96 0 0,1 150.86732901642839,31.133727769707946 L 155.51188385249978,15.822682397992608 A 112,112 0 0,1 194.05204782632831,36.422829223373455 L 183.90175527970996,48.790996477177245 A 96,96 0 0,1 197.20900352282274,62.098244720290026 L 209.57717077662653,51.947952173671695 A 112,112 0 0,1 234.46068938728604,112.0220802830892 L 218.5377337605309,113.59035452836217 A 96,96 0 0,0 214.86627223029205,95.132670983571614 L 199.5552268585767,99.777225819643007 A 80,80 0 0,1 202.61477813377576,115.15862877363514 L 186.69182250702059,116.7269030189081 A 64,64 0 0,0 185.77025794580675,110.51421939096778 L 154.38512897290337,116.75710969548389 A 32,32 0 0,0 105.22175254337273,96.392972406318549 L 96.3326288150591,83.08945860947783 A 48,48 0 0,1 132.36433545677414,75.922306540644939 L 135.48578060903222,60.229742054193252 A 64,64 0 0,0 69.7859448126371,87.443505086745489 L 83.089458609477816,96.33262881505911 A 48,48 0 0,0 75.922306540644939,113.63566454322584 L 60.229742054193252,110.51421939096778 A 64,64 0 0,0 59.3081774929794,116.72690301890816 L 43.385221866224242,115.1586287736352 A 80,80 0 0,1 52.446298852131591,85.2882610539202 L 38.335558622557912,77.745913264704228 A 96,96 0 0,0 31.133727769707946,150.86732901642839 L 15.822682397992608,155.51188385249981 A 112,112 0 0,0 70.203565475488261,221.77518160701578 L 77.745913264704228,207.66444137744207 A 96,96 0 0,0 95.132670983571643,214.86627223029205 L 104.42178065571443,184.24418148686138 A 64,64 0 0,0 110.51421939096778,185.77025794580675 L 113.63566454322584,170.07769345935506 A 48,48 0 0,0 132.36433545677417,170.07769345935506 L 135.48578060903222,185.77025794580675 A 64,64 0 0,0 158.55649491325454,176.2140551873629 L 149.66737118494089,162.91054139052218 A 48,48 0 0,0 162.91054139052218,149.66737118494089 L 176.2140551873629,158.55649491325454 A 64,64 0 0,0 185.77025794580675,135.48578060903219 L 154.38512897290337,129.2428903045161 A 32,32 0 0,1 110.75413016431713,152.56414504036118 L 113.81559762323785,145.17310878027089" />
  <type>Circular</type>
</svg>