<?xml version="1.0" encoding="utf-8" standalone="no"?>
<!DOCTYPE svg PUBLIC "-//W3C//DTD SVG 1.1//EN" "http://www.w3.org/Graphics/SVG/1.1/DTD/svg11.dtd"[]>
<svg width="244" height="244" version="1.1" xmlns="http://www.w3.org/2000/svg">
  <title>15 cells diameter theta maze</title>
  <g fill="none" stroke="#000000" stroke-width="2" stroke-linecap="square">
    <path d="M 106.02943725152286,139.97056274847714 A 24,24 0 1,1 123,147" />
    <path d="M 83,123.00000000000001 A 40,40 0 1,1 86.044818699548529,138.3073372946036" />
    <path d="M 83.402020253553331,83.402020253553346 A 56,56 0 0,1 123,67" />
    <path d="M 144.43027221244503,71.262746179367952 A 56,56 0 0,1 162.59797974644667,83.402020253553331" />
    <path d="M 179,123 A 56,56 0 0,1 144.43027221244503,174.73725382063205" />
    <path d="M 71.262746179367952,144.43027221244506 A 56,56 0 0,1 67,123.00000000000001" />
    <path d="M 108.95349681483873,52.383459810967409 A 72,72 0 0,1 163.00105677741135,63.134187914216739" />
    <path d="M 173.91168824543144,72.088311754568579 A 72,72 0 0,1 163.00105677741135,182.86581208578326" />
    <path d="M 150.55320713028647,189.51932634081265 A 72,72 0 0,1 137.04650318516127,193.61654018903261" />
    <path d="M 108.95349681483876,193.61654018903261 A 72,72 0 0,1 95.446792869713548,189.51932634081265" />
    <path d="M 72.0883117545686,173.91168824543144 A 72,72 0 0,1 52.383459810967409,137.04650318516127" />
    <path d="M 51,123.00000000000001 A 72,72 0 0,1 52.383459810967409,108.95349681483876" />
    <path d="M 56.48067365918736,95.446792869713519 A 72,72 0 0,1 95.446792869713491,56.480673659187374" />
    <path d="M 105.83205166258067,36.690895324515722 A 88,88 0 0,1 156.6761420481279,41.698601139006769" />
    <path d="M 171.890180505725,49.83067411737602 A 88,88 0 0,1 185.22539674441617,60.774603255583813" />
    <path d="M 209.30910467548426,105.83205166258071 A 88,88 0 0,1 211,123" />
    <path d="M 209.30910467548426,140.16794833741929 A 88,88 0 0,1 204.30139886099323,156.6761420481279" />
    <path d="M 196.16932588262398,171.89018050572497 A 88,88 0 0,1 156.6761420481279,204.30139886099323" />
    <path d="M 105.83205166258071,209.30910467548426 A 88,88 0 0,1 89.323857951872114,204.30139886099323" />
    <path d="M 74.10981949427503,196.16932588262398 A 88,88 0 0,1 49.83067411737602,171.890180505725" />
    <path d="M 36.690895324515722,140.16794833741932 A 88,88 0 0,1 35,123.00000000000001" />
    <path d="M 36.690895324515722,105.83205166258071 A 88,88 0 0,1 41.698601139006769,89.323857951872071" />
    <path d="M 49.830674117375992,74.10981949427503 A 88,88 0 0,1 60.774603255583806,60.774603255583834" />
    <path d="M 74.109819494275,49.83067411737602 A 88,88 0 0,1 89.323857951872043,41.698601139006783" />
    <path d="M 83.200923034030609,26.916528618826206 A 104,104 0 0,1 143.28939348967734,20.998330838064035" />
    <path d="M 162.79907696596933,26.916528618826177 A 104,104 0 0,1 180.77930423403862,36.527160320535287" />
    <path d="M 209.4728396794647,65.220695765961366 A 104,104 0 0,1 219.08347138117381,83.200923034030666" />
    <path d="M 225.00166916193598,143.28939348967734 A 104,104 0 0,1 219.08347138117381,162.79907696596933" />
    <path d="M 180.77930423403862,209.4728396794647 A 104,104 0 0,1 123.00000000000001,227" />
    <path d="M 83.20092303403068,219.08347138117381 A 104,104 0 0,1 26.916528618826206,162.79907696596939" />
    <path d="M 146.41083864193539,5.3057663516123483 A 120,120 0 1,1 123,3" />
  </g>
  <g fill="none" stroke="#000000" stroke-width="2" stroke-linecap="butt">
    <line x1="123" y1="51" x2="123" y2="67" />
    <line x1="146.41083864193539" y1="5.3057663516123483" x2="143.28939348967734" y2="20.998330838064035" />
    <line x1="162.79907696596933" y1="26.916528618826177" x2="144.43027221244503" y2="71.262746179367952" />
    <line x1="196.53910524340094" y1="49.460894756599046" x2="173.91168824543144" y2="72.088311754568565" />
    <line x1="162.59797974644664" y1="83.402020253553331" x2="151.2842712474619" y2="94.7157287525381" />
    <line x1="209.4728396794647" y1="65.220695765961352" x2="196.16932588262398" y2="74.109819494275" />
    <line x1="233.86554390135441" y1="77.077988116189218" x2="204.30139886099323" y2="89.3238579518721" />
    <line x1="189.51932634081265" y1="95.446792869713533" x2="174.73725382063205" y2="101.56972778755497" />
    <line x1="240.69423364838764" y1="99.5891613580646" x2="225.00166916193598" y2="102.71060651032265" />
    <line x1="227" y1="123" x2="195" y2="123" />
    <line x1="240.69423364838764" y1="146.41083864193539" x2="225.00166916193598" y2="143.28939348967734" />
    <line x1="219.08347138117381" y1="162.79907696596933" x2="204.30139886099323" y2="156.6761420481279" />
    <line x1="209.47283967946473" y1="180.77930423403859" x2="196.16932588262398" y2="171.89018050572497" />
    <line x1="207.85281374238571" y1="207.85281374238571" x2="185.22539674441617" y2="185.22539674441617" />
    <line x1="171.890180505725" y1="196.16932588262398" x2="163.00105677741135" y2="182.86581208578326" />
    <line x1="150.55320713028647" y1="189.51932634081265" x2="144.43027221244503" y2="174.73725382063205" />
    <line x1="143.28939348967737" y1="225.00166916193598" x2="137.04650318516127" y2="193.61654018903261" />
    <line x1="123.00000000000001" y1="227" x2="123" y2="163" />
    <line x1="99.5891613580646" y1="240.69423364838764" x2="105.83205166258071" y2="209.30910467548426" />
    <line x1="89.3238579518721" y1="204.30139886099323" x2="101.56972778755498" y2="174.73725382063208" />
    <line x1="65.2206957659614" y1="209.47283967946473" x2="82.99894322258865" y2="182.86581208578326" />
    <line x1="72.088311754568579" y1="173.91168824543144" x2="106.02943725152286" y2="139.97056274847714" />
    <line x1="26.916528618826206" y1="162.79907696596939" x2="56.480673659187374" y2="150.5532071302865" />
    <line x1="5.3057663516123625" y1="146.41083864193544" x2="36.690895324515736" y2="140.16794833741932" />
    <line x1="19" y1="123.00000000000001" x2="83" y2="123.00000000000001" />
    <line x1="20.998330838064035" y1="102.71060651032266" x2="36.690895324515722" y2="105.83205166258071" />
    <line x1="26.916528618826192" y1="83.200923034030637" x2="71.262746179367952" y2="101.56972778755497" />
    <line x1="23.223646523694541" y1="56.331572037647774" x2="49.830674117376006" y2="74.10981949427503" />
    <line x1="38.14718625761428" y1="38.147186257614322" x2="49.460894756599046" y2="49.460894756599075" />
    <line x1="56.331572037647732" y1="23.223646523694569" x2="65.220695765961381" y2="36.5271603205353" />
    <line x1="74.109819494275" y1="49.83067411737602" x2="82.99894322258865" y2="63.134187914216746" />
    <line x1="83.200923034030609" y1="26.916528618826206" x2="89.323857951872043" y2="41.698601139006783" />
  </g>
  <path fill="none" stroke="#ff0000" stroke-width="2" stroke-linecap="square" stroke-linejoin="round" d="M 134.76205683954728,3.5778327993363774 L 133.97791971691078,11.539310612713948 A 112,112 0 0,0 70.203565475488233,24.224818392984261 L 77.7459132647042,38.335558622557926 A 96,96 0 0,0 62.098244720289991,48.790996477177288 L 72.248537266908329,61.159163730981071 A 80,80 0 0,0 52.446298852131591,85.2882610539202 L 24.224818392984233,70.203565475488276 A 112,112 0 0,0 11.539310612713948,112.02208028308927 L 43.385221866224242,115.1586287736352 A 80,80 0 0,1 46.444773141423283,99.777225819643036 L 61.755818513138628,104.42178065571443 A 64,64 0 0,0 60.229742054193252,110.51421939096778 L 75.922306540644939,113.63566454322584 A 48,48 0 0,1 83.089458609477816,96.33262881505911 L 69.7859448126371,87.443505086745489 A 64,64 0 0,1 104.4217806557144,61.755818513138635 L 95.1326709835716,31.133727769707946 A 96,96 0 0,1 150.86732901642839,31.133727769707946 L 155.51188385249978,15.822682397992608 A 112,112 0 0,1 194.05204782632831,36.422829223373455 L 183.90175527970996,48.790996477177245 A 96,96 0 0,0 168.25408673529577,38.335558622557912 L 160.71173894607981,52.446298852131591 A 80,80 0 0,1 173.75146273309164,61.159163730981042 L 163.60117018647333,73.52733098478484 A 64,64 0 0,1 176.2140551873629,87.443505086745461 L 162.91054139052216,96.3326288150591 A 48,48 0 0,1 170.07769345935506,113.63566454322584 L 185.77025794580675,110.51421939096778 A 64,64 0 0,1 153.16939115686387,179.44296091829472 L 160.71173894607983,193.5537011478684 A 80,80 0 0,1 146.222774180357,199.5552268585767 L 150.86732901642839,214.86627223029205 A 96,96 0 0,0 183.90175527970996,197.20900352282274 L 194.05204782632831,209.57717077662653 A 112,112 0 0,1 112.02208028308921,234.46068938728604 L 116.72690301890812,186.69182250702062 A 64,64 0 0,1 110.51421939096778,185.77025794580675 L 113.63566454322584,170.07769345935506 A 48,48 0 0,1 96.33262881505911,162.91054139052218 L 87.443505086745475,176.2140551873629 A 64,64 0 0,0 92.830608843136147,179.44296091829472 L 77.745913264704228,207.66444137744207 A 96,96 0 0,0 95.132670983571643,214.86627223029205 L 90.48811614750025,230.17731760200741 A 112,112 0 0,1 15.822682397992608,155.51188385249981 L 46.4447731414233,146.222774180357 A 80,80 0 0,1 43.385221866224242,130.84137122636483 L 59.3081774929794,129.27309698109187 A 64,64 0 0,0 69.7859448126371,158.55649491325454 L 83.08945860947783,149.66737118494092 A 48,48 0 0,1 75.922306540644939,132.36433545677417 L 91.614871027096626,129.24289030451612 A 32,32 0 1,1 110.75413016431713,152.56414504036118 L 113.81559762323785,145.17310878027089" />
  <type>Circular</type>
</svg>