<?xml version="1.0" encoding="utf-8" standalone="no"?>
<!DOCTYPE svg PUBLIC "-//W3C//DTD SVG 1.1//EN" "http://www.w3.org/Graphics/SVG/1.1/DTD/svg11.dtd"[]>
<svg width="244" height="244" version="1.1" xmlns="http://www.w3.org/2000/svg">
  <title>15 cells diameter theta maze</title>
  <g fill="none" stroke="#000000" stroke-width="2" stroke-linecap="square">
    <path d="M 106.02943725152286,139.97056274847714 A 24,24 0 1,1 123,147" />
    <path d="M 94.7157287525381,94.7157287525381 A 40,40 0 0,1 123,83" />
    <path d="M 138.3073372946036,86.044818699548529 A 40,40 0 0,1 151.2842712474619,94.7157287525381" />
    <path d="M 163,123 A 40,40 0 0,1 159.95518130045147,138.3073372946036" />
    <path d="M 151.2842712474619,151.2842712474619 A 40,40 0 0,1 107.69266270539642,159.95518130045147" />
    <path d="M 94.7157287525381,151.2842712474619 A 40,40 0 0,1 86.044818699548529,138.3073372946036" />
    <path d="M 83,123.00000000000001 A 40,40 0 0,1 86.044818699548529,107.6926627053964" />
    <path d="M 101.56972778755494,71.262746179367952 A 56,56 0 0,1 144.43027221244503,71.262746179367952" />
    <path d="M 162.59797974644667,83.402020253553331 A 56,56 0 0,1 174.73725382063205,101.56972778755497" />
    <path d="M 123,179 A 56,56 0 0,1 101.56972778755498,174.73725382063208" />
    <path d="M 83.402020253553346,162.59797974644667 A 56,56 0 0,1 67,123.00000000000001" />
    <path d="M 72.088311754568565,72.0883117545686 A 72,72 0 0,1 137.04650318516124,52.383459810967409" />
    <path d="M 163.00105677741135,63.134187914216739 A 72,72 0 0,1 193.61654018903261,108.95349681483876" />
    <path d="M 193.61654018903261,137.04650318516124 A 72,72 0 0,1 173.91168824543144,173.91168824543141" />
    <path d="M 163.00105677741135,182.86581208578326 A 72,72 0 0,1 137.04650318516127,193.61654018903261" />
    <path d="M 108.95349681483876,193.61654018903261 A 72,72 0 0,1 72.0883117545686,173.91168824543144" />
    <path d="M 56.480673659187374,150.5532071302865 A 72,72 0 0,1 56.48067365918736,95.446792869713519" />
    <path d="M 123,35 A 88,88 0 0,1 171.890180505725,49.83067411737602" />
    <path d="M 196.16932588262398,74.109819494275 A 88,88 0 0,1 209.30910467548426,105.83205166258071" />
    <path d="M 211,123 A 88,88 0 0,1 209.30910467548426,140.16794833741929" />
    <path d="M 196.16932588262398,171.89018050572497 A 88,88 0 0,1 156.6761420481279,204.30139886099323" />
    <path d="M 140.16794833741932,209.30910467548426 A 88,88 0 0,1 123.00000000000001,211" />
    <path d="M 105.83205166258071,209.30910467548426 A 88,88 0 0,1 89.323857951872114,204.30139886099323" />
    <path d="M 74.10981949427503,196.16932588262398 A 88,88 0 0,1 36.690895324515722,140.16794833741932" />
    <path d="M 41.698601139006769,89.323857951872071 A 88,88 0 0,1 49.830674117375992,74.10981949427503" />
    <path d="M 60.774603255583806,60.774603255583834 A 88,88 0 0,1 74.109819494275,49.83067411737602" />
    <path d="M 89.323857951872043,41.698601139006783 A 88,88 0 0,1 105.83205166258067,36.690895324515722" />
    <path d="M 102.71060651032261,20.998330838064049 A 104,104 0 0,1 162.79907696596933,26.916528618826177" />
    <path d="M 196.53910524340094,49.46089475659906 A 104,104 0 0,1 209.4728396794647,65.220695765961366" />
    <path d="M 219.08347138117381,83.200923034030666 A 104,104 0 0,1 225.00166916193598,143.28939348967734" />
    <path d="M 209.47283967946473,180.77930423403859 A 104,104 0 0,1 196.53910524340097,196.53910524340094" />
    <path d="M 180.77930423403862,209.4728396794647 A 104,104 0 0,1 36.527160320535287,180.77930423403862" />
    <path d="M 20.998330838064035,143.28939348967737 A 104,104 0 0,1 20.998330838064035,102.71060651032266" />
    <path d="M 26.916528618826192,83.200923034030637 A 104,104 0 0,1 36.527160320535273,65.220695765961409" />
    <path d="M 146.41083864193539,5.3057663516123483 A 120,120 0 1,1 123,3" />
  </g>
  <g fill="none" stroke="#000000" stroke-width="2" stroke-linecap="butt">
    <line x1="123" y1="19" x2="123" y2="35" />
    <line x1="123" y1="83" x2="123" y2="99" />
    <line x1="156.6761420481279" y1="41.698601139006769" x2="138.3073372946036" y2="86.044818699548529" />
    <line x1="189.66842796235227" y1="23.223646523694569" x2="180.77930423403862" y2="36.5271603205353" />
    <line x1="196.53910524340094" y1="49.460894756599046" x2="173.91168824543144" y2="72.088311754568565" />
    <line x1="162.59797974644664" y1="83.402020253553331" x2="151.2842712474619" y2="94.7157287525381" />
    <line x1="219.08347138117381" y1="83.200923034030666" x2="204.30139886099323" y2="89.3238579518721" />
    <line x1="189.51932634081265" y1="95.446792869713533" x2="159.95518130045147" y2="107.6926627053964" />
    <line x1="243" y1="122.99999999999999" x2="227" y2="123" />
    <line x1="211" y1="123" x2="163" y2="123" />
    <line x1="225.00166916193598" y1="143.28939348967734" x2="209.30910467548426" y2="140.16794833741929" />
    <line x1="233.86554390135441" y1="168.92201188381077" x2="174.73725382063205" y2="144.43027221244503" />
    <line x1="209.47283967946473" y1="180.77930423403859" x2="196.16932588262398" y2="171.89018050572497" />
    <line x1="162.59797974644667" y1="162.59797974644664" x2="151.2842712474619" y2="151.2842712474619" />
    <line x1="180.77930423403862" y1="209.4728396794647" x2="171.890180505725" y2="196.16932588262398" />
    <line x1="150.55320713028647" y1="189.51932634081265" x2="138.3073372946036" y2="159.95518130045147" />
    <line x1="143.28939348967737" y1="225.00166916193598" x2="140.16794833741932" y2="209.30910467548426" />
    <line x1="123.00000000000001" y1="211" x2="123" y2="179" />
    <line x1="123" y1="163" x2="123" y2="147" />
    <line x1="105.83205166258071" y1="209.30910467548426" x2="108.95349681483876" y2="193.61654018903261" />
    <line x1="101.56972778755498" y1="174.73725382063208" x2="107.69266270539642" y2="159.95518130045147" />
    <line x1="74.10981949427503" y1="196.16932588262398" x2="82.99894322258865" y2="182.86581208578326" />
    <line x1="72.088311754568579" y1="173.91168824543144" x2="106.02943725152286" y2="139.97056274847714" />
    <line x1="23.223646523694569" y1="189.66842796235227" x2="36.5271603205353" y2="180.77930423403862" />
    <line x1="49.83067411737602" y1="171.890180505725" x2="63.134187914216746" y2="163.00105677741135" />
    <line x1="26.916528618826206" y1="162.79907696596939" x2="41.698601139006783" y2="156.67614204812796" />
    <line x1="56.480673659187374" y1="150.5532071302865" x2="71.262746179367952" y2="144.43027221244506" />
    <line x1="35" y1="123.00000000000001" x2="51" y2="123.00000000000001" />
    <line x1="67" y1="123.00000000000001" x2="83" y2="123.00000000000001" />
    <line x1="5.3057663516123483" y1="99.5891613580646" x2="20.998330838064035" y2="102.71060651032266" />
    <line x1="36.690895324515722" y1="105.83205166258071" x2="52.383459810967409" y2="108.95349681483876" />
    <line x1="41.698601139006783" y1="89.323857951872071" x2="56.48067365918736" y2="95.446792869713519" />
    <line x1="71.262746179367952" y1="101.56972778755497" x2="86.044818699548529" y2="107.6926627053964" />
    <line x1="36.527160320535273" y1="65.220695765961409" x2="63.134187914216724" y2="82.998943222588665" />
    <line x1="38.14718625761428" y1="38.147186257614322" x2="83.402020253553331" y2="83.402020253553346" />
    <line x1="56.331572037647732" y1="23.223646523694569" x2="65.220695765961381" y2="36.5271603205353" />
    <line x1="77.077988116189147" y1="12.134456098645615" x2="83.200923034030609" y2="26.916528618826206" />
    <line x1="101.56972778755494" y1="71.262746179367952" x2="107.69266270539639" y2="86.044818699548543" />
    <line x1="105.83205166258067" y1="36.690895324515736" x2="108.95349681483873" y2="52.383459810967423" />
  </g>
  <path fill="none" stroke="#ff0000" stroke-width="2" stroke-linecap="square" stroke-linejoin="round" d="M 134.76205683954728,3.5778327993363774 L 133.97791971691078,11.539310612713948 A 112,112 0 0,0 90.4881161475002,15.822682397992608 L 95.1326709835716,31.133727769707946 A 96,96 0 0,1 113.59035452836218,27.462266239469102 L 115.15862877363516,43.385221866224242 A 80,80 0 0,1 146.222774180357,46.4447731414233 L 141.5782193442856,61.755818513138635 A 64,64 0 0,0 87.443505086745461,69.7859448126371 L 96.3326288150591,83.08945860947783 A 48,48 0 0,0 83.089458609477816,96.33262881505911 L 69.7859448126371,87.443505086745489 A 64,64 0 0,1 73.52733098478484,82.398829813526675 L 36.422829223373469,51.947952173671695 A 112,112 0 0,0 15.822682397992594,90.48811614750025 L 31.133727769707946,95.132670983571643 A 96,96 0 0,0 31.133727769707946,150.86732901642839 L 15.822682397992608,155.51188385249981 A 112,112 0 0,0 24.224818392984247,175.79643452451177 L 38.335558622557926,168.2540867352958 A 96,96 0 0,0 113.59035452836218,218.5377337605309 L 116.72690301890812,186.69182250702062 A 64,64 0 0,1 87.443505086745475,176.2140551873629 L 105.22175254337273,149.60702759368147 A 32,32 0 0,0 110.75413016431713,152.56414504036118 L 113.81559762323785,145.17310878027089" />
  <type>Circular</type>
</svg>