<?xml version="1.0" encoding="utf-8" standalone="no"?>
<!DOCTYPE svg PUBLIC "-//W3C//DTD SVG 1.1//EN" "http://www.w3.org/Graphics/SVG/1.1/DTD/svg11.dtd"[]>
<svg width="244" height="244" version="1.1" xmlns="http://www.w3.org/2000/svg">
  <title>15 cells diameter theta maze</title>
  <g fill="none" stroke="#000000" stroke-width="2" stroke-linecap="square">
    <path d="M 106.02943725152286,139.97056274847714 A 24,24 0 1,1 123,147" />
    <path d="M 123,83 A 40,40 0 0,1 151.2842712474619,94.7157287525381" />
    <path d="M 159.95518130045147,107.6926627053964 A 40,40 0 0,1 159.95518130045147,138.3073372946036" />
    <path d="M 138.3073372946036,159.95518130045147 A 40,40 0 0,1 86.044818699548529,107.6926627053964" />
    <path d="M 94.7157287525381,94.7157287525381 A 40,40 0 0,1 107.69266270539639,86.044818699548543" />
    <path d="M 71.262746179367952,101.56972778755497 A 56,56 0 0,1 144.43027221244503,71.262746179367952" />
    <path d="M 174.73725382063205,101.56972778755497 A 56,56 0 0,1 174.73725382063208,144.43027221244503" />
    <path d="M 144.43027221244503,174.73725382063205 A 56,56 0 0,1 101.56972778755498,174.73725382063208" />
    <path d="M 83.402020253553346,162.59797974644667 A 56,56 0 0,1 71.262746179367952,144.43027221244506" />
    <path d="M 82.99894322258865,63.134187914216746 A 72,72 0 0,1 137.04650318516124,52.383459810967409" />
    <path d="M 150.55320713028647,56.48067365918736 A 72,72 0 0,1 189.51932634081265,95.446792869713533" />
    <path d="M 193.61654018903261,108.95349681483876 A 72,72 0 0,1 150.55320713028647,189.51932634081265" />
    <path d="M 137.04650318516127,193.61654018903261 A 72,72 0 0,1 123.00000000000001,195" />
    <path d="M 95.446792869713548,189.51932634081265 A 72,72 0 0,1 82.998943222588665,182.86581208578326" />
    <path d="M 56.480673659187374,150.5532071302865 A 72,72 0 0,1 52.383459810967409,137.04650318516127" />
    <path d="M 51,123.00000000000001 A 72,72 0 0,1 63.134187914216724,82.998943222588665" />
    <path d="M 105.83205166258067,36.690895324515722 A 88,88 0 0,1 123,35" />
    <path d="M 140.16794833741929,36.690895324515722 A 88,88 0 0,1 156.6761420481279,41.698601139006769" />
    <path d="M 171.890180505725,49.83067411737602 A 88,88 0 0,1 185.22539674441617,60.774603255583813" />
    <path d="M 209.30910467548426,105.83205166258071 A 88,88 0 0,1 211,123" />
    <path d="M 204.30139886099323,156.6761420481279 A 88,88 0 0,1 196.16932588262398,171.89018050572497" />
    <path d="M 185.22539674441617,185.22539674441617 A 88,88 0 0,1 171.89018050572497,196.16932588262398" />
    <path d="M 156.6761420481279,204.30139886099323 A 88,88 0 0,1 105.83205166258071,209.30910467548426" />
    <path d="M 89.323857951872114,204.30139886099323 A 88,88 0 0,1 60.774603255583827,185.2253967444162" />
    <path d="M 41.698601139006783,156.67614204812796 A 88,88 0 0,1 36.690895324515722,105.83205166258071" />
    <path d="M 74.109819494275,49.83067411737602 A 88,88 0 0,1 89.323857951872043,41.698601139006783" />
    <path d="M 123,19 A 104,104 0 0,1 180.77930423403862,36.527160320535287" />
    <path d="M 196.53910524340094,49.46089475659906 A 104,104 0 0,1 219.08347138117381,83.200923034030666" />
    <path d="M 225.00166916193598,102.71060651032266 A 104,104 0 0,1 196.53910524340097,196.53910524340094" />
    <path d="M 180.77930423403862,209.4728396794647 A 104,104 0 0,1 162.79907696596933,219.08347138117381" />
    <path d="M 102.71060651032265,225.00166916193598 A 104,104 0 0,1 65.220695765961409,209.47283967946473" />
    <path d="M 49.460894756599075,196.53910524340097 A 104,104 0 0,1 20.998330838064035,143.28939348967737" />
    <path d="M 20.998330838064035,102.71060651032266 A 104,104 0 0,1 26.916528618826192,83.200923034030637" />
    <path d="M 36.527160320535273,65.220695765961409 A 104,104 0 0,1 49.460894756599046,49.460894756599075" />
    <path d="M 83.200923034030609,26.916528618826206 A 104,104 0 0,1 102.71060651032261,20.998330838064049" />
    <path d="M 146.41083864193539,5.3057663516123483 A 120,120 0 1,1 123,3" />
  </g>
  <g fill="none" stroke="#000000" stroke-width="2" stroke-linecap="butt">
    <line x1="123" y1="19" x2="123" y2="35" />
    <line x1="140.16794833741929" y1="36.690895324515722" x2="137.04650318516124" y2="52.383459810967409" />
    <line x1="162.79907696596933" y1="26.916528618826177" x2="144.43027221244503" y2="71.262746179367952" />
    <line x1="207.85281374238571" y1="38.147186257614294" x2="196.53910524340094" y2="49.460894756599046" />
    <line x1="185.22539674441617" y1="60.774603255583813" x2="151.2842712474619" y2="94.7157287525381" />
    <line x1="209.4728396794647" y1="65.220695765961352" x2="196.16932588262398" y2="74.109819494275" />
    <line x1="219.08347138117381" y1="83.200923034030666" x2="159.95518130045147" y2="107.6926627053964" />
    <line x1="240.69423364838764" y1="99.5891613580646" x2="225.00166916193598" y2="102.71060651032265" />
    <line x1="209.30910467548426" y1="105.83205166258071" x2="193.61654018903261" y2="108.95349681483876" />
    <line x1="209.30910467548426" y1="140.16794833741929" x2="193.61654018903261" y2="137.04650318516124" />
    <line x1="196.16932588262398" y1="171.89018050572497" x2="182.86581208578326" y2="163.00105677741135" />
    <line x1="196.53910524340097" y1="196.53910524340094" x2="185.22539674441617" y2="185.22539674441617" />
    <line x1="173.91168824543144" y1="173.91168824543144" x2="151.2842712474619" y2="151.2842712474619" />
    <line x1="189.66842796235227" y1="222.77635347630545" x2="180.77930423403862" y2="209.4728396794647" />
    <line x1="171.890180505725" y1="196.16932588262398" x2="163.00105677741135" y2="182.86581208578326" />
    <line x1="144.43027221244503" y1="174.73725382063205" x2="138.3073372946036" y2="159.95518130045147" />
    <line x1="146.41083864193544" y1="240.69423364838764" x2="143.28939348967737" y2="225.00166916193598" />
    <line x1="123.00000000000001" y1="227" x2="123.00000000000001" y2="211" />
    <line x1="123.00000000000001" y1="195" x2="123" y2="179" />
    <line x1="99.5891613580646" y1="240.69423364838764" x2="108.95349681483876" y2="193.61654018903261" />
    <line x1="95.446792869713548" y1="189.51932634081265" x2="101.56972778755498" y2="174.73725382063208" />
    <line x1="49.46089475659906" y1="196.53910524340097" x2="83.402020253553346" y2="162.59797974644667" />
    <line x1="94.7157287525381" y1="151.2842712474619" x2="106.02943725152286" y2="139.97056274847714" />
    <line x1="36.5271603205353" y1="180.77930423403862" x2="63.134187914216746" y2="163.00105677741135" />
    <line x1="41.698601139006783" y1="156.67614204812796" x2="71.262746179367952" y2="144.43027221244506" />
    <line x1="19" y1="123.00000000000001" x2="51" y2="123.00000000000001" />
    <line x1="67" y1="123.00000000000001" x2="83" y2="123.00000000000001" />
    <line x1="20.998330838064035" y1="102.71060651032266" x2="36.690895324515722" y2="105.83205166258071" />
    <line x1="41.698601139006783" y1="89.323857951872071" x2="56.48067365918736" y2="95.446792869713519" />
    <line x1="23.223646523694541" y1="56.331572037647774" x2="63.134187914216724" y2="82.998943222588665" />
    <line x1="60.774603255583806" y1="60.774603255583834" x2="83.402020253553331" y2="83.402020253553346" />
    <line x1="94.7157287525381" y1="94.7157287525381" x2="106.02943725152286" y2="106.02943725152286" />
    <line x1="65.220695765961381" y1="36.5271603205353" x2="74.109819494275" y2="49.83067411737602" />
    <line x1="89.323857951872043" y1="41.698601139006783" x2="95.446792869713491" y2="56.480673659187374" />
    <line x1="101.56972778755494" y1="71.262746179367952" x2="107.69266270539639" y2="86.044818699548543" />
    <line x1="99.589161358064558" y1="5.3057663516123625" x2="102.71060651032261" y2="20.998330838064049" />
  </g>
  <path fill="none" stroke="#ff0000" stroke-width="2" stroke-linecap="square" stroke-linejoin="round" d="M 134.76205683954728,3.5778327993363774 L 133.97791971691078,11.539310612713948 A 112,112 0 0,0 112.02208028308922,11.539310612713948 L 113.59035452836218,27.462266239469102 A 96,96 0 0,0 77.7459132647042,38.335558622557926 L 70.203565475488233,24.224818392984261 A 112,112 0 0,0 51.947952173671652,36.4228292233735 L 62.098244720289991,48.790996477177288 A 96,96 0 0,0 48.790996477177259,62.098244720290026 L 73.52733098478484,82.398829813526675 A 64,64 0 0,0 60.22974205419326,135.48578060903225 L 75.922306540644939,132.36433545677417 A 48,48 0 0,0 96.33262881505911,162.91054139052218 L 87.443505086745475,176.2140551873629 A 64,64 0 0,1 82.3988298135267,172.47266901521516 L 72.248537266908386,184.84083626901898 A 80,80 0 0,0 99.777225819643036,199.5552268585767 L 104.42178065571443,184.24418148686138 A 64,64 0 0,0 116.72690301890812,186.69182250702062 L 115.15862877363516,202.61477813377576 A 80,80 0 0,0 146.222774180357,199.5552268585767 L 141.5782193442856,184.24418148686135 A 64,64 0 0,0 158.55649491325454,176.2140551873629 L 140.77824745662727,149.60702759368144 A 32,32 0 0,1 110.75413016431713,152.56414504036118 L 113.81559762323785,145.17310878027089" />
  <type>Circular</type>
</svg>