<?xml version="1.0" encoding="utf-8" standalone="no"?>
<!DOCTYPE svg PUBLIC "-//W3C//DTD SVG 1.1//EN" "http://www.w3.org/Graphics/SVG/1.1/DTD/svg11.dtd"[]>
<svg width="662" height="767.83440613787491" version="1.1" xmlns="http://www.w3.org/2000/svg">
  <title>Hexagonal sigma maze with 16 cells side</title>
  <g fill="none" stroke="#000000" stroke-width="2" stroke-linecap="round" stroke-linejoin="round">
    <polyline points="296,26.248711305964321 303,14.12435565298218 317,14.12435565298218 324,26.248711305964321" />
    <line x1="317" y1="14.12435565298218" x2="324" y2="2.0000000000000391" />
    <polyline points="338,2.0000000000000391 345,14.12435565298218 359,14.12435565298218 366,26.248711305964321" />
    <polyline points="254,50.4974226119286 261,38.37306695894646 275,38.37306695894646 282,50.4974226119286" />
    <polyline points="275,38.37306695894646 282,26.248711305964321 296,26.248711305964321" />
    <polyline points="296,50.4974226119286 303,38.37306695894646 317,38.37306695894646 324,50.4974226119286" />
    <polyline points="324,26.248711305964321 338,26.248711305964321 345,38.37306695894646 359,38.37306695894646" />
    <polyline points="366,26.248711305964321 380,26.248711305964321 387,38.37306695894646 380,50.4974226119286" />
    <polyline points="387,38.37306695894646 401,38.37306695894646 408,50.4974226119286" />
    <polyline points="212,74.746133917892877 219,62.621778264910738 233,62.621778264910738 240,50.4974226119286 254,50.4974226119286" />
    <polyline points="254,74.746133917892877 261,62.621778264910738 275,62.621778264910738 282,74.746133917892877" />
    <polyline points="296,50.4974226119286 303,62.621778264910738 296,74.746133917892877" />
    <polyline points="324,74.746133917892877 317,62.621778264910738 324,50.4974226119286 338,50.4974226119286 345,62.621778264910738 359,62.621778264910738 366,50.4974226119286 380,50.4974226119286" />
    <polyline points="387,62.621778264910738 401,62.621778264910738 408,50.4974226119286 422,50.4974226119286 429,62.621778264910738 422,74.746133917892877" />
    <polyline points="429,62.621778264910738 443,62.621778264910738 450,74.746133917892877" />
    <polyline points="170,98.994845223857169 177,86.870489570875023 191,86.870489570875023 198,74.746133917892877 212,74.746133917892877 219,86.870489570875023 212,98.994845223857169" />
    <polyline points="240,98.994845223857169 233,86.870489570875023 240,74.746133917892877 254,74.746133917892877" />
    <line x1="254" y1="98.994845223857169" x2="261" y2="86.870489570875023" />
    <polyline points="275,86.870489570875023 282,74.746133917892877 296,74.746133917892877 303,86.870489570875023 296,98.994845223857169" />
    <line x1="317" y1="86.870489570875023" x2="324" y2="98.994845223857169" />
    <polyline points="338,74.746133917892877 345,86.870489570875023 338,98.994845223857169" />
    <polyline points="345,86.870489570875023 359,86.870489570875023 366,98.994845223857169" />
    <line x1="359" y1="86.870489570875023" x2="366" y2="74.746133917892877" />
    <polyline points="380,74.746133917892877 387,86.870489570875023 401,86.870489570875023 408,98.994845223857169" />
    <line x1="401" y1="86.870489570875023" x2="408" y2="74.746133917892877" />
    <line x1="422" y1="98.994845223857169" x2="429" y2="86.870489570875023" />
    <polyline points="450,98.994845223857169 443,86.870489570875023 450,74.746133917892877 464,74.746133917892877 471,86.870489570875023 485,86.870489570875023 492,98.994845223857169" />
    <polyline points="128,123.24355652982145 135,111.1192008768393 149,111.1192008768393 156,123.24355652982145" />
    <polyline points="149,111.1192008768393 156,98.994845223857155 170,98.994845223857155 177,111.1192008768393 191,111.1192008768393 198,98.994845223857155" />
    <polyline points="212,123.24355652982145 219,111.1192008768393 233,111.1192008768393 240,123.24355652982145" />
    <line x1="233" y1="111.1192008768393" x2="240" y2="98.994845223857155" />
    <polyline points="254,98.994845223857155 261,111.1192008768393 275,111.1192008768393 282,123.24355652982145" />
    <line x1="275" y1="111.1192008768393" x2="282" y2="98.994845223857155" />
    <polyline points="296,123.24355652982145 303,111.1192008768393 317,111.1192008768393 324,123.24355652982145" />
    <polyline points="317,111.1192008768393 324,98.994845223857155 338,98.994845223857155 345,111.1192008768393 359,111.1192008768393" />
    <polyline points="366,98.994845223857155 380,98.994845223857155 387,111.1192008768393 401,111.1192008768393 408,123.24355652982145" />
    <polyline points="408,98.994845223857155 422,98.994845223857155 429,111.1192008768393 422,123.24355652982145" />
    <polyline points="429,111.1192008768393 443,111.1192008768393 450,123.24355652982145" />
    <polyline points="464,98.994845223857155 471,111.1192008768393 464,123.24355652982145" />
    <line x1="471" y1="111.1192008768393" x2="485" y2="111.1192008768393" />
    <polyline points="492,98.994845223857155 506,98.994845223857155 513,111.1192008768393 506,123.24355652982145" />
    <polyline points="513,111.1192008768393 527,111.1192008768393 534,123.24355652982145" />
    <polyline points="86,147.49226783578573 93,135.36791218280359 107,135.36791218280359 114,123.24355652982145 128,123.24355652982145 135,135.36791218280359 128,147.49226783578573" />
    <line x1="149" y1="135.36791218280359" x2="156" y2="147.49226783578573" />
    <polyline points="170,123.24355652982145 177,135.36791218280359 170,147.49226783578573" />
    <polyline points="177,135.36791218280359 191,135.36791218280359 198,123.24355652982145" />
    <polyline points="212,147.49226783578573 219,135.36791218280359 233,135.36791218280359 240,123.24355652982145 254,123.24355652982145 261,135.36791218280359 254,147.49226783578573" />
    <line x1="261" y1="135.36791218280359" x2="275" y2="135.36791218280359" />
    <polyline points="282,123.24355652982145 296,123.24355652982145 303,135.36791218280359 296,147.49226783578573" />
    <line x1="317" y1="135.36791218280359" x2="324" y2="123.24355652982145" />
    <polyline points="338,123.24355652982145 345,135.36791218280359 338,147.49226783578573" />
    <polyline points="345,135.36791218280359 359,135.36791218280359 366,147.49226783578573" />
    <polyline points="359,135.36791218280359 366,123.24355652982145 380,123.24355652982145 387,135.36791218280359 401,135.36791218280359 408,147.49226783578573" />
    <polyline points="422,123.24355652982145 429,135.36791218280359 443,135.36791218280359 450,147.49226783578573" />
    <polyline points="450,123.24355652982145 464,123.24355652982145 471,135.36791218280359" />
    <line x1="485" y1="135.36791218280359" x2="492" y2="147.49226783578573" />
    <polyline points="492,123.24355652982145 506,123.24355652982145 513,135.36791218280359" />
    <line x1="527" y1="135.36791218280359" x2="534" y2="147.49226783578573" />
    <polyline points="534,123.24355652982145 548,123.24355652982145 555,135.36791218280359 569,135.36791218280359 576,147.49226783578573" />
    <polyline points="44,171.74097914175002 51,159.61662348876789 65,159.61662348876789 72,171.74097914175002" />
    <polyline points="65,159.61662348876789 72,147.49226783578575 86,147.49226783578575" />
    <polyline points="93,159.61662348876789 107,159.61662348876789 114,171.74097914175002" />
    <line x1="114" y1="147.49226783578575" x2="128" y2="147.49226783578575" />
    <line x1="128" y1="171.74097914175002" x2="135" y2="159.61662348876789" />
    <polyline points="156,171.74097914175002 149,159.61662348876789 156,147.49226783578575 170,147.49226783578575" />
    <polyline points="170,171.74097914175002 177,159.61662348876789 191,159.61662348876789 198,147.49226783578575 212,147.49226783578575" />
    <polyline points="212,171.74097914175002 219,159.61662348876789 233,159.61662348876789 240,171.74097914175002" />
    <line x1="233" y1="159.61662348876789" x2="240" y2="147.49226783578575" />
    <polyline points="254,147.49226783578575 261,159.61662348876789 254,171.74097914175002" />
    <line x1="261" y1="159.61662348876789" x2="275" y2="159.61662348876789" />
    <polyline points="282,147.49226783578575 296,147.49226783578575 303,159.61662348876789 296,171.74097914175002" />
    <polyline points="303,159.61662348876789 317,159.61662348876789 324,147.49226783578575 338,147.49226783578575" />
    <polyline points="338,171.74097914175002 345,159.61662348876789 359,159.61662348876789 366,171.74097914175002" />
    <polyline points="380,147.49226783578575 387,159.61662348876789 401,159.61662348876789 408,171.74097914175002" />
    <polyline points="408,147.49226783578575 422,147.49226783578575 429,159.61662348876789 443,159.61662348876789 450,171.74097914175002" />
    <polyline points="450,147.49226783578575 464,147.49226783578575 471,159.61662348876789 485,159.61662348876789 492,147.49226783578575 506,147.49226783578575 513,159.61662348876789 506,171.74097914175002" />
    <polyline points="513,159.61662348876789 527,159.61662348876789 534,147.49226783578575 548,147.49226783578575" />
    <polyline points="548,171.74097914175002 555,159.61662348876789 569,159.61662348876789 576,147.49226783578575 590,147.49226783578575 597,159.61662348876789 611,159.61662348876789 618,171.74097914175002" />
    <polyline points="9,208.11404610069641 2,195.98969044771428 9,183.86533479473215 23,183.86533479473215 30,195.98969044771428" />
    <polyline points="23,183.86533479473215 30,171.74097914175002 44,171.74097914175002" />
    <line x1="44" y1="195.98969044771428" x2="51" y2="183.86533479473215" />
    <polyline points="72,195.98969044771428 65,183.86533479473215 72,171.74097914175002 86,171.74097914175002" />
    <polyline points="93,183.86533479473215 107,183.86533479473215 114,195.98969044771428" />
    <polyline points="107,183.86533479473215 114,171.74097914175002 128,171.74097914175002 135,183.86533479473215 149,183.86533479473215 156,195.98969044771428" />
    <polyline points="156,171.74097914175002 170,171.74097914175002 177,183.86533479473215" />
    <polyline points="198,195.98969044771428 191,183.86533479473215 198,171.74097914175002 212,171.74097914175002 219,183.86533479473215 212,195.98969044771428" />
    <line x1="233" y1="183.86533479473215" x2="240" y2="195.98969044771428" />
    <polyline points="254,171.74097914175002 261,183.86533479473215 254,195.98969044771428" />
    <polyline points="282,195.98969044771428 275,183.86533479473215 282,171.74097914175002 296,171.74097914175002" />
    <polyline points="303,183.86533479473215 317,183.86533479473215 324,171.74097914175002 338,171.74097914175002 345,183.86533479473215 338,195.98969044771428" />
    <polyline points="366,195.98969044771428 359,183.86533479473215 366,171.74097914175002 380,171.74097914175002" />
    <polyline points="380,195.98969044771428 387,183.86533479473215 401,183.86533479473215 408,171.74097914175002 422,171.74097914175002 429,183.86533479473215 422,195.98969044771428" />
    <polyline points="443,183.86533479473215 450,171.74097914175002 464,171.74097914175002" />
    <polyline points="464,195.98969044771428 471,183.86533479473215 485,183.86533479473215 492,171.74097914175002 506,171.74097914175002" />
    <polyline points="506,195.98969044771428 513,183.86533479473215 527,183.86533479473215 534,171.74097914175002 548,171.74097914175002 555,183.86533479473215" />
    <polyline points="576,195.98969044771428 569,183.86533479473215 576,171.74097914175002 590,171.74097914175002 597,183.86533479473215 590,195.98969044771428" />
    <polyline points="597,183.86533479473215 611,183.86533479473215 618,195.98969044771428" />
    <polyline points="618,171.74097914175002 632,171.74097914175002 639,183.86533479473215 653,183.86533479473215 660,195.98969044771428 653,208.11404610069641" />
    <polyline points="9,232.36275740666071 2,220.23840175367857 9,208.11404610069644" />
    <line x1="23" y1="208.11404610069644" x2="30" y2="195.98969044771431" />
    <polyline points="44,195.98969044771431 51,208.11404610069644 44,220.23840175367857" />
    <line x1="51" y1="208.11404610069644" x2="65" y2="208.11404610069644" />
    <polyline points="72,195.98969044771431 86,195.98969044771431 93,208.11404610069644 86,220.23840175367857" />
    <polyline points="107,208.11404610069644 114,195.98969044771431 128,195.98969044771431" />
    <line x1="128" y1="220.23840175367857" x2="135" y2="208.11404610069644" />
    <polyline points="156,220.23840175367857 149,208.11404610069644 156,195.98969044771431 170,195.98969044771431 177,208.11404610069644 191,208.11404610069644 198,220.23840175367857" />
    <line x1="191" y1="208.11404610069644" x2="198" y2="195.98969044771431" />
    <polyline points="212,195.98969044771431 219,208.11404610069644 212,220.23840175367857" />
    <polyline points="233,208.11404610069644 240,195.98969044771431 254,195.98969044771431 261,208.11404610069644 275,208.11404610069644 282,195.98969044771431 296,195.98969044771431 303,208.11404610069644 317,208.11404610069644 324,220.23840175367857" />
    <line x1="317" y1="208.11404610069644" x2="324" y2="195.98969044771431" />
    <polyline points="338,195.98969044771431 345,208.11404610069644 338,220.23840175367857" />
    <polyline points="366,220.23840175367857 359,208.11404610069644 366,195.98969044771431" />
    <polyline points="380,220.23840175367857 387,208.11404610069644 401,208.11404610069644 408,195.98969044771431" />
    <polyline points="422,195.98969044771431 429,208.11404610069644 422,220.23840175367857" />
    <polyline points="429,208.11404610069644 443,208.11404610069644 450,220.23840175367857" />
    <polyline points="443,208.11404610069644 450,195.98969044771431 464,195.98969044771431" />
    <polyline points="464,220.23840175367857 471,208.11404610069644 485,208.11404610069644 492,195.98969044771431 506,195.98969044771431 513,208.11404610069644 527,208.11404610069644" />
    <polyline points="534,195.98969044771431 548,195.98969044771431 555,208.11404610069644 569,208.11404610069644 576,195.98969044771431" />
    <polyline points="590,220.23840175367857 597,208.11404610069644 611,208.11404610069644 618,220.23840175367857" />
    <polyline points="618,195.98969044771431 632,195.98969044771431 639,208.11404610069644 632,220.23840175367857" />
    <polyline points="653,208.11404610069644 660,220.23840175367857 653,232.36275740666071" />
    <polyline points="9,256.611468712625 2,244.48711305964287 9,232.36275740666073 23,232.36275740666073 30,244.48711305964287" />
    <polyline points="30,220.2384017536786 44,220.2384017536786 51,232.36275740666073 65,232.36275740666073 72,244.48711305964287" />
    <polyline points="65,232.36275740666073 72,220.2384017536786 86,220.2384017536786 93,232.36275740666073 107,232.36275740666073 114,244.48711305964287" />
    <polyline points="114,220.2384017536786 128,220.2384017536786 135,232.36275740666073 149,232.36275740666073 156,220.2384017536786" />
    <polyline points="170,220.2384017536786 177,232.36275740666073 170,244.48711305964287" />
    <polyline points="177,232.36275740666073 191,232.36275740666073 198,244.48711305964287" />
    <polyline points="212,220.2384017536786 219,232.36275740666073 212,244.48711305964287" />
    <polyline points="219,232.36275740666073 233,232.36275740666073 240,244.48711305964287" />
    <polyline points="233,232.36275740666073 240,220.2384017536786 254,220.2384017536786 261,232.36275740666073 275,232.36275740666073 282,220.2384017536786" />
    <polyline points="296,220.2384017536786 303,232.36275740666073 317,232.36275740666073 324,244.48711305964287" />
    <polyline points="338,244.48711305964287 345,232.36275740666073 359,232.36275740666073 366,244.48711305964287" />
    <polyline points="359,232.36275740666073 366,220.2384017536786 380,220.2384017536786" />
    <polyline points="380,244.48711305964287 387,232.36275740666073 401,232.36275740666073 408,244.48711305964287" />
    <polyline points="401,232.36275740666073 408,220.2384017536786 422,220.2384017536786" />
    <line x1="422" y1="244.48711305964287" x2="429" y2="232.36275740666073" />
    <polyline points="450,244.48711305964287 443,232.36275740666073 450,220.2384017536786" />
    <polyline points="464,244.48711305964287 471,232.36275740666073 485,232.36275740666073 492,220.2384017536786 506,220.2384017536786 513,232.36275740666073 506,244.48711305964287" />
    <polyline points="513,232.36275740666073 527,232.36275740666073 534,220.2384017536786 548,220.2384017536786 555,232.36275740666073 569,232.36275740666073 576,220.2384017536786 590,220.2384017536786 597,232.36275740666073 590,244.48711305964287" />
    <line x1="611" y1="232.36275740666073" x2="618" y2="244.48711305964287" />
    <polyline points="632,220.2384017536786 639,232.36275740666073 653,232.36275740666073 660,244.48711305964287 653,256.611468712625" />
    <polyline points="9,280.86018001858929 2,268.73582436560713 9,256.61146871262497" />
    <line x1="23" y1="256.61146871262497" x2="30" y2="268.73582436560713" />
    <polyline points="30,244.48711305964284 44,244.48711305964284 51,256.61146871262497 65,256.61146871262497 72,268.73582436560713" />
    <polyline points="86,244.48711305964284 93,256.61146871262497 86,268.73582436560713" />
    <polyline points="114,268.73582436560713 107,256.61146871262497 114,244.48711305964284 128,244.48711305964284 135,256.61146871262497 149,256.61146871262497 156,244.48711305964284 170,244.48711305964284 177,256.61146871262497 170,268.73582436560713" />
    <line x1="191" y1="256.61146871262497" x2="198" y2="268.73582436560713" />
    <line x1="198" y1="244.48711305964284" x2="212" y2="244.48711305964284" />
    <polyline points="212,268.73582436560713 219,256.61146871262497 233,256.61146871262497 240,268.73582436560713" />
    <polyline points="254,244.48711305964284 261,256.61146871262497 254,268.73582436560713" />
    <polyline points="261,256.61146871262497 275,256.61146871262497 282,268.73582436560713" />
    <polyline points="275,256.61146871262497 282,244.48711305964284 296,244.48711305964284" />
    <polyline points="296,268.73582436560713 303,256.61146871262497 317,256.61146871262497 324,244.48711305964284 338,244.48711305964284" />
    <line x1="338" y1="268.73582436560713" x2="345" y2="256.61146871262497" />
    <polyline points="366,268.73582436560713 359,256.61146871262497 366,244.48711305964284" />
    <polyline points="380,268.73582436560713 387,256.61146871262497 401,256.61146871262497" />
    <polyline points="408,244.48711305964284 422,244.48711305964284 429,256.61146871262497 422,268.73582436560713" />
    <line x1="443" y1="256.61146871262497" x2="450" y2="268.73582436560713" />
    <polyline points="450,244.48711305964284 464,244.48711305964284 471,256.61146871262497 464,268.73582436560713" />
    <polyline points="492,268.73582436560713 485,256.61146871262497 492,244.48711305964284" />
    <polyline points="506,244.48711305964284 513,256.61146871262497 506,268.73582436560713" />
    <polyline points="527,256.61146871262497 534,244.48711305964284 548,244.48711305964284 555,256.61146871262497 569,256.61146871262497 576,268.73582436560713" />
    <line x1="569" y1="256.61146871262497" x2="576" y2="244.48711305964284" />
    <line x1="590" y1="244.48711305964284" x2="597" y2="256.61146871262497" />
    <line x1="611" y1="256.61146871262497" x2="618" y2="268.73582436560713" />
    <polyline points="618,244.48711305964284 632,244.48711305964284 639,256.61146871262497 632,268.73582436560713" />
    <polyline points="653,256.61146871262497 660,268.73582436560713 653,280.86018001858929" />
    <polyline points="9,305.10889132455355 2,292.98453567157139 9,280.86018001858923" />
    <polyline points="30,292.98453567157139 23,280.86018001858923 30,268.73582436560707" />
    <polyline points="44,268.73582436560707 51,280.86018001858923 44,292.98453567157139" />
    <polyline points="51,280.86018001858923 65,280.86018001858923 72,292.98453567157139" />
    <polyline points="86,268.73582436560707 93,280.86018001858923 86,292.98453567157139" />
    <polyline points="114,292.98453567157139 107,280.86018001858923 114,268.73582436560707" />
    <polyline points="128,268.73582436560707 135,280.86018001858923 128,292.98453567157139" />
    <polyline points="135,280.86018001858923 149,280.86018001858923 156,268.73582436560707 170,268.73582436560707 177,280.86018001858923 170,292.98453567157139" />
    <polyline points="177,280.86018001858923 191,280.86018001858923 198,292.98453567157139" />
    <polyline points="198,268.73582436560707 212,268.73582436560707 219,280.86018001858923 212,292.98453567157139" />
    <line x1="233" y1="280.86018001858923" x2="240" y2="292.98453567157139" />
    <line x1="240" y1="268.73582436560707" x2="254" y2="268.73582436560707" />
    <polyline points="254,292.98453567157139 261,280.86018001858923 275,280.86018001858923 282,292.98453567157139" />
    <polyline points="282,268.73582436560707 296,268.73582436560707 303,280.86018001858923" />
    <polyline points="324,292.98453567157139 317,280.86018001858923 324,268.73582436560707 338,268.73582436560707" />
    <polyline points="338,292.98453567157139 345,280.86018001858923 359,280.86018001858923 366,292.98453567157139" />
    <polyline points="366,268.73582436560707 380,268.73582436560707 387,280.86018001858923 380,292.98453567157139" />
    <line x1="387" y1="280.86018001858923" x2="401" y2="280.86018001858923" />
    <polyline points="408,268.73582436560707 422,268.73582436560707 429,280.86018001858923 422,292.98453567157139" />
    <polyline points="450,292.98453567157139 443,280.86018001858923 450,268.73582436560707" />
    <line x1="464" y1="292.98453567157139" x2="471" y2="280.86018001858923" />
    <polyline points="492,292.98453567157139 485,280.86018001858923 492,268.73582436560707" />
    <polyline points="506,268.73582436560707 513,280.86018001858923 527,280.86018001858923 534,292.98453567157139" />
    <polyline points="527,280.86018001858923 534,268.73582436560707 548,268.73582436560707 555,280.86018001858923" />
    <polyline points="569,280.86018001858923 576,268.73582436560707 590,268.73582436560707 597,280.86018001858923 611,280.86018001858923 618,292.98453567157139" />
    <line x1="611" y1="280.86018001858923" x2="618" y2="268.73582436560707" />
    <polyline points="632,268.73582436560707 639,280.86018001858923 653,280.86018001858923 660,292.98453567157139 653,305.10889132455355" />
    <polyline points="9,329.35760263051787 2,317.23324697753571 9,305.10889132455355" />
    <polyline points="30,317.23324697753571 23,305.10889132455355 30,292.98453567157139" />
    <line x1="44" y1="292.98453567157139" x2="51" y2="305.10889132455355" />
    <line x1="65" y1="305.10889132455355" x2="72" y2="317.23324697753571" />
    <polyline points="72,292.98453567157139 86,292.98453567157139 93,305.10889132455355 107,305.10889132455355 114,317.23324697753571" />
    <line x1="107" y1="305.10889132455355" x2="114" y2="292.98453567157139" />
    <polyline points="128,317.23324697753571 135,305.10889132455355 149,305.10889132455355 156,317.23324697753571" />
    <line x1="149" y1="305.10889132455355" x2="156" y2="292.98453567157139" />
    <polyline points="177,305.10889132455355 191,305.10889132455355 198,317.23324697753571" />
    <polyline points="212,292.98453567157139 219,305.10889132455355 212,317.23324697753571" />
    <line x1="219" y1="305.10889132455355" x2="233" y2="305.10889132455355" />
    <polyline points="240,292.98453567157139 254,292.98453567157139 261,305.10889132455355 254,317.23324697753571" />
    <line x1="275" y1="305.10889132455355" x2="282" y2="292.98453567157139" />
    <polyline points="296,292.98453567157139 303,305.10889132455355 296,317.23324697753571" />
    <polyline points="303,305.10889132455355 317,305.10889132455355 324,317.23324697753571" />
    <line x1="317" y1="305.10889132455355" x2="324" y2="292.98453567157139" />
    <line x1="338" y1="317.23324697753571" x2="345" y2="305.10889132455355" />
    <polyline points="366,317.23324697753571 359,305.10889132455355 366,292.98453567157139" />
    <polyline points="380,317.23324697753571 387,305.10889132455355 401,305.10889132455355" />
    <polyline points="408,292.98453567157139 422,292.98453567157139 429,305.10889132455355 422,317.23324697753571" />
    <polyline points="450,317.23324697753571 443,305.10889132455355 450,292.98453567157139 464,292.98453567157139 471,305.10889132455355 464,317.23324697753571" />
    <polyline points="471,305.10889132455355 485,305.10889132455355 492,317.23324697753571" />
    <polyline points="492,292.98453567157139 506,292.98453567157139 513,305.10889132455355 506,317.23324697753571" />
    <polyline points="513,305.10889132455355 527,305.10889132455355 534,317.23324697753571" />
    <polyline points="548,292.98453567157139 555,305.10889132455355 548,317.23324697753571" />
    <polyline points="555,305.10889132455355 569,305.10889132455355 576,292.98453567157139 590,292.98453567157139 597,305.10889132455355 611,305.10889132455355" />
    <polyline points="618,292.98453567157139 632,292.98453567157139 639,305.10889132455355 632,317.23324697753571" />
    <polyline points="653,305.10889132455355 660,317.23324697753571 653,329.35760263051787" />
    <polyline points="9,353.60631393648214 2,341.4819582835 9,329.35760263051782" />
    <polyline points="30,341.4819582835 23,329.35760263051782 30,317.23324697753566 44,317.23324697753566" />
    <polyline points="51,329.35760263051782 65,329.35760263051782 72,341.4819582835" />
    <polyline points="65,329.35760263051782 72,317.23324697753566 86,317.23324697753566" />
    <polyline points="93,329.35760263051782 107,329.35760263051782 114,341.4819582835" />
    <line x1="114" y1="317.23324697753566" x2="128" y2="317.23324697753566" />
    <polyline points="128,341.4819582835 135,329.35760263051782 149,329.35760263051782" />
    <polyline points="156,317.23324697753566 170,317.23324697753566 177,329.35760263051782 170,341.4819582835" />
    <polyline points="198,341.4819582835 191,329.35760263051782 198,317.23324697753566 212,317.23324697753566 219,329.35760263051782" />
    <polyline points="240,341.4819582835 233,329.35760263051782 240,317.23324697753566 254,317.23324697753566 261,329.35760263051782 254,341.4819582835" />
    <polyline points="261,329.35760263051782 275,329.35760263051782 282,341.4819582835" />
    <polyline points="275,329.35760263051782 282,317.23324697753566 296,317.23324697753566 303,329.35760263051782 296,341.4819582835" />
    <line x1="317" y1="329.35760263051782" x2="324" y2="341.4819582835" />
    <polyline points="324,317.23324697753566 338,317.23324697753566 345,329.35760263051782 338,341.4819582835" />
    <polyline points="359,329.35760263051782 366,317.23324697753566 380,317.23324697753566 387,329.35760263051782 380,341.4819582835" />
    <line x1="387" y1="329.35760263051782" x2="401" y2="329.35760263051782" />
    <polyline points="408,317.23324697753566 422,317.23324697753566 429,329.35760263051782 422,341.4819582835" />
    <polyline points="429,329.35760263051782 443,329.35760263051782 450,341.4819582835" />
    <polyline points="464,317.23324697753566 471,329.35760263051782 464,341.4819582835" />
    <line x1="485" y1="329.35760263051782" x2="492" y2="341.4819582835" />
    <polyline points="492,317.23324697753566 506,317.23324697753566 513,329.35760263051782 506,341.4819582835" />
    <line x1="527" y1="329.35760263051782" x2="534" y2="341.4819582835" />
    <polyline points="534,317.23324697753566 548,317.23324697753566 555,329.35760263051782 548,341.4819582835" />
    <polyline points="569,329.35760263051782 576,317.23324697753566 590,317.23324697753566 597,329.35760263051782 590,341.4819582835" />
    <polyline points="597,329.35760263051782 611,329.35760263051782 618,341.4819582835" />
    <polyline points="611,329.35760263051782 618,317.23324697753566 632,317.23324697753566" />
    <polyline points="639,329.35760263051782 653,329.35760263051782 660,341.4819582835 653,353.60631393648214" />
    <polyline points="9,377.8550252424464 2,365.73066958946424 9,353.60631393648208" />
    <polyline points="23,353.60631393648208 30,341.48195828349992 44,341.48195828349992 51,353.60631393648208 44,365.73066958946424" />
    <polyline points="72,365.73066958946424 65,353.60631393648208 72,341.48195828349992 86,341.48195828349992 93,353.60631393648208 107,353.60631393648208 114,341.48195828349992 128,341.48195828349992 135,353.60631393648208 149,353.60631393648208 156,365.73066958946424" />
    <polyline points="156,341.48195828349992 170,341.48195828349992 177,353.60631393648208 191,353.60631393648208 198,341.48195828349992" />
    <polyline points="212,341.48195828349992 219,353.60631393648208 233,353.60631393648208 240,365.73066958946424" />
    <line x1="233" y1="353.60631393648208" x2="240" y2="341.48195828349992" />
    <polyline points="261,353.60631393648208 275,353.60631393648208 282,365.73066958946424" />
    <polyline points="296,341.48195828349992 303,353.60631393648208 317,353.60631393648208 324,365.73066958946424" />
    <line x1="324" y1="341.48195828349992" x2="338" y2="341.48195828349992" />
    <polyline points="338,365.73066958946424 345,353.60631393648208 359,353.60631393648208 366,365.73066958946424" />
    <line x1="359" y1="353.60631393648208" x2="366" y2="341.48195828349992" />
    <polyline points="380,341.48195828349992 387,353.60631393648208 380,365.73066958946424" />
    <polyline points="401,353.60631393648208 408,341.48195828349992 422,341.48195828349992 429,353.60631393648208 422,365.73066958946424" />
    <line x1="443" y1="353.60631393648208" x2="450" y2="365.73066958946424" />
    <line x1="450" y1="341.48195828349992" x2="464" y2="341.48195828349992" />
    <polyline points="464,365.73066958946424 471,353.60631393648208 485,353.60631393648208 492,365.73066958946424" />
    <line x1="485" y1="353.60631393648208" x2="492" y2="341.48195828349992" />
    <polyline points="506,365.73066958946424 513,353.60631393648208 527,353.60631393648208 534,365.73066958946424" />
    <line x1="527" y1="353.60631393648208" x2="534" y2="341.48195828349992" />
    <polyline points="548,341.48195828349992 555,353.60631393648208 569,353.60631393648208 576,365.73066958946424" />
    <polyline points="569,353.60631393648208 576,341.48195828349992 590,341.48195828349992" />
    <polyline points="597,353.60631393648208 611,353.60631393648208 618,365.73066958946424" />
    <polyline points="618,341.48195828349992 632,341.48195828349992 639,353.60631393648208" />
    <polyline points="653,353.60631393648208 660,365.73066958946424 653,377.8550252424464" />
    <polyline points="9,402.10373654841072 2,389.97938089542856 9,377.8550252424464 23,377.8550252424464 30,365.73066958946424 44,365.73066958946424" />
    <polyline points="44,389.97938089542856 51,377.8550252424464 65,377.8550252424464 72,389.97938089542856" />
    <line x1="65" y1="377.8550252424464" x2="72" y2="365.73066958946424" />
    <polyline points="86,365.73066958946424 93,377.8550252424464 86,389.97938089542856" />
    <polyline points="93,377.8550252424464 107,377.8550252424464 114,389.97938089542856" />
    <polyline points="107,377.8550252424464 114,365.73066958946424 128,365.73066958946424 135,377.8550252424464 128,389.97938089542856" />
    <polyline points="135,377.8550252424464 149,377.8550252424464 156,389.97938089542856" />
    <line x1="156" y1="365.73066958946424" x2="170" y2="365.73066958946424" />
    <polyline points="170,389.97938089542856 177,377.8550252424464 191,377.8550252424464" />
    <polyline points="198,365.73066958946424 212,365.73066958946424 219,377.8550252424464 212,389.97938089542856" />
    <line x1="233" y1="377.8550252424464" x2="240" y2="389.97938089542856" />
    <line x1="240" y1="365.73066958946424" x2="254" y2="365.73066958946424" />
    <line x1="254" y1="389.97938089542856" x2="261" y2="377.8550252424464" />
    <polyline points="275,377.8550252424464 282,365.73066958946424 296,365.73066958946424 303,377.8550252424464 296,389.97938089542856" />
    <polyline points="324,389.97938089542856 317,377.8550252424464 324,365.73066958946424" />
    <polyline points="338,365.73066958946424 345,377.8550252424464 338,389.97938089542856" />
    <line x1="359" y1="377.8550252424464" x2="366" y2="389.97938089542856" />
    <polyline points="366,365.73066958946424 380,365.73066958946424 387,377.8550252424464 380,389.97938089542856" />
    <polyline points="408,389.97938089542856 401,377.8550252424464 408,365.73066958946424 422,365.73066958946424 429,377.8550252424464 443,377.8550252424464 450,389.97938089542856" />
    <line x1="450" y1="365.73066958946424" x2="464" y2="365.73066958946424" />
    <polyline points="464,389.97938089542856 471,377.8550252424464 485,377.8550252424464 492,389.97938089542856" />
    <polyline points="492,365.73066958946424 506,365.73066958946424 513,377.8550252424464 506,389.97938089542856" />
    <polyline points="513,377.8550252424464 527,377.8550252424464 534,389.97938089542856" />
    <polyline points="548,365.73066958946424 555,377.8550252424464 548,389.97938089542856" />
    <polyline points="569,377.8550252424464 576,365.73066958946424 590,365.73066958946424 597,377.8550252424464 590,389.97938089542856" />
    <line x1="597" y1="377.8550252424464" x2="611" y2="377.8550252424464" />
    <polyline points="618,365.73066958946424 632,365.73066958946424 639,377.8550252424464 653,377.8550252424464 660,389.97938089542856 653,402.10373654841072" />
    <polyline points="9,426.352447854375 2,414.22809220139283 9,402.10373654841067 23,402.10373654841067 30,389.97938089542851 44,389.97938089542851" />
    <polyline points="44,414.22809220139283 51,402.10373654841067 65,402.10373654841067" />
    <line x1="72" y1="389.97938089542851" x2="86" y2="389.97938089542851" />
    <polyline points="86,414.22809220139283 93,402.10373654841067 107,402.10373654841067 114,414.22809220139283" />
    <polyline points="128,389.97938089542851 135,402.10373654841067 128,414.22809220139283" />
    <line x1="135" y1="402.10373654841067" x2="149" y2="402.10373654841067" />
    <polyline points="156,389.97938089542851 170,389.97938089542851 177,402.10373654841067 170,414.22809220139283" />
    <line x1="177" y1="402.10373654841067" x2="191" y2="402.10373654841067" />
    <polyline points="198,389.97938089542851 212,389.97938089542851 219,402.10373654841067 212,414.22809220139283" />
    <polyline points="219,402.10373654841067 233,402.10373654841067 240,389.97938089542851 254,389.97938089542851 261,402.10373654841067" />
    <polyline points="282,414.22809220139283 275,402.10373654841067 282,389.97938089542851" />
    <polyline points="296,389.97938089542851 303,402.10373654841067 317,402.10373654841067 324,414.22809220139283" />
    <line x1="317" y1="402.10373654841067" x2="324" y2="389.97938089542851" />
    <polyline points="338,414.22809220139283 345,402.10373654841067 359,402.10373654841067 366,414.22809220139283" />
    <line x1="359" y1="402.10373654841067" x2="366" y2="389.97938089542851" />
    <polyline points="380,389.97938089542851 387,402.10373654841067 380,414.22809220139283" />
    <polyline points="387,402.10373654841067 401,402.10373654841067 408,389.97938089542851" />
    <polyline points="422,389.97938089542851 429,402.10373654841067 422,414.22809220139283" />
    <polyline points="429,402.10373654841067 443,402.10373654841067 450,414.22809220139283" />
    <polyline points="450,389.97938089542851 464,389.97938089542851 471,402.10373654841067 485,402.10373654841067 492,414.22809220139283" />
    <line x1="506" y1="389.97938089542851" x2="513" y2="402.10373654841067" />
    <line x1="527" y1="402.10373654841067" x2="534" y2="414.22809220139283" />
    <polyline points="534,389.97938089542851 548,389.97938089542851 555,402.10373654841067 548,414.22809220139283" />
    <polyline points="555,402.10373654841067 569,402.10373654841067 576,389.97938089542851 590,389.97938089542851 597,402.10373654841067 611,402.10373654841067" />
    <polyline points="618,389.97938089542851 632,389.97938089542851 639,402.10373654841067 632,414.22809220139283" />
    <polyline points="653,402.10373654841067 660,414.22809220139283 653,426.352447854375" />
    <polyline points="9,450.60115916033925 2,438.47680350735709 9,426.35244785437493" />
    <polyline points="30,438.47680350735709 23,426.35244785437493 30,414.22809220139277 44,414.22809220139277 51,426.35244785437493 65,426.35244785437493 72,438.47680350735709" />
    <line x1="72" y1="414.22809220139277" x2="86" y2="414.22809220139277" />
    <line x1="86" y1="438.47680350735709" x2="93" y2="426.35244785437493" />
    <polyline points="114,438.47680350735709 107,426.35244785437493 114,414.22809220139277" />
    <polyline points="128,414.22809220139277 135,426.35244785437493 149,426.35244785437493" />
    <line x1="156" y1="414.22809220139277" x2="170" y2="414.22809220139277" />
    <polyline points="170,438.47680350735709 177,426.35244785437493 191,426.35244785437493 198,438.47680350735709" />
    <polyline points="198,414.22809220139277 212,414.22809220139277 219,426.35244785437493 212,438.47680350735709" />
    <polyline points="219,426.35244785437493 233,426.35244785437493 240,438.47680350735709" />
    <polyline points="240,414.22809220139277 254,414.22809220139277 261,426.35244785437493 275,426.35244785437493 282,438.47680350735709" />
    <polyline points="275,426.35244785437493 282,414.22809220139277 296,414.22809220139277 303,426.35244785437493 317,426.35244785437493 324,414.22809220139277 338,414.22809220139277 345,426.35244785437493 338,438.47680350735709" />
    <line x1="359" y1="426.35244785437493" x2="366" y2="438.47680350735709" />
    <polyline points="380,414.22809220139277 387,426.35244785437493 380,438.47680350735709" />
    <line x1="387" y1="426.35244785437493" x2="401" y2="426.35244785437493" />
    <polyline points="408,414.22809220139277 422,414.22809220139277 429,426.35244785437493 422,438.47680350735709" />
    <polyline points="443,426.35244785437493 450,414.22809220139277 464,414.22809220139277 471,426.35244785437493 464,438.47680350735709" />
    <line x1="485" y1="426.35244785437493" x2="492" y2="438.47680350735709" />
    <line x1="492" y1="414.22809220139277" x2="506" y2="414.22809220139277" />
    <polyline points="513,426.35244785437493 527,426.35244785437493 534,438.47680350735709" />
    <line x1="527" y1="426.35244785437493" x2="534" y2="414.22809220139277" />
    <polyline points="548,414.22809220139277 555,426.35244785437493 548,438.47680350735709" />
    <polyline points="555,426.35244785437493 569,426.35244785437493 576,438.47680350735709" />
    <polyline points="576,414.22809220139277 590,414.22809220139277 597,426.35244785437493 611,426.35244785437493 618,438.47680350735709" />
    <polyline points="611,426.35244785437493 618,414.22809220139277 632,414.22809220139277" />
    <polyline points="632,438.47680350735709 639,426.35244785437493 653,426.35244785437493 660,438.47680350735709 653,450.60115916033925" />
    <polyline points="9,474.84987046630357 2,462.72551481332141 9,450.60115916033925" />
    <line x1="23" y1="450.60115916033925" x2="30" y2="462.72551481332141" />
    <polyline points="30,438.47680350735709 44,438.47680350735709 51,450.60115916033925" />
    <polyline points="72,462.72551481332141 65,450.60115916033925 72,438.47680350735709 86,438.47680350735709" />
    <polyline points="93,450.60115916033925 107,450.60115916033925 114,462.72551481332141" />
    <polyline points="107,450.60115916033925 114,438.47680350735709 128,438.47680350735709 135,450.60115916033925 149,450.60115916033925 156,438.47680350735709 170,438.47680350735709" />
    <polyline points="170,462.72551481332141 177,450.60115916033925 191,450.60115916033925 198,462.72551481332141" />
    <polyline points="198,438.47680350735709 212,438.47680350735709 219,450.60115916033925 212,462.72551481332141" />
    <line x1="233" y1="450.60115916033925" x2="240" y2="462.72551481332141" />
    <polyline points="240,438.47680350735709 254,438.47680350735709 261,450.60115916033925 254,462.72551481332141" />
    <polyline points="261,450.60115916033925 275,450.60115916033925 282,462.72551481332141" />
    <line x1="282" y1="438.47680350735709" x2="296" y2="438.47680350735709" />
    <polyline points="296,462.72551481332141 303,450.60115916033925 317,450.60115916033925 324,438.47680350735709" />
    <polyline points="338,438.47680350735709 345,450.60115916033925 338,462.72551481332141" />
    <polyline points="366,462.72551481332141 359,450.60115916033925 366,438.47680350735709 380,438.47680350735709 387,450.60115916033925 401,450.60115916033925 408,462.72551481332141" />
    <line x1="401" y1="450.60115916033925" x2="408" y2="438.47680350735709" />
    <polyline points="422,438.47680350735709 429,450.60115916033925 443,450.60115916033925 450,462.72551481332141" />
    <line x1="443" y1="450.60115916033925" x2="450" y2="438.47680350735709" />
    <polyline points="464,462.72551481332141 471,450.60115916033925 485,450.60115916033925 492,462.72551481332141" />
    <polyline points="485,450.60115916033925 492,438.47680350735709 506,438.47680350735709" />
    <polyline points="513,450.60115916033925 527,450.60115916033925 534,462.72551481332141" />
    <polyline points="527,450.60115916033925 534,438.47680350735709 548,438.47680350735709 555,450.60115916033925 548,462.72551481332141" />
    <line x1="569" y1="450.60115916033925" x2="576" y2="462.72551481332141" />
    <polyline points="576,438.47680350735709 590,438.47680350735709 597,450.60115916033925 590,462.72551481332141" />
    <polyline points="611,450.60115916033925 618,438.47680350735709 632,438.47680350735709" />
    <line x1="632" y1="462.72551481332141" x2="639" y2="450.60115916033925" />
    <polyline points="653,450.60115916033925 660,462.72551481332141 653,474.84987046630357" />
    <polyline points="9,499.09858177226783 2,486.97422611928567 9,474.84987046630351 23,474.84987046630351 30,462.72551481332135 44,462.72551481332135 51,474.84987046630351 65,474.84987046630351 72,462.72551481332135 86,462.72551481332135 93,474.84987046630351 86,486.97422611928567" />
    <polyline points="93,474.84987046630351 107,474.84987046630351 114,486.97422611928567" />
    <polyline points="114,462.72551481332135 128,462.72551481332135 135,474.84987046630351 149,474.84987046630351 156,486.97422611928567" />
    <polyline points="156,462.72551481332135 170,462.72551481332135 177,474.84987046630351 191,474.84987046630351 198,486.97422611928567" />
    <line x1="212" y1="486.97422611928567" x2="219" y2="474.84987046630351" />
    <polyline points="240,486.97422611928567 233,474.84987046630351 240,462.72551481332135" />
    <line x1="254" y1="486.97422611928567" x2="261" y2="474.84987046630351" />
    <polyline points="282,486.97422611928567 275,474.84987046630351 282,462.72551481332135 296,462.72551481332135" />
    <polyline points="303,474.84987046630351 317,474.84987046630351 324,486.97422611928567" />
    <line x1="317" y1="474.84987046630351" x2="324" y2="462.72551481332135" />
    <polyline points="338,462.72551481332135 345,474.84987046630351 338,486.97422611928567" />
    <polyline points="359,474.84987046630351 366,462.72551481332135 380,462.72551481332135 387,474.84987046630351 380,486.97422611928567" />
    <line x1="387" y1="474.84987046630351" x2="401" y2="474.84987046630351" />
    <polyline points="408,462.72551481332135 422,462.72551481332135 429,474.84987046630351 422,486.97422611928567" />
    <line x1="429" y1="474.84987046630351" x2="443" y2="474.84987046630351" />
    <polyline points="450,462.72551481332135 464,462.72551481332135 471,474.84987046630351 464,486.97422611928567" />
    <polyline points="485,474.84987046630351 492,462.72551481332135 506,462.72551481332135 513,474.84987046630351" />
    <polyline points="534,486.97422611928567 527,474.84987046630351 534,462.72551481332135" />
    <line x1="548" y1="462.72551481332135" x2="555" y2="474.84987046630351" />
    <polyline points="576,486.97422611928567 569,474.84987046630351 576,462.72551481332135" />
    <polyline points="590,462.72551481332135 597,474.84987046630351 590,486.97422611928567" />
    <polyline points="597,474.84987046630351 611,474.84987046630351 618,462.72551481332135 632,462.72551481332135" />
    <polyline points="632,486.97422611928567 639,474.84987046630351 653,474.84987046630351 660,486.97422611928567 653,499.09858177226783" />
    <polyline points="9,523.347293078232 2,511.22293742524994 9,499.09858177226778 23,499.09858177226778" />
    <polyline points="30,486.97422611928562 44,486.97422611928562 51,499.09858177226778 44,511.22293742524994" />
    <polyline points="72,511.22293742524994 65,499.09858177226778 72,486.97422611928562" />
    <polyline points="86,486.97422611928562 93,499.09858177226778 107,499.09858177226778 114,511.22293742524994" />
    <line x1="114" y1="486.97422611928562" x2="128" y2="486.97422611928562" />
    <polyline points="128,511.22293742524994 135,499.09858177226778 149,499.09858177226778 156,486.97422611928562 170,486.97422611928562 177,499.09858177226778" />
    <polyline points="198,511.22293742524994 191,499.09858177226778 198,486.97422611928562" />
    <polyline points="212,486.97422611928562 219,499.09858177226778 212,511.22293742524994" />
    <polyline points="240,511.22293742524994 233,499.09858177226778 240,486.97422611928562 254,486.97422611928562" />
    <polyline points="254,511.22293742524994 261,499.09858177226778 275,499.09858177226778 282,486.97422611928562" />
    <polyline points="296,486.97422611928562 303,499.09858177226778 296,511.22293742524994" />
    <polyline points="303,499.09858177226778 317,499.09858177226778 324,486.97422611928562" />
    <polyline points="338,486.97422611928562 345,499.09858177226778 338,511.22293742524994" />
    <polyline points="345,499.09858177226778 359,499.09858177226778 366,511.22293742524994" />
    <line x1="359" y1="499.09858177226778" x2="366" y2="486.97422611928562" />
    <polyline points="380,511.22293742524994 387,499.09858177226778 401,499.09858177226778 408,486.97422611928562 422,486.97422611928562" />
    <polyline points="422,511.22293742524994 429,499.09858177226778 443,499.09858177226778 450,486.97422611928562 464,486.97422611928562 471,499.09858177226778 485,499.09858177226778 492,486.97422611928562 506,486.97422611928562 513,499.09858177226778 506,511.22293742524994" />
    <polyline points="513,499.09858177226778 527,499.09858177226778 534,511.22293742524994" />
    <line x1="527" y1="499.09858177226778" x2="534" y2="486.97422611928562" />
    <polyline points="548,486.97422611928562 555,499.09858177226778 548,511.22293742524994" />
    <polyline points="555,499.09858177226778 569,499.09858177226778 576,511.22293742524994" />
    <line x1="569" y1="499.09858177226778" x2="576" y2="486.97422611928562" />
    <line x1="590" y1="511.22293742524994" x2="597" y2="499.09858177226778" />
    <polyline points="618,511.22293742524994 611,499.09858177226778 618,486.97422611928562 632,486.97422611928562" />
    <polyline points="639,499.09858177226778 653,499.09858177226778 660,511.22293742524994 653,523.347293078232" />
    <polyline points="9,547.59600438419636 2,535.47164873121426 9,523.34729307823216 23,523.34729307823216 30,535.47164873121426" />
    <polyline points="30,511.22293742525 44,511.22293742525 51,523.34729307823216 65,523.34729307823216 72,535.47164873121426" />
    <polyline points="72,511.22293742525 86,511.22293742525 93,523.34729307823216 86,535.47164873121426" />
    <polyline points="107,523.34729307823216 114,511.22293742525 128,511.22293742525" />
    <polyline points="128,535.47164873121426 135,523.34729307823216 149,523.34729307823216 156,535.47164873121426" />
    <polyline points="156,511.22293742525 170,511.22293742525 177,523.34729307823216 170,535.47164873121426" />
    <polyline points="177,523.34729307823216 191,523.34729307823216 198,511.22293742525" />
    <polyline points="212,511.22293742525 219,523.34729307823216 212,535.47164873121426" />
    <polyline points="240,535.47164873121426 233,523.34729307823216 240,511.22293742525 254,511.22293742525" />
    <polyline points="254,535.47164873121426 261,523.34729307823216 275,523.34729307823216 282,511.22293742525 296,511.22293742525 303,523.34729307823216 296,535.47164873121426" />
    <line x1="317" y1="523.34729307823216" x2="324" y2="535.47164873121426" />
    <polyline points="324,511.22293742525 338,511.22293742525 345,523.34729307823216" />
    <line x1="359" y1="523.34729307823216" x2="366" y2="535.47164873121426" />
    <polyline points="366,511.22293742525 380,511.22293742525 387,523.34729307823216 380,535.47164873121426" />
    <polyline points="408,535.47164873121426 401,523.34729307823216 408,511.22293742525 422,511.22293742525" />
    <line x1="422" y1="535.47164873121426" x2="429" y2="523.34729307823216" />
    <polyline points="450,535.47164873121426 443,523.34729307823216 450,511.22293742525" />
    <polyline points="464,511.22293742525 471,523.34729307823216 485,523.34729307823216 492,535.47164873121426" />
    <line x1="485" y1="523.34729307823216" x2="492" y2="511.22293742525" />
    <line x1="506" y1="535.47164873121426" x2="513" y2="523.34729307823216" />
    <polyline points="534,535.47164873121426 527,523.34729307823216 534,511.22293742525" />
    <line x1="548" y1="535.47164873121426" x2="555" y2="523.34729307823216" />
    <polyline points="569,523.34729307823216 576,511.22293742525 590,511.22293742525 597,523.34729307823216 611,523.34729307823216 618,535.47164873121426" />
    <polyline points="611,523.34729307823216 618,511.22293742525 632,511.22293742525" />
    <polyline points="639,523.34729307823216 653,523.34729307823216 660,535.47164873121426 653,547.59600438419636" />
    <polyline points="9,571.84471569016057 2,559.72036003717847 9,547.59600438419636" />
    <polyline points="30,559.72036003717847 23,547.59600438419636 30,535.47164873121426 44,535.47164873121426" />
    <polyline points="44,559.72036003717847 51,547.59600438419636 65,547.59600438419636 72,535.47164873121426" />
    <polyline points="86,535.47164873121426 93,547.59600438419636 86,559.72036003717847" />
    <polyline points="93,547.59600438419636 107,547.59600438419636 114,535.47164873121426 128,535.47164873121426" />
    <line x1="128" y1="559.72036003717847" x2="135" y2="547.59600438419636" />
    <polyline points="156,559.72036003717847 149,547.59600438419636 156,535.47164873121426" />
    <polyline points="170,535.47164873121426 177,547.59600438419636 170,559.72036003717847" />
    <line x1="177" y1="547.59600438419636" x2="191" y2="547.59600438419636" />
    <polyline points="198,535.47164873121426 212,535.47164873121426 219,547.59600438419636 212,559.72036003717847" />
    <polyline points="219,547.59600438419636 233,547.59600438419636 240,559.72036003717847" />
    <polyline points="254,535.47164873121426 261,547.59600438419636 254,559.72036003717847" />
    <polyline points="282,559.72036003717847 275,547.59600438419636 282,535.47164873121426" />
    <polyline points="296,559.72036003717847 303,547.59600438419636 317,547.59600438419636 324,559.72036003717847" />
    <polyline points="317,547.59600438419636 324,535.47164873121426 338,535.47164873121426 345,547.59600438419636 359,547.59600438419636 366,559.72036003717847" />
    <polyline points="359,547.59600438419636 366,535.47164873121426 380,535.47164873121426" />
    <polyline points="380,559.72036003717847 387,547.59600438419636 401,547.59600438419636 408,535.47164873121426 422,535.47164873121426 429,547.59600438419636 443,547.59600438419636" />
    <polyline points="450,535.47164873121426 464,535.47164873121426 471,547.59600438419636 464,559.72036003717847" />
    <polyline points="492,559.72036003717847 485,547.59600438419636 492,535.47164873121426 506,535.47164873121426" />
    <polyline points="506,559.72036003717847 513,547.59600438419636 527,547.59600438419636 534,559.72036003717847" />
    <polyline points="527,547.59600438419636 534,535.47164873121426 548,535.47164873121426 555,547.59600438419636 548,559.72036003717847" />
    <polyline points="576,559.72036003717847 569,547.59600438419636 576,535.47164873121426 590,535.47164873121426" />
    <polyline points="597,547.59600438419636 611,547.59600438419636 618,559.72036003717847" />
    <polyline points="611,547.59600438419636 618,535.47164873121426 632,535.47164873121426 639,547.59600438419636" />
    <polyline points="653,547.59600438419636 660,559.72036003717847 653,571.84471569016057" />
    <polyline points="9,571.84471569016068 23,571.84471569016068 30,583.96907134314279" />
    <polyline points="44,559.72036003717858 51,571.84471569016068 65,571.84471569016068 72,583.96907134314279" />
    <polyline points="65,571.84471569016068 72,559.72036003717858 86,559.72036003717858" />
    <polyline points="93,571.84471569016068 107,571.84471569016068 114,559.72036003717858 128,559.72036003717858 135,571.84471569016068 128,583.96907134314279" />
    <polyline points="135,571.84471569016068 149,571.84471569016068 156,583.96907134314279" />
    <polyline points="156,559.72036003717858 170,559.72036003717858 177,571.84471569016068 170,583.96907134314279" />
    <polyline points="191,571.84471569016068 198,559.72036003717858 212,559.72036003717858 219,571.84471569016068" />
    <line x1="233" y1="571.84471569016068" x2="240" y2="583.96907134314279" />
    <polyline points="240,559.72036003717858 254,559.72036003717858 261,571.84471569016068 275,571.84471569016068 282,583.96907134314279" />
    <polyline points="282,559.72036003717858 296,559.72036003717858 303,571.84471569016068 296,583.96907134314279" />
    <polyline points="324,583.96907134314279 317,571.84471569016068 324,559.72036003717858" />
    <polyline points="338,559.72036003717858 345,571.84471569016068 338,583.96907134314279" />
    <line x1="359" y1="571.84471569016068" x2="366" y2="559.72036003717858" />
    <polyline points="380,559.72036003717858 387,571.84471569016068 380,583.96907134314279" />
    <polyline points="387,571.84471569016068 401,571.84471569016068 408,559.72036003717858 422,559.72036003717858 429,571.84471569016068 422,583.96907134314279" />
    <polyline points="443,571.84471569016068 450,559.72036003717858 464,559.72036003717858 471,571.84471569016068 464,583.96907134314279" />
    <polyline points="492,583.96907134314279 485,571.84471569016068 492,559.72036003717858" />
    <line x1="506" y1="583.96907134314279" x2="513" y2="571.84471569016068" />
    <line x1="527" y1="571.84471569016068" x2="534" y2="559.72036003717858" />
    <polyline points="548,583.96907134314279 555,571.84471569016068 569,571.84471569016068 576,559.72036003717858 590,559.72036003717858 597,571.84471569016068 611,571.84471569016068 618,559.72036003717858" />
    <polyline points="632,559.72036003717858 639,571.84471569016068 632,583.96907134314279" />
    <line x1="639" y1="571.84471569016068" x2="653" y2="571.84471569016068" />
    <polyline points="30,583.9690713431429 44,583.9690713431429 51,596.093426996125 65,596.093426996125 72,608.21778264910711" />
    <polyline points="72,583.9690713431429 86,583.9690713431429 93,596.093426996125 107,596.093426996125 114,608.21778264910711" />
    <line x1="107" y1="596.093426996125" x2="114" y2="583.9690713431429" />
    <line x1="128" y1="583.9690713431429" x2="135" y2="596.093426996125" />
    <polyline points="156,608.21778264910711 149,596.093426996125 156,583.9690713431429" />
    <polyline points="170,583.9690713431429 177,596.093426996125 191,596.093426996125 198,583.9690713431429 212,583.9690713431429 219,596.093426996125 233,596.093426996125 240,608.21778264910711" />
    <polyline points="233,596.093426996125 240,583.9690713431429 254,583.9690713431429 261,596.093426996125 275,596.093426996125 282,608.21778264910711" />
    <line x1="275" y1="596.093426996125" x2="282" y2="583.9690713431429" />
    <line x1="296" y1="608.21778264910711" x2="303" y2="596.093426996125" />
    <polyline points="324,608.21778264910711 317,596.093426996125 324,583.9690713431429" />
    <polyline points="338,583.9690713431429 345,596.093426996125 338,608.21778264910711" />
    <polyline points="366,608.21778264910711 359,596.093426996125 366,583.9690713431429 380,583.9690713431429" />
    <polyline points="380,608.21778264910711 387,596.093426996125 401,596.093426996125 408,583.9690713431429" />
    <polyline points="422,583.9690713431429 429,596.093426996125 443,596.093426996125 450,608.21778264910711" />
    <polyline points="443,596.093426996125 450,583.9690713431429 464,583.9690713431429" />
    <polyline points="464,608.21778264910711 471,596.093426996125 485,596.093426996125 492,583.9690713431429 506,583.9690713431429 513,596.093426996125 506,608.21778264910711" />
    <polyline points="513,596.093426996125 527,596.093426996125 534,583.9690713431429 548,583.9690713431429 555,596.093426996125" />
    <polyline points="569,596.093426996125 576,583.9690713431429 590,583.9690713431429 597,596.093426996125 590,608.21778264910711" />
    <polyline points="597,596.093426996125 611,596.093426996125 618,583.9690713431429 632,583.9690713431429" />
    <polyline points="72,608.21778264910711 86,608.21778264910711 93,620.34213830208921 107,620.34213830208921 114,632.46649395507131" />
    <polyline points="114,608.21778264910711 128,608.21778264910711 135,620.34213830208921 149,620.34213830208921 156,608.21778264910711 170,608.21778264910711 177,620.34213830208921 191,620.34213830208921 198,632.46649395507131" />
    <polyline points="191,620.34213830208921 198,608.21778264910711 212,608.21778264910711" />
    <polyline points="212,632.46649395507131 219,620.34213830208921 233,620.34213830208921 240,632.46649395507131" />
    <line x1="233" y1="620.34213830208921" x2="240" y2="608.21778264910711" />
    <polyline points="254,608.21778264910711 261,620.34213830208921 254,632.46649395507131" />
    <polyline points="282,632.46649395507131 275,620.34213830208921 282,608.21778264910711 296,608.21778264910711 303,620.34213830208921 317,620.34213830208921 324,608.21778264910711" />
    <polyline points="338,608.21778264910711 345,620.34213830208921 338,632.46649395507131" />
    <polyline points="366,632.46649395507131 359,620.34213830208921 366,608.21778264910711" />
    <polyline points="380,608.21778264910711 387,620.34213830208921 401,620.34213830208921 408,632.46649395507131" />
    <polyline points="408,608.21778264910711 422,608.21778264910711 429,620.34213830208921 422,632.46649395507131" />
    <line x1="429" y1="620.34213830208921" x2="443" y2="620.34213830208921" />
    <polyline points="464,632.46649395507131 471,620.34213830208921 485,620.34213830208921 492,632.46649395507131" />
    <line x1="492" y1="608.21778264910711" x2="506" y2="608.21778264910711" />
    <polyline points="513,620.34213830208921 527,620.34213830208921 534,608.21778264910711 548,608.21778264910711 555,620.34213830208921 548,632.46649395507131" />
    <polyline points="555,620.34213830208921 569,620.34213830208921 576,608.21778264910711 590,608.21778264910711" />
    <polyline points="114,632.46649395507143 128,632.46649395507143 135,644.59084960805353 149,644.59084960805353 156,656.71520526103563" />
    <polyline points="149,644.59084960805353 156,632.46649395507143 170,632.46649395507143 177,644.59084960805353 191,644.59084960805353 198,656.71520526103563" />
    <line x1="212" y1="656.71520526103563" x2="219" y2="644.59084960805353" />
    <line x1="233" y1="644.59084960805353" x2="240" y2="656.71520526103563" />
    <polyline points="240,632.46649395507143 254,632.46649395507143 261,644.59084960805353 254,656.71520526103563" />
    <polyline points="282,656.71520526103563 275,644.59084960805353 282,632.46649395507143" />
    <polyline points="296,632.46649395507143 303,644.59084960805353 317,644.59084960805353 324,656.71520526103563" />
    <polyline points="324,632.46649395507143 338,632.46649395507143 345,644.59084960805353 338,656.71520526103563" />
    <polyline points="345,644.59084960805353 359,644.59084960805353 366,656.71520526103563" />
    <line x1="366" y1="632.46649395507143" x2="380" y2="632.46649395507143" />
    <polyline points="380,656.71520526103563 387,644.59084960805353 401,644.59084960805353 408,656.71520526103563" />
    <polyline points="401,644.59084960805353 408,632.46649395507143 422,632.46649395507143" />
    <polyline points="429,644.59084960805353 443,644.59084960805353 450,656.71520526103563" />
    <polyline points="443,644.59084960805353 450,632.46649395507143 464,632.46649395507143" />
    <polyline points="464,656.71520526103563 471,644.59084960805353 485,644.59084960805353" />
    <polyline points="492,632.46649395507143 506,632.46649395507143 513,644.59084960805353 506,656.71520526103563" />
    <polyline points="513,644.59084960805353 527,644.59084960805353 534,632.46649395507143 548,632.46649395507143" />
    <polyline points="156,656.71520526103575 170,656.71520526103575 177,668.83956091401785 191,668.83956091401785 198,680.963916567" />
    <polyline points="198,656.71520526103575 212,656.71520526103575 219,668.83956091401785" />
    <polyline points="240,680.963916567 233,668.83956091401785 240,656.71520526103575 254,656.71520526103575" />
    <polyline points="261,668.83956091401785 275,668.83956091401785 282,680.963916567" />
    <polyline points="275,668.83956091401785 282,656.71520526103575 296,656.71520526103575" />
    <polyline points="296,680.963916567 303,668.83956091401785 317,668.83956091401785 324,680.963916567" />
    <line x1="317" y1="668.83956091401785" x2="324" y2="656.71520526103575" />
    <line x1="338" y1="680.963916567" x2="345" y2="668.83956091401785" />
    <polyline points="366,680.963916567 359,668.83956091401785 366,656.71520526103575 380,656.71520526103575" />
    <polyline points="387,668.83956091401785 401,668.83956091401785 408,680.963916567" />
    <polyline points="401,668.83956091401785 408,656.71520526103575 422,656.71520526103575" />
    <polyline points="429,668.83956091401785 443,668.83956091401785 450,680.963916567" />
    <polyline points="464,656.71520526103575 471,668.83956091401785 464,680.963916567" />
    <polyline points="471,668.83956091401785 485,668.83956091401785 492,656.71520526103575 506,656.71520526103575" />
    <polyline points="198,680.963916567 212,680.963916567 219,693.08827221998206 233,693.08827221998206 240,705.21262787296416" />
    <line x1="233" y1="693.08827221998206" x2="240" y2="680.963916567" />
    <polyline points="254,680.963916567 261,693.08827221998206 275,693.08827221998206 282,705.21262787296416" />
    <line x1="275" y1="693.08827221998206" x2="282" y2="680.963916567" />
    <line x1="296" y1="680.963916567" x2="303" y2="693.08827221998206" />
    <line x1="317" y1="693.08827221998206" x2="324" y2="705.21262787296416" />
    <polyline points="324,680.963916567 338,680.963916567 345,693.08827221998206 359,693.08827221998206 366,705.21262787296416" />
    <polyline points="366,680.963916567 380,680.963916567 387,693.08827221998206 380,705.21262787296416" />
    <polyline points="401,693.08827221998206 408,680.963916567 422,680.963916567" />
    <polyline points="422,705.21262787296416 429,693.08827221998206 443,693.08827221998206 450,680.963916567 464,680.963916567" />
    <polyline points="240,705.21262787296428 254,705.21262787296428 261,717.33698352594638 275,717.33698352594638 282,729.46133917892848" />
    <polyline points="282,705.21262787296428 296,705.21262787296428 303,717.33698352594638 317,717.33698352594638 324,705.21262787296428 338,705.21262787296428" />
    <polyline points="338,729.46133917892848 345,717.33698352594638 359,717.33698352594638 366,705.21262787296428" />
    <polyline points="380,705.21262787296428 387,717.33698352594638 380,729.46133917892848" />
    <polyline points="387,717.33698352594638 401,717.33698352594638 408,705.21262787296428 422,705.21262787296428" />
    <polyline points="282,729.4613391789286 296,729.4613391789286 303,741.5856948319107 317,741.5856948319107 324,753.7100504848928" />
    <polyline points="317,741.5856948319107 324,729.4613391789286 338,729.4613391789286" />
    <polyline points="338,753.7100504848928 345,741.5856948319107 359,741.5856948319107 366,729.4613391789286 380,729.4613391789286" />
  </g>
  <polyline fill="none" stroke="#ff0000" stroke-width="2" stroke-linecap="square" stroke-linejoin="round" points="331,2.0000000000000391 331,14.12435565298218 373,38.37306695894646 352,50.4974226119286 310,26.248711305964321 289,38.37306695894646 289,62.621778264910738 268,50.4974226119286 226,74.746133917892877 226,98.994845223857169 184,123.24355652982145 163,111.1192008768393 163,135.36791218280359 142,123.24355652982145 142,171.74097914175002 184,195.98969044771428 184,171.74097914175002 247,135.36791218280359 247,183.86533479473215 226,171.74097914175002 226,220.23840175367857 247,208.11404610069644 268,220.23840175367857 289,208.11404610069644 331,232.36275740666073 331,183.86533479473215 310,195.98969044771428 289,183.86533479473215 352,147.49226783578573 373,159.61662348876789 373,135.36791218280359 436,171.74097914175002 436,195.98969044771428 478,171.74097914175002 415,135.36791218280359 415,111.1192008768393 373,86.870489570875023 373,62.621778264910738 394,74.746133917892877 415,62.621778264910738 415,86.870489570875023 436,74.746133917892877 436,98.994845223857169 457,111.1192008768393 457,86.870489570875023 499,111.1192008768393 478,123.24355652982145 520,147.49226783578573 520,123.24355652982145 562,147.49226783578573 457,208.11404610069644 457,232.36275740666073 499,208.11404610069644 520,220.23840175367857 541,208.11404610069644 562,220.23840175367857 604,195.98969044771428 625,208.11404610069644 625,232.36275740666073 604,220.23840175367857 604,244.48711305964287 625,256.61146871262497 625,280.86018001858923 646,292.98453567157139 646,317.23324697753571 625,329.35760263051782 646,341.4819582835 646,365.73066958946424 604,341.4819582835 583,353.60631393648208 625,377.8550252424464 604,389.97938089542856 625,402.10373654841067 604,414.22809220139283 583,402.10373654841067 562,414.22809220139283 604,438.47680350735709 604,462.72551481332141 646,438.47680350735709 646,462.72551481332141 583,499.09858177226778 583,450.60115916033925 562,438.47680350735709 562,486.97422611928567 541,474.84987046630351 541,523.34729307823216 562,511.22293742524994 562,559.72036003717847 520,583.96907134314279 520,559.72036003717847 499,571.84471569016068 499,547.59600438419636 520,535.47164873121426 520,511.22293742524994 499,523.34729307823216 499,499.09858177226778 478,511.22293742524994 457,499.09858177226778 457,523.34729307823216 478,535.47164873121426 478,583.96907134314279 457,596.093426996125 457,620.34213830208921 415,596.093426996125 415,571.84471569016068 373,596.093426996125 373,620.34213830208921 394,632.46649395507131 373,644.59084960805353 352,632.46649395507131 352,559.72036003717847 331,547.59600438419636 331,620.34213830208921 310,632.46649395507131 331,644.59084960805353 331,668.83956091401785 352,656.71520526103563 352,680.963916567 373,693.08827221998206 373,717.33698352594638 331,741.5856948319107 331,753.7100504848928" />
  <type>Hexagonal</type>
</svg>