<?xml version="1.0" encoding="utf-8" standalone="no"?>
<!DOCTYPE svg PUBLIC "-//W3C//DTD SVG 1.1//EN" "http://www.w3.org/Graphics/SVG/1.1/DTD/svg11.dtd"[]>
<svg width="1104" height="956.6279441628825" version="1.1" xmlns="http://www.w3.org/2000/svg">
  <title>Triangular delta maze with 50 cells side</title>
  <g fill="none" stroke="#000000" stroke-width="2" stroke-linecap="round" stroke-linejoin="round">
    <line x1="519" y1="59.157676649772966" x2="541" y2="59.157676649772966" />
    <line x1="541" y1="97.262794416288273" x2="563" y2="97.262794416288273" />
    <line x1="508" y1="116.31535329954592" x2="552" y2="116.31535329954592" />
    <line x1="574" y1="116.31535329954592" x2="596" y2="116.31535329954592" />
    <line x1="541" y1="135.36791218280357" x2="563" y2="135.36791218280357" />
    <line x1="585" y1="135.36791218280357" x2="629" y2="135.36791218280357" />
    <line x1="574" y1="154.42047106606123" x2="596" y2="154.42047106606123" />
    <line x1="563" y1="173.47302994931886" x2="585" y2="173.47302994931886" />
    <line x1="464" y1="192.52558883257652" x2="508" y2="192.52558883257652" />
    <line x1="552" y1="192.52558883257652" x2="596" y2="192.52558883257652" />
    <line x1="453" y1="211.57814771583418" x2="475" y2="211.57814771583418" />
    <line x1="519" y1="211.57814771583418" x2="541" y2="211.57814771583418" />
    <line x1="585" y1="211.57814771583418" x2="607" y2="211.57814771583418" />
    <line x1="651" y1="211.57814771583418" x2="673" y2="211.57814771583418" />
    <line x1="508" y1="230.63070659909181" x2="530" y2="230.63070659909181" />
    <line x1="552" y1="230.63070659909181" x2="574" y2="230.63070659909181" />
    <line x1="596" y1="230.63070659909181" x2="640" y2="230.63070659909181" />
    <line x1="475" y1="249.68326548234947" x2="519" y2="249.68326548234947" />
    <line x1="541" y1="249.68326548234947" x2="673" y2="249.68326548234947" />
    <line x1="442" y1="268.73582436560713" x2="464" y2="268.73582436560713" />
    <line x1="552" y1="268.73582436560713" x2="596" y2="268.73582436560713" />
    <line x1="684" y1="268.73582436560713" x2="706" y2="268.73582436560713" />
    <line x1="387" y1="287.78838324886476" x2="409" y2="287.78838324886476" />
    <line x1="497" y1="287.78838324886476" x2="519" y2="287.78838324886476" />
    <line x1="629" y1="287.78838324886476" x2="651" y2="287.78838324886476" />
    <line x1="420" y1="306.84094213212239" x2="442" y2="306.84094213212239" />
    <line x1="486" y1="306.84094213212239" x2="508" y2="306.84094213212239" />
    <line x1="530" y1="306.84094213212239" x2="596" y2="306.84094213212239" />
    <line x1="409" y1="325.89350101538008" x2="453" y2="325.89350101538008" />
    <line x1="541" y1="325.89350101538008" x2="563" y2="325.89350101538008" />
    <line x1="585" y1="325.89350101538008" x2="607" y2="325.89350101538008" />
    <line x1="673" y1="325.89350101538008" x2="695" y2="325.89350101538008" />
    <line x1="398" y1="344.94605989863771" x2="420" y2="344.94605989863771" />
    <line x1="530" y1="344.94605989863771" x2="552" y2="344.94605989863771" />
    <line x1="662" y1="344.94605989863771" x2="706" y2="344.94605989863771" />
    <line x1="365" y1="363.99861878189535" x2="409" y2="363.99861878189535" />
    <line x1="541" y1="363.99861878189535" x2="563" y2="363.99861878189535" />
    <line x1="651" y1="363.99861878189535" x2="673" y2="363.99861878189535" />
    <line x1="717" y1="363.99861878189535" x2="739" y2="363.99861878189535" />
    <line x1="332" y1="383.05117766515303" x2="420" y2="383.05117766515303" />
    <line x1="464" y1="383.05117766515303" x2="486" y2="383.05117766515303" />
    <line x1="640" y1="383.05117766515303" x2="662" y2="383.05117766515303" />
    <line x1="706" y1="383.05117766515303" x2="728" y2="383.05117766515303" />
    <line x1="750" y1="383.05117766515303" x2="772" y2="383.05117766515303" />
    <line x1="343" y1="402.10373654841067" x2="387" y2="402.10373654841067" />
    <line x1="519" y1="402.10373654841067" x2="541" y2="402.10373654841067" />
    <line x1="563" y1="402.10373654841067" x2="607" y2="402.10373654841067" />
    <line x1="354" y1="421.1562954316683" x2="420" y2="421.1562954316683" />
    <line x1="486" y1="421.1562954316683" x2="508" y2="421.1562954316683" />
    <line x1="530" y1="421.1562954316683" x2="552" y2="421.1562954316683" />
    <line x1="574" y1="421.1562954316683" x2="596" y2="421.1562954316683" />
    <line x1="618" y1="421.1562954316683" x2="640" y2="421.1562954316683" />
    <line x1="684" y1="421.1562954316683" x2="728" y2="421.1562954316683" />
    <line x1="365" y1="440.208854314926" x2="387" y2="440.208854314926" />
    <line x1="409" y1="440.208854314926" x2="431" y2="440.208854314926" />
    <line x1="475" y1="440.208854314926" x2="519" y2="440.208854314926" />
    <line x1="541" y1="440.208854314926" x2="563" y2="440.208854314926" />
    <line x1="607" y1="440.208854314926" x2="651" y2="440.208854314926" />
    <line x1="695" y1="440.208854314926" x2="717" y2="440.208854314926" />
    <line x1="761" y1="440.208854314926" x2="805" y2="440.208854314926" />
    <line x1="288" y1="459.26141319818362" x2="310" y2="459.26141319818362" />
    <line x1="354" y1="459.26141319818362" x2="376" y2="459.26141319818362" />
    <line x1="508" y1="459.26141319818362" x2="530" y2="459.26141319818362" />
    <line x1="552" y1="459.26141319818362" x2="574" y2="459.26141319818362" />
    <line x1="618" y1="459.26141319818362" x2="640" y2="459.26141319818362" />
    <line x1="772" y1="459.26141319818362" x2="816" y2="459.26141319818362" />
    <line x1="343" y1="478.31397208144125" x2="365" y2="478.31397208144125" />
    <line x1="409" y1="478.31397208144125" x2="431" y2="478.31397208144125" />
    <line x1="651" y1="478.31397208144125" x2="673" y2="478.31397208144125" />
    <line x1="783" y1="478.31397208144125" x2="805" y2="478.31397208144125" />
    <line x1="332" y1="497.36653096469888" x2="354" y2="497.36653096469888" />
    <line x1="376" y1="497.36653096469888" x2="420" y2="497.36653096469888" />
    <line x1="442" y1="497.36653096469888" x2="464" y2="497.36653096469888" />
    <line x1="508" y1="497.36653096469888" x2="530" y2="497.36653096469888" />
    <line x1="618" y1="497.36653096469888" x2="640" y2="497.36653096469888" />
    <line x1="706" y1="497.36653096469888" x2="728" y2="497.36653096469888" />
    <line x1="321" y1="516.41908984795657" x2="365" y2="516.41908984795657" />
    <line x1="431" y1="516.41908984795657" x2="453" y2="516.41908984795657" />
    <line x1="497" y1="516.41908984795657" x2="541" y2="516.41908984795657" />
    <line x1="607" y1="516.41908984795657" x2="629" y2="516.41908984795657" />
    <line x1="717" y1="516.41908984795657" x2="739" y2="516.41908984795657" />
    <line x1="332" y1="535.47164873121426" x2="376" y2="535.47164873121426" />
    <line x1="420" y1="535.47164873121426" x2="442" y2="535.47164873121426" />
    <line x1="552" y1="535.47164873121426" x2="574" y2="535.47164873121426" />
    <line x1="618" y1="535.47164873121426" x2="684" y2="535.47164873121426" />
    <line x1="794" y1="535.47164873121426" x2="816" y2="535.47164873121426" />
    <line x1="838" y1="535.47164873121426" x2="860" y2="535.47164873121426" />
    <line x1="255" y1="554.52420761447183" x2="277" y2="554.52420761447183" />
    <line x1="299" y1="554.52420761447183" x2="321" y2="554.52420761447183" />
    <line x1="409" y1="554.52420761447183" x2="431" y2="554.52420761447183" />
    <line x1="475" y1="554.52420761447183" x2="497" y2="554.52420761447183" />
    <line x1="519" y1="554.52420761447183" x2="563" y2="554.52420761447183" />
    <line x1="629" y1="554.52420761447183" x2="673" y2="554.52420761447183" />
    <line x1="695" y1="554.52420761447183" x2="717" y2="554.52420761447183" />
    <line x1="739" y1="554.52420761447183" x2="761" y2="554.52420761447183" />
    <line x1="805" y1="554.52420761447183" x2="849" y2="554.52420761447183" />
    <line x1="244" y1="573.57676649772952" x2="288" y2="573.57676649772952" />
    <line x1="376" y1="573.57676649772952" x2="442" y2="573.57676649772952" />
    <line x1="486" y1="573.57676649772952" x2="508" y2="573.57676649772952" />
    <line x1="552" y1="573.57676649772952" x2="574" y2="573.57676649772952" />
    <line x1="662" y1="573.57676649772952" x2="728" y2="573.57676649772952" />
    <line x1="794" y1="573.57676649772952" x2="816" y2="573.57676649772952" />
    <line x1="255" y1="592.62932538098721" x2="277" y2="592.62932538098721" />
    <line x1="299" y1="592.62932538098721" x2="321" y2="592.62932538098721" />
    <line x1="343" y1="592.62932538098721" x2="365" y2="592.62932538098721" />
    <line x1="409" y1="592.62932538098721" x2="453" y2="592.62932538098721" />
    <line x1="497" y1="592.62932538098721" x2="519" y2="592.62932538098721" />
    <line x1="651" y1="592.62932538098721" x2="695" y2="592.62932538098721" />
    <line x1="717" y1="592.62932538098721" x2="739" y2="592.62932538098721" />
    <line x1="805" y1="592.62932538098721" x2="827" y2="592.62932538098721" />
    <line x1="849" y1="592.62932538098721" x2="871" y2="592.62932538098721" />
    <line x1="222" y1="611.68188426424479" x2="244" y2="611.68188426424479" />
    <line x1="266" y1="611.68188426424479" x2="288" y2="611.68188426424479" />
    <line x1="486" y1="611.68188426424479" x2="508" y2="611.68188426424479" />
    <line x1="640" y1="611.68188426424479" x2="662" y2="611.68188426424479" />
    <line x1="684" y1="611.68188426424479" x2="706" y2="611.68188426424479" />
    <line x1="728" y1="611.68188426424479" x2="750" y2="611.68188426424479" />
    <line x1="255" y1="630.73444314750247" x2="277" y2="630.73444314750247" />
    <line x1="299" y1="630.73444314750247" x2="321" y2="630.73444314750247" />
    <line x1="365" y1="630.73444314750247" x2="387" y2="630.73444314750247" />
    <line x1="409" y1="630.73444314750247" x2="431" y2="630.73444314750247" />
    <line x1="475" y1="630.73444314750247" x2="519" y2="630.73444314750247" />
    <line x1="607" y1="630.73444314750247" x2="695" y2="630.73444314750247" />
    <line x1="761" y1="630.73444314750247" x2="783" y2="630.73444314750247" />
    <line x1="805" y1="630.73444314750247" x2="827" y2="630.73444314750247" />
    <line x1="178" y1="649.78700203076" x2="200" y2="649.78700203076" />
    <line x1="244" y1="649.78700203076" x2="266" y2="649.78700203076" />
    <line x1="288" y1="649.78700203076" x2="332" y2="649.78700203076" />
    <line x1="354" y1="649.78700203076" x2="398" y2="649.78700203076" />
    <line x1="486" y1="649.78700203076" x2="508" y2="649.78700203076" />
    <line x1="596" y1="649.78700203076" x2="618" y2="649.78700203076" />
    <line x1="662" y1="649.78700203076" x2="706" y2="649.78700203076" />
    <line x1="816" y1="649.78700203076" x2="838" y2="649.78700203076" />
    <line x1="211" y1="668.83956091401774" x2="255" y2="668.83956091401774" />
    <line x1="277" y1="668.83956091401774" x2="343" y2="668.83956091401774" />
    <line x1="497" y1="668.83956091401774" x2="585" y2="668.83956091401774" />
    <line x1="607" y1="668.83956091401774" x2="629" y2="668.83956091401774" />
    <line x1="673" y1="668.83956091401774" x2="695" y2="668.83956091401774" />
    <line x1="805" y1="668.83956091401774" x2="871" y2="668.83956091401774" />
    <line x1="200" y1="687.89211979727543" x2="222" y2="687.89211979727543" />
    <line x1="266" y1="687.89211979727543" x2="354" y2="687.89211979727543" />
    <line x1="530" y1="687.89211979727543" x2="552" y2="687.89211979727543" />
    <line x1="596" y1="687.89211979727543" x2="618" y2="687.89211979727543" />
    <line x1="684" y1="687.89211979727543" x2="706" y2="687.89211979727543" />
    <line x1="728" y1="687.89211979727543" x2="750" y2="687.89211979727543" />
    <line x1="794" y1="687.89211979727543" x2="860" y2="687.89211979727543" />
    <line x1="145" y1="706.944678680533" x2="167" y2="706.944678680533" />
    <line x1="277" y1="706.944678680533" x2="299" y2="706.944678680533" />
    <line x1="343" y1="706.944678680533" x2="365" y2="706.944678680533" />
    <line x1="519" y1="706.944678680533" x2="563" y2="706.944678680533" />
    <line x1="607" y1="706.944678680533" x2="629" y2="706.944678680533" />
    <line x1="695" y1="706.944678680533" x2="717" y2="706.944678680533" />
    <line x1="739" y1="706.944678680533" x2="761" y2="706.944678680533" />
    <line x1="827" y1="706.944678680533" x2="871" y2="706.944678680533" />
    <line x1="156" y1="725.99723756379069" x2="178" y2="725.99723756379069" />
    <line x1="244" y1="725.99723756379069" x2="266" y2="725.99723756379069" />
    <line x1="332" y1="725.99723756379069" x2="354" y2="725.99723756379069" />
    <line x1="376" y1="725.99723756379069" x2="398" y2="725.99723756379069" />
    <line x1="442" y1="725.99723756379069" x2="464" y2="725.99723756379069" />
    <line x1="574" y1="725.99723756379069" x2="596" y2="725.99723756379069" />
    <line x1="684" y1="725.99723756379069" x2="706" y2="725.99723756379069" />
    <line x1="750" y1="725.99723756379069" x2="772" y2="725.99723756379069" />
    <line x1="816" y1="725.99723756379069" x2="882" y2="725.99723756379069" />
    <line x1="904" y1="725.99723756379069" x2="926" y2="725.99723756379069" />
    <line x1="167" y1="745.04979644704838" x2="189" y2="745.04979644704838" />
    <line x1="211" y1="745.04979644704838" x2="233" y2="745.04979644704838" />
    <line x1="255" y1="745.04979644704838" x2="277" y2="745.04979644704838" />
    <line x1="299" y1="745.04979644704838" x2="321" y2="745.04979644704838" />
    <line x1="409" y1="745.04979644704838" x2="431" y2="745.04979644704838" />
    <line x1="453" y1="745.04979644704838" x2="475" y2="745.04979644704838" />
    <line x1="651" y1="745.04979644704838" x2="673" y2="745.04979644704838" />
    <line x1="717" y1="745.04979644704838" x2="783" y2="745.04979644704838" />
    <line x1="871" y1="745.04979644704838" x2="893" y2="745.04979644704838" />
    <line x1="915" y1="745.04979644704838" x2="937" y2="745.04979644704838" />
    <line x1="156" y1="764.102355330306" x2="178" y2="764.102355330306" />
    <line x1="200" y1="764.102355330306" x2="244" y2="764.102355330306" />
    <line x1="310" y1="764.102355330306" x2="376" y2="764.102355330306" />
    <line x1="574" y1="764.102355330306" x2="596" y2="764.102355330306" />
    <line x1="706" y1="764.102355330306" x2="728" y2="764.102355330306" />
    <line x1="794" y1="764.102355330306" x2="816" y2="764.102355330306" />
    <line x1="882" y1="764.102355330306" x2="926" y2="764.102355330306" />
    <line x1="101" y1="783.15491421356364" x2="145" y2="783.15491421356364" />
    <line x1="167" y1="783.15491421356364" x2="189" y2="783.15491421356364" />
    <line x1="233" y1="783.15491421356364" x2="255" y2="783.15491421356364" />
    <line x1="277" y1="783.15491421356364" x2="299" y2="783.15491421356364" />
    <line x1="343" y1="783.15491421356364" x2="387" y2="783.15491421356364" />
    <line x1="453" y1="783.15491421356364" x2="475" y2="783.15491421356364" />
    <line x1="783" y1="783.15491421356364" x2="805" y2="783.15491421356364" />
    <line x1="827" y1="783.15491421356364" x2="849" y2="783.15491421356364" />
    <line x1="893" y1="783.15491421356364" x2="937" y2="783.15491421356364" />
    <line x1="959" y1="783.15491421356364" x2="981" y2="783.15491421356364" />
    <line x1="112" y1="802.20747309682133" x2="178" y2="802.20747309682133" />
    <line x1="288" y1="802.20747309682133" x2="354" y2="802.20747309682133" />
    <line x1="398" y1="802.20747309682133" x2="420" y2="802.20747309682133" />
    <line x1="442" y1="802.20747309682133" x2="464" y2="802.20747309682133" />
    <line x1="640" y1="802.20747309682133" x2="662" y2="802.20747309682133" />
    <line x1="684" y1="802.20747309682133" x2="706" y2="802.20747309682133" />
    <line x1="728" y1="802.20747309682133" x2="772" y2="802.20747309682133" />
    <line x1="794" y1="802.20747309682133" x2="816" y2="802.20747309682133" />
    <line x1="882" y1="802.20747309682133" x2="904" y2="802.20747309682133" />
    <line x1="123" y1="821.26003198007891" x2="145" y2="821.26003198007891" />
    <line x1="299" y1="821.26003198007891" x2="321" y2="821.26003198007891" />
    <line x1="431" y1="821.26003198007891" x2="475" y2="821.26003198007891" />
    <line x1="585" y1="821.26003198007891" x2="607" y2="821.26003198007891" />
    <line x1="629" y1="821.26003198007891" x2="651" y2="821.26003198007891" />
    <line x1="673" y1="821.26003198007891" x2="695" y2="821.26003198007891" />
    <line x1="739" y1="821.26003198007891" x2="783" y2="821.26003198007891" />
    <line x1="827" y1="821.26003198007891" x2="849" y2="821.26003198007891" />
    <line x1="90" y1="840.3125908633366" x2="112" y2="840.3125908633366" />
    <line x1="178" y1="840.3125908633366" x2="200" y2="840.3125908633366" />
    <line x1="266" y1="840.3125908633366" x2="288" y2="840.3125908633366" />
    <line x1="310" y1="840.3125908633366" x2="332" y2="840.3125908633366" />
    <line x1="376" y1="840.3125908633366" x2="398" y2="840.3125908633366" />
    <line x1="464" y1="840.3125908633366" x2="486" y2="840.3125908633366" />
    <line x1="530" y1="840.3125908633366" x2="552" y2="840.3125908633366" />
    <line x1="574" y1="840.3125908633366" x2="618" y2="840.3125908633366" />
    <line x1="684" y1="840.3125908633366" x2="706" y2="840.3125908633366" />
    <line x1="728" y1="840.3125908633366" x2="750" y2="840.3125908633366" />
    <line x1="772" y1="840.3125908633366" x2="794" y2="840.3125908633366" />
    <line x1="816" y1="840.3125908633366" x2="838" y2="840.3125908633366" />
    <line x1="860" y1="840.3125908633366" x2="882" y2="840.3125908633366" />
    <line x1="992" y1="840.3125908633366" x2="1014" y2="840.3125908633366" />
    <line x1="101" y1="859.36514974659428" x2="145" y2="859.36514974659428" />
    <line x1="233" y1="859.36514974659428" x2="255" y2="859.36514974659428" />
    <line x1="277" y1="859.36514974659428" x2="321" y2="859.36514974659428" />
    <line x1="365" y1="859.36514974659428" x2="387" y2="859.36514974659428" />
    <line x1="453" y1="859.36514974659428" x2="475" y2="859.36514974659428" />
    <line x1="497" y1="859.36514974659428" x2="519" y2="859.36514974659428" />
    <line x1="563" y1="859.36514974659428" x2="607" y2="859.36514974659428" />
    <line x1="717" y1="859.36514974659428" x2="739" y2="859.36514974659428" />
    <line x1="761" y1="859.36514974659428" x2="783" y2="859.36514974659428" />
    <line x1="827" y1="859.36514974659428" x2="849" y2="859.36514974659428" />
    <line x1="1003" y1="859.36514974659428" x2="1025" y2="859.36514974659428" />
    <line x1="68" y1="878.41770862985186" x2="90" y2="878.41770862985186" />
    <line x1="112" y1="878.41770862985186" x2="134" y2="878.41770862985186" />
    <line x1="266" y1="878.41770862985186" x2="288" y2="878.41770862985186" />
    <line x1="332" y1="878.41770862985186" x2="354" y2="878.41770862985186" />
    <line x1="398" y1="878.41770862985186" x2="420" y2="878.41770862985186" />
    <line x1="442" y1="878.41770862985186" x2="464" y2="878.41770862985186" />
    <line x1="486" y1="878.41770862985186" x2="508" y2="878.41770862985186" />
    <line x1="552" y1="878.41770862985186" x2="596" y2="878.41770862985186" />
    <line x1="684" y1="878.41770862985186" x2="706" y2="878.41770862985186" />
    <line x1="728" y1="878.41770862985186" x2="772" y2="878.41770862985186" />
    <line x1="882" y1="878.41770862985186" x2="904" y2="878.41770862985186" />
    <line x1="970" y1="878.41770862985186" x2="1036" y2="878.41770862985186" />
    <line x1="79" y1="897.47026751310955" x2="101" y2="897.47026751310955" />
    <line x1="167" y1="897.47026751310955" x2="189" y2="897.47026751310955" />
    <line x1="211" y1="897.47026751310955" x2="233" y2="897.47026751310955" />
    <line x1="321" y1="897.47026751310955" x2="365" y2="897.47026751310955" />
    <line x1="497" y1="897.47026751310955" x2="519" y2="897.47026751310955" />
    <line x1="651" y1="897.47026751310955" x2="673" y2="897.47026751310955" />
    <line x1="739" y1="897.47026751310955" x2="783" y2="897.47026751310955" />
    <line x1="893" y1="897.47026751310955" x2="981" y2="897.47026751310955" />
    <line x1="1025" y1="897.47026751310955" x2="1047" y2="897.47026751310955" />
    <line x1="46" y1="916.52282639636724" x2="68" y2="916.52282639636724" />
    <line x1="134" y1="916.52282639636724" x2="156" y2="916.52282639636724" />
    <line x1="200" y1="916.52282639636724" x2="266" y2="916.52282639636724" />
    <line x1="310" y1="916.52282639636724" x2="332" y2="916.52282639636724" />
    <line x1="354" y1="916.52282639636724" x2="376" y2="916.52282639636724" />
    <line x1="420" y1="916.52282639636724" x2="442" y2="916.52282639636724" />
    <line x1="464" y1="916.52282639636724" x2="508" y2="916.52282639636724" />
    <line x1="530" y1="916.52282639636724" x2="552" y2="916.52282639636724" />
    <line x1="640" y1="916.52282639636724" x2="662" y2="916.52282639636724" />
    <line x1="728" y1="916.52282639636724" x2="816" y2="916.52282639636724" />
    <line x1="860" y1="916.52282639636724" x2="882" y2="916.52282639636724" />
    <line x1="904" y1="916.52282639636724" x2="992" y2="916.52282639636724" />
    <line x1="1014" y1="916.52282639636724" x2="1036" y2="916.52282639636724" />
    <line x1="35" y1="935.57538527962481" x2="101" y2="935.57538527962481" />
    <line x1="123" y1="935.57538527962481" x2="321" y2="935.57538527962481" />
    <line x1="365" y1="935.57538527962481" x2="431" y2="935.57538527962481" />
    <line x1="453" y1="935.57538527962481" x2="475" y2="935.57538527962481" />
    <line x1="541" y1="935.57538527962481" x2="563" y2="935.57538527962481" />
    <line x1="585" y1="935.57538527962481" x2="629" y2="935.57538527962481" />
    <line x1="673" y1="935.57538527962481" x2="717" y2="935.57538527962481" />
    <line x1="739" y1="935.57538527962481" x2="783" y2="935.57538527962481" />
    <line x1="805" y1="935.57538527962481" x2="827" y2="935.57538527962481" />
    <line x1="849" y1="935.57538527962481" x2="871" y2="935.57538527962481" />
    <line x1="893" y1="935.57538527962481" x2="937" y2="935.57538527962481" />
    <line x1="1025" y1="935.57538527962481" x2="1091" y2="935.57538527962481" />
    <polyline points="1102,954.6279441628825 2,954.6279441628825 13,935.57538527962481" />
    <polyline points="13,935.57538527962492 24,916.52282639636724 35,897.47026751310955 46,878.41770862985186" />
    <line x1="57" y1="859.36514974659428" x2="46" y2="878.417708629852" />
    <line x1="46" y1="878.41770862985186" x2="57" y2="897.47026751310955" />
    <polyline points="57,859.36514974659428 68,840.3125908633366 79,821.26003198007891" />
    <line x1="79" y1="897.47026751310955" x2="68" y2="916.52282639636724" />
    <line x1="90" y1="802.20747309682133" x2="79" y2="821.260031980079" />
    <line x1="90" y1="840.3125908633366" x2="79" y2="859.36514974659428" />
    <line x1="90" y1="916.52282639636724" x2="79" y2="935.57538527962492" />
    <line x1="101" y1="783.15491421356364" x2="90" y2="802.20747309682133" />
    <line x1="101" y1="821.26003198007891" x2="90" y2="840.3125908633366" />
    <line x1="101" y1="859.36514974659428" x2="90" y2="878.417708629852" />
    <line x1="90" y1="878.41770862985186" x2="101" y2="897.47026751310955" />
    <line x1="112" y1="764.102355330306" x2="101" y2="783.15491421356364" />
    <line x1="112" y1="802.20747309682133" x2="101" y2="821.260031980079" />
    <line x1="101" y1="897.47026751310955" x2="112" y2="916.52282639636724" />
    <line x1="101" y1="935.57538527962481" x2="112" y2="954.6279441628825" />
    <line x1="123" y1="745.04979644704838" x2="112" y2="764.10235533030607" />
    <line x1="112" y1="916.52282639636724" x2="123" y2="935.57538527962492" />
    <polyline points="134,725.99723756379069 123,745.04979644704838 134,764.10235533030607" />
    <line x1="123" y1="821.26003198007891" x2="134" y2="840.3125908633366" />
    <polyline points="134,878.41770862985186 123,897.47026751310955 134,916.52282639636724" />
    <line x1="145" y1="706.944678680533" x2="134" y2="725.99723756379069" />
    <line x1="156" y1="687.89211979727543" x2="145" y2="706.94467868053312" />
    <polyline points="156,725.99723756379069 145,745.04979644704838 156,764.10235533030607" />
    <polyline points="156,764.102355330306 145,783.15491421356364 156,802.20747309682133" />
    <polyline points="145,821.26003198007891 156,840.3125908633366 145,859.36514974659428 156,878.417708629852" />
    <line x1="156" y1="878.41770862985186" x2="145" y2="897.47026751310955" />
    <line x1="167" y1="668.83956091401774" x2="156" y2="687.89211979727543" />
    <line x1="156" y1="840.3125908633366" x2="167" y2="859.36514974659428" />
    <line x1="167" y1="897.47026751310955" x2="156" y2="916.52282639636724" />
    <polyline points="178,649.78700203076 167,668.83956091401774 178,687.89211979727543" />
    <line x1="178" y1="802.20747309682133" x2="167" y2="821.260031980079" />
    <line x1="167" y1="859.36514974659428" x2="178" y2="878.417708629852" />
    <line x1="189" y1="630.73444314750247" x2="178" y2="649.78700203076016" />
    <line x1="178" y1="687.89211979727543" x2="189" y2="706.94467868053312" />
    <line x1="178" y1="725.99723756379069" x2="189" y2="745.04979644704838" />
    <line x1="178" y1="916.52282639636724" x2="189" y2="935.57538527962492" />
    <line x1="200" y1="611.68188426424479" x2="189" y2="630.73444314750247" />
    <line x1="189" y1="668.83956091401774" x2="200" y2="687.89211979727543" />
    <line x1="189" y1="706.944678680533" x2="200" y2="725.99723756379069" />
    <line x1="189" y1="745.04979644704838" x2="200" y2="764.10235533030607" />
    <polyline points="200,764.102355330306 189,783.15491421356364 200,802.20747309682133 189,821.260031980079" />
    <line x1="189" y1="821.26003198007891" x2="200" y2="840.3125908633366" />
    <line x1="189" y1="859.36514974659428" x2="200" y2="878.417708629852" />
    <polyline points="200,878.41770862985186 189,897.47026751310955 200,916.52282639636724" />
    <line x1="211" y1="592.6293253809871" x2="200" y2="611.68188426424479" />
    <line x1="200" y1="649.78700203076" x2="211" y2="668.83956091401774" />
    <line x1="200" y1="687.89211979727543" x2="211" y2="706.94467868053312" />
    <line x1="200" y1="725.99723756379069" x2="211" y2="745.04979644704838" />
    <line x1="222" y1="573.57676649772952" x2="211" y2="592.62932538098721" />
    <line x1="211" y1="630.73444314750247" x2="222" y2="649.78700203076016" />
    <line x1="211" y1="706.944678680533" x2="222" y2="725.99723756379069" />
    <polyline points="211,783.15491421356364 222,802.20747309682133 211,821.260031980079" />
    <polyline points="211,821.26003198007891 222,840.3125908633366 211,859.36514974659428" />
    <line x1="222" y1="878.41770862985186" x2="211" y2="897.47026751310955" />
    <line x1="233" y1="554.52420761447183" x2="222" y2="573.57676649772952" />
    <line x1="222" y1="611.68188426424479" x2="233" y2="630.73444314750247" />
    <line x1="222" y1="649.78700203076" x2="233" y2="668.83956091401774" />
    <line x1="222" y1="687.89211979727543" x2="233" y2="706.94467868053312" />
    <polyline points="222,840.3125908633366 233,859.36514974659428 222,878.417708629852" />
    <line x1="244" y1="535.47164873121415" x2="233" y2="554.52420761447183" />
    <line x1="244" y1="573.57676649772952" x2="233" y2="592.62932538098721" />
    <polyline points="233,706.944678680533 244,725.99723756379069 233,745.04979644704838" />
    <polyline points="233,783.15491421356364 244,802.20747309682133 233,821.260031980079" />
    <line x1="233" y1="821.26003198007891" x2="244" y2="840.3125908633366" />
    <line x1="244" y1="878.41770862985186" x2="233" y2="897.47026751310955" />
    <line x1="255" y1="516.41908984795657" x2="244" y2="535.47164873121426" />
    <line x1="244" y1="535.47164873121415" x2="255" y2="554.52420761447183" />
    <polyline points="255,592.6293253809871 244,611.68188426424479 255,630.73444314750247" />
    <line x1="244" y1="687.89211979727543" x2="255" y2="706.94467868053312" />
    <line x1="255" y1="745.04979644704838" x2="244" y2="764.10235533030607" />
    <line x1="255" y1="897.47026751310955" x2="244" y2="916.52282639636724" />
    <line x1="266" y1="497.36653096469888" x2="255" y2="516.41908984795657" />
    <polyline points="266,649.78700203076 255,668.83956091401774 266,687.89211979727543 255,706.94467868053312" />
    <polyline points="266,764.102355330306 255,783.15491421356364 266,802.20747309682133 255,821.260031980079" />
    <polyline points="255,821.26003198007891 266,840.3125908633366 255,859.36514974659428 266,878.417708629852" />
    <line x1="266" y1="878.41770862985186" x2="255" y2="897.47026751310955" />
    <line x1="277" y1="516.41908984795657" x2="266" y2="535.47164873121426" />
    <line x1="277" y1="706.944678680533" x2="266" y2="725.99723756379069" />
    <line x1="277" y1="897.47026751310955" x2="266" y2="916.52282639636724" />
    <line x1="288" y1="459.26141319818362" x2="277" y2="478.31397208144131" />
    <line x1="277" y1="478.31397208144125" x2="288" y2="497.36653096469894" />
    <line x1="288" y1="497.36653096469888" x2="277" y2="516.41908984795657" />
    <line x1="288" y1="535.47164873121415" x2="277" y2="554.52420761447183" />
    <line x1="277" y1="630.73444314750247" x2="288" y2="649.78700203076016" />
    <line x1="288" y1="649.78700203076" x2="277" y2="668.83956091401774" />
    <polyline points="288,725.99723756379069 277,745.04979644704838 288,764.10235533030607" />
    <polyline points="277,783.15491421356364 288,802.20747309682133 277,821.260031980079" />
    <line x1="299" y1="440.20885431492593" x2="288" y2="459.26141319818362" />
    <line x1="299" y1="516.41908984795657" x2="288" y2="535.47164873121426" />
    <polyline points="288,535.47164873121415 299,554.52420761447183 288,573.57676649772952 299,592.62932538098721" />
    <polyline points="299,592.6293253809871 288,611.68188426424479 299,630.73444314750247" />
    <line x1="288" y1="725.99723756379069" x2="299" y2="745.04979644704838" />
    <line x1="299" y1="821.26003198007891" x2="288" y2="840.3125908633366" />
    <polyline points="288,878.41770862985186 299,897.47026751310955 288,916.52282639636724 299,935.57538527962492" />
    <line x1="310" y1="421.1562954316683" x2="299" y2="440.208854314926" />
    <line x1="299" y1="478.31397208144125" x2="310" y2="497.36653096469894" />
    <line x1="299" y1="706.944678680533" x2="310" y2="725.99723756379069" />
    <line x1="299" y1="745.04979644704838" x2="310" y2="764.10235533030607" />
    <line x1="310" y1="764.102355330306" x2="299" y2="783.15491421356364" />
    <line x1="321" y1="402.10373654841067" x2="310" y2="421.15629543166835" />
    <line x1="310" y1="459.26141319818362" x2="321" y2="478.31397208144131" />
    <polyline points="310,497.36653096469888 321,516.41908984795657 310,535.47164873121426" />
    <line x1="321" y1="554.52420761447183" x2="310" y2="573.57676649772952" />
    <line x1="321" y1="592.6293253809871" x2="310" y2="611.68188426424479" />
    <polyline points="310,878.41770862985186 321,897.47026751310955 310,916.52282639636724" />
    <line x1="332" y1="383.051177665153" x2="321" y2="402.10373654841067" />
    <line x1="332" y1="421.1562954316683" x2="321" y2="440.208854314926" />
    <line x1="321" y1="440.20885431492593" x2="332" y2="459.26141319818362" />
    <line x1="321" y1="478.31397208144125" x2="332" y2="497.36653096469894" />
    <line x1="332" y1="535.47164873121415" x2="321" y2="554.52420761447183" />
    <line x1="332" y1="573.57676649772952" x2="321" y2="592.62932538098721" />
    <line x1="332" y1="687.89211979727543" x2="321" y2="706.94467868053312" />
    <line x1="321" y1="706.944678680533" x2="332" y2="725.99723756379069" />
    <line x1="321" y1="783.15491421356364" x2="332" y2="802.20747309682133" />
    <line x1="321" y1="859.36514974659428" x2="332" y2="878.417708629852" />
    <line x1="321" y1="935.57538527962481" x2="332" y2="954.6279441628825" />
    <line x1="343" y1="363.99861878189535" x2="332" y2="383.05117766515303" />
    <line x1="332" y1="459.26141319818362" x2="343" y2="478.31397208144131" />
    <polyline points="343,554.52420761447183 332,573.57676649772952 343,592.62932538098721" />
    <polyline points="343,592.6293253809871 332,611.68188426424479 343,630.73444314750247 332,649.78700203076016" />
    <line x1="332" y1="725.99723756379069" x2="343" y2="745.04979644704838" />
    <line x1="332" y1="802.20747309682133" x2="343" y2="821.260031980079" />
    <polyline points="343,821.26003198007891 332,840.3125908633366 343,859.36514974659428" />
    <line x1="332" y1="916.52282639636724" x2="343" y2="935.57538527962492" />
    <line x1="354" y1="344.94605989863771" x2="343" y2="363.9986187818954" />
    <line x1="343" y1="402.10373654841067" x2="354" y2="421.15629543166835" />
    <line x1="354" y1="421.1562954316683" x2="343" y2="440.208854314926" />
    <line x1="343" y1="440.20885431492593" x2="354" y2="459.26141319818362" />
    <line x1="354" y1="649.78700203076" x2="343" y2="668.83956091401774" />
    <line x1="343" y1="821.26003198007891" x2="354" y2="840.3125908633366" />
    <line x1="354" y1="916.52282639636724" x2="343" y2="935.57538527962492" />
    <line x1="365" y1="325.89350101538" x2="354" y2="344.94605989863771" />
    <line x1="365" y1="363.99861878189535" x2="354" y2="383.05117766515303" />
    <line x1="365" y1="554.52420761447183" x2="354" y2="573.57676649772952" />
    <line x1="354" y1="611.68188426424479" x2="365" y2="630.73444314750247" />
    <line x1="365" y1="668.83956091401774" x2="354" y2="687.89211979727543" />
    <line x1="354" y1="802.20747309682133" x2="365" y2="821.260031980079" />
    <polyline points="354,840.3125908633366 365,859.36514974659428 354,878.417708629852" />
    <line x1="365" y1="935.57538527962481" x2="354" y2="954.6279441628825" />
    <line x1="376" y1="306.84094213212239" x2="365" y2="325.89350101538008" />
    <line x1="376" y1="344.94605989863771" x2="365" y2="363.9986187818954" />
    <line x1="365" y1="478.31397208144125" x2="376" y2="497.36653096469894" />
    <line x1="376" y1="497.36653096469888" x2="365" y2="516.41908984795657" />
    <line x1="376" y1="535.47164873121415" x2="365" y2="554.52420761447183" />
    <line x1="376" y1="573.57676649772952" x2="365" y2="592.62932538098721" />
    <line x1="365" y1="592.6293253809871" x2="376" y2="611.68188426424479" />
    <line x1="376" y1="687.89211979727543" x2="365" y2="706.94467868053312" />
    <polyline points="365,706.944678680533 376,725.99723756379069 365,745.04979644704838" />
    <line x1="365" y1="783.15491421356364" x2="376" y2="802.20747309682133" />
    <line x1="365" y1="821.26003198007891" x2="376" y2="840.3125908633366" />
    <line x1="387" y1="287.78838324886476" x2="376" y2="306.84094213212245" />
    <line x1="387" y1="325.89350101538" x2="376" y2="344.94605989863771" />
    <polyline points="387,440.20885431492593 376,459.26141319818362 387,478.31397208144131" />
    <line x1="387" y1="516.41908984795657" x2="376" y2="535.47164873121426" />
    <line x1="387" y1="554.52420761447183" x2="376" y2="573.57676649772952" />
    <polyline points="387,592.6293253809871 376,611.68188426424479 387,630.73444314750247" />
    <line x1="387" y1="668.83956091401774" x2="376" y2="687.89211979727543" />
    <line x1="387" y1="745.04979644704838" x2="376" y2="764.10235533030607" />
    <polyline points="376,878.41770862985186 387,897.47026751310955 376,916.52282639636724" />
    <line x1="398" y1="268.73582436560707" x2="387" y2="287.78838324886476" />
    <line x1="398" y1="306.84094213212239" x2="387" y2="325.89350101538008" />
    <line x1="398" y1="535.47164873121415" x2="387" y2="554.52420761447183" />
    <line x1="387" y1="668.83956091401774" x2="398" y2="687.89211979727543" />
    <line x1="387" y1="706.944678680533" x2="398" y2="725.99723756379069" />
    <line x1="398" y1="764.102355330306" x2="387" y2="783.15491421356364" />
    <line x1="398" y1="802.20747309682133" x2="387" y2="821.260031980079" />
    <line x1="387" y1="859.36514974659428" x2="398" y2="878.417708629852" />
    <line x1="398" y1="878.41770862985186" x2="387" y2="897.47026751310955" />
    <line x1="409" y1="249.68326548234947" x2="398" y2="268.73582436560713" />
    <line x1="398" y1="306.84094213212239" x2="409" y2="325.89350101538008" />
    <line x1="409" y1="402.10373654841067" x2="398" y2="421.15629543166835" />
    <polyline points="409,440.20885431492593 398,459.26141319818362 409,478.31397208144131" />
    <polyline points="398,497.36653096469888 409,516.41908984795657 398,535.47164873121426" />
    <line x1="398" y1="535.47164873121415" x2="409" y2="554.52420761447183" />
    <line x1="409" y1="592.6293253809871" x2="398" y2="611.68188426424479" />
    <line x1="409" y1="630.73444314750247" x2="398" y2="649.78700203076016" />
    <line x1="398" y1="687.89211979727543" x2="409" y2="706.94467868053312" />
    <polyline points="398,725.99723756379069 409,745.04979644704838 398,764.10235533030607" />
    <line x1="398" y1="764.102355330306" x2="409" y2="783.15491421356364" />
    <line x1="409" y1="821.26003198007891" x2="398" y2="840.3125908633366" />
    <polyline points="409,897.47026751310955 398,916.52282639636724 409,935.57538527962492" />
    <line x1="420" y1="230.63070659909184" x2="409" y2="249.68326548234947" />
    <line x1="409" y1="287.78838324886476" x2="420" y2="306.84094213212245" />
    <line x1="420" y1="344.94605989863771" x2="409" y2="363.9986187818954" />
    <line x1="420" y1="611.68188426424479" x2="409" y2="630.73444314750247" />
    <polyline points="420,649.78700203076 409,668.83956091401774 420,687.89211979727543 409,706.94467868053312" />
    <polyline points="409,821.26003198007891 420,840.3125908633366 409,859.36514974659428" />
    <line x1="409" y1="897.47026751310955" x2="420" y2="916.52282639636724" />
    <line x1="431" y1="211.57814771583418" x2="420" y2="230.63070659909181" />
    <line x1="431" y1="249.68326548234947" x2="420" y2="268.73582436560713" />
    <line x1="420" y1="268.73582436560707" x2="431" y2="287.78838324886476" />
    <line x1="431" y1="363.99861878189535" x2="420" y2="383.05117766515303" />
    <polyline points="420,383.051177665153 431,402.10373654841067 420,421.15629543166835" />
    <line x1="420" y1="459.26141319818362" x2="431" y2="478.31397208144131" />
    <line x1="420" y1="497.36653096469888" x2="431" y2="516.41908984795657" />
    <line x1="431" y1="592.6293253809871" x2="420" y2="611.68188426424479" />
    <line x1="420" y1="649.78700203076" x2="431" y2="668.83956091401774" />
    <line x1="431" y1="706.944678680533" x2="420" y2="725.99723756379069" />
    <line x1="431" y1="745.04979644704838" x2="420" y2="764.10235533030607" />
    <polyline points="420,764.102355330306 431,783.15491421356364 420,802.20747309682133" />
    <line x1="420" y1="878.41770862985186" x2="431" y2="897.47026751310955" />
    <line x1="442" y1="192.52558883257652" x2="431" y2="211.57814771583415" />
    <line x1="431" y1="249.68326548234947" x2="442" y2="268.73582436560713" />
    <line x1="442" y1="344.94605989863771" x2="431" y2="363.9986187818954" />
    <line x1="442" y1="421.1562954316683" x2="431" y2="440.208854314926" />
    <line x1="431" y1="440.20885431492593" x2="442" y2="459.26141319818362" />
    <line x1="431" y1="478.31397208144125" x2="442" y2="497.36653096469894" />
    <line x1="442" y1="535.47164873121415" x2="431" y2="554.52420761447183" />
    <line x1="442" y1="687.89211979727543" x2="431" y2="706.94467868053312" />
    <line x1="442" y1="725.99723756379069" x2="431" y2="745.04979644704838" />
    <polyline points="442,840.3125908633366 431,859.36514974659428 442,878.417708629852" />
    <line x1="442" y1="878.41770862985186" x2="431" y2="897.47026751310955" />
    <polyline points="453,173.47302994931889 442,192.52558883257652 453,211.57814771583415" />
    <line x1="453" y1="211.57814771583418" x2="442" y2="230.63070659909181" />
    <line x1="442" y1="230.63070659909184" x2="453" y2="249.68326548234947" />
    <line x1="453" y1="287.78838324886476" x2="442" y2="306.84094213212245" />
    <line x1="453" y1="363.99861878189535" x2="442" y2="383.05117766515303" />
    <line x1="453" y1="402.10373654841067" x2="442" y2="421.15629543166835" />
    <line x1="442" y1="459.26141319818362" x2="453" y2="478.31397208144131" />
    <polyline points="442,611.68188426424479 453,630.73444314750247 442,649.78700203076016" />
    <polyline points="442,649.78700203076 453,668.83956091401774 442,687.89211979727543" />
    <polyline points="442,764.102355330306 453,783.15491421356364 442,802.20747309682133" />
    <line x1="453" y1="821.26003198007891" x2="442" y2="840.3125908633366" />
    <line x1="442" y1="916.52282639636724" x2="453" y2="935.57538527962492" />
    <line x1="464" y1="154.42047106606123" x2="453" y2="173.47302994931886" />
    <polyline points="464,268.73582436560707 453,287.78838324886476 464,306.84094213212245" />
    <line x1="464" y1="344.94605989863771" x2="453" y2="363.9986187818954" />
    <line x1="464" y1="383.051177665153" x2="453" y2="402.10373654841067" />
    <line x1="464" y1="421.1562954316683" x2="453" y2="440.208854314926" />
    <line x1="453" y1="516.41908984795657" x2="464" y2="535.47164873121426" />
    <line x1="464" y1="535.47164873121415" x2="453" y2="554.52420761447183" />
    <line x1="464" y1="573.57676649772952" x2="453" y2="592.62932538098721" />
    <polyline points="453,592.6293253809871 464,611.68188426424479 453,630.73444314750247" />
    <polyline points="453,668.83956091401774 464,687.89211979727543 453,706.94467868053312" />
    <line x1="453" y1="745.04979644704838" x2="464" y2="764.10235533030607" />
    <line x1="453" y1="897.47026751310955" x2="464" y2="916.52282639636724" />
    <line x1="475" y1="135.36791218280357" x2="464" y2="154.4204710660612" />
    <line x1="464" y1="154.42047106606123" x2="475" y2="173.47302994931886" />
    <line x1="475" y1="211.57814771583418" x2="464" y2="230.63070659909181" />
    <line x1="475" y1="249.68326548234947" x2="464" y2="268.73582436560713" />
    <polyline points="475,325.89350101538 464,344.94605989863771 475,363.9986187818954" />
    <line x1="464" y1="421.1562954316683" x2="475" y2="440.208854314926" />
    <polyline points="475,440.20885431492593 464,459.26141319818362 475,478.31397208144131" />
    <line x1="464" y1="497.36653096469888" x2="475" y2="516.41908984795657" />
    <line x1="475" y1="554.52420761447183" x2="464" y2="573.57676649772952" />
    <line x1="475" y1="630.73444314750247" x2="464" y2="649.78700203076016" />
    <line x1="475" y1="706.944678680533" x2="464" y2="725.99723756379069" />
    <line x1="464" y1="878.41770862985186" x2="475" y2="897.47026751310955" />
    <line x1="486" y1="116.31535329954592" x2="475" y2="135.36791218280357" />
    <line x1="486" y1="192.52558883257652" x2="475" y2="211.57814771583415" />
    <polyline points="486,268.73582436560707 475,287.78838324886476 486,306.84094213212245" />
    <line x1="486" y1="306.84094213212239" x2="475" y2="325.89350101538008" />
    <line x1="475" y1="363.99861878189535" x2="486" y2="383.05117766515303" />
    <line x1="475" y1="402.10373654841067" x2="486" y2="421.15629543166835" />
    <line x1="475" y1="516.41908984795657" x2="486" y2="535.47164873121426" />
    <line x1="486" y1="573.57676649772952" x2="475" y2="592.62932538098721" />
    <line x1="475" y1="592.6293253809871" x2="486" y2="611.68188426424479" />
    <polyline points="486,649.78700203076 475,668.83956091401774 486,687.89211979727543 475,706.94467868053312" />
    <polyline points="486,725.99723756379069 475,745.04979644704838 486,764.10235533030607" />
    <polyline points="486,764.102355330306 475,783.15491421356364 486,802.20747309682133" />
    <line x1="475" y1="859.36514974659428" x2="486" y2="878.417708629852" />
    <line x1="475" y1="897.47026751310955" x2="486" y2="916.52282639636724" />
    <line x1="497" y1="97.262794416288258" x2="486" y2="116.31535329954592" />
    <line x1="497" y1="135.36791218280357" x2="486" y2="154.4204710660612" />
    <line x1="486" y1="154.42047106606123" x2="497" y2="173.47302994931886" />
    <line x1="497" y1="173.47302994931889" x2="486" y2="192.52558883257652" />
    <line x1="497" y1="211.57814771583418" x2="486" y2="230.63070659909181" />
    <line x1="486" y1="344.94605989863771" x2="497" y2="363.9986187818954" />
    <line x1="486" y1="383.051177665153" x2="497" y2="402.10373654841067" />
    <polyline points="497,440.20885431492593 486,459.26141319818362 497,478.31397208144131" />
    <line x1="497" y1="478.31397208144125" x2="486" y2="497.36653096469894" />
    <polyline points="486,497.36653096469888 497,516.41908984795657 486,535.47164873121426" />
    <line x1="486" y1="687.89211979727543" x2="497" y2="706.94467868053312" />
    <line x1="486" y1="802.20747309682133" x2="497" y2="821.260031980079" />
    <polyline points="497,821.26003198007891 486,840.3125908633366 497,859.36514974659428" />
    <line x1="486" y1="878.41770862985186" x2="497" y2="897.47026751310955" />
    <line x1="497" y1="935.57538527962481" x2="486" y2="954.6279441628825" />
    <line x1="508" y1="78.210235533030612" x2="497" y2="97.262794416288273" />
    <line x1="497" y1="135.36791218280357" x2="508" y2="154.4204710660612" />
    <line x1="497" y1="211.57814771583418" x2="508" y2="230.63070659909181" />
    <line x1="508" y1="268.73582436560707" x2="497" y2="287.78838324886476" />
    <polyline points="497,325.89350101538 508,344.94605989863771 497,363.9986187818954" />
    <line x1="497" y1="363.99861878189535" x2="508" y2="383.05117766515303" />
    <line x1="508" y1="535.47164873121415" x2="497" y2="554.52420761447183" />
    <line x1="508" y1="649.78700203076" x2="497" y2="668.83956091401774" />
    <polyline points="497,706.944678680533 508,725.99723756379069 497,745.04979644704838 508,764.10235533030607" />
    <line x1="508" y1="764.102355330306" x2="497" y2="783.15491421356364" />
    <line x1="508" y1="802.20747309682133" x2="497" y2="821.260031980079" />
    <line x1="519" y1="59.157676649772974" x2="508" y2="78.210235533030627" />
    <line x1="508" y1="116.31535329954592" x2="519" y2="135.36791218280357" />
    <line x1="508" y1="154.42047106606123" x2="519" y2="173.47302994931886" />
    <line x1="508" y1="192.52558883257652" x2="519" y2="211.57814771583415" />
    <line x1="519" y1="249.68326548234947" x2="508" y2="268.73582436560713" />
    <line x1="508" y1="306.84094213212239" x2="519" y2="325.89350101538008" />
    <polyline points="508,383.051177665153 519,402.10373654841067 508,421.15629543166835" />
    <line x1="519" y1="478.31397208144125" x2="508" y2="497.36653096469894" />
    <line x1="519" y1="554.52420761447183" x2="508" y2="573.57676649772952" />
    <line x1="519" y1="630.73444314750247" x2="508" y2="649.78700203076016" />
    <line x1="508" y1="687.89211979727543" x2="519" y2="706.94467868053312" />
    <line x1="519" y1="706.944678680533" x2="508" y2="725.99723756379069" />
    <line x1="519" y1="783.15491421356364" x2="508" y2="802.20747309682133" />
    <line x1="519" y1="821.26003198007891" x2="508" y2="840.3125908633366" />
    <line x1="519" y1="935.57538527962481" x2="508" y2="954.6279441628825" />
    <line x1="530" y1="40.10511776651532" x2="519" y2="59.157676649772966" />
    <line x1="530" y1="78.210235533030612" x2="519" y2="97.262794416288273" />
    <line x1="519" y1="135.36791218280357" x2="530" y2="154.4204710660612" />
    <line x1="519" y1="173.47302994931889" x2="530" y2="192.52558883257652" />
    <line x1="519" y1="287.78838324886476" x2="530" y2="306.84094213212245" />
    <line x1="530" y1="306.84094213212239" x2="519" y2="325.89350101538008" />
    <polyline points="519,325.89350101538 530,344.94605989863771 519,363.9986187818954" />
    <line x1="530" y1="421.1562954316683" x2="519" y2="440.208854314926" />
    <line x1="530" y1="459.26141319818362" x2="519" y2="478.31397208144131" />
    <line x1="519" y1="516.41908984795657" x2="530" y2="535.47164873121426" />
    <line x1="530" y1="535.47164873121415" x2="519" y2="554.52420761447183" />
    <line x1="530" y1="573.57676649772952" x2="519" y2="592.62932538098721" />
    <polyline points="519,592.6293253809871 530,611.68188426424479 519,630.73444314750247" />
    <line x1="519" y1="668.83956091401774" x2="530" y2="687.89211979727543" />
    <polyline points="530,725.99723756379069 519,745.04979644704838 530,764.10235533030607" />
    <line x1="530" y1="764.102355330306" x2="519" y2="783.15491421356364" />
    <line x1="530" y1="802.20747309682133" x2="519" y2="821.260031980079" />
    <polyline points="530,840.3125908633366 519,859.36514974659428 530,878.417708629852" />
    <polyline points="530,878.41770862985186 519,897.47026751310955 530,916.52282639636724 519,935.57538527962492" />
    <line x1="541" y1="21.052558883257667" x2="530" y2="40.10511776651532" />
    <line x1="530" y1="78.210235533030612" x2="541" y2="97.262794416288273" />
    <line x1="541" y1="97.262794416288258" x2="530" y2="116.31535329954592" />
    <line x1="530" y1="154.42047106606123" x2="541" y2="173.47302994931886" />
    <polyline points="530,230.63070659909184 541,249.68326548234947 530,268.73582436560713" />
    <line x1="530" y1="268.73582436560707" x2="541" y2="287.78838324886476" />
    <line x1="541" y1="363.99861878189535" x2="530" y2="383.05117766515303" />
    <line x1="541" y1="440.20885431492593" x2="530" y2="459.26141319818362" />
    <line x1="541" y1="478.31397208144125" x2="530" y2="497.36653096469894" />
    <line x1="541" y1="592.6293253809871" x2="530" y2="611.68188426424479" />
    <line x1="541" y1="745.04979644704838" x2="530" y2="764.10235533030607" />
    <line x1="541" y1="783.15491421356364" x2="530" y2="802.20747309682133" />
    <line x1="552" y1="2.0000000000000195" x2="541" y2="21.052558883257667" />
    <line x1="541" y1="59.157676649772974" x2="552" y2="78.210235533030627" />
    <polyline points="541,173.47302994931889 552,192.52558883257652 541,211.57814771583415" />
    <line x1="541" y1="211.57814771583418" x2="552" y2="230.63070659909181" />
    <line x1="552" y1="383.051177665153" x2="541" y2="402.10373654841067" />
    <line x1="552" y1="459.26141319818362" x2="541" y2="478.31397208144131" />
    <line x1="552" y1="497.36653096469888" x2="541" y2="516.41908984795657" />
    <line x1="552" y1="573.57676649772952" x2="541" y2="592.62932538098721" />
    <line x1="552" y1="725.99723756379069" x2="541" y2="745.04979644704838" />
    <polyline points="552,764.102355330306 541,783.15491421356364 552,802.20747309682133 541,821.260031980079" />
    <line x1="541" y1="859.36514974659428" x2="552" y2="878.417708629852" />
    <line x1="552" y1="878.41770862985186" x2="541" y2="897.47026751310955" />
    <polyline points="552,2.0000000000000195 563,21.052558883257667 552,40.10511776651532 563,59.157676649772966" />
    <line x1="552" y1="154.42047106606123" x2="563" y2="173.47302994931886" />
    <line x1="552" y1="268.73582436560707" x2="563" y2="287.78838324886476" />
    <polyline points="552,383.051177665153 563,402.10373654841067 552,421.15629543166835" />
    <line x1="563" y1="478.31397208144125" x2="552" y2="497.36653096469894" />
    <line x1="563" y1="516.41908984795657" x2="552" y2="535.47164873121426" />
    <line x1="552" y1="573.57676649772952" x2="563" y2="592.62932538098721" />
    <line x1="563" y1="745.04979644704838" x2="552" y2="764.10235533030607" />
    <line x1="552" y1="840.3125908633366" x2="563" y2="859.36514974659428" />
    <line x1="563" y1="897.47026751310955" x2="552" y2="916.52282639636724" />
    <line x1="563" y1="21.052558883257667" x2="574" y2="40.10511776651532" />
    <line x1="563" y1="59.157676649772974" x2="574" y2="78.210235533030627" />
    <polyline points="574,116.31535329954592 563,135.36791218280357 574,154.4204710660612" />
    <line x1="574" y1="192.52558883257652" x2="563" y2="211.57814771583415" />
    <line x1="563" y1="287.78838324886476" x2="574" y2="306.84094213212245" />
    <polyline points="563,325.89350101538 574,344.94605989863771 563,363.9986187818954" />
    <line x1="563" y1="363.99861878189535" x2="574" y2="383.05117766515303" />
    <line x1="574" y1="421.1562954316683" x2="563" y2="440.208854314926" />
    <line x1="574" y1="497.36653096469888" x2="563" y2="516.41908984795657" />
    <line x1="563" y1="592.6293253809871" x2="574" y2="611.68188426424479" />
    <polyline points="563,706.944678680533 574,725.99723756379069 563,745.04979644704838 574,764.10235533030607" />
    <polyline points="574,764.102355330306 563,783.15491421356364 574,802.20747309682133 563,821.260031980079" />
    <line x1="563" y1="821.26003198007891" x2="574" y2="840.3125908633366" />
    <line x1="563" y1="935.57538527962481" x2="574" y2="954.6279441628825" />
    <line x1="574" y1="40.10511776651532" x2="585" y2="59.157676649772966" />
    <line x1="574" y1="78.210235533030612" x2="585" y2="97.262794416288273" />
    <line x1="585" y1="97.262794416288258" x2="574" y2="116.31535329954592" />
    <line x1="585" y1="211.57814771583418" x2="574" y2="230.63070659909181" />
    <line x1="585" y1="325.89350101538" x2="574" y2="344.94605989863771" />
    <line x1="585" y1="478.31397208144125" x2="574" y2="497.36653096469894" />
    <line x1="585" y1="554.52420761447183" x2="574" y2="573.57676649772952" />
    <line x1="574" y1="611.68188426424479" x2="585" y2="630.73444314750247" />
    <line x1="574" y1="687.89211979727543" x2="585" y2="706.94467868053312" />
    <polyline points="585,897.47026751310955 574,916.52282639636724 585,935.57538527962492" />
    <line x1="585" y1="59.157676649772974" x2="596" y2="78.210235533030627" />
    <line x1="596" y1="154.42047106606123" x2="585" y2="173.47302994931886" />
    <line x1="596" y1="230.63070659909184" x2="585" y2="249.68326548234947" />
    <line x1="596" y1="268.73582436560707" x2="585" y2="287.78838324886476" />
    <line x1="585" y1="363.99861878189535" x2="596" y2="383.05117766515303" />
    <line x1="596" y1="383.051177665153" x2="585" y2="402.10373654841067" />
    <polyline points="585,440.20885431492593 596,459.26141319818362 585,478.31397208144131" />
    <line x1="585" y1="516.41908984795657" x2="596" y2="535.47164873121426" />
    <line x1="596" y1="535.47164873121415" x2="585" y2="554.52420761447183" />
    <line x1="596" y1="573.57676649772952" x2="585" y2="592.62932538098721" />
    <line x1="585" y1="630.73444314750247" x2="596" y2="649.78700203076016" />
    <polyline points="585,668.83956091401774 596,687.89211979727543 585,706.94467868053312" />
    <line x1="585" y1="745.04979644704838" x2="596" y2="764.10235533030607" />
    <polyline points="585,783.15491421356364 596,802.20747309682133 585,821.260031980079" />
    <line x1="585" y1="897.47026751310955" x2="596" y2="916.52282639636724" />
    <line x1="596" y1="78.210235533030612" x2="607" y2="97.262794416288273" />
    <line x1="607" y1="173.47302994931889" x2="596" y2="192.52558883257652" />
    <line x1="596" y1="344.94605989863771" x2="607" y2="363.9986187818954" />
    <line x1="596" y1="421.1562954316683" x2="607" y2="440.208854314926" />
    <line x1="607" y1="440.20885431492593" x2="596" y2="459.26141319818362" />
    <line x1="607" y1="478.31397208144125" x2="596" y2="497.36653096469894" />
    <line x1="596" y1="497.36653096469888" x2="607" y2="516.41908984795657" />
    <line x1="607" y1="554.52420761447183" x2="596" y2="573.57676649772952" />
    <polyline points="607,592.6293253809871 596,611.68188426424479 607,630.73444314750247" />
    <line x1="596" y1="649.78700203076" x2="607" y2="668.83956091401774" />
    <line x1="596" y1="725.99723756379069" x2="607" y2="745.04979644704838" />
    <line x1="596" y1="764.102355330306" x2="607" y2="783.15491421356364" />
    <line x1="596" y1="878.41770862985186" x2="607" y2="897.47026751310955" />
    <line x1="607" y1="97.262794416288258" x2="618" y2="116.31535329954592" />
    <line x1="618" y1="154.42047106606123" x2="607" y2="173.47302994931886" />
    <line x1="607" y1="249.68326548234947" x2="618" y2="268.73582436560713" />
    <polyline points="618,268.73582436560707 607,287.78838324886476 618,306.84094213212245" />
    <line x1="618" y1="306.84094213212239" x2="607" y2="325.89350101538008" />
    <line x1="607" y1="325.89350101538" x2="618" y2="344.94605989863771" />
    <line x1="607" y1="363.99861878189535" x2="618" y2="383.05117766515303" />
    <polyline points="618,383.051177665153 607,402.10373654841067 618,421.15629543166835" />
    <line x1="618" y1="459.26141319818362" x2="607" y2="478.31397208144131" />
    <line x1="618" y1="535.47164873121415" x2="607" y2="554.52420761447183" />
    <line x1="618" y1="573.57676649772952" x2="607" y2="592.62932538098721" />
    <polyline points="618,725.99723756379069 607,745.04979644704838 618,764.10235533030607" />
    <polyline points="607,783.15491421356364 618,802.20747309682133 607,821.260031980079" />
    <line x1="607" y1="859.36514974659428" x2="618" y2="878.417708629852" />
    <line x1="607" y1="897.47026751310955" x2="618" y2="916.52282639636724" />
    <line x1="618" y1="116.31535329954592" x2="629" y2="135.36791218280357" />
    <line x1="629" y1="173.47302994931889" x2="618" y2="192.52558883257652" />
    <line x1="618" y1="344.94605989863771" x2="629" y2="363.9986187818954" />
    <line x1="629" y1="478.31397208144125" x2="618" y2="497.36653096469894" />
    <line x1="618" y1="573.57676649772952" x2="629" y2="592.62932538098721" />
    <line x1="618" y1="611.68188426424479" x2="629" y2="630.73444314750247" />
    <line x1="618" y1="687.89211979727543" x2="629" y2="706.94467868053312" />
    <polyline points="629,821.26003198007891 618,840.3125908633366 629,859.36514974659428 618,878.417708629852" />
    <polyline points="618,878.41770862985186 629,897.47026751310955 618,916.52282639636724" />
    <line x1="629" y1="135.36791218280357" x2="640" y2="154.4204710660612" />
    <line x1="640" y1="154.42047106606123" x2="629" y2="173.47302994931886" />
    <line x1="629" y1="173.47302994931889" x2="640" y2="192.52558883257652" />
    <line x1="629" y1="211.57814771583418" x2="640" y2="230.63070659909181" />
    <line x1="640" y1="268.73582436560707" x2="629" y2="287.78838324886476" />
    <line x1="629" y1="325.89350101538" x2="640" y2="344.94605989863771" />
    <line x1="629" y1="363.99861878189535" x2="640" y2="383.05117766515303" />
    <line x1="640" y1="383.051177665153" x2="629" y2="402.10373654841067" />
    <line x1="629" y1="554.52420761447183" x2="640" y2="573.57676649772952" />
    <line x1="629" y1="592.6293253809871" x2="640" y2="611.68188426424479" />
    <line x1="629" y1="630.73444314750247" x2="640" y2="649.78700203076016" />
    <polyline points="640,649.78700203076 629,668.83956091401774 640,687.89211979727543" />
    <line x1="629" y1="706.944678680533" x2="640" y2="725.99723756379069" />
    <line x1="629" y1="745.04979644704838" x2="640" y2="764.10235533030607" />
    <polyline points="640,764.102355330306 629,783.15491421356364 640,802.20747309682133" />
    <line x1="640" y1="916.52282639636724" x2="629" y2="935.57538527962492" />
    <line x1="640" y1="154.42047106606123" x2="651" y2="173.47302994931886" />
    <line x1="640" y1="306.84094213212239" x2="651" y2="325.89350101538008" />
    <polyline points="651,325.89350101538 640,344.94605989863771 651,363.9986187818954" />
    <line x1="651" y1="402.10373654841067" x2="640" y2="421.15629543166835" />
    <line x1="640" y1="459.26141319818362" x2="651" y2="478.31397208144131" />
    <line x1="651" y1="478.31397208144125" x2="640" y2="497.36653096469894" />
    <line x1="640" y1="573.57676649772952" x2="651" y2="592.62932538098721" />
    <line x1="640" y1="687.89211979727543" x2="651" y2="706.94467868053312" />
    <line x1="640" y1="725.99723756379069" x2="651" y2="745.04979644704838" />
    <line x1="640" y1="840.3125908633366" x2="651" y2="859.36514974659428" />
    <polyline points="640,878.41770862985186 651,897.47026751310955 640,916.52282639636724" />
    <line x1="651" y1="935.57538527962481" x2="640" y2="954.6279441628825" />
    <line x1="651" y1="173.47302994931889" x2="662" y2="192.52558883257652" />
    <polyline points="662,268.73582436560707 651,287.78838324886476 662,306.84094213212245" />
    <line x1="662" y1="421.1562954316683" x2="651" y2="440.208854314926" />
    <polyline points="662,497.36653096469888 651,516.41908984795657 662,535.47164873121426" />
    <line x1="662" y1="649.78700203076" x2="651" y2="668.83956091401774" />
    <line x1="651" y1="706.944678680533" x2="662" y2="725.99723756379069" />
    <polyline points="662,764.102355330306 651,783.15491421356364 662,802.20747309682133" />
    <polyline points="662,840.3125908633366 651,859.36514974659428 662,878.417708629852" />
    <line x1="662" y1="192.52558883257652" x2="673" y2="211.57814771583415" />
    <line x1="662" y1="230.63070659909184" x2="673" y2="249.68326548234947" />
    <line x1="662" y1="268.73582436560707" x2="673" y2="287.78838324886476" />
    <line x1="662" y1="306.84094213212239" x2="673" y2="325.89350101538008" />
    <line x1="673" y1="325.89350101538" x2="662" y2="344.94605989863771" />
    <polyline points="662,383.051177665153 673,402.10373654841067 662,421.15629543166835" />
    <line x1="673" y1="440.20885431492593" x2="662" y2="459.26141319818362" />
    <line x1="673" y1="668.83956091401774" x2="662" y2="687.89211979727543" />
    <line x1="673" y1="706.944678680533" x2="662" y2="725.99723756379069" />
    <line x1="673" y1="745.04979644704838" x2="662" y2="764.10235533030607" />
    <line x1="662" y1="802.20747309682133" x2="673" y2="821.260031980079" />
    <line x1="673" y1="821.26003198007891" x2="662" y2="840.3125908633366" />
    <line x1="673" y1="935.57538527962481" x2="662" y2="954.6279441628825" />
    <line x1="673" y1="211.57814771583418" x2="684" y2="230.63070659909181" />
    <line x1="673" y1="249.68326548234947" x2="684" y2="268.73582436560713" />
    <line x1="673" y1="363.99861878189535" x2="684" y2="383.05117766515303" />
    <line x1="673" y1="402.10373654841067" x2="684" y2="421.15629543166835" />
    <line x1="684" y1="421.1562954316683" x2="673" y2="440.208854314926" />
    <line x1="684" y1="459.26141319818362" x2="673" y2="478.31397208144131" />
    <line x1="673" y1="478.31397208144125" x2="684" y2="497.36653096469894" />
    <line x1="684" y1="497.36653096469888" x2="673" y2="516.41908984795657" />
    <line x1="673" y1="554.52420761447183" x2="684" y2="573.57676649772952" />
    <polyline points="673,592.6293253809871 684,611.68188426424479 673,630.73444314750247" />
    <line x1="684" y1="687.89211979727543" x2="673" y2="706.94467868053312" />
    <line x1="684" y1="725.99723756379069" x2="673" y2="745.04979644704838" />
    <line x1="673" y1="783.15491421356364" x2="684" y2="802.20747309682133" />
    <line x1="673" y1="859.36514974659428" x2="684" y2="878.417708629852" />
    <polyline points="684,878.41770862985186 673,897.47026751310955 684,916.52282639636724 673,935.57538527962492" />
    <line x1="684" y1="230.63070659909184" x2="695" y2="249.68326548234947" />
    <line x1="695" y1="287.78838324886476" x2="684" y2="306.84094213212245" />
    <line x1="684" y1="306.84094213212239" x2="695" y2="325.89350101538008" />
    <line x1="684" y1="383.051177665153" x2="695" y2="402.10373654841067" />
    <line x1="695" y1="440.20885431492593" x2="684" y2="459.26141319818362" />
    <line x1="695" y1="478.31397208144125" x2="684" y2="497.36653096469894" />
    <line x1="695" y1="516.41908984795657" x2="684" y2="535.47164873121426" />
    <line x1="684" y1="535.47164873121415" x2="695" y2="554.52420761447183" />
    <line x1="695" y1="706.944678680533" x2="684" y2="725.99723756379069" />
    <line x1="695" y1="745.04979644704838" x2="684" y2="764.10235533030607" />
    <line x1="684" y1="840.3125908633366" x2="695" y2="859.36514974659428" />
    <line x1="695" y1="249.68326548234947" x2="706" y2="268.73582436560713" />
    <line x1="695" y1="363.99861878189535" x2="706" y2="383.05117766515303" />
    <line x1="706" y1="383.051177665153" x2="695" y2="402.10373654841067" />
    <line x1="706" y1="459.26141319818362" x2="695" y2="478.31397208144131" />
    <line x1="706" y1="497.36653096469888" x2="695" y2="516.41908984795657" />
    <polyline points="706,649.78700203076 695,668.83956091401774 706,687.89211979727543" />
    <line x1="695" y1="745.04979644704838" x2="706" y2="764.10235533030607" />
    <polyline points="706,764.102355330306 695,783.15491421356364 706,802.20747309682133" />
    <polyline points="706,878.41770862985186 695,897.47026751310955 706,916.52282639636724" />
    <polyline points="706,268.73582436560707 717,287.78838324886476 706,306.84094213212245" />
    <line x1="706" y1="306.84094213212239" x2="717" y2="325.89350101538008" />
    <line x1="706" y1="344.94605989863771" x2="717" y2="363.9986187818954" />
    <line x1="717" y1="478.31397208144125" x2="706" y2="497.36653096469894" />
    <line x1="717" y1="516.41908984795657" x2="706" y2="535.47164873121426" />
    <line x1="717" y1="630.73444314750247" x2="706" y2="649.78700203076016" />
    <line x1="706" y1="802.20747309682133" x2="717" y2="821.260031980079" />
    <line x1="706" y1="840.3125908633366" x2="717" y2="859.36514974659428" />
    <line x1="717" y1="287.78838324886476" x2="728" y2="306.84094213212245" />
    <line x1="717" y1="325.89350101538" x2="728" y2="344.94605989863771" />
    <line x1="717" y1="402.10373654841067" x2="728" y2="421.15629543166835" />
    <polyline points="717,440.20885431492593 728,459.26141319818362 717,478.31397208144131" />
    <line x1="728" y1="611.68188426424479" x2="717" y2="630.73444314750247" />
    <polyline points="728,649.78700203076 717,668.83956091401774 728,687.89211979727543 717,706.94467868053312" />
    <line x1="717" y1="783.15491421356364" x2="728" y2="802.20747309682133" />
    <line x1="717" y1="821.26003198007891" x2="728" y2="840.3125908633366" />
    <polyline points="728,878.41770862985186 717,897.47026751310955 728,916.52282639636724" />
    <line x1="728" y1="306.84094213212239" x2="739" y2="325.89350101538008" />
    <line x1="728" y1="383.051177665153" x2="739" y2="402.10373654841067" />
    <line x1="739" y1="478.31397208144125" x2="728" y2="497.36653096469894" />
    <polyline points="728,535.47164873121415 739,554.52420761447183 728,573.57676649772952" />
    <line x1="739" y1="630.73444314750247" x2="728" y2="649.78700203076016" />
    <line x1="728" y1="649.78700203076" x2="739" y2="668.83956091401774" />
    <polyline points="739,706.944678680533 728,725.99723756379069 739,745.04979644704838" />
    <line x1="728" y1="764.102355330306" x2="739" y2="783.15491421356364" />
    <line x1="739" y1="935.57538527962481" x2="728" y2="954.6279441628825" />
    <line x1="739" y1="325.89350101538" x2="750" y2="344.94605989863771" />
    <line x1="739" y1="363.99861878189535" x2="750" y2="383.05117766515303" />
    <polyline points="750,383.051177665153 739,402.10373654841067 750,421.15629543166835" />
    <line x1="750" y1="421.1562954316683" x2="739" y2="440.208854314926" />
    <polyline points="739,440.20885431492593 750,459.26141319818362 739,478.31397208144131" />
    <polyline points="750,497.36653096469888 739,516.41908984795657 750,535.47164873121426" />
    <line x1="750" y1="573.57676649772952" x2="739" y2="592.62932538098721" />
    <line x1="739" y1="592.6293253809871" x2="750" y2="611.68188426424479" />
    <line x1="739" y1="745.04979644704838" x2="750" y2="764.10235533030607" />
    <line x1="739" y1="859.36514974659428" x2="750" y2="878.417708629852" />
    <line x1="750" y1="344.94605989863771" x2="761" y2="363.9986187818954" />
    <line x1="761" y1="478.31397208144125" x2="750" y2="497.36653096469894" />
    <polyline points="750,611.68188426424479 761,630.73444314750247 750,649.78700203076016" />
    <line x1="750" y1="649.78700203076" x2="761" y2="668.83956091401774" />
    <line x1="750" y1="687.89211979727543" x2="761" y2="706.94467868053312" />
    <line x1="750" y1="764.102355330306" x2="761" y2="783.15491421356364" />
    <polyline points="761,821.26003198007891 750,840.3125908633366 761,859.36514974659428" />
    <line x1="761" y1="363.99861878189535" x2="772" y2="383.05117766515303" />
    <line x1="761" y1="402.10373654841067" x2="772" y2="421.15629543166835" />
    <line x1="772" y1="421.1562954316683" x2="761" y2="440.208854314926" />
    <line x1="772" y1="459.26141319818362" x2="761" y2="478.31397208144131" />
    <line x1="761" y1="516.41908984795657" x2="772" y2="535.47164873121426" />
    <polyline points="772,535.47164873121415 761,554.52420761447183 772,573.57676649772952 761,592.62932538098721" />
    <line x1="761" y1="592.6293253809871" x2="772" y2="611.68188426424479" />
    <line x1="761" y1="668.83956091401774" x2="772" y2="687.89211979727543" />
    <line x1="772" y1="383.051177665153" x2="783" y2="402.10373654841067" />
    <line x1="783" y1="478.31397208144125" x2="772" y2="497.36653096469894" />
    <line x1="772" y1="497.36653096469888" x2="783" y2="516.41908984795657" />
    <line x1="772" y1="649.78700203076" x2="783" y2="668.83956091401774" />
    <line x1="772" y1="687.89211979727543" x2="783" y2="706.94467868053312" />
    <line x1="783" y1="706.944678680533" x2="772" y2="725.99723756379069" />
    <polyline points="772,764.102355330306 783,783.15491421356364 772,802.20747309682133 783,821.260031980079" />
    <line x1="783" y1="859.36514974659428" x2="772" y2="878.417708629852" />
    <line x1="772" y1="878.41770862985186" x2="783" y2="897.47026751310955" />
    <line x1="783" y1="402.10373654841067" x2="794" y2="421.15629543166835" />
    <line x1="783" y1="516.41908984795657" x2="794" y2="535.47164873121426" />
    <polyline points="794,535.47164873121415 783,554.52420761447183 794,573.57676649772952 783,592.62932538098721" />
    <line x1="783" y1="630.73444314750247" x2="794" y2="649.78700203076016" />
    <line x1="794" y1="649.78700203076" x2="783" y2="668.83956091401774" />
    <line x1="794" y1="687.89211979727543" x2="783" y2="706.94467868053312" />
    <line x1="783" y1="706.944678680533" x2="794" y2="725.99723756379069" />
    <line x1="783" y1="745.04979644704838" x2="794" y2="764.10235533030607" />
    <line x1="783" y1="821.26003198007891" x2="794" y2="840.3125908633366" />
    <line x1="794" y1="421.1562954316683" x2="805" y2="440.208854314926" />
    <line x1="794" y1="497.36653096469888" x2="805" y2="516.41908984795657" />
    <polyline points="805,592.6293253809871 794,611.68188426424479 805,630.73444314750247" />
    <line x1="794" y1="725.99723756379069" x2="805" y2="745.04979644704838" />
    <line x1="794" y1="802.20747309682133" x2="805" y2="821.260031980079" />
    <polyline points="794,840.3125908633366 805,859.36514974659428 794,878.417708629852" />
    <line x1="794" y1="878.41770862985186" x2="805" y2="897.47026751310955" />
    <line x1="805" y1="440.20885431492593" x2="816" y2="459.26141319818362" />
    <line x1="816" y1="497.36653096469888" x2="805" y2="516.41908984795657" />
    <line x1="816" y1="649.78700203076" x2="805" y2="668.83956091401774" />
    <line x1="805" y1="706.944678680533" x2="816" y2="725.99723756379069" />
    <line x1="805" y1="821.26003198007891" x2="816" y2="840.3125908633366" />
    <line x1="816" y1="459.26141319818362" x2="827" y2="478.31397208144131" />
    <line x1="827" y1="478.31397208144125" x2="816" y2="497.36653096469894" />
    <line x1="827" y1="516.41908984795657" x2="816" y2="535.47164873121426" />
    <line x1="816" y1="535.47164873121415" x2="827" y2="554.52420761447183" />
    <line x1="816" y1="611.68188426424479" x2="827" y2="630.73444314750247" />
    <line x1="816" y1="687.89211979727543" x2="827" y2="706.94467868053312" />
    <polyline points="816,725.99723756379069 827,745.04979644704838 816,764.10235533030607" />
    <line x1="827" y1="783.15491421356364" x2="816" y2="802.20747309682133" />
    <polyline points="816,840.3125908633366 827,859.36514974659428 816,878.417708629852" />
    <polyline points="816,878.41770862985186 827,897.47026751310955 816,916.52282639636724" />
    <line x1="827" y1="478.31397208144125" x2="838" y2="497.36653096469894" />
    <polyline points="827,554.52420761447183 838,573.57676649772952 827,592.62932538098721" />
    <line x1="827" y1="592.6293253809871" x2="838" y2="611.68188426424479" />
    <line x1="838" y1="802.20747309682133" x2="827" y2="821.260031980079" />
    <line x1="838" y1="916.52282639636724" x2="827" y2="935.57538527962492" />
    <line x1="827" y1="935.57538527962481" x2="838" y2="954.6279441628825" />
    <line x1="838" y1="497.36653096469888" x2="849" y2="516.41908984795657" />
    <polyline points="838,611.68188426424479 849,630.73444314750247 838,649.78700203076016" />
    <line x1="849" y1="745.04979644704838" x2="838" y2="764.10235533030607" />
    <line x1="849" y1="859.36514974659428" x2="838" y2="878.417708629852" />
    <line x1="838" y1="878.41770862985186" x2="849" y2="897.47026751310955" />
    <line x1="849" y1="516.41908984795657" x2="860" y2="535.47164873121426" />
    <line x1="849" y1="554.52420761447183" x2="860" y2="573.57676649772952" />
    <line x1="860" y1="649.78700203076" x2="849" y2="668.83956091401774" />
    <line x1="860" y1="725.99723756379069" x2="849" y2="745.04979644704838" />
    <polyline points="860,764.102355330306 849,783.15491421356364 860,802.20747309682133 849,821.260031980079" />
    <line x1="849" y1="821.26003198007891" x2="860" y2="840.3125908633366" />
    <polyline points="849,897.47026751310955 860,916.52282639636724 849,935.57538527962492" />
    <line x1="860" y1="535.47164873121415" x2="871" y2="554.52420761447183" />
    <line x1="860" y1="573.57676649772952" x2="871" y2="592.62932538098721" />
    <polyline points="860,611.68188426424479 871,630.73444314750247 860,649.78700203076016" />
    <line x1="871" y1="745.04979644704838" x2="860" y2="764.10235533030607" />
    <line x1="871" y1="859.36514974659428" x2="860" y2="878.417708629852" />
    <line x1="871" y1="554.52420761447183" x2="882" y2="573.57676649772952" />
    <line x1="871" y1="592.6293253809871" x2="882" y2="611.68188426424479" />
    <line x1="882" y1="687.89211979727543" x2="871" y2="706.94467868053312" />
    <polyline points="882,764.102355330306 871,783.15491421356364 882,802.20747309682133 871,821.260031980079" />
    <line x1="882" y1="840.3125908633366" x2="871" y2="859.36514974659428" />
    <line x1="882" y1="878.41770862985186" x2="871" y2="897.47026751310955" />
    <line x1="882" y1="573.57676649772952" x2="893" y2="592.62932538098721" />
    <polyline points="882,611.68188426424479 893,630.73444314750247 882,649.78700203076016" />
    <polyline points="882,649.78700203076 893,668.83956091401774 882,687.89211979727543" />
    <line x1="893" y1="706.944678680533" x2="882" y2="725.99723756379069" />
    <polyline points="893,897.47026751310955 882,916.52282639636724 893,935.57538527962492" />
    <line x1="893" y1="592.6293253809871" x2="904" y2="611.68188426424479" />
    <polyline points="904,725.99723756379069 893,745.04979644704838 904,764.10235533030607" />
    <polyline points="893,821.26003198007891 904,840.3125908633366 893,859.36514974659428" />
    <polyline points="904,611.68188426424479 915,630.73444314750247 904,649.78700203076016" />
    <polyline points="904,649.78700203076 915,668.83956091401774 904,687.89211979727543 915,706.94467868053312" />
    <line x1="915" y1="706.944678680533" x2="904" y2="725.99723756379069" />
    <line x1="904" y1="802.20747309682133" x2="915" y2="821.260031980079" />
    <line x1="915" y1="821.26003198007891" x2="904" y2="840.3125908633366" />
    <line x1="915" y1="859.36514974659428" x2="904" y2="878.417708629852" />
    <line x1="915" y1="630.73444314750247" x2="926" y2="649.78700203076016" />
    <line x1="915" y1="783.15491421356364" x2="926" y2="802.20747309682133" />
    <line x1="926" y1="840.3125908633366" x2="915" y2="859.36514974659428" />
    <line x1="926" y1="649.78700203076" x2="937" y2="668.83956091401774" />
    <line x1="926" y1="687.89211979727543" x2="937" y2="706.94467868053312" />
    <line x1="926" y1="802.20747309682133" x2="937" y2="821.260031980079" />
    <line x1="937" y1="821.26003198007891" x2="926" y2="840.3125908633366" />
    <line x1="937" y1="859.36514974659428" x2="926" y2="878.417708629852" />
    <line x1="937" y1="668.83956091401774" x2="948" y2="687.89211979727543" />
    <line x1="937" y1="706.944678680533" x2="948" y2="725.99723756379069" />
    <line x1="937" y1="745.04979644704838" x2="948" y2="764.10235533030607" />
    <polyline points="948,764.102355330306 937,783.15491421356364 948,802.20747309682133" />
    <line x1="937" y1="859.36514974659428" x2="948" y2="878.417708629852" />
    <line x1="948" y1="687.89211979727543" x2="959" y2="706.94467868053312" />
    <polyline points="948,725.99723756379069 959,745.04979644704838 948,764.10235533030607" />
    <line x1="948" y1="764.102355330306" x2="959" y2="783.15491421356364" />
    <line x1="948" y1="802.20747309682133" x2="959" y2="821.260031980079" />
    <line x1="959" y1="821.26003198007891" x2="948" y2="840.3125908633366" />
    <line x1="948" y1="878.41770862985186" x2="959" y2="897.47026751310955" />
    <line x1="959" y1="935.57538527962481" x2="948" y2="954.6279441628825" />
    <line x1="959" y1="706.944678680533" x2="970" y2="725.99723756379069" />
    <line x1="959" y1="783.15491421356364" x2="970" y2="802.20747309682133" />
    <polyline points="959,821.26003198007891 970,840.3125908633366 959,859.36514974659428" />
    <line x1="970" y1="916.52282639636724" x2="959" y2="935.57538527962492" />
    <polyline points="970,725.99723756379069 981,745.04979644704838 970,764.10235533030607" />
    <line x1="970" y1="802.20747309682133" x2="981" y2="821.260031980079" />
    <line x1="981" y1="935.57538527962481" x2="970" y2="954.6279441628825" />
    <line x1="981" y1="745.04979644704838" x2="992" y2="764.10235533030607" />
    <polyline points="981,821.26003198007891 992,840.3125908633366 981,859.36514974659428 992,878.417708629852" />
    <polyline points="992,764.102355330306 1003,783.15491421356364 992,802.20747309682133" />
    <polyline points="992,878.41770862985186 1003,897.47026751310955 992,916.52282639636724" />
    <polyline points="1003,783.15491421356364 1014,802.20747309682133 1003,821.260031980079" />
    <polyline points="1003,897.47026751310955 1014,916.52282639636724 1003,935.57538527962492" />
    <line x1="1014" y1="802.20747309682133" x2="1025" y2="821.260031980079" />
    <polyline points="1025,821.26003198007891 1036,840.3125908633366 1025,859.36514974659428" />
    <line x1="1036" y1="840.3125908633366" x2="1047" y2="859.36514974659428" />
    <line x1="1036" y1="878.41770862985186" x2="1047" y2="897.47026751310955" />
    <line x1="1047" y1="859.36514974659428" x2="1058" y2="878.417708629852" />
    <line x1="1047" y1="897.47026751310955" x2="1058" y2="916.52282639636724" />
    <polyline points="1058,878.41770862985186 1069,897.47026751310955 1080,916.52282639636724 1091,935.57538527962492" />
    <line x1="1091" y1="935.57538527962481" x2="1102" y2="954.6279441628825" />
  </g>
  <polyline fill="none" stroke="#ff0000" stroke-width="2" stroke-linecap="square" stroke-linejoin="round" points="271.5,487.84025152307009 277,497.36653096469888 255,535.47164873121426 260.5,544.997928172843 271.5,544.997928172843 299,497.36653096469888 288,478.31397208144125 293.5,468.78769263981246 304.5,468.78769263981246 326.5,506.89281040632773 359.5,506.89281040632773 365,497.36653096469888 359.5,487.84025152307009 337.5,487.84025152307009 310,440.208854314926 326.5,411.63001599003951 337.5,411.63001599003951 343,421.1562954316683 332,440.208854314926 348.5,468.78769263981246 370.5,468.78769263981246 381.5,487.84025152307009 425.5,487.84025152307009 436.5,506.89281040632773 458.5,506.89281040632773 480.5,544.997928172843 491.5,544.997928172843 502.5,525.94536928958541 513.5,525.94536928958541 519,535.47164873121426 502.5,564.05048705610068 480.5,564.05048705610068 464,592.62932538098721 480.5,621.20816370587363 513.5,621.20816370587363 519,611.68188426424479 513.5,602.15560482261594 491.5,602.15560482261594 486,592.62932538098721 491.5,583.10304593935837 513.5,583.10304593935837 524.5,564.05048705610068 568.5,564.05048705610068 585,535.47164873121426 574,516.41908984795657 579.5,506.89281040632773 590.5,506.89281040632773 607,535.47164873121426 574,592.62932538098721 579.5,602.15560482261594 590.5,602.15560482261594 623.5,544.997928172843 678.5,544.997928172843 689.5,564.05048705610068 722.5,564.05048705610068 728,554.52420761447183 717,535.47164873121426 722.5,525.94536928958541 733.5,525.94536928958541 744.5,544.997928172843 755.5,544.997928172843 761,535.47164873121426 750,516.41908984795657 777.5,468.78769263981246 810.5,468.78769263981246 816,478.31397208144125 810.5,487.84025152307009 788.5,487.84025152307009 783,497.36653096469888 799.5,525.94536928958541 810.5,525.94536928958541 821.5,506.89281040632773 832.5,506.89281040632773 838,516.41908984795657 827,535.47164873121426 832.5,544.997928172843 854.5,544.997928172843 904,630.73444314750247 893,649.78700203076 904,668.83956091401774 876.5,716.47095812216185 821.5,716.47095812216185 810.5,697.41839923890427 799.5,697.41839923890427 794,706.944678680533 816,745.04979644704838 810.5,754.57607588867722 799.5,754.57607588867722 788.5,735.52351700541954 744.5,735.52351700541954 739,725.99723756379069 744.5,716.47095812216185 766.5,716.47095812216185 772,706.944678680533 739,649.78700203076 750,630.73444314750247 744.5,621.20816370587363 733.5,621.20816370587363 706,668.83956091401774 717,687.89211979727543 711.5,697.41839923890427 689.5,697.41839923890427 667.5,735.52351700541954 656.5,735.52351700541954 623.5,678.36584035564658 601.5,678.36584035564658 596,668.83956091401774" />
  <type>Triangular</type>
</svg>