<?xml version="1.0" encoding="utf-8" standalone="no"?>
<!DOCTYPE svg PUBLIC "-//W3C//DTD SVG 1.1//EN" "http://www.w3.org/Graphics/SVG/1.1/DTD/svg11.dtd"[]>
<svg width="1104" height="956.6279441628825" version="1.1" xmlns="http://www.w3.org/2000/svg">
  <title>Triangular delta maze with 50 cells side</title>
  <g fill="none" stroke="#000000" stroke-width="2" stroke-linecap="round" stroke-linejoin="round">
    <line x1="552" y1="40.10511776651532" x2="574" y2="40.10511776651532" />
    <line x1="563" y1="59.157676649772966" x2="585" y2="59.157676649772966" />
    <line x1="497" y1="97.262794416288273" x2="541" y2="97.262794416288273" />
    <line x1="552" y1="116.31535329954592" x2="574" y2="116.31535329954592" />
    <line x1="541" y1="135.36791218280357" x2="585" y2="135.36791218280357" />
    <line x1="464" y1="154.42047106606123" x2="508" y2="154.42047106606123" />
    <line x1="552" y1="154.42047106606123" x2="574" y2="154.42047106606123" />
    <line x1="596" y1="154.42047106606123" x2="618" y2="154.42047106606123" />
    <line x1="475" y1="173.47302994931886" x2="519" y2="173.47302994931886" />
    <line x1="607" y1="173.47302994931886" x2="629" y2="173.47302994931886" />
    <line x1="530" y1="192.52558883257652" x2="552" y2="192.52558883257652" />
    <line x1="574" y1="192.52558883257652" x2="596" y2="192.52558883257652" />
    <line x1="618" y1="192.52558883257652" x2="640" y2="192.52558883257652" />
    <line x1="519" y1="211.57814771583418" x2="541" y2="211.57814771583418" />
    <line x1="464" y1="230.63070659909181" x2="486" y2="230.63070659909181" />
    <line x1="618" y1="230.63070659909181" x2="640" y2="230.63070659909181" />
    <line x1="453" y1="249.68326548234947" x2="519" y2="249.68326548234947" />
    <line x1="541" y1="249.68326548234947" x2="563" y2="249.68326548234947" />
    <line x1="607" y1="249.68326548234947" x2="651" y2="249.68326548234947" />
    <line x1="398" y1="268.73582436560713" x2="420" y2="268.73582436560713" />
    <line x1="464" y1="268.73582436560713" x2="486" y2="268.73582436560713" />
    <line x1="552" y1="268.73582436560713" x2="574" y2="268.73582436560713" />
    <line x1="618" y1="268.73582436560713" x2="640" y2="268.73582436560713" />
    <line x1="497" y1="287.78838324886476" x2="563" y2="287.78838324886476" />
    <line x1="651" y1="287.78838324886476" x2="673" y2="287.78838324886476" />
    <line x1="376" y1="306.84094213212239" x2="398" y2="306.84094213212239" />
    <line x1="464" y1="306.84094213212239" x2="486" y2="306.84094213212239" />
    <line x1="508" y1="306.84094213212239" x2="552" y2="306.84094213212239" />
    <line x1="640" y1="306.84094213212239" x2="662" y2="306.84094213212239" />
    <line x1="431" y1="325.89350101538008" x2="475" y2="325.89350101538008" />
    <line x1="442" y1="344.94605989863771" x2="464" y2="344.94605989863771" />
    <line x1="486" y1="344.94605989863771" x2="508" y2="344.94605989863771" />
    <line x1="552" y1="344.94605989863771" x2="574" y2="344.94605989863771" />
    <line x1="662" y1="344.94605989863771" x2="684" y2="344.94605989863771" />
    <line x1="431" y1="363.99861878189535" x2="453" y2="363.99861878189535" />
    <line x1="497" y1="363.99861878189535" x2="519" y2="363.99861878189535" />
    <line x1="673" y1="363.99861878189535" x2="717" y2="363.99861878189535" />
    <line x1="398" y1="383.05117766515303" x2="420" y2="383.05117766515303" />
    <line x1="508" y1="383.05117766515303" x2="530" y2="383.05117766515303" />
    <line x1="574" y1="383.05117766515303" x2="596" y2="383.05117766515303" />
    <line x1="640" y1="383.05117766515303" x2="684" y2="383.05117766515303" />
    <line x1="750" y1="383.05117766515303" x2="772" y2="383.05117766515303" />
    <line x1="343" y1="402.10373654841067" x2="387" y2="402.10373654841067" />
    <line x1="453" y1="402.10373654841067" x2="475" y2="402.10373654841067" />
    <line x1="497" y1="402.10373654841067" x2="541" y2="402.10373654841067" />
    <line x1="629" y1="402.10373654841067" x2="651" y2="402.10373654841067" />
    <line x1="310" y1="421.1562954316683" x2="332" y2="421.1562954316683" />
    <line x1="354" y1="421.1562954316683" x2="398" y2="421.1562954316683" />
    <line x1="442" y1="421.1562954316683" x2="464" y2="421.1562954316683" />
    <line x1="552" y1="421.1562954316683" x2="574" y2="421.1562954316683" />
    <line x1="684" y1="421.1562954316683" x2="706" y2="421.1562954316683" />
    <line x1="750" y1="421.1562954316683" x2="772" y2="421.1562954316683" />
    <line x1="387" y1="440.208854314926" x2="409" y2="440.208854314926" />
    <line x1="431" y1="440.208854314926" x2="453" y2="440.208854314926" />
    <line x1="519" y1="440.208854314926" x2="541" y2="440.208854314926" />
    <line x1="563" y1="440.208854314926" x2="585" y2="440.208854314926" />
    <line x1="695" y1="440.208854314926" x2="717" y2="440.208854314926" />
    <line x1="288" y1="459.26141319818362" x2="310" y2="459.26141319818362" />
    <line x1="684" y1="459.26141319818362" x2="706" y2="459.26141319818362" />
    <line x1="772" y1="459.26141319818362" x2="794" y2="459.26141319818362" />
    <line x1="299" y1="478.31397208144125" x2="321" y2="478.31397208144125" />
    <line x1="343" y1="478.31397208144125" x2="409" y2="478.31397208144125" />
    <line x1="541" y1="478.31397208144125" x2="563" y2="478.31397208144125" />
    <line x1="629" y1="478.31397208144125" x2="651" y2="478.31397208144125" />
    <line x1="761" y1="478.31397208144125" x2="783" y2="478.31397208144125" />
    <line x1="464" y1="497.36653096469888" x2="486" y2="497.36653096469888" />
    <line x1="530" y1="497.36653096469888" x2="552" y2="497.36653096469888" />
    <line x1="618" y1="497.36653096469888" x2="640" y2="497.36653096469888" />
    <line x1="277" y1="516.41908984795657" x2="299" y2="516.41908984795657" />
    <line x1="453" y1="516.41908984795657" x2="475" y2="516.41908984795657" />
    <line x1="497" y1="516.41908984795657" x2="541" y2="516.41908984795657" />
    <line x1="607" y1="516.41908984795657" x2="629" y2="516.41908984795657" />
    <line x1="739" y1="516.41908984795657" x2="761" y2="516.41908984795657" />
    <line x1="827" y1="516.41908984795657" x2="849" y2="516.41908984795657" />
    <line x1="266" y1="535.47164873121426" x2="288" y2="535.47164873121426" />
    <line x1="354" y1="535.47164873121426" x2="376" y2="535.47164873121426" />
    <line x1="398" y1="535.47164873121426" x2="420" y2="535.47164873121426" />
    <line x1="442" y1="535.47164873121426" x2="508" y2="535.47164873121426" />
    <line x1="530" y1="535.47164873121426" x2="596" y2="535.47164873121426" />
    <line x1="684" y1="535.47164873121426" x2="728" y2="535.47164873121426" />
    <line x1="772" y1="535.47164873121426" x2="794" y2="535.47164873121426" />
    <line x1="816" y1="535.47164873121426" x2="838" y2="535.47164873121426" />
    <line x1="277" y1="554.52420761447183" x2="321" y2="554.52420761447183" />
    <line x1="365" y1="554.52420761447183" x2="387" y2="554.52420761447183" />
    <line x1="409" y1="554.52420761447183" x2="453" y2="554.52420761447183" />
    <line x1="497" y1="554.52420761447183" x2="519" y2="554.52420761447183" />
    <line x1="563" y1="554.52420761447183" x2="607" y2="554.52420761447183" />
    <line x1="629" y1="554.52420761447183" x2="651" y2="554.52420761447183" />
    <line x1="673" y1="554.52420761447183" x2="739" y2="554.52420761447183" />
    <line x1="761" y1="554.52420761447183" x2="783" y2="554.52420761447183" />
    <line x1="827" y1="554.52420761447183" x2="871" y2="554.52420761447183" />
    <line x1="266" y1="573.57676649772952" x2="310" y2="573.57676649772952" />
    <line x1="332" y1="573.57676649772952" x2="376" y2="573.57676649772952" />
    <line x1="442" y1="573.57676649772952" x2="508" y2="573.57676649772952" />
    <line x1="552" y1="573.57676649772952" x2="596" y2="573.57676649772952" />
    <line x1="618" y1="573.57676649772952" x2="640" y2="573.57676649772952" />
    <line x1="662" y1="573.57676649772952" x2="684" y2="573.57676649772952" />
    <line x1="838" y1="573.57676649772952" x2="860" y2="573.57676649772952" />
    <line x1="233" y1="592.62932538098721" x2="255" y2="592.62932538098721" />
    <line x1="277" y1="592.62932538098721" x2="299" y2="592.62932538098721" />
    <line x1="343" y1="592.62932538098721" x2="365" y2="592.62932538098721" />
    <line x1="431" y1="592.62932538098721" x2="453" y2="592.62932538098721" />
    <line x1="497" y1="592.62932538098721" x2="519" y2="592.62932538098721" />
    <line x1="585" y1="592.62932538098721" x2="607" y2="592.62932538098721" />
    <line x1="629" y1="592.62932538098721" x2="673" y2="592.62932538098721" />
    <line x1="761" y1="592.62932538098721" x2="783" y2="592.62932538098721" />
    <line x1="849" y1="592.62932538098721" x2="893" y2="592.62932538098721" />
    <line x1="222" y1="611.68188426424479" x2="244" y2="611.68188426424479" />
    <line x1="288" y1="611.68188426424479" x2="310" y2="611.68188426424479" />
    <line x1="332" y1="611.68188426424479" x2="354" y2="611.68188426424479" />
    <line x1="376" y1="611.68188426424479" x2="398" y2="611.68188426424479" />
    <line x1="574" y1="611.68188426424479" x2="596" y2="611.68188426424479" />
    <line x1="706" y1="611.68188426424479" x2="728" y2="611.68188426424479" />
    <line x1="772" y1="611.68188426424479" x2="794" y2="611.68188426424479" />
    <line x1="882" y1="611.68188426424479" x2="904" y2="611.68188426424479" />
    <line x1="255" y1="630.73444314750247" x2="277" y2="630.73444314750247" />
    <line x1="299" y1="630.73444314750247" x2="343" y2="630.73444314750247" />
    <line x1="475" y1="630.73444314750247" x2="497" y2="630.73444314750247" />
    <line x1="629" y1="630.73444314750247" x2="673" y2="630.73444314750247" />
    <line x1="717" y1="630.73444314750247" x2="739" y2="630.73444314750247" />
    <line x1="761" y1="630.73444314750247" x2="805" y2="630.73444314750247" />
    <line x1="893" y1="630.73444314750247" x2="915" y2="630.73444314750247" />
    <line x1="200" y1="649.78700203076" x2="222" y2="649.78700203076" />
    <line x1="310" y1="649.78700203076" x2="332" y2="649.78700203076" />
    <line x1="618" y1="649.78700203076" x2="684" y2="649.78700203076" />
    <line x1="706" y1="649.78700203076" x2="728" y2="649.78700203076" />
    <line x1="772" y1="649.78700203076" x2="794" y2="649.78700203076" />
    <line x1="816" y1="649.78700203076" x2="838" y2="649.78700203076" />
    <line x1="860" y1="649.78700203076" x2="904" y2="649.78700203076" />
    <line x1="189" y1="668.83956091401774" x2="211" y2="668.83956091401774" />
    <line x1="255" y1="668.83956091401774" x2="299" y2="668.83956091401774" />
    <line x1="321" y1="668.83956091401774" x2="343" y2="668.83956091401774" />
    <line x1="365" y1="668.83956091401774" x2="387" y2="668.83956091401774" />
    <line x1="431" y1="668.83956091401774" x2="453" y2="668.83956091401774" />
    <line x1="497" y1="668.83956091401774" x2="585" y2="668.83956091401774" />
    <line x1="629" y1="668.83956091401774" x2="651" y2="668.83956091401774" />
    <line x1="673" y1="668.83956091401774" x2="695" y2="668.83956091401774" />
    <line x1="827" y1="668.83956091401774" x2="849" y2="668.83956091401774" />
    <line x1="893" y1="668.83956091401774" x2="915" y2="668.83956091401774" />
    <line x1="156" y1="687.89211979727543" x2="178" y2="687.89211979727543" />
    <line x1="222" y1="687.89211979727543" x2="266" y2="687.89211979727543" />
    <line x1="310" y1="687.89211979727543" x2="354" y2="687.89211979727543" />
    <line x1="376" y1="687.89211979727543" x2="398" y2="687.89211979727543" />
    <line x1="486" y1="687.89211979727543" x2="508" y2="687.89211979727543" />
    <line x1="552" y1="687.89211979727543" x2="574" y2="687.89211979727543" />
    <line x1="618" y1="687.89211979727543" x2="684" y2="687.89211979727543" />
    <line x1="882" y1="687.89211979727543" x2="926" y2="687.89211979727543" />
    <line x1="167" y1="706.944678680533" x2="189" y2="706.944678680533" />
    <line x1="299" y1="706.944678680533" x2="321" y2="706.944678680533" />
    <line x1="343" y1="706.944678680533" x2="365" y2="706.944678680533" />
    <line x1="409" y1="706.944678680533" x2="431" y2="706.944678680533" />
    <line x1="475" y1="706.944678680533" x2="497" y2="706.944678680533" />
    <line x1="541" y1="706.944678680533" x2="563" y2="706.944678680533" />
    <line x1="629" y1="706.944678680533" x2="695" y2="706.944678680533" />
    <line x1="717" y1="706.944678680533" x2="739" y2="706.944678680533" />
    <line x1="805" y1="706.944678680533" x2="849" y2="706.944678680533" />
    <line x1="134" y1="725.99723756379069" x2="178" y2="725.99723756379069" />
    <line x1="200" y1="725.99723756379069" x2="222" y2="725.99723756379069" />
    <line x1="288" y1="725.99723756379069" x2="310" y2="725.99723756379069" />
    <line x1="332" y1="725.99723756379069" x2="376" y2="725.99723756379069" />
    <line x1="442" y1="725.99723756379069" x2="486" y2="725.99723756379069" />
    <line x1="530" y1="725.99723756379069" x2="552" y2="725.99723756379069" />
    <line x1="596" y1="725.99723756379069" x2="618" y2="725.99723756379069" />
    <line x1="640" y1="725.99723756379069" x2="662" y2="725.99723756379069" />
    <line x1="728" y1="725.99723756379069" x2="750" y2="725.99723756379069" />
    <line x1="948" y1="725.99723756379069" x2="970" y2="725.99723756379069" />
    <line x1="123" y1="745.04979644704838" x2="145" y2="745.04979644704838" />
    <line x1="189" y1="745.04979644704838" x2="255" y2="745.04979644704838" />
    <line x1="299" y1="745.04979644704838" x2="321" y2="745.04979644704838" />
    <line x1="343" y1="745.04979644704838" x2="365" y2="745.04979644704838" />
    <line x1="409" y1="745.04979644704838" x2="431" y2="745.04979644704838" />
    <line x1="475" y1="745.04979644704838" x2="541" y2="745.04979644704838" />
    <line x1="585" y1="745.04979644704838" x2="607" y2="745.04979644704838" />
    <line x1="629" y1="745.04979644704838" x2="651" y2="745.04979644704838" />
    <line x1="717" y1="745.04979644704838" x2="739" y2="745.04979644704838" />
    <line x1="827" y1="745.04979644704838" x2="849" y2="745.04979644704838" />
    <line x1="915" y1="745.04979644704838" x2="937" y2="745.04979644704838" />
    <line x1="134" y1="764.102355330306" x2="156" y2="764.102355330306" />
    <line x1="222" y1="764.102355330306" x2="244" y2="764.102355330306" />
    <line x1="266" y1="764.102355330306" x2="288" y2="764.102355330306" />
    <line x1="310" y1="764.102355330306" x2="354" y2="764.102355330306" />
    <line x1="376" y1="764.102355330306" x2="420" y2="764.102355330306" />
    <line x1="464" y1="764.102355330306" x2="486" y2="764.102355330306" />
    <line x1="552" y1="764.102355330306" x2="596" y2="764.102355330306" />
    <line x1="618" y1="764.102355330306" x2="662" y2="764.102355330306" />
    <line x1="750" y1="764.102355330306" x2="772" y2="764.102355330306" />
    <line x1="816" y1="764.102355330306" x2="860" y2="764.102355330306" />
    <line x1="882" y1="764.102355330306" x2="948" y2="764.102355330306" />
    <line x1="123" y1="783.15491421356364" x2="167" y2="783.15491421356364" />
    <line x1="255" y1="783.15491421356364" x2="299" y2="783.15491421356364" />
    <line x1="343" y1="783.15491421356364" x2="365" y2="783.15491421356364" />
    <line x1="387" y1="783.15491421356364" x2="409" y2="783.15491421356364" />
    <line x1="453" y1="783.15491421356364" x2="497" y2="783.15491421356364" />
    <line x1="629" y1="783.15491421356364" x2="651" y2="783.15491421356364" />
    <line x1="717" y1="783.15491421356364" x2="739" y2="783.15491421356364" />
    <line x1="805" y1="783.15491421356364" x2="849" y2="783.15491421356364" />
    <line x1="981" y1="783.15491421356364" x2="1003" y2="783.15491421356364" />
    <line x1="134" y1="802.20747309682133" x2="156" y2="802.20747309682133" />
    <line x1="178" y1="802.20747309682133" x2="310" y2="802.20747309682133" />
    <line x1="420" y1="802.20747309682133" x2="442" y2="802.20747309682133" />
    <line x1="464" y1="802.20747309682133" x2="508" y2="802.20747309682133" />
    <line x1="618" y1="802.20747309682133" x2="640" y2="802.20747309682133" />
    <line x1="684" y1="802.20747309682133" x2="706" y2="802.20747309682133" />
    <line x1="816" y1="802.20747309682133" x2="838" y2="802.20747309682133" />
    <line x1="860" y1="802.20747309682133" x2="882" y2="802.20747309682133" />
    <line x1="926" y1="802.20747309682133" x2="948" y2="802.20747309682133" />
    <line x1="101" y1="821.26003198007891" x2="123" y2="821.26003198007891" />
    <line x1="145" y1="821.26003198007891" x2="167" y2="821.26003198007891" />
    <line x1="189" y1="821.26003198007891" x2="255" y2="821.26003198007891" />
    <line x1="299" y1="821.26003198007891" x2="365" y2="821.26003198007891" />
    <line x1="453" y1="821.26003198007891" x2="497" y2="821.26003198007891" />
    <line x1="827" y1="821.26003198007891" x2="849" y2="821.26003198007891" />
    <line x1="893" y1="821.26003198007891" x2="915" y2="821.26003198007891" />
    <line x1="959" y1="821.26003198007891" x2="1003" y2="821.26003198007891" />
    <line x1="68" y1="840.3125908633366" x2="112" y2="840.3125908633366" />
    <line x1="178" y1="840.3125908633366" x2="200" y2="840.3125908633366" />
    <line x1="222" y1="840.3125908633366" x2="244" y2="840.3125908633366" />
    <line x1="288" y1="840.3125908633366" x2="354" y2="840.3125908633366" />
    <line x1="464" y1="840.3125908633366" x2="530" y2="840.3125908633366" />
    <line x1="574" y1="840.3125908633366" x2="596" y2="840.3125908633366" />
    <line x1="640" y1="840.3125908633366" x2="662" y2="840.3125908633366" />
    <line x1="816" y1="840.3125908633366" x2="860" y2="840.3125908633366" />
    <line x1="882" y1="840.3125908633366" x2="926" y2="840.3125908633366" />
    <line x1="948" y1="840.3125908633366" x2="970" y2="840.3125908633366" />
    <line x1="145" y1="859.36514974659428" x2="167" y2="859.36514974659428" />
    <line x1="189" y1="859.36514974659428" x2="211" y2="859.36514974659428" />
    <line x1="365" y1="859.36514974659428" x2="387" y2="859.36514974659428" />
    <line x1="453" y1="859.36514974659428" x2="541" y2="859.36514974659428" />
    <line x1="563" y1="859.36514974659428" x2="585" y2="859.36514974659428" />
    <line x1="805" y1="859.36514974659428" x2="827" y2="859.36514974659428" />
    <line x1="893" y1="859.36514974659428" x2="937" y2="859.36514974659428" />
    <line x1="981" y1="859.36514974659428" x2="1025" y2="859.36514974659428" />
    <line x1="332" y1="878.41770862985186" x2="354" y2="878.41770862985186" />
    <line x1="486" y1="878.41770862985186" x2="640" y2="878.41770862985186" />
    <line x1="662" y1="878.41770862985186" x2="706" y2="878.41770862985186" />
    <line x1="728" y1="878.41770862985186" x2="816" y2="878.41770862985186" />
    <line x1="882" y1="878.41770862985186" x2="970" y2="878.41770862985186" />
    <line x1="992" y1="878.41770862985186" x2="1036" y2="878.41770862985186" />
    <line x1="57" y1="897.47026751310955" x2="79" y2="897.47026751310955" />
    <line x1="101" y1="897.47026751310955" x2="123" y2="897.47026751310955" />
    <line x1="453" y1="897.47026751310955" x2="475" y2="897.47026751310955" />
    <line x1="497" y1="897.47026751310955" x2="519" y2="897.47026751310955" />
    <line x1="563" y1="897.47026751310955" x2="607" y2="897.47026751310955" />
    <line x1="629" y1="897.47026751310955" x2="695" y2="897.47026751310955" />
    <line x1="739" y1="897.47026751310955" x2="783" y2="897.47026751310955" />
    <line x1="849" y1="897.47026751310955" x2="915" y2="897.47026751310955" />
    <line x1="959" y1="897.47026751310955" x2="1069" y2="897.47026751310955" />
    <line x1="112" y1="916.52282639636724" x2="134" y2="916.52282639636724" />
    <line x1="156" y1="916.52282639636724" x2="178" y2="916.52282639636724" />
    <line x1="222" y1="916.52282639636724" x2="266" y2="916.52282639636724" />
    <line x1="420" y1="916.52282639636724" x2="442" y2="916.52282639636724" />
    <line x1="530" y1="916.52282639636724" x2="552" y2="916.52282639636724" />
    <line x1="574" y1="916.52282639636724" x2="596" y2="916.52282639636724" />
    <line x1="640" y1="916.52282639636724" x2="728" y2="916.52282639636724" />
    <line x1="750" y1="916.52282639636724" x2="772" y2="916.52282639636724" />
    <line x1="838" y1="916.52282639636724" x2="860" y2="916.52282639636724" />
    <line x1="1014" y1="916.52282639636724" x2="1080" y2="916.52282639636724" />
    <line x1="123" y1="935.57538527962481" x2="145" y2="935.57538527962481" />
    <line x1="189" y1="935.57538527962481" x2="255" y2="935.57538527962481" />
    <line x1="387" y1="935.57538527962481" x2="431" y2="935.57538527962481" />
    <line x1="519" y1="935.57538527962481" x2="541" y2="935.57538527962481" />
    <line x1="563" y1="935.57538527962481" x2="585" y2="935.57538527962481" />
    <line x1="651" y1="935.57538527962481" x2="673" y2="935.57538527962481" />
    <line x1="695" y1="935.57538527962481" x2="739" y2="935.57538527962481" />
    <line x1="805" y1="935.57538527962481" x2="849" y2="935.57538527962481" />
    <line x1="937" y1="935.57538527962481" x2="959" y2="935.57538527962481" />
    <line x1="981" y1="935.57538527962481" x2="1025" y2="935.57538527962481" />
    <polyline points="1102,954.6279441628825 2,954.6279441628825 13,935.57538527962481" />
    <polyline points="13,935.57538527962492 24,916.52282639636724 35,897.47026751310955" />
    <line x1="35" y1="935.57538527962481" x2="24" y2="954.6279441628825" />
    <line x1="46" y1="878.41770862985186" x2="35" y2="897.47026751310955" />
    <line x1="57" y1="859.36514974659428" x2="46" y2="878.417708629852" />
    <polyline points="46,878.41770862985186 57,897.47026751310955 46,916.52282639636724" />
    <line x1="68" y1="840.3125908633366" x2="57" y2="859.36514974659428" />
    <line x1="68" y1="916.52282639636724" x2="57" y2="935.57538527962492" />
    <line x1="79" y1="821.26003198007891" x2="68" y2="840.3125908633366" />
    <line x1="79" y1="859.36514974659428" x2="68" y2="878.417708629852" />
    <line x1="68" y1="916.52282639636724" x2="79" y2="935.57538527962492" />
    <line x1="79" y1="935.57538527962481" x2="68" y2="954.6279441628825" />
    <line x1="90" y1="802.20747309682133" x2="79" y2="821.260031980079" />
    <line x1="79" y1="859.36514974659428" x2="90" y2="878.417708629852" />
    <line x1="90" y1="878.41770862985186" x2="79" y2="897.47026751310955" />
    <line x1="101" y1="783.15491421356364" x2="90" y2="802.20747309682133" />
    <line x1="90" y1="840.3125908633366" x2="101" y2="859.36514974659428" />
    <line x1="101" y1="897.47026751310955" x2="90" y2="916.52282639636724" />
    <line x1="101" y1="935.57538527962481" x2="90" y2="954.6279441628825" />
    <line x1="112" y1="764.102355330306" x2="101" y2="783.15491421356364" />
    <line x1="112" y1="802.20747309682133" x2="101" y2="821.260031980079" />
    <line x1="112" y1="916.52282639636724" x2="101" y2="935.57538527962492" />
    <line x1="123" y1="745.04979644704838" x2="112" y2="764.10235533030607" />
    <line x1="123" y1="783.15491421356364" x2="112" y2="802.20747309682133" />
    <polyline points="112,840.3125908633366 123,859.36514974659428 112,878.417708629852" />
    <line x1="134" y1="725.99723756379069" x2="123" y2="745.04979644704838" />
    <line x1="134" y1="802.20747309682133" x2="123" y2="821.260031980079" />
    <line x1="123" y1="821.26003198007891" x2="134" y2="840.3125908633366" />
    <line x1="123" y1="897.47026751310955" x2="134" y2="916.52282639636724" />
    <line x1="145" y1="706.944678680533" x2="134" y2="725.99723756379069" />
    <polyline points="134,840.3125908633366 145,859.36514974659428 134,878.417708629852" />
    <line x1="134" y1="878.41770862985186" x2="145" y2="897.47026751310955" />
    <line x1="156" y1="687.89211979727543" x2="145" y2="706.94467868053312" />
    <line x1="145" y1="821.26003198007891" x2="156" y2="840.3125908633366" />
    <polyline points="156,878.41770862985186 145,897.47026751310955 156,916.52282639636724 145,935.57538527962492" />
    <line x1="167" y1="668.83956091401774" x2="156" y2="687.89211979727543" />
    <line x1="167" y1="745.04979644704838" x2="156" y2="764.10235533030607" />
    <line x1="167" y1="935.57538527962481" x2="156" y2="954.6279441628825" />
    <line x1="178" y1="649.78700203076" x2="167" y2="668.83956091401774" />
    <line x1="167" y1="745.04979644704838" x2="178" y2="764.10235533030607" />
    <polyline points="178,764.102355330306 167,783.15491421356364 178,802.20747309682133 167,821.260031980079" />
    <line x1="167" y1="821.26003198007891" x2="178" y2="840.3125908633366" />
    <line x1="178" y1="878.41770862985186" x2="167" y2="897.47026751310955" />
    <line x1="189" y1="630.73444314750247" x2="178" y2="649.78700203076016" />
    <line x1="178" y1="649.78700203076" x2="189" y2="668.83956091401774" />
    <line x1="178" y1="725.99723756379069" x2="189" y2="745.04979644704838" />
    <polyline points="178,840.3125908633366 189,859.36514974659428 178,878.417708629852" />
    <line x1="178" y1="878.41770862985186" x2="189" y2="897.47026751310955" />
    <line x1="178" y1="916.52282639636724" x2="189" y2="935.57538527962492" />
    <line x1="200" y1="611.68188426424479" x2="189" y2="630.73444314750247" />
    <line x1="200" y1="687.89211979727543" x2="189" y2="706.94467868053312" />
    <line x1="189" y1="706.944678680533" x2="200" y2="725.99723756379069" />
    <line x1="189" y1="745.04979644704838" x2="200" y2="764.10235533030607" />
    <line x1="200" y1="764.102355330306" x2="189" y2="783.15491421356364" />
    <line x1="189" y1="897.47026751310955" x2="200" y2="916.52282639636724" />
    <polyline points="211,592.6293253809871 200,611.68188426424479 211,630.73444314750247" />
    <line x1="211" y1="783.15491421356364" x2="200" y2="802.20747309682133" />
    <line x1="200" y1="878.41770862985186" x2="211" y2="897.47026751310955" />
    <line x1="222" y1="573.57676649772952" x2="211" y2="592.62932538098721" />
    <line x1="211" y1="592.6293253809871" x2="222" y2="611.68188426424479" />
    <polyline points="211,668.83956091401774 222,687.89211979727543 211,706.94467868053312" />
    <line x1="211" y1="706.944678680533" x2="222" y2="725.99723756379069" />
    <polyline points="211,821.26003198007891 222,840.3125908633366 211,859.36514974659428" />
    <line x1="211" y1="897.47026751310955" x2="222" y2="916.52282639636724" />
    <line x1="233" y1="554.52420761447183" x2="222" y2="573.57676649772952" />
    <polyline points="222,611.68188426424479 233,630.73444314750247 222,649.78700203076016" />
    <line x1="222" y1="649.78700203076" x2="233" y2="668.83956091401774" />
    <line x1="222" y1="764.102355330306" x2="233" y2="783.15491421356364" />
    <line x1="233" y1="859.36514974659428" x2="222" y2="878.417708629852" />
    <line x1="222" y1="878.41770862985186" x2="233" y2="897.47026751310955" />
    <polyline points="244,535.47164873121415 233,554.52420761447183 244,573.57676649772952" />
    <line x1="233" y1="706.944678680533" x2="244" y2="725.99723756379069" />
    <polyline points="244,878.41770862985186 233,897.47026751310955 244,916.52282639636724" />
    <line x1="255" y1="516.41908984795657" x2="244" y2="535.47164873121426" />
    <polyline points="244,611.68188426424479 255,630.73444314750247 244,649.78700203076016" />
    <line x1="244" y1="725.99723756379069" x2="255" y2="745.04979644704838" />
    <line x1="244" y1="764.102355330306" x2="255" y2="783.15491421356364" />
    <line x1="255" y1="859.36514974659428" x2="244" y2="878.417708629852" />
    <line x1="266" y1="497.36653096469888" x2="255" y2="516.41908984795657" />
    <polyline points="266,535.47164873121415 255,554.52420761447183 266,573.57676649772952 255,592.62932538098721" />
    <line x1="255" y1="592.6293253809871" x2="266" y2="611.68188426424479" />
    <line x1="266" y1="649.78700203076" x2="255" y2="668.83956091401774" />
    <line x1="255" y1="706.944678680533" x2="266" y2="725.99723756379069" />
    <line x1="255" y1="745.04979644704838" x2="266" y2="764.10235533030607" />
    <polyline points="255,821.26003198007891 266,840.3125908633366 255,859.36514974659428" />
    <line x1="266" y1="878.41770862985186" x2="255" y2="897.47026751310955" />
    <line x1="255" y1="935.57538527962481" x2="266" y2="954.6279441628825" />
    <line x1="266" y1="687.89211979727543" x2="277" y2="706.94467868053312" />
    <polyline points="277,706.944678680533 266,725.99723756379069 277,745.04979644704838" />
    <line x1="277" y1="859.36514974659428" x2="266" y2="878.417708629852" />
    <polyline points="277,897.47026751310955 266,916.52282639636724 277,935.57538527962492" />
    <line x1="288" y1="459.26141319818362" x2="277" y2="478.31397208144131" />
    <polyline points="277,592.6293253809871 288,611.68188426424479 277,630.73444314750247 288,649.78700203076016" />
    <line x1="288" y1="649.78700203076" x2="277" y2="668.83956091401774" />
    <line x1="288" y1="687.89211979727543" x2="277" y2="706.94467868053312" />
    <line x1="288" y1="802.20747309682133" x2="277" y2="821.260031980079" />
    <polyline points="277,821.26003198007891 288,840.3125908633366 277,859.36514974659428" />
    <line x1="288" y1="878.41770862985186" x2="277" y2="897.47026751310955" />
    <line x1="299" y1="440.20885431492593" x2="288" y2="459.26141319818362" />
    <line x1="299" y1="478.31397208144125" x2="288" y2="497.36653096469894" />
    <line x1="299" y1="516.41908984795657" x2="288" y2="535.47164873121426" />
    <line x1="299" y1="706.944678680533" x2="288" y2="725.99723756379069" />
    <line x1="299" y1="745.04979644704838" x2="288" y2="764.10235533030607" />
    <line x1="299" y1="859.36514974659428" x2="288" y2="878.417708629852" />
    <polyline points="299,897.47026751310955 288,916.52282639636724 299,935.57538527962492" />
    <line x1="310" y1="421.1562954316683" x2="299" y2="440.208854314926" />
    <line x1="310" y1="497.36653096469888" x2="299" y2="516.41908984795657" />
    <line x1="310" y1="535.47164873121415" x2="299" y2="554.52420761447183" />
    <polyline points="310,649.78700203076 299,668.83956091401774 310,687.89211979727543" />
    <line x1="310" y1="764.102355330306" x2="299" y2="783.15491421356364" />
    <line x1="310" y1="878.41770862985186" x2="299" y2="897.47026751310955" />
    <line x1="321" y1="402.10373654841067" x2="310" y2="421.15629543166835" />
    <line x1="321" y1="440.20885431492593" x2="310" y2="459.26141319818362" />
    <line x1="321" y1="516.41908984795657" x2="310" y2="535.47164873121426" />
    <line x1="310" y1="573.57676649772952" x2="321" y2="592.62932538098721" />
    <line x1="321" y1="783.15491421356364" x2="310" y2="802.20747309682133" />
    <line x1="321" y1="859.36514974659428" x2="310" y2="878.417708629852" />
    <polyline points="321,897.47026751310955 310,916.52282639636724 321,935.57538527962492" />
    <line x1="321" y1="935.57538527962481" x2="310" y2="954.6279441628825" />
    <line x1="332" y1="383.051177665153" x2="321" y2="402.10373654841067" />
    <line x1="332" y1="459.26141319818362" x2="321" y2="478.31397208144131" />
    <polyline points="332,535.47164873121415 321,554.52420761447183 332,573.57676649772952" />
    <polyline points="321,592.6293253809871 332,611.68188426424479 321,630.73444314750247" />
    <polyline points="321,706.944678680533 332,725.99723756379069 321,745.04979644704838" />
    <line x1="332" y1="764.102355330306" x2="321" y2="783.15491421356364" />
    <line x1="332" y1="802.20747309682133" x2="321" y2="821.260031980079" />
    <line x1="321" y1="859.36514974659428" x2="332" y2="878.417708629852" />
    <line x1="332" y1="878.41770862985186" x2="321" y2="897.47026751310955" />
    <line x1="343" y1="363.99861878189535" x2="332" y2="383.05117766515303" />
    <line x1="343" y1="402.10373654841067" x2="332" y2="421.15629543166835" />
    <line x1="332" y1="421.1562954316683" x2="343" y2="440.208854314926" />
    <polyline points="343,440.20885431492593 332,459.26141319818362 343,478.31397208144131" />
    <line x1="343" y1="478.31397208144125" x2="332" y2="497.36653096469894" />
    <polyline points="332,497.36653096469888 343,516.41908984795657 332,535.47164873121426" />
    <line x1="332" y1="649.78700203076" x2="343" y2="668.83956091401774" />
    <line x1="332" y1="840.3125908633366" x2="343" y2="859.36514974659428" />
    <polyline points="343,897.47026751310955 332,916.52282639636724 343,935.57538527962492" />
    <line x1="343" y1="935.57538527962481" x2="332" y2="954.6279441628825" />
    <line x1="354" y1="344.94605989863771" x2="343" y2="363.9986187818954" />
    <line x1="343" y1="440.20885431492593" x2="354" y2="459.26141319818362" />
    <line x1="343" y1="554.52420761447183" x2="354" y2="573.57676649772952" />
    <line x1="343" y1="783.15491421356364" x2="354" y2="802.20747309682133" />
    <line x1="365" y1="325.89350101538" x2="354" y2="344.94605989863771" />
    <line x1="365" y1="363.99861878189535" x2="354" y2="383.05117766515303" />
    <line x1="354" y1="383.051177665153" x2="365" y2="402.10373654841067" />
    <line x1="365" y1="478.31397208144125" x2="354" y2="497.36653096469894" />
    <polyline points="354,497.36653096469888 365,516.41908984795657 354,535.47164873121426" />
    <line x1="354" y1="611.68188426424479" x2="365" y2="630.73444314750247" />
    <polyline points="354,649.78700203076 365,668.83956091401774 354,687.89211979727543" />
    <line x1="365" y1="821.26003198007891" x2="354" y2="840.3125908633366" />
    <line x1="365" y1="859.36514974659428" x2="354" y2="878.417708629852" />
    <polyline points="365,897.47026751310955 354,916.52282639636724 365,935.57538527962492" />
    <line x1="376" y1="306.84094213212239" x2="365" y2="325.89350101538008" />
    <line x1="376" y1="344.94605989863771" x2="365" y2="363.9986187818954" />
    <line x1="365" y1="440.20885431492593" x2="376" y2="459.26141319818362" />
    <line x1="376" y1="573.57676649772952" x2="365" y2="592.62932538098721" />
    <polyline points="376,611.68188426424479 365,630.73444314750247 376,649.78700203076016" />
    <line x1="376" y1="687.89211979727543" x2="365" y2="706.94467868053312" />
    <line x1="365" y1="745.04979644704838" x2="376" y2="764.10235533030607" />
    <polyline points="376,764.102355330306 365,783.15491421356364 376,802.20747309682133 365,821.260031980079" />
    <line x1="376" y1="840.3125908633366" x2="365" y2="859.36514974659428" />
    <line x1="365" y1="935.57538527962481" x2="376" y2="954.6279441628825" />
    <line x1="387" y1="287.78838324886476" x2="376" y2="306.84094213212245" />
    <line x1="387" y1="325.89350101538" x2="376" y2="344.94605989863771" />
    <line x1="387" y1="363.99861878189535" x2="376" y2="383.05117766515303" />
    <line x1="376" y1="459.26141319818362" x2="387" y2="478.31397208144131" />
    <line x1="376" y1="497.36653096469888" x2="387" y2="516.41908984795657" />
    <line x1="387" y1="592.6293253809871" x2="376" y2="611.68188426424479" />
    <polyline points="387,706.944678680533 376,725.99723756379069 387,745.04979644704838" />
    <line x1="387" y1="821.26003198007891" x2="376" y2="840.3125908633366" />
    <polyline points="376,878.41770862985186 387,897.47026751310955 376,916.52282639636724 387,935.57538527962492" />
    <line x1="398" y1="268.73582436560707" x2="387" y2="287.78838324886476" />
    <line x1="398" y1="344.94605989863771" x2="387" y2="363.9986187818954" />
    <polyline points="398,383.051177665153 387,402.10373654841067 398,421.15629543166835" />
    <line x1="387" y1="440.20885431492593" x2="398" y2="459.26141319818362" />
    <line x1="387" y1="478.31397208144125" x2="398" y2="497.36653096469894" />
    <line x1="387" y1="516.41908984795657" x2="398" y2="535.47164873121426" />
    <polyline points="387,554.52420761447183 398,573.57676649772952 387,592.62932538098721" />
    <line x1="387" y1="630.73444314750247" x2="398" y2="649.78700203076016" />
    <polyline points="398,649.78700203076 387,668.83956091401774 398,687.89211979727543" />
    <polyline points="398,840.3125908633366 387,859.36514974659428 398,878.417708629852" />
    <line x1="409" y1="249.68326548234947" x2="398" y2="268.73582436560713" />
    <line x1="398" y1="306.84094213212239" x2="409" y2="325.89350101538008" />
    <line x1="409" y1="325.89350101538" x2="398" y2="344.94605989863771" />
    <line x1="398" y1="497.36653096469888" x2="409" y2="516.41908984795657" />
    <polyline points="409,554.52420761447183 398,573.57676649772952 409,592.62932538098721" />
    <line x1="398" y1="611.68188426424479" x2="409" y2="630.73444314750247" />
    <line x1="398" y1="687.89211979727543" x2="409" y2="706.94467868053312" />
    <line x1="409" y1="706.944678680533" x2="398" y2="725.99723756379069" />
    <line x1="398" y1="802.20747309682133" x2="409" y2="821.260031980079" />
    <line x1="409" y1="859.36514974659428" x2="398" y2="878.417708629852" />
    <polyline points="398,878.41770862985186 409,897.47026751310955 398,916.52282639636724" />
    <line x1="420" y1="230.63070659909184" x2="409" y2="249.68326548234947" />
    <line x1="409" y1="287.78838324886476" x2="420" y2="306.84094213212245" />
    <line x1="409" y1="363.99861878189535" x2="420" y2="383.05117766515303" />
    <line x1="409" y1="402.10373654841067" x2="420" y2="421.15629543166835" />
    <line x1="420" y1="421.1562954316683" x2="409" y2="440.208854314926" />
    <polyline points="409,440.20885431492593 420,459.26141319818362 409,478.31397208144131" />
    <line x1="409" y1="592.6293253809871" x2="420" y2="611.68188426424479" />
    <line x1="409" y1="630.73444314750247" x2="420" y2="649.78700203076016" />
    <polyline points="420,649.78700203076 409,668.83956091401774 420,687.89211979727543" />
    <line x1="420" y1="725.99723756379069" x2="409" y2="745.04979644704838" />
    <line x1="409" y1="783.15491421356364" x2="420" y2="802.20747309682133" />
    <line x1="409" y1="821.26003198007891" x2="420" y2="840.3125908633366" />
    <line x1="420" y1="916.52282639636724" x2="409" y2="935.57538527962492" />
    <line x1="431" y1="211.57814771583418" x2="420" y2="230.63070659909181" />
    <line x1="420" y1="230.63070659909184" x2="431" y2="249.68326548234947" />
    <line x1="420" y1="268.73582436560707" x2="431" y2="287.78838324886476" />
    <line x1="420" y1="306.84094213212239" x2="431" y2="325.89350101538008" />
    <polyline points="431,325.89350101538 420,344.94605989863771 431,363.9986187818954" />
    <line x1="431" y1="402.10373654841067" x2="420" y2="421.15629543166835" />
    <polyline points="431,440.20885431492593 420,459.26141319818362 431,478.31397208144131" />
    <line x1="431" y1="478.31397208144125" x2="420" y2="497.36653096469894" />
    <polyline points="420,497.36653096469888 431,516.41908984795657 420,535.47164873121426" />
    <line x1="420" y1="535.47164873121415" x2="431" y2="554.52420761447183" />
    <line x1="420" y1="573.57676649772952" x2="431" y2="592.62932538098721" />
    <line x1="420" y1="611.68188426424479" x2="431" y2="630.73444314750247" />
    <line x1="431" y1="668.83956091401774" x2="420" y2="687.89211979727543" />
    <line x1="420" y1="764.102355330306" x2="431" y2="783.15491421356364" />
    <polyline points="431,821.26003198007891 420,840.3125908633366 431,859.36514974659428 420,878.417708629852" />
    <polyline points="420,878.41770862985186 431,897.47026751310955 420,916.52282639636724" />
    <line x1="442" y1="192.52558883257652" x2="431" y2="211.57814771583415" />
    <line x1="431" y1="287.78838324886476" x2="442" y2="306.84094213212245" />
    <line x1="431" y1="630.73444314750247" x2="442" y2="649.78700203076016" />
    <polyline points="431,706.944678680533 442,725.99723756379069 431,745.04979644704838 442,764.10235533030607" />
    <line x1="453" y1="173.47302994931889" x2="442" y2="192.52558883257652" />
    <line x1="442" y1="230.63070659909184" x2="453" y2="249.68326548234947" />
    <line x1="442" y1="268.73582436560707" x2="453" y2="287.78838324886476" />
    <line x1="442" y1="306.84094213212239" x2="453" y2="325.89350101538008" />
    <line x1="442" y1="383.051177665153" x2="453" y2="402.10373654841067" />
    <line x1="442" y1="459.26141319818362" x2="453" y2="478.31397208144131" />
    <line x1="453" y1="478.31397208144125" x2="442" y2="497.36653096469894" />
    <polyline points="442,497.36653096469888 453,516.41908984795657 442,535.47164873121426" />
    <polyline points="453,592.6293253809871 442,611.68188426424479 453,630.73444314750247" />
    <line x1="442" y1="687.89211979727543" x2="453" y2="706.94467868053312" />
    <polyline points="442,764.102355330306 453,783.15491421356364 442,802.20747309682133 453,821.260031980079" />
    <line x1="453" y1="821.26003198007891" x2="442" y2="840.3125908633366" />
    <polyline points="442,878.41770862985186 453,897.47026751310955 442,916.52282639636724 453,935.57538527962492" />
    <line x1="464" y1="154.42047106606123" x2="453" y2="173.47302994931886" />
    <polyline points="453,173.47302994931889 464,192.52558883257652 453,211.57814771583415" />
    <line x1="453" y1="211.57814771583418" x2="464" y2="230.63070659909181" />
    <line x1="453" y1="287.78838324886476" x2="464" y2="306.84094213212245" />
    <line x1="464" y1="344.94605989863771" x2="453" y2="363.9986187818954" />
    <line x1="464" y1="421.1562954316683" x2="453" y2="440.208854314926" />
    <line x1="453" y1="554.52420761447183" x2="464" y2="573.57676649772952" />
    <line x1="453" y1="630.73444314750247" x2="464" y2="649.78700203076016" />
    <line x1="464" y1="649.78700203076" x2="453" y2="668.83956091401774" />
    <line x1="453" y1="706.944678680533" x2="464" y2="725.99723756379069" />
    <line x1="453" y1="745.04979644704838" x2="464" y2="764.10235533030607" />
    <line x1="453" y1="859.36514974659428" x2="464" y2="878.417708629852" />
    <line x1="475" y1="135.36791218280357" x2="464" y2="154.4204710660612" />
    <line x1="464" y1="268.73582436560707" x2="475" y2="287.78838324886476" />
    <line x1="475" y1="363.99861878189535" x2="464" y2="383.05117766515303" />
    <line x1="464" y1="383.051177665153" x2="475" y2="402.10373654841067" />
    <polyline points="475,440.20885431492593 464,459.26141319818362 475,478.31397208144131" />
    <line x1="464" y1="573.57676649772952" x2="475" y2="592.62932538098721" />
    <polyline points="475,592.6293253809871 464,611.68188426424479 475,630.73444314750247" />
    <line x1="464" y1="687.89211979727543" x2="475" y2="706.94467868053312" />
    <line x1="464" y1="916.52282639636724" x2="475" y2="935.57538527962492" />
    <line x1="475" y1="935.57538527962481" x2="464" y2="954.6279441628825" />
    <line x1="486" y1="116.31535329954592" x2="475" y2="135.36791218280357" />
    <line x1="475" y1="173.47302994931889" x2="486" y2="192.52558883257652" />
    <line x1="475" y1="211.57814771583418" x2="486" y2="230.63070659909181" />
    <line x1="486" y1="306.84094213212239" x2="475" y2="325.89350101538008" />
    <polyline points="475,325.89350101538 486,344.94605989863771 475,363.9986187818954" />
    <line x1="475" y1="402.10373654841067" x2="486" y2="421.15629543166835" />
    <line x1="486" y1="421.1562954316683" x2="475" y2="440.208854314926" />
    <line x1="475" y1="478.31397208144125" x2="486" y2="497.36653096469894" />
    <line x1="486" y1="535.47164873121415" x2="475" y2="554.52420761447183" />
    <line x1="475" y1="668.83956091401774" x2="486" y2="687.89211979727543" />
    <line x1="475" y1="859.36514974659428" x2="486" y2="878.417708629852" />
    <polyline points="486,878.41770862985186 475,897.47026751310955 486,916.52282639636724" />
    <line x1="497" y1="97.262794416288258" x2="486" y2="116.31535329954592" />
    <line x1="486" y1="192.52558883257652" x2="497" y2="211.57814771583415" />
    <line x1="486" y1="230.63070659909184" x2="497" y2="249.68326548234947" />
    <polyline points="486,268.73582436560707 497,287.78838324886476 486,306.84094213212245" />
    <line x1="497" y1="363.99861878189535" x2="486" y2="383.05117766515303" />
    <line x1="486" y1="383.051177665153" x2="497" y2="402.10373654841067" />
    <polyline points="497,440.20885431492593 486,459.26141319818362 497,478.31397208144131" />
    <line x1="486" y1="497.36653096469888" x2="497" y2="516.41908984795657" />
    <line x1="497" y1="592.6293253809871" x2="486" y2="611.68188426424479" />
    <line x1="497" y1="630.73444314750247" x2="486" y2="649.78700203076016" />
    <line x1="486" y1="649.78700203076" x2="497" y2="668.83956091401774" />
    <line x1="497" y1="745.04979644704838" x2="486" y2="764.10235533030607" />
    <line x1="486" y1="916.52282639636724" x2="497" y2="935.57538527962492" />
    <line x1="497" y1="935.57538527962481" x2="486" y2="954.6279441628825" />
    <line x1="508" y1="78.210235533030612" x2="497" y2="97.262794416288273" />
    <line x1="508" y1="116.31535329954592" x2="497" y2="135.36791218280357" />
    <line x1="497" y1="211.57814771583418" x2="508" y2="230.63070659909181" />
    <line x1="508" y1="306.84094213212239" x2="497" y2="325.89350101538008" />
    <line x1="508" y1="421.1562954316683" x2="497" y2="440.208854314926" />
    <line x1="497" y1="478.31397208144125" x2="508" y2="497.36653096469894" />
    <line x1="508" y1="611.68188426424479" x2="497" y2="630.73444314750247" />
    <line x1="508" y1="649.78700203076" x2="497" y2="668.83956091401774" />
    <line x1="497" y1="706.944678680533" x2="508" y2="725.99723756379069" />
    <line x1="508" y1="764.102355330306" x2="497" y2="783.15491421356364" />
    <line x1="497" y1="897.47026751310955" x2="508" y2="916.52282639636724" />
    <line x1="519" y1="59.157676649772974" x2="508" y2="78.210235533030627" />
    <polyline points="508,116.31535329954592 519,135.36791218280357 508,154.4204710660612" />
    <polyline points="519,173.47302994931889 508,192.52558883257652 519,211.57814771583415" />
    <line x1="508" y1="268.73582436560707" x2="519" y2="287.78838324886476" />
    <line x1="519" y1="402.10373654841067" x2="508" y2="421.15629543166835" />
    <polyline points="519,440.20885431492593 508,459.26141319818362 519,478.31397208144131" />
    <line x1="519" y1="478.31397208144125" x2="508" y2="497.36653096469894" />
    <line x1="519" y1="516.41908984795657" x2="508" y2="535.47164873121426" />
    <line x1="519" y1="630.73444314750247" x2="508" y2="649.78700203076016" />
    <line x1="519" y1="668.83956091401774" x2="508" y2="687.89211979727543" />
    <polyline points="519,706.944678680533 508,725.99723756379069 519,745.04979644704838" />
    <polyline points="519,783.15491421356364 508,802.20747309682133 519,821.260031980079" />
    <line x1="519" y1="821.26003198007891" x2="508" y2="840.3125908633366" />
    <line x1="508" y1="916.52282639636724" x2="519" y2="935.57538527962492" />
    <line x1="530" y1="40.10511776651532" x2="519" y2="59.157676649772966" />
    <line x1="519" y1="59.157676649772974" x2="530" y2="78.210235533030627" />
    <line x1="530" y1="154.42047106606123" x2="519" y2="173.47302994931886" />
    <polyline points="519,325.89350101538 530,344.94605989863771 519,363.9986187818954" />
    <line x1="530" y1="497.36653096469888" x2="519" y2="516.41908984795657" />
    <polyline points="530,535.47164873121415 519,554.52420761447183 530,573.57676649772952 519,592.62932538098721" />
    <line x1="530" y1="611.68188426424479" x2="519" y2="630.73444314750247" />
    <line x1="530" y1="687.89211979727543" x2="519" y2="706.94467868053312" />
    <line x1="519" y1="745.04979644704838" x2="530" y2="764.10235533030607" />
    <polyline points="530,764.102355330306 519,783.15491421356364 530,802.20747309682133" />
    <line x1="530" y1="878.41770862985186" x2="519" y2="897.47026751310955" />
    <line x1="541" y1="21.052558883257667" x2="530" y2="40.10511776651532" />
    <polyline points="530,116.31535329954592 541,135.36791218280357 530,154.4204710660612" />
    <line x1="541" y1="173.47302994931889" x2="530" y2="192.52558883257652" />
    <polyline points="530,230.63070659909184 541,249.68326548234947 530,268.73582436560713" />
    <line x1="530" y1="268.73582436560707" x2="541" y2="287.78838324886476" />
    <line x1="541" y1="325.89350101538" x2="530" y2="344.94605989863771" />
    <line x1="541" y1="363.99861878189535" x2="530" y2="383.05117766515303" />
    <line x1="541" y1="402.10373654841067" x2="530" y2="421.15629543166835" />
    <line x1="530" y1="459.26141319818362" x2="541" y2="478.31397208144131" />
    <line x1="541" y1="478.31397208144125" x2="530" y2="497.36653096469894" />
    <line x1="541" y1="592.6293253809871" x2="530" y2="611.68188426424479" />
    <line x1="530" y1="687.89211979727543" x2="541" y2="706.94467868053312" />
    <line x1="541" y1="897.47026751310955" x2="530" y2="916.52282639636724" />
    <line x1="552" y1="2.0000000000000195" x2="541" y2="21.052558883257667" />
    <line x1="541" y1="59.157676649772974" x2="552" y2="78.210235533030627" />
    <line x1="552" y1="78.210235533030612" x2="541" y2="97.262794416288273" />
    <line x1="541" y1="97.262794416288258" x2="552" y2="116.31535329954592" />
    <line x1="552" y1="154.42047106606123" x2="541" y2="173.47302994931886" />
    <line x1="541" y1="211.57814771583418" x2="552" y2="230.63070659909181" />
    <line x1="552" y1="306.84094213212239" x2="541" y2="325.89350101538008" />
    <line x1="552" y1="344.94605989863771" x2="541" y2="363.9986187818954" />
    <line x1="552" y1="383.051177665153" x2="541" y2="402.10373654841067" />
    <line x1="552" y1="421.1562954316683" x2="541" y2="440.208854314926" />
    <polyline points="541,554.52420761447183 552,573.57676649772952 541,592.62932538098721" />
    <line x1="541" y1="668.83956091401774" x2="552" y2="687.89211979727543" />
    <line x1="541" y1="745.04979644704838" x2="552" y2="764.10235533030607" />
    <line x1="552" y1="764.102355330306" x2="541" y2="783.15491421356364" />
    <polyline points="541,821.26003198007891 552,840.3125908633366 541,859.36514974659428" />
    <line x1="552" y1="2.0000000000000195" x2="563" y2="21.052558883257667" />
    <line x1="563" y1="173.47302994931889" x2="552" y2="192.52558883257652" />
    <line x1="563" y1="363.99861878189535" x2="552" y2="383.05117766515303" />
    <line x1="563" y1="440.20885431492593" x2="552" y2="459.26141319818362" />
    <line x1="552" y1="497.36653096469888" x2="563" y2="516.41908984795657" />
    <line x1="552" y1="535.47164873121415" x2="563" y2="554.52420761447183" />
    <line x1="552" y1="573.57676649772952" x2="563" y2="592.62932538098721" />
    <line x1="552" y1="725.99723756379069" x2="563" y2="745.04979644704838" />
    <line x1="563" y1="783.15491421356364" x2="552" y2="802.20747309682133" />
    <polyline points="563,821.26003198007891 552,840.3125908633366 563,859.36514974659428" />
    <polyline points="563,897.47026751310955 552,916.52282639636724 563,935.57538527962492" />
    <line x1="563" y1="935.57538527962481" x2="552" y2="954.6279441628825" />
    <line x1="563" y1="21.052558883257667" x2="574" y2="40.10511776651532" />
    <line x1="574" y1="78.210235533030612" x2="563" y2="97.262794416288273" />
    <polyline points="563,173.47302994931889 574,192.52558883257652 563,211.57814771583415" />
    <line x1="563" y1="211.57814771583418" x2="574" y2="230.63070659909181" />
    <line x1="563" y1="287.78838324886476" x2="574" y2="306.84094213212245" />
    <line x1="574" y1="306.84094213212239" x2="563" y2="325.89350101538008" />
    <line x1="563" y1="325.89350101538" x2="574" y2="344.94605989863771" />
    <line x1="563" y1="363.99861878189535" x2="574" y2="383.05117766515303" />
    <line x1="574" y1="383.051177665153" x2="563" y2="402.10373654841067" />
    <line x1="563" y1="478.31397208144125" x2="574" y2="497.36653096469894" />
    <line x1="563" y1="592.6293253809871" x2="574" y2="611.68188426424479" />
    <polyline points="563,706.944678680533 574,725.99723756379069 563,745.04979644704838" />
    <polyline points="574,764.102355330306 563,783.15491421356364 574,802.20747309682133 563,821.260031980079" />
    <line x1="574" y1="40.10511776651532" x2="585" y2="59.157676649772966" />
    <line x1="574" y1="78.210235533030612" x2="585" y2="97.262794416288273" />
    <line x1="574" y1="154.42047106606123" x2="585" y2="173.47302994931886" />
    <polyline points="574,230.63070659909184 585,249.68326548234947 574,268.73582436560713" />
    <line x1="574" y1="268.73582436560707" x2="585" y2="287.78838324886476" />
    <line x1="574" y1="344.94605989863771" x2="585" y2="363.9986187818954" />
    <line x1="585" y1="402.10373654841067" x2="574" y2="421.15629543166835" />
    <polyline points="585,440.20885431492593 574,459.26141319818362 585,478.31397208144131" />
    <line x1="574" y1="497.36653096469888" x2="585" y2="516.41908984795657" />
    <line x1="574" y1="611.68188426424479" x2="585" y2="630.73444314750247" />
    <line x1="585" y1="59.157676649772974" x2="596" y2="78.210235533030627" />
    <polyline points="585,97.262794416288258 596,116.31535329954592 585,135.36791218280357 596,154.4204710660612" />
    <line x1="585" y1="211.57814771583418" x2="596" y2="230.63070659909181" />
    <line x1="585" y1="287.78838324886476" x2="596" y2="306.84094213212245" />
    <line x1="596" y1="306.84094213212239" x2="585" y2="325.89350101538008" />
    <line x1="585" y1="325.89350101538" x2="596" y2="344.94605989863771" />
    <line x1="596" y1="421.1562954316683" x2="585" y2="440.208854314926" />
    <line x1="585" y1="478.31397208144125" x2="596" y2="497.36653096469894" />
    <line x1="585" y1="630.73444314750247" x2="596" y2="649.78700203076016" />
    <polyline points="585,668.83956091401774 596,687.89211979727543 585,706.94467868053312" />
    <line x1="585" y1="706.944678680533" x2="596" y2="725.99723756379069" />
    <polyline points="596,764.102355330306 585,783.15491421356364 596,802.20747309682133 585,821.260031980079" />
    <line x1="596" y1="916.52282639636724" x2="585" y2="935.57538527962492" />
    <line x1="596" y1="78.210235533030612" x2="607" y2="97.262794416288273" />
    <polyline points="607,173.47302994931889 596,192.52558883257652 607,211.57814771583415" />
    <polyline points="596,230.63070659909184 607,249.68326548234947 596,268.73582436560713" />
    <line x1="596" y1="344.94605989863771" x2="607" y2="363.9986187818954" />
    <line x1="607" y1="363.99861878189535" x2="596" y2="383.05117766515303" />
    <polyline points="596,383.051177665153 607,402.10373654841067 596,421.15629543166835" />
    <line x1="596" y1="459.26141319818362" x2="607" y2="478.31397208144131" />
    <line x1="596" y1="497.36653096469888" x2="607" y2="516.41908984795657" />
    <line x1="596" y1="611.68188426424479" x2="607" y2="630.73444314750247" />
    <line x1="596" y1="649.78700203076" x2="607" y2="668.83956091401774" />
    <polyline points="607,821.26003198007891 596,840.3125908633366 607,859.36514974659428 596,878.417708629852" />
    <polyline points="607,97.262794416288258 618,116.31535329954592 607,135.36791218280357" />
    <line x1="607" y1="211.57814771583418" x2="618" y2="230.63070659909181" />
    <polyline points="618,268.73582436560707 607,287.78838324886476 618,306.84094213212245" />
    <line x1="618" y1="306.84094213212239" x2="607" y2="325.89350101538008" />
    <line x1="607" y1="325.89350101538" x2="618" y2="344.94605989863771" />
    <line x1="607" y1="402.10373654841067" x2="618" y2="421.15629543166835" />
    <line x1="607" y1="440.20885431492593" x2="618" y2="459.26141319818362" />
    <line x1="607" y1="478.31397208144125" x2="618" y2="497.36653096469894" />
    <line x1="607" y1="516.41908984795657" x2="618" y2="535.47164873121426" />
    <polyline points="618,535.47164873121415 607,554.52420761447183 618,573.57676649772952 607,592.62932538098721" />
    <line x1="607" y1="592.6293253809871" x2="618" y2="611.68188426424479" />
    <polyline points="618,649.78700203076 607,668.83956091401774 618,687.89211979727543 607,706.94467868053312" />
    <line x1="607" y1="745.04979644704838" x2="618" y2="764.10235533030607" />
    <line x1="618" y1="764.102355330306" x2="607" y2="783.15491421356364" />
    <line x1="618" y1="802.20747309682133" x2="607" y2="821.260031980079" />
    <polyline points="607,897.47026751310955 618,916.52282639636724 607,935.57538527962492" />
    <polyline points="618,116.31535329954592 629,135.36791218280357 618,154.4204710660612" />
    <line x1="629" y1="287.78838324886476" x2="618" y2="306.84094213212245" />
    <line x1="618" y1="306.84094213212239" x2="629" y2="325.89350101538008" />
    <line x1="618" y1="344.94605989863771" x2="629" y2="363.9986187818954" />
    <line x1="629" y1="363.99861878189535" x2="618" y2="383.05117766515303" />
    <line x1="618" y1="383.051177665153" x2="629" y2="402.10373654841067" />
    <line x1="618" y1="421.1562954316683" x2="629" y2="440.208854314926" />
    <line x1="618" y1="459.26141319818362" x2="629" y2="478.31397208144131" />
    <line x1="618" y1="611.68188426424479" x2="629" y2="630.73444314750247" />
    <polyline points="629,706.944678680533 618,725.99723756379069 629,745.04979644704838" />
    <polyline points="629,821.26003198007891 618,840.3125908633366 629,859.36514974659428" />
    <line x1="629" y1="135.36791218280357" x2="640" y2="154.4204710660612" />
    <line x1="640" y1="192.52558883257652" x2="629" y2="211.57814771583415" />
    <line x1="640" y1="344.94605989863771" x2="629" y2="363.9986187818954" />
    <line x1="629" y1="402.10373654841067" x2="640" y2="421.15629543166835" />
    <line x1="629" y1="440.20885431492593" x2="640" y2="459.26141319818362" />
    <line x1="629" y1="516.41908984795657" x2="640" y2="535.47164873121426" />
    <line x1="640" y1="802.20747309682133" x2="629" y2="821.260031980079" />
    <line x1="629" y1="935.57538527962481" x2="640" y2="954.6279441628825" />
    <line x1="640" y1="154.42047106606123" x2="651" y2="173.47302994931886" />
    <line x1="651" y1="173.47302994931889" x2="640" y2="192.52558883257652" />
    <line x1="651" y1="211.57814771583418" x2="640" y2="230.63070659909181" />
    <polyline points="640,268.73582436560707 651,287.78838324886476 640,306.84094213212245" />
    <line x1="640" y1="421.1562954316683" x2="651" y2="440.208854314926" />
    <line x1="640" y1="497.36653096469888" x2="651" y2="516.41908984795657" />
    <line x1="640" y1="535.47164873121415" x2="651" y2="554.52420761447183" />
    <line x1="651" y1="592.6293253809871" x2="640" y2="611.68188426424479" />
    <line x1="651" y1="859.36514974659428" x2="640" y2="878.417708629852" />
    <line x1="651" y1="173.47302994931889" x2="662" y2="192.52558883257652" />
    <line x1="662" y1="230.63070659909184" x2="651" y2="249.68326548234947" />
    <polyline points="651,325.89350101538 662,344.94605989863771 651,363.9986187818954" />
    <line x1="651" y1="363.99861878189535" x2="662" y2="383.05117766515303" />
    <line x1="651" y1="402.10373654841067" x2="662" y2="421.15629543166835" />
    <polyline points="651,440.20885431492593 662,459.26141319818362 651,478.31397208144131" />
    <line x1="651" y1="478.31397208144125" x2="662" y2="497.36653096469894" />
    <line x1="651" y1="516.41908984795657" x2="662" y2="535.47164873121426" />
    <line x1="651" y1="554.52420761447183" x2="662" y2="573.57676649772952" />
    <line x1="662" y1="611.68188426424479" x2="651" y2="630.73444314750247" />
    <line x1="651" y1="668.83956091401774" x2="662" y2="687.89211979727543" />
    <polyline points="662,764.102355330306 651,783.15491421356364 662,802.20747309682133 651,821.260031980079" />
    <line x1="662" y1="840.3125908633366" x2="651" y2="859.36514974659428" />
    <line x1="662" y1="192.52558883257652" x2="673" y2="211.57814771583415" />
    <line x1="673" y1="211.57814771583418" x2="662" y2="230.63070659909181" />
    <line x1="673" y1="249.68326548234947" x2="662" y2="268.73582436560713" />
    <line x1="662" y1="497.36653096469888" x2="673" y2="516.41908984795657" />
    <line x1="662" y1="535.47164873121415" x2="673" y2="554.52420761447183" />
    <polyline points="662,725.99723756379069 673,745.04979644704838 662,764.10235533030607" />
    <line x1="662" y1="802.20747309682133" x2="673" y2="821.260031980079" />
    <line x1="673" y1="821.26003198007891" x2="662" y2="840.3125908633366" />
    <line x1="673" y1="859.36514974659428" x2="662" y2="878.417708629852" />
    <line x1="673" y1="211.57814771583418" x2="684" y2="230.63070659909181" />
    <line x1="684" y1="230.63070659909184" x2="673" y2="249.68326548234947" />
    <line x1="684" y1="268.73582436560707" x2="673" y2="287.78838324886476" />
    <line x1="684" y1="306.84094213212239" x2="673" y2="325.89350101538008" />
    <polyline points="684,383.051177665153 673,402.10373654841067 684,421.15629543166835" />
    <line x1="684" y1="421.1562954316683" x2="673" y2="440.208854314926" />
    <line x1="684" y1="459.26141319818362" x2="673" y2="478.31397208144131" />
    <line x1="673" y1="478.31397208144125" x2="684" y2="497.36653096469894" />
    <line x1="673" y1="516.41908984795657" x2="684" y2="535.47164873121426" />
    <line x1="673" y1="592.6293253809871" x2="684" y2="611.68188426424479" />
    <line x1="673" y1="706.944678680533" x2="684" y2="725.99723756379069" />
    <line x1="673" y1="745.04979644704838" x2="684" y2="764.10235533030607" />
    <line x1="673" y1="783.15491421356364" x2="684" y2="802.20747309682133" />
    <polyline points="673,821.26003198007891 684,840.3125908633366 673,859.36514974659428" />
    <line x1="684" y1="916.52282639636724" x2="673" y2="935.57538527962492" />
    <line x1="684" y1="230.63070659909184" x2="695" y2="249.68326548234947" />
    <polyline points="684,268.73582436560707 695,287.78838324886476 684,306.84094213212245" />
    <line x1="695" y1="325.89350101538" x2="684" y2="344.94605989863771" />
    <line x1="695" y1="363.99861878189535" x2="684" y2="383.05117766515303" />
    <line x1="695" y1="478.31397208144125" x2="684" y2="497.36653096469894" />
    <line x1="684" y1="573.57676649772952" x2="695" y2="592.62932538098721" />
    <polyline points="695,592.6293253809871 684,611.68188426424479 695,630.73444314750247 684,649.78700203076016" />
    <line x1="695" y1="668.83956091401774" x2="684" y2="687.89211979727543" />
    <line x1="684" y1="764.102355330306" x2="695" y2="783.15491421356364" />
    <line x1="684" y1="802.20747309682133" x2="695" y2="821.260031980079" />
    <line x1="695" y1="249.68326548234947" x2="706" y2="268.73582436560713" />
    <line x1="706" y1="344.94605989863771" x2="695" y2="363.9986187818954" />
    <line x1="706" y1="383.051177665153" x2="695" y2="402.10373654841067" />
    <line x1="706" y1="497.36653096469888" x2="695" y2="516.41908984795657" />
    <line x1="695" y1="554.52420761447183" x2="706" y2="573.57676649772952" />
    <line x1="706" y1="649.78700203076" x2="695" y2="668.83956091401774" />
    <line x1="706" y1="687.89211979727543" x2="695" y2="706.94467868053312" />
    <line x1="695" y1="745.04979644704838" x2="706" y2="764.10235533030607" />
    <polyline points="695,821.26003198007891 706,840.3125908633366 695,859.36514974659428" />
    <line x1="706" y1="878.41770862985186" x2="695" y2="897.47026751310955" />
    <line x1="706" y1="268.73582436560707" x2="717" y2="287.78838324886476" />
    <line x1="706" y1="306.84094213212239" x2="717" y2="325.89350101538008" />
    <polyline points="706,383.051177665153 717,402.10373654841067 706,421.15629543166835" />
    <line x1="706" y1="459.26141319818362" x2="717" y2="478.31397208144131" />
    <line x1="717" y1="478.31397208144125" x2="706" y2="497.36653096469894" />
    <line x1="717" y1="516.41908984795657" x2="706" y2="535.47164873121426" />
    <line x1="706" y1="573.57676649772952" x2="717" y2="592.62932538098721" />
    <line x1="717" y1="592.6293253809871" x2="706" y2="611.68188426424479" />
    <line x1="717" y1="630.73444314750247" x2="706" y2="649.78700203076016" />
    <polyline points="717,668.83956091401774 706,687.89211979727543 717,706.94467868053312" />
    <polyline points="717,706.944678680533 706,725.99723756379069 717,745.04979644704838" />
    <polyline points="706,764.102355330306 717,783.15491421356364 706,802.20747309682133 717,821.260031980079" />
    <line x1="717" y1="859.36514974659428" x2="706" y2="878.417708629852" />
    <line x1="717" y1="287.78838324886476" x2="728" y2="306.84094213212245" />
    <polyline points="717,325.89350101538 728,344.94605989863771 717,363.9986187818954" />
    <line x1="717" y1="363.99861878189535" x2="728" y2="383.05117766515303" />
    <line x1="717" y1="402.10373654841067" x2="728" y2="421.15629543166835" />
    <line x1="728" y1="421.1562954316683" x2="717" y2="440.208854314926" />
    <polyline points="717,440.20885431492593 728,459.26141319818362 717,478.31397208144131" />
    <line x1="717" y1="478.31397208144125" x2="728" y2="497.36653096469894" />
    <line x1="717" y1="745.04979644704838" x2="728" y2="764.10235533030607" />
    <polyline points="717,821.26003198007891 728,840.3125908633366 717,859.36514974659428 728,878.417708629852" />
    <polyline points="728,878.41770862985186 717,897.47026751310955 728,916.52282639636724" />
    <line x1="728" y1="306.84094213212239" x2="739" y2="325.89350101538008" />
    <line x1="728" y1="383.051177665153" x2="739" y2="402.10373654841067" />
    <polyline points="728,497.36653096469888 739,516.41908984795657 728,535.47164873121426" />
    <line x1="728" y1="573.57676649772952" x2="739" y2="592.62932538098721" />
    <polyline points="728,649.78700203076 739,668.83956091401774 728,687.89211979727543" />
    <line x1="739" y1="783.15491421356364" x2="728" y2="802.20747309682133" />
    <line x1="728" y1="916.52282639636724" x2="739" y2="935.57538527962492" />
    <line x1="739" y1="325.89350101538" x2="750" y2="344.94605989863771" />
    <line x1="739" y1="363.99861878189535" x2="750" y2="383.05117766515303" />
    <line x1="750" y1="383.051177665153" x2="739" y2="402.10373654841067" />
    <line x1="750" y1="421.1562954316683" x2="739" y2="440.208854314926" />
    <polyline points="739,440.20885431492593 750,459.26141319818362 739,478.31397208144131" />
    <line x1="739" y1="478.31397208144125" x2="750" y2="497.36653096469894" />
    <polyline points="750,535.47164873121415 739,554.52420761447183 750,573.57676649772952" />
    <line x1="739" y1="592.6293253809871" x2="750" y2="611.68188426424479" />
    <line x1="750" y1="649.78700203076" x2="739" y2="668.83956091401774" />
    <line x1="750" y1="687.89211979727543" x2="739" y2="706.94467868053312" />
    <line x1="739" y1="706.944678680533" x2="750" y2="725.99723756379069" />
    <line x1="739" y1="745.04979644704838" x2="750" y2="764.10235533030607" />
    <polyline points="739,821.26003198007891 750,840.3125908633366 739,859.36514974659428" />
    <line x1="750" y1="344.94605989863771" x2="761" y2="363.9986187818954" />
    <line x1="750" y1="459.26141319818362" x2="761" y2="478.31397208144131" />
    <line x1="750" y1="573.57676649772952" x2="761" y2="592.62932538098721" />
    <polyline points="761,592.6293253809871 750,611.68188426424479 761,630.73444314750247 750,649.78700203076016" />
    <line x1="761" y1="668.83956091401774" x2="750" y2="687.89211979727543" />
    <polyline points="750,764.102355330306 761,783.15491421356364 750,802.20747309682133" />
    <line x1="750" y1="840.3125908633366" x2="761" y2="859.36514974659428" />
    <line x1="761" y1="935.57538527962481" x2="750" y2="954.6279441628825" />
    <line x1="761" y1="363.99861878189535" x2="772" y2="383.05117766515303" />
    <line x1="761" y1="402.10373654841067" x2="772" y2="421.15629543166835" />
    <line x1="761" y1="440.20885431492593" x2="772" y2="459.26141319818362" />
    <polyline points="772,497.36653096469888 761,516.41908984795657 772,535.47164873121426" />
    <line x1="761" y1="554.52420761447183" x2="772" y2="573.57676649772952" />
    <polyline points="772,649.78700203076 761,668.83956091401774 772,687.89211979727543" />
    <polyline points="761,706.944678680533 772,725.99723756379069 761,745.04979644704838" />
    <line x1="772" y1="802.20747309682133" x2="761" y2="821.260031980079" />
    <line x1="761" y1="821.26003198007891" x2="772" y2="840.3125908633366" />
    <line x1="761" y1="859.36514974659428" x2="772" y2="878.417708629852" />
    <line x1="772" y1="916.52282639636724" x2="761" y2="935.57538527962492" />
    <line x1="772" y1="383.051177665153" x2="783" y2="402.10373654841067" />
    <line x1="772" y1="573.57676649772952" x2="783" y2="592.62932538098721" />
    <line x1="772" y1="687.89211979727543" x2="783" y2="706.94467868053312" />
    <line x1="772" y1="725.99723756379069" x2="783" y2="745.04979644704838" />
    <polyline points="772,764.102355330306 783,783.15491421356364 772,802.20747309682133" />
    <line x1="772" y1="840.3125908633366" x2="783" y2="859.36514974659428" />
    <line x1="783" y1="935.57538527962481" x2="772" y2="954.6279441628825" />
    <line x1="783" y1="402.10373654841067" x2="794" y2="421.15629543166835" />
    <line x1="794" y1="421.1562954316683" x2="783" y2="440.208854314926" />
    <line x1="783" y1="478.31397208144125" x2="794" y2="497.36653096469894" />
    <polyline points="794,497.36653096469888 783,516.41908984795657 794,535.47164873121426" />
    <line x1="783" y1="668.83956091401774" x2="794" y2="687.89211979727543" />
    <line x1="783" y1="706.944678680533" x2="794" y2="725.99723756379069" />
    <line x1="783" y1="745.04979644704838" x2="794" y2="764.10235533030607" />
    <line x1="794" y1="802.20747309682133" x2="783" y2="821.260031980079" />
    <line x1="783" y1="821.26003198007891" x2="794" y2="840.3125908633366" />
    <polyline points="783,897.47026751310955 794,916.52282639636724 783,935.57538527962492" />
    <line x1="794" y1="421.1562954316683" x2="805" y2="440.208854314926" />
    <polyline points="805,440.20885431492593 794,459.26141319818362 805,478.31397208144131" />
    <polyline points="794,535.47164873121415 805,554.52420761447183 794,573.57676649772952 805,592.62932538098721" />
    <line x1="805" y1="592.6293253809871" x2="794" y2="611.68188426424479" />
    <line x1="794" y1="687.89211979727543" x2="805" y2="706.94467868053312" />
    <line x1="794" y1="725.99723756379069" x2="805" y2="745.04979644704838" />
    <line x1="794" y1="764.102355330306" x2="805" y2="783.15491421356364" />
    <line x1="794" y1="840.3125908633366" x2="805" y2="859.36514974659428" />
    <line x1="794" y1="878.41770862985186" x2="805" y2="897.47026751310955" />
    <line x1="805" y1="440.20885431492593" x2="816" y2="459.26141319818362" />
    <line x1="816" y1="497.36653096469888" x2="805" y2="516.41908984795657" />
    <line x1="816" y1="535.47164873121415" x2="805" y2="554.52420761447183" />
    <polyline points="816,611.68188426424479 805,630.73444314750247 816,649.78700203076016" />
    <polyline points="816,649.78700203076 805,668.83956091401774 816,687.89211979727543" />
    <line x1="805" y1="706.944678680533" x2="816" y2="725.99723756379069" />
    <line x1="805" y1="745.04979644704838" x2="816" y2="764.10235533030607" />
    <polyline points="805,783.15491421356364 816,802.20747309682133 805,821.260031980079" />
    <line x1="805" y1="821.26003198007891" x2="816" y2="840.3125908633366" />
    <line x1="816" y1="459.26141319818362" x2="827" y2="478.31397208144131" />
    <line x1="827" y1="478.31397208144125" x2="816" y2="497.36653096469894" />
    <polyline points="827,554.52420761447183 816,573.57676649772952 827,592.62932538098721" />
    <line x1="816" y1="725.99723756379069" x2="827" y2="745.04979644704838" />
    <line x1="816" y1="878.41770862985186" x2="827" y2="897.47026751310955" />
    <line x1="816" y1="916.52282639636724" x2="827" y2="935.57538527962492" />
    <line x1="827" y1="478.31397208144125" x2="838" y2="497.36653096469894" />
    <line x1="838" y1="611.68188426424479" x2="827" y2="630.73444314750247" />
    <polyline points="827,668.83956091401774 838,687.89211979727543 827,706.94467868053312" />
    <line x1="827" y1="859.36514974659428" x2="838" y2="878.417708629852" />
    <line x1="827" y1="897.47026751310955" x2="838" y2="916.52282639636724" />
    <line x1="838" y1="497.36653096469888" x2="849" y2="516.41908984795657" />
    <line x1="838" y1="573.57676649772952" x2="849" y2="592.62932538098721" />
    <line x1="849" y1="592.6293253809871" x2="838" y2="611.68188426424479" />
    <line x1="849" y1="630.73444314750247" x2="838" y2="649.78700203076016" />
    <line x1="838" y1="725.99723756379069" x2="849" y2="745.04979644704838" />
    <line x1="838" y1="840.3125908633366" x2="849" y2="859.36514974659428" />
    <line x1="838" y1="878.41770862985186" x2="849" y2="897.47026751310955" />
    <line x1="849" y1="516.41908984795657" x2="860" y2="535.47164873121426" />
    <line x1="860" y1="611.68188426424479" x2="849" y2="630.73444314750247" />
    <polyline points="860,649.78700203076 849,668.83956091401774 860,687.89211979727543" />
    <line x1="849" y1="706.944678680533" x2="860" y2="725.99723756379069" />
    <polyline points="849,783.15491421356364 860,802.20747309682133 849,821.260031980079" />
    <line x1="849" y1="859.36514974659428" x2="860" y2="878.417708629852" />
    <line x1="849" y1="935.57538527962481" x2="860" y2="954.6279441628825" />
    <line x1="860" y1="535.47164873121415" x2="871" y2="554.52420761447183" />
    <line x1="860" y1="687.89211979727543" x2="871" y2="706.94467868053312" />
    <line x1="871" y1="745.04979644704838" x2="860" y2="764.10235533030607" />
    <line x1="860" y1="764.102355330306" x2="871" y2="783.15491421356364" />
    <line x1="871" y1="897.47026751310955" x2="860" y2="916.52282639636724" />
    <line x1="871" y1="554.52420761447183" x2="882" y2="573.57676649772952" />
    <line x1="882" y1="611.68188426424479" x2="871" y2="630.73444314750247" />
    <line x1="871" y1="668.83956091401774" x2="882" y2="687.89211979727543" />
    <polyline points="871,706.944678680533 882,725.99723756379069 871,745.04979644704838" />
    <polyline points="871,821.26003198007891 882,840.3125908633366 871,859.36514974659428 882,878.417708629852" />
    <line x1="882" y1="916.52282639636724" x2="871" y2="935.57538527962492" />
    <line x1="882" y1="573.57676649772952" x2="893" y2="592.62932538098721" />
    <line x1="882" y1="687.89211979727543" x2="893" y2="706.94467868053312" />
    <line x1="893" y1="745.04979644704838" x2="882" y2="764.10235533030607" />
    <polyline points="893,783.15491421356364 882,802.20747309682133 893,821.260031980079" />
    <line x1="893" y1="897.47026751310955" x2="882" y2="916.52282639636724" />
    <line x1="893" y1="935.57538527962481" x2="882" y2="954.6279441628825" />
    <line x1="893" y1="592.6293253809871" x2="904" y2="611.68188426424479" />
    <polyline points="893,706.944678680533 904,725.99723756379069 893,745.04979644704838" />
    <line x1="893" y1="783.15491421356364" x2="904" y2="802.20747309682133" />
    <line x1="904" y1="916.52282639636724" x2="893" y2="935.57538527962492" />
    <line x1="904" y1="611.68188426424479" x2="915" y2="630.73444314750247" />
    <line x1="904" y1="649.78700203076" x2="915" y2="668.83956091401774" />
    <line x1="904" y1="764.102355330306" x2="915" y2="783.15491421356364" />
    <line x1="915" y1="630.73444314750247" x2="926" y2="649.78700203076016" />
    <line x1="915" y1="706.944678680533" x2="926" y2="725.99723756379069" />
    <polyline points="915,783.15491421356364 926,802.20747309682133 915,821.260031980079" />
    <polyline points="915,897.47026751310955 926,916.52282639636724 915,935.57538527962492" />
    <polyline points="926,649.78700203076 937,668.83956091401774 926,687.89211979727543 937,706.94467868053312" />
    <line x1="937" y1="706.944678680533" x2="926" y2="725.99723756379069" />
    <line x1="937" y1="821.26003198007891" x2="926" y2="840.3125908633366" />
    <line x1="937" y1="668.83956091401774" x2="948" y2="687.89211979727543" />
    <line x1="948" y1="725.99723756379069" x2="937" y2="745.04979644704838" />
    <line x1="948" y1="764.102355330306" x2="937" y2="783.15491421356364" />
    <polyline points="937,821.26003198007891 948,840.3125908633366 937,859.36514974659428" />
    <polyline points="948,878.41770862985186 937,897.47026751310955 948,916.52282639636724" />
    <line x1="948" y1="687.89211979727543" x2="959" y2="706.94467868053312" />
    <line x1="959" y1="745.04979644704838" x2="948" y2="764.10235533030607" />
    <line x1="948" y1="802.20747309682133" x2="959" y2="821.260031980079" />
    <line x1="959" y1="706.944678680533" x2="970" y2="725.99723756379069" />
    <line x1="970" y1="764.102355330306" x2="959" y2="783.15491421356364" />
    <line x1="970" y1="840.3125908633366" x2="959" y2="859.36514974659428" />
    <polyline points="959,897.47026751310955 970,916.52282639636724 959,935.57538527962492" />
    <polyline points="970,725.99723756379069 981,745.04979644704838 970,764.10235533030607" />
    <line x1="981" y1="783.15491421356364" x2="970" y2="802.20747309682133" />
    <line x1="981" y1="859.36514974659428" x2="970" y2="878.417708629852" />
    <line x1="981" y1="745.04979644704838" x2="992" y2="764.10235533030607" />
    <line x1="992" y1="802.20747309682133" x2="981" y2="821.260031980079" />
    <line x1="992" y1="840.3125908633366" x2="981" y2="859.36514974659428" />
    <line x1="981" y1="897.47026751310955" x2="992" y2="916.52282639636724" />
    <polyline points="992,764.102355330306 1003,783.15491421356364 1014,802.20747309682133" />
    <line x1="1003" y1="821.26003198007891" x2="1014" y2="840.3125908633366" />
    <line x1="1014" y1="802.20747309682133" x2="1025" y2="821.260031980079" />
    <polyline points="1025,821.26003198007891 1036,840.3125908633366 1025,859.36514974659428" />
    <line x1="1036" y1="916.52282639636724" x2="1025" y2="935.57538527962492" />
    <polyline points="1036,840.3125908633366 1047,859.36514974659428 1036,878.417708629852" />
    <line x1="1047" y1="935.57538527962481" x2="1036" y2="954.6279441628825" />
    <line x1="1047" y1="859.36514974659428" x2="1058" y2="878.417708629852" />
    <polyline points="1058,878.41770862985186 1069,897.47026751310955 1080,916.52282639636724" />
    <line x1="1069" y1="935.57538527962481" x2="1080" y2="954.6279441628825" />
    <line x1="1080" y1="916.52282639636724" x2="1091" y2="935.57538527962492" />
    <line x1="1091" y1="935.57538527962481" x2="1102" y2="954.6279441628825" />
  </g>
  <polyline fill="none" stroke="#ff0000" stroke-width="2" stroke-linecap="square" stroke-linejoin="round" points="271.5,487.84025152307009 277,497.36653096469888 244,554.52420761447183 255,573.57676649772952 249.5,583.10304593935837 227.5,583.10304593935837 222,592.62932538098721 227.5,602.15560482261594 249.5,602.15560482261594 260.5,621.20816370587363 271.5,621.20816370587363 277,611.68188426424479 266,592.62932538098721 271.5,583.10304593935837 304.5,583.10304593935837 321,611.68188426424479 315.5,621.20816370587363 293.5,621.20816370587363 288,630.73444314750247 293.5,640.26072258913132 359.5,640.26072258913132 370.5,659.31328147238889 381.5,659.31328147238889 387,649.78700203076 376,630.73444314750247 381.5,621.20816370587363 392.5,621.20816370587363 409,649.78700203076 398,668.83956091401774 414.5,697.41839923890427 425.5,697.41839923890427 436.5,678.36584035564658 469.5,678.36584035564658 480.5,697.41839923890427 513.5,697.41839923890427 524.5,678.36584035564658 535.5,678.36584035564658 546.5,697.41839923890427 568.5,697.41839923890427 590.5,735.52351700541954 612.5,735.52351700541954 623.5,754.57607588867722 656.5,754.57607588867722 662,745.04979644704838 656.5,735.52351700541954 634.5,735.52351700541954 629,725.99723756379069 634.5,716.47095812216185 667.5,716.47095812216185 678.5,735.52351700541954 700.5,735.52351700541954 722.5,773.6286347719348 744.5,773.6286347719348 750,783.15491421356364 739,802.20747309682133 777.5,868.89142918822313 788.5,868.89142918822313 794,859.36514974659428 772,821.26003198007891 794,783.15491421356364 777.5,754.57607588867722 755.5,754.57607588867722 750,745.04979644704838 761,725.99723756379069 750,706.944678680533 755.5,697.41839923890427 766.5,697.41839923890427 810.5,773.6286347719348 854.5,773.6286347719348 865.5,792.68119365519249 876.5,792.68119365519249 882,783.15491421356364 871,764.102355330306 893,725.99723756379069 860,668.83956091401774 865.5,659.31328147238889 876.5,659.31328147238889 887.5,678.36584035564658 920.5,678.36584035564658 926,668.83956091401774 909.5,640.26072258913132 854.5,640.26072258913132 843.5,659.31328147238889 821.5,659.31328147238889 816,668.83956091401774 827,687.89211979727543 821.5,697.41839923890427 810.5,697.41839923890427 794,668.83956091401774 805,649.78700203076 799.5,640.26072258913132 766.5,640.26072258913132 733.5,697.41839923890427 722.5,697.41839923890427 717,687.89211979727543 728,668.83956091401774 722.5,659.31328147238889 711.5,659.31328147238889 689.5,697.41839923890427 623.5,697.41839923890427 612.5,716.47095812216185 601.5,716.47095812216185 596,706.944678680533 607,687.89211979727543 596,668.83956091401774" />
  <type>Triangular</type>
</svg>