<?xml version="1.0" encoding="utf-8" standalone="no"?>
<!DOCTYPE svg PUBLIC "-//W3C//DTD SVG 1.1//EN" "http://www.w3.org/Graphics/SVG/1.1/DTD/svg11.dtd"[]>
<svg width="628" height="628" version="1.1" xmlns="http://www.w3.org/2000/svg">
  <title>39 cells diameter theta maze</title>
  <g fill="none" stroke="#000000" stroke-width="2" stroke-linecap="square">
    <path d="M 298.02943725152284,331.97056274847716 A 24,24 0 1,1 315,339" />
    <path d="M 278.04481869954856,299.6926627053964 A 40,40 0 0,1 351.9551813004515,330.3073372946036" />
    <path d="M 343.2842712474619,343.2842712474619 A 40,40 0 0,1 330.3073372946036,351.9551813004515" />
    <path d="M 315,355 A 40,40 0 0,1 278.04481869954856,330.3073372946036" />
    <path d="M 275.40202025355336,275.40202025355336 A 56,56 0 0,1 315,259" />
    <path d="M 336.430272212445,263.26274617936792 A 56,56 0 0,1 354.59797974644664,275.40202025355336" />
    <path d="M 366.73725382063208,293.569727787555 A 56,56 0 0,1 354.59797974644664,354.59797974644664" />
    <path d="M 336.43027221244506,366.73725382063208 A 56,56 0 0,1 263.26274617936792,336.43027221244506" />
    <path d="M 300.95349681483873,244.3834598109674 A 72,72 0 0,1 315,243" />
    <path d="M 329.04650318516121,244.3834598109674 A 72,72 0 0,1 342.55320713028647,248.48067365918735" />
    <path d="M 355.00105677741135,255.13418791421674 A 72,72 0 0,1 381.51932634081265,287.44679286971353" />
    <path d="M 385.61654018903261,300.95349681483879 A 72,72 0 0,1 385.61654018903261,329.04650318516121" />
    <path d="M 381.51932634081265,342.55320713028647 A 72,72 0 0,1 264.08831175456856,365.91168824543144" />
    <path d="M 255.13418791421674,355.00105677741135 A 72,72 0 0,1 244.3834598109674,329.04650318516127" />
    <path d="M 243,315 A 72,72 0 0,1 244.3834598109674,300.95349681483879" />
    <path d="M 255.13418791421674,274.99894322258865 A 72,72 0 0,1 287.44679286971348,248.48067365918737" />
    <path d="M 252.7746032555838,252.77460325558383 A 88,88 0 0,1 332.16794833741926,228.69089532451574" />
    <path d="M 348.67614204812787,233.69860113900677 A 88,88 0 0,1 363.89018050572497,241.83067411737602" />
    <path d="M 377.22539674441617,252.77460325558383 A 88,88 0 0,1 388.169325882624,266.10981949427503" />
    <path d="M 396.30139886099323,281.32385795187213 A 88,88 0 0,1 403,315" />
    <path d="M 401.30910467548426,332.16794833741926 A 88,88 0 0,1 396.30139886099323,348.67614204812787" />
    <path d="M 388.169325882624,363.89018050572497 A 88,88 0 0,1 377.22539674441617,377.22539674441617" />
    <path d="M 332.16794833741932,401.30910467548426 A 88,88 0 0,1 281.32385795187213,396.30139886099323" />
    <path d="M 241.83067411737602,363.89018050572497 A 88,88 0 0,1 227,315" />
    <path d="M 228.69089532451574,297.83205166258074 A 88,88 0 0,1 241.830674117376,266.10981949427503" />
    <path d="M 275.20092303403061,218.91652861882619 A 104,104 0 0,1 315,211" />
    <path d="M 388.53910524340097,241.46089475659906 A 104,104 0 0,1 417.001669161936,335.28939348967731" />
    <path d="M 411.08347138117381,354.79907696596933 A 104,104 0 0,1 401.47283967946476,372.77930423403859" />
    <path d="M 388.53910524340097,388.53910524340097 A 104,104 0 0,1 372.77930423403859,401.4728396794647" />
    <path d="M 275.20092303403067,411.08347138117381 A 104,104 0 0,1 257.22069576596141,401.47283967946476" />
    <path d="M 241.46089475659909,388.53910524340097 A 104,104 0 0,1 212.99833083806402,335.28939348967737" />
    <path d="M 211,315 A 104,104 0 0,1 212.99833083806402,294.71060651032263" />
    <path d="M 218.91652861882619,275.20092303403067 A 104,104 0 0,1 228.52716032053527,257.22069576596141" />
    <path d="M 241.46089475659903,241.46089475659909 A 104,104 0 0,1 257.22069576596135,228.5271603205353" />
    <path d="M 248.33157203764773,215.22364652369458 A 120,120 0 0,1 338.41083864193541,197.30576635161236" />
    <path d="M 360.9220118838108,204.13445609864559 A 120,120 0 0,1 399.85281374238571,230.14718625761429" />
    <path d="M 425.86554390135439,269.0779881161892 A 120,120 0 0,1 425.86554390135439,360.92201188381074" />
    <path d="M 381.66842796235227,414.77635347630542 A 120,120 0 0,1 360.9220118838108,425.86554390135439" />
    <path d="M 338.41083864193541,432.69423364838764 A 120,120 0 0,1 248.33157203764779,414.77635347630547" />
    <path d="M 197.30576635161236,338.41083864193541 A 120,120 0 0,1 204.13445609864561,269.0779881161892" />
    <path d="M 215.22364652369453,248.33157203764779 A 120,120 0 0,1 230.14718625761429,230.14718625761432" />
    <path d="M 315,179 A 136,136 0 0,1 379.10995620833569,195.05870804862371" />
    <path d="M 390.55755169066589,201.92013272685387 A 136,136 0 0,1 451,315" />
    <path d="M 450.34512282741878,328.33033108482027 A 136,136 0 0,1 428.07986727314619,390.55755169066589" />
    <path d="M 420.12942165733227,401.27748664625574 A 136,136 0 0,1 390.55755169066589,428.07986727314619" />
    <path d="M 379.10995620833569,434.94129195137629 A 136,136 0 0,1 367.0449468016522,440.64761642153496" />
    <path d="M 354.4787161066069,445.14388565958041 A 136,136 0 0,1 328.33033108482027,450.34512282741878" />
    <path d="M 315,451 A 136,136 0 0,1 301.66966891517978,450.34512282741878" />
    <path d="M 275.52128389339316,445.14388565958041 A 136,136 0 0,1 262.9550531983478,440.647616421535" />
    <path d="M 239.44244830933414,428.07986727314619 A 136,136 0 0,1 228.72251335374423,420.12942165733227" />
    <path d="M 209.87057834266781,401.27748664625585 A 136,136 0 0,1 201.92013272685384,390.55755169066589" />
    <path d="M 195.05870804862371,379.10995620833569 A 136,136 0 0,1 181.61320186516068,341.53228379419352" />
    <path d="M 179.65487717258122,328.33033108482022 A 136,136 0 0,1 181.61320186516065,288.46771620580654" />
    <path d="M 184.8561143404196,275.52128389339316 A 136,136 0 0,1 195.05870804862371,250.89004379166431" />
    <path d="M 201.92013272685381,239.44244830933414 A 136,136 0 0,1 275.5212838933931,184.8561143404196" />
    <path d="M 288.46771620580648,181.61320186516068 A 136,136 0 0,1 301.66966891517978,179.65487717258122" />
    <path d="M 300.10139466990682,163.73192154582608 A 152,152 0 0,1 315,163" />
    <path d="M 359.12327094267829,169.54506896870424 A 152,152 0 0,1 373.16788171949366,174.5703110582844" />
    <path d="M 411.42777919287414,197.502411088864 A 152,152 0 0,1 422.48023074035524,207.51976925964476" />
    <path d="M 432.497588911136,218.57222080712586 A 152,152 0 0,1 449.05203218094994,243.34769600244835" />
    <path d="M 455.4296889417156,256.83211828050634 A 152,152 0 0,1 460.45493103129576,270.87672905732171" />
    <path d="M 466.26807845417392,300.10139466990677 A 152,152 0 0,1 466.26807845417392,329.89860533009323" />
    <path d="M 460.45493103129576,359.12327094267823 A 152,152 0 0,1 432.49758891113606,411.42777919287408" />
    <path d="M 399.44667541897951,441.38338106998685 A 152,152 0 0,1 386.65230399755166,449.05203218094994" />
    <path d="M 373.16788171949366,455.42968894171554 A 152,152 0 0,1 359.12327094267829,460.45493103129576" />
    <path d="M 329.89860533009323,466.26807845417392 A 152,152 0 0,1 315,467" />
    <path d="M 300.10139466990677,466.26807845417392 A 152,152 0 0,1 270.87672905732177,460.45493103129576" />
    <path d="M 256.83211828050639,455.4296889417156 A 152,152 0 0,1 230.55332458102049,441.38338106998691" />
    <path d="M 218.57222080712592,432.49758891113606 A 152,152 0 0,1 197.50241108886402,411.42777919287414" />
    <path d="M 174.57031105828446,373.16788171949372 A 152,152 0 0,1 169.54506896870424,359.12327094267829" />
    <path d="M 165.920637378709,344.65372894645157 A 152,152 0 0,1 163.73192154582608,329.89860533009318" />
    <path d="M 165.92063737870896,285.34627105354849 A 152,152 0 0,1 174.57031105828443,256.83211828050634" />
    <path d="M 180.94796781905004,243.34769600244837 A 152,152 0 0,1 197.502411088864,218.57222080712586" />
    <path d="M 218.5722208071258,197.50241108886405 A 152,152 0 0,1 230.55332458102046,188.61661893001312" />
    <path d="M 243.34769600244832,180.94796781905006 A 152,152 0 0,1 285.34627105354843,165.920637378709" />
    <path d="M 315,147 A 168,168 0 0,1 347.77517409870956,150.22807289225727" />
    <path d="M 363.76782577874968,154.23402359698892 A 168,168 0 0,1 421.57807173949243,185.13424383506018" />
    <path d="M 444.8657561649398,208.42192826050757 A 168,168 0 0,1 463.16277241052364,235.80534821323238" />
    <path d="M 479.77192710774273,282.22482590129044 A 168,168 0 0,1 482.19103408092906,298.53312042463381" />
    <path d="M 483,315 A 168,168 0 0,1 482.19103408092906,331.46687957536619" />
    <path d="M 479.77192710774273,347.77517409870956 A 168,168 0 0,1 475.76597640301111,363.76782577874962" />
    <path d="M 454.68689486682763,408.33579914729313 A 168,168 0 0,1 408.33579914729319,454.68689486682763" />
    <path d="M 379.29081663733507,470.21176146189617 A 168,168 0 0,1 331.46687957536619,482.19103408092906" />
    <path d="M 315,483 A 168,168 0 0,1 282.22482590129044,479.77192710774273" />
    <path d="M 266.23217422125038,475.76597640301111 A 168,168 0 0,1 235.80534821323241,463.16277241052364" />
    <path d="M 221.66420085270687,454.68689486682763 A 168,168 0 0,1 208.42192826050757,444.86575616493985" />
    <path d="M 185.13424383506023,421.57807173949249 A 168,168 0 0,1 175.3131051331724,408.33579914729319" />
    <path d="M 166.83722758947639,394.19465178676762 A 168,168 0 0,1 147,315.00000000000006" />
    <path d="M 147.80896591907091,298.53312042463392 A 168,168 0 0,1 159.78823853810386,250.70918336266487" />
    <path d="M 175.31310513317237,221.66420085270687 A 168,168 0 0,1 185.1342438350602,208.42192826050754" />
    <path d="M 196.20606076066,196.20606076066002 A 168,168 0 0,1 266.23217422125032,154.23402359698892" />
    <path d="M 315,131 A 184,184 0 0,1 333.03515382063915,131.88601029231577" />
    <path d="M 350.8966192509676,134.53550840580559 A 184,184 0 0,1 385.41375155517653,145.00616601792325" />
    <path d="M 417.22492287560681,162.00959133633168 A 184,184 0 0,1 445.10764773832477,184.89235226167526" />
    <path d="M 457.23392341874359,198.27163571388923 A 184,184 0 0,1 467.99040866366829,212.77507712439319" />
    <path d="M 477.27351264009735,228.26300042401641 A 184,184 0 0,1 491.0770217747264,261.58761938517893" />
    <path d="M 498.11398970768425,296.96484617936085 A 184,184 0 0,1 499,315" />
    <path d="M 498.11398970768425,333.03515382063915 A 184,184 0 0,1 491.0770217747264,368.412380614821" />
    <path d="M 467.99040866366835,417.22492287560675 A 184,184 0 0,1 445.10764773832477,445.10764773832477" />
    <path d="M 401.73699957598359,477.27351264009729 A 184,184 0 0,1 368.41238061482107,491.0770217747264" />
    <path d="M 333.03515382063921,498.11398970768425 A 184,184 0 0,1 296.96484617936085,498.11398970768425" />
    <path d="M 279.1033807490324,495.46449159419444 A 184,184 0 0,1 244.58624844482353,484.99383398207681" />
    <path d="M 212.77507712439325,467.99040866366835 A 184,184 0 0,1 172.76607658125647,431.72836428611083" />
    <path d="M 162.00959133633168,417.22492287560681 A 184,184 0 0,1 152.72648735990271,401.73699957598365" />
    <path d="M 131.88601029231577,296.96484617936096 A 184,184 0 0,1 138.92297822527354,261.587619385179" />
    <path d="M 162.00959133633162,212.77507712439325 A 184,184 0 0,1 228.26300042401638,152.72648735990271" />
    <path d="M 261.58761938517893,138.92297822527357 A 184,184 0 0,1 279.10338074903234,134.53550840580562" />
    <path d="M 334.60342806591211,115.96305466556063 A 200,200 0 0,1 354.01806440322565,118.8429439193539" />
    <path d="M 373.05693545089247,123.61193285355822 A 200,200 0 0,1 391.53668647301794,130.22409349774264" />
    <path d="M 426.11404660392043,148.70607753949096 A 200,200 0 0,1 441.87865683272912,160.3979093274526" />
    <path d="M 481.29392246050907,203.88595339607954 A 200,200 0 0,1 491.384252869671,220.72065263480044" />
    <path d="M 499.77590650225738,238.46331352698203 A 200,200 0 0,1 511.1570560806461,275.98193559677435" />
    <path d="M 514.03694533443934,295.39657193408783 A 200,200 0 0,1 515,315" />
    <path d="M 514.03694533443934,334.60342806591211 A 200,200 0 0,1 511.1570560806461,354.01806440322565" />
    <path d="M 491.384252869671,409.27934736519956 A 200,200 0 0,1 456.42135623730951,456.42135623730951" />
    <path d="M 391.536686473018,499.77590650225738 A 200,200 0 0,1 354.01806440322571,511.15705608064604" />
    <path d="M 334.60342806591217,514.03694533443934 A 200,200 0 0,1 315,515" />
    <path d="M 275.98193559677435,511.1570560806461 A 200,200 0 0,1 188.12134316727094,469.60209067254743" />
    <path d="M 173.57864376269052,456.42135623730951 A 200,200 0 0,1 138.61574713032903,409.27934736519956" />
    <path d="M 123.61193285355824,373.05693545089247 A 200,200 0 0,1 118.8429439193539,275.98193559677435" />
    <path d="M 130.22409349774267,238.463313526982 A 200,200 0 0,1 160.39790932745262,188.12134316727088" />
    <path d="M 188.12134316727082,160.39790932745268 A 200,200 0 0,1 220.72065263480042,138.61574713032903" />
    <path d="M 238.46331352698192,130.2240934977427 A 200,200 0 0,1 256.94306454910748,123.61193285355824" />
    <path d="M 315,99 A 216,216 0 0,1 336.17170231118507,100.04009903880547" />
    <path d="M 357.1395095554837,103.15037943290221 A 216,216 0 0,1 377.70149028696386,108.30088748184289" />
    <path d="M 397.6596213908594,115.44202097756207 A 216,216 0 0,1 435.00317033223405,135.40256374265022" />
    <path d="M 452.02894937934741,148.02974207364881 A 216,216 0 0,1 467.73506473629425,162.26493526370572" />
    <path d="M 481.97025792635117,177.97105062065256 A 216,216 0 0,1 494.59743625734973,194.99682966776589" />
    <path d="M 505.49499309924465,213.17830484558448 A 216,216 0 0,1 531,315" />
    <path d="M 526.84962056709776,357.1395095554837 A 216,216 0 0,1 494.59743625734984,435.00317033223405" />
    <path d="M 467.73506473629425,467.73506473629425 A 216,216 0 0,1 377.70149028696386,521.69911251815711" />
    <path d="M 315,531 A 216,216 0 0,1 293.82829768881493,529.95990096119453" />
    <path d="M 177.97105062065262,481.97025792635122 A 216,216 0 0,1 162.26493526370575,467.73506473629425" />
    <path d="M 148.02974207364889,452.02894937934752 A 216,216 0 0,1 108.30088748184289,377.70149028696386" />
    <path d="M 100.04009903880547,336.17170231118507 A 216,216 0 0,1 100.04009903880547,293.82829768881504" />
    <path d="M 108.30088748184286,252.2985097130362 A 216,216 0 0,1 124.50500690075529,213.17830484558454" />
    <path d="M 135.40256374265019,194.996829667766 A 216,216 0 0,1 148.02974207364883,177.97105062065256" />
    <path d="M 162.2649352637057,162.26493526370578 A 216,216 0 0,1 232.34037860914049,115.44202097756212" />
    <path d="M 272.86049044451619,103.15037943290224 A 216,216 0 0,1 293.82829768881493,100.04009903880547" />
    <path d="M 247.65395487696469,92.98984211012754 A 232,232 0 0,1 360.26095470774175,87.457814946450526" />
    <path d="M 443.89229406054767,122.0990499458095 A 232,232 0 0,1 462.17924192596575,135.66157481984502" />
    <path d="M 479.048773235279,150.95122676472096 A 232,232 0 0,1 494.33842518015496,167.82075807403425" />
    <path d="M 507.9009500541905,186.10770593945227 A 232,232 0 0,1 545.88285658794962,337.73997655645809" />
    <path d="M 537.01015788987252,382.3460451230352 A 232,232 0 0,1 529.34005154261854,403.7825563087008" />
    <path d="M 519.60573332881836,424.36404294363149 A 232,232 0 0,1 507.9009500541905,443.89229406054767" />
    <path d="M 462.17924192596575,494.338425180155 A 232,232 0 0,1 443.89229406054767,507.9009500541905" />
    <path d="M 403.78255630870086,529.34005154261854 A 232,232 0 0,1 337.73997655645809,545.88285658794962" />
    <path d="M 269.7390452922582,542.54218505354947 A 232,232 0 0,1 247.6539548769648,537.01015788987252" />
    <path d="M 226.2174436912992,529.34005154261854 A 232,232 0 0,1 205.63595705636857,519.60573332881836" />
    <path d="M 186.10770593945236,507.9009500541905 A 232,232 0 0,1 110.39426667118167,424.36404294363149" />
    <path d="M 92.98984211012754,382.34604512303531 A 232,232 0 0,1 87.457814946450526,269.73904529225825" />
    <path d="M 92.989842110127512,247.6539548769648 A 232,232 0 0,1 110.39426667118161,205.63595705636857" />
    <path d="M 135.66157481984504,167.82075807403422 A 232,232 0 0,1 150.95122676472093,150.951226764721" />
    <path d="M 167.82075807403413,135.6615748198451 A 232,232 0 0,1 186.10770593945227,122.0990499458095" />
    <path d="M 205.63595705636848,110.39426667118167 A 232,232 0 0,1 226.21744369129903,100.65994845738155" />
    <path d="M 266.61760014000009,71.765250459998867 A 248,248 0 0,1 315,67" />
    <path d="M 339.30825080173105,68.194187785295185 A 248,248 0 0,1 386.99059995910665,77.678796738412188" />
    <path d="M 431.9063907328474,96.283526441607961 A 248,248 0 0,1 490.36248173426378,139.63751826573622" />
    <path d="M 521.20446385103128,177.21858221113865 A 248,248 0 0,1 544.12212406279912,220.09450877345773" />
    <path d="M 552.32120326158781,243.00940004089335 A 248,248 0 0,1 561.80581221470482,290.69174919826895" />
    <path d="M 563,315 A 248,248 0 0,1 552.32120326158781,386.99059995910659" />
    <path d="M 544.12212406279912,409.90549122654227 A 248,248 0 0,1 490.36248173426384,490.36248173426378" />
    <path d="M 472.3295344725841,506.7065924339588 A 248,248 0 0,1 452.78141778886129,521.20446385103128" />
    <path d="M 409.90549122654227,544.12212406279912 A 248,248 0 0,1 339.30825080173111,561.80581221470482" />
    <path d="M 315.00000000000006,563 A 248,248 0 0,1 290.69174919826895,561.80581221470482" />
    <path d="M 243.00940004089341,552.32120326158781 A 248,248 0 0,1 220.09450877345776,544.12212406279912" />
    <path d="M 198.0936092671526,533.71647355839207 A 248,248 0 0,1 177.21858221113874,521.20446385103128" />
    <path d="M 157.67046552741596,506.7065924339588 A 248,248 0 0,1 123.29340756604131,472.32953447258421" />
    <path d="M 108.79553614896878,452.78141778886135 A 248,248 0 0,1 85.87787593720094,409.90549122654238" />
    <path d="M 67,315.00000000000006 A 248,248 0 0,1 68.194187785295156,290.69174919826912" />
    <path d="M 71.765250459998839,266.61760014000021 A 248,248 0 0,1 85.877875937200912,220.09450877345768" />
    <path d="M 96.283526441607933,198.0936092671526 A 248,248 0 0,1 157.67046552741581,123.29340756604131" />
    <path d="M 177.21858221113865,108.79553614896878 A 248,248 0 0,1 198.09360926715252,96.283526441607989" />
    <path d="M 220.09450877345756,85.87787593720094 A 248,248 0 0,1 243.0094000408933,77.678796738412217" />
    <path d="M 315,51 A 264,264 0 0,1 340.876525047004,52.271232158540045" />
    <path d="M 353.73684525621547,53.857401369297804 A 264,264 0 0,1 366.50384501225784,56.072685973547152" />
    <path d="M 379.14676749446164,58.911749156640383 A 264,264 0 0,1 416.02842614438373,71.0958034170203" />
    <path d="M 427.8745446655945,76.346826615410947 A 264,264 0 0,1 439.44873852206337,82.172786212034282" />
    <path d="M 450.72312446701051,88.559646959928159 A 264,264 0 0,1 461.670541517175,95.49202235212806" />
    <path d="M 482.47982701920239,110.92524031223744 A 264,264 0 0,1 492.29156407961284,119.38890290629078" />
    <path d="M 510.61109709370919,137.70843592038716 A 264,264 0 0,1 534.50797764787194,168.329458482825" />
    <path d="M 541.44035304007184,179.27687553298947 A 264,264 0 0,1 553.65317338458908,202.1254553344055" />
    <path d="M 558.90419658297969,213.97157385561627 A 264,264 0 0,1 571.08825084335967,250.8532325055383" />
    <path d="M 573.9273140264529,263.4961549877421 A 264,264 0 0,1 576.1425986307022,276.26315474378453" />
    <path d="M 577.72876784146,289.12347495299593 A 264,264 0 0,1 579,315" />
    <path d="M 577.72876784146,340.876525047004 A 264,264 0 0,1 567.63224863330311,391.63515479517804" />
    <path d="M 563.56763320831749,403.93892129554604 A 264,264 0 0,1 558.90419658297969,416.02842614438367" />
    <path d="M 553.65317338458908,427.87454466559439 A 264,264 0 0,1 541.44035304007184,450.72312446701051" />
    <path d="M 534.50797764787194,461.67054151717491 A 264,264 0 0,1 527.04678831089029,472.26461638600239" />
    <path d="M 519.07475968776259,482.47982701920239 A 264,264 0 0,1 492.2915640796129,510.61109709370919" />
    <path d="M 482.47982701920239,519.07475968776259 A 264,264 0 0,1 472.26461638600244,527.04678831089018" />
    <path d="M 461.67054151717497,534.50797764787194 A 264,264 0 0,1 450.72312446701051,541.44035304007184" />
    <path d="M 439.44873852206342,547.82721378796566 A 264,264 0 0,1 416.02842614438373,558.90419658297969" />
    <path d="M 403.93892129554615,563.56763320831749 A 264,264 0 0,1 391.6351547951781,567.63224863330311" />
    <path d="M 379.1467674944617,571.08825084335967 A 264,264 0 0,1 353.73684525621553,576.1425986307022" />
    <path d="M 340.87652504700407,577.72876784146 A 264,264 0 0,1 302.04613397756174,578.68200043816546" />
    <path d="M 289.123474952996,577.72876784146 A 264,264 0 0,1 276.26315474378453,576.1425986307022" />
    <path d="M 263.4961549877421,573.9273140264529 A 264,264 0 0,1 157.73538361399761,527.04678831089029" />
    <path d="M 119.38890290629087,492.29156407961295 A 264,264 0 0,1 95.49202235212806,461.67054151717497" />
    <path d="M 88.559646959928187,450.72312446701056 A 264,264 0 0,1 76.346826615411,427.87454466559461" />
    <path d="M 71.095803417020363,416.02842614438384 A 264,264 0 0,1 66.432366791682512,403.93892129554604" />
    <path d="M 62.367751366696865,391.6351547951781 A 264,264 0 0,1 58.911749156640383,379.14676749446176" />
    <path d="M 56.072685973547209,366.50384501225795 A 264,264 0 0,1 53.857401369297861,353.73684525621564" />
    <path d="M 52.271232158540045,340.87652504700395 A 264,264 0 0,1 51.317999561834483,302.04613397756174" />
    <path d="M 56.072685973547152,263.4961549877421 A 264,264 0 0,1 58.911749156640383,250.85323250553836" />
    <path d="M 62.367751366696837,238.36484520482202 A 264,264 0 0,1 66.432366791682483,226.06107870445402" />
    <path d="M 76.346826615410976,202.1254553344055 A 264,264 0 0,1 95.492022352128,168.32945848282512" />
    <path d="M 110.92524031223746,147.52017298079755 A 264,264 0 0,1 128.32380976675142,128.32380976675148" />
    <path d="M 137.70843592038708,119.38890290629087 A 264,264 0 0,1 147.52017298079747,110.92524031223755" />
    <path d="M 157.73538361399764,102.95321168910971 A 264,264 0 0,1 168.329458482825,95.49202235212806" />
    <path d="M 179.27687553298944,88.559646959928187 A 264,264 0 0,1 302.04613397756162,51.317999561834483" />
    <path d="M 260.37470983548394,40.380121487095494 A 280,280 0 0,1 315,35" />
    <path d="M 342.44479929227697,36.348276531784848 A 280,280 0 0,1 383.03445037291385,43.391249105527663" />
    <path d="M 422.15136106222513,56.313730896839729 A 280,280 0 0,1 434.71542616047896,61.882997925435859" />
    <path d="M 446.99108631127933,68.0620459824606 A 280,280 0 0,1 481.79580525788134,90.101891185419419" />
    <path d="M 492.63011956582073,98.557073058433645 A 280,280 0 0,1 512.98989873223331,117.01010126776669" />
    <path d="M 547.8114914447126,159.44033475451136 A 280,280 0 0,1 561.93795401753937,183.00891368872061" />
    <path d="M 568.11700207456408,195.284573839521 A 280,280 0 0,1 578.63233825124576,220.67084105017838" />
    <path d="M 586.60875089447234,246.96554962708609 A 280,280 0 0,1 589.61987851290451,260.37470983548405" />
    <path d="M 591.96942279013865,273.91546715249871 A 280,280 0 0,1 593.6517234682151,342.44479929227697" />
    <path d="M 586.60875089447234,383.03445037291385 A 280,280 0 0,1 582.94329400501852,396.27970963124943" />
    <path d="M 568.1170020745642,434.71542616047896 A 280,280 0 0,1 561.93795401753937,446.99108631127933" />
    <path d="M 539.89810881458061,481.79580525788134 A 280,280 0 0,1 531.44292694156638,492.63011956582068" />
    <path d="M 522.46631509938857,503.03650735716519 A 280,280 0 0,1 492.63011956582073,531.44292694156638" />
    <path d="M 481.7958052578814,539.89810881458061 A 280,280 0 0,1 434.71542616047896,568.1170020745642" />
    <path d="M 422.15136106222519,573.68626910316027 A 280,280 0 0,1 409.3291589498217,578.63233825124576" />
    <path d="M 369.625290164516,589.61987851290451 A 280,280 0 0,1 342.444799292277,593.6517234682151" />
    <path d="M 328.738948811677,594.66272773744822 A 280,280 0 0,1 315.00000000000006,595" />
    <path d="M 246.96554962708615,586.60875089447234 A 280,280 0 0,1 233.7202903687506,582.94329400501852" />
    <path d="M 207.84863893777489,573.68626910316038 A 280,280 0 0,1 183.00891368872067,561.93795401753937" />
    <path d="M 171.05123162589797,555.1640108000762 A 280,280 0 0,1 159.44033475451147,547.81149144471271" />
    <path d="M 148.20419474211869,539.89810881458061 A 280,280 0 0,1 126.96349264283484,522.46631509938857" />
    <path d="M 117.01010126776671,512.98989873223331 A 280,280 0 0,1 98.55707305843373,492.63011956582085" />
    <path d="M 90.10189118541939,481.79580525788128 A 280,280 0 0,1 74.83598919992383,458.94876837410209" />
    <path d="M 68.062045982460631,446.99108631127945 A 280,280 0 0,1 61.882997925435916,434.71542616047907" />
    <path d="M 51.367661748754188,409.32915894982159 A 280,280 0 0,1 47.056705994981542,396.27970963124949" />
    <path d="M 43.39124910552772,383.03445037291397 A 280,280 0 0,1 40.380121487095494,369.625290164516" />
    <path d="M 38.030577209861349,356.08453284750146 A 280,280 0 0,1 36.348276531784848,342.44479929227691" />
    <path d="M 35.337272262551721,328.73894881167706 A 280,280 0 0,1 35,315.00000000000006" />
    <path d="M 36.348276531784848,287.5552007077232 A 280,280 0 0,1 38.030577209861349,273.91546715249865" />
    <path d="M 43.391249105527663,246.96554962708615 A 280,280 0 0,1 51.367661748754131,220.67084105017852" />
    <path d="M 56.313730896839729,207.84863893777481 A 280,280 0 0,1 61.882997925435888,195.284573839521" />
    <path d="M 68.062045982460575,183.00891368872067 A 280,280 0 0,1 82.188508555287257,159.44033475451147" />
    <path d="M 90.101891185419333,148.2041947421188 A 280,280 0 0,1 107.53368490061143,126.96349264283487" />
    <path d="M 117.01010126776666,117.01010126776674 A 280,280 0 0,1 148.20419474211869,90.10189118541939" />
    <path d="M 159.44033475451138,82.188508555287342 A 280,280 0 0,1 171.05123162589788,74.835989199923858" />
    <path d="M 195.28457383952087,61.882997925435916 A 280,280 0 0,1 220.67084105017841,51.367661748754188" />
    <path d="M 233.72029036875051,47.056705994981542 A 280,280 0 0,1 246.96554962708603,43.39124910552772" />
    <path d="M 315,19 A 296,296 0 0,1 329.52403160091575,19.356544963268959" />
    <path d="M 344.01307353754993,20.425320905029707 A 296,296 0 0,1 372.746735316774,24.687557000643778" />
    <path d="M 400.92426446732088,31.74566062326619 A 296,296 0 0,1 428.27429598006654,41.531658376659095" />
    <path d="M 479.44878897380227,68.8849947584466 A 296,296 0 0,1 491.32699412976024,77.2505706817291" />
    <path d="M 513.78145063471743,95.678466894932086 A 296,296 0 0,1 524.303607231218,105.69639276878192" />
    <path d="M 552.74942931827081,138.67300587023971 A 296,296 0 0,1 561.11500524155338,150.55121102619773" />
    <path d="M 576.04869424711308,175.46656589950464 A 296,296 0 0,1 582.5808307645392,188.44369234463647" />
    <path d="M 588.46834162334085,201.7257040199334 A 296,296 0 0,1 593.69704329417414,215.28060339590286" />
    <path d="M 610.643455036731,329.52403160091575 A 296,296 0 0,1 602.129250945585,386.92213325136612" />
    <path d="M 598.25433937673392,400.92426446732082 A 296,296 0 0,1 582.58083076453931,441.55630765536341" />
    <path d="M 576.04869424711308,454.5334341004953 A 296,296 0 0,1 568.88766856008056,467.17441228119355" />
    <path d="M 561.11500524155349,479.44878897380215 A 296,296 0 0,1 552.74942931827093,491.32699412976024" />
    <path d="M 543.81109419537017,502.780412112439 A 296,296 0 0,1 534.32153310506783,513.78145063471743" />
    <path d="M 502.78041211243908,543.81109419537017 A 296,296 0 0,1 479.44878897380227,561.11500524155338" />
    <path d="M 454.53343410049536,576.04869424711308 A 296,296 0 0,1 428.2742959800666,588.46834162334085" />
    <path d="M 414.7193966040972,593.69704329417414 A 296,296 0 0,1 358.43222043878711,607.79624694957511" />
    <path d="M 344.01307353755,609.57467909497029 A 296,296 0 0,1 315.00000000000006,611" />
    <path d="M 300.47596839908437,610.643455036731 A 296,296 0 0,1 285.98692646245007,609.57467909497029" />
    <path d="M 271.567779561213,607.79624694957511 A 296,296 0 0,1 201.72570401993346,588.46834162334085" />
    <path d="M 175.4665658995047,576.04869424711308 A 296,296 0 0,1 127.219587887561,543.81109419537017" />
    <path d="M 61.112331439919473,467.17441228119367 A 296,296 0 0,1 53.951305752886924,454.53343410049536" />
    <path d="M 31.74566062326619,400.92426446732088 A 296,296 0 0,1 27.870749054415,386.92213325136618" />
    <path d="M 24.687557000643835,372.74673531677411 A 296,296 0 0,1 22.203753050424837,358.43222043878723" />
    <path d="M 20.425320905029707,344.01307353754987 A 296,296 0 0,1 19.356544963268959,329.52403160091575" />
    <path d="M 19,315.00000000000006 A 296,296 0 0,1 19.356544963268959,300.47596839908437" />
    <path d="M 22.203753050424837,271.56777956121289 A 296,296 0 0,1 24.687557000643778,257.253264683226" />
    <path d="M 27.870749054414944,243.07786674863394 A 296,296 0 0,1 31.745660623266133,229.07573553267923" />
    <path d="M 36.302956705825807,215.280603395903 A 296,296 0 0,1 41.531658376659152,201.72570401993335" />
    <path d="M 47.4191692354608,188.44369234463647 A 296,296 0 0,1 61.112331439919416,162.82558771880645" />
    <path d="M 68.884994758446538,150.55121102619785 A 296,296 0 0,1 77.250570681728988,138.67300587023988" />
    <path d="M 86.188905804629883,127.21958788756089 A 296,296 0 0,1 105.69639276878189,105.69639276878198" />
    <path d="M 116.21854936528246,95.678466894932171 A 296,296 0 0,1 127.21958788756081,86.188905804629968" />
    <path d="M 150.55121102619773,68.884994758446624 A 296,296 0 0,1 162.82558771880633,61.1123314399195" />
    <path d="M 188.44369234463636,47.419169235460856 A 296,296 0 0,1 201.72570401993323,41.531658376659209" />
    <path d="M 215.28060339590286,36.302956705825864 A 296,296 0 0,1 229.07573553267912,31.74566062326619" />
    <path d="M 330.30911439015443,3.3758176639861972 A 312,312 0 1,1 315,3" />
  </g>
  <g fill="none" stroke="#000000" stroke-width="2" stroke-linecap="butt">
    <line x1="315" y1="3" x2="315" y2="67" />
    <line x1="315" y1="115" x2="315" y2="163" />
    <line x1="315" y1="243" x2="315" y2="259" />
    <line x1="329.52403160091575" y1="19.356544963268959" x2="328.73894881167706" y2="35.337272262551721" />
    <line x1="336.17170231118507" y1="100.04009903880547" x2="333.03515382063915" y2="131.88601029231577" />
    <line x1="329.89860533009323" y1="163.73192154582605" x2="328.33033108482022" y2="179.65487717258122" />
    <line x1="375.86818046903204" y1="8.99499251419212" x2="372.746735316774" y2="24.687557000643778" />
    <line x1="369.62529016451589" y1="40.380121487095494" x2="363.38239985999979" y2="71.765250459998867" />
    <line x1="350.8966192509676" y1="134.53550840580562" x2="344.65372894645151" y2="165.920637378709" />
    <line x1="338.41083864193541" y1="197.30576635161236" x2="329.04650318516121" y2="244.3834598109674" />
    <line x1="386.92213325136612" y1="27.870749054415" x2="379.14676749446164" y2="58.911749156640383" />
    <line x1="405.56881930339227" y1="16.434615251550838" x2="400.92426446732088" y2="31.74566062326619" />
    <line x1="396.27970963124943" y1="47.056705994981542" x2="391.63515479517804" y2="62.367751366696865" />
    <line x1="386.99059995910665" y1="77.678796738412217" x2="373.05693545089247" y2="123.61193285355824" />
    <line x1="359.12327094267829" y1="169.54506896870427" x2="354.4787161066069" y2="184.8561143404196" />
    <line x1="414.71939660409714" y1="36.302956705825864" x2="409.32915894982159" y2="51.367661748754188" />
    <line x1="422.15136106222513" y1="56.313730896839729" x2="397.6596213908594" y2="115.44202097756207" />
    <line x1="391.53668647301794" y1="130.22409349774264" x2="385.41375155517653" y2="145.00616601792325" />
    <line x1="367.0449468016522" y1="189.352383578465" x2="360.9220118838108" y2="204.13445609864559" />
    <line x1="354.79907696596933" y1="218.91652861882619" x2="342.55320713028647" y2="248.48067365918735" />
    <line x1="441.55630765536353" y1="47.4191692354608" x2="427.8745446655945" y2="76.346826615410947" />
    <line x1="462.07578188971127" y1="39.840565523313217" x2="454.5334341004953" y2="53.951305752886924" />
    <line x1="431.9063907328474" y1="96.283526441607961" x2="424.36404294363143" y2="110.39426667118164" />
    <line x1="416.82169515441547" y1="124.50500690075532" x2="394.19465178676762" y2="166.83722758947636" />
    <line x1="386.65230399755166" y1="180.94796781905004" x2="379.10995620833569" y2="195.05870804862371" />
    <line x1="475.40005618828513" y1="47.388673679915087" x2="458.94876837410209" y2="74.8359891999238" />
    <line x1="461.67054151717497" y1="95.49202235212806" x2="452.78141778886135" y2="108.79553614896878" />
    <line x1="443.89229406054767" y1="122.0990499458095" x2="426.11404660392043" y2="148.70607753949096" />
    <line x1="399.44667541897957" y1="188.61661893001312" x2="390.55755169066589" y2="201.92013272685387" />
    <line x1="381.66842796235227" y1="215.22364652369458" x2="372.77930423403865" y2="228.5271603205353" />
    <line x1="491.32699412976024" y1="77.2505706817291" x2="472.26461638600244" y2="102.95321168910974" />
    <line x1="512.93070465905737" y1="73.820738550826064" x2="502.78041211243908" y2="86.188905804629854" />
    <line x1="472.3295344725841" y1="123.29340756604123" x2="462.17924192596575" y2="135.66157481984502" />
    <line x1="421.57807173949243" y1="185.13424383506018" x2="411.42777919287414" y2="197.502411088864" />
    <line x1="524.52639391226967" y1="83.823248889252767" x2="513.78145063471743" y2="95.678466894932114" />
    <line x1="503.03650735716514" y1="107.53368490061146" x2="492.29156407961284" y2="119.38890290629081" />
    <line x1="524.303607231218" y1="105.69639276878192" x2="490.36248173426378" y2="139.63751826573619" />
    <line x1="479.048773235279" y1="150.95122676472096" x2="433.79393923934" y2="196.20606076066002" />
    <line x1="411.16652224137044" y1="218.83347775862953" x2="399.85281374238571" y2="230.14718625761429" />
    <line x1="388.53910524340097" y1="241.46089475659903" x2="377.22539674441617" y2="252.77460325558383" />
    <line x1="365.91168824543144" y1="264.08831175456856" x2="354.59797974644664" y2="275.40202025355336" />
    <line x1="546.1767511107472" y1="105.47360608773028" x2="510.61109709370919" y2="137.70843592038716" />
    <line x1="556.179261449174" y1="117.0692953409426" x2="531.44292694156638" y2="137.36988043417927" />
    <line x1="519.07475968776259" y1="147.52017298079758" x2="494.338425180155" y2="167.82075807403425" />
    <line x1="469.60209067254743" y1="188.12134316727091" x2="457.23392341874364" y2="198.27163571388923" />
    <line x1="432.497588911136" y1="218.57222080712589" x2="420.12942165733222" y2="228.72251335374421" />
    <line x1="552.74942931827081" y1="138.67300587023971" x2="527.04678831089018" y2="157.73538361399756" />
    <line x1="521.20446385103128" y1="177.21858221113862" x2="507.9009500541905" y2="186.10770593945227" />
    <line x1="494.59743625734978" y1="194.99682966776589" x2="467.99040866366829" y2="212.77507712439319" />
    <line x1="428.07986727314614" y1="239.44244830933408" x2="401.4728396794647" y2="257.22069576596135" />
    <line x1="388.169325882624" y1="266.10981949427503" x2="374.86581208578326" y2="274.99894322258865" />
    <line x1="582.61132632008491" y1="154.59994381171484" x2="541.44035304007184" y2="179.27687553298949" />
    <line x1="576.04869424711308" y1="175.46656589950464" x2="561.93795401753937" y2="183.00891368872061" />
    <line x1="547.82721378796577" y1="190.55126147793658" x2="533.716473558392" y2="198.09360926715254" />
    <line x1="505.49499309924465" y1="213.17830484558448" x2="491.384252869671" y2="220.72065263480044" />
    <line x1="477.27351264009729" y1="228.26300042401641" x2="449.05203218094994" y2="243.34769600244835" />
    <line x1="568.1170020745642" y1="195.284573839521" x2="553.65317338458908" y2="202.1254553344055" />
    <line x1="588.46834162334085" y1="201.7257040199334" x2="573.68626910316027" y2="207.84863893777487" />
    <line x1="558.90419658297969" y1="213.97157385561627" x2="544.12212406279912" y2="220.09450877345773" />
    <line x1="499.77590650225738" y1="238.46331352698203" x2="484.99383398207675" y2="244.58624844482347" />
    <line x1="470.21176146189617" y1="250.7091833626649" x2="440.64761642153496" y2="262.9550531983478" />
    <line x1="396.30139886099323" y1="281.32385795187207" x2="381.51932634081265" y2="287.44679286971353" />
    <line x1="613.56538474844911" y1="224.43118069660775" x2="582.94329400501852" y2="233.72029036875057" />
    <line x1="491.0770217747264" y1="261.58761938517893" x2="475.76597640301111" y2="266.23217422125032" />
    <line x1="602.129250945585" y1="243.07786674863388" x2="586.60875089447234" y2="246.96554962708609" />
    <line x1="621.00500748580794" y1="254.13181953096796" x2="558.23474954000108" y2="266.61760014000015" />
    <line x1="526.84962056709776" y1="272.8604904445163" x2="495.46449159419438" y2="279.1033807490324" />
    <line x1="479.77192710774273" y1="282.22482590129044" x2="448.38679813483935" y2="288.46771620580654" />
    <line x1="607.79624694957511" y1="271.56777956121294" x2="591.96942279013865" y2="273.91546715249871" />
    <line x1="625.49763472172549" y1="284.41865221717705" x2="609.57467909497018" y2="285.98692646245" />
    <line x1="577.72876784146" y1="289.12347495299593" x2="561.80581221470482" y2="290.69174919826895" />
    <line x1="529.95990096119453" y1="293.82829768881487" x2="514.03694533443934" y2="295.39657193408783" />
    <line x1="626.62418233601375" y1="299.69088560984557" x2="610.643455036731" y2="300.47596839908425" />
    <line x1="611" y1="315" x2="595" y2="315" />
    <line x1="515" y1="315" x2="483" y2="315" />
    <line x1="467" y1="315" x2="451" y2="315" />
    <line x1="403" y1="315" x2="371" y2="315" />
    <line x1="626.62418233601375" y1="330.30911439015443" x2="610.643455036731" y2="329.52403160091575" />
    <line x1="594.66272773744822" y1="328.73894881167706" x2="578.68200043816546" y2="327.95386602243838" />
    <line x1="609.57467909497029" y1="344.01307353754993" x2="593.6517234682151" y2="342.44479929227697" />
    <line x1="577.72876784146" y1="340.876525047004" x2="514.03694533443945" y2="334.60342806591211" />
    <line x1="591.96942279013865" y1="356.08453284750124" x2="576.1425986307022" y2="353.73684525621547" />
    <line x1="605.31244299935622" y1="372.74673531677394" x2="589.61987851290451" y2="369.62529016451589" />
    <line x1="542.54218505354947" y1="360.26095470774175" x2="526.84962056709776" y2="357.1395095554837" />
    <line x1="479.77192710774273" y1="347.77517409870956" x2="464.079362621291" y2="344.65372894645151" />
    <line x1="432.69423364838764" y1="338.41083864193536" x2="417.001669161936" y2="335.28939348967731" />
    <line x1="401.30910467548426" y1="332.16794833741926" x2="385.61654018903261" y2="329.04650318516121" />
    <line x1="598.25433937673392" y1="400.92426446732077" x2="567.63224863330311" y2="391.635154795178" />
    <line x1="552.32120326158781" y1="386.99059995910659" x2="537.01015788987252" y2="382.3460451230352" />
    <line x1="521.69911251815711" y1="377.7014902869638" x2="491.0770217747264" y2="368.412380614821" />
    <line x1="475.76597640301111" y1="363.76782577874962" x2="460.45493103129576" y2="359.12327094267823" />
    <line x1="593.69704329417414" y1="414.71939660409708" x2="563.56763320831749" y2="403.93892129554604" />
    <line x1="573.68626910316027" y1="422.15136106222513" x2="544.12212406279912" y2="409.90549122654227" />
    <line x1="514.557979022438" y1="397.6596213908594" x2="470.21176146189617" y2="379.29081663733507" />
    <line x1="440.64761642153496" y1="367.0449468016522" x2="425.86554390135439" y2="360.9220118838108" />
    <line x1="396.30139886099323" y1="348.67614204812787" x2="381.51932634081265" y2="342.55320713028647" />
    <line x1="366.73725382063208" y1="336.430272212445" x2="351.9551813004515" y2="330.3073372946036" />
    <line x1="582.58083076453931" y1="441.55630765536341" x2="568.1170020745642" y2="434.71542616047896" />
    <line x1="533.71647355839207" y1="431.9063907328474" x2="505.49499309924465" y2="416.82169515441552" />
    <line x1="491.384252869671" y1="409.27934736519956" x2="477.27351264009735" y2="401.73699957598359" />
    <line x1="463.16277241052364" y1="394.19465178676762" x2="449.05203218094994" y2="386.65230399755166" />
    <line x1="582.61132632008491" y1="475.40005618828513" x2="541.44035304007184" y2="450.72312446701051" />
    <line x1="574.41851903839415" y1="488.33791270211577" x2="534.50797764787194" y2="461.67054151717491" />
    <line x1="414.77635347630547" y1="381.66842796235221" x2="388.169325882624" y2="363.89018050572497" />
    <line x1="556.179261449174" y1="512.93070465905737" x2="519.07475968776259" y2="482.47982701920239" />
    <line x1="506.7065924339588" y1="472.32953447258404" x2="469.60209067254743" y2="441.87865683272906" />
    <line x1="432.49758891113606" y1="411.42777919287408" x2="420.12942165733227" y2="401.27748664625574" />
    <line x1="535.61731573020279" y1="535.61731573020279" x2="524.303607231218" y2="524.303607231218" />
    <line x1="490.36248173426384" y1="490.36248173426378" x2="467.73506473629425" y2="467.73506473629425" />
    <line x1="445.10764773832477" y1="445.10764773832477" x2="422.48023074035524" y2="422.48023074035518" />
    <line x1="411.16652224137044" y1="411.16652224137044" x2="399.85281374238571" y2="399.85281374238571" />
    <line x1="377.22539674441617" y1="377.22539674441617" x2="365.91168824543144" y2="365.91168824543144" />
    <line x1="524.52639391226978" y1="546.1767511107472" x2="513.78145063471743" y2="534.32153310506783" />
    <line x1="502.78041211243908" y1="543.81109419537017" x2="472.3295344725841" y2="506.7065924339588" />
    <line x1="452.02894937934741" y1="481.97025792635122" x2="431.72836428611078" y2="457.23392341874364" />
    <line x1="421.57807173949243" y1="444.86575616493985" x2="401.2774866462558" y2="420.12942165733222" />
    <line x1="488.33791270211589" y1="574.41851903839415" x2="479.44878897380227" y2="561.11500524155349" />
    <line x1="461.67054151717497" y1="534.50797764787194" x2="443.89229406054767" y2="507.9009500541905" />
    <line x1="426.11404660392043" y1="481.29392246050907" x2="408.33579914729319" y2="454.68689486682763" />
    <line x1="390.55755169066589" y1="428.07986727314619" x2="372.77930423403865" y2="401.4728396794647" />
    <line x1="363.89018050572497" y1="388.169325882624" x2="355.00105677741135" y2="374.86581208578326" />
    <line x1="467.17441228119367" y1="568.88766856008056" x2="458.94876837410209" y2="555.1640108000762" />
    <line x1="462.07578188971132" y1="590.15943447668678" x2="454.53343410049536" y2="576.04869424711308" />
    <line x1="446.99108631127939" y1="561.93795401753937" x2="424.36404294363149" y2="519.60573332881836" />
    <line x1="416.82169515441552" y1="505.49499309924465" x2="409.27934736519956" y2="491.384252869671" />
    <line x1="401.73699957598359" y1="477.27351264009729" x2="379.10995620833569" y2="434.94129195137629" />
    <line x1="428.2742959800666" y1="588.46834162334085" x2="416.02842614438373" y2="558.90419658297969" />
    <line x1="391.536686473018" y1="499.77590650225738" x2="385.41375155517653" y2="484.99383398207675" />
    <line x1="373.16788171949366" y1="455.4296889417156" x2="367.0449468016522" y2="440.64761642153496" />
    <line x1="360.9220118838108" y1="425.86554390135439" x2="342.55320713028647" y2="381.51932634081265" />
    <line x1="336.43027221244506" y1="366.73725382063208" x2="330.3073372946036" y2="351.9551813004515" />
    <line x1="400.92426446732088" y1="598.25433937673381" x2="391.6351547951781" y2="567.63224863330311" />
    <line x1="359.12327094267829" y1="460.4549310312957" x2="354.4787161066069" y2="445.14388565958041" />
    <line x1="390.80981612981839" y1="617.64975099669778" x2="379.1467674944617" y2="571.08825084335967" />
    <line x1="366.50384501225795" y1="573.9273140264529" x2="363.38239985999991" y2="558.23474954000108" />
    <line x1="360.26095470774186" y1="542.54218505354947" x2="350.89661925096766" y2="495.46449159419438" />
    <line x1="347.77517409870961" y1="479.77192710774273" x2="344.65372894645157" y2="464.079362621291" />
    <line x1="338.41083864193541" y1="432.69423364838764" x2="332.16794833741932" y2="401.30910467548426" />
    <line x1="344.01307353755" y1="609.57467909497018" x2="340.87652504700407" y2="577.72876784146" />
    <line x1="339.30825080173111" y1="561.80581221470482" x2="331.46687957536619" y2="482.19103408092906" />
    <line x1="315.00000000000006" y1="611" x2="315.00000000000006" y2="595" />
    <line x1="315.00000000000006" y1="579" x2="315" y2="531" />
    <line x1="315" y1="467" x2="315" y2="451" />
    <line x1="315" y1="419" x2="315" y2="403" />
    <line x1="315" y1="355" x2="315" y2="339" />
    <line x1="300.47596839908437" y1="610.643455036731" x2="302.04613397756174" y2="578.68200043816546" />
    <line x1="284.41865221717711" y1="625.49763472172549" x2="289.123474952996" y2="577.72876784146" />
    <line x1="290.69174919826895" y1="561.80581221470482" x2="292.26002344354197" y2="545.88285658794962" />
    <line x1="295.39657193408789" y1="514.03694533443945" x2="296.96484617936085" y2="498.11398970768425" />
    <line x1="300.10139466990677" y1="466.268078454174" x2="301.66966891517978" y2="450.34512282741878" />
    <line x1="271.567779561213" y1="607.79624694957511" x2="276.26315474378453" y2="576.1425986307022" />
    <line x1="257.253264683226" y1="605.31244299935622" x2="266.61760014000015" y2="558.23474954000108" />
    <line x1="269.7390452922582" y1="542.54218505354947" x2="272.86049044451624" y2="526.84962056709776" />
    <line x1="275.98193559677435" y1="511.1570560806461" x2="282.22482590129044" y2="479.77192710774273" />
    <line x1="288.46771620580654" y1="448.38679813483935" x2="291.58916135806459" y2="432.69423364838764" />
    <line x1="294.71060651032263" y1="417.001669161936" x2="297.83205166258068" y2="401.30910467548426" />
    <line x1="229.07573553267923" y1="598.25433937673392" x2="233.72029036875063" y2="582.94329400501852" />
    <line x1="243.00940004089341" y1="552.32120326158781" x2="247.6539548769648" y2="537.01015788987252" />
    <line x1="252.2985097130362" y1="521.69911251815711" x2="256.94306454910759" y2="506.38806714644181" />
    <line x1="266.23217422125038" y1="475.76597640301111" x2="275.52128389339316" y2="445.14388565958041" />
    <line x1="220.67084105017835" y1="578.63233825124576" x2="226.06107870445391" y2="563.56763320831749" />
    <line x1="201.72570401993346" y1="588.46834162334085" x2="207.84863893777489" y2="573.68626910316038" />
    <line x1="213.97157385561633" y1="558.90419658297969" x2="220.09450877345776" y2="544.12212406279912" />
    <line x1="232.34037860914063" y1="514.557979022438" x2="238.46331352698206" y2="499.77590650225738" />
    <line x1="250.70918336266493" y1="470.21176146189623" x2="256.83211828050639" y2="455.4296889417156" />
    <line x1="262.9550531983478" y1="440.647616421535" x2="275.20092303403067" y2="411.08347138117381" />
    <line x1="188.44369234463659" y1="582.58083076453931" x2="195.2845738395211" y2="568.1170020745642" />
    <line x1="198.0936092671526" y1="533.71647355839207" x2="213.17830484558451" y2="505.49499309924465" />
    <line x1="228.26300042401644" y1="477.27351264009735" x2="235.80534821323238" y2="463.16277241052364" />
    <line x1="243.34769600244835" y1="449.05203218094994" x2="250.89004379166431" y2="434.94129195137629" />
    <line x1="162.82558771880642" y1="568.88766856008056" x2="171.05123162589797" y2="555.1640108000762" />
    <line x1="159.44033475451144" y1="547.81149144471271" x2="177.21858221113871" y2="521.20446385103128" />
    <line x1="186.10770593945236" y1="507.90095005419056" x2="194.99682966776598" y2="494.59743625734984" />
    <line x1="221.66420085270687" y1="454.68689486682763" x2="230.55332458102049" y2="441.38338106998691" />
    <line x1="239.44244830933414" y1="428.07986727314619" x2="248.33157203764776" y2="414.77635347630547" />
    <line x1="257.22069576596141" y1="401.47283967946476" x2="274.99894322258865" y2="374.86581208578326" />
    <line x1="127.219587887561" y1="543.81109419537017" x2="157.67046552741599" y2="506.7065924339588" />
    <line x1="177.97105062065262" y1="481.97025792635122" x2="188.12134316727094" y2="469.60209067254743" />
    <line x1="218.57222080712592" y1="432.49758891113606" x2="228.72251335374426" y2="420.12942165733227" />
    <line x1="105.47360608773025" y1="546.1767511107472" x2="116.21854936528254" y2="534.32153310506783" />
    <line x1="126.96349264283484" y1="522.46631509938857" x2="137.70843592038713" y2="510.61109709370919" />
    <line x1="105.69639276878195" y1="524.30360723121817" x2="128.32380976675148" y2="501.67619023324858" />
    <line x1="150.95122676472099" y1="479.0487732352791" x2="162.26493526370575" y2="467.73506473629431" />
    <line x1="196.20606076066002" y1="433.79393923934003" x2="207.51976925964479" y2="422.48023074035524" />
    <line x1="218.83347775862956" y1="411.1665222413705" x2="264.08831175456856" y2="365.91168824543144" />
    <line x1="83.823248889252824" y1="524.52639391226978" x2="95.678466894932171" y2="513.78145063471754" />
    <line x1="73.82073855082615" y1="512.93070465905748" x2="110.92524031223752" y2="482.4798270192025" />
    <line x1="123.29340756604131" y1="472.32953447258421" x2="135.6615748198451" y2="462.17924192596587" />
    <line x1="148.02974207364889" y1="452.02894937934752" x2="172.76607658125644" y2="431.72836428611083" />
    <line x1="77.250570681729073" y1="491.32699412976024" x2="102.95321168910971" y2="472.26461638600233" />
    <line x1="55.581480961605905" y1="488.33791270211589" x2="68.884994758446624" y2="479.44878897380227" />
    <line x1="95.49202235212806" y1="461.67054151717497" x2="108.79553614896878" y2="452.78141778886135" />
    <line x1="162.00959133633168" y1="417.22492287560681" x2="241.83067411737602" y2="363.89018050572497" />
    <line x1="61.112331439919473" y1="467.17441228119367" x2="74.83598919992383" y2="458.94876837410209" />
    <line x1="53.951305752886924" y1="454.53343410049536" x2="68.062045982460631" y2="446.99108631127939" />
    <line x1="110.39426667118164" y1="424.36404294363149" x2="124.50500690075535" y2="416.82169515441552" />
    <line x1="180.94796781905006" y1="386.65230399755166" x2="195.05870804862371" y2="379.10995620833569" />
    <line x1="32.95534054548574" y1="448.3971891502481" x2="47.419169235460856" y2="441.55630765536364" />
    <line x1="61.882997925435916" y1="434.71542616047907" x2="76.346826615411" y2="427.87454466559456" />
    <line x1="26.749585856478632" y1="434.39723089790817" x2="71.095803417020363" y2="416.02842614438384" />
    <line x1="85.87787593720094" y1="409.90549122654238" x2="100.65994845738152" y2="403.782556308701" />
    <line x1="115.44202097756212" y1="397.65962139085951" x2="145.00616601792328" y2="385.41375155517665" />
    <line x1="159.78823853810386" y1="379.29081663733518" x2="174.57031105828446" y2="373.16788171949372" />
    <line x1="189.35238357846504" y1="367.04494680165226" x2="204.13445609864561" y2="360.92201188381085" />
    <line x1="248.48067365918737" y1="342.55320713028652" x2="278.04481869954856" y2="330.3073372946036" />
    <line x1="36.302956705825864" y1="414.71939660409708" x2="51.367661748754188" y2="409.32915894982159" />
    <line x1="31.74566062326619" y1="400.92426446732088" x2="92.98984211012754" y2="382.34604512303531" />
    <line x1="138.92297822527357" y1="368.41238061482107" x2="154.23402359698892" y2="363.76782577874968" />
    <line x1="24.687557000643835" y1="372.74673531677411" x2="87.457814946450554" y2="360.26095470774186" />
    <line x1="103.15037943290224" y1="357.13950955548381" x2="134.53550840580562" y2="350.89661925096766" />
    <line x1="165.920637378709" y1="344.65372894645157" x2="212.99833083806405" y2="335.28939348967737" />
    <line x1="20.425320905029707" y1="344.01307353754987" x2="36.348276531784848" y2="342.44479929227691" />
    <line x1="52.271232158539988" y1="340.87652504700395" x2="68.194187785295156" y2="339.308250801731" />
    <line x1="84.117143412050325" y1="337.73997655645803" x2="100.04009903880547" y2="336.17170231118507" />
    <line x1="115.96305466556061" y1="334.60342806591211" x2="147.80896591907091" y2="331.46687957536614" />
    <line x1="3.3758176639861972" y1="330.30911439015443" x2="19.356544963268959" y2="329.52403160091575" />
    <line x1="35.337272262551721" y1="328.73894881167706" x2="51.317999561834483" y2="327.95386602243838" />
    <line x1="3" y1="315.00000000000006" x2="35" y2="315.00000000000006" />
    <line x1="67" y1="315.00000000000006" x2="83" y2="315.00000000000006" />
    <line x1="131" y1="315.00000000000006" x2="179" y2="315" />
    <line x1="211" y1="315" x2="291" y2="315" />
    <line x1="35.337272262551721" y1="301.26105118832305" x2="51.317999561834483" y2="302.04613397756174" />
    <line x1="4.5023652782745671" y1="284.41865221717723" x2="20.425320905029707" y2="285.98692646245024" />
    <line x1="36.348276531784848" y1="287.5552007077232" x2="68.194187785295156" y2="290.69174919826912" />
    <line x1="147.80896591907091" y1="298.53312042463392" x2="163.73192154582605" y2="300.10139466990688" />
    <line x1="22.203753050424837" y1="271.56777956121289" x2="53.857401369297861" y2="276.26315474378447" />
    <line x1="40.380121487095494" y1="260.37470983548405" x2="118.8429439193539" y2="275.98193559677435" />
    <line x1="228.69089532451574" y1="297.83205166258074" x2="244.3834598109674" y2="300.95349681483879" />
    <line x1="12.350249003302281" y1="239.19018387018173" x2="27.870749054415" y2="243.07786674863394" />
    <line x1="43.391249105527663" y1="246.96554962708615" x2="58.911749156640383" y2="250.85323250553836" />
    <line x1="108.30088748184286" y1="252.2985097130362" x2="138.92297822527357" y2="261.587619385179" />
    <line x1="169.54506896870424" y1="270.87672905732177" x2="184.8561143404196" y2="275.52128389339316" />
    <line x1="36.302956705825807" y1="215.280603395903" x2="66.432366791682483" y2="226.06107870445402" />
    <line x1="26.749585856478575" y1="195.60276910209191" x2="71.095803417020335" y2="213.97157385561624" />
    <line x1="145.00616601792325" y1="244.58624844482344" x2="174.57031105828443" y2="256.83211828050634" />
    <line x1="189.35238357846504" y1="262.95505319834774" x2="204.13445609864561" y2="269.0779881161892" />
    <line x1="248.48067365918735" y1="287.44679286971353" x2="278.04481869954856" y2="299.6926627053964" />
    <line x1="68.062045982460575" y1="183.00891368872067" x2="82.172786212034254" y2="190.55126147793663" />
    <line x1="96.283526441607961" y1="198.0936092671526" x2="110.39426667118164" y2="205.63595705636857" />
    <line x1="124.50500690075532" y1="213.17830484558454" x2="152.72648735990268" y2="228.26300042401644" />
    <line x1="166.83722758947636" y1="235.80534821323241" x2="180.94796781905004" y2="243.34769600244837" />
    <line x1="47.388673679915087" y1="154.59994381171487" x2="61.112331439919416" y2="162.82558771880642" />
    <line x1="95.492022352128" y1="168.32945848282512" x2="135.40256374265019" y2="194.996829667766" />
    <line x1="162.00959133633162" y1="212.77507712439325" x2="175.31310513317237" y2="221.66420085270687" />
    <line x1="188.61661893001309" y1="230.55332458102052" x2="201.92013272685381" y2="239.44244830933417" />
    <line x1="215.22364652369453" y1="248.33157203764779" x2="255.13418791421674" y2="274.99894322258865" />
    <line x1="64.39925017803867" y1="129.14181699836092" x2="102.95321168910965" y2="157.7353836139977" />
    <line x1="123.29340756604125" y1="157.6704655274159" x2="135.66157481984504" y2="167.82075807403422" />
    <line x1="148.02974207364883" y1="177.97105062065256" x2="160.39790932745262" y2="188.12134316727088" />
    <line x1="107.53368490061146" y1="126.96349264283487" x2="119.38890290629081" y2="137.70843592038716" />
    <line x1="105.69639276878189" y1="105.69639276878198" x2="117.01010126776666" y2="117.01010126776674" />
    <line x1="150.95122676472093" y1="150.951226764721" x2="173.57864376269046" y2="173.57864376269052" />
    <line x1="184.89235226167523" y1="184.89235226167529" x2="196.20606076066" y2="196.20606076066005" />
    <line x1="207.51976925964476" y1="207.51976925964482" x2="218.8334777586295" y2="218.83347775862956" />
    <line x1="230.14718625761429" y1="230.14718625761432" x2="241.46089475659903" y2="241.46089475659909" />
    <line x1="105.47360608773019" y1="83.823248889252824" x2="116.21854936528249" y2="95.678466894932171" />
    <line x1="126.96349264283478" y1="107.53368490061152" x2="137.70843592038708" y2="119.38890290629087" />
    <line x1="147.52017298079747" y1="110.92524031223752" x2="167.82075807403413" y2="135.6615748198451" />
    <line x1="208.42192826050749" y1="185.13424383506023" x2="218.5722208071258" y2="197.50241108886402" />
    <line x1="129.14181699836084" y1="64.399250178038756" x2="138.67300587023976" y2="77.250570681729073" />
    <line x1="159.44033475451138" y1="82.188508555287342" x2="186.1077059394523" y2="122.0990499458095" />
    <line x1="248.33157203764773" y1="215.22364652369458" x2="257.22069576596135" y2="228.5271603205353" />
    <line x1="162.82558771880633" y1="61.112331439919473" x2="171.05123162589788" y2="74.83598919992383" />
    <line x1="167.92421811028865" y1="39.840565523313273" x2="175.46656589950462" y2="53.951305752886981" />
    <line x1="183.00891368872058" y1="68.06204598246066" x2="190.55126147793655" y2="82.172786212034339" />
    <line x1="205.63595705636848" y1="110.39426667118167" x2="220.72065263480042" y2="138.61574713032903" />
    <line x1="235.80534821323235" y1="166.83722758947639" x2="250.89004379166428" y2="195.05870804862374" />
    <line x1="201.72570401993323" y1="41.531658376659209" x2="207.8486389377747" y2="56.313730896839786" />
    <line x1="220.09450877345756" y1="85.87787593720094" x2="226.21744369129903" y2="100.65994845738152" />
    <line x1="238.46331352698192" y1="130.2240934977427" x2="250.70918336266482" y2="159.78823853810386" />
    <line x1="275.20092303403061" y1="218.91652861882619" x2="281.323857951872" y2="233.69860113900677" />
    <line x1="215.28060339590289" y1="36.302956705825864" x2="220.67084105017841" y2="51.367661748754188" />
    <line x1="224.4311806966077" y1="16.434615251550838" x2="229.07573553267912" y2="31.74566062326619" />
    <line x1="233.72029036875051" y1="47.056705994981542" x2="238.3648452048219" y2="62.367751366696865" />
    <line x1="243.0094000408933" y1="77.678796738412217" x2="247.65395487696469" y2="92.98984211012754" />
    <line x1="252.29850971303608" y1="108.30088748184289" x2="256.94306454910748" y2="123.61193285355824" />
    <line x1="239.19018387018156" y1="12.350249003302281" x2="246.96554962708603" y2="43.391249105527663" />
    <line x1="257.25326468322589" y1="24.687557000643835" x2="260.37470983548394" y2="40.380121487095494" />
    <line x1="269.73904529225814" y1="87.457814946450554" x2="291.58916135806453" y2="197.30576635161236" />
    <line x1="297.83205166258068" y1="228.69089532451574" x2="300.95349681483873" y2="244.38345981096742" />
    <line x1="269.22009196992695" y1="6.3769288909883812" x2="271.56777956121272" y2="22.203753050424837" />
    <line x1="284.41865221717711" y1="4.5023652782745671" x2="285.98692646245007" y2="20.425320905029707" />
    <line x1="293.82829768881493" y1="100.04009903880547" x2="300.10139466990682" y2="163.73192154582605" />
    <line x1="299.69088560984557" y1="3.3758176639861972" x2="300.47596839908425" y2="19.356544963268959" />
  </g>
  <path fill="none" stroke="#ff0000" stroke-width="2" stroke-linecap="square" stroke-linejoin="round" d="M 322.65686329914865,3.0939685667842696 L 322.46053347096534,11.091559116353892 A 304,304 0 0,1 337.36362733429888,11.823701169678202 L 335.00956129910952,43.736995783396253 A 272,272 0 0,1 348.29570365418681,45.045566589150894 L 346.33713285099935,60.925239142730248 A 256,256 0 0,0 327.56132462781903,59.308363211475864 L 326.77624183858035,75.289090510758626 A 240,240 0 0,0 256.68475682321662,82.192499233309462 L 252.79707394476438,66.671999182196743 A 256,256 0 0,0 178.0406093089031,98.717487296075 L 169.48064739070955,85.199830252079693 A 272,272 0 0,1 180.93169171349868,78.336338418430529 L 165.15894956214558,50.493554702951769 A 304,304 0 0,0 139.95430980897504,66.454216801918534 L 149.16724087166057,79.53557381234387 A 288,288 0 0,0 116.41232311572466,106.41684010997759 L 105.37967439993159,94.828886782754125 A 304,304 0 0,0 75.342686001511737,127.96959646348938 L 87.956228843537446,137.81330191277942 A 288,288 0 0,1 106.4168401099775,116.41232311572475 L 118.00479343720096,127.44497183151782 A 272,272 0 0,1 127.44497183151773,118.00479343720105 L 138.47762054731081,129.59274676442453 A 256,256 0 0,0 105.69828783319449,167.59310299703171 L 79.535573812343813,149.16724087166068 A 288,288 0 0,0 57.751401255691576,185.5119370594733 L 72.042990074819841,192.705718333947 A 272,272 0 0,0 66.33494644863967,204.77436259064271 L 80.962302539896172,211.25822361472257 A 256,256 0 0,1 83.5787409603985,205.54589608184779 L 98.042569650373622,212.3867775767323 A 240,240 0 0,0 82.192499233309434,256.68475682321667 L 128.75399938664754,268.34780545857336 A 192,192 0 0,0 123.23127240860688,305.57900652913582 L 171.17345430645517,307.93425489685188 A 144,144 0 0,1 175.31549953998567,280.01085409393 L 190.83599959109836,283.89853697238226 A 128,128 0 0,0 188.38540672450804,333.78150073028638 L 172.55858256507156,336.1291883215722 A 144,144 0 0,1 171.17345430645517,322.06574510314817 L 155.19272700717241,322.85082789238686 A 160,160 0 0,0 159.79499948887298,353.87682878452227 L 175.31549953998567,349.98914590607 A 144,144 0 0,0 184.82554179022418,376.56793345396068 L 170.36171310024909,383.40881494884519 A 160,160 0 0,0 177.76342239995648,397.25643907091546 L 164.03976463995213,405.48208297800704 A 176,176 0 0,1 155.897884410274,390.2496964437297 L 141.43405572029892,397.09057793861427 A 192,192 0 0,0 160.78415395571616,429.37426646254715 L 173.63547445940648,419.84307759066826 A 176,176 0 0,0 224.51791702199301,465.96023536004793 L 216.29227311490146,479.68389312005229 A 192,192 0 0,0 232.9094220613859,488.56594427970117 L 239.75030355627041,474.10211558972605 A 176,176 0 0,0 272.23548833702557,485.72550056223974 L 276.12317121547778,470.20500051112708 A 160,160 0 0,0 338.47687591285791,473.26824159436495 L 336.12918832157209,457.44141743492844 A 144,144 0 0,1 322.06574510314817,458.82654569354486 L 321.28066231390949,442.8458183942621 A 128,128 0 0,0 380.80515125673242,424.7892620800348 L 389.03079516382394,438.51291984003916 A 144,144 0 0,0 400.78069984691041,430.66188453321286 L 410.31188871878936,443.51320503690317 A 160,160 0 0,1 397.25643907091546,452.23657760004352 L 421.93337079219015,493.40755088005659 A 208,208 0 0,0 438.90545533442616,482.06716654797413 L 419.84307759066826,456.36452554059349 A 176,176 0 0,0 433.1943760530753,445.40739806247279 L 443.93931933062754,457.26261606815211 A 192,192 0 0,0 479.68389312005229,413.70772688509857 L 465.96023536004793,405.482082978007 A 176,176 0 0,0 474.10211558972605,390.24969644372959 L 459.63828689975094,383.40881494884513 A 160,160 0 0,0 465.64705042928335,368.90237654275518 L 480.71175547221168,374.29261419703073 A 176,176 0 0,0 490.78800029211038,323.63591068162555 L 538.73018218995867,325.9911590493416 A 224,224 0 0,0 480.97305207951081,164.57079411426787 L 421.6969620511141,218.29551050202934 A 144,144 0 0,0 400.78069984691041,199.33811546678714 L 410.31188871878931,186.48679496309683 A 160,160 0 0,0 353.87682878452222,159.79499948887298 L 349.98914590607,175.31549953998567 A 144,144 0 0,0 336.12918832157209,172.55858256507153 L 338.47687591285785,156.73175840563505 A 160,160 0 0,0 322.85082789238686,155.19272700717241 L 322.06574510314817,171.17345430645517 A 144,144 0 0,0 307.93425489685177,171.17345430645517 L 308.71933768609051,187.15418160573793 A 128,128 0 0,1 352.1564386885712,192.51163702627727 L 347.51188385249981,207.82268239799259 A 112,112 0 0,1 367.79643452451171,216.22481839298422 L 360.2540867352958,230.33555862255793 A 96,96 0 0,1 375.90175527970996,240.79099647717726 L 365.75146273309161,253.15916373098105 A 80,80 0 0,0 352.71173894607983,244.44629885213158 L 345.16939115686387,258.55703908170528 A 64,64 0 0,0 327.48578060903219,252.22974205419325 L 324.36433545677414,267.92230654064497 A 48,48 0 0,0 275.08945860947779,288.33262881505914 L 261.78594481263707,279.44350508674546 A 64,64 0 0,0 258.55703908170528,284.83060884313613 L 244.44629885213158,277.28826105392022 A 80,80 0 0,0 238.4447731414233,291.77722581964304 L 253.75581851313862,296.42178065571443 A 64,64 0 0,0 252.22974205419325,302.51421939096781 L 283.61487102709663,308.7571096954839 A 32,32 0 1,1 341.60702759368144,332.77824745662724 L 354.91054139052216,341.66737118494092 A 48,48 0 0,1 341.66737118494092,354.91054139052216 L 350.55649491325454,368.21405518736287 A 64,64 0 0,1 265.52733098478484,355.60117018647333 L 253.15916373098108,365.75146273309167 A 80,80 0 0,1 235.38522186622424,322.84137122636486 L 251.30817749297938,321.2730969810919 A 64,64 0 0,0 252.22974205419325,327.48578060903225 L 283.61487102709663,321.2428903045161 A 32,32 0 0,0 302.75413016431713,344.56414504036115 L 305.81559762323786,337.17310878027087" />
  <type>Circular</type>
</svg>