<?xml version="1.0" encoding="utf-8" standalone="no"?>
<!DOCTYPE svg PUBLIC "-//W3C//DTD SVG 1.1//EN" "http://www.w3.org/Graphics/SVG/1.1/DTD/svg11.dtd"[]>
<svg width="628" height="628" version="1.1" xmlns="http://www.w3.org/2000/svg">
  <title>39 cells diameter theta maze</title>
  <g fill="none" stroke="#000000" stroke-width="2" stroke-linecap="square">
    <path d="M 298.02943725152284,331.97056274847716 A 24,24 0 1,1 315,339" />
    <path d="M 299.6926627053964,278.04481869954856 A 40,40 0 0,1 315,275" />
    <path d="M 330.3073372946036,278.0448186995485 A 40,40 0 0,1 343.2842712474619,286.7157287525381" />
    <path d="M 355,315 A 40,40 0 0,1 330.3073372946036,351.9551813004515" />
    <path d="M 315,355 A 40,40 0 0,1 278.04481869954856,299.6926627053964" />
    <path d="M 315,259 A 56,56 0 0,1 354.59797974644664,275.40202025355336" />
    <path d="M 366.73725382063208,293.569727787555 A 56,56 0 0,1 366.73725382063208,336.430272212445" />
    <path d="M 336.43027221244506,366.73725382063208 A 56,56 0 0,1 315,371" />
    <path d="M 293.569727787555,366.73725382063208 A 56,56 0 0,1 263.26274617936792,336.43027221244506" />
    <path d="M 259,315 A 56,56 0 0,1 263.26274617936792,293.56972778755494" />
    <path d="M 329.04650318516121,244.3834598109674 A 72,72 0 0,1 342.55320713028647,248.48067365918735" />
    <path d="M 355.00105677741135,255.13418791421674 A 72,72 0 0,1 374.86581208578326,274.99894322258865" />
    <path d="M 381.51932634081265,287.44679286971353 A 72,72 0 0,1 342.55320713028647,381.51932634081265" />
    <path d="M 329.04650318516127,385.61654018903261 A 72,72 0 0,1 287.44679286971353,381.51932634081265" />
    <path d="M 274.99894322258865,374.86581208578326 A 72,72 0 0,1 264.08831175456856,365.91168824543144" />
    <path d="M 255.13418791421674,355.00105677741135 A 72,72 0 0,1 244.3834598109674,329.04650318516127" />
    <path d="M 244.3834598109674,300.95349681483879 A 72,72 0 0,1 300.95349681483873,244.3834598109674" />
    <path d="M 281.323857951872,233.69860113900677 A 88,88 0 0,1 332.16794833741926,228.69089532451574" />
    <path d="M 396.30139886099323,281.32385795187213 A 88,88 0 0,1 401.30910467548426,297.83205166258068" />
    <path d="M 403,315 A 88,88 0 0,1 396.30139886099323,348.67614204812787" />
    <path d="M 377.22539674441617,377.22539674441617 A 88,88 0 0,1 281.32385795187213,396.30139886099323" />
    <path d="M 228.69089532451574,297.83205166258074 A 88,88 0 0,1 252.7746032555838,252.77460325558383" />
    <path d="M 315,211 A 104,104 0 0,1 354.79907696596933,218.91652861882619" />
    <path d="M 372.77930423403865,228.5271603205353 A 104,104 0 0,1 388.53910524340097,241.46089475659906" />
    <path d="M 401.4728396794647,257.22069576596135 A 104,104 0 0,1 411.08347138117381,275.20092303403067" />
    <path d="M 417.001669161936,294.71060651032263 A 104,104 0 0,1 401.47283967946476,372.77930423403859" />
    <path d="M 354.79907696596933,411.08347138117381 A 104,104 0 0,1 315,419" />
    <path d="M 275.20092303403067,411.08347138117381 A 104,104 0 0,1 212.99833083806402,335.28939348967737" />
    <path d="M 212.99833083806402,294.71060651032263 A 104,104 0 0,1 228.52716032053527,257.22069576596141" />
    <path d="M 241.46089475659903,241.46089475659909 A 104,104 0 0,1 294.71060651032263,212.99833083806405" />
    <path d="M 291.58916135806453,197.30576635161236 A 120,120 0 0,1 315,195" />
    <path d="M 338.41083864193541,197.30576635161236 A 120,120 0 0,1 360.9220118838108,204.13445609864559" />
    <path d="M 381.66842796235227,215.22364652369458 A 120,120 0 0,1 414.77635347630542,248.33157203764773" />
    <path d="M 425.86554390135439,269.0779881161892 A 120,120 0 0,1 432.69423364838764,291.58916135806459" />
    <path d="M 425.86554390135439,360.92201188381074 A 120,120 0 0,1 360.9220118838108,425.86554390135439" />
    <path d="M 338.41083864193541,432.69423364838764 A 120,120 0 0,1 230.14718625761429,399.85281374238571" />
    <path d="M 215.22364652369458,381.66842796235227 A 120,120 0 0,1 195,315" />
    <path d="M 215.22364652369453,248.33157203764779 A 120,120 0 0,1 269.07798811618915,204.13445609864561" />
    <path d="M 301.66966891517978,179.65487717258122 A 136,136 0 0,1 315,179" />
    <path d="M 328.33033108482022,179.65487717258122 A 136,136 0 0,1 354.4787161066069,184.8561143404196" />
    <path d="M 367.0449468016522,189.35238357846498 A 136,136 0 0,1 390.55755169066589,201.92013272685387" />
    <path d="M 401.2774866462558,209.87057834266778 A 136,136 0 0,1 411.16652224137044,218.83347775862953" />
    <path d="M 420.12942165733222,228.72251335374421 A 136,136 0 0,1 448.38679813483935,288.46771620580654" />
    <path d="M 450.34512282741878,301.66966891517973 A 136,136 0 0,1 451,315" />
    <path d="M 450.34512282741878,328.33033108482027 A 136,136 0 0,1 445.14388565958041,354.47871610660684" />
    <path d="M 420.12942165733227,401.27748664625574 A 136,136 0 0,1 401.2774866462558,420.12942165733222" />
    <path d="M 390.55755169066589,428.07986727314619 A 136,136 0 0,1 354.4787161066069,445.14388565958041" />
    <path d="M 275.52128389339316,445.14388565958041 A 136,136 0 0,1 228.72251335374423,420.12942165733227" />
    <path d="M 218.83347775862956,411.16652224137044 A 136,136 0 0,1 201.92013272685384,390.55755169066589" />
    <path d="M 195.05870804862371,379.10995620833569 A 136,136 0 0,1 184.8561143404196,354.4787161066069" />
    <path d="M 179.65487717258122,328.33033108482022 A 136,136 0 0,1 184.8561143404196,275.52128389339316" />
    <path d="M 189.352383578465,262.95505319834774 A 136,136 0 0,1 228.72251335374415,209.87057834266784" />
    <path d="M 250.89004379166428,195.05870804862374 A 136,136 0 0,1 275.5212838933931,184.8561143404196" />
    <path d="M 285.34627105354843,165.920637378709 A 152,152 0 0,1 329.89860533009323,163.73192154582608" />
    <path d="M 344.65372894645151,165.92063737870896 A 152,152 0 0,1 386.65230399755166,180.94796781905004" />
    <path d="M 399.44667541897957,188.61661893001312 A 152,152 0 0,1 441.38338106998685,230.55332458102046" />
    <path d="M 455.4296889417156,256.83211828050634 A 152,152 0 0,1 466.26807845417392,300.10139466990677" />
    <path d="M 467,315 A 152,152 0 0,1 464.079362621291,344.65372894645151" />
    <path d="M 460.45493103129576,359.12327094267823 A 152,152 0 0,1 449.05203218094994,386.65230399755166" />
    <path d="M 441.38338106998691,399.44667541897951 A 152,152 0 0,1 432.49758891113606,411.42777919287408" />
    <path d="M 422.48023074035524,422.48023074035518 A 152,152 0 0,1 399.44667541897951,441.38338106998685" />
    <path d="M 386.65230399755166,449.05203218094994 A 152,152 0 0,1 344.65372894645157,464.079362621291" />
    <path d="M 329.89860533009323,466.26807845417392 A 152,152 0 0,1 315,467" />
    <path d="M 300.10139466990677,466.26807845417392 A 152,152 0 0,1 270.87672905732177,460.45493103129576" />
    <path d="M 256.83211828050639,455.4296889417156 A 152,152 0 0,1 230.55332458102049,441.38338106998691" />
    <path d="M 174.57031105828446,373.16788171949372 A 152,152 0 0,1 169.54506896870424,359.12327094267829" />
    <path d="M 165.920637378709,344.65372894645157 A 152,152 0 0,1 165.92063737870896,285.34627105354849" />
    <path d="M 180.94796781905004,243.34769600244837 A 152,152 0 0,1 188.61661893001309,230.55332458102052" />
    <path d="M 197.502411088864,218.57222080712586 A 152,152 0 0,1 207.51976925964476,207.51976925964482" />
    <path d="M 218.5722208071258,197.50241108886405 A 152,152 0 0,1 270.87672905732171,169.54506896870427" />
    <path d="M 298.53312042463381,147.80896591907091 A 168,168 0 0,1 315,147" />
    <path d="M 331.46687957536619,147.80896591907091 A 168,168 0 0,1 363.76782577874968,154.23402359698892" />
    <path d="M 379.29081663733507,159.78823853810383 A 168,168 0 0,1 421.57807173949243,185.13424383506018" />
    <path d="M 454.68689486682763,221.66420085270681 A 168,168 0 0,1 463.16277241052364,235.80534821323238" />
    <path d="M 470.21176146189617,250.70918336266493 A 168,168 0 0,1 482.19103408092906,298.53312042463381" />
    <path d="M 479.77192710774273,347.77517409870956 A 168,168 0 0,1 470.21176146189617,379.29081663733507" />
    <path d="M 463.16277241052364,394.19465178676762 A 168,168 0 0,1 454.68689486682763,408.33579914729313" />
    <path d="M 444.86575616493985,421.57807173949243 A 168,168 0 0,1 421.57807173949243,444.86575616493985" />
    <path d="M 408.33579914729319,454.68689486682763 A 168,168 0 0,1 379.29081663733507,470.21176146189617" />
    <path d="M 363.76782577874968,475.76597640301111 A 168,168 0 0,1 331.46687957536619,482.19103408092906" />
    <path d="M 315,483 A 168,168 0 0,1 282.22482590129044,479.77192710774273" />
    <path d="M 266.23217422125038,475.76597640301111 A 168,168 0 0,1 235.80534821323241,463.16277241052364" />
    <path d="M 221.66420085270687,454.68689486682763 A 168,168 0 0,1 208.42192826050757,444.86575616493985" />
    <path d="M 196.20606076066002,433.79393923934003 A 168,168 0 0,1 175.3131051331724,408.33579914729319" />
    <path d="M 154.23402359698892,363.76782577874968 A 168,168 0 0,1 159.78823853810386,250.70918336266487" />
    <path d="M 166.83722758947636,235.80534821323241 A 168,168 0 0,1 175.31310513317237,221.66420085270687" />
    <path d="M 185.1342438350602,208.42192826050754 A 168,168 0 0,1 196.20606076066,196.20606076066002" />
    <path d="M 221.66420085270681,175.3131051331724 A 168,168 0 0,1 250.70918336266482,159.78823853810386" />
    <path d="M 266.23217422125032,154.23402359698892 A 168,168 0 0,1 282.22482590129039,150.2280728922573" />
    <path d="M 279.10338074903234,134.53550840580562 A 184,184 0 0,1 368.41238061482107,138.92297822527357" />
    <path d="M 401.73699957598353,152.72648735990268 A 184,184 0 0,1 417.22492287560681,162.00959133633168" />
    <path d="M 445.10764773832477,184.89235226167526 A 184,184 0 0,1 457.23392341874359,198.27163571388923" />
    <path d="M 477.27351264009735,228.26300042401641 A 184,184 0 0,1 495.46449159419444,279.1033807490324" />
    <path d="M 498.11398970768425,296.96484617936085 A 184,184 0 0,1 491.0770217747264,368.412380614821" />
    <path d="M 477.27351264009735,401.73699957598359 A 184,184 0 0,1 417.22492287560681,467.99040866366835" />
    <path d="M 368.41238061482107,491.0770217747264 A 184,184 0 0,1 315,499" />
    <path d="M 279.1033807490324,495.46449159419444 A 184,184 0 0,1 261.587619385179,491.0770217747264" />
    <path d="M 244.58624844482353,484.99383398207681 A 184,184 0 0,1 198.27163571388928,457.23392341874364" />
    <path d="M 184.89235226167529,445.10764773832477 A 184,184 0 0,1 172.76607658125647,431.72836428611083" />
    <path d="M 162.00959133633168,417.22492287560681 A 184,184 0 0,1 145.00616601792328,385.41375155517665" />
    <path d="M 134.53550840580562,350.89661925096766 A 184,184 0 0,1 131.88601029231577,333.03515382063915" />
    <path d="M 138.92297822527354,261.587619385179 A 184,184 0 0,1 145.00616601792325,244.58624844482344" />
    <path d="M 152.72648735990268,228.26300042401647 A 184,184 0 0,1 184.89235226167523,184.89235226167529" />
    <path d="M 228.26300042401638,152.72648735990271 A 184,184 0 0,1 261.58761938517893,138.92297822527357" />
    <path d="M 334.60342806591211,115.96305466556063 A 200,200 0 0,1 354.01806440322565,118.8429439193539" />
    <path d="M 391.53668647301794,130.22409349774264 A 200,200 0 0,1 441.87865683272912,160.3979093274526" />
    <path d="M 469.60209067254738,188.12134316727088 A 200,200 0 0,1 491.384252869671,220.72065263480044" />
    <path d="M 499.77590650225738,238.46331352698203 A 200,200 0 0,1 514.03694533443934,295.39657193408783" />
    <path d="M 515,315 A 200,200 0 0,1 511.1570560806461,354.01806440322565" />
    <path d="M 491.384252869671,409.27934736519956 A 200,200 0 0,1 481.29392246050907,426.11404660392043" />
    <path d="M 469.60209067254743,441.87865683272906 A 200,200 0 0,1 456.42135623730951,456.42135623730951" />
    <path d="M 426.11404660392043,481.29392246050907 A 200,200 0 0,1 409.27934736519956,491.38425286967095" />
    <path d="M 373.05693545089247,506.38806714644181 A 200,200 0 0,1 354.01806440322571,511.15705608064604" />
    <path d="M 295.39657193408789,514.03694533443934 A 200,200 0 0,1 275.98193559677435,511.1570560806461" />
    <path d="M 238.46331352698206,499.77590650225738 A 200,200 0 0,1 220.72065263480047,491.384252869671" />
    <path d="M 203.88595339607963,481.29392246050907 A 200,200 0 0,1 188.12134316727094,469.60209067254743" />
    <path d="M 160.39790932745268,441.87865683272918 A 200,200 0 0,1 138.61574713032903,409.27934736519956" />
    <path d="M 130.2240934977427,391.53668647301805 A 200,200 0 0,1 123.61193285355824,373.05693545089247" />
    <path d="M 115.96305466556063,334.60342806591211 A 200,200 0 0,1 115,315.00000000000006" />
    <path d="M 115.96305466556061,295.396571934088 A 200,200 0 0,1 188.12134316727082,160.39790932745268" />
    <path d="M 293.82829768881493,100.04009903880547 A 216,216 0 0,1 336.17170231118507,100.04009903880547" />
    <path d="M 357.1395095554837,103.15037943290221 A 216,216 0 0,1 377.70149028696386,108.30088748184289" />
    <path d="M 416.82169515441547,124.50500690075532 A 216,216 0 0,1 452.02894937934741,148.02974207364881" />
    <path d="M 467.73506473629425,162.26493526370572 A 216,216 0 0,1 481.97025792635117,177.97105062065256" />
    <path d="M 494.59743625734973,194.99682966776589 A 216,216 0 0,1 514.557979022438,232.3403786091406" />
    <path d="M 529.95990096119453,293.82829768881487 A 216,216 0 0,1 531,315" />
    <path d="M 526.84962056709776,357.1395095554837 A 216,216 0 0,1 505.49499309924465,416.82169515441547" />
    <path d="M 467.73506473629425,467.73506473629425 A 216,216 0 0,1 452.02894937934741,481.97025792635122" />
    <path d="M 357.13950955548376,526.84962056709776 A 216,216 0 0,1 336.17170231118513,529.95990096119453" />
    <path d="M 272.86049044451624,526.84962056709776 A 216,216 0 0,1 252.2985097130362,521.69911251815711" />
    <path d="M 232.34037860914066,514.557979022438 A 216,216 0 0,1 213.17830484558454,505.49499309924465" />
    <path d="M 148.02974207364889,452.02894937934752 A 216,216 0 0,1 108.30088748184289,377.70149028696386" />
    <path d="M 100.04009903880547,336.17170231118507 A 216,216 0 0,1 99,315.00000000000006" />
    <path d="M 100.04009903880547,293.82829768881504 A 216,216 0 0,1 108.30088748184286,252.2985097130362" />
    <path d="M 115.4420209775621,232.34037860914054 A 216,216 0 0,1 124.50500690075529,213.17830484558454" />
    <path d="M 135.40256374265019,194.996829667766 A 216,216 0 0,1 194.99682966776592,135.40256374265022" />
    <path d="M 213.17830484558445,124.50500690075535 A 216,216 0 0,1 232.34037860914049,115.44202097756212" />
    <path d="M 252.29850971303611,108.30088748184289 A 216,216 0 0,1 272.86049044451619,103.15037943290224" />
    <path d="M 315,83 A 232,232 0 0,1 337.73997655645803,84.117143412050325" />
    <path d="M 360.26095470774175,87.457814946450526 A 232,232 0 0,1 403.7825563087008,100.65994845738146" />
    <path d="M 462.17924192596575,135.66157481984502 A 232,232 0 0,1 479.048773235279,150.95122676472096" />
    <path d="M 507.9009500541905,186.10770593945227 A 232,232 0 0,1 537.01015788987252,247.65395487696475" />
    <path d="M 542.54218505354947,269.73904529225825 A 232,232 0 0,1 547,315" />
    <path d="M 545.88285658794962,337.73997655645809 A 232,232 0 0,1 529.34005154261854,403.7825563087008" />
    <path d="M 507.9009500541905,443.89229406054767 A 232,232 0 0,1 247.6539548769648,537.01015788987252" />
    <path d="M 205.63595705636857,519.60573332881836 A 232,232 0 0,1 150.95122676472099,479.04877323527904" />
    <path d="M 122.0990499458095,443.89229406054767 A 232,232 0 0,1 87.457814946450554,360.26095470774186" />
    <path d="M 83,315.00000000000006 A 232,232 0 0,1 87.457814946450526,269.73904529225825" />
    <path d="M 92.989842110127512,247.6539548769648 A 232,232 0 0,1 100.65994845738149,226.21744369129914" />
    <path d="M 110.39426667118161,205.63595705636857 A 232,232 0 0,1 135.66157481984504,167.82075807403422" />
    <path d="M 167.82075807403413,135.6615748198451 A 232,232 0 0,1 186.10770593945227,122.0990499458095" />
    <path d="M 247.65395487696469,92.98984211012754 A 232,232 0 0,1 269.73904529225814,87.457814946450554" />
    <path d="M 220.09450877345756,85.87787593720094 A 248,248 0 0,1 315,67" />
    <path d="M 339.30825080173105,68.194187785295185 A 248,248 0 0,1 363.38239985999979,71.765250459998839" />
    <path d="M 386.99059995910665,77.678796738412188 A 248,248 0 0,1 490.36248173426378,139.63751826573622" />
    <path d="M 506.70659243395875,157.6704655274159 A 248,248 0 0,1 521.20446385103128,177.21858221113865" />
    <path d="M 552.32120326158781,243.00940004089335 A 248,248 0 0,1 561.80581221470482,290.69174919826895" />
    <path d="M 552.32120326158781,386.99059995910659 A 248,248 0 0,1 533.71647355839207,431.9063907328474" />
    <path d="M 521.20446385103128,452.78141778886129 A 248,248 0 0,1 490.36248173426384,490.36248173426378" />
    <path d="M 472.3295344725841,506.7065924339588 A 248,248 0 0,1 452.78141778886129,521.20446385103128" />
    <path d="M 409.90549122654227,544.12212406279912 A 248,248 0 0,1 339.30825080173111,561.80581221470482" />
    <path d="M 266.61760014000015,558.23474954000119 A 248,248 0 0,1 243.00940004089341,552.32120326158781" />
    <path d="M 220.09450877345776,544.12212406279912 A 248,248 0 0,1 198.0936092671526,533.71647355839207" />
    <path d="M 139.63751826573625,490.36248173426384 A 248,248 0 0,1 123.29340756604131,472.32953447258421" />
    <path d="M 96.283526441607989,431.90639073284751 A 248,248 0 0,1 85.87787593720094,409.90549122654238" />
    <path d="M 68.194187785295156,290.69174919826912 A 248,248 0 0,1 71.765250459998839,266.61760014000021" />
    <path d="M 85.877875937200912,220.09450877345768 A 248,248 0 0,1 96.283526441607933,198.0936092671526" />
    <path d="M 108.79553614896872,177.21858221113874 A 248,248 0 0,1 139.63751826573619,139.63751826573625" />
    <path d="M 327.95386602243838,51.317999561834483 A 264,264 0 0,1 340.876525047004,52.271232158540045" />
    <path d="M 379.14676749446164,58.911749156640383 A 264,264 0 0,1 391.6351547951781,62.367751366696865" />
    <path d="M 403.93892129554609,66.432366791682512 A 264,264 0 0,1 416.02842614438373,71.0958034170203" />
    <path d="M 450.72312446701051,88.559646959928159 A 264,264 0 0,1 472.26461638600244,102.95321168910974" />
    <path d="M 482.47982701920239,110.92524031223744 A 264,264 0 0,1 492.29156407961284,119.38890290629078" />
    <path d="M 501.67619023324858,128.32380976675145 A 264,264 0 0,1 519.07475968776259,147.52017298079758" />
    <path d="M 527.04678831089018,157.73538361399758 A 264,264 0 0,1 541.44035304007184,179.27687553298947" />
    <path d="M 547.82721378796577,190.55126147793658 A 264,264 0 0,1 567.63224863330311,238.36484520482196" />
    <path d="M 571.08825084335967,250.8532325055383 A 264,264 0 0,1 576.1425986307022,276.26315474378453" />
    <path d="M 577.72876784146,289.12347495299593 A 264,264 0 0,1 578.68200043816546,302.04613397756162" />
    <path d="M 579,315 A 264,264 0 0,1 578.68200043816546,327.95386602243838" />
    <path d="M 577.72876784146,340.876525047004 A 264,264 0 0,1 534.50797764787194,461.67054151717491" />
    <path d="M 527.04678831089029,472.26461638600239 A 264,264 0 0,1 482.47982701920239,519.07475968776259" />
    <path d="M 472.26461638600244,527.04678831089018 A 264,264 0 0,1 439.44873852206342,547.82721378796566" />
    <path d="M 427.87454466559444,553.65317338458908 A 264,264 0 0,1 391.6351547951781,567.63224863330311" />
    <path d="M 379.1467674944617,571.08825084335967 A 264,264 0 0,1 366.50384501225795,573.9273140264529" />
    <path d="M 353.73684525621553,576.1425986307022 A 264,264 0 0,1 202.12545533440562,553.65317338458908" />
    <path d="M 190.55126147793663,547.82721378796577 A 264,264 0 0,1 157.73538361399761,527.04678831089029" />
    <path d="M 147.52017298079764,519.07475968776259 A 264,264 0 0,1 66.432366791682512,403.93892129554604" />
    <path d="M 62.367751366696865,391.6351547951781 A 264,264 0 0,1 51,315.00000000000006" />
    <path d="M 51.317999561834483,302.04613397756174 A 264,264 0 0,1 53.857401369297804,276.26315474378447" />
    <path d="M 56.072685973547152,263.4961549877421 A 264,264 0 0,1 66.432366791682483,226.06107870445402" />
    <path d="M 82.172786212034254,190.55126147793663 A 264,264 0 0,1 110.92524031223746,147.52017298079755" />
    <path d="M 137.70843592038708,119.38890290629087 A 264,264 0 0,1 147.52017298079747,110.92524031223755" />
    <path d="M 157.73538361399764,102.95321168910971 A 264,264 0 0,1 179.27687553298944,88.559646959928187" />
    <path d="M 190.55126147793655,82.17278621203431 A 264,264 0 0,1 276.26315474378436,53.857401369297861" />
    <path d="M 301.26105118832294,35.337272262551721 A 280,280 0 0,1 328.73894881167706,35.337272262551721" />
    <path d="M 342.44479929227697,36.348276531784848 A 280,280 0 0,1 356.08453284750129,38.030577209861349" />
    <path d="M 369.62529016451589,40.380121487095494 A 280,280 0 0,1 383.03445037291385,43.391249105527663" />
    <path d="M 409.32915894982159,51.367661748754188 A 280,280 0 0,1 422.15136106222513,56.313730896839729" />
    <path d="M 446.99108631127933,68.0620459824606 A 280,280 0 0,1 492.63011956582073,98.557073058433645" />
    <path d="M 512.98989873223331,117.01010126776669 A 280,280 0 0,1 539.89810881458061,148.20419474211863" />
    <path d="M 561.93795401753937,183.00891368872061 A 280,280 0 0,1 568.11700207456408,195.284573839521" />
    <path d="M 573.68626910316027,207.84863893777487 A 280,280 0 0,1 589.61987851290451,260.37470983548405" />
    <path d="M 593.6517234682151,287.555200707723 A 280,280 0 0,1 595,315" />
    <path d="M 594.66272773744822,328.73894881167706 A 280,280 0 0,1 591.96942279013865,356.08453284750124" />
    <path d="M 589.61987851290451,369.62529016451589 A 280,280 0 0,1 578.63233825124576,409.32915894982159" />
    <path d="M 568.1170020745642,434.71542616047896 A 280,280 0 0,1 555.1640108000762,458.94876837410209" />
    <path d="M 531.44292694156638,492.63011956582068 A 280,280 0 0,1 522.46631509938857,503.03650735716519" />
    <path d="M 503.03650735716519,522.46631509938857 A 280,280 0 0,1 481.7958052578814,539.89810881458061" />
    <path d="M 470.55966524548859,547.81149144471271 A 280,280 0 0,1 446.99108631127939,561.93795401753937" />
    <path d="M 434.71542616047896,568.1170020745642 A 280,280 0 0,1 409.3291589498217,578.63233825124576" />
    <path d="M 396.27970963124949,582.94329400501852 A 280,280 0 0,1 383.03445037291397,586.60875089447222" />
    <path d="M 369.625290164516,589.61987851290451 A 280,280 0 0,1 315.00000000000006,595" />
    <path d="M 301.26105118832305,594.66272773744822 A 280,280 0 0,1 287.55520070772303,593.6517234682151" />
    <path d="M 233.7202903687506,582.94329400501852 A 280,280 0 0,1 207.84863893777489,573.68626910316038" />
    <path d="M 195.2845738395211,568.1170020745642 A 280,280 0 0,1 183.00891368872067,561.93795401753937" />
    <path d="M 148.20419474211869,539.89810881458061 A 280,280 0 0,1 107.53368490061152,503.03650735716519" />
    <path d="M 82.188508555287314,470.55966524548865 A 280,280 0 0,1 74.83598919992383,458.94876837410209" />
    <path d="M 56.313730896839786,422.15136106222531 A 280,280 0 0,1 51.367661748754188,409.32915894982159" />
    <path d="M 43.39124910552772,383.03445037291397 A 280,280 0 0,1 40.380121487095494,369.625290164516" />
    <path d="M 35.337272262551721,328.73894881167706 A 280,280 0 0,1 35.337272262551721,301.26105118832305" />
    <path d="M 43.391249105527663,246.96554962708615 A 280,280 0 0,1 47.056705994981485,233.72029036875063" />
    <path d="M 56.313730896839729,207.84863893777481 A 280,280 0 0,1 68.062045982460575,183.00891368872067" />
    <path d="M 74.835989199923773,171.05123162589797 A 280,280 0 0,1 98.557073058433673,137.36988043417924" />
    <path d="M 107.53368490061143,126.96349264283487 A 280,280 0 0,1 195.28457383952087,61.882997925435916" />
    <path d="M 246.96554962708603,43.39124910552772 A 280,280 0 0,1 287.55520070772303,36.348276531784848" />
    <path d="M 188.44369234463636,47.419169235460856 A 296,296 0 0,1 315,19" />
    <path d="M 344.01307353754993,20.425320905029707 A 296,296 0 0,1 372.746735316774,24.687557000643778" />
    <path d="M 386.92213325136612,27.870749054415 A 296,296 0 0,1 428.27429598006654,41.531658376659095" />
    <path d="M 491.32699412976024,77.2505706817291 A 296,296 0 0,1 524.303607231218,105.69639276878192" />
    <path d="M 543.81109419537017,127.21958788756092 A 296,296 0 0,1 552.74942931827081,138.67300587023971" />
    <path d="M 568.88766856008056,162.82558771880636 A 296,296 0 0,1 588.46834162334085,201.7257040199334" />
    <path d="M 598.25433937673381,229.07573553267918 A 296,296 0 0,1 605.31244299935622,257.253264683226" />
    <path d="M 607.79624694957511,271.56777956121294 A 296,296 0 0,1 609.57467909497029,285.98692646245" />
    <path d="M 611,315 A 296,296 0 0,1 598.25433937673392,400.92426446732082" />
    <path d="M 588.46834162334085,428.27429598006654 A 296,296 0 0,1 582.58083076453931,441.55630765536341" />
    <path d="M 576.04869424711308,454.5334341004953 A 296,296 0 0,1 568.88766856008056,467.17441228119355" />
    <path d="M 561.11500524155349,479.44878897380215 A 296,296 0 0,1 543.81109419537017,502.780412112439" />
    <path d="M 513.78145063471754,534.32153310506783 A 296,296 0 0,1 479.44878897380227,561.11500524155338" />
    <path d="M 467.17441228119367,568.88766856008056 A 296,296 0 0,1 400.92426446732088,598.25433937673381" />
    <path d="M 386.92213325136618,602.129250945585 A 296,296 0 0,1 344.01307353755,609.57467909497029" />
    <path d="M 329.52403160091569,610.643455036731 A 296,296 0 0,1 300.47596839908437,610.643455036731" />
    <path d="M 285.98692646245007,609.57467909497029 A 296,296 0 0,1 257.253264683226,605.31244299935622" />
    <path d="M 243.07786674863391,602.129250945585 A 296,296 0 0,1 229.0757355326792,598.25433937673392" />
    <path d="M 201.72570401993346,588.46834162334085 A 296,296 0 0,1 162.82558771880642,568.88766856008056" />
    <path d="M 138.67300587023976,552.74942931827093 A 296,296 0 0,1 116.21854936528254,534.32153310506783" />
    <path d="M 95.678466894932171,513.78145063471754 A 296,296 0 0,1 68.8849947584466,479.44878897380227" />
    <path d="M 53.951305752886924,454.53343410049536 A 296,296 0 0,1 47.419169235460856,441.55630765536364" />
    <path d="M 41.531658376659209,428.27429598006677 A 296,296 0 0,1 24.687557000643835,372.74673531677411" />
    <path d="M 22.203753050424837,358.43222043878723 A 296,296 0 0,1 19.356544963268959,329.52403160091575" />
    <path d="M 19.356544963268959,300.47596839908437 A 296,296 0 0,1 20.425320905029707,285.98692646245024" />
    <path d="M 22.203753050424837,271.56777956121289 A 296,296 0 0,1 27.870749054414944,243.07786674863394" />
    <path d="M 31.745660623266133,229.07573553267923 A 296,296 0 0,1 41.531658376659152,201.72570401993335" />
    <path d="M 53.951305752886924,175.46656589950473 A 296,296 0 0,1 68.884994758446538,150.55121102619785" />
    <path d="M 86.188905804629883,127.21958788756089 A 296,296 0 0,1 105.69639276878189,105.69639276878198" />
    <path d="M 138.67300587023976,77.250570681729073 A 296,296 0 0,1 150.55121102619773,68.884994758446624" />
    <path d="M 330.30911439015443,3.3758176639861972 A 312,312 0 1,1 315,3" />
  </g>
  <g fill="none" stroke="#000000" stroke-width="2" stroke-linecap="butt">
    <line x1="315" y1="51" x2="315" y2="83" />
    <line x1="315" y1="115" x2="315" y2="147" />
    <line x1="315" y1="179" x2="315" y2="211" />
    <line x1="315" y1="227" x2="315" y2="259" />
    <line x1="330.30911439015443" y1="3.3758176639861972" x2="327.95386602243838" y2="51.317999561834483" />
    <line x1="344.01307353754993" y1="20.425320905029707" x2="342.44479929227697" y2="36.348276531784848" />
    <line x1="340.876525047004" y1="52.271232158539988" x2="339.30825080173105" y2="68.194187785295156" />
    <line x1="337.73997655645803" y1="84.117143412050325" x2="334.60342806591211" y2="115.96305466556061" />
    <line x1="331.46687957536619" y1="147.80896591907091" x2="328.33033108482022" y2="179.65487717258122" />
    <line x1="360.77990803007287" y1="6.3769288909883244" x2="358.43222043878706" y2="22.203753050424837" />
    <line x1="356.08453284750129" y1="38.030577209861292" x2="353.73684525621547" y2="53.857401369297804" />
    <line x1="372.746735316774" y1="24.687557000643778" x2="366.50384501225784" y2="56.072685973547152" />
    <line x1="363.38239985999979" y1="71.765250459998867" x2="360.26095470774175" y2="87.457814946450526" />
    <line x1="357.1395095554837" y1="103.15037943290224" x2="354.01806440322565" y2="118.8429439193539" />
    <line x1="341.53228379419346" y1="181.61320186516065" x2="338.41083864193541" y2="197.30576635161236" />
    <line x1="332.16794833741926" y1="228.69089532451574" x2="329.04650318516121" y2="244.3834598109674" />
    <line x1="400.92426446732088" y1="31.74566062326619" x2="386.99059995910665" y2="77.678796738412217" />
    <line x1="373.05693545089247" y1="123.61193285355824" x2="368.41238061482107" y2="138.92297822527357" />
    <line x1="363.76782577874968" y1="154.23402359698892" x2="359.12327094267829" y2="169.54506896870427" />
    <line x1="409.32915894982159" y1="51.367661748754188" x2="403.93892129554609" y2="66.432366791682512" />
    <line x1="416.02842614438373" y1="71.0958034170203" x2="397.6596213908594" y2="115.44202097756207" />
    <line x1="391.53668647301794" y1="130.22409349774264" x2="385.41375155517653" y2="145.00616601792325" />
    <line x1="373.16788171949366" y1="174.5703110582844" x2="367.0449468016522" y2="189.352383578465" />
    <line x1="348.67614204812787" y1="233.69860113900677" x2="342.55320713028647" y2="248.48067365918735" />
    <line x1="448.397189150248" y1="32.955340545485683" x2="427.8745446655945" y2="76.346826615410947" />
    <line x1="454.5334341004953" y1="53.951305752886924" x2="439.44873852206337" y2="82.172786212034254" />
    <line x1="424.36404294363143" y1="110.39426667118164" x2="409.27934736519956" y2="138.615747130329" />
    <line x1="401.73699957598353" y1="152.72648735990268" x2="386.65230399755166" y2="180.94796781905004" />
    <line x1="467.17441228119361" y1="61.112331439919444" x2="458.94876837410209" y2="74.8359891999238" />
    <line x1="488.33791270211589" y1="55.581480961605905" x2="479.44878897380227" y2="68.884994758446624" />
    <line x1="461.67054151717497" y1="95.49202235212806" x2="443.89229406054767" y2="122.0990499458095" />
    <line x1="390.55755169066589" y1="201.92013272685387" x2="372.77930423403865" y2="228.5271603205353" />
    <line x1="363.89018050572497" y1="241.83067411737602" x2="355.00105677741135" y2="255.13418791421674" />
    <line x1="512.93070465905737" y1="73.820738550826064" x2="492.63011956582073" y2="98.557073058433645" />
    <line x1="462.17924192596575" y1="135.66157481984502" x2="452.02894937934741" y2="148.02974207364881" />
    <line x1="441.87865683272912" y1="160.3979093274526" x2="431.72836428611078" y2="172.76607658125639" />
    <line x1="411.42777919287414" y1="197.502411088864" x2="401.2774866462558" y2="209.87057834266778" />
    <line x1="513.78145063471743" y1="95.678466894932114" x2="492.29156407961284" y2="119.38890290629081" />
    <line x1="490.36248173426378" y1="139.63751826573619" x2="479.048773235279" y2="150.95122676472096" />
    <line x1="456.42135623730951" y1="173.57864376269049" x2="433.79393923934" y2="196.20606076066002" />
    <line x1="388.53910524340097" y1="241.46089475659903" x2="377.22539674441617" y2="252.77460325558383" />
    <line x1="365.91168824543144" y1="264.08831175456856" x2="354.59797974644664" y2="275.40202025355336" />
    <line x1="343.2842712474619" y1="286.7157287525381" x2="331.97056274847716" y2="298.02943725152284" />
    <line x1="546.1767511107472" y1="105.47360608773028" x2="522.46631509938857" y2="126.96349264283487" />
    <line x1="543.81109419537017" y1="127.21958788756095" x2="531.44292694156638" y2="137.36988043417927" />
    <line x1="519.07475968776259" y1="147.52017298079758" x2="469.60209067254743" y2="188.12134316727091" />
    <line x1="457.23392341874364" y1="198.27163571388923" x2="432.497588911136" y2="218.57222080712589" />
    <line x1="574.41851903839415" y1="141.66208729788409" x2="521.20446385103128" y2="177.21858221113862" />
    <line x1="481.29392246050907" y1="203.88595339607954" x2="454.68689486682763" y2="221.66420085270681" />
    <line x1="441.38338106998685" y1="230.55332458102043" x2="414.77635347630542" y2="248.33157203764773" />
    <line x1="401.4728396794647" y1="257.22069576596135" x2="374.86581208578326" y2="274.99894322258865" />
    <line x1="568.88766856008056" y1="162.82558771880639" x2="555.1640108000762" y2="171.05123162589794" />
    <line x1="547.82721378796577" y1="190.55126147793658" x2="519.60573332881836" y2="205.63595705636851" />
    <line x1="505.49499309924465" y1="213.17830484558448" x2="491.384252869671" y2="220.72065263480044" />
    <line x1="463.16277241052364" y1="235.80534821323238" x2="449.05203218094994" y2="243.34769600244835" />
    <line x1="568.1170020745642" y1="195.284573839521" x2="553.65317338458908" y2="202.1254553344055" />
    <line x1="588.46834162334085" y1="201.7257040199334" x2="573.68626910316027" y2="207.84863893777487" />
    <line x1="544.12212406279912" y1="220.09450877345773" x2="529.34005154261854" y2="226.21744369129914" />
    <line x1="499.77590650225738" y1="238.46331352698203" x2="484.99383398207675" y2="244.58624844482347" />
    <line x1="411.08347138117381" y1="275.20092303403067" x2="396.30139886099323" y2="281.32385795187207" />
    <line x1="366.73725382063208" y1="293.56972778755494" x2="351.9551813004515" y2="299.6926627053964" />
    <line x1="608.76174833710252" y1="209.89036574162736" x2="593.69704329417414" y2="215.28060339590286" />
    <line x1="567.63224863330311" y1="238.36484520482196" x2="552.32120326158781" y2="243.00940004089335" />
    <line x1="537.01015788987252" y1="247.65395487696475" x2="521.69911251815711" y2="252.29850971303614" />
    <line x1="586.60875089447234" y1="246.96554962708609" x2="571.08825084335967" y2="250.8532325055383" />
    <line x1="621.00500748580794" y1="254.13181953096796" x2="605.31244299935622" y2="257.253264683226" />
    <line x1="542.54218505354947" y1="269.7390452922582" x2="511.1570560806461" y2="275.98193559677435" />
    <line x1="448.38679813483935" y1="288.46771620580654" x2="401.30910467548426" y2="297.83205166258068" />
    <line x1="607.79624694957511" y1="271.56777956121294" x2="576.1425986307022" y2="276.26315474378453" />
    <line x1="609.57467909497018" y1="285.98692646245" x2="593.6517234682151" y2="287.555200707723" />
    <line x1="577.72876784146" y1="289.12347495299593" x2="561.80581221470482" y2="290.69174919826895" />
    <line x1="514.03694533443934" y1="295.39657193408783" x2="482.19103408092906" y2="298.53312042463381" />
    <line x1="466.26807845417392" y1="300.10139466990677" x2="450.34512282741878" y2="301.66966891517973" />
    <line x1="626.62418233601375" y1="299.69088560984557" x2="610.643455036731" y2="300.47596839908425" />
    <line x1="594.66272773744822" y1="301.26105118832294" x2="578.68200043816546" y2="302.04613397756162" />
    <line x1="611" y1="315" x2="595" y2="315" />
    <line x1="579" y1="315" x2="547" y2="315" />
    <line x1="531" y1="315" x2="515" y2="315" />
    <line x1="499" y1="315" x2="467" y2="315" />
    <line x1="451" y1="315" x2="419" y2="315" />
    <line x1="594.66272773744822" y1="328.73894881167706" x2="578.68200043816546" y2="327.95386602243838" />
    <line x1="625.49763472172549" y1="345.58134778282295" x2="609.57467909497029" y2="344.01307353754993" />
    <line x1="577.72876784146" y1="340.876525047004" x2="514.03694533443945" y2="334.60342806591211" />
    <line x1="482.19103408092906" y1="331.46687957536619" x2="466.268078454174" y2="329.89860533009323" />
    <line x1="589.61987851290451" y1="369.62529016451589" x2="558.23474954000108" y2="363.38239985999979" />
    <line x1="542.54218505354947" y1="360.26095470774175" x2="526.84962056709776" y2="357.1395095554837" />
    <line x1="495.46449159419438" y1="350.8966192509676" x2="479.77192710774273" y2="347.77517409870956" />
    <line x1="464.079362621291" y1="344.65372894645151" x2="432.69423364838764" y2="338.41083864193536" />
    <line x1="521.69911251815711" y1="377.7014902869638" x2="506.38806714644181" y2="373.05693545089241" />
    <line x1="475.76597640301111" y1="363.76782577874962" x2="460.45493103129576" y2="359.12327094267823" />
    <line x1="608.76174833710252" y1="420.10963425837264" x2="593.69704329417414" y2="414.71939660409708" />
    <line x1="588.46834162334085" y1="428.27429598006654" x2="558.90419658297969" y2="416.02842614438367" />
    <line x1="514.557979022438" y1="397.6596213908594" x2="470.21176146189617" y2="379.29081663733507" />
    <line x1="455.4296889417156" y1="373.16788171949361" x2="440.64761642153496" y2="367.0449468016522" />
    <line x1="425.86554390135439" y1="360.9220118838108" x2="411.08347138117381" y2="354.79907696596933" />
    <line x1="396.30139886099323" y1="348.67614204812787" x2="381.51932634081265" y2="342.55320713028647" />
    <line x1="366.73725382063208" y1="336.430272212445" x2="351.9551813004515" y2="330.3073372946036" />
    <line x1="597.04465945451443" y1="448.397189150248" x2="568.1170020745642" y2="434.71542616047896" />
    <line x1="533.71647355839207" y1="431.9063907328474" x2="505.49499309924465" y2="416.82169515441552" />
    <line x1="463.16277241052364" y1="394.19465178676762" x2="434.94129195137629" y2="379.10995620833569" />
    <line x1="582.61132632008491" y1="475.40005618828513" x2="568.88766856008056" y2="467.17441228119361" />
    <line x1="561.11500524155349" y1="479.44878897380215" x2="547.81149144471271" y2="470.55966524548853" />
    <line x1="534.50797764787194" y1="461.67054151717491" x2="521.20446385103128" y2="452.78141778886129" />
    <line x1="507.90095005419056" y1="443.89229406054767" x2="467.9904086636684" y2="417.22492287560675" />
    <line x1="441.38338106998691" y1="399.44667541897951" x2="428.07986727314619" y2="390.55755169066583" />
    <line x1="401.47283967946476" y1="372.77930423403859" x2="374.86581208578326" y2="355.00105677741135" />
    <line x1="552.74942931827093" y1="491.32699412976024" x2="527.04678831089029" y2="472.26461638600244" />
    <line x1="494.338425180155" y1="462.1792419259657" x2="469.60209067254743" y2="441.87865683272906" />
    <line x1="457.23392341874364" y1="431.72836428611072" x2="432.49758891113606" y2="411.42777919287408" />
    <line x1="546.1767511107472" y1="524.52639391226978" x2="522.46631509938857" y2="503.03650735716519" />
    <line x1="535.61731573020279" y1="535.61731573020279" x2="524.303607231218" y2="524.303607231218" />
    <line x1="512.98989873223331" y1="512.98989873223331" x2="501.67619023324858" y2="501.67619023324852" />
    <line x1="422.48023074035524" y1="422.48023074035518" x2="388.53910524340097" y2="388.53910524340097" />
    <line x1="365.91168824543144" y1="365.91168824543144" x2="354.59797974644664" y2="354.59797974644664" />
    <line x1="513.78145063471743" y1="534.32153310506783" x2="503.03650735716519" y2="522.46631509938845" />
    <line x1="482.47982701920239" y1="519.07475968776259" x2="462.17924192596575" y2="494.338425180155" />
    <line x1="452.02894937934741" y1="481.97025792635122" x2="431.72836428611078" y2="457.23392341874364" />
    <line x1="481.7958052578814" y1="539.89810881458061" x2="472.26461638600244" y2="527.04678831089018" />
    <line x1="479.44878897380227" y1="561.11500524155349" x2="470.55966524548865" y2="547.81149144471271" />
    <line x1="443.89229406054767" y1="507.9009500541905" x2="426.11404660392043" y2="481.29392246050907" />
    <line x1="408.33579914729319" y1="454.68689486682763" x2="390.55755169066589" y2="428.07986727314619" />
    <line x1="372.77930423403865" y1="401.4728396794647" x2="363.89018050572497" y2="388.169325882624" />
    <line x1="475.40005618828519" y1="582.6113263200848" x2="467.17441228119367" y2="568.88766856008056" />
    <line x1="439.44873852206342" y1="547.82721378796577" x2="424.36404294363149" y2="519.60573332881836" />
    <line x1="416.82169515441552" y1="505.49499309924465" x2="409.27934736519956" y2="491.384252869671" />
    <line x1="401.73699957598359" y1="477.27351264009729" x2="394.19465178676762" y2="463.16277241052364" />
    <line x1="397.6596213908594" y1="514.557979022438" x2="379.29081663733507" y2="470.21176146189617" />
    <line x1="360.9220118838108" y1="425.86554390135439" x2="354.79907696596933" y2="411.08347138117381" />
    <line x1="336.43027221244506" y1="366.73725382063208" x2="330.3073372946036" y2="351.9551813004515" />
    <line x1="414.7193966040972" y1="593.69704329417414" x2="409.3291589498217" y2="578.63233825124576" />
    <line x1="396.27970963124949" y1="582.94329400501852" x2="391.6351547951781" y2="567.63224863330311" />
    <line x1="382.34604512303525" y1="537.01015788987252" x2="373.05693545089247" y2="506.38806714644176" />
    <line x1="363.76782577874968" y1="475.76597640301111" x2="359.12327094267829" y2="460.4549310312957" />
    <line x1="386.92213325136618" y1="602.129250945585" x2="383.03445037291397" y2="586.60875089447234" />
    <line x1="369.625290164516" y1="589.61987851290451" x2="363.38239985999991" y2="558.23474954000108" />
    <line x1="357.13950955548376" y1="526.84962056709776" x2="354.01806440322571" y2="511.1570560806461" />
    <line x1="344.65372894645157" y1="464.079362621291" x2="338.41083864193541" y2="432.69423364838764" />
    <line x1="345.581347782823" y1="625.49763472172549" x2="344.01307353755" y2="609.57467909497018" />
    <line x1="334.60342806591217" y1="514.03694533443934" x2="333.03515382063921" y2="498.11398970768425" />
    <line x1="331.46687957536619" y1="482.19103408092906" x2="328.33033108482027" y2="450.34512282741878" />
    <line x1="315.00000000000006" y1="595" x2="315" y2="499" />
    <line x1="315" y1="467" x2="315" y2="451" />
    <line x1="315" y1="387" x2="315" y2="371" />
    <line x1="315" y1="355" x2="315" y2="339" />
    <line x1="300.47596839908437" y1="610.643455036731" x2="301.26105118832305" y2="594.66272773744822" />
    <line x1="284.41865221717711" y1="625.49763472172549" x2="287.55520070772303" y2="593.6517234682151" />
    <line x1="290.69174919826895" y1="561.80581221470482" x2="292.26002344354197" y2="545.88285658794962" />
    <line x1="293.82829768881493" y1="529.95990096119453" x2="295.39657193408789" y2="514.03694533443945" />
    <line x1="296.96484617936085" y1="498.11398970768425" x2="301.66966891517978" y2="450.34512282741878" />
    <line x1="273.91546715249876" y1="591.96942279013865" x2="276.26315474378453" y2="576.1425986307022" />
    <line x1="257.253264683226" y1="605.31244299935622" x2="260.37470983548405" y2="589.61987851290451" />
    <line x1="263.4961549877421" y1="573.9273140264529" x2="266.61760014000015" y2="558.23474954000108" />
    <line x1="275.98193559677435" y1="511.1570560806461" x2="282.22482590129044" y2="479.77192710774273" />
    <line x1="288.46771620580654" y1="448.38679813483935" x2="297.83205166258068" y2="401.30910467548426" />
    <line x1="239.19018387018167" y1="617.64975099669778" x2="250.85323250553836" y2="571.08825084335967" />
    <line x1="247.6539548769648" y1="537.01015788987252" x2="256.94306454910759" y2="506.38806714644181" />
    <line x1="266.23217422125038" y1="475.76597640301111" x2="275.52128389339316" y2="445.14388565958041" />
    <line x1="209.89036574162731" y1="608.76174833710252" x2="220.67084105017835" y2="578.63233825124576" />
    <line x1="220.09450877345776" y1="544.12212406279912" x2="232.34037860914063" y2="514.557979022438" />
    <line x1="287.44679286971353" y1="381.51932634081265" x2="293.569727787555" y2="366.73725382063208" />
    <line x1="195.2845738395211" y1="568.1170020745642" x2="202.12545533440562" y2="553.65317338458908" />
    <line x1="167.92421811028873" y1="590.15943447668678" x2="175.4665658995047" y2="576.04869424711308" />
    <line x1="190.55126147793663" y1="547.82721378796577" x2="198.0936092671526" y2="533.71647355839207" />
    <line x1="213.17830484558451" y1="505.49499309924465" x2="220.72065263480047" y2="491.384252869671" />
    <line x1="228.26300042401644" y1="477.27351264009735" x2="235.80534821323238" y2="463.16277241052364" />
    <line x1="162.82558771880642" y1="568.88766856008056" x2="179.27687553298952" y2="541.44035304007184" />
    <line x1="141.6620872978842" y1="574.41851903839415" x2="150.55121102619782" y2="561.11500524155349" />
    <line x1="159.44033475451144" y1="547.81149144471271" x2="203.88595339607963" y2="481.29392246050907" />
    <line x1="221.66420085270687" y1="454.68689486682763" x2="230.55332458102049" y2="441.38338106998691" />
    <line x1="257.22069576596141" y1="401.47283967946476" x2="274.99894322258865" y2="374.86581208578326" />
    <line x1="138.67300587023976" y1="552.74942931827093" x2="148.20419474211869" y2="539.89810881458061" />
    <line x1="137.36988043417932" y1="531.44292694156638" x2="157.67046552741599" y2="506.7065924339588" />
    <line x1="167.8207580740343" y1="494.338425180155" x2="177.97105062065262" y2="481.97025792635122" />
    <line x1="188.12134316727094" y1="469.60209067254743" x2="208.4219282605076" y2="444.86575616493985" />
    <line x1="218.57222080712592" y1="432.49758891113606" x2="228.72251335374426" y2="420.12942165733227" />
    <line x1="94.382684269797181" y1="535.6173157302029" x2="117.01010126776671" y2="512.98989873223331" />
    <line x1="139.63751826573622" y1="490.36248173426384" x2="184.89235226167526" y2="445.10764773832477" />
    <line x1="196.20606076066002" y1="433.79393923934003" x2="207.51976925964479" y2="422.48023074035524" />
    <line x1="230.14718625761429" y1="399.85281374238571" x2="241.46089475659906" y2="388.53910524340097" />
    <line x1="252.77460325558383" y1="377.22539674441617" x2="264.08831175456856" y2="365.91168824543144" />
    <line x1="95.678466894932171" y1="513.78145063471754" x2="107.53368490061152" y2="503.03650735716519" />
    <line x1="98.55707305843373" y1="492.63011956582085" x2="110.92524031223752" y2="482.4798270192025" />
    <line x1="135.6615748198451" y1="462.17924192596587" x2="160.39790932745268" y2="441.87865683272918" />
    <line x1="172.76607658125644" y1="431.72836428611083" x2="185.13424383506023" y2="421.57807173949254" />
    <line x1="197.50241108886402" y1="411.4277791928742" x2="209.87057834266781" y2="401.27748664625585" />
    <line x1="77.250570681729073" y1="491.32699412976024" x2="90.10189118541939" y2="481.79580525788128" />
    <line x1="82.188508555287342" y1="470.55966524548865" x2="122.0990499458095" y2="443.89229406054767" />
    <line x1="148.70607753949096" y1="426.11404660392043" x2="162.00959133633168" y2="417.22492287560681" />
    <line x1="175.3131051331724" y1="408.33579914729319" x2="215.22364652369458" y2="381.66842796235227" />
    <line x1="228.5271603205353" y1="372.77930423403865" x2="241.83067411737602" y2="363.89018050572497" />
    <line x1="61.112331439919473" y1="467.17441228119367" x2="74.83598919992383" y2="458.94876837410209" />
    <line x1="39.840565523313273" y1="462.07578188971132" x2="68.062045982460631" y2="446.99108631127939" />
    <line x1="152.72648735990271" y1="401.73699957598359" x2="195.05870804862371" y2="379.10995620833569" />
    <line x1="61.882997925435916" y1="434.71542616047907" x2="76.346826615411" y2="427.87454466559456" />
    <line x1="71.095803417020363" y1="416.02842614438384" x2="85.87787593720094" y2="409.90549122654238" />
    <line x1="159.78823853810386" y1="379.29081663733518" x2="189.35238357846504" y2="367.04494680165226" />
    <line x1="218.91652861882619" y1="354.79907696596939" x2="233.69860113900677" y2="348.67614204812793" />
    <line x1="248.48067365918737" y1="342.55320713028652" x2="278.04481869954856" y2="330.3073372946036" />
    <line x1="51.367661748754188" y1="409.32915894982159" x2="66.432366791682512" y2="403.93892129554604" />
    <line x1="31.74566062326619" y1="400.92426446732088" x2="77.678796738412217" y2="386.9905999591067" />
    <line x1="108.30088748184289" y1="377.70149028696392" x2="138.92297822527357" y2="368.41238061482107" />
    <line x1="154.23402359698892" y1="363.76782577874968" x2="169.54506896870427" y2="359.12327094267829" />
    <line x1="40.380121487095494" y1="369.625290164516" x2="56.072685973547209" y2="366.50384501225795" />
    <line x1="71.765250459998867" y1="363.38239985999991" x2="134.53550840580562" y2="350.89661925096766" />
    <line x1="165.920637378709" y1="344.65372894645157" x2="197.30576635161236" y2="338.41083864193541" />
    <line x1="212.99833083806405" y1="335.28939348967737" x2="244.38345981096742" y2="329.04650318516127" />
    <line x1="6.3769288909883812" y1="360.77990803007305" x2="38.030577209861349" y2="356.08453284750146" />
    <line x1="20.425320905029707" y1="344.01307353754987" x2="84.117143412050325" y2="337.73997655645803" />
    <line x1="115.96305466556061" y1="334.60342806591211" x2="131.88601029231577" y2="333.03515382063915" />
    <line x1="3" y1="315.00000000000006" x2="19" y2="315.00000000000006" />
    <line x1="35" y1="315.00000000000006" x2="67" y2="315.00000000000006" />
    <line x1="99" y1="315.00000000000006" x2="131" y2="315.00000000000006" />
    <line x1="195" y1="315" x2="259" y2="315" />
    <line x1="4.5023652782745671" y1="284.41865221717723" x2="36.348276531784848" y2="287.5552007077232" />
    <line x1="52.271232158539988" y1="289.12347495299616" x2="68.194187785295156" y2="290.69174919826912" />
    <line x1="84.117143412050325" y1="292.26002344354208" x2="100.04009903880547" y2="293.82829768881504" />
    <line x1="115.96305466556061" y1="295.396571934088" x2="147.80896591907091" y2="298.53312042463392" />
    <line x1="6.3769288909883812" y1="269.22009196992707" x2="53.857401369297861" y2="276.26315474378447" />
    <line x1="24.687557000643778" y1="257.253264683226" x2="56.072685973547152" y2="263.4961549877421" />
    <line x1="118.8429439193539" y1="275.98193559677435" x2="134.53550840580562" y2="279.1033807490324" />
    <line x1="181.61320186516065" y1="288.46771620580654" x2="212.99833083806402" y2="294.71060651032263" />
    <line x1="228.69089532451574" y1="297.83205166258074" x2="244.3834598109674" y2="300.95349681483879" />
    <line x1="31.745660623266133" y1="229.07573553267923" x2="47.056705994981485" y2="233.72029036875063" />
    <line x1="62.367751366696837" y1="238.36484520482202" x2="108.30088748184286" y2="252.2985097130362" />
    <line x1="154.23402359698889" y1="266.23217422125038" x2="184.8561143404196" y2="275.52128389339316" />
    <line x1="36.302956705825807" y1="215.280603395903" x2="66.432366791682483" y2="226.06107870445402" />
    <line x1="56.313730896839729" y1="207.84863893777481" x2="85.877875937200912" y2="220.09450877345768" />
    <line x1="145.00616601792325" y1="244.58624844482344" x2="204.13445609864561" y2="269.0779881161892" />
    <line x1="263.26274617936792" y1="293.56972778755494" x2="278.04481869954856" y2="299.6926627053964" />
    <line x1="32.955340545485683" y1="181.60281084975196" x2="47.4191692354608" y2="188.44369234463647" />
    <line x1="61.882997925435859" y1="195.284573839521" x2="76.346826615410947" y2="202.1254553344055" />
    <line x1="53.951305752886924" y1="175.4665658995047" x2="68.062045982460575" y2="183.00891368872067" />
    <line x1="96.283526441607961" y1="198.0936092671526" x2="124.50500690075532" y2="213.17830484558454" />
    <line x1="138.615747130329" y1="220.7206526348005" x2="152.72648735990268" y2="228.26300042401644" />
    <line x1="166.83722758947636" y1="235.80534821323241" x2="180.94796781905004" y2="243.34769600244837" />
    <line x1="61.112331439919416" y1="162.82558771880642" x2="74.835989199923773" y2="171.05123162589797" />
    <line x1="135.40256374265019" y1="194.996829667766" x2="148.70607753949091" y2="203.88595339607963" />
    <line x1="162.00959133633162" y1="212.77507712439325" x2="175.31310513317237" y2="221.66420085270687" />
    <line x1="228.52716032053527" y1="257.22069576596141" x2="241.83067411737602" y2="266.10981949427503" />
    <line x1="64.39925017803867" y1="129.14181699836092" x2="77.250570681728988" y2="138.67300587023985" />
    <line x1="86.188905804629883" y1="127.21958788756089" x2="123.29340756604125" y2="157.6704655274159" />
    <line x1="107.53368490061146" y1="126.96349264283487" x2="119.38890290629081" y2="137.70843592038716" />
    <line x1="128.32380976675142" y1="128.32380976675151" x2="162.2649352637057" y2="162.26493526370578" />
    <line x1="184.89235226167523" y1="184.89235226167529" x2="196.20606076066" y2="196.20606076066005" />
    <line x1="207.51976925964476" y1="207.51976925964482" x2="218.8334777586295" y2="218.83347775862956" />
    <line x1="264.08831175456856" y1="264.08831175456862" x2="298.02943725152284" y2="298.02943725152284" />
    <line x1="116.21854936528249" y1="95.678466894932171" x2="126.96349264283478" y2="107.53368490061152" />
    <line x1="117.06929534094246" y1="73.82073855082615" x2="127.21958788756081" y2="86.18890580462994" />
    <line x1="137.36988043417915" y1="98.55707305843373" x2="157.67046552741581" y2="123.29340756604131" />
    <line x1="188.12134316727082" y1="160.39790932745268" x2="208.42192826050749" y2="185.13424383506023" />
    <line x1="138.67300587023976" y1="77.250570681729073" x2="148.20419474211869" y2="90.10189118541939" />
    <line x1="168.32945848282503" y1="95.49202235212806" x2="221.66420085270684" y2="175.3131051331724" />
    <line x1="239.44244830933411" y1="201.92013272685387" x2="248.33157203764773" y2="215.22364652369458" />
    <line x1="257.22069576596135" y1="228.5271603205353" x2="274.99894322258865" y2="255.13418791421674" />
    <line x1="162.82558771880633" y1="61.112331439919473" x2="171.05123162589788" y2="74.83598919992383" />
    <line x1="167.92421811028865" y1="39.840565523313273" x2="175.46656589950462" y2="53.951305752886981" />
    <line x1="183.00891368872058" y1="68.06204598246066" x2="205.63595705636848" y2="110.39426667118167" />
    <line x1="220.72065263480042" y1="138.61574713032903" x2="228.26300042401638" y2="152.72648735990271" />
    <line x1="201.72570401993323" y1="41.531658376659209" x2="213.97157385561616" y2="71.095803417020363" />
    <line x1="220.09450877345756" y1="85.87787593720094" x2="244.58624844482335" y2="145.00616601792328" />
    <line x1="262.95505319834768" y1="189.35238357846504" x2="269.07798811618915" y2="204.13445609864561" />
    <line x1="287.44679286971348" y1="248.48067365918737" x2="299.6926627053964" y2="278.04481869954856" />
    <line x1="220.67084105017841" y1="51.367661748754188" x2="226.06107870445391" y2="66.432366791682512" />
    <line x1="229.07573553267912" y1="31.74566062326619" x2="233.72029036875051" y2="47.056705994981542" />
    <line x1="252.29850971303608" y1="108.30088748184289" x2="256.94306454910748" y2="123.61193285355824" />
    <line x1="261.58761938517887" y1="138.92297822527357" x2="275.5212838933931" y2="184.8561143404196" />
    <line x1="246.96554962708603" y1="43.391249105527663" x2="250.85323250553824" y2="58.911749156640383" />
    <line x1="266.61760014000009" y1="71.765250459998867" x2="279.10338074903234" y2="134.53550840580562" />
    <line x1="282.22482590129039" y1="150.2280728922573" x2="288.46771620580648" y2="181.61320186516068" />
    <line x1="291.58916135806453" y1="197.30576635161236" x2="297.83205166258068" y2="228.69089532451574" />
    <line x1="287.55520070772309" y1="36.348276531784848" x2="290.691749198269" y2="68.194187785295156" />
    <line x1="292.26002344354197" y1="84.117143412050325" x2="295.39657193408789" y2="115.96305466556061" />
    <line x1="301.26105118832294" y1="35.337272262551721" x2="302.04613397756162" y2="51.317999561834483" />
  </g>
  <path fill="none" stroke="#ff0000" stroke-width="2" stroke-linecap="square" stroke-linejoin="round" d="M 322.65686329914865,3.0939685667842696 L 322.46053347096534,11.091559116353892 A 304,304 0 0,0 178.31815578499948,43.459812436563425 L 185.51193705947318,57.751401255691633 A 288,288 0 0,0 173.04532063782213,64.414946560691135 L 165.15894956214558,50.493554702951769 A 304,304 0 0,0 127.9695964634893,75.342686001511822 L 137.81330191277934,87.9562288435375 A 288,288 0 0,0 126.88622122931218,96.923852206132551 L 116.43545574205174,84.8085106620288 A 304,304 0 0,0 75.342686001511737,127.96959646348938 L 87.956228843537446,137.81330191277942 A 288,288 0 0,0 79.535573812343813,149.16724087166068 L 66.454216801918477,139.95430980897515 A 304,304 0 0,0 43.459812436563368,178.31815578499959 L 57.751401255691576,185.5119370594733 A 288,288 0 0,0 46.298073935595141,211.35022947792356 L 76.1538434983068,222.86687064704319 A 256,256 0 0,0 73.964719313146645,228.7561975315918 L 89.029424356074969,234.14643518586729 A 240,240 0 0,1 98.042569650373622,212.3867775767323 L 112.50639834034871,219.22765907161681 A 224,224 0 0,0 104.09412939900332,239.53667284014281 L 119.15883444193165,244.92691049441834 A 208,208 0 0,0 107.25054510932415,304.79392373989714 L 139.21199970788965,306.36408931837451 A 176,176 0 0,0 144.27449943776026,357.76451166297448 L 97.712999284422153,369.42756029833117 A 224,224 0 0,0 135.0815129483355,448.436644206305 L 122.23019244464518,457.96783307818396 A 240,240 0 0,0 137.17172991480987,476.17414916328448 L 172.73738393184789,443.93931933062754 A 192,192 0 0,1 160.78415395571616,429.37426646254715 L 173.63547445940648,419.84307759066826 A 176,176 0 0,1 164.03976463995213,405.48208297800704 L 205.2107379199652,380.80515125673242 A 128,128 0 0,1 190.83599959109836,346.1014630276178 L 159.79499948887298,353.87682878452227 A 160,160 0 0,1 159.79499948887295,276.12317121547778 L 175.31549953998567,280.01085409393 A 144,144 0 0,0 172.55858256507156,336.1291883215722 L 188.38540672450804,333.78150073028638 A 128,128 0 0,1 187.61635498595879,302.45380603781632 L 251.30817749297938,308.72690301890816 A 64,64 0 0,1 261.78594481263707,279.44350508674546 L 288.39297240631856,297.22175254337276 A 32,32 0 0,0 302.75413016431713,344.56414504036115 L 305.81559762323786,337.17310878027087" />
  <type>Circular</type>
</svg>