<?xml version="1.0" encoding="utf-8" standalone="no"?>
<!DOCTYPE svg PUBLIC "-//W3C//DTD SVG 1.1//EN" "http://www.w3.org/Graphics/SVG/1.1/DTD/svg11.dtd"[]>
<svg width="628" height="628" version="1.1" xmlns="http://www.w3.org/2000/svg">
  <title>39 cells diameter theta maze</title>
  <g fill="none" stroke="#000000" stroke-width="2" stroke-linecap="square">
    <path d="M 298.02943725152284,331.97056274847716 A 24,24 0 1,1 315,339" />
    <path d="M 315,355 A 40,40 0 1,1 355,315" />
    <path d="M 351.9551813004515,330.3073372946036 A 40,40 0 0,1 330.3073372946036,351.9551813004515" />
    <path d="M 315,259 A 56,56 0 0,1 366.73725382063208,293.569727787555" />
    <path d="M 366.73725382063208,336.430272212445 A 56,56 0 0,1 354.59797974644664,354.59797974644664" />
    <path d="M 336.43027221244506,366.73725382063208 A 56,56 0 0,1 315,371" />
    <path d="M 293.569727787555,366.73725382063208 A 56,56 0 0,1 293.56972778755494,263.262746179368" />
    <path d="M 315,243 A 72,72 0 0,1 374.86581208578326,355.00105677741135" />
    <path d="M 365.91168824543144,365.91168824543144 A 72,72 0 0,1 355.00105677741135,374.86581208578326" />
    <path d="M 342.55320713028647,381.51932634081265 A 72,72 0 0,1 274.99894322258865,374.86581208578326" />
    <path d="M 264.08831175456856,365.91168824543144 A 72,72 0 0,1 255.13418791421674,355.00105677741135" />
    <path d="M 248.48067365918737,342.55320713028652 A 72,72 0 0,1 244.3834598109674,329.04650318516127" />
    <path d="M 244.3834598109674,300.95349681483879 A 72,72 0 0,1 274.99894322258865,255.13418791421674" />
    <path d="M 287.44679286971348,248.48067365918737 A 72,72 0 0,1 300.95349681483873,244.3834598109674" />
    <path d="M 332.16794833741926,228.69089532451574 A 88,88 0 0,1 363.89018050572497,241.83067411737602" />
    <path d="M 377.22539674441617,252.77460325558383 A 88,88 0 0,1 401.30910467548426,297.83205166258068" />
    <path d="M 401.30910467548426,332.16794833741926 A 88,88 0 0,1 396.30139886099323,348.67614204812787" />
    <path d="M 388.169325882624,363.89018050572497 A 88,88 0 0,1 377.22539674441617,377.22539674441617" />
    <path d="M 363.89018050572497,388.169325882624 A 88,88 0 0,1 266.10981949427503,388.169325882624" />
    <path d="M 228.69089532451574,332.16794833741932 A 88,88 0 0,1 227,315" />
    <path d="M 233.69860113900677,281.32385795187207 A 88,88 0 0,1 252.7746032555838,252.77460325558383" />
    <path d="M 266.10981949427503,241.83067411737602 A 88,88 0 0,1 281.323857951872,233.69860113900677" />
    <path d="M 241.46089475659903,241.46089475659909 A 104,104 0 0,1 335.28939348967731,212.99833083806402" />
    <path d="M 354.79907696596933,218.91652861882619 A 104,104 0 0,1 401.4728396794647,257.22069576596135" />
    <path d="M 417.001669161936,294.71060651032263 A 104,104 0 0,1 419,315" />
    <path d="M 417.001669161936,335.28939348967731 A 104,104 0 0,1 401.47283967946476,372.77930423403859" />
    <path d="M 354.79907696596933,411.08347138117381 A 104,104 0 0,1 275.20092303403067,411.08347138117381" />
    <path d="M 257.22069576596141,401.47283967946476 A 104,104 0 0,1 241.46089475659909,388.53910524340097" />
    <path d="M 228.5271603205353,372.77930423403865 A 104,104 0 0,1 212.99833083806402,335.28939348967737" />
    <path d="M 212.99833083806402,294.71060651032263 A 104,104 0 0,1 218.91652861882619,275.20092303403067" />
    <path d="M 248.33157203764773,215.22364652369458 A 120,120 0 0,1 360.9220118838108,204.13445609864559" />
    <path d="M 381.66842796235227,215.22364652369458 A 120,120 0 0,1 399.85281374238571,230.14718625761429" />
    <path d="M 414.77635347630542,248.33157203764773 A 120,120 0 0,1 425.86554390135439,269.0779881161892" />
    <path d="M 435,315 A 120,120 0 0,1 414.77635347630542,381.66842796235221" />
    <path d="M 399.85281374238571,399.85281374238571 A 120,120 0 0,1 381.66842796235227,414.77635347630542" />
    <path d="M 338.41083864193541,432.69423364838764 A 120,120 0 0,1 291.58916135806459,432.69423364838764" />
    <path d="M 215.22364652369458,381.66842796235227 A 120,120 0 0,1 195,315" />
    <path d="M 215.22364652369453,248.33157203764779 A 120,120 0 0,1 230.14718625761429,230.14718625761432" />
    <path d="M 301.66966891517978,179.65487717258122 A 136,136 0 0,1 315,179" />
    <path d="M 328.33033108482022,179.65487717258122 A 136,136 0 0,1 354.4787161066069,184.8561143404196" />
    <path d="M 367.0449468016522,189.35238357846498 A 136,136 0 0,1 390.55755169066589,201.92013272685387" />
    <path d="M 401.2774866462558,209.87057834266778 A 136,136 0 0,1 428.07986727314614,239.44244830933411" />
    <path d="M 434.94129195137629,250.89004379166431 A 136,136 0 0,1 450.34512282741878,328.33033108482027" />
    <path d="M 445.14388565958041,354.47871610660684 A 136,136 0 0,1 434.94129195137629,379.10995620833569" />
    <path d="M 411.16652224137044,411.16652224137044 A 136,136 0 0,1 367.0449468016522,440.64761642153496" />
    <path d="M 354.4787161066069,445.14388565958041 A 136,136 0 0,1 341.53228379419352,448.3867981348393" />
    <path d="M 328.33033108482027,450.34512282741878 A 136,136 0 0,1 275.52128389339316,445.14388565958041" />
    <path d="M 250.89004379166431,434.94129195137629 A 136,136 0 0,1 218.83347775862956,411.16652224137044" />
    <path d="M 201.92013272685384,390.55755169066589 A 136,136 0 0,1 195.05870804862371,379.10995620833569" />
    <path d="M 181.61320186516068,341.53228379419352 A 136,136 0 0,1 179.65487717258122,328.33033108482022" />
    <path d="M 179,315 A 136,136 0 0,1 184.8561143404196,275.52128389339316" />
    <path d="M 201.92013272685381,239.44244830933414 A 136,136 0 0,1 250.89004379166428,195.05870804862374" />
    <path d="M 262.95505319834768,189.35238357846504 A 136,136 0 0,1 288.46771620580648,181.61320186516068" />
    <path d="M 285.34627105354843,165.920637378709 A 152,152 0 0,1 315,163" />
    <path d="M 329.89860533009323,163.73192154582608 A 152,152 0 0,1 344.65372894645151,165.92063737870896" />
    <path d="M 359.12327094267829,169.54506896870424 A 152,152 0 0,1 411.42777919287414,197.502411088864" />
    <path d="M 422.48023074035524,207.51976925964476 A 152,152 0 0,1 464.079362621291,285.34627105354849" />
    <path d="M 466.26807845417392,329.89860533009323 A 152,152 0 0,1 455.4296889417156,373.16788171949361" />
    <path d="M 432.49758891113606,411.42777919287408 A 152,152 0 0,1 411.42777919287414,432.497588911136" />
    <path d="M 399.44667541897951,441.38338106998685 A 152,152 0 0,1 386.65230399755166,449.05203218094994" />
    <path d="M 373.16788171949366,455.42968894171554 A 152,152 0 0,1 359.12327094267829,460.45493103129576" />
    <path d="M 329.89860533009323,466.26807845417392 A 152,152 0 0,1 285.34627105354849,464.079362621291" />
    <path d="M 270.87672905732177,460.45493103129576 A 152,152 0 0,1 230.55332458102049,441.38338106998691" />
    <path d="M 197.50241108886402,411.42777919287414 A 152,152 0 0,1 188.61661893001312,399.44667541897951" />
    <path d="M 174.57031105828446,373.16788171949372 A 152,152 0 0,1 163,315" />
    <path d="M 163.73192154582605,300.10139466990688 A 152,152 0 0,1 174.57031105828443,256.83211828050634" />
    <path d="M 180.94796781905004,243.34769600244837 A 152,152 0 0,1 270.87672905732171,169.54506896870427" />
    <path d="M 298.53312042463381,147.80896591907091 A 168,168 0 0,1 331.46687957536619,147.80896591907091" />
    <path d="M 347.77517409870956,150.22807289225727 A 168,168 0 0,1 363.76782577874968,154.23402359698892" />
    <path d="M 379.29081663733507,159.78823853810383 A 168,168 0 0,1 408.33579914729319,175.3131051331724" />
    <path d="M 421.57807173949243,185.13424383506018 A 168,168 0 0,1 433.79393923934,196.20606076066002" />
    <path d="M 463.16277241052364,235.80534821323238 A 168,168 0 0,1 475.76597640301111,266.23217422125032" />
    <path d="M 479.77192710774273,282.22482590129044 A 168,168 0 0,1 479.77192710774273,347.77517409870956" />
    <path d="M 475.76597640301111,363.76782577874962 A 168,168 0 0,1 444.86575616493985,421.57807173949243" />
    <path d="M 433.79393923934,433.79393923934 A 168,168 0 0,1 331.46687957536619,482.19103408092906" />
    <path d="M 315,483 A 168,168 0 0,1 298.53312042463381,482.19103408092906" />
    <path d="M 282.22482590129044,479.77192710774273 A 168,168 0 0,1 250.70918336266493,470.21176146189617" />
    <path d="M 221.66420085270687,454.68689486682763 A 168,168 0 0,1 208.42192826050757,444.86575616493985" />
    <path d="M 196.20606076066002,433.79393923934003 A 168,168 0 0,1 166.83722758947639,394.19465178676762" />
    <path d="M 154.23402359698892,363.76782577874968 A 168,168 0 0,1 150.2280728922573,347.77517409870961" />
    <path d="M 147,315.00000000000006 A 168,168 0 0,1 147.80896591907091,298.53312042463392" />
    <path d="M 159.78823853810386,250.70918336266487 A 168,168 0 0,1 166.83722758947636,235.80534821323241" />
    <path d="M 175.31310513317237,221.66420085270687 A 168,168 0 0,1 185.1342438350602,208.42192826050754" />
    <path d="M 196.20606076066,196.20606076066002 A 168,168 0 0,1 221.66420085270681,175.3131051331724" />
    <path d="M 250.70918336266482,159.78823853810386 A 168,168 0 0,1 282.22482590129039,150.2280728922573" />
    <path d="M 296.96484617936085,131.88601029231577 A 184,184 0 0,1 315,131" />
    <path d="M 333.03515382063915,131.88601029231577 A 184,184 0 0,1 350.8966192509676,134.53550840580559" />
    <path d="M 368.41238061482107,138.92297822527357 A 184,184 0 0,1 401.73699957598353,152.72648735990268" />
    <path d="M 457.23392341874359,198.27163571388923 A 184,184 0 0,1 467.99040866366829,212.77507712439319" />
    <path d="M 477.27351264009735,228.26300042401641 A 184,184 0 0,1 495.46449159419444,279.1033807490324" />
    <path d="M 498.11398970768425,296.96484617936085 A 184,184 0 0,1 491.0770217747264,368.412380614821" />
    <path d="M 484.99383398207681,385.41375155517653 A 184,184 0 0,1 467.99040866366835,417.22492287560675" />
    <path d="M 417.22492287560681,467.99040866366835 A 184,184 0 0,1 350.89661925096766,495.46449159419438" />
    <path d="M 333.03515382063921,498.11398970768425 A 184,184 0 0,1 315,499" />
    <path d="M 296.96484617936085,498.11398970768425 A 184,184 0 0,1 279.1033807490324,495.46449159419444" />
    <path d="M 261.587619385179,491.0770217747264 A 184,184 0 0,1 244.58624844482353,484.99383398207681" />
    <path d="M 228.26300042401644,477.27351264009735 A 184,184 0 0,1 212.77507712439325,467.99040866366835" />
    <path d="M 172.76607658125647,431.72836428611083 A 184,184 0 0,1 162.00959133633168,417.22492287560681" />
    <path d="M 145.00616601792328,385.41375155517665 A 184,184 0 0,1 131,315.00000000000006" />
    <path d="M 131.88601029231577,296.96484617936096 A 184,184 0 0,1 138.92297822527354,261.587619385179" />
    <path d="M 152.72648735990268,228.26300042401647 A 184,184 0 0,1 184.89235226167523,184.89235226167529" />
    <path d="M 198.27163571388917,172.76607658125647 A 184,184 0 0,1 244.58624844482335,145.00616601792328" />
    <path d="M 261.58761938517893,138.92297822527357 A 184,184 0 0,1 279.10338074903234,134.53550840580562" />
    <path d="M 275.98193559677424,118.84294391935393 A 200,200 0 0,1 334.60342806591211,115.96305466556063" />
    <path d="M 354.01806440322565,118.8429439193539 A 200,200 0 0,1 373.05693545089247,123.61193285355822" />
    <path d="M 426.11404660392043,148.70607753949096 A 200,200 0 0,1 469.60209067254738,188.12134316727088" />
    <path d="M 481.29392246050907,203.88595339607954 A 200,200 0 0,1 506.38806714644181,256.94306454910753" />
    <path d="M 511.1570560806461,275.98193559677435 A 200,200 0 0,1 514.03694533443934,295.39657193408783" />
    <path d="M 514.03694533443934,334.60342806591211 A 200,200 0 0,1 491.384252869671,409.27934736519956" />
    <path d="M 481.29392246050907,426.11404660392043 A 200,200 0 0,1 469.60209067254743,441.87865683272906" />
    <path d="M 456.42135623730951,456.42135623730951 A 200,200 0 0,1 441.87865683272912,469.60209067254743" />
    <path d="M 426.11404660392043,481.29392246050907 A 200,200 0 0,1 409.27934736519956,491.38425286967095" />
    <path d="M 354.01806440322571,511.15705608064604 A 200,200 0 0,1 295.39657193408789,514.03694533443934" />
    <path d="M 275.98193559677435,511.1570560806461 A 200,200 0 0,1 220.72065263480047,491.384252869671" />
    <path d="M 188.12134316727094,469.60209067254743 A 200,200 0 0,1 173.57864376269052,456.42135623730951" />
    <path d="M 123.61193285355824,373.05693545089247 A 200,200 0 0,1 118.84294391935393,354.01806440322571" />
    <path d="M 115.96305466556063,334.60342806591211 A 200,200 0 0,1 118.8429439193539,275.98193559677435" />
    <path d="M 123.61193285355822,256.94306454910759 A 200,200 0 0,1 130.22409349774267,238.463313526982" />
    <path d="M 138.615747130329,220.7206526348005 A 200,200 0 0,1 148.70607753949091,203.88595339607963" />
    <path d="M 188.12134316727082,160.39790932745268 A 200,200 0 0,1 220.72065263480042,138.61574713032903" />
    <path d="M 238.46331352698192,130.2240934977427 A 200,200 0 0,1 256.94306454910748,123.61193285355824" />
    <path d="M 315,99 A 216,216 0 0,1 357.1395095554837,103.15037943290221" />
    <path d="M 416.82169515441547,124.50500690075532 A 216,216 0 0,1 467.73506473629425,162.26493526370572" />
    <path d="M 481.97025792635117,177.97105062065256 A 216,216 0 0,1 494.59743625734973,194.99682966776589" />
    <path d="M 514.557979022438,232.3403786091406 A 216,216 0 0,1 529.95990096119453,293.82829768881487" />
    <path d="M 531,315 A 216,216 0 0,1 521.69911251815711,377.7014902869638" />
    <path d="M 505.49499309924465,416.82169515441547 A 216,216 0 0,1 494.59743625734984,435.00317033223405" />
    <path d="M 435.00317033223405,494.59743625734978 A 216,216 0 0,1 272.86049044451624,526.84962056709776" />
    <path d="M 252.2985097130362,521.69911251815711 A 216,216 0 0,1 232.34037860914066,514.557979022438" />
    <path d="M 194.99682966776598,494.59743625734984 A 216,216 0 0,1 177.97105062065262,481.97025792635122" />
    <path d="M 135.40256374265022,435.00317033223405 A 216,216 0 0,1 115.44202097756212,397.65962139085951" />
    <path d="M 103.15037943290224,357.13950955548381 A 216,216 0 0,1 100.04009903880547,336.17170231118507" />
    <path d="M 99,315.00000000000006 A 216,216 0 0,1 103.15037943290221,272.8604904445163" />
    <path d="M 108.30088748184286,252.2985097130362 A 216,216 0 0,1 124.50500690075529,213.17830484558454" />
    <path d="M 135.40256374265019,194.996829667766 A 216,216 0 0,1 162.2649352637057,162.26493526370578" />
    <path d="M 213.17830484558445,124.50500690075535 A 216,216 0 0,1 252.29850971303611,108.30088748184289" />
    <path d="M 272.86049044451619,103.15037943290224 A 216,216 0 0,1 293.82829768881493,100.04009903880547" />
    <path d="M 292.26002344354197,84.117143412050325 A 232,232 0 0,1 337.73997655645803,84.117143412050325" />
    <path d="M 360.26095470774175,87.457814946450526 A 232,232 0 0,1 382.34604512303525,92.98984211012754" />
    <path d="M 403.7825563087008,100.65994845738146 A 232,232 0 0,1 424.36404294363143,110.39426667118164" />
    <path d="M 443.89229406054767,122.0990499458095 A 232,232 0 0,1 494.33842518015496,167.82075807403425" />
    <path d="M 507.9009500541905,186.10770593945227 A 232,232 0 0,1 545.88285658794962,292.26002344354191" />
    <path d="M 542.54218505354947,360.26095470774175 A 232,232 0 0,1 537.01015788987252,382.3460451230352" />
    <path d="M 529.34005154261854,403.7825563087008 A 232,232 0 0,1 519.60573332881836,424.36404294363149" />
    <path d="M 507.9009500541905,443.89229406054767 A 232,232 0 0,1 479.04877323527904,479.048773235279" />
    <path d="M 443.89229406054767,507.9009500541905 A 232,232 0 0,1 403.78255630870086,529.34005154261854" />
    <path d="M 360.2609547077418,542.54218505354947 A 232,232 0 0,1 337.73997655645809,545.88285658794962" />
    <path d="M 292.26002344354197,545.88285658794962 A 232,232 0 0,1 167.8207580740343,494.338425180155" />
    <path d="M 110.39426667118167,424.36404294363149 A 232,232 0 0,1 100.65994845738152,403.782556308701" />
    <path d="M 87.457814946450554,360.26095470774186 A 232,232 0 0,1 84.1171434120503,292.26002344354208" />
    <path d="M 87.457814946450526,269.73904529225825 A 232,232 0 0,1 92.989842110127512,247.6539548769648" />
    <path d="M 100.65994845738149,226.21744369129914 A 232,232 0 0,1 110.39426667118161,205.63595705636857" />
    <path d="M 135.66157481984504,167.82075807403422 A 232,232 0 0,1 205.63595705636848,110.39426667118167" />
    <path d="M 247.65395487696469,92.98984211012754 A 232,232 0 0,1 269.73904529225814,87.457814946450554" />
    <path d="M 315,67 A 248,248 0 0,1 409.90549122654227,85.877875937200884" />
    <path d="M 431.9063907328474,96.283526441607961 A 248,248 0 0,1 506.70659243395875,157.6704655274159" />
    <path d="M 558.23474954000119,266.61760014000015 A 248,248 0 0,1 561.80581221470482,290.69174919826895" />
    <path d="M 563,315 A 248,248 0 0,1 552.32120326158781,386.99059995910659" />
    <path d="M 533.71647355839207,431.9063907328474 A 248,248 0 0,1 521.20446385103128,452.78141778886129" />
    <path d="M 490.36248173426384,490.36248173426378 A 248,248 0 0,1 431.90639073284746,533.716473558392" />
    <path d="M 409.90549122654227,544.12212406279912 A 248,248 0 0,1 315.00000000000006,563" />
    <path d="M 243.00940004089341,552.32120326158781 A 248,248 0 0,1 220.09450877345776,544.12212406279912" />
    <path d="M 177.21858221113874,521.20446385103128 A 248,248 0 0,1 157.67046552741596,506.7065924339588" />
    <path d="M 139.63751826573625,490.36248173426384 A 248,248 0 0,1 96.283526441607989,431.90639073284751" />
    <path d="M 77.678796738412217,386.9905999591067 A 248,248 0 0,1 71.765250459998867,363.38239985999991" />
    <path d="M 68.194187785295156,290.69174919826912 A 248,248 0 0,1 123.29340756604125,157.6704655274159" />
    <path d="M 139.63751826573619,139.63751826573625 A 248,248 0 0,1 157.67046552741581,123.29340756604131" />
    <path d="M 198.09360926715252,96.283526441607989 A 248,248 0 0,1 266.61760014000009,71.765250459998867" />
    <path d="M 263.496154987742,56.072685973547209 A 264,264 0 0,1 315,51" />
    <path d="M 327.95386602243838,51.317999561834483 A 264,264 0 0,1 353.73684525621547,53.857401369297804" />
    <path d="M 366.50384501225784,56.072685973547152 A 264,264 0 0,1 391.6351547951781,62.367751366696865" />
    <path d="M 403.93892129554609,66.432366791682512 A 264,264 0 0,1 416.02842614438373,71.0958034170203" />
    <path d="M 427.8745446655945,76.346826615410947 A 264,264 0 0,1 439.44873852206337,82.172786212034282" />
    <path d="M 461.670541517175,95.49202235212806 A 264,264 0 0,1 472.26461638600244,102.95321168910974" />
    <path d="M 482.47982701920239,110.92524031223744 A 264,264 0 0,1 534.50797764787194,168.329458482825" />
    <path d="M 541.44035304007184,179.27687553298947 A 264,264 0 0,1 547.82721378796577,190.55126147793658" />
    <path d="M 553.65317338458908,202.1254553344055 A 264,264 0 0,1 571.08825084335967,250.8532325055383" />
    <path d="M 573.9273140264529,263.4961549877421 A 264,264 0 0,1 576.1425986307022,276.26315474378453" />
    <path d="M 577.72876784146,289.12347495299593 A 264,264 0 0,1 573.9273140264529,366.50384501225784" />
    <path d="M 571.08825084335967,379.14676749446164 A 264,264 0 0,1 558.90419658297969,416.02842614438367" />
    <path d="M 553.65317338458908,427.87454466559439 A 264,264 0 0,1 547.82721378796577,439.44873852206337" />
    <path d="M 541.44035304007184,450.72312446701051 A 264,264 0 0,1 519.07475968776259,482.47982701920239" />
    <path d="M 510.61109709370919,492.29156407961284 A 264,264 0 0,1 472.26461638600244,527.04678831089018" />
    <path d="M 461.67054151717497,534.50797764787194 A 264,264 0 0,1 450.72312446701051,541.44035304007184" />
    <path d="M 439.44873852206342,547.82721378796566 A 264,264 0 0,1 391.6351547951781,567.63224863330311" />
    <path d="M 366.50384501225795,573.9273140264529 A 264,264 0 0,1 340.87652504700407,577.72876784146" />
    <path d="M 315.00000000000006,579 A 264,264 0 0,1 263.4961549877421,573.9273140264529" />
    <path d="M 250.85323250553836,571.08825084335967 A 264,264 0 0,1 157.73538361399761,527.04678831089029" />
    <path d="M 147.52017298079764,519.07475968776259 A 264,264 0 0,1 119.38890290629087,492.29156407961295" />
    <path d="M 102.95321168910971,472.26461638600233 A 264,264 0 0,1 71.095803417020363,416.02842614438384" />
    <path d="M 66.432366791682512,403.93892129554604 A 264,264 0 0,1 62.367751366696865,391.6351547951781" />
    <path d="M 56.072685973547209,366.50384501225795 A 264,264 0 0,1 51.317999561834483,302.04613397756174" />
    <path d="M 56.072685973547152,263.4961549877421 A 264,264 0 0,1 58.911749156640383,250.85323250553836" />
    <path d="M 62.367751366696837,238.36484520482202 A 264,264 0 0,1 71.095803417020335,213.97157385561624" />
    <path d="M 82.172786212034254,190.55126147793663 A 264,264 0 0,1 95.492022352128,168.32945848282512" />
    <path d="M 102.95321168910965,157.73538361399773 A 264,264 0 0,1 128.32380976675142,128.32380976675148" />
    <path d="M 137.70843592038708,119.38890290629087 A 264,264 0 0,1 157.73538361399764,102.95321168910971" />
    <path d="M 168.329458482825,95.49202235212806 A 264,264 0 0,1 226.06107870445391,66.432366791682512" />
    <path d="M 238.3648452048219,62.367751366696865 A 264,264 0 0,1 250.85323250553824,58.911749156640383" />
    <path d="M 301.26105118832294,35.337272262551721 A 280,280 0 0,1 328.73894881167706,35.337272262551721" />
    <path d="M 342.44479929227697,36.348276531784848 A 280,280 0 0,1 383.03445037291385,43.391249105527663" />
    <path d="M 396.27970963124949,47.056705994981542 A 280,280 0 0,1 422.15136106222513,56.313730896839729" />
    <path d="M 492.63011956582073,98.557073058433645 A 280,280 0 0,1 512.98989873223331,117.01010126776669" />
    <path d="M 531.44292694156638,137.36988043417927 A 280,280 0 0,1 539.89810881458061,148.20419474211863" />
    <path d="M 547.8114914447126,159.44033475451136 A 280,280 0 0,1 555.1640108000762,171.05123162589791" />
    <path d="M 561.93795401753937,183.00891368872061 A 280,280 0 0,1 568.11700207456408,195.284573839521" />
    <path d="M 573.68626910316027,207.84863893777487 A 280,280 0 0,1 582.94329400501852,233.72029036875057" />
    <path d="M 586.60875089447234,246.96554962708609 A 280,280 0 0,1 589.61987851290451,260.37470983548405" />
    <path d="M 593.6517234682151,287.555200707723 A 280,280 0 0,1 595,315" />
    <path d="M 593.6517234682151,342.44479929227697 A 280,280 0 0,1 591.96942279013865,356.08453284750124" />
    <path d="M 589.61987851290451,369.62529016451589 A 280,280 0 0,1 578.63233825124576,409.32915894982159" />
    <path d="M 573.68626910316038,422.15136106222513 A 280,280 0 0,1 539.89810881458061,481.79580525788134" />
    <path d="M 531.44292694156638,492.63011956582068 A 280,280 0 0,1 492.63011956582073,531.44292694156638" />
    <path d="M 470.55966524548859,547.81149144471271 A 280,280 0 0,1 458.94876837410209,555.1640108000762" />
    <path d="M 446.99108631127939,561.93795401753937 A 280,280 0 0,1 434.71542616047896,568.1170020745642" />
    <path d="M 422.15136106222519,573.68626910316027 A 280,280 0 0,1 409.3291589498217,578.63233825124576" />
    <path d="M 315.00000000000006,595 A 280,280 0 0,1 301.26105118832305,594.66272773744822" />
    <path d="M 273.91546715249876,591.96942279013865 A 280,280 0 0,1 220.67084105017838,578.63233825124576" />
    <path d="M 183.00891368872067,561.93795401753937 A 280,280 0 0,1 159.44033475451147,547.81149144471271" />
    <path d="M 148.20419474211869,539.89810881458061 A 280,280 0 0,1 137.36988043417932,531.44292694156638" />
    <path d="M 126.96349264283484,522.46631509938857 A 280,280 0 0,1 117.01010126776671,512.98989873223331" />
    <path d="M 107.53368490061152,503.03650735716519 A 280,280 0 0,1 98.55707305843373,492.63011956582085" />
    <path d="M 90.10189118541939,481.79580525788128 A 280,280 0 0,1 51.367661748754188,409.32915894982159" />
    <path d="M 43.39124910552772,383.03445037291397 A 280,280 0 0,1 35,315.00000000000006" />
    <path d="M 35.337272262551721,301.26105118832305 A 280,280 0 0,1 43.391249105527663,246.96554962708615" />
    <path d="M 51.367661748754131,220.67084105017852 A 280,280 0 0,1 56.313730896839729,207.84863893777481" />
    <path d="M 61.882997925435888,195.284573839521 A 280,280 0 0,1 74.835989199923773,171.05123162589797" />
    <path d="M 82.188508555287257,159.44033475451147 A 280,280 0 0,1 117.01010126776666,117.01010126776674" />
    <path d="M 137.36988043417915,98.557073058433758 A 280,280 0 0,1 148.20419474211869,90.10189118541939" />
    <path d="M 171.05123162589788,74.835989199923858 A 280,280 0 0,1 220.67084105017841,51.367661748754188" />
    <path d="M 246.96554962708603,43.39124910552772 A 280,280 0 0,1 287.55520070772303,36.348276531784848" />
    <path d="M 285.98692646245007,20.425320905029707 A 296,296 0 0,1 315,19" />
    <path d="M 329.52403160091575,19.356544963268959 A 296,296 0 0,1 400.92426446732088,31.74566062326619" />
    <path d="M 414.71939660409714,36.302956705825864 A 296,296 0 0,1 428.27429598006654,41.531658376659095" />
    <path d="M 441.55630765536353,47.4191692354608 A 296,296 0 0,1 467.17441228119361,61.112331439919444" />
    <path d="M 479.44878897380227,68.8849947584466 A 296,296 0 0,1 561.11500524155338,150.55121102619773" />
    <path d="M 568.88766856008056,162.82558771880636 A 296,296 0 0,1 588.46834162334085,201.7257040199334" />
    <path d="M 593.69704329417414,215.28060339590286 A 296,296 0 0,1 602.129250945585,243.07786674863385" />
    <path d="M 607.79624694957511,271.56777956121294 A 296,296 0 0,1 609.57467909497029,285.98692646245" />
    <path d="M 607.79624694957511,358.43222043878706 A 296,296 0 0,1 602.129250945585,386.92213325136612" />
    <path d="M 598.25433937673392,400.92426446732082 A 296,296 0 0,1 588.46834162334085,428.27429598006654" />
    <path d="M 576.04869424711308,454.5334341004953 A 296,296 0 0,1 568.88766856008056,467.17441228119355" />
    <path d="M 552.74942931827093,491.32699412976024 A 296,296 0 0,1 543.81109419537017,502.780412112439" />
    <path d="M 513.78145063471754,534.32153310506783 A 296,296 0 0,1 479.44878897380227,561.11500524155338" />
    <path d="M 467.17441228119367,568.88766856008056 A 296,296 0 0,1 441.55630765536347,582.58083076453931" />
    <path d="M 386.92213325136618,602.129250945585 A 296,296 0 0,1 358.43222043878711,607.79624694957511" />
    <path d="M 329.52403160091569,610.643455036731 A 296,296 0 0,1 229.0757355326792,598.25433937673392" />
    <path d="M 175.4665658995047,576.04869424711308 A 296,296 0 0,1 162.82558771880642,568.88766856008056" />
    <path d="M 150.55121102619782,561.11500524155349 A 296,296 0 0,1 138.67300587023976,552.74942931827093" />
    <path d="M 105.69639276878198,524.30360723121817 A 296,296 0 0,1 95.678466894932171,513.78145063471754" />
    <path d="M 77.250570681729073,491.32699412976024 A 296,296 0 0,1 61.112331439919473,467.17441228119367" />
    <path d="M 53.951305752886924,454.53343410049536 A 296,296 0 0,1 41.531658376659209,428.27429598006677" />
    <path d="M 24.687557000643835,372.74673531677411 A 296,296 0 0,1 22.203753050424837,358.43222043878723" />
    <path d="M 20.425320905029707,344.01307353754987 A 296,296 0 0,1 20.425320905029707,285.98692646245024" />
    <path d="M 22.203753050424837,271.56777956121289 A 296,296 0 0,1 31.745660623266133,229.07573553267923" />
    <path d="M 36.302956705825807,215.280603395903 A 296,296 0 0,1 53.951305752886924,175.46656589950473" />
    <path d="M 61.112331439919416,162.82558771880645 A 296,296 0 0,1 68.884994758446538,150.55121102619785" />
    <path d="M 86.188905804629883,127.21958788756089 A 296,296 0 0,1 95.678466894932086,116.21854936528257" />
    <path d="M 138.67300587023976,77.250570681729073 A 296,296 0 0,1 150.55121102619773,68.884994758446624" />
    <path d="M 188.44369234463636,47.419169235460856 A 296,296 0 0,1 201.72570401993323,41.531658376659209" />
    <path d="M 215.28060339590286,36.302956705825864 A 296,296 0 0,1 257.25326468322589,24.687557000643835" />
    <path d="M 330.30911439015443,3.3758176639861972 A 312,312 0 1,1 315,3" />
  </g>
  <g fill="none" stroke="#000000" stroke-width="2" stroke-linecap="butt">
    <line x1="315" y1="99" x2="315" y2="115" />
    <line x1="315" y1="163" x2="315" y2="195" />
    <line x1="315" y1="227" x2="315" y2="259" />
    <line x1="330.30911439015443" y1="3.3758176639861972" x2="327.95386602243838" y2="51.317999561834483" />
    <line x1="342.44479929227697" y1="36.348276531784848" x2="339.30825080173105" y2="68.194187785295156" />
    <line x1="337.73997655645803" y1="84.117143412050325" x2="336.17170231118507" y2="100.04009903880547" />
    <line x1="334.60342806591211" y1="115.96305466556061" x2="331.46687957536619" y2="147.80896591907091" />
    <line x1="350.8966192509676" y1="134.53550840580562" x2="347.77517409870956" y2="150.22807289225727" />
    <line x1="344.65372894645151" y1="165.920637378709" x2="341.53228379419346" y2="181.61320186516065" />
    <line x1="335.28939348967731" y1="212.99833083806402" x2="332.16794833741926" y2="228.69089532451574" />
    <line x1="383.03445037291385" y1="43.391249105527663" x2="379.14676749446164" y2="58.911749156640383" />
    <line x1="400.92426446732088" y1="31.74566062326619" x2="396.27970963124943" y2="47.056705994981542" />
    <line x1="382.34604512303525" y1="92.98984211012754" x2="368.41238061482107" y2="138.92297822527357" />
    <line x1="363.76782577874968" y1="154.23402359698892" x2="354.4787161066069" y2="184.8561143404196" />
    <line x1="409.32915894982159" y1="51.367661748754188" x2="403.93892129554609" y2="66.432366791682512" />
    <line x1="428.27429598006654" y1="41.531658376659152" x2="422.15136106222513" y2="56.313730896839729" />
    <line x1="403.7825563087008" y1="100.65994845738149" x2="385.41375155517653" y2="145.00616601792325" />
    <line x1="367.0449468016522" y1="189.352383578465" x2="354.79907696596933" y2="218.91652861882619" />
    <line x1="448.397189150248" y1="32.955340545485683" x2="434.71542616047896" y2="61.882997925435859" />
    <line x1="446.99108631127933" y1="68.062045982460575" x2="424.36404294363143" y2="110.39426667118164" />
    <line x1="409.27934736519956" y1="138.615747130329" x2="401.73699957598353" y2="152.72648735990268" />
    <line x1="467.17441228119361" y1="61.112331439919444" x2="450.72312446701051" y2="88.559646959928159" />
    <line x1="488.33791270211589" y1="55.581480961605905" x2="479.44878897380227" y2="68.884994758446624" />
    <line x1="470.55966524548865" y1="82.188508555287342" x2="452.78141778886135" y2="108.79553614896878" />
    <line x1="443.89229406054767" y1="122.0990499458095" x2="435.00317033223405" y2="135.40256374265022" />
    <line x1="426.11404660392043" y1="148.70607753949096" x2="417.22492287560681" y2="162.00959133633168" />
    <line x1="408.33579914729319" y1="175.3131051331724" x2="381.66842796235227" y2="215.22364652369458" />
    <line x1="372.77930423403865" y1="228.5271603205353" x2="363.89018050572497" y2="241.83067411737602" />
    <line x1="491.32699412976024" y1="77.2505706817291" x2="481.79580525788134" y2="90.101891185419419" />
    <line x1="492.63011956582073" y1="98.557073058433645" x2="482.47982701920239" y2="110.92524031223744" />
    <line x1="431.72836428611078" y1="172.76607658125639" x2="411.42777919287414" y2="197.502411088864" />
    <line x1="456.42135623730951" y1="173.57864376269049" x2="433.79393923934" y2="196.20606076066002" />
    <line x1="422.48023074035518" y1="207.51976925964476" x2="411.16652224137044" y2="218.83347775862953" />
    <line x1="534.32153310506783" y1="116.21854936528257" x2="510.61109709370919" y2="137.70843592038716" />
    <line x1="506.7065924339588" y1="157.67046552741593" x2="469.60209067254743" y2="188.12134316727091" />
    <line x1="457.23392341874364" y1="198.27163571388923" x2="432.497588911136" y2="218.57222080712589" />
    <line x1="552.74942931827081" y1="138.67300587023971" x2="539.89810881458061" y2="148.20419474211863" />
    <line x1="534.50797764787194" y1="168.329458482825" x2="507.9009500541905" y2="186.10770593945227" />
    <line x1="481.29392246050907" y1="203.88595339607954" x2="467.99040866366829" y2="212.77507712439319" />
    <line x1="454.68689486682763" y1="221.66420085270681" x2="441.38338106998685" y2="230.55332458102043" />
    <line x1="401.4728396794647" y1="257.22069576596135" x2="388.169325882624" y2="266.10981949427503" />
    <line x1="582.61132632008491" y1="154.59994381171484" x2="555.1640108000762" y2="171.05123162589794" />
    <line x1="561.93795401753937" y1="183.00891368872061" x2="533.716473558392" y2="198.09360926715254" />
    <line x1="519.60573332881836" y1="205.63595705636851" x2="491.384252869671" y2="220.72065263480044" />
    <line x1="449.05203218094994" y1="243.34769600244835" x2="434.94129195137629" y2="250.89004379166431" />
    <line x1="582.5808307645392" y1="188.44369234463647" x2="568.1170020745642" y2="195.284573839521" />
    <line x1="558.90419658297969" y1="213.97157385561627" x2="544.12212406279912" y2="220.09450877345773" />
    <line x1="470.21176146189617" y1="250.7091833626649" x2="455.4296889417156" y2="256.83211828050634" />
    <line x1="440.64761642153496" y1="262.9550531983478" x2="411.08347138117381" y2="275.20092303403067" />
    <line x1="593.69704329417414" y1="215.28060339590286" x2="563.56763320831749" y2="226.06107870445391" />
    <line x1="552.32120326158781" y1="243.00940004089335" x2="537.01015788987252" y2="247.65395487696475" />
    <line x1="491.0770217747264" y1="261.58761938517893" x2="475.76597640301111" y2="266.23217422125032" />
    <line x1="617.64975099669778" y1="239.19018387018164" x2="602.129250945585" y2="243.07786674863388" />
    <line x1="586.60875089447234" y1="246.96554962708609" x2="571.08825084335967" y2="250.8532325055383" />
    <line x1="605.31244299935622" y1="257.253264683226" x2="573.9273140264529" y2="263.4961549877421" />
    <line x1="511.1570560806461" y1="275.98193559677435" x2="495.46449159419438" y2="279.1033807490324" />
    <line x1="448.38679813483935" y1="288.46771620580654" x2="417.001669161936" y2="294.71060651032263" />
    <line x1="401.30910467548426" y1="297.83205166258068" x2="385.61654018903261" y2="300.95349681483879" />
    <line x1="623.62307110901168" y1="269.22009196992713" x2="591.96942279013865" y2="273.91546715249871" />
    <line x1="577.72876784146" y1="289.12347495299593" x2="545.88285658794962" y2="292.26002344354191" />
    <line x1="529.95990096119453" y1="293.82829768881487" x2="514.03694533443934" y2="295.39657193408783" />
    <line x1="498.11398970768425" y1="296.96484617936085" x2="466.26807845417392" y2="300.10139466990677" />
    <line x1="626.62418233601375" y1="299.69088560984557" x2="594.66272773744822" y2="301.26105118832294" />
    <line x1="611" y1="315" x2="595" y2="315" />
    <line x1="579" y1="315" x2="499" y2="315" />
    <line x1="467" y1="315" x2="451" y2="315" />
    <line x1="419" y1="315" x2="403" y2="315" />
    <line x1="387" y1="315" x2="355" y2="315" />
    <line x1="626.62418233601375" y1="330.30911439015443" x2="610.643455036731" y2="329.52403160091575" />
    <line x1="594.66272773744822" y1="328.73894881167706" x2="578.68200043816546" y2="327.95386602243838" />
    <line x1="609.57467909497029" y1="344.01307353754993" x2="593.6517234682151" y2="342.44479929227697" />
    <line x1="545.88285658794962" y1="337.73997655645809" x2="529.95990096119453" y2="336.17170231118507" />
    <line x1="466.268078454174" y1="329.89860533009323" x2="450.34512282741878" y2="328.33033108482027" />
    <line x1="607.79624694957511" y1="358.43222043878706" x2="591.96942279013865" y2="356.08453284750124" />
    <line x1="589.61987851290451" y1="369.62529016451589" x2="573.9273140264529" y2="366.50384501225784" />
    <line x1="558.23474954000108" y1="363.38239985999979" x2="542.54218505354947" y2="360.26095470774175" />
    <line x1="511.1570560806461" y1="354.01806440322565" x2="495.46449159419438" y2="350.8966192509676" />
    <line x1="448.38679813483935" y1="341.5322837941934" x2="417.001669161936" y2="335.28939348967731" />
    <line x1="401.30910467548426" y1="332.16794833741926" x2="385.61654018903261" y2="329.04650318516121" />
    <line x1="602.129250945585" y1="386.92213325136612" x2="586.60875089447234" y2="383.03445037291385" />
    <line x1="460.45493103129576" y1="359.12327094267823" x2="445.14388565958041" y2="354.47871610660684" />
    <line x1="588.46834162334085" y1="428.27429598006654" x2="529.34005154261854" y2="403.7825563087008" />
    <line x1="514.557979022438" y1="397.6596213908594" x2="499.77590650225738" y2="391.53668647301794" />
    <line x1="411.08347138117381" y1="354.79907696596933" x2="396.30139886099323" y2="348.67614204812787" />
    <line x1="366.73725382063208" y1="336.430272212445" x2="351.9551813004515" y2="330.3073372946036" />
    <line x1="597.04465945451443" y1="448.397189150248" x2="582.58083076453931" y2="441.55630765536341" />
    <line x1="576.04869424711308" y1="454.53343410049536" x2="561.93795401753937" y2="446.99108631127933" />
    <line x1="547.82721378796577" y1="439.44873852206342" x2="519.60573332881836" y2="424.36404294363149" />
    <line x1="491.384252869671" y1="409.27934736519956" x2="477.27351264009735" y2="401.73699957598359" />
    <line x1="463.16277241052364" y1="394.19465178676762" x2="434.94129195137629" y2="379.10995620833569" />
    <line x1="555.1640108000762" y1="458.94876837410209" x2="541.44035304007184" y2="450.72312446701051" />
    <line x1="574.41851903839415" y1="488.33791270211577" x2="561.11500524155349" y2="479.44878897380215" />
    <line x1="507.90095005419056" y1="443.89229406054767" x2="481.29392246050907" y2="426.11404660392037" />
    <line x1="441.38338106998691" y1="399.44667541897951" x2="414.77635347630547" y2="381.66842796235221" />
    <line x1="552.74942931827093" y1="491.32699412976024" x2="539.89810881458061" y2="481.79580525788134" />
    <line x1="531.44292694156638" y1="492.63011956582068" x2="494.338425180155" y2="462.1792419259657" />
    <line x1="481.97025792635122" y1="452.02894937934741" x2="420.12942165733227" y2="401.27748664625574" />
    <line x1="546.1767511107472" y1="524.52639391226978" x2="534.32153310506783" y2="513.78145063471743" />
    <line x1="524.303607231218" y1="524.303607231218" x2="512.98989873223331" y2="512.98989873223331" />
    <line x1="479.04877323527904" y1="479.048773235279" x2="445.10764773832477" y2="445.10764773832477" />
    <line x1="399.85281374238571" y1="399.85281374238571" x2="354.59797974644664" y2="354.59797974644664" />
    <line x1="343.2842712474619" y1="343.2842712474619" x2="331.97056274847716" y2="331.97056274847716" />
    <line x1="482.47982701920239" y1="519.07475968776259" x2="441.87865683272912" y2="469.60209067254743" />
    <line x1="431.72836428611078" y1="457.23392341874364" x2="421.57807173949243" y2="444.86575616493985" />
    <line x1="411.42777919287414" y1="432.497588911136" x2="401.2774866462558" y2="420.12942165733222" />
    <line x1="491.32699412976029" y1="552.74942931827081" x2="472.26461638600244" y2="527.04678831089018" />
    <line x1="470.55966524548865" y1="547.81149144471271" x2="452.78141778886135" y2="521.20446385103128" />
    <line x1="435.00317033223405" y1="494.59743625734978" x2="426.11404660392043" y2="481.29392246050907" />
    <line x1="408.33579914729319" y1="454.68689486682763" x2="399.44667541897957" y2="441.38338106998691" />
    <line x1="390.55755169066589" y1="428.07986727314619" x2="363.89018050572497" y2="388.169325882624" />
    <line x1="467.17441228119367" y1="568.88766856008056" x2="458.94876837410209" y2="555.1640108000762" />
    <line x1="439.44873852206342" y1="547.82721378796577" x2="424.36404294363149" y2="519.60573332881836" />
    <line x1="386.65230399755166" y1="449.05203218094994" x2="379.10995620833569" y2="434.94129195137629" />
    <line x1="441.55630765536347" y1="582.5808307645392" x2="434.71542616047896" y2="568.1170020745642" />
    <line x1="434.39723089790806" y1="603.25041414352154" x2="422.15136106222519" y2="573.68626910316027" />
    <line x1="409.90549122654227" y1="544.12212406279912" x2="403.78255630870086" y2="529.34005154261854" />
    <line x1="397.6596213908594" y1="514.557979022438" x2="391.536686473018" y2="499.77590650225738" />
    <line x1="373.16788171949366" y1="455.4296889417156" x2="354.79907696596933" y2="411.08347138117381" />
    <line x1="348.67614204812793" y1="396.30139886099323" x2="342.55320713028647" y2="381.51932634081265" />
    <line x1="336.43027221244506" y1="366.73725382063208" x2="330.3073372946036" y2="351.9551813004515" />
    <line x1="414.7193966040972" y1="593.69704329417414" x2="409.3291589498217" y2="578.63233825124576" />
    <line x1="400.92426446732088" y1="598.25433937673381" x2="391.6351547951781" y2="567.63224863330311" />
    <line x1="382.34604512303525" y1="537.01015788987252" x2="368.41238061482107" y2="491.0770217747264" />
    <line x1="390.80981612981839" y1="617.64975099669778" x2="379.1467674944617" y2="571.08825084335967" />
    <line x1="369.625290164516" y1="589.61987851290451" x2="366.50384501225795" y2="573.9273140264529" />
    <line x1="363.38239985999991" y1="558.23474954000108" x2="360.26095470774186" y2="542.54218505354947" />
    <line x1="347.77517409870961" y1="479.77192710774273" x2="338.41083864193541" y2="432.69423364838764" />
    <line x1="358.43222043878711" y1="607.79624694957511" x2="356.08453284750129" y2="591.96942279013865" />
    <line x1="345.581347782823" y1="625.49763472172549" x2="340.87652504700407" y2="577.72876784146" />
    <line x1="336.17170231118513" y1="529.95990096119453" x2="334.60342806591217" y2="514.03694533443934" />
    <line x1="329.89860533009323" y1="466.26807845417392" x2="328.33033108482027" y2="450.34512282741878" />
    <line x1="329.52403160091569" y1="610.643455036731" x2="327.95386602243832" y2="578.68200043816546" />
    <line x1="315.00000000000006" y1="595" x2="315" y2="531" />
    <line x1="315" y1="499" x2="315" y2="467" />
    <line x1="315" y1="355" x2="315" y2="339" />
    <line x1="285.98692646245007" y1="609.57467909497029" x2="289.123474952996" y2="577.72876784146" />
    <line x1="290.69174919826895" y1="561.80581221470482" x2="292.26002344354197" y2="545.88285658794962" />
    <line x1="296.96484617936085" y1="498.11398970768425" x2="298.53312042463381" y2="482.19103408092906" />
    <line x1="263.4961549877421" y1="573.9273140264529" x2="266.61760014000015" y2="558.23474954000108" />
    <line x1="272.86049044451624" y1="526.84962056709776" x2="279.1033807490324" y2="495.46449159419438" />
    <line x1="282.22482590129044" y1="479.77192710774273" x2="285.34627105354849" y2="464.079362621291" />
    <line x1="246.96554962708615" y1="586.60875089447234" x2="250.85323250553836" y2="571.08825084335967" />
    <line x1="238.36484520482202" y1="567.63224863330311" x2="243.00940004089341" y2="552.32120326158781" />
    <line x1="270.87672905732177" y1="460.45493103129576" x2="275.52128389339316" y2="445.14388565958041" />
    <line x1="209.89036574162731" y1="608.76174833710252" x2="215.28060339590286" y2="593.69704329417414" />
    <line x1="201.72570401993346" y1="588.46834162334085" x2="213.97157385561633" y2="558.90419658297969" />
    <line x1="226.2174436912992" y1="529.34005154261854" x2="232.34037860914063" y2="514.557979022438" />
    <line x1="244.5862484448235" y1="484.99383398207681" x2="250.70918336266493" y2="470.21176146189623" />
    <line x1="256.83211828050639" y1="455.4296889417156" x2="269.07798811618926" y2="425.86554390135444" />
    <line x1="181.60281084975208" y1="597.04465945451443" x2="195.2845738395211" y2="568.1170020745642" />
    <line x1="175.4665658995047" y1="576.04869424711308" x2="183.00891368872067" y2="561.93795401753937" />
    <line x1="198.0936092671526" y1="533.71647355839207" x2="205.63595705636857" y2="519.60573332881836" />
    <line x1="213.17830484558451" y1="505.49499309924465" x2="235.80534821323238" y2="463.16277241052364" />
    <line x1="150.55121102619782" y1="561.11500524155349" x2="177.21858221113871" y2="521.20446385103128" />
    <line x1="186.10770593945236" y1="507.90095005419056" x2="194.99682966776598" y2="494.59743625734984" />
    <line x1="203.88595339607963" y1="481.29392246050907" x2="212.77507712439325" y2="467.9904086636684" />
    <line x1="248.33157203764776" y1="414.77635347630547" x2="266.10981949427503" y2="388.169325882624" />
    <line x1="129.14181699836084" y1="565.60074982196124" x2="138.67300587023976" y2="552.74942931827093" />
    <line x1="127.219587887561" y1="543.81109419537017" x2="147.52017298079764" y2="519.07475968776259" />
    <line x1="177.97105062065262" y1="481.97025792635122" x2="228.72251335374426" y2="420.12942165733227" />
    <line x1="105.47360608773025" y1="546.1767511107472" x2="116.21854936528254" y2="534.32153310506783" />
    <line x1="105.69639276878195" y1="524.30360723121817" x2="117.01010126776671" y2="512.98989873223331" />
    <line x1="128.32380976675148" y1="501.67619023324858" x2="196.20606076066002" y2="433.79393923934003" />
    <line x1="207.51976925964479" y1="422.48023074035524" x2="230.14718625761429" y2="399.85281374238571" />
    <line x1="241.46089475659906" y1="388.53910524340097" x2="275.40202025355336" y2="354.59797974644664" />
    <line x1="95.678466894932171" y1="513.78145063471754" x2="107.53368490061152" y2="503.03650735716519" />
    <line x1="73.82073855082615" y1="512.93070465905748" x2="86.18890580462994" y2="502.78041211243919" />
    <line x1="98.55707305843373" y1="492.63011956582085" x2="172.76607658125644" y2="431.72836428611083" />
    <line x1="185.13424383506023" y1="421.57807173949254" x2="209.87057834266781" y2="401.27748664625585" />
    <line x1="55.581480961605905" y1="488.33791270211589" x2="68.884994758446624" y2="479.44878897380227" />
    <line x1="108.79553614896878" y1="452.78141778886135" x2="122.0990499458095" y2="443.89229406054767" />
    <line x1="135.40256374265022" y1="435.00317033223405" x2="162.00959133633168" y2="417.22492287560681" />
    <line x1="228.5271603205353" y1="372.77930423403865" x2="241.83067411737602" y2="363.89018050572497" />
    <line x1="39.840565523313273" y1="462.07578188971132" x2="53.951305752886924" y2="454.53343410049536" />
    <line x1="110.39426667118164" y1="424.36404294363149" x2="124.50500690075535" y2="416.82169515441552" />
    <line x1="138.615747130329" y1="409.27934736519956" x2="195.05870804862371" y2="379.10995620833569" />
    <line x1="71.095803417020363" y1="416.02842614438384" x2="100.65994845738152" y2="403.782556308701" />
    <line x1="115.44202097756212" y1="397.65962139085951" x2="159.78823853810386" y2="379.29081663733518" />
    <line x1="174.57031105828446" y1="373.16788171949372" x2="204.13445609864561" y2="360.92201188381085" />
    <line x1="218.91652861882619" y1="354.79907696596939" x2="248.48067365918737" y2="342.55320713028652" />
    <line x1="21.238251662897483" y1="420.10963425837264" x2="51.367661748754188" y2="409.32915894982159" />
    <line x1="16.434615251550838" y1="405.56881930339227" x2="62.367751366696865" y2="391.6351547951781" />
    <line x1="77.678796738412217" y1="386.9905999591067" x2="123.61193285355824" y2="373.05693545089247" />
    <line x1="169.54506896870427" y1="359.12327094267829" x2="184.8561143404196" y2="354.4787161066069" />
    <line x1="12.350249003302281" y1="390.80981612981839" x2="58.911749156640383" y2="379.14676749446176" />
    <line x1="8.99499251419212" y1="375.86818046903215" x2="24.687557000643835" y2="372.74673531677411" />
    <line x1="56.072685973547209" y1="366.50384501225795" x2="71.765250459998867" y2="363.38239985999991" />
    <line x1="87.457814946450554" y1="360.26095470774186" x2="103.15037943290224" y2="357.13950955548381" />
    <line x1="118.84294391935393" y1="354.01806440322571" x2="134.53550840580562" y2="350.89661925096766" />
    <line x1="150.2280728922573" y1="347.77517409870961" x2="165.920637378709" y2="344.65372894645157" />
    <line x1="181.61320186516068" y1="341.53228379419352" x2="212.99833083806405" y2="335.28939348967737" />
    <line x1="68.194187785295156" y1="339.308250801731" x2="84.117143412050325" y2="337.73997655645803" />
    <line x1="100.04009903880547" y1="336.17170231118507" x2="115.96305466556061" y2="334.60342806591211" />
    <line x1="131.88601029231577" y1="333.03515382063915" x2="147.80896591907091" y2="331.46687957536614" />
    <line x1="35" y1="315.00000000000006" x2="67" y2="315.00000000000006" />
    <line x1="147" y1="315.00000000000006" x2="179" y2="315" />
    <line x1="211" y1="315" x2="259" y2="315" />
    <line x1="4.5023652782745671" y1="284.41865221717723" x2="20.425320905029707" y2="285.98692646245024" />
    <line x1="36.348276531784848" y1="287.5552007077232" x2="100.04009903880547" y2="293.82829768881504" />
    <line x1="131.88601029231577" y1="296.96484617936096" x2="147.80896591907091" y2="298.53312042463392" />
    <line x1="38.030577209861349" y1="273.91546715249865" x2="53.857401369297861" y2="276.26315474378447" />
    <line x1="87.457814946450526" y1="269.73904529225825" x2="103.15037943290224" y2="272.8604904445163" />
    <line x1="150.22807289225727" y1="282.22482590129044" x2="165.920637378709" y2="285.34627105354849" />
    <line x1="181.61320186516065" y1="288.46771620580654" x2="212.99833083806402" y2="294.71060651032263" />
    <line x1="228.69089532451574" y1="297.83205166258074" x2="244.3834598109674" y2="300.95349681483879" />
    <line x1="43.391249105527663" y1="246.96554962708615" x2="58.911749156640383" y2="250.85323250553836" />
    <line x1="31.745660623266133" y1="229.07573553267923" x2="77.678796738412188" y2="243.00940004089341" />
    <line x1="123.61193285355822" y1="256.94306454910759" x2="154.23402359698889" y2="266.23217422125038" />
    <line x1="56.313730896839729" y1="207.84863893777481" x2="71.095803417020335" y2="213.97157385561624" />
    <line x1="85.877875937200912" y1="220.09450877345768" x2="100.65994845738149" y2="226.21744369129914" />
    <line x1="130.22409349774267" y1="238.463313526982" x2="145.00616601792325" y2="244.58624844482344" />
    <line x1="159.78823853810386" y1="250.70918336266487" x2="204.13445609864561" y2="269.0779881161892" />
    <line x1="218.91652861882619" y1="275.20092303403067" x2="233.69860113900677" y2="281.32385795187207" />
    <line x1="47.4191692354608" y1="188.44369234463647" x2="76.346826615410947" y2="202.1254553344055" />
    <line x1="124.50500690075532" y1="213.17830484558454" x2="166.83722758947636" y2="235.80534821323241" />
    <line x1="180.94796781905004" y1="243.34769600244837" x2="195.05870804862371" y2="250.89004379166431" />
    <line x1="61.112331439919416" y1="162.82558771880642" x2="74.835989199923773" y2="171.05123162589797" />
    <line x1="55.581480961605791" y1="141.66208729788423" x2="68.884994758446538" y2="150.55121102619785" />
    <line x1="82.188508555287285" y1="159.4403347545115" x2="95.492022352128" y2="168.32945848282512" />
    <line x1="108.79553614896872" y1="177.21858221113874" x2="135.40256374265019" y2="194.996829667766" />
    <line x1="162.00959133633162" y1="212.77507712439325" x2="175.31310513317237" y2="221.66420085270687" />
    <line x1="215.22364652369453" y1="248.33157203764779" x2="255.13418791421674" y2="274.99894322258865" />
    <line x1="77.250570681728988" y1="138.67300587023985" x2="90.101891185419333" y2="148.20419474211877" />
    <line x1="110.92524031223746" y1="147.52017298079755" x2="123.29340756604125" y2="157.6704655274159" />
    <line x1="148.02974207364883" y1="177.97105062065256" x2="160.39790932745262" y2="188.12134316727088" />
    <line x1="185.1342438350602" y1="208.42192826050754" x2="197.502411088864" y2="218.57222080712586" />
    <line x1="95.678466894932114" y1="116.21854936528257" x2="107.53368490061146" y2="126.96349264283487" />
    <line x1="105.69639276878189" y1="105.69639276878198" x2="128.32380976675142" y2="128.32380976675151" />
    <line x1="150.95122676472093" y1="150.951226764721" x2="162.2649352637057" y2="162.26493526370578" />
    <line x1="173.57864376269046" y1="173.57864376269052" x2="196.20606076066" y2="196.20606076066005" />
    <line x1="230.14718625761429" y1="230.14718625761432" x2="241.46089475659903" y2="241.46089475659909" />
    <line x1="105.47360608773019" y1="83.823248889252824" x2="126.96349264283478" y2="107.53368490061152" />
    <line x1="127.21958788756081" y1="86.18890580462994" x2="137.36988043417915" y2="98.55707305843373" />
    <line x1="147.52017298079747" y1="110.92524031223752" x2="167.82075807403413" y2="135.6615748198451" />
    <line x1="177.97105062065248" y1="148.02974207364889" x2="198.27163571388917" y2="172.76607658125644" />
    <line x1="148.20419474211869" y1="90.10189118541939" x2="157.73538361399761" y2="102.95321168910971" />
    <line x1="150.55121102619776" y1="68.884994758446624" x2="177.21858221113865" y2="108.79553614896878" />
    <line x1="186.1077059394523" y1="122.0990499458095" x2="194.99682966776592" y2="135.40256374265022" />
    <line x1="266.10981949427503" y1="241.83067411737602" x2="274.99894322258865" y2="255.13418791421674" />
    <line x1="162.82558771880633" y1="61.112331439919473" x2="171.05123162589788" y2="74.83598919992383" />
    <line x1="167.92421811028865" y1="39.840565523313273" x2="175.46656589950462" y2="53.951305752886981" />
    <line x1="198.09360926715252" y1="96.283526441607989" x2="205.63595705636848" y2="110.39426667118167" />
    <line x1="213.17830484558445" y1="124.50500690075535" x2="220.72065263480042" y2="138.61574713032903" />
    <line x1="235.80534821323235" y1="166.83722758947639" x2="250.89004379166428" y2="195.05870804862374" />
    <line x1="188.44369234463636" y1="47.419169235460856" x2="195.28457383952087" y2="61.882997925435916" />
    <line x1="195.6027691020918" y1="26.749585856478632" x2="201.72570401993323" y2="41.531658376659209" />
    <line x1="213.97157385561616" y1="71.095803417020363" x2="220.09450877345756" y2="85.87787593720094" />
    <line x1="226.21744369129903" y1="100.65994845738152" x2="238.46331352698192" y2="130.2240934977427" />
    <line x1="256.83211828050628" y1="174.57031105828446" x2="262.95505319834768" y2="189.35238357846504" />
    <line x1="287.44679286971348" y1="248.48067365918737" x2="293.56972778755494" y2="263.26274617936792" />
    <line x1="229.07573553267912" y1="31.74566062326619" x2="238.3648452048219" y2="62.367751366696865" />
    <line x1="243.0094000408933" y1="77.678796738412217" x2="247.65395487696469" y2="92.98984211012754" />
    <line x1="256.94306454910748" y1="123.61193285355824" x2="261.58761938517887" y2="138.92297822527357" />
    <line x1="266.23217422125032" y1="154.23402359698892" x2="270.87672905732171" y2="169.54506896870427" />
    <line x1="246.96554962708603" y1="43.391249105527663" x2="250.85323250553824" y2="58.911749156640383" />
    <line x1="263.496154987742" y1="56.072685973547209" x2="266.61760014000009" y2="71.765250459998867" />
    <line x1="269.73904529225814" y1="87.457814946450554" x2="272.86049044451619" y2="103.15037943290224" />
    <line x1="279.10338074903234" y1="134.53550840580562" x2="282.22482590129039" y2="150.2280728922573" />
    <line x1="285.34627105354843" y1="165.920637378709" x2="288.46771620580648" y2="181.61320186516068" />
    <line x1="297.83205166258068" y1="228.69089532451574" x2="300.95349681483873" y2="244.38345981096742" />
    <line x1="269.22009196992695" y1="6.3769288909883812" x2="273.91546715249854" y2="38.030577209861349" />
    <line x1="287.55520070772309" y1="36.348276531784848" x2="289.12347495299605" y2="52.271232158539988" />
    <line x1="290.691749198269" y1="68.194187785295156" x2="292.26002344354197" y2="84.117143412050325" />
    <line x1="295.39657193408789" y1="115.96305466556061" x2="296.96484617936085" y2="131.88601029231577" />
    <line x1="300.47596839908425" y1="19.356544963268959" x2="301.26105118832294" y2="35.337272262551721" />
  </g>
  <path fill="none" stroke="#ff0000" stroke-width="2" stroke-linecap="square" stroke-linejoin="round" d="M 322.65686329914865,3.0939685667842696 L 322.46053347096534,11.091559116353892 A 304,304 0 0,0 277.78715473943834,13.286221481992129 L 279.74572554262579,29.165894035571512 A 288,288 0 0,1 293.8134056832958,27.7803484765372 L 294.99043870089048,43.736995783396253 A 272,272 0 0,1 321.67521415823217,43.081921314632439 L 321.28255450186555,59.077102413771712 A 256,256 0 0,0 302.43867537218097,59.308363211475864 L 303.22375816141965,75.289090510758626 A 240,240 0 0,1 417.6132224232677,98.0425696503736 L 424.45410391815221,83.5787409603985 A 256,256 0 0,0 418.74177638527738,80.962302539896143 L 425.22563740935726,66.33494644863967 A 272,272 0 0,1 437.294281666053,72.042990074819841 L 444.48806294052667,57.751401255691576 A 288,288 0 0,1 456.95467936217779,64.4149465606911 L 441.18193721082469,92.257730276169866 A 256,256 0 0,1 451.95939069109687,98.717487296074978 L 469.079314527484,71.68217320808435 A 288,288 0 0,1 480.83275912833949,79.5355738123439 L 471.61982806565391,92.616930822769234 A 272,272 0 0,1 482.34299263793048,100.5697716855631 L 472.49928718864044,113.18331452758878 A 256,256 0 0,1 520.62112805904508,162.50097804993703 L 494.91848705166444,181.56335579369491 A 224,224 0 0,1 507.13120864006095,199.84098530071833 L 493.40755088005659,208.06662920780988 A 208,208 0 0,0 482.06716654797413,191.09454466557384 L 469.21584604428381,200.62573353745279 A 192,192 0 0,0 457.26261606815217,186.06068066937246 L 433.55218005679347,207.55056722447705 A 160,160 0 0,0 422.44943277552295,196.44781994320653 L 411.70448949797066,208.3030379488859 A 144,144 0 0,0 400.78069984691041,199.33811546678714 L 391.24951097503146,212.18943597047746 A 128,128 0 0,1 413.94533803043032,233.79765962705338 L 401.57717077662653,243.9479521736717 A 112,112 0 0,1 413.77518160701572,262.20356547548823 L 399.66444137744207,269.7459132647042 A 96,96 0 0,1 410.5377337605309,305.59035452836218 L 394.61477813377576,307.15862877363514 A 80,80 0 0,1 394.61477813377576,322.84137122636486 L 426.46068938728604,325.97791971691078 A 112,112 0 0,0 426.46068938728604,304.02208028308917 L 442.38364501404118,302.45380603781621 A 128,128 0 0,1 441.614593275492,333.78150073028627 L 457.44141743492844,336.12918832157209 A 144,144 0 0,1 454.68450046001431,349.98914590607 L 439.16400040890164,346.1014630276178 A 128,128 0 0,1 424.78926208003486,380.80515125673236 L 452.23657760004357,397.25643907091546 A 160,160 0 0,1 443.51320503690317,410.31188871878931 L 417.81056402952254,391.24951097503146 A 128,128 0 0,1 413.94533803043032,396.20234037294659 L 389.20900352282274,375.90175527970996 A 96,96 0 0,0 399.66444137744207,360.2540867352958 L 385.55370114786842,352.71173894607983 A 80,80 0 0,1 376.84083626901895,365.75146273309161 L 364.47266901521516,355.60117018647333 A 64,64 0 0,0 377.77025794580675,327.48578060903219 L 346.38512897290337,321.2428903045161 A 32,32 0 1,0 302.75413016431713,344.56414504036115 L 305.81559762323786,337.17310878027087" />
  <type>Circular</type>
</svg>