<?xml version="1.0" encoding="utf-8" standalone="no"?>
<!DOCTYPE svg PUBLIC "-//W3C//DTD SVG 1.1//EN" "http://www.w3.org/Graphics/SVG/1.1/DTD/svg11.dtd"[]>
<svg width="431" height="622.34213830208921" version="1.1" xmlns="http://www.w3.org/2000/svg">
  <title>20 by 25 sigma maze</title>
  <g fill="none" stroke="#000000" stroke-width="2" stroke-linecap="round" stroke-linejoin="round">
    <polyline points="9,38.37306695894646 2,26.248711305964321 9,14.12435565298218 23,14.12435565298218 30,26.248711305964321" />
    <polyline points="23,14.12435565298218 30,2.0000000000000391 44,2.0000000000000391 51,14.12435565298218 44,26.248711305964321" />
    <polyline points="51,14.12435565298218 65,14.12435565298218 72,26.248711305964321" />
    <polyline points="65,14.12435565298218 72,2.0000000000000391 86,2.0000000000000391 93,14.12435565298218 107,14.12435565298218 114,26.248711305964321" />
    <polyline points="107,14.12435565298218 114,2.0000000000000391 128,2.0000000000000391 135,14.12435565298218 128,26.248711305964321" />
    <polyline points="135,14.12435565298218 149,14.12435565298218 156,2.0000000000000391 170,2.0000000000000391 177,14.12435565298218 170,26.248711305964321" />
    <polyline points="177,14.12435565298218 191,14.12435565298218 198,2.0000000000000391" />
    <polyline points="212,2.0000000000000391 219,14.12435565298218 233,14.12435565298218 240,26.248711305964321" />
    <polyline points="233,14.12435565298218 240,2.0000000000000391 254,2.0000000000000391 261,14.12435565298218 254,26.248711305964321" />
    <polyline points="261,14.12435565298218 275,14.12435565298218 282,2.0000000000000391 296,2.0000000000000391 303,14.12435565298218 317,14.12435565298218 324,2.0000000000000391 338,2.0000000000000391 345,14.12435565298218 359,14.12435565298218 366,26.248711305964321" />
    <polyline points="359,14.12435565298218 366,2.0000000000000391 380,2.0000000000000391 387,14.12435565298218 401,14.12435565298218 408,26.248711305964321" />
    <polyline points="401,14.12435565298218 408,2.0000000000000391 422,2.0000000000000391 429,14.12435565298218 422,26.248711305964321" />
    <polyline points="9,62.621778264910738 2,50.4974226119286 9,38.37306695894646 23,38.37306695894646" />
    <polyline points="44,26.248711305964321 51,38.37306695894646 44,50.4974226119286" />
    <line x1="65" y1="38.37306695894646" x2="72" y2="50.4974226119286" />
    <line x1="72" y1="26.248711305964321" x2="86" y2="26.248711305964321" />
    <polyline points="86,50.4974226119286 93,38.37306695894646 107,38.37306695894646 114,26.248711305964321" />
    <polyline points="128,50.4974226119286 135,38.37306695894646 149,38.37306695894646 156,50.4974226119286" />
    <polyline points="149,38.37306695894646 156,26.248711305964321 170,26.248711305964321 177,38.37306695894646" />
    <polyline points="191,38.37306695894646 198,26.248711305964321 212,26.248711305964321 219,38.37306695894646 212,50.4974226119286" />
    <line x1="219" y1="38.37306695894646" x2="233" y2="38.37306695894646" />
    <polyline points="254,26.248711305964321 261,38.37306695894646 254,50.4974226119286" />
    <polyline points="261,38.37306695894646 275,38.37306695894646 282,50.4974226119286" />
    <polyline points="282,26.248711305964321 296,26.248711305964321 303,38.37306695894646 296,50.4974226119286" />
    <polyline points="324,50.4974226119286 317,38.37306695894646 324,26.248711305964321" />
    <polyline points="338,26.248711305964321 345,38.37306695894646 338,50.4974226119286" />
    <polyline points="366,50.4974226119286 359,38.37306695894646 366,26.248711305964321" />
    <polyline points="380,26.248711305964321 387,38.37306695894646 380,50.4974226119286" />
    <polyline points="387,38.37306695894646 401,38.37306695894646 408,50.4974226119286" />
    <polyline points="422,26.248711305964321 429,38.37306695894646 422,50.4974226119286" />
    <polyline points="9,86.870489570875023 2,74.746133917892877 9,62.621778264910738" />
    <polyline points="30,74.746133917892877 23,62.621778264910738 30,50.4974226119286 44,50.4974226119286" />
    <polyline points="51,62.621778264910738 65,62.621778264910738 72,50.4974226119286 86,50.4974226119286 93,62.621778264910738 107,62.621778264910738 114,74.746133917892877" />
    <line x1="114" y1="50.4974226119286" x2="128" y2="50.4974226119286" />
    <line x1="128" y1="74.746133917892877" x2="135" y2="62.621778264910738" />
    <line x1="149" y1="62.621778264910738" x2="156" y2="50.4974226119286" />
    <polyline points="170,50.4974226119286 177,62.621778264910738 170,74.746133917892877" />
    <polyline points="177,62.621778264910738 191,62.621778264910738 198,74.746133917892877" />
    <line x1="191" y1="62.621778264910738" x2="198" y2="50.4974226119286" />
    <polyline points="212,50.4974226119286 219,62.621778264910738 212,74.746133917892877" />
    <polyline points="219,62.621778264910738 233,62.621778264910738 240,50.4974226119286 254,50.4974226119286" />
    <polyline points="254,74.746133917892877 261,62.621778264910738 275,62.621778264910738 282,50.4974226119286 296,50.4974226119286 303,62.621778264910738 296,74.746133917892877" />
    <line x1="303" y1="62.621778264910738" x2="317" y2="62.621778264910738" />
    <polyline points="324,50.4974226119286 338,50.4974226119286 345,62.621778264910738 338,74.746133917892877" />
    <polyline points="345,62.621778264910738 359,62.621778264910738 366,74.746133917892877" />
    <line x1="359" y1="62.621778264910738" x2="366" y2="50.4974226119286" />
    <polyline points="380,50.4974226119286 387,62.621778264910738 401,62.621778264910738 408,74.746133917892877" />
    <polyline points="422,50.4974226119286 429,62.621778264910738 422,74.746133917892877" />
    <polyline points="9,111.11920087683932 2,98.994845223857169 9,86.870489570875023" />
    <polyline points="30,98.994845223857169 23,86.870489570875023 30,74.746133917892877" />
    <polyline points="44,74.746133917892877 51,86.870489570875023 44,98.994845223857169" />
    <polyline points="51,86.870489570875023 65,86.870489570875023 72,98.994845223857169" />
    <polyline points="72,74.746133917892877 86,74.746133917892877 93,86.870489570875023 86,98.994845223857169" />
    <polyline points="93,86.870489570875023 107,86.870489570875023 114,74.746133917892877 128,74.746133917892877" />
    <polyline points="135,86.870489570875023 149,86.870489570875023 156,74.746133917892877 170,74.746133917892877 177,86.870489570875023 170,98.994845223857169" />
    <line x1="191" y1="86.870489570875023" x2="198" y2="98.994845223857169" />
    <polyline points="198,74.746133917892877 212,74.746133917892877 219,86.870489570875023 233,86.870489570875023" />
    <line x1="240" y1="74.746133917892877" x2="254" y2="74.746133917892877" />
    <polyline points="261,86.870489570875023 275,86.870489570875023 282,98.994845223857169" />
    <line x1="275" y1="86.870489570875023" x2="282" y2="74.746133917892877" />
    <polyline points="296,74.746133917892877 303,86.870489570875023 296,98.994845223857169" />
    <line x1="317" y1="86.870489570875023" x2="324" y2="98.994845223857169" />
    <line x1="324" y1="74.746133917892877" x2="338" y2="74.746133917892877" />
    <polyline points="338,98.994845223857169 345,86.870489570875023 359,86.870489570875023 366,98.994845223857169" />
    <polyline points="380,74.746133917892877 387,86.870489570875023 380,98.994845223857169" />
    <line x1="401" y1="86.870489570875023" x2="408" y2="98.994845223857169" />
    <polyline points="408,74.746133917892877 422,74.746133917892877 429,86.870489570875023 422,98.994845223857169" />
    <polyline points="9,135.36791218280359 2,123.24355652982145 9,111.1192008768393" />
    <line x1="23" y1="111.1192008768393" x2="30" y2="98.994845223857155" />
    <polyline points="44,123.24355652982145 51,111.1192008768393 65,111.1192008768393 72,98.994845223857155" />
    <polyline points="86,98.994845223857155 93,111.1192008768393 86,123.24355652982145" />
    <polyline points="93,111.1192008768393 107,111.1192008768393 114,123.24355652982145" />
    <polyline points="114,98.994845223857155 128,98.994845223857155 135,111.1192008768393 128,123.24355652982145" />
    <polyline points="135,111.1192008768393 149,111.1192008768393 156,98.994845223857155" />
    <polyline points="177,111.1192008768393 191,111.1192008768393 198,98.994845223857155 212,98.994845223857155 219,111.1192008768393 212,123.24355652982145" />
    <polyline points="219,111.1192008768393 233,111.1192008768393 240,123.24355652982145" />
    <polyline points="233,111.1192008768393 240,98.994845223857155 254,98.994845223857155" />
    <polyline points="261,111.1192008768393 275,111.1192008768393 282,98.994845223857155 296,98.994845223857155" />
    <polyline points="296,123.24355652982145 303,111.1192008768393 317,111.1192008768393 324,123.24355652982145" />
    <line x1="317" y1="111.1192008768393" x2="324" y2="98.994845223857155" />
    <polyline points="345,111.1192008768393 359,111.1192008768393 366,123.24355652982145" />
    <polyline points="359,111.1192008768393 366,98.994845223857155 380,98.994845223857155" />
    <line x1="380" y1="123.24355652982145" x2="387" y2="111.1192008768393" />
    <polyline points="408,123.24355652982145 401,111.1192008768393 408,98.994845223857155" />
    <polyline points="422,98.994845223857155 429,111.1192008768393 422,123.24355652982145" />
    <polyline points="9,159.61662348876786 2,147.49226783578573 9,135.36791218280359" />
    <line x1="23" y1="135.36791218280359" x2="30" y2="147.49226783578573" />
    <polyline points="30,123.24355652982145 44,123.24355652982145 51,135.36791218280359 44,147.49226783578573" />
    <polyline points="51,135.36791218280359 65,135.36791218280359 72,147.49226783578573" />
    <line x1="72" y1="123.24355652982145" x2="86" y2="123.24355652982145" />
    <polyline points="86,147.49226783578573 93,135.36791218280359 107,135.36791218280359 114,147.49226783578573" />
    <line x1="114" y1="123.24355652982145" x2="128" y2="123.24355652982145" />
    <polyline points="128,147.49226783578573 135,135.36791218280359 149,135.36791218280359 156,147.49226783578573" />
    <polyline points="149,135.36791218280359 156,123.24355652982145 170,123.24355652982145" />
    <line x1="170" y1="147.49226783578573" x2="177" y2="135.36791218280359" />
    <polyline points="198,147.49226783578573 191,135.36791218280359 198,123.24355652982145" />
    <polyline points="212,123.24355652982145 219,135.36791218280359 233,135.36791218280359 240,147.49226783578573" />
    <polyline points="240,123.24355652982145 254,123.24355652982145 261,135.36791218280359 254,147.49226783578573" />
    <polyline points="261,135.36791218280359 275,135.36791218280359 282,147.49226783578573" />
    <polyline points="282,123.24355652982145 296,123.24355652982145 303,135.36791218280359 317,135.36791218280359" />
    <polyline points="324,123.24355652982145 338,123.24355652982145 345,135.36791218280359 338,147.49226783578573" />
    <polyline points="359,135.36791218280359 366,123.24355652982145 380,123.24355652982145 387,135.36791218280359 401,135.36791218280359 408,147.49226783578573" />
    <polyline points="408,123.24355652982145 422,123.24355652982145 429,135.36791218280359 422,147.49226783578573" />
    <polyline points="9,183.86533479473215 2,171.74097914175002 9,159.61662348876789 23,159.61662348876789 30,171.74097914175002" />
    <line x1="23" y1="159.61662348876789" x2="30" y2="147.49226783578575" />
    <polyline points="51,159.61662348876789 65,159.61662348876789 72,171.74097914175002" />
    <polyline points="65,159.61662348876789 72,147.49226783578575 86,147.49226783578575" />
    <polyline points="86,171.74097914175002 93,159.61662348876789 107,159.61662348876789 114,147.49226783578575 128,147.49226783578575 135,159.61662348876789 128,171.74097914175002" />
    <line x1="135" y1="159.61662348876789" x2="149" y2="159.61662348876789" />
    <line x1="156" y1="147.49226783578575" x2="170" y2="147.49226783578575" />
    <polyline points="170,171.74097914175002 177,159.61662348876789 191,159.61662348876789 198,171.74097914175002" />
    <polyline points="191,159.61662348876789 198,147.49226783578575 212,147.49226783578575" />
    <polyline points="212,171.74097914175002 219,159.61662348876789 233,159.61662348876789 240,147.49226783578575" />
    <polyline points="254,147.49226783578575 261,159.61662348876789 254,171.74097914175002" />
    <polyline points="275,159.61662348876789 282,147.49226783578575 296,147.49226783578575" />
    <polyline points="296,171.74097914175002 303,159.61662348876789 317,159.61662348876789 324,171.74097914175002" />
    <polyline points="317,159.61662348876789 324,147.49226783578575 338,147.49226783578575" />
    <polyline points="338,171.74097914175002 345,159.61662348876789 359,159.61662348876789 366,147.49226783578575 380,147.49226783578575 387,159.61662348876789 401,159.61662348876789 408,171.74097914175002" />
    <line x1="401" y1="159.61662348876789" x2="408" y2="147.49226783578575" />
    <polyline points="422,147.49226783578575 429,159.61662348876789 422,171.74097914175002" />
    <polyline points="9,208.11404610069641 2,195.98969044771428 9,183.86533479473215 23,183.86533479473215 30,195.98969044771428" />
    <polyline points="44,171.74097914175002 51,183.86533479473215 65,183.86533479473215 72,195.98969044771428" />
    <line x1="65" y1="183.86533479473215" x2="72" y2="171.74097914175002" />
    <polyline points="86,171.74097914175002 93,183.86533479473215 86,195.98969044771428" />
    <polyline points="93,183.86533479473215 107,183.86533479473215 114,195.98969044771428" />
    <line x1="107" y1="183.86533479473215" x2="114" y2="171.74097914175002" />
    <polyline points="135,183.86533479473215 149,183.86533479473215 156,171.74097914175002 170,171.74097914175002" />
    <polyline points="170,195.98969044771428 177,183.86533479473215 191,183.86533479473215 198,195.98969044771428" />
    <polyline points="198,171.74097914175002 212,171.74097914175002 219,183.86533479473215 212,195.98969044771428" />
    <polyline points="240,195.98969044771428 233,183.86533479473215 240,171.74097914175002 254,171.74097914175002 261,183.86533479473215 275,183.86533479473215 282,171.74097914175002 296,171.74097914175002" />
    <polyline points="296,195.98969044771428 303,183.86533479473215 317,183.86533479473215 324,195.98969044771428" />
    <line x1="324" y1="171.74097914175002" x2="338" y2="171.74097914175002" />
    <polyline points="338,195.98969044771428 345,183.86533479473215 359,183.86533479473215 366,195.98969044771428" />
    <polyline points="359,183.86533479473215 366,171.74097914175002 380,171.74097914175002 387,183.86533479473215 380,195.98969044771428" />
    <polyline points="387,183.86533479473215 401,183.86533479473215 408,171.74097914175002" />
    <polyline points="422,171.74097914175002 429,183.86533479473215 422,195.98969044771428" />
    <polyline points="9,232.36275740666071 2,220.23840175367857 9,208.11404610069644" />
    <polyline points="23,208.11404610069644 30,195.98969044771431 44,195.98969044771431 51,208.11404610069644 65,208.11404610069644" />
    <polyline points="86,195.98969044771431 93,208.11404610069644 86,220.23840175367857" />
    <line x1="107" y1="208.11404610069644" x2="114" y2="220.23840175367857" />
    <polyline points="114,195.98969044771431 128,195.98969044771431 135,208.11404610069644 149,208.11404610069644 156,220.23840175367857" />
    <polyline points="149,208.11404610069644 156,195.98969044771431 170,195.98969044771431" />
    <polyline points="170,220.23840175367857 177,208.11404610069644 191,208.11404610069644 198,220.23840175367857" />
    <line x1="198" y1="195.98969044771431" x2="212" y2="195.98969044771431" />
    <polyline points="212,220.23840175367857 219,208.11404610069644 233,208.11404610069644" />
    <polyline points="254,195.98969044771431 261,208.11404610069644 254,220.23840175367857" />
    <polyline points="261,208.11404610069644 275,208.11404610069644 282,220.23840175367857" />
    <line x1="275" y1="208.11404610069644" x2="282" y2="195.98969044771431" />
    <polyline points="296,220.23840175367857 303,208.11404610069644 317,208.11404610069644 324,195.98969044771431 338,195.98969044771431" />
    <line x1="338" y1="220.23840175367857" x2="345" y2="208.11404610069644" />
    <polyline points="366,220.23840175367857 359,208.11404610069644 366,195.98969044771431" />
    <polyline points="380,220.23840175367857 387,208.11404610069644 401,208.11404610069644 408,220.23840175367857" />
    <polyline points="401,208.11404610069644 408,195.98969044771431 422,195.98969044771431 429,208.11404610069644 422,220.23840175367857" />
    <polyline points="9,256.611468712625 2,244.48711305964287 9,232.36275740666073" />
    <polyline points="30,244.48711305964287 23,232.36275740666073 30,220.2384017536786" />
    <polyline points="44,220.2384017536786 51,232.36275740666073 65,232.36275740666073 72,244.48711305964287" />
    <line x1="65" y1="232.36275740666073" x2="72" y2="220.2384017536786" />
    <polyline points="86,220.2384017536786 93,232.36275740666073 107,232.36275740666073" />
    <polyline points="114,220.2384017536786 128,220.2384017536786 135,232.36275740666073 149,232.36275740666073 156,244.48711305964287" />
    <polyline points="170,220.2384017536786 177,232.36275740666073 170,244.48711305964287" />
    <line x1="177" y1="232.36275740666073" x2="191" y2="232.36275740666073" />
    <polyline points="198,220.2384017536786 212,220.2384017536786 219,232.36275740666073 233,232.36275740666073 240,244.48711305964287" />
    <polyline points="240,220.2384017536786 254,220.2384017536786 261,232.36275740666073 254,244.48711305964287" />
    <polyline points="261,232.36275740666073 275,232.36275740666073 282,244.48711305964287" />
    <polyline points="296,244.48711305964287 303,232.36275740666073 317,232.36275740666073 324,244.48711305964287" />
    <line x1="317" y1="232.36275740666073" x2="324" y2="220.2384017536786" />
    <polyline points="338,220.2384017536786 345,232.36275740666073 338,244.48711305964287" />
    <polyline points="366,244.48711305964287 359,232.36275740666073 366,220.2384017536786 380,220.2384017536786" />
    <polyline points="380,244.48711305964287 387,232.36275740666073 401,232.36275740666073 408,244.48711305964287" />
    <line x1="401" y1="232.36275740666073" x2="408" y2="220.2384017536786" />
    <polyline points="422,220.2384017536786 429,232.36275740666073 422,244.48711305964287" />
    <polyline points="9,280.86018001858929 2,268.73582436560713 9,256.61146871262497 23,256.61146871262497 30,268.73582436560713" />
    <polyline points="30,244.48711305964284 44,244.48711305964284 51,256.61146871262497 44,268.73582436560713" />
    <polyline points="51,256.61146871262497 65,256.61146871262497 72,268.73582436560713" />
    <polyline points="65,256.61146871262497 72,244.48711305964284 86,244.48711305964284" />
    <polyline points="86,268.73582436560713 93,256.61146871262497 107,256.61146871262497 114,268.73582436560713" />
    <polyline points="114,244.48711305964284 128,244.48711305964284 135,256.61146871262497 149,256.61146871262497 156,268.73582436560713" />
    <polyline points="156,244.48711305964284 170,244.48711305964284 177,256.61146871262497 170,268.73582436560713" />
    <polyline points="177,256.61146871262497 191,256.61146871262497 198,268.73582436560713" />
    <polyline points="198,244.48711305964284 212,244.48711305964284 219,256.61146871262497 233,256.61146871262497 240,268.73582436560713" />
    <polyline points="233,256.61146871262497 240,244.48711305964284 254,244.48711305964284" />
    <polyline points="261,256.61146871262497 275,256.61146871262497 282,268.73582436560713" />
    <line x1="282" y1="244.48711305964284" x2="296" y2="244.48711305964284" />
    <line x1="296" y1="268.73582436560713" x2="303" y2="256.61146871262497" />
    <polyline points="324,268.73582436560713 317,256.61146871262497 324,244.48711305964284 338,244.48711305964284" />
    <polyline points="338,268.73582436560713 345,256.61146871262497 359,256.61146871262497 366,268.73582436560713" />
    <polyline points="380,268.73582436560713 387,256.61146871262497 401,256.61146871262497 408,244.48711305964284" />
    <polyline points="422,244.48711305964284 429,256.61146871262497 422,268.73582436560713" />
    <polyline points="9,305.10889132455355 2,292.98453567157139 9,280.86018001858923" />
    <line x1="23" y1="280.86018001858923" x2="30" y2="292.98453567157139" />
    <polyline points="44,268.73582436560707 51,280.86018001858923 44,292.98453567157139" />
    <polyline points="51,280.86018001858923 65,280.86018001858923 72,292.98453567157139" />
    <polyline points="86,268.73582436560707 93,280.86018001858923 86,292.98453567157139" />
    <polyline points="93,280.86018001858923 107,280.86018001858923 114,292.98453567157139" />
    <line x1="114" y1="268.73582436560707" x2="128" y2="268.73582436560707" />
    <polyline points="128,292.98453567157139 135,280.86018001858923 149,280.86018001858923 156,292.98453567157139" />
    <line x1="149" y1="280.86018001858923" x2="156" y2="268.73582436560707" />
    <line x1="170" y1="292.98453567157139" x2="177" y2="280.86018001858923" />
    <line x1="191" y1="280.86018001858923" x2="198" y2="292.98453567157139" />
    <line x1="198" y1="268.73582436560707" x2="212" y2="268.73582436560707" />
    <polyline points="212,292.98453567157139 219,280.86018001858923 233,280.86018001858923" />
    <polyline points="240,268.73582436560707 254,268.73582436560707 261,280.86018001858923 254,292.98453567157139" />
    <polyline points="282,292.98453567157139 275,280.86018001858923 282,268.73582436560707 296,268.73582436560707" />
    <polyline points="296,292.98453567157139 303,280.86018001858923 317,280.86018001858923 324,292.98453567157139" />
    <line x1="338" y1="268.73582436560707" x2="345" y2="280.86018001858923" />
    <line x1="359" y1="280.86018001858923" x2="366" y2="292.98453567157139" />
    <polyline points="366,268.73582436560707 380,268.73582436560707 387,280.86018001858923" />
    <polyline points="401,280.86018001858923 408,268.73582436560707 422,268.73582436560707 429,280.86018001858923 422,292.98453567157139" />
    <polyline points="9,329.35760263051787 2,317.23324697753571 9,305.10889132455355" />
    <polyline points="23,305.10889132455355 30,292.98453567157139 44,292.98453567157139" />
    <polyline points="44,317.23324697753571 51,305.10889132455355 65,305.10889132455355" />
    <line x1="72" y1="292.98453567157139" x2="86" y2="292.98453567157139" />
    <polyline points="86,317.23324697753571 93,305.10889132455355 107,305.10889132455355 114,292.98453567157139 128,292.98453567157139" />
    <line x1="128" y1="317.23324697753571" x2="135" y2="305.10889132455355" />
    <line x1="149" y1="305.10889132455355" x2="156" y2="292.98453567157139" />
    <polyline points="170,292.98453567157139 177,305.10889132455355 170,317.23324697753571" />
    <polyline points="198,317.23324697753571 191,305.10889132455355 198,292.98453567157139 212,292.98453567157139" />
    <polyline points="212,317.23324697753571 219,305.10889132455355 233,305.10889132455355 240,317.23324697753571" />
    <polyline points="233,305.10889132455355 240,292.98453567157139 254,292.98453567157139 261,305.10889132455355 254,317.23324697753571" />
    <polyline points="282,317.23324697753571 275,305.10889132455355 282,292.98453567157139" />
    <polyline points="303,305.10889132455355 317,305.10889132455355 324,292.98453567157139 338,292.98453567157139 345,305.10889132455355 359,305.10889132455355 366,317.23324697753571" />
    <polyline points="359,305.10889132455355 366,292.98453567157139 380,292.98453567157139 387,305.10889132455355 380,317.23324697753571" />
    <polyline points="387,305.10889132455355 401,305.10889132455355 408,317.23324697753571" />
    <line x1="401" y1="305.10889132455355" x2="408" y2="292.98453567157139" />
    <polyline points="422,292.98453567157139 429,305.10889132455355 422,317.23324697753571" />
    <polyline points="9,353.60631393648214 2,341.4819582835 9,329.35760263051782 23,329.35760263051782 30,341.4819582835" />
    <polyline points="23,329.35760263051782 30,317.23324697753566 44,317.23324697753566 51,329.35760263051782 44,341.4819582835" />
    <polyline points="51,329.35760263051782 65,329.35760263051782 72,341.4819582835" />
    <polyline points="65,329.35760263051782 72,317.23324697753566 86,317.23324697753566" />
    <polyline points="86,341.4819582835 93,329.35760263051782 107,329.35760263051782 114,317.23324697753566" />
    <polyline points="128,317.23324697753566 135,329.35760263051782 128,341.4819582835" />
    <line x1="149" y1="329.35760263051782" x2="156" y2="341.4819582835" />
    <polyline points="156,317.23324697753566 170,317.23324697753566 177,329.35760263051782 170,341.4819582835" />
    <polyline points="177,329.35760263051782 191,329.35760263051782 198,341.4819582835" />
    <polyline points="191,329.35760263051782 198,317.23324697753566 212,317.23324697753566" />
    <polyline points="212,341.4819582835 219,329.35760263051782 233,329.35760263051782 240,317.23324697753566" />
    <polyline points="254,317.23324697753566 261,329.35760263051782 254,341.4819582835" />
    <line x1="261" y1="329.35760263051782" x2="275" y2="329.35760263051782" />
    <polyline points="282,317.23324697753566 296,317.23324697753566 303,329.35760263051782 296,341.4819582835" />
    <polyline points="303,329.35760263051782 317,329.35760263051782 324,341.4819582835" />
    <polyline points="317,329.35760263051782 324,317.23324697753566 338,317.23324697753566 345,329.35760263051782 359,329.35760263051782 366,317.23324697753566" />
    <polyline points="380,317.23324697753566 387,329.35760263051782 380,341.4819582835" />
    <line x1="401" y1="329.35760263051782" x2="408" y2="341.4819582835" />
    <polyline points="422,317.23324697753566 429,329.35760263051782 422,341.4819582835" />
    <polyline points="9,377.8550252424464 2,365.73066958946424 9,353.60631393648208" />
    <polyline points="30,365.73066958946424 23,353.60631393648208 30,341.48195828349992" />
    <polyline points="51,353.60631393648208 65,353.60631393648208 72,365.73066958946424" />
    <line x1="72" y1="341.48195828349992" x2="86" y2="341.48195828349992" />
    <polyline points="86,365.73066958946424 93,353.60631393648208 107,353.60631393648208 114,365.73066958946424" />
    <polyline points="107,353.60631393648208 114,341.48195828349992 128,341.48195828349992" />
    <polyline points="135,353.60631393648208 149,353.60631393648208 156,365.73066958946424" />
    <line x1="156" y1="341.48195828349992" x2="170" y2="341.48195828349992" />
    <polyline points="170,365.73066958946424 177,353.60631393648208 191,353.60631393648208 198,365.73066958946424" />
    <line x1="191" y1="353.60631393648208" x2="198" y2="341.48195828349992" />
    <line x1="212" y1="365.73066958946424" x2="219" y2="353.60631393648208" />
    <polyline points="240,365.73066958946424 233,353.60631393648208 240,341.48195828349992 254,341.48195828349992" />
    <polyline points="261,353.60631393648208 275,353.60631393648208 282,341.48195828349992 296,341.48195828349992 303,353.60631393648208" />
    <line x1="317" y1="353.60631393648208" x2="324" y2="341.48195828349992" />
    <polyline points="338,341.48195828349992 345,353.60631393648208 338,365.73066958946424" />
    <polyline points="345,353.60631393648208 359,353.60631393648208 366,365.73066958946424" />
    <polyline points="366,341.48195828349992 380,341.48195828349992 387,353.60631393648208 380,365.73066958946424" />
    <line x1="387" y1="353.60631393648208" x2="401" y2="353.60631393648208" />
    <polyline points="408,341.48195828349992 422,341.48195828349992 429,353.60631393648208 422,365.73066958946424" />
    <polyline points="9,402.10373654841072 2,389.97938089542856 9,377.8550252424464" />
    <polyline points="30,389.97938089542856 23,377.8550252424464 30,365.73066958946424 44,365.73066958946424 51,377.8550252424464 44,389.97938089542856" />
    <polyline points="51,377.8550252424464 65,377.8550252424464 72,389.97938089542856" />
    <polyline points="65,377.8550252424464 72,365.73066958946424 86,365.73066958946424" />
    <line x1="86" y1="389.97938089542856" x2="93" y2="377.8550252424464" />
    <polyline points="114,389.97938089542856 107,377.8550252424464 114,365.73066958946424 128,365.73066958946424" />
    <polyline points="128,389.97938089542856 135,377.8550252424464 149,377.8550252424464 156,389.97938089542856" />
    <polyline points="149,377.8550252424464 156,365.73066958946424 170,365.73066958946424" />
    <line x1="170" y1="389.97938089542856" x2="177" y2="377.8550252424464" />
    <line x1="191" y1="377.8550252424464" x2="198" y2="389.97938089542856" />
    <polyline points="212,365.73066958946424 219,377.8550252424464 233,377.8550252424464 240,389.97938089542856" />
    <polyline points="240,365.73066958946424 254,365.73066958946424 261,377.8550252424464 275,377.8550252424464 282,365.73066958946424 296,365.73066958946424" />
    <polyline points="296,389.97938089542856 303,377.8550252424464 317,377.8550252424464 324,389.97938089542856" />
    <polyline points="317,377.8550252424464 324,365.73066958946424 338,365.73066958946424" />
    <polyline points="338,389.97938089542856 345,377.8550252424464 359,377.8550252424464 366,365.73066958946424 380,365.73066958946424 387,377.8550252424464 380,389.97938089542856" />
    <line x1="401" y1="377.8550252424464" x2="408" y2="389.97938089542856" />
    <polyline points="408,365.73066958946424 422,365.73066958946424 429,377.8550252424464 422,389.97938089542856" />
    <polyline points="9,426.352447854375 2,414.22809220139283 9,402.10373654841067 23,402.10373654841067" />
    <line x1="44" y1="389.97938089542851" x2="51" y2="402.10373654841067" />
    <polyline points="72,414.22809220139283 65,402.10373654841067 72,389.97938089542851" />
    <polyline points="86,389.97938089542851 93,402.10373654841067 107,402.10373654841067 114,414.22809220139283" />
    <polyline points="114,389.97938089542851 128,389.97938089542851 135,402.10373654841067 128,414.22809220139283" />
    <polyline points="149,402.10373654841067 156,389.97938089542851 170,389.97938089542851 177,402.10373654841067 191,402.10373654841067 198,414.22809220139283" />
    <line x1="191" y1="402.10373654841067" x2="198" y2="389.97938089542851" />
    <polyline points="212,389.97938089542851 219,402.10373654841067 233,402.10373654841067 240,414.22809220139283" />
    <polyline points="233,402.10373654841067 240,389.97938089542851 254,389.97938089542851" />
    <polyline points="254,414.22809220139283 261,402.10373654841067 275,402.10373654841067 282,389.97938089542851 296,389.97938089542851" />
    <line x1="296" y1="414.22809220139283" x2="303" y2="402.10373654841067" />
    <line x1="317" y1="402.10373654841067" x2="324" y2="389.97938089542851" />
    <polyline points="338,389.97938089542851 345,402.10373654841067 338,414.22809220139283" />
    <line x1="345" y1="402.10373654841067" x2="359" y2="402.10373654841067" />
    <polyline points="366,389.97938089542851 380,389.97938089542851 387,402.10373654841067 380,414.22809220139283" />
    <line x1="401" y1="402.10373654841067" x2="408" y2="414.22809220139283" />
    <polyline points="408,389.97938089542851 422,389.97938089542851 429,402.10373654841067 422,414.22809220139283" />
    <polyline points="9,450.60115916033925 2,438.47680350735709 9,426.35244785437493" />
    <polyline points="30,438.47680350735709 23,426.35244785437493 30,414.22809220139277 44,414.22809220139277 51,426.35244785437493 65,426.35244785437493 72,438.47680350735709" />
    <line x1="72" y1="414.22809220139277" x2="86" y2="414.22809220139277" />
    <polyline points="86,438.47680350735709 93,426.35244785437493 107,426.35244785437493 114,414.22809220139277" />
    <polyline points="128,438.47680350735709 135,426.35244785437493 149,426.35244785437493 156,438.47680350735709" />
    <polyline points="149,426.35244785437493 156,414.22809220139277 170,414.22809220139277 177,426.35244785437493" />
    <polyline points="191,426.35244785437493 198,414.22809220139277 212,414.22809220139277 219,426.35244785437493 233,426.35244785437493 240,438.47680350735709" />
    <polyline points="240,414.22809220139277 254,414.22809220139277 261,426.35244785437493 275,426.35244785437493 282,438.47680350735709" />
    <polyline points="282,414.22809220139277 296,414.22809220139277 303,426.35244785437493 296,438.47680350735709" />
    <polyline points="317,426.35244785437493 324,414.22809220139277 338,414.22809220139277 345,426.35244785437493 338,438.47680350735709" />
    <polyline points="359,426.35244785437493 366,414.22809220139277 380,414.22809220139277" />
    <polyline points="380,438.47680350735709 387,426.35244785437493 401,426.35244785437493 408,414.22809220139277 422,414.22809220139277 429,426.35244785437493 422,438.47680350735709" />
    <polyline points="9,474.84987046630357 2,462.72551481332141 9,450.60115916033925" />
    <line x1="23" y1="450.60115916033925" x2="30" y2="462.72551481332141" />
    <polyline points="30,438.47680350735709 44,438.47680350735709 51,450.60115916033925 44,462.72551481332141" />
    <polyline points="65,450.60115916033925 72,438.47680350735709 86,438.47680350735709 93,450.60115916033925 86,462.72551481332141" />
    <polyline points="93,450.60115916033925 107,450.60115916033925 114,438.47680350735709 128,438.47680350735709" />
    <line x1="128" y1="462.72551481332141" x2="135" y2="450.60115916033925" />
    <polyline points="156,462.72551481332141 149,450.60115916033925 156,438.47680350735709" />
    <polyline points="170,438.47680350735709 177,450.60115916033925 170,462.72551481332141" />
    <polyline points="177,450.60115916033925 191,450.60115916033925 198,462.72551481332141" />
    <polyline points="191,450.60115916033925 198,438.47680350735709 212,438.47680350735709 219,450.60115916033925" />
    <polyline points="233,450.60115916033925 240,438.47680350735709 254,438.47680350735709 261,450.60115916033925 275,450.60115916033925 282,462.72551481332141" />
    <line x1="282" y1="438.47680350735709" x2="296" y2="438.47680350735709" />
    <line x1="296" y1="462.72551481332141" x2="303" y2="450.60115916033925" />
    <polyline points="324,462.72551481332141 317,450.60115916033925 324,438.47680350735709" />
    <polyline points="338,438.47680350735709 345,450.60115916033925 359,450.60115916033925 366,462.72551481332141" />
    <polyline points="366,438.47680350735709 380,438.47680350735709 387,450.60115916033925 401,450.60115916033925 408,462.72551481332141" />
    <polyline points="408,438.47680350735709 422,438.47680350735709 429,450.60115916033925 422,462.72551481332141" />
    <polyline points="9,499.09858177226783 2,486.97422611928567 9,474.84987046630351 23,474.84987046630351 30,462.72551481332135" />
    <polyline points="44,486.97422611928567 51,474.84987046630351 65,474.84987046630351" />
    <polyline points="72,462.72551481332135 86,462.72551481332135 93,474.84987046630351 86,486.97422611928567" />
    <line x1="107" y1="474.84987046630351" x2="114" y2="486.97422611928567" />
    <polyline points="114,462.72551481332135 128,462.72551481332135 135,474.84987046630351 128,486.97422611928567" />
    <polyline points="156,486.97422611928567 149,474.84987046630351 156,462.72551481332135" />
    <polyline points="170,462.72551481332135 177,474.84987046630351 170,486.97422611928567" />
    <line x1="191" y1="474.84987046630351" x2="198" y2="486.97422611928567" />
    <polyline points="198,462.72551481332135 212,462.72551481332135 219,474.84987046630351 212,486.97422611928567" />
    <polyline points="219,474.84987046630351 233,474.84987046630351 240,462.72551481332135 254,462.72551481332135 261,474.84987046630351 254,486.97422611928567" />
    <polyline points="275,474.84987046630351 282,462.72551481332135 296,462.72551481332135 303,474.84987046630351 296,486.97422611928567" />
    <line x1="303" y1="474.84987046630351" x2="317" y2="474.84987046630351" />
    <polyline points="324,462.72551481332135 338,462.72551481332135 345,474.84987046630351 338,486.97422611928567" />
    <line x1="345" y1="474.84987046630351" x2="359" y2="474.84987046630351" />
    <polyline points="366,462.72551481332135 380,462.72551481332135 387,474.84987046630351 380,486.97422611928567" />
    <polyline points="387,474.84987046630351 401,474.84987046630351 408,462.72551481332135" />
    <polyline points="422,462.72551481332135 429,474.84987046630351 422,486.97422611928567" />
    <polyline points="9,523.347293078232 2,511.22293742524994 9,499.09858177226778" />
    <polyline points="30,511.22293742524994 23,499.09858177226778 30,486.97422611928562" />
    <polyline points="44,486.97422611928562 51,499.09858177226778 44,511.22293742524994" />
    <line x1="51" y1="499.09858177226778" x2="65" y2="499.09858177226778" />
    <polyline points="72,486.97422611928562 86,486.97422611928562 93,499.09858177226778 86,511.22293742524994" />
    <polyline points="93,499.09858177226778 107,499.09858177226778 114,511.22293742524994" />
    <line x1="107" y1="499.09858177226778" x2="114" y2="486.97422611928562" />
    <polyline points="128,486.97422611928562 135,499.09858177226778 149,499.09858177226778 156,511.22293742524994" />
    <line x1="156" y1="486.97422611928562" x2="170" y2="486.97422611928562" />
    <polyline points="170,511.22293742524994 177,499.09858177226778 191,499.09858177226778 198,511.22293742524994" />
    <line x1="191" y1="499.09858177226778" x2="198" y2="486.97422611928562" />
    <polyline points="212,486.97422611928562 219,499.09858177226778 212,511.22293742524994" />
    <polyline points="240,511.22293742524994 233,499.09858177226778 240,486.97422611928562" />
    <line x1="254" y1="511.22293742524994" x2="261" y2="499.09858177226778" />
    <polyline points="282,511.22293742524994 275,499.09858177226778 282,486.97422611928562" />
    <polyline points="296,486.97422611928562 303,499.09858177226778 296,511.22293742524994" />
    <polyline points="324,511.22293742524994 317,499.09858177226778 324,486.97422611928562 338,486.97422611928562 345,499.09858177226778" />
    <polyline points="359,499.09858177226778 366,486.97422611928562 380,486.97422611928562" />
    <polyline points="387,499.09858177226778 401,499.09858177226778 408,511.22293742524994" />
    <polyline points="401,499.09858177226778 408,486.97422611928562 422,486.97422611928562 429,499.09858177226778 422,511.22293742524994" />
    <polyline points="9,547.59600438419636 2,535.47164873121426 9,523.34729307823216 23,523.34729307823216 30,511.22293742525" />
    <polyline points="44,511.22293742525 51,523.34729307823216 44,535.47164873121426" />
    <polyline points="51,523.34729307823216 65,523.34729307823216 72,535.47164873121426" />
    <line x1="72" y1="511.22293742525" x2="86" y2="511.22293742525" />
    <line x1="86" y1="535.47164873121426" x2="93" y2="523.34729307823216" />
    <polyline points="114,535.47164873121426 107,523.34729307823216 114,511.22293742525 128,511.22293742525 135,523.34729307823216 128,535.47164873121426" />
    <polyline points="135,523.34729307823216 149,523.34729307823216 156,535.47164873121426" />
    <line x1="156" y1="511.22293742525" x2="170" y2="511.22293742525" />
    <polyline points="177,523.34729307823216 191,523.34729307823216 198,535.47164873121426" />
    <line x1="191" y1="523.34729307823216" x2="198" y2="511.22293742525" />
    <polyline points="212,511.22293742525 219,523.34729307823216 212,535.47164873121426" />
    <line x1="233" y1="523.34729307823216" x2="240" y2="535.47164873121426" />
    <polyline points="240,511.22293742525 254,511.22293742525 261,523.34729307823216 254,535.47164873121426" />
    <line x1="275" y1="523.34729307823216" x2="282" y2="535.47164873121426" />
    <polyline points="282,511.22293742525 296,511.22293742525 303,523.34729307823216 317,523.34729307823216 324,511.22293742525 338,511.22293742525 345,523.34729307823216 359,523.34729307823216 366,511.22293742525 380,511.22293742525 387,523.34729307823216 380,535.47164873121426" />
    <line x1="401" y1="523.34729307823216" x2="408" y2="535.47164873121426" />
    <polyline points="422,511.22293742525 429,523.34729307823216 422,535.47164873121426" />
    <polyline points="9,571.84471569016057 2,559.72036003717847 9,547.59600438419636 23,547.59600438419636" />
    <polyline points="30,535.47164873121426 44,535.47164873121426 51,547.59600438419636 44,559.72036003717847" />
    <line x1="65" y1="547.59600438419636" x2="72" y2="559.72036003717847" />
    <polyline points="72,535.47164873121426 86,535.47164873121426 93,547.59600438419636 86,559.72036003717847" />
    <polyline points="93,547.59600438419636 107,547.59600438419636 114,559.72036003717847" />
    <polyline points="128,535.47164873121426 135,547.59600438419636 128,559.72036003717847" />
    <line x1="149" y1="547.59600438419636" x2="156" y2="559.72036003717847" />
    <line x1="156" y1="535.47164873121426" x2="170" y2="535.47164873121426" />
    <polyline points="170,559.72036003717847 177,547.59600438419636 191,547.59600438419636 198,559.72036003717847" />
    <line x1="191" y1="547.59600438419636" x2="198" y2="535.47164873121426" />
    <polyline points="212,535.47164873121426 219,547.59600438419636 233,547.59600438419636 240,559.72036003717847" />
    <line x1="233" y1="547.59600438419636" x2="240" y2="535.47164873121426" />
    <polyline points="254,535.47164873121426 261,547.59600438419636 254,559.72036003717847" />
    <polyline points="261,547.59600438419636 275,547.59600438419636 282,559.72036003717847" />
    <polyline points="275,547.59600438419636 282,535.47164873121426 296,535.47164873121426 303,547.59600438419636 317,547.59600438419636" />
    <polyline points="324,535.47164873121426 338,535.47164873121426 345,547.59600438419636 359,547.59600438419636 366,559.72036003717847" />
    <polyline points="359,547.59600438419636 366,535.47164873121426 380,535.47164873121426" />
    <polyline points="387,547.59600438419636 401,547.59600438419636 408,559.72036003717847" />
    <line x1="401" y1="547.59600438419636" x2="408" y2="535.47164873121426" />
    <polyline points="422,535.47164873121426 429,547.59600438419636 422,559.72036003717847" />
    <polyline points="9,596.09342699612489 2,583.96907134314279 9,571.84471569016068" />
    <polyline points="30,583.96907134314279 23,571.84471569016068 30,559.72036003717858" />
    <polyline points="51,571.84471569016068 65,571.84471569016068 72,583.96907134314279" />
    <line x1="65" y1="571.84471569016068" x2="72" y2="559.72036003717858" />
    <polyline points="93,571.84471569016068 107,571.84471569016068 114,559.72036003717858 128,559.72036003717858" />
    <polyline points="135,571.84471569016068 149,571.84471569016068 156,583.96907134314279" />
    <polyline points="149,571.84471569016068 156,559.72036003717858 170,559.72036003717858" />
    <line x1="170" y1="583.96907134314279" x2="177" y2="571.84471569016068" />
    <polyline points="198,583.96907134314279 191,571.84471569016068 198,559.72036003717858 212,559.72036003717858" />
    <polyline points="219,571.84471569016068 233,571.84471569016068 240,559.72036003717858 254,559.72036003717858" />
    <line x1="254" y1="583.96907134314279" x2="261" y2="571.84471569016068" />
    <polyline points="282,583.96907134314279 275,571.84471569016068 282,559.72036003717858" />
    <polyline points="296,559.72036003717858 303,571.84471569016068 296,583.96907134314279" />
    <polyline points="317,571.84471569016068 324,559.72036003717858 338,559.72036003717858 345,571.84471569016068 359,571.84471569016068 366,583.96907134314279" />
    <polyline points="366,559.72036003717858 380,559.72036003717858 387,571.84471569016068 380,583.96907134314279" />
    <polyline points="408,583.96907134314279 401,571.84471569016068 408,559.72036003717858" />
    <polyline points="422,559.72036003717858 429,571.84471569016068 422,583.96907134314279" />
    <polyline points="9,620.34213830208921 2,608.21778264910711 9,596.093426996125" />
    <polyline points="23,596.093426996125 30,583.9690713431429 44,583.9690713431429 51,596.093426996125 44,608.21778264910711" />
    <polyline points="65,596.093426996125 72,583.9690713431429 86,583.9690713431429 93,596.093426996125 107,596.093426996125 114,583.9690713431429 128,583.9690713431429 135,596.093426996125 128,608.21778264910711" />
    <line x1="149" y1="596.093426996125" x2="156" y2="608.21778264910711" />
    <polyline points="170,583.9690713431429 177,596.093426996125 191,596.093426996125 198,583.9690713431429 212,583.9690713431429 219,596.093426996125 212,608.21778264910711" />
    <polyline points="219,596.093426996125 233,596.093426996125 240,583.9690713431429 254,583.9690713431429" />
    <polyline points="254,608.21778264910711 261,596.093426996125 275,596.093426996125 282,583.9690713431429" />
    <polyline points="296,583.9690713431429 303,596.093426996125 296,608.21778264910711" />
    <polyline points="324,608.21778264910711 317,596.093426996125 324,583.9690713431429 338,583.9690713431429 345,596.093426996125" />
    <polyline points="366,608.21778264910711 359,596.093426996125 366,583.9690713431429" />
    <polyline points="380,583.9690713431429 387,596.093426996125 401,596.093426996125" />
    <polyline points="408,583.9690713431429 422,583.9690713431429 429,596.093426996125 422,608.21778264910711" />
    <polyline points="30,608.21778264910711 23,620.34213830208921 9,620.34213830208921" />
    <line x1="44" y1="608.21778264910711" x2="30" y2="608.21778264910711" />
    <polyline points="72,608.21778264910711 65,620.34213830208921 51,620.34213830208921 44,608.21778264910711" />
    <line x1="86" y1="608.21778264910711" x2="72" y2="608.21778264910711" />
    <polyline points="114,608.21778264910711 107,620.34213830208921 93,620.34213830208921 86,608.21778264910711" />
    <line x1="128" y1="608.21778264910711" x2="114" y2="608.21778264910711" />
    <polyline points="156,608.21778264910711 149,620.34213830208921 135,620.34213830208921 128,608.21778264910711" />
    <line x1="170" y1="608.21778264910711" x2="156" y2="608.21778264910711" />
    <polyline points="198,608.21778264910711 191,620.34213830208921 177,620.34213830208921 170,608.21778264910711" />
    <line x1="212" y1="608.21778264910711" x2="198" y2="608.21778264910711" />
    <line x1="240" y1="608.21778264910711" x2="233" y2="620.34213830208921" />
    <line x1="219" y1="620.34213830208921" x2="212" y2="608.21778264910711" />
    <line x1="254" y1="608.21778264910711" x2="240" y2="608.21778264910711" />
    <polyline points="282,608.21778264910711 275,620.34213830208921 261,620.34213830208921 254,608.21778264910711" />
    <line x1="296" y1="608.21778264910711" x2="282" y2="608.21778264910711" />
    <polyline points="324,608.21778264910711 317,620.34213830208921 303,620.34213830208921 296,608.21778264910711" />
    <line x1="338" y1="608.21778264910711" x2="324" y2="608.21778264910711" />
    <polyline points="366,608.21778264910711 359,620.34213830208921 345,620.34213830208921 338,608.21778264910711" />
    <line x1="380" y1="608.21778264910711" x2="366" y2="608.21778264910711" />
    <polyline points="408,608.21778264910711 401,620.34213830208921 387,620.34213830208921 380,608.21778264910711" />
    <line x1="422" y1="608.21778264910711" x2="408" y2="608.21778264910711" />
  </g>
  <polyline fill="none" stroke="#ff0000" stroke-width="2" stroke-linecap="square" stroke-linejoin="round" points="205,2.0000000000000391 205,14.12435565298218 184,26.248711305964321 184,50.4974226119286 163,38.37306695894646 163,62.621778264910738 121,86.870489570875023 142,98.994845223857169 163,86.870489570875023 163,111.1192008768393 121,135.36791218280359 100,123.24355652982145 79,135.36791218280359 58,123.24355652982145 79,111.1192008768393 79,86.870489570875023 37,62.621778264910738 37,111.1192008768393 16,123.24355652982145 37,135.36791218280359 37,183.86533479473215 79,208.11404610069644 79,232.36275740666073 100,244.48711305964287 121,232.36275740666073 100,220.23840175367857 100,195.98969044771428 163,232.36275740666073 163,208.11404610069644 184,195.98969044771428 205,208.11404610069644 226,195.98969044771428 247,208.11404610069644 247,183.86533479473215 268,195.98969044771428 289,183.86533479473215 289,232.36275740666073 352,195.98969044771428 352,244.48711305964287 331,256.61146871262497 331,280.86018001858923 310,268.73582436560713 310,244.48711305964287 289,256.61146871262497 268,244.48711305964287 247,256.61146871262497 268,268.73582436560713 268,317.23324697753571 289,329.35760263051782 247,353.60631393648208 268,365.73066958946424 289,353.60631393648208 310,365.73066958946424 268,389.97938089542856 226,365.73066958946424 226,341.4819582835 205,353.60631393648208 205,402.10373654841067 289,450.60115916033925 331,426.35244785437493 331,450.60115916033925 373,474.84987046630351 352,486.97422611928567 352,511.22293742524994 373,499.09858177226778 394,511.22293742524994 394,535.47164873121426 373,547.59600438419636 394,559.72036003717847 394,583.96907134314279 415,596.093426996125 394,608.21778264910711 373,596.093426996125 373,571.84471569016068 268,511.22293742524994 268,462.72551481332141 247,450.60115916033925 226,462.72551481332141 226,438.47680350735709 205,426.35244785437493 184,438.47680350735709 184,414.22809220139283 163,402.10373654841067 121,426.35244785437493 121,402.10373654841067 100,389.97938089542856 100,365.73066958946424 79,377.8550252424464 79,402.10373654841067 100,414.22809220139283 79,426.35244785437493 37,402.10373654841067 16,414.22809220139283 16,438.47680350735709 37,450.60115916033925 37,523.34729307823216 16,535.47164873121426 37,547.59600438419636 37,571.84471569016068 58,559.72036003717847 58,535.47164873121426 79,547.59600438419636 79,571.84471569016068 100,583.96907134314279 142,559.72036003717847 142,535.47164873121426 163,547.59600438419636 184,535.47164873121426 121,499.09858177226778 121,474.84987046630351 100,462.72551481332141 142,438.47680350735709 142,486.97422611928567 163,499.09858177226778 184,486.97422611928567 184,462.72551481332141 205,474.84987046630351 205,547.59600438419636 226,559.72036003717847 205,571.84471569016068 226,583.96907134314279 268,559.72036003717847 268,583.96907134314279 226,608.21778264910711 226,620.34213830208921" />
  <type>Rectangular</type>
</svg>